<svg width="1200" height="800" viewBox="0 0 1200 800" xmlns="http://www.w3.org/2000/svg">
<rect x="0" y="0" width="1199" height="799" opacity="1" fill="#FFFFFF" stroke="none"/>
<line opacity="0.1" stroke="#000000" stroke-width="1" x1="60" y1="724" x2="1190" y2="724"/>
<line opacity="0.1" stroke="#000000" stroke-width="1" x1="60" y1="710" x2="1190" y2="710"/>
<line opacity="0.1" stroke="#000000" stroke-width="1" x1="60" y1="695" x2="1190" y2="695"/>
<line opacity="0.1" stroke="#000000" stroke-width="1" x1="60" y1="681" x2="1190" y2="681"/>
<line opacity="0.1" stroke="#000000" stroke-width="1" x1="60" y1="666" x2="1190" y2="666"/>
<line opacity="0.1" stroke="#000000" stroke-width="1" x1="60" y1="652" x2="1190" y2="652"/>
<line opacity="0.1" stroke="#000000" stroke-width="1" x1="60" y1="637" x2="1190" y2="637"/>
<line opacity="0.1" stroke="#000000" stroke-width="1" x1="60" y1="623" x2="1190" y2="623"/>
<line opacity="0.1" stroke="#000000" stroke-width="1" x1="60" y1="609" x2="1190" y2="609"/>
<line opacity="0.1" stroke="#000000" stroke-width="1" x1="60" y1="594" x2="1190" y2="594"/>
<line opacity="0.1" stroke="#000000" stroke-width="1" x1="60" y1="580" x2="1190" y2="580"/>
<line opacity="0.1" stroke="#000000" stroke-width="1" x1="60" y1="565" x2="1190" y2="565"/>
<line opacity="0.1" stroke="#000000" stroke-width="1" x1="60" y1="551" x2="1190" y2="551"/>
<line opacity="0.1" stroke="#000000" stroke-width="1" x1="60" y1="536" x2="1190" y2="536"/>
<line opacity="0.1" stroke="#000000" stroke-width="1" x1="60" y1="522" x2="1190" y2="522"/>
<line opacity="0.1" stroke="#000000" stroke-width="1" x1="60" y1="507" x2="1190" y2="507"/>
<line opacity="0.1" stroke="#000000" stroke-width="1" x1="60" y1="493" x2="1190" y2="493"/>
<line opacity="0.1" stroke="#000000" stroke-width="1" x1="60" y1="479" x2="1190" y2="479"/>
<line opacity="0.1" stroke="#000000" stroke-width="1" x1="60" y1="464" x2="1190" y2="464"/>
<line opacity="0.1" stroke="#000000" stroke-width="1" x1="60" y1="450" x2="1190" y2="450"/>
<line opacity="0.1" stroke="#000000" stroke-width="1" x1="60" y1="435" x2="1190" y2="435"/>
<line opacity="0.1" stroke="#000000" stroke-width="1" x1="60" y1="421" x2="1190" y2="421"/>
<line opacity="0.1" stroke="#000000" stroke-width="1" x1="60" y1="406" x2="1190" y2="406"/>
<line opacity="0.1" stroke="#000000" stroke-width="1" x1="60" y1="392" x2="1190" y2="392"/>
<line opacity="0.1" stroke="#000000" stroke-width="1" x1="60" y1="377" x2="1190" y2="377"/>
<line opacity="0.1" stroke="#000000" stroke-width="1" x1="60" y1="363" x2="1190" y2="363"/>
<line opacity="0.1" stroke="#000000" stroke-width="1" x1="60" y1="349" x2="1190" y2="349"/>
<line opacity="0.1" stroke="#000000" stroke-width="1" x1="60" y1="334" x2="1190" y2="334"/>
<line opacity="0.1" stroke="#000000" stroke-width="1" x1="60" y1="320" x2="1190" y2="320"/>
<line opacity="0.1" stroke="#000000" stroke-width="1" x1="60" y1="305" x2="1190" y2="305"/>
<line opacity="0.1" stroke="#000000" stroke-width="1" x1="60" y1="291" x2="1190" y2="291"/>
<line opacity="0.1" stroke="#000000" stroke-width="1" x1="60" y1="276" x2="1190" y2="276"/>
<line opacity="0.1" stroke="#000000" stroke-width="1" x1="60" y1="262" x2="1190" y2="262"/>
<line opacity="0.1" stroke="#000000" stroke-width="1" x1="60" y1="247" x2="1190" y2="247"/>
<line opacity="0.1" stroke="#000000" stroke-width="1" x1="60" y1="233" x2="1190" y2="233"/>
<line opacity="0.1" stroke="#000000" stroke-width="1" x1="60" y1="218" x2="1190" y2="218"/>
<line opacity="0.1" stroke="#000000" stroke-width="1" x1="60" y1="204" x2="1190" y2="204"/>
<line opacity="0.1" stroke="#000000" stroke-width="1" x1="60" y1="190" x2="1190" y2="190"/>
<line opacity="0.1" stroke="#000000" stroke-width="1" x1="60" y1="175" x2="1190" y2="175"/>
<line opacity="0.1" stroke="#000000" stroke-width="1" x1="60" y1="161" x2="1190" y2="161"/>
<line opacity="0.1" stroke="#000000" stroke-width="1" x1="60" y1="146" x2="1190" y2="146"/>
<line opacity="0.1" stroke="#000000" stroke-width="1" x1="60" y1="132" x2="1190" y2="132"/>
<line opacity="0.1" stroke="#000000" stroke-width="1" x1="60" y1="117" x2="1190" y2="117"/>
<line opacity="0.1" stroke="#000000" stroke-width="1" x1="60" y1="103" x2="1190" y2="103"/>
<line opacity="0.1" stroke="#000000" stroke-width="1" x1="60" y1="88" x2="1190" y2="88"/>
<line opacity="0.1" stroke="#000000" stroke-width="1" x1="60" y1="74" x2="1190" y2="74"/>
<line opacity="0.1" stroke="#000000" stroke-width="1" x1="60" y1="60" x2="1190" y2="60"/>
<line opacity="0.1" stroke="#000000" stroke-width="1" x1="60" y1="45" x2="1190" y2="45"/>
<line opacity="0.1" stroke="#000000" stroke-width="1" x1="60" y1="31" x2="1190" y2="31"/>
<line opacity="0.1" stroke="#000000" stroke-width="1" x1="60" y1="16" x2="1190" y2="16"/>
<text x="10" y="375" dy="0.76em" text-anchor="middle" font-family="sans-serif" font-size="9.67741935483871" opacity="1" fill="#000000" transform="rotate(270, 10, 375)">
Number of dependent crates
</text>
<line opacity="0.2" stroke="#000000" stroke-width="1" x1="60" y1="666" x2="1190" y2="666"/>
<line opacity="0.2" stroke="#000000" stroke-width="1" x1="60" y1="594" x2="1190" y2="594"/>
<line opacity="0.2" stroke="#000000" stroke-width="1" x1="60" y1="522" x2="1190" y2="522"/>
<line opacity="0.2" stroke="#000000" stroke-width="1" x1="60" y1="450" x2="1190" y2="450"/>
<line opacity="0.2" stroke="#000000" stroke-width="1" x1="60" y1="377" x2="1190" y2="377"/>
<line opacity="0.2" stroke="#000000" stroke-width="1" x1="60" y1="305" x2="1190" y2="305"/>
<line opacity="0.2" stroke="#000000" stroke-width="1" x1="60" y1="233" x2="1190" y2="233"/>
<line opacity="0.2" stroke="#000000" stroke-width="1" x1="60" y1="161" x2="1190" y2="161"/>
<line opacity="0.2" stroke="#000000" stroke-width="1" x1="60" y1="88" x2="1190" y2="88"/>
<line opacity="0.2" stroke="#000000" stroke-width="1" x1="60" y1="16" x2="1190" y2="16"/>
<polyline fill="none" opacity="1" stroke="#000000" stroke-width="1" points="59,10 59,740 "/>
<text x="50" y="666" dy="0.5ex" text-anchor="end" font-family="sans-serif" font-size="9.67741935483871" opacity="1" fill="#000000">
500
</text>
<polyline fill="none" opacity="1" stroke="#000000" stroke-width="1" points="54,666 59,666 "/>
<text x="50" y="594" dy="0.5ex" text-anchor="end" font-family="sans-serif" font-size="9.67741935483871" opacity="1" fill="#000000">
1000
</text>
<polyline fill="none" opacity="1" stroke="#000000" stroke-width="1" points="54,594 59,594 "/>
<text x="50" y="522" dy="0.5ex" text-anchor="end" font-family="sans-serif" font-size="9.67741935483871" opacity="1" fill="#000000">
1500
</text>
<polyline fill="none" opacity="1" stroke="#000000" stroke-width="1" points="54,522 59,522 "/>
<text x="50" y="450" dy="0.5ex" text-anchor="end" font-family="sans-serif" font-size="9.67741935483871" opacity="1" fill="#000000">
2000
</text>
<polyline fill="none" opacity="1" stroke="#000000" stroke-width="1" points="54,450 59,450 "/>
<text x="50" y="377" dy="0.5ex" text-anchor="end" font-family="sans-serif" font-size="9.67741935483871" opacity="1" fill="#000000">
2500
</text>
<polyline fill="none" opacity="1" stroke="#000000" stroke-width="1" points="54,377 59,377 "/>
<text x="50" y="305" dy="0.5ex" text-anchor="end" font-family="sans-serif" font-size="9.67741935483871" opacity="1" fill="#000000">
3000
</text>
<polyline fill="none" opacity="1" stroke="#000000" stroke-width="1" points="54,305 59,305 "/>
<text x="50" y="233" dy="0.5ex" text-anchor="end" font-family="sans-serif" font-size="9.67741935483871" opacity="1" fill="#000000">
3500
</text>
<polyline fill="none" opacity="1" stroke="#000000" stroke-width="1" points="54,233 59,233 "/>
<text x="50" y="161" dy="0.5ex" text-anchor="end" font-family="sans-serif" font-size="9.67741935483871" opacity="1" fill="#000000">
4000
</text>
<polyline fill="none" opacity="1" stroke="#000000" stroke-width="1" points="54,161 59,161 "/>
<text x="50" y="88" dy="0.5ex" text-anchor="end" font-family="sans-serif" font-size="9.67741935483871" opacity="1" fill="#000000">
4500
</text>
<polyline fill="none" opacity="1" stroke="#000000" stroke-width="1" points="54,88 59,88 "/>
<text x="50" y="16" dy="0.5ex" text-anchor="end" font-family="sans-serif" font-size="9.67741935483871" opacity="1" fill="#000000">
5000
</text>
<polyline fill="none" opacity="1" stroke="#000000" stroke-width="1" points="54,16 59,16 "/>
<polyline fill="none" opacity="1" stroke="#000000" stroke-width="1" points="60,740 1190,740 "/>
<text x="60" y="750" dy="0.76em" text-anchor="middle" font-family="sans-serif" font-size="9.67741935483871" opacity="1" fill="#000000">
2014-11-20Z
</text>
<polyline fill="none" opacity="1" stroke="#000000" stroke-width="1" points="60,740 60,745 "/>
<text x="175" y="750" dy="0.76em" text-anchor="middle" font-family="sans-serif" font-size="9.67741935483871" opacity="1" fill="#000000">
2015-07-16Z
</text>
<polyline fill="none" opacity="1" stroke="#000000" stroke-width="1" points="175,740 175,745 "/>
<text x="290" y="750" dy="0.76em" text-anchor="middle" font-family="sans-serif" font-size="9.67741935483871" opacity="1" fill="#000000">
2016-03-10Z
</text>
<polyline fill="none" opacity="1" stroke="#000000" stroke-width="1" points="290,740 290,745 "/>
<text x="405" y="750" dy="0.76em" text-anchor="middle" font-family="sans-serif" font-size="9.67741935483871" opacity="1" fill="#000000">
2016-11-03Z
</text>
<polyline fill="none" opacity="1" stroke="#000000" stroke-width="1" points="405,740 405,745 "/>
<text x="520" y="750" dy="0.76em" text-anchor="middle" font-family="sans-serif" font-size="9.67741935483871" opacity="1" fill="#000000">
2017-06-29Z
</text>
<polyline fill="none" opacity="1" stroke="#000000" stroke-width="1" points="520,740 520,745 "/>
<text x="636" y="750" dy="0.76em" text-anchor="middle" font-family="sans-serif" font-size="9.67741935483871" opacity="1" fill="#000000">
2018-02-22Z
</text>
<polyline fill="none" opacity="1" stroke="#000000" stroke-width="1" points="636,740 636,745 "/>
<text x="751" y="750" dy="0.76em" text-anchor="middle" font-family="sans-serif" font-size="9.67741935483871" opacity="1" fill="#000000">
2018-10-18Z
</text>
<polyline fill="none" opacity="1" stroke="#000000" stroke-width="1" points="751,740 751,745 "/>
<text x="866" y="750" dy="0.76em" text-anchor="middle" font-family="sans-serif" font-size="9.67741935483871" opacity="1" fill="#000000">
2019-06-13Z
</text>
<polyline fill="none" opacity="1" stroke="#000000" stroke-width="1" points="866,740 866,745 "/>
<text x="981" y="750" dy="0.76em" text-anchor="middle" font-family="sans-serif" font-size="9.67741935483871" opacity="1" fill="#000000">
2020-02-06Z
</text>
<polyline fill="none" opacity="1" stroke="#000000" stroke-width="1" points="981,740 981,745 "/>
<text x="1097" y="750" dy="0.76em" text-anchor="middle" font-family="sans-serif" font-size="9.67741935483871" opacity="1" fill="#000000">
2020-10-01Z
</text>
<polyline fill="none" opacity="1" stroke="#000000" stroke-width="1" points="1097,740 1097,745 "/>
<polyline fill="none" opacity="1" stroke="#E61919" stroke-width="2" points="158,738 163,738 163,738 197,738 222,738 249,738 258,737 258,737 265,737 268,737 270,737 272,737 273,737 274,737 275,737 276,737 277,736 286,737 286,737 299,736 300,736 304,736 310,736 313,736 314,736 326,736 327,736 332,735 348,735 348,735 350,735 350,735 350,735 351,735 352,735 353,735 353,735 354,735 354,735 356,735 356,735 357,735 395,735 395,735 396,735 397,735 398,735 421,735 421,735 422,735 423,735 424,735 425,735 425,735 426,735 426,735 428,734 429,734 431,734 431,734 432,734 432,734 433,734 434,734 435,734 437,734 438,734 438,734 439,734 439,734 440,734 441,734 442,734 444,734 444,734 445,734 445,734 446,734 447,734 447,734 448,734 449,734 449,734 451,734 451,734 453,734 453,734 454,734 454,734 456,734 457,734 457,734 459,734 459,734 460,734 461,734 463,733 463,733 464,733 464,733 466,733 466,733 467,733 468,733 469,733 469,733 470,733 471,733 472,733 473,733 474,733 474,733 475,733 475,733 476,733 477,733 478,733 479,733 480,733 481,733 482,733 482,733 484,733 485,733 486,733 488,733 489,733 489,733 492,733 494,733 495,733 496,733 497,733 498,733 499,733 499,733 501,733 502,733 504,733 505,733 505,733 507,733 507,733 508,733 508,733 510,733 511,733 511,733 512,733 513,733 513,733 514,733 514,733 515,733 515,733 516,733 517,733 518,733 519,733 521,733 524,733 525,733 526,733 526,733 527,733 527,733 528,733 528,733 530,733 531,733 531,733 532,733 532,733 533,733 533,733 533,733 534,732 534,732 535,732 536,732 537,732 539,732 540,732 540,732 541,732 541,732 542,732 543,732 543,732 548,732 550,732 552,732 553,732 553,732 554,732 556,732 557,732 560,732 561,732 561,732 570,732 571,732 572,732 575,732 576,732 581,732 582,732 584,732 585,731 586,731 586,731 588,731 591,731 592,731 594,731 594,731 595,731 597,731 598,731 598,731 599,731 600,731 600,731 601,731 601,731 602,731 603,731 603,731 604,731 605,731 605,731 606,731 606,731 607,731 607,731 608,731 609,731 609,731 610,731 611,731 611,731 612,731 613,731 613,731 615,731 615,731 616,731 616,731 617,731 618,731 618,731 619,731 620,731 620,731 621,731 623,731 624,731 624,731 625,731 625,731 626,731 627,731 627,731 628,731 629,731 629,731 632,731 633,731 633,731 635,731 635,731 636,731 638,731 639,731 641,731 642,731 642,731 643,731 643,731 644,731 644,731 645,731 647,731 647,731 648,731 648,731 651,731 651,731 652,731 652,731 653,731 654,731 654,731 655,731 657,731 657,731 658,731 658,731 659,731 659,731 660,731 661,731 662,731 662,731 663,731 663,731 664,731 664,731 665,731 665,731 666,731 666,731 667,731 667,731 668,731 668,731 669,731 669,731 670,731 670,731 671,731 671,731 673,731 674,731 674,731 675,731 677,731 678,731 679,731 679,731 680,731 682,731 682,731 683,731 683,731 684,731 684,731 685,731 685,731 686,731 686,731 686,731 687,731 687,731 688,731 688,731 689,731 691,731 692,731 692,731 693,731 694,731 694,731 695,731 695,731 696,731 696,731 697,731 697,731 698,731 698,731 699,731 699,731 700,731 701,731 701,731 701,730 702,730 702,730 703,730 703,730 704,730 704,730 705,730 706,730 706,730 707,730 708,730 709,730 710,730 710,730 711,730 711,730 712,730 713,730 714,730 714,730 715,730 716,730 716,730 716,730 717,730 717,730 718,730 718,730 719,730 720,730 720,730 721,730 721,730 722,730 722,730 723,730 723,730 724,730 725,730 726,730 727,730 727,730 728,730 728,730 729,730 729,730 730,730 731,730 731,730 731,730 732,730 733,730 733,730 734,730 735,730 735,730 736,730 736,730 737,730 738,730 738,730 739,730 739,730 740,730 740,730 740,730 741,730 741,730 742,730 742,730 743,730 743,730 744,730 744,730 745,730 745,730 746,730 747,730 747,730 747,730 748,730 748,730 749,730 749,730 750,730 751,730 751,730 752,730 753,730 753,730 754,730 755,730 755,730 757,730 757,730 758,730 758,730 759,730 759,730 760,730 760,730 761,730 761,730 762,730 762,730 763,730 763,730 764,730 764,730 766,730 766,730 767,730 768,730 768,730 769,730 769,730 770,730 771,730 771,730 772,730 772,730 773,730 774,730 774,730 775,730 776,730 776,730 777,730 777,730 778,730 778,730 779,730 780,730 781,730 782,730 782,730 783,730 784,730 784,730 785,730 786,730 786,730 787,730 787,730 788,730 788,730 789,730 790,730 790,730 791,730 791,730 792,730 792,730 792,730 793,730 793,730 794,730 795,730 795,730 796,730 797,730 798,730 799,730 799,730 800,730 801,730 801,730 802,730 802,730 803,730 803,729 804,729 804,729 805,729 806,729 807,729 807,729 808,729 808,729 809,729 810,729 810,729 811,729 811,729 812,729 812,729 813,729 813,729 814,729 814,729 815,729 815,729 816,729 817,729 817,729 818,729 818,729 819,729 819,729 820,729 820,729 821,729 821,729 822,729 822,729 823,729 823,729 823,729 824,729 825,729 825,729 826,729 826,729 827,729 827,729 828,729 829,729 829,729 830,729 830,729 831,729 831,729 832,729 833,729 833,729 834,729 834,729 835,729 835,729 837,729 837,729 839,729 840,729 840,729 841,729 842,729 842,729 843,729 843,729 844,729 844,729 845,729 845,729 846,729 846,729 847,729 847,729 848,729 849,729 849,729 850,729 852,729 852,729 853,729 853,729 854,729 854,729 855,729 856,729 857,729 857,729 858,729 858,729 859,729 859,729 860,729 861,728 862,728 862,728 863,728 863,728 864,728 864,728 866,728 867,728 867,728 868,728 868,728 869,728 869,728 870,728 870,728 871,728 872,728 872,728 873,728 873,728 874,728 874,728 876,728 877,728 877,728 878,728 878,728 879,728 879,728 880,728 880,728 881,728 882,728 882,728 883,728 884,728 884,728 884,728 885,728 886,728 887,728 887,728 888,728 888,728 889,728 889,728 890,728 890,728 891,728 891,728 892,728 892,728 893,728 893,728 894,728 894,728 895,728 895,728 896,728 897,728 898,728 899,728 899,728 900,728 900,728 901,728 901,728 903,728 903,729 904,729 904,729 905,729 905,729 906,729 906,729 907,729 907,729 908,729 908,729 909,729 910,729 912,729 913,729 913,729 914,729 914,729 915,729 916,729 917,729 917,729 918,729 918,729 919,729 919,729 920,729 921,729 921,729 922,729 924,729 924,729 926,729 926,729 927,729 927,729 928,729 929,729 929,729 930,729 931,729 931,729 932,729 932,729 933,729 933,729 934,729 934,729 935,729 935,729 936,729 936,729 937,729 937,729 938,729 938,729 939,729 939,729 940,729 940,729 941,729 941,729 942,729 942,729 943,728 944,728 945,728 945,728 945,728 946,728 950,728 950,728 951,728 951,728 952,728 953,728 953,728 954,728 954,728 955,728 956,728 958,728 958,728 959,728 959,728 960,728 961,728 961,728 962,728 963,728 963,728 964,728 964,728 965,728 966,728 966,728 967,728 967,728 968,728 968,728 969,728 969,728 970,728 970,728 972,728 972,728 973,728 973,728 974,728 974,728 975,728 975,728 976,728 976,728 977,728 977,728 978,728 978,728 979,728 979,728 980,728 980,728 981,728 982,728 982,728 984,728 984,728 985,728 985,728 986,728 986,728 988,728 989,728 989,728 991,728 991,728 991,728 992,728 992,728 993,728 993,728 994,728 994,728 995,728 995,728 995,728 996,728 997,728 997,728 997,728 997,728 999,728 999,728 1000,728 1000,728 1000,728 1001,728 1001,728 1001,728 1002,728 1002,728 1002,728 1002,728 1003,728 1003,728 1003,728 1004,728 1004,728 1004,728 1005,728 1005,728 1005,728 1005,728 1006,728 1006,728 1006,728 1006,728 1007,728 1007,728 1007,728 1008,728 1008,728 1008,728 1009,728 1009,728 1009,728 1009,728 1010,728 1010,728 1010,728 1011,728 1011,728 1011,728 1012,728 1012,728 1013,728 1013,728 1014,728 1014,728 1015,728 1015,728 1015,728 1015,728 1016,728 1016,728 1017,728 1017,728 1018,728 1018,728 1018,728 1019,728 1019,728 1019,728 1020,728 1021,728 1021,728 1021,728 1021,728 1022,728 1022,728 1022,728 1022,728 1023,728 1023,728 1023,728 1024,728 1024,728 1024,728 1024,728 1025,728 1025,728 1025,728 1026,728 1027,728 1027,728 1027,728 1028,728 1028,728 1029,728 1029,728 1029,728 1030,728 1030,728 1030,728 1030,728 1031,728 1031,728 1032,728 1032,728 1032,728 1033,728 1033,728 1033,728 1034,728 1034,728 1034,728 1035,728 1035,728 1036,728 1036,728 1037,728 1037,728 1037,728 1038,728 1038,728 1038,728 1039,728 1039,728 1039,728 1039,728 1040,728 1040,728 1040,728 1041,728 1041,728 1041,728 1041,728 1042,728 1042,728 1042,728 1043,728 1043,728 1043,728 1044,728 1044,728 1045,728 1045,728 1045,728 1046,728 1047,728 1047,728 1047,728 1047,728 1048,728 1048,728 1048,728 1048,728 1049,728 1049,728 1049,728 1049,728 1050,728 1050,728 1050,728 1051,728 1051,728 1052,728 1052,728 1052,728 1052,728 1052,728 1053,728 1053,728 1053,728 1053,728 1054,728 1054,728 1054,728 1054,728 1055,728 1055,728 1055,728 1055,728 1056,728 1056,728 1057,728 1057,728 1057,728 1057,728 1059,728 1059,728 1059,728 1060,728 1060,728 1060,728 1061,728 1061,728 1062,728 1062,728 1063,728 1063,728 1063,728 1063,728 1064,728 1064,728 1064,728 1065,728 1065,728 1065,728 1065,728 1066,728 1066,728 1066,728 1066,728 1067,728 1067,728 1067,728 1067,728 1067,728 1068,728 1068,728 1069,728 1069,728 1069,728 1070,728 1070,728 1070,728 1070,728 1071,728 1071,728 1072,728 1072,728 1072,728 1072,728 1073,728 1073,728 1073,728 1074,728 1074,728 1075,728 1075,728 1075,728 1075,728 1078,728 1078,728 1078,728 1078,728 1079,728 1079,728 1079,728 1080,728 1081,728 1081,728 1081,728 1081,728 1082,728 1082,728 1082,728 1082,728 1083,728 1083,728 1083,728 1083,728 1083,728 1084,728 1084,728 1084,728 1085,728 1085,728 1085,728 1085,728 1086,728 1086,728 1086,728 1087,728 1087,728 1087,728 1088,728 1088,728 1088,728 1089,728 1089,728 1089,728 1089,728 1090,728 1090,728 1090,728 1090,728 1091,728 1091,728 1091,728 1092,728 1092,728 1093,728 1093,728 1093,728 1094,728 1094,728 1094,728 1094,728 1095,728 1095,728 1095,728 1096,728 1096,728 1097,728 1097,728 1097,728 1097,728 1098,728 1098,728 1098,728 1099,728 1099,728 1099,727 1100,727 1100,727 1100,727 1100,727 1101,727 1101,727 1101,727 1101,727 1102,727 1102,727 1102,727 1103,727 1103,727 1103,727 1103,727 1104,727 1105,727 1105,727 1106,727 1106,727 1106,727 1106,727 1107,727 1107,727 1107,727 1107,727 1108,727 1108,727 1108,727 1109,727 1109,727 1109,727 1109,727 1110,727 1110,727 1110,727 1111,727 1111,727 1111,727 1111,727 1112,727 1112,727 1112,727 1112,727 1113,727 1113,727 1113,727 1113,727 1113,727 1113,727 1114,727 1114,727 1114,727 1115,727 1115,727 1115,727 1116,727 1116,727 1117,727 1117,727 1117,727 1118,727 1118,727 1118,727 1118,727 1119,727 1119,727 1119,727 1119,727 1120,727 1120,727 1120,727 1121,727 1121,727 1121,727 1121,727 1122,727 1122,727 1122,727 1124,727 1125,727 1125,727 1125,727 1125,727 1126,727 1126,727 1126,727 1127,727 1127,727 1127,727 1127,727 1128,727 1128,727 1128,727 1128,727 1128,727 1128,727 1129,727 1129,727 1129,727 1129,727 1130,727 1130,727 1130,727 1130,727 1131,727 1131,727 1131,727 1131,727 1132,727 1132,727 1132,727 1133,727 1133,727 1133,727 1134,727 1134,727 1134,727 1134,727 1135,727 1135,727 1135,727 1135,727 1136,727 1136,727 1136,727 1137,727 1138,727 1139,727 1139,727 1139,727 1140,727 1140,727 1140,727 1140,727 1141,727 1141,727 1141,727 1142,727 1142,727 1142,727 1145,727 1145,727 1145,727 1145,727 1146,727 1146,727 1146,727 1146,727 1147,727 1148,727 1149,727 1149,727 1149,727 1149,727 1150,727 1150,727 1150,727 1150,727 1151,727 1151,727 1151,727 1152,727 1152,727 1152,727 1152,727 1153,727 1153,727 1153,727 1154,727 1154,727 1154,727 1154,727 1155,727 1155,727 1155,727 1156,727 1156,727 1157,727 1157,727 1157,727 1157,727 1158,727 1158,727 1159,727 1159,727 1159,727 1160,727 1160,727 1160,727 1161,727 1161,727 1162,727 1162,727 1163,727 1163,727 1163,727 1164,727 1164,727 1164,727 1165,727 1165,727 1165,727 1165,727 1166,727 1166,727 1166,727 1167,727 1167,727 1167,727 1168,727 1168,727 1168,727 1169,727 1169,727 1169,727 1170,727 1170,727 1170,727 1171,727 1171,727 1171,727 1171,727 1172,727 1172,727 1172,727 1172,727 1173,727 1173,727 1173,727 1174,727 1174,727 1174,727 1174,726 1175,726 1175,726 1175,726 1176,726 1176,726 1176,726 1177,726 1177,726 1177,726 1178,726 1178,726 1178,726 1179,726 1179,726 1179,726 1179,726 1180,726 1180,726 1181,726 1181,726 1181,726 1181,726 1182,726 1182,726 1182,726 1183,726 1183,726 1183,726 1184,726 1184,726 1184,726 1184,726 1185,726 1185,726 1185,726 1186,726 1186,726 1186,726 1187,726 1187,726 1188,726 1188,726 1188,726 1189,726 1189,726 1189,726 1190,726 "/>
<polyline fill="none" opacity="1" stroke="#BDE619" stroke-width="2" points="123,738 146,738 165,738 167,738 179,738 185,738 186,738 188,738 194,737 195,737 197,737 203,737 207,737 211,737 215,737 219,736 222,736 222,736 223,736 224,736 225,736 225,736 228,735 228,735 230,735 233,735 234,734 236,734 242,734 244,734 246,734 246,734 247,733 249,733 250,733 255,733 255,733 256,733 257,732 259,732 260,732 261,732 261,732 262,732 265,732 267,731 268,731 269,731 269,731 272,731 273,730 276,730 278,730 281,730 281,730 282,729 283,729 283,729 284,729 285,729 286,729 287,729 288,728 288,728 289,728 290,728 292,728 292,728 293,728 294,728 295,728 296,727 299,727 302,727 303,727 304,727 305,727 307,727 308,726 308,726 309,726 309,726 310,726 310,726 311,726 312,726 312,726 313,725 314,725 316,725 317,725 318,725 318,725 319,725 319,725 320,725 320,725 321,725 322,725 322,725 323,725 323,725 324,724 327,724 327,724 328,724 328,724 329,724 329,724 332,724 332,724 333,724 333,724 334,724 334,724 334,724 335,724 335,724 336,724 336,724 337,724 337,723 338,723 338,723 339,723 339,723 340,723 340,723 341,723 342,723 342,723 343,723 343,722 344,722 344,722 345,722 347,722 347,722 348,722 348,721 349,721 349,721 350,721 350,721 351,721 352,721 354,721 354,720 355,720 355,720 356,720 357,719 358,719 359,719 359,719 360,719 361,719 361,719 362,719 362,719 363,718 363,718 364,718 364,718 365,718 365,718 366,718 367,718 367,717 368,717 368,717 369,717 369,717 370,717 370,717 371,717 372,717 372,717 373,716 374,716 374,716 375,716 375,716 376,716 376,716 377,715 377,715 378,715 379,715 380,700 380,700 381,700 381,699 382,699 382,699 383,699 384,699 384,699 385,699 385,698 386,698 386,698 387,698 387,698 388,697 388,697 389,697 389,697 390,697 390,696 391,696 391,696 392,696 392,696 393,696 393,696 394,696 394,695 395,695 395,695 395,695 396,694 396,694 397,694 397,693 398,693 399,693 400,690 400,690 401,690 402,690 402,690 403,690 403,690 404,690 404,690 405,690 406,690 407,690 407,689 408,689 408,689 409,689 409,689 410,689 410,688 411,688 411,688 411,688 412,688 413,688 413,688 414,687 414,687 415,687 415,687 416,687 416,687 417,687 417,687 418,687 419,686 419,686 420,686 421,686 421,685 422,685 422,685 423,685 423,685 424,685 424,685 425,685 425,685 426,684 426,684 427,684 427,683 428,683 428,683 429,683 429,683 430,683 430,683 431,683 431,683 432,682 432,682 433,682 433,682 434,682 434,682 435,682 435,682 436,682 436,681 437,681 437,681 438,681 439,681 439,681 440,681 440,680 441,680 441,680 441,680 442,679 442,679 443,679 443,679 444,679 444,679 445,679 445,679 446,678 446,678 447,677 447,677 448,677 448,676 449,676 449,676 450,675 450,675 451,675 451,675 452,675 452,674 453,674 453,674 454,674 454,673 455,673 455,673 456,673 456,672 457,672 457,672 457,672 458,672 458,671 459,671 459,671 460,671 460,671 461,671 461,670 462,670 462,670 463,670 463,670 464,669 464,669 465,669 465,668 466,668 466,668 467,668 467,668 468,668 468,668 469,667 469,667 470,667 470,667 471,667 471,667 472,666 472,666 472,665 473,665 473,665 474,665 475,664 475,664 476,664 476,664 477,664 477,663 478,663 478,663 479,662 479,662 480,662 480,661 481,661 481,661 482,661 482,661 483,661 483,660 484,660 484,660 485,660 485,659 486,659 486,659 487,659 487,658 487,658 488,658 488,658 489,657 489,657 490,657 490,657 491,657 491,657 492,657 492,657 493,657 493,656 494,656 494,656 495,655 495,655 496,654 496,654 497,654 497,654 498,654 498,654 499,654 499,654 500,653 500,653 501,653 501,653 502,653 502,652 502,652 503,652 503,652 504,651 504,651 505,651 505,651 506,651 506,650 507,650 507,650 508,649 508,649 509,649 509,649 510,649 510,648 511,648 511,648 512,648 512,647 513,647 513,646 514,646 514,646 515,645 515,645 516,645 516,645 517,645 517,645 518,644 518,644 518,644 519,644 519,644 520,644 520,644 521,644 521,643 522,643 522,643 523,643 523,643 524,643 524,642 525,642 525,642 526,642 526,642 527,641 527,641 528,641 528,641 529,640 529,640 530,639 530,639 531,639 531,639 532,638 532,638 533,638 533,638 533,637 534,637 534,637 535,637 535,637 536,637 536,636 537,636 537,636 538,636 538,636 539,636 539,635 540,635 540,635 541,635 541,634 542,634 542,634 543,634 543,634 544,634 544,633 545,633 545,633 546,633 546,633 547,633 547,633 548,632 548,632 548,632 549,631 549,631 550,631 550,631 551,631 551,631 552,631 552,631 553,631 553,630 554,630 554,630 555,630 555,629 556,629 556,629 557,629 557,629 558,628 558,628 559,628 559,628 560,627 560,627 561,627 561,627 562,627 562,627 563,627 563,626 563,626 564,624 564,623 565,622 565,622 566,622 566,622 567,622 567,622 568,621 568,621 569,621 569,620 570,620 570,620 571,620 571,619 572,619 572,619 573,618 573,618 574,618 574,618 575,618 575,618 576,618 576,618 577,617 577,617 578,617 578,616 579,616 579,616 579,616 580,615 580,615 581,614 581,614 582,614 582,613 583,613 583,613 584,613 584,613 585,613 585,613 586,612 586,612 587,612 587,612 588,611 588,611 589,611 589,611 590,611 590,611 591,611 591,610 592,610 592,610 593,610 593,609 594,609 594,609 594,609 595,609 595,609 596,608 596,608 597,608 597,608 598,608 598,608 599,607 599,607 600,607 600,607 601,606 601,605 602,605 602,605 603,605 603,604 604,604 604,604 605,603 605,603 606,603 606,603 607,602 607,602 608,602 608,602 609,602 609,602 609,602 610,601 610,601 611,601 611,601 612,601 612,601 613,601 613,600 614,600 614,600 615,600 615,600 616,600 616,599 617,599 617,599 618,599 618,598 619,598 619,598 620,598 620,597 621,597 621,597 622,597 622,596 623,596 623,595 624,595 624,595 625,595 625,595 625,592 626,592 626,591 627,591 627,591 628,590 628,590 629,590 629,589 630,589 630,588 631,588 631,587 632,587 632,586 633,586 633,585 634,585 634,585 635,584 635,584 636,584 636,584 637,584 637,583 638,583 638,583 639,582 639,582 640,582 640,581 640,581 641,581 641,581 642,580 642,580 643,580 643,579 644,579 644,578 645,578 645,578 646,577 646,577 647,577 647,577 648,577 648,577 649,576 649,576 650,576 650,576 651,575 651,575 652,575 652,574 653,574 653,573 654,573 654,573 655,572 655,572 655,572 656,572 656,571 657,571 657,571 658,571 658,571 659,570 659,570 660,570 660,570 661,570 661,570 662,569 662,569 663,569 663,568 664,568 664,568 665,568 665,568 666,567 666,567 667,567 667,567 668,567 668,567 669,567 669,567 670,567 670,566 670,566 671,566 671,566 672,565 672,565 673,565 673,564 674,564 674,564 675,564 675,564 676,563 676,563 677,563 677,562 678,562 678,562 679,562 679,561 680,561 680,561 681,561 681,561 682,560 682,560 683,560 683,559 684,559 684,559 685,559 685,558 686,558 686,558 686,558 687,558 687,558 688,557 688,557 689,556 689,556 690,556 690,555 691,555 691,555 692,554 692,554 693,554 693,553 694,553 694,553 695,553 695,552 696,552 696,552 697,552 697,552 698,551 698,551 699,550 699,550 700,550 700,549 701,549 701,549 701,548 702,548 702,548 703,547 703,547 704,547 704,547 705,547 705,546 706,546 706,546 707,546 707,545 708,545 708,545 709,545 709,544 710,544 710,544 711,544 711,543 712,543 712,543 713,543 713,543 714,543 714,543 715,542 715,542 716,542 716,542 716,542 717,541 717,541 718,541 718,540 719,540 719,540 720,540 720,540 721,540 721,540 722,540 722,540 723,539 723,539 724,539 724,538 725,538 725,538 726,538 726,538 727,538 727,537 728,537 728,537 729,537 729,537 730,536 730,536 731,535 731,535 731,535 732,535 732,534 733,533 733,533 734,533 734,533 735,533 735,533 736,532 736,532 737,531 737,531 738,531 738,530 739,530 739,530 740,529 740,529 740,529 741,528 741,528 742,527 742,527 743,527 743,526 744,526 744,525 745,525 745,525 746,524 746,524 747,524 747,524 747,523 748,524 748,523 749,518 749,518 750,518 750,517 751,517 751,517 752,517 752,517 753,516 753,515 754,515 754,514 755,514 755,514 756,514 756,513 757,513 757,512 758,512 758,511 759,511 759,511 760,511 760,510 761,510 761,509 762,509 762,509 762,508 763,508 763,507 764,507 764,507 765,507 765,506 766,506 766,505 767,505 767,505 768,505 768,504 769,504 769,504 770,503 770,503 771,503 771,503 772,502 772,502 773,502 773,502 774,502 774,501 775,501 775,500 776,500 776,500 777,499 777,499 777,499 778,499 778,499 779,499 779,498 780,498 780,498 781,497 781,497 782,497 782,496 783,496 783,496 784,496 784,495 785,495 785,495 786,495 786,494 787,494 787,493 788,492 788,491 789,491 789,491 790,490 790,489 791,488 791,488 792,488 792,487 792,487 793,487 793,486 794,486 794,486 795,485 795,485 796,484 796,484 797,484 797,484 798,483 798,482 799,482 799,482 800,482 800,481 801,481 801,481 802,480 802,480 803,480 803,479 804,479 804,479 805,478 805,478 806,478 806,478 807,477 807,477 808,476 808,476 808,476 809,475 809,475 810,475 810,474 811,474 811,474 812,473 812,473 813,473 813,473 814,472 814,472 815,472 815,471 816,471 816,470 817,470 817,470 818,469 818,468 819,468 819,468 820,468 820,467 821,467 821,466 822,466 822,466 823,466 823,465 823,465 824,465 824,465 825,464 825,464 826,463 826,462 827,462 827,462 828,461 828,460 829,460 829,459 830,459 830,459 831,459 831,458 832,458 832,458 833,457 833,456 834,456 834,456 835,456 835,455 836,455 836,455 837,455 837,454 838,454 838,454 838,453 839,453 839,453 840,452 840,452 841,451 841,451 842,450 842,450 843,449 843,449 844,448 844,448 845,447 845,447 846,446 846,446 847,446 847,445 848,445 848,445 849,444 849,444 850,444 850,444 851,443 851,443 852,443 852,443 853,443 853,442 854,441 854,441 854,440 855,440 855,440 856,439 856,438 857,438 857,438 858,438 858,437 859,437 859,436 860,435 860,435 861,434 861,434 862,433 862,433 863,433 863,432 864,432 864,432 865,431 865,430 866,430 866,430 867,429 867,429 868,429 868,428 869,428 869,427 869,427 870,427 870,427 871,427 871,426 872,425 872,425 873,424 873,424 874,423 874,423 875,423 875,423 876,423 876,423 877,418 877,418 878,418 878,417 879,417 879,417 880,416 880,416 881,415 881,415 882,414 882,414 883,413 883,413 884,412 884,411 884,411 885,411 885,410 886,410 886,410 887,409 887,409 888,408 888,408 889,408 889,408 890,407 890,407 891,407 891,406 892,406 892,406 893,405 893,405 894,404 894,404 895,404 895,403 896,403 896,402 897,401 897,401 898,401 898,400 899,401 899,400 899,400 900,399 900,399 901,399 901,398 902,398 902,398 903,397 903,397 904,397 904,397 905,397 905,396 906,396 906,396 907,395 907,395 908,395 908,394 909,393 909,393 910,392 910,392 911,392 911,392 912,391 912,391 913,390 913,390 914,389 914,389 915,389 915,388 915,388 916,388 916,388 917,387 917,387 918,387 918,386 919,386 919,386 920,386 920,385 921,385 921,385 922,384 922,384 923,384 923,383 924,382 924,382 925,381 925,381 926,381 926,381 927,380 927,380 927,380 928,380 928,380 929,379 929,379 930,379 930,378 930,378 931,378 931,377 932,377 932,377 933,376 933,376 934,376 934,375 935,375 935,375 936,374 936,374 937,373 937,373 938,372 938,372 939,371 939,371 940,370 940,370 941,369 941,369 942,368 942,368 943,368 943,367 944,367 944,366 945,366 945,366 945,365 946,365 946,365 947,364 947,363 948,363 948,362 949,362 949,362 950,362 950,362 951,362 951,361 952,361 952,361 953,360 953,360 954,360 954,359 955,359 955,359 956,358 956,358 957,358 957,358 958,357 958,357 959,357 959,357 960,356 960,354 960,354 961,354 961,353 962,353 962,353 963,352 963,352 964,352 964,351 965,351 965,350 966,349 966,349 967,349 967,348 968,347 968,347 969,347 969,346 970,344 970,344 971,344 971,344 972,344 972,344 973,343 973,342 974,341 974,341 975,341 975,340 976,340 976,339 976,339 977,338 977,338 978,337 978,337 979,337 979,336 980,335 980,335 981,334 981,334 982,332 982,332 983,331 983,331 984,330 984,330 985,329 985,328 986,328 986,327 987,327 987,327 988,326 988,325 989,325 989,325 990,324 990,323 991,323 991,322 991,322 992,321 992,321 993,321 993,320 994,319 994,319 995,319 995,319 995,319 996,319 996,318 996,317 997,317 997,317 997,317 997,316 998,316 998,316 998,316 999,316 999,315 999,315 999,315 1000,315 1000,314 1000,314 1000,313 1001,313 1001,312 1001,312 1001,312 1002,312 1002,311 1002,311 1002,310 1003,310 1003,309 1003,309 1004,309 1004,309 1004,308 1005,308 1005,307 1005,307 1005,307 1006,307 1006,307 1006,307 1006,307 1006,307 1006,307 1007,307 1007,306 1007,306 1008,306 1008,305 1008,305 1008,305 1009,305 1009,304 1009,304 1009,303 1010,303 1010,303 1010,303 1010,302 1011,302 1011,302 1011,302 1011,302 1012,302 1012,300 1012,300 1013,300 1013,300 1013,300 1013,300 1014,300 1014,299 1014,299 1014,299 1015,299 1015,299 1015,299 1015,298 1016,298 1016,297 1016,297 1016,297 1017,297 1017,296 1017,296 1017,296 1018,296 1018,296 1018,295 1019,295 1019,295 1019,294 1020,294 1020,294 1020,294 1020,293 1021,293 1021,293 1021,293 1021,293 1022,293 1022,292 1022,292 1022,291 1022,291 1022,291 1023,291 1023,290 1023,289 1024,289 1024,288 1024,288 1024,288 1025,288 1025,287 1025,287 1025,287 1026,287 1026,286 1026,285 1027,285 1027,285 1027,285 1027,284 1028,284 1028,283 1028,283 1028,283 1029,283 1029,283 1029,283 1029,282 1030,282 1030,281 1030,281 1030,281 1031,281 1031,280 1031,280 1031,280 1032,280 1032,279 1032,279 1032,279 1033,279 1033,278 1033,278 1033,278 1034,278 1034,277 1034,277 1034,276 1035,276 1035,275 1035,275 1035,275 1036,274 1036,274 1036,274 1037,274 1037,273 1037,273 1037,271 1037,271 1037,270 1038,270 1038,270 1038,270 1038,269 1039,269 1039,269 1039,269 1039,269 1040,269 1040,268 1040,268 1041,268 1041,267 1041,267 1041,266 1042,266 1042,265 1042,265 1042,264 1043,264 1043,264 1043,264 1044,263 1044,263 1044,263 1045,262 1045,262 1045,262 1046,262 1046,260 1046,260 1046,260 1047,260 1047,259 1047,259 1047,259 1048,259 1048,258 1048,258 1048,258 1049,258 1049,257 1049,257 1049,257 1050,257 1050,256 1050,256 1051,256 1051,255 1051,255 1051,255 1052,255 1052,254 1052,254 1052,254 1052,254 1052,253 1053,253 1053,253 1053,253 1053,252 1054,252 1054,252 1054,252 1054,251 1055,251 1055,250 1055,250 1055,250 1056,250 1056,249 1056,249 1056,243 1057,243 1057,243 1057,243 1057,242 1058,242 1058,242 1058,242 1059,242 1059,241 1059,241 1059,240 1060,240 1060,240 1060,240 1060,239 1061,239 1061,238 1061,238 1061,238 1062,238 1062,238 1062,237 1063,237 1063,237 1063,237 1063,236 1064,236 1064,236 1064,236 1064,235 1065,235 1065,235 1065,235 1065,234 1066,234 1066,234 1066,234 1066,233 1067,233 1067,232 1067,232 1067,232 1067,232 1067,231 1068,231 1068,230 1068,230 1068,230 1069,230 1069,230 1069,230 1069,229 1070,229 1070,229 1070,229 1070,228 1071,228 1071,228 1071,228 1072,228 1072,227 1072,227 1072,227 1073,227 1073,226 1073,226 1073,226 1074,226 1074,226 1074,226 1074,225 1075,225 1075,224 1075,224 1075,224 1076,224 1076,224 1076,224 1076,223 1077,223 1077,223 1077,223 1077,222 1078,222 1078,222 1078,222 1078,221 1079,221 1079,221 1079,221 1079,221 1080,221 1080,220 1080,220 1080,220 1081,220 1081,220 1081,220 1081,219 1082,219 1082,218 1082,218 1082,217 1083,217 1083,216 1083,216 1083,215 1083,215 1083,214 1084,214 1084,214 1084,212 1085,212 1085,212 1085,212 1085,211 1086,211 1086,211 1086,210 1087,210 1087,209 1087,209 1087,208 1088,208 1088,208 1088,208 1088,207 1089,207 1089,207 1089,207 1089,206 1090,206 1090,206 1090,206 1090,205 1091,205 1091,204 1091,203 1092,203 1092,203 1092,203 1092,203 1093,203 1093,202 1093,202 1093,201 1094,201 1094,201 1094,201 1094,200 1095,200 1095,200 1095,200 1095,199 1096,199 1096,198 1096,198 1096,197 1097,197 1097,196 1097,196 1097,195 1098,195 1098,195 1098,195 1098,194 1098,194 1098,194 1099,194 1099,194 1099,194 1099,193 1100,193 1100,193 1100,193 1100,193 1101,193 1101,192 1101,192 1101,192 1102,192 1102,191 1102,191 1102,191 1103,191 1103,190 1103,190 1103,190 1104,190 1104,190 1104,190 1104,189 1105,189 1105,188 1105,188 1105,188 1106,188 1106,187 1106,187 1106,187 1107,187 1107,187 1107,186 1107,186 1108,186 1108,185 1108,185 1108,185 1109,185 1109,184 1109,184 1109,183 1110,183 1110,182 1110,182 1110,182 1111,182 1111,182 1111,182 1111,182 1112,182 1112,181 1112,181 1112,181 1113,181 1113,181 1113,181 1113,180 1113,180 1113,180 1114,179 1114,179 1114,179 1115,179 1115,178 1115,178 1115,178 1116,178 1116,178 1116,178 1116,177 1117,177 1117,176 1117,176 1117,176 1118,176 1118,176 1118,176 1118,175 1119,175 1119,175 1119,175 1119,175 1120,174 1120,174 1120,174 1120,173 1121,173 1121,173 1121,173 1121,172 1122,172 1122,172 1122,172 1122,171 1123,171 1123,171 1123,171 1123,171 1124,170 1124,170 1124,170 1125,170 1125,169 1125,169 1125,168 1126,168 1126,168 1126,167 1127,167 1127,167 1127,167 1127,167 1128,167 1128,166 1128,166 1128,166 1128,166 1128,166 1129,166 1129,166 1129,166 1129,165 1130,165 1130,164 1130,164 1130,164 1131,164 1131,163 1131,163 1131,163 1132,163 1132,163 1132,163 1132,163 1133,163 1133,162 1133,162 1133,161 1134,161 1134,161 1134,161 1134,160 1135,160 1135,160 1135,160 1135,160 1136,160 1136,159 1136,159 1136,158 1137,158 1137,158 1137,158 1137,158 1138,158 1138,157 1138,157 1138,157 1139,157 1139,156 1139,156 1139,155 1140,155 1140,155 1140,155 1140,154 1141,154 1141,153 1141,153 1141,152 1142,152 1142,151 1142,151 1142,149 1143,149 1143,149 1143,149 1143,149 1144,148 1144,148 1144,147 1144,147 1144,146 1145,146 1145,146 1145,146 1145,142 1146,142 1146,142 1146,142 1146,141 1147,141 1147,141 1147,141 1147,141 1148,141 1148,140 1148,140 1148,139 1149,139 1149,139 1149,139 1149,138 1150,138 1150,137 1150,137 1150,136 1151,136 1151,135 1151,135 1151,134 1152,134 1152,133 1152,133 1152,132 1153,132 1153,132 1153,132 1153,131 1154,131 1154,130 1154,130 1154,130 1155,130 1155,129 1155,129 1155,129 1156,129 1156,128 1156,128 1156,127 1157,127 1157,126 1157,126 1157,126 1158,126 1158,126 1158,126 1158,125 1159,125 1159,125 1159,125 1159,124 1159,124 1159,124 1160,124 1160,123 1160,123 1160,122 1161,122 1161,121 1161,121 1161,121 1162,121 1162,121 1162,121 1162,121 1163,121 1163,120 1163,120 1163,120 1164,120 1164,119 1164,119 1164,119 1165,119 1165,119 1165,119 1165,118 1166,118 1166,117 1166,117 1166,116 1167,116 1167,116 1167,116 1167,116 1168,116 1168,115 1168,115 1168,114 1169,114 1169,113 1169,113 1169,112 1170,112 1170,112 1170,112 1171,112 1171,111 1171,111 1171,110 1172,110 1172,109 1172,109 1172,109 1173,109 1173,108 1173,108 1173,107 1174,107 1174,107 1174,107 1174,107 1174,107 1174,107 1175,107 1175,106 1175,106 1175,105 1176,105 1176,105 1176,105 1176,104 1177,104 1177,103 1177,103 1177,103 1178,103 1178,102 1178,102 1178,102 1179,102 1179,101 1179,101 1179,100 1180,100 1180,100 1180,99 1181,99 1181,99 1181,99 1181,98 1182,98 1182,98 1182,98 1182,97 1183,97 1183,97 1183,97 1183,96 1184,96 1184,95 1184,95 1184,94 1185,94 1185,93 1185,93 1185,87 1186,87 1186,81 1186,81 1186,80 1187,80 1187,79 1187,79 1187,77 1188,77 1188,77 1188,76 1189,76 1189,75 1189,75 1189,75 1190,75 "/>
<polyline fill="none" opacity="1" stroke="#19E66B" stroke-width="2" points="60,738 60,738 61,738 68,738 74,738 74,738 79,737 82,737 86,737 90,737 91,737 92,736 93,736 96,736 100,736 105,736 106,736 112,736 115,735 116,736 119,735 130,735 133,735 135,735 135,735 136,735 138,735 140,735 141,735 142,735 142,735 145,734 145,735 146,735 147,735 147,734 148,734 148,734 149,734 150,734 150,734 151,734 151,734 151,733 152,733 152,733 153,733 153,733 154,733 154,733 155,733 155,733 156,733 156,733 157,733 158,733 159,733 159,733 160,733 160,733 161,733 161,733 162,733 163,733 163,733 164,733 164,733 165,733 166,733 166,733 166,732 167,732 167,732 168,732 169,732 169,732 170,732 170,732 171,732 171,732 172,732 172,732 173,732 174,732 175,732 176,732 177,732 178,732 179,732 179,732 180,732 180,732 181,731 181,731 182,731 183,731 184,731 184,731 185,731 185,731 186,731 187,731 187,731 188,731 190,731 190,731 191,731 191,731 192,731 192,731 193,731 194,731 194,731 195,731 195,731 196,731 197,731 197,731 197,730 198,730 198,730 199,730 200,730 200,730 201,730 201,730 202,730 202,730 203,730 204,730 205,730 206,730 207,730 208,729 208,729 209,729 209,729 210,729 210,729 211,729 211,729 212,729 212,729 212,729 213,729 213,729 215,729 215,729 216,729 216,729 217,729 217,729 218,729 218,729 219,729 219,729 220,729 221,729 221,729 222,729 222,729 223,729 224,729 224,729 225,729 225,729 226,729 226,729 227,729 227,729 228,729 228,729 229,729 229,729 230,729 232,729 232,729 233,729 233,728 234,728 234,728 235,728 236,728 237,728 237,728 238,728 238,728 239,727 239,727 240,727 240,727 241,727 241,727 242,727 242,727 243,727 243,727 244,727 245,727 245,727 246,727 246,727 247,727 247,727 248,727 248,726 249,726 249,726 250,726 250,726 251,726 252,726 252,726 253,726 253,726 254,726 254,726 255,726 255,726 256,726 256,726 257,726 257,726 258,726 258,726 258,726 259,726 259,726 260,726 260,726 261,726 261,726 262,726 262,726 263,726 263,726 264,726 264,726 265,726 265,726 266,726 266,726 267,726 267,726 268,726 268,726 269,726 269,725 270,725 270,725 271,725 271,725 272,725 272,725 273,725 273,725 273,725 274,725 274,725 275,725 275,724 276,724 276,724 277,724 277,724 278,724 278,724 279,724 280,724 280,724 281,724 281,724 282,724 283,724 283,724 284,724 284,724 285,724 285,724 286,724 286,724 287,723 287,723 288,723 288,723 289,723 289,723 289,723 290,723 290,723 291,723 291,723 292,723 292,723 293,723 293,723 294,723 294,723 295,723 295,723 296,723 296,723 297,723 297,723 298,723 298,722 299,722 299,722 300,722 300,722 301,722 301,722 302,722 302,722 303,722 303,722 304,722 304,722 304,722 305,722 305,722 306,722 306,722 307,722 307,722 308,722 308,722 309,722 310,722 311,722 311,722 312,722 312,722 313,721 313,721 314,721 314,721 315,721 315,721 316,721 316,721 317,721 317,721 318,721 318,721 319,721 319,721 319,721 320,721 320,721 321,721 321,721 322,721 322,721 323,721 323,721 324,721 324,721 325,721 325,721 326,721 326,721 327,720 328,720 329,720 329,720 330,720 330,720 331,720 331,720 332,720 332,720 333,720 334,720 334,720 334,720 335,720 335,720 336,720 336,720 337,720 337,720 338,720 338,720 339,720 339,720 340,720 340,720 341,720 341,720 342,720 342,720 343,720 343,720 344,720 344,720 345,720 345,720 346,720 346,720 347,720 347,720 348,720 348,720 349,720 349,719 350,719 350,719 350,719 351,719 351,719 352,719 352,719 353,719 353,719 354,719 354,719 355,719 355,719 356,719 356,719 357,719 357,719 358,719 358,719 359,719 359,719 360,719 360,719 361,719 361,719 362,718 362,718 363,718 363,718 364,718 364,718 365,718 365,718 365,718 366,718 366,718 367,718 367,718 368,718 368,718 369,718 369,718 370,718 370,718 371,718 371,718 372,718 372,718 373,718 373,718 374,718 374,718 375,718 375,717 376,717 376,717 377,717 377,717 378,717 378,717 379,717 379,717 380,717 380,717 380,717 381,717 381,717 382,717 382,717 383,717 383,717 384,717 384,717 385,717 385,717 386,717 386,717 387,717 387,717 388,717 388,717 389,717 390,717 390,717 391,717 391,717 392,717 392,717 393,717 393,717 394,717 394,717 395,717 395,717 395,717 396,717 396,717 397,717 397,717 398,717 398,717 399,717 399,717 400,717 400,717 401,716 401,716 402,716 402,716 403,716 403,716 404,716 404,716 405,716 405,716 406,716 406,716 407,716 407,716 408,716 408,716 409,716 409,716 410,716 410,716 411,716 411,716 411,716 412,716 412,716 413,716 413,716 414,716 414,716 415,716 415,716 416,716 416,716 417,716 417,716 418,716 418,716 419,715 419,715 420,715 420,715 421,715 421,715 422,715 422,715 423,715 423,715 424,715 424,715 425,715 425,715 426,715 426,715 426,715 427,715 427,715 428,715 429,715 429,715 430,715 430,715 431,715 431,715 432,715 432,714 433,714 433,714 434,714 434,714 435,714 435,714 436,714 436,714 437,714 437,713 438,713 438,713 439,713 439,713 440,713 440,713 441,713 441,713 441,713 442,713 442,713 443,713 443,713 444,713 444,713 445,713 445,713 446,713 446,713 447,713 447,713 448,713 448,713 449,713 449,713 450,713 450,713 451,713 451,713 452,713 452,713 453,713 453,713 454,713 454,713 455,713 455,713 456,713 456,713 457,713 457,713 457,713 458,713 458,713 459,713 459,713 460,713 460,713 461,713 461,713 462,712 462,712 463,712 463,712 464,712 464,713 465,713 465,713 466,713 466,713 467,713 467,712 468,713 468,713 469,713 469,713 470,713 470,713 471,713 471,712 472,712 472,712 472,713 473,713 473,713 474,713 474,713 475,713 475,713 476,713 476,713 477,713 477,713 478,713 478,713 479,713 479,713 480,712 480,712 481,712 481,712 482,712 482,712 483,712 483,712 484,712 484,712 485,712 485,712 486,712 486,712 487,712 487,712 487,712 488,712 488,712 489,712 489,712 490,712 490,712 491,712 491,712 492,712 492,712 493,712 493,712 494,712 494,712 495,712 495,712 496,712 496,712 497,712 497,712 498,712 498,712 499,711 499,711 500,711 500,711 501,711 501,711 502,711 502,711 502,711 503,711 503,711 504,711 504,711 505,711 505,711 506,711 506,711 507,711 507,711 508,711 508,711 509,711 509,711 510,711 510,711 511,711 511,711 512,711 512,711 513,711 513,711 514,711 514,711 515,711 515,711 516,711 516,711 517,711 517,711 518,711 518,711 518,711 519,710 519,710 520,710 520,710 521,710 521,710 522,710 522,710 523,710 523,710 524,710 524,710 525,710 525,710 526,710 526,710 527,710 527,710 528,710 528,710 529,710 529,710 530,710 530,710 531,710 531,710 532,710 532,710 533,710 533,710 533,710 534,710 534,710 535,710 535,710 536,710 536,710 537,710 537,710 538,710 538,710 539,710 539,710 540,710 540,710 541,710 541,710 542,710 542,710 543,710 543,710 544,710 544,710 545,710 545,710 546,710 546,710 547,710 547,710 548,710 548,710 548,710 549,710 549,710 550,710 550,710 551,710 551,710 552,710 552,710 553,710 553,710 554,710 554,710 555,710 555,710 556,710 556,710 557,710 557,710 558,710 558,710 559,710 559,710 560,710 560,710 561,710 561,710 562,710 562,710 563,710 563,710 563,710 564,710 564,710 565,710 565,710 566,710 566,710 567,710 567,710 568,709 568,709 569,709 569,709 570,709 570,709 571,709 571,709 572,710 572,710 573,710 573,710 574,710 574,710 575,710 575,709 576,709 576,709 577,709 577,709 578,709 578,709 579,709 579,709 579,709 580,709 580,709 581,709 581,709 582,709 582,709 583,709 583,709 584,709 584,709 585,709 585,709 586,709 586,709 587,709 587,709 588,709 588,709 589,709 589,709 590,709 591,709 591,709 592,709 592,709 593,709 593,709 594,709 594,709 594,709 595,709 595,709 596,709 596,709 597,709 597,709 598,709 598,709 599,709 599,709 600,709 600,709 601,709 601,709 602,709 602,709 603,709 603,709 604,709 604,709 605,709 605,709 606,709 606,709 607,709 607,709 608,709 608,709 609,708 609,708 609,708 610,708 610,708 611,708 611,708 612,708 612,708 613,708 613,708 614,708 614,708 615,708 615,708 616,708 616,708 617,708 617,708 618,708 618,708 619,708 619,708 620,708 620,708 621,708 621,708 622,708 622,708 623,708 623,708 624,708 624,708 625,708 625,708 625,708 626,708 626,708 627,708 627,708 628,708 628,708 629,708 629,708 630,708 630,708 631,708 631,708 632,708 632,708 633,708 633,708 634,708 634,708 635,708 635,707 636,707 636,707 637,707 637,707 638,707 638,707 639,707 639,707 640,707 640,707 640,707 641,707 641,707 642,707 642,707 643,707 643,707 644,707 644,707 645,707 645,707 646,707 646,707 647,707 647,707 648,707 648,707 649,707 649,707 650,707 650,707 651,707 651,707 652,707 652,707 653,707 653,707 654,707 654,707 655,707 655,707 655,707 656,707 656,707 657,707 657,707 658,707 658,707 659,707 659,707 660,707 660,707 661,707 661,707 662,707 662,707 663,707 663,707 664,707 664,707 665,707 665,707 666,707 666,707 667,707 667,707 668,707 668,707 669,707 669,707 670,707 670,707 670,707 671,707 671,707 672,707 672,707 673,707 673,707 674,707 674,707 675,707 675,707 676,707 676,707 677,707 677,706 678,706 678,707 679,707 679,707 680,707 680,707 681,706 681,706 682,706 682,706 683,706 683,706 684,706 684,706 685,706 685,706 686,706 686,706 686,706 687,706 687,706 688,706 688,706 689,706 689,706 690,706 690,706 691,706 691,706 692,706 692,706 693,706 693,706 694,706 694,706 695,706 695,706 696,706 696,706 697,706 697,706 698,706 698,706 699,706 699,706 700,706 700,706 701,706 701,706 701,706 702,706 702,706 703,706 703,706 704,706 704,706 705,706 705,706 706,705 706,705 707,705 707,706 708,706 708,706 709,706 709,705 710,705 710,705 711,705 711,705 712,705 712,705 713,705 713,705 714,705 714,705 715,705 715,705 716,705 716,705 716,705 717,705 717,705 718,705 718,705 719,705 719,705 720,705 720,705 721,705 721,705 722,705 722,705 723,705 723,705 724,705 724,705 725,705 725,705 726,705 726,705 727,705 727,705 728,705 728,705 729,705 729,705 730,705 730,705 731,705 731,705 731,705 732,705 732,705 733,705 733,705 734,705 734,705 735,705 735,705 736,705 736,705 737,705 737,705 738,705 738,705 739,705 739,705 740,705 740,705 740,705 741,705 741,705 742,705 742,705 743,705 743,704 744,704 744,704 745,704 745,704 746,704 746,704 747,704 747,704 747,704 748,704 748,704 749,704 749,704 750,704 750,704 751,704 751,704 752,704 752,704 753,704 753,704 754,704 754,704 755,704 755,704 756,704 756,704 757,703 757,703 758,703 758,703 759,703 759,703 760,703 760,703 761,703 761,703 762,703 762,703 762,703 763,703 763,703 764,703 764,703 765,703 765,703 766,703 766,703 767,703 767,703 768,703 768,703 769,703 769,703 770,703 770,703 771,703 771,703 772,703 772,703 773,703 773,703 774,703 774,703 775,703 775,703 776,702 776,702 777,702 777,702 777,702 778,702 778,702 779,702 779,702 780,702 780,702 781,702 781,702 782,702 782,702 783,702 783,702 784,702 784,702 785,702 785,702 786,702 786,702 787,702 787,702 788,702 788,702 789,702 789,702 790,702 790,702 791,702 791,702 792,702 792,702 792,702 793,702 793,702 794,702 794,702 795,702 795,702 796,702 796,702 797,702 797,702 798,702 798,701 799,701 799,701 800,701 800,701 801,701 801,701 802,701 802,701 803,701 803,701 804,701 804,701 805,701 805,701 806,701 806,701 807,701 807,701 808,701 808,701 808,701 809,701 809,701 810,701 810,701 811,701 811,701 812,701 812,701 813,701 813,701 814,701 814,701 815,701 815,701 816,701 816,701 817,701 817,701 818,701 818,701 819,701 819,701 820,701 820,701 821,701 821,701 822,701 822,701 823,701 823,701 823,701 824,701 824,701 825,701 825,701 826,701 826,701 827,701 827,701 828,701 828,701 829,701 829,701 830,701 830,701 831,701 831,701 832,701 832,701 833,701 833,701 834,701 834,701 835,701 835,701 836,701 836,701 837,701 837,701 838,701 838,701 838,701 839,701 839,701 840,701 840,701 841,701 841,701 842,701 842,701 843,701 843,701 844,701 844,701 845,701 845,701 846,701 846,701 847,701 847,701 848,701 848,701 849,701 849,701 850,701 850,701 851,701 851,701 852,701 852,701 853,701 853,701 854,701 854,701 854,701 855,701 855,701 856,701 856,701 857,701 857,701 858,701 858,701 859,700 859,700 860,700 860,700 861,700 861,700 862,701 862,701 863,701 863,701 864,701 864,700 865,700 865,700 866,700 866,700 867,700 867,700 868,701 868,701 869,701 869,701 869,701 870,701 870,701 871,701 871,701 872,701 872,700 873,700 873,700 874,700 874,700 875,700 875,700 876,700 876,700 877,700 877,700 878,700 878,700 879,700 879,700 880,700 880,700 881,700 881,700 882,700 882,700 883,700 883,700 884,700 884,701 884,701 885,701 885,701 886,701 886,701 887,701 887,701 888,701 888,701 889,701 889,701 890,701 890,701 891,701 891,701 892,701 892,701 893,701 893,701 894,701 894,701 895,701 895,701 896,701 896,701 897,701 897,701 898,701 898,701 899,701 899,701 899,700 900,700 900,700 901,700 901,700 902,700 902,700 903,700 903,700 904,700 904,700 905,700 905,700 906,700 906,700 907,700 907,700 908,700 908,700 909,700 909,700 910,700 910,700 911,700 911,700 912,700 912,700 913,700 913,700 914,700 914,700 915,700 915,700 915,700 916,700 916,700 917,700 917,700 918,700 918,700 919,700 919,700 920,700 920,700 921,700 921,700 922,700 922,700 923,700 923,700 924,700 924,700 925,700 925,700 926,700 926,700 927,700 927,700 927,700 928,700 928,700 929,700 929,700 930,700 930,700 930,700 931,700 931,700 932,700 932,700 933,700 933,700 934,700 934,700 935,700 935,700 936,700 936,700 937,700 937,700 938,700 938,700 939,700 939,700 940,700 940,700 941,700 941,700 942,700 942,700 943,700 943,700 944,700 944,700 945,700 945,700 945,700 946,700 946,700 947,700 947,700 948,700 948,700 949,700 949,700 950,700 950,700 951,700 951,700 952,700 952,700 953,700 953,700 954,700 954,700 955,700 955,700 956,700 956,700 957,700 957,700 958,700 958,700 959,700 959,700 960,700 960,700 960,700 961,700 961,700 962,700 962,700 963,700 963,700 964,700 964,700 965,700 965,700 966,700 966,700 967,700 967,700 968,700 968,700 969,700 969,700 970,700 970,700 971,700 971,700 972,700 972,700 973,700 973,700 974,700 974,700 975,700 975,700 976,700 976,700 976,700 977,700 977,700 978,700 978,700 979,700 979,700 980,700 980,700 981,700 981,700 982,700 982,700 983,700 983,700 984,700 984,700 985,700 985,700 986,700 986,700 987,700 987,700 988,700 988,700 989,700 989,700 990,700 990,700 991,700 991,700 991,700 992,700 992,700 993,700 993,700 994,700 994,700 995,700 995,700 995,700 996,700 996,700 996,700 997,700 997,700 997,700 997,700 998,700 998,700 998,700 999,700 999,700 999,700 999,700 1000,700 1000,700 1000,700 1000,700 1001,700 1001,700 1001,700 1001,700 1002,700 1002,700 1002,700 1002,700 1003,700 1003,700 1003,700 1004,700 1004,700 1004,700 1005,700 1005,700 1005,700 1005,700 1006,700 1006,700 1006,700 1006,700 1006,700 1006,700 1007,700 1007,700 1007,700 1008,700 1008,700 1008,700 1008,700 1009,700 1009,700 1009,700 1009,700 1010,700 1010,700 1010,700 1010,700 1011,700 1011,700 1011,700 1011,700 1012,700 1012,700 1012,700 1013,700 1013,700 1013,700 1013,700 1014,700 1014,700 1014,700 1014,700 1015,700 1015,700 1015,700 1015,700 1016,700 1016,700 1016,700 1016,700 1017,700 1017,700 1017,700 1017,700 1018,700 1018,700 1018,700 1019,700 1019,700 1019,700 1020,700 1020,700 1020,700 1020,700 1021,700 1021,700 1021,700 1021,700 1022,700 1022,700 1022,700 1022,700 1022,700 1022,700 1023,700 1023,700 1023,700 1024,700 1024,700 1024,700 1024,700 1025,700 1025,700 1025,700 1025,700 1026,700 1026,700 1026,700 1027,700 1027,700 1027,700 1027,700 1028,700 1028,700 1028,700 1028,700 1029,700 1029,700 1029,700 1029,700 1030,700 1030,700 1030,700 1030,700 1031,700 1031,700 1031,700 1031,700 1032,700 1032,700 1032,700 1032,700 1033,700 1033,700 1033,700 1033,700 1034,700 1034,700 1034,700 1034,700 1035,700 1035,700 1035,700 1035,700 1036,700 1036,700 1036,700 1037,700 1037,700 1037,700 1037,700 1037,700 1037,700 1038,700 1038,700 1038,700 1038,700 1039,700 1039,700 1039,700 1039,700 1040,700 1040,700 1040,700 1041,700 1041,700 1041,700 1041,700 1042,700 1042,700 1042,700 1042,700 1043,700 1043,700 1043,700 1044,700 1044,700 1044,700 1045,700 1045,700 1045,700 1046,700 1046,700 1046,700 1046,700 1047,700 1047,700 1047,700 1047,700 1048,700 1048,700 1048,700 1048,700 1049,700 1049,700 1049,700 1049,700 1050,700 1050,700 1050,700 1051,700 1051,700 1051,700 1051,700 1052,700 1052,700 1052,700 1052,700 1052,700 1052,700 1053,700 1053,700 1053,700 1053,700 1054,700 1054,700 1054,700 1054,700 1055,700 1055,700 1055,700 1055,700 1056,700 1056,700 1056,700 1056,700 1057,700 1057,700 1057,700 1057,700 1058,700 1058,700 1058,700 1059,700 1059,700 1059,700 1059,700 1060,700 1060,700 1060,700 1060,700 1061,700 1061,700 1061,700 1061,700 1062,700 1062,700 1062,700 1063,700 1063,700 1063,700 1063,700 1064,700 1064,700 1064,700 1064,700 1065,700 1065,700 1065,700 1065,700 1066,700 1066,700 1066,700 1066,700 1067,700 1067,700 1067,700 1067,700 1067,700 1067,700 1068,700 1068,700 1068,700 1068,700 1069,700 1069,700 1069,700 1069,700 1070,700 1070,700 1070,700 1070,700 1071,700 1071,700 1071,700 1072,700 1072,700 1072,700 1072,700 1073,700 1073,700 1073,700 1073,700 1074,700 1074,700 1074,700 1074,700 1075,700 1075,700 1075,700 1075,700 1076,700 1076,700 1076,700 1076,700 1077,700 1077,700 1077,700 1077,700 1078,700 1078,700 1078,700 1078,700 1079,700 1079,700 1079,700 1079,700 1080,700 1080,700 1080,700 1080,700 1081,700 1081,700 1081,700 1081,700 1082,700 1082,700 1082,700 1082,700 1083,700 1083,700 1083,700 1083,700 1083,700 1083,700 1084,700 1084,700 1084,700 1085,700 1085,700 1085,700 1085,700 1086,700 1086,700 1086,700 1087,700 1087,700 1087,700 1087,700 1088,700 1088,700 1088,700 1088,700 1089,700 1089,700 1089,700 1089,700 1090,700 1090,700 1090,700 1090,700 1091,700 1091,700 1091,700 1092,700 1092,700 1092,700 1092,700 1093,700 1093,700 1093,700 1093,700 1094,700 1094,700 1094,700 1094,700 1095,700 1095,700 1095,700 1095,700 1096,700 1096,700 1096,700 1096,700 1097,700 1097,700 1097,700 1097,700 1098,700 1098,700 1098,700 1098,700 1098,700 1098,700 1099,700 1099,700 1099,700 1099,700 1100,700 1100,700 1100,700 1100,700 1101,700 1101,700 1101,700 1101,700 1102,700 1102,700 1102,700 1102,700 1103,700 1103,700 1103,700 1103,700 1104,700 1104,700 1104,700 1104,700 1105,700 1105,700 1105,700 1105,700 1106,700 1106,700 1106,700 1106,700 1107,700 1107,700 1107,700 1107,700 1108,700 1108,700 1108,700 1108,700 1109,700 1109,700 1109,700 1109,700 1110,700 1110,700 1110,700 1110,699 1111,699 1111,699 1111,699 1111,699 1112,699 1112,699 1112,699 1112,699 1113,699 1113,699 1113,699 1113,699 1113,699 1113,699 1114,699 1114,699 1114,699 1115,699 1115,699 1115,699 1115,699 1116,699 1116,699 1116,699 1116,699 1117,699 1117,699 1117,699 1117,699 1118,699 1118,699 1118,699 1118,699 1119,699 1119,699 1119,699 1119,699 1120,699 1120,699 1120,699 1120,699 1121,699 1121,699 1121,699 1121,699 1122,699 1122,699 1122,699 1122,699 1123,699 1123,699 1123,699 1123,699 1124,699 1124,699 1124,700 1125,700 1125,700 1125,700 1125,700 1126,700 1126,700 1126,700 1127,700 1127,700 1127,700 1127,700 1128,700 1128,700 1128,700 1128,700 1128,700 1128,700 1129,700 1129,700 1129,700 1129,700 1130,700 1130,700 1130,700 1130,700 1131,700 1131,700 1131,700 1131,700 1132,700 1132,700 1132,700 1132,700 1133,700 1133,700 1133,700 1133,700 1134,700 1134,700 1134,700 1134,700 1135,700 1135,700 1135,700 1135,700 1136,700 1136,700 1136,700 1136,700 1137,700 1137,700 1137,700 1137,700 1138,700 1138,700 1138,700 1138,700 1139,700 1139,700 1139,700 1139,700 1140,700 1140,700 1140,700 1140,700 1141,700 1141,700 1141,700 1141,700 1142,700 1142,700 1142,700 1142,700 1143,700 1143,700 1143,699 1143,699 1144,699 1144,699 1144,699 1144,699 1144,699 1145,699 1145,699 1145,699 1145,699 1146,699 1146,699 1146,699 1146,699 1147,699 1147,699 1147,699 1147,699 1148,699 1148,699 1148,699 1148,699 1149,699 1149,699 1149,699 1149,699 1150,699 1150,699 1150,699 1150,699 1151,699 1151,699 1151,699 1151,699 1152,699 1152,699 1152,699 1152,699 1153,699 1153,699 1153,699 1153,699 1154,699 1154,699 1154,699 1154,699 1155,699 1155,699 1155,699 1155,699 1156,699 1156,699 1156,699 1156,699 1157,699 1157,699 1157,699 1157,699 1158,699 1158,699 1158,699 1158,699 1159,699 1159,699 1159,699 1159,699 1159,699 1159,699 1160,699 1160,699 1160,699 1160,699 1161,699 1161,699 1161,699 1161,699 1162,699 1162,699 1162,699 1162,699 1163,699 1163,699 1163,699 1163,699 1164,699 1164,700 1164,700 1164,700 1165,700 1165,700 1165,700 1165,699 1166,699 1166,699 1166,699 1166,699 1167,699 1167,699 1167,699 1167,699 1168,699 1168,699 1168,699 1168,699 1169,699 1169,699 1169,699 1169,699 1170,699 1170,699 1170,699 1171,699 1171,699 1171,699 1171,699 1172,699 1172,699 1172,699 1172,699 1173,699 1173,699 1173,699 1173,699 1174,699 1174,699 1174,699 1174,699 1174,699 1174,699 1175,699 1175,699 1175,699 1175,699 1176,699 1176,699 1176,699 1176,699 1177,699 1177,699 1177,699 1177,699 1178,699 1178,699 1178,699 1178,699 1179,699 1179,699 1179,699 1179,699 1180,699 1180,699 1180,699 1181,699 1181,699 1181,699 1181,699 1182,699 1182,699 1182,699 1182,699 1183,699 1183,699 1183,699 1183,699 1184,699 1184,699 1184,699 1184,699 1185,699 1185,699 1185,699 1185,699 1186,699 1186,699 1186,699 1186,699 1187,699 1187,699 1187,699 1187,699 1188,699 1188,699 1188,699 1189,699 1189,699 1189,699 1189,699 1190,699 "/>
<polyline fill="none" opacity="1" stroke="#196BE6" stroke-width="2" points="84,738 90,738 93,738 102,738 103,738 107,738 112,738 118,737 119,737 119,737 123,737 126,737 129,737 134,737 136,737 141,737 141,737 142,737 145,737 147,736 148,736 149,736 149,736 150,736 151,736 154,735 156,735 158,735 159,735 160,735 160,735 163,735 164,735 165,735 165,735 167,735 169,735 172,734 176,734 178,734 184,734 185,734 186,734 187,734 188,734 189,734 189,734 190,734 196,734 197,734 198,734 199,734 202,734 203,734 203,734 205,734 205,734 206,734 207,734 208,734 208,734 209,734 212,734 213,734 216,734 217,733 219,733 219,733 221,733 221,733 222,733 222,733 223,733 225,733 225,733 226,733 227,733 228,733 230,733 230,733 231,733 233,733 233,733 234,733 234,733 235,733 237,733 237,733 238,733 239,733 239,733 241,733 241,733 242,733 243,733 243,733 244,733 245,733 247,733 248,732 249,732 251,732 252,732 253,732 253,732 254,732 254,732 255,732 255,732 256,732 258,732 259,732 261,732 261,732 262,732 264,732 265,731 265,731 268,731 269,731 270,731 271,731 271,731 272,731 272,731 273,731 274,731 274,731 275,731 276,730 276,730 277,730 277,730 278,730 278,730 279,730 279,730 280,730 280,730 281,730 281,730 282,730 282,730 283,730 283,730 284,730 285,730 285,730 286,730 286,730 287,730 287,730 288,730 288,730 289,730 289,730 289,730 290,730 290,730 291,730 291,730 292,730 293,730 293,730 294,730 294,730 295,730 296,730 296,729 297,729 297,729 298,729 298,729 299,729 299,729 300,729 300,729 301,729 301,729 302,729 302,729 303,729 303,728 304,728 304,728 304,728 305,728 305,728 306,728 306,728 307,728 307,728 308,728 308,728 309,728 309,728 310,728 310,728 311,728 311,728 312,728 312,728 313,728 313,728 314,728 314,728 315,728 315,728 316,728 316,728 317,728 317,728 318,728 318,728 319,728 319,728 319,728 320,728 320,728 321,728 321,727 322,727 322,727 323,727 323,727 324,727 324,728 325,728 325,728 326,728 326,728 327,728 327,728 328,728 328,727 329,727 329,727 330,727 330,727 331,727 331,727 332,727 332,727 333,727 333,727 334,727 334,727 334,727 335,727 335,727 336,727 336,727 337,727 337,727 338,727 338,727 339,727 339,727 340,727 340,727 341,727 341,727 342,727 342,727 343,727 343,727 344,727 344,727 345,727 345,727 346,727 346,727 347,727 347,727 348,727 348,727 349,727 349,727 350,727 350,727 350,727 351,727 351,727 352,727 352,727 353,727 353,727 354,727 354,727 355,727 355,727 356,727 356,727 357,726 357,726 358,726 358,726 359,726 359,726 360,726 360,726 361,726 361,726 362,726 362,726 363,726 363,726 364,726 364,726 365,726 365,726 365,726 366,726 366,726 367,726 367,726 368,726 368,726 369,726 369,726 370,726 370,726 371,726 371,726 372,726 372,726 373,726 373,726 374,726 374,726 375,726 375,726 376,726 376,725 377,725 377,725 378,725 378,725 379,725 379,725 380,725 380,725 380,725 381,725 381,725 382,725 382,725 383,725 383,725 384,725 384,725 385,725 385,725 386,725 386,725 387,725 388,725 388,725 389,725 389,725 390,725 390,725 391,725 391,725 392,725 392,725 393,725 393,725 394,725 394,725 395,725 395,725 395,725 396,725 396,725 397,725 397,725 398,725 398,725 399,725 399,725 400,725 400,725 401,725 401,725 402,725 403,725 403,725 404,725 404,724 405,724 405,724 406,724 406,724 407,724 407,724 408,724 408,724 409,724 409,724 410,724 410,724 411,724 411,724 411,724 412,724 412,724 413,724 413,724 414,724 414,724 415,724 415,724 416,724 416,724 417,724 417,724 418,724 418,724 419,724 419,724 420,724 420,724 421,724 422,724 422,724 423,724 423,724 424,724 424,724 425,724 425,724 426,724 426,724 426,724 427,724 427,724 428,724 428,724 429,724 429,724 430,724 430,724 431,724 431,724 432,723 432,723 433,723 433,723 434,723 434,723 435,723 435,723 436,723 436,723 437,723 437,723 438,723 438,723 439,723 439,723 440,723 440,723 441,723 441,723 441,723 442,723 442,722 443,723 443,722 444,722 444,722 445,722 445,722 446,722 446,722 447,722 447,722 448,722 448,722 449,722 449,722 450,722 450,722 451,722 451,722 452,722 452,722 453,722 453,722 454,722 455,722 455,722 456,722 456,722 457,722 457,722 457,722 458,722 458,722 459,722 459,721 460,721 460,721 461,721 461,721 462,721 462,721 463,721 463,721 464,721 464,721 465,721 465,721 466,721 466,721 467,721 467,721 468,721 468,721 469,721 469,721 470,721 470,721 471,721 471,721 472,721 472,721 472,721 473,721 473,721 474,721 474,721 475,721 475,721 476,721 476,721 477,721 477,721 478,721 478,721 479,721 479,721 480,721 480,721 481,721 481,721 482,720 482,720 483,720 483,720 484,720 484,720 485,720 485,720 486,720 486,720 487,720 487,720 487,720 488,720 488,720 489,720 489,720 490,720 490,720 491,720 491,720 492,720 492,720 493,720 493,720 494,720 494,720 495,719 495,719 496,719 496,719 497,719 497,719 498,719 498,719 499,719 499,719 500,719 500,719 501,719 501,719 502,719 502,719 502,719 503,719 503,719 504,719 504,719 505,719 505,719 506,719 506,719 507,719 507,719 508,719 508,719 509,719 509,719 510,719 510,719 511,719 511,719 512,719 512,719 513,719 513,718 514,718 514,718 515,718 515,718 516,718 516,718 517,718 517,718 518,718 518,718 518,718 519,718 519,718 520,718 520,718 521,718 521,718 522,718 522,718 523,718 523,718 524,718 524,718 525,718 525,718 526,718 526,718 527,718 527,718 528,718 528,718 529,718 529,718 530,718 530,718 531,718 531,718 532,718 532,718 533,718 533,718 533,718 534,718 534,718 535,718 535,718 536,718 536,717 537,717 537,717 538,717 538,717 539,717 539,717 540,717 540,717 541,717 541,717 542,717 542,717 543,717 543,717 544,717 544,717 545,717 545,717 546,717 546,717 547,717 547,717 548,717 548,717 548,717 549,717 549,717 550,717 550,717 551,717 551,717 552,717 552,717 553,717 553,717 554,717 554,717 555,717 555,717 556,716 556,716 557,716 557,716 558,716 558,716 559,716 559,716 560,716 560,716 561,716 561,716 562,716 562,716 563,716 563,716 563,716 564,716 564,716 565,716 565,716 566,716 566,716 567,716 567,716 568,716 568,716 569,716 569,716 570,716 570,716 571,716 571,716 572,716 572,716 573,716 573,716 574,716 574,716 575,716 575,716 576,716 576,716 577,716 577,716 578,716 578,716 579,716 579,716 579,716 580,716 580,716 581,716 581,716 582,716 582,716 583,716 583,716 584,716 584,716 585,716 585,716 586,716 586,716 587,716 587,716 588,715 588,715 589,715 589,715 590,715 590,715 591,715 591,715 592,715 592,715 593,715 593,715 594,715 594,715 594,715 595,715 595,715 596,715 596,715 597,715 597,715 598,715 598,715 599,715 599,715 600,715 600,715 601,715 601,715 602,715 602,715 603,715 603,715 604,715 604,715 605,715 605,715 606,715 606,715 607,715 607,715 608,715 608,715 609,715 609,715 609,714 610,714 610,714 611,714 611,714 612,714 612,714 613,714 613,714 614,714 614,714 615,714 615,714 616,714 616,714 617,713 617,713 618,713 618,713 619,713 619,713 620,713 620,713 621,713 621,713 622,713 622,713 623,713 623,713 624,713 624,713 625,713 625,713 625,713 626,713 626,713 627,713 627,713 628,713 628,713 629,713 629,713 630,713 630,713 631,713 631,713 632,713 632,713 633,713 633,713 634,713 634,713 635,713 635,712 636,712 636,712 637,712 637,712 638,712 638,712 639,712 639,712 640,712 640,712 640,712 641,712 641,712 642,712 642,712 643,712 643,712 644,712 644,712 645,712 645,712 646,712 646,712 647,712 647,712 648,712 648,712 649,712 649,712 650,712 650,712 651,712 651,712 652,712 652,712 653,712 653,712 654,712 654,712 655,712 655,712 655,712 656,712 656,712 657,712 657,712 658,712 658,712 659,712 659,712 660,712 660,712 661,712 661,712 662,712 662,712 663,712 663,711 664,711 664,711 665,711 665,711 666,711 666,711 667,711 667,711 668,711 668,711 669,711 669,711 670,711 670,711 670,711 671,711 671,711 672,711 672,711 673,711 673,711 674,711 674,711 675,711 675,711 676,711 676,711 677,711 677,711 678,711 678,711 679,711 679,711 680,711 680,711 681,711 681,711 682,711 682,711 683,711 683,711 684,711 684,711 685,711 685,711 686,711 686,711 686,711 687,711 687,711 688,711 688,711 689,711 689,711 690,711 690,711 691,711 691,711 692,711 692,711 693,711 693,711 694,711 694,711 695,711 695,711 696,711 696,711 697,711 697,711 698,711 698,711 699,711 699,711 700,711 700,711 701,711 701,711 701,711 702,711 702,711 703,711 703,711 704,711 704,711 705,711 705,711 706,711 706,710 707,710 707,710 708,710 708,710 709,710 709,711 710,711 710,711 711,711 711,711 712,710 712,710 713,710 713,710 714,710 714,710 715,710 715,710 716,710 716,710 716,710 717,710 717,710 718,710 718,710 719,710 719,710 720,710 720,710 721,710 721,710 722,710 722,710 723,710 723,710 724,710 724,710 725,710 725,710 726,710 726,710 727,710 727,710 728,710 728,710 729,710 729,710 730,710 730,709 731,709 731,709 731,709 732,709 732,709 733,709 733,709 734,709 734,709 735,709 735,709 736,709 736,709 737,709 737,709 738,709 738,709 739,709 739,709 740,709 740,709 740,709 741,709 741,709 742,709 742,709 743,709 743,709 744,709 744,709 745,709 745,709 746,709 746,709 747,709 747,709 747,709 748,709 748,709 749,709 749,709 750,709 750,709 751,709 751,709 752,709 752,709 753,709 753,709 754,709 754,709 755,709 755,709 756,709 756,709 757,708 757,708 758,708 758,708 759,708 759,708 760,708 760,708 761,708 761,708 762,708 762,708 762,708 763,708 763,708 764,708 764,708 765,708 765,708 766,708 766,708 767,708 767,708 768,708 768,708 769,708 769,708 770,708 770,708 771,708 771,708 772,708 772,708 773,708 773,708 774,708 774,708 775,708 775,708 776,708 776,708 777,707 777,707 777,707 778,707 778,707 779,707 779,707 780,707 780,707 781,707 781,707 782,707 782,707 783,707 783,707 784,707 784,707 785,707 785,707 786,707 786,707 787,707 787,707 788,707 788,707 789,707 789,707 790,707 790,707 791,707 791,707 792,707 792,707 792,707 793,707 793,707 794,707 794,707 795,707 795,707 796,707 796,707 797,707 797,707 798,707 798,707 799,707 799,707 800,707 800,707 801,707 801,707 802,707 802,707 803,707 803,707 804,707 804,707 805,707 805,707 806,707 806,707 807,707 807,707 808,706 808,706 808,706 809,706 809,706 810,706 810,706 811,706 811,706 812,706 812,706 813,706 813,706 814,706 814,706 815,706 815,706 816,706 816,706 817,706 817,706 818,706 818,706 819,706 819,706 820,706 820,706 821,705 821,705 822,705 822,705 823,705 823,705 823,705 824,705 824,705 825,705 825,705 826,705 826,705 827,705 827,705 828,705 828,705 829,705 829,705 830,705 830,705 831,705 831,705 832,705 832,705 833,705 833,705 834,705 834,705 835,705 835,705 836,705 836,705 837,705 837,705 838,705 838,705 838,705 839,705 839,705 840,705 840,705 841,705 841,705 842,705 842,705 843,705 843,705 844,705 844,705 845,705 845,704 846,704 846,704 847,704 847,704 848,704 848,704 849,704 849,704 850,704 850,704 851,704 851,704 852,704 852,704 853,704 853,704 854,704 854,704 854,704 855,704 855,704 856,704 856,704 857,704 857,704 858,704 858,704 859,704 859,704 860,704 860,704 861,704 861,704 862,704 862,704 863,704 863,704 864,704 864,703 865,703 865,703 866,703 866,703 867,703 867,703 868,703 868,703 869,703 869,703 869,703 870,703 870,703 871,703 871,703 872,703 872,703 873,703 873,703 874,703 874,703 875,703 875,703 876,703 876,703 877,703 877,703 878,703 878,703 879,703 879,703 880,703 880,703 881,703 881,703 882,703 882,703 883,703 883,703 884,703 884,703 884,703 885,703 885,703 886,703 886,703 887,703 887,703 888,703 888,703 889,703 889,703 890,703 890,703 891,703 891,703 892,703 892,703 893,703 893,703 894,703 894,703 895,703 895,703 896,703 896,703 897,703 897,703 898,703 898,703 899,703 899,703 899,703 900,703 900,703 901,703 901,702 902,702 902,702 903,702 903,702 904,702 904,702 905,702 905,702 906,702 906,702 907,702 907,702 908,702 908,702 909,702 909,702 910,702 910,702 911,702 911,702 912,702 912,702 913,702 913,702 914,702 914,702 915,702 915,702 915,702 916,702 916,701 917,701 917,701 918,701 918,701 919,701 919,701 920,701 920,701 921,701 921,701 922,701 922,701 923,701 923,701 924,701 924,701 925,701 925,701 926,701 926,701 927,701 927,701 927,701 928,701 928,701 929,701 929,701 930,701 930,701 930,701 931,701 931,701 932,701 932,701 933,701 933,701 934,701 934,701 935,701 935,701 936,701 936,701 937,700 937,700 938,700 938,700 939,700 939,700 940,700 940,700 941,700 941,700 942,700 942,700 943,700 943,700 944,700 944,700 945,700 945,700 945,700 946,700 946,700 947,700 947,700 948,700 948,700 949,700 949,700 950,700 950,700 951,700 951,700 952,700 952,700 953,700 953,700 954,700 954,700 955,700 955,700 956,700 956,700 957,700 957,700 958,700 958,700 959,700 959,700 960,700 960,700 960,700 961,700 961,700 962,700 962,700 963,700 963,699 964,699 964,699 965,699 965,700 966,700 966,700 967,700 967,700 968,700 968,700 969,700 969,700 970,700 970,700 971,700 971,700 972,700 972,700 973,700 973,700 974,700 974,699 975,700 975,700 976,700 976,700 976,700 977,700 977,700 978,700 978,700 979,700 979,700 980,700 980,700 981,700 981,700 982,699 982,699 983,699 983,699 984,699 984,699 985,699 985,699 986,699 986,699 987,699 987,699 988,699 988,699 989,699 989,699 990,699 990,699 991,699 991,699 991,699 992,699 992,699 993,699 993,699 994,699 994,699 995,699 995,699 995,699 996,699 996,699 996,699 997,699 997,699 997,699 997,699 998,699 998,699 998,699 999,699 999,699 999,699 999,699 1000,699 1000,699 1000,699 1000,699 1001,699 1001,699 1001,699 1001,699 1002,699 1002,699 1002,699 1002,699 1003,699 1003,699 1003,699 1004,699 1004,699 1004,699 1005,699 1005,699 1005,699 1005,699 1006,699 1006,699 1006,699 1006,699 1006,699 1006,699 1007,699 1007,699 1007,699 1008,699 1008,699 1008,699 1008,699 1009,699 1009,699 1009,699 1009,699 1010,699 1010,699 1010,699 1010,699 1011,699 1011,699 1011,699 1011,698 1012,698 1012,698 1012,699 1013,699 1013,699 1013,699 1013,699 1014,699 1014,699 1014,699 1014,698 1015,698 1015,698 1015,698 1015,698 1016,698 1016,698 1016,698 1016,698 1017,698 1017,698 1017,698 1017,698 1018,698 1018,698 1018,698 1019,698 1019,698 1019,698 1020,698 1020,698 1020,698 1020,698 1021,698 1021,698 1021,698 1021,698 1022,698 1022,698 1022,698 1022,698 1022,698 1022,698 1023,698 1023,698 1023,698 1024,698 1024,698 1024,698 1024,698 1025,698 1025,698 1025,698 1025,698 1026,698 1026,698 1026,698 1027,698 1027,698 1027,698 1027,698 1028,698 1028,698 1028,698 1028,698 1029,698 1029,698 1029,698 1029,698 1030,698 1030,698 1030,698 1030,698 1031,698 1031,698 1031,698 1031,698 1032,698 1032,698 1032,698 1032,698 1033,698 1033,698 1033,698 1033,698 1034,698 1034,698 1034,698 1034,698 1035,698 1035,697 1035,697 1035,697 1036,697 1036,697 1036,697 1037,697 1037,697 1037,697 1037,690 1037,690 1037,690 1038,690 1038,690 1038,690 1038,690 1039,690 1039,690 1039,690 1039,690 1040,690 1040,689 1040,689 1041,689 1041,689 1041,689 1041,689 1042,689 1042,689 1042,689 1042,689 1043,689 1043,689 1043,689 1044,688 1044,688 1044,688 1045,688 1045,688 1045,688 1046,688 1046,688 1046,688 1046,688 1047,688 1047,688 1047,688 1047,688 1048,688 1048,688 1048,688 1048,688 1049,688 1049,688 1049,688 1049,688 1050,688 1050,688 1050,688 1051,688 1051,688 1051,688 1051,688 1052,688 1052,688 1052,688 1052,688 1052,688 1052,688 1053,688 1053,688 1053,688 1053,688 1054,688 1054,688 1054,688 1054,688 1055,688 1055,688 1055,688 1055,688 1056,688 1056,688 1056,688 1056,688 1057,688 1057,688 1057,688 1057,688 1058,688 1058,688 1058,688 1059,688 1059,688 1059,688 1059,688 1060,688 1060,688 1060,688 1060,688 1061,688 1061,688 1061,688 1061,688 1062,688 1062,688 1062,688 1063,688 1063,688 1063,688 1063,688 1064,688 1064,688 1064,688 1064,688 1065,688 1065,688 1065,688 1065,687 1066,687 1066,687 1066,687 1066,687 1067,687 1067,687 1067,687 1067,687 1067,687 1067,687 1068,687 1068,687 1068,687 1068,687 1069,687 1069,687 1069,687 1069,687 1070,687 1070,687 1070,687 1070,687 1071,687 1071,687 1071,687 1072,687 1072,687 1072,687 1072,687 1073,687 1073,687 1073,687 1073,687 1074,687 1074,687 1074,687 1074,687 1075,687 1075,687 1075,687 1075,687 1076,687 1076,687 1076,687 1076,687 1077,687 1077,687 1077,687 1077,687 1078,687 1078,687 1078,687 1078,687 1079,687 1079,687 1079,687 1079,687 1080,687 1080,687 1080,687 1080,687 1081,687 1081,687 1081,687 1081,687 1082,687 1082,687 1082,687 1082,687 1083,687 1083,687 1083,687 1083,687 1083,687 1083,687 1084,687 1084,687 1084,687 1085,687 1085,687 1085,687 1085,687 1086,687 1086,687 1086,687 1087,687 1087,687 1087,687 1087,687 1088,687 1088,687 1088,687 1088,687 1089,687 1089,687 1089,687 1089,687 1090,687 1090,687 1090,687 1090,687 1091,687 1091,687 1091,687 1092,687 1092,687 1092,687 1092,687 1093,687 1093,687 1093,687 1093,687 1094,687 1094,687 1094,687 1094,687 1095,687 1095,687 1095,687 1095,687 1096,687 1096,687 1096,687 1096,687 1097,687 1097,687 1097,687 1097,687 1098,687 1098,687 1098,687 1098,687 1098,687 1098,687 1099,687 1099,686 1099,686 1099,686 1100,686 1100,686 1100,686 1100,686 1101,686 1101,686 1101,686 1101,686 1102,686 1102,686 1102,686 1102,686 1103,686 1103,686 1103,686 1103,686 1104,686 1104,686 1104,686 1104,686 1105,686 1105,686 1105,686 1105,686 1106,686 1106,686 1106,686 1106,686 1107,686 1107,686 1107,686 1107,686 1108,686 1108,686 1108,686 1108,686 1109,686 1109,686 1109,686 1109,686 1110,686 1110,686 1110,686 1110,686 1111,686 1111,686 1111,686 1111,686 1112,686 1112,686 1112,686 1112,686 1113,686 1113,686 1113,686 1113,686 1113,686 1113,686 1114,686 1114,686 1114,686 1115,686 1115,686 1115,686 1115,686 1116,686 1116,686 1116,686 1116,686 1117,686 1117,686 1117,686 1117,686 1118,686 1118,686 1118,686 1118,686 1119,686 1119,686 1119,686 1119,686 1120,686 1120,686 1120,686 1120,686 1121,686 1121,686 1121,686 1121,686 1122,686 1122,686 1122,686 1122,686 1123,686 1123,686 1123,686 1123,686 1124,686 1124,686 1124,686 1125,686 1125,686 1125,686 1125,686 1126,686 1126,686 1126,686 1127,686 1127,686 1127,686 1127,686 1128,686 1128,686 1128,686 1128,686 1128,686 1128,685 1129,685 1129,685 1129,685 1129,685 1130,685 1130,685 1130,685 1130,685 1131,685 1131,685 1131,685 1131,685 1132,685 1132,685 1132,685 1132,686 1133,686 1133,686 1133,686 1133,686 1134,686 1134,686 1134,686 1134,685 1135,685 1135,685 1135,685 1135,685 1136,685 1136,685 1136,685 1136,685 1137,685 1137,685 1137,685 1137,685 1138,685 1138,685 1138,685 1138,685 1139,685 1139,685 1139,685 1139,685 1140,685 1140,685 1140,685 1140,685 1141,685 1141,685 1141,685 1141,685 1142,685 1142,685 1142,685 1142,685 1143,685 1143,685 1143,685 1143,685 1144,685 1144,685 1144,685 1144,685 1144,685 1145,685 1145,685 1145,685 1145,688 1146,688 1146,688 1146,688 1146,688 1147,688 1147,687 1147,687 1147,687 1148,687 1148,687 1148,687 1148,687 1149,687 1149,687 1149,687 1149,687 1150,687 1150,687 1150,687 1150,687 1151,687 1151,687 1151,687 1151,687 1152,687 1152,687 1152,687 1152,687 1153,687 1153,687 1153,687 1153,687 1154,687 1154,687 1154,687 1154,687 1155,687 1155,687 1155,687 1155,687 1156,687 1156,687 1156,687 1156,687 1157,687 1157,687 1157,687 1157,687 1158,687 1158,687 1158,687 1158,687 1159,687 1159,687 1159,687 1159,687 1159,687 1159,687 1160,687 1160,687 1160,687 1160,687 1161,687 1161,687 1161,687 1161,687 1162,687 1162,687 1162,687 1162,687 1163,687 1163,687 1163,687 1163,687 1164,687 1164,687 1164,687 1164,687 1165,687 1165,687 1165,687 1165,687 1166,687 1166,687 1166,687 1166,687 1167,687 1167,687 1167,687 1167,687 1168,687 1168,687 1168,687 1168,687 1169,687 1169,687 1169,687 1169,687 1170,687 1170,687 1170,687 1171,687 1171,687 1171,687 1171,687 1172,687 1172,687 1172,687 1172,687 1173,687 1173,687 1173,687 1173,687 1174,687 1174,687 1174,687 1174,687 1174,687 1174,687 1175,687 1175,687 1175,687 1175,687 1176,687 1176,687 1176,687 1176,687 1177,687 1177,687 1177,687 1177,687 1178,687 1178,687 1178,687 1178,687 1179,687 1179,687 1179,687 1179,687 1180,687 1180,687 1180,687 1181,687 1181,687 1181,687 1181,687 1182,687 1182,687 1182,687 1182,687 1183,687 1183,687 1183,687 1183,687 1184,687 1184,687 1184,687 1184,687 1185,687 1185,687 1185,687 1185,687 1186,687 1186,690 1186,690 1186,690 1187,690 1187,690 1187,690 1187,690 1188,690 1188,690 1188,690 1189,690 1189,690 1189,690 1189,690 1190,690 "/>
<polyline fill="none" opacity="1" stroke="#BD19E6" stroke-width="2" points="465,738 466,738 485,738 500,738 517,738 518,738 525,738 536,737 540,737 544,737 550,737 553,737 554,736 557,736 562,736 576,736 576,736 581,736 587,736 592,735 594,735 594,735 595,735 598,735 599,735 602,734 603,734 606,734 607,734 607,734 608,734 608,734 611,734 611,734 612,734 612,734 615,734 617,733 617,733 618,733 619,733 620,733 622,733 622,733 623,732 623,733 624,732 625,732 625,732 625,732 626,732 627,732 629,732 631,732 631,732 634,731 634,731 636,731 637,731 639,731 641,731 641,731 642,730 644,730 646,730 647,730 648,730 652,729 652,729 653,729 653,729 656,729 656,728 657,728 658,728 658,728 659,728 659,728 660,727 661,727 661,727 662,727 662,727 663,726 663,726 664,726 665,726 666,726 667,725 667,725 668,725 669,725 669,725 670,724 670,724 670,724 671,724 671,724 672,724 672,724 673,724 673,724 674,723 674,723 675,723 675,723 676,723 676,722 678,722 678,722 679,722 680,722 680,722 681,721 681,721 682,721 683,720 684,720 684,720 685,720 685,720 686,720 686,720 686,720 687,720 687,720 688,720 688,720 689,720 689,720 690,720 690,719 691,719 691,719 692,719 692,719 693,719 693,719 694,719 694,719 695,719 695,719 696,719 696,719 697,719 697,719 698,718 699,718 699,718 700,718 700,718 701,718 701,718 701,718 702,718 702,717 703,717 704,717 704,717 705,717 705,717 706,717 706,717 707,717 707,717 708,716 708,716 709,716 709,716 710,716 710,716 711,716 711,715 712,715 712,715 713,715 713,715 714,715 715,715 715,715 716,715 716,715 716,715 717,715 717,715 718,715 718,715 719,715 719,715 720,715 720,714 721,714 721,714 722,713 722,713 723,713 723,713 724,713 724,712 725,712 725,712 726,712 726,712 727,712 727,712 728,712 729,712 729,712 730,711 730,711 731,711 731,711 732,711 732,710 733,710 734,710 734,710 735,710 735,710 736,710 736,710 737,710 738,710 738,710 739,710 739,709 740,709 740,709 740,709 741,709 741,709 742,709 742,709 743,709 744,708 744,708 745,708 745,708 746,708 746,708 747,707 747,707 747,707 748,707 748,707 749,706 749,706 750,706 750,706 751,706 751,706 752,706 752,705 753,705 753,705 754,705 754,705 755,705 755,705 756,704 756,704 757,704 757,704 758,704 758,704 759,703 759,703 760,703 760,703 761,703 761,703 762,703 762,703 762,702 763,702 763,702 764,702 764,702 765,702 765,701 766,701 766,701 767,701 768,701 768,701 769,701 769,701 770,701 770,701 771,701 771,701 772,701 772,701 773,701 773,701 774,701 774,701 775,701 775,701 776,701 776,700 777,700 777,700 777,700 778,700 778,699 779,699 779,699 780,698 780,698 781,698 781,698 782,697 782,697 783,697 783,697 784,697 784,697 785,696 785,696 786,696 786,696 787,695 787,695 788,695 788,695 789,695 789,694 790,694 790,693 791,693 791,693 792,693 792,692 792,692 793,692 793,691 794,691 794,691 795,691 795,690 796,690 796,690 797,690 797,689 798,689 798,689 799,689 799,689 800,689 800,689 801,688 801,688 802,688 802,688 803,688 803,688 804,687 804,687 805,687 805,687 806,687 806,687 807,686 807,686 808,686 808,686 808,686 809,685 809,685 810,685 810,685 811,685 811,684 812,685 812,685 813,684 813,684 814,684 814,684 815,684 815,683 816,683 816,683 817,683 817,683 818,683 818,682 819,682 819,682 820,681 820,681 821,680 821,680 822,680 822,680 823,680 823,680 823,679 824,679 824,678 825,678 825,678 826,678 826,678 827,677 827,677 828,677 828,677 829,677 829,677 830,676 830,676 831,676 831,676 832,675 832,675 833,675 833,675 834,675 834,675 835,674 835,674 836,674 836,674 837,674 837,673 838,673 838,673 838,673 839,673 839,673 840,673 840,673 841,673 841,672 842,672 842,672 843,671 843,671 844,671 844,671 845,671 845,671 846,670 846,670 847,670 847,670 848,669 848,669 849,669 849,669 850,668 850,669 851,668 851,668 852,668 852,668 853,667 853,667 854,667 854,666 854,666 855,666 855,666 856,666 856,666 857,666 857,665 858,665 858,665 859,665 859,664 860,664 860,664 861,664 861,664 862,664 862,663 863,663 863,662 864,662 864,662 865,662 865,662 866,662 866,662 867,661 867,661 868,661 868,661 869,660 869,660 869,660 870,659 870,659 871,659 871,659 872,659 872,659 873,658 873,658 874,658 874,658 875,658 875,658 876,657 876,657 877,657 877,657 878,657 878,657 879,657 879,657 880,656 880,656 881,655 881,655 882,655 882,655 883,655 883,654 884,654 884,654 884,654 885,654 885,653 886,653 886,653 887,653 887,652 888,652 888,652 889,652 889,651 890,651 890,650 891,650 891,650 892,650 892,649 893,649 893,649 894,649 894,648 895,648 895,648 896,648 896,647 897,647 897,647 898,647 898,646 899,646 899,646 900,646 900,645 901,645 901,645 902,645 902,645 903,644 903,644 904,644 904,644 905,643 905,643 906,642 906,642 907,642 907,642 908,641 908,641 909,641 909,640 910,640 910,640 911,640 911,640 912,639 912,639 913,639 913,638 914,638 914,637 915,637 915,637 915,637 916,636 916,636 917,635 917,635 918,634 918,634 919,634 919,633 920,633 920,633 921,632 921,632 922,632 922,631 923,631 923,631 924,630 924,630 925,630 925,629 926,629 926,629 927,628 927,628 927,628 928,628 928,628 929,627 929,627 930,627 930,626 930,625 931,624 931,624 932,623 932,623 933,622 933,622 934,622 934,622 935,622 935,622 936,622 936,622 937,622 937,621 938,620 938,620 939,620 939,619 940,619 940,619 941,619 941,618 942,617 942,617 943,617 943,617 944,617 944,617 945,616 945,616 945,616 946,615 946,615 947,615 947,615 948,615 948,614 949,614 949,614 950,614 950,613 951,612 951,612 952,612 952,611 953,611 953,611 954,611 954,611 955,610 955,609 956,609 956,609 957,608 957,607 958,607 958,607 959,606 959,606 960,606 960,606 960,605 961,605 961,605 962,605 962,604 963,604 963,604 964,603 964,603 965,603 965,602 966,602 966,602 967,602 967,601 968,601 968,601 969,600 969,600 970,599 970,599 971,598 971,598 972,598 972,598 973,598 973,597 974,597 974,597 975,597 975,597 976,596 976,596 976,595 977,595 977,595 978,595 978,594 979,594 979,594 980,593 980,593 981,593 981,592 982,592 982,591 983,591 983,591 984,590 984,590 985,590 985,589 986,589 986,589 987,589 987,588 988,588 988,587 989,586 989,586 990,586 990,585 991,585 991,584 991,584 992,584 992,583 993,583 993,582 994,582 994,582 995,582 995,581 995,581 996,581 996,581 996,580 997,580 997,580 997,580 997,579 998,579 998,579 998,579 999,579 999,579 999,579 999,578 1000,578 1000,578 1000,578 1000,578 1001,578 1001,577 1001,577 1001,577 1002,577 1002,577 1002,577 1002,576 1003,576 1003,576 1003,575 1004,575 1004,574 1004,574 1005,574 1005,574 1005,574 1005,574 1006,574 1006,574 1006,574 1006,573 1006,573 1006,573 1007,573 1007,572 1007,572 1008,572 1008,572 1008,572 1008,571 1009,571 1009,571 1009,571 1009,570 1010,570 1010,569 1010,569 1010,569 1011,569 1011,569 1011,569 1011,569 1012,569 1012,569 1012,568 1013,568 1013,568 1013,568 1013,567 1014,567 1014,567 1014,567 1014,566 1015,566 1015,566 1015,566 1015,565 1016,565 1016,565 1016,565 1016,565 1017,565 1017,564 1017,564 1017,564 1018,564 1018,563 1018,563 1019,563 1019,563 1019,562 1020,562 1020,561 1020,561 1020,561 1021,561 1021,561 1021,561 1021,561 1022,561 1022,560 1022,560 1022,560 1022,560 1022,560 1023,560 1023,559 1023,559 1024,559 1024,558 1024,558 1024,558 1025,558 1025,557 1025,557 1025,556 1026,556 1026,556 1026,555 1027,555 1027,555 1027,555 1027,555 1028,555 1028,554 1028,554 1028,553 1029,553 1029,553 1029,553 1029,553 1030,553 1030,552 1030,552 1030,552 1031,552 1031,552 1031,551 1032,551 1032,550 1032,550 1032,550 1033,550 1033,550 1033,550 1033,549 1034,549 1034,548 1034,548 1034,547 1035,547 1035,546 1035,546 1035,546 1036,545 1036,545 1036,545 1037,545 1037,545 1037,545 1037,544 1037,544 1037,544 1038,544 1038,544 1038,544 1038,544 1039,544 1039,543 1039,543 1039,543 1040,543 1040,542 1040,541 1041,541 1041,540 1041,540 1041,540 1042,540 1042,540 1042,540 1042,539 1043,539 1043,539 1043,538 1044,538 1044,538 1044,538 1045,538 1045,538 1045,537 1046,537 1046,537 1046,537 1046,537 1047,537 1047,536 1047,536 1047,536 1048,536 1048,536 1048,536 1048,536 1049,536 1049,535 1049,535 1049,535 1050,535 1050,535 1050,534 1051,534 1051,534 1051,534 1051,534 1052,534 1052,534 1052,534 1052,533 1052,533 1052,533 1053,533 1053,533 1053,533 1053,532 1054,532 1054,531 1054,531 1054,531 1055,531 1055,531 1055,531 1055,531 1056,531 1056,530 1056,530 1056,530 1057,530 1057,529 1057,529 1057,529 1058,529 1058,529 1058,529 1059,529 1059,528 1059,528 1059,528 1060,528 1060,528 1060,528 1060,528 1061,528 1061,527 1061,527 1061,527 1062,527 1062,527 1062,527 1063,527 1063,527 1063,527 1063,526 1064,526 1064,526 1064,526 1064,525 1065,525 1065,525 1065,525 1065,525 1066,525 1066,524 1066,524 1066,524 1067,524 1067,524 1067,524 1067,523 1067,523 1067,523 1068,523 1068,522 1068,522 1068,522 1069,522 1069,522 1069,522 1069,521 1070,521 1070,521 1070,521 1070,521 1071,521 1071,521 1071,520 1072,520 1072,519 1072,519 1072,519 1073,519 1073,519 1073,519 1073,518 1074,518 1074,518 1074,518 1074,517 1075,517 1075,517 1075,517 1075,517 1076,517 1076,517 1076,517 1076,516 1077,516 1077,515 1077,515 1077,515 1078,515 1078,515 1078,515 1078,514 1079,514 1079,514 1079,514 1079,513 1080,513 1080,513 1080,513 1080,513 1081,513 1081,512 1081,512 1081,511 1082,511 1082,511 1082,511 1082,510 1083,510 1083,509 1083,509 1083,508 1083,508 1083,507 1084,507 1084,507 1084,507 1085,506 1085,506 1085,506 1085,505 1086,505 1086,505 1086,505 1087,505 1087,504 1087,504 1087,504 1088,504 1088,504 1088,504 1088,503 1089,503 1089,503 1089,503 1089,503 1090,503 1090,502 1090,502 1090,502 1091,502 1091,502 1091,501 1092,501 1092,501 1092,501 1092,501 1093,501 1093,501 1093,501 1093,500 1094,500 1094,499 1094,499 1094,499 1095,499 1095,499 1095,499 1095,498 1096,498 1096,498 1096,498 1096,497 1097,497 1097,497 1097,497 1097,497 1098,497 1098,496 1098,496 1098,496 1098,496 1098,496 1099,496 1099,496 1099,496 1099,495 1100,495 1100,495 1100,495 1100,495 1101,495 1101,495 1101,495 1101,494 1102,494 1102,494 1102,494 1102,493 1103,493 1103,493 1103,493 1103,493 1104,493 1104,492 1104,492 1104,492 1105,492 1105,492 1105,492 1105,491 1106,491 1106,491 1106,491 1106,490 1107,490 1107,490 1107,490 1107,489 1108,489 1108,489 1108,489 1108,489 1109,489 1109,488 1109,487 1109,487 1110,487 1110,486 1110,486 1110,486 1111,486 1111,486 1111,486 1111,485 1112,485 1112,485 1112,485 1112,485 1113,485 1113,485 1113,485 1113,485 1113,485 1113,485 1114,484 1114,484 1114,484 1115,484 1115,484 1115,484 1115,483 1116,483 1116,483 1116,483 1116,483 1117,483 1117,482 1117,482 1117,482 1118,482 1118,482 1118,482 1118,481 1119,481 1119,481 1119,481 1119,481 1120,481 1120,481 1120,481 1120,480 1121,480 1121,480 1121,480 1121,480 1122,480 1122,479 1122,479 1122,479 1123,479 1123,479 1123,479 1123,478 1124,478 1124,478 1124,478 1125,478 1125,477 1125,477 1125,476 1126,476 1126,476 1126,475 1127,475 1127,475 1127,475 1127,474 1128,474 1128,474 1128,474 1128,474 1128,474 1128,474 1129,474 1129,473 1129,473 1129,473 1130,473 1130,472 1130,472 1130,472 1131,472 1131,471 1131,471 1131,471 1132,471 1132,471 1132,471 1132,470 1133,470 1133,470 1133,470 1133,470 1134,470 1134,470 1134,470 1134,469 1135,469 1135,469 1135,469 1135,468 1136,468 1136,468 1136,468 1136,468 1137,468 1137,467 1137,467 1137,467 1138,467 1138,467 1138,467 1138,467 1139,467 1139,466 1139,466 1139,466 1140,466 1140,466 1140,466 1140,465 1141,465 1141,465 1141,465 1141,464 1142,464 1142,464 1142,464 1142,464 1143,464 1143,463 1143,463 1143,463 1144,463 1144,463 1144,462 1144,462 1144,462 1145,462 1145,462 1145,462 1145,462 1146,462 1146,462 1146,462 1146,461 1147,461 1147,461 1147,461 1147,461 1148,461 1148,461 1148,461 1148,460 1149,460 1149,460 1149,460 1149,459 1150,459 1150,459 1150,459 1150,458 1151,458 1151,458 1151,458 1151,458 1152,458 1152,457 1152,457 1152,457 1153,457 1153,456 1153,456 1153,456 1154,456 1154,455 1154,455 1154,455 1155,455 1155,454 1155,454 1155,453 1156,453 1156,452 1156,452 1156,453 1157,453 1157,452 1157,452 1157,452 1158,452 1158,451 1158,451 1158,451 1159,450 1159,450 1159,450 1159,449 1159,449 1159,449 1160,449 1160,449 1160,449 1160,447 1161,447 1161,446 1161,446 1161,445 1162,445 1162,444 1162,444 1162,444 1163,444 1163,443 1163,443 1163,443 1164,443 1164,442 1164,442 1164,442 1165,442 1165,441 1165,441 1165,441 1166,441 1166,441 1166,441 1166,440 1167,440 1167,440 1167,440 1167,440 1168,440 1168,439 1168,439 1168,439 1169,439 1169,438 1169,438 1169,438 1170,438 1170,438 1170,438 1171,438 1171,437 1171,437 1171,437 1172,437 1172,436 1172,436 1172,436 1173,436 1173,435 1173,435 1173,435 1174,435 1174,435 1174,435 1174,434 1174,434 1174,434 1175,434 1175,433 1175,433 1175,432 1176,432 1176,432 1176,432 1176,432 1177,432 1177,431 1177,431 1177,431 1178,431 1178,431 1178,431 1178,431 1179,431 1179,430 1179,430 1179,430 1180,429 1180,429 1180,429 1181,429 1181,429 1181,429 1181,428 1182,428 1182,428 1182,428 1182,428 1183,428 1183,428 1183,428 1183,427 1184,427 1184,427 1184,427 1184,426 1185,426 1185,426 1185,426 1185,426 1186,426 1186,425 1186,425 1186,425 1187,425 1187,423 1187,423 1187,423 1188,423 1188,422 1188,422 1189,422 1189,422 1189,422 1189,421 1190,421 "/>
<rect x="65" y="329" width="97" height="91" opacity="1" fill="#FFFFFF" stroke="none"/>
<rect x="65" y="329" width="97" height="91" opacity="1" fill="none" stroke="#000000"/>
<text x="105" y="339" dy="0.76em" text-anchor="start" font-family="sans-serif" font-size="9.67741935483871" opacity="1" fill="#000000">
argparse
</text>
<text x="105" y="354" dy="0.76em" text-anchor="start" font-family="sans-serif" font-size="9.67741935483871" opacity="1" fill="#000000">
clap
</text>
<text x="105" y="369" dy="0.76em" text-anchor="start" font-family="sans-serif" font-size="9.67741935483871" opacity="1" fill="#000000">
docopt
</text>
<text x="105" y="384" dy="0.76em" text-anchor="start" font-family="sans-serif" font-size="9.67741935483871" opacity="1" fill="#000000">
getopts
</text>
<text x="105" y="399" dy="0.76em" text-anchor="start" font-family="sans-serif" font-size="9.67741935483871" opacity="1" fill="#000000">
structopt
</text>
<polyline fill="none" opacity="1" stroke="#E61919" stroke-width="2" points="75,343 95,343 "/>
<polyline fill="none" opacity="1" stroke="#BDE619" stroke-width="2" points="75,359 95,359 "/>
<polyline fill="none" opacity="1" stroke="#19E66B" stroke-width="2" points="75,374 95,374 "/>
<polyline fill="none" opacity="1" stroke="#196BE6" stroke-width="2" points="75,389 95,389 "/>
<polyline fill="none" opacity="1" stroke="#BD19E6" stroke-width="2" points="75,404 95,404 "/>
</svg>
