<svg width="1200" height="800" xmlns="http://www.w3.org/2000/svg">
<rect x="0" y="0" width="1199" height="799" opacity="1" fill="#FFFFFF" stroke="none"/>
<line opacity="0.1" stroke="#000000" stroke-width="1" x1="60" y1="728" x2="1190" y2="728"/>
<line opacity="0.1" stroke="#000000" stroke-width="1" x1="60" y1="717" x2="1190" y2="717"/>
<line opacity="0.1" stroke="#000000" stroke-width="1" x1="60" y1="706" x2="1190" y2="706"/>
<line opacity="0.1" stroke="#000000" stroke-width="1" x1="60" y1="695" x2="1190" y2="695"/>
<line opacity="0.1" stroke="#000000" stroke-width="1" x1="60" y1="684" x2="1190" y2="684"/>
<line opacity="0.1" stroke="#000000" stroke-width="1" x1="60" y1="674" x2="1190" y2="674"/>
<line opacity="0.1" stroke="#000000" stroke-width="1" x1="60" y1="663" x2="1190" y2="663"/>
<line opacity="0.1" stroke="#000000" stroke-width="1" x1="60" y1="652" x2="1190" y2="652"/>
<line opacity="0.1" stroke="#000000" stroke-width="1" x1="60" y1="641" x2="1190" y2="641"/>
<line opacity="0.1" stroke="#000000" stroke-width="1" x1="60" y1="630" x2="1190" y2="630"/>
<line opacity="0.1" stroke="#000000" stroke-width="1" x1="60" y1="619" x2="1190" y2="619"/>
<line opacity="0.1" stroke="#000000" stroke-width="1" x1="60" y1="608" x2="1190" y2="608"/>
<line opacity="0.1" stroke="#000000" stroke-width="1" x1="60" y1="598" x2="1190" y2="598"/>
<line opacity="0.1" stroke="#000000" stroke-width="1" x1="60" y1="587" x2="1190" y2="587"/>
<line opacity="0.1" stroke="#000000" stroke-width="1" x1="60" y1="576" x2="1190" y2="576"/>
<line opacity="0.1" stroke="#000000" stroke-width="1" x1="60" y1="565" x2="1190" y2="565"/>
<line opacity="0.1" stroke="#000000" stroke-width="1" x1="60" y1="554" x2="1190" y2="554"/>
<line opacity="0.1" stroke="#000000" stroke-width="1" x1="60" y1="543" x2="1190" y2="543"/>
<line opacity="0.1" stroke="#000000" stroke-width="1" x1="60" y1="533" x2="1190" y2="533"/>
<line opacity="0.1" stroke="#000000" stroke-width="1" x1="60" y1="522" x2="1190" y2="522"/>
<line opacity="0.1" stroke="#000000" stroke-width="1" x1="60" y1="511" x2="1190" y2="511"/>
<line opacity="0.1" stroke="#000000" stroke-width="1" x1="60" y1="500" x2="1190" y2="500"/>
<line opacity="0.1" stroke="#000000" stroke-width="1" x1="60" y1="489" x2="1190" y2="489"/>
<line opacity="0.1" stroke="#000000" stroke-width="1" x1="60" y1="478" x2="1190" y2="478"/>
<line opacity="0.1" stroke="#000000" stroke-width="1" x1="60" y1="467" x2="1190" y2="467"/>
<line opacity="0.1" stroke="#000000" stroke-width="1" x1="60" y1="457" x2="1190" y2="457"/>
<line opacity="0.1" stroke="#000000" stroke-width="1" x1="60" y1="446" x2="1190" y2="446"/>
<line opacity="0.1" stroke="#000000" stroke-width="1" x1="60" y1="435" x2="1190" y2="435"/>
<line opacity="0.1" stroke="#000000" stroke-width="1" x1="60" y1="424" x2="1190" y2="424"/>
<line opacity="0.1" stroke="#000000" stroke-width="1" x1="60" y1="413" x2="1190" y2="413"/>
<line opacity="0.1" stroke="#000000" stroke-width="1" x1="60" y1="402" x2="1190" y2="402"/>
<line opacity="0.1" stroke="#000000" stroke-width="1" x1="60" y1="391" x2="1190" y2="391"/>
<line opacity="0.1" stroke="#000000" stroke-width="1" x1="60" y1="381" x2="1190" y2="381"/>
<line opacity="0.1" stroke="#000000" stroke-width="1" x1="60" y1="370" x2="1190" y2="370"/>
<line opacity="0.1" stroke="#000000" stroke-width="1" x1="60" y1="359" x2="1190" y2="359"/>
<line opacity="0.1" stroke="#000000" stroke-width="1" x1="60" y1="348" x2="1190" y2="348"/>
<line opacity="0.1" stroke="#000000" stroke-width="1" x1="60" y1="337" x2="1190" y2="337"/>
<line opacity="0.1" stroke="#000000" stroke-width="1" x1="60" y1="326" x2="1190" y2="326"/>
<line opacity="0.1" stroke="#000000" stroke-width="1" x1="60" y1="316" x2="1190" y2="316"/>
<line opacity="0.1" stroke="#000000" stroke-width="1" x1="60" y1="305" x2="1190" y2="305"/>
<line opacity="0.1" stroke="#000000" stroke-width="1" x1="60" y1="294" x2="1190" y2="294"/>
<line opacity="0.1" stroke="#000000" stroke-width="1" x1="60" y1="283" x2="1190" y2="283"/>
<line opacity="0.1" stroke="#000000" stroke-width="1" x1="60" y1="272" x2="1190" y2="272"/>
<line opacity="0.1" stroke="#000000" stroke-width="1" x1="60" y1="261" x2="1190" y2="261"/>
<line opacity="0.1" stroke="#000000" stroke-width="1" x1="60" y1="250" x2="1190" y2="250"/>
<line opacity="0.1" stroke="#000000" stroke-width="1" x1="60" y1="240" x2="1190" y2="240"/>
<line opacity="0.1" stroke="#000000" stroke-width="1" x1="60" y1="229" x2="1190" y2="229"/>
<line opacity="0.1" stroke="#000000" stroke-width="1" x1="60" y1="218" x2="1190" y2="218"/>
<line opacity="0.1" stroke="#000000" stroke-width="1" x1="60" y1="207" x2="1190" y2="207"/>
<line opacity="0.1" stroke="#000000" stroke-width="1" x1="60" y1="196" x2="1190" y2="196"/>
<line opacity="0.1" stroke="#000000" stroke-width="1" x1="60" y1="185" x2="1190" y2="185"/>
<line opacity="0.1" stroke="#000000" stroke-width="1" x1="60" y1="174" x2="1190" y2="174"/>
<line opacity="0.1" stroke="#000000" stroke-width="1" x1="60" y1="164" x2="1190" y2="164"/>
<line opacity="0.1" stroke="#000000" stroke-width="1" x1="60" y1="153" x2="1190" y2="153"/>
<line opacity="0.1" stroke="#000000" stroke-width="1" x1="60" y1="142" x2="1190" y2="142"/>
<line opacity="0.1" stroke="#000000" stroke-width="1" x1="60" y1="131" x2="1190" y2="131"/>
<line opacity="0.1" stroke="#000000" stroke-width="1" x1="60" y1="120" x2="1190" y2="120"/>
<line opacity="0.1" stroke="#000000" stroke-width="1" x1="60" y1="109" x2="1190" y2="109"/>
<line opacity="0.1" stroke="#000000" stroke-width="1" x1="60" y1="99" x2="1190" y2="99"/>
<line opacity="0.1" stroke="#000000" stroke-width="1" x1="60" y1="88" x2="1190" y2="88"/>
<line opacity="0.1" stroke="#000000" stroke-width="1" x1="60" y1="77" x2="1190" y2="77"/>
<line opacity="0.1" stroke="#000000" stroke-width="1" x1="60" y1="66" x2="1190" y2="66"/>
<line opacity="0.1" stroke="#000000" stroke-width="1" x1="60" y1="55" x2="1190" y2="55"/>
<line opacity="0.1" stroke="#000000" stroke-width="1" x1="60" y1="44" x2="1190" y2="44"/>
<line opacity="0.1" stroke="#000000" stroke-width="1" x1="60" y1="33" x2="1190" y2="33"/>
<line opacity="0.1" stroke="#000000" stroke-width="1" x1="60" y1="23" x2="1190" y2="23"/>
<line opacity="0.1" stroke="#000000" stroke-width="1" x1="60" y1="12" x2="1190" y2="12"/>
<text x="10" y="375" dy="0.76em" text-anchor="middle" font-family="sans-serif" font-size="9.67741935483871" opacity="1" fill="#000000" transform="rotate(270, 10, 375)">
Number of dependent crates
</text>
<line opacity="0.2" stroke="#000000" stroke-width="1" x1="60" y1="630" x2="1190" y2="630"/>
<line opacity="0.2" stroke="#000000" stroke-width="1" x1="60" y1="522" x2="1190" y2="522"/>
<line opacity="0.2" stroke="#000000" stroke-width="1" x1="60" y1="413" x2="1190" y2="413"/>
<line opacity="0.2" stroke="#000000" stroke-width="1" x1="60" y1="305" x2="1190" y2="305"/>
<line opacity="0.2" stroke="#000000" stroke-width="1" x1="60" y1="196" x2="1190" y2="196"/>
<line opacity="0.2" stroke="#000000" stroke-width="1" x1="60" y1="88" x2="1190" y2="88"/>
<polyline fill="none" opacity="1" stroke="#000000" stroke-width="1" points="59,10 59,740 "/>
<text x="50" y="630" dy="0.5ex" text-anchor="end" font-family="sans-serif" font-size="9.67741935483871" opacity="1" fill="#000000">
500
</text>
<polyline fill="none" opacity="1" stroke="#000000" stroke-width="1" points="54,630 59,630 "/>
<text x="50" y="522" dy="0.5ex" text-anchor="end" font-family="sans-serif" font-size="9.67741935483871" opacity="1" fill="#000000">
1000
</text>
<polyline fill="none" opacity="1" stroke="#000000" stroke-width="1" points="54,522 59,522 "/>
<text x="50" y="413" dy="0.5ex" text-anchor="end" font-family="sans-serif" font-size="9.67741935483871" opacity="1" fill="#000000">
1500
</text>
<polyline fill="none" opacity="1" stroke="#000000" stroke-width="1" points="54,413 59,413 "/>
<text x="50" y="305" dy="0.5ex" text-anchor="end" font-family="sans-serif" font-size="9.67741935483871" opacity="1" fill="#000000">
2000
</text>
<polyline fill="none" opacity="1" stroke="#000000" stroke-width="1" points="54,305 59,305 "/>
<text x="50" y="196" dy="0.5ex" text-anchor="end" font-family="sans-serif" font-size="9.67741935483871" opacity="1" fill="#000000">
2500
</text>
<polyline fill="none" opacity="1" stroke="#000000" stroke-width="1" points="54,196 59,196 "/>
<text x="50" y="88" dy="0.5ex" text-anchor="end" font-family="sans-serif" font-size="9.67741935483871" opacity="1" fill="#000000">
3000
</text>
<polyline fill="none" opacity="1" stroke="#000000" stroke-width="1" points="54,88 59,88 "/>
<polyline fill="none" opacity="1" stroke="#000000" stroke-width="1" points="60,740 1190,740 "/>
<text x="60" y="750" dy="0.76em" text-anchor="middle" font-family="sans-serif" font-size="9.67741935483871" opacity="1" fill="#000000">
2014-11-20Z
</text>
<polyline fill="none" opacity="1" stroke="#000000" stroke-width="1" points="60,740 60,745 "/>
<text x="176" y="750" dy="0.76em" text-anchor="middle" font-family="sans-serif" font-size="9.67741935483871" opacity="1" fill="#000000">
2015-06-11Z
</text>
<polyline fill="none" opacity="1" stroke="#000000" stroke-width="1" points="176,740 176,745 "/>
<text x="292" y="750" dy="0.76em" text-anchor="middle" font-family="sans-serif" font-size="9.67741935483871" opacity="1" fill="#000000">
2015-12-31Z
</text>
<polyline fill="none" opacity="1" stroke="#000000" stroke-width="1" points="292,740 292,745 "/>
<text x="408" y="750" dy="0.76em" text-anchor="middle" font-family="sans-serif" font-size="9.67741935483871" opacity="1" fill="#000000">
2016-07-21Z
</text>
<polyline fill="none" opacity="1" stroke="#000000" stroke-width="1" points="408,740 408,745 "/>
<text x="524" y="750" dy="0.76em" text-anchor="middle" font-family="sans-serif" font-size="9.67741935483871" opacity="1" fill="#000000">
2017-02-09Z
</text>
<polyline fill="none" opacity="1" stroke="#000000" stroke-width="1" points="524,740 524,745 "/>
<text x="640" y="750" dy="0.76em" text-anchor="middle" font-family="sans-serif" font-size="9.67741935483871" opacity="1" fill="#000000">
2017-08-31Z
</text>
<polyline fill="none" opacity="1" stroke="#000000" stroke-width="1" points="640,740 640,745 "/>
<text x="756" y="750" dy="0.76em" text-anchor="middle" font-family="sans-serif" font-size="9.67741935483871" opacity="1" fill="#000000">
2018-03-22Z
</text>
<polyline fill="none" opacity="1" stroke="#000000" stroke-width="1" points="756,740 756,745 "/>
<text x="872" y="750" dy="0.76em" text-anchor="middle" font-family="sans-serif" font-size="9.67741935483871" opacity="1" fill="#000000">
2018-10-11Z
</text>
<polyline fill="none" opacity="1" stroke="#000000" stroke-width="1" points="872,740 872,745 "/>
<text x="988" y="750" dy="0.76em" text-anchor="middle" font-family="sans-serif" font-size="9.67741935483871" opacity="1" fill="#000000">
2019-05-02Z
</text>
<polyline fill="none" opacity="1" stroke="#000000" stroke-width="1" points="988,740 988,745 "/>
<text x="1104" y="750" dy="0.76em" text-anchor="middle" font-family="sans-serif" font-size="9.67741935483871" opacity="1" fill="#000000">
2019-11-21Z
</text>
<polyline fill="none" opacity="1" stroke="#000000" stroke-width="1" points="1104,740 1104,745 "/>
<polyline fill="none" opacity="1" stroke="#E61919" stroke-width="2" points="176,738 181,738 182,738 222,738 252,737 284,737 293,737 294,737 302,736 306,737 308,736 310,736 311,736 313,736 314,736 315,736 316,735 326,736 327,736 342,735 343,735 348,735 356,735 359,735 360,734 374,734 375,734 381,734 400,734 400,734 402,734 402,734 403,734 404,734 405,734 406,734 406,734 407,734 408,734 409,734 410,734 411,734 456,734 456,734 457,733 458,733 460,733 486,733 486,733 487,733 488,733 490,733 490,733 491,733 492,733 493,733 495,732 496,732 498,732 498,732 499,732 500,732 500,732 502,732 503,732 505,732 506,732 506,732 507,732 508,732 508,732 510,732 511,732 513,732 514,732 514,732 515,732 516,732 517,732 517,732 518,732 519,732 520,732 521,732 522,732 524,732 524,731 525,731 525,731 527,731 528,731 529,731 531,731 532,731 533,731 533,731 536,731 536,731 537,731 537,731 539,731 540,731 541,731 542,731 542,730 543,730 544,730 545,730 547,730 548,730 549,730 549,730 550,730 550,730 552,730 553,730 554,730 554,730 556,730 557,730 558,730 558,730 561,730 561,730 563,730 566,730 566,730 567,730 570,730 572,730 573,730 575,730 576,730 577,730 578,730 578,730 581,730 582,730 584,730 585,730 586,730 588,730 588,730 589,730 589,730 591,730 592,730 593,730 594,730 594,730 595,730 596,730 596,730 597,730 597,730 598,730 600,730 600,730 602,730 604,730 608,730 609,730 610,730 610,730 611,730 612,730 612,730 613,730 615,730 616,730 616,730 617,730 617,730 618,730 618,730 619,730 620,729 620,729 621,729 622,729 623,729 626,729 627,729 627,729 628,729 628,729 629,729 630,729 631,729 636,729 639,729 641,729 642,729 643,729 644,728 646,728 647,729 650,729 651,729 652,728 662,728 663,728 665,728 668,728 669,728 675,728 677,728 679,728 680,728 681,728 681,728 684,728 687,728 688,728 691,728 691,728 692,728 694,728 695,728 696,728 696,727 697,728 698,728 699,728 699,728 700,728 701,728 701,728 702,728 703,728 704,728 704,728 705,728 705,728 706,728 707,728 708,728 709,728 710,728 711,728 711,728 712,728 713,728 713,728 715,728 716,728 716,728 717,728 718,727 719,727 719,727 720,727 721,727 721,727 723,727 725,727 725,727 726,727 727,727 728,727 728,727 729,728 730,728 731,728 732,728 732,728 735,728 736,728 737,728 739,728 739,727 740,727 743,727 743,727 747,727 747,727 748,727 748,727 749,727 749,727 750,727 751,727 753,727 753,727 754,727 755,727 757,727 758,727 759,727 759,727 760,727 761,727 761,727 763,727 765,727 765,727 766,727 767,727 767,727 768,727 769,727 770,727 771,727 771,727 772,727 772,727 773,727 773,727 774,727 775,727 775,727 776,727 776,727 777,727 777,727 778,727 779,727 779,727 780,727 781,727 781,727 782,727 784,727 785,727 785,727 786,727 789,727 790,727 791,727 791,727 792,727 794,727 795,727 795,727 796,727 796,727 797,727 797,727 798,727 799,727 799,727 800,727 800,727 801,727 801,727 802,727 803,727 805,727 806,727 807,727 807,727 808,727 809,727 809,727 810,727 811,727 811,727 812,727 812,727 813,727 813,727 814,727 815,727 815,727 816,727 817,727 817,726 818,726 819,726 819,726 820,726 820,726 821,726 821,726 823,726 823,726 824,726 825,726 827,726 827,726 828,726 828,726 829,726 830,726 831,726 832,726 832,726 833,726 834,726 835,726 835,726 836,726 836,726 837,726 837,726 838,726 839,726 840,726 840,726 841,726 841,726 842,726 843,726 843,726 844,726 845,726 846,726 847,726 848,726 848,726 849,726 849,726 850,726 851,726 852,726 852,726 853,726 853,726 855,726 855,726 856,726 857,726 857,726 858,726 859,726 860,726 860,726 861,726 861,726 862,726 863,726 863,726 863,726 864,726 864,726 865,726 865,726 866,726 867,726 867,726 868,726 868,726 869,726 870,726 871,726 871,726 872,726 872,726 873,726 873,726 874,726 875,726 876,726 876,726 877,726 878,726 879,726 880,726 880,726 881,726 883,726 883,726 884,726 884,726 885,726 885,726 886,726 887,726 887,726 888,726 888,726 889,726 890,726 891,726 891,726 892,726 893,726 894,726 895,726 896,726 896,725 897,725 897,725 899,725 899,725 900,725 900,725 901,725 902,725 903,725 903,725 904,725 905,725 905,725 906,725 907,725 908,725 908,725 909,725 911,725 911,725 912,725 913,725 914,725 915,725 915,725 916,725 917,725 917,725 918,725 919,725 919,725 920,725 920,725 921,725 922,725 923,725 923,725 924,725 924,725 925,725 925,725 926,725 927,725 928,725 928,725 929,725 930,725 932,725 932,725 933,725 933,725 935,725 935,725 936,725 936,725 937,725 937,725 938,725 939,725 940,725 940,725 941,725 942,725 943,725 944,725 944,724 945,724 946,724 947,724 947,724 948,724 948,724 949,724 949,724 950,724 951,724 951,724 952,724 953,724 953,724 954,724 955,724 955,724 956,724 956,724 957,724 957,724 958,724 959,724 959,724 960,724 960,724 961,724 961,724 962,724 963,724 964,724 964,724 965,724 965,724 966,724 967,724 968,724 968,724 969,724 969,724 970,724 971,724 971,724 972,724 973,724 973,724 974,724 975,724 975,724 977,724 977,724 980,724 981,724 981,724 983,724 983,724 984,724 984,724 985,724 985,724 986,724 987,724 987,724 988,724 988,724 989,724 989,724 990,724 991,724 992,724 993,724 995,724 995,724 996,724 996,724 997,724 998,724 999,724 1000,724 1001,724 1001,724 1002,724 1003,724 1003,724 1004,724 1004,724 1005,723 1007,723 1007,723 1008,723 1008,723 1009,723 1009,723 1012,723 1012,723 1013,723 1013,723 1014,723 1015,723 1016,723 1016,723 1017,723 1017,723 1019,723 1019,723 1020,723 1020,723 1021,723 1021,723 1024,723 1024,723 1025,723 1025,723 1026,723 1027,723 1027,723 1028,723 1028,723 1029,723 1030,723 1031,723 1031,723 1032,723 1033,723 1033,723 1034,723 1036,723 1036,723 1037,723 1037,723 1038,723 1039,723 1039,723 1040,723 1040,723 1041,723 1041,723 1042,723 1043,723 1043,723 1044,723 1044,723 1045,723 1045,723 1046,723 1047,723 1048,723 1049,723 1050,723 1051,723 1052,723 1052,723 1053,723 1053,723 1055,723 1056,724 1056,724 1057,724 1057,724 1058,724 1059,724 1059,724 1060,724 1060,724 1061,724 1061,724 1063,724 1063,724 1066,724 1067,724 1067,724 1068,724 1068,724 1069,724 1071,724 1072,724 1072,724 1073,724 1073,724 1074,724 1075,724 1076,724 1076,724 1077,724 1078,724 1080,724 1080,724 1082,724 1083,724 1084,724 1084,724 1085,724 1085,724 1086,724 1088,724 1088,724 1089,724 1089,724 1090,724 1091,724 1091,724 1092,724 1092,724 1093,724 1093,724 1094,724 1095,724 1095,724 1096,724 1096,724 1097,724 1097,724 1098,724 1099,724 1099,724 1100,724 1100,724 1101,724 1101,724 1103,723 1104,723 1104,723 1105,723 1105,723 1106,723 1111,723 1111,723 1112,723 1112,723 1113,723 1114,723 1115,723 1115,723 1116,723 1117,723 1117,723 1120,723 1120,722 1121,722 1121,722 1123,722 1124,722 1124,722 1125,722 1126,722 1127,722 1127,722 1128,722 1129,722 1129,722 1130,722 1131,722 1131,722 1132,722 1132,722 1133,722 1133,722 1134,722 1135,722 1136,722 1137,722 1137,722 1138,722 1139,722 1139,722 1140,722 1140,722 1141,722 1142,722 1143,722 1143,722 1144,722 1144,722 1145,722 1145,722 1146,722 1147,722 1148,722 1148,722 1149,722 1151,722 1151,722 1152,722 1152,722 1153,722 1153,722 1156,722 1156,722 1157,722 1159,722 1159,722 1160,722 1160,722 1161,722 1161,722 1162,722 1163,722 1163,722 1164,722 1164,722 1164,722 1165,722 1166,722 1166,722 1167,722 1167,722 1168,722 1169,722 1169,722 1169,722 1170,722 1171,722 1171,722 1171,722 1172,722 1172,722 1172,722 1172,722 1173,722 1173,722 1173,722 1174,722 1174,722 1175,722 1175,722 1175,722 1176,722 1176,722 1176,722 1176,722 1177,722 1177,722 1178,722 1178,722 1179,722 1179,722 1179,722 1180,722 1180,722 1180,722 1181,722 1181,722 1181,722 1181,722 1182,722 1183,722 1183,722 1183,722 1184,722 1184,722 1185,722 1185,722 1186,722 1187,722 1187,722 1187,722 1188,722 1188,722 1188,722 1188,722 "/>
<polyline fill="none" opacity="1" stroke="#BDE619" stroke-width="2" points="134,738 162,738 184,738 187,738 200,738 208,737 209,737 212,737 218,737 220,737 222,737 229,736 234,736 238,736 243,736 248,735 251,735 252,735 252,735 253,735 254,734 255,734 258,734 259,733 261,733 265,733 266,732 268,732 275,732 278,732 280,731 280,731 281,731 283,731 285,730 290,730 290,730 292,730 293,729 296,729 296,729 297,729 298,728 298,728 302,728 305,728 305,727 306,727 307,727 310,727 311,726 315,726 317,726 321,725 321,725 322,725 323,724 324,724 325,724 325,724 327,724 328,724 329,723 329,723 331,723 332,723 334,723 334,722 336,722 337,722 337,722 338,722 342,721 345,721 347,721 348,721 349,721 352,721 353,720 353,720 354,720 354,720 355,720 356,720 356,720 357,720 358,719 359,719 360,719 362,719 363,719 364,719 365,719 366,719 366,718 367,718 368,718 368,718 369,718 370,718 370,718 371,718 372,717 375,717 376,717 376,717 377,717 377,717 378,717 381,717 381,717 382,717 382,717 383,717 384,717 384,717 385,716 385,716 386,716 386,716 387,716 388,716 388,716 389,716 389,716 390,716 390,716 391,715 392,715 393,715 393,715 394,715 394,714 395,714 396,714 397,714 398,714 399,714 400,713 400,713 401,713 401,713 402,712 403,712 404,712 405,712 407,712 408,711 408,711 409,710 409,710 411,710 412,710 413,710 413,709 414,709 415,709 416,709 416,709 417,709 417,708 418,708 418,708 419,708 420,707 420,707 421,707 422,707 423,707 424,707 424,707 425,707 425,706 426,706 426,706 428,706 428,706 429,706 430,705 430,705 431,705 432,704 432,704 433,704 433,704 434,704 434,704 435,704 436,703 437,681 438,681 439,680 440,680 440,679 441,679 441,679 442,679 443,679 444,679 444,678 445,678 445,678 446,677 446,677 447,677 448,676 448,676 449,676 449,676 450,675 450,675 451,675 452,675 452,674 453,674 453,674 454,674 454,674 455,673 456,673 456,673 457,672 457,671 458,671 458,671 460,670 460,670 461,666 462,666 462,666 464,666 464,666 465,665 465,665 466,665 466,665 467,665 469,665 469,665 470,665 470,664 471,664 472,664 472,664 473,664 473,663 474,663 474,663 475,663 476,663 477,663 477,662 478,662 478,662 479,661 480,661 480,661 481,661 481,661 482,661 483,661 484,660 484,660 485,659 486,659 486,658 487,658 488,658 488,658 489,658 489,658 490,658 490,658 491,658 492,656 493,656 493,656 494,656 494,656 495,655 496,655 496,655 497,655 497,655 498,654 498,654 499,654 500,654 500,654 501,654 501,654 502,653 502,653 503,653 504,653 504,653 505,653 505,653 506,653 507,652 508,652 508,651 509,651 509,651 510,651 510,651 511,650 512,650 512,650 513,650 513,649 514,649 514,648 515,648 516,648 516,647 517,646 517,646 518,645 518,645 519,645 520,645 520,644 521,644 521,643 522,643 522,643 523,642 524,642 524,642 525,641 525,641 526,640 526,640 527,640 528,639 528,639 529,638 529,638 530,638 530,638 531,637 532,637 532,637 533,637 533,637 534,636 534,636 535,636 536,635 536,635 537,635 537,634 538,634 538,633 539,633 540,633 540,633 541,632 541,632 542,632 542,632 543,632 544,631 544,631 545,631 545,631 546,630 546,629 547,628 548,628 548,627 549,627 550,627 550,627 551,627 552,626 552,626 553,625 553,625 554,625 554,624 555,624 556,623 556,623 557,623 557,622 558,622 558,622 559,622 560,621 560,620 561,620 561,620 562,620 562,619 563,619 564,618 564,618 565,618 565,618 566,618 566,617 567,617 568,616 568,616 569,616 569,616 570,616 570,615 571,615 572,615 572,614 573,614 573,614 574,613 574,612 575,612 576,612 576,611 577,612 577,612 578,611 578,611 579,611 580,611 580,610 581,610 581,610 582,609 582,609 583,609 584,608 584,607 585,607 585,607 586,607 586,607 587,606 588,606 588,605 589,605 589,604 590,604 590,604 591,604 592,603 592,603 593,603 593,602 594,602 594,601 595,600 596,600 596,599 597,599 597,599 598,599 598,598 599,597 600,597 600,597 601,597 601,597 602,597 602,597 603,597 604,597 604,596 605,596 605,595 606,595 606,595 607,595 608,595 608,594 609,594 609,593 610,593 610,593 611,593 612,592 612,592 613,592 613,591 614,590 614,589 615,589 616,589 616,588 617,588 617,587 618,587 618,587 619,587 620,587 620,587 621,586 621,586 622,586 622,585 623,585 624,585 624,585 625,584 625,584 626,584 627,584 627,583 628,583 628,582 629,582 629,582 630,582 631,581 631,581 632,581 632,580 633,580 633,580 634,580 635,579 635,580 636,579 636,579 637,578 637,578 638,577 639,577 639,577 640,577 640,577 641,577 641,577 642,576 643,575 643,575 644,575 644,575 645,575 645,574 646,574 647,574 647,574 648,573 648,572 649,572 649,572 650,571 651,571 651,571 652,571 652,571 653,571 653,571 654,570 655,570 655,566 656,565 656,564 657,564 657,564 658,564 659,564 659,564 660,563 660,562 661,562 661,561 662,561 663,560 663,560 664,559 664,559 665,558 665,558 666,558 667,558 667,558 668,557 668,557 669,557 669,557 670,556 671,556 671,556 672,555 672,554 673,554 673,554 674,553 675,553 675,552 676,551 676,551 677,551 677,550 678,550 679,550 679,550 680,550 680,549 681,549 681,548 682,548 683,548 683,548 684,548 684,547 685,547 685,547 686,546 687,546 687,546 688,546 688,545 689,545 689,545 690,544 691,544 691,545 692,544 692,543 693,543 693,543 694,543 695,543 695,542 696,542 696,542 697,541 697,541 698,541 699,539 699,538 700,538 700,538 701,538 701,537 702,536 703,536 703,536 704,535 704,535 705,535 705,534 706,534 707,533 707,533 708,533 708,533 709,533 709,533 710,532 711,532 711,532 712,531 712,531 713,531 713,531 714,531 715,531 715,531 716,530 716,530 717,530 717,530 718,529 719,528 719,528 720,528 720,527 721,527 721,526 722,526 723,526 723,525 724,525 724,525 725,524 725,523 726,524 727,524 727,523 728,518 728,518 729,517 729,517 730,516 731,516 731,515 732,515 732,514 733,513 733,513 734,512 735,511 735,510 736,510 736,509 737,509 737,508 738,508 739,507 739,507 740,507 740,507 741,506 741,506 742,505 743,505 743,504 744,503 744,503 745,502 745,502 746,502 747,502 747,501 748,500 748,500 749,500 749,499 750,498 751,497 751,497 752,496 752,496 753,496 753,496 754,495 755,495 755,494 756,494 756,494 757,494 757,493 758,493 759,493 759,492 760,491 760,490 761,490 761,490 762,489 763,488 763,488 764,488 764,488 765,488 765,487 766,487 767,486 767,486 768,486 768,485 769,485 769,485 770,485 771,485 771,484 772,483 772,483 773,483 773,482 774,482 775,482 775,482 776,481 776,481 777,481 777,481 778,481 779,481 779,481 780,480 780,480 781,480 781,479 782,479 783,479 783,478 784,477 784,477 785,477 785,476 786,476 787,476 787,475 788,475 788,475 789,474 789,474 790,473 791,473 791,473 792,472 792,472 793,472 793,471 794,471 795,470 795,470 796,470 796,469 797,469 797,469 798,468 799,468 799,467 800,467 800,467 801,467 801,466 802,466 803,465 803,465 804,464 804,464 805,463 805,463 806,461 807,461 807,461 808,460 808,460 809,460 809,460 810,459 811,459 811,458 812,458 812,458 813,457 813,456 814,456 815,455 815,455 816,454 816,454 817,454 817,453 818,452 819,452 819,451 820,451 820,450 821,450 821,450 822,450 823,450 823,449 824,449 824,448 825,448 825,447 826,447 827,447 827,446 828,446 828,446 829,446 829,446 830,445 831,445 831,445 832,445 832,445 833,444 833,444 834,444 835,444 835,443 836,442 836,442 837,441 837,441 838,441 839,441 839,440 840,440 840,440 841,440 841,440 842,440 843,439 843,439 844,438 844,438 845,438 845,438 846,437 847,437 847,437 848,436 848,436 849,436 849,436 850,436 851,435 851,434 852,434 852,433 853,433 853,432 854,431 855,431 855,430 856,430 856,430 857,430 857,429 858,429 859,428 859,427 860,427 860,427 861,426 861,425 862,425 863,424 863,424 863,424 864,422 864,422 865,421 865,421 866,421 867,419 867,419 868,418 868,418 869,417 869,417 870,417 871,416 871,416 872,416 872,416 873,415 873,408 874,408 875,407 875,406 876,406 876,406 877,405 877,405 878,404 879,403 879,403 880,402 880,402 881,402 881,401 882,400 883,400 883,399 884,398 884,397 885,397 885,396 886,396 887,395 887,395 888,395 888,394 889,394 889,393 890,392 891,391 891,391 892,391 892,390 893,389 893,389 894,388 895,388 895,388 896,387 896,387 897,386 897,386 898,385 899,385 899,385 900,384 900,384 901,384 901,384 902,383 903,383 903,382 904,381 904,381 905,380 905,380 906,379 907,379 907,378 908,378 908,378 909,378 909,378 910,377 911,377 911,376 912,376 912,375 913,375 913,374 914,374 915,374 915,373 916,372 916,372 917,372 917,372 918,371 919,370 919,368 920,367 920,367 921,366 921,365 922,364 923,362 923,362 924,362 924,361 925,361 925,360 926,360 927,360 927,359 928,358 928,358 929,357 929,357 930,357 931,357 931,355 932,354 932,354 933,354 933,353 934,352 935,352 935,351 936,351 936,350 937,350 937,349 938,349 939,349 939,348 940,347 940,347 941,347 941,346 942,345 943,344 943,344 944,344 944,343 945,342 945,342 946,342 947,341 947,341 948,340 948,340 949,339 949,339 950,339 951,338 951,338 952,337 952,336 953,336 953,335 954,335 955,334 955,333 956,333 956,332 957,332 957,331 958,331 959,330 959,329 960,330 960,329 961,328 961,328 962,328 963,327 963,326 964,326 964,325 965,324 965,324 966,323 967,322 967,321 968,320 968,319 969,319 969,318 970,318 971,318 971,317 972,317 972,316 973,315 973,315 974,314 975,314 975,313 976,313 976,313 977,312 977,312 978,311 979,311 979,310 980,309 980,309 981,309 981,308 982,307 983,306 983,306 984,305 984,304 985,303 985,303 986,302 987,301 987,301 988,300 988,299 989,299 989,298 990,298 991,298 991,297 992,296 992,296 993,296 993,295 994,295 995,295 995,295 996,294 996,293 997,291 997,291 998,291 999,290 999,290 1000,288 1000,288 1001,287 1001,287 1002,286 1003,286 1003,285 1004,284 1004,283 1005,283 1005,281 1006,281 1007,280 1007,280 1008,279 1008,278 1009,278 1009,278 1010,277 1011,276 1011,276 1012,275 1012,274 1013,274 1013,273 1014,273 1015,272 1015,271 1016,271 1016,271 1017,271 1017,270 1018,269 1019,268 1019,267 1020,266 1020,265 1021,265 1021,265 1022,265 1023,265 1023,264 1024,264 1024,257 1025,258 1025,257 1026,256 1027,256 1027,255 1028,254 1028,253 1029,253 1029,252 1030,251 1031,251 1031,250 1032,250 1032,248 1033,247 1033,247 1034,246 1035,245 1035,245 1036,245 1036,244 1037,243 1037,243 1038,242 1039,242 1039,242 1040,241 1040,241 1041,240 1041,240 1042,239 1043,239 1043,238 1044,237 1044,237 1045,237 1045,236 1046,235 1047,234 1047,233 1048,232 1048,232 1049,231 1049,231 1050,231 1051,231 1051,229 1052,229 1052,228 1053,228 1053,227 1054,227 1055,227 1055,226 1056,226 1056,226 1057,225 1057,225 1058,225 1059,224 1059,224 1060,223 1060,223 1061,222 1061,221 1062,220 1063,219 1063,218 1064,219 1064,218 1065,217 1065,217 1066,216 1067,216 1067,215 1068,214 1068,213 1069,213 1069,212 1070,212 1071,212 1071,211 1072,211 1072,210 1073,210 1073,210 1074,209 1075,209 1075,208 1076,207 1076,207 1077,207 1077,207 1078,206 1079,206 1079,205 1080,203 1080,203 1081,202 1081,202 1082,202 1083,201 1083,201 1084,200 1084,200 1084,199 1085,199 1085,199 1086,198 1087,198 1087,198 1088,197 1088,197 1089,196 1089,195 1090,195 1091,195 1091,194 1092,194 1092,193 1093,192 1093,192 1094,191 1095,191 1095,190 1096,190 1096,188 1097,188 1097,187 1098,186 1099,186 1099,185 1100,184 1100,184 1101,182 1101,182 1102,182 1103,181 1103,180 1104,179 1104,179 1105,178 1105,178 1106,178 1107,178 1107,175 1108,174 1108,174 1109,173 1109,173 1110,173 1111,172 1111,172 1112,172 1112,172 1113,172 1113,171 1114,170 1115,170 1115,170 1116,169 1116,168 1117,168 1117,168 1118,167 1119,167 1119,167 1120,166 1120,166 1121,166 1121,165 1122,164 1123,162 1123,161 1124,161 1124,160 1125,160 1125,159 1126,158 1127,158 1127,158 1128,156 1128,156 1129,155 1129,154 1130,153 1131,153 1131,152 1132,151 1132,150 1133,150 1133,148 1134,147 1135,146 1135,146 1136,146 1136,146 1137,145 1137,144 1138,143 1139,142 1139,142 1140,141 1140,140 1141,140 1141,139 1142,138 1143,137 1143,136 1144,135 1144,135 1145,135 1145,134 1146,133 1147,133 1147,132 1148,130 1148,129 1149,128 1149,127 1150,126 1151,126 1151,125 1152,124 1152,123 1153,122 1153,121 1154,120 1155,120 1155,119 1156,118 1156,118 1157,118 1157,117 1158,115 1159,114 1159,114 1160,113 1160,112 1161,112 1161,111 1162,110 1163,109 1163,109 1164,108 1164,108 1164,108 1165,108 1165,107 1165,106 1166,106 1166,105 1167,105 1167,104 1167,104 1168,104 1168,103 1168,103 1168,103 1169,103 1169,102 1169,102 1169,100 1170,100 1170,99 1171,99 1171,98 1171,98 1171,97 1172,97 1172,96 1172,96 1172,95 1173,95 1173,94 1173,93 1174,93 1174,93 1175,92 1175,92 1175,91 1176,91 1176,91 1176,91 1176,90 1177,90 1177,90 1177,90 1177,90 1178,90 1178,90 1179,89 1179,89 1179,87 1180,87 1180,87 1180,87 1180,86 1181,86 1181,85 1181,85 1181,84 1182,84 1182,83 1183,83 1183,83 1183,83 1183,82 1184,82 1184,81 1184,80 1185,80 1185,79 1185,79 1185,79 1186,79 1186,79 1187,79 1187,79 1187,79 1187,78 1188,78 1188,77 1188,77 1188,76 1189,76 1189,75 1190,75 "/>
<polyline fill="none" opacity="1" stroke="#19E66B" stroke-width="2" points="60,738 60,738 61,738 70,738 76,737 77,737 83,737 86,737 91,736 96,736 97,736 98,735 99,735 103,735 107,735 113,735 114,734 122,734 125,734 126,734 130,734 142,733 146,733 148,733 149,733 150,733 152,733 155,733 156,733 157,733 157,733 160,732 161,733 162,733 162,733 163,732 164,732 164,732 165,732 166,732 166,731 167,731 168,731 168,731 169,731 169,731 170,731 170,731 171,731 172,731 172,731 173,731 173,731 174,731 175,731 176,731 177,731 177,730 178,730 178,730 179,730 180,730 180,730 181,730 182,730 182,730 183,730 184,730 185,730 185,730 186,729 186,729 187,729 188,729 189,729 189,729 190,729 190,729 191,729 192,729 192,729 193,729 193,729 194,728 196,728 197,728 198,728 199,729 200,728 201,728 201,728 202,728 202,728 203,728 204,728 205,728 206,728 207,728 208,728 208,728 209,728 210,728 210,727 212,727 213,727 214,727 214,727 215,727 216,727 216,727 217,727 218,727 218,727 219,727 220,727 220,727 221,727 222,727 222,726 223,726 224,726 225,726 225,726 226,726 226,726 227,726 228,726 228,726 229,726 230,726 232,725 233,725 233,725 234,725 235,725 236,725 236,725 237,725 237,725 238,725 238,725 239,725 240,725 240,725 241,725 241,725 243,725 244,725 244,725 245,724 245,724 246,724 246,724 247,724 248,724 248,724 249,724 250,724 250,724 251,724 252,724 253,724 253,724 254,724 254,724 255,724 256,724 256,724 257,724 258,724 258,724 259,724 260,724 260,724 261,724 263,724 264,724 264,724 265,723 265,723 266,723 267,723 268,723 269,723 269,723 270,723 270,723 271,722 272,722 272,722 273,721 273,721 274,721 274,721 275,721 276,721 277,721 277,721 278,721 279,721 280,721 280,721 281,721 281,721 282,721 282,720 283,720 284,720 284,720 285,720 285,720 286,720 287,720 288,720 288,720 289,720 289,720 290,720 290,720 291,720 292,720 292,720 293,720 293,720 294,720 294,720 295,720 296,720 296,720 297,720 297,720 298,720 298,720 299,720 300,720 300,720 301,720 301,720 302,720 302,720 303,720 304,720 304,720 305,719 305,719 306,719 306,719 307,719 308,719 308,719 309,719 309,719 310,718 310,718 311,718 312,718 312,718 313,718 313,718 314,718 314,717 315,717 316,717 316,717 317,717 317,717 318,717 318,717 320,717 320,717 321,717 321,717 322,717 323,717 324,716 324,716 325,716 325,716 326,716 326,716 327,716 328,716 328,716 329,716 329,716 330,716 330,716 331,716 332,716 332,715 333,715 333,715 334,715 334,715 335,715 336,715 336,715 337,715 337,715 338,715 338,715 339,715 340,715 340,715 341,715 341,714 342,714 342,714 343,714 344,714 344,714 345,714 345,714 346,714 346,714 347,714 348,714 348,714 349,714 349,714 350,714 350,714 351,714 352,714 352,714 353,714 353,714 354,714 356,714 356,714 357,713 357,713 358,713 358,713 359,713 360,713 360,713 361,713 361,713 362,713 362,713 363,713 364,713 364,713 365,712 365,712 366,712 366,712 367,712 368,712 368,712 369,712 369,712 370,712 370,712 371,712 372,712 372,712 373,712 373,712 374,712 374,712 376,711 377,711 377,711 378,711 378,711 379,711 380,711 380,711 381,711 381,711 382,711 383,711 384,711 384,711 385,711 385,710 386,710 386,710 387,710 388,710 388,710 389,710 389,710 390,710 390,710 391,710 392,710 392,710 393,710 393,710 394,710 394,710 395,710 396,710 396,710 397,710 397,710 398,710 398,710 399,710 400,710 400,710 401,710 401,710 402,710 402,710 403,710 404,710 404,710 405,710 405,710 406,710 406,709 407,709 408,709 408,709 409,709 409,709 410,709 410,709 411,709 412,709 412,709 413,709 413,709 414,709 414,709 415,709 416,709 416,708 417,708 417,708 418,708 418,708 419,708 420,708 420,708 421,708 421,708 422,708 422,708 423,708 424,708 424,708 425,708 425,708 426,708 426,708 427,708 428,708 428,707 429,707 429,707 430,707 430,707 431,707 432,707 432,707 433,707 433,707 434,707 434,707 435,707 436,707 436,707 437,707 437,707 438,707 438,707 439,707 440,707 440,707 441,707 441,707 442,706 442,706 443,706 444,706 444,706 445,706 445,706 446,706 446,706 447,706 448,706 449,706 449,706 450,706 450,706 451,706 452,706 452,706 453,706 453,706 454,706 454,706 455,706 456,706 456,706 457,706 457,706 458,706 458,706 459,706 460,706 460,705 461,705 461,705 462,705 462,705 463,705 464,705 464,705 465,705 465,705 466,705 466,705 467,705 468,705 468,705 469,705 469,705 470,705 470,705 471,705 472,705 472,705 473,705 473,705 474,705 474,704 475,704 476,704 476,704 477,704 477,704 478,704 478,704 479,704 480,704 480,704 481,704 481,704 482,704 482,704 483,704 484,704 484,704 485,704 485,704 486,704 486,704 487,703 488,703 488,703 489,703 489,703 490,703 490,703 491,703 492,703 492,703 493,703 493,703 494,703 494,703 496,702 496,702 497,702 497,702 498,702 498,702 499,702 500,702 500,702 501,702 501,702 502,702 502,702 503,702 504,702 504,701 505,701 505,701 506,701 506,701 507,701 508,701 508,701 509,701 509,700 510,700 510,700 511,700 512,700 512,700 513,700 513,700 514,700 514,700 515,700 516,700 516,700 517,700 517,700 518,700 518,700 519,700 520,700 520,700 521,700 521,700 522,700 522,700 523,700 524,700 524,700 525,700 525,700 526,700 526,700 527,700 528,700 528,700 529,700 529,700 530,700 530,700 531,700 532,700 532,700 533,700 533,700 534,700 534,699 535,699 536,699 536,699 537,699 537,700 538,700 538,700 539,700 540,700 540,700 541,699 541,700 542,700 542,700 543,700 544,700 544,700 545,700 545,699 546,699 546,699 547,700 548,700 548,700 549,700 549,700 550,700 550,700 551,700 552,700 552,700 553,700 553,700 554,700 554,700 555,700 556,699 556,699 557,699 557,699 558,699 558,699 559,699 560,699 560,699 561,699 561,699 562,699 562,699 563,699 564,699 564,699 565,699 565,699 566,699 566,699 567,699 568,699 568,699 569,699 569,699 570,699 570,699 571,699 572,699 572,699 573,699 573,699 574,698 574,699 575,699 576,699 576,699 577,698 577,698 578,698 578,698 579,698 580,698 580,697 581,697 581,697 582,697 582,697 583,697 584,698 584,698 585,697 585,697 586,697 586,697 587,697 588,697 588,697 589,697 589,697 590,697 590,697 591,697 592,697 592,697 593,697 593,697 594,697 594,697 595,697 596,697 596,697 597,697 597,697 598,697 598,697 599,697 600,697 600,697 601,697 601,697 602,696 602,696 603,696 604,696 604,696 605,696 605,696 606,696 606,696 607,696 608,696 608,696 609,696 609,696 610,696 610,696 611,696 612,696 612,696 613,696 613,696 614,696 614,696 615,696 616,696 616,696 617,696 617,696 618,696 618,696 619,696 620,696 620,696 621,696 621,696 622,696 622,696 623,696 624,696 624,696 625,696 625,696 626,696 627,696 627,696 628,696 628,696 629,696 629,696 630,696 631,696 631,696 632,696 632,696 633,696 633,696 634,696 635,696 635,696 636,696 636,696 637,696 637,696 638,696 639,696 639,696 640,696 640,696 641,696 641,696 642,696 643,696 643,696 644,696 644,696 645,695 645,695 646,695 647,695 647,695 648,695 648,695 649,695 649,695 650,695 651,695 651,695 652,695 652,695 653,695 653,695 654,695 655,695 655,695 656,695 656,695 657,695 657,695 658,695 659,695 659,695 660,695 660,695 661,695 661,695 662,695 663,695 663,695 664,695 664,695 665,695 665,695 666,695 667,695 667,695 668,695 668,695 669,695 669,695 670,695 671,695 671,695 672,695 672,695 673,695 673,695 674,695 675,695 675,695 676,695 676,695 677,695 677,695 678,695 679,695 679,695 680,695 680,695 681,695 681,695 682,695 683,695 683,694 684,694 684,694 685,694 686,694 687,694 687,694 688,694 688,694 689,694 689,694 690,694 691,694 691,694 692,694 692,694 693,694 693,694 694,694 695,694 695,694 696,694 696,694 697,694 697,694 698,694 699,694 699,694 700,694 700,694 701,694 701,694 702,694 703,694 703,694 704,694 704,694 705,694 705,694 706,694 707,694 707,694 708,693 708,693 709,693 709,693 710,693 711,693 711,693 712,693 712,693 713,693 713,693 714,693 715,693 715,693 716,693 716,692 717,692 717,692 718,692 719,692 719,692 720,692 720,692 721,692 721,692 722,692 723,692 723,692 724,692 724,692 725,692 725,692 726,692 727,692 727,692 728,692 728,692 729,692 729,692 730,692 731,692 731,692 732,692 732,692 733,692 733,692 734,692 735,692 735,692 736,692 736,692 737,692 737,692 738,692 739,692 739,692 740,692 740,692 741,692 741,692 742,692 743,692 743,692 744,692 744,692 745,692 745,692 746,692 747,692 747,692 748,692 748,692 749,692 749,692 750,691 751,691 751,691 752,691 752,691 753,691 753,691 754,691 755,691 755,691 756,691 756,691 757,691 757,691 758,691 759,691 759,691 760,691 760,691 761,691 761,691 762,691 763,691 763,691 764,691 764,691 765,691 765,691 766,691 767,691 767,691 768,691 768,691 769,691 769,691 770,691 771,691 771,691 772,691 772,691 773,691 773,691 774,691 775,691 775,691 776,691 776,691 777,691 777,691 778,691 779,691 779,691 780,691 780,691 781,691 781,691 782,691 783,691 783,691 784,691 784,691 785,691 785,691 786,691 787,691 787,691 788,691 788,691 789,690 789,690 790,691 791,691 791,691 792,691 792,691 793,690 793,690 794,690 795,690 795,690 796,690 796,690 797,690 797,690 798,690 799,690 799,690 800,690 800,690 801,690 801,690 802,690 803,690 803,690 804,690 804,690 805,690 805,690 806,690 807,690 807,690 808,690 808,690 809,690 809,690 810,690 811,690 811,690 812,690 812,690 813,690 813,690 814,690 815,690 815,690 816,690 816,689 817,689 817,689 818,689 819,689 819,689 820,689 820,689 821,689 821,689 822,689 823,689 823,689 824,689 824,689 825,689 825,689 826,689 827,689 827,689 828,689 828,689 829,689 829,689 830,689 831,689 831,689 832,689 832,689 833,689 833,689 834,689 835,689 835,689 836,689 836,689 837,689 837,688 838,688 839,688 839,688 840,688 840,688 841,688 841,688 842,688 843,688 843,688 844,688 844,688 845,688 845,688 846,688 847,688 847,688 848,688 848,688 849,688 849,688 850,688 851,688 851,688 852,688 852,688 853,688 853,688 854,688 855,688 855,688 856,688 856,688 857,688 857,688 858,688 859,688 859,688 860,688 860,688 861,688 861,688 862,688 863,687 863,687 863,687 864,687 864,687 865,687 865,687 866,687 867,687 867,687 868,687 868,687 869,687 869,687 870,687 871,687 871,687 872,687 872,687 873,687 873,687 874,687 875,687 875,687 876,687 876,687 877,687 877,687 878,686 879,686 879,686 880,686 880,686 881,686 881,686 882,686 883,686 883,686 884,686 884,686 885,686 885,686 886,686 887,686 887,686 888,686 888,686 889,685 889,685 890,685 891,685 891,685 892,685 892,685 893,685 893,685 894,685 895,685 895,685 896,685 896,685 897,685 897,685 898,685 899,685 899,685 900,685 900,685 901,685 901,685 902,685 903,685 903,685 904,685 904,684 905,684 905,684 906,684 907,684 907,684 908,684 908,684 909,684 909,684 910,684 911,684 911,684 912,684 912,684 913,684 913,684 914,684 915,684 915,683 916,683 916,683 917,683 917,683 918,683 919,683 919,683 920,684 920,684 921,684 921,684 922,684 923,683 923,683 924,683 924,683 925,683 925,683 926,683 927,683 927,683 928,683 928,683 929,683 929,683 930,683 931,683 931,683 932,683 932,683 933,683 933,683 934,683 935,683 935,683 936,683 936,683 937,683 937,683 938,683 939,683 939,683 940,683 940,683 941,683 941,683 942,683 943,683 943,683 944,683 944,683 945,683 945,683 946,683 947,683 947,683 948,683 948,683 949,683 949,683 950,683 951,683 951,683 952,683 952,682 953,682 953,682 954,682 955,682 955,682 956,682 956,682 957,682 957,682 958,682 959,682 959,682 960,682 960,682 961,682 961,682 962,682 963,682 963,682 964,682 964,682 965,682 965,682 966,682 967,682 967,682 968,682 968,682 969,682 969,682 970,682 971,682 971,682 972,682 972,682 973,682 973,682 974,682 975,682 975,682 976,682 976,682 977,682 977,682 978,682 979,682 979,682 980,682 980,682 981,682 981,682 982,682 983,682 983,682 984,682 984,682 985,682 985,682 986,682 987,682 987,682 988,682 988,682 989,682 989,682 990,682 991,682 991,682 992,682 992,682 993,682 993,682 994,682 995,682 995,682 996,682 996,682 997,682 997,682 998,682 999,682 999,682 1000,682 1000,682 1001,682 1001,682 1002,682 1003,682 1003,681 1004,681 1004,681 1005,681 1005,681 1006,681 1007,682 1007,682 1008,682 1008,682 1009,682 1009,681 1010,681 1011,681 1011,681 1012,681 1012,681 1013,681 1013,682 1014,682 1015,682 1015,682 1016,682 1016,682 1017,682 1017,682 1018,682 1019,682 1019,681 1020,681 1020,681 1021,681 1021,681 1022,681 1023,681 1023,681 1024,681 1024,681 1025,681 1025,681 1026,681 1027,681 1027,681 1028,681 1028,681 1029,681 1029,681 1030,681 1031,681 1031,681 1032,681 1032,681 1033,682 1033,682 1034,682 1035,682 1035,682 1036,682 1036,682 1037,682 1037,682 1038,682 1039,682 1039,682 1040,682 1040,682 1041,682 1041,682 1042,682 1043,682 1043,682 1044,682 1044,682 1045,682 1045,682 1046,682 1047,682 1047,682 1048,682 1048,682 1049,682 1049,682 1050,682 1051,682 1051,681 1052,681 1052,681 1053,681 1053,681 1054,681 1055,681 1055,681 1056,681 1056,681 1057,681 1057,681 1058,681 1059,681 1059,681 1060,681 1060,681 1061,681 1061,681 1062,681 1063,681 1063,681 1064,681 1064,681 1065,681 1065,681 1066,681 1067,681 1067,681 1068,681 1068,681 1069,681 1069,681 1070,681 1071,681 1071,681 1072,681 1072,681 1073,681 1073,681 1074,681 1075,681 1075,681 1076,681 1076,681 1077,681 1077,681 1078,681 1079,681 1079,681 1080,681 1080,681 1081,681 1081,681 1082,681 1083,681 1083,681 1084,681 1084,681 1084,681 1085,681 1085,681 1086,681 1087,681 1087,681 1088,681 1088,681 1089,681 1089,681 1090,681 1091,681 1091,681 1092,681 1092,681 1093,681 1093,681 1094,681 1095,681 1095,681 1096,681 1096,681 1097,681 1097,681 1098,681 1099,681 1099,681 1100,681 1100,681 1101,681 1101,681 1102,681 1103,681 1103,681 1104,681 1104,681 1105,681 1105,681 1106,681 1107,681 1107,681 1108,681 1108,681 1109,681 1109,681 1110,681 1111,681 1111,681 1112,681 1112,681 1113,681 1113,681 1114,681 1115,681 1115,681 1116,681 1116,681 1117,681 1117,681 1118,681 1119,681 1119,681 1120,681 1120,681 1121,681 1121,681 1122,681 1123,681 1123,681 1124,681 1124,681 1125,681 1125,681 1126,681 1127,681 1127,681 1128,681 1128,681 1129,681 1129,681 1130,681 1131,681 1131,681 1132,681 1132,681 1133,681 1133,681 1134,681 1135,681 1135,681 1136,681 1136,681 1137,681 1137,681 1138,681 1139,681 1139,681 1140,681 1140,681 1141,681 1141,681 1142,681 1143,681 1143,681 1144,681 1144,681 1145,681 1145,681 1146,681 1147,681 1147,681 1148,681 1148,681 1149,681 1149,681 1150,681 1151,681 1151,681 1152,680 1152,681 1153,681 1153,681 1154,681 1155,681 1155,681 1156,681 1156,681 1157,681 1157,681 1158,681 1159,681 1159,681 1160,681 1160,681 1161,681 1161,681 1162,681 1163,681 1163,681 1164,681 1164,681 1164,681 1165,681 1165,681 1165,681 1166,681 1166,681 1167,681 1167,681 1167,681 1168,681 1168,681 1168,681 1168,681 1169,681 1169,681 1169,681 1169,681 1170,681 1170,681 1171,681 1171,681 1171,681 1171,681 1172,681 1172,681 1172,681 1172,681 1173,681 1173,681 1173,681 1174,681 1174,681 1175,681 1175,681 1175,681 1176,681 1176,681 1176,681 1176,681 1177,681 1177,681 1177,681 1177,681 1178,681 1178,681 1179,681 1179,681 1179,681 1180,681 1180,681 1180,681 1180,681 1181,681 1181,681 1181,681 1181,681 1182,681 1182,681 1183,681 1183,681 1183,681 1183,681 1184,681 1184,681 1184,681 1185,681 1185,681 1185,681 1185,681 1186,681 1186,681 1187,681 1187,681 1187,681 1187,681 1188,681 1188,681 1188,681 1188,681 1189,681 1189,681 1190,681 "/>
<polyline fill="none" opacity="1" stroke="#196BE6" stroke-width="2" points="88,738 96,738 100,738 109,738 110,738 116,737 121,737 128,737 129,737 130,737 135,737 138,737 142,737 147,736 149,736 156,736 156,736 157,736 160,736 162,735 164,735 165,735 165,735 166,734 168,734 172,734 173,734 176,734 177,733 178,733 178,733 181,733 183,733 184,733 184,733 186,733 189,733 192,732 197,732 199,732 206,732 208,732 209,732 210,732 212,732 212,732 213,731 214,732 220,732 222,731 223,731 224,731 228,731 229,731 229,731 231,731 232,731 233,731 234,731 234,731 235,731 236,731 240,731 241,731 244,731 246,731 248,731 248,731 250,731 250,731 251,731 252,731 253,731 254,730 255,730 256,730 257,730 258,730 261,730 261,730 262,730 264,730 265,730 265,730 266,730 266,730 269,730 269,730 270,730 271,730 272,730 273,730 274,730 274,730 276,730 277,730 277,730 279,730 281,730 282,729 283,729 286,729 286,729 288,729 288,729 289,729 289,729 290,729 290,729 292,729 293,728 295,728 297,728 298,728 298,728 301,728 302,728 302,728 305,728 307,728 308,727 309,727 309,727 310,727 310,727 312,727 313,727 313,727 314,727 315,726 316,726 316,726 317,726 317,726 318,726 318,726 319,726 320,726 320,726 321,726 321,726 322,726 322,726 323,726 324,725 324,725 325,725 326,725 326,725 327,725 328,725 328,725 329,725 329,725 330,725 330,725 331,725 332,725 332,725 333,725 333,725 334,725 335,725 336,725 336,725 337,725 337,725 338,725 339,725 340,725 340,725 341,724 341,724 342,724 342,724 343,724 344,724 344,724 345,724 345,724 346,724 346,724 347,723 348,723 348,723 349,723 349,723 350,723 350,723 351,723 352,723 352,723 353,723 353,723 354,723 354,723 355,723 356,723 356,723 357,723 357,723 358,722 358,722 359,722 360,722 360,722 361,722 361,722 362,722 362,722 363,722 364,722 364,722 365,722 365,722 366,722 366,722 367,722 368,722 368,722 369,722 369,722 370,722 370,722 371,722 372,722 372,722 373,722 373,722 374,722 374,722 375,722 376,722 376,722 377,722 377,722 378,722 378,722 379,722 380,722 380,722 381,722 381,722 382,722 382,722 383,722 384,722 384,722 385,722 385,722 386,722 386,722 387,722 388,722 388,722 389,722 389,722 390,722 390,722 391,722 392,722 392,722 393,721 393,721 394,721 394,721 395,721 396,721 396,721 397,721 397,721 398,721 398,721 399,721 400,721 400,721 401,721 401,721 402,721 402,721 403,721 404,721 404,721 405,721 405,721 406,721 406,721 407,721 408,721 408,721 409,721 409,721 410,721 410,720 411,720 412,720 412,720 413,720 413,720 414,720 414,720 415,720 416,720 416,720 417,720 417,720 418,720 418,720 419,720 420,720 420,720 421,720 421,720 422,720 422,720 423,720 424,720 424,720 425,720 425,720 426,720 426,720 427,720 428,720 428,720 429,719 429,719 430,719 430,719 431,719 432,719 432,719 433,719 433,719 434,719 434,719 435,719 436,719 436,719 437,719 437,719 438,719 438,719 439,719 440,719 440,719 441,719 441,719 442,718 442,718 443,718 444,718 444,718 445,718 445,718 446,718 447,718 448,718 448,718 449,718 449,718 450,718 450,718 451,718 452,718 452,718 453,718 453,718 454,718 454,718 455,718 456,718 456,718 457,718 457,718 458,718 458,718 459,718 460,718 460,718 461,718 461,718 462,718 462,718 463,718 464,718 465,718 465,718 466,718 466,717 467,717 468,717 468,717 469,717 469,717 470,717 470,717 471,717 472,717 472,717 473,717 473,717 474,717 474,717 475,717 476,717 476,717 477,717 477,717 478,717 478,717 479,717 480,717 480,717 481,717 481,717 482,717 482,717 483,717 484,717 484,717 485,717 485,717 486,717 487,717 488,717 488,717 489,717 489,717 490,717 490,717 491,717 492,717 492,717 493,717 493,717 494,717 494,717 495,717 496,717 496,717 497,716 497,716 498,716 498,716 499,716 500,716 500,716 501,716 501,716 502,716 502,715 503,716 504,716 504,715 505,715 505,715 506,715 506,715 507,715 508,715 508,715 509,715 509,715 510,715 510,715 511,715 512,714 512,715 513,714 513,714 514,714 514,714 515,714 516,714 516,714 517,714 517,714 518,714 518,714 519,713 520,713 520,713 521,713 521,713 522,713 522,713 523,713 524,713 524,713 525,713 526,713 526,713 527,713 528,713 528,713 529,713 529,713 530,713 530,713 531,713 532,713 532,713 533,713 533,713 534,713 534,713 535,713 536,713 536,713 537,713 537,713 538,713 538,713 539,713 540,713 540,713 541,713 541,713 542,713 542,713 543,713 544,713 544,713 545,713 545,713 546,713 546,713 547,713 548,713 548,713 549,713 549,713 550,713 550,713 551,713 552,712 552,712 553,712 553,712 554,712 554,712 555,712 556,712 556,712 557,712 557,712 558,711 558,711 559,711 560,711 560,711 561,711 561,711 562,711 562,711 563,711 564,711 564,711 565,711 565,711 566,710 566,710 567,710 568,710 568,710 569,710 569,710 570,710 570,710 571,710 572,710 572,710 573,710 573,710 574,710 574,710 575,709 576,709 576,709 577,709 577,709 578,709 578,709 579,709 580,709 580,709 581,709 581,709 582,709 582,709 583,709 584,709 584,709 585,709 585,709 586,709 586,709 587,709 588,709 588,709 589,709 589,709 590,709 590,709 591,709 592,709 592,709 593,709 593,709 594,709 594,709 595,708 596,708 596,708 597,708 597,708 598,708 598,708 599,708 600,708 600,708 601,708 601,708 602,708 602,708 603,708 604,708 604,708 605,708 605,708 606,708 606,708 607,708 608,708 608,708 609,708 609,708 610,708 610,708 611,708 612,708 612,708 613,708 613,708 614,707 614,707 615,707 616,707 616,707 617,707 617,707 618,707 618,707 619,707 620,707 620,707 621,707 621,707 622,707 622,707 623,707 624,707 624,707 625,706 625,706 626,706 627,706 627,706 628,706 628,706 629,706 629,706 630,706 631,706 631,706 632,706 632,706 633,706 633,706 634,706 635,706 635,706 636,706 636,705 637,705 637,705 638,705 639,705 639,705 640,705 640,705 641,705 641,705 642,705 643,705 643,705 644,705 644,705 645,705 645,705 646,705 647,705 647,705 648,705 648,705 649,705 649,705 650,705 651,705 651,705 652,705 652,705 653,705 653,705 654,705 655,705 655,704 656,704 656,704 657,704 657,704 658,704 659,704 659,704 660,704 660,704 661,704 661,704 662,704 663,704 663,704 664,704 664,704 665,704 665,704 666,704 667,704 667,704 668,704 668,704 669,704 669,704 670,704 671,704 671,704 672,704 672,704 673,704 673,704 674,704 675,704 675,704 676,704 676,704 677,704 677,704 678,704 679,704 679,704 680,704 680,704 681,704 681,704 682,704 683,704 683,704 684,704 684,704 685,704 685,704 686,703 687,703 687,703 688,703 688,703 689,703 689,703 690,703 691,703 691,703 692,703 692,703 693,703 693,703 694,703 695,703 695,703 696,703 696,703 697,703 697,703 698,703 699,703 699,703 700,703 700,703 701,703 701,703 702,702 703,702 703,702 704,703 704,703 705,703 705,703 706,703 707,703 707,703 708,703 708,703 709,702 709,702 710,702 711,702 711,702 712,702 712,702 713,702 713,702 714,702 715,702 715,702 716,702 716,702 717,701 717,701 718,701 719,701 719,701 720,701 720,701 721,701 721,701 722,701 723,701 723,701 724,701 724,701 725,700 725,700 726,700 727,700 727,700 728,700 728,700 729,700 729,700 730,700 731,700 731,700 732,700 732,700 733,700 733,700 734,700 735,700 735,700 736,700 736,700 737,700 737,700 738,700 739,700 739,699 740,699 740,699 741,699 741,699 742,699 743,699 743,699 744,699 744,699 745,699 745,699 746,699 747,699 747,699 748,699 748,699 749,699 749,699 750,699 751,699 751,699 752,699 752,699 753,699 753,699 754,699 755,699 755,699 756,699 756,699 757,699 757,699 758,699 759,699 759,699 760,699 760,699 761,699 761,699 762,699 763,699 763,699 764,699 764,699 765,699 765,699 766,699 767,699 767,699 768,699 768,699 769,699 769,699 770,698 771,698 771,698 772,698 772,698 773,698 773,698 774,698 775,698 775,698 776,698 776,697 777,697 777,697 778,697 779,697 779,697 780,697 780,697 781,697 781,697 782,697 783,697 783,697 784,697 784,697 785,697 785,697 786,697 787,697 787,697 788,697 788,697 789,697 789,697 790,697 791,697 791,697 792,697 792,697 793,697 793,697 794,697 795,697 795,697 796,697 796,697 797,697 797,697 798,697 799,697 799,697 800,697 800,697 801,697 801,697 802,697 803,697 803,697 804,697 804,697 805,697 805,697 806,697 807,697 807,697 808,697 808,697 809,697 809,697 810,697 811,697 811,697 812,697 812,697 813,697 813,697 814,697 815,697 815,697 816,697 816,697 817,697 817,697 818,697 819,697 819,697 820,697 820,697 821,697 821,697 822,697 823,697 823,696 824,696 824,696 825,696 825,696 826,696 827,697 827,697 828,697 828,697 829,697 829,696 830,696 831,696 831,696 832,696 832,696 833,696 833,696 834,696 835,696 835,696 836,696 836,696 837,696 837,696 838,696 839,696 839,696 840,696 840,696 841,696 841,696 842,696 843,696 843,696 844,696 844,696 845,696 845,696 846,696 847,696 847,696 848,696 848,696 849,696 849,695 850,695 851,695 851,695 852,695 852,695 853,695 853,695 854,695 855,695 855,695 856,695 856,695 857,695 857,695 858,695 859,695 859,695 860,695 860,694 861,694 861,694 862,694 863,694 863,694 863,694 864,694 864,694 865,694 865,694 866,694 867,694 867,694 868,694 868,694 869,694 869,694 870,694 871,694 871,694 872,694 872,694 873,694 873,694 874,694 875,694 875,694 876,694 876,694 877,694 877,694 878,694 879,694 879,694 880,694 880,694 881,694 881,694 882,694 883,693 883,693 884,693 884,693 885,693 885,693 886,693 887,693 887,693 888,693 888,693 889,693 889,693 890,693 891,693 891,693 892,693 892,693 893,693 893,693 894,693 895,693 895,693 896,693 896,693 897,693 897,693 898,693 899,692 899,692 900,692 900,692 901,692 901,692 902,692 903,692 903,692 904,692 904,692 905,692 905,692 906,692 907,692 907,692 908,691 908,691 909,691 909,691 910,691 911,691 911,691 912,691 912,691 913,691 913,691 914,691 915,691 915,691 916,691 916,691 917,691 917,691 918,691 919,691 919,691 920,691 920,691 921,691 921,691 922,691 923,691 923,691 924,691 924,691 925,691 925,691 926,691 927,691 927,691 928,691 928,691 929,691 929,691 930,691 931,691 931,691 932,691 932,691 933,691 933,691 934,691 935,691 935,691 936,691 936,691 937,691 937,691 938,691 939,691 939,691 940,691 940,691 941,691 941,691 942,691 943,690 943,690 944,690 944,690 945,690 945,690 946,690 947,690 947,690 948,690 948,690 949,690 949,690 950,690 951,690 951,690 952,690 952,690 953,690 953,690 954,689 955,689 955,689 956,689 956,689 957,689 957,689 958,689 959,689 959,689 960,689 960,689 961,689 961,689 962,689 963,689 963,689 964,689 964,689 965,689 965,689 966,689 967,689 967,689 968,689 968,689 969,688 969,688 970,688 971,688 971,688 972,688 972,688 973,688 973,688 974,688 975,688 975,688 976,688 976,688 977,688 977,688 978,688 979,688 979,688 980,688 980,688 981,688 981,688 982,688 983,688 983,688 984,688 984,688 985,688 985,688 986,688 987,688 987,687 988,687 988,687 989,687 989,687 990,687 991,687 991,687 992,687 992,687 993,687 993,687 994,686 995,686 995,686 996,686 996,686 997,686 997,686 998,686 999,686 999,686 1000,686 1000,686 1001,686 1001,686 1002,686 1003,686 1003,686 1004,686 1004,686 1005,686 1005,686 1006,686 1007,686 1007,686 1008,686 1008,686 1009,686 1009,686 1010,686 1011,686 1011,686 1012,686 1012,686 1013,686 1013,686 1014,686 1015,686 1015,686 1016,686 1016,686 1017,686 1017,686 1018,686 1019,686 1019,686 1020,686 1020,686 1021,686 1021,686 1022,686 1023,686 1023,686 1024,686 1024,686 1025,686 1025,686 1026,686 1027,686 1027,686 1028,686 1028,686 1029,686 1029,686 1030,686 1031,686 1031,686 1032,686 1032,686 1033,686 1033,686 1034,686 1035,686 1035,686 1036,686 1036,686 1037,685 1037,685 1038,685 1039,685 1039,685 1040,685 1040,685 1041,685 1041,685 1042,685 1043,685 1043,685 1044,685 1044,685 1045,685 1045,685 1046,685 1047,685 1047,685 1048,685 1048,685 1049,685 1049,685 1050,685 1051,685 1051,685 1052,684 1052,684 1053,684 1053,684 1054,684 1055,684 1055,684 1056,684 1056,684 1057,684 1057,684 1058,684 1059,684 1059,684 1060,684 1060,684 1061,684 1061,684 1062,684 1063,684 1063,684 1064,684 1064,684 1065,683 1065,683 1066,683 1067,683 1067,683 1068,683 1068,683 1069,683 1069,683 1070,683 1071,683 1071,683 1072,683 1072,683 1073,682 1073,683 1074,683 1075,683 1075,683 1076,683 1076,683 1077,683 1077,683 1078,683 1079,683 1079,683 1080,683 1080,683 1081,683 1081,683 1082,683 1083,683 1083,682 1084,682 1084,683 1084,683 1085,683 1085,683 1086,683 1087,682 1087,682 1088,682 1088,682 1089,682 1089,682 1090,682 1091,682 1091,682 1092,682 1092,682 1093,682 1093,682 1094,682 1095,682 1095,681 1096,681 1096,681 1097,681 1097,681 1098,681 1099,681 1099,681 1100,681 1100,681 1101,681 1101,681 1102,681 1103,681 1103,681 1104,681 1104,681 1105,681 1105,681 1106,681 1107,681 1107,681 1108,681 1108,681 1109,681 1109,681 1110,680 1111,680 1111,680 1112,680 1112,680 1113,680 1113,680 1114,680 1115,680 1115,680 1116,680 1116,680 1117,680 1117,680 1118,680 1119,680 1119,680 1120,680 1120,680 1121,680 1121,680 1122,680 1123,680 1123,680 1124,680 1124,680 1125,680 1125,680 1126,680 1127,680 1127,680 1128,680 1128,680 1129,680 1129,680 1130,680 1131,680 1131,680 1132,680 1132,680 1133,680 1133,680 1134,680 1135,680 1135,680 1136,680 1136,680 1137,680 1137,680 1138,680 1139,680 1139,680 1140,680 1140,680 1141,680 1141,680 1142,680 1143,680 1143,680 1144,680 1144,680 1145,680 1145,680 1146,680 1147,680 1147,680 1148,680 1148,680 1149,680 1149,680 1150,680 1151,680 1151,680 1152,680 1152,680 1153,680 1153,680 1154,680 1155,680 1155,680 1156,680 1156,680 1157,680 1157,680 1158,680 1159,680 1159,680 1160,680 1160,680 1161,680 1161,680 1162,679 1163,679 1163,679 1164,679 1164,679 1164,679 1165,679 1165,679 1165,679 1166,679 1166,679 1167,679 1167,679 1167,679 1168,679 1168,679 1168,679 1168,679 1169,679 1169,679 1169,679 1169,679 1170,679 1170,679 1171,679 1171,679 1171,679 1171,679 1172,679 1172,679 1172,679 1172,679 1173,679 1173,679 1173,679 1174,679 1174,679 1175,679 1175,679 1175,679 1176,679 1176,679 1176,679 1176,679 1177,679 1177,679 1177,679 1177,679 1178,679 1178,679 1179,679 1179,679 1179,679 1180,679 1180,679 1180,679 1180,679 1181,679 1181,679 1181,679 1181,679 1182,679 1182,679 1183,679 1183,679 1183,679 1183,678 1184,678 1184,678 1184,679 1185,679 1185,679 1185,679 1185,679 1186,679 1186,679 1187,679 1187,678 1187,678 1187,678 1188,678 1188,678 1188,678 1188,678 1189,678 1189,678 1190,678 "/>
<polyline fill="none" opacity="1" stroke="#BD19E6" stroke-width="2" points="538,738 539,738 561,738 580,738 600,738 601,737 609,737 622,737 627,737 631,736 639,736 642,736 644,735 647,735 652,735 669,735 669,735 675,734 682,734 688,734 690,734 691,733 692,733 695,733 696,733 700,732 701,732 705,732 705,732 706,732 707,732 707,732 711,732 711,731 712,731 712,731 715,731 717,731 718,731 719,731 720,730 721,730 723,730 724,730 724,729 725,730 726,729 727,729 727,729 728,729 729,729 730,729 732,728 734,728 735,728 737,728 738,728 740,728 741,727 743,727 746,727 747,727 747,726 750,726 752,726 753,725 754,725 759,725 759,724 760,724 760,724 764,724 764,723 765,723 766,723 767,723 767,722 768,722 768,722 769,722 770,721 771,721 771,721 772,720 772,720 773,720 775,720 776,720 776,719 777,719 778,718 779,718 779,718 780,717 780,717 781,717 781,717 782,717 783,717 783,717 784,717 784,716 785,716 785,716 786,716 787,715 787,715 788,714 789,714 790,714 791,714 792,713 792,713 793,713 793,712 795,712 796,711 796,711 797,711 797,711 798,711 799,710 799,710 800,710 800,710 801,710 801,710 802,710 803,710 803,710 804,710 804,710 805,710 805,710 806,709 807,709 807,709 808,709 808,709 809,709 809,709 810,709 811,709 811,709 812,709 812,709 813,708 814,708 815,708 815,708 816,708 816,707 817,707 817,707 818,707 819,707 819,707 820,706 821,706 821,706 822,706 823,706 823,706 824,706 824,706 825,705 825,705 826,705 827,705 827,705 828,704 828,704 829,704 829,704 830,704 831,704 831,704 832,704 833,704 833,704 834,703 835,703 835,703 836,703 836,703 837,703 837,702 838,702 839,702 839,702 840,702 840,702 841,701 841,701 842,700 843,700 843,700 844,700 844,699 845,699 845,699 846,699 847,699 847,699 848,699 849,699 849,698 850,698 851,698 851,698 852,697 853,697 853,697 854,696 855,696 856,696 856,696 857,696 857,696 858,696 859,696 860,696 860,696 861,696 861,695 862,695 863,695 863,695 863,695 864,694 864,694 865,694 865,694 867,694 867,693 868,693 868,693 869,693 869,692 870,692 871,692 871,691 872,691 872,691 873,691 873,690 874,690 875,690 875,689 876,689 876,689 877,689 877,689 878,689 879,688 879,688 880,687 880,687 881,687 881,687 882,687 883,687 883,686 884,686 884,686 885,686 885,685 886,685 887,685 887,685 888,685 888,684 889,684 889,684 890,684 891,683 891,683 892,683 892,683 893,683 893,683 894,683 895,683 896,683 896,683 897,683 897,682 898,682 899,682 899,682 900,682 900,682 901,682 901,682 902,682 903,682 903,682 904,682 904,682 905,682 905,681 906,681 907,681 907,681 908,680 908,680 909,680 909,679 910,678 911,678 911,678 912,677 912,677 913,676 913,676 914,676 915,676 915,676 916,675 916,675 917,674 917,674 918,674 919,673 919,673 920,673 920,673 921,672 921,671 922,670 923,670 923,670 924,669 924,669 925,669 925,668 926,667 927,667 927,666 928,666 928,666 929,666 929,665 930,665 931,665 931,665 932,664 932,664 933,664 933,664 934,664 935,663 935,663 936,663 936,663 937,663 937,662 938,661 939,661 939,661 940,661 940,661 941,661 941,660 942,660 943,659 943,659 944,659 944,658 945,658 945,658 946,658 947,658 947,657 948,658 948,658 949,657 949,657 950,657 951,657 951,656 952,656 952,656 953,655 953,655 954,655 955,654 955,654 956,653 956,653 957,653 957,652 958,651 959,651 959,651 960,651 960,650 961,650 961,649 962,649 963,648 963,648 964,648 964,648 965,647 965,646 966,646 967,646 967,646 968,646 968,645 969,645 969,645 970,644 971,644 971,644 972,644 972,644 973,644 973,643 974,643 975,642 975,642 976,642 976,642 977,642 977,640 978,640 979,640 979,640 980,640 980,640 981,640 981,640 982,640 983,639 983,639 984,639 984,638 985,637 985,637 986,637 987,637 987,636 988,636 988,636 989,635 989,635 990,634 991,634 991,634 992,633 992,633 993,633 993,633 994,632 995,632 995,632 996,632 996,631 997,631 997,630 998,630 999,630 999,630 1000,630 1000,629 1001,629 1001,629 1002,628 1003,627 1003,628 1004,627 1004,627 1005,627 1005,627 1006,627 1007,626 1007,626 1008,625 1008,624 1009,624 1009,624 1010,624 1011,624 1011,623 1012,623 1012,622 1013,622 1013,622 1014,622 1015,621 1015,621 1016,620 1016,620 1017,619 1017,619 1018,619 1019,619 1019,618 1020,618 1020,618 1021,617 1021,617 1022,617 1023,617 1023,617 1024,616 1024,616 1025,616 1025,616 1026,616 1027,616 1027,616 1028,615 1028,614 1029,613 1029,613 1030,613 1031,613 1031,612 1032,612 1032,612 1033,612 1033,611 1034,611 1035,610 1035,610 1036,610 1036,609 1037,609 1037,609 1038,608 1039,608 1039,607 1040,607 1040,606 1041,606 1041,606 1042,606 1043,605 1043,604 1044,604 1044,604 1045,603 1045,603 1046,602 1047,602 1047,602 1048,601 1048,601 1049,601 1049,600 1050,599 1051,599 1052,599 1052,599 1053,598 1053,598 1054,598 1055,597 1055,597 1056,597 1056,597 1057,596 1057,595 1058,595 1059,594 1059,594 1060,593 1060,593 1061,592 1061,592 1062,592 1063,591 1063,591 1064,590 1064,590 1065,590 1065,590 1066,589 1067,588 1067,588 1068,587 1068,587 1069,586 1069,586 1070,585 1071,585 1071,584 1072,584 1072,583 1073,582 1073,581 1074,581 1075,580 1075,580 1076,579 1076,579 1077,578 1077,578 1078,577 1079,577 1079,577 1080,576 1080,576 1081,576 1081,575 1082,574 1083,574 1083,573 1084,573 1084,573 1084,572 1085,572 1085,571 1086,571 1087,571 1087,570 1088,568 1088,567 1089,566 1089,566 1090,564 1091,564 1091,564 1092,564 1092,564 1093,564 1093,563 1094,563 1095,563 1095,563 1096,562 1096,561 1097,561 1097,560 1098,560 1099,559 1099,559 1100,558 1100,558 1101,557 1101,557 1102,556 1103,556 1103,555 1104,555 1104,555 1105,554 1105,554 1106,553 1107,553 1107,553 1108,553 1108,552 1109,552 1109,551 1110,551 1111,551 1111,550 1112,549 1112,548 1113,548 1113,547 1114,547 1115,547 1115,547 1116,546 1116,545 1117,544 1117,544 1118,543 1119,543 1119,541 1120,541 1120,540 1121,540 1121,540 1122,540 1123,539 1123,539 1124,538 1124,538 1125,537 1125,537 1126,536 1127,536 1127,535 1128,535 1128,535 1129,534 1129,534 1130,534 1131,533 1131,532 1132,532 1132,531 1133,530 1133,530 1134,529 1135,529 1135,528 1136,528 1136,527 1137,527 1137,527 1138,526 1139,526 1139,526 1140,526 1140,526 1141,524 1141,524 1142,523 1143,523 1143,523 1144,523 1144,522 1145,522 1145,521 1146,520 1147,520 1147,519 1148,519 1148,518 1149,517 1149,517 1150,516 1151,516 1151,515 1152,515 1152,515 1153,514 1153,514 1154,514 1155,513 1155,512 1156,511 1156,510 1157,509 1157,509 1158,508 1159,507 1159,507 1160,507 1160,506 1161,505 1161,505 1162,504 1163,503 1163,503 1164,503 1164,503 1164,503 1165,503 1165,502 1165,501 1166,500 1166,500 1167,500 1167,499 1167,499 1168,500 1168,499 1168,499 1168,498 1169,498 1169,498 1169,498 1169,497 1170,497 1170,497 1171,497 1171,497 1171,497 1171,496 1172,496 1172,495 1172,495 1172,495 1173,495 1173,494 1173,493 1174,493 1174,492 1175,492 1175,492 1175,492 1176,492 1176,491 1176,491 1176,491 1177,491 1177,491 1177,491 1177,489 1178,489 1178,489 1179,489 1179,489 1179,488 1180,488 1180,487 1180,487 1180,486 1181,486 1181,485 1181,485 1181,485 1182,485 1182,484 1183,484 1183,484 1183,484 1183,484 1184,484 1184,483 1184,482 1185,482 1185,482 1185,482 1185,481 1186,481 1186,480 1187,480 1187,480 1187,480 1187,479 1188,479 1188,478 1188,478 1188,478 1189,478 1189,477 1190,477 "/>
<rect x="1088" y="329" width="97" height="91" opacity="1" fill="#FFFFFF" stroke="none"/>
<rect x="1088" y="329" width="97" height="91" opacity="1" fill="none" stroke="#000000"/>
<text x="1128" y="339" dy="0.76em" text-anchor="start" font-family="sans-serif" font-size="9.67741935483871" opacity="1" fill="#000000">
argparse
</text>
<text x="1128" y="354" dy="0.76em" text-anchor="start" font-family="sans-serif" font-size="9.67741935483871" opacity="1" fill="#000000">
clap
</text>
<text x="1128" y="369" dy="0.76em" text-anchor="start" font-family="sans-serif" font-size="9.67741935483871" opacity="1" fill="#000000">
docopt
</text>
<text x="1128" y="384" dy="0.76em" text-anchor="start" font-family="sans-serif" font-size="9.67741935483871" opacity="1" fill="#000000">
getopts
</text>
<text x="1128" y="399" dy="0.76em" text-anchor="start" font-family="sans-serif" font-size="9.67741935483871" opacity="1" fill="#000000">
structopt
</text>
<polyline fill="none" opacity="1" stroke="#E61919" stroke-width="2" points="1098,343 1118,343 "/>
<polyline fill="none" opacity="1" stroke="#BDE619" stroke-width="2" points="1098,359 1118,359 "/>
<polyline fill="none" opacity="1" stroke="#19E66B" stroke-width="2" points="1098,374 1118,374 "/>
<polyline fill="none" opacity="1" stroke="#196BE6" stroke-width="2" points="1098,389 1118,389 "/>
<polyline fill="none" opacity="1" stroke="#BD19E6" stroke-width="2" points="1098,404 1118,404 "/>
</svg>
