<svg width="1200" height="800" xmlns="http://www.w3.org/2000/svg">
<rect x="0" y="0" width="1199" height="799" opacity="1" fill="#FFFFFF" stroke="none"/>
<line opacity="0.1" stroke="#000000" stroke-width="1" x1="60" y1="728" x2="1190" y2="728"/>
<line opacity="0.1" stroke="#000000" stroke-width="1" x1="60" y1="716" x2="1190" y2="716"/>
<line opacity="0.1" stroke="#000000" stroke-width="1" x1="60" y1="705" x2="1190" y2="705"/>
<line opacity="0.1" stroke="#000000" stroke-width="1" x1="60" y1="694" x2="1190" y2="694"/>
<line opacity="0.1" stroke="#000000" stroke-width="1" x1="60" y1="683" x2="1190" y2="683"/>
<line opacity="0.1" stroke="#000000" stroke-width="1" x1="60" y1="672" x2="1190" y2="672"/>
<line opacity="0.1" stroke="#000000" stroke-width="1" x1="60" y1="661" x2="1190" y2="661"/>
<line opacity="0.1" stroke="#000000" stroke-width="1" x1="60" y1="649" x2="1190" y2="649"/>
<line opacity="0.1" stroke="#000000" stroke-width="1" x1="60" y1="638" x2="1190" y2="638"/>
<line opacity="0.1" stroke="#000000" stroke-width="1" x1="60" y1="627" x2="1190" y2="627"/>
<line opacity="0.1" stroke="#000000" stroke-width="1" x1="60" y1="616" x2="1190" y2="616"/>
<line opacity="0.1" stroke="#000000" stroke-width="1" x1="60" y1="605" x2="1190" y2="605"/>
<line opacity="0.1" stroke="#000000" stroke-width="1" x1="60" y1="593" x2="1190" y2="593"/>
<line opacity="0.1" stroke="#000000" stroke-width="1" x1="60" y1="582" x2="1190" y2="582"/>
<line opacity="0.1" stroke="#000000" stroke-width="1" x1="60" y1="571" x2="1190" y2="571"/>
<line opacity="0.1" stroke="#000000" stroke-width="1" x1="60" y1="560" x2="1190" y2="560"/>
<line opacity="0.1" stroke="#000000" stroke-width="1" x1="60" y1="549" x2="1190" y2="549"/>
<line opacity="0.1" stroke="#000000" stroke-width="1" x1="60" y1="538" x2="1190" y2="538"/>
<line opacity="0.1" stroke="#000000" stroke-width="1" x1="60" y1="526" x2="1190" y2="526"/>
<line opacity="0.1" stroke="#000000" stroke-width="1" x1="60" y1="515" x2="1190" y2="515"/>
<line opacity="0.1" stroke="#000000" stroke-width="1" x1="60" y1="504" x2="1190" y2="504"/>
<line opacity="0.1" stroke="#000000" stroke-width="1" x1="60" y1="493" x2="1190" y2="493"/>
<line opacity="0.1" stroke="#000000" stroke-width="1" x1="60" y1="482" x2="1190" y2="482"/>
<line opacity="0.1" stroke="#000000" stroke-width="1" x1="60" y1="471" x2="1190" y2="471"/>
<line opacity="0.1" stroke="#000000" stroke-width="1" x1="60" y1="459" x2="1190" y2="459"/>
<line opacity="0.1" stroke="#000000" stroke-width="1" x1="60" y1="448" x2="1190" y2="448"/>
<line opacity="0.1" stroke="#000000" stroke-width="1" x1="60" y1="437" x2="1190" y2="437"/>
<line opacity="0.1" stroke="#000000" stroke-width="1" x1="60" y1="426" x2="1190" y2="426"/>
<line opacity="0.1" stroke="#000000" stroke-width="1" x1="60" y1="415" x2="1190" y2="415"/>
<line opacity="0.1" stroke="#000000" stroke-width="1" x1="60" y1="404" x2="1190" y2="404"/>
<line opacity="0.1" stroke="#000000" stroke-width="1" x1="60" y1="392" x2="1190" y2="392"/>
<line opacity="0.1" stroke="#000000" stroke-width="1" x1="60" y1="381" x2="1190" y2="381"/>
<line opacity="0.1" stroke="#000000" stroke-width="1" x1="60" y1="370" x2="1190" y2="370"/>
<line opacity="0.1" stroke="#000000" stroke-width="1" x1="60" y1="359" x2="1190" y2="359"/>
<line opacity="0.1" stroke="#000000" stroke-width="1" x1="60" y1="348" x2="1190" y2="348"/>
<line opacity="0.1" stroke="#000000" stroke-width="1" x1="60" y1="337" x2="1190" y2="337"/>
<line opacity="0.1" stroke="#000000" stroke-width="1" x1="60" y1="325" x2="1190" y2="325"/>
<line opacity="0.1" stroke="#000000" stroke-width="1" x1="60" y1="314" x2="1190" y2="314"/>
<line opacity="0.1" stroke="#000000" stroke-width="1" x1="60" y1="303" x2="1190" y2="303"/>
<line opacity="0.1" stroke="#000000" stroke-width="1" x1="60" y1="292" x2="1190" y2="292"/>
<line opacity="0.1" stroke="#000000" stroke-width="1" x1="60" y1="281" x2="1190" y2="281"/>
<line opacity="0.1" stroke="#000000" stroke-width="1" x1="60" y1="269" x2="1190" y2="269"/>
<line opacity="0.1" stroke="#000000" stroke-width="1" x1="60" y1="258" x2="1190" y2="258"/>
<line opacity="0.1" stroke="#000000" stroke-width="1" x1="60" y1="247" x2="1190" y2="247"/>
<line opacity="0.1" stroke="#000000" stroke-width="1" x1="60" y1="236" x2="1190" y2="236"/>
<line opacity="0.1" stroke="#000000" stroke-width="1" x1="60" y1="225" x2="1190" y2="225"/>
<line opacity="0.1" stroke="#000000" stroke-width="1" x1="60" y1="214" x2="1190" y2="214"/>
<line opacity="0.1" stroke="#000000" stroke-width="1" x1="60" y1="202" x2="1190" y2="202"/>
<line opacity="0.1" stroke="#000000" stroke-width="1" x1="60" y1="191" x2="1190" y2="191"/>
<line opacity="0.1" stroke="#000000" stroke-width="1" x1="60" y1="180" x2="1190" y2="180"/>
<line opacity="0.1" stroke="#000000" stroke-width="1" x1="60" y1="169" x2="1190" y2="169"/>
<line opacity="0.1" stroke="#000000" stroke-width="1" x1="60" y1="158" x2="1190" y2="158"/>
<line opacity="0.1" stroke="#000000" stroke-width="1" x1="60" y1="147" x2="1190" y2="147"/>
<line opacity="0.1" stroke="#000000" stroke-width="1" x1="60" y1="135" x2="1190" y2="135"/>
<line opacity="0.1" stroke="#000000" stroke-width="1" x1="60" y1="124" x2="1190" y2="124"/>
<line opacity="0.1" stroke="#000000" stroke-width="1" x1="60" y1="113" x2="1190" y2="113"/>
<line opacity="0.1" stroke="#000000" stroke-width="1" x1="60" y1="102" x2="1190" y2="102"/>
<line opacity="0.1" stroke="#000000" stroke-width="1" x1="60" y1="91" x2="1190" y2="91"/>
<line opacity="0.1" stroke="#000000" stroke-width="1" x1="60" y1="80" x2="1190" y2="80"/>
<line opacity="0.1" stroke="#000000" stroke-width="1" x1="60" y1="68" x2="1190" y2="68"/>
<line opacity="0.1" stroke="#000000" stroke-width="1" x1="60" y1="57" x2="1190" y2="57"/>
<line opacity="0.1" stroke="#000000" stroke-width="1" x1="60" y1="46" x2="1190" y2="46"/>
<line opacity="0.1" stroke="#000000" stroke-width="1" x1="60" y1="35" x2="1190" y2="35"/>
<line opacity="0.1" stroke="#000000" stroke-width="1" x1="60" y1="24" x2="1190" y2="24"/>
<line opacity="0.1" stroke="#000000" stroke-width="1" x1="60" y1="13" x2="1190" y2="13"/>
<text x="10" y="375" dy="0.76em" text-anchor="middle" font-family="sans-serif" font-size="9.67741935483871" opacity="1" fill="#000000" transform="rotate(270, 10, 375)">
Number of dependent crates
</text>
<line opacity="0.2" stroke="#000000" stroke-width="1" x1="60" y1="627" x2="1190" y2="627"/>
<line opacity="0.2" stroke="#000000" stroke-width="1" x1="60" y1="515" x2="1190" y2="515"/>
<line opacity="0.2" stroke="#000000" stroke-width="1" x1="60" y1="404" x2="1190" y2="404"/>
<line opacity="0.2" stroke="#000000" stroke-width="1" x1="60" y1="292" x2="1190" y2="292"/>
<line opacity="0.2" stroke="#000000" stroke-width="1" x1="60" y1="180" x2="1190" y2="180"/>
<line opacity="0.2" stroke="#000000" stroke-width="1" x1="60" y1="68" x2="1190" y2="68"/>
<polyline fill="none" opacity="1" stroke="#000000" stroke-width="1" points="59,10 59,740 "/>
<text x="50" y="627" dy="0.5ex" text-anchor="end" font-family="sans-serif" font-size="9.67741935483871" opacity="1" fill="#000000">
500
</text>
<polyline fill="none" opacity="1" stroke="#000000" stroke-width="1" points="54,627 59,627 "/>
<text x="50" y="515" dy="0.5ex" text-anchor="end" font-family="sans-serif" font-size="9.67741935483871" opacity="1" fill="#000000">
1000
</text>
<polyline fill="none" opacity="1" stroke="#000000" stroke-width="1" points="54,515 59,515 "/>
<text x="50" y="404" dy="0.5ex" text-anchor="end" font-family="sans-serif" font-size="9.67741935483871" opacity="1" fill="#000000">
1500
</text>
<polyline fill="none" opacity="1" stroke="#000000" stroke-width="1" points="54,404 59,404 "/>
<text x="50" y="292" dy="0.5ex" text-anchor="end" font-family="sans-serif" font-size="9.67741935483871" opacity="1" fill="#000000">
2000
</text>
<polyline fill="none" opacity="1" stroke="#000000" stroke-width="1" points="54,292 59,292 "/>
<text x="50" y="180" dy="0.5ex" text-anchor="end" font-family="sans-serif" font-size="9.67741935483871" opacity="1" fill="#000000">
2500
</text>
<polyline fill="none" opacity="1" stroke="#000000" stroke-width="1" points="54,180 59,180 "/>
<text x="50" y="68" dy="0.5ex" text-anchor="end" font-family="sans-serif" font-size="9.67741935483871" opacity="1" fill="#000000">
3000
</text>
<polyline fill="none" opacity="1" stroke="#000000" stroke-width="1" points="54,68 59,68 "/>
<polyline fill="none" opacity="1" stroke="#000000" stroke-width="1" points="60,740 1190,740 "/>
<text x="60" y="750" dy="0.76em" text-anchor="middle" font-family="sans-serif" font-size="9.67741935483871" opacity="1" fill="#000000">
2014-11-20Z
</text>
<polyline fill="none" opacity="1" stroke="#000000" stroke-width="1" points="60,740 60,745 "/>
<text x="173" y="750" dy="0.76em" text-anchor="middle" font-family="sans-serif" font-size="9.67741935483871" opacity="1" fill="#000000">
2015-06-04Z
</text>
<polyline fill="none" opacity="1" stroke="#000000" stroke-width="1" points="173,740 173,745 "/>
<text x="287" y="750" dy="0.76em" text-anchor="middle" font-family="sans-serif" font-size="9.67741935483871" opacity="1" fill="#000000">
2015-12-17Z
</text>
<polyline fill="none" opacity="1" stroke="#000000" stroke-width="1" points="287,740 287,745 "/>
<text x="401" y="750" dy="0.76em" text-anchor="middle" font-family="sans-serif" font-size="9.67741935483871" opacity="1" fill="#000000">
2016-06-30Z
</text>
<polyline fill="none" opacity="1" stroke="#000000" stroke-width="1" points="401,740 401,745 "/>
<text x="514" y="750" dy="0.76em" text-anchor="middle" font-family="sans-serif" font-size="9.67741935483871" opacity="1" fill="#000000">
2017-01-12Z
</text>
<polyline fill="none" opacity="1" stroke="#000000" stroke-width="1" points="514,740 514,745 "/>
<text x="628" y="750" dy="0.76em" text-anchor="middle" font-family="sans-serif" font-size="9.67741935483871" opacity="1" fill="#000000">
2017-07-27Z
</text>
<polyline fill="none" opacity="1" stroke="#000000" stroke-width="1" points="628,740 628,745 "/>
<text x="742" y="750" dy="0.76em" text-anchor="middle" font-family="sans-serif" font-size="9.67741935483871" opacity="1" fill="#000000">
2018-02-08Z
</text>
<polyline fill="none" opacity="1" stroke="#000000" stroke-width="1" points="742,740 742,745 "/>
<text x="855" y="750" dy="0.76em" text-anchor="middle" font-family="sans-serif" font-size="9.67741935483871" opacity="1" fill="#000000">
2018-08-23Z
</text>
<polyline fill="none" opacity="1" stroke="#000000" stroke-width="1" points="855,740 855,745 "/>
<text x="969" y="750" dy="0.76em" text-anchor="middle" font-family="sans-serif" font-size="9.67741935483871" opacity="1" fill="#000000">
2019-03-07Z
</text>
<polyline fill="none" opacity="1" stroke="#000000" stroke-width="1" points="969,740 969,745 "/>
<text x="1083" y="750" dy="0.76em" text-anchor="middle" font-family="sans-serif" font-size="9.67741935483871" opacity="1" fill="#000000">
2019-09-19Z
</text>
<polyline fill="none" opacity="1" stroke="#000000" stroke-width="1" points="1083,740 1083,745 "/>
<polyline fill="none" opacity="1" stroke="#E61919" stroke-width="2" points="177,738 183,738 184,738 224,738 254,737 287,737 297,737 297,736 306,736 310,736 312,736 314,736 315,736 317,736 318,736 319,736 320,735 330,736 331,736 346,735 347,735 352,735 360,735 363,735 364,734 379,734 380,734 386,734 405,734 405,734 407,734 408,734 408,734 409,734 410,734 411,734 412,734 412,734 413,734 415,734 415,734 416,734 461,734 462,734 463,733 464,733 466,733 492,733 493,733 493,733 495,733 496,733 497,733 497,733 499,732 499,732 502,732 503,732 504,732 505,732 506,732 506,732 507,731 508,731 510,731 511,731 513,731 513,731 514,731 514,731 515,731 517,731 518,731 520,731 521,731 521,731 522,731 523,731 524,731 524,731 525,731 526,731 526,731 528,731 529,731 531,731 531,731 532,731 532,731 534,731 535,731 536,731 538,731 539,731 540,731 540,731 543,731 543,730 544,730 544,730 546,730 547,730 548,730 549,730 550,730 550,730 551,730 553,730 554,730 555,730 556,730 557,730 557,730 558,730 559,730 560,730 561,730 562,730 564,730 564,730 565,730 566,730 568,730 569,730 571,730 573,730 574,730 575,730 578,730 580,730 581,730 583,730 583,730 585,730 586,730 586,730 589,730 590,730 592,730 593,730 594,730 595,730 596,730 597,730 597,730 599,730 600,730 601,730 602,730 602,730 603,730 604,730 604,730 605,730 605,730 606,730 608,730 608,730 611,730 612,730 616,730 618,730 618,730 619,730 619,730 620,730 620,730 621,730 623,730 624,730 625,730 625,730 626,730 626,730 627,729 627,729 628,729 629,729 630,729 631,729 631,729 634,729 635,729 636,729 636,729 637,729 637,729 638,729 639,729 644,729 647,728 650,728 651,728 651,728 652,728 655,728 655,728 659,728 660,728 660,728 671,728 672,728 674,728 677,728 678,728 684,728 686,728 688,728 689,728 690,728 691,728 693,728 696,728 698,728 700,728 700,728 701,728 703,728 705,728 705,727 706,727 707,727 707,727 708,727 709,727 710,727 710,727 711,727 712,727 713,727 713,727 714,727 714,727 715,727 716,727 716,727 717,727 718,727 720,727 720,727 721,727 721,727 723,727 723,727 725,727 725,727 726,727 727,727 728,727 728,727 729,727 729,727 731,727 731,727 732,727 735,727 735,727 736,727 737,727 738,727 738,727 739,727 740,727 741,727 742,727 742,727 745,727 746,727 747,727 749,727 749,727 750,727 753,727 753,727 757,727 757,727 758,727 758,727 759,727 760,727 760,727 761,727 763,727 764,727 764,727 765,727 768,727 768,727 769,727 770,727 771,727 771,727 772,727 773,727 775,727 776,727 776,727 777,727 778,727 778,727 779,727 781,726 781,726 782,726 782,726 783,726 783,726 784,726 785,726 785,726 786,726 786,726 787,726 788,726 788,726 789,726 789,726 790,726 791,726 792,726 792,726 793,726 795,726 796,726 796,726 797,726 800,726 801,726 801,726 802,726 803,726 805,726 805,726 806,726 807,726 807,726 808,726 808,726 809,726 810,726 810,726 811,726 811,726 812,726 812,726 813,726 814,726 816,726 817,726 818,726 818,726 819,726 820,726 821,726 821,726 822,726 822,726 823,726 823,726 824,726 825,726 825,726 826,726 826,726 828,726 828,726 829,726 829,726 830,726 830,726 831,726 832,726 832,726 833,726 834,726 834,726 836,726 836,726 838,726 839,726 839,726 840,726 840,726 841,726 842,726 843,726 844,726 845,726 846,726 846,726 847,726 847,726 848,726 848,726 849,726 850,726 851,726 851,726 852,726 852,726 853,726 854,726 854,726 855,726 855,726 857,726 858,726 859,726 859,726 860,726 861,726 861,726 862,726 862,726 863,726 864,726 865,726 865,726 866,726 867,726 868,726 869,726 869,726 870,726 870,726 872,726 872,726 873,726 873,726 874,726 875,726 875,726 875,726 876,726 876,726 877,726 877,726 878,726 879,726 879,726 880,726 880,726 881,726 882,726 883,726 883,726 884,726 884,726 885,726 886,726 886,726 887,726 888,726 888,726 890,726 890,726 891,726 892,726 892,726 893,726 895,726 895,725 896,725 897,725 897,725 898,725 898,725 899,725 899,725 900,725 901,725 901,725 902,725 903,725 904,725 904,725 906,725 906,725 907,725 908,725 909,725 909,725 910,725 911,725 912,725 912,725 913,725 913,725 915,725 915,725 916,725 917,725 917,725 918,725 919,725 920,725 920,725 921,725 922,725 923,725 924,725 925,725 926,725 927,725 927,725 928,725 928,725 930,725 930,725 931,725 931,725 932,725 933,725 933,725 934,725 935,725 935,725 936,725 937,725 937,725 938,725 938,725 939,725 939,725 941,725 941,725 942,725 943,725 945,725 945,725 946,725 946,725 948,725 948,725 949,725 949,725 950,725 951,724 951,724 952,724 953,724 953,724 955,724 955,724 956,724 957,724 957,724 959,724 959,724 960,724 960,724 961,724 962,724 962,724 963,724 963,724 964,724 964,724 965,724 966,724 967,724 967,724 968,724 968,724 969,724 970,724 970,724 971,724 971,724 972,724 973,724 973,724 974,724 974,724 975,724 975,724 977,724 977,724 978,724 978,724 979,724 980,724 981,724 981,724 982,724 982,724 983,724 984,724 984,724 985,724 986,724 986,724 987,724 988,724 988,724 989,724 991,724 991,724 994,724 995,724 995,724 996,724 997,724 997,724 998,724 999,724 999,724 1000,724 1000,724 1001,724 1002,724 1002,724 1003,724 1003,724 1004,724 1005,723 1006,723 1007,723 1009,723 1009,723 1010,723 1010,723 1011,723 1012,723 1013,723 1014,723 1015,723 1015,723 1016,723 1017,723 1017,723 1018,723 1018,723 1020,723 1021,723 1021,723 1022,723 1022,723 1023,723 1024,723 1026,723 1026,723 1027,723 1028,723 1028,723 1029,723 1030,723 1031,723 1031,723 1032,723 1033,723 1033,723 1034,723 1035,723 1035,723 1036,723 1038,723 1039,723 1039,723 1040,723 1040,723 1041,723 1042,723 1042,723 1043,723 1044,723 1044,723 1045,723 1046,723 1047,723 1047,723 1048,723 1049,723 1050,723 1051,723 1051,723 1052,723 1053,723 1053,723 1054,723 1054,723 1055,723 1056,723 1056,723 1057,723 1057,723 1058,723 1058,723 1059,723 1060,723 1060,723 1061,723 1061,723 1063,723 1064,723 1065,723 1066,723 1067,723 1067,723 1068,723 1068,723 1070,723 1071,723 1071,723 1072,723 1072,723 1073,723 1073,723 1074,723 1075,723 1075,723 1076,723 1076,723 1078,723 1078,723 1081,723 1082,723 1082,723 1083,723 1083,723 1085,723 1086,723 1087,723 1087,723 1088,723 1089,723 1089,723 1090,723 1091,723 1091,723 1092,723 1093,723 1095,723 1096,723 1097,723 1098,723 1099,723 1099,723 1100,723 1101,723 1101,723 1103,723 1104,723 1104,723 1105,723 1105,723 1106,723 1107,723 1107,723 1108,723 1108,723 1109,723 1109,723 1110,723 1111,723 1111,723 1112,723 1112,723 1113,723 1114,723 1114,723 1115,723 1115,723 1116,723 1116,723 1117,723 1118,723 1119,723 1120,723 1120,723 1121,723 1122,723 1126,723 1127,723 1127,723 1128,723 1129,723 1130,723 1130,723 1131,722 1131,722 1133,722 1133,722 1136,722 1136,722 1137,722 1137,722 1139,722 1140,722 1140,722 1141,722 1142,722 1143,722 1143,722 1144,722 1145,722 1145,722 1146,722 1147,722 1147,722 1148,722 1148,722 1149,722 1149,722 1150,722 1151,722 1152,722 1153,722 1154,722 1154,722 1155,722 1155,722 1156,722 1156,722 1157,722 1158,722 1159,722 1159,722 1160,722 1160,722 1161,722 1162,722 1162,722 1163,722 1164,722 1165,722 1165,722 1167,722 1167,722 1168,722 1169,722 1169,722 1170,722 1172,722 1173,722 1173,722 1175,722 1176,722 1176,722 1177,722 1177,722 1178,722 1178,722 1179,722 1180,722 1180,722 1181,722 1181,722 1182,722 1183,722 1183,722 1183,722 1183,722 1185,722 1185,722 1186,722 1186,722 1187,722 1187,722 1187,722 1188,722 1188,722 1188,722 1189,722 1189,722 1190,722 1190,722 "/>
<polyline fill="none" opacity="1" stroke="#BDE619" stroke-width="2" points="135,738 163,738 186,738 189,738 202,738 210,737 211,737 214,737 220,737 222,737 225,736 232,736 236,736 241,736 246,736 251,735 254,735 254,735 255,735 256,734 257,734 258,734 261,734 262,733 264,733 268,732 269,732 271,732 278,732 281,731 283,731 283,731 284,731 286,730 288,730 293,730 294,730 295,729 296,729 299,729 300,729 301,728 301,728 302,728 306,728 308,728 309,727 310,727 311,727 314,726 315,726 319,726 321,725 325,725 325,725 326,724 327,724 327,724 329,724 329,724 331,723 332,723 333,723 333,723 335,722 336,722 338,722 339,722 340,722 341,722 341,721 343,721 346,721 350,721 351,720 352,721 354,720 356,720 357,720 358,720 358,720 359,720 359,719 360,719 361,719 362,719 362,719 363,718 364,718 367,718 368,718 369,718 369,718 370,718 371,718 372,718 372,717 373,717 374,717 374,717 375,717 376,717 377,717 380,717 380,717 381,717 381,717 382,717 383,717 386,716 386,716 387,716 387,716 388,716 388,716 389,716 390,716 390,716 391,716 391,716 392,716 392,715 393,715 394,715 394,715 395,715 395,715 396,715 397,715 398,714 398,714 399,714 399,714 400,713 401,713 402,713 403,713 404,713 405,713 405,712 406,712 406,712 408,712 408,711 409,711 410,711 412,711 413,710 413,710 414,710 415,709 416,709 417,709 418,709 419,709 419,708 420,708 421,708 421,708 422,708 423,707 423,707 424,707 424,707 425,707 426,706 427,706 428,706 428,706 429,706 430,706 430,706 431,705 431,705 432,705 433,705 434,705 434,705 435,704 436,704 437,704 437,703 438,703 438,703 439,703 439,703 440,703 441,703 442,702 443,679 444,679 445,679 445,678 446,678 446,678 447,677 448,677 449,677 449,677 450,676 450,676 451,676 452,675 452,675 453,675 453,674 454,674 455,674 455,674 456,673 456,673 457,673 457,673 458,673 459,673 459,672 460,672 460,672 461,671 461,671 462,671 463,670 463,669 464,669 464,669 466,668 466,668 467,664 468,664 468,663 470,663 470,663 471,663 471,663 472,663 473,663 473,663 475,663 475,663 476,663 477,662 477,662 478,662 478,662 479,662 479,661 480,661 481,661 481,661 482,660 483,660 484,660 484,660 485,659 485,659 486,659 486,659 487,659 488,659 488,658 489,658 490,658 491,658 492,657 492,657 493,656 493,656 494,656 495,656 495,656 496,656 496,656 497,656 497,655 499,654 499,654 500,654 500,653 501,653 502,653 502,653 503,653 503,653 504,652 504,652 505,652 506,652 506,652 507,652 507,651 508,651 508,651 509,651 510,650 510,650 511,650 511,650 512,650 513,650 514,650 514,649 515,649 515,649 516,649 517,648 517,648 518,647 518,647 519,647 520,647 520,646 521,646 521,646 522,646 522,645 523,644 524,644 524,643 525,643 525,642 526,642 526,642 527,641 528,641 528,640 529,640 529,640 530,639 531,639 531,639 532,638 532,638 533,637 533,637 534,637 535,636 535,636 536,635 536,635 537,635 537,635 538,634 539,634 539,634 540,634 540,634 541,633 542,633 542,633 543,632 543,632 544,631 544,631 545,631 546,630 546,630 547,630 547,629 548,629 549,629 549,629 550,629 550,629 551,628 551,628 552,628 553,627 553,627 554,626 554,625 555,625 555,624 557,624 557,624 558,624 558,623 559,623 560,623 560,622 561,621 561,621 562,621 562,620 563,620 564,619 564,619 565,619 565,618 566,618 566,618 567,618 568,617 568,617 569,616 569,616 570,616 571,615 571,615 572,615 572,614 573,614 573,614 574,613 575,613 575,613 576,613 576,613 577,612 578,612 578,612 579,612 579,612 580,610 580,610 581,610 582,609 582,608 583,608 583,608 584,608 584,608 585,608 586,607 586,607 587,607 587,607 588,607 589,606 589,606 590,605 590,605 591,605 591,605 592,604 593,604 593,603 594,603 594,603 595,602 595,602 596,601 597,601 597,600 598,600 598,600 599,600 600,599 600,599 601,599 601,598 602,597 602,597 603,596 604,595 604,595 605,595 605,594 606,594 607,593 607,593 608,593 608,593 609,593 609,593 610,593 611,593 611,593 612,592 612,592 613,591 613,591 614,591 615,591 615,591 616,590 616,590 617,589 618,589 618,589 619,589 619,588 620,588 620,588 621,588 622,586 622,585 623,585 623,585 624,585 625,584 625,583 626,583 626,583 627,583 627,582 628,582 629,582 629,582 630,581 630,581 631,581 631,580 632,580 633,580 633,580 634,580 634,579 635,579 636,579 636,578 637,578 637,578 638,577 638,577 639,576 640,576 640,576 641,575 641,575 642,575 642,575 643,575 644,575 644,574 645,574 645,573 646,573 647,573 647,572 648,572 648,572 649,572 649,572 650,572 651,572 651,570 652,570 652,570 653,570 654,570 654,570 655,569 655,569 656,569 656,568 657,568 658,567 658,567 659,566 659,566 660,566 660,566 661,566 662,566 662,566 663,565 663,565 664,561 665,560 665,559 666,559 666,559 667,559 667,558 668,558 669,557 669,557 670,557 670,556 671,556 671,555 672,555 673,554 673,554 674,553 674,553 675,553 676,553 676,553 677,552 677,552 678,552 678,551 679,551 680,551 680,550 681,550 681,549 682,549 683,548 683,547 684,547 684,546 685,545 685,545 686,545 687,545 687,545 688,545 688,544 689,544 689,544 690,543 691,543 691,543 692,543 692,542 693,542 694,542 694,541 695,541 695,541 696,541 696,540 697,541 698,539 698,539 699,539 699,539 700,539 700,539 701,538 702,538 702,537 703,537 703,537 704,537 705,536 705,536 706,536 706,535 707,535 707,535 708,533 709,532 709,532 710,532 710,532 711,531 712,530 712,530 713,530 713,529 714,529 714,529 715,528 716,528 716,527 717,527 717,527 718,527 718,527 719,526 720,526 720,526 721,526 721,525 722,525 723,525 723,525 724,525 724,525 725,524 725,524 726,524 727,523 727,523 728,523 728,522 729,521 729,521 730,521 731,521 731,520 732,520 732,520 733,519 734,519 734,518 735,517 735,517 736,517 736,517 737,517 738,512 738,511 739,511 739,510 740,510 741,509 741,508 742,508 742,508 743,507 743,506 744,505 745,504 745,504 746,503 746,502 747,502 747,501 748,501 749,500 749,500 750,500 750,500 751,499 752,499 752,498 753,498 753,497 754,496 754,496 755,495 756,495 756,495 757,494 757,494 758,493 758,493 759,492 760,492 760,490 761,490 761,490 762,489 763,489 763,489 764,488 764,488 765,488 765,487 766,487 767,487 767,487 768,486 768,486 769,485 770,485 770,484 771,483 771,483 772,482 772,481 773,481 774,481 774,481 775,480 775,480 776,480 776,479 777,479 778,479 778,478 779,478 779,477 780,477 781,478 781,477 782,476 782,476 783,475 783,475 784,475 785,474 785,474 786,474 786,473 787,474 788,474 788,474 789,473 789,473 790,473 790,473 791,472 792,472 792,472 793,471 793,471 794,470 794,470 795,469 796,469 796,469 797,468 797,468 798,467 799,467 799,467 800,466 800,466 801,465 801,465 802,465 803,464 803,464 804,464 804,463 805,463 805,463 806,462 807,462 807,461 808,461 808,461 809,460 810,460 810,459 811,459 811,459 812,459 812,458 813,458 814,457 814,457 815,456 815,455 816,455 817,455 817,453 818,453 818,453 819,452 819,452 820,452 821,451 821,450 822,450 822,450 823,450 823,449 824,449 825,448 825,447 826,446 826,446 827,446 828,446 828,446 829,445 829,444 830,444 830,443 831,442 832,442 832,442 833,442 833,441 834,441 834,441 835,440 836,439 836,439 837,439 837,439 838,438 839,438 839,437 840,437 840,437 841,437 841,437 842,437 843,436 843,436 844,436 844,435 845,435 846,435 846,435 847,434 847,433 848,433 848,432 849,432 850,432 850,432 851,431 851,431 852,431 852,431 853,431 854,431 854,431 855,430 855,429 856,429 857,429 857,429 858,429 858,428 859,428 859,427 860,427 861,427 861,427 862,427 862,426 863,425 863,425 864,424 865,424 865,423 866,422 866,421 867,421 868,421 868,421 869,421 869,420 870,420 870,419 871,418 872,417 872,417 873,417 873,416 874,416 875,415 875,415 875,414 876,413 876,412 877,412 877,412 878,411 879,410 879,410 880,409 880,408 881,408 881,407 882,407 883,406 883,406 884,406 884,406 885,406 886,398 886,398 887,397 887,397 888,396 888,396 889,396 890,396 890,394 891,393 891,393 892,392 892,392 893,392 894,391 894,390 895,389 895,389 896,388 897,387 897,387 898,386 898,386 899,385 899,385 900,384 901,383 901,383 902,383 902,382 903,381 904,381 904,380 905,380 905,379 906,379 906,378 907,377 908,377 908,377 909,376 909,376 910,375 910,375 911,375 912,374 912,374 913,373 913,373 914,373 915,372 915,372 916,372 916,371 917,370 917,370 918,369 919,369 919,369 920,368 920,368 921,368 922,367 922,367 923,367 923,366 924,365 924,365 925,365 926,364 926,364 927,363 927,363 928,362 928,361 929,361 930,362 930,361 931,360 931,359 932,357 933,356 933,356 934,355 934,354 935,353 935,351 936,351 937,350 937,350 938,349 938,349 939,349 939,348 940,348 941,347 941,347 942,346 942,346 943,346 944,345 944,344 945,343 945,342 946,342 946,341 947,341 948,340 948,340 949,339 949,339 950,338 951,338 951,337 952,337 952,336 953,335 953,335 954,335 955,335 955,333 956,333 956,332 957,332 957,332 958,330 959,330 959,330 960,330 960,329 961,328 962,328 962,328 963,327 963,327 964,326 964,326 965,325 966,324 966,324 967,323 967,323 968,322 968,321 969,321 970,320 970,320 971,319 971,319 972,318 973,317 973,318 974,316 974,316 975,316 975,316 976,315 977,314 977,314 978,313 978,311 979,311 980,310 980,309 981,308 981,307 982,307 982,307 983,306 984,306 984,305 985,304 985,304 986,304 986,302 987,302 988,301 988,301 989,301 989,300 990,300 991,299 991,299 992,298 992,298 993,297 993,297 994,297 995,296 995,295 996,295 996,294 997,293 997,292 998,291 999,290 999,290 1000,289 1000,288 1001,288 1002,287 1002,286 1003,286 1003,285 1004,285 1004,284 1005,284 1006,283 1006,283 1007,283 1007,282 1008,282 1009,282 1009,282 1010,281 1010,280 1011,278 1011,278 1012,277 1013,277 1013,276 1014,275 1014,274 1015,274 1015,274 1016,273 1017,272 1017,272 1018,270 1018,270 1019,269 1020,268 1020,267 1021,267 1021,266 1022,266 1022,265 1023,264 1024,264 1024,263 1025,262 1025,262 1026,261 1026,260 1027,260 1028,259 1028,259 1029,258 1029,257 1030,257 1031,257 1031,257 1032,256 1032,255 1033,254 1033,253 1034,253 1035,251 1035,251 1036,251 1036,251 1037,251 1038,250 1038,250 1039,243 1039,243 1040,243 1040,242 1041,241 1042,241 1042,240 1043,239 1043,238 1044,238 1044,237 1045,236 1046,235 1046,235 1047,234 1047,232 1048,232 1049,232 1049,231 1050,230 1050,230 1051,230 1051,229 1052,228 1053,227 1053,227 1054,227 1054,226 1055,226 1056,225 1056,225 1057,224 1057,224 1058,223 1058,223 1059,222 1060,222 1060,221 1061,220 1061,219 1062,218 1062,217 1063,217 1064,216 1064,216 1065,216 1065,216 1066,214 1067,214 1067,213 1068,213 1068,212 1069,212 1069,211 1070,211 1071,211 1071,211 1072,210 1072,210 1073,209 1073,209 1074,209 1075,208 1075,207 1076,207 1076,206 1077,205 1078,204 1078,203 1079,203 1079,202 1080,202 1080,201 1081,201 1082,200 1082,199 1083,198 1083,198 1084,197 1085,197 1085,196 1086,196 1086,196 1087,195 1087,195 1088,194 1089,194 1089,193 1090,193 1090,193 1091,192 1091,192 1092,191 1093,191 1093,190 1094,190 1094,189 1095,187 1096,187 1096,186 1097,186 1097,186 1098,185 1098,185 1099,184 1099,184 1100,183 1100,183 1101,183 1101,182 1102,182 1102,182 1103,181 1104,181 1104,180 1105,179 1105,179 1106,179 1107,178 1107,177 1108,177 1108,176 1109,176 1109,175 1110,175 1111,174 1111,174 1112,172 1112,171 1113,171 1114,170 1114,169 1115,169 1115,168 1116,168 1116,166 1117,165 1118,165 1118,164 1119,163 1119,163 1120,162 1120,162 1121,162 1122,161 1122,161 1123,159 1123,158 1124,157 1125,156 1125,156 1126,156 1126,156 1127,156 1127,156 1128,155 1129,155 1129,154 1130,153 1130,153 1131,153 1131,152 1132,151 1133,151 1133,151 1134,150 1134,150 1135,150 1136,149 1136,149 1137,149 1137,148 1138,147 1138,145 1139,144 1140,144 1140,143 1141,143 1141,142 1142,141 1143,140 1143,141 1144,139 1144,139 1145,137 1145,137 1146,136 1147,135 1147,135 1148,133 1148,133 1149,132 1149,131 1150,129 1151,129 1151,129 1152,129 1152,128 1153,128 1154,126 1154,125 1155,124 1155,124 1156,124 1156,123 1157,122 1158,121 1158,120 1159,119 1159,118 1160,118 1160,117 1161,117 1162,116 1162,115 1163,115 1163,114 1164,112 1165,111 1165,110 1166,108 1166,108 1167,108 1167,107 1168,106 1169,104 1169,103 1170,103 1170,102 1171,101 1172,101 1172,99 1173,99 1173,99 1174,98 1174,97 1175,96 1176,95 1176,94 1177,93 1177,93 1178,92 1178,92 1179,90 1180,90 1180,90 1181,89 1181,90 1181,90 1181,89 1182,87 1183,87 1183,86 1183,86 1183,86 1184,85 1184,85 1184,84 1185,84 1185,84 1185,84 1185,83 1186,83 1186,81 1187,81 1187,80 1187,80 1187,79 1188,79 1188,78 1188,78 1188,77 1189,77 1189,76 1190,76 1190,75 "/>
<polyline fill="none" opacity="1" stroke="#19E66B" stroke-width="2" points="60,738 60,738 61,738 70,738 76,737 77,737 83,737 87,736 91,736 96,736 98,736 99,735 100,735 104,735 108,735 114,734 115,734 123,734 126,734 127,734 131,734 144,733 148,733 149,733 150,733 152,733 153,732 156,732 158,732 158,732 159,732 162,732 162,732 163,732 164,732 164,732 165,732 166,732 166,732 167,732 168,731 169,731 169,731 170,731 170,731 171,731 171,731 172,731 173,731 173,731 174,730 174,730 175,730 176,730 177,730 178,730 178,730 179,730 180,730 180,730 181,730 181,730 182,730 183,730 184,730 184,730 185,729 185,729 187,729 187,729 188,729 188,729 189,729 190,729 191,728 191,728 192,728 192,728 193,728 193,728 194,728 195,728 195,728 196,728 198,728 199,728 200,728 201,728 202,728 203,728 203,728 204,728 205,728 205,728 206,728 207,728 209,728 209,728 210,727 210,727 211,727 212,727 213,727 214,727 216,727 216,727 217,727 217,727 218,727 218,727 220,727 220,727 221,727 221,727 222,727 223,727 224,727 224,726 225,726 225,726 226,726 227,726 228,726 228,726 229,726 229,726 230,726 231,726 232,726 232,726 234,725 235,725 236,725 237,724 238,724 238,724 239,724 239,724 240,724 240,724 241,724 242,724 242,724 243,724 243,724 244,724 246,724 246,724 247,724 247,724 248,724 249,724 249,724 250,724 250,724 251,724 252,724 253,724 253,724 254,724 254,724 256,724 256,724 257,724 257,724 258,724 258,724 259,724 260,724 261,724 261,724 262,724 263,724 263,723 264,723 266,723 267,723 267,723 268,723 268,723 269,723 270,723 271,723 272,723 272,722 273,722 274,722 274,721 275,721 275,721 276,721 276,721 277,721 278,721 278,721 279,721 280,721 281,721 282,721 282,721 283,721 283,720 284,720 285,720 285,720 286,720 286,720 287,720 287,720 288,720 289,720 290,720 290,720 291,720 292,720 292,720 293,719 293,719 294,719 294,719 295,719 296,719 296,719 297,719 297,719 298,719 298,719 299,719 300,719 300,719 301,719 301,719 302,719 303,719 303,719 304,719 304,719 305,719 305,719 306,719 307,719 307,719 308,719 308,719 309,719 310,719 310,719 311,718 311,718 312,718 312,718 313,718 314,718 314,717 315,718 315,718 316,718 316,717 317,717 318,717 318,717 319,717 319,716 320,716 321,716 321,716 322,716 322,716 323,716 324,716 325,716 325,716 326,716 327,716 327,716 328,716 329,716 329,716 330,716 330,716 331,716 332,715 332,715 333,715 333,715 334,715 334,715 335,715 336,715 336,715 337,715 337,715 338,715 339,715 339,715 340,715 340,714 341,714 341,714 342,714 343,714 343,714 344,714 344,714 345,714 345,714 346,714 347,714 347,714 348,714 348,714 349,714 350,714 350,714 351,714 351,714 352,714 352,714 353,714 354,714 354,714 355,713 355,713 356,713 357,713 357,713 358,713 358,713 360,713 361,713 361,713 362,713 362,712 363,712 363,712 364,712 365,712 365,712 366,712 366,712 367,712 368,712 368,712 369,712 369,712 370,712 370,712 371,712 372,711 372,711 373,711 373,711 374,711 374,711 375,711 376,711 376,711 377,711 377,711 378,711 379,711 379,711 380,710 381,710 382,710 383,710 383,710 384,710 384,710 385,710 386,710 386,710 387,710 388,710 388,710 389,710 390,710 390,710 391,710 391,710 392,710 392,710 393,710 394,710 394,710 395,710 395,710 396,709 397,709 397,709 398,709 398,709 399,709 399,709 400,710 401,709 401,709 402,709 402,709 403,709 403,709 404,709 405,709 405,709 406,709 406,709 407,709 408,709 408,709 409,709 409,709 410,709 410,709 411,709 412,709 412,709 413,709 413,709 414,708 415,708 415,708 416,708 416,708 417,708 417,708 418,708 419,708 419,708 420,708 420,708 421,708 421,707 422,707 423,707 423,707 424,707 424,707 425,707 426,707 426,707 427,707 427,707 428,707 428,707 429,707 430,707 430,707 431,707 431,707 432,707 432,707 433,707 434,707 434,706 435,706 435,706 436,706 437,706 437,706 438,706 438,706 439,706 439,706 440,706 441,706 441,706 442,706 442,706 443,706 444,706 444,706 445,706 445,706 446,706 446,706 447,706 448,705 448,705 449,705 449,705 450,705 450,705 451,705 452,705 452,705 453,705 453,705 455,705 455,705 456,705 456,705 457,705 457,705 458,705 459,705 459,705 460,705 460,705 461,705 461,705 462,705 463,705 463,705 464,705 464,705 465,705 466,705 466,705 467,705 467,705 468,705 468,704 469,704 470,704 470,704 471,704 471,704 472,704 473,704 473,704 474,704 474,704 475,704 475,704 476,704 477,704 477,704 478,704 478,704 479,704 479,704 480,704 481,703 481,703 482,703 482,703 483,703 484,703 484,703 485,703 485,703 486,703 486,703 487,703 488,703 488,703 489,703 489,703 490,703 491,703 491,703 492,703 492,703 493,703 493,702 494,702 495,702 495,702 496,702 496,702 497,702 497,702 498,702 499,702 499,702 500,702 500,702 501,702 502,701 503,701 503,701 504,701 504,701 505,701 506,701 506,701 507,701 507,701 508,701 508,701 509,701 510,700 510,700 511,700 511,700 512,700 513,699 513,699 514,699 514,699 515,699 515,699 516,699 517,699 517,699 518,699 518,699 519,699 520,699 520,699 521,699 521,699 522,699 522,699 523,699 524,699 524,699 525,699 525,699 526,699 526,699 527,699 528,699 528,699 529,699 529,699 530,699 531,699 531,699 532,699 532,699 533,699 533,699 534,699 535,699 535,699 536,699 536,699 537,699 537,698 538,698 539,698 539,698 540,698 540,698 541,698 542,698 542,698 543,698 543,698 544,698 544,698 545,698 546,698 546,699 547,699 547,699 548,698 549,698 549,698 550,698 550,698 551,698 551,698 552,698 553,698 553,698 554,698 554,698 555,698 555,698 556,698 557,698 557,698 558,698 558,699 559,699 560,699 560,699 561,699 561,699 562,698 562,698 563,698 564,698 564,698 565,698 565,698 566,698 566,698 567,698 568,698 568,698 569,698 569,698 570,698 571,698 571,698 572,698 572,698 573,698 573,698 574,698 575,698 575,698 576,698 576,698 577,698 578,698 578,698 579,697 579,698 580,698 580,698 581,698 582,697 582,697 583,697 583,697 584,697 584,697 585,697 586,697 586,697 587,696 587,696 588,696 589,696 589,696 590,696 590,696 591,696 591,696 592,696 593,696 593,696 594,696 594,696 595,696 595,696 596,696 597,696 597,696 598,696 598,696 599,696 600,696 600,696 601,696 601,696 602,696 602,696 603,696 604,696 604,696 605,696 605,696 606,696 607,695 607,695 608,695 608,695 609,695 609,695 610,695 611,695 611,695 612,695 612,695 613,695 613,695 614,695 615,695 615,695 616,695 616,695 617,695 618,695 618,695 619,695 619,695 620,695 620,695 621,695 622,695 622,695 623,695 623,695 624,695 625,695 625,695 626,695 626,695 627,695 627,695 628,695 629,695 629,695 630,695 630,695 631,695 631,695 632,695 633,695 633,695 634,695 634,695 635,695 636,695 636,695 637,695 637,695 638,695 638,695 639,694 640,694 640,694 641,694 641,694 642,694 642,694 643,694 644,694 644,694 645,694 645,694 646,694 647,694 647,694 648,694 648,694 649,694 649,694 650,694 651,694 651,694 652,694 652,694 653,694 654,694 654,694 655,694 655,694 656,694 656,694 657,694 658,694 658,694 659,694 659,694 660,694 660,694 661,694 662,694 662,694 663,694 663,694 664,694 665,694 665,694 666,694 666,694 667,694 667,694 668,694 669,694 669,694 670,694 670,694 671,694 671,694 672,694 673,694 673,694 674,694 674,694 675,694 676,694 676,694 677,694 677,693 678,693 678,693 679,693 680,693 680,693 681,693 681,693 682,693 683,693 683,693 684,693 684,693 685,693 685,693 686,693 687,693 687,693 688,693 688,693 689,693 689,693 690,693 691,693 691,693 692,693 692,693 693,693 694,693 694,693 695,693 696,693 696,693 697,693 698,693 698,693 699,693 699,693 700,693 700,693 701,693 702,693 702,693 703,693 703,693 704,693 705,692 705,692 706,693 706,693 707,693 707,693 708,693 709,693 709,693 710,693 710,692 711,692 712,692 712,692 713,692 713,692 714,692 714,692 715,692 716,692 716,692 717,692 717,692 718,692 718,692 719,692 720,692 720,692 721,692 721,692 722,692 723,692 723,692 724,692 724,692 725,692 725,691 726,691 727,691 727,691 728,691 728,691 729,691 729,691 730,691 731,691 731,691 732,691 732,691 733,691 734,691 734,691 735,691 735,691 736,691 736,691 737,691 738,691 738,691 739,691 739,691 740,691 741,691 741,691 742,691 742,691 743,691 743,691 744,691 745,691 745,691 746,691 746,691 747,691 747,691 748,691 749,691 749,690 750,690 750,690 751,690 752,690 752,690 753,690 753,690 754,690 754,690 755,690 756,690 756,690 757,690 757,690 758,690 758,690 759,690 760,690 760,690 761,690 761,690 762,690 763,690 763,690 764,690 764,690 765,690 765,690 766,690 767,690 767,690 768,690 768,690 769,690 770,690 770,690 771,690 771,690 772,690 772,690 773,690 774,690 774,690 775,690 775,690 776,690 776,690 777,690 778,690 778,690 779,690 779,690 780,690 781,689 781,689 782,690 782,690 783,690 783,690 784,690 785,690 785,690 786,690 786,690 787,690 788,690 788,690 789,690 789,690 790,690 790,690 791,690 792,690 792,690 793,690 793,689 794,689 794,689 795,689 796,689 796,689 797,689 797,689 798,689 799,689 799,689 800,689 800,689 801,689 801,689 802,689 803,689 803,689 804,689 804,689 805,689 805,689 806,689 807,689 807,689 808,689 808,689 809,689 810,689 810,689 811,689 811,689 812,689 812,689 813,689 814,689 814,689 815,689 815,689 816,689 817,689 817,689 818,689 818,689 819,689 819,689 820,689 821,688 821,688 822,688 822,688 823,688 823,688 824,688 825,688 825,688 826,688 826,688 827,688 828,688 828,688 829,688 829,688 830,688 830,688 831,688 832,688 832,688 833,688 833,688 834,687 834,687 835,687 836,688 836,688 837,688 837,688 838,687 839,687 839,687 840,687 840,687 841,687 841,687 842,687 843,687 843,687 844,687 844,687 845,687 846,687 846,687 847,687 847,687 848,687 848,687 849,687 850,687 850,687 851,687 851,687 852,687 852,687 853,687 854,687 854,686 855,686 855,686 856,686 857,686 857,686 858,686 858,686 859,686 859,686 860,686 861,686 861,686 862,686 862,686 863,686 863,686 864,686 865,686 865,687 866,687 866,687 867,687 868,687 868,687 869,687 869,687 870,687 870,686 871,686 872,686 872,686 873,686 873,686 874,686 875,686 875,686 875,686 876,686 876,686 877,686 877,686 878,686 879,686 879,686 880,686 880,686 881,686 881,686 882,686 883,686 883,685 884,685 884,685 885,685 886,685 886,685 887,685 887,685 888,685 888,685 889,685 890,685 890,685 891,685 891,685 892,685 892,685 893,685 894,684 894,684 895,684 895,684 896,684 897,684 897,684 898,684 898,684 899,684 899,684 900,684 901,684 901,684 902,684 902,684 903,684 904,684 904,684 905,684 905,684 906,684 906,684 907,683 908,683 908,683 909,683 909,683 910,683 910,683 911,683 912,683 912,683 913,683 913,683 914,683 915,683 915,683 916,683 916,683 917,683 917,683 918,682 919,682 919,682 920,682 920,682 921,682 922,682 922,682 923,682 923,682 924,682 924,682 925,682 926,682 926,682 927,682 927,682 928,682 928,682 929,682 930,682 930,682 931,682 931,682 932,682 933,682 933,682 934,682 934,682 935,682 935,682 936,682 937,682 937,682 938,682 938,682 939,682 939,682 940,682 941,682 941,682 942,682 942,682 943,682 944,682 944,682 945,681 945,681 946,681 946,681 947,681 948,681 948,681 949,681 949,681 950,681 951,681 951,681 952,681 952,681 953,681 953,681 954,681 955,681 955,681 956,681 956,681 957,681 957,681 958,681 959,681 959,681 960,681 960,681 961,681 962,681 962,681 963,681 963,681 964,681 964,681 965,681 966,681 966,681 967,681 967,681 968,681 968,681 969,681 970,681 970,681 971,681 971,681 972,681 973,681 973,681 974,681 974,681 975,681 975,681 976,681 977,681 977,681 978,681 978,681 979,681 980,680 980,680 981,680 981,681 982,680 982,680 983,680 984,680 984,681 985,681 985,681 986,681 986,680 987,680 988,680 988,680 989,680 989,680 990,680 991,680 991,680 992,680 992,680 993,680 993,680 994,680 995,680 995,680 996,680 996,680 997,680 997,680 998,680 999,680 999,680 1000,680 1000,680 1001,680 1002,680 1002,680 1003,680 1003,680 1004,680 1004,680 1005,680 1006,680 1006,680 1007,680 1007,680 1008,680 1009,680 1009,680 1010,680 1010,680 1011,680 1011,680 1012,680 1013,680 1013,680 1014,680 1014,680 1015,680 1015,680 1016,680 1017,680 1017,680 1018,680 1018,680 1019,680 1020,680 1020,680 1021,680 1021,680 1022,680 1022,680 1023,680 1024,680 1024,680 1025,680 1025,680 1026,680 1026,680 1027,680 1028,680 1028,680 1029,680 1029,680 1030,680 1031,680 1031,680 1032,680 1032,680 1033,680 1033,680 1034,680 1035,680 1035,680 1036,680 1036,680 1037,680 1038,680 1038,680 1039,680 1039,680 1040,680 1040,680 1041,680 1042,680 1042,680 1043,680 1043,680 1044,680 1044,680 1045,680 1046,680 1046,680 1047,680 1047,680 1048,680 1049,680 1049,680 1050,680 1050,680 1051,680 1051,680 1052,680 1053,680 1053,680 1054,680 1054,680 1055,680 1056,680 1056,680 1057,680 1057,680 1058,680 1058,680 1059,680 1060,680 1060,680 1061,680 1061,680 1062,680 1062,680 1063,680 1064,680 1064,680 1065,680 1065,680 1066,679 1067,679 1067,679 1068,679 1068,679 1069,679 1069,679 1070,679 1071,679 1071,679 1072,679 1072,679 1073,679 1073,679 1074,679 1075,679 1075,679 1076,679 1076,679 1077,679 1078,679 1078,679 1079,679 1079,679 1080,679 1080,679 1081,679 1082,679 1082,679 1083,679 1083,679 1084,679 1085,679 1085,679 1086,679 1086,679 1087,679 1087,679 1088,679 1089,679 1089,679 1090,679 1090,679 1091,679 1091,679 1092,679 1093,679 1093,679 1094,679 1094,679 1095,679 1096,679 1096,679 1097,679 1097,679 1098,679 1098,679 1099,679 1099,679 1100,679 1100,679 1101,679 1101,679 1102,679 1102,679 1103,679 1104,679 1104,679 1105,679 1105,679 1106,679 1107,679 1107,679 1108,679 1108,679 1109,679 1109,679 1110,679 1111,679 1111,679 1112,679 1112,679 1113,679 1114,679 1114,679 1115,679 1115,679 1116,679 1116,679 1117,679 1118,679 1118,679 1119,680 1119,680 1120,680 1120,680 1121,680 1122,680 1122,680 1123,680 1123,680 1124,680 1125,680 1125,680 1126,680 1126,680 1127,680 1127,680 1128,680 1129,679 1129,679 1130,679 1130,679 1131,679 1131,679 1132,679 1133,679 1133,679 1134,679 1134,679 1135,679 1136,679 1136,679 1137,679 1137,679 1138,679 1138,679 1139,679 1140,679 1140,679 1141,679 1141,679 1142,679 1143,679 1143,679 1144,679 1144,679 1145,679 1145,679 1146,679 1147,679 1147,680 1148,680 1148,680 1149,679 1149,679 1150,679 1151,679 1151,679 1152,679 1152,679 1153,679 1154,679 1154,679 1155,679 1155,679 1156,679 1156,679 1157,679 1158,679 1158,679 1159,679 1159,679 1160,679 1160,679 1161,679 1162,679 1162,679 1163,679 1163,679 1164,679 1165,679 1165,679 1166,679 1166,679 1167,679 1167,679 1168,679 1169,679 1169,679 1170,679 1170,679 1171,679 1172,679 1172,679 1173,679 1173,679 1174,679 1174,679 1175,679 1176,679 1176,679 1177,679 1177,679 1178,679 1178,679 1179,679 1180,679 1180,679 1181,679 1181,679 1181,679 1181,679 1182,679 1183,679 1183,679 1183,679 1183,679 1184,679 1184,679 1184,679 1185,679 1185,679 1185,679 1185,679 1186,679 1186,679 1187,679 1187,679 1187,679 1187,679 1188,679 1188,679 1188,679 1188,679 1189,679 1189,679 1190,679 1190,679 "/>
<polyline fill="none" opacity="1" stroke="#196BE6" stroke-width="2" points="89,738 97,738 100,738 110,738 111,738 117,737 122,737 129,737 130,737 131,737 136,736 140,736 143,736 148,736 151,736 157,736 158,736 158,736 162,736 164,735 166,735 166,735 167,734 168,734 170,734 173,734 175,734 177,734 178,733 180,733 180,733 183,733 185,733 185,733 186,733 188,732 191,732 194,732 199,732 201,732 209,732 210,732 211,732 213,732 214,732 214,731 215,731 216,731 223,731 224,731 225,731 227,731 231,731 231,731 232,731 234,731 234,731 235,731 236,731 237,731 238,731 239,731 242,731 244,731 247,731 249,730 250,730 251,730 253,730 253,730 254,730 254,730 256,730 257,730 258,730 258,730 260,730 261,730 264,730 264,730 265,730 267,730 268,730 268,730 269,730 269,730 272,730 272,730 273,730 274,730 275,730 276,730 277,730 278,730 279,730 280,730 281,730 282,730 285,729 285,729 286,729 289,729 290,729 291,729 292,729 292,729 293,729 293,729 294,729 295,729 297,728 298,728 301,728 301,728 302,728 305,728 305,728 306,728 309,727 311,727 312,727 312,727 313,727 314,727 314,727 316,727 316,726 317,726 318,726 319,726 319,726 320,726 321,726 321,726 322,726 322,726 323,726 323,726 324,726 325,725 325,725 326,725 326,725 327,725 327,725 328,725 329,725 330,725 330,725 331,725 332,725 332,725 333,725 333,725 334,725 334,725 335,725 336,725 336,725 337,725 337,725 338,725 339,725 340,725 340,725 341,725 341,725 343,725 343,724 344,724 344,724 345,724 345,724 346,724 347,724 347,724 348,724 348,724 349,724 350,724 350,724 351,723 351,723 352,723 352,723 353,723 354,723 354,723 355,723 355,723 356,723 357,723 357,723 358,723 358,723 359,723 359,723 360,723 361,723 361,723 362,722 362,722 363,722 363,722 364,722 365,721 365,721 366,721 366,721 367,721 368,721 368,721 369,721 369,721 370,721 370,721 371,721 372,721 372,721 373,721 373,721 374,721 374,721 375,721 376,721 376,721 377,721 377,721 378,721 379,721 379,721 380,721 380,721 381,721 381,721 382,721 383,721 383,721 384,721 384,721 385,721 386,721 386,721 387,721 387,721 388,721 388,721 389,721 390,721 390,721 391,721 391,721 392,721 392,721 393,721 394,721 394,721 395,721 395,721 396,721 397,721 397,721 398,721 398,721 399,720 399,720 400,720 401,720 401,720 402,720 402,720 403,720 403,720 404,720 405,720 405,720 406,720 406,720 407,720 408,720 408,720 409,720 409,720 410,720 410,720 411,720 412,720 412,720 413,720 413,720 414,720 415,720 415,720 416,720 416,720 417,720 417,720 418,720 419,720 419,720 420,720 420,720 421,720 421,720 422,720 423,720 423,720 424,719 424,719 425,719 426,719 426,719 427,719 427,719 428,719 428,719 429,719 430,719 430,719 431,719 431,719 432,719 432,719 433,719 434,719 434,719 435,719 435,719 436,719 437,719 437,719 438,719 438,719 439,718 439,718 440,718 441,718 441,718 442,718 442,718 443,718 444,718 444,718 445,718 445,718 446,718 446,718 447,718 448,718 448,718 449,717 449,717 450,717 450,717 451,717 452,717 453,717 453,717 454,717 455,717 455,717 456,717 456,717 457,717 457,717 458,717 459,717 459,717 460,717 460,717 461,717 461,717 462,717 463,717 463,717 464,717 464,717 465,717 466,717 466,717 467,717 467,717 468,717 468,717 469,717 470,717 471,717 471,717 472,717 473,716 473,716 474,716 474,716 475,716 475,716 476,716 477,716 477,716 478,716 478,716 479,716 479,717 480,717 481,716 481,716 482,716 482,716 483,716 484,716 484,716 485,716 485,716 486,716 486,716 487,716 488,716 488,716 489,716 489,716 490,716 491,716 491,716 492,716 492,716 493,716 494,716 495,716 495,716 496,716 496,716 497,716 497,716 498,716 499,716 499,716 500,716 500,716 501,716 502,716 502,716 503,716 503,716 504,716 504,715 505,715 506,715 506,715 507,715 507,715 508,715 508,715 509,715 510,715 510,715 511,715 511,715 512,715 513,715 513,714 514,714 514,714 515,714 515,714 516,714 517,714 517,714 518,714 518,714 519,714 520,714 520,713 521,713 521,713 522,713 522,713 523,713 524,713 524,713 525,713 525,713 526,713 526,713 527,713 528,713 528,713 529,713 529,713 530,712 531,713 531,713 532,713 533,713 533,713 534,713 535,713 535,713 536,713 536,712 537,712 537,712 538,712 539,712 539,712 540,712 540,712 541,712 542,712 542,712 543,712 543,712 544,712 544,712 545,712 546,712 546,712 547,712 547,712 548,712 549,712 549,712 550,712 550,712 551,712 551,712 552,712 553,712 553,712 554,712 554,712 555,712 555,712 556,712 557,712 557,712 558,712 558,712 559,712 560,712 560,712 561,711 561,711 562,711 562,711 563,711 564,711 564,711 565,711 565,711 566,711 566,711 567,710 568,710 568,710 569,710 569,710 570,710 571,710 571,710 572,710 572,710 573,710 573,710 574,710 575,710 575,710 576,710 576,710 577,710 578,710 578,710 579,710 579,709 580,709 580,709 581,709 582,709 582,709 583,709 583,709 584,709 584,708 585,708 586,708 586,708 587,708 587,709 588,708 589,708 589,708 590,708 590,708 591,708 591,708 592,708 593,708 593,708 594,708 594,708 595,708 595,708 596,708 597,708 597,708 598,708 598,708 599,708 600,708 600,708 601,708 601,708 602,708 602,708 603,707 604,707 604,707 605,707 605,707 606,707 607,707 607,707 608,707 608,707 609,707 609,707 610,707 611,707 611,707 612,707 612,707 613,707 613,707 614,707 615,707 615,707 616,707 616,707 617,707 618,707 618,707 619,707 619,707 620,707 620,707 621,707 622,707 622,707 623,707 623,707 624,707 625,707 625,707 626,707 626,707 627,707 627,706 628,706 629,706 629,706 630,706 630,706 631,706 631,706 632,706 633,706 633,705 634,705 634,705 635,705 636,705 636,705 637,705 637,705 638,705 638,705 639,705 640,705 640,705 641,705 641,705 642,705 642,705 643,705 644,705 644,705 645,705 645,705 646,705 647,705 647,705 648,705 648,705 649,705 649,705 650,705 651,705 651,705 652,705 652,705 653,705 654,705 654,704 655,704 655,704 656,704 656,704 657,704 658,704 658,704 659,704 659,704 660,704 660,704 661,704 662,704 662,704 663,704 663,704 664,703 665,703 665,703 666,703 666,703 667,703 667,703 668,703 669,703 669,703 670,703 670,703 671,703 671,703 672,703 673,703 673,703 674,703 674,703 675,703 676,703 676,703 677,703 677,703 678,703 678,703 679,703 680,703 680,703 681,703 681,703 682,703 683,703 683,703 684,703 684,703 685,703 685,703 686,703 687,703 687,703 688,703 688,703 689,703 689,703 690,703 691,703 691,703 692,703 692,703 693,703 694,703 694,703 695,703 695,702 696,702 696,702 697,702 698,702 698,702 699,702 699,702 700,702 700,702 701,702 702,702 702,702 703,702 703,702 704,702 705,702 705,702 706,702 706,702 707,702 707,702 708,702 709,702 709,702 710,702 710,702 711,702 712,701 712,701 713,701 713,702 714,702 714,702 715,702 716,702 716,702 717,702 717,702 718,702 718,701 719,701 720,701 720,701 721,701 721,701 722,700 723,700 723,700 724,700 724,700 725,700 725,700 726,700 727,700 727,700 728,700 728,700 729,700 729,700 730,700 731,699 731,699 732,699 732,699 733,699 734,699 734,699 735,699 735,699 736,699 736,699 737,699 738,699 738,699 739,699 739,699 740,699 741,699 741,699 742,699 742,699 743,699 743,699 744,699 745,699 745,699 746,699 746,699 747,699 747,699 748,699 749,698 749,698 750,698 750,698 751,698 752,698 752,698 753,698 753,698 754,698 754,698 755,698 756,698 756,698 757,698 757,698 758,698 758,698 759,698 760,698 760,698 761,698 761,698 762,698 763,698 763,698 764,698 764,698 765,698 765,698 766,698 767,698 767,698 768,698 768,698 769,698 770,698 770,698 771,698 771,698 772,698 772,698 773,698 774,698 774,698 775,698 775,698 776,698 776,698 777,698 778,698 778,698 779,698 779,698 780,698 781,697 781,697 782,697 782,697 783,697 783,697 784,697 785,696 785,696 786,696 786,696 787,696 788,696 788,696 789,696 789,696 790,696 790,696 791,696 792,696 792,696 793,696 793,696 794,696 794,696 795,696 796,696 796,696 797,696 797,696 798,696 799,696 799,696 800,696 800,696 801,696 801,696 802,696 803,696 803,696 804,696 804,696 805,696 805,696 806,696 807,696 807,696 808,696 808,696 809,696 810,695 810,695 811,695 811,695 812,695 812,695 813,695 814,695 814,695 815,696 815,696 816,696 817,696 817,696 818,696 818,696 819,696 819,696 820,696 821,695 821,695 822,695 822,695 823,696 823,696 824,696 825,696 825,696 826,696 826,696 827,696 828,696 828,696 829,696 829,696 830,696 830,696 831,696 832,696 832,696 833,696 833,696 834,696 834,695 835,695 836,695 836,695 837,695 837,695 838,695 839,695 839,695 840,695 840,695 841,695 841,695 842,695 843,695 843,695 844,695 844,695 845,695 846,695 846,695 847,695 847,695 848,695 848,695 849,695 850,695 850,695 851,695 851,695 852,695 852,695 853,695 854,695 854,695 855,695 855,695 856,694 857,694 857,694 858,694 858,694 859,694 859,694 860,694 861,694 861,694 862,694 862,694 863,694 863,694 864,694 865,694 865,694 866,694 866,694 867,694 868,694 868,694 869,694 869,694 870,694 870,694 871,694 872,693 872,693 873,693 873,693 874,693 875,693 875,693 875,693 876,693 876,693 877,693 877,693 878,693 879,693 879,693 880,693 880,693 881,693 881,693 882,693 883,693 883,693 884,693 884,693 885,693 886,693 886,693 887,693 887,693 888,693 888,693 889,692 890,692 890,692 891,692 891,692 892,692 892,692 893,692 894,692 894,692 895,692 895,692 896,692 897,692 897,692 898,692 898,692 899,691 899,691 900,691 901,691 901,691 902,691 902,691 903,691 904,691 904,691 905,691 905,691 906,691 906,691 907,691 908,691 908,691 909,691 909,691 910,691 910,691 911,691 912,691 912,691 913,691 913,691 914,691 915,691 915,691 916,691 916,691 917,691 917,691 918,691 919,690 919,690 920,690 920,690 921,689 922,689 922,689 923,690 923,690 924,690 924,690 925,690 926,690 926,690 927,690 927,690 928,690 928,690 929,690 930,690 930,690 931,690 931,690 932,690 933,690 933,690 934,690 934,689 935,690 935,690 936,690 937,690 937,689 938,689 938,689 939,689 939,689 940,689 941,689 941,689 942,689 942,689 943,689 944,689 944,689 945,689 945,689 946,689 946,689 947,689 948,689 948,689 949,689 949,689 950,689 951,689 951,689 952,689 952,689 953,689 953,689 954,689 955,689 955,689 956,689 956,689 957,689 957,689 958,689 959,689 959,689 960,689 960,689 961,689 962,689 962,689 963,689 963,689 964,689 964,689 965,689 966,689 966,689 967,688 967,688 968,688 968,688 969,688 970,688 970,688 971,688 971,687 972,687 973,687 973,687 974,687 974,687 975,687 975,687 976,687 977,687 977,687 978,687 978,687 979,687 980,687 980,687 981,687 981,687 982,687 982,687 983,687 984,687 984,687 985,687 985,687 986,687 986,687 987,687 988,687 988,687 989,687 989,687 990,687 991,687 991,687 992,687 992,687 993,687 993,687 994,687 995,687 995,687 996,686 996,686 997,686 997,686 998,686 999,686 999,686 1000,686 1000,686 1001,686 1002,686 1002,686 1003,686 1003,686 1004,685 1004,685 1005,685 1006,685 1006,685 1007,685 1007,685 1008,685 1009,685 1009,685 1010,685 1010,685 1011,685 1011,685 1012,685 1013,685 1013,685 1014,685 1014,685 1015,685 1015,685 1016,685 1017,685 1017,685 1018,685 1018,685 1019,684 1020,684 1020,684 1021,684 1021,684 1022,684 1022,684 1023,684 1024,684 1024,684 1025,684 1025,684 1026,684 1026,684 1027,684 1028,684 1028,684 1029,684 1029,684 1030,684 1031,684 1031,684 1032,684 1032,684 1033,684 1033,684 1034,684 1035,684 1035,684 1036,684 1036,684 1037,684 1038,684 1038,684 1039,684 1039,684 1040,684 1040,684 1041,684 1042,684 1042,684 1043,684 1043,684 1044,684 1044,684 1045,684 1046,684 1046,684 1047,684 1047,684 1048,684 1049,684 1049,684 1050,684 1050,684 1051,684 1051,684 1052,684 1053,684 1053,684 1054,684 1054,684 1055,684 1056,684 1056,684 1057,684 1057,684 1058,684 1058,684 1059,684 1060,684 1060,684 1061,684 1061,684 1062,683 1062,683 1063,683 1064,683 1064,683 1065,683 1065,683 1066,683 1067,683 1067,683 1068,683 1068,683 1069,683 1069,683 1070,683 1071,683 1071,683 1072,683 1072,683 1073,682 1073,682 1074,682 1075,682 1075,682 1076,682 1076,682 1077,682 1078,682 1078,682 1079,682 1079,682 1080,682 1080,682 1081,682 1082,682 1082,682 1083,682 1083,682 1084,682 1085,682 1085,682 1086,682 1086,681 1087,681 1087,681 1088,681 1089,681 1089,681 1090,681 1090,681 1091,681 1091,681 1092,681 1093,681 1093,681 1094,681 1094,681 1095,681 1096,681 1096,681 1097,681 1097,681 1098,681 1098,681 1099,681 1099,681 1100,681 1100,681 1101,681 1101,681 1102,681 1102,681 1103,681 1104,681 1104,681 1105,681 1105,681 1106,681 1107,681 1107,680 1108,680 1108,680 1109,680 1109,680 1110,680 1111,680 1111,680 1112,679 1112,679 1113,679 1114,679 1114,679 1115,679 1115,679 1116,679 1116,679 1117,679 1118,679 1118,679 1119,679 1119,679 1120,679 1120,679 1121,679 1122,679 1122,679 1123,679 1123,679 1124,679 1125,679 1125,679 1126,679 1126,679 1127,679 1127,679 1128,679 1129,679 1129,679 1130,679 1130,679 1131,679 1131,679 1132,679 1133,679 1133,679 1134,678 1134,678 1135,678 1136,678 1136,678 1137,678 1137,678 1138,678 1138,678 1139,678 1140,678 1140,678 1141,678 1141,678 1142,678 1143,678 1143,678 1144,678 1144,678 1145,678 1145,678 1146,678 1147,678 1147,678 1148,678 1148,678 1149,678 1149,678 1150,678 1151,678 1151,678 1152,678 1152,678 1153,678 1154,678 1154,678 1155,678 1155,678 1156,678 1156,678 1157,678 1158,678 1158,678 1159,678 1159,679 1160,678 1160,678 1161,678 1162,678 1162,678 1163,678 1163,678 1164,678 1165,678 1165,678 1166,678 1166,678 1167,678 1167,678 1168,678 1169,678 1169,678 1170,678 1170,678 1171,678 1172,678 1172,678 1173,678 1173,678 1174,678 1174,678 1175,678 1176,678 1176,678 1177,678 1177,678 1178,678 1178,678 1179,678 1180,677 1180,677 1181,677 1181,677 1181,677 1181,677 1182,677 1183,677 1183,677 1183,677 1183,677 1184,677 1184,677 1184,677 1185,677 1185,677 1185,677 1185,677 1186,677 1186,677 1187,677 1187,677 1187,677 1187,677 1188,677 1188,677 1188,677 1188,677 1189,677 1189,677 1190,677 1190,677 "/>
<polyline fill="none" opacity="1" stroke="#BD19E6" stroke-width="2" points="545,738 546,738 569,738 587,738 608,738 609,737 618,737 630,737 635,736 640,736 648,736 651,736 652,735 655,735 661,735 678,735 678,734 684,734 691,734 698,734 699,734 700,733 702,733 705,733 706,732 710,732 710,732 714,732 715,732 716,732 716,732 717,732 720,731 721,731 721,731 722,731 725,731 727,731 728,730 728,730 730,730 731,730 733,730 734,729 734,729 735,729 736,729 736,729 737,729 738,728 739,729 740,728 742,728 744,728 745,728 747,728 748,728 750,727 751,727 753,727 756,726 757,726 757,726 760,726 763,725 764,725 764,725 769,724 770,724 770,724 771,723 774,723 775,723 776,723 776,722 777,722 778,721 778,721 779,721 780,721 781,721 781,721 782,720 782,720 783,720 784,719 785,719 786,719 787,718 788,718 789,718 789,717 790,717 790,717 791,717 792,717 792,717 793,717 793,716 794,716 794,716 795,716 796,715 796,715 797,715 797,714 798,714 799,714 800,713 801,713 802,713 803,713 803,712 804,712 804,711 805,711 807,711 807,710 808,710 808,710 809,710 810,710 810,710 811,710 811,709 812,709 812,709 813,709 814,709 814,709 815,709 815,709 816,709 817,709 817,709 818,709 818,708 819,708 819,708 820,708 821,708 821,708 822,708 822,708 823,708 823,708 824,707 825,707 826,707 826,707 827,707 828,706 828,706 829,706 829,706 830,706 830,706 832,705 832,705 833,705 833,705 834,705 834,705 835,705 836,705 836,704 837,704 837,704 838,704 839,704 839,703 840,703 840,703 841,703 841,703 842,703 843,703 843,703 844,703 845,703 846,702 846,702 847,702 847,702 848,702 848,702 849,701 850,701 850,701 851,701 851,701 852,701 852,700 853,699 854,699 854,699 855,698 855,698 856,698 857,698 857,698 858,698 858,698 859,698 859,697 861,697 861,697 862,697 862,697 863,697 863,696 865,696 865,695 866,695 867,695 868,695 868,695 869,695 869,695 870,695 870,695 872,694 872,694 873,694 873,694 874,694 875,693 875,693 875,693 876,693 876,693 877,693 877,693 879,692 879,692 880,692 880,691 881,691 881,691 882,691 883,690 883,690 884,690 884,690 885,689 886,689 886,688 887,688 887,688 888,688 888,688 889,688 890,687 890,687 891,687 891,686 892,686 892,686 893,686 894,685 894,685 895,685 895,685 896,685 897,684 897,684 898,684 898,684 899,684 899,684 900,683 901,683 901,683 902,682 902,682 903,682 904,682 904,682 905,682 905,681 906,681 906,681 907,681 908,681 909,681 909,681 910,681 910,681 911,681 912,681 912,681 913,681 913,681 914,681 915,680 915,680 916,680 916,680 917,680 917,680 918,679 919,679 919,679 920,679 920,678 921,678 922,678 922,677 923,677 923,677 924,676 924,675 925,675 926,675 926,674 927,674 927,674 928,674 928,673 929,673 930,673 930,673 931,672 931,671 932,671 933,671 933,671 934,670 934,669 935,668 935,668 936,668 937,667 937,667 938,667 938,666 939,665 939,665 940,664 941,664 941,664 942,663 942,663 943,663 944,663 944,663 945,662 945,662 946,662 946,662 947,662 948,661 948,661 949,661 949,661 950,660 951,660 951,659 952,659 952,658 953,658 953,658 954,658 955,658 955,657 956,657 956,657 957,657 957,656 958,656 959,656 959,656 960,655 960,655 961,655 962,655 962,655 963,655 963,654 964,654 964,654 965,653 966,653 966,652 967,652 967,652 968,652 968,651 969,651 970,650 970,650 971,650 971,649 972,648 973,648 973,648 974,648 974,647 975,647 975,646 976,646 977,645 977,645 978,645 978,644 979,644 980,644 980,644 981,643 981,643 982,643 982,642 983,642 984,642 984,641 985,641 985,641 986,641 986,641 987,641 988,640 988,639 989,639 989,639 990,639 991,639 991,637 992,637 992,637 993,637 993,637 994,637 995,637 995,637 996,637 996,636 997,636 997,636 998,635 999,634 999,634 1000,634 1000,634 1001,633 1002,633 1002,633 1003,632 1003,632 1004,631 1004,631 1005,631 1006,630 1006,630 1007,630 1007,630 1008,629 1009,629 1009,629 1010,629 1010,628 1011,627 1011,627 1012,627 1013,626 1013,626 1014,626 1014,626 1015,626 1015,625 1016,625 1017,624 1017,624 1018,624 1018,624 1019,623 1020,623 1020,623 1021,623 1021,622 1022,622 1022,621 1023,621 1024,621 1024,621 1025,620 1025,620 1026,620 1026,619 1027,619 1028,619 1028,618 1029,618 1029,617 1030,617 1031,616 1031,616 1032,616 1032,616 1033,615 1033,615 1034,614 1035,614 1035,614 1036,614 1036,614 1037,614 1038,613 1038,613 1039,613 1039,612 1040,612 1040,612 1041,612 1042,612 1042,611 1043,611 1043,610 1044,610 1044,609 1045,609 1046,609 1046,608 1047,608 1047,608 1048,607 1049,607 1049,607 1050,607 1050,606 1051,606 1051,605 1052,605 1053,605 1053,604 1054,604 1054,603 1055,602 1056,602 1056,602 1057,602 1057,601 1058,600 1058,600 1059,600 1060,599 1060,599 1061,598 1061,598 1062,598 1062,597 1063,597 1064,597 1064,596 1065,595 1066,595 1067,595 1067,594 1068,594 1068,594 1069,593 1069,593 1070,593 1071,593 1071,592 1072,592 1072,591 1073,591 1073,590 1074,590 1075,589 1075,589 1076,588 1076,588 1077,587 1078,587 1078,586 1079,585 1079,585 1080,585 1080,585 1081,585 1082,584 1082,583 1083,583 1083,582 1084,582 1085,581 1085,581 1086,581 1086,579 1087,579 1087,578 1088,577 1089,577 1089,576 1090,576 1090,575 1091,575 1091,574 1092,573 1093,573 1093,573 1094,572 1094,572 1095,571 1096,571 1096,571 1097,570 1097,569 1098,569 1098,568 1099,568 1099,568 1100,567 1100,567 1101,566 1101,566 1102,566 1102,565 1103,563 1104,562 1104,561 1105,560 1105,559 1106,559 1107,559 1107,559 1108,559 1108,558 1109,558 1109,558 1110,558 1111,558 1111,557 1112,556 1112,556 1113,555 1114,554 1114,554 1115,553 1115,553 1116,552 1116,551 1117,551 1118,551 1118,550 1119,550 1119,550 1120,549 1120,549 1121,548 1122,548 1122,548 1123,547 1123,547 1124,547 1125,546 1125,546 1126,546 1126,545 1127,545 1127,543 1128,543 1129,543 1129,541 1130,541 1130,541 1131,541 1131,541 1132,539 1133,539 1133,538 1134,538 1134,537 1135,536 1136,535 1136,534 1137,534 1137,534 1138,534 1138,533 1139,533 1140,532 1140,532 1141,531 1141,531 1142,530 1143,530 1143,529 1144,529 1144,529 1145,528 1145,528 1146,528 1147,527 1147,526 1148,526 1148,525 1149,524 1149,524 1150,523 1151,523 1151,522 1152,521 1152,521 1153,521 1154,521 1154,520 1155,520 1155,519 1156,519 1156,519 1157,518 1158,518 1158,517 1159,517 1159,516 1160,516 1160,516 1161,515 1162,514 1162,514 1163,513 1163,513 1164,512 1165,511 1165,511 1166,510 1166,510 1167,509 1167,509 1168,508 1169,508 1169,508 1170,507 1170,507 1171,506 1172,505 1172,504 1173,503 1173,503 1174,502 1174,501 1175,501 1176,500 1176,500 1177,499 1177,498 1178,498 1178,497 1179,497 1180,496 1180,496 1181,496 1181,496 1181,496 1181,495 1182,494 1183,493 1183,493 1183,493 1183,492 1184,492 1184,492 1184,492 1185,492 1185,491 1185,491 1185,490 1186,490 1186,490 1187,490 1187,490 1187,490 1187,489 1188,489 1188,489 1188,489 1188,488 1189,488 1189,487 1190,487 1190,487 "/>
<rect x="1088" y="329" width="97" height="91" opacity="1" fill="#FFFFFF" stroke="none"/>
<rect x="1088" y="329" width="97" height="91" opacity="1" fill="none" stroke="#000000"/>
<text x="1128" y="339" dy="0.76em" text-anchor="start" font-family="sans-serif" font-size="9.67741935483871" opacity="1" fill="#000000">
argparse
</text>
<text x="1128" y="354" dy="0.76em" text-anchor="start" font-family="sans-serif" font-size="9.67741935483871" opacity="1" fill="#000000">
clap
</text>
<text x="1128" y="369" dy="0.76em" text-anchor="start" font-family="sans-serif" font-size="9.67741935483871" opacity="1" fill="#000000">
docopt
</text>
<text x="1128" y="384" dy="0.76em" text-anchor="start" font-family="sans-serif" font-size="9.67741935483871" opacity="1" fill="#000000">
getopts
</text>
<text x="1128" y="399" dy="0.76em" text-anchor="start" font-family="sans-serif" font-size="9.67741935483871" opacity="1" fill="#000000">
structopt
</text>
<polyline fill="none" opacity="1" stroke="#E61919" stroke-width="2" points="1098,343 1118,343 "/>
<polyline fill="none" opacity="1" stroke="#BDE619" stroke-width="2" points="1098,359 1118,359 "/>
<polyline fill="none" opacity="1" stroke="#19E66B" stroke-width="2" points="1098,374 1118,374 "/>
<polyline fill="none" opacity="1" stroke="#196BE6" stroke-width="2" points="1098,389 1118,389 "/>
<polyline fill="none" opacity="1" stroke="#BD19E6" stroke-width="2" points="1098,404 1118,404 "/>
</svg>
