<svg width="1200" height="800" xmlns="http://www.w3.org/2000/svg">
<rect x="0" y="0" width="1199" height="799" opacity="1" fill="#FFFFFF" stroke="none"/>
<line opacity="0.1" stroke="#000000" stroke-width="1" x1="60" y1="728" x2="1190" y2="728"/>
<line opacity="0.1" stroke="#000000" stroke-width="1" x1="60" y1="718" x2="1190" y2="718"/>
<line opacity="0.1" stroke="#000000" stroke-width="1" x1="60" y1="707" x2="1190" y2="707"/>
<line opacity="0.1" stroke="#000000" stroke-width="1" x1="60" y1="697" x2="1190" y2="697"/>
<line opacity="0.1" stroke="#000000" stroke-width="1" x1="60" y1="686" x2="1190" y2="686"/>
<line opacity="0.1" stroke="#000000" stroke-width="1" x1="60" y1="676" x2="1190" y2="676"/>
<line opacity="0.1" stroke="#000000" stroke-width="1" x1="60" y1="665" x2="1190" y2="665"/>
<line opacity="0.1" stroke="#000000" stroke-width="1" x1="60" y1="655" x2="1190" y2="655"/>
<line opacity="0.1" stroke="#000000" stroke-width="1" x1="60" y1="644" x2="1190" y2="644"/>
<line opacity="0.1" stroke="#000000" stroke-width="1" x1="60" y1="634" x2="1190" y2="634"/>
<line opacity="0.1" stroke="#000000" stroke-width="1" x1="60" y1="623" x2="1190" y2="623"/>
<line opacity="0.1" stroke="#000000" stroke-width="1" x1="60" y1="613" x2="1190" y2="613"/>
<line opacity="0.1" stroke="#000000" stroke-width="1" x1="60" y1="602" x2="1190" y2="602"/>
<line opacity="0.1" stroke="#000000" stroke-width="1" x1="60" y1="592" x2="1190" y2="592"/>
<line opacity="0.1" stroke="#000000" stroke-width="1" x1="60" y1="581" x2="1190" y2="581"/>
<line opacity="0.1" stroke="#000000" stroke-width="1" x1="60" y1="571" x2="1190" y2="571"/>
<line opacity="0.1" stroke="#000000" stroke-width="1" x1="60" y1="560" x2="1190" y2="560"/>
<line opacity="0.1" stroke="#000000" stroke-width="1" x1="60" y1="550" x2="1190" y2="550"/>
<line opacity="0.1" stroke="#000000" stroke-width="1" x1="60" y1="539" x2="1190" y2="539"/>
<line opacity="0.1" stroke="#000000" stroke-width="1" x1="60" y1="529" x2="1190" y2="529"/>
<line opacity="0.1" stroke="#000000" stroke-width="1" x1="60" y1="518" x2="1190" y2="518"/>
<line opacity="0.1" stroke="#000000" stroke-width="1" x1="60" y1="508" x2="1190" y2="508"/>
<line opacity="0.1" stroke="#000000" stroke-width="1" x1="60" y1="497" x2="1190" y2="497"/>
<line opacity="0.1" stroke="#000000" stroke-width="1" x1="60" y1="487" x2="1190" y2="487"/>
<line opacity="0.1" stroke="#000000" stroke-width="1" x1="60" y1="477" x2="1190" y2="477"/>
<line opacity="0.1" stroke="#000000" stroke-width="1" x1="60" y1="466" x2="1190" y2="466"/>
<line opacity="0.1" stroke="#000000" stroke-width="1" x1="60" y1="456" x2="1190" y2="456"/>
<line opacity="0.1" stroke="#000000" stroke-width="1" x1="60" y1="445" x2="1190" y2="445"/>
<line opacity="0.1" stroke="#000000" stroke-width="1" x1="60" y1="435" x2="1190" y2="435"/>
<line opacity="0.1" stroke="#000000" stroke-width="1" x1="60" y1="424" x2="1190" y2="424"/>
<line opacity="0.1" stroke="#000000" stroke-width="1" x1="60" y1="414" x2="1190" y2="414"/>
<line opacity="0.1" stroke="#000000" stroke-width="1" x1="60" y1="403" x2="1190" y2="403"/>
<line opacity="0.1" stroke="#000000" stroke-width="1" x1="60" y1="393" x2="1190" y2="393"/>
<line opacity="0.1" stroke="#000000" stroke-width="1" x1="60" y1="382" x2="1190" y2="382"/>
<line opacity="0.1" stroke="#000000" stroke-width="1" x1="60" y1="372" x2="1190" y2="372"/>
<line opacity="0.1" stroke="#000000" stroke-width="1" x1="60" y1="361" x2="1190" y2="361"/>
<line opacity="0.1" stroke="#000000" stroke-width="1" x1="60" y1="351" x2="1190" y2="351"/>
<line opacity="0.1" stroke="#000000" stroke-width="1" x1="60" y1="340" x2="1190" y2="340"/>
<line opacity="0.1" stroke="#000000" stroke-width="1" x1="60" y1="330" x2="1190" y2="330"/>
<line opacity="0.1" stroke="#000000" stroke-width="1" x1="60" y1="319" x2="1190" y2="319"/>
<line opacity="0.1" stroke="#000000" stroke-width="1" x1="60" y1="309" x2="1190" y2="309"/>
<line opacity="0.1" stroke="#000000" stroke-width="1" x1="60" y1="298" x2="1190" y2="298"/>
<line opacity="0.1" stroke="#000000" stroke-width="1" x1="60" y1="288" x2="1190" y2="288"/>
<line opacity="0.1" stroke="#000000" stroke-width="1" x1="60" y1="277" x2="1190" y2="277"/>
<line opacity="0.1" stroke="#000000" stroke-width="1" x1="60" y1="267" x2="1190" y2="267"/>
<line opacity="0.1" stroke="#000000" stroke-width="1" x1="60" y1="256" x2="1190" y2="256"/>
<line opacity="0.1" stroke="#000000" stroke-width="1" x1="60" y1="246" x2="1190" y2="246"/>
<line opacity="0.1" stroke="#000000" stroke-width="1" x1="60" y1="235" x2="1190" y2="235"/>
<line opacity="0.1" stroke="#000000" stroke-width="1" x1="60" y1="225" x2="1190" y2="225"/>
<line opacity="0.1" stroke="#000000" stroke-width="1" x1="60" y1="214" x2="1190" y2="214"/>
<line opacity="0.1" stroke="#000000" stroke-width="1" x1="60" y1="204" x2="1190" y2="204"/>
<line opacity="0.1" stroke="#000000" stroke-width="1" x1="60" y1="193" x2="1190" y2="193"/>
<line opacity="0.1" stroke="#000000" stroke-width="1" x1="60" y1="183" x2="1190" y2="183"/>
<line opacity="0.1" stroke="#000000" stroke-width="1" x1="60" y1="172" x2="1190" y2="172"/>
<line opacity="0.1" stroke="#000000" stroke-width="1" x1="60" y1="162" x2="1190" y2="162"/>
<line opacity="0.1" stroke="#000000" stroke-width="1" x1="60" y1="151" x2="1190" y2="151"/>
<line opacity="0.1" stroke="#000000" stroke-width="1" x1="60" y1="141" x2="1190" y2="141"/>
<line opacity="0.1" stroke="#000000" stroke-width="1" x1="60" y1="130" x2="1190" y2="130"/>
<line opacity="0.1" stroke="#000000" stroke-width="1" x1="60" y1="120" x2="1190" y2="120"/>
<line opacity="0.1" stroke="#000000" stroke-width="1" x1="60" y1="109" x2="1190" y2="109"/>
<line opacity="0.1" stroke="#000000" stroke-width="1" x1="60" y1="99" x2="1190" y2="99"/>
<line opacity="0.1" stroke="#000000" stroke-width="1" x1="60" y1="89" x2="1190" y2="89"/>
<line opacity="0.1" stroke="#000000" stroke-width="1" x1="60" y1="78" x2="1190" y2="78"/>
<line opacity="0.1" stroke="#000000" stroke-width="1" x1="60" y1="68" x2="1190" y2="68"/>
<line opacity="0.1" stroke="#000000" stroke-width="1" x1="60" y1="57" x2="1190" y2="57"/>
<line opacity="0.1" stroke="#000000" stroke-width="1" x1="60" y1="47" x2="1190" y2="47"/>
<line opacity="0.1" stroke="#000000" stroke-width="1" x1="60" y1="36" x2="1190" y2="36"/>
<line opacity="0.1" stroke="#000000" stroke-width="1" x1="60" y1="26" x2="1190" y2="26"/>
<line opacity="0.1" stroke="#000000" stroke-width="1" x1="60" y1="15" x2="1190" y2="15"/>
<text x="10" y="375" dy="0.76em" text-anchor="middle" font-family="sans-serif" font-size="9.67741935483871" opacity="1" fill="#000000" transform="rotate(270, 10, 375)">
Number of dependent crates
</text>
<line opacity="0.2" stroke="#000000" stroke-width="1" x1="60" y1="634" x2="1190" y2="634"/>
<line opacity="0.2" stroke="#000000" stroke-width="1" x1="60" y1="529" x2="1190" y2="529"/>
<line opacity="0.2" stroke="#000000" stroke-width="1" x1="60" y1="424" x2="1190" y2="424"/>
<line opacity="0.2" stroke="#000000" stroke-width="1" x1="60" y1="319" x2="1190" y2="319"/>
<line opacity="0.2" stroke="#000000" stroke-width="1" x1="60" y1="214" x2="1190" y2="214"/>
<line opacity="0.2" stroke="#000000" stroke-width="1" x1="60" y1="109" x2="1190" y2="109"/>
<polyline fill="none" opacity="1" stroke="#000000" stroke-width="1" points="59,10 59,740 "/>
<text x="50" y="634" dy="0.5ex" text-anchor="end" font-family="sans-serif" font-size="9.67741935483871" opacity="1" fill="#000000">
500
</text>
<polyline fill="none" opacity="1" stroke="#000000" stroke-width="1" points="54,634 59,634 "/>
<text x="50" y="529" dy="0.5ex" text-anchor="end" font-family="sans-serif" font-size="9.67741935483871" opacity="1" fill="#000000">
1000
</text>
<polyline fill="none" opacity="1" stroke="#000000" stroke-width="1" points="54,529 59,529 "/>
<text x="50" y="424" dy="0.5ex" text-anchor="end" font-family="sans-serif" font-size="9.67741935483871" opacity="1" fill="#000000">
1500
</text>
<polyline fill="none" opacity="1" stroke="#000000" stroke-width="1" points="54,424 59,424 "/>
<text x="50" y="319" dy="0.5ex" text-anchor="end" font-family="sans-serif" font-size="9.67741935483871" opacity="1" fill="#000000">
2000
</text>
<polyline fill="none" opacity="1" stroke="#000000" stroke-width="1" points="54,319 59,319 "/>
<text x="50" y="214" dy="0.5ex" text-anchor="end" font-family="sans-serif" font-size="9.67741935483871" opacity="1" fill="#000000">
2500
</text>
<polyline fill="none" opacity="1" stroke="#000000" stroke-width="1" points="54,214 59,214 "/>
<text x="50" y="109" dy="0.5ex" text-anchor="end" font-family="sans-serif" font-size="9.67741935483871" opacity="1" fill="#000000">
3000
</text>
<polyline fill="none" opacity="1" stroke="#000000" stroke-width="1" points="54,109 59,109 "/>
<polyline fill="none" opacity="1" stroke="#000000" stroke-width="1" points="60,740 1190,740 "/>
<text x="60" y="750" dy="0.76em" text-anchor="middle" font-family="sans-serif" font-size="9.67741935483871" opacity="1" fill="#000000">
2014-11-20Z
</text>
<polyline fill="none" opacity="1" stroke="#000000" stroke-width="1" points="60,740 60,745 "/>
<text x="174" y="750" dy="0.76em" text-anchor="middle" font-family="sans-serif" font-size="9.67741935483871" opacity="1" fill="#000000">
2015-06-11Z
</text>
<polyline fill="none" opacity="1" stroke="#000000" stroke-width="1" points="174,740 174,745 "/>
<text x="288" y="750" dy="0.76em" text-anchor="middle" font-family="sans-serif" font-size="9.67741935483871" opacity="1" fill="#000000">
2015-12-31Z
</text>
<polyline fill="none" opacity="1" stroke="#000000" stroke-width="1" points="288,740 288,745 "/>
<text x="403" y="750" dy="0.76em" text-anchor="middle" font-family="sans-serif" font-size="9.67741935483871" opacity="1" fill="#000000">
2016-07-21Z
</text>
<polyline fill="none" opacity="1" stroke="#000000" stroke-width="1" points="403,740 403,745 "/>
<text x="517" y="750" dy="0.76em" text-anchor="middle" font-family="sans-serif" font-size="9.67741935483871" opacity="1" fill="#000000">
2017-02-09Z
</text>
<polyline fill="none" opacity="1" stroke="#000000" stroke-width="1" points="517,740 517,745 "/>
<text x="632" y="750" dy="0.76em" text-anchor="middle" font-family="sans-serif" font-size="9.67741935483871" opacity="1" fill="#000000">
2017-08-31Z
</text>
<polyline fill="none" opacity="1" stroke="#000000" stroke-width="1" points="632,740 632,745 "/>
<text x="746" y="750" dy="0.76em" text-anchor="middle" font-family="sans-serif" font-size="9.67741935483871" opacity="1" fill="#000000">
2018-03-22Z
</text>
<polyline fill="none" opacity="1" stroke="#000000" stroke-width="1" points="746,740 746,745 "/>
<text x="860" y="750" dy="0.76em" text-anchor="middle" font-family="sans-serif" font-size="9.67741935483871" opacity="1" fill="#000000">
2018-10-11Z
</text>
<polyline fill="none" opacity="1" stroke="#000000" stroke-width="1" points="860,740 860,745 "/>
<text x="975" y="750" dy="0.76em" text-anchor="middle" font-family="sans-serif" font-size="9.67741935483871" opacity="1" fill="#000000">
2019-05-02Z
</text>
<polyline fill="none" opacity="1" stroke="#000000" stroke-width="1" points="975,740 975,745 "/>
<text x="1089" y="750" dy="0.76em" text-anchor="middle" font-family="sans-serif" font-size="9.67741935483871" opacity="1" fill="#000000">
2019-11-21Z
</text>
<polyline fill="none" opacity="1" stroke="#000000" stroke-width="1" points="1089,740 1089,745 "/>
<polyline fill="none" opacity="1" stroke="#E61919" stroke-width="2" points="174,738 180,738 180,738 220,738 249,737 280,737 290,737 291,737 299,736 302,737 305,736 306,736 307,736 310,736 311,736 311,736 313,736 323,736 323,736 338,736 339,736 344,735 351,735 355,735 355,734 369,734 371,734 376,734 395,734 395,734 397,734 398,734 398,734 399,734 400,734 401,734 402,734 402,734 403,734 404,734 405,734 406,734 450,734 451,734 451,733 452,733 454,733 480,733 481,733 481,733 482,733 484,733 484,733 485,733 486,733 487,733 489,733 490,732 492,732 492,732 493,732 493,732 494,732 496,732 497,732 499,732 500,732 500,732 501,732 501,732 502,732 504,732 505,732 507,732 508,732 508,732 509,732 510,732 510,732 511,732 512,732 513,732 513,732 515,732 515,732 517,732 518,732 518,732 519,732 521,732 522,732 522,732 524,732 525,732 526,732 527,732 529,731 530,731 530,731 531,731 532,731 533,731 534,731 535,731 536,731 536,731 537,731 539,731 540,731 541,731 542,731 542,731 543,731 544,731 545,731 546,731 547,731 548,731 549,731 550,731 551,731 552,731 554,731 554,731 556,731 559,731 559,731 560,731 563,731 565,731 566,731 568,731 568,731 570,731 571,731 571,730 573,730 575,730 577,731 578,731 579,731 580,731 581,731 581,731 582,731 584,731 585,731 585,731 586,731 587,731 588,731 588,731 589,731 589,731 590,731 590,730 592,730 593,730 595,730 597,730 601,730 602,730 602,730 603,730 603,730 604,730 604,730 605,730 607,730 608,730 608,730 609,730 610,730 610,730 611,730 611,730 612,730 612,730 614,730 615,729 615,729 618,729 619,729 619,729 620,729 620,729 621,729 622,729 623,729 628,729 630,729 633,729 634,729 634,729 635,729 638,729 638,729 642,729 643,729 643,729 654,729 655,729 656,729 659,729 661,729 666,728 668,728 670,728 671,728 672,728 673,728 675,728 678,728 679,728 682,728 682,728 683,728 685,728 686,728 687,728 687,728 688,728 689,728 690,728 690,728 691,728 692,728 692,728 693,728 694,728 695,728 695,728 696,728 696,728 697,728 697,728 699,728 700,728 701,728 701,728 702,728 703,728 704,728 704,728 706,728 707,728 707,728 708,728 709,728 709,728 710,728 710,728 712,728 712,728 713,728 716,728 716,728 717,728 718,728 718,728 719,728 720,728 721,728 721,728 722,728 723,728 726,728 727,728 727,728 729,728 730,728 730,728 733,728 734,728 737,728 738,728 738,728 739,728 739,728 740,728 740,728 741,728 743,728 744,728 744,728 745,728 748,728 748,728 749,728 749,728 750,728 751,728 752,728 753,728 755,728 756,727 756,727 757,727 757,727 758,727 759,727 760,727 761,727 761,727 762,727 762,727 763,727 763,727 764,727 765,727 765,727 766,727 766,727 767,727 767,727 768,727 768,727 769,727 770,727 771,727 771,727 772,727 774,727 775,727 775,727 776,727 779,727 780,727 780,727 781,727 781,727 784,727 784,727 785,727 785,727 786,727 787,727 787,727 788,727 788,727 789,727 789,727 790,727 790,727 791,727 792,727 792,727 794,727 796,727 796,727 797,727 798,727 798,727 799,727 799,727 800,727 801,727 801,727 802,727 802,727 803,727 803,727 804,727 805,727 806,727 806,727 807,727 807,727 808,727 809,727 809,727 810,727 810,727 811,727 812,727 812,727 814,727 814,727 816,727 816,727 817,727 818,727 818,727 819,727 820,727 821,727 821,727 823,727 823,727 824,727 824,727 825,727 825,727 826,727 827,727 827,727 828,727 829,727 829,727 830,727 830,727 831,727 832,727 832,727 833,727 834,727 835,727 836,727 837,727 837,727 838,727 838,727 839,727 840,727 841,727 841,727 842,727 842,727 843,727 844,727 845,727 846,727 846,727 847,727 847,727 849,727 849,727 850,727 850,727 851,727 851,727 852,727 852,727 852,727 853,727 854,727 854,727 855,727 855,727 856,727 856,727 857,727 858,727 859,727 859,727 860,727 860,727 861,727 861,727 862,727 863,727 863,727 864,727 865,727 866,727 867,727 867,726 868,726 869,726 869,726 871,726 872,726 872,726 873,726 873,726 874,726 874,726 875,726 876,726 876,726 877,726 877,726 878,726 879,726 880,726 880,726 882,726 882,726 883,726 884,726 885,726 885,726 886,726 887,726 887,726 888,726 889,726 889,726 890,726 891,726 891,726 892,726 893,726 894,726 894,726 895,726 896,726 896,726 897,726 899,726 899,726 900,726 901,726 902,725 903,725 903,725 904,725 905,725 905,725 906,725 907,725 907,725 908,725 908,725 909,725 910,725 911,725 911,725 912,725 912,725 913,725 913,725 914,725 914,725 916,725 916,725 917,725 918,725 920,725 920,725 921,725 921,725 922,725 923,726 923,726 924,726 925,725 925,725 926,725 926,725 927,725 928,725 929,725 930,725 930,725 931,725 932,725 933,725 934,725 934,725 935,725 935,725 936,725 936,725 937,725 938,725 938,725 939,725 939,725 940,725 941,725 942,725 942,725 943,725 943,725 944,725 944,725 945,725 945,725 946,725 947,725 947,725 948,725 948,725 949,725 949,725 951,725 951,725 952,725 952,725 953,725 953,725 954,725 955,725 956,725 956,725 957,725 957,725 958,725 958,725 960,725 960,725 961,725 961,725 962,725 962,725 964,725 965,725 967,725 968,725 969,725 970,725 970,725 971,725 971,725 972,725 973,725 973,725 974,725 974,725 975,725 975,724 976,724 976,724 977,724 978,724 979,724 980,724 982,724 982,724 983,724 983,724 984,724 985,724 985,724 987,724 988,724 988,724 989,724 989,724 990,724 991,724 991,724 992,724 993,724 994,724 994,724 995,724 996,724 996,724 998,724 999,724 1000,724 1000,724 1001,724 1002,724 1002,724 1003,724 1004,724 1004,724 1005,724 1006,724 1006,724 1007,724 1007,724 1008,724 1010,724 1011,724 1011,724 1012,724 1013,724 1013,724 1014,724 1014,724 1015,724 1016,724 1016,724 1017,724 1018,724 1019,724 1019,724 1020,724 1020,724 1022,724 1023,724 1023,724 1024,724 1024,724 1025,724 1025,724 1026,724 1027,724 1027,724 1028,724 1028,724 1029,724 1029,724 1030,724 1031,724 1031,724 1032,724 1032,724 1033,724 1035,724 1036,724 1036,724 1037,724 1038,724 1038,724 1039,724 1040,724 1041,724 1042,724 1042,724 1043,724 1044,724 1044,724 1045,724 1045,724 1046,724 1046,724 1047,724 1047,724 1049,724 1049,724 1052,724 1053,724 1053,724 1054,724 1054,724 1055,724 1056,724 1058,724 1058,724 1059,724 1059,724 1060,724 1060,724 1062,724 1062,724 1063,724 1064,724 1066,724 1066,724 1068,724 1068,724 1069,724 1069,724 1071,724 1071,724 1072,724 1073,724 1074,724 1075,724 1075,724 1076,724 1076,724 1077,724 1077,724 1078,724 1078,724 1079,724 1080,724 1080,724 1081,724 1081,724 1082,724 1082,724 1083,724 1084,724 1084,724 1085,724 1085,724 1086,724 1086,724 1087,724 1088,724 1089,724 1090,724 1090,724 1091,724 1091,724 1096,724 1097,724 1097,724 1098,724 1098,724 1099,724 1100,724 1100,723 1101,723 1102,723 1103,723 1105,723 1106,723 1106,723 1107,723 1108,723 1109,723 1109,723 1111,723 1111,723 1112,723 1112,723 1113,723 1114,723 1115,723 1115,723 1116,723 1116,723 1117,723 1117,723 1118,723 1118,723 1119,723 1120,723 1121,723 1122,723 1122,723 1123,723 1124,723 1124,723 1125,723 1125,723 1126,723 1127,723 1128,723 1128,723 1129,723 1129,723 1130,723 1130,723 1131,723 1131,723 1133,723 1133,723 1134,723 1135,723 1136,723 1137,723 1137,723 1138,723 1138,723 1140,723 1141,723 1142,723 1143,723 1144,723 1144,723 1145,723 1146,723 1146,723 1147,723 1147,723 1148,723 1148,723 1149,723 1149,723 1150,723 1151,723 1151,723 1151,723 1151,723 1153,723 1153,723 1154,723 1154,723 1155,723 1155,723 1155,723 1156,723 1156,723 1156,723 1157,723 1157,723 1157,723 1157,723 1158,723 1159,723 1159,723 1159,723 1160,723 1160,723 1160,723 1160,723 1161,723 1161,723 1162,723 1162,723 1162,723 1162,723 1163,723 1164,723 1164,723 1164,723 1165,723 1165,723 1165,723 1165,723 1166,723 1166,723 1166,723 1167,723 1167,723 1168,723 1168,723 1168,723 1169,723 1170,723 1170,723 1171,723 1171,723 1171,723 1172,723 1172,723 1173,723 1173,723 1174,723 1174,723 1175,723 1175,723 1175,723 1176,723 1177,723 1177,723 1177,723 1178,723 1178,723 1179,723 1179,723 1179,723 1179,723 1180,723 1180,723 1181,723 1181,723 1182,723 1182,723 1182,723 1183,723 1183,723 1183,723 1184,723 1184,723 1185,723 1186,723 1186,723 1186,723 1187,723 1187,723 1188,723 1188,723 1188,723 1189,723 1189,723 1190,723 "/>
<polyline fill="none" opacity="1" stroke="#BDE619" stroke-width="2" points="133,738 160,738 182,738 185,738 198,738 205,737 207,737 209,737 216,737 217,737 220,737 227,736 231,736 236,736 240,736 245,736 248,735 249,735 249,735 251,735 252,734 252,734 256,734 256,733 258,733 262,733 263,733 265,732 272,732 275,732 276,732 277,731 278,731 280,731 282,731 287,730 287,730 288,730 289,730 292,729 293,729 294,729 295,729 295,729 299,728 301,728 302,728 303,728 304,727 307,727 307,727 311,727 314,726 317,726 318,725 319,725 319,725 320,725 321,724 322,724 323,724 324,724 325,724 326,724 327,723 328,723 330,723 331,723 332,723 333,723 333,723 335,722 338,722 341,722 343,721 344,722 345,721 347,721 349,721 349,721 350,721 350,721 351,721 351,720 352,720 353,720 354,720 355,720 355,720 358,719 359,719 360,719 360,719 362,719 362,719 363,719 363,719 364,719 365,718 366,718 366,718 367,718 368,718 371,718 371,718 372,718 372,718 373,718 373,718 376,718 377,718 377,718 378,718 378,717 379,717 380,717 380,717 381,717 381,717 382,717 382,717 383,717 384,717 384,717 385,717 385,717 386,716 386,716 387,716 388,716 389,715 389,715 390,715 390,715 391,715 392,715 394,715 394,715 395,714 395,714 396,714 397,714 398,713 398,713 399,713 400,713 402,713 403,712 403,712 404,711 404,711 406,711 407,711 408,711 408,710 409,710 410,710 411,710 411,710 412,710 412,709 413,709 413,709 414,709 415,708 415,708 416,708 417,708 418,708 419,708 419,708 420,708 420,707 421,707 421,707 422,707 423,707 424,707 425,706 425,706 426,706 426,706 427,705 428,705 428,705 429,705 429,705 430,705 431,705 432,683 433,682 434,682 434,682 435,681 435,681 436,681 437,681 438,681 438,681 439,680 439,680 440,680 440,679 441,679 442,679 442,678 443,678 443,678 444,678 444,677 445,677 446,677 446,677 447,677 447,677 448,676 448,676 449,676 450,675 450,675 451,675 451,674 452,673 452,673 453,673 454,672 455,672 456,668 456,668 457,668 458,668 459,668 459,668 460,668 460,668 461,668 461,668 463,668 464,667 464,667 465,667 465,667 466,667 466,667 467,667 468,666 468,666 469,665 469,665 470,665 471,665 471,665 472,664 473,664 473,664 474,664 474,664 475,664 475,664 476,663 477,663 478,663 478,663 479,662 480,662 481,661 481,661 482,661 482,661 483,661 483,661 484,661 484,661 485,660 486,659 487,659 487,659 488,659 488,658 489,658 490,658 490,658 491,658 491,658 492,657 492,657 493,657 493,657 494,657 495,657 495,656 496,656 496,656 497,656 497,656 498,655 499,655 499,655 500,655 501,655 501,655 502,654 502,654 503,654 504,654 504,654 505,653 505,653 506,652 506,652 507,652 508,652 508,651 509,651 509,651 510,650 510,650 511,649 512,649 512,648 513,648 513,648 514,647 514,647 515,646 515,646 516,646 517,646 517,646 518,645 518,644 519,644 519,644 520,643 521,643 521,643 522,642 522,642 523,641 523,641 524,641 524,641 525,641 526,641 526,641 527,640 527,640 528,639 528,639 529,639 530,639 530,638 531,638 531,637 532,636 532,636 533,636 533,636 534,636 535,636 535,636 536,635 536,635 537,635 537,635 538,634 539,634 539,634 540,633 540,632 541,632 541,631 542,631 543,631 544,631 544,630 545,630 545,630 546,629 546,629 547,629 548,628 548,628 549,627 549,627 550,626 550,626 551,626 552,626 552,625 553,625 553,624 554,624 554,624 555,624 555,623 556,623 557,622 557,622 558,622 558,622 559,622 559,621 560,621 561,620 561,620 562,620 562,620 563,620 563,620 564,620 564,619 565,618 566,618 566,618 567,617 567,616 568,616 568,616 569,616 570,616 570,616 571,615 571,615 572,615 572,615 573,615 573,614 574,614 575,613 575,613 576,613 576,613 577,612 577,612 578,611 579,611 579,611 580,610 580,610 581,609 581,609 582,609 583,608 583,608 584,608 584,608 585,608 585,607 586,607 586,606 587,605 588,605 588,604 589,604 589,603 590,603 590,603 591,602 592,602 592,602 593,602 593,602 594,602 594,602 595,602 595,602 596,601 597,601 597,600 598,600 598,600 599,600 599,600 600,599 601,599 601,598 602,598 602,598 603,598 603,598 604,597 604,597 605,597 606,596 606,595 607,594 607,594 608,594 608,593 609,593 610,593 610,592 611,592 611,592 612,592 612,592 613,591 614,591 614,591 615,590 615,590 616,590 616,590 617,590 617,589 618,589 619,589 619,588 620,588 620,587 621,587 621,587 622,587 623,586 623,586 624,586 624,585 625,585 625,585 626,585 626,585 627,585 628,585 628,584 629,583 629,583 630,583 630,582 631,582 632,582 632,582 633,582 633,582 634,582 634,581 635,581 635,581 636,581 637,580 637,580 638,580 638,580 639,579 639,579 640,578 641,578 641,578 642,577 642,577 643,577 643,577 644,577 645,576 645,576 646,576 646,576 647,572 647,571 648,570 648,570 649,570 650,570 650,569 651,569 651,569 652,568 652,568 653,567 654,567 654,566 655,566 655,565 656,565 656,564 657,564 657,564 658,564 659,564 659,564 660,563 660,563 661,563 661,562 662,562 663,562 663,561 664,561 664,560 665,560 665,559 666,559 666,558 667,557 668,557 668,557 669,556 669,556 670,556 670,556 671,556 672,556 672,555 673,555 673,555 674,555 674,554 675,554 676,554 676,553 677,553 677,553 678,553 678,552 679,553 679,552 680,552 681,551 681,551 682,551 682,551 683,550 683,550 684,550 685,549 685,549 686,549 686,549 687,548 687,548 688,548 688,547 689,547 690,546 690,545 691,545 691,545 692,544 692,543 693,543 694,543 694,542 695,542 695,542 696,542 696,541 697,541 697,540 698,540 699,540 699,540 700,540 700,539 701,539 701,539 702,539 703,538 703,538 704,538 704,538 705,538 705,538 706,538 707,537 707,537 708,537 708,537 709,536 709,535 710,535 710,535 711,534 712,534 712,534 713,533 713,533 714,533 714,532 715,532 716,531 716,531 717,531 717,531 718,530 718,526 719,525 719,525 720,524 721,524 721,523 722,522 722,522 723,522 723,521 724,520 725,520 725,519 726,518 726,517 727,517 727,516 728,516 728,515 729,515 730,515 730,515 731,514 731,514 732,513 732,513 733,513 734,512 734,511 735,511 735,510 736,510 736,510 737,509 738,509 738,508 739,508 739,508 740,507 740,506 741,505 741,505 742,504 743,504 743,504 744,504 744,504 745,504 745,503 746,502 747,502 747,503 748,502 748,501 749,501 749,500 750,499 750,499 751,498 752,498 752,497 753,496 753,496 754,496 754,496 755,496 756,496 756,495 757,495 757,495 758,494 758,494 759,493 759,493 760,494 761,493 761,492 762,492 762,492 763,491 763,491 764,490 765,490 765,490 766,490 766,490 767,490 767,490 768,490 768,490 769,490 770,489 770,488 771,488 771,488 772,488 772,487 773,487 774,486 774,485 775,485 775,485 776,485 776,484 777,484 778,484 778,483 779,483 779,483 780,482 780,482 781,482 781,481 782,481 783,481 783,480 784,480 784,479 785,479 785,479 786,478 787,478 787,478 788,477 788,477 789,477 789,476 790,476 790,476 791,475 792,475 792,474 793,474 793,473 794,473 794,472 795,472 796,471 796,470 797,470 797,470 798,470 798,470 799,469 799,468 800,468 801,467 801,467 802,467 802,467 803,466 803,465 804,464 805,464 805,464 806,464 806,464 807,463 807,462 808,462 809,461 809,461 810,460 810,460 811,460 811,459 812,459 812,459 813,458 814,458 814,457 815,457 815,457 816,457 816,456 817,456 818,456 818,455 819,455 819,455 820,455 820,455 821,455 821,455 822,454 823,454 823,453 824,453 824,453 825,452 825,452 826,451 827,451 827,451 828,451 828,450 829,450 829,450 830,450 830,450 831,450 832,449 832,449 833,448 833,448 834,448 834,448 835,448 836,447 836,447 837,447 837,446 838,446 838,446 839,446 840,445 840,444 841,444 841,443 842,443 842,443 843,441 843,441 844,440 845,440 845,440 846,440 846,440 847,439 847,438 848,438 849,437 849,437 850,436 850,435 851,435 851,435 852,434 852,434 852,433 853,432 854,432 854,432 855,431 855,430 856,430 856,429 857,428 858,428 858,428 859,428 859,427 860,427 860,426 861,427 861,426 862,419 863,419 863,418 864,418 864,417 865,417 865,417 866,417 867,415 867,414 868,414 868,413 869,413 869,413 870,412 871,412 871,411 872,410 872,409 873,408 873,408 874,408 874,408 875,407 876,407 876,406 877,405 877,405 878,404 878,404 879,403 880,403 880,402 881,402 881,401 882,401 882,400 883,400 883,399 884,399 885,399 885,398 886,397 886,397 887,397 887,397 888,396 889,396 889,396 890,396 890,395 891,395 891,394 892,393 892,393 893,392 894,392 894,391 895,391 895,391 896,391 896,391 897,390 898,390 898,389 899,389 899,388 900,388 900,388 901,387 902,387 902,386 903,386 903,385 904,384 904,384 905,385 905,384 906,383 907,382 907,381 908,379 908,379 909,379 909,378 910,376 911,375 911,375 912,374 912,374 913,373 913,373 914,372 914,372 915,372 916,371 916,371 917,370 917,370 918,370 918,369 919,368 920,367 920,367 921,366 921,366 922,365 922,365 923,364 923,364 924,363 925,363 925,362 926,362 926,362 927,361 927,360 928,360 929,360 929,359 930,358 930,357 931,357 931,357 932,357 933,356 933,355 934,355 934,355 935,354 935,353 936,353 936,353 937,353 938,352 938,351 939,351 939,351 940,350 940,349 941,349 942,348 942,348 943,346 943,346 944,346 944,345 945,345 945,345 946,344 947,343 947,343 948,342 948,342 949,342 949,341 950,341 951,340 951,340 952,339 952,338 953,337 953,337 954,336 954,335 955,334 956,333 956,333 957,332 957,332 958,332 958,331 959,331 960,331 960,329 961,329 961,328 962,328 962,328 963,327 964,327 964,326 965,326 965,325 966,325 966,324 967,324 967,324 968,323 969,322 969,322 970,321 970,320 971,320 971,318 972,318 973,317 973,317 974,316 974,316 975,314 975,314 976,313 976,313 977,313 978,312 978,312 979,311 979,311 980,311 980,310 981,310 982,310 982,310 983,309 983,308 984,306 984,306 985,306 985,305 986,305 987,303 987,303 988,302 988,302 989,302 989,301 990,300 991,299 991,298 992,298 992,297 993,296 993,296 994,295 994,295 995,294 996,293 996,293 997,292 997,291 998,291 998,290 999,289 1000,289 1000,289 1001,288 1001,288 1002,287 1002,287 1003,287 1004,286 1004,286 1005,284 1005,284 1006,283 1006,282 1007,281 1007,281 1008,281 1009,281 1009,281 1010,280 1010,280 1011,273 1011,274 1012,273 1013,272 1013,272 1014,271 1014,270 1015,270 1015,269 1016,268 1016,268 1017,267 1018,266 1018,266 1019,264 1019,263 1020,263 1020,263 1021,262 1022,262 1022,261 1023,261 1023,260 1024,259 1024,259 1025,259 1025,258 1026,258 1027,257 1027,257 1028,257 1028,256 1029,255 1029,255 1030,254 1031,254 1031,253 1032,253 1032,252 1033,251 1033,250 1034,249 1035,249 1035,248 1036,248 1036,248 1037,248 1037,246 1038,246 1038,245 1039,245 1040,245 1040,244 1041,244 1041,243 1042,243 1042,243 1043,242 1044,242 1044,242 1045,242 1045,241 1046,241 1046,240 1047,239 1047,238 1048,238 1049,237 1049,236 1050,236 1050,235 1051,235 1051,234 1052,234 1053,233 1053,232 1054,231 1054,231 1055,231 1055,230 1056,229 1056,229 1057,229 1058,228 1058,228 1059,228 1059,227 1060,227 1060,227 1061,226 1062,225 1062,225 1063,225 1063,224 1064,224 1064,224 1065,223 1066,221 1066,221 1067,220 1067,220 1068,220 1068,219 1069,219 1069,218 1069,218 1070,218 1071,218 1071,217 1072,216 1072,216 1073,216 1073,216 1074,215 1075,214 1075,213 1076,213 1076,213 1077,212 1077,212 1078,211 1078,210 1079,211 1080,210 1080,210 1081,208 1081,208 1082,207 1082,206 1083,206 1084,205 1084,204 1085,204 1085,203 1086,203 1086,201 1087,200 1087,200 1088,199 1089,199 1089,198 1090,198 1090,197 1091,197 1091,196 1092,196 1093,194 1093,193 1094,193 1094,192 1095,192 1095,192 1096,191 1097,191 1097,191 1098,191 1098,191 1099,190 1099,189 1100,189 1100,189 1101,188 1102,187 1102,187 1103,187 1103,186 1104,186 1104,186 1105,185 1106,185 1106,185 1107,184 1107,183 1108,181 1108,181 1109,180 1109,179 1110,179 1111,178 1111,177 1112,177 1112,177 1113,176 1113,175 1114,174 1115,173 1115,173 1116,172 1116,172 1117,170 1117,170 1118,169 1118,168 1119,167 1120,166 1120,166 1121,166 1121,165 1122,165 1122,164 1123,163 1124,162 1124,162 1125,161 1125,160 1126,160 1126,159 1127,158 1128,157 1128,156 1129,156 1129,155 1130,155 1130,154 1131,153 1131,153 1132,152 1133,151 1133,149 1134,148 1134,147 1135,147 1135,146 1136,146 1137,145 1137,143 1138,142 1138,142 1139,141 1139,141 1140,140 1140,139 1141,139 1142,138 1142,137 1143,136 1143,135 1144,134 1144,134 1145,133 1146,133 1146,132 1147,131 1147,130 1148,130 1148,129 1149,129 1149,129 1149,129 1149,129 1150,127 1151,127 1151,126 1151,126 1151,126 1152,125 1152,125 1152,125 1153,125 1153,124 1153,124 1153,123 1154,123 1154,122 1155,122 1155,121 1155,121 1155,119 1156,119 1156,119 1156,119 1156,118 1157,118 1157,117 1157,117 1157,116 1158,115 1159,115 1159,115 1159,114 1160,114 1160,113 1160,113 1160,112 1161,112 1161,112 1161,112 1161,112 1162,112 1162,112 1162,112 1162,111 1163,111 1164,111 1164,109 1164,109 1164,109 1165,109 1165,108 1165,108 1165,107 1166,107 1166,106 1166,106 1166,105 1167,105 1167,105 1168,105 1168,104 1168,104 1168,103 1169,102 1169,102 1169,102 1170,102 1170,101 1170,101 1170,101 1171,101 1171,101 1171,101 1171,100 1172,100 1172,100 1173,99 1173,98 1173,98 1173,97 1174,97 1174,96 1174,96 1174,96 1175,96 1175,96 1175,95 1176,95 1177,95 1177,94 1177,94 1177,94 1178,94 1178,92 1178,92 1178,92 1179,92 1179,91 1179,91 1179,90 1180,90 1180,89 1180,89 1180,89 1181,89 1181,88 1182,86 1182,86 1182,85 1183,85 1183,84 1183,84 1183,83 1184,83 1184,83 1184,83 1184,81 1185,81 1186,81 1186,80 1186,80 1186,79 1187,79 1187,78 1187,78 1187,77 1188,77 1188,77 1188,77 1188,76 1189,76 1189,75 1190,75 "/>
<polyline fill="none" opacity="1" stroke="#19E66B" stroke-width="2" points="60,738 60,738 61,738 70,738 76,737 76,737 83,737 86,737 90,736 95,736 97,736 98,736 98,735 102,735 106,735 112,735 114,734 121,734 124,734 125,734 129,734 141,734 145,733 147,733 147,733 149,733 151,733 154,733 155,733 155,733 156,733 159,733 159,733 160,733 161,733 162,733 162,732 163,732 163,732 164,732 165,731 165,731 166,731 167,731 167,731 168,731 168,731 169,731 169,731 170,731 171,731 171,731 172,731 172,731 173,731 174,731 175,731 176,731 176,731 177,731 177,731 178,731 178,730 180,730 180,730 181,730 181,730 182,730 183,730 183,730 184,729 185,729 185,729 186,729 187,729 187,729 188,729 189,729 189,729 190,729 190,729 191,729 191,729 193,729 194,729 195,729 196,729 197,729 198,729 199,729 199,729 200,728 200,728 201,728 202,728 203,728 204,728 205,728 205,728 206,728 207,728 208,728 208,728 209,728 211,728 212,728 212,728 213,727 213,727 214,727 215,727 216,727 216,727 217,727 217,727 218,727 219,727 220,727 220,727 221,727 221,727 222,727 223,727 224,727 224,727 225,727 225,727 226,727 227,727 227,727 229,726 230,726 231,725 232,725 233,725 233,725 234,725 234,725 235,725 235,725 236,725 236,725 237,725 238,725 238,725 239,725 240,725 241,725 242,725 242,725 243,725 243,725 244,725 244,725 245,725 245,725 246,725 247,725 248,725 248,725 249,724 250,724 251,724 251,724 252,724 252,724 253,724 253,724 255,724 255,724 256,724 256,724 257,724 257,724 258,724 260,724 261,724 261,724 262,724 262,724 263,724 264,724 265,724 266,724 266,723 267,723 267,723 268,722 269,722 269,722 270,722 270,722 271,722 271,722 272,722 273,722 274,722 274,722 275,722 276,722 276,722 277,721 278,721 278,721 279,721 279,721 280,721 280,721 281,721 282,721 282,721 283,721 284,721 284,721 285,721 286,721 286,721 287,721 287,721 288,721 288,721 289,721 289,721 290,721 291,720 291,720 292,720 292,720 293,720 293,720 294,720 295,720 295,720 296,720 296,720 297,720 297,720 298,720 298,720 299,720 300,720 300,720 301,720 301,720 302,720 302,720 303,720 304,719 304,719 305,719 305,719 306,719 306,719 307,719 307,719 308,719 309,719 309,719 310,719 310,718 311,718 311,718 312,718 313,718 313,718 314,718 314,718 315,718 316,718 316,718 317,718 318,718 318,717 319,717 320,717 320,717 321,717 322,717 322,717 323,717 323,717 324,717 324,717 325,717 326,717 326,716 327,716 327,716 328,716 328,716 329,716 329,716 330,716 331,716 331,716 332,716 332,716 333,716 333,716 334,716 335,716 335,716 336,716 336,715 337,715 337,715 338,715 338,715 339,715 340,715 340,715 341,715 341,715 342,715 342,715 343,715 344,715 344,715 345,715 345,715 346,715 346,715 347,715 347,715 348,715 349,715 349,715 350,714 351,714 352,714 353,714 353,714 354,714 354,714 355,714 355,714 356,714 357,714 357,714 358,714 358,714 359,714 359,714 360,714 360,713 361,713 362,713 362,713 363,713 363,713 364,713 364,713 365,713 366,713 366,713 367,713 367,713 368,712 368,712 369,712 369,712 370,712 371,712 372,712 373,712 373,712 374,712 375,712 375,712 376,712 376,712 377,712 377,712 378,712 379,712 380,712 380,712 381,711 381,711 382,711 382,711 383,711 384,711 384,711 385,711 385,711 386,711 386,711 387,711 388,711 388,711 389,711 389,711 390,711 390,711 391,711 391,711 392,711 393,711 393,711 394,711 394,711 395,711 395,711 396,711 397,711 397,711 398,711 398,711 399,711 399,711 400,711 400,711 401,711 402,710 402,710 403,710 403,710 404,710 404,710 405,710 406,710 406,710 407,710 407,710 408,710 408,710 409,710 409,710 410,710 411,710 411,709 412,709 412,709 413,709 413,709 414,709 415,709 415,709 416,709 416,709 417,709 417,709 418,709 419,709 419,709 420,709 420,709 421,709 421,709 422,709 422,709 423,708 424,708 424,708 425,708 425,708 426,708 426,708 427,708 428,708 428,708 429,708 429,708 430,708 430,708 431,708 431,708 432,708 433,708 433,708 434,708 434,708 435,708 435,708 436,708 437,707 437,707 438,707 438,707 439,707 439,707 440,707 440,707 441,707 442,707 442,707 443,707 444,707 444,707 445,707 446,707 446,707 447,707 447,707 448,707 448,707 449,707 450,707 450,707 451,707 451,707 452,707 452,707 453,707 453,707 454,707 455,707 455,707 456,707 456,707 457,706 457,706 458,706 459,706 459,706 460,706 460,706 461,706 461,706 462,706 462,706 463,706 464,706 464,706 465,706 465,706 466,706 466,706 467,706 468,706 468,706 469,706 469,706 470,706 470,706 471,706 471,705 472,706 473,706 473,706 474,706 474,705 475,705 475,705 476,705 477,705 477,705 478,705 478,705 479,705 479,705 480,705 481,705 481,705 482,705 482,705 483,705 483,705 484,705 484,704 485,704 486,704 486,704 487,704 487,704 488,704 488,704 490,704 490,704 491,704 491,704 492,704 492,704 493,704 493,703 494,703 495,703 495,703 496,703 496,703 497,703 497,703 498,702 499,702 499,702 500,702 500,702 501,702 501,702 502,702 502,702 503,702 504,702 504,702 505,702 505,701 506,701 506,701 507,701 508,702 508,702 509,702 509,702 510,702 510,702 511,702 512,702 512,701 513,701 513,701 514,701 514,701 515,701 515,701 516,701 517,701 517,701 518,702 518,702 519,701 519,701 520,701 521,701 521,701 522,701 522,701 523,701 523,701 524,701 524,701 525,701 526,701 526,701 527,701 527,701 528,701 528,701 529,701 530,701 530,701 531,701 531,701 532,701 532,701 533,701 533,701 534,701 535,701 535,701 536,701 536,701 537,701 537,701 538,701 539,701 539,701 540,701 540,701 541,701 541,701 542,701 542,701 543,701 544,701 544,701 545,701 545,701 546,701 546,701 547,701 548,701 548,701 549,701 549,701 550,701 550,701 551,701 552,701 552,701 553,701 553,701 554,701 554,701 555,701 555,701 556,700 557,700 557,700 558,700 558,700 559,700 559,700 560,700 561,700 561,700 562,700 562,700 563,700 563,700 564,700 564,700 565,700 566,700 566,700 567,700 567,700 568,700 568,700 569,700 570,700 570,699 571,699 571,699 572,699 572,699 573,699 573,699 574,699 575,699 575,699 576,699 576,699 577,699 577,699 578,699 579,699 579,699 580,699 580,699 581,699 581,699 582,699 583,699 583,699 584,699 584,699 585,699 585,699 586,698 586,698 587,698 588,698 588,698 589,698 589,698 590,698 590,698 591,698 592,698 592,698 593,698 593,698 594,698 594,698 595,698 595,698 596,698 597,698 597,698 598,698 598,698 599,698 599,698 600,698 601,698 601,698 602,698 602,698 603,698 603,698 604,698 604,698 605,698 606,698 606,698 607,698 607,698 608,698 608,698 609,698 610,698 610,698 611,698 611,698 612,697 612,697 613,697 614,697 614,697 615,697 615,697 616,697 616,697 617,697 617,697 618,697 619,697 619,697 620,697 620,697 621,697 621,697 622,697 623,697 623,697 624,697 624,697 625,697 625,697 626,697 626,697 627,697 628,697 628,697 629,697 629,697 630,697 630,697 631,697 632,697 632,697 633,697 633,697 634,697 634,697 635,697 635,697 636,697 637,697 637,697 638,697 638,697 639,697 639,697 640,697 641,697 641,697 642,697 642,697 643,697 643,697 644,697 645,697 645,697 646,697 646,697 647,697 647,697 648,697 648,697 649,697 650,697 650,697 651,697 651,696 652,696 652,696 653,696 654,696 654,696 655,696 655,696 656,697 656,697 657,697 657,697 658,697 659,697 659,697 660,696 660,696 661,696 661,696 662,696 663,696 663,696 664,696 664,696 665,696 665,696 666,696 666,696 667,696 668,696 668,696 669,696 669,696 670,696 670,696 671,696 672,696 672,696 673,696 673,696 674,696 674,696 675,696 676,696 676,696 677,696 678,696 678,696 679,696 679,696 680,696 681,696 681,696 682,696 682,696 683,696 683,696 684,696 685,696 685,695 686,695 686,695 687,695 687,695 688,695 688,695 689,695 690,695 690,695 691,695 691,695 692,695 692,695 693,695 694,695 694,695 695,695 695,695 696,695 696,695 697,695 697,695 698,695 699,695 699,695 700,695 700,695 701,695 701,695 702,695 703,695 703,695 704,695 704,694 705,694 705,694 706,694 707,694 707,694 708,694 708,694 709,694 709,694 710,694 710,694 711,694 712,694 712,694 713,694 713,694 714,694 714,694 715,694 716,694 716,694 717,694 717,694 718,694 718,694 719,694 719,694 720,694 721,694 721,694 722,694 722,694 723,694 723,694 724,694 725,694 725,694 726,694 726,694 727,694 727,694 728,694 728,694 729,694 730,693 730,693 731,693 731,693 732,693 732,693 733,693 734,693 734,693 735,693 735,693 736,693 736,693 737,693 738,693 738,693 739,693 739,693 740,693 740,693 741,693 741,693 742,693 743,693 743,693 744,693 744,693 745,693 745,693 746,693 747,693 747,693 748,693 748,693 749,693 749,693 750,693 750,693 751,693 752,693 752,693 753,693 753,693 754,693 754,693 755,693 756,693 756,693 757,693 757,693 758,693 758,693 759,693 759,693 760,692 761,692 761,693 762,693 762,693 763,693 763,693 764,693 765,693 765,693 766,693 766,693 767,693 767,693 768,693 768,693 769,693 770,693 770,693 771,693 771,693 772,693 772,692 773,692 774,692 774,692 775,692 775,692 776,692 776,692 777,692 778,692 778,692 779,692 779,692 780,692 780,692 781,692 781,692 782,692 783,692 783,692 784,692 784,692 785,692 785,692 786,692 787,692 787,692 788,692 788,692 789,692 789,692 790,692 790,692 791,692 792,692 792,692 793,692 793,692 794,692 794,692 795,692 796,692 796,692 797,692 797,692 798,692 798,692 799,691 799,691 800,691 801,691 801,691 802,691 802,691 803,691 803,691 804,691 805,691 805,691 806,691 806,691 807,691 807,691 808,691 809,691 809,691 810,691 810,691 811,691 811,691 812,690 812,690 813,690 814,691 814,691 815,691 815,691 816,690 816,690 817,690 818,690 818,690 819,690 819,690 820,690 820,690 821,690 821,690 822,690 823,690 823,690 824,690 824,690 825,690 825,690 826,690 827,690 827,690 828,690 828,690 829,690 829,690 830,690 830,690 831,690 832,690 832,690 833,690 833,690 834,690 834,690 835,690 836,690 836,690 837,690 837,690 838,690 838,690 839,690 840,690 840,690 841,690 841,690 842,690 842,690 843,690 843,690 844,690 845,690 845,690 846,690 846,690 847,690 847,690 848,690 849,689 849,689 850,689 850,689 851,689 851,689 852,689 852,689 852,689 853,689 854,689 854,689 855,689 855,689 856,689 856,689 857,689 858,689 858,689 859,689 859,689 860,689 860,689 861,689 861,689 862,689 863,688 863,688 864,688 864,688 865,688 865,688 866,688 867,688 867,688 868,688 868,688 869,688 869,688 870,688 871,688 871,688 872,688 872,688 873,688 873,688 874,688 874,688 875,688 876,688 876,687 877,687 877,687 878,687 878,687 879,687 880,687 880,687 881,687 881,687 882,687 882,687 883,687 883,686 884,686 885,686 885,686 886,686 886,686 887,686 887,686 888,686 889,686 889,686 890,686 890,686 891,686 891,686 892,686 892,686 893,686 894,686 894,686 895,686 895,686 896,686 896,686 897,686 898,686 898,686 899,686 899,685 900,685 900,685 901,685 902,685 902,685 903,685 903,685 904,685 904,685 905,685 905,685 906,685 907,685 907,685 908,685 908,685 909,685 909,685 910,685 911,685 911,685 912,685 912,685 913,685 913,685 914,685 914,685 915,685 916,685 916,685 917,685 917,685 918,685 918,685 919,685 920,685 920,685 921,685 921,685 922,685 922,685 923,685 923,685 924,685 925,685 925,685 926,685 926,685 927,685 927,685 928,685 929,685 929,685 930,685 930,685 931,685 931,685 932,685 933,685 933,685 934,685 934,685 935,685 935,685 936,685 936,685 937,685 938,685 938,685 939,685 939,685 940,684 940,684 941,684 942,684 942,684 943,684 943,684 944,684 944,684 945,684 945,684 946,684 947,684 947,684 948,684 948,684 949,684 949,684 950,684 951,684 951,684 952,684 952,684 953,684 953,684 954,684 954,684 955,684 956,684 956,684 957,684 957,684 958,684 958,684 959,684 960,684 960,684 961,684 961,684 962,684 962,684 963,684 964,684 964,684 965,684 965,684 966,684 966,684 967,684 967,684 968,684 969,684 969,684 970,684 970,684 971,684 971,684 972,684 973,684 973,684 974,684 974,684 975,684 975,684 976,684 976,684 977,684 978,684 978,684 979,684 979,684 980,684 980,684 981,684 982,684 982,684 983,684 983,684 984,684 984,684 985,684 985,684 986,684 987,684 987,684 988,684 988,684 989,684 989,684 990,683 991,683 991,683 992,683 992,683 993,683 993,684 994,684 994,684 995,684 996,684 996,683 997,683 997,683 998,683 998,683 999,683 1000,683 1000,684 1001,684 1001,684 1002,684 1002,684 1003,684 1004,684 1004,684 1005,684 1005,684 1006,683 1006,683 1007,683 1007,683 1008,683 1009,683 1009,683 1010,683 1010,683 1011,683 1011,683 1012,683 1013,683 1013,683 1014,683 1014,683 1015,683 1015,683 1016,683 1016,683 1017,683 1018,683 1018,683 1019,683 1019,684 1020,684 1020,684 1021,684 1022,684 1022,684 1023,684 1023,684 1024,684 1024,684 1025,684 1025,684 1026,684 1027,684 1027,684 1028,684 1028,684 1029,684 1029,684 1030,684 1031,684 1031,684 1032,684 1032,684 1033,684 1033,684 1034,684 1035,684 1035,684 1036,684 1036,684 1037,684 1037,683 1038,683 1038,683 1039,683 1040,683 1040,683 1041,683 1041,683 1042,683 1042,683 1043,683 1044,683 1044,683 1045,683 1045,683 1046,683 1046,683 1047,683 1047,683 1048,683 1049,683 1049,683 1050,683 1050,683 1051,683 1051,683 1052,683 1053,683 1053,683 1054,683 1054,683 1055,683 1055,683 1056,683 1056,683 1057,683 1058,683 1058,683 1059,683 1059,683 1060,683 1060,683 1061,683 1062,683 1062,683 1063,683 1063,683 1064,683 1064,683 1065,683 1066,683 1066,683 1067,683 1067,683 1068,683 1068,683 1069,683 1069,683 1069,683 1070,682 1071,682 1071,682 1072,682 1072,682 1073,682 1073,683 1074,683 1075,683 1075,683 1076,683 1076,683 1077,683 1077,683 1078,683 1078,683 1079,683 1080,683 1080,683 1081,683 1081,683 1082,683 1082,683 1083,683 1084,683 1084,683 1085,683 1085,683 1086,683 1086,683 1087,683 1087,683 1088,683 1089,683 1089,683 1090,683 1090,683 1091,683 1091,683 1092,683 1093,683 1093,683 1094,683 1094,683 1095,683 1095,683 1096,683 1097,683 1097,683 1098,683 1098,683 1099,683 1099,683 1100,683 1100,683 1101,683 1102,683 1102,683 1103,683 1103,683 1104,683 1104,683 1105,683 1106,683 1106,683 1107,683 1107,683 1108,683 1108,683 1109,683 1109,683 1110,683 1111,683 1111,683 1112,683 1112,683 1113,683 1113,683 1114,683 1115,683 1115,683 1116,683 1116,683 1117,683 1117,683 1118,683 1118,683 1119,683 1120,683 1120,683 1121,683 1121,683 1122,683 1122,683 1123,683 1124,683 1124,683 1125,683 1125,683 1126,683 1126,683 1127,683 1128,683 1128,683 1129,683 1129,683 1130,683 1130,683 1131,683 1131,683 1132,683 1133,683 1133,683 1134,683 1134,682 1135,682 1135,682 1136,682 1137,682 1137,682 1138,682 1138,682 1139,682 1139,682 1140,682 1140,682 1141,682 1142,682 1142,682 1143,682 1143,682 1144,682 1144,682 1145,682 1146,682 1146,682 1147,682 1147,682 1148,682 1148,682 1149,682 1149,682 1149,682 1149,682 1150,682 1151,682 1151,683 1151,683 1151,683 1152,682 1152,682 1152,682 1153,682 1153,683 1153,683 1153,683 1154,683 1154,683 1155,683 1155,683 1155,683 1155,683 1156,683 1156,683 1156,683 1156,683 1157,683 1157,683 1157,683 1157,683 1158,683 1159,683 1159,683 1159,683 1160,683 1160,683 1160,683 1160,683 1161,683 1161,683 1161,683 1161,683 1162,683 1162,683 1162,683 1162,683 1163,683 1164,683 1164,683 1164,683 1164,683 1165,683 1165,683 1165,683 1165,683 1166,683 1166,683 1166,683 1166,683 1167,683 1167,683 1168,683 1168,683 1168,683 1168,683 1169,683 1169,683 1169,683 1170,683 1170,683 1170,683 1170,683 1171,683 1171,683 1171,683 1171,683 1172,683 1172,683 1173,683 1173,683 1173,683 1173,683 1174,683 1174,683 1174,683 1174,683 1175,683 1175,683 1175,683 1176,683 1177,683 1177,683 1177,683 1177,683 1178,683 1178,683 1178,683 1178,683 1179,683 1179,683 1179,683 1179,683 1180,683 1180,683 1180,683 1180,683 1181,683 1181,683 1182,682 1182,682 1182,682 1183,682 1183,682 1183,682 1183,682 1184,682 1184,682 1184,682 1184,682 1185,683 1186,683 1186,683 1186,683 1186,683 1187,683 1187,683 1187,683 1187,683 1188,683 1188,683 1188,683 1188,683 1189,683 1189,683 1190,683 "/>
<polyline fill="none" opacity="1" stroke="#196BE6" stroke-width="2" points="88,738 96,738 99,738 109,738 110,738 115,737 120,737 127,737 128,737 129,737 134,737 137,737 141,737 146,736 148,736 154,736 155,736 155,736 159,736 161,736 163,735 163,735 164,735 165,734 167,734 170,734 172,734 174,734 175,734 176,733 177,733 180,733 181,733 182,733 182,733 185,733 187,733 190,733 195,733 197,732 204,732 205,732 207,732 208,732 209,732 210,732 211,732 212,732 218,732 220,732 221,732 222,732 226,732 226,732 227,732 229,732 229,732 230,731 231,731 232,731 233,731 234,731 237,731 239,731 242,731 243,731 245,731 245,731 247,731 248,731 248,731 249,731 250,731 252,731 252,731 253,731 255,731 256,731 258,731 258,731 260,731 261,731 262,731 262,731 263,731 264,731 266,731 266,731 267,731 268,731 269,731 270,730 271,730 271,730 273,730 274,730 274,730 276,730 278,730 279,730 280,730 283,729 283,729 284,729 285,729 286,729 286,729 287,729 287,729 288,729 290,729 292,729 294,729 295,729 295,729 298,728 298,728 299,728 302,728 304,728 305,728 305,728 306,728 306,727 307,727 309,727 309,727 310,727 310,727 311,727 312,727 313,727 313,727 314,727 314,727 315,726 315,726 316,726 316,726 317,726 318,726 318,726 319,726 319,726 320,726 320,726 322,726 322,726 323,726 323,726 324,726 324,726 325,726 326,726 326,726 327,726 327,726 328,726 328,726 329,726 329,726 330,726 331,726 332,726 332,726 333,726 333,726 335,725 335,725 336,725 336,725 337,725 337,725 338,724 338,724 339,724 340,724 340,724 341,724 341,724 342,724 342,724 343,724 344,724 344,724 345,724 345,724 346,724 346,724 347,724 347,724 348,724 349,724 349,724 350,724 350,724 351,724 351,724 352,724 353,724 353,723 354,723 354,723 355,723 355,723 356,723 357,723 357,723 358,723 358,723 359,723 359,723 360,723 360,723 361,723 362,723 362,723 363,723 363,723 364,723 364,722 365,722 366,722 366,722 367,722 367,722 368,723 368,723 369,723 369,723 370,723 371,723 371,723 372,723 372,722 373,722 373,722 374,722 375,722 375,722 376,722 376,722 377,722 377,722 378,722 378,722 379,722 380,722 380,722 381,722 381,722 382,722 382,722 383,722 384,722 384,722 385,722 385,722 386,722 386,722 387,722 388,722 388,722 389,722 389,721 390,721 390,721 391,721 391,721 392,721 393,721 393,721 394,721 394,721 395,721 395,721 396,721 397,721 397,721 398,721 398,721 399,721 399,721 400,721 400,721 401,721 402,721 402,721 403,721 403,721 404,721 404,721 405,721 406,721 406,721 407,721 407,721 408,721 408,721 409,721 409,721 410,721 411,721 411,721 412,721 412,721 413,721 413,721 414,721 415,721 415,721 416,721 416,721 417,721 417,721 418,720 419,720 419,720 420,720 420,720 421,720 421,720 422,720 422,720 423,720 424,720 424,720 425,720 425,720 426,720 426,720 427,720 428,720 428,720 429,720 429,719 430,719 430,719 431,719 431,719 432,719 433,719 433,719 434,719 434,719 435,719 435,719 436,719 437,719 437,719 438,719 438,719 439,719 439,719 440,719 441,719 442,719 442,719 443,719 443,719 444,719 444,719 445,719 446,719 446,719 447,719 447,719 448,719 448,719 449,719 450,719 450,719 451,719 451,719 452,719 452,719 453,719 453,719 454,719 455,719 455,719 456,719 456,719 457,719 457,719 459,718 459,718 460,718 460,718 461,718 461,718 462,718 462,718 463,718 464,718 464,718 465,718 465,718 466,718 466,718 467,718 468,718 468,718 469,718 469,718 470,718 470,718 471,718 471,718 472,717 473,717 473,717 474,717 474,717 475,717 475,717 476,717 477,717 477,717 478,717 478,718 479,717 479,717 480,717 481,717 482,717 482,717 483,717 483,717 484,717 484,717 485,717 486,717 486,717 487,717 487,717 488,717 488,717 489,717 490,717 490,717 491,717 491,717 492,717 492,717 493,717 493,717 494,717 495,717 495,717 496,716 496,716 497,716 497,716 498,716 499,716 499,716 500,716 500,716 501,716 501,716 502,716 502,716 503,716 504,716 504,715 505,715 505,715 506,715 506,715 507,715 508,714 508,714 509,714 509,714 510,714 510,714 511,714 512,714 512,714 513,714 513,714 514,714 514,714 515,714 515,714 516,714 517,714 517,714 518,714 519,714 519,714 520,714 521,714 521,714 522,714 522,714 523,714 523,714 524,714 524,714 525,714 526,714 526,714 527,714 527,714 528,714 528,714 529,714 530,714 530,714 531,714 531,714 532,714 532,714 533,714 533,714 534,714 535,714 535,714 536,714 536,714 537,714 537,714 538,714 539,714 539,714 540,714 540,714 541,714 541,714 542,714 542,714 543,714 544,714 544,714 545,713 545,713 546,713 546,713 547,713 548,713 548,713 549,713 549,713 550,713 550,713 551,712 552,712 552,712 553,712 553,712 554,712 554,712 555,712 555,712 556,712 557,712 557,712 558,712 558,712 559,711 559,711 560,711 561,711 561,711 562,711 562,711 563,711 563,711 564,711 564,711 565,711 566,711 566,711 567,711 567,711 568,710 568,710 569,710 570,710 570,710 571,710 571,710 572,710 572,710 573,710 573,710 574,710 575,710 575,710 576,710 576,710 577,710 577,710 578,710 579,710 579,710 580,710 580,710 581,710 581,710 582,710 583,710 583,710 584,710 584,710 585,710 585,710 586,710 586,710 587,710 588,709 588,709 589,709 589,709 590,709 590,709 591,709 592,709 592,709 593,709 593,709 594,709 594,709 595,709 595,709 596,709 597,709 597,709 598,709 598,709 599,709 599,709 600,709 601,709 601,709 602,709 602,709 603,709 603,709 604,709 604,709 605,709 606,709 606,708 607,708 607,708 608,708 608,708 609,708 610,708 610,708 611,708 611,708 612,708 612,708 613,708 614,708 614,708 615,708 615,708 616,708 616,708 617,707 617,707 618,707 619,707 619,707 620,707 620,707 621,707 621,707 622,707 623,707 623,707 624,707 624,707 625,707 625,707 626,707 626,707 627,707 628,707 628,707 629,707 629,707 630,707 630,707 631,707 632,707 632,707 633,707 633,707 634,707 634,707 635,707 635,707 636,707 637,707 637,706 638,706 638,706 639,706 639,706 640,706 641,706 641,706 642,706 642,706 643,706 643,706 644,706 645,706 645,706 646,706 646,706 647,706 647,706 648,706 648,705 649,705 650,705 650,705 651,705 651,705 652,705 652,705 653,705 654,705 654,705 655,705 655,705 656,705 656,705 657,705 657,705 658,705 659,705 659,705 660,705 660,705 661,705 661,705 662,705 663,705 663,705 664,705 664,705 665,705 665,705 666,705 666,705 667,705 668,705 668,705 669,705 669,705 670,705 670,705 671,705 672,705 672,705 673,705 673,705 674,705 674,705 675,705 676,705 676,705 677,705 677,704 678,704 678,704 679,704 679,704 680,704 681,704 681,704 682,704 682,704 683,704 683,704 684,704 685,704 685,704 686,704 686,704 687,704 687,704 688,704 688,704 689,704 690,704 690,704 691,704 691,704 692,704 692,704 693,704 694,704 694,704 695,704 695,704 696,704 696,704 697,704 697,704 698,704 699,704 699,704 700,703 700,703 701,703 701,703 702,703 703,703 703,703 704,703 704,703 705,703 705,703 706,703 707,703 707,703 708,703 708,702 709,702 709,702 710,702 710,702 711,702 712,702 712,702 713,702 713,702 714,702 714,702 715,702 716,702 716,702 717,702 717,702 718,701 718,701 719,701 719,701 720,701 721,702 721,701 722,701 722,701 723,701 723,701 724,701 725,701 725,701 726,701 726,701 727,701 727,701 728,701 728,701 729,701 730,701 730,701 731,701 731,701 732,701 732,701 733,701 734,701 734,701 735,701 735,701 736,701 736,701 737,701 738,701 738,701 739,701 739,701 740,701 740,701 741,701 741,701 742,701 743,701 743,700 744,700 744,700 745,700 745,700 746,700 747,700 747,700 748,700 748,700 749,700 749,700 750,700 750,700 751,700 752,700 752,700 753,700 753,700 754,700 754,700 755,700 756,700 756,700 757,700 757,700 758,700 758,700 759,700 759,700 760,700 761,700 761,700 762,699 762,699 763,699 763,699 764,699 765,699 765,699 766,699 766,699 767,699 767,699 768,699 768,699 769,699 770,699 770,699 771,699 771,699 772,699 772,699 773,699 774,699 774,699 775,699 775,699 776,699 776,699 777,699 778,699 778,699 779,699 779,699 780,699 780,699 781,699 781,698 782,698 783,698 783,698 784,698 784,698 785,698 785,698 786,698 787,698 787,698 788,698 788,698 789,698 789,698 790,698 790,698 791,698 792,698 792,698 793,698 793,698 794,698 794,698 795,698 796,698 796,698 797,698 797,698 798,698 798,698 799,698 799,698 800,698 801,698 801,698 802,698 802,698 803,698 803,698 804,698 805,698 805,698 806,698 806,698 807,698 807,698 808,698 809,698 809,698 810,698 810,698 811,698 811,698 812,698 812,698 813,698 814,698 814,698 815,698 815,698 816,698 816,698 817,698 818,698 818,698 819,698 819,698 820,698 820,698 821,698 821,698 822,698 823,698 823,698 824,698 824,698 825,698 825,698 826,698 827,698 827,698 828,698 828,698 829,698 829,698 830,698 830,698 831,698 832,697 832,697 833,697 833,697 834,697 834,697 835,697 836,697 836,697 837,697 837,697 838,697 838,697 839,697 840,697 840,696 841,696 841,696 842,696 842,696 843,696 843,696 844,696 845,696 845,696 846,696 846,696 847,696 847,696 848,696 849,696 849,696 850,696 850,696 851,696 851,696 852,696 852,696 852,696 853,696 854,696 854,696 855,696 855,696 856,696 856,696 857,696 858,696 858,696 859,696 859,696 860,696 860,696 861,696 861,696 862,696 863,696 863,695 864,695 864,695 865,695 865,695 866,695 867,695 867,695 868,695 868,695 869,695 869,695 870,695 871,695 871,695 872,695 872,695 873,695 873,694 874,694 874,694 875,694 876,694 876,694 877,694 877,694 878,694 878,694 879,694 880,694 880,694 881,694 881,694 882,694 882,694 883,694 883,694 884,694 885,694 885,694 886,694 886,694 887,694 887,694 888,694 889,694 889,694 890,694 890,694 891,694 891,694 892,694 892,694 893,694 894,694 894,693 895,693 895,693 896,693 896,692 897,692 898,692 898,693 899,693 899,693 900,693 900,693 901,693 902,693 902,693 903,693 903,693 904,693 904,693 905,693 905,693 906,693 907,693 907,693 908,693 908,693 909,693 909,692 910,693 911,693 911,693 912,693 912,692 913,692 913,692 914,692 914,692 915,692 916,692 916,692 917,692 917,692 918,692 918,692 919,692 920,692 920,692 921,692 921,692 922,692 922,692 923,692 923,692 924,692 925,692 925,692 926,692 926,692 927,692 927,692 928,692 929,692 929,692 930,692 930,692 931,692 931,692 932,692 933,692 933,692 934,692 934,692 935,692 935,692 936,692 936,692 937,692 938,692 938,692 939,692 939,692 940,692 940,692 941,691 942,691 942,691 943,691 943,691 944,691 944,691 945,691 945,690 946,690 947,690 947,690 948,690 948,690 949,690 949,690 950,690 951,690 951,690 952,690 952,690 953,690 953,690 954,690 954,690 955,690 956,690 956,690 957,690 957,690 958,690 958,690 959,690 960,690 960,690 961,690 961,690 962,690 962,690 963,690 964,690 964,690 965,690 965,690 966,690 966,690 967,690 967,690 968,690 969,690 969,690 970,690 970,689 971,689 971,689 972,689 973,689 973,689 974,689 974,689 975,689 975,689 976,689 976,689 977,689 978,689 978,689 979,689 979,688 980,688 980,688 981,688 982,688 982,688 983,688 983,688 984,688 984,688 985,688 985,688 986,688 987,688 987,688 988,688 988,688 989,688 989,688 990,688 991,688 991,688 992,688 992,688 993,688 993,688 994,688 994,688 995,688 996,688 996,688 997,688 997,688 998,688 998,688 999,688 1000,688 1000,688 1001,688 1001,688 1002,688 1002,688 1003,688 1004,688 1004,688 1005,688 1005,688 1006,688 1006,688 1007,688 1007,688 1008,688 1009,688 1009,688 1010,688 1010,688 1011,688 1011,688 1012,688 1013,688 1013,688 1014,688 1014,688 1015,688 1015,688 1016,687 1016,688 1017,688 1018,688 1018,688 1019,688 1019,688 1020,688 1020,688 1021,688 1022,688 1022,688 1023,688 1023,687 1024,687 1024,687 1025,687 1025,687 1026,687 1027,687 1027,687 1028,687 1028,687 1029,687 1029,687 1030,687 1031,687 1031,687 1032,687 1032,687 1033,687 1033,687 1034,686 1035,686 1035,686 1036,686 1036,686 1037,686 1037,686 1038,686 1038,686 1039,686 1040,686 1040,686 1041,686 1041,686 1042,686 1042,686 1043,686 1044,686 1044,686 1045,686 1045,686 1046,686 1046,686 1047,686 1047,686 1048,686 1049,686 1049,686 1050,686 1050,685 1051,685 1051,685 1052,685 1053,685 1053,685 1054,685 1054,685 1055,685 1055,685 1056,685 1056,685 1057,685 1058,685 1058,685 1059,684 1059,685 1060,685 1060,685 1061,685 1062,685 1062,685 1063,685 1063,685 1064,685 1064,685 1065,685 1066,685 1066,685 1067,685 1067,685 1068,685 1068,685 1069,684 1069,684 1069,685 1070,685 1071,685 1071,685 1072,685 1072,684 1073,684 1073,684 1074,684 1075,684 1075,684 1076,684 1076,684 1077,684 1077,684 1078,684 1078,684 1079,684 1080,684 1080,684 1081,683 1081,683 1082,683 1082,683 1083,683 1084,683 1084,683 1085,683 1085,683 1086,683 1086,683 1087,683 1087,683 1088,683 1089,683 1089,683 1090,683 1090,683 1091,683 1091,683 1092,683 1093,683 1093,683 1094,683 1094,683 1095,683 1095,682 1096,682 1097,682 1097,682 1098,682 1098,682 1099,682 1099,682 1100,682 1100,682 1101,682 1102,682 1102,682 1103,682 1103,682 1104,682 1104,682 1105,682 1106,682 1106,682 1107,682 1107,682 1108,682 1108,682 1109,682 1109,682 1110,682 1111,682 1111,682 1112,682 1112,682 1113,682 1113,682 1114,682 1115,682 1115,682 1116,682 1116,682 1117,682 1117,682 1118,682 1118,682 1119,682 1120,682 1120,682 1121,682 1121,682 1122,682 1122,682 1123,682 1124,682 1124,682 1125,682 1125,682 1126,682 1126,682 1127,682 1128,682 1128,682 1129,682 1129,682 1130,682 1130,682 1131,682 1131,682 1132,682 1133,682 1133,682 1134,682 1134,682 1135,682 1135,682 1136,682 1137,682 1137,682 1138,682 1138,682 1139,682 1139,682 1140,682 1140,682 1141,682 1142,682 1142,682 1143,682 1143,682 1144,682 1144,682 1145,682 1146,682 1146,682 1147,681 1147,681 1148,681 1148,681 1149,681 1149,681 1149,681 1149,681 1150,681 1151,681 1151,681 1151,681 1151,681 1152,681 1152,681 1152,681 1153,681 1153,681 1153,681 1153,681 1154,681 1154,681 1155,681 1155,681 1155,681 1155,681 1156,681 1156,681 1156,681 1156,681 1157,681 1157,681 1157,681 1157,681 1158,681 1159,681 1159,681 1159,681 1160,681 1160,681 1160,681 1160,681 1161,681 1161,681 1161,681 1161,681 1162,681 1162,681 1162,681 1162,681 1163,681 1164,681 1164,681 1164,681 1164,681 1165,681 1165,681 1165,681 1165,681 1166,681 1166,681 1166,681 1166,681 1167,681 1167,681 1168,681 1168,680 1168,680 1168,680 1169,681 1169,681 1169,681 1170,681 1170,681 1170,681 1170,681 1171,681 1171,680 1171,680 1171,680 1172,680 1172,680 1173,680 1173,680 1173,680 1173,680 1174,680 1174,680 1174,680 1174,680 1175,680 1175,680 1175,680 1176,680 1177,680 1177,680 1177,680 1177,680 1178,680 1178,680 1178,680 1178,680 1179,680 1179,680 1179,680 1179,680 1180,680 1180,680 1180,680 1180,680 1181,680 1181,680 1182,680 1182,680 1182,680 1183,680 1183,680 1183,680 1183,680 1184,680 1184,679 1184,679 1184,679 1185,679 1186,679 1186,679 1186,679 1186,679 1187,679 1187,679 1187,679 1187,679 1188,679 1188,679 1188,679 1188,679 1189,679 1189,679 1190,679 "/>
<polyline fill="none" opacity="1" stroke="#BD19E6" stroke-width="2" points="531,738 532,738 554,738 572,738 592,738 593,737 602,737 614,737 619,737 623,736 631,736 634,736 635,736 638,735 644,735 660,735 661,735 666,734 673,734 679,734 681,734 682,734 683,733 686,733 687,733 691,733 692,732 696,732 696,732 697,732 697,732 698,732 701,732 702,732 703,732 703,732 706,731 708,731 709,731 709,731 711,731 712,730 714,730 714,730 715,730 716,730 717,729 717,729 718,729 718,729 719,729 721,729 723,729 725,729 725,728 728,728 728,728 731,728 731,728 734,727 736,727 737,727 738,727 740,727 743,726 744,726 744,725 749,725 749,725 750,725 750,724 754,724 754,724 756,724 756,723 757,723 757,723 758,723 758,722 759,722 760,722 761,722 761,721 762,721 762,721 763,721 765,720 766,720 766,720 767,719 768,719 768,719 769,718 770,718 770,718 771,718 771,718 772,718 772,718 773,718 774,718 774,717 775,717 775,717 776,716 776,716 777,715 778,715 779,715 780,715 781,715 781,714 782,714 783,714 783,713 784,713 785,712 786,712 787,712 787,712 788,712 788,711 789,711 789,711 790,711 790,711 791,711 792,711 792,711 793,711 793,711 794,711 794,711 795,711 796,710 796,710 797,710 797,710 798,710 798,710 799,710 799,710 800,710 801,710 801,710 802,710 802,709 803,709 804,709 805,709 805,709 806,708 806,708 807,708 807,708 808,708 809,708 810,707 810,707 811,707 811,707 812,707 812,707 813,707 814,707 814,706 815,706 815,706 816,706 816,706 817,705 818,705 818,705 819,705 819,705 820,705 820,705 821,705 822,705 823,705 823,704 824,704 824,704 825,704 825,704 826,704 827,704 827,704 828,704 828,704 829,703 829,703 830,703 830,702 831,702 832,701 832,701 833,701 833,701 834,701 834,701 835,701 836,700 836,700 837,700 838,700 838,699 839,699 840,699 840,699 841,699 842,699 842,698 843,698 844,698 845,698 845,698 846,698 846,698 847,698 847,697 849,697 849,697 850,697 850,697 851,696 851,696 852,696 852,696 852,696 853,696 854,696 854,695 855,695 856,695 856,695 857,694 858,694 858,694 859,694 859,693 860,693 860,693 861,693 861,692 862,692 863,691 863,691 864,691 864,691 865,691 865,691 866,690 867,690 867,690 868,689 868,689 869,689 869,689 870,689 871,689 871,688 872,688 872,688 873,688 873,687 874,687 874,687 875,687 876,687 876,686 877,686 877,686 878,686 878,685 879,685 880,685 880,685 881,685 881,685 882,685 882,685 883,685 884,685 885,685 885,685 886,684 886,684 887,684 887,684 888,684 889,684 889,684 890,684 890,684 891,684 891,684 892,684 892,684 893,684 894,683 894,683 895,683 895,683 896,682 896,682 897,682 898,681 898,680 899,680 899,680 900,679 900,679 901,678 902,678 902,678 903,678 903,678 904,677 904,677 905,677 905,677 906,676 907,676 907,676 908,675 908,675 909,674 909,674 910,673 911,672 911,672 912,672 912,672 913,671 913,671 914,670 914,669 915,669 916,669 916,668 917,668 917,668 918,667 918,667 919,667 920,667 920,667 921,667 921,666 922,666 922,666 923,666 923,665 924,665 925,665 925,665 926,664 926,664 927,663 927,663 928,663 929,663 929,663 930,662 930,662 931,662 931,662 932,661 933,661 933,661 934,661 934,660 935,660 935,660 936,660 936,660 937,660 938,660 938,659 939,659 939,659 940,658 940,658 941,658 942,658 942,657 943,657 943,656 944,656 944,655 945,655 945,654 946,654 947,654 947,654 948,653 948,653 949,652 949,652 950,651 951,651 951,651 952,651 952,650 953,650 953,650 954,650 954,649 955,649 956,649 956,648 957,648 957,647 958,647 958,647 959,647 960,647 960,647 961,647 961,646 962,646 962,645 963,645 964,645 964,645 965,644 965,644 966,643 966,643 967,643 967,643 968,643 969,643 969,643 970,643 970,642 971,642 971,641 972,641 973,641 973,640 974,640 974,640 975,639 975,639 976,639 976,639 977,638 978,638 978,637 979,637 979,637 980,637 980,636 981,636 982,636 982,636 983,635 983,635 984,634 984,634 985,633 985,633 986,633 987,633 987,633 988,633 988,632 989,632 989,631 990,631 991,631 991,631 992,630 992,630 993,630 993,630 994,629 994,629 995,628 996,628 996,628 997,628 997,628 998,627 998,627 999,626 1000,626 1000,626 1001,626 1001,625 1002,625 1002,624 1003,624 1004,623 1004,623 1005,623 1005,623 1006,622 1006,622 1007,622 1007,621 1008,621 1009,621 1009,621 1010,621 1010,620 1011,620 1011,620 1012,620 1013,620 1013,620 1014,620 1014,619 1015,619 1015,618 1016,617 1016,617 1017,617 1018,617 1018,616 1019,616 1019,616 1020,615 1020,615 1021,615 1022,615 1022,614 1023,614 1023,613 1024,613 1024,613 1025,612 1025,612 1026,611 1027,611 1027,611 1028,610 1028,610 1029,609 1029,608 1030,608 1031,608 1031,608 1032,607 1032,607 1033,607 1033,606 1034,606 1035,606 1035,606 1036,605 1036,604 1037,604 1038,604 1038,603 1039,603 1040,603 1040,602 1041,602 1041,602 1042,602 1042,601 1043,601 1044,600 1044,600 1045,599 1045,599 1046,598 1046,598 1047,597 1047,597 1048,596 1049,596 1049,596 1050,595 1050,595 1051,595 1051,595 1052,594 1053,593 1053,593 1054,592 1054,592 1055,591 1055,591 1056,591 1056,590 1057,589 1058,589 1058,588 1059,587 1059,587 1060,586 1060,586 1061,585 1062,585 1062,584 1063,583 1063,583 1064,583 1064,583 1065,582 1066,582 1066,581 1067,581 1067,580 1068,580 1068,579 1069,579 1069,579 1069,578 1070,578 1071,578 1071,577 1072,577 1072,576 1073,575 1073,573 1074,573 1075,572 1075,571 1076,570 1076,570 1077,570 1077,570 1078,570 1078,569 1079,569 1080,569 1080,569 1081,569 1081,568 1082,567 1082,567 1083,566 1084,566 1084,565 1085,565 1085,564 1086,564 1086,563 1087,563 1087,563 1088,562 1089,561 1089,561 1090,561 1090,561 1091,560 1091,559 1092,559 1093,559 1093,559 1094,559 1094,558 1095,558 1095,557 1096,557 1097,557 1097,555 1098,555 1098,555 1099,553 1099,553 1100,553 1100,553 1101,553 1102,552 1102,551 1103,550 1103,550 1104,549 1104,548 1105,548 1106,547 1106,547 1107,547 1107,546 1108,546 1108,545 1109,544 1109,544 1110,544 1111,544 1111,543 1112,543 1112,542 1113,542 1113,542 1114,541 1115,540 1115,540 1116,540 1116,539 1117,539 1117,538 1118,537 1118,537 1119,536 1120,536 1120,535 1121,535 1121,534 1122,534 1122,534 1123,534 1124,533 1124,533 1125,533 1125,533 1126,531 1126,531 1127,530 1128,530 1128,530 1129,530 1129,529 1130,529 1130,528 1131,528 1131,527 1132,527 1133,526 1133,525 1134,525 1134,524 1135,524 1135,523 1136,523 1137,522 1137,522 1138,522 1138,521 1139,521 1139,520 1140,519 1140,518 1141,517 1142,517 1142,517 1143,516 1143,515 1144,515 1144,514 1145,514 1146,513 1146,513 1147,512 1147,511 1148,511 1148,511 1149,510 1149,510 1149,510 1149,510 1150,509 1151,508 1151,508 1151,508 1151,507 1152,507 1152,508 1152,507 1153,507 1153,507 1153,506 1153,506 1154,506 1154,505 1155,505 1155,505 1155,505 1155,505 1156,505 1156,504 1156,504 1156,504 1157,504 1157,503 1157,503 1157,503 1158,501 1159,501 1159,500 1159,500 1160,500 1160,500 1160,500 1160,500 1161,500 1161,499 1161,499 1161,499 1162,499 1162,498 1162,498 1162,497 1163,497 1164,497 1164,497 1164,497 1164,495 1165,495 1165,495 1165,495 1165,494 1166,494 1166,493 1166,493 1166,493 1167,493 1167,493 1168,493 1168,492 1168,492 1168,492 1169,491 1169,491 1169,490 1170,490 1170,490 1170,490 1170,489 1171,489 1171,488 1171,488 1171,488 1172,488 1172,487 1173,487 1173,486 1173,486 1173,486 1174,486 1174,486 1174,486 1174,485 1175,485 1175,484 1175,484 1176,484 1177,484 1177,483 1177,483 1177,481 1178,481 1178,481 1178,481 1178,481 1179,481 1179,481 1179,481 1179,480 1180,480 1180,479 1180,479 1180,479 1181,479 1181,478 1182,478 1182,478 1182,477 1183,477 1183,476 1183,476 1183,475 1184,475 1184,474 1184,474 1184,474 1185,473 1186,473 1186,472 1186,472 1186,472 1187,472 1187,471 1187,471 1187,470 1188,470 1188,470 1188,470 1188,469 1189,469 1189,468 1190,468 "/>
<rect x="1088" y="329" width="97" height="91" opacity="1" fill="#FFFFFF" stroke="none"/>
<rect x="1088" y="329" width="97" height="91" opacity="1" fill="none" stroke="#000000"/>
<text x="1128" y="339" dy="0.76em" text-anchor="start" font-family="sans-serif" font-size="9.67741935483871" opacity="1" fill="#000000">
argparse
</text>
<text x="1128" y="354" dy="0.76em" text-anchor="start" font-family="sans-serif" font-size="9.67741935483871" opacity="1" fill="#000000">
clap
</text>
<text x="1128" y="369" dy="0.76em" text-anchor="start" font-family="sans-serif" font-size="9.67741935483871" opacity="1" fill="#000000">
docopt
</text>
<text x="1128" y="384" dy="0.76em" text-anchor="start" font-family="sans-serif" font-size="9.67741935483871" opacity="1" fill="#000000">
getopts
</text>
<text x="1128" y="399" dy="0.76em" text-anchor="start" font-family="sans-serif" font-size="9.67741935483871" opacity="1" fill="#000000">
structopt
</text>
<polyline fill="none" opacity="1" stroke="#E61919" stroke-width="2" points="1098,343 1118,343 "/>
<polyline fill="none" opacity="1" stroke="#BDE619" stroke-width="2" points="1098,359 1118,359 "/>
<polyline fill="none" opacity="1" stroke="#19E66B" stroke-width="2" points="1098,374 1118,374 "/>
<polyline fill="none" opacity="1" stroke="#196BE6" stroke-width="2" points="1098,389 1118,389 "/>
<polyline fill="none" opacity="1" stroke="#BD19E6" stroke-width="2" points="1098,404 1118,404 "/>
</svg>
