<svg viewBox="0 0 1200 800" xmlns="http://www.w3.org/2000/svg">
<rect fill="#FFFFFF" height="800" opacity="1" stroke="none" width="1200" x="0" y="0"/>
<line opacity="0.1" stroke="#000000" stroke-width="1" x1="60" x2="1190" y1="726" y2="726"/>
<line opacity="0.1" stroke="#000000" stroke-width="1" x1="60" x2="1190" y1="713" y2="713"/>
<line opacity="0.1" stroke="#000000" stroke-width="1" x1="60" x2="1190" y1="699" y2="699"/>
<line opacity="0.1" stroke="#000000" stroke-width="1" x1="60" x2="1190" y1="685" y2="685"/>
<line opacity="0.1" stroke="#000000" stroke-width="1" x1="60" x2="1190" y1="672" y2="672"/>
<line opacity="0.1" stroke="#000000" stroke-width="1" x1="60" x2="1190" y1="658" y2="658"/>
<line opacity="0.1" stroke="#000000" stroke-width="1" x1="60" x2="1190" y1="645" y2="645"/>
<line opacity="0.1" stroke="#000000" stroke-width="1" x1="60" x2="1190" y1="631" y2="631"/>
<line opacity="0.1" stroke="#000000" stroke-width="1" x1="60" x2="1190" y1="618" y2="618"/>
<line opacity="0.1" stroke="#000000" stroke-width="1" x1="60" x2="1190" y1="604" y2="604"/>
<line opacity="0.1" stroke="#000000" stroke-width="1" x1="60" x2="1190" y1="591" y2="591"/>
<line opacity="0.1" stroke="#000000" stroke-width="1" x1="60" x2="1190" y1="577" y2="577"/>
<line opacity="0.1" stroke="#000000" stroke-width="1" x1="60" x2="1190" y1="563" y2="563"/>
<line opacity="0.1" stroke="#000000" stroke-width="1" x1="60" x2="1190" y1="550" y2="550"/>
<line opacity="0.1" stroke="#000000" stroke-width="1" x1="60" x2="1190" y1="536" y2="536"/>
<line opacity="0.1" stroke="#000000" stroke-width="1" x1="60" x2="1190" y1="523" y2="523"/>
<line opacity="0.1" stroke="#000000" stroke-width="1" x1="60" x2="1190" y1="509" y2="509"/>
<line opacity="0.1" stroke="#000000" stroke-width="1" x1="60" x2="1190" y1="496" y2="496"/>
<line opacity="0.1" stroke="#000000" stroke-width="1" x1="60" x2="1190" y1="482" y2="482"/>
<line opacity="0.1" stroke="#000000" stroke-width="1" x1="60" x2="1190" y1="468" y2="468"/>
<line opacity="0.1" stroke="#000000" stroke-width="1" x1="60" x2="1190" y1="455" y2="455"/>
<line opacity="0.1" stroke="#000000" stroke-width="1" x1="60" x2="1190" y1="441" y2="441"/>
<line opacity="0.1" stroke="#000000" stroke-width="1" x1="60" x2="1190" y1="428" y2="428"/>
<line opacity="0.1" stroke="#000000" stroke-width="1" x1="60" x2="1190" y1="414" y2="414"/>
<line opacity="0.1" stroke="#000000" stroke-width="1" x1="60" x2="1190" y1="401" y2="401"/>
<line opacity="0.1" stroke="#000000" stroke-width="1" x1="60" x2="1190" y1="387" y2="387"/>
<line opacity="0.1" stroke="#000000" stroke-width="1" x1="60" x2="1190" y1="373" y2="373"/>
<line opacity="0.1" stroke="#000000" stroke-width="1" x1="60" x2="1190" y1="360" y2="360"/>
<line opacity="0.1" stroke="#000000" stroke-width="1" x1="60" x2="1190" y1="346" y2="346"/>
<line opacity="0.1" stroke="#000000" stroke-width="1" x1="60" x2="1190" y1="333" y2="333"/>
<line opacity="0.1" stroke="#000000" stroke-width="1" x1="60" x2="1190" y1="319" y2="319"/>
<line opacity="0.1" stroke="#000000" stroke-width="1" x1="60" x2="1190" y1="306" y2="306"/>
<line opacity="0.1" stroke="#000000" stroke-width="1" x1="60" x2="1190" y1="292" y2="292"/>
<line opacity="0.1" stroke="#000000" stroke-width="1" x1="60" x2="1190" y1="278" y2="278"/>
<line opacity="0.1" stroke="#000000" stroke-width="1" x1="60" x2="1190" y1="265" y2="265"/>
<line opacity="0.1" stroke="#000000" stroke-width="1" x1="60" x2="1190" y1="251" y2="251"/>
<line opacity="0.1" stroke="#000000" stroke-width="1" x1="60" x2="1190" y1="238" y2="238"/>
<line opacity="0.1" stroke="#000000" stroke-width="1" x1="60" x2="1190" y1="224" y2="224"/>
<line opacity="0.1" stroke="#000000" stroke-width="1" x1="60" x2="1190" y1="211" y2="211"/>
<line opacity="0.1" stroke="#000000" stroke-width="1" x1="60" x2="1190" y1="197" y2="197"/>
<line opacity="0.1" stroke="#000000" stroke-width="1" x1="60" x2="1190" y1="183" y2="183"/>
<line opacity="0.1" stroke="#000000" stroke-width="1" x1="60" x2="1190" y1="170" y2="170"/>
<line opacity="0.1" stroke="#000000" stroke-width="1" x1="60" x2="1190" y1="156" y2="156"/>
<line opacity="0.1" stroke="#000000" stroke-width="1" x1="60" x2="1190" y1="143" y2="143"/>
<line opacity="0.1" stroke="#000000" stroke-width="1" x1="60" x2="1190" y1="129" y2="129"/>
<line opacity="0.1" stroke="#000000" stroke-width="1" x1="60" x2="1190" y1="116" y2="116"/>
<line opacity="0.1" stroke="#000000" stroke-width="1" x1="60" x2="1190" y1="102" y2="102"/>
<line opacity="0.1" stroke="#000000" stroke-width="1" x1="60" x2="1190" y1="88" y2="88"/>
<line opacity="0.1" stroke="#000000" stroke-width="1" x1="60" x2="1190" y1="75" y2="75"/>
<line opacity="0.1" stroke="#000000" stroke-width="1" x1="60" x2="1190" y1="61" y2="61"/>
<line opacity="0.1" stroke="#000000" stroke-width="1" x1="60" x2="1190" y1="48" y2="48"/>
<line opacity="0.1" stroke="#000000" stroke-width="1" x1="60" x2="1190" y1="34" y2="34"/>
<line opacity="0.1" stroke="#000000" stroke-width="1" x1="60" x2="1190" y1="21" y2="21"/>
<text fill="#000000" font-family="Arial" font-size="12" opacity="1" transform="rotate(270, 10, 443)" x="10" y="451">
Number of dependent crates
</text>
<line opacity="0.2" stroke="#000000" stroke-width="1" x1="60" x2="1190" y1="604" y2="604"/>
<line opacity="0.2" stroke="#000000" stroke-width="1" x1="60" x2="1190" y1="468" y2="468"/>
<line opacity="0.2" stroke="#000000" stroke-width="1" x1="60" x2="1190" y1="333" y2="333"/>
<line opacity="0.2" stroke="#000000" stroke-width="1" x1="60" x2="1190" y1="197" y2="197"/>
<line opacity="0.2" stroke="#000000" stroke-width="1" x1="60" x2="1190" y1="61" y2="61"/>
<polyline fill="none" opacity="1" points="60,740 60,10 " stroke="#000000" stroke-width="1"/>
<text fill="#000000" font-family="Arial" font-size="12" opacity="1" x="32" y="608">
500
</text>
<polyline fill="none" opacity="1" points="55,604 60,604 " stroke="#000000" stroke-width="1"/>
<text fill="#000000" font-family="Arial" font-size="12" opacity="1" x="26" y="472">
1000
</text>
<polyline fill="none" opacity="1" points="55,468 60,468 " stroke="#000000" stroke-width="1"/>
<text fill="#000000" font-family="Arial" font-size="12" opacity="1" x="26" y="337">
1500
</text>
<polyline fill="none" opacity="1" points="55,333 60,333 " stroke="#000000" stroke-width="1"/>
<text fill="#000000" font-family="Arial" font-size="12" opacity="1" x="26" y="201">
2000
</text>
<polyline fill="none" opacity="1" points="55,197 60,197 " stroke="#000000" stroke-width="1"/>
<text fill="#000000" font-family="Arial" font-size="12" opacity="1" x="26" y="65">
2500
</text>
<polyline fill="none" opacity="1" points="55,61 60,61 " stroke="#000000" stroke-width="1"/>
<polyline fill="none" opacity="1" points="60,740 1190,740 " stroke="#000000" stroke-width="1"/>
<text fill="#000000" font-family="Arial" font-size="12" opacity="1" x="29" y="757">
2014-11-20Z
</text>
<polyline fill="none" opacity="1" points="60,740 60,745 " stroke="#000000" stroke-width="1"/>
<text fill="#000000" font-family="Arial" font-size="12" opacity="1" x="144" y="757">
2015-05-28Z
</text>
<polyline fill="none" opacity="1" points="175,740 175,745 " stroke="#000000" stroke-width="1"/>
<text fill="#000000" font-family="Arial" font-size="12" opacity="1" x="259" y="757">
2015-12-03Z
</text>
<polyline fill="none" opacity="1" points="290,740 290,745 " stroke="#000000" stroke-width="1"/>
<text fill="#000000" font-family="Arial" font-size="12" opacity="1" x="374" y="757">
2016-06-09Z
</text>
<polyline fill="none" opacity="1" points="405,740 405,745 " stroke="#000000" stroke-width="1"/>
<text fill="#000000" font-family="Arial" font-size="12" opacity="1" x="489" y="757">
2016-12-15Z
</text>
<polyline fill="none" opacity="1" points="520,740 520,745 " stroke="#000000" stroke-width="1"/>
<text fill="#000000" font-family="Arial" font-size="12" opacity="1" x="604" y="757">
2017-06-22Z
</text>
<polyline fill="none" opacity="1" points="635,740 635,745 " stroke="#000000" stroke-width="1"/>
<text fill="#000000" font-family="Arial" font-size="12" opacity="1" x="719" y="757">
2017-12-28Z
</text>
<polyline fill="none" opacity="1" points="750,740 750,745 " stroke="#000000" stroke-width="1"/>
<text fill="#000000" font-family="Arial" font-size="12" opacity="1" x="834" y="757">
2018-07-05Z
</text>
<polyline fill="none" opacity="1" points="865,740 865,745 " stroke="#000000" stroke-width="1"/>
<text fill="#000000" font-family="Arial" font-size="12" opacity="1" x="949" y="757">
2019-01-10Z
</text>
<polyline fill="none" opacity="1" points="980,740 980,745 " stroke="#000000" stroke-width="1"/>
<text fill="#000000" font-family="Arial" font-size="12" opacity="1" x="1064" y="757">
2019-07-18Z
</text>
<polyline fill="none" opacity="1" points="1095,740 1095,745 " stroke="#000000" stroke-width="1"/>
<polyline fill="none" opacity="1" points="183,740 189,739 190,739 232,738 264,738 298,738 308,738 309,737 318,737 322,737 324,737 326,736 330,737 331,736 332,736 333,736 344,736 360,736 366,735 375,735 378,735 379,734 394,734 401,734 422,734 426,734 482,734 482,733 484,733 485,732 513,733 516,732 520,732 523,732 524,731 529,731 554,731 566,730 567,730 574,729 596,729 612,729 618,729 629,729 630,729 633,729 647,729 655,728 656,728 659,728 659,728 673,727 676,727 681,727 684,727 690,727 709,726 715,726 720,726 737,726 737,725 739,726 761,725 773,726 783,725 795,725 811,725 816,725 844,724 866,724 868,724 908,724 925,724 931,723 936,723 950,723 966,723 969,722 992,723 994,722 994,722 1000,722 1001,722 1006,721 1048,721 1051,721 1064,721 1067,720 1108,720 1110,720 1120,721 1170,720 1183,719 1189,719 " stroke="#E61919" stroke-width="2"/>
<polyline fill="none" opacity="1" points="139,740 168,739 192,739 195,739 209,738 217,738 218,738 221,738 228,738 230,737 233,737 240,737 245,737 250,736 255,736 260,736 263,735 264,735 265,735 266,735 267,734 268,734 271,734 272,733 274,733 278,732 279,732 281,731 289,731 292,731 294,731 294,730 295,730 297,730 299,729 305,729 305,729 307,728 308,728 311,728 311,728 313,727 313,727 314,727 318,726 321,726 321,726 322,725 323,725 327,725 327,724 332,724 334,723 338,723 338,723 339,722 340,722 341,722 342,721 344,721 345,721 346,721 347,720 349,720 352,720 352,719 355,719 355,719 356,718 360,718 364,718 366,718 367,718 368,718 370,717 372,717 372,717 373,717 373,717 374,716 375,716 377,716 377,715 378,715 382,715 386,714 387,714 389,713 392,713 395,713 401,713 402,712 404,712 406,712 409,711 412,711 412,711 413,710 414,710 415,710 416,709 417,709 419,709 422,708 422,707 425,707 425,707 426,706 430,705 431,705 431,704 432,704 434,704 435,703 436,703 437,703 438,702 440,702 440,702 442,701 442,701 443,701 443,700 446,700 447,700 448,700 449,699 450,699 451,699 452,699 454,698 455,697 456,697 456,697 457,696 458,696 459,696 461,696 462,668 462,667 464,667 464,666 465,666 466,665 467,665 468,665 469,664 470,664 470,664 471,663 471,663 472,662 473,662 473,661 475,661 475,661 476,660 476,660 478,659 479,659 479,659 480,658 481,658 481,657 482,657 482,656 483,655 484,655 484,655 485,654 486,654 487,649 488,648 491,648 495,648 496,648 496,647 497,647 498,647 500,646 501,645 501,645 502,645 503,645 504,644 505,644 506,643 506,643 507,643 508,643 509,642 511,642 512,641 513,641 513,640 514,639 516,639 517,639 519,639 520,636 522,636 523,636 523,636 524,635 526,635 526,634 527,634 528,634 529,634 530,633 530,633 531,633 532,633 533,632 534,632 536,631 537,631 537,630 538,630 539,630 540,629 540,628 541,628 543,627 543,627 544,627 545,626 546,625 546,624 547,624 548,623 548,622 549,622 550,621 551,621 551,620 552,620 552,620 553,619 554,618 555,617 555,617 556,617 557,616 557,615 558,615 558,615 559,614 560,614 561,613 562,613 563,612 564,612 565,611 565,611 566,610 567,610 568,609 568,609 569,608 569,607 571,607 572,607 573,606 574,606 575,605 576,605 576,605 577,604 577,604 578,602 579,601 579,601 580,600 582,600 582,599 583,599 583,599 584,598 585,598 585,597 586,595 587,595 588,595 588,594 589,594 590,593 590,593 591,592 592,592 593,591 593,591 594,590 594,590 595,589 596,589 596,588 597,588 597,588 598,587 599,586 600,586 602,585 603,585 604,585 605,584 605,583 606,583 607,582 607,582 608,580 608,580 609,580 610,579 610,580 611,579 613,578 614,578 614,577 615,577 616,576 616,576 618,575 618,574 619,574 619,573 620,573 621,572 622,572 622,571 623,570 624,570 624,569 625,569 626,569 627,568 627,568 628,567 628,566 629,565 630,564 630,564 631,563 631,563 632,562 633,561 634,561 635,561 636,560 639,560 639,559 640,559 641,558 642,558 642,557 644,557 644,556 645,556 645,555 646,556 647,555 647,555 648,555 649,554 649,553 650,552 650,551 651,551 652,551 652,550 653,549 653,549 654,548 655,548 656,548 657,547 658,547 658,546 659,546 659,545 660,545 661,545 662,544 663,544 663,544 664,543 664,542 665,542 666,541 667,541 667,541 669,540 669,539 670,539 672,538 673,538 673,537 674,537 675,536 675,536 676,535 678,535 679,535 680,534 680,533 681,533 683,532 683,532 684,531 684,531 685,531 686,530 686,529 687,529 687,529 688,528 691,527 692,527 692,526 694,521 694,520 695,519 697,518 697,518 698,517 699,516 700,516 700,515 701,515 701,514 702,513 703,513 703,512 704,512 705,511 705,511 707,510 708,510 708,510 709,509 709,508 710,508 711,508 711,507 712,506 712,506 713,505 714,504 714,504 715,503 715,502 716,502 717,501 717,501 719,500 720,500 720,500 721,499 722,498 723,498 723,497 725,497 725,496 726,496 728,495 728,496 729,494 730,494 731,493 733,492 733,492 734,491 734,491 736,491 736,490 737,490 737,490 738,489 739,488 740,486 740,485 741,485 742,485 742,484 743,483 743,483 744,483 745,482 745,482 747,481 747,480 748,480 748,479 750,479 751,478 751,478 752,478 753,477 754,477 755,476 756,476 757,475 757,475 758,475 759,474 761,473 761,472 762,471 763,471 764,471 764,470 765,470 765,469 766,469 767,468 767,468 768,466 768,466 769,466 770,466 771,460 771,460 772,459 773,458 773,458 774,457 774,456 775,456 776,455 776,454 777,453 778,452 778,451 779,450 779,449 780,448 781,448 781,448 782,446 782,446 784,445 785,445 785,444 786,443 787,443 787,442 788,441 788,441 789,440 790,439 790,439 791,439 792,438 792,437 793,437 793,436 794,436 795,434 795,433 796,433 796,432 797,432 798,431 799,431 800,430 801,429 802,430 802,429 803,428 804,427 804,427 805,425 806,424 806,424 807,424 807,422 808,421 810,421 811,421 812,420 812,419 813,419 813,419 814,418 815,417 816,418 816,417 817,416 818,415 818,415 819,415 820,414 820,414 821,413 822,413 824,412 826,412 826,412 827,411 827,410 828,410 829,410 829,409 830,408 830,408 831,407 832,406 833,406 834,405 834,405 835,404 835,404 836,403 837,402 838,402 838,401 839,401 840,401 841,400 841,399 842,399 843,398 843,398 844,397 844,396 845,396 846,395 847,395 848,394 849,394 849,393 850,393 851,392 851,391 852,391 852,390 853,389 854,389 854,387 855,387 855,387 856,386 857,386 858,385 858,384 859,384 860,383 861,383 862,382 862,381 863,380 863,379 865,379 865,378 866,378 866,377 867,376 868,376 868,375 869,374 869,373 871,373 872,372 873,372 874,370 874,370 875,370 876,369 877,368 877,368 878,368 879,367 879,367 880,367 881,367 882,366 883,366 883,365 884,365 885,364 886,363 887,362 888,362 889,361 890,360 890,360 893,360 893,359 894,359 894,358 895,357 897,357 897,356 898,356 899,356 899,355 900,355 902,354 902,353 903,352 904,351 904,351 905,350 905,349 906,348 907,348 907,347 909,347 910,346 910,345 911,344 911,343 913,342 913,341 914,340 915,340 915,339 916,338 916,337 917,337 918,336 919,334 919,334 920,333 921,332 921,332 922,331 923,330 924,330 924,329 925,329 926,320 927,319 927,319 928,318 928,317 929,317 930,316 931,315 931,313 933,312 933,312 935,311 935,310 936,309 936,308 937,307 938,306 939,305 940,304 941,304 941,303 942,302 943,301 944,299 944,299 945,298 946,297 947,296 947,296 948,294 949,294 949,294 950,293 950,293 951,292 952,291 952,291 953,290 954,289 955,289 955,289 956,287 958,287 958,286 959,285 959,284 960,284 961,283 962,282 964,281 964,281 965,281 966,280 966,279 967,278 967,278 968,278 969,277 969,276 970,276 970,275 971,274 972,273 972,274 973,273 973,272 974,270 975,268 975,267 976,266 977,266 977,265 978,262 978,260 980,260 980,259 981,259 981,258 982,258 983,257 983,256 984,256 984,255 985,254 987,253 987,252 988,250 989,250 989,250 990,249 991,248 991,247 992,247 992,246 993,245 994,245 994,245 995,244 995,243 996,242 997,242 998,241 998,240 999,239 1000,238 1000,238 1001,237 1001,237 1002,236 1003,235 1003,235 1004,234 1005,234 1005,233 1006,233 1006,232 1007,232 1008,231 1008,230 1009,230 1009,229 1010,228 1011,227 1011,226 1012,225 1012,224 1013,223 1014,222 1015,221 1015,221 1017,219 1017,219 1018,219 1019,218 1019,217 1020,217 1020,217 1021,216 1022,215 1022,214 1023,213 1023,212 1024,211 1025,210 1025,209 1026,208 1026,207 1027,206 1028,206 1028,205 1029,205 1029,204 1030,203 1031,202 1032,201 1033,200 1033,199 1034,199 1034,199 1035,198 1036,198 1036,197 1037,196 1037,195 1038,195 1039,194 1039,193 1040,192 1041,192 1042,191 1042,190 1043,189 1043,188 1044,186 1045,185 1045,185 1046,184 1047,183 1047,183 1048,181 1048,181 1049,180 1050,179 1050,179 1051,179 1051,178 1052,177 1053,177 1053,176 1054,176 1055,175 1056,174 1057,173 1057,171 1059,170 1059,169 1060,169 1060,167 1061,166 1062,166 1062,166 1063,165 1064,164 1064,163 1065,161 1065,161 1066,160 1067,158 1067,158 1068,157 1068,156 1069,156 1070,154 1070,154 1071,153 1071,153 1072,151 1073,151 1073,150 1074,149 1074,148 1075,148 1076,147 1076,146 1077,145 1078,145 1078,145 1079,145 1079,144 1080,142 1081,141 1081,140 1082,139 1082,138 1083,138 1084,137 1084,137 1085,137 1085,137 1087,128 1087,128 1088,128 1088,126 1089,126 1090,125 1090,124 1091,123 1092,122 1092,121 1093,120 1093,119 1094,118 1095,118 1095,116 1096,115 1096,114 1097,114 1098,113 1098,112 1099,112 1099,111 1100,110 1101,109 1101,109 1102,108 1103,107 1104,107 1104,106 1105,106 1106,105 1106,104 1107,103 1107,103 1108,102 1109,101 1109,101 1110,100 1110,98 1111,97 1112,96 1112,95 1113,94 1113,94 1115,93 1115,92 1116,91 1116,90 1117,90 1118,89 1118,89 1119,88 1120,88 1121,87 1121,87 1122,86 1123,86 1123,85 1124,85 1124,84 1125,83 1126,82 1126,81 1127,80 1127,79 1128,78 1129,78 1129,77 1130,77 1130,76 1131,75 1132,74 1132,73 1133,72 1134,71 1134,71 1135,70 1135,69 1136,69 1137,69 1137,68 1138,67 1138,67 1139,66 1140,66 1140,65 1141,65 1141,64 1141,64 1143,63 1143,62 1144,62 1145,60 1146,58 1146,58 1147,57 1148,57 1148,56 1149,56 1149,55 1150,54 1151,53 1152,53 1152,52 1153,51 1154,51 1154,50 1155,50 1155,49 1156,47 1157,47 1157,47 1158,46 1158,46 1159,45 1160,44 1160,44 1161,43 1162,41 1163,41 1163,39 1164,38 1165,37 1165,36 1166,36 1166,35 1167,34 1168,34 1168,31 1169,31 1169,30 1170,29 1171,28 1171,27 1172,27 1172,26 1173,26 1174,26 1174,25 1175,25 1175,22 1176,22 1176,21 1176,20 1177,20 1177,19 1179,18 1179,18 1180,18 1181,17 1182,16 1182,15 1183,14 1184,13 1185,12 1186,12 1186,11 1187,11 1188,10 1188,10 1189,10 1190,10 " stroke="#BDE619" stroke-width="2"/>
<polyline fill="none" opacity="1" points="60,739 60,739 77,738 78,738 84,738 88,737 93,737 98,736 100,736 101,736 101,735 110,735 117,735 118,734 126,734 129,734 130,734 134,734 148,733 152,733 154,732 158,732 167,732 167,732 170,732 170,732 173,731 173,730 175,730 179,730 185,729 187,729 188,729 191,728 194,728 195,728 197,727 203,727 208,727 209,727 210,727 211,726 212,726 217,726 220,726 221,725 225,725 232,725 233,724 238,724 243,723 244,723 246,722 249,722 257,722 262,722 264,721 273,721 278,721 282,720 283,720 285,719 286,718 294,718 294,718 295,717 297,717 299,717 304,716 309,716 312,716 321,715 323,715 324,715 326,714 327,714 327,714 329,714 330,714 330,713 331,713 332,713 337,712 339,712 341,712 345,711 347,711 350,711 351,710 354,710 355,710 358,710 359,709 369,709 372,709 373,708 376,708 377,708 378,707 379,707 384,707 387,707 387,706 390,706 392,706 396,705 400,705 402,705 406,704 412,704 417,704 417,704 418,704 419,704 421,704 423,704 428,703 429,703 431,703 437,703 439,702 439,702 448,702 449,701 451,701 452,701 453,700 456,700 456,700 464,700 467,699 468,699 476,699 480,699 481,699 483,699 485,699 486,698 488,698 492,697 494,697 501,697 504,697 505,697 507,697 510,696 511,696 512,696 515,696 518,695 519,695 520,695 524,694 528,694 532,693 533,693 534,693 535,692 538,692 541,691 543,692 548,691 555,691 556,691 561,691 565,690 567,690 568,690 568,691 570,691 572,690 572,691 577,690 579,691 583,691 586,691 588,690 588,690 596,690 598,690 604,689 605,690 607,689 608,689 610,689 611,689 611,688 613,688 618,688 619,688 622,688 624,688 628,688 630,687 633,687 637,687 641,687 656,686 659,686 667,686 672,685 679,685 681,685 683,685 684,684 686,685 686,684 698,684 703,684 705,685 706,684 708,684 723,684 728,683 733,684 734,683 735,683 736,683 737,683 742,683 746,683 750,682 753,682 756,682 758,681 759,681 768,681 770,681 780,681 783,681 791,680 795,680 796,680 800,680 801,680 808,680 809,680 812,680 816,679 817,680 829,679 830,679 834,679 835,679 836,679 837,679 840,679 850,678 858,678 861,678 865,677 868,677 872,677 874,677 876,677 882,677 888,676 890,676 893,676 902,675 905,676 910,675 911,675 914,675 919,675 920,674 924,674 927,674 931,674 932,673 935,673 936,673 941,672 942,672 943,672 944,672 947,672 949,672 949,671 959,671 959,671 960,671 964,670 966,670 970,670 975,670 978,670 983,669 988,669 1000,669 1005,669 1010,668 1019,668 1021,668 1023,668 1025,668 1026,668 1027,668 1029,668 1032,668 1036,668 1053,667 1064,667 1068,667 1071,667 1075,667 1081,667 1096,667 1100,668 1107,667 1115,667 1116,667 1118,667 1145,667 1149,666 1151,666 1154,666 1168,667 1170,667 1171,667 1181,667 " stroke="#19E66B" stroke-width="2"/>
<polyline fill="none" opacity="1" points="90,740 98,739 102,739 112,739 114,738 120,738 125,738 133,738 134,737 140,737 153,737 162,737 163,736 167,736 169,736 171,735 171,735 172,735 173,734 179,734 183,734 184,733 185,733 186,733 192,732 195,732 201,732 208,732 215,731 216,731 221,731 222,731 223,730 224,731 232,730 244,730 258,729 267,729 285,729 287,729 291,728 296,728 296,728 300,728 301,727 305,728 307,727 308,727 313,726 317,726 318,726 321,726 324,725 325,725 326,725 329,725 330,724 332,724 335,724 335,723 338,723 341,723 351,723 356,722 357,722 358,722 359,722 360,721 365,721 366,720 371,720 377,719 377,719 380,719 389,718 392,719 397,718 405,718 414,718 415,718 415,717 426,717 433,717 436,716 442,716 447,716 453,715 453,715 455,715 456,715 457,715 459,715 459,714 467,714 468,714 470,713 490,713 493,712 494,712 500,713 501,712 504,712 505,712 512,712 512,712 525,712 526,711 527,711 530,711 531,710 532,711 533,710 535,710 535,710 540,709 541,709 541,709 542,709 543,709 543,708 549,708 553,707 560,707 562,707 582,707 583,706 585,706 586,706 590,706 590,705 592,705 593,704 599,704 605,703 605,704 607,703 608,703 610,702 613,703 614,702 615,702 616,702 618,702 619,702 625,702 630,701 633,701 639,701 640,700 650,700 655,700 657,700 659,699 661,699 664,699 666,698 673,698 683,697 685,697 687,697 691,697 694,696 695,696 719,696 723,696 726,695 726,695 730,694 740,694 743,694 745,694 751,694 752,693 753,693 754,693 759,693 760,692 762,692 764,691 768,691 770,691 773,691 774,691 775,691 778,691 779,691 782,690 783,690 798,690 812,690 816,689 818,689 818,688 820,688 823,688 832,688 839,687 841,687 846,687 852,687 858,687 860,687 872,687 876,687 879,687 880,686 883,687 888,686 893,686 895,686 898,685 900,685 901,685 902,685 911,684 912,684 914,684 916,684 921,684 927,684 930,683 930,683 936,683 936,683 938,682 940,682 944,682 953,681 955,681 956,681 961,681 963,680 963,679 965,680 977,679 978,680 978,680 980,679 995,679 996,679 998,679 1000,679 1009,678 1011,678 1012,678 1013,677 1014,677 1016,677 1021,677 1023,677 1026,677 1028,676 1035,676 1042,675 1043,675 1047,675 1050,674 1050,674 1053,674 1054,674 1059,673 1066,673 1071,673 1092,672 1093,673 1100,672 1109,672 1111,672 1112,671 1116,671 1118,671 1123,671 1129,670 1129,670 1130,670 1135,669 1137,669 1138,669 1139,669 1146,669 1149,669 1150,669 1153,668 1158,668 1161,668 1162,667 1163,667 1169,667 1170,667 1178,666 1186,666 " stroke="#196BE6" stroke-width="2"/>
<polyline fill="none" opacity="1" points="569,740 570,739 594,739 613,739 635,738 636,738 645,738 658,737 663,737 668,737 677,737 680,736 681,736 684,735 691,735 708,735 709,735 715,734 722,734 729,734 731,734 732,733 733,733 736,732 737,732 742,732 742,731 747,731 748,731 753,731 753,730 757,730 760,730 761,729 763,729 764,729 766,728 767,728 767,728 768,728 769,728 770,727 771,727 772,727 773,727 776,727 778,726 778,726 781,726 784,725 785,725 787,725 790,724 791,724 792,724 795,723 797,723 798,723 799,722 804,722 804,721 805,721 806,721 809,720 810,720 811,719 812,719 812,719 813,718 814,718 815,718 816,717 817,716 818,716 818,716 820,716 821,715 822,715 823,714 823,714 824,713 825,713 826,713 826,712 829,712 830,712 831,711 832,710 833,710 834,709 834,709 835,709 837,708 837,708 838,708 839,707 840,707 840,707 841,706 842,705 843,705 844,704 845,704 846,704 849,703 852,703 854,703 855,702 857,702 860,701 862,701 863,701 864,700 865,700 865,700 866,699 868,699 868,699 869,699 871,698 873,698 874,697 874,697 876,696 876,696 877,696 879,696 884,695 885,694 887,694 888,694 890,694 891,693 891,693 892,691 893,691 893,691 894,690 895,690 896,690 897,690 898,689 899,689 900,688 902,688 903,688 904,687 905,687 905,686 908,686 910,686 911,685 913,685 914,684 914,684 916,684 917,684 917,683 919,683 919,683 920,682 921,682 922,681 922,681 923,680 924,680 924,680 925,679 926,679 927,678 927,678 928,678 928,677 930,677 931,677 931,676 932,675 933,675 935,674 936,674 936,674 937,674 938,673 938,673 939,672 939,672 940,672 941,671 942,671 943,670 944,670 944,670 945,669 947,669 951,669 952,669 955,668 956,668 957,668 958,668 958,668 959,668 960,667 961,667 963,666 963,665 964,665 964,664 965,664 966,663 967,662 967,661 968,661 969,661 970,660 971,659 972,659 972,659 973,658 974,657 975,657 977,656 977,655 978,653 978,653 980,652 980,652 981,652 981,651 982,650 983,649 983,649 984,648 985,648 986,647 986,647 987,646 988,646 989,646 990,645 991,645 992,645 992,644 993,644 994,644 994,643 995,642 995,642 996,641 997,642 998,641 998,641 999,640 1000,640 1000,640 1001,639 1001,639 1002,638 1003,638 1004,637 1005,637 1006,637 1007,637 1008,636 1008,636 1009,636 1009,635 1010,635 1011,634 1011,633 1012,633 1013,632 1014,632 1014,631 1015,630 1015,630 1016,629 1017,628 1017,628 1019,627 1019,627 1020,626 1020,626 1021,625 1022,624 1023,623 1024,623 1026,622 1026,621 1027,621 1028,621 1028,620 1029,620 1029,620 1030,619 1031,619 1033,619 1033,618 1034,617 1034,617 1035,617 1036,617 1037,615 1038,615 1039,614 1042,614 1042,614 1043,613 1043,613 1044,612 1045,611 1045,611 1046,610 1047,610 1048,610 1048,609 1049,609 1050,608 1050,607 1051,607 1052,606 1053,606 1053,606 1054,605 1054,605 1056,605 1056,604 1057,604 1057,603 1058,602 1059,602 1059,601 1061,601 1062,600 1063,599 1064,599 1064,599 1065,598 1065,598 1066,598 1067,598 1068,597 1068,596 1069,596 1070,595 1071,594 1072,594 1073,593 1074,592 1076,591 1076,590 1077,590 1078,589 1078,588 1079,588 1080,588 1081,587 1081,587 1082,586 1082,586 1083,585 1084,585 1085,585 1085,584 1086,583 1087,583 1089,583 1090,583 1090,582 1091,581 1092,580 1092,580 1093,579 1094,579 1095,578 1096,577 1096,577 1097,576 1098,576 1099,575 1099,575 1100,574 1101,574 1101,573 1102,573 1102,572 1103,571 1104,570 1104,570 1105,570 1106,570 1106,569 1107,567 1107,567 1109,566 1109,566 1110,566 1110,565 1111,565 1112,564 1112,564 1113,564 1113,563 1114,561 1116,561 1116,560 1117,560 1118,559 1118,559 1119,559 1120,558 1120,558 1121,558 1121,557 1122,556 1123,556 1123,555 1124,554 1124,553 1125,553 1126,552 1126,552 1127,551 1127,550 1128,550 1129,549 1130,549 1131,548 1132,547 1132,546 1133,545 1134,545 1134,544 1135,544 1135,543 1136,543 1137,541 1137,541 1138,540 1138,539 1139,538 1140,538 1140,537 1141,536 1141,535 1142,535 1143,534 1143,534 1144,533 1144,533 1145,532 1146,531 1146,531 1147,531 1148,529 1148,529 1149,528 1149,528 1150,527 1151,526 1151,526 1152,525 1152,525 1153,524 1154,523 1154,521 1155,520 1155,519 1156,518 1157,517 1157,517 1159,516 1160,516 1160,515 1162,516 1162,515 1163,514 1163,513 1164,512 1165,512 1165,511 1166,510 1166,510 1167,509 1168,508 1168,507 1169,507 1170,506 1171,505 1172,505 1172,504 1173,503 1174,503 1175,502 1176,502 1176,501 1177,500 1177,500 1178,500 1179,499 1179,499 1180,497 1180,496 1182,496 1182,494 1182,494 1183,494 1184,494 1185,493 1185,492 1185,491 1186,490 1186,490 1187,489 1188,487 1188,487 1189,487 1189,486 1190,486 " stroke="#BD19E6" stroke-width="2"/>
<rect fill="#FFFFFF" height="90" opacity="1" stroke="none" width="92" x="1093" y="325"/>
<rect fill="none" height="90" opacity="1" stroke="#000000" width="92" x="1093" y="325"/>
<text fill="#000000" font-family="Arial" font-size="12" opacity="1" x="1133" y="341">
argparse
</text>
<text fill="#000000" font-family="Arial" font-size="12" opacity="1" x="1133" y="358">
clap
</text>
<text fill="#000000" font-family="Arial" font-size="12" opacity="1" x="1133" y="373">
docopt
</text>
<text fill="#000000" font-family="Arial" font-size="12" opacity="1" x="1133" y="387">
getopts
</text>
<text fill="#000000" font-family="Arial" font-size="12" opacity="1" x="1133" y="402">
structopt
</text>
<polyline fill="none" opacity="1" points="1103,339 1123,339 " stroke="#E61919" stroke-width="2"/>
<polyline fill="none" opacity="1" points="1103,355 1123,355 " stroke="#BDE619" stroke-width="2"/>
<polyline fill="none" opacity="1" points="1103,370 1123,370 " stroke="#19E66B" stroke-width="2"/>
<polyline fill="none" opacity="1" points="1103,385 1123,385 " stroke="#196BE6" stroke-width="2"/>
<polyline fill="none" opacity="1" points="1103,400 1123,400 " stroke="#BD19E6" stroke-width="2"/>
</svg>