<svg width="1200" height="800" xmlns="http://www.w3.org/2000/svg">
<rect x="0" y="0" width="1199" height="799" opacity="1" fill="#FFFFFF" stroke="none"/>
<line opacity="0.1" stroke="#000000" stroke-width="1" x1="60" y1="727" x2="1190" y2="727"/>
<line opacity="0.1" stroke="#000000" stroke-width="1" x1="60" y1="716" x2="1190" y2="716"/>
<line opacity="0.1" stroke="#000000" stroke-width="1" x1="60" y1="705" x2="1190" y2="705"/>
<line opacity="0.1" stroke="#000000" stroke-width="1" x1="60" y1="693" x2="1190" y2="693"/>
<line opacity="0.1" stroke="#000000" stroke-width="1" x1="60" y1="682" x2="1190" y2="682"/>
<line opacity="0.1" stroke="#000000" stroke-width="1" x1="60" y1="670" x2="1190" y2="670"/>
<line opacity="0.1" stroke="#000000" stroke-width="1" x1="60" y1="659" x2="1190" y2="659"/>
<line opacity="0.1" stroke="#000000" stroke-width="1" x1="60" y1="648" x2="1190" y2="648"/>
<line opacity="0.1" stroke="#000000" stroke-width="1" x1="60" y1="636" x2="1190" y2="636"/>
<line opacity="0.1" stroke="#000000" stroke-width="1" x1="60" y1="625" x2="1190" y2="625"/>
<line opacity="0.1" stroke="#000000" stroke-width="1" x1="60" y1="614" x2="1190" y2="614"/>
<line opacity="0.1" stroke="#000000" stroke-width="1" x1="60" y1="602" x2="1190" y2="602"/>
<line opacity="0.1" stroke="#000000" stroke-width="1" x1="60" y1="591" x2="1190" y2="591"/>
<line opacity="0.1" stroke="#000000" stroke-width="1" x1="60" y1="579" x2="1190" y2="579"/>
<line opacity="0.1" stroke="#000000" stroke-width="1" x1="60" y1="568" x2="1190" y2="568"/>
<line opacity="0.1" stroke="#000000" stroke-width="1" x1="60" y1="557" x2="1190" y2="557"/>
<line opacity="0.1" stroke="#000000" stroke-width="1" x1="60" y1="545" x2="1190" y2="545"/>
<line opacity="0.1" stroke="#000000" stroke-width="1" x1="60" y1="534" x2="1190" y2="534"/>
<line opacity="0.1" stroke="#000000" stroke-width="1" x1="60" y1="523" x2="1190" y2="523"/>
<line opacity="0.1" stroke="#000000" stroke-width="1" x1="60" y1="511" x2="1190" y2="511"/>
<line opacity="0.1" stroke="#000000" stroke-width="1" x1="60" y1="500" x2="1190" y2="500"/>
<line opacity="0.1" stroke="#000000" stroke-width="1" x1="60" y1="488" x2="1190" y2="488"/>
<line opacity="0.1" stroke="#000000" stroke-width="1" x1="60" y1="477" x2="1190" y2="477"/>
<line opacity="0.1" stroke="#000000" stroke-width="1" x1="60" y1="466" x2="1190" y2="466"/>
<line opacity="0.1" stroke="#000000" stroke-width="1" x1="60" y1="454" x2="1190" y2="454"/>
<line opacity="0.1" stroke="#000000" stroke-width="1" x1="60" y1="443" x2="1190" y2="443"/>
<line opacity="0.1" stroke="#000000" stroke-width="1" x1="60" y1="431" x2="1190" y2="431"/>
<line opacity="0.1" stroke="#000000" stroke-width="1" x1="60" y1="420" x2="1190" y2="420"/>
<line opacity="0.1" stroke="#000000" stroke-width="1" x1="60" y1="409" x2="1190" y2="409"/>
<line opacity="0.1" stroke="#000000" stroke-width="1" x1="60" y1="397" x2="1190" y2="397"/>
<line opacity="0.1" stroke="#000000" stroke-width="1" x1="60" y1="386" x2="1190" y2="386"/>
<line opacity="0.1" stroke="#000000" stroke-width="1" x1="60" y1="375" x2="1190" y2="375"/>
<line opacity="0.1" stroke="#000000" stroke-width="1" x1="60" y1="363" x2="1190" y2="363"/>
<line opacity="0.1" stroke="#000000" stroke-width="1" x1="60" y1="352" x2="1190" y2="352"/>
<line opacity="0.1" stroke="#000000" stroke-width="1" x1="60" y1="340" x2="1190" y2="340"/>
<line opacity="0.1" stroke="#000000" stroke-width="1" x1="60" y1="329" x2="1190" y2="329"/>
<line opacity="0.1" stroke="#000000" stroke-width="1" x1="60" y1="318" x2="1190" y2="318"/>
<line opacity="0.1" stroke="#000000" stroke-width="1" x1="60" y1="306" x2="1190" y2="306"/>
<line opacity="0.1" stroke="#000000" stroke-width="1" x1="60" y1="295" x2="1190" y2="295"/>
<line opacity="0.1" stroke="#000000" stroke-width="1" x1="60" y1="284" x2="1190" y2="284"/>
<line opacity="0.1" stroke="#000000" stroke-width="1" x1="60" y1="272" x2="1190" y2="272"/>
<line opacity="0.1" stroke="#000000" stroke-width="1" x1="60" y1="261" x2="1190" y2="261"/>
<line opacity="0.1" stroke="#000000" stroke-width="1" x1="60" y1="249" x2="1190" y2="249"/>
<line opacity="0.1" stroke="#000000" stroke-width="1" x1="60" y1="238" x2="1190" y2="238"/>
<line opacity="0.1" stroke="#000000" stroke-width="1" x1="60" y1="227" x2="1190" y2="227"/>
<line opacity="0.1" stroke="#000000" stroke-width="1" x1="60" y1="215" x2="1190" y2="215"/>
<line opacity="0.1" stroke="#000000" stroke-width="1" x1="60" y1="204" x2="1190" y2="204"/>
<line opacity="0.1" stroke="#000000" stroke-width="1" x1="60" y1="193" x2="1190" y2="193"/>
<line opacity="0.1" stroke="#000000" stroke-width="1" x1="60" y1="181" x2="1190" y2="181"/>
<line opacity="0.1" stroke="#000000" stroke-width="1" x1="60" y1="170" x2="1190" y2="170"/>
<line opacity="0.1" stroke="#000000" stroke-width="1" x1="60" y1="158" x2="1190" y2="158"/>
<line opacity="0.1" stroke="#000000" stroke-width="1" x1="60" y1="147" x2="1190" y2="147"/>
<line opacity="0.1" stroke="#000000" stroke-width="1" x1="60" y1="136" x2="1190" y2="136"/>
<line opacity="0.1" stroke="#000000" stroke-width="1" x1="60" y1="124" x2="1190" y2="124"/>
<line opacity="0.1" stroke="#000000" stroke-width="1" x1="60" y1="113" x2="1190" y2="113"/>
<line opacity="0.1" stroke="#000000" stroke-width="1" x1="60" y1="102" x2="1190" y2="102"/>
<line opacity="0.1" stroke="#000000" stroke-width="1" x1="60" y1="90" x2="1190" y2="90"/>
<line opacity="0.1" stroke="#000000" stroke-width="1" x1="60" y1="79" x2="1190" y2="79"/>
<line opacity="0.1" stroke="#000000" stroke-width="1" x1="60" y1="67" x2="1190" y2="67"/>
<line opacity="0.1" stroke="#000000" stroke-width="1" x1="60" y1="56" x2="1190" y2="56"/>
<line opacity="0.1" stroke="#000000" stroke-width="1" x1="60" y1="45" x2="1190" y2="45"/>
<line opacity="0.1" stroke="#000000" stroke-width="1" x1="60" y1="33" x2="1190" y2="33"/>
<line opacity="0.1" stroke="#000000" stroke-width="1" x1="60" y1="22" x2="1190" y2="22"/>
<line opacity="0.1" stroke="#000000" stroke-width="1" x1="60" y1="10" x2="1190" y2="10"/>
<text x="10" y="375" dy="0.76em" text-anchor="middle" font-family="sans-serif" font-size="9.67741935483871" opacity="1" fill="#000000" transform="rotate(270, 10, 375)">
Number of dependent crates
</text>
<line opacity="0.2" stroke="#000000" stroke-width="1" x1="60" y1="625" x2="1190" y2="625"/>
<line opacity="0.2" stroke="#000000" stroke-width="1" x1="60" y1="511" x2="1190" y2="511"/>
<line opacity="0.2" stroke="#000000" stroke-width="1" x1="60" y1="397" x2="1190" y2="397"/>
<line opacity="0.2" stroke="#000000" stroke-width="1" x1="60" y1="284" x2="1190" y2="284"/>
<line opacity="0.2" stroke="#000000" stroke-width="1" x1="60" y1="170" x2="1190" y2="170"/>
<line opacity="0.2" stroke="#000000" stroke-width="1" x1="60" y1="56" x2="1190" y2="56"/>
<polyline fill="none" opacity="1" stroke="#000000" stroke-width="1" points="59,10 59,740 "/>
<text x="50" y="625" dy="0.5ex" text-anchor="end" font-family="sans-serif" font-size="9.67741935483871" opacity="1" fill="#000000">
500
</text>
<polyline fill="none" opacity="1" stroke="#000000" stroke-width="1" points="54,625 59,625 "/>
<text x="50" y="511" dy="0.5ex" text-anchor="end" font-family="sans-serif" font-size="9.67741935483871" opacity="1" fill="#000000">
1000
</text>
<polyline fill="none" opacity="1" stroke="#000000" stroke-width="1" points="54,511 59,511 "/>
<text x="50" y="397" dy="0.5ex" text-anchor="end" font-family="sans-serif" font-size="9.67741935483871" opacity="1" fill="#000000">
1500
</text>
<polyline fill="none" opacity="1" stroke="#000000" stroke-width="1" points="54,397 59,397 "/>
<text x="50" y="284" dy="0.5ex" text-anchor="end" font-family="sans-serif" font-size="9.67741935483871" opacity="1" fill="#000000">
2000
</text>
<polyline fill="none" opacity="1" stroke="#000000" stroke-width="1" points="54,284 59,284 "/>
<text x="50" y="170" dy="0.5ex" text-anchor="end" font-family="sans-serif" font-size="9.67741935483871" opacity="1" fill="#000000">
2500
</text>
<polyline fill="none" opacity="1" stroke="#000000" stroke-width="1" points="54,170 59,170 "/>
<text x="50" y="56" dy="0.5ex" text-anchor="end" font-family="sans-serif" font-size="9.67741935483871" opacity="1" fill="#000000">
3000
</text>
<polyline fill="none" opacity="1" stroke="#000000" stroke-width="1" points="54,56 59,56 "/>
<polyline fill="none" opacity="1" stroke="#000000" stroke-width="1" points="60,740 1190,740 "/>
<text x="60" y="750" dy="0.76em" text-anchor="middle" font-family="sans-serif" font-size="9.67741935483871" opacity="1" fill="#000000">
2014-11-20Z
</text>
<polyline fill="none" opacity="1" stroke="#000000" stroke-width="1" points="60,740 60,745 "/>
<text x="175" y="750" dy="0.76em" text-anchor="middle" font-family="sans-serif" font-size="9.67741935483871" opacity="1" fill="#000000">
2015-06-04Z
</text>
<polyline fill="none" opacity="1" stroke="#000000" stroke-width="1" points="175,740 175,745 "/>
<text x="290" y="750" dy="0.76em" text-anchor="middle" font-family="sans-serif" font-size="9.67741935483871" opacity="1" fill="#000000">
2015-12-17Z
</text>
<polyline fill="none" opacity="1" stroke="#000000" stroke-width="1" points="290,740 290,745 "/>
<text x="405" y="750" dy="0.76em" text-anchor="middle" font-family="sans-serif" font-size="9.67741935483871" opacity="1" fill="#000000">
2016-06-30Z
</text>
<polyline fill="none" opacity="1" stroke="#000000" stroke-width="1" points="405,740 405,745 "/>
<text x="521" y="750" dy="0.76em" text-anchor="middle" font-family="sans-serif" font-size="9.67741935483871" opacity="1" fill="#000000">
2017-01-12Z
</text>
<polyline fill="none" opacity="1" stroke="#000000" stroke-width="1" points="521,740 521,745 "/>
<text x="636" y="750" dy="0.76em" text-anchor="middle" font-family="sans-serif" font-size="9.67741935483871" opacity="1" fill="#000000">
2017-07-27Z
</text>
<polyline fill="none" opacity="1" stroke="#000000" stroke-width="1" points="636,740 636,745 "/>
<text x="751" y="750" dy="0.76em" text-anchor="middle" font-family="sans-serif" font-size="9.67741935483871" opacity="1" fill="#000000">
2018-02-08Z
</text>
<polyline fill="none" opacity="1" stroke="#000000" stroke-width="1" points="751,740 751,745 "/>
<text x="867" y="750" dy="0.76em" text-anchor="middle" font-family="sans-serif" font-size="9.67741935483871" opacity="1" fill="#000000">
2018-08-23Z
</text>
<polyline fill="none" opacity="1" stroke="#000000" stroke-width="1" points="867,740 867,745 "/>
<text x="982" y="750" dy="0.76em" text-anchor="middle" font-family="sans-serif" font-size="9.67741935483871" opacity="1" fill="#000000">
2019-03-07Z
</text>
<polyline fill="none" opacity="1" stroke="#000000" stroke-width="1" points="982,740 982,745 "/>
<text x="1097" y="750" dy="0.76em" text-anchor="middle" font-family="sans-serif" font-size="9.67741935483871" opacity="1" fill="#000000">
2019-09-19Z
</text>
<polyline fill="none" opacity="1" stroke="#000000" stroke-width="1" points="1097,740 1097,745 "/>
<polyline fill="none" opacity="1" stroke="#E61919" stroke-width="2" points="179,738 185,738 185,738 227,738 257,737 290,737 300,737 301,736 310,736 313,736 315,736 317,736 318,736 321,736 322,736 322,736 324,735 334,736 335,736 350,735 351,735 356,735 364,735 368,735 368,734 383,734 384,734 390,734 410,733 414,734 467,734 468,733 468,733 470,733 471,733 498,733 501,733 505,732 508,732 509,731 513,731 533,731 538,731 542,731 550,731 550,730 557,730 558,730 561,730 562,730 570,730 571,730 572,730 574,730 575,730 576,730 578,730 578,730 581,730 582,730 582,730 583,730 585,730 588,730 589,730 591,730 592,730 594,730 594,730 595,730 595,730 597,730 599,730 600,730 600,730 601,730 601,730 602,730 604,730 605,730 605,730 606,730 607,730 608,730 608,730 609,730 610,730 611,730 612,730 612,730 614,730 614,730 618,730 618,730 619,730 620,730 621,730 622,730 623,730 624,730 624,730 625,730 627,730 627,729 628,729 628,729 629,729 630,729 631,729 631,729 632,729 633,729 635,729 636,729 638,729 639,729 640,728 643,728 644,728 646,728 647,728 647,728 648,728 649,728 650,728 652,728 652,728 654,728 655,728 657,728 659,728 660,728 661,728 662,728 662,728 664,728 665,728 667,728 668,728 668,728 669,728 670,728 670,728 671,728 672,728 672,728 675,728 676,728 678,728 680,728 680,728 681,728 682,728 683,728 685,728 687,728 693,727 698,727 702,727 709,727 713,727 714,727 715,727 716,727 721,727 732,727 737,727 740,727 741,727 749,727 758,727 759,727 767,727 771,726 774,726 786,726 791,726 796,726 818,726 834,726 840,726 841,725 854,725 857,725 872,725 876,725 878,725 880,726 883,726 890,726 896,725 902,725 902,725 907,725 919,725 921,725 935,724 939,724 944,724 951,724 952,724 957,724 961,724 962,724 962,724 963,724 964,724 968,724 970,723 973,723 974,723 978,723 978,723 980,723 981,723 981,723 982,723 985,723 985,723 986,723 987,723 988,723 989,723 990,723 991,723 992,723 994,723 994,723 995,723 996,723 997,723 998,723 999,723 1000,723 1001,723 1003,723 1007,723 1007,723 1008,723 1010,723 1011,723 1013,723 1015,723 1016,723 1017,723 1018,723 1019,723 1020,723 1021,723 1022,723 1022,723 1024,723 1025,723 1027,723 1029,723 1030,723 1030,723 1031,723 1032,723 1033,722 1034,722 1035,722 1037,722 1038,722 1038,722 1039,722 1040,722 1042,722 1042,722 1045,722 1046,722 1047,722 1048,722 1049,722 1050,722 1050,722 1051,722 1053,722 1054,722 1055,722 1057,722 1057,722 1058,722 1059,722 1060,722 1061,722 1062,722 1063,722 1065,722 1066,722 1067,722 1067,722 1068,722 1070,722 1071,722 1071,722 1072,722 1073,722 1074,722 1075,722 1076,722 1077,722 1080,722 1081,722 1081,722 1082,722 1083,722 1084,722 1084,722 1085,723 1088,723 1090,723 1091,723 1092,723 1093,723 1097,723 1098,723 1099,723 1104,723 1105,723 1107,723 1108,723 1108,723 1110,723 1110,723 1111,723 1111,723 1112,723 1113,723 1114,723 1115,723 1127,723 1133,722 1142,722 1142,722 1146,722 1151,721 1154,721 1155,721 1157,721 1158,721 1159,721 1160,721 1161,721 1162,721 1163,721 1165,721 1167,721 1167,721 1168,721 1168,721 1170,721 1171,721 1171,721 1172,721 1172,721 1172,721 1173,721 1173,721 1174,721 1174,721 1174,721 1175,721 1175,721 1177,721 1178,721 1178,721 1178,721 1180,721 1180,721 1181,721 1181,721 1182,721 1182,721 1182,721 1183,721 1184,721 1185,721 1185,721 1186,721 1187,721 1187,721 1188,721 1188,721 1188,721 1189,721 "/>
<polyline fill="none" opacity="1" stroke="#BDE619" stroke-width="2" points="137,738 165,738 188,738 191,738 204,738 212,737 213,737 216,737 222,737 224,737 227,736 234,736 239,736 244,736 248,736 254,735 257,735 257,735 258,735 259,734 260,734 261,734 264,734 265,733 267,733 271,732 272,732 274,732 281,731 284,731 286,731 287,731 287,731 290,730 291,730 297,730 297,729 298,729 300,729 302,729 303,728 304,728 305,728 305,728 310,728 312,727 312,727 314,727 314,726 318,726 318,726 322,726 325,725 328,725 329,724 330,724 331,724 331,723 332,723 333,723 335,723 335,723 337,723 337,722 339,722 340,722 342,722 342,722 344,722 345,721 345,721 347,721 350,721 354,720 355,720 357,720 358,720 360,720 361,720 362,719 362,720 363,719 364,719 364,719 366,719 367,718 368,718 371,718 375,717 377,717 378,717 381,716 383,716 384,716 388,716 390,716 391,716 392,715 394,715 394,715 395,715 397,715 400,715 401,714 401,714 402,714 403,713 404,713 405,713 406,713 407,713 410,712 410,712 411,712 412,711 413,711 414,710 418,710 418,710 419,709 420,709 421,708 422,708 424,708 424,708 425,707 427,707 428,707 429,706 430,706 430,706 431,706 433,705 434,705 435,705 436,705 437,705 438,704 439,704 441,703 442,703 442,703 443,703 444,702 445,702 445,702 446,702 447,702 448,678 449,678 450,677 451,677 451,677 452,676 454,676 454,676 455,675 456,675 457,675 457,674 458,674 458,674 459,673 460,673 461,672 461,672 462,672 462,672 464,671 465,671 465,671 466,670 467,670 467,670 468,669 468,669 469,668 470,668 470,667 471,667 472,667 473,662 474,662 477,662 478,662 481,662 481,661 482,661 482,661 484,661 485,660 486,660 487,659 487,659 488,659 490,659 490,658 491,658 491,658 492,657 493,657 494,657 496,656 497,656 498,656 498,655 499,655 501,654 502,654 504,654 505,652 507,652 507,652 508,651 509,651 510,651 510,651 511,650 512,650 512,650 514,650 514,649 515,649 515,649 516,649 517,648 518,648 519,648 520,648 521,647 521,647 522,647 523,646 524,646 524,645 525,645 527,644 527,644 528,644 529,643 530,642 530,642 531,641 531,641 532,640 532,640 534,639 534,639 535,638 535,638 536,638 537,637 537,637 538,637 538,636 539,636 540,635 540,635 541,634 541,634 542,634 542,633 543,633 544,632 545,632 545,632 547,632 547,632 548,631 548,631 549,631 550,630 550,630 551,629 551,629 552,629 552,627 553,627 554,627 554,627 555,627 556,627 557,626 558,626 558,626 559,625 560,625 560,624 561,623 561,623 562,622 562,622 563,622 564,622 564,621 565,621 565,621 566,620 567,620 567,619 568,619 568,619 569,618 570,617 570,617 571,617 571,616 572,616 572,615 574,615 574,615 575,614 575,614 576,613 577,613 577,613 578,612 578,612 579,611 580,611 580,611 581,610 582,610 582,609 583,609 584,609 585,609 585,609 586,609 587,608 587,607 588,607 588,607 589,606 590,605 590,605 591,604 591,604 592,604 592,604 593,604 594,604 594,603 595,603 595,603 596,602 597,602 597,601 598,601 598,601 599,601 600,600 600,599 601,599 601,599 602,599 602,598 603,598 604,597 604,597 605,596 605,596 606,595 607,595 607,595 608,595 608,594 609,594 610,593 610,592 611,592 611,591 612,591 612,590 613,590 614,590 614,589 615,589 615,589 616,589 617,588 617,588 618,588 618,588 619,588 620,588 620,587 621,587 621,586 622,586 622,586 623,586 624,586 624,585 625,585 625,584 626,584 627,584 627,584 628,584 628,584 629,583 630,582 630,581 631,581 631,580 632,580 632,579 633,579 634,578 634,578 635,578 635,578 636,578 637,578 637,577 638,577 638,576 639,576 640,576 640,575 641,575 641,575 642,575 642,574 643,574 644,574 644,573 645,573 645,573 646,572 647,572 647,572 648,572 648,571 649,571 650,571 650,570 651,570 651,570 652,570 652,569 653,569 654,568 654,568 655,568 655,567 656,567 657,567 657,567 658,567 658,567 659,566 660,565 660,565 661,565 661,565 662,564 662,564 663,564 664,564 664,563 665,563 665,562 666,562 667,562 667,561 668,561 668,561 669,561 670,561 670,560 671,560 671,559 672,559 672,555 673,554 674,553 674,553 675,553 675,553 676,553 677,553 677,552 678,551 678,551 679,550 680,550 680,549 681,549 681,548 682,548 682,547 683,547 684,547 684,547 685,547 685,546 686,546 687,546 687,545 688,545 688,544 689,544 690,543 690,543 691,543 691,542 692,541 692,541 693,540 694,539 694,539 695,539 695,538 696,538 697,538 697,538 698,538 698,537 699,537 700,536 700,536 701,536 701,535 702,535 702,535 703,535 704,535 704,534 705,534 705,534 706,534 707,533 707,533 708,532 708,532 709,532 710,532 710,531 711,531 711,530 712,530 712,530 713,530 714,529 714,529 715,529 715,528 716,528 717,528 717,526 718,525 718,525 719,525 720,525 720,524 721,523 721,523 722,523 722,522 723,522 724,522 724,521 725,521 725,520 726,520 727,520 727,520 728,520 728,519 729,519 730,519 730,519 731,518 731,518 732,518 732,517 733,517 734,517 734,517 735,516 735,516 736,516 737,516 737,515 738,515 738,514 739,514 740,513 740,513 741,513 741,512 742,512 742,511 743,511 744,510 744,510 745,509 745,510 746,510 747,509 747,504 748,504 748,503 749,503 750,502 750,502 751,501 751,500 752,500 752,499 753,498 754,498 754,497 755,496 755,495 756,494 757,494 757,494 758,493 758,492 759,492 760,492 760,492 761,491 761,491 762,490 762,490 763,489 764,488 764,488 765,487 765,487 766,487 767,486 767,486 768,485 768,485 769,484 770,484 770,482 771,482 771,481 772,481 772,481 773,481 774,480 774,480 775,480 775,479 776,478 777,478 777,479 778,478 778,477 779,477 780,476 780,475 781,474 781,474 782,474 782,472 783,472 784,472 784,472 785,471 785,471 786,471 787,470 787,470 788,470 788,469 789,469 790,468 790,468 791,469 791,468 792,467 792,467 793,467 794,466 794,466 795,465 795,465 796,465 797,464 797,464 798,464 798,464 799,464 800,464 800,464 801,464 801,463 802,462 802,462 803,462 804,461 804,461 805,460 805,459 806,459 807,459 807,459 808,458 808,458 809,457 810,457 810,456 811,456 811,456 812,455 812,455 813,454 814,454 814,454 815,454 815,453 816,453 817,452 817,452 818,451 818,451 819,451 820,450 820,450 821,449 821,449 822,449 822,449 823,448 824,448 824,447 825,447 825,446 826,445 827,445 827,445 828,443 828,443 829,443 830,442 830,442 831,442 831,441 832,440 832,440 833,439 834,439 834,439 835,439 835,438 836,437 837,436 837,436 838,436 838,436 839,435 840,434 840,434 841,433 841,433 842,432 842,431 843,431 844,431 844,431 845,431 845,430 846,430 847,429 847,429 848,428 848,428 849,428 850,427 850,427 851,427 851,426 852,426 852,426 853,426 854,426 854,426 855,426 855,425 856,425 857,424 857,424 858,424 858,423 859,423 860,422 860,422 861,422 861,421 862,421 862,420 863,420 864,420 864,420 865,420 865,420 866,419 867,419 867,418 868,418 868,418 869,418 870,417 870,417 871,416 871,416 872,416 872,416 873,416 874,415 874,414 875,414 875,413 876,413 877,412 877,411 878,410 878,410 879,409 880,409 880,409 881,409 881,409 882,408 882,407 883,406 884,406 884,406 885,404 885,404 886,404 887,403 887,403 887,402 888,401 888,401 889,401 890,400 890,399 891,398 891,398 892,397 892,396 893,396 894,396 894,395 895,395 895,395 896,395 897,394 897,386 898,386 898,386 899,385 900,384 900,384 901,384 901,384 902,382 902,381 903,381 904,380 904,380 905,380 905,379 906,378 907,378 907,377 908,376 908,375 909,375 910,374 910,374 911,373 911,373 912,372 912,371 913,371 914,370 914,369 915,369 915,369 916,368 917,368 917,367 918,366 918,365 919,365 920,365 920,364 921,364 921,363 922,363 922,362 923,362 924,362 924,361 925,361 925,360 926,360 927,359 927,359 928,359 928,358 929,357 930,357 930,356 931,356 931,356 932,355 932,355 933,355 934,354 934,354 935,354 935,353 936,352 937,352 937,352 938,351 938,350 939,350 940,350 940,349 941,348 941,348 942,348 942,347 943,346 944,345 944,343 945,342 945,342 946,341 947,340 947,338 948,337 948,337 949,336 950,336 950,335 951,335 951,334 952,334 952,333 953,333 954,332 954,331 955,331 955,331 956,331 957,329 957,328 958,328 958,328 959,327 960,326 960,326 961,325 961,325 962,324 962,324 963,323 964,323 964,322 965,322 965,321 966,321 967,320 967,320 968,319 968,318 969,318 970,317 970,317 971,316 971,316 972,315 972,315 973,315 974,314 974,313 975,313 975,313 976,312 977,311 977,311 978,310 978,310 979,309 980,308 980,307 981,307 981,305 982,305 982,305 983,304 984,303 984,303 985,302 985,302 986,302 987,301 987,301 988,300 988,300 989,299 990,298 990,298 991,297 991,296 992,296 992,295 993,294 994,292 994,292 995,291 995,291 996,290 997,290 997,290 998,289 998,289 999,288 1000,287 1000,286 1001,286 1001,285 1002,285 1002,284 1003,284 1004,284 1004,283 1005,282 1005,282 1006,281 1007,280 1007,280 1008,280 1008,279 1009,278 1010,277 1010,277 1011,276 1011,274 1012,274 1012,274 1013,273 1014,272 1014,272 1015,270 1015,270 1016,269 1017,269 1017,268 1018,268 1018,267 1019,267 1020,267 1020,266 1021,266 1021,266 1022,265 1022,265 1023,265 1024,263 1024,261 1025,261 1025,261 1026,260 1027,260 1027,259 1028,258 1028,257 1029,257 1030,256 1030,256 1031,255 1031,254 1032,253 1032,252 1033,251 1034,251 1034,250 1035,249 1035,249 1036,248 1037,247 1037,247 1038,246 1038,245 1039,245 1040,244 1040,243 1041,243 1041,242 1042,242 1042,241 1043,240 1044,240 1044,240 1045,240 1045,239 1046,238 1047,237 1047,236 1048,235 1048,234 1049,234 1050,233 1050,233 1051,233 1051,233 1052,233 1052,226 1053,226 1054,226 1054,224 1055,224 1055,223 1056,222 1057,221 1057,221 1058,220 1058,219 1059,218 1060,218 1060,217 1061,216 1061,214 1062,214 1062,214 1063,213 1064,212 1064,212 1065,212 1065,211 1066,210 1067,209 1067,209 1068,209 1068,208 1069,208 1070,207 1070,207 1071,206 1071,206 1072,205 1072,204 1073,204 1074,203 1074,203 1075,202 1075,201 1076,199 1077,198 1077,198 1078,197 1078,197 1079,197 1080,197 1080,195 1081,195 1081,194 1082,194 1082,193 1083,193 1084,192 1084,192 1085,192 1085,192 1086,191 1087,191 1087,190 1088,190 1088,190 1089,189 1090,188 1090,187 1091,186 1091,185 1092,185 1092,183 1093,184 1094,183 1094,183 1095,182 1095,181 1096,180 1097,179 1097,178 1098,178 1098,178 1099,177 1100,176 1100,176 1101,176 1101,175 1102,175 1102,174 1103,174 1104,173 1104,173 1105,173 1105,172 1106,172 1107,171 1107,171 1108,170 1108,170 1109,169 1110,167 1110,167 1111,166 1111,166 1112,165 1112,165 1113,164 1114,164 1114,163 1114,163 1115,163 1115,162 1116,162 1117,161 1117,161 1118,161 1118,160 1119,159 1120,158 1120,158 1121,158 1121,157 1122,157 1122,156 1123,155 1124,155 1124,154 1125,154 1125,153 1126,153 1127,151 1127,150 1128,150 1128,149 1129,148 1130,148 1130,147 1131,147 1131,145 1132,144 1132,144 1133,143 1134,142 1134,141 1135,141 1135,140 1136,140 1137,139 1137,139 1138,137 1138,136 1139,135 1140,135 1140,135 1141,135 1141,134 1142,133 1142,133 1143,133 1144,133 1144,132 1145,131 1145,130 1146,130 1147,130 1147,129 1148,129 1148,128 1149,128 1150,128 1150,127 1151,126 1151,127 1152,126 1152,125 1153,124 1154,122 1154,122 1155,121 1155,120 1156,120 1157,119 1157,118 1158,117 1158,118 1159,116 1160,115 1160,114 1161,113 1161,112 1162,112 1162,111 1163,110 1164,109 1164,109 1165,107 1165,106 1166,105 1167,105 1167,105 1167,105 1167,105 1168,105 1168,104 1168,104 1168,104 1169,103 1170,101 1170,101 1170,100 1171,100 1171,100 1171,100 1171,99 1172,99 1172,99 1172,98 1173,98 1173,97 1174,97 1174,96 1174,96 1174,95 1175,95 1175,94 1175,94 1175,93 1176,93 1177,93 1177,93 1177,91 1178,91 1178,91 1178,91 1179,89 1180,89 1180,88 1180,88 1180,86 1181,86 1181,85 1181,85 1181,84 1182,84 1182,84 1182,84 1182,83 1183,82 1184,82 1184,81 1184,81 1184,80 1185,80 1185,79 1185,79 1185,79 1186,79 1186,78 1187,77 1187,77 1187,77 1188,77 1188,75 1188,75 1188,75 1189,75 1190,75 "/>
<polyline fill="none" opacity="1" stroke="#19E66B" stroke-width="2" points="60,738 60,738 61,738 70,738 77,737 77,737 84,737 87,736 92,736 97,736 98,736 100,735 100,735 104,735 108,735 115,734 116,734 124,734 127,734 128,734 132,734 145,733 149,733 151,733 155,732 163,732 164,732 166,732 167,732 169,731 170,731 170,731 171,731 175,730 177,730 181,730 182,730 182,730 183,730 184,730 185,730 185,730 187,729 187,729 188,729 190,729 190,728 191,728 192,728 193,728 194,728 194,728 195,728 195,728 196,728 197,728 198,728 199,728 200,728 201,728 202,728 202,728 203,728 204,728 205,728 205,728 206,728 207,727 207,727 208,727 208,727 210,727 211,727 211,727 212,727 212,727 213,727 215,727 215,727 216,727 217,727 218,727 218,727 220,726 220,726 221,726 222,726 224,726 224,726 225,726 226,726 227,726 227,726 228,726 228,726 229,726 230,726 230,726 231,726 231,726 232,726 232,726 233,726 234,726 236,726 237,725 237,725 238,725 238,724 240,724 240,724 241,724 241,724 242,724 242,724 243,724 244,724 244,724 245,724 245,724 246,724 247,724 247,724 248,724 249,724 250,724 250,724 251,724 251,724 252,724 252,724 253,724 254,724 255,724 255,723 256,723 257,723 257,723 258,723 259,723 260,723 260,723 261,723 261,723 262,723 262,723 264,723 264,723 265,723 266,723 269,723 270,723 270,723 271,723 271,723 272,723 272,723 273,723 274,723 274,723 275,722 275,722 277,722 277,721 278,721 278,721 279,721 280,721 281,721 282,721 282,721 283,721 284,721 284,721 285,721 285,721 286,720 287,720 287,720 288,720 289,720 290,720 290,720 291,720 291,719 292,719 292,719 293,719 294,719 294,719 295,719 295,719 296,719 297,719 297,719 298,719 298,719 299,719 300,719 300,719 301,719 301,719 302,719 302,719 303,719 304,719 304,719 305,719 305,719 306,719 307,719 308,719 308,719 309,719 310,719 310,719 311,719 311,719 312,718 312,718 313,718 314,718 314,718 315,718 315,718 316,718 317,718 317,717 318,717 318,717 319,717 320,717 320,717 321,717 321,717 322,716 322,716 323,716 324,716 324,716 325,716 325,716 326,716 327,716 327,716 328,716 328,716 329,716 330,715 330,715 331,715 331,715 332,715 332,715 333,715 334,715 334,715 335,715 335,715 336,715 337,715 337,715 338,715 338,715 339,715 340,715 340,714 341,714 341,714 342,714 342,714 343,714 344,714 344,714 345,714 345,714 346,714 347,714 347,714 348,714 348,713 349,713 350,713 350,713 351,713 351,713 352,713 352,713 353,713 354,713 354,713 355,713 355,713 356,713 357,713 357,713 358,713 358,713 359,713 360,713 360,713 361,713 361,713 362,713 362,712 363,712 364,712 364,712 365,712 365,712 366,712 367,712 367,712 368,712 368,711 369,711 370,711 370,711 371,711 371,711 372,711 372,711 373,711 374,711 374,711 375,711 375,711 376,711 377,711 377,711 378,711 378,711 379,710 380,710 380,710 381,710 381,710 382,710 382,710 383,710 384,710 384,710 385,710 385,710 386,710 387,710 387,710 388,710 388,710 389,710 390,710 390,710 391,709 391,709 392,709 392,709 393,709 394,709 394,709 395,709 395,709 396,709 397,709 397,709 398,709 398,709 399,709 400,709 400,709 401,709 401,709 402,709 402,709 403,709 404,709 404,709 405,709 405,709 406,709 407,709 407,709 408,709 408,709 409,709 410,709 410,709 411,709 411,708 412,708 412,708 413,708 414,708 414,708 415,708 415,708 416,708 417,708 417,708 418,708 418,708 419,708 420,708 420,708 421,708 421,708 422,708 422,708 423,708 424,708 424,708 425,708 425,708 426,707 427,707 427,707 428,707 428,707 429,707 430,707 430,707 431,707 431,707 432,707 432,707 433,707 434,707 434,707 435,707 435,707 436,706 437,706 437,706 438,706 438,706 439,706 440,706 440,706 441,706 441,706 442,706 442,705 443,705 444,705 444,705 445,705 445,705 446,705 447,705 447,705 448,705 448,705 449,705 450,705 450,705 451,705 451,705 452,705 452,705 453,705 454,705 454,705 455,705 455,705 456,705 457,705 457,705 458,705 458,705 459,705 460,705 460,705 461,705 461,705 462,705 462,704 463,704 464,704 464,704 465,704 465,704 466,704 467,704 467,704 468,704 468,704 469,704 470,704 470,704 471,704 471,704 472,704 472,704 473,704 474,704 474,704 475,704 475,704 476,704 477,704 477,704 478,703 478,703 479,703 480,703 480,703 481,703 481,703 482,703 482,703 483,703 484,703 484,703 485,703 485,703 486,703 487,703 487,703 488,703 488,703 489,703 490,703 490,703 491,703 491,703 492,703 492,703 493,703 494,703 494,703 495,702 495,702 496,702 497,702 497,702 498,702 498,702 499,702 500,702 500,702 501,702 501,702 502,702 502,702 503,701 504,701 504,701 505,701 505,701 506,701 507,701 507,701 508,701 508,701 509,701 510,701 510,701 511,701 511,701 512,701 512,700 513,700 514,700 514,700 515,700 515,700 516,700 517,700 517,699 518,699 518,699 519,699 520,699 520,699 521,699 521,699 522,699 522,698 523,698 524,698 524,698 525,698 525,698 526,698 527,698 527,698 528,698 528,698 529,698 530,698 530,698 531,698 531,698 532,698 532,698 533,698 534,698 534,698 535,698 535,698 536,698 537,698 537,698 538,698 538,698 539,698 540,698 540,698 541,698 541,698 542,698 542,698 543,698 544,698 544,698 545,698 545,698 546,698 547,698 547,698 548,698 548,697 549,697 550,697 550,697 551,697 551,698 552,698 552,698 553,698 554,698 554,698 555,697 555,698 556,698 557,698 557,698 558,698 558,698 559,698 560,697 560,697 561,697 561,698 562,698 562,698 563,698 564,698 564,698 565,698 565,698 566,698 567,698 567,698 568,698 568,698 569,698 570,698 570,697 571,697 571,697 572,697 572,697 573,697 574,697 574,697 575,697 575,697 576,697 577,697 577,697 578,697 578,697 579,697 580,697 580,697 581,697 581,697 582,697 582,697 583,697 584,697 584,697 585,697 585,697 586,696 587,697 587,697 588,697 588,697 589,696 590,696 590,696 591,696 591,696 592,696 592,696 593,696 594,696 594,695 595,695 595,695 596,695 597,695 597,695 598,695 598,695 599,696 600,696 600,695 601,695 601,695 602,695 602,695 603,695 604,695 604,695 605,695 605,695 606,695 607,695 607,695 608,695 608,695 609,695 610,695 610,695 611,695 611,695 612,695 612,695 613,695 614,695 614,695 615,695 615,695 616,695 617,695 617,695 618,694 618,694 619,694 620,694 620,694 621,694 621,694 622,694 622,694 623,694 624,694 624,694 625,694 625,694 626,694 627,694 628,694 628,694 629,694 630,694 630,694 631,694 631,694 632,694 632,694 633,694 634,694 634,694 635,694 635,694 636,694 637,694 637,694 638,694 638,694 639,694 640,694 640,694 641,694 641,694 642,694 642,694 643,694 644,694 644,694 645,694 645,694 646,694 647,694 647,693 648,693 648,693 649,693 650,693 650,693 651,693 651,693 652,693 652,693 653,693 654,693 654,693 655,693 655,693 656,693 657,693 657,693 658,693 658,693 659,693 660,693 660,693 661,693 661,693 662,693 662,693 663,693 664,692 664,692 665,693 665,692 666,692 667,692 667,692 668,692 668,692 669,692 670,692 670,692 671,692 671,692 672,692 672,692 673,692 674,692 674,692 675,692 675,692 676,692 677,692 677,692 678,692 678,692 679,692 680,692 680,692 681,692 681,692 682,692 682,692 683,692 684,693 684,693 685,692 685,692 686,692 687,692 687,692 688,692 688,692 689,692 690,692 690,692 691,692 691,692 692,692 692,692 693,692 694,692 694,692 695,692 695,692 696,692 697,692 697,692 698,692 698,692 699,692 700,692 700,692 701,692 701,692 702,692 702,692 703,692 704,692 704,692 705,692 705,692 706,691 707,691 707,691 708,691 708,691 709,691 710,691 710,692 711,692 711,692 712,691 712,691 713,691 714,691 714,691 715,691 715,691 716,691 717,691 717,691 718,691 718,691 719,691 720,691 720,691 721,691 721,691 722,691 722,691 723,691 724,691 724,691 725,691 725,691 726,691 727,690 727,690 728,690 728,690 729,690 730,690 730,690 731,690 731,690 732,690 732,690 733,690 734,690 734,690 735,690 735,690 736,690 737,690 737,690 738,690 738,690 739,690 740,690 740,690 741,690 741,690 742,690 742,690 743,690 744,690 744,689 745,689 745,689 746,689 747,690 747,690 748,690 748,690 749,690 750,690 750,690 751,690 751,690 752,690 752,690 753,690 754,690 754,690 755,690 755,690 756,689 757,689 757,689 758,689 758,689 759,689 760,689 760,689 761,689 761,689 762,689 762,689 763,689 764,689 764,689 765,689 765,689 766,689 767,689 767,689 768,689 768,689 769,689 770,689 770,689 771,689 771,689 772,688 772,688 773,688 774,688 774,688 775,688 775,689 776,688 777,688 777,688 778,688 778,688 779,688 780,688 780,688 781,688 781,688 782,688 782,688 783,689 784,688 784,688 785,688 786,688 787,688 787,688 788,688 788,688 789,688 790,688 790,688 791,688 791,688 792,688 792,688 793,688 794,688 794,688 795,688 795,688 796,688 797,688 797,688 798,688 798,688 799,688 800,688 800,688 801,688 801,688 802,688 802,688 803,688 804,688 804,688 805,688 805,688 806,688 807,688 807,688 808,688 808,688 809,688 810,688 810,688 811,688 811,688 812,688 812,688 813,688 814,688 814,688 815,688 815,688 816,688 817,688 817,688 818,688 818,688 819,688 820,688 820,688 821,688 821,688 822,688 822,688 823,688 824,687 824,687 825,687 825,687 826,687 827,687 827,687 828,687 828,687 829,687 830,687 830,687 831,687 831,687 832,687 832,687 833,687 834,687 834,687 835,687 835,687 836,687 837,687 837,687 838,687 838,686 839,686 840,686 840,686 841,686 841,686 842,686 842,686 843,686 844,686 844,686 845,686 845,686 846,686 847,686 847,686 848,686 848,686 849,686 850,686 850,686 851,686 851,686 852,686 852,686 853,686 854,686 854,686 855,686 855,686 856,686 857,686 857,686 858,686 858,686 859,686 860,686 860,685 861,685 861,685 862,685 862,685 863,685 864,685 864,685 865,685 865,685 866,685 867,685 867,685 868,685 868,685 869,685 870,685 870,685 871,685 871,685 872,685 872,685 873,685 874,685 874,685 875,685 875,685 876,685 877,685 877,685 878,685 878,685 879,685 880,685 880,685 881,685 881,685 882,685 882,685 883,685 884,685 884,685 885,685 885,685 886,684 887,684 887,684 887,684 888,684 888,684 889,684 890,684 890,684 891,684 891,684 892,684 892,684 893,684 894,684 894,684 895,684 895,684 896,684 897,684 897,684 898,683 898,683 899,683 900,683 900,683 901,683 901,683 902,683 902,683 903,683 904,683 904,683 905,683 905,683 906,683 907,682 907,682 908,682 908,682 909,682 910,682 910,682 911,682 911,682 912,682 912,682 913,682 914,682 914,682 915,682 915,682 916,682 917,682 917,682 918,682 918,682 919,682 920,681 920,681 921,681 921,681 922,681 922,681 923,681 924,681 924,681 925,681 925,681 926,681 927,681 927,681 928,681 928,681 929,681 930,681 930,681 931,681 931,681 932,681 932,681 933,681 934,681 934,680 935,680 935,680 936,680 937,680 937,680 938,680 938,680 939,680 940,680 940,680 941,680 941,680 942,680 942,680 943,680 944,680 944,680 945,680 945,680 946,680 947,680 947,680 948,680 948,680 949,680 950,680 950,680 951,680 951,680 952,680 952,680 953,680 954,680 954,680 955,680 955,680 956,680 957,680 957,680 958,680 958,680 959,680 960,680 960,680 961,680 961,680 962,680 962,680 963,680 964,680 964,680 965,680 965,680 966,680 967,680 967,680 968,680 968,680 969,679 970,679 970,679 971,679 971,679 972,679 972,679 973,679 974,679 974,679 975,679 975,679 976,679 977,679 977,679 978,679 978,679 979,679 980,679 980,679 981,679 981,679 982,679 982,679 983,679 984,679 984,679 985,679 985,679 986,679 987,679 987,679 988,679 988,679 989,679 990,679 990,679 991,679 991,679 992,679 992,678 993,678 994,678 994,679 995,678 995,678 996,678 997,678 997,679 998,679 998,679 999,679 1000,678 1000,678 1001,678 1001,678 1002,678 1002,678 1003,678 1004,678 1004,678 1005,678 1005,678 1006,678 1007,678 1007,678 1008,678 1008,678 1009,678 1010,678 1010,678 1011,678 1011,678 1012,678 1012,678 1013,678 1014,678 1014,678 1015,678 1015,678 1016,678 1017,678 1017,678 1018,678 1018,678 1019,678 1020,678 1020,678 1021,678 1021,678 1022,678 1022,678 1023,678 1024,678 1024,678 1025,678 1025,678 1026,678 1027,678 1027,678 1028,678 1028,678 1029,678 1030,678 1030,678 1031,678 1031,678 1032,678 1032,678 1033,678 1034,678 1034,678 1035,678 1035,678 1036,678 1037,678 1037,678 1038,678 1038,678 1039,678 1040,678 1040,678 1041,678 1041,678 1042,678 1042,678 1043,678 1044,678 1044,678 1045,678 1045,678 1046,678 1047,678 1047,678 1048,678 1048,678 1049,678 1050,678 1050,678 1051,678 1051,678 1052,678 1052,678 1053,678 1054,678 1054,678 1055,678 1055,678 1056,678 1057,678 1057,678 1058,678 1058,678 1059,678 1060,678 1060,678 1061,678 1061,678 1062,678 1062,678 1063,678 1064,678 1064,678 1065,678 1065,678 1066,678 1067,678 1067,678 1068,678 1068,678 1069,678 1070,678 1070,678 1071,678 1071,678 1072,678 1072,678 1073,678 1074,678 1074,678 1075,678 1075,678 1076,678 1077,678 1077,678 1078,678 1078,678 1079,678 1080,678 1080,677 1081,677 1081,677 1082,677 1082,677 1083,677 1084,677 1084,677 1085,677 1085,677 1086,677 1087,677 1087,677 1088,677 1088,677 1089,677 1090,677 1090,677 1091,677 1091,677 1092,677 1092,677 1093,677 1094,677 1094,677 1095,677 1095,677 1096,677 1097,677 1097,677 1098,677 1098,677 1099,677 1100,677 1100,677 1101,677 1101,677 1102,677 1102,677 1103,677 1104,677 1104,677 1105,677 1105,677 1106,677 1107,677 1107,677 1108,677 1108,677 1109,677 1110,677 1110,677 1111,677 1111,677 1112,677 1112,677 1113,677 1114,677 1114,677 1114,677 1115,677 1115,677 1116,677 1117,677 1117,677 1118,677 1118,677 1119,677 1120,677 1120,677 1121,677 1121,677 1122,677 1122,677 1123,677 1124,677 1124,677 1125,677 1125,677 1126,677 1127,677 1127,677 1128,677 1128,677 1129,677 1130,677 1130,677 1131,677 1131,677 1132,677 1132,677 1133,677 1134,678 1134,678 1135,678 1135,678 1136,678 1137,678 1137,678 1138,678 1138,678 1139,678 1140,678 1140,678 1141,678 1141,678 1142,678 1142,678 1143,678 1144,677 1144,677 1145,677 1145,677 1146,677 1147,677 1147,677 1148,677 1148,677 1149,677 1150,677 1150,677 1151,677 1151,677 1152,677 1152,677 1153,677 1154,677 1154,677 1155,677 1155,677 1156,677 1157,677 1157,677 1158,677 1158,677 1159,677 1160,677 1160,677 1161,677 1161,677 1162,677 1162,678 1163,678 1164,678 1164,677 1165,677 1165,677 1166,677 1167,677 1167,677 1167,677 1167,677 1168,677 1168,677 1168,677 1168,677 1169,677 1170,677 1170,677 1170,677 1171,677 1171,677 1171,677 1171,677 1172,677 1172,677 1172,677 1173,677 1173,677 1174,677 1174,677 1174,677 1174,677 1175,677 1175,677 1175,677 1175,677 1176,677 1177,677 1177,677 1177,677 1178,677 1178,677 1178,677 1179,677 1180,677 1180,677 1180,677 1180,677 1181,677 1181,677 1181,677 1181,677 1182,677 1182,677 1182,677 1182,677 1183,677 1184,677 1184,677 1184,677 1184,677 1185,677 1185,677 1185,677 1185,677 1186,677 1186,677 1187,677 1187,677 1187,677 1188,677 1188,677 1188,677 1188,677 1189,677 1190,677 "/>
<polyline fill="none" opacity="1" stroke="#196BE6" stroke-width="2" points="89,738 97,738 101,738 103,738 104,738 107,738 108,738 111,738 111,738 112,738 113,738 114,738 117,738 118,737 123,737 124,737 130,737 130,737 131,737 132,737 135,737 135,737 136,737 137,736 140,736 141,736 141,736 142,736 142,736 144,736 144,736 145,736 147,736 148,736 150,736 150,736 151,736 151,736 152,736 157,736 158,736 159,736 160,736 163,736 164,736 165,735 167,735 167,735 168,735 168,734 169,734 170,734 170,734 171,734 171,734 172,734 173,734 175,734 176,734 177,734 177,734 179,733 180,733 181,733 182,733 182,733 185,733 187,733 187,733 188,733 188,733 190,732 192,732 193,732 195,732 195,732 196,732 197,732 198,732 200,732 201,732 203,732 204,732 205,732 206,732 207,732 210,732 211,731 211,731 212,731 212,731 213,731 215,731 216,731 217,731 217,731 218,731 218,731 220,731 221,731 222,731 224,731 225,731 225,731 226,731 227,731 227,731 228,731 228,731 229,731 230,731 231,731 232,731 233,731 234,731 236,731 237,731 238,731 238,731 239,731 240,731 240,731 241,731 242,731 243,731 244,731 244,731 245,731 245,731 246,731 247,731 247,731 248,731 249,731 250,731 251,730 252,730 252,730 254,730 254,730 255,730 255,730 256,730 257,730 257,730 258,730 258,730 259,730 260,730 260,730 261,730 261,730 262,730 262,730 263,730 264,730 264,730 265,730 266,730 267,730 267,730 269,730 270,730 270,730 271,730 271,730 272,730 272,730 273,730 274,730 275,730 275,730 277,730 278,730 278,730 280,729 280,729 281,729 282,729 282,729 283,729 284,729 285,729 286,729 287,729 287,729 288,729 288,729 290,729 290,729 291,729 291,729 292,729 292,728 293,728 294,728 295,728 297,728 297,728 298,728 300,728 300,728 301,728 302,728 302,728 304,728 305,728 305,728 306,728 307,728 308,727 309,727 310,727 310,727 311,727 311,727 312,727 312,727 313,727 314,727 314,727 315,727 315,727 316,726 317,726 317,726 318,726 319,726 320,726 320,726 321,726 321,726 322,726 322,726 323,726 324,726 324,726 325,726 325,725 326,725 327,725 327,725 328,725 328,725 329,725 330,725 330,725 331,725 331,725 332,725 332,725 333,725 334,725 334,725 335,725 336,725 337,725 337,725 338,725 338,725 339,725 340,725 340,725 341,725 341,724 342,724 342,724 343,724 344,724 344,724 345,724 345,724 346,724 347,724 347,724 348,724 348,724 349,723 350,723 350,723 351,723 351,723 352,723 352,723 353,723 354,723 354,723 355,723 355,722 356,722 357,722 357,722 358,722 358,722 359,722 360,722 360,722 361,722 361,722 362,722 362,722 363,722 364,722 364,722 365,722 365,722 366,722 367,721 367,721 368,721 368,721 369,721 370,721 370,721 371,721 371,721 372,721 372,721 374,721 374,721 375,721 375,721 376,721 377,721 377,721 378,721 378,721 379,721 380,721 380,721 381,721 381,721 382,721 382,721 383,721 384,721 384,721 385,721 385,721 386,721 387,721 387,721 388,721 388,721 389,721 390,721 390,721 391,721 391,721 392,721 392,721 393,721 394,721 394,721 395,721 395,721 396,721 397,721 397,721 398,721 398,721 399,721 400,721 400,721 401,721 401,721 402,720 403,720 404,720 404,720 405,720 405,720 406,720 407,720 407,720 408,720 408,720 409,720 410,720 410,720 411,720 411,720 412,720 412,720 413,720 414,720 414,720 415,720 415,720 416,720 417,720 417,720 418,720 418,720 419,720 420,720 420,720 421,719 421,719 422,719 422,719 423,719 424,719 424,719 425,719 425,719 426,719 427,719 427,719 428,719 429,719 430,719 430,719 431,719 431,719 432,719 432,719 433,719 434,719 434,719 435,719 435,719 436,719 437,719 437,719 438,719 438,719 439,719 440,718 440,718 441,718 441,718 442,718 442,718 443,718 444,718 444,718 445,718 445,718 446,717 447,717 447,717 448,717 448,717 449,717 450,717 450,717 451,717 451,717 452,717 452,717 453,717 454,717 454,717 455,717 455,717 456,717 457,717 457,717 458,717 458,717 459,717 460,717 460,717 461,717 461,717 462,717 462,717 463,717 464,717 464,717 465,717 465,717 466,717 467,717 467,717 468,717 468,717 469,717 470,717 470,717 471,717 471,717 472,717 472,717 473,717 474,717 474,717 475,717 475,717 476,716 477,716 477,716 478,716 478,715 479,715 480,716 480,716 481,716 481,716 482,716 482,716 483,716 484,716 484,716 485,716 485,716 486,716 487,716 487,716 488,716 488,716 489,715 490,715 490,715 491,715 491,715 492,715 492,715 493,715 494,715 494,715 495,715 495,715 496,715 497,715 497,715 498,715 499,715 500,715 500,715 501,715 501,715 502,715 502,715 503,715 504,715 504,715 505,715 505,715 506,715 507,715 507,715 508,715 508,715 509,715 510,715 510,715 511,715 511,715 512,715 512,715 513,715 514,715 514,715 515,714 515,714 516,714 517,714 517,714 518,714 518,714 519,714 520,714 520,714 521,714 521,714 522,714 522,714 523,714 524,713 524,713 525,713 525,713 526,713 527,713 527,712 528,712 528,712 529,712 530,712 530,712 531,712 531,712 532,712 532,712 533,712 534,712 534,712 535,712 535,712 536,712 537,712 537,712 538,712 538,712 539,712 540,712 540,712 541,712 541,712 542,712 542,712 543,711 544,711 544,711 545,711 545,711 546,711 547,711 547,711 548,711 548,711 549,711 550,711 550,711 551,711 551,711 552,711 552,711 553,711 554,711 554,711 555,711 555,711 556,711 557,711 557,711 558,711 558,711 559,711 560,711 560,711 561,711 561,711 562,711 562,711 563,711 564,711 564,711 565,711 565,711 566,711 567,711 567,711 568,710 568,710 569,710 570,710 570,710 571,710 571,710 572,710 572,710 573,710 574,710 574,709 575,709 575,709 576,709 577,709 577,709 578,709 578,709 579,709 580,709 580,709 581,709 581,709 582,709 582,709 583,709 584,709 584,709 585,709 585,709 586,709 587,708 587,708 588,708 588,708 589,708 590,708 590,708 591,708 591,708 592,707 592,707 593,707 594,707 594,707 595,708 595,707 596,707 597,707 597,707 598,707 598,707 599,707 600,707 600,707 601,707 601,707 602,707 602,707 603,707 604,707 604,707 605,707 605,707 606,707 607,707 607,707 608,707 608,707 609,707 610,707 610,707 611,706 611,706 612,706 612,706 613,706 614,706 614,706 615,706 615,706 616,706 617,706 617,706 618,706 618,706 619,706 620,706 620,706 621,706 621,706 622,706 622,706 623,706 624,706 624,706 625,706 625,706 626,706 627,706 627,706 628,706 628,706 629,706 630,706 630,705 631,705 631,705 632,705 632,705 633,705 634,705 634,705 635,705 635,705 636,705 637,705 637,705 638,705 638,705 639,705 640,705 640,705 641,705 641,704 642,704 642,704 643,704 644,704 644,704 645,704 645,704 646,704 647,704 647,704 648,704 648,704 649,704 650,704 650,704 651,704 651,704 652,704 652,704 653,703 654,703 654,703 655,703 655,703 656,703 657,703 657,703 658,703 658,703 659,703 660,703 660,703 661,703 661,703 662,703 662,703 663,703 664,703 664,703 665,703 665,703 666,703 667,703 667,703 668,703 668,703 669,703 670,703 670,703 671,703 671,703 672,703 672,702 673,702 674,702 674,702 675,702 675,702 676,702 677,702 677,702 678,702 678,702 679,702 680,702 680,702 681,702 681,702 682,702 682,702 683,702 684,702 684,702 685,702 685,702 686,702 687,702 687,702 688,702 688,702 689,702 690,702 690,702 691,702 691,702 692,702 692,702 693,702 694,702 694,702 695,702 695,702 696,702 697,702 697,702 698,702 698,702 699,702 700,702 700,702 701,702 701,702 702,702 702,702 703,702 704,701 704,701 705,701 705,701 706,701 707,701 707,701 708,701 708,701 709,701 710,701 710,701 711,701 711,701 712,701 712,701 713,701 714,701 714,701 715,701 715,701 716,701 717,701 717,700 718,700 718,700 719,700 720,700 720,700 721,700 721,700 722,700 722,700 723,700 724,700 724,700 725,700 725,700 726,700 727,700 727,700 728,700 728,700 729,700 730,700 730,700 731,700 731,699 732,699 732,699 733,699 734,699 734,699 735,699 735,699 736,699 737,699 737,699 738,699 738,699 739,698 740,698 740,698 741,698 741,698 742,698 742,698 743,698 744,698 744,698 745,698 745,698 746,698 747,698 747,698 748,698 748,698 749,698 750,698 750,698 751,698 751,698 752,698 752,698 753,698 754,698 754,698 755,698 755,698 756,698 757,698 757,698 758,698 758,697 759,697 760,697 760,697 761,697 761,697 762,697 762,697 763,697 764,697 764,697 765,697 765,697 766,697 767,697 767,697 768,697 768,697 769,697 770,697 770,697 771,697 771,697 772,697 772,697 773,697 774,697 774,697 775,697 775,697 776,697 777,697 777,697 778,697 778,697 779,697 780,697 780,697 781,697 781,697 782,697 782,697 783,697 784,697 784,697 785,697 785,697 786,697 787,697 787,697 788,697 788,697 789,697 790,697 790,697 791,696 791,696 792,696 792,696 793,696 794,696 794,696 795,695 795,695 796,695 797,695 797,695 798,695 798,695 799,695 800,695 800,695 801,695 801,695 802,695 802,695 803,695 804,695 804,695 805,695 805,695 806,695 807,695 807,695 808,695 808,695 809,695 810,695 810,695 811,695 811,695 812,695 812,695 813,695 814,695 814,695 815,695 815,695 816,695 817,695 817,695 818,695 818,695 819,695 820,695 820,694 821,694 821,694 822,694 822,694 823,694 824,694 824,694 825,694 825,695 826,695 827,695 827,695 828,695 828,695 829,695 830,695 830,695 831,695 831,694 832,694 832,694 833,694 834,695 834,695 835,695 835,695 836,695 837,695 837,695 838,695 838,695 839,695 840,695 840,695 841,695 841,695 842,695 842,695 843,695 844,695 844,695 845,695 845,694 846,694 847,694 847,694 848,694 848,694 849,694 850,694 850,694 851,694 851,694 852,694 852,694 853,694 854,694 854,694 855,694 855,694 856,694 857,694 857,694 858,694 858,694 859,694 860,694 860,694 861,694 861,694 862,694 862,694 863,694 864,694 864,694 865,694 865,694 866,694 867,694 867,693 868,693 868,693 869,693 870,693 870,693 871,693 871,693 872,693 872,693 873,693 874,693 874,693 875,693 875,693 876,693 877,693 877,693 878,693 878,693 879,693 880,693 880,693 881,693 881,693 882,693 882,693 883,692 884,692 884,692 885,692 885,692 886,692 887,692 887,692 887,692 888,692 888,692 889,692 890,692 890,692 891,692 891,692 892,692 892,692 893,692 894,692 894,692 895,692 895,692 896,692 897,692 897,692 898,692 898,692 899,692 900,692 900,692 901,691 901,691 902,691 902,691 903,691 904,691 904,691 905,691 905,691 906,691 907,691 907,691 908,691 908,691 909,690 910,690 910,690 911,690 911,690 912,690 912,690 913,690 914,690 914,690 915,690 915,690 916,690 917,690 917,690 918,690 918,690 919,690 920,690 920,690 921,690 921,690 922,690 922,690 923,690 924,690 924,690 925,690 925,690 926,689 927,689 927,689 928,689 928,689 929,689 930,689 930,689 931,689 931,689 932,689 932,688 933,688 934,688 934,688 935,688 935,688 936,688 937,688 937,688 938,688 938,688 939,688 940,688 940,688 941,688 941,688 942,688 942,688 943,688 944,688 944,688 945,688 945,688 946,688 947,688 947,688 948,688 948,688 949,688 950,688 950,688 951,688 951,688 952,688 952,688 953,688 954,688 954,688 955,688 955,688 956,688 957,688 957,688 958,688 958,688 959,688 960,688 960,688 961,688 961,688 962,688 962,688 963,688 964,688 964,688 965,688 965,688 966,688 967,688 967,688 968,688 968,688 969,688 970,688 970,688 971,688 971,688 972,688 972,688 973,688 974,688 974,688 975,688 975,688 976,688 977,688 977,687 978,687 978,687 979,687 980,687 980,687 981,687 981,686 982,686 982,686 983,686 984,686 984,686 985,686 985,686 986,686 987,686 987,686 988,686 988,686 989,686 990,686 990,686 991,686 991,686 992,686 992,686 993,686 994,686 994,686 995,686 995,685 996,685 997,685 997,685 998,685 998,685 999,685 1000,685 1000,685 1001,685 1001,685 1002,685 1002,685 1003,685 1004,685 1004,685 1005,685 1005,685 1006,685 1007,685 1007,685 1008,685 1008,685 1009,685 1010,685 1010,685 1011,685 1011,685 1012,685 1012,685 1013,685 1014,685 1014,684 1015,684 1015,684 1016,684 1017,684 1017,684 1018,684 1018,684 1019,684 1020,683 1020,683 1021,683 1021,683 1022,683 1022,683 1023,683 1024,683 1024,683 1025,683 1025,683 1026,683 1027,683 1027,683 1028,683 1028,683 1029,683 1030,683 1030,683 1031,683 1031,683 1032,683 1032,683 1033,683 1034,683 1034,683 1035,683 1035,683 1036,683 1037,683 1037,682 1038,682 1038,682 1039,682 1040,682 1040,682 1041,682 1041,682 1042,682 1042,682 1043,682 1044,682 1044,682 1045,682 1045,682 1046,682 1047,682 1047,682 1048,682 1048,682 1049,682 1050,682 1050,682 1051,682 1051,682 1052,682 1052,682 1053,682 1054,682 1054,682 1055,682 1055,682 1056,682 1057,682 1057,682 1058,682 1058,682 1059,682 1060,682 1060,682 1061,682 1061,682 1062,682 1062,682 1063,682 1064,682 1064,682 1065,682 1065,682 1066,682 1067,682 1067,682 1068,682 1068,682 1069,682 1070,682 1070,682 1071,682 1071,682 1072,682 1072,682 1073,682 1074,682 1074,682 1075,682 1075,682 1076,682 1077,681 1077,681 1078,681 1078,681 1079,681 1080,681 1080,681 1081,681 1081,681 1082,681 1082,681 1083,681 1084,681 1084,681 1085,681 1085,681 1086,681 1087,681 1087,681 1088,681 1088,681 1089,681 1090,681 1090,681 1091,681 1091,681 1092,681 1092,681 1093,680 1094,680 1094,680 1095,680 1095,680 1096,680 1097,680 1097,680 1098,680 1098,680 1099,680 1100,680 1100,680 1101,680 1101,680 1102,680 1102,679 1103,679 1104,679 1104,679 1105,679 1105,679 1106,679 1107,679 1107,679 1108,679 1108,679 1109,679 1110,679 1110,680 1111,680 1111,680 1112,680 1112,680 1113,679 1114,679 1114,679 1114,679 1115,679 1115,679 1116,679 1117,679 1117,679 1118,679 1118,679 1119,679 1120,679 1120,679 1121,679 1121,679 1122,679 1122,679 1123,679 1124,679 1124,678 1125,678 1125,678 1126,678 1127,678 1127,678 1128,678 1128,678 1129,678 1130,678 1130,678 1131,678 1131,678 1132,678 1132,677 1133,677 1134,677 1134,677 1135,677 1135,677 1136,677 1137,677 1137,677 1138,677 1138,677 1139,677 1140,677 1140,677 1141,677 1141,677 1142,677 1142,677 1143,677 1144,677 1144,677 1145,677 1145,677 1146,677 1147,677 1147,677 1148,677 1148,677 1149,677 1150,677 1150,677 1151,677 1151,677 1152,677 1152,677 1153,677 1154,677 1154,677 1155,677 1155,677 1156,677 1157,677 1157,677 1158,676 1158,676 1159,676 1160,676 1160,677 1161,677 1161,677 1162,677 1162,677 1163,677 1164,677 1164,677 1165,677 1165,677 1166,677 1167,677 1167,677 1167,677 1167,677 1168,677 1168,677 1168,677 1168,677 1169,676 1170,676 1170,676 1170,676 1171,676 1171,676 1171,676 1171,676 1172,676 1172,676 1172,676 1173,676 1173,676 1174,676 1174,676 1174,676 1174,676 1175,676 1175,677 1175,677 1175,676 1176,676 1177,676 1177,676 1177,676 1178,676 1178,676 1178,676 1179,676 1180,676 1180,676 1180,676 1180,676 1181,676 1181,676 1181,676 1181,676 1182,676 1182,676 1182,676 1182,676 1183,676 1184,676 1184,676 1184,676 1184,676 1185,676 1185,676 1185,676 1185,676 1186,676 1186,676 1187,676 1187,676 1187,676 1188,676 1188,676 1188,676 1188,676 1189,676 1190,676 "/>
<polyline fill="none" opacity="1" stroke="#BD19E6" stroke-width="2" points="552,738 553,738 576,738 595,738 615,738 617,737 625,737 638,737 643,736 648,736 656,736 659,736 661,735 664,735 670,735 687,735 687,734 693,734 700,734 707,734 708,733 710,733 711,733 714,733 715,732 719,732 720,732 724,732 724,731 725,731 730,731 730,731 734,731 737,730 737,730 740,730 741,729 742,729 743,729 744,729 744,729 745,728 746,728 747,728 748,728 750,728 752,728 754,727 754,727 757,727 758,727 760,727 761,726 763,726 766,726 767,726 767,725 770,725 772,725 774,724 774,724 779,723 780,723 780,723 781,723 784,722 785,722 786,722 787,721 787,721 788,721 788,721 789,720 790,720 791,720 791,720 792,719 792,719 793,719 794,718 795,718 797,718 797,717 798,717 799,717 800,716 800,716 801,715 802,715 803,715 804,715 805,715 805,715 806,714 807,714 808,713 808,713 809,713 810,713 811,712 811,712 812,712 813,711 814,711 814,711 815,710 816,710 817,709 818,709 818,709 819,709 820,708 822,708 824,708 825,708 826,708 828,708 828,708 829,707 830,707 832,707 832,707 834,706 834,706 835,706 835,706 836,706 837,706 838,705 838,705 840,705 841,705 841,704 842,704 844,704 845,704 846,703 847,703 847,703 848,702 849,702 850,702 851,702 852,702 855,702 857,701 858,701 860,700 860,700 862,700 863,700 864,699 864,698 865,698 865,698 866,697 867,697 868,697 870,697 870,696 871,696 872,696 874,695 875,695 876,695 877,694 877,694 878,694 880,694 881,694 881,694 882,693 883,693 885,693 885,692 886,692 887,692 888,692 889,691 890,691 890,691 891,691 891,690 892,690 892,690 893,690 894,689 894,689 895,688 895,688 897,688 897,688 898,687 898,687 899,687 900,686 901,686 902,686 902,685 903,685 904,685 905,684 907,684 907,683 908,683 908,683 909,682 910,682 910,682 911,682 912,681 912,681 914,680 914,680 915,680 915,680 917,680 921,680 921,679 922,679 925,679 926,679 927,679 927,678 928,678 928,678 929,678 930,677 931,677 932,677 933,676 934,676 934,675 935,675 936,674 937,674 937,673 938,673 938,672 940,672 941,671 941,671 942,671 943,670 944,670 945,669 946,668 947,667 947,666 948,666 949,665 950,665 950,665 951,664 951,663 952,663 952,662 954,662 954,661 955,661 955,661 956,660 957,660 957,660 958,660 958,660 959,660 960,659 961,659 961,659 962,658 962,658 963,658 964,657 964,657 965,656 965,656 966,656 967,656 967,656 968,655 968,655 969,655 970,655 970,654 971,654 971,654 972,653 972,653 973,653 974,653 975,652 975,652 976,652 977,652 977,651 978,651 978,651 979,650 980,649 981,649 981,649 982,648 982,647 983,647 984,647 984,645 985,645 985,645 986,645 987,644 987,644 988,643 988,643 989,642 990,642 990,642 991,642 991,641 992,640 993,640 994,640 994,639 995,639 995,639 996,638 997,638 997,638 998,638 998,637 999,637 1000,637 1000,637 1001,637 1001,636 1002,636 1002,636 1003,635 1004,635 1004,634 1005,634 1005,634 1006,634 1007,634 1007,634 1008,634 1008,634 1009,633 1010,633 1010,632 1011,632 1011,631 1012,631 1012,631 1013,630 1014,630 1014,630 1015,629 1015,629 1016,629 1017,629 1017,628 1018,628 1018,627 1019,627 1020,627 1020,627 1021,626 1021,626 1022,626 1022,625 1023,625 1024,624 1024,624 1025,623 1025,623 1026,623 1027,623 1027,623 1028,622 1028,622 1029,622 1030,621 1030,620 1031,621 1031,620 1032,620 1032,620 1033,620 1034,619 1034,619 1035,619 1035,618 1036,617 1037,617 1037,617 1038,617 1038,616 1039,616 1040,616 1040,615 1041,615 1041,615 1042,614 1042,613 1043,613 1044,612 1044,611 1045,611 1045,611 1046,611 1047,611 1047,610 1048,610 1048,610 1049,609 1050,609 1050,609 1051,609 1051,608 1052,608 1052,608 1053,607 1054,607 1054,607 1055,607 1055,607 1056,606 1057,606 1057,605 1058,604 1058,604 1059,604 1060,604 1060,603 1061,603 1061,603 1062,602 1062,602 1063,601 1064,601 1064,601 1065,600 1065,600 1066,599 1067,599 1067,599 1068,598 1068,597 1069,597 1070,596 1070,596 1071,596 1071,595 1072,594 1072,594 1073,594 1074,593 1074,593 1075,593 1075,592 1076,592 1077,591 1077,591 1078,591 1078,590 1079,589 1080,589 1080,589 1081,589 1081,588 1082,588 1082,587 1083,587 1084,587 1084,587 1085,586 1085,586 1086,585 1087,585 1087,584 1088,584 1088,583 1089,582 1090,582 1090,581 1091,581 1091,581 1092,580 1092,580 1093,579 1094,579 1094,579 1095,578 1095,578 1096,577 1097,576 1097,576 1098,575 1098,575 1099,574 1100,574 1100,574 1101,572 1101,572 1102,571 1102,570 1103,570 1104,569 1104,568 1105,568 1105,567 1106,567 1107,566 1107,566 1108,565 1108,565 1109,565 1110,564 1110,564 1111,563 1111,562 1112,562 1112,561 1113,561 1114,561 1114,560 1114,560 1115,560 1115,559 1116,558 1117,558 1117,557 1118,555 1118,555 1119,554 1120,553 1120,552 1121,552 1121,552 1122,552 1122,551 1123,551 1124,550 1124,550 1125,551 1125,551 1126,549 1127,548 1127,548 1128,547 1128,547 1129,546 1130,546 1130,545 1131,545 1131,543 1132,543 1132,543 1133,543 1134,542 1134,542 1135,542 1135,541 1136,540 1137,540 1137,540 1138,540 1138,539 1139,539 1140,538 1140,538 1141,537 1141,537 1142,536 1142,535 1143,534 1144,534 1144,533 1145,533 1145,533 1146,533 1147,532 1147,531 1148,530 1148,530 1149,529 1150,528 1150,527 1151,527 1151,526 1152,526 1152,525 1153,525 1154,524 1154,524 1155,523 1155,523 1156,523 1157,522 1157,521 1158,521 1158,520 1159,520 1160,520 1160,519 1161,519 1161,519 1162,518 1162,517 1163,517 1164,516 1164,515 1165,515 1165,514 1166,514 1167,513 1167,512 1167,512 1167,512 1168,512 1168,512 1168,512 1168,512 1169,511 1170,511 1170,511 1170,511 1171,511 1171,510 1171,510 1171,510 1172,510 1172,510 1172,508 1173,508 1173,508 1174,508 1174,507 1174,507 1174,507 1175,507 1175,507 1175,507 1175,507 1176,506 1177,506 1177,506 1177,505 1178,504 1178,504 1178,504 1179,503 1180,503 1180,503 1180,503 1180,502 1181,502 1181,501 1181,501 1181,501 1182,501 1182,500 1182,500 1182,500 1183,499 1184,499 1184,498 1184,498 1184,498 1185,498 1185,498 1185,498 1185,497 1186,497 1186,497 1187,496 1187,496 1187,495 1188,495 1188,494 1188,494 1188,493 1189,492 1190,492 "/>
<rect x="1088" y="329" width="97" height="91" opacity="1" fill="#FFFFFF" stroke="none"/>
<rect x="1088" y="329" width="97" height="91" opacity="1" fill="none" stroke="#000000"/>
<text x="1128" y="339" dy="0.76em" text-anchor="start" font-family="sans-serif" font-size="9.67741935483871" opacity="1" fill="#000000">
argparse
</text>
<text x="1128" y="354" dy="0.76em" text-anchor="start" font-family="sans-serif" font-size="9.67741935483871" opacity="1" fill="#000000">
clap
</text>
<text x="1128" y="369" dy="0.76em" text-anchor="start" font-family="sans-serif" font-size="9.67741935483871" opacity="1" fill="#000000">
docopt
</text>
<text x="1128" y="384" dy="0.76em" text-anchor="start" font-family="sans-serif" font-size="9.67741935483871" opacity="1" fill="#000000">
getopts
</text>
<text x="1128" y="399" dy="0.76em" text-anchor="start" font-family="sans-serif" font-size="9.67741935483871" opacity="1" fill="#000000">
structopt
</text>
<polyline fill="none" opacity="1" stroke="#E61919" stroke-width="2" points="1098,343 1118,343 "/>
<polyline fill="none" opacity="1" stroke="#BDE619" stroke-width="2" points="1098,359 1118,359 "/>
<polyline fill="none" opacity="1" stroke="#19E66B" stroke-width="2" points="1098,374 1118,374 "/>
<polyline fill="none" opacity="1" stroke="#196BE6" stroke-width="2" points="1098,389 1118,389 "/>
<polyline fill="none" opacity="1" stroke="#BD19E6" stroke-width="2" points="1098,404 1118,404 "/>
</svg>
