<svg width="1200" height="800" viewBox="0 0 1200 800" xmlns="http://www.w3.org/2000/svg">
<rect x="0" y="0" width="1199" height="799" opacity="1" fill="#FFFFFF" stroke="none"/>
<line opacity="0.1" stroke="#000000" stroke-width="1" x1="60" y1="731" x2="1190" y2="731"/>
<line opacity="0.1" stroke="#000000" stroke-width="1" x1="60" y1="723" x2="1190" y2="723"/>
<line opacity="0.1" stroke="#000000" stroke-width="1" x1="60" y1="715" x2="1190" y2="715"/>
<line opacity="0.1" stroke="#000000" stroke-width="1" x1="60" y1="707" x2="1190" y2="707"/>
<line opacity="0.1" stroke="#000000" stroke-width="1" x1="60" y1="699" x2="1190" y2="699"/>
<line opacity="0.1" stroke="#000000" stroke-width="1" x1="60" y1="691" x2="1190" y2="691"/>
<line opacity="0.1" stroke="#000000" stroke-width="1" x1="60" y1="684" x2="1190" y2="684"/>
<line opacity="0.1" stroke="#000000" stroke-width="1" x1="60" y1="676" x2="1190" y2="676"/>
<line opacity="0.1" stroke="#000000" stroke-width="1" x1="60" y1="668" x2="1190" y2="668"/>
<line opacity="0.1" stroke="#000000" stroke-width="1" x1="60" y1="660" x2="1190" y2="660"/>
<line opacity="0.1" stroke="#000000" stroke-width="1" x1="60" y1="652" x2="1190" y2="652"/>
<line opacity="0.1" stroke="#000000" stroke-width="1" x1="60" y1="644" x2="1190" y2="644"/>
<line opacity="0.1" stroke="#000000" stroke-width="1" x1="60" y1="636" x2="1190" y2="636"/>
<line opacity="0.1" stroke="#000000" stroke-width="1" x1="60" y1="629" x2="1190" y2="629"/>
<line opacity="0.1" stroke="#000000" stroke-width="1" x1="60" y1="621" x2="1190" y2="621"/>
<line opacity="0.1" stroke="#000000" stroke-width="1" x1="60" y1="613" x2="1190" y2="613"/>
<line opacity="0.1" stroke="#000000" stroke-width="1" x1="60" y1="605" x2="1190" y2="605"/>
<line opacity="0.1" stroke="#000000" stroke-width="1" x1="60" y1="597" x2="1190" y2="597"/>
<line opacity="0.1" stroke="#000000" stroke-width="1" x1="60" y1="589" x2="1190" y2="589"/>
<line opacity="0.1" stroke="#000000" stroke-width="1" x1="60" y1="581" x2="1190" y2="581"/>
<line opacity="0.1" stroke="#000000" stroke-width="1" x1="60" y1="574" x2="1190" y2="574"/>
<line opacity="0.1" stroke="#000000" stroke-width="1" x1="60" y1="566" x2="1190" y2="566"/>
<line opacity="0.1" stroke="#000000" stroke-width="1" x1="60" y1="558" x2="1190" y2="558"/>
<line opacity="0.1" stroke="#000000" stroke-width="1" x1="60" y1="550" x2="1190" y2="550"/>
<line opacity="0.1" stroke="#000000" stroke-width="1" x1="60" y1="542" x2="1190" y2="542"/>
<line opacity="0.1" stroke="#000000" stroke-width="1" x1="60" y1="534" x2="1190" y2="534"/>
<line opacity="0.1" stroke="#000000" stroke-width="1" x1="60" y1="526" x2="1190" y2="526"/>
<line opacity="0.1" stroke="#000000" stroke-width="1" x1="60" y1="518" x2="1190" y2="518"/>
<line opacity="0.1" stroke="#000000" stroke-width="1" x1="60" y1="511" x2="1190" y2="511"/>
<line opacity="0.1" stroke="#000000" stroke-width="1" x1="60" y1="503" x2="1190" y2="503"/>
<line opacity="0.1" stroke="#000000" stroke-width="1" x1="60" y1="495" x2="1190" y2="495"/>
<line opacity="0.1" stroke="#000000" stroke-width="1" x1="60" y1="487" x2="1190" y2="487"/>
<line opacity="0.1" stroke="#000000" stroke-width="1" x1="60" y1="479" x2="1190" y2="479"/>
<line opacity="0.1" stroke="#000000" stroke-width="1" x1="60" y1="471" x2="1190" y2="471"/>
<line opacity="0.1" stroke="#000000" stroke-width="1" x1="60" y1="463" x2="1190" y2="463"/>
<line opacity="0.1" stroke="#000000" stroke-width="1" x1="60" y1="456" x2="1190" y2="456"/>
<line opacity="0.1" stroke="#000000" stroke-width="1" x1="60" y1="448" x2="1190" y2="448"/>
<line opacity="0.1" stroke="#000000" stroke-width="1" x1="60" y1="440" x2="1190" y2="440"/>
<line opacity="0.1" stroke="#000000" stroke-width="1" x1="60" y1="432" x2="1190" y2="432"/>
<line opacity="0.1" stroke="#000000" stroke-width="1" x1="60" y1="424" x2="1190" y2="424"/>
<line opacity="0.1" stroke="#000000" stroke-width="1" x1="60" y1="416" x2="1190" y2="416"/>
<line opacity="0.1" stroke="#000000" stroke-width="1" x1="60" y1="408" x2="1190" y2="408"/>
<line opacity="0.1" stroke="#000000" stroke-width="1" x1="60" y1="401" x2="1190" y2="401"/>
<line opacity="0.1" stroke="#000000" stroke-width="1" x1="60" y1="393" x2="1190" y2="393"/>
<line opacity="0.1" stroke="#000000" stroke-width="1" x1="60" y1="385" x2="1190" y2="385"/>
<line opacity="0.1" stroke="#000000" stroke-width="1" x1="60" y1="377" x2="1190" y2="377"/>
<line opacity="0.1" stroke="#000000" stroke-width="1" x1="60" y1="369" x2="1190" y2="369"/>
<line opacity="0.1" stroke="#000000" stroke-width="1" x1="60" y1="361" x2="1190" y2="361"/>
<line opacity="0.1" stroke="#000000" stroke-width="1" x1="60" y1="353" x2="1190" y2="353"/>
<line opacity="0.1" stroke="#000000" stroke-width="1" x1="60" y1="346" x2="1190" y2="346"/>
<line opacity="0.1" stroke="#000000" stroke-width="1" x1="60" y1="338" x2="1190" y2="338"/>
<line opacity="0.1" stroke="#000000" stroke-width="1" x1="60" y1="330" x2="1190" y2="330"/>
<line opacity="0.1" stroke="#000000" stroke-width="1" x1="60" y1="322" x2="1190" y2="322"/>
<line opacity="0.1" stroke="#000000" stroke-width="1" x1="60" y1="314" x2="1190" y2="314"/>
<line opacity="0.1" stroke="#000000" stroke-width="1" x1="60" y1="306" x2="1190" y2="306"/>
<line opacity="0.1" stroke="#000000" stroke-width="1" x1="60" y1="298" x2="1190" y2="298"/>
<line opacity="0.1" stroke="#000000" stroke-width="1" x1="60" y1="290" x2="1190" y2="290"/>
<line opacity="0.1" stroke="#000000" stroke-width="1" x1="60" y1="283" x2="1190" y2="283"/>
<line opacity="0.1" stroke="#000000" stroke-width="1" x1="60" y1="275" x2="1190" y2="275"/>
<line opacity="0.1" stroke="#000000" stroke-width="1" x1="60" y1="267" x2="1190" y2="267"/>
<line opacity="0.1" stroke="#000000" stroke-width="1" x1="60" y1="259" x2="1190" y2="259"/>
<line opacity="0.1" stroke="#000000" stroke-width="1" x1="60" y1="251" x2="1190" y2="251"/>
<line opacity="0.1" stroke="#000000" stroke-width="1" x1="60" y1="243" x2="1190" y2="243"/>
<line opacity="0.1" stroke="#000000" stroke-width="1" x1="60" y1="235" x2="1190" y2="235"/>
<line opacity="0.1" stroke="#000000" stroke-width="1" x1="60" y1="228" x2="1190" y2="228"/>
<line opacity="0.1" stroke="#000000" stroke-width="1" x1="60" y1="220" x2="1190" y2="220"/>
<line opacity="0.1" stroke="#000000" stroke-width="1" x1="60" y1="212" x2="1190" y2="212"/>
<line opacity="0.1" stroke="#000000" stroke-width="1" x1="60" y1="204" x2="1190" y2="204"/>
<line opacity="0.1" stroke="#000000" stroke-width="1" x1="60" y1="196" x2="1190" y2="196"/>
<line opacity="0.1" stroke="#000000" stroke-width="1" x1="60" y1="188" x2="1190" y2="188"/>
<line opacity="0.1" stroke="#000000" stroke-width="1" x1="60" y1="180" x2="1190" y2="180"/>
<line opacity="0.1" stroke="#000000" stroke-width="1" x1="60" y1="173" x2="1190" y2="173"/>
<line opacity="0.1" stroke="#000000" stroke-width="1" x1="60" y1="165" x2="1190" y2="165"/>
<line opacity="0.1" stroke="#000000" stroke-width="1" x1="60" y1="157" x2="1190" y2="157"/>
<line opacity="0.1" stroke="#000000" stroke-width="1" x1="60" y1="149" x2="1190" y2="149"/>
<line opacity="0.1" stroke="#000000" stroke-width="1" x1="60" y1="141" x2="1190" y2="141"/>
<line opacity="0.1" stroke="#000000" stroke-width="1" x1="60" y1="133" x2="1190" y2="133"/>
<line opacity="0.1" stroke="#000000" stroke-width="1" x1="60" y1="125" x2="1190" y2="125"/>
<line opacity="0.1" stroke="#000000" stroke-width="1" x1="60" y1="117" x2="1190" y2="117"/>
<line opacity="0.1" stroke="#000000" stroke-width="1" x1="60" y1="110" x2="1190" y2="110"/>
<line opacity="0.1" stroke="#000000" stroke-width="1" x1="60" y1="102" x2="1190" y2="102"/>
<line opacity="0.1" stroke="#000000" stroke-width="1" x1="60" y1="94" x2="1190" y2="94"/>
<line opacity="0.1" stroke="#000000" stroke-width="1" x1="60" y1="86" x2="1190" y2="86"/>
<line opacity="0.1" stroke="#000000" stroke-width="1" x1="60" y1="78" x2="1190" y2="78"/>
<line opacity="0.1" stroke="#000000" stroke-width="1" x1="60" y1="70" x2="1190" y2="70"/>
<line opacity="0.1" stroke="#000000" stroke-width="1" x1="60" y1="62" x2="1190" y2="62"/>
<line opacity="0.1" stroke="#000000" stroke-width="1" x1="60" y1="55" x2="1190" y2="55"/>
<line opacity="0.1" stroke="#000000" stroke-width="1" x1="60" y1="47" x2="1190" y2="47"/>
<line opacity="0.1" stroke="#000000" stroke-width="1" x1="60" y1="39" x2="1190" y2="39"/>
<line opacity="0.1" stroke="#000000" stroke-width="1" x1="60" y1="31" x2="1190" y2="31"/>
<line opacity="0.1" stroke="#000000" stroke-width="1" x1="60" y1="23" x2="1190" y2="23"/>
<line opacity="0.1" stroke="#000000" stroke-width="1" x1="60" y1="15" x2="1190" y2="15"/>
<text x="10" y="375" dy="0.76em" text-anchor="middle" font-family="sans-serif" font-size="9.67741935483871" opacity="1" fill="#000000" transform="rotate(270, 10, 375)">
Number of dependent crates
</text>
<line opacity="0.2" stroke="#000000" stroke-width="1" x1="60" y1="660" x2="1190" y2="660"/>
<line opacity="0.2" stroke="#000000" stroke-width="1" x1="60" y1="581" x2="1190" y2="581"/>
<line opacity="0.2" stroke="#000000" stroke-width="1" x1="60" y1="503" x2="1190" y2="503"/>
<line opacity="0.2" stroke="#000000" stroke-width="1" x1="60" y1="424" x2="1190" y2="424"/>
<line opacity="0.2" stroke="#000000" stroke-width="1" x1="60" y1="346" x2="1190" y2="346"/>
<line opacity="0.2" stroke="#000000" stroke-width="1" x1="60" y1="267" x2="1190" y2="267"/>
<line opacity="0.2" stroke="#000000" stroke-width="1" x1="60" y1="188" x2="1190" y2="188"/>
<line opacity="0.2" stroke="#000000" stroke-width="1" x1="60" y1="110" x2="1190" y2="110"/>
<line opacity="0.2" stroke="#000000" stroke-width="1" x1="60" y1="31" x2="1190" y2="31"/>
<polyline fill="none" opacity="1" stroke="#000000" stroke-width="1" points="59,10 59,740 "/>
<text x="50" y="660" dy="0.5ex" text-anchor="end" font-family="sans-serif" font-size="9.67741935483871" opacity="1" fill="#000000">
500
</text>
<polyline fill="none" opacity="1" stroke="#000000" stroke-width="1" points="54,660 59,660 "/>
<text x="50" y="581" dy="0.5ex" text-anchor="end" font-family="sans-serif" font-size="9.67741935483871" opacity="1" fill="#000000">
1000
</text>
<polyline fill="none" opacity="1" stroke="#000000" stroke-width="1" points="54,581 59,581 "/>
<text x="50" y="503" dy="0.5ex" text-anchor="end" font-family="sans-serif" font-size="9.67741935483871" opacity="1" fill="#000000">
1500
</text>
<polyline fill="none" opacity="1" stroke="#000000" stroke-width="1" points="54,503 59,503 "/>
<text x="50" y="424" dy="0.5ex" text-anchor="end" font-family="sans-serif" font-size="9.67741935483871" opacity="1" fill="#000000">
2000
</text>
<polyline fill="none" opacity="1" stroke="#000000" stroke-width="1" points="54,424 59,424 "/>
<text x="50" y="346" dy="0.5ex" text-anchor="end" font-family="sans-serif" font-size="9.67741935483871" opacity="1" fill="#000000">
2500
</text>
<polyline fill="none" opacity="1" stroke="#000000" stroke-width="1" points="54,346 59,346 "/>
<text x="50" y="267" dy="0.5ex" text-anchor="end" font-family="sans-serif" font-size="9.67741935483871" opacity="1" fill="#000000">
3000
</text>
<polyline fill="none" opacity="1" stroke="#000000" stroke-width="1" points="54,267 59,267 "/>
<text x="50" y="188" dy="0.5ex" text-anchor="end" font-family="sans-serif" font-size="9.67741935483871" opacity="1" fill="#000000">
3500
</text>
<polyline fill="none" opacity="1" stroke="#000000" stroke-width="1" points="54,188 59,188 "/>
<text x="50" y="110" dy="0.5ex" text-anchor="end" font-family="sans-serif" font-size="9.67741935483871" opacity="1" fill="#000000">
4000
</text>
<polyline fill="none" opacity="1" stroke="#000000" stroke-width="1" points="54,110 59,110 "/>
<text x="50" y="31" dy="0.5ex" text-anchor="end" font-family="sans-serif" font-size="9.67741935483871" opacity="1" fill="#000000">
4500
</text>
<polyline fill="none" opacity="1" stroke="#000000" stroke-width="1" points="54,31 59,31 "/>
<polyline fill="none" opacity="1" stroke="#000000" stroke-width="1" points="60,740 1190,740 "/>
<text x="60" y="750" dy="0.76em" text-anchor="middle" font-family="sans-serif" font-size="9.67741935483871" opacity="1" fill="#000000">
2014-11-20Z
</text>
<polyline fill="none" opacity="1" stroke="#000000" stroke-width="1" points="60,740 60,745 "/>
<text x="175" y="750" dy="0.76em" text-anchor="middle" font-family="sans-serif" font-size="9.67741935483871" opacity="1" fill="#000000">
2015-07-09Z
</text>
<polyline fill="none" opacity="1" stroke="#000000" stroke-width="1" points="175,740 175,745 "/>
<text x="290" y="750" dy="0.76em" text-anchor="middle" font-family="sans-serif" font-size="9.67741935483871" opacity="1" fill="#000000">
2016-02-25Z
</text>
<polyline fill="none" opacity="1" stroke="#000000" stroke-width="1" points="290,740 290,745 "/>
<text x="405" y="750" dy="0.76em" text-anchor="middle" font-family="sans-serif" font-size="9.67741935483871" opacity="1" fill="#000000">
2016-10-13Z
</text>
<polyline fill="none" opacity="1" stroke="#000000" stroke-width="1" points="405,740 405,745 "/>
<text x="521" y="750" dy="0.76em" text-anchor="middle" font-family="sans-serif" font-size="9.67741935483871" opacity="1" fill="#000000">
2017-06-01Z
</text>
<polyline fill="none" opacity="1" stroke="#000000" stroke-width="1" points="521,740 521,745 "/>
<text x="636" y="750" dy="0.76em" text-anchor="middle" font-family="sans-serif" font-size="9.67741935483871" opacity="1" fill="#000000">
2018-01-18Z
</text>
<polyline fill="none" opacity="1" stroke="#000000" stroke-width="1" points="636,740 636,745 "/>
<text x="751" y="750" dy="0.76em" text-anchor="middle" font-family="sans-serif" font-size="9.67741935483871" opacity="1" fill="#000000">
2018-09-06Z
</text>
<polyline fill="none" opacity="1" stroke="#000000" stroke-width="1" points="751,740 751,745 "/>
<text x="867" y="750" dy="0.76em" text-anchor="middle" font-family="sans-serif" font-size="9.67741935483871" opacity="1" fill="#000000">
2019-04-25Z
</text>
<polyline fill="none" opacity="1" stroke="#000000" stroke-width="1" points="867,740 867,745 "/>
<text x="982" y="750" dy="0.76em" text-anchor="middle" font-family="sans-serif" font-size="9.67741935483871" opacity="1" fill="#000000">
2019-12-12Z
</text>
<polyline fill="none" opacity="1" stroke="#000000" stroke-width="1" points="982,740 982,745 "/>
<text x="1097" y="750" dy="0.76em" text-anchor="middle" font-family="sans-serif" font-size="9.67741935483871" opacity="1" fill="#000000">
2020-07-30Z
</text>
<polyline fill="none" opacity="1" stroke="#000000" stroke-width="1" points="1097,740 1097,745 "/>
<polyline fill="none" opacity="1" stroke="#E61919" stroke-width="2" points="161,738 166,738 166,738 201,738 227,738 255,738 264,737 264,737 272,737 275,737 277,737 278,737 279,737 281,737 282,737 283,736 284,736 293,736 293,736 306,736 307,736 311,736 318,736 321,736 322,735 334,735 335,735 340,735 356,735 357,735 358,735 359,735 359,735 360,735 361,735 362,735 362,735 363,735 363,735 365,735 365,735 366,735 405,735 406,735 406,735 407,735 409,734 432,735 432,735 433,735 434,734 435,734 436,734 436,734 437,734 438,734 440,734 441,734 442,734 443,734 443,734 444,734 444,733 446,733 447,733 448,733 449,733 450,733 450,733 451,733 451,733 453,733 454,733 456,733 456,733 457,733 457,733 458,733 459,733 459,733 460,733 461,733 461,733 463,733 463,733 465,733 465,733 466,733 466,733 468,733 469,733 469,733 471,733 472,733 473,733 473,733 475,733 476,733 476,733 477,733 478,733 479,733 480,733 481,733 481,733 482,733 483,733 484,733 485,733 486,733 487,733 487,733 488,733 488,733 489,733 490,733 491,733 492,733 493,733 494,733 495,733 495,733 497,733 498,733 499,733 502,733 502,733 503,733 505,733 507,733 508,733 510,733 510,733 512,733 512,733 513,732 515,732 516,732 518,733 519,733 519,733 521,733 521,733 522,733 522,733 524,733 525,733 525,733 526,733 527,733 527,733 528,733 528,733 529,733 529,733 530,732 531,732 532,732 534,732 535,732 539,732 540,732 540,732 541,732 541,732 542,732 542,732 543,732 545,732 545,732 546,732 546,732 547,732 547,732 548,732 548,732 549,732 549,732 550,732 551,732 552,732 554,732 555,732 555,732 556,732 556,732 557,732 558,732 558,732 563,732 565,731 568,731 568,731 569,731 570,731 572,731 572,731 575,731 576,731 577,731 586,731 587,731 588,731 591,731 592,731 597,731 599,731 601,731 601,731 602,731 603,731 605,731 608,731 609,731 611,731 611,731 612,731 614,731 615,731 615,731 616,730 617,731 617,731 618,731 618,731 619,731 620,731 620,731 621,731 622,731 622,731 623,731 623,731 624,731 624,731 625,731 625,731 626,731 627,731 628,731 628,731 629,731 630,731 630,731 632,731 632,731 633,731 633,731 634,730 635,730 635,730 636,730 637,730 637,730 638,730 640,730 641,730 641,730 642,730 643,730 643,730 644,731 645,731 645,731 646,731 647,731 649,731 650,731 651,731 652,731 653,730 653,730 656,730 656,730 659,730 660,730 660,730 661,730 661,730 662,730 662,730 663,730 665,730 665,730 666,730 666,730 669,730 669,730 670,730 670,730 671,730 672,730 672,730 673,730 675,730 676,730 676,730 677,730 677,730 678,730 679,730 680,730 680,730 681,730 681,730 682,730 682,730 683,730 683,730 684,730 684,730 685,730 685,730 686,730 686,730 687,730 687,730 688,730 689,730 689,730 690,730 690,730 692,730 693,730 693,730 694,730 696,730 697,730 698,730 698,730 699,730 701,730 701,730 702,730 702,730 703,730 703,730 704,730 704,730 705,730 705,730 706,730 706,730 707,730 707,730 708,730 708,730 710,730 711,730 712,730 712,730 713,730 714,730 714,730 715,730 715,730 716,730 716,730 717,730 717,730 718,730 718,730 719,730 719,730 720,730 721,730 721,730 722,730 722,730 723,730 723,730 724,730 724,730 725,730 726,730 726,730 727,730 728,730 729,730 730,730 730,730 731,730 731,730 732,730 733,730 734,730 734,730 735,730 736,730 736,730 737,730 737,730 738,730 738,730 739,730 739,730 740,730 741,730 741,730 742,730 742,730 743,730 743,730 744,730 744,730 746,730 746,730 747,730 748,730 748,730 749,730 749,730 750,730 750,730 751,730 752,730 752,730 753,730 754,730 754,730 755,730 756,730 756,730 757,730 757,730 758,730 759,730 759,730 760,730 760,730 761,730 761,730 761,730 762,730 762,730 763,730 763,730 764,730 764,730 765,730 765,730 766,730 766,730 767,730 768,730 768,730 769,730 769,730 770,730 770,730 771,730 771,730 772,730 773,730 774,730 774,730 775,729 776,729 776,729 777,729 778,729 779,729 779,729 780,729 780,729 781,729 781,729 782,729 782,729 783,729 783,729 784,729 785,729 785,729 786,729 786,729 788,729 788,729 789,729 790,729 790,729 791,729 791,729 792,729 793,729 793,729 794,729 794,729 795,729 796,729 796,729 797,729 798,729 798,729 799,729 800,729 800,729 801,729 801,729 803,729 803,729 804,729 805,729 806,729 806,729 807,729 807,729 808,729 809,729 809,729 810,729 810,729 811,729 811,729 812,729 813,729 813,729 814,729 814,729 815,729 815,729 816,729 816,729 817,729 818,729 818,729 819,729 820,729 821,729 822,729 822,729 823,729 824,729 824,729 825,729 825,729 826,729 826,729 827,729 827,729 828,729 829,729 830,729 830,729 831,728 832,728 832,728 833,728 834,728 834,728 835,728 835,728 836,728 836,728 837,728 837,728 838,728 838,728 839,728 840,728 840,728 841,728 841,728 842,728 842,728 843,728 843,728 844,728 844,728 845,728 845,728 846,728 846,728 847,728 847,728 848,728 849,728 849,728 850,728 850,728 851,728 851,728 852,728 853,728 853,728 854,728 854,728 855,728 855,728 856,728 857,728 857,728 858,728 858,728 859,728 859,728 861,728 861,728 864,728 864,728 865,728 866,728 866,728 867,728 867,728 868,728 868,728 869,728 869,728 870,728 870,728 871,728 871,728 872,728 872,728 873,728 874,728 875,728 876,728 877,728 877,728 878,728 878,728 879,728 880,728 881,728 882,728 882,728 883,728 883,728 884,728 884,728 885,728 886,727 887,727 887,727 888,727 888,727 889,727 889,727 891,727 892,727 892,727 893,727 893,727 894,727 895,727 895,727 896,727 896,727 897,727 898,727 898,727 899,727 899,727 900,727 902,727 902,727 903,727 903,727 904,727 904,727 905,727 905,727 906,727 907,727 907,727 907,727 908,727 909,727 909,727 910,727 910,727 912,727 912,727 913,727 913,727 914,727 914,727 915,727 915,727 916,727 916,727 917,727 917,727 918,727 918,727 919,727 919,727 920,727 920,727 921,727 921,727 923,727 924,727 924,727 925,727 926,727 926,727 927,727 927,727 929,727 929,728 930,728 930,728 931,728 931,728 932,728 932,728 933,728 933,728 934,728 934,728 935,728 936,728 938,728 939,728 939,728 940,728 940,728 941,728 942,728 943,728 944,728 944,728 945,728 945,728 946,728 947,728 947,728 948,728 949,728 950,728 951,728 952,728 953,728 954,728 954,728 955,728 955,728 956,728 957,728 958,728 958,728 959,728 959,728 960,728 960,728 961,728 961,728 962,728 962,728 963,728 963,728 964,728 964,728 965,728 965,728 966,728 966,728 967,728 967,728 968,728 968,728 969,728 969,728 970,727 971,727 972,727 972,727 973,727 973,727 977,727 978,727 978,727 979,727 979,727 980,727 981,727 981,727 982,727 983,727 983,727 985,727 986,727 986,727 987,727 988,727 989,727 989,727 990,727 991,727 991,727 992,727 992,727 993,727 994,727 994,727 995,727 995,727 996,727 996,727 997,727 997,727 998,727 998,727 1000,727 1000,727 1001,727 1001,727 1002,727 1002,727 1003,727 1003,727 1004,727 1005,727 1005,727 1006,727 1006,727 1007,727 1007,727 1008,727 1008,727 1009,727 1010,727 1010,727 1011,727 1012,727 1013,727 1013,727 1014,727 1014,727 1015,727 1017,727 1017,727 1018,727 1019,727 1020,727 1020,727 1021,727 1021,727 1022,727 1022,727 1023,727 1023,727 1024,727 1024,727 1024,727 1025,727 1026,727 1026,727 1026,727 1026,727 1028,727 1028,727 1029,727 1029,727 1029,727 1030,727 1030,727 1030,727 1031,727 1031,727 1031,727 1031,727 1032,727 1032,727 1032,727 1033,727 1033,727 1033,727 1034,727 1034,727 1034,727 1034,727 1035,727 1035,727 1036,727 1036,727 1036,727 1036,727 1037,727 1037,727 1037,727 1038,727 1038,727 1038,727 1039,727 1039,727 1039,727 1039,727 1040,727 1040,727 1040,727 1041,727 1041,727 1041,727 1042,727 1043,727 1043,727 1044,727 1044,727 1044,727 1045,727 1045,727 1045,727 1045,727 1046,727 1047,727 1047,727 1047,727 1048,727 1048,727 1049,727 1049,727 1049,727 1050,727 1050,727 1051,727 1051,727 1051,727 1051,727 1052,727 1052,727 1053,727 1053,727 1053,727 1054,727 1054,727 1054,727 1054,727 1055,727 1055,727 1055,727 1056,727 1057,727 1057,727 1057,727 1058,727 1058,727 1059,727 1059,727 1059,727 1060,727 1060,727 1060,727 1060,727 1061,727 1061,727 1062,727 1062,727 1062,727 1063,727 1063,727 1063,727 1064,727 1064,727 1064,727 1065,727 1065,727 1066,727 1066,727 1067,727 1067,727 1067,727 1068,727 1068,727 1069,727 1069,727 1069,727 1070,727 1070,727 1070,727 1070,727 1071,727 1071,727 1071,727 1072,727 1072,727 1072,727 1073,727 1073,727 1073,727 1073,727 1074,727 1074,727 1075,727 1075,727 1076,727 1076,727 1077,727 1077,727 1077,727 1078,727 1078,727 1078,727 1078,727 1079,727 1079,727 1079,727 1079,727 1080,727 1080,727 1080,727 1080,727 1081,727 1081,727 1081,727 1082,727 1082,727 1083,727 1083,727 1083,727 1084,727 1084,727 1084,727 1084,727 1085,727 1085,727 1085,727 1085,727 1086,727 1086,727 1086,727 1086,727 1087,727 1087,727 1088,727 1088,727 1088,727 1088,727 1090,727 1090,727 1090,727 1091,727 1091,727 1091,727 1092,727 1092,727 1093,727 1093,727 1094,727 1094,727 1094,727 1094,727 1095,727 1095,727 1095,727 1096,727 1096,727 1096,727 1096,727 1097,727 1097,727 1097,727 1097,727 1098,727 1098,727 1098,727 1099,727 1099,727 1099,727 1099,727 1100,727 1101,727 1101,727 1101,727 1101,727 1102,727 1102,727 1102,727 1103,727 1103,727 1103,727 1104,727 1104,727 1104,727 1104,727 1105,727 1105,727 1106,727 1106,727 1106,727 1107,727 1107,727 1109,727 1109,727 1110,727 1110,727 1110,727 1111,727 1111,727 1111,727 1112,727 1112,727 1113,727 1113,727 1113,727 1113,727 1114,727 1114,727 1114,727 1115,727 1115,727 1115,727 1115,727 1116,727 1116,727 1116,727 1117,727 1117,727 1117,727 1117,727 1118,727 1118,727 1118,727 1119,727 1119,727 1119,727 1120,727 1120,727 1120,727 1121,727 1121,727 1121,727 1121,727 1122,727 1122,727 1122,727 1122,727 1123,727 1123,727 1123,727 1124,727 1124,727 1125,727 1125,727 1125,727 1126,727 1126,727 1126,727 1126,727 1127,727 1127,727 1127,727 1128,727 1128,727 1129,727 1129,727 1129,727 1129,727 1130,727 1130,727 1130,727 1131,727 1131,727 1132,726 1132,726 1132,726 1133,726 1133,726 1133,726 1133,726 1134,726 1134,726 1134,726 1135,726 1135,726 1135,726 1135,726 1136,726 1136,726 1137,726 1137,726 1138,726 1138,726 1138,726 1139,726 1139,726 1139,726 1139,726 1140,726 1140,726 1140,726 1140,726 1141,726 1141,726 1141,726 1142,726 1142,726 1142,726 1142,726 1143,726 1143,726 1143,726 1144,726 1144,726 1144,726 1144,726 1145,726 1145,726 1145,726 1145,726 1146,726 1146,726 1146,726 1146,726 1147,726 1147,726 1147,726 1148,726 1148,726 1148,726 1149,726 1149,726 1150,726 1150,726 1150,726 1151,726 1151,726 1151,726 1151,726 1152,726 1152,726 1152,726 1152,726 1153,726 1153,726 1153,726 1154,726 1154,726 1154,726 1154,726 1155,726 1155,726 1155,726 1157,726 1158,726 1158,726 1158,726 1158,726 1159,726 1159,726 1159,726 1160,726 1160,726 1160,726 1160,726 1161,726 1161,726 1161,726 1161,726 1162,726 1162,726 1162,726 1162,726 1163,726 1163,726 1163,726 1163,726 1164,726 1164,726 1164,726 1164,726 1165,726 1165,726 1165,726 1165,726 1166,726 1166,726 1166,726 1167,726 1167,726 1167,726 1168,726 1168,726 1168,726 1168,726 1169,726 1169,726 1169,726 1170,726 1170,726 1170,726 1172,726 1172,726 1173,726 1173,726 1173,726 1173,726 1174,726 1174,726 1174,726 1175,726 1175,726 1175,726 1176,726 1176,726 1179,726 1179,726 1179,726 1179,726 1180,726 1180,726 1180,726 1180,726 1181,726 1182,726 1183,726 1183,726 1183,726 1183,726 1184,726 1184,726 1184,726 1184,726 1185,726 1185,726 1185,726 1186,726 1186,726 1186,726 1186,726 1187,726 1187,726 1187,726 1188,726 1188,726 1188,726 1188,726 1189,726 1189,726 1189,726 "/>
<polyline fill="none" opacity="1" stroke="#BDE619" stroke-width="2" points="125,738 149,738 168,738 171,738 182,738 189,738 190,738 192,738 198,737 199,737 202,737 208,737 212,737 216,737 220,736 224,736 227,736 227,736 228,736 229,736 230,735 230,735 233,735 234,735 236,735 239,734 240,734 241,734 248,734 250,733 252,733 252,733 253,733 255,733 256,733 261,732 261,732 262,732 263,732 266,732 266,732 267,731 268,731 268,731 272,731 274,731 274,730 275,730 276,730 279,730 279,730 283,730 285,729 288,729 288,729 289,729 290,728 290,728 291,728 292,728 293,728 294,728 295,727 295,727 297,727 298,727 299,727 300,727 301,727 302,727 302,727 303,726 306,726 309,726 311,726 312,726 313,726 315,726 316,725 316,725 317,725 317,725 318,725 318,725 319,725 320,725 320,724 321,724 322,724 324,724 325,724 326,724 326,724 327,724 328,724 328,724 329,724 329,724 330,723 331,723 331,723 332,723 333,723 335,723 336,723 336,723 337,723 337,723 338,723 340,723 341,723 341,723 342,723 342,723 342,723 343,723 343,722 344,722 344,722 345,722 345,722 346,722 346,722 347,722 347,722 348,722 348,722 349,722 349,722 350,721 351,721 351,721 352,721 352,721 353,721 354,721 355,721 356,721 356,720 357,720 357,720 358,720 359,720 359,719 360,719 361,719 363,719 363,719 364,719 364,718 365,718 366,718 367,718 368,718 368,717 369,717 370,717 370,717 371,717 371,717 372,717 372,717 373,716 373,716 374,716 374,716 375,716 376,716 377,716 377,716 378,716 378,715 379,715 379,715 380,715 381,715 381,715 382,715 383,714 383,714 384,714 384,714 385,714 385,714 386,713 386,713 387,713 387,713 388,713 389,697 390,696 391,696 391,696 392,696 392,696 393,696 394,695 394,695 395,695 395,695 396,695 396,694 397,694 397,694 398,694 398,693 399,693 399,693 400,693 400,693 401,693 401,692 402,692 402,692 403,692 403,692 404,692 404,691 405,691 405,691 406,691 406,690 407,690 407,690 408,689 409,689 409,689 410,686 411,686 411,686 412,686 413,686 413,685 414,685 414,685 415,685 415,685 417,685 417,685 418,685 418,685 419,685 419,685 420,685 420,685 421,684 421,684 422,684 422,684 423,683 424,683 424,683 425,683 425,683 426,683 426,683 427,683 427,682 428,682 428,682 429,682 430,682 430,682 431,681 432,681 432,680 433,680 433,680 434,680 434,680 435,680 435,680 436,680 436,680 437,679 438,679 438,679 439,679 439,678 440,678 440,678 441,678 441,678 442,678 442,678 443,678 443,677 444,677 444,677 445,677 445,677 446,677 446,677 447,677 447,677 448,676 448,676 449,676 449,676 450,676 451,676 451,675 452,675 452,675 453,675 453,675 454,674 454,674 455,674 455,674 456,674 456,673 457,673 457,673 458,673 458,672 459,672 459,671 460,671 460,671 461,670 461,670 462,670 462,670 463,669 463,669 464,669 464,669 465,669 465,669 466,668 466,668 467,667 467,667 468,667 468,667 469,666 469,666 470,666 470,666 471,665 471,665 472,665 472,665 473,665 473,665 474,664 474,664 475,664 475,664 476,664 476,663 477,663 477,663 478,662 478,662 479,662 479,662 480,662 480,662 481,661 481,661 482,661 482,661 483,661 483,660 484,660 484,660 485,659 485,659 486,658 486,658 487,658 488,658 488,658 489,657 489,657 490,657 490,657 491,656 491,656 492,655 492,655 493,655 493,655 494,655 494,654 495,654 495,654 496,654 496,653 497,653 497,653 498,653 498,652 499,652 499,652 500,652 500,651 501,651 501,651 502,651 502,650 503,650 503,650 504,650 504,650 505,650 505,649 506,649 506,649 507,649 507,648 508,648 508,648 509,648 509,647 510,647 510,646 511,646 511,646 512,646 512,646 513,646 513,646 514,646 514,646 515,645 515,645 516,645 516,645 517,645 517,644 518,644 518,644 519,643 519,643 520,643 520,642 521,642 521,642 522,642 522,641 523,641 523,641 524,641 524,641 525,640 525,640 526,640 526,639 527,639 527,638 528,638 528,638 529,637 529,637 530,637 530,636 531,636 531,636 532,636 532,636 533,636 533,636 534,636 534,636 535,636 535,635 536,635 536,635 537,635 537,635 538,634 538,634 539,634 539,633 540,633 540,633 541,633 541,633 542,633 542,632 543,632 543,631 544,631 544,630 545,630 545,630 546,630 546,629 547,629 547,629 548,629 548,629 549,628 549,628 550,628 550,628 551,628 551,627 552,627 552,627 553,627 553,627 554,627 554,626 555,626 555,626 556,626 556,625 557,625 557,625 558,625 558,624 559,624 559,624 560,624 560,624 561,624 561,624 562,623 562,623 563,623 563,623 564,622 564,622 565,622 565,621 566,621 566,621 567,621 567,621 568,621 568,621 569,620 569,620 570,620 570,620 571,620 571,620 572,619 572,619 573,619 573,619 574,618 574,618 575,618 575,617 576,617 576,617 577,617 577,617 578,617 578,617 579,616 579,616 580,613 580,613 581,612 581,612 582,612 582,612 583,612 583,612 584,611 584,611 585,610 585,610 586,610 586,609 587,609 587,609 588,608 588,608 589,608 589,608 590,608 590,608 591,607 591,607 592,607 592,607 593,606 593,606 594,606 594,606 595,605 595,605 596,605 596,604 597,604 597,603 598,603 598,602 599,602 599,602 600,602 600,602 601,602 601,602 602,602 602,601 603,601 603,601 604,601 604,600 605,600 605,600 606,600 606,600 607,599 607,599 608,599 608,599 609,598 609,598 610,598 610,598 611,598 611,598 612,597 612,597 613,597 613,597 614,597 614,596 615,596 615,596 616,596 616,596 617,595 617,595 618,594 618,593 619,593 619,593 620,593 620,592 621,592 621,592 622,591 622,591 623,591 623,591 624,590 624,590 625,590 625,590 625,590 626,590 626,590 627,589 627,589 628,589 628,589 629,588 629,588 630,588 630,588 631,588 631,588 632,588 632,588 633,588 633,587 634,587 634,587 635,586 635,586 636,586 636,585 637,585 637,585 638,585 638,585 639,584 639,584 640,583 640,583 641,583 641,583 642,583 642,582 643,579 643,579 644,578 644,578 645,578 645,577 646,577 646,576 647,576 647,575 648,575 648,574 649,574 649,573 650,573 650,572 651,572 651,572 652,571 652,571 653,571 653,571 654,570 654,570 655,570 655,569 656,569 656,568 657,568 657,568 658,567 658,567 659,567 659,567 660,566 660,566 661,566 661,565 662,565 662,564 663,563 663,563 664,563 664,563 665,563 665,563 666,562 666,562 667,562 667,561 668,561 668,562 669,561 669,561 670,560 670,560 671,559 671,559 672,558 672,558 673,557 673,557 674,557 674,557 675,557 675,557 676,557 676,556 677,556 677,556 678,555 678,555 679,555 679,555 680,555 680,554 681,554 681,554 682,553 682,553 683,553 683,552 684,552 684,552 685,552 685,552 686,552 686,552 687,552 687,552 688,552 688,552 689,551 689,551 690,551 690,550 691,550 691,550 692,549 692,549 693,549 693,549 694,548 694,548 695,548 695,547 696,547 696,547 697,547 697,546 698,546 698,546 699,546 699,545 700,545 700,545 701,545 701,544 702,544 702,544 703,543 703,543 704,543 704,542 705,542 705,542 706,542 706,542 707,542 707,541 708,541 708,540 709,540 709,540 710,539 710,539 711,539 711,538 712,538 712,537 713,537 713,537 714,537 714,536 715,536 715,536 716,535 716,535 717,535 717,535 718,534 718,533 719,533 719,533 720,533 720,532 721,532 721,532 722,531 722,531 723,530 723,530 724,530 724,530 725,530 725,529 726,529 726,529 727,529 727,528 728,528 728,527 729,527 729,527 730,527 730,527 731,526 731,526 732,526 732,526 733,526 733,526 734,526 734,526 735,525 735,525 736,525 736,525 737,524 737,524 738,524 738,523 739,523 739,523 740,523 740,522 741,522 741,522 742,522 742,522 743,522 743,522 744,521 744,521 745,521 745,521 746,521 746,520 747,520 747,520 748,520 748,519 749,519 749,519 750,519 750,518 751,518 751,518 752,517 752,517 753,517 753,516 754,515 754,515 755,515 755,515 756,515 756,515 757,514 757,513 758,513 758,513 759,513 759,512 760,511 760,511 761,511 761,510 761,510 762,509 762,509 763,509 763,509 764,508 764,507 765,507 765,507 766,506 766,506 767,505 767,505 768,505 768,505 769,504 769,505 770,504 770,499 771,499 771,498 772,498 772,497 773,497 773,497 774,497 774,496 775,495 775,495 776,495 776,494 777,494 777,494 778,493 778,493 779,492 779,492 780,491 780,491 781,490 781,490 782,490 782,490 783,489 783,489 784,489 784,488 785,487 785,487 786,487 786,486 787,486 787,485 788,485 788,485 789,484 789,484 790,484 790,484 791,483 791,483 792,483 792,483 793,482 793,482 794,482 794,481 795,481 795,481 796,481 796,480 797,480 797,479 798,479 798,478 799,478 799,478 800,478 800,478 801,478 801,477 802,477 802,477 803,476 803,476 804,476 804,475 805,475 805,475 806,474 806,474 807,474 807,473 808,473 808,473 809,473 809,472 810,471 810,470 811,469 811,469 812,469 812,468 813,467 813,466 814,466 814,465 815,465 815,465 816,464 816,464 817,464 817,463 818,463 818,463 819,462 819,462 820,462 820,462 821,461 821,460 822,460 822,460 823,459 823,458 824,458 824,458 825,457 825,457 826,457 826,457 827,456 827,456 828,455 828,455 829,455 829,454 830,454 830,453 831,453 831,453 832,452 832,452 833,451 833,451 834,451 834,451 835,451 835,450 836,450 836,449 837,449 837,449 838,448 838,448 839,448 839,447 840,446 840,446 841,446 841,445 842,445 842,445 843,444 843,444 844,443 844,443 845,442 845,442 846,442 846,441 847,441 847,441 848,441 848,440 849,440 849,439 850,439 850,438 851,438 851,437 852,437 852,436 853,435 853,435 854,435 854,434 855,434 855,434 856,433 856,433 857,433 857,432 858,431 858,431 859,431 859,430 860,430 860,430 861,429 861,429 862,429 862,428 863,428 863,427 864,427 864,427 865,426 865,426 866,425 866,425 867,424 867,423 868,423 868,423 869,422 869,422 870,421 870,421 871,420 871,420 872,419 872,419 873,419 873,418 874,418 874,418 875,418 875,417 876,417 876,417 877,417 877,417 878,416 878,414 879,414 879,414 880,413 880,413 881,412 881,412 882,412 882,411 883,411 883,410 884,410 884,409 885,409 885,408 886,407 886,407 887,406 887,406 888,406 888,405 889,405 889,404 890,404 890,403 891,403 891,402 892,402 892,402 893,401 893,401 894,400 894,400 895,400 895,400 896,399 896,399 897,398 897,398 898,397 898,396 899,396 899,396 900,395 900,395 901,395 901,395 902,395 902,390 903,390 903,390 904,389 904,389 905,388 905,387 906,387 906,387 907,386 907,385 907,385 908,384 908,384 909,383 909,382 910,382 910,382 911,381 911,381 912,381 912,380 913,380 913,379 914,379 914,379 915,379 915,378 916,378 916,377 917,377 917,377 918,376 918,376 919,375 919,375 920,375 920,374 921,374 921,373 922,372 922,372 923,371 923,371 924,371 924,371 925,371 925,370 926,369 926,369 927,369 927,368 928,368 928,368 929,367 929,367 930,367 930,367 931,366 931,366 932,366 932,366 933,365 933,365 934,364 934,363 935,363 935,362 936,362 936,362 937,361 937,361 938,360 938,360 939,360 939,359 940,358 940,358 941,358 941,357 942,357 942,357 943,357 943,356 944,356 944,355 945,355 945,355 946,355 946,354 947,354 947,354 948,353 948,353 949,353 949,353 950,352 950,351 951,350 951,350 952,350 952,349 953,349 953,349 954,348 954,348 954,348 955,348 955,348 956,347 956,347 957,347 957,346 958,346 958,345 959,345 959,345 960,344 960,344 961,344 961,343 962,343 962,343 963,342 963,342 964,341 964,341 965,340 965,339 966,339 966,338 967,338 967,337 968,337 968,337 969,335 969,335 970,335 970,334 971,334 971,333 972,333 972,333 973,332 973,332 974,332 974,330 975,330 975,329 976,329 976,329 977,329 977,328 978,328 978,328 979,328 979,328 980,327 980,326 981,326 981,326 982,326 982,325 983,325 983,325 984,325 984,325 985,324 985,324 986,324 986,324 987,323 987,322 988,321 988,320 989,320 989,319 990,319 990,318 991,318 991,318 992,318 992,317 993,316 993,315 994,315 994,314 995,314 995,314 996,312 996,312 997,312 997,311 998,310 998,309 999,309 999,309 1000,309 1000,309 1001,308 1001,307 1002,306 1002,306 1003,306 1003,305 1004,304 1004,304 1005,303 1005,302 1006,302 1006,301 1007,301 1007,301 1008,300 1008,300 1009,300 1009,299 1010,298 1010,297 1011,296 1011,295 1012,295 1012,294 1013,294 1013,293 1014,292 1014,291 1015,291 1015,290 1016,290 1016,290 1017,289 1017,289 1018,289 1018,288 1019,287 1019,286 1020,286 1020,285 1021,284 1021,284 1022,284 1022,283 1023,282 1023,282 1024,282 1024,282 1024,282 1025,282 1025,281 1025,280 1026,280 1026,279 1026,279 1026,279 1027,279 1027,279 1027,278 1028,278 1028,278 1028,278 1028,277 1029,277 1029,276 1029,276 1029,275 1030,275 1030,274 1030,274 1030,274 1031,274 1031,273 1031,273 1031,272 1032,272 1032,271 1032,271 1033,271 1033,271 1033,270 1034,270 1034,269 1034,269 1034,269 1035,269 1035,269 1035,269 1035,269 1036,269 1036,268 1036,268 1036,268 1037,268 1037,268 1037,267 1038,267 1038,266 1038,266 1038,266 1039,266 1039,265 1039,265 1039,264 1040,264 1040,264 1040,264 1040,264 1041,264 1041,263 1041,263 1041,262 1042,261 1042,261 1042,261 1043,261 1043,261 1043,261 1043,260 1044,260 1044,260 1044,260 1044,260 1045,260 1045,259 1045,259 1045,258 1046,258 1046,258 1046,258 1046,257 1047,257 1047,257 1047,257 1047,257 1048,256 1048,256 1049,256 1049,255 1049,255 1049,255 1050,255 1050,254 1050,254 1050,254 1051,254 1051,253 1051,253 1051,252 1052,252 1052,251 1052,251 1052,251 1053,251 1053,251 1053,249 1054,249 1054,249 1054,249 1054,248 1055,248 1055,247 1055,247 1055,247 1056,247 1056,246 1056,245 1057,245 1057,245 1057,245 1057,244 1058,244 1058,243 1058,243 1058,243 1059,243 1059,242 1059,242 1059,241 1060,241 1060,241 1060,241 1060,240 1061,240 1061,240 1061,240 1061,239 1062,239 1062,239 1062,239 1062,238 1063,238 1063,237 1063,237 1063,237 1064,237 1064,236 1064,236 1064,235 1065,235 1065,234 1065,234 1065,234 1066,233 1066,233 1066,233 1067,233 1067,232 1067,232 1067,230 1068,230 1068,229 1068,229 1068,229 1069,229 1069,228 1069,228 1069,227 1070,227 1070,227 1070,227 1070,227 1071,226 1071,226 1071,225 1072,225 1072,224 1072,224 1072,223 1073,223 1073,223 1073,223 1073,222 1074,222 1074,221 1075,221 1075,221 1075,220 1076,220 1076,220 1076,220 1076,218 1077,218 1077,217 1077,217 1077,217 1078,217 1078,217 1078,217 1078,216 1079,216 1079,215 1079,215 1079,215 1080,215 1080,214 1080,214 1080,213 1081,213 1081,213 1081,213 1082,213 1082,212 1082,212 1082,211 1083,211 1083,211 1083,211 1083,210 1084,210 1084,210 1084,210 1084,209 1085,209 1085,209 1085,209 1085,208 1086,208 1086,207 1086,207 1086,207 1087,207 1087,206 1087,206 1087,199 1088,199 1088,199 1088,199 1088,198 1089,198 1089,198 1089,198 1090,198 1090,197 1090,197 1090,196 1091,196 1091,196 1091,196 1091,195 1092,195 1092,194 1092,194 1092,193 1093,193 1093,193 1093,193 1094,193 1094,193 1094,193 1094,192 1095,192 1095,191 1095,191 1095,191 1096,191 1096,190 1096,190 1096,190 1097,190 1097,189 1097,189 1097,188 1098,188 1098,187 1098,187 1098,187 1099,187 1099,187 1099,187 1099,186 1100,186 1100,185 1100,185 1100,185 1101,185 1101,184 1101,184 1101,184 1102,184 1102,183 1102,183 1103,183 1103,182 1103,182 1103,182 1104,182 1104,181 1104,181 1104,181 1105,181 1105,181 1105,181 1105,180 1106,180 1106,180 1106,180 1106,179 1107,179 1107,179 1107,179 1107,178 1108,178 1108,178 1108,178 1108,177 1109,177 1109,177 1109,177 1109,176 1110,176 1110,176 1110,176 1110,176 1111,176 1111,175 1111,175 1111,175 1112,175 1112,174 1112,174 1112,174 1113,174 1113,173 1113,173 1113,172 1114,172 1114,171 1114,171 1114,169 1115,169 1115,169 1115,169 1115,168 1116,168 1116,167 1116,166 1117,166 1117,165 1117,165 1117,164 1118,164 1118,164 1118,163 1119,163 1119,162 1119,162 1119,162 1120,162 1120,161 1120,161 1120,160 1121,160 1121,160 1121,160 1121,159 1122,159 1122,159 1122,159 1122,157 1123,157 1123,157 1123,156 1124,156 1124,156 1124,156 1124,155 1125,155 1125,154 1125,154 1125,154 1126,154 1126,153 1126,153 1126,153 1127,153 1127,152 1127,152 1127,152 1128,152 1128,150 1128,150 1128,149 1129,149 1129,148 1129,148 1129,147 1130,147 1130,147 1130,147 1130,146 1131,146 1131,146 1131,146 1131,146 1132,146 1132,145 1132,145 1132,145 1133,144 1133,144 1133,144 1133,144 1134,144 1134,143 1134,143 1134,142 1135,142 1135,142 1135,142 1135,142 1136,142 1136,141 1136,141 1136,141 1137,141 1137,141 1137,141 1137,140 1138,140 1138,139 1138,139 1138,139 1139,139 1139,138 1139,138 1139,138 1140,138 1140,137 1140,137 1140,136 1141,136 1141,136 1141,136 1141,135 1142,135 1142,134 1142,134 1142,133 1143,133 1143,133 1143,133 1143,133 1144,133 1144,132 1144,132 1144,132 1145,132 1145,132 1145,132 1145,131 1146,131 1146,131 1146,131 1146,130 1147,129 1147,129 1147,129 1148,129 1148,129 1148,129 1148,128 1149,128 1149,128 1149,128 1149,127 1150,127 1150,127 1150,127 1150,126 1151,126 1151,126 1151,126 1151,125 1152,125 1152,125 1152,125 1152,125 1153,125 1153,124 1153,124 1153,123 1154,123 1154,123 1154,123 1154,122 1155,122 1155,121 1155,121 1155,121 1156,121 1156,120 1156,120 1156,120 1157,120 1157,120 1157,119 1158,119 1158,118 1158,118 1158,118 1159,118 1159,117 1159,117 1160,117 1160,116 1160,116 1160,116 1161,116 1161,116 1161,116 1161,115 1162,115 1162,115 1162,115 1162,115 1163,115 1163,114 1163,114 1163,113 1164,113 1164,113 1164,113 1164,113 1165,113 1165,112 1165,112 1165,112 1166,112 1166,112 1166,112 1166,111 1167,111 1167,110 1167,110 1167,110 1168,110 1168,109 1168,109 1168,109 1169,109 1169,109 1169,109 1169,108 1170,108 1170,107 1170,107 1170,106 1171,106 1171,106 1171,106 1171,106 1172,106 1172,105 1172,105 1172,105 1173,105 1173,104 1173,104 1173,103 1174,103 1174,102 1174,102 1174,101 1175,101 1175,100 1175,100 1175,99 1176,99 1176,97 1176,97 1176,97 1177,97 1177,96 1177,96 1178,96 1178,95 1178,95 1178,94 1179,94 1179,94 1179,94 1179,90 1180,90 1180,90 1180,90 1180,89 1181,89 1181,88 1181,88 1181,88 1182,88 1182,87 1182,87 1182,86 1183,86 1183,86 1183,86 1183,85 1184,85 1184,84 1184,84 1184,83 1185,83 1185,82 1185,81 1185,80 1186,80 1186,79 1186,79 1186,79 1187,79 1187,78 1187,78 1187,77 1188,77 1188,77 1188,77 1188,76 1189,76 1189,75 1189,75 1189,75 1190,75 "/>
<polyline fill="none" opacity="1" stroke="#19E66B" stroke-width="2" points="60,738 60,738 61,738 68,738 74,738 74,738 80,737 83,737 87,737 91,737 92,736 93,736 94,736 97,736 101,736 106,736 107,735 114,735 116,735 117,735 121,735 132,735 135,735 137,734 137,734 139,734 140,734 143,734 144,734 144,734 145,734 147,734 148,734 149,734 149,734 150,734 150,734 151,734 151,734 152,734 153,733 153,733 154,733 154,733 155,733 155,733 156,733 156,733 157,733 157,733 158,733 158,733 159,733 159,733 160,733 161,733 162,733 162,733 163,733 163,733 164,733 164,733 165,732 166,732 166,732 167,732 167,732 168,732 169,732 169,732 170,732 170,732 171,732 172,732 172,731 173,731 173,731 174,731 174,731 175,731 175,731 176,731 176,731 177,731 179,731 180,731 180,731 181,731 182,731 183,731 183,731 184,731 184,731 185,731 186,731 187,731 188,731 188,731 189,731 189,731 190,731 191,731 191,730 192,730 194,730 194,730 195,730 195,730 196,730 196,730 197,730 198,730 198,730 199,730 199,730 200,730 201,730 201,730 202,730 202,730 203,730 204,730 204,730 205,730 205,730 206,730 206,730 207,730 208,730 208,730 210,729 211,729 211,729 212,729 213,729 213,729 214,729 214,729 215,728 215,728 216,728 216,728 217,728 217,728 218,728 218,728 220,728 220,728 221,728 221,728 222,728 222,728 223,728 223,728 224,728 224,728 225,728 226,728 226,728 227,728 227,728 228,728 229,728 229,728 230,728 230,728 231,728 231,728 232,728 233,728 233,728 234,728 234,728 235,728 236,728 237,728 238,728 238,728 239,727 239,727 240,727 241,727 241,727 242,727 243,727 243,727 244,727 244,726 245,726 245,726 246,726 246,726 247,726 247,726 248,726 249,726 249,726 250,726 251,726 251,726 252,726 252,726 253,726 253,726 254,726 254,725 255,725 255,725 256,725 256,725 257,725 258,725 258,725 259,725 259,725 260,725 260,725 261,725 261,725 262,725 262,725 263,725 263,725 264,725 264,725 265,725 265,725 266,725 266,725 267,725 267,725 268,725 268,725 269,725 269,725 270,725 270,725 271,725 271,725 272,725 272,725 273,725 273,725 274,724 274,724 275,724 275,724 276,724 276,724 277,724 277,724 278,724 278,724 279,724 279,724 280,724 280,724 281,724 281,724 282,723 282,723 283,723 283,723 284,723 284,723 285,723 285,723 286,723 287,723 287,723 288,723 288,723 289,723 290,723 290,722 291,722 291,722 292,722 292,722 293,722 293,722 294,722 294,722 295,722 295,722 296,722 296,722 297,722 297,722 298,722 298,722 299,722 299,722 300,722 300,722 301,722 301,722 302,721 302,721 303,721 303,721 304,721 304,721 305,721 305,721 306,721 306,721 307,721 307,721 308,721 308,721 309,721 309,721 310,721 310,721 311,721 311,721 312,721 312,721 313,721 313,721 314,721 314,721 315,721 315,721 316,721 316,721 317,720 318,720 319,720 319,720 320,720 320,720 321,720 321,720 322,720 322,720 323,720 323,720 324,720 324,720 325,720 325,720 326,720 326,720 327,720 327,720 328,720 328,719 329,719 329,719 330,719 330,719 331,719 331,719 332,719 332,719 333,719 333,719 334,719 334,719 335,719 336,719 337,719 337,719 338,719 338,719 339,719 339,719 340,719 340,719 341,718 341,718 342,718 342,718 343,718 343,718 344,718 344,718 345,718 345,718 346,718 346,718 347,718 347,718 348,718 348,718 349,718 349,718 350,718 350,718 351,718 351,718 352,718 352,718 353,718 353,718 354,718 354,718 355,718 355,718 356,718 356,718 357,718 357,718 358,718 358,718 359,718 359,718 360,718 360,718 361,718 361,718 362,718 362,717 363,717 363,717 364,717 364,717 365,717 365,717 366,717 366,717 367,717 367,717 368,717 368,717 369,717 369,717 370,717 370,717 371,717 371,717 372,717 372,717 373,717 373,717 374,717 374,717 375,717 375,717 376,717 376,717 377,717 377,717 378,716 378,716 379,716 379,716 380,716 380,716 381,716 381,716 382,716 382,716 383,716 383,716 384,716 384,716 385,716 385,716 386,716 386,716 387,716 387,716 388,716 388,716 389,716 389,716 390,716 390,716 391,715 391,715 392,715 392,715 393,715 393,715 394,715 394,715 395,715 395,715 396,715 396,715 397,715 397,715 398,715 398,715 399,715 400,715 400,715 401,715 401,715 402,715 402,715 403,715 403,715 404,715 404,715 405,715 405,715 406,715 406,715 407,715 407,715 408,715 408,715 409,715 409,715 410,715 410,715 411,715 411,714 412,714 412,714 413,714 413,714 414,714 414,714 415,714 415,714 416,714 416,714 417,714 417,714 418,714 418,714 419,714 419,714 420,714 420,714 421,714 421,714 422,714 422,714 423,714 423,714 424,714 424,714 425,714 425,714 426,714 426,714 427,714 427,714 428,714 428,714 429,713 429,713 430,713 430,713 431,713 431,713 432,713 432,713 433,713 433,713 434,713 434,713 435,713 435,713 436,713 436,713 437,713 437,713 438,713 438,713 439,713 439,713 440,712 441,712 441,712 442,712 442,712 443,712 443,712 444,712 444,712 445,712 445,712 446,712 446,712 447,712 447,712 448,711 448,711 449,711 449,711 450,711 450,711 451,711 451,711 452,711 452,711 453,711 453,711 454,711 454,711 455,711 455,711 456,711 456,711 457,711 457,711 458,711 458,711 459,711 459,711 460,711 460,711 461,711 461,711 462,711 462,711 463,711 463,711 464,711 464,711 465,711 465,711 466,711 466,711 467,710 467,710 468,710 468,710 469,710 469,710 470,710 470,710 471,710 471,710 472,710 472,710 473,710 473,710 474,710 474,710 475,710 475,710 476,710 476,710 477,710 477,710 478,710 478,710 479,710 479,710 480,710 480,710 481,710 481,710 482,710 482,710 483,710 483,710 484,710 484,710 485,710 485,710 486,710 486,710 487,710 487,710 488,710 488,710 489,710 489,710 490,710 490,710 491,710 491,710 492,710 492,710 493,710 493,710 494,710 494,710 495,710 495,710 496,710 496,710 497,710 497,710 498,710 498,710 499,710 499,710 500,710 500,710 501,710 501,710 502,710 502,710 503,710 503,710 504,710 504,710 505,710 505,710 506,710 506,710 507,710 507,710 508,710 508,710 509,709 509,710 510,710 510,710 511,710 511,709 512,709 512,709 513,709 513,709 514,709 514,709 515,709 515,709 516,709 516,709 517,709 517,709 518,709 518,709 519,709 519,709 520,709 520,709 521,709 521,709 522,709 522,709 523,709 523,709 524,709 524,709 525,709 525,709 526,708 526,708 527,708 527,708 528,708 528,708 529,708 529,708 530,708 530,708 531,708 531,708 532,708 532,708 533,708 533,708 534,708 534,708 535,708 535,708 536,708 536,708 537,708 537,708 538,708 538,708 539,708 539,708 540,708 540,708 541,708 541,708 542,708 542,708 543,708 543,708 544,708 544,708 545,708 545,708 546,708 546,708 547,708 547,708 548,708 548,708 549,708 549,708 550,708 550,708 551,708 551,708 552,708 552,708 553,708 553,708 554,708 554,708 555,708 555,708 556,708 556,708 557,708 557,708 558,708 558,708 559,708 559,708 560,708 560,708 561,708 561,708 562,708 562,708 563,708 563,708 564,708 564,708 565,708 565,708 566,708 566,708 567,708 567,708 568,707 568,707 569,707 569,707 570,707 570,707 571,707 571,707 572,707 572,707 573,707 573,707 574,707 574,707 575,707 575,707 576,707 576,707 577,707 577,707 578,707 578,707 579,707 579,707 580,707 580,707 581,707 581,707 582,707 582,707 583,707 583,707 584,707 584,707 585,707 585,707 586,707 586,707 587,707 587,707 588,707 588,707 589,707 589,707 590,707 590,707 591,707 591,707 592,707 592,707 593,707 593,707 594,707 594,707 595,707 595,707 596,707 596,707 597,707 597,707 598,707 598,707 599,707 599,707 600,707 600,707 601,707 601,707 602,707 602,707 603,707 603,707 604,707 604,707 605,707 605,707 606,707 607,707 607,707 608,707 608,706 609,706 609,706 610,706 610,706 611,706 611,706 612,707 612,707 613,707 613,706 614,706 614,706 615,706 615,706 616,706 616,706 617,706 617,706 618,706 618,706 619,706 619,706 620,706 620,706 621,706 621,706 622,706 622,706 623,706 623,706 624,706 624,706 625,706 625,706 625,706 626,706 626,706 627,706 627,706 628,706 628,706 629,706 629,706 630,706 630,705 631,705 631,705 632,705 632,705 633,705 633,705 634,705 634,705 635,705 635,705 636,705 636,705 637,705 637,705 638,705 638,705 639,705 639,705 640,705 640,705 641,705 641,705 642,705 642,705 643,705 643,705 644,705 644,705 645,705 645,705 646,705 646,705 647,705 647,705 648,705 648,705 649,705 649,705 650,705 650,705 651,705 651,705 652,705 652,705 653,705 653,705 654,705 654,705 655,705 655,705 656,705 656,705 657,705 657,705 658,705 658,705 659,705 659,705 660,705 660,705 661,705 661,705 662,705 662,704 663,704 663,704 664,704 664,704 665,704 665,704 666,704 666,704 667,704 667,704 668,704 668,704 669,704 669,704 670,704 670,704 671,704 671,704 672,704 672,704 673,704 673,704 674,704 674,704 675,704 675,704 676,704 676,704 677,704 677,704 678,704 678,704 679,704 679,704 680,704 680,704 681,704 681,704 682,704 682,704 683,704 683,704 684,704 684,704 685,704 685,704 686,704 686,704 687,704 687,704 688,704 688,704 689,704 689,704 690,704 690,704 691,704 691,704 692,704 692,704 693,704 693,704 694,704 694,704 695,704 695,704 696,704 696,704 697,704 697,704 698,704 698,704 699,704 699,704 700,704 700,704 701,704 701,704 702,704 702,704 703,704 703,704 704,704 704,704 705,704 705,704 706,704 706,704 707,704 707,704 708,703 708,703 709,703 709,703 710,703 710,703 711,703 711,703 712,703 712,703 713,703 713,703 714,703 714,703 715,703 715,703 716,703 716,703 717,703 717,703 718,703 718,703 719,703 719,703 720,703 720,703 721,703 721,703 722,703 722,703 723,703 723,703 724,703 724,703 725,703 725,703 726,702 726,702 727,702 727,703 728,703 728,703 729,703 729,702 730,702 730,702 731,702 731,702 732,702 732,702 733,702 733,702 734,702 734,702 735,702 735,702 736,702 736,702 737,702 737,702 738,702 738,702 739,702 739,702 740,702 740,702 741,702 741,702 742,702 742,702 743,702 743,702 744,702 744,702 745,702 745,702 746,702 746,702 747,702 747,702 748,702 748,702 749,702 749,702 750,702 750,702 751,702 751,702 752,702 752,702 753,702 753,702 754,702 754,702 755,702 755,702 756,702 756,702 757,702 757,702 758,702 758,702 759,702 759,702 760,702 760,702 761,702 761,702 761,702 762,702 762,702 763,702 763,702 764,702 764,701 765,701 765,701 766,701 766,701 767,701 767,701 768,701 768,701 769,701 769,701 770,701 770,701 771,701 771,701 772,701 772,701 773,701 773,701 774,701 774,701 775,701 775,701 776,701 776,701 777,701 777,700 778,700 778,700 779,700 779,700 780,700 780,700 781,700 781,700 782,700 782,700 783,700 783,700 784,700 784,700 785,700 785,700 786,700 786,700 787,700 787,700 788,700 788,700 789,700 789,699 790,699 790,699 791,699 791,699 792,699 792,699 793,699 793,699 794,699 794,699 795,699 795,699 796,699 796,699 797,699 797,699 798,699 798,699 799,699 799,699 800,699 800,699 801,699 801,699 802,699 802,699 803,699 803,699 804,699 804,699 805,699 805,699 806,699 806,699 807,699 807,699 808,699 808,699 809,699 809,699 810,699 810,699 811,699 811,699 812,699 812,699 813,699 813,699 814,699 814,699 815,699 815,699 816,699 816,699 817,698 817,698 818,698 818,698 819,698 819,698 820,698 820,698 821,698 821,698 822,698 822,698 823,698 823,698 824,698 824,698 825,698 825,698 826,698 826,698 827,698 827,698 828,698 828,698 829,698 829,698 830,698 830,698 831,698 831,698 832,698 832,698 833,698 833,698 834,698 834,698 835,698 835,698 836,698 836,698 837,698 837,698 838,698 838,698 839,698 839,698 840,698 840,698 841,698 841,698 842,698 842,698 843,698 843,698 844,698 844,698 845,698 845,698 846,698 846,698 847,698 847,698 848,698 848,698 849,698 849,698 850,698 850,698 851,698 851,698 852,698 852,698 853,698 853,698 854,698 854,698 855,698 855,698 856,698 856,698 857,698 857,698 858,698 858,698 859,698 859,698 860,698 860,698 861,697 861,697 862,697 862,697 863,697 863,697 864,697 864,697 865,697 865,697 866,697 866,697 867,697 867,697 868,697 868,697 869,697 869,697 870,697 870,697 871,697 871,697 872,697 872,697 873,697 873,697 874,697 874,697 875,697 875,697 876,697 876,697 877,697 877,697 878,697 878,697 879,697 879,697 880,697 880,697 881,697 881,697 882,697 882,697 883,697 883,697 884,697 884,697 885,697 885,697 886,697 886,697 887,697 887,697 888,697 888,697 889,697 889,697 890,697 890,697 891,697 891,697 892,697 892,697 893,697 893,697 894,697 894,697 895,697 895,697 896,697 896,697 897,697 897,697 898,697 898,697 899,697 899,697 900,697 900,697 901,697 901,697 902,697 902,697 903,697 903,697 904,697 904,697 905,697 905,697 906,697 906,697 907,697 907,697 907,697 908,697 908,697 909,697 909,697 910,697 910,697 911,697 911,697 912,697 912,697 913,697 913,697 914,697 914,697 915,697 915,697 916,697 916,697 917,697 917,697 918,697 918,697 919,697 919,697 920,697 920,697 921,697 921,697 922,697 922,697 923,697 923,697 924,697 924,697 925,697 925,697 926,697 926,697 927,697 927,697 928,697 928,697 929,697 929,697 930,697 930,697 931,697 931,697 932,697 932,697 933,697 933,697 934,697 934,697 935,697 935,697 936,697 936,697 937,697 937,697 938,697 938,697 939,697 939,697 940,697 940,697 941,697 941,697 942,697 942,697 943,697 943,697 944,697 944,697 945,697 945,697 946,697 946,697 947,697 947,697 948,697 948,697 949,697 949,697 950,697 950,697 951,697 951,697 952,697 952,697 953,697 953,697 954,697 954,697 954,696 955,696 955,696 956,696 956,696 957,696 957,697 958,697 958,697 959,697 959,697 960,697 960,697 961,697 961,697 962,697 962,697 963,697 963,697 964,697 964,697 965,697 965,697 966,697 966,697 967,697 967,697 968,697 968,697 969,697 969,697 970,697 970,697 971,697 971,697 972,697 972,697 973,697 973,697 974,697 974,697 975,697 975,697 976,697 976,697 977,697 977,697 978,697 978,697 979,697 979,697 980,697 980,697 981,697 981,697 982,697 982,697 983,697 983,697 984,697 984,697 985,697 985,697 986,697 986,697 987,697 987,697 988,697 988,697 989,697 989,697 990,697 990,697 991,697 991,697 992,697 992,697 993,697 993,697 994,697 994,697 995,697 995,697 996,697 996,697 997,697 997,697 998,697 998,697 999,697 999,697 1000,697 1000,697 1001,697 1001,697 1002,697 1002,697 1003,697 1003,697 1004,697 1004,697 1005,697 1005,697 1006,697 1006,697 1007,697 1007,697 1008,697 1008,697 1009,697 1009,697 1010,697 1010,697 1011,697 1011,696 1012,696 1012,696 1013,696 1013,696 1014,696 1014,696 1015,696 1015,696 1016,696 1016,696 1017,696 1017,696 1018,696 1018,696 1019,696 1019,696 1020,696 1020,696 1021,696 1021,696 1022,696 1022,696 1023,696 1023,696 1024,696 1024,696 1024,696 1025,696 1025,696 1025,696 1026,696 1026,697 1026,697 1026,697 1027,696 1027,696 1027,696 1028,696 1028,697 1028,697 1028,697 1029,697 1029,697 1029,697 1029,697 1030,697 1030,697 1030,697 1030,697 1031,697 1031,697 1031,697 1031,697 1032,697 1032,697 1032,697 1033,697 1033,697 1033,697 1034,697 1034,697 1034,697 1034,697 1035,697 1035,697 1035,697 1035,697 1036,697 1036,697 1036,697 1036,697 1037,697 1037,697 1037,697 1038,697 1038,697 1038,697 1038,697 1039,697 1039,697 1039,697 1039,697 1040,697 1040,697 1040,697 1040,697 1041,697 1041,697 1041,697 1041,697 1042,697 1042,697 1042,697 1043,697 1043,697 1043,697 1043,697 1044,697 1044,697 1044,697 1044,697 1045,697 1045,697 1045,697 1045,697 1046,697 1046,697 1046,697 1046,697 1047,697 1047,697 1047,697 1047,697 1048,697 1048,697 1049,697 1049,697 1049,697 1049,697 1050,697 1050,697 1050,697 1050,697 1051,697 1051,697 1051,697 1051,697 1052,697 1052,697 1052,697 1052,697 1053,697 1053,697 1053,696 1054,696 1054,696 1054,696 1054,696 1055,696 1055,696 1055,696 1055,696 1056,696 1056,696 1056,697 1057,697 1057,697 1057,697 1057,697 1058,697 1058,697 1058,697 1058,697 1059,697 1059,697 1059,697 1059,697 1060,697 1060,697 1060,697 1060,697 1061,697 1061,697 1061,697 1061,697 1062,697 1062,697 1062,697 1062,697 1063,697 1063,697 1063,697 1063,697 1064,697 1064,697 1064,697 1064,697 1065,697 1065,697 1065,697 1065,697 1066,697 1066,697 1066,697 1067,697 1067,697 1067,697 1067,697 1068,697 1068,697 1068,697 1068,697 1069,697 1069,697 1069,697 1069,697 1070,697 1070,697 1070,697 1070,697 1071,697 1071,697 1071,697 1072,697 1072,697 1072,697 1072,697 1073,697 1073,697 1073,697 1073,697 1074,697 1074,696 1075,696 1075,696 1075,696 1076,696 1076,696 1076,696 1076,696 1077,696 1077,696 1077,696 1077,696 1078,696 1078,696 1078,696 1078,696 1079,696 1079,696 1079,696 1079,696 1080,696 1080,696 1080,696 1080,696 1081,696 1081,696 1081,696 1082,696 1082,696 1082,696 1082,696 1083,696 1083,696 1083,696 1083,696 1084,696 1084,696 1084,696 1084,696 1085,696 1085,696 1085,696 1085,696 1086,696 1086,696 1086,696 1086,696 1087,696 1087,696 1087,696 1087,696 1088,696 1088,696 1088,696 1088,696 1089,696 1089,696 1089,696 1090,696 1090,696 1090,696 1090,696 1091,696 1091,696 1091,696 1091,696 1092,696 1092,696 1092,696 1092,696 1093,696 1093,696 1093,696 1094,696 1094,696 1094,696 1094,696 1095,696 1095,696 1095,696 1095,696 1096,696 1096,696 1096,696 1096,696 1097,696 1097,696 1097,696 1097,696 1098,696 1098,696 1098,696 1098,696 1099,696 1099,696 1099,696 1099,696 1100,696 1100,696 1100,696 1100,696 1101,696 1101,696 1101,696 1101,696 1102,696 1102,696 1102,696 1103,696 1103,696 1103,696 1103,696 1104,696 1104,696 1104,696 1104,696 1105,696 1105,696 1105,696 1105,696 1106,696 1106,696 1106,696 1106,696 1107,696 1107,696 1107,696 1107,696 1108,696 1108,696 1108,696 1108,696 1109,696 1109,696 1109,696 1109,696 1110,696 1110,696 1110,696 1110,696 1111,696 1111,696 1111,696 1111,696 1112,696 1112,696 1112,696 1112,696 1113,696 1113,696 1113,696 1113,696 1114,696 1114,696 1114,696 1114,696 1115,696 1115,696 1115,696 1115,696 1116,696 1116,696 1116,696 1117,696 1117,696 1117,696 1117,696 1118,696 1118,696 1118,696 1119,696 1119,696 1119,696 1119,696 1120,696 1120,696 1120,696 1120,696 1121,696 1121,696 1121,696 1121,696 1122,696 1122,696 1122,696 1122,696 1123,696 1123,696 1123,696 1124,696 1124,696 1124,696 1124,696 1125,696 1125,696 1125,696 1125,696 1126,696 1126,696 1126,696 1126,696 1127,696 1127,696 1127,696 1127,696 1128,696 1128,696 1128,696 1128,696 1129,696 1129,696 1129,696 1129,696 1130,696 1130,696 1130,696 1130,696 1131,696 1131,696 1131,696 1131,696 1132,696 1132,696 1132,696 1132,696 1133,696 1133,696 1133,696 1133,696 1134,696 1134,696 1134,696 1134,696 1135,696 1135,696 1135,696 1135,696 1136,696 1136,696 1136,696 1136,696 1137,696 1137,696 1137,696 1137,696 1138,696 1138,696 1138,696 1138,696 1139,696 1139,696 1139,696 1139,696 1140,696 1140,696 1140,696 1140,696 1141,696 1141,696 1141,696 1141,696 1142,696 1142,696 1142,696 1142,696 1143,696 1143,696 1143,696 1143,696 1144,696 1144,696 1144,696 1144,696 1145,696 1145,696 1145,696 1145,696 1146,696 1146,696 1146,696 1146,696 1147,696 1147,696 1147,696 1148,696 1148,696 1148,696 1148,696 1149,696 1149,696 1149,696 1149,696 1150,696 1150,696 1150,696 1150,696 1151,696 1151,696 1151,696 1151,696 1152,696 1152,696 1152,696 1152,696 1153,696 1153,696 1153,696 1153,696 1154,696 1154,696 1154,696 1154,696 1155,696 1155,696 1155,696 1155,696 1156,696 1156,696 1156,696 1156,696 1157,696 1157,696 1157,696 1158,696 1158,696 1158,696 1158,696 1159,696 1159,696 1159,696 1160,696 1160,696 1160,696 1160,696 1161,696 1161,696 1161,696 1161,696 1162,696 1162,696 1162,696 1162,696 1163,696 1163,696 1163,696 1163,696 1164,696 1164,696 1164,696 1164,696 1165,696 1165,696 1165,696 1165,696 1166,696 1166,696 1166,696 1166,696 1167,696 1167,696 1167,696 1167,696 1168,696 1168,696 1168,696 1168,696 1169,696 1169,696 1169,696 1169,696 1170,696 1170,696 1170,696 1170,696 1171,696 1171,696 1171,696 1171,696 1172,696 1172,696 1172,696 1172,696 1173,696 1173,696 1173,696 1173,696 1174,696 1174,696 1174,696 1174,696 1175,696 1175,696 1175,696 1175,696 1176,696 1176,696 1176,696 1176,696 1177,696 1177,696 1177,696 1178,696 1178,696 1178,696 1178,696 1179,696 1179,696 1179,696 1179,696 1180,696 1180,696 1180,696 1180,696 1181,696 1181,696 1181,696 1181,696 1182,696 1182,696 1182,696 1182,696 1183,696 1183,696 1183,696 1183,696 1184,696 1184,696 1184,696 1184,696 1185,696 1185,696 1185,696 1185,696 1186,696 1186,696 1186,696 1186,696 1187,696 1187,696 1187,696 1187,696 1188,696 1188,696 1188,696 1188,696 1189,696 1189,696 1189,696 1189,696 1190,696 "/>
<polyline fill="none" opacity="1" stroke="#196BE6" stroke-width="2" points="84,738 91,738 94,738 103,738 104,738 109,738 113,738 119,737 120,737 121,737 125,737 128,737 131,737 136,737 138,737 143,737 144,737 144,737 147,736 149,736 151,736 151,736 152,736 153,735 154,735 157,735 159,735 161,735 162,735 163,735 163,735 166,735 167,735 168,735 168,734 170,734 173,734 175,734 180,734 181,734 188,734 189,734 190,734 191,734 192,734 193,733 193,733 194,733 200,733 201,733 202,733 203,733 207,733 207,733 208,733 209,733 210,733 211,733 212,733 212,733 213,733 214,733 217,733 218,733 221,733 222,733 224,733 224,733 226,733 226,733 227,733 227,733 228,733 230,733 230,733 231,733 232,733 233,733 235,733 236,733 237,733 238,733 239,733 239,733 240,733 240,733 242,733 243,733 243,733 244,733 245,733 246,732 247,732 247,732 249,732 249,732 250,732 251,732 253,732 254,732 255,732 257,732 258,732 259,732 259,732 260,732 260,732 261,732 261,732 262,732 264,731 265,731 267,731 268,731 268,731 271,731 271,731 272,731 274,731 276,731 277,730 277,730 278,730 278,730 279,730 280,730 281,730 281,730 282,730 283,730 283,730 284,730 284,730 285,730 285,730 286,729 286,729 287,729 287,729 288,729 288,729 289,729 289,729 290,729 290,729 291,729 292,729 292,729 293,729 293,729 294,729 294,729 295,729 295,729 296,729 296,729 297,729 297,729 298,729 298,729 299,729 299,729 300,729 301,729 301,729 302,729 302,729 303,729 304,729 304,728 305,728 305,728 306,728 306,728 307,728 307,728 308,728 308,728 309,728 309,728 310,728 310,728 311,727 311,727 312,727 312,727 313,727 313,727 314,727 314,727 315,727 315,727 316,727 316,727 317,727 317,727 318,727 318,727 319,727 319,727 320,727 320,727 321,727 321,727 322,727 322,727 323,727 323,727 324,727 324,727 325,727 325,727 326,727 326,727 327,727 327,727 328,727 328,727 329,727 329,727 330,726 330,726 331,726 331,726 332,726 332,726 333,727 333,727 334,727 334,727 335,727 335,727 336,727 336,727 337,726 337,726 338,726 338,726 339,726 339,726 340,726 340,726 341,726 341,726 342,726 342,726 342,726 343,726 343,726 344,726 344,726 345,726 345,726 346,726 346,726 347,726 347,726 348,726 348,726 349,726 349,726 350,726 350,726 351,726 351,726 352,726 352,726 353,726 353,726 354,726 354,726 355,726 355,726 356,726 356,726 357,726 357,726 358,726 358,726 359,726 359,726 360,726 360,726 361,726 361,726 362,726 362,726 363,726 363,726 364,726 364,726 365,726 365,726 366,725 366,725 367,725 367,725 368,725 368,725 369,725 369,725 370,725 370,725 371,725 371,725 372,725 372,725 373,725 373,725 374,725 374,725 375,725 375,725 376,725 376,725 377,725 377,725 378,725 378,725 379,725 379,725 380,725 380,725 381,725 381,725 382,725 382,724 383,724 383,724 384,725 384,724 385,724 385,724 386,724 386,724 387,724 387,724 388,724 388,724 389,724 389,724 390,724 390,724 391,724 391,724 392,724 392,724 393,724 393,724 394,724 394,724 395,724 395,724 396,724 396,724 397,724 398,724 398,724 399,724 399,724 400,724 400,724 401,724 401,724 402,724 402,724 403,724 403,724 404,724 404,724 405,724 405,724 406,724 406,724 407,724 407,724 408,724 408,724 409,724 409,724 410,724 410,724 411,724 411,724 412,724 413,723 413,723 414,723 414,723 415,723 415,723 416,723 416,723 417,723 417,723 418,723 418,723 419,723 419,723 420,723 420,723 421,723 421,723 422,723 422,723 423,723 423,723 424,723 424,723 425,723 425,723 426,723 426,723 427,723 427,723 428,723 428,723 429,723 429,723 430,723 430,723 431,723 431,723 432,723 433,723 433,723 434,723 434,723 435,723 435,723 436,723 436,723 437,723 437,723 438,723 438,723 439,723 439,723 440,723 440,723 441,723 441,722 442,722 442,722 443,722 443,722 444,722 444,722 445,722 445,722 446,722 446,722 447,722 447,722 448,722 448,722 449,722 449,722 450,722 450,722 451,722 451,722 452,722 452,722 453,722 453,721 454,721 454,721 455,721 455,721 456,721 456,720 457,720 457,720 458,720 458,720 459,720 459,720 460,720 460,720 461,720 461,720 462,720 462,720 463,720 463,720 464,720 464,720 465,720 465,720 466,720 467,720 467,720 468,720 468,720 469,720 469,720 470,720 470,720 471,720 471,720 472,720 472,720 473,720 473,720 474,720 474,720 475,720 475,720 476,720 476,720 477,720 477,720 478,720 478,720 479,720 479,720 480,720 480,720 481,720 481,720 482,720 482,720 483,720 483,720 484,720 484,720 485,720 485,720 486,720 486,720 487,720 487,720 488,720 488,720 489,720 489,720 490,720 490,720 491,719 491,719 492,719 492,719 493,719 493,719 494,719 494,719 495,719 495,719 496,719 496,719 497,719 497,719 498,719 498,719 499,719 499,719 500,719 500,719 501,719 501,719 502,718 502,718 503,718 503,718 504,718 504,718 505,718 505,718 506,718 506,718 507,718 507,718 508,718 508,718 509,718 509,718 510,717 510,717 511,717 511,717 512,717 512,717 513,717 513,717 514,717 514,717 515,717 515,717 516,717 516,717 517,717 517,717 518,717 518,717 519,717 519,717 520,717 520,717 521,717 521,717 522,717 522,717 523,717 523,717 524,717 524,717 525,717 525,717 526,717 526,717 527,717 527,717 528,717 528,717 529,717 529,717 530,716 530,716 531,716 531,716 532,716 532,716 533,716 533,716 534,716 534,716 535,716 535,716 536,716 536,716 537,716 537,716 538,716 538,716 539,716 539,716 540,716 540,716 541,716 541,716 542,716 542,716 543,716 543,716 544,716 544,716 545,716 545,716 546,716 546,716 547,716 547,716 548,716 548,716 549,716 549,716 550,716 550,716 551,716 551,716 552,716 552,716 553,716 553,715 554,715 554,715 555,715 555,715 556,715 556,715 557,715 557,715 558,715 558,715 559,715 559,715 560,715 560,715 561,715 561,715 562,715 562,715 563,715 563,715 564,715 564,715 565,715 565,715 566,715 566,715 567,715 567,715 568,715 568,715 569,715 569,715 570,715 570,715 571,715 571,714 572,714 572,714 573,714 573,714 574,714 574,714 575,714 575,714 576,714 576,714 577,714 577,714 578,714 578,714 579,714 579,714 580,714 580,714 581,714 581,714 582,714 582,714 583,714 583,714 584,714 584,714 585,714 585,714 586,714 586,714 587,714 587,714 588,714 588,714 589,714 589,714 590,714 590,714 591,714 591,714 592,714 592,714 593,714 593,714 594,714 594,714 595,714 595,714 596,714 596,714 597,714 597,714 598,714 598,714 599,714 599,714 600,714 600,714 601,713 601,713 602,713 602,713 603,713 603,713 604,713 604,713 605,713 605,713 606,713 606,713 607,713 607,713 608,713 608,713 609,713 609,713 610,713 610,713 611,713 611,713 612,713 612,713 613,713 613,713 614,713 614,713 615,713 615,713 616,713 616,713 617,713 617,713 618,713 618,713 619,713 619,713 620,713 620,713 621,712 621,712 622,712 622,713 623,713 623,713 624,713 624,713 625,713 625,713 625,713 626,713 626,712 627,712 627,712 628,712 628,712 629,712 629,712 630,712 630,712 631,712 631,712 632,712 632,712 633,712 633,712 634,711 634,711 635,711 635,711 636,711 636,711 637,711 637,711 638,711 638,711 639,711 639,711 640,711 640,711 641,711 641,711 642,711 642,711 643,711 643,711 644,711 644,711 645,711 645,711 646,711 646,710 647,710 647,710 648,710 648,710 649,711 649,710 650,710 650,710 651,710 651,710 652,710 652,710 653,710 653,710 654,710 654,710 655,710 655,710 656,710 656,710 657,710 657,710 658,710 658,710 659,710 659,710 660,710 660,710 661,710 661,710 662,710 662,710 663,710 663,710 664,710 664,710 665,710 665,710 666,710 666,710 667,710 667,710 668,710 668,710 669,710 669,710 670,710 670,710 671,710 671,710 672,710 672,710 673,710 673,710 674,710 674,710 675,710 675,710 676,710 676,710 677,710 677,710 678,710 678,710 679,710 679,710 680,709 680,709 681,709 681,709 682,709 682,709 683,709 683,709 684,709 684,709 685,709 685,709 686,709 686,709 687,709 687,709 688,709 688,709 689,709 689,709 690,709 690,709 691,709 691,709 692,709 692,709 693,709 693,709 694,709 694,709 695,709 695,709 696,709 696,709 697,709 697,709 698,709 698,709 699,708 699,708 700,708 700,708 701,708 701,708 702,708 702,708 703,708 703,708 704,708 704,708 705,708 705,708 706,708 706,708 707,708 707,708 708,708 708,708 709,708 709,708 710,708 710,708 711,708 711,708 712,708 712,708 713,708 713,708 714,708 714,708 715,708 715,708 716,708 716,708 717,708 717,708 718,708 718,708 719,708 719,708 720,708 720,708 721,708 721,708 722,708 722,708 723,708 723,708 724,708 724,708 725,708 725,708 726,708 726,708 727,708 727,708 728,708 728,708 729,708 729,708 730,708 730,708 731,708 731,708 732,708 732,708 733,708 733,708 734,708 734,708 735,708 735,708 736,708 736,708 737,708 737,708 738,708 738,708 739,708 739,708 740,708 740,708 741,708 741,708 742,708 742,708 743,708 743,708 744,708 744,708 745,708 745,708 746,708 746,708 747,708 747,707 748,707 748,707 749,707 749,707 750,707 750,707 751,707 751,707 752,707 752,707 753,707 753,707 754,707 754,707 755,707 755,707 756,707 756,707 757,707 757,707 758,707 758,707 759,707 759,707 760,707 760,707 761,706 761,706 761,706 762,707 762,707 763,707 763,707 764,707 764,707 765,707 765,707 766,707 766,706 767,706 767,706 768,706 768,706 769,706 769,706 770,706 770,706 771,706 771,706 772,706 772,706 773,706 773,706 774,706 774,706 775,706 775,706 776,706 776,706 777,706 777,706 778,706 778,706 779,706 779,706 780,706 780,705 781,705 781,705 782,705 782,705 783,705 783,705 784,705 784,705 785,705 785,705 786,705 786,705 787,705 787,705 788,705 788,705 789,705 789,705 790,705 790,705 791,705 791,705 792,705 792,705 793,705 793,705 794,705 794,705 795,705 795,705 796,705 796,705 797,705 797,705 798,705 798,705 799,705 799,705 800,705 800,704 801,704 801,704 802,704 802,704 803,704 803,704 804,704 804,704 805,704 805,704 806,704 806,704 807,704 807,704 808,704 808,704 809,704 809,704 810,704 810,704 811,704 811,704 812,704 812,704 813,704 813,704 814,704 814,704 815,704 815,704 816,704 816,704 817,704 817,704 818,704 818,704 819,704 819,704 820,704 820,704 821,704 821,704 822,704 822,704 823,704 823,704 824,704 824,704 825,704 825,704 826,704 826,704 827,704 827,704 828,704 828,704 829,704 829,704 830,704 830,704 831,704 831,704 832,704 832,704 833,704 833,704 834,704 834,704 835,704 835,704 836,704 836,704 837,704 837,704 838,704 838,703 839,703 839,703 840,703 840,703 841,703 841,703 842,703 842,703 843,703 843,703 844,703 844,702 845,702 845,702 846,702 846,702 847,702 847,702 848,702 848,702 849,702 849,702 850,702 850,702 851,702 851,702 852,702 852,702 853,702 853,702 854,702 854,702 855,702 855,702 856,702 856,702 857,702 857,702 858,702 858,702 859,702 859,702 860,702 860,702 861,702 861,702 862,702 862,702 863,702 863,702 864,702 864,702 865,702 865,702 866,702 866,702 867,702 867,702 868,702 868,702 869,702 869,702 870,701 870,701 871,701 871,701 872,701 872,701 873,701 873,701 874,701 874,701 875,701 875,701 876,701 876,701 877,701 877,701 878,701 878,701 879,701 879,701 880,701 880,701 881,701 881,701 882,701 882,701 883,701 883,701 884,701 884,701 885,701 885,700 886,700 886,700 887,700 887,700 888,700 888,700 889,700 889,700 890,700 890,700 891,700 891,700 892,700 892,700 893,700 893,700 894,700 894,700 895,700 895,700 896,700 896,700 897,700 897,700 898,700 898,700 899,700 899,700 900,700 900,700 901,700 901,700 902,700 902,700 903,700 903,700 904,700 904,700 905,700 905,700 906,700 906,700 907,700 907,700 907,700 908,700 908,700 909,700 909,700 910,700 910,700 911,700 911,700 912,700 912,700 913,700 913,700 914,700 914,700 915,700 915,700 916,700 916,700 917,700 917,700 918,700 918,700 919,700 919,700 920,700 920,700 921,700 921,700 922,700 922,699 923,699 923,699 924,699 924,699 925,699 925,699 926,699 926,699 927,699 927,699 928,699 928,699 929,699 929,699 930,699 930,699 931,699 931,699 932,699 932,699 933,699 933,699 934,699 934,699 935,699 935,699 936,699 936,699 937,699 937,699 938,699 938,699 939,699 939,699 940,699 940,699 941,699 941,698 942,698 942,698 943,698 943,698 944,698 944,698 945,698 945,698 946,698 946,698 947,698 947,698 948,698 948,698 949,698 949,698 950,698 950,698 951,698 951,698 952,698 952,698 953,698 953,698 954,698 954,698 954,698 955,698 955,698 956,698 956,698 957,698 957,698 958,698 958,698 959,698 959,698 960,698 960,698 961,698 961,698 962,698 962,698 963,697 963,697 964,697 964,697 965,697 965,697 966,697 966,697 967,697 967,697 968,697 968,697 969,697 969,697 970,697 970,697 971,697 971,697 972,697 972,697 973,697 973,697 974,697 974,697 975,697 975,697 976,697 976,697 977,696 977,696 978,696 978,696 979,696 979,696 980,696 980,696 981,696 981,696 982,696 982,696 983,696 983,696 984,696 984,696 985,696 985,696 986,696 986,696 987,696 987,696 988,696 988,696 989,696 989,696 990,696 990,696 991,696 991,696 992,696 992,696 993,696 993,696 994,696 994,696 995,696 995,696 996,696 996,696 997,696 997,696 998,696 998,696 999,696 999,696 1000,696 1000,696 1001,696 1001,696 1002,696 1002,696 1003,696 1003,696 1004,696 1004,696 1005,696 1005,696 1006,696 1006,696 1007,696 1007,696 1008,696 1008,696 1009,696 1009,696 1010,696 1010,696 1011,696 1011,696 1012,696 1012,696 1013,696 1013,696 1014,696 1014,696 1015,696 1015,696 1016,696 1016,696 1017,696 1017,696 1018,696 1018,696 1019,696 1019,696 1020,696 1020,696 1021,696 1021,696 1022,696 1022,696 1023,696 1023,695 1024,695 1024,695 1024,695 1025,695 1025,695 1025,695 1026,695 1026,696 1026,696 1026,696 1027,696 1027,696 1027,696 1028,696 1028,696 1028,696 1028,696 1029,696 1029,696 1029,696 1029,696 1030,696 1030,696 1030,696 1030,695 1031,695 1031,695 1031,695 1031,695 1032,695 1032,695 1032,695 1033,695 1033,695 1033,695 1034,695 1034,695 1034,695 1034,695 1035,695 1035,695 1035,695 1035,695 1036,695 1036,695 1036,695 1036,695 1037,695 1037,695 1037,695 1038,695 1038,695 1038,695 1038,695 1039,695 1039,695 1039,695 1039,695 1040,695 1040,695 1040,695 1040,695 1041,695 1041,695 1041,695 1041,695 1042,695 1042,695 1042,695 1043,695 1043,695 1043,695 1043,695 1044,695 1044,695 1044,695 1044,695 1045,695 1045,695 1045,695 1045,695 1046,695 1046,695 1046,695 1046,695 1047,695 1047,695 1047,695 1047,694 1048,694 1048,694 1049,694 1049,694 1049,694 1049,694 1050,694 1050,694 1050,694 1050,694 1051,694 1051,694 1051,694 1051,694 1052,694 1052,694 1052,694 1052,694 1053,694 1053,694 1053,694 1054,694 1054,694 1054,694 1054,694 1055,694 1055,694 1055,694 1055,694 1056,694 1056,694 1056,694 1057,694 1057,694 1057,694 1057,694 1058,694 1058,694 1058,694 1058,694 1059,694 1059,694 1059,694 1059,694 1060,694 1060,694 1060,694 1060,694 1061,694 1061,694 1061,694 1061,694 1062,694 1062,694 1062,694 1062,694 1063,694 1063,694 1063,694 1063,694 1064,694 1064,694 1064,694 1064,694 1065,694 1065,694 1065,694 1065,694 1066,694 1066,694 1066,694 1067,694 1067,694 1067,694 1067,685 1068,685 1068,685 1068,685 1068,685 1069,685 1069,685 1069,685 1069,685 1070,685 1070,685 1070,685 1070,685 1071,685 1071,685 1071,685 1072,685 1072,684 1072,684 1072,684 1073,684 1073,684 1073,684 1073,684 1074,684 1074,684 1075,684 1075,684 1075,684 1076,684 1076,684 1076,684 1076,684 1077,684 1077,684 1077,684 1077,684 1078,684 1078,684 1078,684 1078,684 1079,684 1079,684 1079,684 1079,684 1080,684 1080,684 1080,684 1080,684 1081,684 1081,684 1081,684 1082,684 1082,684 1082,684 1082,684 1083,684 1083,684 1083,684 1083,684 1084,684 1084,684 1084,684 1084,684 1085,684 1085,684 1085,684 1085,684 1086,684 1086,684 1086,684 1086,684 1087,684 1087,684 1087,684 1087,684 1088,684 1088,684 1088,684 1088,684 1089,684 1089,684 1089,684 1090,684 1090,684 1090,684 1090,684 1091,684 1091,684 1091,684 1091,684 1092,684 1092,684 1092,684 1092,683 1093,683 1093,683 1093,683 1094,683 1094,683 1094,683 1094,683 1095,683 1095,683 1095,683 1095,683 1096,683 1096,683 1096,683 1096,683 1097,683 1097,683 1097,683 1097,683 1098,683 1098,683 1098,683 1098,683 1099,683 1099,683 1099,683 1099,683 1100,683 1100,683 1100,683 1100,683 1101,683 1101,683 1101,683 1101,683 1102,683 1102,683 1102,683 1103,683 1103,683 1103,683 1103,683 1104,683 1104,683 1104,683 1104,683 1105,683 1105,683 1105,683 1105,683 1106,683 1106,683 1106,683 1106,683 1107,683 1107,683 1107,683 1107,683 1108,683 1108,683 1108,683 1108,683 1109,683 1109,683 1109,683 1109,683 1110,683 1110,683 1110,683 1110,683 1111,683 1111,683 1111,683 1111,683 1112,683 1112,683 1112,683 1112,683 1113,683 1113,683 1113,683 1113,683 1114,683 1114,683 1114,683 1114,683 1115,683 1115,683 1115,683 1115,683 1116,683 1116,683 1116,683 1117,683 1117,683 1117,683 1117,683 1118,683 1118,683 1118,682 1119,682 1119,682 1119,682 1119,682 1120,682 1120,682 1120,682 1120,682 1121,682 1121,682 1121,682 1121,682 1122,682 1122,682 1122,682 1122,682 1123,682 1123,682 1123,682 1124,682 1124,682 1124,682 1124,682 1125,682 1125,682 1125,682 1125,682 1126,682 1126,682 1126,682 1126,682 1127,682 1127,682 1127,682 1127,682 1128,682 1128,682 1128,682 1128,682 1129,682 1129,682 1129,682 1129,682 1130,682 1130,682 1130,682 1130,682 1131,682 1131,682 1131,682 1131,682 1132,682 1132,682 1132,682 1132,682 1133,682 1133,682 1133,682 1133,682 1134,682 1134,682 1134,682 1134,682 1135,682 1135,682 1135,682 1135,682 1136,682 1136,682 1136,682 1136,682 1137,682 1137,682 1137,682 1137,682 1138,682 1138,682 1138,682 1138,682 1139,682 1139,682 1139,682 1139,682 1140,682 1140,682 1140,682 1140,682 1141,682 1141,682 1141,682 1141,682 1142,682 1142,682 1142,682 1142,682 1143,682 1143,682 1143,682 1143,682 1144,682 1144,682 1144,682 1144,682 1145,682 1145,682 1145,682 1145,682 1146,682 1146,682 1146,682 1146,682 1147,682 1147,682 1147,682 1148,682 1148,682 1148,682 1148,682 1149,682 1149,682 1149,682 1149,682 1150,682 1150,682 1150,682 1150,682 1151,682 1151,682 1151,682 1151,682 1152,682 1152,682 1152,682 1152,681 1153,681 1153,681 1153,681 1153,681 1154,681 1154,681 1154,681 1154,681 1155,681 1155,681 1155,681 1155,681 1156,681 1156,681 1156,681 1156,681 1157,681 1157,681 1157,681 1158,681 1158,681 1158,681 1158,681 1159,681 1159,681 1159,681 1160,681 1160,681 1160,681 1160,681 1161,681 1161,681 1161,681 1161,681 1162,681 1162,681 1162,681 1162,681 1163,681 1163,681 1163,681 1163,681 1164,681 1164,681 1164,681 1164,681 1165,681 1165,681 1165,681 1165,681 1166,681 1166,681 1166,681 1166,681 1167,681 1167,681 1167,681 1167,681 1168,681 1168,681 1168,681 1168,681 1169,681 1169,681 1169,681 1169,681 1170,681 1170,681 1170,681 1170,680 1171,680 1171,680 1171,680 1171,680 1172,680 1172,680 1172,680 1172,680 1173,680 1173,680 1173,680 1173,680 1174,680 1174,680 1174,680 1174,680 1175,680 1175,680 1175,680 1175,680 1176,680 1176,680 1176,680 1176,680 1177,680 1177,680 1177,680 1178,680 1178,680 1178,680 1178,680 1179,680 1179,680 1179,680 1179,683 1180,683 1180,683 1180,683 1180,683 1181,683 1181,683 1181,683 1181,683 1182,683 1182,683 1182,683 1182,683 1183,683 1183,683 1183,683 1183,683 1184,683 1184,683 1184,683 1184,683 1185,683 1185,683 1185,683 1185,683 1186,683 1186,683 1186,683 1186,683 1187,683 1187,683 1187,683 1187,683 1188,683 1188,683 1188,683 1188,683 1189,683 1189,683 1189,683 1189,683 1190,683 "/>
<polyline fill="none" opacity="1" stroke="#BD19E6" stroke-width="2" points="477,738 478,738 498,738 514,738 531,738 532,738 540,738 551,737 555,737 559,737 566,737 568,737 570,736 572,736 577,736 592,736 592,736 597,735 603,735 609,735 610,735 611,735 612,735 615,734 616,734 619,734 620,734 623,734 624,734 624,734 625,734 625,734 628,733 628,733 629,733 629,733 632,733 634,733 634,733 635,733 636,733 637,732 639,732 639,732 640,732 640,732 641,732 642,732 642,732 643,731 644,732 645,731 647,731 648,731 649,731 651,731 652,731 654,731 654,730 656,730 659,730 659,730 660,730 662,730 664,729 665,729 666,729 670,728 670,728 671,728 671,728 674,728 675,727 676,727 676,727 677,727 677,727 678,727 678,726 679,726 680,726 680,726 681,726 681,725 682,725 683,725 684,725 685,725 685,724 686,724 687,724 687,724 688,723 688,723 689,723 689,723 690,723 690,723 691,723 691,723 692,723 692,722 693,722 693,722 694,722 694,722 695,721 695,721 697,721 697,721 698,721 699,720 699,720 700,720 700,719 701,719 702,719 703,719 703,719 704,718 704,718 705,718 705,718 706,718 706,718 707,718 707,718 708,718 708,718 709,718 709,718 710,718 710,718 711,718 711,717 712,717 712,717 713,717 713,717 714,717 714,717 715,717 715,717 716,717 716,717 717,717 717,717 718,716 719,716 719,716 720,716 720,716 721,716 721,716 722,716 722,716 723,715 724,715 724,715 725,715 725,715 726,715 726,715 727,715 727,715 728,714 728,714 729,714 729,714 730,714 730,713 731,713 731,713 732,713 732,713 733,713 733,713 734,713 735,713 735,713 736,713 736,713 737,713 737,713 738,713 738,713 739,712 739,712 740,712 740,712 741,712 741,712 742,712 742,711 743,711 743,710 744,710 744,710 745,710 745,710 746,710 746,710 747,710 747,710 748,710 749,710 749,709 750,709 750,709 751,709 751,709 752,709 753,708 753,708 754,708 755,708 755,708 756,708 756,708 757,708 757,708 758,708 759,708 759,708 760,707 760,707 761,707 761,707 761,707 762,707 762,707 763,706 763,706 764,706 765,706 765,706 766,705 766,705 767,705 767,705 768,705 768,704 769,704 769,704 770,704 770,704 771,703 771,703 772,703 772,703 773,703 773,703 774,702 774,702 775,702 775,702 776,702 776,702 777,702 777,701 778,701 778,701 779,701 779,701 780,700 780,700 781,700 781,700 782,700 782,700 783,699 783,699 784,699 784,699 785,699 785,699 786,698 786,698 787,698 787,698 788,698 788,698 789,698 790,698 790,698 791,698 791,698 792,698 792,698 793,698 793,698 794,698 794,698 795,698 795,698 796,697 796,697 797,697 797,697 798,697 798,697 799,697 799,697 800,697 800,696 801,696 801,696 802,695 802,695 803,695 803,694 804,694 804,694 805,694 805,693 806,693 806,693 807,693 807,693 808,692 808,692 809,692 809,692 810,691 810,691 811,691 811,691 812,690 812,690 813,689 813,689 814,689 814,688 815,688 815,688 816,688 816,687 817,687 817,686 818,686 818,686 819,686 819,685 820,685 820,685 821,685 821,685 822,685 822,685 823,684 823,684 824,684 824,684 825,684 825,684 826,683 826,683 827,683 827,683 828,682 828,682 829,682 829,682 830,682 830,681 831,681 831,681 832,681 832,680 833,680 833,680 834,680 834,680 835,680 835,680 836,680 836,680 837,680 837,679 838,679 838,679 839,679 839,678 840,678 840,678 841,678 841,678 842,677 842,677 843,677 843,676 844,676 844,675 845,675 845,675 846,675 846,674 847,674 847,674 848,674 848,673 849,673 849,673 850,673 850,672 851,672 851,672 852,672 852,671 853,671 853,671 854,671 854,670 855,670 855,670 856,670 856,670 857,670 857,670 858,670 858,669 859,669 859,669 860,669 860,668 861,668 861,667 862,667 862,667 863,667 863,667 864,667 864,667 865,667 865,667 866,667 866,666 867,666 867,666 868,665 868,665 869,665 869,665 870,665 870,664 871,664 871,664 872,664 872,663 873,663 873,663 874,662 874,662 875,662 875,662 876,662 876,662 877,661 877,661 878,661 878,660 879,660 879,660 880,660 880,660 881,660 881,659 882,659 882,659 883,658 883,658 884,658 884,658 885,658 885,657 886,657 886,657 887,657 887,657 888,656 888,656 889,656 889,656 890,656 890,655 891,655 891,655 892,654 892,654 893,654 893,654 894,653 894,653 895,653 895,652 896,652 896,652 897,652 897,652 898,652 898,651 899,651 899,651 900,651 900,651 901,651 901,650 902,650 902,650 903,650 903,650 904,650 904,650 905,649 905,649 906,649 906,648 907,648 907,648 907,648 908,647 908,647 909,647 909,646 910,646 910,646 911,646 911,646 912,645 912,645 913,645 913,645 914,644 914,644 915,644 915,643 916,643 916,643 917,642 917,642 918,642 918,641 919,641 919,641 920,640 920,640 921,640 921,640 922,639 922,639 923,639 923,639 924,638 924,638 925,638 926,637 926,637 927,637 927,637 928,636 928,636 929,636 929,636 930,636 930,635 931,635 931,634 932,634 932,634 933,633 933,633 934,633 934,632 935,632 935,632 936,631 936,631 937,631 937,631 938,631 938,630 939,630 939,629 940,629 940,629 941,628 941,628 942,628 942,627 943,627 943,626 944,626 944,625 945,625 945,624 946,624 946,624 947,623 947,623 948,622 948,622 949,622 949,622 950,621 950,621 951,621 951,620 952,620 952,619 953,619 953,619 954,619 954,618 954,618 955,618 955,617 956,617 956,617 957,616 957,615 958,614 958,614 959,613 959,612 960,612 960,612 961,612 961,612 962,612 962,611 963,611 963,612 964,612 964,611 965,610 965,610 966,609 966,609 967,609 967,608 968,608 968,607 969,607 969,607 970,607 970,606 971,606 971,606 972,605 972,605 973,605 973,604 974,604 974,604 975,604 975,604 976,603 976,603 977,603 977,603 978,602 978,601 979,601 979,601 980,600 980,600 981,600 981,599 982,599 982,598 983,598 983,597 984,597 984,596 985,596 985,596 986,595 986,595 987,595 987,594 988,594 988,594 989,593 989,593 990,593 990,593 991,592 991,592 992,591 992,591 993,591 993,590 994,590 994,590 995,589 995,589 996,589 996,588 997,588 997,588 998,587 998,587 999,586 999,586 1000,585 1000,585 1001,585 1001,585 1002,585 1002,584 1003,584 1003,584 1004,583 1004,583 1005,582 1005,582 1006,582 1006,582 1007,582 1007,582 1008,581 1008,580 1009,580 1009,580 1010,579 1010,579 1011,578 1011,578 1012,577 1012,577 1013,577 1013,576 1014,576 1014,576 1015,576 1015,576 1016,575 1016,574 1017,574 1017,573 1018,572 1018,572 1019,572 1019,571 1020,571 1020,570 1021,570 1021,569 1022,569 1022,569 1023,568 1023,568 1024,568 1024,568 1024,568 1025,568 1025,567 1025,566 1026,566 1026,566 1026,566 1026,565 1027,565 1027,565 1027,565 1028,565 1028,565 1028,564 1028,564 1029,564 1029,564 1029,564 1029,563 1030,563 1030,563 1030,563 1030,563 1031,563 1031,562 1031,562 1031,562 1032,562 1032,562 1032,561 1033,561 1033,560 1033,560 1034,560 1034,560 1034,560 1034,559 1035,559 1035,559 1035,559 1035,559 1036,559 1036,558 1036,558 1036,558 1037,558 1037,558 1037,557 1038,557 1038,556 1038,556 1038,556 1039,556 1039,555 1039,555 1039,554 1040,554 1040,554 1040,554 1040,554 1041,554 1041,554 1041,554 1041,554 1042,553 1042,553 1042,552 1043,552 1043,552 1043,552 1043,551 1044,551 1044,551 1044,551 1044,551 1045,551 1045,550 1045,550 1045,549 1046,549 1046,549 1046,549 1046,549 1047,549 1047,549 1047,549 1047,548 1048,547 1048,547 1049,547 1049,547 1049,547 1049,545 1050,545 1050,545 1050,545 1050,546 1051,546 1051,545 1051,545 1051,545 1052,545 1052,544 1052,544 1052,544 1053,544 1053,543 1053,543 1054,543 1054,542 1054,542 1054,542 1055,542 1055,541 1055,541 1055,540 1056,540 1056,540 1056,539 1057,539 1057,539 1057,539 1057,538 1058,538 1058,538 1058,538 1058,537 1059,537 1059,537 1059,537 1059,537 1060,537 1060,536 1060,536 1060,535 1061,535 1061,535 1061,534 1062,534 1062,534 1062,534 1062,533 1063,533 1063,533 1063,533 1063,532 1064,532 1064,531 1064,531 1064,530 1065,530 1065,529 1065,529 1065,529 1066,528 1066,528 1066,528 1067,528 1067,527 1067,527 1067,527 1068,527 1068,527 1068,527 1068,527 1069,527 1069,527 1069,527 1069,526 1070,526 1070,525 1070,525 1070,525 1071,524 1071,524 1071,523 1072,523 1072,523 1072,523 1072,522 1073,522 1073,522 1073,522 1073,521 1074,520 1074,520 1075,520 1075,520 1075,520 1076,520 1076,519 1076,519 1076,519 1077,519 1077,519 1077,519 1077,518 1078,518 1078,518 1078,518 1078,518 1079,518 1079,518 1079,518 1079,518 1080,518 1080,517 1080,517 1080,517 1081,516 1081,516 1081,516 1082,516 1082,516 1082,516 1082,516 1083,516 1083,515 1083,515 1083,515 1084,515 1084,515 1084,515 1084,514 1085,514 1085,513 1085,513 1085,513 1086,513 1086,513 1086,513 1086,513 1087,513 1087,512 1087,512 1087,511 1088,511 1088,511 1088,511 1088,510 1089,510 1089,510 1089,510 1090,510 1090,510 1090,510 1090,510 1091,510 1091,510 1091,510 1091,510 1092,510 1092,509 1092,509 1092,508 1093,508 1093,508 1093,508 1094,508 1094,508 1094,508 1094,507 1095,507 1095,507 1095,507 1095,507 1096,507 1096,506 1096,506 1096,506 1097,506 1097,505 1097,505 1097,505 1098,505 1098,505 1098,505 1098,504 1099,504 1099,504 1099,504 1099,503 1100,503 1100,503 1100,503 1100,502 1101,502 1101,502 1101,502 1101,502 1102,502 1102,502 1102,501 1103,501 1103,501 1103,501 1103,500 1104,500 1104,500 1104,500 1104,499 1105,499 1105,499 1105,499 1105,498 1106,498 1106,498 1106,498 1106,497 1107,497 1107,497 1107,497 1107,497 1108,497 1108,496 1108,496 1108,496 1109,496 1109,496 1109,496 1109,495 1110,495 1110,495 1110,495 1110,494 1111,494 1111,493 1111,493 1111,493 1112,493 1112,493 1112,493 1112,492 1113,492 1113,491 1113,491 1113,491 1114,491 1114,490 1114,490 1114,488 1115,488 1115,487 1115,487 1115,487 1116,487 1116,487 1116,486 1117,486 1117,485 1117,485 1117,485 1118,485 1118,485 1118,484 1119,484 1119,484 1119,484 1119,483 1120,483 1120,483 1120,483 1120,483 1121,483 1121,482 1121,482 1121,482 1122,482 1122,481 1122,481 1122,481 1123,481 1123,481 1123,480 1124,480 1124,480 1124,480 1124,480 1125,480 1125,480 1125,480 1125,479 1126,479 1126,478 1126,478 1126,478 1127,478 1127,477 1127,477 1127,477 1128,477 1128,477 1128,477 1128,476 1129,476 1129,476 1129,476 1129,475 1130,475 1130,475 1130,475 1130,474 1131,474 1131,474 1131,474 1131,474 1132,474 1132,474 1132,474 1132,474 1133,474 1133,474 1133,474 1133,473 1134,473 1134,473 1134,473 1134,472 1135,472 1135,472 1135,472 1135,471 1136,471 1136,471 1136,471 1136,471 1137,471 1137,471 1137,471 1137,470 1138,470 1138,469 1138,469 1138,469 1139,469 1139,468 1139,468 1139,468 1140,468 1140,467 1140,467 1140,467 1141,467 1141,467 1141,467 1141,465 1142,465 1142,465 1142,465 1142,464 1143,464 1143,464 1143,464 1143,463 1144,463 1144,463 1144,463 1144,463 1145,463 1145,463 1145,463 1145,463 1146,463 1146,463 1146,463 1146,463 1147,462 1147,462 1147,461 1148,461 1148,461 1148,461 1148,461 1149,461 1149,460 1149,460 1149,460 1150,460 1150,460 1150,460 1150,459 1151,459 1151,459 1151,459 1151,459 1152,459 1152,458 1152,458 1152,458 1153,458 1153,458 1153,458 1153,458 1154,458 1154,458 1154,458 1154,457 1155,457 1155,457 1155,457 1155,456 1156,456 1156,456 1156,456 1156,455 1157,455 1157,455 1157,454 1158,454 1158,454 1158,454 1158,453 1159,453 1159,452 1159,452 1160,452 1160,451 1160,451 1160,451 1161,451 1161,451 1161,451 1161,450 1162,450 1162,450 1162,450 1162,449 1163,449 1163,449 1163,449 1163,449 1164,449 1164,449 1164,449 1164,448 1165,448 1165,448 1165,448 1165,447 1166,447 1166,447 1166,447 1166,446 1167,446 1167,446 1167,446 1167,446 1168,446 1168,445 1168,445 1168,445 1169,445 1169,445 1169,445 1169,444 1170,444 1170,444 1170,444 1170,443 1171,443 1171,443 1171,443 1171,443 1172,443 1172,443 1172,443 1172,442 1173,442 1173,442 1173,442 1173,441 1174,441 1174,441 1174,441 1174,440 1175,440 1175,440 1175,440 1175,440 1176,440 1176,439 1176,439 1176,439 1177,439 1177,438 1177,438 1178,438 1178,438 1178,438 1178,438 1179,438 1179,438 1179,438 1179,438 1180,438 1180,437 1180,437 1180,437 1181,437 1181,437 1181,437 1181,436 1182,436 1182,436 1182,436 1182,436 1183,436 1183,435 1183,435 1183,435 1184,435 1184,434 1184,434 1184,434 1185,434 1185,434 1185,434 1185,433 1186,433 1186,433 1186,432 1186,432 1187,432 1187,431 1187,431 1187,431 1188,431 1188,430 1188,430 1188,429 1189,429 1189,428 1189,428 1189,428 1190,428 "/>
<rect x="65" y="329" width="97" height="91" opacity="1" fill="#FFFFFF" stroke="none"/>
<rect x="65" y="329" width="97" height="91" opacity="1" fill="none" stroke="#000000"/>
<text x="105" y="339" dy="0.76em" text-anchor="start" font-family="sans-serif" font-size="9.67741935483871" opacity="1" fill="#000000">
argparse
</text>
<text x="105" y="354" dy="0.76em" text-anchor="start" font-family="sans-serif" font-size="9.67741935483871" opacity="1" fill="#000000">
clap
</text>
<text x="105" y="369" dy="0.76em" text-anchor="start" font-family="sans-serif" font-size="9.67741935483871" opacity="1" fill="#000000">
docopt
</text>
<text x="105" y="384" dy="0.76em" text-anchor="start" font-family="sans-serif" font-size="9.67741935483871" opacity="1" fill="#000000">
getopts
</text>
<text x="105" y="399" dy="0.76em" text-anchor="start" font-family="sans-serif" font-size="9.67741935483871" opacity="1" fill="#000000">
structopt
</text>
<polyline fill="none" opacity="1" stroke="#E61919" stroke-width="2" points="75,343 95,343 "/>
<polyline fill="none" opacity="1" stroke="#BDE619" stroke-width="2" points="75,359 95,359 "/>
<polyline fill="none" opacity="1" stroke="#19E66B" stroke-width="2" points="75,374 95,374 "/>
<polyline fill="none" opacity="1" stroke="#196BE6" stroke-width="2" points="75,389 95,389 "/>
<polyline fill="none" opacity="1" stroke="#BD19E6" stroke-width="2" points="75,404 95,404 "/>
</svg>
