<svg width="1200" height="800" xmlns="http://www.w3.org/2000/svg">
<rect x="0" y="0" width="1199" height="799" opacity="1" fill="#FFFFFF" stroke="none"/>
<line opacity="0.1" stroke="#000000" stroke-width="1" x1="60" y1="730" x2="1190" y2="730"/>
<line opacity="0.1" stroke="#000000" stroke-width="1" x1="60" y1="722" x2="1190" y2="722"/>
<line opacity="0.1" stroke="#000000" stroke-width="1" x1="60" y1="713" x2="1190" y2="713"/>
<line opacity="0.1" stroke="#000000" stroke-width="1" x1="60" y1="705" x2="1190" y2="705"/>
<line opacity="0.1" stroke="#000000" stroke-width="1" x1="60" y1="696" x2="1190" y2="696"/>
<line opacity="0.1" stroke="#000000" stroke-width="1" x1="60" y1="688" x2="1190" y2="688"/>
<line opacity="0.1" stroke="#000000" stroke-width="1" x1="60" y1="679" x2="1190" y2="679"/>
<line opacity="0.1" stroke="#000000" stroke-width="1" x1="60" y1="671" x2="1190" y2="671"/>
<line opacity="0.1" stroke="#000000" stroke-width="1" x1="60" y1="662" x2="1190" y2="662"/>
<line opacity="0.1" stroke="#000000" stroke-width="1" x1="60" y1="653" x2="1190" y2="653"/>
<line opacity="0.1" stroke="#000000" stroke-width="1" x1="60" y1="645" x2="1190" y2="645"/>
<line opacity="0.1" stroke="#000000" stroke-width="1" x1="60" y1="636" x2="1190" y2="636"/>
<line opacity="0.1" stroke="#000000" stroke-width="1" x1="60" y1="628" x2="1190" y2="628"/>
<line opacity="0.1" stroke="#000000" stroke-width="1" x1="60" y1="619" x2="1190" y2="619"/>
<line opacity="0.1" stroke="#000000" stroke-width="1" x1="60" y1="611" x2="1190" y2="611"/>
<line opacity="0.1" stroke="#000000" stroke-width="1" x1="60" y1="602" x2="1190" y2="602"/>
<line opacity="0.1" stroke="#000000" stroke-width="1" x1="60" y1="594" x2="1190" y2="594"/>
<line opacity="0.1" stroke="#000000" stroke-width="1" x1="60" y1="585" x2="1190" y2="585"/>
<line opacity="0.1" stroke="#000000" stroke-width="1" x1="60" y1="577" x2="1190" y2="577"/>
<line opacity="0.1" stroke="#000000" stroke-width="1" x1="60" y1="568" x2="1190" y2="568"/>
<line opacity="0.1" stroke="#000000" stroke-width="1" x1="60" y1="560" x2="1190" y2="560"/>
<line opacity="0.1" stroke="#000000" stroke-width="1" x1="60" y1="551" x2="1190" y2="551"/>
<line opacity="0.1" stroke="#000000" stroke-width="1" x1="60" y1="543" x2="1190" y2="543"/>
<line opacity="0.1" stroke="#000000" stroke-width="1" x1="60" y1="534" x2="1190" y2="534"/>
<line opacity="0.1" stroke="#000000" stroke-width="1" x1="60" y1="526" x2="1190" y2="526"/>
<line opacity="0.1" stroke="#000000" stroke-width="1" x1="60" y1="517" x2="1190" y2="517"/>
<line opacity="0.1" stroke="#000000" stroke-width="1" x1="60" y1="509" x2="1190" y2="509"/>
<line opacity="0.1" stroke="#000000" stroke-width="1" x1="60" y1="500" x2="1190" y2="500"/>
<line opacity="0.1" stroke="#000000" stroke-width="1" x1="60" y1="492" x2="1190" y2="492"/>
<line opacity="0.1" stroke="#000000" stroke-width="1" x1="60" y1="483" x2="1190" y2="483"/>
<line opacity="0.1" stroke="#000000" stroke-width="1" x1="60" y1="475" x2="1190" y2="475"/>
<line opacity="0.1" stroke="#000000" stroke-width="1" x1="60" y1="466" x2="1190" y2="466"/>
<line opacity="0.1" stroke="#000000" stroke-width="1" x1="60" y1="458" x2="1190" y2="458"/>
<line opacity="0.1" stroke="#000000" stroke-width="1" x1="60" y1="449" x2="1190" y2="449"/>
<line opacity="0.1" stroke="#000000" stroke-width="1" x1="60" y1="441" x2="1190" y2="441"/>
<line opacity="0.1" stroke="#000000" stroke-width="1" x1="60" y1="432" x2="1190" y2="432"/>
<line opacity="0.1" stroke="#000000" stroke-width="1" x1="60" y1="423" x2="1190" y2="423"/>
<line opacity="0.1" stroke="#000000" stroke-width="1" x1="60" y1="415" x2="1190" y2="415"/>
<line opacity="0.1" stroke="#000000" stroke-width="1" x1="60" y1="406" x2="1190" y2="406"/>
<line opacity="0.1" stroke="#000000" stroke-width="1" x1="60" y1="398" x2="1190" y2="398"/>
<line opacity="0.1" stroke="#000000" stroke-width="1" x1="60" y1="389" x2="1190" y2="389"/>
<line opacity="0.1" stroke="#000000" stroke-width="1" x1="60" y1="381" x2="1190" y2="381"/>
<line opacity="0.1" stroke="#000000" stroke-width="1" x1="60" y1="372" x2="1190" y2="372"/>
<line opacity="0.1" stroke="#000000" stroke-width="1" x1="60" y1="364" x2="1190" y2="364"/>
<line opacity="0.1" stroke="#000000" stroke-width="1" x1="60" y1="355" x2="1190" y2="355"/>
<line opacity="0.1" stroke="#000000" stroke-width="1" x1="60" y1="347" x2="1190" y2="347"/>
<line opacity="0.1" stroke="#000000" stroke-width="1" x1="60" y1="338" x2="1190" y2="338"/>
<line opacity="0.1" stroke="#000000" stroke-width="1" x1="60" y1="330" x2="1190" y2="330"/>
<line opacity="0.1" stroke="#000000" stroke-width="1" x1="60" y1="321" x2="1190" y2="321"/>
<line opacity="0.1" stroke="#000000" stroke-width="1" x1="60" y1="313" x2="1190" y2="313"/>
<line opacity="0.1" stroke="#000000" stroke-width="1" x1="60" y1="304" x2="1190" y2="304"/>
<line opacity="0.1" stroke="#000000" stroke-width="1" x1="60" y1="296" x2="1190" y2="296"/>
<line opacity="0.1" stroke="#000000" stroke-width="1" x1="60" y1="287" x2="1190" y2="287"/>
<line opacity="0.1" stroke="#000000" stroke-width="1" x1="60" y1="279" x2="1190" y2="279"/>
<line opacity="0.1" stroke="#000000" stroke-width="1" x1="60" y1="270" x2="1190" y2="270"/>
<line opacity="0.1" stroke="#000000" stroke-width="1" x1="60" y1="262" x2="1190" y2="262"/>
<line opacity="0.1" stroke="#000000" stroke-width="1" x1="60" y1="253" x2="1190" y2="253"/>
<line opacity="0.1" stroke="#000000" stroke-width="1" x1="60" y1="245" x2="1190" y2="245"/>
<line opacity="0.1" stroke="#000000" stroke-width="1" x1="60" y1="236" x2="1190" y2="236"/>
<line opacity="0.1" stroke="#000000" stroke-width="1" x1="60" y1="228" x2="1190" y2="228"/>
<line opacity="0.1" stroke="#000000" stroke-width="1" x1="60" y1="219" x2="1190" y2="219"/>
<line opacity="0.1" stroke="#000000" stroke-width="1" x1="60" y1="210" x2="1190" y2="210"/>
<line opacity="0.1" stroke="#000000" stroke-width="1" x1="60" y1="202" x2="1190" y2="202"/>
<line opacity="0.1" stroke="#000000" stroke-width="1" x1="60" y1="193" x2="1190" y2="193"/>
<line opacity="0.1" stroke="#000000" stroke-width="1" x1="60" y1="185" x2="1190" y2="185"/>
<line opacity="0.1" stroke="#000000" stroke-width="1" x1="60" y1="176" x2="1190" y2="176"/>
<line opacity="0.1" stroke="#000000" stroke-width="1" x1="60" y1="168" x2="1190" y2="168"/>
<line opacity="0.1" stroke="#000000" stroke-width="1" x1="60" y1="159" x2="1190" y2="159"/>
<line opacity="0.1" stroke="#000000" stroke-width="1" x1="60" y1="151" x2="1190" y2="151"/>
<line opacity="0.1" stroke="#000000" stroke-width="1" x1="60" y1="142" x2="1190" y2="142"/>
<line opacity="0.1" stroke="#000000" stroke-width="1" x1="60" y1="134" x2="1190" y2="134"/>
<line opacity="0.1" stroke="#000000" stroke-width="1" x1="60" y1="125" x2="1190" y2="125"/>
<line opacity="0.1" stroke="#000000" stroke-width="1" x1="60" y1="117" x2="1190" y2="117"/>
<line opacity="0.1" stroke="#000000" stroke-width="1" x1="60" y1="108" x2="1190" y2="108"/>
<line opacity="0.1" stroke="#000000" stroke-width="1" x1="60" y1="100" x2="1190" y2="100"/>
<line opacity="0.1" stroke="#000000" stroke-width="1" x1="60" y1="91" x2="1190" y2="91"/>
<line opacity="0.1" stroke="#000000" stroke-width="1" x1="60" y1="83" x2="1190" y2="83"/>
<line opacity="0.1" stroke="#000000" stroke-width="1" x1="60" y1="74" x2="1190" y2="74"/>
<line opacity="0.1" stroke="#000000" stroke-width="1" x1="60" y1="66" x2="1190" y2="66"/>
<line opacity="0.1" stroke="#000000" stroke-width="1" x1="60" y1="57" x2="1190" y2="57"/>
<line opacity="0.1" stroke="#000000" stroke-width="1" x1="60" y1="49" x2="1190" y2="49"/>
<line opacity="0.1" stroke="#000000" stroke-width="1" x1="60" y1="40" x2="1190" y2="40"/>
<line opacity="0.1" stroke="#000000" stroke-width="1" x1="60" y1="32" x2="1190" y2="32"/>
<line opacity="0.1" stroke="#000000" stroke-width="1" x1="60" y1="23" x2="1190" y2="23"/>
<line opacity="0.1" stroke="#000000" stroke-width="1" x1="60" y1="15" x2="1190" y2="15"/>
<text x="10" y="375" dy="0.76em" text-anchor="middle" font-family="sans-serif" font-size="9.67741935483871" opacity="1" fill="#000000" transform="rotate(270, 10, 375)">
Number of dependent crates
</text>
<line opacity="0.2" stroke="#000000" stroke-width="1" x1="60" y1="653" x2="1190" y2="653"/>
<line opacity="0.2" stroke="#000000" stroke-width="1" x1="60" y1="568" x2="1190" y2="568"/>
<line opacity="0.2" stroke="#000000" stroke-width="1" x1="60" y1="483" x2="1190" y2="483"/>
<line opacity="0.2" stroke="#000000" stroke-width="1" x1="60" y1="398" x2="1190" y2="398"/>
<line opacity="0.2" stroke="#000000" stroke-width="1" x1="60" y1="313" x2="1190" y2="313"/>
<line opacity="0.2" stroke="#000000" stroke-width="1" x1="60" y1="228" x2="1190" y2="228"/>
<line opacity="0.2" stroke="#000000" stroke-width="1" x1="60" y1="142" x2="1190" y2="142"/>
<line opacity="0.2" stroke="#000000" stroke-width="1" x1="60" y1="57" x2="1190" y2="57"/>
<polyline fill="none" opacity="1" stroke="#000000" stroke-width="1" points="59,10 59,740 "/>
<text x="50" y="653" dy="0.5ex" text-anchor="end" font-family="sans-serif" font-size="9.67741935483871" opacity="1" fill="#000000">
500
</text>
<polyline fill="none" opacity="1" stroke="#000000" stroke-width="1" points="54,653 59,653 "/>
<text x="50" y="568" dy="0.5ex" text-anchor="end" font-family="sans-serif" font-size="9.67741935483871" opacity="1" fill="#000000">
1000
</text>
<polyline fill="none" opacity="1" stroke="#000000" stroke-width="1" points="54,568 59,568 "/>
<text x="50" y="483" dy="0.5ex" text-anchor="end" font-family="sans-serif" font-size="9.67741935483871" opacity="1" fill="#000000">
1500
</text>
<polyline fill="none" opacity="1" stroke="#000000" stroke-width="1" points="54,483 59,483 "/>
<text x="50" y="398" dy="0.5ex" text-anchor="end" font-family="sans-serif" font-size="9.67741935483871" opacity="1" fill="#000000">
2000
</text>
<polyline fill="none" opacity="1" stroke="#000000" stroke-width="1" points="54,398 59,398 "/>
<text x="50" y="313" dy="0.5ex" text-anchor="end" font-family="sans-serif" font-size="9.67741935483871" opacity="1" fill="#000000">
2500
</text>
<polyline fill="none" opacity="1" stroke="#000000" stroke-width="1" points="54,313 59,313 "/>
<text x="50" y="228" dy="0.5ex" text-anchor="end" font-family="sans-serif" font-size="9.67741935483871" opacity="1" fill="#000000">
3000
</text>
<polyline fill="none" opacity="1" stroke="#000000" stroke-width="1" points="54,228 59,228 "/>
<text x="50" y="142" dy="0.5ex" text-anchor="end" font-family="sans-serif" font-size="9.67741935483871" opacity="1" fill="#000000">
3500
</text>
<polyline fill="none" opacity="1" stroke="#000000" stroke-width="1" points="54,142 59,142 "/>
<text x="50" y="57" dy="0.5ex" text-anchor="end" font-family="sans-serif" font-size="9.67741935483871" opacity="1" fill="#000000">
4000
</text>
<polyline fill="none" opacity="1" stroke="#000000" stroke-width="1" points="54,57 59,57 "/>
<polyline fill="none" opacity="1" stroke="#000000" stroke-width="1" points="60,740 1190,740 "/>
<text x="60" y="750" dy="0.76em" text-anchor="middle" font-family="sans-serif" font-size="9.67741935483871" opacity="1" fill="#000000">
2014-11-20Z
</text>
<polyline fill="none" opacity="1" stroke="#000000" stroke-width="1" points="60,740 60,745 "/>
<text x="175" y="750" dy="0.76em" text-anchor="middle" font-family="sans-serif" font-size="9.67741935483871" opacity="1" fill="#000000">
2015-07-02Z
</text>
<polyline fill="none" opacity="1" stroke="#000000" stroke-width="1" points="175,740 175,745 "/>
<text x="291" y="750" dy="0.76em" text-anchor="middle" font-family="sans-serif" font-size="9.67741935483871" opacity="1" fill="#000000">
2016-02-11Z
</text>
<polyline fill="none" opacity="1" stroke="#000000" stroke-width="1" points="291,740 291,745 "/>
<text x="407" y="750" dy="0.76em" text-anchor="middle" font-family="sans-serif" font-size="9.67741935483871" opacity="1" fill="#000000">
2016-09-22Z
</text>
<polyline fill="none" opacity="1" stroke="#000000" stroke-width="1" points="407,740 407,745 "/>
<text x="522" y="750" dy="0.76em" text-anchor="middle" font-family="sans-serif" font-size="9.67741935483871" opacity="1" fill="#000000">
2017-05-04Z
</text>
<polyline fill="none" opacity="1" stroke="#000000" stroke-width="1" points="522,740 522,745 "/>
<text x="638" y="750" dy="0.76em" text-anchor="middle" font-family="sans-serif" font-size="9.67741935483871" opacity="1" fill="#000000">
2017-12-14Z
</text>
<polyline fill="none" opacity="1" stroke="#000000" stroke-width="1" points="638,740 638,745 "/>
<text x="754" y="750" dy="0.76em" text-anchor="middle" font-family="sans-serif" font-size="9.67741935483871" opacity="1" fill="#000000">
2018-07-26Z
</text>
<polyline fill="none" opacity="1" stroke="#000000" stroke-width="1" points="754,740 754,745 "/>
<text x="870" y="750" dy="0.76em" text-anchor="middle" font-family="sans-serif" font-size="9.67741935483871" opacity="1" fill="#000000">
2019-03-07Z
</text>
<polyline fill="none" opacity="1" stroke="#000000" stroke-width="1" points="870,740 870,745 "/>
<text x="985" y="750" dy="0.76em" text-anchor="middle" font-family="sans-serif" font-size="9.67741935483871" opacity="1" fill="#000000">
2019-10-17Z
</text>
<polyline fill="none" opacity="1" stroke="#000000" stroke-width="1" points="985,740 985,745 "/>
<text x="1101" y="750" dy="0.76em" text-anchor="middle" font-family="sans-serif" font-size="9.67741935483871" opacity="1" fill="#000000">
2020-05-28Z
</text>
<polyline fill="none" opacity="1" stroke="#000000" stroke-width="1" points="1101,740 1101,745 "/>
<polyline fill="none" opacity="1" stroke="#E61919" stroke-width="2" points="164,738 170,738 170,738 206,738 233,738 262,737 271,737 271,737 279,737 282,737 284,737 286,736 287,736 289,737 290,736 290,736 291,736 301,736 301,736 315,736 316,736 320,736 327,736 330,736 331,735 344,735 345,735 350,735 367,735 367,735 369,735 370,735 370,735 371,735 372,735 373,735 373,735 374,735 374,735 376,735 376,735 377,735 418,735 418,735 419,734 420,734 421,734 445,734 445,734 446,734 447,734 449,734 449,734 450,734 451,734 451,734 453,734 454,733 456,733 456,733 457,733 457,733 458,733 459,733 460,733 462,733 463,733 464,733 464,733 465,733 465,733 467,733 468,733 470,733 470,733 471,733 471,733 472,733 473,733 473,733 474,733 475,733 475,733 477,733 478,733 479,733 480,733 480,733 481,733 482,733 483,733 484,733 486,733 486,733 487,733 488,733 490,733 490,732 491,732 491,732 493,732 494,732 495,732 496,732 496,732 497,732 498,732 499,732 500,732 501,732 502,732 502,732 503,732 503,732 504,732 505,732 506,732 507,732 509,732 509,732 510,732 511,732 513,732 513,732 515,732 517,732 518,732 518,732 521,732 523,732 524,732 526,732 526,732 528,732 528,732 529,732 531,732 532,732 534,732 535,732 535,732 537,732 537,732 538,732 538,732 540,732 541,732 542,732 543,732 543,732 544,732 544,732 545,732 545,732 546,732 546,732 548,732 548,732 550,732 552,732 556,732 557,732 557,732 558,732 558,732 559,732 559,732 560,732 562,732 562,732 563,732 563,732 564,732 564,732 565,731 565,731 566,731 566,731 567,731 568,731 569,731 572,731 572,731 573,731 573,731 574,731 574,731 575,731 576,731 580,731 583,731 585,731 586,731 587,731 588,731 590,731 590,731 593,731 594,731 595,731 604,731 605,731 607,731 609,731 611,730 616,730 618,730 620,730 620,730 621,730 622,730 624,730 627,730 628,730 630,730 630,730 631,730 633,730 634,730 635,730 635,730 636,730 637,730 637,730 638,730 639,730 639,730 640,730 640,730 641,730 642,730 642,730 643,730 643,730 644,730 644,730 645,730 646,730 647,730 648,730 649,730 649,730 650,730 651,730 652,730 653,730 653,730 654,730 655,730 655,730 656,730 656,730 657,730 658,730 659,730 661,730 661,730 662,730 663,730 664,730 664,730 665,730 666,730 666,730 667,730 668,730 670,730 671,730 672,730 673,730 674,730 674,730 677,730 677,730 681,730 681,730 682,730 682,730 683,730 683,730 684,730 684,730 686,730 687,730 687,730 688,730 690,730 691,730 691,730 692,730 693,730 693,730 694,730 695,730 697,730 698,729 698,729 699,729 699,729 700,729 701,729 702,729 702,729 703,729 703,729 704,729 704,729 705,729 705,729 706,729 706,729 707,729 707,729 708,729 708,729 709,729 709,729 710,729 711,729 712,729 712,729 713,729 715,729 715,729 716,729 716,729 719,729 720,729 720,729 721,729 721,729 723,729 724,729 724,729 725,729 726,729 726,729 727,729 727,729 728,729 728,729 729,729 729,729 730,729 730,729 731,729 731,729 733,729 734,729 735,729 735,729 736,729 737,729 737,729 738,729 738,729 739,729 739,729 740,729 740,729 741,729 742,729 742,729 743,729 744,729 744,729 745,729 745,729 746,729 746,729 747,729 747,729 748,729 748,729 749,729 750,729 751,729 751,729 753,729 753,729 754,729 754,729 755,729 756,729 757,729 758,729 758,729 759,729 760,729 760,729 761,729 761,729 762,729 762,729 763,729 763,729 764,729 765,729 765,729 766,729 766,729 767,729 767,729 768,729 768,729 770,729 770,729 771,729 772,729 773,729 773,729 774,729 774,729 775,729 776,729 776,729 777,729 777,729 778,729 779,729 780,729 780,729 781,729 781,729 782,729 783,729 783,729 784,729 784,729 785,729 785,729 786,729 786,729 786,729 787,729 788,729 788,729 789,729 789,729 790,729 790,729 791,729 791,729 792,729 793,729 793,729 794,729 794,729 795,729 795,729 796,729 796,729 797,729 798,729 799,729 799,729 800,729 801,729 801,729 802,729 804,729 804,728 805,728 805,728 806,728 806,728 807,728 807,728 808,728 808,728 809,728 809,728 810,728 811,728 811,728 812,728 813,728 814,728 814,728 815,728 816,728 816,728 817,728 818,728 819,728 819,728 820,728 820,728 821,728 822,728 822,728 823,728 824,728 824,728 825,728 826,728 826,728 827,728 827,728 829,728 829,728 830,728 831,728 832,728 832,728 833,728 834,728 835,728 835,728 836,728 836,728 837,728 837,728 838,728 839,728 839,728 840,728 840,728 841,728 841,728 842,728 842,728 843,728 843,728 844,728 845,728 845,728 846,728 848,728 848,728 849,728 850,728 851,728 851,728 852,728 852,728 853,728 853,728 854,728 854,728 855,728 856,728 857,728 857,728 858,728 859,728 859,727 860,727 861,727 861,727 862,727 862,727 863,727 863,727 864,727 865,727 865,727 866,727 866,727 867,727 868,727 868,727 869,727 869,727 870,727 870,727 871,727 871,727 872,727 872,727 873,727 873,727 874,727 874,727 875,727 875,727 876,727 877,727 877,727 878,727 878,727 879,727 880,727 881,727 881,727 882,727 882,727 883,727 883,727 884,727 885,727 885,727 886,727 886,727 887,727 887,727 889,727 889,727 892,727 892,727 893,727 894,727 894,727 895,727 896,727 896,727 897,727 897,727 898,727 898,727 899,727 899,727 900,727 900,727 901,727 902,727 902,727 903,727 905,727 905,727 906,727 906,727 907,727 908,727 908,727 910,727 910,727 911,727 912,727 912,727 913,727 913,727 914,727 915,727 916,727 916,727 917,727 917,727 918,727 918,727 920,727 921,727 921,727 922,727 922,727 923,727 924,727 924,727 925,727 925,727 927,727 927,727 928,727 928,727 929,727 929,727 931,727 932,727 932,727 933,727 933,727 934,727 934,727 935,727 935,727 936,727 937,727 937,727 938,727 939,727 939,727 940,727 940,727 942,727 943,727 943,727 944,727 944,727 945,727 945,727 946,727 946,727 947,727 947,727 948,727 948,727 949,727 949,727 950,726 950,726 951,726 951,727 952,727 953,727 954,727 955,727 956,727 956,727 957,727 958,727 958,727 960,727 960,727 961,727 961,727 962,727 962,727 963,727 963,727 964,727 964,727 965,727 965,727 966,727 967,727 969,727 970,727 970,727 971,727 971,727 972,727 974,727 975,727 975,727 976,727 976,727 977,727 977,727 978,727 979,727 979,727 980,727 982,727 982,727 984,727 984,727 985,727 985,727 986,727 987,727 987,727 989,727 990,727 990,727 991,727 991,727 992,727 992,727 993,727 993,727 994,727 994,727 995,727 995,727 996,727 996,727 997,727 997,727 998,727 998,727 999,727 999,727 1000,727 1000,727 1001,727 1001,727 1002,727 1003,727 1004,727 1005,727 1005,727 1006,727 1010,727 1010,727 1011,727 1011,727 1012,727 1013,727 1013,727 1014,726 1014,726 1015,726 1016,726 1018,726 1018,726 1019,726 1020,726 1021,726 1022,726 1022,726 1023,726 1024,726 1024,726 1025,726 1025,726 1026,726 1027,726 1027,726 1028,726 1028,726 1029,726 1029,726 1030,726 1030,726 1031,726 1031,726 1033,726 1033,726 1034,726 1034,726 1035,726 1036,726 1036,726 1037,726 1037,726 1038,726 1039,726 1039,726 1040,726 1040,726 1041,726 1041,726 1042,726 1042,726 1043,726 1044,726 1044,726 1046,726 1046,726 1047,726 1047,726 1048,726 1048,726 1051,726 1051,726 1052,726 1053,726 1054,726 1054,726 1055,726 1055,726 1056,726 1056,726 1057,726 1057,726 1058,726 1058,726 1058,726 1059,726 1060,726 1060,726 1060,726 1060,726 1062,726 1062,726 1063,726 1063,726 1063,726 1064,726 1064,726 1064,726 1065,726 1065,726 1065,726 1065,726 1066,726 1066,726 1067,726 1067,726 1067,726 1068,726 1068,726 1068,726 1069,726 1069,726 1069,726 1069,726 1070,726 1070,726 1071,726 1071,726 1071,726 1072,726 1072,726 1072,726 1073,726 1073,726 1073,726 1073,726 1074,726 1074,726 1074,726 1075,726 1075,726 1075,726 1076,726 1076,726 1077,726 1077,726 1078,726 1078,726 1079,726 1079,726 1079,726 1079,726 1080,726 1080,726 1081,726 1082,726 1082,726 1082,726 1083,726 1083,726 1084,726 1084,726 1084,726 1085,726 1085,726 1086,726 1086,726 1086,726 1086,726 1087,726 1087,726 1088,726 1088,726 1088,726 1089,726 1089,726 1089,726 1089,726 1090,726 1090,726 1090,726 1091,726 1092,726 1092,726 1092,726 1093,726 1093,726 1094,726 1094,726 1094,726 1095,726 1095,726 1095,726 1095,726 1096,726 1096,726 1097,726 1098,726 1098,726 1098,726 1099,726 1099,726 1099,726 1099,726 1100,726 1100,726 1101,726 1102,726 1102,726 1102,726 1103,726 1103,726 1104,726 1104,726 1104,726 1105,726 1105,726 1105,726 1105,726 1106,726 1106,726 1106,726 1107,726 1107,726 1107,726 1107,726 1108,726 1108,726 1108,726 1109,726 1109,726 1109,726 1110,726 1110,726 1111,726 1111,726 1111,726 1113,726 1113,726 1113,726 1114,726 1114,726 1114,726 1114,726 1115,726 1115,726 1115,726 1115,726 1116,726 1116,726 1116,726 1116,726 1117,726 1117,726 1117,726 1118,726 1118,726 1119,726 1119,726 1119,726 1120,726 1120,726 1120,726 1120,726 1121,726 1121,726 1121,726 1121,726 1122,726 1122,726 1122,726 1122,726 1123,726 1123,726 1124,726 1124,726 1124,726 1124,726 1126,726 1126,726 1126,726 1127,726 1127,726 1127,726 1128,726 1129,726 1129,726 1130,726 1130,726 1130,726 1131,726 1131,726 1131,726 1132,726 1132,726 1132,726 1132,726 1133,726 1133,726 1133,726 1133,726 1134,726 1134,726 1134,726 1134,726 1135,726 1135,726 1135,726 1136,726 1136,726 1137,726 1137,726 1137,726 1138,726 1138,726 1138,726 1138,726 1139,726 1139,726 1140,726 1140,726 1140,726 1140,726 1141,726 1141,726 1141,726 1142,726 1142,726 1143,726 1143,726 1144,726 1144,726 1146,726 1146,726 1147,726 1147,726 1147,726 1148,726 1148,726 1148,726 1149,726 1149,726 1150,726 1150,726 1150,726 1150,726 1151,726 1151,726 1151,726 1152,726 1152,726 1152,726 1152,726 1153,726 1153,726 1153,726 1154,726 1154,726 1154,726 1154,726 1155,726 1155,726 1155,726 1156,726 1156,726 1156,726 1157,726 1157,726 1157,726 1158,726 1158,726 1158,726 1158,726 1159,726 1159,726 1160,726 1160,726 1160,726 1160,726 1161,726 1161,726 1161,726 1162,726 1163,726 1163,726 1163,726 1163,726 1164,726 1164,726 1164,726 1164,726 1165,726 1166,726 1166,726 1166,726 1166,726 1167,726 1167,726 1167,726 1168,726 1168,726 1169,726 1169,726 1169,725 1170,725 1170,725 1170,725 1170,725 1171,725 1171,725 1171,725 1171,725 1172,725 1172,725 1172,725 1173,725 1173,725 1173,725 1173,725 1175,725 1175,725 1176,725 1176,725 1176,725 1177,725 1177,725 1177,725 1177,725 1178,725 1178,725 1178,725 1178,725 1179,725 1179,725 1179,725 1180,725 1180,725 1180,725 1180,725 1181,725 1181,725 1181,725 1182,725 1182,725 1182,725 1182,725 1183,725 1183,725 1183,725 1183,725 1184,725 1184,725 1184,725 1184,725 1185,725 1185,725 1185,725 1186,725 1186,725 1186,725 1187,725 1187,725 1188,725 1188,725 1188,725 1189,725 1189,725 1190,725 "/>
<polyline fill="none" opacity="1" stroke="#BDE619" stroke-width="2" points="127,738 152,738 172,738 175,738 187,738 193,737 194,738 197,737 203,737 204,737 207,737 213,737 217,737 221,736 225,736 230,736 233,736 233,736 234,736 235,735 236,735 236,735 239,735 240,734 242,734 245,734 246,734 248,733 254,733 257,733 258,733 259,733 259,733 262,732 263,732 268,732 268,732 269,731 270,731 273,731 273,731 274,731 275,731 275,730 279,730 281,730 282,730 283,730 283,729 286,729 287,729 290,729 293,728 296,728 296,728 297,728 298,727 298,727 299,727 300,727 301,727 302,727 303,727 303,726 305,726 306,726 308,726 308,726 309,726 310,726 311,726 312,725 315,725 318,725 319,725 320,725 321,725 324,725 325,724 325,724 326,724 326,724 327,724 327,724 328,724 329,724 329,723 330,723 331,723 333,723 334,723 335,723 335,723 336,723 337,723 337,723 338,722 339,722 340,722 340,722 341,722 341,722 342,722 345,722 345,722 346,722 346,722 347,722 347,722 350,722 350,721 351,721 351,721 352,721 352,721 353,721 353,721 354,721 355,721 355,721 356,721 356,721 357,721 357,721 358,721 358,721 359,721 359,720 360,720 361,720 361,720 362,720 362,720 363,719 363,719 364,719 366,719 366,719 367,719 367,718 368,718 368,718 370,718 370,718 371,718 372,718 374,718 374,717 375,717 375,717 376,716 377,716 378,716 379,716 379,716 380,715 381,715 381,715 382,715 382,715 383,715 383,715 384,714 384,714 385,714 386,714 387,714 388,714 388,714 389,714 389,714 390,713 390,713 391,713 391,713 392,713 393,713 393,713 394,712 395,712 395,712 396,712 396,712 397,712 397,711 398,711 398,711 399,711 400,711 401,693 402,693 403,693 403,692 404,692 404,692 405,692 406,692 406,692 407,692 407,691 408,691 408,691 409,690 409,690 410,690 410,690 411,689 411,689 412,689 412,689 413,689 413,689 414,689 414,688 415,688 415,688 416,688 417,688 417,687 418,687 418,687 419,686 419,686 420,685 420,685 421,685 422,685 423,682 423,682 424,681 425,681 425,681 426,681 426,681 427,681 427,681 428,681 429,681 430,681 430,681 431,680 432,680 432,680 433,680 433,680 434,680 434,679 435,679 435,679 436,679 437,679 437,679 438,678 438,678 439,678 439,678 440,678 440,678 441,678 441,677 442,677 443,677 443,677 444,676 445,676 445,676 446,676 447,676 447,676 448,675 448,675 449,675 449,675 450,675 451,674 451,674 452,674 452,674 453,673 453,673 454,673 454,673 455,673 455,673 456,673 456,673 457,672 457,672 458,672 458,672 459,672 459,672 460,672 460,671 461,671 461,671 462,671 463,671 463,671 464,671 465,671 465,670 466,670 466,670 467,670 467,669 468,669 468,669 469,669 469,669 470,668 470,668 471,668 471,668 472,667 472,667 473,666 473,666 474,665 474,665 475,665 475,665 476,664 476,664 477,664 478,664 478,663 479,663 479,663 480,663 480,662 481,662 481,661 482,661 482,661 483,661 483,660 484,660 484,660 485,660 485,659 486,659 486,659 487,659 487,659 488,659 488,658 489,658 489,658 490,658 490,657 491,657 491,657 492,656 492,656 493,656 494,656 494,655 495,655 495,655 496,655 496,655 497,655 497,654 498,654 498,654 499,654 499,653 500,652 500,652 501,652 501,651 502,651 503,651 503,651 504,651 504,650 505,650 505,650 506,649 506,649 507,649 507,648 508,648 509,648 509,648 510,647 510,647 511,647 511,647 512,646 512,646 513,646 513,645 514,645 514,645 515,644 515,644 516,644 516,644 517,644 517,644 518,643 518,643 519,643 519,643 520,643 520,642 521,642 521,642 522,642 522,642 523,641 523,641 524,641 525,640 525,639 526,639 526,639 527,639 527,639 528,639 528,638 529,638 529,638 530,638 530,638 531,638 531,637 532,637 532,637 533,637 533,636 534,636 534,636 535,635 535,635 536,635 536,634 537,634 537,634 538,634 538,633 539,633 540,633 540,633 541,632 541,632 542,632 542,631 543,631 543,630 544,630 544,629 545,629 545,629 546,629 546,629 547,628 547,628 548,628 548,628 549,627 549,627 550,627 550,627 551,627 551,627 552,627 552,626 553,626 553,626 554,626 554,626 555,626 556,625 556,625 557,625 557,624 558,624 558,624 559,624 559,624 560,623 560,622 561,622 561,621 562,621 562,621 563,621 563,620 564,620 564,620 565,620 565,619 566,619 566,619 567,619 567,619 568,619 568,618 569,618 569,618 570,618 571,618 571,617 572,617 572,617 573,616 573,616 574,616 574,616 575,615 575,615 576,615 576,615 577,614 577,614 578,614 578,614 579,614 579,614 580,614 580,613 581,613 581,613 582,612 582,612 583,612 583,612 584,612 584,612 585,612 585,611 586,611 587,610 587,610 588,610 588,610 589,610 589,610 590,610 590,609 591,609 591,609 592,608 592,608 593,608 593,607 594,607 594,607 595,607 595,607 596,607 596,607 597,606 597,606 598,603 598,602 599,602 599,602 600,602 600,601 601,601 602,601 602,600 603,600 603,600 604,599 604,599 605,599 605,598 606,598 606,598 607,597 607,597 608,597 608,597 609,597 609,596 610,596 610,596 611,596 611,595 612,595 612,595 613,595 613,594 614,594 614,593 615,593 615,592 616,592 616,591 617,591 618,591 618,591 619,591 619,591 620,590 620,590 621,590 621,590 622,589 622,589 623,589 623,589 624,589 624,588 625,588 625,588 626,588 626,588 627,587 627,588 628,587 628,587 629,586 629,586 630,586 630,586 631,585 631,585 632,585 633,585 633,585 634,585 634,584 635,584 635,584 636,584 636,583 637,583 637,582 638,581 638,581 639,581 639,581 640,580 640,580 641,580 641,579 642,579 642,579 643,579 643,578 644,578 644,577 645,577 645,577 646,577 646,577 647,577 647,577 648,577 649,576 649,576 650,576 650,576 651,575 651,575 652,575 652,575 653,575 653,575 654,574 654,574 655,574 655,574 656,573 656,573 657,573 657,573 658,572 658,572 659,572 659,571 660,571 660,570 661,570 661,570 662,570 662,570 663,569 664,566 664,565 665,565 665,565 666,564 666,564 667,563 667,563 668,562 668,562 669,561 669,561 670,560 670,559 671,559 671,558 672,558 672,558 673,557 673,557 674,557 674,557 675,556 675,556 676,556 676,555 677,555 677,554 678,554 678,554 679,553 680,553 680,553 681,552 681,552 682,551 682,551 683,551 683,550 684,549 684,549 685,549 685,548 686,548 686,548 687,548 687,548 688,548 688,547 689,547 689,547 690,547 690,546 691,546 691,545 692,545 692,544 693,544 693,543 694,543 695,542 695,542 696,542 696,542 697,542 697,542 698,541 698,541 699,541 699,540 700,540 700,540 701,539 701,539 702,539 702,539 703,538 703,538 704,538 704,538 705,537 705,537 706,537 706,537 707,536 707,537 708,537 708,537 709,536 709,536 710,536 711,536 711,535 712,535 712,535 713,535 713,534 714,534 714,534 715,533 715,533 716,533 716,532 717,532 717,532 718,531 718,531 719,531 719,531 720,530 720,530 721,530 721,529 722,529 722,529 723,529 723,528 724,528 724,528 725,527 726,527 726,527 727,527 727,526 728,526 728,526 729,525 729,525 730,525 730,525 731,524 731,524 732,523 732,523 733,523 733,522 734,522 734,521 735,521 735,521 736,520 736,520 737,520 737,520 738,519 738,519 739,518 739,518 740,518 740,518 741,517 742,516 742,516 743,516 743,515 744,515 744,515 745,514 745,514 746,514 746,513 747,513 747,512 748,512 748,512 749,512 749,512 750,511 750,511 751,510 751,510 752,510 752,510 753,510 753,509 754,509 754,509 755,508 755,508 756,508 757,508 757,508 758,508 758,508 759,507 759,507 760,507 760,507 761,506 761,506 762,506 762,505 763,505 763,505 764,505 764,504 765,504 765,504 766,504 766,504 767,504 767,504 768,503 768,503 769,503 769,503 770,503 770,502 771,502 771,502 772,501 773,501 773,501 774,501 774,501 775,500 775,500 776,499 776,499 777,498 777,498 778,497 778,497 779,496 779,496 780,496 780,496 781,496 781,496 782,495 782,494 783,494 783,494 784,493 784,492 785,492 785,492 786,491 786,491 786,490 787,490 788,490 788,490 789,489 789,488 790,488 790,487 791,487 791,486 792,486 792,486 793,485 793,485 794,485 794,485 795,485 795,479 796,479 796,478 797,478 797,477 798,477 798,477 799,477 799,476 800,475 800,475 801,474 801,474 802,474 802,473 803,473 804,472 804,472 805,471 805,470 806,470 806,470 807,470 807,469 808,469 808,468 809,468 809,468 810,467 810,466 811,466 811,466 812,465 812,465 813,464 813,464 814,464 814,463 815,463 815,463 816,462 816,462 817,461 817,461 818,461 819,461 819,460 820,460 820,460 821,460 821,459 822,459 822,459 823,458 823,458 824,457 824,457 825,457 825,457 826,456 826,456 827,456 827,455 828,455 828,455 829,454 829,454 830,454 830,453 831,453 831,453 832,452 832,452 833,452 834,451 834,451 835,451 835,451 836,450 836,449 837,448 837,447 838,446 838,446 839,446 839,444 840,443 840,443 841,443 841,442 842,442 842,442 843,441 843,441 844,441 844,440 845,440 845,439 846,439 846,439 847,439 847,437 848,437 848,436 849,436 850,436 850,435 851,435 851,435 852,434 852,434 853,433 853,433 854,433 854,432 855,432 855,431 856,431 856,431 857,430 857,430 858,429 858,429 859,429 859,428 860,427 860,427 861,427 861,427 862,427 862,426 863,426 863,425 864,425 865,425 865,424 866,424 866,423 867,423 867,422 868,422 868,421 869,421 869,420 870,420 870,420 871,419 871,419 872,419 872,418 873,417 873,418 874,417 874,416 875,416 875,416 876,415 876,415 877,414 877,414 878,413 878,413 879,412 879,411 880,410 881,410 881,409 882,409 882,409 883,408 883,408 884,407 884,407 885,407 885,406 886,406 886,405 887,405 887,405 888,404 888,404 889,404 889,403 890,403 890,403 891,402 891,401 892,401 892,401 893,400 893,400 894,399 894,399 895,398 896,397 896,397 897,396 897,396 898,395 898,395 899,394 899,394 900,393 900,393 901,392 901,392 902,392 902,391 903,391 903,391 904,391 904,391 905,390 905,390 906,390 906,389 907,387 907,387 908,387 908,386 909,386 909,385 910,385 910,384 911,384 912,384 912,383 913,383 913,382 914,381 914,381 915,380 915,379 916,379 916,378 917,378 917,377 918,377 918,377 919,376 919,375 920,375 920,374 921,374 921,374 922,373 922,373 923,372 923,372 924,371 924,371 925,371 925,371 926,370 927,369 927,368 928,368 928,367 929,367 929,367 930,367 930,367 931,366 931,366 932,361 932,361 933,361 933,360 934,359 934,359 935,358 935,358 936,357 936,357 937,356 937,355 938,355 938,355 939,353 939,353 940,352 940,352 941,351 941,351 942,351 943,351 943,350 944,349 944,349 945,349 945,348 946,348 946,348 947,347 947,347 948,346 948,346 949,345 949,345 950,345 950,344 951,344 951,343 952,342 952,342 953,341 953,341 954,340 954,340 955,340 955,340 956,339 956,338 957,338 958,338 958,337 959,337 959,337 960,336 960,336 961,336 961,336 962,335 962,335 963,335 963,335 964,334 964,334 965,333 965,332 966,332 966,331 967,330 967,330 968,330 968,329 969,329 969,329 970,328 970,327 971,327 971,326 972,326 972,325 973,325 974,325 974,325 975,324 975,324 976,323 976,323 977,323 977,323 978,322 978,322 979,322 979,321 980,321 980,320 981,320 981,319 982,318 982,318 983,317 983,317 984,317 984,317 985,316 985,316 985,316 986,315 986,315 987,315 987,314 988,314 989,314 989,314 990,313 990,313 991,312 991,312 992,312 992,311 993,311 993,310 994,309 994,310 995,309 995,309 996,308 996,308 997,307 997,306 998,306 998,305 999,304 999,304 1000,303 1000,303 1001,302 1001,301 1002,301 1002,301 1003,300 1003,299 1004,299 1005,299 1005,299 1006,298 1006,298 1007,296 1007,296 1008,295 1008,295 1009,295 1009,295 1010,294 1010,294 1011,294 1011,294 1012,294 1012,293 1013,292 1013,292 1014,292 1014,291 1015,291 1015,291 1016,290 1016,290 1017,290 1017,290 1018,289 1018,289 1019,289 1020,288 1020,287 1021,286 1021,285 1022,285 1022,284 1023,284 1023,283 1024,283 1024,282 1025,283 1025,282 1026,281 1026,280 1027,279 1027,279 1028,279 1028,278 1029,277 1029,277 1030,276 1030,275 1031,274 1031,274 1032,273 1032,274 1033,273 1033,273 1034,272 1034,271 1035,270 1036,270 1036,270 1037,269 1037,268 1038,268 1038,267 1039,266 1039,266 1040,265 1040,265 1041,265 1041,264 1042,263 1042,263 1043,262 1043,261 1044,260 1044,259 1045,258 1045,258 1046,257 1046,257 1047,256 1047,255 1048,254 1048,254 1049,253 1049,253 1050,252 1051,251 1051,251 1052,251 1052,250 1053,249 1053,248 1054,248 1054,247 1055,246 1055,246 1056,246 1056,245 1057,244 1057,244 1058,244 1058,243 1058,244 1059,244 1059,243 1059,242 1060,242 1060,241 1060,241 1060,241 1061,240 1061,240 1061,240 1062,240 1062,239 1062,239 1062,239 1063,239 1063,237 1063,237 1063,237 1064,237 1064,236 1064,236 1064,235 1065,235 1065,234 1065,234 1065,233 1066,233 1066,232 1067,232 1067,232 1067,232 1068,231 1068,231 1068,230 1069,230 1069,230 1069,230 1069,230 1070,230 1070,229 1070,229 1070,229 1071,229 1071,229 1071,229 1072,229 1072,227 1072,227 1072,227 1073,227 1073,226 1073,226 1073,225 1074,225 1074,225 1074,225 1074,224 1075,224 1075,224 1075,224 1075,223 1076,223 1076,222 1076,222 1077,222 1077,221 1077,221 1077,221 1078,221 1078,220 1078,220 1078,220 1079,220 1079,220 1079,220 1079,220 1080,219 1080,218 1080,218 1080,218 1081,217 1081,217 1082,217 1082,216 1082,216 1082,216 1083,216 1083,215 1084,215 1084,215 1084,215 1084,215 1085,215 1085,214 1085,214 1085,213 1086,213 1086,213 1086,213 1086,212 1087,212 1087,211 1087,211 1087,210 1088,210 1088,210 1088,208 1089,208 1089,208 1089,208 1089,207 1090,207 1090,206 1090,206 1090,206 1091,206 1091,205 1091,204 1092,204 1092,204 1092,204 1092,203 1093,203 1093,202 1093,202 1093,201 1094,201 1094,201 1094,201 1094,200 1095,200 1095,199 1095,199 1095,199 1096,199 1096,198 1096,198 1096,198 1097,198 1097,197 1098,197 1098,196 1098,196 1098,196 1099,196 1099,195 1099,195 1099,194 1100,194 1100,193 1100,193 1100,192 1101,192 1101,191 1101,191 1102,191 1102,191 1102,191 1102,190 1103,190 1103,187 1103,187 1103,186 1104,186 1104,186 1104,186 1104,185 1105,185 1105,185 1105,185 1105,184 1106,184 1106,184 1106,183 1107,183 1107,182 1107,182 1107,181 1108,181 1108,180 1108,180 1108,179 1109,179 1109,179 1109,179 1110,178 1110,178 1110,177 1111,177 1111,177 1111,176 1112,176 1112,175 1113,175 1113,174 1113,174 1113,173 1114,173 1114,173 1114,173 1114,172 1115,172 1115,172 1115,172 1115,171 1116,171 1116,170 1116,170 1116,170 1117,169 1117,169 1117,169 1118,169 1118,168 1118,168 1118,167 1119,167 1119,167 1119,167 1119,166 1120,166 1120,166 1120,166 1120,165 1121,165 1121,164 1121,164 1121,163 1122,163 1122,163 1122,163 1122,162 1123,162 1123,162 1123,162 1123,154 1124,154 1124,154 1124,154 1124,153 1125,153 1125,153 1125,153 1126,153 1126,152 1126,152 1126,151 1127,151 1127,151 1127,151 1127,150 1128,150 1128,148 1129,148 1129,148 1129,148 1130,148 1130,147 1130,147 1130,147 1131,147 1131,146 1131,146 1131,146 1132,146 1132,145 1132,145 1132,144 1133,144 1133,144 1133,144 1133,143 1134,143 1134,142 1134,142 1134,141 1135,141 1135,141 1135,141 1135,140 1136,140 1136,139 1136,139 1136,139 1137,139 1137,139 1137,139 1137,138 1138,138 1138,138 1138,138 1138,136 1139,136 1139,136 1139,136 1140,136 1140,135 1140,135 1140,135 1141,135 1141,134 1141,134 1141,134 1142,134 1142,134 1142,134 1142,133 1143,133 1143,132 1144,132 1144,132 1144,132 1144,132 1145,132 1145,131 1145,131 1145,130 1146,130 1146,130 1146,130 1146,129 1147,129 1147,129 1147,129 1147,129 1148,129 1148,128 1148,128 1148,128 1149,128 1149,127 1149,127 1149,127 1150,127 1150,126 1150,126 1150,124 1151,124 1151,123 1151,123 1151,122 1152,122 1152,121 1152,121 1152,121 1153,120 1153,120 1153,118 1154,118 1154,117 1154,117 1154,116 1155,116 1155,116 1155,115 1156,115 1156,114 1156,114 1156,113 1157,113 1157,113 1157,113 1157,112 1158,112 1158,111 1158,111 1158,110 1159,110 1159,110 1160,110 1160,109 1160,109 1160,108 1161,108 1161,108 1161,107 1162,107 1162,107 1162,107 1162,106 1163,106 1163,105 1163,105 1163,104 1164,104 1164,104 1164,104 1164,104 1165,104 1165,103 1165,103 1165,101 1166,101 1166,100 1166,100 1166,99 1167,99 1167,98 1167,98 1167,97 1168,97 1168,97 1168,97 1168,97 1169,97 1169,96 1169,96 1169,95 1170,95 1170,95 1170,95 1170,95 1171,95 1171,94 1171,94 1171,94 1172,94 1172,93 1172,93 1172,93 1173,93 1173,92 1173,92 1173,92 1174,92 1174,91 1175,91 1175,91 1175,91 1175,90 1176,90 1176,89 1176,89 1176,89 1177,89 1177,88 1177,88 1177,88 1178,87 1178,87 1178,87 1178,86 1179,86 1179,86 1179,86 1179,85 1180,85 1180,83 1180,83 1180,83 1181,83 1181,83 1181,83 1181,83 1182,83 1182,82 1182,82 1182,82 1183,82 1183,81 1183,81 1183,81 1184,81 1184,80 1184,80 1184,80 1185,78 1185,78 1185,78 1186,78 1186,78 1186,78 1186,77 1187,77 1187,77 1187,77 1187,76 1188,76 1188,76 1188,76 1188,75 1189,75 1189,75 1190,75 "/>
<polyline fill="none" opacity="1" stroke="#19E66B" stroke-width="2" points="60,738 60,738 61,738 69,738 74,738 75,737 81,737 84,737 88,737 92,736 94,736 95,736 95,736 99,736 102,736 108,735 109,735 116,735 118,735 119,735 123,735 134,735 138,734 140,734 140,734 142,734 143,734 146,734 147,734 147,734 148,734 150,734 151,734 152,734 153,734 153,734 154,734 154,734 155,734 156,733 156,733 157,733 157,733 158,733 158,733 159,733 159,733 160,733 160,733 161,733 161,732 162,732 162,732 163,732 164,732 165,732 165,732 166,732 166,732 167,732 167,732 168,732 169,732 170,732 170,732 171,732 171,731 172,731 173,731 173,731 174,731 174,731 175,731 176,731 176,731 177,731 177,731 178,731 178,731 179,731 179,731 180,731 180,731 181,731 183,731 184,731 185,731 186,731 187,731 187,731 188,730 188,730 189,730 189,730 190,730 191,730 192,730 193,730 193,730 194,730 194,730 195,730 196,730 197,730 198,730 199,730 200,730 200,729 201,729 201,729 202,729 203,729 203,729 204,729 204,729 205,729 206,729 206,729 207,729 207,729 208,729 209,729 209,729 210,729 210,729 211,729 211,729 212,729 213,729 213,729 215,728 216,728 217,728 218,728 218,728 219,728 219,728 220,728 220,728 221,728 221,728 222,728 222,728 223,728 223,728 224,728 225,728 226,728 226,728 227,727 227,727 228,727 228,727 229,727 229,727 230,727 231,727 232,727 232,727 233,727 233,727 234,727 235,727 235,727 236,727 236,727 237,727 237,727 238,727 239,727 239,727 240,727 240,727 241,727 242,727 243,727 244,727 244,727 245,727 246,727 246,727 247,727 248,727 249,726 249,726 250,726 250,726 251,725 251,725 252,725 252,725 253,725 253,725 254,725 254,725 255,725 256,725 256,725 257,725 258,725 258,725 259,725 259,725 260,725 260,725 261,724 262,724 262,724 263,724 263,724 264,724 265,724 265,724 266,724 266,724 267,724 267,724 268,724 268,724 269,724 269,724 270,724 270,724 271,724 271,724 272,724 272,724 273,724 273,724 274,724 274,724 275,724 275,724 276,724 277,724 277,724 278,724 278,724 279,724 279,724 280,724 280,724 281,724 281,723 282,723 282,723 283,723 283,723 284,723 284,723 285,723 285,723 286,723 286,722 287,723 287,723 288,723 288,722 289,722 289,722 290,722 290,722 291,722 291,722 292,722 293,722 293,722 294,722 295,722 295,721 296,721 296,721 297,721 298,721 298,721 299,721 299,721 300,721 300,721 301,721 301,721 302,721 302,721 303,721 303,721 304,721 304,721 305,721 305,721 306,720 306,720 307,720 308,720 308,720 309,720 309,720 310,720 310,720 311,720 311,720 312,720 312,720 313,720 313,720 314,720 314,720 315,720 315,720 316,720 316,720 317,720 317,720 318,720 318,720 319,720 319,720 320,720 320,720 321,720 321,720 322,720 322,719 323,719 324,719 324,719 325,719 325,719 326,719 327,719 328,719 328,719 329,719 329,719 330,718 330,718 331,718 331,718 332,718 332,718 333,718 333,718 334,718 334,718 335,718 335,718 336,718 336,718 337,718 337,718 338,718 339,718 339,718 340,718 340,718 341,718 341,718 342,718 342,717 343,717 343,717 344,717 344,717 345,717 346,717 347,717 347,717 348,717 348,717 349,717 349,717 350,717 350,717 351,717 352,717 352,717 353,717 353,717 354,717 355,717 355,717 356,717 356,717 357,717 357,717 358,717 358,717 359,717 359,716 360,716 360,716 361,716 361,716 362,716 362,716 363,717 363,716 364,716 364,716 365,716 365,716 366,716 366,716 367,716 367,716 368,716 368,716 369,716 370,716 370,716 371,716 371,716 372,716 372,716 373,716 373,716 374,716 374,716 375,716 375,715 376,715 376,715 377,715 377,715 378,715 378,715 379,715 379,715 380,715 380,715 381,715 381,715 382,715 382,715 383,715 383,715 384,715 384,715 385,715 386,715 386,715 387,715 387,715 388,715 388,715 389,715 389,715 390,715 390,714 391,714 391,714 392,714 392,714 393,714 393,714 394,714 394,714 395,714 395,714 396,714 396,714 397,714 397,714 398,714 398,714 399,714 399,714 400,714 401,714 401,714 402,714 402,714 403,713 403,713 404,713 404,713 405,713 405,713 406,713 406,713 407,713 407,713 408,713 408,713 409,713 409,713 410,713 410,713 411,713 412,713 412,713 413,713 413,713 414,713 414,713 415,713 415,713 416,713 417,713 417,713 418,713 418,713 419,713 419,713 420,713 420,713 421,713 421,713 422,713 422,713 423,713 423,713 424,712 424,712 425,712 425,712 426,712 426,712 427,712 427,712 428,712 428,712 429,712 429,712 430,712 430,712 431,712 432,712 432,712 433,712 433,712 434,712 434,712 435,712 435,712 436,712 436,712 437,712 437,712 438,712 438,712 439,712 439,712 440,712 440,712 441,712 441,712 442,711 442,711 443,711 443,711 444,711 444,711 445,711 445,711 446,711 447,711 447,711 448,711 448,711 449,711 449,711 450,711 450,710 451,710 451,710 452,710 452,710 453,710 454,710 454,710 455,710 455,710 456,710 456,710 457,710 457,710 458,710 458,710 459,710 459,710 460,710 460,710 461,710 461,709 462,709 463,709 463,709 464,709 464,709 465,709 465,709 466,709 466,708 467,708 467,708 468,708 468,708 469,708 469,708 470,708 470,708 471,708 471,708 472,708 472,708 473,708 473,708 474,708 474,708 475,708 475,708 476,708 476,708 477,708 478,708 478,708 479,708 479,708 480,708 480,708 481,708 481,708 482,708 482,708 483,708 483,708 484,708 484,708 485,708 485,708 486,708 486,708 487,708 487,708 488,708 488,708 489,708 489,708 490,708 490,708 491,708 491,708 492,708 492,708 493,708 494,708 494,708 495,708 495,708 496,708 496,708 497,708 497,708 498,708 498,708 499,708 499,708 500,708 500,708 501,708 501,708 502,708 502,708 503,708 503,708 504,708 504,708 505,708 505,708 506,708 506,708 507,708 507,708 508,708 509,708 509,708 510,708 510,708 511,708 511,708 512,708 512,708 513,708 513,708 514,708 514,708 515,707 515,707 516,707 516,707 517,707 517,707 518,707 518,707 519,707 519,707 520,707 520,707 521,707 521,707 522,707 522,707 523,707 523,707 524,707 525,707 525,707 526,707 526,707 527,707 527,707 528,707 528,707 529,707 529,706 530,706 530,706 531,706 531,706 532,706 532,706 533,706 533,706 534,706 534,706 535,706 535,706 536,706 536,706 537,706 537,706 538,706 538,706 539,706 540,706 540,706 541,706 541,706 542,706 542,706 543,706 543,706 544,706 544,706 545,706 545,706 546,706 546,706 547,706 547,706 548,706 548,706 549,706 549,706 550,705 550,705 551,705 551,705 552,705 552,705 553,705 553,705 554,705 554,705 555,705 556,705 556,705 557,705 557,705 558,705 558,705 559,705 559,705 560,705 560,705 561,705 561,705 562,705 562,705 563,705 563,705 564,705 564,705 565,705 565,705 566,705 566,705 567,705 567,705 568,705 568,705 569,705 569,705 570,705 571,705 571,705 572,705 572,705 573,705 573,705 574,705 574,705 575,705 575,705 576,705 576,705 577,705 577,705 578,705 578,705 579,705 579,705 580,705 580,705 581,705 581,705 582,705 582,705 583,705 583,705 584,705 584,705 585,705 585,705 586,705 587,705 587,705 588,705 588,705 589,705 589,705 590,705 590,704 591,704 591,705 592,704 592,704 593,704 593,704 594,704 594,704 595,704 595,704 596,704 596,704 597,704 597,704 598,704 598,704 599,704 599,704 600,704 600,704 601,704 602,704 602,704 603,704 603,704 604,704 604,704 605,704 605,704 606,704 606,704 607,704 607,704 608,705 608,705 609,704 609,704 610,704 610,704 611,704 611,704 612,704 612,704 613,704 613,704 614,704 614,704 615,704 615,704 616,704 616,704 617,704 618,704 618,704 619,704 619,704 620,704 620,704 621,704 621,704 622,704 622,704 623,704 623,704 624,704 624,704 625,704 626,704 626,704 627,704 627,704 628,704 628,704 629,704 629,704 630,704 630,704 631,704 631,704 632,704 633,704 633,704 634,704 634,703 635,703 635,704 636,704 636,704 637,704 637,704 638,704 638,704 639,704 639,703 640,703 640,703 641,703 641,703 642,703 642,703 643,703 643,703 644,703 644,703 645,703 645,703 646,703 646,703 647,703 647,703 648,703 649,703 649,703 650,703 650,703 651,703 651,703 652,703 652,703 653,703 653,702 654,702 654,702 655,702 655,702 656,702 656,702 657,702 657,702 658,702 658,702 659,702 659,702 660,702 660,702 661,702 661,702 662,702 662,702 663,702 664,702 664,702 665,702 665,702 666,702 666,702 667,702 667,702 668,702 668,702 669,702 669,702 670,702 670,702 671,702 671,702 672,702 672,702 673,702 673,702 674,702 674,702 675,702 675,702 676,702 676,702 677,702 677,702 678,702 678,702 679,702 680,702 680,702 681,702 681,702 682,702 682,702 683,702 683,702 684,702 684,702 685,702 685,701 686,701 686,701 687,701 687,701 688,701 688,702 689,701 689,701 690,701 690,701 691,701 691,701 692,701 692,701 693,701 693,701 694,701 695,701 695,702 696,701 696,701 697,701 697,701 698,701 698,701 699,701 699,701 700,701 700,701 701,701 701,701 702,701 702,701 703,701 703,701 704,701 704,701 705,701 705,701 706,701 706,701 707,701 707,701 708,701 708,701 709,701 709,701 710,701 711,701 711,701 712,701 712,701 713,701 713,701 714,701 714,701 715,701 715,701 716,701 716,701 717,701 717,701 718,701 718,701 719,701 719,701 720,701 720,701 721,701 721,701 722,701 722,701 723,701 723,701 724,701 724,701 725,701 726,701 726,701 727,701 727,701 728,701 728,701 729,701 729,701 730,701 730,701 731,700 731,700 732,700 732,700 733,700 733,700 734,700 734,700 735,700 735,700 736,700 736,700 737,700 737,700 738,700 738,700 739,700 739,700 740,700 740,700 741,700 742,700 742,700 743,700 743,700 744,700 744,700 745,700 745,700 746,700 746,700 747,700 747,700 748,700 748,700 749,700 749,699 750,699 750,699 751,700 751,700 752,700 752,700 753,699 753,699 754,699 754,699 755,699 755,699 756,699 757,699 757,699 758,699 758,699 759,699 759,699 760,699 760,699 761,699 761,699 762,699 762,699 763,699 763,699 764,699 764,699 765,699 765,699 766,699 766,699 767,699 767,699 768,699 768,699 769,699 769,699 770,699 770,699 771,699 771,699 772,699 773,699 773,699 774,699 774,699 775,699 775,699 776,699 776,699 777,699 777,699 778,699 778,699 779,699 779,699 780,699 780,699 781,699 781,699 782,699 782,699 783,699 783,699 784,699 784,699 785,699 785,698 786,698 786,698 786,698 787,698 788,698 788,698 789,698 789,698 790,698 790,698 791,698 791,698 792,698 792,698 793,698 793,698 794,698 794,698 795,698 795,698 796,698 796,698 797,698 797,698 798,698 798,698 799,698 799,698 800,698 800,697 801,697 801,697 802,697 802,697 803,697 804,697 804,697 805,697 805,697 806,697 806,697 807,697 807,697 808,697 808,697 809,697 809,697 810,697 810,697 811,697 811,697 812,697 812,697 813,697 813,697 814,697 814,696 815,696 815,696 816,696 816,696 817,696 817,696 818,696 819,696 819,696 820,696 820,696 821,696 821,696 822,696 822,696 823,696 823,696 824,696 824,696 825,696 825,696 826,696 826,696 827,696 827,696 828,696 828,696 829,696 829,695 830,695 830,695 831,695 831,695 832,695 832,695 833,695 834,695 834,695 835,695 835,695 836,695 836,695 837,695 837,695 838,695 838,695 839,695 839,695 840,695 840,695 841,695 841,695 842,695 842,695 843,695 843,695 844,695 844,695 845,695 845,695 846,695 846,695 847,695 847,695 848,695 848,695 849,695 850,695 850,695 851,695 851,695 852,695 852,695 853,695 853,695 854,695 854,695 855,695 855,695 856,695 856,695 857,695 857,695 858,695 858,695 859,695 859,695 860,695 860,695 861,695 861,695 862,695 862,695 863,695 863,695 864,695 865,695 865,695 866,695 866,695 867,695 867,695 868,695 868,695 869,695 869,695 870,695 870,695 871,695 871,695 872,695 872,695 873,695 873,695 874,694 874,694 875,694 875,694 876,695 876,695 877,695 877,694 878,694 878,694 879,694 879,694 880,694 881,694 881,694 882,694 882,694 883,694 883,694 884,694 884,694 885,694 885,694 886,694 886,694 887,694 887,694 888,694 888,694 889,694 889,694 890,694 890,694 891,694 891,694 892,694 892,694 893,694 893,694 894,694 894,694 895,694 896,694 896,694 897,694 897,694 898,694 898,694 899,694 899,694 900,694 900,694 901,694 901,694 902,694 902,694 903,694 903,694 904,694 904,694 905,694 905,694 906,694 906,694 907,694 907,694 908,694 908,694 909,694 909,694 910,694 910,694 911,694 912,694 912,694 913,694 913,694 914,694 914,694 915,694 915,694 916,694 916,694 917,694 917,694 918,694 918,694 919,694 919,694 920,694 920,694 921,694 921,694 922,694 922,694 923,694 923,694 924,694 924,694 925,694 925,694 926,694 927,694 927,694 928,694 928,694 929,694 929,694 930,694 930,694 931,694 931,694 932,694 932,694 933,694 933,694 934,694 934,694 935,694 935,694 936,694 936,694 937,694 937,694 938,694 938,694 939,694 939,694 940,694 940,694 941,694 941,694 942,694 943,694 943,694 944,694 944,694 945,694 945,694 946,694 946,694 947,694 947,694 948,694 948,694 949,694 949,694 950,694 950,694 951,694 951,694 952,694 952,694 953,694 953,694 954,694 954,694 955,694 955,694 956,694 956,693 957,693 958,693 958,694 959,694 959,694 960,694 960,694 961,694 961,694 962,694 962,694 963,694 963,694 964,694 964,694 965,694 965,694 966,694 966,694 967,694 967,694 968,694 968,694 969,694 969,694 970,694 970,694 971,694 971,694 972,694 972,694 973,694 974,694 974,694 975,694 975,694 976,694 976,694 977,694 977,694 978,694 978,694 979,694 979,694 980,694 980,694 981,694 981,693 982,693 982,693 983,693 983,693 984,693 984,693 985,693 985,693 985,693 986,693 986,693 987,693 987,693 988,693 989,693 989,693 990,693 990,693 991,693 991,693 992,693 992,693 993,693 993,693 994,693 994,693 995,693 995,693 996,693 996,693 997,693 997,693 998,693 998,693 999,693 999,693 1000,693 1000,693 1001,693 1001,693 1002,693 1002,694 1003,694 1003,694 1004,694 1005,694 1005,694 1006,694 1006,694 1007,694 1007,694 1008,694 1008,694 1009,694 1009,694 1010,694 1010,694 1011,694 1011,694 1012,694 1012,694 1013,694 1013,694 1014,694 1014,694 1015,694 1015,694 1016,694 1016,694 1017,694 1017,694 1018,694 1018,694 1019,694 1020,694 1020,694 1021,694 1021,694 1022,694 1022,694 1023,694 1023,694 1024,694 1024,694 1025,694 1025,694 1026,694 1026,694 1027,694 1027,694 1028,694 1028,694 1029,694 1029,694 1030,694 1030,693 1031,693 1031,693 1032,693 1032,693 1033,693 1033,693 1034,693 1034,693 1035,693 1036,693 1036,693 1037,693 1037,693 1038,693 1038,693 1039,693 1039,693 1040,693 1040,693 1041,693 1041,693 1042,693 1042,693 1043,693 1043,693 1044,693 1044,693 1045,693 1045,693 1046,693 1046,693 1047,693 1047,693 1048,693 1048,693 1049,693 1049,693 1050,693 1051,693 1051,693 1052,693 1052,693 1053,693 1053,693 1054,693 1054,693 1055,693 1055,693 1056,693 1056,693 1057,693 1057,693 1058,693 1058,693 1058,693 1059,693 1059,693 1059,693 1060,693 1060,693 1060,693 1060,693 1061,693 1061,693 1061,693 1062,693 1062,693 1062,693 1062,693 1063,693 1063,693 1063,693 1063,693 1064,693 1064,693 1064,693 1064,693 1065,693 1065,693 1065,693 1065,693 1066,693 1066,693 1067,693 1067,693 1067,693 1068,693 1068,693 1068,693 1069,693 1069,693 1069,693 1069,693 1070,693 1070,693 1070,693 1070,693 1071,693 1071,693 1071,693 1072,693 1072,693 1072,693 1072,693 1073,693 1073,693 1073,693 1073,693 1074,693 1074,693 1074,693 1074,693 1075,693 1075,693 1075,693 1075,693 1076,693 1076,693 1076,693 1077,693 1077,693 1077,693 1077,693 1078,693 1078,693 1078,693 1078,693 1079,693 1079,693 1079,693 1079,693 1080,693 1080,693 1080,693 1080,693 1081,693 1081,693 1082,693 1082,693 1082,693 1082,693 1083,693 1083,693 1084,693 1084,693 1084,693 1084,693 1085,693 1085,693 1085,693 1085,693 1086,693 1086,693 1086,693 1086,693 1087,693 1087,693 1087,693 1087,693 1088,693 1088,693 1088,693 1089,693 1089,693 1089,693 1089,693 1090,693 1090,693 1090,693 1090,693 1091,693 1091,693 1091,693 1092,693 1092,693 1092,693 1092,693 1093,693 1093,693 1093,693 1093,693 1094,693 1094,693 1094,693 1094,693 1095,693 1095,693 1095,693 1095,693 1096,693 1096,693 1096,693 1096,693 1097,693 1097,693 1098,693 1098,693 1098,693 1098,693 1099,693 1099,693 1099,693 1099,693 1100,693 1100,693 1100,693 1100,693 1101,693 1101,693 1101,693 1102,693 1102,693 1102,693 1102,693 1103,693 1103,693 1103,693 1103,693 1104,693 1104,693 1104,693 1104,693 1105,693 1105,693 1105,693 1105,693 1106,693 1106,693 1106,693 1107,693 1107,693 1107,693 1107,693 1108,693 1108,693 1108,693 1108,693 1109,693 1109,693 1109,693 1110,693 1110,693 1110,693 1111,693 1111,693 1111,693 1112,693 1112,693 1113,693 1113,693 1113,693 1113,693 1114,693 1114,693 1114,693 1114,693 1115,693 1115,693 1115,693 1115,693 1116,693 1116,693 1116,693 1116,693 1117,693 1117,693 1117,693 1118,693 1118,693 1118,693 1118,693 1119,693 1119,693 1119,693 1119,693 1120,693 1120,693 1120,693 1120,693 1121,693 1121,693 1121,693 1121,693 1122,693 1122,693 1122,693 1122,693 1123,693 1123,693 1123,693 1123,693 1124,693 1124,693 1124,693 1124,693 1125,693 1125,693 1125,693 1126,693 1126,693 1126,693 1126,693 1127,693 1127,693 1127,693 1127,693 1128,693 1128,693 1129,693 1129,693 1129,693 1130,693 1130,693 1130,693 1130,693 1131,693 1131,693 1131,693 1131,693 1132,693 1132,693 1132,693 1132,693 1133,693 1133,693 1133,693 1133,693 1134,693 1134,693 1134,693 1134,693 1135,693 1135,693 1135,693 1135,693 1136,693 1136,693 1136,693 1136,693 1137,693 1137,693 1137,693 1137,693 1138,693 1138,693 1138,693 1138,693 1139,693 1139,693 1139,693 1140,693 1140,693 1140,693 1140,693 1141,693 1141,693 1141,693 1141,693 1142,693 1142,693 1142,693 1142,693 1143,693 1143,693 1144,693 1144,693 1144,693 1144,693 1145,693 1145,693 1145,693 1145,693 1146,693 1146,693 1146,693 1146,693 1147,693 1147,693 1147,693 1147,693 1148,693 1148,693 1148,693 1148,693 1149,693 1149,693 1149,693 1149,693 1150,693 1150,693 1150,693 1150,693 1151,693 1151,693 1151,693 1151,693 1152,693 1152,693 1152,693 1152,693 1153,693 1153,693 1153,693 1154,693 1154,693 1154,693 1154,693 1155,693 1155,693 1155,693 1156,693 1156,693 1156,693 1156,693 1157,693 1157,693 1157,693 1157,693 1158,693 1158,693 1158,693 1158,693 1159,693 1159,693 1160,693 1160,693 1160,693 1160,693 1161,693 1161,693 1161,693 1162,693 1162,693 1162,693 1162,693 1163,693 1163,693 1163,693 1163,693 1164,693 1164,693 1164,693 1164,693 1165,693 1165,693 1165,693 1165,693 1166,693 1166,693 1166,693 1166,693 1167,693 1167,693 1167,693 1167,693 1168,693 1168,693 1168,693 1168,693 1169,693 1169,693 1169,693 1169,693 1170,693 1170,693 1170,693 1170,693 1171,693 1171,693 1171,693 1171,693 1172,693 1172,693 1172,693 1172,693 1173,693 1173,693 1173,693 1173,693 1174,693 1174,693 1175,693 1175,693 1175,693 1175,693 1176,693 1176,693 1176,693 1176,693 1177,693 1177,693 1177,693 1177,693 1178,693 1178,693 1178,693 1178,693 1179,693 1179,693 1179,693 1179,693 1180,693 1180,693 1180,693 1180,693 1181,693 1181,692 1181,692 1181,692 1182,692 1182,692 1182,692 1182,692 1183,692 1183,692 1183,692 1183,692 1184,692 1184,692 1184,692 1184,692 1185,692 1185,692 1185,692 1186,692 1186,692 1186,692 1186,692 1187,692 1187,692 1187,692 1187,692 1188,692 1188,692 1188,692 1188,692 1189,692 1189,692 1190,692 "/>
<polyline fill="none" opacity="1" stroke="#196BE6" stroke-width="2" points="85,738 93,738 96,738 104,738 105,738 111,738 115,737 122,737 123,737 123,737 128,737 131,737 134,737 139,737 141,737 146,737 147,737 147,736 150,736 153,736 154,736 155,736 155,735 156,735 158,735 161,735 162,735 164,735 165,735 166,734 167,734 170,734 171,734 172,734 172,734 174,734 177,734 179,734 184,734 186,734 192,733 193,733 194,733 196,733 197,733 197,733 198,733 199,733 205,733 206,733 207,733 208,733 212,733 212,733 213,733 215,733 215,733 216,733 217,733 218,733 218,733 219,733 222,733 224,733 226,733 228,732 229,732 230,732 232,732 232,732 233,732 233,732 234,732 236,732 236,732 237,732 238,732 239,732 241,732 242,732 243,732 244,732 245,732 246,732 246,732 247,732 249,732 249,732 250,732 251,732 251,732 253,732 253,732 254,732 255,732 256,732 256,732 258,732 260,731 260,731 262,731 264,731 265,731 266,731 266,731 267,731 267,731 268,731 268,731 269,731 271,731 272,731 274,731 275,730 275,730 278,730 279,730 279,730 282,730 283,730 284,730 285,730 285,730 286,729 286,729 288,729 288,729 289,729 289,729 290,729 291,729 291,729 292,729 293,729 293,729 294,729 294,729 295,729 295,729 296,728 296,728 297,728 297,728 298,728 298,728 299,728 300,728 300,728 301,728 301,728 302,728 302,728 303,728 303,728 304,728 304,728 305,728 305,728 306,728 306,728 307,728 308,728 309,728 309,728 310,728 310,728 311,728 312,728 312,728 313,728 313,728 314,727 314,727 315,727 315,727 316,727 316,727 317,727 317,727 318,727 318,727 319,727 319,727 320,727 320,727 321,727 321,727 322,727 322,727 323,727 324,727 324,726 325,726 325,726 326,726 326,726 327,726 327,726 328,726 328,726 329,726 329,726 330,726 330,726 331,726 331,726 332,726 332,726 333,726 333,726 334,726 334,726 335,726 335,726 336,726 336,726 337,726 337,726 338,726 339,726 339,725 340,725 340,725 341,725 341,725 342,725 342,726 343,726 343,726 344,726 344,726 345,726 345,726 346,726 346,725 347,725 347,725 348,725 348,725 349,725 349,725 350,725 350,725 351,725 351,725 352,725 352,725 353,725 353,725 354,725 355,725 355,725 356,725 356,725 357,725 357,725 358,725 358,725 359,725 359,725 360,725 360,725 361,725 361,725 362,725 362,725 363,725 363,725 364,725 364,725 365,725 365,725 366,725 366,725 367,725 367,725 368,725 368,725 369,725 370,725 370,725 371,725 371,725 372,725 372,725 373,725 373,725 374,725 374,725 375,725 375,725 376,725 376,725 377,724 377,724 378,724 378,724 379,724 379,724 380,724 380,724 381,724 381,724 382,724 382,724 383,724 383,724 384,724 384,724 385,724 386,724 386,724 387,724 387,724 388,724 388,724 389,724 389,724 390,724 390,724 391,724 391,724 392,724 392,724 393,724 393,723 394,723 394,723 395,723 395,723 396,723 396,723 397,723 397,723 398,723 398,723 399,723 399,723 400,723 401,723 401,723 402,723 402,723 403,723 403,723 404,723 404,723 405,723 405,723 406,723 406,722 407,722 407,722 408,722 408,722 409,722 410,722 410,722 411,722 411,722 412,722 412,722 413,722 413,722 414,722 414,722 415,722 415,722 416,722 417,722 417,722 418,722 418,722 419,722 419,722 420,722 420,722 421,722 421,722 422,722 422,722 423,722 423,722 424,722 424,722 425,722 426,722 426,722 427,722 427,721 428,721 428,722 429,722 429,722 430,722 430,722 431,722 432,722 432,722 433,722 433,722 434,722 434,722 435,722 435,722 436,722 436,722 437,721 437,721 438,721 438,721 439,721 439,721 440,721 440,721 441,721 441,721 442,721 442,721 443,721 443,721 444,721 444,721 445,721 446,721 447,721 447,721 448,721 448,721 449,721 449,721 450,721 450,721 451,721 451,721 452,721 452,721 453,721 453,721 454,721 454,721 455,721 455,721 456,721 456,721 457,721 457,721 458,721 458,721 459,721 459,721 460,720 460,721 461,721 461,720 462,720 463,720 463,720 464,720 464,720 465,720 465,720 466,720 466,720 467,720 467,720 468,720 468,720 469,720 469,720 470,719 470,719 471,719 471,719 472,719 472,719 473,719 473,719 474,719 474,719 475,719 475,719 476,719 476,719 477,719 478,719 478,719 479,719 479,719 480,719 481,719 481,719 482,719 482,719 483,719 483,719 484,719 484,719 485,719 485,719 486,719 486,718 487,718 487,718 488,718 488,718 489,718 489,718 490,718 490,718 491,718 491,718 492,718 492,718 493,718 494,718 494,718 495,718 495,718 496,718 496,718 497,718 497,718 498,718 498,718 499,718 499,718 500,718 500,718 501,718 501,718 502,718 502,718 503,718 503,718 504,718 504,718 505,718 505,718 506,718 506,718 507,718 507,718 508,718 509,718 509,718 510,718 510,717 511,717 511,717 512,717 512,717 513,717 513,717 514,717 514,717 515,717 515,717 516,717 516,717 517,717 517,717 518,717 518,717 519,717 519,717 520,717 520,717 521,717 521,717 522,717 522,716 523,716 523,716 524,716 525,716 525,716 526,716 526,716 527,716 527,715 528,715 528,715 529,715 529,715 530,716 530,715 531,715 531,715 532,715 532,715 533,715 533,715 534,715 534,715 535,715 535,715 536,715 536,715 537,715 537,715 538,715 538,715 539,715 540,715 540,715 541,715 541,715 542,715 542,715 543,715 543,715 544,715 544,715 545,715 545,715 546,715 546,715 547,715 547,715 548,715 548,715 549,715 549,715 550,715 550,715 551,715 551,715 552,714 552,714 553,714 553,714 554,714 554,714 555,714 556,714 556,714 557,714 557,714 558,714 558,714 559,714 559,714 560,714 560,714 561,714 561,714 562,714 562,714 563,714 563,714 564,714 564,714 565,714 565,714 566,714 566,714 567,714 567,714 568,714 568,714 569,714 569,714 570,714 571,713 571,713 572,713 572,713 573,713 573,713 574,713 574,713 575,713 575,713 576,713 576,713 577,713 577,713 578,713 578,713 579,713 579,713 580,713 580,713 581,713 581,713 582,713 582,713 583,713 583,713 584,713 584,713 585,713 585,713 586,713 587,713 587,713 588,713 588,713 589,713 589,712 590,712 590,712 591,712 591,712 592,712 592,712 593,712 593,712 594,712 594,712 595,712 595,712 596,712 596,712 597,712 597,712 598,712 598,712 599,712 599,712 600,712 600,712 601,712 602,712 602,712 603,712 603,712 604,712 604,712 605,712 605,712 606,712 606,712 607,712 607,712 608,712 608,712 609,712 609,712 610,712 610,712 611,712 611,712 612,712 612,712 613,712 613,712 614,712 614,712 615,712 615,712 616,712 616,712 617,712 618,712 618,712 619,712 619,712 620,711 620,711 621,711 621,711 622,711 622,711 623,711 623,711 624,711 624,711 625,711 625,711 626,711 626,711 627,711 627,711 628,711 628,711 629,711 629,711 630,711 630,711 631,711 631,711 632,711 633,711 633,711 634,711 634,711 635,711 635,711 636,711 636,711 637,711 637,710 638,710 638,710 639,710 639,710 640,710 640,710 641,710 641,710 642,710 642,710 643,710 643,710 644,710 644,710 645,710 645,710 646,710 646,710 647,710 647,710 648,710 649,710 649,710 650,710 650,710 651,710 651,710 652,710 652,710 653,710 653,710 654,709 654,709 655,709 655,709 656,709 656,709 657,709 657,709 658,709 658,709 659,709 659,709 660,709 660,709 661,708 661,708 662,708 662,708 663,708 664,708 664,708 665,708 665,708 666,708 666,708 667,708 667,708 668,708 668,708 669,708 669,708 670,708 670,708 671,708 671,708 672,708 672,708 673,708 673,708 674,708 674,708 675,708 675,708 676,708 676,708 677,708 677,708 678,708 678,708 679,708 680,708 680,708 681,708 681,708 682,708 682,708 683,708 683,708 684,708 684,708 685,708 685,708 686,708 686,707 687,707 687,707 688,707 688,707 689,707 689,707 690,707 690,707 691,707 691,707 692,707 692,707 693,707 693,707 694,707 695,707 695,707 696,707 696,707 697,707 697,707 698,707 698,707 699,707 699,707 700,707 700,707 701,707 701,707 702,707 702,707 703,707 703,707 704,707 704,707 705,707 705,706 706,706 706,706 707,706 707,706 708,706 708,706 709,706 709,706 710,706 711,706 711,706 712,706 712,706 713,706 713,706 714,706 714,706 715,706 715,706 716,706 716,706 717,706 717,706 718,706 718,706 719,706 719,706 720,706 720,706 721,706 721,706 722,706 722,706 723,706 723,706 724,706 724,706 725,706 726,706 726,706 727,706 727,706 728,706 728,706 729,706 729,706 730,706 730,706 731,706 731,706 732,706 732,706 733,706 733,706 734,706 734,706 735,706 735,706 736,706 736,706 737,706 737,706 738,706 738,706 739,706 739,706 740,706 740,706 741,706 742,706 742,706 743,706 743,706 744,706 744,706 745,706 745,706 746,706 746,706 747,706 747,706 748,706 748,706 749,706 749,706 750,705 750,705 751,705 751,705 752,705 752,705 753,706 753,706 754,706 754,706 755,706 755,705 756,705 757,705 757,705 758,705 758,705 759,705 759,705 760,705 760,705 761,705 761,705 762,705 762,705 763,705 763,705 764,705 764,705 765,705 765,705 766,705 766,705 767,705 767,705 768,705 768,705 769,705 769,705 770,705 770,705 771,705 771,705 772,705 773,705 773,705 774,705 774,704 775,704 775,704 776,704 776,704 777,704 777,704 778,704 778,704 779,704 779,704 780,704 780,704 781,704 781,704 782,704 782,704 783,704 783,704 784,704 784,704 785,704 785,704 786,704 786,704 786,704 787,704 788,704 788,704 789,704 789,704 790,704 790,704 791,704 791,704 792,704 792,704 793,704 793,704 794,704 794,704 795,704 795,704 796,704 796,704 797,704 797,704 798,704 798,703 799,703 799,703 800,703 800,703 801,703 801,703 802,703 802,703 803,703 804,703 804,703 805,703 805,703 806,703 806,703 807,703 807,703 808,703 808,703 809,703 809,703 810,703 810,703 811,703 811,703 812,703 812,703 813,703 813,703 814,703 814,703 815,703 815,703 816,703 816,703 817,703 817,703 818,702 819,702 819,702 820,702 820,702 821,702 821,702 822,702 822,702 823,702 823,702 824,702 824,702 825,702 825,702 826,702 826,701 827,701 827,701 828,701 828,701 829,701 829,701 830,701 830,701 831,701 831,701 832,701 832,701 833,701 834,701 834,701 835,701 835,701 836,701 836,701 837,701 837,701 838,701 838,701 839,701 839,701 840,701 840,701 841,701 841,701 842,701 842,701 843,701 843,701 844,701 844,701 845,701 845,701 846,701 846,701 847,701 847,701 848,701 848,701 849,701 850,701 850,701 851,701 851,701 852,701 852,701 853,701 853,701 854,701 854,701 855,701 855,701 856,701 856,701 857,701 857,701 858,701 858,701 859,701 859,701 860,701 860,701 861,701 861,701 862,701 862,701 863,701 863,701 864,701 865,701 865,701 866,700 866,700 867,700 867,700 868,700 868,700 869,700 869,700 870,700 870,700 871,700 871,700 872,699 872,699 873,699 873,699 874,699 874,699 875,699 875,699 876,699 876,699 877,699 877,699 878,699 878,699 879,699 879,699 880,699 881,699 881,699 882,699 882,699 883,699 883,699 884,699 884,699 885,699 885,699 886,699 886,699 887,699 887,699 888,699 888,699 889,699 889,699 890,699 890,699 891,699 891,699 892,699 892,699 893,699 893,699 894,699 894,699 895,699 896,699 896,699 897,699 897,699 898,699 898,698 899,698 899,698 900,698 900,698 901,698 901,698 902,698 902,698 903,698 903,698 904,698 904,698 905,698 905,698 906,698 906,698 907,698 907,698 908,698 908,697 909,697 909,697 910,697 910,697 911,697 912,697 912,697 913,697 913,697 914,697 914,697 915,697 915,697 916,697 916,697 917,697 917,697 918,697 918,697 919,697 919,697 920,697 920,697 921,697 921,697 922,697 922,697 923,697 923,697 924,697 924,697 925,697 925,697 926,697 927,697 927,697 928,697 928,697 929,697 929,697 930,697 930,697 931,697 931,697 932,697 932,697 933,697 933,697 934,697 934,697 935,697 935,697 936,697 936,697 937,697 937,697 938,697 938,697 939,697 939,697 940,697 940,697 941,697 941,697 942,697 943,697 943,697 944,697 944,697 945,697 945,697 946,697 946,697 947,697 947,697 948,697 948,697 949,697 949,697 950,697 950,697 951,697 951,697 952,697 952,696 953,696 953,696 954,696 954,696 955,696 955,696 956,696 956,696 957,696 958,696 958,696 959,696 959,696 960,696 960,696 961,696 961,696 962,696 962,696 963,696 963,696 964,696 964,696 965,696 965,696 966,696 966,696 967,696 967,696 968,695 968,695 969,695 969,695 970,695 970,695 971,695 971,695 972,695 972,695 973,695 974,695 974,695 975,695 975,695 976,695 976,695 977,695 977,695 978,695 978,695 979,695 979,695 980,695 980,695 981,695 981,695 982,695 982,695 983,695 983,695 984,695 984,695 985,695 985,695 985,695 986,695 986,695 987,695 987,695 988,694 989,694 989,694 990,694 990,694 991,694 991,694 992,694 992,694 993,694 993,694 994,694 994,694 995,694 995,694 996,694 996,694 997,694 997,694 998,694 998,694 999,694 999,694 1000,694 1000,694 1001,694 1001,694 1002,693 1002,693 1003,693 1003,693 1004,693 1005,693 1005,693 1006,693 1006,693 1007,693 1007,693 1008,693 1008,693 1009,693 1009,693 1010,693 1010,693 1011,693 1011,693 1012,693 1012,693 1013,693 1013,693 1014,693 1014,693 1015,693 1015,693 1016,693 1016,693 1017,693 1017,693 1018,693 1018,693 1019,693 1020,693 1020,693 1021,693 1021,693 1022,693 1022,693 1023,693 1023,693 1024,693 1024,692 1025,692 1025,692 1026,692 1026,693 1027,693 1027,693 1028,693 1028,693 1029,693 1029,693 1030,693 1030,693 1031,693 1031,693 1032,693 1032,693 1033,693 1033,693 1034,693 1034,693 1035,693 1036,692 1036,693 1037,693 1037,693 1038,693 1038,693 1039,693 1039,693 1040,693 1040,693 1041,693 1041,693 1042,693 1042,693 1043,693 1043,693 1044,692 1044,692 1045,692 1045,692 1046,692 1046,692 1047,692 1047,692 1048,692 1048,692 1049,692 1049,692 1050,692 1051,692 1051,692 1052,692 1052,692 1053,692 1053,692 1054,692 1054,692 1055,692 1055,692 1056,692 1056,692 1057,692 1057,692 1058,692 1058,692 1058,692 1059,692 1059,692 1059,692 1060,692 1060,692 1060,692 1060,692 1061,692 1061,692 1061,692 1062,692 1062,692 1062,692 1062,692 1063,692 1063,692 1063,692 1063,692 1064,692 1064,692 1064,692 1064,692 1065,692 1065,692 1065,692 1065,692 1066,692 1066,692 1067,692 1067,692 1067,692 1068,692 1068,692 1068,692 1069,692 1069,692 1069,692 1069,692 1070,692 1070,691 1070,691 1070,691 1071,691 1071,691 1071,691 1072,691 1072,691 1072,691 1072,691 1073,691 1073,691 1073,691 1073,691 1074,691 1074,691 1074,691 1074,691 1075,691 1075,691 1075,691 1075,691 1076,691 1076,691 1076,691 1077,691 1077,691 1077,691 1077,691 1078,691 1078,691 1078,691 1078,691 1079,691 1079,691 1079,691 1079,691 1080,691 1080,691 1080,691 1080,691 1081,691 1081,691 1082,691 1082,691 1082,691 1082,691 1083,691 1083,691 1084,691 1084,691 1084,691 1084,691 1085,691 1085,691 1085,691 1085,691 1086,691 1086,691 1086,691 1086,691 1087,691 1087,691 1087,691 1087,691 1088,691 1088,691 1088,691 1089,691 1089,691 1089,691 1089,691 1090,691 1090,691 1090,691 1090,690 1091,690 1091,690 1091,690 1092,690 1092,690 1092,690 1092,690 1093,690 1093,690 1093,690 1093,690 1094,690 1094,690 1094,690 1094,690 1095,690 1095,690 1095,690 1095,690 1096,690 1096,690 1096,690 1096,690 1097,690 1097,690 1098,690 1098,690 1098,690 1098,690 1099,690 1099,690 1099,690 1099,690 1100,690 1100,690 1100,690 1100,690 1101,690 1101,690 1101,690 1102,690 1102,690 1102,690 1102,690 1103,690 1103,681 1103,681 1103,681 1104,681 1104,681 1104,681 1104,681 1105,681 1105,681 1105,681 1105,681 1106,681 1106,680 1106,680 1107,680 1107,680 1107,680 1107,680 1108,680 1108,680 1108,680 1108,680 1109,680 1109,680 1109,680 1110,680 1110,680 1110,680 1111,680 1111,680 1111,680 1112,680 1112,680 1113,680 1113,680 1113,680 1113,680 1114,680 1114,679 1114,679 1114,679 1115,679 1115,679 1115,679 1115,679 1116,679 1116,679 1116,679 1116,679 1117,679 1117,679 1117,679 1118,679 1118,679 1118,679 1118,679 1119,679 1119,679 1119,679 1119,679 1120,679 1120,679 1120,679 1120,679 1121,679 1121,679 1121,679 1121,680 1122,680 1122,680 1122,680 1122,680 1123,680 1123,680 1123,680 1123,679 1124,679 1124,679 1124,679 1124,679 1125,679 1125,679 1125,679 1126,679 1126,679 1126,679 1126,679 1127,679 1127,679 1127,679 1127,679 1128,679 1128,679 1129,679 1129,679 1129,679 1130,679 1130,679 1130,679 1130,679 1131,679 1131,679 1131,679 1131,679 1132,679 1132,679 1132,679 1132,679 1133,679 1133,678 1133,678 1133,678 1134,678 1134,678 1134,678 1134,678 1135,678 1135,678 1135,678 1135,678 1136,678 1136,678 1136,678 1136,678 1137,678 1137,678 1137,678 1137,678 1138,678 1138,678 1138,678 1138,678 1139,678 1139,678 1139,678 1140,678 1140,678 1140,678 1140,678 1141,678 1141,678 1141,678 1141,678 1142,678 1142,678 1142,678 1142,678 1143,678 1143,678 1144,678 1144,678 1144,678 1144,678 1145,678 1145,678 1145,678 1145,678 1146,678 1146,678 1146,678 1146,678 1147,678 1147,678 1147,678 1147,678 1148,678 1148,678 1148,678 1148,678 1149,678 1149,678 1149,678 1149,678 1150,678 1150,678 1150,678 1150,678 1151,678 1151,678 1151,678 1151,678 1152,678 1152,678 1152,678 1152,678 1153,678 1153,678 1153,678 1154,678 1154,678 1154,678 1154,678 1155,678 1155,678 1155,678 1156,678 1156,678 1156,678 1156,678 1157,678 1157,678 1157,678 1157,678 1158,678 1158,678 1158,678 1158,678 1159,678 1159,678 1160,678 1160,678 1160,678 1160,678 1161,678 1161,678 1161,678 1162,678 1162,678 1162,678 1162,678 1163,678 1163,678 1163,678 1163,678 1164,678 1164,678 1164,678 1164,678 1165,678 1165,678 1165,678 1165,678 1166,678 1166,678 1166,678 1166,678 1167,678 1167,678 1167,678 1167,678 1168,678 1168,677 1168,677 1168,677 1169,677 1169,677 1169,677 1169,677 1170,677 1170,677 1170,677 1170,677 1171,677 1171,677 1171,677 1171,677 1172,677 1172,677 1172,677 1172,677 1173,677 1173,677 1173,677 1173,677 1174,677 1174,677 1175,677 1175,677 1175,677 1175,677 1176,677 1176,677 1176,677 1176,677 1177,677 1177,677 1177,677 1177,677 1178,677 1178,677 1178,677 1178,677 1179,677 1179,677 1179,677 1179,677 1180,677 1180,677 1180,677 1180,677 1181,677 1181,677 1181,677 1181,677 1182,677 1182,677 1182,677 1182,677 1183,677 1183,677 1183,677 1183,677 1184,677 1184,677 1184,677 1184,677 1185,677 1185,677 1185,677 1186,677 1186,677 1186,677 1186,677 1187,677 1187,677 1187,677 1187,677 1188,677 1188,677 1188,677 1188,677 1189,677 1189,677 1190,677 "/>
<polyline fill="none" opacity="1" stroke="#BD19E6" stroke-width="2" points="492,738 493,738 513,738 530,738 548,738 549,738 557,737 568,737 572,737 576,737 583,737 586,736 588,736 590,736 595,736 610,736 611,735 616,735 622,735 628,735 629,735 630,735 631,734 634,734 635,734 639,734 639,733 643,733 643,733 644,733 644,733 645,733 648,733 649,733 649,733 650,733 652,733 654,733 655,732 655,732 657,732 658,732 659,732 660,731 660,731 661,731 662,731 662,731 663,731 664,731 665,731 666,731 668,731 669,730 670,730 672,730 673,730 675,730 675,730 677,729 680,729 681,729 681,729 684,729 686,728 687,728 687,728 691,728 692,727 692,727 693,727 696,727 697,727 698,726 698,726 699,726 699,726 700,726 700,725 701,725 702,725 702,725 703,725 703,724 704,724 705,724 706,724 707,724 707,723 708,723 709,723 709,722 710,722 711,722 711,722 712,722 712,722 713,722 713,722 714,722 714,721 715,721 715,721 716,721 716,721 717,720 717,720 718,720 719,719 720,719 721,719 721,719 722,719 722,718 723,718 724,718 725,717 726,717 726,717 727,717 727,717 728,717 728,717 729,717 729,716 730,716 730,716 731,716 731,716 732,716 732,716 733,716 733,716 734,716 734,716 735,716 735,715 736,715 736,715 737,715 737,715 738,715 738,715 739,715 739,715 740,715 740,715 742,715 742,715 743,714 743,714 744,714 744,714 745,714 745,714 746,714 746,713 747,713 748,713 748,713 749,713 749,713 750,713 750,713 751,713 751,712 752,712 752,712 753,712 753,712 754,711 754,711 755,711 755,711 756,711 757,711 757,711 758,711 759,711 759,711 760,711 760,711 761,711 761,711 762,711 762,710 763,710 763,710 764,710 764,710 765,710 765,710 766,709 766,709 767,708 767,708 768,708 768,708 769,708 769,708 770,708 770,708 771,707 771,707 772,707 773,707 774,707 774,707 775,707 775,707 776,706 777,706 777,706 778,705 779,705 779,705 780,705 780,705 781,705 781,705 782,705 783,705 783,705 784,705 784,705 785,704 785,704 786,704 786,704 786,704 787,704 788,704 788,704 789,703 790,703 790,703 791,703 791,703 792,702 792,702 793,702 793,701 794,701 794,701 795,701 795,701 796,700 796,700 797,700 797,700 798,700 798,700 799,699 799,699 800,699 800,699 801,698 801,698 802,698 802,698 803,698 804,698 804,698 805,697 805,697 806,697 806,697 807,697 807,697 808,697 808,696 809,696 809,696 810,696 810,695 811,695 811,695 812,695 812,695 813,695 813,695 814,695 814,695 815,695 816,695 816,695 817,695 817,695 818,695 819,695 819,695 820,695 820,694 821,694 821,694 822,694 822,694 823,694 823,694 824,694 824,693 825,693 825,693 826,693 826,693 827,692 827,692 828,692 828,691 829,691 829,691 830,690 830,690 831,690 831,690 832,690 832,690 833,689 834,689 834,689 835,688 835,688 836,688 836,687 837,687 837,687 838,687 838,686 839,686 839,685 840,685 840,685 841,684 841,684 842,684 842,683 843,683 843,682 844,682 844,682 845,681 845,681 846,681 846,681 847,681 847,681 848,680 848,680 849,680 850,680 850,680 851,680 851,679 852,679 852,679 853,679 853,679 854,678 854,678 855,677 855,677 856,677 856,677 857,677 857,677 858,676 858,676 859,676 859,676 860,675 860,675 861,675 861,675 862,675 862,675 863,675 863,675 864,675 865,674 865,674 866,674 866,674 867,673 867,673 868,673 868,673 869,673 869,672 870,672 870,671 871,671 871,671 872,670 872,670 873,669 873,669 874,669 874,669 875,668 875,668 876,668 876,667 877,667 877,667 878,667 878,666 879,666 879,666 880,666 881,666 881,665 882,665 882,665 883,665 883,664 884,664 884,664 885,664 885,664 886,664 886,663 887,663 887,663 888,663 888,662 889,662 889,661 890,661 890,661 891,661 891,661 892,661 892,661 893,661 893,661 894,661 894,660 895,660 896,659 896,659 897,659 897,659 898,659 898,658 899,658 899,658 900,658 900,657 901,657 901,657 902,656 902,656 903,656 903,656 904,656 904,655 905,655 905,655 906,655 906,654 907,654 907,653 908,653 908,653 909,653 909,653 910,652 910,652 911,652 912,652 912,651 913,651 913,651 914,651 914,651 915,651 915,651 916,650 916,650 917,649 917,649 918,649 918,649 919,649 919,648 920,648 920,648 921,647 921,647 922,647 922,647 923,646 923,646 924,646 924,645 925,645 925,645 926,645 927,645 927,644 928,644 928,644 929,643 929,643 930,643 930,643 931,643 931,643 932,643 932,642 933,642 933,642 934,642 934,642 935,642 935,641 936,640 936,640 937,640 937,640 938,639 938,639 939,639 939,639 940,638 940,638 941,638 941,638 942,638 943,637 943,637 944,637 944,636 945,636 945,636 946,635 946,635 947,635 947,634 948,634 948,634 949,633 949,633 950,633 950,632 951,632 951,632 952,631 952,631 953,631 953,631 954,630 954,630 955,629 956,629 956,629 957,629 958,628 958,628 959,628 959,628 960,628 960,627 961,627 961,627 962,626 962,626 963,625 963,625 964,625 964,624 965,624 965,623 966,623 966,623 967,622 967,622 968,622 968,622 969,622 969,621 970,621 970,620 971,620 971,619 972,619 972,619 973,618 974,618 974,617 975,617 975,616 976,615 976,615 977,615 977,614 978,614 978,614 979,613 979,613 980,612 980,612 981,612 981,612 982,611 982,611 983,611 983,610 984,609 984,609 985,609 985,609 985,608 986,608 986,608 987,607 987,607 988,607 989,606 989,604 990,604 990,603 991,603 991,602 992,602 992,602 993,602 993,602 994,601 994,601 995,601 995,601 996,601 996,600 997,599 997,599 998,599 998,598 999,598 999,597 1000,597 1000,597 1001,596 1001,596 1002,596 1002,595 1003,595 1003,595 1004,594 1005,594 1005,593 1006,593 1006,593 1007,593 1007,592 1008,592 1008,592 1009,592 1009,591 1010,591 1010,591 1011,590 1011,589 1012,589 1012,588 1013,588 1013,588 1014,588 1014,588 1015,587 1015,586 1016,586 1016,585 1017,585 1017,584 1018,584 1018,583 1019,583 1020,583 1020,582 1021,582 1021,582 1022,581 1022,581 1023,581 1023,580 1024,580 1024,580 1025,579 1025,579 1026,579 1026,578 1027,578 1027,578 1028,577 1028,576 1029,576 1029,576 1030,575 1030,575 1031,574 1031,574 1032,573 1032,573 1033,573 1033,573 1034,572 1034,572 1035,572 1036,571 1036,571 1037,571 1037,570 1038,570 1038,569 1039,569 1039,569 1040,569 1040,569 1041,568 1041,568 1042,567 1042,567 1043,566 1043,566 1044,565 1044,565 1045,565 1045,564 1046,564 1046,563 1047,563 1047,563 1048,562 1048,562 1049,562 1049,561 1050,560 1051,560 1051,559 1052,559 1052,558 1053,558 1053,557 1054,557 1054,556 1055,556 1055,555 1056,555 1056,554 1057,554 1057,554 1058,554 1058,553 1058,553 1059,553 1059,553 1059,552 1060,552 1060,551 1060,551 1060,551 1061,551 1061,551 1061,551 1062,551 1062,550 1062,550 1062,549 1063,549 1063,549 1063,549 1063,549 1064,549 1064,549 1064,549 1064,548 1065,548 1065,548 1065,548 1065,547 1066,547 1066,547 1067,546 1067,546 1067,545 1068,545 1068,545 1068,545 1069,545 1069,544 1069,544 1069,544 1070,544 1070,544 1070,544 1070,543 1071,543 1071,543 1071,543 1072,543 1072,542 1072,542 1072,541 1073,541 1073,541 1073,541 1073,539 1074,539 1074,539 1074,539 1074,539 1075,539 1075,539 1075,539 1075,538 1076,538 1076,538 1076,537 1077,537 1077,537 1077,537 1077,536 1078,536 1078,536 1078,536 1078,535 1079,535 1079,535 1079,535 1079,534 1080,534 1080,534 1080,534 1080,534 1081,534 1081,533 1082,533 1082,533 1082,533 1082,532 1083,531 1083,531 1084,531 1084,531 1084,531 1084,529 1085,529 1085,529 1085,529 1085,529 1086,529 1086,529 1086,529 1086,529 1087,529 1087,528 1087,528 1087,528 1088,528 1088,527 1088,527 1089,527 1089,526 1089,526 1089,525 1090,525 1090,525 1090,525 1090,524 1091,524 1091,523 1091,523 1092,523 1092,522 1092,522 1092,522 1093,522 1093,521 1093,521 1093,520 1094,520 1094,520 1094,520 1094,520 1095,520 1095,519 1095,519 1095,518 1096,518 1096,518 1096,517 1097,517 1097,516 1098,516 1098,516 1098,516 1098,516 1099,516 1099,515 1099,515 1099,514 1100,514 1100,512 1100,512 1100,512 1101,512 1101,511 1101,510 1102,510 1102,510 1102,510 1102,510 1103,510 1103,509 1103,509 1103,509 1104,509 1104,509 1104,509 1104,509 1105,509 1105,508 1105,508 1105,507 1106,507 1106,507 1106,506 1107,506 1107,505 1107,505 1107,505 1108,505 1108,504 1108,504 1108,504 1109,504 1109,503 1109,502 1110,502 1110,502 1110,502 1111,501 1111,501 1111,501 1112,501 1112,501 1113,501 1113,501 1113,501 1113,500 1114,500 1114,500 1114,500 1114,500 1115,500 1115,499 1115,499 1115,499 1116,499 1116,499 1116,499 1116,498 1117,498 1117,498 1117,497 1118,497 1118,497 1118,497 1118,497 1119,497 1119,497 1119,497 1119,496 1120,496 1120,496 1120,496 1120,496 1121,496 1121,494 1121,494 1121,494 1122,494 1122,494 1122,494 1122,494 1123,494 1123,493 1123,493 1123,492 1124,492 1124,492 1124,492 1124,491 1125,491 1125,491 1125,491 1126,491 1126,491 1126,491 1126,491 1127,491 1127,491 1127,491 1127,490 1128,490 1128,489 1129,489 1129,489 1129,489 1130,489 1130,489 1130,489 1130,489 1131,489 1131,488 1131,488 1131,488 1132,488 1132,487 1132,487 1132,487 1133,487 1133,486 1133,486 1133,485 1134,485 1134,485 1134,485 1134,485 1135,485 1135,485 1135,485 1135,484 1136,484 1136,484 1136,484 1136,483 1137,483 1137,483 1137,483 1137,482 1138,482 1138,482 1138,482 1138,482 1139,482 1139,482 1139,481 1140,481 1140,480 1140,480 1140,480 1141,480 1141,480 1141,480 1141,479 1142,479 1142,478 1142,478 1142,478 1143,478 1143,477 1144,477 1144,477 1144,477 1144,477 1145,477 1145,476 1145,476 1145,475 1146,475 1146,475 1146,475 1146,475 1147,475 1147,474 1147,474 1147,473 1148,473 1148,473 1148,473 1148,473 1149,473 1149,472 1149,472 1149,471 1150,471 1150,471 1150,471 1150,470 1151,470 1151,469 1151,469 1151,468 1152,467 1152,466 1152,466 1152,466 1153,466 1153,466 1153,465 1154,465 1154,464 1154,464 1154,464 1155,463 1155,463 1155,463 1156,463 1156,462 1156,462 1156,462 1157,462 1157,461 1157,461 1157,461 1158,461 1158,461 1158,461 1158,461 1159,461 1159,460 1160,460 1160,459 1160,459 1160,459 1161,459 1161,459 1161,459 1162,459 1162,459 1162,459 1162,458 1163,458 1163,457 1163,457 1163,457 1164,457 1164,456 1164,456 1164,456 1165,456 1165,455 1165,455 1165,455 1166,455 1166,454 1166,454 1166,454 1167,454 1167,453 1167,453 1167,453 1168,453 1168,452 1168,452 1168,452 1169,452 1169,452 1169,452 1169,452 1170,452 1170,452 1170,452 1170,452 1171,452 1171,451 1171,451 1171,451 1172,451 1172,450 1172,450 1172,449 1173,449 1173,449 1173,449 1173,449 1174,449 1174,448 1175,448 1175,448 1175,448 1175,447 1176,447 1176,446 1176,446 1176,446 1177,446 1177,446 1177,446 1177,445 1178,445 1178,445 1178,445 1178,444 1179,444 1179,444 1179,444 1179,443 1180,442 1180,442 1180,442 1180,441 1181,441 1181,441 1181,441 1181,440 1182,440 1182,440 1182,440 1182,440 1183,440 1183,440 1183,440 1183,440 1184,440 1184,439 1184,439 1184,439 1185,439 1185,439 1185,438 1186,438 1186,438 1186,438 1186,438 1187,438 1187,437 1187,437 1187,437 1188,437 1188,436 1188,436 1188,436 1189,436 1189,436 1190,436 "/>
<rect x="1088" y="329" width="97" height="91" opacity="1" fill="#FFFFFF" stroke="none"/>
<rect x="1088" y="329" width="97" height="91" opacity="1" fill="none" stroke="#000000"/>
<text x="1128" y="339" dy="0.76em" text-anchor="start" font-family="sans-serif" font-size="9.67741935483871" opacity="1" fill="#000000">
argparse
</text>
<text x="1128" y="354" dy="0.76em" text-anchor="start" font-family="sans-serif" font-size="9.67741935483871" opacity="1" fill="#000000">
clap
</text>
<text x="1128" y="369" dy="0.76em" text-anchor="start" font-family="sans-serif" font-size="9.67741935483871" opacity="1" fill="#000000">
docopt
</text>
<text x="1128" y="384" dy="0.76em" text-anchor="start" font-family="sans-serif" font-size="9.67741935483871" opacity="1" fill="#000000">
getopts
</text>
<text x="1128" y="399" dy="0.76em" text-anchor="start" font-family="sans-serif" font-size="9.67741935483871" opacity="1" fill="#000000">
structopt
</text>
<polyline fill="none" opacity="1" stroke="#E61919" stroke-width="2" points="1098,343 1118,343 "/>
<polyline fill="none" opacity="1" stroke="#BDE619" stroke-width="2" points="1098,359 1118,359 "/>
<polyline fill="none" opacity="1" stroke="#19E66B" stroke-width="2" points="1098,374 1118,374 "/>
<polyline fill="none" opacity="1" stroke="#196BE6" stroke-width="2" points="1098,389 1118,389 "/>
<polyline fill="none" opacity="1" stroke="#BD19E6" stroke-width="2" points="1098,404 1118,404 "/>
</svg>
