<svg width="1200" height="800" xmlns="http://www.w3.org/2000/svg">
<rect x="0" y="0" width="1199" height="799" opacity="1" fill="#FFFFFF" stroke="none"/>
<line opacity="0.1" stroke="#000000" stroke-width="1" x1="60" y1="730" x2="1190" y2="730"/>
<line opacity="0.1" stroke="#000000" stroke-width="1" x1="60" y1="721" x2="1190" y2="721"/>
<line opacity="0.1" stroke="#000000" stroke-width="1" x1="60" y1="712" x2="1190" y2="712"/>
<line opacity="0.1" stroke="#000000" stroke-width="1" x1="60" y1="703" x2="1190" y2="703"/>
<line opacity="0.1" stroke="#000000" stroke-width="1" x1="60" y1="695" x2="1190" y2="695"/>
<line opacity="0.1" stroke="#000000" stroke-width="1" x1="60" y1="686" x2="1190" y2="686"/>
<line opacity="0.1" stroke="#000000" stroke-width="1" x1="60" y1="677" x2="1190" y2="677"/>
<line opacity="0.1" stroke="#000000" stroke-width="1" x1="60" y1="668" x2="1190" y2="668"/>
<line opacity="0.1" stroke="#000000" stroke-width="1" x1="60" y1="659" x2="1190" y2="659"/>
<line opacity="0.1" stroke="#000000" stroke-width="1" x1="60" y1="651" x2="1190" y2="651"/>
<line opacity="0.1" stroke="#000000" stroke-width="1" x1="60" y1="642" x2="1190" y2="642"/>
<line opacity="0.1" stroke="#000000" stroke-width="1" x1="60" y1="633" x2="1190" y2="633"/>
<line opacity="0.1" stroke="#000000" stroke-width="1" x1="60" y1="624" x2="1190" y2="624"/>
<line opacity="0.1" stroke="#000000" stroke-width="1" x1="60" y1="615" x2="1190" y2="615"/>
<line opacity="0.1" stroke="#000000" stroke-width="1" x1="60" y1="606" x2="1190" y2="606"/>
<line opacity="0.1" stroke="#000000" stroke-width="1" x1="60" y1="598" x2="1190" y2="598"/>
<line opacity="0.1" stroke="#000000" stroke-width="1" x1="60" y1="589" x2="1190" y2="589"/>
<line opacity="0.1" stroke="#000000" stroke-width="1" x1="60" y1="580" x2="1190" y2="580"/>
<line opacity="0.1" stroke="#000000" stroke-width="1" x1="60" y1="571" x2="1190" y2="571"/>
<line opacity="0.1" stroke="#000000" stroke-width="1" x1="60" y1="562" x2="1190" y2="562"/>
<line opacity="0.1" stroke="#000000" stroke-width="1" x1="60" y1="554" x2="1190" y2="554"/>
<line opacity="0.1" stroke="#000000" stroke-width="1" x1="60" y1="545" x2="1190" y2="545"/>
<line opacity="0.1" stroke="#000000" stroke-width="1" x1="60" y1="536" x2="1190" y2="536"/>
<line opacity="0.1" stroke="#000000" stroke-width="1" x1="60" y1="527" x2="1190" y2="527"/>
<line opacity="0.1" stroke="#000000" stroke-width="1" x1="60" y1="518" x2="1190" y2="518"/>
<line opacity="0.1" stroke="#000000" stroke-width="1" x1="60" y1="509" x2="1190" y2="509"/>
<line opacity="0.1" stroke="#000000" stroke-width="1" x1="60" y1="501" x2="1190" y2="501"/>
<line opacity="0.1" stroke="#000000" stroke-width="1" x1="60" y1="492" x2="1190" y2="492"/>
<line opacity="0.1" stroke="#000000" stroke-width="1" x1="60" y1="483" x2="1190" y2="483"/>
<line opacity="0.1" stroke="#000000" stroke-width="1" x1="60" y1="474" x2="1190" y2="474"/>
<line opacity="0.1" stroke="#000000" stroke-width="1" x1="60" y1="465" x2="1190" y2="465"/>
<line opacity="0.1" stroke="#000000" stroke-width="1" x1="60" y1="457" x2="1190" y2="457"/>
<line opacity="0.1" stroke="#000000" stroke-width="1" x1="60" y1="448" x2="1190" y2="448"/>
<line opacity="0.1" stroke="#000000" stroke-width="1" x1="60" y1="439" x2="1190" y2="439"/>
<line opacity="0.1" stroke="#000000" stroke-width="1" x1="60" y1="430" x2="1190" y2="430"/>
<line opacity="0.1" stroke="#000000" stroke-width="1" x1="60" y1="421" x2="1190" y2="421"/>
<line opacity="0.1" stroke="#000000" stroke-width="1" x1="60" y1="412" x2="1190" y2="412"/>
<line opacity="0.1" stroke="#000000" stroke-width="1" x1="60" y1="404" x2="1190" y2="404"/>
<line opacity="0.1" stroke="#000000" stroke-width="1" x1="60" y1="395" x2="1190" y2="395"/>
<line opacity="0.1" stroke="#000000" stroke-width="1" x1="60" y1="386" x2="1190" y2="386"/>
<line opacity="0.1" stroke="#000000" stroke-width="1" x1="60" y1="377" x2="1190" y2="377"/>
<line opacity="0.1" stroke="#000000" stroke-width="1" x1="60" y1="368" x2="1190" y2="368"/>
<line opacity="0.1" stroke="#000000" stroke-width="1" x1="60" y1="360" x2="1190" y2="360"/>
<line opacity="0.1" stroke="#000000" stroke-width="1" x1="60" y1="351" x2="1190" y2="351"/>
<line opacity="0.1" stroke="#000000" stroke-width="1" x1="60" y1="342" x2="1190" y2="342"/>
<line opacity="0.1" stroke="#000000" stroke-width="1" x1="60" y1="333" x2="1190" y2="333"/>
<line opacity="0.1" stroke="#000000" stroke-width="1" x1="60" y1="324" x2="1190" y2="324"/>
<line opacity="0.1" stroke="#000000" stroke-width="1" x1="60" y1="316" x2="1190" y2="316"/>
<line opacity="0.1" stroke="#000000" stroke-width="1" x1="60" y1="307" x2="1190" y2="307"/>
<line opacity="0.1" stroke="#000000" stroke-width="1" x1="60" y1="298" x2="1190" y2="298"/>
<line opacity="0.1" stroke="#000000" stroke-width="1" x1="60" y1="289" x2="1190" y2="289"/>
<line opacity="0.1" stroke="#000000" stroke-width="1" x1="60" y1="280" x2="1190" y2="280"/>
<line opacity="0.1" stroke="#000000" stroke-width="1" x1="60" y1="271" x2="1190" y2="271"/>
<line opacity="0.1" stroke="#000000" stroke-width="1" x1="60" y1="263" x2="1190" y2="263"/>
<line opacity="0.1" stroke="#000000" stroke-width="1" x1="60" y1="254" x2="1190" y2="254"/>
<line opacity="0.1" stroke="#000000" stroke-width="1" x1="60" y1="245" x2="1190" y2="245"/>
<line opacity="0.1" stroke="#000000" stroke-width="1" x1="60" y1="236" x2="1190" y2="236"/>
<line opacity="0.1" stroke="#000000" stroke-width="1" x1="60" y1="227" x2="1190" y2="227"/>
<line opacity="0.1" stroke="#000000" stroke-width="1" x1="60" y1="219" x2="1190" y2="219"/>
<line opacity="0.1" stroke="#000000" stroke-width="1" x1="60" y1="210" x2="1190" y2="210"/>
<line opacity="0.1" stroke="#000000" stroke-width="1" x1="60" y1="201" x2="1190" y2="201"/>
<line opacity="0.1" stroke="#000000" stroke-width="1" x1="60" y1="192" x2="1190" y2="192"/>
<line opacity="0.1" stroke="#000000" stroke-width="1" x1="60" y1="183" x2="1190" y2="183"/>
<line opacity="0.1" stroke="#000000" stroke-width="1" x1="60" y1="174" x2="1190" y2="174"/>
<line opacity="0.1" stroke="#000000" stroke-width="1" x1="60" y1="166" x2="1190" y2="166"/>
<line opacity="0.1" stroke="#000000" stroke-width="1" x1="60" y1="157" x2="1190" y2="157"/>
<line opacity="0.1" stroke="#000000" stroke-width="1" x1="60" y1="148" x2="1190" y2="148"/>
<line opacity="0.1" stroke="#000000" stroke-width="1" x1="60" y1="139" x2="1190" y2="139"/>
<line opacity="0.1" stroke="#000000" stroke-width="1" x1="60" y1="130" x2="1190" y2="130"/>
<line opacity="0.1" stroke="#000000" stroke-width="1" x1="60" y1="122" x2="1190" y2="122"/>
<line opacity="0.1" stroke="#000000" stroke-width="1" x1="60" y1="113" x2="1190" y2="113"/>
<line opacity="0.1" stroke="#000000" stroke-width="1" x1="60" y1="104" x2="1190" y2="104"/>
<line opacity="0.1" stroke="#000000" stroke-width="1" x1="60" y1="95" x2="1190" y2="95"/>
<line opacity="0.1" stroke="#000000" stroke-width="1" x1="60" y1="86" x2="1190" y2="86"/>
<line opacity="0.1" stroke="#000000" stroke-width="1" x1="60" y1="78" x2="1190" y2="78"/>
<line opacity="0.1" stroke="#000000" stroke-width="1" x1="60" y1="69" x2="1190" y2="69"/>
<line opacity="0.1" stroke="#000000" stroke-width="1" x1="60" y1="60" x2="1190" y2="60"/>
<line opacity="0.1" stroke="#000000" stroke-width="1" x1="60" y1="51" x2="1190" y2="51"/>
<line opacity="0.1" stroke="#000000" stroke-width="1" x1="60" y1="42" x2="1190" y2="42"/>
<line opacity="0.1" stroke="#000000" stroke-width="1" x1="60" y1="33" x2="1190" y2="33"/>
<line opacity="0.1" stroke="#000000" stroke-width="1" x1="60" y1="25" x2="1190" y2="25"/>
<line opacity="0.1" stroke="#000000" stroke-width="1" x1="60" y1="16" x2="1190" y2="16"/>
<text x="10" y="375" dy="0.76em" text-anchor="middle" font-family="sans-serif" font-size="9.67741935483871" opacity="1" fill="#000000" transform="rotate(270, 10, 375)">
Number of dependent crates
</text>
<line opacity="0.2" stroke="#000000" stroke-width="1" x1="60" y1="651" x2="1190" y2="651"/>
<line opacity="0.2" stroke="#000000" stroke-width="1" x1="60" y1="562" x2="1190" y2="562"/>
<line opacity="0.2" stroke="#000000" stroke-width="1" x1="60" y1="474" x2="1190" y2="474"/>
<line opacity="0.2" stroke="#000000" stroke-width="1" x1="60" y1="386" x2="1190" y2="386"/>
<line opacity="0.2" stroke="#000000" stroke-width="1" x1="60" y1="298" x2="1190" y2="298"/>
<line opacity="0.2" stroke="#000000" stroke-width="1" x1="60" y1="210" x2="1190" y2="210"/>
<line opacity="0.2" stroke="#000000" stroke-width="1" x1="60" y1="122" x2="1190" y2="122"/>
<line opacity="0.2" stroke="#000000" stroke-width="1" x1="60" y1="33" x2="1190" y2="33"/>
<polyline fill="none" opacity="1" stroke="#000000" stroke-width="1" points="59,10 59,740 "/>
<text x="50" y="651" dy="0.5ex" text-anchor="end" font-family="sans-serif" font-size="9.67741935483871" opacity="1" fill="#000000">
500
</text>
<polyline fill="none" opacity="1" stroke="#000000" stroke-width="1" points="54,651 59,651 "/>
<text x="50" y="562" dy="0.5ex" text-anchor="end" font-family="sans-serif" font-size="9.67741935483871" opacity="1" fill="#000000">
1000
</text>
<polyline fill="none" opacity="1" stroke="#000000" stroke-width="1" points="54,562 59,562 "/>
<text x="50" y="474" dy="0.5ex" text-anchor="end" font-family="sans-serif" font-size="9.67741935483871" opacity="1" fill="#000000">
1500
</text>
<polyline fill="none" opacity="1" stroke="#000000" stroke-width="1" points="54,474 59,474 "/>
<text x="50" y="386" dy="0.5ex" text-anchor="end" font-family="sans-serif" font-size="9.67741935483871" opacity="1" fill="#000000">
2000
</text>
<polyline fill="none" opacity="1" stroke="#000000" stroke-width="1" points="54,386 59,386 "/>
<text x="50" y="298" dy="0.5ex" text-anchor="end" font-family="sans-serif" font-size="9.67741935483871" opacity="1" fill="#000000">
2500
</text>
<polyline fill="none" opacity="1" stroke="#000000" stroke-width="1" points="54,298 59,298 "/>
<text x="50" y="210" dy="0.5ex" text-anchor="end" font-family="sans-serif" font-size="9.67741935483871" opacity="1" fill="#000000">
3000
</text>
<polyline fill="none" opacity="1" stroke="#000000" stroke-width="1" points="54,210 59,210 "/>
<text x="50" y="122" dy="0.5ex" text-anchor="end" font-family="sans-serif" font-size="9.67741935483871" opacity="1" fill="#000000">
3500
</text>
<polyline fill="none" opacity="1" stroke="#000000" stroke-width="1" points="54,122 59,122 "/>
<text x="50" y="33" dy="0.5ex" text-anchor="end" font-family="sans-serif" font-size="9.67741935483871" opacity="1" fill="#000000">
4000
</text>
<polyline fill="none" opacity="1" stroke="#000000" stroke-width="1" points="54,33 59,33 "/>
<polyline fill="none" opacity="1" stroke="#000000" stroke-width="1" points="60,740 1190,740 "/>
<text x="60" y="750" dy="0.76em" text-anchor="middle" font-family="sans-serif" font-size="9.67741935483871" opacity="1" fill="#000000">
2014-11-20Z
</text>
<polyline fill="none" opacity="1" stroke="#000000" stroke-width="1" points="60,740 60,745 "/>
<text x="174" y="750" dy="0.76em" text-anchor="middle" font-family="sans-serif" font-size="9.67741935483871" opacity="1" fill="#000000">
2015-06-25Z
</text>
<polyline fill="none" opacity="1" stroke="#000000" stroke-width="1" points="174,740 174,745 "/>
<text x="288" y="750" dy="0.76em" text-anchor="middle" font-family="sans-serif" font-size="9.67741935483871" opacity="1" fill="#000000">
2016-01-28Z
</text>
<polyline fill="none" opacity="1" stroke="#000000" stroke-width="1" points="288,740 288,745 "/>
<text x="402" y="750" dy="0.76em" text-anchor="middle" font-family="sans-serif" font-size="9.67741935483871" opacity="1" fill="#000000">
2016-09-01Z
</text>
<polyline fill="none" opacity="1" stroke="#000000" stroke-width="1" points="402,740 402,745 "/>
<text x="517" y="750" dy="0.76em" text-anchor="middle" font-family="sans-serif" font-size="9.67741935483871" opacity="1" fill="#000000">
2017-04-06Z
</text>
<polyline fill="none" opacity="1" stroke="#000000" stroke-width="1" points="517,740 517,745 "/>
<text x="631" y="750" dy="0.76em" text-anchor="middle" font-family="sans-serif" font-size="9.67741935483871" opacity="1" fill="#000000">
2017-11-09Z
</text>
<polyline fill="none" opacity="1" stroke="#000000" stroke-width="1" points="631,740 631,745 "/>
<text x="745" y="750" dy="0.76em" text-anchor="middle" font-family="sans-serif" font-size="9.67741935483871" opacity="1" fill="#000000">
2018-06-14Z
</text>
<polyline fill="none" opacity="1" stroke="#000000" stroke-width="1" points="745,740 745,745 "/>
<text x="860" y="750" dy="0.76em" text-anchor="middle" font-family="sans-serif" font-size="9.67741935483871" opacity="1" fill="#000000">
2019-01-17Z
</text>
<polyline fill="none" opacity="1" stroke="#000000" stroke-width="1" points="860,740 860,745 "/>
<text x="974" y="750" dy="0.76em" text-anchor="middle" font-family="sans-serif" font-size="9.67741935483871" opacity="1" fill="#000000">
2019-08-22Z
</text>
<polyline fill="none" opacity="1" stroke="#000000" stroke-width="1" points="974,740 974,745 "/>
<text x="1088" y="750" dy="0.76em" text-anchor="middle" font-family="sans-serif" font-size="9.67741935483871" opacity="1" fill="#000000">
2020-03-26Z
</text>
<polyline fill="none" opacity="1" stroke="#000000" stroke-width="1" points="1088,740 1088,745 "/>
<polyline fill="none" opacity="1" stroke="#E61919" stroke-width="2" points="166,738 172,738 172,738 209,738 237,738 266,737 275,737 275,737 283,737 287,737 289,737 290,736 291,736 293,737 294,736 295,736 296,736 306,736 306,736 320,736 321,736 325,736 332,736 336,735 336,735 349,735 350,735 356,735 373,735 373,735 375,735 376,735 376,735 377,735 378,735 379,735 379,735 380,735 380,735 382,735 382,735 383,735 425,735 425,735 426,734 427,734 428,734 452,734 453,734 454,734 455,734 456,734 457,734 457,734 458,734 459,734 461,734 462,733 464,733 464,733 465,733 465,733 466,733 467,733 468,733 470,733 471,733 471,733 472,733 473,733 473,733 475,733 476,733 478,733 478,733 479,733 479,733 480,733 481,733 481,733 482,733 483,733 484,733 485,733 486,733 487,733 488,733 488,733 489,733 490,733 491,733 492,733 494,733 495,733 496,733 496,733 498,732 499,732 499,732 500,732 501,732 502,732 503,732 504,732 505,732 505,732 506,732 507,732 509,732 510,732 510,732 511,732 512,732 512,732 513,732 514,732 515,732 516,732 517,732 518,732 519,732 519,732 522,732 522,732 524,732 526,732 527,732 527,732 530,732 532,732 533,732 535,732 535,732 537,732 537,732 538,732 540,732 542,732 543,732 544,732 545,732 546,732 547,732 547,732 548,732 549,732 550,732 551,732 552,732 553,732 553,732 554,732 554,732 555,732 555,732 556,732 557,732 558,732 560,732 562,732 565,732 566,732 567,732 567,732 568,731 568,731 569,731 569,731 572,731 572,731 573,731 573,731 574,731 574,731 575,731 575,731 576,731 576,731 577,731 578,731 579,731 582,731 582,731 583,731 583,731 584,731 584,731 585,731 586,731 591,731 593,731 596,731 596,731 597,731 598,730 600,730 601,731 604,731 605,731 605,730 615,730 616,730 617,730 620,730 622,730 627,730 628,730 631,730 631,730 632,730 633,730 635,730 638,730 639,730 641,730 642,730 642,730 644,730 645,730 646,730 646,729 647,730 648,730 648,730 649,730 650,730 651,730 651,730 652,730 653,730 653,730 654,730 654,730 655,730 655,730 656,730 657,730 658,730 659,730 660,730 660,730 661,730 662,730 662,730 664,730 664,730 665,730 665,730 666,729 667,729 667,729 668,729 669,729 670,729 671,729 673,729 673,729 674,729 675,729 675,729 676,729 677,730 677,730 678,730 679,730 680,730 682,730 683,730 684,730 685,730 686,729 686,729 689,729 690,729 693,729 693,729 694,729 694,729 695,729 695,729 696,729 696,729 699,729 699,729 700,729 700,729 703,729 703,729 704,729 704,729 705,729 706,729 706,729 707,729 710,729 710,729 711,729 711,729 712,729 712,729 713,729 714,729 715,729 715,729 716,729 716,729 717,729 717,729 718,729 719,729 719,729 720,729 720,729 721,729 721,729 722,729 722,729 723,729 724,729 724,729 725,729 725,729 727,729 728,729 729,729 729,729 732,729 733,729 733,729 734,729 734,729 736,729 737,729 738,729 738,729 739,729 739,729 740,729 740,729 741,729 741,729 742,729 742,729 743,729 743,729 744,729 744,729 746,729 748,729 748,729 749,729 750,729 750,729 751,729 751,729 752,729 752,729 753,729 753,729 754,729 754,729 755,729 755,729 756,729 757,729 758,729 758,729 759,729 759,728 760,728 760,728 761,728 761,728 762,728 763,728 763,728 764,728 765,728 766,728 767,728 768,728 768,728 769,728 770,728 770,728 771,728 772,728 773,728 773,728 774,728 774,728 775,728 775,728 776,728 776,728 777,728 778,728 779,728 779,728 780,728 780,728 781,728 781,728 782,728 782,728 784,728 784,728 785,728 786,728 786,728 787,728 788,728 788,728 789,728 790,728 790,728 791,728 791,728 792,728 793,728 794,729 794,729 795,729 795,729 796,729 797,729 798,729 798,729 799,729 799,729 800,729 800,729 800,729 801,729 801,729 802,729 802,729 803,729 803,729 804,729 804,729 805,729 805,729 807,729 807,729 808,729 808,729 809,728 809,728 810,728 810,728 811,728 812,728 812,728 813,728 814,728 814,728 815,728 816,728 817,728 818,728 819,728 819,728 820,728 820,728 821,728 821,728 822,728 822,728 823,728 823,728 824,728 825,728 825,728 826,728 827,728 828,728 829,728 829,728 830,728 831,728 831,728 832,728 833,728 833,728 834,728 834,728 835,728 836,728 837,728 837,728 838,728 839,728 839,728 840,728 841,728 841,728 842,728 842,728 844,728 844,728 845,728 846,728 847,728 848,728 848,728 849,728 850,728 850,728 851,728 851,728 852,728 852,728 853,728 854,728 854,728 855,728 856,728 856,728 857,728 857,728 858,728 858,728 859,728 860,728 860,728 861,728 862,728 863,728 864,728 864,728 865,728 866,728 867,728 867,728 868,728 868,728 869,727 869,727 870,727 871,727 871,727 872,727 873,727 873,727 874,727 875,727 876,727 877,727 877,727 878,727 878,727 879,727 879,727 880,727 880,727 881,727 881,727 882,727 883,727 883,727 884,727 884,727 885,727 886,727 886,727 887,727 887,727 888,727 888,727 889,727 889,727 890,727 890,727 891,727 891,727 892,727 893,727 893,727 894,727 894,727 895,727 896,727 897,727 897,727 898,727 898,727 899,727 899,727 900,727 901,727 901,727 902,727 902,727 903,727 903,727 905,727 906,727 908,727 909,727 909,727 910,727 911,727 911,727 912,727 912,727 913,727 913,727 914,727 915,727 915,727 916,727 916,727 917,727 917,727 918,726 919,726 920,726 921,726 922,726 922,726 923,726 923,726 925,726 925,726 927,726 927,726 928,726 928,726 929,726 929,726 930,726 930,726 931,726 932,726 933,726 933,726 934,726 935,726 935,726 937,726 938,726 938,726 939,726 939,726 940,726 941,726 941,726 942,726 942,726 943,726 944,726 945,726 945,726 946,726 946,726 948,726 949,726 949,726 950,726 950,726 951,726 951,726 952,726 952,726 953,726 954,726 955,726 955,726 956,726 957,726 957,726 958,726 959,726 960,726 960,726 961,726 961,726 962,726 962,726 963,726 964,726 964,726 965,726 965,726 966,726 966,726 967,726 967,726 968,726 968,726 969,726 969,726 971,726 972,726 972,726 974,726 974,726 975,726 975,726 976,726 977,726 978,726 978,726 979,726 979,726 980,726 980,726 981,726 981,726 982,726 982,726 983,726 984,726 985,726 987,726 988,726 988,726 989,726 989,726 990,726 991,726 992,726 993,726 994,726 994,726 995,726 995,726 996,726 997,726 997,726 998,726 1000,726 1000,726 1002,726 1002,726 1004,726 1004,726 1005,726 1005,726 1006,726 1007,726 1008,726 1008,726 1009,726 1009,726 1010,726 1010,726 1011,726 1011,726 1012,726 1012,726 1013,726 1014,726 1014,726 1015,726 1015,726 1016,726 1016,726 1017,726 1017,726 1018,726 1018,726 1019,726 1019,726 1020,726 1021,726 1022,726 1023,726 1023,726 1024,726 1024,726 1028,726 1029,726 1029,726 1030,726 1030,726 1031,726 1032,726 1033,726 1033,726 1034,726 1035,726 1037,726 1037,725 1038,725 1038,725 1040,725 1040,725 1041,725 1042,725 1043,725 1043,725 1044,725 1044,725 1045,725 1046,725 1046,725 1047,725 1047,725 1048,725 1048,725 1049,725 1049,725 1050,725 1050,725 1052,725 1053,725 1053,725 1054,725 1054,725 1055,725 1055,725 1056,725 1056,725 1057,725 1058,725 1058,725 1059,725 1059,725 1060,725 1060,725 1061,725 1061,725 1063,725 1063,725 1064,725 1065,725 1066,725 1066,725 1067,725 1067,725 1068,725 1070,725 1070,725 1071,725 1073,725 1073,725 1074,725 1074,725 1075,725 1075,725 1076,725 1076,725 1077,725 1077,725 1078,725 1078,725 1079,725 1079,725 1079,725 1080,725 1080,725 1082,725 1082,725 1083,725 1083,725 1083,725 1084,725 1084,725 1084,725 1085,725 1085,725 1085,725 1085,725 1086,725 1086,725 1086,725 1087,725 1087,725 1087,725 1088,725 1088,725 1088,725 1088,725 1089,725 1089,725 1090,725 1090,725 1090,725 1090,725 1091,725 1092,725 1092,725 1092,725 1093,725 1093,725 1093,725 1093,725 1094,725 1094,725 1094,725 1095,725 1095,725 1095,725 1096,725 1096,725 1097,725 1097,725 1098,725 1098,725 1099,725 1099,725 1099,725 1099,725 1100,725 1100,725 1101,725 1102,725 1102,725 1102,725 1103,725 1103,725 1104,725 1104,725 1104,725 1105,725 1105,725 1106,725 1106,725 1106,725 1106,725 1107,725 1107,725 1108,725 1108,725 1108,725 1109,725 1109,725 1109,725 1109,725 1110,725 1110,725 1110,725 1112,725 1112,725 1112,725 1113,725 1113,725 1114,725 1114,725 1115,725 1115,725 1115,725 1115,725 1116,725 1116,725 1116,725 1117,725 1117,725 1118,725 1118,725 1118,725 1119,725 1119,725 1119,725 1119,725 1120,725 1120,725 1121,725 1122,725 1122,725 1123,725 1123,725 1123,725 1124,725 1124,725 1125,725 1125,725 1125,725 1126,725 1126,725 1126,725 1126,725 1127,725 1127,725 1127,725 1128,725 1128,725 1128,725 1129,725 1129,725 1129,725 1129,725 1130,725 1130,725 1131,725 1132,725 1132,725 1132,725 1133,725 1134,725 1134,725 1134,725 1134,725 1135,725 1135,725 1135,725 1135,725 1136,725 1136,725 1136,725 1136,725 1137,725 1137,725 1137,725 1138,725 1138,725 1139,725 1139,725 1139,725 1139,725 1140,725 1141,725 1141,725 1141,725 1141,725 1142,725 1142,725 1142,725 1142,725 1143,725 1143,725 1143,725 1143,725 1144,725 1144,725 1145,725 1145,725 1145,725 1145,725 1147,725 1147,725 1147,725 1148,725 1148,725 1148,725 1149,725 1149,725 1150,725 1151,725 1151,725 1151,725 1152,725 1152,725 1152,725 1153,725 1153,725 1153,725 1153,725 1154,725 1154,725 1154,725 1154,725 1155,725 1155,725 1155,725 1155,725 1156,725 1156,725 1156,725 1157,725 1157,725 1158,725 1158,725 1158,725 1159,725 1159,725 1159,725 1159,725 1160,725 1161,725 1161,725 1161,725 1162,725 1162,725 1162,725 1162,725 1163,725 1163,725 1164,725 1164,725 1164,725 1165,725 1165,725 1167,725 1167,725 1168,725 1168,725 1168,725 1169,725 1169,725 1169,725 1171,725 1171,725 1171,725 1171,725 1172,725 1172,725 1172,725 1172,725 1173,725 1173,725 1173,725 1174,725 1174,725 1174,725 1174,725 1175,725 1175,725 1175,725 1176,725 1176,725 1176,725 1177,725 1177,725 1177,725 1177,725 1178,725 1178,725 1178,725 1179,725 1179,725 1179,725 1180,725 1180,725 1181,725 1181,725 1181,725 1181,725 1182,725 1182,725 1182,725 1183,725 1183,725 1184,725 1184,725 1184,725 1185,725 1185,725 1185,725 1185,725 1186,725 1186,725 1186,725 1187,725 1187,725 1188,725 1188,725 1188,725 1188,725 1189,725 1190,725 "/>
<polyline fill="none" opacity="1" stroke="#BDE619" stroke-width="2" points="129,738 154,738 174,738 177,738 189,738 196,737 197,738 200,737 205,737 207,737 210,737 216,737 220,737 224,736 229,736 233,736 236,736 237,736 237,735 238,735 239,735 240,735 243,735 243,734 245,734 249,734 250,734 251,733 258,733 261,733 262,733 263,732 263,732 265,732 267,732 272,732 272,731 273,731 274,731 277,731 278,731 279,731 279,730 280,730 283,730 286,730 286,729 287,729 288,729 291,729 291,729 295,728 297,728 300,728 301,728 302,727 302,727 303,727 304,727 304,727 306,726 307,726 308,726 308,726 310,726 311,726 312,726 313,725 314,725 315,725 316,725 317,725 320,725 323,724 324,724 326,724 327,724 329,724 330,724 330,724 331,724 331,724 332,723 332,723 333,723 334,723 334,723 336,723 336,723 339,722 339,722 340,722 341,722 342,722 342,722 343,722 343,722 344,722 345,722 346,722 346,722 347,722 348,721 350,721 351,721 351,721 352,721 352,721 353,721 356,721 356,721 357,721 357,721 358,721 358,721 359,721 359,721 360,721 360,721 361,721 361,721 362,720 362,720 363,720 363,720 364,720 365,720 365,720 366,720 367,719 367,719 368,719 368,719 369,719 369,719 370,718 372,718 372,718 373,718 373,718 374,718 375,718 376,717 376,717 377,717 378,717 380,717 380,716 381,716 381,716 382,716 383,715 385,715 385,715 386,715 386,715 387,714 388,714 388,714 389,714 389,714 390,714 390,714 391,713 391,713 392,713 393,713 394,713 395,713 395,713 396,713 396,713 397,712 397,712 398,712 399,712 399,712 400,712 401,711 401,711 402,711 402,711 403,711 404,711 404,710 405,710 405,710 406,710 407,710 408,692 408,691 409,691 410,691 410,691 411,691 411,690 412,690 413,690 414,690 414,689 415,689 415,689 416,689 416,689 417,688 417,688 418,688 418,688 419,687 419,687 420,687 420,687 421,687 421,686 422,686 422,686 423,686 424,686 424,685 425,685 425,685 426,685 426,684 427,684 427,683 428,683 429,683 430,680 430,680 431,679 432,679 432,679 433,679 434,679 434,679 435,679 435,679 437,679 437,679 438,679 438,678 439,678 439,678 440,678 440,678 441,677 441,677 442,677 442,677 444,677 444,677 445,677 445,676 446,676 446,676 447,676 447,676 448,676 448,676 449,675 450,675 450,675 451,675 452,674 452,674 453,673 454,673 454,673 455,673 455,673 456,673 456,673 457,673 457,673 458,671 459,671 459,671 460,671 460,671 461,671 461,671 462,671 463,671 463,671 464,670 464,670 465,670 465,670 466,670 466,670 467,670 467,669 468,669 468,669 469,669 469,669 470,669 470,669 471,669 472,668 473,668 473,668 474,668 474,668 475,667 475,667 476,666 476,666 477,666 477,666 478,666 478,665 479,665 479,665 480,665 480,664 481,664 481,663 482,663 483,662 483,662 484,662 484,662 485,661 485,661 486,661 486,661 487,660 487,660 488,660 488,659 489,659 489,659 490,658 490,658 491,658 491,658 492,657 493,657 493,657 494,657 494,656 495,656 495,656 496,656 496,656 497,655 497,655 498,655 498,655 499,655 499,654 500,654 500,654 501,653 501,653 502,653 503,652 503,652 504,652 504,652 505,652 505,652 506,652 506,651 507,651 507,651 508,650 508,649 509,649 509,649 510,648 511,648 512,648 512,648 513,648 513,647 514,647 514,647 515,646 515,646 516,645 516,645 517,645 517,645 518,644 518,644 519,644 519,644 520,643 520,643 521,643 522,643 522,642 523,642 523,642 524,641 524,641 525,641 525,641 526,640 526,640 527,639 527,639 528,639 528,639 529,639 529,639 530,639 530,639 531,639 532,638 532,637 533,637 533,637 534,637 534,636 535,636 535,635 536,635 536,635 537,635 537,635 538,635 538,635 539,635 539,634 540,634 540,634 541,633 542,633 542,633 543,633 543,632 544,632 544,632 545,631 545,631 546,631 546,631 547,630 547,630 548,630 548,629 549,629 549,629 550,629 550,628 551,628 552,628 552,627 553,627 553,626 554,626 554,625 555,625 555,625 556,625 556,624 557,624 557,624 558,624 558,623 559,623 559,623 560,623 560,623 561,623 562,623 562,622 563,622 563,622 564,622 564,622 565,622 565,621 566,621 566,621 567,620 567,620 568,620 568,620 569,620 569,619 570,618 571,618 571,617 572,617 572,617 573,616 573,616 574,616 574,616 575,616 575,615 576,615 576,615 577,615 577,615 578,614 578,614 579,614 579,613 580,613 581,613 581,613 582,613 582,613 583,612 583,612 584,612 584,612 585,611 585,611 586,611 586,611 587,610 587,610 588,610 588,610 589,610 589,609 590,609 591,609 591,609 592,608 592,608 593,608 593,607 594,607 594,607 595,607 595,607 596,607 596,607 597,606 597,606 598,606 598,606 599,605 599,605 600,605 601,605 601,604 602,604 602,604 603,603 603,603 604,603 604,603 605,603 605,603 606,603 606,602 607,602 607,601 608,601 608,598 609,598 609,597 610,597 611,597 611,597 612,596 612,596 613,596 613,595 614,595 614,594 615,594 615,594 616,593 616,593 617,593 617,592 618,592 618,592 619,592 619,592 620,591 621,591 621,591 622,591 622,590 623,590 623,590 624,590 624,589 625,589 625,588 626,588 626,587 627,587 627,586 628,586 628,586 629,585 630,585 630,585 631,585 631,585 632,585 632,584 633,584 633,584 634,584 634,583 635,583 635,583 636,583 636,583 637,582 637,582 638,582 638,582 639,581 640,581 640,581 641,581 641,581 642,581 642,580 643,580 643,580 644,579 644,579 645,579 645,579 646,579 646,579 647,578 647,578 648,578 648,576 649,576 650,576 650,576 651,575 651,575 652,574 652,574 653,574 653,573 654,573 654,573 655,572 655,572 656,572 656,572 657,572 657,572 658,572 658,571 659,571 660,571 660,571 661,570 661,570 662,570 662,570 663,570 663,570 664,570 664,569 665,569 665,569 666,569 666,568 667,568 667,567 668,567 668,567 669,567 670,566 670,566 671,566 671,565 672,565 672,565 673,564 673,564 674,564 674,564 675,563 675,560 676,559 676,559 677,558 677,558 678,558 678,557 679,557 680,556 680,556 681,555 681,555 682,554 682,553 683,552 683,552 684,552 684,551 685,551 685,551 686,551 686,551 687,550 687,550 688,549 689,549 689,549 690,548 690,547 691,547 691,547 692,546 692,546 693,546 693,545 694,545 694,545 695,544 695,544 696,543 696,542 697,542 697,542 698,542 699,542 699,541 700,541 700,541 701,540 701,540 702,540 702,540 703,539 703,539 704,539 704,538 705,537 705,537 706,537 706,536 707,536 707,535 708,535 709,535 709,535 710,535 710,535 711,534 711,534 712,533 712,533 713,533 713,532 714,532 714,533 715,532 715,532 716,531 716,531 717,531 717,530 718,530 719,530 719,530 720,529 720,530 721,530 721,530 722,529 722,529 723,529 723,529 724,528 724,528 725,528 725,528 726,527 726,527 727,526 727,526 728,526 729,526 729,525 730,525 730,525 731,524 731,524 732,524 732,524 733,523 733,523 734,523 734,522 735,522 735,522 736,521 736,521 737,521 738,520 738,520 739,520 739,519 740,519 740,519 741,519 741,518 742,518 742,518 743,518 743,517 744,517 744,516 745,516 745,515 746,515 746,515 747,515 748,513 748,513 749,513 749,513 750,512 750,512 751,512 751,511 752,511 752,511 753,511 753,510 754,510 754,509 755,509 755,508 756,508 756,508 757,508 758,507 758,507 759,506 759,506 760,505 760,505 761,504 761,504 762,504 762,504 763,504 763,503 764,503 764,502 765,502 765,502 766,502 766,502 767,501 768,501 768,501 769,500 769,500 770,500 770,500 771,500 771,500 772,500 772,499 773,499 773,499 774,499 774,498 775,498 775,498 776,497 776,497 777,497 778,497 778,496 779,496 779,496 780,496 780,496 781,496 781,496 782,495 782,495 783,494 783,494 784,494 784,494 785,494 785,493 786,493 786,493 787,493 788,493 788,493 789,492 789,491 790,491 790,490 791,490 791,490 792,489 792,488 793,488 793,488 794,488 794,488 795,487 795,487 796,486 797,485 797,485 798,485 798,485 799,484 799,484 800,483 800,483 800,483 801,482 801,481 802,481 802,481 803,480 803,479 804,479 804,478 805,478 805,478 806,477 807,477 807,476 808,476 808,476 809,476 809,476 810,470 810,470 811,469 811,469 812,468 812,468 813,468 813,468 814,467 814,466 815,466 815,465 816,465 817,465 817,464 818,464 818,463 819,463 819,462 820,461 820,461 821,460 821,460 822,460 822,460 823,459 823,458 824,458 824,458 825,457 825,456 826,456 827,456 827,456 828,455 828,454 829,454 829,454 830,453 830,453 831,453 831,453 832,452 832,452 833,452 833,451 834,451 834,450 835,450 835,450 836,449 837,449 837,449 838,448 838,448 839,447 839,447 840,447 840,447 841,446 841,446 842,446 842,446 843,445 843,445 844,445 844,444 845,444 845,444 846,443 847,443 847,442 848,442 848,442 849,441 849,441 850,441 850,441 851,440 851,439 852,438 852,437 853,436 853,436 854,435 854,434 855,433 856,433 856,432 857,432 857,432 858,431 858,431 859,431 859,430 860,430 860,429 861,429 861,429 862,429 862,428 863,427 863,426 864,426 864,426 865,425 866,424 866,424 867,424 867,423 868,423 868,423 869,422 869,422 870,422 870,421 871,420 871,420 872,420 872,420 873,419 873,418 874,418 874,418 875,417 876,417 876,416 877,416 877,416 878,416 878,415 879,415 879,414 880,414 880,414 881,413 881,413 882,412 882,412 883,411 883,411 884,410 884,410 885,409 886,409 886,408 887,408 887,407 888,407 888,407 889,406 889,406 890,405 890,405 891,405 891,405 892,404 892,404 893,403 893,403 894,402 894,401 895,401 896,400 896,399 897,398 897,398 898,398 898,397 899,397 899,397 900,396 900,396 901,396 901,394 902,394 902,394 903,393 903,393 904,393 904,393 905,392 906,392 906,391 907,391 907,390 908,390 908,390 909,389 909,389 910,388 910,387 911,387 911,386 912,385 912,385 913,384 913,384 914,383 915,383 915,382 916,382 916,381 917,381 917,380 918,380 918,380 919,379 919,379 920,379 920,378 921,378 921,378 922,378 922,378 923,377 923,375 924,375 925,375 925,374 926,374 926,373 927,372 927,372 928,372 928,371 929,371 929,370 930,369 930,369 931,368 931,367 932,367 932,366 933,366 933,365 934,365 935,364 935,364 936,363 936,363 937,362 937,362 938,361 938,361 939,360 939,360 940,359 940,359 941,359 941,359 942,358 942,358 943,357 943,356 944,356 945,355 945,354 946,354 946,354 947,354 947,354 948,353 948,353 949,348 949,348 950,348 950,347 951,346 951,346 952,345 952,344 953,344 953,343 954,343 955,342 955,341 956,341 956,340 957,339 957,339 958,339 958,338 959,338 959,337 960,337 960,336 961,336 961,335 962,335 962,335 963,334 964,334 964,334 965,333 965,333 966,332 966,332 967,331 967,331 968,331 968,330 969,330 969,329 970,328 970,327 971,327 971,326 972,326 972,326 973,326 974,325 974,324 975,324 975,324 976,323 976,323 977,323 977,322 978,322 978,322 979,322 979,321 980,321 980,321 981,320 981,320 982,319 982,319 983,318 984,317 984,317 985,316 985,316 986,316 986,315 987,315 987,314 988,314 988,313 989,312 989,312 990,311 990,311 991,311 991,310 992,310 992,310 993,309 994,309 994,309 995,308 995,308 996,308 996,307 997,307 997,307 998,306 998,306 999,306 999,305 1000,304 1000,303 1001,303 1001,303 1002,302 1002,302 1003,301 1004,301 1004,301 1004,301 1005,301 1005,300 1006,299 1006,299 1007,299 1007,299 1008,298 1008,298 1009,297 1009,297 1010,297 1010,296 1011,296 1011,295 1012,295 1012,295 1013,294 1014,294 1014,293 1015,293 1015,292 1016,291 1016,290 1017,290 1017,289 1018,289 1018,288 1019,288 1019,286 1020,286 1020,286 1021,285 1021,285 1022,284 1023,284 1023,283 1024,283 1024,283 1025,283 1025,281 1026,280 1026,280 1027,279 1027,279 1028,279 1028,279 1029,279 1029,279 1030,278 1030,278 1031,277 1031,277 1032,276 1033,276 1033,276 1034,275 1034,275 1035,275 1035,274 1036,274 1036,274 1037,273 1037,274 1038,273 1038,273 1039,272 1039,270 1040,270 1040,269 1041,268 1041,268 1042,268 1043,267 1043,267 1044,267 1044,266 1045,265 1045,264 1046,264 1046,263 1047,263 1047,262 1048,261 1048,261 1049,260 1049,259 1050,258 1050,258 1051,257 1051,257 1052,257 1053,257 1053,256 1054,254 1054,254 1055,254 1055,253 1056,253 1056,252 1057,251 1057,250 1058,250 1058,249 1059,249 1059,248 1060,248 1060,247 1061,247 1061,246 1062,245 1063,244 1063,243 1064,242 1064,241 1065,241 1065,241 1066,240 1066,239 1067,238 1067,237 1068,237 1068,236 1069,236 1069,235 1070,234 1070,234 1071,234 1071,233 1072,232 1073,231 1073,231 1074,230 1074,229 1075,229 1075,229 1076,228 1076,227 1077,227 1077,226 1078,226 1078,226 1078,226 1078,226 1079,225 1079,225 1079,224 1080,224 1080,223 1080,223 1081,223 1081,222 1082,222 1082,222 1082,222 1082,221 1083,221 1083,220 1083,220 1083,219 1084,219 1084,218 1084,218 1084,218 1085,218 1085,217 1085,217 1085,216 1086,216 1086,215 1086,214 1087,214 1087,214 1087,213 1088,213 1088,212 1088,212 1088,212 1089,212 1089,212 1089,212 1089,212 1090,212 1090,212 1090,212 1090,211 1091,211 1092,211 1092,210 1092,210 1092,209 1093,209 1093,209 1093,209 1093,207 1094,207 1094,207 1094,207 1094,206 1095,206 1095,206 1095,206 1095,206 1096,206 1096,204 1096,204 1097,204 1097,203 1097,203 1097,203 1098,203 1098,202 1098,202 1098,202 1099,202 1099,202 1099,202 1099,201 1100,201 1100,200 1100,200 1100,200 1101,199 1101,199 1102,199 1102,198 1102,198 1102,198 1103,198 1103,197 1104,197 1104,197 1104,197 1104,197 1105,197 1105,195 1105,195 1105,195 1106,195 1106,194 1106,194 1106,193 1107,193 1107,192 1107,192 1107,192 1108,192 1108,191 1108,190 1109,190 1109,189 1109,189 1109,189 1110,189 1110,188 1110,188 1110,187 1111,187 1111,186 1112,186 1112,186 1112,185 1113,185 1113,184 1113,184 1113,183 1114,183 1114,182 1114,182 1114,182 1115,182 1115,181 1115,181 1115,181 1116,181 1116,180 1116,180 1116,179 1117,179 1117,179 1117,179 1117,178 1118,178 1118,177 1118,177 1118,177 1119,177 1119,176 1119,176 1119,175 1120,175 1120,174 1120,174 1120,173 1121,173 1121,172 1122,172 1122,172 1122,172 1123,172 1123,171 1123,171 1123,168 1124,168 1124,167 1124,167 1124,167 1125,167 1125,166 1125,166 1125,165 1126,165 1126,165 1126,165 1126,165 1127,164 1127,164 1127,163 1128,163 1128,162 1128,162 1128,161 1129,161 1129,160 1129,160 1129,160 1130,159 1130,158 1131,158 1131,158 1132,157 1132,157 1132,157 1133,157 1133,155 1133,155 1133,154 1134,154 1134,154 1134,154 1134,153 1135,153 1135,152 1135,152 1135,152 1136,152 1136,151 1136,151 1136,151 1137,151 1137,150 1137,150 1138,149 1138,149 1138,149 1138,148 1139,148 1139,147 1139,147 1139,147 1140,147 1140,146 1141,146 1141,146 1141,146 1141,145 1142,145 1142,145 1142,145 1142,143 1143,143 1143,143 1143,143 1143,142 1144,142 1144,142 1144,142 1144,134 1145,134 1145,134 1145,134 1145,133 1146,133 1146,133 1146,132 1147,132 1147,132 1147,132 1147,131 1148,131 1148,130 1148,130 1148,129 1149,129 1149,128 1149,128 1149,127 1150,127 1151,127 1151,127 1151,127 1151,126 1152,126 1152,126 1152,126 1152,125 1153,125 1153,124 1153,124 1153,124 1154,124 1154,123 1154,123 1154,123 1155,123 1155,121 1155,121 1155,121 1156,121 1156,120 1156,120 1156,120 1157,120 1157,119 1157,119 1157,118 1158,118 1158,118 1158,118 1158,117 1159,117 1159,117 1159,117 1159,115 1160,115 1161,115 1161,115 1161,115 1161,114 1162,114 1162,114 1162,114 1162,113 1163,113 1163,113 1163,113 1163,113 1164,113 1164,112 1164,112 1164,111 1165,111 1165,111 1165,111 1165,110 1166,110 1166,110 1166,110 1166,109 1167,109 1167,109 1167,109 1167,108 1168,108 1168,107 1168,107 1168,107 1169,107 1169,107 1169,107 1169,106 1170,106 1170,105 1171,105 1171,105 1171,105 1171,104 1172,104 1172,103 1172,103 1172,102 1173,102 1173,100 1173,100 1173,100 1174,100 1174,99 1174,99 1174,98 1175,96 1175,96 1175,96 1176,96 1176,95 1176,94 1177,94 1177,93 1177,93 1177,93 1178,93 1178,92 1178,92 1178,91 1179,91 1179,90 1179,90 1179,90 1180,90 1180,89 1181,89 1181,88 1181,88 1181,87 1182,87 1182,86 1182,86 1183,86 1183,85 1183,85 1183,85 1184,85 1184,84 1184,84 1184,83 1185,83 1185,82 1185,82 1185,82 1186,82 1186,81 1186,81 1186,81 1187,81 1187,79 1187,79 1187,78 1188,78 1188,76 1188,76 1188,76 1189,76 1189,75 1190,75 "/>
<polyline fill="none" opacity="1" stroke="#19E66B" stroke-width="2" points="60,738 60,738 61,738 69,738 75,738 75,737 81,737 84,737 88,737 93,736 94,736 95,736 96,736 100,736 103,735 109,735 110,735 117,735 120,735 121,735 124,735 136,734 140,734 141,734 142,734 143,734 145,734 147,734 149,734 149,734 150,734 152,734 153,734 154,734 154,734 155,734 155,733 156,733 156,733 157,733 158,732 159,732 159,732 160,732 160,732 161,732 161,732 162,732 162,732 163,732 163,732 164,732 164,732 165,732 166,732 167,732 167,732 168,732 169,732 169,732 170,732 170,732 171,732 172,732 172,732 173,732 173,731 174,731 175,731 175,731 176,731 176,731 177,731 178,731 179,731 179,731 180,731 180,731 181,731 181,731 182,731 182,731 183,731 184,730 185,730 186,730 187,730 188,731 189,730 190,730 190,730 191,730 191,730 192,730 193,730 194,730 195,730 195,730 196,730 196,730 197,730 198,730 199,729 200,729 201,729 202,729 202,729 203,729 203,729 204,729 205,729 205,729 206,729 206,729 207,729 208,729 209,729 209,729 210,729 210,729 211,729 212,729 212,729 213,729 213,729 214,729 214,728 215,728 216,728 216,728 218,728 219,728 220,728 221,727 221,727 222,727 222,727 223,727 223,727 224,727 224,727 225,727 225,727 226,727 226,727 227,727 229,727 229,727 230,727 230,727 231,727 231,727 232,727 232,727 233,727 233,727 234,727 235,727 235,727 236,727 237,727 238,727 238,727 239,727 239,727 240,727 240,727 241,727 242,727 242,727 243,727 243,727 244,727 244,726 245,726 247,726 248,726 248,726 249,726 249,726 250,726 251,726 251,726 252,726 253,726 253,726 254,726 254,725 255,725 255,725 256,725 257,725 257,725 258,725 258,725 259,725 260,725 260,725 261,725 262,725 262,724 263,724 263,724 264,724 264,724 265,724 265,724 266,724 267,724 267,724 268,724 269,724 269,724 270,724 270,724 271,724 271,723 272,723 272,723 273,723 273,723 274,723 274,723 275,723 275,723 276,723 277,723 277,723 278,723 278,723 279,723 279,723 280,723 280,723 281,723 281,723 282,723 282,723 283,723 283,723 284,723 284,723 285,723 286,723 286,723 287,723 287,723 288,722 288,722 289,722 289,722 290,722 290,722 291,722 291,722 292,722 292,722 293,722 293,722 294,722 294,721 295,721 296,721 296,721 297,721 297,721 298,721 298,721 299,721 300,721 300,721 301,721 301,721 302,721 303,721 303,721 304,721 304,721 305,721 306,721 306,721 307,720 307,720 308,720 308,720 309,720 309,720 310,720 310,720 311,720 311,720 312,720 312,720 313,720 313,720 314,720 314,719 315,719 316,719 316,719 317,719 317,719 318,719 318,719 319,719 319,719 320,719 320,719 321,719 321,719 322,719 322,719 323,719 323,719 324,719 324,719 325,719 326,719 326,719 327,719 327,719 328,719 328,719 329,719 329,719 330,718 330,718 331,718 332,718 333,718 333,718 334,718 334,718 335,718 336,718 336,718 337,718 337,718 338,718 338,718 339,718 339,718 340,718 340,718 341,717 341,717 342,717 342,717 343,717 343,717 344,717 345,717 345,717 346,717 346,717 347,717 347,717 348,717 348,717 349,717 349,717 350,717 351,716 352,716 352,716 353,716 353,716 354,716 355,716 355,716 356,716 356,716 357,716 358,716 358,716 359,716 359,716 360,716 360,716 361,716 361,716 362,716 362,716 363,716 363,716 364,716 365,716 365,716 366,716 366,716 367,716 367,716 368,716 368,716 369,716 369,716 370,715 370,716 371,716 371,716 372,716 372,715 373,715 373,715 374,715 375,715 375,715 376,715 376,715 377,715 377,715 378,715 378,715 379,715 379,715 380,715 380,715 381,715 381,715 382,715 382,715 383,715 383,715 384,715 385,715 385,715 386,715 386,715 387,715 387,715 388,714 388,714 389,714 389,714 390,714 390,714 391,714 391,714 392,714 392,714 393,714 393,714 394,714 395,714 395,714 396,714 396,714 397,714 397,714 398,714 398,714 399,713 399,713 400,713 400,713 401,713 401,713 402,713 402,713 403,713 404,713 404,713 405,713 405,713 406,713 406,713 407,713 407,713 408,713 408,713 409,713 409,713 410,713 410,713 411,713 411,713 412,712 412,712 413,712 414,712 414,712 415,712 415,712 416,712 416,712 417,712 417,712 418,712 419,712 419,712 420,712 420,712 421,712 421,712 422,712 422,712 423,712 424,712 424,712 425,712 425,712 426,712 426,712 427,712 427,712 428,712 428,712 429,712 429,712 430,712 430,712 431,712 431,712 432,712 432,712 433,712 434,712 434,711 435,711 435,711 436,711 436,711 437,711 437,711 438,711 438,711 439,711 439,711 440,711 440,711 441,711 441,711 442,711 442,711 443,711 444,711 444,711 445,711 445,711 446,711 446,711 447,711 447,711 448,711 448,711 449,711 449,710 450,710 450,710 451,710 451,710 452,710 452,710 453,710 454,710 454,710 455,710 455,710 456,710 456,710 457,710 457,710 458,709 458,709 459,709 459,709 460,709 460,709 461,709 462,709 463,709 463,709 464,709 464,709 465,709 465,709 466,709 466,709 467,709 467,709 468,709 468,709 469,709 469,708 470,708 470,708 471,708 471,708 472,708 473,708 473,708 474,708 474,707 475,707 475,707 476,707 476,707 477,707 477,707 478,707 478,707 479,707 479,707 480,707 480,707 481,707 481,707 482,707 483,707 483,707 484,707 484,707 485,707 485,707 486,707 486,707 487,707 487,707 488,707 488,707 489,707 489,707 490,707 490,707 491,707 491,707 492,707 493,707 493,707 494,707 494,707 495,707 495,707 496,707 496,707 497,707 497,707 498,707 498,707 499,707 499,707 500,707 500,707 501,707 501,707 502,707 503,707 503,707 504,707 504,707 505,707 505,707 506,707 506,707 507,707 507,707 508,707 508,707 509,707 509,707 510,707 510,707 511,707 512,707 512,707 513,707 513,707 514,707 514,707 515,707 515,707 516,707 516,707 517,707 517,707 518,707 518,707 519,707 519,707 520,707 520,707 521,707 522,707 522,707 523,707 523,707 524,706 524,706 525,706 525,706 526,706 526,706 527,706 527,706 528,706 528,706 529,706 529,706 530,706 530,706 531,706 532,706 532,706 533,706 533,706 534,706 534,706 535,706 535,706 536,706 536,706 537,706 537,706 538,706 538,705 539,705 539,705 540,705 540,705 541,705 542,705 542,705 543,705 543,705 544,705 544,705 545,705 545,705 546,705 546,705 547,705 547,705 548,705 548,705 549,705 549,705 550,705 550,705 551,705 552,705 552,705 553,705 553,705 554,705 554,705 555,705 555,705 556,705 556,704 557,704 557,704 558,704 558,704 559,704 559,704 560,704 560,704 561,704 562,704 562,704 563,704 563,704 564,704 564,704 565,704 565,704 566,704 566,704 567,704 567,704 568,704 568,704 569,704 569,704 570,704 571,704 571,704 572,704 572,704 573,704 573,704 574,704 574,704 575,704 575,704 576,704 576,704 577,704 577,704 578,704 578,704 579,704 579,704 580,704 581,704 581,704 582,704 582,704 583,704 583,704 584,704 584,704 585,704 585,704 586,704 586,704 587,704 587,704 588,704 588,704 589,704 589,704 590,704 591,704 591,704 592,704 592,704 593,704 593,704 594,704 594,704 595,704 595,704 596,704 596,704 597,704 597,704 598,704 598,704 599,703 599,703 600,703 601,703 601,703 602,703 602,703 603,703 603,703 604,703 604,703 605,703 605,703 606,703 606,703 607,703 607,703 608,703 608,703 609,703 609,703 610,703 611,703 611,703 612,703 612,703 613,703 613,703 614,703 614,703 615,703 615,703 616,703 616,703 617,703 617,703 618,703 618,703 619,703 619,703 620,703 621,703 621,703 622,703 622,703 623,703 623,703 624,703 624,703 625,703 625,703 626,703 626,703 627,703 627,703 628,703 628,703 629,703 630,703 630,703 631,703 631,703 632,703 632,703 633,703 633,703 634,703 634,703 635,703 635,703 636,703 637,703 637,703 638,703 638,703 639,703 640,703 640,703 641,703 641,703 642,703 642,703 643,703 643,703 644,703 644,702 645,702 645,702 646,702 646,702 647,702 647,702 648,702 648,702 649,702 650,702 650,702 651,702 651,702 652,702 652,702 653,702 653,702 654,702 654,702 655,702 655,702 656,702 656,702 657,702 657,702 658,702 658,702 659,702 660,702 660,702 661,702 661,702 662,702 662,701 663,701 663,701 664,701 664,701 665,701 665,701 666,701 666,701 667,701 667,701 668,701 668,701 669,701 670,701 670,701 671,701 671,701 672,701 672,701 673,701 673,701 674,701 674,701 675,701 675,701 676,701 676,701 677,701 677,701 678,701 678,701 679,701 680,701 680,701 681,701 681,701 682,701 682,701 683,701 683,701 684,701 684,701 685,701 685,701 686,701 686,701 687,701 687,701 688,701 689,701 689,701 690,701 690,701 691,701 691,701 692,701 692,701 693,700 693,700 694,700 694,700 695,700 695,700 696,700 696,700 697,700 697,700 698,700 699,700 699,700 700,700 700,700 701,700 701,700 702,700 702,700 703,700 703,700 704,700 704,700 705,700 705,700 706,700 706,700 707,700 707,700 708,700 709,700 709,700 710,700 710,700 711,700 711,700 712,700 712,700 713,700 713,700 714,700 714,700 715,700 715,700 716,700 716,700 717,700 717,700 718,700 719,700 719,700 720,700 720,700 721,700 721,700 722,700 722,700 723,700 723,700 724,700 724,700 725,700 725,700 726,700 726,700 727,700 727,700 728,700 729,700 729,700 730,700 730,700 731,700 731,700 732,699 732,699 733,700 733,700 734,700 734,700 735,700 735,699 736,699 736,699 737,699 738,699 738,699 739,699 739,699 740,699 740,699 741,699 741,699 742,699 742,699 743,699 743,699 744,699 744,699 745,699 745,699 746,699 746,699 747,699 748,699 748,699 749,699 749,699 750,699 750,699 751,699 751,699 752,699 752,699 753,699 753,699 754,699 754,699 755,699 755,699 756,699 756,699 757,698 758,698 758,698 759,698 759,698 760,698 760,698 761,698 761,698 762,698 762,698 763,698 763,698 764,698 764,698 765,698 765,698 766,698 766,698 767,698 768,698 768,698 769,698 769,698 770,698 770,698 771,698 771,698 772,698 772,698 773,698 773,698 774,698 774,698 775,698 775,698 776,698 776,698 777,698 778,698 778,698 779,698 779,698 780,698 780,698 781,698 781,697 782,697 782,697 783,697 783,697 784,697 784,697 785,697 785,697 786,697 786,697 787,697 788,697 788,697 789,697 789,697 790,697 790,697 791,697 791,698 792,698 792,698 793,698 793,698 794,698 794,698 795,698 795,698 796,697 797,697 797,697 798,697 798,697 799,697 799,697 800,697 800,697 800,697 801,697 801,697 802,697 802,697 803,697 803,697 804,697 804,697 805,697 805,697 806,697 807,697 807,697 808,697 808,697 809,697 809,697 810,697 810,696 811,696 811,696 812,696 812,696 813,696 813,696 814,696 814,696 815,696 815,696 816,696 817,696 817,696 818,696 818,696 819,696 819,696 820,696 820,696 821,696 821,696 822,696 822,696 823,695 823,695 824,695 824,695 825,695 825,695 826,695 827,695 827,695 828,695 828,695 829,695 829,695 830,695 830,695 831,695 831,695 832,695 832,695 833,695 833,695 834,695 834,695 835,695 835,695 836,695 837,695 837,695 838,695 838,695 839,694 839,694 840,694 840,694 841,694 841,694 842,694 842,694 843,694 843,694 844,694 844,694 845,694 845,694 846,694 847,694 847,694 848,694 848,694 849,694 849,694 850,694 850,694 851,694 851,694 852,694 852,694 853,694 853,694 854,694 854,694 855,694 856,694 856,694 857,694 857,694 858,694 858,694 859,694 859,694 860,694 860,694 861,694 861,694 862,694 862,694 863,694 863,693 864,693 864,693 865,693 866,693 866,693 867,693 867,693 868,693 868,693 869,693 869,693 870,693 870,693 871,693 871,693 872,693 872,693 873,693 873,693 874,693 874,693 875,693 876,693 876,693 877,693 877,693 878,693 878,693 879,693 879,693 880,693 880,693 881,693 881,693 882,693 882,693 883,693 883,693 884,693 884,693 885,693 886,693 886,693 887,693 887,693 888,693 888,693 889,693 889,693 890,693 890,693 891,693 891,693 892,693 892,693 893,693 893,693 894,693 894,693 895,693 896,693 896,693 897,693 897,693 898,693 898,693 899,693 899,693 900,693 900,693 901,693 901,693 902,693 902,693 903,693 903,693 904,693 904,693 905,692 906,692 906,692 907,692 907,692 908,692 908,692 909,692 909,692 910,692 910,692 911,692 911,692 912,692 912,692 913,692 913,692 914,692 915,692 915,692 916,692 916,692 917,692 917,692 918,692 918,692 919,692 919,692 920,692 920,692 921,692 921,692 922,692 922,692 923,692 923,692 924,692 925,692 925,692 926,692 926,692 927,692 927,692 928,692 928,692 929,692 929,692 930,692 930,692 931,692 931,692 932,692 932,692 933,692 933,692 934,692 935,692 935,692 936,692 936,692 937,692 937,692 938,692 938,692 939,692 939,692 940,692 940,692 941,692 941,692 942,692 942,692 943,692 943,692 944,692 945,692 945,692 946,692 946,692 947,692 947,692 948,692 948,692 949,692 949,692 950,692 950,692 951,692 951,692 952,692 952,692 953,692 953,692 954,692 955,692 955,692 956,692 956,692 957,692 957,692 958,692 958,692 959,692 959,692 960,692 960,692 961,692 961,692 962,692 962,692 963,692 964,692 964,692 965,692 965,692 966,692 966,692 967,692 967,692 968,692 968,692 969,692 969,692 970,692 970,692 971,692 971,692 972,692 972,692 973,692 974,692 974,692 975,692 975,692 976,692 976,692 977,692 977,692 978,692 978,692 979,692 979,692 980,692 980,692 981,692 981,692 982,692 982,692 983,692 984,692 984,692 985,692 985,692 986,692 986,692 987,692 987,692 988,692 988,692 989,692 989,692 990,692 990,692 991,692 991,692 992,692 992,692 993,692 994,692 994,692 995,692 995,692 996,692 996,692 997,692 997,692 998,692 998,692 999,692 999,692 1000,692 1000,692 1001,692 1001,692 1002,692 1002,692 1003,692 1004,692 1004,692 1004,691 1005,691 1005,691 1006,691 1006,691 1007,691 1007,692 1008,692 1008,692 1009,692 1009,692 1010,692 1010,692 1011,692 1011,692 1012,692 1012,692 1013,692 1014,692 1014,692 1015,692 1015,692 1016,692 1016,692 1017,692 1017,692 1018,692 1018,692 1019,692 1019,692 1020,692 1020,692 1021,692 1021,692 1022,692 1023,692 1023,692 1024,692 1024,692 1025,692 1025,692 1026,692 1026,692 1027,692 1027,692 1028,692 1028,692 1029,692 1029,692 1030,692 1030,692 1031,692 1031,692 1032,692 1033,692 1033,692 1034,692 1034,692 1035,692 1035,692 1036,692 1036,692 1037,692 1037,692 1038,692 1038,692 1039,692 1039,692 1040,692 1040,692 1041,692 1041,692 1042,692 1043,692 1043,692 1044,692 1044,692 1045,692 1045,692 1046,692 1046,692 1047,692 1047,692 1048,692 1048,692 1049,692 1049,692 1050,692 1050,692 1051,692 1051,692 1052,692 1053,692 1053,692 1054,692 1054,692 1055,692 1055,692 1056,692 1056,692 1057,692 1057,692 1058,692 1058,692 1059,692 1059,692 1060,692 1060,692 1061,692 1061,692 1062,692 1063,692 1063,692 1064,692 1064,691 1065,691 1065,691 1066,691 1066,691 1067,691 1067,691 1068,691 1068,691 1069,691 1069,691 1070,691 1070,691 1071,691 1071,691 1072,691 1073,691 1073,691 1074,691 1074,691 1075,691 1075,691 1076,691 1076,691 1077,691 1077,691 1078,691 1078,691 1078,691 1078,691 1079,691 1079,691 1079,692 1080,692 1080,692 1080,691 1081,691 1081,691 1082,691 1082,692 1082,692 1082,692 1083,692 1083,692 1083,692 1083,692 1084,692 1084,692 1084,692 1084,692 1085,692 1085,692 1085,692 1085,692 1086,692 1086,692 1086,692 1087,692 1087,692 1087,692 1088,692 1088,692 1088,692 1088,692 1089,692 1089,692 1089,692 1089,692 1090,692 1090,692 1090,692 1090,692 1091,692 1092,692 1092,692 1092,692 1092,692 1093,692 1093,692 1093,692 1093,692 1094,692 1094,692 1094,692 1094,692 1095,692 1095,692 1095,692 1095,692 1096,692 1096,692 1096,692 1097,692 1097,692 1097,692 1097,692 1098,692 1098,692 1098,692 1098,692 1099,692 1099,692 1099,692 1099,692 1100,692 1100,692 1100,692 1100,692 1101,692 1101,692 1102,692 1102,692 1102,692 1102,692 1103,692 1103,692 1104,692 1104,692 1104,692 1104,692 1105,692 1105,692 1105,692 1105,692 1106,692 1106,692 1106,692 1106,692 1107,692 1107,692 1107,692 1107,692 1108,692 1108,692 1108,691 1109,691 1109,691 1109,691 1109,691 1110,691 1110,691 1110,691 1110,691 1111,691 1111,691 1112,692 1112,692 1112,692 1113,692 1113,692 1113,692 1113,692 1114,692 1114,692 1114,692 1114,692 1115,692 1115,692 1115,692 1115,692 1116,692 1116,692 1116,692 1116,692 1117,692 1117,692 1117,692 1117,692 1118,692 1118,692 1118,692 1118,692 1119,692 1119,692 1119,692 1119,692 1120,692 1120,692 1120,692 1120,692 1121,692 1121,692 1122,692 1122,692 1122,692 1123,692 1123,692 1123,692 1123,692 1124,692 1124,692 1124,692 1124,692 1125,692 1125,692 1125,692 1125,692 1126,692 1126,692 1126,692 1126,692 1127,692 1127,692 1127,692 1128,692 1128,692 1128,692 1128,692 1129,692 1129,692 1129,692 1129,692 1130,692 1130,691 1131,691 1131,691 1132,691 1132,691 1132,691 1133,691 1133,691 1133,691 1133,691 1134,691 1134,691 1134,691 1134,691 1135,691 1135,691 1135,691 1135,691 1136,691 1136,691 1136,691 1136,691 1137,691 1137,691 1137,691 1138,691 1138,691 1138,691 1138,691 1139,691 1139,691 1139,691 1139,691 1140,691 1140,691 1141,691 1141,691 1141,691 1141,691 1142,691 1142,691 1142,691 1142,691 1143,691 1143,691 1143,691 1143,691 1144,691 1144,691 1144,691 1144,691 1145,691 1145,691 1145,691 1145,691 1146,691 1146,691 1146,691 1147,691 1147,691 1147,691 1147,691 1148,691 1148,691 1148,691 1148,691 1149,691 1149,691 1149,691 1149,691 1150,691 1151,691 1151,691 1151,691 1151,691 1152,691 1152,691 1152,691 1152,691 1153,691 1153,691 1153,691 1153,691 1154,691 1154,691 1154,691 1154,691 1155,691 1155,691 1155,691 1155,691 1156,691 1156,691 1156,691 1156,691 1157,691 1157,691 1157,691 1157,691 1158,691 1158,691 1158,691 1158,691 1159,691 1159,691 1159,691 1159,691 1160,691 1161,691 1161,691 1161,691 1161,691 1162,691 1162,691 1162,691 1162,691 1163,691 1163,691 1163,691 1163,691 1164,691 1164,691 1164,691 1164,691 1165,691 1165,691 1165,691 1165,691 1166,691 1166,691 1166,691 1166,691 1167,691 1167,691 1167,691 1167,691 1168,691 1168,691 1168,691 1168,691 1169,691 1169,691 1169,691 1169,691 1170,691 1170,691 1171,691 1171,691 1171,691 1171,691 1172,691 1172,691 1172,691 1172,691 1173,691 1173,691 1173,691 1173,691 1174,691 1174,691 1174,691 1174,691 1175,691 1175,691 1175,691 1176,691 1176,691 1176,691 1177,691 1177,691 1177,691 1177,691 1178,691 1178,691 1178,691 1178,691 1179,691 1179,691 1179,691 1179,691 1180,691 1180,691 1181,691 1181,691 1181,691 1181,691 1182,691 1182,691 1182,691 1183,691 1183,691 1183,691 1183,691 1184,691 1184,691 1184,691 1184,691 1185,691 1185,691 1185,691 1185,691 1186,691 1186,691 1186,691 1186,691 1187,691 1187,691 1187,691 1187,691 1188,691 1188,691 1188,691 1188,691 1189,691 1189,691 1190,691 "/>
<polyline fill="none" opacity="1" stroke="#196BE6" stroke-width="2" points="86,738 93,738 96,738 105,738 106,738 112,738 116,737 123,737 124,737 124,737 129,737 132,737 135,737 140,737 142,737 148,737 149,737 149,736 152,736 154,736 156,736 156,736 157,735 158,735 160,735 163,735 164,735 166,735 167,734 169,734 169,734 172,734 173,734 174,734 174,734 176,734 179,734 182,734 186,734 188,733 195,733 196,733 197,733 199,733 200,733 200,733 201,733 202,733 208,733 209,733 210,733 211,733 215,733 215,733 216,733 218,733 218,733 219,732 220,732 221,732 221,732 222,732 225,732 227,732 230,732 231,732 233,732 233,732 235,732 235,732 236,732 237,732 238,732 239,732 240,732 240,732 242,732 243,732 245,732 245,732 247,732 248,732 249,732 249,732 250,732 250,732 252,732 253,732 253,732 254,732 255,732 257,732 257,732 258,732 259,732 260,731 260,731 262,731 264,731 264,731 265,731 268,731 269,731 270,731 270,731 271,731 271,731 272,731 272,731 273,731 275,730 277,730 279,730 279,730 280,730 282,730 283,730 283,730 286,730 288,730 289,729 289,729 290,729 290,729 291,729 292,729 293,729 293,729 294,729 295,729 296,729 296,729 297,729 297,729 298,728 298,728 299,728 299,728 300,728 300,728 301,728 301,728 302,728 302,728 303,728 303,728 304,728 305,728 306,728 306,728 307,728 307,728 308,728 308,728 309,728 309,728 310,728 310,728 311,728 311,728 312,728 312,728 313,728 314,728 314,728 315,728 316,728 317,728 317,727 318,727 318,727 319,727 319,727 320,727 320,727 321,727 321,727 322,727 322,727 323,727 323,727 324,726 324,726 325,726 326,726 326,726 327,726 327,726 328,726 328,726 329,726 329,726 330,726 330,726 331,726 331,726 332,726 332,726 333,726 333,726 334,726 334,725 335,725 336,725 336,725 337,725 337,725 338,725 338,725 339,725 339,725 340,725 340,725 341,725 341,725 342,725 342,725 343,725 343,725 344,725 345,725 345,725 346,725 346,725 347,725 347,725 348,725 348,725 349,725 349,725 350,725 350,725 351,725 351,725 352,725 352,725 353,725 353,725 354,725 355,725 355,725 356,725 356,725 357,725 357,725 358,725 358,725 359,725 359,725 360,725 360,725 361,725 361,725 362,725 362,725 363,725 363,725 364,725 365,725 365,725 366,725 366,725 367,725 367,724 368,724 368,724 369,724 369,724 370,724 370,724 371,724 371,724 372,724 372,724 373,724 373,724 374,724 375,724 375,724 376,724 376,724 377,724 377,724 378,724 378,724 379,724 379,724 380,724 380,724 381,724 381,724 382,724 382,724 383,724 383,724 384,724 385,724 385,724 386,724 386,724 387,724 387,724 388,724 388,724 389,724 389,724 390,724 390,723 391,723 391,723 392,723 392,723 393,723 393,723 394,723 395,723 395,723 396,723 396,723 397,723 397,723 398,723 398,723 399,723 399,723 400,723 400,723 401,723 401,723 402,723 402,723 403,723 404,723 404,723 405,723 405,722 406,722 406,722 407,722 407,722 408,722 408,722 409,722 409,722 410,722 410,722 411,722 411,722 412,722 412,722 413,722 414,722 414,722 415,722 415,722 416,722 417,722 417,722 418,722 418,722 419,722 419,722 420,722 420,722 421,722 421,722 422,722 422,722 423,722 424,722 424,722 425,722 425,722 426,722 426,722 427,722 427,722 428,722 428,722 429,722 429,722 430,722 430,722 431,722 431,722 432,722 433,722 434,722 434,722 435,721 435,721 436,721 436,721 437,721 437,721 438,721 438,721 439,721 439,721 440,721 440,721 441,721 441,721 442,721 442,721 443,721 444,721 444,721 445,721 445,721 446,721 446,721 447,721 447,721 448,721 448,721 449,721 449,721 450,721 450,721 451,721 451,721 452,721 452,721 454,721 454,721 455,721 455,721 456,721 456,721 457,721 457,721 458,721 458,721 459,721 459,721 460,721 460,721 461,721 461,721 462,721 463,721 463,721 464,720 464,720 465,720 465,720 466,720 466,720 467,720 467,720 468,720 468,720 469,720 469,720 470,720 470,720 471,720 471,719 472,719 473,719 473,719 474,719 474,719 475,719 475,719 476,719 476,719 477,719 477,719 478,719 478,718 479,718 479,718 480,718 480,718 481,718 481,718 482,718 483,718 483,718 484,718 484,718 485,718 485,718 486,718 486,718 487,718 487,718 488,718 489,718 489,718 490,718 490,718 491,718 491,718 492,718 493,718 493,718 494,718 494,718 495,718 495,718 496,718 496,718 497,718 497,718 498,718 498,718 499,718 499,718 500,718 500,718 501,718 501,718 502,718 503,718 503,718 504,718 504,718 505,718 505,718 506,718 506,718 507,718 507,718 508,718 508,718 509,718 509,718 510,718 510,718 511,718 512,718 512,718 513,718 513,717 514,717 514,717 515,717 515,717 516,717 516,717 517,717 517,717 518,717 518,717 519,716 519,716 520,716 520,716 521,716 522,716 522,716 523,716 523,716 524,716 524,716 525,716 525,716 526,716 526,716 527,716 527,716 528,716 528,716 529,716 529,716 530,716 530,716 531,716 532,715 532,716 533,716 533,715 534,715 534,715 535,715 535,715 536,715 536,715 537,715 537,715 538,715 538,715 539,715 539,715 540,715 540,715 541,714 542,714 542,714 543,714 543,715 544,714 544,714 545,714 545,714 546,714 546,714 547,714 547,714 548,714 548,714 549,714 549,714 550,714 550,714 551,714 552,714 552,714 553,714 553,714 554,714 554,714 555,714 555,714 556,714 556,714 557,714 557,714 558,714 558,714 559,714 559,714 560,714 560,714 561,714 562,714 562,713 563,713 563,713 564,713 564,713 565,713 565,713 566,713 566,713 567,713 567,713 568,713 568,713 569,713 569,713 570,713 571,713 571,713 572,713 572,713 573,713 573,713 574,713 574,713 575,713 575,713 576,713 576,713 577,713 577,713 578,713 578,713 579,713 579,713 580,713 581,712 581,712 582,712 582,712 583,712 583,712 584,712 584,712 585,712 585,712 586,712 586,712 587,712 587,712 588,712 588,712 589,712 589,712 590,712 591,712 591,712 592,712 592,712 593,712 593,712 594,712 594,712 595,712 595,712 596,712 596,712 597,712 597,712 598,712 598,712 599,712 599,712 600,712 601,712 601,711 602,711 602,711 603,711 603,711 604,711 604,711 605,711 605,711 606,711 606,711 607,711 607,711 608,711 608,711 609,711 609,711 610,711 611,711 611,711 612,711 612,711 613,711 613,711 614,711 614,711 615,711 615,711 616,711 616,711 617,711 617,711 618,711 618,711 619,711 619,711 620,711 621,711 621,711 622,711 622,711 623,711 623,711 624,711 624,711 625,711 625,711 626,711 626,711 627,711 627,711 628,711 628,711 629,711 630,711 630,711 631,710 631,710 632,710 632,710 633,710 633,710 634,710 634,710 635,710 635,710 636,710 636,710 637,710 637,710 638,710 638,710 639,710 640,710 640,710 641,710 641,710 642,710 642,710 643,710 643,710 644,710 644,710 645,710 645,710 646,710 646,710 647,710 647,710 648,710 648,709 649,709 650,709 650,709 651,709 651,709 652,709 652,709 653,709 653,709 654,709 654,709 655,709 655,709 656,709 656,709 657,709 657,709 658,709 658,709 659,709 660,709 660,709 661,709 661,709 662,709 662,709 663,709 663,709 664,709 664,709 665,709 665,708 666,708 666,708 667,708 667,708 668,708 668,708 669,708 670,708 670,708 671,708 671,708 672,708 672,708 673,707 673,707 674,707 674,707 675,707 675,707 676,707 676,707 677,707 677,707 678,707 678,707 679,707 680,707 680,707 681,707 681,707 682,707 682,707 683,707 683,707 684,707 684,707 685,707 685,707 686,707 686,707 687,707 687,707 688,707 689,707 689,707 690,707 690,707 691,707 691,707 692,707 692,707 693,707 693,707 694,707 694,707 695,707 695,707 696,707 696,707 697,707 697,707 698,707 699,706 699,706 700,706 700,706 701,706 701,706 702,706 702,706 703,706 703,706 704,706 704,706 705,706 705,706 706,706 706,706 707,706 707,706 708,706 709,706 709,706 710,706 710,706 711,706 711,706 712,706 712,706 713,706 713,706 714,706 714,706 715,706 715,706 716,706 716,706 717,706 717,706 718,705 719,705 719,705 720,705 720,705 721,705 721,705 722,705 722,705 723,705 723,705 724,705 724,705 725,705 725,705 726,705 726,705 727,705 727,705 728,705 729,705 729,705 730,705 730,705 731,705 731,705 732,705 732,705 733,705 733,705 734,705 734,705 735,705 735,705 736,705 736,705 737,705 738,705 738,705 739,705 739,705 740,705 740,705 741,704 741,704 742,704 742,704 743,704 743,704 744,704 744,704 745,704 745,705 746,705 746,705 747,705 748,705 748,705 749,705 749,705 750,705 750,705 751,704 751,704 752,704 752,704 753,705 753,705 754,705 754,705 755,705 755,705 756,705 756,705 757,705 758,705 758,705 759,705 759,705 760,705 760,705 761,705 761,705 762,705 762,705 763,705 763,704 764,704 764,704 765,704 765,704 766,704 766,704 767,704 768,704 768,704 769,704 769,704 770,704 770,704 771,704 771,704 772,704 772,704 773,704 773,704 774,704 774,704 775,704 775,704 776,704 776,704 777,704 778,704 778,704 779,704 779,704 780,704 780,704 781,704 781,704 782,704 782,704 783,704 783,704 784,704 784,704 785,704 785,704 786,704 786,704 787,704 788,703 788,703 789,703 789,703 790,703 790,703 791,703 791,703 792,703 792,703 793,703 793,703 794,703 794,703 795,703 795,703 796,703 797,703 797,703 798,703 798,703 799,703 799,703 800,703 800,703 800,703 801,703 801,703 802,703 802,703 803,703 803,703 804,703 804,703 805,703 805,703 806,703 807,703 807,703 808,703 808,703 809,703 809,703 810,703 810,703 811,702 811,702 812,702 812,702 813,702 813,702 814,702 814,702 815,702 815,702 816,702 817,702 817,702 818,702 818,702 819,702 819,702 820,702 820,701 821,701 821,701 822,701 822,701 823,701 823,701 824,701 824,701 825,701 825,701 826,701 827,701 827,701 828,701 828,701 829,701 829,701 830,701 830,701 831,701 831,701 832,701 832,701 833,701 833,701 834,701 834,701 835,701 835,701 836,701 837,701 837,701 838,701 838,701 839,701 839,701 840,701 840,701 841,701 841,700 842,700 842,700 843,700 843,700 844,700 844,700 845,700 845,700 846,700 847,700 847,700 848,700 848,700 849,700 849,700 850,700 850,700 851,700 851,700 852,700 852,700 853,700 853,700 854,700 854,700 855,700 856,700 856,700 857,700 857,700 858,700 858,700 859,700 859,700 860,700 860,700 861,700 861,700 862,700 862,700 863,700 863,700 864,700 864,700 865,700 866,700 866,700 867,700 867,700 868,700 868,700 869,700 869,700 870,700 870,700 871,700 871,700 872,700 872,700 873,700 873,699 874,699 874,699 875,699 876,699 876,699 877,699 877,699 878,699 878,699 879,699 879,699 880,699 880,699 881,699 881,699 882,699 882,699 883,699 883,699 884,699 884,699 885,698 886,698 886,698 887,698 887,698 888,698 888,698 889,698 889,698 890,698 890,698 891,698 891,698 892,698 892,698 893,698 893,698 894,698 894,698 895,698 896,698 896,698 897,698 897,698 898,698 898,698 899,698 899,698 900,698 900,698 901,698 901,698 902,698 902,698 903,698 903,698 904,698 904,698 905,698 906,698 906,698 907,698 907,698 908,698 908,698 909,698 909,698 910,697 910,697 911,697 911,697 912,697 912,697 913,697 913,697 914,697 915,697 915,697 916,697 916,697 917,697 917,697 918,697 918,697 919,697 919,696 920,696 920,696 921,696 921,696 922,696 922,696 923,696 923,696 924,696 925,696 925,696 926,696 926,696 927,696 927,696 928,696 928,696 929,696 929,696 930,696 930,696 931,696 931,696 932,696 932,696 933,696 933,696 934,696 935,696 935,696 936,696 936,696 937,696 937,696 938,696 938,696 939,696 939,696 940,696 940,696 941,696 941,696 942,696 942,696 943,696 943,696 944,696 945,696 945,696 946,696 946,696 947,696 947,696 948,696 948,696 949,696 949,696 950,696 950,696 951,696 951,696 952,696 952,696 953,696 953,695 954,696 955,696 955,696 956,696 956,696 957,696 957,696 958,696 958,696 959,696 959,696 960,696 960,695 961,695 961,695 962,695 962,695 963,695 964,695 964,695 965,695 965,695 966,695 966,695 967,695 967,695 968,695 968,695 969,695 969,695 970,695 970,695 971,695 971,695 972,695 972,695 973,695 974,695 974,695 975,695 975,695 976,694 976,694 977,694 977,694 978,694 978,694 979,694 979,694 980,694 980,694 981,694 981,694 982,694 982,694 983,694 984,694 984,694 985,694 985,694 986,694 986,694 987,694 987,694 988,694 988,694 989,694 989,694 990,694 990,694 991,694 991,694 992,693 992,693 993,693 994,693 994,693 995,693 995,693 996,693 996,693 997,693 997,693 998,693 998,693 999,693 999,693 1000,693 1000,693 1001,693 1001,693 1002,693 1002,693 1003,693 1004,693 1004,693 1004,693 1005,693 1005,693 1006,693 1006,693 1007,693 1007,693 1008,693 1008,693 1009,693 1009,693 1010,693 1010,693 1011,693 1011,693 1012,693 1012,693 1013,692 1014,692 1014,692 1015,692 1015,692 1016,692 1016,692 1017,692 1017,692 1018,692 1018,692 1019,692 1019,692 1020,692 1020,692 1021,692 1021,692 1022,692 1023,692 1023,692 1024,692 1024,692 1025,692 1025,692 1026,692 1026,692 1027,692 1027,692 1028,691 1028,691 1029,691 1029,691 1030,691 1030,691 1031,691 1031,691 1032,691 1033,691 1033,691 1034,691 1034,691 1035,691 1035,691 1036,691 1036,691 1037,691 1037,691 1038,691 1038,691 1039,691 1039,691 1040,691 1040,691 1041,691 1041,691 1042,691 1043,691 1043,691 1044,691 1044,691 1045,691 1045,691 1046,691 1046,691 1047,691 1047,691 1048,691 1048,691 1049,691 1049,691 1050,691 1050,691 1051,691 1051,691 1052,691 1053,691 1053,691 1054,691 1054,691 1055,691 1055,691 1056,691 1056,691 1057,691 1057,691 1058,691 1058,691 1059,691 1059,691 1060,691 1060,691 1061,691 1061,691 1062,691 1063,691 1063,691 1064,691 1064,691 1065,691 1065,691 1066,691 1066,691 1067,691 1067,691 1068,691 1068,691 1069,691 1069,691 1070,691 1070,691 1071,691 1071,691 1072,691 1073,691 1073,691 1074,691 1074,691 1075,691 1075,691 1076,691 1076,691 1077,690 1077,690 1078,690 1078,690 1078,690 1078,690 1079,690 1079,690 1079,690 1080,690 1080,690 1080,690 1081,690 1081,690 1082,690 1082,690 1082,690 1082,690 1083,690 1083,690 1083,690 1083,690 1084,690 1084,690 1084,690 1084,690 1085,690 1085,690 1085,690 1085,690 1086,690 1086,690 1086,690 1087,690 1087,690 1087,690 1088,690 1088,690 1088,690 1088,690 1089,690 1089,690 1089,690 1089,690 1090,690 1090,690 1090,690 1090,690 1091,690 1092,690 1092,690 1092,690 1092,690 1093,690 1093,690 1093,690 1093,690 1094,690 1094,690 1094,690 1094,690 1095,690 1095,690 1095,690 1095,690 1096,690 1096,690 1096,690 1097,690 1097,690 1097,690 1097,690 1098,690 1098,690 1098,690 1098,690 1099,690 1099,690 1099,690 1099,689 1100,689 1100,689 1100,689 1100,689 1101,689 1101,689 1102,689 1102,689 1102,689 1102,689 1103,689 1103,689 1104,689 1104,689 1104,689 1104,689 1105,689 1105,689 1105,689 1105,689 1106,689 1106,689 1106,689 1106,689 1107,689 1107,689 1107,689 1107,689 1108,689 1108,689 1108,689 1109,689 1109,689 1109,689 1109,689 1110,689 1110,689 1110,689 1110,689 1111,689 1111,689 1112,689 1112,689 1112,689 1113,689 1113,689 1113,689 1113,689 1114,689 1114,689 1114,689 1114,689 1115,689 1115,689 1115,689 1115,689 1116,689 1116,689 1116,689 1116,689 1117,689 1117,689 1117,689 1117,689 1118,689 1118,689 1118,689 1118,689 1119,689 1119,689 1119,689 1119,689 1120,689 1120,689 1120,689 1120,688 1121,688 1121,688 1122,688 1122,688 1122,688 1123,688 1123,688 1123,688 1123,679 1124,679 1124,679 1124,679 1124,679 1125,679 1125,679 1125,679 1125,679 1126,679 1126,679 1126,679 1126,678 1127,678 1127,678 1127,678 1128,678 1128,678 1128,678 1128,678 1129,678 1129,678 1129,678 1129,678 1130,678 1130,677 1131,677 1131,677 1132,677 1132,677 1132,677 1133,677 1133,677 1133,677 1133,677 1134,677 1134,677 1134,677 1134,677 1135,677 1135,677 1135,677 1135,677 1136,677 1136,677 1136,677 1136,677 1137,677 1137,677 1137,677 1138,677 1138,677 1138,677 1138,677 1139,677 1139,677 1139,677 1139,677 1140,677 1140,677 1141,677 1141,677 1141,677 1141,677 1142,677 1142,677 1142,677 1142,677 1143,677 1143,677 1143,677 1143,677 1144,677 1144,677 1144,677 1144,677 1145,677 1145,677 1145,677 1145,677 1146,677 1146,677 1146,677 1147,677 1147,677 1147,677 1147,677 1148,677 1148,677 1148,677 1148,677 1149,677 1149,677 1149,677 1149,677 1150,677 1151,677 1151,676 1151,676 1151,676 1152,676 1152,676 1152,676 1152,676 1153,676 1153,676 1153,676 1153,676 1154,676 1154,676 1154,676 1154,676 1155,676 1155,676 1155,676 1155,676 1156,676 1156,676 1156,676 1156,676 1157,676 1157,676 1157,676 1157,676 1158,676 1158,676 1158,676 1158,676 1159,676 1159,676 1159,676 1159,676 1160,676 1161,676 1161,676 1161,676 1161,676 1162,676 1162,676 1162,676 1162,676 1163,676 1163,676 1163,676 1163,676 1164,676 1164,676 1164,676 1164,676 1165,676 1165,676 1165,676 1165,676 1166,676 1166,676 1166,676 1166,676 1167,676 1167,676 1167,676 1167,676 1168,676 1168,676 1168,676 1168,676 1169,676 1169,676 1169,676 1169,676 1170,676 1170,676 1171,676 1171,676 1171,676 1171,676 1172,676 1172,676 1172,676 1172,676 1173,676 1173,676 1173,676 1173,676 1174,676 1174,676 1174,676 1174,676 1175,676 1175,676 1175,676 1176,676 1176,676 1176,676 1177,676 1177,676 1177,676 1177,676 1178,676 1178,676 1178,676 1178,676 1179,676 1179,676 1179,676 1179,676 1180,676 1180,676 1181,676 1181,676 1181,676 1181,676 1182,676 1182,676 1182,676 1183,676 1183,676 1183,676 1183,676 1184,676 1184,676 1184,676 1184,676 1185,676 1185,676 1185,676 1185,676 1186,676 1186,676 1186,676 1186,676 1187,676 1187,676 1187,676 1187,676 1188,676 1188,676 1188,676 1188,676 1189,676 1189,676 1190,676 "/>
<polyline fill="none" opacity="1" stroke="#BD19E6" stroke-width="2" points="500,738 501,738 522,738 539,738 557,738 558,738 566,737 578,737 582,737 586,737 594,737 596,736 598,736 601,736 606,736 621,735 622,735 627,735 633,735 639,735 641,735 642,734 643,734 645,734 646,734 650,734 651,733 654,733 655,733 655,733 656,733 656,733 660,733 660,733 661,733 661,733 664,732 666,732 666,732 667,732 668,732 670,732 671,731 672,731 672,731 673,731 674,731 674,731 675,731 675,731 676,731 677,731 680,730 681,730 682,730 684,730 685,730 687,730 687,729 690,729 692,729 693,729 693,729 696,728 698,728 699,728 700,728 704,727 704,727 705,727 705,726 709,726 709,726 710,726 711,726 711,726 712,725 712,725 713,725 714,725 714,724 715,724 715,724 716,724 716,724 717,723 719,723 720,723 720,723 721,722 722,722 722,722 723,722 723,721 724,721 724,721 725,721 725,721 726,721 726,721 727,721 727,721 728,720 729,720 729,720 730,719 730,719 731,719 732,719 733,718 734,719 734,718 735,718 735,718 736,717 737,717 738,716 739,716 739,716 740,716 740,716 741,716 741,716 742,716 742,716 743,715 743,715 744,715 744,715 745,715 745,715 746,715 746,715 747,715 748,715 748,715 749,715 749,715 750,715 750,715 751,715 751,715 752,715 752,715 753,714 753,714 754,714 755,714 755,714 756,714 756,713 757,713 758,713 758,713 759,713 759,713 760,713 761,712 761,712 762,712 762,712 763,712 763,712 764,712 764,712 765,712 765,712 766,711 766,711 767,711 768,710 768,710 769,710 769,710 770,710 770,710 771,710 771,710 772,710 773,710 773,710 774,710 774,710 775,710 775,710 776,709 776,709 777,709 778,709 778,709 779,709 779,709 780,708 780,708 781,707 781,707 782,707 782,707 783,707 783,707 784,707 784,707 785,706 785,706 786,706 787,706 788,706 788,706 789,706 789,706 790,705 791,705 791,704 792,704 793,704 793,704 794,704 794,704 795,704 795,704 796,704 797,704 798,704 798,704 799,703 799,703 800,703 800,703 800,703 801,703 801,703 802,703 802,702 803,702 804,702 804,702 805,701 805,701 806,701 807,701 807,700 808,700 808,700 809,700 809,700 810,699 810,699 811,699 811,699 812,698 812,698 813,698 813,698 814,698 814,698 815,697 815,697 816,697 817,697 817,697 818,697 818,696 819,696 819,696 820,696 820,695 821,695 821,695 822,695 822,695 823,695 823,695 824,695 824,694 825,694 825,694 826,694 827,694 827,694 828,693 828,693 829,693 829,693 830,693 831,693 831,693 832,693 832,693 833,693 833,693 834,693 834,693 835,693 835,693 836,693 837,692 837,692 838,692 838,692 839,692 839,692 840,692 840,692 841,692 841,691 842,691 842,691 843,690 843,690 844,690 844,689 845,689 845,688 846,688 847,688 847,688 848,688 848,688 849,687 849,687 850,686 850,686 851,686 851,686 852,686 852,685 853,685 853,685 854,684 854,683 855,683 856,683 856,682 857,682 857,682 858,682 858,681 859,680 859,680 860,680 860,679 861,679 861,679 862,679 862,679 863,679 863,678 864,678 864,678 865,678 866,678 866,677 867,677 867,677 868,677 868,677 869,676 869,676 870,676 870,675 871,675 871,675 872,675 872,675 873,674 873,674 874,674 874,674 875,673 876,673 876,673 877,673 877,673 878,673 878,673 879,673 879,673 880,672 880,672 881,672 881,672 882,671 882,671 883,671 883,670 884,670 884,670 885,670 886,669 886,669 887,669 887,668 888,668 888,667 889,667 889,667 890,667 890,667 891,666 891,666 892,665 892,665 893,665 893,665 894,664 894,664 895,664 896,664 896,663 897,663 897,663 898,662 898,662 899,662 899,662 900,662 900,661 901,661 901,661 902,661 902,661 903,660 903,660 904,660 904,660 905,660 906,659 906,659 907,659 907,659 908,658 908,658 909,658 909,658 910,658 910,658 911,658 911,657 912,657 912,656 913,656 913,656 914,656 915,656 915,655 916,655 916,655 917,655 917,654 918,654 918,654 919,653 919,653 920,653 920,653 921,652 921,652 922,652 922,652 923,651 923,651 924,650 925,650 925,650 926,650 926,650 927,649 927,649 928,649 928,649 929,648 929,648 930,648 930,648 931,648 931,648 932,648 932,647 933,647 933,646 934,646 935,646 935,646 936,646 936,645 937,645 937,645 938,644 938,644 939,644 939,644 940,643 940,643 941,642 941,642 942,642 942,642 943,642 943,641 944,641 945,641 945,640 946,640 946,640 947,640 947,640 948,640 948,639 949,639 949,639 950,639 950,639 951,639 951,639 952,638 952,638 953,637 953,637 954,637 955,637 955,636 956,636 956,636 957,635 957,635 958,635 958,634 959,634 959,634 960,634 960,633 961,633 961,633 962,633 962,632 963,632 964,631 964,631 965,631 965,631 966,630 966,629 967,629 967,629 968,628 968,628 969,628 969,628 970,627 970,627 971,627 971,627 972,626 972,625 974,625 974,625 975,625 975,625 976,624 976,624 977,624 977,624 978,624 978,623 979,623 979,622 980,622 980,621 981,621 981,621 982,620 982,620 983,619 984,619 984,619 985,618 985,618 986,618 986,618 987,618 987,617 988,616 988,616 989,616 989,615 990,615 990,615 991,614 991,614 992,613 992,613 993,612 994,611 994,611 995,610 995,610 996,610 996,609 997,609 997,608 998,608 998,608 999,607 999,607 1000,607 1000,606 1001,606 1001,605 1002,605 1002,605 1003,604 1004,604 1004,604 1004,603 1005,603 1005,603 1006,602 1006,602 1007,601 1007,600 1008,599 1008,599 1009,598 1009,597 1010,597 1010,597 1011,597 1011,597 1012,596 1012,596 1013,596 1014,596 1014,596 1015,595 1015,594 1016,594 1016,594 1017,593 1017,593 1018,593 1018,592 1019,592 1019,591 1020,591 1020,591 1021,590 1021,590 1022,590 1023,589 1023,589 1024,588 1024,588 1025,588 1025,588 1026,587 1026,587 1027,587 1027,587 1028,586 1028,586 1029,586 1029,584 1030,584 1030,584 1031,583 1031,583 1032,583 1033,583 1033,582 1034,581 1034,581 1035,580 1035,580 1036,579 1036,578 1037,578 1037,578 1038,577 1038,577 1039,577 1039,576 1040,576 1040,575 1041,575 1041,575 1042,575 1043,574 1043,574 1044,573 1044,573 1045,573 1045,572 1046,572 1046,572 1047,571 1047,570 1048,570 1048,570 1049,569 1049,569 1050,568 1050,568 1051,567 1051,567 1052,567 1053,567 1053,567 1054,566 1054,566 1055,566 1055,566 1056,566 1056,564 1057,564 1057,564 1058,564 1058,563 1059,563 1059,563 1060,563 1060,562 1061,561 1061,561 1062,560 1063,560 1063,559 1064,559 1064,558 1065,558 1065,558 1066,557 1066,557 1067,557 1067,556 1068,556 1068,556 1069,555 1069,554 1070,554 1070,553 1071,552 1071,552 1072,551 1073,551 1073,551 1074,550 1074,549 1075,549 1075,549 1076,548 1076,548 1077,547 1077,547 1078,547 1078,547 1078,547 1078,546 1079,545 1079,545 1079,545 1080,545 1080,544 1080,544 1081,544 1081,544 1082,544 1082,543 1082,543 1082,543 1083,543 1083,543 1083,543 1083,542 1084,542 1084,542 1084,542 1084,541 1085,541 1085,541 1085,541 1085,540 1086,540 1086,540 1086,539 1087,539 1087,538 1087,538 1088,538 1088,538 1088,538 1088,538 1089,538 1089,537 1089,537 1089,537 1090,537 1090,536 1090,536 1090,536 1091,536 1092,536 1092,535 1092,535 1092,534 1093,534 1093,534 1093,534 1093,533 1094,533 1094,532 1094,532 1094,532 1095,532 1095,532 1095,532 1095,532 1096,532 1096,531 1096,530 1097,530 1097,530 1097,530 1097,529 1098,529 1098,529 1098,529 1098,528 1099,528 1099,528 1099,528 1099,527 1100,527 1100,527 1100,527 1100,526 1101,526 1101,526 1102,526 1102,526 1102,526 1102,525 1103,524 1103,524 1104,524 1104,523 1104,523 1104,522 1105,522 1105,522 1105,522 1105,522 1106,522 1106,522 1106,522 1106,521 1107,521 1107,521 1107,521 1107,521 1108,521 1108,520 1108,519 1109,519 1109,519 1109,519 1109,518 1110,518 1110,517 1110,517 1110,516 1111,516 1111,516 1112,515 1112,515 1112,514 1113,514 1113,514 1113,514 1113,513 1114,513 1114,513 1114,513 1114,512 1115,512 1115,512 1115,512 1115,511 1116,511 1116,511 1116,510 1117,510 1117,509 1117,509 1117,509 1118,509 1118,508 1118,508 1118,508 1119,508 1119,507 1119,507 1119,506 1120,506 1120,505 1120,505 1120,504 1121,504 1121,503 1122,502 1122,502 1122,502 1123,502 1123,502 1123,502 1123,501 1124,501 1124,501 1124,501 1124,501 1125,501 1125,501 1125,501 1125,500 1126,500 1126,499 1126,499 1126,499 1127,498 1127,498 1127,497 1128,497 1128,497 1128,497 1128,496 1129,496 1129,495 1129,495 1129,495 1130,494 1130,494 1131,494 1131,493 1132,493 1132,493 1132,493 1133,493 1133,493 1133,493 1133,492 1134,492 1134,492 1134,492 1134,491 1135,491 1135,491 1135,491 1135,491 1136,491 1136,491 1136,491 1136,490 1137,490 1137,490 1137,490 1138,490 1138,489 1138,489 1138,489 1139,489 1139,489 1139,489 1139,488 1140,488 1140,488 1141,488 1141,488 1141,488 1141,487 1142,487 1142,486 1142,486 1142,485 1143,485 1143,485 1143,485 1143,485 1144,485 1144,485 1144,485 1144,484 1145,484 1145,483 1145,483 1145,483 1146,483 1146,483 1146,482 1147,482 1147,482 1147,482 1147,482 1148,482 1148,482 1148,482 1148,482 1149,482 1149,481 1149,481 1149,480 1150,480 1151,480 1151,480 1151,480 1151,480 1152,480 1152,479 1152,479 1152,479 1153,479 1153,478 1153,478 1153,478 1154,478 1154,477 1154,477 1154,476 1155,476 1155,476 1155,476 1155,476 1156,476 1156,476 1156,476 1156,475 1157,475 1157,475 1157,475 1157,474 1158,474 1158,474 1158,474 1158,474 1159,474 1159,473 1159,473 1159,473 1160,473 1161,473 1161,472 1161,472 1161,471 1162,471 1162,471 1162,471 1162,471 1163,471 1163,470 1163,470 1163,469 1164,469 1164,469 1164,469 1164,468 1165,468 1165,468 1165,468 1165,468 1166,468 1166,467 1166,467 1166,466 1167,466 1167,466 1167,466 1167,466 1168,466 1168,465 1168,465 1168,464 1169,464 1169,464 1169,464 1169,463 1170,463 1170,463 1171,463 1171,462 1171,462 1171,461 1172,461 1172,461 1172,461 1172,460 1173,460 1173,458 1173,458 1173,457 1174,457 1174,457 1174,457 1174,457 1175,456 1175,455 1175,454 1176,454 1176,454 1176,454 1177,454 1177,453 1177,453 1177,453 1178,453 1178,453 1178,453 1178,452 1179,452 1179,452 1179,452 1179,451 1180,451 1180,451 1181,451 1181,450 1181,450 1181,450 1182,450 1182,449 1182,449 1183,449 1183,449 1183,449 1183,449 1184,449 1184,449 1184,449 1184,447 1185,447 1185,447 1185,447 1185,446 1186,446 1186,446 1186,446 1186,445 1187,445 1187,445 1187,445 1187,444 1188,444 1188,444 1188,444 1188,443 1189,443 1189,443 1190,443 "/>
<rect x="1088" y="329" width="97" height="91" opacity="1" fill="#FFFFFF" stroke="none"/>
<rect x="1088" y="329" width="97" height="91" opacity="1" fill="none" stroke="#000000"/>
<text x="1128" y="339" dy="0.76em" text-anchor="start" font-family="sans-serif" font-size="9.67741935483871" opacity="1" fill="#000000">
argparse
</text>
<text x="1128" y="354" dy="0.76em" text-anchor="start" font-family="sans-serif" font-size="9.67741935483871" opacity="1" fill="#000000">
clap
</text>
<text x="1128" y="369" dy="0.76em" text-anchor="start" font-family="sans-serif" font-size="9.67741935483871" opacity="1" fill="#000000">
docopt
</text>
<text x="1128" y="384" dy="0.76em" text-anchor="start" font-family="sans-serif" font-size="9.67741935483871" opacity="1" fill="#000000">
getopts
</text>
<text x="1128" y="399" dy="0.76em" text-anchor="start" font-family="sans-serif" font-size="9.67741935483871" opacity="1" fill="#000000">
structopt
</text>
<polyline fill="none" opacity="1" stroke="#E61919" stroke-width="2" points="1098,343 1118,343 "/>
<polyline fill="none" opacity="1" stroke="#BDE619" stroke-width="2" points="1098,359 1118,359 "/>
<polyline fill="none" opacity="1" stroke="#19E66B" stroke-width="2" points="1098,374 1118,374 "/>
<polyline fill="none" opacity="1" stroke="#196BE6" stroke-width="2" points="1098,389 1118,389 "/>
<polyline fill="none" opacity="1" stroke="#BD19E6" stroke-width="2" points="1098,404 1118,404 "/>
</svg>
