<svg width="1200" height="800" xmlns="http://www.w3.org/2000/svg">
<rect x="0" y="0" width="1199" height="799" opacity="1" fill="#FFFFFF" stroke="none"/>
<line opacity="0.1" stroke="#000000" stroke-width="1" x1="60" y1="730" x2="1190" y2="730"/>
<line opacity="0.1" stroke="#000000" stroke-width="1" x1="60" y1="721" x2="1190" y2="721"/>
<line opacity="0.1" stroke="#000000" stroke-width="1" x1="60" y1="712" x2="1190" y2="712"/>
<line opacity="0.1" stroke="#000000" stroke-width="1" x1="60" y1="702" x2="1190" y2="702"/>
<line opacity="0.1" stroke="#000000" stroke-width="1" x1="60" y1="693" x2="1190" y2="693"/>
<line opacity="0.1" stroke="#000000" stroke-width="1" x1="60" y1="684" x2="1190" y2="684"/>
<line opacity="0.1" stroke="#000000" stroke-width="1" x1="60" y1="675" x2="1190" y2="675"/>
<line opacity="0.1" stroke="#000000" stroke-width="1" x1="60" y1="666" x2="1190" y2="666"/>
<line opacity="0.1" stroke="#000000" stroke-width="1" x1="60" y1="657" x2="1190" y2="657"/>
<line opacity="0.1" stroke="#000000" stroke-width="1" x1="60" y1="648" x2="1190" y2="648"/>
<line opacity="0.1" stroke="#000000" stroke-width="1" x1="60" y1="639" x2="1190" y2="639"/>
<line opacity="0.1" stroke="#000000" stroke-width="1" x1="60" y1="630" x2="1190" y2="630"/>
<line opacity="0.1" stroke="#000000" stroke-width="1" x1="60" y1="621" x2="1190" y2="621"/>
<line opacity="0.1" stroke="#000000" stroke-width="1" x1="60" y1="612" x2="1190" y2="612"/>
<line opacity="0.1" stroke="#000000" stroke-width="1" x1="60" y1="603" x2="1190" y2="603"/>
<line opacity="0.1" stroke="#000000" stroke-width="1" x1="60" y1="594" x2="1190" y2="594"/>
<line opacity="0.1" stroke="#000000" stroke-width="1" x1="60" y1="585" x2="1190" y2="585"/>
<line opacity="0.1" stroke="#000000" stroke-width="1" x1="60" y1="576" x2="1190" y2="576"/>
<line opacity="0.1" stroke="#000000" stroke-width="1" x1="60" y1="567" x2="1190" y2="567"/>
<line opacity="0.1" stroke="#000000" stroke-width="1" x1="60" y1="558" x2="1190" y2="558"/>
<line opacity="0.1" stroke="#000000" stroke-width="1" x1="60" y1="549" x2="1190" y2="549"/>
<line opacity="0.1" stroke="#000000" stroke-width="1" x1="60" y1="540" x2="1190" y2="540"/>
<line opacity="0.1" stroke="#000000" stroke-width="1" x1="60" y1="531" x2="1190" y2="531"/>
<line opacity="0.1" stroke="#000000" stroke-width="1" x1="60" y1="522" x2="1190" y2="522"/>
<line opacity="0.1" stroke="#000000" stroke-width="1" x1="60" y1="513" x2="1190" y2="513"/>
<line opacity="0.1" stroke="#000000" stroke-width="1" x1="60" y1="504" x2="1190" y2="504"/>
<line opacity="0.1" stroke="#000000" stroke-width="1" x1="60" y1="494" x2="1190" y2="494"/>
<line opacity="0.1" stroke="#000000" stroke-width="1" x1="60" y1="485" x2="1190" y2="485"/>
<line opacity="0.1" stroke="#000000" stroke-width="1" x1="60" y1="476" x2="1190" y2="476"/>
<line opacity="0.1" stroke="#000000" stroke-width="1" x1="60" y1="467" x2="1190" y2="467"/>
<line opacity="0.1" stroke="#000000" stroke-width="1" x1="60" y1="458" x2="1190" y2="458"/>
<line opacity="0.1" stroke="#000000" stroke-width="1" x1="60" y1="449" x2="1190" y2="449"/>
<line opacity="0.1" stroke="#000000" stroke-width="1" x1="60" y1="440" x2="1190" y2="440"/>
<line opacity="0.1" stroke="#000000" stroke-width="1" x1="60" y1="431" x2="1190" y2="431"/>
<line opacity="0.1" stroke="#000000" stroke-width="1" x1="60" y1="422" x2="1190" y2="422"/>
<line opacity="0.1" stroke="#000000" stroke-width="1" x1="60" y1="413" x2="1190" y2="413"/>
<line opacity="0.1" stroke="#000000" stroke-width="1" x1="60" y1="404" x2="1190" y2="404"/>
<line opacity="0.1" stroke="#000000" stroke-width="1" x1="60" y1="395" x2="1190" y2="395"/>
<line opacity="0.1" stroke="#000000" stroke-width="1" x1="60" y1="386" x2="1190" y2="386"/>
<line opacity="0.1" stroke="#000000" stroke-width="1" x1="60" y1="377" x2="1190" y2="377"/>
<line opacity="0.1" stroke="#000000" stroke-width="1" x1="60" y1="368" x2="1190" y2="368"/>
<line opacity="0.1" stroke="#000000" stroke-width="1" x1="60" y1="359" x2="1190" y2="359"/>
<line opacity="0.1" stroke="#000000" stroke-width="1" x1="60" y1="350" x2="1190" y2="350"/>
<line opacity="0.1" stroke="#000000" stroke-width="1" x1="60" y1="341" x2="1190" y2="341"/>
<line opacity="0.1" stroke="#000000" stroke-width="1" x1="60" y1="332" x2="1190" y2="332"/>
<line opacity="0.1" stroke="#000000" stroke-width="1" x1="60" y1="323" x2="1190" y2="323"/>
<line opacity="0.1" stroke="#000000" stroke-width="1" x1="60" y1="314" x2="1190" y2="314"/>
<line opacity="0.1" stroke="#000000" stroke-width="1" x1="60" y1="305" x2="1190" y2="305"/>
<line opacity="0.1" stroke="#000000" stroke-width="1" x1="60" y1="296" x2="1190" y2="296"/>
<line opacity="0.1" stroke="#000000" stroke-width="1" x1="60" y1="286" x2="1190" y2="286"/>
<line opacity="0.1" stroke="#000000" stroke-width="1" x1="60" y1="277" x2="1190" y2="277"/>
<line opacity="0.1" stroke="#000000" stroke-width="1" x1="60" y1="268" x2="1190" y2="268"/>
<line opacity="0.1" stroke="#000000" stroke-width="1" x1="60" y1="259" x2="1190" y2="259"/>
<line opacity="0.1" stroke="#000000" stroke-width="1" x1="60" y1="250" x2="1190" y2="250"/>
<line opacity="0.1" stroke="#000000" stroke-width="1" x1="60" y1="241" x2="1190" y2="241"/>
<line opacity="0.1" stroke="#000000" stroke-width="1" x1="60" y1="232" x2="1190" y2="232"/>
<line opacity="0.1" stroke="#000000" stroke-width="1" x1="60" y1="223" x2="1190" y2="223"/>
<line opacity="0.1" stroke="#000000" stroke-width="1" x1="60" y1="214" x2="1190" y2="214"/>
<line opacity="0.1" stroke="#000000" stroke-width="1" x1="60" y1="205" x2="1190" y2="205"/>
<line opacity="0.1" stroke="#000000" stroke-width="1" x1="60" y1="196" x2="1190" y2="196"/>
<line opacity="0.1" stroke="#000000" stroke-width="1" x1="60" y1="187" x2="1190" y2="187"/>
<line opacity="0.1" stroke="#000000" stroke-width="1" x1="60" y1="178" x2="1190" y2="178"/>
<line opacity="0.1" stroke="#000000" stroke-width="1" x1="60" y1="169" x2="1190" y2="169"/>
<line opacity="0.1" stroke="#000000" stroke-width="1" x1="60" y1="160" x2="1190" y2="160"/>
<line opacity="0.1" stroke="#000000" stroke-width="1" x1="60" y1="151" x2="1190" y2="151"/>
<line opacity="0.1" stroke="#000000" stroke-width="1" x1="60" y1="142" x2="1190" y2="142"/>
<line opacity="0.1" stroke="#000000" stroke-width="1" x1="60" y1="133" x2="1190" y2="133"/>
<line opacity="0.1" stroke="#000000" stroke-width="1" x1="60" y1="124" x2="1190" y2="124"/>
<line opacity="0.1" stroke="#000000" stroke-width="1" x1="60" y1="115" x2="1190" y2="115"/>
<line opacity="0.1" stroke="#000000" stroke-width="1" x1="60" y1="106" x2="1190" y2="106"/>
<line opacity="0.1" stroke="#000000" stroke-width="1" x1="60" y1="97" x2="1190" y2="97"/>
<line opacity="0.1" stroke="#000000" stroke-width="1" x1="60" y1="88" x2="1190" y2="88"/>
<line opacity="0.1" stroke="#000000" stroke-width="1" x1="60" y1="78" x2="1190" y2="78"/>
<line opacity="0.1" stroke="#000000" stroke-width="1" x1="60" y1="69" x2="1190" y2="69"/>
<line opacity="0.1" stroke="#000000" stroke-width="1" x1="60" y1="60" x2="1190" y2="60"/>
<line opacity="0.1" stroke="#000000" stroke-width="1" x1="60" y1="51" x2="1190" y2="51"/>
<line opacity="0.1" stroke="#000000" stroke-width="1" x1="60" y1="42" x2="1190" y2="42"/>
<line opacity="0.1" stroke="#000000" stroke-width="1" x1="60" y1="33" x2="1190" y2="33"/>
<line opacity="0.1" stroke="#000000" stroke-width="1" x1="60" y1="24" x2="1190" y2="24"/>
<line opacity="0.1" stroke="#000000" stroke-width="1" x1="60" y1="15" x2="1190" y2="15"/>
<text x="10" y="375" dy="0.76em" text-anchor="middle" font-family="sans-serif" font-size="9.67741935483871" opacity="1" fill="#000000" transform="rotate(270, 10, 375)">
Number of dependent crates
</text>
<line opacity="0.2" stroke="#000000" stroke-width="1" x1="60" y1="648" x2="1190" y2="648"/>
<line opacity="0.2" stroke="#000000" stroke-width="1" x1="60" y1="558" x2="1190" y2="558"/>
<line opacity="0.2" stroke="#000000" stroke-width="1" x1="60" y1="467" x2="1190" y2="467"/>
<line opacity="0.2" stroke="#000000" stroke-width="1" x1="60" y1="377" x2="1190" y2="377"/>
<line opacity="0.2" stroke="#000000" stroke-width="1" x1="60" y1="286" x2="1190" y2="286"/>
<line opacity="0.2" stroke="#000000" stroke-width="1" x1="60" y1="196" x2="1190" y2="196"/>
<line opacity="0.2" stroke="#000000" stroke-width="1" x1="60" y1="106" x2="1190" y2="106"/>
<line opacity="0.2" stroke="#000000" stroke-width="1" x1="60" y1="15" x2="1190" y2="15"/>
<polyline fill="none" opacity="1" stroke="#000000" stroke-width="1" points="59,10 59,740 "/>
<text x="50" y="648" dy="0.5ex" text-anchor="end" font-family="sans-serif" font-size="9.67741935483871" opacity="1" fill="#000000">
500
</text>
<polyline fill="none" opacity="1" stroke="#000000" stroke-width="1" points="54,648 59,648 "/>
<text x="50" y="558" dy="0.5ex" text-anchor="end" font-family="sans-serif" font-size="9.67741935483871" opacity="1" fill="#000000">
1000
</text>
<polyline fill="none" opacity="1" stroke="#000000" stroke-width="1" points="54,558 59,558 "/>
<text x="50" y="467" dy="0.5ex" text-anchor="end" font-family="sans-serif" font-size="9.67741935483871" opacity="1" fill="#000000">
1500
</text>
<polyline fill="none" opacity="1" stroke="#000000" stroke-width="1" points="54,467 59,467 "/>
<text x="50" y="377" dy="0.5ex" text-anchor="end" font-family="sans-serif" font-size="9.67741935483871" opacity="1" fill="#000000">
2000
</text>
<polyline fill="none" opacity="1" stroke="#000000" stroke-width="1" points="54,377 59,377 "/>
<text x="50" y="286" dy="0.5ex" text-anchor="end" font-family="sans-serif" font-size="9.67741935483871" opacity="1" fill="#000000">
2500
</text>
<polyline fill="none" opacity="1" stroke="#000000" stroke-width="1" points="54,286 59,286 "/>
<text x="50" y="196" dy="0.5ex" text-anchor="end" font-family="sans-serif" font-size="9.67741935483871" opacity="1" fill="#000000">
3000
</text>
<polyline fill="none" opacity="1" stroke="#000000" stroke-width="1" points="54,196 59,196 "/>
<text x="50" y="106" dy="0.5ex" text-anchor="end" font-family="sans-serif" font-size="9.67741935483871" opacity="1" fill="#000000">
3500
</text>
<polyline fill="none" opacity="1" stroke="#000000" stroke-width="1" points="54,106 59,106 "/>
<text x="50" y="15" dy="0.5ex" text-anchor="end" font-family="sans-serif" font-size="9.67741935483871" opacity="1" fill="#000000">
4000
</text>
<polyline fill="none" opacity="1" stroke="#000000" stroke-width="1" points="54,15 59,15 "/>
<polyline fill="none" opacity="1" stroke="#000000" stroke-width="1" points="60,740 1190,740 "/>
<text x="60" y="750" dy="0.76em" text-anchor="middle" font-family="sans-serif" font-size="9.67741935483871" opacity="1" fill="#000000">
2014-11-20Z
</text>
<polyline fill="none" opacity="1" stroke="#000000" stroke-width="1" points="60,740 60,745 "/>
<text x="175" y="750" dy="0.76em" text-anchor="middle" font-family="sans-serif" font-size="9.67741935483871" opacity="1" fill="#000000">
2015-06-25Z
</text>
<polyline fill="none" opacity="1" stroke="#000000" stroke-width="1" points="175,740 175,745 "/>
<text x="290" y="750" dy="0.76em" text-anchor="middle" font-family="sans-serif" font-size="9.67741935483871" opacity="1" fill="#000000">
2016-01-28Z
</text>
<polyline fill="none" opacity="1" stroke="#000000" stroke-width="1" points="290,740 290,745 "/>
<text x="406" y="750" dy="0.76em" text-anchor="middle" font-family="sans-serif" font-size="9.67741935483871" opacity="1" fill="#000000">
2016-09-01Z
</text>
<polyline fill="none" opacity="1" stroke="#000000" stroke-width="1" points="406,740 406,745 "/>
<text x="521" y="750" dy="0.76em" text-anchor="middle" font-family="sans-serif" font-size="9.67741935483871" opacity="1" fill="#000000">
2017-04-06Z
</text>
<polyline fill="none" opacity="1" stroke="#000000" stroke-width="1" points="521,740 521,745 "/>
<text x="637" y="750" dy="0.76em" text-anchor="middle" font-family="sans-serif" font-size="9.67741935483871" opacity="1" fill="#000000">
2017-11-09Z
</text>
<polyline fill="none" opacity="1" stroke="#000000" stroke-width="1" points="637,740 637,745 "/>
<text x="752" y="750" dy="0.76em" text-anchor="middle" font-family="sans-serif" font-size="9.67741935483871" opacity="1" fill="#000000">
2018-06-14Z
</text>
<polyline fill="none" opacity="1" stroke="#000000" stroke-width="1" points="752,740 752,745 "/>
<text x="868" y="750" dy="0.76em" text-anchor="middle" font-family="sans-serif" font-size="9.67741935483871" opacity="1" fill="#000000">
2019-01-17Z
</text>
<polyline fill="none" opacity="1" stroke="#000000" stroke-width="1" points="868,740 868,745 "/>
<text x="983" y="750" dy="0.76em" text-anchor="middle" font-family="sans-serif" font-size="9.67741935483871" opacity="1" fill="#000000">
2019-08-22Z
</text>
<polyline fill="none" opacity="1" stroke="#000000" stroke-width="1" points="983,740 983,745 "/>
<text x="1099" y="750" dy="0.76em" text-anchor="middle" font-family="sans-serif" font-size="9.67741935483871" opacity="1" fill="#000000">
2020-03-26Z
</text>
<polyline fill="none" opacity="1" stroke="#000000" stroke-width="1" points="1099,740 1099,745 "/>
<polyline fill="none" opacity="1" stroke="#E61919" stroke-width="2" points="167,738 173,738 173,738 211,738 238,738 268,737 277,737 278,737 286,737 289,737 291,737 293,736 294,736 296,736 297,736 297,736 298,736 308,736 308,736 322,736 323,736 328,736 335,736 338,735 339,735 352,735 353,735 358,735 376,735 377,735 378,735 379,735 379,735 380,735 381,735 382,735 382,735 383,735 383,735 385,735 386,735 387,735 428,735 429,735 429,734 430,734 432,734 456,734 457,734 457,734 459,734 460,734 461,734 461,734 462,734 463,734 465,733 466,733 468,733 468,733 469,733 469,733 470,733 471,733 472,733 474,733 475,733 476,733 476,733 477,733 477,733 479,733 480,733 482,733 482,733 483,733 484,733 485,733 485,733 486,733 486,733 487,733 488,733 489,733 490,733 491,733 492,733 493,733 493,733 495,733 496,733 496,733 498,733 499,733 500,733 501,733 503,732 503,732 504,732 504,732 506,732 506,732 507,732 509,732 509,732 510,732 511,732 512,732 513,732 514,732 515,732 515,732 516,732 517,732 518,732 519,732 520,732 520,732 522,732 522,732 523,732 524,732 526,732 527,732 528,732 531,732 531,732 532,732 535,732 537,732 538,732 539,732 540,732 542,732 542,732 543,731 545,731 546,731 548,732 549,732 549,732 551,732 552,732 552,732 553,732 554,732 555,732 556,732 557,732 557,732 558,732 559,732 559,732 560,732 560,732 561,731 562,731 563,731 565,731 567,731 570,731 571,731 572,731 572,731 573,731 573,731 574,731 574,731 577,731 577,731 578,731 578,731 579,731 579,731 580,731 580,731 581,731 581,731 582,731 584,731 584,731 587,731 587,731 588,731 588,731 589,731 589,731 590,731 591,731 596,731 598,730 601,730 602,730 602,730 603,730 605,730 606,730 609,730 610,730 611,730 620,730 621,730 623,730 626,730 627,730 632,730 634,730 636,730 637,730 638,730 638,730 640,730 644,730 645,730 647,730 647,730 648,730 650,730 651,730 652,729 652,729 653,729 654,729 654,729 655,729 656,729 656,729 657,729 657,729 659,729 659,729 660,729 660,729 661,729 661,729 662,729 663,729 664,729 665,729 665,729 666,729 667,729 668,729 668,729 670,729 670,729 671,729 671,729 672,729 673,729 673,729 674,729 675,729 676,729 677,729 679,729 679,729 680,729 681,729 681,729 682,729 683,729 684,729 684,729 685,729 686,729 688,729 689,729 690,729 692,729 692,729 693,729 695,729 696,729 699,729 700,729 700,729 701,729 701,729 702,729 702,729 703,729 705,729 705,729 706,729 706,729 709,729 710,729 710,729 711,729 712,729 712,729 713,729 714,729 716,729 717,729 717,729 718,729 718,729 719,729 720,729 721,729 721,729 722,729 722,729 723,729 723,729 724,729 725,729 725,729 726,729 726,729 727,729 727,729 728,729 728,729 729,729 729,729 730,729 731,729 731,729 732,729 734,729 735,729 735,729 736,729 738,729 739,729 740,729 740,729 741,729 743,729 744,729 744,729 745,729 745,729 746,729 746,729 747,729 747,729 748,729 748,729 749,729 750,729 750,729 751,729 751,729 753,729 754,729 755,729 755,729 756,729 757,729 758,729 758,729 759,729 759,729 760,729 760,729 761,729 761,729 762,729 762,729 763,729 764,729 764,729 765,728 765,728 766,728 767,728 767,728 768,728 768,728 769,728 770,728 770,728 771,728 772,728 773,728 774,728 775,728 775,728 776,728 777,728 777,728 778,728 779,728 780,728 780,728 781,728 781,728 782,728 783,728 783,728 784,728 784,728 785,728 786,728 786,728 787,728 787,728 788,728 788,728 789,728 789,728 791,728 792,728 793,728 793,728 794,728 794,728 795,728 795,728 796,728 797,728 797,728 798,728 798,728 800,728 800,728 801,728 802,728 802,728 803,728 803,728 804,728 805,728 805,728 806,728 806,728 807,728 808,728 808,728 808,728 809,728 809,728 810,728 810,728 811,728 811,728 812,728 812,728 813,728 814,728 814,728 815,728 815,728 816,728 817,728 817,728 818,728 818,728 819,728 820,728 821,728 821,728 822,728 823,728 823,728 824,728 826,728 826,728 827,728 827,728 828,728 828,728 829,728 829,728 830,728 830,728 831,728 831,728 833,728 833,728 834,728 834,728 836,728 836,728 837,728 838,728 838,728 839,728 839,728 840,728 841,728 842,728 842,728 843,728 844,728 844,728 845,728 846,728 846,728 847,728 847,728 848,728 849,728 850,728 850,728 852,727 852,727 853,727 854,727 855,727 855,727 856,727 856,727 858,727 858,727 859,727 859,727 860,727 860,727 861,727 862,727 862,727 863,727 863,727 864,727 864,727 865,727 866,727 866,727 867,727 868,727 868,727 869,727 870,727 871,727 872,727 872,727 873,727 874,727 875,727 875,727 876,727 876,727 877,727 877,727 878,727 879,727 879,727 880,727 881,727 881,727 883,727 883,727 884,727 885,727 885,727 886,727 886,727 887,727 887,727 888,727 888,727 889,727 889,727 890,727 891,727 892,727 892,727 893,727 893,727 894,727 894,727 895,727 895,727 896,727 896,727 897,727 897,727 898,727 898,727 899,727 900,727 901,727 901,727 902,727 902,727 903,727 903,727 904,727 905,727 905,727 906,727 906,727 907,727 908,727 908,727 909,727 910,727 910,727 911,727 911,727 912,727 913,727 914,727 917,727 917,727 918,727 919,727 919,727 920,727 920,727 921,727 921,727 922,727 922,727 923,727 923,727 924,726 925,726 925,726 926,726 927,726 927,726 928,726 930,726 930,726 931,726 931,726 932,726 933,726 934,726 935,726 936,726 936,726 937,726 937,726 938,726 938,726 939,726 940,726 941,726 942,726 942,726 943,726 943,726 944,726 946,726 946,726 947,726 947,726 948,726 949,726 950,726 950,726 951,726 951,726 952,726 953,726 953,726 954,726 954,726 955,726 957,726 958,726 958,726 959,726 959,726 960,726 960,726 961,726 961,726 962,726 963,726 963,726 964,726 965,726 966,726 966,726 967,726 968,726 969,726 969,726 970,726 970,726 971,726 971,726 972,726 972,726 973,726 974,726 974,726 975,726 975,726 976,726 976,726 977,726 977,726 978,726 978,726 980,726 981,726 981,726 983,726 983,726 984,726 984,726 985,726 986,726 987,726 987,726 988,726 988,726 989,726 989,726 990,726 991,726 991,726 992,726 992,726 993,726 994,726 996,726 997,726 997,726 998,726 999,726 1000,726 1001,726 1002,726 1002,726 1003,726 1003,726 1004,726 1004,726 1005,726 1006,726 1006,726 1008,726 1009,726 1010,726 1011,726 1012,726 1013,726 1013,726 1014,726 1014,726 1015,726 1017,726 1017,726 1018,726 1018,726 1019,726 1019,726 1020,726 1020,726 1021,726 1021,726 1022,726 1022,726 1023,726 1024,726 1024,726 1025,726 1025,726 1026,726 1026,726 1027,726 1027,726 1028,726 1028,726 1029,726 1029,726 1030,726 1031,726 1032,726 1033,726 1033,726 1034,726 1038,726 1038,726 1039,726 1039,726 1040,726 1041,726 1042,726 1042,725 1043,725 1044,725 1044,725 1046,725 1047,725 1047,725 1048,725 1050,725 1050,725 1051,725 1052,725 1052,725 1053,725 1053,725 1054,725 1055,725 1055,725 1056,725 1056,725 1057,725 1058,725 1058,725 1059,725 1059,725 1060,725 1060,725 1062,725 1062,725 1063,725 1063,725 1064,725 1064,725 1065,725 1066,725 1066,725 1067,725 1068,725 1068,725 1069,725 1069,725 1070,725 1070,725 1071,725 1071,725 1072,725 1073,725 1074,725 1075,725 1076,725 1076,725 1077,725 1077,725 1078,725 1080,725 1080,725 1081,725 1083,725 1083,725 1084,725 1084,725 1085,725 1085,725 1086,725 1086,725 1087,725 1087,725 1088,725 1088,725 1089,725 1089,725 1089,725 1090,725 1090,725 1092,725 1092,725 1093,725 1093,725 1093,725 1094,725 1094,725 1094,725 1095,725 1095,725 1095,725 1095,725 1096,725 1096,725 1096,725 1097,725 1097,725 1097,725 1098,725 1098,725 1099,725 1099,725 1099,725 1099,725 1100,725 1100,725 1101,725 1101,725 1101,725 1102,725 1102,725 1102,725 1103,725 1103,725 1103,725 1103,725 1104,725 1104,725 1104,725 1105,725 1105,725 1105,725 1106,725 1106,725 1107,725 1108,725 1108,725 1109,725 1109,725 1109,725 1110,725 1110,725 1110,725 1110,725 1111,725 1112,725 1112,725 1112,725 1113,725 1113,725 1114,725 1114,725 1114,725 1116,725 1116,725 1116,725 1116,725 1117,725 1117,725 1117,725 1118,725 1118,725 1118,725 1119,725 1119,725 1119,725 1120,725 1120,725 1120,725 1121,725 1121,725 1122,725 1122,725 1122,725 1123,725 1124,725 1124,725 1125,725 1125,725 1125,725 1126,725 1126,725 1126,725 1126,725 1127,725 1127,725 1128,725 1128,725 1128,725 1129,725 1129,725 1129,725 1130,725 1130,725 1130,725 1131,725 1132,725 1133,725 1133,725 1133,725 1134,725 1134,725 1135,725 1135,725 1135,725 1136,725 1136,725 1136,725 1136,725 1137,725 1137,725 1137,725 1138,725 1138,725 1138,725 1138,725 1139,725 1139,725 1139,725 1140,725 1140,725 1141,725 1141,725 1142,725 1142,725 1143,725 1143,725 1144,725 1144,725 1144,725 1145,725 1145,725 1145,725 1145,725 1146,725 1146,725 1146,725 1146,725 1147,725 1147,725 1147,725 1147,725 1148,725 1149,725 1149,725 1150,725 1150,725 1150,725 1150,725 1151,725 1151,725 1151,725 1152,725 1152,725 1152,725 1152,725 1153,725 1153,725 1153,725 1153,725 1154,725 1154,725 1155,725 1155,725 1155,725 1155,725 1156,725 1156,725 1158,725 1158,725 1158,725 1159,725 1159,725 1159,725 1160,725 1160,725 1161,725 1161,725 1162,725 1162,725 1162,725 1162,725 1163,725 1163,725 1163,725 1164,725 1164,725 1164,725 1164,725 1165,725 1165,725 1166,725 1166,725 1166,725 1166,725 1167,725 1167,725 1167,725 1168,725 1168,725 1169,725 1169,725 1169,725 1170,725 1170,725 1170,725 1170,725 1171,725 1171,725 1172,725 1172,725 1172,725 1172,725 1173,725 1173,725 1174,725 1174,725 1175,725 1175,725 1175,725 1176,725 1176,725 1178,725 1178,725 1179,725 1179,725 1179,725 1180,725 1180,725 1180,725 1182,725 1182,725 1182,725 1182,725 1183,725 1183,725 1183,725 1183,725 1184,725 1184,725 1184,725 1185,725 1185,725 1185,725 1185,725 1186,725 1186,725 1186,725 1187,725 1187,725 1187,725 1188,725 1188,725 1188,725 1188,725 1189,725 1190,725 "/>
<polyline fill="none" opacity="1" stroke="#BDE619" stroke-width="2" points="129,738 155,738 175,738 178,738 190,738 197,737 198,738 201,737 207,737 208,737 211,737 218,737 222,736 226,736 230,736 235,736 238,736 238,736 239,735 240,735 241,735 241,735 245,735 245,734 247,734 250,734 252,733 253,733 260,733 263,733 264,733 265,732 265,732 268,732 269,732 274,731 274,731 275,731 277,731 279,731 280,731 281,730 281,730 282,730 286,730 288,730 288,729 289,729 290,729 293,729 294,728 297,728 299,728 303,728 303,727 304,727 305,727 305,727 306,726 307,726 308,726 309,726 310,726 311,726 312,725 313,725 315,725 315,725 316,725 318,725 318,725 319,724 322,724 326,724 327,724 328,724 329,724 331,724 332,723 333,723 333,723 334,723 335,723 335,723 336,723 337,723 337,722 338,722 339,722 341,722 342,722 343,722 344,722 345,722 345,722 346,722 346,721 347,721 348,721 348,721 349,721 349,721 351,721 353,721 354,721 354,721 355,721 355,721 356,721 358,721 359,720 360,720 360,720 361,720 361,720 362,720 362,720 363,720 363,720 364,720 364,720 365,720 365,720 366,720 366,720 367,720 368,719 368,719 369,719 370,719 370,719 371,719 371,718 372,718 372,718 373,718 375,718 376,718 376,718 377,717 377,717 378,717 379,717 379,717 380,716 381,716 383,716 383,716 384,716 385,715 385,715 387,715 388,714 388,714 389,714 389,714 390,714 391,714 391,714 392,714 393,713 393,713 394,713 394,713 395,713 395,712 396,712 397,712 398,712 398,712 399,712 399,712 400,712 401,712 401,712 402,711 403,711 403,711 404,711 405,711 405,710 406,710 406,710 407,710 407,710 408,710 409,709 409,709 410,709 411,691 412,690 413,690 413,690 414,689 414,689 415,689 416,689 416,689 417,689 418,688 418,688 419,688 419,687 420,687 420,687 421,687 421,686 422,686 422,686 423,686 423,686 424,685 424,685 425,685 426,685 426,685 427,685 427,684 428,684 428,684 429,683 429,683 430,682 430,682 431,682 432,682 432,681 434,678 434,678 435,678 436,678 436,678 437,678 437,678 438,678 438,678 439,678 440,677 441,677 441,677 442,677 443,677 443,677 444,677 444,677 445,676 445,676 446,675 446,676 447,675 448,675 448,675 449,675 449,674 450,674 451,674 451,674 452,674 452,674 453,674 454,674 454,673 455,673 456,673 456,672 457,672 457,672 458,672 459,672 459,672 460,671 460,671 461,671 461,671 462,670 463,670 463,670 464,670 464,669 465,669 465,669 466,669 466,669 467,669 468,668 468,668 469,668 469,668 470,668 470,668 471,668 471,668 472,667 472,667 473,667 473,667 474,667 474,667 475,667 476,666 477,666 477,666 478,666 478,666 479,665 479,665 480,665 480,665 481,664 481,664 482,664 482,664 483,663 484,663 484,663 485,662 485,662 486,661 486,661 487,661 487,660 488,660 488,660 489,659 489,659 490,659 490,659 491,658 491,658 492,658 493,657 493,657 494,657 494,656 495,656 495,656 496,655 496,655 497,655 497,655 498,654 498,654 499,654 499,654 500,654 501,654 501,653 502,653 502,653 503,653 503,652 504,652 504,651 505,651 505,650 506,650 506,650 507,650 507,650 508,650 509,650 509,649 510,649 510,649 511,649 511,649 512,649 512,648 513,647 513,647 514,646 514,646 515,646 516,646 517,646 517,645 518,645 518,645 519,644 519,644 520,644 520,643 521,643 521,643 522,642 522,642 523,642 523,641 524,641 524,641 525,641 526,640 526,640 527,640 527,639 528,639 528,639 529,638 529,638 530,638 530,638 531,638 531,637 532,637 532,637 533,637 534,637 534,636 535,636 535,636 536,636 536,636 537,635 537,635 538,634 538,634 539,633 539,633 540,633 540,632 541,633 542,633 542,632 543,632 543,632 544,632 544,632 545,631 545,631 546,631 546,631 547,631 547,630 548,629 548,629 549,629 549,629 550,629 551,628 551,628 552,627 552,627 553,627 553,626 554,626 554,626 555,626 555,626 556,625 556,625 557,624 557,624 558,623 559,623 559,622 560,622 560,622 561,622 561,621 562,621 562,621 563,621 563,620 564,620 564,620 565,620 565,620 566,620 567,620 567,619 568,619 568,619 569,619 569,619 570,619 570,618 571,618 571,617 572,617 572,617 573,617 573,617 574,617 574,616 575,615 576,615 576,614 577,614 577,614 578,613 578,613 579,613 579,612 580,612 580,612 581,612 581,612 582,612 582,611 583,611 584,611 584,610 585,610 585,610 586,610 586,610 587,610 587,609 588,609 588,609 589,608 589,608 590,608 590,608 591,607 592,607 592,607 593,606 593,606 594,606 594,606 595,606 595,606 596,606 596,605 597,605 597,604 598,604 598,604 599,604 599,604 600,604 601,604 601,604 602,603 602,602 603,602 603,602 604,602 604,602 605,602 605,602 606,601 606,601 607,601 607,600 608,600 609,600 609,599 610,599 610,599 611,599 611,599 612,599 612,598 613,598 613,598 614,595 614,594 615,593 615,593 616,593 617,593 617,593 618,593 618,592 619,592 619,591 620,591 620,591 621,590 621,590 622,589 622,589 623,588 623,588 624,588 625,588 625,588 626,588 626,587 627,587 627,587 628,587 628,586 629,586 629,586 630,585 630,585 631,585 631,584 632,583 632,583 633,582 634,582 634,582 635,581 635,581 636,581 636,581 637,581 637,581 638,580 638,580 639,580 639,580 640,579 640,579 641,579 642,579 642,579 643,578 643,578 644,578 644,578 645,577 645,577 646,577 646,577 647,577 647,577 648,576 648,576 649,576 650,575 650,575 651,575 651,575 652,575 652,574 653,574 653,574 654,574 654,572 655,572 655,572 656,571 656,571 657,570 657,570 658,570 659,569 659,569 660,569 660,569 661,568 661,568 662,568 662,568 663,567 663,567 664,567 664,567 665,567 665,567 666,566 667,566 667,566 668,566 668,565 669,565 669,565 670,565 670,565 671,565 671,564 672,564 672,564 673,563 673,563 674,563 675,562 675,562 676,562 676,562 677,561 677,561 678,561 678,560 679,559 679,559 680,559 680,559 681,559 681,555 682,555 682,554 683,554 684,553 684,553 685,552 685,552 686,552 686,551 687,550 687,550 688,549 688,548 689,548 689,547 690,547 690,547 691,546 692,546 692,546 693,546 693,545 694,545 694,544 695,544 695,544 696,543 696,542 697,542 697,542 698,541 698,541 699,541 700,540 700,540 701,540 701,539 702,539 702,538 703,537 703,537 704,537 704,536 705,536 705,536 706,536 706,536 707,535 707,535 708,535 709,535 709,534 710,534 710,534 711,533 711,532 712,532 712,531 713,531 713,530 714,530 714,530 715,530 715,529 716,529 717,529 717,528 718,528 718,528 719,528 719,527 720,527 720,527 721,527 721,527 722,526 722,526 723,526 723,525 724,525 725,525 725,525 726,524 726,524 727,524 727,524 728,524 728,524 729,524 729,524 730,523 730,523 731,523 731,523 732,522 732,522 733,521 734,521 734,520 735,520 735,520 736,520 736,519 737,519 737,519 738,519 738,518 739,518 739,517 740,517 740,517 741,517 742,516 742,516 743,516 743,515 744,515 744,515 745,514 745,514 746,514 746,513 747,513 747,513 748,513 748,512 749,512 750,512 750,511 751,511 751,511 752,510 752,510 753,509 753,509 754,509 754,508 755,507 755,507 756,507 756,507 757,507 758,506 758,505 759,505 759,505 760,505 760,504 761,504 761,503 762,503 762,502 763,502 763,502 764,502 764,501 765,501 765,500 766,500 767,499 767,499 768,498 768,498 769,498 769,498 770,498 770,497 771,497 771,496 772,496 772,496 773,496 773,495 774,495 775,495 775,494 776,494 776,494 777,494 777,494 778,494 778,494 779,494 779,493 780,493 780,493 781,493 781,492 782,492 783,492 783,491 784,491 784,491 785,491 785,490 786,490 786,490 787,490 787,490 788,490 788,489 789,489 789,488 790,488 790,488 791,488 792,488 792,487 793,487 793,487 794,486 794,486 795,486 795,486 796,485 796,485 797,484 797,484 798,484 798,483 799,482 800,482 800,481 801,481 801,481 802,481 802,481 803,481 803,480 804,479 804,479 805,479 805,478 806,477 806,477 807,477 808,476 808,476 808,475 809,475 809,474 810,474 810,474 811,473 811,472 812,472 812,471 813,471 813,470 814,470 814,470 815,470 815,469 816,470 817,469 817,463 818,463 818,462 819,462 819,461 820,461 820,461 821,461 821,460 822,458 822,458 823,458 823,458 824,458 825,457 825,457 826,456 826,455 827,455 827,454 828,454 828,453 829,453 829,453 830,452 830,452 831,451 831,451 832,450 833,450 833,449 834,449 834,449 835,448 835,447 836,447 836,447 837,446 837,446 838,446 838,445 839,445 839,444 840,444 840,444 841,444 842,443 842,443 843,443 843,443 844,442 844,442 845,441 845,441 846,440 846,440 847,439 847,439 848,439 848,438 849,438 850,438 850,438 851,438 851,438 852,437 852,436 853,436 853,436 854,436 854,435 855,435 855,434 856,434 856,433 857,433 858,433 858,433 859,432 859,431 860,430 860,429 861,428 861,428 862,428 862,426 863,425 863,425 864,424 864,424 865,424 866,423 866,423 867,423 867,422 868,422 868,421 869,421 869,421 870,421 870,420 871,419 871,418 872,418 872,418 873,417 873,416 874,416 875,416 875,415 876,415 876,415 877,414 877,414 878,413 878,413 879,412 879,412 880,412 880,411 881,411 881,410 882,410 883,409 883,409 884,408 884,408 885,408 885,407 886,407 886,406 887,406 887,406 888,406 888,406 889,405 889,404 890,404 891,403 891,403 892,402 892,402 893,401 893,400 894,400 894,400 895,399 895,399 896,399 896,398 897,398 897,398 898,397 898,397 899,396 900,396 900,396 901,395 901,394 902,394 902,393 903,393 903,392 904,391 904,390 905,390 905,389 906,389 906,388 907,388 908,388 908,387 909,387 909,387 910,385 910,385 911,385 911,384 912,384 912,384 913,384 913,383 914,383 914,382 915,382 916,381 916,381 917,381 917,380 918,380 918,379 919,378 919,378 920,377 920,376 921,375 921,375 922,375 922,374 923,374 923,373 924,372 925,372 925,371 926,371 926,371 927,370 927,370 928,370 928,370 929,369 929,369 930,369 930,369 931,368 931,367 932,366 933,366 933,365 934,365 934,364 935,363 935,363 936,362 936,362 937,362 937,361 938,361 938,360 939,359 939,358 940,358 941,357 941,356 942,356 942,356 943,355 943,355 944,354 944,354 945,353 945,353 946,352 946,351 947,351 947,351 948,350 948,350 949,349 950,349 950,349 951,349 951,348 952,347 952,346 953,346 953,345 954,344 954,344 955,344 955,344 956,344 956,343 957,343 958,337 958,338 959,337 959,336 960,336 960,336 961,335 961,334 962,334 962,333 963,332 963,332 964,331 964,331 965,330 966,329 966,329 967,328 967,328 968,327 968,327 969,327 969,326 970,325 970,325 971,325 971,324 972,324 972,324 973,323 974,323 974,322 975,322 975,321 976,321 976,320 977,320 977,320 978,319 978,318 979,317 979,317 980,316 980,315 981,315 981,315 982,315 983,314 983,314 984,313 984,313 985,313 985,312 986,312 986,311 987,311 987,311 988,311 988,311 989,310 989,310 990,310 991,309 991,309 992,308 992,307 993,307 993,306 994,305 994,305 995,305 995,304 996,304 996,303 997,303 997,302 998,301 999,301 999,300 1000,300 1000,300 1001,299 1001,299 1002,299 1002,298 1003,298 1003,298 1004,297 1004,297 1005,297 1005,296 1006,296 1006,295 1007,295 1008,295 1008,295 1009,294 1009,292 1010,292 1010,292 1011,291 1011,291 1012,291 1012,290 1013,290 1013,290 1013,289 1014,289 1014,289 1015,288 1016,288 1016,288 1017,288 1017,287 1018,286 1018,286 1019,285 1019,285 1020,285 1020,284 1021,284 1021,283 1022,283 1022,282 1023,282 1024,281 1024,281 1025,280 1025,279 1026,279 1026,278 1027,278 1027,277 1028,277 1028,276 1029,275 1029,274 1030,274 1030,274 1031,273 1031,272 1032,272 1033,272 1033,271 1034,271 1034,271 1035,269 1035,268 1036,268 1036,267 1037,267 1037,267 1038,267 1038,267 1039,267 1039,266 1040,266 1041,266 1041,265 1042,264 1042,264 1043,264 1043,263 1044,263 1044,263 1045,262 1045,262 1046,262 1046,261 1047,262 1047,261 1048,260 1049,260 1049,258 1050,258 1050,257 1051,256 1051,256 1052,255 1052,254 1053,254 1053,254 1054,253 1054,253 1055,252 1055,251 1056,251 1056,250 1057,250 1058,249 1058,248 1059,248 1059,247 1060,245 1060,245 1061,245 1061,245 1062,244 1062,244 1063,243 1063,242 1064,241 1064,241 1065,241 1066,240 1066,239 1067,239 1067,238 1068,237 1068,237 1069,236 1069,235 1070,235 1070,234 1071,234 1071,234 1072,233 1072,232 1073,230 1074,229 1074,228 1075,228 1075,228 1076,227 1076,226 1077,225 1077,224 1078,224 1078,223 1079,223 1079,222 1080,221 1080,221 1081,221 1082,220 1082,219 1083,218 1083,218 1084,217 1084,216 1085,216 1085,215 1086,215 1086,213 1087,213 1087,213 1088,213 1088,213 1088,213 1088,213 1089,211 1089,211 1089,210 1090,210 1090,210 1091,209 1091,209 1091,209 1092,209 1092,209 1092,209 1092,208 1093,208 1093,207 1093,207 1093,206 1094,206 1094,205 1094,205 1094,204 1095,204 1095,203 1095,203 1095,202 1096,202 1096,201 1096,201 1097,201 1097,200 1097,200 1098,200 1098,199 1099,199 1099,199 1099,199 1099,198 1100,198 1100,198 1100,198 1100,198 1101,198 1101,198 1101,197 1102,197 1102,196 1102,196 1102,195 1103,195 1103,195 1103,195 1103,194 1104,194 1104,193 1104,193 1104,192 1105,192 1105,192 1105,192 1105,192 1106,192 1106,190 1107,190 1107,190 1107,189 1108,189 1108,189 1108,189 1108,188 1109,188 1109,188 1109,188 1109,188 1110,188 1110,188 1110,187 1110,186 1111,186 1111,186 1111,185 1111,185 1112,185 1112,184 1112,184 1112,184 1113,184 1113,183 1114,183 1114,182 1114,182 1114,183 1115,183 1115,181 1116,181 1116,181 1116,181 1116,180 1117,180 1117,179 1117,179 1117,178 1118,178 1118,178 1118,178 1118,177 1119,176 1119,176 1119,175 1120,175 1120,174 1120,174 1120,173 1121,173 1121,173 1121,173 1121,172 1122,171 1122,171 1122,171 1123,171 1123,170 1124,170 1124,169 1124,169 1124,168 1125,168 1125,168 1125,168 1125,167 1126,167 1126,166 1126,166 1126,165 1127,165 1127,165 1127,165 1127,164 1128,164 1128,164 1128,164 1128,163 1129,163 1129,162 1129,162 1129,162 1130,162 1130,160 1130,160 1130,159 1131,159 1131,159 1132,159 1132,158 1132,157 1133,157 1133,157 1133,157 1133,156 1134,156 1134,154 1134,154 1134,152 1135,152 1135,152 1135,152 1135,151 1136,151 1136,151 1136,151 1136,150 1137,150 1137,150 1137,149 1138,149 1138,148 1138,148 1138,147 1139,147 1139,146 1139,146 1139,145 1140,145 1140,145 1141,144 1141,143 1142,143 1142,143 1142,142 1143,142 1143,142 1143,142 1143,140 1144,140 1144,139 1144,139 1144,138 1145,138 1145,138 1145,138 1145,137 1146,137 1146,137 1146,137 1146,136 1147,136 1147,135 1147,135 1147,135 1148,134 1149,134 1149,134 1149,134 1149,133 1150,133 1150,132 1150,132 1150,132 1151,132 1151,131 1151,131 1151,131 1152,131 1152,130 1152,130 1152,129 1153,129 1153,128 1153,128 1153,127 1154,127 1154,127 1154,127 1154,126 1155,126 1155,118 1155,118 1155,118 1156,118 1156,117 1157,117 1157,117 1157,117 1158,117 1158,116 1158,116 1158,115 1159,115 1159,115 1159,115 1159,114 1160,114 1160,112 1160,112 1160,112 1161,111 1161,111 1161,111 1162,111 1162,111 1162,111 1162,110 1163,110 1163,109 1163,109 1163,108 1164,108 1164,108 1164,108 1164,107 1165,107 1165,107 1166,107 1166,105 1166,105 1166,105 1167,105 1167,104 1167,104 1167,104 1168,104 1168,103 1168,103 1168,102 1169,102 1169,102 1169,102 1169,101 1170,101 1170,101 1170,101 1170,99 1171,99 1171,99 1171,99 1172,99 1172,98 1172,98 1172,98 1173,98 1173,97 1174,97 1174,97 1174,97 1174,96 1175,96 1175,96 1175,96 1175,95 1176,95 1176,94 1176,94 1176,94 1177,94 1177,94 1177,94 1177,93 1178,93 1178,92 1178,92 1178,92 1179,92 1179,91 1179,91 1179,91 1180,91 1180,91 1180,91 1180,90 1181,90 1181,89 1182,89 1182,89 1182,89 1182,88 1183,88 1183,86 1183,86 1183,85 1184,85 1184,84 1184,84 1184,83 1185,83 1185,82 1185,82 1185,82 1186,80 1186,80 1186,79 1187,79 1187,78 1187,78 1188,78 1188,77 1188,77 1188,76 1189,76 1189,75 1190,75 "/>
<polyline fill="none" opacity="1" stroke="#19E66B" stroke-width="2" points="60,738 60,738 61,738 69,738 75,738 75,737 81,737 85,737 89,736 93,736 95,736 96,736 96,736 100,736 104,735 110,735 111,735 117,735 120,735 121,735 125,735 137,734 140,734 142,734 142,734 144,734 146,734 148,734 149,734 150,734 150,734 153,733 154,734 155,734 155,734 156,733 156,733 157,733 157,733 158,733 159,732 160,732 160,732 161,732 161,732 162,732 162,732 163,732 163,732 164,732 164,732 165,732 165,732 166,732 167,732 168,732 169,732 169,732 170,732 170,732 171,732 171,732 172,731 173,731 173,731 174,731 174,731 175,731 176,731 177,731 177,731 178,731 178,731 179,731 180,730 180,730 181,730 181,730 182,730 182,730 183,730 183,730 184,730 185,730 187,730 188,730 188,730 189,730 190,730 191,730 191,730 192,730 193,730 193,730 194,730 195,730 196,730 197,730 197,729 198,729 198,729 199,729 200,729 201,729 203,729 203,729 204,729 204,729 205,729 205,729 206,729 207,729 207,729 208,729 208,729 209,729 210,729 211,729 211,728 212,728 212,728 213,728 214,728 214,728 215,728 215,728 216,728 216,728 218,728 218,728 220,727 221,727 221,727 222,727 223,727 223,727 224,727 224,727 225,727 225,727 226,727 227,727 227,727 228,727 228,727 229,727 230,727 231,727 231,727 232,727 232,727 233,727 233,727 234,727 235,727 235,727 236,727 237,727 237,727 238,727 238,726 239,726 240,726 240,726 241,726 241,726 242,726 243,726 244,726 244,726 245,726 245,726 246,726 246,726 247,726 249,726 249,726 250,726 250,726 251,726 252,726 253,726 253,726 254,726 255,725 255,725 256,725 256,725 257,725 257,725 258,724 258,724 259,724 260,724 260,724 261,724 262,724 262,724 263,724 264,724 264,724 265,724 265,724 266,724 266,724 267,723 268,723 268,723 269,723 269,723 270,723 271,723 271,723 272,723 272,723 273,723 273,723 274,723 274,723 275,723 275,723 276,723 277,723 277,723 278,723 278,723 279,723 279,723 280,723 280,723 281,723 281,723 282,723 282,723 283,723 283,723 284,723 285,723 285,723 286,723 286,723 287,723 287,723 288,722 288,722 289,722 289,722 290,722 290,722 291,722 291,722 292,722 293,722 293,721 294,722 294,722 295,722 295,721 296,721 296,721 297,721 297,721 298,721 298,721 299,721 299,721 300,721 301,721 302,721 302,720 303,720 303,720 304,720 305,720 305,720 306,720 306,720 307,720 307,720 308,720 308,720 309,720 310,720 310,720 311,720 311,719 312,719 312,719 313,719 313,719 314,719 314,719 315,719 315,719 316,719 316,719 317,719 318,719 318,719 319,719 319,719 320,719 320,719 321,719 321,719 322,718 322,718 323,718 323,718 324,718 324,718 325,718 326,718 326,718 327,718 327,718 328,718 328,718 329,718 329,718 330,718 330,718 331,718 331,718 332,718 332,718 333,718 333,718 335,718 336,718 336,718 337,718 337,717 338,717 338,717 339,717 339,717 340,717 340,717 341,717 341,717 342,717 343,717 343,717 344,717 344,717 345,717 345,717 346,717 346,716 347,716 347,716 348,716 348,716 349,716 349,716 350,716 351,716 351,716 352,716 352,716 353,716 354,716 355,716 355,716 356,716 356,716 357,716 357,716 358,716 358,716 359,715 360,715 361,715 361,715 362,715 362,715 363,715 363,715 364,715 364,715 365,715 365,715 366,715 366,715 367,715 368,715 368,715 369,715 369,715 370,715 370,715 371,715 371,715 372,715 372,715 373,715 373,715 374,715 374,715 375,715 376,715 376,715 377,715 377,715 378,715 378,715 379,715 379,715 380,715 380,715 381,715 381,714 382,714 382,714 383,714 383,714 384,714 385,714 385,714 386,714 386,714 387,714 387,714 388,714 388,714 389,714 389,714 390,714 390,714 391,714 391,713 392,713 393,713 393,713 394,713 394,713 395,713 395,713 396,713 396,713 397,713 397,713 398,713 398,713 399,713 399,713 400,713 401,713 401,713 402,713 402,713 403,713 403,712 404,712 404,712 405,712 405,712 406,712 406,712 407,712 407,712 408,712 409,712 409,712 410,712 410,712 411,712 411,712 412,712 412,712 413,712 413,712 414,712 414,712 415,712 415,712 416,712 416,712 417,712 418,712 418,712 419,712 419,712 420,712 420,712 421,712 422,712 422,712 423,712 423,712 424,711 424,711 425,711 426,711 426,711 427,711 427,711 428,711 428,711 429,711 429,711 430,711 430,711 431,711 431,711 432,711 432,711 433,711 434,711 434,711 435,711 435,711 436,711 436,711 437,711 437,711 438,710 438,710 439,710 439,710 440,710 440,710 441,710 441,710 442,710 443,710 443,710 444,710 444,710 445,710 445,710 446,710 446,710 447,710 447,710 448,710 448,710 449,710 449,710 450,710 451,710 451,710 452,710 452,710 453,710 453,710 454,710 454,710 455,709 455,709 456,709 456,709 457,709 457,709 458,709 459,709 459,709 460,709 460,709 461,709 461,709 462,709 462,709 463,709 463,709 464,709 464,709 465,708 466,708 466,708 467,708 468,708 468,708 469,708 469,708 470,708 470,708 471,708 471,708 472,708 472,708 473,708 473,707 474,707 474,707 475,707 476,707 476,707 477,707 477,707 478,707 478,707 479,707 479,707 480,707 480,706 481,706 481,706 482,706 482,707 483,707 484,707 484,707 485,707 485,707 486,707 486,707 487,706 487,706 488,706 488,706 489,706 489,706 490,706 490,706 491,706 491,706 492,707 493,707 493,706 494,706 494,706 495,706 495,706 496,706 496,706 497,706 497,706 498,706 498,706 499,706 499,706 500,706 501,706 501,706 502,706 502,706 503,706 503,706 504,706 504,706 505,706 505,706 506,706 506,706 507,706 507,706 508,706 509,706 509,706 510,706 510,706 511,706 511,706 512,706 512,706 513,706 513,706 514,706 514,706 515,706 515,706 516,706 517,706 517,706 518,706 518,706 519,706 519,706 520,706 520,706 521,706 521,706 522,706 522,706 523,706 523,706 524,706 524,706 525,706 526,706 526,706 527,706 527,706 528,706 528,706 529,706 529,706 530,706 530,705 531,705 531,705 532,705 532,705 533,705 534,705 534,705 535,705 535,705 536,705 536,705 537,705 537,705 538,705 538,705 539,705 539,705 540,705 540,705 541,705 542,705 542,705 543,705 543,704 544,704 544,704 545,704 545,704 546,704 546,704 547,704 547,704 548,704 548,704 549,704 549,704 550,704 551,704 551,704 552,704 552,704 553,704 553,704 554,704 554,704 555,704 555,704 556,704 556,704 557,704 557,704 558,704 559,704 559,704 560,704 560,704 561,704 561,704 562,704 562,704 563,704 563,704 564,704 564,703 565,703 565,703 566,703 567,703 567,703 568,703 568,703 569,703 569,703 570,703 570,703 571,703 571,703 572,703 572,703 573,703 573,703 574,703 574,703 575,703 576,703 576,703 577,703 577,703 578,703 578,703 579,703 579,703 580,703 580,703 581,703 581,703 582,703 582,703 583,703 584,703 584,703 585,703 585,703 586,703 586,703 587,703 587,703 588,703 588,703 589,703 589,703 590,703 590,703 591,703 592,703 592,703 593,703 593,703 594,703 594,703 595,703 595,703 596,703 596,703 597,703 597,703 598,703 598,703 599,703 599,703 600,703 601,703 601,703 602,703 602,703 603,703 603,703 604,703 604,702 605,702 605,702 606,702 606,702 607,702 607,702 608,702 609,702 609,702 610,702 610,702 611,702 611,702 612,702 612,702 613,702 613,702 614,702 614,702 615,702 615,702 616,702 617,702 617,702 618,702 618,702 619,702 619,702 620,702 620,702 621,702 621,702 622,702 622,702 623,702 623,702 624,702 625,702 625,702 626,702 626,702 627,702 627,702 628,702 628,702 629,702 629,702 630,702 630,702 631,702 631,702 632,702 632,702 633,702 634,702 634,702 635,702 635,702 636,702 636,702 637,702 637,702 638,702 638,702 639,702 639,702 640,702 640,702 641,702 642,702 643,702 643,702 644,702 644,702 645,702 645,702 646,702 646,702 647,702 647,702 648,702 648,702 649,702 650,702 650,701 651,701 651,701 652,701 652,701 653,701 653,701 654,701 654,701 655,701 655,701 656,701 656,701 657,701 657,701 658,701 659,701 659,701 660,701 660,701 661,701 661,701 662,701 662,701 663,701 663,701 664,701 664,701 665,701 665,701 666,701 667,701 667,701 668,701 668,701 669,701 669,701 670,701 670,700 671,700 671,700 672,700 672,700 673,700 673,700 674,700 675,700 675,700 676,700 676,700 677,700 677,700 678,700 678,700 679,700 679,700 680,700 680,700 681,700 681,700 682,700 682,700 683,700 684,700 684,700 685,700 685,700 686,700 686,700 687,700 687,700 688,700 688,700 689,700 689,700 690,700 690,700 691,700 692,700 692,700 693,700 693,700 694,700 694,700 695,700 695,700 696,700 696,700 697,700 697,700 698,700 698,700 699,699 700,699 700,699 701,699 701,699 702,699 702,699 703,699 703,699 704,699 704,699 705,699 705,699 706,699 706,699 707,699 707,699 708,699 709,699 709,699 710,699 710,699 711,699 711,699 712,699 712,699 713,699 713,699 714,699 714,699 715,699 715,699 716,699 717,699 717,699 718,699 718,699 719,699 719,699 720,699 720,699 721,699 721,699 722,699 722,699 723,699 723,699 724,699 725,699 725,699 726,699 726,699 727,699 727,699 728,699 728,699 729,699 729,699 730,699 730,699 731,699 731,699 732,699 732,699 733,699 734,699 734,699 735,699 735,699 736,699 736,699 737,699 737,699 738,699 738,698 739,698 739,699 740,699 740,699 741,699 742,699 742,698 743,698 743,698 744,698 744,698 745,698 745,698 746,698 746,698 747,698 747,698 748,698 748,698 749,698 750,698 750,698 751,698 751,698 752,698 752,698 753,698 753,698 754,698 754,698 755,698 755,698 756,698 756,698 757,698 758,698 758,698 759,698 759,698 760,698 760,698 761,698 761,698 762,698 762,698 763,698 763,698 764,697 764,697 765,697 765,697 766,697 767,697 767,697 768,697 768,697 769,697 769,697 770,697 770,697 771,697 771,697 772,697 772,697 773,697 773,697 774,697 775,697 775,697 776,697 776,697 777,697 777,697 778,697 778,697 779,697 779,697 780,697 780,697 781,697 781,697 782,697 783,697 783,697 784,697 784,697 785,697 785,697 786,697 786,697 787,697 787,697 788,697 788,696 789,696 789,696 790,696 790,696 791,696 792,696 792,696 793,696 793,696 794,696 794,696 795,696 795,696 796,696 796,696 797,696 797,696 798,696 798,697 799,697 800,697 800,697 801,697 801,697 802,697 802,697 803,697 803,696 804,696 804,696 805,696 805,696 806,696 806,696 807,696 808,696 808,696 808,696 809,696 809,696 810,696 810,696 811,696 811,696 812,696 812,696 813,696 813,696 814,696 814,696 815,695 815,695 816,695 817,695 817,695 818,695 818,695 819,695 819,695 820,695 820,695 821,695 821,695 822,695 822,695 823,695 823,695 824,695 825,695 825,695 826,695 826,695 827,695 827,695 828,695 828,695 829,695 829,695 830,695 830,694 831,694 831,694 832,694 833,694 833,694 834,694 834,694 835,694 835,694 836,694 836,694 837,694 837,694 838,694 838,694 839,694 839,694 840,694 840,694 841,694 842,694 842,694 843,694 843,694 844,694 844,694 845,694 845,694 846,693 846,693 847,693 847,693 848,693 848,693 849,693 850,693 850,693 851,693 851,693 852,693 852,693 853,693 853,693 854,693 854,693 855,693 855,693 856,693 856,693 857,693 858,693 858,693 859,693 859,693 860,693 860,693 861,693 861,693 862,693 862,693 863,693 863,693 864,693 864,693 865,693 866,693 866,693 867,692 867,692 868,692 868,692 869,692 869,692 870,692 870,692 871,692 871,692 872,692 872,692 873,692 873,692 874,692 875,692 875,692 876,692 876,692 877,692 877,692 878,692 878,692 879,692 879,692 880,692 880,692 881,692 881,692 882,692 883,692 883,692 884,692 884,692 885,692 885,692 886,692 886,692 887,692 887,692 888,692 888,692 889,692 889,692 890,692 891,692 891,692 892,692 892,692 893,692 893,692 894,692 894,692 895,692 895,692 896,692 896,692 897,692 897,692 898,692 898,692 899,692 900,692 900,692 901,692 901,692 902,692 902,692 903,692 903,691 904,691 904,691 905,692 905,691 906,691 906,691 907,691 908,692 908,692 909,692 909,692 910,691 910,691 911,691 911,691 912,691 912,691 913,691 913,691 914,691 914,691 915,691 916,691 916,691 917,691 917,691 918,691 918,691 919,691 919,691 920,691 920,691 921,691 921,691 922,691 922,691 923,691 923,691 924,691 925,691 925,691 926,691 926,691 927,691 927,691 928,691 928,691 929,691 929,691 930,691 930,691 931,691 931,691 932,691 933,691 933,691 934,691 934,691 935,691 935,691 936,691 936,691 937,691 937,691 938,691 938,691 939,691 939,691 940,691 941,691 941,691 942,691 942,691 943,691 943,691 944,691 944,691 945,691 945,691 946,691 946,691 947,691 947,691 948,691 948,691 949,691 950,691 950,691 951,691 951,691 952,691 952,691 953,691 953,691 954,691 954,691 955,691 955,691 956,691 956,691 957,691 958,691 958,691 959,691 959,691 960,691 960,691 961,691 961,691 962,691 962,691 963,691 963,691 964,691 964,691 965,691 966,691 966,691 967,691 967,691 968,691 968,691 969,691 969,691 970,691 970,691 971,691 971,691 972,691 972,691 973,691 974,691 974,691 975,691 975,691 976,691 976,691 977,691 977,691 978,691 978,691 979,691 979,691 980,691 980,691 981,691 981,691 982,691 983,691 983,691 984,691 984,691 985,691 985,691 986,691 986,691 987,691 987,691 988,691 988,691 989,691 989,691 990,691 991,691 991,691 992,691 992,691 993,691 993,691 994,691 994,691 995,691 995,691 996,691 996,691 997,691 997,691 998,691 999,691 999,691 1000,691 1000,691 1001,691 1001,691 1002,691 1002,691 1003,691 1003,691 1004,691 1004,691 1005,691 1005,691 1006,691 1006,691 1007,691 1008,691 1008,691 1009,691 1009,691 1010,691 1010,691 1011,691 1011,691 1012,690 1012,690 1013,690 1013,690 1013,690 1014,690 1014,690 1015,690 1016,690 1016,690 1017,690 1017,690 1018,690 1018,690 1019,690 1019,690 1020,690 1020,690 1021,690 1021,690 1022,690 1022,690 1023,690 1024,690 1024,690 1025,690 1025,690 1026,690 1026,690 1027,690 1027,690 1028,690 1028,690 1029,691 1029,691 1030,691 1030,691 1031,691 1031,691 1032,691 1033,691 1033,691 1034,691 1034,691 1035,691 1035,691 1036,691 1036,691 1037,691 1037,691 1038,691 1038,691 1039,691 1039,691 1040,691 1041,691 1041,691 1042,691 1042,691 1043,691 1043,691 1044,691 1044,691 1045,691 1045,691 1046,691 1046,691 1047,691 1047,691 1048,691 1049,691 1049,691 1050,691 1050,691 1051,691 1051,691 1052,691 1052,691 1053,691 1053,691 1054,691 1054,691 1055,691 1055,691 1056,691 1056,691 1057,691 1058,691 1058,691 1059,691 1059,691 1060,690 1060,690 1061,690 1061,690 1062,690 1062,690 1063,690 1063,690 1064,690 1064,690 1065,690 1066,690 1066,690 1067,690 1067,690 1068,690 1068,690 1069,690 1069,690 1070,690 1070,690 1071,690 1071,690 1072,690 1072,690 1073,690 1074,690 1074,690 1075,690 1075,690 1076,690 1076,690 1077,690 1077,690 1078,690 1078,690 1079,690 1079,690 1080,690 1080,690 1081,690 1082,690 1082,690 1083,690 1083,690 1084,690 1084,690 1085,690 1085,690 1086,690 1086,690 1087,690 1087,690 1088,690 1088,690 1088,690 1088,690 1089,690 1089,690 1089,690 1090,690 1090,690 1091,690 1091,690 1091,690 1092,690 1092,690 1092,690 1092,690 1093,690 1093,690 1093,690 1093,690 1094,690 1094,690 1094,690 1094,690 1095,690 1095,691 1095,691 1095,691 1096,691 1096,691 1096,691 1097,691 1097,691 1097,691 1098,691 1098,691 1099,691 1099,691 1099,691 1099,691 1100,691 1100,691 1100,691 1100,690 1101,690 1101,690 1101,690 1102,690 1102,691 1102,691 1102,691 1103,691 1103,691 1103,691 1103,691 1104,691 1104,691 1104,691 1104,691 1105,691 1105,691 1105,691 1105,691 1106,691 1106,691 1107,691 1107,691 1107,691 1108,691 1108,691 1108,691 1108,691 1109,691 1109,691 1109,691 1109,691 1110,691 1110,691 1110,691 1110,691 1111,691 1111,691 1111,691 1111,691 1112,691 1112,691 1112,691 1112,691 1113,691 1113,691 1114,691 1114,690 1114,690 1114,690 1115,690 1115,690 1116,690 1116,690 1116,690 1116,690 1117,690 1117,690 1117,690 1117,690 1118,690 1118,690 1118,690 1118,690 1119,690 1119,690 1119,690 1120,690 1120,690 1120,690 1120,690 1121,690 1121,690 1121,690 1121,690 1122,690 1122,690 1122,690 1123,690 1123,691 1124,691 1124,691 1124,691 1124,691 1125,691 1125,690 1125,690 1125,690 1126,690 1126,690 1126,690 1126,690 1127,690 1127,690 1127,690 1127,690 1128,690 1128,690 1128,690 1128,690 1129,690 1129,691 1129,691 1129,691 1130,691 1130,691 1130,691 1130,691 1131,691 1131,691 1132,691 1132,691 1132,691 1133,691 1133,691 1133,691 1133,691 1134,691 1134,691 1134,691 1134,691 1135,691 1135,690 1135,690 1135,690 1136,690 1136,690 1136,690 1136,690 1137,690 1137,690 1137,690 1138,690 1138,690 1138,690 1138,690 1139,690 1139,690 1139,690 1139,690 1140,690 1140,690 1141,690 1141,690 1142,690 1142,690 1142,690 1143,690 1143,690 1143,690 1143,690 1144,690 1144,690 1144,690 1144,690 1145,690 1145,690 1145,690 1145,690 1146,690 1146,690 1146,690 1146,690 1147,690 1147,690 1147,690 1147,690 1148,690 1149,690 1149,690 1149,690 1149,690 1150,690 1150,690 1150,690 1150,690 1151,690 1151,690 1151,690 1151,690 1152,690 1152,690 1152,690 1152,690 1153,690 1153,690 1153,690 1153,690 1154,690 1154,690 1154,690 1154,690 1155,690 1155,690 1155,690 1155,690 1156,690 1156,690 1157,690 1157,690 1157,690 1158,690 1158,690 1158,690 1158,690 1159,690 1159,690 1159,690 1159,690 1160,690 1160,690 1160,690 1160,690 1161,690 1161,690 1161,690 1162,690 1162,690 1162,690 1162,690 1163,690 1163,690 1163,690 1163,690 1164,690 1164,690 1164,690 1164,690 1165,690 1165,690 1166,690 1166,690 1166,690 1166,690 1167,690 1167,690 1167,690 1167,690 1168,690 1168,690 1168,690 1168,690 1169,690 1169,690 1169,690 1169,690 1170,690 1170,690 1170,690 1170,690 1171,690 1171,690 1171,690 1172,690 1172,690 1172,690 1172,690 1173,690 1173,690 1174,690 1174,690 1174,690 1174,690 1175,690 1175,690 1175,690 1175,690 1176,690 1176,690 1176,690 1176,690 1177,690 1177,690 1177,690 1177,690 1178,690 1178,690 1178,690 1178,690 1179,690 1179,690 1179,690 1179,690 1180,690 1180,690 1180,690 1180,690 1181,690 1181,690 1182,690 1182,690 1182,690 1182,690 1183,690 1183,690 1183,690 1183,690 1184,690 1184,690 1184,690 1184,690 1185,690 1185,690 1185,690 1185,690 1186,690 1186,690 1186,690 1187,690 1187,690 1187,690 1188,690 1188,690 1188,690 1188,690 1189,690 1189,690 1190,690 "/>
<polyline fill="none" opacity="1" stroke="#196BE6" stroke-width="2" points="86,738 94,738 97,738 106,738 107,738 112,738 117,737 123,737 124,737 125,737 130,737 133,737 136,737 141,737 143,737 149,737 149,736 150,736 153,736 155,736 157,736 157,736 158,735 159,735 161,735 164,735 165,735 167,735 169,734 170,734 170,734 173,734 174,734 175,734 175,734 178,734 180,734 183,733 188,733 189,733 196,733 197,733 198,733 200,733 201,733 202,733 202,733 203,733 209,733 211,733 212,733 213,733 216,733 217,733 218,733 219,733 220,733 221,732 222,732 222,732 223,732 224,732 227,732 229,732 231,732 233,732 235,732 235,732 237,732 237,732 238,732 238,732 239,732 241,732 241,732 242,732 244,732 245,732 247,732 247,732 248,732 250,732 250,732 251,732 252,732 252,732 254,732 255,732 255,732 256,732 257,732 258,731 259,731 260,731 261,731 262,731 262,731 264,731 266,731 266,731 268,731 270,731 271,731 272,731 272,731 273,731 273,731 274,731 274,731 275,731 277,730 279,730 281,730 281,730 282,730 285,730 285,730 286,730 288,729 290,729 291,729 291,729 292,729 293,729 293,729 295,729 295,729 296,729 296,729 297,728 298,728 298,728 299,728 299,728 300,728 301,728 301,728 302,728 302,728 303,728 303,728 304,728 304,728 305,728 305,728 306,728 307,728 307,728 308,728 308,728 309,728 310,728 310,728 311,728 311,728 312,728 312,728 313,728 313,728 314,728 314,727 315,727 316,727 316,727 317,727 318,727 318,727 319,727 320,727 320,727 321,727 321,727 322,727 322,726 323,726 323,726 324,726 324,726 325,726 326,726 326,726 327,726 327,726 328,726 328,726 329,726 329,726 330,726 330,726 331,726 331,726 332,726 332,726 333,726 333,726 334,726 335,726 335,726 336,726 336,726 337,725 337,725 338,725 338,725 339,725 339,725 340,725 340,725 341,725 341,725 342,725 343,725 343,725 344,725 344,725 345,725 345,725 346,725 346,725 347,725 347,725 348,725 348,725 349,725 349,725 350,725 351,725 351,725 352,725 352,725 353,725 353,725 354,725 354,725 355,725 355,725 356,725 356,725 357,725 357,725 358,725 358,725 359,725 360,725 360,725 361,725 361,724 362,724 362,724 363,724 363,724 364,724 364,724 365,724 365,724 366,724 366,724 367,724 368,724 368,724 369,724 369,724 370,724 370,724 371,724 371,724 372,724 372,724 373,724 373,724 374,724 374,724 375,724 376,724 376,724 377,724 377,724 378,724 378,724 379,724 379,724 380,724 380,724 381,724 381,724 382,724 382,724 383,724 383,724 384,724 385,724 385,724 386,724 386,723 387,723 387,723 388,723 388,723 389,723 389,723 390,723 390,723 391,723 391,723 392,723 393,723 393,723 394,723 394,723 395,723 395,723 396,723 396,723 397,723 397,723 398,723 398,723 399,723 399,723 400,723 401,723 401,723 402,723 402,723 403,723 403,723 404,722 404,722 405,722 405,723 406,722 406,722 407,722 407,722 408,722 409,722 409,722 410,722 410,722 411,722 411,722 412,722 412,722 413,722 413,722 414,722 414,722 415,722 415,722 416,722 416,721 417,721 418,721 418,721 419,721 420,721 420,721 421,721 421,721 422,721 422,721 423,721 423,721 424,721 424,721 425,721 426,721 426,721 427,721 427,721 428,721 428,721 429,721 429,721 430,721 430,721 431,721 431,721 432,721 432,721 433,721 434,721 434,721 435,721 435,721 436,721 437,721 437,721 438,721 438,720 439,720 439,721 440,721 440,721 441,721 441,721 442,721 443,721 443,721 444,721 444,721 445,721 445,721 446,721 446,721 447,721 447,721 448,720 448,720 449,720 449,720 450,720 451,720 451,720 452,720 452,720 453,720 453,720 454,720 454,720 455,720 455,720 456,720 456,720 457,720 458,720 459,720 459,720 460,720 460,720 461,720 461,720 462,720 462,720 463,720 463,720 464,720 464,720 465,720 465,720 466,720 466,720 467,720 468,720 468,720 469,720 469,720 470,720 470,720 471,720 471,719 472,719 472,719 473,719 473,719 474,719 474,719 475,719 476,719 476,719 477,719 477,719 478,719 478,719 479,719 479,719 480,719 480,718 481,719 481,718 482,718 482,718 483,718 484,718 484,718 485,718 485,718 486,718 486,718 487,718 487,718 488,718 488,718 489,718 489,718 490,718 490,718 491,717 491,718 492,718 493,718 494,718 494,718 495,718 495,718 496,718 496,718 497,717 497,717 498,717 498,717 499,717 499,717 500,717 501,717 501,717 502,717 502,717 503,717 503,717 504,717 504,717 505,717 505,717 506,717 506,717 507,717 507,717 508,717 509,717 509,717 510,717 510,717 511,717 511,717 512,717 512,717 513,717 513,717 514,717 514,717 515,717 515,717 516,717 517,717 517,717 518,717 518,717 519,717 519,717 520,717 520,716 521,716 521,716 522,716 522,716 523,716 523,716 524,716 524,716 525,716 526,716 526,716 527,716 527,716 528,716 528,716 529,716 529,716 530,716 530,716 531,715 531,715 532,715 532,715 533,715 534,715 534,715 535,715 535,715 536,715 536,715 537,715 537,715 538,715 538,715 539,715 539,714 540,714 540,714 541,714 542,714 542,714 543,714 543,714 544,714 544,714 545,714 545,714 546,714 546,714 547,714 547,714 548,714 548,714 549,714 549,714 550,714 551,714 551,714 552,714 552,714 553,714 553,714 554,714 554,714 555,714 555,714 556,714 556,714 557,714 557,714 558,713 559,713 559,713 560,713 560,713 561,713 561,713 562,713 562,713 563,713 563,713 564,713 564,713 565,713 565,713 566,713 567,713 567,713 568,713 568,713 569,713 569,713 570,713 570,713 571,713 571,713 572,713 572,713 573,713 573,713 574,713 574,713 575,713 576,713 576,713 577,713 577,713 578,713 578,713 579,713 579,713 580,713 580,712 581,712 581,712 582,712 582,712 583,712 584,712 584,712 585,712 585,712 586,712 586,712 587,712 587,712 588,712 588,712 589,712 589,711 590,711 590,711 591,711 592,711 592,711 593,711 593,711 594,711 594,711 595,711 595,711 596,711 596,711 597,711 597,711 598,711 598,711 599,711 599,711 600,711 601,711 601,711 602,711 602,711 603,711 603,711 604,711 604,711 605,711 605,711 606,711 606,711 607,711 607,711 608,710 609,710 609,710 610,710 610,710 611,710 611,710 612,710 612,710 613,710 613,710 614,710 614,710 615,710 615,710 616,710 617,710 617,710 618,710 618,710 619,710 619,710 620,710 620,710 621,710 621,710 622,710 622,710 623,710 623,710 624,710 625,710 625,710 626,710 626,710 627,710 627,710 628,710 628,710 629,710 629,710 630,710 630,710 631,710 631,710 632,710 632,710 633,710 634,710 634,710 635,710 635,710 636,710 636,710 637,710 637,710 638,710 638,710 639,710 639,710 640,710 640,710 641,710 642,710 642,709 643,709 643,709 644,709 644,709 645,709 645,709 646,709 646,709 647,709 647,709 648,709 648,709 649,709 650,709 650,709 651,709 651,709 652,709 652,709 653,709 653,709 654,709 654,709 655,709 655,709 656,709 656,709 657,709 657,708 658,708 659,708 659,709 660,709 660,709 661,709 661,709 662,709 662,709 663,709 663,709 664,708 664,708 665,708 665,708 666,708 667,708 667,708 668,708 668,708 669,708 669,708 670,708 670,708 671,708 671,708 672,707 672,707 673,707 673,707 674,707 675,707 675,707 676,707 676,707 677,707 677,707 678,707 678,707 679,707 679,707 680,707 680,707 681,706 681,706 682,706 682,706 683,706 684,707 684,706 685,706 685,706 686,706 686,706 687,706 687,706 688,706 688,706 689,706 689,706 690,706 690,706 691,706 692,706 692,706 693,706 693,706 694,706 694,706 695,706 695,706 696,706 696,706 697,706 697,706 698,706 698,706 699,706 700,706 700,706 701,706 701,706 702,706 702,706 703,706 703,706 704,706 704,706 705,706 705,706 706,706 706,706 707,706 707,706 708,706 709,706 709,706 710,706 710,706 711,706 711,706 712,706 712,706 713,706 713,706 714,706 714,706 715,706 715,706 716,706 717,706 717,705 718,705 718,705 719,705 719,705 720,705 720,705 721,705 721,705 722,705 722,705 723,705 723,705 724,705 725,704 725,704 726,704 726,704 727,704 727,704 728,704 728,704 729,704 729,704 730,704 730,704 731,704 731,704 732,704 732,704 733,704 734,704 734,704 735,704 735,704 736,704 736,704 737,704 737,704 738,704 738,704 739,704 739,704 740,704 740,704 741,704 742,704 742,704 743,704 743,704 744,704 744,704 745,704 745,704 746,704 746,704 747,704 747,704 748,704 748,704 749,704 750,704 750,704 751,704 751,704 752,704 752,704 753,704 753,704 754,704 754,704 755,704 755,704 756,704 756,704 757,704 758,704 758,704 759,704 759,704 760,704 760,704 761,704 761,704 762,704 762,704 763,704 763,704 764,704 764,704 765,704 765,704 766,704 767,704 767,704 768,704 768,704 769,704 769,704 770,704 770,703 771,703 771,703 772,703 772,703 773,703 773,704 774,704 775,704 775,704 776,704 776,703 777,703 777,703 778,703 778,703 779,703 779,703 780,703 780,703 781,703 781,703 782,703 783,703 783,703 784,703 784,703 785,703 785,703 786,703 786,703 787,703 787,703 788,703 788,703 789,703 789,703 790,703 790,703 791,703 792,703 792,703 793,703 793,703 794,703 794,703 795,702 795,702 796,702 796,702 797,702 797,702 798,702 798,702 799,702 800,702 800,702 801,702 801,702 802,702 802,702 803,702 803,702 804,702 804,702 805,702 805,702 806,702 806,702 807,702 808,702 808,702 808,702 809,702 809,702 810,702 810,702 811,702 811,702 812,702 812,702 813,702 813,702 814,702 814,702 815,702 815,702 816,702 817,702 817,702 818,702 818,701 819,701 819,701 820,701 820,701 821,701 821,701 822,701 822,701 823,701 823,701 824,701 825,701 825,701 826,701 826,701 827,701 827,701 828,701 828,701 829,701 829,700 830,700 830,700 831,700 831,700 832,700 833,700 833,700 834,700 834,700 835,700 835,700 836,700 836,700 837,700 837,700 838,700 838,700 839,700 839,700 840,700 840,700 841,700 842,700 842,700 843,700 843,700 844,700 844,700 845,700 845,700 846,700 846,700 847,700 847,700 848,700 848,700 849,699 850,699 850,699 851,699 851,699 852,699 852,699 853,699 853,699 854,699 854,699 855,699 855,699 856,699 856,699 857,699 858,699 858,699 859,699 859,699 860,699 860,699 861,699 861,699 862,699 862,699 863,699 863,699 864,699 864,699 865,699 866,699 866,699 867,699 867,699 868,699 868,699 869,699 869,699 870,699 870,699 871,699 871,699 872,699 872,699 873,699 873,699 874,699 875,699 875,699 876,699 876,699 877,699 877,699 878,699 878,699 879,699 879,699 880,699 880,699 881,699 881,698 882,698 883,698 883,698 884,698 884,698 885,698 885,698 886,698 886,698 887,698 887,698 888,698 888,698 889,698 889,698 890,698 891,698 891,698 892,698 892,698 893,698 893,697 894,697 894,697 895,697 895,697 896,697 896,697 897,697 897,697 898,697 898,697 899,697 900,697 900,697 901,697 901,697 902,697 902,697 903,697 903,697 904,697 904,697 905,697 905,697 906,697 906,697 907,697 908,697 908,697 909,697 909,697 910,697 910,697 911,697 911,697 912,697 912,697 913,697 913,697 914,697 914,697 915,697 916,697 916,697 917,697 917,697 918,697 918,696 919,696 919,696 920,696 920,696 921,696 921,696 922,696 922,696 923,696 923,696 924,696 925,696 925,696 926,695 926,695 927,695 927,695 928,695 928,695 929,695 929,695 930,695 930,695 931,695 931,695 932,695 933,695 933,695 934,695 934,695 935,695 935,695 936,695 936,695 937,695 937,695 938,695 938,695 939,695 939,695 940,695 941,695 941,695 942,695 942,695 943,695 943,695 944,695 944,695 945,695 945,695 946,695 946,695 947,695 947,695 948,695 948,695 949,695 950,695 950,695 951,695 951,695 952,695 952,695 953,695 953,695 954,695 954,695 955,695 955,695 956,695 956,695 957,695 958,695 958,695 959,695 959,695 960,695 960,695 961,695 961,695 962,695 962,694 963,695 963,695 964,695 964,695 965,695 966,695 966,695 967,695 967,695 968,695 968,695 969,695 969,694 970,694 970,694 971,694 971,694 972,694 972,694 973,694 974,694 974,694 975,694 975,694 976,694 976,694 977,694 977,694 978,694 978,694 979,694 979,694 980,694 980,694 981,694 981,694 982,694 983,694 983,693 984,693 984,693 985,693 985,693 986,693 986,693 987,693 987,693 988,693 988,693 989,693 989,693 990,693 991,693 991,693 992,693 992,693 993,693 993,693 994,693 994,693 995,693 995,693 996,693 996,693 997,693 997,693 998,693 999,693 999,693 1000,692 1000,692 1001,692 1001,692 1002,692 1002,692 1003,692 1003,692 1004,692 1004,692 1005,692 1005,692 1006,692 1006,692 1007,692 1008,692 1008,692 1009,692 1009,692 1010,692 1010,692 1011,692 1011,692 1012,692 1012,692 1013,692 1013,692 1013,692 1014,692 1014,692 1015,692 1016,692 1016,692 1017,692 1017,692 1018,692 1018,692 1019,692 1019,692 1020,692 1020,691 1021,691 1021,691 1022,691 1022,691 1023,691 1024,691 1024,691 1025,691 1025,691 1026,691 1026,691 1027,691 1027,691 1028,691 1028,691 1029,691 1029,691 1030,691 1030,690 1031,690 1031,690 1032,690 1033,690 1033,690 1034,690 1034,690 1035,690 1035,690 1036,690 1036,690 1037,690 1037,690 1038,690 1038,690 1039,690 1039,690 1040,690 1041,690 1041,690 1042,690 1042,690 1043,690 1043,690 1044,690 1044,690 1045,690 1045,690 1046,690 1046,690 1047,690 1047,690 1048,690 1049,690 1049,690 1050,690 1050,690 1051,690 1051,690 1052,690 1052,690 1053,690 1053,690 1054,690 1054,690 1055,690 1055,690 1056,690 1056,690 1057,690 1058,690 1058,690 1059,690 1059,690 1060,690 1060,690 1061,690 1061,690 1062,690 1062,690 1063,690 1063,690 1064,690 1064,690 1065,690 1066,690 1066,690 1067,690 1067,690 1068,690 1068,690 1069,690 1069,690 1070,690 1070,690 1071,690 1071,690 1072,690 1072,690 1073,690 1074,690 1074,690 1075,690 1075,690 1076,690 1076,690 1077,690 1077,689 1078,689 1078,689 1079,689 1079,689 1080,689 1080,689 1081,689 1082,689 1082,689 1083,689 1083,689 1084,689 1084,689 1085,689 1085,689 1086,689 1086,689 1087,689 1087,689 1088,689 1088,689 1088,689 1088,689 1089,689 1089,689 1089,689 1090,689 1090,689 1091,689 1091,689 1091,689 1092,689 1092,689 1092,689 1092,689 1093,689 1093,689 1093,689 1093,689 1094,689 1094,689 1094,689 1094,689 1095,689 1095,689 1095,689 1095,689 1096,689 1096,689 1096,689 1097,689 1097,689 1097,689 1098,689 1098,689 1099,689 1099,689 1099,689 1099,689 1100,689 1100,689 1100,689 1100,689 1101,689 1101,689 1101,689 1102,689 1102,689 1102,689 1102,689 1103,689 1103,689 1103,689 1103,689 1104,689 1104,689 1104,689 1104,689 1105,689 1105,689 1105,689 1105,688 1106,688 1106,688 1107,689 1107,689 1107,689 1108,689 1108,689 1108,689 1108,689 1109,689 1109,688 1109,688 1109,688 1110,688 1110,688 1110,688 1110,688 1111,688 1111,688 1111,688 1111,688 1112,688 1112,688 1112,688 1112,688 1113,688 1113,688 1114,688 1114,688 1114,688 1114,688 1115,688 1115,688 1116,688 1116,688 1116,688 1116,688 1117,688 1117,688 1117,688 1117,688 1118,688 1118,688 1118,688 1118,688 1119,688 1119,688 1119,688 1120,688 1120,688 1120,688 1120,688 1121,688 1121,687 1121,687 1121,687 1122,687 1122,687 1122,687 1123,687 1123,687 1124,687 1124,687 1124,687 1124,687 1125,687 1125,687 1125,687 1125,687 1126,687 1126,687 1126,687 1126,687 1127,687 1127,687 1127,687 1127,687 1128,687 1128,687 1128,687 1128,687 1129,687 1129,687 1129,687 1129,687 1130,687 1130,687 1130,687 1130,687 1131,687 1131,687 1132,687 1132,687 1132,687 1133,687 1133,687 1133,687 1133,687 1134,687 1134,677 1134,677 1134,677 1135,677 1135,677 1135,677 1135,677 1136,677 1136,677 1136,677 1136,677 1137,677 1137,677 1137,677 1138,677 1138,677 1138,677 1138,676 1139,676 1139,676 1139,676 1139,676 1140,676 1140,676 1141,676 1141,676 1142,676 1142,676 1142,676 1143,676 1143,676 1143,676 1143,676 1144,676 1144,676 1144,676 1144,676 1145,676 1145,676 1145,676 1145,676 1146,676 1146,676 1146,676 1146,676 1147,675 1147,675 1147,675 1147,675 1148,675 1149,675 1149,675 1149,675 1149,675 1150,675 1150,675 1150,675 1150,675 1151,675 1151,675 1151,675 1151,675 1152,675 1152,675 1152,675 1152,675 1153,675 1153,676 1153,676 1153,676 1154,676 1154,676 1154,676 1154,676 1155,676 1155,676 1155,676 1155,676 1156,676 1156,676 1157,676 1157,676 1157,675 1158,675 1158,675 1158,675 1158,675 1159,675 1159,675 1159,675 1159,675 1160,675 1160,675 1160,675 1160,675 1161,675 1161,675 1161,675 1162,675 1162,675 1162,675 1162,675 1163,675 1163,675 1163,675 1163,675 1164,675 1164,675 1164,675 1164,675 1165,675 1165,675 1166,675 1166,675 1166,675 1166,675 1167,675 1167,675 1167,675 1167,675 1168,675 1168,675 1168,675 1168,675 1169,675 1169,675 1169,675 1169,675 1170,675 1170,675 1170,675 1170,674 1171,674 1171,674 1171,674 1172,674 1172,674 1172,674 1172,674 1173,674 1173,674 1174,674 1174,674 1174,674 1174,674 1175,674 1175,674 1175,674 1175,675 1176,675 1176,675 1176,675 1176,675 1177,675 1177,675 1177,675 1177,675 1178,675 1178,675 1178,675 1178,675 1179,675 1179,675 1179,675 1179,675 1180,675 1180,674 1180,674 1180,674 1181,674 1181,674 1182,674 1182,674 1182,674 1182,674 1183,674 1183,674 1183,674 1183,674 1184,674 1184,674 1184,674 1184,674 1185,674 1185,674 1185,674 1185,674 1186,674 1186,674 1186,674 1187,674 1187,674 1187,674 1188,674 1188,674 1188,674 1188,674 1189,674 1189,674 1190,674 "/>
<polyline fill="none" opacity="1" stroke="#BD19E6" stroke-width="2" points="505,738 506,738 527,738 544,738 562,738 563,738 571,737 583,737 587,737 592,737 599,736 602,736 603,736 606,736 611,736 627,735 627,735 632,735 639,735 645,735 646,735 647,734 648,734 651,734 652,734 656,733 656,733 660,733 661,733 661,733 662,733 662,733 665,733 666,733 667,733 667,733 670,732 672,732 672,732 673,732 675,732 676,731 677,731 678,731 678,731 679,731 680,731 680,731 681,731 681,730 682,731 684,730 686,730 687,730 688,730 690,730 691,730 693,729 694,729 696,729 698,729 699,729 700,728 702,728 704,728 705,728 706,727 710,727 711,727 711,727 712,726 715,726 715,726 717,726 717,725 718,725 718,725 719,725 719,725 720,724 721,724 721,724 722,724 722,723 723,723 724,723 725,723 726,723 727,722 727,722 728,722 729,721 729,721 730,721 730,721 731,721 731,721 732,721 732,721 733,721 734,720 734,720 735,720 735,720 736,719 736,719 737,719 737,718 739,718 739,718 740,718 741,718 742,717 742,717 743,717 744,716 745,716 745,716 746,716 746,715 747,715 747,715 748,715 748,715 749,715 750,715 750,715 751,715 751,715 752,715 752,715 753,714 753,714 754,714 754,714 755,714 755,714 756,714 756,714 757,714 758,714 758,714 759,714 759,714 760,714 760,714 761,713 762,713 762,713 763,713 763,713 764,712 764,712 765,712 765,712 766,712 767,712 768,712 768,712 769,712 769,711 770,711 770,711 771,711 771,711 772,711 772,711 773,710 773,710 774,710 775,710 775,710 776,710 776,710 777,710 777,710 778,710 778,710 779,710 780,710 780,709 781,709 781,709 782,709 783,709 783,709 784,708 784,708 785,708 785,708 786,708 786,708 787,708 787,707 788,707 788,706 789,706 789,706 790,706 790,706 791,706 792,706 792,706 793,705 793,705 794,705 795,705 795,705 796,705 796,705 797,704 798,704 798,704 799,703 800,703 801,703 801,703 802,703 802,703 803,703 803,703 804,703 805,703 805,703 806,702 806,702 807,702 808,702 808,702 808,702 809,702 809,702 810,701 811,701 811,701 812,701 812,700 813,700 813,700 814,700 814,699 815,699 815,699 816,699 817,699 817,698 818,698 818,698 819,698 819,697 820,697 820,697 821,697 821,697 822,697 822,696 823,696 823,696 824,696 825,695 825,695 826,695 826,695 827,695 827,695 828,694 828,694 829,694 829,694 830,694 830,694 831,693 831,693 832,693 833,693 833,693 834,692 834,692 835,692 835,692 836,692 836,692 837,692 838,692 838,692 839,692 839,692 840,692 840,692 841,692 842,692 842,692 843,692 843,692 844,691 844,691 845,691 845,691 846,691 846,691 847,691 847,691 848,690 848,690 849,690 850,690 850,689 851,689 851,688 852,688 852,688 853,687 853,687 854,687 854,687 855,687 855,687 856,686 856,686 857,685 858,685 858,685 859,685 859,684 860,684 860,684 861,684 861,683 862,683 862,682 863,681 863,681 864,681 864,681 865,681 866,680 866,679 867,679 867,678 868,678 868,678 869,678 869,677 870,677 870,677 871,677 871,677 872,676 872,676 873,676 873,676 874,676 875,676 875,676 876,675 876,675 877,675 877,674 878,674 878,674 879,674 879,674 880,674 880,673 881,673 881,673 882,672 883,672 883,672 884,672 884,672 885,671 885,671 886,671 886,671 887,671 887,671 888,671 888,670 889,670 889,670 890,670 891,669 891,669 892,669 892,669 893,668 893,668 894,668 894,667 895,667 895,667 896,666 896,666 897,665 897,665 898,665 898,665 899,664 900,664 900,663 901,663 901,663 902,663 902,662 903,662 903,662 904,662 904,661 905,661 905,661 906,661 906,660 907,660 908,660 908,660 909,659 909,659 910,659 910,659 911,659 911,658 912,658 912,658 913,658 913,658 914,657 914,657 915,657 916,657 916,656 917,656 917,656 918,656 918,656 919,656 919,655 920,655 920,655 921,654 921,654 922,654 922,654 923,653 923,653 924,653 925,653 925,652 926,652 926,652 927,651 927,651 928,651 928,651 929,650 929,650 930,650 930,650 931,649 931,649 932,649 933,648 933,648 934,648 934,648 935,648 935,647 936,647 936,647 937,646 937,646 938,646 938,646 939,646 939,645 940,645 941,645 941,645 942,644 942,644 943,643 943,643 944,643 944,643 945,643 945,642 946,642 946,642 947,642 947,642 948,641 948,641 949,640 950,640 950,639 951,639 951,639 952,639 952,639 953,638 953,638 954,638 954,638 955,638 955,638 956,637 956,637 957,637 958,637 958,636 959,636 959,636 960,636 960,636 961,636 961,635 962,634 962,634 963,634 963,634 964,633 964,633 965,633 966,633 966,632 967,632 967,632 968,632 968,631 969,631 969,631 970,631 970,630 971,630 971,629 972,629 972,628 973,628 974,628 974,628 975,627 975,626 976,626 976,626 977,626 977,625 978,625 978,625 979,625 979,624 980,624 980,624 981,623 981,622 983,622 983,622 984,622 984,622 985,621 985,621 986,621 986,621 987,621 987,620 988,620 988,619 989,619 989,618 990,618 991,617 991,617 992,617 992,616 993,616 993,615 994,615 994,615 995,615 995,615 996,614 996,614 997,613 997,613 998,612 999,612 999,612 1000,611 1000,611 1001,611 1001,610 1002,609 1002,609 1003,608 1003,608 1004,607 1004,607 1005,606 1005,606 1006,606 1006,605 1007,605 1008,604 1008,604 1009,604 1009,603 1010,603 1010,603 1011,602 1011,601 1012,601 1012,601 1013,601 1013,600 1013,600 1014,600 1014,599 1015,599 1016,598 1016,598 1017,596 1017,596 1018,595 1018,594 1019,593 1019,593 1020,593 1020,593 1021,593 1021,593 1022,592 1022,592 1023,593 1024,593 1024,591 1025,591 1025,591 1026,590 1026,589 1027,589 1027,589 1028,588 1028,588 1029,587 1029,587 1030,587 1030,586 1031,586 1031,586 1032,585 1033,585 1033,585 1034,584 1034,584 1035,584 1035,583 1036,583 1036,583 1037,583 1037,582 1038,582 1038,582 1039,580 1039,580 1040,580 1041,579 1041,579 1042,579 1042,579 1043,578 1043,577 1044,577 1044,576 1045,576 1045,575 1046,574 1046,574 1047,573 1047,573 1048,573 1049,573 1049,572 1050,572 1050,571 1051,571 1051,571 1052,571 1052,570 1053,570 1053,569 1054,569 1054,569 1055,568 1055,568 1056,568 1056,567 1057,566 1058,566 1058,566 1059,565 1059,565 1060,564 1060,564 1061,563 1061,563 1062,562 1062,562 1063,562 1063,562 1064,562 1064,561 1065,561 1066,561 1066,560 1067,560 1067,559 1068,559 1068,559 1069,559 1069,558 1070,558 1070,557 1071,557 1071,556 1072,556 1072,555 1073,555 1074,554 1074,554 1075,553 1075,553 1076,552 1076,552 1077,552 1077,552 1078,551 1078,551 1079,550 1079,549 1080,549 1080,548 1081,547 1082,547 1082,547 1083,546 1083,546 1084,545 1084,545 1085,544 1085,544 1086,543 1086,543 1087,542 1087,542 1088,542 1088,542 1088,542 1088,541 1089,540 1089,540 1089,540 1090,540 1090,539 1091,539 1091,539 1091,539 1092,539 1092,538 1092,538 1092,538 1093,538 1093,538 1093,538 1093,537 1094,537 1094,537 1094,537 1094,536 1095,536 1095,536 1095,536 1095,535 1096,535 1096,535 1096,534 1097,534 1097,533 1097,533 1098,533 1098,533 1099,533 1099,532 1099,532 1099,532 1100,532 1100,532 1100,532 1100,531 1101,531 1101,531 1101,531 1102,531 1102,530 1102,530 1102,529 1103,529 1103,528 1103,528 1103,527 1104,527 1104,527 1104,527 1104,527 1105,527 1105,527 1105,527 1105,526 1106,526 1106,526 1107,525 1107,525 1107,525 1108,525 1108,524 1108,524 1108,523 1109,523 1109,523 1109,523 1109,522 1110,522 1110,522 1110,522 1110,521 1111,521 1111,521 1111,521 1111,520 1112,520 1112,520 1112,520 1112,519 1113,519 1113,519 1114,519 1114,518 1114,518 1114,516 1115,516 1115,516 1116,516 1116,517 1116,517 1116,516 1117,516 1117,516 1117,516 1117,515 1118,515 1118,515 1118,515 1118,514 1119,514 1119,514 1119,513 1120,513 1120,512 1120,512 1120,512 1121,512 1121,511 1121,511 1121,510 1122,509 1122,509 1122,509 1123,509 1123,508 1124,508 1124,508 1124,508 1124,507 1125,507 1125,507 1125,507 1125,506 1126,506 1126,505 1126,505 1126,505 1127,504 1127,504 1127,504 1128,504 1128,503 1128,503 1128,502 1129,502 1129,502 1129,502 1129,501 1130,501 1130,500 1130,500 1130,498 1131,498 1131,498 1132,498 1132,497 1132,496 1133,496 1133,496 1133,496 1133,496 1134,496 1134,495 1134,495 1134,495 1135,495 1135,495 1135,495 1135,495 1136,495 1136,494 1136,494 1136,493 1137,493 1137,493 1137,492 1138,492 1138,490 1138,490 1138,490 1139,490 1139,490 1139,490 1139,489 1140,489 1140,488 1141,488 1141,488 1142,488 1142,487 1142,487 1143,487 1143,486 1143,486 1143,486 1144,486 1144,486 1144,486 1144,485 1145,485 1145,485 1145,485 1145,485 1146,485 1146,485 1146,485 1146,484 1147,484 1147,484 1147,484 1147,483 1148,483 1149,483 1149,483 1149,483 1149,483 1150,483 1150,482 1150,482 1150,482 1151,482 1151,481 1151,481 1151,481 1152,481 1152,481 1152,481 1152,479 1153,479 1153,479 1153,479 1153,479 1154,479 1154,479 1154,479 1154,478 1155,478 1155,477 1155,477 1155,477 1156,477 1156,476 1157,476 1157,476 1157,476 1158,476 1158,476 1158,476 1158,475 1159,475 1159,475 1159,475 1159,475 1160,475 1160,474 1160,474 1160,474 1161,474 1161,474 1161,473 1162,473 1162,473 1162,473 1162,472 1163,472 1163,472 1163,472 1163,472 1164,472 1164,471 1164,471 1164,471 1165,471 1165,470 1166,470 1166,470 1166,470 1166,470 1167,470 1167,469 1167,469 1167,468 1168,468 1168,468 1168,468 1168,467 1169,467 1169,467 1169,467 1169,467 1170,467 1170,466 1170,466 1170,466 1171,466 1171,466 1171,465 1172,465 1172,464 1172,464 1172,464 1173,464 1173,464 1174,464 1174,463 1174,463 1174,462 1175,462 1175,462 1175,462 1175,461 1176,461 1176,461 1176,461 1176,461 1177,461 1177,460 1177,460 1177,459 1178,459 1178,459 1178,459 1178,459 1179,459 1179,458 1179,458 1179,457 1180,457 1180,457 1180,457 1180,456 1181,456 1181,456 1182,456 1182,455 1182,455 1182,454 1183,454 1183,454 1183,454 1183,452 1184,452 1184,451 1184,451 1184,449 1185,449 1185,449 1185,449 1185,449 1186,448 1186,448 1186,447 1187,447 1187,447 1187,446 1188,446 1188,446 1188,446 1188,445 1189,445 1189,445 1190,445 "/>
<rect x="1088" y="329" width="97" height="91" opacity="1" fill="#FFFFFF" stroke="none"/>
<rect x="1088" y="329" width="97" height="91" opacity="1" fill="none" stroke="#000000"/>
<text x="1128" y="339" dy="0.76em" text-anchor="start" font-family="sans-serif" font-size="9.67741935483871" opacity="1" fill="#000000">
argparse
</text>
<text x="1128" y="354" dy="0.76em" text-anchor="start" font-family="sans-serif" font-size="9.67741935483871" opacity="1" fill="#000000">
clap
</text>
<text x="1128" y="369" dy="0.76em" text-anchor="start" font-family="sans-serif" font-size="9.67741935483871" opacity="1" fill="#000000">
docopt
</text>
<text x="1128" y="384" dy="0.76em" text-anchor="start" font-family="sans-serif" font-size="9.67741935483871" opacity="1" fill="#000000">
getopts
</text>
<text x="1128" y="399" dy="0.76em" text-anchor="start" font-family="sans-serif" font-size="9.67741935483871" opacity="1" fill="#000000">
structopt
</text>
<polyline fill="none" opacity="1" stroke="#E61919" stroke-width="2" points="1098,343 1118,343 "/>
<polyline fill="none" opacity="1" stroke="#BDE619" stroke-width="2" points="1098,359 1118,359 "/>
<polyline fill="none" opacity="1" stroke="#19E66B" stroke-width="2" points="1098,374 1118,374 "/>
<polyline fill="none" opacity="1" stroke="#196BE6" stroke-width="2" points="1098,389 1118,389 "/>
<polyline fill="none" opacity="1" stroke="#BD19E6" stroke-width="2" points="1098,404 1118,404 "/>
</svg>
