<svg width="1200" height="800" xmlns="http://www.w3.org/2000/svg">
<rect x="0" y="0" width="1199" height="799" opacity="1" fill="#FFFFFF" stroke="none"/>
<line opacity="0.1" stroke="#000000" stroke-width="1" x1="60" y1="729" x2="1190" y2="729"/>
<line opacity="0.1" stroke="#000000" stroke-width="1" x1="60" y1="720" x2="1190" y2="720"/>
<line opacity="0.1" stroke="#000000" stroke-width="1" x1="60" y1="711" x2="1190" y2="711"/>
<line opacity="0.1" stroke="#000000" stroke-width="1" x1="60" y1="702" x2="1190" y2="702"/>
<line opacity="0.1" stroke="#000000" stroke-width="1" x1="60" y1="692" x2="1190" y2="692"/>
<line opacity="0.1" stroke="#000000" stroke-width="1" x1="60" y1="683" x2="1190" y2="683"/>
<line opacity="0.1" stroke="#000000" stroke-width="1" x1="60" y1="674" x2="1190" y2="674"/>
<line opacity="0.1" stroke="#000000" stroke-width="1" x1="60" y1="664" x2="1190" y2="664"/>
<line opacity="0.1" stroke="#000000" stroke-width="1" x1="60" y1="655" x2="1190" y2="655"/>
<line opacity="0.1" stroke="#000000" stroke-width="1" x1="60" y1="646" x2="1190" y2="646"/>
<line opacity="0.1" stroke="#000000" stroke-width="1" x1="60" y1="637" x2="1190" y2="637"/>
<line opacity="0.1" stroke="#000000" stroke-width="1" x1="60" y1="627" x2="1190" y2="627"/>
<line opacity="0.1" stroke="#000000" stroke-width="1" x1="60" y1="618" x2="1190" y2="618"/>
<line opacity="0.1" stroke="#000000" stroke-width="1" x1="60" y1="609" x2="1190" y2="609"/>
<line opacity="0.1" stroke="#000000" stroke-width="1" x1="60" y1="599" x2="1190" y2="599"/>
<line opacity="0.1" stroke="#000000" stroke-width="1" x1="60" y1="590" x2="1190" y2="590"/>
<line opacity="0.1" stroke="#000000" stroke-width="1" x1="60" y1="581" x2="1190" y2="581"/>
<line opacity="0.1" stroke="#000000" stroke-width="1" x1="60" y1="572" x2="1190" y2="572"/>
<line opacity="0.1" stroke="#000000" stroke-width="1" x1="60" y1="562" x2="1190" y2="562"/>
<line opacity="0.1" stroke="#000000" stroke-width="1" x1="60" y1="553" x2="1190" y2="553"/>
<line opacity="0.1" stroke="#000000" stroke-width="1" x1="60" y1="544" x2="1190" y2="544"/>
<line opacity="0.1" stroke="#000000" stroke-width="1" x1="60" y1="534" x2="1190" y2="534"/>
<line opacity="0.1" stroke="#000000" stroke-width="1" x1="60" y1="525" x2="1190" y2="525"/>
<line opacity="0.1" stroke="#000000" stroke-width="1" x1="60" y1="516" x2="1190" y2="516"/>
<line opacity="0.1" stroke="#000000" stroke-width="1" x1="60" y1="507" x2="1190" y2="507"/>
<line opacity="0.1" stroke="#000000" stroke-width="1" x1="60" y1="497" x2="1190" y2="497"/>
<line opacity="0.1" stroke="#000000" stroke-width="1" x1="60" y1="488" x2="1190" y2="488"/>
<line opacity="0.1" stroke="#000000" stroke-width="1" x1="60" y1="479" x2="1190" y2="479"/>
<line opacity="0.1" stroke="#000000" stroke-width="1" x1="60" y1="469" x2="1190" y2="469"/>
<line opacity="0.1" stroke="#000000" stroke-width="1" x1="60" y1="460" x2="1190" y2="460"/>
<line opacity="0.1" stroke="#000000" stroke-width="1" x1="60" y1="451" x2="1190" y2="451"/>
<line opacity="0.1" stroke="#000000" stroke-width="1" x1="60" y1="442" x2="1190" y2="442"/>
<line opacity="0.1" stroke="#000000" stroke-width="1" x1="60" y1="432" x2="1190" y2="432"/>
<line opacity="0.1" stroke="#000000" stroke-width="1" x1="60" y1="423" x2="1190" y2="423"/>
<line opacity="0.1" stroke="#000000" stroke-width="1" x1="60" y1="414" x2="1190" y2="414"/>
<line opacity="0.1" stroke="#000000" stroke-width="1" x1="60" y1="404" x2="1190" y2="404"/>
<line opacity="0.1" stroke="#000000" stroke-width="1" x1="60" y1="395" x2="1190" y2="395"/>
<line opacity="0.1" stroke="#000000" stroke-width="1" x1="60" y1="386" x2="1190" y2="386"/>
<line opacity="0.1" stroke="#000000" stroke-width="1" x1="60" y1="377" x2="1190" y2="377"/>
<line opacity="0.1" stroke="#000000" stroke-width="1" x1="60" y1="367" x2="1190" y2="367"/>
<line opacity="0.1" stroke="#000000" stroke-width="1" x1="60" y1="358" x2="1190" y2="358"/>
<line opacity="0.1" stroke="#000000" stroke-width="1" x1="60" y1="349" x2="1190" y2="349"/>
<line opacity="0.1" stroke="#000000" stroke-width="1" x1="60" y1="339" x2="1190" y2="339"/>
<line opacity="0.1" stroke="#000000" stroke-width="1" x1="60" y1="330" x2="1190" y2="330"/>
<line opacity="0.1" stroke="#000000" stroke-width="1" x1="60" y1="321" x2="1190" y2="321"/>
<line opacity="0.1" stroke="#000000" stroke-width="1" x1="60" y1="311" x2="1190" y2="311"/>
<line opacity="0.1" stroke="#000000" stroke-width="1" x1="60" y1="302" x2="1190" y2="302"/>
<line opacity="0.1" stroke="#000000" stroke-width="1" x1="60" y1="293" x2="1190" y2="293"/>
<line opacity="0.1" stroke="#000000" stroke-width="1" x1="60" y1="284" x2="1190" y2="284"/>
<line opacity="0.1" stroke="#000000" stroke-width="1" x1="60" y1="274" x2="1190" y2="274"/>
<line opacity="0.1" stroke="#000000" stroke-width="1" x1="60" y1="265" x2="1190" y2="265"/>
<line opacity="0.1" stroke="#000000" stroke-width="1" x1="60" y1="256" x2="1190" y2="256"/>
<line opacity="0.1" stroke="#000000" stroke-width="1" x1="60" y1="246" x2="1190" y2="246"/>
<line opacity="0.1" stroke="#000000" stroke-width="1" x1="60" y1="237" x2="1190" y2="237"/>
<line opacity="0.1" stroke="#000000" stroke-width="1" x1="60" y1="228" x2="1190" y2="228"/>
<line opacity="0.1" stroke="#000000" stroke-width="1" x1="60" y1="219" x2="1190" y2="219"/>
<line opacity="0.1" stroke="#000000" stroke-width="1" x1="60" y1="209" x2="1190" y2="209"/>
<line opacity="0.1" stroke="#000000" stroke-width="1" x1="60" y1="200" x2="1190" y2="200"/>
<line opacity="0.1" stroke="#000000" stroke-width="1" x1="60" y1="191" x2="1190" y2="191"/>
<line opacity="0.1" stroke="#000000" stroke-width="1" x1="60" y1="181" x2="1190" y2="181"/>
<line opacity="0.1" stroke="#000000" stroke-width="1" x1="60" y1="172" x2="1190" y2="172"/>
<line opacity="0.1" stroke="#000000" stroke-width="1" x1="60" y1="163" x2="1190" y2="163"/>
<line opacity="0.1" stroke="#000000" stroke-width="1" x1="60" y1="154" x2="1190" y2="154"/>
<line opacity="0.1" stroke="#000000" stroke-width="1" x1="60" y1="144" x2="1190" y2="144"/>
<line opacity="0.1" stroke="#000000" stroke-width="1" x1="60" y1="135" x2="1190" y2="135"/>
<line opacity="0.1" stroke="#000000" stroke-width="1" x1="60" y1="126" x2="1190" y2="126"/>
<line opacity="0.1" stroke="#000000" stroke-width="1" x1="60" y1="116" x2="1190" y2="116"/>
<line opacity="0.1" stroke="#000000" stroke-width="1" x1="60" y1="107" x2="1190" y2="107"/>
<line opacity="0.1" stroke="#000000" stroke-width="1" x1="60" y1="98" x2="1190" y2="98"/>
<line opacity="0.1" stroke="#000000" stroke-width="1" x1="60" y1="89" x2="1190" y2="89"/>
<line opacity="0.1" stroke="#000000" stroke-width="1" x1="60" y1="79" x2="1190" y2="79"/>
<line opacity="0.1" stroke="#000000" stroke-width="1" x1="60" y1="70" x2="1190" y2="70"/>
<line opacity="0.1" stroke="#000000" stroke-width="1" x1="60" y1="61" x2="1190" y2="61"/>
<line opacity="0.1" stroke="#000000" stroke-width="1" x1="60" y1="51" x2="1190" y2="51"/>
<line opacity="0.1" stroke="#000000" stroke-width="1" x1="60" y1="42" x2="1190" y2="42"/>
<line opacity="0.1" stroke="#000000" stroke-width="1" x1="60" y1="33" x2="1190" y2="33"/>
<line opacity="0.1" stroke="#000000" stroke-width="1" x1="60" y1="24" x2="1190" y2="24"/>
<line opacity="0.1" stroke="#000000" stroke-width="1" x1="60" y1="14" x2="1190" y2="14"/>
<text x="10" y="375" dy="0.76em" text-anchor="middle" font-family="sans-serif" font-size="9.67741935483871" opacity="1" fill="#000000" transform="rotate(270, 10, 375)">
Number of dependent crates
</text>
<line opacity="0.2" stroke="#000000" stroke-width="1" x1="60" y1="646" x2="1190" y2="646"/>
<line opacity="0.2" stroke="#000000" stroke-width="1" x1="60" y1="553" x2="1190" y2="553"/>
<line opacity="0.2" stroke="#000000" stroke-width="1" x1="60" y1="460" x2="1190" y2="460"/>
<line opacity="0.2" stroke="#000000" stroke-width="1" x1="60" y1="367" x2="1190" y2="367"/>
<line opacity="0.2" stroke="#000000" stroke-width="1" x1="60" y1="274" x2="1190" y2="274"/>
<line opacity="0.2" stroke="#000000" stroke-width="1" x1="60" y1="181" x2="1190" y2="181"/>
<line opacity="0.2" stroke="#000000" stroke-width="1" x1="60" y1="89" x2="1190" y2="89"/>
<polyline fill="none" opacity="1" stroke="#000000" stroke-width="1" points="59,10 59,740 "/>
<text x="50" y="646" dy="0.5ex" text-anchor="end" font-family="sans-serif" font-size="9.67741935483871" opacity="1" fill="#000000">
500
</text>
<polyline fill="none" opacity="1" stroke="#000000" stroke-width="1" points="54,646 59,646 "/>
<text x="50" y="553" dy="0.5ex" text-anchor="end" font-family="sans-serif" font-size="9.67741935483871" opacity="1" fill="#000000">
1000
</text>
<polyline fill="none" opacity="1" stroke="#000000" stroke-width="1" points="54,553 59,553 "/>
<text x="50" y="460" dy="0.5ex" text-anchor="end" font-family="sans-serif" font-size="9.67741935483871" opacity="1" fill="#000000">
1500
</text>
<polyline fill="none" opacity="1" stroke="#000000" stroke-width="1" points="54,460 59,460 "/>
<text x="50" y="367" dy="0.5ex" text-anchor="end" font-family="sans-serif" font-size="9.67741935483871" opacity="1" fill="#000000">
2000
</text>
<polyline fill="none" opacity="1" stroke="#000000" stroke-width="1" points="54,367 59,367 "/>
<text x="50" y="274" dy="0.5ex" text-anchor="end" font-family="sans-serif" font-size="9.67741935483871" opacity="1" fill="#000000">
2500
</text>
<polyline fill="none" opacity="1" stroke="#000000" stroke-width="1" points="54,274 59,274 "/>
<text x="50" y="181" dy="0.5ex" text-anchor="end" font-family="sans-serif" font-size="9.67741935483871" opacity="1" fill="#000000">
3000
</text>
<polyline fill="none" opacity="1" stroke="#000000" stroke-width="1" points="54,181 59,181 "/>
<text x="50" y="89" dy="0.5ex" text-anchor="end" font-family="sans-serif" font-size="9.67741935483871" opacity="1" fill="#000000">
3500
</text>
<polyline fill="none" opacity="1" stroke="#000000" stroke-width="1" points="54,89 59,89 "/>
<polyline fill="none" opacity="1" stroke="#000000" stroke-width="1" points="60,740 1190,740 "/>
<text x="60" y="750" dy="0.76em" text-anchor="middle" font-family="sans-serif" font-size="9.67741935483871" opacity="1" fill="#000000">
2014-11-20Z
</text>
<polyline fill="none" opacity="1" stroke="#000000" stroke-width="1" points="60,740 60,745 "/>
<text x="172" y="750" dy="0.76em" text-anchor="middle" font-family="sans-serif" font-size="9.67741935483871" opacity="1" fill="#000000">
2015-06-18Z
</text>
<polyline fill="none" opacity="1" stroke="#000000" stroke-width="1" points="172,740 172,745 "/>
<text x="285" y="750" dy="0.76em" text-anchor="middle" font-family="sans-serif" font-size="9.67741935483871" opacity="1" fill="#000000">
2016-01-14Z
</text>
<polyline fill="none" opacity="1" stroke="#000000" stroke-width="1" points="285,740 285,745 "/>
<text x="398" y="750" dy="0.76em" text-anchor="middle" font-family="sans-serif" font-size="9.67741935483871" opacity="1" fill="#000000">
2016-08-11Z
</text>
<polyline fill="none" opacity="1" stroke="#000000" stroke-width="1" points="398,740 398,745 "/>
<text x="511" y="750" dy="0.76em" text-anchor="middle" font-family="sans-serif" font-size="9.67741935483871" opacity="1" fill="#000000">
2017-03-09Z
</text>
<polyline fill="none" opacity="1" stroke="#000000" stroke-width="1" points="511,740 511,745 "/>
<text x="624" y="750" dy="0.76em" text-anchor="middle" font-family="sans-serif" font-size="9.67741935483871" opacity="1" fill="#000000">
2017-10-05Z
</text>
<polyline fill="none" opacity="1" stroke="#000000" stroke-width="1" points="624,740 624,745 "/>
<text x="737" y="750" dy="0.76em" text-anchor="middle" font-family="sans-serif" font-size="9.67741935483871" opacity="1" fill="#000000">
2018-05-03Z
</text>
<polyline fill="none" opacity="1" stroke="#000000" stroke-width="1" points="737,740 737,745 "/>
<text x="849" y="750" dy="0.76em" text-anchor="middle" font-family="sans-serif" font-size="9.67741935483871" opacity="1" fill="#000000">
2018-11-29Z
</text>
<polyline fill="none" opacity="1" stroke="#000000" stroke-width="1" points="849,740 849,745 "/>
<text x="962" y="750" dy="0.76em" text-anchor="middle" font-family="sans-serif" font-size="9.67741935483871" opacity="1" fill="#000000">
2019-06-27Z
</text>
<polyline fill="none" opacity="1" stroke="#000000" stroke-width="1" points="962,740 962,745 "/>
<text x="1075" y="750" dy="0.76em" text-anchor="middle" font-family="sans-serif" font-size="9.67741935483871" opacity="1" fill="#000000">
2020-01-23Z
</text>
<polyline fill="none" opacity="1" stroke="#000000" stroke-width="1" points="1075,740 1075,745 "/>
<text x="1188" y="750" dy="0.76em" text-anchor="middle" font-family="sans-serif" font-size="9.67741935483871" opacity="1" fill="#000000">
2020-08-20Z
</text>
<polyline fill="none" opacity="1" stroke="#000000" stroke-width="1" points="1188,740 1188,745 "/>
<polyline fill="none" opacity="1" stroke="#E61919" stroke-width="2" points="169,738 174,738 174,738 212,738 240,738 270,737 279,737 280,737 288,737 291,737 293,737 295,736 296,736 298,736 299,736 300,736 301,736 310,736 311,736 325,736 326,736 330,736 338,736 341,735 342,735 355,735 356,735 361,735 379,734 380,734 381,734 382,734 382,734 383,735 384,735 385,735 386,735 386,735 387,735 388,735 389,735 390,735 432,735 432,734 433,734 434,734 436,734 460,734 461,734 461,734 462,734 464,734 465,734 465,734 466,733 467,733 469,733 470,733 472,733 472,733 473,733 473,733 474,733 475,733 476,733 478,733 479,733 480,733 480,733 481,733 481,733 483,733 484,733 486,733 487,733 487,733 488,733 489,733 489,733 490,733 490,733 492,733 492,733 494,733 494,733 496,733 496,732 497,732 497,732 499,732 500,732 501,732 503,732 503,732 504,732 505,732 507,732 508,732 508,732 509,732 510,732 511,732 512,732 513,732 514,732 514,732 515,732 516,732 518,732 519,732 519,732 520,732 521,732 521,732 522,732 523,732 524,732 525,732 526,732 527,732 528,732 529,732 531,732 531,732 533,731 536,731 536,731 537,731 539,731 541,731 543,731 544,731 545,731 546,731 547,731 547,731 550,731 551,731 553,731 554,731 554,731 556,731 557,731 557,731 558,731 559,731 560,731 561,731 562,731 562,732 563,732 564,731 564,731 565,731 565,731 566,731 567,731 568,731 570,731 572,731 575,731 576,731 577,731 577,731 578,731 579,731 579,731 580,731 582,731 582,731 583,731 583,731 584,731 584,731 585,731 586,731 586,731 587,731 588,731 589,730 589,730 592,730 593,730 593,730 594,730 594,730 595,730 596,730 596,730 601,730 604,730 606,730 607,730 608,730 609,730 611,730 611,730 615,730 616,730 616,730 626,730 627,730 629,730 631,730 633,730 638,730 640,730 642,730 643,729 644,729 644,729 646,729 649,729 651,729 653,729 653,729 654,729 656,729 657,729 658,729 658,729 659,729 660,729 660,729 661,729 662,729 662,729 663,729 663,729 665,729 665,729 666,729 666,729 667,729 667,729 668,729 669,729 670,729 671,729 672,729 672,729 673,729 674,729 674,729 676,729 676,729 677,729 677,729 679,729 679,729 680,729 680,729 681,729 682,729 683,729 685,729 685,729 686,729 687,729 688,729 688,729 689,729 690,729 690,729 691,729 692,729 695,729 696,729 696,729 698,729 698,729 699,729 702,729 702,729 705,729 706,729 706,729 707,729 708,729 708,729 709,729 709,729 711,729 712,729 712,729 713,729 716,729 716,729 717,729 717,729 718,729 719,729 719,729 720,729 723,729 723,729 724,729 724,729 725,729 725,729 726,729 727,728 728,728 728,728 729,728 730,728 730,728 731,728 731,728 732,728 732,728 733,728 733,728 734,728 734,728 735,728 735,728 736,728 737,728 738,728 738,728 739,728 741,728 741,728 742,728 742,728 745,728 746,728 747,728 747,728 748,728 750,728 751,728 751,728 752,728 752,728 753,728 753,728 754,728 754,728 755,728 755,728 756,728 756,728 757,728 757,728 758,728 760,728 761,728 762,728 762,728 763,728 764,728 764,728 765,728 766,728 766,728 767,728 767,728 768,728 768,728 769,728 769,728 770,728 771,728 771,728 772,728 773,728 773,728 774,728 774,728 775,728 775,728 776,728 777,728 777,728 778,728 779,728 781,728 781,728 782,728 782,728 783,728 784,728 784,728 785,728 786,728 787,728 788,728 788,728 789,728 789,728 790,728 790,728 791,728 791,728 792,728 793,728 793,728 794,728 795,728 795,728 796,728 796,728 797,728 798,728 799,728 800,728 800,728 801,728 802,728 802,728 803,728 803,728 804,728 805,728 805,728 806,728 807,728 807,728 809,728 809,728 810,728 810,728 811,728 812,728 812,728 813,728 813,728 814,728 814,728 815,728 815,728 816,728 816,728 817,728 817,728 818,728 818,728 819,728 819,728 820,728 820,728 821,728 822,728 823,728 823,728 824,728 824,728 825,728 825,728 826,728 827,728 827,728 828,728 829,728 829,728 831,728 831,728 832,728 833,728 834,728 834,728 835,728 835,728 836,728 836,728 837,728 838,728 838,728 839,728 839,728 840,728 841,728 841,728 842,728 843,728 844,728 845,728 846,728 846,727 847,727 847,727 848,727 849,727 849,727 850,727 850,727 852,727 852,727 853,727 854,727 854,727 855,727 855,727 856,727 857,727 857,727 858,727 860,727 860,727 861,727 862,727 863,727 863,727 864,727 864,727 865,727 866,727 867,727 867,727 868,727 868,727 869,727 870,727 870,727 871,727 871,727 872,727 872,727 873,727 874,727 874,727 875,727 876,727 876,727 877,727 878,727 879,727 880,727 881,727 881,727 882,727 883,727 883,727 884,727 884,727 885,727 885,727 886,727 887,727 888,727 889,727 889,727 890,727 891,727 891,726 892,726 893,726 893,726 894,726 895,726 895,726 896,726 896,726 897,726 897,726 898,726 898,726 899,726 900,726 900,726 901,726 901,726 902,726 903,726 903,726 904,726 904,726 905,726 905,726 906,726 906,726 907,726 907,726 908,726 909,726 910,726 910,726 911,726 911,726 912,726 913,726 913,726 914,726 914,726 915,726 915,726 916,726 917,726 918,726 918,726 919,726 919,726 920,726 920,726 922,726 922,726 925,726 926,726 926,726 927,726 928,726 928,726 929,726 929,726 930,726 931,726 931,726 932,726 932,726 933,726 933,726 934,726 934,726 935,726 936,726 937,726 939,726 939,726 940,726 940,726 941,726 942,726 942,726 944,726 944,726 945,726 946,726 946,726 947,726 947,726 948,726 949,725 950,725 950,725 951,725 951,725 952,725 953,725 955,725 955,725 956,725 956,725 957,725 958,725 958,725 959,725 960,725 960,725 961,725 962,725 962,725 963,725 963,725 964,725 966,725 967,725 967,725 968,725 968,725 969,725 969,725 970,725 970,725 971,725 972,725 972,725 973,725 974,725 975,725 975,725 976,725 977,725 978,725 978,725 979,725 979,725 980,725 980,725 981,725 982,725 982,725 983,725 983,725 984,725 984,725 985,725 985,725 986,725 986,725 987,725 987,725 989,725 990,725 991,725 992,725 992,725 993,725 993,725 994,725 996,725 996,726 997,726 997,726 998,726 998,726 999,726 999,726 1000,726 1000,726 1001,726 1001,726 1003,726 1003,726 1006,726 1006,726 1007,726 1007,726 1008,726 1009,726 1010,726 1011,726 1012,726 1012,726 1013,726 1013,726 1014,726 1015,726 1015,726 1016,726 1017,726 1019,726 1019,726 1021,726 1021,726 1022,726 1022,726 1023,726 1024,726 1025,726 1026,726 1027,726 1027,726 1028,726 1028,726 1029,726 1029,726 1030,726 1030,726 1031,726 1032,726 1032,726 1033,726 1033,726 1034,726 1034,726 1035,726 1035,726 1036,726 1036,726 1037,726 1037,726 1038,726 1039,726 1039,726 1040,725 1041,725 1042,725 1042,725 1043,725 1043,725 1048,725 1048,725 1049,725 1049,725 1050,725 1051,725 1051,725 1052,725 1052,725 1054,725 1054,725 1056,725 1057,725 1057,725 1058,725 1059,725 1060,725 1061,725 1062,725 1062,725 1063,725 1063,725 1064,725 1065,725 1065,725 1066,725 1066,725 1067,725 1068,725 1068,725 1069,725 1069,725 1070,725 1070,725 1072,725 1072,725 1073,725 1073,725 1074,725 1075,725 1075,725 1076,725 1076,725 1077,725 1078,725 1078,725 1079,725 1079,725 1080,725 1080,725 1081,725 1081,725 1083,725 1083,725 1084,725 1085,725 1086,725 1086,725 1087,725 1087,725 1088,725 1090,725 1091,725 1091,725 1093,725 1093,725 1094,725 1094,725 1095,725 1095,725 1096,725 1097,725 1097,725 1098,725 1098,725 1098,725 1099,725 1100,725 1100,725 1100,725 1100,725 1102,725 1102,725 1103,725 1103,725 1104,725 1104,725 1104,725 1105,725 1105,725 1105,725 1106,725 1106,725 1106,725 1106,725 1107,725 1107,725 1107,725 1108,725 1108,725 1108,725 1109,725 1109,725 1109,725 1109,725 1111,725 1111,725 1111,725 1111,725 1112,725 1112,725 1112,725 1113,725 1113,725 1113,725 1114,725 1114,725 1114,725 1114,725 1115,725 1115,725 1115,725 1116,725 1116,725 1116,725 1117,725 1118,725 1119,725 1119,725 1120,725 1120,725 1120,725 1120,725 1121,725 1121,725 1122,725 1122,725 1123,725 1123,725 1123,725 1124,725 1124,725 1124,725 1125,725 1126,725 1126,725 1127,725 1127,725 1127,725 1127,725 1128,725 1128,725 1129,725 1129,725 1129,725 1130,725 1130,725 1130,725 1130,725 1131,725 1131,725 1131,725 1133,725 1133,725 1133,725 1134,725 1134,725 1135,725 1135,725 1136,725 1136,725 1136,725 1136,725 1137,725 1137,725 1137,725 1138,725 1138,725 1139,725 1139,725 1140,725 1140,725 1140,725 1141,725 1141,725 1141,725 1142,725 1142,725 1143,725 1143,725 1144,725 1144,725 1144,725 1145,725 1145,725 1146,725 1147,725 1147,725 1147,725 1147,725 1148,725 1148,725 1148,725 1149,725 1149,725 1149,725 1149,725 1150,725 1150,725 1150,725 1151,725 1151,725 1151,725 1152,725 1152,725 1153,725 1153,725 1153,725 1155,725 1155,725 1155,725 1156,725 1156,725 1156,725 1156,725 1157,725 1157,725 1157,725 1157,725 1158,725 1158,725 1158,725 1158,725 1159,725 1159,725 1159,724 1160,724 1160,724 1161,724 1161,724 1162,724 1162,724 1162,724 1163,724 1163,724 1163,724 1163,724 1164,724 1164,724 1164,724 1164,724 1165,724 1165,724 1166,724 1166,724 1166,724 1166,724 1167,724 1167,724 1169,724 1169,724 1169,724 1170,724 1170,724 1170,724 1171,724 1171,724 1172,724 1172,724 1173,724 1173,724 1173,724 1173,724 1174,724 1174,724 1174,724 1175,724 1175,724 1176,724 1176,724 1176,724 1176,724 1177,724 1177,724 1177,724 1177,724 1178,724 1178,724 1178,724 1179,724 1179,724 1180,724 1180,724 1180,724 1181,724 1181,724 1181,724 1181,724 1182,724 1183,724 1183,724 1183,724 1184,724 1184,724 1184,724 1184,724 1185,724 1185,724 1186,724 1186,724 1186,724 1187,724 1187,724 1190,724 "/>
<polyline fill="none" opacity="1" stroke="#BDE619" stroke-width="2" points="130,738 156,738 177,738 179,738 192,738 199,737 200,738 202,737 208,737 210,737 213,737 219,737 223,736 228,736 232,736 237,736 240,736 240,736 241,735 242,735 243,735 243,735 246,735 247,734 249,734 252,733 253,733 255,733 262,733 265,733 266,732 267,732 267,732 270,732 271,731 276,731 277,731 278,731 279,731 281,730 282,730 283,730 284,730 284,730 288,730 290,729 291,729 292,729 292,729 295,728 296,728 300,728 302,728 305,727 306,727 307,727 307,726 308,726 309,726 309,726 311,726 312,726 313,725 313,725 315,725 316,725 317,725 318,725 319,725 320,725 321,724 322,724 325,724 328,724 330,723 331,724 332,723 334,723 335,723 336,723 336,723 337,723 337,723 338,723 338,723 339,722 340,722 341,722 342,722 344,722 345,722 346,722 346,722 348,722 348,721 349,721 349,721 350,721 351,721 351,721 352,721 352,721 353,720 356,720 357,720 357,720 358,720 358,720 359,720 361,720 362,720 363,720 363,720 364,720 364,720 365,720 365,720 366,720 366,720 367,720 367,720 368,719 368,719 369,719 370,719 370,719 371,719 371,719 372,719 373,718 373,718 374,718 374,718 375,718 375,718 377,717 378,717 379,717 379,717 380,717 380,717 381,717 382,716 382,716 383,716 384,716 386,716 387,715 387,715 388,715 388,714 390,714 391,714 392,714 392,714 393,713 394,713 394,713 395,713 395,713 396,713 396,713 397,712 397,712 398,712 399,712 400,712 401,712 401,711 402,711 402,711 403,711 403,711 404,711 404,711 406,711 406,710 407,710 408,710 408,710 409,710 409,709 410,709 410,709 411,709 411,709 412,709 413,709 414,708 415,689 415,689 416,689 417,688 417,688 418,688 418,688 420,688 420,687 421,687 421,687 422,687 422,686 423,686 423,686 424,686 424,685 425,685 425,685 426,685 426,684 427,684 428,684 428,684 429,684 429,684 430,684 430,683 431,683 431,683 432,682 432,682 433,682 433,681 434,681 435,681 436,680 436,680 437,676 438,676 438,676 439,676 440,676 440,676 441,676 442,676 442,676 443,676 444,676 445,676 445,675 446,675 446,675 447,675 447,675 448,675 449,674 449,674 450,674 450,674 451,673 452,673 452,673 453,673 453,673 454,673 454,672 455,672 456,672 456,672 457,672 458,672 458,671 459,671 460,671 460,671 461,670 461,670 462,670 462,670 463,670 464,670 464,670 465,670 465,669 466,668 467,668 467,668 468,668 468,668 469,667 469,667 470,667 471,667 471,667 472,667 472,667 473,666 473,666 474,666 474,666 475,666 475,666 476,665 476,665 477,665 478,665 478,665 479,665 479,665 480,665 481,664 481,664 482,664 482,664 483,663 483,663 484,663 485,663 485,662 486,662 486,662 487,662 487,661 488,661 488,661 489,660 489,660 490,659 490,659 491,658 492,658 492,658 493,658 493,657 494,657 494,657 495,657 495,656 496,656 496,656 497,655 497,655 498,655 498,654 499,654 500,654 500,653 501,653 501,652 502,652 502,652 503,652 503,652 504,652 504,652 505,651 505,651 506,651 507,651 507,650 508,650 508,650 509,649 509,649 510,648 510,648 511,648 511,648 512,648 512,648 513,647 514,647 514,647 515,647 515,647 516,646 516,646 517,646 517,645 518,644 518,644 519,643 520,643 521,643 521,643 522,643 522,642 523,642 523,642 524,641 524,641 525,640 525,640 526,640 526,639 527,639 528,639 528,639 529,639 529,638 530,638 530,637 531,637 531,637 532,637 532,637 533,636 533,636 534,636 534,635 535,635 536,635 536,634 537,634 537,634 538,634 538,634 539,634 539,633 540,633 540,633 541,633 541,632 542,632 543,632 543,631 544,630 544,630 545,630 545,630 546,630 546,630 547,629 547,629 548,629 548,629 549,629 550,629 550,628 551,628 551,628 552,628 552,627 553,626 553,626 554,626 554,626 555,626 555,625 556,625 557,624 557,624 558,624 558,623 559,623 559,623 560,623 560,623 561,622 561,622 562,621 562,621 563,620 564,620 564,619 565,619 565,619 566,619 566,618 567,618 567,618 568,618 568,617 569,617 569,617 570,617 570,617 571,617 572,617 572,616 573,616 573,616 574,616 574,616 575,615 575,615 576,614 576,614 577,614 577,614 578,614 579,613 579,613 580,613 580,612 581,611 581,611 582,611 582,611 583,610 583,610 584,609 584,609 585,609 586,609 586,608 587,608 587,608 588,608 588,608 589,607 589,607 590,607 590,607 591,607 591,606 592,606 593,606 593,606 594,605 594,605 595,605 595,604 596,604 596,604 597,604 597,603 598,603 598,603 599,603 600,603 600,602 601,603 601,602 602,602 602,601 603,601 603,601 604,600 604,600 605,600 605,600 606,600 606,600 607,600 608,599 608,599 609,599 609,599 610,598 610,598 611,598 611,598 612,597 612,597 613,596 613,596 614,596 615,595 615,595 616,595 616,595 617,595 617,595 618,595 618,594 619,594 619,591 620,590 620,589 621,589 622,589 622,589 623,589 623,589 624,588 624,588 625,587 625,587 626,587 626,586 627,586 627,585 628,585 629,584 629,584 630,584 630,584 631,584 631,584 632,583 632,583 633,583 633,582 634,582 634,582 635,582 636,581 636,581 637,580 637,580 638,579 638,579 639,578 639,578 640,578 640,577 641,577 641,577 642,577 643,577 643,577 644,576 644,576 645,576 645,576 646,575 646,575 647,575 647,574 648,574 648,574 649,574 649,574 650,574 651,573 651,573 652,573 652,572 653,572 653,573 654,572 654,572 655,571 655,571 656,571 656,571 657,570 658,570 658,570 659,570 659,569 660,569 660,568 661,567 661,567 662,567 662,566 663,566 663,565 664,566 665,565 665,565 666,565 666,564 667,564 667,563 668,563 668,563 669,563 669,563 670,563 670,562 671,562 672,562 672,562 673,561 673,561 674,561 674,561 675,561 675,561 676,561 676,560 677,560 677,560 678,560 679,559 679,559 680,558 680,558 681,558 681,558 682,557 682,557 683,557 683,556 684,556 684,555 685,555 685,554 686,555 687,555 687,554 688,550 688,550 689,549 689,549 690,548 690,548 691,547 691,547 692,547 692,546 693,545 694,545 694,544 695,543 695,543 696,542 696,542 697,541 697,541 698,540 698,540 699,540 699,540 700,540 701,539 701,539 702,538 702,538 703,537 703,537 704,536 704,536 705,536 705,536 706,535 706,535 707,534 708,534 708,533 709,532 709,532 710,532 710,531 711,531 711,531 712,531 712,530 713,530 713,530 714,529 715,529 715,530 716,529 716,529 717,528 717,527 718,527 718,526 719,526 719,526 720,525 720,524 721,524 721,524 722,524 723,524 723,524 724,523 724,523 725,522 725,522 726,522 726,521 727,521 727,522 728,521 728,520 729,520 730,520 730,520 731,519 731,519 732,519 732,519 733,518 733,518 734,518 734,518 735,518 735,518 736,518 737,518 737,517 738,517 738,517 739,516 739,516 740,515 740,515 741,514 741,514 742,514 742,514 743,514 744,513 744,513 745,513 745,512 746,512 746,512 747,511 747,511 748,511 748,510 749,510 749,510 750,509 751,509 751,509 752,508 752,508 753,508 753,507 754,507 754,507 755,507 755,506 756,506 756,506 757,505 757,505 758,504 759,504 759,504 760,503 760,503 761,503 761,501 762,501 762,501 763,501 763,500 764,500 764,500 765,499 766,499 766,498 767,498 767,498 768,498 768,497 769,496 769,496 770,496 770,495 771,495 771,495 772,494 773,494 773,493 774,493 774,492 775,492 775,492 776,492 776,491 777,491 777,491 778,491 778,490 779,490 780,489 780,489 781,489 781,488 782,488 782,488 783,488 783,488 784,488 784,488 785,487 785,487 786,487 787,486 787,486 788,486 788,486 789,486 789,485 790,485 790,484 791,484 791,484 792,484 792,483 793,483 793,483 794,483 795,483 795,483 796,483 796,482 797,482 797,481 798,481 798,481 799,481 799,481 800,480 800,480 801,480 802,480 802,479 803,479 803,479 804,478 804,478 805,477 805,477 806,476 806,475 807,475 807,475 808,474 809,474 809,474 810,474 810,474 811,473 811,472 812,472 812,472 813,471 813,470 814,470 814,470 815,469 815,469 816,468 816,468 817,467 817,467 818,466 818,465 819,465 819,465 820,464 820,464 821,463 821,463 822,462 823,462 823,462 824,462 824,462 825,456 825,455 826,455 826,454 827,454 827,454 828,453 828,453 829,452 829,451 830,451 831,450 831,450 832,450 832,449 833,449 833,448 834,448 834,447 835,446 835,446 836,446 836,446 837,445 838,445 838,444 839,443 839,443 840,443 840,442 841,441 841,441 842,441 842,440 843,440 843,439 844,439 845,438 845,438 846,438 846,437 847,437 847,436 848,436 848,436 849,436 849,435 850,435 850,435 851,435 852,434 852,434 853,434 853,433 854,432 854,432 855,431 855,431 856,431 856,430 857,430 857,430 858,430 859,430 859,429 860,429 860,428 861,428 861,428 862,427 862,427 863,427 863,426 864,426 864,425 865,425 865,425 866,425 867,424 867,423 868,422 868,421 869,420 869,420 870,419 870,418 871,416 871,416 872,416 872,416 873,415 874,415 874,414 875,414 875,414 876,413 876,413 877,412 877,412 878,412 878,412 879,410 879,409 880,409 881,409 881,408 882,408 882,407 883,407 883,407 884,406 884,406 885,405 885,405 886,405 886,404 887,403 888,403 888,403 889,403 889,402 890,401 890,401 891,401 891,400 892,399 892,399 893,399 893,399 894,398 895,397 895,397 896,397 896,397 897,397 897,396 898,395 898,395 899,394 899,394 900,393 900,393 901,392 901,391 902,391 903,391 903,390 904,390 904,390 905,389 905,388 906,389 906,388 907,387 907,387 908,387 908,386 909,386 910,385 910,385 911,384 911,383 912,383 912,382 913,381 913,380 914,380 914,379 915,379 915,379 916,379 917,378 917,378 918,377 918,376 919,376 919,375 920,375 920,375 921,374 921,374 922,374 922,373 923,372 924,372 924,372 925,371 925,371 926,371 926,370 927,369 927,369 928,368 928,368 929,366 929,366 930,366 931,365 931,364 932,364 932,363 933,363 933,362 934,361 934,361 935,361 935,361 936,360 936,360 937,360 937,359 938,359 939,359 939,359 940,358 940,357 941,356 941,356 942,355 942,355 943,354 943,353 944,353 944,352 945,352 946,352 946,351 947,350 947,349 948,349 948,348 949,347 949,347 950,346 950,346 951,345 951,345 952,344 953,344 953,343 954,343 954,342 955,341 955,341 956,341 956,340 957,340 957,339 958,339 958,338 959,338 960,338 960,338 961,336 961,336 962,335 962,335 963,334 963,333 964,333 964,333 965,333 965,333 966,333 967,327 967,327 968,327 968,326 969,325 969,325 970,324 970,323 971,323 971,322 972,322 972,321 973,320 973,320 974,319 975,318 975,318 976,317 976,317 977,316 977,316 978,316 978,315 979,314 979,314 980,314 980,313 981,313 982,312 982,312 983,312 983,311 984,311 984,310 985,310 985,309 986,309 986,309 987,308 987,307 988,306 989,305 989,305 990,304 990,304 991,304 991,304 992,303 992,302 993,302 993,302 994,301 994,301 995,300 996,300 996,300 997,300 997,299 998,299 998,299 999,298 999,298 1000,298 1000,297 1001,296 1001,296 1002,295 1003,294 1003,293 1004,293 1004,293 1005,293 1005,292 1006,292 1006,291 1007,290 1007,289 1008,289 1008,289 1009,288 1009,288 1010,288 1011,287 1011,287 1012,286 1012,286 1013,286 1013,285 1014,285 1014,285 1015,284 1015,284 1016,283 1016,283 1017,283 1018,283 1018,282 1019,280 1019,280 1020,280 1020,279 1021,279 1021,279 1022,278 1022,278 1022,278 1023,277 1023,277 1024,277 1025,276 1025,276 1026,276 1026,275 1027,275 1027,274 1028,273 1028,273 1029,273 1029,272 1030,272 1030,272 1031,271 1032,271 1032,270 1033,270 1033,269 1034,269 1034,268 1035,267 1035,267 1036,266 1036,265 1037,265 1037,264 1038,264 1039,262 1039,262 1040,262 1040,261 1041,260 1041,260 1042,259 1042,259 1043,259 1043,258 1044,258 1044,257 1045,256 1045,255 1046,255 1047,255 1047,255 1048,254 1048,254 1049,254 1049,254 1050,254 1050,253 1051,252 1051,252 1052,252 1052,251 1053,250 1054,250 1054,250 1055,250 1055,250 1056,249 1056,249 1057,249 1057,249 1058,248 1058,247 1059,245 1059,245 1060,244 1061,243 1061,243 1062,242 1062,241 1063,241 1063,241 1064,240 1064,240 1065,239 1065,238 1066,238 1066,237 1067,237 1068,235 1068,235 1069,235 1069,233 1070,232 1070,232 1071,231 1071,232 1072,231 1072,231 1073,230 1073,228 1074,228 1075,228 1075,227 1076,227 1076,226 1077,225 1077,224 1078,223 1078,223 1079,222 1079,222 1080,222 1080,221 1081,220 1081,220 1082,219 1083,218 1083,217 1084,216 1084,215 1085,215 1085,214 1086,213 1086,213 1087,211 1087,210 1088,210 1088,209 1089,209 1090,209 1090,207 1091,207 1091,207 1092,206 1092,205 1093,204 1093,204 1094,203 1094,202 1095,202 1095,201 1096,201 1097,199 1097,199 1098,199 1098,199 1098,199 1099,199 1099,198 1099,197 1100,197 1100,196 1100,196 1100,196 1101,195 1101,195 1101,195 1102,195 1102,194 1102,194 1102,194 1103,194 1103,192 1104,192 1104,191 1104,191 1104,190 1105,190 1105,190 1105,190 1105,189 1106,189 1106,188 1106,188 1106,187 1107,186 1107,186 1107,186 1108,185 1108,185 1108,184 1109,184 1109,184 1109,184 1109,184 1110,184 1110,184 1111,184 1111,183 1111,183 1111,183 1112,183 1112,183 1112,181 1113,181 1113,181 1113,181 1113,180 1114,180 1114,179 1114,179 1114,179 1115,179 1115,178 1115,178 1115,178 1116,178 1116,177 1116,177 1116,175 1117,175 1117,175 1117,174 1118,174 1118,174 1119,174 1119,174 1119,174 1119,174 1120,174 1120,173 1120,173 1120,173 1121,173 1121,171 1121,171 1121,171 1122,171 1122,170 1122,170 1122,169 1123,169 1123,169 1123,169 1124,168 1124,168 1124,168 1125,168 1125,168 1126,168 1126,166 1126,166 1126,166 1127,166 1127,165 1127,165 1127,164 1128,164 1128,163 1128,163 1128,163 1129,163 1129,162 1129,161 1130,161 1130,160 1130,160 1130,159 1131,159 1131,158 1131,158 1131,158 1132,158 1132,156 1133,156 1133,156 1133,155 1134,155 1134,155 1134,155 1134,153 1135,153 1135,153 1135,153 1135,153 1136,153 1136,151 1136,151 1136,151 1137,151 1137,150 1137,150 1137,150 1138,150 1138,149 1138,149 1138,148 1139,148 1139,147 1140,147 1140,147 1140,147 1140,146 1141,146 1141,145 1141,145 1141,144 1142,144 1142,143 1142,143 1142,142 1143,142 1143,142 1143,142 1144,142 1144,141 1144,141 1144,138 1145,138 1145,137 1145,137 1145,136 1146,136 1146,135 1147,135 1147,135 1147,135 1147,134 1148,134 1148,134 1148,133 1149,133 1149,132 1149,132 1149,131 1150,131 1150,130 1150,130 1150,129 1151,129 1151,129 1151,128 1152,127 1152,127 1152,127 1153,126 1153,126 1153,126 1154,126 1154,124 1155,124 1155,123 1155,123 1155,122 1156,122 1156,122 1156,122 1156,121 1157,121 1157,121 1157,121 1157,120 1158,120 1158,119 1158,119 1158,118 1159,118 1159,118 1159,118 1160,118 1160,117 1160,117 1160,116 1161,116 1161,115 1162,115 1162,115 1162,115 1162,115 1163,115 1163,113 1163,113 1163,113 1164,113 1164,112 1164,112 1164,111 1165,111 1165,110 1165,110 1165,110 1166,110 1166,102 1166,102 1166,101 1167,101 1167,100 1167,100 1168,100 1168,100 1169,100 1169,99 1169,99 1169,98 1170,98 1170,98 1170,98 1170,97 1171,97 1171,95 1171,95 1171,95 1172,95 1172,95 1172,94 1173,94 1173,94 1173,94 1173,93 1174,93 1174,92 1174,92 1174,91 1175,91 1175,91 1176,91 1176,90 1176,90 1176,90 1177,90 1177,88 1177,88 1177,88 1178,88 1178,87 1178,87 1178,87 1179,87 1179,85 1179,85 1179,85 1180,85 1180,85 1180,85 1180,84 1181,84 1181,83 1181,83 1181,82 1182,82 1183,82 1183,82 1183,82 1183,81 1184,81 1184,80 1184,80 1184,80 1185,80 1185,80 1185,80 1185,79 1186,79 1186,79 1186,79 1186,78 1187,78 1187,77 1187,77 1187,77 1188,77 1188,76 1188,76 1188,75 1189,75 1189,75 1190,75 "/>
<polyline fill="none" opacity="1" stroke="#19E66B" stroke-width="2" points="60,738 60,738 61,738 69,738 75,738 76,737 82,737 85,737 89,736 93,736 95,736 96,736 97,736 100,736 104,735 110,735 111,735 118,735 121,735 122,735 126,735 137,734 141,734 143,734 143,734 145,734 147,733 149,733 150,733 151,733 151,733 154,733 155,733 156,733 156,733 157,733 157,733 158,733 158,733 159,733 160,732 161,732 161,732 162,732 162,732 163,732 163,732 164,732 164,732 165,732 165,732 166,732 166,732 167,732 168,732 169,732 170,732 170,732 171,732 171,732 172,732 172,731 173,731 174,731 174,731 175,731 176,731 176,731 177,731 178,731 178,730 179,730 179,730 180,730 181,730 181,730 182,730 183,730 183,730 184,730 184,730 185,730 185,730 186,730 188,730 189,730 190,730 191,730 192,730 192,730 193,730 193,730 194,729 194,729 195,729 197,729 198,729 198,729 199,729 199,729 200,729 201,729 201,729 202,729 204,729 205,729 205,729 206,729 206,729 207,729 208,729 208,729 209,729 209,729 210,729 210,729 212,729 212,728 213,728 213,728 214,728 215,728 215,728 216,728 216,728 217,728 217,728 218,728 219,728 220,728 221,727 222,727 223,727 224,727 224,727 225,727 226,727 226,727 227,727 227,727 228,727 228,727 229,727 229,727 230,727 230,727 232,727 233,727 233,727 234,726 234,726 235,726 235,726 236,726 236,726 237,726 237,726 238,726 239,726 240,726 240,726 241,726 242,726 242,726 243,726 243,726 244,726 244,726 245,726 246,726 246,726 247,726 248,726 248,726 249,726 251,726 251,726 252,726 252,725 253,725 253,725 255,725 255,725 256,725 257,725 257,725 258,725 258,724 259,724 259,724 260,724 260,724 261,724 262,724 262,724 263,724 264,724 264,724 265,724 266,724 266,724 267,723 267,723 268,723 269,723 269,723 270,723 270,723 271,723 271,723 272,723 273,723 273,723 274,723 274,723 275,723 276,723 276,723 277,723 277,723 278,723 278,723 279,723 279,723 280,723 280,723 281,723 281,723 282,723 282,722 283,722 284,722 284,722 285,722 285,722 286,722 286,722 287,722 287,722 288,722 288,722 289,722 289,722 290,722 291,722 291,722 292,722 292,722 293,721 293,721 294,721 294,721 295,721 295,721 296,721 296,721 297,721 298,721 298,721 299,721 299,720 300,720 300,720 301,720 301,720 302,720 302,720 303,720 304,720 305,720 305,720 306,720 306,720 307,720 308,720 308,720 309,720 309,720 310,720 310,720 311,720 312,719 312,719 313,719 313,719 314,719 314,719 315,719 315,719 316,719 316,719 317,719 317,719 318,719 318,719 319,719 320,718 320,718 321,718 321,718 322,718 322,718 323,718 323,718 324,718 324,718 325,718 325,718 326,718 327,718 327,718 328,718 328,718 329,718 329,718 330,718 330,718 331,718 331,718 332,718 332,718 333,718 334,718 334,718 335,718 335,717 336,717 336,717 338,717 338,717 339,717 339,717 340,717 341,717 341,717 342,716 342,716 343,716 343,716 344,716 344,716 345,716 345,716 346,716 346,716 347,716 348,716 348,716 349,716 349,716 350,716 350,716 351,716 351,716 352,716 352,716 353,716 353,715 354,715 354,715 355,715 356,715 357,715 358,715 358,715 359,715 359,715 360,715 360,715 361,715 361,715 362,715 363,715 364,715 364,715 365,715 365,715 366,715 366,715 367,715 367,715 368,715 368,715 369,715 370,715 370,715 371,715 371,714 372,714 372,714 373,714 373,714 374,714 374,714 375,715 375,714 376,714 377,714 377,714 378,714 378,714 379,714 379,714 380,714 380,714 381,714 381,714 382,714 382,714 383,714 384,714 384,714 385,714 385,714 386,714 386,714 387,714 387,714 388,713 388,713 389,713 389,713 390,713 390,713 391,713 392,713 392,713 393,713 393,713 394,713 394,713 395,713 395,713 396,713 396,713 397,713 397,713 398,713 399,713 399,713 400,713 400,713 401,713 401,713 402,713 402,712 403,712 403,712 404,712 404,712 405,712 406,712 406,712 407,712 407,712 408,712 408,712 409,712 409,712 410,711 410,711 411,711 411,711 412,711 413,711 413,711 414,711 414,711 415,711 415,711 416,711 416,711 417,711 417,711 418,711 418,711 419,711 420,711 420,711 421,711 421,711 422,711 422,711 423,711 423,711 424,711 424,711 425,711 426,711 426,711 427,711 428,710 428,710 429,710 429,710 430,710 430,710 431,711 431,711 432,710 432,710 433,710 433,711 434,711 435,711 435,711 436,710 436,710 437,710 437,710 438,710 438,710 439,710 439,710 440,710 440,710 441,710 442,710 442,710 443,710 443,710 444,710 444,710 445,710 445,710 446,710 446,710 447,710 447,710 448,710 449,710 449,710 450,709 450,709 451,709 451,709 452,709 452,709 453,709 453,709 454,709 454,709 455,709 456,709 456,709 457,709 457,709 458,709 458,709 459,709 459,709 460,709 460,709 461,709 461,708 462,708 462,708 463,708 464,708 464,708 465,708 465,708 466,708 466,708 467,708 467,708 468,708 468,708 469,708 470,708 471,708 471,708 472,708 472,708 473,708 473,707 474,707 474,707 475,707 475,707 476,707 476,707 477,707 478,707 478,707 479,706 479,706 480,706 480,706 481,706 481,706 482,706 482,706 483,706 483,706 484,706 485,706 485,706 486,706 486,706 487,706 487,706 488,706 488,706 489,706 489,706 490,706 490,706 491,706 492,706 492,706 493,706 493,706 494,706 494,706 495,706 495,706 496,706 496,706 497,706 497,706 498,705 498,705 499,705 500,705 500,705 501,705 501,705 502,705 502,705 503,705 503,705 504,705 504,705 505,705 505,705 506,705 507,705 507,705 508,705 508,705 509,705 509,705 510,705 510,705 511,705 511,705 512,705 512,705 513,705 514,705 514,705 515,705 515,705 516,705 516,705 517,705 517,705 518,705 518,705 519,705 519,705 520,705 521,705 521,705 522,705 522,705 523,705 523,705 524,705 524,705 525,705 525,705 526,705 526,705 527,705 528,705 528,705 529,705 529,705 530,705 530,705 531,705 531,705 532,705 532,705 533,705 533,705 534,705 534,705 535,704 536,704 536,704 537,704 537,704 538,704 538,704 539,704 539,704 540,704 540,704 541,704 541,704 542,704 543,704 543,704 544,704 544,704 545,704 545,704 546,704 546,704 547,704 547,704 548,704 548,704 549,703 550,703 550,703 551,703 551,703 552,703 552,704 553,704 553,703 554,703 554,703 555,703 555,703 556,703 557,703 557,703 558,703 558,703 559,703 559,703 560,703 560,703 561,703 561,703 562,703 562,703 563,703 564,703 564,703 565,703 565,703 566,703 566,703 567,703 567,703 568,703 568,703 569,703 569,702 570,702 570,702 571,702 572,702 572,702 573,702 573,702 574,702 574,702 575,702 575,702 576,702 576,702 577,702 577,702 578,702 579,702 579,702 580,702 580,702 581,702 581,702 582,702 582,702 583,702 583,702 584,702 584,702 585,702 586,702 586,702 587,702 587,702 588,702 588,702 589,702 589,702 590,702 590,702 591,702 591,702 592,702 593,702 593,702 594,702 594,702 595,702 595,702 596,702 596,702 597,702 597,702 598,702 598,702 599,702 600,702 600,702 601,702 601,702 602,702 602,702 603,702 603,702 604,702 604,702 605,702 605,702 606,702 606,702 607,702 608,702 608,702 609,702 609,702 610,702 610,702 611,702 611,701 612,701 612,702 613,701 613,701 614,701 615,701 615,701 616,701 616,701 617,701 617,701 618,701 618,701 619,701 619,701 620,701 620,701 621,701 622,701 622,701 623,701 623,701 624,701 624,701 625,701 625,701 626,701 626,701 627,701 627,701 628,701 629,701 629,701 630,702 630,702 631,701 631,701 632,701 632,701 633,701 633,701 634,701 634,701 635,701 636,701 636,701 637,701 637,701 638,701 638,701 639,701 639,701 640,701 640,701 641,701 641,701 642,701 643,701 643,701 644,701 644,701 645,701 645,701 646,701 646,701 647,701 647,701 648,701 649,701 649,701 650,701 651,701 651,701 652,701 652,701 653,701 653,701 654,701 654,701 655,701 655,701 656,700 656,700 657,700 658,700 658,700 659,700 659,700 660,700 660,700 661,700 661,700 662,700 662,700 663,700 663,700 664,700 665,700 665,700 666,700 666,700 667,700 667,700 668,700 668,700 669,700 669,700 670,700 670,700 671,700 672,700 672,700 673,700 673,700 674,700 674,699 675,699 675,699 676,699 676,699 677,699 677,699 678,699 679,699 679,699 680,699 680,699 681,699 681,699 682,699 682,699 683,699 683,699 684,699 684,699 685,699 685,699 686,699 687,699 687,699 688,699 688,699 689,699 689,699 690,699 690,699 691,699 691,699 692,699 692,699 693,699 694,699 694,699 695,699 695,699 696,699 696,699 697,699 697,699 698,699 698,699 699,699 699,699 700,699 701,699 701,699 702,699 702,699 703,699 703,699 704,699 704,699 705,699 705,698 706,698 706,698 707,698 708,698 708,698 709,698 709,698 710,698 710,698 711,698 711,698 712,698 712,698 713,698 713,698 714,698 715,698 715,698 716,698 716,698 717,698 717,698 718,698 718,698 719,698 719,698 720,698 720,698 721,698 721,698 722,698 723,698 723,698 724,698 724,698 725,698 725,698 726,698 726,698 727,698 727,698 728,698 728,698 729,698 730,698 730,698 731,698 731,698 732,698 732,698 733,698 733,698 734,698 734,698 735,698 735,698 736,698 737,698 737,698 738,698 738,698 739,698 739,698 740,697 740,697 741,697 741,697 742,697 742,697 743,698 744,698 744,698 745,697 745,697 746,697 746,697 747,697 747,697 748,697 748,697 749,697 749,697 750,697 751,697 751,697 752,697 752,697 753,697 753,697 754,697 754,697 755,697 755,697 756,697 756,697 757,697 757,697 758,697 759,697 759,697 760,697 760,697 761,697 761,697 762,697 762,697 763,697 763,697 764,697 764,697 765,697 766,697 766,697 767,697 767,697 768,697 768,697 769,697 769,697 770,697 770,697 771,696 771,696 772,696 773,696 773,696 774,696 774,696 775,696 775,696 776,696 776,696 777,696 777,696 778,696 778,696 779,696 780,696 780,696 781,696 781,696 782,696 782,696 783,696 783,696 784,696 784,696 785,696 785,696 786,696 787,696 787,696 788,696 788,696 789,696 789,696 790,696 790,696 791,696 791,696 792,696 792,696 793,695 793,695 794,695 795,695 795,695 796,695 796,695 797,695 797,695 798,695 798,695 799,695 799,695 800,695 800,695 801,695 802,695 802,695 803,695 803,695 804,695 804,695 805,695 805,695 806,695 806,695 807,695 807,695 808,695 809,695 809,695 810,695 810,695 811,695 811,695 812,695 812,695 813,695 813,695 814,695 814,695 815,695 815,695 816,695 816,695 817,695 817,695 818,695 818,695 819,695 819,694 820,694 820,694 821,694 821,694 822,694 823,694 823,694 824,694 824,694 825,694 825,694 826,694 826,694 827,694 827,694 828,694 828,694 829,694 829,694 830,694 831,694 831,694 832,694 832,694 833,694 833,693 834,693 834,693 835,693 835,693 836,693 836,693 837,693 838,693 838,693 839,693 839,693 840,693 840,693 841,693 841,693 842,693 842,693 843,693 843,693 844,693 845,693 845,692 846,692 846,692 847,692 847,692 848,692 848,692 849,692 849,692 850,692 850,692 851,692 852,692 852,692 853,692 853,692 854,692 854,692 855,692 855,692 856,692 856,692 857,692 857,692 858,692 859,692 859,692 860,692 860,691 861,691 861,691 862,691 862,691 863,691 863,691 864,691 864,691 865,691 865,691 866,691 867,691 867,691 868,691 868,691 869,691 869,691 870,691 870,691 871,691 871,691 872,691 872,691 873,691 874,691 874,691 875,691 875,691 876,691 876,691 877,691 877,691 878,691 878,691 879,691 879,691 880,691 881,691 881,691 882,691 882,691 883,691 883,691 884,691 884,691 885,691 885,691 886,691 886,691 887,691 888,691 888,691 889,691 889,691 890,691 890,691 891,691 891,691 892,691 892,691 893,691 893,691 894,691 895,691 895,691 896,691 896,691 897,691 897,691 898,691 898,691 899,691 899,691 900,691 900,691 901,691 901,691 902,691 903,691 903,691 904,691 904,691 905,691 905,691 906,691 906,690 907,690 907,690 908,690 908,691 909,691 910,691 910,690 911,690 911,690 912,690 912,690 913,690 913,690 914,690 914,690 915,690 915,690 916,690 917,690 917,690 918,690 918,690 919,690 919,690 920,690 920,690 921,690 921,690 922,690 922,690 923,690 924,690 924,690 925,690 925,690 926,690 926,690 927,690 927,690 928,690 928,690 929,690 929,690 930,690 931,690 931,690 932,690 932,690 933,690 933,690 934,690 934,690 935,690 935,690 936,690 936,690 937,690 937,690 938,690 939,690 939,690 940,690 940,690 941,690 941,690 942,690 942,690 943,690 943,690 944,690 944,690 945,690 946,690 946,690 947,690 947,690 948,690 948,690 949,690 949,690 950,690 950,690 951,690 951,690 952,690 953,690 953,690 954,690 954,690 955,690 955,690 956,690 956,690 957,690 957,690 958,690 958,690 959,690 960,690 960,690 961,690 961,690 962,690 962,690 963,690 963,690 964,690 964,690 965,690 965,690 966,690 967,690 967,690 968,690 968,690 969,690 969,690 970,690 970,690 971,690 971,690 972,690 972,690 973,690 973,690 974,690 975,690 975,690 976,690 976,690 977,690 977,690 978,690 978,690 979,690 979,690 980,690 980,690 981,690 982,690 982,690 983,690 983,690 984,690 984,690 985,690 985,690 986,690 986,690 987,690 987,690 988,690 989,690 989,690 990,690 990,690 991,690 991,690 992,689 992,689 993,689 993,689 994,689 994,689 995,689 996,689 996,689 997,689 997,689 998,689 998,689 999,689 999,689 1000,689 1000,689 1001,689 1001,689 1002,689 1003,689 1003,689 1004,689 1004,689 1005,689 1005,689 1006,689 1006,689 1007,689 1007,689 1008,689 1008,689 1009,689 1009,689 1010,689 1011,689 1011,689 1012,689 1012,689 1013,689 1013,689 1014,689 1014,689 1015,689 1015,689 1016,689 1016,689 1017,689 1018,689 1018,689 1019,689 1019,689 1020,689 1020,689 1021,689 1021,689 1022,689 1022,689 1022,689 1023,689 1023,689 1024,689 1025,689 1025,689 1026,689 1026,689 1027,689 1027,689 1028,689 1028,689 1029,689 1029,689 1030,689 1030,689 1031,689 1032,689 1032,689 1033,689 1033,689 1034,689 1034,689 1035,689 1035,689 1036,689 1036,689 1037,689 1037,689 1038,689 1039,689 1039,689 1040,689 1040,689 1041,690 1041,690 1042,690 1042,690 1043,690 1043,690 1044,690 1044,690 1045,690 1045,690 1046,690 1047,690 1047,690 1048,690 1048,690 1049,690 1049,690 1050,689 1050,689 1051,689 1051,689 1052,689 1052,689 1053,689 1054,689 1054,689 1055,689 1055,689 1056,689 1056,689 1057,689 1057,689 1058,689 1058,689 1059,689 1059,689 1060,689 1061,689 1061,689 1062,689 1062,689 1063,689 1063,689 1064,689 1064,689 1065,689 1065,689 1066,689 1066,689 1067,690 1068,690 1068,690 1069,689 1069,689 1070,689 1070,689 1071,689 1071,689 1072,689 1072,689 1073,689 1073,689 1074,689 1075,689 1075,689 1076,689 1076,689 1077,689 1077,689 1078,689 1078,689 1079,689 1079,689 1080,689 1080,689 1081,689 1081,689 1082,689 1083,689 1083,689 1084,689 1084,689 1085,689 1085,689 1086,689 1086,689 1087,689 1087,689 1088,689 1088,689 1089,689 1090,689 1090,689 1091,689 1091,689 1092,689 1092,689 1093,689 1093,689 1094,689 1094,689 1095,689 1095,689 1096,689 1097,689 1097,689 1098,689 1098,689 1098,689 1099,689 1099,689 1099,689 1100,689 1100,689 1100,689 1100,689 1101,689 1101,689 1101,689 1102,689 1102,689 1102,689 1102,689 1103,689 1103,689 1104,689 1104,689 1104,689 1104,689 1105,689 1105,689 1105,689 1105,689 1106,689 1106,689 1106,689 1106,689 1107,689 1107,689 1107,689 1108,689 1108,689 1108,689 1109,689 1109,689 1109,689 1109,689 1110,689 1110,689 1111,689 1111,689 1111,689 1111,689 1112,689 1112,689 1112,689 1113,689 1113,689 1113,689 1113,689 1114,689 1114,689 1114,689 1114,689 1115,689 1115,689 1115,689 1115,689 1116,689 1116,689 1116,689 1116,689 1117,689 1117,689 1117,689 1118,689 1118,689 1119,689 1119,689 1119,689 1119,689 1120,689 1120,689 1120,689 1120,689 1121,689 1121,689 1121,689 1121,689 1122,689 1122,689 1122,689 1122,689 1123,689 1123,689 1123,689 1124,689 1124,689 1124,689 1125,689 1125,689 1126,689 1126,689 1126,689 1126,689 1127,689 1127,689 1127,689 1127,689 1128,689 1128,689 1128,689 1128,689 1129,689 1129,689 1129,689 1130,689 1130,689 1130,689 1130,689 1131,689 1131,689 1131,689 1131,689 1132,689 1132,689 1133,689 1133,689 1133,689 1134,689 1134,689 1134,689 1134,689 1135,689 1135,689 1135,689 1135,689 1136,689 1136,689 1136,689 1136,689 1137,689 1137,689 1137,689 1137,689 1138,689 1138,689 1138,689 1138,689 1139,689 1139,689 1140,689 1140,689 1140,689 1140,689 1141,689 1141,689 1141,689 1141,689 1142,689 1142,689 1142,689 1142,689 1143,689 1143,689 1143,689 1144,689 1144,689 1144,689 1144,689 1145,689 1145,689 1145,689 1145,689 1146,689 1146,689 1147,689 1147,689 1147,689 1147,689 1148,689 1148,689 1148,689 1149,689 1149,689 1149,689 1149,689 1150,689 1150,689 1150,689 1150,689 1151,689 1151,689 1151,689 1152,689 1152,689 1152,689 1153,689 1153,689 1153,689 1154,689 1154,689 1155,689 1155,689 1155,689 1155,689 1156,689 1156,689 1156,689 1156,689 1157,689 1157,689 1157,689 1157,689 1158,689 1158,689 1158,689 1158,689 1159,689 1159,689 1159,689 1160,689 1160,689 1160,689 1160,689 1161,689 1161,689 1162,689 1162,689 1162,689 1162,689 1163,689 1163,689 1163,689 1163,689 1164,689 1164,689 1164,689 1164,689 1165,689 1165,689 1165,689 1165,689 1166,689 1166,689 1166,689 1166,689 1167,689 1167,689 1167,689 1168,689 1168,689 1169,689 1169,689 1169,689 1169,689 1170,689 1170,689 1170,689 1170,689 1171,689 1171,689 1171,689 1171,689 1172,689 1172,689 1172,689 1173,689 1173,689 1173,689 1173,689 1174,689 1174,689 1174,689 1174,689 1175,689 1175,689 1176,689 1176,689 1176,689 1176,689 1177,689 1177,689 1177,689 1177,689 1178,689 1178,689 1178,689 1178,689 1179,689 1179,689 1179,689 1179,689 1180,689 1180,689 1180,689 1180,689 1181,689 1181,689 1181,689 1181,689 1182,689 1183,689 1183,689 1183,689 1183,689 1184,689 1184,689 1184,689 1184,689 1185,689 1185,689 1185,689 1185,689 1186,689 1186,689 1186,689 1186,689 1187,689 1187,689 1187,689 1187,689 1188,689 1188,689 1188,689 1188,689 1189,689 1189,689 1190,689 "/>
<polyline fill="none" opacity="1" stroke="#196BE6" stroke-width="2" points="86,738 94,738 97,738 106,738 107,738 113,738 118,737 124,737 125,737 126,737 130,737 134,737 137,737 142,737 144,737 150,737 150,736 151,736 154,736 156,736 158,736 158,736 159,735 160,735 162,735 165,735 166,735 169,734 170,734 171,734 171,734 174,734 176,734 176,734 177,734 179,733 181,733 184,733 189,733 191,733 198,733 199,733 200,733 201,733 202,733 203,733 204,732 205,733 210,733 212,732 213,732 214,732 218,732 219,732 219,732 221,732 221,732 222,732 223,732 224,732 224,732 226,732 229,732 230,732 233,732 235,732 236,732 237,732 238,732 239,732 240,732 240,732 241,732 243,732 243,732 244,732 245,732 246,732 249,732 249,732 250,732 252,732 252,732 253,732 253,732 254,732 256,732 257,732 257,732 258,732 259,731 260,731 261,731 262,731 263,731 264,731 264,731 266,731 268,731 269,731 270,731 272,730 273,730 274,730 274,730 275,730 276,730 276,730 277,730 278,730 279,730 281,730 283,730 284,730 284,730 287,730 287,729 288,729 291,729 292,729 293,729 294,729 294,729 295,729 295,729 297,729 298,728 298,728 299,728 300,728 300,728 301,728 301,728 302,728 302,728 303,728 303,728 304,728 305,728 305,728 306,728 306,728 307,728 307,728 308,727 308,727 309,727 310,727 310,727 311,727 312,727 312,727 313,727 313,727 314,727 314,727 315,727 315,727 316,727 316,727 317,727 317,727 318,727 319,727 320,727 320,727 321,727 322,727 322,727 323,727 323,727 324,726 324,726 325,726 325,726 326,726 327,726 327,726 328,726 328,726 329,726 329,726 330,725 330,725 331,725 331,725 332,725 332,725 333,725 334,725 334,725 335,725 335,725 336,725 336,725 337,725 337,725 338,725 338,725 339,725 339,725 340,725 341,725 341,725 342,725 342,724 343,724 343,724 344,724 344,724 345,724 345,724 346,724 346,724 347,724 348,724 348,724 349,724 349,724 350,724 350,724 351,724 351,724 352,724 352,724 353,724 353,724 354,724 354,724 355,724 356,724 356,724 357,724 357,724 358,724 358,724 359,724 359,724 360,724 360,724 361,724 361,724 362,724 363,724 363,724 364,724 364,724 365,724 365,724 366,724 366,724 367,724 367,724 368,724 368,724 369,724 370,724 370,724 371,724 371,724 372,724 372,724 373,724 373,724 374,723 374,723 375,723 375,723 376,723 377,723 377,723 378,723 378,723 379,723 379,723 380,723 380,723 381,723 381,723 382,723 382,723 383,723 384,723 384,723 385,723 385,723 386,723 386,723 387,723 387,723 388,723 388,723 389,723 389,723 390,723 390,723 391,723 392,723 392,723 393,723 393,723 394,723 394,723 395,723 395,723 396,723 396,723 397,723 397,723 398,723 399,723 399,723 400,723 400,723 401,723 401,723 402,723 402,723 403,723 403,723 404,723 404,723 405,723 406,723 406,723 407,722 407,722 408,722 408,722 409,722 409,722 410,722 410,722 411,722 411,722 412,722 413,721 413,721 414,721 414,721 415,721 415,721 416,721 416,721 417,721 417,721 418,721 418,721 419,721 420,721 420,721 421,721 421,721 422,721 422,721 423,721 424,721 424,721 425,721 425,721 426,721 426,721 427,721 428,721 428,721 429,721 429,721 430,721 430,721 431,721 431,721 432,721 432,721 433,721 433,721 434,721 435,721 435,721 436,721 436,721 437,721 437,721 438,721 438,721 439,721 440,721 440,721 441,721 442,721 442,720 443,720 443,720 444,720 444,720 445,720 445,720 446,720 446,720 447,720 447,720 448,720 449,720 449,720 450,720 450,720 451,720 451,720 452,720 452,720 453,720 453,720 454,720 454,720 455,720 456,720 456,720 457,720 457,720 458,720 458,720 459,720 459,720 460,720 460,720 461,720 462,720 462,720 463,720 464,720 464,720 465,720 465,720 466,720 466,720 467,720 467,720 468,720 468,720 469,720 469,720 470,720 471,720 471,720 472,719 472,719 473,719 473,719 474,719 474,719 475,719 475,719 476,719 476,719 477,719 478,719 478,719 479,719 479,719 480,718 480,718 481,718 481,718 482,718 482,718 483,718 483,718 484,718 485,718 485,718 486,718 486,717 487,717 487,717 488,717 488,717 489,717 489,717 490,717 490,717 491,717 492,717 492,717 493,717 493,717 494,717 494,717 495,717 495,717 496,717 496,717 497,717 498,717 498,717 499,717 500,717 500,717 501,717 501,717 502,717 502,717 503,717 503,717 504,717 504,717 505,717 505,717 506,717 507,717 507,717 508,717 508,717 509,717 509,717 510,717 510,717 511,717 511,717 512,717 512,717 513,717 514,717 514,717 515,717 515,717 516,717 516,717 517,717 517,717 518,717 518,717 519,717 519,717 520,717 521,717 521,716 522,716 522,716 523,716 523,716 524,716 524,716 525,716 525,716 526,716 526,716 527,716 528,716 528,715 529,715 529,715 530,715 530,715 531,715 531,715 532,715 532,715 533,715 533,715 534,715 534,715 535,715 536,715 536,715 537,715 537,715 538,715 538,715 539,715 539,715 540,715 540,715 541,714 541,714 542,714 543,714 543,714 544,714 544,714 545,714 545,714 546,713 546,713 547,713 547,713 548,713 548,714 549,713 550,713 550,713 551,713 551,713 552,713 552,713 553,713 553,713 554,713 554,713 555,713 555,713 556,713 557,713 557,713 558,713 558,713 559,713 559,713 560,713 560,713 561,713 561,713 562,713 562,713 563,713 564,713 564,713 565,713 565,713 566,712 566,712 567,712 567,712 568,712 568,712 569,712 569,712 570,712 570,712 571,712 572,712 572,712 573,712 573,712 574,712 574,712 575,712 575,712 576,712 576,712 577,712 577,712 578,712 579,712 579,712 580,712 580,712 581,712 581,712 582,712 582,712 583,712 583,712 584,712 584,712 585,712 586,712 586,712 587,712 587,712 588,712 588,712 589,711 589,711 590,711 590,711 591,711 591,711 592,711 593,711 593,711 594,711 594,711 595,710 595,710 596,710 596,710 597,710 597,710 598,710 598,710 599,710 600,710 600,710 601,710 601,710 602,710 602,710 603,710 603,710 604,710 604,710 605,710 605,710 606,710 606,710 607,710 608,710 608,710 609,710 609,710 610,710 610,710 611,710 611,710 612,710 612,710 613,710 613,710 614,710 615,710 615,710 616,710 616,710 617,710 617,710 618,710 618,710 619,710 619,709 620,709 620,709 621,709 622,709 622,709 623,709 623,709 624,709 624,709 625,709 625,709 626,709 626,709 627,709 627,709 628,709 629,709 629,709 630,709 630,709 631,709 631,709 632,709 632,709 633,709 633,709 634,709 634,709 635,709 636,709 636,709 637,709 637,709 638,709 638,709 639,709 639,709 640,709 640,709 641,709 641,709 642,709 643,709 643,709 644,709 644,709 645,709 645,709 646,709 646,709 647,709 647,709 648,709 648,708 649,708 649,708 650,708 651,708 651,708 652,708 652,708 653,708 653,708 654,708 654,708 655,708 655,708 656,708 656,708 657,708 658,708 658,708 659,708 659,708 660,708 660,708 661,708 661,708 662,708 662,708 663,708 663,708 664,708 665,708 665,708 666,708 666,708 667,708 667,708 668,708 668,708 669,708 669,708 670,707 670,707 671,707 672,707 672,707 673,707 673,707 674,707 674,707 675,707 675,707 676,707 676,707 677,707 677,707 678,706 679,706 679,706 680,706 680,706 681,706 681,706 682,706 682,706 683,706 683,706 684,706 684,706 685,706 685,706 686,706 687,706 687,706 688,706 688,706 689,706 689,706 690,706 690,706 691,706 691,705 692,705 692,705 693,705 694,705 694,706 695,705 695,705 696,705 696,705 697,705 697,705 698,705 698,705 699,705 699,705 700,705 701,705 701,705 702,705 702,705 703,705 703,705 704,705 704,705 705,705 705,705 706,705 706,705 707,705 708,705 708,705 709,705 709,705 710,705 710,705 711,705 711,705 712,705 712,705 713,705 713,705 714,705 715,705 715,705 716,705 716,705 717,705 717,705 718,705 718,705 719,705 719,705 720,705 720,705 721,705 721,705 722,705 723,705 723,705 724,704 724,704 725,704 725,704 726,704 726,704 727,704 727,704 728,704 728,704 729,704 730,704 730,704 731,704 731,704 732,704 732,704 733,704 733,703 734,703 734,703 735,703 735,703 736,703 737,703 737,703 738,703 738,703 739,703 739,703 740,703 740,703 741,703 741,703 742,703 742,703 743,703 744,703 744,703 745,703 745,703 746,703 746,703 747,703 747,703 748,703 748,703 749,703 749,703 750,703 751,703 751,703 752,703 752,703 753,703 753,703 754,703 754,703 755,703 755,703 756,703 756,703 757,703 757,703 758,703 759,703 759,703 760,703 760,703 761,703 761,703 762,703 762,703 763,703 763,703 764,703 764,703 765,703 766,703 766,703 767,703 767,703 768,703 768,703 769,703 769,703 770,703 770,703 771,703 771,703 772,703 773,703 773,703 774,703 774,703 775,703 775,703 776,703 776,703 777,703 777,702 778,702 778,702 779,702 780,702 780,702 781,703 781,703 782,703 782,703 783,703 783,702 784,702 784,702 785,702 785,702 786,702 787,702 787,702 788,702 788,702 789,702 789,702 790,702 790,702 791,702 791,702 792,702 792,702 793,702 793,702 794,702 795,702 795,702 796,702 796,702 797,702 797,702 798,702 798,702 799,702 799,702 800,702 800,702 801,702 802,702 802,702 803,701 803,701 804,701 804,701 805,701 805,701 806,701 806,701 807,701 807,701 808,701 809,701 809,701 810,701 810,701 811,701 811,701 812,701 812,701 813,701 813,701 814,701 814,701 815,701 815,701 816,701 816,701 817,701 817,701 818,701 818,701 819,701 819,701 820,701 820,701 821,701 821,701 822,701 823,701 823,701 824,701 824,701 825,701 825,701 826,700 826,700 827,700 827,700 828,700 828,700 829,700 829,700 830,700 831,700 831,700 832,700 832,700 833,700 833,700 834,700 834,700 835,700 835,699 836,699 836,699 837,699 838,699 838,699 839,699 839,699 840,699 840,699 841,699 841,699 842,699 842,699 843,699 843,699 844,699 845,699 845,699 846,699 846,699 847,699 847,699 848,699 848,699 849,699 849,699 850,699 850,699 851,699 852,699 852,699 853,699 853,699 854,699 854,699 855,699 855,699 856,699 856,699 857,698 857,698 858,698 859,698 859,698 860,698 860,698 861,698 861,698 862,698 862,698 863,698 863,698 864,698 864,698 865,698 865,698 866,698 867,698 867,698 868,698 868,698 869,698 869,698 870,698 870,698 871,698 871,698 872,698 872,698 873,698 874,698 874,698 875,698 875,698 876,698 876,698 877,698 877,698 878,698 878,698 879,698 879,698 880,698 881,698 881,698 882,698 882,698 883,698 883,698 884,698 884,698 885,698 885,698 886,697 886,698 887,698 888,698 888,697 889,697 889,697 890,697 890,697 891,697 891,697 892,697 892,697 893,697 893,697 894,697 895,697 895,697 896,697 896,697 897,697 897,697 898,697 898,697 899,697 899,697 900,697 900,697 901,697 901,696 902,696 903,696 903,696 904,696 904,696 905,696 905,696 906,696 906,696 907,696 907,696 908,696 908,696 909,696 910,696 910,696 911,696 911,696 912,696 912,696 913,696 913,696 914,696 914,696 915,696 915,696 916,696 917,696 917,696 918,696 918,696 919,696 919,696 920,696 920,696 921,695 921,695 922,695 922,695 923,695 924,695 924,695 925,695 925,695 926,695 926,695 927,695 927,695 928,695 928,695 929,695 929,695 930,695 931,695 931,695 932,695 932,695 933,695 933,695 934,694 934,694 935,694 935,694 936,694 936,694 937,694 937,694 938,694 939,694 939,694 940,694 940,694 941,694 941,694 942,694 942,694 943,694 943,694 944,694 944,694 945,694 946,694 946,694 947,694 947,694 948,694 948,694 949,694 949,694 950,694 950,694 951,694 951,694 952,694 953,693 953,693 954,693 954,693 955,693 955,693 956,693 956,693 957,693 957,693 958,693 958,693 959,693 960,693 960,693 961,693 961,693 962,693 962,693 963,693 963,693 964,693 964,693 965,693 965,693 966,693 967,693 967,693 968,693 968,693 969,693 969,693 970,693 970,693 971,693 971,693 972,693 972,693 973,693 973,693 974,693 975,693 975,693 976,693 976,693 977,693 977,693 978,693 978,693 979,693 979,693 980,693 980,693 981,693 982,693 982,693 983,693 983,693 984,693 984,693 985,693 985,693 986,693 986,693 987,693 987,693 988,693 989,692 989,692 990,692 990,692 991,692 991,692 992,692 992,692 993,692 993,692 994,692 994,692 995,692 996,692 996,692 997,692 997,692 998,692 998,692 999,692 999,692 1000,692 1000,692 1001,692 1001,692 1002,692 1003,692 1003,692 1004,692 1004,691 1005,691 1005,691 1006,691 1006,691 1007,691 1007,691 1008,691 1008,691 1009,691 1009,691 1010,691 1011,691 1011,691 1012,691 1012,691 1013,691 1013,691 1014,691 1014,691 1015,691 1015,691 1016,691 1016,691 1017,691 1018,691 1018,691 1019,691 1019,691 1020,691 1020,691 1021,691 1021,691 1022,691 1022,691 1022,691 1023,691 1023,691 1024,691 1025,691 1025,690 1026,690 1026,690 1027,690 1027,690 1028,690 1028,690 1029,690 1029,690 1030,690 1030,690 1031,690 1032,690 1032,690 1033,690 1033,690 1034,690 1034,689 1035,689 1035,689 1036,689 1036,689 1037,689 1037,689 1038,689 1039,689 1039,689 1040,689 1040,689 1041,689 1041,689 1042,689 1042,689 1043,689 1043,689 1044,689 1044,689 1045,689 1045,689 1046,689 1047,689 1047,689 1048,689 1048,689 1049,689 1049,689 1050,689 1050,689 1051,689 1051,689 1052,689 1052,689 1053,689 1054,689 1054,689 1055,689 1055,689 1056,689 1056,689 1057,689 1057,689 1058,689 1058,689 1059,689 1059,689 1060,689 1061,689 1061,689 1062,689 1062,689 1063,688 1063,688 1064,688 1064,688 1065,689 1065,689 1066,689 1066,689 1067,689 1068,689 1068,689 1069,689 1069,689 1070,689 1070,689 1071,689 1071,689 1072,689 1072,689 1073,689 1073,689 1074,689 1075,688 1075,689 1076,689 1076,689 1077,689 1077,689 1078,689 1078,689 1079,689 1079,689 1080,689 1080,689 1081,689 1081,689 1082,689 1083,689 1083,688 1084,688 1084,688 1085,688 1085,688 1086,688 1086,688 1087,688 1087,688 1088,688 1088,688 1089,688 1090,688 1090,688 1091,688 1091,688 1092,688 1092,688 1093,688 1093,688 1094,688 1094,688 1095,688 1095,688 1096,688 1097,688 1097,687 1098,687 1098,687 1098,687 1099,687 1099,687 1099,687 1100,687 1100,688 1100,688 1100,688 1101,688 1101,688 1101,688 1102,688 1102,688 1102,688 1102,688 1103,688 1103,688 1104,688 1104,688 1104,688 1104,688 1105,688 1105,688 1105,688 1105,688 1106,688 1106,688 1106,688 1106,688 1107,687 1107,687 1107,687 1108,687 1108,687 1108,687 1109,687 1109,687 1109,687 1109,687 1110,687 1110,687 1111,687 1111,687 1111,687 1111,687 1112,687 1112,687 1112,687 1113,687 1113,687 1113,687 1113,687 1114,687 1114,687 1114,687 1114,687 1115,687 1115,687 1115,687 1115,687 1116,687 1116,687 1116,687 1116,687 1117,687 1117,687 1117,687 1118,687 1118,687 1119,687 1119,687 1119,687 1119,687 1120,687 1120,687 1120,687 1120,687 1121,687 1121,687 1121,687 1121,687 1122,687 1122,687 1122,687 1122,687 1123,687 1123,686 1123,686 1124,686 1124,686 1124,686 1125,686 1125,686 1126,686 1126,686 1126,686 1126,686 1127,686 1127,686 1127,686 1127,686 1128,686 1128,686 1128,686 1128,686 1129,686 1129,686 1129,686 1130,686 1130,686 1130,686 1130,686 1131,686 1131,686 1131,686 1131,686 1132,686 1132,686 1133,686 1133,686 1133,686 1134,686 1134,686 1134,686 1134,686 1135,686 1135,686 1135,686 1135,686 1136,686 1136,686 1136,686 1136,686 1137,686 1137,686 1137,686 1137,686 1138,686 1138,686 1138,686 1138,686 1139,686 1139,686 1140,686 1140,686 1140,686 1140,686 1141,686 1141,686 1141,686 1141,686 1142,686 1142,686 1142,686 1142,685 1143,685 1143,685 1143,685 1144,685 1144,685 1144,685 1144,676 1145,676 1145,676 1145,676 1145,676 1146,676 1146,676 1147,676 1147,676 1147,676 1147,676 1148,676 1148,675 1148,675 1149,675 1149,675 1149,675 1149,675 1150,675 1150,675 1150,675 1150,674 1151,674 1151,674 1151,674 1152,674 1152,674 1152,674 1153,674 1153,674 1153,674 1154,674 1154,674 1155,674 1155,674 1155,674 1155,674 1156,674 1156,674 1156,674 1156,674 1157,674 1157,674 1157,674 1157,674 1158,674 1158,674 1158,674 1158,674 1159,674 1159,674 1159,674 1160,674 1160,674 1160,674 1160,674 1161,674 1161,674 1162,674 1162,674 1162,674 1162,674 1163,674 1163,674 1163,674 1163,674 1164,674 1164,674 1164,674 1164,674 1165,674 1165,674 1165,674 1165,674 1166,674 1166,674 1166,674 1166,674 1167,674 1167,674 1167,674 1168,674 1168,674 1169,674 1169,674 1169,674 1169,674 1170,674 1170,674 1170,674 1170,674 1171,674 1171,674 1171,674 1171,673 1172,673 1172,673 1172,673 1173,673 1173,673 1173,673 1173,673 1174,673 1174,673 1174,673 1174,673 1175,673 1175,673 1176,673 1176,673 1176,673 1176,673 1177,673 1177,673 1177,673 1177,673 1178,673 1178,673 1178,673 1178,673 1179,673 1179,673 1179,673 1179,673 1180,673 1180,673 1180,673 1180,673 1181,673 1181,673 1181,673 1181,673 1182,673 1183,673 1183,673 1183,673 1183,673 1184,673 1184,673 1184,673 1184,673 1185,673 1185,673 1185,673 1185,673 1186,673 1186,673 1186,673 1186,673 1187,673 1187,673 1187,673 1187,673 1188,673 1188,673 1188,673 1188,673 1189,673 1189,673 1190,673 "/>
<polyline fill="none" opacity="1" stroke="#BD19E6" stroke-width="2" points="509,738 510,738 531,738 548,738 567,738 568,738 576,737 588,737 593,737 597,737 604,736 607,736 609,736 611,736 617,736 632,735 633,735 638,735 645,735 651,735 652,734 653,734 654,734 657,734 658,733 662,733 662,733 666,733 667,733 667,733 668,733 668,733 672,733 672,732 673,732 673,732 676,732 678,732 679,732 679,732 681,731 682,731 683,731 684,731 684,731 685,731 686,730 687,730 687,730 688,730 689,730 690,730 692,730 694,730 694,730 697,729 697,729 699,729 700,729 702,729 705,728 705,728 706,728 709,728 711,728 712,727 712,727 717,727 717,726 718,726 718,726 721,726 722,725 723,725 724,725 724,725 725,724 725,724 726,724 727,724 727,724 728,724 728,723 729,723 730,723 731,723 732,723 733,722 733,722 734,721 735,721 735,721 736,721 737,720 737,720 738,720 738,720 739,720 739,720 740,720 740,720 741,720 741,719 742,719 742,719 743,718 744,718 744,718 746,717 746,717 747,717 748,717 748,717 749,717 749,716 751,716 752,715 752,715 753,715 753,715 754,715 754,715 755,715 755,715 756,714 756,714 757,714 757,714 758,714 759,714 759,714 760,714 760,714 761,714 761,714 762,714 762,713 763,713 763,713 764,713 764,713 765,713 766,713 766,713 767,713 767,713 768,713 769,712 769,712 770,712 770,712 771,712 771,712 772,712 773,712 773,711 774,711 775,711 775,711 776,711 776,711 777,711 777,711 778,710 778,710 779,710 780,710 780,710 781,710 781,710 782,709 782,709 783,709 783,709 784,709 784,709 785,709 785,709 787,709 787,709 788,708 788,708 789,708 789,708 790,708 790,708 791,708 791,708 792,708 792,708 793,707 793,707 794,707 795,706 795,706 796,705 796,705 797,705 797,705 798,705 798,705 799,705 799,705 800,704 800,704 802,704 802,704 803,704 803,704 804,704 804,703 805,703 806,703 806,702 807,702 808,702 809,702 809,702 810,702 810,702 811,702 812,702 812,702 813,702 813,702 814,701 814,701 815,701 815,701 816,701 816,701 817,701 817,700 818,700 819,700 819,700 820,699 820,699 821,699 821,699 822,698 823,698 823,698 824,698 824,698 825,697 825,697 826,697 826,697 827,696 827,696 828,696 828,696 829,696 829,696 830,695 831,695 831,695 832,695 832,694 833,694 833,694 834,694 834,694 835,694 835,693 836,693 836,693 837,693 838,693 838,692 839,692 839,692 840,692 840,691 841,691 841,691 842,691 842,691 843,691 843,691 844,691 845,691 846,691 846,691 847,691 847,691 848,691 848,691 849,691 849,691 850,691 850,690 851,690 852,690 852,690 853,690 853,690 854,690 854,690 855,689 855,689 856,689 856,689 857,689 857,688 858,688 859,688 859,687 860,687 860,686 861,686 861,686 862,685 862,685 863,685 863,685 864,685 864,684 865,684 865,684 866,684 867,683 867,683 868,683 868,683 869,683 869,682 870,681 870,680 871,680 871,680 872,679 872,679 873,679 874,678 874,678 875,677 875,677 876,677 876,676 877,676 877,676 878,676 878,675 879,675 879,675 880,675 881,675 881,675 882,675 882,674 883,674 883,674 884,674 884,673 885,673 885,673 886,672 886,672 887,672 888,672 888,672 889,671 889,671 890,671 890,671 891,671 891,670 892,670 892,670 893,670 893,669 894,669 895,669 895,669 896,669 896,669 897,669 897,668 898,668 898,668 899,668 899,667 900,667 900,667 901,667 901,666 902,666 903,665 903,665 904,665 904,664 905,664 905,663 906,663 906,663 907,663 907,662 908,662 908,661 909,661 910,661 910,661 911,660 911,660 912,660 912,660 913,659 913,659 914,659 914,658 915,658 915,658 916,658 917,658 917,657 918,657 918,657 919,657 919,657 920,656 920,656 921,656 921,656 922,656 922,655 923,655 924,654 924,654 925,654 925,654 926,654 926,654 927,654 927,654 928,653 928,653 929,652 929,652 930,652 931,651 931,651 932,651 932,651 933,651 933,650 934,650 934,649 935,649 935,649 936,649 936,648 937,649 937,648 938,648 939,648 939,647 940,647 940,647 941,646 941,646 942,645 942,645 943,645 943,645 944,645 944,645 945,645 946,644 946,643 947,644 947,643 948,643 948,643 949,643 949,643 950,642 950,642 951,641 951,641 952,641 953,641 953,641 954,640 954,640 955,640 955,639 956,639 956,639 957,639 957,638 958,638 958,637 959,637 960,637 960,637 961,636 961,636 962,636 962,635 963,635 963,635 964,635 964,635 965,635 965,634 966,634 967,634 967,634 968,634 968,634 969,634 969,633 970,633 970,632 971,632 971,631 972,631 972,631 973,631 973,630 974,630 975,630 975,629 976,629 976,629 977,629 977,629 978,628 978,628 979,628 979,627 980,627 980,626 981,626 982,625 982,625 983,625 983,625 984,624 984,623 985,623 985,623 986,623 986,622 987,622 987,622 988,621 989,621 989,621 990,621 990,620 991,619 992,619 992,619 993,619 993,619 994,618 994,618 995,618 996,618 996,617 997,617 997,616 998,616 998,616 999,615 999,615 1000,614 1000,614 1001,613 1001,613 1002,613 1003,612 1003,612 1004,611 1004,611 1005,611 1005,611 1006,611 1006,610 1007,609 1007,609 1008,609 1008,608 1009,608 1009,608 1010,607 1011,606 1011,606 1012,605 1012,604 1013,604 1013,604 1014,603 1014,603 1015,602 1015,602 1016,601 1016,601 1017,601 1018,600 1018,600 1019,600 1019,599 1020,599 1020,598 1021,598 1021,598 1022,597 1022,597 1022,597 1023,596 1023,596 1024,595 1025,595 1025,595 1026,594 1026,592 1027,592 1027,591 1028,590 1028,590 1029,589 1029,589 1030,589 1030,589 1031,589 1032,588 1032,588 1033,589 1033,589 1034,587 1034,587 1035,587 1035,586 1036,585 1036,585 1037,585 1037,584 1038,584 1039,583 1039,583 1040,583 1040,582 1041,582 1041,582 1042,581 1042,581 1043,580 1043,580 1044,580 1044,580 1045,579 1045,579 1046,579 1047,578 1047,578 1048,578 1048,577 1049,576 1049,576 1050,576 1050,575 1051,574 1051,574 1052,574 1052,574 1053,573 1054,572 1054,572 1055,572 1055,571 1056,570 1056,570 1057,569 1057,569 1058,569 1058,568 1059,568 1059,567 1060,567 1061,567 1061,566 1062,566 1062,565 1063,565 1063,564 1064,564 1064,564 1065,563 1065,563 1066,563 1066,562 1067,561 1068,561 1068,561 1069,560 1069,560 1070,559 1070,559 1071,558 1071,558 1072,558 1072,558 1073,557 1073,557 1074,557 1075,556 1075,556 1076,556 1076,555 1077,555 1077,554 1078,554 1078,554 1079,554 1079,553 1080,553 1080,552 1081,552 1081,551 1082,551 1083,551 1083,550 1084,549 1084,549 1085,548 1085,548 1086,547 1086,547 1087,547 1087,547 1088,546 1088,546 1089,545 1090,544 1090,544 1091,543 1091,542 1092,542 1092,541 1093,541 1093,540 1094,540 1094,539 1095,539 1095,538 1096,538 1097,537 1097,537 1098,537 1098,537 1098,537 1099,537 1099,536 1099,535 1100,535 1100,534 1100,534 1100,534 1101,534 1101,534 1101,534 1102,534 1102,533 1102,533 1102,532 1103,532 1103,532 1104,532 1104,532 1104,532 1104,531 1105,531 1105,531 1105,531 1105,530 1106,530 1106,530 1106,530 1106,530 1107,528 1107,528 1107,528 1108,528 1108,528 1108,528 1109,527 1109,527 1109,527 1109,527 1110,527 1110,526 1111,526 1111,525 1111,525 1111,525 1112,525 1112,525 1112,525 1113,524 1113,523 1113,523 1113,523 1114,523 1114,522 1114,522 1114,521 1115,521 1115,521 1115,521 1115,521 1116,521 1116,520 1116,520 1116,520 1117,519 1117,519 1117,519 1118,519 1118,518 1119,518 1119,517 1119,517 1119,517 1120,517 1120,517 1120,517 1120,516 1121,516 1121,515 1121,515 1121,515 1122,515 1122,514 1122,514 1122,514 1123,514 1123,513 1123,513 1124,513 1124,513 1124,512 1125,512 1125,510 1126,510 1126,510 1126,510 1126,511 1127,511 1127,510 1127,510 1127,510 1128,510 1128,509 1128,509 1128,509 1129,509 1129,508 1129,508 1130,508 1130,507 1130,507 1130,506 1131,506 1131,506 1131,506 1131,504 1132,504 1132,504 1133,503 1133,503 1133,502 1134,502 1134,502 1134,502 1134,501 1135,501 1135,501 1135,501 1135,500 1136,500 1136,500 1136,500 1136,499 1137,499 1137,499 1137,498 1138,498 1138,497 1138,497 1138,496 1139,496 1139,496 1140,496 1140,496 1140,496 1140,495 1141,495 1141,494 1141,494 1141,492 1142,492 1142,491 1142,491 1142,491 1143,490 1143,490 1143,489 1144,489 1144,489 1144,489 1144,489 1145,489 1145,488 1145,488 1145,488 1146,488 1146,488 1147,488 1147,487 1147,487 1147,487 1148,487 1148,486 1148,485 1149,485 1149,484 1149,484 1149,484 1150,484 1150,483 1150,483 1150,482 1151,482 1151,482 1151,481 1152,481 1152,481 1152,480 1153,480 1153,480 1153,480 1154,480 1154,479 1155,480 1155,479 1155,479 1155,479 1156,479 1156,478 1156,478 1156,478 1157,478 1157,478 1157,478 1157,478 1158,478 1158,477 1158,477 1158,477 1159,476 1159,476 1159,476 1160,476 1160,476 1160,476 1160,475 1161,475 1161,475 1162,475 1162,474 1162,474 1162,474 1163,474 1163,474 1163,474 1163,472 1164,472 1164,472 1164,472 1164,472 1165,472 1165,472 1165,472 1165,471 1166,471 1166,470 1166,470 1166,470 1167,470 1167,469 1167,469 1168,469 1168,469 1169,469 1169,468 1169,468 1169,468 1170,468 1170,468 1170,468 1170,468 1171,468 1171,467 1171,467 1171,466 1172,466 1172,466 1172,466 1173,466 1173,466 1173,466 1173,465 1174,465 1174,465 1174,465 1174,465 1175,465 1175,464 1176,464 1176,463 1176,463 1176,462 1177,462 1177,462 1177,462 1177,462 1178,462 1178,462 1178,462 1178,461 1179,461 1179,461 1179,461 1179,460 1180,460 1180,460 1180,460 1180,459 1181,459 1181,459 1181,459 1181,459 1182,458 1183,458 1183,457 1183,457 1183,456 1184,456 1184,456 1184,456 1184,456 1185,456 1185,456 1185,456 1185,455 1186,455 1186,454 1186,454 1186,454 1187,454 1187,454 1187,454 1187,454 1188,454 1188,452 1188,452 1188,452 1189,452 1189,452 1190,452 "/>
<rect x="1088" y="329" width="97" height="91" opacity="1" fill="#FFFFFF" stroke="none"/>
<rect x="1088" y="329" width="97" height="91" opacity="1" fill="none" stroke="#000000"/>
<text x="1128" y="339" dy="0.76em" text-anchor="start" font-family="sans-serif" font-size="9.67741935483871" opacity="1" fill="#000000">
argparse
</text>
<text x="1128" y="354" dy="0.76em" text-anchor="start" font-family="sans-serif" font-size="9.67741935483871" opacity="1" fill="#000000">
clap
</text>
<text x="1128" y="369" dy="0.76em" text-anchor="start" font-family="sans-serif" font-size="9.67741935483871" opacity="1" fill="#000000">
docopt
</text>
<text x="1128" y="384" dy="0.76em" text-anchor="start" font-family="sans-serif" font-size="9.67741935483871" opacity="1" fill="#000000">
getopts
</text>
<text x="1128" y="399" dy="0.76em" text-anchor="start" font-family="sans-serif" font-size="9.67741935483871" opacity="1" fill="#000000">
structopt
</text>
<polyline fill="none" opacity="1" stroke="#E61919" stroke-width="2" points="1098,343 1118,343 "/>
<polyline fill="none" opacity="1" stroke="#BDE619" stroke-width="2" points="1098,359 1118,359 "/>
<polyline fill="none" opacity="1" stroke="#19E66B" stroke-width="2" points="1098,374 1118,374 "/>
<polyline fill="none" opacity="1" stroke="#196BE6" stroke-width="2" points="1098,389 1118,389 "/>
<polyline fill="none" opacity="1" stroke="#BD19E6" stroke-width="2" points="1098,404 1118,404 "/>
</svg>
