<svg width="1200" height="800" viewBox="0 0 1200 800" xmlns="http://www.w3.org/2000/svg">
<rect x="0" y="0" width="1199" height="799" opacity="1" fill="#FFFFFF" stroke="none"/>
<line opacity="0.1" stroke="#000000" stroke-width="1" x1="60" y1="731" x2="1190" y2="731"/>
<line opacity="0.1" stroke="#000000" stroke-width="1" x1="60" y1="723" x2="1190" y2="723"/>
<line opacity="0.1" stroke="#000000" stroke-width="1" x1="60" y1="715" x2="1190" y2="715"/>
<line opacity="0.1" stroke="#000000" stroke-width="1" x1="60" y1="707" x2="1190" y2="707"/>
<line opacity="0.1" stroke="#000000" stroke-width="1" x1="60" y1="699" x2="1190" y2="699"/>
<line opacity="0.1" stroke="#000000" stroke-width="1" x1="60" y1="690" x2="1190" y2="690"/>
<line opacity="0.1" stroke="#000000" stroke-width="1" x1="60" y1="682" x2="1190" y2="682"/>
<line opacity="0.1" stroke="#000000" stroke-width="1" x1="60" y1="674" x2="1190" y2="674"/>
<line opacity="0.1" stroke="#000000" stroke-width="1" x1="60" y1="666" x2="1190" y2="666"/>
<line opacity="0.1" stroke="#000000" stroke-width="1" x1="60" y1="658" x2="1190" y2="658"/>
<line opacity="0.1" stroke="#000000" stroke-width="1" x1="60" y1="650" x2="1190" y2="650"/>
<line opacity="0.1" stroke="#000000" stroke-width="1" x1="60" y1="641" x2="1190" y2="641"/>
<line opacity="0.1" stroke="#000000" stroke-width="1" x1="60" y1="633" x2="1190" y2="633"/>
<line opacity="0.1" stroke="#000000" stroke-width="1" x1="60" y1="625" x2="1190" y2="625"/>
<line opacity="0.1" stroke="#000000" stroke-width="1" x1="60" y1="617" x2="1190" y2="617"/>
<line opacity="0.1" stroke="#000000" stroke-width="1" x1="60" y1="609" x2="1190" y2="609"/>
<line opacity="0.1" stroke="#000000" stroke-width="1" x1="60" y1="601" x2="1190" y2="601"/>
<line opacity="0.1" stroke="#000000" stroke-width="1" x1="60" y1="592" x2="1190" y2="592"/>
<line opacity="0.1" stroke="#000000" stroke-width="1" x1="60" y1="584" x2="1190" y2="584"/>
<line opacity="0.1" stroke="#000000" stroke-width="1" x1="60" y1="576" x2="1190" y2="576"/>
<line opacity="0.1" stroke="#000000" stroke-width="1" x1="60" y1="568" x2="1190" y2="568"/>
<line opacity="0.1" stroke="#000000" stroke-width="1" x1="60" y1="560" x2="1190" y2="560"/>
<line opacity="0.1" stroke="#000000" stroke-width="1" x1="60" y1="552" x2="1190" y2="552"/>
<line opacity="0.1" stroke="#000000" stroke-width="1" x1="60" y1="543" x2="1190" y2="543"/>
<line opacity="0.1" stroke="#000000" stroke-width="1" x1="60" y1="535" x2="1190" y2="535"/>
<line opacity="0.1" stroke="#000000" stroke-width="1" x1="60" y1="527" x2="1190" y2="527"/>
<line opacity="0.1" stroke="#000000" stroke-width="1" x1="60" y1="519" x2="1190" y2="519"/>
<line opacity="0.1" stroke="#000000" stroke-width="1" x1="60" y1="511" x2="1190" y2="511"/>
<line opacity="0.1" stroke="#000000" stroke-width="1" x1="60" y1="503" x2="1190" y2="503"/>
<line opacity="0.1" stroke="#000000" stroke-width="1" x1="60" y1="494" x2="1190" y2="494"/>
<line opacity="0.1" stroke="#000000" stroke-width="1" x1="60" y1="486" x2="1190" y2="486"/>
<line opacity="0.1" stroke="#000000" stroke-width="1" x1="60" y1="478" x2="1190" y2="478"/>
<line opacity="0.1" stroke="#000000" stroke-width="1" x1="60" y1="470" x2="1190" y2="470"/>
<line opacity="0.1" stroke="#000000" stroke-width="1" x1="60" y1="462" x2="1190" y2="462"/>
<line opacity="0.1" stroke="#000000" stroke-width="1" x1="60" y1="454" x2="1190" y2="454"/>
<line opacity="0.1" stroke="#000000" stroke-width="1" x1="60" y1="445" x2="1190" y2="445"/>
<line opacity="0.1" stroke="#000000" stroke-width="1" x1="60" y1="437" x2="1190" y2="437"/>
<line opacity="0.1" stroke="#000000" stroke-width="1" x1="60" y1="429" x2="1190" y2="429"/>
<line opacity="0.1" stroke="#000000" stroke-width="1" x1="60" y1="421" x2="1190" y2="421"/>
<line opacity="0.1" stroke="#000000" stroke-width="1" x1="60" y1="413" x2="1190" y2="413"/>
<line opacity="0.1" stroke="#000000" stroke-width="1" x1="60" y1="405" x2="1190" y2="405"/>
<line opacity="0.1" stroke="#000000" stroke-width="1" x1="60" y1="396" x2="1190" y2="396"/>
<line opacity="0.1" stroke="#000000" stroke-width="1" x1="60" y1="388" x2="1190" y2="388"/>
<line opacity="0.1" stroke="#000000" stroke-width="1" x1="60" y1="380" x2="1190" y2="380"/>
<line opacity="0.1" stroke="#000000" stroke-width="1" x1="60" y1="372" x2="1190" y2="372"/>
<line opacity="0.1" stroke="#000000" stroke-width="1" x1="60" y1="364" x2="1190" y2="364"/>
<line opacity="0.1" stroke="#000000" stroke-width="1" x1="60" y1="356" x2="1190" y2="356"/>
<line opacity="0.1" stroke="#000000" stroke-width="1" x1="60" y1="347" x2="1190" y2="347"/>
<line opacity="0.1" stroke="#000000" stroke-width="1" x1="60" y1="339" x2="1190" y2="339"/>
<line opacity="0.1" stroke="#000000" stroke-width="1" x1="60" y1="331" x2="1190" y2="331"/>
<line opacity="0.1" stroke="#000000" stroke-width="1" x1="60" y1="323" x2="1190" y2="323"/>
<line opacity="0.1" stroke="#000000" stroke-width="1" x1="60" y1="315" x2="1190" y2="315"/>
<line opacity="0.1" stroke="#000000" stroke-width="1" x1="60" y1="307" x2="1190" y2="307"/>
<line opacity="0.1" stroke="#000000" stroke-width="1" x1="60" y1="298" x2="1190" y2="298"/>
<line opacity="0.1" stroke="#000000" stroke-width="1" x1="60" y1="290" x2="1190" y2="290"/>
<line opacity="0.1" stroke="#000000" stroke-width="1" x1="60" y1="282" x2="1190" y2="282"/>
<line opacity="0.1" stroke="#000000" stroke-width="1" x1="60" y1="274" x2="1190" y2="274"/>
<line opacity="0.1" stroke="#000000" stroke-width="1" x1="60" y1="266" x2="1190" y2="266"/>
<line opacity="0.1" stroke="#000000" stroke-width="1" x1="60" y1="258" x2="1190" y2="258"/>
<line opacity="0.1" stroke="#000000" stroke-width="1" x1="60" y1="249" x2="1190" y2="249"/>
<line opacity="0.1" stroke="#000000" stroke-width="1" x1="60" y1="241" x2="1190" y2="241"/>
<line opacity="0.1" stroke="#000000" stroke-width="1" x1="60" y1="233" x2="1190" y2="233"/>
<line opacity="0.1" stroke="#000000" stroke-width="1" x1="60" y1="225" x2="1190" y2="225"/>
<line opacity="0.1" stroke="#000000" stroke-width="1" x1="60" y1="217" x2="1190" y2="217"/>
<line opacity="0.1" stroke="#000000" stroke-width="1" x1="60" y1="209" x2="1190" y2="209"/>
<line opacity="0.1" stroke="#000000" stroke-width="1" x1="60" y1="200" x2="1190" y2="200"/>
<line opacity="0.1" stroke="#000000" stroke-width="1" x1="60" y1="192" x2="1190" y2="192"/>
<line opacity="0.1" stroke="#000000" stroke-width="1" x1="60" y1="184" x2="1190" y2="184"/>
<line opacity="0.1" stroke="#000000" stroke-width="1" x1="60" y1="176" x2="1190" y2="176"/>
<line opacity="0.1" stroke="#000000" stroke-width="1" x1="60" y1="168" x2="1190" y2="168"/>
<line opacity="0.1" stroke="#000000" stroke-width="1" x1="60" y1="160" x2="1190" y2="160"/>
<line opacity="0.1" stroke="#000000" stroke-width="1" x1="60" y1="151" x2="1190" y2="151"/>
<line opacity="0.1" stroke="#000000" stroke-width="1" x1="60" y1="143" x2="1190" y2="143"/>
<line opacity="0.1" stroke="#000000" stroke-width="1" x1="60" y1="135" x2="1190" y2="135"/>
<line opacity="0.1" stroke="#000000" stroke-width="1" x1="60" y1="127" x2="1190" y2="127"/>
<line opacity="0.1" stroke="#000000" stroke-width="1" x1="60" y1="119" x2="1190" y2="119"/>
<line opacity="0.1" stroke="#000000" stroke-width="1" x1="60" y1="111" x2="1190" y2="111"/>
<line opacity="0.1" stroke="#000000" stroke-width="1" x1="60" y1="102" x2="1190" y2="102"/>
<line opacity="0.1" stroke="#000000" stroke-width="1" x1="60" y1="94" x2="1190" y2="94"/>
<line opacity="0.1" stroke="#000000" stroke-width="1" x1="60" y1="86" x2="1190" y2="86"/>
<line opacity="0.1" stroke="#000000" stroke-width="1" x1="60" y1="78" x2="1190" y2="78"/>
<line opacity="0.1" stroke="#000000" stroke-width="1" x1="60" y1="70" x2="1190" y2="70"/>
<line opacity="0.1" stroke="#000000" stroke-width="1" x1="60" y1="62" x2="1190" y2="62"/>
<line opacity="0.1" stroke="#000000" stroke-width="1" x1="60" y1="53" x2="1190" y2="53"/>
<line opacity="0.1" stroke="#000000" stroke-width="1" x1="60" y1="45" x2="1190" y2="45"/>
<line opacity="0.1" stroke="#000000" stroke-width="1" x1="60" y1="37" x2="1190" y2="37"/>
<line opacity="0.1" stroke="#000000" stroke-width="1" x1="60" y1="29" x2="1190" y2="29"/>
<line opacity="0.1" stroke="#000000" stroke-width="1" x1="60" y1="21" x2="1190" y2="21"/>
<line opacity="0.1" stroke="#000000" stroke-width="1" x1="60" y1="13" x2="1190" y2="13"/>
<text x="10" y="375" dy="0.76em" text-anchor="middle" font-family="sans-serif" font-size="9.67741935483871" opacity="1" fill="#000000" transform="rotate(270, 10, 375)">
Fraction of dependent crates
</text>
<line opacity="0.2" stroke="#000000" stroke-width="1" x1="60" y1="658" x2="1190" y2="658"/>
<line opacity="0.2" stroke="#000000" stroke-width="1" x1="60" y1="576" x2="1190" y2="576"/>
<line opacity="0.2" stroke="#000000" stroke-width="1" x1="60" y1="494" x2="1190" y2="494"/>
<line opacity="0.2" stroke="#000000" stroke-width="1" x1="60" y1="413" x2="1190" y2="413"/>
<line opacity="0.2" stroke="#000000" stroke-width="1" x1="60" y1="331" x2="1190" y2="331"/>
<line opacity="0.2" stroke="#000000" stroke-width="1" x1="60" y1="249" x2="1190" y2="249"/>
<line opacity="0.2" stroke="#000000" stroke-width="1" x1="60" y1="168" x2="1190" y2="168"/>
<line opacity="0.2" stroke="#000000" stroke-width="1" x1="60" y1="86" x2="1190" y2="86"/>
<polyline fill="none" opacity="1" stroke="#000000" stroke-width="1" points="59,10 59,740 "/>
<text x="50" y="658" dy="0.5ex" text-anchor="end" font-family="sans-serif" font-size="9.67741935483871" opacity="1" fill="#000000">
0.01
</text>
<polyline fill="none" opacity="1" stroke="#000000" stroke-width="1" points="54,658 59,658 "/>
<text x="50" y="576" dy="0.5ex" text-anchor="end" font-family="sans-serif" font-size="9.67741935483871" opacity="1" fill="#000000">
0.02
</text>
<polyline fill="none" opacity="1" stroke="#000000" stroke-width="1" points="54,576 59,576 "/>
<text x="50" y="494" dy="0.5ex" text-anchor="end" font-family="sans-serif" font-size="9.67741935483871" opacity="1" fill="#000000">
0.03
</text>
<polyline fill="none" opacity="1" stroke="#000000" stroke-width="1" points="54,494 59,494 "/>
<text x="50" y="413" dy="0.5ex" text-anchor="end" font-family="sans-serif" font-size="9.67741935483871" opacity="1" fill="#000000">
0.04
</text>
<polyline fill="none" opacity="1" stroke="#000000" stroke-width="1" points="54,413 59,413 "/>
<text x="50" y="331" dy="0.5ex" text-anchor="end" font-family="sans-serif" font-size="9.67741935483871" opacity="1" fill="#000000">
0.05
</text>
<polyline fill="none" opacity="1" stroke="#000000" stroke-width="1" points="54,331 59,331 "/>
<text x="50" y="249" dy="0.5ex" text-anchor="end" font-family="sans-serif" font-size="9.67741935483871" opacity="1" fill="#000000">
0.06
</text>
<polyline fill="none" opacity="1" stroke="#000000" stroke-width="1" points="54,249 59,249 "/>
<text x="50" y="168" dy="0.5ex" text-anchor="end" font-family="sans-serif" font-size="9.67741935483871" opacity="1" fill="#000000">
0.07
</text>
<polyline fill="none" opacity="1" stroke="#000000" stroke-width="1" points="54,168 59,168 "/>
<text x="50" y="86" dy="0.5ex" text-anchor="end" font-family="sans-serif" font-size="9.67741935483871" opacity="1" fill="#000000">
0.08
</text>
<polyline fill="none" opacity="1" stroke="#000000" stroke-width="1" points="54,86 59,86 "/>
<polyline fill="none" opacity="1" stroke="#000000" stroke-width="1" points="60,740 1190,740 "/>
<text x="60" y="750" dy="0.76em" text-anchor="middle" font-family="sans-serif" font-size="9.67741935483871" opacity="1" fill="#000000">
2014-11-20Z
</text>
<polyline fill="none" opacity="1" stroke="#000000" stroke-width="1" points="60,740 60,745 "/>
<text x="172" y="750" dy="0.76em" text-anchor="middle" font-family="sans-serif" font-size="9.67741935483871" opacity="1" fill="#000000">
2015-07-09Z
</text>
<polyline fill="none" opacity="1" stroke="#000000" stroke-width="1" points="172,740 172,745 "/>
<text x="285" y="750" dy="0.76em" text-anchor="middle" font-family="sans-serif" font-size="9.67741935483871" opacity="1" fill="#000000">
2016-02-25Z
</text>
<polyline fill="none" opacity="1" stroke="#000000" stroke-width="1" points="285,740 285,745 "/>
<text x="398" y="750" dy="0.76em" text-anchor="middle" font-family="sans-serif" font-size="9.67741935483871" opacity="1" fill="#000000">
2016-10-13Z
</text>
<polyline fill="none" opacity="1" stroke="#000000" stroke-width="1" points="398,740 398,745 "/>
<text x="511" y="750" dy="0.76em" text-anchor="middle" font-family="sans-serif" font-size="9.67741935483871" opacity="1" fill="#000000">
2017-06-01Z
</text>
<polyline fill="none" opacity="1" stroke="#000000" stroke-width="1" points="511,740 511,745 "/>
<text x="624" y="750" dy="0.76em" text-anchor="middle" font-family="sans-serif" font-size="9.67741935483871" opacity="1" fill="#000000">
2018-01-18Z
</text>
<polyline fill="none" opacity="1" stroke="#000000" stroke-width="1" points="624,740 624,745 "/>
<text x="737" y="750" dy="0.76em" text-anchor="middle" font-family="sans-serif" font-size="9.67741935483871" opacity="1" fill="#000000">
2018-09-06Z
</text>
<polyline fill="none" opacity="1" stroke="#000000" stroke-width="1" points="737,740 737,745 "/>
<text x="849" y="750" dy="0.76em" text-anchor="middle" font-family="sans-serif" font-size="9.67741935483871" opacity="1" fill="#000000">
2019-04-25Z
</text>
<polyline fill="none" opacity="1" stroke="#000000" stroke-width="1" points="849,740 849,745 "/>
<text x="962" y="750" dy="0.76em" text-anchor="middle" font-family="sans-serif" font-size="9.67741935483871" opacity="1" fill="#000000">
2019-12-12Z
</text>
<polyline fill="none" opacity="1" stroke="#000000" stroke-width="1" points="962,740 962,745 "/>
<text x="1075" y="750" dy="0.76em" text-anchor="middle" font-family="sans-serif" font-size="9.67741935483871" opacity="1" fill="#000000">
2020-07-30Z
</text>
<polyline fill="none" opacity="1" stroke="#000000" stroke-width="1" points="1075,740 1075,745 "/>
<text x="1188" y="750" dy="0.76em" text-anchor="middle" font-family="sans-serif" font-size="9.67741935483871" opacity="1" fill="#000000">
2021-03-18Z
</text>
<polyline fill="none" opacity="1" stroke="#000000" stroke-width="1" points="1188,740 1188,745 "/>
<polyline fill="none" opacity="1" stroke="#E61919" stroke-width="2" points="159,736 164,729 164,726 198,725 224,724 251,724 259,722 260,718 267,716 270,718 272,717 273,713 274,713 276,715 277,713 278,711 279,709 288,712 288,712 301,712 302,712 306,711 313,710 315,708 316,705 328,705 329,705 334,704 350,704 351,704 352,705 353,705 353,705 354,706 355,706 356,706 356,707 357,707 357,707 358,707 359,707 360,707 398,712 399,711 399,708 400,707 401,706 424,709 424,709 425,709 426,708 427,708 428,708 428,708 429,708 430,708 432,707 433,704 434,704 435,704 435,704 436,704 436,703 438,703 439,703 440,703 441,704 442,704 442,704 443,704 443,704 444,704 445,704 447,704 448,704 448,704 449,705 450,705 450,705 451,705 451,705 452,705 453,705 454,705 455,705 456,705 457,704 457,705 458,705 459,705 460,705 461,705 463,705 463,705 464,705 465,705 466,704 467,703 467,703 468,703 469,703 470,703 471,703 472,704 472,703 473,703 474,703 475,703 476,703 477,703 478,703 478,703 479,703 479,703 480,704 481,704 482,704 483,704 484,704 485,704 486,704 486,704 488,704 488,704 490,704 492,704 493,704 493,704 496,704 498,705 499,705 500,705 501,705 502,705 503,705 503,704 505,705 507,705 508,706 509,706 509,706 511,706 511,706 512,706 512,706 514,707 515,707 515,707 516,707 517,708 517,708 518,707 518,707 519,707 519,707 520,706 521,707 522,707 524,707 525,707 529,707 529,707 530,708 530,708 531,707 531,707 532,707 532,707 534,707 535,707 535,707 536,707 536,707 537,707 537,707 538,707 538,706 539,706 540,706 541,705 541,705 544,705 544,705 545,705 545,705 546,705 546,705 547,705 548,705 552,706 554,705 557,706 557,706 558,706 559,705 561,705 561,706 564,706 565,706 566,706 574,707 575,707 577,707 579,707 581,706 586,706 587,706 589,707 590,706 591,706 591,706 593,706 596,707 597,707 599,707 599,707 600,707 602,707 603,707 603,707 604,706 605,707 605,707 606,707 606,707 607,707 608,707 608,707 609,707 610,707 610,707 611,707 611,707 612,707 612,707 613,707 614,707 614,707 615,708 616,708 616,708 617,708 618,708 618,708 620,708 620,708 621,708 621,708 622,708 623,708 623,708 624,708 625,708 625,708 626,708 628,708 629,708 629,708 630,708 631,708 631,708 632,709 633,709 633,709 634,709 635,709 637,710 638,710 638,710 640,710 640,709 641,709 643,710 644,710 647,710 647,710 648,710 648,710 649,710 649,710 650,710 650,710 652,710 653,710 653,710 654,710 656,710 656,710 657,710 657,710 658,710 659,710 659,710 660,711 662,711 663,710 663,710 664,710 664,710 665,710 666,710 667,710 667,710 668,710 668,710 669,710 669,710 670,710 670,710 671,710 671,710 672,710 672,710 673,710 673,710 674,710 674,711 675,711 676,711 676,711 677,711 677,711 679,711 679,711 680,711 680,711 683,711 684,711 684,711 685,711 685,711 687,711 688,711 688,712 689,712 689,711 690,711 690,711 691,711 691,711 692,711 692,711 693,711 693,711 694,711 694,711 695,711 697,711 698,712 698,712 699,712 699,712 700,712 700,712 701,712 701,712 702,712 702,712 703,712 703,712 704,712 704,712 705,712 705,712 706,712 707,712 707,712 708,712 708,711 709,711 709,711 710,711 710,711 711,711 712,711 712,711 713,712 714,712 715,712 716,712 716,712 717,712 717,712 718,712 719,712 720,712 720,712 721,712 721,712 722,712 722,712 723,712 723,712 724,712 724,712 725,712 726,713 726,713 727,713 727,713 728,713 728,713 729,713 729,713 730,713 731,713 732,713 733,713 733,713 734,713 734,713 735,713 735,713 736,713 737,714 737,714 738,714 738,714 739,714 740,714 741,714 741,714 742,714 742,714 742,714 743,714 744,714 744,714 745,714 745,715 746,715 746,715 746,715 747,715 747,715 748,715 748,715 749,715 749,715 750,715 750,715 751,715 751,715 752,715 753,715 753,715 754,715 754,715 755,715 755,715 756,715 756,715 757,715 758,715 759,715 759,715 760,715 761,715 761,715 762,715 763,715 763,715 764,715 764,715 765,715 765,715 766,715 766,715 767,715 767,715 768,715 768,715 769,715 770,715 770,715 771,715 772,715 773,715 773,715 774,715 775,715 775,715 776,715 777,715 777,715 778,715 778,715 779,715 780,715 780,715 781,715 782,715 782,715 783,715 783,715 784,716 784,716 785,716 785,716 787,715 787,715 788,715 789,715 790,715 790,715 791,715 791,715 792,715 793,715 793,715 794,715 794,715 795,715 795,716 796,716 797,716 797,717 798,717 798,717 799,716 799,716 800,716 800,716 801,716 802,716 802,716 803,716 804,716 805,716 806,716 806,716 806,716 807,716 808,717 808,717 809,717 809,716 810,716 810,716 811,716 812,716 812,716 813,716 814,716 814,716 815,716 816,716 817,716 817,716 818,716 818,716 819,716 819,716 820,716 820,716 821,716 821,716 822,716 822,716 823,716 824,716 824,716 825,716 825,716 826,716 826,716 827,716 827,716 827,716 828,716 828,716 829,716 829,716 830,716 830,716 831,716 832,716 832,717 833,717 833,717 834,717 834,717 835,717 836,717 836,717 837,717 837,717 838,717 838,717 839,717 840,717 840,717 841,717 841,717 842,717 842,717 844,717 844,717 847,717 847,717 848,717 848,717 849,717 849,717 850,718 850,718 851,718 851,718 852,718 852,718 853,718 853,717 854,717 854,718 855,718 856,717 856,717 857,717 859,718 859,718 860,718 860,718 861,718 862,718 862,718 864,718 864,718 865,718 865,718 866,718 866,718 867,718 867,718 868,717 869,717 870,717 870,717 870,718 871,718 871,718 873,718 874,718 874,718 875,718 875,718 876,718 877,718 877,718 878,718 878,718 879,718 880,718 880,718 881,718 881,718 882,718 884,718 884,718 885,718 885,718 886,718 886,718 887,718 887,718 888,718 889,718 889,718 890,718 890,718 891,719 891,719 892,719 892,719 894,719 894,719 895,719 895,719 896,719 896,719 897,719 897,719 898,719 898,719 899,719 899,719 900,719 900,719 901,719 901,719 902,719 902,719 903,719 903,719 905,719 906,719 906,719 907,719 908,719 908,719 909,719 909,719 911,720 911,720 912,720 912,720 912,720 913,720 913,720 914,720 914,720 915,720 915,720 916,720 917,720 917,720 920,720 920,720 921,720 921,720 922,720 923,720 924,720 925,721 925,721 926,721 926,721 927,721 927,721 928,721 929,721 929,721 930,721 932,721 932,721 934,721 934,721 935,721 935,721 936,721 936,721 937,721 938,721 939,721 939,721 940,721 940,721 941,721 941,721 942,721 942,721 943,721 943,721 944,721 944,721 945,721 945,721 946,721 946,721 947,721 947,721 948,721 948,721 949,722 949,722 950,722 950,722 951,721 952,721 953,721 953,721 954,721 954,721 958,722 958,722 959,722 959,722 960,722 961,722 961,722 962,721 962,721 963,721 964,721 966,721 966,721 967,721 967,721 969,721 969,721 970,721 971,721 971,721 972,721 972,721 973,721 974,721 974,721 975,721 975,721 976,721 976,722 976,722 977,722 977,722 978,722 978,722 980,722 980,722 981,722 981,722 982,722 982,722 983,722 983,722 984,722 985,722 985,722 986,722 986,722 987,722 987,722 988,722 988,722 989,722 990,722 990,722 991,722 992,722 993,722 993,722 994,722 994,722 995,722 997,722 997,722 998,722 999,723 999,723 1000,723 1000,723 1001,723 1001,723 1002,723 1002,723 1003,723 1003,723 1004,723 1004,723 1005,723 1005,723 1005,723 1006,723 1006,723 1007,723 1008,723 1008,723 1008,723 1009,723 1009,723 1009,723 1010,723 1010,723 1010,723 1011,723 1011,723 1011,723 1011,723 1012,723 1012,723 1012,723 1013,723 1013,723 1013,723 1014,723 1014,723 1014,723 1014,723 1015,723 1015,723 1016,723 1016,723 1016,723 1017,723 1017,723 1017,723 1018,723 1018,723 1018,723 1018,723 1019,723 1019,723 1019,723 1019,723 1019,723 1020,723 1020,723 1020,723 1021,723 1022,724 1022,724 1023,724 1023,724 1023,724 1024,724 1024,724 1024,724 1024,724 1025,724 1026,724 1026,724 1026,724 1027,724 1027,724 1028,724 1028,724 1028,724 1029,724 1029,724 1030,724 1030,724 1030,724 1030,724 1031,724 1031,724 1032,724 1032,724 1032,724 1033,724 1033,724 1033,724 1033,724 1034,724 1034,724 1034,724 1035,724 1036,724 1036,724 1036,724 1037,724 1037,724 1038,724 1038,724 1038,724 1039,724 1039,724 1039,724 1039,724 1040,724 1040,724 1040,724 1041,724 1041,724 1041,724 1042,724 1042,724 1042,724 1042,724 1043,724 1043,724 1044,724 1045,724 1045,724 1045,724 1046,724 1046,724 1047,724 1047,724 1047,724 1048,724 1048,724 1048,724 1048,724 1049,724 1049,724 1049,724 1050,724 1050,724 1050,724 1050,724 1051,724 1051,724 1051,724 1052,724 1052,724 1052,725 1053,725 1053,725 1054,725 1054,725 1054,725 1055,725 1056,725 1056,725 1056,725 1056,725 1057,725 1057,725 1057,725 1057,725 1058,725 1058,725 1058,725 1058,725 1059,725 1059,725 1059,725 1060,725 1060,725 1061,725 1061,725 1061,725 1061,725 1062,725 1062,725 1062,725 1062,725 1062,725 1063,725 1063,725 1063,725 1063,725 1064,725 1064,725 1064,725 1064,725 1065,725 1065,725 1066,725 1066,725 1066,725 1066,725 1068,725 1068,725 1068,725 1069,725 1069,725 1069,725 1070,725 1070,725 1071,725 1071,725 1072,725 1072,725 1072,725 1072,725 1073,725 1073,725 1073,725 1074,725 1074,725 1074,725 1074,725 1075,725 1075,725 1075,725 1075,725 1076,725 1076,725 1076,725 1077,725 1077,725 1077,725 1077,725 1078,725 1079,725 1079,725 1079,725 1079,725 1080,725 1080,725 1080,725 1081,725 1081,725 1081,725 1082,725 1082,725 1082,725 1082,725 1083,725 1083,725 1083,725 1084,725 1084,725 1084,725 1084,725 1087,725 1087,726 1087,726 1087,726 1088,726 1088,726 1088,726 1089,726 1090,726 1090,726 1090,726 1090,726 1091,726 1091,726 1091,726 1091,726 1092,726 1092,726 1092,726 1093,726 1093,726 1093,726 1093,726 1094,726 1094,726 1094,726 1095,726 1095,726 1095,726 1096,726 1096,726 1096,726 1096,726 1097,726 1097,726 1097,726 1098,726 1098,726 1098,726 1099,726 1099,726 1099,726 1099,726 1100,726 1100,726 1100,726 1100,726 1101,726 1101,726 1101,726 1102,726 1103,726 1103,726 1103,726 1103,726 1104,726 1104,726 1104,726 1104,726 1104,726 1105,726 1105,726 1106,726 1106,726 1106,726 1106,726 1107,726 1107,726 1107,726 1108,726 1108,726 1109,726 1109,726 1109,726 1110,726 1110,726 1110,726 1110,726 1111,726 1111,726 1111,726 1112,726 1112,726 1112,726 1112,726 1113,726 1113,726 1114,726 1114,726 1115,726 1115,726 1115,726 1116,726 1116,726 1116,726 1116,726 1117,726 1117,726 1117,726 1117,726 1118,726 1118,726 1118,726 1119,726 1119,726 1119,726 1119,726 1120,726 1120,726 1120,726 1121,726 1121,726 1121,726 1121,726 1122,726 1122,726 1122,726 1122,726 1123,726 1123,726 1123,726 1123,726 1124,726 1124,726 1124,726 1125,726 1125,726 1125,726 1126,726 1126,726 1126,726 1127,727 1127,727 1127,727 1127,727 1128,727 1128,727 1128,727 1128,727 1129,727 1129,727 1129,727 1129,727 1130,727 1130,727 1130,727 1131,727 1131,727 1131,727 1131,727 1132,727 1134,727 1134,727 1134,727 1135,727 1135,727 1135,727 1135,727 1136,727 1136,727 1136,727 1137,727 1137,727 1137,727 1137,727 1138,727 1138,727 1138,727 1138,727 1139,727 1139,727 1139,727 1139,727 1140,727 1140,727 1140,727 1140,727 1141,727 1141,727 1141,727 1141,727 1142,727 1142,727 1142,727 1143,727 1143,727 1143,727 1144,727 1144,727 1144,727 1144,727 1145,727 1145,727 1145,727 1145,727 1146,727 1146,727 1146,727 1147,727 1148,727 1148,727 1149,727 1149,727 1149,727 1149,727 1150,727 1150,727 1150,727 1151,727 1151,727 1151,727 1152,727 1152,727 1155,728 1155,728 1155,728 1155,728 1156,728 1156,728 1156,728 1156,728 1157,728 1158,728 1159,728 1159,728 1159,728 1159,727 1160,727 1160,728 1160,728 1160,727 1161,727 1161,727 1161,727 1162,727 1162,727 1162,727 1162,727 1163,727 1163,727 1163,727 1164,727 1164,727 1164,727 1164,727 1165,727 1165,727 1165,727 1166,728 1166,728 1167,728 1167,728 1167,728 1167,728 1168,728 1168,728 1169,728 1169,728 1169,728 1170,728 1170,728 1170,728 1171,728 1171,728 1172,728 1172,728 1173,728 1173,728 1173,728 1174,728 1174,728 1174,728 1175,728 1175,728 1175,728 1175,728 1176,728 1176,728 1176,728 1177,728 1177,728 1177,728 1178,728 1178,728 1178,728 1179,728 1179,728 1179,728 1180,728 1180,728 1180,728 1181,728 1181,728 1181,728 1181,728 1182,728 1182,728 1182,728 1182,728 1183,728 1183,728 1183,728 1184,728 1184,728 1184,728 1185,728 1185,728 1185,728 1186,728 1186,728 1186,728 1187,728 1187,728 1187,728 1188,728 1188,728 1188,728 1189,728 1189,728 1189,728 1190,728 "/>
<polyline fill="none" opacity="1" stroke="#BDE619" stroke-width="2" points="123,735 147,732 166,729 168,726 180,724 186,718 187,722 189,719 195,717 196,714 199,712 205,709 209,707 212,705 216,703 221,701 223,699 224,697 224,694 225,692 226,689 227,687 230,685 230,678 232,676 235,672 236,670 237,665 244,665 246,663 248,661 248,659 249,657 251,655 252,651 256,651 257,649 258,647 259,645 261,644 262,642 263,640 263,638 264,636 267,635 269,634 270,630 271,629 271,627 274,624 274,622 278,622 280,619 283,619 283,615 284,614 285,610 285,608 286,607 287,608 288,606 289,605 290,603 290,602 292,601 293,601 294,600 294,598 295,599 296,597 297,596 298,593 301,593 304,593 305,592 306,594 307,593 309,592 310,591 311,590 311,591 312,590 312,588 313,587 313,587 314,586 315,583 315,582 316,582 318,583 319,583 320,583 320,584 321,584 322,581 322,581 323,578 323,579 324,578 325,578 325,578 326,578 327,577 329,577 330,578 330,578 331,578 331,579 332,579 334,578 335,577 335,578 336,578 336,576 337,577 337,577 337,576 338,576 338,576 339,576 339,577 340,574 340,574 341,574 341,575 342,575 342,574 343,573 343,571 344,569 345,568 345,568 346,566 346,565 347,566 348,563 349,564 350,564 350,561 351,559 351,559 352,559 353,557 353,555 354,553 355,553 357,555 357,550 358,549 358,547 358,545 360,543 361,543 361,543 362,542 362,540 363,539 364,539 364,540 365,538 365,537 366,537 366,535 367,534 367,533 368,531 369,532 370,531 370,530 371,530 371,531 372,530 372,529 373,528 373,528 374,528 375,527 375,527 376,524 377,525 377,524 378,521 378,520 379,521 379,520 379,518 380,518 380,518 381,517 382,385 383,383 384,384 384,382 385,380 385,380 386,379 387,380 387,379 388,380 388,376 389,375 389,375 390,373 390,372 391,370 391,368 392,365 392,366 393,365 393,365 394,364 394,364 395,366 395,364 396,365 396,364 397,363 397,361 398,359 398,357 399,357 399,355 400,350 400,350 401,349 401,347 402,346 403,327 403,327 404,326 405,326 405,326 406,326 406,326 407,327 407,328 408,328 409,328 410,328 410,327 411,328 411,328 412,327 412,328 413,328 413,325 414,324 414,322 415,324 416,323 416,324 417,323 417,321 418,320 418,320 419,319 419,319 420,319 420,319 421,318 422,319 422,318 422,317 423,316 424,314 424,311 425,312 425,312 426,313 426,312 427,312 427,312 428,313 428,312 429,307 430,308 430,308 431,308 431,308 432,307 432,308 433,308 433,309 434,309 434,307 435,308 435,308 436,308 436,309 437,308 437,308 438,307 438,307 439,307 439,307 440,306 440,307 441,308 441,309 442,307 443,307 443,305 443,306 444,307 444,305 445,305 445,301 446,302 446,301 447,302 447,301 448,299 448,299 449,300 449,297 450,295 450,293 451,292 451,290 452,289 452,288 453,288 453,286 454,286 454,285 455,284 455,284 456,282 456,283 457,281 457,278 458,278 458,277 459,275 459,274 460,274 460,273 461,271 461,270 462,271 462,270 463,270 463,271 464,271 464,271 465,270 465,269 465,268 466,269 466,268 467,268 467,266 468,266 468,266 469,262 469,262 470,263 470,263 471,263 471,264 472,262 472,263 473,263 473,262 474,261 474,261 475,261 475,259 476,255 476,253 477,252 477,251 478,253 479,252 479,252 480,251 480,250 481,250 481,248 482,246 482,246 483,244 483,243 484,243 484,241 485,241 485,240 486,239 486,240 486,240 487,239 487,237 488,238 488,236 489,235 489,235 490,233 490,233 491,233 491,233 492,232 492,232 493,229 493,230 494,230 494,230 495,231 495,231 496,230 496,230 497,231 497,231 498,227 498,228 499,228 499,226 500,222 500,222 501,222 501,221 502,223 502,224 503,222 503,224 504,223 504,224 505,223 505,225 506,224 506,223 507,223 507,224 507,223 508,220 508,220 509,220 509,219 510,220 510,218 511,219 511,217 512,217 512,217 513,216 513,216 514,217 514,217 515,217 515,216 516,214 516,213 517,211 517,210 518,209 518,208 519,207 519,207 520,208 520,206 521,207 521,208 522,208 522,207 523,208 523,209 524,209 524,210 525,210 525,209 526,208 526,208 527,209 527,208 528,208 528,208 529,206 529,205 529,205 530,204 530,205 531,205 531,205 532,204 532,204 533,201 533,199 534,198 534,198 535,198 535,197 536,196 536,195 537,196 537,197 538,196 538,196 539,196 539,195 540,195 540,195 541,195 541,194 542,194 542,195 543,195 543,195 544,194 544,194 545,193 545,192 546,191 546,192 547,191 547,191 548,191 548,191 549,190 549,190 550,191 550,190 550,191 551,190 551,191 552,191 552,189 553,189 553,188 554,188 554,187 555,188 555,189 556,190 556,190 557,190 557,190 558,187 558,188 559,188 559,189 560,188 560,188 561,188 561,187 562,187 562,187 563,185 563,185 564,185 564,183 565,184 565,184 566,185 566,186 567,185 567,185 568,184 568,184 569,174 569,172 570,170 570,171 571,171 571,170 571,171 572,171 572,169 573,168 573,168 574,167 574,167 575,166 575,165 576,165 576,165 577,163 577,163 578,164 578,165 579,166 579,164 580,165 580,165 581,165 581,163 582,163 582,163 583,162 583,161 584,161 584,161 585,158 585,158 586,157 586,156 587,155 587,156 588,156 588,157 589,158 589,158 590,158 590,159 591,158 591,157 592,158 592,158 593,157 593,158 593,158 594,157 594,157 595,157 595,157 596,157 596,158 597,155 597,156 598,155 598,156 599,157 599,157 600,155 600,155 601,156 601,156 602,156 602,156 603,156 603,156 604,156 604,155 605,154 605,155 606,152 606,150 607,150 607,150 608,150 608,148 609,147 609,148 610,146 610,147 611,148 611,148 612,145 612,145 613,145 613,145 614,146 614,146 614,147 615,146 615,146 616,147 616,147 617,146 617,146 618,146 618,146 619,147 619,148 620,148 620,148 621,149 621,147 622,149 622,148 623,148 623,146 624,147 624,147 625,147 625,146 626,146 626,146 627,145 627,145 628,144 628,142 629,142 629,144 630,145 630,144 631,134 631,134 632,132 632,132 633,132 633,131 634,130 634,130 635,130 635,129 635,128 636,127 636,125 637,124 637,123 638,122 638,122 639,121 639,121 640,121 640,122 641,123 641,122 642,123 642,122 643,122 643,122 644,119 644,119 645,119 645,118 646,117 646,118 647,118 647,118 648,116 648,116 649,117 649,116 650,114 650,113 651,115 651,115 652,115 652,116 653,116 653,116 654,117 654,115 655,115 655,116 656,117 656,116 656,116 657,116 657,116 658,114 658,114 659,114 659,114 660,112 660,111 661,112 661,113 662,113 662,113 663,113 663,112 664,113 664,113 665,113 665,112 666,112 666,113 667,114 667,114 668,113 668,113 669,113 669,113 670,113 670,112 671,112 671,113 672,113 672,114 673,114 673,115 674,116 674,116 675,117 675,117 676,117 676,117 677,117 677,117 678,116 678,116 678,115 679,114 679,114 680,115 680,115 681,115 681,115 682,114 682,114 683,114 683,115 684,113 684,113 685,113 685,113 686,113 686,114 687,113 687,113 688,112 688,111 689,112 689,111 690,111 690,111 691,110 691,110 692,110 692,109 693,110 693,110 694,110 694,109 695,109 695,108 696,108 696,107 697,107 697,107 698,104 698,104 699,105 699,105 699,105 700,105 700,104 701,103 701,103 702,102 702,103 703,103 703,103 704,101 704,100 705,99 705,100 706,99 706,100 707,100 707,98 708,97 708,97 709,97 709,96 710,96 710,97 711,97 711,96 712,97 712,97 713,97 713,95 714,95 714,95 715,96 715,95 716,95 716,95 717,95 717,95 718,96 718,97 719,98 719,98 720,98 720,99 720,98 721,99 721,99 722,102 722,102 723,102 723,102 724,101 724,101 725,102 725,102 726,102 726,103 727,103 727,104 728,105 728,106 729,106 729,105 730,105 730,105 731,109 731,110 732,110 732,110 733,110 733,113 734,113 734,114 735,114 735,115 736,114 736,113 737,112 737,112 738,112 738,112 739,110 739,110 740,109 740,110 741,111 741,111 742,111 742,111 742,110 743,109 743,108 744,109 744,109 745,107 745,109 746,108 746,108 746,108 747,106 747,106 748,106 748,107 749,106 749,105 750,106 750,106 751,105 751,105 752,105 752,106 753,105 753,105 754,106 754,107 755,107 755,95 756,101 756,95 757,95 757,94 758,95 758,95 759,97 759,95 760,93 760,94 761,94 761,94 762,95 762,94 763,94 763,94 763,93 764,93 764,93 765,94 765,94 766,94 766,94 767,94 767,94 768,92 768,93 769,93 769,92 770,92 770,93 771,92 771,92 772,91 772,91 773,91 773,91 774,91 774,91 775,91 775,92 776,91 776,91 777,92 777,91 778,91 778,91 779,91 779,92 780,91 780,92 781,91 781,91 782,91 782,90 783,90 783,91 784,92 784,91 784,92 785,93 785,92 786,93 786,93 787,93 787,93 788,93 788,94 789,93 789,93 790,93 790,93 791,93 791,93 792,93 792,95 793,94 793,93 794,92 794,91 795,89 795,89 796,90 796,89 797,88 797,111 798,112 798,112 799,87 799,87 800,87 800,87 801,88 801,88 802,87 802,87 803,86 803,87 804,87 804,88 805,86 805,85 806,86 806,86 806,86 807,86 807,86 808,86 808,86 809,86 809,87 810,87 810,87 811,87 811,87 812,87 812,87 813,88 813,88 814,87 814,86 815,87 815,87 816,88 816,87 817,87 817,87 818,88 818,89 819,89 819,89 820,89 820,90 821,90 821,89 822,90 822,90 823,89 823,89 824,89 824,90 825,89 825,88 826,89 826,89 827,88 827,88 827,89 828,89 828,88 829,89 829,89 830,90 830,90 831,90 831,90 832,90 832,90 833,90 833,89 834,90 834,89 835,89 835,88 836,87 836,88 837,88 837,88 838,88 838,88 839,87 839,88 840,88 840,87 841,87 841,87 842,87 842,88 843,88 843,88 844,88 844,88 845,88 845,89 846,89 846,88 847,89 847,89 848,88 848,88 848,87 849,87 849,87 850,85 850,85 851,85 851,85 852,85 852,85 853,84 853,84 854,86 854,86 855,87 855,87 856,88 856,88 857,89 857,89 858,89 858,90 859,91 859,91 860,91 860,90 861,88 861,89 862,89 862,88 863,89 863,88 864,88 864,88 865,88 865,88 866,87 866,88 867,87 867,87 868,87 868,86 869,86 869,86 870,86 870,86 870,86 871,86 871,86 872,86 872,85 873,86 873,85 874,85 874,85 875,85 875,85 876,85 876,84 877,85 877,85 878,86 878,86 879,84 879,84 880,83 880,83 881,83 881,83 882,83 882,85 883,85 883,85 884,86 884,79 885,79 885,80 886,79 886,79 887,78 887,78 888,78 888,78 889,77 889,77 890,76 890,76 891,77 891,76 891,75 892,76 892,76 893,75 893,76 894,76 894,77 895,77 895,77 896,76 896,78 897,78 897,78 898,79 898,78 899,78 899,78 900,79 900,79 901,79 901,79 902,79 902,79 903,79 903,78 904,77 904,77 905,78 905,77 906,77 906,78 907,79 907,78 908,78 908,78 909,78 909,78 910,78 910,79 911,79 911,79 912,80 912,80 912,80 913,81 913,81 914,82 914,82 915,81 915,81 916,81 916,81 917,81 917,81 918,81 918,81 919,81 919,81 920,81 920,81 921,80 921,80 922,80 922,82 923,82 923,82 924,83 924,83 925,83 925,84 926,84 926,84 927,84 927,85 928,84 928,84 929,84 929,84 930,84 930,85 931,86 931,85 932,84 932,84 933,84 933,85 934,85 934,85 934,86 935,85 935,85 935,86 936,87 936,87 937,86 937,87 938,87 938,88 939,88 939,88 940,88 940,88 941,89 941,88 942,88 942,88 943,88 943,89 944,88 944,88 945,88 945,89 946,88 946,88 947,88 947,87 948,87 948,87 949,88 949,88 950,86 950,86 951,87 951,87 952,87 952,87 953,87 953,87 954,88 954,88 955,88 955,87 955,87 956,87 956,87 957,87 957,88 958,87 958,88 959,88 959,89 960,89 960,89 961,89 961,90 962,90 962,90 963,90 963,90 964,91 964,91 965,92 965,92 966,92 966,93 967,94 967,93 968,93 968,91 969,91 969,91 970,91 970,92 971,91 971,91 972,92 972,93 973,93 973,93 974,93 974,93 975,93 975,94 976,94 976,93 976,94 977,94 977,93 978,92 978,93 979,93 979,94 980,94 980,95 981,95 981,95 982,94 982,95 983,95 983,95 984,95 984,95 985,94 985,94 986,94 986,93 987,94 987,94 988,94 988,94 989,95 989,95 990,95 990,95 991,94 991,94 992,95 992,95 993,95 993,95 994,94 994,94 995,94 995,94 996,94 996,94 997,94 997,94 998,95 998,95 998,94 999,94 999,94 1000,95 1000,95 1001,96 1001,96 1002,96 1002,96 1003,96 1003,96 1004,96 1004,97 1004,97 1004,97 1005,96 1005,96 1005,95 1006,95 1006,96 1006,96 1007,96 1007,96 1007,96 1007,96 1008,96 1008,96 1008,96 1008,96 1009,96 1009,95 1009,95 1009,95 1010,95 1010,95 1010,95 1010,94 1011,94 1011,94 1011,94 1011,93 1012,93 1012,93 1012,94 1013,94 1013,94 1013,94 1014,94 1014,95 1014,95 1014,95 1015,95 1015,95 1015,95 1015,95 1016,95 1016,96 1016,96 1017,96 1017,95 1017,95 1017,95 1018,96 1018,96 1018,96 1018,96 1019,96 1019,96 1019,96 1019,96 1019,96 1019,96 1020,96 1020,96 1020,96 1020,95 1021,95 1021,95 1021,96 1022,96 1022,96 1022,96 1022,96 1023,96 1023,97 1023,97 1023,97 1024,97 1024,97 1024,97 1024,97 1025,97 1025,97 1025,97 1025,97 1026,97 1026,97 1026,97 1026,98 1027,98 1027,98 1028,98 1028,98 1028,98 1028,99 1029,99 1029,98 1029,98 1029,98 1030,98 1030,98 1030,98 1030,98 1031,98 1031,98 1031,98 1031,98 1032,98 1032,98 1032,98 1033,98 1033,97 1033,97 1033,97 1034,97 1034,97 1034,97 1034,97 1035,97 1035,97 1035,97 1036,97 1036,98 1036,98 1036,98 1037,98 1037,97 1037,97 1037,97 1038,97 1038,98 1038,98 1038,97 1039,97 1039,98 1039,98 1039,98 1040,98 1040,98 1040,98 1040,98 1040,98 1040,98 1041,98 1041,98 1041,98 1041,98 1042,98 1042,98 1042,98 1042,97 1043,97 1043,97 1043,97 1043,98 1044,98 1044,97 1044,97 1045,97 1045,98 1045,98 1045,98 1046,98 1046,97 1046,97 1046,96 1047,96 1047,97 1047,97 1047,96 1048,96 1048,96 1048,96 1048,97 1049,97 1049,97 1049,97 1050,97 1050,97 1050,97 1050,96 1051,96 1051,95 1051,95 1051,96 1052,96 1052,96 1052,96 1053,96 1053,96 1053,96 1054,96 1054,96 1054,96 1055,96 1055,95 1055,95 1055,94 1056,94 1056,94 1056,94 1056,95 1057,95 1057,95 1057,95 1057,95 1058,95 1058,95 1058,95 1058,95 1059,95 1059,95 1059,95 1060,95 1060,95 1060,95 1060,95 1061,95 1061,95 1061,95 1061,95 1062,95 1062,95 1062,95 1062,96 1062,96 1062,95 1063,95 1063,95 1063,95 1063,94 1064,94 1064,94 1064,94 1064,94 1065,94 1065,94 1065,94 1065,88 1066,88 1066,88 1066,88 1066,88 1067,89 1067,89 1067,89 1068,89 1068,89 1068,89 1068,89 1069,89 1069,89 1069,89 1069,89 1070,89 1070,88 1070,88 1070,89 1071,89 1071,89 1071,89 1072,89 1072,90 1072,90 1072,90 1073,90 1073,89 1073,89 1073,89 1074,89 1074,89 1074,89 1074,90 1075,90 1075,90 1075,90 1075,89 1076,89 1076,89 1076,89 1076,89 1077,89 1077,90 1077,90 1077,89 1078,89 1078,90 1078,90 1078,90 1079,90 1079,90 1079,90 1079,90 1080,90 1080,89 1080,90 1081,90 1081,92 1081,92 1081,92 1082,92 1082,92 1082,92 1082,92 1083,92 1083,93 1083,93 1083,94 1083,94 1083,93 1084,93 1084,93 1084,93 1084,93 1085,93 1085,94 1085,94 1085,94 1086,94 1086,94 1086,94 1086,95 1087,95 1087,95 1087,95 1087,95 1088,95 1088,96 1088,96 1088,96 1089,96 1089,96 1089,96 1089,96 1090,96 1090,97 1090,97 1090,97 1091,97 1091,96 1091,96 1091,96 1092,96 1092,96 1092,96 1092,96 1093,96 1093,95 1093,95 1093,95 1094,94 1094,94 1094,94 1095,94 1095,94 1095,94 1096,94 1096,94 1096,94 1096,93 1097,93 1097,94 1097,94 1097,94 1098,94 1098,94 1098,94 1098,94 1099,94 1099,94 1099,94 1099,94 1100,94 1100,94 1100,94 1100,94 1101,94 1101,94 1101,94 1102,94 1102,94 1102,94 1102,94 1103,94 1103,94 1103,94 1103,94 1104,94 1104,94 1104,94 1104,95 1104,95 1104,94 1105,94 1105,94 1105,94 1105,94 1106,94 1106,93 1106,93 1106,93 1107,93 1107,93 1107,93 1107,93 1108,93 1108,93 1108,93 1108,94 1109,94 1109,93 1109,93 1109,93 1110,93 1110,94 1110,94 1110,95 1111,95 1111,95 1111,95 1111,94 1112,94 1112,95 1112,95 1112,95 1113,95 1113,95 1113,95 1113,96 1114,96 1114,96 1114,96 1114,95 1115,95 1115,95 1115,95 1115,96 1116,96 1116,96 1116,96 1116,96 1117,96 1117,96 1117,96 1117,96 1118,96 1118,96 1118,96 1118,96 1119,96 1119,95 1119,95 1119,95 1120,95 1120,96 1120,96 1120,96 1121,96 1121,96 1121,96 1121,96 1122,96 1122,96 1122,96 1122,96 1123,96 1123,96 1123,96 1123,96 1124,96 1124,96 1124,96 1125,96 1125,96 1125,96 1125,97 1126,97 1126,97 1126,97 1126,97 1126,97 1126,97 1127,97 1127,97 1127,97 1127,97 1128,97 1128,96 1128,96 1128,97 1129,97 1129,97 1129,97 1129,97 1130,97 1130,97 1130,97 1130,98 1131,98 1131,98 1131,98 1131,98 1132,98 1132,98 1132,98 1132,98 1133,98 1133,122 1133,122 1134,122 1134,122 1134,122 1134,122 1135,122 1135,122 1135,122 1135,122 1136,122 1136,122 1136,122 1137,122 1137,123 1137,123 1137,123 1138,123 1138,123 1138,123 1138,124 1139,124 1139,124 1139,124 1139,123 1140,123 1140,123 1140,123 1140,123 1141,123 1141,123 1141,123 1141,123 1142,123 1142,124 1142,124 1142,124 1143,124 1143,123 1143,123 1143,123 1144,123 1144,123 1144,123 1144,123 1145,123 1145,124 1145,124 1145,124 1146,124 1146,124 1146,124 1146,125 1147,125 1147,126 1147,126 1147,126 1147,126 1147,126 1148,126 1148,126 1148,126 1148,126 1149,126 1149,126 1149,126 1149,126 1150,126 1150,125 1150,125 1150,125 1151,125 1151,125 1151,125 1151,124 1152,124 1152,123 1152,123 1152,124 1153,124 1153,124 1153,124 1154,124 1154,124 1154,124 1154,124 1155,124 1155,124 1155,124 1155,121 1156,121 1156,121 1156,121 1156,121 1157,121 1157,121 1157,121 1157,121 1158,121 1158,122 1158,122 1158,122 1159,122 1159,122 1159,122 1159,122 1160,122 1160,122 1160,122 1160,121 1161,121 1161,120 1161,120 1161,120 1162,120 1162,119 1162,120 1162,120 1163,120 1163,120 1163,120 1163,119 1164,119 1164,119 1164,119 1164,119 1165,119 1165,119 1165,119 1165,120 1166,119 1166,119 1166,119 1166,119 1167,119 1167,119 1167,119 1167,119 1168,119 1168,120 1168,120 1168,119 1168,119 1168,120 1169,120 1169,120 1169,120 1169,120 1170,120 1170,119 1170,120 1170,120 1171,120 1171,120 1171,120 1171,120 1172,120 1172,121 1172,121 1172,121 1173,121 1173,121 1173,121 1173,121 1174,121 1174,121 1174,121 1174,122 1175,122 1175,122 1175,122 1175,122 1176,122 1176,122 1176,122 1176,122 1177,122 1177,122 1177,122 1177,122 1178,122 1178,122 1178,122 1178,122 1179,122 1179,122 1179,122 1179,122 1180,122 1180,122 1180,122 1181,122 1181,122 1181,122 1181,123 1182,123 1182,123 1182,123 1182,124 1183,124 1183,123 1183,123 1183,124 1184,124 1184,126 1184,126 1184,126 1185,126 1185,127 1185,127 1185,128 1186,128 1186,130 1186,130 1186,130 1187,130 1187,131 1187,131 1187,131 1188,131 1188,131 1188,131 1188,131 1189,131 1189,131 1189,131 1189,132 1190,132 "/>
<polyline fill="none" opacity="1" stroke="#19E66B" stroke-width="2" points="60,647 60,659 61,671 68,688 74,656 74,643 80,639 82,624 86,612 90,612 92,606 93,644 93,638 97,641 100,631 105,631 106,626 113,627 115,624 116,630 120,633 130,633 134,627 135,624 136,625 137,626 139,623 141,625 142,626 143,627 143,627 145,625 146,630 147,631 147,631 148,627 148,624 149,625 149,625 150,619 151,609 151,609 152,610 152,607 153,607 153,608 154,608 154,609 155,609 155,610 156,606 156,607 157,608 157,608 158,609 159,609 160,610 160,607 161,608 161,608 162,609 162,605 163,602 164,603 164,604 165,604 165,598 166,598 166,599 167,599 167,593 168,590 168,591 169,591 170,589 170,589 171,590 171,590 172,591 172,591 173,591 173,591 174,592 175,590 176,591 177,591 178,591 179,596 180,593 180,594 181,591 181,589 182,586 182,586 183,587 184,588 185,589 186,589 186,587 187,587 187,588 188,589 188,586 189,584 191,585 191,586 192,586 192,584 193,584 193,584 194,585 195,586 195,586 196,586 196,587 197,587 198,588 198,583 199,580 199,581 200,581 201,581 201,581 202,582 202,582 203,583 203,580 204,581 205,581 205,581 207,571 208,572 208,570 209,568 209,568 210,568 210,569 211,569 211,567 212,567 212,567 213,568 213,568 214,568 214,568 215,569 216,569 217,570 217,570 218,568 218,568 219,569 219,569 220,569 220,570 221,570 221,570 222,569 223,570 223,570 224,568 225,569 225,569 226,569 226,569 227,570 227,570 228,571 229,571 229,571 230,572 230,572 230,572 231,568 232,568 233,569 234,569 234,569 235,567 235,568 236,568 237,569 237,569 238,568 239,563 239,563 240,564 240,555 241,555 241,556 242,551 242,552 243,553 243,553 244,553 245,554 245,554 246,554 247,555 247,555 248,553 248,551 249,549 249,550 250,550 250,548 251,549 251,549 251,550 252,548 252,548 253,549 254,549 254,550 255,550 255,551 256,549 256,550 257,550 257,550 258,550 258,551 259,551 259,551 260,550 260,550 261,550 261,550 262,551 262,549 263,549 263,550 264,550 264,551 265,551 265,551 266,551 266,552 267,552 267,553 268,553 268,553 269,554 269,550 270,551 270,551 271,551 271,548 272,546 272,546 273,546 273,547 273,545 274,544 274,546 275,547 275,547 276,546 276,544 277,543 277,541 278,542 278,538 279,538 279,539 280,539 280,539 281,540 282,540 282,539 283,539 283,540 284,538 285,539 285,538 286,539 286,539 287,540 287,540 288,540 288,541 289,538 289,538 290,538 290,539 291,537 291,537 292,538 292,538 293,536 293,537 294,536 294,536 294,536 295,537 295,537 296,535 296,534 297,534 297,535 298,535 298,536 299,536 299,535 300,536 300,534 301,535 301,535 302,536 302,537 303,537 303,537 304,537 304,538 305,538 305,538 306,539 306,539 307,539 307,540 308,540 308,539 309,539 309,539 310,539 310,536 311,537 311,535 313,536 313,537 314,535 314,536 315,535 315,533 315,534 316,532 316,533 317,534 317,534 318,535 318,535 319,535 319,536 320,536 320,535 321,535 321,535 322,536 322,534 323,533 323,533 324,534 324,534 325,533 325,533 326,533 326,534 327,533 327,533 328,533 328,534 329,534 330,532 331,532 331,533 332,533 332,534 333,532 333,533 334,533 334,533 335,532 335,533 336,533 337,533 337,534 337,534 338,533 338,533 339,534 339,534 340,534 340,535 341,535 341,536 342,536 342,536 343,535 343,536 344,536 344,536 345,537 345,537 346,537 346,539 347,538 347,537 348,539 348,539 349,540 349,540 350,538 350,539 351,539 351,539 352,538 352,538 353,539 353,539 354,539 354,539 355,540 355,539 356,539 356,538 357,538 357,538 358,539 358,538 358,538 359,538 359,539 360,539 360,539 361,540 361,540 362,541 362,541 363,540 363,540 364,539 364,537 365,537 365,537 366,537 366,538 367,538 367,538 368,539 368,539 369,539 369,539 370,540 370,540 371,540 371,539 372,540 372,539 373,539 373,540 374,540 374,539 375,538 375,537 376,538 376,538 377,539 377,539 378,538 378,537 379,537 379,537 379,538 380,538 380,538 381,539 381,539 382,540 382,544 383,544 383,545 384,544 384,544 385,544 385,545 386,545 386,544 387,544 387,545 388,544 388,544 389,544 389,545 390,545 390,545 391,546 391,546 392,546 393,547 393,547 394,547 394,545 395,546 395,547 396,547 396,547 397,547 397,549 398,549 398,548 399,549 399,549 400,550 400,551 401,551 401,551 401,550 402,550 402,550 403,551 403,551 404,550 404,550 405,551 405,551 406,551 406,551 407,549 407,549 408,550 408,549 409,549 409,549 410,549 410,550 411,550 411,550 412,551 412,551 413,551 413,552 414,552 414,551 415,551 415,551 416,552 416,552 417,551 417,553 418,553 418,553 419,553 419,552 420,553 420,553 421,553 421,552 422,552 422,552 422,551 423,551 423,551 424,552 424,552 425,551 425,551 426,551 426,552 427,552 427,552 428,551 428,551 429,550 429,551 430,551 430,551 431,552 431,552 432,552 433,552 433,553 434,553 434,553 435,554 435,554 436,552 436,553 437,553 437,553 438,554 438,554 439,552 439,552 440,551 440,551 441,550 441,548 442,549 442,549 443,549 443,549 443,550 444,549 444,550 445,550 445,550 446,549 446,550 447,550 447,550 448,552 448,552 449,552 449,553 450,553 450,554 451,554 451,554 452,554 452,554 453,554 453,555 454,555 454,555 455,556 455,556 456,556 456,556 457,558 457,558 458,557 458,557 459,557 459,557 460,558 460,558 461,558 461,558 462,559 462,558 463,558 463,559 464,559 464,559 465,560 465,560 465,560 466,560 466,560 467,560 467,561 468,562 468,563 469,563 469,564 470,565 470,565 471,563 471,565 472,565 472,565 473,565 473,566 474,566 474,566 475,566 475,566 476,566 476,567 477,568 477,568 478,568 478,569 479,569 479,569 480,570 480,570 481,571 481,571 482,571 482,571 483,571 483,571 484,570 484,570 485,570 485,570 486,570 486,571 486,571 487,571 487,571 488,572 488,572 489,572 489,572 490,572 490,572 491,572 491,573 492,572 492,572 493,573 493,573 494,573 494,573 495,574 495,574 496,574 496,574 497,574 497,575 498,575 498,576 499,576 499,574 500,575 500,576 501,576 501,576 502,575 502,575 503,574 503,575 504,574 504,574 505,573 505,575 506,575 506,575 507,575 507,576 507,577 508,577 508,576 509,576 509,576 510,576 510,577 511,577 511,578 512,579 512,578 513,578 513,579 514,579 514,579 515,580 515,580 516,579 516,580 517,580 517,580 518,580 518,580 519,580 519,580 520,581 520,580 521,581 521,581 522,581 522,581 523,582 523,581 524,581 524,582 525,582 525,582 526,582 526,582 527,582 527,582 528,582 528,583 529,583 529,583 529,583 530,583 530,583 531,584 531,584 532,584 532,584 533,585 533,585 534,585 534,586 535,586 535,586 536,586 536,586 537,587 537,587 538,587 538,587 539,587 539,587 540,587 540,587 541,588 541,588 542,588 542,588 543,589 543,589 544,589 544,589 545,589 545,589 546,590 546,590 547,590 547,590 548,590 548,590 549,590 549,591 550,591 550,591 550,591 551,591 551,591 552,592 552,592 553,592 553,592 554,592 554,593 555,593 555,593 556,593 556,593 557,593 557,593 558,593 558,594 559,594 559,594 560,593 560,594 561,594 561,593 562,594 562,595 563,594 563,594 564,594 564,594 565,595 565,595 566,595 566,595 567,595 567,596 568,596 568,596 569,597 569,597 570,597 570,597 571,597 571,598 571,598 572,598 572,597 573,598 573,598 574,598 574,598 575,598 575,599 576,599 576,600 577,600 577,600 578,601 578,601 579,601 579,601 580,600 580,600 581,600 581,600 582,600 582,601 583,601 583,601 584,601 584,602 585,602 585,602 586,602 586,602 587,603 587,603 588,603 588,603 589,604 589,604 590,604 590,604 591,604 591,605 592,605 592,605 593,604 593,605 593,605 594,605 595,605 595,605 596,606 596,605 597,605 597,605 598,605 598,606 599,606 599,606 600,607 600,607 601,607 601,607 602,606 602,606 603,606 603,606 604,607 604,607 605,607 605,607 606,608 606,608 607,608 607,608 608,608 608,608 609,608 609,608 610,608 610,608 611,608 611,608 612,608 612,608 613,609 613,609 614,608 614,608 614,609 615,609 615,609 616,609 616,609 617,609 617,609 618,609 618,609 619,609 619,609 620,609 620,609 621,608 621,609 622,609 622,609 623,609 623,610 624,610 624,610 625,610 625,610 626,610 626,610 627,611 627,611 628,611 628,610 629,611 629,611 630,611 630,611 631,612 631,612 632,612 632,612 633,612 633,613 634,613 634,613 635,613 635,613 635,614 636,614 636,614 637,614 637,614 638,614 638,614 639,614 639,615 640,615 640,614 641,615 641,615 642,615 642,615 643,615 643,616 644,616 644,616 645,616 645,616 646,616 646,616 647,616 647,616 648,616 648,616 649,617 649,617 650,617 650,617 651,617 651,617 652,617 652,617 653,617 653,618 654,618 654,618 655,618 655,618 656,618 656,619 656,619 657,619 657,619 658,620 658,620 659,620 659,620 660,620 660,621 661,620 661,621 662,621 662,621 663,621 663,621 664,621 664,621 665,621 665,621 666,621 666,622 667,621 667,621 668,622 668,622 669,622 669,623 670,623 670,623 671,623 671,623 672,623 672,623 673,623 673,624 674,624 674,624 675,624 675,624 676,625 676,625 677,625 677,625 678,625 678,624 678,624 679,624 679,625 680,625 680,625 681,626 681,626 682,626 682,625 683,625 683,625 684,626 684,626 685,626 685,626 686,626 686,626 687,626 687,626 688,626 688,626 689,626 689,627 690,627 690,627 691,627 691,627 692,627 692,627 693,627 693,627 694,628 694,627 695,627 695,627 696,628 696,628 697,628 697,628 698,628 698,628 699,628 699,628 699,629 700,629 700,628 701,628 701,628 702,629 702,629 703,628 703,628 704,629 704,629 705,629 705,629 706,629 706,628 707,628 707,628 708,628 708,629 709,628 709,628 710,629 710,629 711,629 711,629 712,629 712,629 713,629 713,629 714,629 714,630 715,630 715,629 716,629 716,629 717,630 717,630 718,630 718,630 719,630 719,630 720,630 720,630 720,630 721,630 721,631 722,631 722,631 723,632 723,632 724,632 724,631 725,632 725,632 726,632 726,632 727,632 727,632 728,632 728,632 729,632 729,632 730,632 730,632 731,633 731,633 732,633 732,633 733,634 733,634 734,634 734,634 735,635 735,635 736,635 736,635 737,635 737,635 738,635 738,636 739,636 739,636 740,636 740,636 741,637 741,637 742,637 742,637 742,637 743,637 743,636 744,636 744,637 745,637 745,637 746,637 746,637 746,637 747,637 747,637 748,637 748,637 749,637 749,637 750,637 750,637 751,637 751,637 752,638 752,638 753,638 753,638 754,638 754,638 755,638 755,638 756,639 756,638 757,638 757,638 758,639 758,639 759,639 759,639 760,639 760,639 761,639 761,639 762,639 762,639 763,639 763,639 763,639 764,639 764,639 765,639 765,640 766,640 766,640 767,640 767,640 768,640 768,639 769,639 769,640 770,640 770,640 771,640 771,640 772,640 772,640 773,640 773,640 774,640 774,640 775,640 775,640 776,640 776,640 777,640 777,640 778,641 778,641 779,641 779,641 780,641 780,641 781,641 781,641 782,641 782,641 783,641 783,641 784,641 784,641 784,641 785,641 785,641 786,641 786,641 787,641 787,641 788,641 788,641 789,641 789,642 790,642 790,642 791,642 791,642 792,642 792,642 793,642 793,642 794,642 794,642 795,643 795,643 796,643 796,643 797,644 797,647 798,647 798,647 799,644 799,644 800,644 800,644 801,644 801,644 802,644 802,644 803,644 803,644 804,644 804,645 805,645 805,645 806,645 806,645 806,645 807,645 807,645 808,645 808,645 809,646 809,646 810,646 810,646 811,646 811,646 812,646 812,647 813,647 813,647 814,647 814,647 815,647 815,647 816,647 816,647 817,647 817,647 818,648 818,648 819,648 819,648 820,648 820,648 821,648 821,649 822,649 822,649 823,649 823,649 824,649 824,649 825,649 825,649 826,649 826,649 827,650 827,650 827,650 828,650 828,650 829,650 829,650 830,650 830,650 831,650 831,651 832,651 832,651 833,651 833,651 834,651 834,651 835,651 835,651 836,652 836,651 837,651 837,652 838,652 838,652 839,652 839,652 840,652 840,652 841,652 841,652 842,652 842,653 843,653 843,653 844,653 844,653 845,653 845,653 846,653 846,653 847,653 847,653 848,653 848,654 848,654 849,654 849,654 850,654 850,654 851,654 851,654 852,654 852,654 853,654 853,655 854,655 854,655 855,655 855,655 856,656 856,656 857,656 857,656 858,656 858,656 859,656 859,656 860,656 860,656 861,656 861,656 862,657 862,657 863,657 863,657 864,657 864,657 865,657 865,657 866,657 866,657 867,657 867,657 868,657 868,658 869,658 869,658 870,658 870,658 870,658 871,658 871,658 872,658 872,658 873,658 873,659 874,659 874,659 875,659 875,659 876,659 876,659 877,660 877,660 878,660 878,660 879,660 879,660 880,660 880,660 881,660 881,660 882,660 882,660 883,660 883,660 884,660 884,661 885,661 885,661 886,661 886,661 887,661 887,661 888,661 888,661 889,661 889,661 890,662 890,662 891,662 891,662 891,662 892,662 892,662 893,663 893,663 894,663 894,663 895,663 895,663 896,663 896,664 897,664 897,664 898,664 898,664 899,664 899,664 900,664 900,664 901,664 901,664 902,664 902,664 903,665 903,665 904,665 904,665 905,665 905,665 906,665 906,665 907,665 907,665 908,665 908,665 909,665 909,665 910,665 910,665 911,665 911,665 912,665 912,665 912,666 913,666 913,666 914,666 914,666 915,666 915,666 916,666 916,666 917,667 917,667 918,667 918,667 919,667 919,667 920,667 920,667 921,667 921,667 922,667 922,667 923,668 923,668 924,668 924,668 925,668 925,668 926,668 926,668 927,668 927,668 928,668 928,668 929,668 929,669 930,669 930,669 931,669 931,669 932,669 932,669 933,669 933,669 934,669 934,669 934,669 935,669 935,669 935,669 936,669 936,669 937,669 937,669 938,669 938,670 939,670 939,670 940,670 940,670 941,670 941,670 942,670 942,670 943,670 943,670 944,670 944,670 945,671 945,671 946,671 946,671 947,671 947,671 948,671 948,671 949,671 949,671 950,672 950,672 951,672 951,672 952,673 952,673 953,673 953,673 954,673 954,673 955,673 955,673 955,673 956,673 956,673 957,673 957,673 958,673 958,673 959,674 959,674 960,673 960,674 961,674 961,674 962,674 962,674 963,674 963,674 964,674 964,674 965,674 965,674 966,674 966,674 967,675 967,675 968,675 968,675 969,675 969,675 970,675 970,675 971,675 971,675 972,675 972,675 973,676 973,676 974,676 974,676 975,676 975,676 976,676 976,676 976,677 977,676 977,676 978,676 978,676 979,676 979,676 980,676 980,676 981,677 981,677 982,677 982,677 983,677 983,677 984,677 984,677 985,677 985,677 986,677 986,677 987,677 987,677 988,678 988,678 989,678 989,678 990,678 990,678 991,678 991,678 992,678 992,678 993,678 993,678 994,678 994,679 995,679 995,679 996,679 996,679 997,679 997,679 998,679 998,679 998,679 999,679 999,679 1000,680 1000,680 1001,680 1001,680 1002,680 1002,680 1003,680 1003,680 1004,680 1004,680 1004,680 1004,680 1005,680 1005,680 1005,681 1006,681 1006,681 1006,680 1007,680 1007,680 1007,680 1007,681 1008,681 1008,681 1008,681 1008,681 1009,681 1009,681 1009,681 1009,681 1010,681 1010,681 1010,681 1010,681 1011,681 1011,681 1011,681 1011,682 1012,682 1012,682 1012,682 1013,682 1013,682 1013,682 1014,682 1014,682 1014,682 1014,682 1015,682 1015,682 1015,682 1015,682 1016,682 1016,682 1016,682 1017,682 1017,682 1017,682 1017,682 1018,682 1018,682 1018,682 1018,683 1019,683 1019,683 1019,683 1019,683 1019,683 1019,683 1020,683 1020,683 1020,683 1020,683 1021,683 1021,683 1021,683 1022,683 1022,683 1022,683 1022,683 1023,683 1023,683 1023,683 1023,683 1024,683 1024,683 1024,683 1024,683 1025,683 1025,684 1025,684 1025,684 1026,684 1026,684 1026,684 1026,684 1027,684 1027,684 1028,684 1028,684 1028,684 1028,684 1029,684 1029,684 1029,684 1029,684 1030,684 1030,684 1030,684 1030,684 1031,684 1031,684 1031,684 1031,684 1032,684 1032,684 1032,684 1033,684 1033,684 1033,684 1033,684 1034,684 1034,684 1034,684 1034,684 1035,684 1035,684 1035,685 1036,685 1036,685 1036,685 1036,685 1037,685 1037,685 1037,685 1037,685 1038,685 1038,685 1038,685 1038,685 1039,685 1039,685 1039,685 1039,685 1040,685 1040,685 1040,685 1040,685 1040,685 1040,686 1041,686 1041,686 1041,686 1041,686 1042,686 1042,686 1042,686 1042,686 1043,686 1043,686 1043,686 1043,686 1044,686 1044,686 1044,686 1045,686 1045,686 1045,686 1045,686 1046,686 1046,687 1046,687 1046,687 1047,687 1047,686 1047,686 1047,687 1048,687 1048,687 1048,687 1048,687 1049,687 1049,687 1049,687 1050,687 1050,687 1050,687 1050,687 1051,687 1051,687 1051,687 1051,687 1052,687 1052,687 1052,687 1053,687 1053,687 1053,687 1054,687 1054,687 1054,687 1055,687 1055,687 1055,687 1055,687 1056,687 1056,687 1056,687 1056,687 1057,687 1057,687 1057,687 1057,687 1058,687 1058,688 1058,688 1058,688 1059,688 1059,688 1059,688 1060,688 1060,688 1060,688 1060,688 1061,688 1061,688 1061,688 1061,688 1062,688 1062,688 1062,688 1062,688 1062,688 1062,688 1063,688 1063,688 1063,688 1063,688 1064,688 1064,688 1064,688 1064,688 1065,688 1065,688 1065,688 1065,688 1066,688 1066,688 1066,688 1066,688 1067,688 1067,688 1067,689 1068,689 1068,689 1068,689 1068,689 1069,689 1069,689 1069,689 1069,689 1070,689 1070,689 1070,689 1070,689 1071,689 1071,689 1071,689 1072,689 1072,689 1072,689 1072,689 1073,689 1073,689 1073,689 1073,689 1074,689 1074,689 1074,689 1074,689 1075,689 1075,689 1075,689 1075,689 1076,689 1076,689 1076,689 1076,690 1077,690 1077,690 1077,690 1077,690 1078,690 1078,690 1078,690 1078,690 1079,690 1079,690 1079,690 1079,690 1080,690 1080,690 1080,690 1081,690 1081,690 1081,690 1081,690 1082,690 1082,690 1082,690 1082,690 1083,690 1083,690 1083,690 1083,690 1083,690 1083,690 1084,690 1084,691 1084,691 1084,691 1085,691 1085,691 1085,691 1085,691 1086,691 1086,691 1086,691 1086,691 1087,691 1087,691 1087,691 1087,691 1088,691 1088,691 1088,691 1088,691 1089,691 1089,691 1089,691 1089,691 1090,691 1090,691 1090,691 1090,691 1091,691 1091,691 1091,691 1091,691 1092,691 1092,692 1092,692 1092,692 1093,692 1093,692 1093,692 1093,692 1094,692 1094,692 1094,692 1095,692 1095,692 1095,692 1096,692 1096,692 1096,692 1096,692 1097,692 1097,692 1097,692 1097,692 1098,692 1098,692 1098,692 1098,692 1099,692 1099,692 1099,692 1099,692 1100,692 1100,692 1100,692 1100,692 1101,692 1101,692 1101,693 1102,693 1102,693 1102,693 1102,693 1103,693 1103,693 1103,693 1103,693 1104,693 1104,693 1104,693 1104,693 1104,693 1104,693 1105,693 1105,693 1105,693 1105,693 1106,693 1106,693 1106,693 1106,693 1107,693 1107,693 1107,693 1107,693 1108,693 1108,693 1108,693 1108,693 1109,693 1109,693 1109,693 1109,693 1110,693 1110,693 1110,693 1110,694 1111,694 1111,694 1111,694 1111,694 1112,694 1112,694 1112,694 1112,694 1113,694 1113,694 1113,694 1113,694 1114,694 1114,694 1114,694 1114,694 1115,694 1115,694 1115,694 1115,694 1116,694 1116,694 1116,694 1116,694 1117,694 1117,694 1117,694 1117,694 1118,694 1118,694 1118,694 1118,694 1119,694 1119,694 1119,694 1119,694 1120,694 1120,694 1120,694 1120,694 1121,694 1121,694 1121,694 1121,694 1122,694 1122,694 1122,694 1122,694 1123,694 1123,694 1123,694 1123,694 1124,694 1124,694 1124,694 1125,694 1125,694 1125,694 1125,694 1126,694 1126,695 1126,695 1126,695 1126,695 1126,695 1127,695 1127,695 1127,695 1127,695 1128,695 1128,695 1128,695 1128,695 1129,695 1129,695 1129,695 1129,695 1130,695 1130,695 1130,695 1130,695 1131,695 1131,695 1131,695 1131,695 1132,695 1132,695 1132,695 1132,695 1133,695 1133,697 1133,697 1134,697 1134,697 1134,697 1134,697 1135,697 1135,697 1135,697 1135,697 1136,697 1136,697 1136,697 1137,697 1137,697 1137,697 1137,697 1138,697 1138,697 1138,697 1138,697 1139,697 1139,698 1139,698 1139,698 1140,698 1140,698 1140,698 1140,698 1141,698 1141,698 1141,698 1141,698 1142,698 1142,698 1142,698 1142,698 1143,698 1143,698 1143,698 1143,698 1144,698 1144,698 1144,698 1144,698 1145,698 1145,698 1145,698 1145,698 1146,698 1146,698 1146,698 1146,698 1147,698 1147,698 1147,698 1147,698 1147,698 1147,698 1148,698 1148,698 1148,698 1148,698 1149,698 1149,698 1149,698 1149,699 1150,699 1150,699 1150,699 1150,698 1151,698 1151,699 1151,699 1151,699 1152,699 1152,699 1152,699 1152,699 1153,699 1153,699 1153,699 1154,699 1154,699 1154,699 1154,699 1155,699 1155,699 1155,699 1155,699 1156,699 1156,699 1156,699 1156,699 1157,699 1157,699 1157,699 1157,699 1158,699 1158,699 1158,699 1158,699 1159,699 1159,699 1159,699 1159,699 1160,699 1160,699 1160,699 1160,699 1161,699 1161,699 1161,699 1161,699 1162,699 1162,699 1162,699 1162,699 1163,699 1163,699 1163,699 1163,699 1164,699 1164,699 1164,699 1164,699 1165,699 1165,700 1165,700 1165,700 1166,700 1166,700 1166,700 1166,700 1167,700 1167,700 1167,700 1167,700 1168,700 1168,700 1168,700 1168,700 1168,700 1168,700 1169,700 1169,700 1169,700 1169,700 1170,700 1170,700 1170,700 1170,700 1171,700 1171,700 1171,700 1171,700 1172,700 1172,700 1172,700 1172,700 1173,700 1173,700 1173,700 1173,700 1174,700 1174,700 1174,700 1174,700 1175,700 1175,701 1175,701 1175,700 1176,700 1176,700 1176,700 1176,700 1177,700 1177,700 1177,700 1177,700 1178,700 1178,700 1178,700 1178,700 1179,700 1179,700 1179,700 1179,700 1180,700 1180,700 1180,700 1181,700 1181,700 1181,700 1181,700 1182,700 1182,700 1182,700 1182,700 1183,700 1183,700 1183,700 1183,701 1184,701 1184,701 1184,701 1184,701 1185,701 1185,701 1185,701 1185,701 1186,701 1186,701 1186,701 1186,701 1187,701 1187,701 1187,701 1187,701 1188,701 1188,701 1188,701 1188,701 1189,701 1189,701 1189,701 1189,701 1190,701 "/>
<polyline fill="none" opacity="1" stroke="#196BE6" stroke-width="2" points="84,728 91,720 94,720 102,716 103,710 108,706 112,702 118,699 119,700 120,696 124,692 127,693 130,695 134,692 136,693 142,695 142,691 143,687 145,684 147,681 149,678 149,675 150,667 151,665 152,666 155,660 157,661 159,658 160,655 161,653 161,649 164,651 165,652 166,652 166,649 168,647 170,648 173,646 177,648 179,646 185,646 186,646 187,647 188,648 189,646 190,643 190,640 191,644 197,646 198,644 199,645 200,645 204,646 204,646 205,647 206,647 207,647 208,645 209,645 209,645 209,646 210,646 213,647 215,647 217,648 219,644 220,644 221,645 222,646 223,646 223,646 224,646 225,646 226,644 227,645 227,645 229,645 230,646 231,646 232,647 233,647 234,647 235,647 235,648 236,648 236,648 238,649 239,649 239,649 240,649 241,647 242,646 243,646 243,646 245,647 245,644 246,645 247,645 249,643 250,641 251,642 253,641 253,639 254,639 255,639 255,640 256,640 256,640 257,642 258,641 259,637 261,637 263,638 263,636 264,636 266,635 267,633 267,633 270,632 271,633 272,631 273,629 273,630 273,628 274,628 275,629 276,627 276,628 277,626 278,624 278,624 279,625 279,625 280,625 280,623 281,622 281,622 282,622 282,622 283,621 283,621 284,621 284,621 285,622 285,620 286,620 287,621 287,621 288,622 288,622 289,622 289,622 290,622 290,623 291,623 291,623 292,623 292,624 293,624 293,624 294,622 294,622 295,623 295,623 296,623 296,623 297,624 298,623 298,621 299,619 299,620 300,618 300,618 301,615 301,615 302,616 302,616 303,616 303,616 304,617 304,617 305,613 305,612 306,612 306,612 307,613 307,613 308,613 308,613 309,613 309,614 310,612 310,612 311,612 311,613 312,613 312,613 313,613 313,614 314,614 314,611 315,609 315,610 315,610 316,610 316,607 317,607 317,608 318,608 318,608 319,608 319,609 320,609 320,609 321,609 321,610 322,610 322,610 323,610 323,610 324,609 324,609 325,609 325,610 326,610 326,610 327,612 327,612 328,613 328,613 329,613 329,613 330,614 330,614 331,612 331,613 332,613 332,613 333,613 333,613 334,614 334,614 335,614 335,614 336,615 336,615 337,613 337,614 337,614 338,614 338,614 339,614 339,615 340,615 340,615 341,615 341,615 342,616 342,616 343,616 343,616 344,617 344,615 345,614 345,613 346,613 346,613 347,613 347,614 348,614 348,614 349,614 349,614 350,615 350,615 351,615 351,615 352,615 352,615 353,616 353,616 354,616 354,615 355,615 355,615 356,615 356,615 357,616 357,616 358,616 358,616 358,617 359,617 359,615 360,616 360,616 361,616 361,616 362,615 362,615 363,616 363,616 364,616 364,616 365,616 365,617 366,617 366,616 367,616 367,616 368,616 368,616 369,616 369,616 370,617 370,616 371,616 371,616 372,616 372,616 373,617 373,617 374,617 374,618 375,618 375,615 376,614 376,615 377,615 377,616 378,615 378,615 379,616 379,614 379,615 380,613 380,612 381,612 381,613 382,613 382,615 383,616 383,616 384,616 384,617 385,617 385,617 386,617 386,616 387,616 387,615 388,616 388,616 389,615 389,615 390,615 391,615 391,615 392,616 392,616 393,616 393,616 394,616 394,617 395,617 395,618 396,618 396,618 397,618 397,618 398,619 398,619 399,619 399,619 400,619 400,620 401,620 401,620 401,620 402,620 402,620 403,621 403,621 404,622 404,622 405,621 406,621 406,621 407,621 407,616 408,617 408,618 409,618 409,618 410,618 410,619 411,619 411,619 412,619 412,619 413,620 413,621 414,621 414,620 415,620 415,620 416,621 416,620 417,620 417,619 418,619 418,619 419,619 419,619 420,620 420,620 421,620 421,620 422,620 422,621 422,622 423,621 423,621 424,621 425,621 425,622 426,622 426,622 427,622 427,622 428,622 428,623 429,623 429,624 430,624 430,624 431,624 431,624 432,625 432,625 433,625 433,624 434,624 434,624 435,624 435,623 436,623 436,623 437,624 437,624 438,623 438,622 439,623 439,623 440,623 440,623 441,623 441,622 442,621 442,621 443,622 443,622 443,622 444,622 444,622 445,620 445,621 446,620 446,621 447,620 447,618 448,616 448,617 449,617 449,617 450,617 450,618 451,618 451,618 452,618 452,618 453,618 453,618 454,618 454,618 455,619 455,619 456,618 456,619 457,619 458,620 458,620 459,620 459,620 460,621 460,621 461,621 461,620 462,620 462,621 463,621 463,620 464,620 464,620 465,621 465,621 465,621 466,621 466,622 467,622 467,622 468,622 468,623 469,623 469,623 470,623 470,624 471,624 471,624 472,624 472,624 473,624 473,624 474,625 474,625 475,625 475,625 476,626 476,626 477,626 477,626 478,626 478,626 479,627 479,626 480,626 480,625 481,625 481,625 482,625 482,625 483,624 483,624 484,624 484,625 485,625 485,624 486,622 486,623 486,623 487,622 487,622 488,622 488,622 489,622 489,622 490,622 490,622 491,623 491,623 492,623 492,621 493,622 493,622 494,622 494,622 495,622 495,622 496,623 496,623 497,623 497,621 498,623 498,623 499,621 499,621 500,622 500,620 501,620 501,620 502,620 502,620 503,620 503,620 504,620 504,621 505,621 505,621 506,621 506,620 507,620 507,620 507,621 508,622 508,621 509,621 509,621 510,622 510,622 511,622 511,622 512,623 512,623 513,623 513,623 514,623 514,623 515,623 515,623 516,623 516,624 517,624 517,623 518,623 518,624 519,624 519,624 520,623 520,624 521,624 521,624 522,624 522,625 523,625 523,625 524,625 524,625 525,625 525,625 526,624 526,624 527,624 527,625 528,625 528,625 529,625 529,625 529,625 530,626 530,626 531,626 531,626 532,626 532,626 533,627 533,626 534,626 534,626 535,626 535,627 536,627 536,627 537,627 537,627 538,627 538,627 539,627 539,626 540,626 540,627 541,626 541,626 542,626 542,627 543,625 543,625 544,626 544,626 545,625 545,625 546,625 546,624 547,624 547,624 548,624 548,625 549,625 549,625 550,625 550,625 550,625 551,626 551,626 552,626 552,625 553,626 553,626 554,626 554,626 555,626 555,626 556,626 556,627 557,627 557,627 558,627 558,627 559,627 559,628 560,628 560,627 561,627 561,627 562,627 562,627 563,627 563,627 564,627 564,627 565,627 565,627 566,627 566,627 567,627 567,627 568,627 568,627 569,627 569,627 570,627 570,627 571,627 571,627 571,627 572,627 572,628 573,628 573,628 574,628 574,628 575,628 575,629 576,629 576,629 577,629 577,629 578,629 578,630 579,630 579,630 580,630 580,630 581,630 581,630 582,631 582,631 583,631 583,631 584,631 584,631 585,632 585,632 586,632 586,632 587,632 587,632 588,633 588,633 589,633 589,632 590,633 590,633 591,633 591,633 592,633 592,633 593,633 593,633 593,633 594,633 594,633 595,631 595,632 596,632 596,632 597,632 597,632 598,632 598,632 599,632 599,632 600,632 600,632 601,633 601,633 602,633 602,633 603,633 603,633 604,633 604,633 605,633 605,634 606,633 606,633 607,634 607,634 608,634 608,634 609,633 609,633 610,634 610,634 611,635 611,635 612,635 612,635 613,635 613,635 614,635 614,635 614,634 615,634 615,634 616,634 616,634 617,634 617,633 618,633 618,633 619,634 619,634 620,634 620,634 621,634 621,634 622,633 622,633 623,633 623,633 624,633 624,633 625,632 625,633 626,633 626,633 627,633 627,633 628,633 628,633 629,633 629,633 630,633 630,633 631,633 631,633 632,633 632,634 633,634 633,634 634,634 634,634 635,634 635,634 635,634 636,634 636,635 637,635 637,635 638,635 638,635 639,635 639,635 640,635 640,635 641,635 641,635 642,635 642,635 643,635 643,636 644,636 644,636 645,636 645,636 646,636 646,636 647,636 647,636 648,636 648,636 649,637 649,637 650,637 650,637 651,637 651,638 652,638 652,637 653,637 653,638 654,638 654,638 655,638 655,638 656,638 656,638 656,639 657,639 657,639 658,639 658,639 659,640 659,640 660,640 660,640 661,640 661,640 662,640 662,640 663,640 663,640 664,640 664,640 665,640 665,641 666,641 666,641 667,640 667,640 668,640 668,640 669,639 669,640 670,640 670,639 671,639 671,639 672,640 672,639 673,639 673,639 674,640 674,640 675,640 675,640 676,640 676,640 677,640 677,641 678,641 678,641 678,641 679,641 679,641 680,641 680,641 681,641 681,641 682,641 682,641 683,641 683,642 684,642 684,642 685,642 685,641 686,641 686,642 687,641 687,641 688,641 688,642 689,642 689,642 690,642 690,642 691,642 691,642 692,642 692,642 693,642 693,642 694,642 694,642 695,642 695,642 696,643 696,643 697,643 697,643 698,643 698,644 699,644 699,644 699,644 700,644 700,644 701,644 701,644 702,644 702,644 703,645 703,645 704,645 704,645 705,645 705,645 706,645 706,645 707,645 707,645 708,645 708,646 709,646 709,646 710,646 710,646 711,646 711,646 712,646 712,645 713,646 713,646 714,646 714,646 715,646 715,646 716,647 716,647 717,647 717,647 718,647 718,646 719,646 719,646 720,647 720,647 720,647 721,647 721,648 722,648 722,648 723,648 723,648 724,649 724,649 725,648 725,648 726,649 726,649 727,649 727,649 728,649 728,649 729,649 729,649 730,649 730,649 731,649 731,649 732,650 732,650 733,649 733,650 734,650 734,650 735,650 735,649 736,650 736,649 737,649 737,649 738,650 738,650 739,650 739,650 740,650 740,650 741,650 741,650 742,650 742,650 742,651 743,651 743,650 744,650 744,650 745,650 745,650 746,650 746,650 746,650 747,651 747,651 748,651 748,651 749,651 749,651 750,652 750,652 751,652 751,652 752,652 752,652 753,652 753,652 754,652 754,652 755,652 755,653 756,654 756,653 757,653 757,653 758,653 758,653 759,652 759,652 760,653 760,653 761,653 761,653 762,653 762,653 763,653 763,653 763,653 764,653 764,653 765,653 765,653 766,653 766,653 767,653 767,653 768,653 768,653 769,653 769,654 770,654 770,654 771,654 771,654 772,654 772,654 773,654 773,654 774,654 774,655 775,655 775,655 776,655 776,655 777,655 777,655 778,655 778,655 779,655 779,654 780,654 780,655 781,655 781,655 782,655 782,655 783,655 783,655 784,655 784,655 784,654 785,653 785,653 786,653 786,654 787,654 787,654 788,654 788,655 789,655 789,655 790,655 790,655 791,655 791,655 792,655 792,655 793,655 793,655 794,656 794,656 795,656 795,656 796,656 796,656 797,656 797,660 798,660 798,660 799,656 799,657 800,657 800,657 801,657 801,657 802,657 802,657 803,657 803,657 804,657 804,658 805,658 805,658 806,658 806,658 806,658 807,658 807,658 808,659 808,659 809,659 809,659 810,659 810,659 811,659 811,659 812,659 812,660 813,659 813,659 814,660 814,659 815,659 815,659 816,660 816,660 817,660 817,660 818,660 818,660 819,660 819,661 820,661 820,661 821,661 821,661 822,661 822,661 823,661 823,661 824,660 824,660 825,660 825,660 826,660 826,660 827,660 827,660 827,660 828,660 828,660 829,660 829,660 830,660 830,660 831,661 831,660 832,660 832,661 833,661 833,661 834,661 834,661 835,661 835,661 836,661 836,661 837,661 837,661 838,661 838,661 839,662 839,662 840,662 840,662 841,662 841,662 842,662 842,662 843,662 843,662 844,662 844,662 845,662 845,663 846,663 846,663 847,663 847,663 848,663 848,663 848,663 849,663 849,663 850,663 850,663 851,663 851,663 852,663 852,662 853,663 853,663 854,663 854,663 855,663 855,663 856,663 856,663 857,663 857,663 858,663 858,663 859,663 859,663 860,663 860,663 861,663 861,663 862,663 862,663 863,663 863,663 864,664 864,664 865,664 865,664 866,664 866,664 867,664 867,664 868,664 868,664 869,664 869,664 870,664 870,664 870,665 871,665 871,664 872,664 872,665 873,665 873,665 874,665 874,665 875,665 875,665 876,665 876,665 877,665 877,665 878,665 878,666 879,666 879,666 880,666 880,666 881,666 881,666 882,666 882,666 883,666 883,666 884,666 884,667 885,667 885,667 886,667 886,667 887,667 887,667 888,667 888,667 889,667 889,667 890,667 890,668 891,668 891,668 891,668 892,668 892,668 893,668 893,668 894,668 894,668 895,668 895,668 896,668 896,668 897,668 897,668 898,669 898,669 899,669 899,669 900,669 900,669 901,669 901,669 902,669 902,669 903,669 903,669 904,669 904,669 905,669 905,669 906,669 906,669 907,669 907,669 908,669 908,669 909,669 909,669 910,669 910,669 911,669 911,669 912,669 912,669 912,670 913,669 913,669 914,670 914,670 915,670 915,670 916,670 916,670 917,670 917,670 918,670 918,670 919,670 919,670 920,670 920,670 921,670 921,670 922,670 922,670 923,670 923,670 924,670 924,670 925,670 925,670 926,670 926,670 927,670 927,670 928,670 928,670 929,670 929,670 930,670 930,671 931,671 931,671 932,671 932,671 933,671 933,671 934,671 934,672 934,671 935,671 935,671 935,672 936,672 936,672 937,672 937,671 938,671 938,671 939,672 939,672 940,672 940,672 941,672 941,672 942,672 942,672 943,672 943,672 944,671 944,672 945,671 945,671 946,671 946,671 947,671 947,672 948,672 948,672 949,672 949,672 950,672 950,672 951,672 951,672 952,672 952,672 953,672 953,672 954,672 954,672 955,672 955,672 955,672 956,672 956,673 957,673 957,672 958,672 958,672 959,672 959,672 960,672 960,673 961,673 961,673 962,673 962,673 963,673 963,673 964,673 964,673 965,673 965,673 966,673 966,673 967,673 967,673 968,673 968,674 969,674 969,674 970,674 970,674 971,674 971,674 972,674 972,674 973,674 973,674 974,675 974,675 975,675 975,675 976,675 976,675 976,675 977,675 977,675 978,675 978,675 979,675 979,676 980,676 980,676 981,676 981,676 982,676 982,676 983,676 983,676 984,676 984,676 985,676 985,677 986,677 986,677 987,677 987,677 988,677 988,677 989,677 989,677 990,677 990,677 991,677 991,677 992,677 992,678 993,678 993,678 994,678 994,678 995,678 995,678 996,678 996,678 997,678 997,678 998,678 998,678 998,678 999,678 999,678 1000,679 1000,679 1001,679 1001,679 1002,679 1002,679 1003,678 1003,678 1004,678 1004,678 1004,678 1004,678 1005,678 1005,678 1005,679 1006,679 1006,679 1006,679 1007,679 1007,679 1007,679 1007,679 1008,679 1008,679 1008,679 1008,679 1009,679 1009,679 1009,679 1009,680 1010,680 1010,679 1010,679 1010,679 1011,679 1011,680 1011,680 1011,680 1012,679 1012,679 1012,680 1013,680 1013,680 1013,680 1014,680 1014,680 1014,680 1014,680 1015,680 1015,680 1015,680 1015,680 1016,680 1016,680 1016,680 1017,680 1017,680 1017,680 1017,680 1018,680 1018,680 1018,680 1018,680 1019,680 1019,680 1019,680 1019,680 1019,680 1019,680 1020,680 1020,680 1020,680 1020,680 1021,681 1021,681 1021,681 1022,681 1022,681 1022,681 1022,681 1023,681 1023,681 1023,681 1023,681 1024,681 1024,681 1024,681 1024,680 1025,680 1025,681 1025,681 1025,681 1026,681 1026,681 1026,681 1026,681 1027,681 1027,681 1028,681 1028,681 1028,681 1028,681 1029,681 1029,681 1029,681 1029,681 1030,681 1030,681 1030,681 1030,681 1031,681 1031,681 1031,681 1031,681 1032,681 1032,681 1032,681 1033,681 1033,681 1033,681 1033,681 1034,681 1034,681 1034,681 1034,681 1035,681 1035,681 1035,681 1036,681 1036,682 1036,682 1036,682 1037,682 1037,682 1037,682 1037,682 1038,682 1038,682 1038,682 1038,682 1039,682 1039,682 1039,682 1039,682 1040,682 1040,682 1040,682 1040,682 1040,682 1040,682 1041,682 1041,682 1041,682 1041,682 1042,682 1042,682 1042,682 1042,682 1043,682 1043,682 1043,682 1043,682 1044,682 1044,682 1044,682 1045,682 1045,682 1045,682 1045,682 1046,682 1046,672 1046,672 1046,672 1047,672 1047,672 1047,672 1047,672 1048,672 1048,672 1048,672 1048,672 1049,672 1049,672 1049,672 1050,672 1050,672 1050,672 1050,672 1051,672 1051,672 1051,672 1051,672 1052,672 1052,672 1052,672 1053,672 1053,672 1053,672 1054,672 1054,672 1054,672 1055,672 1055,672 1055,672 1055,672 1056,672 1056,672 1056,672 1056,672 1057,672 1057,672 1057,672 1057,672 1058,672 1058,672 1058,672 1058,672 1059,672 1059,672 1059,672 1060,672 1060,672 1060,672 1060,672 1061,672 1061,672 1061,672 1061,672 1062,672 1062,672 1062,672 1062,672 1062,672 1062,672 1063,672 1063,672 1063,672 1063,673 1064,673 1064,673 1064,673 1064,673 1065,673 1065,673 1065,673 1065,673 1066,673 1066,673 1066,673 1066,673 1067,673 1067,673 1067,673 1068,673 1068,673 1068,673 1068,673 1069,673 1069,673 1069,673 1069,673 1070,673 1070,674 1070,674 1070,673 1071,673 1071,673 1071,673 1072,673 1072,673 1072,673 1072,673 1073,673 1073,673 1073,673 1073,674 1074,674 1074,674 1074,674 1074,674 1075,674 1075,674 1075,674 1075,674 1076,674 1076,674 1076,674 1076,674 1077,674 1077,674 1077,674 1077,674 1078,674 1078,674 1078,674 1078,674 1079,674 1079,674 1079,674 1079,674 1080,674 1080,674 1080,674 1081,674 1081,674 1081,674 1081,674 1082,674 1082,675 1082,675 1082,675 1083,675 1083,675 1083,675 1083,675 1083,675 1083,675 1084,675 1084,675 1084,675 1084,675 1085,675 1085,675 1085,675 1085,675 1086,675 1086,675 1086,675 1086,676 1087,676 1087,676 1087,676 1087,676 1088,676 1088,676 1088,676 1088,676 1089,676 1089,676 1089,676 1089,676 1090,676 1090,676 1090,676 1090,676 1091,676 1091,676 1091,676 1091,676 1092,676 1092,676 1092,676 1092,676 1093,676 1093,676 1093,676 1093,676 1094,676 1094,676 1094,676 1095,676 1095,676 1095,676 1096,676 1096,676 1096,676 1096,676 1097,676 1097,676 1097,676 1097,677 1098,677 1098,677 1098,677 1098,677 1099,677 1099,677 1099,677 1099,677 1100,677 1100,677 1100,677 1100,677 1101,677 1101,677 1101,677 1102,677 1102,677 1102,677 1102,677 1103,677 1103,677 1103,677 1103,677 1104,677 1104,677 1104,677 1104,677 1104,677 1104,678 1105,678 1105,678 1105,678 1105,678 1106,678 1106,678 1106,678 1106,678 1107,678 1107,678 1107,678 1107,678 1108,678 1108,678 1108,678 1108,678 1109,678 1109,678 1109,678 1109,678 1110,678 1110,678 1110,678 1110,678 1111,678 1111,678 1111,678 1111,678 1112,678 1112,678 1112,678 1112,678 1113,678 1113,678 1113,678 1113,678 1114,678 1114,678 1114,678 1114,678 1115,678 1115,678 1115,678 1115,678 1116,678 1116,679 1116,679 1116,679 1117,679 1117,679 1117,679 1117,679 1118,679 1118,679 1118,679 1118,679 1119,679 1119,679 1119,679 1119,679 1120,679 1120,679 1120,679 1120,679 1121,679 1121,679 1121,679 1121,679 1122,679 1122,679 1122,679 1122,679 1123,679 1123,679 1123,679 1123,679 1124,679 1124,679 1124,679 1125,679 1125,680 1125,680 1125,680 1126,680 1126,680 1126,680 1126,680 1126,680 1126,680 1127,680 1127,680 1127,680 1127,680 1128,680 1128,680 1128,680 1128,680 1129,680 1129,680 1129,680 1129,680 1130,680 1130,680 1130,680 1130,680 1131,680 1131,680 1131,680 1131,680 1132,680 1132,680 1132,680 1132,680 1133,680 1133,682 1133,682 1134,682 1134,682 1134,682 1134,682 1135,682 1135,682 1135,682 1135,682 1136,682 1136,682 1136,682 1137,682 1137,682 1137,682 1137,682 1138,682 1138,682 1138,682 1138,682 1139,682 1139,682 1139,682 1139,682 1140,682 1140,682 1140,682 1140,682 1141,682 1141,682 1141,682 1141,682 1142,682 1142,683 1142,683 1142,683 1143,683 1143,683 1143,683 1143,683 1144,683 1144,683 1144,683 1144,683 1145,683 1145,683 1145,683 1145,683 1146,683 1146,683 1146,683 1146,683 1147,683 1147,683 1147,683 1147,683 1147,683 1147,683 1148,683 1148,683 1148,683 1148,683 1149,683 1149,683 1149,683 1149,683 1150,683 1150,683 1150,683 1150,683 1151,683 1151,683 1151,683 1151,683 1152,683 1152,683 1152,683 1152,683 1153,683 1153,683 1153,683 1154,683 1154,683 1154,683 1154,684 1155,684 1155,684 1155,684 1155,687 1156,687 1156,687 1156,687 1156,687 1157,687 1157,686 1157,686 1157,687 1158,687 1158,687 1158,687 1158,687 1159,687 1159,687 1159,687 1159,687 1160,687 1160,687 1160,687 1160,687 1161,687 1161,687 1161,687 1161,687 1162,687 1162,687 1162,687 1162,687 1163,687 1163,687 1163,687 1163,687 1164,687 1164,687 1164,687 1164,687 1165,687 1165,687 1165,687 1165,687 1166,687 1166,687 1166,687 1166,687 1167,687 1167,687 1167,687 1167,687 1168,687 1168,687 1168,687 1168,687 1168,687 1168,687 1169,687 1169,688 1169,688 1169,688 1170,688 1170,687 1170,687 1170,688 1171,688 1171,688 1171,688 1171,688 1172,688 1172,688 1172,688 1172,688 1173,688 1173,688 1173,688 1173,688 1174,688 1174,688 1174,688 1174,688 1175,688 1175,688 1175,688 1175,688 1176,688 1176,688 1176,688 1176,688 1177,688 1177,688 1177,688 1177,688 1178,688 1178,688 1178,688 1178,688 1179,688 1179,688 1179,688 1179,689 1180,689 1180,689 1180,689 1181,689 1181,689 1181,689 1181,689 1182,689 1182,689 1182,689 1182,689 1183,689 1183,689 1183,689 1183,689 1184,689 1184,689 1184,689 1184,689 1185,689 1185,690 1185,690 1185,690 1186,690 1186,690 1186,690 1186,690 1187,690 1187,690 1187,690 1187,690 1188,690 1188,690 1188,690 1188,690 1189,690 1189,690 1189,690 1189,690 1190,690 "/>
<polyline fill="none" opacity="1" stroke="#BD19E6" stroke-width="2" points="468,738 469,737 488,737 504,736 521,735 522,734 529,734 540,732 544,732 548,731 555,731 557,730 559,728 561,728 566,727 580,727 581,726 586,726 592,725 597,725 598,724 599,724 600,723 603,722 604,721 607,721 608,720 611,720 612,720 612,719 613,719 613,719 616,719 616,718 617,718 617,718 620,718 622,717 622,717 623,717 624,716 625,715 627,715 627,714 628,713 628,714 629,713 630,712 630,712 631,712 632,713 633,712 635,712 636,711 636,711 639,710 639,710 641,710 642,709 644,708 646,708 647,708 647,707 650,707 652,706 653,705 653,704 657,704 657,703 658,703 658,702 661,701 662,701 663,700 663,700 664,700 664,698 665,698 665,698 666,697 667,696 667,696 668,695 668,695 669,694 670,694 671,693 672,693 672,691 673,690 674,690 674,690 675,689 675,688 676,688 676,688 677,688 677,688 678,687 678,687 678,687 679,686 679,685 680,685 680,685 681,683 681,682 682,682 683,681 684,681 685,681 685,680 686,679 686,679 687,677 688,676 689,676 689,675 690,675 690,674 691,674 691,674 692,674 692,674 693,674 693,673 694,673 694,673 695,673 695,673 696,674 696,673 697,673 697,673 698,672 698,672 699,672 699,672 699,672 700,672 700,672 701,672 701,672 702,672 702,671 703,671 703,671 704,670 705,670 705,670 706,670 706,669 707,669 707,668 708,668 708,668 709,668 710,667 710,667 711,667 711,666 712,667 712,667 713,666 713,666 714,665 714,666 715,665 715,664 716,664 716,663 717,663 717,663 718,663 718,663 719,663 719,663 720,663 720,663 721,663 721,662 722,663 722,662 723,662 723,662 724,662 724,662 725,662 725,662 726,662 726,662 727,661 727,660 728,658 728,658 729,657 729,657 730,657 730,656 731,657 731,657 732,657 732,656 733,656 733,656 734,656 735,656 735,656 736,655 736,655 737,655 738,654 738,653 739,653 740,653 740,653 741,653 741,653 742,653 742,653 742,653 743,653 744,653 744,653 745,652 745,651 746,651 746,651 746,651 747,651 747,651 748,651 748,650 749,650 750,649 750,649 751,649 751,649 752,648 752,647 753,647 753,646 754,646 754,646 755,646 755,645 756,645 756,644 757,644 757,644 758,644 758,644 759,643 759,643 760,643 760,641 761,641 761,641 762,641 762,640 763,640 763,640 763,640 764,640 764,640 765,639 765,639 766,638 766,639 767,639 767,638 768,638 768,638 769,637 769,637 770,636 770,636 771,636 771,636 772,636 772,636 773,636 773,636 774,637 775,637 775,636 776,636 776,636 777,636 777,636 778,637 778,637 779,636 779,637 780,636 780,636 781,636 781,636 782,636 782,636 783,635 783,635 784,635 784,635 784,634 785,634 785,633 786,632 786,631 787,632 787,631 788,630 788,629 789,629 789,628 790,629 790,629 791,628 791,627 792,627 792,626 793,626 793,625 794,625 794,625 795,625 795,625 796,623 796,622 797,621 797,625 798,625 798,624 799,619 799,619 800,618 800,616 801,616 801,615 802,615 802,614 803,614 803,614 804,613 804,613 805,613 805,613 806,613 806,613 806,613 807,613 807,612 808,612 808,612 809,612 809,612 810,611 810,610 811,610 811,609 812,609 812,610 813,610 813,609 814,608 814,608 815,608 815,608 816,607 816,607 817,607 817,607 818,606 818,606 819,607 819,607 820,607 820,607 821,607 821,606 822,606 822,605 823,605 823,604 824,604 824,604 825,604 825,603 826,603 826,602 827,602 827,601 827,600 828,600 828,599 829,599 829,599 830,599 830,598 831,598 831,597 832,596 832,596 833,597 833,596 834,595 834,595 835,595 835,595 836,594 836,594 837,594 837,593 838,593 838,593 839,593 839,593 840,593 840,593 841,593 841,592 842,592 842,591 843,591 843,591 844,591 844,590 845,590 845,590 846,590 846,590 847,590 847,590 848,590 848,590 848,589 849,589 849,589 850,588 850,587 851,587 851,587 852,587 852,587 853,586 853,586 854,586 854,586 855,585 855,585 856,585 856,584 857,584 857,585 858,584 858,584 859,584 859,584 860,583 860,583 861,582 861,581 862,581 862,581 863,581 863,581 864,581 864,581 865,581 865,580 866,579 866,580 867,579 867,579 868,579 868,579 869,579 869,579 870,578 870,578 870,577 871,577 871,577 872,577 872,577 873,576 873,576 874,575 874,575 875,576 875,575 876,574 876,574 877,574 877,573 878,573 878,573 879,573 879,572 880,572 880,572 881,572 881,571 882,571 882,572 883,572 883,571 884,571 884,571 885,571 885,571 886,571 886,571 887,571 887,571 888,570 888,569 889,569 889,568 890,569 890,568 891,568 891,568 891,568 892,567 892,567 893,567 893,567 894,567 894,566 895,566 895,566 896,566 896,565 897,565 897,564 898,564 898,564 899,563 899,563 900,563 900,562 901,562 901,562 902,561 902,561 903,561 903,560 904,560 904,560 905,560 905,560 906,559 906,558 907,558 908,558 908,558 909,558 909,557 910,557 910,557 911,557 911,557 912,557 912,556 912,556 913,555 913,554 914,554 914,554 915,553 915,553 916,553 916,552 917,552 917,552 918,551 918,551 919,551 919,551 920,551 920,550 921,549 921,549 922,549 922,549 923,549 923,548 924,548 924,547 925,547 925,546 926,545 926,545 927,544 927,544 928,543 928,543 929,542 929,542 930,541 930,541 931,541 931,541 932,540 932,540 933,540 933,539 934,539 934,539 934,538 935,538 935,538 935,538 936,538 936,537 937,537 937,536 938,536 938,534 939,533 939,533 940,532 940,531 941,531 941,531 942,531 942,531 943,531 943,530 944,530 944,531 945,531 945,530 946,529 946,529 947,529 947,528 948,528 948,528 949,527 949,527 950,526 950,526 951,526 951,525 952,525 952,526 953,525 953,525 954,524 954,524 955,524 955,524 955,524 956,524 956,524 957,523 957,523 958,523 958,523 959,521 959,521 960,521 960,520 961,520 961,520 962,520 962,520 963,519 963,518 964,518 964,518 965,517 965,516 966,516 966,515 967,515 967,515 968,515 968,515 969,515 969,514 970,514 970,514 971,514 971,513 972,514 972,513 973,513 973,513 974,513 974,513 975,513 975,513 976,512 976,512 976,512 977,511 977,511 978,510 978,510 979,509 979,509 980,509 980,509 981,510 981,510 982,510 982,509 983,510 983,510 984,509 984,509 985,508 985,508 986,508 986,508 987,508 987,508 988,507 988,507 989,507 989,506 990,506 990,506 991,506 991,506 992,505 992,505 993,505 993,505 994,505 994,505 995,504 995,504 996,504 996,503 997,502 997,501 998,501 998,501 998,501 999,500 999,500 1000,500 1000,500 1001,500 1001,500 1002,499 1002,499 1003,499 1003,499 1004,499 1004,499 1004,499 1004,498 1005,497 1005,497 1005,497 1006,497 1006,497 1006,497 1007,497 1007,497 1007,497 1007,496 1008,496 1008,496 1008,496 1008,496 1009,496 1009,496 1009,496 1009,496 1010,496 1010,495 1010,495 1010,495 1011,495 1011,494 1011,494 1011,495 1012,494 1012,494 1012,493 1013,493 1013,493 1013,494 1014,494 1014,493 1014,493 1014,493 1015,493 1015,493 1015,493 1015,492 1016,492 1016,492 1016,492 1017,492 1017,492 1017,492 1017,491 1018,491 1018,490 1018,490 1018,490 1019,490 1019,490 1019,490 1019,490 1019,490 1019,490 1020,490 1020,489 1020,489 1020,489 1021,489 1021,489 1021,489 1022,489 1022,488 1022,488 1022,488 1023,488 1023,487 1023,487 1023,487 1024,487 1024,487 1024,487 1024,486 1025,486 1025,487 1025,487 1025,486 1026,486 1026,486 1026,486 1026,485 1027,485 1027,485 1028,485 1028,485 1028,485 1028,483 1029,483 1029,484 1029,484 1029,484 1030,484 1030,484 1030,484 1030,484 1031,484 1031,483 1031,483 1031,484 1032,484 1032,483 1032,483 1033,483 1033,482 1033,482 1033,482 1034,482 1034,481 1034,481 1034,480 1035,480 1035,480 1035,480 1036,480 1036,480 1036,480 1036,480 1037,480 1037,479 1037,479 1037,478 1038,478 1038,478 1038,478 1038,479 1039,479 1039,478 1039,478 1039,478 1040,478 1040,478 1040,477 1040,477 1040,476 1041,476 1041,476 1041,476 1041,476 1042,476 1042,475 1042,475 1042,474 1043,474 1043,473 1043,473 1043,473 1044,473 1044,472 1044,472 1045,472 1045,472 1045,472 1045,472 1046,472 1046,472 1046,472 1046,472 1047,472 1047,472 1047,472 1047,472 1048,472 1048,472 1048,472 1048,471 1049,471 1049,471 1049,470 1050,470 1050,469 1050,469 1050,469 1051,469 1051,469 1051,469 1051,469 1052,469 1052,468 1052,468 1053,468 1053,468 1053,468 1054,468 1054,468 1054,467 1055,467 1055,467 1055,468 1055,468 1056,468 1056,467 1056,467 1056,467 1057,467 1057,467 1057,467 1057,467 1058,467 1058,467 1058,467 1058,467 1059,467 1059,467 1059,467 1060,467 1060,467 1060,467 1060,467 1061,467 1061,467 1061,467 1061,467 1062,467 1062,467 1062,467 1062,467 1062,467 1062,466 1063,466 1063,465 1063,465 1063,465 1064,465 1064,465 1064,465 1064,465 1065,465 1065,465 1065,465 1065,465 1066,465 1066,464 1066,464 1066,464 1067,464 1067,464 1067,464 1068,464 1068,465 1068,465 1068,465 1069,465 1069,465 1069,465 1069,465 1070,465 1070,464 1070,464 1070,464 1071,465 1071,465 1071,465 1072,465 1072,465 1072,465 1072,464 1073,464 1073,464 1073,464 1073,464 1074,464 1074,464 1074,464 1074,464 1075,464 1075,463 1075,463 1075,463 1076,463 1076,463 1076,463 1076,463 1077,463 1077,463 1077,463 1077,463 1078,463 1078,462 1078,462 1078,462 1079,462 1079,462 1079,462 1079,462 1080,462 1080,462 1080,462 1081,462 1081,462 1081,462 1081,461 1082,461 1082,462 1082,462 1082,462 1083,462 1083,462 1083,462 1083,461 1083,461 1083,461 1084,461 1084,461 1084,461 1084,461 1085,461 1085,461 1085,461 1085,461 1086,461 1086,460 1086,460 1086,461 1087,461 1087,460 1087,460 1087,460 1088,460 1088,459 1088,459 1088,459 1089,459 1089,459 1089,459 1089,459 1090,459 1090,459 1090,459 1090,458 1091,458 1091,458 1091,458 1091,457 1092,457 1092,456 1092,456 1092,455 1093,455 1093,455 1093,455 1093,456 1094,455 1094,455 1094,454 1095,454 1095,454 1095,454 1096,454 1096,454 1096,454 1096,454 1097,454 1097,454 1097,454 1097,454 1098,454 1098,454 1098,454 1098,454 1099,454 1099,454 1099,454 1099,453 1100,453 1100,453 1100,453 1100,453 1101,453 1101,453 1101,454 1102,454 1102,454 1102,454 1102,454 1103,454 1103,453 1103,453 1103,452 1104,452 1104,452 1104,452 1104,452 1104,452 1104,452 1105,452 1105,452 1105,452 1105,452 1106,452 1106,452 1106,452 1106,452 1107,452 1107,451 1107,451 1107,451 1108,451 1108,451 1108,451 1108,452 1109,452 1109,451 1109,451 1109,451 1110,452 1110,452 1110,452 1110,451 1111,451 1111,451 1111,451 1111,451 1112,451 1112,451 1112,451 1112,451 1113,451 1113,451 1113,451 1113,451 1114,451 1114,451 1114,451 1114,450 1115,450 1115,450 1115,450 1115,450 1116,450 1116,450 1116,450 1116,449 1117,449 1117,449 1117,449 1117,449 1118,449 1118,449 1118,449 1118,448 1119,448 1119,447 1119,447 1119,447 1120,447 1120,447 1120,447 1120,447 1121,447 1121,447 1121,447 1121,447 1122,447 1122,447 1122,447 1122,447 1123,447 1123,447 1123,447 1123,447 1124,447 1124,447 1124,447 1125,447 1125,447 1125,447 1125,447 1126,447 1126,447 1126,447 1126,447 1126,447 1126,446 1127,446 1127,446 1127,446 1127,446 1128,446 1128,446 1128,446 1128,446 1129,446 1129,446 1129,446 1129,446 1130,446 1130,446 1130,446 1130,447 1131,447 1131,447 1131,447 1131,446 1132,446 1132,446 1132,446 1132,446 1133,446 1133,456 1133,456 1134,456 1134,456 1134,456 1134,456 1135,456 1135,455 1135,455 1135,455 1136,455 1136,455 1136,455 1137,455 1137,454 1137,454 1137,454 1138,454 1138,454 1138,454 1138,454 1139,454 1139,454 1139,454 1139,454 1140,454 1140,454 1140,454 1140,454 1141,454 1141,453 1141,453 1141,453 1142,453 1142,453 1142,453 1142,453 1143,453 1143,452 1143,452 1143,452 1144,452 1144,453 1144,453 1144,452 1145,452 1145,452 1145,452 1145,452 1146,452 1146,452 1146,452 1146,453 1147,453 1147,453 1147,453 1147,453 1147,453 1147,453 1148,452 1148,453 1148,453 1148,452 1149,452 1149,453 1149,453 1149,452 1150,452 1150,452 1150,452 1150,452 1151,452 1151,452 1151,452 1151,452 1152,452 1152,452 1152,452 1152,452 1153,452 1153,452 1153,452 1154,452 1154,452 1154,452 1154,452 1155,452 1155,452 1155,452 1155,452 1156,452 1156,452 1156,452 1156,452 1157,452 1157,452 1157,452 1157,452 1158,452 1158,452 1158,452 1158,452 1159,452 1159,452 1159,452 1159,452 1160,452 1160,452 1160,452 1160,452 1161,452 1161,452 1161,452 1161,452 1162,452 1162,452 1162,451 1162,451 1163,451 1163,451 1163,451 1163,451 1164,451 1164,451 1164,451 1164,450 1165,450 1165,449 1165,449 1165,449 1166,449 1166,449 1166,449 1166,449 1167,449 1167,449 1167,449 1167,449 1168,449 1168,448 1168,448 1168,448 1168,448 1168,448 1169,448 1169,448 1169,448 1169,448 1170,448 1170,448 1170,448 1170,446 1171,446 1171,446 1171,446 1171,445 1172,445 1172,445 1172,445 1172,444 1173,444 1173,444 1173,444 1173,444 1174,444 1174,443 1174,443 1174,443 1175,443 1175,443 1175,443 1175,443 1176,443 1176,443 1176,443 1176,443 1177,443 1177,443 1177,443 1177,443 1178,443 1178,443 1178,443 1178,443 1179,443 1179,443 1179,443 1179,443 1180,443 1180,443 1180,443 1181,443 1181,443 1181,443 1181,443 1182,443 1182,443 1182,443 1182,443 1183,443 1183,443 1183,443 1183,443 1184,443 1184,444 1184,444 1184,444 1185,444 1185,444 1185,444 1185,444 1186,444 1186,445 1186,445 1186,445 1187,445 1187,445 1187,445 1187,445 1188,445 1188,445 1188,445 1188,445 1189,445 1189,446 1189,446 1189,445 1190,445 "/>
<rect x="65" y="329" width="97" height="91" opacity="1" fill="#FFFFFF" stroke="none"/>
<rect x="65" y="329" width="97" height="91" opacity="1" fill="none" stroke="#000000"/>
<text x="105" y="339" dy="0.76em" text-anchor="start" font-family="sans-serif" font-size="9.67741935483871" opacity="1" fill="#000000">
argparse
</text>
<text x="105" y="354" dy="0.76em" text-anchor="start" font-family="sans-serif" font-size="9.67741935483871" opacity="1" fill="#000000">
clap
</text>
<text x="105" y="369" dy="0.76em" text-anchor="start" font-family="sans-serif" font-size="9.67741935483871" opacity="1" fill="#000000">
docopt
</text>
<text x="105" y="384" dy="0.76em" text-anchor="start" font-family="sans-serif" font-size="9.67741935483871" opacity="1" fill="#000000">
getopts
</text>
<text x="105" y="399" dy="0.76em" text-anchor="start" font-family="sans-serif" font-size="9.67741935483871" opacity="1" fill="#000000">
structopt
</text>
<polyline fill="none" opacity="1" stroke="#E61919" stroke-width="2" points="75,343 95,343 "/>
<polyline fill="none" opacity="1" stroke="#BDE619" stroke-width="2" points="75,359 95,359 "/>
<polyline fill="none" opacity="1" stroke="#19E66B" stroke-width="2" points="75,374 95,374 "/>
<polyline fill="none" opacity="1" stroke="#196BE6" stroke-width="2" points="75,389 95,389 "/>
<polyline fill="none" opacity="1" stroke="#BD19E6" stroke-width="2" points="75,404 95,404 "/>
</svg>
