<svg width="1200" height="800" xmlns="http://www.w3.org/2000/svg">
<rect x="0" y="0" width="1199" height="799" opacity="1" fill="#FFFFFF" stroke="none"/>
<line opacity="0.1" stroke="#000000" stroke-width="1" x1="60" y1="731" x2="1190" y2="731"/>
<line opacity="0.1" stroke="#000000" stroke-width="1" x1="60" y1="723" x2="1190" y2="723"/>
<line opacity="0.1" stroke="#000000" stroke-width="1" x1="60" y1="715" x2="1190" y2="715"/>
<line opacity="0.1" stroke="#000000" stroke-width="1" x1="60" y1="707" x2="1190" y2="707"/>
<line opacity="0.1" stroke="#000000" stroke-width="1" x1="60" y1="699" x2="1190" y2="699"/>
<line opacity="0.1" stroke="#000000" stroke-width="1" x1="60" y1="690" x2="1190" y2="690"/>
<line opacity="0.1" stroke="#000000" stroke-width="1" x1="60" y1="682" x2="1190" y2="682"/>
<line opacity="0.1" stroke="#000000" stroke-width="1" x1="60" y1="674" x2="1190" y2="674"/>
<line opacity="0.1" stroke="#000000" stroke-width="1" x1="60" y1="666" x2="1190" y2="666"/>
<line opacity="0.1" stroke="#000000" stroke-width="1" x1="60" y1="658" x2="1190" y2="658"/>
<line opacity="0.1" stroke="#000000" stroke-width="1" x1="60" y1="650" x2="1190" y2="650"/>
<line opacity="0.1" stroke="#000000" stroke-width="1" x1="60" y1="641" x2="1190" y2="641"/>
<line opacity="0.1" stroke="#000000" stroke-width="1" x1="60" y1="633" x2="1190" y2="633"/>
<line opacity="0.1" stroke="#000000" stroke-width="1" x1="60" y1="625" x2="1190" y2="625"/>
<line opacity="0.1" stroke="#000000" stroke-width="1" x1="60" y1="617" x2="1190" y2="617"/>
<line opacity="0.1" stroke="#000000" stroke-width="1" x1="60" y1="609" x2="1190" y2="609"/>
<line opacity="0.1" stroke="#000000" stroke-width="1" x1="60" y1="601" x2="1190" y2="601"/>
<line opacity="0.1" stroke="#000000" stroke-width="1" x1="60" y1="592" x2="1190" y2="592"/>
<line opacity="0.1" stroke="#000000" stroke-width="1" x1="60" y1="584" x2="1190" y2="584"/>
<line opacity="0.1" stroke="#000000" stroke-width="1" x1="60" y1="576" x2="1190" y2="576"/>
<line opacity="0.1" stroke="#000000" stroke-width="1" x1="60" y1="568" x2="1190" y2="568"/>
<line opacity="0.1" stroke="#000000" stroke-width="1" x1="60" y1="560" x2="1190" y2="560"/>
<line opacity="0.1" stroke="#000000" stroke-width="1" x1="60" y1="552" x2="1190" y2="552"/>
<line opacity="0.1" stroke="#000000" stroke-width="1" x1="60" y1="543" x2="1190" y2="543"/>
<line opacity="0.1" stroke="#000000" stroke-width="1" x1="60" y1="535" x2="1190" y2="535"/>
<line opacity="0.1" stroke="#000000" stroke-width="1" x1="60" y1="527" x2="1190" y2="527"/>
<line opacity="0.1" stroke="#000000" stroke-width="1" x1="60" y1="519" x2="1190" y2="519"/>
<line opacity="0.1" stroke="#000000" stroke-width="1" x1="60" y1="511" x2="1190" y2="511"/>
<line opacity="0.1" stroke="#000000" stroke-width="1" x1="60" y1="503" x2="1190" y2="503"/>
<line opacity="0.1" stroke="#000000" stroke-width="1" x1="60" y1="494" x2="1190" y2="494"/>
<line opacity="0.1" stroke="#000000" stroke-width="1" x1="60" y1="486" x2="1190" y2="486"/>
<line opacity="0.1" stroke="#000000" stroke-width="1" x1="60" y1="478" x2="1190" y2="478"/>
<line opacity="0.1" stroke="#000000" stroke-width="1" x1="60" y1="470" x2="1190" y2="470"/>
<line opacity="0.1" stroke="#000000" stroke-width="1" x1="60" y1="462" x2="1190" y2="462"/>
<line opacity="0.1" stroke="#000000" stroke-width="1" x1="60" y1="454" x2="1190" y2="454"/>
<line opacity="0.1" stroke="#000000" stroke-width="1" x1="60" y1="445" x2="1190" y2="445"/>
<line opacity="0.1" stroke="#000000" stroke-width="1" x1="60" y1="437" x2="1190" y2="437"/>
<line opacity="0.1" stroke="#000000" stroke-width="1" x1="60" y1="429" x2="1190" y2="429"/>
<line opacity="0.1" stroke="#000000" stroke-width="1" x1="60" y1="421" x2="1190" y2="421"/>
<line opacity="0.1" stroke="#000000" stroke-width="1" x1="60" y1="413" x2="1190" y2="413"/>
<line opacity="0.1" stroke="#000000" stroke-width="1" x1="60" y1="405" x2="1190" y2="405"/>
<line opacity="0.1" stroke="#000000" stroke-width="1" x1="60" y1="396" x2="1190" y2="396"/>
<line opacity="0.1" stroke="#000000" stroke-width="1" x1="60" y1="388" x2="1190" y2="388"/>
<line opacity="0.1" stroke="#000000" stroke-width="1" x1="60" y1="380" x2="1190" y2="380"/>
<line opacity="0.1" stroke="#000000" stroke-width="1" x1="60" y1="372" x2="1190" y2="372"/>
<line opacity="0.1" stroke="#000000" stroke-width="1" x1="60" y1="364" x2="1190" y2="364"/>
<line opacity="0.1" stroke="#000000" stroke-width="1" x1="60" y1="356" x2="1190" y2="356"/>
<line opacity="0.1" stroke="#000000" stroke-width="1" x1="60" y1="347" x2="1190" y2="347"/>
<line opacity="0.1" stroke="#000000" stroke-width="1" x1="60" y1="339" x2="1190" y2="339"/>
<line opacity="0.1" stroke="#000000" stroke-width="1" x1="60" y1="331" x2="1190" y2="331"/>
<line opacity="0.1" stroke="#000000" stroke-width="1" x1="60" y1="323" x2="1190" y2="323"/>
<line opacity="0.1" stroke="#000000" stroke-width="1" x1="60" y1="315" x2="1190" y2="315"/>
<line opacity="0.1" stroke="#000000" stroke-width="1" x1="60" y1="307" x2="1190" y2="307"/>
<line opacity="0.1" stroke="#000000" stroke-width="1" x1="60" y1="298" x2="1190" y2="298"/>
<line opacity="0.1" stroke="#000000" stroke-width="1" x1="60" y1="290" x2="1190" y2="290"/>
<line opacity="0.1" stroke="#000000" stroke-width="1" x1="60" y1="282" x2="1190" y2="282"/>
<line opacity="0.1" stroke="#000000" stroke-width="1" x1="60" y1="274" x2="1190" y2="274"/>
<line opacity="0.1" stroke="#000000" stroke-width="1" x1="60" y1="266" x2="1190" y2="266"/>
<line opacity="0.1" stroke="#000000" stroke-width="1" x1="60" y1="258" x2="1190" y2="258"/>
<line opacity="0.1" stroke="#000000" stroke-width="1" x1="60" y1="249" x2="1190" y2="249"/>
<line opacity="0.1" stroke="#000000" stroke-width="1" x1="60" y1="241" x2="1190" y2="241"/>
<line opacity="0.1" stroke="#000000" stroke-width="1" x1="60" y1="233" x2="1190" y2="233"/>
<line opacity="0.1" stroke="#000000" stroke-width="1" x1="60" y1="225" x2="1190" y2="225"/>
<line opacity="0.1" stroke="#000000" stroke-width="1" x1="60" y1="217" x2="1190" y2="217"/>
<line opacity="0.1" stroke="#000000" stroke-width="1" x1="60" y1="209" x2="1190" y2="209"/>
<line opacity="0.1" stroke="#000000" stroke-width="1" x1="60" y1="200" x2="1190" y2="200"/>
<line opacity="0.1" stroke="#000000" stroke-width="1" x1="60" y1="192" x2="1190" y2="192"/>
<line opacity="0.1" stroke="#000000" stroke-width="1" x1="60" y1="184" x2="1190" y2="184"/>
<line opacity="0.1" stroke="#000000" stroke-width="1" x1="60" y1="176" x2="1190" y2="176"/>
<line opacity="0.1" stroke="#000000" stroke-width="1" x1="60" y1="168" x2="1190" y2="168"/>
<line opacity="0.1" stroke="#000000" stroke-width="1" x1="60" y1="160" x2="1190" y2="160"/>
<line opacity="0.1" stroke="#000000" stroke-width="1" x1="60" y1="151" x2="1190" y2="151"/>
<line opacity="0.1" stroke="#000000" stroke-width="1" x1="60" y1="143" x2="1190" y2="143"/>
<line opacity="0.1" stroke="#000000" stroke-width="1" x1="60" y1="135" x2="1190" y2="135"/>
<line opacity="0.1" stroke="#000000" stroke-width="1" x1="60" y1="127" x2="1190" y2="127"/>
<line opacity="0.1" stroke="#000000" stroke-width="1" x1="60" y1="119" x2="1190" y2="119"/>
<line opacity="0.1" stroke="#000000" stroke-width="1" x1="60" y1="111" x2="1190" y2="111"/>
<line opacity="0.1" stroke="#000000" stroke-width="1" x1="60" y1="102" x2="1190" y2="102"/>
<line opacity="0.1" stroke="#000000" stroke-width="1" x1="60" y1="94" x2="1190" y2="94"/>
<line opacity="0.1" stroke="#000000" stroke-width="1" x1="60" y1="86" x2="1190" y2="86"/>
<line opacity="0.1" stroke="#000000" stroke-width="1" x1="60" y1="78" x2="1190" y2="78"/>
<line opacity="0.1" stroke="#000000" stroke-width="1" x1="60" y1="70" x2="1190" y2="70"/>
<line opacity="0.1" stroke="#000000" stroke-width="1" x1="60" y1="62" x2="1190" y2="62"/>
<line opacity="0.1" stroke="#000000" stroke-width="1" x1="60" y1="53" x2="1190" y2="53"/>
<line opacity="0.1" stroke="#000000" stroke-width="1" x1="60" y1="45" x2="1190" y2="45"/>
<line opacity="0.1" stroke="#000000" stroke-width="1" x1="60" y1="37" x2="1190" y2="37"/>
<line opacity="0.1" stroke="#000000" stroke-width="1" x1="60" y1="29" x2="1190" y2="29"/>
<line opacity="0.1" stroke="#000000" stroke-width="1" x1="60" y1="21" x2="1190" y2="21"/>
<line opacity="0.1" stroke="#000000" stroke-width="1" x1="60" y1="13" x2="1190" y2="13"/>
<text x="10" y="375" dy="0.76em" text-anchor="middle" font-family="sans-serif" font-size="9.67741935483871" opacity="1" fill="#000000" transform="rotate(270, 10, 375)">
Fraction of dependent crates
</text>
<line opacity="0.2" stroke="#000000" stroke-width="1" x1="60" y1="658" x2="1190" y2="658"/>
<line opacity="0.2" stroke="#000000" stroke-width="1" x1="60" y1="576" x2="1190" y2="576"/>
<line opacity="0.2" stroke="#000000" stroke-width="1" x1="60" y1="494" x2="1190" y2="494"/>
<line opacity="0.2" stroke="#000000" stroke-width="1" x1="60" y1="413" x2="1190" y2="413"/>
<line opacity="0.2" stroke="#000000" stroke-width="1" x1="60" y1="331" x2="1190" y2="331"/>
<line opacity="0.2" stroke="#000000" stroke-width="1" x1="60" y1="249" x2="1190" y2="249"/>
<line opacity="0.2" stroke="#000000" stroke-width="1" x1="60" y1="168" x2="1190" y2="168"/>
<line opacity="0.2" stroke="#000000" stroke-width="1" x1="60" y1="86" x2="1190" y2="86"/>
<polyline fill="none" opacity="1" stroke="#000000" stroke-width="1" points="59,10 59,740 "/>
<text x="50" y="658" dy="0.5ex" text-anchor="end" font-family="sans-serif" font-size="9.67741935483871" opacity="1" fill="#000000">
0.01
</text>
<polyline fill="none" opacity="1" stroke="#000000" stroke-width="1" points="54,658 59,658 "/>
<text x="50" y="576" dy="0.5ex" text-anchor="end" font-family="sans-serif" font-size="9.67741935483871" opacity="1" fill="#000000">
0.02
</text>
<polyline fill="none" opacity="1" stroke="#000000" stroke-width="1" points="54,576 59,576 "/>
<text x="50" y="494" dy="0.5ex" text-anchor="end" font-family="sans-serif" font-size="9.67741935483871" opacity="1" fill="#000000">
0.03
</text>
<polyline fill="none" opacity="1" stroke="#000000" stroke-width="1" points="54,494 59,494 "/>
<text x="50" y="413" dy="0.5ex" text-anchor="end" font-family="sans-serif" font-size="9.67741935483871" opacity="1" fill="#000000">
0.04
</text>
<polyline fill="none" opacity="1" stroke="#000000" stroke-width="1" points="54,413 59,413 "/>
<text x="50" y="331" dy="0.5ex" text-anchor="end" font-family="sans-serif" font-size="9.67741935483871" opacity="1" fill="#000000">
0.05
</text>
<polyline fill="none" opacity="1" stroke="#000000" stroke-width="1" points="54,331 59,331 "/>
<text x="50" y="249" dy="0.5ex" text-anchor="end" font-family="sans-serif" font-size="9.67741935483871" opacity="1" fill="#000000">
0.06
</text>
<polyline fill="none" opacity="1" stroke="#000000" stroke-width="1" points="54,249 59,249 "/>
<text x="50" y="168" dy="0.5ex" text-anchor="end" font-family="sans-serif" font-size="9.67741935483871" opacity="1" fill="#000000">
0.07
</text>
<polyline fill="none" opacity="1" stroke="#000000" stroke-width="1" points="54,168 59,168 "/>
<text x="50" y="86" dy="0.5ex" text-anchor="end" font-family="sans-serif" font-size="9.67741935483871" opacity="1" fill="#000000">
0.08
</text>
<polyline fill="none" opacity="1" stroke="#000000" stroke-width="1" points="54,86 59,86 "/>
<polyline fill="none" opacity="1" stroke="#000000" stroke-width="1" points="60,740 1190,740 "/>
<text x="60" y="750" dy="0.76em" text-anchor="middle" font-family="sans-serif" font-size="9.67741935483871" opacity="1" fill="#000000">
2014-11-20Z
</text>
<polyline fill="none" opacity="1" stroke="#000000" stroke-width="1" points="60,740 60,745 "/>
<text x="173" y="750" dy="0.76em" text-anchor="middle" font-family="sans-serif" font-size="9.67741935483871" opacity="1" fill="#000000">
2015-06-25Z
</text>
<polyline fill="none" opacity="1" stroke="#000000" stroke-width="1" points="173,740 173,745 "/>
<text x="286" y="750" dy="0.76em" text-anchor="middle" font-family="sans-serif" font-size="9.67741935483871" opacity="1" fill="#000000">
2016-01-28Z
</text>
<polyline fill="none" opacity="1" stroke="#000000" stroke-width="1" points="286,740 286,745 "/>
<text x="399" y="750" dy="0.76em" text-anchor="middle" font-family="sans-serif" font-size="9.67741935483871" opacity="1" fill="#000000">
2016-09-01Z
</text>
<polyline fill="none" opacity="1" stroke="#000000" stroke-width="1" points="399,740 399,745 "/>
<text x="512" y="750" dy="0.76em" text-anchor="middle" font-family="sans-serif" font-size="9.67741935483871" opacity="1" fill="#000000">
2017-04-06Z
</text>
<polyline fill="none" opacity="1" stroke="#000000" stroke-width="1" points="512,740 512,745 "/>
<text x="626" y="750" dy="0.76em" text-anchor="middle" font-family="sans-serif" font-size="9.67741935483871" opacity="1" fill="#000000">
2017-11-09Z
</text>
<polyline fill="none" opacity="1" stroke="#000000" stroke-width="1" points="626,740 626,745 "/>
<text x="739" y="750" dy="0.76em" text-anchor="middle" font-family="sans-serif" font-size="9.67741935483871" opacity="1" fill="#000000">
2018-06-14Z
</text>
<polyline fill="none" opacity="1" stroke="#000000" stroke-width="1" points="739,740 739,745 "/>
<text x="852" y="750" dy="0.76em" text-anchor="middle" font-family="sans-serif" font-size="9.67741935483871" opacity="1" fill="#000000">
2019-01-17Z
</text>
<polyline fill="none" opacity="1" stroke="#000000" stroke-width="1" points="852,740 852,745 "/>
<text x="965" y="750" dy="0.76em" text-anchor="middle" font-family="sans-serif" font-size="9.67741935483871" opacity="1" fill="#000000">
2019-08-22Z
</text>
<polyline fill="none" opacity="1" stroke="#000000" stroke-width="1" points="965,740 965,745 "/>
<text x="1078" y="750" dy="0.76em" text-anchor="middle" font-family="sans-serif" font-size="9.67741935483871" opacity="1" fill="#000000">
2020-03-26Z
</text>
<polyline fill="none" opacity="1" stroke="#000000" stroke-width="1" points="1078,740 1078,745 "/>
<polyline fill="none" opacity="1" stroke="#E61919" stroke-width="2" points="165,736 171,729 171,726 208,725 235,724 264,724 273,722 273,718 281,716 284,718 286,717 288,713 289,713 291,715 292,713 293,711 294,709 303,712 304,712 317,712 318,712 322,711 330,710 333,708 333,705 346,705 347,705 353,704 370,704 370,704 372,705 373,705 373,705 374,706 375,706 376,706 376,707 377,707 377,707 379,707 379,707 380,707 421,712 422,711 422,708 423,707 425,706 449,709 449,709 450,709 451,708 452,708 453,708 453,708 454,708 455,708 457,707 458,704 460,704 460,704 461,704 461,704 462,703 463,703 464,703 466,703 467,704 467,704 468,704 469,704 469,704 471,704 472,704 474,704 474,704 475,704 475,705 476,705 477,705 477,705 478,705 479,705 479,705 481,705 482,705 483,705 484,704 484,705 485,705 486,705 487,705 488,705 490,705 490,705 491,705 492,705 494,704 495,703 495,703 496,703 497,703 498,703 499,703 500,704 500,703 501,703 502,703 503,703 505,703 506,703 506,703 507,703 507,703 508,703 509,704 510,704 511,704 511,704 513,704 513,704 514,704 515,704 517,704 518,704 519,704 522,704 522,704 523,704 525,704 527,705 529,705 530,705 531,705 532,705 533,705 533,704 535,705 537,705 538,706 539,706 540,706 542,706 542,706 543,706 543,706 545,707 546,707 546,707 547,707 548,708 548,708 549,707 549,707 550,707 550,707 551,706 553,707 553,707 555,707 557,707 560,707 561,707 562,708 562,708 563,707 563,707 564,707 565,707 567,707 567,707 568,707 568,707 569,707 569,707 570,707 570,707 571,706 571,706 572,706 573,705 574,705 577,705 577,705 578,705 578,705 579,705 579,705 580,705 581,705 585,706 588,705 591,706 591,706 592,706 593,705 595,705 595,706 598,706 599,706 600,706 609,707 610,707 612,707 615,707 616,706 621,706 623,706 625,707 626,706 627,706 627,706 629,706 632,707 633,707 635,707 636,707 636,707 639,707 640,707 640,707 641,706 642,707 642,707 643,707 643,707 644,707 645,707 645,707 646,707 647,707 647,707 648,707 648,707 649,707 650,707 650,707 651,707 652,707 653,708 654,708 654,708 655,708 656,708 656,708 658,708 658,708 659,708 659,708 660,708 661,708 662,708 662,708 663,708 664,708 665,708 667,708 667,708 668,708 669,708 669,708 670,708 671,709 671,709 672,709 673,709 674,709 676,710 677,710 678,710 679,710 680,709 680,709 683,710 683,710 687,710 687,710 688,710 688,710 689,710 689,710 690,710 690,710 692,710 693,710 693,710 694,710 696,710 697,710 698,710 698,710 699,710 700,710 700,710 701,711 703,711 704,710 704,710 705,710 705,710 706,710 707,710 708,710 708,710 709,710 710,710 710,710 711,710 711,710 712,710 712,710 713,710 713,710 714,710 714,710 715,710 715,710 716,711 716,711 717,711 718,711 718,711 719,711 721,711 722,711 722,711 723,711 725,711 726,711 727,711 727,711 728,711 730,711 730,711 731,712 731,712 732,711 732,711 733,711 734,711 734,711 735,711 735,711 736,711 736,711 737,711 737,711 738,711 740,711 741,712 741,712 742,712 743,712 743,712 744,712 744,712 745,712 746,712 746,712 747,712 747,712 748,712 748,712 749,712 749,712 750,712 751,712 751,712 752,712 752,711 753,711 753,711 754,711 754,711 755,711 756,711 756,711 758,712 758,712 760,712 760,712 761,712 761,712 762,712 763,712 763,712 764,712 765,712 766,712 766,712 767,712 767,712 768,712 768,712 769,712 770,712 770,712 771,713 772,713 772,713 773,713 773,713 774,713 774,713 775,713 775,713 777,713 777,713 778,713 779,713 779,713 780,713 780,713 781,713 782,713 783,714 783,714 784,714 784,714 785,714 786,714 787,714 787,714 788,714 788,714 789,714 790,714 790,714 791,714 791,714 792,715 792,715 793,715 793,715 794,715 794,715 795,715 795,715 796,715 796,715 797,715 797,715 798,715 798,715 799,715 800,715 800,715 801,715 801,715 802,715 802,715 803,715 803,715 804,715 805,715 806,715 807,715 807,715 808,715 809,715 809,715 811,715 811,715 812,715 812,715 813,715 813,715 814,715 814,715 815,715 815,715 816,715 816,715 818,715 818,715 819,715 819,715 821,715 821,715 822,715 823,715 823,715 824,715 824,715 825,715 826,715 826,715 827,715 827,715 828,715 829,715 830,715 831,715 831,715 832,715 832,715 833,716 834,716 834,716 835,716 836,715 837,715 838,715 838,715 839,715 840,715 840,715 841,715 842,715 843,715 843,715 844,715 844,715 845,715 845,716 846,716 847,716 847,717 848,717 848,717 849,716 849,716 850,716 850,716 851,716 852,716 852,716 853,716 854,716 856,716 856,716 857,716 857,716 858,716 859,717 859,717 860,717 860,716 861,716 861,716 862,716 863,716 863,716 864,716 865,716 866,716 867,716 867,716 868,716 869,716 869,716 870,716 870,716 871,716 871,716 872,716 872,716 873,716 873,716 874,716 875,716 875,716 876,716 876,716 877,716 878,716 878,716 879,716 879,716 880,716 880,716 881,716 881,716 882,716 882,716 883,716 883,716 884,716 885,717 885,717 886,717 886,717 887,717 888,717 888,717 889,717 890,717 890,717 891,717 891,717 892,717 893,717 893,717 894,717 894,717 895,717 895,717 897,717 897,717 900,717 900,717 901,717 902,717 903,717 903,717 904,718 904,718 905,718 905,718 906,718 906,718 907,718 907,717 908,717 908,718 909,718 910,717 910,717 911,717 913,718 914,718 914,718 915,718 915,718 916,718 917,718 918,718 919,718 919,718 920,718 920,718 921,718 921,718 922,718 923,717 924,717 924,717 925,717 926,718 926,718 927,718 929,718 929,718 930,718 930,718 931,718 932,718 932,718 933,718 933,718 934,718 935,718 935,718 936,718 936,718 937,718 938,718 940,718 940,718 941,718 941,718 942,718 942,718 943,718 943,718 944,718 945,718 945,718 946,718 946,718 947,719 948,719 948,719 949,719 951,719 951,719 952,719 952,719 953,719 953,719 954,719 954,719 955,719 955,719 956,719 956,719 957,719 957,719 958,719 958,719 959,719 959,719 960,719 960,719 962,719 963,719 964,719 965,719 965,719 966,719 966,719 967,719 968,720 969,720 969,720 970,720 970,720 971,720 971,720 972,720 972,720 973,720 974,720 974,720 975,720 976,720 978,720 979,720 979,720 980,720 980,720 981,720 982,720 983,721 984,721 984,721 985,721 986,721 986,721 987,721 988,721 988,721 989,721 991,721 991,721 993,721 993,721 994,721 994,721 995,721 996,721 996,721 998,721 999,721 999,721 1000,721 1000,721 1001,721 1001,721 1002,721 1002,721 1003,721 1003,721 1004,721 1004,721 1005,721 1005,721 1006,721 1006,721 1007,721 1007,721 1008,721 1008,721 1009,722 1010,722 1010,722 1011,722 1012,721 1013,721 1013,721 1014,721 1014,721 1015,721 1019,722 1019,722 1020,722 1020,722 1021,722 1022,722 1023,722 1023,721 1024,721 1025,721 1025,721 1027,721 1028,721 1028,721 1029,721 1030,721 1031,721 1031,721 1032,721 1033,721 1034,721 1034,721 1035,721 1036,721 1036,721 1037,721 1037,721 1038,721 1038,722 1039,722 1039,722 1040,722 1040,722 1041,722 1042,722 1043,722 1043,722 1044,722 1044,722 1045,722 1046,722 1046,722 1047,722 1048,722 1048,722 1049,722 1049,722 1050,722 1050,722 1051,722 1051,722 1052,722 1053,722 1053,722 1054,722 1055,722 1056,722 1056,722 1057,722 1058,722 1058,722 1060,722 1061,722 1061,722 1063,723 1063,723 1064,723 1064,723 1065,723 1065,723 1066,723 1066,723 1067,723 1067,723 1068,723 1068,723 1069,723 1070,723 1070,723 1070,723 1070,723 1072,723 1072,723 1073,723 1073,723 1073,723 1074,723 1074,723 1074,723 1075,723 1075,723 1075,723 1075,723 1076,723 1076,723 1076,723 1077,723 1077,723 1077,723 1078,723 1078,723 1078,723 1078,723 1079,723 1079,723 1080,723 1080,723 1080,723 1080,723 1081,723 1082,723 1082,723 1082,723 1083,723 1083,723 1083,723 1083,723 1084,723 1084,723 1084,723 1085,723 1085,723 1085,723 1086,723 1086,723 1087,723 1087,724 1088,724 1088,724 1089,724 1089,724 1089,724 1089,724 1090,724 1090,724 1091,724 1091,724 1092,724 1092,724 1092,724 1093,724 1094,724 1094,724 1094,724 1095,724 1095,724 1096,724 1096,724 1096,724 1096,724 1097,724 1097,724 1098,724 1098,724 1098,724 1099,724 1099,724 1099,724 1099,724 1100,724 1100,724 1100,724 1101,724 1102,724 1102,724 1102,724 1103,724 1103,724 1104,724 1104,724 1104,724 1105,724 1105,724 1106,724 1106,724 1106,724 1107,724 1107,724 1108,724 1108,724 1108,724 1109,724 1109,724 1109,724 1109,724 1110,724 1110,724 1111,724 1112,724 1112,724 1112,724 1113,724 1113,724 1114,724 1114,724 1114,724 1115,724 1115,724 1115,724 1115,724 1116,724 1116,724 1116,724 1117,724 1117,724 1118,724 1118,724 1118,724 1119,724 1119,724 1119,724 1119,724 1120,725 1120,725 1121,725 1121,725 1122,725 1122,725 1123,725 1123,725 1123,725 1124,725 1124,725 1124,725 1124,725 1125,725 1125,725 1125,725 1125,725 1126,725 1126,725 1126,725 1126,725 1127,725 1127,725 1127,725 1128,725 1128,725 1129,725 1129,725 1130,725 1130,725 1130,725 1131,725 1131,725 1131,725 1131,725 1132,725 1132,725 1132,725 1132,725 1133,725 1133,725 1134,725 1134,725 1134,725 1134,725 1135,725 1135,725 1136,725 1136,725 1137,725 1137,725 1137,725 1138,725 1138,725 1139,725 1139,725 1140,725 1140,725 1140,725 1141,725 1141,725 1142,725 1142,725 1142,725 1143,725 1143,725 1143,725 1143,725 1144,725 1144,725 1144,725 1144,725 1145,725 1145,725 1145,725 1146,725 1146,725 1146,725 1146,725 1147,725 1148,725 1148,725 1148,725 1148,725 1149,725 1149,725 1149,725 1150,725 1150,725 1150,725 1151,725 1151,725 1151,725 1151,725 1152,725 1152,725 1153,725 1154,725 1154,725 1154,725 1154,725 1157,725 1157,726 1157,726 1157,726 1158,726 1158,726 1158,726 1159,726 1160,726 1160,726 1160,726 1160,726 1161,726 1161,726 1161,726 1161,726 1162,726 1162,726 1162,726 1163,726 1163,726 1163,726 1163,726 1164,726 1164,726 1164,726 1165,726 1165,726 1166,726 1166,726 1166,726 1167,726 1167,726 1167,726 1168,726 1168,726 1168,726 1169,726 1169,726 1169,726 1169,726 1170,726 1170,726 1170,726 1170,726 1171,726 1171,726 1171,726 1172,726 1172,726 1173,726 1173,726 1173,726 1174,726 1174,726 1174,726 1174,726 1175,726 1175,726 1175,726 1176,726 1176,726 1177,726 1177,726 1178,726 1178,726 1178,726 1179,726 1179,726 1180,726 1180,726 1180,726 1181,726 1181,726 1181,726 1181,726 1182,726 1182,726 1182,726 1182,726 1183,726 1183,726 1183,726 1184,726 1184,726 1184,726 1184,726 1185,726 1186,726 1186,726 1187,726 1187,726 1187,726 1187,726 1188,726 1188,726 1188,726 1188,726 1189,726 1189,726 1190,726 "/>
<polyline fill="none" opacity="1" stroke="#BDE619" stroke-width="2" points="128,735 153,732 173,729 176,726 188,724 195,718 196,722 198,719 204,717 206,714 208,712 214,709 219,707 223,705 227,703 232,701 234,699 235,697 235,694 236,692 237,689 238,687 241,685 242,678 244,676 247,672 248,670 249,665 256,665 259,663 260,661 261,659 261,657 263,655 265,651 270,651 270,649 271,647 272,645 275,644 275,642 277,640 277,638 278,636 281,635 283,634 284,630 285,629 285,627 289,624 289,622 293,622 295,619 298,619 298,615 299,614 300,610 301,608 302,607 302,608 304,606 304,605 305,603 306,602 307,601 308,601 310,600 310,598 311,599 313,597 313,596 314,593 317,593 320,593 322,592 323,594 324,593 326,592 327,591 328,590 328,591 329,590 329,588 330,587 330,587 331,586 332,583 333,582 333,582 336,583 337,583 338,583 338,584 339,584 340,581 340,581 341,578 341,579 342,578 343,578 343,578 344,578 345,577 347,577 348,578 349,578 349,578 350,579 350,579 353,578 353,577 354,578 354,578 355,576 355,577 356,577 356,576 357,576 357,576 358,576 358,577 359,574 359,574 360,574 361,575 361,575 362,574 362,573 363,571 364,569 364,568 365,568 365,566 366,565 366,566 367,563 369,564 369,564 370,561 370,559 371,559 371,559 373,557 373,555 374,553 375,553 377,555 377,550 378,549 378,547 379,545 380,543 381,543 382,543 382,542 383,540 384,539 385,539 385,540 386,538 386,537 387,537 387,535 388,534 388,533 389,531 390,532 391,531 391,530 392,530 392,531 393,530 393,529 394,528 394,528 395,528 396,527 397,527 398,524 398,525 399,524 399,521 400,520 400,521 401,520 401,518 402,518 402,518 403,517 404,385 405,383 406,384 406,382 407,380 407,380 408,379 409,380 410,379 410,380 411,376 411,375 412,375 412,373 413,372 413,370 414,368 414,365 415,366 415,365 416,365 416,364 417,364 417,366 418,364 418,365 419,364 419,363 420,361 421,359 421,357 422,357 422,355 423,350 423,350 424,349 425,347 425,346 426,327 427,327 427,326 428,326 429,326 429,326 430,326 430,327 431,328 431,328 433,328 434,328 434,327 435,328 435,328 436,327 436,328 437,328 437,325 438,324 438,322 439,324 440,323 440,324 441,323 441,321 442,320 442,320 443,319 443,319 444,319 445,319 445,318 446,319 447,318 447,317 448,316 449,314 449,311 450,312 450,312 451,313 451,312 452,312 452,312 453,313 453,312 454,307 455,308 455,308 456,308 457,308 457,307 458,308 458,308 459,309 459,309 460,307 460,308 461,308 461,308 462,309 462,308 463,308 463,307 464,307 464,307 465,307 465,306 466,307 466,308 467,309 468,307 469,307 469,305 470,306 470,307 471,305 471,305 472,301 472,302 473,301 473,302 474,301 474,299 475,299 475,300 476,297 476,295 477,293 477,292 478,290 478,289 479,288 479,288 480,286 481,286 481,285 482,284 482,284 483,282 483,283 484,281 484,278 485,278 485,277 486,275 486,274 487,274 487,273 488,271 488,270 489,271 489,270 490,270 490,271 491,271 491,271 492,270 493,269 493,268 494,269 494,268 495,268 495,266 496,266 496,266 497,262 497,262 498,263 498,263 499,263 499,264 500,262 500,263 501,263 501,262 502,261 502,261 503,261 503,259 504,255 505,253 505,252 506,251 507,253 507,252 508,252 508,251 509,250 509,250 510,248 510,246 511,246 511,244 512,243 512,243 513,241 513,241 514,240 514,239 515,240 515,240 516,239 517,237 517,238 518,236 518,235 519,235 519,233 520,233 520,233 521,233 521,232 522,232 522,229 523,230 523,230 524,230 524,231 525,231 525,230 526,230 526,231 527,231 527,227 528,228 529,228 529,226 530,222 530,222 531,222 531,221 532,223 532,224 533,222 533,224 534,223 534,224 535,223 535,225 536,224 536,223 537,223 537,224 538,223 538,220 539,220 539,220 540,219 541,220 541,218 542,219 542,217 543,217 543,217 544,216 544,216 545,217 545,217 546,217 546,216 547,214 547,213 548,211 548,210 549,209 549,208 550,207 550,207 551,208 551,206 552,207 553,208 553,208 554,207 554,208 555,209 555,209 556,210 556,210 557,209 557,208 558,208 558,209 559,208 559,208 560,208 560,206 561,205 561,205 562,204 562,205 563,205 563,205 564,204 565,204 565,201 566,199 566,198 567,198 567,198 568,197 568,196 569,195 569,196 570,197 570,196 571,196 571,196 572,195 572,195 573,195 573,195 574,194 574,194 575,195 575,195 576,195 577,194 577,194 578,193 578,192 579,191 579,192 580,191 580,191 581,191 581,191 582,190 582,190 583,191 583,190 584,191 584,190 585,191 585,191 586,189 586,189 587,188 587,188 588,187 589,188 589,189 590,190 590,190 591,190 591,190 592,187 592,188 593,188 593,189 594,188 594,188 595,188 595,187 596,187 596,187 597,185 597,185 598,185 598,183 599,184 599,184 600,185 601,186 601,185 602,185 602,184 603,184 603,174 604,172 604,170 605,171 605,171 606,170 606,171 607,171 607,169 608,168 608,168 609,167 609,167 610,166 610,165 611,165 611,165 612,163 613,163 613,164 614,165 614,166 615,164 615,165 616,165 616,165 617,163 617,163 618,163 618,162 619,161 619,161 620,161 620,158 621,158 621,157 622,156 622,155 623,156 623,156 624,157 625,158 625,158 626,158 626,159 627,158 627,157 628,158 628,158 629,157 629,158 630,158 630,157 631,157 631,157 632,157 632,157 633,158 633,155 634,156 634,155 635,156 635,157 636,157 636,155 637,155 638,156 638,156 639,156 639,156 640,156 640,156 641,156 641,155 642,154 642,155 643,152 643,150 644,150 644,150 645,150 645,148 646,147 646,148 647,146 647,147 648,148 648,148 649,145 650,145 650,145 651,145 651,146 652,146 652,147 653,146 653,146 654,147 654,147 655,146 655,146 656,146 656,146 657,147 657,148 658,148 658,148 659,149 659,147 660,149 660,148 661,148 662,146 662,147 663,147 663,147 664,146 664,146 665,146 665,145 666,145 666,144 667,142 667,142 668,144 668,145 669,144 669,134 670,134 670,132 671,132 671,132 672,131 672,130 673,130 674,130 674,129 675,128 675,127 676,125 676,124 677,123 677,122 678,122 678,121 679,121 679,121 680,122 680,123 681,122 681,123 682,122 682,122 683,122 683,119 684,119 684,119 685,118 686,117 686,118 687,118 687,118 688,116 688,116 689,117 689,116 690,114 690,113 691,115 691,115 692,115 692,116 693,116 693,116 694,117 694,115 695,115 695,116 696,117 696,116 697,116 698,116 698,116 699,114 699,114 700,114 700,114 701,112 701,111 702,112 702,113 703,113 703,113 704,113 704,112 705,113 705,113 706,113 706,112 707,112 707,113 708,114 708,114 709,113 710,113 710,113 711,113 711,113 712,112 712,112 713,113 713,113 714,114 714,114 715,115 715,116 716,116 716,117 717,117 717,117 718,117 718,117 719,117 719,116 720,116 720,115 721,114 722,114 722,115 723,115 723,115 724,115 724,114 725,114 725,114 726,115 726,113 727,113 727,113 728,113 728,113 729,114 729,113 730,113 730,112 731,111 731,112 732,111 732,111 733,111 734,110 734,110 735,110 735,109 736,110 736,110 737,110 737,109 738,109 738,108 739,108 739,107 740,107 740,107 741,104 741,104 742,105 742,105 743,105 743,105 744,104 744,103 745,103 746,102 746,103 747,103 747,103 748,101 748,100 749,99 749,100 750,99 750,100 751,100 751,98 752,97 752,97 753,97 753,96 754,96 754,97 755,97 755,96 756,97 756,97 757,97 758,95 758,95 759,95 759,96 760,95 760,95 761,95 761,95 762,95 762,96 763,97 763,98 764,98 764,98 765,99 765,98 766,99 766,99 767,102 767,102 768,102 768,102 769,101 770,101 770,102 771,102 771,102 772,103 772,103 773,104 773,105 774,106 774,106 775,105 775,105 776,105 776,109 777,110 777,110 778,110 778,110 779,113 779,113 780,114 780,114 781,115 782,114 782,113 783,112 783,112 784,112 784,112 785,110 785,110 786,109 786,110 787,111 787,111 788,111 788,111 789,110 789,109 790,108 790,109 791,109 791,107 792,109 792,108 793,108 793,108 794,106 794,106 795,106 795,107 796,106 796,105 797,106 797,106 798,105 798,105 799,105 799,106 800,105 800,105 801,106 801,107 802,107 802,95 803,101 803,95 804,95 804,94 805,95 806,95 806,97 807,95 807,93 808,94 808,94 809,94 809,95 810,94 810,94 811,94 811,93 812,93 812,93 813,94 813,94 814,94 814,94 815,94 815,94 816,92 816,93 817,93 818,92 818,92 819,93 819,92 820,92 820,91 821,91 821,91 822,91 822,91 823,91 823,91 824,92 824,91 825,91 825,92 826,91 826,91 827,91 827,91 828,92 828,91 829,92 830,91 830,91 831,91 831,90 832,90 832,91 833,92 833,91 834,92 834,93 835,92 835,93 836,93 836,93 837,93 837,93 838,94 838,93 839,93 839,93 840,93 840,93 841,93 842,93 842,95 843,94 843,93 844,92 844,91 845,89 845,89 846,90 846,89 847,88 847,111 848,112 848,112 849,87 849,87 850,87 850,87 851,88 851,88 852,87 852,87 853,86 854,87 854,87 855,88 855,86 856,85 856,86 857,86 857,86 858,86 858,86 859,86 859,86 860,86 860,87 861,87 861,87 862,87 862,87 863,87 863,87 864,88 864,88 865,87 866,86 866,87 867,87 867,88 868,87 868,87 869,87 869,88 870,89 870,89 871,89 871,89 872,90 872,90 873,89 873,90 874,90 874,89 875,89 875,89 876,90 876,89 877,88 878,89 878,89 879,88 879,88 880,89 880,89 881,88 881,89 882,89 882,90 883,90 883,90 884,90 884,90 885,90 885,90 886,89 886,90 887,89 887,89 888,88 888,87 889,88 890,88 890,88 891,88 891,88 892,87 892,88 893,88 893,87 894,87 894,87 895,87 895,88 896,88 896,88 897,88 897,88 898,88 898,89 899,89 899,88 900,89 900,89 901,88 902,88 902,87 903,87 903,87 904,85 904,85 905,85 905,85 906,85 906,85 907,84 907,84 908,86 908,86 909,87 909,87 910,88 910,88 911,89 911,89 912,89 912,90 913,91 914,91 914,91 915,90 915,88 916,89 916,89 917,88 917,89 918,88 918,88 919,88 919,88 920,88 920,87 921,88 921,87 922,87 922,87 923,86 923,86 924,86 924,86 925,86 926,86 926,86 927,86 927,86 928,85 928,86 929,85 929,85 930,85 930,85 931,85 931,85 932,84 932,85 933,85 933,86 934,86 934,84 935,84 935,83 936,83 936,83 937,83 938,83 938,85 939,85 939,85 940,86 940,79 941,79 941,80 942,79 942,79 943,78 943,78 944,78 944,78 945,77 945,77 946,76 946,76 947,77 947,76 948,75 948,76 949,76 950,75 950,76 951,76 951,77 952,77 952,77 953,76 953,78 954,78 954,78 955,79 955,78 956,78 956,78 957,79 957,79 958,79 958,79 959,79 959,79 960,79 960,78 961,77 962,77 962,78 963,77 963,77 964,78 964,79 965,78 965,78 966,78 966,78 967,78 967,78 968,79 968,79 969,79 969,80 970,80 970,80 971,81 971,81 972,82 972,82 973,81 974,81 974,81 975,81 975,81 976,81 976,81 977,81 977,81 978,81 978,81 979,81 979,80 980,80 980,80 981,82 981,82 982,82 982,83 983,83 983,83 984,84 984,84 985,84 986,84 986,85 987,84 987,84 988,84 988,84 989,84 989,85 990,86 990,85 991,84 991,84 992,84 992,85 993,85 993,85 994,86 994,85 994,85 995,86 995,87 996,87 996,86 997,87 998,87 998,88 999,88 999,88 1000,88 1000,88 1001,89 1001,88 1002,88 1002,88 1003,88 1003,89 1004,88 1004,88 1005,88 1005,89 1006,88 1006,88 1007,88 1007,87 1008,87 1008,87 1009,88 1010,88 1010,86 1011,86 1011,87 1012,87 1012,87 1013,87 1013,87 1014,87 1014,88 1015,88 1015,88 1016,87 1016,87 1017,87 1017,87 1018,87 1018,88 1019,87 1019,88 1020,88 1020,89 1021,89 1022,89 1022,89 1023,90 1023,90 1024,90 1024,90 1025,90 1025,91 1026,91 1026,92 1027,92 1027,92 1028,93 1028,94 1029,93 1029,93 1030,91 1030,91 1031,91 1031,91 1032,92 1032,91 1033,91 1034,92 1034,93 1035,93 1035,93 1036,93 1036,93 1037,93 1037,94 1038,94 1038,93 1039,94 1039,94 1040,93 1040,92 1041,93 1041,93 1042,94 1042,94 1043,95 1043,95 1044,95 1044,94 1045,95 1046,95 1046,95 1047,95 1047,95 1048,94 1048,94 1049,94 1049,93 1050,94 1050,94 1051,94 1051,94 1052,95 1052,95 1053,95 1053,95 1054,94 1054,94 1055,95 1055,95 1056,95 1056,95 1057,94 1058,94 1058,94 1059,94 1059,94 1060,94 1060,94 1061,94 1061,95 1062,95 1062,94 1063,94 1063,94 1064,95 1064,95 1065,96 1065,96 1066,96 1066,96 1067,96 1067,96 1068,96 1068,97 1068,97 1068,97 1069,96 1070,96 1070,95 1070,95 1070,96 1071,96 1071,96 1071,96 1072,96 1072,96 1072,96 1072,96 1073,96 1073,96 1073,96 1073,95 1074,95 1074,95 1074,95 1074,95 1075,95 1075,94 1075,94 1075,94 1076,94 1076,93 1076,93 1077,93 1077,94 1077,94 1078,94 1078,94 1078,94 1078,95 1079,95 1079,95 1079,95 1079,95 1080,95 1080,95 1080,95 1080,96 1081,96 1082,96 1082,95 1082,95 1082,95 1083,96 1083,96 1083,96 1083,96 1084,96 1084,96 1084,96 1084,96 1085,96 1085,96 1085,96 1085,96 1086,96 1086,95 1086,95 1087,95 1087,96 1087,96 1087,96 1088,96 1088,96 1088,96 1088,97 1089,97 1089,97 1089,97 1089,97 1090,97 1090,97 1090,97 1090,97 1091,97 1091,97 1091,97 1091,97 1092,97 1092,98 1092,98 1093,98 1094,98 1094,98 1094,98 1094,99 1095,99 1095,98 1095,98 1095,98 1096,98 1096,98 1096,98 1096,98 1097,98 1097,98 1097,98 1097,98 1098,98 1098,98 1098,98 1099,98 1099,97 1099,97 1099,97 1100,97 1100,97 1100,97 1100,97 1101,97 1101,97 1101,97 1102,97 1102,98 1102,98 1102,98 1103,98 1103,97 1103,97 1103,97 1104,97 1104,98 1104,98 1104,97 1105,97 1105,98 1106,98 1106,98 1106,98 1106,98 1107,98 1107,98 1107,98 1107,98 1108,98 1108,98 1108,98 1108,98 1109,98 1109,98 1109,98 1109,97 1110,97 1110,97 1110,97 1110,98 1111,98 1111,97 1111,97 1112,97 1112,98 1112,98 1112,98 1113,98 1113,97 1113,97 1113,96 1114,96 1114,97 1114,97 1114,96 1115,96 1115,96 1115,96 1115,97 1116,97 1116,97 1116,97 1117,97 1117,97 1118,97 1118,96 1118,96 1118,95 1119,95 1119,96 1119,96 1119,96 1120,96 1120,96 1121,96 1121,96 1121,96 1122,96 1122,96 1122,96 1122,95 1123,95 1123,94 1123,94 1123,94 1124,94 1124,95 1124,95 1124,95 1125,95 1125,95 1125,95 1125,95 1126,95 1126,95 1126,95 1126,95 1127,95 1127,95 1127,95 1128,95 1128,95 1128,95 1128,95 1129,95 1129,95 1130,95 1130,95 1130,95 1130,96 1131,96 1131,95 1131,95 1131,95 1132,95 1132,94 1132,94 1132,94 1133,94 1133,94 1133,94 1133,94 1134,94 1134,88 1134,88 1134,88 1135,88 1135,88 1135,89 1136,89 1136,89 1136,89 1136,89 1137,89 1137,89 1137,89 1137,89 1138,89 1138,89 1138,89 1138,88 1139,88 1139,89 1139,89 1140,89 1140,89 1140,89 1140,90 1141,90 1141,90 1142,90 1142,89 1142,89 1142,89 1143,89 1143,89 1143,89 1143,90 1144,90 1144,90 1144,90 1144,89 1145,89 1145,89 1145,89 1145,89 1146,89 1146,90 1146,90 1146,89 1147,89 1147,90 1147,90 1147,90 1148,90 1148,90 1148,90 1148,90 1149,90 1149,89 1149,90 1150,90 1150,92 1150,92 1150,92 1151,92 1151,92 1151,92 1151,92 1152,92 1152,93 1152,93 1152,94 1153,94 1153,93 1154,93 1154,93 1154,93 1154,93 1155,93 1155,94 1155,94 1155,94 1156,94 1156,94 1156,94 1156,95 1157,95 1157,95 1157,95 1157,95 1158,95 1158,96 1158,96 1158,96 1159,96 1159,96 1159,96 1159,96 1160,96 1160,97 1160,97 1160,97 1161,97 1161,96 1161,96 1161,96 1162,96 1162,96 1162,96 1162,96 1163,96 1163,95 1163,95 1163,95 1164,94 1164,94 1164,94 1165,94 1165,94 1166,94 1166,94 1166,94 1167,94 1167,93 1167,93 1167,94 1168,94 1168,94 1168,94 1168,94 1169,94 1169,94 1169,94 1169,94 1170,94 1170,94 1170,94 1170,94 1171,94 1171,94 1171,94 1172,94 1172,94 1172,94 1172,94 1173,94 1173,94 1173,94 1173,94 1174,94 1174,94 1174,94 1174,94 1175,94 1175,95 1175,95 1175,94 1176,94 1176,94 1176,94 1176,94 1177,94 1177,93 1178,93 1178,93 1178,93 1178,93 1179,93 1179,93 1179,93 1179,93 1180,93 1180,94 1180,94 1180,93 1181,93 1181,93 1181,93 1181,94 1182,94 1182,95 1182,95 1182,95 1183,95 1183,94 1183,94 1183,95 1184,95 1184,95 1184,95 1184,95 1185,95 1185,96 1185,96 1185,96 1186,96 1186,95 1186,95 1186,95 1187,95 1187,96 1187,96 1187,96 1188,96 1188,96 1188,96 1188,96 1189,96 1189,96 1190,96 "/>
<polyline fill="none" opacity="1" stroke="#19E66B" stroke-width="2" points="60,647 60,659 61,671 69,688 75,656 75,643 81,639 84,624 88,612 92,612 94,606 95,644 95,638 99,641 103,631 109,631 110,626 116,627 119,624 120,630 124,633 135,633 139,627 140,624 141,625 142,626 144,623 147,625 148,626 148,627 149,627 151,625 152,630 153,631 153,631 154,627 154,624 155,625 155,625 157,619 157,609 158,609 158,610 159,607 159,607 160,608 160,608 161,609 161,609 162,610 162,606 163,607 163,608 164,608 165,609 166,609 166,610 167,607 167,608 168,608 169,609 169,605 170,602 171,603 171,604 172,604 172,598 173,598 174,599 174,599 175,593 175,590 176,591 177,591 177,589 178,589 178,590 179,590 179,591 180,591 181,591 181,591 182,592 183,590 184,591 185,591 186,591 187,596 188,593 188,594 189,591 189,589 190,586 190,586 191,587 193,588 194,589 194,589 195,587 195,587 196,588 197,589 197,586 198,584 200,585 200,586 201,586 201,584 202,584 202,584 203,585 204,586 205,586 205,586 206,587 206,587 207,588 208,583 208,580 209,581 209,581 210,581 211,581 211,582 212,582 212,583 213,580 213,581 214,581 215,581 217,571 218,572 218,570 219,568 220,568 220,568 221,569 221,569 222,567 222,567 223,567 223,568 224,568 224,568 225,568 225,569 227,569 227,570 228,570 229,568 229,568 230,569 230,569 231,569 231,570 232,570 232,570 233,569 234,570 234,570 235,568 236,569 236,569 237,569 237,569 238,570 238,570 239,571 240,571 241,571 241,572 242,572 242,572 243,568 244,568 245,569 246,569 246,569 247,567 247,568 248,568 249,569 249,569 250,568 251,563 251,563 252,564 253,555 253,555 254,556 254,551 255,552 255,553 256,553 256,553 257,554 258,554 258,554 259,555 260,555 260,553 261,551 261,549 262,550 262,550 263,548 263,549 264,549 265,550 265,548 266,548 267,549 267,549 268,550 268,550 269,551 269,549 270,550 270,550 271,550 271,550 272,551 272,551 273,551 273,550 274,550 274,550 275,550 275,551 276,549 277,549 277,550 278,550 278,551 279,551 279,551 280,551 280,552 281,552 281,553 282,553 282,553 283,554 283,550 284,551 284,551 285,551 285,548 286,546 286,546 287,546 287,547 288,545 289,544 289,546 290,547 290,547 291,546 291,544 292,543 292,541 293,542 293,538 294,538 294,539 295,539 295,539 296,540 297,540 297,539 298,539 298,540 299,538 300,539 301,538 301,539 302,539 302,540 303,540 303,540 304,541 304,538 305,538 305,538 306,539 306,537 307,537 307,538 308,538 308,536 309,537 309,536 310,536 310,536 311,537 311,537 312,535 313,534 313,534 314,535 314,535 315,536 315,536 316,535 316,536 317,534 317,535 318,535 318,536 319,537 319,537 320,537 320,537 321,538 321,538 322,538 322,539 323,539 323,539 324,540 325,540 325,539 326,539 326,539 327,539 327,536 328,537 328,535 330,536 330,537 331,535 331,536 332,535 332,533 333,534 333,532 334,533 334,534 335,534 335,535 336,535 337,535 337,536 338,536 338,535 339,535 339,535 340,536 340,534 341,533 341,533 342,534 342,534 343,533 343,533 344,533 344,534 345,533 345,533 346,533 346,534 347,534 348,532 349,532 350,533 350,533 351,534 351,532 352,533 352,533 353,533 353,532 354,533 355,533 355,533 356,534 356,534 357,533 357,533 358,534 358,534 359,534 359,535 360,535 361,536 361,536 362,536 362,535 363,536 363,536 364,536 364,537 365,537 365,537 366,539 366,538 367,537 367,539 368,539 368,540 369,540 369,538 370,539 370,539 371,539 371,538 372,538 373,539 373,539 374,539 374,539 375,540 375,539 376,539 376,538 377,538 377,538 378,539 378,538 379,538 379,538 380,539 380,539 381,539 381,540 382,540 382,541 383,541 383,540 384,540 385,539 385,537 386,537 386,537 387,537 387,538 388,538 388,538 389,539 389,539 390,539 390,539 391,540 391,540 392,540 392,539 393,540 393,539 394,539 394,540 395,540 395,539 396,538 397,537 397,538 398,538 398,539 399,539 399,538 400,537 400,537 401,537 401,538 402,538 402,538 403,539 403,539 404,540 404,544 405,544 405,545 406,544 406,544 407,544 407,545 408,545 409,544 409,544 410,545 410,544 411,544 411,544 412,545 412,545 413,545 413,546 414,546 415,546 415,547 416,547 416,547 417,545 417,546 418,547 418,547 419,547 419,547 420,549 421,549 421,548 422,549 422,549 423,550 423,551 424,551 424,551 425,550 425,550 426,550 426,551 427,551 427,550 428,550 428,551 429,551 429,551 430,551 430,549 431,549 431,550 432,549 433,549 433,549 434,549 434,550 435,550 435,550 436,551 436,551 437,551 437,552 438,552 438,551 439,551 439,551 440,552 440,552 441,551 441,553 442,553 442,553 443,553 443,552 444,553 445,553 445,553 446,552 446,552 447,552 447,551 448,551 448,551 449,552 449,552 450,551 450,551 451,551 451,552 452,552 452,552 453,551 453,551 454,550 454,551 455,551 455,551 456,552 457,552 458,552 458,552 459,553 459,553 460,553 460,554 461,554 461,552 462,553 462,553 463,553 463,554 464,554 464,552 465,552 465,551 466,551 466,550 467,548 467,549 468,549 469,549 469,549 470,550 470,549 471,550 471,550 472,550 472,549 473,550 473,550 474,550 474,552 475,552 475,552 476,553 476,553 477,554 477,554 478,554 478,554 479,554 479,554 480,555 481,555 481,555 482,556 482,556 483,556 483,556 484,558 484,558 485,557 485,557 486,557 486,557 487,558 487,558 488,558 488,558 489,559 489,558 490,558 490,559 491,559 491,559 492,560 493,560 493,560 494,560 494,560 495,560 495,561 496,562 496,563 497,563 497,564 498,565 498,565 499,563 499,565 500,565 500,565 501,565 501,566 502,566 502,566 503,566 503,566 504,566 505,567 505,568 506,568 506,568 507,569 507,569 508,569 508,570 509,570 509,571 510,571 510,571 511,571 511,571 512,571 512,570 513,570 513,570 514,570 514,570 515,571 515,571 516,571 517,571 517,572 518,572 518,572 519,572 519,572 520,572 520,572 521,573 521,572 522,572 522,573 523,573 523,573 524,573 524,574 525,574 525,574 526,574 526,574 527,575 527,575 528,576 529,576 529,574 530,575 530,576 531,576 531,576 532,575 532,575 533,574 533,575 534,574 534,574 535,573 535,575 536,575 536,575 537,575 537,576 538,577 538,577 539,576 539,576 540,576 541,576 541,577 542,577 542,578 543,579 543,578 544,578 544,579 545,579 545,579 546,580 546,580 547,579 547,580 548,580 548,580 549,580 549,580 550,580 550,580 551,581 551,580 552,581 553,581 553,581 554,581 554,582 555,581 555,581 556,582 556,582 557,582 557,582 558,582 558,582 559,582 559,582 560,583 560,583 561,583 561,583 562,583 562,583 563,584 563,584 564,584 565,584 565,585 566,585 566,585 567,586 567,586 568,586 568,586 569,586 569,587 570,587 570,587 571,587 571,587 572,587 572,587 573,587 573,588 574,588 574,588 575,588 575,589 576,589 577,589 577,589 578,589 578,589 579,590 579,590 580,590 580,590 581,590 581,590 582,590 582,591 583,591 583,591 584,591 584,591 585,591 585,592 586,592 586,592 587,592 587,592 588,593 589,593 589,593 590,593 590,593 591,593 591,593 592,593 592,594 593,594 593,594 594,593 594,594 595,594 595,593 596,594 596,595 597,594 597,594 598,594 598,594 599,595 599,595 600,595 601,595 601,595 602,596 602,596 603,596 603,597 604,597 604,597 605,597 605,597 606,598 606,598 607,598 607,597 608,598 608,598 609,598 609,598 610,598 610,599 611,599 611,600 612,600 613,600 613,601 614,601 614,601 615,601 615,600 616,600 616,600 617,600 617,600 618,601 618,601 619,601 619,601 620,602 620,602 621,602 621,602 622,602 622,603 623,603 623,603 624,603 625,604 625,604 626,604 626,604 627,604 627,605 628,605 628,605 629,604 629,605 630,605 630,605 631,605 632,605 632,606 633,605 633,605 634,605 634,605 635,606 635,606 636,606 636,607 637,607 638,607 638,607 639,606 639,606 640,606 640,606 641,607 641,607 642,607 642,607 643,608 643,608 644,608 644,608 645,608 645,608 646,608 646,608 647,608 647,608 648,608 648,608 649,608 650,608 650,609 651,609 651,608 652,608 652,609 653,609 653,609 654,609 654,609 655,609 655,609 656,609 656,609 657,609 657,609 658,609 658,609 659,608 659,609 660,609 660,609 661,609 662,610 662,610 663,610 663,610 664,610 664,610 665,610 665,611 666,611 666,611 667,610 667,611 668,611 668,611 669,611 669,612 670,612 670,612 671,612 671,612 672,613 672,613 673,613 674,613 674,613 675,614 675,614 676,614 676,614 677,614 677,614 678,614 678,614 679,615 679,615 680,614 680,615 681,615 681,615 682,615 682,615 683,616 683,616 684,616 684,616 685,616 686,616 686,616 687,616 687,616 688,616 688,616 689,617 689,617 690,617 690,617 691,617 691,617 692,617 692,617 693,617 693,618 694,618 694,618 695,618 695,618 696,618 696,619 697,619 698,619 698,619 699,620 699,620 700,620 700,620 701,620 701,621 702,620 702,621 703,621 703,621 704,621 704,621 705,621 705,621 706,621 706,621 707,621 707,622 708,621 708,621 709,622 710,622 710,622 711,623 711,623 712,623 712,623 713,623 713,623 714,623 714,623 715,624 715,624 716,624 716,624 717,624 717,625 718,625 718,625 719,625 719,625 720,624 720,624 721,624 722,625 722,625 723,625 723,626 724,626 724,626 725,625 725,625 726,625 726,626 727,626 727,626 728,626 728,626 729,626 729,626 730,626 730,626 731,626 731,626 732,627 732,627 733,627 734,627 734,627 735,627 735,627 736,627 736,627 737,628 737,627 738,627 738,627 739,628 739,628 740,628 740,628 741,628 741,628 742,628 742,628 743,629 743,629 744,628 744,628 745,628 746,629 746,629 747,628 747,628 748,629 748,629 749,629 749,629 750,629 750,628 751,628 751,628 752,628 752,629 753,628 753,628 754,629 754,629 755,629 755,629 756,629 756,629 757,629 758,629 758,629 759,630 759,630 760,629 760,629 761,629 761,630 762,630 762,630 763,630 763,630 764,630 764,630 765,630 765,630 766,630 766,631 767,631 767,631 768,632 768,632 769,632 770,631 770,632 771,632 771,632 772,632 772,632 773,632 773,632 774,632 774,632 775,632 775,632 776,632 776,633 777,633 777,633 778,633 778,634 779,634 779,634 780,634 780,635 781,635 782,635 782,635 783,635 783,635 784,635 784,636 785,636 785,636 786,636 786,636 787,637 787,637 788,637 788,637 789,637 789,637 790,636 790,636 791,637 791,637 792,637 792,637 793,637 793,637 794,637 794,637 795,637 795,637 796,637 796,637 797,637 797,637 798,637 798,637 799,638 799,638 800,638 800,638 801,638 801,638 802,638 802,638 803,639 803,638 804,638 804,638 805,639 806,639 806,639 807,639 807,639 808,639 808,639 809,639 809,639 810,639 810,639 811,639 811,639 812,639 812,639 813,639 813,640 814,640 814,640 815,640 815,640 816,640 816,639 817,639 818,640 818,640 819,640 819,640 820,640 820,640 821,640 821,640 822,640 822,640 823,640 823,640 824,640 824,640 825,640 825,640 826,640 826,641 827,641 827,641 828,641 828,641 829,641 830,641 830,641 831,641 831,641 832,641 832,641 833,641 833,641 834,641 834,641 835,641 835,641 836,641 836,641 837,641 837,641 838,641 838,641 839,642 839,642 840,642 840,642 841,642 842,642 842,642 843,642 843,642 844,642 844,642 845,643 845,643 846,643 846,643 847,644 847,647 848,647 848,647 849,644 849,644 850,644 850,644 851,644 851,644 852,644 852,644 853,644 854,644 854,644 855,645 855,645 856,645 856,645 857,645 857,645 858,645 858,645 859,645 859,645 860,646 860,646 861,646 861,646 862,646 862,646 863,646 863,647 864,647 864,647 865,647 866,647 866,647 867,647 867,647 868,647 868,647 869,647 869,648 870,648 870,648 871,648 871,648 872,648 872,648 873,649 873,649 874,649 874,649 875,649 875,649 876,649 876,649 877,649 878,649 878,649 879,650 879,650 880,650 880,650 881,650 881,650 882,650 882,650 883,650 883,650 884,651 884,651 885,651 885,651 886,651 886,651 887,651 887,651 888,651 888,652 889,651 890,651 890,652 891,652 891,652 892,652 892,652 893,652 893,652 894,652 894,652 895,652 895,653 896,653 896,653 897,653 897,653 898,653 898,653 899,653 899,653 900,653 900,653 901,653 902,654 902,654 903,654 903,654 904,654 904,654 905,654 905,654 906,654 906,654 907,654 907,655 908,655 908,655 909,655 909,655 910,656 910,656 911,656 911,656 912,656 912,656 913,656 914,656 914,656 915,656 915,656 916,656 916,657 917,657 917,657 918,657 918,657 919,657 919,657 920,657 920,657 921,657 921,657 922,657 922,657 923,658 923,658 924,658 924,658 925,658 926,658 926,658 927,658 927,658 928,658 928,658 929,659 929,659 930,659 930,659 931,659 931,659 932,659 932,660 933,660 933,660 934,660 934,660 935,660 935,660 936,660 936,660 937,660 938,660 938,660 939,660 939,660 940,660 940,661 941,661 941,661 942,661 942,661 943,661 943,661 944,661 944,661 945,661 945,661 946,662 946,662 947,662 947,662 948,662 948,662 949,662 950,663 950,663 951,663 951,663 952,663 952,663 953,663 953,664 954,664 954,664 955,664 955,664 956,664 956,664 957,664 957,664 958,664 958,664 959,664 959,664 960,665 960,665 961,665 962,665 962,665 963,665 963,665 964,665 964,665 965,665 965,665 966,665 966,665 967,665 967,665 968,665 968,665 969,665 969,665 970,665 970,666 971,666 971,666 972,666 972,666 973,666 974,666 974,666 975,666 975,667 976,667 976,667 977,667 977,667 978,667 978,667 979,667 979,667 980,667 980,667 981,667 981,668 982,668 982,668 983,668 983,668 984,668 984,668 985,668 986,668 986,668 987,668 987,668 988,668 988,669 989,669 989,669 990,669 990,669 991,669 991,669 992,669 992,669 993,669 993,669 994,669 994,669 994,669 995,669 995,669 996,669 996,669 997,669 998,669 998,670 999,670 999,670 1000,670 1000,670 1001,670 1001,670 1002,670 1002,670 1003,670 1003,670 1004,670 1004,670 1005,671 1005,671 1006,671 1006,671 1007,671 1007,671 1008,671 1008,671 1009,671 1010,671 1010,672 1011,672 1011,672 1012,672 1012,673 1013,673 1013,673 1014,673 1014,673 1015,673 1015,673 1016,673 1016,673 1017,673 1017,673 1018,673 1018,673 1019,673 1019,673 1020,674 1020,674 1021,673 1022,674 1022,674 1023,674 1023,674 1024,674 1024,674 1025,674 1025,674 1026,674 1026,674 1027,674 1027,674 1028,674 1028,675 1029,675 1029,675 1030,675 1030,675 1031,675 1031,675 1032,675 1032,675 1033,675 1034,675 1034,675 1035,676 1035,676 1036,676 1036,676 1037,676 1037,676 1038,676 1038,676 1039,677 1039,676 1040,676 1040,676 1041,676 1041,676 1042,676 1042,676 1043,676 1043,677 1044,677 1044,677 1045,677 1046,677 1046,677 1047,677 1047,677 1048,677 1048,677 1049,677 1049,677 1050,677 1050,677 1051,678 1051,678 1052,678 1052,678 1053,678 1053,678 1054,678 1054,678 1055,678 1055,678 1056,678 1056,678 1057,678 1058,679 1058,679 1059,679 1059,679 1060,679 1060,679 1061,679 1061,679 1062,679 1062,679 1063,679 1063,679 1064,680 1064,680 1065,680 1065,680 1066,680 1066,680 1067,680 1067,680 1068,680 1068,680 1068,680 1068,680 1069,680 1070,680 1070,681 1070,681 1070,681 1071,680 1071,680 1071,680 1072,680 1072,681 1072,681 1072,681 1073,681 1073,681 1073,681 1073,681 1074,681 1074,681 1074,681 1074,681 1075,681 1075,681 1075,681 1075,681 1076,681 1076,682 1076,682 1077,682 1077,682 1077,682 1078,682 1078,682 1078,682 1078,682 1079,682 1079,682 1079,682 1079,682 1080,682 1080,682 1080,682 1080,682 1081,682 1082,682 1082,682 1082,682 1082,682 1083,682 1083,682 1083,682 1083,683 1084,683 1084,683 1084,683 1084,683 1085,683 1085,683 1085,683 1085,683 1086,683 1086,683 1086,683 1087,683 1087,683 1087,683 1087,683 1088,683 1088,683 1088,683 1088,683 1089,683 1089,683 1089,683 1089,683 1090,683 1090,683 1090,683 1090,684 1091,684 1091,684 1091,684 1091,684 1092,684 1092,684 1092,684 1093,684 1094,684 1094,684 1094,684 1094,684 1095,684 1095,684 1095,684 1095,684 1096,684 1096,684 1096,684 1096,684 1097,684 1097,684 1097,684 1097,684 1098,684 1098,684 1098,684 1099,684 1099,684 1099,684 1099,684 1100,684 1100,684 1100,684 1100,684 1101,684 1101,684 1101,685 1102,685 1102,685 1102,685 1102,685 1103,685 1103,685 1103,685 1103,685 1104,685 1104,685 1104,685 1104,685 1105,685 1105,685 1106,685 1106,685 1106,685 1106,685 1107,685 1107,685 1107,685 1107,686 1108,686 1108,686 1108,686 1108,686 1109,686 1109,686 1109,686 1109,686 1110,686 1110,686 1110,686 1110,686 1111,686 1111,686 1111,686 1112,686 1112,686 1112,686 1112,686 1113,686 1113,687 1113,687 1113,687 1114,687 1114,686 1114,686 1114,687 1115,687 1115,687 1115,687 1115,687 1116,687 1116,687 1116,687 1117,687 1117,687 1118,687 1118,687 1118,687 1118,687 1119,687 1119,687 1119,687 1119,687 1120,687 1120,687 1121,687 1121,687 1121,687 1122,687 1122,687 1122,687 1122,687 1123,687 1123,687 1123,687 1123,687 1124,687 1124,687 1124,687 1124,687 1125,687 1125,687 1125,687 1125,688 1126,688 1126,688 1126,688 1126,688 1127,688 1127,688 1127,688 1128,688 1128,688 1128,688 1128,688 1129,688 1129,688 1130,688 1130,688 1130,688 1130,688 1131,688 1131,688 1131,688 1131,688 1132,688 1132,688 1132,688 1132,688 1133,688 1133,688 1133,688 1133,688 1134,688 1134,688 1134,688 1134,688 1135,688 1135,688 1135,688 1136,688 1136,689 1136,689 1136,689 1137,689 1137,689 1137,689 1137,689 1138,689 1138,689 1138,689 1138,689 1139,689 1139,689 1139,689 1140,689 1140,689 1140,689 1140,689 1141,689 1141,689 1142,689 1142,689 1142,689 1142,689 1143,689 1143,689 1143,689 1143,689 1144,689 1144,689 1144,689 1144,689 1145,689 1145,689 1145,689 1145,690 1146,690 1146,690 1146,690 1146,690 1147,690 1147,690 1147,690 1147,690 1148,690 1148,690 1148,690 1148,690 1149,690 1149,690 1149,690 1150,690 1150,690 1150,690 1150,690 1151,690 1151,690 1151,690 1151,690 1152,690 1152,690 1152,690 1152,690 1153,690 1153,690 1154,690 1154,691 1154,691 1154,691 1155,691 1155,691 1155,691 1155,691 1156,691 1156,691 1156,691 1156,691 1157,691 1157,691 1157,691 1157,691 1158,691 1158,691 1158,691 1158,691 1159,691 1159,691 1159,691 1159,691 1160,691 1160,691 1160,691 1160,691 1161,691 1161,691 1161,691 1161,691 1162,691 1162,692 1162,692 1162,692 1163,692 1163,692 1163,692 1163,692 1164,692 1164,692 1164,692 1165,692 1165,692 1166,692 1166,692 1166,692 1167,692 1167,692 1167,692 1167,692 1168,692 1168,692 1168,692 1168,692 1169,692 1169,692 1169,692 1169,692 1170,692 1170,692 1170,692 1170,692 1171,692 1171,692 1171,692 1172,692 1172,693 1172,693 1172,693 1173,693 1173,693 1173,693 1173,693 1174,693 1174,693 1174,693 1174,693 1175,693 1175,693 1175,693 1175,693 1176,693 1176,693 1176,693 1176,693 1177,693 1177,693 1178,693 1178,693 1178,693 1178,693 1179,693 1179,693 1179,693 1179,693 1180,693 1180,693 1180,693 1180,693 1181,693 1181,693 1181,693 1181,693 1182,693 1182,694 1182,694 1182,694 1183,694 1183,694 1183,694 1183,694 1184,694 1184,694 1184,694 1184,694 1185,694 1185,694 1185,694 1185,694 1186,694 1186,694 1186,694 1186,694 1187,694 1187,694 1187,694 1187,694 1188,694 1188,694 1188,694 1188,694 1189,694 1189,694 1190,694 "/>
<polyline fill="none" opacity="1" stroke="#196BE6" stroke-width="2" points="86,728 93,720 96,720 105,716 106,710 111,706 116,702 122,699 123,700 124,696 128,692 131,693 135,695 139,692 141,693 147,695 148,691 148,687 151,684 153,681 155,678 155,675 156,667 157,665 159,666 162,660 163,661 165,658 166,655 167,653 168,649 171,651 172,652 173,652 173,649 175,647 178,648 181,646 185,648 187,646 194,646 195,646 196,647 197,648 198,646 199,643 199,640 200,644 206,646 208,644 209,645 210,645 213,646 214,646 214,647 216,647 217,647 218,645 219,645 219,645 220,646 221,646 224,647 225,647 228,648 230,644 231,644 232,645 233,646 234,646 234,646 235,646 236,646 237,644 238,645 238,645 240,645 241,646 243,646 244,647 245,647 246,647 247,647 247,648 248,648 248,648 250,649 251,649 251,649 253,649 253,647 255,646 255,646 256,646 257,647 258,644 258,645 260,645 262,643 262,641 263,642 266,641 267,639 268,639 268,639 269,640 269,640 270,640 270,642 271,641 273,637 274,637 277,638 277,636 278,636 280,635 281,633 281,633 284,632 285,633 286,631 287,629 287,630 288,628 289,628 290,629 291,627 291,628 292,626 293,624 293,624 294,625 294,625 295,625 295,623 296,622 296,622 297,622 297,622 298,621 298,621 299,621 299,621 300,622 301,620 301,620 302,621 303,621 303,622 304,622 304,622 305,622 305,622 306,623 306,623 307,623 307,623 308,624 308,624 309,624 309,622 310,622 311,623 311,623 312,623 313,623 313,624 314,623 315,621 315,619 316,620 316,618 317,618 317,615 318,615 318,616 319,616 319,616 320,616 320,617 321,617 321,613 322,612 322,612 323,612 323,613 324,613 325,613 325,613 326,613 326,614 327,612 327,612 328,612 328,613 329,613 329,613 330,613 330,614 331,614 331,611 332,609 332,610 333,610 333,610 334,607 334,607 335,608 335,608 336,608 337,608 337,609 338,609 338,609 339,609 339,610 340,610 340,610 341,610 341,610 342,609 342,609 343,609 343,610 344,610 344,610 345,612 345,612 346,613 346,613 347,613 347,613 348,614 349,614 349,612 350,613 350,613 351,613 351,613 352,613 352,614 353,614 353,614 354,614 354,615 355,615 355,613 356,614 356,614 357,614 357,614 358,614 358,615 359,615 359,615 360,615 361,615 361,616 362,616 362,616 363,616 363,617 364,615 364,614 365,613 365,613 366,613 366,613 367,614 367,614 368,614 368,614 369,614 369,615 370,615 370,615 371,615 371,615 372,615 373,616 373,616 374,616 374,615 375,615 375,615 376,615 376,615 377,616 377,616 378,616 378,616 379,617 379,617 380,615 380,616 381,616 381,616 382,616 382,615 383,615 383,616 384,616 385,616 385,616 386,616 386,617 387,617 387,616 388,616 388,616 389,616 389,616 390,616 390,616 391,617 391,616 392,616 392,616 393,616 393,616 394,617 394,617 395,617 395,618 396,618 397,615 397,614 398,615 398,615 399,616 399,615 400,615 400,616 401,614 401,615 402,613 402,612 403,612 403,613 404,613 404,615 405,616 405,616 406,616 406,617 407,617 407,617 408,617 409,616 409,616 410,615 410,616 411,616 411,615 412,615 413,615 413,615 414,615 414,616 415,616 415,616 416,616 416,616 417,617 417,617 418,618 418,618 419,618 419,618 420,618 421,619 421,619 422,619 422,619 423,619 423,620 424,620 424,620 425,620 425,620 426,620 426,621 427,621 427,622 428,622 429,621 429,621 430,621 430,621 431,616 431,617 432,618 433,618 433,618 434,618 434,619 435,619 435,619 436,619 436,619 437,620 437,621 438,621 438,620 439,620 439,620 440,621 440,620 441,620 441,619 442,619 442,619 443,619 443,619 444,620 445,620 445,620 446,620 446,620 447,621 447,622 448,621 448,621 449,621 450,621 450,622 451,622 451,622 452,622 452,622 453,622 453,623 454,623 454,624 455,624 455,624 456,624 457,624 457,625 458,625 458,625 459,624 459,624 460,624 460,624 461,623 461,623 462,623 462,624 463,624 463,623 464,622 464,623 465,623 465,623 466,623 466,623 467,622 467,621 468,621 469,622 469,622 470,622 470,622 471,622 471,620 472,621 472,620 473,621 473,620 474,618 474,616 475,617 475,617 476,617 476,617 477,618 477,618 478,618 478,618 479,618 479,618 480,618 481,618 481,618 482,619 482,619 483,618 483,619 484,619 485,620 485,620 486,620 486,620 487,621 487,621 488,621 488,620 489,620 489,621 490,621 490,620 491,620 491,620 492,621 493,621 493,621 494,621 494,622 495,622 495,622 496,622 496,623 497,623 497,623 498,623 498,624 499,624 499,624 500,624 500,624 501,624 501,624 502,625 502,625 503,625 503,625 504,626 505,626 505,626 506,626 506,626 507,626 507,627 508,626 508,626 509,625 509,625 510,625 510,625 511,625 511,624 512,624 512,624 513,625 513,625 514,624 514,622 515,623 515,623 516,622 517,622 517,622 518,622 518,622 519,622 519,622 520,622 520,623 521,623 521,623 522,621 522,622 523,622 523,622 524,622 524,622 525,622 525,623 526,623 526,623 527,621 527,623 528,623 529,621 529,621 530,622 530,620 531,620 531,620 532,620 532,620 533,620 533,620 534,620 534,621 535,621 535,621 536,621 536,620 537,620 537,620 538,621 538,622 539,621 539,621 540,621 541,622 541,622 542,622 542,622 543,623 543,623 544,623 544,623 545,623 545,623 546,623 546,623 547,623 547,624 548,624 548,623 549,623 549,624 550,624 550,624 551,623 551,624 552,624 553,624 553,624 554,625 554,625 555,625 555,625 556,625 556,625 557,625 557,624 558,624 558,624 559,625 559,625 560,625 560,625 561,625 561,625 562,626 562,626 563,626 563,626 564,626 565,626 565,627 566,626 566,626 567,626 567,626 568,627 568,627 569,627 569,627 570,627 570,627 571,627 571,627 572,626 572,626 573,627 573,626 574,626 574,626 575,627 575,625 576,625 577,626 577,626 578,625 578,625 579,625 579,624 580,624 580,624 581,624 581,625 582,625 582,625 583,625 583,625 584,625 584,626 585,626 585,626 586,625 586,626 587,626 587,626 588,626 589,626 589,626 590,626 590,627 591,627 591,627 592,627 592,627 593,627 593,628 594,628 594,627 595,627 595,627 596,627 596,627 597,627 597,627 598,627 598,627 599,627 599,627 600,627 601,627 601,627 602,627 602,627 603,627 603,627 604,627 604,627 605,627 605,627 606,627 606,627 607,627 607,628 608,628 608,628 609,628 609,628 610,628 610,629 611,629 611,629 612,629 613,629 613,629 614,630 614,630 615,630 615,630 616,630 616,630 617,630 617,631 618,631 618,631 619,631 619,631 620,631 620,632 621,632 621,632 622,632 622,632 623,632 623,633 624,633 625,633 625,632 626,633 626,633 627,633 627,633 628,633 628,633 629,633 629,633 630,633 630,633 631,633 631,631 632,632 632,632 633,632 633,632 634,632 634,632 635,632 635,632 636,632 636,632 637,632 638,633 638,633 639,633 639,633 640,633 640,633 641,633 641,633 642,633 642,634 643,633 643,633 644,634 644,634 645,634 645,634 646,633 646,633 647,634 647,634 648,635 648,635 649,635 650,635 650,635 651,635 651,635 652,635 652,634 653,634 653,634 654,634 654,634 655,634 655,633 656,633 656,633 657,634 657,634 658,634 658,634 659,634 659,634 660,633 660,633 661,633 662,633 662,633 663,633 663,632 664,633 664,633 665,633 665,633 666,633 666,633 667,633 667,633 668,633 668,633 669,633 669,633 670,633 670,633 671,634 671,634 672,634 672,634 673,634 674,634 674,634 675,634 675,634 676,635 676,635 677,635 677,635 678,635 678,635 679,635 679,635 680,635 680,635 681,635 681,635 682,635 682,635 683,636 683,636 684,636 684,636 685,636 686,636 686,636 687,636 687,636 688,636 688,636 689,637 689,637 690,637 690,637 691,637 691,638 692,638 692,637 693,637 693,638 694,638 694,638 695,638 695,638 696,638 696,638 697,639 698,639 698,639 699,639 699,639 700,640 700,640 701,640 701,640 702,640 702,640 703,640 703,640 704,640 704,640 705,640 705,640 706,640 706,641 707,641 707,641 708,640 708,640 709,640 710,640 710,639 711,640 711,640 712,639 712,639 713,639 713,640 714,639 714,639 715,639 715,640 716,640 716,640 717,640 717,640 718,640 718,640 719,641 719,641 720,641 720,641 721,641 722,641 722,641 723,641 723,641 724,641 724,641 725,641 725,641 726,642 726,642 727,642 727,642 728,641 728,641 729,642 729,641 730,641 730,641 731,642 731,642 732,642 732,642 733,642 734,642 734,642 735,642 735,642 736,642 736,642 737,642 737,642 738,642 738,642 739,643 739,643 740,643 740,643 741,643 741,644 742,644 742,644 743,644 743,644 744,644 744,644 745,644 746,644 746,644 747,645 747,645 748,645 748,645 749,645 749,645 750,645 750,645 751,645 751,645 752,645 752,646 753,646 753,646 754,646 754,646 755,646 755,646 756,646 756,645 757,646 758,646 758,646 759,646 759,646 760,646 760,647 761,647 761,647 762,647 762,647 763,646 763,646 764,646 764,647 765,647 765,647 766,647 766,648 767,648 767,648 768,648 768,648 769,649 770,649 770,648 771,648 771,649 772,649 772,649 773,649 773,649 774,649 774,649 775,649 775,649 776,649 776,649 777,649 777,650 778,650 778,649 779,650 779,650 780,650 780,650 781,649 782,650 782,649 783,649 783,649 784,650 784,650 785,650 785,650 786,650 786,650 787,650 787,650 788,650 788,650 789,651 789,651 790,650 790,650 791,650 791,650 792,650 792,650 793,650 793,650 794,651 794,651 795,651 795,651 796,651 796,651 797,652 797,652 798,652 798,652 799,652 799,652 800,652 800,652 801,652 801,652 802,652 802,653 803,654 803,653 804,653 804,653 805,653 806,653 806,652 807,652 807,653 808,653 808,653 809,653 809,653 810,653 810,653 811,653 811,653 812,653 812,653 813,653 813,653 814,653 814,653 815,653 815,653 816,653 816,653 817,653 818,654 818,654 819,654 819,654 820,654 820,654 821,654 821,654 822,654 822,654 823,655 823,655 824,655 824,655 825,655 825,655 826,655 826,655 827,655 827,655 828,654 828,654 829,655 830,655 830,655 831,655 831,655 832,655 832,655 833,655 833,655 834,654 834,653 835,653 835,653 836,654 836,654 837,654 837,654 838,655 838,655 839,655 839,655 840,655 840,655 841,655 842,655 842,655 843,655 843,655 844,656 844,656 845,656 845,656 846,656 846,656 847,656 847,660 848,660 848,660 849,656 849,657 850,657 850,657 851,657 851,657 852,657 852,657 853,657 854,657 854,657 855,658 855,658 856,658 856,658 857,658 857,658 858,658 858,658 859,659 859,659 860,659 860,659 861,659 861,659 862,659 862,659 863,659 863,660 864,659 864,659 865,660 866,659 866,659 867,659 867,660 868,660 868,660 869,660 869,660 870,660 870,660 871,661 871,661 872,661 872,661 873,661 873,661 874,661 874,661 875,661 875,660 876,660 876,660 877,660 878,660 878,660 879,660 879,660 880,660 880,660 881,660 881,660 882,660 882,660 883,660 883,661 884,660 884,660 885,661 885,661 886,661 886,661 887,661 887,661 888,661 888,661 889,661 890,661 890,661 891,661 891,661 892,662 892,662 893,662 893,662 894,662 894,662 895,662 895,662 896,662 896,662 897,662 897,662 898,662 898,663 899,663 899,663 900,663 900,663 901,663 902,663 902,663 903,663 903,663 904,663 904,663 905,663 905,663 906,663 906,662 907,663 907,663 908,663 908,663 909,663 909,663 910,663 910,663 911,663 911,663 912,663 912,663 913,663 914,663 914,663 915,663 915,663 916,663 916,663 917,663 917,663 918,663 918,664 919,664 919,664 920,664 920,664 921,664 921,664 922,664 922,664 923,664 923,664 924,664 924,664 925,664 926,665 926,665 927,664 927,664 928,665 928,665 929,665 929,665 930,665 930,665 931,665 931,665 932,665 932,665 933,665 933,665 934,666 934,666 935,666 935,666 936,666 936,666 937,666 938,666 938,666 939,666 939,666 940,666 940,667 941,667 941,667 942,667 942,667 943,667 943,667 944,667 944,667 945,667 945,667 946,667 946,668 947,668 947,668 948,668 948,668 949,668 950,668 950,668 951,668 951,668 952,668 952,668 953,668 953,668 954,668 954,668 955,669 955,669 956,669 956,669 957,669 957,669 958,669 958,669 959,669 959,669 960,669 960,669 961,669 962,669 962,669 963,669 963,669 964,669 964,669 965,669 965,669 966,669 966,669 967,669 967,669 968,669 968,669 969,669 969,669 970,669 970,670 971,669 971,669 972,670 972,670 973,670 974,670 974,670 975,670 975,670 976,670 976,670 977,670 977,670 978,670 978,670 979,670 979,670 980,670 980,670 981,670 981,670 982,670 982,670 983,670 983,670 984,670 984,670 985,670 986,670 986,670 987,670 987,670 988,670 988,670 989,670 989,671 990,671 990,671 991,671 991,671 992,671 992,671 993,671 993,672 994,671 994,671 994,671 995,672 995,672 996,672 996,672 997,671 998,671 998,671 999,672 999,672 1000,672 1000,672 1001,672 1001,672 1002,672 1002,672 1003,672 1003,672 1004,671 1004,672 1005,671 1005,671 1006,671 1006,671 1007,671 1007,672 1008,672 1008,672 1009,672 1010,672 1010,672 1011,672 1011,672 1012,672 1012,672 1013,672 1013,672 1014,672 1014,672 1015,672 1015,672 1016,672 1016,672 1017,672 1017,673 1018,673 1018,672 1019,672 1019,672 1020,672 1020,672 1021,672 1022,673 1022,673 1023,673 1023,673 1024,673 1024,673 1025,673 1025,673 1026,673 1026,673 1027,673 1027,673 1028,673 1028,673 1029,673 1029,673 1030,674 1030,674 1031,674 1031,674 1032,674 1032,674 1033,674 1034,674 1034,674 1035,674 1035,674 1036,675 1036,675 1037,675 1037,675 1038,675 1038,675 1039,675 1039,675 1040,675 1040,675 1041,675 1041,675 1042,676 1042,676 1043,676 1043,676 1044,676 1044,676 1045,676 1046,676 1046,676 1047,676 1047,676 1048,676 1048,677 1049,677 1049,677 1050,677 1050,677 1051,677 1051,677 1052,677 1052,677 1053,677 1053,677 1054,677 1054,677 1055,677 1055,678 1056,678 1056,678 1057,678 1058,678 1058,678 1059,678 1059,678 1060,678 1060,678 1061,678 1061,678 1062,678 1062,678 1063,678 1063,678 1064,679 1064,679 1065,679 1065,679 1066,679 1066,679 1067,678 1067,678 1068,678 1068,678 1068,678 1068,678 1069,678 1070,678 1070,679 1070,679 1070,679 1071,679 1071,679 1071,679 1072,679 1072,679 1072,679 1072,679 1073,679 1073,679 1073,679 1073,679 1074,679 1074,680 1074,680 1074,679 1075,679 1075,679 1075,679 1075,680 1076,680 1076,680 1076,679 1077,679 1077,680 1077,680 1078,680 1078,680 1078,680 1078,680 1079,680 1079,680 1079,680 1079,680 1080,680 1080,680 1080,680 1080,680 1081,680 1082,680 1082,680 1082,680 1082,680 1083,680 1083,680 1083,680 1083,680 1084,680 1084,680 1084,680 1084,680 1085,680 1085,680 1085,680 1085,680 1086,680 1086,680 1086,681 1087,681 1087,681 1087,681 1087,681 1088,681 1088,681 1088,681 1088,681 1089,681 1089,681 1089,681 1089,681 1090,681 1090,680 1090,680 1090,681 1091,681 1091,681 1091,681 1091,681 1092,681 1092,681 1092,681 1093,681 1094,681 1094,681 1094,681 1094,681 1095,681 1095,681 1095,681 1095,681 1096,681 1096,681 1096,681 1096,681 1097,681 1097,681 1097,681 1097,681 1098,681 1098,681 1098,681 1099,681 1099,681 1099,681 1099,681 1100,681 1100,681 1100,681 1100,681 1101,681 1101,681 1101,681 1102,681 1102,682 1102,682 1102,682 1103,682 1103,682 1103,682 1103,682 1104,682 1104,682 1104,682 1104,682 1105,682 1105,682 1106,682 1106,682 1106,682 1106,682 1107,682 1107,682 1107,682 1107,682 1108,682 1108,682 1108,682 1108,682 1109,682 1109,682 1109,682 1109,682 1110,682 1110,682 1110,682 1110,682 1111,682 1111,682 1111,682 1112,682 1112,682 1112,682 1112,682 1113,682 1113,672 1113,672 1113,672 1114,672 1114,672 1114,672 1114,672 1115,672 1115,672 1115,672 1115,672 1116,672 1116,672 1116,672 1117,672 1117,672 1118,672 1118,672 1118,672 1118,672 1119,672 1119,672 1119,672 1119,672 1120,672 1120,672 1121,672 1121,672 1121,672 1122,672 1122,672 1122,672 1122,672 1123,672 1123,672 1123,672 1123,672 1124,672 1124,672 1124,672 1124,672 1125,672 1125,672 1125,672 1125,672 1126,672 1126,672 1126,672 1126,672 1127,672 1127,672 1127,672 1128,672 1128,672 1128,672 1128,672 1129,672 1129,672 1130,672 1130,672 1130,672 1130,672 1131,672 1131,672 1131,672 1131,672 1132,672 1132,673 1132,673 1132,673 1133,673 1133,673 1133,673 1133,673 1134,673 1134,673 1134,673 1134,673 1135,673 1135,673 1135,673 1136,673 1136,673 1136,673 1136,673 1137,673 1137,673 1137,673 1137,673 1138,673 1138,673 1138,673 1138,674 1139,674 1139,673 1139,673 1140,673 1140,673 1140,673 1140,673 1141,673 1141,673 1142,673 1142,673 1142,673 1142,674 1143,674 1143,674 1143,674 1143,674 1144,674 1144,674 1144,674 1144,674 1145,674 1145,674 1145,674 1145,674 1146,674 1146,674 1146,674 1146,674 1147,674 1147,674 1147,674 1147,674 1148,674 1148,674 1148,674 1148,674 1149,674 1149,674 1149,674 1150,674 1150,674 1150,674 1150,674 1151,674 1151,675 1151,675 1151,675 1152,675 1152,675 1152,675 1152,675 1153,675 1153,675 1154,675 1154,675 1154,675 1154,675 1155,675 1155,675 1155,675 1155,675 1156,675 1156,675 1156,675 1156,676 1157,676 1157,676 1157,676 1157,676 1158,676 1158,676 1158,676 1158,676 1159,676 1159,676 1159,676 1159,676 1160,676 1160,676 1160,676 1160,676 1161,676 1161,676 1161,676 1161,676 1162,676 1162,676 1162,676 1162,676 1163,676 1163,676 1163,676 1163,676 1164,676 1164,676 1164,676 1165,676 1165,676 1166,676 1166,676 1166,676 1167,676 1167,676 1167,676 1167,676 1168,676 1168,677 1168,677 1168,677 1169,677 1169,677 1169,677 1169,677 1170,677 1170,677 1170,677 1170,677 1171,677 1171,677 1171,677 1172,677 1172,677 1172,677 1172,677 1173,677 1173,677 1173,677 1173,677 1174,677 1174,677 1174,677 1174,677 1175,677 1175,677 1175,677 1175,678 1176,678 1176,678 1176,678 1176,678 1177,678 1177,678 1178,678 1178,678 1178,678 1178,678 1179,678 1179,678 1179,678 1179,678 1180,678 1180,678 1180,678 1180,678 1181,678 1181,678 1181,678 1181,678 1182,678 1182,678 1182,678 1182,678 1183,678 1183,678 1183,678 1183,678 1184,678 1184,678 1184,678 1184,678 1185,678 1185,678 1185,678 1185,678 1186,678 1186,678 1186,678 1186,678 1187,678 1187,678 1187,678 1187,679 1188,679 1188,679 1188,679 1188,679 1189,679 1189,679 1190,679 "/>
<polyline fill="none" opacity="1" stroke="#BD19E6" stroke-width="2" points="496,738 497,737 518,737 534,736 553,735 554,734 561,734 573,732 577,732 581,731 589,731 591,730 593,728 595,728 601,727 616,727 616,726 621,726 628,725 633,725 635,724 636,724 637,723 640,722 641,721 644,721 645,720 648,720 649,720 650,719 650,719 651,719 654,719 654,718 655,718 655,718 658,718 660,717 660,717 661,717 663,716 664,715 665,715 666,714 666,713 667,714 668,713 668,712 669,712 669,712 670,713 671,712 674,712 675,711 676,711 678,710 679,710 681,710 681,709 683,708 686,708 687,708 687,707 690,707 692,706 693,705 693,704 698,704 698,703 699,703 699,702 702,701 703,701 704,700 704,700 705,700 705,698 706,698 706,698 707,697 708,696 708,696 709,695 710,695 710,694 711,694 712,693 713,693 714,691 714,690 715,690 716,690 716,689 717,688 717,688 718,688 718,688 719,688 719,687 720,687 720,687 721,686 722,685 722,685 723,685 723,683 724,682 724,682 726,681 726,681 727,681 728,680 728,679 729,679 729,677 730,676 731,676 732,675 732,675 733,674 734,674 734,674 735,674 735,674 736,674 736,673 737,673 737,673 738,673 738,673 739,674 739,673 740,673 740,673 741,672 741,672 742,672 742,672 743,672 743,672 744,672 744,672 745,672 746,672 746,671 747,671 747,671 748,670 749,670 749,670 750,670 750,669 751,669 751,668 752,668 752,668 753,668 754,667 754,667 755,667 755,666 756,667 756,667 757,666 758,666 758,665 759,666 759,665 760,664 760,664 761,663 761,663 762,663 762,663 763,663 763,663 764,663 764,663 765,663 766,663 766,662 767,663 767,662 768,662 768,662 769,662 770,662 770,662 771,662 771,662 772,662 772,661 773,660 773,658 774,658 774,657 775,657 775,657 776,656 776,657 777,657 777,657 778,656 778,656 779,656 780,656 780,656 781,656 782,655 782,655 783,655 784,654 784,653 785,653 786,653 786,653 787,653 787,653 788,653 788,653 789,653 790,653 790,653 791,653 791,652 792,651 792,651 793,651 793,651 794,651 794,651 795,651 795,650 796,650 797,649 797,649 798,649 798,649 799,648 799,647 800,647 800,646 801,646 801,646 802,646 802,645 803,645 803,644 804,644 804,644 805,644 806,644 806,643 807,643 807,643 808,641 808,641 809,641 809,641 810,640 810,640 811,640 811,640 812,640 812,640 813,639 813,639 814,638 814,639 815,639 815,638 816,638 816,638 817,637 818,637 818,636 819,636 819,636 820,636 820,636 821,636 821,636 822,636 823,637 823,637 824,636 824,636 825,636 825,636 826,636 826,637 827,637 827,636 828,637 828,636 829,636 830,636 830,636 831,636 831,636 832,635 832,635 833,635 833,635 834,634 834,634 835,633 835,632 836,631 836,632 837,631 837,630 838,629 838,629 839,628 839,629 840,629 840,628 841,627 842,627 842,626 843,626 843,625 844,625 844,625 845,625 845,625 846,623 846,622 847,621 847,625 848,625 848,624 849,619 849,619 850,618 850,616 851,616 851,615 852,615 852,614 853,614 854,614 854,613 855,613 855,613 856,613 856,613 857,613 857,613 858,613 858,612 859,612 859,612 860,612 860,612 861,611 861,610 862,610 862,609 863,609 863,610 864,610 864,609 865,608 866,608 866,608 867,608 867,607 868,607 868,607 869,607 869,606 870,606 870,607 871,607 871,607 872,607 872,607 873,606 873,606 874,605 874,605 875,604 875,604 876,604 876,604 877,603 878,603 878,602 879,602 879,601 880,600 880,600 881,599 881,599 882,599 882,599 883,598 883,598 884,597 884,596 885,596 885,597 886,596 886,595 887,595 887,595 888,595 888,594 889,594 890,594 890,593 891,593 891,593 892,593 892,593 893,593 893,593 894,593 894,592 895,592 895,591 896,591 896,591 897,591 897,590 898,590 898,590 899,590 899,590 900,590 900,590 901,590 902,590 902,589 903,589 903,589 904,588 904,587 905,587 905,587 906,587 906,587 907,586 907,586 908,586 908,586 909,585 909,585 910,585 910,584 911,584 911,585 912,584 912,584 913,584 914,584 914,583 915,583 915,582 916,581 916,581 917,581 917,581 918,581 918,581 919,581 919,581 920,580 920,579 921,580 921,579 922,579 922,579 923,579 923,579 924,579 924,578 925,578 926,577 926,577 927,577 927,577 928,577 928,576 929,576 929,575 930,575 930,576 931,575 931,574 932,574 932,574 933,573 933,573 934,573 934,573 935,572 935,572 936,572 936,572 937,571 938,571 938,572 939,572 939,571 940,571 940,571 941,571 941,571 942,571 942,571 943,571 943,571 944,570 944,569 945,569 945,568 946,569 946,568 947,568 947,568 948,568 948,567 949,567 950,567 950,567 951,567 951,566 952,566 952,566 953,566 953,565 954,565 954,564 955,564 955,564 956,563 956,563 957,563 957,562 958,562 958,562 959,561 959,561 960,561 960,560 961,560 962,560 962,560 963,560 963,559 964,558 965,558 965,558 966,558 966,558 967,557 967,557 968,557 968,557 969,557 969,557 970,556 970,556 971,555 971,554 972,554 972,554 973,553 974,553 974,553 975,552 975,552 976,552 976,551 977,551 977,551 978,551 978,551 979,550 979,549 980,549 980,549 981,549 981,549 982,548 982,548 983,547 983,547 984,546 984,545 985,545 986,544 986,544 987,543 987,543 988,542 988,542 989,541 989,541 990,541 990,541 991,540 991,540 992,540 992,539 993,539 993,539 994,538 994,538 994,538 995,538 995,538 996,537 996,537 997,536 998,536 998,534 999,533 999,533 1000,532 1000,531 1001,531 1001,531 1002,531 1002,531 1003,531 1003,530 1004,530 1004,531 1005,531 1005,530 1006,529 1006,529 1007,529 1007,528 1008,528 1008,528 1009,527 1010,527 1010,526 1011,526 1011,526 1012,525 1012,525 1013,526 1013,525 1014,525 1014,524 1015,524 1015,524 1016,524 1016,524 1017,524 1017,524 1018,523 1018,523 1019,523 1019,523 1020,521 1020,521 1021,521 1022,520 1022,520 1023,520 1023,520 1024,520 1024,519 1025,518 1025,518 1026,518 1026,517 1027,516 1027,516 1028,515 1028,515 1029,515 1029,515 1030,515 1030,515 1031,514 1031,514 1032,514 1032,514 1033,513 1034,514 1034,513 1035,513 1035,513 1036,513 1036,513 1037,513 1037,513 1038,512 1038,512 1039,512 1039,511 1040,511 1040,510 1041,510 1041,509 1042,509 1042,509 1043,509 1043,510 1044,510 1044,510 1045,509 1046,510 1046,510 1047,509 1047,509 1048,508 1048,508 1049,508 1049,508 1050,508 1050,508 1051,507 1051,507 1052,507 1052,506 1053,506 1053,506 1054,506 1054,506 1055,505 1055,505 1056,505 1056,505 1057,505 1058,505 1058,504 1059,504 1059,504 1060,503 1060,502 1061,501 1061,501 1062,501 1062,501 1063,500 1063,500 1064,500 1064,500 1065,500 1065,500 1066,499 1066,499 1067,499 1067,499 1068,499 1068,499 1068,499 1068,498 1069,497 1070,497 1070,497 1070,497 1070,497 1071,497 1071,497 1071,497 1072,497 1072,496 1072,496 1072,496 1073,496 1073,496 1073,496 1073,496 1074,496 1074,496 1074,496 1074,495 1075,495 1075,495 1075,495 1075,494 1076,494 1076,495 1076,494 1077,494 1077,493 1077,493 1078,493 1078,494 1078,494 1078,493 1079,493 1079,493 1079,493 1079,493 1080,493 1080,492 1080,492 1080,492 1081,492 1082,492 1082,492 1082,492 1082,491 1083,491 1083,490 1083,490 1083,490 1084,490 1084,490 1084,490 1084,490 1085,490 1085,490 1085,490 1085,489 1086,489 1086,489 1086,489 1087,489 1087,489 1087,489 1087,488 1088,488 1088,488 1088,488 1088,487 1089,487 1089,487 1089,487 1089,487 1090,487 1090,486 1090,486 1090,487 1091,487 1091,486 1091,486 1091,486 1092,486 1092,485 1092,485 1093,485 1094,485 1094,485 1094,485 1094,483 1095,483 1095,484 1095,484 1095,484 1096,484 1096,484 1096,484 1096,484 1097,484 1097,483 1097,483 1097,484 1098,484 1098,483 1098,483 1099,483 1099,482 1099,482 1099,482 1100,482 1100,481 1100,481 1100,480 1101,480 1101,480 1101,480 1102,480 1102,480 1102,480 1102,480 1103,480 1103,479 1103,479 1103,478 1104,478 1104,478 1104,478 1104,479 1105,479 1105,478 1106,478 1106,478 1106,478 1107,478 1107,477 1107,477 1107,476 1108,476 1108,476 1108,476 1108,476 1109,476 1109,475 1109,475 1109,474 1110,474 1110,473 1110,473 1110,473 1111,473 1111,472 1111,472 1112,472 1112,472 1112,472 1112,472 1113,472 1113,472 1113,472 1113,472 1114,472 1114,472 1114,472 1114,472 1115,472 1115,472 1115,472 1115,471 1116,471 1116,471 1116,470 1117,470 1117,469 1118,469 1118,469 1118,469 1118,469 1119,469 1119,469 1119,469 1119,468 1120,468 1120,468 1121,468 1121,468 1121,468 1122,468 1122,467 1122,467 1122,467 1123,468 1123,468 1123,468 1123,467 1124,467 1124,467 1124,467 1124,467 1125,467 1125,467 1125,467 1125,467 1126,467 1126,467 1126,467 1126,467 1127,467 1127,467 1127,467 1128,467 1128,467 1128,467 1128,467 1129,467 1129,467 1130,467 1130,467 1130,467 1130,467 1131,467 1131,466 1131,466 1131,465 1132,465 1132,465 1132,465 1132,465 1133,465 1133,465 1133,465 1133,465 1134,465 1134,465 1134,465 1134,464 1135,464 1135,464 1135,464 1136,464 1136,464 1136,464 1136,465 1137,465 1137,465 1137,465 1137,465 1138,465 1138,465 1138,465 1138,464 1139,464 1139,464 1139,465 1140,465 1140,465 1140,465 1140,465 1141,465 1141,464 1142,464 1142,464 1142,464 1142,464 1143,464 1143,464 1143,464 1143,464 1144,464 1144,463 1144,463 1144,463 1145,463 1145,463 1145,463 1145,463 1146,463 1146,463 1146,463 1146,463 1147,463 1147,462 1147,462 1147,462 1148,462 1148,462 1148,462 1148,462 1149,462 1149,462 1149,462 1150,462 1150,462 1150,462 1150,461 1151,461 1151,462 1151,462 1151,462 1152,462 1152,462 1152,462 1152,461 1153,461 1153,461 1154,461 1154,461 1154,461 1154,461 1155,461 1155,461 1155,461 1155,461 1156,461 1156,460 1156,460 1156,461 1157,461 1157,460 1157,460 1157,460 1158,460 1158,459 1158,459 1158,459 1159,459 1159,459 1159,459 1159,459 1160,459 1160,459 1160,459 1160,458 1161,458 1161,458 1161,458 1161,457 1162,457 1162,456 1162,456 1162,455 1163,455 1163,455 1163,455 1163,456 1164,455 1164,455 1164,454 1165,454 1165,454 1166,454 1166,454 1166,454 1167,454 1167,454 1167,454 1167,454 1168,454 1168,454 1168,454 1168,454 1169,454 1169,454 1169,454 1169,454 1170,454 1170,453 1170,453 1170,453 1171,453 1171,453 1171,453 1172,453 1172,454 1172,454 1172,454 1173,454 1173,454 1173,454 1173,453 1174,453 1174,452 1174,452 1174,452 1175,452 1175,452 1175,452 1175,452 1176,452 1176,452 1176,452 1176,452 1177,452 1177,452 1178,452 1178,452 1178,452 1178,451 1179,451 1179,451 1179,451 1179,451 1180,451 1180,452 1180,452 1180,451 1181,451 1181,451 1181,452 1181,452 1182,452 1182,451 1182,451 1182,451 1183,451 1183,451 1183,451 1183,451 1184,451 1184,451 1184,451 1184,451 1185,451 1185,451 1185,451 1185,451 1186,451 1186,450 1186,450 1186,450 1187,450 1187,450 1187,450 1187,450 1188,450 1188,449 1188,449 1188,449 1189,449 1189,449 1190,449 "/>
<rect x="1088" y="329" width="97" height="91" opacity="1" fill="#FFFFFF" stroke="none"/>
<rect x="1088" y="329" width="97" height="91" opacity="1" fill="none" stroke="#000000"/>
<text x="1128" y="339" dy="0.76em" text-anchor="start" font-family="sans-serif" font-size="9.67741935483871" opacity="1" fill="#000000">
argparse
</text>
<text x="1128" y="354" dy="0.76em" text-anchor="start" font-family="sans-serif" font-size="9.67741935483871" opacity="1" fill="#000000">
clap
</text>
<text x="1128" y="369" dy="0.76em" text-anchor="start" font-family="sans-serif" font-size="9.67741935483871" opacity="1" fill="#000000">
docopt
</text>
<text x="1128" y="384" dy="0.76em" text-anchor="start" font-family="sans-serif" font-size="9.67741935483871" opacity="1" fill="#000000">
getopts
</text>
<text x="1128" y="399" dy="0.76em" text-anchor="start" font-family="sans-serif" font-size="9.67741935483871" opacity="1" fill="#000000">
structopt
</text>
<polyline fill="none" opacity="1" stroke="#E61919" stroke-width="2" points="1098,343 1118,343 "/>
<polyline fill="none" opacity="1" stroke="#BDE619" stroke-width="2" points="1098,359 1118,359 "/>
<polyline fill="none" opacity="1" stroke="#19E66B" stroke-width="2" points="1098,374 1118,374 "/>
<polyline fill="none" opacity="1" stroke="#196BE6" stroke-width="2" points="1098,389 1118,389 "/>
<polyline fill="none" opacity="1" stroke="#BD19E6" stroke-width="2" points="1098,404 1118,404 "/>
</svg>
