<svg width="1200" height="800" xmlns="http://www.w3.org/2000/svg">
<rect x="0" y="0" width="1199" height="799" opacity="1" fill="#FFFFFF" stroke="none"/>
<line opacity="0.1" stroke="#000000" stroke-width="1" x1="60" y1="731" x2="1190" y2="731"/>
<line opacity="0.1" stroke="#000000" stroke-width="1" x1="60" y1="723" x2="1190" y2="723"/>
<line opacity="0.1" stroke="#000000" stroke-width="1" x1="60" y1="715" x2="1190" y2="715"/>
<line opacity="0.1" stroke="#000000" stroke-width="1" x1="60" y1="707" x2="1190" y2="707"/>
<line opacity="0.1" stroke="#000000" stroke-width="1" x1="60" y1="699" x2="1190" y2="699"/>
<line opacity="0.1" stroke="#000000" stroke-width="1" x1="60" y1="690" x2="1190" y2="690"/>
<line opacity="0.1" stroke="#000000" stroke-width="1" x1="60" y1="682" x2="1190" y2="682"/>
<line opacity="0.1" stroke="#000000" stroke-width="1" x1="60" y1="674" x2="1190" y2="674"/>
<line opacity="0.1" stroke="#000000" stroke-width="1" x1="60" y1="666" x2="1190" y2="666"/>
<line opacity="0.1" stroke="#000000" stroke-width="1" x1="60" y1="658" x2="1190" y2="658"/>
<line opacity="0.1" stroke="#000000" stroke-width="1" x1="60" y1="650" x2="1190" y2="650"/>
<line opacity="0.1" stroke="#000000" stroke-width="1" x1="60" y1="641" x2="1190" y2="641"/>
<line opacity="0.1" stroke="#000000" stroke-width="1" x1="60" y1="633" x2="1190" y2="633"/>
<line opacity="0.1" stroke="#000000" stroke-width="1" x1="60" y1="625" x2="1190" y2="625"/>
<line opacity="0.1" stroke="#000000" stroke-width="1" x1="60" y1="617" x2="1190" y2="617"/>
<line opacity="0.1" stroke="#000000" stroke-width="1" x1="60" y1="609" x2="1190" y2="609"/>
<line opacity="0.1" stroke="#000000" stroke-width="1" x1="60" y1="601" x2="1190" y2="601"/>
<line opacity="0.1" stroke="#000000" stroke-width="1" x1="60" y1="592" x2="1190" y2="592"/>
<line opacity="0.1" stroke="#000000" stroke-width="1" x1="60" y1="584" x2="1190" y2="584"/>
<line opacity="0.1" stroke="#000000" stroke-width="1" x1="60" y1="576" x2="1190" y2="576"/>
<line opacity="0.1" stroke="#000000" stroke-width="1" x1="60" y1="568" x2="1190" y2="568"/>
<line opacity="0.1" stroke="#000000" stroke-width="1" x1="60" y1="560" x2="1190" y2="560"/>
<line opacity="0.1" stroke="#000000" stroke-width="1" x1="60" y1="552" x2="1190" y2="552"/>
<line opacity="0.1" stroke="#000000" stroke-width="1" x1="60" y1="543" x2="1190" y2="543"/>
<line opacity="0.1" stroke="#000000" stroke-width="1" x1="60" y1="535" x2="1190" y2="535"/>
<line opacity="0.1" stroke="#000000" stroke-width="1" x1="60" y1="527" x2="1190" y2="527"/>
<line opacity="0.1" stroke="#000000" stroke-width="1" x1="60" y1="519" x2="1190" y2="519"/>
<line opacity="0.1" stroke="#000000" stroke-width="1" x1="60" y1="511" x2="1190" y2="511"/>
<line opacity="0.1" stroke="#000000" stroke-width="1" x1="60" y1="503" x2="1190" y2="503"/>
<line opacity="0.1" stroke="#000000" stroke-width="1" x1="60" y1="494" x2="1190" y2="494"/>
<line opacity="0.1" stroke="#000000" stroke-width="1" x1="60" y1="486" x2="1190" y2="486"/>
<line opacity="0.1" stroke="#000000" stroke-width="1" x1="60" y1="478" x2="1190" y2="478"/>
<line opacity="0.1" stroke="#000000" stroke-width="1" x1="60" y1="470" x2="1190" y2="470"/>
<line opacity="0.1" stroke="#000000" stroke-width="1" x1="60" y1="462" x2="1190" y2="462"/>
<line opacity="0.1" stroke="#000000" stroke-width="1" x1="60" y1="454" x2="1190" y2="454"/>
<line opacity="0.1" stroke="#000000" stroke-width="1" x1="60" y1="445" x2="1190" y2="445"/>
<line opacity="0.1" stroke="#000000" stroke-width="1" x1="60" y1="437" x2="1190" y2="437"/>
<line opacity="0.1" stroke="#000000" stroke-width="1" x1="60" y1="429" x2="1190" y2="429"/>
<line opacity="0.1" stroke="#000000" stroke-width="1" x1="60" y1="421" x2="1190" y2="421"/>
<line opacity="0.1" stroke="#000000" stroke-width="1" x1="60" y1="413" x2="1190" y2="413"/>
<line opacity="0.1" stroke="#000000" stroke-width="1" x1="60" y1="405" x2="1190" y2="405"/>
<line opacity="0.1" stroke="#000000" stroke-width="1" x1="60" y1="396" x2="1190" y2="396"/>
<line opacity="0.1" stroke="#000000" stroke-width="1" x1="60" y1="388" x2="1190" y2="388"/>
<line opacity="0.1" stroke="#000000" stroke-width="1" x1="60" y1="380" x2="1190" y2="380"/>
<line opacity="0.1" stroke="#000000" stroke-width="1" x1="60" y1="372" x2="1190" y2="372"/>
<line opacity="0.1" stroke="#000000" stroke-width="1" x1="60" y1="364" x2="1190" y2="364"/>
<line opacity="0.1" stroke="#000000" stroke-width="1" x1="60" y1="356" x2="1190" y2="356"/>
<line opacity="0.1" stroke="#000000" stroke-width="1" x1="60" y1="347" x2="1190" y2="347"/>
<line opacity="0.1" stroke="#000000" stroke-width="1" x1="60" y1="339" x2="1190" y2="339"/>
<line opacity="0.1" stroke="#000000" stroke-width="1" x1="60" y1="331" x2="1190" y2="331"/>
<line opacity="0.1" stroke="#000000" stroke-width="1" x1="60" y1="323" x2="1190" y2="323"/>
<line opacity="0.1" stroke="#000000" stroke-width="1" x1="60" y1="315" x2="1190" y2="315"/>
<line opacity="0.1" stroke="#000000" stroke-width="1" x1="60" y1="307" x2="1190" y2="307"/>
<line opacity="0.1" stroke="#000000" stroke-width="1" x1="60" y1="298" x2="1190" y2="298"/>
<line opacity="0.1" stroke="#000000" stroke-width="1" x1="60" y1="290" x2="1190" y2="290"/>
<line opacity="0.1" stroke="#000000" stroke-width="1" x1="60" y1="282" x2="1190" y2="282"/>
<line opacity="0.1" stroke="#000000" stroke-width="1" x1="60" y1="274" x2="1190" y2="274"/>
<line opacity="0.1" stroke="#000000" stroke-width="1" x1="60" y1="266" x2="1190" y2="266"/>
<line opacity="0.1" stroke="#000000" stroke-width="1" x1="60" y1="258" x2="1190" y2="258"/>
<line opacity="0.1" stroke="#000000" stroke-width="1" x1="60" y1="249" x2="1190" y2="249"/>
<line opacity="0.1" stroke="#000000" stroke-width="1" x1="60" y1="241" x2="1190" y2="241"/>
<line opacity="0.1" stroke="#000000" stroke-width="1" x1="60" y1="233" x2="1190" y2="233"/>
<line opacity="0.1" stroke="#000000" stroke-width="1" x1="60" y1="225" x2="1190" y2="225"/>
<line opacity="0.1" stroke="#000000" stroke-width="1" x1="60" y1="217" x2="1190" y2="217"/>
<line opacity="0.1" stroke="#000000" stroke-width="1" x1="60" y1="209" x2="1190" y2="209"/>
<line opacity="0.1" stroke="#000000" stroke-width="1" x1="60" y1="200" x2="1190" y2="200"/>
<line opacity="0.1" stroke="#000000" stroke-width="1" x1="60" y1="192" x2="1190" y2="192"/>
<line opacity="0.1" stroke="#000000" stroke-width="1" x1="60" y1="184" x2="1190" y2="184"/>
<line opacity="0.1" stroke="#000000" stroke-width="1" x1="60" y1="176" x2="1190" y2="176"/>
<line opacity="0.1" stroke="#000000" stroke-width="1" x1="60" y1="168" x2="1190" y2="168"/>
<line opacity="0.1" stroke="#000000" stroke-width="1" x1="60" y1="160" x2="1190" y2="160"/>
<line opacity="0.1" stroke="#000000" stroke-width="1" x1="60" y1="151" x2="1190" y2="151"/>
<line opacity="0.1" stroke="#000000" stroke-width="1" x1="60" y1="143" x2="1190" y2="143"/>
<line opacity="0.1" stroke="#000000" stroke-width="1" x1="60" y1="135" x2="1190" y2="135"/>
<line opacity="0.1" stroke="#000000" stroke-width="1" x1="60" y1="127" x2="1190" y2="127"/>
<line opacity="0.1" stroke="#000000" stroke-width="1" x1="60" y1="119" x2="1190" y2="119"/>
<line opacity="0.1" stroke="#000000" stroke-width="1" x1="60" y1="111" x2="1190" y2="111"/>
<line opacity="0.1" stroke="#000000" stroke-width="1" x1="60" y1="102" x2="1190" y2="102"/>
<line opacity="0.1" stroke="#000000" stroke-width="1" x1="60" y1="94" x2="1190" y2="94"/>
<line opacity="0.1" stroke="#000000" stroke-width="1" x1="60" y1="86" x2="1190" y2="86"/>
<line opacity="0.1" stroke="#000000" stroke-width="1" x1="60" y1="78" x2="1190" y2="78"/>
<line opacity="0.1" stroke="#000000" stroke-width="1" x1="60" y1="70" x2="1190" y2="70"/>
<line opacity="0.1" stroke="#000000" stroke-width="1" x1="60" y1="62" x2="1190" y2="62"/>
<line opacity="0.1" stroke="#000000" stroke-width="1" x1="60" y1="53" x2="1190" y2="53"/>
<line opacity="0.1" stroke="#000000" stroke-width="1" x1="60" y1="45" x2="1190" y2="45"/>
<line opacity="0.1" stroke="#000000" stroke-width="1" x1="60" y1="37" x2="1190" y2="37"/>
<line opacity="0.1" stroke="#000000" stroke-width="1" x1="60" y1="29" x2="1190" y2="29"/>
<line opacity="0.1" stroke="#000000" stroke-width="1" x1="60" y1="21" x2="1190" y2="21"/>
<line opacity="0.1" stroke="#000000" stroke-width="1" x1="60" y1="13" x2="1190" y2="13"/>
<text x="10" y="375" dy="0.76em" text-anchor="middle" font-family="sans-serif" font-size="9.67741935483871" opacity="1" fill="#000000" transform="rotate(270, 10, 375)">
Fraction of dependent crates
</text>
<line opacity="0.2" stroke="#000000" stroke-width="1" x1="60" y1="658" x2="1190" y2="658"/>
<line opacity="0.2" stroke="#000000" stroke-width="1" x1="60" y1="576" x2="1190" y2="576"/>
<line opacity="0.2" stroke="#000000" stroke-width="1" x1="60" y1="494" x2="1190" y2="494"/>
<line opacity="0.2" stroke="#000000" stroke-width="1" x1="60" y1="413" x2="1190" y2="413"/>
<line opacity="0.2" stroke="#000000" stroke-width="1" x1="60" y1="331" x2="1190" y2="331"/>
<line opacity="0.2" stroke="#000000" stroke-width="1" x1="60" y1="249" x2="1190" y2="249"/>
<line opacity="0.2" stroke="#000000" stroke-width="1" x1="60" y1="168" x2="1190" y2="168"/>
<line opacity="0.2" stroke="#000000" stroke-width="1" x1="60" y1="86" x2="1190" y2="86"/>
<polyline fill="none" opacity="1" stroke="#000000" stroke-width="1" points="59,10 59,740 "/>
<text x="50" y="658" dy="0.5ex" text-anchor="end" font-family="sans-serif" font-size="9.67741935483871" opacity="1" fill="#000000">
0.01
</text>
<polyline fill="none" opacity="1" stroke="#000000" stroke-width="1" points="54,658 59,658 "/>
<text x="50" y="576" dy="0.5ex" text-anchor="end" font-family="sans-serif" font-size="9.67741935483871" opacity="1" fill="#000000">
0.02
</text>
<polyline fill="none" opacity="1" stroke="#000000" stroke-width="1" points="54,576 59,576 "/>
<text x="50" y="494" dy="0.5ex" text-anchor="end" font-family="sans-serif" font-size="9.67741935483871" opacity="1" fill="#000000">
0.03
</text>
<polyline fill="none" opacity="1" stroke="#000000" stroke-width="1" points="54,494 59,494 "/>
<text x="50" y="413" dy="0.5ex" text-anchor="end" font-family="sans-serif" font-size="9.67741935483871" opacity="1" fill="#000000">
0.04
</text>
<polyline fill="none" opacity="1" stroke="#000000" stroke-width="1" points="54,413 59,413 "/>
<text x="50" y="331" dy="0.5ex" text-anchor="end" font-family="sans-serif" font-size="9.67741935483871" opacity="1" fill="#000000">
0.05
</text>
<polyline fill="none" opacity="1" stroke="#000000" stroke-width="1" points="54,331 59,331 "/>
<text x="50" y="249" dy="0.5ex" text-anchor="end" font-family="sans-serif" font-size="9.67741935483871" opacity="1" fill="#000000">
0.06
</text>
<polyline fill="none" opacity="1" stroke="#000000" stroke-width="1" points="54,249 59,249 "/>
<text x="50" y="168" dy="0.5ex" text-anchor="end" font-family="sans-serif" font-size="9.67741935483871" opacity="1" fill="#000000">
0.07
</text>
<polyline fill="none" opacity="1" stroke="#000000" stroke-width="1" points="54,168 59,168 "/>
<text x="50" y="86" dy="0.5ex" text-anchor="end" font-family="sans-serif" font-size="9.67741935483871" opacity="1" fill="#000000">
0.08
</text>
<polyline fill="none" opacity="1" stroke="#000000" stroke-width="1" points="54,86 59,86 "/>
<polyline fill="none" opacity="1" stroke="#000000" stroke-width="1" points="60,740 1190,740 "/>
<text x="60" y="750" dy="0.76em" text-anchor="middle" font-family="sans-serif" font-size="9.67741935483871" opacity="1" fill="#000000">
2014-11-20Z
</text>
<polyline fill="none" opacity="1" stroke="#000000" stroke-width="1" points="60,740 60,745 "/>
<text x="174" y="750" dy="0.76em" text-anchor="middle" font-family="sans-serif" font-size="9.67741935483871" opacity="1" fill="#000000">
2015-06-25Z
</text>
<polyline fill="none" opacity="1" stroke="#000000" stroke-width="1" points="174,740 174,745 "/>
<text x="289" y="750" dy="0.76em" text-anchor="middle" font-family="sans-serif" font-size="9.67741935483871" opacity="1" fill="#000000">
2016-01-28Z
</text>
<polyline fill="none" opacity="1" stroke="#000000" stroke-width="1" points="289,740 289,745 "/>
<text x="404" y="750" dy="0.76em" text-anchor="middle" font-family="sans-serif" font-size="9.67741935483871" opacity="1" fill="#000000">
2016-09-01Z
</text>
<polyline fill="none" opacity="1" stroke="#000000" stroke-width="1" points="404,740 404,745 "/>
<text x="518" y="750" dy="0.76em" text-anchor="middle" font-family="sans-serif" font-size="9.67741935483871" opacity="1" fill="#000000">
2017-04-06Z
</text>
<polyline fill="none" opacity="1" stroke="#000000" stroke-width="1" points="518,740 518,745 "/>
<text x="633" y="750" dy="0.76em" text-anchor="middle" font-family="sans-serif" font-size="9.67741935483871" opacity="1" fill="#000000">
2017-11-09Z
</text>
<polyline fill="none" opacity="1" stroke="#000000" stroke-width="1" points="633,740 633,745 "/>
<text x="748" y="750" dy="0.76em" text-anchor="middle" font-family="sans-serif" font-size="9.67741935483871" opacity="1" fill="#000000">
2018-06-14Z
</text>
<polyline fill="none" opacity="1" stroke="#000000" stroke-width="1" points="748,740 748,745 "/>
<text x="862" y="750" dy="0.76em" text-anchor="middle" font-family="sans-serif" font-size="9.67741935483871" opacity="1" fill="#000000">
2019-01-17Z
</text>
<polyline fill="none" opacity="1" stroke="#000000" stroke-width="1" points="862,740 862,745 "/>
<text x="977" y="750" dy="0.76em" text-anchor="middle" font-family="sans-serif" font-size="9.67741935483871" opacity="1" fill="#000000">
2019-08-22Z
</text>
<polyline fill="none" opacity="1" stroke="#000000" stroke-width="1" points="977,740 977,745 "/>
<text x="1092" y="750" dy="0.76em" text-anchor="middle" font-family="sans-serif" font-size="9.67741935483871" opacity="1" fill="#000000">
2020-03-26Z
</text>
<polyline fill="none" opacity="1" stroke="#000000" stroke-width="1" points="1092,740 1092,745 "/>
<polyline fill="none" opacity="1" stroke="#E61919" stroke-width="2" points="167,736 172,729 173,726 210,725 237,724 267,724 276,722 276,718 284,716 287,718 289,717 291,713 292,713 294,715 295,713 296,711 297,709 306,712 307,712 321,712 322,712 326,711 333,710 336,708 337,705 350,705 351,705 357,704 374,704 375,704 376,705 377,705 377,705 378,706 379,706 380,706 380,707 381,707 381,707 383,707 383,707 385,707 426,712 426,711 427,708 428,707 429,706 454,709 454,709 455,709 456,708 457,708 458,708 459,708 460,708 460,708 462,707 463,704 465,704 465,704 466,704 466,704 467,703 469,703 470,703 471,703 472,704 473,704 473,704 474,704 474,704 476,704 477,704 479,704 480,704 480,704 481,705 482,705 482,705 483,705 483,705 484,705 485,705 487,705 487,705 489,705 489,704 490,705 490,705 492,705 493,705 493,705 496,705 496,705 497,705 498,705 500,704 500,703 501,703 501,703 503,703 503,703 505,703 506,704 506,703 507,703 508,703 509,703 510,703 511,703 512,703 512,703 513,703 514,703 515,704 516,704 517,704 517,704 519,704 519,704 520,704 521,704 523,704 524,704 525,704 528,704 528,704 529,704 531,704 534,705 535,705 536,705 537,705 538,705 539,705 539,704 542,705 543,705 545,706 546,706 546,706 548,706 548,706 549,706 549,706 551,707 552,707 553,707 554,707 554,708 555,708 555,707 556,707 556,707 557,707 557,706 559,707 559,707 562,707 563,707 567,707 568,707 568,708 569,708 570,707 570,707 571,707 571,707 573,707 574,707 574,707 575,707 575,707 576,707 576,707 577,707 577,706 578,706 579,706 580,705 581,705 583,705 584,705 584,705 585,705 585,705 586,705 587,705 588,705 592,706 595,705 598,706 598,706 599,706 600,705 602,705 602,706 605,706 607,706 607,706 617,707 618,707 619,707 622,707 623,706 629,706 630,706 632,707 633,706 634,706 635,706 637,706 640,707 641,707 643,707 644,707 644,707 646,707 647,707 648,707 648,706 649,707 650,707 650,707 651,707 652,707 653,707 653,707 654,707 655,707 655,707 656,707 656,707 657,707 657,707 658,707 659,707 660,707 661,708 661,708 662,708 663,708 664,708 664,708 666,708 666,708 667,708 667,708 668,708 669,708 669,708 670,708 671,708 672,708 673,708 675,708 675,708 676,708 677,708 677,708 678,708 679,709 679,709 680,709 681,709 682,709 684,710 685,710 686,710 687,710 688,709 688,709 691,710 692,710 695,710 695,710 696,710 696,710 697,710 697,710 698,710 698,710 701,710 701,710 702,710 702,710 705,710 705,710 706,710 706,710 707,710 708,710 709,710 710,711 712,711 712,710 713,710 713,710 714,710 714,710 715,710 716,710 717,710 718,710 718,710 719,710 719,710 720,710 720,710 721,710 721,710 722,710 722,710 723,710 723,710 724,710 724,711 725,711 726,711 727,711 727,711 728,711 730,711 730,711 731,711 731,711 734,711 735,711 735,711 736,711 737,711 739,711 739,711 740,712 740,712 741,711 741,711 742,711 742,711 743,711 743,711 744,711 744,711 745,711 746,711 746,711 747,711 749,711 750,712 750,712 751,712 752,712 752,712 753,712 753,712 754,712 755,712 755,712 756,712 756,712 757,712 757,712 758,712 758,712 759,712 760,712 760,712 761,712 761,711 762,711 762,711 763,711 764,711 764,711 765,711 766,711 767,712 767,712 769,712 769,712 770,712 770,712 771,712 772,712 772,712 774,712 774,712 775,712 776,712 776,712 777,712 777,712 778,712 778,712 779,712 779,712 780,713 781,713 781,713 782,713 783,713 783,713 784,713 784,713 785,713 786,713 787,713 788,713 788,713 789,713 789,713 790,713 790,713 791,713 792,714 793,714 793,714 794,714 795,714 795,714 796,714 797,714 797,714 798,714 798,714 799,714 800,714 801,714 801,714 802,715 802,715 803,715 803,715 803,715 804,715 804,715 805,715 805,715 806,715 806,715 807,715 807,715 808,715 809,715 809,715 810,715 811,715 811,715 812,715 812,715 813,715 813,715 814,715 815,715 816,715 816,715 817,715 818,715 818,715 819,715 821,715 821,715 822,715 822,715 823,715 823,715 824,715 824,715 825,715 825,715 826,715 826,715 827,715 828,715 829,715 829,715 831,715 831,715 832,715 833,715 833,715 834,715 834,715 835,715 836,715 836,715 837,715 837,715 839,715 839,715 840,715 841,715 841,715 842,715 842,715 843,716 844,716 844,716 845,716 846,715 847,715 848,715 849,715 850,715 850,715 851,715 851,715 852,715 853,715 853,715 854,715 854,715 855,715 855,716 857,716 857,716 858,717 858,717 859,717 859,716 860,716 860,716 861,716 861,716 862,716 863,716 863,716 864,716 866,716 867,716 867,716 868,716 869,716 869,717 870,717 870,717 871,716 871,716 872,716 872,716 873,716 874,716 875,716 876,716 876,716 877,716 878,716 879,716 879,716 880,716 880,716 881,716 881,716 882,716 882,716 883,716 883,716 884,716 885,716 886,716 886,716 887,716 887,716 888,716 888,716 889,716 889,716 890,716 890,716 891,716 891,716 892,716 892,716 893,716 894,716 894,716 895,716 896,717 896,717 897,717 897,717 898,717 899,717 899,717 900,717 900,717 901,717 901,717 902,717 903,717 904,717 904,717 905,717 905,717 906,717 906,717 908,717 908,717 911,717 911,717 912,717 913,717 914,717 914,717 915,718 915,718 916,718 916,718 917,718 917,718 918,718 918,717 919,717 919,718 920,718 921,717 922,717 923,717 924,718 925,718 925,718 926,718 926,718 927,718 928,718 929,718 930,718 931,718 931,718 932,718 932,718 933,718 933,718 934,717 935,717 936,717 936,717 937,718 937,718 938,718 940,718 941,718 941,718 942,718 942,718 943,718 944,718 944,718 945,718 945,718 946,718 947,718 947,718 948,718 948,718 949,718 951,718 952,718 952,718 953,718 953,718 954,718 954,718 955,718 955,718 956,718 957,718 957,718 958,718 959,719 960,719 960,719 961,719 962,719 963,719 963,719 964,719 964,719 965,719 965,719 966,719 966,719 967,719 968,719 968,719 969,719 969,719 970,719 970,719 971,719 971,719 972,719 972,719 974,719 975,719 975,719 977,719 977,719 978,719 978,719 979,719 980,720 981,720 981,720 982,720 982,720 983,720 983,720 984,720 984,720 985,720 985,720 986,720 987,720 988,720 990,720 991,720 991,720 992,720 992,720 993,720 994,720 996,721 996,721 997,721 997,721 998,721 998,721 999,721 1000,721 1000,721 1001,721 1003,721 1003,721 1005,721 1006,721 1007,721 1007,721 1008,721 1008,721 1009,721 1010,721 1011,721 1011,721 1012,721 1012,721 1013,721 1013,721 1014,721 1015,721 1015,721 1016,721 1016,721 1017,721 1017,721 1018,721 1018,721 1019,721 1019,721 1020,721 1020,721 1021,721 1021,722 1022,722 1022,722 1023,722 1024,721 1025,721 1026,721 1026,721 1027,721 1027,721 1031,722 1032,722 1033,722 1033,722 1034,722 1035,722 1035,722 1036,721 1036,721 1037,721 1038,721 1040,721 1040,721 1041,721 1042,721 1043,721 1044,721 1044,721 1045,721 1046,721 1046,721 1047,721 1047,721 1048,721 1049,721 1049,721 1050,721 1050,721 1051,722 1052,722 1052,722 1053,722 1053,722 1054,722 1055,722 1056,722 1056,722 1057,722 1057,722 1058,722 1058,722 1059,722 1059,722 1061,722 1061,722 1062,722 1062,722 1063,722 1063,722 1064,722 1064,722 1065,722 1066,722 1066,722 1067,722 1068,722 1069,722 1070,722 1070,722 1071,722 1071,722 1073,722 1074,722 1074,722 1076,723 1076,723 1077,723 1077,723 1078,723 1079,723 1079,723 1080,723 1080,723 1081,723 1081,723 1081,723 1082,723 1083,723 1083,723 1083,723 1083,723 1085,723 1085,723 1086,723 1086,723 1086,723 1087,723 1087,723 1087,723 1088,723 1088,723 1089,723 1089,723 1089,723 1089,723 1090,723 1090,723 1090,723 1091,723 1091,723 1091,723 1092,723 1092,723 1092,723 1092,723 1093,723 1093,723 1094,723 1094,723 1094,723 1095,723 1095,723 1095,723 1096,723 1096,723 1096,723 1096,723 1097,723 1097,723 1098,723 1098,723 1098,723 1099,723 1099,723 1099,723 1100,723 1101,724 1101,724 1102,724 1102,724 1102,724 1103,724 1103,724 1103,724 1103,724 1104,724 1105,724 1105,724 1105,724 1106,724 1107,724 1107,724 1107,724 1108,724 1109,724 1109,724 1109,724 1109,724 1110,724 1110,724 1110,724 1111,724 1111,724 1111,724 1112,724 1112,724 1112,724 1113,724 1113,724 1113,724 1114,724 1114,724 1115,724 1116,724 1116,724 1116,724 1117,724 1117,724 1118,724 1118,724 1118,724 1119,724 1119,724 1119,724 1119,724 1120,724 1120,724 1121,724 1121,724 1121,724 1122,724 1122,724 1122,724 1123,724 1123,724 1123,724 1124,724 1124,724 1126,724 1126,724 1126,724 1127,724 1127,724 1128,724 1128,724 1128,724 1129,724 1129,724 1129,724 1129,724 1130,724 1130,724 1130,724 1131,724 1131,724 1131,724 1131,724 1132,724 1132,724 1132,724 1133,724 1133,724 1133,725 1134,725 1135,725 1135,725 1136,725 1136,725 1137,725 1137,725 1137,725 1138,725 1138,725 1138,725 1138,725 1139,725 1139,725 1139,725 1139,725 1140,725 1140,725 1140,725 1140,725 1141,725 1141,725 1141,725 1142,725 1142,725 1143,725 1143,725 1144,725 1144,725 1144,725 1145,725 1145,725 1145,725 1145,725 1146,725 1146,725 1146,725 1146,725 1147,725 1147,725 1148,725 1148,725 1148,725 1148,725 1149,725 1149,725 1150,725 1150,725 1151,725 1151,725 1151,725 1152,725 1153,725 1153,725 1154,725 1154,725 1155,725 1155,725 1155,725 1155,725 1156,725 1156,725 1156,725 1157,725 1157,725 1157,725 1157,725 1158,725 1158,725 1158,725 1158,725 1159,725 1159,725 1159,725 1160,725 1160,725 1160,725 1160,725 1161,725 1162,725 1162,725 1163,725 1163,725 1163,725 1163,725 1164,725 1164,725 1165,725 1165,725 1165,725 1165,725 1166,725 1166,725 1166,725 1167,725 1167,725 1168,725 1168,725 1168,725 1168,725 1171,725 1171,726 1172,726 1172,726 1172,726 1173,726 1173,726 1173,726 1174,726 1174,726 1175,726 1175,726 1175,726 1175,726 1176,726 1176,726 1176,726 1177,726 1177,726 1177,726 1177,726 1178,726 1178,726 1178,726 1179,726 1179,726 1179,726 1179,726 1180,726 1181,726 1181,726 1181,726 1181,726 1182,726 1182,726 1182,726 1183,726 1183,726 1183,726 1184,726 1184,726 1184,726 1184,726 1185,726 1185,726 1185,726 1185,726 1186,726 1186,726 1186,726 1187,726 1188,726 1188,726 1188,726 1188,726 1189,726 1189,726 1190,726 "/>
<polyline fill="none" opacity="1" stroke="#BDE619" stroke-width="2" points="129,735 154,732 175,729 177,726 190,724 196,718 197,722 200,719 206,717 207,714 210,712 216,709 221,707 225,705 229,703 234,701 237,699 237,697 238,694 239,692 240,689 240,687 243,685 244,678 246,676 249,672 250,670 252,665 259,665 261,663 263,661 264,659 264,657 266,655 268,651 272,651 273,649 274,647 275,645 278,644 278,642 279,640 280,638 280,636 284,635 286,634 287,630 288,629 288,627 292,624 292,622 296,622 298,619 301,619 302,615 303,614 303,610 304,608 305,607 305,608 307,606 307,605 308,603 309,602 311,601 312,601 313,600 314,598 315,599 316,597 316,596 317,593 321,593 324,593 325,592 326,594 327,593 330,592 331,591 331,590 332,591 332,590 333,588 333,587 334,587 335,586 335,583 336,582 337,582 340,583 340,583 341,583 342,584 343,584 343,581 344,581 344,578 345,579 346,578 346,578 347,578 348,578 349,577 351,577 352,578 352,578 353,578 353,579 354,579 357,578 357,577 358,578 358,578 359,576 359,577 360,577 360,576 361,576 361,576 362,576 362,577 363,574 363,574 364,574 364,575 365,575 366,574 366,573 367,571 368,569 368,568 369,568 369,566 370,565 370,566 371,563 373,564 373,564 374,561 375,559 375,559 376,559 377,557 377,555 378,553 379,553 381,555 381,550 382,549 382,547 383,545 385,543 386,543 386,543 387,542 387,540 388,539 389,539 389,540 390,538 390,537 391,537 391,535 392,534 392,533 393,531 394,532 395,531 396,530 396,530 397,531 397,530 398,529 398,528 399,528 400,528 400,527 401,527 402,524 403,525 403,524 404,521 404,520 405,521 405,520 406,518 406,518 407,518 408,517 409,385 409,383 410,384 411,382 412,380 412,380 413,379 414,380 414,379 415,380 415,376 416,375 416,375 417,373 417,372 418,370 418,368 419,365 419,366 420,365 420,365 421,364 422,364 422,366 423,364 423,365 424,364 424,363 425,361 425,359 426,357 426,357 427,355 427,350 428,350 428,349 429,347 430,346 431,327 432,327 432,326 433,326 434,326 434,326 435,326 435,327 436,328 436,328 438,328 438,328 439,327 440,328 440,328 441,327 441,328 442,328 442,325 443,324 443,322 444,324 445,323 445,324 446,323 446,321 447,320 447,320 448,319 448,319 449,319 450,319 450,318 451,319 452,318 452,317 453,316 454,314 454,311 455,312 455,312 456,313 456,312 457,312 457,312 458,313 459,312 460,307 460,308 461,308 461,308 462,308 462,307 463,308 463,308 464,309 464,309 465,307 465,308 466,308 466,308 467,309 468,308 468,308 469,307 469,307 470,307 470,307 471,306 471,307 472,308 472,309 473,307 474,307 474,305 475,306 475,307 476,305 477,305 477,301 478,302 478,301 479,302 479,301 480,299 480,299 481,300 481,297 482,295 482,293 483,292 483,290 484,289 484,288 485,288 485,286 486,286 487,285 487,284 488,284 488,282 489,283 489,281 490,278 490,278 491,277 491,275 492,274 492,274 493,273 493,271 494,270 494,271 495,270 496,270 496,271 497,271 497,271 498,270 498,269 499,268 499,269 500,268 500,268 501,266 501,266 502,266 502,262 503,262 503,263 504,263 505,263 505,264 506,262 506,263 507,263 507,262 508,261 508,261 509,261 509,259 510,255 510,253 511,252 511,251 512,253 513,252 514,252 514,251 515,250 515,250 516,248 516,246 517,246 517,244 518,243 518,243 519,241 519,241 520,240 520,239 521,240 521,240 522,239 522,237 523,238 524,236 524,235 525,235 525,233 526,233 526,233 527,233 527,232 528,232 528,229 529,230 529,230 530,230 530,231 531,231 531,230 532,230 533,231 533,231 534,227 534,228 535,228 535,226 536,222 536,222 537,222 537,221 538,223 538,224 539,222 539,224 540,223 540,224 541,223 542,225 542,224 543,223 543,223 544,224 544,223 545,220 545,220 546,220 546,219 547,220 547,218 548,219 548,217 549,217 549,217 550,216 551,216 551,217 552,217 552,217 553,216 553,214 554,213 554,211 555,210 555,209 556,208 556,207 557,207 557,208 558,206 558,207 559,208 559,208 560,207 561,208 561,209 562,209 562,210 563,210 563,209 564,208 564,208 565,209 565,208 566,208 566,208 567,206 567,205 568,205 568,204 569,205 570,205 570,205 571,204 571,204 572,201 572,199 573,198 573,198 574,198 574,197 575,196 575,195 576,196 576,197 577,196 577,196 578,196 579,195 579,195 580,195 580,195 581,194 581,194 582,195 582,195 583,195 583,194 584,194 584,193 585,192 585,191 586,192 586,191 587,191 588,191 588,191 589,190 589,190 590,191 590,190 591,191 591,190 592,191 592,191 593,189 593,189 594,188 594,188 595,187 595,188 596,189 596,190 597,190 598,190 598,190 599,187 599,188 600,188 600,189 601,188 601,188 602,188 602,187 603,187 603,187 604,185 604,185 605,185 605,183 606,184 607,184 607,185 608,186 608,185 609,185 609,184 610,184 610,174 611,172 611,170 612,171 612,171 613,170 613,171 614,171 614,169 615,168 616,168 616,167 617,167 617,166 618,165 618,165 619,165 619,163 620,163 620,164 621,165 621,166 622,164 622,165 623,165 623,165 624,163 625,163 625,163 626,162 626,161 627,161 627,161 628,158 628,158 629,157 629,156 630,155 630,156 631,156 631,157 632,158 632,158 633,158 633,159 634,158 635,157 635,158 636,158 636,157 637,158 637,158 638,157 638,157 639,157 639,157 640,157 640,158 641,155 641,156 642,155 642,156 643,157 644,157 644,155 645,155 645,156 646,156 646,156 647,156 647,156 648,156 648,156 649,155 649,154 650,155 650,152 651,150 651,150 652,150 653,150 653,148 654,147 654,148 655,146 655,147 656,148 656,148 657,145 657,145 658,145 658,145 659,146 659,146 660,147 660,146 661,146 661,147 662,147 663,146 663,146 664,146 664,146 665,147 665,148 666,148 666,148 667,149 667,147 668,149 668,148 669,148 669,146 670,147 670,147 671,147 672,146 672,146 673,146 673,145 674,145 674,144 675,142 675,142 676,144 676,145 677,144 677,134 678,134 678,132 679,132 679,132 680,131 681,130 681,130 682,130 682,129 683,128 683,127 684,125 684,124 685,123 685,122 686,122 686,121 687,121 687,121 688,122 688,123 689,122 690,123 690,122 691,122 691,122 692,119 692,119 693,119 693,118 694,117 694,118 695,118 695,118 696,116 696,116 697,117 697,116 698,114 698,113 699,115 700,115 700,115 701,116 701,116 702,116 702,117 703,115 703,115 704,116 704,117 705,116 705,116 706,116 706,116 707,114 707,114 708,114 709,114 709,112 710,111 710,112 711,113 711,113 712,113 712,113 713,112 713,113 714,113 714,113 715,112 715,112 716,113 716,114 717,114 718,113 718,113 719,113 719,113 720,113 720,112 721,112 721,113 722,113 722,114 723,114 723,115 724,116 724,116 725,117 725,117 726,117 727,117 727,117 728,117 728,116 729,116 729,115 730,114 730,114 731,115 731,115 732,115 732,115 733,114 733,114 734,114 734,115 735,113 735,113 736,113 737,113 737,113 738,114 738,113 739,113 739,112 740,111 740,112 741,111 741,111 742,111 742,110 743,110 743,110 744,109 744,110 745,110 746,110 746,109 747,109 747,108 748,108 748,107 749,107 749,107 750,104 750,104 751,105 751,105 752,105 752,105 753,104 753,103 754,103 755,102 755,103 756,103 756,103 757,101 757,100 758,99 758,100 759,99 759,100 760,100 760,98 761,97 761,97 762,97 762,96 763,96 764,97 764,97 765,96 765,97 766,97 766,97 767,95 767,95 768,95 768,96 769,95 769,95 770,95 770,95 771,95 771,96 772,97 772,98 773,98 774,98 774,99 775,98 775,99 776,99 776,102 777,102 777,102 778,102 778,101 779,101 779,102 780,102 780,102 781,103 781,103 782,104 783,105 783,106 784,106 784,105 785,105 785,105 786,109 786,110 787,110 787,110 788,110 788,113 789,113 789,114 790,114 790,115 791,114 792,113 792,112 793,112 793,112 794,112 794,110 795,110 795,109 796,110 796,111 797,111 797,111 798,111 798,110 799,109 799,108 800,109 801,109 801,107 802,109 802,108 803,108 803,108 803,106 804,106 804,106 805,107 805,106 806,105 806,106 807,106 807,105 808,105 808,105 809,106 809,105 810,105 811,106 811,107 812,107 812,95 813,101 813,95 814,95 814,94 815,95 815,95 816,97 816,95 817,93 817,94 818,94 818,94 819,95 820,94 820,94 821,94 821,93 822,93 822,93 823,94 823,94 824,94 824,94 825,94 825,94 826,92 826,93 827,93 827,92 828,92 829,93 829,92 830,92 830,91 831,91 831,91 832,91 832,91 833,91 833,91 834,92 834,91 835,91 835,92 836,91 836,91 837,91 837,91 838,92 839,91 839,92 840,91 840,91 841,91 841,90 842,90 842,91 843,92 843,91 844,92 844,93 845,92 845,93 846,93 846,93 847,93 848,93 848,94 849,93 849,93 850,93 850,93 851,93 851,93 852,93 852,95 853,94 853,93 854,92 854,91 855,89 855,89 856,90 857,89 857,88 858,111 858,112 859,112 859,87 860,87 860,87 861,87 861,88 862,88 862,87 863,87 863,86 864,87 864,87 865,88 866,86 866,85 867,86 867,86 868,86 868,86 869,86 869,86 870,86 870,86 871,87 871,87 872,87 872,87 873,87 873,87 874,87 874,88 875,88 876,87 876,86 877,87 877,87 878,88 878,87 879,87 879,87 880,88 880,89 881,89 881,89 882,89 882,90 883,90 883,89 884,90 885,90 885,89 886,89 886,89 887,90 887,89 888,88 888,89 889,89 889,88 890,88 890,89 891,89 891,88 892,89 892,89 893,90 894,90 894,90 895,90 895,90 896,90 896,90 897,89 897,90 898,89 898,89 899,88 899,87 900,88 900,88 901,88 901,88 902,88 903,87 903,88 904,88 904,87 905,87 905,87 906,87 906,88 907,88 907,88 908,88 908,88 909,88 909,89 910,89 910,88 911,89 911,89 912,88 913,88 913,87 914,87 914,87 915,85 915,85 916,85 916,85 917,85 917,85 918,84 918,84 919,86 919,86 920,87 920,87 921,88 922,88 922,89 923,89 923,89 924,90 924,91 925,91 925,91 926,90 926,88 927,89 927,89 928,88 928,89 929,88 929,88 930,88 931,88 931,88 932,87 932,88 933,87 933,87 934,87 934,86 935,86 935,86 936,86 936,86 937,86 937,86 938,86 938,86 939,85 940,86 940,85 941,85 941,85 942,85 942,85 943,85 943,84 944,85 944,85 945,86 945,86 946,84 946,84 947,83 947,83 948,83 948,83 949,83 950,85 950,85 951,85 951,86 952,79 952,79 953,80 953,79 954,79 954,78 955,78 955,78 956,78 956,77 957,77 957,76 958,76 959,77 959,76 960,75 960,76 961,76 961,75 962,76 962,76 963,77 963,77 964,77 964,76 965,78 965,78 966,78 966,79 967,78 968,78 968,78 969,79 969,79 970,79 970,79 971,79 971,79 972,79 972,78 973,77 973,77 974,78 974,77 975,77 975,78 976,79 977,78 977,78 978,78 978,78 979,78 979,78 980,79 980,79 981,79 981,80 982,80 982,80 983,81 983,81 984,82 984,82 985,81 985,81 986,81 987,81 987,81 988,81 988,81 989,81 989,81 990,81 990,81 991,81 991,80 992,80 992,80 993,82 993,82 994,82 994,83 995,83 996,83 996,84 997,84 997,84 998,84 998,85 999,84 999,84 1000,84 1000,84 1001,84 1001,85 1002,86 1002,85 1003,84 1003,84 1004,84 1005,85 1005,85 1006,85 1006,86 1007,85 1007,85 1007,86 1008,87 1008,87 1009,86 1009,87 1010,87 1010,88 1011,88 1011,88 1012,88 1012,88 1013,89 1013,88 1014,88 1015,88 1015,88 1016,89 1016,88 1017,88 1017,88 1018,89 1018,88 1019,88 1019,88 1020,87 1020,87 1021,87 1021,88 1022,88 1022,86 1023,86 1024,87 1024,87 1025,87 1025,87 1026,87 1026,87 1027,88 1027,88 1028,88 1028,87 1029,87 1029,87 1030,87 1030,87 1031,88 1031,87 1032,88 1033,88 1033,89 1034,89 1034,89 1035,89 1035,90 1036,90 1036,90 1037,90 1037,90 1038,91 1038,91 1039,92 1039,92 1040,92 1040,93 1041,94 1042,93 1042,93 1043,91 1043,91 1044,91 1044,91 1045,92 1045,91 1046,91 1046,92 1047,93 1047,93 1048,93 1048,93 1049,93 1049,93 1050,94 1050,94 1051,93 1052,94 1052,94 1053,93 1053,92 1054,93 1054,93 1055,94 1055,94 1056,95 1056,95 1057,95 1057,94 1058,95 1058,95 1059,95 1059,95 1060,95 1061,94 1061,94 1062,94 1062,93 1063,94 1063,94 1064,94 1064,94 1065,95 1065,95 1066,95 1066,95 1067,94 1067,94 1068,95 1068,95 1069,95 1070,95 1070,94 1071,94 1071,94 1072,94 1072,94 1073,94 1073,94 1074,94 1074,95 1075,95 1075,94 1076,94 1076,94 1077,95 1077,95 1078,96 1079,96 1079,96 1080,96 1080,96 1081,96 1081,96 1081,97 1082,97 1082,97 1082,96 1083,96 1083,95 1083,95 1083,96 1084,96 1084,96 1084,96 1085,96 1085,96 1085,96 1085,96 1086,96 1086,96 1086,96 1086,95 1087,95 1087,95 1087,95 1087,95 1088,95 1088,94 1089,94 1089,94 1089,94 1089,93 1090,93 1090,93 1090,94 1091,94 1091,94 1091,94 1092,94 1092,95 1092,95 1092,95 1093,95 1093,95 1093,95 1093,95 1094,95 1094,96 1094,96 1095,96 1095,95 1095,95 1095,95 1096,96 1096,96 1096,96 1096,96 1097,96 1097,96 1098,96 1098,96 1098,96 1098,96 1099,96 1099,96 1099,96 1099,95 1100,95 1100,95 1100,96 1101,96 1101,96 1101,96 1101,96 1102,96 1102,97 1102,97 1102,97 1103,97 1103,97 1103,97 1103,97 1104,97 1104,97 1104,97 1104,97 1105,97 1105,97 1105,97 1105,98 1106,98 1107,98 1107,98 1107,98 1108,98 1108,99 1108,99 1108,98 1109,98 1109,98 1109,98 1109,98 1110,98 1110,98 1110,98 1110,98 1111,98 1111,98 1111,98 1111,98 1112,98 1112,98 1112,97 1113,97 1113,97 1113,97 1113,97 1114,97 1114,97 1114,97 1114,97 1115,97 1116,97 1116,98 1116,98 1116,98 1117,98 1117,97 1117,97 1117,97 1118,97 1118,98 1118,98 1118,97 1119,97 1119,98 1119,98 1119,98 1120,98 1120,98 1120,98 1120,98 1121,98 1121,98 1121,98 1121,98 1122,98 1122,98 1122,98 1122,98 1123,98 1123,97 1123,97 1123,97 1124,97 1124,98 1124,98 1124,97 1125,97 1126,97 1126,98 1126,98 1126,98 1127,98 1127,97 1127,97 1127,96 1128,96 1128,97 1128,97 1128,96 1129,96 1129,96 1129,96 1129,97 1130,97 1130,97 1130,97 1131,97 1131,97 1131,97 1131,96 1132,96 1132,95 1132,95 1132,96 1133,96 1133,96 1133,96 1134,96 1135,96 1135,96 1135,96 1136,96 1136,96 1136,96 1136,95 1137,95 1137,94 1137,94 1137,94 1138,94 1138,95 1138,95 1138,95 1139,95 1139,95 1139,95 1139,95 1140,95 1140,95 1140,95 1140,95 1141,95 1141,95 1141,95 1142,95 1142,95 1142,95 1142,95 1143,95 1143,95 1144,95 1144,95 1144,95 1144,96 1145,96 1145,95 1145,95 1145,95 1146,95 1146,94 1146,94 1146,94 1147,94 1147,94 1147,94 1147,94 1148,94 1148,88 1148,88 1148,88 1149,88 1149,88 1149,89 1150,89 1150,89 1150,89 1150,89 1151,89 1151,89 1151,89 1151,89 1152,89 1152,89 1153,89 1153,88 1153,88 1153,89 1154,89 1154,89 1154,89 1155,89 1155,90 1155,90 1155,90 1156,90 1156,89 1156,89 1156,89 1157,89 1157,89 1157,89 1157,90 1158,90 1158,90 1158,90 1158,89 1159,89 1159,89 1159,89 1159,89 1160,89 1160,90 1160,90 1160,89 1161,89 1161,90 1161,90 1161,90 1162,90 1162,90 1163,90 1163,90 1163,90 1163,89 1164,90 1164,90 1164,92 1165,92 1165,92 1165,92 1165,92 1166,92 1166,92 1166,92 1166,93 1167,93 1167,94 1167,94 1167,93 1168,93 1168,93 1168,93 1168,93 1169,93 1169,94 1169,94 1169,94 1170,94 1170,94 1170,94 1170,95 1171,95 1171,95 1172,95 1172,95 1172,95 1172,96 1173,96 1173,96 1173,96 1173,96 1174,96 1174,96 1174,96 1174,97 1175,97 1175,97 1175,97 1175,96 1176,96 1176,96 1176,96 1176,96 1177,96 1177,96 1177,96 1177,95 1178,95 1178,95 1178,94 1179,94 1179,94 1179,94 1179,94 1180,94 1181,94 1181,94 1181,94 1181,93 1182,93 1182,94 1182,94 1182,94 1183,94 1183,94 1183,94 1183,94 1184,94 1184,94 1184,94 1184,94 1185,94 1185,94 1185,94 1185,94 1186,94 1186,94 1186,94 1187,94 1187,94 1187,94 1187,94 1188,94 1188,94 1188,94 1188,94 1189,94 1189,94 1190,94 "/>
<polyline fill="none" opacity="1" stroke="#19E66B" stroke-width="2" points="60,647 60,659 61,671 69,688 75,656 75,643 81,639 84,624 89,612 93,612 94,606 95,644 96,638 100,641 103,631 109,631 110,626 117,627 120,624 121,630 125,633 136,633 140,627 141,624 142,625 144,626 145,623 148,625 149,626 149,627 150,627 153,625 153,630 154,631 155,631 155,627 156,624 156,625 157,625 158,619 158,609 159,609 159,610 160,607 160,607 161,608 162,608 162,609 163,609 163,610 164,606 164,607 165,608 165,608 166,609 167,609 168,610 168,607 169,608 169,608 170,609 170,605 171,602 172,603 173,604 173,604 174,598 174,598 175,599 176,599 176,593 177,590 177,591 178,591 179,589 179,589 180,590 181,590 181,591 182,591 182,591 183,591 183,592 184,590 186,591 187,591 187,591 188,596 190,593 190,594 191,591 191,589 192,586 192,586 193,587 194,588 195,589 196,589 196,587 197,587 197,588 199,589 199,586 200,584 202,585 202,586 203,586 203,584 204,584 204,584 205,585 206,586 206,586 207,586 207,587 208,587 209,588 210,583 210,580 211,581 211,581 212,581 213,581 213,582 214,582 214,583 215,580 215,581 216,581 217,581 219,571 220,572 220,570 221,568 222,568 222,568 223,569 223,569 224,567 224,567 225,567 225,568 226,568 227,568 227,568 228,569 229,569 230,570 230,570 231,568 231,568 232,569 232,569 233,569 233,570 234,570 234,570 236,569 236,570 237,570 237,568 238,569 239,569 239,569 240,569 240,570 241,570 241,571 242,571 243,571 243,572 244,572 244,572 245,568 246,568 248,569 248,569 249,569 249,567 250,568 250,568 251,569 252,569 253,568 253,563 254,563 255,564 255,555 256,555 256,556 257,551 257,552 258,553 258,553 259,553 260,554 260,554 261,554 262,555 262,555 263,553 264,551 264,549 265,550 265,550 266,548 266,549 267,549 267,550 268,548 268,548 269,549 270,549 270,550 271,550 271,551 272,549 272,550 273,550 274,550 274,550 275,551 275,551 276,551 276,550 277,550 277,550 278,550 278,551 279,549 279,549 280,550 280,550 281,551 281,551 282,551 283,551 283,552 284,552 284,553 285,553 285,553 286,554 286,550 287,551 287,551 288,551 288,548 289,546 289,546 290,546 290,547 291,545 292,544 292,546 293,547 293,547 294,546 294,544 295,543 295,541 296,542 296,538 297,538 297,539 298,539 298,539 299,540 300,540 301,539 301,539 302,540 302,538 303,539 304,538 304,539 305,539 305,540 306,540 306,540 307,541 307,538 308,538 308,538 309,539 309,537 310,537 311,538 311,538 312,536 312,537 313,536 313,536 314,536 314,537 315,537 315,535 316,534 316,534 317,535 317,535 318,536 318,536 319,535 320,536 320,534 321,535 321,535 322,536 322,537 323,537 323,537 324,537 324,538 325,538 325,538 326,539 326,539 327,539 327,540 328,540 329,539 329,539 330,539 330,539 331,536 331,537 332,535 333,536 334,537 334,535 335,536 335,535 336,533 336,534 337,532 338,533 338,534 339,534 339,535 340,535 340,535 341,536 341,536 342,535 342,535 343,535 343,536 344,534 344,533 345,533 345,534 346,534 346,533 347,533 348,533 348,534 349,533 349,533 350,533 350,534 351,534 352,532 353,532 353,533 354,533 354,534 355,532 355,533 356,533 357,533 357,532 358,533 359,533 359,533 360,534 360,534 361,533 361,533 362,534 362,534 363,534 363,535 364,535 364,536 365,536 366,536 366,535 367,536 367,536 368,536 368,537 369,537 369,537 370,539 370,538 371,537 371,539 372,539 372,540 373,540 373,538 374,539 375,539 375,539 376,538 376,538 377,539 377,539 378,539 378,539 379,540 379,539 380,539 380,538 381,538 381,538 382,539 382,538 383,538 383,538 384,539 385,539 385,539 386,540 386,540 387,541 387,541 388,540 388,540 389,539 389,537 390,537 390,537 391,537 391,538 392,538 392,538 393,539 394,539 394,539 395,539 395,540 396,540 396,540 397,539 397,540 398,539 398,539 399,540 399,540 400,539 400,538 401,537 401,538 402,538 403,539 403,539 404,538 404,537 405,537 405,537 406,538 406,538 407,538 407,539 408,539 408,540 409,544 409,544 410,545 410,544 411,544 412,544 412,545 413,545 413,544 414,544 414,545 415,544 415,544 416,544 416,545 417,545 417,545 418,546 418,546 419,546 420,547 420,547 421,547 422,545 422,546 423,547 423,547 424,547 424,547 425,549 425,549 426,548 426,549 427,549 427,550 428,551 428,551 429,551 429,550 430,550 431,550 431,551 432,551 432,550 433,550 433,551 434,551 434,551 435,551 435,549 436,549 436,550 437,549 437,549 438,549 438,549 439,550 440,550 440,550 441,551 441,551 442,551 442,552 443,552 443,551 444,551 444,551 445,552 445,552 446,551 446,553 447,553 447,553 448,553 448,552 449,553 450,553 450,553 451,552 451,552 452,552 452,551 453,551 453,551 454,552 454,552 455,551 455,551 456,551 456,552 457,552 457,552 458,551 459,551 459,550 460,551 460,551 461,551 461,552 462,552 463,552 463,552 464,553 464,553 465,553 465,554 466,554 466,552 467,553 468,553 468,553 469,554 469,554 470,552 470,552 471,551 471,551 472,550 472,548 473,549 473,549 474,549 474,549 475,550 475,549 476,550 477,550 477,550 478,549 478,550 479,550 479,550 480,552 480,552 481,552 481,553 482,553 482,554 483,554 483,554 484,554 484,554 485,554 485,555 486,555 487,555 487,556 488,556 488,556 489,556 489,558 490,558 490,557 491,557 491,557 492,557 492,558 493,558 493,558 494,558 494,559 495,558 496,558 496,559 497,559 497,559 498,560 498,560 499,560 499,560 500,560 500,560 501,561 501,562 502,563 502,563 503,564 503,565 504,565 505,563 505,565 506,565 506,565 507,565 507,566 508,566 508,566 509,566 509,566 510,566 510,567 511,568 511,568 512,568 512,569 513,569 514,569 514,570 515,570 515,571 516,571 516,571 517,571 517,571 518,571 518,570 519,570 519,570 520,570 520,570 521,571 521,571 522,571 522,571 523,572 524,572 524,572 525,572 525,572 526,572 526,572 527,573 527,572 528,572 528,573 529,573 529,573 530,573 530,574 531,574 531,574 532,574 533,574 533,575 534,575 534,576 535,576 535,574 536,575 536,576 537,576 537,576 538,575 538,575 539,574 539,575 540,574 540,574 541,573 542,575 542,575 543,575 543,575 544,576 544,577 545,577 545,576 546,576 546,576 547,576 547,577 548,577 548,578 549,579 549,578 550,578 551,579 551,579 552,579 552,580 553,580 553,579 554,580 554,580 555,580 555,580 556,580 556,580 557,580 557,581 558,580 558,581 559,581 559,581 560,581 561,582 561,581 562,581 562,582 563,582 563,582 564,582 564,582 565,582 565,582 566,582 566,583 567,583 567,583 568,583 568,583 569,583 570,584 570,584 571,584 571,584 572,585 572,585 573,585 573,586 574,586 574,586 575,586 575,586 576,587 576,587 577,587 577,587 578,587 579,587 579,587 580,587 580,588 581,588 581,588 582,588 582,589 583,589 583,589 584,589 584,589 585,589 585,590 586,590 586,590 587,590 588,590 588,590 589,590 589,591 590,591 590,591 591,591 591,591 592,591 592,592 593,592 593,592 594,592 594,592 595,593 595,593 596,593 596,593 597,593 598,593 598,593 599,593 599,594 600,594 600,594 601,593 601,594 602,594 602,593 603,594 603,595 604,594 604,594 605,594 605,594 606,595 607,595 607,595 608,595 608,595 609,596 609,596 610,596 610,597 611,597 611,597 612,597 612,597 613,598 613,598 614,598 614,597 615,598 616,598 616,598 617,598 617,598 618,599 618,599 619,600 619,600 620,600 620,601 621,601 621,601 622,601 622,600 623,600 623,600 624,600 625,600 625,601 626,601 626,601 627,601 627,602 628,602 628,602 629,602 629,602 630,603 630,603 631,603 631,603 632,604 632,604 633,604 633,604 634,604 635,605 635,605 636,605 636,604 637,605 637,605 638,605 639,605 639,605 640,606 640,605 641,605 641,605 642,605 642,606 643,606 644,606 644,607 645,607 645,607 646,607 646,606 647,606 647,606 648,606 648,607 649,607 649,607 650,607 650,608 651,608 651,608 652,608 653,608 653,608 654,608 654,608 655,608 655,608 656,608 656,608 657,608 657,608 658,609 658,609 659,608 659,608 660,609 660,609 661,609 661,609 662,609 663,609 663,609 664,609 664,609 665,609 665,609 666,609 666,609 667,608 667,609 668,609 668,609 669,609 669,610 670,610 670,610 671,610 672,610 672,610 673,610 673,611 674,611 674,611 675,610 675,611 676,611 676,611 677,611 677,612 678,612 678,612 679,612 679,612 680,613 681,613 681,613 682,613 682,613 683,614 683,614 684,614 684,614 685,614 685,614 686,614 686,614 687,615 687,615 688,614 688,615 689,615 690,615 690,615 691,615 691,616 692,616 692,616 693,616 693,616 694,616 694,616 695,616 695,616 696,616 696,616 697,617 697,617 698,617 698,617 699,617 700,617 700,617 701,617 701,617 702,618 702,618 703,618 703,618 704,618 704,618 705,619 705,619 706,619 706,619 707,620 707,620 708,620 709,620 709,620 710,621 710,620 711,621 711,621 712,621 712,621 713,621 713,621 714,621 714,621 715,621 715,621 716,622 716,621 717,621 718,622 718,622 719,622 719,623 720,623 720,623 721,623 721,623 722,623 722,623 723,623 723,624 724,624 724,624 725,624 725,624 726,625 727,625 727,625 728,625 728,625 729,624 729,624 730,624 730,625 731,625 731,625 732,626 732,626 733,626 733,625 734,625 734,625 735,626 735,626 736,626 737,626 737,626 738,626 738,626 739,626 739,626 740,626 740,626 741,627 741,627 742,627 742,627 743,627 743,627 744,627 744,627 745,627 746,628 746,627 747,627 747,627 748,628 748,628 749,628 749,628 750,628 750,628 751,628 751,628 752,629 752,629 753,628 753,628 754,628 755,629 755,629 756,628 756,628 757,629 757,629 758,629 758,629 759,629 759,628 760,628 760,628 761,628 761,629 762,628 762,628 763,629 764,629 764,629 765,629 765,629 766,629 766,629 767,629 767,629 768,630 768,630 769,629 769,629 770,629 770,630 771,630 771,630 772,630 772,630 773,630 774,630 774,630 775,630 775,630 776,631 776,631 777,631 777,632 778,632 778,632 779,631 779,632 780,632 780,632 781,632 781,632 782,632 783,632 783,632 784,632 784,632 785,632 785,632 786,633 786,633 787,633 787,633 788,634 788,634 789,634 789,634 790,635 790,635 791,635 792,635 792,635 793,635 793,635 794,636 794,636 795,636 795,636 796,636 796,637 797,637 797,637 798,637 798,637 799,637 799,636 800,636 801,637 801,637 802,637 802,637 803,637 803,637 803,637 804,637 804,637 805,637 805,637 806,637 806,637 807,637 807,637 808,637 808,638 809,638 809,638 810,638 811,638 811,638 812,638 812,638 813,639 813,638 814,638 814,638 815,639 815,639 816,639 816,639 817,639 817,639 818,639 818,639 819,639 820,639 820,639 821,639 821,639 822,639 822,639 823,639 823,640 824,640 824,640 825,640 825,640 826,640 826,639 827,639 827,640 828,640 829,640 829,640 830,640 830,640 831,640 831,640 832,640 832,640 833,640 833,640 834,640 834,640 835,640 835,640 836,640 836,641 837,641 837,641 838,641 839,641 839,641 840,641 840,641 841,641 841,641 842,641 842,641 843,641 843,641 844,641 844,641 845,641 845,641 846,641 846,641 847,641 848,641 848,641 849,641 849,642 850,642 850,642 851,642 851,642 852,642 852,642 853,642 853,642 854,642 854,642 855,643 855,643 856,643 857,643 857,644 858,647 858,647 859,647 859,644 860,644 860,644 861,644 861,644 862,644 862,644 863,644 863,644 864,644 864,644 865,645 866,645 866,645 867,645 867,645 868,645 868,645 869,645 869,645 870,645 870,646 871,646 871,646 872,646 872,646 873,646 873,646 874,647 874,647 875,647 876,647 876,647 877,647 877,647 878,647 878,647 879,647 879,647 880,648 880,648 881,648 881,648 882,648 882,648 883,648 883,649 884,649 885,649 885,649 886,649 886,649 887,649 887,649 888,649 888,649 889,649 889,650 890,650 890,650 891,650 891,650 892,650 892,650 893,650 894,650 894,650 895,651 895,651 896,651 896,651 897,651 897,651 898,651 898,651 899,651 899,652 900,651 900,651 901,652 901,652 902,652 903,652 903,652 904,652 904,652 905,652 905,652 906,652 906,653 907,653 907,653 908,653 908,653 909,653 909,653 910,653 910,653 911,653 911,653 912,653 913,654 913,654 914,654 914,654 915,654 915,654 916,654 916,654 917,654 917,654 918,654 918,655 919,655 919,655 920,655 920,655 921,656 922,656 922,656 923,656 923,656 924,656 924,656 925,656 925,656 926,656 926,656 927,656 927,657 928,657 928,657 929,657 929,657 930,657 931,657 931,657 932,657 932,657 933,657 933,657 934,657 934,658 935,658 935,658 936,658 936,658 937,658 937,658 938,658 938,658 939,658 940,658 940,659 941,659 941,659 942,659 942,659 943,659 943,659 944,660 944,660 945,660 945,660 946,660 946,660 947,660 947,660 948,660 948,660 949,660 950,660 950,660 951,660 951,660 952,661 952,661 953,661 953,661 954,661 954,661 955,661 955,661 956,661 956,661 957,661 957,662 958,662 959,662 959,662 960,662 960,662 961,662 961,663 962,663 962,663 963,663 963,663 964,663 964,663 965,664 965,664 966,664 966,664 967,664 968,664 968,664 969,664 969,664 970,664 970,664 971,664 971,664 972,665 972,665 973,665 973,665 974,665 974,665 975,665 975,665 976,665 977,665 977,665 978,665 978,665 979,665 979,665 980,665 980,665 981,665 981,665 982,665 982,666 983,666 983,666 984,666 984,666 985,666 985,666 986,666 987,666 987,667 988,667 988,667 989,667 989,667 990,667 990,667 991,667 991,667 992,667 992,667 993,667 993,668 994,668 994,668 995,668 996,668 996,668 997,668 997,668 998,668 998,668 999,668 999,668 1000,668 1000,669 1001,669 1001,669 1002,669 1002,669 1003,669 1003,669 1004,669 1005,669 1005,669 1006,669 1006,669 1007,669 1007,669 1007,669 1008,669 1008,669 1009,669 1009,669 1010,669 1010,670 1011,670 1011,670 1012,670 1012,670 1013,670 1013,670 1014,670 1015,670 1015,670 1016,670 1016,670 1017,670 1017,671 1018,671 1018,671 1019,671 1019,671 1020,671 1020,671 1021,671 1021,671 1022,671 1022,672 1023,672 1024,672 1024,672 1025,673 1025,673 1026,673 1026,673 1027,673 1027,673 1028,673 1028,673 1029,673 1029,673 1030,673 1030,673 1031,673 1031,673 1032,673 1033,674 1033,674 1034,673 1034,674 1035,674 1035,674 1036,674 1036,674 1037,674 1037,674 1038,674 1038,674 1039,674 1039,674 1040,674 1040,674 1041,675 1042,675 1042,675 1043,675 1043,675 1044,675 1044,675 1045,675 1045,675 1046,675 1046,675 1047,675 1047,676 1048,676 1048,676 1049,676 1049,676 1050,676 1050,676 1051,676 1052,677 1052,676 1053,676 1053,676 1054,676 1054,676 1055,676 1055,676 1056,676 1056,677 1057,677 1057,677 1058,677 1058,677 1059,677 1059,677 1060,677 1061,677 1061,677 1062,677 1062,677 1063,677 1063,677 1064,678 1064,678 1065,678 1065,678 1066,678 1066,678 1067,678 1067,678 1068,678 1068,678 1069,678 1070,678 1070,678 1071,679 1071,679 1072,679 1072,679 1073,679 1073,679 1074,679 1074,679 1075,679 1075,679 1076,679 1076,679 1077,680 1077,680 1078,680 1079,680 1079,680 1080,680 1080,680 1081,680 1081,680 1081,680 1082,680 1082,680 1082,680 1083,680 1083,681 1083,681 1083,681 1084,680 1084,680 1084,680 1085,680 1085,681 1085,681 1085,681 1086,681 1086,681 1086,681 1086,681 1087,681 1087,681 1087,681 1087,681 1088,681 1088,681 1089,681 1089,681 1089,681 1089,682 1090,682 1090,682 1090,682 1091,682 1091,682 1091,682 1092,682 1092,682 1092,682 1092,682 1093,682 1093,682 1093,682 1093,682 1094,682 1094,682 1094,682 1095,682 1095,682 1095,682 1095,682 1096,682 1096,682 1096,682 1096,683 1097,683 1097,683 1098,683 1098,683 1098,683 1098,683 1099,683 1099,683 1099,683 1099,683 1100,683 1100,683 1100,683 1101,683 1101,683 1101,683 1101,683 1102,683 1102,683 1102,683 1102,683 1103,683 1103,683 1103,683 1103,683 1104,683 1104,684 1104,684 1104,684 1105,684 1105,684 1105,684 1105,684 1106,684 1107,684 1107,684 1107,684 1108,684 1108,684 1108,684 1108,684 1109,684 1109,684 1109,684 1109,684 1110,684 1110,684 1110,684 1110,684 1111,684 1111,684 1111,684 1111,684 1112,684 1112,684 1112,684 1113,684 1113,684 1113,684 1113,684 1114,684 1114,684 1114,684 1114,684 1115,685 1116,685 1116,685 1116,685 1116,685 1117,685 1117,685 1117,685 1117,685 1118,685 1118,685 1118,685 1118,685 1119,685 1119,685 1119,685 1119,685 1120,685 1120,685 1120,685 1120,685 1121,685 1121,686 1121,686 1121,686 1122,686 1122,686 1122,686 1122,686 1123,686 1123,686 1123,686 1123,686 1124,686 1124,686 1124,686 1124,686 1125,686 1126,686 1126,686 1126,686 1126,686 1127,686 1127,687 1127,687 1127,687 1128,687 1128,686 1128,686 1128,687 1129,687 1129,687 1129,687 1129,687 1130,687 1130,687 1130,687 1131,687 1131,687 1131,687 1131,687 1132,687 1132,687 1132,687 1132,687 1133,687 1133,687 1133,687 1134,687 1135,687 1135,687 1135,687 1136,687 1136,687 1136,687 1136,687 1137,687 1137,687 1137,687 1137,687 1138,687 1138,687 1138,687 1138,687 1139,687 1139,687 1139,687 1139,688 1140,688 1140,688 1140,688 1140,688 1141,688 1141,688 1141,688 1142,688 1142,688 1142,688 1142,688 1143,688 1143,688 1144,688 1144,688 1144,688 1144,688 1145,688 1145,688 1145,688 1145,688 1146,688 1146,688 1146,688 1146,688 1147,688 1147,688 1147,688 1147,688 1148,688 1148,688 1148,688 1148,688 1149,688 1149,688 1149,688 1150,688 1150,689 1150,689 1150,689 1151,689 1151,689 1151,689 1151,689 1152,689 1152,689 1153,689 1153,689 1153,689 1153,689 1154,689 1154,689 1154,689 1155,689 1155,689 1155,689 1155,689 1156,689 1156,689 1156,689 1156,689 1157,689 1157,689 1157,689 1157,689 1158,689 1158,689 1158,689 1158,689 1159,689 1159,689 1159,689 1159,690 1160,690 1160,690 1160,690 1160,690 1161,690 1161,690 1161,690 1161,690 1162,690 1162,690 1163,690 1163,690 1163,690 1163,690 1164,690 1164,690 1164,690 1165,690 1165,690 1165,690 1165,690 1166,690 1166,690 1166,690 1166,690 1167,690 1167,690 1167,690 1167,690 1168,690 1168,691 1168,691 1168,691 1169,691 1169,691 1169,691 1169,691 1170,691 1170,691 1170,691 1170,691 1171,691 1171,691 1172,691 1172,691 1172,691 1172,691 1173,691 1173,691 1173,691 1173,691 1174,691 1174,691 1174,691 1174,691 1175,691 1175,691 1175,691 1175,691 1176,691 1176,691 1176,691 1176,692 1177,692 1177,692 1177,692 1177,692 1178,692 1178,692 1178,692 1179,692 1179,692 1179,692 1179,692 1180,692 1181,692 1181,692 1181,692 1181,692 1182,692 1182,692 1182,692 1182,692 1183,692 1183,692 1183,692 1183,692 1184,692 1184,692 1184,692 1184,692 1185,692 1185,692 1185,692 1185,692 1186,692 1186,692 1186,693 1187,693 1187,693 1187,693 1187,693 1188,693 1188,693 1188,693 1188,693 1189,693 1189,693 1190,693 "/>
<polyline fill="none" opacity="1" stroke="#196BE6" stroke-width="2" points="86,728 93,720 96,720 105,716 107,710 112,706 117,702 123,699 124,700 125,696 129,692 132,693 136,695 140,692 142,693 148,695 149,691 149,687 153,684 155,681 156,678 157,675 157,667 158,665 160,666 163,660 165,661 167,658 168,655 169,653 169,649 172,651 174,652 174,652 175,649 177,647 179,648 182,646 187,648 188,646 195,646 196,646 197,647 199,648 200,646 201,643 201,640 202,644 208,646 210,644 211,645 212,645 215,646 216,646 216,647 218,647 219,647 220,645 221,645 221,645 222,646 223,646 226,647 228,647 230,648 232,644 233,644 234,645 236,646 236,646 237,646 237,646 238,646 240,644 240,645 241,645 242,645 243,646 246,646 246,647 247,647 249,647 249,647 250,648 250,648 251,648 253,649 253,649 254,649 255,649 256,647 257,646 258,646 258,646 260,647 260,644 261,645 262,645 265,643 265,641 266,642 269,641 269,639 270,639 271,639 271,640 272,640 272,640 273,642 274,641 276,637 277,637 279,638 280,636 280,636 283,635 284,633 284,633 287,632 288,633 289,631 290,629 290,630 291,628 292,628 293,629 294,627 294,628 295,626 296,624 296,624 297,625 297,625 298,625 298,623 299,622 299,622 300,622 301,622 301,621 302,621 302,621 303,621 303,622 304,620 304,620 305,621 306,621 306,622 307,622 307,622 308,622 308,622 309,623 309,623 310,623 311,623 311,624 312,624 312,624 313,622 313,622 314,623 315,623 315,623 316,623 316,624 317,623 318,621 318,619 319,620 320,618 320,618 321,615 321,615 322,616 322,616 323,616 323,616 324,617 324,617 325,613 325,612 326,612 326,612 327,613 327,613 328,613 329,613 329,613 330,614 330,612 331,612 331,612 332,613 332,613 333,613 333,613 334,614 334,614 335,611 335,609 336,610 336,610 337,610 338,607 338,607 339,608 339,608 340,608 340,608 341,609 341,609 342,609 342,609 343,610 343,610 344,610 344,610 345,610 345,609 346,609 346,609 347,610 348,610 348,610 349,612 349,612 350,613 350,613 351,613 351,613 352,614 352,614 353,612 353,613 354,613 354,613 355,613 355,613 356,614 357,614 357,614 358,614 358,615 359,615 359,613 360,614 360,614 361,614 361,614 362,614 362,615 363,615 363,615 364,615 364,615 365,616 366,616 366,616 367,616 367,617 368,615 368,614 369,613 369,613 370,613 370,613 371,614 371,614 372,614 372,614 373,614 373,615 374,615 375,615 375,615 376,615 376,615 377,616 377,616 378,616 378,615 379,615 379,615 380,615 380,615 381,616 381,616 382,616 382,616 383,617 383,617 384,615 385,616 385,616 386,616 386,616 387,615 387,615 388,616 388,616 389,616 389,616 390,616 390,617 391,617 391,616 392,616 392,616 393,616 394,616 394,616 395,616 395,617 396,616 396,616 397,616 397,616 398,616 398,617 399,617 399,617 400,618 400,618 401,615 401,614 402,615 403,615 403,616 404,615 404,615 405,616 405,614 406,615 406,613 407,612 407,612 408,613 408,613 409,615 409,616 410,616 410,616 411,617 412,617 412,617 413,617 413,616 414,616 414,615 415,616 415,616 416,615 416,615 417,615 418,615 418,615 419,616 419,616 420,616 420,616 421,616 422,617 422,617 423,618 423,618 424,618 424,618 425,618 425,619 426,619 426,619 427,619 427,619 428,620 428,620 429,620 429,620 430,620 431,620 431,621 432,621 432,622 433,622 434,621 434,621 435,621 435,621 436,616 436,617 437,618 437,618 438,618 438,618 439,619 440,619 440,619 441,619 441,619 442,620 442,621 443,621 443,620 444,620 444,620 445,621 445,620 446,620 446,619 447,619 447,619 448,619 448,619 449,620 450,620 450,620 451,620 451,620 452,621 452,622 453,621 453,621 454,621 455,621 455,622 456,622 456,622 457,622 457,622 458,622 459,623 459,623 460,624 460,624 461,624 461,624 462,624 462,625 463,625 463,625 464,624 464,624 465,624 465,624 466,623 466,623 467,623 468,624 468,624 469,623 469,622 470,623 470,623 471,623 471,623 472,623 472,622 473,621 473,621 474,622 474,622 475,622 475,622 476,622 477,620 477,621 478,620 478,621 479,620 479,618 480,616 480,617 481,617 481,617 482,617 482,618 483,618 483,618 484,618 484,618 485,618 485,618 486,618 487,618 487,619 488,619 488,618 489,619 489,619 490,620 491,620 491,620 492,620 492,621 493,621 493,621 494,620 494,620 495,621 496,621 496,620 497,620 497,620 498,621 498,621 499,621 499,621 500,622 500,622 501,622 501,622 502,623 502,623 503,623 503,623 504,624 505,624 505,624 506,624 506,624 507,624 507,624 508,625 508,625 509,625 509,625 510,626 510,626 511,626 511,626 512,626 512,626 513,627 514,626 514,626 515,625 515,625 516,625 516,625 517,625 517,624 518,624 518,624 519,625 519,625 520,624 520,622 521,623 521,623 522,622 522,622 523,622 524,622 524,622 525,622 525,622 526,622 526,623 527,623 527,623 528,621 528,622 529,622 529,622 530,622 530,622 531,622 531,623 532,623 533,623 533,621 534,623 534,623 535,621 535,621 536,622 536,620 537,620 537,620 538,620 538,620 539,620 539,620 540,620 540,621 541,621 542,621 542,621 543,620 543,620 544,620 544,621 545,622 545,621 546,621 546,621 547,622 547,622 548,622 548,622 549,623 549,623 550,623 551,623 551,623 552,623 552,623 553,623 553,623 554,624 554,624 555,623 555,623 556,624 556,624 557,624 557,623 558,624 558,624 559,624 559,624 560,625 561,625 561,625 562,625 562,625 563,625 563,625 564,624 564,624 565,624 565,625 566,625 566,625 567,625 567,625 568,625 568,626 569,626 570,626 570,626 571,626 571,626 572,627 572,626 573,626 573,626 574,626 574,627 575,627 575,627 576,627 576,627 577,627 577,627 578,627 579,626 579,626 580,627 580,626 581,626 581,626 582,627 582,625 583,625 583,626 584,626 584,625 585,625 585,625 586,624 586,624 587,624 588,624 588,625 589,625 589,625 590,625 590,625 591,625 591,626 592,626 592,626 593,625 593,626 594,626 594,626 595,626 595,626 596,626 596,626 597,627 598,627 598,627 599,627 599,627 600,627 600,628 601,628 601,627 602,627 602,627 603,627 603,627 604,627 604,627 605,627 605,627 606,627 607,627 607,627 608,627 608,627 609,627 609,627 610,627 610,627 611,627 611,627 612,627 612,627 613,627 613,627 614,627 614,628 615,628 616,628 616,628 617,628 617,628 618,629 618,629 619,629 619,629 620,629 620,629 621,630 621,630 622,630 622,630 623,630 623,630 624,630 625,631 625,631 626,631 626,631 627,631 627,631 628,632 628,632 629,632 629,632 630,632 630,632 631,633 631,633 632,633 632,632 633,633 633,633 634,633 635,633 635,633 636,633 636,633 637,633 637,633 638,633 638,633 639,631 639,632 640,632 640,632 641,632 641,632 642,632 642,632 643,632 644,632 644,632 645,632 645,633 646,633 646,633 647,633 647,633 648,633 648,633 649,633 649,633 650,634 650,633 651,633 651,634 652,634 653,634 653,634 654,633 654,633 655,634 655,634 656,635 656,635 657,635 657,635 658,635 658,635 659,635 659,635 660,634 660,634 661,634 661,634 662,634 663,634 663,633 664,633 664,633 665,634 665,634 666,634 666,634 667,634 667,634 668,633 668,633 669,633 669,633 670,633 670,633 671,632 672,633 672,633 673,633 673,633 674,633 674,633 675,633 675,633 676,633 676,633 677,633 677,633 678,633 678,633 679,634 679,634 680,634 681,634 681,634 682,634 682,634 683,634 683,634 684,635 684,635 685,635 685,635 686,635 686,635 687,635 687,635 688,635 688,635 689,635 690,635 690,635 691,635 691,636 692,636 692,636 693,636 693,636 694,636 694,636 695,636 695,636 696,636 696,636 697,637 697,637 698,637 698,637 699,637 700,638 700,638 701,637 701,637 702,638 702,638 703,638 703,638 704,638 704,638 705,638 705,639 706,639 706,639 707,639 707,639 708,640 709,640 709,640 710,640 710,640 711,640 711,640 712,640 712,640 713,640 713,640 714,640 714,640 715,641 715,641 716,641 716,640 717,640 718,640 718,640 719,639 719,640 720,640 720,639 721,639 721,639 722,640 722,639 723,639 723,639 724,640 724,640 725,640 725,640 726,640 727,640 727,640 728,641 728,641 729,641 729,641 730,641 730,641 731,641 731,641 732,641 732,641 733,641 733,641 734,641 734,642 735,642 735,642 736,642 737,641 737,641 738,642 738,641 739,641 739,641 740,642 740,642 741,642 741,642 742,642 742,642 743,642 743,642 744,642 744,642 745,642 746,642 746,642 747,642 747,642 748,643 748,643 749,643 749,643 750,643 750,644 751,644 751,644 752,644 752,644 753,644 753,644 754,644 755,644 755,644 756,645 756,645 757,645 757,645 758,645 758,645 759,645 759,645 760,645 760,645 761,645 761,646 762,646 762,646 763,646 764,646 764,646 765,646 765,646 766,645 766,646 767,646 767,646 768,646 768,646 769,646 769,647 770,647 770,647 771,647 771,647 772,646 772,646 773,646 774,647 774,647 775,647 775,647 776,648 776,648 777,648 777,648 778,648 778,649 779,649 779,648 780,648 780,649 781,649 781,649 782,649 783,649 783,649 784,649 784,649 785,649 785,649 786,649 786,649 787,650 787,650 788,649 788,650 789,650 789,650 790,650 790,649 791,650 792,649 792,649 793,649 793,650 794,650 794,650 795,650 795,650 796,650 796,650 797,650 797,650 798,650 798,651 799,651 799,650 800,650 801,650 801,650 802,650 802,650 803,650 803,650 803,651 804,651 804,651 805,651 805,651 806,651 806,652 807,652 807,652 808,652 808,652 809,652 809,652 810,652 811,652 811,652 812,652 812,653 813,654 813,653 814,653 814,653 815,653 815,653 816,652 816,652 817,653 817,653 818,653 818,653 819,653 820,653 820,653 821,653 821,653 822,653 822,653 823,653 823,653 824,653 824,653 825,653 825,653 826,653 826,653 827,653 827,654 828,654 829,654 829,654 830,654 830,654 831,654 831,654 832,654 832,654 833,655 833,655 834,655 834,655 835,655 835,655 836,655 836,655 837,655 837,655 838,654 839,654 839,655 840,655 840,655 841,655 841,655 842,655 842,655 843,655 843,655 844,654 844,653 845,653 845,653 846,654 846,654 847,654 848,654 848,655 849,655 849,655 850,655 850,655 851,655 851,655 852,655 852,655 853,655 853,655 854,656 854,656 855,656 855,656 856,656 857,656 857,656 858,660 858,660 859,660 859,656 860,657 860,657 861,657 861,657 862,657 862,657 863,657 863,657 864,657 864,657 865,658 866,658 866,658 867,658 867,658 868,658 868,658 869,658 869,659 870,659 870,659 871,659 871,659 872,659 872,659 873,659 873,659 874,660 874,659 875,659 876,660 876,659 877,659 877,659 878,660 878,660 879,660 879,660 880,660 880,660 881,660 881,661 882,661 882,661 883,661 883,661 884,661 885,661 885,661 886,661 886,660 887,660 887,660 888,660 888,660 889,660 889,660 890,660 890,660 891,660 891,660 892,660 892,660 893,660 894,660 894,661 895,660 895,660 896,661 896,661 897,661 897,661 898,661 898,661 899,661 899,661 900,661 900,661 901,661 901,661 902,661 903,662 903,662 904,662 904,662 905,662 905,662 906,662 906,662 907,662 907,662 908,662 908,662 909,662 909,663 910,663 910,663 911,663 911,663 912,663 913,663 913,663 914,663 914,663 915,663 915,663 916,663 916,663 917,663 917,662 918,663 918,663 919,663 919,663 920,663 920,663 921,663 922,663 922,663 923,663 923,663 924,663 924,663 925,663 925,663 926,663 926,663 927,663 927,663 928,663 928,663 929,663 929,664 930,664 931,664 931,664 932,664 932,664 933,664 933,664 934,664 934,664 935,664 935,664 936,664 936,664 937,665 937,665 938,664 938,664 939,665 940,665 940,665 941,665 941,665 942,665 942,665 943,665 943,665 944,665 944,665 945,665 945,666 946,666 946,666 947,666 947,666 948,666 948,666 949,666 950,666 950,666 951,666 951,666 952,667 952,667 953,667 953,667 954,667 954,667 955,667 955,667 956,667 956,667 957,667 957,667 958,668 959,668 959,668 960,668 960,668 961,668 961,668 962,668 962,668 963,668 963,668 964,668 964,668 965,668 965,668 966,668 966,669 967,669 968,669 968,669 969,669 969,669 970,669 970,669 971,669 971,669 972,669 972,669 973,669 973,669 974,669 974,669 975,669 975,669 976,669 977,669 977,669 978,669 978,669 979,669 979,669 980,669 980,669 981,669 981,669 982,669 982,670 983,669 983,669 984,670 984,670 985,670 985,670 986,670 987,670 987,670 988,670 988,670 989,670 989,670 990,670 990,670 991,670 991,670 992,670 992,670 993,670 993,670 994,670 994,670 995,670 996,670 996,670 997,670 997,670 998,670 998,670 999,670 999,670 1000,670 1000,670 1001,670 1001,671 1002,671 1002,671 1003,671 1003,671 1004,671 1005,671 1005,671 1006,672 1006,671 1007,671 1007,671 1007,672 1008,672 1008,672 1009,672 1009,671 1010,671 1010,671 1011,672 1011,672 1012,672 1012,672 1013,672 1013,672 1014,672 1015,672 1015,672 1016,672 1016,671 1017,672 1017,671 1018,671 1018,671 1019,671 1019,671 1020,672 1020,672 1021,672 1021,672 1022,672 1022,672 1023,672 1024,672 1024,672 1025,672 1025,672 1026,672 1026,672 1027,672 1027,672 1028,672 1028,672 1029,672 1029,672 1030,673 1030,673 1031,672 1031,672 1032,672 1033,672 1033,672 1034,672 1034,673 1035,673 1035,673 1036,673 1036,673 1037,673 1037,673 1038,673 1038,673 1039,673 1039,673 1040,673 1040,673 1041,673 1042,673 1042,673 1043,674 1043,674 1044,674 1044,674 1045,674 1045,674 1046,674 1046,674 1047,674 1047,674 1048,674 1048,675 1049,675 1049,675 1050,675 1050,675 1051,675 1052,675 1052,675 1053,675 1053,675 1054,675 1054,675 1055,676 1055,676 1056,676 1056,676 1057,676 1057,676 1058,676 1058,676 1059,676 1059,676 1060,676 1061,676 1061,677 1062,677 1062,677 1063,677 1063,677 1064,677 1064,677 1065,677 1065,677 1066,677 1066,677 1067,677 1067,677 1068,677 1068,678 1069,678 1070,678 1070,678 1071,678 1071,678 1072,678 1072,678 1073,678 1073,678 1074,678 1074,678 1075,678 1075,678 1076,678 1076,678 1077,679 1077,679 1078,679 1079,679 1079,679 1080,679 1080,678 1081,678 1081,678 1081,678 1082,678 1082,678 1082,678 1083,678 1083,679 1083,679 1083,679 1084,679 1084,679 1084,679 1085,679 1085,679 1085,679 1085,679 1086,679 1086,679 1086,679 1086,679 1087,679 1087,680 1087,680 1087,679 1088,679 1088,679 1089,679 1089,680 1089,680 1089,680 1090,679 1090,679 1090,680 1091,680 1091,680 1091,680 1092,680 1092,680 1092,680 1092,680 1093,680 1093,680 1093,680 1093,680 1094,680 1094,680 1094,680 1095,680 1095,680 1095,680 1095,680 1096,680 1096,680 1096,680 1096,680 1097,680 1097,680 1098,680 1098,680 1098,680 1098,680 1099,680 1099,680 1099,680 1099,680 1100,681 1100,681 1100,681 1101,681 1101,681 1101,681 1101,681 1102,681 1102,681 1102,681 1102,681 1103,681 1103,681 1103,681 1103,680 1104,680 1104,681 1104,681 1104,681 1105,681 1105,681 1105,681 1105,681 1106,681 1107,681 1107,681 1107,681 1108,681 1108,681 1108,681 1108,681 1109,681 1109,681 1109,681 1109,681 1110,681 1110,681 1110,681 1110,681 1111,681 1111,681 1111,681 1111,681 1112,681 1112,681 1112,681 1113,681 1113,681 1113,681 1113,681 1114,681 1114,681 1114,681 1114,681 1115,681 1116,681 1116,682 1116,682 1116,682 1117,682 1117,682 1117,682 1117,682 1118,682 1118,682 1118,682 1118,682 1119,682 1119,682 1119,682 1119,682 1120,682 1120,682 1120,682 1120,682 1121,682 1121,682 1121,682 1121,682 1122,682 1122,682 1122,682 1122,682 1123,682 1123,682 1123,682 1123,682 1124,682 1124,682 1124,682 1124,682 1125,682 1126,682 1126,682 1126,682 1126,682 1127,682 1127,672 1127,672 1127,672 1128,672 1128,672 1128,672 1128,672 1129,672 1129,672 1129,672 1129,672 1130,672 1130,672 1130,672 1131,672 1131,672 1131,672 1131,672 1132,672 1132,672 1132,672 1132,672 1133,672 1133,672 1133,672 1134,672 1135,672 1135,672 1135,672 1136,672 1136,672 1136,672 1136,672 1137,672 1137,672 1137,672 1137,672 1138,672 1138,672 1138,672 1138,672 1139,672 1139,672 1139,672 1139,672 1140,672 1140,672 1140,672 1140,672 1141,672 1141,672 1141,672 1142,672 1142,672 1142,672 1142,672 1143,672 1143,672 1144,672 1144,672 1144,672 1144,672 1145,672 1145,672 1145,672 1145,672 1146,672 1146,673 1146,673 1146,673 1147,673 1147,673 1147,673 1147,673 1148,673 1148,673 1148,673 1148,673 1149,673 1149,673 1149,673 1150,673 1150,673 1150,673 1150,673 1151,673 1151,673 1151,673 1151,673 1152,673 1152,673 1153,673 1153,674 1153,674 1153,673 1154,673 1154,673 1154,673 1155,673 1155,673 1155,673 1155,673 1156,673 1156,673 1156,673 1156,674 1157,674 1157,674 1157,674 1157,674 1158,674 1158,674 1158,674 1158,674 1159,674 1159,674 1159,674 1159,674 1160,674 1160,674 1160,674 1160,674 1161,674 1161,674 1161,674 1161,674 1162,674 1162,674 1163,674 1163,674 1163,674 1163,674 1164,674 1164,674 1164,674 1165,674 1165,674 1165,674 1165,675 1166,675 1166,675 1166,675 1166,675 1167,675 1167,675 1167,675 1167,675 1168,675 1168,675 1168,675 1168,675 1169,675 1169,675 1169,675 1169,675 1170,675 1170,675 1170,675 1170,676 1171,676 1171,676 1172,676 1172,676 1172,676 1172,676 1173,676 1173,676 1173,676 1173,676 1174,676 1174,676 1174,676 1174,676 1175,676 1175,676 1175,676 1175,676 1176,676 1176,676 1176,676 1176,676 1177,676 1177,676 1177,676 1177,676 1178,676 1178,676 1178,676 1179,676 1179,676 1179,676 1179,676 1180,676 1181,676 1181,676 1181,676 1181,676 1182,676 1182,676 1182,676 1182,677 1183,677 1183,677 1183,677 1183,677 1184,677 1184,677 1184,677 1184,677 1185,677 1185,677 1185,677 1185,677 1186,677 1186,677 1186,677 1187,677 1187,677 1187,677 1187,677 1188,677 1188,677 1188,677 1188,677 1189,677 1189,677 1190,677 "/>
<polyline fill="none" opacity="1" stroke="#BD19E6" stroke-width="2" points="502,738 503,737 524,737 540,736 559,735 560,734 568,734 580,732 584,732 588,731 595,731 598,730 600,728 602,728 608,727 623,727 623,726 629,726 635,725 641,725 642,724 644,724 645,723 647,722 648,721 652,721 653,720 656,720 657,720 657,719 658,719 658,719 661,719 662,718 663,718 663,718 666,718 668,717 668,717 669,717 670,716 672,715 673,715 674,714 674,713 675,714 676,713 676,712 677,712 677,712 678,713 679,712 682,712 683,711 684,711 686,710 687,710 689,710 690,709 692,708 694,708 695,708 695,707 698,707 700,706 701,705 702,704 706,704 706,703 707,703 707,702 711,701 711,701 712,700 713,700 713,700 714,698 714,698 715,698 716,697 716,696 717,696 718,695 718,695 719,694 720,694 721,693 722,693 722,691 723,690 724,690 724,690 725,689 725,688 726,688 727,688 727,688 728,688 728,687 729,687 729,687 730,686 730,685 731,685 731,685 732,683 732,682 733,682 734,681 735,681 736,681 737,680 737,679 738,679 738,677 739,676 740,676 741,675 741,675 742,674 742,674 743,674 743,674 744,674 744,674 745,673 746,673 746,673 747,673 747,673 748,674 748,673 749,673 749,673 750,672 750,672 751,672 751,672 752,672 752,672 753,672 753,672 754,672 755,672 755,671 756,671 756,671 757,670 758,670 758,670 759,670 759,669 760,669 760,668 761,668 761,668 762,668 763,667 764,667 764,667 765,666 765,667 766,667 766,666 767,666 767,665 768,666 768,665 769,664 769,664 770,663 770,663 771,663 771,663 772,663 772,663 773,663 774,663 775,663 775,663 776,662 776,663 777,662 777,662 778,662 778,662 779,662 779,662 780,662 780,662 781,662 781,661 782,660 783,658 783,658 784,657 784,657 785,657 785,656 786,657 786,657 787,657 787,656 788,656 788,656 789,656 790,656 790,656 791,655 792,655 792,655 793,654 794,653 794,653 795,653 796,653 796,653 797,653 797,653 798,653 798,653 799,653 800,653 801,653 801,652 802,651 802,651 803,651 803,651 803,651 804,651 804,651 805,650 806,650 806,649 807,649 807,649 808,649 808,648 809,647 809,647 810,646 811,646 811,646 812,646 812,645 813,645 813,644 814,644 814,644 815,644 815,644 816,643 816,643 817,643 817,641 818,641 818,641 819,641 820,640 820,640 821,640 821,640 822,640 822,640 823,639 823,639 824,638 824,639 825,639 825,638 826,638 826,638 827,637 827,637 828,636 829,636 829,636 830,636 830,636 831,636 831,636 832,636 833,637 833,637 834,636 834,636 835,636 835,636 836,636 836,637 837,637 837,636 838,637 839,636 839,636 840,636 840,636 841,636 841,636 842,635 842,635 843,635 843,635 844,634 844,634 845,633 845,632 846,631 846,632 847,631 848,630 848,629 849,629 849,628 850,629 850,629 851,628 851,627 852,627 852,626 853,626 853,625 854,625 854,625 855,625 855,625 856,623 857,622 857,621 858,625 858,625 859,624 859,619 860,619 860,618 861,616 861,616 862,615 862,615 863,614 863,614 864,614 864,613 865,613 866,613 866,613 867,613 867,613 868,613 868,613 869,612 869,612 870,612 870,612 871,612 871,611 872,610 872,610 873,609 873,609 874,610 874,610 875,609 876,608 876,608 877,608 877,608 878,607 878,607 879,607 879,607 880,606 880,606 881,607 881,607 882,607 882,607 883,607 883,606 884,606 885,605 885,605 886,604 886,604 887,604 887,604 888,603 888,603 889,602 889,602 890,601 890,600 891,600 891,599 892,599 892,599 893,599 894,598 894,598 895,597 895,596 896,596 896,597 897,596 897,595 898,595 898,595 899,595 899,594 900,594 900,594 901,593 901,593 902,593 903,593 903,593 904,593 904,593 905,593 905,592 906,592 906,591 907,591 907,591 908,591 908,590 909,590 909,590 910,590 910,590 911,590 911,590 912,590 913,590 913,589 914,589 914,589 915,588 915,587 916,587 916,587 917,587 917,587 918,586 918,586 919,586 919,586 920,585 920,585 921,585 922,584 922,584 923,585 923,584 924,584 924,584 925,584 925,583 926,583 926,582 927,581 927,581 928,581 928,581 929,581 929,581 930,581 931,581 931,580 932,579 932,580 933,579 933,579 934,579 934,579 935,579 935,579 936,578 936,578 937,577 937,577 938,577 938,577 939,577 940,576 940,576 941,575 941,575 942,576 942,575 943,574 943,574 944,574 944,573 945,573 945,573 946,573 946,572 947,572 947,572 948,572 948,571 949,571 950,572 950,572 951,571 951,571 952,571 952,571 953,571 953,571 954,571 954,571 955,571 955,570 956,569 956,569 957,568 957,569 958,568 959,568 959,568 960,568 960,567 961,567 961,567 962,567 962,567 963,566 963,566 964,566 964,566 965,565 965,565 966,564 966,564 967,564 968,563 968,563 969,563 969,562 970,562 970,562 971,561 971,561 972,561 972,560 973,560 973,560 974,560 974,560 975,559 975,558 977,558 977,558 978,558 978,558 979,557 979,557 980,557 980,557 981,557 981,557 982,556 982,556 983,555 983,554 984,554 984,554 985,553 985,553 986,553 987,552 987,552 988,552 988,551 989,551 989,551 990,551 990,551 991,550 991,549 992,549 992,549 993,549 993,549 994,548 994,548 995,547 996,547 996,546 997,545 997,545 998,544 998,544 999,543 999,543 1000,542 1000,542 1001,541 1001,541 1002,541 1002,541 1003,540 1003,540 1004,540 1005,539 1005,539 1006,539 1006,538 1007,538 1007,538 1007,538 1008,538 1008,537 1009,537 1009,536 1010,536 1010,534 1011,533 1011,533 1012,532 1012,531 1013,531 1013,531 1014,531 1015,531 1015,531 1016,530 1016,530 1017,531 1017,531 1018,530 1018,529 1019,529 1019,529 1020,528 1020,528 1021,528 1021,527 1022,527 1022,526 1023,526 1024,526 1024,525 1025,525 1025,526 1026,525 1026,525 1027,524 1027,524 1028,524 1028,524 1029,524 1029,524 1030,524 1030,523 1031,523 1031,523 1032,523 1033,521 1033,521 1034,521 1034,520 1035,520 1035,520 1036,520 1036,520 1037,519 1037,518 1038,518 1038,518 1039,517 1039,516 1040,516 1040,515 1041,515 1042,515 1042,515 1043,515 1043,515 1044,514 1044,514 1045,514 1045,514 1046,513 1046,514 1047,513 1047,513 1048,513 1048,513 1049,513 1049,513 1050,513 1050,512 1051,512 1052,512 1052,511 1053,511 1053,510 1054,510 1054,509 1055,509 1055,509 1056,509 1056,510 1057,510 1057,510 1058,509 1058,510 1059,510 1059,509 1060,509 1061,508 1061,508 1062,508 1062,508 1063,508 1063,508 1064,507 1064,507 1065,507 1065,506 1066,506 1066,506 1067,506 1067,506 1068,505 1068,505 1069,505 1070,505 1070,505 1071,505 1071,504 1072,504 1072,504 1073,503 1073,502 1074,501 1074,501 1075,501 1075,501 1076,500 1076,500 1077,500 1077,500 1078,500 1079,500 1079,499 1080,499 1080,499 1081,499 1081,499 1081,499 1082,499 1082,498 1082,497 1083,497 1083,497 1083,497 1083,497 1084,497 1084,497 1084,497 1085,497 1085,496 1085,496 1085,496 1086,496 1086,496 1086,496 1086,496 1087,496 1087,496 1087,496 1087,495 1088,495 1088,495 1089,495 1089,494 1089,494 1089,495 1090,494 1090,494 1090,493 1091,493 1091,493 1091,494 1092,494 1092,493 1092,493 1092,493 1093,493 1093,493 1093,493 1093,492 1094,492 1094,492 1094,492 1095,492 1095,492 1095,492 1095,491 1096,491 1096,490 1096,490 1096,490 1097,490 1097,490 1098,490 1098,490 1098,490 1098,490 1099,490 1099,489 1099,489 1099,489 1100,489 1100,489 1100,489 1101,489 1101,488 1101,488 1101,488 1102,488 1102,487 1102,487 1102,487 1103,487 1103,487 1103,487 1103,486 1104,486 1104,487 1104,487 1104,486 1105,486 1105,486 1105,486 1105,485 1106,485 1107,485 1107,485 1107,485 1108,485 1108,483 1108,483 1108,484 1109,484 1109,484 1109,484 1109,484 1110,484 1110,484 1110,484 1110,483 1111,483 1111,484 1111,484 1111,483 1112,483 1112,483 1112,482 1113,482 1113,482 1113,482 1113,481 1114,481 1114,480 1114,480 1114,480 1115,480 1116,480 1116,480 1116,480 1116,480 1117,480 1117,479 1117,479 1117,478 1118,478 1118,478 1118,478 1118,479 1119,479 1119,478 1119,478 1119,478 1120,478 1120,478 1120,477 1121,477 1121,476 1121,476 1121,476 1122,476 1122,476 1122,476 1122,475 1123,475 1123,474 1123,474 1123,473 1124,473 1124,473 1124,473 1124,472 1125,472 1126,472 1126,472 1126,472 1126,472 1127,472 1127,472 1127,472 1127,472 1128,472 1128,472 1128,472 1128,472 1129,472 1129,472 1129,472 1129,471 1130,471 1130,471 1130,470 1131,470 1131,469 1131,469 1131,469 1132,469 1132,469 1132,469 1132,469 1133,469 1133,468 1133,468 1134,468 1135,468 1135,468 1135,468 1136,468 1136,467 1136,467 1136,467 1137,468 1137,468 1137,468 1137,467 1138,467 1138,467 1138,467 1138,467 1139,467 1139,467 1139,467 1139,467 1140,467 1140,467 1140,467 1140,467 1141,467 1141,467 1141,467 1142,467 1142,467 1142,467 1142,467 1143,467 1143,467 1144,467 1144,467 1144,467 1144,467 1145,467 1145,466 1145,466 1145,465 1146,465 1146,465 1146,465 1146,465 1147,465 1147,465 1147,465 1147,465 1148,465 1148,465 1148,465 1148,464 1149,464 1149,464 1149,464 1150,464 1150,464 1150,464 1150,465 1151,465 1151,465 1151,465 1151,465 1152,465 1152,465 1153,465 1153,464 1153,464 1153,464 1154,465 1154,465 1154,465 1155,465 1155,465 1155,465 1155,464 1156,464 1156,464 1156,464 1156,464 1157,464 1157,464 1157,464 1157,464 1158,464 1158,463 1158,463 1158,463 1159,463 1159,463 1159,463 1159,463 1160,463 1160,463 1160,463 1160,463 1161,463 1161,462 1161,462 1161,462 1162,462 1162,462 1163,462 1163,462 1163,462 1163,462 1164,462 1164,462 1164,462 1165,462 1165,461 1165,461 1165,462 1166,462 1166,462 1166,462 1166,462 1167,462 1167,461 1167,461 1167,461 1168,461 1168,461 1168,461 1168,461 1169,461 1169,461 1169,461 1169,461 1170,461 1170,460 1170,460 1170,461 1171,461 1171,460 1172,460 1172,460 1172,460 1172,459 1173,459 1173,459 1173,459 1173,459 1174,459 1174,459 1174,459 1174,459 1175,459 1175,458 1175,458 1175,458 1176,458 1176,457 1176,457 1176,456 1177,456 1177,455 1177,455 1177,455 1178,455 1178,456 1178,455 1179,455 1179,454 1179,454 1179,454 1180,454 1181,454 1181,454 1181,454 1181,454 1182,454 1182,454 1182,454 1182,454 1183,454 1183,454 1183,454 1183,454 1184,454 1184,454 1184,454 1184,453 1185,453 1185,453 1185,453 1185,453 1186,453 1186,453 1186,454 1187,454 1187,454 1187,454 1187,454 1188,454 1188,453 1188,453 1188,452 1189,452 1189,452 1190,452 "/>
<rect x="1088" y="329" width="97" height="91" opacity="1" fill="#FFFFFF" stroke="none"/>
<rect x="1088" y="329" width="97" height="91" opacity="1" fill="none" stroke="#000000"/>
<text x="1128" y="339" dy="0.76em" text-anchor="start" font-family="sans-serif" font-size="9.67741935483871" opacity="1" fill="#000000">
argparse
</text>
<text x="1128" y="354" dy="0.76em" text-anchor="start" font-family="sans-serif" font-size="9.67741935483871" opacity="1" fill="#000000">
clap
</text>
<text x="1128" y="369" dy="0.76em" text-anchor="start" font-family="sans-serif" font-size="9.67741935483871" opacity="1" fill="#000000">
docopt
</text>
<text x="1128" y="384" dy="0.76em" text-anchor="start" font-family="sans-serif" font-size="9.67741935483871" opacity="1" fill="#000000">
getopts
</text>
<text x="1128" y="399" dy="0.76em" text-anchor="start" font-family="sans-serif" font-size="9.67741935483871" opacity="1" fill="#000000">
structopt
</text>
<polyline fill="none" opacity="1" stroke="#E61919" stroke-width="2" points="1098,343 1118,343 "/>
<polyline fill="none" opacity="1" stroke="#BDE619" stroke-width="2" points="1098,359 1118,359 "/>
<polyline fill="none" opacity="1" stroke="#19E66B" stroke-width="2" points="1098,374 1118,374 "/>
<polyline fill="none" opacity="1" stroke="#196BE6" stroke-width="2" points="1098,389 1118,389 "/>
<polyline fill="none" opacity="1" stroke="#BD19E6" stroke-width="2" points="1098,404 1118,404 "/>
</svg>
