<svg width="1200" height="800" xmlns="http://www.w3.org/2000/svg">
<rect x="0" y="0" width="1199" height="799" opacity="1" fill="#FFFFFF" stroke="none"/>
<line opacity="0.1" stroke="#000000" stroke-width="1" x1="60" y1="731" x2="1190" y2="731"/>
<line opacity="0.1" stroke="#000000" stroke-width="1" x1="60" y1="723" x2="1190" y2="723"/>
<line opacity="0.1" stroke="#000000" stroke-width="1" x1="60" y1="715" x2="1190" y2="715"/>
<line opacity="0.1" stroke="#000000" stroke-width="1" x1="60" y1="707" x2="1190" y2="707"/>
<line opacity="0.1" stroke="#000000" stroke-width="1" x1="60" y1="699" x2="1190" y2="699"/>
<line opacity="0.1" stroke="#000000" stroke-width="1" x1="60" y1="690" x2="1190" y2="690"/>
<line opacity="0.1" stroke="#000000" stroke-width="1" x1="60" y1="682" x2="1190" y2="682"/>
<line opacity="0.1" stroke="#000000" stroke-width="1" x1="60" y1="674" x2="1190" y2="674"/>
<line opacity="0.1" stroke="#000000" stroke-width="1" x1="60" y1="666" x2="1190" y2="666"/>
<line opacity="0.1" stroke="#000000" stroke-width="1" x1="60" y1="658" x2="1190" y2="658"/>
<line opacity="0.1" stroke="#000000" stroke-width="1" x1="60" y1="650" x2="1190" y2="650"/>
<line opacity="0.1" stroke="#000000" stroke-width="1" x1="60" y1="641" x2="1190" y2="641"/>
<line opacity="0.1" stroke="#000000" stroke-width="1" x1="60" y1="633" x2="1190" y2="633"/>
<line opacity="0.1" stroke="#000000" stroke-width="1" x1="60" y1="625" x2="1190" y2="625"/>
<line opacity="0.1" stroke="#000000" stroke-width="1" x1="60" y1="617" x2="1190" y2="617"/>
<line opacity="0.1" stroke="#000000" stroke-width="1" x1="60" y1="609" x2="1190" y2="609"/>
<line opacity="0.1" stroke="#000000" stroke-width="1" x1="60" y1="601" x2="1190" y2="601"/>
<line opacity="0.1" stroke="#000000" stroke-width="1" x1="60" y1="592" x2="1190" y2="592"/>
<line opacity="0.1" stroke="#000000" stroke-width="1" x1="60" y1="584" x2="1190" y2="584"/>
<line opacity="0.1" stroke="#000000" stroke-width="1" x1="60" y1="576" x2="1190" y2="576"/>
<line opacity="0.1" stroke="#000000" stroke-width="1" x1="60" y1="568" x2="1190" y2="568"/>
<line opacity="0.1" stroke="#000000" stroke-width="1" x1="60" y1="560" x2="1190" y2="560"/>
<line opacity="0.1" stroke="#000000" stroke-width="1" x1="60" y1="552" x2="1190" y2="552"/>
<line opacity="0.1" stroke="#000000" stroke-width="1" x1="60" y1="543" x2="1190" y2="543"/>
<line opacity="0.1" stroke="#000000" stroke-width="1" x1="60" y1="535" x2="1190" y2="535"/>
<line opacity="0.1" stroke="#000000" stroke-width="1" x1="60" y1="527" x2="1190" y2="527"/>
<line opacity="0.1" stroke="#000000" stroke-width="1" x1="60" y1="519" x2="1190" y2="519"/>
<line opacity="0.1" stroke="#000000" stroke-width="1" x1="60" y1="511" x2="1190" y2="511"/>
<line opacity="0.1" stroke="#000000" stroke-width="1" x1="60" y1="503" x2="1190" y2="503"/>
<line opacity="0.1" stroke="#000000" stroke-width="1" x1="60" y1="494" x2="1190" y2="494"/>
<line opacity="0.1" stroke="#000000" stroke-width="1" x1="60" y1="486" x2="1190" y2="486"/>
<line opacity="0.1" stroke="#000000" stroke-width="1" x1="60" y1="478" x2="1190" y2="478"/>
<line opacity="0.1" stroke="#000000" stroke-width="1" x1="60" y1="470" x2="1190" y2="470"/>
<line opacity="0.1" stroke="#000000" stroke-width="1" x1="60" y1="462" x2="1190" y2="462"/>
<line opacity="0.1" stroke="#000000" stroke-width="1" x1="60" y1="454" x2="1190" y2="454"/>
<line opacity="0.1" stroke="#000000" stroke-width="1" x1="60" y1="445" x2="1190" y2="445"/>
<line opacity="0.1" stroke="#000000" stroke-width="1" x1="60" y1="437" x2="1190" y2="437"/>
<line opacity="0.1" stroke="#000000" stroke-width="1" x1="60" y1="429" x2="1190" y2="429"/>
<line opacity="0.1" stroke="#000000" stroke-width="1" x1="60" y1="421" x2="1190" y2="421"/>
<line opacity="0.1" stroke="#000000" stroke-width="1" x1="60" y1="413" x2="1190" y2="413"/>
<line opacity="0.1" stroke="#000000" stroke-width="1" x1="60" y1="405" x2="1190" y2="405"/>
<line opacity="0.1" stroke="#000000" stroke-width="1" x1="60" y1="396" x2="1190" y2="396"/>
<line opacity="0.1" stroke="#000000" stroke-width="1" x1="60" y1="388" x2="1190" y2="388"/>
<line opacity="0.1" stroke="#000000" stroke-width="1" x1="60" y1="380" x2="1190" y2="380"/>
<line opacity="0.1" stroke="#000000" stroke-width="1" x1="60" y1="372" x2="1190" y2="372"/>
<line opacity="0.1" stroke="#000000" stroke-width="1" x1="60" y1="364" x2="1190" y2="364"/>
<line opacity="0.1" stroke="#000000" stroke-width="1" x1="60" y1="356" x2="1190" y2="356"/>
<line opacity="0.1" stroke="#000000" stroke-width="1" x1="60" y1="347" x2="1190" y2="347"/>
<line opacity="0.1" stroke="#000000" stroke-width="1" x1="60" y1="339" x2="1190" y2="339"/>
<line opacity="0.1" stroke="#000000" stroke-width="1" x1="60" y1="331" x2="1190" y2="331"/>
<line opacity="0.1" stroke="#000000" stroke-width="1" x1="60" y1="323" x2="1190" y2="323"/>
<line opacity="0.1" stroke="#000000" stroke-width="1" x1="60" y1="315" x2="1190" y2="315"/>
<line opacity="0.1" stroke="#000000" stroke-width="1" x1="60" y1="307" x2="1190" y2="307"/>
<line opacity="0.1" stroke="#000000" stroke-width="1" x1="60" y1="298" x2="1190" y2="298"/>
<line opacity="0.1" stroke="#000000" stroke-width="1" x1="60" y1="290" x2="1190" y2="290"/>
<line opacity="0.1" stroke="#000000" stroke-width="1" x1="60" y1="282" x2="1190" y2="282"/>
<line opacity="0.1" stroke="#000000" stroke-width="1" x1="60" y1="274" x2="1190" y2="274"/>
<line opacity="0.1" stroke="#000000" stroke-width="1" x1="60" y1="266" x2="1190" y2="266"/>
<line opacity="0.1" stroke="#000000" stroke-width="1" x1="60" y1="258" x2="1190" y2="258"/>
<line opacity="0.1" stroke="#000000" stroke-width="1" x1="60" y1="249" x2="1190" y2="249"/>
<line opacity="0.1" stroke="#000000" stroke-width="1" x1="60" y1="241" x2="1190" y2="241"/>
<line opacity="0.1" stroke="#000000" stroke-width="1" x1="60" y1="233" x2="1190" y2="233"/>
<line opacity="0.1" stroke="#000000" stroke-width="1" x1="60" y1="225" x2="1190" y2="225"/>
<line opacity="0.1" stroke="#000000" stroke-width="1" x1="60" y1="217" x2="1190" y2="217"/>
<line opacity="0.1" stroke="#000000" stroke-width="1" x1="60" y1="209" x2="1190" y2="209"/>
<line opacity="0.1" stroke="#000000" stroke-width="1" x1="60" y1="200" x2="1190" y2="200"/>
<line opacity="0.1" stroke="#000000" stroke-width="1" x1="60" y1="192" x2="1190" y2="192"/>
<line opacity="0.1" stroke="#000000" stroke-width="1" x1="60" y1="184" x2="1190" y2="184"/>
<line opacity="0.1" stroke="#000000" stroke-width="1" x1="60" y1="176" x2="1190" y2="176"/>
<line opacity="0.1" stroke="#000000" stroke-width="1" x1="60" y1="168" x2="1190" y2="168"/>
<line opacity="0.1" stroke="#000000" stroke-width="1" x1="60" y1="160" x2="1190" y2="160"/>
<line opacity="0.1" stroke="#000000" stroke-width="1" x1="60" y1="151" x2="1190" y2="151"/>
<line opacity="0.1" stroke="#000000" stroke-width="1" x1="60" y1="143" x2="1190" y2="143"/>
<line opacity="0.1" stroke="#000000" stroke-width="1" x1="60" y1="135" x2="1190" y2="135"/>
<line opacity="0.1" stroke="#000000" stroke-width="1" x1="60" y1="127" x2="1190" y2="127"/>
<line opacity="0.1" stroke="#000000" stroke-width="1" x1="60" y1="119" x2="1190" y2="119"/>
<line opacity="0.1" stroke="#000000" stroke-width="1" x1="60" y1="111" x2="1190" y2="111"/>
<line opacity="0.1" stroke="#000000" stroke-width="1" x1="60" y1="102" x2="1190" y2="102"/>
<line opacity="0.1" stroke="#000000" stroke-width="1" x1="60" y1="94" x2="1190" y2="94"/>
<line opacity="0.1" stroke="#000000" stroke-width="1" x1="60" y1="86" x2="1190" y2="86"/>
<line opacity="0.1" stroke="#000000" stroke-width="1" x1="60" y1="78" x2="1190" y2="78"/>
<line opacity="0.1" stroke="#000000" stroke-width="1" x1="60" y1="70" x2="1190" y2="70"/>
<line opacity="0.1" stroke="#000000" stroke-width="1" x1="60" y1="62" x2="1190" y2="62"/>
<line opacity="0.1" stroke="#000000" stroke-width="1" x1="60" y1="53" x2="1190" y2="53"/>
<line opacity="0.1" stroke="#000000" stroke-width="1" x1="60" y1="45" x2="1190" y2="45"/>
<line opacity="0.1" stroke="#000000" stroke-width="1" x1="60" y1="37" x2="1190" y2="37"/>
<line opacity="0.1" stroke="#000000" stroke-width="1" x1="60" y1="29" x2="1190" y2="29"/>
<line opacity="0.1" stroke="#000000" stroke-width="1" x1="60" y1="21" x2="1190" y2="21"/>
<line opacity="0.1" stroke="#000000" stroke-width="1" x1="60" y1="13" x2="1190" y2="13"/>
<text x="10" y="375" dy="0.76em" text-anchor="middle" font-family="sans-serif" font-size="9.67741935483871" opacity="1" fill="#000000" transform="rotate(270, 10, 375)">
Fraction of dependent crates
</text>
<line opacity="0.2" stroke="#000000" stroke-width="1" x1="60" y1="658" x2="1190" y2="658"/>
<line opacity="0.2" stroke="#000000" stroke-width="1" x1="60" y1="576" x2="1190" y2="576"/>
<line opacity="0.2" stroke="#000000" stroke-width="1" x1="60" y1="494" x2="1190" y2="494"/>
<line opacity="0.2" stroke="#000000" stroke-width="1" x1="60" y1="413" x2="1190" y2="413"/>
<line opacity="0.2" stroke="#000000" stroke-width="1" x1="60" y1="331" x2="1190" y2="331"/>
<line opacity="0.2" stroke="#000000" stroke-width="1" x1="60" y1="249" x2="1190" y2="249"/>
<line opacity="0.2" stroke="#000000" stroke-width="1" x1="60" y1="168" x2="1190" y2="168"/>
<line opacity="0.2" stroke="#000000" stroke-width="1" x1="60" y1="86" x2="1190" y2="86"/>
<polyline fill="none" opacity="1" stroke="#000000" stroke-width="1" points="59,10 59,740 "/>
<text x="50" y="658" dy="0.5ex" text-anchor="end" font-family="sans-serif" font-size="9.67741935483871" opacity="1" fill="#000000">
0.01
</text>
<polyline fill="none" opacity="1" stroke="#000000" stroke-width="1" points="54,658 59,658 "/>
<text x="50" y="576" dy="0.5ex" text-anchor="end" font-family="sans-serif" font-size="9.67741935483871" opacity="1" fill="#000000">
0.02
</text>
<polyline fill="none" opacity="1" stroke="#000000" stroke-width="1" points="54,576 59,576 "/>
<text x="50" y="494" dy="0.5ex" text-anchor="end" font-family="sans-serif" font-size="9.67741935483871" opacity="1" fill="#000000">
0.03
</text>
<polyline fill="none" opacity="1" stroke="#000000" stroke-width="1" points="54,494 59,494 "/>
<text x="50" y="413" dy="0.5ex" text-anchor="end" font-family="sans-serif" font-size="9.67741935483871" opacity="1" fill="#000000">
0.04
</text>
<polyline fill="none" opacity="1" stroke="#000000" stroke-width="1" points="54,413 59,413 "/>
<text x="50" y="331" dy="0.5ex" text-anchor="end" font-family="sans-serif" font-size="9.67741935483871" opacity="1" fill="#000000">
0.05
</text>
<polyline fill="none" opacity="1" stroke="#000000" stroke-width="1" points="54,331 59,331 "/>
<text x="50" y="249" dy="0.5ex" text-anchor="end" font-family="sans-serif" font-size="9.67741935483871" opacity="1" fill="#000000">
0.06
</text>
<polyline fill="none" opacity="1" stroke="#000000" stroke-width="1" points="54,249 59,249 "/>
<text x="50" y="168" dy="0.5ex" text-anchor="end" font-family="sans-serif" font-size="9.67741935483871" opacity="1" fill="#000000">
0.07
</text>
<polyline fill="none" opacity="1" stroke="#000000" stroke-width="1" points="54,168 59,168 "/>
<text x="50" y="86" dy="0.5ex" text-anchor="end" font-family="sans-serif" font-size="9.67741935483871" opacity="1" fill="#000000">
0.08
</text>
<polyline fill="none" opacity="1" stroke="#000000" stroke-width="1" points="54,86 59,86 "/>
<polyline fill="none" opacity="1" stroke="#000000" stroke-width="1" points="60,740 1190,740 "/>
<text x="60" y="750" dy="0.76em" text-anchor="middle" font-family="sans-serif" font-size="9.67741935483871" opacity="1" fill="#000000">
2014-11-20Z
</text>
<polyline fill="none" opacity="1" stroke="#000000" stroke-width="1" points="60,740 60,745 "/>
<text x="173" y="750" dy="0.76em" text-anchor="middle" font-family="sans-serif" font-size="9.67741935483871" opacity="1" fill="#000000">
2015-06-18Z
</text>
<polyline fill="none" opacity="1" stroke="#000000" stroke-width="1" points="173,740 173,745 "/>
<text x="287" y="750" dy="0.76em" text-anchor="middle" font-family="sans-serif" font-size="9.67741935483871" opacity="1" fill="#000000">
2016-01-14Z
</text>
<polyline fill="none" opacity="1" stroke="#000000" stroke-width="1" points="287,740 287,745 "/>
<text x="401" y="750" dy="0.76em" text-anchor="middle" font-family="sans-serif" font-size="9.67741935483871" opacity="1" fill="#000000">
2016-08-11Z
</text>
<polyline fill="none" opacity="1" stroke="#000000" stroke-width="1" points="401,740 401,745 "/>
<text x="515" y="750" dy="0.76em" text-anchor="middle" font-family="sans-serif" font-size="9.67741935483871" opacity="1" fill="#000000">
2017-03-09Z
</text>
<polyline fill="none" opacity="1" stroke="#000000" stroke-width="1" points="515,740 515,745 "/>
<text x="629" y="750" dy="0.76em" text-anchor="middle" font-family="sans-serif" font-size="9.67741935483871" opacity="1" fill="#000000">
2017-10-05Z
</text>
<polyline fill="none" opacity="1" stroke="#000000" stroke-width="1" points="629,740 629,745 "/>
<text x="743" y="750" dy="0.76em" text-anchor="middle" font-family="sans-serif" font-size="9.67741935483871" opacity="1" fill="#000000">
2018-05-03Z
</text>
<polyline fill="none" opacity="1" stroke="#000000" stroke-width="1" points="743,740 743,745 "/>
<text x="857" y="750" dy="0.76em" text-anchor="middle" font-family="sans-serif" font-size="9.67741935483871" opacity="1" fill="#000000">
2018-11-29Z
</text>
<polyline fill="none" opacity="1" stroke="#000000" stroke-width="1" points="857,740 857,745 "/>
<text x="971" y="750" dy="0.76em" text-anchor="middle" font-family="sans-serif" font-size="9.67741935483871" opacity="1" fill="#000000">
2019-06-27Z
</text>
<polyline fill="none" opacity="1" stroke="#000000" stroke-width="1" points="971,740 971,745 "/>
<text x="1085" y="750" dy="0.76em" text-anchor="middle" font-family="sans-serif" font-size="9.67741935483871" opacity="1" fill="#000000">
2020-01-23Z
</text>
<polyline fill="none" opacity="1" stroke="#000000" stroke-width="1" points="1085,740 1085,745 "/>
<polyline fill="none" opacity="1" stroke="#E61919" stroke-width="2" points="170,736 175,729 176,726 214,725 242,724 272,724 281,722 282,718 290,716 293,718 296,717 297,713 298,713 300,715 302,713 302,711 303,709 313,712 314,712 328,712 329,712 333,711 341,710 344,708 344,705 358,705 359,705 365,704 382,704 383,704 385,705 385,705 386,705 386,706 387,706 388,706 389,707 389,707 390,707 392,707 392,707 393,707 436,712 436,711 437,708 438,707 439,706 464,709 465,709 465,709 467,708 468,708 469,708 469,708 470,708 471,708 473,707 474,704 476,704 476,704 477,704 477,704 478,703 480,703 481,703 482,703 483,704 484,704 484,704 485,704 486,704 487,704 488,704 490,704 491,704 492,704 492,705 493,705 494,705 494,705 495,705 496,705 496,705 498,705 499,705 500,705 501,704 501,705 502,705 503,705 505,705 505,705 507,705 508,705 509,705 509,705 512,704 512,703 513,703 513,703 515,703 515,703 516,703 518,704 518,703 519,703 520,703 521,703 522,703 524,703 524,703 525,703 525,703 526,703 527,704 528,704 529,704 530,704 531,704 532,704 533,704 533,704 535,704 536,704 538,704 540,704 541,704 541,704 544,704 546,705 547,705 549,705 550,705 551,705 552,705 552,704 554,705 556,705 558,706 559,706 559,706 561,706 562,706 562,706 563,706 564,707 565,707 566,707 567,707 568,708 568,708 569,707 569,707 570,707 570,707 571,706 572,707 573,707 575,707 577,707 581,707 582,707 582,708 583,708 583,707 584,707 584,707 585,707 587,707 588,707 588,707 589,707 589,707 590,707 590,707 591,707 591,706 592,706 593,706 594,705 595,705 597,705 598,705 598,705 599,705 600,705 600,705 601,705 602,705 607,706 609,705 612,706 613,706 613,706 614,705 616,705 617,706 620,706 621,706 622,706 632,707 633,707 634,707 637,707 639,706 644,706 646,706 648,707 648,706 649,706 650,706 652,706 655,707 657,707 659,707 659,707 660,707 662,707 663,707 664,707 664,706 665,707 666,707 666,707 667,707 668,707 668,707 669,707 670,707 671,707 671,707 672,707 672,707 673,707 673,707 674,707 675,707 676,707 677,708 678,708 678,708 679,708 680,708 680,708 682,708 683,708 683,708 684,708 685,708 685,708 686,708 686,708 687,708 688,708 689,708 691,708 692,708 692,708 693,708 694,708 695,708 696,709 696,709 697,709 698,709 698,709 701,710 702,710 703,710 704,710 705,709 705,709 708,710 709,710 712,710 712,710 713,710 714,710 714,710 715,710 715,710 716,710 718,710 718,710 719,710 719,710 722,710 723,710 723,710 724,710 725,710 725,710 726,710 727,711 729,711 730,710 730,710 731,710 731,710 732,710 733,710 734,710 735,710 735,710 736,710 736,710 737,710 737,710 738,710 738,710 739,710 740,710 740,710 741,710 741,710 742,710 742,711 743,711 744,711 744,711 745,711 746,711 748,711 748,711 749,711 749,711 752,711 753,711 754,711 754,711 755,711 757,711 757,711 758,712 759,712 759,711 760,711 760,711 761,711 761,711 762,711 762,711 763,711 763,711 764,711 765,711 765,711 767,711 768,712 769,712 769,712 770,712 771,712 772,712 772,712 773,712 773,712 774,712 774,712 775,712 775,712 776,712 776,712 777,712 778,712 779,712 779,712 780,712 780,711 781,711 781,711 782,711 782,711 783,711 784,711 785,711 786,712 786,712 788,712 788,712 789,712 789,712 790,712 791,712 792,712 793,712 793,712 794,712 795,712 795,712 796,712 797,712 797,712 798,712 798,712 799,712 800,713 800,713 801,713 801,713 802,713 803,713 803,713 804,713 804,713 806,713 806,713 807,713 808,713 808,713 809,713 810,713 810,713 811,713 812,714 812,714 813,714 813,714 814,714 815,714 816,714 817,714 817,714 818,714 818,714 819,714 820,714 820,714 821,714 822,715 822,715 823,715 823,715 823,715 824,715 824,715 825,715 825,715 826,715 826,715 827,715 827,715 828,715 829,715 830,715 830,715 831,715 831,715 832,715 832,715 833,715 833,715 835,715 835,715 836,715 837,715 837,715 838,715 839,715 839,715 841,715 842,715 842,715 843,715 843,715 844,715 844,715 845,715 845,715 846,715 846,715 847,715 848,715 849,715 849,715 850,715 851,715 852,715 852,715 854,715 854,715 855,715 855,715 856,715 857,715 857,715 858,715 858,715 860,715 860,715 861,715 862,715 862,715 863,715 863,715 864,716 865,716 865,716 866,716 868,715 868,715 869,715 870,715 871,715 871,715 872,715 873,715 874,715 874,715 875,715 875,715 876,715 876,715 877,716 878,716 879,716 879,717 880,717 880,717 881,716 881,716 882,716 882,716 883,716 884,716 884,716 885,716 886,716 888,716 888,716 889,716 889,716 890,716 891,717 892,717 892,717 893,716 893,716 894,716 894,716 895,716 896,716 897,716 898,716 898,716 899,716 900,716 901,716 901,716 902,716 902,716 903,716 903,716 904,716 905,716 905,716 906,716 906,716 907,716 908,716 908,716 909,716 909,716 910,716 911,716 911,716 912,716 912,716 913,716 913,716 914,716 914,716 915,716 915,716 916,716 916,716 918,716 918,717 919,717 919,717 920,717 920,717 921,717 922,717 922,717 923,717 924,717 924,717 925,717 925,717 926,717 927,717 927,717 928,717 928,717 929,717 931,717 931,717 934,717 934,717 935,717 936,717 937,717 937,717 938,718 938,718 939,718 939,718 940,718 940,718 941,718 941,717 942,717 943,718 943,718 944,717 945,717 946,717 947,718 948,718 949,718 949,718 950,718 951,718 951,718 953,718 953,718 954,718 954,718 955,718 956,718 956,718 957,718 958,717 959,717 959,717 960,717 960,718 961,718 962,718 964,718 964,718 965,718 965,718 966,718 967,718 968,718 968,718 969,718 969,718 970,718 971,718 971,718 972,718 972,718 973,718 975,718 976,718 976,718 977,718 977,718 978,718 978,718 979,718 979,718 981,718 981,718 982,718 982,718 983,719 984,719 984,719 985,719 987,719 987,719 988,719 988,719 989,719 989,719 990,719 990,719 991,719 991,719 992,719 992,719 993,719 994,719 994,719 995,719 995,719 996,719 996,719 997,719 998,719 1000,719 1000,719 1001,719 1002,719 1002,719 1003,719 1003,719 1005,720 1006,720 1006,720 1007,720 1007,720 1008,720 1008,720 1009,720 1009,720 1010,720 1010,720 1011,720 1012,720 1013,720 1015,720 1016,720 1016,720 1017,720 1017,720 1019,720 1020,720 1021,721 1021,721 1022,721 1022,721 1023,721 1023,721 1025,721 1025,721 1026,721 1027,721 1028,721 1029,721 1030,721 1031,721 1032,721 1032,721 1033,721 1034,721 1034,721 1036,721 1036,721 1037,721 1038,721 1038,721 1039,721 1039,721 1040,721 1040,721 1041,721 1041,721 1042,721 1042,721 1043,721 1044,721 1044,721 1045,721 1045,721 1046,721 1046,721 1047,721 1047,722 1048,722 1048,722 1049,722 1050,721 1051,721 1052,721 1052,721 1053,721 1053,721 1058,722 1058,722 1059,722 1059,722 1060,722 1061,722 1061,722 1062,721 1062,721 1064,721 1064,721 1066,721 1067,721 1067,721 1068,721 1070,721 1070,721 1071,721 1072,721 1072,721 1073,721 1073,721 1074,721 1075,721 1076,721 1076,721 1077,721 1077,721 1078,722 1078,722 1079,722 1079,722 1080,722 1080,722 1082,722 1083,722 1083,722 1084,722 1084,722 1085,722 1085,722 1086,722 1086,722 1087,722 1088,722 1089,722 1089,722 1090,722 1090,722 1091,722 1091,722 1092,722 1093,722 1093,722 1094,722 1096,722 1096,722 1097,722 1097,722 1098,722 1098,722 1100,722 1101,722 1102,722 1103,723 1104,723 1104,723 1105,723 1105,723 1106,723 1106,723 1107,723 1108,723 1108,723 1109,723 1109,723 1110,723 1110,723 1110,723 1111,723 1111,723 1112,723 1113,723 1114,723 1114,723 1114,723 1115,723 1115,723 1115,723 1116,723 1116,723 1116,723 1116,723 1117,723 1117,723 1117,723 1118,723 1118,723 1118,723 1119,723 1119,723 1119,723 1119,723 1120,723 1120,723 1121,723 1121,723 1122,723 1122,723 1122,723 1123,723 1123,723 1123,723 1124,723 1124,723 1124,723 1124,723 1125,723 1125,723 1125,723 1126,723 1126,723 1127,723 1127,723 1127,723 1128,723 1129,724 1129,724 1130,724 1130,724 1130,724 1131,724 1131,724 1131,724 1131,724 1133,724 1133,724 1134,724 1134,724 1134,724 1135,724 1135,724 1135,724 1136,724 1137,724 1137,724 1137,724 1137,724 1138,724 1138,724 1138,724 1139,724 1140,724 1140,724 1140,724 1141,724 1141,724 1141,724 1141,724 1142,724 1142,724 1142,724 1143,724 1144,724 1144,724 1144,724 1145,724 1146,724 1146,724 1147,724 1147,724 1147,724 1147,724 1148,724 1148,724 1148,724 1149,724 1149,724 1150,724 1150,724 1150,724 1151,724 1151,724 1152,724 1152,724 1152,724 1153,724 1153,724 1154,724 1154,724 1155,724 1155,724 1155,724 1156,724 1156,724 1157,724 1157,724 1157,724 1158,724 1158,724 1159,724 1159,724 1159,724 1160,724 1160,724 1160,724 1160,724 1161,724 1161,724 1161,724 1162,724 1162,724 1162,725 1163,725 1163,725 1164,725 1165,725 1165,725 1166,725 1166,725 1166,725 1167,725 1167,725 1167,725 1167,725 1168,725 1168,725 1168,725 1168,725 1169,725 1169,725 1169,725 1169,725 1170,725 1171,725 1171,725 1172,725 1172,725 1172,725 1172,725 1173,725 1173,725 1173,725 1174,725 1174,725 1174,725 1174,725 1175,725 1175,725 1175,725 1175,725 1176,725 1176,725 1177,725 1177,725 1178,725 1178,725 1178,725 1178,725 1180,725 1180,725 1180,725 1181,725 1181,725 1181,725 1182,725 1182,725 1183,725 1184,725 1184,725 1184,725 1185,725 1185,725 1185,725 1186,725 1186,725 1186,725 1186,725 1187,725 1187,725 1187,725 1187,725 1188,725 1188,725 1188,725 1188,725 1189,725 1190,725 "/>
<polyline fill="none" opacity="1" stroke="#BDE619" stroke-width="2" points="131,735 157,732 178,729 181,726 193,724 200,718 201,722 204,719 210,717 211,714 214,712 221,709 225,707 229,705 234,703 239,701 241,699 242,697 242,694 243,692 245,689 245,687 248,685 249,678 251,676 254,672 255,670 257,665 264,665 267,663 268,661 269,659 270,657 272,655 273,651 278,651 279,649 280,647 281,645 284,644 284,642 285,640 286,638 286,636 290,635 292,634 293,630 294,629 295,627 298,624 298,622 302,622 304,619 308,619 308,615 309,614 310,610 310,608 311,607 312,608 314,606 314,605 315,603 316,602 317,601 318,601 320,600 321,598 322,599 323,597 323,596 324,593 328,593 331,593 333,592 334,594 335,593 337,592 338,591 338,590 339,591 340,590 340,588 341,587 341,587 342,586 343,583 344,582 344,582 347,583 348,583 349,583 349,584 350,584 351,581 351,581 352,578 353,579 354,578 354,578 355,578 355,578 356,577 359,577 360,578 360,578 361,578 361,579 362,579 365,578 365,577 366,578 366,578 367,576 367,577 368,577 368,576 369,576 369,576 370,576 370,577 371,574 372,574 372,574 373,575 373,575 374,574 374,573 375,571 376,569 376,568 377,568 378,566 378,565 379,566 380,563 381,564 382,564 382,561 383,559 384,559 384,559 385,557 386,555 386,553 387,553 389,555 390,550 391,549 391,547 392,545 393,543 394,543 395,543 395,542 396,540 397,539 398,539 398,540 399,538 399,537 400,537 400,535 401,534 401,533 402,531 403,532 404,531 405,530 405,530 406,531 406,530 407,529 407,528 408,528 409,528 410,527 410,527 411,524 412,525 412,524 413,521 413,520 414,521 414,520 415,518 416,518 416,518 417,517 418,385 419,383 420,384 420,382 421,380 422,380 422,379 423,380 424,379 424,380 425,376 425,375 426,375 426,373 427,372 427,370 428,368 429,365 429,366 430,365 430,365 431,364 431,364 432,366 432,364 433,365 433,364 434,363 435,361 435,359 436,357 436,357 437,355 437,350 438,350 438,349 439,347 440,346 441,327 442,327 442,326 443,326 444,326 444,326 445,326 445,327 446,328 446,328 448,328 449,328 449,327 450,328 450,328 451,327 451,328 452,328 452,325 453,324 454,322 454,324 455,323 456,324 456,323 457,321 457,320 458,320 458,319 459,319 460,319 460,319 461,318 462,319 462,318 463,317 464,316 464,314 465,311 465,312 466,312 467,313 467,312 468,312 468,312 469,313 469,312 470,307 471,308 471,308 472,308 473,308 473,307 474,308 474,308 475,309 475,309 476,307 476,308 477,308 477,308 478,309 479,308 479,308 480,307 480,307 481,307 481,307 482,306 482,307 483,308 483,309 484,307 485,307 486,305 486,306 487,307 487,305 488,305 488,301 489,302 489,301 490,302 490,301 491,299 492,299 492,300 493,297 493,295 494,293 494,292 495,290 495,289 496,288 496,288 497,286 497,286 498,285 499,284 499,284 500,282 500,283 501,281 501,278 502,278 502,277 503,275 503,274 504,274 505,273 505,271 506,270 506,271 507,270 507,270 508,271 508,271 509,271 509,270 510,269 511,268 511,269 512,268 512,268 513,266 513,266 514,266 514,262 515,262 515,263 516,263 516,263 517,264 518,262 518,263 519,263 519,262 520,261 520,261 521,261 521,259 522,255 522,253 523,252 524,251 525,253 525,252 526,252 526,251 527,250 527,250 528,248 528,246 529,246 530,244 530,243 531,243 531,241 532,241 532,240 533,239 533,240 534,240 534,239 535,237 535,238 536,236 537,235 537,235 538,233 538,233 539,233 539,233 540,232 540,232 541,229 541,230 542,230 543,230 543,231 544,231 544,230 545,230 545,231 546,231 546,227 547,228 547,228 548,226 549,222 549,222 550,222 550,221 551,223 551,224 552,222 552,224 553,223 553,224 554,223 554,225 555,224 556,223 556,223 557,224 557,223 558,220 558,220 559,220 559,219 560,220 560,218 561,219 562,217 562,217 563,217 563,216 564,216 564,217 565,217 565,217 566,216 566,214 567,213 568,211 568,210 569,209 569,208 570,207 570,207 571,208 571,206 572,207 572,208 573,208 573,207 574,208 575,209 575,209 576,210 576,210 577,209 577,208 578,208 578,209 579,208 579,208 580,208 581,206 581,205 582,205 582,204 583,205 583,205 584,205 584,204 585,204 585,201 586,199 587,198 587,198 588,198 588,197 589,196 589,195 590,196 590,197 591,196 591,196 592,196 592,195 593,195 594,195 594,195 595,194 595,194 596,195 596,195 597,195 597,194 598,194 598,193 599,192 600,191 600,192 601,191 601,191 602,191 602,191 603,190 603,190 604,191 604,190 605,191 606,190 606,191 607,191 607,189 608,189 608,188 609,188 609,187 610,188 610,189 611,190 611,190 612,190 613,190 613,187 614,188 614,188 615,189 615,188 616,188 616,188 617,187 617,187 618,187 619,185 619,185 620,185 620,183 621,184 621,184 622,185 622,186 623,185 623,185 624,184 625,184 625,174 626,172 626,170 627,171 627,171 628,170 628,171 629,171 629,169 630,168 630,168 631,167 632,167 632,166 633,165 633,165 634,165 634,163 635,163 635,164 636,165 636,166 637,164 638,165 638,165 639,165 639,163 640,163 640,163 641,162 641,161 642,161 642,161 643,158 643,158 644,157 645,156 645,155 646,156 646,156 647,157 647,158 648,158 648,158 649,159 649,158 650,157 651,158 651,158 652,157 652,158 653,158 653,157 654,157 654,157 655,157 655,157 656,158 657,155 657,156 658,155 658,156 659,157 659,157 660,155 660,155 661,156 661,156 662,156 662,156 663,156 664,156 664,156 665,155 665,154 666,155 666,152 667,150 667,150 668,150 668,150 669,148 670,147 670,148 671,146 671,147 672,148 672,148 673,145 673,145 674,145 674,145 675,146 676,146 676,147 677,146 677,146 678,147 678,147 679,146 679,146 680,146 680,146 681,147 681,148 682,148 683,148 683,149 684,147 684,149 685,148 685,148 686,146 686,147 687,147 687,147 688,146 689,146 689,146 690,145 690,145 691,144 691,142 692,142 692,144 693,145 693,144 694,134 695,134 695,132 696,132 696,132 697,131 697,130 698,130 698,130 699,129 699,128 700,127 700,125 701,124 702,123 702,122 703,122 703,121 704,121 704,121 705,122 705,123 706,122 706,123 707,122 708,122 708,122 709,119 709,119 710,119 710,118 711,117 711,118 712,118 712,118 713,116 714,116 714,117 715,116 715,114 716,113 716,115 717,115 717,115 718,116 718,116 719,116 719,117 720,115 721,115 721,116 722,117 722,116 723,116 723,116 724,116 724,114 725,114 725,114 726,114 727,112 727,111 728,112 728,113 729,113 729,113 730,113 730,112 731,113 731,113 732,113 733,112 733,112 734,113 734,114 735,114 735,113 736,113 736,113 737,113 737,113 738,112 738,112 739,113 740,113 740,114 741,114 741,115 742,116 742,116 743,117 743,117 744,117 744,117 745,117 746,117 746,116 747,116 747,115 748,114 748,114 749,115 749,115 750,115 750,115 751,114 752,114 752,114 753,115 753,113 754,113 754,113 755,113 755,113 756,114 756,113 757,113 757,112 758,111 759,112 759,111 760,111 760,111 761,110 761,110 762,110 762,109 763,110 763,110 764,110 765,109 765,109 766,108 766,108 767,107 767,107 768,107 768,104 769,104 769,105 770,105 770,105 771,105 772,104 772,103 773,103 773,102 774,103 774,103 775,103 775,101 776,100 776,99 777,100 778,99 778,100 779,100 779,98 780,97 780,97 781,97 781,96 782,96 782,97 783,97 784,96 784,97 785,97 785,97 786,95 786,95 787,95 787,96 788,95 788,95 789,95 789,95 790,95 791,96 791,97 792,98 792,98 793,98 793,99 794,98 794,99 795,99 795,102 796,102 797,102 797,102 798,101 798,101 799,102 799,102 800,102 800,103 801,103 801,104 802,105 803,106 803,106 804,105 804,105 805,105 805,109 806,110 806,110 807,110 807,110 808,113 808,113 809,114 810,114 810,115 811,114 811,113 812,112 812,112 813,112 813,112 814,110 814,110 815,109 816,110 816,111 817,111 817,111 818,111 818,110 819,109 819,108 820,109 820,109 821,107 822,109 822,108 823,108 823,108 823,106 824,106 824,106 825,107 825,106 826,105 826,106 827,106 827,105 828,105 829,105 829,106 830,105 830,105 831,106 831,107 832,107 832,95 833,101 833,95 834,95 835,94 835,95 836,95 836,97 837,95 837,93 838,94 838,94 839,94 839,95 840,94 841,94 841,94 842,93 842,93 843,93 843,94 844,94 844,94 845,94 845,94 846,94 846,92 847,93 848,93 848,92 849,92 849,93 850,92 850,92 851,91 851,91 852,91 852,91 853,91 854,91 854,91 855,92 855,91 856,91 856,92 857,91 857,91 858,91 858,91 859,92 860,91 860,92 861,91 861,91 862,91 862,90 863,90 863,91 864,92 864,91 865,92 865,93 866,92 867,93 867,93 868,93 868,93 869,93 869,94 870,93 870,93 871,93 871,93 872,93 873,93 873,93 874,95 874,94 875,93 875,92 876,91 876,89 877,89 877,90 878,89 879,88 879,111 880,112 880,112 881,87 881,87 882,87 882,87 883,88 883,88 884,87 884,87 885,86 886,87 886,87 887,88 887,86 888,85 888,86 889,86 889,86 890,86 890,86 891,86 892,86 892,86 893,87 893,87 894,87 894,87 895,87 895,87 896,87 896,88 897,88 898,87 898,86 899,87 899,87 900,88 900,87 901,87 901,87 902,88 902,89 903,89 903,89 904,89 905,90 905,90 906,89 906,90 907,90 907,89 908,89 908,89 909,90 909,89 910,88 911,89 911,89 912,88 912,88 913,89 913,89 914,88 914,89 915,89 915,90 916,90 916,90 917,90 918,90 918,90 919,90 919,89 920,90 920,89 921,89 921,88 922,87 922,88 923,88 924,88 924,88 925,88 925,87 926,88 926,88 927,87 927,87 928,87 928,87 929,88 930,88 930,88 931,88 931,88 932,88 932,89 933,89 933,88 934,89 934,89 935,88 935,88 936,87 937,87 937,87 938,85 938,85 939,85 939,85 940,85 940,85 941,84 941,84 942,86 943,86 943,87 944,87 944,88 945,88 945,89 946,89 946,89 947,90 947,91 948,91 949,91 949,90 950,88 950,89 951,89 951,88 952,89 952,88 953,88 953,88 954,88 954,88 955,87 956,88 956,87 957,87 957,87 958,86 958,86 959,86 959,86 960,86 960,86 961,86 962,86 962,86 963,85 963,86 964,85 964,85 965,85 965,85 966,85 966,85 967,84 968,85 968,85 969,86 969,86 970,84 970,84 971,83 971,83 972,83 972,83 973,83 973,85 974,85 975,85 975,86 976,79 976,79 977,80 977,79 978,79 978,78 979,78 979,78 980,78 981,77 981,77 982,76 982,76 983,77 983,76 984,75 984,76 985,76 985,75 986,76 987,76 987,77 988,77 988,77 989,76 989,78 990,78 990,78 991,79 991,78 992,78 992,78 993,79 994,79 994,79 995,79 995,79 996,79 996,79 997,78 997,77 998,77 998,78 999,77 1000,77 1000,78 1001,79 1001,78 1002,78 1002,78 1003,78 1003,78 1004,78 1004,79 1005,79 1006,79 1006,80 1007,80 1007,80 1008,81 1008,81 1009,82 1009,82 1010,81 1010,81 1011,81 1011,81 1012,81 1013,81 1013,81 1014,81 1014,81 1015,81 1015,81 1016,81 1016,80 1017,80 1017,80 1018,82 1019,82 1019,82 1020,83 1020,83 1021,83 1021,84 1022,84 1022,84 1023,84 1023,85 1024,84 1025,84 1025,84 1026,84 1026,84 1027,85 1027,86 1028,85 1028,84 1029,84 1029,84 1030,85 1030,85 1031,85 1032,86 1032,85 1032,85 1033,86 1033,87 1034,87 1034,86 1035,87 1035,87 1036,88 1036,88 1037,88 1038,88 1038,88 1039,89 1039,88 1040,88 1040,88 1041,88 1041,89 1042,88 1042,88 1043,88 1044,89 1044,88 1045,88 1045,88 1046,87 1046,87 1047,87 1047,88 1048,88 1048,86 1049,86 1049,87 1050,87 1051,87 1051,87 1052,87 1052,87 1053,88 1053,88 1054,88 1054,87 1055,87 1055,87 1056,87 1057,87 1057,88 1058,87 1058,88 1059,88 1059,89 1060,89 1060,89 1061,89 1061,90 1062,90 1062,90 1063,90 1064,90 1064,91 1065,91 1065,92 1066,92 1066,92 1067,93 1067,94 1068,93 1068,93 1069,91 1070,91 1070,91 1071,91 1071,92 1072,91 1072,91 1073,92 1073,93 1074,93 1074,93 1075,93 1076,93 1076,93 1077,94 1077,94 1078,93 1078,94 1079,94 1079,93 1080,92 1080,93 1081,93 1081,94 1082,94 1083,95 1083,95 1084,95 1084,94 1085,95 1085,95 1086,95 1086,95 1087,95 1087,94 1088,94 1089,94 1089,93 1090,94 1090,94 1091,94 1091,94 1092,95 1092,95 1093,95 1093,95 1094,94 1095,94 1095,95 1096,95 1096,95 1097,95 1097,94 1098,94 1098,94 1099,94 1099,94 1100,94 1100,94 1101,94 1102,95 1102,95 1103,94 1103,94 1104,94 1104,95 1105,95 1105,96 1106,96 1106,96 1107,96 1108,96 1108,96 1109,96 1109,97 1109,97 1109,97 1110,96 1110,96 1110,95 1111,95 1111,96 1111,96 1112,96 1112,96 1112,96 1112,96 1113,96 1113,96 1114,96 1114,96 1114,96 1114,95 1115,95 1115,95 1115,95 1115,95 1116,95 1116,94 1116,94 1116,94 1117,94 1117,93 1117,93 1118,93 1118,94 1118,94 1119,94 1119,94 1119,94 1119,95 1120,95 1120,95 1121,95 1121,95 1121,95 1121,95 1122,95 1122,96 1122,96 1123,96 1123,95 1123,95 1123,95 1124,96 1124,96 1124,96 1124,96 1125,96 1125,96 1125,96 1125,96 1126,96 1126,96 1127,96 1127,96 1127,96 1127,95 1128,95 1128,95 1128,96 1129,96 1129,96 1129,96 1129,96 1130,96 1130,97 1130,97 1130,97 1131,97 1131,97 1131,97 1131,97 1132,97 1132,97 1133,97 1133,97 1133,97 1133,97 1134,97 1134,98 1134,98 1135,98 1135,98 1135,98 1136,98 1136,99 1136,99 1136,98 1137,98 1137,98 1137,98 1137,98 1138,98 1138,98 1138,98 1138,98 1139,98 1139,98 1140,98 1140,98 1140,98 1141,98 1141,97 1141,97 1141,97 1142,97 1142,97 1142,97 1142,97 1143,97 1143,97 1143,97 1144,97 1144,98 1144,98 1144,98 1145,98 1145,97 1146,97 1146,97 1146,97 1146,98 1147,98 1147,97 1147,97 1147,98 1148,98 1148,98 1148,98 1148,98 1149,98 1149,98 1149,98 1149,98 1150,98 1150,98 1150,98 1150,98 1151,98 1151,98 1152,98 1152,97 1152,97 1152,97 1153,97 1153,98 1153,98 1153,97 1154,97 1154,97 1154,98 1155,98 1155,98 1155,98 1155,97 1156,97 1156,96 1156,96 1156,97 1157,97 1157,96 1157,96 1157,96 1158,96 1158,97 1159,97 1159,97 1159,97 1160,97 1160,97 1160,97 1160,96 1161,96 1161,95 1161,95 1161,96 1162,96 1162,96 1162,96 1163,96 1163,96 1163,96 1164,96 1165,96 1165,96 1165,96 1165,95 1166,95 1166,94 1166,94 1166,94 1167,94 1167,95 1167,95 1167,95 1168,95 1168,95 1168,95 1168,95 1169,95 1169,95 1169,95 1169,95 1170,95 1171,95 1171,95 1171,95 1171,95 1172,95 1172,95 1172,95 1172,95 1173,95 1173,95 1173,95 1173,96 1174,96 1174,95 1174,95 1174,95 1175,95 1175,94 1175,94 1175,94 1176,94 1176,94 1176,94 1176,94 1177,94 1177,88 1178,88 1178,88 1178,88 1178,88 1179,89 1179,89 1179,89 1180,89 1180,89 1180,89 1180,89 1181,89 1181,89 1181,89 1181,89 1182,89 1182,88 1182,88 1182,89 1183,89 1184,89 1184,89 1184,89 1184,90 1185,90 1185,90 1185,90 1185,89 1186,89 1186,89 1186,89 1186,89 1187,89 1187,90 1187,90 1187,90 1188,90 1188,89 1188,89 1188,89 1189,89 1189,89 1190,89 "/>
<polyline fill="none" opacity="1" stroke="#19E66B" stroke-width="2" points="60,647 60,659 61,671 69,688 75,656 76,643 82,639 85,624 89,612 94,612 95,606 96,644 97,638 101,641 105,631 111,631 112,626 119,627 121,624 122,630 126,633 138,633 142,627 144,624 144,625 146,626 147,623 150,625 151,626 152,627 152,627 155,625 156,630 157,631 157,631 158,627 158,624 159,625 159,625 160,619 161,609 162,609 162,610 163,607 163,607 164,608 164,608 165,609 165,609 166,610 166,606 167,607 168,608 168,608 169,609 170,609 171,610 171,607 172,608 172,608 173,609 173,605 174,602 175,603 176,604 176,604 177,598 177,598 178,599 179,599 179,593 180,590 181,591 182,591 182,589 183,589 183,590 184,590 184,591 185,591 185,591 186,591 187,592 188,590 189,591 190,591 191,591 192,596 193,593 194,594 194,591 195,589 195,586 196,586 197,587 198,588 199,589 200,589 200,587 201,587 201,588 202,589 203,586 204,584 205,585 206,586 207,586 207,584 208,584 208,584 209,585 210,586 210,586 211,586 211,587 212,587 213,588 214,583 214,580 215,581 215,581 216,581 217,581 217,582 218,582 219,583 219,580 220,581 221,581 221,581 223,571 224,572 224,570 226,568 226,568 227,568 227,569 228,569 228,567 229,567 229,567 230,568 230,568 231,568 232,568 232,569 234,569 234,570 235,570 235,568 236,568 236,569 237,569 238,569 238,570 239,570 239,570 240,569 241,570 241,570 242,568 243,569 243,569 244,569 245,569 245,570 246,570 246,571 247,571 248,571 248,572 249,572 249,572 250,568 251,568 253,569 253,569 254,569 254,567 255,568 255,568 257,569 257,569 258,568 259,563 259,563 260,564 260,555 261,555 261,556 262,551 262,552 263,553 264,553 264,553 265,554 266,554 266,554 267,555 268,555 268,553 269,551 270,549 270,550 271,550 271,548 272,549 272,549 273,550 273,548 274,548 275,549 276,549 276,550 277,550 277,551 278,549 278,550 279,550 279,550 280,550 280,551 281,551 281,551 282,550 283,550 283,550 284,550 284,551 285,549 285,549 286,550 286,550 287,551 287,551 288,551 289,551 289,552 290,552 290,553 291,553 291,553 292,554 292,550 293,551 293,551 294,551 295,548 295,546 296,546 296,546 297,547 297,545 298,544 298,546 299,547 299,547 300,546 300,544 301,543 302,541 302,542 303,538 303,538 304,539 304,539 305,539 305,540 306,540 307,539 308,539 308,540 309,538 310,539 310,538 311,539 311,539 312,540 312,540 313,540 314,541 314,538 315,538 315,538 316,539 316,537 317,537 317,538 318,538 318,536 319,537 319,536 320,536 321,536 321,537 322,537 322,535 323,534 323,534 324,535 324,535 325,536 325,536 326,535 327,536 327,534 328,535 328,535 329,536 329,537 330,537 330,537 331,537 331,538 332,538 333,538 333,539 334,539 334,539 335,540 335,540 336,539 336,539 337,539 337,539 338,536 338,537 339,535 341,536 341,537 342,535 342,536 343,535 343,533 344,534 344,532 345,533 346,534 346,534 347,535 347,535 348,535 348,536 349,536 349,535 350,535 350,535 351,536 351,534 352,533 353,533 353,534 354,534 354,533 355,533 355,533 356,534 356,533 357,533 357,533 358,534 359,534 360,532 361,532 361,533 362,533 362,534 363,532 363,533 364,533 365,533 365,532 366,533 367,533 367,533 368,534 368,534 369,533 369,533 370,534 370,534 371,534 372,535 372,535 373,536 373,536 374,536 374,535 375,536 375,536 376,536 376,537 377,537 378,537 378,539 379,538 379,537 380,539 380,539 381,540 381,540 382,538 382,539 383,539 384,539 384,538 385,538 385,539 386,539 386,539 387,539 387,540 388,539 388,539 389,538 389,538 390,538 391,539 391,538 392,538 392,538 393,539 393,539 394,539 394,540 395,540 395,541 396,541 397,540 397,540 398,539 398,537 399,537 399,537 400,537 400,538 401,538 401,538 402,539 403,539 403,539 404,539 404,540 405,540 405,540 406,539 406,540 407,539 407,539 408,540 408,540 409,539 410,538 410,537 411,538 411,538 412,539 412,539 413,538 413,537 414,537 414,537 415,538 416,538 416,538 417,539 417,539 418,540 418,544 419,544 419,545 420,544 420,544 421,544 422,545 422,545 423,544 423,544 424,545 424,544 425,544 425,544 426,545 426,545 427,545 427,546 428,546 429,546 430,547 430,547 431,547 431,545 432,546 432,547 433,547 433,547 434,547 435,549 435,549 436,548 436,549 437,549 437,550 438,551 438,551 439,551 439,550 440,550 441,550 441,551 442,551 442,550 443,550 443,551 444,551 444,551 445,551 445,549 446,549 446,550 447,549 448,549 448,549 449,549 449,550 450,550 450,550 451,551 451,551 452,551 452,552 453,552 454,551 454,551 455,551 455,552 456,552 456,551 457,553 457,553 458,553 458,553 459,552 460,553 460,553 461,553 461,552 462,552 462,552 463,551 463,551 464,551 464,552 465,552 465,551 466,551 467,551 467,552 468,552 468,552 469,551 469,551 470,550 470,551 471,551 471,551 472,552 473,552 474,552 474,552 475,553 475,553 476,553 476,554 477,554 477,552 478,553 479,553 479,553 480,554 480,554 481,552 481,552 482,551 482,551 483,550 483,548 484,549 484,549 485,549 486,549 486,550 487,549 487,550 488,550 488,550 489,549 489,550 490,550 490,550 491,552 492,552 492,552 493,553 493,553 494,554 494,554 495,554 495,554 496,554 496,554 497,555 497,555 498,555 499,556 499,556 500,556 500,556 501,558 501,558 502,557 502,557 503,557 503,557 504,558 505,558 505,558 506,558 506,559 507,558 507,558 508,559 508,559 509,559 509,560 510,560 511,560 511,560 512,560 512,560 513,561 513,562 514,563 514,563 515,564 515,565 516,565 516,563 517,565 518,565 518,565 519,565 519,566 520,566 520,566 521,566 521,566 522,566 522,567 523,568 524,568 524,568 525,569 525,569 526,569 526,570 527,570 527,571 528,571 528,571 529,571 530,571 530,571 531,570 531,570 532,570 532,570 533,570 533,571 534,571 534,571 535,571 535,572 536,572 537,572 537,572 538,572 538,572 539,572 539,573 540,572 540,572 541,573 541,573 542,573 543,573 543,574 544,574 544,574 545,574 545,574 546,575 546,575 547,576 547,576 548,574 549,575 549,576 550,576 550,576 551,575 551,575 552,574 552,575 553,574 553,574 554,573 554,575 555,575 556,575 556,575 557,576 557,577 558,577 558,576 559,576 559,576 560,576 560,577 561,577 562,578 562,579 563,578 563,578 564,579 564,579 565,579 565,580 566,580 566,579 567,580 568,580 568,580 569,580 569,580 570,580 570,580 571,581 571,580 572,581 572,581 573,581 573,581 574,582 575,581 575,581 576,582 576,582 577,582 577,582 578,582 578,582 579,582 579,582 580,583 581,583 581,583 582,583 582,583 583,583 583,584 584,584 584,584 585,584 585,585 586,585 587,585 587,586 588,586 588,586 589,586 589,586 590,587 590,587 591,587 591,587 592,587 592,587 593,587 594,587 594,588 595,588 595,588 596,588 596,589 597,589 597,589 598,589 598,589 599,589 600,590 600,590 601,590 601,590 602,590 602,590 603,590 603,591 604,591 604,591 605,591 606,591 606,591 607,592 607,592 608,592 608,592 609,592 609,593 610,593 610,593 611,593 611,593 612,593 613,593 613,593 614,594 614,594 615,594 615,593 616,594 616,594 617,593 617,594 618,595 619,594 619,594 620,594 620,594 621,595 621,595 622,595 622,595 623,595 623,596 624,596 625,596 625,597 626,597 626,597 627,597 627,597 628,598 628,598 629,598 629,597 630,598 630,598 631,598 632,598 632,598 633,599 633,599 634,600 634,600 635,600 635,601 636,601 636,601 637,601 638,600 638,600 639,600 639,600 640,600 640,601 641,601 641,601 642,601 642,602 643,602 643,602 644,602 645,602 645,603 646,603 646,603 647,603 647,604 648,604 648,604 649,604 649,604 650,605 651,605 651,605 652,604 652,605 653,605 653,605 654,605 655,605 655,606 656,605 657,605 657,605 658,605 658,606 659,606 659,606 660,607 660,607 661,607 661,607 662,606 662,606 663,606 664,606 664,607 665,607 665,607 666,607 666,608 667,608 667,608 668,608 668,608 669,608 670,608 670,608 671,608 671,608 672,608 672,608 673,608 673,608 674,609 674,609 675,608 676,608 676,609 677,609 677,609 678,609 678,609 679,609 679,609 680,609 680,609 681,609 681,609 682,609 683,609 683,608 684,609 684,609 685,609 685,609 686,610 686,610 687,610 687,610 688,610 689,610 689,610 690,611 690,611 691,611 691,610 692,611 692,611 693,611 693,611 694,612 695,612 695,612 696,612 696,612 697,613 697,613 698,613 698,613 699,613 699,614 700,614 700,614 701,614 702,614 702,614 703,614 703,614 704,615 704,615 705,614 705,615 706,615 706,615 707,615 708,615 708,616 709,616 709,616 710,616 710,616 711,616 711,616 712,616 712,616 713,616 714,616 714,617 715,617 715,617 716,617 716,617 717,617 717,617 718,617 718,617 719,618 719,618 720,618 721,618 721,618 722,618 722,619 723,619 723,619 724,619 724,620 725,620 725,620 726,620 727,620 727,621 728,620 728,621 729,621 729,621 730,621 730,621 731,621 731,621 732,621 733,621 733,621 734,622 734,621 735,621 735,622 736,622 736,622 737,623 737,623 738,623 738,623 739,623 740,623 740,623 741,623 741,624 742,624 742,624 743,624 743,624 744,625 744,625 745,625 746,625 746,625 747,624 747,624 748,624 748,625 749,625 749,625 750,626 750,626 751,626 752,625 752,625 753,625 753,626 754,626 754,626 755,626 755,626 756,626 756,626 757,626 757,626 758,626 759,626 759,627 760,627 760,627 761,627 761,627 762,627 762,627 763,627 763,627 764,628 765,627 765,627 766,627 766,628 767,628 767,628 768,628 768,628 769,628 769,628 770,628 770,629 771,629 772,628 772,628 773,628 773,629 774,629 774,628 775,628 775,629 776,629 776,629 777,629 778,629 778,628 779,628 779,628 780,628 780,629 781,628 781,628 782,629 782,629 783,629 784,629 784,629 785,629 785,629 786,629 786,629 787,630 787,630 788,629 788,629 789,629 789,630 790,630 791,630 791,630 792,630 792,630 793,630 793,630 794,630 794,630 795,631 795,631 796,631 797,632 797,632 798,632 798,631 799,632 799,632 800,632 800,632 801,632 801,632 802,632 803,632 803,632 804,632 804,632 805,632 805,633 806,633 806,633 807,633 807,634 808,634 808,634 809,634 810,635 810,635 811,635 811,635 812,635 812,635 813,635 813,636 814,636 814,636 815,636 816,636 816,637 817,637 817,637 818,637 818,637 819,637 819,636 820,636 820,637 821,637 822,637 822,637 823,637 823,637 823,637 824,637 824,637 825,637 825,637 826,637 826,637 827,637 827,637 828,637 829,638 829,638 830,638 830,638 831,638 831,638 832,638 832,638 833,639 833,638 834,638 835,638 835,639 836,639 836,639 837,639 837,639 838,639 838,639 839,639 839,639 840,639 841,639 841,639 842,639 842,639 843,639 843,639 844,640 844,640 845,640 845,640 846,640 846,640 847,639 848,639 848,640 849,640 849,640 850,640 850,640 851,640 851,640 852,640 852,640 853,640 854,640 854,640 855,640 855,640 856,640 856,640 857,640 857,641 858,641 858,641 859,641 860,641 860,641 861,641 861,641 862,641 862,641 863,641 863,641 864,641 864,641 865,641 865,641 866,641 867,641 867,641 868,641 868,641 869,641 869,641 870,641 870,642 871,642 871,642 872,642 873,642 873,642 874,642 874,642 875,642 875,642 876,642 876,643 877,643 877,643 878,643 879,644 879,647 880,647 880,647 881,644 881,644 882,644 882,644 883,644 883,644 884,644 884,644 885,644 886,644 886,644 887,645 887,645 888,645 888,645 889,645 889,645 890,645 890,645 891,645 892,645 892,646 893,646 893,646 894,646 894,646 895,646 895,646 896,647 896,647 897,647 898,647 898,647 899,647 899,647 900,647 900,647 901,647 901,647 902,648 902,648 903,648 903,648 904,648 905,648 905,648 906,649 906,649 907,649 907,649 908,649 908,649 909,649 909,649 910,649 911,649 911,649 912,650 912,650 913,650 913,650 914,650 914,650 915,650 915,650 916,650 916,650 917,651 918,651 918,651 919,651 919,651 920,651 920,651 921,651 921,651 922,652 922,651 923,651 924,652 924,652 925,652 925,652 926,652 926,652 927,652 927,652 928,652 928,652 929,653 930,653 930,653 931,653 931,653 932,653 932,653 933,653 933,653 934,653 934,653 935,653 935,654 936,654 937,654 937,654 938,654 938,654 939,654 939,654 940,654 940,654 941,654 941,655 942,655 943,655 943,655 944,655 944,656 945,656 945,656 946,656 946,656 947,656 947,656 948,656 949,656 949,656 950,656 950,656 951,657 951,657 952,657 952,657 953,657 953,657 954,657 954,657 955,657 956,657 956,657 957,657 957,657 958,658 958,658 959,658 959,658 960,658 960,658 961,658 962,658 962,658 963,658 963,658 964,659 964,659 965,659 965,659 966,659 966,659 967,659 968,660 968,660 969,660 969,660 970,660 970,660 971,660 971,660 972,660 972,660 973,660 973,660 974,660 975,660 975,660 976,661 976,661 977,661 977,661 978,661 978,661 979,661 979,661 980,661 981,661 981,661 982,662 982,662 983,662 983,662 984,662 984,662 985,662 985,663 986,663 987,663 987,663 988,663 988,663 989,663 989,664 990,664 990,664 991,664 991,664 992,664 992,664 993,664 994,664 994,664 995,664 995,664 996,664 996,665 997,665 997,665 998,665 998,665 999,665 1000,665 1000,665 1001,665 1001,665 1002,665 1002,665 1003,665 1003,665 1004,665 1004,665 1005,665 1006,665 1006,665 1007,665 1007,666 1008,666 1008,666 1009,666 1009,666 1010,666 1010,666 1011,666 1011,666 1012,667 1013,667 1013,667 1014,667 1014,667 1015,667 1015,667 1016,667 1016,667 1017,667 1017,667 1018,667 1019,668 1019,668 1020,668 1020,668 1021,668 1021,668 1022,668 1022,668 1023,668 1023,668 1024,668 1025,668 1025,668 1026,669 1026,669 1027,669 1027,669 1028,669 1028,669 1029,669 1029,669 1030,669 1030,669 1031,669 1032,669 1032,669 1032,669 1033,669 1033,669 1034,669 1034,669 1035,669 1035,669 1036,670 1036,670 1037,670 1038,670 1038,670 1039,670 1039,670 1040,670 1040,670 1041,670 1041,670 1042,670 1042,670 1043,671 1044,671 1044,671 1045,671 1045,671 1046,671 1046,671 1047,671 1047,671 1048,671 1048,672 1049,672 1049,672 1050,672 1051,673 1051,673 1052,673 1052,673 1053,673 1053,673 1054,673 1054,673 1055,673 1055,673 1056,673 1057,673 1057,673 1058,673 1058,673 1059,674 1059,674 1060,673 1060,674 1061,674 1061,674 1062,674 1062,674 1063,674 1064,674 1064,674 1065,674 1065,674 1066,674 1066,674 1067,674 1067,675 1068,675 1068,675 1069,675 1070,675 1070,675 1071,675 1071,675 1072,675 1072,675 1073,675 1073,675 1074,676 1074,676 1075,676 1076,676 1076,676 1077,676 1077,676 1078,676 1078,677 1079,676 1079,676 1080,676 1080,676 1081,676 1081,676 1082,676 1083,676 1083,677 1084,677 1084,677 1085,677 1085,677 1086,677 1086,677 1087,677 1087,677 1088,677 1089,677 1089,677 1090,677 1090,677 1091,678 1091,678 1092,678 1092,678 1093,678 1093,678 1094,678 1095,678 1095,678 1096,678 1096,678 1097,678 1097,678 1098,679 1098,679 1099,679 1099,679 1100,679 1100,679 1101,679 1102,679 1102,679 1103,679 1103,679 1104,679 1104,680 1105,680 1105,680 1106,680 1106,680 1107,680 1108,680 1108,680 1109,680 1109,680 1109,680 1109,680 1110,680 1110,680 1110,681 1111,681 1111,681 1111,680 1112,680 1112,680 1112,680 1112,681 1113,681 1113,681 1114,681 1114,681 1114,681 1114,681 1115,681 1115,681 1115,681 1115,681 1116,681 1116,681 1116,681 1116,681 1117,681 1117,682 1117,682 1118,682 1118,682 1118,682 1119,682 1119,682 1119,682 1119,682 1120,682 1120,682 1121,682 1121,682 1121,682 1121,682 1122,682 1122,682 1122,682 1123,682 1123,682 1123,682 1123,682 1124,682 1124,682 1124,682 1124,683 1125,683 1125,683 1125,683 1125,683 1126,683 1126,683 1127,683 1127,683 1127,683 1127,683 1128,683 1128,683 1128,683 1129,683 1129,683 1129,683 1129,683 1130,683 1130,683 1130,683 1130,683 1131,683 1131,683 1131,683 1131,683 1132,683 1132,684 1133,684 1133,684 1133,684 1133,684 1134,684 1134,684 1134,684 1135,684 1135,684 1135,684 1136,684 1136,684 1136,684 1136,684 1137,684 1137,684 1137,684 1137,684 1138,684 1138,684 1138,684 1138,684 1139,684 1139,684 1140,684 1140,684 1140,684 1141,684 1141,684 1141,684 1141,684 1142,684 1142,684 1142,684 1142,684 1143,684 1143,684 1143,685 1144,685 1144,685 1144,685 1144,685 1145,685 1145,685 1146,685 1146,685 1146,685 1146,685 1147,685 1147,685 1147,685 1147,685 1148,685 1148,685 1148,685 1148,685 1149,685 1149,685 1149,685 1149,686 1150,686 1150,686 1150,686 1150,686 1151,686 1151,686 1152,686 1152,686 1152,686 1152,686 1153,686 1153,686 1153,686 1153,686 1154,686 1154,686 1154,686 1155,686 1155,686 1155,686 1155,687 1156,687 1156,687 1156,687 1156,686 1157,686 1157,687 1157,687 1157,687 1158,687 1158,687 1159,687 1159,687 1159,687 1160,687 1160,687 1160,687 1160,687 1161,687 1161,687 1161,687 1161,687 1162,687 1162,687 1162,687 1163,687 1163,687 1163,687 1164,687 1165,687 1165,687 1165,687 1165,687 1166,687 1166,687 1166,687 1166,687 1167,687 1167,687 1167,687 1167,687 1168,687 1168,687 1168,687 1168,688 1169,688 1169,688 1169,688 1169,688 1170,688 1171,688 1171,688 1171,688 1171,688 1172,688 1172,688 1172,688 1172,688 1173,688 1173,688 1173,688 1173,688 1174,688 1174,688 1174,688 1174,688 1175,688 1175,688 1175,688 1175,688 1176,688 1176,688 1176,688 1176,688 1177,688 1177,688 1178,688 1178,688 1178,688 1178,688 1179,688 1179,688 1179,689 1180,689 1180,689 1180,689 1180,689 1181,689 1181,689 1181,689 1181,689 1182,689 1182,689 1182,689 1182,689 1183,689 1184,689 1184,689 1184,689 1184,689 1185,689 1185,689 1185,689 1185,689 1186,689 1186,689 1186,689 1186,689 1187,689 1187,689 1187,689 1187,689 1188,689 1188,689 1188,689 1188,689 1189,689 1189,690 1190,690 "/>
<polyline fill="none" opacity="1" stroke="#196BE6" stroke-width="2" points="87,728 94,720 97,720 107,716 108,710 113,706 118,702 125,699 126,700 126,696 131,692 134,693 138,695 143,692 145,693 151,695 151,691 152,687 155,684 157,681 159,678 159,675 160,667 161,665 163,666 166,660 168,661 170,658 171,655 172,653 172,649 175,651 177,652 177,652 178,649 180,647 183,648 185,646 190,648 192,646 199,646 200,646 201,647 203,648 204,646 204,643 205,640 206,644 212,646 214,644 215,645 216,645 220,646 220,646 221,647 222,647 223,647 224,645 225,645 226,645 226,646 227,646 230,647 232,647 235,648 236,644 238,644 239,645 240,646 241,646 241,646 242,646 243,646 245,644 245,645 246,645 247,645 248,646 251,646 251,647 252,647 254,647 254,647 255,648 255,648 256,648 258,649 259,649 259,649 260,649 261,647 262,646 263,646 264,646 265,647 266,644 266,645 268,645 270,643 271,641 272,642 274,641 275,639 276,639 277,639 277,640 278,640 278,640 279,642 280,641 281,637 283,637 285,638 286,636 286,636 289,635 290,633 290,633 293,632 295,633 296,631 296,629 297,630 297,628 298,628 299,629 300,627 300,628 301,626 302,624 303,624 303,625 304,625 304,625 305,623 305,622 306,622 306,622 307,622 308,621 308,621 309,621 309,621 310,622 310,620 311,620 312,621 312,621 313,622 314,622 314,622 315,622 315,622 316,623 316,623 317,623 317,623 318,624 318,624 319,624 319,622 320,622 321,623 322,623 322,623 323,623 323,624 324,623 325,621 325,619 326,620 327,618 327,618 328,615 328,615 329,616 329,616 330,616 330,616 331,617 331,617 332,613 333,612 333,612 334,612 334,613 335,613 335,613 336,613 336,613 337,614 337,612 338,612 338,612 339,613 340,613 340,613 341,613 341,614 342,614 342,611 343,609 343,610 344,610 344,610 345,607 346,607 346,608 347,608 347,608 348,608 348,609 349,609 349,609 350,609 350,610 351,610 351,610 352,610 353,610 353,609 354,609 354,609 355,610 355,610 356,610 356,612 357,612 357,613 358,613 359,613 359,613 360,614 360,614 361,612 361,613 362,613 362,613 363,613 363,613 364,614 365,614 365,614 366,614 366,615 367,615 367,613 368,614 368,614 369,614 369,614 370,614 370,615 371,615 372,615 372,615 373,615 373,616 374,616 374,616 375,616 375,617 376,615 376,614 377,613 378,613 378,613 379,613 379,614 380,614 380,614 381,614 381,614 382,615 382,615 383,615 384,615 384,615 385,615 385,616 386,616 386,616 387,615 387,615 388,615 388,615 389,615 389,616 390,616 391,616 391,616 392,617 392,617 393,615 393,616 394,616 394,616 395,616 395,615 396,615 397,616 397,616 398,616 398,616 399,616 399,617 400,617 400,616 401,616 401,616 402,616 403,616 403,616 404,616 404,617 405,616 405,616 406,616 406,616 407,616 407,617 408,617 408,617 409,618 410,618 410,615 411,614 411,615 412,615 412,616 413,615 413,615 414,616 414,614 415,615 416,613 416,612 417,612 417,613 418,613 418,615 419,616 419,616 420,616 420,617 421,617 422,617 422,617 423,616 423,616 424,615 424,616 425,616 425,615 426,615 427,615 427,615 428,615 429,616 429,616 430,616 430,616 431,616 431,617 432,617 432,618 433,618 433,618 434,618 435,618 435,619 436,619 436,619 437,619 437,619 438,620 438,620 439,620 439,620 440,620 441,620 441,621 442,621 442,622 443,622 444,621 444,621 445,621 445,621 446,616 446,617 447,618 448,618 448,618 449,618 449,619 450,619 450,619 451,619 451,619 452,620 452,621 453,621 454,620 454,620 455,620 455,621 456,620 456,620 457,619 457,619 458,619 458,619 459,619 460,620 460,620 461,620 461,620 462,620 462,621 463,622 463,621 464,621 464,621 465,621 466,622 467,622 467,622 468,622 468,622 469,622 469,623 470,623 470,624 471,624 471,624 472,624 473,624 473,625 474,625 474,625 475,624 475,624 476,624 476,624 477,623 477,623 478,623 479,624 479,624 480,623 480,622 481,623 481,623 482,623 482,623 483,623 483,622 484,621 484,621 485,622 486,622 486,622 487,622 487,622 488,620 488,621 489,620 489,621 490,620 490,618 491,616 492,617 492,617 493,617 493,617 494,618 494,618 495,618 495,618 496,618 496,618 497,618 497,618 498,618 499,619 499,619 500,618 500,619 501,619 502,620 502,620 503,620 503,620 504,621 505,621 505,621 506,620 506,620 507,621 507,621 508,620 508,620 509,620 509,621 510,621 511,621 511,621 512,622 512,622 513,622 513,622 514,623 514,623 515,623 515,623 516,624 516,624 517,624 518,624 518,624 519,624 519,624 520,625 520,625 521,625 521,625 522,626 522,626 523,626 524,626 524,626 525,626 525,627 526,626 526,626 527,625 527,625 528,625 528,625 529,625 530,624 530,624 531,624 531,625 532,625 532,624 533,622 533,623 534,623 534,622 535,622 535,622 536,622 537,622 537,622 538,622 538,622 539,623 539,623 540,623 540,621 541,622 541,622 542,622 543,622 543,622 544,622 544,623 545,623 545,623 546,621 546,623 547,623 547,621 548,621 549,622 549,620 550,620 550,620 551,620 551,620 552,620 552,620 553,620 553,621 554,621 554,621 555,621 556,620 556,620 557,620 557,621 558,622 558,621 559,621 559,621 560,622 560,622 561,622 562,622 562,623 563,623 563,623 564,623 564,623 565,623 565,623 566,623 566,623 567,624 568,624 568,623 569,623 569,624 570,624 570,624 571,623 571,624 572,624 572,624 573,624 573,625 574,625 575,625 575,625 576,625 576,625 577,625 577,624 578,624 578,624 579,625 579,625 580,625 581,625 581,625 582,625 582,626 583,626 583,626 584,626 584,626 585,626 585,627 586,626 587,626 587,626 588,626 588,627 589,627 589,627 590,627 590,627 591,627 591,627 592,627 592,626 593,626 594,627 594,626 595,626 595,626 596,627 596,625 597,625 597,626 598,626 598,625 599,625 600,625 600,624 601,624 601,624 602,624 602,625 603,625 603,625 604,625 604,625 605,625 606,626 606,626 607,626 607,625 608,626 608,626 609,626 609,626 610,626 610,626 611,626 611,627 612,627 613,627 613,627 614,627 614,627 615,628 615,628 616,627 616,627 617,627 617,627 618,627 619,627 619,627 620,627 620,627 621,627 621,627 622,627 622,627 623,627 623,627 624,627 625,627 625,627 626,627 626,627 627,627 627,627 628,627 628,627 629,627 629,628 630,628 630,628 631,628 632,628 632,628 633,629 633,629 634,629 634,629 635,629 635,629 636,630 636,630 637,630 638,630 638,630 639,630 639,630 640,631 640,631 641,631 641,631 642,631 642,631 643,632 643,632 644,632 645,632 645,632 646,632 646,633 647,633 647,633 648,632 648,633 649,633 649,633 650,633 651,633 651,633 652,633 652,633 653,633 653,633 654,633 654,631 655,632 655,632 656,632 657,632 657,632 658,632 658,632 659,632 659,632 660,632 660,632 661,633 661,633 662,633 662,633 663,633 664,633 664,633 665,633 665,633 666,634 666,633 667,633 667,634 668,634 668,634 669,634 670,633 670,633 671,634 671,634 672,635 672,635 673,635 673,635 674,635 674,635 675,635 676,635 676,634 677,634 677,634 678,634 678,634 679,634 679,633 680,633 680,633 681,634 681,634 682,634 683,634 683,634 684,634 684,633 685,633 685,633 686,633 686,633 687,633 687,632 688,633 689,633 689,633 690,633 690,633 691,633 691,633 692,633 692,633 693,633 693,633 694,633 695,633 695,633 696,634 696,634 697,634 697,634 698,634 698,634 699,634 699,634 700,634 700,635 701,635 702,635 702,635 703,635 703,635 704,635 704,635 705,635 705,635 706,635 706,635 707,635 708,635 708,636 709,636 709,636 710,636 710,636 711,636 711,636 712,636 712,636 713,636 714,636 714,637 715,637 715,637 716,637 716,637 717,638 717,638 718,637 718,637 719,638 719,638 720,638 721,638 721,638 722,638 722,638 723,639 723,639 724,639 724,639 725,639 725,640 726,640 727,640 727,640 728,640 728,640 729,640 729,640 730,640 730,640 731,640 731,640 732,640 733,641 733,641 734,641 734,640 735,640 735,640 736,640 736,639 737,640 737,640 738,639 738,639 739,639 740,640 740,639 741,639 741,639 742,640 742,640 743,640 743,640 744,640 744,640 745,640 746,641 746,641 747,641 747,641 748,641 748,641 749,641 749,641 750,641 750,641 751,641 752,641 752,641 753,642 753,642 754,642 754,642 755,641 755,641 756,642 756,641 757,641 757,641 758,642 759,642 759,642 760,642 760,642 761,642 761,642 762,642 762,642 763,642 763,642 764,642 765,642 765,642 766,642 766,643 767,643 767,643 768,643 768,643 769,644 769,644 770,644 770,644 771,644 772,644 772,644 773,644 773,644 774,644 774,645 775,645 775,645 776,645 776,645 777,645 778,645 778,645 779,645 779,645 780,645 780,646 781,646 781,646 782,646 782,646 783,646 784,646 784,646 785,645 785,646 786,646 786,646 787,646 787,646 788,646 788,647 789,647 789,647 790,647 791,647 791,646 792,646 792,646 793,647 793,647 794,647 794,647 795,648 795,648 796,648 797,648 797,648 798,649 798,649 799,648 799,648 800,649 800,649 801,649 801,649 802,649 803,649 803,649 804,649 804,649 805,649 805,649 806,649 806,650 807,650 807,649 808,650 808,650 809,650 810,650 810,649 811,650 811,649 812,649 812,649 813,650 813,650 814,650 814,650 815,650 816,650 816,650 817,650 817,650 818,650 818,651 819,651 819,650 820,650 820,650 821,650 822,650 822,650 823,650 823,650 823,651 824,651 824,651 825,651 825,651 826,651 826,652 827,652 827,652 828,652 829,652 829,652 830,652 830,652 831,652 831,652 832,652 832,653 833,654 833,653 834,653 835,653 835,653 836,653 836,652 837,652 837,653 838,653 838,653 839,653 839,653 840,653 841,653 841,653 842,653 842,653 843,653 843,653 844,653 844,653 845,653 845,653 846,653 846,653 847,653 848,653 848,654 849,654 849,654 850,654 850,654 851,654 851,654 852,654 852,654 853,654 854,655 854,655 855,655 855,655 856,655 856,655 857,655 857,655 858,655 858,655 859,654 860,654 860,655 861,655 861,655 862,655 862,655 863,655 863,655 864,655 864,655 865,654 865,653 866,653 867,653 867,654 868,654 868,654 869,654 869,655 870,655 870,655 871,655 871,655 872,655 873,655 873,655 874,655 874,655 875,655 875,656 876,656 876,656 877,656 877,656 878,656 879,656 879,660 880,660 880,660 881,656 881,657 882,657 882,657 883,657 883,657 884,657 884,657 885,657 886,657 886,657 887,658 887,658 888,658 888,658 889,658 889,658 890,658 890,658 891,659 892,659 892,659 893,659 893,659 894,659 894,659 895,659 895,659 896,660 896,659 897,659 898,660 898,659 899,659 899,659 900,660 900,660 901,660 901,660 902,660 902,660 903,660 903,661 904,661 905,661 905,661 906,661 906,661 907,661 907,661 908,661 908,660 909,660 909,660 910,660 911,660 911,660 912,660 912,660 913,660 913,660 914,660 914,660 915,660 915,660 916,660 916,661 917,660 918,660 918,661 919,661 919,661 920,661 920,661 921,661 921,661 922,661 922,661 923,661 924,661 924,661 925,661 925,662 926,662 926,662 927,662 927,662 928,662 928,662 929,662 930,662 930,662 931,662 931,662 932,662 932,663 933,663 933,663 934,663 934,663 935,663 935,663 936,663 937,663 937,663 938,663 938,663 939,663 939,663 940,663 940,662 941,663 941,663 942,663 943,663 943,663 944,663 944,663 945,663 945,663 946,663 946,663 947,663 947,663 948,663 949,663 949,663 950,663 950,663 951,663 951,663 952,663 952,663 953,664 953,664 954,664 954,664 955,664 956,664 956,664 957,664 957,664 958,664 958,664 959,664 959,664 960,664 960,665 961,665 962,664 962,664 963,665 963,665 964,665 964,665 965,665 965,665 966,665 966,665 967,665 968,665 968,665 969,665 969,666 970,666 970,666 971,666 971,666 972,666 972,666 973,666 973,666 974,666 975,666 975,666 976,667 976,667 977,667 977,667 978,667 978,667 979,667 979,667 980,667 981,667 981,667 982,667 982,668 983,668 983,668 984,668 984,668 985,668 985,668 986,668 987,668 987,668 988,668 988,668 989,668 989,668 990,668 990,668 991,669 991,669 992,669 992,669 993,669 994,669 994,669 995,669 995,669 996,669 996,669 997,669 997,669 998,669 998,669 999,669 1000,669 1000,669 1001,669 1001,669 1002,669 1002,669 1003,669 1003,669 1004,669 1004,669 1005,669 1006,669 1006,669 1007,669 1007,670 1008,669 1008,669 1009,670 1009,670 1010,670 1010,670 1011,670 1011,670 1012,670 1013,670 1013,670 1014,670 1014,670 1015,670 1015,670 1016,670 1016,670 1017,670 1017,670 1018,670 1019,670 1019,670 1020,670 1020,670 1021,670 1021,670 1022,670 1022,670 1023,670 1023,670 1024,670 1025,670 1025,670 1026,670 1026,670 1027,671 1027,671 1028,671 1028,671 1029,671 1029,671 1030,671 1030,671 1031,672 1032,671 1032,671 1032,671 1033,672 1033,672 1034,672 1034,672 1035,671 1035,671 1036,671 1036,672 1037,672 1038,672 1038,672 1039,672 1039,672 1040,672 1040,672 1041,672 1041,672 1042,671 1042,672 1043,671 1044,671 1044,671 1045,671 1045,671 1046,672 1046,672 1047,672 1047,672 1048,672 1048,672 1049,672 1049,672 1050,672 1051,672 1051,672 1052,672 1052,672 1053,672 1053,672 1054,672 1054,672 1055,672 1055,672 1056,673 1057,673 1057,672 1058,672 1058,672 1059,672 1059,672 1060,672 1060,673 1061,673 1061,673 1062,673 1062,673 1063,673 1064,673 1064,673 1065,673 1065,673 1066,673 1066,673 1067,673 1067,673 1068,673 1068,673 1069,674 1070,674 1070,674 1071,674 1071,674 1072,674 1072,674 1073,674 1073,674 1074,674 1074,674 1075,675 1076,675 1076,675 1077,675 1077,675 1078,675 1078,675 1079,675 1079,675 1080,675 1080,675 1081,675 1081,676 1082,676 1083,676 1083,676 1084,676 1084,676 1085,676 1085,676 1086,676 1086,676 1087,676 1087,676 1088,677 1089,677 1089,677 1090,677 1090,677 1091,677 1091,677 1092,677 1092,677 1093,677 1093,677 1094,677 1095,677 1095,677 1096,678 1096,678 1097,678 1097,678 1098,678 1098,678 1099,678 1099,678 1100,678 1100,678 1101,678 1102,678 1102,678 1103,678 1103,678 1104,678 1104,679 1105,679 1105,679 1106,679 1106,679 1107,679 1108,678 1108,678 1109,678 1109,678 1109,678 1109,678 1110,678 1110,678 1110,679 1111,679 1111,679 1111,679 1112,679 1112,679 1112,679 1112,679 1113,679 1113,679 1114,679 1114,679 1114,679 1114,679 1115,679 1115,680 1115,680 1115,679 1116,679 1116,679 1116,679 1116,680 1117,680 1117,680 1117,679 1118,679 1118,680 1118,680 1119,680 1119,680 1119,680 1119,680 1120,680 1120,680 1121,680 1121,680 1121,680 1121,680 1122,680 1122,680 1122,680 1123,680 1123,680 1123,680 1123,680 1124,680 1124,680 1124,680 1124,680 1125,680 1125,680 1125,680 1125,680 1126,680 1126,680 1127,680 1127,680 1127,680 1127,680 1128,681 1128,681 1128,681 1129,681 1129,681 1129,681 1129,681 1130,681 1130,681 1130,681 1130,681 1131,681 1131,681 1131,681 1131,680 1132,680 1132,681 1133,681 1133,681 1133,681 1133,681 1134,681 1134,681 1134,681 1135,681 1135,681 1135,681 1136,681 1136,681 1136,681 1136,681 1137,681 1137,681 1137,681 1137,681 1138,681 1138,681 1138,681 1138,681 1139,681 1139,681 1140,681 1140,681 1140,681 1141,681 1141,681 1141,681 1141,681 1142,681 1142,681 1142,681 1142,681 1143,681 1143,681 1143,681 1144,681 1144,682 1144,682 1144,682 1145,682 1145,682 1146,682 1146,682 1146,682 1146,682 1147,682 1147,682 1147,682 1147,682 1148,682 1148,682 1148,682 1148,682 1149,682 1149,682 1149,682 1149,682 1150,682 1150,682 1150,682 1150,682 1151,682 1151,682 1152,682 1152,682 1152,682 1152,682 1153,682 1153,682 1153,682 1153,682 1154,682 1154,682 1154,682 1155,682 1155,682 1155,682 1155,672 1156,672 1156,672 1156,672 1156,672 1157,672 1157,672 1157,672 1157,672 1158,672 1158,672 1159,672 1159,672 1159,672 1160,672 1160,672 1160,672 1160,672 1161,672 1161,672 1161,672 1161,672 1162,672 1162,672 1162,672 1163,672 1163,672 1163,672 1164,672 1165,672 1165,672 1165,672 1165,672 1166,672 1166,672 1166,672 1166,672 1167,672 1167,672 1167,672 1167,672 1168,672 1168,672 1168,672 1168,672 1169,672 1169,672 1169,672 1169,672 1170,672 1171,672 1171,672 1171,672 1171,672 1172,672 1172,672 1172,672 1172,672 1173,672 1173,672 1173,672 1173,672 1174,672 1174,672 1174,672 1174,672 1175,672 1175,673 1175,673 1175,673 1176,673 1176,673 1176,673 1176,673 1177,673 1177,673 1178,673 1178,673 1178,673 1178,673 1179,673 1179,673 1179,673 1180,673 1180,673 1180,673 1180,673 1181,673 1181,673 1181,673 1181,673 1182,673 1182,674 1182,674 1182,673 1183,673 1184,673 1184,673 1184,673 1184,673 1185,673 1185,673 1185,673 1185,673 1186,673 1186,674 1186,674 1186,674 1187,674 1187,674 1187,674 1187,674 1188,674 1188,674 1188,674 1188,674 1189,674 1189,674 1190,674 "/>
<polyline fill="none" opacity="1" stroke="#BD19E6" stroke-width="2" points="514,738 515,737 536,737 553,736 572,735 573,734 582,734 594,732 598,732 602,731 610,731 613,730 614,728 617,728 622,727 638,727 639,726 644,726 651,725 657,725 658,724 659,724 660,723 663,722 664,721 668,721 668,720 672,720 673,720 673,719 674,719 674,719 678,719 678,718 679,718 679,718 682,718 684,717 685,717 685,717 687,716 688,715 690,715 690,714 691,713 691,714 692,713 693,712 693,712 694,712 695,713 696,712 698,712 700,711 700,711 703,710 704,710 706,710 706,709 709,708 711,708 712,708 712,707 715,707 717,706 718,705 719,704 723,704 724,703 724,703 725,702 728,701 729,701 730,700 730,700 731,700 731,698 732,698 733,698 734,697 734,696 735,696 735,695 736,695 736,694 737,694 738,693 740,693 740,691 741,690 742,690 742,690 743,689 743,688 744,688 744,688 745,688 746,688 746,687 747,687 747,687 748,686 748,685 749,685 749,685 750,683 750,682 751,682 753,681 753,681 754,681 755,680 755,679 756,679 756,677 757,676 759,676 759,675 760,675 760,674 761,674 761,674 762,674 762,674 763,674 763,673 764,673 765,673 765,673 766,673 766,674 767,673 767,673 768,673 768,672 769,672 769,672 770,672 770,672 771,672 772,672 772,672 773,672 773,672 774,671 774,671 775,671 776,670 776,670 777,670 778,670 778,669 779,669 779,668 780,668 780,668 781,668 782,667 782,667 783,667 784,666 784,667 785,667 785,666 786,666 786,665 787,666 787,665 788,664 788,664 789,663 789,663 790,663 791,663 791,663 792,663 792,663 793,663 794,663 794,663 795,662 795,663 796,662 797,662 797,662 798,662 798,662 799,662 799,662 800,662 800,662 801,661 801,660 802,658 803,658 803,657 804,657 804,657 805,656 805,657 806,657 806,657 807,656 807,656 808,656 809,656 810,656 810,656 811,655 811,655 812,655 813,654 813,653 814,653 815,653 816,653 816,653 817,653 817,653 818,653 818,653 819,653 820,653 820,653 821,652 822,651 822,651 823,651 823,651 823,651 824,651 824,651 825,650 826,650 826,649 827,649 827,649 828,649 829,648 829,647 830,647 830,646 831,646 831,646 832,646 832,645 833,645 833,644 834,644 835,644 835,644 836,644 836,643 837,643 837,643 838,641 838,641 839,641 839,641 840,640 841,640 841,640 842,640 842,640 843,640 843,639 844,639 844,638 845,639 845,639 846,638 846,638 847,638 848,637 848,637 849,636 849,636 850,636 850,636 851,636 851,636 852,636 852,636 854,637 854,637 855,636 855,636 856,636 856,636 857,636 857,637 858,637 858,636 859,637 860,636 860,636 861,636 861,636 862,636 862,636 863,635 863,635 864,635 864,635 865,634 865,634 866,633 867,632 867,631 868,632 868,631 869,630 869,629 870,629 870,628 871,629 871,629 872,628 873,627 873,627 874,626 874,626 875,625 875,625 876,625 876,625 877,625 877,623 878,622 879,621 879,625 880,625 880,624 881,619 881,619 882,618 882,616 883,616 883,615 884,615 884,614 885,614 886,614 886,613 887,613 887,613 888,613 888,613 889,613 889,613 890,613 890,612 891,612 892,612 892,612 893,612 893,611 894,610 894,610 895,609 895,609 896,610 896,610 897,609 898,608 898,608 899,608 899,608 900,607 900,607 901,607 901,607 902,606 902,606 903,607 903,607 904,607 905,607 905,607 906,606 906,606 907,605 907,605 908,604 908,604 909,604 909,604 910,603 911,603 911,602 912,602 912,601 913,600 913,600 914,599 914,599 915,599 915,599 916,598 916,598 917,597 918,596 918,596 919,597 919,596 920,595 920,595 921,595 921,595 922,594 922,594 923,594 924,593 924,593 925,593 925,593 926,593 926,593 927,593 927,593 928,592 928,592 929,591 930,591 930,591 931,591 931,590 932,590 932,590 933,590 933,590 934,590 934,590 935,590 935,590 936,589 937,589 937,589 938,588 938,587 939,587 939,587 940,587 940,587 941,586 941,586 942,586 943,586 943,585 944,585 944,585 945,584 945,584 946,585 946,584 947,584 947,584 948,584 949,583 949,583 950,582 950,581 951,581 951,581 952,581 952,581 953,581 953,581 954,581 954,580 955,579 956,580 956,579 957,579 957,579 958,579 958,579 959,579 959,578 960,578 960,577 961,577 962,577 962,577 963,577 963,576 964,576 964,575 965,575 965,576 966,575 966,574 967,574 968,574 968,573 969,573 969,573 970,573 970,572 971,572 971,572 972,572 972,571 973,571 973,572 974,572 975,571 975,571 976,571 976,571 977,571 977,571 978,571 978,571 979,571 979,570 980,569 981,569 981,568 982,569 982,568 983,568 983,568 984,568 984,567 985,567 985,567 986,567 987,567 987,566 988,566 988,566 989,566 989,565 990,565 990,564 991,564 991,564 992,563 992,563 993,563 994,562 994,562 995,562 995,561 996,561 996,561 997,560 997,560 998,560 998,560 999,560 1000,559 1000,558 1001,558 1002,558 1002,558 1003,558 1003,557 1004,557 1004,557 1005,557 1006,557 1006,557 1007,556 1007,556 1008,555 1008,554 1009,554 1009,554 1010,553 1010,553 1011,553 1011,552 1012,552 1013,552 1013,551 1014,551 1014,551 1015,551 1015,551 1016,550 1016,549 1017,549 1017,549 1018,549 1019,549 1019,548 1020,548 1020,547 1021,547 1021,546 1022,545 1022,545 1023,544 1023,544 1024,543 1025,543 1025,542 1026,542 1026,541 1027,541 1027,541 1028,541 1028,540 1029,540 1029,540 1030,539 1030,539 1031,539 1032,538 1032,538 1032,538 1033,538 1033,538 1034,537 1034,537 1035,536 1035,536 1036,534 1036,533 1037,533 1038,532 1038,531 1039,531 1039,531 1040,531 1040,531 1041,531 1041,530 1042,530 1042,531 1043,531 1044,530 1044,529 1045,529 1045,529 1046,528 1046,528 1047,528 1047,527 1048,527 1048,526 1049,526 1049,526 1050,525 1051,525 1051,526 1052,525 1052,525 1053,524 1053,524 1054,524 1054,524 1055,524 1055,524 1056,524 1057,523 1057,523 1058,523 1058,523 1059,521 1059,521 1060,521 1060,520 1061,520 1061,520 1062,520 1062,520 1063,519 1064,518 1064,518 1065,518 1065,517 1066,516 1066,516 1067,515 1067,515 1068,515 1068,515 1069,515 1070,515 1070,514 1071,514 1071,514 1072,514 1072,513 1073,514 1073,513 1074,513 1074,513 1075,513 1076,513 1076,513 1077,513 1077,512 1078,512 1078,512 1079,511 1079,511 1080,510 1080,510 1081,509 1081,509 1082,509 1083,509 1083,510 1084,510 1084,510 1085,509 1085,510 1086,510 1086,509 1087,509 1087,508 1088,508 1089,508 1089,508 1090,508 1090,508 1091,507 1091,507 1092,507 1092,506 1093,506 1093,506 1094,506 1095,506 1095,505 1096,505 1096,505 1097,505 1097,505 1098,505 1098,504 1099,504 1099,504 1100,503 1100,502 1101,501 1102,501 1102,501 1103,501 1103,500 1104,500 1104,500 1105,500 1105,500 1106,500 1106,499 1107,499 1108,499 1108,499 1109,499 1109,499 1109,499 1109,498 1110,497 1110,497 1110,497 1111,497 1111,497 1111,497 1112,497 1112,497 1112,497 1112,496 1113,496 1113,496 1114,496 1114,496 1114,496 1114,496 1115,496 1115,496 1115,496 1115,495 1116,495 1116,495 1116,495 1116,494 1117,494 1117,495 1117,494 1118,494 1118,493 1118,493 1119,493 1119,494 1119,494 1119,493 1120,493 1120,493 1121,493 1121,493 1121,493 1121,492 1122,492 1122,492 1122,492 1123,492 1123,492 1123,492 1123,491 1124,491 1124,490 1124,490 1124,490 1125,490 1125,490 1125,490 1125,490 1126,490 1126,490 1127,490 1127,489 1127,489 1127,489 1128,489 1128,489 1128,489 1129,489 1129,488 1129,488 1129,488 1130,488 1130,487 1130,487 1130,487 1131,487 1131,487 1131,487 1131,486 1132,486 1132,487 1133,487 1133,486 1133,486 1133,486 1134,486 1134,485 1134,485 1135,485 1135,485 1135,485 1136,485 1136,483 1136,483 1136,484 1137,484 1137,484 1137,484 1137,484 1138,484 1138,484 1138,484 1138,483 1139,483 1139,484 1140,484 1140,483 1140,483 1141,483 1141,482 1141,482 1141,482 1142,482 1142,481 1142,481 1142,480 1143,480 1143,480 1143,480 1144,480 1144,480 1144,480 1144,480 1145,480 1145,479 1146,479 1146,478 1146,478 1146,478 1147,478 1147,479 1147,479 1147,478 1148,478 1148,478 1148,478 1149,478 1149,477 1149,477 1149,476 1150,476 1150,476 1150,476 1150,476 1151,476 1151,475 1152,475 1152,474 1152,474 1152,473 1153,473 1153,473 1153,473 1153,472 1154,472 1154,472 1154,472 1155,472 1155,472 1155,472 1155,472 1156,472 1156,472 1156,472 1156,472 1157,472 1157,472 1157,472 1157,472 1158,472 1158,471 1159,471 1159,471 1159,470 1160,470 1160,469 1160,469 1160,469 1161,469 1161,469 1161,469 1161,469 1162,469 1162,468 1162,468 1163,468 1163,468 1163,468 1164,468 1165,468 1165,467 1165,467 1165,467 1166,468 1166,468 1166,468 1166,467 1167,467 1167,467 1167,467 1167,467 1168,467 1168,467 1168,467 1168,467 1169,467 1169,467 1169,467 1169,467 1170,467 1171,467 1171,467 1171,467 1171,467 1172,467 1172,467 1172,467 1172,467 1173,467 1173,467 1173,467 1173,467 1174,467 1174,466 1174,466 1174,465 1175,465 1175,465 1175,465 1175,465 1176,465 1176,465 1176,465 1176,465 1177,465 1177,465 1178,465 1178,464 1178,464 1178,464 1179,464 1179,464 1179,464 1180,464 1180,465 1180,465 1180,465 1181,465 1181,465 1181,465 1181,465 1182,465 1182,464 1182,464 1182,464 1183,465 1184,465 1184,465 1184,465 1184,465 1185,465 1185,464 1185,464 1185,464 1186,464 1186,464 1186,464 1186,464 1187,464 1187,464 1187,464 1187,463 1188,463 1188,463 1188,463 1188,463 1189,463 1189,463 1190,463 "/>
<rect x="1088" y="329" width="97" height="91" opacity="1" fill="#FFFFFF" stroke="none"/>
<rect x="1088" y="329" width="97" height="91" opacity="1" fill="none" stroke="#000000"/>
<text x="1128" y="339" dy="0.76em" text-anchor="start" font-family="sans-serif" font-size="9.67741935483871" opacity="1" fill="#000000">
argparse
</text>
<text x="1128" y="354" dy="0.76em" text-anchor="start" font-family="sans-serif" font-size="9.67741935483871" opacity="1" fill="#000000">
clap
</text>
<text x="1128" y="369" dy="0.76em" text-anchor="start" font-family="sans-serif" font-size="9.67741935483871" opacity="1" fill="#000000">
docopt
</text>
<text x="1128" y="384" dy="0.76em" text-anchor="start" font-family="sans-serif" font-size="9.67741935483871" opacity="1" fill="#000000">
getopts
</text>
<text x="1128" y="399" dy="0.76em" text-anchor="start" font-family="sans-serif" font-size="9.67741935483871" opacity="1" fill="#000000">
structopt
</text>
<polyline fill="none" opacity="1" stroke="#E61919" stroke-width="2" points="1098,343 1118,343 "/>
<polyline fill="none" opacity="1" stroke="#BDE619" stroke-width="2" points="1098,359 1118,359 "/>
<polyline fill="none" opacity="1" stroke="#19E66B" stroke-width="2" points="1098,374 1118,374 "/>
<polyline fill="none" opacity="1" stroke="#196BE6" stroke-width="2" points="1098,389 1118,389 "/>
<polyline fill="none" opacity="1" stroke="#BD19E6" stroke-width="2" points="1098,404 1118,404 "/>
</svg>
