<svg width="1200" height="800" xmlns="http://www.w3.org/2000/svg">
<rect x="0" y="0" width="1199" height="799" opacity="1" fill="#FFFFFF" stroke="none"/>
<line opacity="0.1" stroke="#000000" stroke-width="1" x1="60" y1="731" x2="1190" y2="731"/>
<line opacity="0.1" stroke="#000000" stroke-width="1" x1="60" y1="723" x2="1190" y2="723"/>
<line opacity="0.1" stroke="#000000" stroke-width="1" x1="60" y1="715" x2="1190" y2="715"/>
<line opacity="0.1" stroke="#000000" stroke-width="1" x1="60" y1="707" x2="1190" y2="707"/>
<line opacity="0.1" stroke="#000000" stroke-width="1" x1="60" y1="699" x2="1190" y2="699"/>
<line opacity="0.1" stroke="#000000" stroke-width="1" x1="60" y1="690" x2="1190" y2="690"/>
<line opacity="0.1" stroke="#000000" stroke-width="1" x1="60" y1="682" x2="1190" y2="682"/>
<line opacity="0.1" stroke="#000000" stroke-width="1" x1="60" y1="674" x2="1190" y2="674"/>
<line opacity="0.1" stroke="#000000" stroke-width="1" x1="60" y1="666" x2="1190" y2="666"/>
<line opacity="0.1" stroke="#000000" stroke-width="1" x1="60" y1="658" x2="1190" y2="658"/>
<line opacity="0.1" stroke="#000000" stroke-width="1" x1="60" y1="650" x2="1190" y2="650"/>
<line opacity="0.1" stroke="#000000" stroke-width="1" x1="60" y1="641" x2="1190" y2="641"/>
<line opacity="0.1" stroke="#000000" stroke-width="1" x1="60" y1="633" x2="1190" y2="633"/>
<line opacity="0.1" stroke="#000000" stroke-width="1" x1="60" y1="625" x2="1190" y2="625"/>
<line opacity="0.1" stroke="#000000" stroke-width="1" x1="60" y1="617" x2="1190" y2="617"/>
<line opacity="0.1" stroke="#000000" stroke-width="1" x1="60" y1="609" x2="1190" y2="609"/>
<line opacity="0.1" stroke="#000000" stroke-width="1" x1="60" y1="601" x2="1190" y2="601"/>
<line opacity="0.1" stroke="#000000" stroke-width="1" x1="60" y1="592" x2="1190" y2="592"/>
<line opacity="0.1" stroke="#000000" stroke-width="1" x1="60" y1="584" x2="1190" y2="584"/>
<line opacity="0.1" stroke="#000000" stroke-width="1" x1="60" y1="576" x2="1190" y2="576"/>
<line opacity="0.1" stroke="#000000" stroke-width="1" x1="60" y1="568" x2="1190" y2="568"/>
<line opacity="0.1" stroke="#000000" stroke-width="1" x1="60" y1="560" x2="1190" y2="560"/>
<line opacity="0.1" stroke="#000000" stroke-width="1" x1="60" y1="552" x2="1190" y2="552"/>
<line opacity="0.1" stroke="#000000" stroke-width="1" x1="60" y1="543" x2="1190" y2="543"/>
<line opacity="0.1" stroke="#000000" stroke-width="1" x1="60" y1="535" x2="1190" y2="535"/>
<line opacity="0.1" stroke="#000000" stroke-width="1" x1="60" y1="527" x2="1190" y2="527"/>
<line opacity="0.1" stroke="#000000" stroke-width="1" x1="60" y1="519" x2="1190" y2="519"/>
<line opacity="0.1" stroke="#000000" stroke-width="1" x1="60" y1="511" x2="1190" y2="511"/>
<line opacity="0.1" stroke="#000000" stroke-width="1" x1="60" y1="503" x2="1190" y2="503"/>
<line opacity="0.1" stroke="#000000" stroke-width="1" x1="60" y1="494" x2="1190" y2="494"/>
<line opacity="0.1" stroke="#000000" stroke-width="1" x1="60" y1="486" x2="1190" y2="486"/>
<line opacity="0.1" stroke="#000000" stroke-width="1" x1="60" y1="478" x2="1190" y2="478"/>
<line opacity="0.1" stroke="#000000" stroke-width="1" x1="60" y1="470" x2="1190" y2="470"/>
<line opacity="0.1" stroke="#000000" stroke-width="1" x1="60" y1="462" x2="1190" y2="462"/>
<line opacity="0.1" stroke="#000000" stroke-width="1" x1="60" y1="454" x2="1190" y2="454"/>
<line opacity="0.1" stroke="#000000" stroke-width="1" x1="60" y1="445" x2="1190" y2="445"/>
<line opacity="0.1" stroke="#000000" stroke-width="1" x1="60" y1="437" x2="1190" y2="437"/>
<line opacity="0.1" stroke="#000000" stroke-width="1" x1="60" y1="429" x2="1190" y2="429"/>
<line opacity="0.1" stroke="#000000" stroke-width="1" x1="60" y1="421" x2="1190" y2="421"/>
<line opacity="0.1" stroke="#000000" stroke-width="1" x1="60" y1="413" x2="1190" y2="413"/>
<line opacity="0.1" stroke="#000000" stroke-width="1" x1="60" y1="405" x2="1190" y2="405"/>
<line opacity="0.1" stroke="#000000" stroke-width="1" x1="60" y1="396" x2="1190" y2="396"/>
<line opacity="0.1" stroke="#000000" stroke-width="1" x1="60" y1="388" x2="1190" y2="388"/>
<line opacity="0.1" stroke="#000000" stroke-width="1" x1="60" y1="380" x2="1190" y2="380"/>
<line opacity="0.1" stroke="#000000" stroke-width="1" x1="60" y1="372" x2="1190" y2="372"/>
<line opacity="0.1" stroke="#000000" stroke-width="1" x1="60" y1="364" x2="1190" y2="364"/>
<line opacity="0.1" stroke="#000000" stroke-width="1" x1="60" y1="356" x2="1190" y2="356"/>
<line opacity="0.1" stroke="#000000" stroke-width="1" x1="60" y1="347" x2="1190" y2="347"/>
<line opacity="0.1" stroke="#000000" stroke-width="1" x1="60" y1="339" x2="1190" y2="339"/>
<line opacity="0.1" stroke="#000000" stroke-width="1" x1="60" y1="331" x2="1190" y2="331"/>
<line opacity="0.1" stroke="#000000" stroke-width="1" x1="60" y1="323" x2="1190" y2="323"/>
<line opacity="0.1" stroke="#000000" stroke-width="1" x1="60" y1="315" x2="1190" y2="315"/>
<line opacity="0.1" stroke="#000000" stroke-width="1" x1="60" y1="307" x2="1190" y2="307"/>
<line opacity="0.1" stroke="#000000" stroke-width="1" x1="60" y1="298" x2="1190" y2="298"/>
<line opacity="0.1" stroke="#000000" stroke-width="1" x1="60" y1="290" x2="1190" y2="290"/>
<line opacity="0.1" stroke="#000000" stroke-width="1" x1="60" y1="282" x2="1190" y2="282"/>
<line opacity="0.1" stroke="#000000" stroke-width="1" x1="60" y1="274" x2="1190" y2="274"/>
<line opacity="0.1" stroke="#000000" stroke-width="1" x1="60" y1="266" x2="1190" y2="266"/>
<line opacity="0.1" stroke="#000000" stroke-width="1" x1="60" y1="258" x2="1190" y2="258"/>
<line opacity="0.1" stroke="#000000" stroke-width="1" x1="60" y1="249" x2="1190" y2="249"/>
<line opacity="0.1" stroke="#000000" stroke-width="1" x1="60" y1="241" x2="1190" y2="241"/>
<line opacity="0.1" stroke="#000000" stroke-width="1" x1="60" y1="233" x2="1190" y2="233"/>
<line opacity="0.1" stroke="#000000" stroke-width="1" x1="60" y1="225" x2="1190" y2="225"/>
<line opacity="0.1" stroke="#000000" stroke-width="1" x1="60" y1="217" x2="1190" y2="217"/>
<line opacity="0.1" stroke="#000000" stroke-width="1" x1="60" y1="209" x2="1190" y2="209"/>
<line opacity="0.1" stroke="#000000" stroke-width="1" x1="60" y1="200" x2="1190" y2="200"/>
<line opacity="0.1" stroke="#000000" stroke-width="1" x1="60" y1="192" x2="1190" y2="192"/>
<line opacity="0.1" stroke="#000000" stroke-width="1" x1="60" y1="184" x2="1190" y2="184"/>
<line opacity="0.1" stroke="#000000" stroke-width="1" x1="60" y1="176" x2="1190" y2="176"/>
<line opacity="0.1" stroke="#000000" stroke-width="1" x1="60" y1="168" x2="1190" y2="168"/>
<line opacity="0.1" stroke="#000000" stroke-width="1" x1="60" y1="160" x2="1190" y2="160"/>
<line opacity="0.1" stroke="#000000" stroke-width="1" x1="60" y1="151" x2="1190" y2="151"/>
<line opacity="0.1" stroke="#000000" stroke-width="1" x1="60" y1="143" x2="1190" y2="143"/>
<line opacity="0.1" stroke="#000000" stroke-width="1" x1="60" y1="135" x2="1190" y2="135"/>
<line opacity="0.1" stroke="#000000" stroke-width="1" x1="60" y1="127" x2="1190" y2="127"/>
<line opacity="0.1" stroke="#000000" stroke-width="1" x1="60" y1="119" x2="1190" y2="119"/>
<line opacity="0.1" stroke="#000000" stroke-width="1" x1="60" y1="111" x2="1190" y2="111"/>
<line opacity="0.1" stroke="#000000" stroke-width="1" x1="60" y1="102" x2="1190" y2="102"/>
<line opacity="0.1" stroke="#000000" stroke-width="1" x1="60" y1="94" x2="1190" y2="94"/>
<line opacity="0.1" stroke="#000000" stroke-width="1" x1="60" y1="86" x2="1190" y2="86"/>
<line opacity="0.1" stroke="#000000" stroke-width="1" x1="60" y1="78" x2="1190" y2="78"/>
<line opacity="0.1" stroke="#000000" stroke-width="1" x1="60" y1="70" x2="1190" y2="70"/>
<line opacity="0.1" stroke="#000000" stroke-width="1" x1="60" y1="62" x2="1190" y2="62"/>
<line opacity="0.1" stroke="#000000" stroke-width="1" x1="60" y1="53" x2="1190" y2="53"/>
<line opacity="0.1" stroke="#000000" stroke-width="1" x1="60" y1="45" x2="1190" y2="45"/>
<line opacity="0.1" stroke="#000000" stroke-width="1" x1="60" y1="37" x2="1190" y2="37"/>
<line opacity="0.1" stroke="#000000" stroke-width="1" x1="60" y1="29" x2="1190" y2="29"/>
<line opacity="0.1" stroke="#000000" stroke-width="1" x1="60" y1="21" x2="1190" y2="21"/>
<line opacity="0.1" stroke="#000000" stroke-width="1" x1="60" y1="13" x2="1190" y2="13"/>
<text x="10" y="375" dy="0.76em" text-anchor="middle" font-family="sans-serif" font-size="9.67741935483871" opacity="1" fill="#000000" transform="rotate(270, 10, 375)">
Fraction of dependent crates
</text>
<line opacity="0.2" stroke="#000000" stroke-width="1" x1="60" y1="658" x2="1190" y2="658"/>
<line opacity="0.2" stroke="#000000" stroke-width="1" x1="60" y1="576" x2="1190" y2="576"/>
<line opacity="0.2" stroke="#000000" stroke-width="1" x1="60" y1="494" x2="1190" y2="494"/>
<line opacity="0.2" stroke="#000000" stroke-width="1" x1="60" y1="413" x2="1190" y2="413"/>
<line opacity="0.2" stroke="#000000" stroke-width="1" x1="60" y1="331" x2="1190" y2="331"/>
<line opacity="0.2" stroke="#000000" stroke-width="1" x1="60" y1="249" x2="1190" y2="249"/>
<line opacity="0.2" stroke="#000000" stroke-width="1" x1="60" y1="168" x2="1190" y2="168"/>
<line opacity="0.2" stroke="#000000" stroke-width="1" x1="60" y1="86" x2="1190" y2="86"/>
<polyline fill="none" opacity="1" stroke="#000000" stroke-width="1" points="59,10 59,740 "/>
<text x="50" y="658" dy="0.5ex" text-anchor="end" font-family="sans-serif" font-size="9.67741935483871" opacity="1" fill="#000000">
0.01
</text>
<polyline fill="none" opacity="1" stroke="#000000" stroke-width="1" points="54,658 59,658 "/>
<text x="50" y="576" dy="0.5ex" text-anchor="end" font-family="sans-serif" font-size="9.67741935483871" opacity="1" fill="#000000">
0.02
</text>
<polyline fill="none" opacity="1" stroke="#000000" stroke-width="1" points="54,576 59,576 "/>
<text x="50" y="494" dy="0.5ex" text-anchor="end" font-family="sans-serif" font-size="9.67741935483871" opacity="1" fill="#000000">
0.03
</text>
<polyline fill="none" opacity="1" stroke="#000000" stroke-width="1" points="54,494 59,494 "/>
<text x="50" y="413" dy="0.5ex" text-anchor="end" font-family="sans-serif" font-size="9.67741935483871" opacity="1" fill="#000000">
0.04
</text>
<polyline fill="none" opacity="1" stroke="#000000" stroke-width="1" points="54,413 59,413 "/>
<text x="50" y="331" dy="0.5ex" text-anchor="end" font-family="sans-serif" font-size="9.67741935483871" opacity="1" fill="#000000">
0.05
</text>
<polyline fill="none" opacity="1" stroke="#000000" stroke-width="1" points="54,331 59,331 "/>
<text x="50" y="249" dy="0.5ex" text-anchor="end" font-family="sans-serif" font-size="9.67741935483871" opacity="1" fill="#000000">
0.06
</text>
<polyline fill="none" opacity="1" stroke="#000000" stroke-width="1" points="54,249 59,249 "/>
<text x="50" y="168" dy="0.5ex" text-anchor="end" font-family="sans-serif" font-size="9.67741935483871" opacity="1" fill="#000000">
0.07
</text>
<polyline fill="none" opacity="1" stroke="#000000" stroke-width="1" points="54,168 59,168 "/>
<text x="50" y="86" dy="0.5ex" text-anchor="end" font-family="sans-serif" font-size="9.67741935483871" opacity="1" fill="#000000">
0.08
</text>
<polyline fill="none" opacity="1" stroke="#000000" stroke-width="1" points="54,86 59,86 "/>
<polyline fill="none" opacity="1" stroke="#000000" stroke-width="1" points="60,740 1190,740 "/>
<text x="60" y="750" dy="0.76em" text-anchor="middle" font-family="sans-serif" font-size="9.67741935483871" opacity="1" fill="#000000">
2014-11-20Z
</text>
<polyline fill="none" opacity="1" stroke="#000000" stroke-width="1" points="60,740 60,745 "/>
<text x="174" y="750" dy="0.76em" text-anchor="middle" font-family="sans-serif" font-size="9.67741935483871" opacity="1" fill="#000000">
2015-06-11Z
</text>
<polyline fill="none" opacity="1" stroke="#000000" stroke-width="1" points="174,740 174,745 "/>
<text x="288" y="750" dy="0.76em" text-anchor="middle" font-family="sans-serif" font-size="9.67741935483871" opacity="1" fill="#000000">
2015-12-31Z
</text>
<polyline fill="none" opacity="1" stroke="#000000" stroke-width="1" points="288,740 288,745 "/>
<text x="402" y="750" dy="0.76em" text-anchor="middle" font-family="sans-serif" font-size="9.67741935483871" opacity="1" fill="#000000">
2016-07-21Z
</text>
<polyline fill="none" opacity="1" stroke="#000000" stroke-width="1" points="402,740 402,745 "/>
<text x="516" y="750" dy="0.76em" text-anchor="middle" font-family="sans-serif" font-size="9.67741935483871" opacity="1" fill="#000000">
2017-02-09Z
</text>
<polyline fill="none" opacity="1" stroke="#000000" stroke-width="1" points="516,740 516,745 "/>
<text x="630" y="750" dy="0.76em" text-anchor="middle" font-family="sans-serif" font-size="9.67741935483871" opacity="1" fill="#000000">
2017-08-31Z
</text>
<polyline fill="none" opacity="1" stroke="#000000" stroke-width="1" points="630,740 630,745 "/>
<text x="744" y="750" dy="0.76em" text-anchor="middle" font-family="sans-serif" font-size="9.67741935483871" opacity="1" fill="#000000">
2018-03-22Z
</text>
<polyline fill="none" opacity="1" stroke="#000000" stroke-width="1" points="744,740 744,745 "/>
<text x="858" y="750" dy="0.76em" text-anchor="middle" font-family="sans-serif" font-size="9.67741935483871" opacity="1" fill="#000000">
2018-10-11Z
</text>
<polyline fill="none" opacity="1" stroke="#000000" stroke-width="1" points="858,740 858,745 "/>
<text x="972" y="750" dy="0.76em" text-anchor="middle" font-family="sans-serif" font-size="9.67741935483871" opacity="1" fill="#000000">
2019-05-02Z
</text>
<polyline fill="none" opacity="1" stroke="#000000" stroke-width="1" points="972,740 972,745 "/>
<text x="1086" y="750" dy="0.76em" text-anchor="middle" font-family="sans-serif" font-size="9.67741935483871" opacity="1" fill="#000000">
2019-11-21Z
</text>
<polyline fill="none" opacity="1" stroke="#000000" stroke-width="1" points="1086,740 1086,745 "/>
<polyline fill="none" opacity="1" stroke="#E61919" stroke-width="2" points="174,736 179,729 180,726 219,725 248,724 280,724 289,722 290,718 298,716 302,718 304,717 305,713 307,713 309,715 310,713 311,711 312,709 322,712 322,712 337,712 338,712 343,711 350,710 354,708 354,705 368,705 370,705 375,704 394,704 394,704 396,705 396,705 397,705 398,706 399,706 400,706 400,707 401,707 402,707 403,707 404,707 405,707 449,712 449,711 450,708 451,707 453,706 478,709 479,709 480,709 481,708 482,708 483,708 484,708 485,708 485,708 487,707 489,704 490,704 491,704 491,704 492,704 493,703 494,703 495,703 497,703 498,704 499,704 499,704 500,704 500,704 502,704 503,704 505,704 506,704 507,704 507,705 508,705 509,705 509,705 510,705 511,705 512,705 513,705 514,705 516,705 516,704 517,705 517,705 519,705 520,705 521,705 523,705 523,705 525,705 525,705 527,704 528,703 528,703 529,703 531,703 531,703 532,703 534,704 534,703 535,703 536,703 537,703 539,703 540,703 540,703 541,703 541,703 542,703 543,704 544,704 545,704 546,704 548,704 548,704 549,704 550,704 552,704 553,704 554,704 557,704 558,704 558,704 561,704 563,705 564,705 566,705 567,705 568,705 569,705 569,704 572,705 573,705 575,706 576,706 577,706 578,706 579,706 580,706 580,706 582,707 583,707 584,707 585,707 585,708 586,708 586,707 587,707 587,707 588,707 589,706 590,707 591,707 593,707 595,707 599,707 600,707 600,708 601,708 601,707 602,707 603,707 603,707 605,707 606,707 607,707 607,707 608,707 608,707 609,707 609,707 610,706 610,706 612,706 613,705 613,705 616,705 617,705 617,705 618,705 618,705 619,705 620,705 621,705 626,706 628,705 631,706 632,706 632,706 633,705 636,705 636,706 640,706 641,706 641,706 651,707 653,707 654,707 657,707 659,706 664,706 666,706 668,707 669,706 670,706 671,706 673,706 676,707 677,707 680,707 680,707 681,707 683,707 684,707 685,707 685,706 686,707 687,707 687,707 688,707 689,707 690,707 690,707 691,707 692,707 692,707 693,707 694,707 694,707 695,707 695,707 696,707 698,707 699,708 699,708 700,708 700,708 701,708 702,708 704,708 704,708 705,708 705,708 706,708 707,708 708,708 708,708 709,708 710,708 711,708 713,708 714,708 714,708 715,708 716,708 717,708 718,709 718,709 719,709 720,709 721,709 723,710 724,710 725,710 727,710 727,709 728,709 731,710 731,710 735,710 735,710 736,710 736,710 737,710 737,710 738,710 739,710 741,710 741,710 742,710 742,710 745,710 746,710 746,710 747,710 748,710 749,710 749,710 750,711 753,711 753,710 754,710 754,710 755,710 755,710 756,710 758,710 758,710 759,710 759,710 760,710 760,710 761,710 762,710 762,710 763,710 763,710 764,710 764,710 765,710 765,710 766,711 767,711 768,711 768,711 769,711 769,711 772,711 772,711 773,711 773,711 776,711 777,711 778,711 778,711 779,711 781,711 782,711 782,712 783,712 783,711 784,711 785,711 785,711 786,711 786,711 787,711 787,711 788,711 788,711 789,711 790,711 792,711 793,712 794,712 794,712 795,712 796,712 796,712 797,712 797,712 798,712 799,712 799,712 800,712 800,712 801,712 801,712 802,712 803,712 804,712 804,712 805,712 805,711 806,711 806,711 807,711 808,711 808,711 809,711 810,711 811,712 812,712 813,712 814,712 814,712 815,712 815,712 817,712 817,712 818,712 819,712 820,712 821,712 821,712 822,712 822,712 823,712 823,712 824,712 824,712 826,713 826,713 827,713 827,713 828,713 828,713 829,713 829,713 830,713 832,713 832,713 833,713 834,713 835,713 835,713 836,713 836,713 837,713 838,714 838,714 839,714 840,714 841,714 841,714 842,714 843,714 844,714 844,714 845,714 846,714 846,714 847,714 847,714 848,715 849,715 849,715 849,715 850,715 850,715 851,715 851,715 852,715 853,715 853,715 854,715 854,715 855,715 856,715 856,715 857,715 858,715 858,715 859,715 859,715 860,715 860,715 862,715 862,715 863,715 864,715 864,715 865,715 866,715 867,715 868,715 869,715 869,715 870,715 870,715 871,715 872,715 872,715 873,715 873,715 874,715 874,715 876,715 876,715 877,715 877,715 879,715 879,715 880,715 881,715 882,715 882,715 883,715 884,715 885,715 885,715 886,715 886,715 887,715 888,715 888,715 890,715 890,715 891,715 891,715 892,716 893,716 894,716 894,716 896,715 896,715 897,715 898,715 899,715 900,715 900,715 901,715 902,715 903,715 903,715 904,715 904,715 905,715 905,716 906,716 907,716 908,717 908,717 909,717 909,716 910,716 910,716 911,716 911,716 913,716 913,716 914,716 915,716 917,716 917,716 918,716 918,716 919,716 920,717 920,717 921,717 922,716 922,716 923,716 923,716 924,716 925,716 926,716 927,716 927,716 928,716 929,716 930,716 931,716 931,716 932,716 932,716 933,716 933,716 934,716 935,716 935,716 936,716 936,716 937,716 938,716 938,716 939,716 940,716 940,716 941,716 941,716 942,716 942,716 943,716 944,716 944,716 945,716 945,716 946,716 946,716 947,716 948,717 949,717 949,717 950,717 950,717 951,717 952,717 952,717 953,717 954,717 954,717 955,717 955,717 956,717 957,717 958,717 958,717 959,717 959,717 961,717 961,717 964,717 965,717 965,717 967,717 967,717 968,717 968,718 969,718 969,718 970,718 970,718 971,718 972,718 972,717 973,717 973,718 974,718 975,717 976,717 977,717 978,718 979,718 979,718 980,718 981,718 982,718 982,718 984,718 985,718 985,718 986,718 986,718 987,718 987,718 988,718 989,717 990,717 991,717 991,717 992,718 992,718 993,718 995,718 996,718 996,718 997,718 997,718 999,718 999,718 1000,718 1000,718 1001,718 1002,718 1002,718 1003,718 1004,718 1004,718 1005,718 1007,718 1008,718 1008,718 1009,718 1009,718 1010,718 1010,718 1011,718 1011,718 1013,718 1013,718 1014,718 1014,718 1015,719 1016,719 1017,719 1017,719 1019,719 1019,719 1020,719 1020,719 1021,719 1022,719 1022,719 1023,719 1023,719 1024,719 1024,719 1025,719 1026,719 1026,719 1027,719 1027,719 1028,719 1028,719 1029,719 1029,719 1031,719 1032,719 1033,719 1034,719 1034,719 1035,719 1036,719 1036,719 1038,720 1038,720 1039,720 1040,720 1040,720 1041,720 1041,720 1042,720 1042,720 1043,720 1043,720 1044,720 1045,720 1046,720 1049,720 1049,720 1050,720 1050,720 1051,720 1052,720 1053,720 1054,721 1055,721 1055,721 1056,721 1056,721 1057,721 1058,721 1059,721 1059,721 1060,721 1062,721 1063,721 1064,721 1065,721 1066,721 1066,721 1067,721 1068,721 1068,721 1070,721 1070,721 1071,721 1072,721 1072,721 1073,721 1073,721 1074,721 1074,721 1075,721 1075,721 1076,721 1077,721 1077,721 1078,721 1078,721 1079,721 1079,721 1080,721 1081,721 1081,721 1082,722 1082,722 1083,722 1083,722 1084,721 1086,721 1086,721 1087,721 1087,721 1088,721 1092,722 1093,722 1093,722 1094,722 1095,722 1096,722 1096,722 1097,721 1097,721 1099,721 1099,721 1101,721 1102,721 1102,721 1103,721 1105,721 1105,721 1106,721 1107,721 1108,721 1108,721 1109,721 1109,721 1110,721 1111,721 1111,721 1112,721 1113,721 1113,722 1114,722 1114,722 1115,722 1115,722 1116,722 1118,722 1118,722 1119,722 1119,722 1120,722 1120,722 1121,722 1122,722 1122,722 1123,722 1124,722 1124,722 1125,722 1125,722 1126,722 1127,722 1127,722 1128,722 1129,722 1129,722 1130,722 1132,722 1132,722 1133,722 1133,722 1134,722 1134,722 1137,722 1137,722 1138,722 1140,723 1140,723 1141,723 1141,723 1142,723 1142,723 1143,723 1143,723 1144,723 1145,723 1145,723 1145,723 1146,723 1147,723 1147,723 1147,723 1147,723 1149,723 1150,723 1150,723 1150,723 1151,723 1151,723 1151,723 1152,723 1152,723 1152,723 1153,723 1153,723 1154,723 1154,723 1154,723 1155,723 1155,723 1155,723 1156,723 1156,723 1156,723 1156,723 1157,723 1157,723 1158,723 1158,723 1159,723 1159,723 1159,723 1160,723 1160,723 1160,723 1161,723 1161,723 1161,723 1161,723 1162,723 1162,723 1163,723 1163,723 1163,723 1164,723 1164,723 1164,723 1165,723 1166,724 1166,724 1167,724 1168,724 1168,724 1168,724 1168,724 1169,724 1169,724 1170,724 1170,724 1171,724 1171,724 1172,724 1172,724 1173,724 1173,724 1173,724 1174,724 1174,724 1175,724 1175,724 1175,724 1175,724 1176,724 1177,724 1177,724 1177,724 1178,724 1178,724 1178,724 1179,724 1179,724 1179,724 1180,724 1180,724 1181,724 1182,724 1182,724 1182,724 1183,724 1183,724 1184,724 1184,724 1184,724 1185,724 1185,724 1186,724 1186,724 1186,724 1187,724 1187,724 1188,724 1188,724 1188,724 1189,724 1189,724 1190,724 "/>
<polyline fill="none" opacity="1" stroke="#BDE619" stroke-width="2" points="133,735 160,732 182,729 185,726 198,724 205,718 206,722 209,719 215,717 217,714 220,712 226,709 231,707 235,705 240,703 245,701 248,699 248,697 249,694 250,692 251,689 252,687 255,685 256,678 258,676 261,672 262,670 264,665 271,665 274,663 276,661 276,659 277,657 279,655 281,651 286,651 286,649 288,647 289,645 291,644 292,642 293,640 294,638 294,636 298,635 300,634 301,630 302,629 303,627 306,624 307,622 311,622 313,619 316,619 317,615 318,614 318,610 319,608 320,607 321,608 322,606 323,605 324,603 325,602 326,601 327,601 329,600 330,598 331,599 332,597 332,596 334,593 337,593 340,593 342,592 343,594 344,593 346,592 348,591 348,590 349,591 349,590 350,588 350,587 351,587 352,586 353,583 354,582 354,582 357,583 358,583 359,583 359,584 361,584 361,581 362,581 362,578 363,579 364,578 364,578 365,578 366,578 367,577 370,577 370,578 371,578 371,578 372,579 372,579 375,578 376,577 376,578 377,578 377,576 378,577 379,577 379,576 380,576 380,576 381,576 381,577 382,574 382,574 383,574 384,575 384,575 385,574 385,573 386,571 387,569 387,568 388,568 389,566 389,565 390,566 391,563 393,564 393,564 394,561 394,559 395,559 395,559 396,557 397,555 398,553 399,553 401,555 402,550 402,549 403,547 403,545 405,543 406,543 407,543 407,542 408,540 409,539 409,539 410,540 411,538 411,537 412,537 412,535 413,534 413,533 414,531 415,532 416,531 417,530 417,530 418,531 418,530 419,529 420,528 420,528 421,528 422,527 422,527 423,524 424,525 425,524 425,521 426,520 426,521 427,520 427,518 428,518 428,518 430,517 431,385 431,383 432,384 433,382 434,380 434,380 435,379 436,380 436,379 437,380 437,376 438,375 439,375 439,373 440,372 440,370 441,368 441,365 442,366 443,365 443,365 444,364 444,364 445,366 445,364 446,365 446,364 447,363 448,361 448,359 449,357 449,357 450,355 450,350 451,350 452,349 453,347 453,346 454,327 455,327 455,326 457,326 457,326 458,326 458,326 459,327 459,328 460,328 462,328 462,328 463,327 463,328 464,328 464,327 465,328 466,328 466,325 467,324 467,322 468,324 469,323 469,324 470,323 471,321 471,320 472,320 472,319 473,319 473,319 474,319 475,318 476,319 476,318 477,317 478,316 478,314 479,311 480,312 480,312 481,313 481,312 482,312 482,312 483,313 484,312 485,307 485,308 486,308 486,308 487,308 487,307 488,308 489,308 489,309 490,309 490,307 491,308 491,308 492,308 493,309 493,308 494,308 494,307 495,307 495,307 496,307 496,306 497,307 498,308 498,309 499,307 500,307 500,305 501,306 502,307 502,305 503,305 503,301 504,302 504,301 505,302 505,301 506,299 507,299 507,300 508,297 508,295 509,293 509,292 510,290 510,289 511,288 512,288 512,286 513,286 513,285 514,284 514,284 515,282 516,283 516,281 517,278 517,278 518,277 518,275 519,274 519,274 520,273 521,271 521,270 522,271 522,270 523,270 523,271 524,271 525,271 525,270 526,269 526,268 527,269 527,268 528,268 528,266 529,266 530,266 530,262 531,262 531,263 532,263 532,263 533,264 534,262 534,263 535,263 535,262 536,261 536,261 537,261 537,259 538,255 539,253 539,252 540,251 541,253 541,252 542,252 543,251 543,250 544,250 544,248 545,246 545,246 546,244 546,243 547,243 548,241 548,241 549,240 549,239 550,240 550,240 551,239 551,237 552,238 553,236 553,235 554,235 554,233 555,233 555,233 556,233 557,232 557,232 558,229 558,230 559,230 559,230 560,231 560,231 561,230 562,230 562,231 563,231 563,227 564,228 564,228 565,226 566,222 566,222 567,222 567,221 568,223 568,224 569,222 569,224 570,223 571,224 571,223 572,225 572,224 573,223 573,223 574,224 575,223 575,220 576,220 576,220 577,219 577,220 578,218 578,219 579,217 580,217 580,217 581,216 581,216 582,217 582,217 583,217 584,216 584,214 585,213 585,211 586,210 586,209 587,208 587,207 588,207 589,208 589,206 590,207 590,208 591,208 591,207 592,208 592,209 593,209 594,210 594,210 595,209 595,208 596,208 596,209 597,208 598,208 598,208 599,206 599,205 600,205 600,204 601,205 601,205 602,205 603,204 603,204 604,201 604,199 605,198 605,198 606,198 607,197 607,196 608,195 608,196 609,197 609,196 610,196 610,196 611,195 612,195 612,195 613,195 613,194 614,194 614,195 615,195 616,195 616,194 617,194 617,193 618,192 618,191 619,192 619,191 620,191 621,191 621,191 622,190 622,190 623,191 623,190 624,191 625,190 625,191 626,191 626,189 627,189 627,188 628,188 628,187 629,188 630,189 630,190 631,190 631,190 632,190 632,187 633,188 633,188 634,189 635,188 635,188 636,188 636,187 637,187 637,187 638,185 639,185 639,185 640,183 640,184 641,184 641,185 642,186 642,185 643,185 644,184 644,184 645,174 645,172 646,170 646,171 647,171 648,170 648,171 649,171 649,169 650,168 650,168 651,167 651,167 652,166 653,165 653,165 654,165 654,163 655,163 655,164 656,165 657,166 657,164 658,165 658,165 659,165 659,163 660,163 660,163 661,162 662,161 662,161 663,161 663,158 664,158 664,157 665,156 665,155 666,156 667,156 667,157 668,158 668,158 669,158 669,159 670,158 671,157 671,158 672,158 672,157 673,158 673,158 674,157 674,157 675,157 676,157 676,157 677,158 677,155 678,156 678,155 679,156 680,157 680,157 681,155 681,155 682,156 682,156 683,156 683,156 684,156 685,156 685,156 686,155 686,154 687,155 687,152 688,150 689,150 689,150 690,150 690,148 691,147 691,148 692,146 692,147 693,148 694,148 694,145 695,145 695,145 696,145 696,146 697,146 698,147 698,146 699,146 699,147 700,147 700,146 701,146 701,146 702,146 703,147 703,148 704,148 704,148 705,149 705,147 706,149 706,148 707,148 708,146 708,147 709,147 709,147 710,146 710,146 711,146 712,145 712,145 713,144 713,142 714,142 714,144 715,145 715,144 716,134 717,134 717,132 718,132 718,132 719,131 719,130 720,130 721,130 721,129 722,128 722,127 723,125 723,124 724,123 724,122 725,122 726,121 726,121 727,121 727,122 728,123 728,122 729,123 730,122 730,122 731,122 731,119 732,119 732,119 733,118 733,117 734,118 735,118 735,118 736,116 736,116 737,117 737,116 738,114 739,113 739,115 740,115 740,115 741,116 741,116 742,116 742,117 743,115 744,115 744,116 745,117 745,116 746,116 746,116 747,116 747,114 748,114 749,114 749,114 750,112 750,111 751,112 751,113 752,113 753,113 753,113 754,112 754,113 755,113 755,113 756,112 756,112 757,113 758,114 758,114 759,113 759,113 760,113 760,113 761,113 762,112 762,112 763,113 763,113 764,114 764,114 765,115 765,116 766,116 767,117 767,117 768,117 768,117 769,117 769,117 770,116 771,116 771,115 772,114 772,114 773,115 773,115 774,115 774,115 775,114 776,114 776,114 777,115 777,113 778,113 778,113 779,113 780,113 780,114 781,113 781,113 782,112 782,111 783,112 783,111 784,111 785,111 785,110 786,110 786,110 787,109 787,110 788,110 788,110 789,109 790,109 790,108 791,108 791,107 792,107 792,107 793,104 794,104 794,105 795,105 795,105 796,105 796,104 797,103 797,103 798,102 799,103 799,103 800,103 800,101 801,100 801,99 802,100 803,99 803,100 804,100 804,98 805,97 805,97 806,97 806,96 807,96 808,97 808,97 809,96 809,97 810,97 810,97 811,95 812,95 812,95 813,96 813,95 814,95 814,95 815,95 815,95 816,96 817,97 817,98 818,98 818,98 819,99 819,98 820,99 821,99 821,102 822,102 822,102 823,102 823,101 824,101 824,102 825,102 826,102 826,103 827,103 827,104 828,105 828,106 829,106 829,105 830,105 831,105 831,109 832,110 832,110 833,110 833,110 834,113 835,113 835,114 836,114 836,115 837,114 837,113 838,112 838,112 839,112 840,112 840,110 841,110 841,109 842,110 842,111 843,111 844,111 844,111 845,110 845,109 846,108 846,109 847,109 847,107 848,109 849,108 849,108 849,108 850,106 850,106 851,106 851,107 852,106 853,105 853,106 854,106 854,105 855,105 855,105 856,106 856,105 857,105 858,106 858,107 859,107 859,95 860,101 860,95 861,95 862,94 862,95 863,95 863,97 864,95 864,93 865,94 865,94 866,94 867,95 867,94 868,94 868,94 869,93 869,93 870,93 870,94 871,94 872,94 872,94 873,94 873,94 874,92 874,93 875,93 876,92 876,92 877,93 877,92 878,92 878,91 879,91 879,91 880,91 881,91 881,91 882,91 882,92 883,91 883,91 884,92 885,91 885,91 886,91 886,91 887,92 887,91 888,92 888,91 889,91 890,91 890,90 891,90 891,91 892,92 892,91 893,92 894,93 894,92 895,93 895,93 896,93 896,93 897,93 897,94 898,93 899,93 899,93 900,93 900,93 901,93 901,93 902,95 903,94 903,93 904,92 904,91 905,89 905,89 906,90 906,89 907,88 908,111 908,112 909,112 909,87 910,87 910,87 911,87 911,88 912,88 913,87 913,87 914,86 914,87 915,87 915,88 916,86 917,85 917,86 918,86 918,86 919,86 919,86 920,86 920,86 921,86 922,87 922,87 923,87 923,87 924,87 924,87 925,87 926,88 926,88 927,87 927,86 928,87 928,87 929,88 929,87 930,87 931,87 931,88 932,89 932,89 933,89 933,89 934,90 935,90 935,89 936,90 936,90 937,89 937,89 938,89 938,90 939,89 940,88 940,89 941,89 941,88 942,88 942,89 943,89 944,88 944,89 945,89 945,90 946,90 946,90 947,90 947,90 948,90 949,90 949,89 950,90 950,89 951,89 951,88 952,87 952,88 953,88 954,88 954,88 955,88 955,87 956,88 956,88 957,87 958,87 958,87 959,87 959,88 960,88 960,88 961,88 961,88 962,88 963,89 963,89 964,88 964,89 965,89 965,88 966,88 967,87 967,87 968,87 968,85 969,85 969,85 970,85 970,85 971,85 972,84 972,84 973,86 973,86 974,87 974,87 975,88 976,88 976,89 977,89 977,89 978,90 978,91 979,91 979,91 980,90 981,88 981,89 982,89 982,88 983,89 983,88 984,88 985,88 985,88 986,88 986,87 987,88 987,87 988,87 988,87 989,86 990,86 990,86 991,86 991,86 992,86 992,86 993,86 993,86 994,85 995,86 995,85 996,85 996,85 997,85 997,85 998,85 999,84 999,85 1000,85 1000,86 1001,86 1001,84 1002,84 1002,83 1003,83 1004,83 1004,83 1005,83 1005,85 1006,85 1006,85 1007,86 1008,79 1008,79 1009,80 1009,79 1010,79 1010,78 1011,78 1011,78 1012,78 1013,77 1013,77 1014,76 1014,76 1015,77 1015,76 1016,75 1017,76 1017,76 1018,75 1018,76 1019,76 1019,77 1020,77 1020,77 1021,76 1022,78 1022,78 1023,78 1023,79 1024,78 1024,78 1025,78 1026,79 1026,79 1027,79 1027,79 1028,79 1028,79 1029,79 1029,78 1030,77 1031,77 1031,78 1032,77 1032,77 1033,78 1033,79 1034,78 1034,78 1035,78 1036,78 1036,78 1037,78 1037,79 1038,79 1038,79 1039,80 1040,80 1040,80 1041,81 1041,81 1042,82 1042,82 1043,81 1043,81 1044,81 1045,81 1045,81 1046,81 1046,81 1047,81 1047,81 1048,81 1049,81 1049,81 1050,80 1050,80 1051,80 1051,82 1052,82 1052,82 1053,83 1054,83 1054,83 1055,84 1055,84 1056,84 1056,84 1057,85 1058,84 1058,84 1059,84 1059,84 1060,84 1060,85 1061,86 1061,85 1062,84 1063,84 1063,84 1064,85 1064,85 1065,85 1065,86 1066,85 1066,85 1067,86 1067,87 1068,87 1068,86 1069,87 1069,87 1070,88 1070,88 1071,88 1072,88 1072,88 1073,89 1073,88 1074,88 1074,88 1075,88 1075,89 1076,88 1077,88 1077,88 1078,89 1078,88 1079,88 1079,88 1080,87 1081,87 1081,87 1082,88 1082,88 1083,86 1083,86 1084,87 1084,87 1085,87 1086,87 1086,87 1087,87 1087,88 1088,88 1088,88 1089,87 1090,87 1090,87 1091,87 1091,87 1092,88 1092,87 1093,88 1093,88 1094,89 1095,89 1095,89 1096,89 1096,90 1097,90 1097,90 1098,90 1099,90 1099,91 1100,91 1100,92 1101,92 1101,92 1102,93 1102,94 1103,93 1104,93 1104,91 1105,91 1105,91 1106,91 1106,92 1107,91 1108,91 1108,92 1109,93 1109,93 1110,93 1110,93 1111,93 1111,93 1112,94 1113,94 1113,93 1114,94 1114,94 1115,93 1115,92 1116,93 1116,93 1117,94 1118,94 1118,95 1119,95 1119,95 1120,94 1120,95 1121,95 1122,95 1122,95 1123,95 1123,94 1124,94 1124,94 1125,93 1125,94 1126,94 1127,94 1127,94 1128,95 1128,95 1129,95 1129,95 1130,94 1131,94 1131,95 1132,95 1132,95 1133,95 1133,94 1134,94 1134,94 1135,94 1136,94 1136,94 1137,94 1137,94 1138,95 1138,95 1139,94 1140,94 1140,94 1141,95 1141,95 1142,96 1142,96 1143,96 1143,96 1144,96 1145,96 1145,96 1145,97 1146,97 1146,97 1146,96 1147,96 1147,95 1147,95 1147,96 1148,96 1149,96 1149,96 1149,96 1149,96 1150,96 1150,96 1150,96 1150,96 1151,96 1151,95 1151,95 1151,95 1152,95 1152,95 1152,95 1152,94 1153,94 1153,94 1154,94 1154,93 1154,93 1155,93 1155,94 1155,94 1156,94 1156,94 1156,94 1156,95 1157,95 1157,95 1157,95 1157,95 1158,95 1158,95 1159,95 1159,96 1159,96 1160,96 1160,95 1160,95 1160,95 1161,96 1161,96 1161,96 1161,96 1162,96 1162,96 1163,96 1163,96 1163,96 1163,96 1164,96 1164,96 1164,96 1164,95 1165,95 1165,95 1165,96 1166,96 1166,96 1166,96 1166,96 1167,96 1167,97 1168,97 1168,97 1168,97 1168,97 1169,97 1169,97 1169,97 1169,97 1170,97 1170,97 1170,97 1170,97 1171,97 1171,98 1172,98 1172,98 1173,98 1173,98 1173,98 1173,99 1174,99 1174,98 1174,98 1174,98 1175,98 1175,98 1175,98 1175,98 1176,98 1176,98 1177,98 1177,98 1177,98 1177,98 1178,98 1178,98 1178,97 1179,97 1179,97 1179,97 1179,97 1180,97 1180,97 1181,97 1181,97 1181,97 1182,97 1182,98 1182,98 1182,98 1183,98 1183,97 1183,97 1183,97 1184,97 1184,98 1184,98 1184,97 1185,97 1185,98 1186,98 1186,98 1186,98 1186,98 1187,98 1187,98 1187,98 1187,98 1188,98 1188,98 1188,98 1188,98 1189,98 1189,98 1190,98 "/>
<polyline fill="none" opacity="1" stroke="#19E66B" stroke-width="2" points="60,647 60,659 61,671 70,688 76,656 76,643 83,639 86,624 90,612 95,612 97,606 98,644 98,638 102,641 106,631 112,631 113,626 121,627 124,624 125,630 129,633 141,633 145,627 147,624 147,625 149,626 150,623 153,625 154,626 155,627 156,627 158,625 159,630 160,631 161,631 161,627 162,624 162,625 163,625 164,619 165,609 165,609 166,610 166,607 167,607 167,608 168,608 168,609 169,609 170,610 170,606 171,607 171,608 172,608 173,609 174,609 175,610 175,607 176,608 176,608 177,609 177,605 178,602 179,603 180,604 180,604 181,598 181,598 182,599 183,599 184,593 184,590 185,591 186,591 186,589 187,589 188,590 188,590 189,591 189,591 190,591 190,591 191,592 192,590 194,591 195,591 195,591 197,596 198,593 198,594 199,591 199,589 200,586 200,586 202,587 203,588 204,589 204,589 205,587 206,587 206,588 207,589 208,586 209,584 211,585 211,586 212,586 212,584 213,584 213,584 215,585 215,586 216,586 216,586 217,587 217,587 218,588 219,583 220,580 220,581 221,581 222,581 222,581 223,582 223,582 224,583 225,580 225,581 226,581 227,581 229,571 230,572 230,570 231,568 232,568 232,568 233,569 234,569 234,567 235,567 235,567 236,568 236,568 237,568 238,568 238,569 240,569 240,570 241,570 241,568 242,568 243,569 243,569 244,569 244,570 245,570 245,570 247,569 247,570 248,570 248,568 249,569 250,569 250,569 251,569 252,570 252,570 253,571 254,571 254,571 255,572 256,572 256,572 257,568 258,568 259,569 260,569 261,569 261,567 262,568 262,568 263,569 264,569 265,568 266,563 266,563 267,564 267,555 268,555 268,556 269,551 270,552 270,553 271,553 271,553 272,554 273,554 273,554 275,555 275,555 276,553 276,551 277,549 277,550 278,550 279,548 279,549 280,549 280,550 281,548 281,548 282,549 283,549 284,550 284,550 285,551 285,549 286,550 286,550 287,550 288,550 288,551 289,551 289,551 290,550 290,550 291,550 291,550 292,551 293,549 293,549 294,550 294,550 295,551 295,551 296,551 297,551 297,552 298,552 298,553 299,553 299,553 300,554 300,550 301,551 302,551 302,551 303,548 303,546 304,546 304,546 305,547 305,545 306,544 307,546 307,547 308,547 308,546 309,544 309,543 310,541 311,542 311,538 312,538 312,539 313,539 313,539 314,540 315,540 316,539 316,539 317,540 317,538 318,539 319,538 320,539 320,539 321,540 321,540 322,540 322,541 323,538 323,538 324,538 325,539 325,537 326,537 326,538 327,538 327,536 328,537 329,536 329,536 330,536 330,537 331,537 331,535 332,534 332,534 333,535 334,535 334,536 335,536 335,535 336,536 336,534 337,535 338,535 338,536 339,537 339,537 340,537 340,537 341,538 341,538 342,538 343,539 343,539 344,539 344,540 345,540 345,539 346,539 346,539 347,539 348,536 348,537 349,535 350,536 351,537 352,535 352,536 353,535 353,533 354,534 354,532 355,533 355,534 356,534 357,535 357,535 358,535 358,536 359,536 359,535 360,535 361,535 361,536 362,534 362,533 363,533 363,534 364,534 364,533 365,533 366,533 366,534 367,533 367,533 368,533 368,534 369,534 370,532 371,532 372,533 372,533 373,534 373,532 374,533 375,533 375,533 376,532 376,533 377,533 378,533 379,534 379,534 380,533 380,533 381,534 381,534 382,534 382,535 383,535 384,536 384,536 385,536 385,535 386,536 386,536 387,536 387,537 388,537 389,537 389,539 390,538 390,537 391,539 391,539 392,540 393,540 393,538 394,539 394,539 395,539 395,538 396,538 396,539 397,539 398,539 398,539 399,540 399,539 400,539 400,538 401,538 402,538 402,539 403,538 403,538 404,538 404,539 405,539 405,539 406,540 407,540 407,541 408,541 408,540 409,540 409,539 410,537 411,537 411,537 412,537 412,538 413,538 413,538 414,539 414,539 415,539 416,539 416,540 417,540 417,540 418,539 418,540 419,539 420,539 420,540 421,540 421,539 422,538 422,537 423,538 423,538 424,539 425,539 425,538 426,537 426,537 427,537 427,538 428,538 428,538 429,539 430,539 430,540 431,544 431,544 432,545 432,544 433,544 434,544 434,545 435,545 435,544 436,544 436,545 437,544 437,544 438,544 439,545 439,545 440,545 440,546 441,546 442,546 443,547 443,547 444,547 444,545 445,546 445,547 446,547 446,547 447,547 448,549 448,549 449,548 449,549 450,549 450,550 451,551 452,551 452,551 453,550 453,550 454,550 454,551 455,551 455,550 456,550 457,551 457,551 458,551 458,551 459,549 459,549 460,550 461,549 461,549 462,549 462,549 463,550 463,550 464,550 464,551 465,551 466,551 466,552 467,552 467,551 468,551 468,551 469,552 469,552 470,551 471,553 471,553 472,553 472,553 473,552 473,553 474,553 475,553 475,552 476,552 476,552 477,551 477,551 478,551 478,552 479,552 480,551 480,551 481,551 481,552 482,552 482,552 483,551 484,551 484,550 485,551 485,551 486,551 486,552 487,552 488,552 489,552 489,553 490,553 490,553 491,554 491,554 492,552 493,553 493,553 494,553 494,554 495,554 495,552 496,552 496,551 497,551 498,550 498,548 499,549 499,549 500,549 500,549 501,550 502,549 502,550 503,550 503,550 504,549 504,550 505,550 505,550 506,552 507,552 507,552 508,553 508,553 509,554 509,554 510,554 510,554 511,554 512,554 512,555 513,555 513,555 514,556 514,556 515,556 516,556 516,558 517,558 517,557 518,557 518,557 519,557 519,558 520,558 521,558 521,558 522,559 522,558 523,558 523,559 524,559 525,559 525,560 526,560 526,560 527,560 527,560 528,560 528,561 529,562 530,563 530,563 531,564 531,565 532,565 532,563 533,565 534,565 534,565 535,565 535,566 536,566 536,566 537,566 537,566 538,566 539,567 539,568 540,568 540,568 541,569 541,569 542,569 543,570 543,570 544,571 544,571 545,571 545,571 546,571 546,571 547,570 548,570 548,570 549,570 549,570 550,571 550,571 551,571 551,571 552,572 553,572 553,572 554,572 554,572 555,572 555,572 556,573 557,572 557,572 558,573 558,573 559,573 559,573 560,574 560,574 561,574 562,574 562,574 563,575 563,575 564,576 564,576 565,574 566,575 566,576 567,576 567,576 568,575 568,575 569,574 569,575 570,574 571,574 571,573 572,575 572,575 573,575 573,575 574,576 575,577 575,577 576,576 576,576 577,576 577,576 578,577 578,577 579,578 580,579 580,578 581,578 581,579 582,579 582,579 583,580 584,580 584,579 585,580 585,580 586,580 586,580 587,580 587,580 588,580 589,581 589,580 590,581 590,581 591,581 591,581 592,582 592,581 593,581 594,582 594,582 595,582 595,582 596,582 596,582 597,582 598,582 598,583 599,583 599,583 600,583 600,583 601,583 601,584 602,584 603,584 603,584 604,585 604,585 605,585 605,586 606,586 607,586 607,586 608,586 608,587 609,587 609,587 610,587 610,587 611,587 612,587 612,587 613,588 613,588 614,588 614,588 615,589 616,589 616,589 617,589 617,589 618,589 618,590 619,590 619,590 620,590 621,590 621,590 622,590 622,591 623,591 623,591 624,591 625,591 625,591 626,592 626,592 627,592 627,592 628,592 628,593 629,593 630,593 630,593 631,593 631,593 632,593 632,593 633,594 633,594 634,594 635,593 635,594 636,594 636,593 637,594 637,595 638,594 639,594 639,594 640,594 640,595 641,595 641,595 642,595 642,595 643,596 644,596 644,596 645,597 645,597 646,597 646,597 647,597 648,598 648,598 649,598 649,597 650,598 650,598 651,598 651,598 652,598 653,599 653,599 654,600 654,600 655,600 655,601 656,601 657,601 657,601 658,600 658,600 659,600 659,600 660,600 660,601 661,601 662,601 662,601 663,602 663,602 664,602 664,602 665,602 665,603 666,603 667,603 667,603 668,604 668,604 669,604 669,604 670,604 671,605 671,605 672,605 672,604 673,605 673,605 674,605 675,605 676,605 676,606 677,605 677,605 678,605 678,605 679,606 680,606 680,606 681,607 681,607 682,607 682,607 683,606 683,606 684,606 685,606 685,607 686,607 686,607 687,607 687,608 688,608 689,608 689,608 690,608 690,608 691,608 691,608 692,608 692,608 693,608 694,608 694,608 695,608 695,609 696,609 696,608 697,608 698,609 698,609 699,609 699,609 700,609 700,609 701,609 701,609 702,609 703,609 703,609 704,609 704,609 705,608 705,609 706,609 706,609 707,609 708,610 708,610 709,610 709,610 710,610 710,610 711,610 712,611 712,611 713,611 713,610 714,611 714,611 715,611 715,611 716,612 717,612 717,612 718,612 718,612 719,613 719,613 720,613 721,613 721,613 722,614 722,614 723,614 723,614 724,614 724,614 725,614 726,614 726,615 727,615 727,614 728,615 728,615 729,615 730,615 730,615 731,616 731,616 732,616 732,616 733,616 733,616 734,616 735,616 735,616 736,616 736,616 737,617 737,617 738,617 739,617 739,617 740,617 740,617 741,617 741,617 742,618 742,618 743,618 744,618 744,618 745,618 745,619 746,619 746,619 747,619 747,620 748,620 749,620 749,620 750,620 750,621 751,620 751,621 752,621 753,621 753,621 754,621 754,621 755,621 755,621 756,621 756,621 757,622 758,621 758,621 759,622 759,622 760,622 760,623 761,623 762,623 762,623 763,623 763,623 764,623 764,623 765,624 765,624 766,624 767,624 767,624 768,625 768,625 769,625 769,625 770,625 771,624 771,624 772,624 772,625 773,625 773,625 774,626 774,626 775,626 776,625 776,625 777,625 777,626 778,626 778,626 779,626 780,626 780,626 781,626 781,626 782,626 782,626 783,626 783,627 784,627 785,627 785,627 786,627 786,627 787,627 787,627 788,627 788,628 789,627 790,627 790,627 791,628 791,628 792,628 792,628 793,628 794,628 794,628 795,628 795,629 796,629 796,628 797,628 797,628 798,629 799,629 799,628 800,628 800,629 801,629 801,629 802,629 803,629 803,628 804,628 804,628 805,628 805,629 806,628 806,628 807,629 808,629 808,629 809,629 809,629 810,629 810,629 811,629 812,629 812,630 813,630 813,629 814,629 814,629 815,630 815,630 816,630 817,630 817,630 818,630 818,630 819,630 819,630 820,630 821,631 821,631 822,631 822,632 823,632 823,632 824,631 824,632 825,632 826,632 826,632 827,632 827,632 828,632 828,632 829,632 829,632 830,632 831,632 831,633 832,633 832,633 833,633 833,634 834,634 835,634 835,634 836,635 836,635 837,635 837,635 838,635 838,635 839,635 840,636 840,636 841,636 841,636 842,636 842,637 843,637 844,637 844,637 845,637 845,637 846,636 846,636 847,637 847,637 848,637 849,637 849,637 849,637 850,637 850,637 851,637 851,637 852,637 853,637 853,637 854,637 854,637 855,637 855,638 856,638 856,638 857,638 858,638 858,638 859,638 859,638 860,639 860,638 861,638 862,638 862,639 863,639 863,639 864,639 864,639 865,639 865,639 866,639 867,639 867,639 868,639 868,639 869,639 869,639 870,639 870,639 871,640 872,640 872,640 873,640 873,640 874,640 874,639 875,639 876,640 876,640 877,640 877,640 878,640 878,640 879,640 879,640 880,640 881,640 881,640 882,640 882,640 883,640 883,640 884,640 885,640 885,641 886,641 886,641 887,641 887,641 888,641 888,641 889,641 890,641 890,641 891,641 891,641 892,641 892,641 893,641 894,641 894,641 895,641 895,641 896,641 896,641 897,641 897,641 898,641 899,642 899,642 900,642 900,642 901,642 901,642 902,642 903,642 903,642 904,642 904,642 905,643 905,643 906,643 906,643 907,644 908,647 908,647 909,647 909,644 910,644 910,644 911,644 911,644 912,644 913,644 913,644 914,644 914,644 915,644 915,645 916,645 917,645 917,645 918,645 918,645 919,645 919,645 920,645 920,645 921,646 922,646 922,646 923,646 923,646 924,646 924,646 925,647 926,647 926,647 927,647 927,647 928,647 928,647 929,647 929,647 930,647 931,647 931,648 932,648 932,648 933,648 933,648 934,648 935,648 935,649 936,649 936,649 937,649 937,649 938,649 938,649 939,649 940,649 940,649 941,649 941,650 942,650 942,650 943,650 944,650 944,650 945,650 945,650 946,650 946,650 947,651 947,651 948,651 949,651 949,651 950,651 950,651 951,651 951,651 952,652 952,651 953,651 954,652 954,652 955,652 955,652 956,652 956,652 957,652 958,652 958,652 959,652 959,653 960,653 960,653 961,653 961,653 962,653 963,653 963,653 964,653 964,653 965,653 965,653 966,654 967,654 967,654 968,654 968,654 969,654 969,654 970,654 970,654 971,654 972,654 972,655 973,655 973,655 974,655 974,655 975,656 976,656 976,656 977,656 977,656 978,656 978,656 979,656 979,656 980,656 981,656 981,656 982,657 982,657 983,657 983,657 984,657 985,657 985,657 986,657 986,657 987,657 987,657 988,657 988,657 989,658 990,658 990,658 991,658 991,658 992,658 992,658 993,658 993,658 994,658 995,658 995,659 996,659 996,659 997,659 997,659 998,659 999,659 999,660 1000,660 1000,660 1001,660 1001,660 1002,660 1002,660 1003,660 1004,660 1004,660 1005,660 1005,660 1006,660 1006,660 1007,660 1008,661 1008,661 1009,661 1009,661 1010,661 1010,661 1011,661 1011,661 1012,661 1013,661 1013,661 1014,662 1014,662 1015,662 1015,662 1016,662 1017,662 1017,662 1018,663 1018,663 1019,663 1019,663 1020,663 1020,663 1021,663 1022,664 1022,664 1023,664 1023,664 1024,664 1024,664 1025,664 1026,664 1026,664 1027,664 1027,664 1028,664 1028,664 1029,665 1029,665 1030,665 1031,665 1031,665 1032,665 1032,665 1033,665 1033,665 1034,665 1034,665 1035,665 1036,665 1036,665 1037,665 1037,665 1038,665 1038,665 1039,665 1040,665 1040,666 1041,666 1041,666 1042,666 1042,666 1043,666 1043,666 1044,666 1045,666 1045,667 1046,667 1046,667 1047,667 1047,667 1048,667 1049,667 1049,667 1050,667 1050,667 1051,667 1051,667 1052,668 1052,668 1053,668 1054,668 1054,668 1055,668 1055,668 1056,668 1056,668 1057,668 1058,668 1058,668 1059,668 1059,669 1060,669 1060,669 1061,669 1061,669 1062,669 1063,669 1063,669 1064,669 1064,669 1065,669 1065,669 1066,669 1066,669 1067,669 1067,669 1068,669 1068,669 1069,669 1069,669 1070,670 1070,670 1071,670 1072,670 1072,670 1073,670 1073,670 1074,670 1074,670 1075,670 1075,670 1076,670 1077,670 1077,671 1078,671 1078,671 1079,671 1079,671 1080,671 1081,671 1081,671 1082,671 1082,671 1083,672 1083,672 1084,672 1084,672 1085,673 1086,673 1086,673 1087,673 1087,673 1088,673 1088,673 1089,673 1090,673 1090,673 1091,673 1091,673 1092,673 1092,673 1093,673 1093,674 1094,674 1095,673 1095,674 1096,674 1096,674 1097,674 1097,674 1098,674 1099,674 1099,674 1100,674 1100,674 1101,674 1101,674 1102,674 1102,675 1103,675 1104,675 1104,675 1105,675 1105,675 1106,675 1106,675 1107,675 1108,675 1108,675 1109,675 1109,676 1110,676 1110,676 1111,676 1111,676 1112,676 1113,676 1113,676 1114,677 1114,676 1115,676 1115,676 1116,676 1116,676 1117,676 1118,676 1118,676 1119,677 1119,677 1120,677 1120,677 1121,677 1122,677 1122,677 1123,677 1123,677 1124,677 1124,677 1125,677 1125,677 1126,677 1127,678 1127,678 1128,678 1128,678 1129,678 1129,678 1130,678 1131,678 1131,678 1132,678 1132,678 1133,678 1133,678 1134,679 1134,679 1135,679 1136,679 1136,679 1137,679 1137,679 1138,679 1138,679 1139,679 1140,679 1140,679 1141,680 1141,680 1142,680 1142,680 1143,680 1143,680 1144,680 1145,680 1145,680 1145,680 1146,680 1146,680 1146,680 1147,680 1147,681 1147,681 1147,681 1148,680 1149,680 1149,680 1149,680 1149,681 1150,681 1150,681 1150,681 1150,681 1151,681 1151,681 1151,681 1151,681 1152,681 1152,681 1152,681 1152,681 1153,681 1153,681 1154,681 1154,682 1154,682 1155,682 1155,682 1155,682 1156,682 1156,682 1156,682 1156,682 1157,682 1157,682 1157,682 1157,682 1158,682 1158,682 1159,682 1159,682 1159,682 1160,682 1160,682 1160,682 1160,682 1161,682 1161,682 1161,682 1161,683 1162,683 1162,683 1163,683 1163,683 1163,683 1163,683 1164,683 1164,683 1164,683 1164,683 1165,683 1165,683 1165,683 1166,683 1166,683 1166,683 1166,683 1167,683 1167,683 1168,683 1168,683 1168,683 1168,683 1169,683 1169,683 1169,683 1169,684 1170,684 1170,684 1170,684 1170,684 1171,684 1171,684 1172,684 1172,684 1173,684 1173,684 1173,684 1173,684 1174,684 1174,684 1174,684 1174,684 1175,684 1175,684 1175,684 1175,684 1176,684 1176,684 1177,684 1177,684 1177,684 1177,684 1178,684 1178,684 1178,684 1179,684 1179,684 1179,684 1179,684 1180,684 1180,684 1181,684 1181,684 1181,685 1182,685 1182,685 1182,685 1182,685 1183,685 1183,685 1183,685 1183,685 1184,685 1184,685 1184,685 1184,685 1185,685 1185,685 1186,685 1186,685 1186,685 1186,685 1187,685 1187,685 1187,685 1187,686 1188,686 1188,686 1188,686 1188,686 1189,686 1189,686 1190,686 "/>
<polyline fill="none" opacity="1" stroke="#196BE6" stroke-width="2" points="88,728 95,720 99,720 108,716 109,710 115,706 120,702 127,699 128,700 129,696 134,692 137,693 140,695 145,692 148,693 154,695 154,691 155,687 158,684 161,681 162,678 163,675 163,667 165,665 166,666 170,660 171,661 174,658 175,655 176,653 176,649 179,651 181,652 181,652 182,649 184,647 187,648 190,646 195,648 197,646 204,646 205,646 206,647 208,648 209,646 209,643 210,640 211,644 217,646 219,644 220,645 221,645 225,646 226,646 226,647 228,647 229,647 230,645 231,645 231,645 232,646 233,646 236,647 238,647 241,648 243,644 244,644 245,645 247,646 247,646 248,646 248,646 249,646 251,644 252,645 252,645 254,645 255,646 257,646 258,647 259,647 261,647 261,647 262,648 262,648 263,648 265,649 266,649 266,649 267,649 268,647 270,646 270,646 271,646 272,647 273,644 273,645 275,645 277,643 278,641 279,642 282,641 282,639 284,639 284,639 285,640 285,640 286,640 286,642 288,641 289,637 291,637 293,638 294,636 294,636 297,635 298,633 298,633 301,632 303,633 304,631 304,629 305,630 305,628 306,628 308,629 308,627 309,628 309,626 311,624 311,624 312,625 312,625 313,625 313,623 314,622 314,622 315,622 316,622 316,621 317,621 317,621 318,621 318,622 319,620 320,620 321,621 321,621 322,622 322,622 323,622 323,622 324,622 325,623 325,623 326,623 326,623 327,624 327,624 328,624 329,622 329,622 330,623 331,623 331,623 332,623 332,624 334,623 334,621 335,619 335,620 336,618 336,618 337,615 338,615 338,616 339,616 339,616 340,616 340,617 341,617 341,613 342,612 343,612 343,612 344,613 344,613 345,613 345,613 346,613 346,614 347,612 348,612 348,612 349,613 349,613 350,613 350,613 351,614 352,614 352,611 353,609 353,610 354,610 354,610 355,607 355,607 356,608 357,608 357,608 358,608 358,609 359,609 359,609 360,609 361,610 361,610 362,610 362,610 363,610 363,609 364,609 364,609 365,610 366,610 366,610 367,612 367,612 368,613 368,613 369,613 370,613 370,614 371,614 371,612 372,613 372,613 373,613 373,613 374,613 375,614 375,614 376,614 376,614 377,615 377,615 378,613 379,614 379,614 380,614 380,614 381,614 381,615 382,615 382,615 383,615 384,615 384,616 385,616 385,616 386,616 386,617 387,615 387,614 388,613 389,613 389,613 390,613 390,614 391,614 391,614 392,614 393,614 393,615 394,615 394,615 395,615 395,615 396,615 396,616 397,616 398,616 398,615 399,615 399,615 400,615 400,615 401,616 402,616 402,616 403,616 403,617 404,617 404,615 405,616 405,616 406,616 407,616 407,615 408,615 408,616 409,616 409,616 410,616 411,616 411,617 412,617 412,616 413,616 413,616 414,616 414,616 415,616 416,616 416,617 417,616 417,616 418,616 418,616 419,616 420,617 420,617 421,617 421,618 422,618 422,615 423,614 423,615 424,615 425,616 425,615 426,615 426,616 427,614 427,615 428,613 428,612 429,612 430,613 430,613 431,615 431,616 432,616 432,616 433,617 434,617 434,617 435,617 435,616 436,616 436,615 437,616 437,616 438,615 439,615 440,615 440,615 441,615 441,616 442,616 443,616 443,616 444,616 444,617 445,617 445,618 446,618 446,618 447,618 448,618 448,619 449,619 449,619 450,619 450,619 451,620 452,620 452,620 453,620 453,620 454,620 454,621 455,621 455,622 456,622 457,621 458,621 458,621 459,621 459,616 460,617 461,618 461,618 462,618 462,618 463,619 463,619 464,619 464,619 465,619 466,620 466,621 467,621 467,620 468,620 468,620 469,621 469,620 470,620 471,619 471,619 472,619 472,619 473,619 473,620 474,620 475,620 475,620 476,620 476,621 477,622 477,621 478,621 478,621 480,621 480,622 481,622 481,622 482,622 482,622 483,622 484,623 484,623 485,624 485,624 486,624 486,624 487,624 487,625 488,625 489,625 489,624 490,624 490,624 491,624 491,623 492,623 493,623 493,624 494,624 494,623 495,622 495,623 496,623 496,623 497,623 498,623 498,622 499,621 499,621 500,622 500,622 501,622 502,622 502,622 503,620 503,621 504,620 504,621 505,620 505,618 506,616 507,617 507,617 508,617 508,617 509,618 509,618 510,618 510,618 511,618 512,618 512,618 513,618 513,618 514,619 514,619 515,618 516,619 516,619 517,620 518,620 518,620 519,620 519,621 520,621 521,621 521,620 522,620 522,621 523,621 523,620 524,620 525,620 525,621 526,621 526,621 527,621 527,622 528,622 528,622 529,622 530,623 530,623 531,623 531,623 532,624 532,624 533,624 534,624 534,624 535,624 535,624 536,625 536,625 537,625 537,625 538,626 539,626 539,626 540,626 540,626 541,626 541,627 542,626 543,626 543,625 544,625 544,625 545,625 545,625 546,624 546,624 547,624 548,625 548,625 549,624 549,622 550,623 550,623 551,622 551,622 552,622 553,622 553,622 554,622 554,622 555,622 555,623 556,623 557,623 557,621 558,622 558,622 559,622 559,622 560,622 560,622 561,623 562,623 562,623 563,621 563,623 564,623 564,621 565,621 566,622 566,620 567,620 567,620 568,620 568,620 569,620 569,620 570,620 571,621 571,621 572,621 572,621 573,620 573,620 574,620 575,621 575,622 576,621 576,621 577,621 577,622 578,622 578,622 579,622 580,623 580,623 581,623 581,623 582,623 582,623 583,623 584,623 584,623 585,624 585,624 586,623 586,623 587,624 587,624 588,624 589,623 589,624 590,624 590,624 591,624 591,625 592,625 592,625 593,625 594,625 594,625 595,625 595,624 596,624 596,624 597,625 598,625 598,625 599,625 599,625 600,625 600,626 601,626 601,626 602,626 603,626 603,626 604,627 604,626 605,626 605,626 606,626 607,627 607,627 608,627 608,627 609,627 609,627 610,627 610,627 611,626 612,626 612,627 613,626 613,626 614,626 614,627 615,625 616,625 616,626 617,626 617,625 618,625 618,625 619,624 619,624 620,624 621,624 621,625 622,625 622,625 623,625 623,625 624,625 625,626 625,626 626,626 626,625 627,626 627,626 628,626 628,626 629,626 630,626 630,626 631,627 631,627 632,627 632,627 633,627 633,627 634,628 635,628 635,627 636,627 636,627 637,627 637,627 638,627 639,627 639,627 640,627 640,627 641,627 641,627 642,627 642,627 643,627 644,627 644,627 645,627 645,627 646,627 646,627 647,627 648,627 648,627 649,627 649,628 650,628 650,628 651,628 651,628 652,628 653,629 653,629 654,629 654,629 655,629 655,629 656,630 657,630 657,630 658,630 658,630 659,630 659,630 660,631 660,631 661,631 662,631 662,631 663,631 663,632 664,632 664,632 665,632 665,632 666,632 667,633 667,633 668,633 668,632 669,633 669,633 670,633 671,633 671,633 672,633 672,633 673,633 673,633 674,633 674,633 675,631 676,632 676,632 677,632 677,632 678,632 678,632 679,632 680,632 680,632 681,632 681,632 682,633 682,633 683,633 683,633 684,633 685,633 685,633 686,633 686,633 687,634 687,633 688,633 689,634 689,634 690,634 690,634 691,633 691,633 692,634 692,634 693,635 694,635 694,635 695,635 695,635 696,635 696,635 697,635 698,634 698,634 699,634 699,634 700,634 700,634 701,633 701,633 702,633 703,634 703,634 704,634 704,634 705,634 705,634 706,633 706,633 707,633 708,633 708,633 709,633 709,632 710,633 710,633 711,633 712,633 712,633 713,633 713,633 714,633 714,633 715,633 715,633 716,633 717,633 717,633 718,634 718,634 719,634 719,634 720,634 721,634 721,634 722,634 722,634 723,635 723,635 724,635 724,635 725,635 726,635 726,635 727,635 727,635 728,635 728,635 729,635 730,635 730,635 731,636 731,636 732,636 732,636 733,636 733,636 734,636 735,636 735,636 736,636 736,636 737,637 737,637 738,637 739,637 739,637 740,638 740,638 741,637 741,637 742,638 742,638 743,638 744,638 744,638 745,638 745,638 746,639 746,639 747,639 747,639 748,639 749,640 749,640 750,640 750,640 751,640 751,640 752,640 753,640 753,640 754,640 754,640 755,640 755,640 756,641 756,641 757,641 758,640 758,640 759,640 759,640 760,639 760,640 761,640 762,639 762,639 763,639 763,640 764,639 764,639 765,639 765,640 766,640 767,640 767,640 768,640 768,640 769,640 769,641 770,641 771,641 771,641 772,641 772,641 773,641 773,641 774,641 774,641 775,641 776,641 776,641 777,642 777,642 778,642 778,642 779,641 780,641 780,642 781,641 781,641 782,641 782,642 783,642 783,642 784,642 785,642 785,642 786,642 786,642 787,642 787,642 788,642 788,642 789,642 790,642 790,642 791,643 791,643 792,643 792,643 793,643 794,644 794,644 795,644 795,644 796,644 796,644 797,644 797,644 798,644 799,644 799,645 800,645 800,645 801,645 801,645 802,645 803,645 803,645 804,645 804,645 805,645 805,646 806,646 806,646 807,646 808,646 808,646 809,646 809,646 810,645 810,646 811,646 812,646 812,646 813,646 813,646 814,647 814,647 815,647 815,647 816,647 817,646 817,646 818,646 818,647 819,647 819,647 820,647 821,648 821,648 822,648 822,648 823,648 823,649 824,649 824,648 825,648 826,649 826,649 827,649 827,649 828,649 828,649 829,649 829,649 830,649 831,649 831,649 832,649 832,650 833,650 833,649 834,650 835,650 835,650 836,650 836,649 837,650 837,649 838,649 838,649 839,650 840,650 840,650 841,650 841,650 842,650 842,650 843,650 844,650 844,650 845,651 845,651 846,650 846,650 847,650 847,650 848,650 849,650 849,650 849,650 850,651 850,651 851,651 851,651 852,651 853,651 853,652 854,652 854,652 855,652 855,652 856,652 856,652 857,652 858,652 858,652 859,652 859,653 860,654 860,653 861,653 862,653 862,653 863,653 863,652 864,652 864,653 865,653 865,653 866,653 867,653 867,653 868,653 868,653 869,653 869,653 870,653 870,653 871,653 872,653 872,653 873,653 873,653 874,653 874,653 875,653 876,654 876,654 877,654 877,654 878,654 878,654 879,654 879,654 880,654 881,654 881,655 882,655 882,655 883,655 883,655 884,655 885,655 885,655 886,655 886,655 887,654 887,654 888,655 888,655 889,655 890,655 890,655 891,655 891,655 892,655 892,655 893,654 894,653 894,653 895,653 895,654 896,654 896,654 897,654 897,655 898,655 899,655 899,655 900,655 900,655 901,655 901,655 902,655 903,655 903,655 904,656 904,656 905,656 905,656 906,656 906,656 907,656 908,660 908,660 909,660 909,656 910,657 910,657 911,657 911,657 912,657 913,657 913,657 914,657 914,657 915,657 915,658 916,658 917,658 917,658 918,658 918,658 919,658 919,658 920,659 920,659 921,659 922,659 922,659 923,659 923,659 924,659 924,659 925,660 926,659 926,659 927,660 927,659 928,659 928,659 929,660 929,660 930,660 931,660 931,660 932,660 932,660 933,661 933,661 934,661 935,661 935,661 936,661 936,661 937,661 937,661 938,660 938,660 939,660 940,660 940,660 941,660 941,660 942,660 942,660 943,660 944,660 944,660 945,660 945,660 946,660 946,661 947,660 947,660 948,661 949,661 949,661 950,661 950,661 951,661 951,661 952,661 952,661 953,661 954,661 954,661 955,661 955,662 956,662 956,662 957,662 958,662 958,662 959,662 959,662 960,662 960,662 961,662 961,662 962,662 963,663 963,663 964,663 964,663 965,663 965,663 966,663 967,663 967,663 968,663 968,663 969,663 969,663 970,663 970,663 971,662 972,663 972,663 973,663 973,663 974,663 974,663 975,663 976,663 976,663 977,663 977,663 978,663 978,663 979,663 979,663 980,663 981,663 981,663 982,663 982,663 983,663 983,663 984,664 985,664 985,664 986,664 986,664 987,664 987,664 988,664 988,664 989,664 990,664 990,664 991,664 991,664 992,665 992,665 993,664 993,664 994,665 995,665 995,665 996,665 996,665 997,665 997,665 998,665 999,665 999,665 1000,665 1000,665 1001,666 1001,666 1002,666 1002,666 1003,666 1004,666 1004,666 1005,666 1005,666 1006,666 1006,666 1007,666 1008,667 1008,667 1009,667 1009,667 1010,667 1010,667 1011,667 1011,667 1012,667 1013,667 1013,667 1014,667 1014,668 1015,668 1015,668 1016,668 1017,668 1017,668 1018,668 1018,668 1019,668 1019,668 1020,668 1020,668 1021,668 1022,668 1022,668 1023,668 1023,669 1024,669 1024,669 1025,669 1026,669 1026,669 1027,669 1027,669 1028,669 1028,669 1029,669 1029,669 1030,669 1031,669 1031,669 1032,669 1032,669 1033,669 1033,669 1034,669 1034,669 1035,669 1036,669 1036,669 1037,669 1037,669 1038,669 1038,669 1039,669 1040,669 1040,670 1041,669 1041,669 1042,670 1042,670 1043,670 1043,670 1044,670 1045,670 1045,670 1046,670 1046,670 1047,670 1047,670 1048,670 1049,670 1049,670 1050,670 1050,670 1051,670 1051,670 1052,670 1052,670 1053,670 1054,670 1054,670 1055,670 1055,670 1056,670 1056,670 1057,670 1058,670 1058,670 1059,670 1059,670 1060,670 1060,671 1061,671 1061,671 1062,671 1063,671 1063,671 1064,671 1064,671 1065,672 1065,671 1066,671 1066,671 1067,672 1067,672 1068,672 1068,672 1069,671 1069,671 1070,671 1070,672 1071,672 1072,672 1072,672 1073,672 1073,672 1074,672 1074,672 1075,672 1075,672 1076,671 1077,672 1077,671 1078,671 1078,671 1079,671 1079,671 1080,672 1081,672 1081,672 1082,672 1082,672 1083,672 1083,672 1084,672 1084,672 1085,672 1086,672 1086,672 1087,672 1087,672 1088,672 1088,672 1089,672 1090,672 1090,672 1091,673 1091,673 1092,672 1092,672 1093,672 1093,672 1094,672 1095,672 1095,673 1096,673 1096,673 1097,673 1097,673 1098,673 1099,673 1099,673 1100,673 1100,673 1101,673 1101,673 1102,673 1102,673 1103,673 1104,673 1104,674 1105,674 1105,674 1106,674 1106,674 1107,674 1108,674 1108,674 1109,674 1109,674 1110,674 1110,675 1111,675 1111,675 1112,675 1113,675 1113,675 1114,675 1114,675 1115,675 1115,675 1116,675 1116,675 1117,676 1118,676 1118,676 1119,676 1119,676 1120,676 1120,676 1121,676 1122,676 1122,676 1123,676 1123,676 1124,677 1124,677 1125,677 1125,677 1126,677 1127,677 1127,677 1128,677 1128,677 1129,677 1129,677 1130,677 1131,677 1131,677 1132,678 1132,678 1133,678 1133,678 1134,678 1134,678 1135,678 1136,678 1136,678 1137,678 1137,678 1138,678 1138,678 1139,678 1140,678 1140,678 1141,679 1141,679 1142,679 1142,679 1143,679 1143,679 1144,678 1145,678 1145,678 1145,678 1146,678 1146,678 1146,678 1147,678 1147,679 1147,679 1147,679 1148,679 1149,679 1149,679 1149,679 1149,679 1150,679 1150,679 1150,679 1150,679 1151,679 1151,679 1151,679 1151,680 1152,680 1152,679 1152,679 1152,679 1153,679 1153,680 1154,680 1154,680 1154,679 1155,679 1155,680 1155,680 1156,680 1156,680 1156,680 1156,680 1157,680 1157,680 1157,680 1157,680 1158,680 1158,680 1159,680 1159,680 1159,680 1160,680 1160,680 1160,680 1160,680 1161,680 1161,680 1161,680 1161,680 1162,680 1162,680 1163,680 1163,680 1163,680 1163,680 1164,680 1164,680 1164,680 1164,680 1165,681 1165,681 1165,681 1166,681 1166,681 1166,681 1166,681 1167,681 1167,681 1168,681 1168,681 1168,681 1168,681 1169,681 1169,680 1169,680 1169,681 1170,681 1170,681 1170,681 1170,681 1171,681 1171,681 1172,681 1172,681 1173,681 1173,681 1173,681 1173,681 1174,681 1174,681 1174,681 1174,681 1175,681 1175,681 1175,681 1175,681 1176,681 1176,681 1177,681 1177,681 1177,681 1177,681 1178,681 1178,681 1178,681 1179,681 1179,681 1179,681 1179,681 1180,681 1180,681 1181,681 1181,681 1181,681 1182,681 1182,682 1182,682 1182,682 1183,682 1183,682 1183,682 1183,682 1184,682 1184,682 1184,682 1184,682 1185,682 1185,682 1186,682 1186,682 1186,682 1186,682 1187,682 1187,682 1187,682 1187,682 1188,682 1188,682 1188,682 1188,682 1189,682 1189,682 1190,682 "/>
<polyline fill="none" opacity="1" stroke="#BD19E6" stroke-width="2" points="530,738 531,737 553,737 571,736 590,735 591,734 600,734 612,732 617,732 621,731 629,731 632,730 633,728 636,728 642,727 658,727 659,726 664,726 671,725 677,725 679,724 680,724 681,723 684,722 685,721 689,721 690,720 694,720 694,720 695,719 695,719 696,719 699,719 700,718 700,718 701,718 704,718 706,717 706,717 707,717 709,716 710,715 712,715 712,714 713,713 713,714 714,713 715,712 715,712 716,712 717,713 718,712 721,712 722,711 723,711 726,710 726,710 728,710 729,709 731,708 734,708 735,708 735,707 738,707 740,706 741,705 742,704 746,704 747,703 747,703 748,702 751,701 752,701 753,700 754,700 754,700 755,698 755,698 756,698 757,697 758,696 758,696 759,695 759,695 760,694 761,694 762,693 763,693 764,691 764,690 765,690 766,690 767,689 767,688 768,688 768,688 769,688 769,688 770,687 771,687 771,687 772,686 772,685 773,685 773,685 774,683 774,682 775,682 777,681 777,681 778,681 779,680 780,679 780,679 781,677 782,676 783,676 783,675 784,675 785,674 785,674 786,674 786,674 787,674 787,674 788,673 788,673 789,673 790,673 790,673 791,674 791,673 792,673 792,673 793,672 794,672 794,672 795,672 795,672 796,672 796,672 797,672 797,672 798,672 799,671 799,671 800,671 801,670 801,670 802,670 803,670 803,669 804,669 804,668 805,668 805,668 806,668 807,667 808,667 808,667 809,666 809,667 810,667 810,666 811,666 812,665 812,666 813,665 813,664 814,664 814,663 815,663 815,663 816,663 817,663 817,663 818,663 818,663 819,663 820,663 821,662 821,663 822,662 822,662 823,662 823,662 824,662 824,662 825,662 826,662 826,662 827,661 827,660 828,658 828,658 829,657 829,657 830,657 831,656 831,657 832,657 832,657 833,656 833,656 834,656 835,656 836,656 836,656 837,655 837,655 838,655 839,654 840,653 840,653 841,653 842,653 842,653 843,653 844,653 844,653 845,653 846,653 846,653 847,653 847,652 848,651 849,651 849,651 849,651 850,651 850,651 851,651 851,650 853,650 853,649 854,649 854,649 855,649 855,648 856,647 856,647 857,646 858,646 858,646 859,646 859,645 860,645 860,644 861,644 862,644 862,644 863,644 863,643 864,643 864,643 865,641 865,641 866,641 867,641 867,640 868,640 868,640 869,640 869,640 870,640 870,639 871,639 872,638 872,639 873,639 873,638 874,638 874,638 875,637 876,637 876,636 877,636 877,636 878,636 878,636 879,636 879,636 880,636 881,637 882,637 882,636 883,636 883,636 884,636 885,636 885,637 886,637 886,636 887,637 887,636 888,636 888,636 889,636 890,636 890,636 891,635 891,635 892,635 892,635 893,634 894,634 894,633 895,632 895,631 896,632 896,631 897,630 897,629 898,629 899,628 899,629 900,629 900,628 901,627 901,627 902,626 903,626 903,625 904,625 904,625 905,625 905,625 906,623 906,622 907,621 908,625 908,625 909,624 909,619 910,619 910,618 911,616 911,616 912,615 913,615 913,614 914,614 914,614 915,613 915,613 916,613 917,613 917,613 918,613 918,613 919,613 919,612 920,612 920,612 921,612 922,612 922,611 923,610 923,610 924,609 924,609 925,610 926,610 926,609 927,608 927,608 928,608 928,608 929,607 929,607 930,607 931,607 931,606 932,606 932,607 933,607 933,607 934,607 935,607 935,606 936,606 936,605 937,605 937,604 938,604 938,604 939,604 940,603 940,603 941,602 941,602 942,601 942,600 943,600 944,599 944,599 945,599 945,599 946,598 946,598 947,597 947,596 948,596 949,597 949,596 950,595 950,595 951,595 951,595 952,594 952,594 953,594 954,593 954,593 955,593 955,593 956,593 956,593 957,593 958,593 958,592 959,592 959,591 960,591 960,591 961,591 961,590 962,590 963,590 963,590 964,590 964,590 965,590 965,590 966,590 967,589 967,589 968,589 968,588 969,587 969,587 970,587 970,587 971,587 972,586 972,586 973,586 973,586 974,585 974,585 975,585 976,584 976,584 977,585 977,584 978,584 978,584 979,584 979,583 980,583 981,582 981,581 982,581 982,581 983,581 983,581 984,581 985,581 985,581 986,580 986,579 987,580 987,579 988,579 988,579 989,579 990,579 990,579 991,578 991,578 992,577 992,577 993,577 993,577 994,577 995,576 995,576 996,575 996,575 997,576 997,575 998,574 999,574 999,574 1000,573 1000,573 1001,573 1001,573 1002,572 1002,572 1003,572 1004,572 1004,571 1005,571 1005,572 1006,572 1006,571 1007,571 1008,571 1008,571 1009,571 1009,571 1010,571 1010,571 1011,571 1011,570 1012,569 1013,569 1013,568 1014,569 1014,568 1015,568 1015,568 1016,568 1017,567 1017,567 1018,567 1018,567 1019,567 1019,566 1020,566 1020,566 1021,566 1022,565 1022,565 1023,564 1023,564 1024,564 1024,563 1025,563 1026,563 1026,562 1027,562 1027,562 1028,561 1028,561 1029,561 1029,560 1030,560 1031,560 1031,560 1032,560 1032,559 1033,558 1034,558 1034,558 1035,558 1036,558 1036,557 1037,557 1037,557 1038,557 1038,557 1039,557 1040,556 1040,556 1041,555 1041,554 1042,554 1042,554 1043,553 1043,553 1044,553 1045,552 1045,552 1046,552 1046,551 1047,551 1047,551 1048,551 1049,551 1049,550 1050,549 1050,549 1051,549 1051,549 1052,549 1052,548 1053,548 1054,547 1054,547 1055,546 1055,545 1056,545 1056,544 1057,544 1058,543 1058,543 1059,542 1059,542 1060,541 1060,541 1061,541 1061,541 1062,540 1063,540 1063,540 1064,539 1064,539 1065,539 1065,538 1066,538 1066,538 1067,538 1067,538 1068,537 1068,537 1069,536 1069,536 1070,534 1070,533 1071,533 1072,532 1072,531 1073,531 1073,531 1074,531 1074,531 1075,531 1075,530 1076,530 1077,531 1077,531 1078,530 1078,529 1079,529 1079,529 1080,528 1081,528 1081,528 1082,527 1082,527 1083,526 1083,526 1084,526 1084,525 1085,525 1086,526 1086,525 1087,525 1087,524 1088,524 1088,524 1089,524 1090,524 1090,524 1091,524 1091,523 1092,523 1092,523 1093,523 1093,521 1094,521 1095,521 1095,520 1096,520 1096,520 1097,520 1097,520 1098,519 1099,518 1099,518 1100,518 1100,517 1101,516 1101,516 1102,515 1102,515 1103,515 1104,515 1104,515 1105,515 1105,514 1106,514 1106,514 1107,514 1108,513 1108,514 1109,513 1109,513 1110,513 1110,513 1111,513 1111,513 1112,513 1113,512 1113,512 1114,512 1114,511 1115,511 1115,510 1116,510 1116,509 1117,509 1118,509 1118,509 1119,510 1119,510 1120,510 1120,509 1121,510 1122,510 1122,509 1123,509 1123,508 1124,508 1124,508 1125,508 1125,508 1126,508 1127,507 1127,507 1128,507 1128,506 1129,506 1129,506 1130,506 1131,506 1131,505 1132,505 1132,505 1133,505 1133,505 1134,505 1134,504 1135,504 1136,504 1136,503 1137,502 1137,501 1138,501 1138,501 1139,501 1140,500 1140,500 1141,500 1141,500 1142,500 1142,500 1143,499 1143,499 1144,499 1145,499 1145,499 1145,499 1146,499 1146,498 1146,497 1147,497 1147,497 1147,497 1147,497 1148,497 1149,497 1149,497 1149,497 1149,496 1150,496 1150,496 1150,496 1150,496 1151,496 1151,496 1151,496 1151,496 1152,496 1152,495 1152,495 1152,495 1153,495 1153,494 1154,494 1154,495 1154,494 1155,494 1155,493 1155,493 1156,493 1156,494 1156,494 1156,493 1157,493 1157,493 1157,493 1157,493 1158,493 1158,492 1159,492 1159,492 1159,492 1160,492 1160,492 1160,492 1160,491 1161,491 1161,490 1161,490 1161,490 1162,490 1162,490 1163,490 1163,490 1163,490 1163,490 1164,490 1164,489 1164,489 1164,489 1165,489 1165,489 1165,489 1166,489 1166,488 1166,488 1166,488 1167,488 1167,487 1168,487 1168,487 1168,487 1168,487 1169,487 1169,486 1169,486 1169,487 1170,487 1170,486 1170,486 1170,486 1171,486 1171,485 1172,485 1172,485 1173,485 1173,485 1173,485 1173,483 1174,483 1174,484 1174,484 1174,484 1175,484 1175,484 1175,484 1175,484 1176,484 1176,483 1177,483 1177,484 1177,484 1177,483 1178,483 1178,483 1178,482 1179,482 1179,482 1179,482 1179,481 1180,481 1180,480 1181,480 1181,480 1181,480 1182,480 1182,480 1182,480 1182,480 1183,480 1183,479 1183,479 1183,478 1184,478 1184,478 1184,478 1184,479 1185,479 1185,478 1186,478 1186,478 1186,478 1187,478 1187,477 1187,477 1187,476 1188,476 1188,476 1188,476 1188,476 1189,476 1189,475 1190,475 "/>
<rect x="1088" y="329" width="97" height="91" opacity="1" fill="#FFFFFF" stroke="none"/>
<rect x="1088" y="329" width="97" height="91" opacity="1" fill="none" stroke="#000000"/>
<text x="1128" y="339" dy="0.76em" text-anchor="start" font-family="sans-serif" font-size="9.67741935483871" opacity="1" fill="#000000">
argparse
</text>
<text x="1128" y="354" dy="0.76em" text-anchor="start" font-family="sans-serif" font-size="9.67741935483871" opacity="1" fill="#000000">
clap
</text>
<text x="1128" y="369" dy="0.76em" text-anchor="start" font-family="sans-serif" font-size="9.67741935483871" opacity="1" fill="#000000">
docopt
</text>
<text x="1128" y="384" dy="0.76em" text-anchor="start" font-family="sans-serif" font-size="9.67741935483871" opacity="1" fill="#000000">
getopts
</text>
<text x="1128" y="399" dy="0.76em" text-anchor="start" font-family="sans-serif" font-size="9.67741935483871" opacity="1" fill="#000000">
structopt
</text>
<polyline fill="none" opacity="1" stroke="#E61919" stroke-width="2" points="1098,343 1118,343 "/>
<polyline fill="none" opacity="1" stroke="#BDE619" stroke-width="2" points="1098,359 1118,359 "/>
<polyline fill="none" opacity="1" stroke="#19E66B" stroke-width="2" points="1098,374 1118,374 "/>
<polyline fill="none" opacity="1" stroke="#196BE6" stroke-width="2" points="1098,389 1118,389 "/>
<polyline fill="none" opacity="1" stroke="#BD19E6" stroke-width="2" points="1098,404 1118,404 "/>
</svg>
