<svg width="1200" height="800" viewBox="0 0 1200 800" xmlns="http://www.w3.org/2000/svg">
<rect x="0" y="0" width="1199" height="799" opacity="1" fill="#FFFFFF" stroke="none"/>
<line opacity="0.1" stroke="#000000" stroke-width="1" x1="60" y1="731" x2="1190" y2="731"/>
<line opacity="0.1" stroke="#000000" stroke-width="1" x1="60" y1="723" x2="1190" y2="723"/>
<line opacity="0.1" stroke="#000000" stroke-width="1" x1="60" y1="715" x2="1190" y2="715"/>
<line opacity="0.1" stroke="#000000" stroke-width="1" x1="60" y1="707" x2="1190" y2="707"/>
<line opacity="0.1" stroke="#000000" stroke-width="1" x1="60" y1="699" x2="1190" y2="699"/>
<line opacity="0.1" stroke="#000000" stroke-width="1" x1="60" y1="690" x2="1190" y2="690"/>
<line opacity="0.1" stroke="#000000" stroke-width="1" x1="60" y1="682" x2="1190" y2="682"/>
<line opacity="0.1" stroke="#000000" stroke-width="1" x1="60" y1="674" x2="1190" y2="674"/>
<line opacity="0.1" stroke="#000000" stroke-width="1" x1="60" y1="666" x2="1190" y2="666"/>
<line opacity="0.1" stroke="#000000" stroke-width="1" x1="60" y1="658" x2="1190" y2="658"/>
<line opacity="0.1" stroke="#000000" stroke-width="1" x1="60" y1="650" x2="1190" y2="650"/>
<line opacity="0.1" stroke="#000000" stroke-width="1" x1="60" y1="641" x2="1190" y2="641"/>
<line opacity="0.1" stroke="#000000" stroke-width="1" x1="60" y1="633" x2="1190" y2="633"/>
<line opacity="0.1" stroke="#000000" stroke-width="1" x1="60" y1="625" x2="1190" y2="625"/>
<line opacity="0.1" stroke="#000000" stroke-width="1" x1="60" y1="617" x2="1190" y2="617"/>
<line opacity="0.1" stroke="#000000" stroke-width="1" x1="60" y1="609" x2="1190" y2="609"/>
<line opacity="0.1" stroke="#000000" stroke-width="1" x1="60" y1="601" x2="1190" y2="601"/>
<line opacity="0.1" stroke="#000000" stroke-width="1" x1="60" y1="592" x2="1190" y2="592"/>
<line opacity="0.1" stroke="#000000" stroke-width="1" x1="60" y1="584" x2="1190" y2="584"/>
<line opacity="0.1" stroke="#000000" stroke-width="1" x1="60" y1="576" x2="1190" y2="576"/>
<line opacity="0.1" stroke="#000000" stroke-width="1" x1="60" y1="568" x2="1190" y2="568"/>
<line opacity="0.1" stroke="#000000" stroke-width="1" x1="60" y1="560" x2="1190" y2="560"/>
<line opacity="0.1" stroke="#000000" stroke-width="1" x1="60" y1="552" x2="1190" y2="552"/>
<line opacity="0.1" stroke="#000000" stroke-width="1" x1="60" y1="543" x2="1190" y2="543"/>
<line opacity="0.1" stroke="#000000" stroke-width="1" x1="60" y1="535" x2="1190" y2="535"/>
<line opacity="0.1" stroke="#000000" stroke-width="1" x1="60" y1="527" x2="1190" y2="527"/>
<line opacity="0.1" stroke="#000000" stroke-width="1" x1="60" y1="519" x2="1190" y2="519"/>
<line opacity="0.1" stroke="#000000" stroke-width="1" x1="60" y1="511" x2="1190" y2="511"/>
<line opacity="0.1" stroke="#000000" stroke-width="1" x1="60" y1="503" x2="1190" y2="503"/>
<line opacity="0.1" stroke="#000000" stroke-width="1" x1="60" y1="494" x2="1190" y2="494"/>
<line opacity="0.1" stroke="#000000" stroke-width="1" x1="60" y1="486" x2="1190" y2="486"/>
<line opacity="0.1" stroke="#000000" stroke-width="1" x1="60" y1="478" x2="1190" y2="478"/>
<line opacity="0.1" stroke="#000000" stroke-width="1" x1="60" y1="470" x2="1190" y2="470"/>
<line opacity="0.1" stroke="#000000" stroke-width="1" x1="60" y1="462" x2="1190" y2="462"/>
<line opacity="0.1" stroke="#000000" stroke-width="1" x1="60" y1="454" x2="1190" y2="454"/>
<line opacity="0.1" stroke="#000000" stroke-width="1" x1="60" y1="445" x2="1190" y2="445"/>
<line opacity="0.1" stroke="#000000" stroke-width="1" x1="60" y1="437" x2="1190" y2="437"/>
<line opacity="0.1" stroke="#000000" stroke-width="1" x1="60" y1="429" x2="1190" y2="429"/>
<line opacity="0.1" stroke="#000000" stroke-width="1" x1="60" y1="421" x2="1190" y2="421"/>
<line opacity="0.1" stroke="#000000" stroke-width="1" x1="60" y1="413" x2="1190" y2="413"/>
<line opacity="0.1" stroke="#000000" stroke-width="1" x1="60" y1="405" x2="1190" y2="405"/>
<line opacity="0.1" stroke="#000000" stroke-width="1" x1="60" y1="396" x2="1190" y2="396"/>
<line opacity="0.1" stroke="#000000" stroke-width="1" x1="60" y1="388" x2="1190" y2="388"/>
<line opacity="0.1" stroke="#000000" stroke-width="1" x1="60" y1="380" x2="1190" y2="380"/>
<line opacity="0.1" stroke="#000000" stroke-width="1" x1="60" y1="372" x2="1190" y2="372"/>
<line opacity="0.1" stroke="#000000" stroke-width="1" x1="60" y1="364" x2="1190" y2="364"/>
<line opacity="0.1" stroke="#000000" stroke-width="1" x1="60" y1="356" x2="1190" y2="356"/>
<line opacity="0.1" stroke="#000000" stroke-width="1" x1="60" y1="347" x2="1190" y2="347"/>
<line opacity="0.1" stroke="#000000" stroke-width="1" x1="60" y1="339" x2="1190" y2="339"/>
<line opacity="0.1" stroke="#000000" stroke-width="1" x1="60" y1="331" x2="1190" y2="331"/>
<line opacity="0.1" stroke="#000000" stroke-width="1" x1="60" y1="323" x2="1190" y2="323"/>
<line opacity="0.1" stroke="#000000" stroke-width="1" x1="60" y1="315" x2="1190" y2="315"/>
<line opacity="0.1" stroke="#000000" stroke-width="1" x1="60" y1="307" x2="1190" y2="307"/>
<line opacity="0.1" stroke="#000000" stroke-width="1" x1="60" y1="298" x2="1190" y2="298"/>
<line opacity="0.1" stroke="#000000" stroke-width="1" x1="60" y1="290" x2="1190" y2="290"/>
<line opacity="0.1" stroke="#000000" stroke-width="1" x1="60" y1="282" x2="1190" y2="282"/>
<line opacity="0.1" stroke="#000000" stroke-width="1" x1="60" y1="274" x2="1190" y2="274"/>
<line opacity="0.1" stroke="#000000" stroke-width="1" x1="60" y1="266" x2="1190" y2="266"/>
<line opacity="0.1" stroke="#000000" stroke-width="1" x1="60" y1="258" x2="1190" y2="258"/>
<line opacity="0.1" stroke="#000000" stroke-width="1" x1="60" y1="249" x2="1190" y2="249"/>
<line opacity="0.1" stroke="#000000" stroke-width="1" x1="60" y1="241" x2="1190" y2="241"/>
<line opacity="0.1" stroke="#000000" stroke-width="1" x1="60" y1="233" x2="1190" y2="233"/>
<line opacity="0.1" stroke="#000000" stroke-width="1" x1="60" y1="225" x2="1190" y2="225"/>
<line opacity="0.1" stroke="#000000" stroke-width="1" x1="60" y1="217" x2="1190" y2="217"/>
<line opacity="0.1" stroke="#000000" stroke-width="1" x1="60" y1="209" x2="1190" y2="209"/>
<line opacity="0.1" stroke="#000000" stroke-width="1" x1="60" y1="200" x2="1190" y2="200"/>
<line opacity="0.1" stroke="#000000" stroke-width="1" x1="60" y1="192" x2="1190" y2="192"/>
<line opacity="0.1" stroke="#000000" stroke-width="1" x1="60" y1="184" x2="1190" y2="184"/>
<line opacity="0.1" stroke="#000000" stroke-width="1" x1="60" y1="176" x2="1190" y2="176"/>
<line opacity="0.1" stroke="#000000" stroke-width="1" x1="60" y1="168" x2="1190" y2="168"/>
<line opacity="0.1" stroke="#000000" stroke-width="1" x1="60" y1="160" x2="1190" y2="160"/>
<line opacity="0.1" stroke="#000000" stroke-width="1" x1="60" y1="151" x2="1190" y2="151"/>
<line opacity="0.1" stroke="#000000" stroke-width="1" x1="60" y1="143" x2="1190" y2="143"/>
<line opacity="0.1" stroke="#000000" stroke-width="1" x1="60" y1="135" x2="1190" y2="135"/>
<line opacity="0.1" stroke="#000000" stroke-width="1" x1="60" y1="127" x2="1190" y2="127"/>
<line opacity="0.1" stroke="#000000" stroke-width="1" x1="60" y1="119" x2="1190" y2="119"/>
<line opacity="0.1" stroke="#000000" stroke-width="1" x1="60" y1="111" x2="1190" y2="111"/>
<line opacity="0.1" stroke="#000000" stroke-width="1" x1="60" y1="102" x2="1190" y2="102"/>
<line opacity="0.1" stroke="#000000" stroke-width="1" x1="60" y1="94" x2="1190" y2="94"/>
<line opacity="0.1" stroke="#000000" stroke-width="1" x1="60" y1="86" x2="1190" y2="86"/>
<line opacity="0.1" stroke="#000000" stroke-width="1" x1="60" y1="78" x2="1190" y2="78"/>
<line opacity="0.1" stroke="#000000" stroke-width="1" x1="60" y1="70" x2="1190" y2="70"/>
<line opacity="0.1" stroke="#000000" stroke-width="1" x1="60" y1="62" x2="1190" y2="62"/>
<line opacity="0.1" stroke="#000000" stroke-width="1" x1="60" y1="53" x2="1190" y2="53"/>
<line opacity="0.1" stroke="#000000" stroke-width="1" x1="60" y1="45" x2="1190" y2="45"/>
<line opacity="0.1" stroke="#000000" stroke-width="1" x1="60" y1="37" x2="1190" y2="37"/>
<line opacity="0.1" stroke="#000000" stroke-width="1" x1="60" y1="29" x2="1190" y2="29"/>
<line opacity="0.1" stroke="#000000" stroke-width="1" x1="60" y1="21" x2="1190" y2="21"/>
<line opacity="0.1" stroke="#000000" stroke-width="1" x1="60" y1="13" x2="1190" y2="13"/>
<text x="10" y="375" dy="0.76em" text-anchor="middle" font-family="sans-serif" font-size="9.67741935483871" opacity="1" fill="#000000" transform="rotate(270, 10, 375)">
Fraction of dependent crates
</text>
<line opacity="0.2" stroke="#000000" stroke-width="1" x1="60" y1="658" x2="1190" y2="658"/>
<line opacity="0.2" stroke="#000000" stroke-width="1" x1="60" y1="576" x2="1190" y2="576"/>
<line opacity="0.2" stroke="#000000" stroke-width="1" x1="60" y1="494" x2="1190" y2="494"/>
<line opacity="0.2" stroke="#000000" stroke-width="1" x1="60" y1="413" x2="1190" y2="413"/>
<line opacity="0.2" stroke="#000000" stroke-width="1" x1="60" y1="331" x2="1190" y2="331"/>
<line opacity="0.2" stroke="#000000" stroke-width="1" x1="60" y1="249" x2="1190" y2="249"/>
<line opacity="0.2" stroke="#000000" stroke-width="1" x1="60" y1="168" x2="1190" y2="168"/>
<line opacity="0.2" stroke="#000000" stroke-width="1" x1="60" y1="86" x2="1190" y2="86"/>
<polyline fill="none" opacity="1" stroke="#000000" stroke-width="1" points="59,10 59,740 "/>
<text x="50" y="658" dy="0.5ex" text-anchor="end" font-family="sans-serif" font-size="9.67741935483871" opacity="1" fill="#000000">
0.01
</text>
<polyline fill="none" opacity="1" stroke="#000000" stroke-width="1" points="54,658 59,658 "/>
<text x="50" y="576" dy="0.5ex" text-anchor="end" font-family="sans-serif" font-size="9.67741935483871" opacity="1" fill="#000000">
0.02
</text>
<polyline fill="none" opacity="1" stroke="#000000" stroke-width="1" points="54,576 59,576 "/>
<text x="50" y="494" dy="0.5ex" text-anchor="end" font-family="sans-serif" font-size="9.67741935483871" opacity="1" fill="#000000">
0.03
</text>
<polyline fill="none" opacity="1" stroke="#000000" stroke-width="1" points="54,494 59,494 "/>
<text x="50" y="413" dy="0.5ex" text-anchor="end" font-family="sans-serif" font-size="9.67741935483871" opacity="1" fill="#000000">
0.04
</text>
<polyline fill="none" opacity="1" stroke="#000000" stroke-width="1" points="54,413 59,413 "/>
<text x="50" y="331" dy="0.5ex" text-anchor="end" font-family="sans-serif" font-size="9.67741935483871" opacity="1" fill="#000000">
0.05
</text>
<polyline fill="none" opacity="1" stroke="#000000" stroke-width="1" points="54,331 59,331 "/>
<text x="50" y="249" dy="0.5ex" text-anchor="end" font-family="sans-serif" font-size="9.67741935483871" opacity="1" fill="#000000">
0.06
</text>
<polyline fill="none" opacity="1" stroke="#000000" stroke-width="1" points="54,249 59,249 "/>
<text x="50" y="168" dy="0.5ex" text-anchor="end" font-family="sans-serif" font-size="9.67741935483871" opacity="1" fill="#000000">
0.07
</text>
<polyline fill="none" opacity="1" stroke="#000000" stroke-width="1" points="54,168 59,168 "/>
<text x="50" y="86" dy="0.5ex" text-anchor="end" font-family="sans-serif" font-size="9.67741935483871" opacity="1" fill="#000000">
0.08
</text>
<polyline fill="none" opacity="1" stroke="#000000" stroke-width="1" points="54,86 59,86 "/>
<polyline fill="none" opacity="1" stroke="#000000" stroke-width="1" points="60,740 1190,740 "/>
<text x="60" y="750" dy="0.76em" text-anchor="middle" font-family="sans-serif" font-size="9.67741935483871" opacity="1" fill="#000000">
2014-11-20Z
</text>
<polyline fill="none" opacity="1" stroke="#000000" stroke-width="1" points="60,740 60,745 "/>
<text x="174" y="750" dy="0.76em" text-anchor="middle" font-family="sans-serif" font-size="9.67741935483871" opacity="1" fill="#000000">
2015-07-09Z
</text>
<polyline fill="none" opacity="1" stroke="#000000" stroke-width="1" points="174,740 174,745 "/>
<text x="288" y="750" dy="0.76em" text-anchor="middle" font-family="sans-serif" font-size="9.67741935483871" opacity="1" fill="#000000">
2016-02-25Z
</text>
<polyline fill="none" opacity="1" stroke="#000000" stroke-width="1" points="288,740 288,745 "/>
<text x="402" y="750" dy="0.76em" text-anchor="middle" font-family="sans-serif" font-size="9.67741935483871" opacity="1" fill="#000000">
2016-10-13Z
</text>
<polyline fill="none" opacity="1" stroke="#000000" stroke-width="1" points="402,740 402,745 "/>
<text x="516" y="750" dy="0.76em" text-anchor="middle" font-family="sans-serif" font-size="9.67741935483871" opacity="1" fill="#000000">
2017-06-01Z
</text>
<polyline fill="none" opacity="1" stroke="#000000" stroke-width="1" points="516,740 516,745 "/>
<text x="631" y="750" dy="0.76em" text-anchor="middle" font-family="sans-serif" font-size="9.67741935483871" opacity="1" fill="#000000">
2018-01-18Z
</text>
<polyline fill="none" opacity="1" stroke="#000000" stroke-width="1" points="631,740 631,745 "/>
<text x="745" y="750" dy="0.76em" text-anchor="middle" font-family="sans-serif" font-size="9.67741935483871" opacity="1" fill="#000000">
2018-09-06Z
</text>
<polyline fill="none" opacity="1" stroke="#000000" stroke-width="1" points="745,740 745,745 "/>
<text x="859" y="750" dy="0.76em" text-anchor="middle" font-family="sans-serif" font-size="9.67741935483871" opacity="1" fill="#000000">
2019-04-25Z
</text>
<polyline fill="none" opacity="1" stroke="#000000" stroke-width="1" points="859,740 859,745 "/>
<text x="973" y="750" dy="0.76em" text-anchor="middle" font-family="sans-serif" font-size="9.67741935483871" opacity="1" fill="#000000">
2019-12-12Z
</text>
<polyline fill="none" opacity="1" stroke="#000000" stroke-width="1" points="973,740 973,745 "/>
<text x="1088" y="750" dy="0.76em" text-anchor="middle" font-family="sans-serif" font-size="9.67741935483871" opacity="1" fill="#000000">
2020-07-30Z
</text>
<polyline fill="none" opacity="1" stroke="#000000" stroke-width="1" points="1088,740 1088,745 "/>
<polyline fill="none" opacity="1" stroke="#E61919" stroke-width="2" points="160,736 165,729 165,726 200,725 226,724 253,724 262,722 262,718 270,716 273,718 275,717 276,713 277,713 279,715 280,713 281,711 282,709 290,712 291,712 304,712 305,712 309,711 316,710 319,708 319,705 331,705 332,705 337,704 354,704 354,704 356,705 356,705 357,705 357,706 358,706 359,706 360,707 360,707 361,707 362,707 363,707 364,707 402,712 403,711 403,708 404,707 406,706 428,709 429,709 429,709 430,708 432,708 432,708 433,708 434,708 434,708 436,707 437,704 439,704 439,704 440,704 440,704 441,703 442,703 443,703 445,703 446,704 446,704 447,704 447,704 448,704 449,704 450,704 452,704 453,704 453,704 454,705 455,705 455,705 456,705 456,705 457,705 458,705 459,705 460,705 461,705 462,704 462,705 463,705 464,705 465,705 466,705 467,705 468,705 469,705 469,705 471,704 472,703 472,703 473,703 474,703 475,703 476,703 477,704 477,703 478,703 479,703 480,703 481,703 482,703 483,703 483,703 484,703 484,703 485,704 486,704 487,704 488,704 489,704 490,704 491,704 491,704 493,704 494,704 495,704 498,704 498,704 499,704 501,704 503,705 504,705 506,705 506,705 508,705 508,705 509,704 511,705 512,705 513,706 514,706 515,706 516,706 517,706 517,706 518,706 519,707 520,707 521,707 522,707 522,708 523,708 523,707 524,707 524,707 525,707 525,706 527,707 527,707 529,707 531,707 534,707 535,707 536,708 536,708 537,707 537,707 538,707 538,707 540,707 541,707 541,707 542,707 542,707 543,707 543,707 544,707 544,706 545,706 546,706 547,705 547,705 550,705 550,705 551,705 551,705 552,705 552,705 553,705 554,705 558,706 560,705 563,706 563,706 564,706 565,705 567,705 567,706 570,706 571,706 572,706 581,707 582,707 583,707 586,707 587,706 592,706 594,706 596,707 596,706 597,706 598,706 600,706 602,707 603,707 605,707 606,707 606,707 608,707 609,707 610,707 610,706 611,707 612,707 612,707 613,707 614,707 614,707 615,707 615,707 616,707 617,707 617,707 618,707 618,707 619,707 619,707 620,707 621,707 622,708 623,708 623,708 624,708 625,708 625,708 627,708 627,708 628,708 628,708 629,708 630,708 630,708 631,708 632,708 632,708 633,708 635,708 636,708 636,708 637,708 638,708 638,708 639,709 640,709 640,709 641,709 642,709 644,710 645,710 646,710 647,710 647,709 648,709 650,710 651,710 654,710 654,710 655,710 655,710 656,710 656,710 657,710 657,710 659,710 660,710 660,710 661,710 663,710 664,710 664,710 665,710 666,710 666,710 667,710 668,711 670,711 670,710 671,710 671,710 672,710 672,710 673,710 674,710 675,710 675,710 676,710 676,710 677,710 677,710 678,710 678,710 679,710 679,710 680,710 680,710 681,710 681,710 682,711 682,711 683,711 684,711 684,711 685,711 687,711 687,711 688,711 688,711 691,711 692,711 692,711 692,711 693,711 695,711 695,711 696,712 696,712 697,711 697,711 698,711 698,711 699,711 699,711 700,711 700,711 701,711 701,711 702,711 702,711 704,711 705,712 706,712 706,712 707,712 708,712 708,712 709,712 709,712 710,712 710,712 711,712 711,712 712,712 712,712 713,712 713,712 714,712 715,712 715,712 716,712 716,711 717,711 717,711 718,711 718,711 719,711 720,711 720,711 721,712 722,712 723,712 724,712 724,712 725,712 725,712 726,712 727,712 728,712 728,712 729,712 730,712 730,712 731,712 731,712 732,712 732,712 733,712 733,712 734,713 735,713 735,713 736,713 736,713 737,713 737,713 738,713 738,713 739,713 740,713 741,713 741,713 742,713 742,713 743,713 743,713 744,713 745,714 745,714 746,714 746,714 747,714 748,714 749,714 749,714 750,714 750,714 751,714 752,714 752,714 753,714 753,714 754,715 754,715 755,715 755,715 755,715 756,715 756,715 757,715 757,715 758,715 758,715 759,715 759,715 760,715 761,715 761,715 762,715 762,715 763,715 763,715 764,715 764,715 765,715 766,715 766,715 767,715 768,715 768,715 769,715 770,715 770,715 772,715 772,715 773,715 773,715 774,715 774,715 775,715 775,715 776,715 776,715 777,715 777,715 778,715 779,715 779,715 780,715 781,715 782,715 782,715 783,715 783,715 784,715 784,715 785,715 786,715 786,715 787,715 787,715 788,715 789,715 789,715 790,715 791,715 791,715 792,715 793,716 793,716 794,716 794,716 796,715 796,715 797,715 798,715 799,715 799,715 800,715 800,715 801,715 802,715 802,715 803,715 803,715 804,715 804,716 805,716 806,716 806,717 807,717 807,717 808,716 808,716 809,716 809,716 810,716 811,716 811,716 812,716 813,716 814,716 815,716 815,716 816,716 817,716 817,717 818,717 818,717 819,716 819,716 820,716 820,716 821,716 822,716 823,716 823,716 824,716 825,716 825,716 826,716 827,716 827,716 828,716 828,716 828,716 829,716 829,716 830,716 830,716 831,716 831,716 832,716 833,716 833,716 834,716 834,716 835,716 835,716 836,716 836,716 837,716 837,716 838,716 838,716 839,716 839,716 840,716 840,716 841,716 842,717 842,717 843,717 843,717 844,717 845,717 845,717 846,717 846,717 847,717 847,717 848,717 848,717 849,717 850,717 850,717 851,717 851,717 852,717 853,717 854,717 856,717 857,717 857,717 858,717 859,717 859,717 860,718 860,718 861,718 861,718 862,718 862,718 863,718 863,717 864,717 864,718 865,718 866,717 866,717 867,717 869,718 869,718 870,718 870,718 871,718 872,718 872,718 873,718 874,718 874,718 875,718 875,718 876,718 876,718 877,718 878,717 879,717 879,717 880,717 880,718 881,718 881,718 883,718 884,718 884,718 885,718 885,718 886,718 887,718 887,718 888,718 888,718 889,718 890,718 890,718 891,718 891,718 892,718 894,718 894,718 895,718 895,718 896,718 896,718 897,718 897,718 898,718 899,718 899,718 900,718 900,718 901,719 902,719 902,719 903,719 904,719 905,719 905,719 906,719 906,719 907,719 907,719 908,719 908,719 909,719 909,719 910,719 910,719 911,719 911,719 912,719 912,719 913,719 913,719 914,719 915,719 916,719 917,719 918,719 918,719 918,719 919,719 919,719 921,720 921,720 922,720 922,720 923,720 923,720 924,720 924,720 925,720 925,720 926,720 926,720 927,720 928,720 930,720 931,720 931,720 932,720 932,720 933,720 934,720 935,721 936,721 936,721 937,721 937,721 938,721 939,721 939,721 940,721 941,721 942,721 943,721 944,721 945,721 946,721 946,721 947,721 947,721 948,721 949,721 950,721 950,721 951,721 951,721 952,721 952,721 953,721 953,721 954,721 954,721 955,721 955,721 956,721 956,721 957,721 957,721 958,721 958,721 959,721 959,721 960,722 960,722 961,722 961,722 962,721 963,721 964,721 964,721 964,721 965,721 969,722 969,722 970,722 970,722 971,722 972,722 972,722 973,721 973,721 974,721 975,721 977,721 977,721 978,721 978,721 980,721 980,721 981,721 982,721 982,721 983,721 983,721 984,721 985,721 985,721 986,721 986,721 987,721 987,722 988,722 988,722 989,722 989,722 990,722 991,722 992,722 992,722 993,722 993,722 994,722 994,722 995,722 995,722 996,722 997,722 997,722 998,722 998,722 999,722 999,722 1000,722 1000,722 1001,722 1002,722 1002,722 1004,722 1004,722 1005,722 1005,722 1006,722 1006,722 1008,722 1009,722 1009,722 1010,723 1011,723 1011,723 1012,723 1012,723 1013,723 1013,723 1014,723 1014,723 1015,723 1015,723 1015,723 1016,723 1017,723 1017,723 1017,723 1017,723 1019,723 1019,723 1020,723 1020,723 1020,723 1021,723 1021,723 1021,723 1022,723 1022,723 1022,723 1022,723 1023,723 1023,723 1023,723 1024,723 1024,723 1024,723 1025,723 1025,723 1025,723 1025,723 1026,723 1026,723 1027,723 1027,723 1027,723 1027,723 1028,723 1028,723 1028,723 1029,723 1029,723 1029,723 1030,723 1030,723 1030,723 1030,723 1031,723 1031,723 1031,723 1032,723 1032,723 1032,723 1033,723 1034,724 1034,724 1035,724 1035,724 1035,724 1036,724 1036,724 1036,724 1036,724 1037,724 1038,724 1038,724 1038,724 1039,724 1039,724 1040,724 1040,724 1040,724 1041,724 1041,724 1042,724 1042,724 1042,724 1042,724 1043,724 1043,724 1044,724 1044,724 1044,724 1045,724 1045,724 1045,724 1045,724 1046,724 1046,724 1046,724 1047,724 1048,724 1048,724 1048,724 1049,724 1049,724 1050,724 1050,724 1050,724 1051,724 1051,724 1051,724 1051,724 1052,724 1052,724 1053,724 1053,724 1053,724 1054,724 1054,724 1054,724 1054,724 1054,724 1055,724 1055,724 1056,724 1057,724 1057,724 1057,724 1058,724 1058,724 1059,724 1059,724 1059,724 1060,724 1060,724 1060,724 1060,724 1061,724 1061,724 1061,724 1062,724 1062,724 1062,724 1062,724 1063,724 1063,724 1063,724 1064,724 1064,724 1064,725 1065,725 1065,725 1066,725 1066,725 1066,725 1067,725 1068,725 1068,725 1068,725 1068,725 1069,725 1069,725 1069,725 1069,725 1070,725 1070,725 1070,725 1070,725 1071,725 1071,725 1071,725 1072,725 1072,725 1073,725 1073,725 1073,725 1073,725 1074,725 1074,725 1074,725 1075,725 1075,725 1075,725 1075,725 1076,725 1076,725 1076,725 1076,725 1077,725 1077,725 1078,725 1078,725 1078,725 1078,725 1079,725 1079,725 1080,725 1080,725 1081,725 1081,725 1081,725 1082,725 1082,725 1083,725 1083,725 1084,725 1084,725 1084,725 1085,725 1085,725 1085,725 1086,725 1086,725 1086,725 1086,725 1087,725 1087,725 1087,725 1087,725 1088,725 1088,725 1088,725 1088,725 1089,725 1089,725 1089,725 1090,725 1090,725 1091,725 1091,725 1091,725 1092,725 1092,725 1092,725 1092,725 1093,725 1093,725 1094,725 1094,725 1094,725 1094,725 1095,725 1095,725 1095,725 1096,725 1096,725 1097,725 1097,725 1097,725 1097,725 1099,725 1099,726 1100,726 1100,726 1100,726 1101,726 1101,726 1101,726 1102,726 1102,726 1103,726 1103,726 1103,726 1103,726 1104,726 1104,726 1104,726 1105,726 1105,726 1105,726 1105,726 1106,726 1106,726 1106,726 1107,726 1107,726 1107,726 1107,726 1108,726 1108,726 1108,726 1109,726 1109,726 1109,726 1110,726 1110,726 1110,726 1111,726 1111,726 1111,726 1111,726 1112,726 1112,726 1112,726 1112,726 1113,726 1113,726 1113,726 1114,726 1114,726 1115,726 1115,726 1115,726 1116,726 1116,726 1116,726 1116,726 1117,726 1117,726 1117,726 1118,726 1118,726 1119,726 1119,726 1119,726 1119,726 1120,726 1120,726 1120,726 1121,726 1121,726 1122,726 1122,726 1122,726 1123,726 1123,726 1123,726 1123,726 1124,726 1124,726 1124,726 1125,726 1125,726 1125,726 1125,726 1126,726 1126,726 1127,726 1127,726 1128,726 1128,726 1128,726 1129,726 1129,726 1129,726 1129,726 1130,726 1130,726 1130,726 1130,726 1131,726 1131,726 1131,726 1132,726 1132,726 1132,726 1132,726 1133,726 1133,726 1133,726 1134,726 1134,726 1134,726 1134,726 1135,726 1135,726 1135,726 1135,726 1136,726 1136,726 1136,726 1136,726 1137,726 1137,726 1137,726 1138,726 1138,726 1138,726 1139,726 1139,726 1140,726 1140,727 1140,727 1141,727 1141,727 1141,727 1141,727 1142,727 1142,727 1142,727 1142,727 1143,727 1143,727 1143,727 1144,727 1144,727 1144,727 1144,727 1144,727 1144,727 1145,727 1147,727 1147,727 1147,727 1148,727 1148,727 1148,727 1148,727 1149,727 1149,727 1149,727 1150,727 1150,727 1150,727 1150,727 1151,727 1151,727 1151,727 1151,727 1152,727 1152,727 1152,727 1152,727 1153,727 1153,727 1153,727 1153,727 1154,727 1154,727 1154,727 1154,727 1155,727 1155,727 1155,727 1156,727 1156,727 1156,727 1157,727 1157,727 1157,727 1157,727 1158,727 1158,727 1158,727 1158,727 1159,727 1159,727 1159,727 1160,727 1161,727 1162,727 1162,727 1162,727 1163,727 1163,727 1163,727 1163,727 1164,727 1164,727 1164,727 1165,727 1165,727 1165,727 1168,728 1168,728 1169,728 1169,728 1169,728 1169,728 1170,728 1170,728 1170,728 1172,728 1172,728 1172,728 1173,728 1173,727 1173,727 1173,728 1174,728 1174,727 1174,727 1174,727 1175,727 1175,727 1175,727 1176,727 1176,727 1176,727 1176,727 1177,727 1177,727 1177,727 1178,727 1178,727 1178,727 1178,727 1179,727 1180,728 1180,728 1180,728 1180,728 1181,728 1181,728 1181,728 1181,728 1183,728 1183,728 1183,728 1184,728 1184,728 1184,728 1185,728 1185,728 1186,728 1186,728 1187,728 1187,728 1187,728 1188,728 1188,728 1188,728 1189,728 1189,728 1189,728 1189,728 1190,728 "/>
<polyline fill="none" opacity="1" stroke="#BDE619" stroke-width="2" points="124,735 148,732 167,729 170,726 181,724 188,718 189,722 191,719 196,717 198,714 200,712 206,709 210,707 214,705 218,703 223,701 225,699 226,697 226,694 227,692 228,689 229,687 232,685 232,678 234,676 237,672 238,670 240,665 246,665 248,663 250,661 250,659 251,657 253,655 254,651 259,651 259,649 260,647 261,645 264,644 264,642 265,640 266,638 266,636 270,635 272,634 272,630 273,629 274,627 277,624 277,622 281,622 283,619 286,619 286,615 287,614 287,610 288,608 289,607 289,608 291,606 291,605 292,603 293,602 294,601 295,601 297,600 297,598 298,599 299,597 300,596 301,593 304,593 307,593 308,592 309,594 310,593 312,592 313,591 314,590 314,591 315,590 315,588 316,587 316,587 317,586 318,583 319,582 319,582 322,583 322,583 323,583 324,584 325,584 325,581 326,581 326,578 327,579 328,578 328,578 329,578 329,578 330,577 332,577 333,578 333,578 334,578 334,579 335,579 337,578 338,577 338,578 339,578 339,576 340,577 340,577 341,576 341,576 342,576 342,576 343,577 343,574 344,574 344,574 345,575 345,575 346,574 346,573 347,571 348,569 348,568 349,568 349,566 350,565 350,566 351,563 353,564 353,564 354,561 354,559 355,559 355,559 356,557 357,555 357,553 358,553 360,555 361,550 361,549 362,547 362,545 364,543 365,543 365,543 366,542 366,540 367,539 368,539 368,540 369,538 369,537 370,537 370,535 371,534 371,533 372,531 373,532 374,531 374,530 375,530 375,531 376,530 376,529 376,528 377,528 378,528 378,527 379,527 380,524 380,525 381,524 381,521 382,520 382,521 383,520 383,518 384,518 384,518 385,517 386,385 387,383 388,384 388,382 389,380 389,380 390,379 391,380 391,379 392,380 392,376 393,375 393,375 394,373 394,372 395,370 395,368 396,365 396,366 397,365 397,365 398,364 398,364 399,366 399,364 400,365 400,364 401,363 401,361 402,359 402,357 403,357 403,355 404,350 404,350 405,349 406,347 406,346 407,327 408,327 408,326 409,326 410,326 410,326 411,326 411,327 412,328 412,328 414,328 414,328 415,327 415,328 416,328 416,327 417,328 417,328 418,325 418,324 419,322 419,324 420,323 421,324 421,323 421,321 422,320 422,320 423,319 423,319 424,319 424,319 425,318 426,319 426,318 427,317 428,316 428,314 429,311 429,312 430,312 430,313 431,312 431,312 432,312 432,313 433,312 434,307 434,308 435,308 435,308 436,308 436,307 437,308 437,308 438,309 438,309 439,307 439,308 440,308 440,308 441,309 441,308 442,308 442,307 443,307 443,307 444,307 444,306 445,307 445,308 446,309 447,307 447,307 448,305 448,306 449,307 449,305 450,305 450,301 451,302 451,301 452,302 452,301 453,299 453,299 454,300 454,297 455,295 455,293 456,292 456,290 457,289 457,288 458,288 458,286 459,286 459,285 460,284 460,284 461,282 461,283 462,281 462,278 463,278 463,277 464,275 464,274 465,274 465,273 466,271 466,270 466,271 467,270 467,270 468,271 468,271 469,271 469,270 470,269 470,268 471,269 471,268 472,268 472,266 473,266 473,266 474,262 474,262 475,263 475,263 476,263 476,264 477,262 477,263 478,263 478,262 479,261 479,261 480,261 480,259 481,255 481,253 482,252 482,251 483,253 484,252 484,252 485,251 485,250 486,250 486,248 487,246 487,246 488,244 488,243 489,243 489,241 490,241 490,240 491,239 491,240 492,240 492,239 493,237 493,238 494,236 494,235 495,235 495,233 496,233 496,233 497,233 497,232 498,232 498,229 499,230 499,230 500,230 500,231 501,231 501,230 502,230 502,231 503,231 503,227 504,228 504,228 505,226 505,222 506,222 506,222 507,221 507,223 508,224 508,222 509,224 509,223 510,224 510,223 511,225 511,224 512,223 512,223 512,224 513,223 513,220 514,220 514,220 515,219 515,220 516,218 516,219 517,217 517,217 518,217 518,216 519,216 519,217 520,217 520,217 521,216 521,214 522,213 522,211 523,210 523,209 524,208 524,207 525,207 525,208 526,206 526,207 527,208 527,208 528,207 528,208 529,209 529,209 530,210 530,210 531,209 531,208 532,208 532,209 533,208 533,208 534,208 534,206 535,205 535,205 536,204 536,205 537,205 537,205 538,204 538,204 539,201 539,199 540,198 540,198 541,198 541,197 542,196 542,195 543,196 543,197 544,196 544,196 545,196 545,195 546,195 546,195 547,195 547,194 548,194 548,195 549,195 549,195 550,194 550,194 551,193 551,192 552,191 552,192 553,191 553,191 554,191 554,191 555,190 555,190 556,191 556,190 557,191 557,190 557,191 558,191 558,189 559,189 559,188 560,188 560,187 561,188 561,189 562,190 562,190 563,190 563,190 564,187 564,188 565,188 565,189 566,188 566,188 567,188 567,187 568,187 568,187 569,185 569,185 570,185 570,183 571,184 571,184 572,185 572,186 573,185 573,185 574,184 574,184 575,174 575,172 576,170 576,171 577,171 577,170 578,171 578,171 579,169 579,168 580,168 580,167 581,167 581,166 582,165 582,165 583,165 583,163 584,163 584,164 585,165 585,166 586,164 586,165 587,165 587,165 588,163 588,163 589,163 589,162 590,161 590,161 591,161 591,158 592,158 592,157 593,156 593,155 594,156 594,156 595,157 595,158 596,158 596,158 597,159 597,158 598,157 598,158 599,158 599,157 600,158 600,158 601,157 601,157 602,157 602,157 602,157 603,158 603,155 604,156 604,155 605,156 605,157 606,157 606,155 607,155 607,156 608,156 608,156 609,156 609,156 610,156 610,156 611,155 611,154 612,155 612,152 613,150 613,150 614,150 614,150 615,148 615,147 616,148 616,146 617,147 617,148 618,148 618,145 619,145 619,145 620,145 620,146 621,146 621,147 622,146 622,146 623,147 623,147 624,146 624,146 625,146 625,146 626,147 626,148 627,148 627,148 628,149 628,147 629,149 629,148 630,148 630,146 631,147 631,147 632,147 632,146 633,146 633,146 634,145 634,145 635,144 635,142 636,142 636,144 637,145 637,144 638,134 638,134 639,132 639,132 640,132 640,131 641,130 641,130 642,130 642,129 643,128 643,127 644,125 644,124 645,123 645,122 646,122 646,121 647,121 647,121 647,122 648,123 648,122 649,123 649,122 650,122 650,122 651,119 651,119 652,119 652,118 653,117 653,118 654,118 654,118 655,116 655,116 656,117 656,116 657,114 657,113 658,115 658,115 659,115 659,116 660,116 660,116 661,117 661,115 662,115 662,116 663,117 663,116 664,116 664,116 665,116 665,114 666,114 666,114 667,114 667,112 668,111 668,112 669,113 669,113 670,113 670,113 671,112 671,113 672,113 672,113 673,112 673,112 674,113 674,114 675,114 675,113 676,113 676,113 677,113 677,113 678,112 678,112 679,113 679,113 680,114 680,114 681,115 681,116 682,116 682,117 683,117 683,117 684,117 684,117 685,117 685,116 686,116 686,115 687,114 687,114 688,115 688,115 689,115 689,115 690,114 690,114 691,114 691,115 692,113 692,113 692,113 693,113 693,113 694,114 694,113 695,113 695,112 696,111 696,112 697,111 697,111 698,111 698,110 699,110 699,110 700,109 700,110 701,110 701,110 702,109 702,109 703,108 703,108 704,107 704,107 705,107 705,104 706,104 706,105 707,105 707,105 708,105 708,104 709,103 709,103 710,102 710,103 711,103 711,103 712,101 712,100 713,99 713,100 714,99 714,100 715,100 715,98 716,97 716,97 717,97 717,96 718,96 718,97 719,97 719,96 720,97 720,97 721,97 721,95 722,95 722,95 723,96 723,95 724,95 724,95 725,95 725,95 726,96 726,97 727,98 727,98 728,98 728,99 729,98 729,99 730,99 730,102 731,102 731,102 732,102 732,101 733,101 733,102 734,102 734,102 735,103 735,103 736,104 736,105 737,106 737,106 738,105 738,105 738,105 739,109 739,110 740,110 740,110 741,110 741,113 742,113 742,114 743,114 743,115 744,114 744,113 745,112 745,112 746,112 746,112 747,110 747,110 748,109 748,110 749,111 749,111 750,111 750,111 751,110 751,109 752,108 752,109 753,109 753,107 754,109 754,108 755,108 755,108 755,106 756,106 756,106 757,107 757,106 758,105 758,106 759,106 759,105 760,105 760,105 761,106 761,105 762,105 762,106 763,107 763,107 764,95 764,101 765,95 765,95 766,94 766,95 767,95 767,97 768,95 768,93 769,94 769,94 770,94 770,95 771,94 771,94 772,94 772,93 773,93 773,93 774,94 774,94 775,94 775,94 776,94 776,94 777,92 777,93 778,93 778,92 779,92 779,93 780,92 780,92 781,91 781,91 782,91 782,91 783,91 783,91 783,91 784,92 784,91 785,91 785,92 786,91 786,91 787,91 787,91 788,92 788,91 789,92 789,91 790,91 790,91 791,90 791,90 792,91 792,92 793,91 793,92 794,93 794,92 795,93 795,93 796,93 796,93 797,93 797,94 798,93 798,93 799,93 799,93 800,93 800,93 801,93 801,95 802,94 802,93 803,92 803,91 804,89 804,89 805,90 805,89 806,88 806,111 807,112 807,112 808,87 808,87 809,87 809,87 810,88 810,88 811,87 811,87 812,86 812,87 813,87 813,88 814,86 814,85 815,86 815,86 816,86 816,86 817,86 817,86 818,86 818,86 819,87 819,87 820,87 820,87 821,87 821,87 822,87 822,88 823,88 823,87 824,86 824,87 825,87 825,88 826,87 826,87 827,87 827,88 828,89 828,89 828,89 829,89 829,90 830,90 830,89 831,90 831,90 832,89 832,89 833,89 833,90 834,89 834,88 835,89 835,89 836,88 836,88 837,89 837,89 838,88 838,89 839,89 839,90 840,90 840,90 841,90 841,90 842,90 842,90 843,89 843,90 844,89 844,89 845,88 845,87 846,88 846,88 847,88 847,88 848,88 848,87 849,88 849,88 850,87 850,87 851,87 851,87 852,88 852,88 853,88 853,88 854,88 854,88 855,89 855,89 856,88 856,89 857,89 857,88 858,88 858,87 859,87 859,87 860,85 860,85 861,85 861,85 862,85 862,85 863,84 863,84 864,86 864,86 865,87 865,87 866,88 866,88 867,89 867,89 868,89 868,90 869,91 869,91 870,91 870,90 871,88 871,89 872,89 872,88 873,89 873,88 873,88 874,88 874,88 875,88 875,87 876,88 876,87 877,87 877,87 878,86 878,86 879,86 879,86 880,86 880,86 881,86 881,86 882,86 882,85 883,86 883,85 884,85 884,85 885,85 885,85 886,85 886,84 887,85 887,85 888,86 888,86 889,84 889,84 890,83 890,83 891,83 891,83 892,83 892,85 893,85 893,85 894,86 894,79 895,79 895,80 896,79 896,79 897,78 897,78 898,78 898,78 899,77 899,77 900,76 900,76 901,77 901,76 902,75 902,76 903,76 903,75 904,76 904,76 905,77 905,77 906,77 906,76 907,78 907,78 908,78 908,79 909,78 909,78 910,78 910,79 911,79 911,79 912,79 912,79 913,79 913,79 914,78 914,77 915,77 915,78 916,77 916,77 917,78 917,79 918,78 918,78 918,78 919,78 919,78 920,78 920,79 921,79 921,79 922,80 922,80 923,80 923,81 924,81 924,82 925,82 925,81 926,81 926,81 927,81 927,81 928,81 928,81 929,81 929,81 930,81 930,81 931,81 931,80 932,80 932,80 933,82 933,82 934,82 934,83 935,83 935,83 936,84 936,84 937,84 937,84 938,85 938,84 939,84 939,84 940,84 940,84 941,85 941,86 942,85 942,84 943,84 943,84 944,85 944,85 945,85 945,86 946,85 946,85 946,86 947,87 947,87 948,86 948,87 949,87 949,88 950,88 950,88 951,88 951,88 952,89 952,88 953,88 953,88 954,88 954,89 955,88 955,88 956,88 956,89 957,88 957,88 958,88 958,87 959,87 959,87 960,88 960,88 961,86 961,86 962,87 962,87 963,87 963,87 964,87 964,87 964,88 965,88 965,88 966,87 966,87 967,87 967,87 968,87 968,88 969,87 969,88 970,88 970,89 971,89 971,89 972,89 972,90 973,90 973,90 974,90 974,90 975,91 975,91 976,92 976,92 977,92 977,93 978,94 978,93 979,93 979,91 980,91 980,91 981,91 981,92 982,91 982,91 983,92 983,93 984,93 984,93 985,93 985,93 986,93 986,94 987,94 987,93 988,94 988,94 989,93 989,92 990,93 990,93 991,94 991,94 992,95 992,95 993,95 993,94 994,95 994,95 995,95 995,95 996,95 996,94 997,94 997,94 998,93 998,94 999,94 999,94 1000,94 1000,95 1001,95 1001,95 1002,95 1002,94 1003,94 1003,95 1004,95 1004,95 1005,95 1005,94 1006,94 1006,94 1007,94 1007,94 1008,94 1008,94 1009,94 1009,95 1009,95 1010,94 1010,94 1011,94 1011,95 1012,95 1012,96 1013,96 1013,96 1014,96 1014,96 1015,96 1015,96 1015,97 1016,97 1016,97 1016,96 1017,96 1017,95 1017,95 1017,96 1018,96 1018,96 1018,96 1019,96 1019,96 1019,96 1019,96 1020,96 1020,96 1020,96 1020,95 1021,95 1021,95 1021,95 1021,95 1022,95 1022,94 1022,94 1022,94 1023,94 1023,93 1023,93 1024,93 1024,94 1024,94 1025,94 1025,94 1025,94 1025,95 1026,95 1026,95 1026,95 1026,95 1027,95 1027,95 1027,95 1027,96 1028,96 1028,96 1028,95 1029,95 1029,95 1029,96 1029,96 1030,96 1030,96 1030,96 1030,96 1031,96 1031,96 1031,96 1031,96 1032,96 1032,96 1032,96 1032,95 1033,95 1033,95 1033,96 1034,96 1034,96 1034,96 1034,96 1035,96 1035,97 1035,97 1035,97 1036,97 1036,97 1036,97 1036,97 1037,97 1037,97 1037,97 1037,97 1038,97 1038,97 1038,97 1038,98 1039,98 1039,98 1040,98 1040,98 1040,98 1040,99 1041,99 1041,98 1041,98 1041,98 1042,98 1042,98 1042,98 1042,98 1043,98 1043,98 1043,98 1043,98 1044,98 1044,98 1044,98 1045,98 1045,97 1045,97 1045,97 1046,97 1046,97 1046,97 1046,97 1047,97 1047,97 1047,97 1048,97 1048,98 1048,98 1048,98 1049,98 1049,97 1049,97 1049,97 1050,97 1050,98 1050,98 1050,97 1051,97 1051,98 1051,98 1051,98 1052,98 1052,98 1052,98 1052,98 1053,98 1053,98 1053,98 1053,98 1054,98 1054,98 1054,98 1054,98 1054,98 1054,97 1055,97 1055,97 1055,97 1055,98 1056,98 1056,97 1056,97 1057,97 1057,98 1057,98 1057,98 1058,98 1058,97 1058,97 1058,96 1059,96 1059,97 1059,97 1059,96 1060,96 1060,96 1060,96 1060,97 1061,97 1061,97 1061,97 1062,97 1062,97 1062,97 1062,96 1063,96 1063,95 1063,95 1063,96 1064,96 1064,96 1064,96 1065,96 1065,96 1065,96 1066,96 1066,96 1066,96 1067,96 1067,95 1067,95 1067,94 1068,94 1068,94 1068,94 1068,95 1069,95 1069,95 1069,95 1069,95 1070,95 1070,95 1070,95 1070,95 1071,95 1071,95 1071,95 1072,95 1072,95 1072,95 1072,95 1073,95 1073,95 1073,95 1073,95 1074,95 1074,95 1074,95 1074,96 1075,96 1075,95 1075,95 1075,95 1076,95 1076,94 1076,94 1076,94 1077,94 1077,94 1077,94 1077,94 1078,94 1078,88 1078,88 1078,88 1079,88 1079,88 1079,89 1080,89 1080,89 1080,89 1080,89 1081,89 1081,89 1081,89 1081,89 1082,89 1082,89 1082,89 1082,88 1083,88 1083,89 1083,89 1084,89 1084,89 1084,89 1084,90 1085,90 1085,90 1085,90 1085,89 1086,89 1086,89 1086,89 1086,89 1087,89 1087,90 1087,90 1087,90 1088,90 1088,89 1088,89 1088,89 1089,89 1089,89 1089,89 1089,90 1090,90 1090,89 1090,89 1090,90 1091,90 1091,90 1091,90 1091,90 1092,90 1092,90 1092,90 1092,89 1093,90 1093,90 1093,92 1094,92 1094,92 1094,92 1094,92 1095,92 1095,92 1095,92 1095,93 1096,93 1096,94 1096,94 1096,93 1097,93 1097,93 1097,93 1097,93 1098,93 1098,94 1098,94 1098,94 1099,94 1099,94 1099,94 1099,95 1099,95 1099,95 1100,95 1100,95 1100,95 1100,96 1101,96 1101,96 1101,96 1101,96 1102,96 1102,96 1102,96 1102,97 1103,97 1103,97 1103,97 1103,96 1104,96 1104,96 1104,96 1104,96 1105,96 1105,96 1105,96 1105,95 1106,95 1106,95 1106,94 1107,94 1107,94 1107,94 1107,94 1108,94 1108,94 1108,94 1109,94 1109,93 1109,93 1109,94 1110,94 1110,94 1110,94 1110,94 1111,94 1111,94 1111,94 1111,94 1112,94 1112,94 1112,94 1112,94 1113,94 1113,94 1113,94 1114,94 1114,94 1114,94 1114,94 1115,94 1115,94 1115,94 1115,94 1116,94 1116,94 1116,94 1116,94 1117,94 1117,95 1117,95 1117,94 1118,94 1118,94 1118,94 1118,94 1119,94 1119,93 1119,93 1119,93 1120,93 1120,93 1120,93 1120,93 1121,93 1121,93 1121,93 1121,94 1122,94 1122,93 1122,93 1122,93 1123,93 1123,94 1123,94 1123,95 1124,95 1124,95 1124,95 1124,94 1125,94 1125,95 1125,95 1125,95 1126,95 1126,95 1126,95 1126,96 1127,96 1127,96 1127,96 1127,95 1128,95 1128,95 1128,95 1128,96 1129,96 1129,96 1129,96 1129,96 1130,96 1130,96 1130,96 1130,96 1131,96 1131,96 1131,96 1131,96 1132,96 1132,95 1132,95 1132,95 1133,95 1133,96 1133,96 1133,96 1134,96 1134,96 1134,96 1134,96 1135,96 1135,96 1135,96 1135,96 1136,96 1136,96 1136,96 1136,96 1137,96 1137,96 1137,96 1138,96 1138,96 1138,96 1138,97 1139,97 1139,97 1139,97 1139,97 1140,97 1140,97 1140,97 1140,97 1141,97 1141,97 1141,97 1141,96 1142,96 1142,97 1142,97 1142,97 1143,97 1143,97 1143,97 1143,97 1144,97 1144,98 1144,98 1144,98 1144,98 1144,98 1145,98 1145,98 1145,98 1145,98 1146,98 1146,122 1146,122 1147,122 1147,122 1147,122 1147,122 1148,122 1148,122 1148,122 1148,122 1149,122 1149,122 1149,122 1150,122 1150,123 1150,123 1150,123 1151,123 1151,123 1151,123 1151,124 1152,124 1152,124 1152,124 1152,123 1153,123 1153,123 1153,123 1153,123 1154,123 1154,123 1154,123 1154,123 1155,123 1155,124 1155,124 1155,124 1156,124 1156,123 1156,123 1156,123 1157,123 1157,123 1157,123 1157,123 1158,123 1158,124 1158,124 1158,124 1159,124 1159,124 1159,124 1159,125 1160,125 1160,126 1160,126 1160,126 1161,126 1161,126 1161,126 1161,126 1162,126 1162,126 1162,126 1162,126 1163,126 1163,126 1163,126 1163,125 1164,125 1164,125 1164,125 1164,125 1165,125 1165,124 1165,124 1165,123 1166,123 1166,124 1166,124 1166,124 1167,124 1167,124 1167,124 1168,124 1168,124 1168,124 1168,124 1169,124 1169,121 1169,121 1169,121 1170,121 1170,121 1170,121 1170,121 1171,121 1171,121 1171,121 1171,122 1172,122 1172,122 1172,122 1172,122 1173,122 1173,122 1173,122 1173,122 1174,122 1174,121 1174,121 1174,120 1175,120 1175,120 1175,120 1175,119 1176,120 1176,120 1176,120 1176,120 1177,120 1177,119 1177,119 1177,119 1178,119 1178,119 1178,119 1178,119 1179,119 1179,120 1179,119 1179,119 1180,119 1180,119 1180,119 1180,119 1181,119 1181,119 1181,119 1181,120 1182,120 1182,119 1182,119 1182,120 1183,120 1183,120 1183,120 1183,120 1184,120 1184,119 1184,120 1184,120 1185,120 1185,120 1185,120 1185,120 1186,120 1186,121 1186,121 1186,121 1187,121 1187,121 1187,121 1187,121 1188,121 1188,121 1188,121 1188,122 1189,122 1189,122 1189,122 1189,122 1190,122 "/>
<polyline fill="none" opacity="1" stroke="#19E66B" stroke-width="2" points="60,647 60,659 61,671 68,688 74,656 74,643 80,639 83,624 87,612 91,612 92,606 93,644 94,638 97,641 101,631 106,631 107,626 113,627 116,624 117,630 120,633 131,633 135,627 136,624 137,625 138,626 140,623 142,625 143,626 144,627 144,627 147,625 147,630 148,631 149,631 149,627 150,624 150,625 150,625 151,619 152,609 152,609 153,610 153,607 154,607 154,608 155,608 155,609 156,609 156,610 157,606 157,607 158,608 158,608 159,609 160,609 161,610 161,607 162,608 162,608 163,609 163,605 164,602 165,603 165,604 166,604 166,598 167,598 168,599 168,599 169,593 169,590 170,591 171,591 171,589 172,589 172,590 173,590 173,591 174,591 174,591 175,591 175,592 176,590 178,591 179,591 179,591 180,596 181,593 182,594 182,591 183,589 183,586 184,586 185,587 186,588 187,589 187,589 188,587 188,587 189,588 190,589 190,586 191,584 193,585 193,586 194,586 194,584 195,584 195,584 196,585 196,586 197,586 197,586 198,587 198,587 199,588 200,583 200,580 201,581 201,581 202,581 203,581 203,582 204,582 204,583 205,580 205,581 206,581 207,581 208,571 209,572 210,570 211,568 211,568 212,568 212,569 213,569 213,567 214,567 214,567 215,568 215,568 216,568 216,568 217,569 218,569 219,570 219,570 220,568 220,568 221,569 221,569 222,569 222,570 223,570 223,570 224,569 225,570 225,570 226,568 227,569 227,569 228,569 228,569 229,570 229,570 230,571 231,571 231,571 232,572 232,572 233,572 233,568 234,568 236,569 236,569 237,569 237,567 238,568 238,568 239,569 240,569 240,568 241,563 241,563 242,564 242,555 243,555 243,556 244,551 244,552 245,553 245,553 246,553 247,554 247,554 248,554 249,555 249,555 250,553 250,551 251,549 251,550 252,550 252,548 253,549 253,549 254,550 254,548 255,548 256,549 256,549 257,550 257,550 258,551 258,549 259,550 259,550 260,550 260,550 261,551 261,551 262,551 262,550 263,550 263,550 264,550 264,551 265,549 265,549 266,550 266,550 267,551 267,551 268,551 268,551 269,552 269,552 270,553 270,553 271,553 271,554 272,550 272,551 273,551 273,551 274,548 274,546 275,546 275,546 276,547 276,545 277,544 277,546 278,547 278,547 279,546 279,544 280,543 280,541 281,542 281,538 282,538 282,539 283,539 283,539 284,540 285,540 285,539 286,539 286,540 286,538 287,539 288,538 288,539 289,539 289,540 290,540 290,540 291,541 291,538 292,538 292,538 293,539 293,537 294,537 294,538 295,538 295,536 296,537 296,536 297,536 297,536 298,537 298,537 299,535 299,534 300,534 300,535 301,535 301,536 302,536 302,535 303,536 303,534 304,535 304,535 305,536 305,537 306,537 306,537 307,537 307,538 308,538 308,538 309,539 309,539 310,539 310,540 311,540 311,539 312,539 312,539 313,539 313,536 314,537 314,535 316,536 316,537 317,535 317,536 318,535 318,533 319,534 319,532 320,533 320,534 321,534 321,535 322,535 322,535 323,536 323,536 324,535 324,535 325,535 325,536 326,534 326,533 327,533 327,534 328,534 328,533 329,533 329,533 330,534 330,533 331,533 331,533 331,534 332,534 333,532 334,532 334,533 335,533 335,534 336,532 336,533 337,533 337,533 338,532 338,533 339,533 340,533 340,534 341,534 341,533 342,533 342,534 343,534 343,534 344,535 344,535 345,536 345,536 346,536 346,535 347,536 347,536 348,536 348,537 349,537 349,537 350,539 350,538 351,537 351,539 352,539 352,540 353,540 353,538 354,539 354,539 355,539 355,538 356,538 356,539 357,539 357,539 358,539 358,540 359,539 359,539 360,538 360,538 361,538 361,539 362,538 362,538 363,538 363,539 364,539 364,539 365,540 365,540 366,541 366,541 367,540 367,540 368,539 368,537 369,537 369,537 370,537 370,538 371,538 371,538 372,539 372,539 373,539 373,539 374,540 374,540 375,540 375,539 376,540 376,539 376,539 377,540 377,540 378,539 378,538 379,537 379,538 380,538 380,539 381,539 381,538 382,537 382,537 383,537 383,538 384,538 384,538 385,539 385,539 386,540 386,544 387,544 387,545 388,544 388,544 389,544 389,545 390,545 390,544 391,544 391,545 392,544 392,544 393,544 393,545 394,545 394,545 395,546 395,546 396,546 397,547 397,547 398,547 398,545 399,546 399,547 400,547 400,547 401,547 401,549 402,549 402,548 403,549 403,549 404,550 404,551 405,551 405,551 406,550 406,550 407,550 407,551 408,551 408,550 409,550 409,551 410,551 410,551 411,551 411,549 412,549 412,550 413,549 413,549 414,549 414,549 415,550 415,550 416,550 416,551 417,551 417,551 418,552 418,552 419,551 419,551 420,551 420,552 421,552 421,551 421,553 422,553 422,553 423,553 423,552 424,553 424,553 425,553 425,552 426,552 426,552 427,551 427,551 428,551 428,552 429,552 429,551 430,551 430,551 431,552 431,552 432,552 432,551 433,551 433,550 434,551 434,551 435,551 435,552 436,552 437,552 437,552 438,553 438,553 439,553 439,554 440,554 440,552 441,553 441,553 442,553 442,554 443,554 443,552 444,552 444,551 445,551 445,550 446,548 446,549 447,549 447,549 448,549 448,550 449,549 449,550 450,550 450,550 451,549 451,550 452,550 452,550 453,552 453,552 454,552 454,553 455,553 455,554 456,554 456,554 457,554 457,554 458,554 458,555 459,555 459,555 460,556 460,556 461,556 461,556 462,558 462,558 463,557 463,557 464,557 464,557 465,558 465,558 466,558 466,558 466,559 467,558 467,558 468,559 468,559 469,559 469,560 470,560 470,560 471,560 471,560 472,560 472,561 473,562 473,563 474,563 474,564 475,565 475,565 476,563 476,565 477,565 477,565 478,565 478,566 479,566 479,566 480,566 480,566 481,566 481,567 482,568 482,568 483,568 483,569 484,569 484,569 485,570 485,570 486,571 486,571 487,571 487,571 488,571 488,571 489,570 489,570 490,570 490,570 491,570 491,571 492,571 492,571 493,571 493,572 494,572 494,572 495,572 495,572 496,572 496,572 497,573 497,572 498,572 498,573 499,573 499,573 500,573 500,574 501,574 501,574 502,574 502,574 503,575 503,575 504,576 504,576 505,574 505,575 506,576 506,576 507,576 507,575 508,575 508,574 509,575 509,574 510,574 510,573 511,575 511,575 512,575 512,575 512,576 513,577 513,577 514,576 514,576 515,576 515,576 516,577 516,577 517,578 517,579 518,578 518,578 519,579 519,579 520,579 520,580 521,580 521,579 522,580 522,580 523,580 523,580 524,580 524,580 525,580 525,581 526,580 526,581 527,581 527,581 528,581 528,582 529,581 529,581 530,582 530,582 531,582 531,582 532,582 532,582 533,582 533,582 534,583 534,583 535,583 535,583 536,583 536,583 537,584 537,584 538,584 538,584 539,585 539,585 540,585 540,586 541,586 541,586 542,586 542,586 543,587 543,587 544,587 544,587 545,587 545,587 546,587 546,587 547,588 547,588 548,588 548,588 549,589 549,589 550,589 550,589 551,589 551,589 552,590 552,590 553,590 553,590 554,590 554,590 555,590 555,591 556,591 556,591 557,591 557,591 557,591 558,592 558,592 559,592 559,592 560,592 560,593 561,593 561,593 562,593 562,593 563,593 563,593 564,593 564,594 565,594 565,594 566,593 566,594 567,594 567,593 568,594 568,595 569,594 569,594 570,594 570,594 571,595 571,595 572,595 572,595 573,595 573,596 574,596 574,596 575,597 575,597 576,597 576,597 577,597 577,598 578,598 578,598 579,597 579,598 580,598 580,598 581,598 581,598 582,599 582,599 583,600 583,600 584,600 584,601 585,601 585,601 586,601 586,600 587,600 587,600 588,600 588,600 589,601 589,601 590,601 590,601 591,602 591,602 592,602 592,602 593,602 593,603 594,603 594,603 595,603 595,604 596,604 596,604 597,604 597,604 598,605 598,605 599,605 599,604 600,605 600,605 601,605 602,605 602,605 602,606 603,605 603,605 604,605 604,605 605,606 605,606 606,606 606,607 607,607 607,607 608,607 608,606 609,606 609,606 610,606 610,607 611,607 611,607 612,607 612,608 613,608 613,608 614,608 614,608 615,608 615,608 616,608 616,608 617,608 617,608 618,608 618,608 619,608 619,609 620,609 620,608 621,608 621,609 622,609 622,609 623,609 623,609 624,609 624,609 625,609 625,609 626,609 626,609 627,609 627,609 628,608 628,609 629,609 629,609 630,609 630,610 631,610 631,610 632,610 632,610 633,610 633,610 634,611 634,611 635,611 635,610 636,611 636,611 637,611 637,611 638,612 638,612 639,612 639,612 640,612 640,613 641,613 641,613 642,613 642,613 643,614 643,614 644,614 644,614 645,614 645,614 646,614 646,614 647,615 647,615 647,614 648,615 648,615 649,615 649,615 650,615 650,616 651,616 651,616 652,616 652,616 653,616 653,616 654,616 654,616 655,616 655,616 656,617 656,617 657,617 657,617 658,617 658,617 659,617 659,617 660,617 660,618 661,618 661,618 662,618 662,618 663,618 663,619 664,619 664,619 665,619 665,620 666,620 666,620 667,620 667,620 668,621 668,620 669,621 669,621 670,621 670,621 671,621 671,621 672,621 672,621 673,621 673,621 674,622 674,621 675,621 675,622 676,622 676,622 677,623 677,623 678,623 678,623 679,623 679,623 680,623 680,623 681,624 681,624 682,624 682,624 683,624 683,625 684,625 684,625 685,625 685,625 686,624 686,624 687,624 687,625 688,625 688,625 689,626 689,626 690,626 690,625 691,625 691,625 692,626 692,626 692,626 693,626 693,626 694,626 694,626 695,626 695,626 696,626 696,626 697,627 697,627 698,627 698,627 699,627 699,627 700,627 700,627 701,627 701,628 702,627 702,627 703,627 703,628 704,628 704,628 705,628 705,628 706,628 706,628 707,628 707,629 708,629 708,628 709,628 709,628 710,629 710,629 711,628 711,628 712,629 712,629 713,629 713,629 714,629 714,628 715,628 715,628 716,628 716,629 717,628 717,628 718,629 718,629 719,629 719,629 720,629 720,629 721,629 721,629 722,629 722,630 723,630 723,629 724,629 724,629 725,630 725,630 726,630 726,630 727,630 727,630 728,630 728,630 729,630 729,630 730,631 730,631 731,631 731,632 732,632 732,632 733,631 733,632 734,632 734,632 735,632 735,632 736,632 736,632 737,632 737,632 738,632 738,632 738,632 739,633 739,633 740,633 740,633 741,634 741,634 742,634 742,634 743,635 743,635 744,635 744,635 745,635 745,635 746,635 746,636 747,636 747,636 748,636 748,636 749,637 749,637 750,637 750,637 751,637 751,637 752,636 752,636 753,637 753,637 754,637 754,637 755,637 755,637 755,637 756,637 756,637 757,637 757,637 758,637 758,637 759,637 759,637 760,637 760,638 761,638 761,638 762,638 762,638 763,638 763,638 764,638 764,639 765,638 765,638 766,638 766,639 767,639 767,639 768,639 768,639 769,639 769,639 770,639 770,639 771,639 771,639 772,639 772,639 773,639 773,639 774,639 774,640 775,640 775,640 776,640 776,640 777,640 777,639 778,639 778,640 779,640 779,640 780,640 780,640 781,640 781,640 782,640 782,640 783,640 783,640 783,640 784,640 784,640 785,640 785,640 786,640 786,641 787,641 787,641 788,641 788,641 789,641 789,641 790,641 790,641 791,641 791,641 792,641 792,641 793,641 793,641 794,641 794,641 795,641 795,641 796,641 796,641 797,641 797,641 798,641 798,642 799,642 799,642 800,642 800,642 801,642 801,642 802,642 802,642 803,642 803,642 804,643 804,643 805,643 805,643 806,644 806,647 807,647 807,647 808,644 808,644 809,644 809,644 810,644 810,644 811,644 811,644 812,644 812,644 813,644 813,645 814,645 814,645 815,645 815,645 816,645 816,645 817,645 817,645 818,645 818,646 819,646 819,646 820,646 820,646 821,646 821,646 822,647 822,647 823,647 823,647 824,647 824,647 825,647 825,647 826,647 826,647 827,647 827,648 828,648 828,648 828,648 829,648 829,648 830,648 830,649 831,649 831,649 832,649 832,649 833,649 833,649 834,649 834,649 835,649 835,649 836,650 836,650 837,650 837,650 838,650 838,650 839,650 839,650 840,650 840,650 841,651 841,651 842,651 842,651 843,651 843,651 844,651 844,651 845,651 845,652 846,651 846,651 847,652 847,652 848,652 848,652 849,652 849,652 850,652 850,652 851,652 851,652 852,653 852,653 853,653 853,653 854,653 854,653 855,653 855,653 856,653 856,653 857,653 857,653 858,654 858,654 859,654 859,654 860,654 860,654 861,654 861,654 862,654 862,654 863,654 863,655 864,655 864,655 865,655 865,655 866,656 866,656 867,656 867,656 868,656 868,656 869,656 869,656 870,656 870,656 871,656 871,656 872,657 872,657 873,657 873,657 873,657 874,657 874,657 875,657 875,657 876,657 876,657 877,657 877,657 878,658 878,658 879,658 879,658 880,658 880,658 881,658 881,658 882,658 882,658 883,658 883,659 884,659 884,659 885,659 885,659 886,659 886,659 887,660 887,660 888,660 888,660 889,660 889,660 890,660 890,660 891,660 891,660 892,660 892,660 893,660 893,660 894,660 894,661 895,661 895,661 896,661 896,661 897,661 897,661 898,661 898,661 899,661 899,661 900,662 900,662 901,662 901,662 902,662 902,662 903,662 903,663 904,663 904,663 905,663 905,663 906,663 906,663 907,664 907,664 908,664 908,664 909,664 909,664 910,664 910,664 911,664 911,664 912,664 912,664 913,664 913,665 914,665 914,665 915,665 915,665 916,665 916,665 917,665 917,665 918,665 918,665 918,665 919,665 919,665 920,665 920,665 921,665 921,665 922,665 922,665 923,666 923,666 924,666 924,666 925,666 925,666 926,666 926,666 927,666 927,667 928,667 928,667 929,667 929,667 930,667 930,667 931,667 931,667 932,667 932,667 933,667 933,668 934,668 934,668 935,668 935,668 936,668 936,668 937,668 937,668 938,668 938,668 939,668 939,668 940,669 940,669 941,669 941,669 942,669 942,669 943,669 943,669 944,669 944,669 945,669 945,669 946,669 946,669 946,669 947,669 947,669 948,669 948,669 949,669 949,670 950,670 950,670 951,670 951,670 952,670 952,670 953,670 953,670 954,670 954,670 955,670 955,670 956,671 956,671 957,671 957,671 958,671 958,671 959,671 959,671 960,671 960,671 961,672 961,672 962,672 962,672 963,673 963,673 964,673 964,673 964,673 965,673 965,673 966,673 966,673 967,673 967,673 968,673 968,673 969,673 969,673 970,674 970,674 971,673 971,674 972,674 972,674 973,674 973,674 974,674 974,674 975,674 975,674 976,674 976,674 977,674 977,674 978,675 978,675 979,675 979,675 980,675 980,675 981,675 981,675 982,675 982,675 983,675 983,675 984,676 984,676 985,676 985,676 986,676 986,676 987,676 987,676 988,677 988,676 989,676 989,676 990,676 990,676 991,676 991,676 992,676 992,677 993,677 993,677 994,677 994,677 995,677 995,677 996,677 996,677 997,677 997,677 998,677 998,677 999,677 999,678 1000,678 1000,678 1001,678 1001,678 1002,678 1002,678 1003,678 1003,678 1004,678 1004,678 1005,678 1005,678 1006,679 1006,679 1007,679 1007,679 1008,679 1008,679 1009,679 1009,679 1009,679 1010,679 1010,679 1011,679 1011,680 1012,680 1012,680 1013,680 1013,680 1014,680 1014,680 1015,680 1015,680 1015,680 1016,680 1016,680 1016,680 1017,680 1017,681 1017,681 1017,681 1018,680 1018,680 1018,680 1019,680 1019,681 1019,681 1019,681 1020,681 1020,681 1020,681 1020,681 1021,681 1021,681 1021,681 1021,681 1022,681 1022,681 1022,681 1022,681 1023,681 1023,682 1023,682 1024,682 1024,682 1024,682 1025,682 1025,682 1025,682 1025,682 1026,682 1026,682 1026,682 1026,682 1027,682 1027,682 1027,682 1027,682 1028,682 1028,682 1028,682 1029,682 1029,682 1029,682 1029,682 1030,682 1030,683 1030,683 1030,683 1031,683 1031,683 1031,683 1031,683 1032,683 1032,683 1032,683 1032,683 1033,683 1033,683 1033,683 1034,683 1034,683 1034,683 1034,683 1035,683 1035,683 1035,683 1035,683 1036,683 1036,683 1036,683 1036,683 1037,683 1037,684 1037,684 1037,684 1038,684 1038,684 1038,684 1038,684 1039,684 1039,684 1040,684 1040,684 1040,684 1040,684 1041,684 1041,684 1041,684 1041,684 1042,684 1042,684 1042,684 1042,684 1043,684 1043,684 1043,684 1043,684 1044,684 1044,684 1044,684 1045,684 1045,684 1045,684 1045,684 1046,684 1046,684 1046,684 1046,684 1047,684 1047,684 1047,685 1048,685 1048,685 1048,685 1048,685 1049,685 1049,685 1049,685 1049,685 1050,685 1050,685 1050,685 1050,685 1051,685 1051,685 1051,685 1051,685 1052,685 1052,685 1052,685 1052,685 1053,685 1053,686 1053,686 1053,686 1054,686 1054,686 1054,686 1054,686 1054,686 1054,686 1055,686 1055,686 1055,686 1055,686 1056,686 1056,686 1056,686 1057,686 1057,686 1057,686 1057,686 1058,686 1058,687 1058,687 1058,687 1059,687 1059,686 1059,686 1059,687 1060,687 1060,687 1060,687 1060,687 1061,687 1061,687 1061,687 1062,687 1062,687 1062,687 1062,687 1063,687 1063,687 1063,687 1063,687 1064,687 1064,687 1064,687 1065,687 1065,687 1065,687 1066,687 1066,687 1066,687 1067,687 1067,687 1067,687 1067,687 1068,687 1068,687 1068,687 1068,687 1069,687 1069,687 1069,687 1069,687 1070,687 1070,688 1070,688 1070,688 1071,688 1071,688 1071,688 1072,688 1072,688 1072,688 1072,688 1073,688 1073,688 1073,688 1073,688 1074,688 1074,688 1074,688 1074,688 1075,688 1075,688 1075,688 1075,688 1076,688 1076,688 1076,688 1076,688 1077,688 1077,688 1077,688 1077,688 1078,688 1078,688 1078,688 1078,688 1079,688 1079,688 1079,688 1080,688 1080,689 1080,689 1080,689 1081,689 1081,689 1081,689 1081,689 1082,689 1082,689 1082,689 1082,689 1083,689 1083,689 1083,689 1084,689 1084,689 1084,689 1084,689 1085,689 1085,689 1085,689 1085,689 1086,689 1086,689 1086,689 1086,689 1087,689 1087,689 1087,689 1087,689 1088,689 1088,689 1088,689 1088,689 1089,689 1089,690 1089,690 1089,690 1090,690 1090,690 1090,690 1090,690 1091,690 1091,690 1091,690 1091,690 1092,690 1092,690 1092,690 1092,690 1093,690 1093,690 1093,690 1094,690 1094,690 1094,690 1094,690 1095,690 1095,690 1095,690 1095,690 1096,690 1096,690 1096,690 1096,690 1097,690 1097,691 1097,691 1097,691 1098,691 1098,691 1098,691 1098,691 1099,691 1099,691 1099,691 1099,691 1099,691 1099,691 1100,691 1100,691 1100,691 1100,691 1101,691 1101,691 1101,691 1101,691 1102,691 1102,691 1102,691 1102,691 1103,691 1103,691 1103,691 1103,691 1104,691 1104,691 1104,691 1104,692 1105,692 1105,692 1105,692 1105,692 1106,692 1106,692 1106,692 1107,692 1107,692 1107,692 1107,692 1108,692 1108,692 1108,692 1109,692 1109,692 1109,692 1109,692 1110,692 1110,692 1110,692 1110,692 1111,692 1111,692 1111,692 1111,692 1112,692 1112,692 1112,692 1112,692 1113,692 1113,692 1113,692 1114,692 1114,693 1114,693 1114,693 1115,693 1115,693 1115,693 1115,693 1116,693 1116,693 1116,693 1116,693 1117,693 1117,693 1117,693 1117,693 1118,693 1118,693 1118,693 1118,693 1119,693 1119,693 1119,693 1119,693 1120,693 1120,693 1120,693 1120,693 1121,693 1121,693 1121,693 1121,693 1122,693 1122,693 1122,693 1122,693 1123,693 1123,693 1123,693 1123,694 1124,694 1124,694 1124,694 1124,694 1125,694 1125,694 1125,694 1125,694 1126,694 1126,694 1126,694 1126,694 1127,694 1127,694 1127,694 1127,694 1128,694 1128,694 1128,694 1128,694 1129,694 1129,694 1129,694 1129,694 1130,694 1130,694 1130,694 1130,694 1131,694 1131,694 1131,694 1131,694 1132,694 1132,694 1132,694 1132,694 1133,694 1133,694 1133,694 1133,694 1134,694 1134,694 1134,694 1134,694 1135,694 1135,694 1135,694 1135,694 1136,694 1136,694 1136,694 1136,694 1137,694 1137,694 1137,694 1138,694 1138,694 1138,694 1138,694 1139,694 1139,695 1139,695 1139,695 1140,695 1140,695 1140,695 1140,695 1141,695 1141,695 1141,695 1141,695 1142,695 1142,695 1142,695 1142,695 1143,695 1143,695 1143,695 1143,695 1144,695 1144,695 1144,695 1144,695 1144,695 1144,695 1145,695 1145,695 1145,695 1145,695 1146,695 1146,697 1146,697 1147,697 1147,697 1147,697 1147,697 1148,697 1148,697 1148,697 1148,697 1149,697 1149,697 1149,697 1150,697 1150,697 1150,697 1150,697 1151,697 1151,697 1151,697 1151,697 1152,697 1152,698 1152,698 1152,698 1153,698 1153,698 1153,698 1153,698 1154,698 1154,698 1154,698 1154,698 1155,698 1155,698 1155,698 1155,698 1156,698 1156,698 1156,698 1156,698 1157,698 1157,698 1157,698 1157,698 1158,698 1158,698 1158,698 1158,698 1159,698 1159,698 1159,698 1159,698 1160,698 1160,698 1160,698 1160,698 1161,698 1161,698 1161,698 1161,698 1162,698 1162,698 1162,698 1162,698 1163,698 1163,699 1163,699 1163,699 1164,699 1164,698 1164,698 1164,699 1165,699 1165,699 1165,699 1165,699 1166,699 1166,699 1166,699 1166,699 1167,699 1167,699 1167,699 1168,699 1168,699 1168,699 1168,699 1169,699 1169,699 1169,699 1169,699 1170,699 1170,699 1170,699 1170,699 1171,699 1171,699 1171,699 1171,699 1172,699 1172,699 1172,699 1172,699 1173,699 1173,699 1173,699 1173,699 1174,699 1174,699 1174,699 1174,699 1175,699 1175,699 1175,699 1175,699 1176,699 1176,699 1176,699 1176,699 1177,699 1177,699 1177,699 1177,699 1178,699 1178,699 1178,699 1178,700 1179,700 1179,700 1179,700 1179,700 1180,700 1180,700 1180,700 1180,700 1181,700 1181,700 1181,700 1181,700 1182,700 1182,700 1182,700 1182,700 1183,700 1183,700 1183,700 1183,700 1184,700 1184,700 1184,700 1184,700 1185,700 1185,700 1185,700 1185,700 1186,700 1186,700 1186,700 1186,700 1187,700 1187,700 1187,700 1187,700 1188,700 1188,700 1188,700 1188,700 1189,700 1189,701 1189,701 1189,700 1190,700 "/>
<polyline fill="none" opacity="1" stroke="#196BE6" stroke-width="2" points="84,728 91,720 94,720 103,716 104,710 108,706 113,702 119,699 120,700 120,696 125,692 128,693 131,695 135,692 137,693 143,695 143,691 144,687 147,684 149,681 150,678 150,675 151,667 152,665 153,666 156,660 158,661 160,658 161,655 162,653 162,649 165,651 166,652 167,652 167,649 169,647 172,648 174,646 179,648 180,646 187,646 188,646 189,647 190,648 191,646 192,643 192,640 193,644 198,646 200,644 201,645 202,645 205,646 206,646 206,647 208,647 208,647 209,645 210,645 211,645 211,646 212,646 215,647 217,647 219,648 221,644 222,644 223,645 224,646 225,646 225,646 226,646 227,646 228,644 229,645 229,645 231,645 232,646 234,646 234,647 235,647 237,647 237,647 238,648 238,648 239,648 240,649 241,649 241,649 242,649 243,647 244,646 245,646 245,646 247,647 247,644 248,645 249,645 251,643 252,641 253,642 255,641 256,639 257,639 257,639 258,640 258,640 259,640 259,642 260,641 262,637 263,637 265,638 266,636 266,636 269,635 269,633 270,633 272,632 274,633 275,631 275,629 276,630 276,628 277,628 278,629 279,627 279,628 280,626 281,624 281,624 282,625 282,625 283,625 283,623 284,622 284,622 285,622 285,622 286,621 286,621 286,621 287,621 287,622 288,620 288,620 289,621 290,621 290,622 291,622 291,622 292,622 292,622 293,623 293,623 294,623 294,623 295,624 295,624 296,624 296,622 297,622 298,623 298,623 299,623 299,623 300,624 301,623 301,621 302,619 302,620 303,618 303,618 304,615 304,615 305,616 305,616 306,616 306,616 307,617 307,617 308,613 308,612 309,612 309,612 310,613 310,613 311,613 311,613 312,613 312,614 313,612 313,612 314,612 314,613 315,613 315,613 316,613 316,614 317,614 317,611 318,609 318,610 319,610 319,610 320,607 320,607 321,608 321,608 322,608 322,608 323,609 323,609 324,609 324,609 325,610 325,610 326,610 326,610 327,610 327,609 328,609 328,609 329,610 329,610 330,610 330,612 331,612 331,613 331,613 332,613 332,613 333,614 333,614 334,612 334,613 335,613 335,613 336,613 336,613 337,614 337,614 338,614 338,614 339,615 339,615 340,613 340,614 341,614 341,614 342,614 342,614 343,615 343,615 344,615 344,615 345,615 345,616 346,616 346,616 347,616 347,617 348,615 348,614 349,613 349,613 350,613 350,613 351,614 351,614 352,614 352,614 353,614 353,615 354,615 354,615 355,615 355,615 356,615 356,616 357,616 357,616 358,615 358,615 359,615 359,615 360,615 360,616 361,616 361,616 362,616 362,617 363,617 363,615 364,616 364,616 365,616 365,616 366,615 366,615 367,616 367,616 368,616 368,616 369,616 369,617 370,617 370,616 371,616 371,616 372,616 372,616 373,616 373,616 374,617 374,616 375,616 375,616 376,616 376,616 376,617 377,617 377,617 378,618 378,618 379,615 379,614 380,615 380,615 381,616 381,615 382,615 382,616 383,614 383,615 384,613 384,612 385,612 385,613 386,613 386,615 387,616 387,616 388,616 388,617 389,617 389,617 390,617 390,616 391,616 391,615 392,616 392,616 393,615 393,615 394,615 395,615 395,615 396,616 396,616 397,616 397,616 398,616 398,617 399,617 399,618 400,618 400,618 401,618 401,618 402,619 402,619 403,619 403,619 404,619 404,620 405,620 405,620 406,620 406,620 407,620 407,621 408,621 408,622 409,622 410,621 410,621 411,621 411,621 412,616 412,617 413,618 413,618 414,618 414,618 415,619 415,619 416,619 416,619 417,619 417,620 418,621 418,621 419,620 419,620 420,620 420,621 421,620 421,620 421,619 422,619 422,619 423,619 423,619 424,620 424,620 425,620 425,620 426,620 426,621 427,622 427,621 428,621 428,621 429,621 430,622 430,622 431,622 431,622 432,622 432,622 433,623 433,623 434,624 434,624 435,624 435,624 436,624 436,625 437,625 437,625 438,624 438,624 439,624 439,624 440,623 440,623 441,623 441,624 442,624 442,623 443,622 443,623 444,623 444,623 445,623 445,623 446,622 446,621 447,621 447,622 448,622 448,622 449,622 449,622 450,620 450,621 451,620 451,621 452,620 452,618 453,616 453,617 454,617 454,617 455,617 455,618 456,618 456,618 457,618 457,618 458,618 458,618 459,618 459,618 460,619 460,619 461,618 461,619 462,619 463,620 463,620 464,620 464,620 465,621 465,621 466,621 466,620 466,620 467,621 467,621 468,620 468,620 469,620 469,621 470,621 470,621 471,621 471,622 472,622 472,622 473,622 473,623 474,623 474,623 475,623 475,624 476,624 476,624 477,624 477,624 478,624 478,624 479,625 479,625 480,625 480,625 481,626 481,626 482,626 482,626 483,626 483,626 484,627 484,626 485,626 485,625 486,625 486,625 487,625 487,625 488,624 488,624 489,624 489,625 490,625 490,624 491,622 491,623 492,623 492,622 493,622 493,622 494,622 494,622 495,622 495,622 496,622 496,623 497,623 497,623 498,621 498,622 499,622 499,622 500,622 500,622 501,622 501,623 502,623 502,623 503,621 503,623 504,623 504,621 505,621 505,622 506,620 506,620 507,620 507,620 508,620 508,620 509,620 509,620 510,621 510,621 511,621 511,621 512,620 512,620 512,620 513,621 513,622 514,621 514,621 515,621 515,622 516,622 516,622 517,622 517,623 518,623 518,623 519,623 519,623 520,623 520,623 521,623 521,623 522,624 522,624 523,623 523,623 524,624 524,624 525,624 525,623 526,624 526,624 527,624 527,624 528,625 528,625 529,625 529,625 530,625 530,625 531,625 531,624 532,624 532,624 533,625 533,625 534,625 534,625 535,625 535,625 536,626 536,626 537,626 537,626 538,626 538,626 539,627 539,626 540,626 540,626 541,626 541,627 542,627 542,627 543,627 543,627 544,627 544,627 545,627 545,626 546,626 546,627 547,626 547,626 548,626 548,627 549,625 549,625 550,626 550,626 551,625 551,625 552,625 552,624 553,624 553,624 554,624 554,625 555,625 555,625 556,625 556,625 557,625 557,626 557,626 558,626 558,625 559,626 559,626 560,626 560,626 561,626 561,626 562,626 562,627 563,627 563,627 564,627 564,627 565,627 565,628 566,628 566,627 567,627 567,627 568,627 568,627 569,627 569,627 570,627 570,627 571,627 571,627 572,627 572,627 573,627 573,627 574,627 574,627 575,627 575,627 576,627 576,627 577,627 577,627 578,627 578,627 579,628 579,628 580,628 580,628 581,628 581,628 582,629 582,629 583,629 583,629 584,629 584,629 585,630 585,630 586,630 586,630 587,630 587,630 588,630 588,631 589,631 589,631 590,631 590,631 591,631 591,632 592,632 592,632 593,632 593,632 594,632 594,633 595,633 595,633 596,632 596,633 597,633 597,633 598,633 598,633 599,633 599,633 600,633 600,633 601,633 601,633 602,631 602,632 602,632 603,632 603,632 604,632 604,632 605,632 605,632 606,632 606,632 607,632 607,633 608,633 608,633 609,633 609,633 610,633 610,633 611,633 611,633 612,634 612,633 613,633 613,634 614,634 614,634 615,634 615,633 616,633 616,634 617,634 617,635 618,635 618,635 619,635 619,635 620,635 620,635 621,635 621,634 622,634 622,634 623,634 623,634 624,634 624,633 625,633 625,633 626,634 626,634 627,634 627,634 628,634 628,634 629,633 629,633 630,633 630,633 631,633 631,633 632,632 632,633 633,633 633,633 634,633 634,633 635,633 635,633 636,633 636,633 637,633 637,633 638,633 638,633 639,633 639,634 640,634 640,634 641,634 641,634 642,634 642,634 643,634 643,634 644,635 644,635 645,635 645,635 646,635 646,635 647,635 647,635 647,635 648,635 648,635 649,635 649,635 650,635 650,636 651,636 651,636 652,636 652,636 653,636 653,636 654,636 654,636 655,636 655,636 656,637 656,637 657,637 657,637 658,637 658,638 659,638 659,637 660,637 660,638 661,638 661,638 662,638 662,638 663,638 663,638 664,639 664,639 665,639 665,639 666,639 666,640 667,640 667,640 668,640 668,640 669,640 669,640 670,640 670,640 671,640 671,640 672,640 672,640 673,641 673,641 674,641 674,640 675,640 675,640 676,640 676,639 677,640 677,640 678,639 678,639 679,639 679,640 680,639 680,639 681,639 681,640 682,640 682,640 683,640 683,640 684,640 684,640 685,641 685,641 686,641 686,641 687,641 687,641 688,641 688,641 689,641 689,641 690,641 690,641 691,641 691,642 692,642 692,642 692,642 693,641 693,641 694,642 694,641 695,641 695,641 696,642 696,642 697,642 697,642 698,642 698,642 699,642 699,642 700,642 700,642 701,642 701,642 702,642 702,642 703,642 703,643 704,643 704,643 705,643 705,643 706,644 706,644 707,644 707,644 708,644 708,644 709,644 709,644 710,644 710,644 711,645 711,645 712,645 712,645 713,645 713,645 714,645 714,645 715,645 715,645 716,645 716,646 717,646 717,646 718,646 718,646 719,646 719,646 720,646 720,645 721,646 721,646 722,646 722,646 723,646 723,646 724,647 724,647 725,647 725,647 726,647 726,646 727,646 727,646 728,647 728,647 729,647 729,647 730,648 730,648 731,648 731,648 732,648 732,649 733,649 733,648 734,648 734,649 735,649 735,649 736,649 736,649 737,649 737,649 738,649 738,649 738,649 739,649 739,649 740,650 740,650 741,649 741,650 742,650 742,650 743,650 743,649 744,650 744,649 745,649 745,649 746,650 746,650 747,650 747,650 748,650 748,650 749,650 749,650 750,650 750,650 751,651 751,651 752,650 752,650 753,650 753,650 754,650 754,650 755,650 755,650 755,651 756,651 756,651 757,651 757,651 758,651 758,652 759,652 759,652 760,652 760,652 761,652 761,652 762,652 762,652 763,652 763,652 764,653 764,654 765,653 765,653 766,653 766,653 767,653 767,652 768,652 768,653 769,653 769,653 770,653 770,653 771,653 771,653 772,653 772,653 773,653 773,653 774,653 774,653 775,653 775,653 776,653 776,653 777,653 777,653 778,653 778,654 779,654 779,654 780,654 780,654 781,654 781,654 782,654 782,654 783,654 783,655 783,655 784,655 784,655 785,655 785,655 786,655 786,655 787,655 787,655 788,654 788,654 789,655 789,655 790,655 790,655 791,655 791,655 792,655 792,655 793,655 793,654 794,653 794,653 795,653 795,654 796,654 796,654 797,654 797,655 798,655 798,655 799,655 799,655 800,655 800,655 801,655 801,655 802,655 802,655 803,656 803,656 804,656 804,656 805,656 805,656 806,656 806,660 807,660 807,660 808,656 808,657 809,657 809,657 810,657 810,657 811,657 811,657 812,657 812,657 813,657 813,658 814,658 814,658 815,658 815,658 816,658 816,658 817,658 817,659 818,659 818,659 819,659 819,659 820,659 820,659 821,659 821,659 822,660 822,659 823,659 823,660 824,659 824,659 825,659 825,660 826,660 826,660 827,660 827,660 828,660 828,660 828,661 829,661 829,661 830,661 830,661 831,661 831,661 832,661 832,661 833,660 833,660 834,660 834,660 835,660 835,660 836,660 836,660 837,660 837,660 838,660 838,660 839,660 839,660 840,660 840,661 841,660 841,660 842,661 842,661 843,661 843,661 844,661 844,661 845,661 845,661 846,661 846,661 847,661 847,661 848,661 848,662 849,662 849,662 850,662 850,662 851,662 851,662 852,662 852,662 853,662 853,662 854,662 854,662 855,663 855,663 856,663 856,663 857,663 857,663 858,663 858,663 859,663 859,663 860,663 860,663 861,663 861,663 862,663 862,662 863,663 863,663 864,663 864,663 865,663 865,663 866,663 866,663 867,663 867,663 868,663 868,663 869,663 869,663 870,663 870,663 871,663 871,663 872,663 872,663 873,663 873,663 873,664 874,664 874,664 875,664 875,664 876,664 876,664 877,664 877,664 878,664 878,664 879,664 879,664 880,664 880,665 881,665 881,664 882,664 882,665 883,665 883,665 884,665 884,665 885,665 885,665 886,665 886,665 887,665 887,665 888,665 888,666 889,666 889,666 890,666 890,666 891,666 891,666 892,666 892,666 893,666 893,666 894,666 894,667 895,667 895,667 896,667 896,667 897,667 897,667 898,667 898,667 899,667 899,667 900,667 900,668 901,668 901,668 902,668 902,668 903,668 903,668 904,668 904,668 905,668 905,668 906,668 906,668 907,668 907,668 908,668 908,669 909,669 909,669 910,669 910,669 911,669 911,669 912,669 912,669 913,669 913,669 914,669 914,669 915,669 915,669 916,669 916,669 917,669 917,669 918,669 918,669 918,669 919,669 919,669 920,669 920,669 921,669 921,669 922,669 922,669 923,670 923,669 924,669 924,670 925,670 925,670 926,670 926,670 927,670 927,670 928,670 928,670 929,670 929,670 930,670 930,670 931,670 931,670 932,670 932,670 933,670 933,670 934,670 934,670 935,670 935,670 936,670 936,670 937,670 937,670 938,670 938,670 939,670 939,670 940,670 940,670 941,671 941,671 942,671 942,671 943,671 943,671 944,671 944,671 945,672 945,671 946,671 946,671 946,672 947,672 947,672 948,672 948,671 949,671 949,671 950,672 950,672 951,672 951,672 952,672 952,672 953,672 953,672 954,672 954,672 955,671 955,672 956,671 956,671 957,671 957,671 958,671 958,672 959,672 959,672 960,672 960,672 961,672 961,672 962,672 962,672 963,672 963,672 964,672 964,672 964,672 965,672 965,672 966,672 966,672 967,672 967,673 968,673 968,672 969,672 969,672 970,672 970,672 971,672 971,673 972,673 972,673 973,673 973,673 974,673 974,673 975,673 975,673 976,673 976,673 977,673 977,673 978,673 978,673 979,673 979,674 980,674 980,674 981,674 981,674 982,674 982,674 983,674 983,674 984,674 984,674 985,675 985,675 986,675 986,675 987,675 987,675 988,675 988,675 989,675 989,675 990,675 990,675 991,676 991,676 992,676 992,676 993,676 993,676 994,676 994,676 995,676 995,676 996,676 996,676 997,677 997,677 998,677 998,677 999,677 999,677 1000,677 1000,677 1001,677 1001,677 1002,677 1002,677 1003,677 1003,677 1004,678 1004,678 1005,678 1005,678 1006,678 1006,678 1007,678 1007,678 1008,678 1008,678 1009,678 1009,678 1009,678 1010,678 1010,678 1011,678 1011,679 1012,679 1012,679 1013,679 1013,679 1014,679 1014,678 1015,678 1015,678 1015,678 1016,678 1016,678 1016,678 1017,678 1017,679 1017,679 1017,679 1018,679 1018,679 1018,679 1019,679 1019,679 1019,679 1019,679 1020,679 1020,679 1020,679 1020,679 1021,679 1021,680 1021,680 1021,679 1022,679 1022,679 1022,679 1022,680 1023,680 1023,680 1023,679 1024,679 1024,680 1024,680 1025,680 1025,680 1025,680 1025,680 1026,680 1026,680 1026,680 1026,680 1027,680 1027,680 1027,680 1027,680 1028,680 1028,680 1028,680 1029,680 1029,680 1029,680 1029,680 1030,680 1030,680 1030,680 1030,680 1031,680 1031,680 1031,680 1031,680 1032,680 1032,680 1032,680 1032,680 1033,681 1033,681 1033,681 1034,681 1034,681 1034,681 1034,681 1035,681 1035,681 1035,681 1035,681 1036,681 1036,681 1036,681 1036,680 1037,680 1037,681 1037,681 1037,681 1038,681 1038,681 1038,681 1038,681 1039,681 1039,681 1040,681 1040,681 1040,681 1040,681 1041,681 1041,681 1041,681 1041,681 1042,681 1042,681 1042,681 1042,681 1043,681 1043,681 1043,681 1043,681 1044,681 1044,681 1044,681 1045,681 1045,681 1045,681 1045,681 1046,681 1046,681 1046,681 1046,681 1047,681 1047,681 1047,681 1048,681 1048,682 1048,682 1048,682 1049,682 1049,682 1049,682 1049,682 1050,682 1050,682 1050,682 1050,682 1051,682 1051,682 1051,682 1051,682 1052,682 1052,682 1052,682 1052,682 1053,682 1053,682 1053,682 1053,682 1054,682 1054,682 1054,682 1054,682 1054,682 1054,682 1055,682 1055,682 1055,682 1055,682 1056,682 1056,682 1056,682 1057,682 1057,682 1057,682 1057,682 1058,682 1058,672 1058,672 1058,672 1059,672 1059,672 1059,672 1059,672 1060,672 1060,672 1060,672 1060,672 1061,672 1061,672 1061,672 1062,672 1062,672 1062,672 1062,672 1063,672 1063,672 1063,672 1063,672 1064,672 1064,672 1064,672 1065,672 1065,672 1065,672 1066,672 1066,672 1066,672 1067,672 1067,672 1067,672 1067,672 1068,672 1068,672 1068,672 1068,672 1069,672 1069,672 1069,672 1069,672 1070,672 1070,672 1070,672 1070,672 1071,672 1071,672 1071,672 1072,672 1072,672 1072,672 1072,672 1073,672 1073,672 1073,672 1073,672 1074,672 1074,672 1074,672 1074,672 1075,672 1075,672 1075,672 1075,672 1076,672 1076,673 1076,673 1076,673 1077,673 1077,673 1077,673 1077,673 1078,673 1078,673 1078,673 1078,673 1079,673 1079,673 1079,673 1080,673 1080,673 1080,673 1080,673 1081,673 1081,673 1081,673 1081,673 1082,673 1082,673 1082,673 1082,674 1083,674 1083,673 1083,673 1084,673 1084,673 1084,673 1084,673 1085,673 1085,673 1085,673 1085,673 1086,673 1086,674 1086,674 1086,674 1087,674 1087,674 1087,674 1087,674 1088,674 1088,674 1088,674 1088,674 1089,674 1089,674 1089,674 1089,674 1090,674 1090,674 1090,674 1090,674 1091,674 1091,674 1091,674 1091,674 1092,674 1092,674 1092,674 1092,674 1093,674 1093,674 1093,674 1094,674 1094,674 1094,674 1094,675 1095,675 1095,675 1095,675 1095,675 1096,675 1096,675 1096,675 1096,675 1097,675 1097,675 1097,675 1097,675 1098,675 1098,675 1098,675 1098,675 1099,675 1099,675 1099,675 1099,676 1099,676 1099,676 1100,676 1100,676 1100,676 1100,676 1101,676 1101,676 1101,676 1101,676 1102,676 1102,676 1102,676 1102,676 1103,676 1103,676 1103,676 1103,676 1104,676 1104,676 1104,676 1104,676 1105,676 1105,676 1105,676 1105,676 1106,676 1106,676 1106,676 1107,676 1107,676 1107,676 1107,676 1108,676 1108,676 1108,676 1109,676 1109,676 1109,676 1109,676 1110,676 1110,677 1110,677 1110,677 1111,677 1111,677 1111,677 1111,677 1112,677 1112,677 1112,677 1112,677 1113,677 1113,677 1113,677 1114,677 1114,677 1114,677 1114,677 1115,677 1115,677 1115,677 1115,677 1116,677 1116,677 1116,677 1116,677 1117,677 1117,677 1117,677 1117,678 1118,678 1118,678 1118,678 1118,678 1119,678 1119,678 1119,678 1119,678 1120,678 1120,678 1120,678 1120,678 1121,678 1121,678 1121,678 1121,678 1122,678 1122,678 1122,678 1122,678 1123,678 1123,678 1123,678 1123,678 1124,678 1124,678 1124,678 1124,678 1125,678 1125,678 1125,678 1125,678 1126,678 1126,678 1126,678 1126,678 1127,678 1127,678 1127,678 1127,678 1128,678 1128,678 1128,678 1128,678 1129,678 1129,679 1129,679 1129,679 1130,679 1130,679 1130,679 1130,679 1131,679 1131,679 1131,679 1131,679 1132,679 1132,679 1132,679 1132,679 1133,679 1133,679 1133,679 1133,679 1134,679 1134,679 1134,679 1134,679 1135,679 1135,679 1135,679 1135,679 1136,679 1136,679 1136,679 1136,679 1137,679 1137,679 1137,679 1138,679 1138,680 1138,680 1138,680 1139,680 1139,680 1139,680 1139,680 1140,680 1140,680 1140,680 1140,680 1141,680 1141,680 1141,680 1141,680 1142,680 1142,680 1142,680 1142,680 1143,680 1143,680 1143,680 1143,680 1144,680 1144,680 1144,680 1144,680 1144,680 1144,680 1145,680 1145,680 1145,680 1145,680 1146,680 1146,682 1146,682 1147,682 1147,682 1147,682 1147,682 1148,682 1148,682 1148,682 1148,682 1149,682 1149,682 1149,682 1150,682 1150,682 1150,682 1150,682 1151,682 1151,682 1151,682 1151,682 1152,682 1152,682 1152,682 1152,682 1153,682 1153,682 1153,682 1153,682 1154,682 1154,682 1154,682 1154,682 1155,682 1155,683 1155,683 1155,683 1156,683 1156,683 1156,683 1156,683 1157,683 1157,683 1157,683 1157,683 1158,683 1158,683 1158,683 1158,683 1159,683 1159,683 1159,683 1159,683 1160,683 1160,683 1160,683 1160,683 1161,683 1161,683 1161,683 1161,683 1162,683 1162,683 1162,683 1162,683 1163,683 1163,683 1163,683 1163,683 1164,683 1164,683 1164,683 1164,683 1165,683 1165,683 1165,683 1165,683 1166,683 1166,683 1166,683 1166,683 1167,683 1167,683 1167,683 1168,683 1168,684 1168,684 1168,684 1169,684 1169,687 1169,687 1169,687 1170,687 1170,687 1170,687 1170,686 1171,686 1171,687 1171,687 1171,687 1172,687 1172,687 1172,687 1172,687 1173,687 1173,687 1173,687 1173,687 1174,687 1174,687 1174,687 1174,687 1175,687 1175,687 1175,687 1175,687 1176,687 1176,687 1176,687 1176,687 1177,687 1177,687 1177,687 1177,687 1178,687 1178,687 1178,687 1178,687 1179,687 1179,687 1179,687 1179,687 1180,687 1180,687 1180,687 1180,687 1181,687 1181,687 1181,687 1181,687 1182,687 1182,687 1182,687 1182,687 1183,687 1183,688 1183,688 1183,688 1184,688 1184,687 1184,687 1184,688 1185,688 1185,688 1185,688 1185,688 1186,688 1186,688 1186,688 1186,688 1187,688 1187,688 1187,688 1187,688 1188,688 1188,688 1188,688 1188,688 1189,688 1189,688 1189,688 1189,688 1190,688 "/>
<polyline fill="none" opacity="1" stroke="#BD19E6" stroke-width="2" points="473,738 474,737 494,737 510,736 527,735 528,734 535,734 546,732 550,732 554,731 561,731 563,730 565,728 567,728 572,727 587,727 587,726 592,726 598,725 603,725 605,724 606,724 607,723 609,722 610,721 614,721 614,720 618,720 618,720 619,719 619,719 620,719 623,719 623,718 624,718 624,718 627,718 629,717 629,717 630,717 631,716 632,715 634,715 634,714 635,713 635,714 636,713 637,712 637,712 638,712 639,713 640,712 642,712 643,711 644,711 646,710 647,710 648,710 649,709 651,708 653,708 654,708 654,707 657,707 659,706 660,705 660,704 664,704 665,703 665,703 666,702 669,701 669,701 670,700 671,700 671,700 672,698 672,698 673,698 674,697 674,696 675,696 675,695 676,695 676,694 677,694 678,693 679,693 680,691 680,690 681,690 682,690 682,689 683,688 683,688 684,688 684,688 685,688 685,687 686,687 686,687 687,686 687,685 688,685 688,685 689,683 689,682 690,682 691,681 692,681 692,681 693,680 693,679 694,679 694,677 695,676 696,676 697,675 697,675 698,674 698,674 699,674 699,674 700,674 700,674 701,673 701,673 702,673 702,673 703,673 703,674 704,673 704,673 705,673 705,672 706,672 706,672 707,672 707,672 708,672 708,672 709,672 709,672 710,672 710,671 711,671 711,671 712,670 713,670 713,670 714,670 714,669 715,669 715,668 716,668 716,668 717,668 718,667 718,667 719,667 719,666 720,667 720,667 721,666 721,666 722,665 722,666 723,665 723,664 724,664 724,663 725,663 725,663 726,663 726,663 727,663 727,663 728,663 729,663 729,663 730,662 730,663 731,662 731,662 732,662 732,662 733,662 733,662 734,662 734,662 735,662 735,661 736,660 736,658 737,658 737,657 738,657 738,657 738,656 739,657 739,657 740,657 740,656 741,656 741,656 742,656 743,656 743,656 744,655 744,655 745,655 746,654 746,653 747,653 748,653 748,653 749,653 749,653 750,653 750,653 751,653 752,653 752,653 753,653 753,652 754,651 754,651 755,651 755,651 755,651 756,651 756,651 757,650 758,650 758,649 759,649 759,649 760,649 760,648 761,647 761,647 762,646 762,646 763,646 763,646 764,645 764,645 765,644 765,644 766,644 766,644 767,644 767,643 768,643 768,643 769,641 769,641 770,641 770,641 771,640 771,640 772,640 772,640 773,640 773,640 774,639 774,639 775,638 775,639 776,639 776,638 777,638 777,638 778,637 778,637 779,636 779,636 780,636 780,636 781,636 781,636 782,636 782,636 783,637 783,637 784,636 784,636 785,636 785,636 786,636 786,637 787,637 787,636 788,637 788,636 789,636 789,636 790,636 790,636 791,636 791,635 792,635 792,635 793,635 793,634 794,634 794,633 795,632 795,631 796,632 796,631 797,630 797,629 798,629 798,628 799,629 799,629 800,628 800,627 801,627 801,626 802,626 802,625 803,625 803,625 804,625 804,625 805,623 805,622 806,621 806,625 807,625 807,624 808,619 808,619 809,618 809,616 810,616 810,615 811,615 811,614 812,614 812,614 813,613 813,613 814,613 814,613 815,613 815,613 816,613 816,613 817,612 817,612 818,612 818,612 819,612 819,611 820,610 820,610 821,609 821,609 822,610 822,610 823,609 823,608 824,608 824,608 825,608 825,607 826,607 826,607 827,607 827,606 828,606 828,607 828,607 829,607 829,607 830,607 830,606 831,606 831,605 832,605 832,604 833,604 833,604 834,604 834,603 835,603 835,602 836,602 836,601 837,600 837,600 838,599 838,599 839,599 839,599 840,598 840,598 841,597 841,596 842,596 842,597 843,596 843,595 844,595 844,595 845,595 845,594 846,594 846,594 847,593 847,593 848,593 848,593 849,593 849,593 850,593 850,593 851,592 851,592 852,591 852,591 853,591 853,591 854,590 854,590 855,590 855,590 856,590 856,590 857,590 857,590 858,590 858,589 859,589 859,589 860,588 860,587 861,587 861,587 862,587 862,587 863,586 863,586 864,586 864,586 865,585 865,585 866,585 866,584 867,584 867,585 868,584 868,584 869,584 869,584 870,583 870,583 871,582 871,581 872,581 872,581 873,581 873,581 873,581 874,581 874,581 875,580 875,579 876,580 876,579 877,579 877,579 878,579 878,579 879,579 879,578 880,578 880,577 881,577 881,577 882,577 882,577 883,576 883,576 884,575 884,575 885,576 885,575 886,574 886,574 887,574 887,573 888,573 888,573 889,573 889,572 890,572 890,572 891,572 891,571 892,571 892,572 893,572 893,571 894,571 894,571 895,571 895,571 896,571 896,571 897,571 897,571 898,570 898,569 899,569 899,568 900,569 900,568 901,568 901,568 902,568 902,567 903,567 903,567 904,567 904,567 905,566 905,566 906,566 906,566 907,565 907,565 908,564 908,564 909,564 909,563 910,563 910,563 911,562 911,562 912,562 912,561 913,561 913,561 914,560 914,560 915,560 915,560 916,560 916,559 917,558 918,558 918,558 918,558 919,558 919,557 920,557 920,557 921,557 921,557 922,557 922,556 923,556 923,555 924,554 924,554 925,554 925,553 926,553 926,553 927,552 927,552 928,552 928,551 929,551 929,551 930,551 930,551 931,550 931,549 932,549 932,549 933,549 933,549 934,548 934,548 935,547 935,547 936,546 936,545 937,545 937,544 938,544 938,543 939,543 939,542 940,542 940,541 941,541 941,541 942,541 942,540 943,540 943,540 944,539 944,539 945,539 945,538 946,538 946,538 946,538 947,538 947,537 948,537 948,536 949,536 949,534 950,533 950,533 951,532 951,531 952,531 952,531 953,531 953,531 954,531 954,530 955,530 955,531 956,531 956,530 957,529 957,529 958,529 958,528 959,528 959,528 960,527 960,527 961,526 961,526 962,526 962,525 963,525 963,526 964,525 964,525 964,524 965,524 965,524 966,524 966,524 967,524 967,524 968,523 968,523 969,523 969,523 970,521 970,521 971,521 971,520 972,520 972,520 973,520 973,520 974,519 974,518 975,518 975,518 976,517 976,516 977,516 977,515 978,515 978,515 979,515 979,515 980,515 980,514 981,514 981,514 982,514 982,513 983,514 983,513 984,513 984,513 985,513 985,513 986,513 986,513 987,512 987,512 988,512 988,511 989,511 989,510 990,510 990,509 991,509 991,509 992,509 992,510 993,510 993,510 994,509 994,510 995,510 995,509 996,509 996,508 997,508 997,508 998,508 998,508 999,508 999,507 1000,507 1000,507 1001,506 1001,506 1002,506 1002,506 1003,506 1003,505 1004,505 1004,505 1005,505 1005,505 1006,505 1006,504 1007,504 1007,504 1008,503 1008,502 1009,501 1009,501 1009,501 1010,501 1010,500 1011,500 1011,500 1012,500 1012,500 1013,500 1013,499 1014,499 1014,499 1015,499 1015,499 1015,499 1016,499 1016,498 1016,497 1017,497 1017,497 1017,497 1017,497 1018,497 1018,497 1018,497 1019,497 1019,496 1019,496 1019,496 1020,496 1020,496 1020,496 1020,496 1021,496 1021,496 1021,496 1021,495 1022,495 1022,495 1022,495 1022,494 1023,494 1023,495 1023,494 1024,494 1024,493 1024,493 1025,493 1025,494 1025,494 1025,493 1026,493 1026,493 1026,493 1026,493 1027,493 1027,492 1027,492 1027,492 1028,492 1028,492 1028,492 1029,492 1029,491 1029,491 1029,490 1030,490 1030,490 1030,490 1030,490 1031,490 1031,490 1031,490 1031,490 1032,490 1032,489 1032,489 1032,489 1033,489 1033,489 1033,489 1034,489 1034,488 1034,488 1034,488 1035,488 1035,487 1035,487 1035,487 1036,487 1036,487 1036,487 1036,486 1037,486 1037,487 1037,487 1037,486 1038,486 1038,486 1038,486 1038,485 1039,485 1039,485 1040,485 1040,485 1040,485 1040,483 1041,483 1041,484 1041,484 1041,484 1042,484 1042,484 1042,484 1042,484 1043,484 1043,483 1043,483 1043,484 1044,484 1044,483 1044,483 1045,483 1045,482 1045,482 1045,482 1046,482 1046,481 1046,481 1046,480 1047,480 1047,480 1047,480 1048,480 1048,480 1048,480 1048,480 1049,480 1049,479 1049,479 1049,478 1050,478 1050,478 1050,478 1050,479 1051,479 1051,478 1051,478 1051,478 1052,478 1052,478 1052,477 1053,477 1053,476 1053,476 1053,476 1054,476 1054,476 1054,476 1054,475 1054,475 1054,474 1055,474 1055,473 1055,473 1055,473 1056,473 1056,472 1056,472 1057,472 1057,472 1057,472 1057,472 1058,472 1058,472 1058,472 1058,472 1059,472 1059,472 1059,472 1059,472 1060,472 1060,472 1060,472 1060,471 1061,471 1061,471 1061,470 1062,470 1062,469 1062,469 1062,469 1063,469 1063,469 1063,469 1063,469 1064,469 1064,468 1064,468 1065,468 1065,468 1065,468 1066,468 1066,468 1066,467 1067,467 1067,467 1067,468 1067,468 1068,468 1068,467 1068,467 1068,467 1069,467 1069,467 1069,467 1069,467 1070,467 1070,467 1070,467 1070,467 1071,467 1071,467 1071,467 1072,467 1072,467 1072,467 1072,467 1073,467 1073,467 1073,467 1073,467 1074,467 1074,467 1074,467 1074,467 1075,467 1075,466 1075,466 1075,465 1076,465 1076,465 1076,465 1076,465 1077,465 1077,465 1077,465 1077,465 1078,465 1078,465 1078,465 1078,464 1079,464 1079,464 1079,464 1080,464 1080,464 1080,464 1080,465 1081,465 1081,465 1081,465 1081,465 1082,465 1082,465 1082,465 1082,464 1083,464 1083,464 1083,465 1084,465 1084,465 1084,465 1084,465 1085,465 1085,464 1085,464 1085,464 1086,464 1086,464 1086,464 1086,464 1087,464 1087,464 1087,464 1087,463 1088,463 1088,463 1088,463 1088,463 1089,463 1089,463 1089,463 1089,463 1090,463 1090,463 1090,463 1090,462 1091,462 1091,462 1091,462 1091,462 1092,462 1092,462 1092,462 1092,462 1093,462 1093,462 1093,462 1094,462 1094,461 1094,461 1094,462 1095,462 1095,462 1095,462 1095,462 1096,462 1096,461 1096,461 1096,461 1097,461 1097,461 1097,461 1097,461 1098,461 1098,461 1098,461 1098,461 1099,461 1099,460 1099,460 1099,461 1099,461 1099,460 1100,460 1100,460 1100,460 1100,459 1101,459 1101,459 1101,459 1101,459 1102,459 1102,459 1102,459 1102,459 1103,459 1103,458 1103,458 1103,458 1104,458 1104,457 1104,457 1104,456 1105,456 1105,455 1105,455 1105,455 1106,455 1106,456 1106,455 1107,455 1107,454 1107,454 1107,454 1108,454 1108,454 1108,454 1109,454 1109,454 1109,454 1109,454 1110,454 1110,454 1110,454 1110,454 1111,454 1111,454 1111,454 1111,454 1112,454 1112,453 1112,453 1112,453 1113,453 1113,453 1113,453 1114,453 1114,454 1114,454 1114,454 1115,454 1115,454 1115,454 1115,453 1116,453 1116,452 1116,452 1116,452 1117,452 1117,452 1117,452 1117,452 1118,452 1118,452 1118,452 1118,452 1119,452 1119,452 1119,452 1119,452 1120,452 1120,451 1120,451 1120,451 1121,451 1121,451 1121,451 1121,452 1122,452 1122,451 1122,451 1122,451 1123,452 1123,452 1123,452 1123,451 1124,451 1124,451 1124,451 1124,451 1125,451 1125,451 1125,451 1125,451 1126,451 1126,451 1126,451 1126,451 1127,451 1127,451 1127,451 1127,450 1128,450 1128,450 1128,450 1128,450 1129,450 1129,450 1129,450 1129,449 1130,449 1130,449 1130,449 1130,449 1131,449 1131,449 1131,449 1131,448 1132,448 1132,447 1132,447 1132,447 1133,447 1133,447 1133,447 1133,447 1134,447 1134,447 1134,447 1134,447 1135,447 1135,447 1135,447 1135,447 1136,447 1136,447 1136,447 1136,447 1137,447 1137,447 1137,447 1138,447 1138,447 1138,447 1138,447 1139,447 1139,447 1139,447 1139,447 1140,447 1140,446 1140,446 1140,446 1141,446 1141,446 1141,446 1141,446 1142,446 1142,446 1142,446 1142,446 1143,446 1143,446 1143,446 1143,446 1144,446 1144,447 1144,447 1144,447 1144,447 1144,446 1145,446 1145,446 1145,446 1145,446 1146,446 1146,456 1146,456 1147,456 1147,456 1147,456 1147,456 1148,456 1148,455 1148,455 1148,455 1149,455 1149,455 1149,455 1150,455 1150,454 1150,454 1150,454 1151,454 1151,454 1151,454 1151,454 1152,454 1152,454 1152,454 1152,454 1153,454 1153,454 1153,454 1153,454 1154,454 1154,453 1154,453 1154,453 1155,453 1155,453 1155,453 1155,453 1156,453 1156,452 1156,452 1156,452 1157,452 1157,453 1157,453 1157,452 1158,452 1158,452 1158,452 1158,452 1159,452 1159,452 1159,452 1159,453 1160,453 1160,453 1160,453 1160,453 1161,453 1161,453 1161,452 1161,453 1162,453 1162,452 1162,452 1162,453 1163,453 1163,452 1163,452 1163,452 1164,452 1164,452 1164,452 1164,452 1165,452 1165,452 1165,452 1165,452 1166,452 1166,452 1166,452 1166,452 1167,452 1167,452 1167,452 1168,452 1168,452 1168,452 1168,452 1169,452 1169,452 1169,452 1169,452 1170,452 1170,452 1170,452 1170,452 1171,452 1171,452 1171,452 1171,452 1172,452 1172,452 1172,452 1172,452 1173,452 1173,452 1173,452 1173,452 1174,452 1174,452 1174,452 1174,452 1175,452 1175,452 1175,452 1175,452 1176,451 1176,451 1176,451 1176,451 1177,451 1177,451 1177,451 1177,451 1178,451 1178,450 1178,450 1178,449 1179,449 1179,449 1179,449 1179,449 1180,449 1180,449 1180,449 1180,449 1181,449 1181,449 1181,449 1181,448 1182,448 1182,448 1182,448 1182,448 1183,448 1183,448 1183,448 1183,448 1184,448 1184,448 1184,448 1184,446 1185,446 1185,446 1185,446 1185,445 1186,445 1186,445 1186,445 1186,444 1187,444 1187,444 1187,444 1187,444 1188,444 1188,443 1188,443 1188,443 1189,443 1189,443 1189,443 1189,443 1190,443 "/>
<rect x="65" y="329" width="97" height="91" opacity="1" fill="#FFFFFF" stroke="none"/>
<rect x="65" y="329" width="97" height="91" opacity="1" fill="none" stroke="#000000"/>
<text x="105" y="339" dy="0.76em" text-anchor="start" font-family="sans-serif" font-size="9.67741935483871" opacity="1" fill="#000000">
argparse
</text>
<text x="105" y="354" dy="0.76em" text-anchor="start" font-family="sans-serif" font-size="9.67741935483871" opacity="1" fill="#000000">
clap
</text>
<text x="105" y="369" dy="0.76em" text-anchor="start" font-family="sans-serif" font-size="9.67741935483871" opacity="1" fill="#000000">
docopt
</text>
<text x="105" y="384" dy="0.76em" text-anchor="start" font-family="sans-serif" font-size="9.67741935483871" opacity="1" fill="#000000">
getopts
</text>
<text x="105" y="399" dy="0.76em" text-anchor="start" font-family="sans-serif" font-size="9.67741935483871" opacity="1" fill="#000000">
structopt
</text>
<polyline fill="none" opacity="1" stroke="#E61919" stroke-width="2" points="75,343 95,343 "/>
<polyline fill="none" opacity="1" stroke="#BDE619" stroke-width="2" points="75,359 95,359 "/>
<polyline fill="none" opacity="1" stroke="#19E66B" stroke-width="2" points="75,374 95,374 "/>
<polyline fill="none" opacity="1" stroke="#196BE6" stroke-width="2" points="75,389 95,389 "/>
<polyline fill="none" opacity="1" stroke="#BD19E6" stroke-width="2" points="75,404 95,404 "/>
</svg>
