<svg width="1200" height="800" xmlns="http://www.w3.org/2000/svg">
<rect x="0" y="0" width="1199" height="799" opacity="1" fill="#FFFFFF" stroke="none"/>
<line opacity="0.1" stroke="#000000" stroke-width="1" x1="60" y1="731" x2="1190" y2="731"/>
<line opacity="0.1" stroke="#000000" stroke-width="1" x1="60" y1="723" x2="1190" y2="723"/>
<line opacity="0.1" stroke="#000000" stroke-width="1" x1="60" y1="715" x2="1190" y2="715"/>
<line opacity="0.1" stroke="#000000" stroke-width="1" x1="60" y1="707" x2="1190" y2="707"/>
<line opacity="0.1" stroke="#000000" stroke-width="1" x1="60" y1="699" x2="1190" y2="699"/>
<line opacity="0.1" stroke="#000000" stroke-width="1" x1="60" y1="690" x2="1190" y2="690"/>
<line opacity="0.1" stroke="#000000" stroke-width="1" x1="60" y1="682" x2="1190" y2="682"/>
<line opacity="0.1" stroke="#000000" stroke-width="1" x1="60" y1="674" x2="1190" y2="674"/>
<line opacity="0.1" stroke="#000000" stroke-width="1" x1="60" y1="666" x2="1190" y2="666"/>
<line opacity="0.1" stroke="#000000" stroke-width="1" x1="60" y1="658" x2="1190" y2="658"/>
<line opacity="0.1" stroke="#000000" stroke-width="1" x1="60" y1="650" x2="1190" y2="650"/>
<line opacity="0.1" stroke="#000000" stroke-width="1" x1="60" y1="641" x2="1190" y2="641"/>
<line opacity="0.1" stroke="#000000" stroke-width="1" x1="60" y1="633" x2="1190" y2="633"/>
<line opacity="0.1" stroke="#000000" stroke-width="1" x1="60" y1="625" x2="1190" y2="625"/>
<line opacity="0.1" stroke="#000000" stroke-width="1" x1="60" y1="617" x2="1190" y2="617"/>
<line opacity="0.1" stroke="#000000" stroke-width="1" x1="60" y1="609" x2="1190" y2="609"/>
<line opacity="0.1" stroke="#000000" stroke-width="1" x1="60" y1="601" x2="1190" y2="601"/>
<line opacity="0.1" stroke="#000000" stroke-width="1" x1="60" y1="592" x2="1190" y2="592"/>
<line opacity="0.1" stroke="#000000" stroke-width="1" x1="60" y1="584" x2="1190" y2="584"/>
<line opacity="0.1" stroke="#000000" stroke-width="1" x1="60" y1="576" x2="1190" y2="576"/>
<line opacity="0.1" stroke="#000000" stroke-width="1" x1="60" y1="568" x2="1190" y2="568"/>
<line opacity="0.1" stroke="#000000" stroke-width="1" x1="60" y1="560" x2="1190" y2="560"/>
<line opacity="0.1" stroke="#000000" stroke-width="1" x1="60" y1="552" x2="1190" y2="552"/>
<line opacity="0.1" stroke="#000000" stroke-width="1" x1="60" y1="543" x2="1190" y2="543"/>
<line opacity="0.1" stroke="#000000" stroke-width="1" x1="60" y1="535" x2="1190" y2="535"/>
<line opacity="0.1" stroke="#000000" stroke-width="1" x1="60" y1="527" x2="1190" y2="527"/>
<line opacity="0.1" stroke="#000000" stroke-width="1" x1="60" y1="519" x2="1190" y2="519"/>
<line opacity="0.1" stroke="#000000" stroke-width="1" x1="60" y1="511" x2="1190" y2="511"/>
<line opacity="0.1" stroke="#000000" stroke-width="1" x1="60" y1="503" x2="1190" y2="503"/>
<line opacity="0.1" stroke="#000000" stroke-width="1" x1="60" y1="494" x2="1190" y2="494"/>
<line opacity="0.1" stroke="#000000" stroke-width="1" x1="60" y1="486" x2="1190" y2="486"/>
<line opacity="0.1" stroke="#000000" stroke-width="1" x1="60" y1="478" x2="1190" y2="478"/>
<line opacity="0.1" stroke="#000000" stroke-width="1" x1="60" y1="470" x2="1190" y2="470"/>
<line opacity="0.1" stroke="#000000" stroke-width="1" x1="60" y1="462" x2="1190" y2="462"/>
<line opacity="0.1" stroke="#000000" stroke-width="1" x1="60" y1="454" x2="1190" y2="454"/>
<line opacity="0.1" stroke="#000000" stroke-width="1" x1="60" y1="445" x2="1190" y2="445"/>
<line opacity="0.1" stroke="#000000" stroke-width="1" x1="60" y1="437" x2="1190" y2="437"/>
<line opacity="0.1" stroke="#000000" stroke-width="1" x1="60" y1="429" x2="1190" y2="429"/>
<line opacity="0.1" stroke="#000000" stroke-width="1" x1="60" y1="421" x2="1190" y2="421"/>
<line opacity="0.1" stroke="#000000" stroke-width="1" x1="60" y1="413" x2="1190" y2="413"/>
<line opacity="0.1" stroke="#000000" stroke-width="1" x1="60" y1="405" x2="1190" y2="405"/>
<line opacity="0.1" stroke="#000000" stroke-width="1" x1="60" y1="396" x2="1190" y2="396"/>
<line opacity="0.1" stroke="#000000" stroke-width="1" x1="60" y1="388" x2="1190" y2="388"/>
<line opacity="0.1" stroke="#000000" stroke-width="1" x1="60" y1="380" x2="1190" y2="380"/>
<line opacity="0.1" stroke="#000000" stroke-width="1" x1="60" y1="372" x2="1190" y2="372"/>
<line opacity="0.1" stroke="#000000" stroke-width="1" x1="60" y1="364" x2="1190" y2="364"/>
<line opacity="0.1" stroke="#000000" stroke-width="1" x1="60" y1="356" x2="1190" y2="356"/>
<line opacity="0.1" stroke="#000000" stroke-width="1" x1="60" y1="347" x2="1190" y2="347"/>
<line opacity="0.1" stroke="#000000" stroke-width="1" x1="60" y1="339" x2="1190" y2="339"/>
<line opacity="0.1" stroke="#000000" stroke-width="1" x1="60" y1="331" x2="1190" y2="331"/>
<line opacity="0.1" stroke="#000000" stroke-width="1" x1="60" y1="323" x2="1190" y2="323"/>
<line opacity="0.1" stroke="#000000" stroke-width="1" x1="60" y1="315" x2="1190" y2="315"/>
<line opacity="0.1" stroke="#000000" stroke-width="1" x1="60" y1="307" x2="1190" y2="307"/>
<line opacity="0.1" stroke="#000000" stroke-width="1" x1="60" y1="298" x2="1190" y2="298"/>
<line opacity="0.1" stroke="#000000" stroke-width="1" x1="60" y1="290" x2="1190" y2="290"/>
<line opacity="0.1" stroke="#000000" stroke-width="1" x1="60" y1="282" x2="1190" y2="282"/>
<line opacity="0.1" stroke="#000000" stroke-width="1" x1="60" y1="274" x2="1190" y2="274"/>
<line opacity="0.1" stroke="#000000" stroke-width="1" x1="60" y1="266" x2="1190" y2="266"/>
<line opacity="0.1" stroke="#000000" stroke-width="1" x1="60" y1="258" x2="1190" y2="258"/>
<line opacity="0.1" stroke="#000000" stroke-width="1" x1="60" y1="249" x2="1190" y2="249"/>
<line opacity="0.1" stroke="#000000" stroke-width="1" x1="60" y1="241" x2="1190" y2="241"/>
<line opacity="0.1" stroke="#000000" stroke-width="1" x1="60" y1="233" x2="1190" y2="233"/>
<line opacity="0.1" stroke="#000000" stroke-width="1" x1="60" y1="225" x2="1190" y2="225"/>
<line opacity="0.1" stroke="#000000" stroke-width="1" x1="60" y1="217" x2="1190" y2="217"/>
<line opacity="0.1" stroke="#000000" stroke-width="1" x1="60" y1="209" x2="1190" y2="209"/>
<line opacity="0.1" stroke="#000000" stroke-width="1" x1="60" y1="200" x2="1190" y2="200"/>
<line opacity="0.1" stroke="#000000" stroke-width="1" x1="60" y1="192" x2="1190" y2="192"/>
<line opacity="0.1" stroke="#000000" stroke-width="1" x1="60" y1="184" x2="1190" y2="184"/>
<line opacity="0.1" stroke="#000000" stroke-width="1" x1="60" y1="176" x2="1190" y2="176"/>
<line opacity="0.1" stroke="#000000" stroke-width="1" x1="60" y1="168" x2="1190" y2="168"/>
<line opacity="0.1" stroke="#000000" stroke-width="1" x1="60" y1="160" x2="1190" y2="160"/>
<line opacity="0.1" stroke="#000000" stroke-width="1" x1="60" y1="151" x2="1190" y2="151"/>
<line opacity="0.1" stroke="#000000" stroke-width="1" x1="60" y1="143" x2="1190" y2="143"/>
<line opacity="0.1" stroke="#000000" stroke-width="1" x1="60" y1="135" x2="1190" y2="135"/>
<line opacity="0.1" stroke="#000000" stroke-width="1" x1="60" y1="127" x2="1190" y2="127"/>
<line opacity="0.1" stroke="#000000" stroke-width="1" x1="60" y1="119" x2="1190" y2="119"/>
<line opacity="0.1" stroke="#000000" stroke-width="1" x1="60" y1="111" x2="1190" y2="111"/>
<line opacity="0.1" stroke="#000000" stroke-width="1" x1="60" y1="102" x2="1190" y2="102"/>
<line opacity="0.1" stroke="#000000" stroke-width="1" x1="60" y1="94" x2="1190" y2="94"/>
<line opacity="0.1" stroke="#000000" stroke-width="1" x1="60" y1="86" x2="1190" y2="86"/>
<line opacity="0.1" stroke="#000000" stroke-width="1" x1="60" y1="78" x2="1190" y2="78"/>
<line opacity="0.1" stroke="#000000" stroke-width="1" x1="60" y1="70" x2="1190" y2="70"/>
<line opacity="0.1" stroke="#000000" stroke-width="1" x1="60" y1="62" x2="1190" y2="62"/>
<line opacity="0.1" stroke="#000000" stroke-width="1" x1="60" y1="53" x2="1190" y2="53"/>
<line opacity="0.1" stroke="#000000" stroke-width="1" x1="60" y1="45" x2="1190" y2="45"/>
<line opacity="0.1" stroke="#000000" stroke-width="1" x1="60" y1="37" x2="1190" y2="37"/>
<line opacity="0.1" stroke="#000000" stroke-width="1" x1="60" y1="29" x2="1190" y2="29"/>
<line opacity="0.1" stroke="#000000" stroke-width="1" x1="60" y1="21" x2="1190" y2="21"/>
<line opacity="0.1" stroke="#000000" stroke-width="1" x1="60" y1="13" x2="1190" y2="13"/>
<text x="10" y="375" dy="0.76em" text-anchor="middle" font-family="sans-serif" font-size="9.67741935483871" opacity="1" fill="#000000" transform="rotate(270, 10, 375)">
Fraction of dependent crates
</text>
<line opacity="0.2" stroke="#000000" stroke-width="1" x1="60" y1="658" x2="1190" y2="658"/>
<line opacity="0.2" stroke="#000000" stroke-width="1" x1="60" y1="576" x2="1190" y2="576"/>
<line opacity="0.2" stroke="#000000" stroke-width="1" x1="60" y1="494" x2="1190" y2="494"/>
<line opacity="0.2" stroke="#000000" stroke-width="1" x1="60" y1="413" x2="1190" y2="413"/>
<line opacity="0.2" stroke="#000000" stroke-width="1" x1="60" y1="331" x2="1190" y2="331"/>
<line opacity="0.2" stroke="#000000" stroke-width="1" x1="60" y1="249" x2="1190" y2="249"/>
<line opacity="0.2" stroke="#000000" stroke-width="1" x1="60" y1="168" x2="1190" y2="168"/>
<line opacity="0.2" stroke="#000000" stroke-width="1" x1="60" y1="86" x2="1190" y2="86"/>
<polyline fill="none" opacity="1" stroke="#000000" stroke-width="1" points="59,10 59,740 "/>
<text x="50" y="658" dy="0.5ex" text-anchor="end" font-family="sans-serif" font-size="9.67741935483871" opacity="1" fill="#000000">
0.01
</text>
<polyline fill="none" opacity="1" stroke="#000000" stroke-width="1" points="54,658 59,658 "/>
<text x="50" y="576" dy="0.5ex" text-anchor="end" font-family="sans-serif" font-size="9.67741935483871" opacity="1" fill="#000000">
0.02
</text>
<polyline fill="none" opacity="1" stroke="#000000" stroke-width="1" points="54,576 59,576 "/>
<text x="50" y="494" dy="0.5ex" text-anchor="end" font-family="sans-serif" font-size="9.67741935483871" opacity="1" fill="#000000">
0.03
</text>
<polyline fill="none" opacity="1" stroke="#000000" stroke-width="1" points="54,494 59,494 "/>
<text x="50" y="413" dy="0.5ex" text-anchor="end" font-family="sans-serif" font-size="9.67741935483871" opacity="1" fill="#000000">
0.04
</text>
<polyline fill="none" opacity="1" stroke="#000000" stroke-width="1" points="54,413 59,413 "/>
<text x="50" y="331" dy="0.5ex" text-anchor="end" font-family="sans-serif" font-size="9.67741935483871" opacity="1" fill="#000000">
0.05
</text>
<polyline fill="none" opacity="1" stroke="#000000" stroke-width="1" points="54,331 59,331 "/>
<text x="50" y="249" dy="0.5ex" text-anchor="end" font-family="sans-serif" font-size="9.67741935483871" opacity="1" fill="#000000">
0.06
</text>
<polyline fill="none" opacity="1" stroke="#000000" stroke-width="1" points="54,249 59,249 "/>
<text x="50" y="168" dy="0.5ex" text-anchor="end" font-family="sans-serif" font-size="9.67741935483871" opacity="1" fill="#000000">
0.07
</text>
<polyline fill="none" opacity="1" stroke="#000000" stroke-width="1" points="54,168 59,168 "/>
<text x="50" y="86" dy="0.5ex" text-anchor="end" font-family="sans-serif" font-size="9.67741935483871" opacity="1" fill="#000000">
0.08
</text>
<polyline fill="none" opacity="1" stroke="#000000" stroke-width="1" points="54,86 59,86 "/>
<polyline fill="none" opacity="1" stroke="#000000" stroke-width="1" points="60,740 1190,740 "/>
<text x="60" y="750" dy="0.76em" text-anchor="middle" font-family="sans-serif" font-size="9.67741935483871" opacity="1" fill="#000000">
2014-11-20Z
</text>
<polyline fill="none" opacity="1" stroke="#000000" stroke-width="1" points="60,740 60,745 "/>
<text x="173" y="750" dy="0.76em" text-anchor="middle" font-family="sans-serif" font-size="9.67741935483871" opacity="1" fill="#000000">
2015-06-04Z
</text>
<polyline fill="none" opacity="1" stroke="#000000" stroke-width="1" points="173,740 173,745 "/>
<text x="287" y="750" dy="0.76em" text-anchor="middle" font-family="sans-serif" font-size="9.67741935483871" opacity="1" fill="#000000">
2015-12-17Z
</text>
<polyline fill="none" opacity="1" stroke="#000000" stroke-width="1" points="287,740 287,745 "/>
<text x="401" y="750" dy="0.76em" text-anchor="middle" font-family="sans-serif" font-size="9.67741935483871" opacity="1" fill="#000000">
2016-06-30Z
</text>
<polyline fill="none" opacity="1" stroke="#000000" stroke-width="1" points="401,740 401,745 "/>
<text x="514" y="750" dy="0.76em" text-anchor="middle" font-family="sans-serif" font-size="9.67741935483871" opacity="1" fill="#000000">
2017-01-12Z
</text>
<polyline fill="none" opacity="1" stroke="#000000" stroke-width="1" points="514,740 514,745 "/>
<text x="628" y="750" dy="0.76em" text-anchor="middle" font-family="sans-serif" font-size="9.67741935483871" opacity="1" fill="#000000">
2017-07-27Z
</text>
<polyline fill="none" opacity="1" stroke="#000000" stroke-width="1" points="628,740 628,745 "/>
<text x="742" y="750" dy="0.76em" text-anchor="middle" font-family="sans-serif" font-size="9.67741935483871" opacity="1" fill="#000000">
2018-02-08Z
</text>
<polyline fill="none" opacity="1" stroke="#000000" stroke-width="1" points="742,740 742,745 "/>
<text x="855" y="750" dy="0.76em" text-anchor="middle" font-family="sans-serif" font-size="9.67741935483871" opacity="1" fill="#000000">
2018-08-23Z
</text>
<polyline fill="none" opacity="1" stroke="#000000" stroke-width="1" points="855,740 855,745 "/>
<text x="969" y="750" dy="0.76em" text-anchor="middle" font-family="sans-serif" font-size="9.67741935483871" opacity="1" fill="#000000">
2019-03-07Z
</text>
<polyline fill="none" opacity="1" stroke="#000000" stroke-width="1" points="969,740 969,745 "/>
<text x="1083" y="750" dy="0.76em" text-anchor="middle" font-family="sans-serif" font-size="9.67741935483871" opacity="1" fill="#000000">
2019-09-19Z
</text>
<polyline fill="none" opacity="1" stroke="#000000" stroke-width="1" points="1083,740 1083,745 "/>
<polyline fill="none" opacity="1" stroke="#E61919" stroke-width="2" points="177,736 183,729 184,726 224,725 254,724 287,724 297,722 297,718 306,716 310,718 312,717 314,713 315,713 317,715 318,713 319,711 320,709 330,712 331,712 346,712 347,712 352,711 360,710 363,708 364,705 379,705 380,705 386,704 405,704 405,704 407,705 408,705 408,705 409,706 410,706 411,706 412,707 412,707 413,707 415,707 415,707 416,707 461,712 462,711 463,708 464,707 466,706 492,709 493,709 493,709 495,708 496,708 497,708 497,708 499,708 499,708 502,707 503,704 504,704 505,704 506,704 506,704 507,703 508,703 510,703 511,703 513,704 513,704 514,704 514,704 515,704 517,704 518,704 520,704 521,704 521,704 522,705 523,705 524,705 524,705 525,705 526,705 526,705 528,705 529,705 531,705 531,704 532,705 532,705 534,705 535,705 536,705 538,705 539,705 540,705 540,705 543,704 543,703 544,703 544,703 546,703 547,703 548,703 549,704 550,703 550,703 551,703 553,703 554,703 555,703 556,703 557,703 557,703 558,703 559,704 560,704 561,704 562,704 564,704 564,704 565,704 566,704 568,704 569,704 571,704 573,704 574,704 575,704 578,704 580,705 581,705 583,705 583,705 585,705 586,705 586,704 589,705 590,705 592,706 593,706 594,706 595,706 596,706 597,706 597,706 599,707 600,707 601,707 602,707 602,708 603,708 604,707 604,707 605,707 605,707 606,706 608,707 608,707 611,707 612,707 616,707 618,707 618,708 619,708 619,707 620,707 620,707 621,707 623,707 624,707 625,707 625,707 626,707 626,707 627,707 627,707 628,706 629,706 630,706 631,705 631,705 634,705 635,705 636,705 636,705 637,705 637,705 638,705 639,705 644,706 647,705 650,706 651,706 651,706 652,705 655,705 655,706 659,706 660,706 660,706 671,707 672,707 674,707 677,707 678,706 684,706 686,706 688,707 689,706 690,706 691,706 693,706 696,707 698,707 700,707 700,707 701,707 703,707 705,707 705,707 706,706 707,707 707,707 708,707 709,707 710,707 710,707 711,707 712,707 713,707 713,707 714,707 714,707 715,707 716,707 716,707 717,707 718,707 720,708 720,708 721,708 721,708 723,708 723,708 725,708 725,708 726,708 727,708 728,708 728,708 729,708 729,708 731,708 731,708 732,708 735,708 735,708 736,708 737,708 738,708 738,708 739,709 740,709 741,709 742,709 742,709 745,710 746,710 747,710 749,710 749,709 750,709 753,710 753,710 757,710 757,710 758,710 758,710 759,710 760,710 760,710 761,710 763,710 764,710 764,710 765,710 768,710 768,710 769,710 770,710 771,710 771,710 772,710 773,711 775,711 776,710 776,710 777,710 778,710 778,710 779,710 781,710 781,710 782,710 782,710 783,710 783,710 784,710 785,710 785,710 786,710 786,710 787,710 788,710 788,710 789,710 789,711 790,711 791,711 792,711 792,711 793,711 795,711 796,711 796,711 797,711 800,711 801,711 801,711 802,711 803,711 805,711 805,711 806,712 807,712 807,711 808,711 808,711 809,711 810,711 810,711 811,711 811,711 812,711 812,711 813,711 814,711 816,711 817,712 818,712 818,712 819,712 820,712 821,712 821,712 822,712 822,712 823,712 823,712 824,712 825,712 825,712 826,712 826,712 828,712 828,712 829,712 829,712 830,711 830,711 831,711 832,711 832,711 833,711 834,711 834,711 836,712 836,712 838,712 839,712 839,712 840,712 840,712 841,712 842,712 843,712 844,712 845,712 846,712 846,712 847,712 847,712 848,712 848,712 849,712 850,712 851,713 851,713 852,713 852,713 853,713 854,713 854,713 855,713 855,713 857,713 858,713 859,713 859,713 860,713 861,713 861,713 862,713 862,713 863,714 864,714 865,714 865,714 866,714 867,714 868,714 869,714 869,714 870,714 870,714 872,714 872,714 873,714 873,714 874,715 875,715 875,715 875,715 876,715 876,715 877,715 877,715 878,715 879,715 879,715 880,715 880,715 881,715 882,715 883,715 883,715 884,715 884,715 885,715 886,715 886,715 887,715 888,715 888,715 890,715 890,715 891,715 892,715 892,715 893,715 895,715 895,715 896,715 897,715 897,715 898,715 898,715 899,715 899,715 900,715 901,715 901,715 902,715 903,715 904,715 904,715 906,715 906,715 907,715 908,715 909,715 909,715 910,715 911,715 912,715 912,715 913,715 913,715 915,715 915,715 916,715 917,715 917,715 918,715 919,715 920,716 920,716 921,716 922,716 923,715 924,715 925,715 926,715 927,715 927,715 928,715 928,715 930,715 930,715 931,715 931,715 932,715 933,715 933,716 934,716 935,716 935,717 936,717 937,717 937,716 938,716 938,716 939,716 939,716 941,716 941,716 942,716 943,716 945,716 945,716 946,716 946,716 948,716 948,717 949,717 949,717 950,716 951,716 951,716 952,716 953,716 953,716 955,716 955,716 956,716 957,716 957,716 959,716 959,716 960,716 960,716 961,716 962,716 962,716 963,716 963,716 964,716 964,716 965,716 966,716 967,716 967,716 968,716 968,716 969,716 970,716 970,716 971,716 971,716 972,716 973,716 973,716 974,716 974,716 975,716 975,716 977,716 977,717 978,717 978,717 979,717 980,717 981,717 981,717 982,717 982,717 983,717 984,717 984,717 985,717 986,717 986,717 987,717 988,717 988,717 989,717 991,717 991,717 994,717 995,717 995,717 996,717 997,717 997,717 998,718 999,718 999,718 1000,718 1000,718 1001,718 1002,718 1002,717 1003,717 1003,718 1004,718 1005,717 1006,717 1007,717 1009,718 1009,718 1010,718 1010,718 1011,718 1012,718 1013,718 1014,718 1015,718 1015,718 1016,718 1017,718 1017,718 1018,718 1018,718 1020,717 1021,717 1021,717 1022,717 1022,718 1023,718 1024,718 1026,718 1026,718 1027,718 1028,718 1028,718 1029,718 1030,718 1031,718 1031,718 1032,718 1033,718 1033,718 1034,718 1035,718 1035,718 1036,718 1038,718 1039,718 1039,718 1040,718 1040,718 1041,718 1042,718 1042,718 1043,718 1044,718 1044,718 1045,718 1046,718 1047,719 1047,719 1048,719 1049,719 1050,719 1051,719 1051,719 1052,719 1053,719 1053,719 1054,719 1054,719 1055,719 1056,719 1056,719 1057,719 1057,719 1058,719 1058,719 1059,719 1060,719 1060,719 1061,719 1061,719 1063,719 1064,719 1065,719 1066,719 1067,719 1067,719 1068,719 1068,719 1070,720 1071,720 1071,720 1072,720 1072,720 1073,720 1073,720 1074,720 1075,720 1075,720 1076,720 1076,720 1078,720 1078,720 1081,720 1082,720 1082,720 1083,720 1083,720 1085,720 1086,720 1087,721 1087,721 1088,721 1089,721 1089,721 1090,721 1091,721 1091,721 1092,721 1093,721 1095,721 1096,721 1097,721 1098,721 1099,721 1099,721 1100,721 1101,721 1101,721 1103,721 1104,721 1104,721 1105,721 1105,721 1106,721 1107,721 1107,721 1108,721 1108,721 1109,721 1109,721 1110,721 1111,721 1111,721 1112,721 1112,721 1113,721 1114,721 1114,721 1115,721 1115,722 1116,722 1116,722 1117,722 1118,721 1119,721 1120,721 1120,721 1121,721 1122,721 1126,722 1127,722 1127,722 1128,722 1129,722 1130,722 1130,722 1131,721 1131,721 1133,721 1133,721 1136,721 1136,721 1137,721 1137,721 1139,721 1140,721 1140,721 1141,721 1142,721 1143,721 1143,721 1144,721 1145,721 1145,721 1146,721 1147,721 1147,721 1148,722 1148,722 1149,722 1149,722 1150,722 1151,722 1152,722 1153,722 1154,722 1154,722 1155,722 1155,722 1156,722 1156,722 1157,722 1158,722 1159,722 1159,722 1160,722 1160,722 1161,722 1162,722 1162,722 1163,722 1164,722 1165,722 1165,722 1167,722 1167,722 1168,722 1169,722 1169,722 1170,722 1172,722 1173,722 1173,722 1175,723 1176,723 1176,723 1177,723 1177,723 1178,723 1178,723 1179,723 1180,723 1180,723 1181,723 1181,723 1182,723 1183,723 1183,723 1183,723 1183,723 1185,723 1185,723 1186,723 1186,723 1187,723 1187,723 1187,723 1188,723 1188,723 1188,723 1189,723 1189,723 1190,723 1190,723 "/>
<polyline fill="none" opacity="1" stroke="#BDE619" stroke-width="2" points="135,735 163,732 186,729 189,726 202,724 210,718 211,722 214,719 220,717 222,714 225,712 232,709 236,707 241,705 246,703 251,701 254,699 254,697 255,694 256,692 257,689 258,687 261,685 262,678 264,676 268,672 269,670 271,665 278,665 281,663 283,661 283,659 284,657 286,655 288,651 293,651 294,649 295,647 296,645 299,644 300,642 301,640 301,638 302,636 306,635 308,634 309,630 310,629 311,627 314,624 315,622 319,622 321,619 325,619 325,615 326,614 327,610 327,608 329,607 329,608 331,606 332,605 333,603 333,602 335,601 336,601 338,600 339,598 340,599 341,597 341,596 343,593 346,593 350,593 351,592 352,594 354,593 356,592 357,591 358,590 358,591 359,590 359,588 360,587 361,587 362,586 362,583 363,582 364,582 367,583 368,583 369,583 369,584 370,584 371,581 372,581 372,578 373,579 374,578 374,578 375,578 376,578 377,577 380,577 380,578 381,578 381,578 382,579 383,579 386,578 386,577 387,578 387,578 388,576 388,577 389,577 390,576 390,576 391,576 391,576 392,577 392,574 393,574 394,574 394,575 395,575 395,574 396,573 397,571 398,569 398,568 399,568 399,566 400,565 401,566 402,563 403,564 404,564 405,561 405,559 406,559 406,559 408,557 408,555 409,553 410,553 412,555 413,550 413,549 414,547 415,545 416,543 417,543 418,543 419,542 419,540 420,539 421,539 421,540 422,538 423,537 423,537 424,535 424,534 425,533 426,531 427,532 428,531 428,530 429,530 430,531 430,530 431,529 431,528 432,528 433,528 434,527 434,527 435,524 436,525 437,524 437,521 438,520 438,521 439,520 439,518 440,518 441,518 442,517 443,385 444,383 445,384 445,382 446,380 446,380 447,379 448,380 449,379 449,380 450,376 450,375 451,375 452,373 452,372 453,370 453,368 454,365 455,366 455,365 456,365 456,364 457,364 457,366 458,364 459,365 459,364 460,363 460,361 461,359 461,357 462,357 463,355 463,350 464,350 464,349 466,347 466,346 467,327 468,327 468,326 470,326 470,326 471,326 471,326 472,327 473,328 473,328 475,328 475,328 476,327 477,328 477,328 478,327 478,328 479,328 479,325 480,324 481,322 481,324 482,323 483,324 484,323 484,321 485,320 485,320 486,319 486,319 487,319 488,319 488,318 489,319 490,318 491,317 492,316 492,314 493,311 493,312 494,312 495,313 495,312 496,312 496,312 497,313 497,312 499,307 499,308 500,308 500,308 501,308 502,307 502,308 503,308 503,309 504,309 504,307 505,308 506,308 506,308 507,309 507,308 508,308 508,307 509,307 510,307 510,307 511,306 511,307 512,308 513,309 514,307 514,307 515,305 515,306 516,307 517,305 517,305 518,301 518,302 519,301 520,302 520,301 521,299 521,299 522,300 522,297 523,295 524,293 524,292 525,290 525,289 526,288 526,288 527,286 528,286 528,285 529,284 529,284 530,282 531,283 531,281 532,278 532,278 533,277 533,275 534,274 535,274 535,273 536,271 536,270 537,271 537,270 538,270 539,271 539,271 540,271 540,270 541,269 542,268 542,269 543,268 543,268 544,266 544,266 545,266 546,262 546,262 547,263 547,263 548,263 549,264 549,262 550,263 550,263 551,262 551,261 552,261 553,261 553,259 554,255 554,253 555,252 555,251 557,253 557,252 558,252 558,251 559,250 560,250 560,248 561,246 561,246 562,244 562,243 563,243 564,241 564,241 565,240 565,239 566,240 566,240 567,239 568,237 568,238 569,236 569,235 570,235 571,233 571,233 572,233 572,233 573,232 573,232 574,229 575,230 575,230 576,230 576,231 577,231 578,230 578,230 579,231 579,231 580,227 580,228 581,228 582,226 582,222 583,222 583,222 584,221 584,223 585,224 586,222 586,224 587,223 587,224 588,223 589,225 589,224 590,223 590,223 591,224 591,223 592,220 593,220 593,220 594,219 594,220 595,218 595,219 596,217 597,217 597,217 598,216 598,216 599,217 600,217 600,217 601,216 601,214 602,213 602,211 603,210 604,209 604,208 605,207 605,207 606,208 607,206 607,207 608,208 608,208 609,207 609,208 610,209 611,209 611,210 612,210 612,209 613,208 613,208 614,209 615,208 615,208 616,208 616,206 617,205 618,205 618,204 619,205 619,205 620,205 620,204 621,204 622,201 622,199 623,198 623,198 624,198 625,197 625,196 626,195 626,196 627,197 627,196 628,196 629,196 629,195 630,195 630,195 631,195 631,194 632,194 633,195 633,195 634,195 634,194 635,194 636,193 636,192 637,191 637,192 638,191 638,191 639,191 640,191 640,190 641,190 641,191 642,190 642,191 643,190 644,191 644,191 645,189 645,189 646,188 647,188 647,187 648,188 648,189 649,190 649,190 650,190 651,190 651,187 652,188 652,188 653,189 654,188 654,188 655,188 655,187 656,187 656,187 657,185 658,185 658,185 659,183 659,184 660,184 660,185 661,186 662,185 662,185 663,184 663,184 664,174 665,172 665,170 666,171 666,171 667,170 667,171 668,171 669,169 669,168 670,168 670,167 671,167 671,166 672,165 673,165 673,165 674,163 674,163 675,164 676,165 676,166 677,164 677,165 678,165 678,165 679,163 680,163 680,163 681,162 681,161 682,161 683,161 683,158 684,158 684,157 685,156 685,155 686,156 687,156 687,157 688,158 688,158 689,158 689,159 690,158 691,157 691,158 692,158 692,157 693,158 694,158 694,157 695,157 695,157 696,157 696,157 697,158 698,155 698,156 699,155 699,156 700,157 700,157 701,155 702,155 702,156 703,156 703,156 704,156 705,156 705,156 706,156 706,155 707,154 707,155 708,152 709,150 709,150 710,150 710,150 711,148 712,147 712,148 713,146 713,147 714,148 714,148 715,145 716,145 716,145 717,145 717,146 718,146 718,147 719,146 720,146 720,147 721,147 721,146 722,146 723,146 723,146 724,147 724,148 725,148 725,148 726,149 727,147 727,149 728,148 728,148 729,146 729,147 730,147 731,147 731,146 732,146 732,146 733,145 734,145 734,144 735,142 735,142 736,144 736,145 737,144 738,134 738,134 739,132 739,132 740,132 741,131 741,130 742,130 742,130 743,129 743,128 744,127 745,125 745,124 746,123 746,122 747,122 747,121 748,121 749,121 749,122 750,123 750,122 751,123 752,122 752,122 753,122 753,119 754,119 754,119 755,118 756,117 756,118 757,118 757,118 758,116 758,116 759,117 760,116 760,114 761,113 761,115 762,115 763,115 763,116 764,116 764,116 765,117 765,115 766,115 767,116 767,117 768,116 768,116 769,116 770,116 770,114 771,114 771,114 772,114 772,112 773,111 774,112 774,113 775,113 775,113 776,113 776,112 777,113 778,113 778,113 779,112 779,112 780,113 781,114 781,114 782,113 782,113 783,113 783,113 784,113 785,112 785,112 786,113 786,113 787,114 788,114 788,115 789,116 789,116 790,117 790,117 791,117 792,117 792,117 793,117 793,116 794,116 794,115 795,114 796,114 796,115 797,115 797,115 798,115 799,114 799,114 800,114 800,115 801,113 801,113 802,113 803,113 803,113 804,114 804,113 805,113 805,112 806,111 807,112 807,111 808,111 808,111 809,110 810,110 810,110 811,109 811,110 812,110 812,110 813,109 814,109 814,108 815,108 815,107 816,107 817,107 817,104 818,104 818,105 819,105 819,105 820,105 821,104 821,103 822,103 822,102 823,103 823,103 824,103 825,101 825,100 826,99 826,100 827,99 828,100 828,100 829,98 829,97 830,97 830,97 831,96 832,96 832,97 833,97 833,96 834,97 834,97 835,97 836,95 836,95 837,95 837,96 838,95 839,95 839,95 840,95 840,95 841,96 841,97 842,98 843,98 843,98 844,99 844,98 845,99 846,99 846,102 847,102 847,102 848,102 848,101 849,101 850,102 850,102 851,102 851,103 852,103 852,104 853,105 854,106 854,106 855,105 855,105 856,105 857,109 857,110 858,110 858,110 859,110 859,113 860,113 861,114 861,114 862,115 862,114 863,113 863,112 864,112 865,112 865,112 866,110 866,110 867,109 868,110 868,111 869,111 869,111 870,111 870,110 871,109 872,108 872,109 873,109 873,107 874,109 875,108 875,108 875,108 876,106 876,106 877,106 877,107 878,106 879,105 879,106 880,106 880,105 881,105 881,105 882,106 883,105 883,105 884,106 884,107 885,107 886,95 886,101 887,95 887,95 888,94 888,95 889,95 890,97 890,95 891,93 891,94 892,94 892,94 893,95 894,94 894,94 895,94 895,93 896,93 897,93 897,94 898,94 898,94 899,94 899,94 900,94 901,92 901,93 902,93 902,92 903,92 904,93 904,92 905,92 905,91 906,91 906,91 907,91 908,91 908,91 909,91 909,92 910,91 910,91 911,92 912,91 912,91 913,91 913,91 914,92 915,91 915,92 916,91 916,91 917,91 917,90 918,90 919,91 919,92 920,91 920,92 921,93 922,92 922,93 923,93 923,93 924,93 924,93 925,94 926,93 926,93 927,93 927,93 928,93 928,93 929,93 930,95 930,94 931,93 931,92 932,91 933,89 933,89 934,90 934,89 935,88 935,111 936,112 937,112 937,87 938,87 938,87 939,87 939,88 940,88 941,87 941,87 942,86 942,87 943,87 944,88 944,86 945,85 945,86 946,86 946,86 947,86 948,86 948,86 949,86 949,86 950,87 951,87 951,87 952,87 952,87 953,87 953,87 954,88 955,88 955,87 956,86 956,87 957,87 957,88 958,87 959,87 959,87 960,88 960,89 961,89 962,89 962,89 963,90 963,90 964,89 964,90 965,90 966,89 966,89 967,89 967,90 968,89 968,88 969,89 970,89 970,88 971,88 971,89 972,89 973,88 973,89 974,89 974,90 975,90 975,90 976,90 977,90 977,90 978,90 978,89 979,90 980,89 980,89 981,88 981,87 982,88 982,88 983,88 984,88 984,88 985,87 985,88 986,88 986,87 987,87 988,87 988,87 989,88 989,88 990,88 991,88 991,88 992,88 992,89 993,89 993,88 994,89 995,89 995,88 996,88 996,87 997,87 997,87 998,85 999,85 999,85 1000,85 1000,85 1001,85 1002,84 1002,84 1003,86 1003,86 1004,87 1004,87 1005,88 1006,88 1006,89 1007,89 1007,89 1008,90 1009,91 1009,91 1010,91 1010,90 1011,88 1011,89 1012,89 1013,88 1013,89 1014,88 1014,88 1015,88 1015,88 1016,88 1017,87 1017,88 1018,87 1018,87 1019,87 1020,86 1020,86 1021,86 1021,86 1022,86 1022,86 1023,86 1024,86 1024,86 1025,85 1025,86 1026,85 1026,85 1027,85 1028,85 1028,85 1029,85 1029,84 1030,85 1031,85 1031,86 1032,86 1032,84 1033,84 1033,83 1034,83 1035,83 1035,83 1036,83 1036,85 1037,85 1038,85 1038,86 1039,79 1039,79 1040,80 1040,79 1041,79 1042,78 1042,78 1043,78 1043,78 1044,77 1044,77 1045,76 1046,76 1046,77 1047,76 1047,75 1048,76 1049,76 1049,75 1050,76 1050,76 1051,77 1051,77 1052,77 1053,76 1053,78 1054,78 1054,78 1055,79 1056,78 1056,78 1057,78 1057,79 1058,79 1058,79 1059,79 1060,79 1060,79 1061,79 1061,78 1062,77 1062,77 1063,78 1064,77 1064,77 1065,78 1065,79 1066,78 1067,78 1067,78 1068,78 1068,78 1069,78 1069,79 1070,79 1071,79 1071,80 1072,80 1072,80 1073,81 1073,81 1074,82 1075,82 1075,81 1076,81 1076,81 1077,81 1078,81 1078,81 1079,81 1079,81 1080,81 1080,81 1081,81 1082,81 1082,80 1083,80 1083,80 1084,82 1085,82 1085,82 1086,83 1086,83 1087,83 1087,84 1088,84 1089,84 1089,84 1090,85 1090,84 1091,84 1091,84 1092,84 1093,84 1093,85 1094,86 1094,85 1095,84 1096,84 1096,84 1097,85 1097,85 1098,85 1098,86 1099,85 1099,85 1100,86 1100,87 1101,87 1101,86 1102,87 1102,87 1103,88 1104,88 1104,88 1105,88 1105,88 1106,89 1107,88 1107,88 1108,88 1108,88 1109,89 1109,88 1110,88 1111,88 1111,89 1112,88 1112,88 1113,88 1114,87 1114,87 1115,87 1115,88 1116,88 1116,86 1117,86 1118,87 1118,87 1119,87 1119,87 1120,87 1120,87 1121,88 1122,88 1122,88 1123,87 1123,87 1124,87 1125,87 1125,87 1126,88 1126,87 1127,88 1127,88 1128,89 1129,89 1129,89 1130,89 1130,90 1131,90 1131,90 1132,90 1133,90 1133,91 1134,91 1134,92 1135,92 1136,92 1136,93 1137,94 1137,93 1138,93 1138,91 1139,91 1140,91 1140,91 1141,92 1141,91 1142,91 1143,92 1143,93 1144,93 1144,93 1145,93 1145,93 1146,93 1147,94 1147,94 1148,93 1148,94 1149,94 1149,93 1150,92 1151,93 1151,93 1152,94 1152,94 1153,95 1154,95 1154,95 1155,94 1155,95 1156,95 1156,95 1157,95 1158,95 1158,94 1159,94 1159,94 1160,93 1160,94 1161,94 1162,94 1162,94 1163,95 1163,95 1164,95 1165,95 1165,94 1166,94 1166,95 1167,95 1167,95 1168,95 1169,94 1169,94 1170,94 1170,94 1171,94 1172,94 1172,94 1173,94 1173,95 1174,95 1174,94 1175,94 1176,94 1176,95 1177,95 1177,96 1178,96 1178,96 1179,96 1180,96 1180,96 1181,96 1181,97 1181,97 1181,97 1182,96 1183,96 1183,95 1183,95 1183,96 1184,96 1184,96 1184,96 1185,96 1185,96 1185,96 1185,96 1186,96 1186,96 1187,96 1187,95 1187,95 1187,95 1188,95 1188,95 1188,95 1188,94 1189,94 1189,94 1190,94 1190,93 "/>
<polyline fill="none" opacity="1" stroke="#19E66B" stroke-width="2" points="60,647 60,659 61,671 70,688 76,656 77,643 83,639 87,624 91,612 96,612 98,606 99,644 100,638 104,641 108,631 114,631 115,626 123,627 126,624 127,630 131,633 144,633 148,627 149,624 150,625 152,626 153,623 156,625 158,626 158,627 159,627 162,625 162,630 163,631 164,631 164,627 165,624 166,625 166,625 167,619 168,609 169,609 169,610 170,607 170,607 171,608 171,608 172,609 173,609 173,610 174,606 174,607 175,608 176,608 177,609 178,609 178,610 179,607 180,608 180,608 181,609 181,605 182,602 183,603 184,604 184,604 185,598 185,598 187,599 187,599 188,593 188,590 189,591 190,591 191,589 191,589 192,590 192,590 193,591 193,591 194,591 195,591 195,592 196,590 198,591 199,591 200,591 201,596 202,593 203,594 203,591 204,589 205,586 205,586 206,587 207,588 209,589 209,589 210,587 210,587 211,588 212,589 213,586 214,584 216,585 216,586 217,586 217,584 218,584 218,584 220,585 220,586 221,586 221,586 222,587 223,587 224,588 224,583 225,580 225,581 226,581 227,581 228,581 228,582 229,582 229,583 230,580 231,581 232,581 232,581 234,571 235,572 236,570 237,568 238,568 238,568 239,569 239,569 240,567 240,567 241,567 242,568 242,568 243,568 243,568 244,569 246,569 246,570 247,570 247,568 248,568 249,569 249,569 250,569 250,570 251,570 252,570 253,569 253,570 254,570 254,568 256,569 256,569 257,569 257,569 258,570 258,570 259,571 260,571 261,571 261,572 262,572 263,572 263,568 264,568 266,569 267,569 267,569 268,567 268,568 269,568 270,569 271,569 272,568 272,563 273,563 274,564 274,555 275,555 275,556 276,551 276,552 277,553 278,553 278,553 279,554 280,554 281,554 282,555 282,555 283,553 283,551 284,549 285,550 285,550 286,548 286,549 287,549 287,550 288,548 289,548 290,549 290,549 291,550 292,550 292,551 293,549 293,550 294,550 294,550 295,550 296,551 296,551 297,551 297,550 298,550 298,550 299,550 300,551 300,549 301,549 301,550 302,550 303,551 303,551 304,551 304,551 305,552 305,552 306,553 307,553 307,553 308,554 308,550 309,551 310,551 310,551 311,548 311,546 312,546 312,546 313,547 314,545 314,544 315,546 315,547 316,547 316,546 317,544 318,543 318,541 319,542 319,538 320,538 321,539 321,539 322,539 322,540 323,540 324,539 325,539 325,540 326,538 327,539 327,538 328,539 329,539 329,540 330,540 330,540 331,541 332,538 332,538 333,538 333,539 334,537 334,537 335,538 336,538 336,536 337,537 337,536 338,536 339,536 339,537 340,537 340,535 341,534 341,534 342,535 343,535 343,536 344,536 344,535 345,536 345,534 346,535 347,535 347,536 348,537 348,537 349,537 350,537 350,538 351,538 351,538 352,539 352,539 353,539 354,540 354,540 355,539 355,539 356,539 357,539 357,536 358,537 358,535 360,536 361,537 361,535 362,536 362,535 363,533 363,534 364,532 365,533 365,534 366,534 366,535 367,535 368,535 368,536 369,536 369,535 370,535 370,535 371,536 372,534 372,533 373,533 373,534 374,534 374,533 375,533 376,533 376,534 377,533 377,533 378,533 379,534 379,534 380,532 381,532 382,533 383,533 383,534 384,532 384,533 385,533 386,533 386,532 387,533 388,533 388,533 389,534 390,534 390,533 391,533 391,534 392,534 392,534 393,535 394,535 394,536 395,536 395,536 396,535 397,536 397,536 398,536 398,537 399,537 399,537 400,539 401,538 401,537 402,539 402,539 403,540 403,540 404,538 405,539 405,539 406,539 406,538 407,538 408,539 408,539 409,539 409,539 410,540 410,539 411,539 412,538 412,538 413,538 413,539 414,538 415,538 415,538 416,539 416,539 417,539 417,540 418,540 419,541 419,541 420,540 420,540 421,539 421,537 422,537 423,537 423,537 424,538 424,538 425,538 426,539 426,539 427,539 427,539 428,540 428,540 429,540 430,539 430,540 431,539 431,539 432,540 432,540 433,539 434,538 434,537 435,538 435,538 436,539 437,539 437,538 438,537 438,537 439,537 439,538 440,538 441,538 441,539 442,539 442,540 443,544 444,544 444,545 445,544 445,544 446,544 446,545 447,545 448,544 448,544 449,545 449,544 450,544 450,544 451,545 452,545 452,545 453,546 453,546 455,546 455,547 456,547 456,547 457,545 457,546 458,547 459,547 459,547 460,547 460,549 461,549 461,548 462,549 463,549 463,550 464,551 464,551 465,551 466,550 466,550 467,550 467,551 468,551 468,550 469,550 470,551 470,551 471,551 471,551 472,549 473,549 473,550 474,549 474,549 475,549 475,549 476,550 477,550 477,550 478,551 478,551 479,551 479,552 480,552 481,551 481,551 482,551 482,552 483,552 484,551 484,553 485,553 485,553 486,553 486,552 487,553 488,553 488,553 489,552 489,552 490,552 491,551 491,551 492,551 492,552 493,552 493,551 494,551 495,551 495,552 496,552 496,552 497,551 497,551 498,550 499,551 499,551 500,551 500,552 501,552 502,552 503,552 503,553 504,553 504,553 505,554 506,554 506,552 507,553 507,553 508,553 508,554 509,554 510,552 510,552 511,551 511,551 512,550 513,548 513,549 514,549 514,549 515,549 515,550 516,549 517,550 517,550 518,550 518,549 519,550 520,550 520,550 521,552 521,552 522,552 522,553 523,553 524,554 524,554 525,554 525,554 526,554 526,554 527,555 528,555 528,555 529,556 529,556 530,556 531,556 531,558 532,558 532,557 533,557 533,557 534,557 535,558 535,558 536,558 536,558 537,559 537,558 538,558 539,559 539,559 540,559 540,560 541,560 542,560 542,560 543,560 543,560 544,561 544,562 545,563 546,563 546,564 547,565 547,565 548,563 549,565 549,565 550,565 550,565 551,566 551,566 552,566 553,566 553,566 554,566 554,567 555,568 555,568 556,568 557,569 557,569 558,569 558,570 559,570 560,571 560,571 561,571 561,571 562,571 562,571 563,570 564,570 564,570 565,570 565,570 566,571 566,571 567,571 568,571 568,572 569,572 569,572 570,572 571,572 571,572 572,572 572,573 573,572 573,572 574,573 575,573 575,573 576,573 576,574 577,574 578,574 578,574 579,574 579,575 580,575 580,576 581,576 582,574 582,575 583,576 583,576 584,576 584,575 585,575 586,574 586,575 587,574 587,574 588,573 589,575 589,575 590,575 590,575 591,576 591,577 592,577 593,576 593,576 594,576 594,576 595,577 595,577 596,578 597,579 597,578 598,578 598,579 599,579 600,579 600,580 601,580 601,579 602,580 602,580 603,580 604,580 604,580 605,580 605,580 606,581 607,580 607,581 608,581 608,581 609,581 609,582 610,581 611,581 611,582 612,582 612,582 613,582 613,582 614,582 615,582 615,582 616,583 616,583 617,583 618,583 618,583 619,583 619,584 620,584 620,584 621,584 622,585 622,585 623,585 623,586 624,586 625,586 625,586 626,586 626,587 627,587 627,587 628,587 629,587 629,587 630,587 630,587 631,588 631,588 632,588 633,588 633,589 634,589 634,589 635,589 636,589 636,589 637,590 637,590 638,590 638,590 639,590 640,590 640,590 641,591 641,591 642,591 642,591 643,591 644,591 644,592 645,592 645,592 646,592 647,592 647,593 648,593 648,593 649,593 649,593 650,593 651,593 651,593 652,594 652,594 653,594 654,593 654,594 655,594 655,593 656,594 656,595 657,594 658,594 658,594 659,594 659,595 660,595 660,595 661,595 662,595 662,596 663,596 663,596 664,597 665,597 665,597 666,597 666,597 667,598 667,598 668,598 669,597 669,598 670,598 670,598 671,598 671,598 672,599 673,599 673,600 674,600 674,600 675,601 676,601 676,601 677,601 677,600 678,600 678,600 679,600 680,600 680,601 681,601 681,601 682,601 683,602 683,602 684,602 684,602 685,602 685,603 686,603 687,603 687,603 688,604 688,604 689,604 689,604 690,604 691,605 691,605 692,605 692,604 693,605 694,605 694,605 695,605 696,605 696,606 697,605 698,605 698,605 699,605 699,606 700,606 700,606 701,607 702,607 702,607 703,607 703,606 704,606 705,606 705,606 706,607 706,607 707,607 707,607 708,608 709,608 709,608 710,608 710,608 711,608 712,608 712,608 713,608 713,608 714,608 714,608 715,608 716,608 716,609 717,609 717,608 718,608 718,609 719,609 720,609 720,609 721,609 721,609 722,609 723,609 723,609 724,609 724,609 725,609 725,609 726,608 727,609 727,609 728,609 728,609 729,610 729,610 730,610 731,610 731,610 732,610 732,610 733,611 734,611 734,611 735,610 735,611 736,611 736,611 737,611 738,612 738,612 739,612 739,612 740,612 741,613 741,613 742,613 742,613 743,613 743,614 744,614 745,614 745,614 746,614 746,614 747,614 747,614 748,615 749,615 749,614 750,615 750,615 751,615 752,615 752,615 753,616 753,616 754,616 754,616 755,616 756,616 756,616 757,616 757,616 758,616 758,616 759,617 760,617 760,617 761,617 761,617 762,617 763,617 763,617 764,617 764,618 765,618 765,618 766,618 767,618 767,618 768,619 768,619 769,619 770,619 770,620 771,620 771,620 772,620 772,620 773,621 774,620 774,621 775,621 775,621 776,621 776,621 777,621 778,621 778,621 779,621 779,621 780,622 781,621 781,621 782,622 782,622 783,622 783,623 784,623 785,623 785,623 786,623 786,623 787,623 788,623 788,624 789,624 789,624 790,624 790,624 791,625 792,625 792,625 793,625 793,625 794,624 794,624 795,624 796,625 796,625 797,625 797,626 798,626 799,626 799,625 800,625 800,625 801,626 801,626 802,626 803,626 803,626 804,626 804,626 805,626 805,626 806,626 807,626 807,627 808,627 808,627 809,627 810,627 810,627 811,627 811,627 812,627 812,628 813,627 814,627 814,627 815,628 815,628 816,628 817,628 817,628 818,628 818,628 819,628 819,629 820,629 821,628 821,628 822,628 822,629 823,629 823,628 824,628 825,629 825,629 826,629 826,629 827,629 828,628 828,628 829,628 829,628 830,629 830,628 831,628 832,629 832,629 833,629 833,629 834,629 834,629 835,629 836,629 836,629 837,630 837,630 838,629 839,629 839,629 840,630 840,630 841,630 841,630 842,630 843,630 843,630 844,630 844,630 845,630 846,631 846,631 847,631 847,632 848,632 848,632 849,631 850,632 850,632 851,632 851,632 852,632 852,632 853,632 854,632 854,632 855,632 855,632 856,632 857,633 857,633 858,633 858,633 859,634 859,634 860,634 861,634 861,635 862,635 862,635 863,635 863,635 864,635 865,635 865,636 866,636 866,636 867,636 868,636 868,637 869,637 869,637 870,637 870,637 871,637 872,636 872,636 873,637 873,637 874,637 875,637 875,637 875,637 876,637 876,637 877,637 877,637 878,637 879,637 879,637 880,637 880,637 881,637 881,638 882,638 883,638 883,638 884,638 884,638 885,638 886,638 886,639 887,638 887,638 888,638 888,639 889,639 890,639 890,639 891,639 891,639 892,639 892,639 893,639 894,639 894,639 895,639 895,639 896,639 897,639 897,639 898,640 898,640 899,640 899,640 900,640 901,640 901,639 902,639 902,640 903,640 904,640 904,640 905,640 905,640 906,640 906,640 907,640 908,640 908,640 909,640 909,640 910,640 910,640 911,640 912,640 912,641 913,641 913,641 914,641 915,641 915,641 916,641 916,641 917,641 917,641 918,641 919,641 919,641 920,641 920,641 921,641 922,641 922,641 923,641 923,641 924,641 924,641 925,641 926,641 926,642 927,642 927,642 928,642 928,642 929,642 930,642 930,642 931,642 931,642 932,642 933,643 933,643 934,643 934,643 935,644 935,647 936,647 937,647 937,644 938,644 938,644 939,644 939,644 940,644 941,644 941,644 942,644 942,644 943,644 944,645 944,645 945,645 945,645 946,645 946,645 947,645 948,645 948,645 949,645 949,646 950,646 951,646 951,646 952,646 952,646 953,646 953,647 954,647 955,647 955,647 956,647 956,647 957,647 957,647 958,647 959,647 959,647 960,648 960,648 961,648 962,648 962,648 963,648 963,648 964,649 964,649 965,649 966,649 966,649 967,649 967,649 968,649 968,649 969,649 970,649 970,650 971,650 971,650 972,650 973,650 973,650 974,650 974,650 975,650 975,650 976,651 977,651 977,651 978,651 978,651 979,651 980,651 980,651 981,651 981,652 982,651 982,651 983,652 984,652 984,652 985,652 985,652 986,652 986,652 987,652 988,652 988,652 989,653 989,653 990,653 991,653 991,653 992,653 992,653 993,653 993,653 994,653 995,653 995,653 996,654 996,654 997,654 997,654 998,654 999,654 999,654 1000,654 1000,654 1001,654 1002,654 1002,655 1003,655 1003,655 1004,655 1004,655 1005,656 1006,656 1006,656 1007,656 1007,656 1008,656 1009,656 1009,656 1010,656 1010,656 1011,656 1011,656 1012,657 1013,657 1013,657 1014,657 1014,657 1015,657 1015,657 1016,657 1017,657 1017,657 1018,657 1018,657 1019,657 1020,658 1020,658 1021,658 1021,658 1022,658 1022,658 1023,658 1024,658 1024,658 1025,658 1025,658 1026,659 1026,659 1027,659 1028,659 1028,659 1029,659 1029,659 1030,660 1031,660 1031,660 1032,660 1032,660 1033,660 1033,660 1034,660 1035,660 1035,660 1036,660 1036,660 1037,660 1038,660 1038,660 1039,661 1039,661 1040,661 1040,661 1041,661 1042,661 1042,661 1043,661 1043,661 1044,661 1044,661 1045,662 1046,662 1046,662 1047,662 1047,662 1048,662 1049,662 1049,663 1050,663 1050,663 1051,663 1051,663 1052,663 1053,663 1053,664 1054,664 1054,664 1055,664 1056,664 1056,664 1057,664 1057,664 1058,664 1058,664 1059,664 1060,664 1060,664 1061,665 1061,665 1062,665 1062,665 1063,665 1064,665 1064,665 1065,665 1065,665 1066,665 1067,665 1067,665 1068,665 1068,665 1069,665 1069,665 1070,665 1071,665 1071,665 1072,665 1072,666 1073,666 1073,666 1074,666 1075,666 1075,666 1076,666 1076,666 1077,666 1078,667 1078,667 1079,667 1079,667 1080,667 1080,667 1081,667 1082,667 1082,667 1083,667 1083,667 1084,667 1085,668 1085,668 1086,668 1086,668 1087,668 1087,668 1088,668 1089,668 1089,668 1090,668 1090,668 1091,668 1091,668 1092,669 1093,669 1093,669 1094,669 1094,669 1095,669 1096,669 1096,669 1097,669 1097,669 1098,669 1098,669 1099,669 1099,669 1100,669 1100,669 1101,669 1101,669 1102,669 1102,669 1103,670 1104,670 1104,670 1105,670 1105,670 1106,670 1107,670 1107,670 1108,670 1108,670 1109,670 1109,670 1110,670 1111,671 1111,671 1112,671 1112,671 1113,671 1114,671 1114,671 1115,671 1115,671 1116,671 1116,672 1117,672 1118,672 1118,672 1119,673 1119,673 1120,673 1120,673 1121,673 1122,673 1122,673 1123,673 1123,673 1124,673 1125,673 1125,673 1126,673 1126,673 1127,673 1127,674 1128,674 1129,673 1129,674 1130,674 1130,674 1131,674 1131,674 1132,674 1133,674 1133,674 1134,674 1134,674 1135,674 1136,674 1136,674 1137,675 1137,675 1138,675 1138,675 1139,675 1140,675 1140,675 1141,675 1141,675 1142,675 1143,675 1143,675 1144,676 1144,676 1145,676 1145,676 1146,676 1147,676 1147,676 1148,676 1148,677 1149,676 1149,676 1150,676 1151,676 1151,676 1152,676 1152,676 1153,676 1154,677 1154,677 1155,677 1155,677 1156,677 1156,677 1157,677 1158,677 1158,677 1159,677 1159,677 1160,677 1160,677 1161,677 1162,678 1162,678 1163,678 1163,678 1164,678 1165,678 1165,678 1166,678 1166,678 1167,678 1167,678 1168,678 1169,678 1169,679 1170,679 1170,679 1171,679 1172,679 1172,679 1173,679 1173,679 1174,679 1174,679 1175,679 1176,679 1176,680 1177,680 1177,680 1178,680 1178,680 1179,680 1180,680 1180,680 1181,680 1181,680 1181,680 1181,680 1182,680 1183,680 1183,681 1183,681 1183,681 1184,680 1184,680 1184,680 1185,680 1185,681 1185,681 1185,681 1186,681 1186,681 1187,681 1187,681 1187,681 1187,681 1188,681 1188,681 1188,681 1188,681 1189,681 1189,681 1190,681 1190,682 "/>
<polyline fill="none" opacity="1" stroke="#196BE6" stroke-width="2" points="89,728 97,720 100,720 110,716 111,710 117,706 122,702 129,699 130,700 131,696 136,692 140,693 143,695 148,692 151,693 157,695 158,691 158,687 162,684 164,681 166,678 166,675 167,667 168,665 170,666 173,660 175,661 177,658 178,655 180,653 180,649 183,651 185,652 185,652 186,649 188,647 191,648 194,646 199,648 201,646 209,646 210,646 211,647 213,648 214,646 214,643 215,640 216,644 223,646 224,644 225,645 227,645 231,646 231,646 232,647 234,647 234,647 235,645 236,645 237,645 238,646 239,646 242,647 244,647 247,648 249,644 250,644 251,645 253,646 253,646 254,646 254,646 256,646 257,644 258,645 258,645 260,645 261,646 264,646 264,647 265,647 267,647 268,647 268,648 269,648 269,648 272,649 272,649 273,649 274,649 275,647 276,646 277,646 278,646 279,647 280,644 281,645 282,645 285,643 285,641 286,642 289,641 290,639 291,639 292,639 292,640 293,640 293,640 294,642 295,641 297,637 298,637 301,638 301,636 302,636 305,635 305,633 306,633 309,632 311,633 312,631 312,629 313,630 314,628 314,628 316,629 316,627 317,628 318,626 319,624 319,624 320,625 321,625 321,625 322,623 322,622 323,622 323,622 324,622 325,621 325,621 326,621 326,621 327,622 327,620 328,620 329,621 330,621 330,622 331,622 332,622 332,622 333,622 333,623 334,623 334,623 335,623 336,624 336,624 337,624 337,622 338,622 339,623 340,623 340,623 341,623 341,624 343,623 343,621 344,619 344,620 345,618 345,618 346,615 347,615 347,616 348,616 348,616 349,616 350,617 350,617 351,613 351,612 352,612 352,612 353,613 354,613 354,613 355,613 355,613 356,614 357,612 357,612 358,612 358,613 359,613 359,613 360,613 361,614 361,614 362,611 362,609 363,610 363,610 364,610 365,607 365,607 366,608 366,608 367,608 368,608 368,609 369,609 369,609 370,609 370,610 371,610 372,610 372,610 373,610 373,609 374,609 374,609 375,610 376,610 376,610 377,612 377,612 378,613 379,613 379,613 380,613 380,614 381,614 381,612 382,613 383,613 383,613 384,613 384,613 385,614 386,614 386,614 387,614 387,615 388,615 388,613 389,614 390,614 390,614 391,614 391,614 392,615 392,615 393,615 394,615 394,615 395,616 395,616 396,616 397,616 397,617 398,615 398,614 399,613 399,613 400,613 401,613 401,614 402,614 402,614 403,614 403,614 404,615 405,615 405,615 406,615 406,615 407,615 408,616 408,616 409,616 409,615 410,615 410,615 411,615 412,615 412,616 413,616 413,616 414,616 415,617 415,617 416,615 416,616 417,616 417,616 418,616 419,615 419,615 420,616 420,616 421,616 421,616 422,616 423,617 423,617 424,616 424,616 425,616 426,616 426,616 427,616 427,616 428,617 428,616 429,616 430,616 430,616 431,616 431,617 432,617 432,617 433,618 434,618 434,615 435,614 435,615 436,615 437,616 437,615 438,615 438,616 439,614 439,615 440,613 441,612 441,612 442,613 442,613 443,615 444,616 444,616 445,616 445,617 446,617 446,617 447,617 448,616 448,616 449,615 449,616 450,616 450,615 451,615 452,615 453,615 453,615 454,616 455,616 455,616 456,616 456,616 457,617 457,617 458,618 459,618 459,618 460,618 460,618 461,619 461,619 462,619 463,619 463,619 464,620 464,620 465,620 466,620 466,620 467,620 467,621 468,621 468,622 469,622 470,621 471,621 471,621 472,621 473,616 473,617 474,618 474,618 475,618 475,618 476,619 477,619 477,619 478,619 478,619 479,620 479,621 480,621 481,620 481,620 482,620 482,621 483,620 484,620 484,619 485,619 485,619 486,619 486,619 487,620 488,620 488,620 489,620 489,620 490,621 491,622 491,621 492,621 492,621 493,621 494,622 495,622 495,622 496,622 496,622 497,622 497,623 498,623 499,624 499,624 500,624 500,624 501,624 502,625 502,625 503,625 503,624 504,624 504,624 505,624 506,623 506,623 507,623 507,624 508,624 508,623 509,622 510,623 510,623 511,623 511,623 512,623 513,622 513,621 514,621 514,622 515,622 515,622 516,622 517,622 517,620 518,621 518,620 519,621 520,620 520,618 521,616 521,617 522,617 522,617 523,617 524,618 524,618 525,618 525,618 526,618 526,618 527,618 528,618 528,618 529,619 529,619 530,618 531,619 531,619 532,620 533,620 533,620 534,620 535,621 535,621 536,621 536,620 537,620 537,621 538,621 539,620 539,620 540,620 540,621 541,621 542,621 542,621 543,622 543,622 544,622 544,622 545,623 546,623 546,623 547,623 547,624 548,624 549,624 549,624 550,624 550,624 551,624 551,625 552,625 553,625 553,625 554,626 554,626 555,626 555,626 556,626 557,626 557,627 558,626 558,626 559,625 560,625 560,625 561,625 561,625 562,624 562,624 563,624 564,625 564,625 565,624 565,622 566,623 566,623 567,622 568,622 568,622 569,622 569,622 570,622 571,622 571,622 572,623 572,623 573,623 573,621 574,622 575,622 575,622 576,622 576,622 577,622 578,623 578,623 579,623 579,621 580,623 580,623 581,621 582,621 582,622 583,620 583,620 584,620 584,620 585,620 586,620 586,620 587,620 587,621 588,621 589,621 589,621 590,620 590,620 591,620 591,621 592,622 593,621 593,621 594,621 594,622 595,622 595,622 596,622 597,623 597,623 598,623 598,623 599,623 600,623 600,623 601,623 601,623 602,624 602,624 603,623 604,623 604,624 605,624 605,624 606,623 607,624 607,624 608,624 608,624 609,625 609,625 610,625 611,625 611,625 612,625 612,625 613,624 613,624 614,624 615,625 615,625 616,625 616,625 617,625 618,625 618,626 619,626 619,626 620,626 620,626 621,626 622,627 622,626 623,626 623,626 624,626 625,627 625,627 626,627 626,627 627,627 627,627 628,627 629,627 629,626 630,626 630,627 631,626 631,626 632,626 633,627 633,625 634,625 634,626 635,626 636,625 636,625 637,625 637,624 638,624 638,624 639,624 640,625 640,625 641,625 641,625 642,625 642,625 643,626 644,626 644,626 645,625 645,626 646,626 647,626 647,626 648,626 648,626 649,626 649,627 650,627 651,627 651,627 652,627 652,627 653,628 654,628 654,627 655,627 655,627 656,627 656,627 657,627 658,627 658,627 659,627 659,627 660,627 660,627 661,627 662,627 662,627 663,627 663,627 664,627 665,627 665,627 666,627 666,627 667,627 667,627 668,627 669,628 669,628 670,628 670,628 671,628 671,628 672,629 673,629 673,629 674,629 674,629 675,629 676,630 676,630 677,630 677,630 678,630 678,630 679,630 680,631 680,631 681,631 681,631 682,631 683,631 683,632 684,632 684,632 685,632 685,632 686,632 687,633 687,633 688,633 688,632 689,633 689,633 690,633 691,633 691,633 692,633 692,633 693,633 694,633 694,633 695,633 695,631 696,632 696,632 697,632 698,632 698,632 699,632 699,632 700,632 700,632 701,632 702,632 702,633 703,633 703,633 704,633 705,633 705,633 706,633 706,633 707,633 707,634 708,633 709,633 709,634 710,634 710,634 711,634 712,633 712,633 713,634 713,634 714,635 714,635 715,635 716,635 716,635 717,635 717,635 718,635 718,634 719,634 720,634 720,634 721,634 721,634 722,633 723,633 723,633 724,634 724,634 725,634 725,634 726,634 727,634 727,633 728,633 728,633 729,633 729,633 730,633 731,632 731,633 732,633 732,633 733,633 734,633 734,633 735,633 735,633 736,633 736,633 737,633 738,633 738,633 739,633 739,634 740,634 741,634 741,634 742,634 742,634 743,634 743,634 744,634 745,635 745,635 746,635 746,635 747,635 747,635 748,635 749,635 749,635 750,635 750,635 751,635 752,635 752,635 753,636 753,636 754,636 754,636 755,636 756,636 756,636 757,636 757,636 758,636 758,636 759,637 760,637 760,637 761,637 761,637 762,638 763,638 763,637 764,637 764,638 765,638 765,638 766,638 767,638 767,638 768,638 768,639 769,639 770,639 770,639 771,639 771,640 772,640 772,640 773,640 774,640 774,640 775,640 775,640 776,640 776,640 777,640 778,640 778,640 779,641 779,641 780,641 781,640 781,640 782,640 782,640 783,639 783,640 784,640 785,639 785,639 786,639 786,640 787,639 788,639 788,639 789,640 789,640 790,640 790,640 791,640 792,640 792,640 793,641 793,641 794,641 794,641 795,641 796,641 796,641 797,641 797,641 798,641 799,641 799,641 800,641 800,642 801,642 801,642 802,642 803,641 803,641 804,642 804,641 805,641 805,641 806,642 807,642 807,642 808,642 808,642 809,642 810,642 810,642 811,642 811,642 812,642 812,642 813,642 814,642 814,642 815,643 815,643 816,643 817,643 817,643 818,644 818,644 819,644 819,644 820,644 821,644 821,644 822,644 822,644 823,644 823,645 824,645 825,645 825,645 826,645 826,645 827,645 828,645 828,645 829,645 829,645 830,646 830,646 831,646 832,646 832,646 833,646 833,646 834,646 834,645 835,646 836,646 836,646 837,646 837,646 838,646 839,647 839,647 840,647 840,647 841,647 841,646 842,646 843,646 843,647 844,647 844,647 845,647 846,648 846,648 847,648 847,648 848,648 848,649 849,649 850,648 850,648 851,649 851,649 852,649 852,649 853,649 854,649 854,649 855,649 855,649 856,649 857,649 857,649 858,650 858,650 859,649 859,650 860,650 861,650 861,650 862,649 862,650 863,649 863,649 864,649 865,650 865,650 866,650 866,650 867,650 868,650 868,650 869,650 869,650 870,650 870,651 871,651 872,650 872,650 873,650 873,650 874,650 875,650 875,650 875,650 876,651 876,651 877,651 877,651 878,651 879,651 879,652 880,652 880,652 881,652 881,652 882,652 883,652 883,652 884,652 884,652 885,652 886,653 886,654 887,653 887,653 888,653 888,653 889,653 890,652 890,652 891,653 891,653 892,653 892,653 893,653 894,653 894,653 895,653 895,653 896,653 897,653 897,653 898,653 898,653 899,653 899,653 900,653 901,653 901,653 902,653 902,654 903,654 904,654 904,654 905,654 905,654 906,654 906,654 907,654 908,654 908,655 909,655 909,655 910,655 910,655 911,655 912,655 912,655 913,655 913,655 914,654 915,654 915,655 916,655 916,655 917,655 917,655 918,655 919,655 919,655 920,655 920,654 921,653 922,653 922,653 923,654 923,654 924,654 924,654 925,655 926,655 926,655 927,655 927,655 928,655 928,655 929,655 930,655 930,655 931,655 931,656 932,656 933,656 933,656 934,656 934,656 935,656 935,660 936,660 937,660 937,656 938,657 938,657 939,657 939,657 940,657 941,657 941,657 942,657 942,657 943,657 944,658 944,658 945,658 945,658 946,658 946,658 947,658 948,658 948,659 949,659 949,659 950,659 951,659 951,659 952,659 952,659 953,659 953,660 954,659 955,659 955,660 956,659 956,659 957,659 957,660 958,660 959,660 959,660 960,660 960,660 961,660 962,661 962,661 963,661 963,661 964,661 964,661 965,661 966,661 966,661 967,660 967,660 968,660 968,660 969,660 970,660 970,660 971,660 971,660 972,660 973,660 973,660 974,660 974,660 975,660 975,661 976,660 977,660 977,661 978,661 978,661 979,661 980,661 980,661 981,661 981,661 982,661 982,661 983,661 984,661 984,661 985,662 985,662 986,662 986,662 987,662 988,662 988,662 989,662 989,662 990,662 991,662 991,662 992,662 992,663 993,663 993,663 994,663 995,663 995,663 996,663 996,663 997,663 997,663 998,663 999,663 999,663 1000,663 1000,663 1001,662 1002,663 1002,663 1003,663 1003,663 1004,663 1004,663 1005,663 1006,663 1006,663 1007,663 1007,663 1008,663 1009,663 1009,663 1010,663 1010,663 1011,663 1011,663 1012,663 1013,663 1013,663 1014,663 1014,664 1015,664 1015,664 1016,664 1017,664 1017,664 1018,664 1018,664 1019,664 1020,664 1020,664 1021,664 1021,664 1022,664 1022,665 1023,665 1024,664 1024,664 1025,665 1025,665 1026,665 1026,665 1027,665 1028,665 1028,665 1029,665 1029,665 1030,665 1031,665 1031,665 1032,666 1032,666 1033,666 1033,666 1034,666 1035,666 1035,666 1036,666 1036,666 1037,666 1038,666 1038,666 1039,667 1039,667 1040,667 1040,667 1041,667 1042,667 1042,667 1043,667 1043,667 1044,667 1044,667 1045,667 1046,668 1046,668 1047,668 1047,668 1048,668 1049,668 1049,668 1050,668 1050,668 1051,668 1051,668 1052,668 1053,668 1053,668 1054,668 1054,668 1055,669 1056,669 1056,669 1057,669 1057,669 1058,669 1058,669 1059,669 1060,669 1060,669 1061,669 1061,669 1062,669 1062,669 1063,669 1064,669 1064,669 1065,669 1065,669 1066,669 1067,669 1067,669 1068,669 1068,669 1069,669 1069,669 1070,669 1071,669 1071,669 1072,669 1072,670 1073,669 1073,669 1074,670 1075,670 1075,670 1076,670 1076,670 1077,670 1078,670 1078,670 1079,670 1079,670 1080,670 1080,670 1081,670 1082,670 1082,670 1083,670 1083,670 1084,670 1085,670 1085,670 1086,670 1086,670 1087,670 1087,670 1088,670 1089,670 1089,670 1090,670 1090,670 1091,670 1091,670 1092,670 1093,670 1093,671 1094,671 1094,671 1095,671 1096,671 1096,671 1097,671 1097,671 1098,672 1098,671 1099,671 1099,671 1100,672 1100,672 1101,672 1101,672 1102,671 1102,671 1103,671 1104,672 1104,672 1105,672 1105,672 1106,672 1107,672 1107,672 1108,672 1108,672 1109,672 1109,671 1110,672 1111,671 1111,671 1112,671 1112,671 1113,671 1114,672 1114,672 1115,672 1115,672 1116,672 1116,672 1117,672 1118,672 1118,672 1119,672 1119,672 1120,672 1120,672 1121,672 1122,672 1122,672 1123,672 1123,672 1124,672 1125,673 1125,673 1126,672 1126,672 1127,672 1127,672 1128,672 1129,672 1129,673 1130,673 1130,673 1131,673 1131,673 1132,673 1133,673 1133,673 1134,673 1134,673 1135,673 1136,673 1136,673 1137,673 1137,673 1138,673 1138,674 1139,674 1140,674 1140,674 1141,674 1141,674 1142,674 1143,674 1143,674 1144,674 1144,674 1145,675 1145,675 1146,675 1147,675 1147,675 1148,675 1148,675 1149,675 1149,675 1150,675 1151,675 1151,675 1152,676 1152,676 1153,676 1154,676 1154,676 1155,676 1155,676 1156,676 1156,676 1157,676 1158,676 1158,676 1159,677 1159,677 1160,677 1160,677 1161,677 1162,677 1162,677 1163,677 1163,677 1164,677 1165,677 1165,677 1166,677 1166,677 1167,678 1167,678 1168,678 1169,678 1169,678 1170,678 1170,678 1171,678 1172,678 1172,678 1173,678 1173,678 1174,678 1174,678 1175,678 1176,678 1176,679 1177,679 1177,679 1178,679 1178,679 1179,679 1180,678 1180,678 1181,678 1181,678 1181,678 1181,678 1182,678 1183,678 1183,679 1183,679 1183,679 1184,679 1184,679 1184,679 1185,679 1185,679 1185,679 1185,679 1186,679 1186,679 1187,679 1187,679 1187,679 1187,680 1188,680 1188,679 1188,679 1188,679 1189,679 1189,680 1190,680 1190,680 "/>
<polyline fill="none" opacity="1" stroke="#BD19E6" stroke-width="2" points="545,738 546,737 569,737 587,736 608,735 609,734 618,734 630,732 635,732 640,731 648,731 651,730 652,728 655,728 661,727 678,727 678,726 684,726 691,725 698,725 699,724 700,724 702,723 705,722 706,721 710,721 710,720 714,720 715,720 716,719 716,719 717,719 720,719 721,718 721,718 722,718 725,718 727,717 728,717 728,717 730,716 731,715 733,715 734,714 734,713 735,714 736,713 736,712 737,712 738,712 739,713 740,712 742,712 744,711 745,711 747,710 748,710 750,710 751,709 753,708 756,708 757,708 757,707 760,707 763,706 764,705 764,704 769,704 770,703 770,703 771,702 774,701 775,701 776,700 776,700 777,700 778,698 778,698 779,698 780,697 781,696 781,696 782,695 782,695 783,694 784,694 785,693 786,693 787,691 788,690 789,690 789,690 790,689 790,688 791,688 792,688 792,688 793,688 793,687 794,687 794,687 795,686 796,685 796,685 797,685 797,683 798,682 799,682 800,681 801,681 802,681 803,680 803,679 804,679 804,677 805,676 807,676 807,675 808,675 808,674 809,674 810,674 810,674 811,674 811,674 812,673 812,673 813,673 814,673 814,673 815,674 815,673 816,673 817,673 817,672 818,672 818,672 819,672 819,672 820,672 821,672 821,672 822,672 822,672 823,671 823,671 824,671 825,670 826,670 826,670 827,670 828,669 828,669 829,668 829,668 830,668 830,668 832,667 832,667 833,667 833,666 834,667 834,667 835,666 836,666 836,665 837,666 837,665 838,664 839,664 839,663 840,663 840,663 841,663 841,663 842,663 843,663 843,663 844,663 845,663 846,662 846,663 847,662 847,662 848,662 848,662 849,662 850,662 850,662 851,662 851,662 852,661 852,660 853,658 854,658 854,657 855,657 855,657 856,656 857,657 857,657 858,657 858,656 859,656 859,656 861,656 861,656 862,656 862,655 863,655 863,655 865,654 865,653 866,653 867,653 868,653 868,653 869,653 869,653 870,653 870,653 872,653 872,653 873,653 873,652 874,651 875,651 875,651 875,651 876,651 876,651 877,651 877,650 879,650 879,649 880,649 880,649 881,649 881,648 882,647 883,647 883,646 884,646 884,646 885,646 886,645 886,645 887,644 887,644 888,644 888,644 889,644 890,643 890,643 891,643 891,641 892,641 892,641 893,641 894,640 894,640 895,640 895,640 896,640 897,640 897,639 898,639 898,638 899,639 899,639 900,638 901,638 901,638 902,637 902,637 903,636 904,636 904,636 905,636 905,636 906,636 906,636 907,636 908,637 909,637 909,636 910,636 910,636 911,636 912,636 912,637 913,637 913,636 914,637 915,636 915,636 916,636 916,636 917,636 917,636 918,635 919,635 919,635 920,635 920,634 921,634 922,633 922,632 923,631 923,632 924,631 924,630 925,629 926,629 926,628 927,629 927,629 928,628 928,627 929,627 930,626 930,626 931,625 931,625 932,625 933,625 933,625 934,623 934,622 935,621 935,625 936,625 937,624 937,619 938,619 938,618 939,616 939,616 940,615 941,615 941,614 942,614 942,614 943,613 944,613 944,613 945,613 945,613 946,613 946,613 947,613 948,612 948,612 949,612 949,612 950,612 951,611 951,610 952,610 952,609 953,609 953,610 954,610 955,609 955,608 956,608 956,608 957,608 957,607 958,607 959,607 959,607 960,606 960,606 961,607 962,607 962,607 963,607 963,607 964,606 964,606 965,605 966,605 966,604 967,604 967,604 968,604 968,603 969,603 970,602 970,602 971,601 971,600 972,600 973,599 973,599 974,599 974,599 975,598 975,598 976,597 977,596 977,596 978,597 978,596 979,595 980,595 980,595 981,595 981,594 982,594 982,594 983,593 984,593 984,593 985,593 985,593 986,593 986,593 987,593 988,592 988,592 989,591 989,591 990,591 991,591 991,590 992,590 992,590 993,590 993,590 994,590 995,590 995,590 996,590 996,589 997,589 997,589 998,588 999,587 999,587 1000,587 1000,587 1001,587 1002,586 1002,586 1003,586 1003,586 1004,585 1004,585 1005,585 1006,584 1006,584 1007,585 1007,584 1008,584 1009,584 1009,584 1010,583 1010,583 1011,582 1011,581 1012,581 1013,581 1013,581 1014,581 1014,581 1015,581 1015,581 1016,580 1017,579 1017,580 1018,579 1018,579 1019,579 1020,579 1020,579 1021,579 1021,578 1022,578 1022,577 1023,577 1024,577 1024,577 1025,577 1025,576 1026,576 1026,575 1027,575 1028,576 1028,575 1029,574 1029,574 1030,574 1031,573 1031,573 1032,573 1032,573 1033,572 1033,572 1034,572 1035,572 1035,571 1036,571 1036,572 1037,572 1038,571 1038,571 1039,571 1039,571 1040,571 1040,571 1041,571 1042,571 1042,571 1043,570 1043,569 1044,569 1044,568 1045,569 1046,568 1046,568 1047,568 1047,568 1048,567 1049,567 1049,567 1050,567 1050,567 1051,566 1051,566 1052,566 1053,566 1053,565 1054,565 1054,564 1055,564 1056,564 1056,563 1057,563 1057,563 1058,562 1058,562 1059,562 1060,561 1060,561 1061,561 1061,560 1062,560 1062,560 1063,560 1064,560 1064,559 1065,558 1066,558 1067,558 1067,558 1068,558 1068,557 1069,557 1069,557 1070,557 1071,557 1071,557 1072,556 1072,556 1073,555 1073,554 1074,554 1075,554 1075,553 1076,553 1076,553 1077,552 1078,552 1078,552 1079,551 1079,551 1080,551 1080,551 1081,551 1082,550 1082,549 1083,549 1083,549 1084,549 1085,549 1085,548 1086,548 1086,547 1087,547 1087,546 1088,545 1089,545 1089,544 1090,544 1090,543 1091,543 1091,542 1092,542 1093,541 1093,541 1094,541 1094,541 1095,540 1096,540 1096,540 1097,539 1097,539 1098,539 1098,538 1099,538 1099,538 1100,538 1100,538 1101,537 1101,537 1102,536 1102,536 1103,534 1104,533 1104,533 1105,532 1105,531 1106,531 1107,531 1107,531 1108,531 1108,531 1109,530 1109,530 1110,531 1111,531 1111,530 1112,529 1112,529 1113,529 1114,528 1114,528 1115,528 1115,527 1116,527 1116,526 1117,526 1118,526 1118,525 1119,525 1119,526 1120,525 1120,525 1121,524 1122,524 1122,524 1123,524 1123,524 1124,524 1125,524 1125,523 1126,523 1126,523 1127,523 1127,521 1128,521 1129,521 1129,520 1130,520 1130,520 1131,520 1131,520 1132,519 1133,518 1133,518 1134,518 1134,517 1135,516 1136,516 1136,515 1137,515 1137,515 1138,515 1138,515 1139,515 1140,514 1140,514 1141,514 1141,514 1142,513 1143,514 1143,513 1144,513 1144,513 1145,513 1145,513 1146,513 1147,513 1147,512 1148,512 1148,512 1149,511 1149,511 1150,510 1151,510 1151,509 1152,509 1152,509 1153,509 1154,510 1154,510 1155,510 1155,509 1156,510 1156,510 1157,509 1158,509 1158,508 1159,508 1159,508 1160,508 1160,508 1161,508 1162,507 1162,507 1163,507 1163,506 1164,506 1165,506 1165,506 1166,506 1166,505 1167,505 1167,505 1168,505 1169,505 1169,505 1170,504 1170,504 1171,504 1172,503 1172,502 1173,501 1173,501 1174,501 1174,501 1175,500 1176,500 1176,500 1177,500 1177,500 1178,500 1178,499 1179,499 1180,499 1180,499 1181,499 1181,499 1181,499 1181,498 1182,497 1183,497 1183,497 1183,497 1183,497 1184,497 1184,497 1184,497 1185,497 1185,496 1185,496 1185,496 1186,496 1186,496 1187,496 1187,496 1187,496 1187,496 1188,496 1188,495 1188,495 1188,495 1189,495 1189,494 1190,494 1190,495 "/>
<rect x="1088" y="329" width="97" height="91" opacity="1" fill="#FFFFFF" stroke="none"/>
<rect x="1088" y="329" width="97" height="91" opacity="1" fill="none" stroke="#000000"/>
<text x="1128" y="339" dy="0.76em" text-anchor="start" font-family="sans-serif" font-size="9.67741935483871" opacity="1" fill="#000000">
argparse
</text>
<text x="1128" y="354" dy="0.76em" text-anchor="start" font-family="sans-serif" font-size="9.67741935483871" opacity="1" fill="#000000">
clap
</text>
<text x="1128" y="369" dy="0.76em" text-anchor="start" font-family="sans-serif" font-size="9.67741935483871" opacity="1" fill="#000000">
docopt
</text>
<text x="1128" y="384" dy="0.76em" text-anchor="start" font-family="sans-serif" font-size="9.67741935483871" opacity="1" fill="#000000">
getopts
</text>
<text x="1128" y="399" dy="0.76em" text-anchor="start" font-family="sans-serif" font-size="9.67741935483871" opacity="1" fill="#000000">
structopt
</text>
<polyline fill="none" opacity="1" stroke="#E61919" stroke-width="2" points="1098,343 1118,343 "/>
<polyline fill="none" opacity="1" stroke="#BDE619" stroke-width="2" points="1098,359 1118,359 "/>
<polyline fill="none" opacity="1" stroke="#19E66B" stroke-width="2" points="1098,374 1118,374 "/>
<polyline fill="none" opacity="1" stroke="#196BE6" stroke-width="2" points="1098,389 1118,389 "/>
<polyline fill="none" opacity="1" stroke="#BD19E6" stroke-width="2" points="1098,404 1118,404 "/>
</svg>
