<svg width="1200" height="800" xmlns="http://www.w3.org/2000/svg">
<rect x="0" y="0" width="1199" height="799" opacity="1" fill="#FFFFFF" stroke="none"/>
<line opacity="0.1" stroke="#000000" stroke-width="1" x1="60" y1="731" x2="1190" y2="731"/>
<line opacity="0.1" stroke="#000000" stroke-width="1" x1="60" y1="723" x2="1190" y2="723"/>
<line opacity="0.1" stroke="#000000" stroke-width="1" x1="60" y1="715" x2="1190" y2="715"/>
<line opacity="0.1" stroke="#000000" stroke-width="1" x1="60" y1="707" x2="1190" y2="707"/>
<line opacity="0.1" stroke="#000000" stroke-width="1" x1="60" y1="699" x2="1190" y2="699"/>
<line opacity="0.1" stroke="#000000" stroke-width="1" x1="60" y1="691" x2="1190" y2="691"/>
<line opacity="0.1" stroke="#000000" stroke-width="1" x1="60" y1="683" x2="1190" y2="683"/>
<line opacity="0.1" stroke="#000000" stroke-width="1" x1="60" y1="675" x2="1190" y2="675"/>
<line opacity="0.1" stroke="#000000" stroke-width="1" x1="60" y1="667" x2="1190" y2="667"/>
<line opacity="0.1" stroke="#000000" stroke-width="1" x1="60" y1="659" x2="1190" y2="659"/>
<line opacity="0.1" stroke="#000000" stroke-width="1" x1="60" y1="651" x2="1190" y2="651"/>
<line opacity="0.1" stroke="#000000" stroke-width="1" x1="60" y1="643" x2="1190" y2="643"/>
<line opacity="0.1" stroke="#000000" stroke-width="1" x1="60" y1="635" x2="1190" y2="635"/>
<line opacity="0.1" stroke="#000000" stroke-width="1" x1="60" y1="627" x2="1190" y2="627"/>
<line opacity="0.1" stroke="#000000" stroke-width="1" x1="60" y1="619" x2="1190" y2="619"/>
<line opacity="0.1" stroke="#000000" stroke-width="1" x1="60" y1="611" x2="1190" y2="611"/>
<line opacity="0.1" stroke="#000000" stroke-width="1" x1="60" y1="603" x2="1190" y2="603"/>
<line opacity="0.1" stroke="#000000" stroke-width="1" x1="60" y1="595" x2="1190" y2="595"/>
<line opacity="0.1" stroke="#000000" stroke-width="1" x1="60" y1="587" x2="1190" y2="587"/>
<line opacity="0.1" stroke="#000000" stroke-width="1" x1="60" y1="579" x2="1190" y2="579"/>
<line opacity="0.1" stroke="#000000" stroke-width="1" x1="60" y1="571" x2="1190" y2="571"/>
<line opacity="0.1" stroke="#000000" stroke-width="1" x1="60" y1="563" x2="1190" y2="563"/>
<line opacity="0.1" stroke="#000000" stroke-width="1" x1="60" y1="555" x2="1190" y2="555"/>
<line opacity="0.1" stroke="#000000" stroke-width="1" x1="60" y1="547" x2="1190" y2="547"/>
<line opacity="0.1" stroke="#000000" stroke-width="1" x1="60" y1="539" x2="1190" y2="539"/>
<line opacity="0.1" stroke="#000000" stroke-width="1" x1="60" y1="531" x2="1190" y2="531"/>
<line opacity="0.1" stroke="#000000" stroke-width="1" x1="60" y1="523" x2="1190" y2="523"/>
<line opacity="0.1" stroke="#000000" stroke-width="1" x1="60" y1="514" x2="1190" y2="514"/>
<line opacity="0.1" stroke="#000000" stroke-width="1" x1="60" y1="506" x2="1190" y2="506"/>
<line opacity="0.1" stroke="#000000" stroke-width="1" x1="60" y1="498" x2="1190" y2="498"/>
<line opacity="0.1" stroke="#000000" stroke-width="1" x1="60" y1="490" x2="1190" y2="490"/>
<line opacity="0.1" stroke="#000000" stroke-width="1" x1="60" y1="482" x2="1190" y2="482"/>
<line opacity="0.1" stroke="#000000" stroke-width="1" x1="60" y1="474" x2="1190" y2="474"/>
<line opacity="0.1" stroke="#000000" stroke-width="1" x1="60" y1="466" x2="1190" y2="466"/>
<line opacity="0.1" stroke="#000000" stroke-width="1" x1="60" y1="458" x2="1190" y2="458"/>
<line opacity="0.1" stroke="#000000" stroke-width="1" x1="60" y1="450" x2="1190" y2="450"/>
<line opacity="0.1" stroke="#000000" stroke-width="1" x1="60" y1="442" x2="1190" y2="442"/>
<line opacity="0.1" stroke="#000000" stroke-width="1" x1="60" y1="434" x2="1190" y2="434"/>
<line opacity="0.1" stroke="#000000" stroke-width="1" x1="60" y1="426" x2="1190" y2="426"/>
<line opacity="0.1" stroke="#000000" stroke-width="1" x1="60" y1="418" x2="1190" y2="418"/>
<line opacity="0.1" stroke="#000000" stroke-width="1" x1="60" y1="410" x2="1190" y2="410"/>
<line opacity="0.1" stroke="#000000" stroke-width="1" x1="60" y1="402" x2="1190" y2="402"/>
<line opacity="0.1" stroke="#000000" stroke-width="1" x1="60" y1="394" x2="1190" y2="394"/>
<line opacity="0.1" stroke="#000000" stroke-width="1" x1="60" y1="386" x2="1190" y2="386"/>
<line opacity="0.1" stroke="#000000" stroke-width="1" x1="60" y1="378" x2="1190" y2="378"/>
<line opacity="0.1" stroke="#000000" stroke-width="1" x1="60" y1="370" x2="1190" y2="370"/>
<line opacity="0.1" stroke="#000000" stroke-width="1" x1="60" y1="362" x2="1190" y2="362"/>
<line opacity="0.1" stroke="#000000" stroke-width="1" x1="60" y1="354" x2="1190" y2="354"/>
<line opacity="0.1" stroke="#000000" stroke-width="1" x1="60" y1="346" x2="1190" y2="346"/>
<line opacity="0.1" stroke="#000000" stroke-width="1" x1="60" y1="338" x2="1190" y2="338"/>
<line opacity="0.1" stroke="#000000" stroke-width="1" x1="60" y1="330" x2="1190" y2="330"/>
<line opacity="0.1" stroke="#000000" stroke-width="1" x1="60" y1="322" x2="1190" y2="322"/>
<line opacity="0.1" stroke="#000000" stroke-width="1" x1="60" y1="314" x2="1190" y2="314"/>
<line opacity="0.1" stroke="#000000" stroke-width="1" x1="60" y1="306" x2="1190" y2="306"/>
<line opacity="0.1" stroke="#000000" stroke-width="1" x1="60" y1="298" x2="1190" y2="298"/>
<line opacity="0.1" stroke="#000000" stroke-width="1" x1="60" y1="290" x2="1190" y2="290"/>
<line opacity="0.1" stroke="#000000" stroke-width="1" x1="60" y1="282" x2="1190" y2="282"/>
<line opacity="0.1" stroke="#000000" stroke-width="1" x1="60" y1="274" x2="1190" y2="274"/>
<line opacity="0.1" stroke="#000000" stroke-width="1" x1="60" y1="266" x2="1190" y2="266"/>
<line opacity="0.1" stroke="#000000" stroke-width="1" x1="60" y1="258" x2="1190" y2="258"/>
<line opacity="0.1" stroke="#000000" stroke-width="1" x1="60" y1="249" x2="1190" y2="249"/>
<line opacity="0.1" stroke="#000000" stroke-width="1" x1="60" y1="241" x2="1190" y2="241"/>
<line opacity="0.1" stroke="#000000" stroke-width="1" x1="60" y1="233" x2="1190" y2="233"/>
<line opacity="0.1" stroke="#000000" stroke-width="1" x1="60" y1="225" x2="1190" y2="225"/>
<line opacity="0.1" stroke="#000000" stroke-width="1" x1="60" y1="217" x2="1190" y2="217"/>
<line opacity="0.1" stroke="#000000" stroke-width="1" x1="60" y1="209" x2="1190" y2="209"/>
<line opacity="0.1" stroke="#000000" stroke-width="1" x1="60" y1="201" x2="1190" y2="201"/>
<line opacity="0.1" stroke="#000000" stroke-width="1" x1="60" y1="193" x2="1190" y2="193"/>
<line opacity="0.1" stroke="#000000" stroke-width="1" x1="60" y1="185" x2="1190" y2="185"/>
<line opacity="0.1" stroke="#000000" stroke-width="1" x1="60" y1="177" x2="1190" y2="177"/>
<line opacity="0.1" stroke="#000000" stroke-width="1" x1="60" y1="169" x2="1190" y2="169"/>
<line opacity="0.1" stroke="#000000" stroke-width="1" x1="60" y1="161" x2="1190" y2="161"/>
<line opacity="0.1" stroke="#000000" stroke-width="1" x1="60" y1="153" x2="1190" y2="153"/>
<line opacity="0.1" stroke="#000000" stroke-width="1" x1="60" y1="145" x2="1190" y2="145"/>
<line opacity="0.1" stroke="#000000" stroke-width="1" x1="60" y1="137" x2="1190" y2="137"/>
<line opacity="0.1" stroke="#000000" stroke-width="1" x1="60" y1="129" x2="1190" y2="129"/>
<line opacity="0.1" stroke="#000000" stroke-width="1" x1="60" y1="121" x2="1190" y2="121"/>
<line opacity="0.1" stroke="#000000" stroke-width="1" x1="60" y1="113" x2="1190" y2="113"/>
<line opacity="0.1" stroke="#000000" stroke-width="1" x1="60" y1="105" x2="1190" y2="105"/>
<line opacity="0.1" stroke="#000000" stroke-width="1" x1="60" y1="97" x2="1190" y2="97"/>
<line opacity="0.1" stroke="#000000" stroke-width="1" x1="60" y1="89" x2="1190" y2="89"/>
<line opacity="0.1" stroke="#000000" stroke-width="1" x1="60" y1="81" x2="1190" y2="81"/>
<line opacity="0.1" stroke="#000000" stroke-width="1" x1="60" y1="73" x2="1190" y2="73"/>
<line opacity="0.1" stroke="#000000" stroke-width="1" x1="60" y1="65" x2="1190" y2="65"/>
<line opacity="0.1" stroke="#000000" stroke-width="1" x1="60" y1="57" x2="1190" y2="57"/>
<line opacity="0.1" stroke="#000000" stroke-width="1" x1="60" y1="49" x2="1190" y2="49"/>
<line opacity="0.1" stroke="#000000" stroke-width="1" x1="60" y1="41" x2="1190" y2="41"/>
<line opacity="0.1" stroke="#000000" stroke-width="1" x1="60" y1="33" x2="1190" y2="33"/>
<line opacity="0.1" stroke="#000000" stroke-width="1" x1="60" y1="25" x2="1190" y2="25"/>
<line opacity="0.1" stroke="#000000" stroke-width="1" x1="60" y1="17" x2="1190" y2="17"/>
<line opacity="0.1" stroke="#000000" stroke-width="1" x1="60" y1="9" x2="1190" y2="9"/>
<text x="10" y="375" dy="0.76em" text-anchor="middle" font-family="sans-serif" font-size="9.67741935483871" opacity="1" fill="#000000" transform="rotate(270, 10, 375)">
Fraction of dependent crates
</text>
<line opacity="0.2" stroke="#000000" stroke-width="1" x1="60" y1="659" x2="1190" y2="659"/>
<line opacity="0.2" stroke="#000000" stroke-width="1" x1="60" y1="579" x2="1190" y2="579"/>
<line opacity="0.2" stroke="#000000" stroke-width="1" x1="60" y1="498" x2="1190" y2="498"/>
<line opacity="0.2" stroke="#000000" stroke-width="1" x1="60" y1="418" x2="1190" y2="418"/>
<line opacity="0.2" stroke="#000000" stroke-width="1" x1="60" y1="338" x2="1190" y2="338"/>
<line opacity="0.2" stroke="#000000" stroke-width="1" x1="60" y1="258" x2="1190" y2="258"/>
<line opacity="0.2" stroke="#000000" stroke-width="1" x1="60" y1="177" x2="1190" y2="177"/>
<line opacity="0.2" stroke="#000000" stroke-width="1" x1="60" y1="97" x2="1190" y2="97"/>
<line opacity="0.2" stroke="#000000" stroke-width="1" x1="60" y1="17" x2="1190" y2="17"/>
<polyline fill="none" opacity="1" stroke="#000000" stroke-width="1" points="59,10 59,740 "/>
<text x="50" y="659" dy="0.5ex" text-anchor="end" font-family="sans-serif" font-size="9.67741935483871" opacity="1" fill="#000000">
0.01
</text>
<polyline fill="none" opacity="1" stroke="#000000" stroke-width="1" points="54,659 59,659 "/>
<text x="50" y="579" dy="0.5ex" text-anchor="end" font-family="sans-serif" font-size="9.67741935483871" opacity="1" fill="#000000">
0.02
</text>
<polyline fill="none" opacity="1" stroke="#000000" stroke-width="1" points="54,579 59,579 "/>
<text x="50" y="498" dy="0.5ex" text-anchor="end" font-family="sans-serif" font-size="9.67741935483871" opacity="1" fill="#000000">
0.03
</text>
<polyline fill="none" opacity="1" stroke="#000000" stroke-width="1" points="54,498 59,498 "/>
<text x="50" y="418" dy="0.5ex" text-anchor="end" font-family="sans-serif" font-size="9.67741935483871" opacity="1" fill="#000000">
0.04
</text>
<polyline fill="none" opacity="1" stroke="#000000" stroke-width="1" points="54,418 59,418 "/>
<text x="50" y="338" dy="0.5ex" text-anchor="end" font-family="sans-serif" font-size="9.67741935483871" opacity="1" fill="#000000">
0.05
</text>
<polyline fill="none" opacity="1" stroke="#000000" stroke-width="1" points="54,338 59,338 "/>
<text x="50" y="258" dy="0.5ex" text-anchor="end" font-family="sans-serif" font-size="9.67741935483871" opacity="1" fill="#000000">
0.06
</text>
<polyline fill="none" opacity="1" stroke="#000000" stroke-width="1" points="54,258 59,258 "/>
<text x="50" y="177" dy="0.5ex" text-anchor="end" font-family="sans-serif" font-size="9.67741935483871" opacity="1" fill="#000000">
0.07
</text>
<polyline fill="none" opacity="1" stroke="#000000" stroke-width="1" points="54,177 59,177 "/>
<text x="50" y="97" dy="0.5ex" text-anchor="end" font-family="sans-serif" font-size="9.67741935483871" opacity="1" fill="#000000">
0.08
</text>
<polyline fill="none" opacity="1" stroke="#000000" stroke-width="1" points="54,97 59,97 "/>
<text x="50" y="17" dy="0.5ex" text-anchor="end" font-family="sans-serif" font-size="9.67741935483871" opacity="1" fill="#000000">
0.09
</text>
<polyline fill="none" opacity="1" stroke="#000000" stroke-width="1" points="54,17 59,17 "/>
<polyline fill="none" opacity="1" stroke="#000000" stroke-width="1" points="60,740 1190,740 "/>
<text x="60" y="750" dy="0.76em" text-anchor="middle" font-family="sans-serif" font-size="9.67741935483871" opacity="1" fill="#000000">
2014-11-20Z
</text>
<polyline fill="none" opacity="1" stroke="#000000" stroke-width="1" points="60,740 60,745 "/>
<text x="175" y="750" dy="0.76em" text-anchor="middle" font-family="sans-serif" font-size="9.67741935483871" opacity="1" fill="#000000">
2015-06-04Z
</text>
<polyline fill="none" opacity="1" stroke="#000000" stroke-width="1" points="175,740 175,745 "/>
<text x="290" y="750" dy="0.76em" text-anchor="middle" font-family="sans-serif" font-size="9.67741935483871" opacity="1" fill="#000000">
2015-12-17Z
</text>
<polyline fill="none" opacity="1" stroke="#000000" stroke-width="1" points="290,740 290,745 "/>
<text x="405" y="750" dy="0.76em" text-anchor="middle" font-family="sans-serif" font-size="9.67741935483871" opacity="1" fill="#000000">
2016-06-30Z
</text>
<polyline fill="none" opacity="1" stroke="#000000" stroke-width="1" points="405,740 405,745 "/>
<text x="521" y="750" dy="0.76em" text-anchor="middle" font-family="sans-serif" font-size="9.67741935483871" opacity="1" fill="#000000">
2017-01-12Z
</text>
<polyline fill="none" opacity="1" stroke="#000000" stroke-width="1" points="521,740 521,745 "/>
<text x="636" y="750" dy="0.76em" text-anchor="middle" font-family="sans-serif" font-size="9.67741935483871" opacity="1" fill="#000000">
2017-07-27Z
</text>
<polyline fill="none" opacity="1" stroke="#000000" stroke-width="1" points="636,740 636,745 "/>
<text x="751" y="750" dy="0.76em" text-anchor="middle" font-family="sans-serif" font-size="9.67741935483871" opacity="1" fill="#000000">
2018-02-08Z
</text>
<polyline fill="none" opacity="1" stroke="#000000" stroke-width="1" points="751,740 751,745 "/>
<text x="867" y="750" dy="0.76em" text-anchor="middle" font-family="sans-serif" font-size="9.67741935483871" opacity="1" fill="#000000">
2018-08-23Z
</text>
<polyline fill="none" opacity="1" stroke="#000000" stroke-width="1" points="867,740 867,745 "/>
<text x="982" y="750" dy="0.76em" text-anchor="middle" font-family="sans-serif" font-size="9.67741935483871" opacity="1" fill="#000000">
2019-03-07Z
</text>
<polyline fill="none" opacity="1" stroke="#000000" stroke-width="1" points="982,740 982,745 "/>
<text x="1097" y="750" dy="0.76em" text-anchor="middle" font-family="sans-serif" font-size="9.67741935483871" opacity="1" fill="#000000">
2019-09-19Z
</text>
<polyline fill="none" opacity="1" stroke="#000000" stroke-width="1" points="1097,740 1097,745 "/>
<polyline fill="none" opacity="1" stroke="#E61919" stroke-width="2" points="179,736 185,729 185,726 227,726 257,724 290,724 300,722 301,718 310,716 313,719 315,717 317,713 318,713 321,715 322,714 322,712 324,710 334,713 335,713 350,712 351,713 356,711 364,710 368,709 368,705 383,705 384,706 390,705 410,705 414,707 467,712 468,711 468,709 470,707 471,706 498,710 501,709 505,708 508,707 509,704 513,704 533,706 538,705 542,705 550,704 550,703 557,703 558,703 561,704 562,704 570,704 571,705 572,705 574,705 575,705 576,705 578,704 578,704 581,705 582,705 582,705 583,705 585,705 588,705 589,705 591,706 592,706 594,705 594,705 595,705 595,705 597,705 599,706 600,706 600,706 601,707 601,707 602,707 604,707 605,707 605,707 606,707 607,707 608,707 608,707 609,707 610,708 611,708 612,708 612,708 614,707 614,707 618,707 618,707 619,708 620,708 621,708 622,708 623,708 624,708 624,708 625,708 627,708 627,707 628,707 628,707 629,707 630,708 631,708 631,708 632,708 633,708 635,707 636,707 638,707 639,706 640,705 643,706 644,706 646,706 647,706 647,706 648,706 649,706 650,706 652,706 652,706 654,706 655,705 657,705 659,705 660,705 661,705 662,705 662,705 664,706 665,706 667,706 668,706 668,706 669,705 670,706 670,706 671,706 672,706 672,706 675,706 676,706 678,706 680,706 680,706 681,707 682,707 683,707 685,707 687,706 693,706 698,706 702,706 709,707 713,707 714,706 715,706 716,707 721,707 732,708 737,707 740,708 741,708 749,709 758,710 759,709 767,710 771,710 774,710 786,710 791,710 796,710 818,711 834,712 840,712 841,711 854,712 857,712 872,713 876,714 878,714 880,714 883,714 890,715 896,715 902,715 902,715 907,715 919,715 921,715 935,715 939,715 944,715 951,716 952,716 957,716 961,717 962,717 962,716 963,716 964,716 968,716 970,716 973,716 974,716 978,716 978,716 980,716 981,716 981,716 982,716 985,716 985,716 986,716 987,716 988,716 989,716 990,717 991,717 992,717 994,717 994,717 995,717 996,717 997,717 998,717 999,717 1000,717 1001,717 1003,717 1007,717 1007,717 1008,717 1010,718 1011,718 1013,718 1015,717 1016,717 1017,718 1018,717 1019,717 1020,717 1021,717 1022,718 1022,718 1024,718 1025,718 1027,718 1029,718 1030,718 1030,718 1031,718 1032,718 1033,717 1034,717 1035,717 1037,718 1038,718 1038,718 1039,718 1040,718 1042,718 1042,718 1045,718 1046,718 1047,718 1048,718 1049,718 1050,718 1050,718 1051,718 1053,718 1054,718 1055,718 1057,718 1057,718 1058,718 1059,718 1060,719 1061,719 1062,719 1063,719 1065,719 1066,719 1067,719 1067,719 1068,719 1070,719 1071,719 1071,719 1072,719 1073,719 1074,719 1075,719 1076,719 1077,719 1080,719 1081,719 1081,719 1082,719 1083,720 1084,720 1084,720 1085,720 1088,720 1090,720 1091,720 1092,720 1093,720 1097,720 1098,720 1099,720 1104,721 1105,721 1107,721 1108,721 1108,721 1110,721 1110,721 1111,721 1111,721 1112,721 1113,721 1114,721 1115,721 1127,721 1133,721 1142,722 1142,722 1146,721 1151,721 1154,721 1155,721 1157,721 1158,721 1159,721 1160,721 1161,721 1162,722 1163,722 1165,722 1167,722 1167,722 1168,722 1168,722 1170,722 1171,722 1171,722 1172,722 1172,722 1172,722 1173,722 1173,722 1174,722 1174,722 1174,722 1175,722 1175,722 1177,722 1178,722 1178,722 1178,722 1180,722 1180,722 1181,722 1181,722 1182,722 1182,722 1182,722 1183,722 1184,722 1185,722 1185,722 1186,722 1187,722 1187,722 1188,722 1188,722 1188,723 1189,723 "/>
<polyline fill="none" opacity="1" stroke="#BDE619" stroke-width="2" points="137,735 165,732 188,729 191,726 204,724 212,719 213,722 216,719 222,717 224,714 227,712 234,710 239,708 244,706 248,703 254,702 257,700 257,697 258,695 259,693 260,690 261,688 264,686 265,679 267,677 271,673 272,671 274,666 281,666 284,665 286,663 287,660 287,658 290,657 291,653 297,653 297,650 298,649 300,647 302,645 303,643 304,642 305,640 305,638 310,637 312,636 312,632 314,630 314,629 318,626 318,624 322,624 325,621 328,621 329,617 330,616 331,612 331,611 332,609 333,610 335,608 335,607 337,606 337,604 339,603 340,603 342,602 342,601 344,601 345,600 345,598 347,595 350,595 354,596 355,595 357,597 358,596 360,595 361,593 362,592 362,594 363,592 364,591 364,590 366,589 367,586 368,585 371,585 375,584 377,581 378,580 381,580 383,581 384,580 388,582 390,581 391,580 392,579 394,580 394,578 395,579 397,576 400,576 401,575 401,574 402,571 403,570 404,569 405,568 406,569 407,566 410,564 410,562 411,562 412,560 413,558 414,556 418,553 418,552 419,550 420,549 421,547 422,546 424,545 424,543 425,542 427,542 428,540 429,538 430,537 430,536 431,535 433,535 434,534 435,533 436,532 437,531 438,531 439,531 441,528 442,527 442,525 443,524 444,523 445,522 445,521 446,522 447,521 448,391 449,389 450,390 451,388 451,386 452,385 454,386 454,385 455,382 456,381 457,381 457,379 458,378 458,376 459,374 460,371 461,372 461,371 462,370 462,370 464,370 465,370 465,369 466,367 467,365 467,364 468,363 468,361 469,357 470,356 470,356 471,353 472,352 473,333 474,332 477,333 478,334 481,335 481,335 482,334 482,334 484,334 485,331 486,331 487,329 487,330 488,329 490,330 490,328 491,327 491,327 492,326 493,326 494,325 496,324 497,324 498,323 498,321 499,318 501,319 502,319 504,320 505,314 507,315 507,315 508,315 509,316 510,316 510,316 511,314 512,315 512,315 514,316 514,315 515,314 515,314 516,314 517,314 518,313 519,315 520,313 521,313 521,311 522,312 523,311 524,311 524,307 525,307 527,307 527,306 528,305 529,304 530,301 530,299 531,299 531,296 532,295 532,294 534,293 534,292 535,291 535,291 536,290 537,289 537,289 538,288 538,285 539,285 540,283 540,281 541,281 541,281 542,279 542,278 543,277 544,277 545,277 545,277 547,278 547,277 548,276 548,275 549,276 550,275 550,275 551,273 551,272 552,273 552,269 553,269 554,270 554,270 555,270 556,269 557,269 558,269 558,268 559,268 560,268 560,266 561,262 561,260 562,259 562,257 563,258 564,259 564,258 565,258 565,257 566,257 567,256 567,254 568,252 568,253 569,249 570,249 570,249 571,247 571,247 572,246 572,245 574,245 574,244 575,242 575,242 576,241 577,240 577,240 578,238 578,238 579,238 580,238 580,237 581,234 582,235 582,235 583,235 584,236 585,235 585,235 586,236 587,235 587,232 588,232 588,233 589,230 590,227 590,227 591,227 591,227 592,228 592,229 593,227 594,228 594,227 595,228 595,227 596,229 597,228 597,227 598,227 598,227 599,227 600,223 600,223 601,223 601,222 602,223 602,221 603,221 604,220 604,220 605,220 605,219 606,218 607,220 607,220 608,220 608,218 609,216 610,215 610,213 611,212 611,211 612,210 612,209 613,209 614,210 614,208 615,209 615,210 616,210 617,209 617,210 618,211 618,212 619,212 620,212 620,211 621,211 621,210 622,210 622,210 623,209 624,211 624,209 625,208 625,208 626,207 627,208 627,208 628,208 628,208 629,207 630,205 630,202 631,202 631,202 632,202 632,200 633,200 634,199 634,199 635,200 635,200 636,199 637,200 637,198 638,198 638,198 639,198 640,197 640,197 641,198 641,198 642,198 642,197 643,197 644,196 644,195 645,194 645,195 646,194 647,194 647,194 648,194 648,193 649,193 650,194 650,194 651,194 651,193 652,194 652,193 653,192 654,191 654,190 655,190 655,190 656,191 657,191 657,192 658,192 658,193 659,193 660,190 660,189 661,190 661,191 662,190 662,190 663,190 664,189 664,189 665,189 665,187 666,187 667,187 667,185 668,186 668,186 669,187 670,188 670,187 671,187 671,186 672,186 672,176 673,174 674,172 674,173 675,174 675,173 676,173 677,174 677,172 678,171 678,170 679,169 680,169 680,168 681,168 681,168 682,167 682,166 683,166 684,166 684,167 685,168 685,166 686,167 687,167 687,166 688,165 688,164 689,165 690,164 690,163 691,163 691,162 692,160 692,160 693,159 694,157 694,157 695,158 695,158 696,158 697,160 697,160 698,160 698,160 699,159 700,158 700,159 701,159 701,158 702,159 702,159 703,158 704,158 704,158 705,158 705,158 706,159 707,156 707,157 708,157 708,157 709,158 710,158 710,156 711,156 711,156 712,157 712,157 713,157 714,157 714,156 715,156 715,156 716,155 717,156 717,152 718,151 718,151 719,151 720,151 720,149 721,148 721,149 722,147 722,148 723,149 724,149 724,146 725,146 725,146 726,147 727,146 727,147 728,147 728,147 729,147 730,147 730,147 731,146 731,147 732,147 732,146 733,147 734,148 734,148 735,148 735,149 736,148 737,149 737,148 738,148 738,146 739,147 740,147 740,147 741,146 741,146 742,146 742,145 743,145 744,144 744,143 745,143 745,144 746,145 747,145 747,135 748,135 748,134 749,133 750,133 750,132 751,131 751,132 752,131 752,130 753,129 754,129 754,127 755,126 755,124 756,123 757,123 757,123 758,122 758,122 759,123 760,124 760,123 761,124 761,123 762,123 762,123 763,121 764,120 764,120 765,119 765,119 766,119 767,120 767,119 768,118 768,117 769,118 770,117 770,115 771,114 771,117 772,116 772,116 773,117 774,117 774,117 775,118 775,116 776,116 777,117 777,118 778,117 778,117 779,117 780,117 780,116 781,115 781,115 782,115 782,113 783,112 784,113 784,114 785,114 785,114 786,114 787,113 787,114 788,114 788,114 789,113 790,113 790,114 791,115 791,115 792,114 792,113 793,114 794,114 794,114 795,113 795,113 796,114 797,114 797,114 798,115 798,116 799,116 800,117 800,117 801,118 801,117 802,117 802,117 803,117 804,117 804,116 805,115 805,114 806,115 807,115 807,115 808,115 808,115 809,115 810,114 810,114 811,114 811,113 812,113 812,113 813,113 814,113 814,113 815,113 815,112 816,112 817,111 817,112 818,111 818,111 819,111 820,110 820,110 821,110 821,109 822,110 822,110 823,110 824,109 824,109 825,108 825,108 826,107 827,107 827,107 828,104 828,104 829,105 830,105 830,105 831,105 831,104 832,103 832,103 833,103 834,103 834,103 835,104 835,102 836,100 837,99 837,100 838,100 838,100 839,100 840,99 840,98 841,98 841,97 842,97 842,97 843,97 844,98 844,97 845,98 845,98 846,98 847,96 847,96 848,96 848,96 849,96 850,96 850,96 851,96 851,96 852,96 852,97 853,98 854,98 854,99 855,100 855,99 856,99 857,100 857,103 858,103 858,102 859,103 860,102 860,102 861,103 861,103 862,102 862,103 863,104 864,104 864,105 865,106 865,106 866,106 867,105 867,105 868,109 868,110 869,110 870,110 870,110 871,113 871,113 872,114 872,114 873,115 874,114 874,113 875,113 875,112 876,113 877,112 877,111 878,110 878,110 879,110 880,111 880,112 881,112 881,112 882,110 882,109 883,109 884,110 884,109 885,108 885,109 886,109 887,108 887,108 887,107 888,107 888,107 889,107 890,106 890,105 891,106 891,107 892,106 892,106 893,106 894,106 894,105 895,106 895,107 896,107 897,108 897,96 898,102 898,96 899,96 900,95 900,96 901,96 901,97 902,95 902,94 903,95 904,95 904,95 905,96 905,95 906,95 907,94 907,94 908,94 908,94 909,95 910,95 910,95 911,95 911,95 912,95 912,93 913,94 914,94 914,93 915,93 915,93 916,93 917,93 917,92 918,92 918,91 919,91 920,92 920,92 921,92 921,92 922,91 922,92 923,92 924,92 924,91 925,92 925,92 926,93 927,92 927,92 928,92 928,91 929,91 930,91 930,91 931,91 931,93 932,92 932,93 933,93 934,93 934,93 935,93 935,93 936,93 937,93 937,94 938,94 938,93 939,93 940,93 940,93 941,93 941,93 942,94 942,94 943,92 944,91 944,90 945,89 945,89 946,89 947,89 947,87 948,111 948,111 949,111 950,86 950,86 951,86 951,86 952,87 952,87 953,86 954,87 954,86 955,86 955,87 956,88 957,86 957,85 958,85 958,86 959,85 960,85 960,85 961,86 961,86 962,86 962,86 963,86 964,87 964,87 965,87 965,87 966,87 967,88 967,88 968,87 968,86 969,86 970,87 970,87 971,87 971,87 972,87 972,87 973,89 974,89 974,89 975,89 975,90 976,90 977,89 977,90 978,90 978,89 979,88 980,89 980,89 981,88 981,87 982,88 982,88 983,87 984,87 984,88 985,88 985,88 986,89 987,88 987,89 988,89 988,90 989,90 990,89 990,89 991,89 991,88 992,89 992,89 993,88 994,87 994,87 995,87 995,87 996,87 997,87 997,87 998,87 998,88 999,88 1000,86 1000,87 1001,86 1001,87 1002,87 1002,88 1003,88 1004,88 1004,88 1005,88 1005,88 1006,88 1007,88 1007,88 1008,88 1008,88 1009,87 1010,87 1010,87 1011,86 1011,85 1012,85 1012,85 1013,85 1014,84 1014,85 1015,83 1015,83 1016,85 1017,86 1017,86 1018,87 1018,87 1019,88 1020,88 1020,88 1021,89 1021,90 1022,90 1022,91 1023,91 1024,89 1024,88 1025,89 1025,89 1026,88 1027,89 1027,88 1028,88 1028,88 1029,88 1030,88 1030,87 1031,88 1031,87 1032,87 1032,87 1033,86 1034,86 1034,86 1035,86 1035,86 1036,86 1037,86 1037,86 1038,86 1038,85 1039,85 1040,85 1040,85 1041,85 1041,85 1042,85 1042,85 1043,85 1044,85 1044,86 1045,86 1045,86 1046,84 1047,84 1047,83 1048,83 1048,83 1049,83 1050,83 1050,85 1051,85 1051,85 1052,86 1052,79 1053,79 1054,80 1054,79 1055,79 1055,78 1056,78 1057,78 1057,78 1058,77 1058,77 1059,77 1060,76 1060,77 1061,76 1061,75 1062,76 1062,76 1063,75 1064,76 1064,77 1065,77 1065,77 1066,77 1067,76 1067,78 1068,78 1068,79 1069,79 1070,78 1070,78 1071,79 1071,79 1072,79 1072,79 1073,79 1074,79 1074,79 1075,79 1075,78 1076,77 1077,77 1077,77 1078,77 1078,77 1079,78 1080,78 1080,78 1081,78 1081,78 1082,78 1082,78 1083,78 1084,78 1084,78 1085,79 1085,79 1086,79 1087,80 1087,80 1088,81 1088,81 1089,81 1090,81 1090,81 1091,80 1091,80 1092,81 1092,80 1093,81 1094,81 1094,81 1095,80 1095,80 1096,80 1097,80 1097,80 1098,80 1098,81 1099,82 1100,82 1100,82 1101,83 1101,83 1102,83 1102,83 1103,84 1104,83 1104,84 1105,83 1105,83 1106,83 1107,83 1107,84 1108,84 1108,85 1109,84 1110,83 1110,83 1111,83 1111,84 1112,84 1112,85 1113,85 1114,85 1114,85 1114,85 1115,86 1115,86 1116,86 1117,86 1117,86 1118,87 1118,87 1119,87 1120,87 1120,87 1121,88 1121,87 1122,87 1122,87 1123,87 1124,88 1124,87 1125,88 1125,87 1126,88 1127,87 1127,87 1128,87 1128,86 1129,86 1130,87 1130,87 1131,87 1131,86 1132,86 1132,86 1133,86 1134,86 1134,86 1135,86 1135,86 1136,87 1137,87 1137,87 1138,86 1138,86 1139,86 1140,86 1140,86 1141,86 1141,86 1142,86 1142,87 1143,87 1144,88 1144,87 1145,87 1145,88 1146,88 1147,88 1147,88 1148,88 1148,89 1149,89 1150,90 1150,90 1151,90 1151,91 1152,92 1152,91 1153,91 1154,89 1154,89 1155,90 1155,89 1156,90 1157,90 1157,89 1158,90 1158,92 1159,91 1160,91 1160,92 1161,91 1161,91 1162,92 1162,92 1163,91 1164,92 1164,92 1165,91 1165,90 1166,91 1167,91 1167,91 1167,91 1167,92 1168,92 1168,92 1168,92 1168,93 1169,93 1170,93 1170,92 1170,92 1171,92 1171,93 1171,93 1171,93 1172,93 1172,93 1172,93 1173,93 1173,93 1174,93 1174,92 1174,92 1174,92 1175,92 1175,92 1175,92 1175,91 1176,91 1177,91 1177,92 1177,92 1178,92 1178,92 1178,93 1179,93 1180,93 1180,93 1180,93 1180,93 1181,93 1181,92 1181,92 1181,92 1182,92 1182,93 1182,93 1182,93 1183,93 1184,93 1184,93 1184,93 1184,92 1185,92 1185,92 1185,92 1185,92 1186,92 1186,92 1187,93 1187,93 1187,93 1188,93 1188,92 1188,92 1188,93 1189,93 1190,93 "/>
<polyline fill="none" opacity="1" stroke="#19E66B" stroke-width="2" points="60,649 60,661 61,672 70,688 77,658 77,645 84,641 87,626 92,614 97,614 98,608 100,646 100,640 104,642 108,633 115,633 116,628 124,629 127,626 128,632 132,634 145,635 149,628 151,626 155,625 163,627 164,632 166,629 167,626 169,621 170,611 170,611 171,609 175,608 177,610 181,609 182,610 182,611 183,607 184,605 185,605 185,606 187,600 187,600 188,601 190,595 190,593 191,593 192,591 193,591 194,592 194,592 195,593 195,593 196,594 197,594 198,592 199,592 200,593 201,594 202,594 202,594 203,598 204,596 205,596 205,593 206,591 207,588 207,589 208,589 208,590 210,591 211,591 211,592 212,589 212,590 213,590 215,589 215,589 216,587 217,587 218,588 218,588 220,586 220,587 221,587 222,588 224,589 224,589 225,590 226,591 227,586 227,583 228,583 228,583 229,584 230,584 230,584 231,584 231,585 232,585 232,583 233,583 234,584 236,585 237,574 237,574 238,575 238,572 240,570 240,571 241,571 241,571 242,572 242,569 243,570 244,570 244,570 245,571 245,571 246,571 247,571 247,572 248,572 249,572 250,573 250,571 251,571 251,571 252,572 252,572 253,573 254,573 255,574 255,572 256,572 257,573 257,571 258,571 259,572 260,572 260,572 261,573 261,573 262,573 262,574 264,574 264,574 265,575 266,570 269,571 270,572 270,572 271,570 271,571 272,571 272,572 273,572 274,572 274,572 275,570 275,566 277,567 277,558 278,558 278,559 279,554 280,555 281,556 282,557 282,557 283,557 284,557 284,558 285,558 285,558 286,557 287,554 287,552 288,553 289,551 290,552 290,552 291,553 291,551 292,551 292,552 293,552 294,552 294,553 295,553 295,554 296,552 297,553 297,553 298,553 298,554 299,554 300,554 300,554 301,553 301,553 302,553 302,553 303,554 304,552 304,552 305,553 305,553 306,554 307,554 308,554 308,555 309,555 310,556 310,556 311,556 311,557 312,553 312,554 313,554 314,554 314,551 315,549 315,549 316,550 317,550 317,549 318,547 318,550 319,550 320,550 320,549 321,548 321,546 322,544 322,545 323,541 324,541 324,542 325,542 325,543 326,543 327,543 327,544 328,542 328,543 329,543 330,542 330,542 331,542 331,541 332,542 332,542 333,543 334,543 334,544 335,544 335,541 336,541 337,541 337,542 338,540 338,541 339,541 340,541 340,540 341,540 341,539 342,539 342,540 343,540 344,540 344,538 345,537 345,538 346,538 347,539 347,539 348,540 348,538 349,539 350,537 350,538 351,539 351,539 352,540 352,540 353,540 354,541 354,541 355,541 355,542 356,542 357,542 357,543 358,543 358,543 359,542 360,542 360,543 361,543 361,540 362,540 362,539 363,539 364,539 364,540 365,540 365,539 366,539 367,538 367,537 368,537 368,536 369,537 370,537 370,538 371,538 371,538 372,539 372,539 373,539 374,538 374,538 375,539 375,539 376,538 377,536 377,537 378,537 378,538 379,536 380,536 380,537 381,537 381,536 382,536 382,537 383,537 384,538 384,538 385,535 385,535 386,536 387,536 387,537 388,537 388,536 389,536 390,536 390,537 391,536 391,536 392,536 392,537 393,537 394,537 394,538 395,536 395,537 396,537 397,537 397,538 398,538 398,538 399,539 400,539 400,540 401,539 401,539 402,539 402,539 403,540 404,540 404,540 405,542 405,541 406,540 407,542 407,543 408,543 408,543 409,542 410,542 410,542 411,542 411,541 412,541 412,542 413,542 414,542 414,543 415,543 415,542 416,542 417,541 417,541 418,542 418,542 419,541 420,541 420,542 421,542 421,542 422,543 422,543 423,543 424,544 424,544 425,543 425,544 426,543 427,540 427,540 428,540 428,541 429,541 430,541 430,542 431,542 431,542 432,542 432,542 433,543 434,543 434,544 435,543 435,543 436,542 437,543 437,543 438,543 438,542 439,542 440,541 440,541 441,542 441,542 442,542 442,541 443,540 444,540 444,541 445,541 445,541 446,542 447,542 447,542 448,543 448,547 449,547 450,548 450,547 451,547 451,548 452,548 452,548 453,547 454,548 454,548 455,547 455,547 456,548 457,548 457,548 458,549 458,549 459,549 460,549 460,549 461,550 461,550 462,551 462,548 463,549 464,550 464,550 465,550 465,551 466,552 467,552 467,552 468,552 468,552 469,554 470,554 470,554 471,555 471,554 472,553 472,553 473,554 474,554 474,553 475,554 475,554 476,554 477,554 477,554 478,552 478,553 479,553 480,552 480,552 481,552 481,553 482,553 482,553 483,554 484,554 484,554 485,554 485,555 486,555 487,554 487,554 488,554 488,555 489,555 490,554 490,556 491,556 491,556 492,556 492,555 493,556 494,556 494,556 495,555 495,556 496,555 497,554 497,554 498,554 498,555 499,555 500,554 500,554 501,554 501,555 502,555 502,555 503,555 504,554 504,553 505,554 505,554 506,555 507,555 507,555 508,556 508,555 509,556 510,556 510,556 511,556 511,557 512,557 512,556 513,556 514,556 514,556 515,557 515,557 516,555 517,555 517,554 518,554 518,553 519,552 520,552 520,552 521,552 521,552 522,553 522,553 523,553 524,553 524,553 525,553 525,553 526,553 527,554 527,555 528,555 528,555 529,556 530,556 530,557 531,557 531,557 532,557 532,557 533,557 534,558 534,558 535,558 535,559 536,559 537,559 537,559 538,560 538,560 539,559 540,559 540,559 541,559 541,560 542,560 542,560 543,560 544,561 544,560 545,560 545,561 546,561 547,561 547,562 548,562 548,561 549,562 550,562 550,562 551,563 551,564 552,565 552,565 553,566 554,567 554,567 555,565 555,567 556,567 557,567 557,567 558,567 558,568 559,568 560,568 560,568 561,568 561,569 562,570 562,570 563,570 564,570 564,571 565,571 565,572 566,572 567,572 567,573 568,573 568,573 569,573 570,573 570,572 571,572 571,572 572,572 572,572 573,573 574,573 574,573 575,573 575,574 576,574 577,574 577,574 578,574 578,574 579,574 580,574 580,574 581,574 581,574 582,575 582,575 583,575 584,575 584,576 585,576 585,576 586,576 587,577 587,577 588,577 588,578 589,576 590,577 590,578 591,578 591,578 592,577 592,577 593,576 594,576 594,576 595,576 595,576 596,577 597,578 597,578 598,578 598,578 599,579 600,580 600,578 601,579 601,579 602,579 602,579 603,580 604,581 604,581 605,581 605,581 606,581 607,582 607,582 608,582 608,582 609,582 610,582 610,582 611,583 611,582 612,582 612,583 613,583 614,583 614,583 615,583 615,584 616,584 617,584 617,584 618,584 618,584 619,584 620,584 620,585 621,585 621,584 622,584 622,585 623,585 624,585 624,585 625,585 625,586 626,586 627,586 628,586 628,587 629,587 630,587 630,587 631,588 631,588 632,588 632,588 633,589 634,589 634,589 635,589 635,590 636,589 637,589 637,589 638,590 638,590 639,590 640,589 640,590 641,590 641,590 642,590 642,591 643,591 644,591 644,591 645,591 645,591 646,592 647,592 647,591 648,592 648,592 649,592 650,592 650,593 651,593 651,593 652,592 652,593 653,593 654,593 654,593 655,593 655,594 656,594 657,594 657,594 658,594 658,594 659,594 660,594 660,594 661,594 661,594 662,594 662,594 663,594 664,593 664,594 665,595 665,594 666,594 667,594 667,595 668,595 668,595 669,595 670,595 670,596 671,596 671,596 672,596 672,597 673,597 674,597 674,597 675,598 675,598 676,598 677,598 677,598 678,598 678,598 679,598 680,598 680,599 681,599 681,599 682,600 682,600 683,600 684,601 684,601 685,601 685,601 686,600 687,600 687,600 688,601 688,601 689,601 690,601 690,601 691,602 691,602 692,602 692,602 693,602 694,603 694,603 695,603 695,603 696,603 697,604 697,604 698,604 698,604 699,605 700,605 700,605 701,605 701,605 702,605 702,605 703,605 704,605 704,605 705,606 705,606 706,605 707,605 707,605 708,606 708,606 709,606 710,606 710,607 711,607 711,608 712,607 712,607 713,607 714,606 714,606 715,607 715,607 716,607 717,608 717,608 718,608 718,608 719,608 720,608 720,608 721,608 721,608 722,609 722,609 723,608 724,608 724,609 725,609 725,609 726,609 727,609 727,609 728,609 728,609 729,609 730,609 730,609 731,609 731,609 732,609 732,609 733,609 734,609 734,610 735,609 735,609 736,609 737,609 737,609 738,610 738,610 739,610 740,610 740,610 741,611 741,611 742,611 742,611 743,611 744,611 744,611 745,611 745,611 746,611 747,612 747,613 748,613 748,613 749,613 750,613 750,614 751,614 751,614 752,614 752,614 753,615 754,615 754,615 755,615 755,615 756,615 757,615 757,615 758,615 758,616 759,615 760,615 760,616 761,616 761,616 762,616 762,617 763,617 764,617 764,617 765,617 765,617 766,617 767,617 767,617 768,617 768,617 769,618 770,618 770,618 771,618 771,618 772,618 772,618 773,618 774,618 774,619 775,619 775,619 776,619 777,619 777,619 778,619 778,620 779,620 780,620 780,620 781,621 781,621 782,621 782,621 783,622 784,621 784,621 785,622 786,622 787,622 787,622 788,622 788,622 789,622 790,622 790,622 791,622 791,622 792,623 792,623 793,623 794,623 794,623 795,624 795,624 796,624 797,624 797,624 798,624 798,624 799,625 800,625 800,625 801,625 801,625 802,626 802,626 803,626 804,625 804,625 805,625 805,625 806,625 807,626 807,626 808,626 808,627 809,627 810,626 810,626 811,626 811,627 812,627 812,627 813,627 814,627 814,627 815,627 815,627 816,627 817,627 817,627 818,627 818,628 819,628 820,628 820,628 821,628 821,628 822,628 822,628 823,628 824,628 824,628 825,628 825,628 826,629 827,629 827,629 828,629 828,629 829,629 830,629 830,629 831,629 831,629 832,629 832,629 833,629 834,630 834,629 835,629 835,629 836,629 837,630 837,630 838,630 838,629 839,629 840,629 840,629 841,629 841,629 842,629 842,629 843,629 844,630 844,630 845,629 845,630 846,630 847,630 847,630 848,630 848,630 849,630 850,630 850,630 851,630 851,631 852,631 852,631 853,631 854,631 854,631 855,631 855,631 856,631 857,631 857,632 858,632 858,632 859,632 860,633 860,632 861,632 861,633 862,633 862,632 863,633 864,633 864,633 865,633 865,633 866,633 867,633 867,633 868,634 868,634 869,634 870,634 870,634 871,635 871,635 872,635 872,635 873,636 874,636 874,635 875,635 875,636 876,636 877,636 877,636 878,636 878,637 879,637 880,637 880,637 881,637 881,637 882,637 882,637 883,637 884,637 884,637 885,637 885,637 886,637 887,637 887,637 887,637 888,637 888,638 889,638 890,638 890,638 891,638 891,638 892,638 892,638 893,638 894,638 894,638 895,638 895,638 896,638 897,638 897,639 898,639 898,639 899,639 900,639 900,639 901,639 901,639 902,639 902,639 903,639 904,639 904,639 905,639 905,639 906,639 907,639 907,639 908,639 908,640 909,640 910,640 910,640 911,640 911,640 912,640 912,640 913,640 914,640 914,640 915,640 915,640 916,641 917,641 917,641 918,641 918,641 919,640 920,640 920,640 921,640 921,640 922,641 922,641 923,641 924,641 924,641 925,641 925,641 926,641 927,641 927,642 928,642 928,642 929,642 930,641 930,641 931,641 931,641 932,641 932,642 933,642 934,642 934,641 935,642 935,642 936,642 937,642 937,642 938,642 938,642 939,642 940,642 940,642 941,642 941,642 942,642 942,643 943,643 944,643 944,643 945,643 945,644 946,644 947,644 947,644 948,648 948,648 949,648 950,644 950,644 951,644 951,645 952,644 952,645 953,645 954,645 954,645 955,645 955,645 956,645 957,645 957,645 958,645 958,645 959,645 960,646 960,646 961,646 961,646 962,646 962,646 963,646 964,647 964,647 965,647 965,647 966,647 967,647 967,647 968,647 968,648 969,647 970,647 970,648 971,648 971,648 972,648 972,648 973,648 974,648 974,648 975,648 975,648 976,649 977,649 977,649 978,649 978,649 979,649 980,649 980,649 981,649 981,649 982,649 982,650 983,650 984,650 984,650 985,650 985,650 986,650 987,650 987,650 988,650 988,650 989,651 990,651 990,651 991,651 991,651 992,651 992,651 993,651 994,651 994,652 995,651 995,652 996,652 997,652 997,652 998,652 998,652 999,653 1000,652 1000,652 1001,652 1001,653 1002,653 1002,653 1003,653 1004,653 1004,653 1005,653 1005,653 1006,653 1007,653 1007,653 1008,653 1008,654 1009,654 1010,654 1010,654 1011,654 1011,654 1012,654 1012,654 1013,654 1014,654 1014,654 1015,655 1015,655 1016,655 1017,655 1017,655 1018,655 1018,656 1019,656 1020,656 1020,656 1021,656 1021,656 1022,656 1022,656 1023,656 1024,656 1024,656 1025,657 1025,657 1026,657 1027,657 1027,657 1028,657 1028,657 1029,657 1030,657 1030,657 1031,657 1031,657 1032,657 1032,658 1033,658 1034,658 1034,658 1035,658 1035,658 1036,658 1037,659 1037,658 1038,658 1038,658 1039,659 1040,659 1040,659 1041,659 1041,659 1042,659 1042,659 1043,660 1044,660 1044,660 1045,660 1045,660 1046,660 1047,660 1047,660 1048,660 1048,660 1049,660 1050,660 1050,660 1051,660 1051,661 1052,661 1052,661 1053,661 1054,661 1054,661 1055,661 1055,661 1056,661 1057,661 1057,661 1058,662 1058,662 1059,662 1060,662 1060,662 1061,662 1061,662 1062,662 1062,663 1063,663 1064,663 1064,663 1065,663 1065,663 1066,663 1067,664 1067,664 1068,664 1068,664 1069,664 1070,664 1070,664 1071,664 1071,664 1072,664 1072,664 1073,664 1074,664 1074,664 1075,665 1075,665 1076,665 1077,665 1077,665 1078,665 1078,665 1079,665 1080,665 1080,665 1081,665 1081,665 1082,665 1082,665 1083,665 1084,665 1084,665 1085,665 1085,666 1086,666 1087,666 1087,666 1088,666 1088,666 1089,666 1090,666 1090,666 1091,666 1091,666 1092,667 1092,667 1093,667 1094,667 1094,667 1095,667 1095,667 1096,667 1097,667 1097,667 1098,667 1098,668 1099,668 1100,668 1100,668 1101,668 1101,668 1102,668 1102,668 1103,668 1104,668 1104,668 1105,668 1105,669 1106,669 1107,669 1107,669 1108,669 1108,669 1109,669 1110,669 1110,669 1111,669 1111,669 1112,669 1112,669 1113,669 1114,669 1114,669 1114,669 1115,669 1115,669 1116,669 1117,669 1117,669 1118,670 1118,670 1119,670 1120,670 1120,670 1121,670 1121,670 1122,670 1122,670 1123,670 1124,670 1124,671 1125,671 1125,671 1126,671 1127,671 1127,671 1128,671 1128,671 1129,671 1130,671 1130,671 1131,671 1131,672 1132,672 1132,672 1133,672 1134,673 1134,673 1135,673 1135,673 1136,673 1137,673 1137,673 1138,673 1138,673 1139,673 1140,673 1140,673 1141,673 1141,673 1142,674 1142,674 1143,674 1144,674 1144,674 1145,674 1145,674 1146,674 1147,674 1147,674 1148,674 1148,674 1149,674 1150,674 1150,674 1151,674 1151,675 1152,675 1152,675 1153,675 1154,675 1154,675 1155,675 1155,675 1156,675 1157,675 1157,675 1158,675 1158,676 1159,676 1160,676 1160,676 1161,676 1161,676 1162,676 1162,676 1163,677 1164,677 1164,676 1165,676 1165,676 1166,676 1167,676 1167,676 1167,676 1167,676 1168,676 1168,676 1168,676 1168,677 1169,677 1170,677 1170,677 1170,677 1171,677 1171,677 1171,677 1171,677 1172,677 1172,677 1172,677 1173,677 1173,677 1174,677 1174,677 1174,677 1174,677 1175,677 1175,677 1175,677 1175,677 1176,678 1177,678 1177,678 1177,678 1178,678 1178,678 1178,678 1179,678 1180,678 1180,678 1180,678 1180,678 1181,678 1181,678 1181,678 1181,678 1182,678 1182,678 1182,678 1182,678 1183,678 1184,678 1184,678 1184,678 1184,679 1185,679 1185,679 1185,679 1185,679 1186,679 1186,679 1187,679 1187,679 1187,679 1188,679 1188,679 1188,679 1188,679 1189,679 1190,679 "/>
<polyline fill="none" opacity="1" stroke="#196BE6" stroke-width="2" points="89,728 97,720 101,721 103,721 104,721 107,721 108,722 111,716 111,716 112,711 113,711 114,711 117,712 118,707 123,702 124,702 130,704 130,699 131,701 132,696 135,697 135,697 136,697 137,693 140,694 141,694 141,694 142,695 142,695 144,695 144,695 145,696 147,696 148,696 150,693 150,693 151,693 151,693 152,694 157,695 158,695 159,692 160,688 163,685 164,686 165,682 167,683 167,679 168,676 168,668 169,669 170,666 170,666 171,666 171,667 172,667 173,668 175,661 176,662 177,662 177,663 179,660 180,657 181,654 182,651 182,651 185,652 187,653 187,653 188,650 188,650 190,648 192,649 193,649 195,650 195,650 196,648 197,648 198,648 200,649 201,649 203,647 204,648 205,648 206,649 207,649 210,647 211,645 211,645 212,645 212,646 213,646 215,647 216,644 217,642 217,639 218,639 218,642 220,643 221,643 222,644 224,645 225,645 225,645 226,646 227,643 227,643 228,644 228,644 229,644 230,644 231,644 232,645 233,645 234,645 236,646 237,646 238,644 238,644 239,644 240,644 240,645 241,645 242,645 243,645 244,646 244,646 245,646 245,646 246,646 247,646 247,646 248,647 249,647 250,647 251,643 252,643 252,643 254,644 254,644 255,644 255,645 256,645 257,645 257,645 258,645 258,645 259,646 260,646 260,644 261,644 261,644 262,644 262,644 263,644 264,645 264,645 265,645 266,645 267,645 267,646 269,646 270,646 270,646 271,646 271,647 272,647 272,647 273,647 274,648 275,648 275,648 277,649 278,646 278,647 280,645 280,645 281,646 282,646 282,646 283,644 284,644 285,644 286,645 287,645 287,645 288,643 288,641 290,641 290,641 291,642 291,642 292,642 292,640 293,638 294,638 295,639 297,639 297,642 298,640 300,640 300,636 301,636 302,637 302,637 304,637 305,636 305,636 306,636 307,636 308,634 309,633 310,633 310,633 311,633 311,634 312,634 312,632 313,632 314,632 314,633 315,633 315,631 316,629 317,629 317,628 318,628 319,628 320,629 320,627 321,628 321,626 322,626 322,624 323,624 324,624 324,625 325,625 325,623 326,622 327,622 327,622 328,622 328,621 329,621 330,621 330,621 331,622 331,620 332,620 332,621 333,621 334,621 334,622 335,622 336,622 337,623 337,623 338,623 338,623 339,624 340,624 340,624 341,624 341,622 342,623 342,623 343,623 344,623 344,623 345,623 345,624 346,624 347,623 347,621 348,620 348,620 349,618 350,618 350,615 351,616 351,616 352,616 352,617 353,617 354,617 354,617 355,614 355,612 356,612 357,613 357,613 358,613 358,613 359,614 360,614 360,614 361,612 361,613 362,613 362,613 363,613 364,613 364,614 365,614 365,614 366,611 367,610 367,610 368,610 368,610 369,608 370,608 370,608 371,609 371,609 372,609 372,609 374,610 374,610 375,610 375,610 376,610 377,611 377,611 378,609 378,610 379,610 380,610 380,610 381,610 381,613 382,613 382,613 383,613 384,614 384,614 385,614 385,614 386,613 387,613 387,613 388,614 388,614 389,614 390,614 390,614 391,615 391,615 392,615 392,615 393,614 394,614 394,614 395,614 395,615 396,615 397,615 397,615 398,616 398,616 399,616 400,616 400,616 401,617 401,617 402,616 403,615 404,613 404,613 405,614 405,614 406,614 407,614 407,615 408,615 408,615 409,615 410,615 410,615 411,616 411,616 412,616 412,616 413,616 414,616 414,615 415,615 415,616 416,616 417,616 417,616 418,616 418,617 419,617 420,617 420,617 421,616 421,616 422,616 422,617 423,617 424,616 424,616 425,616 425,616 426,617 427,617 427,617 428,617 429,616 430,616 430,616 431,617 431,617 432,617 432,617 433,617 434,616 434,616 435,617 435,617 436,617 437,617 437,618 438,618 438,618 439,618 440,616 440,615 441,615 441,615 442,617 442,616 443,616 444,616 444,615 445,615 445,614 446,613 447,613 447,613 448,614 448,616 449,616 450,617 450,617 451,617 451,618 452,618 452,618 453,617 454,617 454,616 455,616 455,616 456,615 457,616 457,616 458,616 458,616 459,616 460,616 460,617 461,617 461,617 462,617 462,617 463,618 464,618 464,619 465,619 465,619 466,619 467,619 467,619 468,620 468,620 469,620 470,620 470,620 471,621 471,621 472,621 472,621 473,622 474,622 474,622 475,622 475,622 476,621 477,622 477,622 478,622 478,617 479,617 480,619 480,619 481,619 481,619 482,619 482,620 483,620 484,620 484,620 485,620 485,622 486,622 487,621 487,621 488,621 488,621 489,621 490,621 490,620 491,620 491,620 492,620 492,620 493,620 494,621 494,621 495,621 495,621 496,621 497,623 497,622 498,622 499,622 500,622 500,622 501,623 501,623 502,623 502,623 503,623 504,623 504,624 505,624 505,625 506,625 507,625 507,625 508,625 508,626 509,626 510,625 510,625 511,624 511,625 512,624 512,624 513,624 514,624 514,625 515,624 515,623 516,624 517,624 517,624 518,624 518,624 519,623 520,622 520,622 521,622 521,623 522,623 522,623 523,623 524,621 524,622 525,621 525,622 526,621 527,619 527,617 528,618 528,618 529,618 530,618 530,619 531,619 531,619 532,619 532,619 533,619 534,619 534,619 535,619 535,620 536,620 537,619 537,619 538,619 538,619 539,620 540,620 540,620 541,620 541,620 542,621 542,621 543,620 544,620 544,620 545,621 545,620 546,620 547,620 547,621 548,621 548,621 549,621 550,622 550,622 551,622 551,622 552,623 552,623 553,623 554,623 554,623 555,624 555,624 556,624 557,624 557,624 558,624 558,625 559,625 560,625 560,625 561,625 561,626 562,626 562,626 563,626 564,626 564,627 565,626 565,626 566,625 567,625 567,625 568,625 568,625 569,624 570,624 570,625 571,625 571,625 572,624 572,623 573,623 574,623 574,622 575,622 575,622 576,622 577,622 577,622 578,622 578,623 579,623 580,623 580,623 581,621 581,622 582,622 582,622 583,622 584,622 584,623 585,623 585,623 586,623 587,622 587,623 588,623 588,621 589,622 590,622 590,620 591,620 591,620 592,620 592,620 593,620 594,620 594,621 595,622 595,621 596,622 597,621 597,620 598,621 598,621 599,621 600,622 600,621 601,622 601,622 602,622 602,622 603,622 604,623 604,623 605,623 605,623 606,624 607,623 607,623 608,623 608,624 609,624 610,624 610,624 611,624 611,624 612,624 612,624 613,624 614,624 614,624 615,624 615,624 616,625 617,625 617,625 618,625 618,625 619,626 620,626 620,625 621,624 621,625 622,625 622,625 623,625 624,625 624,625 625,626 625,626 626,626 627,626 627,626 628,626 628,626 629,626 630,627 630,626 631,626 631,627 632,627 632,627 633,627 634,627 634,627 635,628 635,627 636,627 637,627 637,627 638,627 638,627 639,627 640,627 640,627 641,627 641,626 642,626 642,626 643,626 644,625 644,626 645,626 645,624 646,625 647,625 647,625 648,625 648,625 649,626 650,626 650,626 651,626 651,626 652,626 652,626 653,626 654,626 654,626 655,626 655,626 656,627 657,627 657,627 658,627 658,627 659,627 660,628 660,628 661,628 661,628 662,628 662,628 663,628 664,628 664,627 665,628 665,628 666,627 667,627 667,627 668,628 668,628 669,628 670,627 670,627 671,627 671,628 672,628 672,628 673,628 674,628 674,627 675,628 675,628 676,628 677,628 677,628 678,628 678,628 679,629 680,629 680,629 681,629 681,629 682,629 682,630 683,630 684,630 684,630 685,630 685,630 686,631 687,631 687,631 688,631 688,631 689,631 690,631 690,632 691,632 691,632 692,632 692,632 693,632 694,633 694,633 695,633 695,633 696,633 697,633 697,633 698,633 698,633 699,633 700,634 700,634 701,634 701,633 702,634 702,634 703,634 704,633 704,632 705,632 705,632 706,632 707,632 707,633 708,632 708,632 709,632 710,632 710,633 711,633 711,633 712,633 712,633 713,633 714,634 714,634 715,634 715,634 716,634 717,634 717,634 718,634 718,634 719,634 720,634 720,634 721,634 721,634 722,634 722,635 723,635 724,635 724,635 725,635 725,635 726,636 727,636 727,636 728,635 728,635 729,634 730,635 730,634 731,634 731,634 732,634 732,634 733,634 734,634 734,634 735,635 735,635 736,634 737,633 737,634 738,634 738,634 739,633 740,633 740,633 741,633 741,633 742,633 742,634 743,634 744,634 744,633 745,633 745,634 746,634 747,633 747,634 748,634 748,634 749,634 750,635 750,634 751,635 751,634 752,634 752,635 753,635 754,635 754,636 755,635 755,635 756,636 757,636 757,636 758,636 758,636 759,635 760,635 760,635 761,636 761,636 762,636 762,636 763,636 764,636 764,637 765,637 765,637 766,637 767,637 767,637 768,637 768,637 769,638 770,638 770,638 771,638 771,639 772,639 772,639 773,638 774,639 774,639 775,639 775,639 776,639 777,639 777,639 778,640 778,640 779,640 780,640 780,640 781,641 781,641 782,641 782,641 783,641 784,641 784,641 785,641 785,641 786,642 787,641 787,641 788,641 788,642 789,642 790,642 790,642 791,641 791,641 792,641 792,641 793,641 794,641 794,641 795,640 795,640 796,641 797,641 797,640 798,640 798,640 799,641 800,641 800,641 801,641 801,641 802,641 802,642 803,642 804,642 804,642 805,642 805,642 806,642 807,642 807,642 808,642 808,642 809,642 810,642 810,643 811,643 811,643 812,643 812,643 813,643 814,643 814,643 815,642 815,642 816,643 817,643 817,643 818,643 818,643 819,643 820,643 820,643 821,643 821,643 822,643 822,643 823,643 824,643 824,643 825,644 825,644 826,644 827,644 827,644 828,645 828,645 829,645 830,645 830,645 831,645 831,645 832,645 832,645 833,645 834,646 834,646 835,646 835,646 836,646 837,646 837,646 838,646 838,646 839,646 840,646 840,647 841,647 841,647 842,647 842,647 843,647 844,647 844,647 845,647 845,647 846,647 847,647 847,647 848,647 848,647 849,648 850,648 850,648 851,648 851,648 852,648 852,647 853,647 854,648 854,648 855,648 855,648 856,648 857,649 857,649 858,649 858,649 859,649 860,650 860,650 861,649 861,649 862,650 862,650 863,650 864,650 864,650 865,650 865,650 866,650 867,650 867,650 868,650 868,650 869,651 870,651 870,650 871,651 871,651 872,651 872,651 873,651 874,651 874,650 875,650 875,650 876,651 877,651 877,651 878,651 878,651 879,651 880,651 880,651 881,651 881,651 882,652 882,652 883,651 884,651 884,651 885,651 885,651 886,651 887,651 887,651 887,652 888,652 888,652 889,652 890,652 890,652 891,653 891,653 892,653 892,653 893,653 894,653 894,653 895,653 895,653 896,653 897,653 897,654 898,655 898,654 899,654 900,654 900,654 901,654 901,653 902,653 902,654 903,654 904,654 904,654 905,654 905,654 906,654 907,654 907,654 908,654 908,654 909,654 910,654 910,654 911,654 911,654 912,654 912,654 913,654 914,654 914,655 915,654 915,654 916,654 917,655 917,655 918,655 918,655 919,655 920,655 920,655 921,655 921,655 922,655 922,656 923,655 924,655 924,655 925,655 925,655 926,655 927,655 927,655 928,655 928,655 929,655 930,656 930,656 931,655 931,656 932,656 932,654 933,654 934,654 934,654 935,655 935,655 936,655 937,655 937,655 938,655 938,655 939,655 940,655 940,656 941,656 941,656 942,656 942,656 943,656 944,656 944,656 945,656 945,657 946,657 947,656 947,657 948,661 948,661 949,661 950,657 950,657 951,657 951,657 952,658 952,658 953,658 954,658 954,658 955,658 955,658 956,658 957,658 957,658 958,659 958,659 959,659 960,659 960,659 961,659 961,659 962,659 962,659 963,660 964,660 964,659 965,660 965,660 966,660 967,660 967,660 968,660 968,660 969,660 970,660 970,660 971,660 971,660 972,660 972,661 973,661 974,661 974,661 975,661 975,661 976,661 977,661 977,661 978,661 978,661 979,662 980,661 980,661 981,661 981,661 982,661 982,660 983,661 984,661 984,660 985,661 985,661 986,661 987,661 987,661 988,661 988,661 989,661 990,661 990,661 991,662 991,662 992,662 992,662 993,662 994,662 994,662 995,662 995,662 996,662 997,662 997,662 998,662 998,662 999,662 1000,662 1000,663 1001,663 1001,663 1002,663 1002,663 1003,663 1004,663 1004,663 1005,663 1005,663 1006,663 1007,663 1007,663 1008,663 1008,664 1009,663 1010,663 1010,663 1011,663 1011,663 1012,663 1012,663 1013,663 1014,663 1014,663 1015,663 1015,663 1016,663 1017,663 1017,663 1018,663 1018,663 1019,663 1020,663 1020,663 1021,663 1021,663 1022,663 1022,663 1023,663 1024,663 1024,664 1025,664 1025,664 1026,664 1027,664 1027,664 1028,664 1028,664 1029,664 1030,664 1030,664 1031,664 1031,664 1032,664 1032,664 1033,664 1034,664 1034,665 1035,665 1035,665 1036,665 1037,665 1037,665 1038,665 1038,665 1039,665 1040,665 1040,665 1041,665 1041,665 1042,665 1042,665 1043,666 1044,666 1044,666 1045,666 1045,666 1046,666 1047,666 1047,666 1048,666 1048,666 1049,666 1050,666 1050,667 1051,667 1051,667 1052,667 1052,667 1053,667 1054,667 1054,667 1055,667 1055,667 1056,667 1057,667 1057,668 1058,667 1058,668 1059,668 1060,668 1060,668 1061,668 1061,668 1062,668 1062,668 1063,668 1064,669 1064,669 1065,669 1065,668 1066,668 1067,668 1067,669 1068,669 1068,669 1069,669 1070,669 1070,669 1071,669 1071,669 1072,669 1072,669 1073,669 1074,669 1074,669 1075,669 1075,669 1076,669 1077,669 1077,669 1078,669 1078,669 1079,669 1080,669 1080,670 1081,669 1081,669 1082,669 1082,669 1083,669 1084,669 1084,669 1085,670 1085,670 1086,670 1087,670 1087,670 1088,670 1088,670 1089,670 1090,670 1090,670 1091,670 1091,670 1092,670 1092,670 1093,670 1094,670 1094,670 1095,670 1095,670 1096,670 1097,670 1097,670 1098,670 1098,671 1099,670 1100,670 1100,671 1101,670 1101,670 1102,671 1102,670 1103,670 1104,670 1104,671 1105,671 1105,671 1106,671 1107,671 1107,671 1108,671 1108,671 1109,671 1110,671 1110,671 1111,672 1111,672 1112,672 1112,672 1113,671 1114,671 1114,672 1114,672 1115,672 1115,672 1116,672 1117,672 1117,672 1118,672 1118,672 1119,672 1120,672 1120,672 1121,672 1121,672 1122,672 1122,672 1123,672 1124,672 1124,672 1125,672 1125,672 1126,672 1127,672 1127,672 1128,672 1128,672 1129,672 1130,672 1130,672 1131,672 1131,672 1132,672 1132,672 1133,672 1134,672 1134,672 1135,672 1135,672 1136,672 1137,672 1137,673 1138,673 1138,673 1139,673 1140,673 1140,673 1141,672 1141,673 1142,673 1142,673 1143,673 1144,673 1144,673 1145,673 1145,673 1146,673 1147,673 1147,673 1148,673 1148,673 1149,673 1150,673 1150,673 1151,674 1151,674 1152,674 1152,674 1153,674 1154,674 1154,674 1155,674 1155,674 1156,674 1157,674 1157,674 1158,674 1158,674 1159,674 1160,674 1160,675 1161,675 1161,675 1162,675 1162,675 1163,675 1164,675 1164,676 1165,676 1165,676 1166,676 1167,676 1167,676 1167,676 1167,676 1168,676 1168,676 1168,676 1168,676 1169,676 1170,676 1170,676 1170,676 1171,676 1171,676 1171,676 1171,676 1172,676 1172,676 1172,676 1173,676 1173,677 1174,677 1174,677 1174,677 1174,677 1175,677 1175,677 1175,677 1175,677 1176,677 1177,677 1177,677 1177,677 1178,677 1178,677 1178,677 1179,677 1180,677 1180,677 1180,677 1180,677 1181,677 1181,677 1181,677 1181,678 1182,678 1182,678 1182,678 1182,678 1183,678 1184,678 1184,678 1184,678 1184,678 1185,678 1185,678 1185,678 1185,678 1186,678 1186,678 1187,678 1187,678 1187,678 1188,678 1188,678 1188,678 1188,678 1189,678 1190,678 "/>
<polyline fill="none" opacity="1" stroke="#BD19E6" stroke-width="2" points="552,738 553,737 576,737 595,736 615,735 617,735 625,734 638,733 643,732 648,731 656,731 659,730 661,729 664,728 670,727 687,727 687,727 693,726 700,726 707,725 708,725 710,724 711,723 714,722 715,722 719,721 720,720 724,720 724,720 725,719 730,719 730,718 734,718 737,717 737,717 740,715 741,715 742,714 743,714 744,713 744,714 745,713 746,712 747,712 748,712 750,712 752,712 754,711 754,710 757,710 758,710 760,709 761,708 763,708 766,707 767,707 767,706 770,706 772,705 774,705 774,704 779,703 780,703 780,702 781,701 784,701 785,700 786,699 787,699 787,699 788,697 788,697 789,697 790,696 791,695 791,695 792,694 792,694 793,693 794,693 795,693 797,692 797,691 798,690 799,689 800,689 800,688 801,687 802,687 803,687 804,687 805,686 805,685 806,684 807,684 808,683 808,682 809,681 810,681 811,680 811,680 812,681 813,679 814,679 814,678 815,677 816,676 817,675 818,675 818,675 819,674 820,673 822,673 824,673 825,674 826,673 828,672 828,672 829,672 830,672 832,672 832,672 834,671 834,671 835,670 835,670 836,670 837,670 838,669 838,668 840,668 841,668 841,667 842,667 844,666 845,666 846,666 847,666 847,665 848,664 849,664 850,663 851,663 852,663 855,664 857,662 858,663 860,662 860,662 862,662 863,662 864,660 864,659 865,658 865,658 866,657 867,657 868,657 870,657 870,657 871,657 872,656 874,656 875,655 876,655 877,654 877,653 878,653 880,653 881,654 881,654 882,653 883,653 885,653 885,652 886,652 887,651 888,651 889,651 890,651 890,651 891,650 891,650 892,649 892,649 893,648 894,648 894,647 895,647 895,646 897,646 897,646 898,646 898,645 899,645 900,644 901,644 902,644 902,643 903,642 904,642 905,641 907,641 907,641 908,641 908,641 909,640 910,640 910,639 911,639 912,638 912,638 914,637 914,637 915,637 915,636 917,636 921,637 921,637 922,637 925,637 926,637 927,637 927,636 928,636 928,637 929,637 930,636 931,636 932,635 933,634 934,634 934,633 935,632 936,631 937,631 937,630 938,629 938,629 940,629 941,628 941,628 942,627 943,626 944,625 945,626 946,624 947,623 947,621 948,626 949,625 950,620 950,620 951,619 951,617 952,617 952,616 954,615 954,615 955,615 955,614 956,614 957,614 957,614 958,614 958,614 959,614 960,613 961,613 961,613 962,613 962,613 963,612 964,611 964,611 965,610 965,610 966,611 967,611 967,610 968,610 968,609 969,609 970,609 970,608 971,608 971,608 972,608 972,607 973,607 974,608 975,608 975,608 976,607 977,607 977,607 978,606 978,606 979,605 980,605 981,605 981,604 982,603 982,602 983,602 984,601 984,600 985,600 985,599 986,599 987,599 987,599 988,598 988,597 989,597 990,596 990,596 991,597 991,596 992,595 993,595 994,595 994,595 995,594 995,594 996,593 997,593 997,593 998,593 998,593 999,593 1000,593 1000,593 1001,592 1001,592 1002,592 1002,592 1003,591 1004,592 1004,590 1005,590 1005,590 1006,590 1007,590 1007,590 1008,590 1008,590 1009,590 1010,590 1010,589 1011,589 1011,588 1012,587 1012,587 1013,587 1014,587 1014,587 1015,586 1015,586 1016,586 1017,586 1017,585 1018,585 1018,585 1019,585 1020,585 1020,585 1021,584 1021,584 1022,584 1022,584 1023,584 1024,583 1024,582 1025,582 1025,582 1026,581 1027,582 1027,582 1028,581 1028,581 1029,581 1030,580 1030,580 1031,580 1031,580 1032,580 1032,580 1033,580 1034,580 1034,579 1035,579 1035,578 1036,578 1037,578 1037,577 1038,577 1038,577 1039,576 1040,577 1040,576 1041,576 1041,576 1042,575 1042,574 1043,574 1044,573 1044,573 1045,572 1045,573 1046,572 1047,572 1047,572 1048,572 1048,572 1049,571 1050,571 1050,571 1051,571 1051,570 1052,570 1052,571 1053,570 1054,571 1054,571 1055,571 1055,570 1056,570 1057,569 1057,568 1058,568 1058,568 1059,568 1060,567 1060,567 1061,567 1061,567 1062,566 1062,566 1063,566 1064,566 1064,566 1065,565 1065,565 1066,565 1067,564 1067,564 1068,564 1068,563 1069,563 1070,562 1070,562 1071,562 1071,561 1072,561 1072,561 1073,561 1074,560 1074,560 1075,560 1075,559 1076,559 1077,559 1077,559 1078,559 1078,558 1079,556 1080,557 1080,557 1081,557 1081,557 1082,556 1082,556 1083,556 1084,556 1084,556 1085,555 1085,555 1086,555 1087,554 1087,554 1088,553 1088,553 1089,552 1090,552 1090,552 1091,551 1091,551 1092,551 1092,551 1093,550 1094,550 1094,550 1095,550 1095,549 1096,548 1097,548 1097,548 1098,547 1098,547 1099,547 1100,547 1100,547 1101,545 1101,545 1102,544 1102,543 1103,543 1104,543 1104,542 1105,541 1105,541 1106,541 1107,540 1107,540 1108,539 1108,540 1109,539 1110,539 1110,539 1111,538 1111,538 1112,537 1112,537 1113,537 1114,537 1114,536 1114,536 1115,536 1115,535 1116,535 1117,535 1117,534 1118,532 1118,532 1119,531 1120,531 1120,530 1121,530 1121,530 1122,530 1122,530 1123,529 1124,529 1124,529 1125,530 1125,530 1126,529 1127,528 1127,528 1128,527 1128,527 1129,527 1130,526 1130,526 1131,526 1131,525 1132,525 1132,525 1133,524 1134,524 1134,524 1135,524 1135,524 1136,523 1137,523 1137,523 1138,523 1138,523 1139,523 1140,522 1140,522 1141,522 1141,522 1142,521 1142,520 1143,519 1144,520 1144,518 1145,519 1145,519 1146,519 1147,519 1147,518 1148,517 1148,517 1149,516 1150,516 1150,515 1151,515 1151,514 1152,514 1152,514 1153,514 1154,513 1154,513 1155,512 1155,513 1156,513 1157,513 1157,512 1158,512 1158,511 1159,512 1160,512 1160,511 1161,511 1161,512 1162,511 1162,510 1163,511 1164,510 1164,510 1165,510 1165,509 1166,509 1167,509 1167,508 1167,508 1167,508 1168,508 1168,508 1168,508 1168,508 1169,508 1170,508 1170,508 1170,508 1171,508 1171,508 1171,508 1171,508 1172,508 1172,508 1172,507 1173,507 1173,507 1174,507 1174,506 1174,506 1174,507 1175,507 1175,506 1175,506 1175,506 1176,506 1177,506 1177,506 1177,505 1178,505 1178,505 1178,505 1179,505 1180,505 1180,505 1180,505 1180,505 1181,505 1181,504 1181,504 1181,504 1182,504 1182,504 1182,504 1182,504 1183,503 1184,503 1184,503 1184,503 1184,503 1185,503 1185,503 1185,503 1185,503 1186,503 1186,503 1187,502 1187,502 1187,501 1188,501 1188,501 1188,501 1188,500 1189,499 1190,499 "/>
<rect x="1088" y="329" width="97" height="91" opacity="1" fill="#FFFFFF" stroke="none"/>
<rect x="1088" y="329" width="97" height="91" opacity="1" fill="none" stroke="#000000"/>
<text x="1128" y="339" dy="0.76em" text-anchor="start" font-family="sans-serif" font-size="9.67741935483871" opacity="1" fill="#000000">
argparse
</text>
<text x="1128" y="354" dy="0.76em" text-anchor="start" font-family="sans-serif" font-size="9.67741935483871" opacity="1" fill="#000000">
clap
</text>
<text x="1128" y="369" dy="0.76em" text-anchor="start" font-family="sans-serif" font-size="9.67741935483871" opacity="1" fill="#000000">
docopt
</text>
<text x="1128" y="384" dy="0.76em" text-anchor="start" font-family="sans-serif" font-size="9.67741935483871" opacity="1" fill="#000000">
getopts
</text>
<text x="1128" y="399" dy="0.76em" text-anchor="start" font-family="sans-serif" font-size="9.67741935483871" opacity="1" fill="#000000">
structopt
</text>
<polyline fill="none" opacity="1" stroke="#E61919" stroke-width="2" points="1098,343 1118,343 "/>
<polyline fill="none" opacity="1" stroke="#BDE619" stroke-width="2" points="1098,359 1118,359 "/>
<polyline fill="none" opacity="1" stroke="#19E66B" stroke-width="2" points="1098,374 1118,374 "/>
<polyline fill="none" opacity="1" stroke="#196BE6" stroke-width="2" points="1098,389 1118,389 "/>
<polyline fill="none" opacity="1" stroke="#BD19E6" stroke-width="2" points="1098,404 1118,404 "/>
</svg>
