<svg width="1200" height="800" xmlns="http://www.w3.org/2000/svg">
<rect x="0" y="0" width="1199" height="799" opacity="1" fill="#FFFFFF" stroke="none"/>
<line opacity="0.1" stroke="#000000" stroke-width="1" x1="60" y1="731" x2="1190" y2="731"/>
<line opacity="0.1" stroke="#000000" stroke-width="1" x1="60" y1="723" x2="1190" y2="723"/>
<line opacity="0.1" stroke="#000000" stroke-width="1" x1="60" y1="715" x2="1190" y2="715"/>
<line opacity="0.1" stroke="#000000" stroke-width="1" x1="60" y1="707" x2="1190" y2="707"/>
<line opacity="0.1" stroke="#000000" stroke-width="1" x1="60" y1="699" x2="1190" y2="699"/>
<line opacity="0.1" stroke="#000000" stroke-width="1" x1="60" y1="690" x2="1190" y2="690"/>
<line opacity="0.1" stroke="#000000" stroke-width="1" x1="60" y1="682" x2="1190" y2="682"/>
<line opacity="0.1" stroke="#000000" stroke-width="1" x1="60" y1="674" x2="1190" y2="674"/>
<line opacity="0.1" stroke="#000000" stroke-width="1" x1="60" y1="666" x2="1190" y2="666"/>
<line opacity="0.1" stroke="#000000" stroke-width="1" x1="60" y1="658" x2="1190" y2="658"/>
<line opacity="0.1" stroke="#000000" stroke-width="1" x1="60" y1="650" x2="1190" y2="650"/>
<line opacity="0.1" stroke="#000000" stroke-width="1" x1="60" y1="641" x2="1190" y2="641"/>
<line opacity="0.1" stroke="#000000" stroke-width="1" x1="60" y1="633" x2="1190" y2="633"/>
<line opacity="0.1" stroke="#000000" stroke-width="1" x1="60" y1="625" x2="1190" y2="625"/>
<line opacity="0.1" stroke="#000000" stroke-width="1" x1="60" y1="617" x2="1190" y2="617"/>
<line opacity="0.1" stroke="#000000" stroke-width="1" x1="60" y1="609" x2="1190" y2="609"/>
<line opacity="0.1" stroke="#000000" stroke-width="1" x1="60" y1="601" x2="1190" y2="601"/>
<line opacity="0.1" stroke="#000000" stroke-width="1" x1="60" y1="592" x2="1190" y2="592"/>
<line opacity="0.1" stroke="#000000" stroke-width="1" x1="60" y1="584" x2="1190" y2="584"/>
<line opacity="0.1" stroke="#000000" stroke-width="1" x1="60" y1="576" x2="1190" y2="576"/>
<line opacity="0.1" stroke="#000000" stroke-width="1" x1="60" y1="568" x2="1190" y2="568"/>
<line opacity="0.1" stroke="#000000" stroke-width="1" x1="60" y1="560" x2="1190" y2="560"/>
<line opacity="0.1" stroke="#000000" stroke-width="1" x1="60" y1="552" x2="1190" y2="552"/>
<line opacity="0.1" stroke="#000000" stroke-width="1" x1="60" y1="543" x2="1190" y2="543"/>
<line opacity="0.1" stroke="#000000" stroke-width="1" x1="60" y1="535" x2="1190" y2="535"/>
<line opacity="0.1" stroke="#000000" stroke-width="1" x1="60" y1="527" x2="1190" y2="527"/>
<line opacity="0.1" stroke="#000000" stroke-width="1" x1="60" y1="519" x2="1190" y2="519"/>
<line opacity="0.1" stroke="#000000" stroke-width="1" x1="60" y1="511" x2="1190" y2="511"/>
<line opacity="0.1" stroke="#000000" stroke-width="1" x1="60" y1="503" x2="1190" y2="503"/>
<line opacity="0.1" stroke="#000000" stroke-width="1" x1="60" y1="494" x2="1190" y2="494"/>
<line opacity="0.1" stroke="#000000" stroke-width="1" x1="60" y1="486" x2="1190" y2="486"/>
<line opacity="0.1" stroke="#000000" stroke-width="1" x1="60" y1="478" x2="1190" y2="478"/>
<line opacity="0.1" stroke="#000000" stroke-width="1" x1="60" y1="470" x2="1190" y2="470"/>
<line opacity="0.1" stroke="#000000" stroke-width="1" x1="60" y1="462" x2="1190" y2="462"/>
<line opacity="0.1" stroke="#000000" stroke-width="1" x1="60" y1="454" x2="1190" y2="454"/>
<line opacity="0.1" stroke="#000000" stroke-width="1" x1="60" y1="445" x2="1190" y2="445"/>
<line opacity="0.1" stroke="#000000" stroke-width="1" x1="60" y1="437" x2="1190" y2="437"/>
<line opacity="0.1" stroke="#000000" stroke-width="1" x1="60" y1="429" x2="1190" y2="429"/>
<line opacity="0.1" stroke="#000000" stroke-width="1" x1="60" y1="421" x2="1190" y2="421"/>
<line opacity="0.1" stroke="#000000" stroke-width="1" x1="60" y1="413" x2="1190" y2="413"/>
<line opacity="0.1" stroke="#000000" stroke-width="1" x1="60" y1="405" x2="1190" y2="405"/>
<line opacity="0.1" stroke="#000000" stroke-width="1" x1="60" y1="396" x2="1190" y2="396"/>
<line opacity="0.1" stroke="#000000" stroke-width="1" x1="60" y1="388" x2="1190" y2="388"/>
<line opacity="0.1" stroke="#000000" stroke-width="1" x1="60" y1="380" x2="1190" y2="380"/>
<line opacity="0.1" stroke="#000000" stroke-width="1" x1="60" y1="372" x2="1190" y2="372"/>
<line opacity="0.1" stroke="#000000" stroke-width="1" x1="60" y1="364" x2="1190" y2="364"/>
<line opacity="0.1" stroke="#000000" stroke-width="1" x1="60" y1="356" x2="1190" y2="356"/>
<line opacity="0.1" stroke="#000000" stroke-width="1" x1="60" y1="347" x2="1190" y2="347"/>
<line opacity="0.1" stroke="#000000" stroke-width="1" x1="60" y1="339" x2="1190" y2="339"/>
<line opacity="0.1" stroke="#000000" stroke-width="1" x1="60" y1="331" x2="1190" y2="331"/>
<line opacity="0.1" stroke="#000000" stroke-width="1" x1="60" y1="323" x2="1190" y2="323"/>
<line opacity="0.1" stroke="#000000" stroke-width="1" x1="60" y1="315" x2="1190" y2="315"/>
<line opacity="0.1" stroke="#000000" stroke-width="1" x1="60" y1="307" x2="1190" y2="307"/>
<line opacity="0.1" stroke="#000000" stroke-width="1" x1="60" y1="298" x2="1190" y2="298"/>
<line opacity="0.1" stroke="#000000" stroke-width="1" x1="60" y1="290" x2="1190" y2="290"/>
<line opacity="0.1" stroke="#000000" stroke-width="1" x1="60" y1="282" x2="1190" y2="282"/>
<line opacity="0.1" stroke="#000000" stroke-width="1" x1="60" y1="274" x2="1190" y2="274"/>
<line opacity="0.1" stroke="#000000" stroke-width="1" x1="60" y1="266" x2="1190" y2="266"/>
<line opacity="0.1" stroke="#000000" stroke-width="1" x1="60" y1="258" x2="1190" y2="258"/>
<line opacity="0.1" stroke="#000000" stroke-width="1" x1="60" y1="249" x2="1190" y2="249"/>
<line opacity="0.1" stroke="#000000" stroke-width="1" x1="60" y1="241" x2="1190" y2="241"/>
<line opacity="0.1" stroke="#000000" stroke-width="1" x1="60" y1="233" x2="1190" y2="233"/>
<line opacity="0.1" stroke="#000000" stroke-width="1" x1="60" y1="225" x2="1190" y2="225"/>
<line opacity="0.1" stroke="#000000" stroke-width="1" x1="60" y1="217" x2="1190" y2="217"/>
<line opacity="0.1" stroke="#000000" stroke-width="1" x1="60" y1="209" x2="1190" y2="209"/>
<line opacity="0.1" stroke="#000000" stroke-width="1" x1="60" y1="200" x2="1190" y2="200"/>
<line opacity="0.1" stroke="#000000" stroke-width="1" x1="60" y1="192" x2="1190" y2="192"/>
<line opacity="0.1" stroke="#000000" stroke-width="1" x1="60" y1="184" x2="1190" y2="184"/>
<line opacity="0.1" stroke="#000000" stroke-width="1" x1="60" y1="176" x2="1190" y2="176"/>
<line opacity="0.1" stroke="#000000" stroke-width="1" x1="60" y1="168" x2="1190" y2="168"/>
<line opacity="0.1" stroke="#000000" stroke-width="1" x1="60" y1="160" x2="1190" y2="160"/>
<line opacity="0.1" stroke="#000000" stroke-width="1" x1="60" y1="151" x2="1190" y2="151"/>
<line opacity="0.1" stroke="#000000" stroke-width="1" x1="60" y1="143" x2="1190" y2="143"/>
<line opacity="0.1" stroke="#000000" stroke-width="1" x1="60" y1="135" x2="1190" y2="135"/>
<line opacity="0.1" stroke="#000000" stroke-width="1" x1="60" y1="127" x2="1190" y2="127"/>
<line opacity="0.1" stroke="#000000" stroke-width="1" x1="60" y1="119" x2="1190" y2="119"/>
<line opacity="0.1" stroke="#000000" stroke-width="1" x1="60" y1="111" x2="1190" y2="111"/>
<line opacity="0.1" stroke="#000000" stroke-width="1" x1="60" y1="102" x2="1190" y2="102"/>
<line opacity="0.1" stroke="#000000" stroke-width="1" x1="60" y1="94" x2="1190" y2="94"/>
<line opacity="0.1" stroke="#000000" stroke-width="1" x1="60" y1="86" x2="1190" y2="86"/>
<line opacity="0.1" stroke="#000000" stroke-width="1" x1="60" y1="78" x2="1190" y2="78"/>
<line opacity="0.1" stroke="#000000" stroke-width="1" x1="60" y1="70" x2="1190" y2="70"/>
<line opacity="0.1" stroke="#000000" stroke-width="1" x1="60" y1="62" x2="1190" y2="62"/>
<line opacity="0.1" stroke="#000000" stroke-width="1" x1="60" y1="53" x2="1190" y2="53"/>
<line opacity="0.1" stroke="#000000" stroke-width="1" x1="60" y1="45" x2="1190" y2="45"/>
<line opacity="0.1" stroke="#000000" stroke-width="1" x1="60" y1="37" x2="1190" y2="37"/>
<line opacity="0.1" stroke="#000000" stroke-width="1" x1="60" y1="29" x2="1190" y2="29"/>
<line opacity="0.1" stroke="#000000" stroke-width="1" x1="60" y1="21" x2="1190" y2="21"/>
<line opacity="0.1" stroke="#000000" stroke-width="1" x1="60" y1="13" x2="1190" y2="13"/>
<text x="10" y="375" dy="0.76em" text-anchor="middle" font-family="sans-serif" font-size="9.67741935483871" opacity="1" fill="#000000" transform="rotate(270, 10, 375)">
Fraction of dependent crates
</text>
<line opacity="0.2" stroke="#000000" stroke-width="1" x1="60" y1="658" x2="1190" y2="658"/>
<line opacity="0.2" stroke="#000000" stroke-width="1" x1="60" y1="576" x2="1190" y2="576"/>
<line opacity="0.2" stroke="#000000" stroke-width="1" x1="60" y1="494" x2="1190" y2="494"/>
<line opacity="0.2" stroke="#000000" stroke-width="1" x1="60" y1="413" x2="1190" y2="413"/>
<line opacity="0.2" stroke="#000000" stroke-width="1" x1="60" y1="331" x2="1190" y2="331"/>
<line opacity="0.2" stroke="#000000" stroke-width="1" x1="60" y1="249" x2="1190" y2="249"/>
<line opacity="0.2" stroke="#000000" stroke-width="1" x1="60" y1="168" x2="1190" y2="168"/>
<line opacity="0.2" stroke="#000000" stroke-width="1" x1="60" y1="86" x2="1190" y2="86"/>
<polyline fill="none" opacity="1" stroke="#000000" stroke-width="1" points="59,10 59,740 "/>
<text x="50" y="658" dy="0.5ex" text-anchor="end" font-family="sans-serif" font-size="9.67741935483871" opacity="1" fill="#000000">
0.01
</text>
<polyline fill="none" opacity="1" stroke="#000000" stroke-width="1" points="54,658 59,658 "/>
<text x="50" y="576" dy="0.5ex" text-anchor="end" font-family="sans-serif" font-size="9.67741935483871" opacity="1" fill="#000000">
0.02
</text>
<polyline fill="none" opacity="1" stroke="#000000" stroke-width="1" points="54,576 59,576 "/>
<text x="50" y="494" dy="0.5ex" text-anchor="end" font-family="sans-serif" font-size="9.67741935483871" opacity="1" fill="#000000">
0.03
</text>
<polyline fill="none" opacity="1" stroke="#000000" stroke-width="1" points="54,494 59,494 "/>
<text x="50" y="413" dy="0.5ex" text-anchor="end" font-family="sans-serif" font-size="9.67741935483871" opacity="1" fill="#000000">
0.04
</text>
<polyline fill="none" opacity="1" stroke="#000000" stroke-width="1" points="54,413 59,413 "/>
<text x="50" y="331" dy="0.5ex" text-anchor="end" font-family="sans-serif" font-size="9.67741935483871" opacity="1" fill="#000000">
0.05
</text>
<polyline fill="none" opacity="1" stroke="#000000" stroke-width="1" points="54,331 59,331 "/>
<text x="50" y="249" dy="0.5ex" text-anchor="end" font-family="sans-serif" font-size="9.67741935483871" opacity="1" fill="#000000">
0.06
</text>
<polyline fill="none" opacity="1" stroke="#000000" stroke-width="1" points="54,249 59,249 "/>
<text x="50" y="168" dy="0.5ex" text-anchor="end" font-family="sans-serif" font-size="9.67741935483871" opacity="1" fill="#000000">
0.07
</text>
<polyline fill="none" opacity="1" stroke="#000000" stroke-width="1" points="54,168 59,168 "/>
<text x="50" y="86" dy="0.5ex" text-anchor="end" font-family="sans-serif" font-size="9.67741935483871" opacity="1" fill="#000000">
0.08
</text>
<polyline fill="none" opacity="1" stroke="#000000" stroke-width="1" points="54,86 59,86 "/>
<polyline fill="none" opacity="1" stroke="#000000" stroke-width="1" points="60,740 1190,740 "/>
<text x="60" y="750" dy="0.76em" text-anchor="middle" font-family="sans-serif" font-size="9.67741935483871" opacity="1" fill="#000000">
2014-11-20Z
</text>
<polyline fill="none" opacity="1" stroke="#000000" stroke-width="1" points="60,740 60,745 "/>
<text x="172" y="750" dy="0.76em" text-anchor="middle" font-family="sans-serif" font-size="9.67741935483871" opacity="1" fill="#000000">
2015-06-25Z
</text>
<polyline fill="none" opacity="1" stroke="#000000" stroke-width="1" points="172,740 172,745 "/>
<text x="285" y="750" dy="0.76em" text-anchor="middle" font-family="sans-serif" font-size="9.67741935483871" opacity="1" fill="#000000">
2016-01-28Z
</text>
<polyline fill="none" opacity="1" stroke="#000000" stroke-width="1" points="285,740 285,745 "/>
<text x="398" y="750" dy="0.76em" text-anchor="middle" font-family="sans-serif" font-size="9.67741935483871" opacity="1" fill="#000000">
2016-09-01Z
</text>
<polyline fill="none" opacity="1" stroke="#000000" stroke-width="1" points="398,740 398,745 "/>
<text x="511" y="750" dy="0.76em" text-anchor="middle" font-family="sans-serif" font-size="9.67741935483871" opacity="1" fill="#000000">
2017-04-06Z
</text>
<polyline fill="none" opacity="1" stroke="#000000" stroke-width="1" points="511,740 511,745 "/>
<text x="624" y="750" dy="0.76em" text-anchor="middle" font-family="sans-serif" font-size="9.67741935483871" opacity="1" fill="#000000">
2017-11-09Z
</text>
<polyline fill="none" opacity="1" stroke="#000000" stroke-width="1" points="624,740 624,745 "/>
<text x="737" y="750" dy="0.76em" text-anchor="middle" font-family="sans-serif" font-size="9.67741935483871" opacity="1" fill="#000000">
2018-06-14Z
</text>
<polyline fill="none" opacity="1" stroke="#000000" stroke-width="1" points="737,740 737,745 "/>
<text x="849" y="750" dy="0.76em" text-anchor="middle" font-family="sans-serif" font-size="9.67741935483871" opacity="1" fill="#000000">
2019-01-17Z
</text>
<polyline fill="none" opacity="1" stroke="#000000" stroke-width="1" points="849,740 849,745 "/>
<text x="962" y="750" dy="0.76em" text-anchor="middle" font-family="sans-serif" font-size="9.67741935483871" opacity="1" fill="#000000">
2019-08-22Z
</text>
<polyline fill="none" opacity="1" stroke="#000000" stroke-width="1" points="962,740 962,745 "/>
<text x="1075" y="750" dy="0.76em" text-anchor="middle" font-family="sans-serif" font-size="9.67741935483871" opacity="1" fill="#000000">
2020-03-26Z
</text>
<polyline fill="none" opacity="1" stroke="#000000" stroke-width="1" points="1075,740 1075,745 "/>
<text x="1188" y="750" dy="0.76em" text-anchor="middle" font-family="sans-serif" font-size="9.67741935483871" opacity="1" fill="#000000">
2020-10-29Z
</text>
<polyline fill="none" opacity="1" stroke="#000000" stroke-width="1" points="1188,740 1188,745 "/>
<polyline fill="none" opacity="1" stroke="#E61919" stroke-width="2" points="165,736 170,729 171,726 207,725 234,724 263,724 272,722 273,718 281,716 284,718 286,717 287,713 288,713 290,715 291,713 292,711 293,709 302,712 303,712 316,712 317,712 322,711 329,710 332,708 333,705 346,705 347,705 352,704 369,704 369,704 371,705 372,705 372,705 373,706 374,706 375,706 375,707 376,707 376,707 378,707 378,707 379,707 420,712 420,711 421,708 422,707 424,706 447,709 448,709 448,709 450,708 451,708 452,708 452,708 453,708 454,708 456,707 457,704 458,704 459,704 459,704 460,704 460,703 462,703 463,703 465,703 466,704 466,704 467,704 467,704 468,704 469,704 470,704 472,704 473,704 473,704 474,705 475,705 476,705 476,705 477,705 478,705 478,705 480,705 480,705 482,705 482,704 483,705 483,705 485,705 486,705 486,705 489,705 489,705 490,705 491,705 493,704 493,703 494,703 494,703 496,703 496,703 497,703 498,704 499,703 499,703 500,703 502,703 503,703 504,703 505,703 505,703 506,703 506,703 507,704 508,704 509,704 510,704 511,704 512,704 513,704 513,704 516,704 516,704 518,704 520,704 521,704 521,704 524,704 526,705 527,705 529,705 529,705 531,705 531,705 532,704 534,705 535,705 537,706 538,706 538,706 540,706 541,706 541,706 542,706 543,707 544,707 545,707 546,707 546,708 547,708 547,707 548,707 548,707 549,707 549,706 551,707 551,707 554,707 555,707 559,707 560,707 560,708 561,708 561,707 562,707 562,707 563,707 565,707 565,707 566,707 567,707 567,707 568,707 568,707 569,707 569,706 570,706 571,706 572,705 572,705 575,705 575,705 576,705 576,705 577,705 577,705 578,705 579,705 584,706 586,705 589,706 589,706 590,706 591,705 593,705 594,706 597,706 598,706 598,706 608,707 609,707 610,707 613,707 614,706 620,706 621,706 623,707 624,706 625,706 625,706 627,706 630,707 632,707 634,707 634,707 635,707 637,707 638,707 638,707 639,706 640,707 640,707 641,707 641,707 642,707 643,707 643,707 644,707 645,707 646,707 646,707 647,707 647,707 648,707 648,707 649,707 650,707 651,708 652,708 652,708 653,708 654,708 654,708 656,708 656,708 657,708 658,708 659,708 659,708 660,708 660,708 661,708 662,708 663,708 665,708 665,708 666,708 667,708 667,708 668,708 669,709 669,709 670,709 671,709 672,709 674,710 675,710 676,710 677,710 678,709 678,709 681,710 681,710 685,710 685,710 686,710 686,710 687,710 687,710 688,710 688,710 690,710 691,710 691,710 692,710 694,710 695,710 695,710 696,710 697,710 698,710 698,710 699,711 701,711 702,710 702,710 703,710 703,710 704,710 705,710 706,710 706,710 707,710 707,710 708,710 708,710 709,710 710,710 710,710 711,710 711,710 712,710 712,710 713,710 713,710 714,711 714,711 715,711 716,711 716,711 717,711 719,711 719,711 720,711 720,711 723,711 724,711 725,711 725,711 726,711 728,711 728,711 729,712 729,712 730,711 730,711 731,711 731,711 732,711 732,711 733,711 733,711 734,711 734,711 735,711 736,711 738,711 739,712 739,712 740,712 741,712 741,712 742,712 742,712 743,712 743,712 744,712 744,712 745,712 745,712 746,712 746,712 747,712 748,712 749,712 749,712 750,712 750,711 751,711 751,711 752,711 752,711 753,711 754,711 754,711 755,712 756,712 757,712 758,712 758,712 759,712 759,712 760,712 761,712 762,712 763,712 764,712 764,712 765,712 765,712 766,712 766,712 767,712 767,712 768,712 769,713 769,713 770,713 770,713 771,713 771,713 772,713 772,713 773,713 775,713 775,713 776,713 777,713 777,713 778,713 778,713 779,713 779,713 780,714 781,714 781,714 782,714 783,714 783,714 784,714 785,714 785,714 786,714 786,714 788,714 788,714 789,714 789,714 790,715 790,715 791,715 791,715 791,715 792,715 792,715 793,715 793,715 794,715 794,715 795,715 795,715 796,715 797,715 797,715 798,715 798,715 799,715 799,715 800,715 801,715 801,715 802,715 803,715 804,715 804,715 805,715 806,715 806,715 807,715 808,715 809,715 809,715 810,715 810,715 811,715 811,715 812,715 812,715 813,715 814,715 814,715 815,715 816,715 816,715 817,715 818,715 819,715 819,715 820,715 821,715 821,715 822,715 823,715 823,715 824,715 824,715 825,715 826,715 827,715 827,715 828,715 829,715 829,715 830,715 831,716 831,716 832,716 832,716 834,715 834,715 835,715 836,715 837,715 837,715 838,715 838,715 840,715 840,715 841,715 841,715 842,715 842,715 843,716 844,716 844,716 845,717 845,717 846,717 846,716 847,716 847,716 848,716 848,716 849,716 850,716 850,716 851,716 853,716 854,716 854,716 855,716 856,716 856,717 857,717 857,717 858,716 858,716 859,716 859,716 860,716 861,716 862,716 862,716 863,716 864,716 864,716 866,716 866,716 867,716 867,716 868,716 868,716 869,716 869,716 870,716 870,716 871,716 871,716 872,716 873,716 873,716 874,716 874,716 875,716 875,716 876,716 876,716 877,716 877,716 878,716 879,716 879,716 880,716 880,716 881,716 882,716 882,717 883,717 883,717 884,717 884,717 885,717 886,717 886,717 887,717 887,717 888,717 888,717 889,717 890,717 890,717 891,717 892,717 892,717 893,717 894,717 895,717 897,717 898,717 898,717 899,717 900,717 900,717 901,718 901,718 902,718 902,718 903,718 903,718 904,718 905,717 905,717 906,718 906,718 907,717 908,717 909,717 910,718 911,718 911,718 912,718 912,718 913,718 914,718 915,718 916,718 916,718 917,718 918,718 918,718 919,718 919,718 920,717 921,717 922,717 922,717 923,718 923,718 924,718 926,718 926,718 927,718 927,718 928,718 929,718 929,718 930,718 931,718 931,718 932,718 933,718 933,718 934,718 934,718 935,718 937,718 937,718 938,718 938,718 939,718 939,718 940,718 940,718 941,718 942,718 942,718 943,718 944,718 945,719 945,719 946,719 946,719 948,719 948,719 949,719 949,719 950,719 950,719 951,719 951,719 952,719 952,719 953,719 953,719 954,719 954,719 955,719 955,719 956,719 957,719 957,719 958,719 959,719 960,719 961,719 962,719 962,719 963,719 963,719 964,719 965,720 966,720 966,720 967,720 967,720 968,720 968,720 969,720 970,720 970,720 971,720 971,720 972,720 973,720 975,720 976,720 976,720 977,720 977,720 978,720 979,720 980,721 981,721 981,721 982,721 983,721 983,721 984,721 985,721 985,721 986,721 988,721 988,721 990,721 990,721 991,721 991,721 992,721 993,721 993,721 995,721 996,721 996,721 997,721 997,721 998,721 998,721 999,721 999,721 1000,721 1000,721 1001,721 1001,721 1002,721 1002,721 1003,721 1003,721 1004,721 1004,721 1005,721 1005,721 1006,722 1006,722 1007,722 1007,722 1009,721 1010,721 1010,721 1011,721 1011,721 1012,721 1016,722 1016,722 1017,722 1017,722 1018,722 1019,722 1019,722 1020,721 1020,721 1022,721 1022,721 1024,721 1025,721 1025,721 1026,721 1027,721 1028,721 1028,721 1029,721 1030,721 1030,721 1031,721 1031,721 1032,721 1033,721 1033,721 1034,721 1035,721 1035,722 1036,722 1036,722 1037,722 1037,722 1038,722 1039,722 1040,722 1040,722 1041,722 1041,722 1042,722 1042,722 1043,722 1043,722 1044,722 1045,722 1045,722 1046,722 1046,722 1047,722 1048,722 1048,722 1049,722 1050,722 1050,722 1051,722 1052,722 1053,722 1053,722 1054,722 1054,722 1055,722 1057,722 1057,722 1058,722 1059,723 1060,723 1061,723 1061,723 1062,723 1062,723 1063,723 1063,723 1064,723 1064,723 1065,723 1065,723 1066,723 1066,723 1066,723 1067,723 1067,723 1068,723 1069,723 1069,723 1069,723 1070,723 1070,723 1070,723 1071,723 1071,723 1071,723 1072,723 1072,723 1072,723 1072,723 1073,723 1074,723 1074,723 1074,723 1075,723 1075,723 1075,723 1075,723 1076,723 1076,723 1077,723 1077,723 1077,723 1077,723 1078,723 1078,723 1078,723 1079,723 1079,723 1079,723 1080,723 1080,723 1080,723 1080,723 1081,723 1081,723 1081,723 1082,723 1082,723 1082,723 1083,723 1084,724 1084,724 1085,724 1085,724 1085,724 1086,724 1086,724 1087,724 1087,724 1088,724 1088,724 1089,724 1089,724 1089,724 1090,724 1090,724 1090,724 1091,724 1092,724 1092,724 1092,724 1092,724 1093,724 1093,724 1093,724 1094,724 1094,724 1094,724 1095,724 1095,724 1095,724 1096,724 1096,724 1096,724 1097,724 1097,724 1098,724 1098,724 1098,724 1099,724 1100,724 1100,724 1101,724 1101,724 1101,724 1102,724 1102,724 1102,724 1102,724 1103,724 1103,724 1104,724 1104,724 1104,724 1105,724 1105,724 1105,724 1106,724 1106,724 1106,724 1107,724 1107,724 1108,724 1108,724 1109,724 1109,724 1109,724 1110,724 1110,724 1111,724 1111,724 1111,724 1112,724 1112,724 1113,724 1113,724 1113,724 1114,724 1114,724 1114,724 1114,724 1115,724 1115,724 1115,724 1116,724 1116,724 1116,725 1117,725 1117,725 1118,725 1118,725 1118,725 1119,725 1120,725 1120,725 1120,725 1120,725 1121,725 1121,725 1121,725 1121,725 1122,725 1122,725 1122,725 1122,725 1123,725 1123,725 1123,725 1124,725 1124,725 1125,725 1125,725 1126,725 1126,725 1126,725 1127,725 1127,725 1127,725 1127,725 1128,725 1128,725 1128,725 1128,725 1129,725 1129,725 1129,725 1129,725 1130,725 1130,725 1131,725 1131,725 1131,725 1131,725 1133,725 1133,725 1133,725 1134,725 1134,725 1134,725 1135,725 1135,725 1136,725 1136,725 1137,725 1137,725 1137,725 1137,725 1138,725 1139,725 1139,725 1139,725 1139,725 1140,725 1140,725 1140,725 1140,725 1141,725 1141,725 1141,725 1141,725 1142,725 1142,725 1142,725 1143,725 1143,725 1144,725 1144,725 1144,725 1145,725 1145,725 1145,725 1145,725 1146,725 1146,725 1147,725 1147,725 1147,725 1147,725 1148,725 1148,725 1148,725 1149,725 1149,725 1150,725 1150,725 1150,725 1150,725 1153,725 1153,726 1154,726 1154,726 1154,726 1155,726 1155,726 1155,726 1156,726 1156,726 1157,726 1157,726 1157,726 1157,726 1158,726 1158,726 1158,726 1159,726 1159,726 1159,726 1159,726 1160,726 1160,726 1160,726 1161,726 1161,726 1161,726 1161,726 1162,726 1162,726 1162,726 1163,726 1163,726 1163,726 1164,726 1164,726 1165,726 1165,726 1165,726 1166,726 1166,726 1166,726 1166,726 1167,726 1167,726 1167,726 1167,726 1168,726 1168,726 1168,726 1169,726 1170,726 1170,726 1170,726 1170,726 1171,726 1171,726 1171,726 1171,726 1172,726 1173,726 1173,726 1173,726 1173,726 1174,726 1174,726 1174,726 1175,726 1175,726 1176,726 1176,726 1176,726 1177,726 1177,726 1178,726 1178,726 1178,726 1178,726 1179,726 1179,726 1179,726 1180,726 1180,726 1180,726 1180,726 1181,726 1181,726 1182,726 1182,726 1183,726 1183,726 1183,726 1184,726 1184,726 1184,726 1184,726 1185,726 1185,726 1185,726 1185,726 1186,726 1186,726 1186,726 1187,726 1187,726 1187,726 1187,726 1188,726 1188,726 1188,726 1189,726 1189,726 1190,726 "/>
<polyline fill="none" opacity="1" stroke="#BDE619" stroke-width="2" points="128,735 153,732 173,729 175,726 187,724 194,718 195,722 198,719 204,717 205,714 208,712 214,709 218,707 222,705 226,703 231,701 234,699 234,697 235,694 236,692 237,689 237,687 240,685 241,678 243,676 246,672 247,670 249,665 256,665 258,663 260,661 260,659 261,657 263,655 264,651 269,651 270,649 271,647 272,645 274,644 275,642 276,640 276,638 277,636 281,635 283,634 283,630 284,629 285,627 288,624 288,622 292,622 294,619 297,619 298,615 299,614 299,610 300,608 301,607 301,608 303,606 303,605 304,603 305,602 307,601 308,601 309,600 310,598 311,599 312,597 312,596 313,593 316,593 320,593 321,592 322,594 323,593 325,592 326,591 327,590 327,591 328,590 328,588 329,587 329,587 330,586 331,583 332,582 333,582 335,583 336,583 337,583 337,584 338,584 339,581 339,581 340,578 340,579 341,578 342,578 342,578 343,578 344,577 347,577 347,578 348,578 348,578 349,579 349,579 352,578 352,577 353,578 353,578 354,576 354,577 355,577 355,576 356,576 356,576 357,576 357,577 358,574 359,574 359,574 360,575 360,575 361,574 361,573 362,571 363,569 363,568 364,568 364,566 365,565 365,566 366,563 368,564 368,564 369,561 369,559 370,559 370,559 372,557 372,555 373,553 374,553 376,555 376,550 377,549 377,547 378,545 379,543 380,543 381,543 381,542 382,540 383,539 383,539 384,540 385,538 385,537 386,537 386,535 387,534 387,533 388,531 389,532 390,531 390,530 391,530 391,531 392,530 392,529 393,528 393,528 394,528 395,527 395,527 396,524 397,525 398,524 398,521 399,520 399,521 400,520 400,518 401,518 401,518 402,517 403,385 404,383 405,384 405,382 406,380 406,380 407,379 408,380 408,379 409,380 409,376 410,375 411,375 411,373 412,372 412,370 413,368 413,365 414,366 414,365 415,365 415,364 416,364 416,366 417,364 417,365 418,364 418,363 419,361 419,359 420,357 420,357 421,355 421,350 422,350 422,349 424,347 424,346 425,327 426,327 426,326 427,326 428,326 428,326 429,326 429,327 430,328 430,328 432,328 432,328 433,327 433,328 434,328 434,327 435,328 435,328 436,325 437,324 437,322 438,324 439,323 439,324 440,323 440,321 441,320 441,320 442,319 442,319 443,319 443,319 444,318 445,319 445,318 446,317 447,316 447,314 448,311 448,312 449,312 450,313 450,312 451,312 451,312 452,313 452,312 453,307 454,308 454,308 455,308 455,308 456,307 456,308 457,308 457,309 458,309 458,307 459,308 459,308 460,308 460,309 461,308 461,308 462,307 463,307 463,307 464,307 464,306 465,307 465,308 466,309 467,307 467,307 468,305 468,306 469,307 469,305 470,305 470,301 471,302 471,301 472,302 472,301 473,299 473,299 474,300 474,297 475,295 476,293 476,292 477,290 477,289 478,288 478,288 479,286 479,286 480,285 480,284 481,284 481,282 482,283 482,281 483,278 483,278 484,277 484,275 485,274 485,274 486,273 486,271 487,270 487,271 488,270 489,270 489,271 490,271 490,271 491,270 491,269 492,268 492,269 493,268 493,268 494,266 494,266 495,266 495,262 496,262 496,263 497,263 497,263 498,264 498,262 499,263 499,263 500,262 500,261 501,261 502,261 502,259 503,255 503,253 504,252 504,251 505,253 506,252 506,252 507,251 507,250 508,250 508,248 509,246 509,246 510,244 510,243 511,243 511,241 512,241 512,240 513,239 513,240 514,240 515,239 515,237 516,238 516,236 517,235 517,235 518,233 518,233 519,233 519,233 520,232 520,232 521,229 521,230 522,230 522,230 523,231 523,231 524,230 524,230 525,231 525,231 526,227 526,228 527,228 528,226 528,222 529,222 529,222 530,221 530,223 531,224 531,222 532,224 532,223 533,224 533,223 534,225 534,224 535,223 535,223 536,224 536,223 537,220 537,220 538,220 538,219 539,220 539,218 540,219 541,217 541,217 542,217 542,216 543,216 543,217 544,217 544,217 545,216 545,214 546,213 546,211 547,210 547,209 548,208 548,207 549,207 549,208 550,206 550,207 551,208 551,208 552,207 552,208 553,209 554,209 554,210 555,210 555,209 556,208 556,208 557,209 557,208 558,208 558,208 559,206 559,205 560,205 560,204 561,205 561,205 562,205 562,204 563,204 563,201 564,199 564,198 565,198 565,198 566,197 567,196 567,195 568,196 568,197 569,196 569,196 570,196 570,195 571,195 571,195 572,195 572,194 573,194 573,195 574,195 574,195 575,194 575,194 576,193 576,192 577,191 577,192 578,191 578,191 579,191 580,191 580,190 581,190 581,191 582,190 582,191 583,190 583,191 584,191 584,189 585,189 585,188 586,188 586,187 587,188 587,189 588,190 588,190 589,190 589,190 590,187 590,188 591,188 591,189 592,188 593,188 593,188 594,187 594,187 595,187 595,185 596,185 596,185 597,183 597,184 598,184 598,185 599,186 599,185 600,185 600,184 601,184 601,174 602,172 602,170 603,171 603,171 604,170 604,171 605,171 606,169 606,168 607,168 607,167 608,167 608,166 609,165 609,165 610,165 610,163 611,163 611,164 612,165 612,166 613,164 613,165 614,165 614,165 615,163 615,163 616,163 616,162 617,161 617,161 618,161 619,158 619,158 620,157 620,156 621,155 621,156 622,156 622,157 623,158 623,158 624,158 624,159 625,158 625,157 626,158 626,158 627,157 627,158 628,158 628,157 629,157 629,157 630,157 630,157 631,158 632,155 632,156 633,155 633,156 634,157 634,157 635,155 635,155 636,156 636,156 637,156 637,156 638,156 638,156 639,156 639,155 640,154 640,155 641,152 641,150 642,150 642,150 643,150 643,148 644,147 645,148 645,146 646,147 646,148 647,148 647,145 648,145 648,145 649,145 649,146 650,146 650,147 651,146 651,146 652,147 652,147 653,146 653,146 654,146 654,146 655,147 655,148 656,148 656,148 657,149 658,147 658,149 659,148 659,148 660,146 660,147 661,147 661,147 662,146 662,146 663,146 663,145 664,145 664,144 665,142 665,142 666,144 666,145 667,144 667,134 668,134 668,132 669,132 669,132 670,131 671,130 671,130 672,130 672,129 673,128 673,127 674,125 674,124 675,123 675,122 676,122 676,121 677,121 677,121 678,122 678,123 679,122 679,123 680,122 680,122 681,122 681,119 682,119 682,119 683,118 684,117 684,118 685,118 685,118 686,116 686,116 687,117 687,116 688,114 688,113 689,115 689,115 690,115 690,116 691,116 691,116 692,117 692,115 693,115 693,116 694,117 694,116 695,116 695,116 696,116 697,114 697,114 698,114 698,114 699,112 699,111 700,112 700,113 701,113 701,113 702,113 702,112 703,113 703,113 704,113 704,112 705,112 705,113 706,114 706,114 707,113 707,113 708,113 708,113 709,113 710,112 710,112 711,113 711,113 712,114 712,114 713,115 713,116 714,116 714,117 715,117 715,117 716,117 716,117 717,117 717,116 718,116 718,115 719,114 719,114 720,115 720,115 721,115 721,115 722,114 723,114 723,114 724,115 724,113 725,113 725,113 726,113 726,113 727,114 727,113 728,113 728,112 729,111 729,112 730,111 730,111 731,111 731,110 732,110 732,110 733,109 733,110 734,110 734,110 735,109 736,109 736,108 737,108 737,107 738,107 738,107 739,104 739,104 740,105 740,105 741,105 741,105 742,104 742,103 743,103 743,102 744,103 744,103 745,103 745,101 746,100 746,99 747,100 747,99 748,100 749,100 749,98 750,97 750,97 751,97 751,96 752,96 752,97 753,97 753,96 754,97 754,97 755,97 755,95 756,95 756,95 757,96 757,95 758,95 758,95 759,95 759,95 760,96 760,97 761,98 762,98 762,98 763,99 763,98 764,99 764,99 765,102 765,102 766,102 766,102 767,101 767,101 768,102 768,102 769,102 769,103 770,103 770,104 771,105 771,106 772,106 772,105 773,105 773,105 774,109 775,110 775,110 776,110 776,110 777,113 777,113 778,114 778,114 779,115 779,114 780,113 780,112 781,112 781,112 782,112 782,110 783,110 783,109 784,110 784,111 785,111 785,111 786,111 786,110 787,109 788,108 788,109 789,109 789,107 790,109 790,108 791,108 791,108 791,106 792,106 792,106 793,107 793,106 794,105 794,106 795,106 795,105 796,105 796,105 797,106 797,105 798,105 798,106 799,107 799,107 800,95 801,101 801,95 802,95 802,94 803,95 803,95 804,97 804,95 805,93 805,94 806,94 806,94 807,95 807,94 808,94 808,94 809,93 809,93 810,93 810,94 811,94 811,94 812,94 812,94 813,94 814,92 814,93 815,93 815,92 816,92 816,93 817,92 817,92 818,91 818,91 819,91 819,91 820,91 820,91 821,91 821,92 822,91 822,91 823,92 823,91 824,91 824,91 825,91 825,92 826,91 827,92 827,91 828,91 828,91 829,90 829,90 830,91 830,92 831,91 831,92 832,93 832,92 833,93 833,93 834,93 834,93 835,93 835,94 836,93 836,93 837,93 837,93 838,93 838,93 839,93 840,95 840,94 841,93 841,92 842,91 842,89 843,89 843,90 844,89 844,88 845,111 845,112 846,112 846,87 847,87 847,87 848,87 848,88 849,88 849,87 850,87 850,86 851,87 851,87 852,88 853,86 853,85 854,86 854,86 855,86 855,86 856,86 856,86 857,86 857,86 858,87 858,87 859,87 859,87 860,87 860,87 861,87 861,88 862,88 862,87 863,86 863,87 864,87 864,88 865,87 866,87 866,87 867,88 867,89 868,89 868,89 869,89 869,90 870,90 870,89 871,90 871,90 872,89 872,89 873,89 873,90 874,89 874,88 875,89 875,89 876,88 876,88 877,89 877,89 878,88 879,89 879,89 880,90 880,90 881,90 881,90 882,90 882,90 883,90 883,89 884,90 884,89 885,89 885,88 886,87 886,88 887,88 887,88 888,88 888,88 889,87 889,88 890,88 890,87 891,87 892,87 892,87 893,88 893,88 894,88 894,88 895,88 895,88 896,89 896,89 897,88 897,89 898,89 898,88 899,88 899,87 900,87 900,87 901,85 901,85 902,85 902,85 903,85 903,85 904,84 905,84 905,86 906,86 906,87 907,87 907,88 908,88 908,89 909,89 909,89 910,90 910,91 911,91 911,91 912,90 912,88 913,89 913,89 914,88 914,89 915,88 915,88 916,88 916,88 917,88 918,87 918,88 919,87 919,87 920,87 920,86 921,86 921,86 922,86 922,86 923,86 923,86 924,86 924,86 925,85 925,86 926,85 926,85 927,85 927,85 928,85 928,85 929,84 929,85 930,85 931,86 931,86 932,84 932,84 933,83 933,83 934,83 934,83 935,83 935,85 936,85 936,85 937,86 937,79 938,79 938,80 939,79 939,79 940,78 940,78 941,78 941,78 942,77 942,77 943,76 944,76 944,77 945,76 945,75 946,76 946,76 947,75 947,76 948,76 948,77 949,77 949,77 950,76 950,78 951,78 951,78 952,79 952,78 953,78 953,78 954,79 954,79 955,79 955,79 956,79 957,79 957,79 958,78 958,77 959,77 959,78 960,77 960,77 961,78 961,79 962,78 962,78 963,78 963,78 964,78 964,78 965,79 965,79 966,79 966,80 967,80 967,80 968,81 968,81 969,82 970,82 970,81 971,81 971,81 972,81 972,81 973,81 973,81 974,81 974,81 975,81 975,81 976,81 976,80 977,80 977,80 978,82 978,82 979,82 979,83 980,83 980,83 981,84 981,84 982,84 983,84 983,85 984,84 984,84 985,84 985,84 986,84 986,85 987,86 987,85 988,84 988,84 989,84 989,85 990,85 990,85 991,86 991,85 991,85 992,86 992,87 993,87 993,86 994,87 994,87 995,88 996,88 996,88 997,88 997,88 998,89 998,88 999,88 999,88 1000,88 1000,89 1001,88 1001,88 1002,88 1002,89 1003,88 1003,88 1004,88 1004,87 1005,87 1005,87 1006,88 1006,88 1007,86 1007,86 1008,87 1009,87 1009,87 1010,87 1010,87 1011,87 1011,88 1012,88 1012,88 1013,87 1013,87 1014,87 1014,87 1015,87 1015,88 1016,87 1016,88 1017,88 1017,89 1018,89 1018,89 1019,89 1019,90 1020,90 1020,90 1021,90 1022,90 1022,91 1023,91 1023,92 1024,92 1024,92 1025,93 1025,94 1026,93 1026,93 1027,91 1027,91 1028,91 1028,91 1029,92 1029,91 1030,91 1030,92 1031,93 1031,93 1032,93 1032,93 1033,93 1033,93 1034,94 1035,94 1035,93 1036,94 1036,94 1037,93 1037,92 1038,93 1038,93 1039,94 1039,94 1040,95 1040,95 1041,95 1041,94 1042,95 1042,95 1043,95 1043,95 1044,95 1044,94 1045,94 1045,94 1046,93 1046,94 1047,94 1048,94 1048,94 1049,95 1049,95 1050,95 1050,95 1051,94 1051,94 1052,95 1052,95 1053,95 1053,95 1054,94 1054,94 1055,94 1055,94 1056,94 1056,94 1057,94 1057,94 1058,95 1058,95 1059,94 1059,94 1060,94 1061,95 1061,95 1062,96 1062,96 1063,96 1063,96 1064,96 1064,96 1065,96 1065,97 1065,97 1065,97 1066,96 1066,96 1066,95 1067,95 1067,96 1067,96 1068,96 1068,96 1068,96 1068,96 1069,96 1069,96 1069,96 1069,96 1070,96 1070,95 1070,95 1070,95 1071,95 1071,95 1071,95 1071,94 1072,94 1072,94 1072,94 1072,93 1073,93 1074,93 1074,94 1074,94 1075,94 1075,94 1075,94 1075,95 1076,95 1076,95 1076,95 1076,95 1077,95 1077,95 1077,95 1077,96 1078,96 1078,96 1078,95 1079,95 1079,95 1079,96 1079,96 1080,96 1080,96 1080,96 1080,96 1081,96 1081,96 1081,96 1081,96 1082,96 1082,96 1082,96 1082,95 1083,95 1083,95 1083,96 1084,96 1084,96 1084,96 1084,96 1085,96 1085,97 1085,97 1085,97 1086,97 1086,97 1087,97 1087,97 1087,97 1087,97 1088,97 1088,97 1088,97 1088,97 1089,97 1089,98 1089,98 1090,98 1090,98 1090,98 1091,98 1091,99 1091,99 1091,98 1092,98 1092,98 1092,98 1092,98 1093,98 1093,98 1093,98 1093,98 1094,98 1094,98 1094,98 1094,98 1095,98 1095,98 1095,97 1096,97 1096,97 1096,97 1096,97 1097,97 1097,97 1097,97 1097,97 1098,97 1098,97 1098,98 1099,98 1099,98 1100,98 1100,97 1100,97 1100,97 1101,97 1101,98 1101,98 1101,97 1102,97 1102,98 1102,98 1102,98 1103,98 1103,98 1103,98 1103,98 1104,98 1104,98 1104,98 1104,98 1105,98 1105,98 1105,98 1105,98 1106,98 1106,97 1106,97 1106,97 1107,97 1107,98 1107,98 1107,97 1108,97 1108,97 1108,98 1109,98 1109,98 1109,98 1109,97 1110,97 1110,96 1110,96 1110,97 1111,97 1111,96 1111,96 1111,96 1112,96 1112,97 1113,97 1113,97 1113,97 1114,97 1114,97 1114,97 1114,96 1115,96 1115,95 1115,95 1115,96 1116,96 1116,96 1116,96 1117,96 1117,96 1117,96 1118,96 1118,96 1118,96 1119,96 1119,95 1119,95 1119,94 1120,94 1120,94 1120,94 1120,95 1121,95 1121,95 1121,95 1121,95 1122,95 1122,95 1122,95 1122,95 1123,95 1123,95 1123,95 1124,95 1124,95 1124,95 1124,95 1125,95 1125,95 1126,95 1126,95 1126,95 1126,95 1127,95 1127,96 1127,96 1127,95 1128,95 1128,95 1128,95 1128,94 1129,94 1129,94 1129,94 1129,94 1130,94 1130,94 1130,94 1130,88 1131,88 1131,88 1131,88 1131,88 1132,89 1132,89 1132,89 1133,89 1133,89 1133,89 1133,89 1134,89 1134,89 1134,89 1134,89 1135,89 1135,88 1135,88 1135,89 1136,89 1136,89 1136,89 1137,89 1137,90 1137,90 1137,90 1138,90 1138,89 1139,89 1139,89 1139,89 1139,89 1140,89 1140,90 1140,90 1140,90 1141,90 1141,89 1141,89 1141,89 1142,89 1142,89 1142,89 1142,90 1143,90 1143,89 1143,89 1143,90 1144,90 1144,90 1144,90 1144,90 1145,90 1145,90 1145,90 1145,89 1146,90 1146,90 1146,92 1147,92 1147,92 1147,92 1147,92 1148,92 1148,92 1148,92 1148,93 1149,93 1149,94 1149,94 1149,93 1150,93 1150,93 1150,93 1150,93 1151,93 1151,94 1152,94 1152,94 1152,94 1152,94 1153,94 1153,95 1153,95 1153,95 1154,95 1154,95 1154,95 1154,96 1155,96 1155,96 1155,96 1155,96 1156,96 1156,96 1156,96 1156,97 1157,97 1157,97 1157,97 1157,96 1158,96 1158,96 1158,96 1158,96 1159,96 1159,96 1159,96 1159,95 1160,95 1160,95 1160,94 1161,94 1161,94 1161,94 1161,94 1162,94 1162,94 1162,94 1163,94 1163,93 1163,93 1163,94 1164,94 1164,94 1165,94 1165,94 1165,94 1165,94 1166,94 1166,94 1166,94 1166,94 1167,94 1167,94 1167,94 1167,94 1168,94 1168,94 1168,94 1169,94 1169,94 1169,94 1169,94 1170,94 1170,94 1170,94 1170,94 1171,94 1171,94 1171,94 1171,95 1172,95 1172,94 1172,94 1172,94 1173,94 1173,94 1173,94 1173,93 1174,93 1174,93 1174,93 1174,93 1175,93 1175,93 1175,93 1175,93 1176,93 1176,94 1176,94 1176,93 1177,93 1177,93 1178,93 1178,94 1178,94 1178,95 1179,95 1179,95 1179,95 1179,94 1180,94 1180,95 1180,95 1180,95 1181,95 1181,95 1181,95 1181,96 1182,96 1182,96 1182,96 1182,95 1183,95 1183,95 1183,95 1183,96 1184,96 1184,96 1184,96 1184,96 1185,96 1185,96 1185,96 1185,96 1186,96 1186,96 1186,96 1186,96 1187,96 1187,95 1187,95 1187,95 1188,95 1188,96 1188,96 1188,96 1189,96 1189,96 1190,96 "/>
<polyline fill="none" opacity="1" stroke="#19E66B" stroke-width="2" points="60,647 60,659 61,671 69,688 75,656 75,643 81,639 84,624 88,612 92,612 94,606 95,644 95,638 99,641 103,631 108,631 109,626 116,627 119,624 120,630 123,633 135,633 139,627 140,624 141,625 142,626 144,623 146,625 147,626 148,627 148,627 151,625 152,630 153,631 153,631 154,627 154,624 155,625 155,625 156,619 157,609 157,609 158,610 158,607 159,607 159,608 160,608 160,609 161,609 161,610 162,606 162,607 163,608 164,608 165,609 166,609 166,610 167,607 167,608 168,608 168,609 169,605 169,602 170,603 171,604 171,604 172,598 172,598 173,599 174,599 174,593 175,590 175,591 177,591 177,589 178,589 178,590 179,590 179,591 180,591 180,591 181,591 181,592 182,590 184,591 185,591 185,591 186,596 187,593 188,594 188,591 189,589 190,586 190,586 191,587 192,588 193,589 194,589 194,587 195,587 195,588 196,589 197,586 198,584 199,585 200,586 200,586 201,584 201,584 202,584 203,585 204,586 204,586 205,586 205,587 206,587 207,588 207,583 208,580 208,581 209,581 210,581 210,581 211,582 211,582 212,583 212,580 213,581 214,581 214,581 216,571 217,572 218,570 219,568 219,568 220,568 220,569 221,569 221,567 222,567 222,567 223,568 223,568 224,568 224,568 225,569 226,569 227,570 227,570 228,568 229,568 229,569 230,569 230,569 231,570 231,570 232,570 233,569 233,570 234,570 234,568 235,569 236,569 236,569 237,569 237,570 238,570 238,571 239,571 240,571 240,572 241,572 242,572 242,568 243,568 245,569 245,569 246,569 246,567 247,568 247,568 248,569 249,569 250,568 250,563 251,563 251,564 252,555 252,555 253,556 253,551 254,552 255,553 255,553 256,553 257,554 257,554 258,554 259,555 259,555 260,553 260,551 261,549 261,550 262,550 262,548 263,549 263,549 264,550 264,548 265,548 266,549 266,549 267,550 268,550 268,551 269,549 269,550 270,550 270,550 271,550 271,551 272,551 272,551 273,550 273,550 274,550 274,550 275,551 275,549 276,549 276,550 277,550 277,551 278,551 278,551 279,551 279,552 280,552 281,553 281,553 282,553 282,554 283,550 283,551 284,551 284,551 285,548 285,546 286,546 286,546 287,547 287,545 288,544 288,546 289,547 289,547 290,546 290,544 291,543 291,541 292,542 292,538 293,538 294,539 294,539 295,539 295,540 296,540 297,539 297,539 298,540 298,538 299,539 300,538 300,539 301,539 301,540 302,540 302,540 303,541 303,538 304,538 304,538 305,539 305,537 306,537 307,538 307,538 308,536 308,537 309,536 309,536 310,536 310,537 311,537 311,535 312,534 312,534 313,535 313,535 314,536 314,536 315,535 315,536 316,534 316,535 317,535 317,536 318,537 318,537 319,537 320,537 320,538 321,538 321,538 322,539 322,539 323,539 323,540 324,540 324,539 325,539 325,539 326,539 326,536 327,537 327,535 329,536 329,537 330,535 330,536 331,535 331,533 332,534 333,532 333,533 334,534 334,534 335,535 335,535 336,535 336,536 337,536 337,535 338,535 338,535 339,536 339,534 340,533 340,533 341,534 341,534 342,533 342,533 343,533 343,534 344,533 344,533 345,533 346,534 346,534 347,532 348,532 349,533 349,533 350,534 350,532 351,533 351,533 352,533 352,532 353,533 354,533 354,533 355,534 355,534 356,533 356,533 357,534 357,534 358,534 359,535 359,535 360,536 360,536 361,536 361,535 362,536 362,536 363,536 363,537 364,537 364,537 365,539 365,538 366,537 366,539 367,539 367,540 368,540 368,538 369,539 369,539 370,539 370,538 371,538 372,539 372,539 373,539 373,539 374,540 374,539 375,539 375,538 376,538 376,538 377,539 377,538 378,538 378,538 379,539 379,539 380,539 380,540 381,540 381,541 382,541 382,540 383,540 383,539 384,537 385,537 385,537 386,537 386,538 387,538 387,538 388,539 388,539 389,539 389,539 390,540 390,540 391,540 391,539 392,540 392,539 393,539 393,540 394,540 394,539 395,538 395,537 396,538 396,538 397,539 398,539 398,538 399,537 399,537 400,537 400,538 401,538 401,538 402,539 402,539 403,540 403,544 404,544 404,545 405,544 405,544 406,544 406,545 407,545 407,544 408,544 408,545 409,544 409,544 410,544 411,545 411,545 412,545 412,546 413,546 414,546 414,547 415,547 415,547 416,545 416,546 417,547 417,547 418,547 418,547 419,549 419,549 420,548 420,549 421,549 421,550 422,551 422,551 423,551 424,550 424,550 425,550 425,551 426,551 426,550 427,550 427,551 428,551 428,551 429,551 429,549 430,549 430,550 431,549 431,549 432,549 432,549 433,550 433,550 434,550 434,551 435,551 435,551 436,552 437,552 437,551 438,551 438,551 439,552 439,552 440,551 440,553 441,553 441,553 442,553 442,552 443,553 443,553 444,553 444,552 445,552 445,552 446,551 446,551 447,551 447,552 448,552 448,551 449,551 450,551 450,552 451,552 451,552 452,551 452,551 453,550 453,551 454,551 454,551 455,552 455,552 456,552 457,552 457,553 458,553 458,553 459,554 459,554 460,552 460,553 461,553 461,553 462,554 463,554 463,552 464,552 464,551 465,551 465,550 466,548 466,549 467,549 467,549 468,549 468,550 469,549 469,550 470,550 470,550 471,549 471,550 472,550 472,550 473,552 473,552 474,552 474,553 475,553 476,554 476,554 477,554 477,554 478,554 478,554 479,555 479,555 480,555 480,556 481,556 481,556 482,556 482,558 483,558 483,557 484,557 484,557 485,557 485,558 486,558 486,558 487,558 487,559 488,558 489,558 489,559 490,559 490,559 491,560 491,560 492,560 492,560 493,560 493,560 494,561 494,562 495,563 495,563 496,564 496,565 497,565 497,563 498,565 498,565 499,565 499,565 500,566 500,566 501,566 502,566 502,566 503,566 503,567 504,568 504,568 505,568 505,569 506,569 506,569 507,570 507,570 508,571 508,571 509,571 509,571 510,571 510,571 511,570 511,570 512,570 512,570 513,570 513,571 514,571 515,571 515,571 516,572 516,572 517,572 517,572 518,572 518,572 519,572 519,573 520,572 520,572 521,573 521,573 522,573 522,573 523,574 523,574 524,574 524,574 525,574 525,575 526,575 526,576 527,576 528,574 528,575 529,576 529,576 530,576 530,575 531,575 531,574 532,575 532,574 533,574 533,573 534,575 534,575 535,575 535,575 536,576 536,577 537,577 537,576 538,576 538,576 539,576 539,577 540,577 541,578 541,579 542,578 542,578 543,579 543,579 544,579 544,580 545,580 545,579 546,580 546,580 547,580 547,580 548,580 548,580 549,580 549,581 550,580 550,581 551,581 551,581 552,581 552,582 553,581 554,581 554,582 555,582 555,582 556,582 556,582 557,582 557,582 558,582 558,583 559,583 559,583 560,583 560,583 561,583 561,584 562,584 562,584 563,584 563,585 564,585 564,585 565,586 565,586 566,586 567,586 567,586 568,587 568,587 569,587 569,587 570,587 570,587 571,587 571,587 572,588 572,588 573,588 573,588 574,589 574,589 575,589 575,589 576,589 576,589 577,590 577,590 578,590 578,590 579,590 580,590 580,590 581,591 581,591 582,591 582,591 583,591 583,591 584,592 584,592 585,592 585,592 586,592 586,593 587,593 587,593 588,593 588,593 589,593 589,593 590,593 590,594 591,594 591,594 592,593 593,594 593,594 594,593 594,594 595,595 595,594 596,594 596,594 597,594 597,595 598,595 598,595 599,595 599,595 600,596 600,596 601,596 601,597 602,597 602,597 603,597 603,597 604,598 604,598 605,598 606,597 606,598 607,598 607,598 608,598 608,598 609,599 609,599 610,600 610,600 611,600 611,601 612,601 612,601 613,601 613,600 614,600 614,600 615,600 615,600 616,601 616,601 617,601 617,601 618,602 619,602 619,602 620,602 620,602 621,603 621,603 622,603 622,603 623,604 623,604 624,604 624,604 625,604 625,605 626,605 626,605 627,604 627,605 628,605 628,605 629,605 630,605 630,606 631,605 632,605 632,605 633,605 633,606 634,606 634,606 635,607 635,607 636,607 636,607 637,606 637,606 638,606 638,606 639,607 639,607 640,607 640,607 641,608 641,608 642,608 642,608 643,608 643,608 644,608 645,608 645,608 646,608 646,608 647,608 647,608 648,608 648,609 649,609 649,608 650,608 650,609 651,609 651,609 652,609 652,609 653,609 653,609 654,609 654,609 655,609 655,609 656,609 656,609 657,608 658,609 658,609 659,609 659,609 660,610 660,610 661,610 661,610 662,610 662,610 663,610 663,611 664,611 664,611 665,610 665,611 666,611 666,611 667,611 667,612 668,612 668,612 669,612 669,612 670,613 671,613 671,613 672,613 672,613 673,614 673,614 674,614 674,614 675,614 675,614 676,614 676,614 677,615 677,615 678,614 678,615 679,615 679,615 680,615 680,615 681,616 681,616 682,616 682,616 683,616 684,616 684,616 685,616 685,616 686,616 686,616 687,617 687,617 688,617 688,617 689,617 689,617 690,617 690,617 691,617 691,618 692,618 692,618 693,618 693,618 694,618 694,619 695,619 695,619 696,619 697,620 697,620 698,620 698,620 699,620 699,621 700,620 700,621 701,621 701,621 702,621 702,621 703,621 703,621 704,621 704,621 705,621 705,622 706,621 706,621 707,622 707,622 708,622 708,623 709,623 710,623 710,623 711,623 711,623 712,623 712,623 713,624 713,624 714,624 714,624 715,624 715,625 716,625 716,625 717,625 717,625 718,624 718,624 719,624 719,625 720,625 720,625 721,626 721,626 722,626 723,625 723,625 724,625 724,626 725,626 725,626 726,626 726,626 727,626 727,626 728,626 728,626 729,626 729,626 730,627 730,627 731,627 731,627 732,627 732,627 733,627 733,627 734,627 734,628 735,627 736,627 736,627 737,628 737,628 738,628 738,628 739,628 739,628 740,628 740,628 741,629 741,629 742,628 742,628 743,628 743,629 744,629 744,628 745,628 745,629 746,629 746,629 747,629 747,629 748,628 749,628 749,628 750,628 750,629 751,628 751,628 752,629 752,629 753,629 753,629 754,629 754,629 755,629 755,629 756,629 756,630 757,630 757,629 758,629 758,629 759,630 759,630 760,630 760,630 761,630 762,630 762,630 763,630 763,630 764,630 764,631 765,631 765,631 766,632 766,632 767,632 767,631 768,632 768,632 769,632 769,632 770,632 770,632 771,632 771,632 772,632 772,632 773,632 773,632 774,633 775,633 775,633 776,633 776,634 777,634 777,634 778,634 778,635 779,635 779,635 780,635 780,635 781,635 781,635 782,636 782,636 783,636 783,636 784,636 784,637 785,637 785,637 786,637 786,637 787,637 788,636 788,636 789,637 789,637 790,637 790,637 791,637 791,637 791,637 792,637 792,637 793,637 793,637 794,637 794,637 795,637 795,637 796,637 796,638 797,638 797,638 798,638 798,638 799,638 799,638 800,638 801,639 801,638 802,638 802,638 803,639 803,639 804,639 804,639 805,639 805,639 806,639 806,639 807,639 807,639 808,639 808,639 809,639 809,639 810,639 810,639 811,640 811,640 812,640 812,640 813,640 814,640 814,639 815,639 815,640 816,640 816,640 817,640 817,640 818,640 818,640 819,640 819,640 820,640 820,640 821,640 821,640 822,640 822,640 823,640 823,640 824,641 824,641 825,641 825,641 826,641 827,641 827,641 828,641 828,641 829,641 829,641 830,641 830,641 831,641 831,641 832,641 832,641 833,641 833,641 834,641 834,641 835,641 835,641 836,641 836,642 837,642 837,642 838,642 838,642 839,642 840,642 840,642 841,642 841,642 842,642 842,643 843,643 843,643 844,643 844,644 845,647 845,647 846,647 846,644 847,644 847,644 848,644 848,644 849,644 849,644 850,644 850,644 851,644 851,644 852,645 853,645 853,645 854,645 854,645 855,645 855,645 856,645 856,645 857,645 857,646 858,646 858,646 859,646 859,646 860,646 860,646 861,647 861,647 862,647 862,647 863,647 863,647 864,647 864,647 865,647 866,647 866,647 867,648 867,648 868,648 868,648 869,648 869,648 870,648 870,649 871,649 871,649 872,649 872,649 873,649 873,649 874,649 874,649 875,649 875,649 876,650 876,650 877,650 877,650 878,650 879,650 879,650 880,650 880,650 881,650 881,651 882,651 882,651 883,651 883,651 884,651 884,651 885,651 885,651 886,652 886,651 887,651 887,652 888,652 888,652 889,652 889,652 890,652 890,652 891,652 892,652 892,652 893,653 893,653 894,653 894,653 895,653 895,653 896,653 896,653 897,653 897,653 898,653 898,653 899,654 899,654 900,654 900,654 901,654 901,654 902,654 902,654 903,654 903,654 904,654 905,655 905,655 906,655 906,655 907,655 907,656 908,656 908,656 909,656 909,656 910,656 910,656 911,656 911,656 912,656 912,656 913,656 913,657 914,657 914,657 915,657 915,657 916,657 916,657 917,657 918,657 918,657 919,657 919,657 920,657 920,658 921,658 921,658 922,658 922,658 923,658 923,658 924,658 924,658 925,658 925,658 926,659 926,659 927,659 927,659 928,659 928,659 929,659 929,660 930,660 931,660 931,660 932,660 932,660 933,660 933,660 934,660 934,660 935,660 935,660 936,660 936,660 937,660 937,661 938,661 938,661 939,661 939,661 940,661 940,661 941,661 941,661 942,661 942,661 943,662 944,662 944,662 945,662 945,662 946,662 946,662 947,663 947,663 948,663 948,663 949,663 949,663 950,663 950,664 951,664 951,664 952,664 952,664 953,664 953,664 954,664 954,664 955,664 955,664 956,664 957,664 957,665 958,665 958,665 959,665 959,665 960,665 960,665 961,665 961,665 962,665 962,665 963,665 963,665 964,665 964,665 965,665 965,665 966,665 966,665 967,665 967,666 968,666 968,666 969,666 970,666 970,666 971,666 971,666 972,666 972,667 973,667 973,667 974,667 974,667 975,667 975,667 976,667 976,667 977,667 977,667 978,667 978,668 979,668 979,668 980,668 980,668 981,668 981,668 982,668 983,668 983,668 984,668 984,668 985,668 985,669 986,669 986,669 987,669 987,669 988,669 988,669 989,669 989,669 990,669 990,669 991,669 991,669 991,669 992,669 992,669 993,669 993,669 994,669 994,669 995,670 996,670 996,670 997,670 997,670 998,670 998,670 999,670 999,670 1000,670 1000,670 1001,670 1001,670 1002,671 1002,671 1003,671 1003,671 1004,671 1004,671 1005,671 1005,671 1006,671 1006,671 1007,672 1007,672 1008,672 1009,672 1009,673 1010,673 1010,673 1011,673 1011,673 1012,673 1012,673 1013,673 1013,673 1014,673 1014,673 1015,673 1015,673 1016,673 1016,673 1017,674 1017,674 1018,673 1018,674 1019,674 1019,674 1020,674 1020,674 1021,674 1022,674 1022,674 1023,674 1023,674 1024,674 1024,674 1025,674 1025,675 1026,675 1026,675 1027,675 1027,675 1028,675 1028,675 1029,675 1029,675 1030,675 1030,675 1031,675 1031,676 1032,676 1032,676 1033,676 1033,676 1034,676 1035,676 1035,676 1036,677 1036,676 1037,676 1037,676 1038,676 1038,676 1039,676 1039,676 1040,676 1040,677 1041,677 1041,677 1042,677 1042,677 1043,677 1043,677 1044,677 1044,677 1045,677 1045,677 1046,677 1046,677 1047,677 1048,678 1048,678 1049,678 1049,678 1050,678 1050,678 1051,678 1051,678 1052,678 1052,678 1053,678 1053,678 1054,678 1054,679 1055,679 1055,679 1056,679 1056,679 1057,679 1057,679 1058,679 1058,679 1059,679 1059,679 1060,679 1061,680 1061,680 1062,680 1062,680 1063,680 1063,680 1064,680 1064,680 1065,680 1065,680 1065,680 1065,680 1066,680 1066,680 1066,681 1067,681 1067,681 1067,680 1068,680 1068,680 1068,680 1068,681 1069,681 1069,681 1069,681 1069,681 1070,681 1070,681 1070,681 1070,681 1071,681 1071,681 1071,681 1071,681 1072,681 1072,681 1072,681 1072,682 1073,682 1074,682 1074,682 1074,682 1075,682 1075,682 1075,682 1075,682 1076,682 1076,682 1076,682 1076,682 1077,682 1077,682 1077,682 1077,682 1078,682 1078,682 1078,682 1079,682 1079,682 1079,682 1079,682 1080,682 1080,683 1080,683 1080,683 1081,683 1081,683 1081,683 1081,683 1082,683 1082,683 1082,683 1082,683 1083,683 1083,683 1083,683 1084,683 1084,683 1084,683 1084,683 1085,683 1085,683 1085,683 1085,683 1086,683 1086,683 1087,683 1087,683 1087,683 1087,684 1088,684 1088,684 1088,684 1088,684 1089,684 1089,684 1089,684 1090,684 1090,684 1090,684 1091,684 1091,684 1091,684 1091,684 1092,684 1092,684 1092,684 1092,684 1093,684 1093,684 1093,684 1093,684 1094,684 1094,684 1094,684 1094,684 1095,684 1095,684 1095,684 1096,684 1096,684 1096,684 1096,684 1097,684 1097,684 1097,684 1097,684 1098,685 1098,685 1098,685 1099,685 1099,685 1100,685 1100,685 1100,685 1100,685 1101,685 1101,685 1101,685 1101,685 1102,685 1102,685 1102,685 1102,685 1103,685 1103,685 1103,685 1103,685 1104,685 1104,686 1104,686 1104,686 1105,686 1105,686 1105,686 1105,686 1106,686 1106,686 1106,686 1106,686 1107,686 1107,686 1107,686 1107,686 1108,686 1108,686 1108,686 1109,686 1109,686 1109,686 1109,687 1110,687 1110,687 1110,687 1110,686 1111,686 1111,687 1111,687 1111,687 1112,687 1112,687 1113,687 1113,687 1113,687 1114,687 1114,687 1114,687 1114,687 1115,687 1115,687 1115,687 1115,687 1116,687 1116,687 1116,687 1117,687 1117,687 1117,687 1118,687 1118,687 1118,687 1119,687 1119,687 1119,687 1119,687 1120,687 1120,687 1120,687 1120,687 1121,687 1121,687 1121,687 1121,687 1122,687 1122,688 1122,688 1122,688 1123,688 1123,688 1123,688 1124,688 1124,688 1124,688 1124,688 1125,688 1125,688 1126,688 1126,688 1126,688 1126,688 1127,688 1127,688 1127,688 1127,688 1128,688 1128,688 1128,688 1128,688 1129,688 1129,688 1129,688 1129,688 1130,688 1130,688 1130,688 1130,688 1131,688 1131,688 1131,688 1131,688 1132,688 1132,688 1132,689 1133,689 1133,689 1133,689 1133,689 1134,689 1134,689 1134,689 1134,689 1135,689 1135,689 1135,689 1135,689 1136,689 1136,689 1136,689 1137,689 1137,689 1137,689 1137,689 1138,689 1138,689 1139,689 1139,689 1139,689 1139,689 1140,689 1140,689 1140,689 1140,689 1141,689 1141,689 1141,689 1141,689 1142,689 1142,690 1142,690 1142,690 1143,690 1143,690 1143,690 1143,690 1144,690 1144,690 1144,690 1144,690 1145,690 1145,690 1145,690 1145,690 1146,690 1146,690 1146,690 1147,690 1147,690 1147,690 1147,690 1148,690 1148,690 1148,690 1148,690 1149,690 1149,690 1149,690 1149,690 1150,690 1150,691 1150,691 1150,691 1151,691 1151,691 1152,691 1152,691 1152,691 1152,691 1153,691 1153,691 1153,691 1153,691 1154,691 1154,691 1154,691 1154,691 1155,691 1155,691 1155,691 1155,691 1156,691 1156,691 1156,691 1156,691 1157,691 1157,691 1157,691 1157,691 1158,691 1158,691 1158,691 1158,692 1159,692 1159,692 1159,692 1159,692 1160,692 1160,692 1160,692 1161,692 1161,692 1161,692 1161,692 1162,692 1162,692 1162,692 1163,692 1163,692 1163,692 1163,692 1164,692 1164,692 1165,692 1165,692 1165,692 1165,692 1166,692 1166,692 1166,692 1166,692 1167,692 1167,692 1167,692 1167,692 1168,692 1168,692 1168,693 1169,693 1169,693 1169,693 1169,693 1170,693 1170,693 1170,693 1170,693 1171,693 1171,693 1171,693 1171,693 1172,693 1172,693 1172,693 1172,693 1173,693 1173,693 1173,693 1173,693 1174,693 1174,693 1174,693 1174,693 1175,693 1175,693 1175,693 1175,693 1176,693 1176,693 1176,693 1176,693 1177,693 1177,693 1178,693 1178,693 1178,693 1178,694 1179,694 1179,694 1179,694 1179,694 1180,694 1180,694 1180,694 1180,694 1181,694 1181,694 1181,694 1181,694 1182,694 1182,694 1182,694 1182,694 1183,694 1183,694 1183,694 1183,694 1184,694 1184,694 1184,694 1184,694 1185,694 1185,694 1185,694 1185,694 1186,694 1186,694 1186,694 1186,694 1187,694 1187,694 1187,694 1187,694 1188,694 1188,694 1188,694 1188,694 1189,694 1189,694 1190,694 "/>
<polyline fill="none" opacity="1" stroke="#196BE6" stroke-width="2" points="86,728 93,720 96,720 105,716 106,710 111,706 116,702 122,699 123,700 123,696 128,692 131,693 134,695 139,692 141,693 147,695 147,691 148,687 151,684 153,681 155,678 155,675 156,667 157,665 158,666 161,660 163,661 165,658 166,655 167,653 168,649 170,651 172,652 172,652 173,649 175,647 178,648 180,646 185,648 186,646 193,646 194,646 195,647 197,648 198,646 198,643 199,640 200,644 206,646 207,644 208,645 209,645 213,646 213,646 214,647 216,647 216,647 217,645 218,645 219,645 219,646 220,646 223,647 225,647 227,648 229,644 231,644 231,645 233,646 233,646 234,646 234,646 235,646 237,644 237,645 238,645 239,645 240,646 243,646 243,647 244,647 246,647 246,647 247,648 247,648 248,648 250,649 250,649 251,649 252,649 252,647 254,646 255,646 255,646 257,647 257,644 258,645 259,645 261,643 262,641 263,642 265,641 266,639 267,639 268,639 268,640 269,640 269,640 270,642 271,641 272,637 274,637 276,638 276,636 277,636 279,635 280,633 281,633 283,632 285,633 286,631 286,629 287,630 287,628 288,628 289,629 290,627 290,628 291,626 292,624 292,624 293,625 294,625 294,625 295,623 295,622 296,622 296,622 297,622 297,621 298,621 298,621 299,621 299,622 300,620 300,620 301,621 302,621 302,622 303,622 303,622 304,622 304,622 305,623 305,623 306,623 307,623 307,624 308,624 308,624 309,622 309,622 310,623 311,623 311,623 312,623 312,624 313,623 314,621 314,619 315,620 315,618 316,618 316,615 317,615 317,616 318,616 318,616 319,616 320,617 320,617 321,613 321,612 322,612 322,612 323,613 323,613 324,613 324,613 325,613 325,614 326,612 326,612 327,612 327,613 328,613 328,613 329,613 329,614 330,614 330,611 331,609 331,610 332,610 333,610 333,607 334,607 334,608 335,608 335,608 336,608 336,609 337,609 337,609 338,609 338,610 339,610 339,610 340,610 340,610 341,609 341,609 342,609 342,610 343,610 343,610 344,612 344,612 345,613 346,613 346,613 347,613 347,614 348,614 348,612 349,613 349,613 350,613 350,613 351,613 351,614 352,614 352,614 353,614 353,615 354,615 354,613 355,614 355,614 356,614 356,614 357,614 357,615 358,615 359,615 359,615 360,615 360,616 361,616 361,616 362,616 362,617 363,615 363,614 364,613 364,613 365,613 365,613 366,614 366,614 367,614 367,614 368,614 368,615 369,615 369,615 370,615 370,615 371,615 372,616 372,616 373,616 373,615 374,615 374,615 375,615 375,615 376,616 376,616 377,616 377,616 378,617 378,617 379,615 379,616 380,616 380,616 381,616 381,615 382,615 382,616 383,616 383,616 384,616 385,616 385,617 386,617 386,616 387,616 387,616 388,616 388,616 389,616 389,616 390,617 390,616 391,616 391,616 392,616 392,616 393,617 393,617 394,617 394,618 395,618 395,615 396,614 396,615 397,615 398,616 398,615 399,615 399,616 400,614 400,615 401,613 401,612 402,612 402,613 403,613 403,615 404,616 404,616 405,616 405,617 406,617 406,617 407,617 407,616 408,616 408,615 409,616 409,616 410,615 411,615 412,615 412,615 413,615 413,616 414,616 414,616 415,616 415,616 416,617 416,617 417,618 417,618 418,618 418,618 419,618 419,619 420,619 420,619 421,619 421,619 422,620 422,620 423,620 424,620 424,620 425,620 425,621 426,621 426,622 427,622 428,621 428,621 429,621 429,621 430,616 430,617 431,618 431,618 432,618 432,618 433,619 433,619 434,619 434,619 435,619 435,620 436,621 437,621 437,620 438,620 438,620 439,621 439,620 440,620 440,619 441,619 441,619 442,619 442,619 443,620 443,620 444,620 444,620 445,620 445,621 446,622 446,621 447,621 447,621 448,621 449,622 450,622 450,622 451,622 451,622 452,622 452,623 453,623 453,624 454,624 454,624 455,624 455,624 456,625 456,625 457,625 457,624 458,624 458,624 459,624 459,623 460,623 460,623 461,624 461,624 462,623 463,622 463,623 464,623 464,623 465,623 465,623 466,622 466,621 467,621 467,622 468,622 468,622 469,622 469,622 470,620 470,621 471,620 471,621 472,620 472,618 473,616 473,617 474,617 474,617 475,617 476,618 476,618 477,618 477,618 478,618 478,618 479,618 479,618 480,618 480,619 481,619 481,618 482,619 482,619 483,620 484,620 484,620 485,620 485,621 486,621 486,621 487,620 487,620 488,621 489,621 489,620 490,620 490,620 491,621 491,621 492,621 492,621 493,622 493,622 494,622 494,622 495,623 495,623 496,623 496,623 497,624 497,624 498,624 498,624 499,624 499,624 500,624 500,625 501,625 502,625 502,625 503,626 503,626 504,626 504,626 505,626 505,626 506,627 506,626 507,626 507,625 508,625 508,625 509,625 509,625 510,624 510,624 511,624 511,625 512,625 512,624 513,622 513,623 514,623 515,622 515,622 516,622 516,622 517,622 517,622 518,622 518,622 519,623 519,623 520,623 520,621 521,622 521,622 522,622 522,622 523,622 523,622 524,623 524,623 525,623 525,621 526,623 526,623 527,621 528,621 528,622 529,620 529,620 530,620 530,620 531,620 531,620 532,620 532,620 533,621 533,621 534,621 534,621 535,620 535,620 536,620 536,621 537,622 537,621 538,621 538,621 539,622 539,622 540,622 541,622 541,623 542,623 542,623 543,623 543,623 544,623 544,623 545,623 545,623 546,624 546,624 547,623 547,623 548,624 548,624 549,624 549,623 550,624 550,624 551,624 551,624 552,625 552,625 553,625 554,625 554,625 555,625 555,625 556,624 556,624 557,624 557,625 558,625 558,625 559,625 559,625 560,625 560,626 561,626 561,626 562,626 562,626 563,626 563,627 564,626 564,626 565,626 565,626 566,627 567,627 567,627 568,627 568,627 569,627 569,627 570,627 570,626 571,626 571,627 572,626 572,626 573,626 573,627 574,625 574,625 575,626 575,626 576,625 576,625 577,625 577,624 578,624 578,624 579,624 580,625 580,625 581,625 581,625 582,625 582,625 583,626 583,626 584,626 584,625 585,626 585,626 586,626 586,626 587,626 587,626 588,626 588,627 589,627 589,627 590,627 590,627 591,627 591,628 592,628 593,627 593,627 594,627 594,627 595,627 595,627 596,627 596,627 597,627 597,627 598,627 598,627 599,627 599,627 600,627 600,627 601,627 601,627 602,627 602,627 603,627 603,627 604,627 604,627 605,627 606,628 606,628 607,628 607,628 608,628 608,628 609,629 609,629 610,629 610,629 611,629 611,629 612,630 612,630 613,630 613,630 614,630 614,630 615,630 615,631 616,631 616,631 617,631 617,631 618,631 619,632 619,632 620,632 620,632 621,632 621,632 622,633 622,633 623,633 623,632 624,633 624,633 625,633 625,633 626,633 626,633 627,633 627,633 628,633 628,633 629,633 629,631 630,632 630,632 631,632 632,632 632,632 633,632 633,632 634,632 634,632 635,632 635,632 636,633 636,633 637,633 637,633 638,633 638,633 639,633 639,633 640,633 640,634 641,633 641,633 642,634 642,634 643,634 643,634 644,633 645,633 645,634 646,634 646,635 647,635 647,635 648,635 648,635 649,635 649,635 650,635 650,634 651,634 651,634 652,634 652,634 653,634 653,633 654,633 654,633 655,634 655,634 656,634 656,634 657,634 658,634 658,633 659,633 659,633 660,633 660,633 661,633 661,632 662,633 662,633 663,633 663,633 664,633 664,633 665,633 665,633 666,633 666,633 667,633 667,633 668,633 668,633 669,634 669,634 670,634 671,634 671,634 672,634 672,634 673,634 673,634 674,635 674,635 675,635 675,635 676,635 676,635 677,635 677,635 678,635 678,635 679,635 679,635 680,635 680,635 681,636 681,636 682,636 682,636 683,636 684,636 684,636 685,636 685,636 686,636 686,636 687,637 687,637 688,637 688,637 689,637 689,638 690,638 690,637 691,637 691,638 692,638 692,638 693,638 693,638 694,638 694,638 695,639 695,639 696,639 697,639 697,639 698,640 698,640 699,640 699,640 700,640 700,640 701,640 701,640 702,640 702,640 703,640 703,640 704,640 704,641 705,641 705,641 706,640 706,640 707,640 707,640 708,639 708,640 709,640 710,639 710,639 711,639 711,640 712,639 712,639 713,639 713,640 714,640 714,640 715,640 715,640 716,640 716,640 717,641 717,641 718,641 718,641 719,641 719,641 720,641 720,641 721,641 721,641 722,641 723,641 723,641 724,642 724,642 725,642 725,642 726,641 726,641 727,642 727,641 728,641 728,641 729,642 729,642 730,642 730,642 731,642 731,642 732,642 732,642 733,642 733,642 734,642 734,642 735,642 736,642 736,642 737,643 737,643 738,643 738,643 739,643 739,644 740,644 740,644 741,644 741,644 742,644 742,644 743,644 743,644 744,644 744,645 745,645 745,645 746,645 746,645 747,645 747,645 748,645 749,645 749,645 750,645 750,646 751,646 751,646 752,646 752,646 753,646 753,646 754,646 754,645 755,646 755,646 756,646 756,646 757,646 757,646 758,647 758,647 759,647 759,647 760,647 760,646 761,646 762,646 762,647 763,647 763,647 764,647 764,648 765,648 765,648 766,648 766,648 767,649 767,649 768,648 768,648 769,649 769,649 770,649 770,649 771,649 771,649 772,649 772,649 773,649 773,649 774,649 775,649 775,650 776,650 776,649 777,650 777,650 778,650 778,650 779,649 779,650 780,649 780,649 781,649 781,650 782,650 782,650 783,650 783,650 784,650 784,650 785,650 785,650 786,650 786,651 787,651 788,650 788,650 789,650 789,650 790,650 790,650 791,650 791,650 791,651 792,651 792,651 793,651 793,651 794,651 794,652 795,652 795,652 796,652 796,652 797,652 797,652 798,652 798,652 799,652 799,652 800,653 801,654 801,653 802,653 802,653 803,653 803,653 804,652 804,652 805,653 805,653 806,653 806,653 807,653 807,653 808,653 808,653 809,653 809,653 810,653 810,653 811,653 811,653 812,653 812,653 813,653 814,653 814,653 815,653 815,654 816,654 816,654 817,654 817,654 818,654 818,654 819,654 819,654 820,654 820,655 821,655 821,655 822,655 822,655 823,655 823,655 824,655 824,655 825,655 825,654 826,654 827,655 827,655 828,655 828,655 829,655 829,655 830,655 830,655 831,655 831,654 832,653 832,653 833,653 833,654 834,654 834,654 835,654 835,655 836,655 836,655 837,655 837,655 838,655 838,655 839,655 840,655 840,655 841,655 841,656 842,656 842,656 843,656 843,656 844,656 844,656 845,660 845,660 846,660 846,656 847,657 847,657 848,657 848,657 849,657 849,657 850,657 850,657 851,657 851,657 852,658 853,658 853,658 854,658 854,658 855,658 855,658 856,658 856,659 857,659 857,659 858,659 858,659 859,659 859,659 860,659 860,659 861,660 861,659 862,659 862,660 863,659 863,659 864,659 864,660 865,660 866,660 866,660 867,660 867,660 868,660 868,661 869,661 869,661 870,661 870,661 871,661 871,661 872,661 872,661 873,660 873,660 874,660 874,660 875,660 875,660 876,660 876,660 877,660 877,660 878,660 879,660 879,660 880,660 880,660 881,661 881,660 882,660 882,661 883,661 883,661 884,661 884,661 885,661 885,661 886,661 886,661 887,661 887,661 888,661 888,661 889,662 889,662 890,662 890,662 891,662 892,662 892,662 893,662 893,662 894,662 894,662 895,662 895,662 896,663 896,663 897,663 897,663 898,663 898,663 899,663 899,663 900,663 900,663 901,663 901,663 902,663 902,663 903,663 903,662 904,663 905,663 905,663 906,663 906,663 907,663 907,663 908,663 908,663 909,663 909,663 910,663 910,663 911,663 911,663 912,663 912,663 913,663 913,663 914,663 914,663 915,663 915,664 916,664 916,664 917,664 918,664 918,664 919,664 919,664 920,664 920,664 921,664 921,664 922,664 922,664 923,665 923,665 924,664 924,664 925,665 925,665 926,665 926,665 927,665 927,665 928,665 928,665 929,665 929,665 930,665 931,665 931,666 932,666 932,666 933,666 933,666 934,666 934,666 935,666 935,666 936,666 936,666 937,666 937,667 938,667 938,667 939,667 939,667 940,667 940,667 941,667 941,667 942,667 942,667 943,667 944,668 944,668 945,668 945,668 946,668 946,668 947,668 947,668 948,668 948,668 949,668 949,668 950,668 950,668 951,668 951,668 952,669 952,669 953,669 953,669 954,669 954,669 955,669 955,669 956,669 957,669 957,669 958,669 958,669 959,669 959,669 960,669 960,669 961,669 961,669 962,669 962,669 963,669 963,669 964,669 964,669 965,669 965,669 966,669 966,669 967,669 967,670 968,669 968,669 969,670 970,670 970,670 971,670 971,670 972,670 972,670 973,670 973,670 974,670 974,670 975,670 975,670 976,670 976,670 977,670 977,670 978,670 978,670 979,670 979,670 980,670 980,670 981,670 981,670 982,670 983,670 983,670 984,670 984,670 985,670 985,670 986,670 986,671 987,671 987,671 988,671 988,671 989,671 989,671 990,671 990,672 991,671 991,671 991,671 992,672 992,672 993,672 993,672 994,671 994,671 995,671 996,672 996,672 997,672 997,672 998,672 998,672 999,672 999,672 1000,672 1000,672 1001,671 1001,672 1002,671 1002,671 1003,671 1003,671 1004,671 1004,672 1005,672 1005,672 1006,672 1006,672 1007,672 1007,672 1008,672 1009,672 1009,672 1010,672 1010,672 1011,672 1011,672 1012,672 1012,672 1013,672 1013,672 1014,672 1014,673 1015,673 1015,672 1016,672 1016,672 1017,672 1017,672 1018,672 1018,673 1019,673 1019,673 1020,673 1020,673 1021,673 1022,673 1022,673 1023,673 1023,673 1024,673 1024,673 1025,673 1025,673 1026,673 1026,673 1027,674 1027,674 1028,674 1028,674 1029,674 1029,674 1030,674 1030,674 1031,674 1031,674 1032,674 1032,675 1033,675 1033,675 1034,675 1035,675 1035,675 1036,675 1036,675 1037,675 1037,675 1038,675 1038,675 1039,676 1039,676 1040,676 1040,676 1041,676 1041,676 1042,676 1042,676 1043,676 1043,676 1044,676 1044,676 1045,677 1045,677 1046,677 1046,677 1047,677 1048,677 1048,677 1049,677 1049,677 1050,677 1050,677 1051,677 1051,677 1052,677 1052,678 1053,678 1053,678 1054,678 1054,678 1055,678 1055,678 1056,678 1056,678 1057,678 1057,678 1058,678 1058,678 1059,678 1059,678 1060,678 1061,679 1061,679 1062,679 1062,679 1063,679 1063,679 1064,678 1064,678 1065,678 1065,678 1065,678 1065,678 1066,678 1066,678 1066,679 1067,679 1067,679 1067,679 1068,679 1068,679 1068,679 1068,679 1069,679 1069,679 1069,679 1069,679 1070,679 1070,679 1070,679 1070,680 1071,680 1071,679 1071,679 1071,679 1072,679 1072,680 1072,680 1072,680 1073,679 1074,679 1074,680 1074,680 1075,680 1075,680 1075,680 1075,680 1076,680 1076,680 1076,680 1076,680 1077,680 1077,680 1077,680 1077,680 1078,680 1078,680 1078,680 1079,680 1079,680 1079,680 1079,680 1080,680 1080,680 1080,680 1080,680 1081,680 1081,680 1081,680 1081,680 1082,680 1082,680 1082,680 1082,680 1083,681 1083,681 1083,681 1084,681 1084,681 1084,681 1084,681 1085,681 1085,681 1085,681 1085,681 1086,681 1086,681 1087,681 1087,680 1087,680 1087,681 1088,681 1088,681 1088,681 1088,681 1089,681 1089,681 1089,681 1090,681 1090,681 1090,681 1091,681 1091,681 1091,681 1091,681 1092,681 1092,681 1092,681 1092,681 1093,681 1093,681 1093,681 1093,681 1094,681 1094,681 1094,681 1094,681 1095,681 1095,681 1095,681 1096,681 1096,681 1096,681 1096,681 1097,681 1097,681 1097,681 1097,681 1098,681 1098,681 1098,682 1099,682 1099,682 1100,682 1100,682 1100,682 1100,682 1101,682 1101,682 1101,682 1101,682 1102,682 1102,682 1102,682 1102,682 1103,682 1103,682 1103,682 1103,682 1104,682 1104,682 1104,682 1104,682 1105,682 1105,682 1105,682 1105,682 1106,682 1106,682 1106,682 1106,682 1107,682 1107,682 1107,682 1107,682 1108,682 1108,682 1108,682 1109,682 1109,682 1109,682 1109,672 1110,672 1110,672 1110,672 1110,672 1111,672 1111,672 1111,672 1111,672 1112,672 1112,672 1113,672 1113,672 1113,672 1114,672 1114,672 1114,672 1114,672 1115,672 1115,672 1115,672 1115,672 1116,672 1116,672 1116,672 1117,672 1117,672 1117,672 1118,672 1118,672 1118,672 1119,672 1119,672 1119,672 1119,672 1120,672 1120,672 1120,672 1120,672 1121,672 1121,672 1121,672 1121,672 1122,672 1122,672 1122,672 1122,672 1123,672 1123,672 1123,672 1124,672 1124,672 1124,672 1124,672 1125,672 1125,672 1126,672 1126,672 1126,672 1126,672 1127,672 1127,672 1127,672 1127,672 1128,672 1128,672 1128,672 1128,673 1129,673 1129,673 1129,673 1129,673 1130,673 1130,673 1130,673 1130,673 1131,673 1131,673 1131,673 1131,673 1132,673 1132,673 1132,673 1133,673 1133,673 1133,673 1133,673 1134,673 1134,673 1134,673 1134,673 1135,673 1135,674 1135,674 1135,673 1136,673 1136,673 1136,673 1137,673 1137,673 1137,673 1137,673 1138,673 1138,673 1139,673 1139,674 1139,674 1139,674 1140,674 1140,674 1140,674 1140,674 1141,674 1141,674 1141,674 1141,674 1142,674 1142,674 1142,674 1142,674 1143,674 1143,674 1143,674 1143,674 1144,674 1144,674 1144,674 1144,674 1145,674 1145,674 1145,674 1145,674 1146,674 1146,674 1146,674 1147,674 1147,674 1147,674 1147,675 1148,675 1148,675 1148,675 1148,675 1149,675 1149,675 1149,675 1149,675 1150,675 1150,675 1150,675 1150,675 1151,675 1151,675 1152,675 1152,675 1152,675 1152,675 1153,675 1153,676 1153,676 1153,676 1154,676 1154,676 1154,676 1154,676 1155,676 1155,676 1155,676 1155,676 1156,676 1156,676 1156,676 1156,676 1157,676 1157,676 1157,676 1157,676 1158,676 1158,676 1158,676 1158,676 1159,676 1159,676 1159,676 1159,676 1160,676 1160,676 1160,676 1161,676 1161,676 1161,676 1161,676 1162,676 1162,676 1162,676 1163,676 1163,676 1163,676 1163,676 1164,676 1164,677 1165,677 1165,677 1165,677 1165,677 1166,677 1166,677 1166,677 1166,677 1167,677 1167,677 1167,677 1167,677 1168,677 1168,677 1168,677 1169,677 1169,677 1169,677 1169,677 1170,677 1170,677 1170,677 1170,677 1171,677 1171,677 1171,677 1171,677 1172,677 1172,678 1172,678 1172,678 1173,678 1173,678 1173,678 1173,678 1174,678 1174,678 1174,678 1174,678 1175,678 1175,678 1175,678 1175,678 1176,678 1176,678 1176,678 1176,678 1177,678 1177,678 1178,678 1178,678 1178,678 1178,678 1179,678 1179,678 1179,678 1179,678 1180,678 1180,678 1180,678 1180,678 1181,678 1181,678 1181,678 1181,678 1182,678 1182,678 1182,678 1182,678 1183,678 1183,678 1183,678 1183,678 1184,678 1184,679 1184,679 1184,679 1185,679 1185,679 1185,679 1185,679 1186,679 1186,679 1186,679 1186,679 1187,679 1187,679 1187,679 1187,679 1188,679 1188,679 1188,679 1188,679 1189,679 1189,679 1190,679 "/>
<polyline fill="none" opacity="1" stroke="#BD19E6" stroke-width="2" points="495,738 496,737 516,737 533,736 551,735 552,734 560,734 571,732 575,732 580,731 587,731 589,730 591,728 594,728 599,727 614,727 614,726 620,726 626,725 632,725 633,724 634,724 635,723 638,722 639,721 642,721 643,720 647,720 647,720 648,719 648,719 649,719 652,719 652,718 653,718 653,718 656,718 658,717 659,717 659,717 661,716 662,715 663,715 664,714 664,713 665,714 666,713 666,712 667,712 667,712 668,713 669,712 672,712 673,711 674,711 676,710 677,710 679,710 679,709 681,708 684,708 685,708 685,707 688,707 690,706 691,705 691,704 695,704 696,703 697,703 697,702 700,701 701,701 702,700 702,700 703,700 703,698 704,698 704,698 705,697 706,696 706,696 707,695 707,695 708,694 709,694 710,693 711,693 712,691 712,690 713,690 714,690 714,689 715,688 715,688 716,688 716,688 717,688 717,687 718,687 718,687 719,686 719,685 720,685 720,685 721,683 721,682 722,682 724,681 724,681 725,681 726,680 726,679 727,679 727,677 728,676 729,676 730,675 730,675 731,674 731,674 732,674 732,674 733,674 733,674 734,673 734,673 735,673 736,673 736,673 737,674 737,673 738,673 738,673 739,672 739,672 740,672 740,672 741,672 741,672 742,672 742,672 743,672 743,672 744,671 744,671 745,671 746,670 746,670 747,670 747,670 748,669 749,669 749,668 750,668 750,668 751,668 752,667 752,667 753,667 753,666 754,667 754,667 755,666 755,666 756,665 756,666 757,665 757,664 758,664 758,663 759,663 759,663 760,663 760,663 761,663 762,663 762,663 763,663 764,663 764,662 765,663 765,662 766,662 766,662 767,662 767,662 768,662 768,662 769,662 769,662 770,661 770,660 771,658 771,658 772,657 772,657 773,657 773,656 774,657 775,657 775,657 776,656 776,656 777,656 778,656 778,656 779,656 779,655 780,655 780,655 781,654 782,653 782,653 783,653 784,653 784,653 785,653 785,653 786,653 786,653 788,653 788,653 789,653 789,652 790,651 790,651 791,651 791,651 791,651 792,651 792,651 793,650 794,650 794,649 795,649 795,649 796,649 796,648 797,647 797,647 798,646 798,646 799,646 799,646 800,645 801,645 801,644 802,644 802,644 803,644 803,644 804,643 804,643 805,643 805,641 806,641 806,641 807,641 807,640 808,640 808,640 809,640 809,640 810,640 810,639 811,639 811,638 812,639 812,639 813,638 814,638 814,638 815,637 815,637 816,636 816,636 817,636 817,636 818,636 818,636 819,636 819,636 820,637 821,637 821,636 822,636 822,636 823,636 823,636 824,637 824,637 825,636 825,637 826,636 827,636 827,636 828,636 828,636 829,636 829,635 830,635 830,635 831,635 831,634 832,634 832,633 833,632 833,631 834,632 834,631 835,630 835,629 836,629 836,628 837,629 837,629 838,628 838,627 839,627 840,626 840,626 841,625 841,625 842,625 842,625 843,625 843,623 844,622 844,621 845,625 845,625 846,624 846,619 847,619 847,618 848,616 848,616 849,615 849,615 850,614 850,614 851,614 851,613 852,613 853,613 853,613 854,613 854,613 855,613 855,613 856,612 856,612 857,612 857,612 858,612 858,611 859,610 859,610 860,609 860,609 861,610 861,610 862,609 862,608 863,608 863,608 864,608 864,607 865,607 866,607 866,607 867,606 867,606 868,607 868,607 869,607 869,607 870,607 870,606 871,606 871,605 872,605 872,604 873,604 873,604 874,604 874,603 875,603 875,602 876,602 876,601 877,600 877,600 878,599 879,599 879,599 880,599 880,598 881,598 881,597 882,596 882,596 883,597 883,596 884,595 884,595 885,595 885,595 886,594 886,594 887,594 887,593 888,593 888,593 889,593 889,593 890,593 890,593 891,593 892,592 892,592 893,591 893,591 894,591 894,591 895,590 895,590 896,590 896,590 897,590 897,590 898,590 898,590 899,590 899,589 900,589 900,589 901,588 901,587 902,587 902,587 903,587 903,587 904,586 905,586 905,586 906,586 906,585 907,585 907,585 908,584 908,584 909,585 909,584 910,584 910,584 911,584 911,583 912,583 912,582 913,581 913,581 914,581 914,581 915,581 915,581 916,581 916,581 917,580 918,579 918,580 919,579 919,579 920,579 920,579 921,579 921,579 922,578 922,578 923,577 923,577 924,577 924,577 925,577 925,576 926,576 926,575 927,575 927,576 928,575 928,574 929,574 929,574 930,573 931,573 931,573 932,573 932,572 933,572 933,572 934,572 934,571 935,571 935,572 936,572 936,571 937,571 937,571 938,571 938,571 939,571 939,571 940,571 940,571 941,570 941,569 942,569 942,568 943,569 944,568 944,568 945,568 945,568 946,567 946,567 947,567 947,567 948,567 948,566 949,566 949,566 950,566 950,565 951,565 951,564 952,564 952,564 953,563 953,563 954,563 954,562 955,562 955,562 956,561 957,561 957,561 958,560 958,560 959,560 959,560 960,560 960,559 961,558 962,558 962,558 963,558 963,558 964,557 964,557 965,557 965,557 966,557 966,557 967,556 967,556 968,555 968,554 969,554 970,554 970,553 971,553 971,553 972,552 972,552 973,552 973,551 974,551 974,551 975,551 975,551 976,550 976,549 977,549 977,549 978,549 978,549 979,548 979,548 980,547 980,547 981,546 981,545 982,545 983,544 983,544 984,543 984,543 985,542 985,542 986,541 986,541 987,541 987,541 988,540 988,540 989,540 989,539 990,539 990,539 991,538 991,538 991,538 992,538 992,538 993,537 993,537 994,536 994,536 995,534 996,533 996,533 997,532 997,531 998,531 998,531 999,531 999,531 1000,531 1000,530 1001,530 1001,531 1002,531 1002,530 1003,529 1003,529 1004,529 1004,528 1005,528 1005,528 1006,527 1006,527 1007,526 1007,526 1008,526 1009,525 1009,525 1010,526 1010,525 1011,525 1011,524 1012,524 1012,524 1013,524 1013,524 1014,524 1014,524 1015,523 1015,523 1016,523 1016,523 1017,521 1017,521 1018,521 1018,520 1019,520 1019,520 1020,520 1020,520 1021,519 1022,518 1022,518 1023,518 1023,517 1024,516 1024,516 1025,515 1025,515 1026,515 1026,515 1027,515 1027,515 1028,514 1028,514 1029,514 1029,514 1030,513 1030,514 1031,513 1031,513 1032,513 1032,513 1033,513 1033,513 1034,513 1035,512 1035,512 1036,512 1036,511 1037,511 1037,510 1038,510 1038,509 1039,509 1039,509 1040,509 1040,510 1041,510 1041,510 1042,509 1042,510 1043,510 1043,509 1044,509 1044,508 1045,508 1045,508 1046,508 1046,508 1047,508 1048,507 1048,507 1049,507 1049,506 1050,506 1050,506 1051,506 1051,506 1052,505 1052,505 1053,505 1053,505 1054,505 1054,505 1055,504 1055,504 1056,504 1056,503 1057,502 1057,501 1058,501 1058,501 1059,501 1059,500 1060,500 1061,500 1061,500 1062,500 1062,500 1063,499 1063,499 1064,499 1064,499 1065,499 1065,499 1065,499 1065,498 1066,497 1066,497 1066,497 1067,497 1067,497 1067,497 1068,497 1068,497 1068,497 1068,496 1069,496 1069,496 1069,496 1069,496 1070,496 1070,496 1070,496 1070,496 1071,496 1071,495 1071,495 1071,495 1072,495 1072,494 1072,494 1072,495 1073,494 1074,494 1074,493 1074,493 1075,493 1075,494 1075,494 1075,493 1076,493 1076,493 1076,493 1076,493 1077,493 1077,492 1077,492 1077,492 1078,492 1078,492 1078,492 1079,492 1079,491 1079,491 1079,490 1080,490 1080,490 1080,490 1080,490 1081,490 1081,490 1081,490 1081,490 1082,490 1082,489 1082,489 1082,489 1083,489 1083,489 1083,489 1084,489 1084,488 1084,488 1084,488 1085,488 1085,487 1085,487 1085,487 1086,487 1086,487 1087,487 1087,486 1087,486 1087,487 1088,487 1088,486 1088,486 1088,486 1089,486 1089,485 1089,485 1090,485 1090,485 1090,485 1091,485 1091,483 1091,483 1091,484 1092,484 1092,484 1092,484 1092,484 1093,484 1093,484 1093,484 1093,483 1094,483 1094,484 1094,484 1094,483 1095,483 1095,483 1095,482 1096,482 1096,482 1096,482 1096,481 1097,481 1097,480 1097,480 1097,480 1098,480 1098,480 1098,480 1099,480 1099,480 1100,480 1100,479 1100,479 1100,478 1101,478 1101,478 1101,478 1101,479 1102,479 1102,478 1102,478 1102,478 1103,478 1103,478 1103,477 1104,477 1104,476 1104,476 1104,476 1105,476 1105,476 1105,476 1105,475 1106,475 1106,474 1106,474 1106,473 1107,473 1107,473 1107,473 1107,472 1108,472 1108,472 1108,472 1109,472 1109,472 1109,472 1109,472 1110,472 1110,472 1110,472 1110,472 1111,472 1111,472 1111,472 1111,472 1112,472 1112,471 1113,471 1113,471 1113,470 1114,470 1114,469 1114,469 1114,469 1115,469 1115,469 1115,469 1115,469 1116,469 1116,468 1116,468 1117,468 1117,468 1117,468 1118,468 1118,468 1118,467 1119,467 1119,467 1119,468 1119,468 1120,468 1120,467 1120,467 1120,467 1121,467 1121,467 1121,467 1121,467 1122,467 1122,467 1122,467 1122,467 1123,467 1123,467 1123,467 1124,467 1124,467 1124,467 1124,467 1125,467 1125,467 1126,467 1126,467 1126,467 1126,467 1127,467 1127,467 1127,467 1127,466 1128,466 1128,465 1128,465 1128,465 1129,465 1129,465 1129,465 1129,465 1130,465 1130,465 1130,465 1130,465 1131,465 1131,464 1131,464 1131,464 1132,464 1132,464 1132,464 1133,464 1133,465 1133,465 1133,465 1134,465 1134,465 1134,465 1134,465 1135,465 1135,464 1135,464 1135,464 1136,465 1136,465 1136,465 1137,465 1137,465 1137,465 1137,464 1138,464 1138,464 1139,464 1139,464 1139,464 1139,464 1140,464 1140,464 1140,464 1140,463 1141,463 1141,463 1141,463 1141,463 1142,463 1142,463 1142,463 1142,463 1143,463 1143,463 1143,463 1143,462 1144,462 1144,462 1144,462 1144,462 1145,462 1145,462 1145,462 1145,462 1146,462 1146,462 1146,462 1147,462 1147,461 1147,461 1147,462 1148,462 1148,462 1148,462 1148,462 1149,462 1149,461 1149,461 1149,461 1150,461 1150,461 1150,461 1150,461 1151,461 1151,461 1152,461 1152,461 1152,461 1152,460 1153,460 1153,461 1153,461 1153,460 1154,460 1154,460 1154,460 1154,459 1155,459 1155,459 1155,459 1155,459 1156,459 1156,459 1156,459 1156,459 1157,459 1157,458 1157,458 1157,458 1158,458 1158,457 1158,457 1158,456 1159,456 1159,455 1159,455 1159,455 1160,455 1160,456 1160,455 1161,455 1161,454 1161,454 1161,454 1162,454 1162,454 1162,454 1163,454 1163,454 1163,454 1163,454 1164,454 1164,454 1165,454 1165,454 1165,454 1165,454 1166,454 1166,454 1166,454 1166,453 1167,453 1167,453 1167,453 1167,453 1168,453 1168,453 1168,454 1169,454 1169,454 1169,454 1169,454 1170,454 1170,453 1170,453 1170,452 1171,452 1171,452 1171,452 1171,452 1172,452 1172,452 1172,452 1172,452 1173,452 1173,452 1173,452 1173,452 1174,452 1174,452 1174,452 1174,451 1175,451 1175,451 1175,451 1175,451 1176,451 1176,452 1176,452 1176,451 1177,451 1177,451 1178,452 1178,452 1178,452 1178,451 1179,451 1179,451 1179,451 1179,451 1180,451 1180,451 1180,451 1180,451 1181,451 1181,451 1181,451 1181,451 1182,451 1182,451 1182,451 1182,450 1183,450 1183,450 1183,450 1183,450 1184,450 1184,450 1184,450 1184,449 1185,449 1185,449 1185,449 1185,449 1186,449 1186,449 1186,449 1186,448 1187,448 1187,447 1187,447 1187,447 1188,447 1188,447 1188,447 1188,447 1189,447 1189,447 1190,447 "/>
<rect x="1088" y="329" width="97" height="91" opacity="1" fill="#FFFFFF" stroke="none"/>
<rect x="1088" y="329" width="97" height="91" opacity="1" fill="none" stroke="#000000"/>
<text x="1128" y="339" dy="0.76em" text-anchor="start" font-family="sans-serif" font-size="9.67741935483871" opacity="1" fill="#000000">
argparse
</text>
<text x="1128" y="354" dy="0.76em" text-anchor="start" font-family="sans-serif" font-size="9.67741935483871" opacity="1" fill="#000000">
clap
</text>
<text x="1128" y="369" dy="0.76em" text-anchor="start" font-family="sans-serif" font-size="9.67741935483871" opacity="1" fill="#000000">
docopt
</text>
<text x="1128" y="384" dy="0.76em" text-anchor="start" font-family="sans-serif" font-size="9.67741935483871" opacity="1" fill="#000000">
getopts
</text>
<text x="1128" y="399" dy="0.76em" text-anchor="start" font-family="sans-serif" font-size="9.67741935483871" opacity="1" fill="#000000">
structopt
</text>
<polyline fill="none" opacity="1" stroke="#E61919" stroke-width="2" points="1098,343 1118,343 "/>
<polyline fill="none" opacity="1" stroke="#BDE619" stroke-width="2" points="1098,359 1118,359 "/>
<polyline fill="none" opacity="1" stroke="#19E66B" stroke-width="2" points="1098,374 1118,374 "/>
<polyline fill="none" opacity="1" stroke="#196BE6" stroke-width="2" points="1098,389 1118,389 "/>
<polyline fill="none" opacity="1" stroke="#BD19E6" stroke-width="2" points="1098,404 1118,404 "/>
</svg>
