<svg width="1200" height="800" viewBox="0 0 1200 800" xmlns="http://www.w3.org/2000/svg">
<rect x="0" y="0" width="1199" height="799" opacity="1" fill="#FFFFFF" stroke="none"/>
<line opacity="0.1" stroke="#000000" stroke-width="1" x1="60" y1="723" x2="1190" y2="723"/>
<line opacity="0.1" stroke="#000000" stroke-width="1" x1="60" y1="708" x2="1190" y2="708"/>
<line opacity="0.1" stroke="#000000" stroke-width="1" x1="60" y1="692" x2="1190" y2="692"/>
<line opacity="0.1" stroke="#000000" stroke-width="1" x1="60" y1="677" x2="1190" y2="677"/>
<line opacity="0.1" stroke="#000000" stroke-width="1" x1="60" y1="661" x2="1190" y2="661"/>
<line opacity="0.1" stroke="#000000" stroke-width="1" x1="60" y1="646" x2="1190" y2="646"/>
<line opacity="0.1" stroke="#000000" stroke-width="1" x1="60" y1="630" x2="1190" y2="630"/>
<line opacity="0.1" stroke="#000000" stroke-width="1" x1="60" y1="615" x2="1190" y2="615"/>
<line opacity="0.1" stroke="#000000" stroke-width="1" x1="60" y1="599" x2="1190" y2="599"/>
<line opacity="0.1" stroke="#000000" stroke-width="1" x1="60" y1="584" x2="1190" y2="584"/>
<line opacity="0.1" stroke="#000000" stroke-width="1" x1="60" y1="568" x2="1190" y2="568"/>
<line opacity="0.1" stroke="#000000" stroke-width="1" x1="60" y1="553" x2="1190" y2="553"/>
<line opacity="0.1" stroke="#000000" stroke-width="1" x1="60" y1="537" x2="1190" y2="537"/>
<line opacity="0.1" stroke="#000000" stroke-width="1" x1="60" y1="522" x2="1190" y2="522"/>
<line opacity="0.1" stroke="#000000" stroke-width="1" x1="60" y1="506" x2="1190" y2="506"/>
<line opacity="0.1" stroke="#000000" stroke-width="1" x1="60" y1="491" x2="1190" y2="491"/>
<line opacity="0.1" stroke="#000000" stroke-width="1" x1="60" y1="475" x2="1190" y2="475"/>
<line opacity="0.1" stroke="#000000" stroke-width="1" x1="60" y1="460" x2="1190" y2="460"/>
<line opacity="0.1" stroke="#000000" stroke-width="1" x1="60" y1="444" x2="1190" y2="444"/>
<line opacity="0.1" stroke="#000000" stroke-width="1" x1="60" y1="429" x2="1190" y2="429"/>
<line opacity="0.1" stroke="#000000" stroke-width="1" x1="60" y1="413" x2="1190" y2="413"/>
<line opacity="0.1" stroke="#000000" stroke-width="1" x1="60" y1="398" x2="1190" y2="398"/>
<line opacity="0.1" stroke="#000000" stroke-width="1" x1="60" y1="382" x2="1190" y2="382"/>
<line opacity="0.1" stroke="#000000" stroke-width="1" x1="60" y1="367" x2="1190" y2="367"/>
<line opacity="0.1" stroke="#000000" stroke-width="1" x1="60" y1="351" x2="1190" y2="351"/>
<line opacity="0.1" stroke="#000000" stroke-width="1" x1="60" y1="335" x2="1190" y2="335"/>
<line opacity="0.1" stroke="#000000" stroke-width="1" x1="60" y1="320" x2="1190" y2="320"/>
<line opacity="0.1" stroke="#000000" stroke-width="1" x1="60" y1="304" x2="1190" y2="304"/>
<line opacity="0.1" stroke="#000000" stroke-width="1" x1="60" y1="289" x2="1190" y2="289"/>
<line opacity="0.1" stroke="#000000" stroke-width="1" x1="60" y1="273" x2="1190" y2="273"/>
<line opacity="0.1" stroke="#000000" stroke-width="1" x1="60" y1="258" x2="1190" y2="258"/>
<line opacity="0.1" stroke="#000000" stroke-width="1" x1="60" y1="242" x2="1190" y2="242"/>
<line opacity="0.1" stroke="#000000" stroke-width="1" x1="60" y1="227" x2="1190" y2="227"/>
<line opacity="0.1" stroke="#000000" stroke-width="1" x1="60" y1="211" x2="1190" y2="211"/>
<line opacity="0.1" stroke="#000000" stroke-width="1" x1="60" y1="196" x2="1190" y2="196"/>
<line opacity="0.1" stroke="#000000" stroke-width="1" x1="60" y1="180" x2="1190" y2="180"/>
<line opacity="0.1" stroke="#000000" stroke-width="1" x1="60" y1="165" x2="1190" y2="165"/>
<line opacity="0.1" stroke="#000000" stroke-width="1" x1="60" y1="149" x2="1190" y2="149"/>
<line opacity="0.1" stroke="#000000" stroke-width="1" x1="60" y1="134" x2="1190" y2="134"/>
<line opacity="0.1" stroke="#000000" stroke-width="1" x1="60" y1="118" x2="1190" y2="118"/>
<line opacity="0.1" stroke="#000000" stroke-width="1" x1="60" y1="103" x2="1190" y2="103"/>
<line opacity="0.1" stroke="#000000" stroke-width="1" x1="60" y1="87" x2="1190" y2="87"/>
<line opacity="0.1" stroke="#000000" stroke-width="1" x1="60" y1="72" x2="1190" y2="72"/>
<line opacity="0.1" stroke="#000000" stroke-width="1" x1="60" y1="56" x2="1190" y2="56"/>
<line opacity="0.1" stroke="#000000" stroke-width="1" x1="60" y1="41" x2="1190" y2="41"/>
<line opacity="0.1" stroke="#000000" stroke-width="1" x1="60" y1="25" x2="1190" y2="25"/>
<line opacity="0.1" stroke="#000000" stroke-width="1" x1="60" y1="10" x2="1190" y2="10"/>
<text x="10" y="375" dy="0.76em" text-anchor="middle" font-family="sans-serif" font-size="9.67741935483871" opacity="1" fill="#000000" transform="rotate(270, 10, 375)">
Number of dependent crates
</text>
<line opacity="0.2" stroke="#000000" stroke-width="1" x1="60" y1="584" x2="1190" y2="584"/>
<line opacity="0.2" stroke="#000000" stroke-width="1" x1="60" y1="429" x2="1190" y2="429"/>
<line opacity="0.2" stroke="#000000" stroke-width="1" x1="60" y1="273" x2="1190" y2="273"/>
<line opacity="0.2" stroke="#000000" stroke-width="1" x1="60" y1="118" x2="1190" y2="118"/>
<polyline fill="none" opacity="1" stroke="#000000" stroke-width="1" points="59,10 59,740 "/>
<text x="50" y="584" dy="0.5ex" text-anchor="end" font-family="sans-serif" font-size="9.67741935483871" opacity="1" fill="#000000">
500
</text>
<polyline fill="none" opacity="1" stroke="#000000" stroke-width="1" points="54,584 59,584 "/>
<text x="50" y="429" dy="0.5ex" text-anchor="end" font-family="sans-serif" font-size="9.67741935483871" opacity="1" fill="#000000">
1000
</text>
<polyline fill="none" opacity="1" stroke="#000000" stroke-width="1" points="54,429 59,429 "/>
<text x="50" y="273" dy="0.5ex" text-anchor="end" font-family="sans-serif" font-size="9.67741935483871" opacity="1" fill="#000000">
1500
</text>
<polyline fill="none" opacity="1" stroke="#000000" stroke-width="1" points="54,273 59,273 "/>
<text x="50" y="118" dy="0.5ex" text-anchor="end" font-family="sans-serif" font-size="9.67741935483871" opacity="1" fill="#000000">
2000
</text>
<polyline fill="none" opacity="1" stroke="#000000" stroke-width="1" points="54,118 59,118 "/>
<polyline fill="none" opacity="1" stroke="#000000" stroke-width="1" points="60,740 1190,740 "/>
<text x="60" y="750" dy="0.76em" text-anchor="middle" font-family="sans-serif" font-size="9.67741935483871" opacity="1" fill="#000000">
2015-09-24Z
</text>
<polyline fill="none" opacity="1" stroke="#000000" stroke-width="1" points="60,740 60,745 "/>
<text x="174" y="750" dy="0.76em" text-anchor="middle" font-family="sans-serif" font-size="9.67741935483871" opacity="1" fill="#000000">
2016-04-07Z
</text>
<polyline fill="none" opacity="1" stroke="#000000" stroke-width="1" points="174,740 174,745 "/>
<text x="288" y="750" dy="0.76em" text-anchor="middle" font-family="sans-serif" font-size="9.67741935483871" opacity="1" fill="#000000">
2016-10-20Z
</text>
<polyline fill="none" opacity="1" stroke="#000000" stroke-width="1" points="288,740 288,745 "/>
<text x="402" y="750" dy="0.76em" text-anchor="middle" font-family="sans-serif" font-size="9.67741935483871" opacity="1" fill="#000000">
2017-05-04Z
</text>
<polyline fill="none" opacity="1" stroke="#000000" stroke-width="1" points="402,740 402,745 "/>
<text x="516" y="750" dy="0.76em" text-anchor="middle" font-family="sans-serif" font-size="9.67741935483871" opacity="1" fill="#000000">
2017-11-16Z
</text>
<polyline fill="none" opacity="1" stroke="#000000" stroke-width="1" points="516,740 516,745 "/>
<text x="630" y="750" dy="0.76em" text-anchor="middle" font-family="sans-serif" font-size="9.67741935483871" opacity="1" fill="#000000">
2018-05-31Z
</text>
<polyline fill="none" opacity="1" stroke="#000000" stroke-width="1" points="630,740 630,745 "/>
<text x="744" y="750" dy="0.76em" text-anchor="middle" font-family="sans-serif" font-size="9.67741935483871" opacity="1" fill="#000000">
2018-12-13Z
</text>
<polyline fill="none" opacity="1" stroke="#000000" stroke-width="1" points="744,740 744,745 "/>
<text x="858" y="750" dy="0.76em" text-anchor="middle" font-family="sans-serif" font-size="9.67741935483871" opacity="1" fill="#000000">
2019-06-27Z
</text>
<polyline fill="none" opacity="1" stroke="#000000" stroke-width="1" points="858,740 858,745 "/>
<text x="972" y="750" dy="0.76em" text-anchor="middle" font-family="sans-serif" font-size="9.67741935483871" opacity="1" fill="#000000">
2020-01-09Z
</text>
<polyline fill="none" opacity="1" stroke="#000000" stroke-width="1" points="972,740 972,745 "/>
<text x="1086" y="750" dy="0.76em" text-anchor="middle" font-family="sans-serif" font-size="9.67741935483871" opacity="1" fill="#000000">
2020-07-23Z
</text>
<polyline fill="none" opacity="1" stroke="#000000" stroke-width="1" points="1086,740 1086,745 "/>
<polyline fill="none" opacity="1" stroke="#E61919" stroke-width="2" points="917,738 918,738 919,738 920,738 920,738 921,738 922,738 922,737 923,737 923,737 924,737 924,737 925,736 925,736 926,736 926,736 927,735 928,735 928,734 929,734 929,734 930,734 931,732 932,732 932,732 933,731 933,730 934,730 935,728 935,724 936,724 936,724 937,724 938,723 938,723 939,723 939,721 940,718 940,717 941,717 942,716 942,716 943,715 943,715 944,714 945,714 945,712 946,712 946,711 947,711 947,711 948,711 949,710 949,710 950,708 950,708 951,707 952,707 952,707 953,707 953,707 954,705 954,705 955,704 956,704 956,704 957,703 957,703 958,703 958,702 959,702 960,702 960,701 961,701 961,701 962,700 963,699 963,699 964,698 964,698 965,698 965,698 966,696 967,695 967,695 968,693 968,692 969,691 970,691 970,690 971,690 971,688 972,687 972,685 973,685 974,684 974,682 975,680 975,680 976,680 977,679 977,679 978,678 978,678 979,678 979,677 980,677 981,674 981,673 982,672 982,672 983,671 984,671 984,670 985,670 985,670 986,670 986,667 987,667 988,666 988,666 989,664 989,663 990,662 990,662 991,662 992,661 992,661 993,661 993,660 994,659 995,658 995,657 996,657 996,656 997,656 997,656 998,656 999,655 999,654 1000,653 1000,653 1001,652 1002,652 1002,650 1003,650 1003,649 1004,649 1004,649 1005,649 1005,649 1006,649 1006,648 1006,647 1007,646 1007,646 1007,646 1007,645 1008,645 1009,645 1009,642 1009,642 1009,637 1010,637 1010,637 1010,637 1010,635 1011,635 1011,635 1011,635 1011,634 1012,634 1012,633 1013,633 1013,632 1013,632 1013,631 1014,631 1014,631 1014,630 1015,630 1015,629 1016,628 1016,628 1016,627 1017,627 1017,626 1017,626 1017,625 1018,625 1018,625 1018,625 1018,623 1019,623 1019,623 1020,623 1020,623 1020,622 1021,622 1021,622 1021,622 1021,621 1022,621 1022,619 1023,619 1023,619 1023,619 1023,617 1024,617 1024,616 1024,616 1024,614 1025,614 1025,612 1025,609 1026,609 1026,608 1027,608 1027,606 1027,606 1027,605 1028,605 1028,604 1028,604 1028,604 1029,604 1029,603 1029,602 1029,601 1030,601 1030,598 1031,598 1031,598 1031,598 1031,596 1032,596 1032,595 1032,594 1033,593 1034,593 1034,593 1034,593 1034,591 1035,591 1035,589 1035,589 1035,589 1036,589 1036,589 1036,589 1036,588 1037,588 1037,586 1038,586 1038,586 1038,586 1038,586 1039,584 1039,584 1039,581 1040,581 1040,580 1041,580 1041,579 1041,579 1041,577 1042,577 1042,574 1042,574 1043,574 1043,573 1043,573 1043,572 1044,572 1044,569 1045,569 1045,567 1045,567 1045,565 1046,565 1046,565 1046,565 1046,564 1047,564 1047,562 1048,562 1048,557 1048,557 1048,554 1049,554 1049,551 1049,551 1049,549 1050,549 1050,548 1050,548 1050,547 1051,547 1051,545 1052,545 1052,542 1052,542 1052,541 1053,541 1053,541 1053,540 1054,540 1054,537 1055,537 1055,534 1055,534 1055,532 1056,532 1056,530 1056,530 1056,528 1057,528 1057,528 1057,528 1057,527 1058,527 1058,524 1059,524 1059,522 1059,520 1060,520 1060,517 1060,517 1060,515 1061,515 1061,514 1061,514 1061,512 1062,512 1062,510 1063,508 1063,506 1064,506 1064,505 1064,504 1065,504 1065,503 1066,503 1066,501 1066,501 1066,500 1067,500 1067,498 1067,498 1067,498 1068,498 1068,496 1068,496 1068,496 1069,496 1069,495 1070,495 1070,494 1070,494 1070,493 1071,492 1071,492 1071,492 1072,492 1072,490 1073,490 1073,487 1073,487 1073,486 1074,486 1074,485 1074,485 1074,484 1075,484 1075,483 1075,483 1075,480 1076,480 1076,479 1077,479 1077,478 1077,478 1077,477 1078,477 1078,476 1078,476 1078,475 1079,475 1079,474 1080,474 1080,473 1080,471 1081,471 1081,471 1081,470 1081,470 1082,470 1082,469 1082,469 1082,468 1083,468 1083,467 1084,467 1084,466 1084,466 1084,463 1085,462 1085,462 1085,461 1086,461 1086,460 1087,460 1087,458 1087,458 1087,458 1088,458 1088,456 1088,456 1088,454 1089,454 1089,452 1089,452 1089,452 1090,452 1090,450 1091,450 1091,449 1091,449 1091,448 1092,448 1092,445 1092,445 1092,443 1093,443 1093,442 1093,442 1093,441 1094,441 1094,438 1095,438 1095,437 1095,437 1095,434 1096,434 1096,434 1096,431 1097,431 1097,429 1098,429 1098,426 1098,426 1098,424 1099,424 1099,422 1099,422 1099,419 1100,419 1100,418 1100,418 1100,416 1101,416 1101,414 1102,414 1102,412 1102,412 1102,411 1103,411 1103,409 1103,409 1103,408 1104,408 1104,407 1105,407 1105,404 1105,404 1105,403 1106,403 1106,402 1106,402 1106,402 1107,402 1107,399 1107,399 1107,397 1108,397 1108,395 1109,395 1109,392 1109,392 1109,389 1110,389 1110,381 1110,381 1110,378 1111,378 1111,378 1112,377 1112,376 1112,375 1113,375 1113,374 1113,374 1113,372 1114,369 1114,369 1114,368 1115,368 1115,366 1116,366 1116,365 1116,365 1116,362 1117,362 1117,361 1117,361 1117,358 1118,358 1118,355 1119,355 1119,354 1119,354 1119,349 1120,349 1120,349 1120,347 1121,347 1121,345 1121,345 1121,343 1122,343 1122,341 1123,340 1123,340 1123,340 1123,339 1124,339 1124,339 1124,339 1124,338 1125,338 1125,336 1125,336 1125,334 1126,334 1126,333 1127,333 1127,331 1127,331 1127,329 1128,329 1128,329 1128,329 1128,328 1129,328 1129,327 1130,327 1130,326 1130,326 1130,326 1131,326 1131,326 1131,326 1131,325 1132,325 1132,323 1132,323 1132,322 1133,322 1133,320 1134,320 1134,319 1134,319 1134,318 1135,318 1135,317 1135,317 1135,316 1136,316 1136,315 1137,315 1137,313 1137,313 1137,310 1138,310 1138,309 1138,309 1138,308 1139,308 1139,306 1139,306 1139,303 1140,303 1140,301 1141,301 1141,300 1141,300 1141,298 1142,298 1142,297 1142,297 1142,292 1143,292 1143,290 1144,290 1144,289 1144,289 1144,289 1145,289 1145,288 1145,288 1145,286 1146,286 1146,286 1146,286 1146,286 1147,286 1147,284 1148,282 1148,282 1148,279 1149,279 1149,276 1149,276 1149,274 1150,274 1150,273 1151,273 1151,269 1151,269 1151,269 1152,269 1152,268 1152,268 1152,266 1153,266 1153,266 1153,266 1153,264 1154,264 1154,264 1155,264 1155,263 1155,263 1155,262 1156,262 1156,260 1156,260 1156,259 1157,259 1157,257 1157,257 1157,255 1158,255 1158,254 1159,254 1159,252 1159,251 1160,251 1160,251 1160,251 1160,249 1161,249 1161,246 1162,246 1162,245 1162,243 1163,243 1163,243 1163,242 1163,240 1164,240 1164,239 1164,239 1164,237 1165,237 1165,237 1166,237 1166,235 1166,235 1166,235 1167,235 1167,234 1167,234 1167,233 1168,233 1168,232 1169,232 1169,231 1169,231 1169,229 1170,229 1170,229 1170,229 1170,229 1171,229 1171,228 1171,228 1171,227 1172,227 1172,226 1173,226 1173,226 1173,226 1173,225 1174,225 1174,223 1174,223 1174,221 1175,221 1175,221 1176,221 1176,220 1176,220 1176,220 1177,220 1177,219 1177,219 1177,215 1178,215 1178,212 1178,212 1178,209 1179,209 1179,207 1180,207 1180,206 1180,206 1180,204 1181,204 1181,201 1181,201 1181,196 1182,196 1182,192 1183,192 1183,190 1183,189 1184,189 1184,188 1184,188 1184,186 1185,186 1185,186 1185,185 1185,183 1186,183 1186,182 1187,182 1187,180 1187,180 1187,178 1188,178 1188,176 1188,176 1188,171 1189,171 1189,168 1190,168 "/>
<polyline fill="none" opacity="1" stroke="#E6C819" stroke-width="2" points="753,738 759,738 764,738 766,737 787,737 793,737 806,736 807,736 810,735 811,735 814,735 815,735 816,735 817,735 817,734 818,734 821,734 822,734 822,734 823,734 825,734 826,734 826,734 827,734 828,734 829,734 829,734 830,734 830,734 831,734 832,733 832,733 834,733 835,733 836,733 837,733 837,733 838,733 839,733 840,733 840,733 841,733 842,733 843,733 844,733 844,733 845,733 846,733 847,733 848,733 849,733 850,733 851,733 851,732 852,732 853,732 853,732 854,732 854,731 855,731 856,731 856,731 857,731 857,731 858,731 858,731 859,731 860,731 860,730 861,730 861,730 862,730 862,730 863,730 864,730 864,730 865,730 865,730 866,730 867,730 868,730 868,730 869,729 869,729 870,729 871,729 871,730 872,730 872,730 873,730 874,729 875,729 875,729 876,729 876,729 877,729 878,729 879,729 879,729 880,729 881,729 881,729 882,729 882,729 883,729 883,729 884,729 885,729 885,729 886,729 886,729 887,729 888,729 888,729 889,729 889,729 890,728 891,728 892,728 892,728 893,728 893,728 894,728 894,728 895,728 896,728 896,727 897,727 897,727 898,727 899,726 899,726 900,726 900,726 901,726 901,726 902,726 903,726 903,726 904,726 904,726 905,726 906,726 906,726 907,726 907,726 908,726 908,726 909,726 910,726 911,726 911,726 912,726 913,726 914,726 914,725 915,725 915,725 917,725 917,725 918,725 918,725 919,725 920,725 920,725 921,725 922,725 922,725 923,725 923,725 924,725 924,725 925,725 925,725 926,725 926,725 928,725 928,725 929,725 929,725 930,725 931,725 931,725 932,725 932,725 933,725 933,725 934,725 935,725 935,725 936,725 936,724 937,724 938,724 938,724 939,724 940,724 940,724 941,724 942,724 942,724 943,724 943,724 944,724 945,724 945,724 946,724 946,724 947,724 947,724 948,724 949,724 950,724 950,724 951,724 952,724 952,724 953,724 953,724 954,724 954,724 955,724 956,724 956,724 957,724 957,724 958,724 958,724 959,724 960,724 960,724 961,724 962,724 963,724 963,724 964,724 964,724 965,724 965,724 966,724 967,724 967,724 968,724 968,724 969,724 970,724 971,724 971,724 972,724 972,724 973,724 974,724 974,724 975,724 975,723 976,723 977,723 977,724 978,723 978,723 979,723 979,723 980,723 981,723 981,723 982,723 982,723 983,723 984,723 984,723 985,723 985,723 986,723 986,723 987,723 988,722 988,722 989,721 989,721 990,721 990,721 991,721 992,721 992,722 993,722 993,721 994,721 995,721 995,721 996,721 996,721 997,721 997,721 998,720 999,720 1000,720 1000,720 1001,720 1002,720 1002,721 1003,721 1003,720 1004,720 1004,720 1005,720 1005,721 1006,721 1006,721 1006,721 1007,721 1007,720 1007,720 1007,721 1008,721 1009,721 1009,721 1009,721 1009,721 1010,721 1010,721 1010,721 1010,721 1011,721 1011,721 1011,721 1011,721 1012,721 1012,721 1013,721 1013,721 1013,721 1013,721 1014,721 1014,720 1014,720 1015,720 1015,720 1016,720 1016,720 1016,720 1017,720 1017,720 1017,720 1017,720 1018,720 1018,720 1018,720 1018,720 1019,720 1019,720 1020,720 1020,720 1020,720 1021,720 1021,720 1021,720 1021,720 1022,720 1022,720 1023,720 1023,720 1023,720 1023,720 1024,720 1024,720 1024,720 1024,720 1025,720 1025,720 1025,720 1026,720 1026,720 1027,720 1027,720 1027,720 1027,720 1028,720 1028,720 1028,720 1028,720 1029,720 1029,720 1029,720 1029,720 1030,720 1030,720 1031,720 1031,720 1031,720 1031,720 1032,720 1032,720 1032,720 1033,720 1034,720 1034,720 1034,720 1034,719 1035,719 1035,719 1035,719 1035,719 1036,719 1036,719 1036,719 1036,719 1037,719 1037,719 1038,719 1038,719 1038,719 1038,719 1039,719 1039,719 1039,719 1040,719 1040,719 1041,719 1041,719 1041,719 1042,719 1042,719 1042,719 1043,719 1043,719 1043,719 1043,719 1044,719 1044,719 1045,719 1045,719 1045,719 1045,719 1046,719 1046,719 1046,719 1046,719 1047,719 1047,719 1048,719 1048,719 1048,719 1048,719 1049,719 1049,719 1049,719 1049,719 1050,719 1050,719 1050,719 1050,719 1051,719 1051,719 1052,719 1052,719 1052,719 1052,719 1053,719 1053,719 1053,719 1054,719 1054,719 1055,719 1055,719 1055,719 1055,719 1056,719 1056,719 1056,719 1056,719 1057,719 1057,719 1057,719 1057,719 1058,719 1058,719 1059,719 1059,719 1059,719 1060,719 1060,719 1060,719 1060,719 1061,719 1061,719 1061,719 1061,719 1062,719 1062,719 1063,719 1063,719 1064,719 1064,719 1064,719 1065,719 1065,719 1066,719 1066,719 1066,719 1066,719 1067,719 1067,719 1067,719 1067,719 1068,719 1068,719 1068,719 1068,719 1069,719 1069,719 1070,719 1070,719 1070,719 1070,719 1071,719 1071,719 1071,719 1072,719 1072,719 1073,719 1073,719 1073,719 1073,719 1074,719 1074,719 1074,719 1074,719 1075,719 1075,719 1075,719 1075,719 1076,719 1076,719 1077,719 1077,719 1077,719 1077,719 1078,719 1078,719 1078,719 1078,719 1079,719 1079,719 1080,719 1080,719 1080,719 1081,719 1081,719 1081,719 1081,719 1082,719 1082,719 1082,719 1082,719 1083,719 1083,719 1084,719 1084,719 1084,719 1085,719 1085,719 1085,719 1086,719 1086,719 1087,719 1087,719 1087,719 1087,719 1088,719 1088,719 1088,719 1088,719 1089,719 1089,719 1089,719 1089,719 1090,719 1090,719 1091,719 1091,719 1091,719 1091,719 1092,719 1092,719 1092,719 1092,719 1093,719 1093,719 1093,719 1093,719 1094,719 1094,719 1095,719 1095,719 1095,719 1095,719 1096,719 1096,719 1096,719 1097,719 1097,719 1098,719 1098,719 1098,719 1098,719 1099,719 1099,719 1099,719 1099,719 1100,719 1100,719 1100,719 1100,719 1101,719 1101,719 1102,719 1102,719 1102,719 1102,719 1103,719 1103,719 1103,719 1103,719 1104,719 1104,719 1105,719 1105,719 1105,719 1105,719 1106,719 1106,719 1106,719 1106,719 1107,719 1107,719 1107,719 1107,719 1108,719 1108,719 1109,719 1109,719 1109,719 1110,719 1110,719 1110,719 1110,719 1111,719 1111,719 1112,719 1112,719 1112,719 1113,719 1113,719 1113,719 1113,718 1114,718 1114,718 1114,718 1115,718 1115,718 1116,718 1116,718 1116,718 1116,718 1117,718 1117,718 1117,718 1117,718 1118,718 1118,718 1119,718 1119,718 1119,718 1119,718 1120,718 1120,718 1120,718 1121,718 1121,718 1121,718 1121,718 1122,718 1122,718 1123,718 1123,718 1123,718 1123,718 1124,718 1124,718 1124,718 1124,718 1125,718 1125,718 1125,718 1126,718 1126,717 1127,717 1127,717 1127,717 1127,717 1128,717 1128,717 1128,717 1128,717 1129,717 1129,717 1130,717 1130,717 1130,717 1131,717 1131,717 1131,717 1131,717 1132,717 1132,717 1132,717 1132,717 1133,717 1133,717 1134,717 1134,717 1134,717 1134,717 1135,717 1135,717 1135,717 1135,718 1136,718 1136,718 1137,718 1137,718 1137,718 1138,718 1138,718 1138,718 1138,718 1139,718 1139,718 1139,718 1139,718 1140,718 1140,718 1141,718 1141,718 1141,718 1141,718 1142,718 1142,718 1142,718 1142,718 1143,718 1143,718 1144,718 1144,718 1144,718 1144,718 1145,718 1145,718 1145,718 1145,718 1146,718 1146,718 1146,718 1146,718 1147,718 1147,718 1148,718 1148,718 1148,718 1149,718 1149,718 1149,718 1149,718 1150,718 1150,718 1151,718 1151,718 1151,718 1151,718 1152,718 1152,718 1152,718 1152,718 1153,718 1153,718 1153,718 1153,718 1154,718 1154,719 1155,719 1155,719 1155,719 1155,719 1156,719 1156,719 1156,719 1156,719 1157,719 1157,719 1157,719 1157,719 1158,719 1158,719 1159,719 1159,719 1159,719 1160,719 1160,719 1160,719 1160,719 1161,719 1161,718 1162,718 1162,718 1162,718 1162,718 1163,718 1163,718 1163,718 1163,718 1164,718 1164,717 1164,717 1164,717 1165,717 1165,717 1166,717 1166,717 1166,717 1166,717 1167,717 1167,717 1167,717 1167,717 1168,717 1168,717 1169,717 1169,717 1169,717 1169,717 1170,717 1170,717 1170,717 1170,717 1171,717 1171,717 1171,717 1171,717 1172,717 1172,717 1173,717 1173,717 1173,717 1173,717 1174,717 1174,717 1174,717 1174,717 1175,717 1175,717 1176,717 1176,717 1176,717 1176,717 1177,717 1177,717 1177,717 1178,717 1178,717 1178,717 1178,717 1179,717 1179,717 1180,717 1180,717 1180,717 1180,717 1181,717 1181,717 1181,717 1181,717 1182,717 1182,718 1183,718 1183,718 1183,717 1184,717 1184,717 1184,717 1184,717 1185,717 1185,717 1185,717 1185,717 1186,717 1186,717 1187,717 1187,717 1187,717 1188,717 1188,717 1188,717 1188,716 1189,716 1189,716 1190,716 "/>
<polyline fill="none" opacity="1" stroke="#54E619" stroke-width="2" points="217,738 218,738 222,738 227,738 233,738 234,737 235,737 239,737 250,736 250,736 252,736 256,735 257,735 258,734 259,734 260,734 263,734 264,734 265,734 266,733 268,732 269,732 272,732 274,731 275,731 277,730 277,729 278,728 279,728 282,728 284,727 284,727 285,727 286,726 287,726 288,726 288,726 289,726 289,726 291,726 291,726 292,726 292,726 293,726 293,725 294,725 295,725 295,725 296,725 296,725 297,724 297,724 298,723 299,722 299,722 300,722 301,721 302,721 303,721 306,721 307,720 307,720 308,720 309,720 310,719 310,719 311,719 311,718 312,717 313,716 314,715 315,715 316,715 316,714 317,714 318,714 318,713 319,713 320,713 321,712 321,712 322,711 323,710 323,709 324,708 324,706 325,706 325,705 326,705 327,705 327,705 328,703 328,703 329,703 329,702 331,701 331,701 332,701 332,700 333,700 334,700 334,700 335,699 335,699 336,699 336,699 337,697 338,697 338,697 339,697 339,697 340,697 341,697 342,697 343,696 344,696 345,695 345,695 346,695 346,695 347,695 348,694 348,694 349,694 349,694 350,694 350,693 351,693 352,693 352,692 353,692 353,692 354,692 355,691 355,690 356,689 357,689 357,688 358,687 359,687 359,687 360,687 360,687 361,687 361,686 362,686 363,686 363,686 364,685 364,685 365,685 366,684 366,684 367,684 367,683 368,682 368,682 369,682 370,682 370,681 371,680 371,680 372,680 373,680 373,680 374,680 374,678 375,678 375,676 376,676 377,676 377,676 378,675 378,675 379,674 380,673 380,673 381,673 381,672 382,672 382,672 383,672 384,672 384,671 385,671 385,671 386,671 387,671 387,671 388,671 388,671 389,670 389,670 390,669 391,669 391,668 392,668 392,667 393,667 393,666 394,666 395,666 395,665 396,665 396,665 397,665 398,664 398,664 399,663 399,662 400,662 400,661 401,660 402,660 402,659 403,659 403,659 404,658 405,658 405,657 406,657 406,657 407,656 407,656 408,655 409,654 409,653 410,653 410,652 411,652 412,651 412,650 413,649 413,649 414,649 414,649 415,649 416,649 416,648 417,649 417,647 418,646 419,646 419,646 420,645 420,645 421,645 421,645 422,645 423,644 423,644 424,644 424,644 425,643 425,642 426,642 427,641 427,641 428,640 428,640 429,639 430,639 430,638 431,638 431,637 432,637 432,636 433,636 434,636 434,635 435,635 435,634 436,634 437,634 437,634 438,633 438,633 439,633 439,633 440,633 441,632 441,632 442,631 442,631 443,631 444,630 444,628 445,628 445,628 446,626 446,625 447,625 448,624 448,623 449,623 449,622 450,621 451,621 451,620 452,620 452,620 453,619 453,618 454,618 455,618 455,617 456,617 456,617 457,616 458,617 458,616 459,616 459,615 460,615 460,614 461,614 462,613 462,613 463,613 463,612 464,611 464,611 465,610 466,609 466,609 467,608 467,608 468,607 469,607 469,607 470,605 470,605 471,604 471,604 472,602 473,602 473,601 474,601 474,601 475,599 476,599 476,598 477,598 477,598 478,598 478,597 479,597 480,596 480,596 481,597 481,596 482,596 483,596 483,596 484,596 484,596 485,589 485,588 486,588 487,587 487,587 488,586 488,585 489,584 490,584 490,583 491,583 491,583 492,582 492,582 493,582 494,581 494,580 495,580 495,579 496,578 496,578 497,577 498,577 498,577 499,577 499,577 500,577 501,577 501,577 502,577 502,577 503,577 503,576 504,576 505,576 505,575 506,575 506,575 507,574 508,574 508,574 509,574 509,574 510,573 510,571 511,571 512,570 512,569 513,569 513,569 514,569 515,568 515,567 516,567 516,567 517,567 517,566 518,566 519,566 519,566 520,566 520,565 521,565 522,565 522,565 523,565 523,564 524,564 524,563 525,563 526,562 526,562 527,562 527,560 528,560 528,560 529,560 530,559 530,559 531,560 531,560 532,560 533,559 533,559 534,559 534,558 535,558 535,557 536,557 537,557 537,556 538,555 538,555 539,555 540,555 540,553 541,552 541,551 542,551 542,551 543,550 544,550 544,550 545,550 545,550 546,549 547,549 547,549 548,549 548,549 549,548 549,548 550,548 551,548 551,548 552,548 552,547 553,547 554,546 554,546 555,546 555,546 556,547 556,546 557,547 558,546 558,547 559,548 559,548 560,547 560,547 561,546 562,546 562,546 563,546 563,546 564,546 565,545 565,545 566,545 566,545 567,545 567,544 568,543 569,543 569,543 570,543 570,543 571,543 572,543 572,543 573,543 573,543 574,543 574,543 575,543 576,543 576,543 577,543 577,544 578,546 579,546 579,546 580,546 580,545 581,546 581,545 582,545 583,545 583,544 584,543 584,543 585,543 586,543 586,543 587,543 587,543 588,543 588,542 589,542 590,542 590,542 591,542 591,542 592,542 592,543 593,542 594,542 594,542 595,542 595,541 596,541 597,541 597,541 598,541 598,541 599,541 599,541 600,541 601,541 601,541 602,541 602,541 603,541 604,541 604,541 605,541 605,541 606,541 606,541 607,541 608,541 608,540 609,540 609,541 610,541 611,541 611,540 612,539 612,539 613,539 613,539 614,539 615,539 615,539 616,538 616,539 617,538 618,539 618,539 619,539 619,539 620,539 620,539 621,538 622,538 622,537 623,537 623,537 624,537 625,537 625,537 626,538 626,538 627,538 627,539 628,539 629,539 629,539 630,539 630,539 631,539 631,538 632,538 633,538 633,538 634,538 634,538 635,537 636,538 636,538 637,537 637,537 638,537 638,537 639,537 640,537 640,537 641,537 641,537 642,537 643,537 643,537 644,537 644,537 645,537 645,537 646,537 647,537 647,537 648,537 648,537 649,537 650,537 650,537 651,537 651,537 652,537 652,536 653,536 654,536 654,536 655,536 655,536 656,536 657,534 657,534 658,534 658,534 659,534 659,534 660,535 661,535 661,535 662,535 662,535 663,535 663,535 664,535 665,535 665,536 666,536 666,536 667,536 668,537 668,537 669,536 669,536 670,536 670,536 671,536 672,536 672,536 673,536 673,536 674,536 675,536 675,536 676,536 676,536 677,536 677,536 678,535 679,535 679,534 680,534 680,534 681,534 682,534 682,534 683,534 683,534 684,534 684,534 685,534 686,534 686,533 687,533 687,533 688,533 689,533 689,533 690,534 690,533 691,533 691,533 692,533 693,533 693,533 694,533 694,532 695,532 695,532 696,533 697,532 697,532 698,532 698,532 698,532 699,531 700,531 700,531 701,531 701,531 702,531 702,532 703,532 704,532 704,532 705,531 705,531 706,531 707,531 707,531 708,531 708,531 709,531 709,531 710,531 711,531 711,531 712,531 712,531 713,531 714,531 714,531 715,531 715,531 716,531 716,530 717,530 718,530 718,530 719,530 719,530 720,529 721,529 721,528 722,528 722,528 723,528 723,528 724,529 725,537 725,537 726,537 726,537 727,537 727,537 728,537 729,536 729,537 730,537 730,536 731,536 732,536 732,536 733,536 733,536 734,536 734,536 735,536 736,536 736,536 737,536 737,536 738,536 739,536 739,536 740,536 740,536 741,536 741,536 742,536 743,536 743,536 744,536 744,536 745,536 746,536 746,536 747,537 747,537 748,536 748,536 749,536 750,536 750,537 751,537 751,537 752,537 753,537 753,537 754,536 754,536 755,536 755,537 756,537 757,537 757,537 758,537 758,538 759,537 759,537 760,537 761,537 761,537 762,537 762,537 763,537 764,537 764,537 765,537 765,537 766,537 766,537 767,536 768,536 768,536 769,536 769,536 770,536 771,535 771,535 772,535 772,535 773,535 773,535 774,535 775,536 775,536 776,536 776,536 777,536 778,536 778,536 779,536 779,536 780,537 780,537 781,536 782,536 782,536 783,536 783,536 784,534 785,534 785,534 786,534 786,534 787,534 787,535 788,535 789,535 789,535 790,535 790,535 791,535 791,535 792,535 793,535 793,535 794,535 794,535 795,535 796,535 796,535 797,535 797,535 798,535 798,535 799,535 800,535 800,535 801,535 801,535 802,535 803,535 803,535 804,535 804,535 805,535 805,535 806,535 807,535 807,535 808,535 808,535 809,535 810,536 810,534 811,534 811,534 812,534 812,534 813,534 814,534 814,534 815,534 815,534 816,534 817,534 817,534 818,534 818,534 819,534 819,534 820,534 821,535 821,535 822,535 822,534 823,534 824,534 824,535 825,535 825,535 826,535 826,534 827,535 828,535 828,535 829,535 829,535 830,535 830,535 831,535 832,535 832,535 833,535 833,535 834,535 835,535 835,535 836,535 836,535 837,535 837,535 838,535 839,535 839,535 840,535 840,535 841,534 842,534 842,534 843,533 843,533 844,533 844,533 845,533 846,533 846,533 847,533 847,533 848,533 849,533 849,533 850,533 850,533 851,533 851,534 852,534 853,534 853,534 854,534 854,534 855,534 856,534 856,534 857,534 857,534 858,534 858,534 859,534 860,534 860,534 861,534 861,534 862,534 862,533 863,533 864,533 864,533 865,533 865,533 866,533 867,533 867,533 868,533 868,533 869,533 869,533 870,533 871,533 871,533 872,533 872,533 873,533 874,533 874,533 875,532 875,532 876,532 876,532 877,532 878,532 878,532 879,532 879,532 880,532 881,532 881,532 882,531 882,531 883,531 883,531 884,531 885,531 885,532 886,532 886,532 887,532 888,532 888,532 889,532 889,532 890,532 890,532 891,532 892,532 892,532 893,532 893,532 894,532 894,532 895,532 896,532 896,532 897,532 897,532 898,532 899,532 899,532 900,532 900,532 901,532 901,532 902,532 903,532 903,532 904,532 904,532 905,532 906,532 906,532 907,532 907,532 908,532 908,532 909,530 910,530 910,530 911,530 911,530 912,530 913,530 913,529 914,529 914,529 915,530 915,530 916,530 917,530 917,529 918,529 918,529 919,529 920,529 920,529 921,529 921,529 922,530 922,529 923,529 923,530 924,530 924,530 925,530 925,530 926,530 926,530 927,530 928,529 928,529 929,529 929,529 930,530 931,530 931,530 932,530 932,530 933,530 933,529 934,530 935,529 935,529 936,528 936,528 937,528 938,528 938,528 939,528 939,527 940,527 940,528 941,528 942,528 942,528 943,528 943,528 944,528 945,528 945,528 946,528 946,528 947,528 947,528 948,528 949,528 949,528 950,528 950,529 951,529 952,529 952,528 953,528 953,528 954,528 954,528 955,528 956,528 956,528 957,528 957,528 958,528 958,529 959,529 960,528 960,528 961,528 961,528 962,528 963,528 963,528 964,528 964,528 965,528 965,528 966,528 967,528 967,528 968,528 968,528 969,528 970,528 970,528 971,528 971,528 972,528 972,528 973,529 974,529 974,529 975,529 975,529 976,530 977,530 977,530 978,530 978,530 979,530 979,530 980,530 981,530 981,530 982,531 982,531 983,531 984,531 984,531 985,531 985,530 986,530 986,530 987,530 988,530 988,530 989,530 989,530 990,530 990,529 991,529 992,529 992,529 993,529 993,528 994,528 995,529 995,529 996,529 996,529 997,529 997,529 998,529 999,529 999,529 1000,529 1000,528 1001,528 1002,528 1002,528 1003,528 1003,528 1004,528 1004,528 1005,528 1005,528 1006,528 1006,528 1006,528 1007,528 1007,528 1007,528 1007,529 1008,529 1009,529 1009,529 1009,529 1009,529 1010,529 1010,529 1010,529 1010,529 1011,529 1011,529 1011,529 1011,529 1012,529 1012,529 1013,529 1013,529 1013,529 1013,529 1014,529 1014,529 1014,530 1015,530 1015,530 1016,530 1016,530 1016,530 1017,530 1017,530 1017,530 1017,530 1018,530 1018,530 1018,530 1018,530 1019,530 1019,530 1020,530 1020,530 1020,529 1021,529 1021,529 1021,529 1021,529 1022,529 1022,530 1023,530 1023,529 1023,529 1023,530 1024,530 1024,530 1024,530 1024,530 1025,530 1025,530 1025,530 1026,530 1026,530 1027,530 1027,530 1027,530 1027,530 1028,530 1028,530 1028,530 1028,530 1029,530 1029,530 1029,530 1029,530 1030,530 1030,530 1031,530 1031,530 1031,530 1031,530 1032,530 1032,530 1032,530 1033,530 1034,530 1034,530 1034,530 1034,530 1035,530 1035,530 1035,530 1035,530 1036,530 1036,530 1036,530 1036,530 1037,530 1037,530 1038,530 1038,530 1038,530 1038,531 1039,531 1039,531 1039,530 1040,530 1040,530 1041,530 1041,530 1041,530 1041,530 1042,530 1042,530 1042,530 1043,530 1043,530 1043,530 1043,530 1044,530 1044,529 1045,529 1045,529 1045,529 1045,529 1046,529 1046,529 1046,529 1046,529 1047,529 1047,529 1048,529 1048,529 1048,529 1048,529 1049,529 1049,529 1049,529 1049,529 1050,529 1050,529 1050,529 1050,529 1051,529 1051,530 1052,530 1052,530 1052,530 1052,529 1053,529 1053,529 1053,529 1054,529 1054,529 1055,529 1055,529 1055,529 1055,528 1056,528 1056,529 1056,529 1056,529 1057,529 1057,529 1057,529 1057,529 1058,529 1058,529 1059,529 1059,529 1059,529 1060,529 1060,529 1060,529 1060,529 1061,529 1061,529 1061,529 1061,530 1062,530 1062,530 1063,530 1063,530 1064,530 1064,530 1064,530 1065,530 1065,529 1066,529 1066,529 1066,529 1066,529 1067,529 1067,529 1067,529 1067,528 1068,528 1068,528 1068,528 1068,528 1069,528 1069,528 1070,528 1070,528 1070,528 1070,528 1071,528 1071,528 1071,528 1072,528 1072,528 1073,528 1073,528 1073,528 1073,528 1074,528 1074,528 1074,528 1074,528 1075,528 1075,528 1075,528 1075,528 1076,528 1076,528 1077,528 1077,528 1077,528 1077,528 1078,528 1078,528 1078,528 1078,528 1079,528 1079,528 1080,528 1080,527 1080,527 1081,527 1081,527 1081,527 1081,527 1082,527 1082,527 1082,527 1082,527 1083,527 1083,527 1084,527 1084,527 1084,527 1084,527 1085,527 1085,527 1085,527 1086,527 1086,527 1087,527 1087,527 1087,527 1087,527 1088,527 1088,527 1088,527 1088,527 1089,527 1089,526 1089,526 1089,526 1090,526 1090,526 1091,526 1091,526 1091,526 1091,526 1092,526 1092,525 1092,525 1092,525 1093,525 1093,525 1093,525 1093,525 1094,525 1094,525 1095,525 1095,525 1095,525 1095,525 1096,525 1096,525 1096,525 1097,525 1097,525 1098,525 1098,525 1098,525 1098,525 1099,525 1099,525 1099,525 1099,525 1100,525 1100,525 1100,525 1100,525 1101,525 1101,525 1102,525 1102,525 1102,525 1102,525 1103,525 1103,525 1103,525 1103,525 1104,525 1104,525 1105,525 1105,525 1105,525 1105,525 1106,525 1106,525 1106,525 1106,526 1107,526 1107,526 1107,526 1107,526 1108,526 1108,526 1109,526 1109,526 1109,526 1109,526 1110,526 1110,525 1110,525 1110,525 1111,525 1111,525 1112,525 1112,525 1112,525 1113,525 1113,525 1113,525 1113,525 1114,525 1114,525 1114,525 1115,525 1115,525 1116,525 1116,525 1116,525 1116,525 1117,525 1117,525 1117,525 1117,525 1118,525 1118,525 1119,525 1119,525 1119,525 1119,525 1120,525 1120,525 1120,525 1121,525 1121,525 1121,525 1121,525 1122,525 1122,525 1123,525 1123,525 1123,525 1123,525 1124,525 1124,525 1124,525 1124,525 1125,525 1125,525 1125,525 1125,525 1126,525 1126,525 1127,525 1127,525 1127,525 1127,525 1128,525 1128,525 1128,525 1128,525 1129,525 1129,525 1130,525 1130,525 1130,525 1130,526 1131,526 1131,526 1131,526 1131,526 1132,526 1132,526 1132,526 1132,526 1133,526 1133,526 1134,526 1134,526 1134,526 1134,526 1135,526 1135,526 1135,526 1135,526 1136,526 1136,526 1137,526 1137,526 1137,526 1137,526 1138,526 1138,526 1138,526 1138,527 1139,527 1139,526 1139,526 1139,526 1140,526 1140,526 1141,526 1141,526 1141,526 1141,526 1142,526 1142,526 1142,526 1142,527 1143,527 1143,527 1144,527 1144,527 1144,527 1144,526 1145,526 1145,526 1145,526 1145,526 1146,526 1146,526 1146,526 1146,526 1147,526 1147,526 1148,526 1148,526 1148,526 1149,526 1149,526 1149,526 1149,526 1150,526 1150,526 1151,526 1151,526 1151,526 1151,526 1152,526 1152,526 1152,526 1152,526 1153,526 1153,526 1153,526 1153,526 1154,526 1154,526 1155,526 1155,526 1155,526 1155,526 1156,526 1156,526 1156,526 1156,526 1157,526 1157,526 1157,526 1157,526 1158,526 1158,526 1159,526 1159,526 1159,526 1160,526 1160,526 1160,526 1160,526 1161,526 1161,526 1162,526 1162,525 1162,525 1162,525 1163,525 1163,525 1163,525 1163,526 1164,526 1164,526 1164,526 1164,526 1165,526 1165,526 1166,526 1166,526 1166,526 1166,526 1167,526 1167,526 1167,526 1167,526 1168,526 1168,526 1169,526 1169,526 1169,526 1169,526 1170,526 1170,526 1170,526 1170,526 1171,526 1171,526 1171,526 1171,526 1172,526 1172,526 1173,526 1173,526 1173,526 1173,526 1174,526 1174,526 1174,526 1174,526 1175,526 1175,526 1176,526 1176,526 1176,526 1176,526 1177,526 1177,526 1177,526 1177,526 1178,526 1178,526 1178,526 1178,526 1179,526 1179,526 1180,526 1180,526 1180,526 1180,526 1181,526 1181,526 1181,526 1181,526 1182,526 1182,526 1183,526 1183,526 1183,526 1184,526 1184,526 1184,526 1184,526 1185,526 1185,526 1185,526 1185,526 1186,526 1186,526 1187,526 1187,526 1187,526 1187,526 1188,526 1188,526 1188,526 1188,526 1189,526 1189,526 1190,526 "/>
<polyline fill="none" opacity="1" stroke="#19E68E" stroke-width="2" points="516,738 517,738 517,738 519,737 519,736 520,736 521,736 522,735 522,734 523,734 523,733 524,732 524,731 525,731 526,731 526,730 527,729 527,729 530,729 530,728 531,727 531,726 532,726 533,725 533,725 535,724 536,722 537,722 538,722 538,721 539,721 540,720 541,720 541,719 542,718 542,718 543,717 544,717 544,717 545,716 546,715 547,713 547,713 548,712 548,712 549,712 549,711 550,711 551,711 551,709 552,709 552,709 553,709 554,709 554,707 555,707 555,707 556,707 556,705 557,705 558,704 558,703 559,702 559,701 560,701 560,700 561,699 562,698 562,698 563,697 563,697 564,696 565,694 565,693 566,693 566,693 567,693 567,693 568,693 569,693 569,692 570,692 570,691 571,689 572,689 572,688 573,687 573,685 574,684 574,684 575,683 576,682 576,680 577,678 577,677 578,677 579,677 579,675 580,673 580,671 581,671 581,670 582,670 583,669 583,668 584,668 584,667 585,667 586,666 586,666 587,665 587,664 588,663 588,662 589,662 590,661 590,661 591,660 591,660 592,659 592,658 593,658 594,657 594,656 595,656 595,655 596,654 597,653 597,652 598,651 598,651 599,650 599,649 600,647 601,645 601,644 602,642 602,641 603,640 604,638 604,637 605,637 605,636 606,636 606,635 607,635 608,634 608,631 609,630 609,629 610,627 611,627 611,626 612,624 612,623 613,623 613,621 614,620 615,620 615,619 616,619 616,618 617,616 618,616 618,614 619,614 619,612 620,609 620,609 621,608 622,608 622,608 623,607 623,606 624,605 625,605 625,604 626,602 626,602 627,601 627,598 628,595 629,595 629,593 630,593 630,592 631,591 631,591 632,591 633,591 633,589 634,589 634,588 635,588 636,587 637,586 637,585 638,585 638,584 639,584 640,583 640,581 641,579 641,577 642,576 643,575 643,574 644,574 644,574 645,574 645,573 646,572 647,571 647,570 648,570 648,569 649,569 650,568 650,567 651,566 651,566 652,565 652,565 653,564 654,563 654,563 655,561 655,561 656,561 657,560 657,559 658,559 658,559 659,557 659,556 660,554 661,553 661,552 662,551 662,550 663,550 663,550 664,549 665,549 665,548 666,547 666,547 667,545 668,543 668,543 669,542 669,542 670,541 670,540 671,540 672,540 672,539 673,538 673,538 674,537 675,535 675,535 676,533 676,531 677,531 677,529 678,529 679,528 679,527 680,526 680,525 681,524 682,524 682,524 683,523 683,523 684,522 684,521 685,519 686,518 686,517 687,517 687,516 688,515 689,514 689,512 690,511 690,512 691,510 691,510 692,510 693,508 693,507 694,506 694,505 695,504 695,502 696,501 697,500 697,499 698,498 698,497 698,496 699,495 700,495 700,494 701,492 701,491 702,488 702,485 703,483 704,482 704,482 705,481 705,480 706,480 707,479 707,478 708,477 708,477 709,476 709,476 710,475 711,475 711,474 712,473 712,472 713,471 714,468 714,468 715,467 715,465 716,465 716,465 717,464 718,462 718,461 719,459 719,458 720,457 721,457 721,457 722,456 722,454 723,455 723,454 724,452 725,439 725,438 726,438 726,438 727,436 727,436 728,435 729,435 729,434 730,432 730,431 731,430 732,430 732,427 733,427 733,425 734,425 734,424 735,423 736,422 736,422 737,422 737,420 738,418 739,417 739,414 740,412 740,410 741,409 741,407 742,407 743,405 743,404 744,402 744,402 745,402 746,401 746,398 747,396 747,396 748,394 748,393 749,392 750,390 750,390 751,390 751,389 752,388 753,387 753,386 754,385 754,384 755,384 755,381 756,380 757,380 757,378 758,377 758,373 759,371 759,372 760,372 761,371 761,371 762,369 762,369 763,367 764,366 764,366 765,364 765,362 766,362 766,362 767,361 768,361 768,359 769,358 769,357 770,355 771,355 771,353 772,353 772,352 773,352 773,352 774,351 775,349 775,349 776,348 776,347 777,347 778,343 778,342 779,341 779,340 780,338 780,338 781,336 782,336 782,335 783,335 783,335 784,334 785,333 785,333 786,332 786,332 787,331 787,331 788,330 789,328 789,326 790,325 790,323 791,321 791,321 792,321 793,320 793,318 794,317 794,315 795,313 796,313 796,312 797,311 797,310 798,309 798,308 799,308 800,306 800,305 801,305 801,304 802,303 803,302 803,302 804,302 804,301 805,301 805,298 806,298 807,296 807,295 808,294 808,293 809,290 810,289 810,290 811,289 811,288 812,288 812,288 813,285 814,285 814,283 815,281 815,280 816,280 817,279 817,279 818,279 818,278 819,277 819,275 820,275 821,274 821,273 822,273 822,272 823,271 824,270 824,269 825,268 825,267 826,266 826,265 827,264 828,264 828,263 829,262 829,261 830,260 830,259 831,260 832,259 832,259 833,259 833,258 834,257 835,255 835,255 836,253 836,252 837,252 837,252 838,246 839,246 839,246 840,246 840,245 841,244 842,243 842,242 843,242 843,241 844,241 844,240 845,241 846,241 846,241 847,240 847,239 848,238 849,237 849,237 850,236 850,234 851,234 851,232 852,232 853,230 853,229 854,226 854,225 855,225 856,225 856,223 857,221 857,220 858,220 858,217 859,216 860,216 860,214 861,214 861,213 862,211 862,208 863,207 864,207 864,207 865,206 865,205 866,205 867,203 867,203 868,202 868,202 869,202 869,201 870,201 871,200 871,200 872,197 872,197 873,195 874,196 874,194 875,191 875,191 876,192 876,190 877,189 878,189 878,188 879,187 879,187 880,187 881,186 881,185 882,184 882,183 883,182 883,182 884,181 885,181 885,179 886,177 886,176 887,175 888,175 888,174 889,173 889,173 890,169 890,168 891,168 892,168 892,168 893,167 893,167 894,167 894,167 895,166 896,165 896,164 897,163 897,163 898,162 899,161 899,160 900,161 900,161 901,160 901,159 902,157 903,156 903,155 904,155 904,155 905,154 906,153 906,152 907,151 907,150 908,149 908,148 909,148 910,147 910,146 911,145 911,145 912,144 913,144 913,144 914,143 914,143 915,142 915,141 916,141 917,141 917,142 918,141 918,139 919,139 920,138 920,135 921,135 921,134 922,134 922,133 923,133 923,133 924,132 924,134 925,134 925,134 926,134 926,135 927,133 928,133 928,133 929,132 929,132 930,130 931,133 931,133 932,132 932,132 933,136 933,137 934,136 935,137 935,140 936,139 936,140 937,139 938,139 938,138 939,138 939,139 940,142 940,142 941,142 942,143 942,143 943,139 943,139 944,139 945,139 945,138 946,138 946,138 947,137 947,137 948,134 949,133 949,133 950,132 950,131 951,129 952,129 952,129 953,128 953,127 954,126 954,126 955,126 956,126 956,124 957,124 957,124 958,123 958,123 959,123 960,123 960,122 961,121 961,122 962,122 963,116 963,116 964,115 964,116 965,115 965,115 966,115 967,115 967,109 968,108 968,107 969,107 970,106 970,105 971,105 971,105 972,105 972,105 973,103 974,103 974,103 975,103 975,105 976,104 977,103 977,103 978,103 978,102 979,101 979,101 980,103 981,105 981,105 982,104 982,103 983,103 984,103 984,103 985,101 985,102 986,101 986,101 987,100 988,100 988,99 989,96 989,96 990,97 990,97 991,96 992,96 992,94 993,95 993,95 994,96 995,94 995,93 996,91 996,91 997,91 997,91 998,91 999,90 999,90 1000,90 1000,89 1001,89 1002,89 1002,89 1003,88 1003,89 1004,85 1004,85 1005,84 1005,84 1006,84 1006,84 1006,83 1007,83 1007,84 1007,84 1007,84 1008,84 1009,84 1009,85 1009,85 1009,90 1010,90 1010,90 1010,90 1010,90 1011,90 1011,91 1011,91 1011,90 1012,90 1012,90 1013,90 1013,90 1013,90 1013,90 1014,90 1014,90 1014,89 1015,89 1015,89 1016,89 1016,89 1016,87 1017,87 1017,85 1017,85 1017,85 1018,85 1018,84 1018,84 1018,84 1019,84 1019,83 1020,83 1020,83 1020,81 1021,81 1021,80 1021,80 1021,80 1022,80 1022,79 1023,79 1023,78 1023,78 1023,78 1024,78 1024,78 1024,78 1024,77 1025,77 1025,77 1025,79 1026,79 1026,79 1027,79 1027,79 1027,79 1027,78 1028,78 1028,79 1028,79 1028,80 1029,80 1029,78 1029,78 1029,79 1030,79 1030,79 1031,79 1031,78 1031,78 1031,78 1032,78 1032,79 1032,79 1033,79 1034,79 1034,79 1034,79 1034,78 1035,78 1035,77 1035,77 1035,77 1036,77 1036,76 1036,76 1036,76 1037,76 1037,76 1038,76 1038,75 1038,75 1038,75 1039,76 1039,76 1039,77 1040,77 1040,77 1041,77 1041,77 1041,77 1041,78 1042,78 1042,78 1042,78 1043,78 1043,78 1043,78 1043,79 1044,79 1044,78 1045,78 1045,79 1045,79 1045,79 1046,79 1046,80 1046,80 1046,79 1047,79 1047,79 1048,79 1048,79 1048,79 1048,77 1049,77 1049,77 1049,77 1049,79 1050,79 1050,79 1050,79 1050,80 1051,80 1051,79 1052,79 1052,79 1052,79 1052,79 1053,79 1053,80 1053,80 1054,80 1054,80 1055,80 1055,81 1055,81 1055,82 1056,82 1056,82 1056,82 1056,82 1057,82 1057,82 1057,82 1057,83 1058,83 1058,83 1059,83 1059,83 1059,82 1060,82 1060,82 1060,82 1060,83 1061,83 1061,83 1061,83 1061,84 1062,84 1062,84 1063,84 1063,86 1064,86 1064,87 1064,86 1065,86 1065,86 1066,86 1066,86 1066,86 1066,87 1067,87 1067,87 1067,87 1067,87 1068,87 1068,88 1068,88 1068,89 1069,89 1069,88 1070,88 1070,89 1070,89 1070,88 1071,88 1071,88 1071,87 1072,87 1072,88 1073,88 1073,89 1073,89 1073,88 1074,88 1074,89 1074,89 1074,89 1075,89 1075,89 1075,89 1075,89 1076,89 1076,89 1077,89 1077,89 1077,89 1077,90 1078,90 1078,90 1078,90 1078,90 1079,90 1079,90 1080,90 1080,91 1080,92 1081,92 1081,92 1081,92 1081,92 1082,92 1082,92 1082,92 1082,92 1083,92 1083,92 1084,92 1084,92 1084,92 1084,91 1085,91 1085,91 1085,91 1086,91 1086,91 1087,91 1087,91 1087,91 1087,90 1088,90 1088,91 1088,91 1088,90 1089,90 1089,91 1089,91 1089,90 1090,90 1090,90 1091,90 1091,90 1091,90 1091,91 1092,91 1092,91 1092,91 1092,90 1093,90 1093,90 1093,90 1093,89 1094,89 1094,89 1095,89 1095,89 1095,89 1095,90 1096,90 1096,90 1096,90 1097,90 1097,90 1098,90 1098,89 1098,89 1098,90 1099,90 1099,90 1099,90 1099,90 1100,90 1100,91 1100,91 1100,91 1101,91 1101,91 1102,91 1102,91 1102,91 1102,92 1103,92 1103,92 1103,92 1103,92 1104,92 1104,92 1105,92 1105,93 1105,93 1105,93 1106,93 1106,92 1106,92 1106,93 1107,93 1107,93 1107,93 1107,93 1108,93 1108,93 1109,93 1109,93 1109,93 1109,93 1110,93 1110,94 1110,94 1110,93 1111,93 1111,93 1112,93 1112,93 1112,92 1113,92 1113,91 1113,91 1113,92 1114,94 1114,94 1114,94 1115,94 1115,94 1116,94 1116,94 1116,94 1116,94 1117,94 1117,94 1117,94 1117,94 1118,94 1118,95 1119,95 1119,95 1119,95 1119,95 1120,95 1120,96 1120,96 1121,96 1121,98 1121,98 1121,98 1122,98 1122,98 1123,98 1123,98 1123,98 1123,98 1124,98 1124,98 1124,98 1124,98 1125,98 1125,95 1125,95 1125,93 1126,93 1126,90 1127,90 1127,90 1127,90 1127,90 1128,90 1128,90 1128,90 1128,90 1129,90 1129,90 1130,90 1130,91 1130,91 1130,90 1131,90 1131,90 1131,90 1131,90 1132,90 1132,90 1132,90 1132,90 1133,90 1133,90 1134,90 1134,90 1134,90 1134,91 1135,91 1135,91 1135,91 1135,91 1136,91 1136,91 1137,91 1137,91 1137,91 1137,91 1138,91 1138,91 1138,91 1138,91 1139,91 1139,91 1139,91 1139,91 1140,91 1140,91 1141,91 1141,91 1141,91 1141,91 1142,91 1142,92 1142,92 1142,93 1143,93 1143,93 1144,93 1144,94 1144,94 1144,94 1145,94 1145,94 1145,94 1145,94 1146,94 1146,94 1146,94 1146,94 1147,94 1147,94 1148,94 1148,94 1148,95 1149,95 1149,96 1149,96 1149,96 1150,96 1150,97 1151,97 1151,96 1151,96 1151,96 1152,96 1152,96 1152,96 1152,97 1153,97 1153,97 1153,97 1153,97 1154,97 1154,97 1155,97 1155,96 1155,96 1155,97 1156,97 1156,97 1156,97 1156,99 1157,99 1157,99 1157,99 1157,99 1158,99 1158,100 1159,100 1159,100 1159,100 1160,100 1160,100 1160,100 1160,100 1161,100 1161,101 1162,101 1162,104 1162,104 1162,103 1163,103 1163,103 1163,103 1163,103 1164,103 1164,103 1164,103 1164,103 1165,103 1165,103 1166,103 1166,103 1166,103 1166,103 1167,103 1167,104 1167,104 1167,104 1168,104 1168,104 1169,104 1169,104 1169,104 1169,104 1170,104 1170,104 1170,104 1170,104 1171,104 1171,103 1171,103 1171,103 1172,103 1172,103 1173,103 1173,104 1173,104 1173,104 1174,104 1174,103 1174,103 1174,103 1175,103 1175,103 1176,103 1176,103 1176,103 1176,103 1177,103 1177,103 1177,103 1177,103 1178,103 1178,104 1178,104 1178,104 1179,104 1179,104 1180,104 1180,104 1180,104 1180,104 1181,104 1181,104 1181,104 1181,106 1182,106 1182,108 1183,108 1183,108 1183,108 1184,108 1184,112 1184,112 1184,112 1185,112 1185,112 1185,112 1185,112 1186,112 1186,113 1187,113 1187,113 1187,113 1187,112 1188,112 1188,113 1188,113 1188,113 1189,113 1189,113 1190,113 "/>
<polyline fill="none" opacity="1" stroke="#198EE6" stroke-width="2" points="60,738 60,738 64,738 73,738 81,737 89,737 89,737 93,737 94,736 96,736 100,736 104,736 104,735 110,735 116,735 117,735 119,734 124,734 128,734 129,734 135,734 136,733 136,733 137,733 137,733 138,733 139,733 140,733 140,733 142,733 142,733 143,733 144,733 144,733 146,733 147,733 147,732 148,732 149,732 149,732 150,732 150,732 151,732 152,732 153,732 153,732 154,732 154,732 155,732 156,732 156,732 157,732 157,732 158,732 159,732 160,732 160,732 161,732 161,732 163,732 164,732 165,731 165,731 166,731 167,731 167,731 168,731 168,731 169,731 169,731 170,731 171,731 172,731 173,731 174,730 174,730 175,730 175,730 176,730 177,730 178,730 178,730 179,730 180,730 181,730 181,729 182,729 182,729 183,729 183,729 184,729 185,729 185,729 186,729 186,729 188,729 188,729 189,729 190,728 191,728 192,728 192,728 194,728 194,728 195,728 196,728 197,728 197,728 198,728 199,727 199,727 200,727 200,727 201,727 202,727 203,727 204,727 205,727 206,727 206,727 207,727 207,726 208,726 208,726 209,726 210,726 210,726 211,726 212,726 213,726 213,726 214,726 214,725 215,725 215,725 216,725 217,725 217,725 218,725 218,725 219,725 220,725 220,725 221,725 222,724 222,724 223,724 224,724 224,724 225,724 226,724 227,724 228,724 229,724 229,724 230,724 231,724 231,724 232,723 233,723 233,723 234,723 235,723 235,723 236,723 238,723 239,723 239,723 240,723 240,723 241,722 242,722 242,722 243,722 243,722 245,722 246,722 246,722 247,722 247,722 248,722 249,722 250,722 250,722 251,722 252,722 253,722 253,722 254,722 254,722 255,721 257,721 257,721 258,721 259,721 260,720 260,720 261,720 261,720 262,720 263,720 263,720 264,720 264,720 265,720 265,720 267,720 267,720 268,720 268,720 269,720 270,720 270,720 271,720 271,720 272,720 272,720 273,720 274,720 274,720 275,719 275,719 276,719 277,719 277,719 278,719 278,719 279,719 279,719 280,719 281,719 281,719 282,719 282,719 283,719 284,719 284,719 285,718 285,718 286,718 286,718 288,718 288,718 289,718 290,718 291,718 291,718 292,718 293,717 293,717 294,717 295,717 295,717 296,717 297,717 297,717 298,716 299,716 299,716 300,716 300,716 301,716 302,716 303,716 303,716 304,716 304,716 305,716 306,716 306,715 307,715 307,715 308,715 309,715 309,715 310,715 310,715 311,715 311,715 312,715 313,715 314,715 314,715 315,715 316,715 316,715 317,715 318,715 318,715 319,715 320,714 320,714 321,714 321,714 322,714 323,714 323,714 324,714 324,714 325,713 325,713 326,713 327,713 327,713 328,712 328,712 329,712 329,712 330,712 331,712 331,712 332,712 332,712 333,712 334,712 334,712 335,712 335,712 336,712 336,711 337,711 338,711 338,711 339,711 340,711 341,711 341,711 342,710 342,710 343,710 343,710 344,709 345,709 345,709 346,709 346,709 347,709 348,709 348,709 349,709 349,708 350,708 350,708 351,709 352,708 352,708 353,708 353,708 354,708 355,708 355,708 356,708 356,708 357,708 357,707 358,707 359,707 359,707 360,707 360,707 361,707 361,707 362,707 363,707 363,707 364,707 364,707 365,706 366,706 367,706 367,706 368,706 368,706 369,706 370,706 371,706 371,706 372,705 373,705 373,705 374,705 374,705 375,705 375,705 376,705 377,705 377,705 378,705 378,705 379,705 380,705 380,705 381,705 381,705 382,705 382,705 383,705 384,705 384,705 385,705 385,704 386,704 387,704 387,704 388,704 388,704 389,704 389,704 390,704 391,704 391,704 392,704 392,704 393,704 393,704 394,704 395,704 395,704 396,703 396,703 397,703 398,703 398,703 399,703 399,703 400,703 400,703 401,703 402,703 402,702 403,702 403,702 404,702 405,702 405,702 406,702 406,702 407,702 407,702 408,702 409,702 409,702 410,702 410,702 411,702 412,702 412,702 413,702 413,701 414,701 414,701 415,701 416,701 416,701 417,701 417,701 418,700 419,700 419,700 420,700 420,700 421,700 421,700 422,700 423,699 423,699 424,699 424,699 425,699 425,698 426,698 427,698 427,698 428,698 428,698 429,698 430,698 430,698 431,698 431,698 432,698 432,698 434,698 434,698 435,698 435,698 436,698 437,698 437,698 438,698 438,698 439,698 439,698 440,698 441,698 441,698 442,698 442,698 443,698 444,698 444,698 445,698 445,698 446,698 446,698 447,698 448,698 448,698 449,698 449,698 450,698 451,697 451,697 452,697 452,697 453,697 453,697 454,696 455,696 455,696 456,696 456,696 457,696 458,696 458,696 459,696 459,696 460,696 460,696 461,696 462,696 462,696 463,696 463,696 464,696 464,696 465,696 466,696 466,696 467,695 467,695 468,695 469,695 469,695 470,695 470,695 471,695 471,695 472,695 473,695 473,695 474,695 474,695 475,695 476,695 476,695 477,695 477,695 478,695 478,695 479,695 480,695 480,695 481,695 481,695 482,695 483,695 483,695 484,695 484,695 485,695 485,694 486,694 487,694 487,694 488,694 489,693 490,693 490,693 491,693 491,693 492,693 492,693 493,693 494,693 494,693 495,693 496,693 496,693 497,693 498,693 498,693 499,693 499,692 500,692 501,692 501,692 502,692 502,692 503,692 503,692 504,692 505,692 505,692 506,691 506,691 507,691 508,691 508,691 509,691 509,691 510,691 510,691 511,691 512,690 512,690 513,690 513,690 514,690 515,690 515,690 516,690 516,690 517,690 517,690 518,690 519,690 519,690 520,690 520,689 521,689 522,689 522,689 523,689 523,689 524,689 524,690 525,690 526,690 526,690 527,690 527,690 528,690 528,690 529,690 530,690 530,690 531,690 531,690 532,690 533,689 533,689 534,689 534,690 535,690 535,690 536,690 537,690 537,690 538,690 538,690 539,690 540,690 541,690 541,690 542,690 542,690 543,690 544,690 544,690 545,690 545,690 546,690 547,690 548,690 548,690 549,690 549,690 550,690 551,690 551,689 552,689 553,689 554,689 554,689 555,689 555,689 556,689 556,689 557,689 558,689 558,689 559,689 559,689 560,689 560,689 561,689 562,689 562,689 563,689 563,688 564,688 565,688 565,687 566,687 566,687 567,687 567,687 568,687 569,687 569,687 570,687 570,687 571,687 572,687 572,687 573,686 573,686 574,686 574,686 575,685 576,685 576,685 577,685 577,685 578,685 579,684 579,684 580,684 580,684 581,684 581,684 582,684 583,684 583,684 584,684 584,684 585,684 586,684 586,685 587,685 587,685 588,685 588,684 589,684 590,684 590,684 591,684 591,684 592,684 592,684 593,684 594,684 594,684 595,684 595,684 596,684 597,684 597,684 598,684 598,684 599,684 599,684 600,684 601,684 601,683 602,683 602,683 603,683 604,683 604,683 605,683 605,683 606,683 606,683 607,682 608,682 608,682 609,682 609,682 610,682 611,682 611,682 612,682 612,682 613,682 613,681 614,681 615,681 615,681 616,681 616,682 617,682 618,682 618,682 619,682 619,682 620,682 620,682 621,682 622,682 622,682 623,682 623,682 624,682 625,682 625,682 626,682 626,682 627,682 627,682 628,682 629,682 629,682 630,681 630,681 631,681 631,681 632,681 633,681 633,681 634,681 634,681 635,681 636,681 636,681 637,681 637,681 638,681 638,681 639,681 640,681 640,681 641,680 641,680 642,680 643,680 643,680 644,680 644,680 645,680 645,680 646,680 647,680 647,680 648,680 648,680 649,680 650,680 650,680 651,680 651,680 652,680 652,680 653,680 654,680 655,680 655,680 656,680 657,680 657,680 658,680 658,680 659,680 659,680 660,680 661,680 661,680 662,680 662,680 663,680 663,680 664,680 665,680 665,679 666,679 666,679 667,679 668,679 668,679 669,679 669,679 670,679 670,679 671,679 672,679 672,679 673,679 673,679 674,679 675,679 675,679 676,679 676,679 677,679 677,679 678,679 679,679 679,678 680,678 680,678 681,678 682,678 682,678 683,678 683,678 684,678 684,678 685,678 686,678 686,678 687,678 687,677 688,677 689,677 689,677 690,677 690,677 691,677 691,677 692,677 693,677 693,677 694,677 694,677 695,677 695,677 696,677 697,677 697,677 698,677 698,677 698,677 699,677 700,677 700,677 701,677 701,677 702,677 702,677 703,677 704,677 704,677 705,677 705,677 706,677 707,677 707,677 708,677 708,677 709,677 709,677 710,677 711,677 711,677 712,677 712,677 713,677 714,677 714,677 715,677 715,677 716,677 716,677 717,677 718,677 718,677 719,677 719,677 720,677 721,677 721,677 722,677 722,677 723,677 723,677 724,676 725,676 725,676 726,676 726,676 727,676 727,676 728,676 729,676 729,676 730,676 730,676 731,676 732,676 732,676 733,676 733,676 734,676 734,676 735,676 736,676 736,676 737,676 737,676 738,676 739,676 739,676 740,676 740,676 741,676 741,676 742,676 743,676 743,676 744,676 744,676 745,676 746,676 746,676 747,676 747,676 748,676 748,676 749,676 750,676 750,676 751,676 751,676 752,676 753,676 753,676 754,676 754,676 755,676 755,675 756,675 757,675 757,675 758,675 758,675 759,675 759,675 760,675 761,675 761,675 762,675 762,675 763,675 764,675 764,675 765,675 765,675 766,675 766,675 767,675 768,675 768,676 769,676 769,676 770,676 771,676 771,676 772,676 772,676 773,676 773,676 774,676 775,676 775,676 776,676 776,676 777,676 778,676 778,676 779,676 779,676 780,676 780,675 781,675 782,675 782,676 783,676 783,676 784,676 785,676 785,676 786,676 786,676 787,676 787,675 788,675 789,675 789,675 790,675 790,675 791,675 791,675 792,675 793,675 793,675 794,674 794,674 795,673 796,673 796,673 797,673 797,673 798,672 798,672 799,672 800,673 800,673 801,673 801,673 802,673 803,673 803,673 804,673 804,673 805,673 805,673 806,673 807,673 807,673 808,673 808,673 809,672 810,672 810,672 811,672 811,672 812,672 812,672 813,672 814,672 814,672 815,672 815,672 816,672 817,672 817,672 818,672 818,672 819,672 819,672 820,672 821,672 821,672 822,672 822,672 823,672 824,672 824,672 825,672 825,672 826,671 826,671 827,671 828,671 828,671 829,671 829,671 830,671 830,671 831,671 832,670 832,670 833,670 833,670 834,670 835,670 835,670 836,670 836,670 837,670 837,670 838,670 839,670 839,670 840,670 840,670 841,670 842,670 842,670 843,670 843,670 844,670 844,670 845,669 846,669 846,669 847,669 847,669 848,669 849,669 849,669 850,669 850,669 851,669 851,669 852,669 853,669 853,669 854,669 854,669 855,669 856,669 856,670 857,670 857,670 858,670 858,670 859,670 860,670 860,670 861,670 861,670 862,670 862,670 863,670 864,669 864,669 865,667 865,667 866,667 867,667 867,667 868,666 868,666 869,666 869,666 870,666 871,665 871,665 872,665 872,665 873,665 874,665 874,665 875,665 875,664 876,664 876,664 877,664 878,664 878,664 879,664 879,664 880,664 881,664 881,664 882,664 882,664 883,664 883,664 884,664 885,664 885,664 886,664 886,664 887,664 888,664 888,664 889,664 889,664 890,664 890,664 891,663 892,663 892,663 893,663 893,663 894,663 894,663 895,663 896,662 896,662 897,662 897,662 898,662 899,662 899,662 900,662 900,662 901,662 901,662 902,662 903,662 903,662 904,662 904,662 905,662 906,662 906,662 907,662 907,662 908,662 908,662 909,662 910,662 910,662 911,662 911,663 912,663 913,663 913,663 914,663 914,663 915,663 915,663 916,663 917,663 917,663 918,663 918,663 919,663 920,663 920,663 921,663 921,663 922,663 922,663 923,663 923,663 924,663 924,663 925,663 925,663 926,662 926,662 927,662 928,662 928,662 929,662 929,662 930,662 931,662 931,662 932,662 932,662 933,663 933,662 934,662 935,662 935,662 936,662 936,662 937,662 938,662 938,662 939,662 939,662 940,662 940,662 941,662 942,662 942,662 943,662 943,662 944,662 945,662 945,662 946,662 946,662 947,662 947,662 948,662 949,662 949,662 950,662 950,662 951,662 952,662 952,662 953,662 953,662 954,662 954,662 955,662 956,662 956,662 957,662 957,662 958,662 958,662 959,662 960,662 960,662 961,662 961,662 962,662 963,662 963,662 964,662 964,662 965,662 965,662 966,662 967,662 967,662 968,662 968,662 969,662 970,662 970,662 971,662 971,662 972,662 972,662 973,662 974,662 974,662 975,662 975,662 976,662 977,662 977,662 978,662 978,662 979,662 979,662 980,662 981,662 981,662 982,662 982,662 983,662 984,662 984,662 985,662 985,662 986,662 986,662 987,662 988,662 988,662 989,662 989,662 990,662 990,662 991,662 992,662 992,662 993,662 993,662 994,662 995,662 995,662 996,662 996,662 997,662 997,662 998,662 999,662 999,662 1000,662 1000,662 1001,662 1002,662 1002,662 1003,662 1003,663 1004,663 1004,663 1005,663 1005,663 1006,663 1006,663 1006,663 1007,663 1007,663 1007,663 1007,663 1008,663 1009,663 1009,663 1009,663 1009,663 1010,663 1010,663 1010,663 1010,663 1011,663 1011,663 1011,663 1011,663 1012,663 1012,663 1013,663 1013,663 1013,663 1013,662 1014,662 1014,662 1014,662 1015,662 1016,662 1016,662 1016,662 1017,662 1017,662 1017,662 1017,662 1018,662 1018,662 1018,662 1018,662 1019,662 1019,662 1020,662 1020,662 1020,662 1021,662 1021,662 1021,662 1021,662 1022,662 1022,662 1023,662 1023,662 1023,662 1023,662 1024,662 1024,662 1024,662 1024,662 1025,662 1025,662 1025,662 1026,662 1026,662 1027,662 1027,662 1027,662 1027,662 1028,662 1028,662 1028,662 1028,661 1029,661 1029,661 1029,661 1029,661 1030,661 1030,661 1031,661 1031,661 1031,661 1031,661 1032,661 1032,661 1032,661 1033,661 1034,661 1034,661 1034,661 1034,661 1035,661 1035,660 1035,660 1035,660 1036,660 1036,660 1036,660 1036,660 1037,660 1037,660 1038,660 1038,660 1038,660 1038,660 1039,660 1039,660 1039,660 1040,660 1040,660 1041,660 1041,660 1041,660 1041,660 1042,660 1042,660 1042,660 1043,660 1043,660 1043,660 1043,660 1044,660 1044,660 1045,660 1045,661 1045,661 1045,661 1046,661 1046,661 1046,661 1046,661 1047,661 1047,661 1048,661 1048,661 1048,661 1048,661 1049,661 1049,661 1049,661 1049,661 1050,661 1050,661 1050,661 1050,661 1051,661 1051,660 1052,660 1052,660 1052,660 1052,660 1053,660 1053,660 1053,659 1054,659 1054,659 1055,659 1055,659 1055,659 1055,659 1056,659 1056,659 1056,659 1056,659 1057,659 1057,659 1057,659 1057,659 1058,659 1058,659 1059,659 1059,659 1059,659 1060,659 1060,659 1060,659 1060,659 1061,659 1061,659 1061,659 1061,659 1062,659 1062,659 1063,659 1063,659 1064,659 1064,659 1064,659 1065,659 1065,659 1066,659 1066,659 1066,659 1066,659 1067,659 1067,659 1067,659 1067,659 1068,659 1068,659 1068,659 1068,659 1069,659 1069,658 1070,658 1070,658 1070,658 1070,658 1071,658 1071,658 1071,658 1072,658 1072,658 1073,658 1073,658 1073,658 1073,658 1074,658 1074,658 1074,658 1074,658 1075,658 1075,658 1075,658 1075,658 1076,658 1076,658 1077,658 1077,658 1077,658 1077,658 1078,658 1078,658 1078,658 1078,658 1079,658 1079,658 1080,658 1080,657 1080,657 1081,657 1081,657 1081,657 1081,657 1082,657 1082,657 1082,657 1082,657 1083,657 1083,657 1084,657 1084,657 1084,657 1084,657 1085,657 1085,657 1085,657 1086,657 1086,657 1087,657 1087,657 1087,657 1087,657 1088,657 1088,657 1088,657 1088,657 1089,657 1089,657 1089,657 1089,657 1090,657 1090,657 1091,657 1091,657 1091,657 1091,657 1092,657 1092,657 1092,657 1092,657 1093,657 1093,657 1093,657 1093,657 1094,657 1094,657 1095,657 1095,657 1095,657 1095,657 1096,657 1096,657 1096,657 1097,657 1097,657 1098,657 1098,657 1098,657 1098,657 1099,657 1099,657 1099,657 1099,657 1100,657 1100,657 1100,657 1100,657 1101,657 1101,657 1102,657 1102,657 1102,657 1102,657 1103,657 1103,657 1103,657 1103,657 1104,657 1104,657 1105,657 1105,657 1105,657 1105,657 1106,657 1106,657 1106,657 1106,657 1107,657 1107,657 1107,657 1107,657 1108,657 1108,656 1109,656 1109,657 1109,657 1109,657 1110,657 1110,657 1110,657 1110,657 1111,657 1111,657 1112,657 1112,657 1112,657 1113,657 1113,657 1113,657 1113,657 1114,657 1114,657 1114,657 1115,657 1115,657 1116,657 1116,656 1116,656 1116,656 1117,656 1117,656 1117,656 1117,656 1118,656 1118,656 1119,656 1119,656 1119,656 1119,656 1120,656 1120,656 1120,656 1121,656 1121,656 1121,656 1121,656 1122,656 1122,656 1123,656 1123,655 1123,655 1123,655 1124,655 1124,655 1124,655 1124,655 1125,655 1125,655 1125,655 1125,655 1126,655 1126,657 1127,657 1127,657 1127,657 1127,657 1128,657 1128,657 1128,657 1128,657 1129,657 1129,657 1130,657 1130,657 1130,657 1130,657 1131,657 1131,657 1131,657 1131,657 1132,657 1132,657 1132,657 1132,657 1133,657 1133,657 1134,657 1134,657 1134,657 1134,657 1135,657 1135,657 1135,657 1135,657 1136,657 1136,657 1137,657 1137,657 1137,657 1137,657 1138,657 1138,657 1138,657 1138,657 1139,657 1139,657 1139,657 1139,657 1140,657 1140,657 1141,657 1141,657 1141,657 1141,657 1142,657 1142,657 1142,657 1142,657 1143,657 1143,657 1144,657 1144,657 1144,657 1144,657 1145,657 1145,657 1145,657 1145,657 1146,657 1146,657 1146,657 1146,657 1147,657 1147,657 1148,657 1148,657 1148,657 1149,657 1149,657 1149,657 1149,657 1150,657 1150,657 1151,657 1151,657 1151,657 1151,657 1152,657 1152,657 1152,657 1152,657 1153,657 1153,657 1153,657 1153,657 1154,657 1154,657 1155,657 1155,657 1155,657 1155,657 1156,657 1156,657 1156,657 1156,657 1157,657 1157,657 1157,657 1157,657 1158,657 1158,657 1159,657 1159,657 1159,657 1160,657 1160,657 1160,657 1160,657 1161,657 1161,657 1162,657 1162,657 1162,657 1162,657 1163,657 1163,657 1163,657 1163,657 1164,657 1164,657 1164,657 1164,657 1165,657 1165,657 1166,657 1166,657 1166,657 1166,657 1167,657 1167,657 1167,657 1167,657 1168,657 1168,657 1169,657 1169,657 1169,657 1169,657 1170,657 1170,657 1170,657 1170,657 1171,657 1171,657 1171,657 1171,657 1172,657 1172,657 1173,657 1173,657 1173,657 1173,657 1174,657 1174,657 1174,657 1174,657 1175,657 1175,657 1176,657 1176,657 1176,657 1176,657 1177,657 1177,657 1177,657 1177,657 1178,657 1178,657 1178,657 1178,657 1179,657 1179,657 1180,657 1180,657 1180,657 1180,657 1181,657 1181,657 1181,657 1181,657 1182,657 1182,657 1183,657 1183,657 1183,657 1184,657 1184,657 1184,657 1184,657 1185,657 1185,657 1185,657 1185,657 1186,657 1186,657 1187,657 1187,657 1187,657 1187,657 1188,657 1188,657 1188,657 1188,657 1189,657 1189,657 1190,657 "/>
<polyline fill="none" opacity="1" stroke="#5419E6" stroke-width="2" points="828,738 829,738 832,738 837,737 839,737 842,737 844,736 845,736 846,734 846,733 848,733 849,733 854,733 855,733 856,733 857,733 857,733 864,733 868,732 869,732 870,731 872,731 875,731 876,730 876,729 877,729 878,729 878,729 881,729 881,729 882,729 884,729 885,728 885,728 886,727 889,727 889,727 890,727 890,726 892,726 893,726 894,726 894,726 895,726 897,726 899,726 900,725 901,725 901,725 902,725 903,725 904,725 904,725 905,725 906,725 907,725 908,725 908,724 910,724 910,724 911,724 911,723 912,723 913,723 913,723 914,723 914,723 915,723 915,723 917,723 917,723 918,723 918,723 919,723 920,722 921,723 922,723 922,723 923,723 923,723 924,722 924,722 925,722 925,722 926,721 926,721 927,720 928,720 929,719 930,719 931,719 931,719 932,719 932,719 933,719 934,719 935,718 936,718 936,717 937,717 938,717 938,716 939,716 939,716 940,716 941,716 942,715 942,715 943,715 943,715 944,715 945,714 946,714 946,715 948,714 949,714 949,714 950,714 952,714 952,714 953,714 953,714 954,714 956,714 957,714 957,713 959,713 960,713 960,713 961,713 961,713 962,712 963,712 963,712 964,712 964,712 965,712 965,711 966,711 967,711 967,711 968,711 968,711 969,711 970,711 970,711 971,711 971,711 972,710 972,710 973,710 974,710 974,710 975,710 976,710 977,710 977,709 978,709 978,709 979,709 979,708 980,708 981,708 982,708 982,708 983,708 984,708 984,708 985,708 985,708 986,707 986,707 987,707 988,707 988,707 989,707 989,707 990,707 990,707 991,707 992,706 992,706 993,706 993,706 994,706 995,706 995,706 996,706 996,706 997,706 997,706 998,705 999,705 999,705 1000,705 1001,705 1002,705 1002,705 1003,705 1003,705 1004,705 1004,705 1005,705 1005,705 1006,705 1006,705 1006,705 1007,705 1007,705 1007,705 1007,705 1008,705 1009,705 1009,705 1009,705 1009,705 1010,705 1010,705 1010,705 1010,704 1011,704 1011,704 1011,704 1011,704 1012,704 1012,704 1013,704 1013,704 1013,704 1013,704 1014,704 1014,704 1014,704 1015,704 1015,703 1016,703 1016,703 1016,703 1017,703 1017,703 1017,703 1017,703 1018,703 1018,702 1018,702 1018,703 1019,703 1019,703 1020,702 1020,702 1020,702 1021,702 1021,702 1021,702 1021,702 1022,702 1022,702 1023,702 1023,702 1023,702 1023,702 1024,702 1024,702 1024,702 1024,702 1025,702 1025,702 1026,702 1026,702 1027,702 1027,702 1027,702 1027,702 1028,702 1028,702 1028,702 1028,702 1029,702 1029,702 1029,702 1029,702 1030,702 1030,702 1031,702 1031,702 1031,702 1031,702 1032,702 1032,702 1033,702 1034,702 1034,702 1034,702 1034,702 1035,702 1035,702 1035,702 1035,701 1036,701 1036,701 1036,701 1036,701 1037,701 1037,701 1038,701 1038,701 1038,701 1039,701 1039,701 1039,701 1040,701 1040,701 1041,701 1041,701 1041,701 1041,701 1042,701 1042,700 1042,700 1043,700 1043,700 1043,700 1043,700 1044,700 1044,700 1045,700 1045,700 1045,700 1045,700 1046,700 1046,700 1046,700 1046,700 1047,700 1048,700 1048,700 1048,700 1048,700 1049,700 1049,700 1049,700 1049,700 1050,700 1050,699 1050,699 1050,699 1051,699 1051,699 1052,699 1052,700 1052,700 1052,700 1053,700 1053,699 1053,699 1054,699 1054,699 1055,699 1055,699 1055,699 1055,699 1056,699 1056,699 1056,699 1056,699 1057,699 1057,699 1057,699 1057,700 1058,700 1058,700 1059,700 1059,700 1059,700 1060,699 1060,699 1060,699 1061,699 1061,699 1061,699 1061,699 1062,699 1062,699 1063,699 1063,699 1064,699 1064,699 1064,699 1065,699 1065,699 1066,699 1066,699 1066,699 1066,699 1067,699 1067,698 1067,698 1068,698 1068,698 1068,698 1068,698 1069,698 1069,698 1070,698 1070,698 1070,698 1070,698 1071,698 1071,698 1071,698 1072,698 1072,698 1073,698 1073,698 1073,698 1073,698 1074,698 1074,698 1074,698 1074,698 1075,698 1075,698 1075,698 1075,698 1076,698 1076,698 1077,698 1077,698 1077,698 1077,698 1078,698 1078,698 1078,698 1079,698 1079,698 1080,698 1080,698 1080,698 1081,698 1081,698 1081,698 1081,698 1082,698 1082,698 1082,698 1082,698 1083,698 1083,698 1084,698 1084,697 1084,697 1084,697 1085,697 1085,697 1085,697 1086,697 1086,697 1087,697 1087,697 1087,697 1087,697 1088,697 1088,697 1088,697 1088,697 1089,697 1089,697 1089,697 1089,697 1090,697 1090,697 1091,697 1091,697 1091,697 1091,697 1092,697 1092,697 1092,697 1092,697 1093,697 1093,697 1093,697 1093,697 1094,697 1094,697 1095,697 1095,697 1095,697 1095,697 1096,697 1096,697 1096,697 1097,697 1097,697 1098,697 1098,697 1098,697 1098,697 1099,697 1099,697 1099,697 1099,697 1100,697 1100,697 1100,697 1100,697 1101,697 1101,697 1102,697 1102,696 1102,696 1102,696 1103,696 1103,696 1103,696 1103,696 1104,696 1104,695 1105,695 1105,695 1105,695 1106,695 1106,695 1106,695 1106,695 1107,695 1107,695 1107,695 1107,695 1108,695 1108,694 1109,694 1109,694 1109,694 1109,694 1110,694 1110,694 1110,694 1110,694 1111,694 1111,694 1112,694 1112,694 1112,694 1113,694 1113,694 1113,694 1113,694 1114,694 1114,694 1115,693 1115,693 1116,693 1116,693 1117,693 1117,693 1117,693 1117,693 1118,693 1118,693 1119,693 1119,693 1119,693 1119,693 1120,693 1120,693 1120,693 1121,693 1121,693 1121,693 1121,693 1122,693 1122,693 1123,693 1123,693 1123,693 1123,693 1124,693 1124,693 1124,693 1125,693 1125,693 1125,693 1125,693 1126,693 1126,690 1127,690 1127,690 1127,690 1127,690 1128,690 1128,690 1128,690 1128,690 1129,690 1129,690 1130,690 1130,690 1130,690 1130,690 1131,690 1131,689 1131,689 1131,689 1132,689 1132,689 1132,689 1133,689 1133,692 1134,692 1134,692 1134,692 1134,691 1135,691 1135,691 1135,691 1135,691 1136,691 1136,691 1137,691 1137,691 1137,691 1137,690 1138,690 1138,690 1138,690 1138,690 1139,690 1139,690 1139,690 1139,690 1140,690 1140,690 1141,690 1141,690 1141,690 1141,690 1142,690 1142,690 1142,690 1142,690 1143,690 1143,690 1144,690 1144,690 1144,690 1144,690 1145,690 1145,690 1145,690 1145,690 1146,690 1146,690 1146,690 1146,691 1147,691 1147,691 1148,691 1148,691 1148,691 1149,691 1149,691 1149,691 1149,691 1150,691 1150,691 1151,691 1151,691 1151,691 1151,691 1152,691 1152,691 1152,691 1152,691 1153,691 1153,691 1153,691 1153,691 1154,691 1154,691 1155,691 1155,691 1155,691 1155,691 1156,691 1156,691 1156,691 1156,691 1157,691 1157,691 1157,691 1157,691 1158,691 1158,691 1159,691 1159,691 1159,691 1160,691 1160,691 1160,691 1160,691 1161,691 1161,691 1162,691 1162,690 1162,690 1162,690 1163,690 1163,690 1163,690 1163,690 1164,690 1164,690 1164,690 1164,690 1165,690 1165,690 1166,690 1166,690 1166,690 1166,690 1167,690 1167,690 1167,690 1168,690 1168,690 1169,690 1169,690 1169,690 1169,690 1170,690 1170,690 1170,690 1170,690 1171,690 1171,690 1171,690 1171,690 1172,690 1172,690 1173,690 1173,690 1173,690 1173,690 1174,690 1174,690 1174,690 1174,689 1175,689 1175,689 1176,689 1176,689 1176,689 1176,689 1177,689 1177,689 1177,689 1177,689 1178,689 1178,689 1178,689 1178,689 1179,689 1179,689 1180,689 1180,689 1180,689 1180,689 1181,689 1181,689 1181,689 1181,689 1182,689 1182,689 1183,689 1183,689 1183,689 1184,689 1184,689 1184,689 1184,689 1185,689 1185,689 1185,689 1185,689 1186,689 1186,689 1187,689 1187,689 1187,689 1187,689 1188,689 1188,689 1188,689 1188,689 1189,689 1189,689 1190,689 "/>
<polyline fill="none" opacity="1" stroke="#E619C8" stroke-width="2" points="918,738 919,737 920,737 920,737 921,736 922,735 922,735 923,735 923,735 924,735 924,735 925,734 925,734 926,734 926,734 927,734 928,734 928,733 929,733 929,732 930,732 931,731 932,731 932,730 933,729 933,728 934,728 935,727 935,726 936,725 936,725 937,725 938,724 938,724 939,724 939,724 940,721 940,720 941,719 942,718 942,717 943,717 943,717 944,717 945,717 945,716 946,716 946,715 947,715 947,715 948,715 949,715 949,715 950,714 950,714 951,714 952,713 952,712 953,713 953,712 954,711 954,711 955,710 956,709 956,707 957,707 957,707 958,707 958,707 959,707 960,707 960,704 961,703 961,703 962,701 963,700 963,700 964,699 964,698 965,698 965,698 966,697 967,697 967,696 968,695 968,695 969,694 970,693 970,691 971,690 971,689 972,689 972,688 973,687 974,687 974,686 975,686 975,683 976,682 977,681 977,680 978,680 978,679 979,679 979,679 980,678 981,676 981,675 982,674 982,673 983,672 984,671 984,670 985,670 985,670 986,669 986,669 987,669 988,668 988,667 989,666 989,666 990,665 990,665 991,665 992,664 992,664 993,662 993,662 994,661 995,662 995,660 996,659 996,658 997,657 997,657 998,657 999,657 999,655 1000,654 1000,654 1001,653 1002,652 1002,650 1003,649 1003,647 1004,647 1004,646 1005,646 1005,645 1006,645 1006,645 1006,644 1007,644 1007,643 1007,643 1007,642 1008,641 1009,641 1009,640 1009,640 1009,637 1010,637 1010,636 1010,636 1010,635 1011,635 1011,633 1011,633 1011,632 1012,632 1012,631 1013,631 1013,631 1013,631 1013,630 1014,630 1014,629 1014,627 1015,627 1015,627 1016,626 1016,626 1016,626 1017,626 1017,625 1017,625 1017,624 1018,624 1018,624 1018,624 1018,623 1019,623 1019,623 1020,622 1020,622 1020,622 1021,622 1021,620 1021,620 1021,619 1022,619 1022,618 1023,618 1023,617 1023,617 1023,617 1024,617 1024,616 1024,616 1024,613 1025,613 1025,611 1025,608 1026,608 1026,606 1027,606 1027,604 1027,604 1027,604 1028,604 1028,603 1028,603 1028,600 1029,600 1029,599 1029,599 1029,598 1030,598 1030,597 1031,597 1031,596 1031,596 1031,595 1032,595 1032,593 1032,593 1033,592 1034,592 1034,590 1034,590 1034,588 1035,588 1035,587 1035,587 1035,587 1036,587 1036,586 1036,586 1036,585 1037,585 1037,584 1038,584 1038,582 1038,582 1038,580 1039,578 1039,578 1039,578 1040,578 1040,576 1041,576 1041,573 1041,573 1041,572 1042,572 1042,571 1042,570 1043,570 1043,567 1043,567 1043,565 1044,565 1044,563 1045,563 1045,561 1045,561 1045,561 1046,561 1046,560 1046,560 1046,559 1047,559 1047,557 1048,557 1048,551 1048,551 1048,549 1049,549 1049,547 1049,547 1049,546 1050,546 1050,545 1050,545 1050,544 1051,544 1051,542 1052,542 1052,539 1052,539 1052,537 1053,537 1053,535 1053,534 1054,534 1054,533 1055,533 1055,531 1055,531 1055,530 1056,530 1056,527 1056,527 1056,526 1057,526 1057,524 1057,524 1057,523 1058,523 1058,521 1059,521 1059,520 1059,518 1060,518 1060,518 1060,518 1060,516 1061,516 1061,514 1061,514 1061,512 1062,512 1062,510 1063,508 1063,505 1064,505 1064,504 1064,502 1065,502 1065,501 1066,501 1066,500 1066,500 1066,496 1067,496 1067,495 1067,495 1067,494 1068,494 1068,491 1068,491 1068,490 1069,490 1069,488 1070,488 1070,487 1070,487 1070,486 1071,485 1071,485 1071,484 1072,484 1072,481 1073,481 1073,478 1073,478 1073,478 1074,478 1074,476 1074,476 1074,475 1075,475 1075,474 1075,474 1075,472 1076,472 1076,471 1077,471 1077,470 1077,470 1077,468 1078,468 1078,468 1078,468 1078,466 1079,466 1079,465 1080,465 1080,465 1080,463 1081,463 1081,461 1081,461 1081,458 1082,458 1082,456 1082,456 1082,456 1083,456 1083,455 1084,455 1084,454 1084,454 1084,452 1085,448 1085,448 1085,446 1086,446 1086,445 1087,445 1087,443 1087,443 1087,442 1088,442 1088,442 1088,442 1088,442 1089,442 1089,439 1089,439 1089,438 1090,438 1090,437 1091,437 1091,436 1091,436 1091,435 1092,435 1092,434 1092,434 1092,432 1093,432 1093,431 1093,431 1093,428 1094,428 1094,427 1095,427 1095,425 1095,425 1095,422 1096,421 1096,421 1096,418 1097,418 1097,417 1098,417 1098,415 1098,415 1098,412 1099,412 1099,411 1099,411 1099,407 1100,407 1100,406 1100,406 1100,404 1101,404 1101,402 1102,402 1102,400 1102,400 1102,399 1103,399 1103,394 1103,394 1103,393 1104,393 1104,391 1105,391 1105,389 1105,389 1105,388 1106,388 1106,386 1106,386 1106,383 1107,383 1107,382 1107,382 1107,380 1108,380 1108,379 1109,379 1109,376 1109,376 1109,374 1110,374 1110,371 1110,371 1110,369 1111,369 1111,368 1112,368 1112,368 1112,365 1113,365 1113,363 1113,363 1113,360 1114,357 1114,357 1114,356 1115,356 1115,355 1116,355 1116,353 1116,353 1116,351 1117,351 1117,349 1117,349 1117,346 1118,346 1118,345 1119,345 1119,344 1119,344 1119,344 1120,344 1120,343 1120,343 1121,343 1121,340 1121,340 1121,338 1122,338 1122,336 1123,336 1123,336 1123,336 1123,335 1124,335 1124,333 1124,333 1124,332 1125,332 1125,331 1125,331 1125,329 1126,328 1126,327 1127,327 1127,325 1127,325 1127,322 1128,322 1128,321 1128,321 1128,321 1129,321 1129,320 1130,320 1130,316 1130,316 1130,314 1131,314 1131,312 1131,312 1131,312 1132,312 1132,310 1132,310 1132,308 1133,308 1133,304 1134,304 1134,303 1134,303 1134,301 1135,301 1135,299 1135,299 1135,297 1136,297 1136,295 1137,295 1137,294 1137,294 1137,291 1138,291 1138,290 1138,290 1138,290 1139,290 1139,288 1139,288 1139,284 1140,284 1140,282 1141,282 1141,280 1141,280 1141,277 1142,277 1142,276 1142,276 1142,273 1143,273 1143,272 1144,272 1144,270 1144,270 1144,269 1145,269 1145,268 1145,268 1145,265 1146,265 1146,264 1146,264 1146,262 1147,262 1147,260 1148,257 1148,257 1148,256 1149,256 1149,253 1149,253 1149,252 1150,252 1150,250 1151,250 1151,248 1151,248 1151,247 1152,247 1152,246 1152,246 1152,245 1153,245 1153,243 1153,243 1153,242 1154,242 1154,241 1155,241 1155,239 1155,239 1155,237 1156,237 1156,234 1156,234 1156,232 1157,232 1157,232 1157,232 1157,229 1158,229 1158,227 1159,227 1159,225 1159,223 1160,223 1160,222 1160,222 1160,221 1161,221 1161,219 1162,219 1162,216 1162,214 1163,214 1163,214 1163,214 1163,211 1164,211 1164,210 1164,210 1164,208 1165,208 1165,207 1166,207 1166,205 1166,205 1166,205 1167,205 1167,204 1167,204 1167,202 1168,202 1168,201 1169,201 1169,199 1169,199 1169,197 1170,197 1170,196 1170,196 1170,195 1171,195 1171,194 1171,194 1171,192 1172,192 1172,191 1173,191 1173,189 1173,189 1173,188 1174,188 1174,187 1174,186 1174,183 1175,183 1175,183 1176,183 1176,182 1176,182 1176,181 1177,181 1177,179 1177,179 1177,178 1178,178 1178,175 1178,174 1178,170 1179,170 1179,167 1180,167 1180,166 1180,166 1180,164 1181,164 1181,161 1181,161 1181,159 1182,159 1182,155 1183,155 1183,152 1183,150 1184,150 1184,148 1184,148 1184,147 1185,147 1185,145 1185,145 1185,143 1186,143 1186,142 1187,142 1187,141 1187,141 1187,139 1188,139 1188,138 1188,138 1188,134 1189,134 1189,132 1190,132 "/>
<rect x="65" y="315" width="107" height="119" opacity="1" fill="#FFFFFF" stroke="none"/>
<rect x="65" y="315" width="107" height="119" opacity="1" fill="none" stroke="#000000"/>
<text x="105" y="325" dy="0.76em" text-anchor="start" font-family="sans-serif" font-size="9.67741935483871" opacity="1" fill="#000000">
anyhow
</text>
<text x="105" y="340" dy="0.76em" text-anchor="start" font-family="sans-serif" font-size="9.67741935483871" opacity="1" fill="#000000">
err-derive
</text>
<text x="105" y="355" dy="0.76em" text-anchor="start" font-family="sans-serif" font-size="9.67741935483871" opacity="1" fill="#000000">
error-chain
</text>
<text x="105" y="370" dy="0.76em" text-anchor="start" font-family="sans-serif" font-size="9.67741935483871" opacity="1" fill="#000000">
failure
</text>
<text x="105" y="385" dy="0.76em" text-anchor="start" font-family="sans-serif" font-size="9.67741935483871" opacity="1" fill="#000000">
quick-error
</text>
<text x="105" y="400" dy="0.76em" text-anchor="start" font-family="sans-serif" font-size="9.67741935483871" opacity="1" fill="#000000">
snafu
</text>
<text x="105" y="415" dy="0.76em" text-anchor="start" font-family="sans-serif" font-size="9.67741935483871" opacity="1" fill="#000000">
thiserror
</text>
<polyline fill="none" opacity="1" stroke="#E61919" stroke-width="2" points="75,330 95,330 "/>
<polyline fill="none" opacity="1" stroke="#E6C819" stroke-width="2" points="75,344 95,344 "/>
<polyline fill="none" opacity="1" stroke="#54E619" stroke-width="2" points="75,359 95,359 "/>
<polyline fill="none" opacity="1" stroke="#19E68E" stroke-width="2" points="75,374 95,374 "/>
<polyline fill="none" opacity="1" stroke="#198EE6" stroke-width="2" points="75,390 95,390 "/>
<polyline fill="none" opacity="1" stroke="#5419E6" stroke-width="2" points="75,404 95,404 "/>
<polyline fill="none" opacity="1" stroke="#E619C8" stroke-width="2" points="75,419 95,419 "/>
</svg>
