<svg width="1200" height="800" xmlns="http://www.w3.org/2000/svg">
<rect x="0" y="0" width="1199" height="799" opacity="1" fill="#FFFFFF" stroke="none"/>
<line opacity="0.1" stroke="#000000" stroke-width="1" x1="60" y1="723" x2="1190" y2="723"/>
<line opacity="0.1" stroke="#000000" stroke-width="1" x1="60" y1="707" x2="1190" y2="707"/>
<line opacity="0.1" stroke="#000000" stroke-width="1" x1="60" y1="691" x2="1190" y2="691"/>
<line opacity="0.1" stroke="#000000" stroke-width="1" x1="60" y1="675" x2="1190" y2="675"/>
<line opacity="0.1" stroke="#000000" stroke-width="1" x1="60" y1="659" x2="1190" y2="659"/>
<line opacity="0.1" stroke="#000000" stroke-width="1" x1="60" y1="643" x2="1190" y2="643"/>
<line opacity="0.1" stroke="#000000" stroke-width="1" x1="60" y1="628" x2="1190" y2="628"/>
<line opacity="0.1" stroke="#000000" stroke-width="1" x1="60" y1="612" x2="1190" y2="612"/>
<line opacity="0.1" stroke="#000000" stroke-width="1" x1="60" y1="596" x2="1190" y2="596"/>
<line opacity="0.1" stroke="#000000" stroke-width="1" x1="60" y1="580" x2="1190" y2="580"/>
<line opacity="0.1" stroke="#000000" stroke-width="1" x1="60" y1="564" x2="1190" y2="564"/>
<line opacity="0.1" stroke="#000000" stroke-width="1" x1="60" y1="548" x2="1190" y2="548"/>
<line opacity="0.1" stroke="#000000" stroke-width="1" x1="60" y1="532" x2="1190" y2="532"/>
<line opacity="0.1" stroke="#000000" stroke-width="1" x1="60" y1="516" x2="1190" y2="516"/>
<line opacity="0.1" stroke="#000000" stroke-width="1" x1="60" y1="500" x2="1190" y2="500"/>
<line opacity="0.1" stroke="#000000" stroke-width="1" x1="60" y1="484" x2="1190" y2="484"/>
<line opacity="0.1" stroke="#000000" stroke-width="1" x1="60" y1="469" x2="1190" y2="469"/>
<line opacity="0.1" stroke="#000000" stroke-width="1" x1="60" y1="453" x2="1190" y2="453"/>
<line opacity="0.1" stroke="#000000" stroke-width="1" x1="60" y1="437" x2="1190" y2="437"/>
<line opacity="0.1" stroke="#000000" stroke-width="1" x1="60" y1="421" x2="1190" y2="421"/>
<line opacity="0.1" stroke="#000000" stroke-width="1" x1="60" y1="405" x2="1190" y2="405"/>
<line opacity="0.1" stroke="#000000" stroke-width="1" x1="60" y1="389" x2="1190" y2="389"/>
<line opacity="0.1" stroke="#000000" stroke-width="1" x1="60" y1="373" x2="1190" y2="373"/>
<line opacity="0.1" stroke="#000000" stroke-width="1" x1="60" y1="357" x2="1190" y2="357"/>
<line opacity="0.1" stroke="#000000" stroke-width="1" x1="60" y1="341" x2="1190" y2="341"/>
<line opacity="0.1" stroke="#000000" stroke-width="1" x1="60" y1="325" x2="1190" y2="325"/>
<line opacity="0.1" stroke="#000000" stroke-width="1" x1="60" y1="310" x2="1190" y2="310"/>
<line opacity="0.1" stroke="#000000" stroke-width="1" x1="60" y1="294" x2="1190" y2="294"/>
<line opacity="0.1" stroke="#000000" stroke-width="1" x1="60" y1="278" x2="1190" y2="278"/>
<line opacity="0.1" stroke="#000000" stroke-width="1" x1="60" y1="262" x2="1190" y2="262"/>
<line opacity="0.1" stroke="#000000" stroke-width="1" x1="60" y1="246" x2="1190" y2="246"/>
<line opacity="0.1" stroke="#000000" stroke-width="1" x1="60" y1="230" x2="1190" y2="230"/>
<line opacity="0.1" stroke="#000000" stroke-width="1" x1="60" y1="214" x2="1190" y2="214"/>
<line opacity="0.1" stroke="#000000" stroke-width="1" x1="60" y1="198" x2="1190" y2="198"/>
<line opacity="0.1" stroke="#000000" stroke-width="1" x1="60" y1="182" x2="1190" y2="182"/>
<line opacity="0.1" stroke="#000000" stroke-width="1" x1="60" y1="166" x2="1190" y2="166"/>
<line opacity="0.1" stroke="#000000" stroke-width="1" x1="60" y1="151" x2="1190" y2="151"/>
<line opacity="0.1" stroke="#000000" stroke-width="1" x1="60" y1="135" x2="1190" y2="135"/>
<line opacity="0.1" stroke="#000000" stroke-width="1" x1="60" y1="119" x2="1190" y2="119"/>
<line opacity="0.1" stroke="#000000" stroke-width="1" x1="60" y1="103" x2="1190" y2="103"/>
<line opacity="0.1" stroke="#000000" stroke-width="1" x1="60" y1="87" x2="1190" y2="87"/>
<line opacity="0.1" stroke="#000000" stroke-width="1" x1="60" y1="71" x2="1190" y2="71"/>
<line opacity="0.1" stroke="#000000" stroke-width="1" x1="60" y1="55" x2="1190" y2="55"/>
<line opacity="0.1" stroke="#000000" stroke-width="1" x1="60" y1="39" x2="1190" y2="39"/>
<line opacity="0.1" stroke="#000000" stroke-width="1" x1="60" y1="23" x2="1190" y2="23"/>
<text x="10" y="375" dy="0.76em" text-anchor="middle" font-family="sans-serif" font-size="9.67741935483871" opacity="1" fill="#000000" transform="rotate(270, 10, 375)">
Number of dependent crates
</text>
<line opacity="0.2" stroke="#000000" stroke-width="1" x1="60" y1="580" x2="1190" y2="580"/>
<line opacity="0.2" stroke="#000000" stroke-width="1" x1="60" y1="421" x2="1190" y2="421"/>
<line opacity="0.2" stroke="#000000" stroke-width="1" x1="60" y1="262" x2="1190" y2="262"/>
<line opacity="0.2" stroke="#000000" stroke-width="1" x1="60" y1="103" x2="1190" y2="103"/>
<polyline fill="none" opacity="1" stroke="#000000" stroke-width="1" points="59,10 59,740 "/>
<text x="50" y="580" dy="0.5ex" text-anchor="end" font-family="sans-serif" font-size="9.67741935483871" opacity="1" fill="#000000">
500
</text>
<polyline fill="none" opacity="1" stroke="#000000" stroke-width="1" points="54,580 59,580 "/>
<text x="50" y="421" dy="0.5ex" text-anchor="end" font-family="sans-serif" font-size="9.67741935483871" opacity="1" fill="#000000">
1000
</text>
<polyline fill="none" opacity="1" stroke="#000000" stroke-width="1" points="54,421 59,421 "/>
<text x="50" y="262" dy="0.5ex" text-anchor="end" font-family="sans-serif" font-size="9.67741935483871" opacity="1" fill="#000000">
1500
</text>
<polyline fill="none" opacity="1" stroke="#000000" stroke-width="1" points="54,262 59,262 "/>
<text x="50" y="103" dy="0.5ex" text-anchor="end" font-family="sans-serif" font-size="9.67741935483871" opacity="1" fill="#000000">
2000
</text>
<polyline fill="none" opacity="1" stroke="#000000" stroke-width="1" points="54,103 59,103 "/>
<polyline fill="none" opacity="1" stroke="#000000" stroke-width="1" points="60,740 1190,740 "/>
<text x="60" y="750" dy="0.76em" text-anchor="middle" font-family="sans-serif" font-size="9.67741935483871" opacity="1" fill="#000000">
2015-09-24Z
</text>
<polyline fill="none" opacity="1" stroke="#000000" stroke-width="1" points="60,740 60,745 "/>
<text x="175" y="750" dy="0.76em" text-anchor="middle" font-family="sans-serif" font-size="9.67741935483871" opacity="1" fill="#000000">
2016-03-03Z
</text>
<polyline fill="none" opacity="1" stroke="#000000" stroke-width="1" points="175,740 175,745 "/>
<text x="291" y="750" dy="0.76em" text-anchor="middle" font-family="sans-serif" font-size="9.67741935483871" opacity="1" fill="#000000">
2016-08-11Z
</text>
<polyline fill="none" opacity="1" stroke="#000000" stroke-width="1" points="291,740 291,745 "/>
<text x="406" y="750" dy="0.76em" text-anchor="middle" font-family="sans-serif" font-size="9.67741935483871" opacity="1" fill="#000000">
2017-01-19Z
</text>
<polyline fill="none" opacity="1" stroke="#000000" stroke-width="1" points="406,740 406,745 "/>
<text x="522" y="750" dy="0.76em" text-anchor="middle" font-family="sans-serif" font-size="9.67741935483871" opacity="1" fill="#000000">
2017-06-29Z
</text>
<polyline fill="none" opacity="1" stroke="#000000" stroke-width="1" points="522,740 522,745 "/>
<text x="637" y="750" dy="0.76em" text-anchor="middle" font-family="sans-serif" font-size="9.67741935483871" opacity="1" fill="#000000">
2017-12-07Z
</text>
<polyline fill="none" opacity="1" stroke="#000000" stroke-width="1" points="637,740 637,745 "/>
<text x="753" y="750" dy="0.76em" text-anchor="middle" font-family="sans-serif" font-size="9.67741935483871" opacity="1" fill="#000000">
2018-05-17Z
</text>
<polyline fill="none" opacity="1" stroke="#000000" stroke-width="1" points="753,740 753,745 "/>
<text x="869" y="750" dy="0.76em" text-anchor="middle" font-family="sans-serif" font-size="9.67741935483871" opacity="1" fill="#000000">
2018-10-25Z
</text>
<polyline fill="none" opacity="1" stroke="#000000" stroke-width="1" points="869,740 869,745 "/>
<text x="984" y="750" dy="0.76em" text-anchor="middle" font-family="sans-serif" font-size="9.67741935483871" opacity="1" fill="#000000">
2019-04-04Z
</text>
<polyline fill="none" opacity="1" stroke="#000000" stroke-width="1" points="984,740 984,745 "/>
<text x="1100" y="750" dy="0.76em" text-anchor="middle" font-family="sans-serif" font-size="9.67741935483871" opacity="1" fill="#000000">
2019-09-12Z
</text>
<polyline fill="none" opacity="1" stroke="#000000" stroke-width="1" points="1100,740 1100,745 "/>
<polyline fill="none" opacity="1" stroke="#E61919" stroke-width="2" points="1118,738 1119,738 1120,738 1121,738 1122,738 1123,738 1123,738 1124,737 1125,737 1125,737 1126,737 1127,736 1128,736 1128,736 1129,736 1130,735 1131,735 1131,734 1132,734 1133,733 1134,733 1134,732 1136,732 1136,732 1137,731 1138,730 1139,730 1139,728 1140,724 1141,724 1141,724 1142,723 1143,723 1144,723 1144,722 1145,721 1146,717 1146,717 1147,717 1148,716 1149,716 1149,715 1150,715 1151,714 1151,714 1152,711 1153,711 1154,710 1154,710 1155,710 1156,710 1156,710 1157,709 1158,708 1159,707 1159,707 1160,706 1161,706 1162,706 1162,706 1163,704 1164,704 1164,703 1165,703 1166,703 1167,703 1167,702 1168,702 1169,702 1169,701 1170,701 1171,700 1172,700 1172,700 1173,699 1174,698 1174,698 1175,697 1176,697 1177,696 1177,696 1178,695 1179,694 1179,694 1180,691 1181,690 1182,690 1182,690 1183,689 1184,689 1184,686 1185,685 1186,684 1187,684 1187,683 1188,681 1189,679 1190,679 "/>
<polyline fill="none" opacity="1" stroke="#E6C819" stroke-width="2" points="915,738 923,738 929,738 932,737 957,737 964,737 981,736 982,736 985,735 987,735 990,735 994,734 999,734 1001,734 1009,734 1011,734 1012,733 1014,733 1029,733 1037,732 1037,732 1038,732 1039,732 1040,731 1041,731 1042,731 1043,731 1044,731 1044,731 1045,731 1046,731 1047,731 1047,730 1050,730 1051,730 1052,730 1052,730 1053,730 1054,730 1055,730 1055,730 1056,730 1057,730 1058,729 1060,729 1060,729 1061,730 1062,730 1062,730 1063,730 1064,729 1065,729 1066,729 1067,729 1067,729 1069,729 1070,729 1071,729 1072,729 1072,729 1073,729 1074,729 1075,729 1075,729 1076,729 1077,729 1078,729 1078,729 1080,728 1080,728 1082,728 1083,728 1084,728 1085,728 1085,728 1088,728 1088,728 1089,728 1090,728 1090,728 1091,728 1092,727 1093,726 1093,726 1094,726 1095,726 1095,726 1096,726 1097,726 1098,726 1098,726 1099,726 1100,726 1102,726 1103,726 1103,726 1104,726 1105,726 1107,726 1108,726 1109,726 1110,726 1111,726 1113,726 1113,725 1114,725 1115,725 1116,724 1116,724 1118,724 1119,724 1121,724 1121,724 1122,724 1123,724 1123,724 1125,724 1126,724 1128,724 1131,724 1132,724 1133,724 1135,724 1136,724 1136,724 1138,724 1139,724 1140,724 1141,724 1141,724 1147,724 1148,724 1149,724 1151,724 1152,724 1154,724 1154,724 1155,724 1156,724 1156,724 1157,724 1158,724 1159,724 1159,724 1160,724 1161,724 1162,724 1163,724 1164,724 1164,724 1165,724 1166,724 1168,724 1169,724 1169,724 1170,724 1173,724 1174,724 1177,724 1177,724 1178,724 1179,724 1180,723 1181,723 1182,723 1182,723 1183,723 1184,723 1184,723 1185,723 1187,723 1188,723 1190,723 "/>
<polyline fill="none" opacity="1" stroke="#54E619" stroke-width="2" points="254,738 255,738 261,738 266,738 274,738 275,737 276,737 276,737 277,737 278,737 278,737 279,737 280,737 281,737 281,737 282,737 283,737 283,737 284,737 285,737 286,737 291,737 292,737 294,736 295,736 296,736 298,736 299,736 301,735 302,735 304,735 304,734 305,734 306,734 306,734 308,734 309,734 310,734 311,734 314,733 314,732 317,732 318,732 322,731 324,731 327,730 328,729 329,728 330,728 334,727 336,727 337,727 338,726 339,726 341,726 342,726 345,725 348,725 349,725 350,724 351,724 352,724 353,723 354,723 355,722 355,722 357,721 357,721 360,720 365,720 365,720 366,719 367,719 368,719 369,718 370,718 370,717 371,716 373,716 374,715 375,714 375,714 376,714 378,713 379,713 380,712 381,712 382,711 383,711 383,711 384,709 385,708 385,707 386,705 387,705 388,704 389,704 390,704 390,703 391,702 393,701 393,701 394,700 395,700 395,700 396,699 397,699 398,699 398,699 399,698 400,698 401,698 401,698 402,696 403,696 403,696 404,696 405,696 406,696 406,696 407,696 408,696 408,696 409,696 410,695 411,695 411,694 412,694 413,694 413,694 414,694 415,693 416,693 416,693 417,693 418,693 418,692 419,692 420,691 421,691 421,690 422,690 423,690 423,690 424,689 425,688 426,688 427,687 428,686 429,686 431,686 431,685 432,685 433,685 434,685 435,684 437,683 438,683 439,682 439,682 440,681 441,680 443,680 444,679 445,679 446,678 447,678 448,676 449,676 449,675 450,675 451,675 452,674 453,674 454,672 454,672 455,671 456,671 457,670 458,670 459,670 460,670 462,670 463,669 464,669 465,669 466,668 467,668 467,667 468,667 469,666 469,666 470,666 471,665 472,664 472,664 474,663 475,663 476,663 477,662 478,661 479,660 479,660 480,659 481,658 482,658 482,657 483,657 484,657 485,656 485,656 486,655 487,655 488,654 489,654 490,653 490,652 491,650 492,650 492,650 494,649 495,648 495,647 496,647 497,647 497,646 498,646 499,646 500,646 500,646 501,645 502,644 502,643 503,643 504,643 505,643 505,643 506,642 507,642 507,641 508,641 509,641 510,641 510,640 511,639 512,639 513,639 513,638 514,637 515,637 515,636 516,636 517,635 518,635 518,634 519,634 520,634 520,633 521,633 522,632 523,632 523,631 524,631 525,631 525,631 526,630 527,630 528,630 528,630 529,630 530,629 530,629 531,628 532,628 533,628 533,627 534,625 535,625 535,625 536,623 537,622 538,621 538,621 539,620 540,620 541,619 541,618 542,617 543,617 543,616 544,616 545,615 546,615 546,615 547,615 548,614 548,614 549,613 550,613 551,613 551,613 552,613 553,612 553,612 554,611 555,611 556,609 556,609 557,609 558,609 558,608 559,607 560,607 561,606 561,606 562,605 563,605 563,604 564,603 565,603 566,602 566,601 567,601 568,600 569,599 569,598 570,598 571,597 571,597 572,596 573,595 574,594 574,594 575,594 576,594 576,593 577,593 578,593 579,593 579,593 580,593 581,593 581,593 582,593 583,592 584,592 584,585 585,584 586,584 586,583 587,583 588,581 589,581 589,580 590,580 591,579 591,579 592,579 593,578 594,578 594,578 595,577 596,576 597,576 597,575 598,574 599,573 599,573 600,573 601,573 602,573 602,573 603,572 604,572 604,572 605,572 606,572 607,572 607,572 608,572 609,571 609,571 610,571 611,570 612,570 612,570 613,570 614,569 614,569 615,569 616,567 617,566 617,565 618,565 619,565 619,565 620,565 621,563 622,562 622,562 623,562 624,562 625,562 625,562 626,561 627,561 627,561 628,560 629,560 630,561 630,560 631,560 632,560 632,559 633,559 634,558 635,558 635,557 636,557 637,556 637,555 638,555 639,555 640,555 640,555 641,555 642,555 642,556 643,555 644,554 645,554 645,553 646,553 647,552 647,552 648,552 649,551 650,550 650,550 651,550 652,550 652,548 653,547 654,546 655,546 655,546 656,545 657,545 658,545 658,545 659,545 660,544 660,544 661,544 662,544 663,544 663,543 664,543 665,543 665,543 666,543 667,543 668,542 668,542 669,541 670,541 670,541 671,541 672,542 673,541 673,542 674,541 675,542 675,543 676,543 677,542 678,542 678,541 679,541 680,541 680,541 681,541 682,540 683,540 683,540 684,539 685,539 686,539 686,539 687,538 688,538 688,538 689,538 690,538 691,538 691,538 692,538 693,538 693,538 694,538 695,538 696,538 696,538 697,538 698,538 698,538 699,540 700,540 701,541 701,541 702,540 703,540 703,540 704,540 705,540 706,538 706,538 707,538 708,538 708,538 709,538 710,538 711,538 711,538 712,537 713,537 714,537 714,537 715,537 716,537 716,537 717,538 718,537 719,537 719,537 720,537 721,536 721,535 722,535 723,536 724,536 724,536 725,536 726,535 726,536 727,536 728,536 729,535 729,535 730,535 731,536 731,536 732,535 733,535 734,535 734,535 735,535 736,535 736,534 737,535 738,535 739,535 739,535 740,534 741,534 742,534 742,534 743,534 744,534 744,533 745,533 746,533 747,533 747,532 748,533 749,533 749,533 750,534 751,533 752,533 752,533 753,533 754,531 754,531 755,531 756,531 757,531 757,531 758,532 759,532 759,532 760,533 761,533 762,533 762,533 763,533 764,533 764,533 765,533 766,532 767,532 767,533 768,532 769,532 770,532 770,532 771,532 772,532 772,532 773,531 774,531 775,531 775,531 776,531 777,531 777,532 778,531 779,531 780,531 780,531 781,531 782,531 782,531 783,531 784,531 785,531 785,531 786,531 787,531 787,531 788,531 789,531 790,531 790,531 791,531 792,530 792,530 793,530 794,530 795,530 795,530 796,529 797,529 798,528 798,528 799,528 800,528 800,529 801,530 802,529 803,529 803,530 804,530 805,530 805,530 806,530 807,530 808,530 808,530 809,530 810,531 810,531 811,531 812,531 813,530 813,530 814,530 815,530 815,530 816,531 817,531 818,531 818,531 819,530 820,531 820,531 821,531 822,530 823,530 823,529 824,529 825,529 826,529 826,529 827,529 828,528 828,529 829,528 830,528 831,528 831,528 832,528 833,528 833,527 834,527 835,527 836,527 836,527 837,528 838,528 838,527 839,527 840,527 841,527 841,527 842,527 843,527 843,527 844,527 845,527 846,527 846,526 847,526 848,526 848,526 848,525 849,525 850,525 851,525 851,525 852,525 853,526 854,526 854,526 855,526 856,525 856,525 857,525 858,525 859,525 859,525 860,525 861,525 861,525 862,525 863,525 864,525 864,525 865,525 866,525 866,525 867,525 868,525 869,525 869,525 870,524 871,524 871,524 872,524 873,524 874,524 874,523 875,523 876,523 876,523 877,523 878,523 879,523 879,524 880,531 881,532 882,532 882,531 883,531 884,531 884,531 885,531 886,531 887,531 887,531 888,531 889,530 889,530 890,530 891,530 892,530 892,530 893,531 894,530 894,530 895,530 896,530 897,530 897,530 898,530 899,530 899,530 900,531 901,531 902,531 902,530 903,530 904,531 904,531 905,531 906,531 907,531 907,531 908,531 909,531 910,531 910,531 911,531 912,531 912,531 913,531 914,531 915,531 915,531 916,531 917,531 917,531 918,531 919,531 920,531 920,532 921,532 922,532 922,531 923,531 924,531 925,531 925,531 926,531 927,531 927,532 928,532 929,532 930,532 930,531 931,531 932,531 932,531 933,531 934,531 935,531 935,531 936,530 937,530 938,530 938,530 939,529 940,529 940,529 941,530 942,530 943,530 943,531 944,531 945,531 945,531 946,531 947,531 948,531 948,531 949,531 950,530 950,530 951,530 952,530 953,530 953,529 954,529 955,529 955,529 956,529 957,529 958,529 958,529 959,529 960,529 960,529 961,529 962,529 963,529 963,530 964,530 965,529 966,529 966,529 967,529 968,529 968,529 969,529 970,530 971,530 971,530 972,530 973,530 973,529 974,529 975,530 976,530 976,530 977,529 978,529 978,529 979,529 980,530 981,529 981,529 982,530 983,530 983,530 984,530 985,530 986,528 986,528 987,528 988,528 988,528 989,528 990,528 991,528 991,528 992,528 993,528 994,528 994,528 995,528 996,528 996,528 997,529 998,529 999,529 999,529 1000,529 1001,529 1001,529 1002,529 1003,529 1004,529 1004,529 1005,529 1006,529 1006,529 1007,529 1008,529 1009,529 1009,529 1010,529 1011,529 1011,529 1012,530 1013,529 1014,529 1014,529 1015,529 1016,529 1016,529 1017,530 1018,530 1019,530 1019,529 1020,530 1021,530 1022,530 1022,529 1023,529 1024,528 1024,528 1025,528 1026,527 1027,527 1027,528 1028,528 1029,528 1029,528 1030,528 1031,528 1032,527 1032,527 1033,528 1034,528 1034,528 1035,528 1036,528 1037,529 1037,529 1038,528 1039,528 1039,528 1040,528 1041,528 1042,528 1042,528 1043,529 1044,529 1044,529 1045,528 1046,528 1047,528 1047,528 1048,528 1049,528 1050,528 1050,528 1051,528 1052,528 1052,528 1053,528 1054,528 1055,528 1055,527 1056,527 1057,527 1057,527 1058,527 1059,527 1060,527 1060,527 1061,527 1062,527 1062,527 1063,527 1064,527 1065,527 1065,527 1066,527 1067,527 1067,527 1068,526 1069,526 1070,526 1070,526 1071,526 1072,526 1072,526 1073,526 1074,525 1075,525 1075,525 1076,525 1077,525 1078,525 1078,526 1079,526 1080,526 1080,526 1081,526 1082,526 1083,526 1083,526 1084,526 1085,526 1085,526 1086,526 1087,526 1088,526 1088,526 1089,526 1090,526 1090,526 1091,526 1092,526 1093,526 1093,526 1094,526 1095,526 1095,526 1096,526 1097,526 1098,526 1098,526 1099,526 1100,526 1100,526 1101,526 1102,526 1103,526 1103,526 1104,526 1105,526 1106,526 1106,526 1107,526 1108,524 1108,524 1109,524 1110,524 1111,524 1111,524 1112,524 1113,524 1113,524 1114,524 1115,524 1116,524 1116,524 1117,524 1118,524 1118,524 1119,524 1120,523 1121,523 1121,523 1122,523 1123,523 1123,524 1124,524 1125,524 1125,524 1126,524 1126,524 1127,524 1128,524 1128,524 1129,524 1130,524 1131,524 1131,524 1132,524 1133,524 1134,524 1134,524 1135,524 1136,524 1136,524 1137,524 1138,524 1139,524 1139,523 1140,523 1141,523 1141,522 1142,522 1143,522 1144,522 1144,522 1145,521 1146,521 1146,522 1147,522 1148,523 1149,523 1149,523 1150,523 1151,522 1151,522 1152,523 1153,523 1154,523 1154,523 1155,523 1156,523 1156,523 1157,523 1158,523 1159,523 1159,523 1160,523 1161,523 1162,523 1162,523 1163,523 1164,523 1164,523 1165,523 1166,523 1167,523 1167,523 1168,523 1169,523 1169,523 1170,523 1171,523 1172,523 1172,523 1173,523 1174,523 1174,523 1175,522 1176,522 1177,522 1177,522 1178,522 1179,522 1179,522 1180,522 1181,522 1182,522 1182,522 1183,522 1184,522 1184,522 1185,523 1186,523 1187,523 1187,523 1188,523 1189,523 1190,523 "/>
<polyline fill="none" opacity="1" stroke="#19E68E" stroke-width="2" points="622,738 624,738 625,738 626,737 627,736 627,736 629,735 630,735 630,733 631,733 632,732 632,731 633,731 634,731 635,730 635,730 636,729 637,729 640,728 640,727 641,726 642,726 642,725 643,725 644,724 647,723 647,722 648,721 650,721 650,721 651,720 652,719 653,719 654,718 655,717 655,717 656,717 657,716 658,716 658,715 660,714 660,712 661,712 662,711 663,711 663,711 664,710 665,710 665,710 666,708 667,708 668,708 669,708 670,706 670,706 671,706 672,705 673,704 673,703 674,703 675,702 675,701 676,700 677,699 678,699 678,697 679,697 680,696 680,696 681,696 682,695 683,693 683,692 684,692 686,691 686,691 687,691 688,691 688,691 689,690 690,690 691,688 691,688 692,686 693,685 693,684 694,683 695,682 696,681 696,680 697,678 698,676 698,675 700,675 701,673 701,671 702,669 703,669 703,668 704,668 705,667 706,666 706,666 707,665 708,665 708,664 709,664 710,663 711,662 711,661 712,660 713,660 714,659 715,658 716,657 716,657 717,656 718,655 719,655 719,654 720,654 721,653 721,652 722,651 723,650 724,649 724,648 725,647 726,647 726,645 727,642 728,641 729,640 729,639 730,637 731,635 731,634 732,634 733,634 734,633 734,632 735,632 736,631 736,628 737,627 738,626 739,624 739,624 740,622 741,621 742,620 742,620 743,617 744,616 744,617 745,616 746,615 747,614 747,613 748,612 749,611 749,610 750,609 751,606 752,606 752,605 753,604 754,604 754,603 755,602 756,602 757,601 757,600 758,598 759,598 759,597 760,594 761,592 762,591 762,589 763,589 764,588 764,587 765,587 766,587 767,587 767,585 768,585 769,584 770,584 770,583 771,583 772,582 772,581 773,581 774,580 775,580 775,579 776,576 777,575 777,572 778,572 779,570 780,570 780,569 781,570 782,570 782,569 783,568 784,567 785,566 785,566 786,565 787,565 787,563 788,563 789,562 790,562 790,561 791,561 792,560 792,559 793,559 794,557 795,556 795,556 796,555 797,555 798,555 798,554 799,552 800,552 800,549 801,548 802,547 803,546 803,546 804,545 805,545 805,544 806,544 807,543 808,542 808,542 809,540 810,538 810,538 811,537 812,537 813,536 813,535 814,535 815,535 815,534 816,533 817,533 818,531 818,530 819,530 820,528 820,526 821,526 822,524 823,524 823,523 824,522 825,520 826,519 826,519 827,518 828,518 828,517 829,517 830,516 831,515 831,513 832,512 833,511 833,510 834,510 835,509 836,508 836,506 837,505 838,505 838,504 839,503 840,503 841,502 841,500 842,500 843,498 843,497 844,496 845,495 846,493 846,493 847,491 848,491 848,489 848,489 849,488 850,487 851,485 851,484 852,481 853,478 854,476 854,475 855,475 856,474 856,473 857,473 858,472 859,471 859,470 860,470 861,469 861,469 862,468 863,468 864,467 864,466 865,465 866,464 866,461 867,460 868,460 869,458 869,458 870,457 871,456 871,454 872,453 873,452 874,451 874,450 875,450 876,449 876,449 877,447 878,448 879,446 879,445 880,431 881,430 882,430 882,430 883,428 884,428 884,427 885,427 886,426 887,423 887,423 888,422 889,422 889,419 890,418 891,417 892,417 892,416 893,414 894,414 894,414 895,413 896,412 897,410 897,408 898,406 899,404 899,401 900,400 901,398 902,398 902,396 903,395 904,393 904,393 905,393 906,392 907,389 907,387 908,386 909,385 910,384 910,383 911,381 912,380 912,380 913,379 914,379 915,377 915,377 916,376 917,374 917,374 918,371 919,370 920,370 920,368 921,367 922,363 922,361 923,362 924,362 925,361 925,361 926,359 927,359 927,356 928,356 929,355 930,353 930,352 931,352 932,352 932,351 933,350 934,348 935,347 935,346 936,345 937,344 938,343 938,342 939,341 940,341 940,341 941,340 942,338 943,338 943,337 944,336 945,336 945,332 946,331 947,330 948,329 948,327 949,326 950,325 950,324 951,324 952,324 953,323 953,323 954,321 955,321 955,321 956,320 957,319 958,319 958,318 959,316 960,314 960,313 961,311 962,309 963,309 963,309 964,308 965,306 966,304 966,303 967,300 968,300 968,300 969,299 970,298 971,297 971,295 972,295 973,294 973,293 974,292 975,292 976,290 976,290 977,289 978,289 978,289 979,288 980,285 981,284 981,283 982,282 983,281 983,279 984,277 985,276 986,276 986,276 987,275 988,275 988,274 989,272 990,271 991,269 991,267 992,266 993,266 994,265 994,265 995,265 996,264 996,263 997,262 998,261 999,260 999,259 1000,259 1001,258 1001,257 1002,256 1003,255 1004,255 1004,253 1005,252 1006,251 1006,250 1007,250 1008,248 1009,248 1009,247 1010,246 1011,245 1011,246 1012,244 1013,245 1014,244 1014,243 1015,242 1016,240 1016,240 1017,238 1018,237 1019,238 1019,238 1020,232 1021,231 1022,231 1022,231 1023,230 1024,229 1024,228 1025,228 1026,227 1027,226 1027,226 1028,225 1029,226 1029,227 1030,226 1031,225 1032,224 1032,223 1033,222 1034,221 1034,220 1035,218 1036,218 1037,217 1037,216 1038,214 1039,214 1039,210 1040,210 1041,209 1042,209 1042,207 1043,205 1044,205 1044,205 1045,201 1046,200 1047,200 1047,198 1048,198 1049,197 1050,195 1050,191 1051,191 1052,191 1052,190 1053,189 1054,189 1055,188 1055,186 1056,186 1057,185 1057,185 1058,185 1059,184 1060,184 1060,182 1061,182 1062,180 1062,179 1063,178 1064,178 1065,176 1065,172 1066,167 1067,168 1067,166 1068,165 1069,165 1070,164 1070,163 1071,163 1072,163 1072,162 1073,161 1074,160 1075,159 1075,158 1076,157 1077,157 1078,157 1078,155 1079,152 1080,152 1080,151 1081,151 1082,149 1083,149 1083,148 1084,145 1085,143 1085,143 1086,143 1087,142 1088,142 1088,141 1089,142 1090,141 1090,141 1091,140 1092,138 1093,138 1093,138 1094,136 1095,136 1095,135 1096,135 1097,135 1098,134 1098,133 1099,131 1100,130 1100,129 1101,129 1102,129 1103,128 1103,127 1104,126 1105,124 1106,124 1106,123 1107,122 1108,122 1108,121 1109,120 1110,119 1111,119 1111,117 1112,117 1113,117 1113,116 1114,117 1115,116 1116,114 1116,114 1117,114 1118,115 1118,114 1119,113 1120,112 1121,111 1121,109 1122,109 1123,108 1123,107 1124,106 1125,106 1125,106 1126,105 1126,108 1127,108 1128,108 1128,108 1129,108 1130,107 1131,106 1131,106 1132,106 1133,105 1134,104 1134,106 1135,106 1136,105 1136,105 1137,109 1138,110 1139,109 1139,110 1140,113 1141,113 1141,113 1142,112 1143,112 1144,111 1144,111 1145,112 1146,115 1146,115 1147,115 1148,116 1149,116 1149,112 1150,112 1151,112 1151,112 1152,111 1153,111 1154,111 1154,110 1155,110 1156,107 1156,106 1157,106 1158,105 1159,104 1159,103 1160,102 1161,102 1162,101 1162,100 1163,99 1164,99 1164,99 1165,99 1166,97 1167,97 1167,97 1168,96 1169,96 1169,96 1170,96 1171,95 1172,95 1172,95 1173,95 1174,89 1174,89 1175,88 1176,89 1177,88 1177,88 1178,88 1179,87 1179,82 1180,81 1181,80 1182,80 1182,79 1183,77 1184,77 1184,77 1185,77 1186,77 1187,76 1187,75 1188,75 1189,75 1190,76 "/>
<polyline fill="none" opacity="1" stroke="#198EE6" stroke-width="2" points="60,738 60,738 65,738 76,738 86,737 95,737 96,737 101,737 103,736 104,736 109,736 114,736 115,735 122,735 129,735 130,735 133,734 139,734 143,734 146,734 153,733 154,733 154,733 159,733 161,732 168,732 170,732 174,732 174,732 179,732 179,731 185,731 189,731 190,731 191,731 192,731 193,731 194,731 200,730 208,730 209,730 210,729 210,729 220,729 220,728 222,728 224,728 227,727 231,727 233,727 235,726 240,726 242,726 246,726 248,726 248,725 250,725 254,725 258,724 259,724 260,724 263,723 266,723 272,723 274,723 281,723 282,723 283,722 283,722 284,722 293,722 294,722 295,721 301,721 304,721 306,720 309,720 315,720 317,720 320,720 324,719 325,719 327,719 330,719 334,718 335,718 336,718 337,718 339,717 340,717 341,717 344,717 345,717 347,717 349,717 350,717 350,716 351,716 353,716 354,716 357,716 358,716 359,715 360,715 364,715 367,715 368,714 369,714 370,714 370,714 377,714 380,714 381,713 382,713 383,713 384,713 385,713 387,713 388,713 389,712 390,712 390,712 391,712 392,712 395,712 396,712 397,711 398,711 398,711 399,711 401,711 402,710 403,710 404,710 405,710 406,710 406,710 408,710 411,709 411,709 412,709 413,708 413,708 415,708 416,708 416,708 417,708 418,708 419,708 420,708 421,707 423,707 424,707 425,707 427,707 429,706 429,706 430,706 431,706 432,706 433,706 435,706 436,706 436,705 437,705 438,705 439,705 439,705 440,705 441,705 443,705 444,705 445,704 446,704 446,704 447,704 449,704 451,704 452,704 453,704 454,704 455,704 456,704 457,704 457,704 458,704 459,704 459,704 460,704 462,703 463,703 464,703 464,703 465,703 466,703 467,703 467,703 468,703 469,703 469,703 472,703 472,703 474,703 474,702 476,702 477,702 477,702 478,702 479,702 480,702 482,702 482,702 483,702 485,701 486,701 488,701 489,701 490,701 490,701 491,701 492,701 495,701 495,701 496,700 497,700 497,700 498,700 499,700 500,700 500,700 501,700 502,699 502,699 504,699 505,699 505,699 506,699 507,698 508,698 509,698 510,698 511,697 513,697 514,697 515,697 515,697 516,697 517,697 518,697 518,697 519,697 522,697 523,697 524,697 525,697 525,697 528,697 529,697 530,697 530,697 531,697 532,697 533,697 534,697 535,697 535,697 536,697 537,697 538,697 540,697 541,696 541,696 542,696 543,696 543,696 544,696 545,696 546,695 546,695 548,695 549,695 550,695 551,695 552,695 553,695 553,695 556,695 556,695 557,694 558,694 558,694 559,694 560,694 561,694 562,694 563,694 563,694 565,694 566,694 566,694 567,694 568,694 569,694 570,694 571,694 571,694 572,694 573,694 574,694 574,694 576,694 576,694 577,694 578,694 581,694 581,694 583,694 584,693 584,693 585,693 586,693 586,693 587,692 589,692 589,692 591,692 592,692 594,692 595,692 596,692 597,692 598,691 599,691 599,691 600,691 601,691 602,691 603,691 607,690 607,690 609,690 610,690 614,690 615,690 616,689 617,689 618,688 623,688 624,689 625,689 625,689 626,689 627,689 628,688 630,688 630,688 633,689 636,689 642,689 642,689 643,688 644,688 645,688 645,689 649,689 650,689 651,689 652,689 655,689 661,689 665,689 666,688 667,688 668,688 669,688 670,688 670,688 673,688 673,688 675,688 676,688 677,688 679,687 680,687 681,687 682,687 683,687 683,686 684,686 685,686 686,686 687,686 688,686 688,686 689,686 690,686 691,685 693,685 693,685 694,684 695,684 696,684 696,684 697,683 698,683 698,683 699,683 700,683 701,683 701,683 702,683 703,683 703,683 704,683 705,683 706,683 706,683 707,683 708,683 708,683 709,683 710,683 711,683 711,683 712,683 713,683 714,683 714,683 715,683 716,683 716,683 717,683 718,683 719,683 719,683 720,683 721,683 721,683 722,683 723,683 724,682 724,682 725,682 726,682 726,682 727,682 728,682 729,682 729,682 730,682 731,682 731,682 732,682 733,682 734,682 734,681 735,681 736,681 736,681 737,681 738,681 739,681 739,680 740,680 741,680 742,680 742,680 743,680 744,680 744,680 745,680 746,680 747,680 747,680 748,680 749,680 749,680 750,681 751,681 752,681 752,681 753,681 754,681 754,680 755,680 756,680 757,680 757,681 758,680 759,680 759,680 760,680 761,680 762,680 762,680 763,680 764,680 764,680 765,680 766,680 767,680 767,680 768,680 769,680 770,680 770,680 771,680 772,679 772,679 773,679 774,679 775,679 775,679 776,679 777,679 777,679 778,679 779,679 780,679 780,679 781,679 782,679 782,679 783,678 784,678 785,678 785,678 786,678 787,678 787,678 788,678 789,678 790,678 790,678 791,678 792,678 792,678 793,678 794,678 795,678 795,678 796,678 797,678 798,678 798,678 799,678 800,678 800,678 801,678 802,678 803,678 803,678 804,678 805,678 805,678 806,678 807,677 808,677 808,677 809,677 810,677 810,677 811,677 812,677 813,677 813,677 814,677 815,677 815,677 816,677 817,677 818,677 818,677 819,677 820,677 820,677 821,677 822,677 823,677 823,677 824,677 825,677 826,677 826,677 827,677 828,677 828,677 829,676 830,676 831,676 831,677 832,677 833,677 833,676 834,676 835,676 836,676 836,676 837,676 838,676 838,676 839,676 840,676 841,676 841,676 842,675 843,675 843,676 844,676 845,676 846,676 846,676 847,676 848,676 848,676 848,676 849,676 850,676 851,676 851,676 852,676 853,676 854,676 854,676 855,676 856,676 856,675 857,675 858,675 859,675 859,675 860,675 861,675 861,675 862,675 863,675 864,675 864,675 865,675 866,676 866,676 867,676 868,676 869,676 869,676 870,676 871,676 871,676 872,676 873,676 874,676 874,676 875,676 876,675 876,675 877,675 878,675 879,675 879,675 880,675 881,675 882,675 882,675 883,675 884,675 884,675 885,675 886,675 887,675 887,675 888,675 889,675 889,675 890,675 891,675 892,675 892,675 893,675 894,675 894,675 895,675 896,675 897,675 897,675 898,675 899,675 899,675 900,675 901,675 902,675 902,675 903,674 904,674 904,674 905,674 906,674 907,674 907,674 908,674 909,674 910,674 910,674 911,674 912,674 912,674 913,674 914,674 915,674 915,674 916,674 917,674 917,674 918,674 919,674 920,674 920,674 921,674 922,674 922,674 923,674 924,674 925,674 925,674 926,674 927,674 927,674 928,674 929,674 930,674 930,674 931,674 932,674 932,674 933,674 934,674 935,674 935,674 936,674 937,675 938,675 938,675 939,675 940,675 940,675 941,675 942,675 943,675 943,675 944,675 945,675 945,675 946,674 947,674 948,674 948,674 949,674 950,674 950,674 951,674 952,674 953,674 953,674 954,674 955,674 955,674 956,674 957,674 958,674 958,674 959,674 960,674 960,674 961,673 962,673 963,673 963,673 964,673 965,673 966,673 966,672 967,671 968,671 968,671 969,671 970,671 971,671 971,671 972,671 973,671 973,671 974,671 975,671 976,671 976,671 977,671 978,671 978,671 979,671 980,671 981,671 981,671 982,671 983,671 983,671 984,671 985,671 986,671 986,671 987,671 988,671 988,671 989,671 990,671 991,671 991,670 992,670 993,670 994,670 994,670 995,670 996,670 996,670 997,670 998,670 999,670 999,670 1000,670 1001,670 1001,670 1002,670 1003,670 1004,670 1004,670 1005,669 1006,669 1006,669 1007,669 1008,669 1009,669 1009,669 1010,669 1011,669 1011,669 1012,668 1013,668 1014,668 1014,668 1015,668 1016,668 1016,668 1017,668 1018,668 1019,668 1019,668 1020,668 1021,668 1022,668 1022,668 1023,668 1024,668 1024,668 1025,668 1026,668 1027,668 1027,668 1028,668 1029,667 1029,667 1030,667 1031,667 1032,667 1032,667 1033,667 1034,667 1034,667 1035,667 1036,667 1037,667 1037,667 1038,667 1039,667 1039,667 1040,667 1041,667 1042,667 1042,668 1043,668 1044,668 1044,668 1045,668 1046,668 1047,668 1047,668 1048,668 1049,668 1050,668 1050,668 1051,668 1052,667 1052,667 1053,665 1054,665 1055,665 1055,665 1056,665 1057,664 1057,664 1058,664 1059,664 1060,664 1060,663 1061,663 1062,663 1062,663 1063,663 1064,663 1065,663 1065,662 1066,662 1067,662 1067,662 1068,662 1069,662 1070,662 1070,662 1071,662 1072,662 1072,662 1073,662 1074,662 1075,662 1075,662 1076,662 1077,662 1078,662 1078,662 1079,662 1080,662 1080,662 1081,662 1082,662 1083,662 1083,662 1084,662 1085,662 1085,661 1086,661 1087,661 1088,661 1088,661 1089,661 1090,661 1090,661 1091,660 1092,660 1093,660 1093,660 1094,660 1095,660 1095,660 1096,660 1097,660 1098,660 1098,660 1099,660 1100,660 1100,660 1101,660 1102,660 1103,660 1103,660 1104,660 1105,660 1106,660 1106,660 1107,660 1108,660 1108,660 1109,660 1110,660 1111,661 1111,661 1112,661 1113,661 1113,661 1114,661 1115,661 1116,661 1116,661 1117,661 1118,661 1118,661 1119,661 1120,661 1121,661 1121,661 1122,661 1123,661 1123,661 1124,661 1125,661 1125,661 1126,661 1126,661 1127,661 1128,661 1128,660 1129,660 1130,660 1131,660 1131,660 1132,660 1133,660 1134,660 1134,660 1135,660 1136,660 1136,660 1137,661 1138,660 1139,660 1139,660 1140,660 1141,660 1141,660 1142,660 1143,660 1144,660 1144,660 1145,660 1146,660 1146,660 1147,660 1148,660 1149,660 1149,660 1150,660 1151,660 1151,660 1152,660 1153,660 1154,660 1154,660 1155,660 1156,660 1156,660 1157,660 1158,660 1159,660 1159,660 1160,660 1161,660 1162,660 1162,660 1163,660 1164,660 1164,660 1165,660 1166,660 1167,660 1167,660 1168,660 1169,660 1169,660 1170,660 1171,660 1172,660 1172,660 1173,660 1174,660 1174,660 1175,660 1176,660 1177,660 1177,660 1178,660 1179,660 1179,660 1180,660 1181,660 1182,660 1182,660 1183,660 1184,660 1184,660 1185,660 1186,660 1187,660 1187,660 1188,660 1189,660 1190,660 "/>
<polyline fill="none" opacity="1" stroke="#5419E6" stroke-width="2" points="1007,738 1009,738 1013,738 1019,737 1022,737 1025,737 1028,736 1029,736 1029,734 1030,733 1039,733 1052,732 1057,732 1058,732 1060,731 1062,731 1065,731 1067,730 1067,729 1068,729 1069,729 1077,728 1078,728 1078,728 1079,727 1083,726 1083,727 1084,726 1085,726 1089,726 1090,725 1090,726 1093,725 1096,725 1098,725 1099,724 1101,724 1107,724 1111,723 1111,723 1114,723 1118,723 1120,722 1121,722 1122,722 1126,722 1126,721 1128,721 1128,721 1129,720 1130,720 1132,719 1135,718 1139,718 1140,718 1141,717 1142,717 1143,716 1144,716 1145,715 1146,715 1148,715 1149,715 1149,714 1150,714 1152,714 1153,714 1154,714 1156,714 1162,714 1164,713 1165,713 1167,713 1169,712 1170,712 1172,712 1173,712 1177,711 1177,711 1182,710 1182,710 1183,710 1184,710 1184,710 1185,710 1187,709 "/>
<polyline fill="none" opacity="1" stroke="#E619C8" stroke-width="2" points="1119,738 1120,737 1121,737 1121,737 1122,736 1123,736 1123,735 1124,735 1125,735 1126,735 1127,734 1128,734 1128,734 1129,734 1130,734 1131,734 1131,733 1132,732 1133,732 1134,731 1134,731 1136,731 1136,730 1137,729 1138,727 1139,727 1139,727 1140,726 1141,725 1141,724 1142,724 1143,724 1144,724 1144,724 1145,723 1146,720 1146,719 1147,719 1148,717 1149,717 1149,717 1150,717 1151,716 1151,716 1152,716 1153,716 1154,715 1154,714 1155,714 1156,714 1156,714 1157,714 1158,714 1159,714 1159,713 1160,712 1161,712 1162,712 1162,711 1163,710 1164,710 1164,710 1165,709 1166,707 1167,707 1167,706 1168,706 1169,706 1169,706 1170,706 1171,703 1172,702 1172,702 1173,700 1174,699 1174,699 1175,698 1176,697 1177,697 1177,697 1178,696 1179,696 1179,695 1180,694 1181,694 1182,693 1182,692 1183,690 1184,689 1184,688 1185,688 1186,686 1187,686 1187,685 1188,685 1189,684 1190,683 "/>
<rect x="1078" y="315" width="107" height="119" opacity="1" fill="#FFFFFF" stroke="none"/>
<rect x="1078" y="315" width="107" height="119" opacity="1" fill="none" stroke="#000000"/>
<text x="1118" y="325" dy="0.76em" text-anchor="start" font-family="sans-serif" font-size="9.67741935483871" opacity="1" fill="#000000">
anyhow
</text>
<text x="1118" y="340" dy="0.76em" text-anchor="start" font-family="sans-serif" font-size="9.67741935483871" opacity="1" fill="#000000">
err-derive
</text>
<text x="1118" y="355" dy="0.76em" text-anchor="start" font-family="sans-serif" font-size="9.67741935483871" opacity="1" fill="#000000">
error-chain
</text>
<text x="1118" y="370" dy="0.76em" text-anchor="start" font-family="sans-serif" font-size="9.67741935483871" opacity="1" fill="#000000">
failure
</text>
<text x="1118" y="385" dy="0.76em" text-anchor="start" font-family="sans-serif" font-size="9.67741935483871" opacity="1" fill="#000000">
quick-error
</text>
<text x="1118" y="400" dy="0.76em" text-anchor="start" font-family="sans-serif" font-size="9.67741935483871" opacity="1" fill="#000000">
snafu
</text>
<text x="1118" y="415" dy="0.76em" text-anchor="start" font-family="sans-serif" font-size="9.67741935483871" opacity="1" fill="#000000">
thiserror
</text>
<polyline fill="none" opacity="1" stroke="#E61919" stroke-width="2" points="1088,330 1108,330 "/>
<polyline fill="none" opacity="1" stroke="#E6C819" stroke-width="2" points="1088,344 1108,344 "/>
<polyline fill="none" opacity="1" stroke="#54E619" stroke-width="2" points="1088,359 1108,359 "/>
<polyline fill="none" opacity="1" stroke="#19E68E" stroke-width="2" points="1088,374 1108,374 "/>
<polyline fill="none" opacity="1" stroke="#198EE6" stroke-width="2" points="1088,390 1108,390 "/>
<polyline fill="none" opacity="1" stroke="#5419E6" stroke-width="2" points="1088,404 1108,404 "/>
<polyline fill="none" opacity="1" stroke="#E619C8" stroke-width="2" points="1088,419 1108,419 "/>
</svg>
