<svg width="1200" height="800" viewBox="0 0 1200 800" xmlns="http://www.w3.org/2000/svg">
<rect x="0" y="0" width="1199" height="799" opacity="1" fill="#FFFFFF" stroke="none"/>
<line opacity="0.1" stroke="#000000" stroke-width="1" x1="60" y1="725" x2="1190" y2="725"/>
<line opacity="0.1" stroke="#000000" stroke-width="1" x1="60" y1="711" x2="1190" y2="711"/>
<line opacity="0.1" stroke="#000000" stroke-width="1" x1="60" y1="697" x2="1190" y2="697"/>
<line opacity="0.1" stroke="#000000" stroke-width="1" x1="60" y1="683" x2="1190" y2="683"/>
<line opacity="0.1" stroke="#000000" stroke-width="1" x1="60" y1="669" x2="1190" y2="669"/>
<line opacity="0.1" stroke="#000000" stroke-width="1" x1="60" y1="655" x2="1190" y2="655"/>
<line opacity="0.1" stroke="#000000" stroke-width="1" x1="60" y1="641" x2="1190" y2="641"/>
<line opacity="0.1" stroke="#000000" stroke-width="1" x1="60" y1="627" x2="1190" y2="627"/>
<line opacity="0.1" stroke="#000000" stroke-width="1" x1="60" y1="613" x2="1190" y2="613"/>
<line opacity="0.1" stroke="#000000" stroke-width="1" x1="60" y1="599" x2="1190" y2="599"/>
<line opacity="0.1" stroke="#000000" stroke-width="1" x1="60" y1="585" x2="1190" y2="585"/>
<line opacity="0.1" stroke="#000000" stroke-width="1" x1="60" y1="571" x2="1190" y2="571"/>
<line opacity="0.1" stroke="#000000" stroke-width="1" x1="60" y1="557" x2="1190" y2="557"/>
<line opacity="0.1" stroke="#000000" stroke-width="1" x1="60" y1="543" x2="1190" y2="543"/>
<line opacity="0.1" stroke="#000000" stroke-width="1" x1="60" y1="528" x2="1190" y2="528"/>
<line opacity="0.1" stroke="#000000" stroke-width="1" x1="60" y1="514" x2="1190" y2="514"/>
<line opacity="0.1" stroke="#000000" stroke-width="1" x1="60" y1="500" x2="1190" y2="500"/>
<line opacity="0.1" stroke="#000000" stroke-width="1" x1="60" y1="486" x2="1190" y2="486"/>
<line opacity="0.1" stroke="#000000" stroke-width="1" x1="60" y1="472" x2="1190" y2="472"/>
<line opacity="0.1" stroke="#000000" stroke-width="1" x1="60" y1="458" x2="1190" y2="458"/>
<line opacity="0.1" stroke="#000000" stroke-width="1" x1="60" y1="444" x2="1190" y2="444"/>
<line opacity="0.1" stroke="#000000" stroke-width="1" x1="60" y1="430" x2="1190" y2="430"/>
<line opacity="0.1" stroke="#000000" stroke-width="1" x1="60" y1="416" x2="1190" y2="416"/>
<line opacity="0.1" stroke="#000000" stroke-width="1" x1="60" y1="402" x2="1190" y2="402"/>
<line opacity="0.1" stroke="#000000" stroke-width="1" x1="60" y1="388" x2="1190" y2="388"/>
<line opacity="0.1" stroke="#000000" stroke-width="1" x1="60" y1="374" x2="1190" y2="374"/>
<line opacity="0.1" stroke="#000000" stroke-width="1" x1="60" y1="360" x2="1190" y2="360"/>
<line opacity="0.1" stroke="#000000" stroke-width="1" x1="60" y1="346" x2="1190" y2="346"/>
<line opacity="0.1" stroke="#000000" stroke-width="1" x1="60" y1="332" x2="1190" y2="332"/>
<line opacity="0.1" stroke="#000000" stroke-width="1" x1="60" y1="318" x2="1190" y2="318"/>
<line opacity="0.1" stroke="#000000" stroke-width="1" x1="60" y1="304" x2="1190" y2="304"/>
<line opacity="0.1" stroke="#000000" stroke-width="1" x1="60" y1="290" x2="1190" y2="290"/>
<line opacity="0.1" stroke="#000000" stroke-width="1" x1="60" y1="276" x2="1190" y2="276"/>
<line opacity="0.1" stroke="#000000" stroke-width="1" x1="60" y1="262" x2="1190" y2="262"/>
<line opacity="0.1" stroke="#000000" stroke-width="1" x1="60" y1="248" x2="1190" y2="248"/>
<line opacity="0.1" stroke="#000000" stroke-width="1" x1="60" y1="234" x2="1190" y2="234"/>
<line opacity="0.1" stroke="#000000" stroke-width="1" x1="60" y1="220" x2="1190" y2="220"/>
<line opacity="0.1" stroke="#000000" stroke-width="1" x1="60" y1="206" x2="1190" y2="206"/>
<line opacity="0.1" stroke="#000000" stroke-width="1" x1="60" y1="192" x2="1190" y2="192"/>
<line opacity="0.1" stroke="#000000" stroke-width="1" x1="60" y1="178" x2="1190" y2="178"/>
<line opacity="0.1" stroke="#000000" stroke-width="1" x1="60" y1="164" x2="1190" y2="164"/>
<line opacity="0.1" stroke="#000000" stroke-width="1" x1="60" y1="150" x2="1190" y2="150"/>
<line opacity="0.1" stroke="#000000" stroke-width="1" x1="60" y1="136" x2="1190" y2="136"/>
<line opacity="0.1" stroke="#000000" stroke-width="1" x1="60" y1="122" x2="1190" y2="122"/>
<line opacity="0.1" stroke="#000000" stroke-width="1" x1="60" y1="108" x2="1190" y2="108"/>
<line opacity="0.1" stroke="#000000" stroke-width="1" x1="60" y1="94" x2="1190" y2="94"/>
<line opacity="0.1" stroke="#000000" stroke-width="1" x1="60" y1="80" x2="1190" y2="80"/>
<line opacity="0.1" stroke="#000000" stroke-width="1" x1="60" y1="66" x2="1190" y2="66"/>
<line opacity="0.1" stroke="#000000" stroke-width="1" x1="60" y1="52" x2="1190" y2="52"/>
<line opacity="0.1" stroke="#000000" stroke-width="1" x1="60" y1="38" x2="1190" y2="38"/>
<line opacity="0.1" stroke="#000000" stroke-width="1" x1="60" y1="24" x2="1190" y2="24"/>
<line opacity="0.1" stroke="#000000" stroke-width="1" x1="60" y1="10" x2="1190" y2="10"/>
<text x="10" y="375" dy="0.76em" text-anchor="middle" font-family="sans-serif" font-size="9.67741935483871" opacity="1" fill="#000000" transform="rotate(270, 10, 375)">
Number of dependent crates
</text>
<line opacity="0.2" stroke="#000000" stroke-width="1" x1="60" y1="599" x2="1190" y2="599"/>
<line opacity="0.2" stroke="#000000" stroke-width="1" x1="60" y1="458" x2="1190" y2="458"/>
<line opacity="0.2" stroke="#000000" stroke-width="1" x1="60" y1="318" x2="1190" y2="318"/>
<line opacity="0.2" stroke="#000000" stroke-width="1" x1="60" y1="178" x2="1190" y2="178"/>
<line opacity="0.2" stroke="#000000" stroke-width="1" x1="60" y1="38" x2="1190" y2="38"/>
<polyline fill="none" opacity="1" stroke="#000000" stroke-width="1" points="59,10 59,740 "/>
<text x="50" y="599" dy="0.5ex" text-anchor="end" font-family="sans-serif" font-size="9.67741935483871" opacity="1" fill="#000000">
500
</text>
<polyline fill="none" opacity="1" stroke="#000000" stroke-width="1" points="54,599 59,599 "/>
<text x="50" y="458" dy="0.5ex" text-anchor="end" font-family="sans-serif" font-size="9.67741935483871" opacity="1" fill="#000000">
1000
</text>
<polyline fill="none" opacity="1" stroke="#000000" stroke-width="1" points="54,458 59,458 "/>
<text x="50" y="318" dy="0.5ex" text-anchor="end" font-family="sans-serif" font-size="9.67741935483871" opacity="1" fill="#000000">
1500
</text>
<polyline fill="none" opacity="1" stroke="#000000" stroke-width="1" points="54,318 59,318 "/>
<text x="50" y="178" dy="0.5ex" text-anchor="end" font-family="sans-serif" font-size="9.67741935483871" opacity="1" fill="#000000">
2000
</text>
<polyline fill="none" opacity="1" stroke="#000000" stroke-width="1" points="54,178 59,178 "/>
<text x="50" y="38" dy="0.5ex" text-anchor="end" font-family="sans-serif" font-size="9.67741935483871" opacity="1" fill="#000000">
2500
</text>
<polyline fill="none" opacity="1" stroke="#000000" stroke-width="1" points="54,38 59,38 "/>
<polyline fill="none" opacity="1" stroke="#000000" stroke-width="1" points="60,740 1190,740 "/>
<text x="60" y="750" dy="0.76em" text-anchor="middle" font-family="sans-serif" font-size="9.67741935483871" opacity="1" fill="#000000">
2015-09-24Z
</text>
<polyline fill="none" opacity="1" stroke="#000000" stroke-width="1" points="60,740 60,745 "/>
<text x="175" y="750" dy="0.76em" text-anchor="middle" font-family="sans-serif" font-size="9.67741935483871" opacity="1" fill="#000000">
2016-04-14Z
</text>
<polyline fill="none" opacity="1" stroke="#000000" stroke-width="1" points="175,740 175,745 "/>
<text x="290" y="750" dy="0.76em" text-anchor="middle" font-family="sans-serif" font-size="9.67741935483871" opacity="1" fill="#000000">
2016-11-03Z
</text>
<polyline fill="none" opacity="1" stroke="#000000" stroke-width="1" points="290,740 290,745 "/>
<text x="405" y="750" dy="0.76em" text-anchor="middle" font-family="sans-serif" font-size="9.67741935483871" opacity="1" fill="#000000">
2017-05-25Z
</text>
<polyline fill="none" opacity="1" stroke="#000000" stroke-width="1" points="405,740 405,745 "/>
<text x="520" y="750" dy="0.76em" text-anchor="middle" font-family="sans-serif" font-size="9.67741935483871" opacity="1" fill="#000000">
2017-12-14Z
</text>
<polyline fill="none" opacity="1" stroke="#000000" stroke-width="1" points="520,740 520,745 "/>
<text x="636" y="750" dy="0.76em" text-anchor="middle" font-family="sans-serif" font-size="9.67741935483871" opacity="1" fill="#000000">
2018-07-05Z
</text>
<polyline fill="none" opacity="1" stroke="#000000" stroke-width="1" points="636,740 636,745 "/>
<text x="751" y="750" dy="0.76em" text-anchor="middle" font-family="sans-serif" font-size="9.67741935483871" opacity="1" fill="#000000">
2019-01-24Z
</text>
<polyline fill="none" opacity="1" stroke="#000000" stroke-width="1" points="751,740 751,745 "/>
<text x="866" y="750" dy="0.76em" text-anchor="middle" font-family="sans-serif" font-size="9.67741935483871" opacity="1" fill="#000000">
2019-08-15Z
</text>
<polyline fill="none" opacity="1" stroke="#000000" stroke-width="1" points="866,740 866,745 "/>
<text x="981" y="750" dy="0.76em" text-anchor="middle" font-family="sans-serif" font-size="9.67741935483871" opacity="1" fill="#000000">
2020-03-05Z
</text>
<polyline fill="none" opacity="1" stroke="#000000" stroke-width="1" points="981,740 981,745 "/>
<text x="1096" y="750" dy="0.76em" text-anchor="middle" font-family="sans-serif" font-size="9.67741935483871" opacity="1" fill="#000000">
2020-09-24Z
</text>
<polyline fill="none" opacity="1" stroke="#000000" stroke-width="1" points="1096,740 1096,745 "/>
<polyline fill="none" opacity="1" stroke="#E61919" stroke-width="2" points="896,738 897,738 898,738 898,738 899,738 899,738 901,738 901,737 902,737 902,737 902,737 903,737 903,737 904,736 905,736 905,736 906,735 906,735 907,735 907,734 908,734 909,734 909,733 910,733 911,733 911,732 912,731 913,731 913,729 914,726 914,725 915,725 915,725 916,725 917,724 917,724 918,723 918,720 919,719 919,719 920,718 920,718 921,717 922,717 922,717 923,717 923,714 924,714 924,714 925,714 926,714 926,713 927,713 927,713 928,711 928,711 929,710 930,710 930,710 931,710 931,710 932,708 932,708 933,708 934,708 934,707 935,707 935,707 936,707 936,706 937,706 938,705 938,705 939,705 939,704 940,704 940,703 941,703 941,702 942,702 943,701 943,701 944,700 944,700 945,699 945,697 946,696 947,696 947,696 948,695 948,694 949,692 949,692 950,691 951,691 951,689 952,688 952,686 953,685 953,685 954,685 955,684 955,684 956,684 956,684 957,683 957,683 958,680 959,679 959,679 960,678 960,678 961,677 961,677 962,677 962,677 963,676 964,674 964,674 965,673 965,673 966,671 966,671 967,670 968,669 968,669 969,669 969,669 970,668 970,667 971,666 972,666 972,665 973,664 973,664 974,664 974,664 975,664 976,663 976,662 977,661 977,661 978,660 978,660 979,659 980,659 980,658 981,657 981,657 982,657 982,657 982,657 982,656 983,655 983,655 983,655 984,655 984,654 985,654 985,654 985,652 986,652 986,647 986,647 986,647 987,647 987,645 987,645 987,645 988,645 988,644 989,644 989,643 989,643 989,643 990,643 990,642 990,642 990,641 991,640 991,640 991,640 992,639 993,639 993,638 993,638 993,637 994,637 994,636 994,636 994,636 995,636 995,634 995,634 995,634 996,634 997,634 997,633 997,633 997,633 998,633 998,632 998,632 998,631 999,631 999,630 999,630 999,629 1000,629 1000,628 1001,628 1001,626 1001,626 1001,624 1002,622 1002,622 1002,620 1003,620 1003,619 1003,619 1003,618 1004,618 1004,617 1004,617 1004,617 1005,617 1005,616 1006,615 1006,614 1006,614 1006,611 1007,611 1007,611 1007,611 1007,610 1008,610 1008,608 1008,608 1009,607 1010,607 1010,607 1010,607 1010,605 1011,605 1011,604 1011,604 1011,603 1012,603 1012,603 1012,603 1012,603 1013,603 1013,601 1014,601 1014,601 1014,601 1014,601 1015,599 1015,599 1015,597 1016,596 1016,595 1016,595 1016,595 1017,595 1017,592 1018,592 1018,590 1018,590 1019,590 1019,589 1019,589 1019,588 1020,588 1020,586 1020,586 1020,583 1021,583 1021,582 1022,582 1022,582 1022,582 1022,581 1023,581 1023,579 1023,579 1023,574 1024,574 1024,572 1024,572 1024,569 1025,569 1025,567 1025,567 1025,567 1026,567 1026,565 1027,565 1027,564 1027,564 1027,561 1028,561 1028,560 1028,560 1028,560 1029,559 1029,559 1029,556 1030,556 1030,553 1031,553 1031,552 1031,552 1031,550 1032,550 1032,549 1032,549 1032,548 1033,548 1033,547 1033,547 1033,545 1034,545 1034,543 1035,541 1035,541 1035,538 1036,538 1036,537 1036,537 1036,536 1037,536 1037,534 1037,534 1037,532 1038,530 1039,529 1039,529 1039,528 1040,527 1040,527 1040,526 1041,526 1041,524 1041,524 1041,523 1042,523 1042,521 1043,521 1043,521 1043,521 1043,520 1044,520 1044,519 1044,519 1044,518 1045,518 1045,518 1045,518 1045,517 1046,516 1046,516 1046,515 1047,515 1047,514 1048,514 1048,511 1048,511 1048,510 1049,510 1049,509 1049,509 1049,508 1050,508 1050,507 1050,507 1050,505 1051,505 1051,504 1052,504 1052,503 1052,503 1052,502 1053,502 1053,501 1053,501 1053,500 1054,500 1054,500 1054,500 1054,499 1055,497 1056,497 1056,497 1056,496 1056,495 1057,495 1057,495 1057,495 1057,494 1058,494 1058,493 1058,493 1058,492 1059,492 1059,490 1060,489 1060,489 1060,488 1061,488 1061,487 1061,487 1061,485 1062,485 1062,485 1062,485 1062,483 1063,483 1063,481 1064,481 1064,480 1064,480 1064,479 1065,479 1065,477 1065,477 1065,477 1066,477 1066,476 1066,476 1066,473 1067,473 1067,472 1067,472 1067,471 1068,471 1068,470 1069,470 1069,467 1069,467 1069,466 1070,466 1070,463 1070,463 1071,463 1071,460 1071,460 1071,458 1072,458 1072,456 1073,456 1073,454 1073,454 1073,453 1074,453 1074,450 1074,450 1074,449 1075,449 1075,447 1075,447 1075,446 1076,446 1076,443 1077,443 1077,442 1077,442 1077,441 1078,441 1078,440 1078,440 1078,439 1079,439 1079,437 1079,437 1079,435 1080,435 1080,435 1081,435 1081,434 1081,434 1081,431 1082,431 1082,430 1082,430 1082,428 1083,428 1083,425 1083,425 1083,423 1084,423 1084,416 1085,416 1085,412 1085,412 1085,412 1086,412 1086,411 1086,410 1087,410 1087,409 1087,409 1087,408 1088,404 1088,404 1088,404 1089,404 1089,402 1090,402 1090,401 1090,401 1090,398 1091,398 1091,397 1091,397 1091,394 1092,394 1092,392 1092,392 1092,391 1093,391 1093,387 1094,387 1094,386 1094,385 1095,385 1095,383 1095,383 1095,381 1096,381 1096,379 1096,379 1096,378 1097,378 1097,378 1098,378 1098,378 1098,378 1098,376 1099,376 1099,375 1099,375 1099,373 1100,373 1100,372 1100,372 1100,371 1101,371 1101,369 1102,369 1102,368 1102,368 1102,367 1103,367 1103,366 1103,366 1103,366 1104,366 1104,366 1104,366 1104,366 1105,366 1105,365 1106,365 1106,363 1106,363 1106,362 1107,362 1107,360 1107,360 1107,359 1108,359 1108,359 1108,359 1108,358 1109,358 1109,357 1109,357 1109,356 1110,356 1110,354 1111,354 1111,352 1111,352 1111,350 1112,350 1112,350 1112,350 1112,348 1113,348 1113,345 1113,345 1113,343 1114,343 1114,342 1115,342 1115,340 1115,340 1115,340 1116,340 1116,335 1116,335 1116,333 1117,333 1117,333 1117,333 1117,332 1118,332 1118,331 1119,331 1119,330 1119,330 1119,329 1120,329 1120,329 1120,329 1120,328 1121,326 1121,326 1121,323 1122,323 1122,320 1123,320 1123,319 1123,319 1123,318 1124,318 1124,315 1124,315 1124,314 1125,314 1125,313 1125,313 1125,312 1126,312 1126,312 1127,312 1127,310 1127,310 1127,310 1128,310 1128,309 1128,309 1128,308 1129,308 1129,306 1129,306 1129,305 1130,305 1130,304 1130,304 1130,302 1131,302 1131,301 1132,301 1132,299 1132,298 1133,298 1133,298 1133,298 1133,296 1134,296 1134,293 1134,293 1134,292 1135,291 1136,291 1136,290 1136,290 1136,288 1137,288 1137,287 1137,287 1137,285 1138,285 1138,285 1138,285 1138,283 1139,283 1139,283 1140,283 1140,283 1140,283 1140,282 1141,282 1141,280 1141,280 1141,280 1142,280 1142,278 1142,278 1142,278 1143,278 1143,278 1144,278 1144,277 1144,277 1144,276 1145,276 1145,275 1145,275 1145,275 1146,275 1146,274 1146,274 1146,273 1147,273 1147,271 1148,271 1148,271 1148,271 1148,270 1149,270 1149,270 1149,270 1149,269 1150,269 1150,266 1150,266 1150,263 1151,262 1151,260 1151,260 1151,258 1152,258 1152,257 1153,257 1153,255 1153,255 1153,252 1154,252 1154,248 1154,248 1154,245 1155,244 1155,243 1155,242 1156,242 1156,241 1157,241 1157,239 1157,239 1157,239 1158,239 1158,237 1158,237 1158,236 1159,236 1159,234 1159,234 1159,232 1160,232 1160,230 1161,230 1161,225 1161,225 1161,223 1162,223 1162,221 1162,221 1162,220 1163,220 1163,219 1163,218 1163,217 1164,217 1164,215 1165,215 1165,214 1165,214 1165,212 1166,212 1166,209 1166,209 1166,208 1167,208 1167,206 1167,206 1167,206 1168,206 1168,204 1169,204 1169,202 1169,202 1169,200 1170,200 1170,198 1170,198 1170,196 1171,196 1171,194 1171,194 1171,193 1172,193 1172,190 1172,189 1172,188 1173,188 1173,186 1174,186 1174,185 1174,185 1174,183 1175,183 1175,181 1175,181 1175,174 1176,174 1176,171 1176,171 1176,168 1177,168 1177,167 1178,167 1178,165 1178,165 1178,162 1179,162 1179,162 1179,162 1179,160 1180,160 1180,158 1180,158 1180,155 1181,155 1181,153 1182,153 1182,152 1182,152 1182,150 1183,150 1183,147 1183,147 1183,145 1184,145 1184,144 1184,144 1184,143 1185,143 1185,141 1186,141 1186,137 1186,136 1187,136 1187,135 1187,135 1187,130 1188,129 1188,125 1188,125 1188,122 1189,122 1189,121 1190,121 "/>
<polyline fill="none" opacity="1" stroke="#E6C819" stroke-width="2" points="736,738 742,738 747,738 749,737 769,737 775,737 788,736 789,736 791,736 793,735 795,735 796,735 797,735 798,735 798,735 799,735 802,735 803,735 804,735 804,734 806,734 807,734 808,734 808,734 809,734 810,734 810,734 811,734 812,734 812,734 813,734 813,734 815,734 815,734 817,734 818,734 818,734 819,734 819,734 821,734 821,734 822,734 823,734 823,734 825,734 825,734 826,733 826,733 827,733 829,733 830,733 830,733 831,733 832,733 833,733 833,733 834,733 834,733 835,731 835,731 836,731 836,731 837,731 838,731 838,731 839,731 839,731 840,731 840,731 841,731 842,731 842,731 843,731 843,731 844,731 844,731 845,731 846,731 846,731 847,731 848,731 848,731 849,730 850,730 850,730 851,730 851,731 852,731 852,731 853,731 854,730 855,730 855,730 856,730 856,730 857,730 857,730 859,730 859,730 860,730 860,730 861,730 861,730 862,730 863,730 863,730 864,730 864,730 865,730 865,730 866,730 867,730 867,730 868,730 868,730 869,730 869,729 871,729 871,729 872,729 872,729 873,729 873,729 874,729 875,729 875,729 876,728 876,728 877,728 877,728 878,728 878,728 879,728 880,728 880,728 881,728 881,728 882,728 882,728 883,728 884,728 884,728 885,728 885,728 886,728 886,728 887,728 888,728 888,728 889,728 890,728 890,728 891,728 892,728 893,727 893,727 894,726 894,726 896,726 896,726 897,726 897,726 898,726 898,726 899,726 900,726 901,726 901,726 902,726 902,726 902,726 903,726 903,726 904,726 905,726 905,726 906,726 907,726 907,726 908,726 909,726 909,726 910,726 910,726 911,726 911,726 912,726 913,726 913,726 914,726 914,726 915,726 915,726 916,726 917,726 917,726 918,726 919,726 919,726 920,726 920,726 921,726 922,726 922,726 923,726 923,726 924,726 924,726 925,726 926,726 926,726 927,726 928,726 928,726 929,726 930,726 930,726 931,725 931,725 932,725 932,725 933,725 934,725 934,725 935,725 935,725 936,726 936,726 937,726 938,725 938,725 939,725 940,725 940,725 941,725 941,725 942,725 943,725 943,725 944,725 944,725 945,725 945,725 946,725 947,725 948,725 948,725 949,725 949,725 950,725 951,725 951,725 952,725 952,725 953,725 953,725 954,725 955,725 955,725 956,725 956,725 957,725 957,725 958,725 959,725 959,724 960,724 960,724 961,724 961,724 962,724 962,724 963,724 964,724 964,724 965,724 965,724 966,723 966,723 967,723 968,723 968,723 969,723 969,723 970,723 970,723 971,723 972,723 972,723 973,723 973,722 974,722 974,722 975,722 976,722 977,722 977,722 978,722 978,722 979,722 980,722 980,722 981,722 981,722 982,722 982,722 982,722 982,722 983,722 983,722 983,722 984,722 984,722 985,722 985,722 985,722 986,722 986,722 986,722 986,722 987,722 987,722 987,722 987,722 988,722 988,722 989,722 989,722 989,722 989,722 990,722 990,722 990,722 990,722 991,722 991,722 991,722 992,722 993,722 993,722 993,722 993,722 994,722 994,722 994,722 994,722 995,722 995,722 995,722 995,722 996,722 997,722 997,722 997,722 997,722 998,722 998,722 998,722 998,721 999,721 999,721 999,721 999,721 1000,721 1000,721 1001,721 1001,721 1001,721 1001,721 1002,721 1002,721 1002,721 1003,721 1003,721 1003,721 1003,721 1004,721 1004,721 1004,721 1004,721 1005,721 1005,721 1006,721 1006,721 1006,721 1006,721 1007,721 1007,721 1007,721 1007,721 1008,721 1008,721 1008,721 1009,721 1010,721 1010,721 1010,721 1010,721 1011,721 1011,721 1011,721 1011,721 1012,721 1012,721 1012,721 1012,721 1013,721 1013,721 1014,721 1014,721 1014,721 1014,721 1015,721 1015,721 1015,721 1016,721 1016,721 1016,721 1016,721 1017,721 1018,721 1018,721 1018,721 1019,721 1019,721 1019,721 1019,721 1020,721 1020,721 1020,721 1020,721 1021,721 1021,721 1022,721 1022,721 1022,721 1022,721 1023,721 1023,721 1023,721 1023,721 1024,721 1024,721 1024,721 1024,721 1025,721 1025,721 1025,721 1025,721 1026,721 1026,721 1027,721 1027,721 1027,721 1027,721 1028,721 1028,721 1028,721 1028,721 1029,721 1029,721 1029,721 1030,721 1030,721 1031,721 1031,721 1031,721 1031,721 1032,721 1032,721 1032,721 1032,721 1033,721 1033,721 1033,721 1033,721 1034,721 1034,721 1035,721 1035,721 1035,721 1036,721 1036,721 1036,721 1036,721 1037,721 1037,721 1037,721 1037,721 1038,721 1039,721 1039,721 1039,721 1040,721 1040,721 1040,721 1041,721 1041,721 1041,721 1041,721 1042,721 1042,721 1043,721 1043,721 1043,721 1043,721 1044,721 1044,721 1044,721 1044,721 1045,721 1045,721 1045,721 1045,721 1046,721 1046,721 1046,721 1047,721 1047,721 1048,721 1048,721 1048,721 1048,721 1049,721 1049,721 1049,721 1049,721 1050,721 1050,721 1050,721 1050,721 1051,721 1051,721 1052,721 1052,721 1052,721 1052,721 1053,721 1053,721 1053,721 1053,721 1054,721 1054,721 1054,721 1054,721 1055,721 1056,721 1056,721 1056,721 1056,721 1057,721 1057,721 1057,721 1057,721 1058,721 1058,721 1058,721 1059,721 1059,721 1060,721 1060,721 1060,721 1061,721 1061,721 1061,721 1061,721 1062,721 1062,721 1062,721 1062,721 1063,721 1063,721 1064,721 1064,721 1064,721 1064,721 1065,721 1065,721 1065,721 1065,721 1066,721 1066,721 1066,721 1066,721 1067,721 1067,721 1067,721 1067,721 1068,721 1068,721 1069,721 1069,721 1069,721 1069,721 1070,721 1070,721 1070,721 1071,721 1071,721 1071,721 1071,721 1072,721 1072,721 1073,721 1073,721 1073,721 1073,721 1074,721 1074,721 1074,721 1074,721 1075,721 1075,721 1075,721 1075,721 1076,721 1076,721 1077,721 1077,721 1077,721 1077,721 1078,721 1078,721 1078,721 1078,721 1079,721 1079,721 1079,721 1079,721 1080,721 1080,721 1081,721 1081,721 1081,721 1081,721 1082,721 1082,721 1082,721 1082,721 1083,721 1083,721 1083,721 1084,721 1084,721 1085,721 1085,721 1085,721 1085,721 1086,721 1086,721 1086,721 1087,721 1087,721 1087,721 1087,720 1088,720 1088,720 1088,720 1089,720 1089,720 1090,720 1090,720 1090,720 1090,720 1091,720 1091,720 1091,720 1091,720 1092,720 1092,720 1092,720 1092,720 1093,720 1093,720 1094,720 1094,720 1094,720 1095,720 1095,720 1095,720 1095,720 1096,720 1096,720 1096,720 1096,720 1097,720 1097,720 1098,720 1098,720 1098,720 1098,720 1099,720 1099,720 1099,720 1100,720 1100,719 1100,719 1100,719 1101,719 1101,719 1102,719 1102,719 1102,719 1102,719 1103,719 1103,719 1103,719 1104,719 1104,719 1104,719 1104,719 1105,719 1105,719 1106,719 1106,719 1106,719 1106,719 1107,719 1107,719 1107,719 1107,719 1108,719 1108,719 1108,719 1108,719 1109,719 1109,720 1109,720 1109,720 1110,720 1110,720 1111,720 1111,720 1111,720 1112,720 1112,720 1112,720 1112,720 1113,720 1113,720 1113,720 1113,720 1114,720 1114,720 1115,720 1115,720 1115,720 1115,720 1116,720 1116,720 1116,720 1116,720 1117,720 1117,720 1117,720 1117,720 1118,720 1118,720 1119,720 1119,720 1119,720 1119,720 1120,720 1120,720 1120,720 1120,720 1121,720 1121,720 1121,720 1122,720 1122,720 1123,720 1123,720 1123,720 1123,720 1124,720 1124,720 1124,720 1124,720 1125,720 1125,720 1125,720 1125,720 1126,720 1126,720 1127,720 1127,720 1127,720 1127,721 1128,721 1128,721 1128,721 1128,721 1129,721 1129,721 1129,721 1129,721 1130,721 1130,721 1130,721 1130,721 1131,721 1131,721 1132,721 1132,721 1132,721 1133,721 1133,721 1133,721 1133,721 1134,721 1134,720 1134,720 1134,720 1135,720 1135,720 1136,720 1136,720 1136,720 1136,720 1137,720 1137,719 1137,719 1137,719 1138,719 1138,719 1138,719 1138,719 1139,719 1139,719 1140,719 1140,719 1140,719 1140,719 1141,719 1141,719 1141,719 1141,719 1142,719 1142,719 1142,719 1142,719 1143,719 1143,719 1144,719 1144,719 1144,719 1144,719 1145,719 1145,719 1145,719 1145,719 1146,719 1146,719 1146,719 1146,719 1147,719 1147,719 1148,719 1148,719 1148,719 1148,719 1149,719 1149,719 1149,719 1150,719 1150,719 1150,719 1150,719 1151,719 1151,719 1151,719 1151,719 1152,719 1152,719 1153,719 1153,719 1153,719 1153,719 1154,719 1154,719 1154,719 1154,720 1155,720 1155,720 1155,719 1156,719 1156,719 1157,719 1157,719 1157,719 1157,719 1158,719 1158,719 1158,719 1158,719 1159,719 1159,719 1159,719 1160,719 1160,719 1161,719 1161,719 1161,719 1161,719 1162,719 1162,719 1162,719 1162,719 1163,719 1163,719 1163,719 1163,719 1164,719 1164,719 1165,719 1165,719 1165,719 1166,719 1166,719 1166,719 1166,719 1167,719 1167,719 1167,719 1167,719 1168,719 1168,719 1169,719 1169,719 1169,719 1169,719 1170,719 1170,719 1170,719 1171,719 1171,719 1171,719 1171,719 1172,719 1172,719 1172,719 1172,719 1173,719 1173,719 1174,719 1174,719 1174,719 1174,719 1175,719 1175,719 1175,719 1175,719 1176,719 1176,719 1176,719 1176,719 1177,719 1177,719 1178,719 1178,719 1178,719 1178,719 1179,719 1179,719 1179,719 1179,719 1180,719 1180,719 1180,719 1180,719 1181,719 1181,719 1182,719 1182,719 1182,719 1182,719 1183,719 1183,719 1183,719 1183,719 1184,719 1184,719 1184,719 1184,719 1185,719 1185,719 1186,719 1186,719 1186,719 1187,719 1187,719 1187,719 1187,719 1188,719 1188,719 1188,719 1188,719 1189,719 1189,719 1190,719 "/>
<polyline fill="none" opacity="1" stroke="#54E619" stroke-width="2" points="213,738 214,738 218,738 223,738 229,738 230,737 230,737 235,737 245,737 246,737 247,736 251,736 252,735 253,735 254,735 255,735 258,734 259,735 260,734 261,733 263,733 264,733 267,732 269,732 269,732 271,731 272,730 273,729 273,729 277,729 278,728 279,728 280,728 281,728 281,728 282,727 283,727 283,727 284,727 285,727 285,727 286,727 287,727 287,727 288,727 288,726 289,726 289,726 290,726 290,726 291,725 292,725 292,725 293,724 293,724 294,723 295,723 296,723 297,722 300,722 301,722 301,722 302,722 302,721 304,721 304,721 305,721 305,720 306,719 307,719 308,717 309,717 309,717 310,717 310,717 311,716 312,716 313,715 314,715 314,715 315,714 315,714 316,712 317,712 317,711 318,709 318,709 319,708 319,708 320,708 321,708 321,707 322,706 322,706 323,705 324,705 325,705 325,704 326,704 326,704 327,704 327,704 328,703 329,703 329,703 330,703 330,701 331,701 331,701 332,701 332,701 333,701 334,701 335,701 336,700 337,700 338,699 338,699 339,699 339,699 340,699 340,699 341,699 342,699 342,698 343,698 343,698 344,698 344,697 345,696 346,696 346,696 347,696 347,695 348,694 348,694 350,694 350,693 351,692 351,692 352,692 352,692 353,692 353,692 354,691 355,691 355,691 356,691 356,690 357,690 357,690 358,690 359,689 359,689 360,688 360,688 361,688 361,687 362,687 363,687 363,686 364,686 364,686 365,686 365,685 366,685 367,684 367,684 368,682 368,682 369,682 369,682 370,682 371,681 371,680 372,680 372,679 373,679 373,678 374,678 374,678 375,678 376,678 376,678 377,678 377,678 378,678 378,677 379,677 380,677 380,677 381,677 381,676 382,676 382,675 383,675 384,675 384,674 385,674 385,673 386,673 386,673 387,672 388,672 388,672 389,672 389,671 390,671 390,670 391,670 392,669 392,668 393,668 393,668 394,667 394,667 395,666 395,666 396,666 397,665 397,665 398,665 398,664 399,664 399,663 400,662 401,661 401,661 402,661 402,661 403,659 403,658 404,658 405,658 405,658 406,657 406,657 407,657 407,657 408,657 409,656 409,655 410,655 410,655 411,654 411,654 412,654 413,654 413,654 414,653 414,653 415,653 415,653 416,652 416,651 417,651 418,651 418,650 419,649 419,649 420,649 420,648 421,648 422,647 422,647 423,647 423,646 424,646 424,646 425,645 426,645 426,644 427,644 427,644 428,644 428,643 429,643 430,643 430,643 431,643 431,642 432,642 432,642 433,642 434,641 434,640 435,638 435,638 436,638 436,637 437,636 437,636 438,635 439,634 439,634 440,633 440,632 441,632 441,632 442,631 443,631 443,630 444,630 444,630 445,630 445,629 446,629 447,628 447,628 448,628 448,628 449,628 449,627 450,627 451,626 451,626 452,625 452,625 453,625 453,624 454,624 455,623 455,622 456,622 456,622 457,621 457,621 458,620 458,620 459,620 460,618 460,618 461,617 461,617 462,615 462,615 463,615 464,614 464,614 465,613 465,612 466,612 466,612 467,612 468,611 468,611 469,610 469,610 470,610 470,610 471,610 472,610 472,610 473,610 473,610 474,610 474,603 475,603 476,602 476,602 477,601 477,600 478,600 478,599 479,599 479,598 480,598 481,598 481,597 482,597 482,597 483,596 483,595 484,595 485,595 485,594 486,593 486,593 487,593 487,593 488,593 489,593 489,592 490,592 490,592 491,592 491,592 492,592 493,592 493,592 494,591 494,591 495,591 495,590 496,590 497,590 497,590 498,590 498,590 499,589 499,587 500,587 500,586 501,586 502,585 502,585 503,585 503,584 504,583 504,583 505,583 506,583 506,583 507,583 507,583 508,582 508,582 509,582 510,582 510,582 511,582 511,582 512,581 512,580 513,580 514,580 514,579 515,579 515,579 516,578 516,577 517,577 518,577 518,577 519,577 519,577 520,577 520,578 521,577 521,576 522,576 523,575 523,575 524,575 524,575 525,574 525,574 526,573 527,573 527,573 528,572 528,571 529,570 529,569 530,569 531,569 531,569 532,568 532,568 533,569 533,568 534,567 535,567 535,567 536,567 536,567 537,566 537,566 538,566 539,566 539,566 540,566 540,566 541,565 541,565 542,565 542,565 543,565 544,565 544,565 545,565 545,565 546,565 546,566 547,566 548,566 548,565 549,565 549,565 550,565 550,564 551,564 552,564 552,564 553,564 553,563 554,563 554,563 555,563 556,562 556,562 557,562 557,562 558,562 558,562 559,562 560,562 560,562 561,562 561,562 562,562 562,562 563,562 563,562 564,562 565,562 565,564 566,564 566,564 567,564 567,564 568,564 569,564 569,564 570,564 570,562 571,562 571,562 572,562 573,562 573,562 574,562 574,562 575,562 575,561 576,561 577,561 577,561 578,561 578,561 579,561 579,562 580,561 581,561 581,561 582,561 582,560 583,560 583,560 584,560 584,560 585,560 586,560 586,560 587,560 587,560 588,560 588,560 589,560 590,560 590,560 591,560 591,560 592,560 592,560 593,560 594,560 594,560 595,559 595,559 596,560 596,560 597,560 598,559 598,558 599,558 599,558 600,558 600,558 601,558 602,558 602,558 603,558 603,557 604,558 604,558 605,558 605,558 606,558 607,558 607,558 608,558 608,557 609,557 609,557 610,557 611,556 611,557 612,557 612,557 613,557 613,558 614,558 615,558 615,558 616,558 616,558 617,558 617,558 618,557 619,557 619,558 620,557 620,557 621,557 621,557 622,557 623,557 623,557 624,557 624,557 625,557 625,557 626,557 626,557 627,557 628,556 628,556 629,556 629,556 630,557 630,557 631,557 632,557 632,557 633,557 633,557 634,556 634,556 635,556 636,556 636,556 637,556 637,556 638,556 638,555 639,555 640,555 640,555 641,555 641,555 642,554 642,554 643,554 644,553 644,553 645,553 645,555 646,555 646,555 647,555 647,555 648,555 649,555 649,555 650,555 650,555 651,555 651,555 652,555 653,556 653,556 654,556 654,556 655,555 655,555 656,555 657,555 657,555 658,556 658,556 659,556 659,556 660,555 661,556 661,556 662,556 662,555 663,555 663,554 664,554 665,554 665,554 666,554 666,554 667,554 667,554 668,554 668,554 669,554 670,554 670,553 671,553 671,553 672,553 672,553 673,553 674,553 674,553 675,553 675,553 676,553 676,553 677,553 678,553 678,553 679,552 679,552 680,552 680,553 681,552 682,552 682,552 683,552 683,552 683,551 684,551 684,551 685,551 686,551 686,551 687,552 687,552 688,552 688,551 689,551 689,551 690,551 691,551 691,551 692,551 692,551 693,551 693,551 694,551 695,551 695,551 696,551 696,551 697,551 697,551 698,551 699,551 699,551 700,551 700,550 701,550 701,550 702,550 703,550 703,550 704,549 704,549 705,549 705,549 706,549 707,549 707,549 708,550 708,557 709,557 709,557 710,557 710,557 711,557 712,556 712,556 713,556 713,556 714,556 714,556 715,555 716,555 716,555 717,555 717,555 718,555 718,556 719,555 720,555 720,555 721,555 721,555 722,555 722,555 723,555 724,555 724,556 725,556 725,556 726,555 726,555 727,556 728,556 728,556 729,556 729,556 730,556 730,556 731,556 731,556 732,556 733,556 733,556 734,556 734,556 735,556 735,556 736,556 737,556 737,556 738,556 738,556 739,556 739,557 740,557 741,557 741,557 742,557 742,557 743,557 743,557 744,557 745,557 745,557 746,557 746,557 747,557 747,557 748,557 749,557 749,556 750,556 750,556 751,556 751,556 752,556 752,555 753,555 754,555 754,555 755,555 755,555 756,555 756,555 757,555 758,555 758,556 759,556 759,556 760,556 760,556 761,556 762,556 762,556 763,556 763,555 764,555 764,555 765,555 766,555 766,554 767,554 767,554 768,554 768,554 769,554 770,554 770,554 771,554 771,554 772,554 772,555 773,555 773,555 774,555 775,555 775,554 776,554 776,554 777,554 777,554 778,554 779,555 779,555 780,555 780,555 781,555 781,555 782,555 783,555 783,555 784,555 784,555 785,554 785,555 786,555 787,554 787,555 788,555 788,555 789,555 789,555 790,555 791,555 791,555 792,553 792,553 793,553 793,553 794,554 794,553 795,553 796,554 796,554 797,554 797,554 798,554 798,554 799,554 800,554 800,553 801,554 801,554 802,554 802,554 803,554 804,554 804,554 805,554 805,554 806,554 806,554 807,554 808,554 808,554 809,554 809,554 810,554 810,554 811,555 812,555 812,555 813,555 813,554 814,554 814,555 815,555 815,555 816,555 817,555 817,555 818,555 818,555 819,555 819,555 820,555 821,554 821,554 822,554 822,553 823,553 823,553 824,553 825,553 825,553 826,553 826,553 827,553 827,553 828,553 829,553 829,553 830,553 830,553 831,553 831,553 832,554 833,554 833,554 834,554 834,554 835,553 835,554 836,554 836,554 837,554 838,554 838,554 839,554 839,554 840,554 840,554 841,554 842,554 842,553 843,553 843,553 844,553 844,553 845,553 846,553 846,553 847,553 847,553 848,553 848,553 849,553 850,553 850,553 851,553 851,553 852,553 852,553 853,553 854,553 854,553 855,552 855,552 856,552 856,552 857,552 857,552 858,552 859,552 859,552 860,552 860,551 861,551 861,551 862,551 863,551 863,551 864,551 864,551 865,552 865,552 866,552 867,552 867,552 868,552 868,552 869,552 869,551 870,552 871,552 871,552 872,552 872,552 873,552 873,552 874,552 875,552 875,552 876,551 876,551 877,552 877,552 878,552 878,551 879,551 880,552 880,552 881,552 881,552 882,552 882,552 883,552 884,552 884,552 885,552 885,552 886,551 886,551 887,551 888,551 888,550 889,550 889,550 890,550 890,550 891,550 892,550 892,550 893,550 893,550 894,550 894,550 895,550 896,550 896,550 897,550 897,550 898,549 898,549 899,549 899,549 900,549 901,550 901,550 902,550 902,550 902,550 903,550 903,550 904,550 905,550 905,550 906,550 906,550 907,550 907,550 908,550 909,550 909,550 910,550 910,550 911,550 911,550 912,550 913,550 913,549 914,549 914,549 915,548 915,548 916,548 917,548 917,548 918,548 918,548 919,548 919,548 920,549 920,549 921,549 922,549 922,548 923,548 923,549 924,549 924,549 925,549 926,549 926,549 927,549 927,549 928,549 928,549 929,549 930,549 930,549 931,549 931,549 932,549 932,549 933,549 934,549 934,549 935,549 935,549 936,549 936,549 937,549 938,549 938,549 939,549 939,549 940,549 940,549 941,549 941,548 942,548 943,548 943,548 944,548 944,548 945,548 945,548 946,548 947,548 947,548 948,548 948,548 949,548 949,549 950,549 951,549 951,549 952,549 952,549 953,549 953,550 954,550 955,550 955,550 956,550 956,550 957,550 957,550 958,550 959,550 959,551 960,551 960,551 961,551 961,551 962,551 962,550 963,550 964,550 964,550 965,550 965,550 966,550 966,550 967,550 968,549 968,549 969,549 969,549 970,549 970,549 971,549 972,549 972,549 973,550 973,550 974,550 974,549 975,549 976,549 976,549 977,549 977,548 978,548 978,548 979,548 980,548 980,548 981,548 981,548 982,548 982,548 982,548 982,548 983,549 983,549 983,549 984,549 984,549 985,549 985,549 985,549 986,549 986,549 986,549 986,549 987,549 987,549 987,549 987,549 988,549 988,549 989,549 989,549 989,549 989,549 990,549 990,549 990,549 990,550 991,550 991,550 991,550 992,550 993,550 993,550 993,550 993,550 994,550 994,550 994,550 994,550 995,550 995,550 995,550 995,550 996,550 997,550 997,550 997,550 997,550 998,550 998,550 998,550 998,550 999,550 999,550 999,550 999,550 1000,550 1000,550 1001,550 1001,550 1001,550 1001,550 1002,550 1002,550 1002,550 1003,550 1003,550 1003,550 1003,550 1004,550 1004,550 1004,550 1004,550 1005,550 1005,550 1006,550 1006,550 1006,550 1006,550 1007,550 1007,550 1007,550 1007,550 1008,550 1008,550 1008,550 1009,550 1010,550 1010,550 1010,550 1010,550 1011,550 1011,550 1011,550 1011,550 1012,550 1012,550 1012,550 1012,550 1013,550 1013,550 1014,550 1014,550 1014,550 1014,551 1015,551 1015,551 1015,550 1016,550 1016,550 1016,550 1016,550 1017,550 1017,550 1018,550 1018,550 1018,550 1019,550 1019,550 1019,550 1019,550 1020,550 1020,550 1020,550 1020,549 1021,549 1021,550 1022,550 1022,550 1022,550 1022,550 1023,550 1023,550 1023,550 1023,550 1024,550 1024,550 1024,550 1024,550 1025,550 1025,550 1025,550 1025,550 1026,550 1026,550 1027,550 1027,550 1027,550 1027,550 1028,550 1028,549 1028,549 1028,549 1029,549 1029,549 1029,549 1030,549 1030,549 1031,549 1031,549 1031,549 1031,549 1032,549 1032,549 1032,549 1032,549 1033,549 1033,549 1033,549 1033,549 1034,549 1034,549 1035,549 1035,549 1035,549 1036,549 1036,549 1036,549 1036,549 1037,549 1037,550 1037,550 1037,550 1038,550 1039,550 1039,550 1039,550 1040,550 1040,550 1040,550 1041,550 1041,549 1041,549 1041,549 1042,549 1042,549 1043,549 1043,549 1043,549 1043,548 1044,548 1044,549 1044,549 1044,548 1045,548 1045,548 1045,548 1045,548 1046,548 1046,548 1046,548 1047,548 1047,548 1048,548 1048,548 1048,548 1048,548 1049,548 1049,548 1049,548 1049,548 1050,548 1050,548 1050,548 1050,548 1051,548 1051,548 1052,548 1052,548 1052,548 1052,548 1053,548 1053,548 1053,548 1053,548 1054,548 1054,548 1054,548 1054,548 1055,548 1056,548 1056,548 1056,548 1056,548 1057,548 1057,547 1057,547 1057,547 1058,547 1058,547 1058,547 1058,547 1059,547 1059,547 1060,548 1060,548 1060,547 1061,547 1061,547 1061,547 1061,547 1062,547 1062,547 1062,547 1062,547 1063,547 1063,548 1064,548 1064,546 1064,546 1064,546 1065,546 1065,546 1065,546 1065,546 1066,546 1066,546 1066,546 1066,546 1067,546 1067,546 1067,546 1067,546 1068,546 1068,546 1069,546 1069,546 1069,546 1069,546 1070,546 1070,546 1070,546 1071,546 1071,546 1071,546 1071,546 1072,546 1072,546 1073,546 1073,546 1073,546 1073,546 1074,546 1074,546 1074,546 1074,546 1075,546 1075,546 1075,546 1075,546 1076,546 1076,546 1077,546 1077,546 1077,546 1077,546 1078,546 1078,546 1078,546 1078,546 1079,546 1079,546 1079,546 1079,546 1080,546 1080,546 1081,546 1081,546 1081,546 1081,546 1082,546 1082,546 1082,546 1082,546 1083,546 1083,546 1083,546 1083,546 1084,546 1084,546 1085,546 1085,546 1085,546 1085,546 1086,546 1086,546 1086,546 1087,546 1087,546 1087,546 1087,546 1088,546 1088,546 1088,546 1089,546 1089,546 1090,546 1090,546 1090,546 1090,546 1091,546 1091,546 1091,546 1091,546 1092,546 1092,546 1092,546 1092,546 1093,546 1093,546 1094,546 1094,546 1094,546 1095,546 1095,546 1095,546 1095,546 1096,546 1096,546 1096,546 1096,546 1097,546 1097,546 1098,546 1098,546 1098,546 1098,546 1099,546 1099,546 1099,546 1099,546 1100,546 1100,546 1100,546 1100,546 1101,546 1101,546 1102,546 1102,546 1102,546 1102,546 1103,546 1103,546 1103,546 1103,546 1104,546 1104,546 1104,546 1104,546 1105,546 1105,546 1106,546 1106,546 1106,546 1106,546 1107,546 1107,546 1107,546 1107,546 1108,546 1108,546 1108,546 1108,546 1109,546 1109,546 1109,546 1109,546 1110,546 1110,546 1111,546 1111,546 1111,546 1111,547 1112,547 1112,547 1112,547 1112,546 1113,546 1113,546 1113,546 1113,546 1114,546 1114,547 1115,547 1115,547 1115,547 1115,547 1116,547 1116,547 1116,547 1116,547 1117,547 1117,547 1117,547 1117,547 1118,547 1118,547 1119,547 1119,547 1119,547 1119,547 1120,547 1120,547 1120,547 1120,547 1121,546 1121,546 1121,546 1122,546 1122,546 1123,546 1123,546 1123,546 1123,546 1124,546 1124,546 1124,546 1124,546 1125,546 1125,546 1125,546 1125,546 1126,546 1126,546 1127,546 1127,546 1127,546 1127,546 1128,546 1128,546 1128,546 1128,546 1129,546 1129,546 1129,546 1129,546 1130,546 1130,546 1130,546 1130,546 1131,546 1131,546 1132,546 1132,547 1132,547 1133,547 1133,547 1133,547 1133,547 1134,547 1134,546 1134,546 1134,546 1135,546 1135,546 1136,546 1136,546 1136,546 1136,546 1137,546 1137,546 1137,546 1137,546 1138,546 1138,546 1138,546 1138,546 1139,546 1139,546 1140,546 1140,546 1140,546 1140,547 1141,547 1141,547 1141,547 1141,547 1142,547 1142,547 1142,547 1142,547 1143,547 1143,547 1144,547 1144,546 1144,546 1144,546 1145,546 1145,546 1145,546 1145,546 1146,546 1146,546 1146,546 1146,546 1147,546 1147,547 1148,547 1148,547 1148,547 1148,547 1149,547 1149,547 1149,547 1149,547 1150,547 1150,547 1150,547 1150,547 1151,547 1151,547 1151,547 1151,547 1152,547 1152,547 1153,547 1153,546 1153,546 1153,546 1154,546 1154,546 1154,546 1154,546 1155,546 1155,546 1155,546 1156,546 1156,546 1157,546 1157,546 1157,546 1157,546 1158,546 1158,546 1158,546 1158,546 1159,546 1159,546 1159,546 1159,546 1160,546 1160,546 1161,546 1161,546 1161,546 1161,546 1162,546 1162,546 1162,546 1162,546 1163,546 1163,546 1163,546 1163,546 1164,546 1164,546 1165,546 1165,546 1165,546 1165,546 1166,546 1166,546 1166,546 1166,546 1167,546 1167,546 1167,546 1167,547 1168,547 1168,546 1169,546 1169,546 1169,546 1169,546 1170,546 1170,546 1170,546 1170,546 1171,546 1171,546 1171,546 1171,546 1172,546 1172,546 1172,546 1172,546 1173,546 1173,546 1174,546 1174,546 1174,546 1174,546 1175,546 1175,546 1175,546 1175,546 1176,546 1176,546 1176,546 1176,546 1177,546 1177,546 1178,546 1178,546 1178,546 1178,546 1179,546 1179,546 1179,546 1179,546 1180,546 1180,546 1180,546 1180,546 1181,546 1181,546 1182,546 1182,546 1182,546 1182,546 1183,546 1183,546 1183,546 1183,546 1184,546 1184,546 1184,546 1184,546 1185,546 1185,546 1186,546 1186,546 1186,546 1187,546 1187,547 1187,547 1187,547 1188,547 1188,547 1188,547 1188,547 1189,547 1189,547 1190,547 "/>
<polyline fill="none" opacity="1" stroke="#19E68E" stroke-width="2" points="504,738 506,738 506,738 507,737 508,737 508,736 510,736 510,735 511,734 511,734 512,733 512,733 513,732 514,732 514,731 515,731 515,730 516,730 518,730 519,729 519,728 520,728 520,727 521,727 521,726 524,725 524,724 525,724 526,723 527,723 527,723 528,722 529,721 529,721 530,720 531,720 531,719 532,719 532,719 533,718 534,717 535,715 535,715 536,715 536,715 537,714 537,714 538,714 539,713 539,712 540,712 540,712 541,712 541,712 542,710 542,710 543,710 544,710 544,708 545,708 545,707 546,707 546,706 547,705 548,704 548,704 549,703 549,702 550,702 550,701 551,701 552,700 552,698 553,698 553,698 554,698 554,697 555,697 556,697 556,697 557,697 557,696 558,696 558,694 559,694 560,693 560,692 561,691 561,690 562,689 562,688 563,687 563,685 564,684 565,683 565,683 566,683 566,681 567,679 567,678 568,677 569,677 569,677 570,675 570,675 571,675 571,674 572,674 573,673 573,673 574,672 574,671 575,670 575,670 576,670 577,669 577,669 578,668 578,667 579,667 579,666 580,666 581,665 581,664 582,664 582,663 583,662 583,662 584,661 584,660 585,659 586,658 586,658 587,656 587,654 588,653 588,652 589,651 590,649 590,648 591,647 591,647 592,646 592,646 593,645 594,645 594,644 595,641 595,640 596,639 596,638 597,638 598,636 598,635 599,634 599,634 600,632 600,631 601,631 602,631 602,630 603,629 603,628 604,627 604,626 605,626 605,624 606,622 607,622 607,621 608,620 608,620 609,620 609,619 610,618 611,618 611,617 612,615 612,615 613,614 613,611 614,609 615,608 615,607 616,607 616,606 617,606 617,606 618,605 619,605 619,604 620,603 620,603 621,603 621,601 623,601 623,600 624,600 624,599 625,599 625,598 626,596 626,595 627,592 628,592 628,590 629,590 629,590 630,590 630,590 631,589 632,588 632,587 633,587 633,586 634,585 634,585 635,584 636,583 636,583 637,583 637,582 638,582 638,581 639,580 640,580 640,578 641,578 641,578 642,577 642,576 643,576 644,576 644,575 645,574 645,571 646,571 646,570 647,569 647,569 648,568 649,568 649,567 650,567 650,566 651,565 651,565 652,564 653,562 653,562 654,561 654,561 655,560 655,559 656,559 657,559 657,558 658,557 658,557 659,556 659,555 660,554 661,553 661,551 662,551 662,549 663,549 663,548 664,547 665,546 665,546 666,545 666,544 667,544 667,544 668,544 668,543 669,542 670,541 670,539 671,539 671,538 672,537 672,537 673,536 674,534 674,533 675,534 675,532 676,532 676,532 677,530 678,529 678,528 679,527 679,526 680,525 680,524 681,523 682,522 682,521 683,521 683,519 683,519 684,518 684,518 685,516 686,515 686,512 687,510 687,508 688,507 688,507 689,506 689,505 690,505 691,504 691,504 692,502 692,502 693,502 693,501 694,501 695,500 695,500 696,498 696,498 697,497 697,494 698,494 699,493 699,492 700,492 700,491 701,490 701,488 702,487 703,486 703,485 704,484 704,484 705,484 705,484 706,482 707,483 707,481 708,480 708,468 709,467 709,467 710,467 710,465 711,465 712,465 712,464 713,463 713,461 714,461 714,460 715,460 716,457 716,457 717,455 717,455 718,454 718,453 719,453 720,453 720,452 721,451 721,449 722,448 722,446 723,444 724,441 724,440 725,439 725,438 726,437 726,436 727,435 728,435 728,434 729,433 729,431 730,429 730,429 731,427 731,426 732,426 733,424 733,423 734,423 734,423 735,422 735,421 736,420 737,419 737,418 738,418 738,416 739,414 739,414 740,413 741,412 741,409 742,407 742,408 743,407 743,407 744,406 745,405 745,404 746,402 746,402 747,401 747,400 748,398 749,399 749,399 750,398 750,397 751,395 751,394 752,394 752,392 753,392 754,391 754,390 755,389 755,389 756,389 756,388 757,387 758,386 758,386 759,385 759,385 760,381 760,380 761,380 762,379 762,377 763,376 763,375 764,375 764,374 765,374 766,374 766,373 767,372 767,372 768,371 768,371 769,370 770,370 770,369 771,367 771,366 772,365 772,363 773,361 773,361 774,361 775,360 775,359 776,357 776,356 777,354 777,354 778,353 779,352 779,351 780,350 780,349 781,349 781,348 782,347 783,347 783,346 784,345 784,344 785,344 785,344 786,343 787,343 787,340 788,340 788,338 789,338 789,337 790,336 791,333 791,333 792,333 792,332 793,331 793,331 794,331 794,329 795,328 796,327 796,325 797,324 797,324 798,323 798,323 799,323 800,322 800,322 801,320 801,319 802,319 802,318 803,317 804,317 804,316 805,315 805,314 806,314 806,312 807,312 808,311 808,310 809,310 809,308 810,308 810,307 811,306 812,306 812,306 813,305 813,305 814,305 814,304 815,303 815,301 816,301 817,299 817,299 818,299 818,299 819,294 819,293 820,293 821,293 821,292 822,291 822,290 823,290 823,290 824,289 825,289 825,288 826,289 826,289 827,289 827,288 828,287 829,286 829,286 830,285 830,284 831,282 831,282 832,281 833,280 833,279 834,278 834,275 835,275 835,274 836,274 836,273 837,271 838,270 838,270 839,267 839,266 840,266 840,265 841,264 842,264 842,262 843,259 843,259 844,259 844,258 845,257 846,257 846,257 847,255 847,254 848,254 848,253 849,254 850,253 850,253 851,252 851,252 852,250 852,249 853,248 854,248 854,246 855,244 855,244 856,244 856,243 857,242 857,242 858,241 859,240 859,240 860,240 860,239 861,239 861,238 862,237 863,236 863,235 864,235 864,235 865,233 865,231 866,230 867,229 867,229 868,228 868,228 869,227 869,224 870,223 871,223 871,223 872,223 872,222 873,222 873,222 874,222 875,222 875,220 876,219 876,219 877,219 877,217 878,217 878,216 879,216 880,216 880,215 881,215 881,213 882,212 882,211 883,211 884,211 884,210 885,209 885,208 886,207 886,207 887,206 888,205 888,205 889,204 889,203 890,202 890,202 891,201 892,201 892,201 893,200 893,200 894,200 894,199 895,198 896,199 896,199 897,198 897,197 898,197 898,195 899,193 899,193 900,193 901,192 901,191 902,191 902,191 902,190 903,192 903,193 904,193 905,193 905,193 906,192 906,191 907,191 907,191 908,190 909,189 909,191 910,191 910,190 911,190 911,194 912,195 913,194 913,195 914,198 914,197 915,197 915,197 916,197 917,196 917,196 918,197 918,199 919,199 919,199 920,200 920,200 921,197 922,197 922,197 923,197 923,196 924,196 924,196 925,195 926,195 926,192 927,191 927,191 928,190 928,190 929,188 930,188 930,188 931,187 931,186 932,185 932,185 933,185 934,185 934,183 935,183 935,183 936,182 936,182 937,182 938,182 938,181 939,181 939,181 940,181 940,176 941,176 941,175 942,176 943,175 943,175 944,175 944,175 945,170 945,169 946,168 947,168 947,167 948,166 948,166 949,166 949,166 950,166 951,165 951,164 952,164 952,164 953,166 953,165 954,164 955,165 955,164 956,163 956,162 957,162 957,164 958,166 959,166 959,165 960,164 960,164 961,164 961,164 962,163 962,163 963,162 964,162 964,162 965,161 965,161 966,158 966,158 967,159 968,158 968,158 969,158 969,156 970,157 970,157 971,158 972,156 972,155 973,154 973,153 974,153 974,153 975,153 976,152 976,152 977,152 977,152 978,151 978,151 979,151 980,151 980,151 981,148 981,148 982,147 982,147 982,147 982,147 983,146 983,146 983,147 984,147 984,147 985,147 985,147 985,147 986,147 986,152 986,152 986,152 987,152 987,152 987,152 987,153 988,153 988,153 989,153 989,153 989,153 989,153 990,153 990,152 990,152 990,152 991,152 991,152 991,151 992,151 993,151 993,150 993,150 993,147 994,147 994,147 994,147 994,147 995,147 995,147 995,147 995,146 996,146 997,146 997,144 997,144 997,144 998,144 998,144 998,144 998,143 999,143 999,142 999,142 999,142 1000,142 1000,142 1001,142 1001,141 1001,141 1001,141 1002,142 1002,142 1002,142 1003,142 1003,142 1003,142 1003,141 1004,141 1004,143 1004,143 1004,144 1005,144 1005,142 1006,142 1006,143 1006,143 1006,143 1007,143 1007,142 1007,142 1007,142 1008,142 1008,143 1008,142 1009,142 1010,142 1010,142 1010,142 1010,142 1011,142 1011,141 1011,141 1011,140 1012,140 1012,140 1012,140 1012,140 1013,140 1013,140 1014,140 1014,139 1014,139 1014,139 1015,140 1015,140 1015,140 1016,141 1016,140 1016,140 1016,141 1017,141 1017,142 1018,142 1018,142 1018,142 1019,142 1019,142 1019,142 1019,142 1020,142 1020,142 1020,142 1020,142 1021,142 1021,143 1022,143 1022,143 1022,143 1022,142 1023,142 1023,142 1023,142 1023,142 1024,142 1024,141 1024,141 1024,141 1025,141 1025,142 1025,142 1025,142 1026,142 1026,143 1027,143 1027,143 1027,143 1027,143 1028,143 1028,143 1028,143 1028,143 1029,143 1029,143 1029,144 1030,144 1030,144 1031,144 1031,145 1031,145 1031,145 1032,145 1032,145 1032,145 1032,145 1033,145 1033,146 1033,146 1033,146 1034,146 1034,146 1035,146 1035,146 1035,145 1036,145 1036,146 1036,146 1036,146 1037,146 1037,147 1037,147 1037,147 1038,147 1039,149 1039,149 1039,149 1040,149 1040,149 1040,149 1041,149 1041,149 1041,149 1041,150 1042,150 1042,150 1043,150 1043,150 1043,150 1043,151 1044,151 1044,151 1044,151 1044,151 1045,151 1045,151 1045,151 1045,151 1046,151 1046,151 1046,150 1047,150 1047,151 1048,151 1048,151 1048,151 1048,151 1049,151 1049,151 1049,151 1049,151 1050,151 1050,151 1050,151 1050,151 1051,151 1051,151 1052,151 1052,152 1052,152 1052,152 1053,152 1053,153 1053,153 1053,152 1054,152 1054,153 1054,153 1054,153 1055,155 1056,155 1056,154 1056,154 1056,154 1057,154 1057,154 1057,154 1057,154 1058,154 1058,154 1058,154 1058,154 1059,154 1059,153 1060,153 1060,153 1060,154 1061,154 1061,154 1061,154 1061,153 1062,153 1062,153 1062,153 1062,153 1063,153 1063,153 1064,153 1064,153 1064,153 1064,153 1065,153 1065,153 1065,153 1065,153 1066,153 1066,153 1066,153 1066,153 1067,153 1067,153 1067,153 1067,152 1068,152 1068,152 1069,152 1069,152 1069,152 1069,152 1070,152 1070,152 1070,152 1071,152 1071,152 1071,152 1071,152 1072,152 1072,152 1073,152 1073,153 1073,153 1073,153 1074,153 1074,153 1074,153 1074,153 1075,153 1075,153 1075,153 1075,153 1076,153 1076,154 1077,154 1077,154 1077,154 1077,154 1078,154 1078,154 1078,154 1078,155 1079,155 1079,155 1079,155 1079,155 1080,155 1080,154 1081,154 1081,155 1081,155 1081,155 1082,155 1082,155 1082,155 1082,155 1083,155 1083,155 1083,155 1083,155 1084,155 1084,156 1085,156 1085,155 1085,155 1085,155 1086,155 1086,155 1086,154 1087,154 1087,153 1087,153 1087,154 1088,156 1088,156 1088,156 1089,156 1089,156 1090,156 1090,156 1090,156 1090,156 1091,156 1091,156 1091,156 1091,156 1092,156 1092,157 1092,157 1092,157 1093,157 1093,157 1094,157 1094,158 1094,158 1095,158 1095,160 1095,160 1095,160 1096,160 1096,160 1096,160 1096,160 1097,160 1097,160 1098,160 1098,160 1098,160 1098,160 1099,160 1099,157 1099,157 1099,155 1100,155 1100,153 1100,153 1100,153 1101,153 1101,153 1102,153 1102,153 1102,153 1102,153 1103,153 1103,153 1103,153 1103,153 1104,153 1104,153 1104,153 1104,153 1105,153 1105,153 1106,153 1106,152 1106,152 1106,153 1107,153 1107,153 1107,153 1107,153 1108,153 1108,153 1108,153 1108,153 1109,153 1109,154 1109,154 1109,154 1110,154 1110,153 1111,153 1111,153 1111,153 1111,153 1112,153 1112,154 1112,154 1112,154 1113,154 1113,153 1113,153 1113,153 1114,153 1114,154 1115,154 1115,154 1115,154 1115,155 1116,155 1116,155 1116,155 1116,155 1117,155 1117,156 1117,156 1117,156 1118,156 1118,156 1119,156 1119,156 1119,156 1119,156 1120,156 1120,156 1120,156 1120,156 1121,156 1121,156 1121,157 1122,157 1122,158 1123,158 1123,158 1123,158 1123,158 1124,158 1124,158 1124,158 1124,158 1125,158 1125,158 1125,158 1125,158 1126,158 1126,158 1127,158 1127,158 1127,158 1127,158 1128,158 1128,158 1128,158 1128,158 1129,158 1129,159 1129,159 1129,160 1130,160 1130,161 1130,161 1130,161 1131,161 1131,162 1132,162 1132,162 1132,162 1133,162 1133,162 1133,162 1133,162 1134,162 1134,163 1134,163 1134,165 1135,165 1135,164 1136,164 1136,165 1136,165 1136,165 1137,165 1137,165 1137,165 1137,165 1138,165 1138,164 1138,164 1138,164 1139,164 1139,165 1140,165 1140,165 1140,165 1140,165 1141,165 1141,165 1141,165 1141,165 1142,165 1142,165 1142,165 1142,165 1143,165 1143,165 1144,165 1144,164 1144,164 1144,165 1145,165 1145,165 1145,165 1145,165 1146,165 1146,165 1146,165 1146,165 1147,165 1147,164 1148,164 1148,164 1148,164 1148,164 1149,164 1149,164 1149,164 1149,165 1150,165 1150,165 1150,165 1150,165 1151,165 1151,165 1151,165 1151,165 1152,165 1152,165 1153,165 1153,165 1153,165 1153,165 1154,165 1154,167 1154,167 1154,169 1155,169 1155,169 1155,169 1156,169 1156,173 1157,173 1157,172 1157,172 1157,172 1158,172 1158,172 1158,172 1158,173 1159,173 1159,173 1159,173 1159,173 1160,172 1160,173 1161,173 1161,173 1161,174 1161,174 1162,174 1162,174 1162,174 1162,174 1163,174 1163,174 1163,174 1163,174 1164,174 1164,174 1165,174 1165,174 1165,174 1165,175 1166,175 1166,175 1166,175 1166,175 1167,175 1167,175 1167,175 1167,175 1168,175 1168,175 1169,175 1169,175 1169,175 1169,175 1170,175 1170,176 1170,176 1170,176 1171,176 1171,176 1171,176 1171,176 1172,176 1172,176 1172,176 1172,177 1173,177 1173,177 1174,177 1174,177 1174,177 1174,177 1175,177 1175,177 1175,177 1175,177 1176,177 1176,177 1176,177 1176,177 1177,177 1177,177 1178,177 1178,177 1178,177 1178,177 1179,177 1179,177 1179,177 1179,177 1180,177 1180,178 1180,178 1180,178 1181,178 1181,177 1182,177 1182,177 1182,177 1182,177 1183,177 1183,178 1183,178 1183,178 1184,178 1184,178 1184,178 1184,178 1185,178 1185,179 1186,179 1186,179 1186,178 1187,178 1187,178 1187,178 1187,179 1188,179 1188,179 1188,179 1188,179 1189,179 1189,179 1190,179 "/>
<polyline fill="none" opacity="1" stroke="#198EE6" stroke-width="2" points="60,738 60,738 63,738 73,738 80,737 88,737 88,737 92,737 94,737 95,737 99,736 103,736 103,736 109,735 115,735 115,735 117,735 122,735 126,735 128,735 133,734 134,734 134,734 135,734 136,734 136,734 137,734 138,734 138,733 140,733 140,733 141,733 142,733 142,733 144,733 145,733 145,733 146,733 146,733 147,733 147,733 148,733 149,733 150,733 150,733 151,733 151,733 152,733 153,733 153,733 154,733 154,732 155,732 155,732 157,732 157,732 158,732 158,732 159,732 161,732 162,732 162,732 163,732 163,732 164,731 164,731 165,732 166,732 166,731 167,731 167,731 168,731 169,731 170,731 171,731 171,731 172,731 172,731 173,731 174,731 175,731 175,731 176,731 177,731 178,731 178,730 179,730 179,730 180,730 180,730 181,730 182,730 182,730 183,730 183,730 184,730 185,730 186,730 187,729 188,729 188,729 189,729 191,729 191,729 192,729 192,729 193,729 194,729 195,729 195,728 196,728 196,728 197,728 198,728 199,728 200,728 201,728 201,728 202,728 203,728 203,728 204,728 204,728 205,728 205,728 206,728 206,728 207,728 208,727 209,727 209,727 210,727 210,727 211,727 212,727 212,727 213,727 213,726 214,726 214,726 215,726 216,726 216,726 217,726 218,725 218,725 219,725 220,725 220,725 221,725 222,725 223,725 224,725 225,725 225,725 226,725 226,725 227,725 227,725 229,725 229,725 230,725 230,725 231,725 231,725 234,725 234,725 235,724 235,724 236,724 237,724 237,724 238,724 238,724 239,724 241,724 241,724 242,724 242,724 243,724 243,724 244,724 245,724 246,723 246,723 247,723 248,723 248,723 249,723 250,723 250,723 252,723 252,723 253,723 254,723 255,722 255,722 256,722 256,722 257,722 258,722 258,722 259,722 259,722 260,722 260,722 262,722 262,722 263,722 263,722 264,722 264,722 265,722 266,722 266,722 267,722 267,722 268,722 268,722 269,721 269,721 270,721 271,721 271,721 272,721 272,721 273,721 273,721 274,721 275,721 275,721 276,721 276,721 277,721 277,721 278,721 279,721 279,720 280,720 280,720 281,720 282,720 283,720 283,720 284,720 285,720 285,720 287,720 287,719 288,719 288,719 289,719 289,719 290,719 291,719 292,719 292,719 293,719 293,719 294,719 294,719 295,718 296,718 297,718 297,718 298,718 298,718 299,718 300,718 300,717 301,717 301,717 302,717 302,717 303,717 304,717 304,717 305,717 305,717 306,717 306,717 308,717 308,717 309,717 309,717 310,717 310,717 311,717 312,717 313,717 313,717 314,716 314,716 315,716 315,716 316,716 317,716 317,716 318,716 318,716 319,716 319,716 320,715 321,715 321,715 322,715 322,715 323,715 323,715 324,715 325,715 325,715 326,715 326,715 327,714 327,714 328,714 329,714 329,714 330,714 330,714 331,714 331,714 332,714 333,714 334,713 334,713 335,713 335,713 336,713 336,713 337,712 338,712 338,712 339,712 339,712 340,712 340,712 341,712 342,712 342,711 343,711 343,711 344,712 344,711 345,711 346,711 346,711 347,711 347,711 348,711 348,711 349,711 350,711 350,710 351,710 351,710 352,710 352,710 353,710 353,710 354,710 355,710 355,710 356,710 356,710 357,710 357,709 358,709 359,709 360,709 360,709 361,709 361,709 362,709 363,709 364,709 364,708 365,708 365,708 366,708 367,708 367,708 368,708 368,708 369,708 369,708 370,708 371,708 371,708 372,708 372,708 373,708 373,708 374,708 374,708 375,708 376,708 376,708 377,708 377,708 378,708 378,708 379,708 380,708 380,707 381,707 381,707 382,707 382,707 383,707 384,707 384,707 385,707 385,707 386,707 386,707 387,707 388,707 388,707 389,707 389,707 390,707 390,707 391,707 392,707 392,707 393,707 393,706 394,706 394,706 395,706 395,706 396,706 397,706 397,706 398,706 398,706 399,706 399,705 400,705 401,706 401,705 402,705 402,705 403,705 403,705 404,705 405,705 405,705 406,705 406,705 407,705 407,705 408,705 409,705 409,704 410,704 410,704 411,704 411,704 412,704 413,703 413,703 414,703 414,703 415,703 415,703 416,703 416,702 417,702 418,702 418,702 419,702 419,702 420,702 420,702 421,702 422,702 422,702 423,702 423,702 424,702 425,702 426,702 426,702 427,702 427,702 428,702 428,702 429,702 430,702 430,702 431,702 431,702 432,702 432,702 433,702 434,702 434,702 435,702 435,702 436,702 436,702 437,702 437,702 438,702 439,702 439,702 440,701 440,701 441,701 441,701 442,701 443,701 443,701 444,701 444,700 445,700 445,700 446,700 447,700 447,700 448,700 448,700 449,700 449,700 450,700 451,700 451,700 452,700 452,700 453,700 453,700 454,700 455,700 455,700 456,700 456,700 457,700 457,700 458,700 458,700 459,700 460,700 460,699 461,699 461,699 462,699 462,699 463,699 464,699 464,699 465,699 465,699 466,699 466,699 467,699 468,699 468,699 469,699 469,699 470,699 470,699 471,699 472,699 472,699 473,699 473,699 474,699 474,699 475,698 476,698 476,698 477,698 478,698 478,698 479,698 479,698 480,698 481,698 481,698 482,698 482,698 483,698 483,698 484,698 485,697 486,697 486,697 487,697 487,697 488,697 489,697 489,697 490,697 490,697 491,697 491,697 492,696 493,696 493,696 494,696 494,696 495,696 495,696 496,696 497,696 497,696 498,696 498,696 499,696 499,695 500,695 500,695 501,694 502,694 502,694 503,694 503,694 504,694 504,694 505,694 506,694 506,695 507,695 507,694 508,694 508,694 509,694 510,694 510,694 511,694 511,694 512,694 512,694 513,694 514,694 514,694 515,694 515,694 516,694 516,694 517,694 518,694 518,694 519,694 519,694 520,694 520,694 521,694 521,694 522,694 523,694 523,694 524,694 524,694 525,694 525,695 526,695 527,695 527,695 528,695 529,695 529,695 530,695 531,695 531,695 532,695 532,695 533,695 533,695 534,695 535,694 536,694 536,694 537,694 537,694 538,694 539,694 539,694 540,694 541,694 541,694 542,694 542,694 543,694 544,694 544,694 545,694 545,694 546,694 546,694 547,694 548,694 548,694 549,694 549,693 550,693 550,693 551,693 552,693 552,693 553,692 553,692 554,692 554,692 555,692 556,692 556,692 557,692 557,692 558,692 558,692 559,692 560,692 560,691 561,691 561,691 562,691 562,691 563,690 563,690 564,690 565,690 565,690 566,690 566,690 567,690 567,690 568,690 569,690 569,690 570,690 570,690 571,690 571,690 572,690 573,690 573,690 574,690 574,690 575,690 575,690 576,690 577,689 577,689 578,689 578,689 579,689 579,689 580,689 581,689 581,689 582,689 582,689 583,689 583,689 584,689 584,689 585,689 586,689 586,689 587,689 587,689 588,689 588,689 589,689 590,689 590,689 591,689 591,689 592,689 592,688 593,688 594,688 594,688 595,688 595,688 596,688 596,687 597,687 598,687 598,687 599,687 599,687 600,687 600,687 601,687 602,687 602,687 603,687 603,687 604,687 604,687 605,687 605,687 606,687 607,687 607,687 608,687 608,687 609,687 609,687 610,687 611,687 611,687 612,687 612,687 613,687 613,687 614,687 615,687 615,687 616,687 616,687 617,687 617,687 618,687 619,687 619,687 620,687 620,687 621,687 621,687 622,687 623,686 623,686 624,686 624,686 625,686 625,686 626,686 626,686 627,686 628,686 628,686 629,686 629,686 630,686 630,686 631,686 632,685 632,685 633,685 633,685 634,685 634,685 635,685 636,685 636,685 637,685 637,685 638,685 638,685 640,685 640,685 641,685 641,685 642,685 642,685 643,685 644,685 644,685 645,685 645,685 646,685 646,685 647,685 647,685 648,685 649,685 649,685 650,685 650,685 651,685 651,685 652,685 653,685 653,685 654,685 654,685 655,684 655,684 656,684 657,684 657,684 658,684 658,684 659,684 659,684 660,684 661,684 661,684 662,684 662,684 663,684 663,684 664,684 665,684 665,684 666,684 666,684 667,684 667,684 668,684 668,684 669,684 670,684 670,684 671,684 671,684 672,683 672,683 673,683 674,683 674,683 675,683 675,683 676,683 676,683 677,683 678,683 678,683 679,683 679,683 680,683 680,683 681,683 682,683 682,683 683,683 683,683 683,683 684,683 684,683 685,683 686,683 686,683 687,683 687,683 688,683 688,683 689,683 689,683 690,683 691,683 691,683 692,683 692,683 693,683 693,683 694,683 695,683 695,683 696,683 696,683 697,683 697,683 698,683 699,683 699,683 700,683 700,683 701,683 701,683 702,683 703,683 703,683 704,683 704,683 705,683 705,683 706,683 707,683 707,683 708,682 708,682 709,682 709,682 710,682 710,682 711,682 712,682 712,682 713,682 713,682 714,682 714,682 715,682 716,682 716,682 717,682 717,682 718,682 718,682 719,682 720,682 720,682 721,682 721,682 722,682 722,682 723,682 724,682 724,682 725,682 725,682 726,682 726,682 727,682 728,682 728,682 729,682 729,682 730,682 730,682 731,682 731,682 732,682 733,682 733,682 734,682 734,682 735,682 735,682 736,682 737,682 737,682 738,682 738,682 739,682 739,682 740,681 741,681 741,681 742,681 742,681 743,681 743,681 744,681 745,681 745,681 746,681 746,681 747,681 747,682 748,682 749,682 749,682 750,682 750,682 751,682 751,682 752,682 752,682 753,682 754,682 754,682 755,682 755,682 756,682 756,682 757,682 758,682 758,682 759,682 759,682 760,682 760,682 761,682 762,682 762,682 763,682 763,682 764,682 764,682 765,682 766,682 766,682 767,682 767,682 768,682 768,682 769,682 770,682 770,681 771,681 771,681 772,681 772,681 773,681 773,681 774,681 775,681 775,681 776,680 776,680 777,679 777,679 778,679 779,679 779,679 780,679 780,679 781,679 781,679 782,679 783,679 783,679 784,679 784,679 785,679 785,679 786,679 787,679 787,679 788,679 788,679 789,679 789,679 790,679 791,679 791,679 792,679 792,679 793,679 793,679 794,679 794,679 795,679 796,679 796,679 797,679 797,679 798,679 798,679 799,679 800,679 800,679 801,679 801,678 802,678 802,678 803,678 804,678 804,678 805,678 805,678 806,678 806,678 807,678 808,678 808,678 809,678 809,678 810,678 810,677 811,677 812,677 812,677 813,677 813,677 814,677 814,677 815,677 815,677 816,676 817,676 817,676 818,676 818,676 819,676 819,676 820,676 821,676 821,676 822,676 822,676 823,676 823,676 824,676 825,676 825,676 826,676 826,676 827,676 827,676 828,676 829,676 829,676 830,676 830,676 831,676 831,676 832,676 833,676 833,676 834,676 834,676 835,676 835,676 836,676 836,676 837,676 838,676 838,676 839,676 839,676 840,676 840,676 841,676 842,676 842,676 843,676 843,676 844,676 844,676 845,674 846,674 846,674 847,674 847,674 848,673 848,673 849,673 850,673 850,673 851,672 851,672 852,672 852,672 853,672 854,672 854,672 855,672 855,671 856,671 856,671 857,671 857,671 858,671 859,671 859,671 860,671 860,671 861,671 861,671 862,671 863,671 863,671 864,671 864,671 865,671 865,671 866,671 867,671 867,671 868,671 868,671 869,671 869,671 870,671 871,671 871,671 872,671 872,671 873,671 873,671 874,671 875,671 875,670 876,670 876,670 877,670 877,670 878,670 878,670 879,670 880,670 880,670 881,670 881,670 882,670 882,670 883,670 884,670 884,670 885,670 885,670 886,670 886,669 887,669 888,669 888,669 889,670 889,670 890,670 890,670 891,670 892,670 892,670 893,670 893,670 894,670 894,670 895,670 896,670 896,670 897,670 897,670 898,670 898,670 899,670 899,670 900,670 901,670 901,670 902,670 902,670 902,670 903,670 903,670 904,670 905,670 905,670 906,670 906,670 907,670 907,670 908,670 909,670 909,670 910,670 910,670 911,670 911,670 912,670 913,670 913,670 914,670 914,670 915,670 915,670 916,670 917,670 917,670 918,670 918,670 919,670 919,670 920,670 920,670 921,670 922,670 922,670 923,670 923,670 924,669 924,669 925,669 926,669 926,669 927,669 927,669 928,669 928,669 929,669 930,669 930,669 931,669 931,669 932,669 932,669 933,669 934,669 934,669 935,669 935,669 936,669 936,669 937,669 938,669 938,670 939,670 939,670 940,670 940,670 941,670 941,670 942,670 943,670 943,669 944,669 944,669 945,669 945,669 946,669 947,669 947,669 948,669 948,669 949,669 949,669 950,669 951,669 951,669 952,669 952,669 953,669 953,669 954,669 955,669 955,670 956,670 956,670 957,670 957,670 958,670 959,670 959,670 960,670 960,670 961,670 961,670 962,670 962,670 963,670 964,670 964,670 965,670 965,670 966,670 966,670 967,670 968,670 968,670 969,670 969,670 970,670 970,670 971,670 972,670 972,670 973,670 973,670 974,670 974,670 975,669 976,669 976,669 977,670 977,670 978,670 978,670 979,670 980,670 980,670 981,670 981,670 982,670 982,670 982,670 982,670 983,670 983,670 983,670 984,670 984,670 985,670 985,670 985,670 986,670 986,670 986,670 986,670 987,670 987,670 987,670 987,670 988,670 988,670 989,670 989,670 989,670 989,670 990,670 990,670 990,670 990,670 991,670 991,670 992,670 993,670 993,670 993,670 993,670 994,670 994,670 994,670 994,670 995,670 995,670 995,670 995,670 996,670 997,670 997,670 997,670 997,670 998,670 998,670 998,670 998,670 999,670 999,670 999,670 999,670 1000,670 1000,670 1001,670 1001,670 1001,670 1001,670 1002,670 1002,670 1002,670 1003,670 1003,670 1003,670 1003,669 1004,669 1004,669 1004,669 1004,669 1005,669 1005,668 1006,668 1006,668 1006,668 1006,668 1007,668 1007,668 1007,668 1007,668 1008,668 1008,668 1008,668 1009,668 1010,668 1010,668 1010,668 1010,668 1011,668 1011,668 1011,668 1011,668 1012,668 1012,668 1012,668 1012,668 1013,668 1013,668 1014,668 1014,668 1014,668 1014,668 1015,668 1015,668 1015,668 1016,668 1016,668 1016,668 1016,668 1017,668 1017,668 1018,668 1018,668 1018,668 1019,668 1019,668 1019,668 1019,668 1020,668 1020,668 1020,668 1020,669 1021,669 1021,669 1022,669 1022,669 1022,669 1022,668 1023,668 1023,668 1023,668 1023,668 1024,668 1024,668 1024,668 1024,668 1025,668 1025,668 1025,668 1025,668 1026,668 1026,668 1027,668 1027,668 1027,668 1027,668 1028,668 1028,668 1028,668 1028,667 1029,667 1029,667 1029,667 1030,667 1030,667 1031,667 1031,666 1031,666 1031,666 1032,666 1032,666 1032,666 1032,666 1033,666 1033,666 1033,666 1033,666 1034,666 1034,666 1035,666 1035,666 1035,666 1036,666 1036,666 1036,666 1036,666 1037,666 1037,666 1037,666 1037,666 1038,667 1039,667 1039,667 1039,667 1040,667 1040,667 1040,667 1041,667 1041,667 1041,667 1041,667 1042,667 1042,666 1043,666 1043,666 1043,666 1043,666 1044,666 1044,666 1044,666 1044,666 1045,666 1045,666 1045,666 1045,666 1046,666 1046,666 1046,666 1047,666 1047,666 1048,666 1048,666 1048,666 1048,666 1049,666 1049,666 1049,666 1049,666 1050,666 1050,666 1050,666 1050,666 1051,666 1051,666 1052,666 1052,666 1052,666 1052,666 1053,666 1053,666 1053,666 1053,666 1054,666 1054,666 1054,666 1054,665 1055,665 1056,665 1056,665 1056,665 1056,665 1057,665 1057,665 1057,665 1057,665 1058,665 1058,665 1058,665 1058,665 1059,665 1059,665 1060,665 1060,665 1060,665 1061,665 1061,665 1061,665 1061,665 1062,665 1062,665 1062,665 1062,665 1063,665 1063,665 1064,665 1064,665 1064,665 1064,665 1065,665 1065,665 1065,665 1065,665 1066,665 1066,665 1066,665 1066,665 1067,665 1067,665 1067,665 1067,665 1068,665 1068,665 1069,665 1069,665 1069,665 1069,665 1070,665 1070,665 1070,665 1071,665 1071,665 1071,665 1071,665 1072,665 1072,665 1073,665 1073,665 1073,665 1073,665 1074,665 1074,665 1074,665 1074,665 1075,665 1075,665 1075,665 1075,664 1076,664 1076,664 1077,664 1077,664 1077,664 1077,664 1078,664 1078,664 1078,664 1078,664 1079,664 1079,664 1079,664 1079,664 1080,664 1080,664 1081,664 1081,664 1081,664 1081,664 1082,664 1082,664 1082,664 1082,664 1083,664 1083,664 1083,664 1083,665 1084,665 1084,665 1085,665 1085,665 1085,665 1085,665 1086,665 1086,665 1086,665 1087,665 1087,665 1087,665 1087,665 1088,664 1088,664 1088,664 1089,664 1089,664 1090,664 1090,664 1090,664 1090,664 1091,664 1091,664 1091,664 1091,664 1092,664 1092,664 1092,664 1092,664 1093,664 1093,664 1094,664 1094,664 1094,664 1095,664 1095,664 1095,664 1095,664 1096,664 1096,664 1096,664 1096,663 1097,663 1097,663 1098,663 1098,663 1098,663 1098,663 1099,663 1099,663 1099,663 1099,663 1100,663 1100,665 1100,665 1100,664 1101,664 1101,664 1102,664 1102,664 1102,664 1102,664 1103,664 1103,664 1103,664 1103,664 1104,664 1104,664 1104,664 1104,664 1105,664 1105,664 1106,664 1106,664 1106,664 1106,664 1107,664 1107,664 1107,664 1107,664 1108,664 1108,664 1108,664 1108,664 1109,664 1109,665 1109,665 1109,665 1110,665 1110,665 1111,665 1111,665 1111,665 1111,665 1112,665 1112,665 1112,665 1112,665 1113,665 1113,665 1113,665 1113,665 1114,665 1114,665 1115,665 1115,665 1115,665 1115,665 1116,665 1116,665 1116,665 1116,665 1117,665 1117,665 1117,665 1117,665 1118,665 1118,665 1119,665 1119,665 1119,665 1119,665 1120,665 1120,665 1120,665 1120,665 1121,665 1121,665 1121,665 1122,665 1122,665 1123,665 1123,665 1123,665 1123,665 1124,665 1124,665 1124,665 1124,665 1125,665 1125,665 1125,665 1125,665 1126,665 1126,665 1127,665 1127,665 1127,665 1127,665 1128,665 1128,665 1128,665 1128,665 1129,665 1129,665 1129,665 1129,665 1130,665 1130,665 1130,665 1130,665 1131,665 1131,665 1132,665 1132,665 1132,665 1133,665 1133,665 1133,665 1133,665 1134,665 1134,665 1134,665 1134,665 1135,665 1135,665 1136,665 1136,665 1136,665 1136,665 1137,665 1137,665 1137,665 1137,665 1138,665 1138,665 1138,665 1138,665 1139,665 1139,665 1140,665 1140,665 1140,665 1140,665 1141,665 1141,665 1141,665 1141,665 1142,665 1142,665 1142,665 1142,665 1143,665 1143,665 1144,665 1144,665 1144,665 1144,665 1145,665 1145,665 1145,665 1145,665 1146,665 1146,665 1146,665 1146,665 1147,665 1147,665 1148,665 1148,665 1148,665 1148,665 1149,665 1149,665 1149,665 1149,665 1150,665 1150,665 1150,665 1150,665 1151,665 1151,665 1151,665 1151,665 1152,665 1152,665 1153,665 1153,665 1153,665 1153,665 1154,665 1154,665 1154,665 1154,665 1155,665 1155,665 1155,665 1156,665 1156,665 1157,665 1157,665 1157,665 1157,665 1158,665 1158,665 1158,665 1158,665 1159,665 1159,664 1159,664 1159,664 1160,664 1160,664 1161,664 1161,664 1161,664 1161,664 1162,664 1162,664 1162,664 1162,664 1163,664 1163,664 1163,664 1163,664 1164,664 1164,664 1165,664 1165,664 1165,664 1165,664 1166,664 1166,664 1166,664 1166,664 1167,664 1167,664 1167,664 1167,664 1168,664 1168,664 1169,664 1169,664 1169,664 1169,664 1170,664 1170,664 1170,664 1170,664 1171,664 1171,664 1171,664 1171,664 1172,665 1172,665 1172,665 1172,665 1173,665 1173,665 1174,665 1174,665 1174,665 1174,665 1175,665 1175,665 1175,665 1175,665 1176,665 1176,665 1176,665 1176,665 1177,665 1177,665 1178,665 1178,665 1178,665 1178,665 1179,665 1179,665 1179,665 1179,665 1180,665 1180,664 1180,664 1180,664 1181,664 1181,664 1182,664 1182,664 1182,664 1182,664 1183,664 1183,664 1183,664 1183,664 1184,664 1184,664 1184,664 1184,664 1185,664 1185,664 1186,664 1186,664 1186,664 1187,664 1187,664 1187,664 1187,664 1188,664 1188,664 1188,664 1188,664 1189,664 1189,664 1190,664 "/>
<polyline fill="none" opacity="1" stroke="#5419E6" stroke-width="2" points="809,738 810,738 813,738 818,737 820,737 823,737 825,737 826,736 826,734 827,734 829,734 830,734 834,733 835,733 836,733 837,733 838,733 844,733 848,733 849,733 850,732 852,732 855,731 856,731 856,730 857,730 857,730 858,730 860,730 861,730 861,730 864,730 864,729 865,729 865,728 868,728 869,728 869,728 870,728 871,728 873,728 873,727 874,727 875,727 877,727 878,727 879,727 880,727 881,726 881,726 882,726 883,726 884,726 884,726 885,726 886,726 887,726 888,726 889,726 889,726 890,726 890,725 891,724 892,724 892,724 893,724 893,725 894,725 894,725 896,725 896,725 897,724 897,724 898,724 898,724 899,724 901,724 901,724 902,724 902,724 902,724 903,723 903,723 904,723 905,723 905,722 906,722 907,722 907,721 909,721 909,721 910,721 910,721 911,721 911,721 913,721 914,720 914,720 915,719 915,719 916,719 917,718 917,718 918,718 919,718 919,718 920,717 920,717 921,717 922,717 922,717 923,717 924,717 924,717 926,717 927,717 927,717 928,717 930,717 930,717 931,717 931,717 932,716 934,716 935,716 935,716 937,715 938,715 938,715 939,715 939,715 940,715 940,715 941,715 941,715 942,715 943,715 943,714 944,714 944,714 945,714 945,714 946,714 947,713 947,713 948,714 948,714 949,713 949,713 950,713 951,713 951,713 952,713 953,713 953,713 954,712 955,712 955,712 956,712 956,712 957,711 957,711 959,711 959,711 960,711 960,711 961,711 961,711 962,711 962,711 963,710 964,710 964,710 965,710 965,710 966,710 966,710 967,710 968,710 968,710 969,709 969,709 970,709 970,709 971,709 972,709 972,709 973,709 973,709 974,709 974,709 975,708 976,708 976,708 977,708 978,708 978,708 979,708 980,708 980,708 981,708 981,708 982,708 982,708 982,708 982,708 983,708 983,708 983,708 984,708 984,708 985,708 985,708 985,708 986,708 986,708 986,708 986,708 987,708 987,707 987,707 987,707 988,707 988,707 989,707 989,707 989,707 989,707 990,707 990,707 990,707 990,707 991,707 991,707 991,707 992,707 993,707 993,707 993,707 993,706 994,706 994,706 994,706 994,706 995,706 995,706 995,706 995,706 996,706 997,706 997,706 997,706 997,706 998,706 998,706 998,706 998,706 999,706 999,706 999,706 999,706 1000,706 1000,706 1001,706 1001,706 1001,706 1001,706 1002,706 1002,706 1003,706 1003,706 1003,706 1003,706 1004,706 1004,706 1004,706 1004,706 1005,706 1005,706 1006,706 1006,706 1006,706 1006,706 1007,706 1007,706 1007,706 1007,706 1008,706 1008,706 1009,706 1010,706 1010,705 1010,705 1010,705 1011,705 1011,705 1011,705 1011,705 1012,705 1012,705 1012,705 1012,705 1013,705 1013,705 1014,705 1014,705 1014,705 1015,705 1015,705 1015,705 1016,705 1016,705 1016,705 1016,705 1017,705 1017,705 1018,705 1018,704 1018,704 1019,704 1019,704 1019,704 1019,704 1020,704 1020,704 1020,704 1020,704 1021,704 1021,704 1022,704 1022,704 1022,704 1022,704 1023,704 1023,704 1023,704 1024,704 1024,704 1024,704 1024,704 1025,704 1025,704 1025,704 1025,703 1026,703 1026,703 1027,703 1027,703 1027,703 1027,704 1028,704 1028,704 1028,704 1028,703 1029,703 1029,703 1029,703 1030,703 1030,703 1031,703 1031,703 1031,703 1031,703 1032,703 1032,703 1032,703 1032,703 1033,703 1033,703 1033,703 1033,703 1034,703 1034,703 1035,703 1035,703 1036,703 1036,703 1036,703 1036,703 1037,703 1037,703 1037,703 1037,703 1038,703 1039,703 1039,703 1039,703 1040,703 1040,703 1040,703 1041,703 1041,703 1041,703 1041,703 1042,703 1042,702 1043,702 1043,702 1043,702 1044,702 1044,702 1044,702 1044,702 1045,702 1045,702 1045,702 1045,702 1046,702 1046,702 1046,702 1047,702 1047,702 1048,702 1048,702 1048,702 1048,702 1049,702 1049,702 1049,702 1049,702 1050,702 1050,702 1050,702 1050,702 1051,702 1051,702 1052,702 1052,702 1052,702 1052,702 1053,702 1053,702 1053,702 1054,702 1054,702 1054,702 1054,702 1055,702 1056,702 1056,702 1056,702 1056,702 1057,702 1057,702 1057,702 1057,702 1058,702 1058,702 1058,702 1058,701 1059,701 1059,701 1060,701 1060,701 1060,701 1061,701 1061,701 1061,701 1061,701 1062,701 1062,701 1062,701 1062,701 1063,701 1063,701 1064,701 1064,701 1064,701 1064,701 1065,701 1065,701 1065,701 1065,701 1066,701 1066,701 1066,701 1066,701 1067,701 1067,701 1067,701 1067,701 1068,701 1068,701 1069,701 1069,701 1069,701 1069,701 1070,701 1070,701 1070,701 1071,701 1071,701 1071,701 1071,701 1072,701 1072,701 1073,701 1073,701 1073,701 1073,701 1074,701 1074,701 1074,701 1074,701 1075,701 1075,701 1075,701 1075,701 1076,701 1076,700 1077,700 1077,700 1077,700 1077,700 1078,700 1078,700 1078,700 1078,700 1079,700 1079,700 1079,700 1080,700 1080,699 1081,699 1081,699 1081,699 1081,699 1082,699 1082,699 1082,699 1082,699 1083,699 1083,699 1083,699 1083,699 1084,699 1084,699 1085,699 1085,699 1085,699 1085,699 1086,699 1086,698 1086,698 1087,698 1087,698 1087,698 1087,698 1088,698 1088,698 1089,698 1089,698 1090,698 1090,698 1091,698 1091,698 1091,698 1091,698 1092,698 1092,697 1092,697 1092,697 1093,697 1093,697 1094,697 1094,697 1094,697 1095,697 1095,697 1095,697 1095,697 1096,697 1096,697 1096,697 1096,697 1097,697 1097,697 1098,697 1098,698 1098,698 1099,698 1099,698 1099,698 1099,698 1100,698 1100,695 1100,695 1100,695 1101,695 1101,695 1102,695 1102,695 1102,695 1102,695 1103,695 1103,695 1103,695 1103,695 1104,695 1104,695 1104,695 1104,694 1105,694 1105,694 1106,694 1106,694 1106,694 1107,694 1107,696 1107,696 1107,696 1108,696 1108,696 1108,696 1108,696 1109,696 1109,695 1109,695 1109,695 1110,695 1110,695 1111,695 1111,695 1111,695 1111,695 1112,695 1112,695 1112,695 1112,695 1113,695 1113,695 1113,695 1113,695 1114,695 1114,695 1115,695 1115,695 1115,695 1115,695 1116,695 1116,695 1116,695 1116,695 1117,695 1117,695 1117,695 1117,695 1118,695 1118,695 1119,695 1119,695 1119,695 1119,695 1120,695 1120,696 1120,696 1120,696 1121,696 1121,696 1121,696 1122,696 1122,696 1123,696 1123,696 1123,696 1123,696 1124,696 1124,696 1124,696 1124,696 1125,696 1125,696 1125,696 1125,696 1126,696 1126,696 1127,696 1127,696 1127,696 1127,696 1128,696 1128,696 1128,696 1128,696 1129,696 1129,696 1129,696 1129,696 1130,696 1130,695 1130,695 1130,695 1131,695 1131,695 1132,695 1132,695 1132,695 1133,695 1133,695 1133,695 1133,695 1134,695 1134,695 1134,695 1134,695 1135,695 1135,695 1136,695 1136,695 1136,695 1136,695 1137,695 1137,695 1137,695 1137,695 1138,695 1138,695 1138,695 1138,695 1139,695 1139,695 1140,695 1140,695 1140,695 1141,695 1141,695 1141,695 1141,695 1142,695 1142,695 1142,695 1142,694 1143,694 1143,694 1144,694 1144,694 1144,694 1144,694 1145,694 1145,694 1145,694 1145,694 1146,694 1146,694 1146,694 1146,694 1147,694 1147,694 1148,694 1148,694 1148,694 1148,694 1149,694 1149,694 1149,694 1149,694 1150,694 1150,694 1150,694 1150,694 1151,694 1151,694 1151,694 1151,694 1152,694 1152,694 1153,694 1153,694 1153,694 1153,694 1154,694 1154,694 1154,694 1154,694 1155,694 1155,694 1155,694 1156,694 1156,694 1157,694 1157,694 1157,694 1157,694 1158,694 1158,694 1158,694 1158,694 1159,694 1159,694 1159,694 1159,694 1160,694 1160,694 1161,694 1161,694 1161,694 1161,693 1162,693 1162,693 1162,693 1162,693 1163,693 1163,693 1163,693 1163,693 1164,693 1164,693 1165,693 1165,693 1165,693 1165,693 1166,693 1166,693 1166,693 1166,693 1167,693 1167,693 1167,693 1167,693 1168,693 1168,693 1169,693 1169,693 1169,693 1169,693 1170,693 1170,693 1170,693 1170,693 1171,693 1171,693 1171,693 1171,693 1172,693 1172,693 1172,693 1172,693 1173,693 1173,692 1174,692 1174,692 1174,692 1174,692 1175,692 1175,692 1175,692 1175,692 1176,692 1176,692 1176,692 1176,692 1177,692 1177,692 1178,692 1178,692 1178,692 1178,692 1179,692 1179,692 1179,692 1179,692 1180,692 1180,692 1180,692 1181,692 1181,692 1182,692 1182,692 1182,692 1182,692 1183,692 1183,692 1183,692 1183,692 1184,692 1184,692 1184,692 1184,692 1185,692 1185,692 1186,692 1186,692 1186,692 1187,692 1187,692 1187,692 1187,691 1188,691 1188,691 1188,691 1188,689 1189,689 1189,689 1190,689 "/>
<polyline fill="none" opacity="1" stroke="#E619C8" stroke-width="2" points="897,738 898,737 898,737 899,737 899,737 901,736 901,736 902,736 902,736 902,736 903,735 903,735 904,735 905,735 905,734 906,734 906,734 907,734 907,733 908,733 909,732 909,731 910,731 911,731 911,730 912,729 913,729 913,728 914,727 914,727 915,726 915,726 916,726 917,726 917,726 918,725 918,722 919,721 919,721 920,720 920,719 921,719 922,719 922,719 923,719 923,719 924,719 924,717 925,717 926,717 926,717 927,717 927,717 928,717 928,717 929,716 930,715 930,715 931,715 931,714 932,714 932,713 933,713 934,712 934,710 935,710 935,710 936,710 936,710 937,710 938,710 938,708 939,707 939,706 940,704 940,704 941,703 941,703 942,702 943,702 943,702 944,701 944,701 945,700 945,700 946,699 947,698 947,698 948,696 948,695 949,694 949,694 950,692 951,692 951,692 952,691 952,691 953,689 953,687 954,687 955,686 955,685 956,685 956,685 957,685 957,684 958,682 959,681 959,680 960,680 960,678 961,677 961,677 962,677 962,676 963,676 964,676 964,675 965,675 965,674 966,673 966,673 967,672 968,672 968,672 969,671 969,671 970,670 970,670 971,669 972,669 972,668 973,666 973,666 974,665 974,664 975,664 976,664 976,663 977,662 977,662 978,661 978,661 979,659 980,657 980,656 981,655 981,655 982,655 982,654 982,654 982,654 983,654 983,653 983,652 984,652 984,651 985,650 985,650 985,649 986,649 986,647 986,647 986,646 987,646 987,645 987,645 987,643 988,643 988,643 989,643 989,642 989,642 989,641 990,641 990,641 990,641 990,640 991,638 991,638 991,638 992,637 993,637 993,636 993,636 993,636 994,636 994,635 994,635 994,635 995,635 995,634 995,634 995,634 996,633 997,633 997,633 997,633 997,631 998,631 998,631 998,631 998,630 999,630 999,629 999,629 999,629 1000,629 1000,628 1001,628 1001,625 1001,625 1001,624 1002,620 1002,620 1002,619 1003,619 1003,617 1003,617 1003,617 1004,617 1004,616 1004,616 1004,613 1005,613 1005,612 1006,612 1006,611 1006,611 1006,610 1007,610 1007,610 1007,610 1007,609 1008,609 1008,607 1008,607 1009,606 1010,606 1010,604 1010,604 1010,603 1011,603 1011,602 1011,602 1011,601 1012,601 1012,601 1012,601 1012,600 1013,600 1013,599 1014,599 1014,597 1014,597 1014,595 1015,594 1015,594 1015,593 1016,593 1016,592 1016,592 1016,589 1017,589 1017,588 1018,588 1018,587 1018,586 1019,586 1019,584 1019,584 1019,582 1020,582 1020,580 1020,580 1020,578 1021,578 1021,578 1022,578 1022,578 1022,578 1022,576 1023,576 1023,574 1023,574 1023,569 1024,569 1024,567 1024,567 1024,565 1025,565 1025,564 1025,564 1025,563 1026,563 1026,563 1027,563 1027,561 1027,561 1027,558 1028,558 1028,556 1028,556 1028,555 1029,554 1029,554 1029,553 1030,553 1030,551 1031,551 1031,550 1031,550 1031,547 1032,547 1032,546 1032,546 1032,545 1033,545 1033,544 1033,544 1033,542 1034,542 1034,541 1035,539 1035,539 1035,539 1036,539 1036,537 1036,537 1036,536 1037,536 1037,534 1037,534 1037,532 1038,530 1039,528 1039,528 1039,527 1040,525 1040,525 1040,524 1041,524 1041,523 1041,523 1041,520 1042,520 1042,518 1043,518 1043,517 1043,517 1043,515 1044,515 1044,514 1044,514 1044,513 1045,513 1045,511 1045,511 1045,510 1046,509 1046,509 1046,509 1047,509 1047,506 1048,506 1048,504 1048,504 1048,503 1049,503 1049,501 1049,501 1049,500 1050,500 1050,499 1050,499 1050,498 1051,498 1051,497 1052,497 1052,495 1052,495 1052,494 1053,494 1053,494 1053,494 1053,492 1054,492 1054,492 1054,492 1054,491 1055,490 1056,490 1056,488 1056,488 1056,485 1057,485 1057,484 1057,484 1057,483 1058,483 1058,483 1058,483 1058,481 1059,481 1059,479 1060,476 1060,476 1060,474 1061,474 1061,473 1061,473 1061,472 1062,472 1062,471 1062,471 1062,471 1063,471 1063,470 1064,470 1064,468 1064,468 1064,467 1065,467 1065,466 1065,466 1065,465 1066,465 1066,464 1066,464 1066,463 1067,463 1067,462 1067,462 1067,460 1068,460 1068,458 1069,458 1069,457 1069,457 1069,455 1070,455 1070,452 1070,452 1071,452 1071,449 1071,449 1071,448 1072,448 1072,446 1073,446 1073,444 1073,444 1073,443 1074,443 1074,439 1074,439 1074,438 1075,438 1075,437 1075,437 1075,435 1076,435 1076,433 1077,433 1077,432 1077,432 1077,428 1078,428 1078,426 1078,426 1078,424 1079,424 1079,422 1079,422 1079,422 1080,422 1080,420 1081,420 1081,417 1081,417 1081,416 1082,416 1082,414 1082,414 1082,414 1083,414 1083,411 1083,411 1083,409 1084,409 1084,406 1085,406 1085,405 1085,405 1085,404 1086,404 1086,403 1086,401 1087,401 1087,399 1087,399 1087,397 1088,394 1088,394 1088,393 1089,393 1089,392 1090,392 1090,391 1090,391 1090,388 1091,388 1091,386 1091,386 1091,384 1092,384 1092,383 1092,383 1092,382 1093,382 1093,382 1094,382 1094,381 1094,381 1095,381 1095,379 1095,379 1095,377 1096,377 1096,375 1096,375 1096,375 1097,375 1097,374 1098,374 1098,372 1098,372 1098,371 1099,371 1099,370 1099,370 1099,368 1100,368 1100,367 1100,367 1100,365 1101,365 1101,362 1102,362 1102,361 1102,361 1102,361 1103,361 1103,360 1103,360 1103,357 1104,357 1104,355 1104,355 1104,353 1105,353 1105,353 1106,353 1106,351 1106,351 1106,350 1107,350 1107,346 1107,346 1107,345 1108,345 1108,343 1108,343 1108,341 1109,341 1109,340 1109,340 1109,338 1110,338 1110,337 1111,337 1111,334 1111,334 1111,334 1112,334 1112,333 1112,333 1112,331 1113,331 1113,328 1113,328 1113,326 1114,326 1114,324 1115,324 1115,321 1115,321 1115,320 1116,320 1116,318 1116,318 1116,317 1117,317 1117,315 1117,315 1117,315 1118,315 1118,314 1119,314 1119,311 1119,311 1119,310 1120,310 1120,308 1120,308 1120,306 1121,303 1121,303 1121,303 1122,303 1122,300 1123,300 1123,299 1123,299 1123,297 1124,297 1124,295 1124,295 1124,294 1125,294 1125,293 1125,293 1125,292 1126,292 1126,291 1127,291 1127,290 1127,290 1127,289 1128,289 1128,287 1128,287 1128,285 1129,285 1129,283 1129,282 1129,281 1130,281 1130,280 1130,280 1130,278 1131,278 1131,276 1132,276 1132,274 1132,273 1133,273 1133,272 1133,272 1133,271 1134,271 1134,269 1134,269 1134,267 1135,265 1136,265 1136,264 1136,264 1136,262 1137,262 1137,261 1137,261 1137,259 1138,259 1138,259 1138,259 1138,257 1139,257 1139,257 1140,257 1140,255 1140,255 1140,253 1141,253 1141,253 1141,253 1141,251 1142,251 1142,249 1142,249 1142,249 1143,249 1143,247 1144,247 1144,246 1144,246 1144,245 1145,245 1145,244 1145,244 1145,242 1146,242 1146,241 1146,241 1146,240 1147,239 1147,237 1148,237 1148,236 1148,236 1148,236 1149,235 1149,234 1149,234 1149,233 1150,233 1150,232 1150,232 1150,230 1151,229 1151,225 1151,225 1151,222 1152,222 1152,222 1153,221 1153,220 1153,220 1153,217 1154,217 1154,215 1154,215 1154,211 1155,211 1155,208 1155,207 1156,207 1156,205 1157,205 1157,204 1157,204 1157,202 1158,202 1158,200 1158,200 1158,199 1159,199 1159,199 1159,198 1159,197 1160,197 1160,196 1161,195 1161,192 1161,192 1161,191 1162,191 1162,189 1162,189 1162,186 1163,186 1163,184 1163,183 1163,181 1164,181 1164,179 1165,179 1165,176 1165,176 1165,174 1166,174 1166,171 1166,171 1166,171 1167,171 1167,168 1167,168 1167,166 1168,166 1168,165 1169,165 1169,163 1169,163 1169,162 1170,162 1170,160 1170,160 1170,158 1171,158 1171,156 1171,156 1171,155 1172,155 1172,152 1172,149 1172,147 1173,147 1173,146 1174,146 1174,144 1174,144 1174,142 1175,142 1175,140 1175,140 1175,129 1176,129 1176,126 1176,126 1176,123 1177,123 1177,122 1178,122 1178,119 1178,119 1178,118 1179,118 1179,117 1179,117 1179,114 1180,114 1180,111 1180,111 1180,109 1181,109 1181,106 1182,106 1182,105 1182,105 1182,103 1183,103 1183,100 1183,100 1183,99 1184,99 1184,98 1184,98 1184,96 1185,96 1185,93 1186,93 1186,90 1186,89 1187,89 1187,86 1187,86 1187,83 1188,83 1188,78 1188,78 1188,78 1189,78 1189,75 1190,75 "/>
<rect x="65" y="315" width="107" height="119" opacity="1" fill="#FFFFFF" stroke="none"/>
<rect x="65" y="315" width="107" height="119" opacity="1" fill="none" stroke="#000000"/>
<text x="105" y="325" dy="0.76em" text-anchor="start" font-family="sans-serif" font-size="9.67741935483871" opacity="1" fill="#000000">
anyhow
</text>
<text x="105" y="340" dy="0.76em" text-anchor="start" font-family="sans-serif" font-size="9.67741935483871" opacity="1" fill="#000000">
err-derive
</text>
<text x="105" y="355" dy="0.76em" text-anchor="start" font-family="sans-serif" font-size="9.67741935483871" opacity="1" fill="#000000">
error-chain
</text>
<text x="105" y="370" dy="0.76em" text-anchor="start" font-family="sans-serif" font-size="9.67741935483871" opacity="1" fill="#000000">
failure
</text>
<text x="105" y="385" dy="0.76em" text-anchor="start" font-family="sans-serif" font-size="9.67741935483871" opacity="1" fill="#000000">
quick-error
</text>
<text x="105" y="400" dy="0.76em" text-anchor="start" font-family="sans-serif" font-size="9.67741935483871" opacity="1" fill="#000000">
snafu
</text>
<text x="105" y="415" dy="0.76em" text-anchor="start" font-family="sans-serif" font-size="9.67741935483871" opacity="1" fill="#000000">
thiserror
</text>
<polyline fill="none" opacity="1" stroke="#E61919" stroke-width="2" points="75,330 95,330 "/>
<polyline fill="none" opacity="1" stroke="#E6C819" stroke-width="2" points="75,344 95,344 "/>
<polyline fill="none" opacity="1" stroke="#54E619" stroke-width="2" points="75,359 95,359 "/>
<polyline fill="none" opacity="1" stroke="#19E68E" stroke-width="2" points="75,374 95,374 "/>
<polyline fill="none" opacity="1" stroke="#198EE6" stroke-width="2" points="75,390 95,390 "/>
<polyline fill="none" opacity="1" stroke="#5419E6" stroke-width="2" points="75,404 95,404 "/>
<polyline fill="none" opacity="1" stroke="#E619C8" stroke-width="2" points="75,419 95,419 "/>
</svg>
