<svg width="1200" height="800" xmlns="http://www.w3.org/2000/svg">
<rect x="0" y="0" width="1199" height="799" opacity="1" fill="#FFFFFF" stroke="none"/>
<line opacity="0.1" stroke="#000000" stroke-width="1" x1="60" y1="723" x2="1190" y2="723"/>
<line opacity="0.1" stroke="#000000" stroke-width="1" x1="60" y1="708" x2="1190" y2="708"/>
<line opacity="0.1" stroke="#000000" stroke-width="1" x1="60" y1="692" x2="1190" y2="692"/>
<line opacity="0.1" stroke="#000000" stroke-width="1" x1="60" y1="677" x2="1190" y2="677"/>
<line opacity="0.1" stroke="#000000" stroke-width="1" x1="60" y1="661" x2="1190" y2="661"/>
<line opacity="0.1" stroke="#000000" stroke-width="1" x1="60" y1="646" x2="1190" y2="646"/>
<line opacity="0.1" stroke="#000000" stroke-width="1" x1="60" y1="630" x2="1190" y2="630"/>
<line opacity="0.1" stroke="#000000" stroke-width="1" x1="60" y1="615" x2="1190" y2="615"/>
<line opacity="0.1" stroke="#000000" stroke-width="1" x1="60" y1="599" x2="1190" y2="599"/>
<line opacity="0.1" stroke="#000000" stroke-width="1" x1="60" y1="584" x2="1190" y2="584"/>
<line opacity="0.1" stroke="#000000" stroke-width="1" x1="60" y1="568" x2="1190" y2="568"/>
<line opacity="0.1" stroke="#000000" stroke-width="1" x1="60" y1="553" x2="1190" y2="553"/>
<line opacity="0.1" stroke="#000000" stroke-width="1" x1="60" y1="537" x2="1190" y2="537"/>
<line opacity="0.1" stroke="#000000" stroke-width="1" x1="60" y1="522" x2="1190" y2="522"/>
<line opacity="0.1" stroke="#000000" stroke-width="1" x1="60" y1="506" x2="1190" y2="506"/>
<line opacity="0.1" stroke="#000000" stroke-width="1" x1="60" y1="491" x2="1190" y2="491"/>
<line opacity="0.1" stroke="#000000" stroke-width="1" x1="60" y1="475" x2="1190" y2="475"/>
<line opacity="0.1" stroke="#000000" stroke-width="1" x1="60" y1="460" x2="1190" y2="460"/>
<line opacity="0.1" stroke="#000000" stroke-width="1" x1="60" y1="444" x2="1190" y2="444"/>
<line opacity="0.1" stroke="#000000" stroke-width="1" x1="60" y1="429" x2="1190" y2="429"/>
<line opacity="0.1" stroke="#000000" stroke-width="1" x1="60" y1="413" x2="1190" y2="413"/>
<line opacity="0.1" stroke="#000000" stroke-width="1" x1="60" y1="398" x2="1190" y2="398"/>
<line opacity="0.1" stroke="#000000" stroke-width="1" x1="60" y1="382" x2="1190" y2="382"/>
<line opacity="0.1" stroke="#000000" stroke-width="1" x1="60" y1="367" x2="1190" y2="367"/>
<line opacity="0.1" stroke="#000000" stroke-width="1" x1="60" y1="351" x2="1190" y2="351"/>
<line opacity="0.1" stroke="#000000" stroke-width="1" x1="60" y1="335" x2="1190" y2="335"/>
<line opacity="0.1" stroke="#000000" stroke-width="1" x1="60" y1="320" x2="1190" y2="320"/>
<line opacity="0.1" stroke="#000000" stroke-width="1" x1="60" y1="304" x2="1190" y2="304"/>
<line opacity="0.1" stroke="#000000" stroke-width="1" x1="60" y1="289" x2="1190" y2="289"/>
<line opacity="0.1" stroke="#000000" stroke-width="1" x1="60" y1="273" x2="1190" y2="273"/>
<line opacity="0.1" stroke="#000000" stroke-width="1" x1="60" y1="258" x2="1190" y2="258"/>
<line opacity="0.1" stroke="#000000" stroke-width="1" x1="60" y1="242" x2="1190" y2="242"/>
<line opacity="0.1" stroke="#000000" stroke-width="1" x1="60" y1="227" x2="1190" y2="227"/>
<line opacity="0.1" stroke="#000000" stroke-width="1" x1="60" y1="211" x2="1190" y2="211"/>
<line opacity="0.1" stroke="#000000" stroke-width="1" x1="60" y1="196" x2="1190" y2="196"/>
<line opacity="0.1" stroke="#000000" stroke-width="1" x1="60" y1="180" x2="1190" y2="180"/>
<line opacity="0.1" stroke="#000000" stroke-width="1" x1="60" y1="165" x2="1190" y2="165"/>
<line opacity="0.1" stroke="#000000" stroke-width="1" x1="60" y1="149" x2="1190" y2="149"/>
<line opacity="0.1" stroke="#000000" stroke-width="1" x1="60" y1="134" x2="1190" y2="134"/>
<line opacity="0.1" stroke="#000000" stroke-width="1" x1="60" y1="118" x2="1190" y2="118"/>
<line opacity="0.1" stroke="#000000" stroke-width="1" x1="60" y1="103" x2="1190" y2="103"/>
<line opacity="0.1" stroke="#000000" stroke-width="1" x1="60" y1="87" x2="1190" y2="87"/>
<line opacity="0.1" stroke="#000000" stroke-width="1" x1="60" y1="72" x2="1190" y2="72"/>
<line opacity="0.1" stroke="#000000" stroke-width="1" x1="60" y1="56" x2="1190" y2="56"/>
<line opacity="0.1" stroke="#000000" stroke-width="1" x1="60" y1="41" x2="1190" y2="41"/>
<line opacity="0.1" stroke="#000000" stroke-width="1" x1="60" y1="25" x2="1190" y2="25"/>
<line opacity="0.1" stroke="#000000" stroke-width="1" x1="60" y1="10" x2="1190" y2="10"/>
<text x="10" y="375" dy="0.76em" text-anchor="middle" font-family="sans-serif" font-size="9.67741935483871" opacity="1" fill="#000000" transform="rotate(270, 10, 375)">
Number of dependent crates
</text>
<line opacity="0.2" stroke="#000000" stroke-width="1" x1="60" y1="584" x2="1190" y2="584"/>
<line opacity="0.2" stroke="#000000" stroke-width="1" x1="60" y1="429" x2="1190" y2="429"/>
<line opacity="0.2" stroke="#000000" stroke-width="1" x1="60" y1="273" x2="1190" y2="273"/>
<line opacity="0.2" stroke="#000000" stroke-width="1" x1="60" y1="118" x2="1190" y2="118"/>
<polyline fill="none" opacity="1" stroke="#000000" stroke-width="1" points="59,10 59,740 "/>
<text x="50" y="584" dy="0.5ex" text-anchor="end" font-family="sans-serif" font-size="9.67741935483871" opacity="1" fill="#000000">
500
</text>
<polyline fill="none" opacity="1" stroke="#000000" stroke-width="1" points="54,584 59,584 "/>
<text x="50" y="429" dy="0.5ex" text-anchor="end" font-family="sans-serif" font-size="9.67741935483871" opacity="1" fill="#000000">
1000
</text>
<polyline fill="none" opacity="1" stroke="#000000" stroke-width="1" points="54,429 59,429 "/>
<text x="50" y="273" dy="0.5ex" text-anchor="end" font-family="sans-serif" font-size="9.67741935483871" opacity="1" fill="#000000">
1500
</text>
<polyline fill="none" opacity="1" stroke="#000000" stroke-width="1" points="54,273 59,273 "/>
<text x="50" y="118" dy="0.5ex" text-anchor="end" font-family="sans-serif" font-size="9.67741935483871" opacity="1" fill="#000000">
2000
</text>
<polyline fill="none" opacity="1" stroke="#000000" stroke-width="1" points="54,118 59,118 "/>
<polyline fill="none" opacity="1" stroke="#000000" stroke-width="1" points="60,740 1190,740 "/>
<text x="60" y="750" dy="0.76em" text-anchor="middle" font-family="sans-serif" font-size="9.67741935483871" opacity="1" fill="#000000">
2015-09-24Z
</text>
<polyline fill="none" opacity="1" stroke="#000000" stroke-width="1" points="60,740 60,745 "/>
<text x="177" y="750" dy="0.76em" text-anchor="middle" font-family="sans-serif" font-size="9.67741935483871" opacity="1" fill="#000000">
2016-03-17Z
</text>
<polyline fill="none" opacity="1" stroke="#000000" stroke-width="1" points="177,740 177,745 "/>
<text x="294" y="750" dy="0.76em" text-anchor="middle" font-family="sans-serif" font-size="9.67741935483871" opacity="1" fill="#000000">
2016-09-08Z
</text>
<polyline fill="none" opacity="1" stroke="#000000" stroke-width="1" points="294,740 294,745 "/>
<text x="411" y="750" dy="0.76em" text-anchor="middle" font-family="sans-serif" font-size="9.67741935483871" opacity="1" fill="#000000">
2017-03-02Z
</text>
<polyline fill="none" opacity="1" stroke="#000000" stroke-width="1" points="411,740 411,745 "/>
<text x="528" y="750" dy="0.76em" text-anchor="middle" font-family="sans-serif" font-size="9.67741935483871" opacity="1" fill="#000000">
2017-08-24Z
</text>
<polyline fill="none" opacity="1" stroke="#000000" stroke-width="1" points="528,740 528,745 "/>
<text x="645" y="750" dy="0.76em" text-anchor="middle" font-family="sans-serif" font-size="9.67741935483871" opacity="1" fill="#000000">
2018-02-15Z
</text>
<polyline fill="none" opacity="1" stroke="#000000" stroke-width="1" points="645,740 645,745 "/>
<text x="762" y="750" dy="0.76em" text-anchor="middle" font-family="sans-serif" font-size="9.67741935483871" opacity="1" fill="#000000">
2018-08-09Z
</text>
<polyline fill="none" opacity="1" stroke="#000000" stroke-width="1" points="762,740 762,745 "/>
<text x="879" y="750" dy="0.76em" text-anchor="middle" font-family="sans-serif" font-size="9.67741935483871" opacity="1" fill="#000000">
2019-01-31Z
</text>
<polyline fill="none" opacity="1" stroke="#000000" stroke-width="1" points="879,740 879,745 "/>
<text x="996" y="750" dy="0.76em" text-anchor="middle" font-family="sans-serif" font-size="9.67741935483871" opacity="1" fill="#000000">
2019-07-25Z
</text>
<polyline fill="none" opacity="1" stroke="#000000" stroke-width="1" points="996,740 996,745 "/>
<text x="1113" y="750" dy="0.76em" text-anchor="middle" font-family="sans-serif" font-size="9.67741935483871" opacity="1" fill="#000000">
2020-01-16Z
</text>
<polyline fill="none" opacity="1" stroke="#000000" stroke-width="1" points="1113,740 1113,745 "/>
<polyline fill="none" opacity="1" stroke="#E61919" stroke-width="2" points="1045,738 1046,738 1047,738 1048,738 1048,738 1049,738 1050,738 1051,737 1052,737 1052,737 1052,737 1053,737 1054,736 1054,736 1055,736 1056,736 1056,735 1057,735 1058,734 1058,734 1059,734 1060,734 1060,732 1062,732 1062,732 1063,731 1064,730 1064,730 1065,728 1066,724 1066,724 1067,724 1068,724 1068,723 1069,723 1070,723 1070,721 1071,718 1072,717 1072,717 1073,716 1074,716 1074,715 1075,715 1076,714 1077,714 1077,712 1078,712 1079,711 1079,711 1080,711 1081,711 1081,710 1082,710 1083,708 1083,708 1084,707 1085,707 1085,707 1086,707 1087,707 1087,705 1088,705 1089,704 1089,704 1090,704 1091,703 1091,703 1092,703 1093,702 1093,702 1094,702 1095,701 1095,701 1096,701 1097,700 1097,699 1098,699 1099,698 1099,698 1100,698 1101,698 1101,696 1102,695 1103,695 1103,693 1104,692 1105,691 1105,691 1106,690 1107,690 1107,688 1108,687 1109,685 1109,685 1110,684 1111,682 1111,680 1112,680 1113,680 1113,679 1114,679 1115,678 1115,678 1116,678 1117,677 1117,677 1118,674 1119,673 1119,672 1120,672 1121,671 1121,671 1122,670 1123,670 1123,670 1124,670 1125,667 1125,667 1126,666 1127,666 1127,664 1128,663 1129,662 1129,662 1130,662 1131,661 1131,661 1132,661 1133,660 1133,659 1134,658 1135,657 1135,657 1136,656 1137,656 1137,656 1138,656 1139,655 1139,654 1140,653 1141,653 1141,652 1142,652 1143,650 1143,650 1144,649 1145,649 1145,649 1146,649 1146,649 1147,649 1147,648 1147,647 1148,646 1148,646 1149,646 1149,645 1149,645 1150,645 1150,642 1151,642 1151,637 1151,637 1151,637 1152,637 1152,635 1153,635 1153,635 1153,635 1153,634 1154,634 1154,633 1155,633 1155,632 1155,632 1155,631 1156,631 1156,631 1157,630 1157,630 1157,629 1158,628 1159,628 1159,627 1159,627 1159,626 1160,626 1160,625 1161,625 1161,625 1161,625 1161,623 1162,623 1162,623 1163,623 1163,623 1163,622 1164,622 1164,622 1165,622 1165,621 1165,621 1165,619 1166,619 1166,619 1167,619 1167,617 1167,617 1167,616 1168,616 1168,614 1169,614 1169,612 1169,609 1170,609 1170,608 1171,608 1171,606 1171,606 1171,605 1172,605 1172,604 1173,604 1173,604 1173,604 1173,603 1174,602 1174,601 1175,601 1175,598 1175,598 1175,598 1176,598 1176,596 1177,596 1177,595 1177,594 1178,593 1179,593 1179,593 1179,593 1179,591 1180,591 1180,589 1181,589 1181,589 1181,589 1181,589 1182,589 1182,588 1183,588 1183,586 1183,586 1183,586 1184,586 1184,586 1185,584 1185,584 1185,581 1186,581 1186,580 1187,580 1187,579 1187,579 1187,577 1188,577 1188,574 1189,574 1190,574 "/>
<polyline fill="none" opacity="1" stroke="#E6C819" stroke-width="2" points="857,738 864,738 869,738 872,737 895,737 902,737 917,736 919,736 921,735 923,735 926,735 927,735 929,735 929,735 930,734 931,734 935,734 935,734 936,734 937,734 939,734 940,734 941,734 941,734 942,734 943,734 944,734 945,734 945,734 946,734 947,733 947,733 949,733 950,733 952,733 953,733 953,733 954,733 955,733 956,733 957,733 957,733 959,733 959,733 961,733 961,733 962,733 963,733 964,733 966,733 967,733 968,733 969,733 970,732 970,732 971,732 972,732 972,732 973,731 974,731 974,731 975,731 976,731 976,731 977,731 978,731 978,731 979,731 980,730 980,730 981,730 982,730 982,730 983,730 984,730 984,730 985,730 986,730 986,730 988,730 988,730 989,730 990,729 990,729 991,729 992,729 992,730 993,730 994,730 994,730 995,729 996,729 997,729 998,729 998,729 999,729 1000,729 1001,729 1002,729 1002,729 1003,729 1004,729 1004,729 1005,729 1006,729 1006,729 1007,729 1008,729 1008,729 1009,729 1010,729 1010,729 1011,729 1012,729 1012,729 1013,729 1014,728 1015,728 1016,728 1016,728 1017,728 1018,728 1018,728 1019,728 1020,728 1020,728 1021,727 1022,727 1022,727 1023,727 1024,726 1024,726 1025,726 1026,726 1026,726 1027,726 1028,726 1028,726 1029,726 1030,726 1030,726 1031,726 1032,726 1032,726 1033,726 1034,726 1034,726 1035,726 1036,726 1036,726 1038,726 1038,726 1039,726 1040,726 1041,726 1042,725 1042,725 1043,725 1044,725 1045,725 1046,725 1046,725 1047,725 1048,725 1048,725 1050,725 1050,725 1051,725 1052,725 1052,725 1052,725 1053,725 1054,725 1054,725 1055,725 1056,725 1057,725 1058,725 1058,725 1059,725 1060,725 1060,725 1061,725 1062,725 1062,725 1063,725 1064,725 1064,725 1065,725 1066,725 1066,725 1067,724 1068,724 1068,724 1069,724 1070,724 1071,724 1072,724 1072,724 1073,724 1074,724 1074,724 1075,724 1076,724 1077,724 1077,724 1078,724 1079,724 1079,724 1080,724 1081,724 1081,724 1083,724 1083,724 1084,724 1085,724 1085,724 1086,724 1087,724 1087,724 1088,724 1089,724 1089,724 1090,724 1091,724 1091,724 1092,724 1093,724 1093,724 1094,724 1095,724 1095,724 1097,724 1097,724 1098,724 1099,724 1099,724 1100,724 1101,724 1101,724 1102,724 1103,724 1103,724 1104,724 1105,724 1106,724 1107,724 1107,724 1108,724 1109,724 1109,724 1110,724 1111,724 1111,724 1112,723 1113,723 1113,723 1114,724 1115,723 1115,723 1116,723 1117,723 1117,723 1118,723 1119,723 1119,723 1120,723 1121,723 1121,723 1122,723 1123,723 1123,723 1124,723 1125,723 1125,723 1126,722 1127,722 1127,721 1128,721 1129,721 1129,721 1130,721 1131,721 1131,722 1132,722 1133,721 1133,721 1134,721 1135,721 1135,721 1136,721 1137,721 1137,721 1138,720 1139,720 1140,720 1141,720 1141,720 1142,720 1143,721 1143,721 1144,720 1145,720 1145,720 1146,720 1146,721 1147,721 1147,721 1147,721 1148,721 1148,720 1149,720 1149,721 1149,721 1150,721 1150,721 1151,721 1151,721 1151,721 1151,721 1152,721 1152,721 1153,721 1153,721 1153,721 1153,721 1154,721 1154,721 1155,721 1155,721 1155,721 1155,721 1156,721 1156,720 1157,720 1157,720 1157,720 1158,720 1159,720 1159,720 1159,720 1159,720 1160,720 1160,720 1161,720 1161,720 1161,720 1161,720 1162,720 1162,720 1163,720 1163,720 1163,720 1164,720 1164,720 1165,720 1165,720 1165,720 1165,720 1166,720 1166,720 1167,720 1167,720 1167,720 1167,720 1168,720 1168,720 1169,720 1169,720 1169,720 1170,720 1170,720 1171,720 1171,720 1171,720 1171,720 1172,720 1172,720 1173,720 1173,720 1173,720 1173,720 1174,720 1174,720 1175,720 1175,720 1175,720 1175,720 1176,720 1176,720 1177,720 1177,720 1177,720 1178,720 1179,720 1179,720 1179,720 1179,719 1180,719 1180,719 1181,719 1181,719 1181,719 1181,719 1182,719 1182,719 1183,719 1183,719 1183,719 1183,719 1184,719 1184,719 1185,719 1185,719 1185,719 1186,719 1186,719 1187,719 1187,719 1187,719 1188,719 1188,719 1189,719 1190,719 "/>
<polyline fill="none" opacity="1" stroke="#54E619" stroke-width="2" points="241,738 241,738 247,738 252,738 259,738 260,737 261,737 266,737 278,736 279,736 280,736 285,735 287,735 288,734 289,734 290,734 293,734 294,734 296,734 297,733 299,732 300,732 304,732 306,731 307,731 309,730 310,729 311,728 312,728 316,728 317,727 318,727 319,727 320,726 321,726 322,726 322,726 323,726 324,726 325,726 326,726 326,726 327,726 328,726 328,725 329,725 330,725 330,725 331,725 332,725 332,724 333,724 334,723 334,722 335,722 336,722 337,721 338,721 339,721 343,721 344,720 344,720 345,720 346,720 347,719 348,719 348,719 349,718 350,717 351,716 352,715 353,715 354,715 354,714 355,714 356,714 357,713 358,713 359,713 360,712 360,712 361,711 362,710 362,709 363,708 364,706 364,706 365,705 366,705 366,705 367,705 368,703 368,703 369,703 370,702 371,701 372,701 372,701 373,700 374,700 374,700 375,700 376,699 376,699 377,699 378,699 378,697 379,697 380,697 380,697 381,697 382,697 383,697 384,697 386,696 386,696 387,695 388,695 388,695 389,695 390,695 390,694 391,694 392,694 392,694 393,694 394,693 394,693 395,693 396,692 396,692 397,692 398,692 399,691 399,690 400,689 401,689 402,688 403,687 403,687 404,687 405,687 405,687 406,687 407,686 407,686 408,686 409,686 409,685 410,685 411,685 411,684 412,684 413,684 413,683 414,682 415,682 415,682 416,682 417,681 417,680 418,680 419,680 419,680 420,680 421,680 421,678 422,678 423,676 423,676 424,676 425,676 425,675 426,675 427,674 427,673 428,673 429,673 429,672 430,672 431,672 431,672 432,672 433,671 433,671 434,671 435,671 435,671 436,671 437,671 437,671 438,670 439,670 439,669 440,669 441,668 441,668 442,667 443,667 443,666 444,666 445,666 445,665 446,665 447,665 447,665 448,664 449,664 449,663 450,662 451,662 451,661 452,660 453,660 453,659 454,659 455,659 455,658 456,658 457,657 457,657 458,657 459,656 459,656 460,655 461,654 461,653 462,653 463,652 463,652 464,651 465,650 465,649 466,649 467,649 467,649 468,649 469,649 469,648 470,649 471,647 471,646 472,646 473,646 473,645 474,645 475,645 475,645 476,645 477,644 477,644 478,644 479,644 479,643 480,642 481,642 481,641 482,641 483,640 483,640 484,639 485,639 485,638 486,638 487,637 487,637 488,636 489,636 489,636 490,635 491,635 491,634 492,634 493,634 493,634 494,633 495,633 495,633 496,633 497,633 497,632 498,632 499,631 499,631 500,631 501,630 501,628 502,628 503,628 503,626 504,625 505,625 505,624 506,623 507,623 507,622 508,621 509,621 509,620 510,620 511,620 512,619 512,618 513,618 514,618 514,617 515,617 516,617 516,616 517,617 518,616 518,616 519,615 520,615 520,614 521,614 522,613 522,613 523,613 524,612 524,611 525,611 526,610 526,609 527,609 528,608 528,608 529,607 530,607 530,607 531,605 532,605 532,604 533,604 534,602 534,602 535,601 536,601 536,601 537,599 538,599 538,598 539,598 540,598 540,598 541,597 542,597 542,596 543,596 544,597 544,596 545,596 546,596 546,596 547,596 548,596 548,589 549,588 550,588 550,587 551,587 552,586 552,585 553,584 554,584 554,583 555,583 556,583 556,582 557,582 558,582 558,581 559,580 560,580 560,579 561,578 562,578 562,577 563,577 564,577 564,577 565,577 566,577 566,577 567,577 568,577 568,577 569,577 570,576 570,576 571,576 572,575 572,575 573,575 574,574 574,574 575,574 576,574 576,574 577,573 578,571 578,571 579,570 580,569 580,569 581,569 582,569 582,568 583,567 584,567 584,567 585,567 586,566 586,566 587,566 588,566 588,566 589,565 590,565 590,565 591,565 592,565 592,564 593,564 594,563 594,563 595,562 596,562 596,562 597,560 598,560 598,560 599,560 600,559 600,559 601,560 602,560 602,560 603,559 604,559 604,559 605,558 606,558 606,557 607,557 608,557 608,556 609,555 610,555 610,555 611,555 612,553 612,552 613,551 614,551 614,551 615,550 616,550 616,550 617,550 618,550 618,549 619,549 620,549 620,549 621,549 622,548 622,548 623,548 624,548 625,548 625,548 626,547 627,547 627,546 628,546 629,546 629,546 630,547 631,546 631,547 632,546 633,547 633,548 634,548 635,547 635,547 636,546 637,546 637,546 638,546 639,546 639,546 640,545 641,545 641,545 642,545 643,545 643,544 644,543 645,543 645,543 646,543 647,543 647,543 648,543 649,543 649,543 650,543 651,543 651,543 652,543 653,543 653,543 654,543 655,544 655,546 656,546 657,546 657,546 658,545 659,546 659,545 660,545 661,545 661,544 662,543 663,543 663,543 664,543 665,543 665,543 666,543 667,543 667,542 668,542 669,542 669,542 670,542 671,542 671,542 672,543 673,542 673,542 674,542 675,542 675,541 676,541 677,541 677,541 678,541 679,541 679,541 680,541 681,541 681,541 682,541 683,541 683,541 684,541 685,541 685,541 686,541 687,541 687,541 688,541 689,541 689,541 690,540 691,540 691,541 692,541 693,541 693,540 694,539 695,539 695,539 696,539 697,539 697,539 698,539 699,538 699,539 700,538 701,539 701,539 702,539 703,539 703,539 704,539 705,538 705,538 706,537 707,537 707,537 708,537 709,537 709,537 710,538 711,538 711,538 712,539 713,539 713,539 714,539 715,539 715,539 716,539 717,538 717,538 718,538 719,538 719,538 720,538 721,537 721,538 722,538 723,537 723,537 724,537 725,537 725,537 726,537 727,537 727,537 728,537 729,537 729,537 730,537 731,537 731,537 732,537 733,537 733,537 734,537 735,537 735,537 736,537 737,537 738,537 738,537 739,537 740,537 740,537 741,536 742,536 742,536 743,536 744,536 744,536 745,536 746,534 746,534 747,534 748,534 748,534 749,534 750,535 750,535 751,535 752,535 752,535 753,535 754,535 754,535 755,535 756,536 756,536 757,536 758,536 758,537 759,537 760,536 760,536 761,536 762,536 762,536 763,536 764,536 764,536 765,536 766,536 766,536 767,536 768,536 768,536 769,536 770,536 770,535 771,535 772,534 772,534 773,534 774,534 774,534 775,534 776,534 776,534 777,534 778,534 778,534 779,534 780,533 780,533 781,533 782,533 782,533 783,533 784,534 784,533 785,533 786,533 786,533 787,533 788,533 788,533 789,532 790,532 790,532 791,533 792,532 792,532 793,532 794,532 794,532 794,531 795,531 796,531 796,531 797,531 798,531 798,532 799,532 800,532 800,532 801,531 802,531 802,531 803,531 804,531 804,531 805,531 806,531 806,531 807,531 808,531 808,531 809,531 810,531 810,531 811,531 812,531 812,531 813,531 814,531 814,530 815,530 816,530 816,530 817,530 818,530 818,529 819,529 820,528 820,528 821,528 822,528 822,528 823,529 824,537 824,537 825,537 826,537 826,537 827,537 828,537 828,536 829,537 830,537 830,536 831,536 832,536 832,536 833,536 834,536 834,536 835,536 836,536 836,536 837,536 838,536 838,536 839,536 840,536 840,536 841,536 842,536 842,536 843,536 844,536 844,536 845,536 846,536 846,536 847,536 848,536 848,536 849,537 850,537 851,536 851,536 852,536 853,536 853,537 854,537 855,537 855,537 856,537 857,537 857,536 858,536 859,536 859,537 860,537 861,537 861,537 862,537 863,538 863,537 864,537 865,537 865,537 866,537 867,537 867,537 868,537 869,537 869,537 870,537 871,537 871,537 872,537 873,536 873,536 874,536 875,536 875,536 876,536 877,535 877,535 878,535 879,535 879,535 880,535 881,535 881,536 882,536 883,536 883,536 884,536 885,536 885,536 886,536 887,536 887,537 888,537 889,536 889,536 890,536 891,536 891,536 892,534 893,534 893,534 894,534 895,534 895,534 896,535 897,535 897,535 898,535 899,535 899,535 900,535 901,535 901,535 902,535 903,535 903,535 904,535 905,535 905,535 906,535 907,535 907,535 908,535 909,535 909,535 910,535 911,535 911,535 912,535 913,535 913,535 914,535 915,535 915,535 916,535 917,535 917,535 918,535 919,535 919,535 920,535 921,535 921,536 922,534 923,534 923,534 924,534 925,534 925,534 926,534 927,534 927,534 928,534 929,534 929,534 930,534 931,534 931,534 932,534 933,534 933,534 934,535 935,535 935,535 936,534 937,534 937,534 938,535 939,535 939,535 940,535 941,534 941,535 942,535 943,535 943,535 944,535 945,535 945,535 946,535 947,535 947,535 948,535 949,535 949,535 950,535 951,535 951,535 952,535 953,535 953,535 954,535 955,535 955,535 956,535 957,535 957,534 958,534 959,534 959,533 960,533 961,533 961,533 962,533 963,533 964,533 964,533 965,533 966,533 966,533 967,533 968,533 968,533 969,533 970,534 970,534 971,534 972,534 972,534 973,534 974,534 974,534 975,534 976,534 976,534 977,534 978,534 978,534 979,534 980,534 980,534 981,534 982,534 982,533 983,533 984,533 984,533 985,533 986,533 986,533 987,533 988,533 988,533 989,533 990,533 990,533 991,533 992,533 992,533 993,533 994,533 994,533 995,533 996,533 996,532 997,532 998,532 998,532 999,532 1000,532 1000,532 1001,532 1002,532 1002,532 1003,532 1004,532 1004,531 1005,531 1006,531 1006,531 1007,531 1008,531 1008,532 1009,532 1010,532 1010,532 1011,532 1012,532 1012,532 1013,532 1014,532 1014,532 1015,532 1016,532 1016,532 1017,532 1018,532 1018,532 1019,532 1020,532 1020,532 1021,532 1022,532 1022,532 1023,532 1024,532 1024,532 1025,532 1026,532 1026,532 1027,532 1028,532 1028,532 1029,532 1030,532 1030,532 1031,532 1032,532 1032,532 1033,532 1034,532 1034,532 1035,532 1036,530 1036,530 1037,530 1038,530 1038,530 1039,530 1040,530 1040,529 1041,529 1042,529 1042,530 1043,530 1044,530 1044,530 1045,529 1046,529 1046,529 1047,529 1048,529 1048,529 1049,529 1050,529 1050,530 1051,529 1052,529 1052,530 1052,530 1053,530 1054,530 1054,530 1055,530 1056,530 1056,530 1057,529 1058,529 1058,529 1059,529 1060,530 1060,530 1061,530 1062,530 1062,530 1063,530 1064,529 1064,530 1065,529 1066,529 1066,528 1067,528 1068,528 1068,528 1069,528 1070,528 1070,527 1071,527 1072,528 1072,528 1073,528 1074,528 1074,528 1075,528 1076,528 1077,528 1077,528 1078,528 1079,528 1079,528 1080,528 1081,528 1081,528 1082,528 1083,528 1083,529 1084,529 1085,529 1085,528 1086,528 1087,528 1087,528 1088,528 1089,528 1089,528 1090,528 1091,528 1091,528 1092,528 1093,529 1093,529 1094,528 1095,528 1095,528 1096,528 1097,528 1097,528 1098,528 1099,528 1099,528 1100,528 1101,528 1101,528 1102,528 1103,528 1103,528 1104,528 1105,528 1105,528 1106,528 1107,528 1107,528 1108,528 1109,528 1109,529 1110,529 1111,529 1111,529 1112,529 1113,530 1113,530 1114,530 1115,530 1115,530 1116,530 1117,530 1117,530 1118,530 1119,530 1119,531 1120,531 1121,531 1121,531 1122,531 1123,531 1123,530 1124,530 1125,530 1125,530 1126,530 1127,530 1127,530 1128,530 1129,530 1129,529 1130,529 1131,529 1131,529 1132,529 1133,528 1133,528 1134,529 1135,529 1135,529 1136,529 1137,529 1137,529 1138,529 1139,529 1139,529 1140,529 1141,528 1141,528 1142,528 1143,528 1143,528 1144,528 1145,528 1145,528 1146,528 1146,528 1147,528 1147,528 1147,528 1148,528 1148,528 1149,528 1149,529 1149,529 1150,529 1150,529 1151,529 1151,529 1151,529 1151,529 1152,529 1152,529 1153,529 1153,529 1153,529 1153,529 1154,529 1154,529 1155,529 1155,529 1155,529 1155,529 1156,529 1156,529 1157,530 1157,530 1157,530 1158,530 1159,530 1159,530 1159,530 1159,530 1160,530 1160,530 1161,530 1161,530 1161,530 1161,530 1162,530 1162,530 1163,530 1163,530 1163,529 1164,529 1164,529 1165,529 1165,529 1165,529 1165,530 1166,530 1166,529 1167,529 1167,530 1167,530 1167,530 1168,530 1168,530 1169,530 1169,530 1169,530 1170,530 1170,530 1171,530 1171,530 1171,530 1171,530 1172,530 1172,530 1173,530 1173,530 1173,530 1173,530 1174,530 1174,530 1175,530 1175,530 1175,530 1175,530 1176,530 1176,530 1177,530 1177,530 1177,530 1178,530 1179,530 1179,530 1179,530 1179,530 1180,530 1180,530 1181,530 1181,530 1181,530 1181,530 1182,530 1182,530 1183,530 1183,530 1183,530 1183,530 1184,530 1184,531 1185,531 1185,531 1185,530 1186,530 1186,530 1187,530 1187,530 1187,530 1187,530 1188,530 1188,530 1189,530 1190,530 "/>
<polyline fill="none" opacity="1" stroke="#19E68E" stroke-width="2" points="584,738 585,738 586,738 587,737 588,736 588,736 590,736 590,735 591,734 592,734 592,733 593,732 594,731 594,731 595,731 596,730 596,729 597,729 600,729 600,728 601,727 602,726 602,726 603,725 604,725 606,724 607,722 608,722 609,722 610,721 610,721 612,720 612,720 613,719 614,718 614,718 615,717 616,717 616,717 617,716 618,715 619,713 620,713 620,712 621,712 622,712 622,711 623,711 624,711 625,709 625,709 626,709 627,709 627,709 628,707 629,707 629,707 630,707 631,705 631,705 632,704 633,703 633,702 634,701 635,701 635,700 636,699 637,698 637,698 638,697 639,697 639,696 640,694 641,693 641,693 642,693 643,693 643,693 644,693 645,693 645,692 646,692 647,691 647,689 648,689 649,688 649,687 650,685 651,684 651,684 652,683 653,682 653,680 654,678 655,677 655,677 656,677 657,675 657,673 658,671 659,671 659,670 660,670 661,669 661,668 662,668 663,667 663,667 664,666 665,666 665,665 666,664 667,663 667,662 668,662 669,661 669,661 670,660 671,660 671,659 672,658 673,658 673,657 674,656 675,656 675,655 676,654 677,653 677,652 678,651 679,651 679,650 680,649 681,647 681,645 682,644 683,642 683,641 684,640 685,638 685,637 686,637 687,636 687,636 688,635 689,635 689,634 690,631 691,630 691,629 692,627 693,627 693,626 694,624 695,623 695,623 696,621 697,620 697,620 698,619 699,619 699,618 700,616 701,616 701,614 702,614 703,612 703,609 704,609 705,608 705,608 706,608 707,607 707,606 708,605 709,605 709,604 710,602 711,602 711,601 712,598 713,595 713,595 714,593 715,593 715,592 716,591 717,591 717,591 718,591 719,589 719,589 720,588 721,588 721,587 723,586 723,585 724,585 725,584 725,584 726,583 727,581 727,579 728,577 729,576 729,575 730,574 731,574 731,574 732,574 733,573 733,572 734,571 735,570 735,570 736,569 737,569 738,568 738,567 739,566 740,566 740,565 741,565 742,564 742,563 743,563 744,561 744,561 745,561 746,560 746,559 747,559 748,559 748,557 749,556 750,554 750,553 751,552 752,551 752,550 753,550 754,550 754,549 755,549 756,548 756,547 757,547 758,545 758,543 759,543 760,542 760,542 761,541 762,540 762,540 763,540 764,539 764,538 765,538 766,537 766,535 767,535 768,533 768,531 769,531 770,529 770,529 771,528 772,527 772,526 773,525 774,524 774,524 775,524 776,523 776,523 777,522 778,521 778,519 779,518 780,517 780,517 781,516 782,515 782,514 783,512 784,511 784,512 785,510 786,510 786,510 787,508 788,507 788,506 789,505 790,504 790,502 791,501 792,500 792,499 793,498 794,497 794,496 794,495 795,495 796,494 796,492 797,491 798,488 798,485 799,483 800,482 800,482 801,481 802,480 802,480 803,479 804,478 804,477 805,477 806,476 806,476 807,475 808,475 808,474 809,473 810,472 810,471 811,468 812,468 812,467 813,465 814,465 814,465 815,464 816,462 816,461 817,459 818,458 818,457 819,457 820,457 820,456 821,454 822,455 822,454 823,452 824,439 824,438 825,438 826,438 826,436 827,436 828,435 828,435 829,434 830,432 830,431 831,430 832,430 832,427 833,427 834,425 834,425 835,424 836,423 836,422 837,422 838,422 838,420 839,418 840,417 840,414 841,412 842,410 842,409 843,407 844,407 844,405 845,404 846,402 846,402 847,402 848,401 848,398 849,396 850,396 851,394 851,393 852,392 853,390 853,390 854,390 855,389 855,388 856,387 857,386 857,385 858,384 859,384 859,381 860,380 861,380 861,378 862,377 863,373 863,371 864,372 865,372 865,371 866,371 867,369 867,369 868,367 869,366 869,366 870,364 871,362 871,362 872,362 873,361 873,361 874,359 875,358 875,357 876,355 877,355 877,353 878,353 879,352 879,352 880,352 881,351 881,349 882,349 883,348 883,347 884,347 885,343 885,342 886,341 887,340 887,338 888,338 889,336 889,336 890,335 891,335 891,335 892,334 893,333 893,333 894,332 895,332 895,331 896,331 897,330 897,328 898,326 899,325 899,323 900,321 901,321 901,321 902,320 903,318 903,317 904,315 905,313 905,313 906,312 907,311 907,310 908,309 909,308 909,308 910,306 911,305 911,305 912,304 913,303 913,302 914,302 915,302 915,301 916,301 917,298 917,298 918,296 919,295 919,294 920,293 921,290 921,289 922,290 923,289 923,288 924,288 925,288 925,285 926,285 927,283 927,281 928,280 929,280 929,279 930,279 931,279 931,278 932,277 933,275 933,275 934,274 935,273 935,273 936,272 937,271 937,270 938,269 939,268 939,267 940,266 941,265 941,264 942,264 943,263 943,262 944,261 945,260 945,259 946,260 947,259 947,259 948,259 949,258 949,257 950,255 951,255 951,253 952,252 953,252 953,252 954,246 955,246 955,246 956,246 957,245 957,244 958,243 959,242 959,242 960,241 961,241 961,240 962,241 963,241 964,241 964,240 965,239 966,238 966,237 967,237 968,236 968,234 969,234 970,232 970,232 971,230 972,229 972,226 973,225 974,225 974,225 975,223 976,221 976,220 977,220 978,217 978,216 979,216 980,214 980,214 981,213 982,211 982,208 983,207 984,207 984,207 985,206 986,205 986,205 987,203 988,203 988,202 989,202 990,202 990,201 991,201 992,200 992,200 993,197 994,197 994,195 995,196 996,194 996,191 997,191 998,192 998,190 999,189 1000,189 1000,188 1001,187 1002,187 1002,187 1003,186 1004,185 1004,184 1005,183 1006,182 1006,182 1007,181 1008,181 1008,179 1009,177 1010,176 1010,175 1011,175 1012,174 1012,173 1013,173 1014,169 1014,168 1015,168 1016,168 1016,168 1017,167 1018,167 1018,167 1019,167 1020,166 1020,165 1021,164 1022,163 1022,163 1023,162 1024,161 1024,160 1025,161 1026,161 1026,160 1027,159 1028,157 1028,156 1029,155 1030,155 1030,155 1031,154 1032,153 1032,152 1033,151 1034,150 1034,149 1035,148 1036,148 1036,147 1037,146 1038,145 1038,145 1039,144 1040,144 1040,144 1041,143 1042,143 1042,142 1043,141 1044,141 1044,141 1045,142 1046,141 1046,139 1047,139 1048,138 1048,135 1049,135 1050,134 1050,134 1051,133 1052,133 1052,133 1052,132 1053,134 1054,134 1054,134 1055,134 1056,135 1056,133 1057,133 1058,133 1058,132 1059,132 1060,130 1060,133 1061,133 1062,132 1062,132 1063,136 1064,137 1064,136 1065,137 1066,140 1066,139 1067,140 1068,139 1068,139 1069,138 1070,138 1070,139 1071,142 1072,142 1072,142 1073,143 1074,143 1074,139 1075,139 1076,139 1077,139 1077,138 1078,138 1079,138 1079,137 1080,137 1081,134 1081,133 1082,133 1083,132 1083,131 1084,129 1085,129 1085,129 1086,128 1087,127 1087,126 1088,126 1089,126 1089,126 1090,124 1091,124 1091,124 1092,123 1093,123 1093,123 1094,123 1095,122 1095,121 1096,122 1097,122 1097,116 1098,116 1099,115 1099,116 1100,115 1101,115 1101,115 1102,115 1103,109 1103,108 1104,107 1105,107 1105,106 1106,105 1107,105 1107,105 1108,105 1109,105 1109,103 1110,103 1111,103 1111,103 1112,105 1113,104 1113,103 1114,103 1115,103 1115,102 1116,101 1117,101 1117,103 1118,105 1119,105 1119,104 1120,103 1121,103 1121,103 1122,103 1123,101 1123,102 1124,101 1125,101 1125,100 1126,100 1127,99 1127,96 1128,96 1129,97 1129,97 1130,96 1131,96 1131,94 1132,95 1133,95 1133,96 1134,94 1135,93 1135,91 1136,91 1137,91 1137,91 1138,91 1139,90 1139,90 1140,90 1141,89 1141,89 1142,89 1143,89 1143,88 1144,89 1145,85 1145,85 1146,84 1146,84 1147,84 1147,84 1147,83 1148,83 1148,84 1149,84 1149,84 1149,84 1150,84 1150,85 1151,85 1151,90 1151,90 1151,90 1152,90 1152,90 1153,90 1153,91 1153,91 1153,90 1154,90 1154,90 1155,90 1155,90 1155,90 1155,90 1156,90 1156,90 1157,89 1157,89 1157,89 1158,89 1159,89 1159,87 1159,87 1159,85 1160,85 1160,85 1161,85 1161,84 1161,84 1161,84 1162,84 1162,83 1163,83 1163,83 1163,81 1164,81 1164,80 1165,80 1165,80 1165,80 1165,79 1166,79 1166,78 1167,78 1167,78 1167,78 1167,78 1168,78 1168,77 1169,77 1169,77 1169,79 1170,79 1170,79 1171,79 1171,79 1171,79 1171,78 1172,78 1172,79 1173,79 1173,80 1173,80 1173,78 1174,78 1174,79 1175,79 1175,79 1175,79 1175,78 1176,78 1176,78 1177,78 1177,79 1177,79 1178,79 1179,79 1179,79 1179,79 1179,78 1180,78 1180,77 1181,77 1181,77 1181,77 1181,76 1182,76 1182,76 1183,76 1183,76 1183,76 1183,75 1184,75 1184,75 1185,76 1185,76 1185,77 1186,77 1186,77 1187,77 1187,77 1187,77 1187,78 1188,78 1188,78 1189,78 1190,78 "/>
<polyline fill="none" opacity="1" stroke="#198EE6" stroke-width="2" points="60,738 60,738 64,738 75,738 84,737 93,737 94,737 98,737 100,736 101,736 106,736 110,736 111,735 118,735 124,735 125,735 128,734 134,734 138,734 140,734 146,734 147,733 148,733 148,733 149,733 150,733 151,733 152,733 152,733 154,733 154,733 155,733 156,733 157,733 159,733 160,733 160,732 161,732 162,732 162,732 163,732 164,732 165,732 166,732 166,732 167,732 168,732 168,732 169,732 170,732 170,732 171,732 172,732 173,732 174,732 175,732 175,732 176,732 177,732 179,732 180,732 181,731 181,731 182,731 183,731 183,731 184,731 185,731 185,731 186,731 187,731 188,731 189,731 190,731 191,730 191,730 192,730 193,730 193,730 195,730 195,730 196,730 197,730 198,730 199,730 199,729 200,729 201,729 201,729 202,729 203,729 203,729 204,729 205,729 205,729 207,729 207,729 209,729 209,728 211,728 211,728 212,728 214,728 215,728 215,728 216,728 217,728 218,728 219,728 219,727 220,727 221,727 221,727 223,727 223,727 225,727 226,727 227,727 227,727 228,727 229,727 229,726 230,726 231,726 231,726 232,726 233,726 233,726 235,726 235,726 236,726 237,726 237,725 238,725 239,725 239,725 240,725 241,725 241,725 242,725 243,725 243,725 244,725 245,725 246,724 247,724 247,724 248,724 249,724 250,724 251,724 252,724 253,724 254,724 255,724 255,724 256,724 257,724 257,723 259,723 259,723 260,723 261,723 261,723 262,723 265,723 265,723 266,723 267,723 267,723 268,722 269,722 269,722 270,722 271,722 273,722 273,722 274,722 275,722 275,722 276,722 277,722 278,722 279,722 279,722 280,722 281,722 282,722 283,722 283,722 284,721 286,721 287,721 288,721 289,721 290,720 290,720 291,720 292,720 292,720 293,720 294,720 294,720 295,720 296,720 296,720 298,720 298,720 299,720 300,720 300,720 301,720 302,720 302,720 303,720 304,720 304,720 305,720 306,720 306,720 307,719 308,719 308,719 309,719 310,719 310,719 311,719 312,719 312,719 313,719 314,719 314,719 315,719 316,719 316,719 317,719 318,719 318,718 319,718 320,718 320,718 322,718 322,718 323,718 324,718 325,718 326,718 327,718 328,717 328,717 329,717 330,717 330,717 331,717 332,717 333,717 334,716 334,716 335,716 336,716 336,716 337,716 338,716 339,716 340,716 340,716 341,716 342,716 342,716 343,715 344,715 344,715 345,715 346,715 346,715 347,715 348,715 348,715 349,715 350,715 350,715 352,715 352,715 353,715 354,715 354,715 355,715 356,715 357,715 358,715 358,714 359,714 360,714 360,714 361,714 362,714 362,714 363,714 364,714 364,713 365,713 366,713 366,713 367,713 368,712 368,712 369,712 370,712 370,712 371,712 372,712 372,712 373,712 374,712 374,712 375,712 376,712 376,712 377,712 378,711 378,711 379,711 380,711 381,711 382,711 382,711 383,711 384,710 384,710 385,710 386,710 386,709 387,709 388,709 388,709 389,709 390,709 390,709 391,709 392,709 392,708 393,708 394,708 394,709 395,708 396,708 396,708 397,708 398,708 399,708 399,708 400,708 401,708 401,708 402,707 403,707 403,707 404,707 405,707 405,707 406,707 407,707 407,707 408,707 409,707 409,707 410,707 411,706 411,706 413,706 413,706 414,706 415,706 415,706 416,706 417,706 418,706 419,705 419,705 420,705 421,705 421,705 422,705 423,705 423,705 424,705 425,705 425,705 426,705 427,705 427,705 428,705 429,705 429,705 430,705 431,705 431,705 432,705 433,705 433,705 434,704 435,704 435,704 436,704 437,704 437,704 438,704 439,704 439,704 440,704 441,704 441,704 442,704 443,704 443,704 444,704 445,704 445,704 446,703 447,703 447,703 448,703 449,703 449,703 450,703 451,703 451,703 452,703 453,703 453,702 454,702 455,702 455,702 456,702 457,702 457,702 458,702 459,702 459,702 460,702 461,702 461,702 462,702 463,702 463,702 464,702 465,702 465,702 466,701 467,701 467,701 468,701 469,701 469,701 470,701 471,701 471,700 472,700 473,700 473,700 474,700 475,700 475,700 476,700 477,699 477,699 478,699 479,699 479,699 480,698 481,698 481,698 482,698 483,698 483,698 484,698 485,698 485,698 486,698 487,698 487,698 488,698 489,698 490,698 491,698 491,698 492,698 493,698 493,698 494,698 495,698 495,698 496,698 497,698 497,698 498,698 499,698 499,698 500,698 501,698 501,698 502,698 503,698 503,698 504,698 505,698 505,698 506,698 507,698 507,698 508,698 509,697 509,697 510,697 511,697 512,697 512,697 513,696 514,696 514,696 515,696 516,696 516,696 517,696 518,696 518,696 519,696 520,696 520,696 521,696 522,696 522,696 523,696 524,696 524,696 525,696 526,696 526,696 527,696 528,695 528,695 529,695 530,695 530,695 531,695 532,695 532,695 533,695 534,695 534,695 535,695 536,695 536,695 537,695 538,695 538,695 539,695 540,695 540,695 541,695 542,695 542,695 543,695 544,695 544,695 545,695 546,695 546,695 547,695 548,695 548,695 549,694 550,694 550,694 551,694 552,694 553,693 554,693 554,693 555,693 556,693 556,693 557,693 558,693 558,693 559,693 560,693 561,693 562,693 562,693 563,693 564,693 564,693 565,692 566,692 566,692 567,692 568,692 568,692 569,692 570,692 570,692 571,692 572,692 572,691 573,691 574,691 574,691 575,691 576,691 576,691 577,691 578,691 578,691 579,690 580,690 580,690 581,690 582,690 582,690 583,690 584,690 584,690 585,690 586,690 586,690 587,690 588,690 588,690 589,689 590,689 590,689 591,689 592,689 592,689 593,689 594,690 594,690 595,690 596,690 596,690 597,690 598,690 598,690 599,690 600,690 600,690 601,690 602,690 602,690 603,689 604,689 604,689 605,690 606,690 606,690 607,690 608,690 608,690 609,690 610,690 610,690 611,690 612,690 613,690 614,690 614,690 615,690 616,690 616,690 617,690 618,690 618,690 620,690 620,690 621,690 622,690 622,690 623,690 624,690 625,689 626,689 627,689 627,689 628,689 629,689 629,689 630,689 631,689 631,689 632,689 633,689 633,689 634,689 635,689 635,689 636,689 637,689 637,689 638,689 639,688 639,688 640,688 641,687 641,687 642,687 643,687 643,687 644,687 645,687 645,687 646,687 647,687 647,687 648,687 649,687 649,686 650,686 651,686 651,686 652,685 653,685 653,685 654,685 655,685 655,685 656,684 657,684 657,684 658,684 659,684 659,684 660,684 661,684 661,684 662,684 663,684 663,684 664,684 665,685 665,685 666,685 667,685 667,684 668,684 669,684 669,684 670,684 671,684 671,684 672,684 673,684 673,684 674,684 675,684 675,684 676,684 677,684 677,684 678,684 679,684 679,684 680,684 681,684 681,684 682,683 683,683 683,683 684,683 685,683 685,683 686,683 687,683 687,683 688,683 689,682 689,682 690,682 691,682 691,682 692,682 693,682 693,682 694,682 695,682 695,682 696,681 697,681 697,681 698,681 699,681 699,682 700,682 701,682 701,682 702,682 703,682 703,682 704,682 705,682 705,682 706,682 707,682 707,682 708,682 709,682 709,682 710,682 711,682 711,682 712,682 713,682 713,682 714,682 715,681 715,681 716,681 717,681 717,681 718,681 719,681 719,681 720,681 721,681 721,681 722,681 723,681 723,681 724,681 725,681 725,681 726,681 727,681 727,680 728,680 729,680 729,680 730,680 731,680 731,680 732,680 733,680 733,680 734,680 735,680 735,680 736,680 737,680 738,680 738,680 739,680 740,680 740,680 741,680 742,680 743,680 744,680 744,680 745,680 746,680 746,680 747,680 748,680 748,680 749,680 750,680 750,680 751,680 752,680 752,680 753,680 754,680 754,680 755,680 756,679 756,679 757,679 758,679 758,679 759,679 760,679 760,679 761,679 762,679 762,679 763,679 764,679 764,679 765,679 766,679 766,679 767,679 768,679 768,679 769,679 770,679 770,679 771,679 772,678 772,678 773,678 774,678 774,678 775,678 776,678 776,678 777,678 778,678 778,678 779,678 780,678 780,678 781,677 782,677 782,677 783,677 784,677 784,677 785,677 786,677 786,677 787,677 788,677 788,677 789,677 790,677 790,677 791,677 792,677 792,677 793,677 794,677 794,677 794,677 795,677 796,677 796,677 797,677 798,677 798,677 799,677 800,677 800,677 801,677 802,677 802,677 803,677 804,677 804,677 805,677 806,677 806,677 807,677 808,677 808,677 809,677 810,677 810,677 811,677 812,677 812,677 813,677 814,677 814,677 815,677 816,677 816,677 817,677 818,677 818,677 819,677 820,677 820,677 821,677 822,677 822,677 823,676 824,676 824,676 825,676 826,676 826,676 827,676 828,676 828,676 829,676 830,676 830,676 831,676 832,676 832,676 833,676 834,676 834,676 835,676 836,676 836,676 837,676 838,676 838,676 839,676 840,676 840,676 841,676 842,676 842,676 843,676 844,676 844,676 845,676 846,676 846,676 847,676 848,676 848,676 849,676 850,676 851,676 851,676 852,676 853,676 853,676 854,676 855,676 855,676 856,676 857,676 857,676 858,676 859,676 859,675 860,675 861,675 861,675 862,675 863,675 863,675 864,675 865,675 865,675 866,675 867,675 867,675 868,675 869,675 869,675 870,675 871,675 871,675 872,675 873,675 873,675 874,676 875,676 875,676 876,676 877,676 877,676 878,676 879,676 879,676 880,676 881,676 881,676 882,676 883,676 883,676 884,676 885,676 885,676 886,676 887,676 887,676 888,675 889,675 889,675 890,676 891,676 891,676 892,676 893,676 893,676 894,676 895,676 895,676 896,675 897,675 897,675 898,675 899,675 899,675 900,675 901,675 901,675 902,675 903,675 903,674 904,674 905,673 905,673 906,673 907,673 907,673 908,672 909,672 909,672 910,673 911,673 911,673 912,673 913,673 913,673 914,673 915,673 915,673 916,673 917,673 917,673 918,673 919,673 919,673 920,673 921,672 921,672 922,672 923,672 923,672 924,672 925,672 925,672 926,672 927,672 927,672 928,672 929,672 929,672 930,672 931,672 931,672 932,672 933,672 933,672 934,672 935,672 935,672 936,672 937,672 937,672 938,672 939,672 939,672 940,671 941,671 941,671 942,671 943,671 943,671 944,671 945,671 945,671 946,671 947,670 947,670 948,670 949,670 949,670 950,670 951,670 951,670 952,670 953,670 953,670 954,670 955,670 955,670 956,670 957,670 957,670 958,670 959,670 959,670 960,670 961,670 961,670 962,669 963,669 964,669 964,669 965,669 966,669 966,669 967,669 968,669 968,669 969,669 970,669 970,669 971,669 972,669 972,669 973,669 974,669 974,669 975,670 976,670 976,670 977,670 978,670 978,670 979,670 980,670 980,670 981,670 982,670 982,670 983,670 984,669 984,669 985,667 986,667 986,667 987,667 988,667 988,666 989,666 990,666 990,666 991,666 992,665 992,665 993,665 994,665 994,665 995,665 996,665 996,665 997,664 998,664 998,664 999,664 1000,664 1000,664 1001,664 1002,664 1002,664 1003,664 1004,664 1004,664 1005,664 1006,664 1006,664 1007,664 1008,664 1008,664 1009,664 1010,664 1010,664 1011,664 1012,664 1012,664 1013,664 1014,664 1014,664 1015,663 1016,663 1016,663 1017,663 1018,663 1018,663 1019,663 1020,663 1020,662 1021,662 1022,662 1022,662 1023,662 1024,662 1024,662 1025,662 1026,662 1026,662 1027,662 1028,662 1028,662 1029,662 1030,662 1030,662 1031,662 1032,662 1032,662 1033,662 1034,662 1034,662 1035,662 1036,662 1036,662 1037,662 1038,662 1038,663 1039,663 1040,663 1040,663 1041,663 1042,663 1042,663 1043,663 1044,663 1044,663 1045,663 1046,663 1046,663 1047,663 1048,663 1048,663 1049,663 1050,663 1050,663 1051,663 1052,663 1052,663 1052,663 1053,663 1054,663 1054,663 1055,662 1056,662 1056,662 1057,662 1058,662 1058,662 1059,662 1060,662 1060,662 1061,662 1062,662 1062,662 1063,663 1064,662 1064,662 1065,662 1066,662 1066,662 1067,662 1068,662 1068,662 1069,662 1070,662 1070,662 1071,662 1072,662 1072,662 1073,662 1074,662 1074,662 1075,662 1076,662 1077,662 1077,662 1078,662 1079,662 1079,662 1080,662 1081,662 1081,662 1082,662 1083,662 1083,662 1084,662 1085,662 1085,662 1086,662 1087,662 1087,662 1088,662 1089,662 1089,662 1090,662 1091,662 1091,662 1092,662 1093,662 1093,662 1094,662 1095,662 1095,662 1096,662 1097,662 1097,662 1098,662 1099,662 1099,662 1100,662 1101,662 1101,662 1102,662 1103,662 1103,662 1104,662 1105,662 1105,662 1106,662 1107,662 1107,662 1108,662 1109,662 1109,662 1110,662 1111,662 1111,662 1112,662 1113,662 1113,662 1114,662 1115,662 1115,662 1116,662 1117,662 1117,662 1118,662 1119,662 1119,662 1120,662 1121,662 1121,662 1122,662 1123,662 1123,662 1124,662 1125,662 1125,662 1126,662 1127,662 1127,662 1128,662 1129,662 1129,662 1130,662 1131,662 1131,662 1132,662 1133,662 1133,662 1134,662 1135,662 1135,662 1136,662 1137,662 1137,662 1138,662 1139,662 1139,662 1140,662 1141,662 1141,662 1142,662 1143,662 1143,662 1144,663 1145,663 1145,663 1146,663 1146,663 1147,663 1147,663 1147,663 1148,663 1148,663 1149,663 1149,663 1149,663 1150,663 1150,663 1151,663 1151,663 1151,663 1151,663 1152,663 1152,663 1153,663 1153,663 1153,663 1153,663 1154,663 1154,663 1155,663 1155,663 1155,663 1155,662 1156,662 1156,662 1157,662 1157,662 1158,662 1159,662 1159,662 1159,662 1159,662 1160,662 1160,662 1161,662 1161,662 1161,662 1161,662 1162,662 1162,662 1163,662 1163,662 1163,662 1164,662 1164,662 1165,662 1165,662 1165,662 1165,662 1166,662 1166,662 1167,662 1167,662 1167,662 1167,662 1168,662 1168,662 1169,662 1169,662 1169,662 1170,662 1170,662 1171,662 1171,662 1171,662 1171,662 1172,662 1172,662 1173,662 1173,661 1173,661 1173,661 1174,661 1174,661 1175,661 1175,661 1175,661 1175,661 1176,661 1176,661 1177,661 1177,661 1177,661 1178,661 1179,661 1179,661 1179,661 1179,661 1180,661 1180,660 1181,660 1181,660 1181,660 1181,660 1182,660 1182,660 1183,660 1183,660 1183,660 1183,660 1184,660 1184,660 1185,660 1185,660 1185,660 1186,660 1186,660 1187,660 1187,660 1187,660 1187,660 1188,660 1188,660 1189,660 1190,660 "/>
<polyline fill="none" opacity="1" stroke="#5419E6" stroke-width="2" points="942,738 943,738 947,738 953,737 955,737 959,737 961,736 962,736 963,734 964,733 966,733 967,733 972,733 974,733 974,733 976,733 976,733 984,733 989,732 990,732 991,731 993,731 996,731 998,730 998,729 999,729 1000,729 1000,729 1003,729 1004,729 1004,729 1007,729 1008,728 1008,728 1009,727 1012,727 1013,727 1014,727 1014,726 1016,726 1018,726 1018,726 1019,726 1020,726 1022,726 1024,726 1025,725 1026,725 1027,725 1028,725 1029,725 1030,725 1030,725 1031,725 1032,725 1034,725 1034,725 1035,724 1036,724 1037,724 1038,724 1038,723 1039,723 1040,723 1040,723 1041,723 1042,723 1042,723 1043,723 1044,723 1045,723 1046,723 1046,723 1047,723 1048,722 1049,723 1050,723 1051,723 1052,723 1052,723 1052,722 1053,722 1054,722 1054,722 1055,721 1056,721 1056,720 1058,720 1058,719 1060,719 1060,719 1061,719 1062,719 1062,719 1063,719 1064,719 1066,718 1066,718 1067,717 1068,717 1068,717 1069,716 1070,716 1070,716 1072,716 1072,716 1073,715 1074,715 1074,715 1075,715 1076,715 1077,714 1078,714 1079,715 1081,714 1081,714 1082,714 1083,714 1085,714 1085,714 1086,714 1087,714 1088,714 1089,714 1091,714 1091,713 1093,713 1094,713 1095,713 1095,713 1096,713 1097,712 1097,712 1098,712 1099,712 1099,712 1100,712 1101,711 1101,711 1102,711 1103,711 1103,711 1104,711 1105,711 1105,711 1106,711 1107,711 1107,711 1108,710 1109,710 1109,710 1110,710 1111,710 1112,710 1113,710 1113,710 1114,709 1115,709 1115,709 1116,709 1117,708 1117,708 1119,708 1119,708 1120,708 1121,708 1121,708 1122,708 1123,708 1123,708 1124,707 1125,707 1125,707 1126,707 1127,707 1127,707 1128,707 1129,707 1129,707 1130,707 1131,706 1131,706 1132,706 1133,706 1133,706 1134,706 1135,706 1135,706 1136,706 1137,706 1137,706 1138,705 1139,705 1139,705 1141,705 1141,705 1142,705 1143,705 1143,705 1144,705 1145,705 1145,705 1146,705 1146,705 1147,705 1147,705 1147,705 1148,705 1148,705 1149,705 1149,705 1149,705 1150,705 1150,705 1151,705 1151,705 1151,705 1151,705 1152,705 1152,704 1153,704 1153,704 1153,704 1153,704 1154,704 1154,704 1155,704 1155,704 1155,704 1155,704 1156,704 1156,704 1157,704 1157,704 1157,703 1158,703 1159,703 1159,703 1159,703 1159,703 1160,703 1160,703 1161,703 1161,702 1161,702 1161,703 1162,703 1162,703 1163,702 1163,702 1163,702 1164,702 1164,702 1165,702 1165,702 1165,702 1165,702 1166,702 1166,702 1167,702 1167,702 1167,702 1167,702 1168,702 1168,702 1169,702 1169,702 1170,702 1170,702 1171,702 1171,702 1171,702 1171,702 1172,702 1172,702 1173,702 1173,702 1173,702 1173,702 1174,702 1174,702 1175,702 1175,702 1175,702 1175,702 1176,702 1176,702 1177,702 1177,702 1178,702 1179,702 1179,702 1179,702 1179,702 1180,702 1180,702 1181,702 1181,701 1181,701 1181,701 1182,701 1182,701 1183,701 1183,701 1183,701 1183,701 1184,701 1185,701 1185,701 1185,701 1186,701 1186,701 1187,701 1187,701 1187,701 1187,701 1188,701 1188,700 1189,700 1190,700 "/>
<polyline fill="none" opacity="1" stroke="#E619C8" stroke-width="2" points="1046,738 1047,737 1048,737 1048,737 1049,736 1050,735 1051,735 1052,735 1052,735 1052,735 1053,735 1054,734 1054,734 1055,734 1056,734 1056,734 1057,734 1058,733 1058,733 1059,732 1060,732 1060,731 1062,731 1062,730 1063,729 1064,728 1064,728 1065,727 1066,726 1066,725 1067,725 1068,725 1068,724 1069,724 1070,724 1070,724 1071,721 1072,720 1072,719 1073,718 1074,717 1074,717 1075,717 1076,717 1077,717 1077,716 1078,716 1079,715 1079,715 1080,715 1081,715 1081,715 1082,715 1083,714 1083,714 1084,714 1085,713 1085,712 1086,713 1087,712 1087,711 1088,711 1089,710 1089,709 1090,707 1091,707 1091,707 1092,707 1093,707 1093,707 1094,707 1095,704 1095,703 1096,703 1097,701 1097,700 1098,700 1099,699 1099,698 1100,698 1101,698 1101,697 1102,697 1103,696 1103,695 1104,695 1105,694 1105,693 1106,691 1107,690 1107,689 1108,689 1109,688 1109,687 1110,687 1111,686 1111,686 1112,683 1113,682 1113,681 1114,680 1115,680 1115,679 1116,679 1117,679 1117,678 1118,676 1119,675 1119,674 1120,673 1121,672 1121,671 1122,670 1123,670 1123,670 1124,669 1125,669 1125,669 1126,668 1127,667 1127,666 1128,666 1129,665 1129,665 1130,665 1131,664 1131,664 1132,662 1133,662 1133,661 1134,662 1135,660 1135,659 1136,658 1137,657 1137,657 1138,657 1139,657 1139,655 1140,654 1141,654 1141,653 1142,652 1143,650 1143,649 1144,647 1145,647 1145,646 1146,646 1146,645 1147,645 1147,645 1147,644 1148,644 1148,643 1149,643 1149,642 1149,641 1150,641 1150,640 1151,640 1151,637 1151,637 1151,636 1152,636 1152,635 1153,635 1153,633 1153,633 1153,632 1154,632 1154,631 1155,631 1155,631 1155,631 1155,630 1156,630 1156,629 1157,627 1157,627 1157,627 1158,626 1159,626 1159,626 1159,626 1159,625 1160,625 1160,624 1161,624 1161,624 1161,624 1161,623 1162,623 1162,623 1163,622 1163,622 1163,622 1164,622 1164,620 1165,620 1165,619 1165,619 1165,618 1166,618 1166,617 1167,617 1167,617 1167,617 1167,616 1168,616 1168,613 1169,613 1169,611 1169,608 1170,608 1170,606 1171,606 1171,604 1171,604 1171,604 1172,604 1172,603 1173,603 1173,600 1173,600 1173,599 1174,599 1174,598 1175,598 1175,597 1175,597 1175,596 1176,596 1176,595 1177,595 1177,593 1177,593 1178,592 1179,592 1179,590 1179,590 1179,588 1180,588 1180,587 1181,587 1181,587 1181,587 1181,586 1182,586 1182,585 1183,585 1183,584 1183,584 1183,582 1184,582 1184,580 1185,578 1185,578 1185,578 1186,578 1186,576 1187,576 1187,573 1187,573 1187,572 1188,572 1188,571 1189,570 1190,570 "/>
<rect x="1078" y="315" width="107" height="119" opacity="1" fill="#FFFFFF" stroke="none"/>
<rect x="1078" y="315" width="107" height="119" opacity="1" fill="none" stroke="#000000"/>
<text x="1118" y="325" dy="0.76em" text-anchor="start" font-family="sans-serif" font-size="9.67741935483871" opacity="1" fill="#000000">
anyhow
</text>
<text x="1118" y="340" dy="0.76em" text-anchor="start" font-family="sans-serif" font-size="9.67741935483871" opacity="1" fill="#000000">
err-derive
</text>
<text x="1118" y="355" dy="0.76em" text-anchor="start" font-family="sans-serif" font-size="9.67741935483871" opacity="1" fill="#000000">
error-chain
</text>
<text x="1118" y="370" dy="0.76em" text-anchor="start" font-family="sans-serif" font-size="9.67741935483871" opacity="1" fill="#000000">
failure
</text>
<text x="1118" y="385" dy="0.76em" text-anchor="start" font-family="sans-serif" font-size="9.67741935483871" opacity="1" fill="#000000">
quick-error
</text>
<text x="1118" y="400" dy="0.76em" text-anchor="start" font-family="sans-serif" font-size="9.67741935483871" opacity="1" fill="#000000">
snafu
</text>
<text x="1118" y="415" dy="0.76em" text-anchor="start" font-family="sans-serif" font-size="9.67741935483871" opacity="1" fill="#000000">
thiserror
</text>
<polyline fill="none" opacity="1" stroke="#E61919" stroke-width="2" points="1088,330 1108,330 "/>
<polyline fill="none" opacity="1" stroke="#E6C819" stroke-width="2" points="1088,344 1108,344 "/>
<polyline fill="none" opacity="1" stroke="#54E619" stroke-width="2" points="1088,359 1108,359 "/>
<polyline fill="none" opacity="1" stroke="#19E68E" stroke-width="2" points="1088,374 1108,374 "/>
<polyline fill="none" opacity="1" stroke="#198EE6" stroke-width="2" points="1088,390 1108,390 "/>
<polyline fill="none" opacity="1" stroke="#5419E6" stroke-width="2" points="1088,404 1108,404 "/>
<polyline fill="none" opacity="1" stroke="#E619C8" stroke-width="2" points="1088,419 1108,419 "/>
</svg>
