<svg width="1200" height="800" viewBox="0 0 1200 800" xmlns="http://www.w3.org/2000/svg">
<rect x="0" y="0" width="1199" height="799" opacity="1" fill="#FFFFFF" stroke="none"/>
<line opacity="0.1" stroke="#000000" stroke-width="1" x1="60" y1="728" x2="1190" y2="728"/>
<line opacity="0.1" stroke="#000000" stroke-width="1" x1="60" y1="718" x2="1190" y2="718"/>
<line opacity="0.1" stroke="#000000" stroke-width="1" x1="60" y1="707" x2="1190" y2="707"/>
<line opacity="0.1" stroke="#000000" stroke-width="1" x1="60" y1="697" x2="1190" y2="697"/>
<line opacity="0.1" stroke="#000000" stroke-width="1" x1="60" y1="686" x2="1190" y2="686"/>
<line opacity="0.1" stroke="#000000" stroke-width="1" x1="60" y1="676" x2="1190" y2="676"/>
<line opacity="0.1" stroke="#000000" stroke-width="1" x1="60" y1="666" x2="1190" y2="666"/>
<line opacity="0.1" stroke="#000000" stroke-width="1" x1="60" y1="655" x2="1190" y2="655"/>
<line opacity="0.1" stroke="#000000" stroke-width="1" x1="60" y1="645" x2="1190" y2="645"/>
<line opacity="0.1" stroke="#000000" stroke-width="1" x1="60" y1="634" x2="1190" y2="634"/>
<line opacity="0.1" stroke="#000000" stroke-width="1" x1="60" y1="624" x2="1190" y2="624"/>
<line opacity="0.1" stroke="#000000" stroke-width="1" x1="60" y1="613" x2="1190" y2="613"/>
<line opacity="0.1" stroke="#000000" stroke-width="1" x1="60" y1="603" x2="1190" y2="603"/>
<line opacity="0.1" stroke="#000000" stroke-width="1" x1="60" y1="592" x2="1190" y2="592"/>
<line opacity="0.1" stroke="#000000" stroke-width="1" x1="60" y1="582" x2="1190" y2="582"/>
<line opacity="0.1" stroke="#000000" stroke-width="1" x1="60" y1="571" x2="1190" y2="571"/>
<line opacity="0.1" stroke="#000000" stroke-width="1" x1="60" y1="561" x2="1190" y2="561"/>
<line opacity="0.1" stroke="#000000" stroke-width="1" x1="60" y1="550" x2="1190" y2="550"/>
<line opacity="0.1" stroke="#000000" stroke-width="1" x1="60" y1="540" x2="1190" y2="540"/>
<line opacity="0.1" stroke="#000000" stroke-width="1" x1="60" y1="530" x2="1190" y2="530"/>
<line opacity="0.1" stroke="#000000" stroke-width="1" x1="60" y1="519" x2="1190" y2="519"/>
<line opacity="0.1" stroke="#000000" stroke-width="1" x1="60" y1="509" x2="1190" y2="509"/>
<line opacity="0.1" stroke="#000000" stroke-width="1" x1="60" y1="498" x2="1190" y2="498"/>
<line opacity="0.1" stroke="#000000" stroke-width="1" x1="60" y1="488" x2="1190" y2="488"/>
<line opacity="0.1" stroke="#000000" stroke-width="1" x1="60" y1="477" x2="1190" y2="477"/>
<line opacity="0.1" stroke="#000000" stroke-width="1" x1="60" y1="467" x2="1190" y2="467"/>
<line opacity="0.1" stroke="#000000" stroke-width="1" x1="60" y1="456" x2="1190" y2="456"/>
<line opacity="0.1" stroke="#000000" stroke-width="1" x1="60" y1="446" x2="1190" y2="446"/>
<line opacity="0.1" stroke="#000000" stroke-width="1" x1="60" y1="435" x2="1190" y2="435"/>
<line opacity="0.1" stroke="#000000" stroke-width="1" x1="60" y1="425" x2="1190" y2="425"/>
<line opacity="0.1" stroke="#000000" stroke-width="1" x1="60" y1="414" x2="1190" y2="414"/>
<line opacity="0.1" stroke="#000000" stroke-width="1" x1="60" y1="404" x2="1190" y2="404"/>
<line opacity="0.1" stroke="#000000" stroke-width="1" x1="60" y1="393" x2="1190" y2="393"/>
<line opacity="0.1" stroke="#000000" stroke-width="1" x1="60" y1="383" x2="1190" y2="383"/>
<line opacity="0.1" stroke="#000000" stroke-width="1" x1="60" y1="373" x2="1190" y2="373"/>
<line opacity="0.1" stroke="#000000" stroke-width="1" x1="60" y1="362" x2="1190" y2="362"/>
<line opacity="0.1" stroke="#000000" stroke-width="1" x1="60" y1="352" x2="1190" y2="352"/>
<line opacity="0.1" stroke="#000000" stroke-width="1" x1="60" y1="341" x2="1190" y2="341"/>
<line opacity="0.1" stroke="#000000" stroke-width="1" x1="60" y1="331" x2="1190" y2="331"/>
<line opacity="0.1" stroke="#000000" stroke-width="1" x1="60" y1="320" x2="1190" y2="320"/>
<line opacity="0.1" stroke="#000000" stroke-width="1" x1="60" y1="310" x2="1190" y2="310"/>
<line opacity="0.1" stroke="#000000" stroke-width="1" x1="60" y1="299" x2="1190" y2="299"/>
<line opacity="0.1" stroke="#000000" stroke-width="1" x1="60" y1="289" x2="1190" y2="289"/>
<line opacity="0.1" stroke="#000000" stroke-width="1" x1="60" y1="278" x2="1190" y2="278"/>
<line opacity="0.1" stroke="#000000" stroke-width="1" x1="60" y1="268" x2="1190" y2="268"/>
<line opacity="0.1" stroke="#000000" stroke-width="1" x1="60" y1="257" x2="1190" y2="257"/>
<line opacity="0.1" stroke="#000000" stroke-width="1" x1="60" y1="247" x2="1190" y2="247"/>
<line opacity="0.1" stroke="#000000" stroke-width="1" x1="60" y1="236" x2="1190" y2="236"/>
<line opacity="0.1" stroke="#000000" stroke-width="1" x1="60" y1="226" x2="1190" y2="226"/>
<line opacity="0.1" stroke="#000000" stroke-width="1" x1="60" y1="216" x2="1190" y2="216"/>
<line opacity="0.1" stroke="#000000" stroke-width="1" x1="60" y1="205" x2="1190" y2="205"/>
<line opacity="0.1" stroke="#000000" stroke-width="1" x1="60" y1="195" x2="1190" y2="195"/>
<line opacity="0.1" stroke="#000000" stroke-width="1" x1="60" y1="184" x2="1190" y2="184"/>
<line opacity="0.1" stroke="#000000" stroke-width="1" x1="60" y1="174" x2="1190" y2="174"/>
<line opacity="0.1" stroke="#000000" stroke-width="1" x1="60" y1="163" x2="1190" y2="163"/>
<line opacity="0.1" stroke="#000000" stroke-width="1" x1="60" y1="153" x2="1190" y2="153"/>
<line opacity="0.1" stroke="#000000" stroke-width="1" x1="60" y1="142" x2="1190" y2="142"/>
<line opacity="0.1" stroke="#000000" stroke-width="1" x1="60" y1="132" x2="1190" y2="132"/>
<line opacity="0.1" stroke="#000000" stroke-width="1" x1="60" y1="121" x2="1190" y2="121"/>
<line opacity="0.1" stroke="#000000" stroke-width="1" x1="60" y1="111" x2="1190" y2="111"/>
<line opacity="0.1" stroke="#000000" stroke-width="1" x1="60" y1="100" x2="1190" y2="100"/>
<line opacity="0.1" stroke="#000000" stroke-width="1" x1="60" y1="90" x2="1190" y2="90"/>
<line opacity="0.1" stroke="#000000" stroke-width="1" x1="60" y1="80" x2="1190" y2="80"/>
<line opacity="0.1" stroke="#000000" stroke-width="1" x1="60" y1="69" x2="1190" y2="69"/>
<line opacity="0.1" stroke="#000000" stroke-width="1" x1="60" y1="59" x2="1190" y2="59"/>
<line opacity="0.1" stroke="#000000" stroke-width="1" x1="60" y1="48" x2="1190" y2="48"/>
<line opacity="0.1" stroke="#000000" stroke-width="1" x1="60" y1="38" x2="1190" y2="38"/>
<line opacity="0.1" stroke="#000000" stroke-width="1" x1="60" y1="27" x2="1190" y2="27"/>
<line opacity="0.1" stroke="#000000" stroke-width="1" x1="60" y1="17" x2="1190" y2="17"/>
<text x="10" y="375" dy="0.76em" text-anchor="middle" font-family="sans-serif" font-size="9.67741935483871" opacity="1" fill="#000000" transform="rotate(270, 10, 375)">
Fraction of dependent crates
</text>
<line opacity="0.2" stroke="#000000" stroke-width="1" x1="60" y1="634" x2="1190" y2="634"/>
<line opacity="0.2" stroke="#000000" stroke-width="1" x1="60" y1="530" x2="1190" y2="530"/>
<line opacity="0.2" stroke="#000000" stroke-width="1" x1="60" y1="425" x2="1190" y2="425"/>
<line opacity="0.2" stroke="#000000" stroke-width="1" x1="60" y1="320" x2="1190" y2="320"/>
<line opacity="0.2" stroke="#000000" stroke-width="1" x1="60" y1="216" x2="1190" y2="216"/>
<polyline fill="none" opacity="1" stroke="#000000" stroke-width="1" points="59,10 59,740 "/>
<text x="50" y="634" dy="0.5ex" text-anchor="end" font-family="sans-serif" font-size="9.67741935483871" opacity="1" fill="#000000">
0.01
</text>
<polyline fill="none" opacity="1" stroke="#000000" stroke-width="1" points="54,634 59,634 "/>
<text x="50" y="530" dy="0.5ex" text-anchor="end" font-family="sans-serif" font-size="9.67741935483871" opacity="1" fill="#000000">
0.02
</text>
<polyline fill="none" opacity="1" stroke="#000000" stroke-width="1" points="54,530 59,530 "/>
<text x="50" y="425" dy="0.5ex" text-anchor="end" font-family="sans-serif" font-size="9.67741935483871" opacity="1" fill="#000000">
0.03
</text>
<polyline fill="none" opacity="1" stroke="#000000" stroke-width="1" points="54,425 59,425 "/>
<text x="50" y="320" dy="0.5ex" text-anchor="end" font-family="sans-serif" font-size="9.67741935483871" opacity="1" fill="#000000">
0.04
</text>
<polyline fill="none" opacity="1" stroke="#000000" stroke-width="1" points="54,320 59,320 "/>
<text x="50" y="216" dy="0.5ex" text-anchor="end" font-family="sans-serif" font-size="9.67741935483871" opacity="1" fill="#000000">
0.05
</text>
<polyline fill="none" opacity="1" stroke="#000000" stroke-width="1" points="54,216 59,216 "/>
<polyline fill="none" opacity="1" stroke="#000000" stroke-width="1" points="60,740 1190,740 "/>
<text x="60" y="750" dy="0.76em" text-anchor="middle" font-family="sans-serif" font-size="9.67741935483871" opacity="1" fill="#000000">
2015-09-24Z
</text>
<polyline fill="none" opacity="1" stroke="#000000" stroke-width="1" points="60,740 60,745 "/>
<text x="175" y="750" dy="0.76em" text-anchor="middle" font-family="sans-serif" font-size="9.67741935483871" opacity="1" fill="#000000">
2016-04-21Z
</text>
<polyline fill="none" opacity="1" stroke="#000000" stroke-width="1" points="175,740 175,745 "/>
<text x="291" y="750" dy="0.76em" text-anchor="middle" font-family="sans-serif" font-size="9.67741935483871" opacity="1" fill="#000000">
2016-11-17Z
</text>
<polyline fill="none" opacity="1" stroke="#000000" stroke-width="1" points="291,740 291,745 "/>
<text x="407" y="750" dy="0.76em" text-anchor="middle" font-family="sans-serif" font-size="9.67741935483871" opacity="1" fill="#000000">
2017-06-15Z
</text>
<polyline fill="none" opacity="1" stroke="#000000" stroke-width="1" points="407,740 407,745 "/>
<text x="523" y="750" dy="0.76em" text-anchor="middle" font-family="sans-serif" font-size="9.67741935483871" opacity="1" fill="#000000">
2018-01-11Z
</text>
<polyline fill="none" opacity="1" stroke="#000000" stroke-width="1" points="523,740 523,745 "/>
<text x="639" y="750" dy="0.76em" text-anchor="middle" font-family="sans-serif" font-size="9.67741935483871" opacity="1" fill="#000000">
2018-08-09Z
</text>
<polyline fill="none" opacity="1" stroke="#000000" stroke-width="1" points="639,740 639,745 "/>
<text x="755" y="750" dy="0.76em" text-anchor="middle" font-family="sans-serif" font-size="9.67741935483871" opacity="1" fill="#000000">
2019-03-07Z
</text>
<polyline fill="none" opacity="1" stroke="#000000" stroke-width="1" points="755,740 755,745 "/>
<text x="871" y="750" dy="0.76em" text-anchor="middle" font-family="sans-serif" font-size="9.67741935483871" opacity="1" fill="#000000">
2019-10-03Z
</text>
<polyline fill="none" opacity="1" stroke="#000000" stroke-width="1" points="871,740 871,745 "/>
<text x="987" y="750" dy="0.76em" text-anchor="middle" font-family="sans-serif" font-size="9.67741935483871" opacity="1" fill="#000000">
2020-04-30Z
</text>
<polyline fill="none" opacity="1" stroke="#000000" stroke-width="1" points="987,740 987,745 "/>
<text x="1103" y="750" dy="0.76em" text-anchor="middle" font-family="sans-serif" font-size="9.67741935483871" opacity="1" fill="#000000">
2020-11-26Z
</text>
<polyline fill="none" opacity="1" stroke="#000000" stroke-width="1" points="1103,740 1103,745 "/>
<polyline fill="none" opacity="1" stroke="#E61919" stroke-width="2" points="873,738 874,738 875,738 875,738 876,738 877,738 878,738 878,737 879,737 879,737 879,737 880,737 880,736 881,735 881,735 882,735 883,735 883,734 884,734 884,733 885,733 885,733 886,732 887,732 888,732 888,731 889,730 889,729 890,727 890,723 891,723 891,723 892,723 893,722 893,722 894,722 894,720 895,717 895,716 896,716 896,715 897,715 897,714 898,714 899,713 899,713 900,711 900,711 901,710 901,710 902,710 902,710 903,709 904,709 904,707 905,707 905,706 906,706 906,706 907,706 907,706 908,704 909,704 909,704 910,704 910,703 911,703 911,702 912,703 912,702 913,702 913,701 914,701 915,701 915,700 916,700 916,699 917,699 917,698 918,698 918,697 919,697 920,696 920,695 921,695 921,693 922,692 922,692 923,691 923,691 924,690 925,688 925,687 926,686 926,686 927,685 927,683 928,682 928,681 929,681 929,681 930,680 931,680 931,680 932,680 932,679 933,679 933,676 934,675 934,675 935,675 936,674 936,674 937,673 937,673 938,673 938,673 939,671 939,670 940,669 941,669 941,668 942,667 942,667 943,666 943,666 944,666 944,666 945,665 946,665 946,664 947,664 947,662 948,662 948,662 949,662 949,662 950,662 950,661 951,661 952,660 952,659 953,659 953,659 954,658 954,657 955,657 955,656 956,657 957,656 957,656 957,656 957,656 958,655 958,655 958,654 959,654 959,654 959,653 960,653 960,651 960,651 960,647 961,647 961,646 962,646 962,645 962,645 962,645 963,645 963,644 963,644 963,643 964,643 964,643 964,643 964,642 965,642 965,642 965,641 966,641 966,640 966,640 967,640 967,639 968,639 968,638 968,638 968,637 969,637 969,637 969,637 969,636 970,636 970,636 970,636 971,636 971,635 971,635 971,635 972,635 972,634 973,634 973,633 973,633 973,633 974,633 974,632 974,632 974,631 975,631 975,629 975,629 975,627 976,625 976,625 976,624 977,624 977,623 978,623 978,622 978,622 978,621 979,621 979,621 979,621 979,620 980,620 980,619 980,619 980,617 981,617 981,617 981,617 981,615 982,615 982,614 982,614 983,613 984,613 984,613 984,613 984,612 985,612 985,610 985,610 985,610 986,610 986,610 986,610 986,610 987,610 987,609 987,609 987,609 988,609 988,608 989,607 989,607 989,605 990,605 990,604 990,604 990,603 991,603 991,601 991,601 991,599 992,599 992,599 992,599 993,599 993,598 994,598 994,596 994,596 994,594 995,594 995,593 995,593 995,593 996,593 996,592 996,592 996,591 997,591 997,587 997,587 997,585 998,585 998,582 998,582 998,581 999,581 999,580 1000,580 1000,579 1000,579 1000,578 1001,578 1001,576 1001,576 1001,576 1002,576 1002,575 1002,574 1003,574 1003,572 1003,572 1003,570 1004,570 1004,569 1005,569 1005,567 1005,567 1005,567 1006,567 1006,566 1006,566 1006,565 1007,565 1007,564 1007,564 1007,562 1008,561 1008,561 1008,558 1009,558 1009,557 1010,557 1010,556 1010,556 1010,555 1011,555 1011,554 1011,552 1012,551 1012,551 1012,550 1013,549 1013,549 1013,549 1014,549 1014,548 1015,548 1015,547 1015,547 1015,546 1016,546 1016,545 1016,545 1016,545 1017,545 1017,544 1017,544 1017,544 1018,544 1018,544 1018,544 1018,543 1019,542 1019,542 1019,542 1020,542 1020,541 1021,541 1021,539 1021,539 1021,538 1022,538 1022,538 1022,538 1022,537 1023,537 1023,536 1023,536 1023,534 1024,534 1024,534 1024,534 1024,533 1025,533 1025,533 1026,533 1026,532 1026,532 1026,532 1027,532 1027,531 1027,531 1027,531 1028,530 1028,530 1028,529 1029,529 1029,529 1029,529 1029,528 1030,528 1030,528 1031,528 1031,527 1031,527 1031,527 1032,527 1032,525 1032,525 1033,525 1033,524 1033,524 1033,523 1034,523 1034,522 1034,522 1034,522 1035,522 1035,521 1035,521 1035,519 1036,519 1036,519 1037,519 1037,518 1037,518 1037,517 1038,517 1038,517 1038,517 1038,516 1039,516 1039,514 1039,514 1039,513 1040,513 1040,513 1040,513 1040,512 1041,512 1041,510 1042,510 1042,509 1042,509 1042,507 1043,507 1043,507 1043,506 1044,506 1044,504 1044,504 1044,503 1045,503 1045,501 1045,502 1045,501 1046,501 1046,498 1047,498 1047,498 1047,498 1047,496 1048,496 1048,496 1048,496 1048,494 1049,494 1049,493 1049,493 1049,493 1050,493 1050,492 1050,492 1050,492 1051,492 1051,490 1051,490 1051,489 1052,489 1052,489 1053,489 1053,489 1053,489 1053,487 1054,487 1054,486 1054,486 1054,485 1055,485 1055,483 1055,483 1055,481 1056,481 1056,476 1056,476 1056,474 1057,474 1057,474 1058,474 1058,473 1058,473 1059,473 1059,472 1059,472 1059,471 1060,469 1060,469 1060,469 1061,469 1061,468 1061,468 1061,467 1062,467 1062,465 1063,465 1063,465 1063,465 1063,463 1064,463 1064,462 1064,461 1064,461 1065,461 1065,458 1065,458 1065,458 1066,457 1066,457 1066,456 1067,456 1067,455 1068,455 1068,453 1068,453 1068,453 1069,453 1069,453 1069,453 1069,453 1070,453 1070,452 1070,452 1070,451 1071,451 1071,451 1071,451 1071,450 1072,450 1072,449 1072,449 1072,448 1073,448 1073,448 1074,448 1074,447 1074,447 1074,447 1075,447 1075,447 1075,447 1075,447 1076,447 1076,447 1076,447 1076,447 1077,447 1077,446 1077,446 1077,445 1078,445 1078,444 1079,444 1079,444 1079,444 1079,444 1080,444 1080,444 1080,444 1080,443 1081,443 1081,442 1081,442 1081,441 1082,441 1082,440 1082,440 1082,439 1083,439 1083,439 1084,439 1084,438 1084,438 1084,436 1085,436 1085,435 1085,435 1085,434 1086,434 1086,434 1086,434 1086,433 1087,433 1087,430 1087,430 1087,429 1088,429 1088,429 1088,429 1088,429 1089,429 1089,428 1090,428 1090,427 1090,427 1090,427 1091,427 1091,427 1091,427 1091,427 1092,425 1092,425 1092,423 1093,423 1093,422 1093,422 1093,421 1094,421 1094,420 1095,420 1095,418 1095,418 1095,418 1096,418 1096,418 1096,418 1096,417 1097,417 1097,417 1097,417 1097,416 1098,416 1098,417 1098,417 1098,416 1099,416 1099,415 1100,415 1100,415 1100,415 1100,414 1101,414 1101,414 1101,414 1101,413 1102,413 1102,412 1102,412 1102,423 1103,423 1103,423 1103,423 1104,423 1104,422 1104,422 1104,420 1105,420 1105,420 1106,419 1106,419 1106,419 1107,419 1107,418 1107,418 1107,418 1108,418 1108,417 1108,417 1108,417 1109,417 1109,416 1109,416 1109,416 1110,416 1110,416 1111,416 1111,415 1111,415 1111,414 1112,414 1112,414 1112,414 1112,414 1113,414 1113,414 1113,414 1113,414 1114,414 1114,414 1114,414 1114,413 1115,413 1115,413 1116,413 1116,413 1116,413 1116,413 1117,413 1117,412 1117,412 1117,412 1118,412 1118,412 1118,412 1118,412 1119,412 1119,412 1119,412 1119,411 1120,411 1120,410 1120,410 1120,408 1121,408 1121,407 1122,407 1122,406 1122,406 1122,405 1123,405 1123,404 1123,404 1123,403 1124,403 1124,400 1124,400 1124,398 1125,398 1125,397 1125,397 1126,397 1126,397 1127,397 1127,396 1127,396 1127,396 1128,396 1128,395 1128,395 1128,394 1129,394 1129,394 1129,394 1129,393 1130,393 1130,391 1130,391 1130,389 1131,389 1131,387 1132,387 1132,387 1132,387 1132,386 1133,386 1133,386 1133,386 1133,385 1134,385 1134,384 1134,384 1134,384 1135,384 1135,383 1135,383 1135,381 1136,381 1136,381 1137,381 1137,380 1137,380 1137,380 1138,380 1138,379 1138,379 1138,378 1139,378 1139,377 1139,377 1139,376 1140,376 1140,375 1140,375 1140,374 1141,374 1141,374 1141,374 1141,372 1142,372 1142,372 1143,371 1143,370 1143,370 1143,370 1144,370 1144,369 1144,369 1144,368 1145,368 1145,364 1145,364 1145,362 1146,362 1146,361 1146,361 1146,360 1147,360 1147,360 1148,360 1148,358 1148,358 1148,358 1149,358 1149,357 1149,357 1149,356 1150,356 1150,355 1150,355 1150,354 1151,354 1151,354 1151,354 1151,353 1152,353 1152,352 1153,352 1153,350 1153,350 1153,350 1154,350 1154,350 1154,350 1154,349 1155,349 1155,347 1155,346 1156,346 1156,346 1156,346 1156,343 1157,343 1157,341 1157,341 1157,340 1158,340 1158,340 1159,340 1159,340 1159,340 1159,340 1160,340 1160,339 1160,339 1160,339 1161,339 1161,339 1161,339 1161,339 1162,338 1162,339 1162,339 1162,339 1163,339 1163,339 1164,339 1164,338 1164,338 1164,337 1165,337 1165,336 1165,336 1165,336 1166,336 1166,335 1166,335 1166,335 1167,334 1167,334 1167,333 1168,333 1168,333 1169,333 1169,332 1169,332 1169,332 1170,332 1170,332 1170,332 1170,331 1171,331 1171,330 1171,330 1171,330 1172,330 1172,330 1172,330 1172,327 1173,328 1173,327 1173,327 1173,327 1174,327 1174,327 1175,327 1175,327 1175,327 1175,325 1176,325 1176,325 1176,324 1177,324 1177,324 1177,324 1177,323 1178,324 1178,322 1178,322 1178,322 1179,321 1180,321 1180,320 1180,320 1180,319 1181,319 1181,319 1181,319 1181,319 1182,319 1182,318 1182,318 1182,317 1183,317 1183,317 1183,317 1183,316 1184,316 1184,314 1185,314 1185,313 1185,313 1186,313 1186,312 1186,312 1186,312 1187,312 1187,311 1187,311 1187,311 1188,311 1188,311 1188,311 1188,310 1189,310 1189,310 1190,310 "/>
<polyline fill="none" opacity="1" stroke="#E6C819" stroke-width="2" points="718,738 724,738 728,737 730,736 750,736 755,736 768,735 769,734 771,734 773,734 775,733 776,733 777,733 778,733 778,733 779,733 782,733 783,733 783,733 784,732 786,732 787,732 787,732 788,732 788,732 789,732 790,732 790,732 791,732 791,732 792,731 793,731 794,732 795,732 796,732 797,732 798,732 798,732 799,732 800,732 800,732 801,732 802,732 803,732 804,732 804,732 805,731 805,731 806,731 807,731 809,731 809,731 810,731 811,730 811,730 812,730 812,730 813,730 814,729 814,729 815,729 815,729 816,729 816,729 817,729 817,729 818,729 819,729 819,728 820,728 820,728 821,728 821,728 822,729 822,729 823,729 824,729 824,729 825,729 826,729 826,728 827,728 827,727 828,727 828,728 829,728 830,728 830,728 831,728 831,728 832,728 833,728 833,728 834,727 835,727 835,727 836,727 837,727 837,727 838,727 838,727 839,727 840,727 840,727 841,727 841,727 842,727 842,727 843,727 843,727 844,727 844,727 845,727 846,727 846,727 847,727 847,727 848,727 849,727 849,727 850,727 851,727 851,727 852,726 852,726 853,726 853,725 854,725 854,725 855,725 856,725 856,725 857,725 857,725 858,725 858,725 859,725 859,725 860,725 860,725 861,725 862,725 862,725 863,725 863,725 864,725 864,725 865,725 865,725 866,725 867,725 868,725 868,725 869,725 870,724 870,724 871,724 872,723 873,723 873,723 874,723 874,723 875,723 875,723 876,724 877,724 878,723 878,723 879,723 879,723 879,723 880,723 880,723 881,723 881,723 882,723 883,723 884,723 884,723 885,723 885,724 886,724 886,724 887,724 888,724 888,724 889,724 889,724 890,724 890,724 891,724 891,723 892,723 893,723 893,723 894,723 895,723 895,723 896,723 896,723 897,724 897,724 898,724 899,724 899,724 900,724 900,724 901,724 901,724 902,724 902,724 903,724 904,724 905,724 905,724 906,724 906,724 907,723 907,724 908,724 909,724 909,724 910,724 910,724 911,724 911,724 912,724 912,724 913,724 913,724 914,724 915,724 916,724 916,724 917,724 917,724 918,724 918,724 919,724 920,724 920,724 921,724 921,724 922,724 922,724 923,724 924,724 925,724 925,724 926,724 926,724 927,724 927,724 928,724 928,724 929,724 929,724 930,724 931,724 931,724 932,724 932,724 933,724 933,724 934,724 934,724 935,724 936,724 936,724 937,724 937,724 938,724 938,724 939,724 939,723 940,723 941,723 941,722 942,722 942,722 943,722 943,722 944,722 944,723 945,723 946,723 946,722 947,722 947,722 948,722 948,722 949,722 949,722 950,722 951,722 952,722 952,722 953,722 953,722 954,722 954,722 955,722 955,722 956,722 957,722 957,722 957,722 957,722 958,722 958,722 958,722 959,722 959,722 959,722 960,722 960,722 960,722 960,722 961,722 961,723 962,723 962,723 962,723 962,723 963,723 963,723 963,723 963,723 964,723 964,723 964,723 964,723 965,723 965,722 965,722 966,722 966,722 966,722 967,722 967,722 968,722 968,722 968,722 968,722 969,722 969,722 969,722 969,722 970,722 970,722 970,722 971,722 971,722 971,722 971,722 972,722 972,722 973,722 973,722 973,722 973,722 974,722 974,722 974,722 974,722 975,722 975,722 975,722 975,722 976,722 976,722 976,722 977,722 977,722 978,722 978,722 978,722 978,722 979,722 979,722 979,722 979,722 980,722 980,722 980,722 980,722 981,722 981,722 981,722 981,722 982,722 982,722 982,722 983,722 984,722 984,722 984,722 984,722 985,722 985,722 985,722 985,722 986,722 986,722 986,722 986,722 987,722 987,722 987,722 987,722 988,722 988,722 989,722 989,722 989,722 990,722 990,722 990,722 990,722 991,722 991,722 991,722 992,722 992,722 992,722 993,722 993,722 994,722 994,722 994,722 994,722 995,722 995,722 995,722 995,722 996,722 996,722 996,722 996,722 997,722 997,722 997,722 997,722 998,722 998,722 998,722 998,722 999,722 999,722 1000,722 1000,722 1000,722 1000,722 1001,722 1001,722 1001,722 1001,722 1002,722 1002,722 1002,722 1003,722 1003,722 1003,722 1003,722 1004,722 1004,722 1005,722 1005,722 1005,722 1005,722 1006,722 1006,722 1006,722 1006,722 1007,722 1007,722 1007,722 1007,722 1008,723 1008,723 1008,723 1009,723 1009,723 1010,723 1010,723 1010,723 1010,723 1011,723 1011,723 1011,723 1012,723 1012,723 1012,723 1013,723 1013,723 1013,723 1014,723 1014,723 1015,723 1015,723 1015,723 1015,723 1016,723 1016,723 1016,723 1016,723 1017,723 1017,723 1017,723 1017,723 1018,723 1018,723 1018,723 1018,723 1019,723 1019,723 1019,723 1020,723 1020,723 1021,723 1021,723 1021,723 1021,723 1022,723 1022,723 1022,723 1022,723 1023,723 1023,723 1023,723 1023,723 1024,723 1024,723 1024,723 1024,723 1025,723 1025,723 1026,723 1026,723 1026,723 1026,723 1027,723 1027,723 1027,723 1027,723 1028,723 1028,723 1028,723 1029,723 1029,723 1029,723 1029,723 1030,723 1030,723 1031,723 1031,723 1031,723 1032,723 1032,723 1032,723 1033,723 1033,723 1033,723 1033,723 1034,723 1034,723 1034,723 1034,723 1035,723 1035,723 1035,723 1035,723 1036,723 1036,723 1037,723 1037,723 1037,723 1037,723 1038,723 1038,723 1038,723 1038,723 1039,723 1039,723 1039,723 1039,723 1040,723 1040,724 1040,724 1040,724 1041,724 1041,724 1042,724 1042,724 1042,724 1042,724 1043,724 1043,724 1043,724 1044,724 1044,724 1044,724 1044,724 1045,724 1045,724 1045,724 1045,724 1046,724 1046,724 1047,724 1047,724 1047,724 1047,724 1048,724 1048,724 1048,724 1048,724 1049,724 1049,724 1049,724 1049,724 1050,724 1050,724 1050,724 1050,724 1051,724 1051,724 1051,724 1051,724 1052,724 1052,724 1053,724 1053,724 1053,724 1053,724 1054,724 1054,724 1054,724 1054,724 1055,724 1055,724 1055,724 1056,724 1056,724 1056,724 1056,724 1057,724 1057,724 1058,724 1058,724 1058,724 1059,724 1059,724 1059,724 1059,724 1060,724 1060,724 1060,724 1061,724 1061,724 1061,724 1061,724 1062,724 1062,724 1063,724 1063,724 1063,724 1063,724 1064,724 1064,724 1064,724 1064,724 1065,724 1065,724 1065,724 1065,724 1066,724 1066,724 1066,724 1067,724 1067,724 1068,724 1068,724 1068,724 1068,724 1069,724 1069,724 1069,724 1069,724 1070,724 1070,724 1070,724 1070,724 1071,724 1071,724 1071,724 1072,724 1072,724 1072,724 1072,724 1073,724 1073,724 1074,724 1074,724 1074,724 1074,724 1075,724 1075,724 1075,724 1076,724 1076,724 1076,724 1076,724 1077,724 1077,724 1077,724 1077,724 1078,724 1078,724 1079,724 1079,724 1079,724 1079,724 1080,724 1080,724 1080,724 1080,724 1081,724 1081,724 1081,724 1081,724 1082,724 1082,724 1082,724 1083,724 1083,724 1084,724 1084,724 1084,724 1084,724 1085,724 1085,724 1085,724 1085,724 1086,724 1086,724 1086,724 1086,724 1087,724 1087,724 1087,724 1087,724 1088,724 1088,724 1088,724 1088,724 1089,724 1089,724 1090,724 1090,724 1090,724 1090,725 1091,725 1091,725 1091,725 1091,725 1092,725 1092,725 1092,725 1093,725 1093,725 1093,725 1093,725 1094,725 1094,725 1095,725 1095,725 1095,725 1095,725 1096,725 1096,725 1096,725 1096,725 1097,725 1097,725 1097,725 1097,725 1098,725 1098,725 1098,725 1098,725 1099,725 1099,725 1100,725 1100,725 1100,725 1100,725 1101,725 1101,725 1101,725 1101,725 1102,725 1102,725 1102,725 1102,726 1103,726 1103,726 1103,726 1104,726 1104,726 1104,726 1104,726 1105,726 1105,725 1106,725 1106,725 1106,725 1106,725 1107,725 1107,725 1107,725 1107,725 1108,725 1108,725 1108,725 1108,725 1109,725 1109,725 1109,725 1109,725 1110,725 1110,725 1111,725 1111,725 1111,725 1111,725 1112,725 1112,725 1112,725 1112,725 1113,725 1113,725 1113,725 1113,725 1114,725 1114,725 1114,725 1114,725 1115,725 1115,725 1116,725 1116,725 1116,725 1116,725 1117,725 1117,725 1117,725 1117,725 1118,725 1118,725 1118,725 1118,725 1119,725 1119,725 1119,725 1120,725 1120,725 1120,725 1120,725 1121,725 1121,725 1122,725 1122,725 1122,725 1122,725 1123,725 1123,725 1123,725 1123,725 1124,725 1124,725 1124,725 1124,726 1125,726 1125,726 1125,725 1126,725 1126,725 1127,725 1127,725 1127,725 1127,725 1128,725 1128,725 1128,725 1128,725 1129,725 1129,725 1129,725 1130,725 1130,725 1130,725 1130,725 1131,725 1131,725 1132,725 1132,725 1132,725 1132,725 1133,725 1133,725 1133,725 1133,725 1134,725 1134,725 1134,725 1135,725 1135,725 1135,725 1135,725 1136,725 1136,725 1137,725 1137,725 1137,725 1137,725 1138,725 1138,725 1138,725 1138,725 1139,725 1139,725 1139,725 1140,725 1140,725 1140,725 1140,725 1141,725 1141,725 1141,725 1141,726 1142,726 1142,726 1143,726 1143,726 1143,726 1143,726 1144,726 1144,726 1144,726 1144,726 1145,726 1145,726 1145,726 1145,726 1146,726 1146,726 1146,726 1146,726 1147,726 1147,726 1148,726 1148,726 1148,726 1148,726 1149,726 1149,726 1149,726 1149,726 1150,726 1150,726 1150,726 1150,726 1151,726 1151,726 1151,726 1151,726 1152,726 1152,726 1153,726 1153,726 1153,726 1153,726 1154,726 1154,726 1154,726 1154,726 1155,726 1155,726 1155,726 1156,726 1156,726 1156,726 1156,726 1157,726 1157,726 1157,726 1157,726 1158,726 1158,726 1159,726 1159,726 1159,726 1159,726 1160,726 1160,726 1160,726 1160,726 1161,726 1161,726 1161,726 1161,726 1162,726 1162,726 1162,726 1162,726 1163,726 1163,726 1164,726 1164,726 1164,726 1164,726 1165,726 1165,726 1165,726 1165,726 1166,726 1166,727 1166,727 1166,727 1167,727 1167,727 1167,727 1168,727 1168,727 1169,727 1169,727 1169,727 1169,727 1170,727 1170,727 1170,727 1170,727 1171,727 1171,727 1171,727 1171,727 1172,727 1172,727 1172,727 1172,727 1173,727 1173,727 1173,727 1173,727 1174,727 1174,727 1175,727 1175,727 1175,727 1175,727 1176,727 1176,727 1176,727 1177,727 1177,727 1177,727 1177,727 1178,727 1178,727 1178,727 1178,727 1179,727 1180,727 1180,727 1180,727 1180,727 1181,727 1181,727 1181,727 1182,727 1182,727 1182,727 1182,727 1183,727 1183,727 1183,727 1183,727 1184,727 1184,727 1185,727 1185,727 1185,727 1186,727 1186,727 1186,727 1186,727 1187,727 1187,728 1187,728 1187,728 1188,728 1188,728 1188,728 1188,728 1189,728 1189,728 1190,728 "/>
<polyline fill="none" opacity="1" stroke="#54E619" stroke-width="2" points="209,737 210,733 214,735 218,733 225,731 225,729 226,727 230,726 240,724 241,724 242,721 246,719 247,716 248,714 249,714 249,712 252,711 253,713 255,710 255,705 257,703 258,702 262,700 263,699 264,699 265,691 266,686 267,683 268,681 271,681 272,679 273,678 274,676 275,675 275,675 276,673 276,674 277,674 278,674 279,673 279,673 280,673 280,673 281,673 281,671 282,670 283,670 283,669 284,667 284,667 285,664 285,663 286,661 286,657 287,656 288,654 289,653 290,653 290,650 294,651 294,650 295,648 295,647 296,645 297,644 297,643 298,641 299,637 299,633 300,632 301,626 302,625 302,623 303,622 303,622 305,619 305,618 306,617 307,616 307,614 308,612 308,611 309,603 310,600 310,596 311,586 311,585 312,584 312,584 313,583 313,582 314,577 315,574 315,575 316,569 317,567 317,567 318,566 318,565 319,566 320,566 320,566 321,562 321,562 322,561 322,560 323,553 323,554 324,554 324,555 325,555 326,555 327,553 327,553 329,553 329,551 330,548 331,549 331,548 332,548 332,549 333,548 333,548 334,548 334,547 335,548 336,544 336,544 337,542 337,540 338,538 338,539 339,539 339,536 340,532 340,530 342,530 342,527 343,523 343,523 344,523 344,523 345,524 345,523 346,522 347,521 347,521 348,522 348,518 349,519 349,519 350,517 350,517 351,515 352,513 352,511 353,511 353,509 354,509 354,507 355,504 355,504 356,505 356,505 357,504 358,503 358,497 359,496 359,492 360,491 360,492 361,492 361,490 362,489 363,485 363,483 364,482 364,481 365,479 365,479 366,479 366,479 367,479 368,478 368,479 369,479 369,480 370,477 370,478 371,478 371,478 372,476 372,475 373,473 374,472 374,470 375,469 375,468 376,467 376,464 377,463 377,463 378,462 379,463 379,464 380,462 380,461 381,461 381,457 382,454 382,452 383,450 384,448 384,449 385,446 385,446 386,445 386,444 387,444 387,441 388,441 389,441 389,438 390,437 390,436 391,431 391,427 392,427 392,427 393,429 393,425 394,421 395,420 395,421 396,420 396,419 397,419 397,420 398,419 398,421 399,417 400,414 400,413 401,413 401,413 402,414 402,414 403,413 403,414 404,412 405,412 405,412 406,412 406,410 407,407 407,407 408,406 408,405 409,401 409,401 410,401 411,400 411,399 412,398 412,398 413,396 413,396 414,394 414,394 415,393 416,392 416,391 417,390 417,390 418,391 418,389 419,390 419,391 420,390 421,389 421,388 422,387 422,386 423,387 423,384 424,383 424,377 425,377 425,378 426,374 427,371 427,369 428,367 428,366 429,366 429,364 430,361 430,360 431,360 432,358 432,358 433,356 433,356 434,356 434,356 435,355 435,354 436,353 437,352 437,354 438,353 438,352 439,351 439,350 440,349 440,348 441,345 442,345 442,346 443,346 443,343 444,342 444,340 445,338 445,338 446,337 446,337 447,334 448,334 448,334 449,330 449,329 450,329 450,327 451,323 451,322 452,322 453,322 453,321 454,318 454,317 455,315 455,316 456,316 456,315 457,315 458,314 458,313 459,313 459,315 460,315 460,315 461,316 461,316 462,316 462,316 463,296 464,295 464,294 465,295 465,293 466,290 466,289 467,288 467,288 468,287 469,287 469,286 470,284 470,286 471,285 471,284 472,282 472,281 473,281 474,279 474,278 475,277 475,278 476,278 476,279 477,279 477,279 478,278 478,279 479,280 480,280 480,281 481,281 481,281 482,280 482,279 483,280 483,280 484,280 485,280 485,280 486,280 486,281 487,280 487,276 488,275 488,273 489,273 490,273 490,273 491,274 491,271 492,268 492,269 493,270 493,270 494,270 494,270 495,270 496,270 496,270 497,269 497,269 498,271 498,271 499,271 499,270 500,268 501,268 501,268 502,268 502,266 503,267 503,264 504,263 504,263 505,264 506,263 506,264 507,266 507,267 508,269 508,267 509,267 509,266 510,265 511,265 511,264 512,265 512,264 513,263 513,261 514,260 514,261 515,261 515,258 516,256 517,255 517,255 518,254 518,254 519,254 519,254 520,256 520,254 521,254 522,254 522,255 523,256 523,256 524,254 524,255 525,256 525,256 526,257 527,257 527,257 528,256 528,255 529,256 529,257 530,258 530,259 531,259 531,260 532,260 533,261 533,265 534,265 534,265 535,266 535,266 536,265 536,266 537,266 538,267 538,267 539,267 539,267 540,267 540,267 541,268 541,268 542,267 543,266 543,267 544,268 544,269 545,269 545,269 546,271 546,271 547,271 547,272 548,273 549,274 549,275 550,277 550,277 551,278 551,283 552,284 552,285 553,286 554,285 554,286 555,286 555,287 556,288 556,285 557,285 557,285 558,286 559,287 559,288 560,289 560,290 561,290 561,289 562,289 562,290 563,291 564,291 564,292 565,293 565,295 566,295 566,294 567,295 567,295 568,294 568,294 569,294 570,295 570,297 571,297 571,298 572,298 572,299 573,300 573,300 574,300 575,300 575,301 576,303 576,304 577,303 577,303 578,304 578,305 579,304 580,305 580,304 581,305 581,306 582,307 582,307 583,306 583,306 584,306 584,307 585,308 586,309 586,308 587,309 587,308 588,309 588,309 589,310 589,311 590,312 591,313 591,313 592,314 592,313 593,313 593,311 594,312 594,312 595,312 596,312 596,313 597,316 597,316 598,317 598,318 599,320 599,320 600,321 600,321 601,321 602,321 602,321 603,320 603,320 604,322 604,322 605,321 605,321 606,322 607,323 607,323 608,323 608,323 609,323 609,324 610,324 610,325 611,325 612,326 612,325 613,326 613,326 614,327 614,328 615,328 615,329 616,329 616,330 617,330 618,330 618,330 619,330 619,331 620,331 620,331 621,331 621,332 622,332 623,332 623,332 624,332 624,333 625,333 625,334 626,331 626,332 627,332 628,331 628,332 629,332 629,335 630,336 630,336 631,336 631,337 632,337 633,338 633,338 634,339 634,340 635,341 635,341 636,342 636,344 637,345 637,345 638,347 639,347 639,347 640,347 640,348 641,348 641,350 642,350 642,351 643,352 644,351 644,353 645,353 645,354 646,354 646,353 647,352 647,352 648,355 649,355 649,356 650,356 650,356 651,359 651,359 652,360 652,360 653,360 653,360 654,360 655,360 655,360 656,361 656,361 657,362 657,363 658,363 658,363 659,364 660,364 660,364 661,365 661,365 662,365 662,365 663,365 663,366 664,366 665,366 665,366 666,367 666,367 666,366 667,367 667,366 668,367 668,368 669,369 669,371 670,373 671,372 671,372 672,372 672,372 673,372 673,373 674,373 674,374 675,375 676,376 676,379 677,376 677,377 678,377 678,379 679,379 679,379 680,380 681,380 681,381 682,381 682,382 683,382 683,382 684,382 684,382 685,383 685,384 686,383 687,383 687,383 688,384 688,384 689,384 689,385 690,387 690,400 691,401 692,402 692,402 693,402 693,403 694,402 694,402 695,403 695,404 696,403 697,404 697,404 698,404 698,404 699,405 699,405 700,405 700,406 701,406 702,407 702,407 703,407 703,408 704,407 704,408 705,408 705,409 706,410 706,411 707,411 708,411 708,412 709,412 709,413 710,413 710,413 711,414 711,415 712,415 713,415 713,416 714,416 714,417 715,417 715,418 716,418 716,419 717,419 718,420 718,419 719,420 719,420 720,422 720,422 721,423 721,424 722,425 722,426 723,438 724,438 724,438 725,426 725,427 726,427 726,427 727,429 727,429 728,429 729,430 729,429 730,430 730,430 731,429 731,430 732,430 732,431 733,431 734,431 734,430 735,431 735,431 736,431 736,432 737,432 737,433 738,434 738,434 739,436 740,436 740,437 741,437 741,437 742,438 742,438 743,439 743,440 744,439 745,439 745,440 746,440 746,440 747,439 747,440 748,440 748,440 749,441 750,441 750,442 751,442 751,443 752,443 752,443 753,444 753,445 754,445 755,446 755,446 756,446 756,446 757,447 757,447 758,448 758,448 759,449 759,449 760,450 761,450 761,451 762,451 762,451 763,451 763,452 764,453 764,453 765,453 766,454 766,454 767,454 767,455 768,455 768,455 769,456 769,456 770,457 771,457 771,458 772,456 772,456 773,456 773,457 774,458 774,458 775,458 775,459 776,459 777,459 777,460 778,460 778,461 779,461 779,461 780,461 780,462 781,462 782,463 782,463 783,464 783,464 784,464 784,464 785,465 785,465 786,465 787,466 787,467 788,468 788,468 789,468 789,469 790,469 790,470 791,470 791,471 792,472 793,471 793,472 794,472 794,472 795,473 795,473 796,474 796,474 797,474 798,474 798,475 799,475 799,476 800,475 800,476 801,475 801,475 802,475 803,475 803,475 804,476 804,476 805,477 805,477 806,477 806,478 807,478 807,478 808,478 809,479 809,479 810,479 810,480 811,481 811,481 812,481 812,482 813,482 814,482 814,482 815,483 815,483 816,483 816,484 817,484 817,484 818,484 819,485 819,485 820,486 820,486 821,486 821,486 822,486 822,486 823,487 824,487 824,487 825,487 825,487 826,488 826,487 827,488 827,488 828,488 828,489 829,489 830,490 830,490 831,490 831,490 832,491 832,491 833,491 833,491 834,492 835,492 835,492 836,492 836,493 837,493 837,493 838,493 838,493 839,493 840,493 840,494 841,494 841,494 842,494 842,495 843,496 843,496 844,497 844,497 845,497 846,497 846,497 847,497 847,498 848,498 848,498 849,499 849,499 850,499 851,499 851,500 852,500 852,500 853,500 853,500 854,501 854,501 855,502 856,502 856,502 857,502 857,503 858,503 858,504 859,504 859,504 860,504 860,505 861,505 862,505 862,505 863,506 863,506 864,506 864,506 865,507 865,505 866,506 867,506 867,506 868,506 868,506 869,507 869,507 870,507 870,507 871,507 872,508 872,508 873,508 873,508 874,508 874,509 875,509 875,508 876,509 877,509 877,510 878,511 878,511 879,511 879,511 879,512 880,512 880,512 881,512 881,513 882,513 883,513 883,513 884,513 884,514 885,514 885,515 886,515 886,515 887,515 888,515 888,516 889,515 889,516 890,516 890,516 891,516 891,516 892,516 893,516 893,516 894,516 894,516 895,516 895,517 896,517 896,518 897,518 897,519 898,519 899,519 899,519 900,520 900,520 901,520 901,521 902,521 902,521 903,521 904,521 904,521 905,522 905,522 906,522 906,522 907,522 907,523 908,523 909,523 909,524 910,524 910,524 911,524 911,525 912,525 912,526 913,526 913,526 914,526 915,526 915,526 916,527 916,527 917,527 917,527 918,527 918,528 919,528 920,528 920,528 921,528 921,529 922,529 922,530 923,530 923,530 924,531 925,531 925,532 926,532 926,533 927,533 927,533 928,533 928,533 929,535 929,535 930,535 931,536 931,537 932,537 932,537 933,537 933,538 934,538 934,538 935,539 936,539 936,539 937,539 937,539 938,539 938,539 939,540 939,540 940,540 941,541 941,541 942,542 942,541 943,541 943,541 944,541 944,541 945,542 946,542 946,542 947,542 947,543 948,543 948,544 949,544 949,543 950,544 950,544 951,544 952,544 952,545 953,545 953,545 954,545 954,545 955,546 955,546 956,546 957,546 957,546 957,546 957,547 958,547 958,547 958,547 959,547 959,548 959,548 960,548 960,548 960,548 960,549 961,549 961,549 962,549 962,549 962,549 962,549 963,549 963,549 963,549 963,550 964,550 964,550 964,550 964,550 965,550 965,551 965,551 966,551 966,552 966,552 967,552 967,552 968,552 968,553 968,553 968,553 969,553 969,553 969,553 969,553 970,553 970,553 970,553 971,553 971,553 971,553 971,553 972,553 972,554 973,554 973,554 973,554 973,554 974,554 974,555 974,555 974,555 975,555 975,555 975,555 975,556 976,556 976,556 976,556 977,556 977,556 978,556 978,557 978,557 978,557 979,557 979,557 979,557 979,557 980,557 980,558 980,558 980,558 981,558 981,558 981,558 981,558 982,558 982,558 982,558 983,558 984,558 984,559 984,559 984,559 985,559 985,559 985,559 985,560 986,560 986,560 986,560 986,560 987,560 987,561 987,561 987,561 988,561 988,561 989,561 989,561 989,561 990,561 990,561 990,561 990,562 991,562 991,561 991,561 991,562 992,562 992,562 992,562 993,562 993,563 994,563 994,563 994,563 994,562 995,562 995,563 995,563 995,563 996,563 996,563 996,563 996,564 997,564 997,564 997,564 997,564 998,564 998,564 998,564 998,564 999,564 999,565 1000,565 1000,565 1000,565 1000,565 1001,565 1001,566 1001,566 1001,565 1002,565 1002,565 1002,566 1003,566 1003,566 1003,566 1003,566 1004,566 1004,566 1005,566 1005,567 1005,567 1005,567 1006,567 1006,567 1006,567 1006,567 1007,567 1007,568 1007,568 1007,568 1008,568 1008,568 1008,568 1009,568 1009,568 1010,568 1010,569 1010,569 1010,570 1011,570 1011,570 1011,570 1012,570 1012,570 1012,570 1013,570 1013,570 1013,570 1014,570 1014,570 1015,570 1015,570 1015,570 1015,570 1016,570 1016,570 1016,570 1016,570 1017,570 1017,571 1017,571 1017,570 1018,570 1018,570 1018,570 1018,571 1019,571 1019,571 1019,571 1020,571 1020,571 1021,571 1021,571 1021,571 1021,571 1022,571 1022,571 1022,571 1022,572 1023,572 1023,572 1023,572 1023,572 1024,572 1024,572 1024,572 1024,572 1025,572 1025,573 1026,573 1026,573 1026,573 1026,573 1027,573 1027,573 1027,573 1027,573 1028,573 1028,573 1028,574 1029,574 1029,574 1029,574 1029,574 1030,573 1030,574 1031,574 1031,574 1031,574 1031,574 1032,574 1032,575 1032,575 1033,575 1033,575 1033,575 1033,575 1034,575 1034,575 1034,575 1034,575 1035,575 1035,576 1035,576 1035,576 1036,576 1036,575 1037,575 1037,575 1037,575 1037,576 1038,576 1038,576 1038,576 1038,576 1039,576 1039,576 1039,576 1039,576 1040,576 1040,576 1040,576 1040,576 1041,576 1041,576 1042,576 1042,577 1042,577 1042,577 1043,577 1043,577 1043,577 1044,577 1044,578 1044,578 1044,578 1045,578 1045,578 1045,578 1045,578 1046,578 1046,578 1047,578 1047,579 1047,579 1047,579 1048,579 1048,579 1048,579 1048,579 1049,579 1049,579 1049,579 1049,579 1050,579 1050,579 1050,579 1050,580 1051,580 1051,580 1051,580 1051,580 1052,580 1052,581 1053,581 1053,581 1053,581 1053,581 1054,581 1054,581 1054,581 1054,582 1055,582 1055,582 1055,582 1055,582 1056,582 1056,582 1056,582 1056,582 1057,582 1057,582 1058,582 1058,582 1058,583 1059,583 1059,583 1059,583 1059,583 1060,583 1060,583 1060,583 1061,583 1061,583 1061,583 1061,584 1062,584 1062,584 1063,584 1063,584 1063,584 1063,584 1064,584 1064,584 1064,584 1064,584 1065,584 1065,585 1065,585 1065,585 1066,585 1066,585 1066,585 1067,585 1067,585 1068,585 1068,585 1068,585 1068,586 1069,586 1069,586 1069,586 1069,586 1070,586 1070,586 1070,586 1070,586 1071,586 1071,586 1071,586 1071,587 1072,587 1072,587 1072,587 1072,587 1073,587 1073,587 1074,587 1074,588 1074,588 1074,588 1075,588 1075,588 1075,588 1075,588 1076,588 1076,588 1076,588 1076,589 1077,589 1077,589 1077,589 1077,589 1078,589 1078,589 1079,589 1079,589 1079,589 1079,589 1080,589 1080,590 1080,590 1080,590 1081,590 1081,590 1081,590 1081,590 1082,590 1082,590 1082,590 1082,591 1083,591 1083,591 1084,591 1084,591 1084,591 1084,591 1085,591 1085,591 1085,591 1085,591 1086,591 1086,592 1086,592 1086,592 1087,592 1087,592 1087,592 1087,592 1088,592 1088,592 1088,592 1088,592 1089,592 1089,592 1090,592 1090,593 1090,593 1090,593 1091,593 1091,593 1091,593 1091,593 1092,593 1092,593 1092,593 1093,593 1093,593 1093,593 1093,593 1094,593 1094,593 1095,593 1095,593 1095,593 1095,593 1096,593 1096,594 1096,594 1096,594 1097,594 1097,594 1097,594 1097,594 1098,594 1098,594 1098,594 1098,594 1099,594 1099,594 1100,594 1100,595 1100,595 1100,595 1101,595 1101,595 1101,595 1101,595 1102,595 1102,595 1102,595 1102,601 1103,601 1103,601 1103,601 1104,601 1104,601 1104,601 1104,601 1105,601 1105,601 1106,601 1106,601 1106,601 1106,601 1107,601 1107,602 1107,602 1107,602 1108,602 1108,602 1108,602 1108,602 1109,602 1109,602 1109,602 1109,602 1110,602 1110,603 1111,603 1111,603 1111,603 1111,603 1112,603 1112,603 1112,603 1112,603 1113,603 1113,603 1113,603 1113,603 1114,603 1114,603 1114,603 1114,603 1115,603 1115,603 1116,603 1116,603 1116,603 1116,603 1117,604 1117,604 1117,604 1117,605 1118,605 1118,605 1118,605 1118,605 1119,605 1119,605 1119,605 1119,605 1120,605 1120,605 1120,605 1120,605 1121,605 1121,605 1122,605 1122,606 1122,606 1122,606 1123,606 1123,606 1123,606 1123,606 1124,606 1124,606 1124,606 1124,606 1125,606 1125,606 1125,606 1126,606 1126,607 1127,607 1127,607 1127,607 1127,607 1128,607 1128,607 1128,607 1128,607 1129,607 1129,607 1129,607 1129,607 1130,607 1130,607 1130,607 1130,608 1131,608 1131,608 1132,608 1132,608 1132,608 1132,608 1133,608 1133,608 1133,608 1133,608 1134,608 1134,609 1134,609 1134,609 1135,609 1135,609 1135,609 1135,609 1136,609 1136,609 1137,609 1137,609 1137,609 1137,609 1138,609 1138,609 1138,609 1138,609 1139,609 1139,609 1139,610 1139,609 1140,609 1140,610 1140,610 1140,610 1141,610 1141,610 1141,610 1141,610 1142,610 1142,610 1143,610 1143,610 1143,610 1143,611 1144,611 1144,611 1144,611 1144,611 1145,611 1145,611 1145,611 1145,611 1146,611 1146,611 1146,611 1146,611 1147,611 1147,611 1148,611 1148,612 1148,612 1148,612 1149,612 1149,612 1149,612 1149,612 1150,612 1150,612 1150,612 1150,612 1151,612 1151,612 1151,612 1151,612 1152,612 1152,612 1153,612 1153,613 1153,613 1153,613 1154,613 1154,613 1154,613 1154,613 1155,613 1155,614 1155,614 1156,614 1156,614 1156,614 1156,614 1157,614 1157,615 1157,615 1157,615 1158,615 1158,615 1159,615 1159,615 1159,615 1159,615 1160,615 1160,616 1160,616 1160,616 1161,616 1161,616 1161,616 1161,616 1162,616 1162,617 1162,617 1162,617 1163,617 1163,617 1164,617 1164,618 1164,618 1164,618 1165,618 1165,618 1165,618 1165,618 1166,618 1166,618 1166,618 1166,618 1167,618 1167,618 1167,618 1168,618 1168,618 1169,618 1169,618 1169,618 1169,619 1170,619 1170,619 1170,619 1170,619 1171,619 1171,619 1171,619 1171,619 1172,619 1172,619 1172,619 1172,620 1173,620 1173,620 1173,620 1173,620 1174,620 1174,620 1175,620 1175,620 1175,620 1175,620 1176,620 1176,620 1176,621 1177,621 1177,621 1177,621 1177,621 1178,621 1178,621 1178,621 1178,621 1179,622 1180,622 1180,622 1180,622 1180,622 1181,622 1181,623 1181,623 1181,623 1182,623 1182,623 1182,623 1182,623 1183,623 1183,623 1183,623 1183,623 1184,623 1184,623 1185,623 1185,623 1185,623 1186,623 1186,624 1186,624 1186,624 1187,624 1187,624 1187,624 1187,624 1188,624 1188,624 1188,624 1188,624 1189,624 1189,624 1190,624 "/>
<polyline fill="none" opacity="1" stroke="#19E68E" stroke-width="2" points="492,738 493,737 494,736 495,734 496,732 496,731 497,730 498,729 498,725 499,725 499,723 500,720 501,719 501,718 502,717 502,716 503,714 503,713 506,712 506,710 507,707 507,706 508,704 508,704 509,701 511,699 512,696 512,695 513,694 514,694 514,693 515,690 516,689 517,688 517,685 518,684 518,684 519,683 519,682 520,680 521,678 522,673 522,672 523,672 523,671 524,670 524,669 525,668 525,668 526,664 527,665 527,665 528,664 528,663 529,660 529,660 530,659 530,658 531,655 531,654 532,652 533,650 533,648 534,645 534,644 535,643 535,640 536,640 536,638 537,637 538,636 538,635 539,630 539,628 540,629 540,629 541,628 541,628 542,628 543,627 543,627 544,626 544,624 545,621 545,620 546,617 546,615 547,612 547,610 548,608 549,606 549,604 550,599 550,594 551,593 551,593 552,593 552,588 553,584 554,580 554,579 555,578 555,578 556,575 556,575 557,574 557,574 558,573 559,571 559,571 560,570 560,566 561,565 561,564 562,564 562,562 563,562 564,560 564,559 565,558 565,556 566,556 566,554 567,553 567,552 568,551 568,549 569,547 570,545 570,543 571,543 571,540 572,539 572,535 573,530 573,527 574,525 575,523 575,519 576,516 576,515 577,515 577,514 578,513 578,511 579,510 580,509 580,503 581,500 581,499 582,496 582,495 583,493 583,490 584,488 584,488 585,484 586,482 586,483 587,482 587,481 588,479 588,476 589,475 589,472 590,472 591,469 591,463 592,463 592,461 593,461 593,461 594,460 594,458 595,457 596,456 596,455 597,450 597,450 598,449 598,443 599,438 599,437 600,434 600,433 601,432 602,431 602,432 603,430 603,431 604,428 604,427 605,426 605,426 606,424 607,423 608,422 608,422 609,421 609,420 610,419 610,414 611,412 612,407 612,406 613,403 613,402 614,402 614,403 615,403 615,402 616,400 616,399 617,397 618,397 618,395 619,396 619,393 620,392 620,391 621,391 621,389 622,390 623,389 623,387 624,386 624,383 625,383 625,383 626,382 626,381 627,382 628,381 628,378 629,377 629,372 630,371 630,370 631,369 631,367 632,367 633,367 633,365 634,365 634,364 635,363 635,363 636,361 636,358 637,358 637,356 638,358 639,357 639,355 640,355 640,356 641,354 641,354 642,353 642,352 643,349 644,349 644,347 645,344 645,344 646,341 646,341 647,339 647,338 648,339 649,338 649,337 650,337 650,337 651,338 651,338 652,337 652,336 653,334 653,332 654,330 655,330 655,329 656,328 656,326 657,324 657,322 658,323 658,322 659,321 660,321 660,319 661,317 661,316 662,314 662,313 663,311 663,309 664,307 665,307 665,305 666,305 666,302 666,302 667,302 667,301 668,298 668,296 669,292 669,288 670,286 671,285 671,284 672,284 672,281 673,282 673,281 674,281 674,279 675,280 676,280 676,284 677,280 677,280 678,279 678,278 679,277 679,277 680,272 681,271 681,272 682,269 682,270 683,269 683,268 684,265 684,264 685,263 685,262 686,262 687,263 687,263 688,262 688,259 689,261 689,260 690,258 690,236 691,235 692,236 692,237 693,234 693,235 694,233 694,233 695,233 695,229 696,229 697,228 697,229 698,225 698,224 699,222 699,223 700,222 700,220 701,219 702,220 702,220 703,219 703,216 704,214 704,210 705,208 705,204 706,203 706,201 707,201 708,200 708,198 709,196 709,197 710,197 710,196 711,192 711,190 712,190 713,189 713,187 714,187 714,185 715,184 715,185 716,184 716,184 717,182 718,183 718,182 719,180 719,180 720,177 720,176 721,176 721,175 722,174 722,169 723,190 724,192 724,191 725,170 725,169 726,167 726,167 727,165 727,165 728,165 729,163 729,161 730,162 730,163 731,162 731,162 732,160 732,159 733,159 734,157 734,157 735,156 735,155 736,155 736,156 737,157 737,155 738,155 738,154 739,154 740,154 740,155 741,149 741,149 742,148 742,148 743,145 743,145 744,144 745,144 745,144 746,145 746,145 747,145 747,145 748,145 748,146 749,146 750,145 750,145 751,145 751,143 752,141 752,140 753,139 753,137 754,137 755,138 755,137 756,135 756,134 757,132 757,130 758,131 758,130 759,130 759,129 760,129 761,128 761,129 762,127 762,127 763,127 763,127 764,126 764,126 765,126 766,127 766,127 767,128 767,125 768,125 768,123 769,123 769,122 770,121 771,118 771,118 772,119 772,118 773,118 773,119 774,119 774,117 775,117 775,115 776,113 777,113 777,113 778,113 778,114 779,114 779,114 780,113 780,111 781,111 782,111 782,110 783,110 783,111 784,110 784,109 785,108 785,109 786,107 787,106 787,108 788,108 788,108 789,108 789,108 790,108 790,108 791,107 791,109 792,109 793,110 793,110 794,109 794,109 795,107 795,108 796,106 796,105 797,107 798,108 798,101 799,101 799,102 800,102 800,102 801,101 801,101 802,101 803,102 803,101 804,101 804,101 805,103 805,105 806,105 806,104 807,104 807,103 808,103 809,103 809,103 810,101 810,102 811,101 811,100 812,99 812,99 813,95 814,96 814,95 815,96 815,94 816,92 816,92 817,93 817,90 818,89 819,90 819,89 820,89 820,89 821,88 821,86 822,85 822,86 823,86 824,86 824,85 825,86 825,84 826,84 826,84 827,84 827,85 828,85 828,85 829,85 830,86 830,84 831,84 831,83 832,84 832,83 833,81 833,82 834,83 835,82 835,82 836,84 836,83 837,83 837,83 838,83 838,83 839,83 840,83 840,83 841,82 841,82 842,82 842,83 843,82 843,80 844,80 844,79 845,79 846,79 846,79 847,79 847,76 848,75 848,76 849,76 849,77 850,77 851,77 851,78 852,78 852,79 853,78 853,78 854,78 854,79 855,78 856,78 856,78 857,79 857,80 858,79 858,80 859,78 859,78 860,78 860,78 861,78 862,78 862,78 863,77 863,77 864,77 864,77 865,78 865,79 866,78 867,78 867,77 868,78 868,78 869,79 869,79 870,78 870,79 871,79 872,78 872,78 873,79 873,81 874,81 874,80 875,80 875,80 876,78 877,79 877,79 878,79 878,79 879,79 879,80 879,80 880,83 880,84 881,84 881,85 882,86 883,86 883,86 884,86 884,87 885,87 885,86 886,89 886,90 887,89 888,90 888,95 889,97 889,96 890,99 890,103 891,103 891,104 892,103 893,104 893,104 894,105 894,106 895,110 895,111 896,112 896,113 897,114 897,111 898,112 899,112 899,113 900,113 900,114 901,114 901,115 902,115 902,112 903,112 904,112 904,112 905,112 905,110 906,110 906,111 907,111 907,111 908,111 909,111 909,112 910,112 910,112 911,111 911,112 912,112 912,114 913,114 913,115 914,115 915,115 915,116 916,116 916,111 917,111 917,112 918,113 918,113 919,113 920,114 920,115 921,111 921,110 922,111 922,112 923,112 923,112 924,113 925,113 925,115 926,115 926,115 927,115 927,116 928,116 928,119 929,118 929,118 930,120 931,121 931,121 932,121 932,121 933,124 933,127 934,128 934,127 935,127 936,127 936,128 937,128 937,128 938,129 938,129 939,129 939,130 940,130 941,131 941,130 942,131 942,132 943,133 943,133 944,134 944,132 945,134 946,135 946,136 947,135 947,135 948,134 948,135 949,135 949,136 950,137 950,136 951,137 952,138 952,140 953,140 953,141 954,142 954,142 955,143 955,140 956,141 957,140 957,141 957,141 957,141 958,141 958,141 958,142 959,142 959,143 959,144 960,144 960,145 960,145 960,150 961,150 961,151 962,151 962,152 962,152 962,154 963,154 963,154 963,154 963,154 964,154 964,155 964,155 964,155 965,155 965,156 965,156 966,156 966,157 966,157 967,157 967,157 968,157 968,155 968,155 968,156 969,156 969,156 969,156 969,156 970,156 970,156 970,157 971,157 971,156 971,156 971,156 972,156 972,156 973,156 973,157 973,157 973,157 974,157 974,157 974,157 974,158 975,158 975,158 975,158 975,158 976,160 976,160 976,161 977,161 977,162 978,162 978,161 978,161 978,163 979,163 979,165 979,165 979,164 980,164 980,166 980,166 980,167 981,167 981,166 981,166 981,167 982,167 982,169 982,169 983,170 984,170 984,170 984,170 984,170 985,170 985,170 985,170 985,170 986,170 986,170 986,170 986,171 987,171 987,172 987,172 987,172 988,172 988,173 989,174 989,175 989,175 990,176 990,176 990,176 990,177 991,177 991,178 991,178 991,179 992,180 992,180 992,181 993,181 993,183 994,183 994,183 994,183 994,184 995,184 995,185 995,185 995,186 996,186 996,186 996,186 996,187 997,187 997,187 997,187 997,187 998,187 998,187 998,187 998,189 999,189 999,190 1000,190 1000,191 1000,191 1000,192 1001,192 1001,192 1001,192 1001,193 1002,193 1002,194 1002,195 1003,195 1003,196 1003,196 1003,197 1004,197 1004,200 1005,200 1005,201 1005,201 1005,201 1006,201 1006,202 1006,202 1006,203 1007,203 1007,203 1007,203 1007,204 1008,204 1008,204 1008,205 1009,205 1009,206 1010,206 1010,207 1010,207 1010,208 1011,208 1011,208 1011,209 1012,212 1012,212 1012,212 1013,213 1013,213 1013,213 1014,213 1014,214 1015,214 1015,215 1015,215 1015,215 1016,216 1016,216 1016,216 1016,218 1017,218 1017,219 1017,219 1017,219 1018,219 1018,220 1018,220 1018,220 1019,220 1019,220 1019,220 1020,220 1020,222 1021,222 1021,223 1021,223 1021,223 1022,223 1022,224 1022,224 1022,225 1023,225 1023,225 1023,225 1023,225 1024,225 1024,226 1024,226 1024,227 1025,227 1025,228 1026,228 1026,228 1026,228 1026,230 1027,230 1027,231 1027,231 1027,231 1028,233 1028,233 1028,233 1029,233 1029,234 1029,234 1029,234 1030,234 1030,235 1031,235 1031,236 1031,236 1031,237 1032,237 1032,237 1032,237 1033,237 1033,238 1033,238 1033,238 1034,238 1034,239 1034,239 1034,239 1035,239 1035,239 1035,240 1035,239 1036,239 1036,241 1037,241 1037,241 1037,241 1037,241 1038,241 1038,242 1038,242 1038,243 1039,243 1039,244 1039,244 1039,244 1040,244 1040,244 1040,244 1040,244 1041,244 1041,245 1042,245 1042,245 1042,245 1042,246 1043,247 1043,247 1043,248 1044,248 1044,249 1044,249 1044,249 1045,249 1045,250 1045,250 1045,251 1046,251 1046,252 1047,252 1047,253 1047,253 1047,253 1048,253 1048,253 1048,253 1048,254 1049,254 1049,255 1049,255 1049,256 1050,256 1050,257 1050,257 1050,257 1051,257 1051,259 1051,259 1051,259 1052,259 1052,259 1053,259 1053,260 1053,260 1053,261 1054,261 1054,262 1054,262 1054,262 1055,262 1055,263 1055,263 1055,264 1056,264 1056,265 1056,265 1056,265 1057,265 1057,265 1058,265 1058,266 1058,266 1059,266 1059,265 1059,265 1059,266 1060,269 1060,269 1060,269 1061,269 1061,269 1061,269 1061,270 1062,270 1062,271 1063,271 1063,271 1063,271 1063,272 1064,272 1064,273 1064,273 1064,274 1065,274 1065,275 1065,275 1065,276 1066,276 1066,276 1066,278 1067,278 1067,278 1068,278 1068,279 1068,279 1068,280 1069,280 1069,280 1069,280 1069,280 1070,280 1070,281 1070,281 1070,280 1071,280 1071,278 1071,278 1071,277 1072,277 1072,278 1072,278 1072,279 1073,279 1073,279 1074,279 1074,279 1074,279 1074,280 1075,280 1075,280 1075,280 1075,280 1076,280 1076,281 1076,281 1076,281 1077,281 1077,282 1077,282 1077,283 1078,283 1078,283 1079,283 1079,284 1079,284 1079,284 1080,284 1080,285 1080,285 1080,286 1081,286 1081,286 1081,286 1081,286 1082,286 1082,287 1082,287 1082,287 1083,287 1083,288 1084,288 1084,288 1084,288 1084,289 1085,289 1085,289 1085,289 1085,290 1086,290 1086,291 1086,291 1086,292 1087,292 1087,292 1087,292 1087,293 1088,293 1088,294 1088,294 1088,294 1089,294 1089,294 1090,294 1090,295 1090,295 1090,295 1091,295 1091,296 1091,296 1091,296 1092,297 1092,297 1092,297 1093,297 1093,298 1093,298 1093,299 1094,299 1094,300 1095,300 1095,300 1095,300 1095,301 1096,301 1096,301 1096,301 1096,301 1097,301 1097,302 1097,302 1097,302 1098,302 1098,303 1098,303 1098,303 1099,303 1099,303 1100,303 1100,305 1100,305 1100,306 1101,306 1101,307 1101,307 1101,307 1102,307 1102,308 1102,308 1102,325 1103,325 1103,325 1103,325 1104,325 1104,326 1104,326 1104,327 1105,327 1105,329 1106,329 1106,329 1106,329 1106,330 1107,330 1107,330 1107,330 1107,330 1108,330 1108,331 1108,331 1108,331 1109,331 1109,331 1109,331 1109,332 1110,332 1110,332 1111,332 1111,333 1111,333 1111,333 1112,333 1112,333 1112,333 1112,334 1113,334 1113,334 1113,334 1113,334 1114,334 1114,334 1114,334 1114,335 1115,335 1115,335 1116,335 1116,335 1116,335 1116,336 1117,336 1117,336 1117,336 1117,337 1118,337 1118,338 1118,338 1118,338 1119,338 1119,339 1119,339 1119,339 1120,339 1120,339 1120,339 1120,340 1121,340 1121,341 1122,341 1122,341 1122,341 1122,342 1123,342 1123,342 1123,342 1123,342 1124,342 1124,344 1124,344 1124,346 1125,346 1125,347 1125,347 1126,347 1126,350 1127,350 1127,350 1127,350 1127,350 1128,350 1128,351 1128,351 1128,351 1129,351 1129,352 1129,352 1129,352 1130,352 1130,353 1130,353 1130,353 1131,354 1131,354 1132,354 1132,355 1132,354 1132,355 1133,355 1133,355 1133,355 1133,356 1134,356 1134,356 1134,356 1134,357 1135,357 1135,358 1135,358 1135,358 1136,358 1136,358 1137,358 1137,359 1137,359 1137,359 1138,359 1138,359 1138,359 1138,360 1139,360 1139,360 1139,360 1139,361 1140,361 1140,362 1140,362 1140,362 1141,362 1141,362 1141,362 1141,363 1142,363 1142,364 1143,364 1143,364 1143,364 1143,365 1144,365 1144,365 1144,365 1144,365 1145,365 1145,366 1145,366 1145,366 1146,366 1146,367 1146,367 1146,367 1147,367 1147,368 1148,368 1148,368 1148,368 1148,368 1149,368 1149,369 1149,369 1149,369 1150,369 1150,370 1150,370 1150,370 1151,370 1151,370 1151,371 1151,371 1152,371 1152,371 1153,371 1153,372 1153,372 1153,372 1154,372 1154,373 1154,373 1154,373 1155,373 1155,374 1155,374 1156,374 1156,375 1156,375 1156,375 1157,375 1157,376 1157,376 1157,377 1158,377 1158,377 1159,377 1159,378 1159,378 1159,379 1160,379 1160,380 1160,380 1160,380 1161,380 1161,381 1161,381 1161,382 1162,382 1162,383 1162,383 1162,384 1163,384 1163,384 1164,384 1164,385 1164,385 1164,385 1165,385 1165,386 1165,386 1165,386 1166,386 1166,387 1166,387 1166,387 1167,388 1167,388 1167,388 1168,388 1168,388 1169,388 1169,389 1169,389 1169,390 1170,390 1170,390 1170,390 1170,390 1171,390 1171,391 1171,391 1171,391 1172,391 1172,392 1172,392 1172,393 1173,393 1173,394 1173,394 1173,394 1174,394 1174,395 1175,395 1175,396 1175,396 1175,396 1176,396 1176,396 1176,397 1177,397 1177,397 1177,397 1177,397 1178,398 1178,398 1178,398 1178,399 1179,399 1180,399 1180,400 1180,400 1180,400 1181,400 1181,400 1181,400 1181,400 1182,400 1182,401 1182,401 1182,401 1183,401 1183,401 1183,401 1183,402 1184,402 1184,402 1185,402 1185,402 1185,402 1186,402 1186,403 1186,403 1186,403 1187,403 1187,404 1187,404 1187,404 1188,404 1188,405 1188,405 1188,405 1189,405 1189,405 1190,405 "/>
<polyline fill="none" opacity="1" stroke="#198EE6" stroke-width="2" points="60,735 60,732 63,729 72,726 80,723 87,723 88,720 92,717 93,714 94,715 98,712 101,709 102,706 108,704 113,705 114,705 116,700 121,698 124,701 126,701 131,694 132,691 132,691 133,692 133,692 134,692 135,692 136,692 136,690 137,687 138,687 138,687 140,688 140,688 142,688 142,688 143,686 143,686 144,686 145,684 145,684 146,684 147,684 147,684 148,684 148,685 149,685 149,685 150,685 151,685 151,685 152,683 152,683 153,683 154,683 154,683 155,683 156,683 156,684 158,684 159,684 159,682 160,680 161,680 161,678 162,678 162,680 163,680 163,678 164,678 164,678 165,679 166,679 167,679 168,677 168,677 169,677 169,677 170,677 171,677 172,678 172,678 173,678 174,676 174,673 175,671 175,669 176,669 177,670 177,670 178,670 178,670 179,670 179,670 180,671 181,671 181,671 183,669 183,665 184,663 185,663 185,663 187,664 188,664 188,662 189,662 190,662 190,662 191,662 191,660 192,660 193,661 193,659 194,657 195,657 196,657 197,658 198,658 198,658 199,658 199,658 200,656 200,657 201,657 201,657 202,657 202,657 203,657 204,655 205,654 205,654 206,654 206,652 207,652 207,652 208,652 209,653 209,651 210,651 210,651 211,651 211,651 212,650 213,648 214,644 214,644 215,645 215,645 216,643 217,643 217,643 218,643 220,644 220,644 221,644 221,644 222,644 222,644 223,643 224,643 225,643 225,643 226,643 226,644 227,644 229,644 230,645 230,643 231,643 231,641 232,640 232,640 233,640 233,640 234,640 236,641 236,641 237,641 237,641 238,641 238,641 239,640 240,640 241,638 241,639 242,639 243,639 243,639 244,640 244,640 245,638 247,639 247,637 248,638 249,638 249,635 250,635 251,635 251,635 252,635 252,635 253,636 253,636 254,636 254,638 255,638 256,637 257,637 257,638 258,638 258,638 259,638 259,638 260,638 260,639 261,639 262,639 262,639 263,639 263,636 264,635 264,635 265,635 265,635 266,635 267,635 267,635 268,636 268,636 269,636 269,637 270,637 270,637 271,635 271,636 272,636 273,636 273,633 274,633 274,632 275,632 276,630 276,631 277,631 278,632 279,632 279,632 280,632 281,631 281,631 282,631 283,630 283,628 284,628 285,629 285,629 286,627 286,628 287,628 287,628 288,628 289,627 290,626 290,626 291,624 291,624 292,625 292,625 293,625 294,624 294,624 295,624 295,624 296,624 296,624 297,623 297,623 298,623 299,624 299,624 300,624 301,624 301,624 302,625 302,625 303,625 303,624 305,624 305,624 306,624 306,623 307,622 307,621 308,621 308,621 309,623 310,623 310,622 311,622 311,621 312,621 312,622 313,620 313,619 314,618 315,618 315,619 316,619 316,619 317,619 317,619 318,620 318,620 319,619 320,617 320,618 321,618 321,618 322,618 322,617 323,616 323,616 324,616 325,617 326,616 326,614 327,614 327,613 328,614 328,614 329,614 329,610 330,610 331,611 331,610 332,610 332,610 333,610 333,611 334,610 334,609 335,609 336,609 336,610 337,609 337,608 338,608 338,608 339,609 339,608 340,608 340,608 341,608 342,609 342,607 343,608 343,607 344,606 344,606 345,606 345,606 346,606 347,607 347,607 348,607 348,608 349,607 349,604 350,605 351,605 352,606 352,606 353,606 353,606 354,607 355,607 355,606 356,605 356,605 357,605 358,605 358,606 359,606 359,606 360,606 360,605 361,606 361,606 362,606 363,605 363,605 364,605 364,606 365,606 365,606 366,606 366,606 367,606 368,607 368,607 369,606 369,606 370,606 370,607 371,607 371,606 372,605 372,605 373,605 374,605 374,606 375,606 375,606 376,606 376,606 377,607 377,607 378,607 379,605 379,605 380,606 380,606 381,606 381,606 382,606 382,606 383,607 384,607 384,606 385,605 385,605 386,606 386,606 387,605 387,605 388,605 389,605 389,606 390,606 390,605 391,605 391,606 392,605 392,606 393,607 393,607 394,607 395,606 395,605 396,605 396,606 397,606 397,606 398,606 398,605 399,607 400,604 400,604 401,604 401,605 402,605 402,605 403,603 403,604 404,603 405,603 405,602 406,601 406,601 407,601 407,601 408,601 408,601 409,600 409,601 410,602 411,603 411,603 412,603 412,603 413,602 413,603 414,603 415,603 416,603 416,604 417,604 417,604 418,604 418,604 419,604 419,605 420,605 421,605 421,604 422,604 422,604 423,605 423,605 424,605 424,605 425,606 425,606 426,606 427,606 427,606 428,607 428,607 429,607 429,606 430,606 430,606 431,606 432,605 432,605 433,605 433,605 434,604 434,604 435,604 435,604 436,605 437,605 437,605 438,605 438,605 439,605 439,604 440,605 440,605 441,605 442,605 442,605 443,605 443,605 444,605 444,605 445,606 445,606 446,605 446,605 447,605 448,605 448,606 449,606 449,605 450,605 450,605 451,606 451,606 452,606 453,606 453,606 454,607 454,607 455,607 455,607 456,607 456,607 457,608 458,608 458,608 459,608 459,608 460,609 460,609 461,609 461,609 462,609 462,608 463,609 464,607 464,607 465,608 465,607 466,607 467,607 467,607 468,607 469,607 469,606 470,606 470,607 471,607 471,607 472,607 472,608 474,607 474,607 475,607 475,608 476,607 476,607 477,606 477,607 478,607 478,607 479,607 480,607 480,607 481,606 481,606 482,606 482,607 483,606 483,606 484,606 485,606 485,607 486,607 486,607 487,606 487,606 488,606 488,605 489,604 490,604 490,604 491,605 491,605 492,605 492,605 493,605 493,605 494,606 494,606 495,606 496,606 496,606 497,605 497,605 498,605 498,606 499,606 499,606 500,606 501,607 501,608 502,608 502,608 503,608 503,608 504,608 504,609 505,609 506,609 506,609 507,609 507,610 508,610 508,609 509,609 509,609 510,610 511,610 511,611 512,611 512,611 513,612 513,612 514,612 514,612 515,612 516,613 517,613 517,613 518,613 518,613 519,614 519,614 520,614 520,614 521,614 522,614 523,614 523,614 524,614 524,614 525,615 525,615 526,614 527,615 528,615 528,614 529,614 529,615 530,615 530,615 531,615 531,615 532,615 533,615 533,616 534,615 534,615 535,616 535,616 536,615 536,615 537,616 538,615 538,615 539,615 539,613 540,614 540,614 541,614 541,614 542,614 543,615 543,615 544,615 544,615 545,615 545,614 546,614 546,614 547,613 547,613 548,613 549,612 549,612 550,611 550,611 551,611 551,612 552,611 552,611 553,611 554,612 554,612 555,612 555,612 556,612 556,613 557,613 557,613 558,613 559,613 559,614 560,615 560,615 561,615 561,614 562,615 562,614 563,614 564,614 564,615 565,615 565,615 566,615 566,616 567,616 567,615 568,615 568,615 569,616 570,616 570,615 571,615 571,616 572,616 572,616 573,616 573,616 574,616 575,616 575,616 576,616 576,616 577,616 577,617 578,616 578,616 579,615 580,615 580,615 581,615 581,616 582,615 582,615 583,615 583,615 584,615 584,615 585,615 586,615 586,615 587,615 587,616 588,616 588,616 589,617 589,617 590,617 591,618 591,618 592,618 592,618 593,618 593,618 594,618 594,618 595,618 596,618 596,619 597,618 597,619 598,619 598,619 599,619 599,619 600,619 600,619 601,619 602,619 602,618 603,619 603,619 604,619 604,619 605,619 605,619 606,619 607,619 607,619 608,619 608,619 609,619 609,619 610,620 610,620 611,619 612,619 612,619 613,619 613,619 614,619 614,619 615,619 615,620 616,619 616,619 617,619 618,619 618,620 619,620 619,620 620,620 620,620 621,620 621,620 622,620 623,620 624,620 624,620 625,620 625,621 626,621 626,621 627,621 628,621 628,621 629,621 629,621 630,621 630,622 631,622 631,622 632,622 633,622 633,622 634,622 634,621 635,622 635,622 636,622 636,622 637,622 637,622 638,623 639,623 639,623 640,623 640,623 641,623 641,623 642,623 642,624 643,624 644,624 644,624 645,624 645,624 646,625 646,625 647,625 647,624 648,625 649,625 649,625 650,626 650,626 651,626 651,626 652,626 652,626 653,627 653,627 654,627 655,627 655,626 656,626 656,626 657,626 657,626 658,626 658,626 659,626 660,626 660,626 661,627 661,626 662,626 662,627 663,627 663,627 664,627 665,628 665,628 666,628 666,628 666,628 667,628 667,628 668,628 668,629 669,629 669,629 670,629 671,629 671,630 672,630 672,629 673,629 673,630 674,630 674,630 675,630 676,630 676,632 677,631 677,631 678,631 678,631 679,631 679,632 680,632 681,632 681,633 682,633 682,633 683,633 683,633 684,633 684,633 685,634 685,634 686,634 687,634 687,634 688,634 688,634 689,634 689,634 690,634 690,634 691,634 692,634 692,635 693,635 693,635 694,635 694,635 695,635 695,635 696,635 697,636 697,636 698,636 698,636 699,636 699,636 700,636 700,636 701,637 702,636 702,636 703,636 703,637 704,637 704,637 705,637 705,637 706,637 706,637 707,637 708,638 708,637 709,637 709,637 710,638 710,638 711,638 711,638 712,638 713,638 713,638 714,638 714,639 715,639 715,639 716,639 716,639 717,639 718,639 718,639 719,640 719,640 720,639 720,640 721,640 721,639 722,640 722,640 723,644 724,644 724,644 725,640 725,640 726,641 726,641 727,641 727,641 728,641 729,642 729,642 730,642 730,642 731,642 731,642 732,643 732,643 733,643 734,643 734,644 735,644 735,644 736,644 736,644 737,644 737,645 738,645 738,645 739,645 740,645 740,645 741,645 741,645 742,645 742,645 743,645 743,645 744,645 745,645 745,646 746,646 746,646 747,646 747,647 748,647 748,647 749,647 750,647 750,647 751,646 751,647 752,647 752,647 753,647 753,647 754,647 755,647 755,647 756,647 756,646 757,646 757,645 758,645 758,645 759,645 759,645 760,645 761,645 761,645 762,645 762,646 763,646 763,646 764,646 764,646 765,646 766,646 766,646 767,647 767,647 768,647 768,647 769,647 769,647 770,647 771,647 771,647 772,647 772,647 773,647 773,647 774,648 774,648 775,648 775,648 776,648 777,648 777,648 778,648 778,649 779,649 779,649 780,649 780,649 781,649 782,648 782,648 783,648 783,649 784,649 784,649 785,649 785,649 786,649 787,649 787,649 788,649 788,649 789,649 789,649 790,649 790,649 791,649 791,649 792,649 793,649 793,649 794,649 794,649 795,649 795,649 796,649 796,649 797,649 798,649 798,649 799,649 799,649 800,649 800,650 801,650 801,650 802,650 803,650 803,650 804,650 804,650 805,650 805,650 806,650 806,650 807,651 807,650 808,650 809,650 809,651 810,651 810,651 811,651 811,651 812,651 812,651 813,651 814,651 814,651 815,652 815,652 816,652 816,652 817,653 817,653 818,653 819,653 819,653 820,653 820,653 821,653 821,654 822,654 822,653 823,653 824,651 824,651 825,651 825,651 826,651 826,651 827,651 827,651 828,651 828,651 829,650 830,650 830,650 831,650 831,650 832,650 832,650 833,650 833,650 834,650 835,650 835,650 836,650 836,650 837,650 837,650 838,650 838,650 839,650 840,650 840,650 841,651 841,651 842,651 842,651 843,651 843,651 844,651 844,651 845,651 846,651 846,651 847,651 847,651 848,652 848,651 849,651 849,651 850,652 851,652 851,652 852,652 852,652 853,651 853,651 854,651 854,651 855,651 856,651 856,652 857,652 857,652 858,652 858,652 859,652 859,652 860,652 860,652 861,652 862,652 862,652 863,652 863,653 864,652 864,653 865,653 865,653 866,653 867,653 867,653 868,654 868,654 869,654 869,654 870,655 870,655 871,655 872,655 872,655 873,655 873,655 874,656 874,656 875,656 875,656 876,656 877,656 877,656 878,656 878,656 879,656 879,656 879,656 880,656 880,656 881,657 881,656 882,656 883,656 883,657 884,656 884,656 885,657 885,657 886,657 886,657 887,657 888,657 888,658 889,657 889,657 890,657 890,657 891,657 891,658 892,658 893,658 893,658 894,658 894,658 895,658 895,658 896,658 896,658 897,658 897,659 898,659 899,659 899,659 900,659 900,659 901,659 901,659 902,659 902,659 903,659 904,659 904,659 905,659 905,659 906,660 906,660 907,660 907,660 908,660 909,660 909,660 910,660 910,660 911,660 911,660 912,661 912,661 913,661 913,661 914,662 915,662 915,662 916,662 916,662 917,662 917,662 918,662 918,662 919,662 920,662 920,662 921,662 921,662 922,662 922,662 923,663 923,663 924,663 925,663 925,663 926,663 926,663 927,663 927,663 928,663 928,664 929,664 929,664 930,664 931,664 931,665 932,665 932,665 933,665 933,665 934,665 934,665 935,665 936,665 936,665 937,665 937,665 938,665 938,666 939,666 939,666 940,666 941,666 941,666 942,667 942,667 943,667 943,667 944,667 944,667 945,667 946,667 946,667 947,667 947,667 948,668 948,667 949,667 949,668 950,667 950,667 951,667 952,668 952,668 953,668 953,668 954,669 954,669 955,669 955,669 956,669 957,669 957,669 957,669 957,669 958,670 958,670 958,670 959,670 959,670 959,670 960,670 960,670 960,670 960,670 961,670 961,670 962,670 962,670 962,670 962,670 963,670 963,670 963,670 963,670 964,670 964,670 964,670 964,670 965,670 965,670 965,670 966,670 966,670 967,670 967,670 968,670 968,670 968,670 968,671 969,671 969,671 969,671 969,671 970,671 970,671 970,671 971,671 971,671 971,671 971,671 972,671 972,671 973,671 973,671 973,671 973,671 974,671 974,671 974,671 974,671 975,671 975,671 975,671 975,672 976,672 976,672 976,672 977,672 977,672 978,672 978,672 978,672 978,672 979,672 979,671 979,671 979,671 980,671 980,671 980,671 980,671 981,671 981,671 981,671 981,671 982,671 982,671 982,671 983,671 984,671 984,671 984,671 984,672 985,672 985,671 985,671 985,671 986,671 986,671 986,671 986,672 987,672 987,672 987,672 987,672 988,672 988,672 989,672 989,672 989,672 990,672 990,672 990,672 990,672 991,672 991,672 991,672 991,672 992,672 992,672 992,673 993,673 993,673 994,673 994,673 994,673 994,674 995,674 995,674 995,674 995,674 996,674 996,674 996,674 996,674 997,674 997,674 997,674 997,674 998,674 998,674 998,674 998,674 999,674 999,674 1000,674 1000,674 1000,674 1000,673 1001,673 1001,674 1001,674 1001,674 1002,674 1002,673 1002,673 1003,673 1003,673 1003,673 1003,673 1004,673 1004,673 1005,673 1005,673 1005,673 1005,673 1006,673 1006,673 1006,673 1006,673 1007,673 1007,673 1007,673 1007,674 1008,674 1008,674 1008,674 1009,674 1009,674 1010,674 1010,674 1010,674 1010,674 1011,674 1011,674 1011,674 1012,674 1012,674 1012,674 1013,674 1013,674 1013,675 1014,675 1014,675 1015,675 1015,675 1015,675 1015,675 1016,675 1016,675 1016,675 1016,675 1017,675 1017,675 1017,675 1017,675 1018,675 1018,675 1018,675 1018,675 1019,675 1019,675 1019,675 1020,675 1020,675 1021,675 1021,675 1021,675 1021,675 1022,675 1022,675 1022,675 1022,675 1023,675 1023,675 1023,675 1023,675 1024,675 1024,675 1024,675 1024,675 1025,675 1025,675 1026,675 1026,675 1026,675 1026,676 1027,676 1027,676 1027,676 1027,675 1028,675 1028,675 1028,675 1029,675 1029,675 1029,675 1029,675 1030,675 1030,675 1031,675 1031,675 1031,675 1031,675 1032,675 1032,675 1032,675 1033,675 1033,675 1033,675 1033,676 1034,676 1034,676 1034,676 1034,676 1035,676 1035,676 1035,676 1035,676 1036,676 1036,676 1037,676 1037,676 1037,676 1037,676 1038,676 1038,676 1038,676 1038,676 1039,676 1039,676 1039,676 1039,677 1040,677 1040,677 1040,677 1040,677 1041,677 1041,677 1042,677 1042,677 1042,677 1042,677 1043,677 1043,677 1043,677 1044,677 1044,677 1044,677 1044,677 1045,677 1045,677 1045,677 1045,677 1046,677 1046,677 1047,677 1047,677 1047,677 1047,677 1048,677 1048,677 1048,677 1048,677 1049,677 1049,677 1049,677 1049,677 1050,677 1050,678 1050,678 1050,678 1051,678 1051,678 1051,678 1051,678 1052,678 1052,678 1053,678 1053,678 1053,678 1053,678 1054,678 1054,678 1054,678 1054,678 1055,678 1055,678 1055,678 1055,679 1056,679 1056,679 1056,679 1056,679 1057,679 1057,679 1058,679 1058,679 1058,679 1059,679 1059,679 1059,679 1059,679 1060,679 1060,679 1060,679 1061,679 1061,679 1061,679 1061,678 1062,678 1062,678 1063,678 1063,679 1063,679 1063,679 1064,679 1064,679 1064,679 1064,679 1065,679 1065,679 1065,679 1065,679 1066,679 1066,679 1066,679 1067,679 1067,679 1068,679 1068,679 1068,679 1068,679 1069,679 1069,679 1069,679 1069,679 1070,679 1070,679 1070,679 1070,679 1071,679 1071,679 1071,679 1071,681 1072,681 1072,680 1072,680 1072,680 1073,680 1073,680 1074,680 1074,681 1074,681 1074,681 1075,681 1075,681 1075,681 1075,681 1076,681 1076,681 1076,681 1076,681 1077,681 1077,681 1077,681 1077,681 1078,681 1078,681 1079,681 1079,681 1079,681 1079,681 1080,681 1080,681 1080,681 1080,682 1081,682 1081,682 1081,682 1081,682 1082,682 1082,682 1082,682 1082,682 1083,682 1083,682 1084,682 1084,682 1084,682 1084,682 1085,682 1085,682 1085,682 1085,682 1086,682 1086,682 1086,682 1086,682 1087,682 1087,682 1087,682 1087,682 1088,682 1088,682 1088,682 1088,682 1089,682 1089,682 1090,682 1090,682 1090,682 1090,682 1091,682 1091,682 1091,682 1091,683 1092,683 1092,683 1092,683 1093,683 1093,683 1093,683 1093,683 1094,683 1094,683 1095,683 1095,683 1095,683 1095,683 1096,683 1096,683 1096,683 1096,683 1097,683 1097,683 1097,683 1097,683 1098,683 1098,683 1098,683 1098,683 1099,683 1099,683 1100,683 1100,684 1100,684 1100,684 1101,684 1101,684 1101,684 1101,684 1102,684 1102,684 1102,684 1102,686 1103,686 1103,686 1103,686 1104,686 1104,686 1104,686 1104,686 1105,686 1105,686 1106,686 1106,686 1106,686 1106,686 1107,686 1107,686 1107,686 1107,686 1108,686 1108,686 1108,686 1108,686 1109,686 1109,686 1109,686 1109,686 1110,686 1110,686 1111,686 1111,686 1111,686 1111,686 1112,686 1112,686 1112,686 1112,687 1113,687 1113,687 1113,687 1113,687 1114,687 1114,687 1114,687 1114,687 1115,687 1115,687 1116,687 1116,687 1116,687 1116,687 1117,687 1117,687 1117,687 1117,687 1118,687 1118,687 1118,687 1118,687 1119,687 1119,687 1119,687 1119,687 1120,687 1120,688 1120,688 1120,688 1121,688 1121,688 1122,688 1122,687 1122,687 1122,688 1123,688 1123,688 1123,688 1123,688 1124,688 1124,688 1124,688 1124,688 1125,688 1125,688 1125,688 1126,688 1126,688 1127,688 1127,688 1127,688 1127,688 1128,688 1128,688 1128,688 1128,688 1129,688 1129,688 1129,688 1129,688 1130,688 1130,688 1130,688 1130,688 1131,688 1131,688 1132,688 1132,688 1132,688 1132,688 1133,688 1133,688 1133,688 1133,688 1134,688 1134,688 1134,688 1134,688 1135,688 1135,689 1135,689 1135,689 1136,689 1136,688 1137,688 1137,689 1137,689 1137,689 1138,689 1138,689 1138,689 1138,689 1139,689 1139,689 1139,689 1139,689 1140,689 1140,689 1140,689 1140,689 1141,689 1141,689 1141,689 1141,689 1142,689 1142,689 1143,689 1143,689 1143,689 1143,690 1144,690 1144,690 1144,690 1144,690 1145,690 1145,690 1145,690 1145,690 1146,690 1146,690 1146,690 1146,690 1147,690 1147,690 1148,690 1148,690 1148,690 1148,690 1149,690 1149,690 1149,690 1149,690 1150,690 1150,690 1150,690 1150,690 1151,690 1151,690 1151,690 1151,690 1152,690 1152,690 1153,690 1153,690 1153,690 1153,690 1154,690 1154,690 1154,690 1154,690 1155,690 1155,690 1155,690 1156,690 1156,691 1156,691 1156,690 1157,690 1157,690 1157,690 1157,690 1158,690 1158,690 1159,690 1159,691 1159,691 1159,691 1160,691 1160,691 1160,691 1160,691 1161,691 1161,691 1161,691 1161,692 1162,692 1162,692 1162,692 1162,692 1163,692 1163,692 1164,692 1164,692 1164,692 1164,692 1165,692 1165,692 1165,692 1165,692 1166,692 1166,692 1166,692 1166,692 1167,692 1167,692 1167,692 1168,692 1168,692 1169,692 1169,692 1169,692 1169,692 1170,692 1170,693 1170,693 1170,693 1171,693 1171,693 1171,693 1171,693 1172,693 1172,693 1172,693 1172,693 1173,693 1173,693 1173,693 1173,693 1174,693 1174,693 1175,693 1175,693 1175,693 1175,693 1176,693 1176,694 1176,694 1177,694 1177,694 1177,694 1177,694 1178,694 1178,694 1178,694 1178,694 1179,694 1180,694 1180,694 1180,694 1180,694 1181,694 1181,694 1181,694 1181,694 1182,694 1182,694 1182,694 1182,694 1183,694 1183,694 1183,694 1183,694 1184,694 1184,694 1185,694 1185,694 1185,694 1186,694 1186,694 1186,694 1186,694 1187,694 1187,694 1187,694 1187,694 1188,694 1188,695 1188,695 1188,694 1189,694 1189,694 1190,694 "/>
<polyline fill="none" opacity="1" stroke="#5419E6" stroke-width="2" points="788,738 789,738 793,738 798,737 799,736 802,736 804,736 805,735 805,732 806,732 807,732 809,732 813,731 814,731 815,731 816,731 816,731 823,731 827,731 827,730 828,730 830,729 833,729 834,728 835,728 835,727 836,727 836,727 838,727 839,727 840,727 842,727 842,726 843,726 843,725 846,725 847,725 847,725 848,724 849,724 851,724 851,724 852,724 852,724 854,724 856,724 857,724 858,724 858,723 859,723 860,723 860,723 861,723 862,723 863,723 864,723 864,723 865,722 866,723 867,723 867,723 868,722 868,721 869,721 869,721 870,721 870,722 871,722 872,722 873,722 873,722 874,721 874,721 875,721 875,721 877,721 878,721 878,721 879,721 879,721 879,721 880,720 880,720 881,720 881,720 882,719 883,719 884,719 884,718 885,718 886,718 886,717 887,717 888,717 888,717 889,717 890,717 891,717 891,716 892,716 893,716 893,715 894,715 894,715 895,714 896,714 896,714 897,714 897,714 898,714 899,714 900,713 900,713 901,714 902,713 903,713 904,713 904,713 906,714 906,714 907,714 907,714 909,713 910,713 911,713 911,713 913,712 913,713 914,713 915,712 915,712 916,712 916,712 917,712 917,712 918,712 918,712 919,711 920,711 920,712 921,712 921,712 922,712 922,711 923,711 923,712 924,711 925,711 925,711 926,711 926,711 927,711 927,711 928,711 929,711 929,710 930,710 931,710 931,710 932,710 932,709 933,709 934,709 934,710 935,710 936,710 936,710 937,709 937,709 938,709 938,709 939,709 939,708 940,708 941,708 941,709 942,709 942,708 943,708 943,708 944,708 944,708 945,708 946,708 946,708 947,708 947,708 948,708 948,708 949,708 949,708 950,708 950,708 951,707 952,708 953,708 953,708 954,708 954,708 955,708 955,708 956,708 957,708 957,708 957,708 957,708 958,708 958,708 958,708 959,708 959,708 959,708 960,708 960,708 960,708 960,708 961,708 961,708 962,708 962,707 962,707 962,707 963,707 963,707 963,707 963,708 964,708 964,707 964,707 964,707 965,707 965,707 965,707 966,707 966,707 966,707 967,707 967,707 968,707 968,707 968,707 968,707 969,707 969,706 969,706 969,707 970,707 970,707 970,707 971,707 971,706 971,706 971,706 972,706 972,706 973,706 973,707 973,707 973,707 974,707 974,707 974,707 974,707 975,707 975,707 975,707 975,707 976,707 976,707 977,707 977,707 978,707 978,707 978,707 978,707 979,707 979,707 979,707 979,707 980,707 980,707 980,707 980,707 981,707 981,707 981,707 981,707 982,707 982,707 983,707 984,707 984,707 984,707 984,707 985,707 985,707 985,707 985,707 986,707 986,707 986,707 986,707 987,707 987,706 987,706 987,706 988,707 989,707 989,707 989,707 990,707 990,707 990,707 990,707 991,707 991,707 991,707 991,706 992,706 992,706 992,706 993,706 993,706 994,706 994,706 994,706 994,706 995,706 995,706 995,706 995,706 996,706 996,706 996,706 997,706 997,706 997,706 997,707 998,707 998,706 998,706 998,707 999,707 999,706 1000,706 1000,706 1000,706 1000,706 1001,706 1001,707 1001,707 1001,707 1002,707 1002,706 1002,706 1003,706 1003,706 1003,706 1003,706 1004,706 1004,706 1005,706 1005,707 1005,707 1005,707 1006,707 1006,707 1006,707 1006,707 1007,707 1007,707 1007,707 1007,707 1008,707 1008,707 1009,707 1009,707 1010,707 1010,707 1010,707 1010,707 1011,707 1011,707 1011,707 1012,707 1012,707 1012,707 1013,707 1013,707 1013,707 1014,707 1014,707 1015,707 1015,707 1015,707 1015,706 1016,706 1016,706 1016,706 1017,706 1017,706 1017,706 1017,706 1018,706 1018,706 1018,706 1018,706 1019,706 1019,706 1019,706 1020,706 1020,706 1021,706 1021,707 1021,707 1021,707 1022,707 1022,707 1022,707 1022,707 1023,707 1023,706 1023,706 1023,707 1024,707 1024,707 1024,707 1024,707 1025,707 1025,707 1026,707 1026,707 1026,707 1027,707 1027,707 1027,707 1027,707 1028,707 1028,707 1028,707 1029,707 1029,707 1029,707 1029,707 1030,707 1030,707 1031,707 1031,707 1031,707 1031,707 1032,707 1032,707 1032,707 1033,707 1033,707 1033,707 1033,707 1034,707 1034,707 1034,707 1034,707 1035,707 1035,707 1035,707 1035,707 1036,707 1036,707 1037,707 1037,707 1037,707 1037,707 1038,707 1038,707 1038,707 1038,707 1039,707 1039,707 1039,707 1039,707 1040,707 1040,707 1040,707 1040,707 1041,707 1041,707 1042,707 1042,707 1042,707 1042,707 1043,707 1043,707 1043,707 1044,707 1044,707 1044,707 1044,707 1045,707 1045,707 1045,707 1045,707 1046,707 1046,707 1047,707 1047,707 1047,707 1047,707 1048,707 1048,707 1048,707 1048,707 1049,707 1049,707 1049,707 1049,707 1050,707 1050,707 1050,707 1050,706 1051,706 1051,707 1051,707 1052,707 1052,706 1053,706 1053,706 1053,706 1053,706 1054,706 1054,706 1054,706 1054,706 1055,706 1055,706 1055,706 1055,706 1056,706 1056,706 1056,706 1056,706 1057,706 1057,706 1058,706 1058,706 1058,706 1059,706 1059,706 1059,706 1059,706 1060,706 1060,706 1061,706 1061,706 1061,706 1061,706 1063,706 1063,706 1063,706 1063,706 1064,706 1064,706 1064,706 1064,705 1065,705 1065,705 1065,705 1065,705 1066,706 1066,706 1066,706 1067,706 1067,706 1068,706 1068,706 1068,706 1068,706 1069,706 1069,706 1069,706 1069,706 1070,706 1070,706 1070,706 1071,706 1071,706 1071,706 1071,704 1072,704 1072,704 1072,704 1072,704 1073,704 1073,704 1074,704 1074,704 1074,704 1074,704 1075,704 1075,704 1075,704 1075,704 1076,704 1076,704 1076,704 1076,704 1077,704 1077,704 1077,704 1078,704 1078,706 1079,706 1079,706 1079,706 1079,706 1080,706 1080,705 1080,705 1080,705 1081,705 1081,705 1081,705 1081,705 1082,705 1082,705 1082,705 1082,705 1083,705 1083,705 1084,705 1084,705 1084,705 1084,705 1085,705 1085,705 1085,705 1085,705 1086,705 1086,705 1086,705 1086,705 1087,705 1087,705 1087,705 1087,705 1088,705 1088,705 1088,705 1088,705 1089,705 1089,705 1090,705 1090,705 1090,705 1090,706 1091,706 1091,706 1091,706 1091,706 1092,706 1092,706 1092,706 1093,706 1093,706 1093,706 1093,706 1094,706 1094,706 1095,706 1095,706 1095,706 1095,706 1096,706 1096,706 1096,706 1096,706 1097,706 1097,707 1097,707 1097,707 1098,706 1098,706 1098,706 1098,706 1099,706 1099,706 1100,706 1100,706 1100,706 1100,707 1101,707 1101,706 1101,706 1101,706 1102,706 1102,706 1102,706 1102,708 1103,708 1103,708 1103,708 1104,708 1104,708 1104,708 1104,708 1105,708 1105,708 1106,708 1106,708 1106,708 1106,708 1107,708 1107,708 1107,708 1107,708 1108,708 1108,708 1108,708 1108,708 1109,708 1109,708 1109,708 1109,708 1110,708 1111,708 1111,708 1111,708 1111,708 1112,708 1112,708 1112,708 1112,708 1113,708 1113,708 1113,708 1113,708 1114,708 1114,708 1114,708 1114,708 1115,708 1115,708 1116,708 1116,708 1116,708 1116,708 1117,708 1117,708 1117,708 1117,708 1118,708 1118,708 1118,708 1118,708 1119,708 1119,708 1119,708 1119,708 1120,708 1120,708 1120,708 1120,708 1121,708 1121,708 1122,708 1122,708 1122,708 1122,708 1123,708 1123,708 1123,708 1123,708 1124,708 1124,708 1124,708 1124,708 1125,708 1125,708 1125,708 1126,708 1126,708 1127,708 1127,708 1127,708 1127,708 1128,708 1128,708 1128,708 1128,708 1129,708 1129,708 1129,708 1129,708 1130,708 1130,708 1130,708 1130,708 1131,708 1131,708 1132,708 1132,708 1132,708 1132,708 1133,708 1133,708 1133,708 1133,708 1134,708 1134,708 1134,708 1134,708 1135,708 1135,708 1135,708 1135,708 1136,708 1136,708 1137,708 1137,708 1137,708 1137,708 1138,708 1138,708 1138,708 1138,708 1139,708 1139,708 1139,708 1139,708 1140,708 1140,708 1140,708 1140,708 1141,708 1141,708 1141,708 1141,708 1142,708 1142,708 1143,708 1143,708 1143,708 1143,708 1144,708 1144,708 1144,708 1144,708 1145,708 1145,708 1145,708 1145,708 1146,708 1146,708 1146,708 1146,708 1147,708 1147,708 1148,708 1148,708 1148,708 1148,708 1149,708 1149,708 1149,708 1149,708 1150,708 1150,708 1150,708 1151,708 1151,708 1151,708 1151,708 1152,708 1152,708 1153,708 1153,708 1153,708 1153,708 1154,708 1154,708 1154,708 1154,708 1155,708 1155,708 1155,708 1156,708 1156,708 1156,708 1156,708 1157,708 1157,708 1157,708 1157,707 1158,707 1158,707 1159,707 1159,707 1159,707 1159,707 1160,707 1160,707 1160,707 1160,707 1161,707 1161,707 1161,707 1161,707 1162,707 1162,707 1162,707 1162,708 1163,708 1163,708 1164,708 1164,708 1164,708 1164,708 1165,708 1165,708 1165,708 1165,708 1166,708 1166,708 1166,708 1166,708 1167,708 1167,708 1167,708 1168,708 1168,708 1169,708 1169,708 1169,708 1169,708 1170,708 1170,708 1170,708 1170,708 1171,708 1171,708 1171,708 1171,708 1172,708 1172,708 1172,708 1172,708 1173,708 1173,708 1173,708 1173,708 1174,708 1174,708 1175,708 1175,708 1175,708 1175,708 1176,708 1176,708 1176,708 1177,708 1177,708 1177,708 1177,708 1178,708 1178,708 1178,708 1178,708 1179,708 1180,708 1180,708 1180,708 1180,708 1181,708 1181,708 1181,708 1181,708 1182,708 1182,708 1182,708 1182,708 1183,708 1183,708 1183,708 1183,708 1184,708 1184,708 1185,708 1185,708 1185,708 1186,708 1186,708 1186,708 1186,708 1187,708 1187,708 1187,708 1187,708 1188,708 1188,708 1188,708 1188,708 1189,708 1189,708 1190,708 "/>
<polyline fill="none" opacity="1" stroke="#E619C8" stroke-width="2" points="874,738 875,737 875,737 876,736 877,736 878,735 878,735 879,735 879,735 879,735 880,735 880,734 881,734 881,734 882,733 883,733 883,733 884,733 884,732 885,732 885,731 886,730 887,730 888,730 888,728 889,727 889,727 890,726 890,725 891,725 891,724 892,724 893,723 893,723 894,723 894,723 895,720 895,719 896,718 896,717 897,716 897,716 898,716 899,716 899,716 900,716 900,716 901,714 901,714 902,714 902,714 903,714 904,714 904,713 905,714 905,713 906,712 906,712 907,712 907,711 908,711 909,710 909,710 910,709 910,707 911,707 911,707 912,706 912,706 913,706 913,706 914,704 915,703 915,702 916,700 916,700 917,699 917,699 918,698 918,698 919,698 920,697 920,697 921,696 921,696 922,695 922,694 923,694 923,692 924,691 925,690 925,690 926,688 926,688 927,688 927,687 928,687 928,685 929,683 929,683 930,682 931,681 931,681 932,681 932,681 933,680 933,679 934,677 934,677 935,676 936,674 936,674 937,673 937,673 938,673 938,672 939,672 939,672 940,671 941,671 941,670 942,670 942,669 943,669 943,669 944,668 944,668 945,667 946,667 946,666 947,667 947,665 948,664 948,664 949,663 949,662 950,662 950,663 951,661 952,660 952,660 953,660 953,659 954,657 954,656 955,655 955,655 956,654 957,654 957,653 957,653 957,653 958,653 958,653 958,651 959,651 959,651 959,650 960,650 960,649 960,649 960,646 961,646 961,646 962,646 962,645 962,645 962,644 963,644 963,643 963,643 963,642 964,642 964,642 964,642 964,641 965,641 965,640 965,639 966,639 966,638 966,638 967,638 967,638 968,638 968,637 968,637 968,637 969,637 969,637 969,637 969,636 970,636 970,636 970,635 971,635 971,635 971,635 971,634 972,634 972,633 973,633 973,632 973,632 973,632 974,632 974,631 974,631 974,631 975,631 975,628 975,628 975,627 976,624 976,624 976,623 977,623 977,621 978,621 978,621 978,621 978,620 979,620 979,618 979,618 979,617 980,617 980,616 980,616 980,616 981,616 981,615 981,615 981,614 982,614 982,613 982,613 983,612 984,612 984,610 984,610 984,609 985,609 985,609 985,609 985,608 986,608 986,608 986,608 986,607 987,607 987,606 987,606 987,605 988,605 988,604 989,602 989,602 989,602 990,602 990,600 990,600 990,598 991,598 991,597 991,597 991,597 992,596 992,596 992,594 993,594 993,592 994,592 994,590 994,590 994,590 995,590 995,590 995,590 995,589 996,589 996,588 996,588 996,587 997,587 997,582 997,582 997,580 998,580 998,579 998,579 998,578 999,578 999,577 1000,577 1000,577 1000,577 1000,576 1001,576 1001,574 1001,574 1001,572 1002,572 1002,571 1002,570 1003,570 1003,569 1003,569 1003,567 1004,567 1004,567 1005,567 1005,565 1005,565 1005,565 1006,565 1006,564 1006,564 1006,563 1007,563 1007,561 1007,561 1007,560 1008,559 1008,559 1008,559 1009,559 1009,558 1010,558 1010,557 1010,557 1010,555 1011,555 1011,554 1011,552 1012,550 1012,550 1012,549 1013,548 1013,548 1013,547 1014,547 1014,547 1015,547 1015,544 1015,544 1015,543 1016,543 1016,542 1016,542 1016,540 1017,540 1017,540 1017,540 1017,539 1018,539 1018,537 1018,537 1018,537 1019,537 1019,537 1019,536 1020,536 1020,534 1021,534 1021,532 1021,532 1021,532 1022,532 1022,531 1022,531 1022,530 1023,530 1023,529 1023,529 1023,528 1024,528 1024,528 1024,527 1024,527 1025,527 1025,526 1026,526 1026,525 1026,525 1026,525 1027,525 1027,525 1027,525 1027,524 1028,523 1028,523 1028,522 1029,522 1029,520 1029,520 1029,519 1030,519 1030,519 1031,519 1031,518 1031,518 1031,517 1032,517 1032,516 1032,513 1033,513 1033,512 1033,512 1033,511 1034,512 1034,511 1034,511 1034,510 1035,510 1035,510 1035,510 1035,510 1036,510 1036,508 1037,508 1037,508 1037,508 1037,508 1038,508 1038,507 1038,507 1038,506 1039,506 1039,506 1039,506 1039,505 1040,505 1040,504 1040,504 1040,502 1041,502 1041,501 1042,501 1042,500 1042,500 1042,498 1043,498 1043,498 1043,496 1044,496 1044,496 1044,496 1044,494 1045,494 1045,493 1045,493 1045,493 1046,493 1046,490 1047,490 1047,489 1047,489 1047,488 1048,488 1048,487 1048,487 1048,485 1049,485 1049,485 1049,485 1049,482 1050,482 1050,481 1050,481 1050,480 1051,480 1051,478 1051,478 1051,478 1052,478 1052,477 1053,477 1053,475 1053,475 1053,475 1054,475 1054,473 1054,473 1054,473 1055,473 1055,472 1055,472 1055,470 1056,470 1056,468 1056,468 1056,467 1057,467 1057,467 1058,467 1058,467 1058,466 1059,466 1059,464 1059,464 1059,462 1060,460 1060,460 1060,460 1061,460 1061,459 1061,459 1061,459 1062,459 1062,457 1063,457 1063,456 1063,456 1063,454 1064,454 1064,454 1064,454 1064,454 1065,454 1065,454 1065,454 1065,454 1066,454 1066,454 1066,452 1067,452 1067,451 1068,451 1068,450 1068,450 1068,450 1069,450 1069,450 1069,450 1069,449 1070,449 1070,448 1070,448 1070,448 1071,448 1071,447 1071,446 1071,446 1072,446 1072,445 1072,445 1072,443 1073,443 1073,443 1074,443 1074,442 1074,442 1074,442 1075,442 1075,440 1075,440 1075,439 1076,439 1076,438 1076,438 1076,438 1077,438 1077,437 1077,437 1077,436 1078,436 1078,433 1079,433 1079,433 1079,433 1079,432 1080,432 1080,431 1080,431 1080,430 1081,430 1081,428 1081,428 1081,428 1082,428 1082,427 1082,427 1082,426 1083,426 1083,426 1084,426 1084,425 1084,425 1084,423 1085,423 1085,422 1085,422 1085,421 1086,421 1086,419 1086,419 1086,418 1087,418 1087,417 1087,417 1087,416 1088,416 1088,415 1088,415 1088,415 1089,415 1089,415 1090,415 1090,413 1090,413 1090,412 1091,412 1091,411 1091,411 1091,410 1092,408 1092,408 1092,408 1093,408 1093,406 1093,406 1093,406 1094,406 1094,405 1095,405 1095,404 1095,404 1095,403 1096,403 1096,403 1096,403 1096,402 1097,402 1097,402 1097,402 1097,401 1098,401 1098,400 1098,400 1098,400 1099,399 1099,398 1100,398 1100,397 1100,397 1100,396 1101,396 1101,396 1101,396 1101,395 1102,395 1102,394 1102,394 1102,406 1103,405 1103,405 1103,404 1104,404 1104,404 1104,404 1104,403 1105,403 1105,402 1106,401 1106,401 1106,401 1107,401 1107,399 1107,399 1107,399 1108,399 1108,398 1108,398 1108,398 1109,398 1109,397 1109,397 1109,397 1110,397 1110,396 1111,396 1111,395 1111,395 1111,395 1112,395 1112,394 1112,394 1112,393 1113,393 1113,393 1113,393 1113,392 1114,392 1114,392 1114,392 1114,391 1115,391 1115,391 1116,391 1116,390 1116,390 1116,389 1117,389 1117,389 1117,388 1117,388 1118,388 1118,388 1118,388 1118,388 1119,388 1119,387 1119,387 1119,386 1120,386 1120,386 1120,386 1120,385 1121,384 1121,382 1122,382 1122,380 1122,380 1122,381 1123,380 1123,380 1123,380 1123,378 1124,378 1124,377 1124,377 1124,375 1125,375 1125,374 1125,373 1126,373 1126,372 1127,372 1127,371 1127,371 1127,371 1128,371 1128,370 1128,370 1128,369 1129,369 1129,369 1129,369 1129,369 1130,369 1130,368 1130,368 1130,366 1131,366 1131,366 1132,366 1132,365 1132,365 1132,363 1133,363 1133,362 1133,362 1133,361 1134,361 1134,360 1134,360 1134,358 1135,358 1135,357 1135,357 1135,356 1136,356 1136,356 1137,356 1137,354 1137,354 1137,353 1138,353 1138,352 1138,353 1138,352 1139,352 1139,352 1139,352 1139,350 1140,350 1140,350 1140,350 1140,349 1141,349 1141,348 1141,348 1141,347 1142,345 1142,344 1143,344 1143,343 1143,343 1143,343 1144,343 1144,342 1144,342 1144,341 1145,341 1145,334 1145,334 1145,333 1146,333 1146,331 1146,331 1146,331 1147,331 1147,329 1148,329 1148,328 1148,328 1148,329 1149,328 1149,327 1149,327 1149,326 1150,326 1150,324 1150,324 1150,323 1151,323 1151,323 1151,323 1151,322 1152,322 1152,320 1153,320 1153,320 1153,320 1153,320 1154,320 1154,319 1154,319 1154,318 1155,318 1155,316 1155,316 1156,316 1156,315 1156,315 1156,313 1157,313 1157,311 1157,311 1157,311 1158,311 1158,311 1159,310 1159,309 1159,309 1159,310 1160,310 1160,309 1160,309 1160,308 1161,308 1161,308 1161,308 1161,306 1162,306 1162,305 1162,305 1162,305 1163,305 1163,305 1164,305 1164,305 1164,305 1164,304 1165,304 1165,303 1165,303 1165,303 1166,303 1166,302 1166,302 1166,301 1167,300 1167,300 1167,299 1168,299 1168,299 1169,299 1169,298 1169,298 1169,298 1170,298 1170,297 1170,297 1170,297 1171,297 1171,296 1171,296 1171,296 1172,296 1172,296 1172,296 1172,295 1173,295 1173,294 1173,294 1173,293 1174,293 1174,290 1175,290 1175,289 1175,289 1175,289 1176,289 1176,288 1176,288 1177,288 1177,287 1177,287 1177,286 1178,286 1178,286 1178,286 1178,284 1179,284 1180,284 1180,282 1180,282 1180,281 1181,281 1181,281 1181,281 1181,280 1182,280 1182,279 1182,279 1182,278 1183,278 1183,278 1183,278 1183,278 1184,278 1184,276 1185,276 1185,275 1185,274 1186,274 1186,273 1186,273 1186,271 1187,271 1187,270 1187,270 1187,269 1188,269 1188,267 1188,267 1188,266 1189,266 1189,265 1190,265 "/>
<rect x="65" y="315" width="107" height="119" opacity="1" fill="#FFFFFF" stroke="none"/>
<rect x="65" y="315" width="107" height="119" opacity="1" fill="none" stroke="#000000"/>
<text x="105" y="325" dy="0.76em" text-anchor="start" font-family="sans-serif" font-size="9.67741935483871" opacity="1" fill="#000000">
anyhow
</text>
<text x="105" y="340" dy="0.76em" text-anchor="start" font-family="sans-serif" font-size="9.67741935483871" opacity="1" fill="#000000">
err-derive
</text>
<text x="105" y="355" dy="0.76em" text-anchor="start" font-family="sans-serif" font-size="9.67741935483871" opacity="1" fill="#000000">
error-chain
</text>
<text x="105" y="370" dy="0.76em" text-anchor="start" font-family="sans-serif" font-size="9.67741935483871" opacity="1" fill="#000000">
failure
</text>
<text x="105" y="385" dy="0.76em" text-anchor="start" font-family="sans-serif" font-size="9.67741935483871" opacity="1" fill="#000000">
quick-error
</text>
<text x="105" y="400" dy="0.76em" text-anchor="start" font-family="sans-serif" font-size="9.67741935483871" opacity="1" fill="#000000">
snafu
</text>
<text x="105" y="415" dy="0.76em" text-anchor="start" font-family="sans-serif" font-size="9.67741935483871" opacity="1" fill="#000000">
thiserror
</text>
<polyline fill="none" opacity="1" stroke="#E61919" stroke-width="2" points="75,330 95,330 "/>
<polyline fill="none" opacity="1" stroke="#E6C819" stroke-width="2" points="75,344 95,344 "/>
<polyline fill="none" opacity="1" stroke="#54E619" stroke-width="2" points="75,359 95,359 "/>
<polyline fill="none" opacity="1" stroke="#19E68E" stroke-width="2" points="75,374 95,374 "/>
<polyline fill="none" opacity="1" stroke="#198EE6" stroke-width="2" points="75,390 95,390 "/>
<polyline fill="none" opacity="1" stroke="#5419E6" stroke-width="2" points="75,404 95,404 "/>
<polyline fill="none" opacity="1" stroke="#E619C8" stroke-width="2" points="75,419 95,419 "/>
</svg>
