<svg width="1200" height="800" xmlns="http://www.w3.org/2000/svg">
<rect x="0" y="0" width="1199" height="799" opacity="1" fill="#FFFFFF" stroke="none"/>
<line opacity="0.1" stroke="#000000" stroke-width="1" x1="60" y1="723" x2="1190" y2="723"/>
<line opacity="0.1" stroke="#000000" stroke-width="1" x1="60" y1="708" x2="1190" y2="708"/>
<line opacity="0.1" stroke="#000000" stroke-width="1" x1="60" y1="692" x2="1190" y2="692"/>
<line opacity="0.1" stroke="#000000" stroke-width="1" x1="60" y1="677" x2="1190" y2="677"/>
<line opacity="0.1" stroke="#000000" stroke-width="1" x1="60" y1="661" x2="1190" y2="661"/>
<line opacity="0.1" stroke="#000000" stroke-width="1" x1="60" y1="646" x2="1190" y2="646"/>
<line opacity="0.1" stroke="#000000" stroke-width="1" x1="60" y1="630" x2="1190" y2="630"/>
<line opacity="0.1" stroke="#000000" stroke-width="1" x1="60" y1="615" x2="1190" y2="615"/>
<line opacity="0.1" stroke="#000000" stroke-width="1" x1="60" y1="599" x2="1190" y2="599"/>
<line opacity="0.1" stroke="#000000" stroke-width="1" x1="60" y1="584" x2="1190" y2="584"/>
<line opacity="0.1" stroke="#000000" stroke-width="1" x1="60" y1="568" x2="1190" y2="568"/>
<line opacity="0.1" stroke="#000000" stroke-width="1" x1="60" y1="553" x2="1190" y2="553"/>
<line opacity="0.1" stroke="#000000" stroke-width="1" x1="60" y1="537" x2="1190" y2="537"/>
<line opacity="0.1" stroke="#000000" stroke-width="1" x1="60" y1="522" x2="1190" y2="522"/>
<line opacity="0.1" stroke="#000000" stroke-width="1" x1="60" y1="506" x2="1190" y2="506"/>
<line opacity="0.1" stroke="#000000" stroke-width="1" x1="60" y1="491" x2="1190" y2="491"/>
<line opacity="0.1" stroke="#000000" stroke-width="1" x1="60" y1="475" x2="1190" y2="475"/>
<line opacity="0.1" stroke="#000000" stroke-width="1" x1="60" y1="460" x2="1190" y2="460"/>
<line opacity="0.1" stroke="#000000" stroke-width="1" x1="60" y1="444" x2="1190" y2="444"/>
<line opacity="0.1" stroke="#000000" stroke-width="1" x1="60" y1="429" x2="1190" y2="429"/>
<line opacity="0.1" stroke="#000000" stroke-width="1" x1="60" y1="413" x2="1190" y2="413"/>
<line opacity="0.1" stroke="#000000" stroke-width="1" x1="60" y1="398" x2="1190" y2="398"/>
<line opacity="0.1" stroke="#000000" stroke-width="1" x1="60" y1="382" x2="1190" y2="382"/>
<line opacity="0.1" stroke="#000000" stroke-width="1" x1="60" y1="367" x2="1190" y2="367"/>
<line opacity="0.1" stroke="#000000" stroke-width="1" x1="60" y1="351" x2="1190" y2="351"/>
<line opacity="0.1" stroke="#000000" stroke-width="1" x1="60" y1="335" x2="1190" y2="335"/>
<line opacity="0.1" stroke="#000000" stroke-width="1" x1="60" y1="320" x2="1190" y2="320"/>
<line opacity="0.1" stroke="#000000" stroke-width="1" x1="60" y1="304" x2="1190" y2="304"/>
<line opacity="0.1" stroke="#000000" stroke-width="1" x1="60" y1="289" x2="1190" y2="289"/>
<line opacity="0.1" stroke="#000000" stroke-width="1" x1="60" y1="273" x2="1190" y2="273"/>
<line opacity="0.1" stroke="#000000" stroke-width="1" x1="60" y1="258" x2="1190" y2="258"/>
<line opacity="0.1" stroke="#000000" stroke-width="1" x1="60" y1="242" x2="1190" y2="242"/>
<line opacity="0.1" stroke="#000000" stroke-width="1" x1="60" y1="227" x2="1190" y2="227"/>
<line opacity="0.1" stroke="#000000" stroke-width="1" x1="60" y1="211" x2="1190" y2="211"/>
<line opacity="0.1" stroke="#000000" stroke-width="1" x1="60" y1="196" x2="1190" y2="196"/>
<line opacity="0.1" stroke="#000000" stroke-width="1" x1="60" y1="180" x2="1190" y2="180"/>
<line opacity="0.1" stroke="#000000" stroke-width="1" x1="60" y1="165" x2="1190" y2="165"/>
<line opacity="0.1" stroke="#000000" stroke-width="1" x1="60" y1="149" x2="1190" y2="149"/>
<line opacity="0.1" stroke="#000000" stroke-width="1" x1="60" y1="134" x2="1190" y2="134"/>
<line opacity="0.1" stroke="#000000" stroke-width="1" x1="60" y1="118" x2="1190" y2="118"/>
<line opacity="0.1" stroke="#000000" stroke-width="1" x1="60" y1="103" x2="1190" y2="103"/>
<line opacity="0.1" stroke="#000000" stroke-width="1" x1="60" y1="87" x2="1190" y2="87"/>
<line opacity="0.1" stroke="#000000" stroke-width="1" x1="60" y1="72" x2="1190" y2="72"/>
<line opacity="0.1" stroke="#000000" stroke-width="1" x1="60" y1="56" x2="1190" y2="56"/>
<line opacity="0.1" stroke="#000000" stroke-width="1" x1="60" y1="41" x2="1190" y2="41"/>
<line opacity="0.1" stroke="#000000" stroke-width="1" x1="60" y1="25" x2="1190" y2="25"/>
<line opacity="0.1" stroke="#000000" stroke-width="1" x1="60" y1="10" x2="1190" y2="10"/>
<text x="10" y="375" dy="0.76em" text-anchor="middle" font-family="sans-serif" font-size="9.67741935483871" opacity="1" fill="#000000" transform="rotate(270, 10, 375)">
Number of dependent crates
</text>
<line opacity="0.2" stroke="#000000" stroke-width="1" x1="60" y1="584" x2="1190" y2="584"/>
<line opacity="0.2" stroke="#000000" stroke-width="1" x1="60" y1="429" x2="1190" y2="429"/>
<line opacity="0.2" stroke="#000000" stroke-width="1" x1="60" y1="273" x2="1190" y2="273"/>
<line opacity="0.2" stroke="#000000" stroke-width="1" x1="60" y1="118" x2="1190" y2="118"/>
<polyline fill="none" opacity="1" stroke="#000000" stroke-width="1" points="59,10 59,740 "/>
<text x="50" y="584" dy="0.5ex" text-anchor="end" font-family="sans-serif" font-size="9.67741935483871" opacity="1" fill="#000000">
500
</text>
<polyline fill="none" opacity="1" stroke="#000000" stroke-width="1" points="54,584 59,584 "/>
<text x="50" y="429" dy="0.5ex" text-anchor="end" font-family="sans-serif" font-size="9.67741935483871" opacity="1" fill="#000000">
1000
</text>
<polyline fill="none" opacity="1" stroke="#000000" stroke-width="1" points="54,429 59,429 "/>
<text x="50" y="273" dy="0.5ex" text-anchor="end" font-family="sans-serif" font-size="9.67741935483871" opacity="1" fill="#000000">
1500
</text>
<polyline fill="none" opacity="1" stroke="#000000" stroke-width="1" points="54,273 59,273 "/>
<text x="50" y="118" dy="0.5ex" text-anchor="end" font-family="sans-serif" font-size="9.67741935483871" opacity="1" fill="#000000">
2000
</text>
<polyline fill="none" opacity="1" stroke="#000000" stroke-width="1" points="54,118 59,118 "/>
<polyline fill="none" opacity="1" stroke="#000000" stroke-width="1" points="60,740 1190,740 "/>
<text x="60" y="750" dy="0.76em" text-anchor="middle" font-family="sans-serif" font-size="9.67741935483871" opacity="1" fill="#000000">
2015-09-24Z
</text>
<polyline fill="none" opacity="1" stroke="#000000" stroke-width="1" points="60,740 60,745 "/>
<text x="176" y="750" dy="0.76em" text-anchor="middle" font-family="sans-serif" font-size="9.67741935483871" opacity="1" fill="#000000">
2016-03-24Z
</text>
<polyline fill="none" opacity="1" stroke="#000000" stroke-width="1" points="176,740 176,745 "/>
<text x="293" y="750" dy="0.76em" text-anchor="middle" font-family="sans-serif" font-size="9.67741935483871" opacity="1" fill="#000000">
2016-09-22Z
</text>
<polyline fill="none" opacity="1" stroke="#000000" stroke-width="1" points="293,740 293,745 "/>
<text x="410" y="750" dy="0.76em" text-anchor="middle" font-family="sans-serif" font-size="9.67741935483871" opacity="1" fill="#000000">
2017-03-23Z
</text>
<polyline fill="none" opacity="1" stroke="#000000" stroke-width="1" points="410,740 410,745 "/>
<text x="527" y="750" dy="0.76em" text-anchor="middle" font-family="sans-serif" font-size="9.67741935483871" opacity="1" fill="#000000">
2017-09-21Z
</text>
<polyline fill="none" opacity="1" stroke="#000000" stroke-width="1" points="527,740 527,745 "/>
<text x="644" y="750" dy="0.76em" text-anchor="middle" font-family="sans-serif" font-size="9.67741935483871" opacity="1" fill="#000000">
2018-03-22Z
</text>
<polyline fill="none" opacity="1" stroke="#000000" stroke-width="1" points="644,740 644,745 "/>
<text x="761" y="750" dy="0.76em" text-anchor="middle" font-family="sans-serif" font-size="9.67741935483871" opacity="1" fill="#000000">
2018-09-20Z
</text>
<polyline fill="none" opacity="1" stroke="#000000" stroke-width="1" points="761,740 761,745 "/>
<text x="877" y="750" dy="0.76em" text-anchor="middle" font-family="sans-serif" font-size="9.67741935483871" opacity="1" fill="#000000">
2019-03-21Z
</text>
<polyline fill="none" opacity="1" stroke="#000000" stroke-width="1" points="877,740 877,745 "/>
<text x="994" y="750" dy="0.76em" text-anchor="middle" font-family="sans-serif" font-size="9.67741935483871" opacity="1" fill="#000000">
2019-09-19Z
</text>
<polyline fill="none" opacity="1" stroke="#000000" stroke-width="1" points="994,740 994,745 "/>
<text x="1111" y="750" dy="0.76em" text-anchor="middle" font-family="sans-serif" font-size="9.67741935483871" opacity="1" fill="#000000">
2020-03-19Z
</text>
<polyline fill="none" opacity="1" stroke="#000000" stroke-width="1" points="1111,740 1111,745 "/>
<polyline fill="none" opacity="1" stroke="#E61919" stroke-width="2" points="1006,738 1007,738 1008,738 1008,738 1009,738 1010,738 1011,738 1012,737 1012,737 1012,737 1013,737 1014,737 1014,736 1015,736 1016,736 1016,736 1017,735 1017,735 1018,734 1019,734 1019,734 1020,734 1021,732 1022,732 1023,732 1023,731 1024,730 1024,730 1025,728 1026,724 1026,724 1027,724 1028,724 1028,723 1029,723 1030,723 1030,721 1031,718 1032,717 1032,717 1033,716 1033,716 1034,715 1035,715 1035,714 1036,714 1037,712 1037,712 1038,711 1039,711 1039,711 1040,711 1041,710 1041,710 1042,708 1042,708 1043,707 1044,707 1044,707 1045,707 1046,707 1046,705 1047,705 1048,704 1048,704 1049,704 1050,703 1050,703 1051,703 1051,702 1052,702 1053,702 1053,701 1054,701 1055,701 1055,700 1056,699 1057,699 1057,698 1058,698 1059,698 1059,698 1060,696 1060,695 1061,695 1062,693 1062,692 1063,691 1064,691 1064,690 1065,690 1066,688 1066,687 1067,685 1068,685 1068,684 1069,682 1069,680 1070,680 1071,680 1071,679 1072,679 1073,678 1073,678 1074,678 1075,677 1075,677 1076,674 1077,673 1077,672 1078,672 1078,671 1079,671 1080,670 1080,670 1081,670 1082,670 1082,667 1083,667 1084,666 1084,666 1085,664 1085,663 1086,662 1087,662 1087,662 1088,661 1089,661 1089,661 1090,660 1091,659 1091,658 1092,657 1093,657 1093,656 1094,656 1094,656 1095,656 1096,655 1096,654 1097,653 1098,653 1098,652 1099,652 1100,650 1100,650 1101,649 1102,649 1102,649 1103,649 1103,649 1103,649 1103,648 1104,647 1105,646 1105,646 1105,646 1105,645 1106,645 1107,645 1107,642 1107,642 1107,637 1108,637 1108,637 1109,637 1109,635 1109,635 1109,635 1110,635 1110,634 1111,634 1111,633 1111,633 1111,632 1112,632 1112,631 1112,631 1112,631 1113,630 1114,630 1114,629 1114,628 1115,628 1115,627 1116,627 1116,626 1116,626 1116,625 1117,625 1117,625 1118,625 1118,623 1118,623 1118,623 1119,623 1120,623 1120,622 1120,622 1120,622 1121,622 1121,621 1121,621 1121,619 1122,619 1122,619 1123,619 1123,617 1123,617 1123,616 1124,616 1124,614 1125,614 1125,612 1125,609 1126,609 1126,608 1127,608 1127,606 1127,606 1127,605 1128,605 1128,604 1129,604 1129,604 1129,604 1129,603 1130,602 1130,601 1130,601 1130,598 1131,598 1131,598 1132,598 1132,596 1132,596 1132,595 1133,594 1134,593 1134,593 1134,593 1135,593 1135,591 1136,591 1136,589 1136,589 1136,589 1137,589 1137,589 1137,589 1137,588 1138,588 1138,586 1139,586 1139,586 1139,586 1139,586 1140,584 1141,584 1141,581 1141,581 1141,580 1142,580 1142,579 1143,579 1143,577 1143,577 1143,574 1144,574 1145,574 1145,573 1145,573 1145,572 1146,572 1146,569 1146,569 1146,567 1147,567 1147,565 1148,565 1148,565 1148,565 1148,564 1149,564 1149,562 1150,562 1150,557 1150,557 1150,554 1151,554 1151,551 1152,551 1152,549 1152,549 1152,548 1153,548 1153,547 1154,547 1154,545 1154,545 1154,542 1155,542 1155,541 1155,541 1155,541 1156,540 1157,540 1157,537 1157,537 1157,534 1158,534 1158,532 1159,532 1159,530 1159,530 1159,528 1160,528 1160,528 1161,528 1161,527 1161,527 1161,524 1162,524 1162,522 1163,520 1163,520 1163,517 1164,517 1164,515 1164,515 1164,514 1165,514 1165,512 1166,512 1166,510 1166,508 1167,506 1168,506 1168,505 1168,504 1169,504 1169,503 1170,503 1170,501 1170,501 1170,500 1171,500 1171,498 1172,498 1172,498 1172,498 1172,496 1173,496 1173,496 1173,496 1173,495 1174,495 1174,494 1175,494 1175,493 1175,492 1176,492 1176,492 1177,492 1177,490 1177,490 1177,487 1178,487 1178,486 1179,486 1179,485 1179,485 1179,484 1180,484 1180,483 1181,483 1181,480 1181,480 1181,479 1182,479 1182,478 1182,478 1182,477 1183,477 1183,476 1184,476 1184,475 1184,475 1184,474 1185,474 1185,473 1186,471 1186,471 1186,471 1187,470 1187,470 1188,470 1188,469 1188,469 1188,468 1189,468 1189,467 1190,467 "/>
<polyline fill="none" opacity="1" stroke="#E6C819" stroke-width="2" points="825,738 832,738 837,738 840,737 862,737 868,737 883,736 885,736 887,735 889,735 892,735 893,735 894,735 895,735 895,734 896,734 900,734 901,734 901,734 902,734 904,734 905,734 906,734 906,734 907,734 908,734 909,734 910,734 910,734 911,734 911,733 912,733 914,733 915,733 917,733 917,733 918,733 919,733 919,733 920,733 921,733 922,733 923,733 924,733 925,733 926,733 926,733 927,733 928,733 929,733 931,733 931,733 933,733 933,732 934,732 935,732 935,732 936,732 937,731 937,731 938,731 938,731 939,731 940,731 940,731 941,731 942,731 942,731 943,730 944,730 944,730 945,730 946,730 946,730 947,730 947,730 948,730 949,730 949,730 951,730 951,730 952,730 953,729 953,729 954,729 955,729 955,730 956,730 956,730 957,730 958,729 959,729 960,729 960,729 961,729 962,729 962,729 964,729 964,729 965,729 965,729 966,729 967,729 967,729 968,729 969,729 969,729 970,729 971,729 971,729 972,729 972,729 973,729 974,729 974,729 975,729 976,728 977,728 978,728 978,728 979,728 980,728 980,728 981,728 981,728 982,728 983,727 983,727 984,727 985,727 985,726 986,726 987,726 987,726 988,726 989,726 989,726 990,726 990,726 991,726 992,726 992,726 993,726 994,726 994,726 995,726 996,726 996,726 997,726 998,726 999,726 999,726 1000,726 1001,726 1002,726 1003,725 1003,725 1004,725 1005,725 1006,725 1007,725 1007,725 1008,725 1008,725 1009,725 1010,725 1011,725 1012,725 1012,725 1012,725 1013,725 1014,725 1014,725 1015,725 1016,725 1016,725 1017,725 1018,725 1019,725 1019,725 1020,725 1021,725 1021,725 1022,725 1023,725 1023,725 1024,725 1024,725 1025,725 1026,725 1026,725 1027,724 1028,724 1028,724 1029,724 1030,724 1031,724 1032,724 1032,724 1033,724 1033,724 1034,724 1035,724 1035,724 1036,724 1037,724 1037,724 1038,724 1039,724 1039,724 1040,724 1041,724 1042,724 1042,724 1043,724 1044,724 1044,724 1045,724 1046,724 1046,724 1047,724 1048,724 1048,724 1049,724 1050,724 1050,724 1051,724 1051,724 1052,724 1053,724 1053,724 1054,724 1055,724 1056,724 1057,724 1057,724 1058,724 1059,724 1059,724 1060,724 1060,724 1061,724 1062,724 1062,724 1063,724 1064,724 1065,724 1066,724 1066,724 1067,724 1068,724 1068,724 1069,724 1069,724 1070,723 1071,723 1071,723 1072,724 1073,723 1073,723 1074,723 1075,723 1075,723 1076,723 1077,723 1077,723 1078,723 1078,723 1079,723 1080,723 1080,723 1081,723 1082,723 1082,723 1083,723 1084,722 1084,722 1085,721 1085,721 1086,721 1087,721 1087,721 1088,721 1089,722 1089,722 1090,721 1091,721 1091,721 1092,721 1093,721 1093,721 1094,721 1094,721 1095,720 1096,720 1097,720 1098,720 1098,720 1099,720 1100,721 1100,721 1101,720 1102,720 1102,720 1103,720 1103,721 1103,721 1103,721 1104,721 1105,721 1105,720 1105,720 1105,721 1106,721 1107,721 1107,721 1107,721 1107,721 1108,721 1108,721 1109,721 1109,721 1109,721 1109,721 1110,721 1110,721 1111,721 1111,721 1111,721 1111,721 1112,721 1112,721 1112,721 1112,720 1113,720 1114,720 1114,720 1114,720 1115,720 1115,720 1116,720 1116,720 1116,720 1116,720 1117,720 1117,720 1118,720 1118,720 1118,720 1118,720 1119,720 1120,720 1120,720 1120,720 1120,720 1121,720 1121,720 1121,720 1121,720 1122,720 1122,720 1123,720 1123,720 1123,720 1123,720 1124,720 1124,720 1125,720 1125,720 1125,720 1126,720 1126,720 1127,720 1127,720 1127,720 1127,720 1128,720 1128,720 1129,720 1129,720 1129,720 1129,720 1130,720 1130,720 1130,720 1130,720 1131,720 1131,720 1132,720 1132,720 1132,720 1132,720 1133,720 1134,720 1134,720 1134,720 1135,720 1135,719 1136,719 1136,719 1136,719 1136,719 1137,719 1137,719 1137,719 1137,719 1138,719 1138,719 1139,719 1139,719 1139,719 1139,719 1140,719 1141,719 1141,719 1141,719 1141,719 1142,719 1142,719 1143,719 1143,719 1143,719 1144,719 1145,719 1145,719 1145,719 1145,719 1146,719 1146,719 1146,719 1146,719 1147,719 1147,719 1148,719 1148,719 1148,719 1148,719 1149,719 1149,719 1150,719 1150,719 1150,719 1150,719 1151,719 1151,719 1152,719 1152,719 1152,719 1152,719 1153,719 1153,719 1154,719 1154,719 1154,719 1154,719 1155,719 1155,719 1155,719 1155,719 1156,719 1157,719 1157,719 1157,719 1157,719 1158,719 1158,719 1159,719 1159,719 1159,719 1159,719 1160,719 1160,719 1161,719 1161,719 1161,719 1161,719 1162,719 1162,719 1163,719 1163,719 1163,719 1164,719 1164,719 1164,719 1164,719 1165,719 1165,719 1166,719 1166,719 1166,719 1167,719 1168,719 1168,719 1168,719 1169,719 1169,719 1170,719 1170,719 1170,719 1170,719 1171,719 1171,719 1172,719 1172,719 1172,719 1172,719 1173,719 1173,719 1173,719 1173,719 1174,719 1174,719 1175,719 1175,719 1175,719 1176,719 1176,719 1177,719 1177,719 1177,719 1177,719 1178,719 1178,719 1179,719 1179,719 1179,719 1179,719 1180,719 1180,719 1181,719 1181,719 1181,719 1181,719 1182,719 1182,719 1182,719 1182,719 1183,719 1183,719 1184,719 1184,719 1184,719 1184,719 1185,719 1185,719 1186,719 1186,719 1186,719 1187,719 1187,719 1188,719 1188,719 1188,719 1188,719 1189,719 1189,719 1190,719 "/>
<polyline fill="none" opacity="1" stroke="#54E619" stroke-width="2" points="233,738 234,738 239,738 244,738 251,738 252,737 253,737 258,737 269,736 270,736 271,736 276,735 278,735 278,734 280,734 280,734 284,734 285,734 287,734 287,733 289,732 291,732 294,732 296,731 297,731 299,730 300,729 301,728 302,728 305,728 307,727 307,727 309,727 310,726 311,726 311,726 312,726 312,726 313,726 314,726 315,726 316,726 316,726 317,726 318,725 318,725 319,725 320,725 320,725 321,725 321,724 322,724 323,723 323,722 324,722 325,722 326,721 327,721 328,721 332,721 332,720 333,720 334,720 334,720 336,719 336,719 337,719 338,718 338,717 339,716 341,715 341,715 342,715 343,714 343,714 345,714 345,713 346,713 347,713 348,712 348,712 349,711 350,710 350,709 351,708 352,706 352,706 353,705 354,705 354,705 355,705 355,703 356,703 357,703 357,702 359,701 359,701 360,701 361,700 361,700 362,700 363,700 363,699 364,699 364,699 365,699 366,697 366,697 367,697 368,697 368,697 369,697 370,697 371,697 373,696 373,696 374,695 375,695 375,695 376,695 377,695 377,694 378,694 379,694 379,694 380,694 381,693 381,693 382,693 382,692 383,692 384,692 384,692 385,691 386,690 386,689 388,689 388,688 389,687 390,687 390,687 391,687 391,687 392,687 393,686 393,686 394,686 395,686 395,685 396,685 397,685 397,684 398,684 399,684 399,683 400,682 400,682 401,682 402,682 402,681 403,680 404,680 404,680 405,680 406,680 406,680 407,678 407,678 408,676 409,676 409,676 410,676 411,675 411,675 412,674 413,673 413,673 414,673 415,672 415,672 416,672 416,672 417,672 418,671 418,671 419,671 420,671 420,671 421,671 422,671 422,671 423,670 424,670 424,669 425,669 425,668 426,668 427,667 427,667 428,666 429,666 429,666 430,665 431,665 431,665 432,665 433,664 433,664 434,663 434,662 435,662 436,661 436,660 437,660 438,659 438,659 439,659 440,658 440,658 441,657 442,657 442,657 443,656 443,656 444,655 445,654 445,653 446,653 447,652 447,652 448,651 449,650 449,649 450,649 451,649 451,649 452,649 452,649 453,648 454,649 454,647 455,646 456,646 456,646 457,645 458,645 458,645 459,645 459,645 460,644 461,644 461,644 462,644 463,643 463,642 464,642 465,641 465,641 466,640 467,640 467,639 468,639 468,638 469,638 470,637 470,637 471,636 472,636 472,636 473,635 474,635 474,634 475,634 476,634 476,634 477,633 477,633 478,633 479,633 479,633 480,632 481,632 481,631 482,631 483,631 483,630 484,628 485,628 485,628 486,626 486,625 487,625 488,624 488,623 489,623 490,622 490,621 491,621 492,620 492,620 493,620 494,619 494,618 495,618 495,618 496,617 497,617 497,617 498,616 499,617 499,616 500,616 501,615 501,615 502,614 503,614 503,613 504,613 504,613 505,612 506,611 506,611 507,610 508,609 508,609 509,608 510,608 510,607 511,607 512,607 512,605 513,605 513,604 514,604 515,602 515,602 516,601 517,601 517,601 518,599 519,599 519,598 520,598 520,598 521,598 522,597 522,597 523,596 524,596 524,597 525,596 526,596 526,596 527,596 528,596 528,596 529,589 529,588 530,588 531,587 531,587 532,586 533,585 533,584 534,584 535,583 535,583 536,583 537,582 537,582 538,582 538,581 539,580 540,580 540,579 541,578 542,578 542,577 543,577 544,577 544,577 545,577 546,577 546,577 547,577 547,577 548,577 549,577 549,576 550,576 551,576 551,575 552,575 553,575 553,574 554,574 555,574 555,574 556,574 556,573 557,571 558,571 558,570 559,569 560,569 560,569 561,569 562,568 562,567 563,567 564,567 564,567 565,566 565,566 566,566 567,566 567,566 568,565 569,565 569,565 570,565 571,565 571,564 572,564 572,563 573,563 574,562 574,562 575,562 576,560 576,560 577,560 578,560 578,559 579,559 580,560 580,560 581,560 581,559 582,559 583,559 583,558 584,558 585,557 585,557 586,557 587,556 587,555 588,555 589,555 589,555 590,553 590,552 591,551 592,551 592,551 593,550 594,550 594,550 595,550 596,550 596,549 597,549 598,549 598,549 599,549 599,548 600,548 601,548 601,548 602,548 603,548 603,547 604,547 605,546 605,546 606,546 607,546 607,547 608,546 608,547 609,546 610,547 610,548 611,548 612,547 612,547 613,546 614,546 614,546 615,546 616,546 616,546 617,545 617,545 618,545 619,545 619,545 620,544 621,543 621,543 622,543 623,543 623,543 624,543 625,543 625,543 626,543 626,543 627,543 628,543 628,543 629,543 630,543 630,543 631,544 632,546 632,546 633,546 633,546 634,545 635,546 635,545 636,545 637,545 637,544 638,543 639,543 639,543 640,543 641,543 641,543 642,543 642,543 643,542 644,542 644,542 645,542 646,542 646,542 647,542 648,543 648,542 649,542 650,542 650,542 651,541 651,541 652,541 653,541 653,541 654,541 655,541 655,541 656,541 657,541 657,541 658,541 659,541 659,541 660,541 660,541 661,541 662,541 662,541 663,541 664,541 664,541 665,540 666,540 666,541 667,541 668,541 668,540 669,539 669,539 670,539 671,539 671,539 672,539 673,539 673,538 674,539 675,538 675,539 676,539 677,539 677,539 678,539 678,539 679,538 680,538 680,537 681,537 682,537 682,537 683,537 684,537 684,538 685,538 685,538 686,539 687,539 687,539 688,539 689,539 689,539 690,539 691,538 691,538 692,538 693,538 693,538 694,538 694,537 695,538 696,538 696,537 697,537 698,537 698,537 699,537 700,537 700,537 701,537 702,537 702,537 703,537 703,537 704,537 705,537 705,537 706,537 707,537 707,537 708,537 709,537 709,537 710,537 711,537 711,537 712,537 712,537 713,537 714,536 714,536 715,536 716,536 716,536 717,536 718,536 718,534 719,534 720,534 720,534 721,534 721,534 722,535 723,535 723,535 724,535 725,535 725,535 726,535 727,535 727,535 728,536 729,536 729,536 730,536 730,537 731,537 732,536 732,536 733,536 734,536 734,536 735,536 736,536 736,536 737,536 738,536 738,536 739,536 739,536 740,536 741,536 741,536 742,535 743,535 743,534 744,534 745,534 745,534 746,534 746,534 747,534 748,534 748,534 749,534 750,534 750,534 751,533 752,533 752,533 753,533 754,533 754,533 755,534 755,533 756,533 757,533 757,533 758,533 759,533 759,533 760,532 761,532 761,532 762,533 763,532 763,532 764,532 764,532 764,532 765,531 766,531 766,531 767,531 768,531 768,531 769,532 770,532 770,532 771,532 772,531 772,531 773,531 773,531 774,531 775,531 775,531 776,531 777,531 777,531 778,531 779,531 779,531 780,531 781,531 781,531 782,531 782,531 783,531 784,531 784,530 785,530 786,530 786,530 787,530 788,530 788,529 789,529 790,528 790,528 791,528 791,528 792,528 793,529 793,537 794,537 795,537 795,537 796,537 797,537 797,537 798,536 798,537 799,537 800,536 800,536 801,536 802,536 802,536 803,536 804,536 804,536 805,536 806,536 806,536 807,536 807,536 808,536 809,536 809,536 810,536 811,536 811,536 812,536 813,536 813,536 814,536 815,536 815,536 816,536 816,536 817,536 818,537 818,537 819,536 820,536 820,536 821,536 822,537 822,537 823,537 824,537 824,537 825,537 825,536 826,536 827,536 827,537 828,537 829,537 829,537 830,537 831,538 831,537 832,537 833,537 833,537 834,537 834,537 835,537 836,537 836,537 837,537 838,537 838,537 839,537 840,537 840,536 841,536 842,536 842,536 843,536 843,536 844,535 845,535 845,535 846,535 847,535 847,535 848,535 849,536 849,536 850,536 851,536 851,536 852,536 852,536 853,536 854,536 854,537 855,537 856,536 856,536 857,536 858,536 858,536 859,534 859,534 860,534 861,534 861,534 862,534 863,535 863,535 864,535 865,535 865,535 866,535 867,535 867,535 868,535 868,535 869,535 870,535 870,535 871,535 872,535 872,535 873,535 874,535 874,535 875,535 876,535 876,535 877,535 877,535 878,535 879,535 879,535 880,535 881,535 881,535 882,535 883,535 883,535 884,535 885,535 885,535 886,535 886,535 887,536 888,534 888,534 889,534 890,534 890,534 891,534 892,534 892,534 893,534 894,534 894,534 895,534 895,534 896,534 897,534 897,534 898,534 899,534 899,535 900,535 901,535 901,534 902,534 903,534 903,535 904,535 904,535 905,535 906,534 906,535 907,535 908,535 908,535 909,535 910,535 910,535 911,535 911,535 912,535 913,535 913,535 914,535 915,535 915,535 916,535 917,535 917,535 918,535 919,535 919,535 920,535 920,535 921,535 922,534 922,534 923,534 924,533 924,533 925,533 926,533 926,533 927,533 928,533 928,533 929,533 929,533 930,533 931,533 931,533 932,533 933,533 933,534 934,534 935,534 935,534 936,534 937,534 937,534 938,534 938,534 939,534 940,534 940,534 941,534 942,534 942,534 943,534 944,534 944,534 945,534 946,533 946,533 947,533 947,533 948,533 949,533 949,533 950,533 951,533 951,533 952,533 953,533 953,533 954,533 955,533 955,533 956,533 956,533 957,533 958,533 958,533 959,532 960,532 960,532 961,532 962,532 962,532 963,532 964,532 964,532 965,532 965,532 966,532 967,531 967,531 968,531 969,531 969,531 970,531 971,532 971,532 972,532 972,532 973,532 974,532 974,532 975,532 976,532 976,532 977,532 978,532 978,532 979,532 980,532 980,532 981,532 981,532 982,532 983,532 983,532 984,532 985,532 985,532 986,532 987,532 987,532 988,532 989,532 989,532 990,532 990,532 991,532 992,532 992,532 993,532 994,532 994,532 995,532 996,532 996,532 997,530 998,530 998,530 999,530 999,530 1000,530 1001,530 1001,529 1002,529 1003,529 1003,530 1004,530 1005,530 1005,530 1006,529 1007,529 1007,529 1008,529 1008,529 1009,529 1010,529 1010,529 1011,530 1012,529 1012,529 1012,530 1013,530 1014,530 1014,530 1015,530 1016,530 1016,530 1017,530 1017,529 1018,529 1019,529 1019,529 1020,530 1021,530 1021,530 1022,530 1023,530 1023,530 1024,529 1024,530 1025,529 1026,529 1026,528 1027,528 1028,528 1028,528 1029,528 1030,528 1030,527 1031,527 1032,528 1032,528 1033,528 1033,528 1034,528 1035,528 1035,528 1036,528 1037,528 1037,528 1038,528 1039,528 1039,528 1040,528 1041,528 1041,528 1042,528 1042,529 1043,529 1044,529 1044,528 1045,528 1046,528 1046,528 1047,528 1048,528 1048,528 1049,528 1050,528 1050,528 1051,528 1051,529 1052,529 1053,528 1053,528 1054,528 1055,528 1055,528 1056,528 1057,528 1057,528 1058,528 1059,528 1059,528 1060,528 1060,528 1061,528 1062,528 1062,528 1063,528 1064,528 1064,528 1065,528 1066,528 1066,528 1067,528 1068,529 1068,529 1069,529 1069,529 1070,529 1071,530 1071,530 1072,530 1073,530 1073,530 1074,530 1075,530 1075,530 1076,530 1077,530 1077,531 1078,531 1078,531 1079,531 1080,531 1080,531 1081,530 1082,530 1082,530 1083,530 1084,530 1084,530 1085,530 1085,530 1086,530 1087,529 1087,529 1088,529 1089,529 1089,529 1090,528 1091,528 1091,529 1092,529 1093,529 1093,529 1094,529 1094,529 1095,529 1096,529 1096,529 1097,529 1098,528 1098,528 1099,528 1100,528 1100,528 1101,528 1102,528 1102,528 1103,528 1103,528 1103,528 1103,528 1104,528 1105,528 1105,528 1105,528 1105,529 1106,529 1107,529 1107,529 1107,529 1107,529 1108,529 1108,529 1109,529 1109,529 1109,529 1109,529 1110,529 1110,529 1111,529 1111,529 1111,529 1111,529 1112,529 1112,529 1112,529 1112,529 1113,530 1114,530 1114,530 1114,530 1115,530 1115,530 1116,530 1116,530 1116,530 1116,530 1117,530 1117,530 1118,530 1118,530 1118,530 1118,530 1119,530 1120,530 1120,529 1120,529 1120,529 1121,529 1121,529 1121,529 1121,530 1122,530 1122,529 1123,529 1123,530 1123,530 1123,530 1124,530 1124,530 1125,530 1125,530 1125,530 1126,530 1126,530 1127,530 1127,530 1127,530 1127,530 1128,530 1128,530 1129,530 1129,530 1129,530 1129,530 1130,530 1130,530 1130,530 1130,530 1131,530 1131,530 1132,530 1132,530 1132,530 1132,530 1133,530 1134,530 1134,530 1134,530 1135,530 1135,530 1136,530 1136,530 1136,530 1136,530 1137,530 1137,530 1137,530 1137,530 1138,530 1138,530 1139,530 1139,530 1139,530 1139,531 1140,531 1141,531 1141,530 1141,530 1141,530 1142,530 1142,530 1143,530 1143,530 1143,530 1143,530 1144,530 1145,530 1145,530 1145,530 1145,530 1146,530 1146,529 1146,529 1146,529 1147,529 1147,529 1148,529 1148,529 1148,529 1148,529 1149,529 1149,529 1150,529 1150,529 1150,529 1150,529 1151,529 1151,529 1152,529 1152,529 1152,529 1152,529 1153,529 1153,529 1154,529 1154,530 1154,530 1154,530 1155,530 1155,529 1155,529 1155,529 1156,529 1157,529 1157,529 1157,529 1157,529 1158,529 1158,528 1159,528 1159,529 1159,529 1159,529 1160,529 1160,529 1161,529 1161,529 1161,529 1161,529 1162,529 1162,529 1163,529 1163,529 1163,529 1164,529 1164,529 1164,529 1164,529 1165,529 1165,530 1166,530 1166,530 1166,530 1167,530 1168,530 1168,530 1168,530 1169,530 1169,529 1170,529 1170,529 1170,529 1170,529 1171,529 1171,529 1172,529 1172,528 1172,528 1172,528 1173,528 1173,528 1173,528 1173,528 1174,528 1174,528 1175,528 1175,528 1175,528 1176,528 1176,528 1177,528 1177,528 1177,528 1177,528 1178,528 1178,528 1179,528 1179,528 1179,528 1179,528 1180,528 1180,528 1181,528 1181,528 1181,528 1181,528 1182,528 1182,528 1182,528 1182,528 1183,528 1183,528 1184,528 1184,528 1184,528 1184,528 1185,528 1185,527 1186,527 1186,527 1186,527 1187,527 1187,527 1188,527 1188,527 1188,527 1188,527 1189,527 1189,527 1190,527 "/>
<polyline fill="none" opacity="1" stroke="#19E68E" stroke-width="2" points="563,738 564,738 565,738 566,737 567,736 567,736 569,736 569,735 570,734 571,734 571,733 572,732 572,731 573,731 574,731 574,730 575,729 576,729 578,729 579,728 580,727 580,726 581,726 581,725 582,725 585,724 585,722 586,722 587,722 588,721 589,721 590,720 590,720 591,719 592,718 592,718 593,717 594,717 594,717 595,716 596,715 597,713 598,713 598,712 599,712 599,712 600,711 601,711 601,711 602,709 603,709 603,709 604,709 605,709 605,707 606,707 607,707 607,707 608,705 608,705 609,704 610,703 610,702 611,701 612,701 612,700 613,699 614,698 614,698 615,697 616,697 616,696 617,694 617,693 618,693 619,693 619,693 620,693 621,693 621,693 622,692 623,692 623,691 624,689 625,689 625,688 626,687 626,685 627,684 628,684 628,683 629,682 630,680 630,678 631,677 632,677 632,677 633,675 633,673 634,671 635,671 635,670 636,670 637,669 637,668 638,668 639,667 639,667 640,666 641,666 641,665 642,664 642,663 643,662 644,662 644,661 645,661 646,660 646,660 647,659 648,658 648,658 649,657 650,656 650,656 651,655 651,654 652,653 653,652 653,651 654,651 655,650 655,649 656,647 657,645 657,644 658,642 659,641 659,640 660,638 660,637 661,637 662,636 662,636 663,635 664,635 664,634 665,631 666,630 666,629 667,627 668,627 668,626 669,624 669,623 670,623 671,621 671,620 672,620 673,619 673,619 674,618 675,616 675,616 676,614 677,614 677,612 678,609 678,609 679,608 680,608 680,608 681,607 682,606 682,605 683,605 684,604 684,602 685,602 685,601 686,598 687,595 687,595 688,593 689,593 689,592 690,591 691,591 691,591 692,591 693,589 693,589 694,588 694,588 695,587 696,586 697,585 698,585 698,584 699,584 700,583 700,581 701,579 702,577 702,576 703,575 703,574 704,574 705,574 705,574 706,573 707,572 707,571 708,570 709,570 709,569 710,569 711,568 711,567 712,566 712,566 713,565 714,565 714,564 715,563 716,563 716,561 717,561 718,561 718,560 719,559 720,559 720,559 721,557 721,556 722,554 723,553 723,552 724,551 725,550 725,550 726,550 727,549 727,549 728,548 729,547 729,547 730,545 730,543 731,543 732,542 732,542 733,541 734,540 734,540 735,540 736,539 736,538 737,538 738,537 738,535 739,535 739,533 740,531 741,531 741,529 742,529 743,528 743,527 744,526 745,525 745,524 746,524 746,524 747,523 748,523 748,522 749,521 750,519 750,518 751,517 752,517 752,516 753,515 754,514 754,512 755,511 755,512 756,510 757,510 757,510 758,508 759,507 759,506 760,505 761,504 761,502 762,501 763,500 763,499 764,498 764,497 764,496 765,495 766,495 766,494 767,492 768,491 768,488 769,485 770,483 770,482 771,482 772,481 772,480 773,480 773,479 774,478 775,477 775,477 776,476 777,476 777,475 778,475 779,474 779,473 780,472 781,471 781,468 782,468 782,467 783,465 784,465 784,465 785,464 786,462 786,461 787,459 788,458 788,457 789,457 790,457 790,456 791,454 791,455 792,454 793,452 793,439 794,438 795,438 795,438 796,436 797,436 797,435 798,435 798,434 799,432 800,431 800,430 801,430 802,427 802,427 803,425 804,425 804,424 805,423 806,422 806,422 807,422 807,420 808,418 809,417 809,414 810,412 811,410 811,409 812,407 813,407 813,405 814,404 815,402 815,402 816,402 816,401 817,398 818,396 818,396 819,394 820,393 820,392 821,390 822,390 822,390 823,389 824,388 824,387 825,386 825,385 826,384 827,384 827,381 828,380 829,380 829,378 830,377 831,373 831,371 832,372 833,372 833,371 834,371 834,369 835,369 836,367 836,366 837,366 838,364 838,362 839,362 840,362 840,361 841,361 842,359 842,358 843,357 843,355 844,355 845,353 845,353 846,352 847,352 847,352 848,351 849,349 849,349 850,348 851,347 851,347 852,343 852,342 853,341 854,340 854,338 855,338 856,336 856,336 857,335 858,335 858,335 859,334 859,333 860,333 861,332 861,332 862,331 863,331 863,330 864,328 865,326 865,325 866,323 867,321 867,321 868,321 868,320 869,318 870,317 870,315 871,313 872,313 872,312 873,311 874,310 874,309 875,308 876,308 876,306 877,305 877,305 878,304 879,303 879,302 880,302 881,302 881,301 882,301 883,298 883,298 884,296 885,295 885,294 886,293 886,290 887,289 888,290 888,289 889,288 890,288 890,288 891,285 892,285 892,283 893,281 894,280 894,280 895,279 895,279 896,279 897,278 897,277 898,275 899,275 899,274 900,273 901,273 901,272 902,271 903,270 903,269 904,268 904,267 905,266 906,265 906,264 907,264 908,263 908,262 909,261 910,260 910,259 911,260 911,259 912,259 913,259 913,258 914,257 915,255 915,255 916,253 917,252 917,252 918,252 919,246 919,246 920,246 920,246 921,245 922,244 922,243 923,242 924,242 924,241 925,241 926,240 926,241 927,241 928,241 928,240 929,239 929,238 930,237 931,237 931,236 932,234 933,234 933,232 934,232 935,230 935,229 936,226 937,225 937,225 938,225 938,223 939,221 940,220 940,220 941,217 942,216 942,216 943,214 944,214 944,213 945,211 946,208 946,207 947,207 947,207 948,206 949,205 949,205 950,203 951,203 951,202 952,202 953,202 953,201 954,201 955,200 955,200 956,197 956,197 957,195 958,196 958,194 959,191 960,191 960,192 961,190 962,189 962,189 963,188 964,187 964,187 965,187 965,186 966,185 967,184 967,183 968,182 969,182 969,181 970,181 971,179 971,177 972,176 972,175 973,175 974,174 974,173 975,173 976,169 976,168 977,168 978,168 978,168 979,167 980,167 980,167 981,167 981,166 982,165 983,164 983,163 984,163 985,162 985,161 986,160 987,161 987,161 988,160 989,159 989,157 990,156 990,155 991,155 992,155 992,154 993,153 994,152 994,151 995,150 996,149 996,148 997,148 998,147 998,146 999,145 999,145 1000,144 1001,144 1001,144 1002,143 1003,143 1003,142 1004,141 1005,141 1005,141 1006,142 1007,141 1007,139 1008,139 1008,138 1009,135 1010,135 1010,134 1011,134 1012,133 1012,133 1012,133 1013,132 1014,134 1014,134 1015,134 1016,134 1016,135 1017,133 1017,133 1018,133 1019,132 1019,132 1020,130 1021,133 1021,133 1022,132 1023,132 1023,136 1024,137 1024,136 1025,137 1026,140 1026,139 1027,140 1028,139 1028,139 1029,138 1030,138 1030,139 1031,142 1032,142 1032,142 1033,143 1033,143 1034,139 1035,139 1035,139 1036,139 1037,138 1037,138 1038,138 1039,137 1039,137 1040,134 1041,133 1041,133 1042,132 1042,131 1043,129 1044,129 1044,129 1045,128 1046,127 1046,126 1047,126 1048,126 1048,126 1049,124 1050,124 1050,124 1051,123 1051,123 1052,123 1053,123 1053,122 1054,121 1055,122 1055,122 1056,116 1057,116 1057,115 1058,116 1059,115 1059,115 1060,115 1060,115 1061,109 1062,108 1062,107 1063,107 1064,106 1064,105 1065,105 1066,105 1066,105 1067,105 1068,103 1068,103 1069,103 1069,103 1070,105 1071,104 1071,103 1072,103 1073,103 1073,102 1074,101 1075,101 1075,103 1076,105 1077,105 1077,104 1078,103 1078,103 1079,103 1080,103 1080,101 1081,102 1082,101 1082,101 1083,100 1084,100 1084,99 1085,96 1085,96 1086,97 1087,97 1087,96 1088,96 1089,94 1089,95 1090,95 1091,96 1091,94 1092,93 1093,91 1093,91 1094,91 1094,91 1095,91 1096,90 1096,90 1097,90 1098,89 1098,89 1099,89 1100,89 1100,88 1101,89 1102,85 1102,85 1103,84 1103,84 1103,84 1103,84 1104,83 1105,83 1105,84 1105,84 1105,84 1106,84 1107,84 1107,85 1107,85 1107,90 1108,90 1108,90 1109,90 1109,90 1109,90 1109,91 1110,91 1110,90 1111,90 1111,90 1111,90 1111,90 1112,90 1112,90 1112,90 1112,90 1113,89 1114,89 1114,89 1114,89 1115,89 1115,87 1116,87 1116,85 1116,85 1116,85 1117,85 1117,84 1118,84 1118,84 1118,84 1118,83 1119,83 1120,83 1120,81 1120,81 1120,80 1121,80 1121,80 1121,80 1121,79 1122,79 1122,78 1123,78 1123,78 1123,78 1123,78 1124,78 1124,77 1125,77 1125,77 1125,79 1126,79 1126,79 1127,79 1127,79 1127,79 1127,78 1128,78 1128,79 1129,79 1129,80 1129,80 1129,78 1130,78 1130,79 1130,79 1130,79 1131,79 1131,78 1132,78 1132,78 1132,78 1132,79 1133,79 1134,79 1134,79 1134,79 1135,79 1135,78 1136,78 1136,77 1136,77 1136,77 1137,77 1137,76 1137,76 1137,76 1138,76 1138,76 1139,76 1139,75 1139,75 1139,75 1140,76 1141,76 1141,77 1141,77 1141,77 1142,77 1142,77 1143,77 1143,78 1143,78 1143,78 1144,78 1145,78 1145,78 1145,78 1145,79 1146,79 1146,78 1146,78 1146,79 1147,79 1147,79 1148,79 1148,80 1148,80 1148,79 1149,79 1149,79 1150,79 1150,79 1150,79 1150,77 1151,77 1151,77 1152,77 1152,79 1152,79 1152,79 1153,79 1153,80 1154,80 1154,79 1154,79 1154,79 1155,79 1155,79 1155,79 1155,80 1156,80 1157,80 1157,80 1157,80 1157,81 1158,81 1158,82 1159,82 1159,82 1159,82 1159,82 1160,82 1160,82 1161,82 1161,83 1161,83 1161,83 1162,83 1162,83 1163,82 1163,82 1163,82 1164,82 1164,83 1164,83 1164,83 1165,83 1165,84 1166,84 1166,84 1166,84 1167,86 1168,86 1168,87 1168,86 1169,86 1169,86 1170,86 1170,86 1170,86 1170,87 1171,87 1171,87 1172,87 1172,87 1172,87 1172,88 1173,88 1173,89 1173,89 1173,88 1174,88 1174,89 1175,89 1175,88 1175,88 1176,88 1176,87 1177,87 1177,88 1177,88 1177,89 1178,89 1178,88 1179,88 1179,89 1179,89 1179,89 1180,89 1180,89 1181,89 1181,89 1181,89 1181,89 1182,89 1182,89 1182,89 1182,90 1183,90 1183,90 1184,90 1184,90 1184,90 1184,90 1185,90 1185,91 1186,92 1186,92 1186,92 1187,92 1187,92 1188,92 1188,92 1188,92 1188,92 1189,92 1189,92 1190,92 "/>
<polyline fill="none" opacity="1" stroke="#198EE6" stroke-width="2" points="60,738 60,738 64,738 74,738 83,737 92,737 92,737 97,737 98,736 99,736 104,736 108,736 109,735 115,735 122,735 122,735 125,734 131,734 135,734 137,734 143,734 144,733 144,733 145,733 146,733 146,733 147,733 148,733 149,733 150,733 151,733 151,733 153,733 153,733 155,733 156,733 156,732 157,732 158,732 158,732 159,732 160,732 161,732 162,732 162,732 163,732 164,732 164,732 165,732 165,732 166,732 167,732 167,732 168,732 169,732 170,732 171,732 171,732 172,732 174,732 175,732 176,731 176,731 177,731 178,731 178,731 179,731 180,731 180,731 181,731 181,731 183,731 183,731 185,731 185,730 186,730 187,730 187,730 188,730 189,730 190,730 190,730 191,730 192,730 193,730 194,729 194,729 195,729 196,729 196,729 197,729 198,729 198,729 199,729 199,729 201,729 201,729 203,729 203,728 205,728 205,728 206,728 208,728 208,728 209,728 210,728 211,728 212,728 212,728 213,727 214,727 214,727 215,727 216,727 217,727 218,727 219,727 220,727 221,727 221,727 222,727 223,726 223,726 224,726 225,726 225,726 226,726 226,726 228,726 228,726 229,726 230,726 230,725 231,725 232,725 232,725 233,725 233,725 234,725 235,725 235,725 236,725 237,725 238,725 239,724 239,724 240,724 241,724 241,724 242,724 243,724 244,724 246,724 246,724 247,724 248,724 248,724 249,724 250,723 251,723 251,723 252,723 253,723 253,723 254,723 257,723 257,723 258,723 259,723 259,723 260,722 260,722 261,722 262,722 262,722 264,722 265,722 266,722 266,722 267,722 268,722 268,722 269,722 270,722 271,722 271,722 273,722 273,722 274,722 275,722 275,721 277,721 278,721 278,721 280,721 280,720 281,720 282,720 282,720 283,720 284,720 284,720 285,720 286,720 286,720 287,720 288,720 289,720 289,720 290,720 291,720 291,720 292,720 293,720 293,720 294,720 294,720 295,720 296,720 296,720 297,719 298,719 298,719 299,719 300,719 300,719 301,719 302,719 302,719 303,719 303,719 304,719 305,719 305,719 306,719 307,719 307,719 308,718 309,718 309,718 310,718 311,718 312,718 312,718 314,718 314,718 315,718 316,718 317,717 318,717 318,717 319,717 320,717 320,717 321,717 322,717 323,716 323,716 324,716 325,716 325,716 326,716 327,716 328,716 329,716 329,716 330,716 330,716 331,716 332,715 332,715 333,715 334,715 334,715 335,715 336,715 336,715 337,715 338,715 338,715 339,715 340,715 341,715 341,715 342,715 343,715 343,715 345,715 345,715 346,715 346,714 347,714 348,714 348,714 349,714 350,714 350,714 351,714 352,714 352,713 353,713 354,713 354,713 355,713 355,712 356,712 357,712 357,712 358,712 359,712 359,712 360,712 361,712 361,712 362,712 363,712 363,712 364,712 364,712 365,711 366,711 366,711 367,711 368,711 369,711 370,711 370,711 371,710 372,710 372,710 373,710 373,709 374,709 375,709 375,709 376,709 377,709 377,709 378,709 379,709 379,708 380,708 381,708 381,709 382,708 382,708 383,708 384,708 384,708 385,708 386,708 386,708 387,708 388,708 388,707 389,707 390,707 390,707 391,707 391,707 392,707 393,707 393,707 394,707 395,707 395,707 396,707 397,706 397,706 399,706 399,706 400,706 400,706 401,706 402,706 403,706 404,706 404,705 405,705 406,705 406,705 407,705 407,705 408,705 409,705 409,705 410,705 411,705 411,705 412,705 413,705 413,705 414,705 415,705 415,705 416,705 416,705 417,705 418,705 418,705 419,704 420,704 420,704 421,704 422,704 422,704 423,704 424,704 424,704 425,704 425,704 426,704 427,704 427,704 428,704 429,704 429,704 430,704 431,703 431,703 432,703 433,703 433,703 434,703 434,703 435,703 436,703 436,703 437,703 438,702 438,702 439,702 440,702 440,702 441,702 442,702 442,702 443,702 443,702 444,702 445,702 445,702 446,702 447,702 447,702 448,702 449,702 449,702 450,701 451,701 451,701 452,701 452,701 453,701 454,701 454,701 455,700 456,700 456,700 457,700 458,700 458,700 459,700 459,700 460,699 461,699 461,699 462,699 463,699 463,698 464,698 465,698 465,698 466,698 467,698 467,698 468,698 468,698 469,698 470,698 470,698 471,698 472,698 473,698 474,698 474,698 475,698 476,698 476,698 477,698 477,698 478,698 479,698 479,698 480,698 481,698 481,698 482,698 483,698 483,698 484,698 485,698 485,698 486,698 486,698 487,698 488,698 488,698 489,698 490,698 490,698 491,697 492,697 492,697 493,697 494,697 494,697 495,696 495,696 496,696 497,696 497,696 498,696 499,696 499,696 500,696 501,696 501,696 502,696 503,696 503,696 504,696 504,696 505,696 506,696 506,696 507,696 508,696 508,696 509,695 510,695 510,695 511,695 512,695 512,695 513,695 513,695 514,695 515,695 515,695 516,695 517,695 517,695 518,695 519,695 519,695 520,695 520,695 521,695 522,695 522,695 523,695 524,695 524,695 525,695 526,695 526,695 527,695 528,695 528,695 529,695 529,694 530,694 531,694 531,694 533,694 533,693 534,693 535,693 535,693 536,693 537,693 537,693 538,693 538,693 539,693 540,693 541,693 542,693 542,693 543,693 544,693 544,693 545,692 546,692 546,692 547,692 547,692 548,692 549,692 549,692 550,692 551,692 551,692 552,691 553,691 553,691 554,691 555,691 555,691 556,691 556,691 557,691 558,691 558,690 559,690 560,690 560,690 561,690 562,690 562,690 563,690 564,690 564,690 565,690 565,690 566,690 567,690 567,690 568,689 569,689 569,689 570,689 571,689 571,689 572,689 572,690 573,690 574,690 574,690 575,690 576,690 576,690 577,690 578,690 578,690 579,690 580,690 580,690 581,690 581,689 582,689 583,689 583,690 584,690 585,690 585,690 586,690 587,690 587,690 588,690 589,690 589,690 590,690 591,690 592,690 592,690 593,690 594,690 594,690 595,690 596,690 596,690 598,690 598,690 599,690 599,690 600,690 601,690 601,690 602,689 603,689 604,689 605,689 605,689 606,689 607,689 607,689 608,689 608,689 609,689 610,689 610,689 611,689 612,689 612,689 613,689 614,689 614,689 615,689 616,688 616,688 617,688 617,687 618,687 619,687 619,687 620,687 621,687 621,687 622,687 623,687 623,687 624,687 625,687 625,687 626,686 626,686 627,686 628,686 628,685 629,685 630,685 630,685 631,685 632,685 632,684 633,684 633,684 634,684 635,684 635,684 636,684 637,684 637,684 638,684 639,684 639,684 640,684 641,685 641,685 642,685 642,685 643,684 644,684 644,684 645,684 646,684 646,684 647,684 648,684 648,684 649,684 650,684 650,684 651,684 651,684 652,684 653,684 653,684 654,684 655,684 655,684 656,684 657,684 657,683 658,683 659,683 659,683 660,683 660,683 661,683 662,683 662,683 663,683 664,682 664,682 665,682 666,682 666,682 667,682 668,682 668,682 669,682 669,682 670,682 671,681 671,681 672,681 673,681 673,681 674,682 675,682 675,682 676,682 677,682 677,682 678,682 678,682 679,682 680,682 680,682 681,682 682,682 682,682 683,682 684,682 684,682 685,682 685,682 686,682 687,682 687,682 688,682 689,681 689,681 690,681 691,681 691,681 692,681 693,681 693,681 694,681 694,681 695,681 696,681 696,681 697,681 698,681 698,681 699,681 700,681 700,681 701,680 702,680 702,680 703,680 703,680 704,680 705,680 705,680 706,680 707,680 707,680 708,680 709,680 709,680 710,680 711,680 711,680 712,680 712,680 713,680 714,680 714,680 716,680 716,680 717,680 718,680 718,680 719,680 720,680 720,680 721,680 721,680 722,680 723,680 723,680 724,680 725,680 725,680 726,680 727,680 727,680 728,679 729,679 729,679 730,679 730,679 731,679 732,679 732,679 733,679 734,679 734,679 735,679 736,679 736,679 737,679 738,679 738,679 739,679 739,679 740,679 741,679 741,679 742,679 743,679 743,678 744,678 745,678 745,678 746,678 746,678 747,678 748,678 748,678 749,678 750,678 750,678 751,678 752,678 752,677 753,677 754,677 754,677 755,677 755,677 756,677 757,677 757,677 758,677 759,677 759,677 760,677 761,677 761,677 762,677 763,677 763,677 764,677 764,677 764,677 765,677 766,677 766,677 767,677 768,677 768,677 769,677 770,677 770,677 771,677 772,677 772,677 773,677 773,677 774,677 775,677 775,677 776,677 777,677 777,677 778,677 779,677 779,677 780,677 781,677 781,677 782,677 782,677 783,677 784,677 784,677 785,677 786,677 786,677 787,677 788,677 788,677 789,677 790,677 790,677 791,677 791,677 792,677 793,676 793,676 794,676 795,676 795,676 796,676 797,676 797,676 798,676 798,676 799,676 800,676 800,676 801,676 802,676 802,676 803,676 804,676 804,676 805,676 806,676 806,676 807,676 807,676 808,676 809,676 809,676 810,676 811,676 811,676 812,676 813,676 813,676 814,676 815,676 815,676 816,676 816,676 817,676 818,676 818,676 819,676 820,676 820,676 821,676 822,676 822,676 823,676 824,676 824,676 825,676 825,676 826,676 827,676 827,675 828,675 829,675 829,675 830,675 831,675 831,675 832,675 833,675 833,675 834,675 834,675 835,675 836,675 836,675 837,675 838,675 838,675 839,675 840,675 840,675 841,675 842,676 842,676 843,676 843,676 844,676 845,676 845,676 846,676 847,676 847,676 848,676 849,676 849,676 850,676 851,676 851,676 852,676 852,676 853,676 854,676 854,676 855,675 856,675 856,675 857,676 858,676 858,676 859,676 859,676 860,676 861,676 861,676 862,676 863,675 863,675 864,675 865,675 865,675 866,675 867,675 867,675 868,675 868,675 869,675 870,674 870,674 871,673 872,673 872,673 873,673 874,673 874,672 875,672 876,672 876,673 877,673 877,673 878,673 879,673 879,673 880,673 881,673 881,673 882,673 883,673 883,673 884,673 885,673 885,673 886,673 886,672 887,672 888,672 888,672 889,672 890,672 890,672 891,672 892,672 892,672 893,672 894,672 894,672 895,672 895,672 896,672 897,672 897,672 898,672 899,672 899,672 900,672 901,672 901,672 902,672 903,672 903,672 904,672 904,672 905,671 906,671 906,671 907,671 908,671 908,671 909,671 910,671 910,671 911,671 911,670 912,670 913,670 913,670 914,670 915,670 915,670 916,670 917,670 917,670 918,670 919,670 919,670 920,670 920,670 921,670 922,670 922,670 923,670 924,670 924,670 925,670 926,670 926,669 927,669 928,669 928,669 929,669 929,669 930,669 931,669 931,669 932,669 933,669 933,669 934,669 935,669 935,669 936,669 937,669 937,669 938,669 938,670 939,670 940,670 940,670 941,670 942,670 942,670 943,670 944,670 944,670 945,670 946,670 946,670 947,669 947,669 948,667 949,667 949,667 950,667 951,667 951,666 952,666 953,666 953,666 954,666 955,665 955,665 956,665 956,665 957,665 958,665 958,665 959,665 960,664 960,664 961,664 962,664 962,664 963,664 964,664 964,664 965,664 965,664 966,664 967,664 967,664 968,664 969,664 969,664 970,664 971,664 971,664 972,664 972,664 973,664 974,664 974,664 975,664 976,664 976,664 977,663 978,663 978,663 979,663 980,663 980,663 981,663 981,663 982,662 983,662 983,662 984,662 985,662 985,662 986,662 987,662 987,662 988,662 989,662 989,662 990,662 990,662 991,662 992,662 992,662 993,662 994,662 994,662 995,662 996,662 996,662 997,662 998,662 998,662 999,662 999,663 1000,663 1001,663 1001,663 1002,663 1003,663 1003,663 1004,663 1005,663 1005,663 1006,663 1007,663 1007,663 1008,663 1008,663 1009,663 1010,663 1010,663 1011,663 1012,663 1012,663 1012,663 1013,663 1014,663 1014,663 1015,663 1016,662 1016,662 1017,662 1017,662 1018,662 1019,662 1019,662 1020,662 1021,662 1021,662 1022,662 1023,662 1023,663 1024,662 1024,662 1025,662 1026,662 1026,662 1027,662 1028,662 1028,662 1029,662 1030,662 1030,662 1031,662 1032,662 1032,662 1033,662 1033,662 1034,662 1035,662 1035,662 1036,662 1037,662 1037,662 1038,662 1039,662 1039,662 1040,662 1041,662 1041,662 1042,662 1042,662 1043,662 1044,662 1044,662 1045,662 1046,662 1046,662 1047,662 1048,662 1048,662 1049,662 1050,662 1050,662 1051,662 1051,662 1052,662 1053,662 1053,662 1054,662 1055,662 1055,662 1056,662 1057,662 1057,662 1058,662 1059,662 1059,662 1060,662 1060,662 1061,662 1062,662 1062,662 1063,662 1064,662 1064,662 1065,662 1066,662 1066,662 1067,662 1068,662 1068,662 1069,662 1069,662 1070,662 1071,662 1071,662 1072,662 1073,662 1073,662 1074,662 1075,662 1075,662 1076,662 1077,662 1077,662 1078,662 1078,662 1079,662 1080,662 1080,662 1081,662 1082,662 1082,662 1083,662 1084,662 1084,662 1085,662 1085,662 1086,662 1087,662 1087,662 1088,662 1089,662 1089,662 1090,662 1091,662 1091,662 1092,662 1093,662 1093,662 1094,662 1094,662 1095,662 1096,662 1096,662 1097,662 1098,662 1098,662 1099,662 1100,662 1100,662 1101,663 1102,663 1102,663 1103,663 1103,663 1103,663 1103,663 1104,663 1105,663 1105,663 1105,663 1105,663 1106,663 1107,663 1107,663 1107,663 1107,663 1108,663 1108,663 1109,663 1109,663 1109,663 1109,663 1110,663 1110,663 1111,663 1111,663 1111,663 1111,663 1112,663 1112,662 1112,662 1112,662 1113,662 1114,662 1114,662 1115,662 1115,662 1116,662 1116,662 1116,662 1116,662 1117,662 1117,662 1118,662 1118,662 1118,662 1118,662 1119,662 1120,662 1120,662 1120,662 1120,662 1121,662 1121,662 1121,662 1121,662 1122,662 1122,662 1123,662 1123,662 1123,662 1123,662 1124,662 1124,662 1125,662 1125,662 1125,662 1126,662 1126,662 1127,662 1127,662 1127,662 1127,662 1128,662 1128,662 1129,662 1129,661 1129,661 1129,661 1130,661 1130,661 1130,661 1130,661 1131,661 1131,661 1132,661 1132,661 1132,661 1132,661 1133,661 1134,661 1134,661 1134,661 1135,661 1135,661 1136,661 1136,660 1136,660 1136,660 1137,660 1137,660 1137,660 1137,660 1138,660 1138,660 1139,660 1139,660 1139,660 1139,660 1140,660 1141,660 1141,660 1141,660 1141,660 1142,660 1142,660 1143,660 1143,660 1143,660 1143,660 1144,660 1145,660 1145,660 1145,660 1145,660 1146,660 1146,660 1146,660 1146,661 1147,661 1147,661 1148,661 1148,661 1148,661 1148,661 1149,661 1149,661 1150,661 1150,661 1150,661 1150,661 1151,661 1151,661 1152,661 1152,661 1152,661 1152,661 1153,661 1153,661 1154,661 1154,660 1154,660 1154,660 1155,660 1155,660 1155,660 1155,660 1156,659 1157,659 1157,659 1157,659 1157,659 1158,659 1158,659 1159,659 1159,659 1159,659 1159,659 1160,659 1160,659 1161,659 1161,659 1161,659 1161,659 1162,659 1162,659 1163,659 1163,659 1163,659 1164,659 1164,659 1164,659 1164,659 1165,659 1165,659 1166,659 1166,659 1166,659 1167,659 1168,659 1168,659 1168,659 1169,659 1169,659 1170,659 1170,659 1170,659 1170,659 1171,659 1171,659 1172,659 1172,659 1172,659 1172,659 1173,659 1173,659 1173,659 1173,658 1174,658 1174,658 1175,658 1175,658 1175,658 1176,658 1176,658 1177,658 1177,658 1177,658 1177,658 1178,658 1178,658 1179,658 1179,658 1179,658 1179,658 1180,658 1180,658 1181,658 1181,658 1181,658 1181,658 1182,658 1182,658 1182,658 1182,658 1183,658 1183,658 1184,658 1184,658 1184,658 1184,658 1185,658 1185,657 1186,657 1186,657 1186,657 1187,657 1187,657 1188,657 1188,657 1188,657 1188,657 1189,657 1189,657 1190,657 "/>
<polyline fill="none" opacity="1" stroke="#5419E6" stroke-width="2" points="907,738 908,738 912,738 918,737 920,737 923,737 926,736 926,736 927,734 928,733 929,733 931,733 936,733 937,733 938,733 939,733 940,733 947,733 952,732 953,732 954,731 956,731 959,731 960,730 961,729 962,729 962,729 963,729 965,729 966,729 967,729 969,729 970,728 971,728 971,727 974,727 975,727 976,727 976,726 978,726 980,726 980,726 981,726 981,726 984,726 986,726 987,725 988,725 989,725 989,725 990,725 991,725 992,725 992,725 994,725 995,725 996,725 996,724 998,724 998,724 999,724 999,723 1000,723 1001,723 1001,723 1002,723 1003,723 1003,723 1004,723 1005,723 1006,723 1007,723 1007,723 1008,723 1008,722 1010,723 1011,723 1012,723 1012,723 1012,723 1013,722 1014,722 1014,722 1015,722 1016,721 1016,721 1017,720 1018,720 1019,719 1020,719 1021,719 1021,719 1022,719 1023,719 1023,719 1024,719 1026,718 1026,718 1027,717 1028,717 1028,717 1029,716 1030,716 1030,716 1032,716 1032,716 1033,715 1033,715 1034,715 1035,715 1035,715 1037,714 1037,714 1038,715 1040,714 1041,714 1041,714 1042,714 1044,714 1044,714 1045,714 1046,714 1047,714 1048,714 1050,714 1050,713 1052,713 1053,713 1053,713 1054,713 1055,713 1055,712 1056,712 1057,712 1057,712 1058,712 1059,712 1059,711 1060,711 1060,711 1061,711 1062,711 1062,711 1063,711 1064,711 1064,711 1065,711 1066,711 1066,710 1067,710 1068,710 1068,710 1069,710 1070,710 1071,710 1071,710 1072,709 1073,709 1073,709 1074,709 1075,708 1075,708 1077,708 1077,708 1078,708 1078,708 1079,708 1080,708 1080,708 1081,708 1082,707 1082,707 1083,707 1084,707 1084,707 1085,707 1085,707 1086,707 1087,707 1087,707 1088,706 1089,706 1089,706 1090,706 1091,706 1091,706 1092,706 1093,706 1093,706 1094,706 1094,706 1095,705 1096,705 1096,705 1098,705 1098,705 1099,705 1100,705 1100,705 1101,705 1102,705 1102,705 1103,705 1103,705 1103,705 1103,705 1104,705 1105,705 1105,705 1105,705 1105,705 1106,705 1107,705 1107,705 1107,705 1107,705 1108,705 1108,705 1109,705 1109,704 1109,704 1109,704 1110,704 1110,704 1111,704 1111,704 1111,704 1111,704 1112,704 1112,704 1112,704 1112,704 1113,704 1114,704 1114,703 1114,703 1115,703 1115,703 1116,703 1116,703 1116,703 1116,703 1117,703 1117,702 1118,702 1118,703 1118,703 1118,703 1119,702 1120,702 1120,702 1120,702 1120,702 1121,702 1121,702 1121,702 1121,702 1122,702 1122,702 1123,702 1123,702 1123,702 1123,702 1124,702 1124,702 1125,702 1125,702 1126,702 1126,702 1127,702 1127,702 1127,702 1127,702 1128,702 1128,702 1129,702 1129,702 1129,702 1129,702 1130,702 1130,702 1130,702 1130,702 1131,702 1131,702 1132,702 1132,702 1132,702 1133,702 1134,702 1134,702 1134,702 1135,702 1135,702 1136,702 1136,702 1136,702 1136,701 1137,701 1137,701 1137,701 1137,701 1138,701 1138,701 1139,701 1139,701 1139,701 1140,701 1141,701 1141,701 1141,701 1141,701 1142,701 1142,701 1143,701 1143,701 1143,701 1143,700 1144,700 1145,700 1145,700 1145,700 1145,700 1146,700 1146,700 1146,700 1146,700 1147,700 1147,700 1148,700 1148,700 1148,700 1148,700 1149,700 1150,700 1150,700 1150,700 1150,700 1151,700 1151,700 1152,700 1152,700 1152,700 1152,699 1153,699 1153,699 1154,699 1154,699 1154,699 1154,700 1155,700 1155,700 1155,700 1155,699 1156,699 1157,699 1157,699 1157,699 1157,699 1158,699 1158,699 1159,699 1159,699 1159,699 1159,699 1160,699 1160,699 1161,699 1161,700 1161,700 1161,700 1162,700 1162,700 1163,700 1163,699 1164,699 1164,699 1164,699 1164,699 1165,699 1165,699 1166,699 1166,699 1166,699 1167,699 1168,699 1168,699 1168,699 1169,699 1169,699 1170,699 1170,699 1170,699 1170,699 1171,699 1171,698 1172,698 1172,698 1172,698 1173,698 1173,698 1173,698 1173,698 1174,698 1174,698 1175,698 1175,698 1175,698 1176,698 1176,698 1177,698 1177,698 1177,698 1177,698 1178,698 1178,698 1179,698 1179,698 1179,698 1179,698 1180,698 1180,698 1181,698 1181,698 1181,698 1181,698 1182,698 1182,698 1182,698 1182,698 1183,698 1183,698 1184,698 1184,698 1184,698 1185,698 1185,698 1186,698 1186,698 1186,698 1187,698 1187,698 1188,698 1188,698 1188,698 1188,698 1189,698 1189,698 1190,698 "/>
<polyline fill="none" opacity="1" stroke="#E619C8" stroke-width="2" points="1007,738 1008,737 1008,737 1009,737 1010,736 1011,735 1012,735 1012,735 1012,735 1013,735 1014,735 1014,734 1015,734 1016,734 1016,734 1017,734 1017,734 1018,733 1019,733 1019,732 1020,732 1021,731 1022,731 1023,730 1023,729 1024,728 1024,728 1025,727 1026,726 1026,725 1027,725 1028,725 1028,724 1029,724 1030,724 1030,724 1031,721 1032,720 1032,719 1033,718 1033,717 1034,717 1035,717 1035,717 1036,717 1037,716 1037,716 1038,715 1039,715 1039,715 1040,715 1041,715 1041,715 1042,714 1042,714 1043,714 1044,713 1044,712 1045,713 1046,712 1046,711 1047,711 1048,710 1048,709 1049,707 1050,707 1050,707 1051,707 1051,707 1052,707 1053,707 1053,704 1054,703 1055,703 1055,701 1056,700 1057,700 1057,699 1058,698 1059,698 1059,698 1060,697 1060,697 1061,696 1062,695 1062,695 1063,694 1064,693 1064,691 1065,690 1066,689 1066,689 1067,688 1068,687 1068,687 1069,686 1069,686 1070,683 1071,682 1071,681 1072,680 1073,680 1073,679 1074,679 1075,679 1075,678 1076,676 1077,675 1077,674 1078,673 1078,672 1079,671 1080,670 1080,670 1081,670 1082,669 1082,669 1083,669 1084,668 1084,667 1085,666 1085,666 1086,665 1087,665 1087,665 1088,664 1089,664 1089,662 1090,662 1091,661 1091,662 1092,660 1093,659 1093,658 1094,657 1094,657 1095,657 1096,657 1096,655 1097,654 1098,654 1098,653 1099,652 1100,650 1100,649 1101,647 1102,647 1102,646 1103,646 1103,645 1103,645 1103,645 1104,644 1105,644 1105,643 1105,643 1105,642 1106,641 1107,641 1107,640 1107,640 1107,637 1108,637 1108,636 1109,636 1109,635 1109,635 1109,633 1110,633 1110,632 1111,632 1111,631 1111,631 1111,631 1112,631 1112,630 1112,630 1112,629 1113,627 1114,627 1114,627 1114,626 1115,626 1115,626 1116,626 1116,625 1116,625 1116,624 1117,624 1117,624 1118,624 1118,623 1118,623 1118,623 1119,622 1120,622 1120,622 1120,622 1120,620 1121,620 1121,619 1121,619 1121,618 1122,618 1122,617 1123,617 1123,617 1123,617 1123,616 1124,616 1124,613 1125,613 1125,611 1125,608 1126,608 1126,606 1127,606 1127,604 1127,604 1127,604 1128,604 1128,603 1129,603 1129,600 1129,600 1129,599 1130,599 1130,598 1130,598 1130,597 1131,597 1131,596 1132,596 1132,595 1132,595 1132,593 1133,593 1134,592 1134,592 1134,590 1135,590 1135,588 1136,588 1136,587 1136,587 1136,587 1137,587 1137,586 1137,586 1137,585 1138,585 1138,584 1139,584 1139,582 1139,582 1139,580 1140,578 1141,578 1141,578 1141,578 1141,576 1142,576 1142,573 1143,573 1143,572 1143,572 1143,571 1144,570 1145,570 1145,567 1145,567 1145,565 1146,565 1146,563 1146,563 1146,561 1147,561 1147,561 1148,561 1148,560 1148,560 1148,559 1149,559 1149,557 1150,557 1150,551 1150,551 1150,549 1151,549 1151,547 1152,547 1152,546 1152,546 1152,545 1153,545 1153,544 1154,544 1154,542 1154,542 1154,539 1155,539 1155,537 1155,537 1155,535 1156,534 1157,534 1157,533 1157,533 1157,531 1158,531 1158,530 1159,530 1159,527 1159,527 1159,526 1160,526 1160,524 1161,524 1161,523 1161,523 1161,521 1162,521 1162,520 1163,518 1163,518 1163,518 1164,518 1164,516 1164,516 1164,514 1165,514 1165,512 1166,512 1166,510 1166,508 1167,505 1168,505 1168,504 1168,502 1169,502 1169,501 1170,501 1170,500 1170,500 1170,496 1171,496 1171,495 1172,495 1172,494 1172,494 1172,491 1173,491 1173,490 1173,490 1173,488 1174,488 1174,487 1175,487 1175,486 1175,485 1176,485 1176,484 1177,484 1177,481 1177,481 1177,478 1178,478 1178,478 1179,478 1179,476 1179,476 1179,475 1180,475 1180,474 1181,474 1181,472 1181,472 1181,471 1182,471 1182,470 1182,470 1182,468 1183,468 1183,468 1184,468 1184,466 1184,466 1184,465 1185,465 1185,465 1186,463 1186,463 1186,461 1187,461 1187,458 1188,458 1188,456 1188,456 1188,456 1189,456 1189,455 1190,455 "/>
<rect x="1078" y="315" width="107" height="119" opacity="1" fill="#FFFFFF" stroke="none"/>
<rect x="1078" y="315" width="107" height="119" opacity="1" fill="none" stroke="#000000"/>
<text x="1118" y="325" dy="0.76em" text-anchor="start" font-family="sans-serif" font-size="9.67741935483871" opacity="1" fill="#000000">
anyhow
</text>
<text x="1118" y="340" dy="0.76em" text-anchor="start" font-family="sans-serif" font-size="9.67741935483871" opacity="1" fill="#000000">
err-derive
</text>
<text x="1118" y="355" dy="0.76em" text-anchor="start" font-family="sans-serif" font-size="9.67741935483871" opacity="1" fill="#000000">
error-chain
</text>
<text x="1118" y="370" dy="0.76em" text-anchor="start" font-family="sans-serif" font-size="9.67741935483871" opacity="1" fill="#000000">
failure
</text>
<text x="1118" y="385" dy="0.76em" text-anchor="start" font-family="sans-serif" font-size="9.67741935483871" opacity="1" fill="#000000">
quick-error
</text>
<text x="1118" y="400" dy="0.76em" text-anchor="start" font-family="sans-serif" font-size="9.67741935483871" opacity="1" fill="#000000">
snafu
</text>
<text x="1118" y="415" dy="0.76em" text-anchor="start" font-family="sans-serif" font-size="9.67741935483871" opacity="1" fill="#000000">
thiserror
</text>
<polyline fill="none" opacity="1" stroke="#E61919" stroke-width="2" points="1088,330 1108,330 "/>
<polyline fill="none" opacity="1" stroke="#E6C819" stroke-width="2" points="1088,344 1108,344 "/>
<polyline fill="none" opacity="1" stroke="#54E619" stroke-width="2" points="1088,359 1108,359 "/>
<polyline fill="none" opacity="1" stroke="#19E68E" stroke-width="2" points="1088,374 1108,374 "/>
<polyline fill="none" opacity="1" stroke="#198EE6" stroke-width="2" points="1088,390 1108,390 "/>
<polyline fill="none" opacity="1" stroke="#5419E6" stroke-width="2" points="1088,404 1108,404 "/>
<polyline fill="none" opacity="1" stroke="#E619C8" stroke-width="2" points="1088,419 1108,419 "/>
</svg>
