<svg width="1200" height="800" xmlns="http://www.w3.org/2000/svg">
<rect x="0" y="0" width="1199" height="799" opacity="1" fill="#FFFFFF" stroke="none"/>
<line opacity="0.1" stroke="#000000" stroke-width="1" x1="60" y1="723" x2="1190" y2="723"/>
<line opacity="0.1" stroke="#000000" stroke-width="1" x1="60" y1="708" x2="1190" y2="708"/>
<line opacity="0.1" stroke="#000000" stroke-width="1" x1="60" y1="692" x2="1190" y2="692"/>
<line opacity="0.1" stroke="#000000" stroke-width="1" x1="60" y1="677" x2="1190" y2="677"/>
<line opacity="0.1" stroke="#000000" stroke-width="1" x1="60" y1="661" x2="1190" y2="661"/>
<line opacity="0.1" stroke="#000000" stroke-width="1" x1="60" y1="646" x2="1190" y2="646"/>
<line opacity="0.1" stroke="#000000" stroke-width="1" x1="60" y1="630" x2="1190" y2="630"/>
<line opacity="0.1" stroke="#000000" stroke-width="1" x1="60" y1="615" x2="1190" y2="615"/>
<line opacity="0.1" stroke="#000000" stroke-width="1" x1="60" y1="599" x2="1190" y2="599"/>
<line opacity="0.1" stroke="#000000" stroke-width="1" x1="60" y1="584" x2="1190" y2="584"/>
<line opacity="0.1" stroke="#000000" stroke-width="1" x1="60" y1="568" x2="1190" y2="568"/>
<line opacity="0.1" stroke="#000000" stroke-width="1" x1="60" y1="553" x2="1190" y2="553"/>
<line opacity="0.1" stroke="#000000" stroke-width="1" x1="60" y1="537" x2="1190" y2="537"/>
<line opacity="0.1" stroke="#000000" stroke-width="1" x1="60" y1="522" x2="1190" y2="522"/>
<line opacity="0.1" stroke="#000000" stroke-width="1" x1="60" y1="506" x2="1190" y2="506"/>
<line opacity="0.1" stroke="#000000" stroke-width="1" x1="60" y1="491" x2="1190" y2="491"/>
<line opacity="0.1" stroke="#000000" stroke-width="1" x1="60" y1="475" x2="1190" y2="475"/>
<line opacity="0.1" stroke="#000000" stroke-width="1" x1="60" y1="460" x2="1190" y2="460"/>
<line opacity="0.1" stroke="#000000" stroke-width="1" x1="60" y1="444" x2="1190" y2="444"/>
<line opacity="0.1" stroke="#000000" stroke-width="1" x1="60" y1="429" x2="1190" y2="429"/>
<line opacity="0.1" stroke="#000000" stroke-width="1" x1="60" y1="413" x2="1190" y2="413"/>
<line opacity="0.1" stroke="#000000" stroke-width="1" x1="60" y1="398" x2="1190" y2="398"/>
<line opacity="0.1" stroke="#000000" stroke-width="1" x1="60" y1="382" x2="1190" y2="382"/>
<line opacity="0.1" stroke="#000000" stroke-width="1" x1="60" y1="367" x2="1190" y2="367"/>
<line opacity="0.1" stroke="#000000" stroke-width="1" x1="60" y1="351" x2="1190" y2="351"/>
<line opacity="0.1" stroke="#000000" stroke-width="1" x1="60" y1="335" x2="1190" y2="335"/>
<line opacity="0.1" stroke="#000000" stroke-width="1" x1="60" y1="320" x2="1190" y2="320"/>
<line opacity="0.1" stroke="#000000" stroke-width="1" x1="60" y1="304" x2="1190" y2="304"/>
<line opacity="0.1" stroke="#000000" stroke-width="1" x1="60" y1="289" x2="1190" y2="289"/>
<line opacity="0.1" stroke="#000000" stroke-width="1" x1="60" y1="273" x2="1190" y2="273"/>
<line opacity="0.1" stroke="#000000" stroke-width="1" x1="60" y1="258" x2="1190" y2="258"/>
<line opacity="0.1" stroke="#000000" stroke-width="1" x1="60" y1="242" x2="1190" y2="242"/>
<line opacity="0.1" stroke="#000000" stroke-width="1" x1="60" y1="227" x2="1190" y2="227"/>
<line opacity="0.1" stroke="#000000" stroke-width="1" x1="60" y1="211" x2="1190" y2="211"/>
<line opacity="0.1" stroke="#000000" stroke-width="1" x1="60" y1="196" x2="1190" y2="196"/>
<line opacity="0.1" stroke="#000000" stroke-width="1" x1="60" y1="180" x2="1190" y2="180"/>
<line opacity="0.1" stroke="#000000" stroke-width="1" x1="60" y1="165" x2="1190" y2="165"/>
<line opacity="0.1" stroke="#000000" stroke-width="1" x1="60" y1="149" x2="1190" y2="149"/>
<line opacity="0.1" stroke="#000000" stroke-width="1" x1="60" y1="134" x2="1190" y2="134"/>
<line opacity="0.1" stroke="#000000" stroke-width="1" x1="60" y1="118" x2="1190" y2="118"/>
<line opacity="0.1" stroke="#000000" stroke-width="1" x1="60" y1="103" x2="1190" y2="103"/>
<line opacity="0.1" stroke="#000000" stroke-width="1" x1="60" y1="87" x2="1190" y2="87"/>
<line opacity="0.1" stroke="#000000" stroke-width="1" x1="60" y1="72" x2="1190" y2="72"/>
<line opacity="0.1" stroke="#000000" stroke-width="1" x1="60" y1="56" x2="1190" y2="56"/>
<line opacity="0.1" stroke="#000000" stroke-width="1" x1="60" y1="41" x2="1190" y2="41"/>
<line opacity="0.1" stroke="#000000" stroke-width="1" x1="60" y1="25" x2="1190" y2="25"/>
<line opacity="0.1" stroke="#000000" stroke-width="1" x1="60" y1="10" x2="1190" y2="10"/>
<text x="10" y="375" dy="0.76em" text-anchor="middle" font-family="sans-serif" font-size="9.67741935483871" opacity="1" fill="#000000" transform="rotate(270, 10, 375)">
Number of dependent crates
</text>
<line opacity="0.2" stroke="#000000" stroke-width="1" x1="60" y1="584" x2="1190" y2="584"/>
<line opacity="0.2" stroke="#000000" stroke-width="1" x1="60" y1="429" x2="1190" y2="429"/>
<line opacity="0.2" stroke="#000000" stroke-width="1" x1="60" y1="273" x2="1190" y2="273"/>
<line opacity="0.2" stroke="#000000" stroke-width="1" x1="60" y1="118" x2="1190" y2="118"/>
<polyline fill="none" opacity="1" stroke="#000000" stroke-width="1" points="59,10 59,740 "/>
<text x="50" y="584" dy="0.5ex" text-anchor="end" font-family="sans-serif" font-size="9.67741935483871" opacity="1" fill="#000000">
500
</text>
<polyline fill="none" opacity="1" stroke="#000000" stroke-width="1" points="54,584 59,584 "/>
<text x="50" y="429" dy="0.5ex" text-anchor="end" font-family="sans-serif" font-size="9.67741935483871" opacity="1" fill="#000000">
1000
</text>
<polyline fill="none" opacity="1" stroke="#000000" stroke-width="1" points="54,429 59,429 "/>
<text x="50" y="273" dy="0.5ex" text-anchor="end" font-family="sans-serif" font-size="9.67741935483871" opacity="1" fill="#000000">
1500
</text>
<polyline fill="none" opacity="1" stroke="#000000" stroke-width="1" points="54,273 59,273 "/>
<text x="50" y="118" dy="0.5ex" text-anchor="end" font-family="sans-serif" font-size="9.67741935483871" opacity="1" fill="#000000">
2000
</text>
<polyline fill="none" opacity="1" stroke="#000000" stroke-width="1" points="54,118 59,118 "/>
<polyline fill="none" opacity="1" stroke="#000000" stroke-width="1" points="60,740 1190,740 "/>
<text x="60" y="750" dy="0.76em" text-anchor="middle" font-family="sans-serif" font-size="9.67741935483871" opacity="1" fill="#000000">
2015-09-24Z
</text>
<polyline fill="none" opacity="1" stroke="#000000" stroke-width="1" points="60,740 60,745 "/>
<text x="173" y="750" dy="0.76em" text-anchor="middle" font-family="sans-serif" font-size="9.67741935483871" opacity="1" fill="#000000">
2016-03-17Z
</text>
<polyline fill="none" opacity="1" stroke="#000000" stroke-width="1" points="173,740 173,745 "/>
<text x="286" y="750" dy="0.76em" text-anchor="middle" font-family="sans-serif" font-size="9.67741935483871" opacity="1" fill="#000000">
2016-09-08Z
</text>
<polyline fill="none" opacity="1" stroke="#000000" stroke-width="1" points="286,740 286,745 "/>
<text x="399" y="750" dy="0.76em" text-anchor="middle" font-family="sans-serif" font-size="9.67741935483871" opacity="1" fill="#000000">
2017-03-02Z
</text>
<polyline fill="none" opacity="1" stroke="#000000" stroke-width="1" points="399,740 399,745 "/>
<text x="513" y="750" dy="0.76em" text-anchor="middle" font-family="sans-serif" font-size="9.67741935483871" opacity="1" fill="#000000">
2017-08-24Z
</text>
<polyline fill="none" opacity="1" stroke="#000000" stroke-width="1" points="513,740 513,745 "/>
<text x="626" y="750" dy="0.76em" text-anchor="middle" font-family="sans-serif" font-size="9.67741935483871" opacity="1" fill="#000000">
2018-02-15Z
</text>
<polyline fill="none" opacity="1" stroke="#000000" stroke-width="1" points="626,740 626,745 "/>
<text x="739" y="750" dy="0.76em" text-anchor="middle" font-family="sans-serif" font-size="9.67741935483871" opacity="1" fill="#000000">
2018-08-09Z
</text>
<polyline fill="none" opacity="1" stroke="#000000" stroke-width="1" points="739,740 739,745 "/>
<text x="852" y="750" dy="0.76em" text-anchor="middle" font-family="sans-serif" font-size="9.67741935483871" opacity="1" fill="#000000">
2019-01-31Z
</text>
<polyline fill="none" opacity="1" stroke="#000000" stroke-width="1" points="852,740 852,745 "/>
<text x="966" y="750" dy="0.76em" text-anchor="middle" font-family="sans-serif" font-size="9.67741935483871" opacity="1" fill="#000000">
2019-07-25Z
</text>
<polyline fill="none" opacity="1" stroke="#000000" stroke-width="1" points="966,740 966,745 "/>
<text x="1079" y="750" dy="0.76em" text-anchor="middle" font-family="sans-serif" font-size="9.67741935483871" opacity="1" fill="#000000">
2020-01-16Z
</text>
<polyline fill="none" opacity="1" stroke="#000000" stroke-width="1" points="1079,740 1079,745 "/>
<polyline fill="none" opacity="1" stroke="#E61919" stroke-width="2" points="1013,738 1015,738 1015,738 1016,738 1017,738 1017,738 1019,738 1019,737 1020,737 1020,737 1021,737 1021,737 1022,736 1023,736 1023,736 1024,736 1024,735 1025,735 1026,734 1026,734 1027,734 1028,734 1028,732 1030,732 1030,732 1031,731 1032,730 1032,730 1033,728 1034,724 1034,724 1035,724 1035,724 1036,723 1037,723 1037,723 1038,721 1039,718 1039,717 1040,717 1041,716 1041,716 1042,715 1043,715 1043,714 1044,714 1045,712 1045,712 1046,711 1046,711 1047,711 1048,711 1048,710 1049,710 1050,708 1050,708 1051,707 1052,707 1052,707 1053,707 1054,707 1054,705 1055,705 1056,704 1056,704 1057,704 1057,703 1058,703 1059,703 1059,702 1060,702 1061,702 1061,701 1062,701 1063,701 1063,700 1064,699 1065,699 1065,698 1066,698 1067,698 1067,698 1068,696 1068,695 1069,695 1070,693 1070,692 1071,691 1072,691 1072,690 1073,690 1074,688 1074,687 1075,685 1076,685 1076,684 1077,682 1078,680 1078,680 1079,680 1079,679 1080,679 1081,678 1081,678 1082,678 1083,677 1083,677 1084,674 1085,673 1085,672 1086,672 1087,671 1087,671 1088,670 1089,670 1089,670 1090,670 1090,667 1091,667 1092,666 1092,666 1093,664 1094,663 1094,662 1095,662 1096,662 1096,661 1097,661 1098,661 1098,660 1099,659 1100,658 1100,657 1101,657 1101,656 1102,656 1103,656 1103,656 1104,655 1105,654 1105,653 1106,653 1107,652 1107,652 1108,650 1109,650 1109,649 1110,649 1111,649 1111,649 1111,649 1112,649 1112,648 1112,647 1113,646 1113,646 1114,646 1114,645 1114,645 1115,645 1115,642 1116,642 1116,637 1116,637 1116,637 1117,637 1117,635 1118,635 1118,635 1118,635 1118,634 1119,634 1119,633 1120,633 1120,632 1120,632 1120,631 1121,631 1121,631 1122,630 1122,630 1122,629 1123,628 1123,628 1123,627 1124,627 1124,626 1125,626 1125,625 1125,625 1125,625 1126,625 1126,623 1127,623 1127,623 1127,623 1128,623 1128,622 1129,622 1129,622 1129,622 1129,621 1130,621 1130,619 1131,619 1131,619 1131,619 1131,617 1132,617 1132,616 1133,616 1133,614 1133,614 1133,612 1134,609 1134,609 1134,608 1135,608 1135,606 1136,606 1136,605 1136,605 1136,604 1137,604 1137,604 1138,604 1138,603 1138,602 1138,601 1139,601 1139,598 1140,598 1140,598 1140,598 1140,596 1141,596 1141,595 1142,594 1142,593 1143,593 1143,593 1144,593 1144,591 1144,591 1144,589 1145,589 1145,589 1145,589 1145,589 1146,589 1146,588 1147,588 1147,586 1147,586 1147,586 1148,586 1148,586 1149,584 1149,584 1149,581 1150,581 1150,580 1151,580 1151,579 1151,579 1151,577 1152,577 1152,574 1153,574 1153,574 1153,573 1154,573 1154,572 1155,572 1155,569 1155,569 1155,567 1156,567 1156,565 1156,565 1156,565 1157,565 1157,564 1158,564 1158,562 1158,562 1158,557 1159,557 1159,554 1160,554 1160,551 1160,551 1160,549 1161,549 1161,548 1162,548 1162,547 1162,547 1162,545 1163,545 1163,542 1164,542 1164,541 1164,541 1164,541 1165,540 1166,540 1166,537 1166,537 1166,534 1167,534 1167,532 1167,532 1167,530 1168,530 1168,528 1169,528 1169,528 1169,528 1169,527 1170,527 1170,524 1171,524 1171,522 1171,520 1172,520 1172,517 1173,517 1173,515 1173,515 1173,514 1174,514 1174,512 1175,512 1175,510 1175,508 1176,506 1177,506 1177,505 1177,504 1178,504 1178,503 1178,503 1178,501 1179,501 1179,500 1180,500 1180,498 1180,498 1180,498 1181,498 1181,496 1182,496 1182,496 1182,496 1182,495 1183,495 1183,494 1184,494 1184,493 1184,492 1185,492 1185,492 1186,492 1186,490 1186,490 1186,487 1187,487 1187,486 1188,486 1188,485 1188,485 1188,484 1189,484 1189,483 1190,483 "/>
<polyline fill="none" opacity="1" stroke="#E6C819" stroke-width="2" points="831,738 838,738 843,738 846,737 868,737 875,737 890,736 891,736 894,735 896,735 898,735 900,735 901,735 901,735 902,734 903,734 907,734 907,734 908,734 909,734 911,734 912,734 913,734 913,734 914,734 915,734 916,734 916,734 917,734 918,734 918,733 919,733 921,733 922,733 924,733 924,733 925,733 925,733 926,733 927,733 928,733 929,733 930,733 931,733 932,733 933,733 933,733 934,733 935,733 936,733 938,733 938,733 940,733 940,732 941,732 942,732 942,732 943,732 944,731 944,731 945,731 946,731 946,731 947,731 947,731 948,731 949,731 949,731 950,730 951,730 951,730 952,730 953,730 953,730 954,730 955,730 955,730 956,730 957,730 958,730 958,730 959,730 960,729 960,729 961,729 962,729 962,730 963,730 964,730 964,730 965,729 966,729 967,729 968,729 968,729 969,729 969,729 971,729 971,729 972,729 973,729 973,729 974,729 975,729 975,729 976,729 977,729 977,729 978,729 979,729 979,729 980,729 980,729 981,729 982,729 982,729 983,728 984,728 985,728 986,728 986,728 987,728 988,728 988,728 989,728 990,728 990,727 991,727 991,727 992,727 993,726 993,726 994,726 995,726 995,726 996,726 997,726 997,726 998,726 999,726 999,726 1000,726 1001,726 1001,726 1002,726 1002,726 1003,726 1004,726 1004,726 1005,726 1006,726 1007,726 1008,726 1009,726 1010,726 1010,725 1011,725 1012,725 1013,725 1013,725 1014,725 1015,725 1015,725 1016,725 1017,725 1018,725 1019,725 1019,725 1020,725 1020,725 1021,725 1021,725 1022,725 1023,725 1023,725 1024,725 1025,725 1026,725 1026,725 1027,725 1028,725 1028,725 1029,725 1030,725 1030,725 1031,725 1032,725 1032,725 1033,725 1034,725 1034,725 1035,724 1035,724 1036,724 1037,724 1037,724 1039,724 1039,724 1040,724 1041,724 1041,724 1042,724 1043,724 1043,724 1044,724 1045,724 1045,724 1046,724 1046,724 1047,724 1048,724 1048,724 1050,724 1050,724 1051,724 1052,724 1052,724 1053,724 1054,724 1054,724 1055,724 1056,724 1056,724 1057,724 1057,724 1058,724 1059,724 1059,724 1060,724 1061,724 1061,724 1062,724 1063,724 1064,724 1065,724 1065,724 1066,724 1067,724 1067,724 1068,724 1068,724 1069,724 1070,724 1070,724 1071,724 1072,724 1073,724 1074,724 1074,724 1075,724 1076,724 1076,724 1077,724 1078,724 1078,723 1079,723 1079,723 1080,724 1081,723 1081,723 1082,723 1083,723 1083,723 1084,723 1085,723 1085,723 1086,723 1087,723 1087,723 1088,723 1089,723 1089,723 1090,723 1090,723 1091,723 1092,722 1092,722 1093,721 1094,721 1094,721 1095,721 1096,721 1096,721 1097,722 1098,722 1098,721 1099,721 1100,721 1100,721 1101,721 1101,721 1102,721 1103,721 1103,720 1105,720 1105,720 1106,720 1107,720 1107,720 1108,721 1109,721 1109,720 1110,720 1111,720 1111,720 1111,721 1112,721 1112,721 1112,721 1113,721 1113,720 1114,720 1114,721 1114,721 1115,721 1115,721 1116,721 1116,721 1116,721 1116,721 1117,721 1117,721 1118,721 1118,721 1118,721 1118,721 1119,721 1119,721 1120,721 1120,721 1120,721 1120,721 1121,721 1121,720 1122,720 1122,720 1122,720 1123,720 1123,720 1123,720 1124,720 1124,720 1125,720 1125,720 1125,720 1125,720 1126,720 1126,720 1127,720 1127,720 1127,720 1128,720 1128,720 1129,720 1129,720 1129,720 1129,720 1130,720 1130,720 1131,720 1131,720 1131,720 1131,720 1132,720 1132,720 1133,720 1133,720 1133,720 1133,720 1134,720 1134,720 1134,720 1135,720 1135,720 1136,720 1136,720 1136,720 1136,720 1137,720 1137,720 1138,720 1138,720 1138,720 1138,720 1139,720 1139,720 1140,720 1140,720 1140,720 1140,720 1141,720 1141,720 1142,720 1142,720 1143,720 1143,720 1144,720 1144,719 1144,719 1144,719 1145,719 1145,719 1145,719 1145,719 1146,719 1146,719 1147,719 1147,719 1147,719 1147,719 1148,719 1148,719 1149,719 1149,719 1149,719 1150,719 1150,719 1151,719 1151,719 1151,719 1152,719 1152,719 1153,719 1153,719 1153,719 1154,719 1154,719 1155,719 1155,719 1155,719 1155,719 1156,719 1156,719 1156,719 1156,719 1157,719 1157,719 1158,719 1158,719 1158,719 1158,719 1159,719 1159,719 1160,719 1160,719 1160,719 1160,719 1161,719 1161,719 1162,719 1162,719 1162,719 1162,719 1163,719 1163,719 1164,719 1164,719 1164,719 1164,719 1165,719 1166,719 1166,719 1166,719 1166,719 1167,719 1167,719 1167,719 1167,719 1168,719 1168,719 1169,719 1169,719 1169,719 1169,719 1170,719 1170,719 1171,719 1171,719 1171,719 1172,719 1172,719 1173,719 1173,719 1173,719 1173,719 1174,719 1174,719 1175,719 1175,719 1175,719 1176,719 1177,719 1177,719 1177,719 1178,719 1178,719 1178,719 1178,719 1179,719 1179,719 1180,719 1180,719 1180,719 1180,719 1181,719 1181,719 1182,719 1182,719 1182,719 1182,719 1183,719 1183,719 1184,719 1184,719 1184,719 1185,719 1185,719 1186,719 1186,719 1186,719 1186,719 1187,719 1187,719 1188,719 1188,719 1188,719 1188,719 1189,719 1189,719 1190,719 "/>
<polyline fill="none" opacity="1" stroke="#54E619" stroke-width="2" points="235,738 236,738 241,738 246,738 253,738 254,737 254,737 259,737 271,736 272,736 273,736 278,735 280,735 280,734 281,734 282,734 285,734 287,734 289,734 289,733 291,732 292,732 296,732 298,731 299,731 301,730 302,729 303,728 303,728 307,728 309,727 309,727 311,727 312,726 313,726 313,726 314,726 314,726 315,726 316,726 317,726 318,726 318,726 319,726 320,725 320,725 321,725 322,725 322,725 323,725 324,724 324,724 325,723 325,722 326,722 327,722 328,721 329,721 330,721 334,721 335,720 335,720 336,720 336,720 338,719 338,719 339,719 340,718 340,717 342,716 343,715 344,715 344,715 345,714 346,714 347,714 348,713 348,713 349,713 350,712 351,712 351,711 352,710 353,709 353,708 354,706 355,706 355,705 356,705 357,705 357,705 358,703 359,703 359,703 360,702 361,701 362,701 362,701 363,700 364,700 364,700 365,700 366,699 366,699 367,699 368,699 368,697 369,697 370,697 370,697 371,697 371,697 373,697 373,697 375,696 376,696 377,695 377,695 378,695 379,695 379,695 380,694 381,694 381,694 382,694 382,694 383,693 384,693 384,693 385,692 386,692 386,692 387,692 388,691 388,690 389,689 390,689 391,688 392,687 392,687 393,687 393,687 394,687 395,687 395,686 396,686 397,686 397,686 398,685 399,685 399,685 400,684 401,684 401,684 402,683 403,682 403,682 404,682 404,682 405,681 406,680 406,680 407,680 408,680 408,680 409,680 410,678 410,678 411,676 412,676 412,676 413,676 414,675 414,675 415,674 415,673 416,673 417,673 417,672 418,672 419,672 419,672 420,672 421,671 421,671 422,671 423,671 423,671 424,671 425,671 425,671 426,670 426,670 427,669 428,669 428,668 429,668 430,667 430,667 431,666 432,666 432,666 433,665 434,665 434,665 435,665 436,664 436,664 437,663 437,662 438,662 439,661 439,660 440,660 441,659 441,659 442,659 443,658 443,658 444,657 445,657 445,657 446,656 447,656 447,655 448,654 448,653 449,653 450,652 450,652 451,651 452,650 452,649 453,649 454,649 454,649 455,649 456,649 456,648 457,649 458,647 458,646 459,646 459,646 460,645 461,645 461,645 462,645 463,645 463,644 464,644 465,644 465,644 466,643 467,642 467,642 468,641 469,641 469,640 470,640 470,639 471,639 472,638 472,638 473,637 474,637 474,636 475,636 476,636 476,635 477,635 478,634 478,634 479,634 480,634 480,633 481,633 481,633 482,633 483,633 483,632 484,632 485,631 485,631 486,631 487,630 487,628 488,628 489,628 489,626 490,625 491,625 491,624 492,623 492,623 493,622 494,621 494,621 495,620 496,620 496,620 497,619 498,618 498,618 499,618 500,617 500,617 501,617 502,616 502,617 503,616 503,616 504,615 505,615 505,614 506,614 507,613 507,613 508,613 509,612 509,611 510,611 511,610 511,609 512,609 513,608 513,608 514,607 514,607 515,607 516,605 516,605 517,604 518,604 518,602 519,602 520,601 520,601 521,601 522,599 522,599 523,598 524,598 524,598 525,598 525,597 526,597 527,596 527,596 528,597 529,596 529,596 530,596 531,596 531,596 532,596 533,589 533,588 534,588 535,587 535,587 536,586 536,585 537,584 538,584 538,583 539,583 540,583 540,582 541,582 542,582 542,581 543,580 544,580 544,579 545,578 546,578 546,577 547,577 547,577 548,577 549,577 549,577 550,577 551,577 551,577 552,577 553,577 553,576 554,576 555,576 555,575 556,575 557,575 557,574 558,574 558,574 559,574 560,574 560,573 561,571 562,571 562,570 563,569 564,569 564,569 565,569 566,568 566,567 567,567 568,567 568,567 569,566 569,566 570,566 571,566 571,566 572,565 573,565 573,565 574,565 575,565 575,564 576,564 577,563 577,563 578,562 579,562 579,562 580,560 580,560 581,560 582,560 582,559 583,559 584,560 584,560 585,560 586,559 586,559 587,559 588,558 588,558 589,557 590,557 590,557 591,556 591,555 592,555 593,555 593,555 594,553 595,552 595,551 596,551 597,551 597,550 598,550 599,550 599,550 600,550 601,549 601,549 602,549 602,549 603,549 604,548 604,548 605,548 606,548 606,548 607,548 608,547 608,547 609,546 610,546 610,546 611,546 612,547 612,546 613,547 613,546 614,547 615,548 615,548 616,547 617,547 617,546 618,546 619,546 619,546 620,546 621,546 621,545 622,545 623,545 623,545 624,545 625,544 625,543 626,543 626,543 627,543 628,543 628,543 629,543 630,543 630,543 631,543 632,543 632,543 633,543 634,543 634,543 635,543 636,544 636,546 637,546 637,546 638,546 639,545 639,546 640,545 641,545 641,545 642,544 643,543 643,543 644,543 645,543 645,543 646,543 647,543 647,543 648,542 648,542 649,542 650,542 650,542 651,542 652,542 652,543 653,542 654,542 654,542 655,542 656,541 656,541 657,541 658,541 658,541 659,541 659,541 660,541 661,541 661,541 662,541 663,541 663,541 664,541 665,541 665,541 666,541 667,541 667,541 668,541 669,541 669,541 670,540 670,540 671,541 672,541 672,541 673,540 674,539 674,539 675,539 676,539 676,539 677,539 678,539 678,538 679,539 680,538 680,539 681,539 681,539 682,539 683,539 683,539 684,538 685,538 685,537 686,537 687,537 687,537 688,537 689,537 689,538 690,538 691,538 691,539 692,539 692,539 693,539 694,539 694,539 695,539 696,538 696,538 697,538 698,538 698,538 699,538 700,537 700,538 701,538 702,537 702,537 703,537 703,537 704,537 705,537 705,537 706,537 707,537 707,537 708,537 709,537 709,537 710,537 711,537 711,537 712,537 713,537 713,537 714,537 714,537 715,537 716,537 716,537 717,537 718,537 718,537 719,536 720,536 720,536 721,536 722,536 722,536 723,536 724,534 724,534 725,534 725,534 726,534 727,534 727,535 728,535 729,535 729,535 730,535 731,535 731,535 732,535 733,535 733,536 734,536 735,536 735,536 736,537 736,537 737,536 738,536 738,536 739,536 740,536 740,536 741,536 742,536 742,536 743,536 744,536 744,536 745,536 746,536 746,536 747,536 747,535 748,535 749,534 749,534 750,534 751,534 751,534 752,534 753,534 753,534 754,534 755,534 755,534 756,534 757,533 757,533 758,533 758,533 759,533 760,533 760,534 761,533 762,533 762,533 763,533 764,533 764,533 765,533 766,532 766,532 767,532 768,533 768,532 769,532 769,532 770,532 770,532 771,531 771,531 772,531 773,531 773,531 774,531 775,532 775,532 776,532 777,532 777,531 778,531 779,531 779,531 780,531 780,531 781,531 782,531 782,531 783,531 784,531 784,531 785,531 786,531 786,531 787,531 788,531 788,531 789,531 790,531 790,530 791,530 791,530 792,530 793,530 793,530 794,529 795,529 795,528 796,528 797,528 797,528 798,528 799,529 799,537 800,537 801,537 801,537 802,537 802,537 803,537 804,536 804,537 805,537 806,536 806,536 807,536 808,536 808,536 809,536 810,536 810,536 811,536 812,536 812,536 813,536 813,536 814,536 815,536 815,536 816,536 817,536 817,536 818,536 819,536 819,536 820,536 821,536 821,536 822,536 823,536 823,536 824,537 824,537 825,536 826,536 826,536 827,536 828,537 828,537 829,537 830,537 830,537 831,537 832,536 832,536 833,536 834,537 834,537 835,537 835,537 836,537 837,538 837,537 838,537 839,537 839,537 840,537 841,537 841,537 842,537 843,537 843,537 844,537 845,537 845,537 846,537 846,536 847,536 848,536 848,536 849,536 850,536 850,535 851,535 852,535 852,535 853,535 854,535 854,535 855,536 856,536 856,536 857,536 857,536 858,536 859,536 859,536 860,536 861,537 861,537 862,536 863,536 863,536 864,536 865,536 865,534 866,534 867,534 867,534 868,534 868,534 869,535 870,535 870,535 871,535 872,535 872,535 873,535 874,535 874,535 875,535 876,535 876,535 877,535 878,535 878,535 879,535 879,535 880,535 881,535 881,535 882,535 883,535 883,535 884,535 885,535 885,535 886,535 887,535 887,535 888,535 889,535 889,535 890,535 890,535 891,535 892,535 892,535 893,535 894,536 894,534 895,534 896,534 896,534 897,534 898,534 898,534 899,534 900,534 900,534 901,534 901,534 902,534 903,534 903,534 904,534 905,534 905,534 906,535 907,535 907,535 908,534 909,534 909,534 910,535 911,535 911,535 912,535 913,534 913,535 914,535 914,535 915,535 916,535 916,535 917,535 918,535 918,535 919,535 920,535 920,535 921,535 922,535 922,535 923,535 924,535 924,535 925,535 925,535 926,535 927,535 927,535 928,535 929,534 929,534 930,534 931,533 931,533 932,533 933,533 933,533 934,533 935,533 935,533 936,533 936,533 937,533 938,533 938,533 939,533 940,533 940,534 941,534 942,534 942,534 943,534 944,534 944,534 945,534 946,534 946,534 947,534 947,534 948,534 949,534 949,534 950,534 951,534 951,534 952,534 953,533 953,533 954,533 955,533 955,533 956,533 957,533 957,533 958,533 958,533 959,533 960,533 960,533 961,533 962,533 962,533 963,533 964,533 964,533 965,533 966,533 966,532 967,532 968,532 968,532 969,532 969,532 970,532 971,532 971,532 972,532 973,532 973,532 974,531 975,531 975,531 976,531 977,531 977,531 978,532 979,532 979,532 980,532 980,532 981,532 982,532 982,532 983,532 984,532 984,532 985,532 986,532 986,532 987,532 988,532 988,532 989,532 990,532 990,532 991,532 991,532 992,532 993,532 993,532 994,532 995,532 995,532 996,532 997,532 997,532 998,532 999,532 999,532 1000,532 1001,532 1001,532 1002,532 1002,532 1003,532 1004,532 1004,530 1005,530 1006,530 1006,530 1007,530 1008,530 1008,530 1009,529 1010,529 1010,529 1011,530 1012,530 1012,530 1013,530 1013,529 1014,529 1015,529 1015,529 1016,529 1017,529 1017,529 1018,529 1019,530 1019,529 1020,529 1020,530 1021,530 1021,530 1022,530 1023,530 1023,530 1024,530 1024,530 1025,529 1026,529 1026,529 1027,529 1028,530 1028,530 1029,530 1030,530 1030,530 1031,530 1032,529 1032,530 1033,529 1034,529 1034,528 1035,528 1035,528 1036,528 1037,528 1037,528 1038,527 1039,527 1039,528 1040,528 1041,528 1041,528 1042,528 1043,528 1043,528 1044,528 1045,528 1045,528 1046,528 1046,528 1047,528 1048,528 1048,528 1049,528 1050,528 1050,529 1051,529 1052,529 1052,528 1053,528 1054,528 1054,528 1055,528 1056,528 1056,528 1057,528 1057,528 1058,528 1059,528 1059,529 1060,529 1061,528 1061,528 1062,528 1063,528 1063,528 1064,528 1065,528 1065,528 1066,528 1067,528 1067,528 1068,528 1068,528 1069,528 1070,528 1070,528 1071,528 1072,528 1072,528 1073,528 1074,528 1074,528 1075,528 1076,529 1076,529 1077,529 1078,529 1078,529 1079,530 1079,530 1080,530 1081,530 1081,530 1082,530 1083,530 1083,530 1084,530 1085,530 1085,531 1086,531 1087,531 1087,531 1088,531 1089,531 1089,530 1090,530 1090,530 1091,530 1092,530 1092,530 1093,530 1094,530 1094,530 1095,529 1096,529 1096,529 1097,529 1098,529 1098,528 1099,528 1100,529 1100,529 1101,529 1101,529 1102,529 1103,529 1103,529 1104,529 1105,529 1105,529 1106,528 1107,528 1107,528 1108,528 1109,528 1109,528 1110,528 1111,528 1111,528 1111,528 1112,528 1112,528 1112,528 1113,528 1113,528 1114,528 1114,529 1114,529 1115,529 1115,529 1116,529 1116,529 1116,529 1116,529 1117,529 1117,529 1118,529 1118,529 1118,529 1118,529 1119,529 1119,529 1120,529 1120,529 1120,529 1120,529 1121,529 1121,529 1122,530 1122,530 1122,530 1123,530 1123,530 1123,530 1124,530 1124,530 1125,530 1125,530 1125,530 1125,530 1126,530 1126,530 1127,530 1127,530 1127,530 1128,530 1128,529 1129,529 1129,529 1129,529 1129,529 1130,529 1130,530 1131,530 1131,529 1131,529 1131,530 1132,530 1132,530 1133,530 1133,530 1133,530 1133,530 1134,530 1134,530 1134,530 1135,530 1135,530 1136,530 1136,530 1136,530 1136,530 1137,530 1137,530 1138,530 1138,530 1138,530 1138,530 1139,530 1139,530 1140,530 1140,530 1140,530 1140,530 1141,530 1141,530 1142,530 1142,530 1143,530 1143,530 1144,530 1144,530 1144,530 1144,530 1145,530 1145,530 1145,530 1145,530 1146,530 1146,530 1147,530 1147,530 1147,530 1147,530 1148,530 1148,531 1149,531 1149,531 1149,530 1150,530 1150,530 1151,530 1151,530 1151,530 1151,530 1152,530 1152,530 1153,530 1153,530 1153,530 1154,530 1154,530 1155,530 1155,529 1155,529 1155,529 1156,529 1156,529 1156,529 1156,529 1157,529 1157,529 1158,529 1158,529 1158,529 1158,529 1159,529 1159,529 1160,529 1160,529 1160,529 1160,529 1161,529 1161,529 1162,529 1162,529 1162,529 1162,530 1163,530 1163,530 1164,530 1164,529 1164,529 1164,529 1165,529 1166,529 1166,529 1166,529 1166,529 1167,529 1167,528 1167,528 1167,529 1168,529 1168,529 1169,529 1169,529 1169,529 1169,529 1170,529 1170,529 1171,529 1171,529 1171,529 1172,529 1172,529 1173,529 1173,529 1173,529 1173,529 1174,529 1174,530 1175,530 1175,530 1175,530 1176,530 1177,530 1177,530 1177,530 1178,530 1178,529 1178,529 1178,529 1179,529 1179,529 1180,529 1180,529 1180,529 1180,528 1181,528 1181,528 1182,528 1182,528 1182,528 1182,528 1183,528 1183,528 1184,528 1184,528 1184,528 1185,528 1185,528 1186,528 1186,528 1186,528 1186,528 1187,528 1187,528 1188,528 1188,528 1188,528 1188,528 1189,528 1189,528 1190,528 "/>
<polyline fill="none" opacity="1" stroke="#19E68E" stroke-width="2" points="567,738 568,738 569,738 570,737 571,736 571,736 573,736 573,735 574,734 575,734 575,733 576,732 577,731 577,731 578,731 579,730 579,729 580,729 582,729 583,728 584,727 584,726 585,726 586,725 586,725 589,724 590,722 590,722 591,722 592,721 593,721 594,720 595,720 595,719 596,718 597,718 597,717 598,717 599,717 599,716 601,715 601,713 602,713 602,712 603,712 604,712 604,711 605,711 606,711 606,709 607,709 608,709 608,709 609,709 610,707 610,707 611,707 612,707 612,705 613,705 613,704 614,703 615,702 615,701 616,701 617,700 617,699 618,698 619,698 619,697 620,697 621,696 621,694 622,693 623,693 623,693 624,693 625,693 625,693 626,693 626,692 627,692 628,691 628,689 629,689 630,688 630,687 631,685 632,684 632,684 633,683 634,682 634,680 635,678 636,677 636,677 637,677 637,675 638,673 639,671 639,671 640,670 641,670 641,669 642,668 643,668 643,667 644,667 645,666 645,666 646,665 647,664 647,663 648,662 648,662 649,661 650,661 650,660 651,660 652,659 652,658 653,658 654,657 654,656 655,656 656,655 656,654 657,653 658,652 658,651 659,651 659,650 660,649 661,647 661,645 662,644 663,642 663,641 664,640 665,638 665,637 666,637 667,636 667,636 668,635 669,635 669,634 670,631 670,630 671,629 672,627 672,627 673,626 674,624 674,623 675,623 676,621 676,620 677,620 678,619 678,619 679,618 680,616 680,616 681,614 681,614 682,612 683,609 683,609 684,608 685,608 685,608 686,607 687,606 687,605 688,605 689,604 689,602 690,602 691,601 691,598 692,595 692,595 693,593 694,593 694,592 695,591 696,591 696,591 697,591 698,589 698,589 699,588 700,588 700,587 702,586 702,585 703,585 703,584 704,584 705,583 705,581 706,579 707,577 707,576 708,575 709,574 709,574 710,574 711,574 711,573 712,572 713,571 713,570 714,570 714,569 715,569 716,568 716,567 717,566 718,566 718,565 719,565 720,564 720,563 721,563 722,561 722,561 723,561 724,560 724,559 725,559 725,559 726,557 727,556 727,554 728,553 729,552 729,551 730,550 731,550 731,550 732,549 733,549 733,548 734,547 735,547 735,545 736,543 736,543 737,542 738,542 738,541 739,540 740,540 740,540 741,539 742,538 742,538 743,537 744,535 744,535 745,533 746,531 746,531 747,529 747,529 748,528 749,527 749,526 750,525 751,524 751,524 752,524 753,523 753,523 754,522 755,521 755,519 756,518 757,517 757,517 758,516 758,515 759,514 760,512 760,511 761,512 762,510 762,510 763,510 764,508 764,507 765,506 766,505 766,504 767,502 768,501 768,500 769,499 769,498 770,497 770,496 771,495 771,495 772,494 773,492 773,491 774,488 775,485 775,483 776,482 777,482 777,481 778,480 779,480 779,479 780,478 780,477 781,477 782,476 782,476 783,475 784,475 784,474 785,473 786,472 786,471 787,468 788,468 788,467 789,465 790,465 790,465 791,464 791,462 792,461 793,459 793,458 794,457 795,457 795,457 796,456 797,454 797,455 798,454 799,452 799,439 800,438 801,438 801,438 802,436 802,436 803,435 804,435 804,434 805,432 806,431 806,430 807,430 808,427 808,427 809,425 810,425 810,424 811,423 812,422 812,422 813,422 813,420 814,418 815,417 815,414 816,412 817,410 817,409 818,407 819,407 819,405 820,404 821,402 821,402 822,402 823,401 823,398 824,396 824,396 825,394 826,393 826,392 827,390 828,390 828,390 829,389 830,388 830,387 831,386 832,385 832,384 833,384 834,381 834,380 835,380 835,378 836,377 837,373 837,371 838,372 839,372 839,371 840,371 841,369 841,369 842,367 843,366 843,366 844,364 845,362 845,362 846,362 846,361 847,361 848,359 848,358 849,357 850,355 850,355 851,353 852,353 852,352 853,352 854,352 854,351 855,349 856,349 856,348 857,347 857,347 858,343 859,342 859,341 860,340 861,338 861,338 862,336 863,336 863,335 864,335 865,335 865,334 866,333 867,333 867,332 868,332 868,331 869,331 870,330 870,328 871,326 872,325 872,323 873,321 874,321 874,321 875,320 876,318 876,317 877,315 878,313 878,313 879,312 879,311 880,310 881,309 881,308 882,308 883,306 883,305 884,305 885,304 885,303 886,302 887,302 887,302 888,301 889,301 889,298 890,298 890,296 891,295 892,294 892,293 893,290 894,289 894,290 895,289 896,288 896,288 897,288 898,285 898,285 899,283 900,281 900,280 901,280 901,279 902,279 903,279 903,278 904,277 905,275 905,275 906,274 907,273 907,273 908,272 909,271 909,270 910,269 911,268 911,267 912,266 913,265 913,264 914,264 914,263 915,262 916,261 916,260 917,259 918,260 918,259 919,259 920,259 920,258 921,257 922,255 922,255 923,253 924,252 924,252 925,252 925,246 926,246 927,246 927,246 928,245 929,244 929,243 930,242 931,242 931,241 932,241 933,240 933,241 934,241 935,241 935,240 936,239 936,238 937,237 938,237 938,236 939,234 940,234 940,232 941,232 942,230 942,229 943,226 944,225 944,225 945,225 946,223 946,221 947,220 947,220 948,217 949,216 949,216 950,214 951,214 951,213 952,211 953,208 953,207 954,207 955,207 955,206 956,205 957,205 957,203 958,203 958,202 959,202 960,202 960,201 961,201 962,200 962,200 963,197 964,197 964,195 965,196 966,194 966,191 967,191 968,192 968,190 969,189 969,189 970,188 971,187 971,187 972,187 973,186 973,185 974,184 975,183 975,182 976,182 977,181 977,181 978,179 979,177 979,176 980,175 980,175 981,174 982,173 982,173 983,169 984,168 984,168 985,168 986,168 986,167 987,167 988,167 988,167 989,166 990,165 990,164 991,163 991,163 992,162 993,161 993,160 994,161 995,161 995,160 996,159 997,157 997,156 998,155 999,155 999,155 1000,154 1001,153 1001,152 1002,151 1002,150 1003,149 1004,148 1004,148 1005,147 1006,146 1006,145 1007,145 1008,144 1008,144 1009,144 1010,143 1010,143 1011,142 1012,141 1012,141 1013,141 1013,142 1014,141 1015,139 1015,139 1016,138 1017,135 1017,135 1018,134 1019,134 1019,133 1020,133 1020,133 1021,132 1021,134 1022,134 1023,134 1023,134 1024,135 1024,133 1025,133 1026,133 1026,132 1027,132 1028,130 1028,133 1029,133 1030,132 1030,132 1031,136 1032,137 1032,136 1033,137 1034,140 1034,139 1035,140 1035,139 1036,139 1037,138 1037,138 1038,139 1039,142 1039,142 1040,142 1041,143 1041,143 1042,139 1043,139 1043,139 1044,139 1045,138 1045,138 1046,138 1046,137 1047,137 1048,134 1048,133 1049,133 1050,132 1050,131 1051,129 1052,129 1052,129 1053,128 1054,127 1054,126 1055,126 1056,126 1056,126 1057,124 1057,124 1058,124 1059,123 1059,123 1060,123 1061,123 1061,122 1062,121 1063,122 1063,122 1064,116 1065,116 1065,115 1066,116 1067,115 1067,115 1068,115 1068,115 1069,109 1070,108 1070,107 1071,107 1072,106 1072,105 1073,105 1074,105 1074,105 1075,105 1076,103 1076,103 1077,103 1078,103 1078,105 1079,104 1079,103 1080,103 1081,103 1081,102 1082,101 1083,101 1083,103 1084,105 1085,105 1085,104 1086,103 1087,103 1087,103 1088,103 1089,101 1089,102 1090,101 1090,101 1091,100 1092,100 1092,99 1093,96 1094,96 1094,97 1095,97 1096,96 1096,96 1097,94 1098,95 1098,95 1099,96 1100,94 1100,93 1101,91 1101,91 1102,91 1103,91 1103,91 1104,90 1105,90 1105,90 1106,89 1107,89 1107,89 1108,89 1109,88 1109,89 1110,85 1111,85 1111,84 1111,84 1112,84 1112,84 1112,83 1113,83 1113,84 1114,84 1114,84 1114,84 1115,84 1115,85 1116,85 1116,90 1116,90 1116,90 1117,90 1117,90 1118,90 1118,91 1118,91 1118,90 1119,90 1119,90 1120,90 1120,90 1120,90 1120,90 1121,90 1121,90 1122,89 1122,89 1122,89 1123,89 1123,89 1123,87 1124,87 1124,85 1125,85 1125,85 1125,85 1125,84 1126,84 1126,84 1127,84 1127,83 1127,83 1128,83 1128,81 1129,81 1129,80 1129,80 1129,80 1130,80 1130,79 1131,79 1131,78 1131,78 1131,78 1132,78 1132,78 1133,78 1133,77 1133,77 1133,77 1134,79 1134,79 1134,79 1135,79 1135,79 1136,79 1136,78 1136,78 1136,79 1137,79 1137,80 1138,80 1138,78 1138,78 1138,79 1139,79 1139,79 1140,79 1140,78 1140,78 1140,78 1141,78 1141,79 1142,79 1142,79 1143,79 1143,79 1144,79 1144,78 1144,78 1144,77 1145,77 1145,77 1145,77 1145,76 1146,76 1146,76 1147,76 1147,76 1147,76 1147,75 1148,75 1148,75 1149,76 1149,76 1149,77 1150,77 1150,77 1151,77 1151,77 1151,77 1151,78 1152,78 1152,78 1153,78 1153,78 1153,78 1154,78 1154,79 1155,79 1155,78 1155,78 1155,79 1156,79 1156,79 1156,79 1156,80 1157,80 1157,79 1158,79 1158,79 1158,79 1158,79 1159,79 1159,77 1160,77 1160,77 1160,77 1160,79 1161,79 1161,79 1162,79 1162,80 1162,80 1162,79 1163,79 1163,79 1164,79 1164,79 1164,79 1164,80 1165,80 1166,80 1166,80 1166,80 1166,81 1167,81 1167,82 1167,82 1167,82 1168,82 1168,82 1169,82 1169,82 1169,82 1169,83 1170,83 1170,83 1171,83 1171,83 1171,82 1172,82 1172,82 1173,82 1173,83 1173,83 1173,83 1174,83 1174,84 1175,84 1175,84 1175,84 1176,86 1177,86 1177,87 1177,86 1178,86 1178,86 1178,86 1178,86 1179,86 1179,87 1180,87 1180,87 1180,87 1180,87 1181,87 1181,88 1182,88 1182,89 1182,89 1182,88 1183,88 1183,89 1184,89 1184,88 1184,88 1185,88 1185,87 1186,87 1186,88 1186,88 1186,89 1187,89 1187,88 1188,88 1188,89 1188,89 1188,89 1189,89 1189,89 1190,89 "/>
<polyline fill="none" opacity="1" stroke="#198EE6" stroke-width="2" points="60,738 60,738 64,738 74,738 83,737 92,737 93,737 97,737 98,736 100,736 104,736 109,736 109,735 116,735 122,735 123,735 126,734 131,734 135,734 137,734 144,734 144,733 145,733 146,733 146,733 147,733 148,733 149,733 149,733 151,733 151,733 152,733 153,733 154,733 156,733 157,733 157,732 158,732 159,732 159,732 160,732 160,732 162,732 162,732 163,732 164,732 164,732 165,732 166,732 166,732 167,732 168,732 168,732 169,732 170,732 171,732 171,732 172,732 173,732 175,732 176,732 177,731 177,731 178,731 179,731 179,731 180,731 181,731 181,731 182,731 182,731 184,731 184,731 186,731 186,730 187,730 188,730 188,730 189,730 190,730 191,730 192,730 192,730 193,730 194,730 195,729 195,729 196,729 197,729 197,729 198,729 199,729 199,729 200,729 201,729 202,729 203,729 204,729 204,728 206,728 206,728 207,728 209,728 210,728 210,728 211,728 212,728 213,728 214,728 214,727 215,727 215,727 216,727 217,727 218,727 219,727 221,727 221,727 222,727 223,727 223,727 224,726 225,726 225,726 226,726 226,726 227,726 228,726 229,726 230,726 230,726 231,726 232,725 232,725 233,725 234,725 234,725 235,725 236,725 236,725 237,725 237,725 238,725 239,725 240,724 241,724 241,724 242,724 243,724 244,724 245,724 246,724 247,724 248,724 248,724 249,724 250,724 250,724 251,723 252,723 253,723 254,723 254,723 255,723 256,723 258,723 259,723 259,723 260,723 261,723 261,722 262,722 263,722 263,722 264,722 266,722 267,722 267,722 268,722 269,722 269,722 270,722 271,722 272,722 272,722 273,722 274,722 275,722 276,722 276,722 277,721 279,721 280,721 280,721 281,721 282,720 283,720 283,720 284,720 285,720 285,720 286,720 287,720 287,720 288,720 289,720 290,720 291,720 291,720 292,720 292,720 293,720 294,720 294,720 295,720 296,720 296,720 297,720 298,720 298,720 299,719 300,719 300,719 301,719 302,719 302,719 303,719 303,719 304,719 305,719 305,719 306,719 307,719 307,719 308,719 309,719 309,719 310,718 311,718 311,718 312,718 313,718 314,718 314,718 316,718 316,718 317,718 318,718 319,717 320,717 320,717 321,717 322,717 322,717 324,717 324,717 325,716 325,716 326,716 327,716 327,716 328,716 329,716 330,716 331,716 331,716 332,716 333,716 333,716 334,715 335,715 335,715 336,715 336,715 337,715 338,715 338,715 339,715 340,715 340,715 341,715 342,715 343,715 344,715 344,715 345,715 346,715 347,715 348,715 348,715 349,714 349,714 350,714 351,714 351,714 352,714 353,714 353,714 354,714 355,713 355,713 356,713 357,713 357,713 358,712 359,712 359,712 360,712 360,712 361,712 362,712 362,712 363,712 364,712 364,712 365,712 366,712 366,712 367,712 368,711 368,711 369,711 370,711 371,711 371,711 372,711 373,711 373,710 374,710 375,710 375,710 376,709 377,709 377,709 378,709 379,709 379,709 380,709 381,709 381,709 382,708 382,708 383,708 384,709 384,708 385,708 386,708 386,708 387,708 388,708 388,708 389,708 390,708 390,708 391,707 392,707 392,707 393,707 393,707 394,707 395,707 395,707 396,707 397,707 397,707 398,707 399,707 399,706 400,706 401,706 402,706 403,706 403,706 404,706 404,706 406,706 406,706 407,705 408,705 408,705 409,705 410,705 410,705 411,705 412,705 412,705 413,705 414,705 414,705 415,705 415,705 416,705 417,705 417,705 418,705 419,705 419,705 420,705 421,705 421,705 422,704 423,704 423,704 424,704 425,704 425,704 426,704 426,704 427,704 428,704 428,704 429,704 430,704 430,704 431,704 432,704 432,704 433,704 434,703 434,703 435,703 436,703 436,703 437,703 437,703 438,703 439,703 439,703 440,703 441,702 441,702 442,702 443,702 443,702 444,702 445,702 445,702 446,702 447,702 447,702 448,702 448,702 449,702 450,702 450,702 451,702 452,702 452,702 453,701 454,701 454,701 455,701 456,701 456,701 457,701 458,701 458,700 459,700 459,700 460,700 461,700 461,700 462,700 463,700 463,699 464,699 465,699 465,699 466,699 467,698 467,698 468,698 469,698 469,698 470,698 470,698 471,698 472,698 472,698 473,698 474,698 474,698 476,698 476,698 477,698 478,698 478,698 479,698 480,698 480,698 481,698 481,698 482,698 483,698 483,698 484,698 485,698 485,698 486,698 487,698 487,698 488,698 489,698 489,698 490,698 491,698 491,698 492,698 492,698 493,698 494,698 494,697 495,697 496,697 496,697 497,697 498,697 498,696 499,696 500,696 500,696 501,696 502,696 502,696 503,696 503,696 504,696 505,696 505,696 506,696 507,696 507,696 508,696 509,696 509,696 510,696 511,696 511,696 512,696 513,695 513,695 514,695 514,695 515,695 516,695 516,695 517,695 518,695 518,695 519,695 520,695 520,695 521,695 522,695 522,695 523,695 524,695 524,695 525,695 525,695 526,695 527,695 527,695 528,695 529,695 529,695 530,695 531,695 531,695 532,695 533,695 533,694 534,694 535,694 535,694 536,694 537,693 538,693 538,693 539,693 540,693 540,693 541,693 542,693 542,693 543,693 544,693 545,693 546,693 546,693 547,693 547,693 548,693 549,692 549,692 550,692 551,692 551,692 552,692 553,692 553,692 554,692 555,692 555,692 556,691 557,691 557,691 558,691 558,691 559,691 560,691 560,691 561,691 562,691 562,690 563,690 564,690 564,690 565,690 566,690 566,690 567,690 568,690 568,690 569,690 569,690 570,690 571,690 571,690 572,689 573,689 573,689 574,689 575,689 575,689 576,689 577,690 577,690 578,690 579,690 579,690 580,690 580,690 581,690 582,690 582,690 583,690 584,690 584,690 585,690 586,689 586,689 587,689 588,690 588,690 589,690 590,690 590,690 591,690 591,690 592,690 593,690 593,690 595,690 595,690 596,690 597,690 597,690 598,690 599,690 599,690 600,690 601,690 602,690 602,690 603,690 604,690 604,690 605,690 606,690 606,689 608,689 608,689 609,689 610,689 610,689 611,689 612,689 612,689 613,689 613,689 614,689 615,689 615,689 616,689 617,689 617,689 618,689 619,689 619,689 620,688 621,688 621,688 622,687 623,687 623,687 624,687 625,687 625,687 626,687 626,687 627,687 628,687 628,687 629,687 630,687 630,686 631,686 632,686 632,686 633,685 634,685 634,685 635,685 636,685 636,685 637,684 637,684 638,684 639,684 639,684 640,684 641,684 641,684 642,684 643,684 643,684 644,684 645,684 645,685 646,685 647,685 647,685 648,684 648,684 649,684 650,684 650,684 651,684 652,684 652,684 653,684 654,684 654,684 655,684 656,684 656,684 657,684 658,684 658,684 659,684 659,684 660,684 661,684 661,684 662,683 663,683 663,683 664,683 665,683 665,683 666,683 667,683 667,683 668,683 669,682 669,682 670,682 670,682 671,682 672,682 672,682 673,682 674,682 674,682 675,682 676,681 676,681 677,681 678,681 678,681 679,682 680,682 680,682 681,682 681,682 682,682 683,682 683,682 684,682 685,682 685,682 686,682 687,682 687,682 688,682 689,682 689,682 690,682 691,682 691,682 692,682 692,682 693,682 694,681 694,681 695,681 696,681 696,681 697,681 698,681 698,681 699,681 700,681 700,681 701,681 702,681 702,681 703,681 703,681 704,681 705,681 705,681 706,680 707,680 707,680 708,680 709,680 709,680 710,680 711,680 711,680 712,680 713,680 713,680 714,680 714,680 715,680 716,680 716,680 717,680 718,680 718,680 719,680 720,680 721,680 722,680 722,680 723,680 724,680 724,680 725,680 725,680 726,680 727,680 727,680 728,680 729,680 729,680 730,680 731,680 731,680 732,680 733,680 733,679 734,679 735,679 735,679 736,679 736,679 737,679 738,679 738,679 739,679 740,679 740,679 741,679 742,679 742,679 743,679 744,679 744,679 745,679 746,679 746,679 747,679 747,679 748,679 749,678 749,678 750,678 751,678 751,678 752,678 753,678 753,678 754,678 755,678 755,678 756,678 757,678 757,678 758,677 758,677 759,677 760,677 760,677 761,677 762,677 762,677 763,677 764,677 764,677 765,677 766,677 766,677 767,677 768,677 768,677 769,677 769,677 770,677 770,677 771,677 771,677 772,677 773,677 773,677 774,677 775,677 775,677 776,677 777,677 777,677 778,677 779,677 779,677 780,677 780,677 781,677 782,677 782,677 783,677 784,677 784,677 785,677 786,677 786,677 787,677 788,677 788,677 789,677 790,677 790,677 791,677 791,677 792,677 793,677 793,677 794,677 795,677 795,677 796,677 797,677 797,677 798,677 799,676 799,676 800,676 801,676 801,676 802,676 802,676 803,676 804,676 804,676 805,676 806,676 806,676 807,676 808,676 808,676 809,676 810,676 810,676 811,676 812,676 812,676 813,676 813,676 814,676 815,676 815,676 816,676 817,676 817,676 818,676 819,676 819,676 820,676 821,676 821,676 822,676 823,676 823,676 824,676 824,676 825,676 826,676 826,676 827,676 828,676 828,676 829,676 830,676 830,676 831,676 832,676 832,676 833,676 834,675 834,675 835,675 835,675 836,675 837,675 837,675 838,675 839,675 839,675 840,675 841,675 841,675 842,675 843,675 843,675 844,675 845,675 845,675 846,675 846,675 847,675 848,676 848,676 849,676 850,676 850,676 851,676 852,676 852,676 853,676 854,676 854,676 855,676 856,676 856,676 857,676 857,676 858,676 859,676 859,676 860,676 861,676 861,675 862,675 863,675 863,676 864,676 865,676 865,676 866,676 867,676 867,676 868,676 868,676 869,675 870,675 870,675 871,675 872,675 872,675 873,675 874,675 874,675 875,675 876,675 876,674 877,674 878,673 878,673 879,673 879,673 880,673 881,672 881,672 882,672 883,673 883,673 884,673 885,673 885,673 886,673 887,673 887,673 888,673 889,673 889,673 890,673 890,673 891,673 892,673 892,673 893,672 894,672 894,672 895,672 896,672 896,672 897,672 898,672 898,672 899,672 900,672 900,672 901,672 901,672 902,672 903,672 903,672 904,672 905,672 905,672 906,672 907,672 907,672 908,672 909,672 909,672 910,672 911,672 911,672 912,671 913,671 913,671 914,671 914,671 915,671 916,671 916,671 917,671 918,671 918,670 919,670 920,670 920,670 921,670 922,670 922,670 923,670 924,670 924,670 925,670 925,670 926,670 927,670 927,670 928,670 929,670 929,670 930,670 931,670 931,670 932,670 933,670 933,669 934,669 935,669 935,669 936,669 936,669 937,669 938,669 938,669 939,669 940,669 940,669 941,669 942,669 942,669 943,669 944,669 944,669 945,669 946,670 946,670 947,670 947,670 948,670 949,670 949,670 950,670 951,670 951,670 952,670 953,670 953,670 954,669 955,669 955,667 956,667 957,667 957,667 958,667 958,666 959,666 960,666 960,666 961,666 962,665 962,665 963,665 964,665 964,665 965,665 966,665 966,665 967,664 968,664 968,664 969,664 969,664 970,664 971,664 971,664 972,664 973,664 973,664 974,664 975,664 975,664 976,664 977,664 977,664 978,664 979,664 979,664 980,664 980,664 981,664 982,664 982,664 983,664 984,664 984,663 985,663 986,663 986,663 987,663 988,663 988,663 989,663 990,662 990,662 991,662 991,662 992,662 993,662 993,662 994,662 995,662 995,662 996,662 997,662 997,662 998,662 999,662 999,662 1000,662 1001,662 1001,662 1002,662 1002,662 1003,662 1004,662 1004,662 1005,662 1006,662 1006,662 1007,663 1008,663 1008,663 1009,663 1010,663 1010,663 1011,663 1012,663 1012,663 1013,663 1013,663 1014,663 1015,663 1015,663 1016,663 1017,663 1017,663 1018,663 1019,663 1019,663 1020,663 1020,663 1021,663 1021,663 1022,663 1023,663 1023,662 1024,662 1024,662 1025,662 1026,662 1026,662 1027,662 1028,662 1028,662 1029,662 1030,662 1030,662 1031,663 1032,662 1032,662 1033,662 1034,662 1034,662 1035,662 1035,662 1036,662 1037,662 1037,662 1038,662 1039,662 1039,662 1040,662 1041,662 1041,662 1042,662 1043,662 1043,662 1044,662 1045,662 1045,662 1046,662 1046,662 1047,662 1048,662 1048,662 1049,662 1050,662 1050,662 1051,662 1052,662 1052,662 1053,662 1054,662 1054,662 1055,662 1056,662 1056,662 1057,662 1057,662 1058,662 1059,662 1059,662 1060,662 1061,662 1061,662 1062,662 1063,662 1063,662 1064,662 1065,662 1065,662 1066,662 1067,662 1067,662 1068,662 1068,662 1069,662 1070,662 1070,662 1071,662 1072,662 1072,662 1073,662 1074,662 1074,662 1075,662 1076,662 1076,662 1077,662 1078,662 1078,662 1079,662 1079,662 1080,662 1081,662 1081,662 1082,662 1083,662 1083,662 1084,662 1085,662 1085,662 1086,662 1087,662 1087,662 1088,662 1089,662 1089,662 1090,662 1090,662 1091,662 1092,662 1092,662 1093,662 1094,662 1094,662 1095,662 1096,662 1096,662 1097,662 1098,662 1098,662 1099,662 1100,662 1100,662 1101,662 1101,662 1102,662 1103,662 1103,662 1104,662 1105,662 1105,662 1106,662 1107,662 1107,662 1108,662 1109,662 1109,663 1110,663 1111,663 1111,663 1111,663 1112,663 1112,663 1112,663 1113,663 1113,663 1114,663 1114,663 1114,663 1115,663 1115,663 1116,663 1116,663 1116,663 1116,663 1117,663 1117,663 1118,663 1118,663 1118,663 1118,663 1119,663 1119,663 1120,663 1120,663 1120,663 1120,662 1121,662 1121,662 1122,662 1122,662 1123,662 1123,662 1123,662 1124,662 1124,662 1125,662 1125,662 1125,662 1125,662 1126,662 1126,662 1127,662 1127,662 1127,662 1128,662 1128,662 1129,662 1129,662 1129,662 1129,662 1130,662 1130,662 1131,662 1131,662 1131,662 1131,662 1132,662 1132,662 1133,662 1133,662 1133,662 1133,662 1134,662 1134,662 1134,662 1135,662 1135,662 1136,662 1136,662 1136,662 1136,662 1137,662 1137,661 1138,661 1138,661 1138,661 1138,661 1139,661 1139,661 1140,661 1140,661 1140,661 1140,661 1141,661 1141,661 1142,661 1142,661 1143,661 1143,661 1144,661 1144,661 1144,661 1144,660 1145,660 1145,660 1145,660 1145,660 1146,660 1146,660 1147,660 1147,660 1147,660 1147,660 1148,660 1148,660 1149,660 1149,660 1149,660 1150,660 1150,660 1151,660 1151,660 1151,660 1151,660 1152,660 1152,660 1153,660 1153,660 1153,660 1154,660 1154,660 1155,660 1155,660 1155,660 1155,661 1156,661 1156,661 1156,661 1156,661 1157,661 1157,661 1158,661 1158,661 1158,661 1158,661 1159,661 1159,661 1160,661 1160,661 1160,661 1160,661 1161,661 1161,661 1162,661 1162,661 1162,661 1162,660 1163,660 1163,660 1164,660 1164,660 1164,660 1164,660 1165,659 1166,659 1166,659 1166,659 1166,659 1167,659 1167,659 1167,659 1167,659 1168,659 1168,659 1169,659 1169,659 1169,659 1169,659 1170,659 1170,659 1171,659 1171,659 1171,659 1172,659 1172,659 1173,659 1173,659 1173,659 1173,659 1174,659 1174,659 1175,659 1175,659 1175,659 1176,659 1177,659 1177,659 1177,659 1178,659 1178,659 1178,659 1178,659 1179,659 1179,659 1180,659 1180,659 1180,659 1180,659 1181,659 1181,659 1182,659 1182,659 1182,659 1182,658 1183,658 1183,658 1184,658 1184,658 1184,658 1185,658 1185,658 1186,658 1186,658 1186,658 1186,658 1187,658 1187,658 1188,658 1188,658 1188,658 1188,658 1189,658 1189,658 1190,658 "/>
<polyline fill="none" opacity="1" stroke="#5419E6" stroke-width="2" points="914,738 915,738 919,738 925,737 927,737 930,737 933,736 933,736 934,734 935,733 936,733 938,733 943,733 944,733 945,733 946,733 947,733 955,733 959,732 960,732 961,731 963,731 966,731 968,730 968,729 969,729 969,729 970,729 973,729 973,729 974,729 977,729 977,728 978,728 979,727 982,727 982,727 983,727 984,726 985,726 987,726 988,726 988,726 989,726 991,726 993,726 994,725 995,725 996,725 997,725 998,725 999,725 999,725 1000,725 1001,725 1002,725 1003,725 1004,724 1005,724 1006,724 1006,724 1007,723 1008,723 1008,723 1009,723 1010,723 1010,723 1011,723 1012,723 1013,723 1013,723 1014,723 1015,723 1015,723 1016,722 1017,723 1019,723 1019,723 1020,723 1020,723 1021,722 1021,722 1022,722 1023,722 1023,721 1024,721 1024,720 1026,720 1026,719 1028,719 1028,719 1029,719 1030,719 1030,719 1031,719 1032,719 1034,718 1034,718 1035,717 1035,717 1036,717 1037,716 1037,716 1038,716 1039,716 1040,716 1041,715 1041,715 1042,715 1043,715 1043,715 1045,714 1045,714 1046,715 1048,714 1048,714 1049,714 1050,714 1052,714 1052,714 1053,714 1054,714 1055,714 1056,714 1057,714 1058,713 1060,713 1061,713 1061,713 1062,713 1063,713 1063,712 1064,712 1065,712 1065,712 1066,712 1067,712 1067,711 1068,711 1068,711 1069,711 1070,711 1070,711 1071,711 1072,711 1072,711 1073,711 1074,711 1074,710 1075,710 1076,710 1076,710 1077,710 1078,710 1079,710 1079,710 1080,709 1081,709 1081,709 1082,709 1083,708 1083,708 1085,708 1085,708 1086,708 1087,708 1087,708 1088,708 1089,708 1089,708 1090,707 1090,707 1091,707 1092,707 1092,707 1093,707 1094,707 1094,707 1095,707 1096,707 1096,706 1097,706 1098,706 1098,706 1099,706 1100,706 1100,706 1101,706 1101,706 1102,706 1103,706 1103,705 1104,705 1105,705 1106,705 1107,705 1107,705 1108,705 1109,705 1109,705 1110,705 1111,705 1111,705 1111,705 1112,705 1112,705 1112,705 1113,705 1113,705 1114,705 1114,705 1114,705 1115,705 1115,705 1116,705 1116,705 1116,705 1116,705 1117,705 1117,704 1118,704 1118,704 1118,704 1118,704 1119,704 1119,704 1120,704 1120,704 1120,704 1120,704 1121,704 1121,704 1122,704 1122,704 1122,703 1123,703 1123,703 1123,703 1124,703 1124,703 1125,703 1125,703 1125,703 1125,702 1126,702 1126,703 1127,703 1127,703 1127,702 1128,702 1128,702 1129,702 1129,702 1129,702 1129,702 1130,702 1130,702 1131,702 1131,702 1131,702 1131,702 1132,702 1132,702 1133,702 1133,702 1133,702 1133,702 1134,702 1134,702 1135,702 1135,702 1136,702 1136,702 1136,702 1136,702 1137,702 1137,702 1138,702 1138,702 1138,702 1138,702 1139,702 1139,702 1140,702 1140,702 1140,702 1140,702 1141,702 1142,702 1142,702 1143,702 1143,702 1144,702 1144,702 1144,702 1144,702 1145,702 1145,701 1145,701 1145,701 1146,701 1146,701 1147,701 1147,701 1147,701 1147,701 1148,701 1149,701 1149,701 1149,701 1150,701 1150,701 1151,701 1151,701 1151,701 1151,701 1152,701 1152,700 1153,700 1153,700 1153,700 1154,700 1154,700 1155,700 1155,700 1155,700 1155,700 1156,700 1156,700 1156,700 1156,700 1157,700 1157,700 1158,700 1158,700 1158,700 1159,700 1159,700 1160,700 1160,700 1160,700 1160,700 1161,700 1161,699 1162,699 1162,699 1162,699 1162,699 1163,699 1163,700 1164,700 1164,700 1164,700 1164,699 1165,699 1166,699 1166,699 1166,699 1166,699 1167,699 1167,699 1167,699 1167,699 1168,699 1168,699 1169,699 1169,699 1169,699 1169,700 1170,700 1170,700 1171,700 1171,700 1171,700 1172,699 1173,699 1173,699 1173,699 1173,699 1174,699 1174,699 1175,699 1175,699 1175,699 1176,699 1177,699 1177,699 1177,699 1178,699 1178,699 1178,699 1178,699 1179,699 1179,699 1180,699 1180,698 1180,698 1181,698 1181,698 1182,698 1182,698 1182,698 1182,698 1183,698 1183,698 1184,698 1184,698 1184,698 1185,698 1185,698 1186,698 1186,698 1186,698 1186,698 1187,698 1187,698 1188,698 1188,698 1188,698 1188,698 1189,698 1189,698 1190,698 "/>
<polyline fill="none" opacity="1" stroke="#E619C8" stroke-width="2" points="1015,738 1015,737 1016,737 1017,737 1017,736 1019,735 1019,735 1020,735 1020,735 1021,735 1021,735 1022,734 1023,734 1023,734 1024,734 1024,734 1025,734 1026,733 1026,733 1027,732 1028,732 1028,731 1030,731 1030,730 1031,729 1032,728 1032,728 1033,727 1034,726 1034,725 1035,725 1035,725 1036,724 1037,724 1037,724 1038,724 1039,721 1039,720 1040,719 1041,718 1041,717 1042,717 1043,717 1043,717 1044,717 1045,716 1045,716 1046,715 1046,715 1047,715 1048,715 1048,715 1049,715 1050,714 1050,714 1051,714 1052,713 1052,712 1053,713 1054,712 1054,711 1055,711 1056,710 1056,709 1057,707 1057,707 1058,707 1059,707 1059,707 1060,707 1061,707 1061,704 1062,703 1063,703 1063,701 1064,700 1065,700 1065,699 1066,698 1067,698 1067,698 1068,697 1068,697 1069,696 1070,695 1070,695 1071,694 1072,693 1072,691 1073,690 1074,689 1074,689 1075,688 1076,687 1076,687 1077,686 1078,686 1078,683 1079,682 1079,681 1080,680 1081,680 1081,679 1082,679 1083,679 1083,678 1084,676 1085,675 1085,674 1086,673 1087,672 1087,671 1088,670 1089,670 1089,670 1090,669 1090,669 1091,669 1092,668 1092,667 1093,666 1094,666 1094,665 1095,665 1096,665 1096,664 1097,664 1098,662 1098,662 1099,661 1100,662 1100,660 1101,659 1101,658 1102,657 1103,657 1103,657 1104,657 1105,655 1105,654 1106,654 1107,653 1107,652 1108,650 1109,649 1109,647 1110,647 1111,646 1111,646 1111,645 1112,645 1112,645 1112,644 1113,644 1113,643 1114,643 1114,642 1114,641 1115,641 1115,640 1116,640 1116,637 1116,637 1116,636 1117,636 1117,635 1118,635 1118,633 1118,633 1118,632 1119,632 1119,631 1120,631 1120,631 1120,631 1120,630 1121,630 1121,629 1122,627 1122,627 1122,627 1123,626 1123,626 1123,626 1124,626 1124,625 1125,625 1125,624 1125,624 1125,624 1126,624 1126,623 1127,623 1127,623 1127,622 1128,622 1128,622 1129,622 1129,620 1129,620 1129,619 1130,619 1130,618 1131,618 1131,617 1131,617 1131,617 1132,617 1132,616 1133,616 1133,613 1133,613 1133,611 1134,608 1134,608 1134,606 1135,606 1135,604 1136,604 1136,604 1136,604 1136,603 1137,603 1137,600 1138,600 1138,599 1138,599 1138,598 1139,598 1139,597 1140,597 1140,596 1140,596 1140,595 1141,595 1141,593 1142,593 1142,592 1143,592 1143,590 1144,590 1144,588 1144,588 1144,587 1145,587 1145,587 1145,587 1145,586 1146,586 1146,585 1147,585 1147,584 1147,584 1147,582 1148,582 1148,580 1149,578 1149,578 1149,578 1150,578 1150,576 1151,576 1151,573 1151,573 1151,572 1152,572 1152,571 1153,570 1153,570 1153,567 1154,567 1154,565 1155,565 1155,563 1155,563 1155,561 1156,561 1156,561 1156,561 1156,560 1157,560 1157,559 1158,559 1158,557 1158,557 1158,551 1159,551 1159,549 1160,549 1160,547 1160,547 1160,546 1161,546 1161,545 1162,545 1162,544 1162,544 1162,542 1163,542 1163,539 1164,539 1164,537 1164,537 1164,535 1165,534 1166,534 1166,533 1166,533 1166,531 1167,531 1167,530 1167,530 1167,527 1168,527 1168,526 1169,526 1169,524 1169,524 1169,523 1170,523 1170,521 1171,521 1171,520 1171,518 1172,518 1172,518 1173,518 1173,516 1173,516 1173,514 1174,514 1174,512 1175,512 1175,510 1175,508 1176,505 1177,505 1177,504 1177,502 1178,502 1178,501 1178,501 1178,500 1179,500 1179,496 1180,496 1180,495 1180,495 1180,494 1181,494 1181,491 1182,491 1182,490 1182,490 1182,488 1183,488 1183,487 1184,487 1184,486 1184,485 1185,485 1185,484 1186,484 1186,481 1186,481 1186,478 1187,478 1187,478 1188,478 1188,476 1188,476 1188,475 1189,475 1189,474 1190,474 "/>
<rect x="1078" y="315" width="107" height="119" opacity="1" fill="#FFFFFF" stroke="none"/>
<rect x="1078" y="315" width="107" height="119" opacity="1" fill="none" stroke="#000000"/>
<text x="1118" y="325" dy="0.76em" text-anchor="start" font-family="sans-serif" font-size="9.67741935483871" opacity="1" fill="#000000">
anyhow
</text>
<text x="1118" y="340" dy="0.76em" text-anchor="start" font-family="sans-serif" font-size="9.67741935483871" opacity="1" fill="#000000">
err-derive
</text>
<text x="1118" y="355" dy="0.76em" text-anchor="start" font-family="sans-serif" font-size="9.67741935483871" opacity="1" fill="#000000">
error-chain
</text>
<text x="1118" y="370" dy="0.76em" text-anchor="start" font-family="sans-serif" font-size="9.67741935483871" opacity="1" fill="#000000">
failure
</text>
<text x="1118" y="385" dy="0.76em" text-anchor="start" font-family="sans-serif" font-size="9.67741935483871" opacity="1" fill="#000000">
quick-error
</text>
<text x="1118" y="400" dy="0.76em" text-anchor="start" font-family="sans-serif" font-size="9.67741935483871" opacity="1" fill="#000000">
snafu
</text>
<text x="1118" y="415" dy="0.76em" text-anchor="start" font-family="sans-serif" font-size="9.67741935483871" opacity="1" fill="#000000">
thiserror
</text>
<polyline fill="none" opacity="1" stroke="#E61919" stroke-width="2" points="1088,330 1108,330 "/>
<polyline fill="none" opacity="1" stroke="#E6C819" stroke-width="2" points="1088,344 1108,344 "/>
<polyline fill="none" opacity="1" stroke="#54E619" stroke-width="2" points="1088,359 1108,359 "/>
<polyline fill="none" opacity="1" stroke="#19E68E" stroke-width="2" points="1088,374 1108,374 "/>
<polyline fill="none" opacity="1" stroke="#198EE6" stroke-width="2" points="1088,390 1108,390 "/>
<polyline fill="none" opacity="1" stroke="#5419E6" stroke-width="2" points="1088,404 1108,404 "/>
<polyline fill="none" opacity="1" stroke="#E619C8" stroke-width="2" points="1088,419 1108,419 "/>
</svg>
