<svg width="1200" height="800" xmlns="http://www.w3.org/2000/svg">
<rect x="0" y="0" width="1199" height="799" opacity="1" fill="#FFFFFF" stroke="none"/>
<line opacity="0.1" stroke="#000000" stroke-width="1" x1="60" y1="728" x2="1190" y2="728"/>
<line opacity="0.1" stroke="#000000" stroke-width="1" x1="60" y1="718" x2="1190" y2="718"/>
<line opacity="0.1" stroke="#000000" stroke-width="1" x1="60" y1="707" x2="1190" y2="707"/>
<line opacity="0.1" stroke="#000000" stroke-width="1" x1="60" y1="697" x2="1190" y2="697"/>
<line opacity="0.1" stroke="#000000" stroke-width="1" x1="60" y1="686" x2="1190" y2="686"/>
<line opacity="0.1" stroke="#000000" stroke-width="1" x1="60" y1="676" x2="1190" y2="676"/>
<line opacity="0.1" stroke="#000000" stroke-width="1" x1="60" y1="666" x2="1190" y2="666"/>
<line opacity="0.1" stroke="#000000" stroke-width="1" x1="60" y1="655" x2="1190" y2="655"/>
<line opacity="0.1" stroke="#000000" stroke-width="1" x1="60" y1="645" x2="1190" y2="645"/>
<line opacity="0.1" stroke="#000000" stroke-width="1" x1="60" y1="634" x2="1190" y2="634"/>
<line opacity="0.1" stroke="#000000" stroke-width="1" x1="60" y1="624" x2="1190" y2="624"/>
<line opacity="0.1" stroke="#000000" stroke-width="1" x1="60" y1="613" x2="1190" y2="613"/>
<line opacity="0.1" stroke="#000000" stroke-width="1" x1="60" y1="603" x2="1190" y2="603"/>
<line opacity="0.1" stroke="#000000" stroke-width="1" x1="60" y1="592" x2="1190" y2="592"/>
<line opacity="0.1" stroke="#000000" stroke-width="1" x1="60" y1="582" x2="1190" y2="582"/>
<line opacity="0.1" stroke="#000000" stroke-width="1" x1="60" y1="571" x2="1190" y2="571"/>
<line opacity="0.1" stroke="#000000" stroke-width="1" x1="60" y1="561" x2="1190" y2="561"/>
<line opacity="0.1" stroke="#000000" stroke-width="1" x1="60" y1="550" x2="1190" y2="550"/>
<line opacity="0.1" stroke="#000000" stroke-width="1" x1="60" y1="540" x2="1190" y2="540"/>
<line opacity="0.1" stroke="#000000" stroke-width="1" x1="60" y1="530" x2="1190" y2="530"/>
<line opacity="0.1" stroke="#000000" stroke-width="1" x1="60" y1="519" x2="1190" y2="519"/>
<line opacity="0.1" stroke="#000000" stroke-width="1" x1="60" y1="509" x2="1190" y2="509"/>
<line opacity="0.1" stroke="#000000" stroke-width="1" x1="60" y1="498" x2="1190" y2="498"/>
<line opacity="0.1" stroke="#000000" stroke-width="1" x1="60" y1="488" x2="1190" y2="488"/>
<line opacity="0.1" stroke="#000000" stroke-width="1" x1="60" y1="477" x2="1190" y2="477"/>
<line opacity="0.1" stroke="#000000" stroke-width="1" x1="60" y1="467" x2="1190" y2="467"/>
<line opacity="0.1" stroke="#000000" stroke-width="1" x1="60" y1="456" x2="1190" y2="456"/>
<line opacity="0.1" stroke="#000000" stroke-width="1" x1="60" y1="446" x2="1190" y2="446"/>
<line opacity="0.1" stroke="#000000" stroke-width="1" x1="60" y1="435" x2="1190" y2="435"/>
<line opacity="0.1" stroke="#000000" stroke-width="1" x1="60" y1="425" x2="1190" y2="425"/>
<line opacity="0.1" stroke="#000000" stroke-width="1" x1="60" y1="414" x2="1190" y2="414"/>
<line opacity="0.1" stroke="#000000" stroke-width="1" x1="60" y1="404" x2="1190" y2="404"/>
<line opacity="0.1" stroke="#000000" stroke-width="1" x1="60" y1="393" x2="1190" y2="393"/>
<line opacity="0.1" stroke="#000000" stroke-width="1" x1="60" y1="383" x2="1190" y2="383"/>
<line opacity="0.1" stroke="#000000" stroke-width="1" x1="60" y1="373" x2="1190" y2="373"/>
<line opacity="0.1" stroke="#000000" stroke-width="1" x1="60" y1="362" x2="1190" y2="362"/>
<line opacity="0.1" stroke="#000000" stroke-width="1" x1="60" y1="352" x2="1190" y2="352"/>
<line opacity="0.1" stroke="#000000" stroke-width="1" x1="60" y1="341" x2="1190" y2="341"/>
<line opacity="0.1" stroke="#000000" stroke-width="1" x1="60" y1="331" x2="1190" y2="331"/>
<line opacity="0.1" stroke="#000000" stroke-width="1" x1="60" y1="320" x2="1190" y2="320"/>
<line opacity="0.1" stroke="#000000" stroke-width="1" x1="60" y1="310" x2="1190" y2="310"/>
<line opacity="0.1" stroke="#000000" stroke-width="1" x1="60" y1="299" x2="1190" y2="299"/>
<line opacity="0.1" stroke="#000000" stroke-width="1" x1="60" y1="289" x2="1190" y2="289"/>
<line opacity="0.1" stroke="#000000" stroke-width="1" x1="60" y1="278" x2="1190" y2="278"/>
<line opacity="0.1" stroke="#000000" stroke-width="1" x1="60" y1="268" x2="1190" y2="268"/>
<line opacity="0.1" stroke="#000000" stroke-width="1" x1="60" y1="257" x2="1190" y2="257"/>
<line opacity="0.1" stroke="#000000" stroke-width="1" x1="60" y1="247" x2="1190" y2="247"/>
<line opacity="0.1" stroke="#000000" stroke-width="1" x1="60" y1="236" x2="1190" y2="236"/>
<line opacity="0.1" stroke="#000000" stroke-width="1" x1="60" y1="226" x2="1190" y2="226"/>
<line opacity="0.1" stroke="#000000" stroke-width="1" x1="60" y1="216" x2="1190" y2="216"/>
<line opacity="0.1" stroke="#000000" stroke-width="1" x1="60" y1="205" x2="1190" y2="205"/>
<line opacity="0.1" stroke="#000000" stroke-width="1" x1="60" y1="195" x2="1190" y2="195"/>
<line opacity="0.1" stroke="#000000" stroke-width="1" x1="60" y1="184" x2="1190" y2="184"/>
<line opacity="0.1" stroke="#000000" stroke-width="1" x1="60" y1="174" x2="1190" y2="174"/>
<line opacity="0.1" stroke="#000000" stroke-width="1" x1="60" y1="163" x2="1190" y2="163"/>
<line opacity="0.1" stroke="#000000" stroke-width="1" x1="60" y1="153" x2="1190" y2="153"/>
<line opacity="0.1" stroke="#000000" stroke-width="1" x1="60" y1="142" x2="1190" y2="142"/>
<line opacity="0.1" stroke="#000000" stroke-width="1" x1="60" y1="132" x2="1190" y2="132"/>
<line opacity="0.1" stroke="#000000" stroke-width="1" x1="60" y1="121" x2="1190" y2="121"/>
<line opacity="0.1" stroke="#000000" stroke-width="1" x1="60" y1="111" x2="1190" y2="111"/>
<line opacity="0.1" stroke="#000000" stroke-width="1" x1="60" y1="100" x2="1190" y2="100"/>
<line opacity="0.1" stroke="#000000" stroke-width="1" x1="60" y1="90" x2="1190" y2="90"/>
<line opacity="0.1" stroke="#000000" stroke-width="1" x1="60" y1="80" x2="1190" y2="80"/>
<line opacity="0.1" stroke="#000000" stroke-width="1" x1="60" y1="69" x2="1190" y2="69"/>
<line opacity="0.1" stroke="#000000" stroke-width="1" x1="60" y1="59" x2="1190" y2="59"/>
<line opacity="0.1" stroke="#000000" stroke-width="1" x1="60" y1="48" x2="1190" y2="48"/>
<line opacity="0.1" stroke="#000000" stroke-width="1" x1="60" y1="38" x2="1190" y2="38"/>
<line opacity="0.1" stroke="#000000" stroke-width="1" x1="60" y1="27" x2="1190" y2="27"/>
<line opacity="0.1" stroke="#000000" stroke-width="1" x1="60" y1="17" x2="1190" y2="17"/>
<text x="10" y="375" dy="0.76em" text-anchor="middle" font-family="sans-serif" font-size="9.67741935483871" opacity="1" fill="#000000" transform="rotate(270, 10, 375)">
Fraction of dependent crates
</text>
<line opacity="0.2" stroke="#000000" stroke-width="1" x1="60" y1="634" x2="1190" y2="634"/>
<line opacity="0.2" stroke="#000000" stroke-width="1" x1="60" y1="530" x2="1190" y2="530"/>
<line opacity="0.2" stroke="#000000" stroke-width="1" x1="60" y1="425" x2="1190" y2="425"/>
<line opacity="0.2" stroke="#000000" stroke-width="1" x1="60" y1="320" x2="1190" y2="320"/>
<line opacity="0.2" stroke="#000000" stroke-width="1" x1="60" y1="216" x2="1190" y2="216"/>
<polyline fill="none" opacity="1" stroke="#000000" stroke-width="1" points="59,10 59,740 "/>
<text x="50" y="634" dy="0.5ex" text-anchor="end" font-family="sans-serif" font-size="9.67741935483871" opacity="1" fill="#000000">
0.01
</text>
<polyline fill="none" opacity="1" stroke="#000000" stroke-width="1" points="54,634 59,634 "/>
<text x="50" y="530" dy="0.5ex" text-anchor="end" font-family="sans-serif" font-size="9.67741935483871" opacity="1" fill="#000000">
0.02
</text>
<polyline fill="none" opacity="1" stroke="#000000" stroke-width="1" points="54,530 59,530 "/>
<text x="50" y="425" dy="0.5ex" text-anchor="end" font-family="sans-serif" font-size="9.67741935483871" opacity="1" fill="#000000">
0.03
</text>
<polyline fill="none" opacity="1" stroke="#000000" stroke-width="1" points="54,425 59,425 "/>
<text x="50" y="320" dy="0.5ex" text-anchor="end" font-family="sans-serif" font-size="9.67741935483871" opacity="1" fill="#000000">
0.04
</text>
<polyline fill="none" opacity="1" stroke="#000000" stroke-width="1" points="54,320 59,320 "/>
<text x="50" y="216" dy="0.5ex" text-anchor="end" font-family="sans-serif" font-size="9.67741935483871" opacity="1" fill="#000000">
0.05
</text>
<polyline fill="none" opacity="1" stroke="#000000" stroke-width="1" points="54,216 59,216 "/>
<polyline fill="none" opacity="1" stroke="#000000" stroke-width="1" points="60,740 1190,740 "/>
<text x="60" y="750" dy="0.76em" text-anchor="middle" font-family="sans-serif" font-size="9.67741935483871" opacity="1" fill="#000000">
2015-09-24Z
</text>
<polyline fill="none" opacity="1" stroke="#000000" stroke-width="1" points="60,740 60,745 "/>
<text x="174" y="750" dy="0.76em" text-anchor="middle" font-family="sans-serif" font-size="9.67741935483871" opacity="1" fill="#000000">
2016-03-24Z
</text>
<polyline fill="none" opacity="1" stroke="#000000" stroke-width="1" points="174,740 174,745 "/>
<text x="289" y="750" dy="0.76em" text-anchor="middle" font-family="sans-serif" font-size="9.67741935483871" opacity="1" fill="#000000">
2016-09-22Z
</text>
<polyline fill="none" opacity="1" stroke="#000000" stroke-width="1" points="289,740 289,745 "/>
<text x="403" y="750" dy="0.76em" text-anchor="middle" font-family="sans-serif" font-size="9.67741935483871" opacity="1" fill="#000000">
2017-03-23Z
</text>
<polyline fill="none" opacity="1" stroke="#000000" stroke-width="1" points="403,740 403,745 "/>
<text x="518" y="750" dy="0.76em" text-anchor="middle" font-family="sans-serif" font-size="9.67741935483871" opacity="1" fill="#000000">
2017-09-21Z
</text>
<polyline fill="none" opacity="1" stroke="#000000" stroke-width="1" points="518,740 518,745 "/>
<text x="632" y="750" dy="0.76em" text-anchor="middle" font-family="sans-serif" font-size="9.67741935483871" opacity="1" fill="#000000">
2018-03-22Z
</text>
<polyline fill="none" opacity="1" stroke="#000000" stroke-width="1" points="632,740 632,745 "/>
<text x="747" y="750" dy="0.76em" text-anchor="middle" font-family="sans-serif" font-size="9.67741935483871" opacity="1" fill="#000000">
2018-09-20Z
</text>
<polyline fill="none" opacity="1" stroke="#000000" stroke-width="1" points="747,740 747,745 "/>
<text x="862" y="750" dy="0.76em" text-anchor="middle" font-family="sans-serif" font-size="9.67741935483871" opacity="1" fill="#000000">
2019-03-21Z
</text>
<polyline fill="none" opacity="1" stroke="#000000" stroke-width="1" points="862,740 862,745 "/>
<text x="976" y="750" dy="0.76em" text-anchor="middle" font-family="sans-serif" font-size="9.67741935483871" opacity="1" fill="#000000">
2019-09-19Z
</text>
<polyline fill="none" opacity="1" stroke="#000000" stroke-width="1" points="976,740 976,745 "/>
<text x="1091" y="750" dy="0.76em" text-anchor="middle" font-family="sans-serif" font-size="9.67741935483871" opacity="1" fill="#000000">
2020-03-19Z
</text>
<polyline fill="none" opacity="1" stroke="#000000" stroke-width="1" points="1091,740 1091,745 "/>
<polyline fill="none" opacity="1" stroke="#E61919" stroke-width="2" points="987,738 989,738 989,738 990,738 991,738 991,738 992,738 993,737 994,737 994,737 994,737 995,737 996,736 996,735 997,735 997,735 998,735 999,734 999,734 1000,733 1001,733 1001,733 1002,732 1003,732 1004,732 1004,731 1005,730 1006,729 1006,727 1007,723 1008,723 1008,723 1009,723 1009,722 1010,722 1011,722 1011,720 1012,717 1013,716 1013,716 1014,715 1014,715 1015,714 1016,714 1016,713 1017,713 1018,711 1018,711 1019,710 1020,710 1020,710 1021,710 1021,709 1022,709 1023,707 1023,707 1024,706 1025,706 1025,706 1026,706 1026,706 1027,704 1028,704 1028,704 1029,704 1030,703 1030,703 1031,702 1031,703 1032,702 1033,702 1033,701 1034,701 1035,701 1035,700 1036,700 1037,699 1037,699 1038,698 1038,698 1039,697 1040,697 1040,696 1041,695 1042,695 1042,693 1043,692 1043,692 1044,691 1045,691 1045,690 1046,688 1047,687 1047,686 1048,686 1048,685 1049,683 1050,682 1050,681 1051,681 1052,681 1052,680 1053,680 1054,680 1054,680 1055,679 1055,679 1056,676 1057,675 1057,675 1058,675 1059,674 1059,674 1060,673 1060,673 1061,673 1062,673 1062,671 1063,670 1064,669 1064,669 1065,668 1065,667 1066,667 1067,666 1067,666 1068,666 1069,666 1069,665 1070,665 1071,664 1071,664 1072,662 1072,662 1073,662 1074,662 1074,662 1075,662 1076,661 1076,661 1077,660 1077,659 1078,659 1079,659 1079,658 1080,657 1081,657 1081,656 1082,657 1082,656 1082,656 1083,656 1083,656 1084,655 1084,655 1084,654 1085,654 1085,654 1086,653 1086,653 1086,651 1087,651 1087,647 1088,647 1088,646 1088,646 1088,645 1089,645 1089,645 1089,645 1089,644 1090,644 1090,643 1091,643 1091,643 1091,643 1091,642 1092,642 1092,642 1093,641 1093,641 1093,640 1094,640 1094,640 1094,639 1095,639 1095,638 1096,638 1096,637 1096,637 1096,637 1097,637 1097,636 1098,636 1098,636 1098,636 1099,636 1099,635 1099,635 1099,635 1100,635 1100,634 1101,634 1101,633 1101,633 1101,633 1102,633 1102,632 1103,632 1103,631 1103,631 1103,629 1104,629 1104,627 1105,625 1105,625 1105,624 1106,624 1106,623 1106,623 1106,622 1107,622 1107,621 1108,621 1108,621 1108,621 1108,620 1109,620 1109,619 1110,619 1110,617 1110,617 1110,617 1111,617 1111,615 1111,615 1111,614 1112,614 1113,613 1113,613 1113,613 1114,613 1114,612 1115,612 1115,610 1115,610 1115,610 1116,610 1116,610 1116,610 1116,610 1117,610 1117,609 1118,609 1118,609 1118,609 1118,608 1119,607 1120,607 1120,605 1120,605 1120,604 1121,604 1121,603 1122,603 1122,601 1122,601 1122,599 1123,599 1123,599 1123,599 1124,599 1124,598 1125,598 1125,596 1125,596 1125,594 1126,594 1126,593 1127,593 1127,593 1127,593 1127,592 1128,592 1128,591 1128,591 1128,587 1129,587 1129,585 1130,585 1130,582 1130,582 1130,581 1131,581 1131,580 1132,580 1132,579 1132,579 1132,578 1133,578 1133,576 1133,576 1133,576 1134,576 1134,575 1135,574 1135,574 1135,572 1136,572 1136,570 1137,570 1137,569 1137,569 1137,567 1138,567 1138,567 1139,567 1139,566 1139,566 1139,565 1140,565 1140,564 1140,564 1140,562 1141,561 1142,561 1142,558 1142,558 1142,557 1143,557 1143,556 1144,556 1144,555 1144,555 1144,554 1145,552 1145,551 1146,551 1146,550 1147,549 1147,549 1147,549 1148,549 1148,548 1149,548 1149,547 1149,547 1149,546 1150,546 1150,545 1150,545 1150,545 1151,545 1151,544 1152,544 1152,544 1152,544 1152,544 1153,544 1153,543 1154,542 1154,542 1154,542 1155,542 1155,541 1156,541 1156,539 1156,539 1156,538 1157,538 1157,538 1157,538 1157,537 1158,537 1158,536 1159,536 1159,534 1159,534 1159,534 1160,534 1160,533 1161,533 1161,533 1161,533 1161,532 1162,532 1162,532 1162,532 1162,531 1163,531 1163,531 1164,530 1164,530 1164,529 1165,529 1165,529 1166,529 1166,528 1166,528 1166,528 1167,528 1167,527 1167,527 1167,527 1168,527 1168,525 1169,525 1169,525 1169,524 1170,524 1170,523 1171,523 1171,522 1171,522 1171,522 1172,522 1172,521 1173,521 1173,519 1173,519 1173,519 1174,519 1174,518 1174,518 1174,517 1175,517 1175,517 1176,517 1176,516 1176,516 1176,514 1177,514 1177,513 1178,513 1178,513 1178,513 1178,512 1179,512 1179,510 1179,510 1179,509 1180,509 1180,507 1181,507 1181,507 1181,506 1182,506 1182,504 1183,504 1183,503 1183,503 1183,501 1184,502 1184,501 1184,501 1184,498 1185,498 1185,498 1186,498 1186,496 1186,496 1186,496 1187,496 1187,494 1188,494 1188,493 1188,493 1188,493 1189,493 1189,492 1190,492 "/>
<polyline fill="none" opacity="1" stroke="#E6C819" stroke-width="2" points="810,738 817,738 822,737 824,736 846,736 853,736 867,735 868,734 871,734 873,734 875,733 877,733 878,733 879,733 879,733 880,733 884,733 884,733 885,733 885,732 888,732 889,732 889,732 890,732 890,732 892,732 892,732 893,732 894,732 894,732 895,731 896,731 897,732 898,732 900,732 901,732 901,732 902,732 902,732 904,732 904,732 905,732 906,732 907,732 908,732 909,732 909,731 910,731 911,731 913,731 914,731 914,731 916,731 916,730 917,730 918,730 918,730 919,730 919,729 920,729 921,729 921,729 922,729 923,729 923,729 924,729 924,729 925,729 926,728 926,728 927,728 928,728 928,728 929,729 930,729 930,729 931,729 931,729 932,729 933,729 934,728 935,728 935,727 936,727 936,728 937,728 938,728 938,728 939,728 940,728 940,728 941,728 942,728 943,727 943,727 944,727 945,727 946,727 947,727 947,727 948,727 948,727 949,727 950,727 950,727 951,727 952,727 952,727 953,727 953,727 954,727 955,727 955,727 956,727 957,727 957,727 958,727 959,727 960,727 960,727 961,727 962,727 962,727 963,726 964,726 964,726 965,725 965,725 966,725 967,725 967,725 968,725 969,725 969,725 970,725 970,725 971,725 972,725 972,725 973,725 974,725 974,725 975,725 975,725 976,725 977,725 977,725 978,725 979,725 979,725 980,725 981,725 982,725 983,725 984,724 984,724 985,724 986,723 987,723 987,723 988,723 989,723 989,723 990,723 991,724 992,724 992,723 993,723 994,723 994,723 994,723 995,723 996,723 996,723 997,723 997,723 999,723 999,723 1000,723 1001,723 1001,724 1002,724 1003,724 1003,724 1004,724 1004,724 1005,724 1006,724 1006,724 1007,724 1008,724 1008,723 1009,723 1009,723 1010,723 1011,723 1012,723 1013,723 1013,723 1014,723 1014,724 1015,724 1016,724 1016,724 1017,724 1018,724 1018,724 1019,724 1020,724 1020,724 1021,724 1021,724 1023,724 1023,724 1024,724 1025,724 1025,724 1026,723 1026,724 1027,724 1028,724 1028,724 1029,724 1030,724 1030,724 1031,724 1031,724 1032,724 1033,724 1033,724 1034,724 1035,724 1036,724 1037,724 1037,724 1038,724 1038,724 1039,724 1040,724 1040,724 1041,724 1042,724 1042,724 1043,724 1043,724 1045,724 1045,724 1046,724 1047,724 1047,724 1048,724 1048,724 1049,724 1050,724 1050,724 1051,724 1052,724 1052,724 1053,724 1054,724 1054,724 1055,724 1055,724 1056,724 1057,724 1057,724 1058,724 1059,724 1059,724 1060,724 1060,724 1061,724 1062,724 1062,724 1063,723 1064,723 1064,723 1065,722 1065,722 1066,722 1067,722 1067,722 1068,722 1069,723 1069,723 1070,723 1071,722 1071,722 1072,722 1072,722 1073,722 1074,722 1074,722 1075,722 1076,722 1077,722 1077,722 1078,722 1079,722 1079,722 1080,722 1081,722 1081,722 1082,722 1082,722 1082,722 1083,722 1083,722 1084,722 1084,722 1084,722 1085,722 1085,722 1086,722 1086,722 1086,722 1087,722 1087,722 1088,722 1088,723 1088,723 1088,723 1089,723 1089,723 1089,723 1089,723 1090,723 1090,723 1091,723 1091,723 1091,723 1091,723 1092,723 1092,722 1093,722 1093,722 1093,722 1094,722 1094,722 1094,722 1095,722 1095,722 1096,722 1096,722 1096,722 1096,722 1097,722 1097,722 1098,722 1098,722 1098,722 1099,722 1099,722 1099,722 1099,722 1100,722 1100,722 1101,722 1101,722 1101,722 1101,722 1102,722 1102,722 1103,722 1103,722 1103,722 1103,722 1104,722 1104,722 1105,722 1105,722 1105,722 1106,722 1106,722 1106,722 1106,722 1107,722 1107,722 1108,722 1108,722 1108,722 1108,722 1109,722 1109,722 1110,722 1110,722 1110,722 1110,722 1111,722 1111,722 1111,722 1111,722 1112,722 1113,722 1113,722 1113,722 1114,722 1114,722 1115,722 1115,722 1115,722 1115,722 1116,722 1116,722 1116,722 1116,722 1117,722 1117,722 1118,722 1118,722 1118,722 1118,722 1119,722 1120,722 1120,722 1120,722 1120,722 1121,722 1121,722 1122,722 1122,722 1122,722 1123,722 1123,722 1123,722 1124,722 1124,722 1125,722 1125,722 1125,722 1125,722 1126,722 1126,722 1127,722 1127,722 1127,722 1127,722 1128,722 1128,722 1128,722 1128,722 1129,722 1129,722 1130,722 1130,722 1130,722 1130,722 1131,722 1131,722 1132,722 1132,722 1132,722 1132,722 1133,722 1133,722 1133,722 1133,722 1134,722 1134,722 1135,722 1135,722 1135,722 1136,722 1136,722 1137,722 1137,722 1137,722 1137,722 1138,722 1138,722 1139,722 1139,722 1139,722 1139,722 1140,722 1140,722 1140,722 1140,722 1141,723 1142,723 1142,723 1142,723 1142,723 1143,723 1143,723 1144,723 1144,723 1144,723 1144,723 1145,723 1145,723 1146,723 1146,723 1147,723 1147,723 1147,723 1148,723 1148,723 1149,723 1149,723 1149,723 1149,723 1150,723 1150,723 1150,723 1150,723 1151,723 1151,723 1152,723 1152,723 1152,723 1152,723 1153,723 1153,723 1154,723 1154,723 1154,723 1155,723 1155,723 1156,723 1156,723 1156,723 1156,723 1157,723 1157,723 1157,723 1157,723 1158,723 1158,723 1159,723 1159,723 1159,723 1159,723 1160,723 1160,723 1161,723 1161,723 1161,723 1161,723 1162,723 1162,723 1162,723 1162,723 1163,723 1163,723 1164,723 1164,723 1164,723 1165,723 1165,723 1166,723 1166,723 1166,723 1166,723 1167,723 1167,723 1167,723 1168,723 1168,723 1169,723 1169,723 1169,723 1170,723 1170,723 1171,723 1171,723 1171,723 1171,723 1172,723 1172,723 1173,723 1173,723 1173,723 1173,723 1174,723 1174,723 1174,723 1174,723 1175,723 1175,723 1176,723 1176,723 1176,723 1176,723 1177,723 1177,723 1178,723 1178,724 1178,724 1178,724 1179,724 1179,724 1179,724 1179,724 1180,724 1180,724 1181,724 1181,724 1181,724 1182,724 1182,724 1183,724 1183,724 1183,724 1183,724 1184,724 1184,724 1184,724 1184,724 1185,724 1185,724 1186,724 1186,724 1186,724 1186,724 1187,724 1187,724 1188,724 1188,724 1188,724 1188,724 1189,724 1189,724 1190,724 "/>
<polyline fill="none" opacity="1" stroke="#54E619" stroke-width="2" points="230,737 231,733 236,735 241,733 248,731 248,729 249,727 254,726 265,724 266,724 267,721 272,719 274,716 274,714 275,714 276,712 279,711 280,713 282,710 283,705 285,703 286,702 290,700 292,699 292,699 294,691 295,686 296,683 297,681 301,681 302,679 302,678 304,676 305,675 306,675 306,673 307,674 308,674 308,674 309,673 310,673 311,673 311,673 312,673 313,671 313,670 314,670 314,669 315,667 316,667 316,664 317,663 318,661 318,657 319,656 320,654 321,653 322,653 323,650 326,651 327,650 328,648 328,647 329,645 330,644 331,643 331,641 332,637 333,633 334,632 335,626 336,625 336,623 337,622 338,622 339,619 340,618 340,617 342,616 342,614 343,612 343,611 344,603 345,600 345,596 346,586 347,585 347,584 348,584 348,583 349,582 350,577 350,574 351,575 352,569 353,567 353,567 354,566 355,565 355,566 356,566 357,566 357,562 358,562 359,561 359,560 360,553 360,554 361,554 362,555 362,555 363,555 364,553 365,553 367,553 367,551 368,548 369,549 369,548 370,548 370,549 371,548 372,548 372,548 373,547 374,548 374,544 375,544 376,542 376,540 377,538 377,539 378,539 379,536 379,532 380,530 381,530 382,527 382,523 383,523 384,523 384,523 385,524 386,523 386,522 387,521 387,521 388,522 389,518 389,519 390,519 391,517 391,517 392,515 393,513 393,511 394,511 394,509 395,509 396,507 396,504 397,504 398,505 398,505 399,504 399,503 400,497 401,496 401,492 402,491 403,492 403,492 404,490 404,489 405,485 406,483 406,482 407,481 408,479 408,479 409,479 410,479 410,479 411,478 411,479 412,479 413,480 413,477 414,478 415,478 415,478 416,476 416,475 417,473 418,472 418,470 419,469 420,468 420,467 421,464 421,463 422,463 423,462 423,463 424,464 425,462 425,461 426,461 427,457 427,454 428,452 428,450 429,448 430,449 430,446 431,446 432,445 432,444 433,444 433,441 434,441 435,441 435,438 436,437 437,436 437,431 438,427 438,427 439,427 440,429 440,425 441,421 442,420 442,421 443,420 444,419 444,419 445,420 445,419 446,421 447,417 447,414 448,413 449,413 449,413 450,414 450,414 451,413 452,414 452,412 453,412 454,412 454,412 455,410 455,407 456,407 457,406 457,405 458,401 459,401 459,401 460,400 461,399 461,398 462,398 462,396 463,396 464,394 464,394 465,393 466,392 466,391 467,390 467,390 468,391 469,389 469,390 470,391 471,390 471,389 472,388 472,387 473,386 474,387 474,384 475,383 476,377 476,377 477,378 478,374 478,371 479,369 479,367 480,366 481,366 481,364 482,361 483,360 483,360 484,358 484,358 485,356 486,356 486,356 487,356 488,355 488,354 489,353 489,352 490,354 491,353 491,352 492,351 493,350 493,349 494,348 495,345 495,345 496,346 496,346 497,343 498,342 498,340 499,338 500,338 500,337 501,337 501,334 502,334 503,334 503,330 504,329 505,329 505,327 506,323 506,322 507,322 508,322 508,321 509,318 510,317 510,315 511,316 512,316 512,315 513,315 513,314 514,313 515,313 515,315 516,315 517,315 517,316 518,316 518,316 519,316 520,296 520,295 521,294 522,295 522,293 523,290 523,289 524,288 525,288 525,287 526,287 527,286 527,284 528,286 528,285 529,284 530,282 530,281 531,281 532,279 532,278 533,277 534,278 534,278 535,279 535,279 536,279 537,278 537,279 538,280 539,280 539,281 540,281 540,281 541,280 542,279 542,280 543,280 544,280 544,280 545,280 545,280 546,281 547,280 547,276 548,275 549,273 549,273 550,273 551,273 551,274 552,271 552,268 553,269 554,270 554,270 555,270 556,270 556,270 557,270 557,270 558,269 559,269 559,271 560,271 561,271 561,270 562,268 562,268 563,268 564,268 564,266 565,267 566,264 566,263 567,263 568,264 568,263 569,264 569,266 570,267 571,269 571,267 572,267 573,266 573,265 574,265 574,264 575,265 576,264 576,263 577,261 578,260 578,261 579,261 579,258 580,256 581,255 581,255 582,254 583,254 583,254 584,254 585,256 585,254 586,254 586,254 587,255 588,256 588,256 589,254 590,255 590,256 591,256 591,257 592,257 593,257 593,256 594,255 595,256 595,257 596,258 596,259 597,259 598,260 598,260 599,261 600,265 600,265 601,265 602,266 602,266 603,265 603,266 604,266 605,267 605,267 606,267 607,267 607,267 608,267 608,268 609,268 610,267 610,266 611,267 612,268 612,269 613,269 613,269 614,271 615,271 615,271 616,272 617,273 617,274 618,275 619,277 619,277 620,278 620,283 621,284 622,285 622,286 623,285 624,286 624,286 625,287 625,288 626,285 627,285 627,285 628,286 629,287 629,288 630,289 630,290 631,290 632,289 632,289 633,290 634,291 634,291 635,292 636,293 636,295 637,295 637,294 638,295 639,295 639,294 640,294 641,294 641,295 642,297 642,297 643,298 644,298 644,299 645,300 646,300 646,300 647,300 647,301 648,303 649,304 649,303 650,303 651,304 651,305 652,304 653,305 653,304 654,305 654,306 655,307 656,307 656,306 657,306 658,306 658,307 659,308 659,309 660,308 661,309 661,308 662,309 663,309 663,310 664,311 664,312 665,313 666,313 666,314 667,313 668,313 668,311 669,312 670,312 670,312 671,312 671,313 672,316 673,316 673,317 674,318 675,320 675,320 676,321 676,321 677,321 678,321 678,321 679,320 680,320 680,322 681,322 681,321 682,321 683,322 683,323 684,323 685,323 685,323 686,323 687,324 687,324 688,325 688,325 689,326 690,325 690,326 691,326 692,327 692,328 693,328 693,329 694,329 695,330 695,330 696,330 697,330 697,330 698,331 698,331 699,331 700,331 700,332 701,332 702,332 702,332 703,332 704,333 704,333 705,334 705,331 706,332 707,332 707,331 708,332 709,332 709,335 710,336 710,336 711,336 712,337 712,337 713,338 714,338 714,339 715,340 715,341 716,341 717,342 717,344 718,345 719,345 719,347 720,347 721,347 721,347 722,348 722,348 723,350 724,350 724,351 725,352 726,351 726,353 727,353 727,354 728,354 729,353 729,352 730,352 731,355 731,355 732,356 732,356 733,356 734,359 734,359 735,360 736,360 736,360 737,360 738,360 738,360 739,360 739,361 740,361 741,362 741,363 742,363 743,363 743,364 744,364 744,364 745,365 746,365 746,365 747,365 748,365 748,366 749,366 749,366 750,366 751,367 751,367 751,366 752,367 753,366 753,367 754,368 754,369 755,371 756,373 756,372 757,372 758,372 758,372 759,372 760,373 760,373 761,374 761,375 762,376 763,379 763,376 764,377 765,377 765,379 766,379 766,379 767,380 768,380 768,381 769,381 770,382 770,382 771,382 771,382 772,382 773,383 773,384 774,383 775,383 775,383 776,384 777,384 777,384 778,385 778,387 779,400 780,401 780,402 781,402 782,402 782,403 783,402 783,402 784,403 785,404 785,403 786,404 787,404 787,404 788,404 788,405 789,405 790,405 790,406 791,406 792,407 792,407 793,407 794,408 794,407 795,408 795,408 796,409 797,410 797,411 798,411 799,411 799,412 800,412 800,413 801,413 802,413 802,414 803,415 804,415 804,415 805,416 805,416 806,417 807,417 807,418 808,418 809,419 809,419 810,420 811,419 811,420 812,420 812,422 813,422 814,423 814,424 815,425 816,426 816,438 817,438 817,438 818,426 819,427 819,427 820,427 821,429 821,429 822,429 822,430 823,429 824,430 824,430 825,429 826,430 826,430 827,431 828,431 828,431 829,430 829,431 830,431 831,431 831,432 832,432 833,433 833,434 834,434 834,436 835,436 836,437 836,437 837,437 838,438 838,438 839,439 839,440 840,439 841,439 841,440 842,440 843,440 843,439 844,440 845,440 845,440 846,441 846,441 847,442 848,442 848,443 849,443 850,443 850,444 851,445 851,445 852,446 853,446 853,446 854,446 855,447 855,447 856,448 856,448 857,449 858,449 858,450 859,450 860,451 860,451 861,451 862,451 862,452 863,453 863,453 864,453 865,454 865,454 866,454 867,455 867,455 868,455 868,456 869,456 870,457 870,457 871,458 872,456 872,456 873,456 873,457 874,458 875,458 875,458 876,459 877,459 877,459 878,460 879,460 879,461 880,461 880,461 881,461 882,462 882,462 883,463 884,463 884,464 885,464 885,464 886,464 887,465 887,465 888,465 889,466 889,467 890,468 890,468 891,468 892,469 892,469 893,470 894,470 894,471 895,472 896,471 896,472 897,472 897,472 898,473 899,473 899,474 900,474 901,474 901,474 902,475 902,475 903,476 904,475 904,476 905,475 906,475 906,475 907,475 907,475 908,476 909,476 909,477 910,477 911,477 911,478 912,478 913,478 913,478 914,479 914,479 915,479 916,480 916,481 917,481 918,481 918,482 919,482 919,482 920,482 921,483 921,483 922,483 923,484 923,484 924,484 924,484 925,485 926,485 926,486 927,486 928,486 928,486 929,486 930,486 930,487 931,487 931,487 932,487 933,487 933,488 934,487 935,488 935,488 936,488 936,489 937,489 938,490 938,490 939,490 940,490 940,491 941,491 941,491 942,491 943,492 943,492 944,492 945,492 945,493 946,493 947,493 947,493 948,493 948,493 949,493 950,494 950,494 951,494 952,494 952,495 953,496 953,496 954,497 955,497 955,497 956,497 957,497 957,497 958,498 958,498 959,498 960,499 960,499 961,499 962,499 962,500 963,500 964,500 964,500 965,500 965,501 966,501 967,502 967,502 968,502 969,502 969,503 970,503 970,504 971,504 972,504 972,504 973,505 974,505 974,505 975,505 975,506 976,506 977,506 977,506 978,507 979,505 979,506 980,506 980,506 981,506 982,506 982,507 983,507 984,507 984,507 985,507 986,508 986,508 987,508 987,508 988,508 989,509 989,509 990,508 991,509 991,509 992,510 992,511 993,511 994,511 994,511 994,512 995,512 996,512 996,512 997,513 997,513 998,513 999,513 999,513 1000,514 1001,514 1001,515 1002,515 1003,515 1003,515 1004,515 1004,516 1005,515 1006,516 1006,516 1007,516 1008,516 1008,516 1009,516 1009,516 1010,516 1011,516 1011,516 1012,516 1013,517 1013,517 1014,518 1014,518 1015,519 1016,519 1016,519 1017,519 1018,520 1018,520 1019,520 1020,521 1020,521 1021,521 1021,521 1022,521 1023,521 1023,522 1024,522 1025,522 1025,522 1026,522 1026,523 1027,523 1028,523 1028,524 1029,524 1030,524 1030,524 1031,525 1031,525 1032,526 1033,526 1033,526 1034,526 1035,526 1035,526 1036,527 1037,527 1037,527 1038,527 1038,527 1039,528 1040,528 1040,528 1041,528 1042,528 1042,529 1043,529 1043,530 1044,530 1045,530 1045,531 1046,531 1047,532 1047,532 1048,533 1048,533 1049,533 1050,533 1050,533 1051,535 1052,535 1052,535 1053,536 1054,537 1054,537 1055,537 1055,537 1056,538 1057,538 1057,538 1058,539 1059,539 1059,539 1060,539 1060,539 1061,539 1062,539 1062,540 1063,540 1064,540 1064,541 1065,541 1065,542 1066,541 1067,541 1067,541 1068,541 1069,541 1069,542 1070,542 1071,542 1071,542 1072,543 1072,543 1073,544 1074,544 1074,543 1075,544 1076,544 1076,544 1077,544 1077,545 1078,545 1079,545 1079,545 1080,545 1081,546 1081,546 1082,546 1082,546 1082,546 1083,546 1083,547 1084,547 1084,547 1084,547 1085,547 1085,548 1086,548 1086,548 1086,548 1087,548 1087,549 1088,549 1088,549 1088,549 1088,549 1089,549 1089,549 1089,549 1089,549 1090,549 1090,550 1091,550 1091,550 1091,550 1091,550 1092,550 1092,551 1093,551 1093,551 1093,552 1094,552 1094,552 1094,552 1095,552 1095,553 1096,553 1096,553 1096,553 1096,553 1097,553 1097,553 1098,553 1098,553 1098,553 1099,553 1099,553 1099,553 1099,553 1100,553 1100,554 1101,554 1101,554 1101,554 1101,554 1102,554 1102,555 1103,555 1103,555 1103,555 1103,555 1104,555 1104,556 1105,556 1105,556 1105,556 1106,556 1106,556 1106,556 1106,557 1107,557 1107,557 1108,557 1108,557 1108,557 1108,557 1109,557 1109,558 1110,558 1110,558 1110,558 1110,558 1111,558 1111,558 1111,558 1111,558 1112,558 1113,558 1113,558 1113,559 1114,559 1114,559 1115,559 1115,559 1115,559 1115,560 1116,560 1116,560 1116,560 1116,560 1117,560 1117,561 1118,561 1118,561 1118,561 1118,561 1119,561 1120,561 1120,561 1120,561 1120,561 1121,561 1121,562 1122,562 1122,561 1122,561 1122,562 1123,562 1123,562 1123,562 1124,562 1124,563 1125,563 1125,563 1125,563 1125,562 1126,562 1126,563 1127,563 1127,563 1127,563 1127,563 1128,563 1128,564 1128,564 1128,564 1129,564 1129,564 1130,564 1130,564 1130,564 1130,564 1131,564 1131,565 1132,565 1132,565 1132,565 1132,565 1133,565 1133,566 1133,566 1133,565 1134,565 1134,565 1135,566 1135,566 1135,566 1136,566 1136,566 1137,566 1137,566 1137,566 1137,567 1138,567 1138,567 1139,567 1139,567 1139,567 1139,567 1140,567 1140,568 1140,568 1140,568 1141,568 1142,568 1142,568 1142,568 1142,568 1143,568 1143,569 1144,569 1144,570 1144,570 1144,570 1145,570 1145,570 1146,570 1146,570 1147,570 1147,570 1147,570 1148,570 1148,570 1149,570 1149,570 1149,570 1149,570 1150,570 1150,570 1150,570 1150,570 1151,570 1151,571 1152,571 1152,570 1152,570 1152,570 1153,570 1153,571 1154,571 1154,571 1154,571 1155,571 1155,571 1156,571 1156,571 1156,571 1156,571 1157,571 1157,571 1157,571 1157,572 1158,572 1158,572 1159,572 1159,572 1159,572 1159,572 1160,572 1160,572 1161,572 1161,573 1161,573 1161,573 1162,573 1162,573 1162,573 1162,573 1163,573 1163,573 1164,573 1164,573 1164,574 1165,574 1165,574 1166,574 1166,574 1166,573 1166,574 1167,574 1167,574 1167,574 1167,574 1168,574 1168,575 1169,575 1169,575 1169,575 1170,575 1170,575 1171,575 1171,575 1171,575 1171,575 1172,575 1172,576 1173,576 1173,576 1173,576 1173,575 1174,575 1174,575 1174,575 1174,576 1175,576 1175,576 1176,576 1176,576 1176,576 1176,576 1177,576 1177,576 1178,576 1178,576 1178,576 1178,576 1179,576 1179,576 1179,576 1179,577 1180,577 1180,577 1181,577 1181,577 1181,577 1182,577 1182,578 1183,578 1183,578 1183,578 1183,578 1184,578 1184,578 1184,578 1184,578 1185,578 1185,579 1186,579 1186,579 1186,579 1186,579 1187,579 1187,579 1188,579 1188,579 1188,579 1188,579 1189,579 1189,579 1190,579 "/>
<polyline fill="none" opacity="1" stroke="#19E68E" stroke-width="2" points="553,738 554,737 555,736 556,734 557,732 557,731 559,730 559,729 560,725 561,725 561,723 562,720 562,719 563,718 564,717 564,716 565,714 566,713 568,712 569,710 569,707 570,706 571,704 571,704 572,701 574,699 575,696 576,695 577,694 578,694 578,693 579,690 580,689 581,688 581,685 582,684 583,684 583,683 584,682 585,680 586,678 586,673 587,672 588,672 588,671 589,670 590,669 590,668 591,668 591,664 592,665 593,665 593,664 594,663 595,660 595,660 596,659 596,658 597,655 598,654 598,652 599,650 600,648 600,645 601,644 602,643 602,640 603,640 603,638 604,637 605,636 605,635 606,630 607,628 607,629 608,629 608,628 609,628 610,628 610,627 611,627 612,626 612,624 613,621 613,620 614,617 615,615 615,612 616,610 617,608 617,606 618,604 619,599 619,594 620,593 620,593 621,593 622,588 622,584 623,580 624,579 624,578 625,578 625,575 626,575 627,574 627,574 628,573 629,571 629,571 630,570 630,566 631,565 632,564 632,564 633,562 634,562 634,560 635,559 636,558 636,556 637,556 637,554 638,553 639,552 639,551 640,549 641,547 641,545 642,543 642,543 643,540 644,539 644,535 645,530 646,527 646,525 647,523 647,519 648,516 649,515 649,515 650,514 651,513 651,511 652,510 653,509 653,503 654,500 654,499 655,496 656,495 656,493 657,490 658,488 658,488 659,484 659,482 660,483 661,482 661,481 662,479 663,476 663,475 664,472 664,472 665,469 666,463 666,463 667,461 668,461 668,461 669,460 670,458 670,457 671,456 671,455 672,450 673,450 673,449 674,443 675,438 675,437 676,434 676,433 677,432 678,431 678,432 679,430 680,431 680,428 681,427 681,426 682,426 683,424 684,423 685,422 685,422 686,421 687,420 687,419 688,414 688,412 689,407 690,406 690,403 691,402 692,402 692,403 693,403 693,402 694,400 695,399 695,397 696,397 697,395 697,396 698,393 698,392 699,391 700,391 700,389 701,390 702,389 702,387 703,386 704,383 704,383 705,383 705,382 706,381 707,382 707,381 708,378 709,377 709,372 710,371 710,370 711,369 712,367 712,367 713,367 714,365 714,365 715,364 715,363 716,363 717,361 717,358 718,358 719,356 719,358 720,357 721,355 721,355 722,356 722,354 723,354 724,353 724,352 725,349 726,349 726,347 727,344 727,344 728,341 729,341 729,339 730,338 731,339 731,338 732,337 732,337 733,337 734,338 734,338 735,337 736,336 736,334 737,332 738,330 738,330 739,329 739,328 740,326 741,324 741,322 742,323 743,322 743,321 744,321 744,319 745,317 746,316 746,314 747,313 748,311 748,309 749,307 749,307 750,305 751,305 751,302 751,302 752,302 753,301 753,298 754,296 754,292 755,288 756,286 756,285 757,284 758,284 758,281 759,282 760,281 760,281 761,279 761,280 762,280 763,284 763,280 764,280 765,279 765,278 766,277 766,277 767,272 768,271 768,272 769,269 770,270 770,269 771,268 771,265 772,264 773,263 773,262 774,262 775,263 775,263 776,262 777,259 777,261 778,260 778,258 779,236 780,235 780,236 781,237 782,234 782,235 783,233 783,233 784,233 785,229 785,229 786,228 787,229 787,225 788,224 788,222 789,223 790,222 790,220 791,219 792,220 792,220 793,219 794,216 794,214 795,210 795,208 796,204 797,203 797,201 798,201 799,200 799,198 800,196 800,197 801,197 802,196 802,192 803,190 804,190 804,189 805,187 805,187 806,185 807,184 807,185 808,184 809,184 809,182 810,183 811,182 811,180 812,180 812,177 813,176 814,176 814,175 815,174 816,169 816,190 817,192 817,191 818,170 819,169 819,167 820,167 821,165 821,165 822,165 822,163 823,161 824,162 824,163 825,162 826,162 826,160 827,159 828,159 828,157 829,157 829,156 830,155 831,155 831,156 832,157 833,155 833,155 834,154 834,154 835,154 836,155 836,149 837,149 838,148 838,148 839,145 839,145 840,144 841,144 841,144 842,145 843,145 843,145 844,145 845,145 845,146 846,146 846,145 847,145 848,145 848,143 849,141 850,140 850,139 851,137 851,137 852,138 853,137 853,135 854,134 855,132 855,130 856,131 856,130 857,130 858,129 858,129 859,128 860,129 860,127 861,127 862,127 862,127 863,126 863,126 864,126 865,127 865,127 866,128 867,125 867,125 868,123 868,123 869,122 870,121 870,118 871,118 872,119 872,118 873,118 873,119 874,119 875,117 875,117 876,115 877,113 877,113 878,113 879,113 879,114 880,114 880,114 881,113 882,111 882,111 883,111 884,110 884,110 885,111 885,110 886,109 887,108 887,109 888,107 889,106 889,108 890,108 890,108 891,108 892,108 892,108 893,108 894,107 894,109 895,109 896,110 896,110 897,109 897,109 898,107 899,108 899,106 900,105 901,107 901,108 902,101 902,101 903,102 904,102 904,102 905,101 906,101 906,101 907,102 907,101 908,101 909,101 909,103 910,105 911,105 911,104 912,104 913,103 913,103 914,103 914,103 915,101 916,102 916,101 917,100 918,99 918,99 919,95 919,96 920,95 921,96 921,94 922,92 923,92 923,93 924,90 924,89 925,90 926,89 926,89 927,89 928,88 928,86 929,85 930,86 930,86 931,86 931,85 932,86 933,84 933,84 934,84 935,84 935,85 936,85 936,85 937,85 938,86 938,84 939,84 940,83 940,84 941,83 941,81 942,82 943,83 943,82 944,82 945,84 945,83 946,83 947,83 947,83 948,83 948,83 949,83 950,83 950,82 951,82 952,82 952,83 953,82 953,80 954,80 955,79 955,79 956,79 957,79 957,79 958,76 958,75 959,76 960,76 960,77 961,77 962,77 962,78 963,78 964,79 964,78 965,78 965,78 966,79 967,78 967,78 968,78 969,79 969,80 970,79 970,80 971,78 972,78 972,78 973,78 974,78 974,78 975,78 975,77 976,77 977,77 977,77 978,78 979,79 979,78 980,78 980,77 981,78 982,78 982,79 983,79 984,78 984,79 985,79 986,78 986,78 987,79 987,81 988,81 989,80 989,80 990,80 991,78 991,79 992,79 992,79 993,79 994,79 994,80 994,80 995,83 996,84 996,84 997,85 997,86 998,86 999,86 999,86 1000,87 1001,87 1001,86 1002,89 1003,90 1003,89 1004,90 1004,95 1005,97 1006,96 1006,99 1007,103 1008,103 1008,104 1009,103 1009,104 1010,104 1011,105 1011,106 1012,110 1013,111 1013,112 1014,113 1014,114 1015,111 1016,112 1016,112 1017,113 1018,113 1018,114 1019,114 1020,115 1020,115 1021,112 1021,112 1022,112 1023,112 1023,112 1024,110 1025,110 1025,111 1026,111 1026,111 1027,111 1028,111 1028,112 1029,112 1030,112 1030,111 1031,112 1031,112 1032,114 1033,114 1033,115 1034,115 1035,115 1035,116 1036,116 1037,111 1037,111 1038,112 1038,113 1039,113 1040,113 1040,114 1041,115 1042,111 1042,110 1043,111 1043,112 1044,112 1045,112 1045,113 1046,113 1047,115 1047,115 1048,115 1048,115 1049,116 1050,116 1050,119 1051,118 1052,118 1052,120 1053,121 1054,121 1054,121 1055,121 1055,124 1056,127 1057,128 1057,127 1058,127 1059,127 1059,128 1060,128 1060,128 1061,129 1062,129 1062,129 1063,130 1064,130 1064,131 1065,130 1065,131 1066,132 1067,133 1067,133 1068,134 1069,132 1069,134 1070,135 1071,136 1071,135 1072,135 1072,134 1073,135 1074,135 1074,136 1075,137 1076,136 1076,137 1077,138 1077,140 1078,140 1079,141 1079,142 1080,142 1081,143 1081,140 1082,141 1082,140 1082,141 1083,141 1083,141 1084,141 1084,141 1084,142 1085,142 1085,143 1086,144 1086,144 1086,145 1087,145 1087,150 1088,150 1088,151 1088,151 1088,152 1089,152 1089,154 1089,154 1089,154 1090,154 1090,154 1091,154 1091,155 1091,155 1091,155 1092,155 1092,156 1093,156 1093,156 1093,157 1094,157 1094,157 1094,157 1095,157 1095,155 1096,155 1096,156 1096,156 1096,156 1097,156 1097,156 1098,156 1098,156 1098,157 1099,157 1099,156 1099,156 1099,156 1100,156 1100,156 1101,156 1101,157 1101,157 1101,157 1102,157 1102,157 1103,157 1103,158 1103,158 1103,158 1104,158 1104,158 1105,160 1105,160 1105,161 1106,161 1106,162 1106,162 1106,161 1107,161 1107,163 1108,163 1108,165 1108,165 1108,164 1109,164 1109,166 1110,166 1110,167 1110,167 1110,166 1111,166 1111,167 1111,167 1111,169 1112,169 1113,170 1113,170 1113,170 1114,170 1114,170 1115,170 1115,170 1115,170 1115,170 1116,170 1116,170 1116,170 1116,171 1117,171 1117,172 1118,172 1118,172 1118,172 1118,173 1119,174 1120,175 1120,175 1120,176 1120,176 1121,176 1121,177 1122,177 1122,178 1122,178 1122,179 1123,180 1123,180 1123,181 1124,181 1124,183 1125,183 1125,183 1125,183 1125,184 1126,184 1126,185 1127,185 1127,186 1127,186 1127,186 1128,186 1128,187 1128,187 1128,187 1129,187 1129,187 1130,187 1130,187 1130,187 1130,189 1131,189 1131,190 1132,190 1132,191 1132,191 1132,192 1133,192 1133,192 1133,192 1133,193 1134,193 1134,194 1135,195 1135,195 1135,196 1136,196 1136,197 1137,197 1137,200 1137,200 1137,201 1138,201 1138,201 1139,201 1139,202 1139,202 1139,203 1140,203 1140,203 1140,203 1140,204 1141,204 1142,204 1142,205 1142,205 1142,206 1143,206 1143,207 1144,207 1144,208 1144,208 1144,208 1145,209 1145,212 1146,212 1146,212 1147,213 1147,213 1147,213 1148,213 1148,214 1149,214 1149,215 1149,215 1149,215 1150,216 1150,216 1150,216 1150,218 1151,218 1151,219 1152,219 1152,219 1152,219 1152,220 1153,220 1153,220 1154,220 1154,220 1154,220 1155,220 1155,222 1156,222 1156,223 1156,223 1156,223 1157,223 1157,224 1157,224 1157,225 1158,225 1158,225 1159,225 1159,225 1159,225 1159,226 1160,226 1160,227 1161,227 1161,228 1161,228 1161,228 1162,228 1162,230 1162,230 1162,231 1163,231 1163,231 1164,233 1164,233 1164,233 1165,233 1165,234 1166,234 1166,234 1166,234 1166,235 1167,235 1167,236 1167,236 1167,237 1168,237 1168,237 1169,237 1169,237 1169,238 1170,238 1170,238 1171,238 1171,239 1171,239 1171,239 1172,239 1172,239 1173,240 1173,239 1173,239 1173,241 1174,241 1174,241 1174,241 1174,241 1175,241 1175,242 1176,242 1176,243 1176,243 1176,244 1177,244 1177,244 1178,244 1178,244 1178,244 1178,244 1179,244 1179,245 1179,245 1179,245 1180,245 1180,246 1181,247 1181,247 1181,248 1182,248 1182,249 1183,249 1183,249 1183,249 1183,250 1184,250 1184,251 1184,251 1184,252 1185,252 1185,253 1186,253 1186,253 1186,253 1186,253 1187,253 1187,254 1188,254 1188,255 1188,255 1188,256 1189,256 1189,257 1190,257 "/>
<polyline fill="none" opacity="1" stroke="#198EE6" stroke-width="2" points="60,735 60,732 64,729 74,726 83,723 91,723 92,720 96,717 97,714 99,715 103,712 107,709 108,706 114,704 121,705 121,705 124,700 129,698 133,701 135,701 141,694 142,691 143,691 143,692 144,692 144,692 146,692 146,692 147,690 148,687 149,687 150,687 151,688 151,688 153,688 154,688 155,686 155,686 156,686 156,684 157,684 158,684 159,684 160,684 160,684 161,685 161,685 162,685 163,685 163,685 164,685 165,683 165,683 166,683 167,683 168,683 168,683 169,683 170,684 172,684 173,684 173,682 174,680 175,680 175,678 176,678 177,680 177,680 178,678 178,678 179,678 180,679 181,679 182,679 183,677 184,677 184,677 185,677 185,677 187,677 187,678 188,678 189,678 190,676 190,673 191,671 192,669 192,669 193,670 194,670 194,670 195,670 195,670 196,670 197,671 198,671 199,671 200,669 201,665 202,663 202,663 203,663 205,664 206,664 206,662 207,662 208,662 209,662 209,662 210,660 211,660 211,661 212,659 213,657 214,657 215,657 216,658 217,658 218,658 218,658 219,658 219,656 220,657 221,657 221,657 222,657 223,657 223,657 224,655 225,654 226,654 226,654 227,652 228,652 228,652 229,652 229,653 230,651 231,651 231,651 232,651 233,651 233,650 235,648 235,644 236,644 236,645 237,645 238,643 239,643 240,643 241,643 242,644 243,644 243,644 244,644 245,644 245,644 246,643 247,643 248,643 248,643 249,643 250,644 250,644 253,644 253,645 254,643 255,643 255,641 256,640 257,640 257,640 258,640 258,640 260,641 261,641 262,641 262,641 263,641 263,641 264,640 265,640 266,638 267,639 267,639 269,639 269,639 270,640 270,640 271,638 273,639 274,637 274,638 275,638 276,635 277,635 277,635 278,635 279,635 279,635 280,636 280,636 281,636 282,638 282,638 284,637 284,637 285,638 286,638 286,638 287,638 287,638 288,638 289,639 289,639 290,639 291,639 291,639 292,636 292,635 293,635 294,635 294,635 295,635 296,635 296,635 297,636 297,636 298,636 299,637 299,637 300,637 301,635 301,636 302,636 302,636 303,633 304,633 304,632 305,632 306,630 307,631 308,631 309,632 309,632 310,632 311,632 312,631 313,631 313,631 314,630 314,628 315,628 316,629 317,629 318,627 318,628 319,628 319,628 320,628 321,627 322,626 323,626 323,624 324,624 325,625 325,625 326,625 326,624 327,624 328,624 328,624 329,624 330,624 330,623 331,623 331,623 332,624 333,624 333,624 335,624 335,624 336,625 336,625 337,625 338,624 339,624 340,624 340,624 341,623 342,622 342,621 343,621 343,621 344,623 345,623 345,622 346,622 347,621 347,621 348,622 348,620 349,619 350,618 350,618 351,619 352,619 352,619 353,619 353,619 354,620 355,620 355,619 356,617 357,618 357,618 358,618 359,618 359,617 360,616 360,616 361,616 362,617 363,616 364,614 364,614 365,613 365,614 366,614 367,614 367,610 368,610 369,611 369,610 370,610 370,610 371,610 372,611 372,610 373,609 374,609 374,609 375,610 376,609 376,608 377,608 377,608 378,609 379,608 379,608 380,608 381,608 381,609 382,607 382,608 383,607 384,606 384,606 385,606 386,606 386,606 387,607 387,607 388,607 389,608 389,607 390,604 391,605 392,605 393,606 393,606 394,606 394,606 395,607 396,607 397,606 398,605 398,605 399,605 399,605 400,606 401,606 401,606 402,606 403,605 403,606 404,606 404,606 405,605 406,605 406,605 407,606 408,606 408,606 409,606 410,606 410,606 411,607 411,607 412,606 413,606 413,606 414,607 415,607 415,606 416,605 416,605 417,605 418,605 418,606 419,606 420,606 420,606 421,606 421,607 422,607 423,607 423,605 424,605 425,606 425,606 426,606 427,606 427,606 428,606 428,607 429,607 430,606 430,605 431,605 432,606 432,606 433,605 433,605 434,605 435,605 435,606 436,606 437,605 437,605 438,606 438,605 439,606 440,607 440,607 441,607 442,606 442,605 443,605 444,606 444,606 445,606 445,606 446,605 447,607 447,604 448,604 449,604 449,605 450,605 450,605 451,603 452,604 452,603 453,603 454,602 454,601 455,601 455,601 456,601 457,601 457,601 458,600 459,601 459,602 460,603 461,603 461,603 462,603 462,602 463,603 464,603 465,603 466,603 466,604 467,604 467,604 468,604 469,604 469,604 470,605 471,605 471,605 472,604 472,604 473,604 474,605 474,605 475,605 476,605 476,606 477,606 478,606 478,606 479,606 479,607 480,607 481,607 481,606 482,606 483,606 483,606 484,605 484,605 485,605 486,605 486,604 487,604 488,604 488,604 489,605 489,605 490,605 491,605 491,605 492,605 493,604 493,605 494,605 495,605 495,605 496,605 496,605 497,605 498,605 498,605 499,606 500,606 500,605 501,605 501,605 502,605 503,606 503,606 504,605 505,605 505,605 506,606 506,606 507,606 508,606 508,606 509,607 510,607 510,607 511,607 512,607 512,607 513,608 513,608 514,608 515,608 515,608 516,609 517,609 517,609 518,609 518,609 519,608 520,609 520,607 521,607 522,608 522,607 523,607 524,607 525,607 525,607 526,607 527,606 527,606 528,607 528,607 529,607 530,607 530,608 532,607 532,607 533,607 534,608 534,607 535,607 535,606 536,607 537,607 537,607 538,607 539,607 539,607 540,606 540,606 541,606 542,607 542,606 543,606 544,606 544,606 545,607 545,607 546,607 547,606 547,606 548,606 549,605 549,604 550,604 551,604 551,605 552,605 552,605 553,605 554,605 554,605 555,606 556,606 556,606 557,606 557,606 558,605 559,605 559,605 560,606 561,606 561,606 562,606 562,607 563,608 564,608 564,608 565,608 566,608 566,608 567,609 568,609 568,609 569,609 569,609 570,610 571,610 571,609 572,609 573,609 573,610 574,610 574,611 575,611 576,611 576,612 577,612 578,612 578,612 579,612 580,613 581,613 581,613 582,613 583,613 583,614 584,614 585,614 585,614 586,614 587,614 588,614 588,614 589,614 590,614 590,615 591,615 591,614 593,615 593,615 594,614 595,614 595,615 596,615 596,615 597,615 598,615 598,615 599,615 600,616 600,615 601,615 602,616 602,616 603,615 603,615 604,616 605,615 605,615 606,615 607,613 607,614 608,614 608,614 609,614 610,614 610,615 611,615 612,615 612,615 613,615 613,614 614,614 615,614 615,613 616,613 617,613 617,612 618,612 619,611 619,611 620,611 620,612 621,611 622,611 622,611 623,612 624,612 624,612 625,612 625,612 626,613 627,613 627,613 628,613 629,613 629,614 630,615 630,615 631,615 632,614 632,615 633,614 634,614 634,614 635,615 636,615 636,615 637,615 637,616 638,616 639,615 639,615 640,615 641,616 641,616 642,615 642,615 643,616 644,616 644,616 645,616 646,616 646,616 647,616 647,616 648,616 649,616 649,616 650,617 651,616 651,616 652,615 653,615 653,615 654,615 654,616 655,615 656,615 656,615 657,615 658,615 658,615 659,615 659,615 660,615 661,615 661,616 662,616 663,616 663,617 664,617 664,617 665,618 666,618 666,618 667,618 668,618 668,618 669,618 670,618 670,618 671,618 671,619 672,618 673,619 673,619 674,619 675,619 675,619 676,619 676,619 677,619 678,619 678,618 679,619 680,619 680,619 681,619 681,619 682,619 683,619 683,619 684,619 685,619 685,619 686,619 687,619 687,620 688,620 688,619 689,619 690,619 690,619 691,619 692,619 692,619 693,619 693,620 694,619 695,619 695,619 696,619 697,620 697,620 698,620 698,620 699,620 700,620 700,620 701,620 702,620 703,620 704,620 704,620 705,621 705,621 706,621 707,621 707,621 708,621 709,621 709,621 710,621 710,622 711,622 712,622 712,622 713,622 714,622 714,622 715,621 715,622 716,622 717,622 717,622 718,622 719,622 719,623 720,623 721,623 721,623 722,623 722,623 723,623 724,623 724,624 725,624 726,624 726,624 727,624 727,624 728,625 729,625 729,625 730,624 731,625 731,625 732,625 732,626 733,626 734,626 734,626 735,626 736,626 736,627 737,627 738,627 738,627 739,626 739,626 740,626 741,626 741,626 742,626 743,626 743,626 744,626 744,626 745,627 746,626 746,626 747,627 748,627 748,627 749,627 749,628 750,628 751,628 751,628 751,628 752,628 753,628 753,628 754,629 754,629 755,629 756,629 756,629 757,630 758,630 758,629 759,629 760,630 760,630 761,630 761,630 762,630 763,632 763,631 764,631 765,631 765,631 766,631 766,632 767,632 768,632 768,633 769,633 770,633 770,633 771,633 771,633 772,633 773,634 773,634 774,634 775,634 775,634 776,634 777,634 777,634 778,634 778,634 779,634 780,634 780,634 781,635 782,635 782,635 783,635 783,635 784,635 785,635 785,635 786,636 787,636 787,636 788,636 788,636 789,636 790,636 790,636 791,637 792,636 792,636 793,636 794,637 794,637 795,637 795,637 796,637 797,637 797,637 798,637 799,638 799,637 800,637 800,637 801,638 802,638 802,638 803,638 804,638 804,638 805,638 805,638 806,639 807,639 807,639 808,639 809,639 809,639 810,639 811,639 811,640 812,640 812,639 813,640 814,640 814,639 815,640 816,640 816,644 817,644 817,644 818,640 819,640 819,641 820,641 821,641 821,641 822,641 822,642 823,642 824,642 824,642 825,642 826,642 826,643 827,643 828,643 828,643 829,644 829,644 830,644 831,644 831,644 832,644 833,645 833,645 834,645 834,645 835,645 836,645 836,645 837,645 838,645 838,645 839,645 839,645 840,645 841,645 841,646 842,646 843,646 843,646 844,647 845,647 845,647 846,647 846,647 847,647 848,646 848,647 849,647 850,647 850,647 851,647 851,647 852,647 853,647 853,647 854,646 855,646 855,645 856,645 856,645 857,645 858,645 858,645 859,645 860,645 860,645 861,646 862,646 862,646 863,646 863,646 864,646 865,646 865,646 866,647 867,647 867,647 868,647 868,647 869,647 870,647 870,647 871,647 872,647 872,647 873,647 873,647 874,648 875,648 875,648 876,648 877,648 877,648 878,648 879,648 879,649 880,649 880,649 881,649 882,649 882,649 883,648 884,648 884,648 885,649 885,649 886,649 887,649 887,649 888,649 889,649 889,649 890,649 890,649 891,649 892,649 892,649 893,649 894,649 894,649 895,649 896,649 896,649 897,649 897,649 898,649 899,649 899,649 900,649 901,649 901,649 902,649 902,649 903,649 904,649 904,650 905,650 906,650 906,650 907,650 907,650 908,650 909,650 909,650 910,650 911,650 911,650 912,651 913,650 913,650 914,650 914,651 915,651 916,651 916,651 917,651 918,651 918,651 919,651 919,651 920,651 921,652 921,652 922,652 923,652 923,653 924,653 924,653 925,653 926,653 926,653 927,653 928,653 928,654 929,654 930,653 930,653 931,651 931,651 932,651 933,651 933,651 934,651 935,651 935,651 936,651 936,651 937,650 938,650 938,650 939,650 940,650 940,650 941,650 941,650 942,650 943,650 943,650 944,650 945,650 945,650 946,650 947,650 947,650 948,650 948,650 949,650 950,650 950,651 951,651 952,651 952,651 953,651 953,651 954,651 955,651 955,651 956,651 957,651 957,651 958,651 958,652 959,651 960,651 960,651 961,652 962,652 962,652 963,652 964,652 964,651 965,651 965,651 966,651 967,651 967,651 968,652 969,652 969,652 970,652 970,652 971,652 972,652 972,652 973,652 974,652 974,652 975,652 975,652 976,653 977,652 977,653 978,653 979,653 979,653 980,653 980,653 981,654 982,654 982,654 983,654 984,655 984,655 985,655 986,655 986,655 987,655 987,655 988,656 989,656 989,656 990,656 991,656 991,656 992,656 992,656 993,656 994,656 994,656 994,656 995,656 996,656 996,657 997,656 997,656 998,656 999,657 999,656 1000,656 1001,657 1001,657 1002,657 1003,657 1003,657 1004,657 1004,658 1005,657 1006,657 1006,657 1007,657 1008,657 1008,658 1009,658 1009,658 1010,658 1011,658 1011,658 1012,658 1013,658 1013,658 1014,658 1014,658 1015,659 1016,659 1016,659 1017,659 1018,659 1018,659 1019,659 1020,659 1020,659 1021,659 1021,659 1022,659 1023,659 1023,659 1024,659 1025,660 1025,660 1026,660 1026,660 1027,660 1028,660 1028,660 1029,660 1030,660 1030,660 1031,660 1031,661 1032,661 1033,661 1033,661 1034,662 1035,662 1035,662 1036,662 1037,662 1037,662 1038,662 1038,662 1039,662 1040,662 1040,662 1041,662 1042,662 1042,662 1043,662 1043,662 1044,663 1045,663 1045,663 1046,663 1047,663 1047,663 1048,663 1048,663 1049,663 1050,663 1050,664 1051,664 1052,664 1052,664 1053,664 1054,665 1054,665 1055,665 1055,665 1056,665 1057,665 1057,665 1058,665 1059,665 1059,665 1060,665 1060,665 1061,665 1062,666 1062,666 1063,666 1064,666 1064,666 1065,666 1065,667 1066,667 1067,667 1067,667 1068,667 1069,667 1069,667 1070,667 1071,667 1071,667 1072,667 1072,668 1073,667 1074,667 1074,668 1075,667 1076,667 1076,667 1077,668 1077,668 1078,668 1079,668 1079,669 1080,669 1081,669 1081,669 1082,669 1082,669 1082,669 1083,669 1083,669 1084,670 1084,670 1084,670 1085,670 1085,670 1086,670 1086,670 1086,670 1087,670 1087,670 1088,670 1088,670 1088,670 1088,670 1089,670 1089,670 1089,670 1089,670 1090,670 1090,670 1091,670 1091,670 1091,670 1091,670 1092,670 1092,670 1093,670 1093,670 1094,670 1094,670 1094,670 1095,670 1095,670 1096,670 1096,671 1096,671 1096,671 1097,671 1097,671 1098,671 1098,671 1098,671 1099,671 1099,671 1099,671 1099,671 1100,671 1100,671 1101,671 1101,671 1101,671 1101,671 1102,671 1102,671 1103,671 1103,671 1103,671 1103,671 1104,671 1104,672 1105,672 1105,672 1105,672 1106,672 1106,672 1106,672 1106,672 1107,672 1107,672 1108,672 1108,671 1108,671 1108,671 1109,671 1109,671 1110,671 1110,671 1110,671 1110,671 1111,671 1111,671 1111,671 1111,671 1112,671 1113,671 1113,671 1113,671 1114,671 1114,672 1115,672 1115,671 1115,671 1115,671 1116,671 1116,671 1116,671 1116,672 1117,672 1117,672 1118,672 1118,672 1118,672 1118,672 1119,672 1120,672 1120,672 1120,672 1120,672 1121,672 1121,672 1122,672 1122,672 1122,672 1122,672 1123,672 1123,672 1123,673 1124,673 1124,673 1125,673 1125,673 1125,673 1125,674 1126,674 1126,674 1127,674 1127,674 1127,674 1127,674 1128,674 1128,674 1128,674 1128,674 1129,674 1129,674 1130,674 1130,674 1130,674 1130,674 1131,674 1131,674 1132,674 1132,674 1132,674 1132,673 1133,673 1133,674 1133,674 1133,674 1134,674 1134,673 1135,673 1135,673 1135,673 1136,673 1136,673 1137,673 1137,673 1137,673 1137,673 1138,673 1138,673 1139,673 1139,673 1139,673 1139,673 1140,673 1140,673 1140,673 1140,674 1141,674 1142,674 1142,674 1142,674 1142,674 1143,674 1143,674 1144,674 1144,674 1144,674 1144,674 1145,674 1145,674 1146,674 1146,674 1147,674 1147,674 1147,675 1148,675 1148,675 1149,675 1149,675 1149,675 1149,675 1150,675 1150,675 1150,675 1150,675 1151,675 1151,675 1152,675 1152,675 1152,675 1152,675 1153,675 1153,675 1154,675 1154,675 1154,675 1155,675 1155,675 1156,675 1156,675 1156,675 1156,675 1157,675 1157,675 1157,675 1157,675 1158,675 1158,675 1159,675 1159,675 1159,675 1159,675 1160,675 1160,675 1161,675 1161,675 1161,675 1161,675 1162,675 1162,676 1162,676 1162,676 1163,676 1163,675 1164,675 1164,675 1164,675 1165,675 1165,675 1166,675 1166,675 1166,675 1166,675 1167,675 1167,675 1167,675 1167,675 1168,675 1168,675 1169,675 1169,675 1169,675 1170,675 1170,676 1171,676 1171,676 1171,676 1171,676 1172,676 1172,676 1173,676 1173,676 1173,676 1173,676 1174,676 1174,676 1174,676 1174,676 1175,676 1175,676 1176,676 1176,676 1176,676 1176,676 1177,676 1177,677 1178,677 1178,677 1178,677 1178,677 1179,677 1179,677 1179,677 1179,677 1180,677 1180,677 1181,677 1181,677 1181,677 1182,677 1182,677 1183,677 1183,677 1183,677 1183,677 1184,677 1184,677 1184,677 1184,677 1185,677 1185,677 1186,677 1186,677 1186,677 1186,677 1187,677 1187,677 1188,677 1188,677 1188,677 1188,677 1189,677 1189,678 1190,678 "/>
<polyline fill="none" opacity="1" stroke="#5419E6" stroke-width="2" points="890,738 892,738 896,738 901,737 903,736 906,736 909,736 909,735 910,732 911,732 913,732 914,732 919,731 920,731 921,731 922,731 923,731 930,731 935,731 935,730 936,730 938,729 941,729 943,728 943,728 944,727 945,727 945,727 948,727 948,727 949,727 952,727 952,726 953,726 953,725 957,725 957,725 958,725 958,724 960,724 962,724 962,724 963,724 964,724 966,724 968,724 969,724 970,724 970,723 971,723 972,723 973,723 974,723 974,723 975,723 977,723 977,723 978,722 979,723 980,723 980,723 981,722 982,721 982,721 983,721 984,721 984,722 985,722 986,722 987,722 987,722 988,721 989,721 989,721 990,721 991,721 992,721 993,721 994,721 994,721 994,721 995,720 996,720 996,720 997,720 997,719 998,719 999,719 1000,718 1001,718 1002,718 1003,717 1003,717 1004,717 1004,717 1006,717 1007,717 1008,717 1008,716 1009,716 1009,716 1010,715 1011,715 1011,715 1013,714 1013,714 1014,714 1014,714 1015,714 1016,714 1016,714 1018,713 1018,713 1019,714 1021,713 1021,713 1022,713 1023,713 1025,714 1025,714 1026,714 1026,714 1028,713 1029,713 1030,713 1031,713 1033,712 1033,713 1034,713 1035,712 1035,712 1036,712 1037,712 1037,712 1038,712 1038,712 1039,712 1040,711 1040,711 1041,712 1042,712 1042,712 1043,712 1043,711 1044,711 1045,712 1045,711 1046,711 1047,711 1047,711 1048,711 1048,711 1049,711 1050,711 1051,711 1052,710 1052,710 1053,710 1054,710 1054,710 1055,709 1055,709 1057,709 1057,710 1058,710 1059,710 1059,710 1060,709 1060,709 1061,709 1062,709 1062,709 1063,708 1064,708 1064,708 1065,709 1065,709 1066,708 1067,708 1067,708 1068,708 1069,708 1069,708 1070,708 1071,708 1071,708 1072,708 1072,708 1073,708 1074,708 1074,708 1075,708 1076,708 1076,707 1077,708 1078,708 1079,708 1079,708 1080,708 1081,708 1081,708 1082,708 1082,708 1082,708 1083,708 1083,708 1084,708 1084,708 1084,708 1085,708 1085,708 1086,708 1086,708 1086,708 1087,708 1087,708 1088,708 1088,708 1088,708 1088,707 1089,707 1089,707 1089,707 1089,707 1090,707 1090,708 1091,708 1091,707 1091,707 1091,707 1092,707 1092,707 1093,707 1093,707 1093,707 1094,707 1094,707 1094,707 1095,707 1095,707 1096,707 1096,707 1096,707 1096,706 1097,706 1097,707 1098,707 1098,707 1098,707 1099,707 1099,706 1099,706 1099,706 1100,706 1100,706 1101,706 1101,707 1101,707 1101,707 1102,707 1102,707 1103,707 1103,707 1103,707 1103,707 1104,707 1104,707 1105,707 1105,707 1106,707 1106,707 1106,707 1106,707 1107,707 1107,707 1108,707 1108,707 1108,707 1108,707 1109,707 1109,707 1110,707 1110,707 1110,707 1110,707 1111,707 1111,707 1111,707 1112,707 1113,707 1113,707 1113,707 1114,707 1114,707 1115,707 1115,707 1115,707 1115,707 1116,707 1116,707 1116,707 1116,707 1117,707 1117,706 1118,706 1118,706 1118,707 1119,707 1120,707 1120,707 1120,707 1120,707 1121,707 1121,707 1122,707 1122,707 1122,707 1122,706 1123,706 1123,706 1123,706 1124,706 1124,706 1125,706 1125,706 1125,706 1125,706 1126,706 1126,706 1127,706 1127,706 1127,706 1127,706 1128,706 1128,706 1128,706 1129,706 1129,707 1130,707 1130,706 1130,706 1130,707 1131,707 1131,706 1132,706 1132,706 1132,706 1132,706 1133,706 1133,707 1133,707 1133,707 1134,707 1134,706 1135,706 1135,706 1135,706 1136,706 1136,706 1137,706 1137,706 1137,706 1137,707 1138,707 1138,707 1139,707 1139,707 1139,707 1139,707 1140,707 1140,707 1140,707 1140,707 1141,707 1142,707 1142,707 1142,707 1143,707 1143,707 1144,707 1144,707 1144,707 1144,707 1145,707 1145,707 1146,707 1146,707 1147,707 1147,707 1147,707 1148,707 1148,707 1149,707 1149,707 1149,707 1149,706 1150,706 1150,706 1150,706 1151,706 1151,706 1152,706 1152,706 1152,706 1152,706 1153,706 1153,706 1154,706 1154,706 1154,706 1155,706 1155,706 1156,706 1156,707 1156,707 1156,707 1157,707 1157,707 1157,707 1157,707 1158,707 1158,706 1159,706 1159,707 1159,707 1159,707 1160,707 1160,707 1161,707 1161,707 1161,707 1161,707 1162,707 1162,707 1162,707 1163,707 1163,707 1164,707 1164,707 1164,707 1165,707 1165,707 1166,707 1166,707 1166,707 1166,707 1167,707 1167,707 1167,707 1167,707 1168,707 1168,707 1169,707 1169,707 1169,707 1170,707 1170,707 1171,707 1171,707 1171,707 1171,707 1172,707 1172,707 1173,707 1173,707 1173,707 1173,707 1174,707 1174,707 1174,707 1174,707 1175,707 1175,707 1176,707 1176,707 1176,707 1176,707 1177,707 1177,707 1178,707 1178,707 1178,707 1178,707 1179,707 1179,707 1179,707 1179,707 1180,707 1180,707 1181,707 1181,707 1181,707 1182,707 1182,707 1183,707 1183,707 1183,707 1183,707 1184,707 1184,707 1184,707 1184,707 1185,707 1185,707 1186,707 1186,707 1186,707 1186,707 1187,707 1187,707 1188,707 1188,707 1188,707 1188,707 1189,707 1189,707 1190,707 "/>
<polyline fill="none" opacity="1" stroke="#E619C8" stroke-width="2" points="989,738 989,737 990,737 991,736 991,736 992,735 993,735 994,735 994,735 994,735 995,735 996,734 996,734 997,734 997,733 998,733 999,733 999,733 1000,732 1001,732 1001,731 1002,730 1003,730 1004,730 1004,728 1005,727 1006,727 1006,726 1007,725 1008,725 1008,724 1009,724 1009,723 1010,723 1011,723 1011,723 1012,720 1013,719 1013,718 1014,717 1014,716 1015,716 1016,716 1016,716 1017,716 1018,716 1018,716 1019,714 1020,714 1020,714 1021,714 1021,714 1022,714 1023,713 1023,714 1024,713 1025,712 1025,712 1026,712 1026,711 1027,711 1028,710 1028,710 1029,709 1030,707 1030,707 1031,707 1031,706 1032,706 1033,706 1033,706 1034,704 1035,703 1035,702 1036,700 1037,700 1037,699 1038,699 1038,698 1039,698 1040,698 1040,697 1041,697 1042,696 1042,696 1043,695 1043,694 1044,694 1045,692 1045,691 1046,690 1047,690 1047,688 1048,688 1048,688 1049,687 1050,687 1050,685 1051,683 1052,683 1052,682 1053,681 1054,681 1054,681 1055,681 1055,680 1056,679 1057,677 1057,677 1058,676 1059,674 1059,674 1060,673 1060,673 1061,673 1062,672 1062,672 1063,672 1064,671 1064,671 1065,670 1065,670 1066,669 1067,669 1067,669 1068,668 1069,668 1069,667 1070,667 1071,666 1071,667 1072,665 1072,664 1073,664 1074,663 1074,662 1075,662 1076,663 1076,661 1077,660 1077,660 1078,660 1079,659 1079,657 1080,656 1081,655 1081,655 1082,654 1082,654 1082,653 1083,653 1083,653 1084,653 1084,653 1084,651 1085,651 1085,651 1086,650 1086,650 1086,649 1087,649 1087,646 1088,646 1088,646 1088,646 1088,645 1089,645 1089,644 1089,644 1089,643 1090,643 1090,642 1091,642 1091,642 1091,642 1091,641 1092,641 1092,640 1093,639 1093,639 1093,638 1094,638 1094,638 1094,638 1095,638 1095,637 1096,637 1096,637 1096,637 1096,637 1097,637 1097,636 1098,636 1098,636 1098,635 1099,635 1099,635 1099,635 1099,634 1100,634 1100,633 1101,633 1101,632 1101,632 1101,632 1102,632 1102,631 1103,631 1103,631 1103,631 1103,628 1104,628 1104,627 1105,624 1105,624 1105,623 1106,623 1106,621 1106,621 1106,621 1107,621 1107,620 1108,620 1108,618 1108,618 1108,617 1109,617 1109,616 1110,616 1110,616 1110,616 1110,615 1111,615 1111,614 1111,614 1111,613 1112,613 1113,612 1113,612 1113,610 1114,610 1114,609 1115,609 1115,609 1115,609 1115,608 1116,608 1116,608 1116,608 1116,607 1117,607 1117,606 1118,606 1118,605 1118,605 1118,604 1119,602 1120,602 1120,602 1120,602 1120,600 1121,600 1121,598 1122,598 1122,597 1122,597 1122,597 1123,596 1123,596 1123,594 1124,594 1124,592 1125,592 1125,590 1125,590 1125,590 1126,590 1126,590 1127,590 1127,589 1127,589 1127,588 1128,588 1128,587 1128,587 1128,582 1129,582 1129,580 1130,580 1130,579 1130,579 1130,578 1131,578 1131,577 1132,577 1132,577 1132,577 1132,576 1133,576 1133,574 1133,574 1133,572 1134,572 1134,571 1135,570 1135,570 1135,569 1136,569 1136,567 1137,567 1137,567 1137,567 1137,565 1138,565 1138,565 1139,565 1139,564 1139,564 1139,563 1140,563 1140,561 1140,561 1140,560 1141,559 1142,559 1142,559 1142,559 1142,558 1143,558 1143,557 1144,557 1144,555 1144,555 1144,554 1145,552 1145,550 1146,550 1146,549 1147,548 1147,548 1147,547 1148,547 1148,547 1149,547 1149,544 1149,544 1149,543 1150,543 1150,542 1150,542 1150,540 1151,540 1151,540 1152,540 1152,539 1152,539 1152,537 1153,537 1153,537 1154,537 1154,537 1154,536 1155,536 1155,534 1156,534 1156,532 1156,532 1156,532 1157,532 1157,531 1157,531 1157,530 1158,530 1158,529 1159,529 1159,528 1159,528 1159,528 1160,527 1160,527 1161,527 1161,526 1161,526 1161,525 1162,525 1162,525 1162,525 1162,525 1163,525 1163,524 1164,523 1164,523 1164,522 1165,522 1165,520 1166,520 1166,519 1166,519 1166,519 1167,519 1167,518 1167,518 1167,517 1168,517 1168,516 1169,513 1169,513 1169,512 1170,512 1170,511 1171,512 1171,511 1171,511 1171,510 1172,510 1172,510 1173,510 1173,510 1173,510 1173,508 1174,508 1174,508 1174,508 1174,508 1175,508 1175,507 1176,507 1176,506 1176,506 1176,506 1177,506 1177,505 1178,505 1178,504 1178,504 1178,502 1179,502 1179,501 1179,501 1179,500 1180,500 1180,498 1181,498 1181,498 1181,496 1182,496 1182,496 1183,496 1183,494 1183,494 1183,493 1184,493 1184,493 1184,493 1184,490 1185,490 1185,489 1186,489 1186,488 1186,488 1186,487 1187,487 1187,485 1188,485 1188,485 1188,485 1188,482 1189,482 1189,481 1190,481 "/>
<rect x="1078" y="315" width="107" height="119" opacity="1" fill="#FFFFFF" stroke="none"/>
<rect x="1078" y="315" width="107" height="119" opacity="1" fill="none" stroke="#000000"/>
<text x="1118" y="325" dy="0.76em" text-anchor="start" font-family="sans-serif" font-size="9.67741935483871" opacity="1" fill="#000000">
anyhow
</text>
<text x="1118" y="340" dy="0.76em" text-anchor="start" font-family="sans-serif" font-size="9.67741935483871" opacity="1" fill="#000000">
err-derive
</text>
<text x="1118" y="355" dy="0.76em" text-anchor="start" font-family="sans-serif" font-size="9.67741935483871" opacity="1" fill="#000000">
error-chain
</text>
<text x="1118" y="370" dy="0.76em" text-anchor="start" font-family="sans-serif" font-size="9.67741935483871" opacity="1" fill="#000000">
failure
</text>
<text x="1118" y="385" dy="0.76em" text-anchor="start" font-family="sans-serif" font-size="9.67741935483871" opacity="1" fill="#000000">
quick-error
</text>
<text x="1118" y="400" dy="0.76em" text-anchor="start" font-family="sans-serif" font-size="9.67741935483871" opacity="1" fill="#000000">
snafu
</text>
<text x="1118" y="415" dy="0.76em" text-anchor="start" font-family="sans-serif" font-size="9.67741935483871" opacity="1" fill="#000000">
thiserror
</text>
<polyline fill="none" opacity="1" stroke="#E61919" stroke-width="2" points="1088,330 1108,330 "/>
<polyline fill="none" opacity="1" stroke="#E6C819" stroke-width="2" points="1088,344 1108,344 "/>
<polyline fill="none" opacity="1" stroke="#54E619" stroke-width="2" points="1088,359 1108,359 "/>
<polyline fill="none" opacity="1" stroke="#19E68E" stroke-width="2" points="1088,374 1108,374 "/>
<polyline fill="none" opacity="1" stroke="#198EE6" stroke-width="2" points="1088,390 1108,390 "/>
<polyline fill="none" opacity="1" stroke="#5419E6" stroke-width="2" points="1088,404 1108,404 "/>
<polyline fill="none" opacity="1" stroke="#E619C8" stroke-width="2" points="1088,419 1108,419 "/>
</svg>
