<svg width="1200" height="800" xmlns="http://www.w3.org/2000/svg">
<rect x="0" y="0" width="1199" height="799" opacity="1" fill="#FFFFFF" stroke="none"/>
<line opacity="0.1" stroke="#000000" stroke-width="1" x1="60" y1="728" x2="1190" y2="728"/>
<line opacity="0.1" stroke="#000000" stroke-width="1" x1="60" y1="718" x2="1190" y2="718"/>
<line opacity="0.1" stroke="#000000" stroke-width="1" x1="60" y1="707" x2="1190" y2="707"/>
<line opacity="0.1" stroke="#000000" stroke-width="1" x1="60" y1="697" x2="1190" y2="697"/>
<line opacity="0.1" stroke="#000000" stroke-width="1" x1="60" y1="686" x2="1190" y2="686"/>
<line opacity="0.1" stroke="#000000" stroke-width="1" x1="60" y1="676" x2="1190" y2="676"/>
<line opacity="0.1" stroke="#000000" stroke-width="1" x1="60" y1="666" x2="1190" y2="666"/>
<line opacity="0.1" stroke="#000000" stroke-width="1" x1="60" y1="655" x2="1190" y2="655"/>
<line opacity="0.1" stroke="#000000" stroke-width="1" x1="60" y1="645" x2="1190" y2="645"/>
<line opacity="0.1" stroke="#000000" stroke-width="1" x1="60" y1="634" x2="1190" y2="634"/>
<line opacity="0.1" stroke="#000000" stroke-width="1" x1="60" y1="624" x2="1190" y2="624"/>
<line opacity="0.1" stroke="#000000" stroke-width="1" x1="60" y1="613" x2="1190" y2="613"/>
<line opacity="0.1" stroke="#000000" stroke-width="1" x1="60" y1="603" x2="1190" y2="603"/>
<line opacity="0.1" stroke="#000000" stroke-width="1" x1="60" y1="592" x2="1190" y2="592"/>
<line opacity="0.1" stroke="#000000" stroke-width="1" x1="60" y1="582" x2="1190" y2="582"/>
<line opacity="0.1" stroke="#000000" stroke-width="1" x1="60" y1="571" x2="1190" y2="571"/>
<line opacity="0.1" stroke="#000000" stroke-width="1" x1="60" y1="561" x2="1190" y2="561"/>
<line opacity="0.1" stroke="#000000" stroke-width="1" x1="60" y1="550" x2="1190" y2="550"/>
<line opacity="0.1" stroke="#000000" stroke-width="1" x1="60" y1="540" x2="1190" y2="540"/>
<line opacity="0.1" stroke="#000000" stroke-width="1" x1="60" y1="530" x2="1190" y2="530"/>
<line opacity="0.1" stroke="#000000" stroke-width="1" x1="60" y1="519" x2="1190" y2="519"/>
<line opacity="0.1" stroke="#000000" stroke-width="1" x1="60" y1="509" x2="1190" y2="509"/>
<line opacity="0.1" stroke="#000000" stroke-width="1" x1="60" y1="498" x2="1190" y2="498"/>
<line opacity="0.1" stroke="#000000" stroke-width="1" x1="60" y1="488" x2="1190" y2="488"/>
<line opacity="0.1" stroke="#000000" stroke-width="1" x1="60" y1="477" x2="1190" y2="477"/>
<line opacity="0.1" stroke="#000000" stroke-width="1" x1="60" y1="467" x2="1190" y2="467"/>
<line opacity="0.1" stroke="#000000" stroke-width="1" x1="60" y1="456" x2="1190" y2="456"/>
<line opacity="0.1" stroke="#000000" stroke-width="1" x1="60" y1="446" x2="1190" y2="446"/>
<line opacity="0.1" stroke="#000000" stroke-width="1" x1="60" y1="435" x2="1190" y2="435"/>
<line opacity="0.1" stroke="#000000" stroke-width="1" x1="60" y1="425" x2="1190" y2="425"/>
<line opacity="0.1" stroke="#000000" stroke-width="1" x1="60" y1="414" x2="1190" y2="414"/>
<line opacity="0.1" stroke="#000000" stroke-width="1" x1="60" y1="404" x2="1190" y2="404"/>
<line opacity="0.1" stroke="#000000" stroke-width="1" x1="60" y1="393" x2="1190" y2="393"/>
<line opacity="0.1" stroke="#000000" stroke-width="1" x1="60" y1="383" x2="1190" y2="383"/>
<line opacity="0.1" stroke="#000000" stroke-width="1" x1="60" y1="373" x2="1190" y2="373"/>
<line opacity="0.1" stroke="#000000" stroke-width="1" x1="60" y1="362" x2="1190" y2="362"/>
<line opacity="0.1" stroke="#000000" stroke-width="1" x1="60" y1="352" x2="1190" y2="352"/>
<line opacity="0.1" stroke="#000000" stroke-width="1" x1="60" y1="341" x2="1190" y2="341"/>
<line opacity="0.1" stroke="#000000" stroke-width="1" x1="60" y1="331" x2="1190" y2="331"/>
<line opacity="0.1" stroke="#000000" stroke-width="1" x1="60" y1="320" x2="1190" y2="320"/>
<line opacity="0.1" stroke="#000000" stroke-width="1" x1="60" y1="310" x2="1190" y2="310"/>
<line opacity="0.1" stroke="#000000" stroke-width="1" x1="60" y1="299" x2="1190" y2="299"/>
<line opacity="0.1" stroke="#000000" stroke-width="1" x1="60" y1="289" x2="1190" y2="289"/>
<line opacity="0.1" stroke="#000000" stroke-width="1" x1="60" y1="278" x2="1190" y2="278"/>
<line opacity="0.1" stroke="#000000" stroke-width="1" x1="60" y1="268" x2="1190" y2="268"/>
<line opacity="0.1" stroke="#000000" stroke-width="1" x1="60" y1="257" x2="1190" y2="257"/>
<line opacity="0.1" stroke="#000000" stroke-width="1" x1="60" y1="247" x2="1190" y2="247"/>
<line opacity="0.1" stroke="#000000" stroke-width="1" x1="60" y1="236" x2="1190" y2="236"/>
<line opacity="0.1" stroke="#000000" stroke-width="1" x1="60" y1="226" x2="1190" y2="226"/>
<line opacity="0.1" stroke="#000000" stroke-width="1" x1="60" y1="216" x2="1190" y2="216"/>
<line opacity="0.1" stroke="#000000" stroke-width="1" x1="60" y1="205" x2="1190" y2="205"/>
<line opacity="0.1" stroke="#000000" stroke-width="1" x1="60" y1="195" x2="1190" y2="195"/>
<line opacity="0.1" stroke="#000000" stroke-width="1" x1="60" y1="184" x2="1190" y2="184"/>
<line opacity="0.1" stroke="#000000" stroke-width="1" x1="60" y1="174" x2="1190" y2="174"/>
<line opacity="0.1" stroke="#000000" stroke-width="1" x1="60" y1="163" x2="1190" y2="163"/>
<line opacity="0.1" stroke="#000000" stroke-width="1" x1="60" y1="153" x2="1190" y2="153"/>
<line opacity="0.1" stroke="#000000" stroke-width="1" x1="60" y1="142" x2="1190" y2="142"/>
<line opacity="0.1" stroke="#000000" stroke-width="1" x1="60" y1="132" x2="1190" y2="132"/>
<line opacity="0.1" stroke="#000000" stroke-width="1" x1="60" y1="121" x2="1190" y2="121"/>
<line opacity="0.1" stroke="#000000" stroke-width="1" x1="60" y1="111" x2="1190" y2="111"/>
<line opacity="0.1" stroke="#000000" stroke-width="1" x1="60" y1="100" x2="1190" y2="100"/>
<line opacity="0.1" stroke="#000000" stroke-width="1" x1="60" y1="90" x2="1190" y2="90"/>
<line opacity="0.1" stroke="#000000" stroke-width="1" x1="60" y1="80" x2="1190" y2="80"/>
<line opacity="0.1" stroke="#000000" stroke-width="1" x1="60" y1="69" x2="1190" y2="69"/>
<line opacity="0.1" stroke="#000000" stroke-width="1" x1="60" y1="59" x2="1190" y2="59"/>
<line opacity="0.1" stroke="#000000" stroke-width="1" x1="60" y1="48" x2="1190" y2="48"/>
<line opacity="0.1" stroke="#000000" stroke-width="1" x1="60" y1="38" x2="1190" y2="38"/>
<line opacity="0.1" stroke="#000000" stroke-width="1" x1="60" y1="27" x2="1190" y2="27"/>
<line opacity="0.1" stroke="#000000" stroke-width="1" x1="60" y1="17" x2="1190" y2="17"/>
<text x="10" y="375" dy="0.76em" text-anchor="middle" font-family="sans-serif" font-size="9.67741935483871" opacity="1" fill="#000000" transform="rotate(270, 10, 375)">
Fraction of dependent crates
</text>
<line opacity="0.2" stroke="#000000" stroke-width="1" x1="60" y1="634" x2="1190" y2="634"/>
<line opacity="0.2" stroke="#000000" stroke-width="1" x1="60" y1="530" x2="1190" y2="530"/>
<line opacity="0.2" stroke="#000000" stroke-width="1" x1="60" y1="425" x2="1190" y2="425"/>
<line opacity="0.2" stroke="#000000" stroke-width="1" x1="60" y1="320" x2="1190" y2="320"/>
<line opacity="0.2" stroke="#000000" stroke-width="1" x1="60" y1="216" x2="1190" y2="216"/>
<polyline fill="none" opacity="1" stroke="#000000" stroke-width="1" points="59,10 59,740 "/>
<text x="50" y="634" dy="0.5ex" text-anchor="end" font-family="sans-serif" font-size="9.67741935483871" opacity="1" fill="#000000">
0.01
</text>
<polyline fill="none" opacity="1" stroke="#000000" stroke-width="1" points="54,634 59,634 "/>
<text x="50" y="530" dy="0.5ex" text-anchor="end" font-family="sans-serif" font-size="9.67741935483871" opacity="1" fill="#000000">
0.02
</text>
<polyline fill="none" opacity="1" stroke="#000000" stroke-width="1" points="54,530 59,530 "/>
<text x="50" y="425" dy="0.5ex" text-anchor="end" font-family="sans-serif" font-size="9.67741935483871" opacity="1" fill="#000000">
0.03
</text>
<polyline fill="none" opacity="1" stroke="#000000" stroke-width="1" points="54,425 59,425 "/>
<text x="50" y="320" dy="0.5ex" text-anchor="end" font-family="sans-serif" font-size="9.67741935483871" opacity="1" fill="#000000">
0.04
</text>
<polyline fill="none" opacity="1" stroke="#000000" stroke-width="1" points="54,320 59,320 "/>
<text x="50" y="216" dy="0.5ex" text-anchor="end" font-family="sans-serif" font-size="9.67741935483871" opacity="1" fill="#000000">
0.05
</text>
<polyline fill="none" opacity="1" stroke="#000000" stroke-width="1" points="54,216 59,216 "/>
<polyline fill="none" opacity="1" stroke="#000000" stroke-width="1" points="60,740 1190,740 "/>
<text x="60" y="750" dy="0.76em" text-anchor="middle" font-family="sans-serif" font-size="9.67741935483871" opacity="1" fill="#000000">
2015-09-24Z
</text>
<polyline fill="none" opacity="1" stroke="#000000" stroke-width="1" points="60,740 60,745 "/>
<text x="173" y="750" dy="0.76em" text-anchor="middle" font-family="sans-serif" font-size="9.67741935483871" opacity="1" fill="#000000">
2016-03-17Z
</text>
<polyline fill="none" opacity="1" stroke="#000000" stroke-width="1" points="173,740 173,745 "/>
<text x="287" y="750" dy="0.76em" text-anchor="middle" font-family="sans-serif" font-size="9.67741935483871" opacity="1" fill="#000000">
2016-09-08Z
</text>
<polyline fill="none" opacity="1" stroke="#000000" stroke-width="1" points="287,740 287,745 "/>
<text x="401" y="750" dy="0.76em" text-anchor="middle" font-family="sans-serif" font-size="9.67741935483871" opacity="1" fill="#000000">
2017-03-02Z
</text>
<polyline fill="none" opacity="1" stroke="#000000" stroke-width="1" points="401,740 401,745 "/>
<text x="514" y="750" dy="0.76em" text-anchor="middle" font-family="sans-serif" font-size="9.67741935483871" opacity="1" fill="#000000">
2017-08-24Z
</text>
<polyline fill="none" opacity="1" stroke="#000000" stroke-width="1" points="514,740 514,745 "/>
<text x="628" y="750" dy="0.76em" text-anchor="middle" font-family="sans-serif" font-size="9.67741935483871" opacity="1" fill="#000000">
2018-02-15Z
</text>
<polyline fill="none" opacity="1" stroke="#000000" stroke-width="1" points="628,740 628,745 "/>
<text x="742" y="750" dy="0.76em" text-anchor="middle" font-family="sans-serif" font-size="9.67741935483871" opacity="1" fill="#000000">
2018-08-09Z
</text>
<polyline fill="none" opacity="1" stroke="#000000" stroke-width="1" points="742,740 742,745 "/>
<text x="856" y="750" dy="0.76em" text-anchor="middle" font-family="sans-serif" font-size="9.67741935483871" opacity="1" fill="#000000">
2019-01-31Z
</text>
<polyline fill="none" opacity="1" stroke="#000000" stroke-width="1" points="856,740 856,745 "/>
<text x="969" y="750" dy="0.76em" text-anchor="middle" font-family="sans-serif" font-size="9.67741935483871" opacity="1" fill="#000000">
2019-07-25Z
</text>
<polyline fill="none" opacity="1" stroke="#000000" stroke-width="1" points="969,740 969,745 "/>
<text x="1083" y="750" dy="0.76em" text-anchor="middle" font-family="sans-serif" font-size="9.67741935483871" opacity="1" fill="#000000">
2020-01-16Z
</text>
<polyline fill="none" opacity="1" stroke="#000000" stroke-width="1" points="1083,740 1083,745 "/>
<polyline fill="none" opacity="1" stroke="#E61919" stroke-width="2" points="1017,738 1019,738 1019,738 1020,738 1021,738 1021,738 1023,738 1023,737 1024,737 1024,737 1024,737 1025,737 1026,736 1026,735 1027,735 1028,735 1028,735 1029,734 1030,734 1030,733 1031,733 1032,733 1032,732 1034,732 1034,732 1035,731 1035,730 1036,729 1037,727 1037,723 1038,723 1039,723 1039,723 1040,722 1041,722 1041,722 1042,720 1043,717 1043,716 1044,716 1045,715 1045,715 1046,714 1047,714 1047,713 1048,713 1048,711 1049,711 1050,710 1050,710 1051,710 1052,710 1052,709 1053,709 1054,707 1054,707 1055,706 1056,706 1056,706 1057,706 1058,706 1058,704 1059,704 1060,704 1060,704 1061,703 1061,703 1062,702 1063,703 1063,702 1064,702 1065,701 1065,701 1066,701 1067,700 1067,700 1068,699 1069,699 1069,698 1070,698 1071,697 1071,697 1072,696 1073,695 1073,695 1074,693 1074,692 1075,692 1076,691 1076,691 1077,690 1078,688 1078,687 1079,686 1080,686 1080,685 1081,683 1082,682 1082,681 1083,681 1084,681 1084,680 1085,680 1086,680 1086,680 1087,679 1087,679 1088,676 1089,675 1089,675 1090,675 1091,674 1091,674 1092,673 1093,673 1093,673 1094,673 1095,671 1095,670 1096,669 1097,669 1097,668 1098,667 1099,667 1099,666 1100,666 1100,666 1101,666 1102,665 1102,665 1103,664 1104,664 1104,662 1105,662 1106,662 1106,662 1107,662 1108,662 1108,661 1109,661 1110,660 1110,659 1111,659 1112,659 1112,658 1113,657 1113,657 1114,656 1115,657 1115,656 1115,656 1116,656 1116,656 1117,655 1117,655 1117,654 1118,654 1118,654 1119,653 1119,653 1119,651 1120,651 1120,647 1121,647 1121,646 1121,646 1121,645 1122,645 1122,645 1123,645 1123,644 1123,644 1123,643 1124,643 1124,643 1125,643 1125,642 1125,642 1125,642 1126,641 1126,641 1126,640 1127,640 1128,640 1128,639 1128,639 1128,638 1129,638 1129,637 1130,637 1130,637 1130,637 1130,636 1131,636 1131,636 1132,636 1132,636 1132,635 1133,635 1133,635 1134,635 1134,634 1134,634 1134,633 1135,633 1135,633 1136,633 1136,632 1136,632 1136,631 1137,631 1137,629 1138,629 1138,627 1138,625 1139,625 1139,624 1139,624 1139,623 1140,623 1140,622 1141,622 1141,621 1141,621 1141,621 1142,621 1142,620 1143,620 1143,619 1143,619 1143,617 1144,617 1144,617 1145,617 1145,615 1145,615 1145,614 1146,614 1147,613 1147,613 1147,613 1148,613 1148,612 1149,612 1149,610 1149,610 1149,610 1150,610 1150,610 1151,610 1151,610 1151,610 1151,609 1152,609 1152,609 1152,609 1152,608 1153,607 1154,607 1154,605 1154,605 1154,604 1155,604 1155,603 1156,603 1156,601 1156,601 1156,599 1157,599 1158,599 1158,599 1158,599 1158,598 1159,598 1159,596 1160,596 1160,594 1160,594 1160,593 1161,593 1161,593 1162,593 1162,592 1162,592 1162,591 1163,591 1163,587 1164,587 1164,585 1164,585 1164,582 1165,582 1165,581 1165,581 1165,580 1166,580 1166,579 1167,579 1167,578 1167,578 1167,576 1168,576 1168,576 1169,576 1169,575 1169,574 1170,574 1170,572 1171,572 1171,570 1171,570 1171,569 1172,569 1172,567 1173,567 1173,567 1173,567 1173,566 1174,566 1174,565 1175,565 1175,564 1175,564 1175,562 1176,561 1177,561 1177,558 1177,558 1177,557 1178,557 1178,556 1178,556 1178,555 1179,555 1179,554 1180,552 1180,551 1181,551 1181,550 1182,549 1182,549 1182,549 1183,549 1183,548 1184,548 1184,547 1184,547 1184,546 1185,546 1185,545 1186,545 1186,545 1186,545 1186,544 1187,544 1187,544 1188,544 1188,544 1188,544 1188,543 1189,542 1190,542 "/>
<polyline fill="none" opacity="1" stroke="#E6C819" stroke-width="2" points="834,738 841,738 846,737 849,736 872,736 878,736 893,735 894,734 897,734 899,734 902,733 903,733 904,733 905,733 906,733 906,733 910,733 911,733 911,733 912,732 915,732 915,732 916,732 917,732 917,732 919,732 919,732 920,732 920,732 921,732 922,731 922,731 924,732 925,732 927,732 928,732 928,732 929,732 930,732 931,732 932,732 932,732 933,732 934,732 935,732 936,732 937,731 937,731 939,731 940,731 941,731 942,731 943,731 944,730 945,730 945,730 946,730 946,730 947,729 948,729 948,729 949,729 950,729 950,729 951,729 952,729 952,729 953,729 954,728 954,728 955,728 956,728 956,728 957,729 958,729 958,729 959,729 959,729 960,729 961,729 962,728 963,728 963,727 964,727 965,728 965,728 966,728 967,728 967,728 968,728 969,728 970,728 971,728 971,727 972,727 972,727 973,727 974,727 975,727 976,727 976,727 977,727 978,727 978,727 979,727 980,727 980,727 981,727 982,727 982,727 983,727 984,727 984,727 985,727 985,727 986,727 987,727 988,727 989,727 989,727 990,727 991,727 991,727 992,726 993,726 993,726 994,725 995,725 995,725 996,725 997,725 997,725 998,725 998,725 999,725 1000,725 1000,725 1001,725 1002,725 1002,725 1003,725 1004,725 1004,725 1005,725 1006,725 1006,725 1007,725 1008,725 1008,725 1009,725 1010,725 1011,725 1011,725 1013,725 1013,724 1014,724 1015,724 1015,723 1017,723 1017,723 1018,723 1019,723 1019,723 1020,723 1021,724 1022,724 1023,723 1023,723 1024,723 1024,723 1024,723 1025,723 1026,723 1026,723 1027,723 1028,723 1029,723 1030,723 1030,723 1031,723 1032,724 1032,724 1033,724 1034,724 1034,724 1035,724 1035,724 1036,724 1037,724 1037,724 1038,724 1039,723 1039,723 1040,723 1041,723 1041,723 1043,723 1043,723 1044,723 1045,723 1045,724 1046,724 1047,724 1047,724 1048,724 1048,724 1049,724 1050,724 1050,724 1051,724 1052,724 1052,724 1054,724 1054,724 1055,724 1056,724 1056,724 1057,723 1058,724 1058,724 1059,724 1060,724 1060,724 1061,724 1061,724 1062,724 1063,724 1063,724 1064,724 1065,724 1065,724 1066,724 1067,724 1068,724 1069,724 1069,724 1070,724 1071,724 1071,724 1072,724 1073,724 1073,724 1074,724 1074,724 1075,724 1076,724 1077,724 1078,724 1078,724 1079,724 1080,724 1080,724 1081,724 1082,724 1082,724 1083,724 1084,724 1084,724 1085,724 1086,724 1086,724 1087,724 1087,724 1088,724 1089,724 1089,724 1090,724 1091,724 1091,724 1092,724 1093,724 1093,724 1094,724 1095,724 1095,723 1096,723 1097,723 1097,722 1098,722 1099,722 1099,722 1100,722 1100,722 1101,723 1102,723 1102,723 1103,722 1104,722 1104,722 1105,722 1106,722 1106,722 1107,722 1108,722 1109,722 1110,722 1110,722 1111,722 1112,722 1112,722 1113,722 1113,722 1114,722 1115,722 1115,722 1115,722 1116,722 1116,722 1117,722 1117,722 1117,722 1118,722 1118,722 1119,722 1119,722 1119,722 1120,722 1120,722 1121,722 1121,723 1121,723 1121,723 1122,723 1122,723 1123,723 1123,723 1123,723 1123,723 1124,723 1124,723 1125,723 1125,723 1125,723 1125,722 1126,722 1126,722 1126,722 1127,722 1128,722 1128,722 1128,722 1128,722 1129,722 1129,722 1130,722 1130,722 1130,722 1130,722 1131,722 1131,722 1132,722 1132,722 1132,722 1133,722 1133,722 1134,722 1134,722 1134,722 1134,722 1135,722 1135,722 1136,722 1136,722 1136,722 1136,722 1137,722 1137,722 1138,722 1138,722 1138,722 1139,722 1139,722 1139,722 1139,722 1140,722 1140,722 1141,722 1141,722 1141,722 1141,722 1142,722 1142,722 1143,722 1143,722 1143,722 1143,722 1144,722 1144,722 1145,722 1145,722 1145,722 1145,722 1146,722 1147,722 1147,722 1147,722 1148,722 1148,722 1149,722 1149,722 1149,722 1149,722 1150,722 1150,722 1151,722 1151,722 1151,722 1151,722 1152,722 1152,722 1152,722 1152,722 1153,722 1154,722 1154,722 1154,722 1154,722 1155,722 1155,722 1156,722 1156,722 1156,722 1157,722 1158,722 1158,722 1158,722 1158,722 1159,722 1159,722 1160,722 1160,722 1160,722 1160,722 1161,722 1161,722 1162,722 1162,722 1162,722 1162,722 1163,722 1163,722 1164,722 1164,722 1164,722 1164,722 1165,722 1165,722 1165,722 1165,722 1166,722 1166,722 1167,722 1167,722 1167,722 1167,722 1168,722 1168,722 1169,722 1169,722 1169,722 1170,722 1170,722 1171,722 1171,722 1171,722 1171,722 1172,722 1172,722 1173,722 1173,722 1173,722 1173,722 1174,722 1174,722 1175,722 1175,722 1175,722 1175,722 1176,723 1177,723 1177,723 1177,723 1177,723 1178,723 1178,723 1178,723 1178,723 1179,723 1179,723 1180,723 1180,723 1181,723 1181,723 1182,723 1182,723 1182,723 1183,723 1183,723 1184,723 1184,723 1184,723 1184,723 1185,723 1185,723 1186,723 1186,723 1186,723 1186,723 1187,723 1187,723 1188,723 1188,723 1188,723 1188,723 1189,723 1190,723 "/>
<polyline fill="none" opacity="1" stroke="#54E619" stroke-width="2" points="236,737 236,733 241,735 247,733 254,731 254,729 255,727 260,726 272,724 273,724 274,721 278,719 280,716 281,714 282,714 283,712 286,711 288,713 290,710 290,705 292,703 293,702 297,700 299,699 300,699 302,691 303,686 304,683 304,681 308,681 310,679 310,678 312,676 313,675 314,675 314,673 315,674 316,674 316,674 317,673 318,673 319,673 319,673 320,673 321,671 321,670 322,670 323,669 323,667 324,667 325,664 325,663 326,661 327,657 327,656 329,654 329,653 330,653 331,650 335,651 336,650 336,648 337,647 338,645 339,644 340,643 340,641 341,637 342,633 343,632 344,626 345,625 345,623 346,622 347,622 348,619 349,618 349,617 351,616 351,614 352,612 353,611 353,603 354,600 355,596 355,586 356,585 356,584 357,584 358,583 358,582 359,577 360,574 360,575 361,569 362,567 363,567 364,566 364,565 365,566 366,566 366,566 367,562 368,562 368,561 369,560 369,553 370,554 371,554 371,555 372,555 373,555 374,553 375,553 377,553 377,551 378,548 379,549 379,548 380,548 381,549 381,548 382,548 382,548 383,547 384,548 384,544 385,544 386,542 386,540 387,538 388,539 388,539 389,536 390,532 390,530 392,530 392,527 393,523 393,523 394,523 395,523 395,524 396,523 397,522 397,521 398,521 399,522 399,518 400,519 401,519 401,517 402,517 403,515 403,513 404,511 405,511 405,509 406,509 406,507 407,504 408,504 408,505 409,505 410,504 410,503 411,497 412,496 412,492 413,491 414,492 414,492 415,490 416,489 416,485 417,483 418,482 418,481 419,479 419,479 420,479 421,479 421,479 422,478 423,479 423,479 424,480 425,477 425,478 426,478 427,478 427,476 428,475 429,473 429,472 430,470 431,469 431,468 432,467 432,464 433,463 434,463 434,462 435,463 436,464 436,462 437,461 438,461 438,457 439,454 440,452 440,450 441,448 442,449 442,446 443,446 444,445 444,444 445,444 445,441 446,441 447,441 447,438 448,437 449,436 449,431 450,427 451,427 451,427 452,429 453,425 453,421 454,420 455,421 455,420 456,419 457,419 457,420 458,419 458,421 459,417 460,414 460,413 461,413 462,413 462,414 463,414 464,413 464,414 465,412 466,412 466,412 467,412 468,410 468,407 469,407 470,406 470,405 471,401 471,401 472,401 473,400 473,399 474,398 475,398 475,396 476,396 477,394 477,394 478,393 479,392 479,391 480,390 481,390 481,391 482,389 483,390 483,391 484,390 484,389 485,388 486,387 486,386 487,387 488,384 488,383 489,377 490,377 490,378 491,374 492,371 492,369 493,367 494,366 494,366 495,364 496,361 496,360 497,360 497,358 498,358 499,356 499,356 500,356 501,356 501,355 502,354 503,353 503,352 504,354 505,353 505,352 506,351 507,350 507,349 508,348 509,345 509,345 510,346 510,346 511,343 512,342 512,340 513,338 514,338 514,337 515,337 516,334 516,334 517,334 518,330 518,329 519,329 520,327 520,323 521,322 522,322 522,322 523,321 523,318 524,317 525,315 525,316 526,316 527,315 527,315 528,314 529,313 529,313 530,315 531,315 531,315 532,316 533,316 533,316 534,316 535,296 535,295 536,294 536,295 537,293 538,290 538,289 539,288 540,288 540,287 541,287 542,286 542,284 543,286 544,285 544,284 545,282 546,281 546,281 547,279 547,278 548,277 549,278 549,278 550,279 551,279 551,279 552,278 553,279 553,280 554,280 555,281 555,281 556,281 557,280 557,279 558,280 559,280 559,280 560,280 560,280 561,280 562,281 562,280 563,276 564,275 564,273 565,273 566,273 566,273 567,274 568,271 568,268 569,269 570,270 570,270 571,270 572,270 572,270 573,270 573,270 574,269 575,269 575,271 576,271 577,271 577,270 578,268 579,268 579,268 580,268 581,266 581,267 582,264 583,263 583,263 584,264 585,263 585,264 586,266 586,267 587,269 588,267 588,267 589,266 590,265 590,265 591,264 592,265 592,264 593,263 594,261 594,260 595,261 596,261 596,258 597,256 598,255 598,255 599,254 599,254 600,254 601,254 601,256 602,254 603,254 603,254 604,255 605,256 605,256 606,254 607,255 607,256 608,256 609,257 609,257 610,257 611,256 611,255 612,256 612,257 613,258 614,259 614,259 615,260 616,260 616,261 617,265 618,265 618,265 619,266 620,266 620,265 621,266 622,266 622,267 623,267 624,267 624,267 625,267 625,267 626,268 627,268 627,267 628,266 629,267 629,268 630,269 631,269 631,269 632,271 633,271 633,271 634,272 635,273 635,274 636,275 637,277 637,277 638,278 638,283 639,284 640,285 640,286 641,285 642,286 642,286 643,287 644,288 644,285 645,285 646,285 646,286 647,287 648,288 648,289 649,290 650,290 650,289 651,289 651,290 652,291 653,291 653,292 654,293 655,295 655,295 656,294 657,295 657,295 658,294 659,294 659,294 660,295 661,297 661,297 662,298 663,298 663,299 664,300 664,300 665,300 666,300 666,301 667,303 668,304 668,303 669,303 670,304 670,305 671,304 672,305 672,304 673,305 674,306 674,307 675,307 676,306 676,306 677,306 677,307 678,308 679,309 679,308 680,309 681,308 681,309 682,309 683,310 683,311 684,312 685,313 685,313 686,314 687,313 687,313 688,311 689,312 689,312 690,312 690,312 691,313 692,316 692,316 693,317 694,318 694,320 695,320 696,321 696,321 697,321 698,321 698,321 699,320 700,320 700,322 701,322 702,321 702,321 703,322 703,323 704,323 705,323 705,323 706,323 707,324 707,324 708,325 709,325 709,326 710,325 711,326 711,326 712,327 713,328 713,328 714,329 714,329 715,330 716,330 716,330 717,330 718,330 718,331 719,331 720,331 720,331 721,332 722,332 722,332 723,332 724,332 724,333 725,333 726,334 726,331 727,332 727,332 728,331 729,332 729,332 730,335 731,336 731,336 732,336 733,337 733,337 734,338 735,338 735,339 736,340 737,341 737,341 738,342 739,344 739,345 740,345 740,347 741,347 742,347 742,347 743,348 744,348 744,350 745,350 746,351 746,352 747,351 748,353 748,353 749,354 750,354 750,353 751,352 752,352 752,355 753,355 753,356 754,356 755,356 755,359 756,359 757,360 757,360 758,360 759,360 759,360 760,360 761,360 761,361 762,361 763,362 763,363 764,363 765,363 765,364 766,364 766,364 767,365 768,365 768,365 769,365 770,365 770,366 771,366 772,366 772,366 773,367 773,367 774,366 774,367 775,366 776,367 776,368 777,369 778,371 778,373 779,372 779,372 780,372 781,372 781,372 782,373 783,373 783,374 784,375 785,376 785,379 786,376 787,377 787,377 788,379 789,379 789,379 790,380 791,380 791,381 792,381 792,382 793,382 794,382 794,382 795,382 796,383 796,384 797,383 798,383 798,383 799,384 800,384 800,384 801,385 802,387 802,400 803,401 804,402 804,402 805,402 805,403 806,402 807,402 807,403 808,404 809,403 809,404 810,404 811,404 811,404 812,405 813,405 813,405 814,406 815,406 815,407 816,407 817,407 817,408 818,407 818,408 819,408 820,409 820,410 821,411 822,411 822,411 823,412 824,412 824,413 825,413 826,413 826,414 827,415 828,415 828,415 829,416 830,416 830,417 831,417 831,418 832,418 833,419 833,419 834,420 835,419 835,420 836,420 837,422 837,422 838,423 839,424 839,425 840,426 841,438 841,438 842,438 843,426 843,427 844,427 844,427 845,429 846,429 846,429 847,430 848,429 848,430 849,430 850,429 850,430 851,430 852,431 852,431 853,431 854,430 854,431 855,431 856,431 856,432 857,432 857,433 858,434 859,434 859,436 860,436 861,437 861,437 862,437 863,438 863,438 864,439 865,440 865,439 866,439 867,440 867,440 868,440 868,439 869,440 870,440 870,440 871,441 872,441 872,442 873,442 874,443 874,443 875,443 876,444 876,445 877,445 878,446 878,446 879,446 880,446 880,447 881,447 881,448 882,448 883,449 883,449 884,450 885,450 885,451 886,451 887,451 887,451 888,452 889,453 889,453 890,453 891,454 891,454 892,454 893,455 893,455 894,455 894,456 895,456 896,457 896,457 897,458 898,456 898,456 899,456 900,457 900,458 901,458 902,458 902,459 903,459 904,459 904,460 905,460 906,461 906,461 907,461 907,461 908,462 909,462 909,463 910,463 911,464 911,464 912,464 913,464 913,465 914,465 915,465 915,466 916,467 917,468 917,468 918,468 919,469 919,469 920,470 920,470 921,471 922,472 922,471 923,472 924,472 924,472 925,473 926,473 926,474 927,474 928,474 928,474 929,475 930,475 930,476 931,475 932,476 932,475 933,475 933,475 934,475 935,475 935,476 936,476 937,477 937,477 938,477 939,478 939,478 940,478 941,478 941,479 942,479 943,479 943,480 944,481 945,481 945,481 946,482 946,482 947,482 948,482 948,483 949,483 950,483 950,484 951,484 952,484 952,484 953,485 954,485 954,486 955,486 956,486 956,486 957,486 958,486 958,487 959,487 959,487 960,487 961,487 961,488 962,487 963,488 963,488 964,488 965,489 965,489 966,490 967,490 967,490 968,490 969,491 969,491 970,491 971,491 971,492 972,492 972,492 973,492 974,493 974,493 975,493 976,493 976,493 977,493 978,493 978,494 979,494 980,494 980,494 981,495 982,496 982,496 983,497 984,497 984,497 985,497 985,497 986,497 987,498 987,498 988,498 989,499 989,499 990,499 991,499 991,500 992,500 993,500 993,500 994,500 995,501 995,501 996,502 997,502 997,502 998,502 998,503 999,503 1000,504 1000,504 1001,504 1002,504 1002,505 1003,505 1004,505 1004,505 1005,506 1006,506 1006,506 1007,506 1008,507 1008,505 1009,506 1010,506 1010,506 1011,506 1011,506 1012,507 1013,507 1013,507 1014,507 1015,507 1015,508 1016,508 1017,508 1017,508 1018,508 1019,509 1019,509 1020,508 1021,509 1021,509 1022,510 1023,511 1023,511 1024,511 1024,511 1024,512 1025,512 1026,512 1026,512 1027,513 1028,513 1028,513 1029,513 1030,513 1030,514 1031,514 1032,515 1032,515 1033,515 1034,515 1034,515 1035,516 1035,515 1036,516 1037,516 1037,516 1038,516 1039,516 1039,516 1040,516 1041,516 1041,516 1042,516 1043,516 1043,517 1044,517 1045,518 1045,518 1046,519 1047,519 1047,519 1048,519 1048,520 1049,520 1050,520 1050,521 1051,521 1052,521 1052,521 1053,521 1054,521 1054,522 1055,522 1056,522 1056,522 1057,522 1058,523 1058,523 1059,523 1060,524 1060,524 1061,524 1061,524 1062,525 1063,525 1063,526 1064,526 1065,526 1065,526 1066,526 1067,526 1067,527 1068,527 1069,527 1069,527 1070,527 1071,528 1071,528 1072,528 1073,528 1073,528 1074,529 1074,529 1075,530 1076,530 1076,530 1077,531 1078,531 1078,532 1079,532 1080,533 1080,533 1081,533 1082,533 1082,533 1083,535 1084,535 1084,535 1085,536 1086,537 1086,537 1087,537 1087,537 1088,538 1089,538 1089,538 1090,539 1091,539 1091,539 1092,539 1093,539 1093,539 1094,539 1095,540 1095,540 1096,540 1097,541 1097,541 1098,542 1099,541 1099,541 1100,541 1100,541 1101,541 1102,542 1102,542 1103,542 1104,542 1104,543 1105,543 1106,544 1106,544 1107,543 1108,544 1108,544 1109,544 1110,544 1110,545 1111,545 1112,545 1112,545 1113,545 1113,546 1114,546 1115,546 1115,546 1115,546 1116,546 1116,547 1117,547 1117,547 1117,547 1118,547 1118,548 1119,548 1119,548 1119,548 1120,548 1120,549 1121,549 1121,549 1121,549 1121,549 1122,549 1122,549 1123,549 1123,549 1123,549 1123,550 1124,550 1124,550 1125,550 1125,550 1125,550 1125,551 1126,551 1126,551 1126,552 1127,552 1128,552 1128,552 1128,552 1128,553 1129,553 1129,553 1130,553 1130,553 1130,553 1130,553 1131,553 1131,553 1132,553 1132,553 1132,553 1133,553 1133,553 1134,553 1134,554 1134,554 1134,554 1135,554 1135,554 1136,554 1136,555 1136,555 1136,555 1137,555 1137,555 1138,555 1138,556 1138,556 1139,556 1139,556 1139,556 1139,556 1140,556 1140,557 1141,557 1141,557 1141,557 1141,557 1142,557 1142,557 1143,557 1143,558 1143,558 1143,558 1144,558 1144,558 1145,558 1145,558 1145,558 1145,558 1146,558 1147,558 1147,558 1147,559 1148,559 1148,559 1149,559 1149,559 1149,559 1149,560 1150,560 1150,560 1151,560 1151,560 1151,560 1151,561 1152,561 1152,561 1152,561 1152,561 1153,561 1154,561 1154,561 1154,561 1154,561 1155,561 1155,562 1156,562 1156,561 1156,561 1156,562 1157,562 1158,562 1158,562 1158,562 1158,563 1159,563 1159,563 1160,563 1160,562 1160,562 1160,563 1161,563 1161,563 1162,563 1162,563 1162,563 1162,564 1163,564 1163,564 1164,564 1164,564 1164,564 1164,564 1165,564 1165,564 1165,564 1165,565 1166,565 1166,565 1167,565 1167,565 1167,565 1167,566 1168,566 1168,565 1169,565 1169,565 1169,566 1170,566 1170,566 1171,566 1171,566 1171,566 1171,566 1172,566 1172,567 1173,567 1173,567 1173,567 1173,567 1174,567 1174,567 1175,567 1175,568 1175,568 1175,568 1176,568 1177,568 1177,568 1177,568 1177,568 1178,568 1178,569 1178,569 1178,570 1179,570 1179,570 1180,570 1180,570 1181,570 1181,570 1182,570 1182,570 1182,570 1183,570 1183,570 1184,570 1184,570 1184,570 1184,570 1185,570 1185,570 1186,570 1186,570 1186,570 1186,571 1187,571 1187,570 1188,570 1188,570 1188,570 1188,571 1189,571 1190,571 "/>
<polyline fill="none" opacity="1" stroke="#19E68E" stroke-width="2" points="569,738 570,737 571,736 572,734 573,732 573,731 575,730 575,729 576,725 577,725 577,723 578,720 579,719 579,718 580,717 581,716 581,714 582,713 585,712 585,710 586,707 586,706 587,704 588,704 588,701 591,699 592,696 592,695 594,694 594,694 595,693 596,690 597,689 598,688 598,685 599,684 599,684 600,683 601,682 601,680 603,678 603,673 604,672 605,672 605,671 606,670 607,669 607,668 608,668 609,664 609,665 610,665 611,664 611,663 612,660 612,660 613,659 614,658 614,655 615,654 616,652 616,650 617,648 618,645 618,644 619,643 620,640 620,640 621,638 622,637 622,636 623,635 624,630 624,628 625,629 625,629 626,628 627,628 627,628 628,627 629,627 629,626 630,624 631,621 631,620 632,617 633,615 633,612 634,610 635,608 635,606 636,604 637,599 637,594 638,593 638,593 639,593 640,588 640,584 641,580 642,579 642,578 643,578 644,575 644,575 645,574 646,574 646,573 647,571 648,571 648,570 649,566 650,565 650,564 651,564 651,562 652,562 653,560 653,559 654,558 655,556 655,556 656,554 657,553 657,552 658,551 659,549 659,547 660,545 661,543 661,543 662,540 663,539 663,535 664,530 664,527 665,525 666,523 666,519 667,516 668,515 668,515 669,514 670,513 670,511 671,510 672,509 672,503 673,500 674,499 674,496 675,495 676,493 676,490 677,488 677,488 678,484 679,482 679,483 680,482 681,481 681,479 682,476 683,475 683,472 684,472 685,469 685,463 686,463 687,461 687,461 688,461 689,460 689,458 690,457 690,456 691,455 692,450 692,450 693,449 694,443 694,438 695,437 696,434 696,433 697,432 698,431 698,432 699,430 700,431 700,428 701,427 702,426 702,426 703,424 704,423 705,422 705,422 706,421 707,420 707,419 708,414 709,412 709,407 710,406 711,403 711,402 712,402 713,403 713,403 714,402 714,400 715,399 716,397 716,397 717,395 718,396 718,393 719,392 720,391 720,391 721,389 722,390 722,389 723,387 724,386 724,383 725,383 726,383 726,382 727,381 727,382 728,381 729,378 729,377 730,372 731,371 731,370 732,369 733,367 733,367 734,367 735,365 735,365 736,364 737,363 737,363 738,361 739,358 739,358 740,356 740,358 741,357 742,355 742,355 743,356 744,354 744,354 745,353 746,352 746,349 747,349 748,347 748,344 749,344 750,341 750,341 751,339 752,338 752,339 753,338 753,337 754,337 755,337 755,338 756,338 757,337 757,336 758,334 759,332 759,330 760,330 761,329 761,328 762,326 763,324 763,322 764,323 765,322 765,321 766,321 766,319 767,317 768,316 768,314 769,313 770,311 770,309 771,307 772,307 772,305 773,305 773,302 774,302 774,302 775,301 776,298 776,296 777,292 778,288 778,286 779,285 779,284 780,284 781,281 781,282 782,281 783,281 783,279 784,280 785,280 785,284 786,280 787,280 787,279 788,278 789,277 789,277 790,272 791,271 791,272 792,269 792,270 793,269 794,268 794,265 795,264 796,263 796,262 797,262 798,263 798,263 799,262 800,259 800,261 801,260 802,258 802,236 803,235 804,236 804,237 805,234 805,235 806,233 807,233 807,233 808,229 809,229 809,228 810,229 811,225 811,224 812,222 813,223 813,222 814,220 815,219 815,220 816,220 817,219 817,216 818,214 818,210 819,208 820,204 820,203 821,201 822,201 822,200 823,198 824,196 824,197 825,197 826,196 826,192 827,190 828,190 828,189 829,187 830,187 830,185 831,184 831,185 832,184 833,184 833,182 834,183 835,182 835,180 836,180 837,177 837,176 838,176 839,175 839,174 840,169 841,190 841,192 842,191 843,170 843,169 844,167 844,167 845,165 846,165 846,165 847,163 848,161 848,162 849,163 850,162 850,162 851,160 852,159 852,159 853,157 854,157 854,156 855,155 856,155 856,156 857,157 857,155 858,155 859,154 859,154 860,154 861,155 861,149 862,149 863,148 863,148 864,145 865,145 865,144 866,144 867,144 867,145 868,145 868,145 869,145 870,145 870,146 871,146 872,145 872,145 873,145 874,143 874,141 875,140 876,139 876,137 877,137 878,138 878,137 879,135 880,134 880,132 881,130 881,131 882,130 883,130 883,129 884,129 885,128 885,129 886,127 887,127 887,127 888,127 889,126 889,126 890,126 891,127 891,127 892,128 893,125 893,125 894,123 894,123 895,122 896,121 896,118 897,118 898,119 898,118 899,118 900,119 900,119 901,117 902,117 902,115 903,113 904,113 904,113 905,113 906,114 906,114 907,114 907,113 908,111 909,111 909,111 910,110 911,110 911,111 912,110 913,109 913,108 914,109 915,107 915,106 916,108 917,108 917,108 918,108 919,108 919,108 920,108 920,107 921,109 922,109 922,110 923,110 924,109 924,109 925,107 926,108 926,106 927,105 928,107 928,108 929,101 930,101 930,102 931,102 932,102 932,101 933,101 933,101 934,102 935,101 935,101 936,101 937,103 937,105 938,105 939,104 939,104 940,103 941,103 941,103 942,103 943,101 943,102 944,101 945,100 945,99 946,99 946,95 947,96 948,95 948,96 949,94 950,92 950,92 951,93 952,90 952,89 953,90 954,89 954,89 955,89 956,88 956,86 957,85 958,86 958,86 959,86 959,85 960,86 961,84 961,84 962,84 963,84 963,85 964,85 965,85 965,85 966,86 967,84 967,84 968,83 969,84 969,83 970,81 971,82 971,83 972,82 972,82 973,84 974,83 974,83 975,83 976,83 976,83 977,83 978,83 978,83 979,82 980,82 980,82 981,83 982,82 982,80 983,80 984,79 984,79 985,79 985,79 986,79 987,76 987,75 988,76 989,76 989,77 990,77 991,77 991,78 992,78 993,79 993,78 994,78 995,78 995,79 996,78 997,78 997,78 998,79 998,80 999,79 1000,80 1000,78 1001,78 1002,78 1002,78 1003,78 1004,78 1004,78 1005,77 1006,77 1006,77 1007,77 1008,78 1008,79 1009,78 1010,78 1010,77 1011,78 1011,78 1012,79 1013,79 1013,78 1014,79 1015,79 1015,78 1016,78 1017,79 1017,81 1018,81 1019,80 1019,80 1020,80 1021,78 1021,79 1022,79 1023,79 1023,79 1024,79 1024,80 1024,80 1025,83 1026,84 1026,84 1027,85 1028,86 1028,86 1029,86 1030,86 1030,87 1031,87 1032,86 1032,89 1033,90 1034,89 1034,90 1035,95 1035,97 1036,96 1037,99 1037,103 1038,103 1039,104 1039,103 1040,104 1041,104 1041,105 1042,106 1043,110 1043,111 1044,112 1045,113 1045,114 1046,111 1047,112 1047,112 1048,113 1048,113 1049,114 1050,114 1050,115 1051,115 1052,112 1052,112 1053,112 1054,112 1054,112 1055,110 1056,110 1056,111 1057,111 1058,111 1058,111 1059,111 1060,112 1060,112 1061,112 1061,111 1062,112 1063,112 1063,114 1064,114 1065,115 1065,115 1066,115 1067,116 1067,116 1068,111 1069,111 1069,112 1070,113 1071,113 1071,113 1072,114 1073,115 1073,111 1074,110 1074,111 1075,112 1076,112 1076,112 1077,113 1078,113 1078,115 1079,115 1080,115 1080,115 1081,116 1082,116 1082,119 1083,118 1084,118 1084,120 1085,121 1086,121 1086,121 1087,121 1087,124 1088,127 1089,128 1089,127 1090,127 1091,127 1091,128 1092,128 1093,128 1093,129 1094,129 1095,129 1095,130 1096,130 1097,131 1097,130 1098,131 1099,132 1099,133 1100,133 1100,134 1101,132 1102,134 1102,135 1103,136 1104,135 1104,135 1105,134 1106,135 1106,135 1107,136 1108,137 1108,136 1109,137 1110,138 1110,140 1111,140 1112,141 1112,142 1113,142 1113,143 1114,140 1115,141 1115,140 1115,141 1116,141 1116,141 1117,141 1117,141 1117,142 1118,142 1118,143 1119,144 1119,144 1119,145 1120,145 1120,150 1121,150 1121,151 1121,151 1121,152 1122,152 1122,154 1123,154 1123,154 1123,154 1123,154 1124,154 1124,155 1125,155 1125,155 1125,155 1125,156 1126,156 1126,156 1126,157 1127,157 1128,157 1128,157 1128,157 1128,155 1129,155 1129,156 1130,156 1130,156 1130,156 1130,156 1131,156 1131,156 1132,157 1132,157 1132,156 1133,156 1133,156 1134,156 1134,156 1134,156 1134,157 1135,157 1135,157 1136,157 1136,157 1136,157 1136,158 1137,158 1137,158 1138,158 1138,158 1138,160 1139,160 1139,161 1139,161 1139,162 1140,162 1140,161 1141,161 1141,163 1141,163 1141,165 1142,165 1142,164 1143,164 1143,166 1143,166 1143,167 1144,167 1144,166 1145,166 1145,167 1145,167 1145,169 1146,169 1147,170 1147,170 1147,170 1148,170 1148,170 1149,170 1149,170 1149,170 1149,170 1150,170 1150,170 1151,170 1151,171 1151,171 1151,172 1152,172 1152,172 1152,172 1152,173 1153,174 1154,175 1154,175 1154,176 1154,176 1155,176 1155,177 1156,177 1156,178 1156,178 1156,179 1157,180 1158,180 1158,181 1158,181 1158,183 1159,183 1159,183 1160,183 1160,184 1160,184 1160,185 1161,185 1161,186 1162,186 1162,186 1162,186 1162,187 1163,187 1163,187 1164,187 1164,187 1164,187 1164,187 1165,187 1165,189 1165,189 1165,190 1166,190 1166,191 1167,191 1167,192 1167,192 1167,192 1168,192 1168,193 1169,193 1169,194 1169,195 1170,195 1170,196 1171,196 1171,197 1171,197 1171,200 1172,200 1172,201 1173,201 1173,201 1173,201 1173,202 1174,202 1174,203 1175,203 1175,203 1175,203 1175,204 1176,204 1177,204 1177,205 1177,205 1177,206 1178,206 1178,207 1178,207 1178,208 1179,208 1179,208 1180,209 1180,212 1181,212 1181,212 1182,213 1182,213 1182,213 1183,213 1183,214 1184,214 1184,215 1184,215 1184,215 1185,216 1185,216 1186,216 1186,218 1186,218 1186,219 1187,219 1187,219 1188,219 1188,220 1188,220 1188,220 1189,220 1190,220 "/>
<polyline fill="none" opacity="1" stroke="#198EE6" stroke-width="2" points="60,735 60,732 64,729 74,726 84,723 92,723 93,720 97,717 98,714 100,715 104,712 109,709 110,706 116,704 123,705 123,705 126,700 132,698 136,701 137,701 144,694 145,691 145,691 146,692 147,692 147,692 149,692 149,692 150,690 151,687 152,687 152,687 154,688 154,688 156,688 157,688 158,686 158,686 159,686 160,684 160,684 161,684 162,684 163,684 163,684 164,685 165,685 165,685 166,685 167,685 167,685 168,683 169,683 169,683 171,683 171,683 172,683 173,683 173,684 175,684 176,684 177,682 178,680 178,680 179,678 180,678 180,680 181,680 182,678 182,678 183,678 184,679 185,679 186,679 187,677 188,677 188,677 189,677 189,677 191,677 191,678 192,678 193,678 194,676 195,673 195,671 196,669 197,669 197,670 198,670 199,670 199,670 200,670 201,670 201,671 202,671 203,671 204,669 205,665 206,663 207,663 208,663 210,664 210,664 211,662 212,662 213,662 214,662 214,662 215,660 215,660 216,661 217,659 218,657 219,657 220,657 221,658 222,658 223,658 223,658 224,658 225,656 225,657 226,657 226,657 227,657 228,657 228,657 230,655 230,654 231,654 232,654 232,652 233,652 234,652 234,652 235,653 236,651 236,651 237,651 238,651 238,651 239,650 240,648 241,644 241,644 242,645 243,645 243,643 245,643 245,643 247,643 248,644 249,644 249,644 250,644 251,644 251,644 252,643 253,643 254,643 254,643 255,643 256,644 256,644 259,644 260,645 260,643 261,643 262,641 262,640 263,640 264,640 264,640 265,640 267,641 267,641 268,641 269,641 269,641 270,641 271,640 272,640 273,638 273,639 274,639 275,639 276,639 277,640 277,640 278,638 280,639 280,637 281,638 282,638 283,635 284,635 284,635 285,635 286,635 286,635 287,636 288,636 288,636 289,638 290,638 291,637 291,637 292,638 293,638 293,638 294,638 295,638 295,638 296,639 297,639 297,639 298,639 299,639 299,636 300,635 301,635 301,635 302,635 303,635 303,635 304,635 304,636 305,636 306,636 306,637 307,637 308,637 308,635 309,636 310,636 310,636 311,633 312,633 312,632 313,632 314,630 315,631 316,631 317,632 317,632 318,632 319,632 320,631 321,631 321,631 322,630 323,628 323,628 325,629 325,629 326,627 327,628 327,628 328,628 329,628 329,627 330,626 331,626 332,624 332,624 333,625 334,625 334,625 335,624 336,624 336,624 337,624 338,624 338,624 339,623 340,623 340,623 341,624 342,624 342,624 343,624 344,624 345,625 345,625 346,625 347,624 348,624 349,624 349,624 350,623 351,622 351,621 352,621 353,621 353,623 354,623 355,622 355,622 356,621 356,621 357,622 358,620 358,619 359,618 360,618 360,619 361,619 362,619 362,619 363,619 364,620 364,620 365,619 366,617 366,618 367,618 368,618 368,618 369,617 369,616 370,616 371,616 372,617 373,616 373,614 374,614 375,613 375,614 376,614 377,614 377,610 378,610 379,611 379,610 380,610 381,610 381,610 382,611 382,610 383,609 384,609 384,609 385,610 386,609 386,608 387,608 388,608 388,609 389,608 390,608 390,608 391,608 392,609 392,607 393,608 393,607 394,606 395,606 395,606 396,606 397,606 397,607 398,607 399,607 399,608 400,607 401,604 401,605 403,605 403,606 404,606 405,606 405,606 406,607 407,607 408,606 408,605 409,605 410,605 410,605 411,606 412,606 412,606 413,606 414,605 414,606 415,606 416,606 416,605 417,605 418,605 418,606 419,606 419,606 420,606 421,606 421,606 422,607 423,607 423,606 424,606 425,606 425,607 426,607 427,606 427,605 428,605 429,605 429,605 430,606 431,606 431,606 432,606 432,606 433,607 434,607 434,607 435,605 436,605 436,606 437,606 438,606 438,606 439,606 440,606 440,607 441,607 442,606 442,605 443,605 444,606 444,606 445,605 445,605 446,605 447,605 447,606 448,606 449,605 449,605 450,606 451,605 451,606 452,607 453,607 453,607 454,606 455,605 455,605 456,606 457,606 457,606 458,606 458,605 459,607 460,604 460,604 461,604 462,605 462,605 463,605 464,603 464,604 465,603 466,603 466,602 467,601 468,601 468,601 469,601 470,601 470,601 471,600 471,601 472,602 473,603 473,603 474,603 475,603 475,602 476,603 477,603 478,603 479,603 479,604 480,604 481,604 481,604 482,604 483,604 483,605 484,605 484,605 485,604 486,604 486,604 487,605 488,605 488,605 489,605 490,606 490,606 491,606 492,606 492,606 493,607 494,607 494,607 495,606 496,606 496,606 497,606 497,605 498,605 499,605 499,605 500,604 501,604 501,604 502,604 503,605 503,605 504,605 505,605 505,605 506,605 507,604 507,605 508,605 509,605 509,605 510,605 510,605 511,605 512,605 512,605 513,606 514,606 514,605 515,605 516,605 516,605 517,606 518,606 518,605 519,605 520,605 520,606 521,606 522,606 522,606 523,606 523,607 524,607 525,607 525,607 526,607 527,607 527,608 528,608 529,608 529,608 530,608 531,609 531,609 532,609 533,609 533,609 534,608 535,609 535,607 536,607 536,608 537,607 538,607 539,607 540,607 540,607 541,607 542,606 542,606 543,607 544,607 544,607 545,607 546,608 547,607 547,607 548,607 549,608 549,607 550,607 551,606 551,607 552,607 553,607 553,607 554,607 555,607 555,606 556,606 557,606 557,607 558,606 559,606 559,606 560,606 560,607 561,607 562,607 562,606 563,606 564,606 564,605 565,604 566,604 566,604 567,605 568,605 568,605 569,605 570,605 570,605 571,606 572,606 572,606 573,606 573,606 574,605 575,605 575,605 576,606 577,606 577,606 578,606 579,607 579,608 580,608 581,608 581,608 582,608 583,608 583,609 584,609 585,609 585,609 586,609 586,610 587,610 588,609 588,609 589,609 590,610 590,610 591,611 592,611 592,611 593,612 594,612 594,612 595,612 596,612 597,613 598,613 598,613 599,613 599,613 600,614 601,614 601,614 602,614 603,614 604,614 605,614 605,614 606,614 607,614 607,615 608,615 609,614 610,615 611,615 611,614 612,614 612,615 613,615 614,615 614,615 615,615 616,615 616,615 617,616 618,615 618,615 619,616 620,616 620,615 621,615 622,616 622,615 623,615 624,615 624,613 625,614 625,614 626,614 627,614 627,614 628,615 629,615 629,615 630,615 631,615 631,614 632,614 633,614 633,613 634,613 635,613 635,612 636,612 637,611 637,611 638,611 638,612 639,611 640,611 640,611 641,612 642,612 642,612 643,612 644,612 644,613 645,613 646,613 646,613 647,613 648,614 648,615 649,615 650,615 650,614 651,615 651,614 652,614 653,614 653,615 654,615 655,615 655,615 656,616 657,616 657,615 658,615 659,615 659,616 660,616 661,615 661,615 662,616 663,616 663,616 664,616 664,616 665,616 666,616 666,616 667,616 668,616 668,616 669,617 670,616 670,616 671,615 672,615 672,615 673,615 674,616 674,615 675,615 676,615 676,615 677,615 677,615 678,615 679,615 679,615 680,615 681,616 681,616 682,616 683,617 683,617 684,617 685,618 685,618 686,618 687,618 687,618 688,618 689,618 689,618 690,618 690,618 691,619 692,618 692,619 693,619 694,619 694,619 695,619 696,619 696,619 697,619 698,619 698,618 699,619 700,619 700,619 701,619 702,619 702,619 703,619 703,619 704,619 705,619 705,619 706,619 707,619 707,620 708,620 709,619 709,619 710,619 711,619 711,619 712,619 713,619 713,619 714,620 714,619 715,619 716,619 716,619 717,620 718,620 718,620 719,620 720,620 720,620 721,620 722,620 722,620 724,620 724,620 725,620 726,621 726,621 727,621 727,621 728,621 729,621 729,621 730,621 731,621 731,622 732,622 733,622 733,622 734,622 735,622 735,622 736,621 737,622 737,622 738,622 739,622 739,622 740,622 740,623 741,623 742,623 742,623 743,623 744,623 744,623 745,623 746,624 746,624 747,624 748,624 748,624 749,624 750,625 750,625 751,625 752,624 752,625 753,625 753,625 754,626 755,626 755,626 756,626 757,626 757,626 758,627 759,627 759,627 760,627 761,626 761,626 762,626 763,626 763,626 764,626 765,626 765,626 766,626 766,626 767,627 768,626 768,626 769,627 770,627 770,627 771,627 772,628 772,628 773,628 773,628 774,628 774,628 775,628 776,628 776,629 777,629 778,629 778,629 779,629 779,630 780,630 781,629 781,629 782,630 783,630 783,630 784,630 785,630 785,632 786,631 787,631 787,631 788,631 789,631 789,632 790,632 791,632 791,633 792,633 792,633 793,633 794,633 794,633 795,633 796,634 796,634 797,634 798,634 798,634 799,634 800,634 800,634 801,634 802,634 802,634 803,634 804,634 804,635 805,635 805,635 806,635 807,635 807,635 808,635 809,635 809,636 810,636 811,636 811,636 812,636 813,636 813,636 814,636 815,637 815,636 816,636 817,636 817,637 818,637 818,637 819,637 820,637 820,637 821,637 822,637 822,638 823,637 824,637 824,637 825,638 826,638 826,638 827,638 828,638 828,638 829,638 830,638 830,639 831,639 831,639 832,639 833,639 833,639 834,639 835,639 835,640 836,640 837,639 837,640 838,640 839,639 839,640 840,640 841,644 841,644 842,644 843,640 843,640 844,641 844,641 845,641 846,641 846,641 847,642 848,642 848,642 849,642 850,642 850,642 851,643 852,643 852,643 853,643 854,644 854,644 855,644 856,644 856,644 857,644 857,645 858,645 859,645 859,645 860,645 861,645 861,645 862,645 863,645 863,645 864,645 865,645 865,645 866,645 867,646 867,646 868,646 868,646 869,647 870,647 870,647 871,647 872,647 872,647 873,646 874,647 874,647 875,647 876,647 876,647 877,647 878,647 878,647 879,647 880,646 880,646 881,645 881,645 882,645 883,645 883,645 884,645 885,645 885,645 886,645 887,646 887,646 888,646 889,646 889,646 890,646 891,646 891,646 892,647 893,647 893,647 894,647 894,647 895,647 896,647 896,647 897,647 898,647 898,647 899,647 900,647 900,648 901,648 902,648 902,648 903,648 904,648 904,648 905,648 906,649 906,649 907,649 907,649 908,649 909,649 909,648 910,648 911,648 911,649 912,649 913,649 913,649 914,649 915,649 915,649 916,649 917,649 917,649 918,649 919,649 919,649 920,649 920,649 921,649 922,649 922,649 923,649 924,649 924,649 925,649 926,649 926,649 927,649 928,649 928,649 929,649 930,649 930,649 931,649 932,650 932,650 933,650 933,650 934,650 935,650 935,650 936,650 937,650 937,650 938,650 939,650 939,651 940,650 941,650 941,650 942,651 943,651 943,651 944,651 945,651 945,651 946,651 946,651 947,651 948,651 948,652 949,652 950,652 950,652 951,653 952,653 952,653 953,653 954,653 954,653 955,653 956,653 956,654 957,654 958,653 958,653 959,651 959,651 960,651 961,651 961,651 962,651 963,651 963,651 964,651 965,651 965,650 966,650 967,650 967,650 968,650 969,650 969,650 970,650 971,650 971,650 972,650 972,650 973,650 974,650 974,650 975,650 976,650 976,650 977,650 978,650 978,650 979,651 980,651 980,651 981,651 982,651 982,651 983,651 984,651 984,651 985,651 985,651 986,651 987,651 987,652 988,651 989,651 989,651 990,652 991,652 991,652 992,652 993,652 993,651 994,651 995,651 995,651 996,651 997,651 997,652 998,652 998,652 999,652 1000,652 1000,652 1001,652 1002,652 1002,652 1003,652 1004,652 1004,652 1005,652 1006,653 1006,652 1007,653 1008,653 1008,653 1009,653 1010,653 1010,653 1011,654 1011,654 1012,654 1013,654 1013,655 1014,655 1015,655 1015,655 1016,655 1017,655 1017,655 1018,656 1019,656 1019,656 1020,656 1021,656 1021,656 1022,656 1023,656 1023,656 1024,656 1024,656 1024,656 1025,656 1026,656 1026,657 1027,656 1028,656 1028,656 1029,657 1030,656 1030,656 1031,657 1032,657 1032,657 1033,657 1034,657 1034,657 1035,658 1035,657 1036,657 1037,657 1037,657 1038,657 1039,658 1039,658 1040,658 1041,658 1041,658 1042,658 1043,658 1043,658 1044,658 1045,658 1045,658 1046,659 1047,659 1047,659 1048,659 1048,659 1049,659 1050,659 1050,659 1051,659 1052,659 1052,659 1053,659 1054,659 1054,659 1055,659 1056,660 1056,660 1057,660 1058,660 1058,660 1059,660 1060,660 1060,660 1061,660 1061,660 1062,660 1063,661 1063,661 1064,661 1065,661 1065,662 1066,662 1067,662 1067,662 1068,662 1069,662 1069,662 1070,662 1071,662 1071,662 1072,662 1073,662 1073,662 1074,662 1074,662 1075,662 1076,663 1076,663 1077,663 1078,663 1078,663 1079,663 1080,663 1080,663 1081,663 1082,663 1082,664 1083,664 1084,664 1084,664 1085,664 1086,665 1086,665 1087,665 1087,665 1088,665 1089,665 1089,665 1090,665 1091,665 1091,665 1092,665 1093,665 1093,665 1094,666 1095,666 1095,666 1096,666 1097,666 1097,666 1098,667 1099,667 1099,667 1100,667 1100,667 1101,667 1102,667 1102,667 1103,667 1104,667 1104,667 1105,668 1106,667 1106,667 1107,668 1108,667 1108,667 1109,667 1110,668 1110,668 1111,668 1112,668 1112,669 1113,669 1113,669 1114,669 1115,669 1115,669 1115,669 1116,669 1116,669 1117,670 1117,670 1117,670 1118,670 1118,670 1119,670 1119,670 1119,670 1120,670 1120,670 1121,670 1121,670 1121,670 1121,670 1122,670 1122,670 1123,670 1123,670 1123,670 1123,670 1124,670 1124,670 1125,670 1125,670 1125,670 1125,670 1126,670 1126,670 1127,670 1128,670 1128,670 1128,670 1128,670 1129,670 1129,671 1130,671 1130,671 1130,671 1130,671 1131,671 1131,671 1132,671 1132,671 1132,671 1133,671 1133,671 1134,671 1134,671 1134,671 1134,671 1135,671 1135,671 1136,671 1136,671 1136,671 1136,671 1137,671 1137,671 1138,671 1138,672 1138,672 1139,672 1139,672 1139,672 1139,672 1140,672 1140,672 1141,672 1141,672 1141,672 1141,671 1142,671 1142,671 1143,671 1143,671 1143,671 1143,671 1144,671 1144,671 1145,671 1145,671 1145,671 1145,671 1146,671 1147,671 1147,671 1147,671 1148,671 1148,672 1149,672 1149,671 1149,671 1149,671 1150,671 1150,671 1151,671 1151,672 1151,672 1151,672 1152,672 1152,672 1152,672 1152,672 1153,672 1154,672 1154,672 1154,672 1154,672 1155,672 1155,672 1156,672 1156,672 1156,672 1156,672 1157,672 1158,672 1158,673 1158,673 1158,673 1159,673 1159,673 1160,673 1160,674 1160,674 1160,674 1161,674 1161,674 1162,674 1162,674 1162,674 1162,674 1163,674 1163,674 1164,674 1164,674 1164,674 1164,674 1165,674 1165,674 1165,674 1165,674 1166,674 1166,674 1167,674 1167,673 1167,673 1167,674 1168,674 1168,674 1169,674 1169,673 1169,673 1170,673 1170,673 1171,673 1171,673 1171,673 1171,673 1172,673 1172,673 1173,673 1173,673 1173,673 1173,673 1174,673 1174,673 1175,673 1175,673 1175,673 1175,674 1176,674 1177,674 1177,674 1177,674 1177,674 1178,674 1178,674 1178,674 1178,674 1179,674 1179,674 1180,674 1180,674 1181,674 1181,674 1182,674 1182,674 1182,675 1183,675 1183,675 1184,675 1184,675 1184,675 1184,675 1185,675 1185,675 1186,675 1186,675 1186,675 1186,675 1187,675 1187,675 1188,675 1188,675 1188,675 1188,675 1189,675 1190,675 "/>
<polyline fill="none" opacity="1" stroke="#5419E6" stroke-width="2" points="917,738 919,738 922,738 928,737 930,736 933,736 936,736 937,735 937,732 938,732 940,732 941,732 946,731 948,731 948,731 950,731 950,731 958,731 963,731 963,730 965,730 967,729 970,729 971,728 972,728 972,727 973,727 974,727 976,727 977,727 978,727 980,727 981,726 982,726 982,725 985,725 986,725 987,725 987,724 989,724 991,724 991,724 992,724 993,724 995,724 997,724 998,724 999,724 1000,723 1000,723 1002,723 1002,723 1003,723 1004,723 1005,723 1006,723 1007,723 1008,722 1009,723 1010,723 1010,723 1011,722 1011,721 1012,721 1013,721 1013,721 1014,722 1015,722 1015,722 1017,722 1017,722 1018,721 1019,721 1019,721 1020,721 1021,721 1023,721 1023,721 1024,721 1024,721 1024,721 1025,720 1026,720 1026,720 1027,720 1028,719 1028,719 1030,719 1030,718 1032,718 1032,718 1033,717 1034,717 1034,717 1035,717 1036,717 1037,717 1038,717 1039,716 1039,716 1040,716 1041,715 1041,715 1042,715 1043,714 1044,714 1045,714 1045,714 1046,714 1047,714 1047,714 1048,713 1049,713 1050,714 1052,713 1052,713 1053,713 1054,713 1056,714 1056,714 1057,714 1058,714 1059,713 1060,713 1061,713 1062,713 1064,712 1065,713 1065,713 1066,712 1067,712 1067,712 1068,712 1069,712 1069,712 1070,712 1071,712 1071,711 1072,711 1073,712 1073,712 1074,712 1074,712 1075,711 1076,711 1076,712 1077,711 1078,711 1078,711 1079,711 1080,711 1080,711 1081,711 1082,711 1083,711 1084,710 1084,710 1085,710 1086,710 1086,710 1087,709 1087,709 1089,709 1089,710 1090,710 1091,710 1091,710 1092,709 1093,709 1093,709 1094,709 1095,709 1095,708 1096,708 1097,708 1097,709 1098,709 1099,708 1099,708 1100,708 1100,708 1101,708 1102,708 1102,708 1103,708 1104,708 1104,708 1105,708 1106,708 1106,708 1107,708 1108,708 1108,708 1109,707 1110,708 1111,708 1112,708 1112,708 1113,708 1113,708 1114,708 1115,708 1115,708 1115,708 1116,708 1116,708 1117,708 1117,708 1117,708 1118,708 1118,708 1119,708 1119,708 1119,708 1120,708 1120,708 1121,708 1121,708 1121,708 1121,707 1122,707 1122,707 1123,707 1123,707 1123,707 1123,708 1124,708 1124,707 1125,707 1125,707 1125,707 1125,707 1126,707 1126,707 1126,707 1127,707 1128,707 1128,707 1128,707 1128,707 1129,707 1129,707 1130,707 1130,706 1130,706 1130,707 1131,707 1131,707 1132,707 1132,707 1132,706 1133,706 1133,706 1134,706 1134,706 1134,706 1134,707 1135,707 1135,707 1136,707 1136,707 1136,707 1136,707 1137,707 1137,707 1138,707 1138,707 1139,707 1139,707 1139,707 1139,707 1140,707 1140,707 1141,707 1141,707 1141,707 1141,707 1142,707 1142,707 1143,707 1143,707 1143,707 1143,707 1144,707 1144,707 1145,707 1145,707 1145,707 1146,707 1147,707 1147,707 1147,707 1148,707 1148,707 1149,707 1149,707 1149,707 1149,707 1150,707 1150,707 1151,707 1151,707 1151,707 1151,706 1152,706 1152,706 1152,707 1153,707 1154,707 1154,707 1154,707 1154,707 1155,707 1155,707 1156,707 1156,707 1156,707 1156,706 1157,706 1158,706 1158,706 1158,706 1158,706 1159,706 1159,706 1160,706 1160,706 1160,706 1160,706 1161,706 1161,706 1162,706 1162,706 1162,706 1163,706 1163,706 1164,706 1164,707 1164,707 1164,706 1165,706 1165,707 1165,707 1165,706 1166,706 1166,706 1167,706 1167,706 1167,706 1167,707 1168,707 1168,707 1169,707 1169,706 1169,706 1170,706 1170,706 1171,706 1171,706 1171,706 1171,706 1172,706 1172,707 1173,707 1173,707 1173,707 1173,707 1174,707 1174,707 1175,707 1175,707 1175,707 1175,707 1176,707 1177,707 1177,707 1177,707 1178,707 1178,707 1178,707 1178,707 1179,707 1179,707 1180,707 1180,707 1181,707 1181,707 1182,707 1182,707 1182,707 1183,707 1183,707 1184,707 1184,707 1184,707 1184,706 1185,706 1186,706 1186,706 1186,706 1186,706 1187,706 1187,706 1188,706 1188,706 1188,706 1188,706 1189,706 1190,706 "/>
<polyline fill="none" opacity="1" stroke="#E619C8" stroke-width="2" points="1019,738 1019,737 1020,737 1021,736 1021,736 1023,735 1023,735 1024,735 1024,735 1024,735 1025,735 1026,734 1026,734 1027,734 1028,733 1028,733 1029,733 1030,733 1030,732 1031,732 1032,731 1032,730 1034,730 1034,730 1035,728 1035,727 1036,727 1037,726 1037,725 1038,725 1039,724 1039,724 1040,723 1041,723 1041,723 1042,723 1043,720 1043,719 1044,718 1045,717 1045,716 1046,716 1047,716 1047,716 1048,716 1048,716 1049,716 1050,714 1050,714 1051,714 1052,714 1052,714 1053,714 1054,713 1054,714 1055,713 1056,712 1056,712 1057,712 1058,711 1058,711 1059,710 1060,710 1060,709 1061,707 1061,707 1062,707 1063,706 1063,706 1064,706 1065,706 1065,704 1066,703 1067,702 1067,700 1068,700 1069,699 1069,699 1070,698 1071,698 1071,698 1072,697 1073,697 1073,696 1074,696 1074,695 1075,694 1076,694 1076,692 1077,691 1078,690 1078,690 1079,688 1080,688 1080,688 1081,687 1082,687 1082,685 1083,683 1084,683 1084,682 1085,681 1086,681 1086,681 1087,681 1087,680 1088,679 1089,677 1089,677 1090,676 1091,674 1091,674 1092,673 1093,673 1093,673 1094,672 1095,672 1095,672 1096,671 1097,671 1097,670 1098,670 1099,669 1099,669 1100,669 1100,668 1101,668 1102,667 1102,667 1103,666 1104,667 1104,665 1105,664 1106,664 1106,663 1107,662 1108,662 1108,663 1109,661 1110,660 1110,660 1111,660 1112,659 1112,657 1113,656 1113,655 1114,655 1115,654 1115,654 1115,653 1116,653 1116,653 1117,653 1117,653 1117,651 1118,651 1118,651 1119,650 1119,650 1119,649 1120,649 1120,646 1121,646 1121,646 1121,646 1121,645 1122,645 1122,644 1123,644 1123,643 1123,643 1123,642 1124,642 1124,642 1125,642 1125,641 1125,641 1125,640 1126,639 1126,639 1126,638 1127,638 1128,638 1128,638 1128,638 1128,637 1129,637 1129,637 1130,637 1130,637 1130,637 1130,636 1131,636 1131,636 1132,635 1132,635 1132,635 1133,635 1133,634 1134,634 1134,633 1134,633 1134,632 1135,632 1135,632 1136,632 1136,631 1136,631 1136,631 1137,631 1137,628 1138,628 1138,627 1138,624 1139,624 1139,623 1139,623 1139,621 1140,621 1140,621 1141,621 1141,620 1141,620 1141,618 1142,618 1142,617 1143,617 1143,616 1143,616 1143,616 1144,616 1144,615 1145,615 1145,614 1145,614 1145,613 1146,613 1147,612 1147,612 1147,610 1148,610 1148,609 1149,609 1149,609 1149,609 1149,608 1150,608 1150,608 1151,608 1151,607 1151,607 1151,606 1152,606 1152,605 1152,605 1152,604 1153,602 1154,602 1154,602 1154,602 1154,600 1155,600 1155,598 1156,598 1156,597 1156,597 1156,597 1157,596 1158,596 1158,594 1158,594 1158,592 1159,592 1159,590 1160,590 1160,590 1160,590 1160,590 1161,590 1161,589 1162,589 1162,588 1162,588 1162,587 1163,587 1163,582 1164,582 1164,580 1164,580 1164,579 1165,579 1165,578 1165,578 1165,577 1166,577 1166,577 1167,577 1167,576 1167,576 1167,574 1168,574 1168,572 1169,572 1169,571 1169,570 1170,570 1170,569 1171,569 1171,567 1171,567 1171,567 1172,567 1172,565 1173,565 1173,565 1173,565 1173,564 1174,564 1174,563 1175,563 1175,561 1175,561 1175,560 1176,559 1177,559 1177,559 1177,559 1177,558 1178,558 1178,557 1178,557 1178,555 1179,555 1179,554 1180,552 1180,550 1181,550 1181,549 1182,548 1182,548 1182,547 1183,547 1183,547 1184,547 1184,544 1184,544 1184,543 1185,543 1185,542 1186,542 1186,540 1186,540 1186,540 1187,540 1187,539 1188,539 1188,537 1188,537 1188,537 1189,537 1190,537 "/>
<rect x="1078" y="315" width="107" height="119" opacity="1" fill="#FFFFFF" stroke="none"/>
<rect x="1078" y="315" width="107" height="119" opacity="1" fill="none" stroke="#000000"/>
<text x="1118" y="325" dy="0.76em" text-anchor="start" font-family="sans-serif" font-size="9.67741935483871" opacity="1" fill="#000000">
anyhow
</text>
<text x="1118" y="340" dy="0.76em" text-anchor="start" font-family="sans-serif" font-size="9.67741935483871" opacity="1" fill="#000000">
err-derive
</text>
<text x="1118" y="355" dy="0.76em" text-anchor="start" font-family="sans-serif" font-size="9.67741935483871" opacity="1" fill="#000000">
error-chain
</text>
<text x="1118" y="370" dy="0.76em" text-anchor="start" font-family="sans-serif" font-size="9.67741935483871" opacity="1" fill="#000000">
failure
</text>
<text x="1118" y="385" dy="0.76em" text-anchor="start" font-family="sans-serif" font-size="9.67741935483871" opacity="1" fill="#000000">
quick-error
</text>
<text x="1118" y="400" dy="0.76em" text-anchor="start" font-family="sans-serif" font-size="9.67741935483871" opacity="1" fill="#000000">
snafu
</text>
<text x="1118" y="415" dy="0.76em" text-anchor="start" font-family="sans-serif" font-size="9.67741935483871" opacity="1" fill="#000000">
thiserror
</text>
<polyline fill="none" opacity="1" stroke="#E61919" stroke-width="2" points="1088,330 1108,330 "/>
<polyline fill="none" opacity="1" stroke="#E6C819" stroke-width="2" points="1088,344 1108,344 "/>
<polyline fill="none" opacity="1" stroke="#54E619" stroke-width="2" points="1088,359 1108,359 "/>
<polyline fill="none" opacity="1" stroke="#19E68E" stroke-width="2" points="1088,374 1108,374 "/>
<polyline fill="none" opacity="1" stroke="#198EE6" stroke-width="2" points="1088,390 1108,390 "/>
<polyline fill="none" opacity="1" stroke="#5419E6" stroke-width="2" points="1088,404 1108,404 "/>
<polyline fill="none" opacity="1" stroke="#E619C8" stroke-width="2" points="1088,419 1108,419 "/>
</svg>
