<svg width="1200" height="800" viewBox="0 0 1200 800" xmlns="http://www.w3.org/2000/svg">
<rect x="0" y="0" width="1199" height="799" opacity="1" fill="#FFFFFF" stroke="none"/>
<line opacity="0.1" stroke="#000000" stroke-width="1" x1="60" y1="728" x2="1190" y2="728"/>
<line opacity="0.1" stroke="#000000" stroke-width="1" x1="60" y1="718" x2="1190" y2="718"/>
<line opacity="0.1" stroke="#000000" stroke-width="1" x1="60" y1="707" x2="1190" y2="707"/>
<line opacity="0.1" stroke="#000000" stroke-width="1" x1="60" y1="697" x2="1190" y2="697"/>
<line opacity="0.1" stroke="#000000" stroke-width="1" x1="60" y1="686" x2="1190" y2="686"/>
<line opacity="0.1" stroke="#000000" stroke-width="1" x1="60" y1="676" x2="1190" y2="676"/>
<line opacity="0.1" stroke="#000000" stroke-width="1" x1="60" y1="666" x2="1190" y2="666"/>
<line opacity="0.1" stroke="#000000" stroke-width="1" x1="60" y1="655" x2="1190" y2="655"/>
<line opacity="0.1" stroke="#000000" stroke-width="1" x1="60" y1="645" x2="1190" y2="645"/>
<line opacity="0.1" stroke="#000000" stroke-width="1" x1="60" y1="634" x2="1190" y2="634"/>
<line opacity="0.1" stroke="#000000" stroke-width="1" x1="60" y1="624" x2="1190" y2="624"/>
<line opacity="0.1" stroke="#000000" stroke-width="1" x1="60" y1="613" x2="1190" y2="613"/>
<line opacity="0.1" stroke="#000000" stroke-width="1" x1="60" y1="603" x2="1190" y2="603"/>
<line opacity="0.1" stroke="#000000" stroke-width="1" x1="60" y1="592" x2="1190" y2="592"/>
<line opacity="0.1" stroke="#000000" stroke-width="1" x1="60" y1="582" x2="1190" y2="582"/>
<line opacity="0.1" stroke="#000000" stroke-width="1" x1="60" y1="571" x2="1190" y2="571"/>
<line opacity="0.1" stroke="#000000" stroke-width="1" x1="60" y1="561" x2="1190" y2="561"/>
<line opacity="0.1" stroke="#000000" stroke-width="1" x1="60" y1="550" x2="1190" y2="550"/>
<line opacity="0.1" stroke="#000000" stroke-width="1" x1="60" y1="540" x2="1190" y2="540"/>
<line opacity="0.1" stroke="#000000" stroke-width="1" x1="60" y1="530" x2="1190" y2="530"/>
<line opacity="0.1" stroke="#000000" stroke-width="1" x1="60" y1="519" x2="1190" y2="519"/>
<line opacity="0.1" stroke="#000000" stroke-width="1" x1="60" y1="509" x2="1190" y2="509"/>
<line opacity="0.1" stroke="#000000" stroke-width="1" x1="60" y1="498" x2="1190" y2="498"/>
<line opacity="0.1" stroke="#000000" stroke-width="1" x1="60" y1="488" x2="1190" y2="488"/>
<line opacity="0.1" stroke="#000000" stroke-width="1" x1="60" y1="477" x2="1190" y2="477"/>
<line opacity="0.1" stroke="#000000" stroke-width="1" x1="60" y1="467" x2="1190" y2="467"/>
<line opacity="0.1" stroke="#000000" stroke-width="1" x1="60" y1="456" x2="1190" y2="456"/>
<line opacity="0.1" stroke="#000000" stroke-width="1" x1="60" y1="446" x2="1190" y2="446"/>
<line opacity="0.1" stroke="#000000" stroke-width="1" x1="60" y1="435" x2="1190" y2="435"/>
<line opacity="0.1" stroke="#000000" stroke-width="1" x1="60" y1="425" x2="1190" y2="425"/>
<line opacity="0.1" stroke="#000000" stroke-width="1" x1="60" y1="414" x2="1190" y2="414"/>
<line opacity="0.1" stroke="#000000" stroke-width="1" x1="60" y1="404" x2="1190" y2="404"/>
<line opacity="0.1" stroke="#000000" stroke-width="1" x1="60" y1="393" x2="1190" y2="393"/>
<line opacity="0.1" stroke="#000000" stroke-width="1" x1="60" y1="383" x2="1190" y2="383"/>
<line opacity="0.1" stroke="#000000" stroke-width="1" x1="60" y1="373" x2="1190" y2="373"/>
<line opacity="0.1" stroke="#000000" stroke-width="1" x1="60" y1="362" x2="1190" y2="362"/>
<line opacity="0.1" stroke="#000000" stroke-width="1" x1="60" y1="352" x2="1190" y2="352"/>
<line opacity="0.1" stroke="#000000" stroke-width="1" x1="60" y1="341" x2="1190" y2="341"/>
<line opacity="0.1" stroke="#000000" stroke-width="1" x1="60" y1="331" x2="1190" y2="331"/>
<line opacity="0.1" stroke="#000000" stroke-width="1" x1="60" y1="320" x2="1190" y2="320"/>
<line opacity="0.1" stroke="#000000" stroke-width="1" x1="60" y1="310" x2="1190" y2="310"/>
<line opacity="0.1" stroke="#000000" stroke-width="1" x1="60" y1="299" x2="1190" y2="299"/>
<line opacity="0.1" stroke="#000000" stroke-width="1" x1="60" y1="289" x2="1190" y2="289"/>
<line opacity="0.1" stroke="#000000" stroke-width="1" x1="60" y1="278" x2="1190" y2="278"/>
<line opacity="0.1" stroke="#000000" stroke-width="1" x1="60" y1="268" x2="1190" y2="268"/>
<line opacity="0.1" stroke="#000000" stroke-width="1" x1="60" y1="257" x2="1190" y2="257"/>
<line opacity="0.1" stroke="#000000" stroke-width="1" x1="60" y1="247" x2="1190" y2="247"/>
<line opacity="0.1" stroke="#000000" stroke-width="1" x1="60" y1="236" x2="1190" y2="236"/>
<line opacity="0.1" stroke="#000000" stroke-width="1" x1="60" y1="226" x2="1190" y2="226"/>
<line opacity="0.1" stroke="#000000" stroke-width="1" x1="60" y1="216" x2="1190" y2="216"/>
<line opacity="0.1" stroke="#000000" stroke-width="1" x1="60" y1="205" x2="1190" y2="205"/>
<line opacity="0.1" stroke="#000000" stroke-width="1" x1="60" y1="195" x2="1190" y2="195"/>
<line opacity="0.1" stroke="#000000" stroke-width="1" x1="60" y1="184" x2="1190" y2="184"/>
<line opacity="0.1" stroke="#000000" stroke-width="1" x1="60" y1="174" x2="1190" y2="174"/>
<line opacity="0.1" stroke="#000000" stroke-width="1" x1="60" y1="163" x2="1190" y2="163"/>
<line opacity="0.1" stroke="#000000" stroke-width="1" x1="60" y1="153" x2="1190" y2="153"/>
<line opacity="0.1" stroke="#000000" stroke-width="1" x1="60" y1="142" x2="1190" y2="142"/>
<line opacity="0.1" stroke="#000000" stroke-width="1" x1="60" y1="132" x2="1190" y2="132"/>
<line opacity="0.1" stroke="#000000" stroke-width="1" x1="60" y1="121" x2="1190" y2="121"/>
<line opacity="0.1" stroke="#000000" stroke-width="1" x1="60" y1="111" x2="1190" y2="111"/>
<line opacity="0.1" stroke="#000000" stroke-width="1" x1="60" y1="100" x2="1190" y2="100"/>
<line opacity="0.1" stroke="#000000" stroke-width="1" x1="60" y1="90" x2="1190" y2="90"/>
<line opacity="0.1" stroke="#000000" stroke-width="1" x1="60" y1="80" x2="1190" y2="80"/>
<line opacity="0.1" stroke="#000000" stroke-width="1" x1="60" y1="69" x2="1190" y2="69"/>
<line opacity="0.1" stroke="#000000" stroke-width="1" x1="60" y1="59" x2="1190" y2="59"/>
<line opacity="0.1" stroke="#000000" stroke-width="1" x1="60" y1="48" x2="1190" y2="48"/>
<line opacity="0.1" stroke="#000000" stroke-width="1" x1="60" y1="38" x2="1190" y2="38"/>
<line opacity="0.1" stroke="#000000" stroke-width="1" x1="60" y1="27" x2="1190" y2="27"/>
<line opacity="0.1" stroke="#000000" stroke-width="1" x1="60" y1="17" x2="1190" y2="17"/>
<text x="10" y="375" dy="0.76em" text-anchor="middle" font-family="sans-serif" font-size="9.67741935483871" opacity="1" fill="#000000" transform="rotate(270, 10, 375)">
Fraction of dependent crates
</text>
<line opacity="0.2" stroke="#000000" stroke-width="1" x1="60" y1="634" x2="1190" y2="634"/>
<line opacity="0.2" stroke="#000000" stroke-width="1" x1="60" y1="530" x2="1190" y2="530"/>
<line opacity="0.2" stroke="#000000" stroke-width="1" x1="60" y1="425" x2="1190" y2="425"/>
<line opacity="0.2" stroke="#000000" stroke-width="1" x1="60" y1="320" x2="1190" y2="320"/>
<line opacity="0.2" stroke="#000000" stroke-width="1" x1="60" y1="216" x2="1190" y2="216"/>
<polyline fill="none" opacity="1" stroke="#000000" stroke-width="1" points="59,10 59,740 "/>
<text x="50" y="634" dy="0.5ex" text-anchor="end" font-family="sans-serif" font-size="9.67741935483871" opacity="1" fill="#000000">
0.01
</text>
<polyline fill="none" opacity="1" stroke="#000000" stroke-width="1" points="54,634 59,634 "/>
<text x="50" y="530" dy="0.5ex" text-anchor="end" font-family="sans-serif" font-size="9.67741935483871" opacity="1" fill="#000000">
0.02
</text>
<polyline fill="none" opacity="1" stroke="#000000" stroke-width="1" points="54,530 59,530 "/>
<text x="50" y="425" dy="0.5ex" text-anchor="end" font-family="sans-serif" font-size="9.67741935483871" opacity="1" fill="#000000">
0.03
</text>
<polyline fill="none" opacity="1" stroke="#000000" stroke-width="1" points="54,425 59,425 "/>
<text x="50" y="320" dy="0.5ex" text-anchor="end" font-family="sans-serif" font-size="9.67741935483871" opacity="1" fill="#000000">
0.04
</text>
<polyline fill="none" opacity="1" stroke="#000000" stroke-width="1" points="54,320 59,320 "/>
<text x="50" y="216" dy="0.5ex" text-anchor="end" font-family="sans-serif" font-size="9.67741935483871" opacity="1" fill="#000000">
0.05
</text>
<polyline fill="none" opacity="1" stroke="#000000" stroke-width="1" points="54,216 59,216 "/>
<polyline fill="none" opacity="1" stroke="#000000" stroke-width="1" points="60,740 1190,740 "/>
<text x="60" y="750" dy="0.76em" text-anchor="middle" font-family="sans-serif" font-size="9.67741935483871" opacity="1" fill="#000000">
2015-09-24Z
</text>
<polyline fill="none" opacity="1" stroke="#000000" stroke-width="1" points="60,740 60,745 "/>
<text x="176" y="750" dy="0.76em" text-anchor="middle" font-family="sans-serif" font-size="9.67741935483871" opacity="1" fill="#000000">
2016-04-07Z
</text>
<polyline fill="none" opacity="1" stroke="#000000" stroke-width="1" points="176,740 176,745 "/>
<text x="292" y="750" dy="0.76em" text-anchor="middle" font-family="sans-serif" font-size="9.67741935483871" opacity="1" fill="#000000">
2016-10-20Z
</text>
<polyline fill="none" opacity="1" stroke="#000000" stroke-width="1" points="292,740 292,745 "/>
<text x="408" y="750" dy="0.76em" text-anchor="middle" font-family="sans-serif" font-size="9.67741935483871" opacity="1" fill="#000000">
2017-05-04Z
</text>
<polyline fill="none" opacity="1" stroke="#000000" stroke-width="1" points="408,740 408,745 "/>
<text x="524" y="750" dy="0.76em" text-anchor="middle" font-family="sans-serif" font-size="9.67741935483871" opacity="1" fill="#000000">
2017-11-16Z
</text>
<polyline fill="none" opacity="1" stroke="#000000" stroke-width="1" points="524,740 524,745 "/>
<text x="640" y="750" dy="0.76em" text-anchor="middle" font-family="sans-serif" font-size="9.67741935483871" opacity="1" fill="#000000">
2018-05-31Z
</text>
<polyline fill="none" opacity="1" stroke="#000000" stroke-width="1" points="640,740 640,745 "/>
<text x="756" y="750" dy="0.76em" text-anchor="middle" font-family="sans-serif" font-size="9.67741935483871" opacity="1" fill="#000000">
2018-12-13Z
</text>
<polyline fill="none" opacity="1" stroke="#000000" stroke-width="1" points="756,740 756,745 "/>
<text x="872" y="750" dy="0.76em" text-anchor="middle" font-family="sans-serif" font-size="9.67741935483871" opacity="1" fill="#000000">
2019-06-27Z
</text>
<polyline fill="none" opacity="1" stroke="#000000" stroke-width="1" points="872,740 872,745 "/>
<text x="989" y="750" dy="0.76em" text-anchor="middle" font-family="sans-serif" font-size="9.67741935483871" opacity="1" fill="#000000">
2020-01-09Z
</text>
<polyline fill="none" opacity="1" stroke="#000000" stroke-width="1" points="989,740 989,745 "/>
<text x="1105" y="750" dy="0.76em" text-anchor="middle" font-family="sans-serif" font-size="9.67741935483871" opacity="1" fill="#000000">
2020-07-23Z
</text>
<polyline fill="none" opacity="1" stroke="#000000" stroke-width="1" points="1105,740 1105,745 "/>
<polyline fill="none" opacity="1" stroke="#E61919" stroke-width="2" points="933,738 934,738 935,738 935,738 936,738 936,738 938,738 938,737 939,737 939,737 939,737 940,737 941,736 941,735 942,735 942,735 943,735 944,734 944,734 945,733 945,733 946,733 947,732 948,732 948,732 949,731 950,730 950,729 951,727 951,723 952,723 952,723 953,723 954,722 954,722 955,722 955,720 956,717 957,716 957,716 958,715 958,715 959,714 960,714 960,713 961,713 961,711 962,711 963,710 963,710 964,710 964,710 965,709 966,709 966,707 967,707 967,706 968,706 968,706 969,706 970,706 970,704 971,704 971,704 972,704 973,703 973,703 974,702 974,703 975,702 976,702 976,701 977,701 977,701 978,700 979,700 979,699 980,699 980,698 981,698 982,697 982,697 983,696 983,695 984,695 984,693 985,692 986,692 986,691 987,691 987,690 988,688 989,687 989,686 990,686 990,685 991,683 992,682 992,681 993,681 993,681 994,680 995,680 995,680 996,680 996,679 997,679 998,676 998,675 999,675 999,675 1000,674 1000,674 1001,673 1002,673 1002,673 1003,673 1003,671 1004,670 1005,669 1005,669 1006,668 1006,667 1007,667 1008,666 1008,666 1009,666 1009,666 1010,665 1011,665 1011,664 1012,664 1012,662 1013,662 1014,662 1014,662 1015,662 1015,662 1016,661 1016,661 1017,660 1018,659 1018,659 1019,659 1019,658 1020,657 1021,657 1021,656 1022,657 1022,656 1022,656 1023,656 1023,656 1024,655 1024,655 1024,654 1025,654 1025,654 1025,653 1026,653 1026,651 1027,651 1027,647 1027,647 1027,646 1028,646 1028,645 1028,645 1028,645 1029,645 1029,644 1030,644 1030,643 1030,643 1030,643 1031,643 1031,642 1031,642 1031,642 1032,641 1032,641 1032,640 1033,640 1034,640 1034,639 1034,639 1034,638 1035,638 1035,637 1035,637 1035,637 1036,637 1036,636 1037,636 1037,636 1037,636 1038,636 1038,635 1038,635 1038,635 1039,635 1039,634 1040,634 1040,633 1040,633 1040,633 1041,633 1041,632 1041,632 1041,631 1042,631 1042,629 1043,629 1043,627 1043,625 1044,625 1044,624 1044,624 1044,623 1045,623 1045,622 1046,622 1046,621 1046,621 1046,621 1047,621 1047,620 1047,620 1047,619 1048,619 1048,617 1048,617 1048,617 1049,617 1049,615 1050,615 1050,614 1050,614 1051,613 1051,613 1051,613 1052,613 1052,612 1053,612 1053,610 1053,610 1053,610 1054,610 1054,610 1054,610 1054,610 1055,610 1055,609 1056,609 1056,609 1056,609 1056,608 1057,607 1057,607 1057,605 1058,605 1058,604 1059,604 1059,603 1059,603 1059,601 1060,601 1060,599 1060,599 1061,599 1061,599 1062,599 1062,598 1062,598 1062,596 1063,596 1063,594 1063,594 1063,593 1064,593 1064,593 1064,593 1064,592 1065,592 1065,591 1066,591 1066,587 1066,587 1066,585 1067,585 1067,582 1067,582 1067,581 1068,581 1068,580 1069,580 1069,579 1069,579 1069,578 1070,578 1070,576 1070,576 1070,576 1071,576 1071,575 1072,574 1072,574 1072,572 1073,572 1073,570 1073,570 1073,569 1074,569 1074,567 1075,567 1075,567 1075,567 1075,566 1076,566 1076,565 1076,565 1076,564 1077,564 1077,562 1078,561 1078,561 1078,558 1079,558 1079,557 1079,557 1079,556 1080,556 1080,555 1080,555 1080,554 1081,552 1082,551 1082,551 1082,550 1083,549 1083,549 1083,549 1084,549 1084,548 1085,548 1085,547 1085,547 1085,546 1086,546 1086,545 1086,545 1086,545 1087,545 1087,544 1088,544 1088,544 1088,544 1088,544 1089,544 1089,543 1089,542 1090,542 1090,542 1091,542 1091,541 1091,541 1091,539 1092,539 1092,538 1092,538 1092,538 1093,538 1093,537 1094,537 1094,536 1094,536 1094,534 1095,534 1095,534 1095,534 1095,533 1096,533 1096,533 1096,533 1096,532 1097,532 1097,532 1098,532 1098,531 1098,531 1098,531 1099,530 1099,530 1099,529 1100,529 1100,529 1101,529 1101,528 1101,528 1101,528 1102,528 1102,527 1102,527 1102,527 1103,527 1103,525 1104,525 1104,525 1104,524 1105,524 1105,523 1105,523 1105,522 1106,522 1106,522 1107,522 1107,521 1107,521 1107,519 1108,519 1108,519 1108,519 1108,518 1109,518 1109,517 1110,517 1110,517 1110,517 1110,516 1111,516 1111,514 1111,514 1111,513 1112,513 1112,513 1112,513 1112,512 1113,512 1113,510 1114,510 1114,509 1114,509 1114,507 1115,507 1115,507 1115,506 1116,506 1116,504 1117,504 1117,503 1117,503 1117,501 1118,502 1118,501 1118,501 1118,498 1119,498 1119,498 1120,498 1120,496 1120,496 1120,496 1121,496 1121,494 1121,494 1121,493 1122,493 1122,493 1123,493 1123,492 1123,492 1123,492 1124,492 1124,490 1124,490 1124,489 1125,489 1125,489 1126,489 1126,489 1126,489 1126,487 1127,487 1127,486 1127,486 1127,485 1128,485 1128,483 1128,483 1128,481 1129,481 1129,476 1130,476 1130,474 1130,474 1130,474 1131,474 1131,473 1131,473 1132,473 1132,472 1133,472 1133,471 1133,469 1134,469 1134,469 1134,469 1134,468 1135,468 1135,467 1136,467 1136,465 1136,465 1136,465 1137,465 1137,463 1137,463 1137,462 1138,461 1138,461 1139,461 1139,458 1139,458 1139,458 1140,457 1140,457 1140,456 1141,456 1141,455 1142,455 1142,453 1142,453 1142,453 1143,453 1143,453 1143,453 1143,453 1144,453 1144,452 1144,452 1144,451 1145,451 1145,451 1146,451 1146,450 1146,450 1146,449 1147,449 1147,448 1147,448 1147,448 1148,448 1148,447 1149,447 1149,447 1149,447 1149,447 1150,447 1150,447 1150,447 1150,447 1151,447 1151,447 1152,447 1152,446 1152,446 1152,445 1153,445 1153,444 1153,444 1153,444 1154,444 1154,444 1155,444 1155,444 1155,444 1155,443 1156,443 1156,442 1156,442 1156,441 1157,441 1157,440 1158,440 1158,439 1158,439 1158,439 1159,439 1159,438 1159,438 1159,436 1160,436 1160,435 1160,435 1160,434 1161,434 1161,434 1162,434 1162,433 1162,433 1162,430 1163,430 1163,429 1163,429 1163,429 1164,429 1164,429 1165,429 1165,428 1165,428 1165,427 1166,427 1166,427 1166,427 1166,427 1167,427 1167,427 1168,425 1168,425 1168,423 1169,423 1169,422 1169,422 1169,421 1170,421 1170,420 1171,420 1171,418 1171,418 1171,418 1172,418 1172,418 1172,418 1172,417 1173,417 1173,417 1174,417 1174,416 1174,416 1174,417 1175,417 1175,416 1175,416 1175,415 1176,415 1176,415 1176,415 1176,414 1177,414 1177,414 1178,414 1178,413 1178,413 1178,412 1179,412 1179,423 1179,423 1180,423 1180,423 1181,423 1181,422 1181,422 1181,420 1182,420 1182,420 1182,419 1183,419 1183,419 1184,419 1184,418 1184,418 1184,418 1185,418 1185,417 1185,417 1185,417 1186,417 1186,416 1187,416 1187,416 1187,416 1187,416 1188,416 1188,415 1188,415 1188,414 1189,414 1189,414 1190,414 "/>
<polyline fill="none" opacity="1" stroke="#E6C819" stroke-width="2" points="766,738 772,738 777,737 779,736 800,736 806,736 820,735 821,734 823,734 825,734 827,733 829,733 830,733 830,733 831,733 832,733 835,733 836,733 836,733 837,732 839,732 840,732 840,732 841,732 842,732 843,732 843,732 844,732 845,732 845,732 846,731 846,731 848,732 849,732 851,732 851,732 852,732 852,732 853,732 854,732 855,732 855,732 856,732 857,732 858,732 859,732 859,731 860,731 861,731 862,731 864,731 864,731 865,731 866,730 867,730 867,730 868,730 868,730 869,729 870,729 870,729 871,729 871,729 872,729 872,729 873,729 874,729 874,729 875,728 875,728 876,728 877,728 877,728 878,729 878,729 879,729 880,729 880,729 881,729 882,729 883,728 883,728 884,727 884,727 885,728 886,728 886,728 887,728 887,728 888,728 888,728 890,728 890,728 891,727 891,727 892,727 893,727 894,727 894,727 895,727 896,727 896,727 897,727 897,727 898,727 899,727 899,727 900,727 900,727 901,727 902,727 902,727 903,727 903,727 904,727 904,727 905,727 906,727 907,727 907,727 908,727 909,727 909,727 910,726 910,726 911,726 912,725 912,725 913,725 913,725 914,725 915,725 915,725 916,725 916,725 917,725 918,725 918,725 919,725 919,725 920,725 920,725 921,725 922,725 922,725 923,725 923,725 924,725 925,725 925,725 926,725 927,725 928,725 929,725 929,724 930,724 931,724 931,723 932,723 933,723 934,723 934,723 935,723 935,723 936,724 937,724 938,723 938,723 939,723 939,723 939,723 940,723 941,723 941,723 942,723 942,723 944,723 944,723 945,723 945,723 946,724 947,724 947,724 948,724 948,724 949,724 950,724 950,724 951,724 951,724 952,724 952,723 953,723 954,723 954,723 955,723 956,723 957,723 957,723 958,723 958,724 959,724 960,724 960,724 961,724 961,724 962,724 963,724 963,724 964,724 964,724 965,724 966,724 967,724 967,724 968,724 968,724 969,723 970,724 970,724 971,724 971,724 972,724 973,724 973,724 974,724 974,724 975,724 976,724 976,724 977,724 977,724 979,724 979,724 980,724 980,724 981,724 982,724 982,724 983,724 983,724 984,724 984,724 985,724 986,724 987,724 987,724 988,724 989,724 989,724 990,724 990,724 991,724 992,724 992,724 993,724 993,724 994,724 995,724 995,724 996,724 996,724 997,724 998,724 998,724 999,724 999,724 1000,724 1000,724 1001,724 1002,724 1002,724 1003,724 1003,724 1004,723 1005,723 1005,723 1006,722 1006,722 1007,722 1008,722 1008,722 1009,722 1009,723 1010,723 1011,723 1011,722 1012,722 1012,722 1013,722 1014,722 1014,722 1015,722 1015,722 1016,722 1017,722 1018,722 1018,722 1019,722 1019,722 1020,722 1021,722 1021,722 1022,722 1022,722 1022,722 1023,722 1023,722 1024,722 1024,722 1024,722 1025,722 1025,722 1025,722 1026,722 1026,722 1027,722 1027,722 1027,722 1027,723 1028,723 1028,723 1028,723 1028,723 1029,723 1029,723 1030,723 1030,723 1030,723 1030,723 1031,723 1031,723 1031,723 1031,722 1032,722 1032,722 1032,722 1033,722 1034,722 1034,722 1034,722 1034,722 1035,722 1035,722 1035,722 1035,722 1036,722 1036,722 1037,722 1037,722 1037,722 1038,722 1038,722 1038,722 1038,722 1039,722 1039,722 1040,722 1040,722 1040,722 1040,722 1041,722 1041,722 1041,722 1041,722 1042,722 1042,722 1043,722 1043,722 1043,722 1044,722 1044,722 1044,722 1044,722 1045,722 1045,722 1046,722 1046,722 1046,722 1046,722 1047,722 1047,722 1047,722 1047,722 1048,722 1048,722 1048,722 1048,722 1049,722 1049,722 1050,722 1050,722 1050,722 1051,722 1051,722 1051,722 1052,722 1052,722 1053,722 1053,722 1053,722 1053,722 1054,722 1054,722 1054,722 1054,722 1055,722 1055,722 1056,722 1056,722 1056,722 1056,722 1057,722 1057,722 1057,722 1058,722 1058,722 1059,722 1059,722 1059,722 1060,722 1060,722 1060,722 1061,722 1061,722 1062,722 1062,722 1062,722 1062,722 1063,722 1063,722 1063,722 1063,722 1064,722 1064,722 1064,722 1064,722 1065,722 1065,722 1066,722 1066,722 1066,722 1066,722 1067,722 1067,722 1067,722 1067,722 1068,722 1068,722 1069,722 1069,722 1069,722 1069,722 1070,722 1070,722 1070,722 1070,722 1071,722 1071,722 1072,722 1072,722 1072,722 1073,722 1073,722 1073,722 1073,722 1074,722 1074,722 1075,722 1075,722 1075,722 1075,722 1076,722 1076,722 1076,722 1076,722 1077,722 1077,722 1078,723 1078,723 1078,723 1079,723 1079,723 1079,723 1079,723 1080,723 1080,723 1080,723 1080,723 1081,723 1082,723 1082,723 1082,723 1083,723 1083,723 1083,723 1084,723 1084,723 1085,723 1085,723 1085,723 1085,723 1086,723 1086,723 1086,723 1086,723 1087,723 1087,723 1088,723 1088,723 1088,723 1088,723 1089,723 1089,723 1089,723 1090,723 1090,723 1091,723 1091,723 1091,723 1091,723 1092,723 1092,723 1092,723 1092,723 1093,723 1093,723 1094,723 1094,723 1094,723 1094,723 1095,723 1095,723 1095,723 1095,723 1096,723 1096,723 1096,723 1096,723 1097,723 1097,723 1098,723 1098,723 1098,723 1098,723 1099,723 1099,723 1099,723 1100,723 1100,723 1101,723 1101,723 1101,723 1101,723 1102,723 1102,723 1102,723 1103,723 1103,723 1104,723 1104,723 1104,723 1105,723 1105,723 1105,723 1105,723 1106,723 1106,723 1107,723 1107,723 1107,723 1107,723 1108,723 1108,723 1108,723 1108,723 1109,723 1109,723 1110,723 1110,723 1110,723 1110,723 1111,723 1111,723 1111,723 1111,723 1112,723 1112,724 1112,724 1112,724 1113,724 1113,724 1114,724 1114,724 1114,724 1114,724 1115,724 1115,724 1115,724 1116,724 1116,724 1117,724 1117,724 1117,724 1117,724 1118,724 1118,724 1118,724 1118,724 1119,724 1119,724 1120,724 1120,724 1120,724 1120,724 1121,724 1121,724 1121,724 1121,724 1122,724 1122,724 1123,724 1123,724 1123,724 1123,724 1124,724 1124,724 1124,724 1124,724 1125,724 1125,724 1126,724 1126,724 1126,724 1126,724 1127,724 1127,724 1127,724 1127,724 1128,724 1128,724 1128,724 1129,724 1129,724 1130,724 1130,724 1130,724 1130,724 1131,724 1131,724 1131,724 1132,724 1132,724 1133,724 1133,724 1133,724 1134,724 1134,724 1134,724 1134,724 1135,724 1135,724 1136,724 1136,724 1136,724 1136,724 1137,724 1137,724 1137,724 1137,724 1138,724 1138,724 1139,724 1139,724 1139,724 1139,724 1140,724 1140,724 1140,724 1141,724 1141,724 1142,724 1142,724 1142,724 1142,724 1143,724 1143,724 1143,724 1143,724 1144,724 1144,724 1144,724 1144,724 1145,724 1146,724 1146,724 1146,724 1146,724 1147,724 1147,724 1147,724 1147,724 1148,724 1148,724 1149,724 1149,724 1149,724 1150,724 1150,724 1150,724 1150,724 1151,724 1151,724 1152,724 1152,724 1152,724 1152,724 1153,724 1153,724 1153,724 1153,724 1154,724 1154,724 1155,724 1155,724 1155,724 1155,724 1156,724 1156,724 1156,724 1156,724 1157,724 1158,724 1158,724 1158,724 1158,724 1159,724 1159,724 1159,724 1159,724 1160,724 1160,724 1160,724 1160,724 1161,724 1161,724 1162,724 1162,724 1162,724 1162,724 1163,724 1163,724 1163,724 1163,724 1164,724 1164,724 1165,724 1165,724 1165,724 1165,724 1166,724 1166,725 1166,725 1166,725 1167,725 1167,725 1168,725 1168,725 1168,725 1169,725 1169,725 1169,725 1169,725 1170,725 1170,725 1171,725 1171,725 1171,725 1171,725 1172,725 1172,725 1172,725 1172,725 1173,725 1173,725 1174,725 1174,725 1174,725 1174,725 1175,725 1175,725 1175,725 1175,725 1176,725 1176,725 1176,725 1176,725 1177,725 1177,725 1178,725 1178,725 1178,725 1178,725 1179,725 1179,726 1179,726 1180,726 1180,726 1181,726 1181,726 1181,726 1181,726 1182,726 1182,725 1182,725 1182,725 1183,725 1183,725 1184,725 1184,725 1184,725 1184,725 1185,725 1185,725 1185,725 1185,725 1186,725 1186,725 1187,725 1187,725 1187,725 1187,725 1188,725 1188,725 1188,725 1188,725 1189,725 1189,725 1190,725 "/>
<polyline fill="none" opacity="1" stroke="#54E619" stroke-width="2" points="220,737 221,733 225,735 230,733 237,731 237,729 238,727 243,726 253,724 254,724 255,721 259,719 261,716 262,714 263,714 263,712 266,711 267,713 269,710 270,705 272,703 273,702 276,700 278,699 279,699 281,691 281,686 282,683 283,681 286,681 288,679 288,678 289,676 291,675 291,675 292,673 292,674 293,674 294,674 295,673 295,673 296,673 297,673 297,673 298,671 298,670 299,670 299,669 300,667 301,667 301,664 302,663 302,661 303,657 304,656 305,654 305,653 307,653 307,650 311,651 311,650 312,648 313,647 313,645 314,644 315,643 315,641 316,637 317,633 318,632 319,626 320,625 320,623 321,622 321,622 323,619 323,618 324,617 325,616 326,614 326,612 327,611 327,603 328,600 329,596 329,586 330,585 330,584 331,584 331,583 332,582 333,577 333,574 334,575 334,569 336,567 336,567 337,566 337,565 338,566 339,566 339,566 340,562 340,562 341,561 342,560 342,553 343,554 343,554 344,555 345,555 345,555 346,553 347,553 349,553 349,551 350,548 350,549 351,548 352,548 352,549 353,548 353,548 354,548 355,547 355,548 356,544 356,544 357,542 358,540 358,538 359,539 359,539 360,536 361,532 361,530 362,530 363,527 363,523 364,523 365,523 365,523 366,524 366,523 367,522 368,521 368,521 369,522 369,518 370,519 371,519 371,517 372,517 372,515 373,513 374,511 374,511 375,509 375,509 376,507 377,504 377,504 378,505 378,505 379,504 379,503 380,497 381,496 381,492 382,491 382,492 383,492 384,490 384,489 385,485 385,483 386,482 387,481 387,479 388,479 388,479 389,479 390,479 390,478 391,479 391,479 392,480 393,477 393,478 394,478 394,478 395,476 395,475 396,473 397,472 397,470 398,469 398,468 399,467 400,464 400,463 401,463 401,462 402,463 403,464 403,462 404,461 404,461 405,457 406,454 406,452 407,450 407,448 408,449 409,446 409,446 410,445 410,444 411,444 411,441 412,441 413,441 413,438 414,437 414,436 415,431 416,427 416,427 417,427 417,429 418,425 419,421 419,420 420,421 420,420 421,419 422,419 422,420 423,419 423,421 424,417 425,414 425,413 426,413 426,413 427,414 427,414 428,413 429,414 429,412 430,412 430,412 431,412 432,410 432,407 433,407 433,406 434,405 435,401 435,401 436,401 436,400 437,399 438,398 438,398 439,396 439,396 440,394 441,394 441,393 442,392 442,391 443,390 443,390 444,391 445,389 445,390 446,391 446,390 447,389 448,388 448,387 449,386 449,387 450,384 451,383 451,377 452,377 452,378 453,374 454,371 454,369 455,367 455,366 456,366 457,364 457,361 458,360 458,360 459,358 459,358 460,356 461,356 461,356 462,356 462,355 463,354 464,353 464,352 465,354 465,353 466,352 467,351 467,350 468,349 468,348 469,345 470,345 470,346 471,346 471,343 472,342 473,340 473,338 474,338 474,337 475,337 475,334 476,334 477,334 477,330 478,329 478,329 479,327 480,323 480,322 481,322 481,322 482,321 483,318 483,317 484,315 484,316 485,316 486,315 486,315 487,314 487,313 488,313 489,315 489,315 490,315 490,316 491,316 491,316 492,316 493,296 493,295 494,294 494,295 495,293 496,290 496,289 497,288 497,288 498,287 499,287 499,286 500,284 500,286 501,285 502,284 502,282 503,281 503,281 504,279 505,278 505,277 506,278 506,278 507,279 507,279 508,279 509,278 509,279 510,280 510,280 511,281 512,281 512,281 513,280 513,279 514,280 515,280 515,280 516,280 516,280 517,280 518,281 518,280 519,276 519,275 520,273 521,273 521,273 522,273 522,274 523,271 523,268 524,269 525,270 525,270 526,270 526,270 527,270 528,270 528,270 529,269 529,269 530,271 531,271 531,271 532,270 532,268 533,268 534,268 534,268 535,266 535,267 536,264 537,263 537,263 538,264 538,263 539,264 539,266 540,267 541,269 541,267 542,267 542,266 543,265 544,265 544,264 545,265 545,264 546,263 547,261 547,260 548,261 548,261 549,258 550,256 550,255 551,255 551,254 552,254 553,254 553,254 554,256 554,254 555,254 555,254 556,255 557,256 557,256 558,254 558,255 559,256 560,256 560,257 561,257 561,257 562,256 563,255 563,256 564,257 564,258 565,259 566,259 566,260 567,260 567,261 568,265 569,265 569,265 570,266 570,266 571,265 571,266 572,266 573,267 573,267 574,267 574,267 575,267 576,267 576,268 577,268 577,267 578,266 579,267 579,268 580,269 580,269 581,269 582,271 582,271 583,271 583,272 584,273 585,274 585,275 586,277 586,277 587,278 587,283 588,284 589,285 589,286 590,285 590,286 591,286 592,287 592,288 593,285 593,285 594,285 595,286 595,287 596,288 596,289 597,290 598,290 598,289 599,289 599,290 600,291 601,291 601,292 602,293 602,295 603,295 603,294 604,295 605,295 605,294 606,294 606,294 607,295 608,297 608,297 609,298 609,298 610,299 611,300 611,300 612,300 612,300 613,301 614,303 614,304 615,303 615,303 616,304 617,305 617,304 618,305 618,304 619,305 619,306 620,307 621,307 621,306 622,306 622,306 623,307 624,308 624,309 625,308 625,309 626,308 627,309 627,309 628,310 628,311 629,312 630,313 630,313 631,314 631,313 632,313 632,311 633,312 634,312 634,312 635,312 635,313 636,316 637,316 637,317 638,318 638,320 639,320 640,321 640,321 641,321 641,321 642,321 643,320 643,320 644,322 644,322 645,321 646,321 646,322 647,323 647,323 648,323 648,323 649,323 650,324 650,324 651,325 651,325 652,326 653,325 653,326 654,326 654,327 655,328 656,328 656,329 657,329 657,330 658,330 659,330 659,330 660,330 660,331 661,331 662,331 662,331 663,332 663,332 664,332 664,332 665,332 666,333 666,333 667,334 667,331 668,332 669,332 669,331 670,332 670,332 671,335 672,336 672,336 673,336 673,337 674,337 675,338 675,338 676,339 676,340 677,341 678,341 678,342 679,344 679,345 680,345 680,347 681,347 682,347 682,347 683,348 683,348 684,350 685,350 685,351 686,352 686,351 687,353 688,353 688,354 689,354 689,353 690,352 691,352 691,355 692,355 692,356 693,356 694,356 694,359 695,359 695,360 696,360 696,360 697,360 698,360 698,360 699,360 699,361 700,361 701,362 701,363 702,363 702,363 703,364 704,364 704,364 705,365 705,365 706,365 707,365 707,365 708,366 708,366 709,366 710,366 710,367 710,367 711,366 711,367 712,366 712,367 713,368 714,369 714,371 715,373 715,372 716,372 717,372 717,372 718,372 718,373 719,373 720,374 720,375 721,376 721,379 722,376 723,377 723,377 724,379 724,379 725,379 726,380 726,380 727,381 727,381 728,382 728,382 729,382 730,382 730,382 731,383 731,384 732,383 733,383 733,383 734,384 734,384 735,384 736,385 736,387 737,400 737,401 738,402 739,402 739,402 740,403 740,402 741,402 742,403 742,404 743,403 743,404 744,404 744,404 745,404 746,405 746,405 747,405 747,406 748,406 749,407 749,407 750,407 750,408 751,407 752,408 752,408 753,409 753,410 754,411 755,411 755,411 756,412 756,412 757,413 758,413 758,413 759,414 759,415 760,415 760,415 761,416 762,416 762,417 763,417 763,418 764,418 765,419 765,419 766,420 766,419 767,420 768,420 768,422 769,422 769,423 770,424 771,425 771,426 772,438 772,438 773,438 774,426 774,427 775,427 775,427 776,429 776,429 777,429 778,430 778,429 779,430 779,430 780,429 781,430 781,430 782,431 782,431 783,431 784,430 784,431 785,431 785,431 786,432 787,432 787,433 788,434 788,434 789,436 790,436 790,437 791,437 791,437 792,438 792,438 793,439 794,440 794,439 795,439 795,440 796,440 797,440 797,439 798,440 798,440 799,440 800,441 800,441 801,442 801,442 802,443 803,443 803,443 804,444 804,445 805,445 806,446 806,446 807,446 807,446 808,447 808,447 809,448 810,448 810,449 811,449 811,450 812,450 813,451 813,451 814,451 814,451 815,452 816,453 816,453 817,453 817,454 818,454 819,454 819,455 820,455 820,455 821,456 822,456 822,457 823,457 823,458 824,456 824,456 825,456 826,457 826,458 827,458 827,458 828,459 829,459 829,459 830,460 830,460 831,461 832,461 832,461 833,461 833,462 834,462 835,463 835,463 836,464 836,464 837,464 838,464 838,465 839,465 839,465 840,466 840,467 841,468 842,468 842,468 843,469 843,469 844,470 845,470 845,471 846,472 846,471 847,472 848,472 848,472 849,473 849,473 850,474 851,474 851,474 852,474 852,475 853,475 854,476 854,475 855,476 855,475 856,475 856,475 857,475 858,475 858,476 859,476 859,477 860,477 861,477 861,478 862,478 862,478 863,478 864,479 864,479 865,479 865,480 866,481 867,481 867,481 868,482 868,482 869,482 870,482 870,483 871,483 871,483 872,484 872,484 873,484 874,484 874,485 875,485 875,486 876,486 877,486 877,486 878,486 878,486 879,487 880,487 880,487 881,487 881,487 882,488 883,487 883,488 884,488 884,488 885,489 886,489 886,490 887,490 887,490 888,490 888,491 889,491 890,491 890,491 891,492 891,492 892,492 893,492 893,493 894,493 894,493 895,493 896,493 896,493 897,493 897,494 898,494 899,494 899,494 900,495 900,496 901,496 902,497 902,497 903,497 903,497 904,497 904,497 905,498 906,498 906,498 907,499 907,499 908,499 909,499 909,500 910,500 910,500 911,500 912,500 912,501 913,501 913,502 914,502 915,502 915,502 916,503 916,503 917,504 918,504 918,504 919,504 919,505 920,505 920,505 921,505 922,506 922,506 923,506 923,506 924,507 925,505 925,506 926,506 926,506 927,506 928,506 928,507 929,507 929,507 930,507 931,507 931,508 932,508 932,508 933,508 934,508 934,509 935,509 935,508 936,509 936,509 937,510 938,511 938,511 939,511 939,511 939,512 940,512 941,512 941,512 942,513 942,513 943,513 944,513 944,513 945,514 945,514 946,515 947,515 947,515 948,515 948,515 949,516 950,515 950,516 951,516 951,516 952,516 952,516 953,516 954,516 954,516 955,516 955,516 956,516 957,517 957,517 958,518 958,518 959,519 960,519 960,519 961,519 961,520 962,520 963,520 963,521 964,521 964,521 965,521 966,521 966,521 967,522 967,522 968,522 968,522 969,522 970,523 970,523 971,523 971,524 972,524 973,524 973,524 974,525 974,525 975,526 976,526 976,526 977,526 977,526 978,526 979,527 979,527 980,527 980,527 981,527 982,528 982,528 983,528 983,528 984,528 984,529 985,529 986,530 986,530 987,530 987,531 988,531 989,532 989,532 990,533 990,533 991,533 992,533 992,533 993,535 993,535 994,535 995,536 995,537 996,537 996,537 997,537 998,538 998,538 999,538 999,539 1000,539 1000,539 1001,539 1002,539 1002,539 1003,539 1003,540 1004,540 1005,540 1005,541 1006,541 1006,542 1007,541 1008,541 1008,541 1009,541 1009,541 1010,542 1011,542 1011,542 1012,542 1012,543 1013,543 1014,544 1014,544 1015,543 1015,544 1016,544 1016,544 1017,544 1018,545 1018,545 1019,545 1019,545 1020,545 1021,546 1021,546 1022,546 1022,546 1022,546 1023,546 1023,547 1024,547 1024,547 1024,547 1025,547 1025,548 1025,548 1026,548 1026,548 1027,548 1027,549 1027,549 1027,549 1028,549 1028,549 1028,549 1028,549 1029,549 1029,549 1030,549 1030,550 1030,550 1030,550 1031,550 1031,550 1031,550 1031,551 1032,551 1032,551 1032,552 1033,552 1034,552 1034,552 1034,552 1034,553 1035,553 1035,553 1035,553 1035,553 1036,553 1036,553 1037,553 1037,553 1037,553 1038,553 1038,553 1038,553 1038,553 1039,553 1039,554 1040,554 1040,554 1040,554 1040,554 1041,554 1041,555 1041,555 1041,555 1042,555 1042,555 1043,555 1043,556 1043,556 1044,556 1044,556 1044,556 1044,556 1045,556 1045,557 1046,557 1046,557 1046,557 1046,557 1047,557 1047,557 1047,557 1047,558 1048,558 1048,558 1048,558 1048,558 1049,558 1049,558 1050,558 1050,558 1050,558 1051,558 1051,558 1051,559 1052,559 1052,559 1053,559 1053,559 1053,559 1053,560 1054,560 1054,560 1054,560 1054,560 1055,560 1055,561 1056,561 1056,561 1056,561 1056,561 1057,561 1057,561 1057,561 1058,561 1058,561 1059,561 1059,562 1059,562 1059,561 1060,561 1060,562 1060,562 1061,562 1061,562 1062,562 1062,563 1062,563 1062,563 1063,563 1063,562 1063,562 1063,563 1064,563 1064,563 1064,563 1064,563 1065,563 1065,564 1066,564 1066,564 1066,564 1066,564 1067,564 1067,564 1067,564 1067,564 1068,564 1068,565 1069,565 1069,565 1069,565 1069,565 1070,565 1070,566 1070,566 1070,565 1071,565 1071,565 1072,566 1072,566 1072,566 1073,566 1073,566 1073,566 1073,566 1074,566 1074,567 1075,567 1075,567 1075,567 1075,567 1076,567 1076,567 1076,567 1076,568 1077,568 1077,568 1078,568 1078,568 1078,568 1079,568 1079,568 1079,568 1079,569 1080,569 1080,570 1080,570 1080,570 1081,570 1082,570 1082,570 1082,570 1083,570 1083,570 1083,570 1084,570 1084,570 1085,570 1085,570 1085,570 1085,570 1086,570 1086,570 1086,570 1086,570 1087,570 1087,571 1088,571 1088,570 1088,570 1088,570 1089,570 1089,571 1089,571 1090,571 1090,571 1091,571 1091,571 1091,571 1091,571 1092,571 1092,571 1092,571 1092,571 1093,571 1093,572 1094,572 1094,572 1094,572 1094,572 1095,572 1095,572 1095,572 1095,572 1096,572 1096,573 1096,573 1096,573 1097,573 1097,573 1098,573 1098,573 1098,573 1098,573 1099,573 1099,573 1099,574 1100,574 1100,574 1101,574 1101,574 1101,573 1101,574 1102,574 1102,574 1102,574 1102,574 1103,574 1103,575 1104,575 1104,575 1104,575 1105,575 1105,575 1105,575 1105,575 1106,575 1106,575 1107,575 1107,576 1107,576 1107,576 1108,576 1108,575 1108,575 1108,575 1109,575 1109,576 1110,576 1110,576 1110,576 1110,576 1111,576 1111,576 1111,576 1111,576 1112,576 1112,576 1112,576 1112,576 1113,576 1113,576 1114,576 1114,577 1114,577 1114,577 1115,577 1115,577 1115,577 1116,577 1116,578 1117,578 1117,578 1117,578 1117,578 1118,578 1118,578 1118,578 1118,578 1119,578 1119,579 1120,579 1120,579 1120,579 1120,579 1121,579 1121,579 1121,579 1121,579 1122,579 1122,579 1123,579 1123,579 1123,579 1123,580 1124,580 1124,580 1124,580 1124,580 1125,580 1125,581 1126,581 1126,581 1126,581 1126,581 1127,581 1127,581 1127,581 1127,582 1128,582 1128,582 1128,582 1128,582 1129,582 1129,582 1130,582 1130,582 1130,582 1130,582 1131,582 1131,582 1131,583 1132,583 1132,583 1133,583 1133,583 1133,583 1134,583 1134,583 1134,583 1134,583 1135,583 1135,584 1136,584 1136,584 1136,584 1136,584 1137,584 1137,584 1137,584 1137,584 1138,584 1138,584 1139,584 1139,585 1139,585 1139,585 1140,585 1140,585 1140,585 1141,585 1141,585 1142,585 1142,585 1142,585 1142,586 1143,586 1143,586 1143,586 1143,586 1144,586 1144,586 1144,586 1144,586 1145,586 1145,586 1146,586 1146,587 1146,587 1146,587 1147,587 1147,587 1147,587 1147,587 1148,587 1148,588 1149,588 1149,588 1149,588 1149,588 1150,588 1150,588 1150,588 1150,588 1151,588 1151,589 1152,589 1152,589 1152,589 1152,589 1153,589 1153,589 1153,589 1153,589 1154,589 1154,589 1155,589 1155,590 1155,590 1155,590 1156,590 1156,590 1156,590 1156,590 1157,590 1157,590 1158,590 1158,591 1158,591 1158,591 1159,591 1159,591 1159,591 1159,591 1160,591 1160,591 1160,591 1160,591 1161,591 1161,592 1162,592 1162,592 1162,592 1162,592 1163,592 1163,592 1163,592 1163,592 1164,592 1164,592 1165,592 1165,592 1165,592 1165,593 1166,593 1166,593 1166,593 1166,593 1167,593 1167,593 1168,593 1168,593 1168,593 1169,593 1169,593 1169,593 1169,593 1170,593 1170,593 1171,593 1171,593 1171,593 1171,593 1172,593 1172,594 1172,594 1172,594 1173,594 1173,594 1174,594 1174,594 1174,594 1174,594 1175,594 1175,594 1175,594 1175,594 1176,594 1176,595 1176,595 1176,595 1177,595 1177,595 1178,595 1178,595 1178,595 1178,595 1179,595 1179,601 1179,601 1180,601 1180,601 1181,601 1181,601 1181,601 1181,601 1182,601 1182,601 1182,601 1182,601 1183,601 1183,601 1184,601 1184,602 1184,602 1184,602 1185,602 1185,602 1185,602 1185,602 1186,602 1186,602 1187,602 1187,602 1187,602 1187,603 1188,603 1188,603 1188,603 1188,603 1189,603 1189,603 1190,603 "/>
<polyline fill="none" opacity="1" stroke="#19E68E" stroke-width="2" points="524,738 525,737 526,736 527,734 528,732 528,731 529,730 530,729 531,725 531,725 532,723 532,720 533,719 534,718 534,717 535,716 535,714 536,713 538,712 539,710 539,707 540,706 541,704 541,704 542,701 544,699 545,696 545,695 547,694 547,694 548,693 549,690 550,689 550,688 551,685 551,684 552,684 553,683 553,682 554,680 555,678 555,673 556,672 557,672 557,671 558,670 558,669 559,668 560,668 560,664 561,665 561,665 562,664 563,663 563,660 564,660 564,659 565,658 566,655 566,654 567,652 567,650 568,648 569,645 569,644 570,643 570,640 571,640 571,638 572,637 573,636 573,635 574,630 574,628 575,629 576,629 576,628 577,628 577,628 578,627 579,627 579,626 580,624 580,621 581,620 582,617 582,615 583,612 583,610 584,608 585,606 585,604 586,599 586,594 587,593 587,593 588,593 589,588 589,584 590,580 590,579 591,578 592,578 592,575 593,575 593,574 594,574 595,573 595,571 596,571 596,570 597,566 598,565 598,564 599,564 599,562 600,562 601,560 601,559 602,558 602,556 603,556 603,554 604,553 605,552 605,551 606,549 606,547 607,545 608,543 608,543 609,540 609,539 610,535 611,530 611,527 612,525 612,523 613,519 614,516 614,515 615,515 615,514 616,513 617,511 617,510 618,509 618,503 619,500 619,499 620,496 621,495 621,493 622,490 622,488 623,488 624,484 624,482 625,483 625,482 626,481 627,479 627,476 628,475 628,472 629,472 630,469 630,463 631,463 631,461 632,461 632,461 633,460 634,458 634,457 635,456 635,455 636,450 637,450 637,449 638,443 638,438 639,437 640,434 640,433 641,432 641,431 642,432 643,430 643,431 644,428 644,427 645,426 646,426 646,424 647,423 648,422 648,422 649,421 650,420 650,419 651,414 651,412 652,407 653,406 653,403 654,402 654,402 655,403 656,403 656,402 657,400 657,399 658,397 659,397 659,395 660,396 660,393 661,392 662,391 662,391 663,389 663,390 664,389 664,387 665,386 666,383 666,383 667,383 667,382 668,381 669,382 669,381 670,378 670,377 671,372 672,371 672,370 673,369 673,367 674,367 675,367 675,365 676,365 676,364 677,363 678,363 678,361 679,358 679,358 680,356 680,358 681,357 682,355 682,355 683,356 683,354 684,354 685,353 685,352 686,349 686,349 687,347 688,344 688,344 689,341 689,341 690,339 691,338 691,339 692,338 692,337 693,337 694,337 694,338 695,338 695,337 696,336 696,334 697,332 698,330 698,330 699,329 699,328 700,326 701,324 701,322 702,323 702,322 703,321 704,321 704,319 705,317 705,316 706,314 707,313 707,311 708,309 708,307 709,307 710,305 710,305 710,302 711,302 711,302 712,301 712,298 713,296 714,292 714,288 715,286 715,285 716,284 717,284 717,281 718,282 718,281 719,281 720,279 720,280 721,280 721,284 722,280 723,280 723,279 724,278 724,277 725,277 726,272 726,271 727,272 727,269 728,270 728,269 729,268 730,265 730,264 731,263 731,262 732,262 733,263 733,263 734,262 734,259 735,261 736,260 736,258 737,236 737,235 738,236 739,237 739,234 740,235 740,233 741,233 742,233 742,229 743,229 743,228 744,229 744,225 745,224 746,222 746,223 747,222 747,220 748,219 749,220 749,220 750,219 750,216 751,214 752,210 752,208 753,204 753,203 754,201 755,201 755,200 756,198 756,196 757,197 758,197 758,196 759,192 759,190 760,190 760,189 761,187 762,187 762,185 763,184 763,185 764,184 765,184 765,182 766,183 766,182 767,180 768,180 768,177 769,176 769,176 770,175 771,174 771,169 772,190 772,192 773,191 774,170 774,169 775,167 775,167 776,165 776,165 777,165 778,163 778,161 779,162 779,163 780,162 781,162 781,160 782,159 782,159 783,157 784,157 784,156 785,155 785,155 786,156 787,157 787,155 788,155 788,154 789,154 790,154 790,155 791,149 791,149 792,148 792,148 793,145 794,145 794,144 795,144 795,144 796,145 797,145 797,145 798,145 798,145 799,146 800,146 800,145 801,145 801,145 802,143 803,141 803,140 804,139 804,137 805,137 806,138 806,137 807,135 807,134 808,132 808,130 809,131 810,130 810,130 811,129 811,129 812,128 813,129 813,127 814,127 814,127 815,127 816,126 816,126 817,126 817,127 818,127 819,128 819,125 820,125 820,123 821,123 822,122 822,121 823,118 823,118 824,119 824,118 825,118 826,119 826,119 827,117 827,117 828,115 829,113 829,113 830,113 830,113 831,114 832,114 832,114 833,113 833,111 834,111 835,111 835,110 836,110 836,111 837,110 838,109 838,108 839,109 839,107 840,106 840,108 841,108 842,108 842,108 843,108 843,108 844,108 845,107 845,109 846,109 846,110 847,110 848,109 848,109 849,107 849,108 850,106 851,105 851,107 852,108 852,101 853,101 854,102 854,102 855,102 855,101 856,101 856,101 857,102 858,101 858,101 859,101 859,103 860,105 861,105 861,104 862,104 862,103 863,103 864,103 864,103 865,101 865,102 866,101 867,100 867,99 868,99 868,95 869,96 870,95 870,96 871,94 871,92 872,92 872,93 873,90 874,89 874,90 875,89 875,89 876,89 877,88 877,86 878,85 878,86 879,86 880,86 880,85 881,86 881,84 882,84 883,84 883,84 884,85 884,85 885,85 886,85 886,86 887,84 887,84 888,83 888,84 889,83 890,81 890,82 891,83 891,82 892,82 893,84 893,83 894,83 894,83 895,83 896,83 896,83 897,83 897,83 898,82 899,82 899,82 900,83 900,82 901,80 902,80 902,79 903,79 903,79 904,79 904,79 905,76 906,75 906,76 907,76 907,77 908,77 909,77 909,78 910,78 910,79 911,78 912,78 912,78 913,79 913,78 914,78 915,78 915,79 916,80 916,79 917,80 918,78 918,78 919,78 919,78 920,78 920,78 921,78 922,77 922,77 923,77 923,77 924,78 925,79 925,78 926,78 926,77 927,78 928,78 928,79 929,79 929,78 930,79 931,79 931,78 932,78 932,79 933,81 934,81 934,80 935,80 935,80 936,78 936,79 937,79 938,79 938,79 939,79 939,80 939,80 940,83 941,84 941,84 942,85 942,86 943,86 944,86 944,86 945,87 945,87 946,86 947,89 947,90 948,89 948,90 949,95 950,97 950,96 951,99 951,103 952,103 952,104 953,103 954,104 954,104 955,105 955,106 956,110 957,111 957,112 958,113 958,114 959,111 960,112 960,112 961,113 961,113 962,114 963,114 963,115 964,115 964,112 965,112 966,112 966,112 967,112 967,110 968,110 968,111 969,111 970,111 970,111 971,111 971,112 972,112 973,112 973,111 974,112 974,112 975,114 976,114 976,115 977,115 977,115 978,116 979,116 979,111 980,111 980,112 981,113 982,113 982,113 983,114 983,115 984,111 984,110 985,111 986,112 986,112 987,112 987,113 988,113 989,115 989,115 990,115 990,115 991,116 992,116 992,119 993,118 993,118 994,120 995,121 995,121 996,121 996,121 997,124 998,127 998,128 999,127 999,127 1000,127 1000,128 1001,128 1002,128 1002,129 1003,129 1003,129 1004,130 1005,130 1005,131 1006,130 1006,131 1007,132 1008,133 1008,133 1009,134 1009,132 1010,134 1011,135 1011,136 1012,135 1012,135 1013,134 1014,135 1014,135 1015,136 1015,137 1016,136 1016,137 1017,138 1018,140 1018,140 1019,141 1019,142 1020,142 1021,143 1021,140 1022,141 1022,140 1022,141 1023,141 1023,141 1024,141 1024,141 1024,142 1025,142 1025,143 1025,144 1026,144 1026,145 1027,145 1027,150 1027,150 1027,151 1028,151 1028,152 1028,152 1028,154 1029,154 1029,154 1030,154 1030,154 1030,154 1030,155 1031,155 1031,155 1031,155 1031,156 1032,156 1032,156 1032,157 1033,157 1034,157 1034,157 1034,157 1034,155 1035,155 1035,156 1035,156 1035,156 1036,156 1036,156 1037,156 1037,156 1037,157 1038,157 1038,156 1038,156 1038,156 1039,156 1039,156 1040,156 1040,157 1040,157 1040,157 1041,157 1041,157 1041,157 1041,158 1042,158 1042,158 1043,158 1043,158 1043,160 1044,160 1044,161 1044,161 1044,162 1045,162 1045,161 1046,161 1046,163 1046,163 1046,165 1047,165 1047,164 1047,164 1047,166 1048,166 1048,167 1048,167 1048,166 1049,166 1049,167 1050,167 1050,169 1050,169 1051,170 1051,170 1051,170 1052,170 1052,170 1053,170 1053,170 1053,170 1053,170 1054,170 1054,170 1054,170 1054,171 1055,171 1055,172 1056,172 1056,172 1056,172 1056,173 1057,174 1057,175 1057,175 1058,176 1058,176 1059,176 1059,177 1059,177 1059,178 1060,178 1060,179 1060,180 1061,180 1061,181 1062,181 1062,183 1062,183 1062,183 1063,183 1063,184 1063,184 1063,185 1064,185 1064,186 1064,186 1064,186 1065,186 1065,187 1066,187 1066,187 1066,187 1066,187 1067,187 1067,187 1067,187 1067,189 1068,189 1068,190 1069,190 1069,191 1069,191 1069,192 1070,192 1070,192 1070,192 1070,193 1071,193 1071,194 1072,195 1072,195 1072,196 1073,196 1073,197 1073,197 1073,200 1074,200 1074,201 1075,201 1075,201 1075,201 1075,202 1076,202 1076,203 1076,203 1076,203 1077,203 1077,204 1078,204 1078,204 1078,205 1079,205 1079,206 1079,206 1079,207 1080,207 1080,208 1080,208 1080,208 1081,209 1082,212 1082,212 1082,212 1083,213 1083,213 1083,213 1084,213 1084,214 1085,214 1085,215 1085,215 1085,215 1086,216 1086,216 1086,216 1086,218 1087,218 1087,219 1088,219 1088,219 1088,219 1088,220 1089,220 1089,220 1089,220 1090,220 1090,220 1091,220 1091,222 1091,222 1091,223 1092,223 1092,223 1092,223 1092,224 1093,224 1093,225 1094,225 1094,225 1094,225 1094,225 1095,225 1095,226 1095,226 1095,227 1096,227 1096,228 1096,228 1096,228 1097,228 1097,230 1098,230 1098,231 1098,231 1098,231 1099,233 1099,233 1099,233 1100,233 1100,234 1101,234 1101,234 1101,234 1101,235 1102,235 1102,236 1102,236 1102,237 1103,237 1103,237 1104,237 1104,237 1104,238 1105,238 1105,238 1105,238 1105,239 1106,239 1106,239 1107,239 1107,239 1107,240 1107,239 1108,239 1108,241 1108,241 1108,241 1109,241 1109,241 1110,241 1110,242 1110,242 1110,243 1111,243 1111,244 1111,244 1111,244 1112,244 1112,244 1112,244 1112,244 1113,244 1113,245 1114,245 1114,245 1114,245 1114,246 1115,247 1115,247 1115,248 1116,248 1116,249 1117,249 1117,249 1117,249 1117,250 1118,250 1118,251 1118,251 1118,252 1119,252 1119,253 1120,253 1120,253 1120,253 1120,253 1121,253 1121,254 1121,254 1121,255 1122,255 1122,256 1123,256 1123,257 1123,257 1123,257 1124,257 1124,259 1124,259 1124,259 1125,259 1125,259 1126,259 1126,260 1126,260 1126,261 1127,261 1127,262 1127,262 1127,262 1128,262 1128,263 1128,263 1128,264 1129,264 1129,265 1130,265 1130,265 1130,265 1130,265 1131,265 1131,266 1131,266 1132,266 1132,265 1133,265 1133,266 1133,269 1134,269 1134,269 1134,269 1134,269 1135,269 1135,270 1136,270 1136,271 1136,271 1136,271 1137,271 1137,272 1137,272 1137,273 1138,273 1138,274 1139,274 1139,275 1139,275 1139,276 1140,276 1140,276 1140,278 1141,278 1141,278 1142,278 1142,279 1142,279 1142,280 1143,280 1143,280 1143,280 1143,280 1144,280 1144,281 1144,281 1144,280 1145,280 1145,278 1146,278 1146,277 1146,277 1146,278 1147,278 1147,279 1147,279 1147,279 1148,279 1148,279 1149,279 1149,280 1149,280 1149,280 1150,280 1150,280 1150,280 1150,281 1151,281 1151,281 1152,281 1152,282 1152,282 1152,283 1153,283 1153,283 1153,283 1153,284 1154,284 1154,284 1155,284 1155,285 1155,285 1155,286 1156,286 1156,286 1156,286 1156,286 1157,286 1157,287 1158,287 1158,287 1158,287 1158,288 1159,288 1159,288 1159,288 1159,289 1160,289 1160,289 1160,289 1160,290 1161,290 1161,291 1162,291 1162,292 1162,292 1162,292 1163,292 1163,293 1163,293 1163,294 1164,294 1164,294 1165,294 1165,294 1165,294 1165,295 1166,295 1166,295 1166,295 1166,296 1167,296 1167,296 1168,297 1168,297 1168,297 1169,297 1169,298 1169,298 1169,299 1170,299 1170,300 1171,300 1171,300 1171,300 1171,301 1172,301 1172,301 1172,301 1172,301 1173,301 1173,302 1174,302 1174,302 1174,302 1174,303 1175,303 1175,303 1175,303 1175,303 1176,303 1176,305 1176,305 1176,306 1177,306 1177,307 1178,307 1178,307 1178,307 1178,308 1179,308 1179,325 1179,325 1180,325 1180,325 1181,325 1181,326 1181,326 1181,327 1182,327 1182,329 1182,329 1182,329 1183,329 1183,330 1184,330 1184,330 1184,330 1184,330 1185,330 1185,331 1185,331 1185,331 1186,331 1186,331 1187,331 1187,332 1187,332 1187,332 1188,332 1188,333 1188,333 1188,333 1189,333 1189,333 1190,333 "/>
<polyline fill="none" opacity="1" stroke="#198EE6" stroke-width="2" points="60,735 60,732 64,729 73,726 81,723 89,723 90,720 94,717 95,714 96,715 100,712 105,709 105,706 111,704 117,705 118,705 120,700 125,698 129,701 131,701 137,694 137,691 138,691 138,692 139,692 139,692 141,692 141,692 142,690 143,687 144,687 144,687 145,688 146,688 148,688 148,688 149,686 150,686 150,686 151,684 151,684 152,684 153,684 154,684 154,684 155,685 155,685 156,685 157,685 157,685 158,685 158,683 159,683 160,683 161,683 161,683 162,683 163,683 163,684 165,684 166,684 167,682 167,680 168,680 169,678 169,678 170,680 170,680 171,678 171,678 172,678 173,679 174,679 175,679 176,677 176,677 177,677 177,677 178,677 179,677 180,678 180,678 181,678 182,676 183,673 183,671 184,669 185,669 185,670 186,670 186,670 187,670 187,670 188,670 189,671 190,671 190,671 192,669 192,665 193,663 194,663 195,663 196,664 197,664 198,662 198,662 199,662 200,662 201,662 201,660 202,660 202,661 203,659 204,657 205,657 206,657 207,658 208,658 208,658 209,658 209,658 210,656 211,657 211,657 212,657 212,657 213,657 214,657 215,655 215,654 216,654 217,654 217,652 218,652 218,652 219,652 219,653 220,651 221,651 221,651 222,651 222,651 223,650 224,648 225,644 225,644 226,645 227,645 227,643 228,643 229,643 230,643 231,644 232,644 233,644 233,644 234,644 234,644 235,643 236,643 237,643 237,643 238,643 238,644 239,644 241,644 242,645 243,643 243,643 244,641 244,640 245,640 246,640 246,640 247,640 249,641 249,641 250,641 250,641 251,641 251,641 252,640 253,640 254,638 254,639 255,639 256,639 257,639 257,640 258,640 259,638 260,639 261,637 262,638 263,638 263,635 264,635 265,635 265,635 266,635 266,635 267,636 267,636 268,636 269,638 269,638 270,637 271,637 272,638 272,638 273,638 273,638 274,638 275,638 275,639 276,639 276,639 277,639 278,639 278,636 279,635 279,635 280,635 281,635 281,635 282,635 282,635 283,636 283,636 284,636 285,637 285,637 286,637 286,635 287,636 288,636 288,636 289,633 289,633 290,632 291,632 292,630 292,631 293,631 294,632 295,632 295,632 297,632 297,631 298,631 298,631 299,630 299,628 300,628 301,629 302,629 302,627 303,628 304,628 304,628 305,628 305,627 307,626 307,626 308,624 308,624 309,625 310,625 310,625 311,624 311,624 312,624 313,624 313,624 314,624 314,623 315,623 315,623 316,624 317,624 317,624 318,624 319,624 320,625 320,625 321,625 321,624 323,624 323,624 324,624 324,623 325,622 326,621 326,621 327,621 327,623 328,623 329,622 329,622 330,621 330,621 331,622 331,620 332,619 333,618 333,618 334,619 334,619 335,619 336,619 336,619 337,620 337,620 338,619 339,617 339,618 340,618 340,618 341,618 342,617 342,616 343,616 343,616 345,617 345,616 346,614 346,614 347,613 347,614 348,614 349,614 349,610 350,610 350,611 351,610 352,610 352,610 353,610 353,611 354,610 355,609 355,609 356,609 356,610 357,609 358,608 358,608 359,608 359,609 360,608 361,608 361,608 362,608 362,609 363,607 363,608 364,607 365,606 365,606 366,606 366,606 367,606 368,607 368,607 369,607 369,608 370,607 371,604 371,605 372,605 373,606 374,606 374,606 375,606 375,607 377,607 377,606 378,605 378,605 379,605 379,605 380,606 381,606 381,606 382,606 382,605 383,606 384,606 384,606 385,605 385,605 386,605 387,606 387,606 388,606 388,606 389,606 390,606 390,607 391,607 391,606 392,606 393,606 393,607 394,607 394,606 395,605 395,605 396,605 397,605 397,606 398,606 398,606 399,606 400,606 400,607 401,607 401,607 402,605 403,605 403,606 404,606 404,606 405,606 406,606 406,606 407,607 407,607 408,606 409,605 409,605 410,606 410,606 411,605 411,605 412,605 413,605 413,606 414,606 414,605 415,605 416,606 416,605 417,606 417,607 418,607 419,607 419,606 420,605 420,605 421,606 422,606 422,606 423,606 423,605 424,607 425,604 425,604 426,604 426,605 427,605 427,605 428,603 429,604 429,603 430,603 430,602 431,601 432,601 432,601 433,601 433,601 434,601 435,600 435,601 436,602 436,603 437,603 438,603 438,603 439,602 439,603 441,603 441,603 442,603 442,604 443,604 443,604 444,604 445,604 445,604 446,605 446,605 447,605 448,604 448,604 449,604 449,605 450,605 451,605 451,605 452,606 452,606 453,606 454,606 454,606 455,607 455,607 456,607 457,606 457,606 458,606 458,606 459,605 459,605 460,605 461,605 461,604 462,604 462,604 463,604 464,605 464,605 465,605 465,605 466,605 467,605 467,604 468,605 468,605 469,605 470,605 470,605 471,605 471,605 472,605 473,605 473,606 474,606 474,605 475,605 475,605 476,605 477,606 477,606 478,605 478,605 479,605 480,606 480,606 481,606 481,606 482,606 483,607 483,607 484,607 484,607 485,607 486,607 486,608 487,608 487,608 488,608 489,608 489,609 490,609 490,609 491,609 491,609 492,608 493,609 493,607 494,607 494,608 495,607 496,607 497,607 497,607 498,607 499,607 499,606 500,606 500,607 501,607 502,607 502,607 503,608 504,607 505,607 505,607 506,608 506,607 507,607 507,606 508,607 509,607 509,607 510,607 510,607 511,607 512,606 512,606 513,606 513,607 514,606 515,606 515,606 516,606 516,607 517,607 518,607 518,606 519,606 519,606 520,605 521,604 521,604 522,604 522,605 523,605 523,605 524,605 525,605 525,605 526,606 526,606 527,606 528,606 528,606 529,605 529,605 530,605 531,606 531,606 532,606 532,606 533,607 534,608 534,608 535,608 535,608 536,608 537,608 537,609 538,609 538,609 539,609 539,609 540,610 541,610 541,609 542,609 542,609 543,610 544,610 544,611 545,611 545,611 546,612 547,612 547,612 548,612 548,612 550,613 550,613 551,613 551,613 552,613 553,614 553,614 554,614 554,614 555,614 556,614 557,614 557,614 558,614 558,614 559,615 560,615 560,614 561,615 562,615 563,614 563,614 564,615 564,615 565,615 566,615 566,615 567,615 567,615 568,616 569,615 569,615 570,616 570,616 571,615 571,615 572,616 573,615 573,615 574,615 574,613 575,614 576,614 576,614 577,614 577,614 578,615 579,615 579,615 580,615 580,615 581,614 582,614 582,614 583,613 583,613 584,613 585,612 585,612 586,611 586,611 587,611 587,612 588,611 589,611 589,611 590,612 590,612 591,612 592,612 592,612 593,613 593,613 594,613 595,613 595,613 596,614 596,615 597,615 598,615 598,614 599,615 599,614 600,614 601,614 601,615 602,615 602,615 603,615 603,616 604,616 605,615 605,615 606,615 606,616 607,616 608,615 608,615 609,616 609,616 610,616 611,616 611,616 612,616 612,616 613,616 614,616 614,616 615,616 615,617 616,616 617,616 617,615 618,615 618,615 619,615 619,616 620,615 621,615 621,615 622,615 622,615 623,615 624,615 624,615 625,615 625,615 626,616 627,616 627,616 628,617 628,617 629,617 630,618 630,618 631,618 631,618 632,618 632,618 633,618 634,618 634,618 635,618 635,619 636,618 637,619 637,619 638,619 638,619 639,619 640,619 640,619 641,619 641,619 642,618 643,619 643,619 644,619 644,619 645,619 646,619 646,619 647,619 647,619 648,619 648,619 649,619 650,619 650,620 651,620 651,619 652,619 653,619 653,619 654,619 654,619 655,619 656,619 656,620 657,619 657,619 658,619 659,619 659,620 660,620 660,620 661,620 662,620 662,620 663,620 663,620 664,620 665,620 666,620 666,620 667,621 667,621 668,621 669,621 669,621 670,621 670,621 671,621 672,621 672,622 673,622 673,622 674,622 675,622 675,622 676,622 676,621 677,622 678,622 678,622 679,622 679,622 680,622 680,623 681,623 682,623 682,623 683,623 683,623 684,623 685,623 685,624 686,624 686,624 687,624 688,624 688,624 689,625 689,625 690,625 691,624 691,625 692,625 692,625 693,626 694,626 694,626 695,626 695,626 696,626 696,627 697,627 698,627 698,627 699,626 699,626 700,626 701,626 701,626 702,626 702,626 703,626 704,626 704,626 705,627 705,626 706,626 707,627 707,627 708,627 708,627 709,628 710,628 710,628 710,628 711,628 711,628 712,628 712,628 713,629 714,629 714,629 715,629 715,629 716,630 717,630 717,629 718,629 718,630 719,630 720,630 720,630 721,630 721,632 722,631 723,631 723,631 724,631 724,631 725,632 726,632 726,632 727,633 727,633 728,633 728,633 729,633 730,633 730,633 731,634 731,634 732,634 733,634 733,634 734,634 734,634 735,634 736,634 736,634 737,634 737,634 738,634 739,635 739,635 740,635 740,635 741,635 742,635 742,635 743,635 743,636 744,636 744,636 745,636 746,636 746,636 747,636 747,636 748,637 749,636 749,636 750,636 750,637 751,637 752,637 752,637 753,637 753,637 754,637 755,637 755,638 756,637 756,637 757,637 758,638 758,638 759,638 759,638 760,638 760,638 761,638 762,638 762,639 763,639 763,639 764,639 765,639 765,639 766,639 766,639 767,640 768,640 768,639 769,640 769,640 770,639 771,640 771,640 772,644 772,644 773,644 774,640 774,640 775,641 775,641 776,641 776,641 777,641 778,642 778,642 779,642 779,642 780,642 781,642 781,643 782,643 782,643 783,643 784,644 784,644 785,644 785,644 786,644 787,644 787,645 788,645 788,645 789,645 790,645 790,645 791,645 791,645 792,645 792,645 793,645 794,645 794,645 795,645 795,646 796,646 797,646 797,646 798,647 798,647 799,647 800,647 800,647 801,647 801,646 802,647 803,647 803,647 804,647 804,647 805,647 806,647 806,647 807,647 807,646 808,646 808,645 809,645 810,645 810,645 811,645 811,645 812,645 813,645 813,645 814,646 814,646 815,646 816,646 816,646 817,646 817,646 818,646 819,647 819,647 820,647 820,647 821,647 822,647 822,647 823,647 823,647 824,647 824,647 825,647 826,647 826,648 827,648 827,648 828,648 829,648 829,648 830,648 830,648 831,649 832,649 832,649 833,649 833,649 834,649 835,648 835,648 836,648 836,649 837,649 838,649 838,649 839,649 839,649 840,649 840,649 841,649 842,649 842,649 843,649 843,649 844,649 845,649 845,649 846,649 846,649 847,649 848,649 848,649 849,649 849,649 850,649 851,649 851,649 852,649 852,649 853,649 854,649 854,649 855,650 855,650 856,650 856,650 857,650 858,650 858,650 859,650 859,650 860,650 861,650 861,650 862,651 862,650 863,650 864,650 864,651 865,651 865,651 866,651 867,651 867,651 868,651 868,651 869,651 870,651 870,652 871,652 871,652 872,652 872,653 873,653 874,653 874,653 875,653 875,653 876,653 877,653 877,654 878,654 878,653 879,653 880,651 880,651 881,651 881,651 882,651 883,651 883,651 884,651 884,651 885,651 886,650 886,650 887,650 887,650 888,650 888,650 889,650 890,650 890,650 891,650 891,650 892,650 893,650 893,650 894,650 894,650 895,650 896,650 896,650 897,650 897,650 898,651 899,651 899,651 900,651 900,651 901,651 902,651 902,651 903,651 903,651 904,651 904,651 905,651 906,652 906,651 907,651 907,651 908,652 909,652 909,652 910,652 910,652 911,651 912,651 912,651 913,651 913,651 914,651 915,652 915,652 916,652 916,652 917,652 918,652 918,652 919,652 919,652 920,652 920,652 921,652 922,652 922,653 923,652 923,653 924,653 925,653 925,653 926,653 926,653 927,654 928,654 928,654 929,654 929,655 930,655 931,655 931,655 932,655 932,655 933,655 934,656 934,656 935,656 935,656 936,656 936,656 937,656 938,656 938,656 939,656 939,656 939,656 940,656 941,656 941,657 942,656 942,656 943,656 944,657 944,656 945,656 945,657 946,657 947,657 947,657 948,657 948,657 949,658 950,657 950,657 951,657 951,657 952,657 952,658 953,658 954,658 954,658 955,658 955,658 956,658 957,658 957,658 958,658 958,658 959,659 960,659 960,659 961,659 961,659 962,659 963,659 963,659 964,659 964,659 965,659 966,659 966,659 967,659 967,659 968,660 968,660 969,660 970,660 970,660 971,660 971,660 972,660 973,660 973,660 974,660 974,661 975,661 976,661 976,661 977,662 977,662 978,662 979,662 979,662 980,662 980,662 981,662 982,662 982,662 983,662 983,662 984,662 984,662 985,662 986,662 986,663 987,663 987,663 988,663 989,663 989,663 990,663 990,663 991,663 992,663 992,664 993,664 993,664 994,664 995,664 995,665 996,665 996,665 997,665 998,665 998,665 999,665 999,665 1000,665 1000,665 1001,665 1002,665 1002,665 1003,666 1003,666 1004,666 1005,666 1005,666 1006,666 1006,667 1007,667 1008,667 1008,667 1009,667 1009,667 1010,667 1011,667 1011,667 1012,667 1012,667 1013,668 1014,667 1014,667 1015,668 1015,667 1016,667 1016,667 1017,668 1018,668 1018,668 1019,668 1019,669 1020,669 1021,669 1021,669 1022,669 1022,669 1022,669 1023,669 1023,669 1024,670 1024,670 1024,670 1025,670 1025,670 1025,670 1026,670 1026,670 1027,670 1027,670 1027,670 1027,670 1028,670 1028,670 1028,670 1028,670 1029,670 1029,670 1030,670 1030,670 1030,670 1030,670 1031,670 1031,670 1031,670 1031,670 1032,670 1032,670 1033,670 1034,670 1034,670 1034,670 1034,670 1035,670 1035,671 1035,671 1035,671 1036,671 1036,671 1037,671 1037,671 1037,671 1038,671 1038,671 1038,671 1038,671 1039,671 1039,671 1040,671 1040,671 1040,671 1040,671 1041,671 1041,671 1041,671 1041,671 1042,671 1042,671 1043,671 1043,672 1043,672 1044,672 1044,672 1044,672 1044,672 1045,672 1045,672 1046,672 1046,672 1046,672 1046,671 1047,671 1047,671 1047,671 1047,671 1048,671 1048,671 1048,671 1048,671 1049,671 1049,671 1050,671 1050,671 1050,671 1051,671 1051,671 1051,671 1052,671 1052,672 1053,672 1053,671 1053,671 1053,671 1054,671 1054,671 1054,671 1054,672 1055,672 1055,672 1056,672 1056,672 1056,672 1056,672 1057,672 1057,672 1057,672 1058,672 1058,672 1059,672 1059,672 1059,672 1059,672 1060,672 1060,672 1060,672 1061,672 1061,673 1062,673 1062,673 1062,673 1062,673 1063,673 1063,674 1063,674 1063,674 1064,674 1064,674 1064,674 1064,674 1065,674 1065,674 1066,674 1066,674 1066,674 1066,674 1067,674 1067,674 1067,674 1067,674 1068,674 1068,674 1069,674 1069,674 1069,674 1069,673 1070,673 1070,674 1070,674 1070,674 1071,674 1071,673 1072,673 1072,673 1072,673 1073,673 1073,673 1073,673 1073,673 1074,673 1074,673 1075,673 1075,673 1075,673 1075,673 1076,673 1076,673 1076,673 1076,673 1077,673 1077,674 1078,674 1078,674 1078,674 1079,674 1079,674 1079,674 1079,674 1080,674 1080,674 1080,674 1080,674 1081,674 1082,674 1082,674 1082,674 1083,674 1083,674 1083,675 1084,675 1084,675 1085,675 1085,675 1085,675 1085,675 1086,675 1086,675 1086,675 1086,675 1087,675 1087,675 1088,675 1088,675 1088,675 1088,675 1089,675 1089,675 1089,675 1090,675 1090,675 1091,675 1091,675 1091,675 1091,675 1092,675 1092,675 1092,675 1092,675 1093,675 1093,675 1094,675 1094,675 1094,675 1094,675 1095,675 1095,675 1095,675 1095,675 1096,675 1096,675 1096,675 1096,675 1097,675 1097,676 1098,676 1098,676 1098,676 1098,675 1099,675 1099,675 1099,675 1100,675 1100,675 1101,675 1101,675 1101,675 1101,675 1102,675 1102,675 1102,675 1102,675 1103,675 1103,675 1104,675 1104,675 1104,675 1105,675 1105,676 1105,676 1105,676 1106,676 1106,676 1107,676 1107,676 1107,676 1107,676 1108,676 1108,676 1108,676 1108,676 1109,676 1109,676 1110,676 1110,676 1110,676 1110,676 1111,676 1111,676 1111,676 1111,677 1112,677 1112,677 1112,677 1112,677 1113,677 1113,677 1114,677 1114,677 1114,677 1114,677 1115,677 1115,677 1115,677 1116,677 1116,677 1117,677 1117,677 1117,677 1117,677 1118,677 1118,677 1118,677 1118,677 1119,677 1119,677 1120,677 1120,677 1120,677 1120,677 1121,677 1121,677 1121,677 1121,677 1122,677 1122,677 1123,677 1123,678 1123,678 1123,678 1124,678 1124,678 1124,678 1124,678 1125,678 1125,678 1126,678 1126,678 1126,678 1126,678 1127,678 1127,678 1127,678 1127,678 1128,678 1128,678 1128,678 1128,679 1129,679 1129,679 1130,679 1130,679 1130,679 1130,679 1131,679 1131,679 1131,679 1132,679 1132,679 1133,679 1133,679 1133,679 1134,679 1134,679 1134,679 1134,679 1135,679 1135,678 1136,678 1136,678 1136,678 1136,679 1137,679 1137,679 1137,679 1137,679 1138,679 1138,679 1139,679 1139,679 1139,679 1139,679 1140,679 1140,679 1140,679 1141,679 1141,679 1142,679 1142,679 1142,679 1142,679 1143,679 1143,679 1143,679 1143,679 1144,679 1144,679 1144,679 1144,679 1145,679 1145,679 1146,679 1146,681 1146,681 1146,680 1147,680 1147,680 1147,680 1147,680 1148,680 1148,681 1149,681 1149,681 1149,681 1149,681 1150,681 1150,681 1150,681 1150,681 1151,681 1151,681 1152,681 1152,681 1152,681 1152,681 1153,681 1153,681 1153,681 1153,681 1154,681 1154,681 1155,681 1155,681 1155,681 1155,682 1156,682 1156,682 1156,682 1156,682 1157,682 1157,682 1158,682 1158,682 1158,682 1158,682 1159,682 1159,682 1159,682 1159,682 1160,682 1160,682 1160,682 1160,682 1161,682 1161,682 1162,682 1162,682 1162,682 1162,682 1163,682 1163,682 1163,682 1163,682 1164,682 1164,682 1165,682 1165,682 1165,682 1165,682 1166,682 1166,682 1166,682 1166,682 1167,682 1167,683 1168,683 1168,683 1168,683 1169,683 1169,683 1169,683 1169,683 1170,683 1170,683 1171,683 1171,683 1171,683 1171,683 1172,683 1172,683 1172,683 1172,683 1173,683 1173,683 1174,683 1174,683 1174,683 1174,683 1175,683 1175,683 1175,683 1175,683 1176,683 1176,684 1176,684 1176,684 1177,684 1177,684 1178,684 1178,684 1178,684 1178,684 1179,684 1179,686 1179,686 1180,686 1180,686 1181,686 1181,686 1181,686 1181,686 1182,686 1182,686 1182,686 1182,686 1183,686 1183,686 1184,686 1184,686 1184,686 1184,686 1185,686 1185,686 1185,686 1185,686 1186,686 1186,686 1187,686 1187,686 1187,686 1187,686 1188,686 1188,686 1188,686 1188,686 1189,686 1189,686 1190,686 "/>
<polyline fill="none" opacity="1" stroke="#5419E6" stroke-width="2" points="842,738 843,738 846,738 852,737 854,736 856,736 859,736 859,735 860,732 861,732 862,732 864,732 868,731 870,731 870,731 871,731 872,731 879,731 883,731 884,730 885,730 887,729 890,729 891,728 891,728 892,727 893,727 893,727 896,727 896,727 897,727 899,727 900,726 900,726 901,725 904,725 904,725 905,725 906,724 907,724 909,724 909,724 910,724 910,724 913,724 915,724 915,724 916,724 917,723 918,723 919,723 919,723 920,723 920,723 922,723 923,723 923,723 924,722 925,723 926,723 926,723 927,722 928,721 928,721 929,721 929,721 930,722 931,722 931,722 932,722 933,722 934,721 934,721 935,721 935,721 936,721 938,721 938,721 939,721 939,721 939,721 940,720 941,720 941,720 942,720 942,719 943,719 944,719 945,718 946,718 947,718 947,717 948,717 948,717 949,717 950,717 951,717 952,717 952,716 953,716 954,716 954,715 955,715 955,715 957,714 957,714 958,714 958,714 959,714 960,714 960,714 961,713 962,713 963,714 964,713 965,713 966,713 966,713 968,714 968,714 969,714 970,714 971,713 972,713 973,713 974,713 976,712 976,713 977,713 977,712 978,712 979,712 979,712 980,712 980,712 981,712 982,712 982,711 983,711 983,712 984,712 984,712 985,712 986,711 986,711 987,712 987,711 988,711 989,711 989,711 990,711 990,711 991,711 992,711 993,711 993,710 994,710 995,710 995,710 996,710 996,709 997,709 998,709 999,710 999,710 1000,710 1000,710 1001,709 1002,709 1002,709 1003,709 1003,709 1004,708 1005,708 1005,708 1006,709 1006,709 1007,708 1008,708 1008,708 1009,708 1009,708 1010,708 1011,708 1011,708 1012,708 1012,708 1013,708 1014,708 1014,708 1015,708 1015,708 1016,708 1016,707 1018,708 1018,708 1019,708 1019,708 1020,708 1021,708 1021,708 1022,708 1022,708 1022,708 1023,708 1023,708 1024,708 1024,708 1024,708 1025,708 1025,708 1025,708 1026,708 1026,708 1027,708 1027,708 1027,708 1027,708 1028,708 1028,707 1028,707 1028,707 1029,707 1029,707 1030,707 1030,708 1030,708 1030,707 1031,707 1031,707 1031,707 1031,707 1032,707 1032,707 1032,707 1033,707 1034,707 1034,707 1034,707 1034,707 1035,707 1035,707 1035,707 1035,706 1036,706 1036,707 1037,707 1037,707 1037,707 1038,707 1038,706 1038,706 1038,706 1039,706 1039,706 1040,706 1040,707 1040,707 1040,707 1041,707 1041,707 1041,707 1041,707 1042,707 1042,707 1043,707 1043,707 1044,707 1044,707 1044,707 1044,707 1045,707 1045,707 1046,707 1046,707 1046,707 1046,707 1047,707 1047,707 1047,707 1047,707 1048,707 1048,707 1048,707 1048,707 1049,707 1049,707 1050,707 1050,707 1051,707 1051,707 1051,707 1052,707 1052,707 1053,707 1053,707 1053,707 1053,707 1054,707 1054,707 1054,707 1054,707 1055,707 1055,706 1056,706 1056,706 1056,707 1057,707 1057,707 1057,707 1058,707 1058,707 1059,707 1059,707 1059,707 1059,707 1060,707 1060,706 1060,706 1061,706 1061,706 1062,706 1062,706 1062,706 1062,706 1063,706 1063,706 1063,706 1063,706 1064,706 1064,706 1064,706 1064,706 1065,706 1066,706 1066,706 1066,706 1066,707 1067,707 1067,706 1067,706 1067,707 1068,707 1068,706 1069,706 1069,706 1069,706 1069,706 1070,706 1070,707 1070,707 1070,707 1071,707 1071,706 1072,706 1072,706 1072,706 1073,706 1073,706 1073,706 1073,706 1074,706 1074,707 1075,707 1075,707 1075,707 1075,707 1076,707 1076,707 1076,707 1076,707 1077,707 1077,707 1078,707 1078,707 1079,707 1079,707 1079,707 1079,707 1080,707 1080,707 1080,707 1080,707 1081,707 1082,707 1082,707 1082,707 1083,707 1083,707 1083,707 1084,707 1084,707 1085,707 1085,707 1085,707 1085,706 1086,706 1086,706 1086,706 1087,706 1087,706 1088,706 1088,706 1088,706 1088,706 1089,706 1089,706 1089,706 1090,706 1090,706 1091,706 1091,706 1091,706 1091,707 1092,707 1092,707 1092,707 1092,707 1093,707 1093,707 1094,707 1094,706 1094,706 1094,707 1095,707 1095,707 1095,707 1095,707 1096,707 1096,707 1096,707 1096,707 1097,707 1098,707 1098,707 1098,707 1098,707 1099,707 1099,707 1099,707 1100,707 1100,707 1101,707 1101,707 1101,707 1101,707 1102,707 1102,707 1102,707 1102,707 1103,707 1103,707 1104,707 1104,707 1104,707 1105,707 1105,707 1105,707 1105,707 1106,707 1106,707 1107,707 1107,707 1107,707 1107,707 1108,707 1108,707 1108,707 1108,707 1109,707 1109,707 1110,707 1110,707 1110,707 1110,707 1111,707 1111,707 1111,707 1111,707 1112,707 1112,707 1112,707 1112,707 1113,707 1113,707 1114,707 1114,707 1114,707 1114,707 1115,707 1115,707 1115,707 1116,707 1116,707 1117,707 1117,707 1117,707 1117,707 1118,707 1118,707 1118,707 1118,707 1119,707 1119,707 1120,707 1120,707 1120,707 1120,707 1121,707 1121,707 1121,707 1121,707 1122,707 1122,707 1123,707 1123,707 1123,707 1123,706 1124,706 1124,707 1124,707 1125,707 1125,706 1126,706 1126,706 1126,706 1126,706 1127,706 1127,706 1127,706 1127,706 1128,706 1128,706 1128,706 1128,706 1129,706 1129,706 1130,706 1130,706 1130,706 1130,706 1131,706 1131,706 1131,706 1132,706 1132,706 1133,706 1133,706 1134,706 1134,706 1134,706 1134,706 1135,706 1135,706 1136,706 1136,706 1137,706 1137,706 1137,706 1137,706 1138,706 1138,705 1139,705 1139,705 1139,705 1139,705 1140,706 1140,706 1140,706 1141,706 1141,706 1142,706 1142,706 1142,706 1142,706 1143,706 1143,706 1143,706 1143,706 1144,706 1144,706 1144,706 1145,706 1145,706 1146,706 1146,704 1146,704 1146,704 1147,704 1147,704 1147,704 1147,704 1148,704 1148,704 1149,704 1149,704 1149,704 1149,704 1150,704 1150,704 1150,704 1150,704 1151,704 1151,704 1152,704 1152,704 1152,704 1153,704 1153,706 1153,706 1153,706 1154,706 1154,706 1155,706 1155,705 1155,705 1155,705 1156,705 1156,705 1156,705 1156,705 1157,705 1157,705 1158,705 1158,705 1158,705 1158,705 1159,705 1159,705 1159,705 1159,705 1160,705 1160,705 1160,705 1160,705 1161,705 1161,705 1162,705 1162,705 1162,705 1162,705 1163,705 1163,705 1163,705 1163,705 1164,705 1164,705 1165,705 1165,705 1165,705 1165,705 1166,705 1166,706 1166,706 1166,706 1167,706 1167,706 1168,706 1168,706 1168,706 1169,706 1169,706 1169,706 1169,706 1170,706 1170,706 1171,706 1171,706 1171,706 1171,706 1172,706 1172,706 1172,706 1172,706 1173,706 1173,707 1174,707 1174,707 1174,706 1174,706 1175,706 1175,706 1175,706 1175,706 1176,706 1176,706 1176,706 1176,707 1177,707 1177,706 1178,706 1178,706 1178,706 1178,706 1179,706 1179,708 1179,708 1180,708 1180,708 1181,708 1181,708 1181,708 1181,708 1182,708 1182,708 1182,708 1182,708 1183,708 1183,708 1184,708 1184,708 1184,708 1184,708 1185,708 1185,708 1185,708 1185,708 1186,708 1186,708 1187,708 1187,708 1187,708 1188,708 1188,708 1188,708 1188,708 1189,708 1189,708 1190,708 "/>
<polyline fill="none" opacity="1" stroke="#E619C8" stroke-width="2" points="934,738 935,737 935,737 936,736 936,736 938,735 938,735 939,735 939,735 939,735 940,735 941,734 941,734 942,734 942,733 943,733 944,733 944,733 945,732 945,732 946,731 947,730 948,730 948,730 949,728 950,727 950,727 951,726 951,725 952,725 952,724 953,724 954,723 954,723 955,723 955,723 956,720 957,719 957,718 958,717 958,716 959,716 960,716 960,716 961,716 961,716 962,716 963,714 963,714 964,714 964,714 965,714 966,714 966,713 967,714 967,713 968,712 968,712 969,712 970,711 970,711 971,710 971,710 972,709 973,707 973,707 974,707 974,706 975,706 976,706 976,706 977,704 977,703 978,702 979,700 979,700 980,699 980,699 981,698 982,698 982,698 983,697 983,697 984,696 984,696 985,695 986,694 986,694 987,692 987,691 988,690 989,690 989,688 990,688 990,688 991,687 992,687 992,685 993,683 993,683 994,682 995,681 995,681 996,681 996,681 997,680 998,679 998,677 999,677 999,676 1000,674 1000,674 1001,673 1002,673 1002,673 1003,672 1003,672 1004,672 1005,671 1005,671 1006,670 1006,670 1007,669 1008,669 1008,669 1009,668 1009,668 1010,667 1011,667 1011,666 1012,667 1012,665 1013,664 1014,664 1014,663 1015,662 1015,662 1016,663 1016,661 1017,660 1018,660 1018,660 1019,659 1019,657 1020,656 1021,655 1021,655 1022,654 1022,654 1022,653 1023,653 1023,653 1024,653 1024,653 1024,651 1025,651 1025,651 1025,650 1026,650 1026,649 1027,649 1027,646 1027,646 1027,646 1028,646 1028,645 1028,645 1028,644 1029,644 1029,643 1030,643 1030,642 1030,642 1030,642 1031,642 1031,641 1031,641 1031,640 1032,639 1032,639 1032,638 1033,638 1034,638 1034,638 1034,638 1034,637 1035,637 1035,637 1035,637 1035,637 1036,637 1036,636 1037,636 1037,636 1037,635 1038,635 1038,635 1038,635 1038,634 1039,634 1039,633 1040,633 1040,632 1040,632 1040,632 1041,632 1041,631 1041,631 1041,631 1042,631 1042,628 1043,628 1043,627 1043,624 1044,624 1044,623 1044,623 1044,621 1045,621 1045,621 1046,621 1046,620 1046,620 1046,618 1047,618 1047,617 1047,617 1047,616 1048,616 1048,616 1048,616 1048,615 1049,615 1049,614 1050,614 1050,613 1050,613 1051,612 1051,612 1051,610 1052,610 1052,609 1053,609 1053,609 1053,609 1053,608 1054,608 1054,608 1054,608 1054,607 1055,607 1055,606 1056,606 1056,605 1056,605 1056,604 1057,602 1057,602 1057,602 1058,602 1058,600 1059,600 1059,598 1059,598 1059,597 1060,597 1060,597 1060,596 1061,596 1061,594 1062,594 1062,592 1062,592 1062,590 1063,590 1063,590 1063,590 1063,590 1064,590 1064,589 1064,589 1064,588 1065,588 1065,587 1066,587 1066,582 1066,582 1066,580 1067,580 1067,579 1067,579 1067,578 1068,578 1068,577 1069,577 1069,577 1069,577 1069,576 1070,576 1070,574 1070,574 1070,572 1071,572 1071,571 1072,570 1072,570 1072,569 1073,569 1073,567 1073,567 1073,567 1074,567 1074,565 1075,565 1075,565 1075,565 1075,564 1076,564 1076,563 1076,563 1076,561 1077,561 1077,560 1078,559 1078,559 1078,559 1079,559 1079,558 1079,558 1079,557 1080,557 1080,555 1080,555 1080,554 1081,552 1082,550 1082,550 1082,549 1083,548 1083,548 1083,547 1084,547 1084,547 1085,547 1085,544 1085,544 1085,543 1086,543 1086,542 1086,542 1086,540 1087,540 1087,540 1088,540 1088,539 1088,539 1088,537 1089,537 1089,537 1089,537 1090,537 1090,536 1091,536 1091,534 1091,534 1091,532 1092,532 1092,532 1092,532 1092,531 1093,531 1093,530 1094,530 1094,529 1094,529 1094,528 1095,528 1095,528 1095,527 1095,527 1096,527 1096,526 1096,526 1096,525 1097,525 1097,525 1098,525 1098,525 1098,525 1098,524 1099,523 1099,523 1099,522 1100,522 1100,520 1101,520 1101,519 1101,519 1101,519 1102,519 1102,518 1102,518 1102,517 1103,517 1103,516 1104,513 1104,513 1104,512 1105,512 1105,511 1105,512 1105,511 1106,511 1106,510 1107,510 1107,510 1107,510 1107,510 1108,510 1108,508 1108,508 1108,508 1109,508 1109,508 1110,508 1110,507 1110,507 1110,506 1111,506 1111,506 1111,506 1111,505 1112,505 1112,504 1112,504 1112,502 1113,502 1113,501 1114,501 1114,500 1114,500 1114,498 1115,498 1115,498 1115,496 1116,496 1116,496 1117,496 1117,494 1117,494 1117,493 1118,493 1118,493 1118,493 1118,490 1119,490 1119,489 1120,489 1120,488 1120,488 1120,487 1121,487 1121,485 1121,485 1121,485 1122,485 1122,482 1123,482 1123,481 1123,481 1123,480 1124,480 1124,478 1124,478 1124,478 1125,478 1125,477 1126,477 1126,475 1126,475 1126,475 1127,475 1127,473 1127,473 1127,473 1128,473 1128,472 1128,472 1128,470 1129,470 1129,468 1130,468 1130,467 1130,467 1130,467 1131,467 1131,467 1131,466 1132,466 1132,464 1133,464 1133,462 1133,460 1134,460 1134,460 1134,460 1134,459 1135,459 1135,459 1136,459 1136,457 1136,457 1136,456 1137,456 1137,454 1137,454 1137,454 1138,454 1138,454 1139,454 1139,454 1139,454 1139,454 1140,454 1140,454 1140,452 1141,452 1141,451 1142,451 1142,450 1142,450 1142,450 1143,450 1143,450 1143,450 1143,449 1144,449 1144,448 1144,448 1144,448 1145,448 1145,447 1146,446 1146,446 1146,446 1146,445 1147,445 1147,443 1147,443 1147,443 1148,443 1148,442 1149,442 1149,442 1149,442 1149,440 1150,440 1150,439 1150,439 1150,438 1151,438 1151,438 1152,438 1152,437 1152,437 1152,436 1153,436 1153,433 1153,433 1153,433 1154,433 1154,432 1155,432 1155,431 1155,431 1155,430 1156,430 1156,428 1156,428 1156,428 1157,428 1157,427 1158,427 1158,426 1158,426 1158,426 1159,426 1159,425 1159,425 1159,423 1160,423 1160,422 1160,422 1160,421 1161,421 1161,419 1162,419 1162,418 1162,418 1162,417 1163,417 1163,416 1163,416 1163,415 1164,415 1164,415 1165,415 1165,415 1165,415 1165,413 1166,413 1166,412 1166,412 1166,411 1167,411 1167,410 1168,408 1168,408 1168,408 1169,408 1169,406 1169,406 1169,406 1170,406 1170,405 1171,405 1171,404 1171,404 1171,403 1172,403 1172,403 1172,403 1172,402 1173,402 1173,402 1174,402 1174,401 1174,401 1174,400 1175,400 1175,400 1175,399 1175,398 1176,398 1176,397 1176,397 1176,396 1177,396 1177,396 1178,396 1178,395 1178,395 1178,394 1179,394 1179,406 1179,405 1180,405 1180,404 1181,404 1181,404 1181,404 1181,403 1182,403 1182,402 1182,401 1183,401 1183,401 1184,401 1184,399 1184,399 1184,399 1185,399 1185,398 1185,398 1185,398 1186,398 1186,397 1187,397 1187,397 1187,397 1187,396 1188,396 1188,395 1188,395 1188,395 1189,395 1189,394 1190,394 "/>
<rect x="65" y="315" width="107" height="119" opacity="1" fill="#FFFFFF" stroke="none"/>
<rect x="65" y="315" width="107" height="119" opacity="1" fill="none" stroke="#000000"/>
<text x="105" y="325" dy="0.76em" text-anchor="start" font-family="sans-serif" font-size="9.67741935483871" opacity="1" fill="#000000">
anyhow
</text>
<text x="105" y="340" dy="0.76em" text-anchor="start" font-family="sans-serif" font-size="9.67741935483871" opacity="1" fill="#000000">
err-derive
</text>
<text x="105" y="355" dy="0.76em" text-anchor="start" font-family="sans-serif" font-size="9.67741935483871" opacity="1" fill="#000000">
error-chain
</text>
<text x="105" y="370" dy="0.76em" text-anchor="start" font-family="sans-serif" font-size="9.67741935483871" opacity="1" fill="#000000">
failure
</text>
<text x="105" y="385" dy="0.76em" text-anchor="start" font-family="sans-serif" font-size="9.67741935483871" opacity="1" fill="#000000">
quick-error
</text>
<text x="105" y="400" dy="0.76em" text-anchor="start" font-family="sans-serif" font-size="9.67741935483871" opacity="1" fill="#000000">
snafu
</text>
<text x="105" y="415" dy="0.76em" text-anchor="start" font-family="sans-serif" font-size="9.67741935483871" opacity="1" fill="#000000">
thiserror
</text>
<polyline fill="none" opacity="1" stroke="#E61919" stroke-width="2" points="75,330 95,330 "/>
<polyline fill="none" opacity="1" stroke="#E6C819" stroke-width="2" points="75,344 95,344 "/>
<polyline fill="none" opacity="1" stroke="#54E619" stroke-width="2" points="75,359 95,359 "/>
<polyline fill="none" opacity="1" stroke="#19E68E" stroke-width="2" points="75,374 95,374 "/>
<polyline fill="none" opacity="1" stroke="#198EE6" stroke-width="2" points="75,390 95,390 "/>
<polyline fill="none" opacity="1" stroke="#5419E6" stroke-width="2" points="75,404 95,404 "/>
<polyline fill="none" opacity="1" stroke="#E619C8" stroke-width="2" points="75,419 95,419 "/>
</svg>
