<svg width="1200" height="800" viewBox="0 0 1200 800" xmlns="http://www.w3.org/2000/svg">
<rect x="0" y="0" width="1199" height="799" opacity="1" fill="#FFFFFF" stroke="none"/>
<line opacity="0.1" stroke="#000000" stroke-width="1" x1="60" y1="728" x2="1190" y2="728"/>
<line opacity="0.1" stroke="#000000" stroke-width="1" x1="60" y1="718" x2="1190" y2="718"/>
<line opacity="0.1" stroke="#000000" stroke-width="1" x1="60" y1="707" x2="1190" y2="707"/>
<line opacity="0.1" stroke="#000000" stroke-width="1" x1="60" y1="697" x2="1190" y2="697"/>
<line opacity="0.1" stroke="#000000" stroke-width="1" x1="60" y1="686" x2="1190" y2="686"/>
<line opacity="0.1" stroke="#000000" stroke-width="1" x1="60" y1="676" x2="1190" y2="676"/>
<line opacity="0.1" stroke="#000000" stroke-width="1" x1="60" y1="666" x2="1190" y2="666"/>
<line opacity="0.1" stroke="#000000" stroke-width="1" x1="60" y1="655" x2="1190" y2="655"/>
<line opacity="0.1" stroke="#000000" stroke-width="1" x1="60" y1="645" x2="1190" y2="645"/>
<line opacity="0.1" stroke="#000000" stroke-width="1" x1="60" y1="634" x2="1190" y2="634"/>
<line opacity="0.1" stroke="#000000" stroke-width="1" x1="60" y1="624" x2="1190" y2="624"/>
<line opacity="0.1" stroke="#000000" stroke-width="1" x1="60" y1="613" x2="1190" y2="613"/>
<line opacity="0.1" stroke="#000000" stroke-width="1" x1="60" y1="603" x2="1190" y2="603"/>
<line opacity="0.1" stroke="#000000" stroke-width="1" x1="60" y1="592" x2="1190" y2="592"/>
<line opacity="0.1" stroke="#000000" stroke-width="1" x1="60" y1="582" x2="1190" y2="582"/>
<line opacity="0.1" stroke="#000000" stroke-width="1" x1="60" y1="571" x2="1190" y2="571"/>
<line opacity="0.1" stroke="#000000" stroke-width="1" x1="60" y1="561" x2="1190" y2="561"/>
<line opacity="0.1" stroke="#000000" stroke-width="1" x1="60" y1="550" x2="1190" y2="550"/>
<line opacity="0.1" stroke="#000000" stroke-width="1" x1="60" y1="540" x2="1190" y2="540"/>
<line opacity="0.1" stroke="#000000" stroke-width="1" x1="60" y1="530" x2="1190" y2="530"/>
<line opacity="0.1" stroke="#000000" stroke-width="1" x1="60" y1="519" x2="1190" y2="519"/>
<line opacity="0.1" stroke="#000000" stroke-width="1" x1="60" y1="509" x2="1190" y2="509"/>
<line opacity="0.1" stroke="#000000" stroke-width="1" x1="60" y1="498" x2="1190" y2="498"/>
<line opacity="0.1" stroke="#000000" stroke-width="1" x1="60" y1="488" x2="1190" y2="488"/>
<line opacity="0.1" stroke="#000000" stroke-width="1" x1="60" y1="477" x2="1190" y2="477"/>
<line opacity="0.1" stroke="#000000" stroke-width="1" x1="60" y1="467" x2="1190" y2="467"/>
<line opacity="0.1" stroke="#000000" stroke-width="1" x1="60" y1="456" x2="1190" y2="456"/>
<line opacity="0.1" stroke="#000000" stroke-width="1" x1="60" y1="446" x2="1190" y2="446"/>
<line opacity="0.1" stroke="#000000" stroke-width="1" x1="60" y1="435" x2="1190" y2="435"/>
<line opacity="0.1" stroke="#000000" stroke-width="1" x1="60" y1="425" x2="1190" y2="425"/>
<line opacity="0.1" stroke="#000000" stroke-width="1" x1="60" y1="414" x2="1190" y2="414"/>
<line opacity="0.1" stroke="#000000" stroke-width="1" x1="60" y1="404" x2="1190" y2="404"/>
<line opacity="0.1" stroke="#000000" stroke-width="1" x1="60" y1="393" x2="1190" y2="393"/>
<line opacity="0.1" stroke="#000000" stroke-width="1" x1="60" y1="383" x2="1190" y2="383"/>
<line opacity="0.1" stroke="#000000" stroke-width="1" x1="60" y1="373" x2="1190" y2="373"/>
<line opacity="0.1" stroke="#000000" stroke-width="1" x1="60" y1="362" x2="1190" y2="362"/>
<line opacity="0.1" stroke="#000000" stroke-width="1" x1="60" y1="352" x2="1190" y2="352"/>
<line opacity="0.1" stroke="#000000" stroke-width="1" x1="60" y1="341" x2="1190" y2="341"/>
<line opacity="0.1" stroke="#000000" stroke-width="1" x1="60" y1="331" x2="1190" y2="331"/>
<line opacity="0.1" stroke="#000000" stroke-width="1" x1="60" y1="320" x2="1190" y2="320"/>
<line opacity="0.1" stroke="#000000" stroke-width="1" x1="60" y1="310" x2="1190" y2="310"/>
<line opacity="0.1" stroke="#000000" stroke-width="1" x1="60" y1="299" x2="1190" y2="299"/>
<line opacity="0.1" stroke="#000000" stroke-width="1" x1="60" y1="289" x2="1190" y2="289"/>
<line opacity="0.1" stroke="#000000" stroke-width="1" x1="60" y1="278" x2="1190" y2="278"/>
<line opacity="0.1" stroke="#000000" stroke-width="1" x1="60" y1="268" x2="1190" y2="268"/>
<line opacity="0.1" stroke="#000000" stroke-width="1" x1="60" y1="257" x2="1190" y2="257"/>
<line opacity="0.1" stroke="#000000" stroke-width="1" x1="60" y1="247" x2="1190" y2="247"/>
<line opacity="0.1" stroke="#000000" stroke-width="1" x1="60" y1="236" x2="1190" y2="236"/>
<line opacity="0.1" stroke="#000000" stroke-width="1" x1="60" y1="226" x2="1190" y2="226"/>
<line opacity="0.1" stroke="#000000" stroke-width="1" x1="60" y1="216" x2="1190" y2="216"/>
<line opacity="0.1" stroke="#000000" stroke-width="1" x1="60" y1="205" x2="1190" y2="205"/>
<line opacity="0.1" stroke="#000000" stroke-width="1" x1="60" y1="195" x2="1190" y2="195"/>
<line opacity="0.1" stroke="#000000" stroke-width="1" x1="60" y1="184" x2="1190" y2="184"/>
<line opacity="0.1" stroke="#000000" stroke-width="1" x1="60" y1="174" x2="1190" y2="174"/>
<line opacity="0.1" stroke="#000000" stroke-width="1" x1="60" y1="163" x2="1190" y2="163"/>
<line opacity="0.1" stroke="#000000" stroke-width="1" x1="60" y1="153" x2="1190" y2="153"/>
<line opacity="0.1" stroke="#000000" stroke-width="1" x1="60" y1="142" x2="1190" y2="142"/>
<line opacity="0.1" stroke="#000000" stroke-width="1" x1="60" y1="132" x2="1190" y2="132"/>
<line opacity="0.1" stroke="#000000" stroke-width="1" x1="60" y1="121" x2="1190" y2="121"/>
<line opacity="0.1" stroke="#000000" stroke-width="1" x1="60" y1="111" x2="1190" y2="111"/>
<line opacity="0.1" stroke="#000000" stroke-width="1" x1="60" y1="100" x2="1190" y2="100"/>
<line opacity="0.1" stroke="#000000" stroke-width="1" x1="60" y1="90" x2="1190" y2="90"/>
<line opacity="0.1" stroke="#000000" stroke-width="1" x1="60" y1="80" x2="1190" y2="80"/>
<line opacity="0.1" stroke="#000000" stroke-width="1" x1="60" y1="69" x2="1190" y2="69"/>
<line opacity="0.1" stroke="#000000" stroke-width="1" x1="60" y1="59" x2="1190" y2="59"/>
<line opacity="0.1" stroke="#000000" stroke-width="1" x1="60" y1="48" x2="1190" y2="48"/>
<line opacity="0.1" stroke="#000000" stroke-width="1" x1="60" y1="38" x2="1190" y2="38"/>
<line opacity="0.1" stroke="#000000" stroke-width="1" x1="60" y1="27" x2="1190" y2="27"/>
<line opacity="0.1" stroke="#000000" stroke-width="1" x1="60" y1="17" x2="1190" y2="17"/>
<text x="10" y="375" dy="0.76em" text-anchor="middle" font-family="sans-serif" font-size="9.67741935483871" opacity="1" fill="#000000" transform="rotate(270, 10, 375)">
Fraction of dependent crates
</text>
<line opacity="0.2" stroke="#000000" stroke-width="1" x1="60" y1="634" x2="1190" y2="634"/>
<line opacity="0.2" stroke="#000000" stroke-width="1" x1="60" y1="530" x2="1190" y2="530"/>
<line opacity="0.2" stroke="#000000" stroke-width="1" x1="60" y1="425" x2="1190" y2="425"/>
<line opacity="0.2" stroke="#000000" stroke-width="1" x1="60" y1="320" x2="1190" y2="320"/>
<line opacity="0.2" stroke="#000000" stroke-width="1" x1="60" y1="216" x2="1190" y2="216"/>
<polyline fill="none" opacity="1" stroke="#000000" stroke-width="1" points="59,10 59,740 "/>
<text x="50" y="634" dy="0.5ex" text-anchor="end" font-family="sans-serif" font-size="9.67741935483871" opacity="1" fill="#000000">
0.01
</text>
<polyline fill="none" opacity="1" stroke="#000000" stroke-width="1" points="54,634 59,634 "/>
<text x="50" y="530" dy="0.5ex" text-anchor="end" font-family="sans-serif" font-size="9.67741935483871" opacity="1" fill="#000000">
0.02
</text>
<polyline fill="none" opacity="1" stroke="#000000" stroke-width="1" points="54,530 59,530 "/>
<text x="50" y="425" dy="0.5ex" text-anchor="end" font-family="sans-serif" font-size="9.67741935483871" opacity="1" fill="#000000">
0.03
</text>
<polyline fill="none" opacity="1" stroke="#000000" stroke-width="1" points="54,425 59,425 "/>
<text x="50" y="320" dy="0.5ex" text-anchor="end" font-family="sans-serif" font-size="9.67741935483871" opacity="1" fill="#000000">
0.04
</text>
<polyline fill="none" opacity="1" stroke="#000000" stroke-width="1" points="54,320 59,320 "/>
<text x="50" y="216" dy="0.5ex" text-anchor="end" font-family="sans-serif" font-size="9.67741935483871" opacity="1" fill="#000000">
0.05
</text>
<polyline fill="none" opacity="1" stroke="#000000" stroke-width="1" points="54,216 59,216 "/>
<polyline fill="none" opacity="1" stroke="#000000" stroke-width="1" points="60,740 1190,740 "/>
<text x="60" y="750" dy="0.76em" text-anchor="middle" font-family="sans-serif" font-size="9.67741935483871" opacity="1" fill="#000000">
2015-09-24Z
</text>
<polyline fill="none" opacity="1" stroke="#000000" stroke-width="1" points="60,740 60,745 "/>
<text x="175" y="750" dy="0.76em" text-anchor="middle" font-family="sans-serif" font-size="9.67741935483871" opacity="1" fill="#000000">
2016-04-14Z
</text>
<polyline fill="none" opacity="1" stroke="#000000" stroke-width="1" points="175,740 175,745 "/>
<text x="291" y="750" dy="0.76em" text-anchor="middle" font-family="sans-serif" font-size="9.67741935483871" opacity="1" fill="#000000">
2016-11-03Z
</text>
<polyline fill="none" opacity="1" stroke="#000000" stroke-width="1" points="291,740 291,745 "/>
<text x="406" y="750" dy="0.76em" text-anchor="middle" font-family="sans-serif" font-size="9.67741935483871" opacity="1" fill="#000000">
2017-05-25Z
</text>
<polyline fill="none" opacity="1" stroke="#000000" stroke-width="1" points="406,740 406,745 "/>
<text x="522" y="750" dy="0.76em" text-anchor="middle" font-family="sans-serif" font-size="9.67741935483871" opacity="1" fill="#000000">
2017-12-14Z
</text>
<polyline fill="none" opacity="1" stroke="#000000" stroke-width="1" points="522,740 522,745 "/>
<text x="638" y="750" dy="0.76em" text-anchor="middle" font-family="sans-serif" font-size="9.67741935483871" opacity="1" fill="#000000">
2018-07-05Z
</text>
<polyline fill="none" opacity="1" stroke="#000000" stroke-width="1" points="638,740 638,745 "/>
<text x="753" y="750" dy="0.76em" text-anchor="middle" font-family="sans-serif" font-size="9.67741935483871" opacity="1" fill="#000000">
2019-01-24Z
</text>
<polyline fill="none" opacity="1" stroke="#000000" stroke-width="1" points="753,740 753,745 "/>
<text x="869" y="750" dy="0.76em" text-anchor="middle" font-family="sans-serif" font-size="9.67741935483871" opacity="1" fill="#000000">
2019-08-15Z
</text>
<polyline fill="none" opacity="1" stroke="#000000" stroke-width="1" points="869,740 869,745 "/>
<text x="984" y="750" dy="0.76em" text-anchor="middle" font-family="sans-serif" font-size="9.67741935483871" opacity="1" fill="#000000">
2020-03-05Z
</text>
<polyline fill="none" opacity="1" stroke="#000000" stroke-width="1" points="984,740 984,745 "/>
<text x="1100" y="750" dy="0.76em" text-anchor="middle" font-family="sans-serif" font-size="9.67741935483871" opacity="1" fill="#000000">
2020-09-24Z
</text>
<polyline fill="none" opacity="1" stroke="#000000" stroke-width="1" points="1100,740 1100,745 "/>
<polyline fill="none" opacity="1" stroke="#E61919" stroke-width="2" points="899,738 900,738 901,738 901,738 902,738 902,738 904,738 904,737 905,737 905,737 905,737 906,737 906,736 907,735 908,735 908,735 909,735 909,734 910,734 910,733 911,733 912,733 912,732 913,732 914,732 914,731 915,730 916,729 916,727 917,723 917,723 918,723 918,723 919,722 920,722 920,722 921,720 921,717 922,716 922,716 923,715 924,715 924,714 925,714 925,713 926,713 926,711 927,711 928,710 928,710 929,710 929,710 930,709 930,709 931,707 931,707 932,706 933,706 933,706 934,706 934,706 935,704 935,704 936,704 937,704 937,703 938,703 938,702 939,703 939,702 940,702 941,701 941,701 942,701 942,700 943,700 943,699 944,699 945,698 945,698 946,697 946,697 947,696 947,695 948,695 949,693 949,692 950,692 950,691 951,691 951,690 952,688 953,687 953,686 954,686 954,685 955,683 955,682 956,681 957,681 957,681 958,680 958,680 959,680 959,680 960,679 961,679 961,676 962,675 962,675 963,675 963,674 964,674 965,673 965,673 966,673 966,673 967,671 967,670 968,669 969,669 969,668 970,667 970,667 971,666 971,666 972,666 972,666 973,665 974,665 974,664 975,664 975,662 976,662 976,662 977,662 978,662 978,662 979,661 979,661 980,660 980,659 981,659 982,659 982,658 983,657 983,657 984,656 984,657 985,656 985,656 986,656 986,656 986,655 987,655 987,654 987,654 987,654 988,653 988,653 988,651 989,651 989,647 990,647 990,646 990,646 990,645 991,645 991,645 991,645 991,644 992,644 992,643 992,643 992,643 993,643 993,642 994,642 994,642 994,641 995,641 995,640 995,640 996,640 996,639 996,639 996,638 997,638 997,637 998,637 998,637 998,637 998,636 999,636 999,636 999,636 1000,636 1000,635 1000,635 1000,635 1001,635 1001,634 1002,634 1002,633 1002,633 1002,633 1003,633 1003,632 1003,632 1003,631 1004,631 1004,629 1004,629 1004,627 1005,625 1006,625 1006,624 1006,624 1006,623 1007,623 1007,622 1007,622 1007,621 1008,621 1008,621 1008,621 1008,620 1009,620 1009,619 1010,619 1010,617 1010,617 1010,617 1011,617 1011,615 1011,615 1011,614 1012,614 1012,613 1013,613 1013,613 1014,613 1014,612 1014,612 1014,610 1015,610 1015,610 1015,610 1015,610 1016,610 1016,610 1016,610 1016,609 1017,609 1017,609 1017,609 1017,608 1018,607 1019,607 1019,605 1019,605 1019,604 1020,604 1020,603 1020,603 1020,601 1021,601 1021,599 1021,599 1022,599 1022,599 1023,599 1023,598 1023,598 1023,596 1024,596 1024,594 1024,594 1024,593 1025,593 1025,593 1025,593 1025,592 1026,592 1026,591 1027,591 1027,587 1027,587 1027,585 1028,585 1028,582 1028,582 1028,581 1029,581 1029,580 1029,580 1029,579 1030,579 1030,578 1031,578 1031,576 1031,576 1031,576 1032,576 1032,575 1032,574 1033,574 1033,572 1033,572 1033,570 1034,570 1034,569 1035,569 1035,567 1035,567 1035,567 1036,567 1036,566 1036,566 1036,565 1037,565 1037,564 1037,564 1037,562 1038,561 1039,561 1039,558 1039,558 1039,557 1040,557 1040,556 1040,556 1040,555 1041,555 1041,554 1041,552 1042,551 1043,551 1043,550 1043,549 1044,549 1044,549 1044,549 1044,548 1045,548 1045,547 1045,547 1045,546 1046,546 1046,545 1047,545 1047,545 1047,545 1047,544 1048,544 1048,544 1048,544 1048,544 1049,544 1049,543 1049,542 1050,542 1050,542 1051,542 1051,541 1051,541 1051,539 1052,539 1052,538 1052,538 1052,538 1053,538 1053,537 1053,537 1053,536 1054,536 1054,534 1055,534 1055,534 1055,534 1055,533 1056,533 1056,533 1056,533 1056,532 1057,532 1057,532 1057,532 1057,531 1058,531 1058,531 1059,530 1059,530 1059,529 1060,529 1060,529 1060,529 1060,528 1061,528 1061,528 1061,528 1061,527 1062,527 1062,527 1062,527 1062,525 1063,525 1064,525 1064,524 1064,524 1064,523 1065,523 1065,522 1065,522 1065,522 1066,522 1066,521 1066,521 1066,519 1067,519 1067,519 1068,519 1068,518 1068,518 1068,517 1069,517 1069,517 1069,517 1069,516 1070,516 1070,514 1070,514 1070,513 1071,513 1071,513 1072,513 1072,512 1072,512 1072,510 1073,510 1073,509 1073,509 1073,507 1074,507 1074,507 1074,506 1075,506 1075,504 1076,504 1076,503 1076,503 1076,501 1077,502 1077,501 1077,501 1077,498 1078,498 1078,498 1078,498 1078,496 1079,496 1079,496 1080,496 1080,494 1080,494 1080,493 1081,493 1081,493 1081,493 1081,492 1082,492 1082,492 1082,492 1082,490 1083,490 1083,489 1084,489 1084,489 1084,489 1084,489 1085,489 1085,487 1085,487 1085,486 1086,486 1086,485 1086,485 1086,483 1087,483 1087,481 1088,481 1088,476 1088,476 1088,474 1089,474 1089,474 1089,474 1089,473 1090,473 1090,473 1090,472 1091,472 1091,471 1092,469 1092,469 1092,469 1093,469 1093,468 1093,468 1093,467 1094,467 1094,465 1094,465 1094,465 1095,465 1095,463 1096,463 1096,462 1096,461 1096,461 1097,461 1097,458 1097,458 1097,458 1098,457 1098,457 1098,456 1099,456 1099,455 1100,455 1100,453 1100,453 1100,453 1101,453 1101,453 1101,453 1101,453 1102,453 1102,452 1102,452 1102,451 1103,451 1103,451 1103,451 1103,450 1104,450 1104,449 1105,449 1105,448 1105,448 1105,448 1106,448 1106,447 1106,447 1106,447 1107,447 1107,447 1107,447 1107,447 1108,447 1108,447 1109,447 1109,447 1109,447 1109,446 1110,446 1110,445 1110,445 1110,444 1111,444 1111,444 1111,444 1111,444 1112,444 1112,444 1113,444 1113,443 1113,443 1113,442 1114,442 1114,441 1114,441 1114,440 1115,440 1115,439 1115,439 1115,439 1116,439 1116,438 1117,438 1117,436 1117,436 1117,435 1118,435 1118,434 1118,434 1118,434 1119,434 1119,433 1119,433 1119,430 1120,430 1120,429 1121,429 1121,429 1121,429 1121,429 1122,429 1122,428 1122,428 1122,427 1123,427 1123,427 1123,427 1123,427 1124,427 1124,427 1125,425 1125,425 1125,423 1126,423 1126,422 1126,422 1126,421 1127,421 1127,420 1127,420 1127,418 1128,418 1128,418 1129,418 1129,418 1129,418 1129,417 1130,417 1130,417 1130,417 1130,416 1131,416 1131,417 1131,417 1131,416 1132,416 1132,415 1133,415 1133,415 1133,415 1133,414 1134,414 1134,414 1134,414 1134,413 1135,413 1135,412 1135,412 1135,423 1136,423 1137,423 1137,423 1137,423 1137,422 1138,422 1138,420 1138,420 1138,420 1139,419 1139,419 1139,419 1140,419 1140,418 1141,418 1141,418 1141,418 1141,417 1142,417 1142,417 1142,417 1142,416 1143,416 1143,416 1143,416 1143,416 1144,416 1144,415 1145,415 1145,414 1145,414 1145,414 1146,414 1146,414 1146,414 1146,414 1147,414 1147,414 1147,414 1147,414 1148,414 1148,413 1148,413 1148,413 1149,413 1149,413 1150,413 1150,413 1150,413 1150,412 1151,412 1151,412 1151,412 1151,412 1152,412 1152,412 1152,412 1152,412 1153,412 1153,411 1154,411 1154,410 1154,410 1154,408 1155,408 1155,407 1155,407 1155,406 1156,406 1156,405 1156,405 1156,404 1157,404 1157,403 1158,403 1158,400 1158,400 1158,398 1159,398 1159,397 1159,397 1160,397 1160,397 1160,397 1160,396 1161,396 1161,396 1162,396 1162,395 1162,395 1162,394 1163,394 1163,394 1163,394 1163,393 1164,393 1164,391 1164,391 1164,389 1165,389 1165,387 1166,387 1166,387 1166,387 1166,386 1167,386 1167,386 1167,386 1167,385 1168,385 1168,384 1168,384 1168,384 1169,384 1169,383 1170,383 1170,381 1170,381 1170,381 1171,381 1171,380 1171,380 1171,380 1172,380 1172,379 1172,379 1172,378 1173,378 1173,377 1174,377 1174,376 1174,376 1174,375 1175,375 1175,374 1175,374 1175,374 1176,374 1176,372 1176,372 1176,372 1177,371 1177,370 1178,370 1178,370 1178,370 1178,369 1179,369 1179,368 1179,368 1179,364 1180,364 1180,362 1180,362 1180,361 1181,361 1181,360 1182,360 1182,360 1182,360 1182,358 1183,358 1183,358 1183,358 1183,357 1184,357 1184,356 1184,356 1184,355 1185,355 1185,354 1186,354 1186,354 1186,354 1186,353 1187,353 1187,352 1187,352 1187,350 1188,350 1188,350 1188,350 1188,350 1189,350 1189,349 1190,349 "/>
<polyline fill="none" opacity="1" stroke="#E6C819" stroke-width="2" points="738,738 745,738 749,737 752,736 771,736 777,736 790,735 791,734 794,734 795,734 798,733 799,733 800,733 800,733 801,733 802,733 805,733 806,733 806,733 807,732 809,732 810,732 810,732 811,732 811,732 812,732 813,732 814,732 814,732 815,732 815,731 816,731 818,732 818,732 820,732 820,732 821,732 822,732 822,732 823,732 824,732 824,732 826,732 826,732 827,732 828,732 828,731 829,731 830,731 831,731 832,731 833,731 834,731 835,730 835,730 836,730 836,730 837,730 838,729 838,729 839,729 839,729 840,729 840,729 841,729 842,729 842,729 843,729 843,728 844,728 844,728 845,728 845,728 846,729 847,729 847,729 848,729 848,729 849,729 850,729 851,728 851,728 852,727 852,727 853,728 853,728 854,728 855,728 855,728 856,728 856,728 857,728 858,728 859,727 859,727 860,727 860,727 861,727 862,727 863,727 863,727 864,727 864,727 865,727 865,727 866,727 867,727 867,727 868,727 868,727 869,727 869,727 870,727 871,727 871,727 872,727 872,727 873,727 874,727 875,727 875,727 876,727 876,727 877,726 877,726 878,726 879,725 879,725 880,725 880,725 881,725 881,725 882,725 883,725 883,725 884,725 884,725 885,725 885,725 886,725 886,725 887,725 888,725 888,725 889,725 889,725 890,725 890,725 891,725 892,725 893,725 893,725 894,725 895,725 896,724 896,724 897,724 897,723 898,723 899,723 900,723 900,723 901,723 901,723 902,724 903,724 904,723 904,723 905,723 905,723 905,723 906,723 906,723 907,723 908,723 908,723 909,723 910,723 910,723 911,723 912,724 912,724 913,724 913,724 914,724 914,724 915,724 916,724 916,724 917,724 917,724 918,723 918,723 919,723 920,723 920,723 921,723 922,723 922,723 923,723 924,724 924,724 925,724 925,724 926,724 926,724 927,724 928,724 928,724 929,724 929,724 930,724 931,724 931,724 932,724 933,724 933,724 934,723 934,724 935,724 935,724 936,724 937,724 937,724 938,724 938,724 939,724 939,724 940,724 941,724 941,724 942,724 943,724 943,724 944,724 945,724 945,724 946,724 946,724 947,724 947,724 948,724 949,724 949,724 950,724 951,724 951,724 952,724 953,724 953,724 954,724 954,724 955,724 955,724 956,724 957,724 957,724 958,724 958,724 959,724 959,724 960,724 961,724 961,724 962,724 962,724 963,724 963,724 964,724 965,724 965,724 966,724 966,724 967,724 967,723 968,723 969,723 969,722 970,722 970,722 971,722 971,722 972,722 972,723 973,723 974,723 974,722 975,722 975,722 976,722 976,722 977,722 978,722 978,722 979,722 980,722 980,722 981,722 982,722 982,722 983,722 983,722 984,722 984,722 985,722 985,722 986,722 986,722 986,722 987,722 987,722 987,722 987,722 988,722 988,722 988,722 989,722 989,722 990,722 990,723 990,723 990,723 991,723 991,723 991,723 991,723 992,723 992,723 992,723 992,723 993,723 993,723 994,723 994,722 994,722 995,722 995,722 995,722 996,722 996,722 996,722 996,722 997,722 997,722 998,722 998,722 998,722 998,722 999,722 999,722 999,722 1000,722 1000,722 1000,722 1000,722 1001,722 1001,722 1002,722 1002,722 1002,722 1002,722 1003,722 1003,722 1003,722 1003,722 1004,722 1004,722 1004,722 1004,722 1005,722 1006,722 1006,722 1006,722 1006,722 1007,722 1007,722 1007,722 1007,722 1008,722 1008,722 1008,722 1008,722 1009,722 1009,722 1010,722 1010,722 1010,722 1010,722 1011,722 1011,722 1011,722 1011,722 1012,722 1012,722 1013,722 1013,722 1014,722 1014,722 1014,722 1014,722 1015,722 1015,722 1015,722 1015,722 1016,722 1016,722 1016,722 1016,722 1017,722 1017,722 1017,722 1017,722 1018,722 1019,722 1019,722 1019,722 1019,722 1020,722 1020,722 1020,722 1021,722 1021,722 1021,722 1022,722 1022,722 1023,722 1023,722 1023,722 1023,722 1024,722 1024,722 1024,722 1024,722 1025,722 1025,722 1025,722 1025,722 1026,722 1026,722 1027,722 1027,722 1027,722 1027,722 1028,722 1028,722 1028,722 1028,722 1029,722 1029,722 1029,722 1029,722 1030,722 1030,722 1031,722 1031,722 1031,722 1031,722 1032,722 1032,722 1032,722 1033,722 1033,722 1033,722 1033,722 1034,722 1034,722 1035,722 1035,722 1035,722 1035,722 1036,722 1036,722 1036,722 1036,722 1037,722 1037,722 1037,722 1037,722 1038,723 1039,723 1039,723 1039,723 1039,723 1040,723 1040,723 1040,723 1040,723 1041,723 1041,723 1041,723 1042,723 1043,723 1043,723 1043,723 1044,723 1044,723 1044,723 1044,723 1045,723 1045,723 1045,723 1045,723 1046,723 1046,723 1047,723 1047,723 1047,723 1047,723 1048,723 1048,723 1048,723 1048,723 1049,723 1049,723 1049,723 1050,723 1050,723 1051,723 1051,723 1051,723 1051,723 1052,723 1052,723 1052,723 1052,723 1053,723 1053,723 1053,723 1053,723 1054,723 1054,723 1055,723 1055,723 1055,723 1055,723 1056,723 1056,723 1056,723 1056,723 1057,723 1057,723 1057,723 1057,723 1058,723 1058,723 1059,723 1059,723 1059,723 1060,723 1060,723 1060,723 1060,723 1061,723 1061,723 1061,723 1061,723 1062,723 1062,723 1062,723 1063,723 1064,723 1064,723 1064,723 1064,723 1065,723 1065,723 1065,723 1065,723 1066,723 1066,723 1066,723 1066,723 1067,723 1067,723 1068,723 1068,723 1068,723 1068,723 1069,723 1069,723 1069,723 1069,723 1070,723 1070,723 1070,723 1070,723 1071,723 1071,724 1072,724 1072,724 1072,724 1072,724 1073,724 1073,724 1073,724 1073,724 1074,724 1074,724 1074,724 1075,724 1075,724 1076,724 1076,724 1076,724 1076,724 1077,724 1077,724 1077,724 1077,724 1078,724 1078,724 1078,724 1078,724 1079,724 1079,724 1080,724 1080,724 1080,724 1080,724 1081,724 1081,724 1081,724 1081,724 1082,724 1082,724 1082,724 1082,724 1083,724 1083,724 1084,724 1084,724 1084,724 1084,724 1085,724 1085,724 1085,724 1085,724 1086,724 1086,724 1086,724 1086,724 1087,724 1088,724 1088,724 1088,724 1088,724 1089,724 1089,724 1089,724 1089,724 1090,724 1090,724 1090,724 1091,724 1091,724 1092,724 1092,724 1092,724 1093,724 1093,724 1093,724 1093,724 1094,724 1094,724 1094,724 1094,724 1095,724 1095,724 1096,724 1096,724 1096,724 1096,724 1097,724 1097,724 1097,724 1097,724 1098,724 1098,724 1098,724 1099,724 1099,724 1100,724 1100,724 1100,724 1100,724 1101,724 1101,724 1101,724 1101,724 1102,724 1102,724 1102,724 1102,724 1103,724 1103,724 1103,724 1104,724 1104,724 1105,724 1105,724 1105,724 1105,724 1106,724 1106,724 1106,724 1106,724 1107,724 1107,724 1107,724 1108,724 1108,724 1109,724 1109,724 1109,724 1109,724 1110,724 1110,724 1110,724 1110,724 1111,724 1111,724 1111,724 1111,724 1112,724 1112,724 1113,724 1113,724 1113,724 1113,724 1114,724 1114,724 1114,724 1115,724 1115,724 1115,724 1115,724 1116,724 1116,724 1117,724 1117,724 1117,724 1117,724 1118,724 1118,724 1118,724 1118,724 1119,724 1119,724 1119,724 1119,724 1120,724 1120,724 1121,724 1121,724 1121,724 1121,724 1122,724 1122,724 1122,724 1122,724 1123,724 1123,725 1123,725 1123,725 1124,725 1124,725 1125,725 1125,725 1125,725 1126,725 1126,725 1126,725 1126,725 1127,725 1127,725 1127,725 1127,725 1128,725 1128,725 1129,725 1129,725 1129,725 1129,725 1130,725 1130,725 1130,725 1130,725 1131,725 1131,725 1131,725 1131,725 1132,725 1132,725 1133,725 1133,725 1133,725 1133,725 1134,725 1134,725 1134,725 1134,725 1135,725 1135,725 1135,725 1135,726 1136,726 1137,726 1137,726 1137,726 1137,726 1138,726 1138,726 1138,726 1138,725 1139,725 1139,725 1139,725 1139,725 1140,725 1140,725 1141,725 1141,725 1141,725 1141,725 1142,725 1142,725 1142,725 1142,725 1143,725 1143,725 1143,725 1143,725 1144,725 1144,725 1145,725 1145,725 1145,725 1145,725 1146,725 1146,725 1146,725 1146,725 1147,725 1147,725 1147,725 1147,725 1148,725 1148,725 1148,725 1148,725 1149,725 1149,725 1150,725 1150,725 1150,725 1150,725 1151,725 1151,725 1151,725 1151,725 1152,725 1152,725 1152,725 1152,725 1153,725 1154,725 1154,725 1154,725 1154,725 1155,725 1155,725 1155,725 1155,725 1156,725 1156,725 1156,725 1156,725 1157,725 1157,725 1158,725 1158,725 1158,725 1158,726 1159,726 1159,726 1159,725 1160,725 1160,725 1160,725 1160,725 1161,725 1161,725 1162,725 1162,725 1162,725 1162,725 1163,725 1163,725 1163,725 1164,725 1164,725 1164,725 1164,725 1165,725 1165,725 1166,725 1166,725 1166,725 1166,725 1167,725 1167,725 1167,725 1167,725 1168,725 1168,725 1168,725 1169,725 1169,725 1170,725 1170,725 1170,725 1170,725 1171,725 1171,725 1171,725 1171,725 1172,725 1172,725 1172,725 1172,725 1173,725 1173,725 1174,725 1174,725 1174,725 1175,725 1175,725 1175,725 1175,725 1176,725 1176,726 1176,726 1176,726 1177,726 1177,726 1178,726 1178,726 1178,726 1178,726 1179,726 1179,726 1179,726 1179,726 1180,726 1180,726 1180,726 1180,726 1181,726 1181,726 1182,726 1182,726 1182,726 1182,726 1183,726 1183,726 1183,726 1183,726 1184,726 1184,726 1184,726 1184,726 1185,726 1185,726 1186,726 1186,726 1186,726 1186,726 1187,726 1187,726 1187,726 1187,726 1188,726 1188,726 1188,726 1188,726 1189,726 1189,726 1190,726 "/>
<polyline fill="none" opacity="1" stroke="#54E619" stroke-width="2" points="214,737 214,733 219,735 224,733 230,731 230,729 231,727 235,726 246,724 246,724 247,721 251,719 253,716 254,714 255,714 255,712 258,711 259,713 261,710 262,705 263,703 265,702 268,700 270,699 270,699 272,691 273,686 274,683 274,681 278,681 279,679 279,678 280,676 282,675 282,675 283,673 283,674 284,674 284,674 286,673 286,673 287,673 287,673 288,673 288,671 289,670 290,670 290,669 291,667 291,667 292,664 292,663 293,661 294,657 294,656 295,654 296,653 297,653 298,650 301,651 302,650 302,648 303,647 303,645 304,644 305,643 306,641 306,637 307,633 308,632 309,626 310,625 310,623 311,622 311,622 312,619 313,618 314,617 315,616 315,614 316,612 316,611 317,603 318,600 318,596 319,586 319,585 320,584 320,584 321,583 321,582 322,577 323,574 323,575 324,569 325,567 325,567 326,566 327,565 327,566 328,566 328,566 329,562 329,562 330,561 331,560 331,553 332,554 332,554 333,555 333,555 334,555 335,553 336,553 337,553 338,551 339,548 339,549 340,548 340,548 341,549 341,548 342,548 343,548 343,547 344,548 344,544 345,544 345,542 346,540 347,538 347,539 348,539 348,536 349,532 349,530 351,530 351,527 352,523 352,523 353,523 353,523 354,524 355,523 355,522 356,521 356,521 357,522 357,518 358,519 359,519 359,517 360,517 360,515 361,513 361,511 362,511 363,509 363,509 364,507 364,504 365,504 365,505 366,505 366,504 367,503 368,497 368,496 369,492 369,491 370,492 370,492 371,490 372,489 372,485 373,483 373,482 374,481 374,479 375,479 376,479 376,479 377,479 377,478 378,479 378,479 379,480 380,477 380,478 381,478 381,478 382,476 382,475 383,473 384,472 384,470 385,469 385,468 386,467 386,464 387,463 388,463 388,462 389,463 389,464 390,462 390,461 391,461 392,457 392,454 393,452 393,450 394,448 394,449 395,446 396,446 396,445 397,444 397,444 398,441 398,441 399,441 400,438 400,437 401,436 401,431 402,427 402,427 403,427 404,429 404,425 405,421 405,420 406,421 406,420 407,419 407,419 408,420 409,419 409,421 410,417 410,414 411,413 411,413 412,413 413,414 413,414 414,413 414,414 415,412 415,412 416,412 417,412 417,410 418,407 418,407 419,406 419,405 420,401 421,401 421,401 422,400 422,399 423,398 423,398 424,396 425,396 425,394 426,394 426,393 427,392 427,391 428,390 429,390 429,391 430,389 430,390 431,391 431,390 432,389 433,388 433,387 434,386 434,387 435,384 435,383 436,377 437,377 437,378 438,374 438,371 439,369 439,367 440,366 441,366 441,364 442,361 442,360 443,360 443,358 444,358 445,356 445,356 446,356 446,356 447,355 447,354 448,353 449,352 449,354 450,353 450,352 451,351 451,350 452,349 452,348 453,345 454,345 454,346 455,346 455,343 456,342 456,340 457,338 458,338 458,337 459,337 459,334 460,334 460,334 461,330 462,329 462,329 463,327 463,323 464,322 464,322 465,322 466,321 466,318 467,317 467,315 468,316 468,316 469,315 470,315 470,314 471,313 471,313 472,315 472,315 473,315 474,316 474,316 475,316 475,316 476,296 476,295 477,294 478,295 478,293 479,290 479,289 480,288 480,288 481,287 482,287 482,286 483,284 483,286 484,285 484,284 485,282 486,281 486,281 487,279 487,278 488,277 488,278 489,278 490,279 490,279 491,279 491,278 492,279 492,280 493,280 494,281 494,281 495,281 495,280 496,279 496,280 497,280 497,280 498,280 499,280 499,280 500,281 500,280 501,276 501,275 502,273 503,273 503,273 504,273 504,274 505,271 505,268 506,269 507,270 507,270 508,270 508,270 509,270 509,270 510,270 511,269 511,269 512,271 512,271 513,271 513,270 514,268 515,268 515,268 516,268 516,266 517,267 517,264 518,263 519,263 519,264 520,263 520,264 521,266 521,267 522,269 523,267 523,267 524,266 524,265 525,265 525,264 526,265 527,264 527,263 528,261 528,260 529,261 529,261 530,258 531,256 531,255 532,255 532,254 533,254 533,254 534,254 535,256 535,254 536,254 536,254 537,255 537,256 538,256 538,254 539,255 540,256 540,256 541,257 541,257 542,257 542,256 543,255 544,256 544,257 545,258 545,259 546,259 546,260 547,260 548,261 548,265 549,265 549,265 550,266 550,266 551,265 552,266 552,266 553,267 553,267 554,267 554,267 555,267 556,267 556,268 557,268 557,267 558,266 558,267 559,268 560,269 560,269 561,269 561,271 562,271 562,271 563,272 564,273 564,274 565,275 565,277 566,277 566,278 567,283 568,284 568,285 569,286 569,285 570,286 570,286 571,287 572,288 572,285 573,285 573,285 574,286 574,287 575,288 576,289 576,290 577,290 577,289 578,289 578,290 579,291 580,291 580,292 581,293 581,295 582,295 582,294 583,295 583,295 584,294 585,294 585,294 586,295 586,297 587,297 587,298 588,298 589,299 589,300 590,300 590,300 591,300 591,301 592,303 593,304 593,303 594,303 594,304 595,305 595,304 596,305 597,304 597,305 598,306 598,307 599,307 599,306 600,306 601,306 601,307 602,308 602,309 603,308 603,309 604,308 605,309 605,309 606,310 606,311 607,312 607,313 608,313 609,314 609,313 610,313 610,311 611,312 611,312 612,312 613,312 613,313 614,316 614,316 615,317 615,318 616,320 617,320 617,321 618,321 618,321 619,321 619,321 620,320 621,320 621,322 622,322 622,321 623,321 623,322 624,323 625,323 625,323 626,323 626,323 627,324 627,324 628,325 628,325 629,326 630,325 630,326 631,326 631,327 632,328 632,328 633,329 634,329 634,330 635,330 635,330 636,330 636,330 637,331 638,331 638,331 639,331 639,332 640,332 640,332 641,332 642,332 642,333 643,333 643,334 644,331 644,332 645,332 646,331 646,332 647,332 647,335 648,336 648,336 649,336 650,337 650,337 651,338 651,338 652,339 652,340 653,341 654,341 654,342 655,344 655,345 656,345 656,347 657,347 658,347 658,347 659,348 659,348 660,350 660,350 661,351 662,352 662,351 663,353 663,353 664,354 664,354 665,353 666,352 666,352 667,355 667,355 668,356 668,356 669,356 669,359 670,359 671,360 671,360 672,360 672,360 673,360 673,360 674,360 675,361 675,361 676,362 676,363 677,363 677,363 678,364 679,364 679,364 680,365 680,365 681,365 681,365 682,365 683,366 683,366 684,366 684,366 685,367 685,367 685,366 686,367 687,366 687,367 688,368 688,369 689,371 689,373 690,372 691,372 691,372 692,372 692,372 693,373 693,373 694,374 695,375 695,376 696,379 696,376 697,377 697,377 698,379 699,379 699,379 700,380 700,380 701,381 701,381 702,382 703,382 703,382 704,382 704,382 705,383 705,384 706,383 707,383 707,383 708,384 708,384 709,384 709,385 710,387 711,400 711,401 712,402 712,402 713,402 713,403 714,402 714,402 715,403 716,404 716,403 717,404 717,404 718,404 718,404 719,405 720,405 720,405 721,406 721,406 722,407 722,407 723,407 724,408 724,407 725,408 725,408 726,409 726,410 727,411 728,411 728,411 729,412 729,412 730,413 730,413 731,413 732,414 732,415 733,415 733,415 734,416 734,416 735,417 736,417 736,418 737,418 737,419 738,419 738,420 739,419 740,420 740,420 741,422 741,422 742,423 742,424 743,425 744,426 744,438 745,438 745,438 746,426 746,427 747,427 748,427 748,429 749,429 749,429 750,430 750,429 751,430 752,430 752,429 753,430 753,430 754,431 754,431 755,431 755,430 756,431 757,431 757,431 758,432 758,432 759,433 759,434 760,434 761,436 761,436 762,437 762,437 763,437 763,438 764,438 765,439 765,440 766,439 766,439 767,440 767,440 768,440 769,439 769,440 770,440 770,440 771,441 771,441 772,442 773,442 773,443 774,443 774,443 775,444 775,445 776,445 777,446 777,446 778,446 778,446 779,447 779,447 780,448 781,448 781,449 782,449 782,450 783,450 783,451 784,451 785,451 785,451 786,452 786,453 787,453 787,453 788,454 789,454 789,454 790,455 790,455 791,455 791,456 792,456 793,457 793,457 794,458 794,456 795,456 795,456 796,457 797,458 797,458 798,458 798,459 799,459 799,459 800,460 800,460 801,461 802,461 802,461 803,461 803,462 804,462 804,463 805,463 806,464 806,464 807,464 807,464 808,465 808,465 809,465 810,466 810,467 811,468 811,468 812,468 812,469 813,469 814,470 814,470 815,471 815,472 816,471 816,472 817,472 818,472 818,473 819,473 819,474 820,474 820,474 821,474 822,475 822,475 823,476 823,475 824,476 824,475 825,475 826,475 826,475 827,475 827,476 828,476 828,477 829,477 830,477 830,478 831,478 831,478 832,478 832,479 833,479 834,479 834,480 835,481 835,481 836,481 836,482 837,482 838,482 838,482 839,483 839,483 840,483 840,484 841,484 842,484 842,484 843,485 843,485 844,486 844,486 845,486 845,486 846,486 847,486 847,487 848,487 848,487 849,487 849,487 850,488 851,487 851,488 852,488 852,488 853,489 853,489 854,490 855,490 855,490 856,490 856,491 857,491 857,491 858,491 859,492 859,492 860,492 860,492 861,493 861,493 862,493 863,493 863,493 864,493 864,493 865,494 865,494 866,494 867,494 867,495 868,496 868,496 869,497 869,497 870,497 871,497 871,497 872,497 872,498 873,498 873,498 874,499 875,499 875,499 876,499 876,500 877,500 877,500 878,500 879,500 879,501 880,501 880,502 881,502 881,502 882,502 883,503 883,503 884,504 884,504 885,504 885,504 886,505 886,505 887,505 888,505 888,506 889,506 889,506 890,506 890,507 891,505 892,506 892,506 893,506 893,506 894,506 894,507 895,507 896,507 896,507 897,507 897,508 898,508 898,508 899,508 900,508 900,509 901,509 901,508 902,509 902,509 903,510 904,511 904,511 905,511 905,511 905,512 906,512 906,512 907,512 908,513 908,513 909,513 909,513 910,513 910,514 911,514 912,515 912,515 913,515 913,515 914,515 914,516 915,515 916,516 916,516 917,516 917,516 918,516 918,516 919,516 920,516 920,516 921,516 921,516 922,517 922,517 923,518 924,518 924,519 925,519 925,519 926,519 926,520 927,520 928,520 928,521 929,521 929,521 930,521 930,521 931,521 931,522 932,522 933,522 933,522 934,522 934,523 935,523 935,523 936,524 937,524 937,524 938,524 938,525 939,525 939,526 940,526 941,526 941,526 942,526 942,526 943,527 943,527 944,527 945,527 945,527 946,528 946,528 947,528 947,528 948,528 949,529 949,529 950,530 950,530 951,530 951,531 952,531 953,532 953,532 954,533 954,533 955,533 955,533 956,533 957,535 957,535 958,535 958,536 959,537 959,537 960,537 961,537 961,538 962,538 962,538 963,539 963,539 964,539 965,539 965,539 966,539 966,539 967,540 967,540 968,540 969,541 969,541 970,542 970,541 971,541 971,541 972,541 972,541 973,542 974,542 974,542 975,542 975,543 976,543 976,544 977,544 978,543 978,544 979,544 979,544 980,544 980,545 981,545 982,545 982,545 983,545 983,546 984,546 984,546 985,546 985,546 986,546 986,547 986,547 987,547 987,547 987,547 987,548 988,548 988,548 988,548 989,548 989,549 990,549 990,549 990,549 990,549 991,549 991,549 991,549 991,549 992,549 992,550 992,550 992,550 993,550 993,550 994,550 994,551 994,551 995,551 995,552 995,552 996,552 996,552 996,552 996,553 997,553 997,553 998,553 998,553 998,553 998,553 999,553 999,553 999,553 1000,553 1000,553 1000,553 1000,553 1001,553 1001,554 1002,554 1002,554 1002,554 1002,554 1003,554 1003,555 1003,555 1003,555 1004,555 1004,555 1004,555 1004,556 1005,556 1006,556 1006,556 1006,556 1006,556 1007,556 1007,557 1007,557 1007,557 1008,557 1008,557 1008,557 1008,557 1009,557 1009,558 1010,558 1010,558 1010,558 1010,558 1011,558 1011,558 1011,558 1011,558 1012,558 1012,558 1013,558 1013,559 1014,559 1014,559 1014,559 1014,559 1015,559 1015,560 1015,560 1015,560 1016,560 1016,560 1016,560 1016,561 1017,561 1017,561 1017,561 1017,561 1018,561 1019,561 1019,561 1019,561 1019,561 1020,561 1020,562 1020,562 1020,561 1021,561 1021,562 1021,562 1022,562 1022,562 1023,562 1023,563 1023,563 1023,563 1024,563 1024,562 1024,562 1024,563 1025,563 1025,563 1025,563 1025,563 1026,563 1026,564 1027,564 1027,564 1027,564 1027,564 1028,564 1028,564 1028,564 1028,564 1029,564 1029,565 1029,565 1029,565 1030,565 1030,565 1031,565 1031,566 1031,566 1031,565 1032,565 1032,565 1032,566 1033,566 1033,566 1033,566 1033,566 1034,566 1034,566 1035,566 1035,567 1035,567 1035,567 1036,567 1036,567 1036,567 1036,567 1037,567 1037,568 1037,568 1037,568 1038,568 1039,568 1039,568 1039,568 1039,568 1040,568 1040,569 1040,569 1040,570 1041,570 1041,570 1041,570 1042,570 1043,570 1043,570 1043,570 1044,570 1044,570 1044,570 1044,570 1045,570 1045,570 1045,570 1045,570 1046,570 1046,570 1047,570 1047,570 1047,570 1047,571 1048,571 1048,570 1048,570 1048,570 1049,570 1049,571 1049,571 1050,571 1050,571 1051,571 1051,571 1051,571 1051,571 1052,571 1052,571 1052,571 1052,571 1053,571 1053,572 1053,572 1053,572 1054,572 1054,572 1055,572 1055,572 1055,572 1055,572 1056,572 1056,573 1056,573 1056,573 1057,573 1057,573 1057,573 1057,573 1058,573 1058,573 1059,573 1059,573 1059,574 1060,574 1060,574 1060,574 1060,574 1061,573 1061,574 1061,574 1061,574 1062,574 1062,574 1062,574 1062,575 1063,575 1064,575 1064,575 1064,575 1064,575 1065,575 1065,575 1065,575 1065,575 1066,575 1066,576 1066,576 1066,576 1067,576 1067,575 1068,575 1068,575 1068,575 1068,576 1069,576 1069,576 1069,576 1069,576 1070,576 1070,576 1070,576 1070,576 1071,576 1071,576 1072,576 1072,576 1072,576 1072,576 1073,576 1073,577 1073,577 1073,577 1074,577 1074,577 1074,577 1075,577 1075,578 1076,578 1076,578 1076,578 1076,578 1077,578 1077,578 1077,578 1077,578 1078,578 1078,579 1078,579 1078,579 1079,579 1079,579 1080,579 1080,579 1080,579 1080,579 1081,579 1081,579 1081,579 1081,579 1082,579 1082,580 1082,580 1082,580 1083,580 1083,580 1084,580 1084,581 1084,581 1084,581 1085,581 1085,581 1085,581 1085,581 1086,581 1086,582 1086,582 1086,582 1087,582 1087,582 1088,582 1088,582 1088,582 1088,582 1089,582 1089,582 1089,582 1089,582 1090,583 1090,583 1090,583 1091,583 1091,583 1092,583 1092,583 1092,583 1093,583 1093,583 1093,583 1093,584 1094,584 1094,584 1094,584 1094,584 1095,584 1095,584 1096,584 1096,584 1096,584 1096,584 1097,584 1097,585 1097,585 1097,585 1098,585 1098,585 1098,585 1099,585 1099,585 1100,585 1100,585 1100,585 1100,586 1101,586 1101,586 1101,586 1101,586 1102,586 1102,586 1102,586 1102,586 1103,586 1103,586 1103,586 1103,587 1104,587 1104,587 1105,587 1105,587 1105,587 1105,587 1106,587 1106,588 1106,588 1106,588 1107,588 1107,588 1107,588 1107,588 1108,588 1108,588 1109,588 1109,589 1109,589 1109,589 1110,589 1110,589 1110,589 1110,589 1111,589 1111,589 1111,589 1111,589 1112,589 1112,590 1113,590 1113,590 1113,590 1113,590 1114,590 1114,590 1114,590 1114,590 1115,590 1115,591 1115,591 1115,591 1116,591 1116,591 1117,591 1117,591 1117,591 1117,591 1118,591 1118,591 1118,591 1118,592 1119,592 1119,592 1119,592 1119,592 1120,592 1120,592 1121,592 1121,592 1121,592 1121,592 1122,592 1122,592 1122,592 1122,593 1123,593 1123,593 1123,593 1123,593 1124,593 1124,593 1125,593 1125,593 1125,593 1126,593 1126,593 1126,593 1126,593 1127,593 1127,593 1127,593 1127,593 1128,593 1128,593 1129,593 1129,594 1129,594 1129,594 1130,594 1130,594 1130,594 1130,594 1131,594 1131,594 1131,594 1131,594 1132,594 1132,594 1133,594 1133,595 1133,595 1133,595 1134,595 1134,595 1134,595 1134,595 1135,595 1135,595 1135,595 1135,601 1136,601 1137,601 1137,601 1137,601 1137,601 1138,601 1138,601 1138,601 1138,601 1139,601 1139,601 1139,601 1139,601 1140,601 1140,602 1141,602 1141,602 1141,602 1141,602 1142,602 1142,602 1142,602 1142,602 1143,602 1143,602 1143,602 1143,603 1144,603 1144,603 1145,603 1145,603 1145,603 1145,603 1146,603 1146,603 1146,603 1146,603 1147,603 1147,603 1147,603 1147,603 1148,603 1148,603 1148,603 1148,603 1149,603 1149,603 1150,603 1150,603 1150,604 1150,604 1151,604 1151,605 1151,605 1151,605 1152,605 1152,605 1152,605 1152,605 1153,605 1153,605 1154,605 1154,605 1154,605 1154,605 1155,605 1155,605 1155,605 1155,606 1156,606 1156,606 1156,606 1156,606 1157,606 1157,606 1158,606 1158,606 1158,606 1158,606 1159,606 1159,606 1159,606 1160,606 1160,607 1160,607 1160,607 1161,607 1161,607 1162,607 1162,607 1162,607 1162,607 1163,607 1163,607 1163,607 1163,607 1164,607 1164,607 1164,607 1164,608 1165,608 1165,608 1166,608 1166,608 1166,608 1166,608 1167,608 1167,608 1167,608 1167,608 1168,608 1168,609 1168,609 1168,609 1169,609 1169,609 1170,609 1170,609 1170,609 1170,609 1171,609 1171,609 1171,609 1171,609 1172,609 1172,609 1172,609 1172,609 1173,609 1173,609 1174,610 1174,609 1174,609 1174,610 1175,610 1175,610 1175,610 1175,610 1176,610 1176,610 1176,610 1176,610 1177,610 1177,610 1178,610 1178,611 1178,611 1178,611 1179,611 1179,611 1179,611 1179,611 1180,611 1180,611 1180,611 1180,611 1181,611 1181,611 1182,611 1182,611 1182,611 1182,612 1183,612 1183,612 1183,612 1183,612 1184,612 1184,612 1184,612 1184,612 1185,612 1185,612 1186,612 1186,612 1186,612 1186,612 1187,612 1187,612 1187,612 1187,613 1188,613 1188,613 1188,613 1188,613 1189,613 1189,613 1190,613 "/>
<polyline fill="none" opacity="1" stroke="#19E68E" stroke-width="2" points="506,738 507,737 508,736 509,734 509,732 510,731 511,730 512,729 512,725 513,725 513,723 514,720 515,719 515,718 516,717 516,716 517,714 517,713 520,712 520,710 521,707 521,706 522,704 523,704 523,701 525,699 526,696 527,695 528,694 528,694 529,693 530,690 531,689 531,688 532,685 532,684 533,684 533,683 534,682 535,680 536,678 536,673 537,672 537,672 538,671 538,670 539,669 540,668 540,668 541,664 541,665 542,665 542,664 543,663 544,660 544,660 545,659 545,658 546,655 546,654 547,652 548,650 548,648 549,645 549,644 550,643 550,640 551,640 552,638 552,637 553,636 553,635 554,630 554,628 555,629 556,629 556,628 557,628 557,628 558,627 558,627 559,626 560,624 560,621 561,620 561,617 562,615 562,612 563,610 564,608 564,606 565,604 565,599 566,594 566,593 567,593 568,593 568,588 569,584 569,580 570,579 570,578 571,578 572,575 572,575 573,574 573,574 574,573 574,571 575,571 576,570 576,566 577,565 577,564 578,564 578,562 579,562 580,560 580,559 581,558 581,556 582,556 582,554 583,553 583,552 584,551 585,549 585,547 586,545 586,543 587,543 587,540 588,539 589,535 589,530 590,527 590,525 591,523 591,519 592,516 593,515 593,515 594,514 594,513 595,511 595,510 596,509 597,503 597,500 598,499 598,496 599,495 599,493 600,490 601,488 601,488 602,484 602,482 603,483 603,482 604,481 605,479 605,476 606,475 606,472 607,472 607,469 608,463 609,463 609,461 610,461 610,461 611,460 611,458 612,457 613,456 613,455 614,450 614,450 615,449 615,443 616,438 617,437 617,434 618,433 618,432 619,431 619,432 620,430 621,431 621,428 622,427 622,426 623,426 623,424 625,423 625,422 626,422 626,421 627,420 627,419 628,414 628,412 629,407 630,406 630,403 631,402 631,402 632,403 632,403 633,402 634,400 634,399 635,397 635,397 636,395 636,396 637,393 638,392 638,391 639,391 639,389 640,390 640,389 641,387 642,386 642,383 643,383 643,383 644,382 644,381 645,382 646,381 646,378 647,377 647,372 648,371 648,370 649,369 650,367 650,367 651,367 651,365 652,365 652,364 653,363 654,363 654,361 655,358 655,358 656,356 656,358 657,357 658,355 658,355 659,356 659,354 660,354 660,353 661,352 662,349 662,349 663,347 663,344 664,344 664,341 665,341 666,339 666,338 667,339 667,338 668,337 668,337 669,337 669,338 670,338 671,337 671,336 672,334 672,332 673,330 673,330 674,329 675,328 675,326 676,324 676,322 677,323 677,322 678,321 679,321 679,319 680,317 680,316 681,314 681,313 682,311 683,309 683,307 684,307 684,305 685,305 685,302 685,302 686,302 687,301 687,298 688,296 688,292 689,288 689,286 690,285 691,284 691,284 692,281 692,282 693,281 693,281 694,279 695,280 695,280 696,284 696,280 697,280 697,279 698,278 699,277 699,277 700,272 700,271 701,272 701,269 702,270 703,269 703,268 704,265 704,264 705,263 705,262 706,262 707,263 707,263 708,262 708,259 709,261 709,260 710,258 711,236 711,235 712,236 712,237 713,234 713,235 714,233 714,233 715,233 716,229 716,229 717,228 717,229 718,225 718,224 719,222 720,223 720,222 721,220 721,219 722,220 722,220 723,219 724,216 724,214 725,210 725,208 726,204 726,203 727,201 728,201 728,200 729,198 729,196 730,197 730,197 731,196 732,192 732,190 733,190 733,189 734,187 734,187 735,185 736,184 736,185 737,184 737,184 738,182 738,183 739,182 740,180 740,180 741,177 741,176 742,176 742,175 743,174 744,169 744,190 745,192 745,191 746,170 746,169 747,167 748,167 748,165 749,165 749,165 750,163 750,161 751,162 752,163 752,162 753,162 753,160 754,159 754,159 755,157 755,157 756,156 757,155 757,155 758,156 758,157 759,155 759,155 760,154 761,154 761,154 762,155 762,149 763,149 763,148 764,148 765,145 765,145 766,144 766,144 767,144 767,145 768,145 769,145 769,145 770,145 770,146 771,146 771,145 772,145 773,145 773,143 774,141 774,140 775,139 775,137 776,137 777,138 777,137 778,135 778,134 779,132 779,130 780,131 781,130 781,130 782,129 782,129 783,128 783,129 784,127 785,127 785,127 786,127 786,126 787,126 787,126 788,127 789,127 789,128 790,125 790,125 791,123 791,123 792,122 793,121 793,118 794,118 794,119 795,118 795,118 796,119 797,119 797,117 798,117 798,115 799,113 799,113 800,113 800,113 801,114 802,114 802,114 803,113 803,111 804,111 804,111 805,110 806,110 806,111 807,110 807,109 808,108 808,109 809,107 810,106 810,108 811,108 811,108 812,108 812,108 813,108 814,108 814,107 815,109 815,109 816,110 816,110 817,109 818,109 818,107 819,108 819,106 820,105 820,107 821,108 822,101 822,101 823,102 823,102 824,102 824,101 825,101 826,101 826,102 827,101 827,101 828,101 828,103 829,105 830,105 830,104 831,104 831,103 832,103 832,103 833,103 834,101 834,102 835,101 835,100 836,99 836,99 837,95 838,96 838,95 839,96 839,94 840,92 840,92 841,93 842,90 842,89 843,90 843,89 844,89 844,89 845,88 845,86 846,85 847,86 847,86 848,86 848,85 849,86 849,84 850,84 851,84 851,84 852,85 852,85 853,85 853,85 854,86 855,84 855,84 856,83 856,84 857,83 857,81 858,82 859,83 859,82 860,82 860,84 861,83 861,83 862,83 863,83 863,83 864,83 864,83 865,83 865,82 866,82 867,82 867,83 868,82 868,80 869,80 869,79 870,79 871,79 871,79 872,79 872,76 873,75 873,76 874,76 875,77 875,77 876,77 876,78 877,78 877,79 878,78 879,78 879,78 880,79 880,78 881,78 881,78 882,79 883,80 883,79 884,80 884,78 885,78 885,78 886,78 886,78 887,78 888,78 888,77 889,77 889,77 890,77 890,78 891,79 892,78 892,78 893,77 893,78 894,78 894,79 895,79 896,78 896,79 897,79 897,78 898,78 898,79 899,81 900,81 900,80 901,80 901,80 902,78 902,79 903,79 904,79 904,79 905,79 905,80 905,80 906,83 906,84 907,84 908,85 908,86 909,86 909,86 910,86 910,87 911,87 912,86 912,89 913,90 913,89 914,90 914,95 915,97 916,96 916,99 917,103 917,103 918,104 918,103 919,104 920,104 920,105 921,106 921,110 922,111 922,112 923,113 924,114 924,111 925,112 925,112 926,113 926,113 927,114 928,114 928,115 929,115 929,112 930,112 930,112 931,112 931,112 932,110 933,110 933,111 934,111 934,111 935,111 935,111 936,112 937,112 937,112 938,111 938,112 939,112 939,114 940,114 941,115 941,115 942,115 942,116 943,116 943,111 944,111 945,112 945,113 946,113 946,113 947,114 947,115 948,111 949,110 949,111 950,112 950,112 951,112 951,113 952,113 953,115 953,115 954,115 954,115 955,116 955,116 956,119 957,118 957,118 958,120 958,121 959,121 959,121 960,121 961,124 961,127 962,128 962,127 963,127 963,127 964,128 965,128 965,128 966,129 966,129 967,129 967,130 968,130 969,131 969,130 970,131 970,132 971,133 971,133 972,134 972,132 973,134 974,135 974,136 975,135 975,135 976,134 976,135 977,135 978,136 978,137 979,136 979,137 980,138 980,140 981,140 982,141 982,142 983,142 983,143 984,140 984,141 985,140 985,141 986,141 986,141 986,141 987,141 987,142 987,142 987,143 988,144 988,144 988,145 989,145 989,150 990,150 990,151 990,151 990,152 991,152 991,154 991,154 991,154 992,154 992,154 992,154 992,155 993,155 993,155 994,155 994,156 994,156 995,156 995,157 995,157 996,157 996,157 996,157 996,155 997,155 997,156 998,156 998,156 998,156 998,156 999,156 999,156 999,157 1000,157 1000,156 1000,156 1000,156 1001,156 1001,156 1002,156 1002,157 1002,157 1002,157 1003,157 1003,157 1003,157 1003,158 1004,158 1004,158 1004,158 1004,158 1005,160 1006,160 1006,161 1006,161 1006,162 1007,162 1007,161 1007,161 1007,163 1008,163 1008,165 1008,165 1008,164 1009,164 1009,166 1010,166 1010,167 1010,167 1010,166 1011,166 1011,167 1011,167 1011,169 1012,169 1012,170 1013,170 1013,170 1014,170 1014,170 1014,170 1014,170 1015,170 1015,170 1015,170 1015,170 1016,170 1016,171 1016,171 1016,172 1017,172 1017,172 1017,172 1017,173 1018,174 1019,175 1019,175 1019,176 1019,176 1020,176 1020,177 1020,177 1020,178 1021,178 1021,179 1021,180 1022,180 1022,181 1023,181 1023,183 1023,183 1023,183 1024,183 1024,184 1024,184 1024,185 1025,185 1025,186 1025,186 1025,186 1026,186 1026,187 1027,187 1027,187 1027,187 1027,187 1028,187 1028,187 1028,187 1028,189 1029,189 1029,190 1029,190 1029,191 1030,191 1030,192 1031,192 1031,192 1031,192 1031,193 1032,193 1032,194 1032,195 1033,195 1033,196 1033,196 1033,197 1034,197 1034,200 1035,200 1035,201 1035,201 1035,201 1036,201 1036,202 1036,202 1036,203 1037,203 1037,203 1037,203 1037,204 1038,204 1039,204 1039,205 1039,205 1039,206 1040,206 1040,207 1040,207 1040,208 1041,208 1041,208 1041,209 1042,212 1043,212 1043,212 1043,213 1044,213 1044,213 1044,213 1044,214 1045,214 1045,215 1045,215 1045,215 1046,216 1046,216 1047,216 1047,218 1047,218 1047,219 1048,219 1048,219 1048,219 1048,220 1049,220 1049,220 1049,220 1050,220 1050,220 1051,220 1051,222 1051,222 1051,223 1052,223 1052,223 1052,223 1052,224 1053,224 1053,225 1053,225 1053,225 1054,225 1054,225 1055,225 1055,226 1055,226 1055,227 1056,227 1056,228 1056,228 1056,228 1057,228 1057,230 1057,230 1057,231 1058,231 1058,231 1059,233 1059,233 1059,233 1060,233 1060,234 1060,234 1060,234 1061,234 1061,235 1061,235 1061,236 1062,236 1062,237 1062,237 1062,237 1063,237 1064,237 1064,238 1064,238 1064,238 1065,238 1065,239 1065,239 1065,239 1066,239 1066,239 1066,240 1066,239 1067,239 1067,241 1068,241 1068,241 1068,241 1068,241 1069,241 1069,242 1069,242 1069,243 1070,243 1070,244 1070,244 1070,244 1071,244 1071,244 1072,244 1072,244 1072,244 1072,245 1073,245 1073,245 1073,245 1073,246 1074,247 1074,247 1074,248 1075,248 1075,249 1076,249 1076,249 1076,249 1076,250 1077,250 1077,251 1077,251 1077,252 1078,252 1078,253 1078,253 1078,253 1079,253 1079,253 1080,253 1080,254 1080,254 1080,255 1081,255 1081,256 1081,256 1081,257 1082,257 1082,257 1082,257 1082,259 1083,259 1083,259 1084,259 1084,259 1084,259 1084,260 1085,260 1085,261 1085,261 1085,262 1086,262 1086,262 1086,262 1086,263 1087,263 1087,264 1088,264 1088,265 1088,265 1088,265 1089,265 1089,265 1089,265 1089,266 1090,266 1090,266 1090,265 1091,265 1091,266 1092,269 1092,269 1092,269 1093,269 1093,269 1093,269 1093,270 1094,270 1094,271 1094,271 1094,271 1095,271 1095,272 1096,272 1096,273 1096,273 1096,274 1097,274 1097,275 1097,275 1097,276 1098,276 1098,276 1098,278 1099,278 1099,278 1100,278 1100,279 1100,279 1100,280 1101,280 1101,280 1101,280 1101,280 1102,280 1102,281 1102,281 1102,280 1103,280 1103,278 1103,278 1103,277 1104,277 1104,278 1105,278 1105,279 1105,279 1105,279 1106,279 1106,279 1106,279 1106,280 1107,280 1107,280 1107,280 1107,280 1108,280 1108,281 1109,281 1109,281 1109,281 1109,282 1110,282 1110,283 1110,283 1110,283 1111,283 1111,284 1111,284 1111,284 1112,284 1112,285 1113,285 1113,286 1113,286 1113,286 1114,286 1114,286 1114,286 1114,287 1115,287 1115,287 1115,287 1115,288 1116,288 1116,288 1117,288 1117,289 1117,289 1117,289 1118,289 1118,290 1118,290 1118,291 1119,291 1119,292 1119,292 1119,292 1120,292 1120,293 1121,293 1121,294 1121,294 1121,294 1122,294 1122,294 1122,294 1122,295 1123,295 1123,295 1123,295 1123,296 1124,296 1124,296 1125,297 1125,297 1125,297 1126,297 1126,298 1126,298 1126,299 1127,299 1127,300 1127,300 1127,300 1128,300 1128,301 1129,301 1129,301 1129,301 1129,301 1130,301 1130,302 1130,302 1130,302 1131,302 1131,303 1131,303 1131,303 1132,303 1132,303 1133,303 1133,305 1133,305 1133,306 1134,306 1134,307 1134,307 1134,307 1135,307 1135,308 1135,308 1135,325 1136,325 1137,325 1137,325 1137,325 1137,326 1138,326 1138,327 1138,327 1138,329 1139,329 1139,329 1139,329 1139,330 1140,330 1140,330 1141,330 1141,330 1141,330 1141,331 1142,331 1142,331 1142,331 1142,331 1143,331 1143,332 1143,332 1143,332 1144,332 1144,333 1145,333 1145,333 1145,333 1145,333 1146,333 1146,334 1146,334 1146,334 1147,334 1147,334 1147,334 1147,334 1148,334 1148,335 1148,335 1148,335 1149,335 1149,335 1150,335 1150,336 1150,336 1150,336 1151,336 1151,337 1151,337 1151,338 1152,338 1152,338 1152,338 1152,339 1153,339 1153,339 1154,339 1154,339 1154,339 1154,340 1155,340 1155,341 1155,341 1155,341 1156,341 1156,342 1156,342 1156,342 1157,342 1157,342 1158,342 1158,344 1158,344 1158,346 1159,346 1159,347 1159,347 1160,347 1160,350 1160,350 1160,350 1161,350 1161,350 1162,350 1162,351 1162,351 1162,351 1163,351 1163,352 1163,352 1163,352 1164,352 1164,353 1164,353 1164,353 1165,354 1165,354 1166,354 1166,355 1166,354 1166,355 1167,355 1167,355 1167,355 1167,356 1168,356 1168,356 1168,356 1168,357 1169,357 1169,358 1170,358 1170,358 1170,358 1170,358 1171,358 1171,359 1171,359 1171,359 1172,359 1172,359 1172,359 1172,360 1173,360 1173,360 1174,360 1174,361 1174,361 1174,362 1175,362 1175,362 1175,362 1175,362 1176,362 1176,363 1176,363 1176,364 1177,364 1177,364 1178,364 1178,365 1178,365 1178,365 1179,365 1179,365 1179,365 1179,366 1180,366 1180,366 1180,366 1180,367 1181,367 1181,367 1182,367 1182,368 1182,368 1182,368 1183,368 1183,368 1183,368 1183,369 1184,369 1184,369 1184,369 1184,370 1185,370 1185,370 1186,370 1186,370 1186,371 1186,371 1187,371 1187,371 1187,371 1187,372 1188,372 1188,372 1188,372 1188,373 1189,373 1189,373 1190,373 "/>
<polyline fill="none" opacity="1" stroke="#198EE6" stroke-width="2" points="60,735 60,732 63,729 73,726 81,723 88,723 89,720 93,717 94,714 95,715 99,712 103,709 103,706 109,704 115,705 115,705 118,700 123,698 126,701 128,701 134,694 134,691 135,691 135,692 136,692 136,692 138,692 138,692 139,690 140,687 140,687 141,687 142,688 143,688 144,688 145,688 146,686 146,686 147,686 147,684 148,684 148,684 149,684 150,684 151,684 151,685 152,685 152,685 153,685 153,685 154,685 155,683 155,683 156,683 157,683 157,683 158,683 159,683 159,684 161,684 162,684 163,682 163,680 164,680 164,678 165,678 165,680 166,680 167,678 167,678 168,678 169,679 169,679 171,679 171,677 172,677 172,677 173,677 173,677 175,677 175,678 176,678 176,678 177,676 178,673 179,671 179,669 180,669 180,670 181,670 181,670 182,670 183,670 183,670 184,671 185,671 185,671 187,669 187,665 188,663 189,663 189,663 191,664 192,664 192,662 193,662 194,662 194,662 195,662 196,660 196,660 197,661 197,659 198,657 199,657 200,657 201,658 202,658 202,658 203,658 204,658 204,656 205,657 205,657 206,657 206,657 207,657 208,657 209,655 209,654 210,654 210,654 211,652 212,652 212,652 213,652 213,653 214,651 214,651 215,651 216,651 216,651 217,650 218,648 218,644 219,644 220,645 220,645 221,643 222,643 222,643 224,643 225,644 225,644 226,644 226,644 227,644 228,644 228,643 229,643 230,643 230,643 231,643 232,644 232,644 234,644 235,645 235,643 236,643 237,641 237,640 238,640 238,640 239,640 239,640 241,641 242,641 242,641 243,641 243,641 244,641 245,640 246,640 246,638 247,639 247,639 249,639 249,639 250,640 250,640 251,638 253,639 253,637 254,638 255,638 255,635 256,635 257,635 257,635 258,635 258,635 259,636 259,636 260,636 261,638 261,638 262,637 263,637 263,638 264,638 265,638 265,638 266,638 266,638 267,639 267,639 268,639 269,639 269,639 270,636 270,635 271,635 271,635 272,635 273,635 273,635 274,635 274,636 275,636 275,636 276,637 277,637 277,637 278,635 278,636 279,636 279,636 280,633 280,633 281,632 282,632 283,630 283,631 284,631 285,632 286,632 286,632 287,632 288,631 288,631 289,631 290,630 290,628 291,628 292,629 292,629 293,627 294,628 294,628 295,628 295,628 296,627 297,626 298,626 298,624 299,624 299,625 300,625 300,625 301,624 302,624 302,624 303,624 303,624 304,624 304,623 305,623 306,623 306,624 307,624 307,624 308,624 309,624 310,625 310,625 311,625 311,624 312,624 313,624 314,624 314,623 315,622 315,621 316,621 316,621 317,623 318,623 318,622 319,622 319,621 320,621 320,622 321,620 321,619 322,618 323,618 323,619 324,619 324,619 325,619 325,619 326,620 327,620 327,619 328,617 328,618 329,618 329,618 330,618 331,617 331,616 332,616 332,616 333,617 334,616 335,614 335,614 336,613 336,614 337,614 337,614 338,610 339,610 339,611 340,610 340,610 341,610 341,610 342,611 343,610 343,609 344,609 344,609 345,610 345,609 346,608 347,608 347,608 348,609 348,608 349,608 349,608 350,608 351,609 351,607 352,608 352,607 353,606 353,606 354,606 355,606 355,606 356,607 356,607 357,607 357,608 358,607 359,604 359,605 360,605 361,606 361,606 362,606 363,606 363,607 364,607 365,606 365,605 366,605 366,605 367,605 368,606 368,606 369,606 369,606 370,605 370,606 371,606 372,606 372,605 373,605 373,605 374,606 374,606 375,606 376,606 376,606 377,606 377,607 378,607 378,606 379,606 380,606 380,607 381,607 381,606 382,605 382,605 383,605 384,605 384,606 385,606 385,606 386,606 386,606 387,607 388,607 388,607 389,605 389,605 390,606 390,606 391,606 392,606 392,606 393,606 393,607 394,607 394,606 395,605 396,605 396,606 397,606 397,605 398,605 398,605 399,605 400,606 400,606 401,605 401,605 402,606 402,605 403,606 404,607 404,607 405,607 405,606 406,605 406,605 407,606 407,606 408,606 409,606 409,605 410,607 410,604 411,604 411,604 412,605 413,605 413,605 414,603 414,604 415,603 415,603 416,602 417,601 417,601 418,601 418,601 419,601 419,601 420,600 421,601 421,602 422,603 422,603 423,603 423,603 424,602 425,603 426,603 426,603 427,603 427,604 428,604 429,604 429,604 430,604 430,604 431,605 431,605 432,605 433,604 433,604 434,604 434,605 435,605 435,605 436,605 437,606 437,606 438,606 438,606 439,606 439,607 440,607 441,607 441,606 442,606 442,606 443,606 443,605 444,605 445,605 445,605 446,604 446,604 447,604 447,604 448,605 449,605 449,605 450,605 450,605 451,605 451,604 452,605 452,605 453,605 454,605 454,605 455,605 455,605 456,605 456,605 457,606 458,606 458,605 459,605 459,605 460,605 460,606 461,606 462,605 462,605 463,605 463,606 464,606 464,606 465,606 466,606 466,607 467,607 467,607 468,607 468,607 469,607 470,608 470,608 471,608 471,608 472,608 472,609 473,609 474,609 474,609 475,609 475,608 476,609 476,607 477,607 478,608 478,607 479,607 480,607 480,607 481,607 482,607 482,606 483,606 483,607 484,607 484,607 485,607 486,608 487,607 487,607 488,607 488,608 489,607 490,607 490,606 491,607 491,607 492,607 492,607 493,607 494,607 494,606 495,606 495,606 496,607 496,606 497,606 497,606 498,606 499,607 499,607 500,607 500,606 501,606 501,606 502,605 503,604 503,604 504,604 504,605 505,605 505,605 506,605 507,605 507,605 508,606 508,606 509,606 509,606 510,606 511,605 511,605 512,605 512,606 513,606 513,606 514,606 515,607 515,608 516,608 516,608 517,608 517,608 518,608 519,609 519,609 520,609 520,609 521,609 521,610 522,610 523,609 523,609 524,609 524,610 525,610 525,611 526,611 527,611 527,612 528,612 528,612 529,612 529,612 531,613 531,613 532,613 532,613 533,613 533,614 534,614 535,614 535,614 536,614 537,614 537,614 538,614 538,614 539,614 540,615 540,615 541,614 542,615 542,615 543,614 544,614 544,615 545,615 545,615 546,615 546,615 547,615 548,615 548,616 549,615 549,615 550,616 550,616 551,615 552,615 552,616 553,615 553,615 554,615 554,613 555,614 556,614 556,614 557,614 557,614 558,615 558,615 559,615 560,615 560,615 561,614 561,614 562,614 562,613 563,613 564,613 564,612 565,612 565,611 566,611 566,611 567,612 568,611 568,611 569,611 569,612 570,612 570,612 571,612 572,612 572,613 573,613 573,613 574,613 574,613 575,614 576,615 576,615 577,615 577,614 578,615 578,614 579,614 580,614 580,615 581,615 581,615 582,615 582,616 583,616 583,615 584,615 585,615 585,616 586,616 586,615 587,615 587,616 588,616 589,616 589,616 590,616 590,616 591,616 591,616 592,616 593,616 593,616 594,617 594,616 595,616 595,615 596,615 597,615 597,615 598,616 598,615 599,615 599,615 600,615 601,615 601,615 602,615 602,615 603,615 603,615 604,616 605,616 605,616 606,617 606,617 607,617 607,618 608,618 609,618 609,618 610,618 610,618 611,618 611,618 612,618 613,618 613,619 614,618 614,619 615,619 615,619 616,619 617,619 617,619 618,619 618,619 619,619 619,618 620,619 621,619 621,619 622,619 622,619 623,619 623,619 624,619 625,619 625,619 626,619 626,619 627,619 627,620 628,620 628,619 629,619 630,619 630,619 631,619 631,619 632,619 632,619 633,620 634,619 634,619 635,619 635,619 636,620 636,620 637,620 638,620 638,620 639,620 639,620 640,620 640,620 642,620 642,620 643,620 643,621 644,621 644,621 645,621 646,621 646,621 647,621 647,621 648,621 648,622 649,622 650,622 650,622 651,622 651,622 652,622 652,621 653,622 654,622 654,622 655,622 655,622 656,622 656,623 657,623 658,623 658,623 659,623 659,623 660,623 660,623 661,624 662,624 662,624 663,624 663,624 664,624 664,625 665,625 666,625 666,624 667,625 667,625 668,625 668,626 669,626 669,626 670,626 671,626 671,626 672,627 672,627 673,627 673,627 674,626 675,626 675,626 676,626 676,626 677,626 677,626 678,626 679,626 679,626 680,627 680,626 681,626 681,627 682,627 683,627 683,627 684,628 684,628 685,628 685,628 685,628 686,628 687,628 687,628 688,629 688,629 689,629 689,629 690,629 691,630 691,630 692,629 692,629 693,630 693,630 694,630 695,630 695,630 696,632 696,631 697,631 697,631 698,631 699,631 699,632 700,632 700,632 701,633 701,633 702,633 703,633 703,633 704,633 704,633 705,634 705,634 706,634 707,634 707,634 708,634 708,634 709,634 709,634 710,634 711,634 711,634 712,634 712,635 713,635 713,635 714,635 714,635 715,635 716,635 716,635 717,636 717,636 718,636 718,636 719,636 720,636 720,636 721,636 721,637 722,636 722,636 723,636 724,637 724,637 725,637 725,637 726,637 726,637 727,637 728,637 728,638 729,637 729,637 730,637 730,638 731,638 732,638 732,638 733,638 733,638 734,638 734,638 735,639 736,639 736,639 737,639 737,639 738,639 738,639 739,639 740,640 740,640 741,639 741,640 742,640 742,639 743,640 744,640 744,644 745,644 745,644 746,640 746,640 747,641 748,641 748,641 749,641 749,641 750,642 750,642 751,642 752,642 752,642 753,642 753,643 754,643 754,643 755,643 755,644 756,644 757,644 757,644 758,644 758,644 759,645 759,645 760,645 761,645 761,645 762,645 762,645 763,645 763,645 764,645 765,645 765,645 766,645 766,645 767,646 767,646 768,646 769,646 769,647 770,647 770,647 771,647 771,647 772,647 773,646 773,647 774,647 774,647 775,647 775,647 776,647 777,647 777,647 778,647 778,646 779,646 779,645 780,645 781,645 781,645 782,645 782,645 783,645 783,645 784,645 785,646 785,646 786,646 786,646 787,646 787,646 788,646 789,646 789,647 790,647 790,647 791,647 791,647 792,647 793,647 793,647 794,647 794,647 795,647 795,647 796,647 797,648 797,648 798,648 798,648 799,648 799,648 800,648 800,648 801,649 802,649 802,649 803,649 803,649 804,649 804,648 805,648 806,648 806,649 807,649 807,649 808,649 808,649 809,649 810,649 810,649 811,649 811,649 812,649 812,649 813,649 814,649 814,649 815,649 815,649 816,649 816,649 817,649 818,649 818,649 819,649 819,649 820,649 820,649 821,649 822,649 822,649 823,649 823,649 824,650 824,650 825,650 826,650 826,650 827,650 827,650 828,650 828,650 829,650 830,650 830,650 831,651 831,650 832,650 832,650 833,651 834,651 834,651 835,651 835,651 836,651 836,651 837,651 838,651 838,651 839,652 839,652 840,652 840,652 841,653 842,653 842,653 843,653 843,653 844,653 844,653 845,653 845,654 846,654 847,653 847,653 848,651 848,651 849,651 849,651 850,651 851,651 851,651 852,651 852,651 853,651 853,650 854,650 855,650 855,650 856,650 856,650 857,650 857,650 858,650 859,650 859,650 860,650 860,650 861,650 861,650 862,650 863,650 863,650 864,650 864,650 865,650 865,651 866,651 867,651 867,651 868,651 868,651 869,651 869,651 870,651 871,651 871,651 872,651 872,651 873,652 873,651 874,651 875,651 875,652 876,652 876,652 877,652 877,652 878,651 879,651 879,651 880,651 880,651 881,651 881,652 882,652 883,652 883,652 884,652 884,652 885,652 885,652 886,652 886,652 887,652 888,652 888,652 889,653 889,652 890,653 890,653 891,653 892,653 892,653 893,653 893,654 894,654 894,654 895,654 896,655 896,655 897,655 897,655 898,655 898,655 899,655 900,656 900,656 901,656 901,656 902,656 902,656 903,656 904,656 904,656 905,656 905,656 905,656 906,656 906,656 907,657 908,656 908,656 909,656 909,657 910,656 910,656 911,657 912,657 912,657 913,657 913,657 914,657 914,658 915,657 916,657 916,657 917,657 917,657 918,658 918,658 919,658 920,658 920,658 921,658 921,658 922,658 922,658 923,658 924,658 924,659 925,659 925,659 926,659 926,659 927,659 928,659 928,659 929,659 929,659 930,659 930,659 931,659 931,659 932,659 933,660 933,660 934,660 934,660 935,660 935,660 936,660 937,660 937,660 938,660 938,660 939,661 939,661 940,661 941,661 941,662 942,662 942,662 943,662 943,662 944,662 945,662 945,662 946,662 946,662 947,662 947,662 948,662 949,662 949,662 950,662 950,663 951,663 951,663 952,663 953,663 953,663 954,663 954,663 955,663 955,663 956,664 957,664 957,664 958,664 958,664 959,665 959,665 960,665 961,665 961,665 962,665 962,665 963,665 963,665 964,665 965,665 965,665 966,665 966,666 967,666 967,666 968,666 969,666 969,666 970,667 970,667 971,667 971,667 972,667 972,667 973,667 974,667 974,667 975,667 975,667 976,668 976,667 977,667 978,668 978,667 979,667 979,667 980,668 980,668 981,668 982,668 982,669 983,669 983,669 984,669 984,669 985,669 985,669 986,669 986,669 986,670 987,670 987,670 987,670 987,670 988,670 988,670 988,670 989,670 989,670 990,670 990,670 990,670 990,670 991,670 991,670 991,670 991,670 992,670 992,670 992,670 992,670 993,670 993,670 994,670 994,670 994,670 995,670 995,670 996,670 996,670 996,670 996,670 997,670 997,671 998,671 998,671 998,671 998,671 999,671 999,671 999,671 1000,671 1000,671 1000,671 1000,671 1001,671 1001,671 1002,671 1002,671 1002,671 1002,671 1003,671 1003,671 1003,671 1003,671 1004,671 1004,671 1004,671 1004,672 1005,672 1006,672 1006,672 1006,672 1006,672 1007,672 1007,672 1007,672 1007,672 1008,672 1008,671 1008,671 1008,671 1009,671 1009,671 1010,671 1010,671 1010,671 1010,671 1011,671 1011,671 1011,671 1011,671 1012,671 1012,671 1013,671 1013,671 1014,671 1014,672 1014,672 1014,671 1015,671 1015,671 1015,671 1015,671 1016,671 1016,672 1016,672 1016,672 1017,672 1017,672 1017,672 1017,672 1018,672 1019,672 1019,672 1019,672 1019,672 1020,672 1020,672 1020,672 1020,672 1021,672 1021,672 1021,672 1022,672 1022,673 1023,673 1023,673 1023,673 1023,673 1024,673 1024,674 1024,674 1024,674 1025,674 1025,674 1025,674 1025,674 1026,674 1026,674 1027,674 1027,674 1027,674 1027,674 1028,674 1028,674 1028,674 1028,674 1029,674 1029,674 1029,674 1029,674 1030,674 1030,673 1031,673 1031,674 1031,674 1031,674 1032,674 1032,673 1032,673 1033,673 1033,673 1033,673 1033,673 1034,673 1034,673 1035,673 1035,673 1035,673 1035,673 1036,673 1036,673 1036,673 1036,673 1037,673 1037,673 1037,673 1037,674 1038,674 1039,674 1039,674 1039,674 1039,674 1040,674 1040,674 1040,674 1040,674 1041,674 1041,674 1041,674 1042,674 1043,674 1043,674 1043,674 1044,674 1044,675 1044,675 1044,675 1045,675 1045,675 1045,675 1045,675 1046,675 1046,675 1047,675 1047,675 1047,675 1047,675 1048,675 1048,675 1048,675 1048,675 1049,675 1049,675 1049,675 1050,675 1050,675 1051,675 1051,675 1051,675 1051,675 1052,675 1052,675 1052,675 1052,675 1053,675 1053,675 1053,675 1053,675 1054,675 1054,675 1055,675 1055,675 1055,675 1055,675 1056,675 1056,675 1056,675 1056,675 1057,675 1057,676 1057,676 1057,676 1058,676 1058,675 1059,675 1059,675 1059,675 1060,675 1060,675 1060,675 1060,675 1061,675 1061,675 1061,675 1061,675 1062,675 1062,675 1062,675 1062,675 1063,675 1064,675 1064,675 1064,675 1064,676 1065,676 1065,676 1065,676 1065,676 1066,676 1066,676 1066,676 1066,676 1067,676 1067,676 1068,676 1068,676 1068,676 1068,676 1069,676 1069,676 1069,676 1069,676 1070,676 1070,676 1070,676 1070,677 1071,677 1071,677 1072,677 1072,677 1072,677 1072,677 1073,677 1073,677 1073,677 1073,677 1074,677 1074,677 1074,677 1075,677 1075,677 1076,677 1076,677 1076,677 1076,677 1077,677 1077,677 1077,677 1077,677 1078,677 1078,677 1078,677 1078,677 1079,677 1079,677 1080,677 1080,677 1080,677 1080,677 1081,677 1081,677 1081,677 1081,678 1082,678 1082,678 1082,678 1082,678 1083,678 1083,678 1084,678 1084,678 1084,678 1084,678 1085,678 1085,678 1085,678 1085,678 1086,678 1086,678 1086,678 1086,678 1087,678 1087,679 1088,679 1088,679 1088,679 1088,679 1089,679 1089,679 1089,679 1089,679 1090,679 1090,679 1090,679 1091,679 1091,679 1092,679 1092,679 1092,679 1093,679 1093,679 1093,679 1093,678 1094,678 1094,678 1094,678 1094,679 1095,679 1095,679 1096,679 1096,679 1096,679 1096,679 1097,679 1097,679 1097,679 1097,679 1098,679 1098,679 1098,679 1099,679 1099,679 1100,679 1100,679 1100,679 1100,679 1101,679 1101,679 1101,679 1101,679 1102,679 1102,679 1102,679 1102,679 1103,679 1103,679 1103,679 1103,681 1104,681 1104,680 1105,680 1105,680 1105,680 1105,680 1106,680 1106,681 1106,681 1106,681 1107,681 1107,681 1107,681 1107,681 1108,681 1108,681 1109,681 1109,681 1109,681 1109,681 1110,681 1110,681 1110,681 1110,681 1111,681 1111,681 1111,681 1111,681 1112,681 1112,681 1113,681 1113,682 1113,682 1113,682 1114,682 1114,682 1114,682 1114,682 1115,682 1115,682 1115,682 1115,682 1116,682 1116,682 1117,682 1117,682 1117,682 1117,682 1118,682 1118,682 1118,682 1118,682 1119,682 1119,682 1119,682 1119,682 1120,682 1120,682 1121,682 1121,682 1121,682 1121,682 1122,682 1122,682 1122,682 1122,682 1123,682 1123,682 1123,682 1123,682 1124,682 1124,683 1125,683 1125,683 1125,683 1126,683 1126,683 1126,683 1126,683 1127,683 1127,683 1127,683 1127,683 1128,683 1128,683 1129,683 1129,683 1129,683 1129,683 1130,683 1130,683 1130,683 1130,683 1131,683 1131,683 1131,683 1131,683 1132,683 1132,683 1133,683 1133,684 1133,684 1133,684 1134,684 1134,684 1134,684 1134,684 1135,684 1135,684 1135,684 1135,686 1136,686 1137,686 1137,686 1137,686 1137,686 1138,686 1138,686 1138,686 1138,686 1139,686 1139,686 1139,686 1139,686 1140,686 1140,686 1141,686 1141,686 1141,686 1141,686 1142,686 1142,686 1142,686 1142,686 1143,686 1143,686 1143,686 1143,686 1144,686 1144,686 1145,686 1145,686 1145,686 1145,686 1146,686 1146,687 1146,687 1146,687 1147,687 1147,687 1147,687 1147,687 1148,687 1148,687 1148,687 1148,687 1149,687 1149,687 1150,687 1150,687 1150,687 1150,687 1151,687 1151,687 1151,687 1151,687 1152,687 1152,687 1152,687 1152,687 1153,687 1153,687 1154,687 1154,688 1154,688 1154,688 1155,688 1155,688 1155,688 1155,687 1156,687 1156,688 1156,688 1156,688 1157,688 1157,688 1158,688 1158,688 1158,688 1158,688 1159,688 1159,688 1159,688 1160,688 1160,688 1160,688 1160,688 1161,688 1161,688 1162,688 1162,688 1162,688 1162,688 1163,688 1163,688 1163,688 1163,688 1164,688 1164,688 1164,688 1164,688 1165,688 1165,688 1166,688 1166,688 1166,688 1166,688 1167,688 1167,688 1167,688 1167,688 1168,688 1168,688 1168,688 1168,688 1169,688 1169,689 1170,689 1170,689 1170,689 1170,688 1171,688 1171,689 1171,689 1171,689 1172,689 1172,689 1172,689 1172,689 1173,689 1173,689 1174,689 1174,689 1174,689 1174,689 1175,689 1175,689 1175,689 1175,689 1176,689 1176,689 1176,689 1176,689 1177,689 1177,689 1178,689 1178,690 1178,690 1178,690 1179,690 1179,690 1179,690 1179,690 1180,690 1180,690 1180,690 1180,690 1181,690 1181,690 1182,690 1182,690 1182,690 1182,690 1183,690 1183,690 1183,690 1183,690 1184,690 1184,690 1184,690 1184,690 1185,690 1185,690 1186,690 1186,690 1186,690 1186,690 1187,690 1187,690 1187,690 1187,690 1188,690 1188,690 1188,690 1188,690 1189,690 1189,690 1190,690 "/>
<polyline fill="none" opacity="1" stroke="#5419E6" stroke-width="2" points="811,738 812,738 816,738 821,737 823,736 826,736 828,736 828,735 829,732 830,732 831,732 832,732 837,731 838,731 839,731 840,731 840,731 847,731 851,731 852,730 853,730 855,729 857,729 859,728 859,728 860,727 860,727 861,727 863,727 864,727 864,727 867,727 867,726 868,726 868,725 871,725 872,725 872,725 873,724 874,724 876,724 876,724 877,724 877,724 880,724 881,724 882,724 883,724 884,723 884,723 885,723 886,723 886,723 887,723 888,723 889,723 890,723 890,722 892,723 892,723 893,723 893,722 894,721 894,721 895,721 896,721 896,722 897,722 897,722 898,722 899,722 900,721 900,721 901,721 901,721 902,721 904,721 904,721 905,721 905,721 905,721 906,720 906,720 907,720 908,720 908,719 909,719 910,719 910,718 912,718 912,718 913,717 913,717 914,717 914,717 916,717 917,717 917,717 918,716 918,716 919,716 920,715 920,715 921,715 922,714 922,714 923,714 924,714 924,714 925,714 925,714 926,713 927,713 928,714 929,713 930,713 930,713 931,713 933,714 933,714 934,714 934,714 935,713 937,713 938,713 938,713 940,712 941,713 941,713 942,712 942,712 943,712 943,712 944,712 945,712 945,712 946,712 946,711 947,711 947,712 948,712 949,712 949,712 950,711 950,711 951,712 951,711 952,711 953,711 953,711 954,711 954,711 955,711 956,711 957,711 957,710 958,710 958,710 959,710 959,710 960,709 961,709 962,709 962,710 963,710 963,710 964,710 965,709 965,709 966,709 966,709 967,709 967,708 968,708 969,708 969,709 970,709 970,708 971,708 971,708 972,708 972,708 973,708 974,708 974,708 975,708 975,708 976,708 976,708 977,708 978,708 978,708 979,708 979,707 980,708 981,708 982,708 982,708 983,708 983,708 984,708 984,708 985,708 985,708 986,708 986,708 986,708 987,708 987,708 987,708 987,708 988,708 988,708 988,708 989,708 989,708 990,708 990,708 990,708 990,707 991,707 991,707 991,707 991,707 992,707 992,708 992,708 992,707 993,707 993,707 994,707 994,707 994,707 995,707 995,707 995,707 996,707 996,707 996,707 996,707 997,707 997,707 998,707 998,706 998,706 998,707 999,707 999,707 999,707 1000,707 1000,706 1000,706 1000,706 1001,706 1001,706 1002,706 1002,707 1002,707 1002,707 1003,707 1003,707 1003,707 1003,707 1004,707 1004,707 1004,707 1004,707 1006,707 1006,707 1006,707 1006,707 1007,707 1007,707 1007,707 1007,707 1008,707 1008,707 1008,707 1008,707 1009,707 1009,707 1010,707 1010,707 1010,707 1010,707 1011,707 1011,707 1011,707 1012,707 1012,707 1013,707 1013,707 1014,707 1014,707 1014,707 1014,707 1015,707 1015,707 1015,707 1015,707 1016,707 1016,707 1016,707 1016,706 1017,706 1017,706 1017,707 1018,707 1019,707 1019,707 1019,707 1019,707 1020,707 1020,707 1020,707 1020,707 1021,707 1021,706 1021,706 1022,706 1022,706 1023,706 1023,706 1023,706 1023,706 1024,706 1024,706 1024,706 1024,706 1025,706 1025,706 1025,706 1025,706 1026,706 1027,706 1027,706 1027,706 1027,707 1028,707 1028,706 1028,706 1028,707 1029,707 1029,706 1029,706 1029,706 1030,706 1030,706 1031,706 1031,707 1031,707 1031,707 1032,707 1032,706 1032,706 1033,706 1033,706 1033,706 1033,706 1034,706 1034,706 1035,706 1035,707 1035,707 1035,707 1036,707 1036,707 1036,707 1036,707 1037,707 1037,707 1037,707 1037,707 1038,707 1039,707 1039,707 1039,707 1040,707 1040,707 1040,707 1040,707 1041,707 1041,707 1041,707 1042,707 1043,707 1043,707 1043,707 1044,707 1044,707 1044,707 1044,707 1045,707 1045,707 1045,707 1045,706 1046,706 1047,706 1047,706 1047,706 1047,706 1048,706 1048,706 1048,706 1048,706 1049,706 1049,706 1049,706 1050,706 1050,706 1051,706 1051,706 1051,706 1051,707 1052,707 1052,707 1052,707 1052,707 1053,707 1053,707 1053,707 1053,706 1054,706 1054,707 1055,707 1055,707 1055,707 1055,707 1056,707 1056,707 1056,707 1056,707 1057,707 1057,707 1057,707 1058,707 1058,707 1059,707 1059,707 1059,707 1060,707 1060,707 1060,707 1060,707 1061,707 1061,707 1061,707 1061,707 1062,707 1062,707 1062,707 1062,707 1063,707 1064,707 1064,707 1064,707 1064,707 1065,707 1065,707 1065,707 1065,707 1066,707 1066,707 1066,707 1066,707 1067,707 1067,707 1068,707 1068,707 1068,707 1068,707 1069,707 1069,707 1069,707 1069,707 1070,707 1070,707 1070,707 1070,707 1071,707 1071,707 1072,707 1072,707 1072,707 1072,707 1073,707 1073,707 1073,707 1073,707 1074,707 1074,707 1074,707 1075,707 1075,707 1076,707 1076,707 1076,707 1076,707 1077,707 1077,707 1077,707 1077,707 1078,707 1078,707 1078,707 1078,707 1079,707 1079,707 1080,707 1080,707 1080,707 1080,707 1081,707 1081,707 1081,707 1081,707 1082,707 1082,706 1082,706 1082,707 1083,707 1084,707 1084,706 1084,706 1084,706 1085,706 1085,706 1085,706 1085,706 1086,706 1086,706 1086,706 1086,706 1087,706 1087,706 1088,706 1088,706 1088,706 1088,706 1089,706 1089,706 1089,706 1089,706 1090,706 1090,706 1090,706 1091,706 1091,706 1092,706 1092,706 1093,706 1093,706 1093,706 1093,706 1094,706 1094,706 1095,706 1095,706 1096,706 1096,706 1096,706 1096,705 1097,705 1097,705 1097,705 1097,705 1098,706 1098,706 1098,706 1099,706 1099,706 1100,706 1100,706 1100,706 1100,706 1101,706 1101,706 1101,706 1101,706 1102,706 1102,706 1102,706 1103,706 1103,706 1103,706 1103,704 1104,704 1104,704 1105,704 1105,704 1105,704 1105,704 1106,704 1106,704 1106,704 1106,704 1107,704 1107,704 1107,704 1107,704 1108,704 1108,704 1109,704 1109,704 1109,704 1110,704 1110,704 1110,704 1110,706 1111,706 1111,706 1111,706 1111,706 1112,706 1112,705 1113,705 1113,705 1113,705 1113,705 1114,705 1114,705 1114,705 1114,705 1115,705 1115,705 1115,705 1115,705 1116,705 1116,705 1117,705 1117,705 1117,705 1117,705 1118,705 1118,705 1118,705 1118,705 1119,705 1119,705 1119,705 1119,705 1120,705 1120,705 1121,705 1121,705 1121,705 1121,705 1122,705 1122,705 1122,705 1122,705 1123,705 1123,706 1123,706 1123,706 1124,706 1124,706 1125,706 1125,706 1125,706 1126,706 1126,706 1126,706 1126,706 1127,706 1127,706 1127,706 1127,706 1128,706 1128,706 1129,706 1129,706 1129,706 1129,706 1130,706 1130,707 1130,707 1130,707 1131,706 1131,706 1131,706 1131,706 1132,706 1132,706 1133,706 1133,706 1133,706 1133,707 1134,707 1134,706 1134,706 1134,706 1135,706 1135,706 1135,706 1135,708 1136,708 1137,708 1137,708 1137,708 1137,708 1138,708 1138,708 1138,708 1138,708 1139,708 1139,708 1139,708 1139,708 1140,708 1140,708 1141,708 1141,708 1141,708 1141,708 1142,708 1142,708 1142,708 1142,708 1143,708 1143,708 1143,708 1144,708 1144,708 1145,708 1145,708 1145,708 1145,708 1146,708 1146,708 1146,708 1146,708 1147,708 1147,708 1147,708 1147,708 1148,708 1148,708 1148,708 1148,708 1149,708 1149,708 1150,708 1150,708 1150,708 1150,708 1151,708 1151,708 1151,708 1151,708 1152,708 1152,708 1152,708 1152,708 1153,708 1153,708 1154,708 1154,708 1154,708 1154,708 1155,708 1155,708 1155,708 1155,708 1156,708 1156,708 1156,708 1156,708 1157,708 1157,708 1158,708 1158,708 1158,708 1158,708 1159,708 1159,708 1159,708 1160,708 1160,708 1160,708 1160,708 1161,708 1161,708 1162,708 1162,708 1162,708 1162,708 1163,708 1163,708 1163,708 1163,708 1164,708 1164,708 1164,708 1164,708 1165,708 1165,708 1166,708 1166,708 1166,708 1166,708 1167,708 1167,708 1167,708 1167,708 1168,708 1168,708 1168,708 1168,708 1169,708 1169,708 1170,708 1170,708 1170,708 1170,708 1171,708 1171,708 1171,708 1171,708 1172,708 1172,708 1172,708 1172,708 1173,708 1173,708 1174,708 1174,708 1174,708 1174,708 1175,708 1175,708 1175,708 1175,708 1176,708 1176,708 1176,708 1176,708 1177,708 1177,708 1178,708 1178,708 1178,708 1178,708 1179,708 1179,708 1179,708 1179,708 1180,708 1180,708 1180,708 1180,708 1181,708 1181,708 1182,708 1182,708 1182,708 1182,708 1183,708 1183,708 1183,708 1183,708 1184,708 1184,708 1184,708 1185,708 1185,708 1186,708 1186,708 1186,708 1186,708 1187,708 1187,708 1187,708 1187,708 1188,708 1188,708 1188,708 1188,708 1189,708 1189,708 1190,708 "/>
<polyline fill="none" opacity="1" stroke="#E619C8" stroke-width="2" points="900,738 901,737 901,737 902,736 902,736 904,735 904,735 905,735 905,735 905,735 906,735 906,734 907,734 908,734 908,733 909,733 909,733 910,733 910,732 911,732 912,731 912,730 913,730 914,730 914,728 915,727 916,727 916,726 917,725 917,725 918,724 918,724 919,723 920,723 920,723 921,723 921,720 922,719 922,718 923,717 924,716 924,716 925,716 925,716 926,716 926,716 927,716 928,714 928,714 929,714 929,714 930,714 930,714 931,713 931,714 932,713 933,712 933,712 934,712 934,711 935,711 935,710 936,710 937,709 937,707 938,707 938,707 939,706 939,706 940,706 941,706 941,704 942,703 942,702 943,700 943,700 944,699 945,699 945,698 946,698 946,698 947,697 947,697 948,696 949,696 949,695 950,694 950,694 951,692 951,691 952,690 953,690 953,688 954,688 954,688 955,687 955,687 956,685 957,683 957,683 958,682 958,681 959,681 959,681 960,681 961,680 961,679 962,677 962,677 963,676 963,674 964,674 965,673 965,673 966,673 966,672 967,672 967,672 968,671 969,671 969,670 970,670 970,669 971,669 971,669 972,668 972,668 973,667 974,667 974,666 975,667 975,665 976,664 976,664 977,663 978,662 978,662 979,663 979,661 980,660 980,660 981,660 982,659 982,657 983,656 983,655 984,655 984,654 985,654 985,653 986,653 986,653 986,653 987,653 987,651 987,651 987,651 988,650 988,650 988,649 989,649 989,646 990,646 990,646 990,646 990,645 991,645 991,644 991,644 991,643 992,643 992,642 992,642 992,642 993,642 993,641 994,641 994,640 994,639 995,639 995,638 995,638 996,638 996,638 996,638 996,637 997,637 997,637 998,637 998,637 998,637 998,636 999,636 999,636 999,635 1000,635 1000,635 1000,635 1000,634 1001,634 1001,633 1002,633 1002,632 1002,632 1002,632 1003,632 1003,631 1003,631 1003,631 1004,631 1004,628 1004,628 1004,627 1005,624 1006,624 1006,623 1006,623 1006,621 1007,621 1007,621 1007,621 1007,620 1008,620 1008,618 1008,618 1008,617 1009,617 1009,616 1010,616 1010,616 1010,616 1010,615 1011,615 1011,614 1011,614 1011,613 1012,613 1012,612 1013,612 1013,610 1014,610 1014,609 1014,609 1014,609 1015,609 1015,608 1015,608 1015,608 1016,608 1016,607 1016,607 1016,606 1017,606 1017,605 1017,605 1017,604 1018,602 1019,602 1019,602 1019,602 1019,600 1020,600 1020,598 1020,598 1020,597 1021,597 1021,597 1021,596 1022,596 1022,594 1023,594 1023,592 1023,592 1023,590 1024,590 1024,590 1024,590 1024,590 1025,590 1025,589 1025,589 1025,588 1026,588 1026,587 1027,587 1027,582 1027,582 1027,580 1028,580 1028,579 1028,579 1028,578 1029,578 1029,577 1029,577 1029,577 1030,577 1030,576 1031,576 1031,574 1031,574 1031,572 1032,572 1032,571 1032,570 1033,570 1033,569 1033,569 1033,567 1034,567 1034,567 1035,567 1035,565 1035,565 1035,565 1036,565 1036,564 1036,564 1036,563 1037,563 1037,561 1037,561 1037,560 1038,559 1039,559 1039,559 1039,559 1039,558 1040,558 1040,557 1040,557 1040,555 1041,555 1041,554 1041,552 1042,550 1043,550 1043,549 1043,548 1044,548 1044,547 1044,547 1044,547 1045,547 1045,544 1045,544 1045,543 1046,543 1046,542 1047,542 1047,540 1047,540 1047,540 1048,540 1048,539 1048,539 1048,537 1049,537 1049,537 1049,537 1050,537 1050,536 1051,536 1051,534 1051,534 1051,532 1052,532 1052,532 1052,532 1052,531 1053,531 1053,530 1053,530 1053,529 1054,529 1054,528 1055,528 1055,528 1055,527 1055,527 1056,527 1056,526 1056,526 1056,525 1057,525 1057,525 1057,525 1057,525 1058,525 1058,524 1059,523 1059,523 1059,522 1060,522 1060,520 1060,520 1060,519 1061,519 1061,519 1061,519 1061,518 1062,518 1062,517 1062,517 1062,516 1063,513 1064,513 1064,512 1064,512 1064,511 1065,512 1065,511 1065,511 1065,510 1066,510 1066,510 1066,510 1066,510 1067,510 1067,508 1068,508 1068,508 1068,508 1068,508 1069,508 1069,507 1069,507 1069,506 1070,506 1070,506 1070,506 1070,505 1071,505 1071,504 1072,504 1072,502 1072,502 1072,501 1073,501 1073,500 1073,500 1073,498 1074,498 1074,498 1074,496 1075,496 1075,496 1076,496 1076,494 1076,494 1076,493 1077,493 1077,493 1077,493 1077,490 1078,490 1078,489 1078,489 1078,488 1079,488 1079,487 1080,487 1080,485 1080,485 1080,485 1081,485 1081,482 1081,482 1081,481 1082,481 1082,480 1082,480 1082,478 1083,478 1083,478 1084,478 1084,477 1084,477 1084,475 1085,475 1085,475 1085,475 1085,473 1086,473 1086,473 1086,473 1086,472 1087,472 1087,470 1088,470 1088,468 1088,468 1088,467 1089,467 1089,467 1089,467 1089,467 1090,466 1090,466 1090,464 1091,464 1091,462 1092,460 1092,460 1092,460 1093,460 1093,459 1093,459 1093,459 1094,459 1094,457 1094,457 1094,456 1095,456 1095,454 1096,454 1096,454 1096,454 1096,454 1097,454 1097,454 1097,454 1097,454 1098,454 1098,454 1098,452 1099,452 1099,451 1100,451 1100,450 1100,450 1100,450 1101,450 1101,450 1101,450 1101,449 1102,449 1102,448 1102,448 1102,448 1103,448 1103,447 1103,446 1103,446 1104,446 1104,445 1105,445 1105,443 1105,443 1105,443 1106,443 1106,442 1106,442 1106,442 1107,442 1107,440 1107,440 1107,439 1108,439 1108,438 1109,438 1109,438 1109,438 1109,437 1110,437 1110,436 1110,436 1110,433 1111,433 1111,433 1111,433 1111,432 1112,432 1112,431 1113,431 1113,430 1113,430 1113,428 1114,428 1114,428 1114,428 1114,427 1115,427 1115,426 1115,426 1115,426 1116,426 1116,425 1117,425 1117,423 1117,423 1117,422 1118,422 1118,421 1118,421 1118,419 1119,419 1119,418 1119,418 1119,417 1120,417 1120,416 1121,416 1121,415 1121,415 1121,415 1122,415 1122,415 1122,415 1122,413 1123,413 1123,412 1123,412 1123,411 1124,411 1124,410 1125,408 1125,408 1125,408 1126,408 1126,406 1126,406 1126,406 1127,406 1127,405 1127,405 1127,404 1128,404 1128,403 1129,403 1129,403 1129,403 1129,402 1130,402 1130,402 1130,402 1130,401 1131,401 1131,400 1131,400 1131,400 1132,399 1132,398 1133,398 1133,397 1133,397 1133,396 1134,396 1134,396 1134,396 1134,395 1135,395 1135,394 1135,394 1135,406 1136,405 1137,405 1137,404 1137,404 1137,404 1138,404 1138,403 1138,403 1138,402 1139,401 1139,401 1139,401 1140,401 1140,399 1141,399 1141,399 1141,399 1141,398 1142,398 1142,398 1142,398 1142,397 1143,397 1143,397 1143,397 1143,396 1144,396 1144,395 1145,395 1145,395 1145,395 1145,394 1146,394 1146,393 1146,393 1146,393 1147,393 1147,392 1147,392 1147,392 1148,392 1148,391 1148,391 1148,391 1149,391 1149,390 1150,390 1150,389 1150,389 1150,389 1151,388 1151,388 1151,388 1151,388 1152,388 1152,388 1152,388 1152,387 1153,387 1153,386 1154,386 1154,386 1154,386 1154,385 1155,384 1155,382 1155,382 1155,380 1156,380 1156,381 1156,380 1156,380 1157,380 1157,378 1158,378 1158,377 1158,377 1158,375 1159,375 1159,374 1159,373 1160,373 1160,372 1160,372 1160,371 1161,371 1161,371 1162,371 1162,370 1162,370 1162,369 1163,369 1163,369 1163,369 1163,369 1164,369 1164,368 1164,368 1164,366 1165,366 1165,366 1166,366 1166,365 1166,365 1166,363 1167,363 1167,362 1167,362 1167,361 1168,361 1168,360 1168,360 1168,358 1169,358 1169,357 1170,357 1170,356 1170,356 1170,356 1171,356 1171,354 1171,354 1171,353 1172,353 1172,352 1172,353 1172,352 1173,352 1173,352 1174,352 1174,350 1174,350 1174,350 1175,350 1175,349 1175,349 1175,348 1176,348 1176,347 1176,345 1176,344 1177,344 1177,343 1178,343 1178,343 1178,343 1178,342 1179,342 1179,341 1179,341 1179,334 1180,334 1180,333 1180,333 1180,331 1181,331 1181,331 1182,331 1182,329 1182,329 1182,328 1183,328 1183,329 1183,328 1183,327 1184,327 1184,326 1184,326 1184,324 1185,324 1185,323 1186,323 1186,323 1186,323 1186,322 1187,322 1187,320 1187,320 1187,320 1188,320 1188,320 1188,320 1188,319 1189,319 1189,318 1190,318 "/>
<rect x="65" y="315" width="107" height="119" opacity="1" fill="#FFFFFF" stroke="none"/>
<rect x="65" y="315" width="107" height="119" opacity="1" fill="none" stroke="#000000"/>
<text x="105" y="325" dy="0.76em" text-anchor="start" font-family="sans-serif" font-size="9.67741935483871" opacity="1" fill="#000000">
anyhow
</text>
<text x="105" y="340" dy="0.76em" text-anchor="start" font-family="sans-serif" font-size="9.67741935483871" opacity="1" fill="#000000">
err-derive
</text>
<text x="105" y="355" dy="0.76em" text-anchor="start" font-family="sans-serif" font-size="9.67741935483871" opacity="1" fill="#000000">
error-chain
</text>
<text x="105" y="370" dy="0.76em" text-anchor="start" font-family="sans-serif" font-size="9.67741935483871" opacity="1" fill="#000000">
failure
</text>
<text x="105" y="385" dy="0.76em" text-anchor="start" font-family="sans-serif" font-size="9.67741935483871" opacity="1" fill="#000000">
quick-error
</text>
<text x="105" y="400" dy="0.76em" text-anchor="start" font-family="sans-serif" font-size="9.67741935483871" opacity="1" fill="#000000">
snafu
</text>
<text x="105" y="415" dy="0.76em" text-anchor="start" font-family="sans-serif" font-size="9.67741935483871" opacity="1" fill="#000000">
thiserror
</text>
<polyline fill="none" opacity="1" stroke="#E61919" stroke-width="2" points="75,330 95,330 "/>
<polyline fill="none" opacity="1" stroke="#E6C819" stroke-width="2" points="75,344 95,344 "/>
<polyline fill="none" opacity="1" stroke="#54E619" stroke-width="2" points="75,359 95,359 "/>
<polyline fill="none" opacity="1" stroke="#19E68E" stroke-width="2" points="75,374 95,374 "/>
<polyline fill="none" opacity="1" stroke="#198EE6" stroke-width="2" points="75,390 95,390 "/>
<polyline fill="none" opacity="1" stroke="#5419E6" stroke-width="2" points="75,404 95,404 "/>
<polyline fill="none" opacity="1" stroke="#E619C8" stroke-width="2" points="75,419 95,419 "/>
</svg>
