<svg width="1200" height="800" viewBox="0 0 1200 800" xmlns="http://www.w3.org/2000/svg">
<rect x="0" y="0" width="1199" height="799" opacity="1" fill="#FFFFFF" stroke="none"/>
<line opacity="0.1" stroke="#000000" stroke-width="1" x1="60" y1="728" x2="1190" y2="728"/>
<line opacity="0.1" stroke="#000000" stroke-width="1" x1="60" y1="718" x2="1190" y2="718"/>
<line opacity="0.1" stroke="#000000" stroke-width="1" x1="60" y1="707" x2="1190" y2="707"/>
<line opacity="0.1" stroke="#000000" stroke-width="1" x1="60" y1="697" x2="1190" y2="697"/>
<line opacity="0.1" stroke="#000000" stroke-width="1" x1="60" y1="686" x2="1190" y2="686"/>
<line opacity="0.1" stroke="#000000" stroke-width="1" x1="60" y1="676" x2="1190" y2="676"/>
<line opacity="0.1" stroke="#000000" stroke-width="1" x1="60" y1="666" x2="1190" y2="666"/>
<line opacity="0.1" stroke="#000000" stroke-width="1" x1="60" y1="655" x2="1190" y2="655"/>
<line opacity="0.1" stroke="#000000" stroke-width="1" x1="60" y1="645" x2="1190" y2="645"/>
<line opacity="0.1" stroke="#000000" stroke-width="1" x1="60" y1="634" x2="1190" y2="634"/>
<line opacity="0.1" stroke="#000000" stroke-width="1" x1="60" y1="624" x2="1190" y2="624"/>
<line opacity="0.1" stroke="#000000" stroke-width="1" x1="60" y1="613" x2="1190" y2="613"/>
<line opacity="0.1" stroke="#000000" stroke-width="1" x1="60" y1="603" x2="1190" y2="603"/>
<line opacity="0.1" stroke="#000000" stroke-width="1" x1="60" y1="592" x2="1190" y2="592"/>
<line opacity="0.1" stroke="#000000" stroke-width="1" x1="60" y1="582" x2="1190" y2="582"/>
<line opacity="0.1" stroke="#000000" stroke-width="1" x1="60" y1="571" x2="1190" y2="571"/>
<line opacity="0.1" stroke="#000000" stroke-width="1" x1="60" y1="561" x2="1190" y2="561"/>
<line opacity="0.1" stroke="#000000" stroke-width="1" x1="60" y1="550" x2="1190" y2="550"/>
<line opacity="0.1" stroke="#000000" stroke-width="1" x1="60" y1="540" x2="1190" y2="540"/>
<line opacity="0.1" stroke="#000000" stroke-width="1" x1="60" y1="530" x2="1190" y2="530"/>
<line opacity="0.1" stroke="#000000" stroke-width="1" x1="60" y1="519" x2="1190" y2="519"/>
<line opacity="0.1" stroke="#000000" stroke-width="1" x1="60" y1="509" x2="1190" y2="509"/>
<line opacity="0.1" stroke="#000000" stroke-width="1" x1="60" y1="498" x2="1190" y2="498"/>
<line opacity="0.1" stroke="#000000" stroke-width="1" x1="60" y1="488" x2="1190" y2="488"/>
<line opacity="0.1" stroke="#000000" stroke-width="1" x1="60" y1="477" x2="1190" y2="477"/>
<line opacity="0.1" stroke="#000000" stroke-width="1" x1="60" y1="467" x2="1190" y2="467"/>
<line opacity="0.1" stroke="#000000" stroke-width="1" x1="60" y1="456" x2="1190" y2="456"/>
<line opacity="0.1" stroke="#000000" stroke-width="1" x1="60" y1="446" x2="1190" y2="446"/>
<line opacity="0.1" stroke="#000000" stroke-width="1" x1="60" y1="435" x2="1190" y2="435"/>
<line opacity="0.1" stroke="#000000" stroke-width="1" x1="60" y1="425" x2="1190" y2="425"/>
<line opacity="0.1" stroke="#000000" stroke-width="1" x1="60" y1="414" x2="1190" y2="414"/>
<line opacity="0.1" stroke="#000000" stroke-width="1" x1="60" y1="404" x2="1190" y2="404"/>
<line opacity="0.1" stroke="#000000" stroke-width="1" x1="60" y1="393" x2="1190" y2="393"/>
<line opacity="0.1" stroke="#000000" stroke-width="1" x1="60" y1="383" x2="1190" y2="383"/>
<line opacity="0.1" stroke="#000000" stroke-width="1" x1="60" y1="373" x2="1190" y2="373"/>
<line opacity="0.1" stroke="#000000" stroke-width="1" x1="60" y1="362" x2="1190" y2="362"/>
<line opacity="0.1" stroke="#000000" stroke-width="1" x1="60" y1="352" x2="1190" y2="352"/>
<line opacity="0.1" stroke="#000000" stroke-width="1" x1="60" y1="341" x2="1190" y2="341"/>
<line opacity="0.1" stroke="#000000" stroke-width="1" x1="60" y1="331" x2="1190" y2="331"/>
<line opacity="0.1" stroke="#000000" stroke-width="1" x1="60" y1="320" x2="1190" y2="320"/>
<line opacity="0.1" stroke="#000000" stroke-width="1" x1="60" y1="310" x2="1190" y2="310"/>
<line opacity="0.1" stroke="#000000" stroke-width="1" x1="60" y1="299" x2="1190" y2="299"/>
<line opacity="0.1" stroke="#000000" stroke-width="1" x1="60" y1="289" x2="1190" y2="289"/>
<line opacity="0.1" stroke="#000000" stroke-width="1" x1="60" y1="278" x2="1190" y2="278"/>
<line opacity="0.1" stroke="#000000" stroke-width="1" x1="60" y1="268" x2="1190" y2="268"/>
<line opacity="0.1" stroke="#000000" stroke-width="1" x1="60" y1="257" x2="1190" y2="257"/>
<line opacity="0.1" stroke="#000000" stroke-width="1" x1="60" y1="247" x2="1190" y2="247"/>
<line opacity="0.1" stroke="#000000" stroke-width="1" x1="60" y1="236" x2="1190" y2="236"/>
<line opacity="0.1" stroke="#000000" stroke-width="1" x1="60" y1="226" x2="1190" y2="226"/>
<line opacity="0.1" stroke="#000000" stroke-width="1" x1="60" y1="216" x2="1190" y2="216"/>
<line opacity="0.1" stroke="#000000" stroke-width="1" x1="60" y1="205" x2="1190" y2="205"/>
<line opacity="0.1" stroke="#000000" stroke-width="1" x1="60" y1="195" x2="1190" y2="195"/>
<line opacity="0.1" stroke="#000000" stroke-width="1" x1="60" y1="184" x2="1190" y2="184"/>
<line opacity="0.1" stroke="#000000" stroke-width="1" x1="60" y1="174" x2="1190" y2="174"/>
<line opacity="0.1" stroke="#000000" stroke-width="1" x1="60" y1="163" x2="1190" y2="163"/>
<line opacity="0.1" stroke="#000000" stroke-width="1" x1="60" y1="153" x2="1190" y2="153"/>
<line opacity="0.1" stroke="#000000" stroke-width="1" x1="60" y1="142" x2="1190" y2="142"/>
<line opacity="0.1" stroke="#000000" stroke-width="1" x1="60" y1="132" x2="1190" y2="132"/>
<line opacity="0.1" stroke="#000000" stroke-width="1" x1="60" y1="121" x2="1190" y2="121"/>
<line opacity="0.1" stroke="#000000" stroke-width="1" x1="60" y1="111" x2="1190" y2="111"/>
<line opacity="0.1" stroke="#000000" stroke-width="1" x1="60" y1="100" x2="1190" y2="100"/>
<line opacity="0.1" stroke="#000000" stroke-width="1" x1="60" y1="90" x2="1190" y2="90"/>
<line opacity="0.1" stroke="#000000" stroke-width="1" x1="60" y1="80" x2="1190" y2="80"/>
<line opacity="0.1" stroke="#000000" stroke-width="1" x1="60" y1="69" x2="1190" y2="69"/>
<line opacity="0.1" stroke="#000000" stroke-width="1" x1="60" y1="59" x2="1190" y2="59"/>
<line opacity="0.1" stroke="#000000" stroke-width="1" x1="60" y1="48" x2="1190" y2="48"/>
<line opacity="0.1" stroke="#000000" stroke-width="1" x1="60" y1="38" x2="1190" y2="38"/>
<line opacity="0.1" stroke="#000000" stroke-width="1" x1="60" y1="27" x2="1190" y2="27"/>
<line opacity="0.1" stroke="#000000" stroke-width="1" x1="60" y1="17" x2="1190" y2="17"/>
<text x="10" y="375" dy="0.76em" text-anchor="middle" font-family="sans-serif" font-size="9.67741935483871" opacity="1" fill="#000000" transform="rotate(270, 10, 375)">
Fraction of dependent crates
</text>
<line opacity="0.2" stroke="#000000" stroke-width="1" x1="60" y1="634" x2="1190" y2="634"/>
<line opacity="0.2" stroke="#000000" stroke-width="1" x1="60" y1="530" x2="1190" y2="530"/>
<line opacity="0.2" stroke="#000000" stroke-width="1" x1="60" y1="425" x2="1190" y2="425"/>
<line opacity="0.2" stroke="#000000" stroke-width="1" x1="60" y1="320" x2="1190" y2="320"/>
<line opacity="0.2" stroke="#000000" stroke-width="1" x1="60" y1="216" x2="1190" y2="216"/>
<polyline fill="none" opacity="1" stroke="#000000" stroke-width="1" points="59,10 59,740 "/>
<text x="50" y="634" dy="0.5ex" text-anchor="end" font-family="sans-serif" font-size="9.67741935483871" opacity="1" fill="#000000">
0.01
</text>
<polyline fill="none" opacity="1" stroke="#000000" stroke-width="1" points="54,634 59,634 "/>
<text x="50" y="530" dy="0.5ex" text-anchor="end" font-family="sans-serif" font-size="9.67741935483871" opacity="1" fill="#000000">
0.02
</text>
<polyline fill="none" opacity="1" stroke="#000000" stroke-width="1" points="54,530 59,530 "/>
<text x="50" y="425" dy="0.5ex" text-anchor="end" font-family="sans-serif" font-size="9.67741935483871" opacity="1" fill="#000000">
0.03
</text>
<polyline fill="none" opacity="1" stroke="#000000" stroke-width="1" points="54,425 59,425 "/>
<text x="50" y="320" dy="0.5ex" text-anchor="end" font-family="sans-serif" font-size="9.67741935483871" opacity="1" fill="#000000">
0.04
</text>
<polyline fill="none" opacity="1" stroke="#000000" stroke-width="1" points="54,320 59,320 "/>
<text x="50" y="216" dy="0.5ex" text-anchor="end" font-family="sans-serif" font-size="9.67741935483871" opacity="1" fill="#000000">
0.05
</text>
<polyline fill="none" opacity="1" stroke="#000000" stroke-width="1" points="54,216 59,216 "/>
<polyline fill="none" opacity="1" stroke="#000000" stroke-width="1" points="60,740 1190,740 "/>
<text x="60" y="750" dy="0.76em" text-anchor="middle" font-family="sans-serif" font-size="9.67741935483871" opacity="1" fill="#000000">
2015-09-24Z
</text>
<polyline fill="none" opacity="1" stroke="#000000" stroke-width="1" points="60,740 60,745 "/>
<text x="175" y="750" dy="0.76em" text-anchor="middle" font-family="sans-serif" font-size="9.67741935483871" opacity="1" fill="#000000">
2016-04-14Z
</text>
<polyline fill="none" opacity="1" stroke="#000000" stroke-width="1" points="175,740 175,745 "/>
<text x="290" y="750" dy="0.76em" text-anchor="middle" font-family="sans-serif" font-size="9.67741935483871" opacity="1" fill="#000000">
2016-11-03Z
</text>
<polyline fill="none" opacity="1" stroke="#000000" stroke-width="1" points="290,740 290,745 "/>
<text x="405" y="750" dy="0.76em" text-anchor="middle" font-family="sans-serif" font-size="9.67741935483871" opacity="1" fill="#000000">
2017-05-25Z
</text>
<polyline fill="none" opacity="1" stroke="#000000" stroke-width="1" points="405,740 405,745 "/>
<text x="520" y="750" dy="0.76em" text-anchor="middle" font-family="sans-serif" font-size="9.67741935483871" opacity="1" fill="#000000">
2017-12-14Z
</text>
<polyline fill="none" opacity="1" stroke="#000000" stroke-width="1" points="520,740 520,745 "/>
<text x="636" y="750" dy="0.76em" text-anchor="middle" font-family="sans-serif" font-size="9.67741935483871" opacity="1" fill="#000000">
2018-07-05Z
</text>
<polyline fill="none" opacity="1" stroke="#000000" stroke-width="1" points="636,740 636,745 "/>
<text x="751" y="750" dy="0.76em" text-anchor="middle" font-family="sans-serif" font-size="9.67741935483871" opacity="1" fill="#000000">
2019-01-24Z
</text>
<polyline fill="none" opacity="1" stroke="#000000" stroke-width="1" points="751,740 751,745 "/>
<text x="866" y="750" dy="0.76em" text-anchor="middle" font-family="sans-serif" font-size="9.67741935483871" opacity="1" fill="#000000">
2019-08-15Z
</text>
<polyline fill="none" opacity="1" stroke="#000000" stroke-width="1" points="866,740 866,745 "/>
<text x="981" y="750" dy="0.76em" text-anchor="middle" font-family="sans-serif" font-size="9.67741935483871" opacity="1" fill="#000000">
2020-03-05Z
</text>
<polyline fill="none" opacity="1" stroke="#000000" stroke-width="1" points="981,740 981,745 "/>
<text x="1096" y="750" dy="0.76em" text-anchor="middle" font-family="sans-serif" font-size="9.67741935483871" opacity="1" fill="#000000">
2020-09-24Z
</text>
<polyline fill="none" opacity="1" stroke="#000000" stroke-width="1" points="1096,740 1096,745 "/>
<polyline fill="none" opacity="1" stroke="#E61919" stroke-width="2" points="896,738 897,738 898,738 898,738 899,738 899,738 901,738 901,737 902,737 902,737 902,737 903,737 903,736 904,735 905,735 905,735 906,735 906,734 907,734 907,733 908,733 909,733 909,732 910,732 911,732 911,731 912,730 913,729 913,727 914,723 914,723 915,723 915,723 916,722 917,722 917,722 918,720 918,717 919,716 919,716 920,715 920,715 921,714 922,714 922,713 923,713 923,711 924,711 924,710 925,710 926,710 926,710 927,709 927,709 928,707 928,707 929,706 930,706 930,706 931,706 931,706 932,704 932,704 933,704 934,704 934,703 935,703 935,702 936,703 936,702 937,702 938,701 938,701 939,701 939,700 940,700 940,699 941,699 941,698 942,698 943,697 943,697 944,696 944,695 945,695 945,693 946,692 947,692 947,691 948,691 948,690 949,688 949,687 950,686 951,686 951,685 952,683 952,682 953,681 953,681 954,681 955,680 955,680 956,680 956,680 957,679 957,679 958,676 959,675 959,675 960,675 960,674 961,674 961,673 962,673 962,673 963,673 964,671 964,670 965,669 965,669 966,668 966,667 967,667 968,666 968,666 969,666 969,666 970,665 970,665 971,664 972,664 972,662 973,662 973,662 974,662 974,662 975,662 976,661 976,661 977,660 977,659 978,659 978,659 979,658 980,657 980,657 981,656 981,657 982,656 982,656 982,656 982,656 983,655 983,655 983,654 984,654 984,654 985,653 985,653 985,651 986,651 986,647 986,647 986,646 987,646 987,645 987,645 987,645 988,645 988,644 989,644 989,643 989,643 989,643 990,643 990,642 990,642 990,642 991,641 991,641 991,640 992,640 993,640 993,639 993,639 993,638 994,638 994,637 994,637 994,637 995,637 995,636 995,636 995,636 996,636 997,636 997,635 997,635 997,635 998,635 998,634 998,634 998,633 999,633 999,633 999,633 999,632 1000,632 1000,631 1001,631 1001,629 1001,629 1001,627 1002,625 1002,625 1002,624 1003,624 1003,623 1003,623 1003,622 1004,622 1004,621 1004,621 1004,621 1005,621 1005,620 1006,620 1006,619 1006,619 1006,617 1007,617 1007,617 1007,617 1007,615 1008,615 1008,614 1008,614 1009,613 1010,613 1010,613 1010,613 1010,612 1011,612 1011,610 1011,610 1011,610 1012,610 1012,610 1012,610 1012,610 1013,610 1013,609 1014,609 1014,609 1014,609 1014,608 1015,607 1015,607 1015,605 1016,605 1016,604 1016,604 1016,603 1017,603 1017,601 1018,601 1018,599 1018,599 1019,599 1019,599 1019,599 1019,598 1020,598 1020,596 1020,596 1020,594 1021,594 1021,593 1022,593 1022,593 1022,593 1022,592 1023,592 1023,591 1023,591 1023,587 1024,587 1024,585 1024,585 1024,582 1025,582 1025,581 1025,581 1025,580 1026,580 1026,579 1027,579 1027,578 1027,578 1027,576 1028,576 1028,576 1028,576 1028,575 1029,574 1029,574 1029,572 1030,572 1030,570 1031,570 1031,569 1031,569 1031,567 1032,567 1032,567 1032,567 1032,566 1033,566 1033,565 1033,565 1033,564 1034,564 1034,562 1035,561 1035,561 1035,558 1036,558 1036,557 1036,557 1036,556 1037,556 1037,555 1037,555 1037,554 1038,552 1039,551 1039,551 1039,550 1040,549 1040,549 1040,549 1041,549 1041,548 1041,548 1041,547 1042,547 1042,546 1043,546 1043,545 1043,545 1043,545 1044,545 1044,544 1044,544 1044,544 1045,544 1045,544 1045,544 1045,543 1046,542 1046,542 1046,542 1047,542 1047,541 1048,541 1048,539 1048,539 1048,538 1049,538 1049,538 1049,538 1049,537 1050,537 1050,536 1050,536 1050,534 1051,534 1051,534 1052,534 1052,533 1052,533 1052,533 1053,533 1053,532 1053,532 1053,532 1054,532 1054,531 1054,531 1054,531 1055,530 1056,530 1056,529 1056,529 1056,529 1057,529 1057,528 1057,528 1057,528 1058,528 1058,527 1058,527 1058,527 1059,527 1059,525 1060,525 1060,525 1060,524 1061,524 1061,523 1061,523 1061,522 1062,522 1062,522 1062,522 1062,521 1063,521 1063,519 1064,519 1064,519 1064,519 1064,518 1065,518 1065,517 1065,517 1065,517 1066,517 1066,516 1066,516 1066,514 1067,514 1067,513 1067,513 1067,513 1068,513 1068,512 1069,512 1069,510 1069,510 1069,509 1070,509 1070,507 1070,507 1071,507 1071,506 1071,506 1071,504 1072,504 1072,503 1073,503 1073,501 1073,502 1073,501 1074,501 1074,498 1074,498 1074,498 1075,498 1075,496 1075,496 1075,496 1076,496 1076,494 1077,494 1077,493 1077,493 1077,493 1078,493 1078,492 1078,492 1078,492 1079,492 1079,490 1079,490 1079,489 1080,489 1080,489 1081,489 1081,489 1081,489 1081,487 1082,487 1082,486 1082,486 1082,485 1083,485 1083,483 1083,483 1083,481 1084,481 1084,476 1085,476 1085,474 1085,474 1085,474 1086,474 1086,473 1086,473 1087,473 1087,472 1087,472 1087,471 1088,469 1088,469 1088,469 1089,469 1089,468 1090,468 1090,467 1090,467 1090,465 1091,465 1091,465 1091,465 1091,463 1092,463 1092,462 1092,461 1092,461 1093,461 1093,458 1094,458 1094,458 1094,457 1095,457 1095,456 1095,456 1095,455 1096,455 1096,453 1096,453 1096,453 1097,453 1097,453 1098,453 1098,453 1098,453 1098,452 1099,452 1099,451 1099,451 1099,451 1100,451 1100,450 1100,450 1100,449 1101,449 1101,448 1102,448 1102,448 1102,448 1102,447 1103,447 1103,447 1103,447 1103,447 1104,447 1104,447 1104,447 1104,447 1105,447 1105,447 1106,447 1106,446 1106,446 1106,445 1107,445 1107,444 1107,444 1107,444 1108,444 1108,444 1108,444 1108,444 1109,444 1109,443 1109,443 1109,442 1110,442 1110,441 1111,441 1111,440 1111,440 1111,439 1112,439 1112,439 1112,439 1112,438 1113,438 1113,436 1113,436 1113,435 1114,435 1114,434 1115,434 1115,434 1115,434 1115,433 1116,433 1116,430 1116,430 1116,429 1117,429 1117,429 1117,429 1117,429 1118,429 1118,428 1119,428 1119,427 1119,427 1119,427 1120,427 1120,427 1120,427 1120,427 1121,425 1121,425 1121,423 1122,423 1122,422 1123,422 1123,421 1123,421 1123,420 1124,420 1124,418 1124,418 1124,418 1125,418 1125,418 1125,418 1125,417 1126,417 1126,417 1127,417 1127,416 1127,416 1127,417 1128,417 1128,416 1128,416 1128,415 1129,415 1129,415 1129,415 1129,414 1130,414 1130,414 1130,414 1130,413 1131,413 1131,412 1132,412 1132,423 1132,423 1133,423 1133,423 1133,423 1133,422 1134,422 1134,420 1134,420 1134,420 1135,419 1136,419 1136,419 1136,419 1136,418 1137,418 1137,418 1137,418 1137,417 1138,417 1138,417 1138,417 1138,416 1139,416 1139,416 1140,416 1140,416 1140,416 1140,415 1141,415 1141,414 1141,414 1141,414 1142,414 1142,414 1142,414 1142,414 1143,414 1143,414 1144,414 1144,414 1144,414 1144,413 1145,413 1145,413 1145,413 1145,413 1146,413 1146,413 1146,413 1146,412 1147,412 1147,412 1148,412 1148,412 1148,412 1148,412 1149,412 1149,412 1149,412 1149,411 1150,411 1150,410 1150,410 1150,408 1151,408 1151,407 1151,407 1151,406 1152,406 1152,405 1153,405 1153,404 1153,404 1153,403 1154,403 1154,400 1154,400 1154,398 1155,398 1155,397 1155,397 1156,397 1156,397 1157,397 1157,396 1157,396 1157,396 1158,396 1158,395 1158,395 1158,394 1159,394 1159,394 1159,394 1159,393 1160,393 1160,391 1161,391 1161,389 1161,389 1161,387 1162,387 1162,387 1162,387 1162,386 1163,386 1163,386 1163,386 1163,385 1164,385 1164,384 1165,384 1165,384 1165,384 1165,383 1166,383 1166,381 1166,381 1166,381 1167,381 1167,380 1167,380 1167,380 1168,380 1168,379 1169,379 1169,378 1169,378 1169,377 1170,377 1170,376 1170,376 1170,375 1171,375 1171,374 1171,374 1171,374 1172,374 1172,372 1172,372 1172,372 1173,371 1173,370 1174,370 1174,370 1174,370 1174,369 1175,369 1175,368 1175,368 1175,364 1176,364 1176,362 1176,362 1176,361 1177,361 1177,360 1178,360 1178,360 1178,360 1178,358 1179,358 1179,358 1179,358 1179,357 1180,357 1180,356 1180,356 1180,355 1181,355 1181,354 1182,354 1182,354 1182,354 1182,353 1183,353 1183,352 1183,352 1183,350 1184,350 1184,350 1184,350 1184,350 1185,350 1185,349 1186,349 1186,347 1186,346 1187,346 1187,346 1187,346 1187,343 1188,343 1188,341 1188,341 1188,340 1189,340 1189,340 1190,340 "/>
<polyline fill="none" opacity="1" stroke="#E6C819" stroke-width="2" points="736,738 742,738 747,737 749,736 769,736 775,736 788,735 789,734 791,734 793,734 795,733 796,733 797,733 798,733 798,733 799,733 802,733 803,733 804,733 804,732 806,732 807,732 808,732 808,732 809,732 810,732 810,732 811,732 812,732 812,732 813,731 813,731 815,732 815,732 817,732 818,732 818,732 819,732 819,732 821,732 821,732 822,732 823,732 823,732 825,732 825,732 826,731 826,731 827,731 829,731 830,731 830,731 831,731 832,730 833,730 833,730 834,730 834,730 835,729 835,729 836,729 836,729 837,729 838,729 838,729 839,729 839,729 840,729 840,728 841,728 842,728 842,728 843,728 843,729 844,729 844,729 845,729 846,729 846,729 847,729 848,728 848,728 849,727 850,727 850,728 851,728 851,728 852,728 852,728 853,728 854,728 855,728 855,728 856,727 856,727 857,727 857,727 859,727 859,727 860,727 860,727 861,727 861,727 862,727 863,727 863,727 864,727 864,727 865,727 865,727 866,727 867,727 867,727 868,727 868,727 869,727 869,727 871,727 871,727 872,727 872,727 873,727 873,727 874,726 875,726 875,726 876,725 876,725 877,725 877,725 878,725 878,725 879,725 880,725 880,725 881,725 881,725 882,725 882,725 883,725 884,725 884,725 885,725 885,725 886,725 886,725 887,725 888,725 888,725 889,725 890,725 890,725 891,725 892,725 893,724 893,724 894,724 894,723 896,723 896,723 897,723 897,723 898,723 898,723 899,724 900,724 901,723 901,723 902,723 902,723 902,723 903,723 903,723 904,723 905,723 905,723 906,723 907,723 907,723 908,723 909,724 909,724 910,724 910,724 911,724 911,724 912,724 913,724 913,724 914,724 914,724 915,723 915,723 916,723 917,723 917,723 918,723 919,723 919,723 920,723 920,724 921,724 922,724 922,724 923,724 923,724 924,724 924,724 925,724 926,724 926,724 927,724 928,724 928,724 929,724 930,724 930,724 931,723 931,724 932,724 932,724 933,724 934,724 934,724 935,724 935,724 936,724 936,724 937,724 938,724 938,724 939,724 940,724 940,724 941,724 941,724 942,724 943,724 943,724 944,724 944,724 945,724 945,724 946,724 947,724 948,724 948,724 949,724 949,724 950,724 951,724 951,724 952,724 952,724 953,724 953,724 954,724 955,724 955,724 956,724 956,724 957,724 957,724 958,724 959,724 959,724 960,724 960,724 961,724 961,724 962,724 962,724 963,724 964,724 964,723 965,723 965,723 966,722 966,722 967,722 968,722 968,722 969,722 969,723 970,723 970,723 971,722 972,722 972,722 973,722 973,722 974,722 974,722 975,722 976,722 977,722 977,722 978,722 978,722 979,722 980,722 980,722 981,722 981,722 982,722 982,722 982,722 982,722 983,722 983,722 983,722 984,722 984,722 985,722 985,722 985,722 986,722 986,722 986,722 986,723 987,723 987,723 987,723 987,723 988,723 988,723 989,723 989,723 989,723 989,723 990,723 990,723 990,723 990,722 991,722 991,722 991,722 992,722 993,722 993,722 993,722 993,722 994,722 994,722 994,722 994,722 995,722 995,722 995,722 995,722 996,722 997,722 997,722 997,722 997,722 998,722 998,722 998,722 998,722 999,722 999,722 999,722 999,722 1000,722 1000,722 1001,722 1001,722 1001,722 1001,722 1002,722 1002,722 1002,722 1003,722 1003,722 1003,722 1003,722 1004,722 1004,722 1004,722 1004,722 1005,722 1005,722 1006,722 1006,722 1006,722 1006,722 1007,722 1007,722 1007,722 1007,722 1008,722 1008,722 1008,722 1009,722 1010,722 1010,722 1010,722 1010,722 1011,722 1011,722 1011,722 1011,722 1012,722 1012,722 1012,722 1012,722 1013,722 1013,722 1014,722 1014,722 1014,722 1014,722 1015,722 1015,722 1015,722 1016,722 1016,722 1016,722 1016,722 1017,722 1018,722 1018,722 1018,722 1019,722 1019,722 1019,722 1019,722 1020,722 1020,722 1020,722 1020,722 1021,722 1021,722 1022,722 1022,722 1022,722 1022,722 1023,722 1023,722 1023,722 1023,722 1024,722 1024,722 1024,722 1024,722 1025,722 1025,722 1025,722 1025,722 1026,722 1026,722 1027,722 1027,722 1027,722 1027,722 1028,722 1028,722 1028,722 1028,722 1029,722 1029,722 1029,722 1030,722 1030,722 1031,722 1031,722 1031,722 1031,722 1032,722 1032,722 1032,722 1032,722 1033,722 1033,722 1033,722 1033,722 1034,722 1034,722 1035,723 1035,723 1035,723 1036,723 1036,723 1036,723 1036,723 1037,723 1037,723 1037,723 1037,723 1038,723 1039,723 1039,723 1039,723 1040,723 1040,723 1040,723 1041,723 1041,723 1041,723 1041,723 1042,723 1042,723 1043,723 1043,723 1043,723 1043,723 1044,723 1044,723 1044,723 1044,723 1045,723 1045,723 1045,723 1045,723 1046,723 1046,723 1046,723 1047,723 1047,723 1048,723 1048,723 1048,723 1048,723 1049,723 1049,723 1049,723 1049,723 1050,723 1050,723 1050,723 1050,723 1051,723 1051,723 1052,723 1052,723 1052,723 1052,723 1053,723 1053,723 1053,723 1053,723 1054,723 1054,723 1054,723 1054,723 1055,723 1056,723 1056,723 1056,723 1056,723 1057,723 1057,723 1057,723 1057,723 1058,723 1058,723 1058,723 1059,723 1059,723 1060,723 1060,723 1060,723 1061,723 1061,723 1061,723 1061,723 1062,723 1062,723 1062,723 1062,723 1063,723 1063,723 1064,723 1064,723 1064,723 1064,723 1065,723 1065,723 1065,723 1065,723 1066,723 1066,723 1066,723 1066,723 1067,723 1067,723 1067,723 1067,724 1068,724 1068,724 1069,724 1069,724 1069,724 1069,724 1070,724 1070,724 1070,724 1071,724 1071,724 1071,724 1071,724 1072,724 1072,724 1073,724 1073,724 1073,724 1073,724 1074,724 1074,724 1074,724 1074,724 1075,724 1075,724 1075,724 1075,724 1076,724 1076,724 1077,724 1077,724 1077,724 1077,724 1078,724 1078,724 1078,724 1078,724 1079,724 1079,724 1079,724 1079,724 1080,724 1080,724 1081,724 1081,724 1081,724 1081,724 1082,724 1082,724 1082,724 1082,724 1083,724 1083,724 1083,724 1084,724 1084,724 1085,724 1085,724 1085,724 1085,724 1086,724 1086,724 1086,724 1087,724 1087,724 1087,724 1087,724 1088,724 1088,724 1088,724 1089,724 1089,724 1090,724 1090,724 1090,724 1090,724 1091,724 1091,724 1091,724 1091,724 1092,724 1092,724 1092,724 1092,724 1093,724 1093,724 1094,724 1094,724 1094,724 1095,724 1095,724 1095,724 1095,724 1096,724 1096,724 1096,724 1096,724 1097,724 1097,724 1098,724 1098,724 1098,724 1098,724 1099,724 1099,724 1099,724 1100,724 1100,724 1100,724 1100,724 1101,724 1101,724 1102,724 1102,724 1102,724 1102,724 1103,724 1103,724 1103,724 1104,724 1104,724 1104,724 1104,724 1105,724 1105,724 1106,724 1106,724 1106,724 1106,724 1107,724 1107,724 1107,724 1107,724 1108,724 1108,724 1108,724 1108,724 1109,724 1109,724 1109,724 1109,724 1110,724 1110,724 1111,724 1111,724 1111,724 1112,724 1112,724 1112,724 1112,724 1113,724 1113,724 1113,724 1113,724 1114,724 1114,724 1115,724 1115,724 1115,724 1115,724 1116,724 1116,724 1116,724 1116,724 1117,724 1117,724 1117,724 1117,724 1118,724 1118,724 1119,724 1119,724 1119,724 1119,725 1120,725 1120,725 1120,725 1120,725 1121,725 1121,725 1121,725 1122,725 1122,725 1123,725 1123,725 1123,725 1123,725 1124,725 1124,725 1124,725 1124,725 1125,725 1125,725 1125,725 1125,725 1126,725 1126,725 1127,725 1127,725 1127,725 1127,725 1128,725 1128,725 1128,725 1128,725 1129,725 1129,725 1129,725 1129,725 1130,725 1130,725 1130,725 1130,725 1131,725 1131,725 1132,725 1132,726 1132,726 1133,726 1133,726 1133,726 1133,726 1134,726 1134,726 1134,726 1134,725 1135,725 1135,725 1136,725 1136,725 1136,725 1136,725 1137,725 1137,725 1137,725 1137,725 1138,725 1138,725 1138,725 1138,725 1139,725 1139,725 1140,725 1140,725 1140,725 1140,725 1141,725 1141,725 1141,725 1141,725 1142,725 1142,725 1142,725 1142,725 1143,725 1143,725 1144,725 1144,725 1144,725 1144,725 1145,725 1145,725 1145,725 1145,725 1146,725 1146,725 1146,725 1146,725 1147,725 1147,725 1148,725 1148,725 1148,725 1148,725 1149,725 1149,725 1149,725 1150,725 1150,725 1150,725 1150,725 1151,725 1151,725 1151,725 1151,725 1152,725 1152,725 1153,725 1153,725 1153,725 1153,725 1154,725 1154,725 1154,725 1154,726 1155,726 1155,726 1155,725 1156,725 1156,725 1157,725 1157,725 1157,725 1157,725 1158,725 1158,725 1158,725 1158,725 1159,725 1159,725 1159,725 1160,725 1160,725 1161,725 1161,725 1161,725 1161,725 1162,725 1162,725 1162,725 1162,725 1163,725 1163,725 1163,725 1163,725 1164,725 1164,725 1165,725 1165,725 1165,725 1166,725 1166,725 1166,725 1166,725 1167,725 1167,725 1167,725 1167,725 1168,725 1168,725 1169,725 1169,725 1169,725 1169,725 1170,725 1170,725 1170,725 1171,725 1171,725 1171,725 1171,725 1172,725 1172,726 1172,726 1172,726 1173,726 1173,726 1174,726 1174,726 1174,726 1174,726 1175,726 1175,726 1175,726 1175,726 1176,726 1176,726 1176,726 1176,726 1177,726 1177,726 1178,726 1178,726 1178,726 1178,726 1179,726 1179,726 1179,726 1179,726 1180,726 1180,726 1180,726 1180,726 1181,726 1181,726 1182,726 1182,726 1182,726 1182,726 1183,726 1183,726 1183,726 1183,726 1184,726 1184,726 1184,726 1184,726 1185,726 1185,726 1186,726 1186,726 1186,726 1187,726 1187,726 1187,726 1187,726 1188,726 1188,726 1188,726 1188,726 1189,726 1189,726 1190,726 "/>
<polyline fill="none" opacity="1" stroke="#54E619" stroke-width="2" points="213,737 214,733 218,735 223,733 229,731 230,729 230,727 235,726 245,724 246,724 247,721 251,719 252,716 253,714 254,714 255,712 258,711 259,713 260,710 261,705 263,703 264,702 267,700 269,699 269,699 271,691 272,686 273,683 273,681 277,681 278,679 279,678 280,676 281,675 281,675 282,673 283,674 283,674 284,674 285,673 285,673 286,673 287,673 287,673 288,671 288,670 289,670 289,669 290,667 290,667 291,664 292,663 292,661 293,657 293,656 294,654 295,653 296,653 297,650 300,651 301,650 301,648 302,647 302,645 304,644 304,643 305,641 305,637 306,633 307,632 308,626 309,625 309,623 310,622 310,622 311,619 312,618 313,617 314,616 314,614 315,612 315,611 316,603 317,600 317,596 318,586 318,585 319,584 319,584 320,583 321,582 321,577 322,574 322,575 323,569 324,567 325,567 325,566 326,565 326,566 327,566 327,566 328,562 329,562 329,561 330,560 330,553 331,554 331,554 332,555 332,555 333,555 334,553 335,553 336,553 337,551 338,548 338,549 339,548 339,548 340,549 340,548 341,548 342,548 342,547 343,548 343,544 344,544 344,542 345,540 346,538 346,539 347,539 347,536 348,532 348,530 350,530 350,527 351,523 351,523 352,523 352,523 353,524 353,523 354,522 355,521 355,521 356,522 356,518 357,519 357,519 358,517 359,517 359,515 360,513 360,511 361,511 361,509 362,509 363,507 363,504 364,504 364,505 365,505 365,504 366,503 367,497 367,496 368,492 368,491 369,492 369,492 370,490 371,489 371,485 372,483 372,482 373,481 373,479 374,479 374,479 375,479 376,479 376,478 377,479 377,479 378,480 378,477 379,478 380,478 380,478 381,476 381,475 382,473 382,472 383,470 384,469 384,468 385,467 385,464 386,463 386,463 387,462 388,463 388,464 389,462 389,461 390,461 390,457 391,454 392,452 392,450 393,448 393,449 394,446 394,446 395,445 395,444 396,444 397,441 397,441 398,441 398,438 399,437 399,436 400,431 401,427 401,427 402,427 402,429 403,425 403,421 404,420 405,421 405,420 406,419 406,419 407,420 407,419 408,421 409,417 409,414 410,413 410,413 411,413 411,414 412,414 413,413 413,414 414,412 414,412 415,412 415,412 416,410 416,407 417,407 418,406 418,405 419,401 419,401 420,401 420,400 421,399 422,398 422,398 423,396 423,396 424,394 424,394 425,393 426,392 426,391 427,390 427,390 428,391 428,389 429,390 430,391 430,390 431,389 431,388 432,387 432,386 433,387 434,384 434,383 435,377 435,377 436,378 436,374 437,371 437,369 438,367 439,366 439,366 440,364 440,361 441,360 441,360 442,358 443,358 443,356 444,356 444,356 445,356 445,355 446,354 447,353 447,352 448,354 448,353 449,352 449,351 450,350 451,349 451,348 452,345 452,345 453,346 453,346 454,343 455,342 455,340 456,338 456,338 457,337 457,337 458,334 458,334 459,334 460,330 460,329 461,329 461,327 462,323 462,322 463,322 464,322 464,321 465,318 465,317 466,315 466,316 467,316 468,315 468,315 469,314 469,313 470,313 470,315 471,315 472,315 472,316 473,316 473,316 474,316 474,296 475,295 476,294 476,295 477,293 477,290 478,289 478,288 479,288 479,287 480,287 481,286 481,284 482,286 482,285 483,284 483,282 484,281 485,281 485,279 486,278 486,277 487,278 487,278 488,279 489,279 489,279 490,278 490,279 491,280 491,280 492,281 493,281 493,281 494,280 494,279 495,280 495,280 496,280 497,280 497,280 498,280 498,281 499,280 499,276 500,275 500,273 501,273 502,273 502,273 503,274 503,271 504,268 504,269 505,270 506,270 506,270 507,270 507,270 508,270 508,270 509,269 510,269 510,271 511,271 511,271 512,270 512,268 513,268 514,268 514,268 515,266 515,267 516,264 516,263 517,263 518,264 518,263 519,264 519,266 520,267 520,269 521,267 521,267 522,266 523,265 523,265 524,264 524,265 525,264 525,263 526,261 527,260 527,261 528,261 528,258 529,256 529,255 530,255 531,254 531,254 532,254 532,254 533,256 533,254 534,254 535,254 535,255 536,256 536,256 537,254 537,255 538,256 539,256 539,257 540,257 540,257 541,256 541,255 542,256 542,257 543,258 544,259 544,259 545,260 545,260 546,261 546,265 547,265 548,265 548,266 549,266 549,265 550,266 550,266 551,267 552,267 552,267 553,267 553,267 554,267 554,268 555,268 556,267 556,266 557,267 557,268 558,269 558,269 559,269 560,271 560,271 561,271 561,272 562,273 562,274 563,275 563,277 564,277 565,278 565,283 566,284 566,285 567,286 567,285 568,286 569,286 569,287 570,288 570,285 571,285 571,285 572,286 573,287 573,288 574,289 574,290 575,290 575,289 576,289 577,290 577,291 578,291 578,292 579,293 579,295 580,295 581,294 581,295 582,295 582,294 583,294 583,294 584,295 584,297 585,297 586,298 586,298 587,299 587,300 588,300 588,300 589,300 590,301 590,303 591,304 591,303 592,303 592,304 593,305 594,304 594,305 595,304 595,305 596,306 596,307 597,307 598,306 598,306 599,306 599,307 600,308 600,309 601,308 602,309 602,308 603,309 603,309 604,310 604,311 605,312 605,313 606,313 607,314 607,313 608,313 608,311 609,312 609,312 610,312 611,312 611,313 612,316 612,316 613,317 613,318 614,320 615,320 615,321 616,321 616,321 617,321 617,321 618,320 619,320 619,322 620,322 620,321 621,321 621,322 622,323 623,323 623,323 624,323 624,323 625,324 625,324 626,325 626,325 627,326 628,325 628,326 629,326 629,327 630,328 630,328 631,329 632,329 632,330 633,330 633,330 634,330 634,330 635,331 636,331 636,331 637,331 637,332 638,332 638,332 639,332 640,332 640,333 641,333 641,334 642,331 642,332 643,332 644,331 644,332 645,332 645,335 646,336 646,336 647,336 647,337 648,337 649,338 649,338 650,339 650,340 651,341 651,341 652,342 653,344 653,345 654,345 654,347 655,347 655,347 656,347 657,348 657,348 658,350 658,350 659,351 659,352 660,351 661,353 661,353 662,354 662,354 663,353 663,352 664,352 665,355 665,355 666,356 666,356 667,356 667,359 668,359 668,360 669,360 670,360 670,360 671,360 671,360 672,360 672,361 673,361 674,362 674,363 675,363 675,363 676,364 676,364 677,364 678,365 678,365 679,365 679,365 680,365 680,366 681,366 682,366 682,366 683,367 683,367 683,366 684,367 684,366 685,367 686,368 686,369 687,371 687,373 688,372 688,372 689,372 689,372 690,372 691,373 691,373 692,374 692,375 693,376 693,379 694,376 695,377 695,377 696,379 696,379 697,379 697,380 698,380 699,381 699,381 700,382 700,382 701,382 701,382 702,382 703,383 703,384 704,383 704,383 705,383 705,384 706,384 707,384 707,385 708,387 708,400 709,401 709,402 710,402 710,402 711,403 712,402 712,402 713,403 713,404 714,403 714,404 715,404 716,404 716,404 717,405 717,405 718,405 718,406 719,406 720,407 720,407 721,407 721,408 722,407 722,408 723,408 724,409 724,410 725,411 725,411 726,411 726,412 727,412 728,413 728,413 729,413 729,414 730,415 730,415 731,415 731,416 732,416 733,417 733,417 734,418 734,418 735,419 735,419 736,420 737,419 737,420 738,420 738,422 739,422 739,423 740,424 741,425 741,426 742,438 742,438 743,438 743,426 744,427 745,427 745,427 746,429 746,429 747,429 747,430 748,429 749,430 749,430 750,429 750,430 751,430 751,431 752,431 752,431 753,430 754,431 754,431 755,431 755,432 756,432 756,433 757,434 758,434 758,436 759,436 759,437 760,437 760,437 761,438 762,438 762,439 763,440 763,439 764,439 764,440 765,440 766,440 766,439 767,440 767,440 768,440 768,441 769,441 770,442 770,442 771,443 771,443 772,443 772,444 773,445 773,445 774,446 775,446 775,446 776,446 776,447 777,447 777,448 778,448 779,449 779,449 780,450 780,450 781,451 781,451 782,451 783,451 783,452 784,453 784,453 785,453 785,454 786,454 787,454 787,455 788,455 788,455 789,456 789,456 790,457 791,457 791,458 792,456 792,456 793,456 793,457 794,458 794,458 795,458 796,459 796,459 797,459 797,460 798,460 798,461 799,461 800,461 800,461 801,462 801,462 802,463 802,463 803,464 804,464 804,464 805,464 805,465 806,465 806,465 807,466 808,467 808,468 809,468 809,468 810,469 810,469 811,470 812,470 812,471 813,472 813,471 814,472 814,472 815,472 815,473 816,473 817,474 817,474 818,474 818,474 819,475 819,475 820,476 821,475 821,476 822,475 822,475 823,475 823,475 824,475 825,476 825,476 826,477 826,477 827,477 827,478 828,478 829,478 829,478 830,479 830,479 831,479 831,480 832,481 833,481 833,481 834,482 834,482 835,482 835,482 836,483 836,483 837,483 838,484 838,484 839,484 839,484 840,485 840,485 841,486 842,486 842,486 843,486 843,486 844,486 844,487 845,487 846,487 846,487 847,487 847,488 848,487 848,488 849,488 850,488 850,489 851,489 851,490 852,490 852,490 853,490 854,491 854,491 855,491 855,491 856,492 856,492 857,492 857,492 858,493 859,493 859,493 860,493 860,493 861,493 861,493 862,494 863,494 863,494 864,494 864,495 865,496 865,496 866,497 867,497 867,497 868,497 868,497 869,497 869,498 870,498 871,498 871,499 872,499 872,499 873,499 873,500 874,500 875,500 875,500 876,500 876,501 877,501 877,502 878,502 878,502 879,502 880,503 880,503 881,504 881,504 882,504 882,504 883,505 884,505 884,505 885,505 885,506 886,506 886,506 887,506 888,507 888,505 889,506 889,506 890,506 890,506 891,506 892,507 892,507 893,507 893,507 894,507 894,508 895,508 896,508 896,508 897,508 897,509 898,509 898,508 899,509 899,509 900,510 901,511 901,511 902,511 902,511 902,512 903,512 903,512 904,512 905,513 905,513 906,513 906,513 907,513 907,514 908,514 909,515 909,515 910,515 910,515 911,515 911,516 912,515 913,516 913,516 914,516 914,516 915,516 915,516 916,516 917,516 917,516 918,516 918,516 919,517 919,517 920,518 920,518 921,519 922,519 922,519 923,519 923,520 924,520 924,520 925,521 926,521 926,521 927,521 927,521 928,521 928,522 929,522 930,522 930,522 931,522 931,523 932,523 932,523 933,524 934,524 934,524 935,524 935,525 936,525 936,526 937,526 938,526 938,526 939,526 939,526 940,527 940,527 941,527 941,527 942,527 943,528 943,528 944,528 944,528 945,528 945,529 946,529 947,530 947,530 948,530 948,531 949,531 949,532 950,532 951,533 951,533 952,533 952,533 953,533 953,535 954,535 955,535 955,536 956,537 956,537 957,537 957,537 958,538 959,538 959,538 960,539 960,539 961,539 961,539 962,539 962,539 963,539 964,540 964,540 965,540 965,541 966,541 966,542 967,541 968,541 968,541 969,541 969,541 970,542 970,542 971,542 972,542 972,543 973,543 973,544 974,544 974,543 975,544 976,544 976,544 977,544 977,545 978,545 978,545 979,545 980,545 980,546 981,546 981,546 982,546 982,546 982,546 982,547 983,547 983,547 983,547 984,547 984,548 985,548 985,548 985,548 986,548 986,549 986,549 986,549 987,549 987,549 987,549 987,549 988,549 988,549 989,549 989,550 989,550 989,550 990,550 990,550 990,550 990,551 991,551 991,551 991,552 992,552 993,552 993,552 993,552 993,553 994,553 994,553 994,553 994,553 995,553 995,553 995,553 995,553 996,553 997,553 997,553 997,553 997,553 998,553 998,554 998,554 998,554 999,554 999,554 999,554 999,555 1000,555 1000,555 1001,555 1001,555 1001,555 1001,556 1002,556 1002,556 1002,556 1003,556 1003,556 1003,556 1003,557 1004,557 1004,557 1004,557 1004,557 1005,557 1005,557 1006,557 1006,558 1006,558 1006,558 1007,558 1007,558 1007,558 1007,558 1008,558 1008,558 1008,558 1009,558 1010,558 1010,559 1010,559 1010,559 1011,559 1011,559 1011,559 1011,560 1012,560 1012,560 1012,560 1012,560 1013,560 1013,561 1014,561 1014,561 1014,561 1014,561 1015,561 1015,561 1015,561 1016,561 1016,561 1016,561 1016,562 1017,562 1017,561 1018,561 1018,562 1018,562 1019,562 1019,562 1019,562 1019,563 1020,563 1020,563 1020,563 1020,562 1021,562 1021,563 1022,563 1022,563 1022,563 1022,563 1023,563 1023,564 1023,564 1023,564 1024,564 1024,564 1024,564 1024,564 1025,564 1025,564 1025,564 1025,565 1026,565 1026,565 1027,565 1027,565 1027,565 1027,566 1028,566 1028,565 1028,565 1028,565 1029,566 1029,566 1029,566 1030,566 1030,566 1031,566 1031,566 1031,566 1031,567 1032,567 1032,567 1032,567 1032,567 1033,567 1033,567 1033,567 1033,568 1034,568 1034,568 1035,568 1035,568 1035,568 1036,568 1036,568 1036,568 1036,569 1037,569 1037,570 1037,570 1037,570 1038,570 1039,570 1039,570 1039,570 1040,570 1040,570 1040,570 1041,570 1041,570 1041,570 1041,570 1042,570 1042,570 1043,570 1043,570 1043,570 1043,570 1044,570 1044,571 1044,571 1044,570 1045,570 1045,570 1045,570 1045,571 1046,571 1046,571 1046,571 1047,571 1047,571 1048,571 1048,571 1048,571 1048,571 1049,571 1049,571 1049,571 1049,572 1050,572 1050,572 1050,572 1050,572 1051,572 1051,572 1052,572 1052,572 1052,572 1052,573 1053,573 1053,573 1053,573 1053,573 1054,573 1054,573 1054,573 1054,573 1055,573 1056,573 1056,574 1056,574 1056,574 1057,574 1057,574 1057,573 1057,574 1058,574 1058,574 1058,574 1058,574 1059,574 1059,575 1060,575 1060,575 1060,575 1061,575 1061,575 1061,575 1061,575 1062,575 1062,575 1062,575 1062,576 1063,576 1063,576 1064,576 1064,575 1064,575 1064,575 1065,575 1065,576 1065,576 1065,576 1066,576 1066,576 1066,576 1066,576 1067,576 1067,576 1067,576 1067,576 1068,576 1068,576 1069,576 1069,576 1069,576 1069,577 1070,577 1070,577 1070,577 1071,577 1071,577 1071,577 1071,578 1072,578 1072,578 1073,578 1073,578 1073,578 1073,578 1074,578 1074,578 1074,578 1074,579 1075,579 1075,579 1075,579 1075,579 1076,579 1076,579 1077,579 1077,579 1077,579 1077,579 1078,579 1078,579 1078,579 1078,580 1079,580 1079,580 1079,580 1079,580 1080,580 1080,581 1081,581 1081,581 1081,581 1081,581 1082,581 1082,581 1082,581 1082,582 1083,582 1083,582 1083,582 1083,582 1084,582 1084,582 1085,582 1085,582 1085,582 1085,582 1086,582 1086,582 1086,583 1087,583 1087,583 1087,583 1087,583 1088,583 1088,583 1088,583 1089,583 1089,583 1090,583 1090,584 1090,584 1090,584 1091,584 1091,584 1091,584 1091,584 1092,584 1092,584 1092,584 1092,584 1093,584 1093,585 1094,585 1094,585 1094,585 1095,585 1095,585 1095,585 1095,585 1096,585 1096,585 1096,585 1096,586 1097,586 1097,586 1098,586 1098,586 1098,586 1098,586 1099,586 1099,586 1099,586 1099,586 1100,586 1100,587 1100,587 1100,587 1101,587 1101,587 1102,587 1102,587 1102,587 1102,588 1103,588 1103,588 1103,588 1103,588 1104,588 1104,588 1104,588 1104,588 1105,588 1105,589 1106,589 1106,589 1106,589 1106,589 1107,589 1107,589 1107,589 1107,589 1108,589 1108,589 1108,589 1108,590 1109,590 1109,590 1109,590 1109,590 1110,590 1110,590 1111,590 1111,590 1111,590 1111,591 1112,591 1112,591 1112,591 1112,591 1113,591 1113,591 1113,591 1113,591 1114,591 1114,591 1115,591 1115,592 1115,592 1115,592 1116,592 1116,592 1116,592 1116,592 1117,592 1117,592 1117,592 1117,592 1118,592 1118,592 1119,592 1119,593 1119,593 1119,593 1120,593 1120,593 1120,593 1120,593 1121,593 1121,593 1121,593 1122,593 1122,593 1123,593 1123,593 1123,593 1123,593 1124,593 1124,593 1124,593 1124,593 1125,593 1125,594 1125,594 1125,594 1126,594 1126,594 1127,594 1127,594 1127,594 1127,594 1128,594 1128,594 1128,594 1128,594 1129,594 1129,595 1129,595 1129,595 1130,595 1130,595 1130,595 1130,595 1131,595 1131,595 1132,595 1132,601 1132,601 1133,601 1133,601 1133,601 1133,601 1134,601 1134,601 1134,601 1134,601 1135,601 1135,601 1136,601 1136,601 1136,601 1136,602 1137,602 1137,602 1137,602 1137,602 1138,602 1138,602 1138,602 1138,602 1139,602 1139,602 1140,602 1140,603 1140,603 1140,603 1141,603 1141,603 1141,603 1141,603 1142,603 1142,603 1142,603 1142,603 1143,603 1143,603 1144,603 1144,603 1144,603 1144,603 1145,603 1145,603 1145,603 1145,603 1146,603 1146,603 1146,604 1146,604 1147,604 1147,605 1148,605 1148,605 1148,605 1148,605 1149,605 1149,605 1149,605 1149,605 1150,605 1150,605 1150,605 1150,605 1151,605 1151,605 1151,605 1151,606 1152,606 1152,606 1153,606 1153,606 1153,606 1153,606 1154,606 1154,606 1154,606 1154,606 1155,606 1155,606 1155,606 1156,606 1156,607 1157,607 1157,607 1157,607 1157,607 1158,607 1158,607 1158,607 1158,607 1159,607 1159,607 1159,607 1159,607 1160,607 1160,607 1161,607 1161,608 1161,608 1161,608 1162,608 1162,608 1162,608 1162,608 1163,608 1163,608 1163,608 1163,608 1164,608 1164,609 1165,609 1165,609 1165,609 1165,609 1166,609 1166,609 1166,609 1166,609 1167,609 1167,609 1167,609 1167,609 1168,609 1168,609 1169,609 1169,609 1169,609 1169,609 1170,610 1170,609 1170,609 1170,610 1171,610 1171,610 1171,610 1171,610 1172,610 1172,610 1172,610 1172,610 1173,610 1173,610 1174,610 1174,611 1174,611 1174,611 1175,611 1175,611 1175,611 1175,611 1176,611 1176,611 1176,611 1176,611 1177,611 1177,611 1178,611 1178,611 1178,611 1178,612 1179,612 1179,612 1179,612 1179,612 1180,612 1180,612 1180,612 1180,612 1181,612 1181,612 1182,612 1182,612 1182,612 1182,612 1183,612 1183,612 1183,612 1183,613 1184,613 1184,613 1184,613 1184,613 1185,613 1185,613 1186,613 1186,614 1186,614 1187,614 1187,614 1187,614 1187,614 1188,614 1188,615 1188,615 1188,615 1189,615 1189,615 1190,615 "/>
<polyline fill="none" opacity="1" stroke="#19E68E" stroke-width="2" points="504,738 506,737 506,736 507,734 508,732 508,731 510,730 510,729 511,725 511,725 512,723 512,720 513,719 514,718 514,717 515,716 515,714 516,713 518,712 519,710 519,707 520,706 520,704 521,704 521,701 524,699 524,696 525,695 526,694 527,694 527,693 528,690 529,689 529,688 530,685 531,684 531,684 532,683 532,682 533,680 534,678 535,673 535,672 536,672 536,671 537,670 537,669 538,668 539,668 539,664 540,665 540,665 541,664 541,663 542,660 542,660 543,659 544,658 544,655 545,654 545,652 546,650 546,648 547,645 548,644 548,643 549,640 549,640 550,638 550,637 551,636 552,635 552,630 553,628 553,629 554,629 554,628 555,628 556,628 556,627 557,627 557,626 558,624 558,621 559,620 560,617 560,615 561,612 561,610 562,608 562,606 563,604 563,599 564,594 565,593 565,593 566,593 566,588 567,584 567,580 568,579 569,578 569,578 570,575 570,575 571,574 571,574 572,573 573,571 573,571 574,570 574,566 575,565 575,564 576,564 577,562 577,562 578,560 578,559 579,558 579,556 580,556 581,554 581,553 582,552 582,551 583,549 583,547 584,545 584,543 585,543 586,540 586,539 587,535 587,530 588,527 588,525 589,523 590,519 590,516 591,515 591,515 592,514 592,513 593,511 594,510 594,509 595,503 595,500 596,499 596,496 597,495 598,493 598,490 599,488 599,488 600,484 600,482 601,483 602,482 602,481 603,479 603,476 604,475 604,472 605,472 605,469 606,463 607,463 607,461 608,461 608,461 609,460 609,458 610,457 611,456 611,455 612,450 612,450 613,449 613,443 614,438 615,437 615,434 616,433 616,432 617,431 617,432 618,430 619,431 619,428 620,427 620,426 621,426 621,424 623,423 623,422 624,422 624,421 625,420 625,419 626,414 626,412 627,407 628,406 628,403 629,402 629,402 630,403 630,403 631,402 632,400 632,399 633,397 633,397 634,395 634,396 635,393 636,392 636,391 637,391 637,389 638,390 638,389 639,387 640,386 640,383 641,383 641,383 642,382 642,381 643,382 644,381 644,378 645,377 645,372 646,371 646,370 647,369 647,367 648,367 649,367 649,365 650,365 650,364 651,363 651,363 652,361 653,358 653,358 654,356 654,358 655,357 655,355 656,355 657,356 657,354 658,354 658,353 659,352 659,349 660,349 661,347 661,344 662,344 662,341 663,341 663,339 664,338 665,339 665,338 666,337 666,337 667,337 667,338 668,338 668,337 669,336 670,334 670,332 671,330 671,330 672,329 672,328 673,326 674,324 674,322 675,323 675,322 676,321 676,321 677,319 678,317 678,316 679,314 679,313 680,311 680,309 681,307 682,307 682,305 683,305 683,302 683,302 684,302 684,301 685,298 686,296 686,292 687,288 687,286 688,285 688,284 689,284 689,281 690,282 691,281 691,281 692,279 692,280 693,280 693,284 694,280 695,280 695,279 696,278 696,277 697,277 697,272 698,271 699,272 699,269 700,270 700,269 701,268 701,265 702,264 703,263 703,262 704,262 704,263 705,263 705,262 706,259 707,261 707,260 708,258 708,236 709,235 709,236 710,237 710,234 711,235 712,233 712,233 713,233 713,229 714,229 714,228 715,229 716,225 716,224 717,222 717,223 718,222 718,220 719,219 720,220 720,220 721,219 721,216 722,214 722,210 723,208 724,204 724,203 725,201 725,201 726,200 726,198 727,196 728,197 728,197 729,196 729,192 730,190 730,190 731,189 731,187 732,187 733,185 733,184 734,185 734,184 735,184 735,182 736,183 737,182 737,180 738,180 738,177 739,176 739,176 740,175 741,174 741,169 742,190 742,192 743,191 743,170 744,169 745,167 745,167 746,165 746,165 747,165 747,163 748,161 749,162 749,163 750,162 750,162 751,160 751,159 752,159 752,157 753,157 754,156 754,155 755,155 755,156 756,157 756,155 757,155 758,154 758,154 759,154 759,155 760,149 760,149 761,148 762,148 762,145 763,145 763,144 764,144 764,144 765,145 766,145 766,145 767,145 767,145 768,146 768,146 769,145 770,145 770,145 771,143 771,141 772,140 772,139 773,137 773,137 774,138 775,137 775,135 776,134 776,132 777,130 777,131 778,130 779,130 779,129 780,129 780,128 781,129 781,127 782,127 783,127 783,127 784,126 784,126 785,126 785,127 786,127 787,128 787,125 788,125 788,123 789,123 789,122 790,121 791,118 791,118 792,119 792,118 793,118 793,119 794,119 794,117 795,117 796,115 796,113 797,113 797,113 798,113 798,114 799,114 800,114 800,113 801,111 801,111 802,111 802,110 803,110 804,111 804,110 805,109 805,108 806,109 806,107 807,106 808,108 808,108 809,108 809,108 810,108 810,108 811,108 812,107 812,109 813,109 813,110 814,110 814,109 815,109 815,107 816,108 817,106 817,105 818,107 818,108 819,101 819,101 820,102 821,102 821,102 822,101 822,101 823,101 823,102 824,101 825,101 825,101 826,103 826,105 827,105 827,104 828,104 829,103 829,103 830,103 830,103 831,101 831,102 832,101 833,100 833,99 834,99 834,95 835,96 835,95 836,96 836,94 837,92 838,92 838,93 839,90 839,89 840,90 840,89 841,89 842,89 842,88 843,86 843,85 844,86 844,86 845,86 846,85 846,86 847,84 847,84 848,84 848,84 849,85 850,85 850,85 851,85 851,86 852,84 852,84 853,83 854,84 854,83 855,81 855,82 856,83 856,82 857,82 857,84 858,83 859,83 859,83 860,83 860,83 861,83 861,83 862,83 863,82 863,82 864,82 864,83 865,82 865,80 866,80 867,79 867,79 868,79 868,79 869,79 869,76 870,75 871,76 871,76 872,77 872,77 873,77 873,78 874,78 875,79 875,78 876,78 876,78 877,79 877,78 878,78 878,78 879,79 880,80 880,79 881,80 881,78 882,78 882,78 883,78 884,78 884,78 885,78 885,77 886,77 886,77 887,77 888,78 888,79 889,78 889,78 890,77 890,78 891,78 892,79 892,79 893,78 893,79 894,79 894,78 895,78 896,79 896,81 897,81 897,80 898,80 898,80 899,78 899,79 900,79 901,79 901,79 902,79 902,80 902,80 903,83 903,84 904,84 905,85 905,86 906,86 906,86 907,86 907,87 908,87 909,86 909,89 910,90 910,89 911,90 911,95 912,97 913,96 913,99 914,103 914,103 915,104 915,103 916,104 917,104 917,105 918,106 918,110 919,111 919,112 920,113 920,114 921,111 922,112 922,112 923,113 923,113 924,114 924,114 925,115 926,115 926,112 927,112 927,112 928,112 928,112 929,110 930,110 930,111 931,111 931,111 932,111 932,111 933,112 934,112 934,112 935,111 935,112 936,112 936,114 937,114 938,115 938,115 939,115 939,116 940,116 940,111 941,111 941,112 942,113 943,113 943,113 944,114 944,115 945,111 945,110 946,111 947,112 947,112 948,112 948,113 949,113 949,115 950,115 951,115 951,115 952,116 952,116 953,119 953,118 954,118 955,120 955,121 956,121 956,121 957,121 957,124 958,127 959,128 959,127 960,127 960,127 961,128 961,128 962,128 962,129 963,129 964,129 964,130 965,130 965,131 966,130 966,131 967,132 968,133 968,133 969,134 969,132 970,134 970,135 971,136 972,135 972,135 973,134 973,135 974,135 974,136 975,137 976,136 976,137 977,138 977,140 978,140 978,141 979,142 980,142 980,143 981,140 981,141 982,140 982,141 982,141 982,141 983,141 983,141 983,142 984,142 984,143 985,144 985,144 985,145 986,145 986,150 986,150 986,151 987,151 987,152 987,152 987,154 988,154 988,154 989,154 989,154 989,154 989,155 990,155 990,155 990,155 990,156 991,156 991,156 991,157 992,157 993,157 993,157 993,157 993,155 994,155 994,156 994,156 994,156 995,156 995,156 995,156 995,156 996,157 997,157 997,156 997,156 997,156 998,156 998,156 998,156 998,157 999,157 999,157 999,157 999,157 1000,157 1000,158 1001,158 1001,158 1001,158 1001,158 1002,160 1002,160 1002,161 1003,161 1003,162 1003,162 1003,161 1004,161 1004,163 1004,163 1004,165 1005,165 1005,164 1006,164 1006,166 1006,166 1006,167 1007,167 1007,166 1007,166 1007,167 1008,167 1008,169 1008,169 1009,170 1010,170 1010,170 1010,170 1010,170 1011,170 1011,170 1011,170 1011,170 1012,170 1012,170 1012,170 1012,171 1013,171 1013,172 1014,172 1014,172 1014,172 1014,173 1015,174 1015,175 1015,175 1016,176 1016,176 1016,176 1016,177 1017,177 1017,178 1018,178 1018,179 1018,180 1019,180 1019,181 1019,181 1019,183 1020,183 1020,183 1020,183 1020,184 1021,184 1021,185 1022,185 1022,186 1022,186 1022,186 1023,186 1023,187 1023,187 1023,187 1024,187 1024,187 1024,187 1024,187 1025,187 1025,189 1025,189 1025,190 1026,190 1026,191 1027,191 1027,192 1027,192 1027,192 1028,192 1028,193 1028,193 1028,194 1029,195 1029,195 1029,196 1030,196 1030,197 1031,197 1031,200 1031,200 1031,201 1032,201 1032,201 1032,201 1032,202 1033,202 1033,203 1033,203 1033,203 1034,203 1034,204 1035,204 1035,204 1035,205 1036,205 1036,206 1036,206 1036,207 1037,207 1037,208 1037,208 1037,208 1038,209 1039,212 1039,212 1039,212 1040,213 1040,213 1040,213 1041,213 1041,214 1041,214 1041,215 1042,215 1042,215 1043,216 1043,216 1043,216 1043,218 1044,218 1044,219 1044,219 1044,219 1045,219 1045,220 1045,220 1045,220 1046,220 1046,220 1046,220 1047,220 1047,222 1048,222 1048,223 1048,223 1048,223 1049,223 1049,224 1049,224 1049,225 1050,225 1050,225 1050,225 1050,225 1051,225 1051,226 1052,226 1052,227 1052,227 1052,228 1053,228 1053,228 1053,228 1053,230 1054,230 1054,231 1054,231 1054,231 1055,233 1056,233 1056,233 1056,233 1056,234 1057,234 1057,234 1057,234 1057,235 1058,235 1058,236 1058,236 1058,237 1059,237 1059,237 1060,237 1060,237 1060,238 1061,238 1061,238 1061,238 1061,239 1062,239 1062,239 1062,239 1062,239 1063,240 1063,239 1064,239 1064,241 1064,241 1064,241 1065,241 1065,241 1065,241 1065,242 1066,242 1066,243 1066,243 1066,244 1067,244 1067,244 1067,244 1067,244 1068,244 1068,244 1069,244 1069,245 1069,245 1069,245 1070,245 1070,246 1070,247 1071,247 1071,248 1071,248 1071,249 1072,249 1072,249 1073,249 1073,250 1073,250 1073,251 1074,251 1074,252 1074,252 1074,253 1075,253 1075,253 1075,253 1075,253 1076,253 1076,254 1077,254 1077,255 1077,255 1077,256 1078,256 1078,257 1078,257 1078,257 1079,257 1079,259 1079,259 1079,259 1080,259 1080,259 1081,259 1081,260 1081,260 1081,261 1082,261 1082,262 1082,262 1082,262 1083,262 1083,263 1083,263 1083,264 1084,264 1084,265 1085,265 1085,265 1085,265 1085,265 1086,265 1086,266 1086,266 1087,266 1087,265 1087,265 1087,266 1088,269 1088,269 1088,269 1089,269 1089,269 1090,269 1090,270 1090,270 1090,271 1091,271 1091,271 1091,271 1091,272 1092,272 1092,273 1092,273 1092,274 1093,274 1093,275 1094,275 1094,276 1094,276 1095,276 1095,278 1095,278 1095,278 1096,278 1096,279 1096,279 1096,280 1097,280 1097,280 1098,280 1098,280 1098,280 1098,281 1099,281 1099,280 1099,280 1099,278 1100,278 1100,277 1100,277 1100,278 1101,278 1101,279 1102,279 1102,279 1102,279 1102,279 1103,279 1103,280 1103,280 1103,280 1104,280 1104,280 1104,280 1104,281 1105,281 1105,281 1106,281 1106,282 1106,282 1106,283 1107,283 1107,283 1107,283 1107,284 1108,284 1108,284 1108,284 1108,285 1109,285 1109,286 1109,286 1109,286 1110,286 1110,286 1111,286 1111,287 1111,287 1111,287 1112,287 1112,288 1112,288 1112,288 1113,288 1113,289 1113,289 1113,289 1114,289 1114,290 1115,290 1115,291 1115,291 1115,292 1116,292 1116,292 1116,292 1116,293 1117,293 1117,294 1117,294 1117,294 1118,294 1118,294 1119,294 1119,295 1119,295 1119,295 1120,295 1120,296 1120,296 1120,296 1121,297 1121,297 1121,297 1122,297 1122,298 1123,298 1123,299 1123,299 1123,300 1124,300 1124,300 1124,300 1124,301 1125,301 1125,301 1125,301 1125,301 1126,301 1126,302 1127,302 1127,302 1127,302 1127,303 1128,303 1128,303 1128,303 1128,303 1129,303 1129,305 1129,305 1129,306 1130,306 1130,307 1130,307 1130,307 1131,307 1131,308 1132,308 1132,325 1132,325 1133,325 1133,325 1133,325 1133,326 1134,326 1134,327 1134,327 1134,329 1135,329 1135,329 1136,329 1136,330 1136,330 1136,330 1137,330 1137,330 1137,330 1137,331 1138,331 1138,331 1138,331 1138,331 1139,331 1139,332 1140,332 1140,332 1140,332 1140,333 1141,333 1141,333 1141,333 1141,333 1142,333 1142,334 1142,334 1142,334 1143,334 1143,334 1144,334 1144,334 1144,334 1144,335 1145,335 1145,335 1145,335 1145,335 1146,335 1146,336 1146,336 1146,336 1147,336 1147,337 1148,337 1148,338 1148,338 1148,338 1149,338 1149,339 1149,339 1149,339 1150,339 1150,339 1150,339 1150,340 1151,340 1151,341 1151,341 1151,341 1152,341 1152,342 1153,342 1153,342 1153,342 1153,342 1154,342 1154,344 1154,344 1154,346 1155,346 1155,347 1155,347 1156,347 1156,350 1157,350 1157,350 1157,350 1157,350 1158,350 1158,351 1158,351 1158,351 1159,351 1159,352 1159,352 1159,352 1160,352 1160,353 1161,353 1161,353 1161,354 1161,354 1162,354 1162,355 1162,354 1162,355 1163,355 1163,355 1163,355 1163,356 1164,356 1164,356 1165,356 1165,357 1165,357 1165,358 1166,358 1166,358 1166,358 1166,358 1167,358 1167,359 1167,359 1167,359 1168,359 1168,359 1169,359 1169,360 1169,360 1169,360 1170,360 1170,361 1170,361 1170,362 1171,362 1171,362 1171,362 1171,362 1172,362 1172,363 1172,363 1172,364 1173,364 1173,364 1174,364 1174,365 1174,365 1174,365 1175,365 1175,365 1175,365 1175,366 1176,366 1176,366 1176,366 1176,367 1177,367 1177,367 1178,367 1178,368 1178,368 1178,368 1179,368 1179,368 1179,368 1179,369 1180,369 1180,369 1180,369 1180,370 1181,370 1181,370 1182,370 1182,370 1182,371 1182,371 1183,371 1183,371 1183,371 1183,372 1184,372 1184,372 1184,372 1184,373 1185,373 1185,373 1186,373 1186,374 1186,374 1187,374 1187,375 1187,375 1187,375 1188,375 1188,376 1188,376 1188,377 1189,377 1189,377 1190,377 "/>
<polyline fill="none" opacity="1" stroke="#198EE6" stroke-width="2" points="60,735 60,732 63,729 73,726 80,723 88,723 88,720 92,717 94,714 95,715 99,712 103,709 103,706 109,704 115,705 115,705 117,700 122,698 126,701 128,701 133,694 134,691 134,691 135,692 136,692 136,692 137,692 138,692 138,690 140,687 140,687 141,687 142,688 142,688 144,688 145,688 145,686 146,686 146,686 147,684 147,684 148,684 149,684 150,684 150,684 151,685 151,685 152,685 153,685 153,685 154,685 154,683 155,683 155,683 157,683 157,683 158,683 158,683 159,684 161,684 162,684 162,682 163,680 163,680 164,678 164,678 165,680 166,680 166,678 167,678 167,678 168,679 169,679 170,679 171,677 171,677 172,677 172,677 173,677 174,677 175,678 175,678 176,678 177,676 178,673 178,671 179,669 179,669 180,670 180,670 181,670 182,670 182,670 183,670 183,671 184,671 185,671 186,669 187,665 188,663 188,663 189,663 191,664 191,664 192,662 192,662 193,662 194,662 195,662 195,660 196,660 196,661 197,659 198,657 199,657 200,657 201,658 201,658 202,658 203,658 203,658 204,656 204,657 205,657 205,657 206,657 206,657 207,657 208,655 209,654 209,654 210,654 210,652 211,652 212,652 212,652 213,653 213,651 214,651 214,651 215,651 216,651 216,650 217,648 218,644 218,644 219,645 220,645 220,643 221,643 222,643 223,643 224,644 225,644 225,644 226,644 226,644 227,644 227,643 229,643 229,643 230,643 230,643 231,644 231,644 234,644 234,645 235,643 235,643 236,641 237,640 237,640 238,640 238,640 239,640 241,641 241,641 242,641 242,641 243,641 243,641 244,640 245,640 246,638 246,639 247,639 248,639 248,639 249,640 250,640 250,638 252,639 252,637 253,638 254,638 255,635 255,635 256,635 256,635 257,635 258,635 258,636 259,636 259,636 260,638 260,638 262,637 262,637 263,638 263,638 264,638 264,638 265,638 266,638 266,639 267,639 267,639 268,639 268,639 269,636 269,635 270,635 271,635 271,635 272,635 272,635 273,635 273,636 274,636 275,636 275,637 276,637 276,637 277,635 277,636 278,636 279,636 279,633 280,633 280,632 281,632 282,630 283,631 283,631 284,632 285,632 285,632 287,632 287,631 288,631 288,631 289,630 289,628 290,628 291,629 292,629 292,627 293,628 293,628 294,628 294,628 295,627 296,626 297,626 297,624 298,624 298,625 299,625 300,625 300,624 301,624 301,624 302,624 302,624 303,624 304,623 304,623 305,623 305,624 306,624 306,624 308,624 308,624 309,625 309,625 310,625 310,624 311,624 312,624 313,624 313,623 314,622 314,621 315,621 315,621 316,623 317,623 317,622 318,622 318,621 319,621 319,622 320,620 321,619 321,618 322,618 322,619 323,619 323,619 324,619 325,619 325,620 326,620 326,619 327,617 327,618 328,618 329,618 329,618 330,617 330,616 331,616 331,616 332,617 333,616 334,614 334,614 335,613 335,614 336,614 336,614 337,610 338,610 338,611 339,610 339,610 340,610 340,610 341,611 342,610 342,609 343,609 343,609 344,610 344,609 345,608 346,608 346,608 347,609 347,608 348,608 348,608 349,608 350,609 350,607 351,608 351,607 352,606 352,606 353,606 353,606 354,606 355,607 355,607 356,607 356,608 357,607 357,604 358,605 359,605 360,606 360,606 361,606 361,606 362,607 363,607 364,606 364,605 365,605 365,605 366,605 367,606 367,606 368,606 368,606 369,605 369,606 370,606 371,606 371,605 372,605 372,605 373,606 373,606 374,606 374,606 375,606 376,606 376,607 377,607 377,606 378,606 378,606 379,607 380,607 380,606 381,605 381,605 382,605 382,605 383,606 384,606 384,606 385,606 385,606 386,607 386,607 387,607 388,605 388,605 389,606 389,606 390,606 390,606 391,606 392,606 392,607 393,607 393,606 394,605 394,605 395,606 395,606 396,605 397,605 397,605 398,605 398,606 399,606 399,605 400,605 401,606 401,605 402,606 402,607 403,607 403,607 404,606 405,605 405,605 406,606 406,606 407,606 407,606 408,605 409,607 409,604 410,604 410,604 411,605 411,605 412,605 413,603 413,604 414,603 414,603 415,602 415,601 416,601 416,601 417,601 418,601 418,601 419,600 419,601 420,602 420,603 421,603 422,603 422,603 423,602 423,603 424,603 425,603 426,603 426,604 427,604 427,604 428,604 428,604 429,604 430,605 430,605 431,605 431,604 432,604 432,604 433,605 434,605 434,605 435,605 435,606 436,606 436,606 437,606 437,606 438,607 439,607 439,607 440,606 440,606 441,606 441,606 442,605 443,605 443,605 444,605 444,604 445,604 445,604 446,604 447,605 447,605 448,605 448,605 449,605 449,605 450,604 451,605 451,605 452,605 452,605 453,605 453,605 454,605 455,605 455,605 456,606 456,606 457,605 457,605 458,605 458,605 459,606 460,606 460,605 461,605 461,605 462,606 462,606 463,606 464,606 464,606 465,607 465,607 466,607 466,607 467,607 468,607 468,608 469,608 469,608 470,608 470,608 471,609 472,609 472,609 473,609 473,609 474,608 474,609 475,607 476,607 476,608 477,607 478,607 478,607 479,607 479,607 480,607 481,606 481,606 482,607 482,607 483,607 483,607 484,608 485,607 486,607 486,607 487,608 487,607 488,607 489,606 489,607 490,607 490,607 491,607 491,607 492,607 493,606 493,606 494,606 494,607 495,606 495,606 496,606 497,606 497,607 498,607 498,607 499,606 499,606 500,606 500,605 501,604 502,604 502,604 503,605 503,605 504,605 504,605 505,605 506,605 506,606 507,606 507,606 508,606 508,606 509,605 510,605 510,605 511,606 511,606 512,606 512,606 513,607 514,608 514,608 515,608 515,608 516,608 516,608 517,609 518,609 518,609 519,609 519,609 520,610 520,610 521,609 521,609 522,609 523,610 523,610 524,611 524,611 525,611 525,612 526,612 527,612 527,612 528,612 529,613 529,613 530,613 531,613 531,613 532,614 532,614 533,614 533,614 534,614 535,614 536,614 536,614 537,614 537,614 538,615 539,615 539,614 540,615 541,615 541,614 542,614 542,615 543,615 544,615 544,615 545,615 545,615 546,615 546,616 547,615 548,615 548,616 549,616 549,615 550,615 550,616 551,615 552,615 552,615 553,613 553,614 554,614 554,614 555,614 556,614 556,615 557,615 557,615 558,615 558,615 559,614 560,614 560,614 561,613 561,613 562,613 562,612 563,612 563,611 564,611 565,611 565,612 566,611 566,611 567,611 567,612 568,612 569,612 569,612 570,612 570,613 571,613 571,613 572,613 573,613 573,614 574,615 574,615 575,615 575,614 576,615 577,614 577,614 578,614 578,615 579,615 579,615 580,615 581,616 581,616 582,615 582,615 583,615 583,616 584,616 584,615 585,615 586,616 586,616 587,616 587,616 588,616 588,616 589,616 590,616 590,616 591,616 591,616 592,617 592,616 593,616 594,615 594,615 595,615 595,615 596,616 596,615 597,615 598,615 598,615 599,615 599,615 600,615 600,615 601,615 602,615 602,616 603,616 603,616 604,617 604,617 605,617 605,618 606,618 607,618 607,618 608,618 608,618 609,618 609,618 610,618 611,618 611,619 612,618 612,619 613,619 613,619 614,619 615,619 615,619 616,619 616,619 617,619 617,618 618,619 619,619 619,619 620,619 620,619 621,619 621,619 622,619 623,619 623,619 624,619 624,619 625,619 625,620 626,620 626,619 627,619 628,619 628,619 629,619 629,619 630,619 630,619 631,620 632,619 632,619 633,619 633,619 634,620 634,620 635,620 636,620 636,620 637,620 637,620 638,620 638,620 640,620 640,620 641,620 641,621 642,621 642,621 643,621 644,621 644,621 645,621 645,621 646,621 646,622 647,622 647,622 648,622 649,622 649,622 650,622 650,621 651,622 651,622 652,622 653,622 653,622 654,622 654,623 655,623 655,623 656,623 657,623 657,623 658,623 658,623 659,624 659,624 660,624 661,624 661,624 662,624 662,625 663,625 663,625 664,624 665,625 665,625 666,625 666,626 667,626 667,626 668,626 668,626 669,626 670,627 670,627 671,627 671,627 672,626 672,626 673,626 674,626 674,626 675,626 675,626 676,626 676,626 677,626 678,627 678,626 679,626 679,627 680,627 680,627 681,627 682,628 682,628 683,628 683,628 683,628 684,628 684,628 685,628 686,629 686,629 687,629 687,629 688,629 688,630 689,630 689,629 690,629 691,630 691,630 692,630 692,630 693,630 693,632 694,631 695,631 695,631 696,631 696,631 697,632 697,632 698,632 699,633 699,633 700,633 700,633 701,633 701,633 702,633 703,634 703,634 704,634 704,634 705,634 705,634 706,634 707,634 707,634 708,634 708,634 709,634 709,634 710,635 710,635 711,635 712,635 712,635 713,635 713,635 714,635 714,636 715,636 716,636 716,636 717,636 717,636 718,636 718,636 719,637 720,636 720,636 721,636 721,637 722,637 722,637 723,637 724,637 724,637 725,637 725,637 726,638 726,637 727,637 728,637 728,638 729,638 729,638 730,638 730,638 731,638 731,638 732,638 733,639 733,639 734,639 734,639 735,639 735,639 736,639 737,639 737,640 738,640 738,639 739,640 739,640 740,639 741,640 741,640 742,644 742,644 743,644 743,640 744,640 745,641 745,641 746,641 746,641 747,641 747,642 748,642 749,642 749,642 750,642 750,642 751,643 751,643 752,643 752,643 753,644 754,644 754,644 755,644 755,644 756,644 756,645 757,645 758,645 758,645 759,645 759,645 760,645 760,645 761,645 762,645 762,645 763,645 763,645 764,645 764,646 765,646 766,646 766,646 767,647 767,647 768,647 768,647 769,647 770,647 770,646 771,647 771,647 772,647 772,647 773,647 773,647 774,647 775,647 775,647 776,646 776,646 777,645 777,645 778,645 779,645 779,645 780,645 780,645 781,645 781,645 782,646 783,646 783,646 784,646 784,646 785,646 785,646 786,646 787,647 787,647 788,647 788,647 789,647 789,647 790,647 791,647 791,647 792,647 792,647 793,647 793,647 794,648 794,648 795,648 796,648 796,648 797,648 797,648 798,648 798,649 799,649 800,649 800,649 801,649 801,649 802,648 802,648 803,648 804,649 804,649 805,649 805,649 806,649 806,649 807,649 808,649 808,649 809,649 809,649 810,649 810,649 811,649 812,649 812,649 813,649 813,649 814,649 814,649 815,649 815,649 816,649 817,649 817,649 818,649 818,649 819,649 819,649 820,649 821,649 821,650 822,650 822,650 823,650 823,650 824,650 825,650 825,650 826,650 826,650 827,650 827,650 828,651 829,650 829,650 830,650 830,651 831,651 831,651 832,651 833,651 833,651 834,651 834,651 835,651 835,651 836,652 836,652 837,652 838,652 838,653 839,653 839,653 840,653 840,653 841,653 842,653 842,653 843,654 843,654 844,653 844,653 845,651 846,651 846,651 847,651 847,651 848,651 848,651 849,651 850,651 850,651 851,650 851,650 852,650 852,650 853,650 854,650 854,650 855,650 855,650 856,650 856,650 857,650 857,650 858,650 859,650 859,650 860,650 860,650 861,650 861,650 862,650 863,651 863,651 864,651 864,651 865,651 865,651 866,651 867,651 867,651 868,651 868,651 869,651 869,651 870,652 871,651 871,651 872,651 872,652 873,652 873,652 874,652 875,652 875,651 876,651 876,651 877,651 877,651 878,651 878,652 879,652 880,652 880,652 881,652 881,652 882,652 882,652 883,652 884,652 884,652 885,652 885,652 886,653 886,652 887,653 888,653 888,653 889,653 889,653 890,653 890,654 891,654 892,654 892,654 893,655 893,655 894,655 894,655 895,655 896,655 896,655 897,656 897,656 898,656 898,656 899,656 899,656 900,656 901,656 901,656 902,656 902,656 902,656 903,656 903,656 904,657 905,656 905,656 906,656 906,657 907,656 907,656 908,657 909,657 909,657 910,657 910,657 911,657 911,658 912,657 913,657 913,657 914,657 914,657 915,658 915,658 916,658 917,658 917,658 918,658 918,658 919,658 919,658 920,658 920,658 921,659 922,659 922,659 923,659 923,659 924,659 924,659 925,659 926,659 926,659 927,659 927,659 928,659 928,659 929,659 930,660 930,660 931,660 931,660 932,660 932,660 933,660 934,660 934,660 935,660 935,660 936,661 936,661 937,661 938,661 938,662 939,662 939,662 940,662 940,662 941,662 941,662 942,662 943,662 943,662 944,662 944,662 945,662 945,662 946,662 947,662 947,663 948,663 948,663 949,663 949,663 950,663 951,663 951,663 952,663 952,663 953,664 953,664 954,664 955,664 955,664 956,665 956,665 957,665 957,665 958,665 959,665 959,665 960,665 960,665 961,665 961,665 962,665 962,665 963,666 964,666 964,666 965,666 965,666 966,666 966,667 967,667 968,667 968,667 969,667 969,667 970,667 970,667 971,667 972,667 972,667 973,668 973,667 974,667 974,668 975,667 976,667 976,667 977,668 977,668 978,668 978,668 979,669 980,669 980,669 981,669 981,669 982,669 982,669 982,669 982,669 983,670 983,670 983,670 984,670 984,670 985,670 985,670 985,670 986,670 986,670 986,670 986,670 987,670 987,670 987,670 987,670 988,670 988,670 989,670 989,670 989,670 989,670 990,670 990,670 990,670 990,670 991,670 991,670 992,670 993,670 993,670 993,670 993,670 994,670 994,671 994,671 994,671 995,671 995,671 995,671 995,671 996,671 997,671 997,671 997,671 997,671 998,671 998,671 998,671 998,671 999,671 999,671 999,671 999,671 1000,671 1000,671 1001,671 1001,671 1001,671 1001,672 1002,672 1002,672 1002,672 1003,672 1003,672 1003,672 1003,672 1004,672 1004,672 1004,672 1004,671 1005,671 1005,671 1006,671 1006,671 1006,671 1006,671 1007,671 1007,671 1007,671 1007,671 1008,671 1008,671 1008,671 1009,671 1010,671 1010,671 1010,671 1010,672 1011,672 1011,671 1011,671 1011,671 1012,671 1012,671 1012,671 1012,672 1013,672 1013,672 1014,672 1014,672 1014,672 1014,672 1015,672 1015,672 1015,672 1016,672 1016,672 1016,672 1016,672 1017,672 1017,672 1018,672 1018,672 1018,672 1019,672 1019,673 1019,673 1019,673 1020,673 1020,673 1020,673 1020,674 1021,674 1021,674 1022,674 1022,674 1022,674 1022,674 1023,674 1023,674 1023,674 1023,674 1024,674 1024,674 1024,674 1024,674 1025,674 1025,674 1025,674 1025,674 1026,674 1026,674 1027,674 1027,673 1027,673 1027,674 1028,674 1028,674 1028,674 1028,673 1029,673 1029,673 1029,673 1030,673 1030,673 1031,673 1031,673 1031,673 1031,673 1032,673 1032,673 1032,673 1032,673 1033,673 1033,673 1033,673 1033,673 1034,673 1034,674 1035,674 1035,674 1035,674 1036,674 1036,674 1036,674 1036,674 1037,674 1037,674 1037,674 1037,674 1038,674 1039,674 1039,674 1039,674 1040,674 1040,674 1040,675 1041,675 1041,675 1041,675 1041,675 1042,675 1042,675 1043,675 1043,675 1043,675 1043,675 1044,675 1044,675 1044,675 1044,675 1045,675 1045,675 1045,675 1045,675 1046,675 1046,675 1046,675 1047,675 1047,675 1048,675 1048,675 1048,675 1048,675 1049,675 1049,675 1049,675 1049,675 1050,675 1050,675 1050,675 1050,675 1051,675 1051,675 1052,675 1052,675 1052,675 1052,675 1053,675 1053,675 1053,675 1053,676 1054,676 1054,676 1054,676 1054,675 1055,675 1056,675 1056,675 1056,675 1056,675 1057,675 1057,675 1057,675 1057,675 1058,675 1058,675 1058,675 1058,675 1059,675 1059,675 1060,675 1060,675 1060,675 1061,675 1061,676 1061,676 1061,676 1062,676 1062,676 1062,676 1062,676 1063,676 1063,676 1064,676 1064,676 1064,676 1064,676 1065,676 1065,676 1065,676 1065,676 1066,676 1066,676 1066,676 1066,676 1067,676 1067,677 1067,677 1067,677 1068,677 1068,677 1069,677 1069,677 1069,677 1069,677 1070,677 1070,677 1070,677 1071,677 1071,677 1071,677 1071,677 1072,677 1072,677 1073,677 1073,677 1073,677 1073,677 1074,677 1074,677 1074,677 1074,677 1075,677 1075,677 1075,677 1075,677 1076,677 1076,677 1077,677 1077,677 1077,677 1077,677 1078,677 1078,678 1078,678 1078,678 1079,678 1079,678 1079,678 1079,678 1080,678 1080,678 1081,678 1081,678 1081,678 1081,678 1082,678 1082,678 1082,678 1082,678 1083,678 1083,678 1083,678 1083,679 1084,679 1084,679 1085,679 1085,679 1085,679 1085,679 1086,679 1086,679 1086,679 1087,679 1087,679 1087,679 1087,679 1088,679 1088,679 1088,679 1089,679 1089,679 1090,679 1090,678 1090,678 1090,678 1091,678 1091,679 1091,679 1091,679 1092,679 1092,679 1092,679 1092,679 1093,679 1093,679 1094,679 1094,679 1094,679 1095,679 1095,679 1095,679 1095,679 1096,679 1096,679 1096,679 1096,679 1097,679 1097,679 1098,679 1098,679 1098,679 1098,679 1099,679 1099,679 1099,679 1099,679 1100,679 1100,681 1100,681 1100,680 1101,680 1101,680 1102,680 1102,680 1102,680 1102,681 1103,681 1103,681 1103,681 1103,681 1104,681 1104,681 1104,681 1104,681 1105,681 1105,681 1106,681 1106,681 1106,681 1106,681 1107,681 1107,681 1107,681 1107,681 1108,681 1108,681 1108,681 1108,681 1109,681 1109,682 1109,682 1109,682 1110,682 1110,682 1111,682 1111,682 1111,682 1111,682 1112,682 1112,682 1112,682 1112,682 1113,682 1113,682 1113,682 1113,682 1114,682 1114,682 1115,682 1115,682 1115,682 1115,682 1116,682 1116,682 1116,682 1116,682 1117,682 1117,682 1117,682 1117,682 1118,682 1118,682 1119,682 1119,682 1119,682 1119,682 1120,682 1120,682 1120,682 1120,683 1121,683 1121,683 1121,683 1122,683 1122,683 1123,683 1123,683 1123,683 1123,683 1124,683 1124,683 1124,683 1124,683 1125,683 1125,683 1125,683 1125,683 1126,683 1126,683 1127,683 1127,683 1127,683 1127,683 1128,683 1128,683 1128,683 1128,683 1129,683 1129,684 1129,684 1129,684 1130,684 1130,684 1130,684 1130,684 1131,684 1131,684 1132,684 1132,686 1132,686 1133,686 1133,686 1133,686 1133,686 1134,686 1134,686 1134,686 1134,686 1135,686 1135,686 1136,686 1136,686 1136,686 1136,686 1137,686 1137,686 1137,686 1137,686 1138,686 1138,686 1138,686 1138,686 1139,686 1139,686 1140,686 1140,686 1140,686 1140,686 1141,686 1141,686 1141,686 1141,686 1142,686 1142,687 1142,687 1142,687 1143,687 1143,687 1144,687 1144,687 1144,687 1144,687 1145,687 1145,687 1145,687 1145,687 1146,687 1146,687 1146,687 1146,687 1147,687 1147,687 1148,687 1148,687 1148,687 1148,687 1149,687 1149,687 1149,687 1149,687 1150,687 1150,688 1150,688 1150,688 1151,688 1151,688 1151,688 1151,687 1152,687 1152,688 1153,688 1153,688 1153,688 1153,688 1154,688 1154,688 1154,688 1154,688 1155,688 1155,688 1155,688 1156,688 1156,688 1157,688 1157,688 1157,688 1157,688 1158,688 1158,688 1158,688 1158,688 1159,688 1159,688 1159,688 1159,688 1160,688 1160,688 1161,688 1161,688 1161,688 1161,688 1162,688 1162,688 1162,688 1162,688 1163,688 1163,688 1163,688 1163,688 1164,688 1164,688 1165,688 1165,688 1165,688 1165,689 1166,689 1166,689 1166,689 1166,688 1167,688 1167,689 1167,689 1167,689 1168,689 1168,689 1169,689 1169,689 1169,689 1169,689 1170,689 1170,689 1170,689 1170,689 1171,689 1171,689 1171,689 1171,689 1172,689 1172,689 1172,689 1172,689 1173,689 1173,689 1174,689 1174,690 1174,690 1174,690 1175,690 1175,690 1175,690 1175,690 1176,690 1176,690 1176,690 1176,690 1177,690 1177,690 1178,690 1178,690 1178,690 1178,690 1179,690 1179,690 1179,690 1179,690 1180,690 1180,690 1180,690 1180,690 1181,690 1181,690 1182,690 1182,690 1182,690 1182,690 1183,690 1183,690 1183,690 1183,690 1184,690 1184,690 1184,690 1184,690 1185,690 1185,690 1186,690 1186,690 1186,690 1187,690 1187,691 1187,691 1187,690 1188,690 1188,690 1188,690 1188,690 1189,690 1189,690 1190,690 "/>
<polyline fill="none" opacity="1" stroke="#5419E6" stroke-width="2" points="809,738 810,738 813,738 818,737 820,736 823,736 825,736 826,735 826,732 827,732 829,732 830,732 834,731 835,731 836,731 837,731 838,731 844,731 848,731 849,730 850,730 852,729 855,729 856,728 856,728 857,727 857,727 858,727 860,727 861,727 861,727 864,727 864,726 865,726 865,725 868,725 869,725 869,725 870,724 871,724 873,724 873,724 874,724 875,724 877,724 878,724 879,724 880,724 881,723 881,723 882,723 883,723 884,723 884,723 885,723 886,723 887,723 888,722 889,723 889,723 890,723 890,722 891,721 892,721 892,721 893,721 893,722 894,722 894,722 896,722 896,722 897,721 897,721 898,721 898,721 899,721 901,721 901,721 902,721 902,721 902,721 903,720 903,720 904,720 905,720 905,719 906,719 907,719 907,718 909,718 909,718 910,717 910,717 911,717 911,717 913,717 914,717 914,717 915,716 915,716 916,716 917,715 917,715 918,715 919,714 919,714 920,714 920,714 921,714 922,714 922,714 923,713 924,713 924,714 926,713 927,713 927,713 928,713 930,714 930,714 931,714 931,714 932,713 934,713 935,713 935,713 937,712 938,713 938,713 939,712 939,712 940,712 940,712 941,712 941,712 942,712 943,712 943,711 944,711 944,712 945,712 945,712 946,712 947,711 947,711 948,712 948,711 949,711 949,711 950,711 951,711 951,711 952,711 953,711 953,711 954,710 955,710 955,710 956,710 956,710 957,709 957,709 959,709 959,710 960,710 960,710 961,710 961,709 962,709 962,709 963,709 964,709 964,708 965,708 965,708 966,709 966,709 967,708 968,708 968,708 969,708 969,708 970,708 970,708 971,708 972,708 972,708 973,708 973,708 974,708 974,708 975,708 976,708 976,707 977,708 978,708 978,708 979,708 980,708 980,708 981,708 981,708 982,708 982,708 982,708 982,708 983,708 983,708 983,708 984,708 984,708 985,708 985,708 985,708 986,708 986,708 986,708 986,708 987,708 987,707 987,707 987,707 988,707 988,707 989,707 989,708 989,708 989,707 990,707 990,707 990,707 990,707 991,707 991,707 991,707 992,707 993,707 993,707 993,707 993,707 994,707 994,707 994,707 994,706 995,706 995,707 995,707 995,707 996,707 997,707 997,706 997,706 997,706 998,706 998,706 998,706 998,707 999,707 999,707 999,707 999,707 1000,707 1000,707 1001,707 1001,707 1001,707 1001,707 1002,707 1002,707 1003,707 1003,707 1003,707 1003,707 1004,707 1004,707 1004,707 1004,707 1005,707 1005,707 1006,707 1006,707 1006,707 1006,707 1007,707 1007,707 1007,707 1007,707 1008,707 1008,707 1009,707 1010,707 1010,707 1010,707 1010,707 1011,707 1011,707 1011,707 1011,707 1012,707 1012,707 1012,707 1012,707 1013,707 1013,706 1014,706 1014,706 1014,707 1015,707 1015,707 1015,707 1016,707 1016,707 1016,707 1016,707 1017,707 1017,707 1018,707 1018,706 1018,706 1019,706 1019,706 1019,706 1019,706 1020,706 1020,706 1020,706 1020,706 1021,706 1021,706 1022,706 1022,706 1022,706 1022,706 1023,706 1023,706 1023,706 1024,706 1024,707 1024,707 1024,706 1025,706 1025,707 1025,707 1025,706 1026,706 1026,706 1027,706 1027,706 1027,706 1027,707 1028,707 1028,707 1028,707 1028,706 1029,706 1029,706 1029,706 1030,706 1030,706 1031,706 1031,706 1031,706 1031,707 1032,707 1032,707 1032,707 1032,707 1033,707 1033,707 1033,707 1033,707 1034,707 1034,707 1035,707 1035,707 1036,707 1036,707 1036,707 1036,707 1037,707 1037,707 1037,707 1037,707 1038,707 1039,707 1039,707 1039,707 1040,707 1040,707 1040,707 1041,707 1041,707 1041,707 1041,707 1042,707 1042,706 1043,706 1043,706 1043,706 1044,706 1044,706 1044,706 1044,706 1045,706 1045,706 1045,706 1045,706 1046,706 1046,706 1046,706 1047,706 1047,706 1048,706 1048,707 1048,707 1048,707 1049,707 1049,707 1049,707 1049,707 1050,707 1050,706 1050,706 1050,707 1051,707 1051,707 1052,707 1052,707 1052,707 1052,707 1053,707 1053,707 1053,707 1054,707 1054,707 1054,707 1054,707 1055,707 1056,707 1056,707 1056,707 1056,707 1057,707 1057,707 1057,707 1057,707 1058,707 1058,707 1058,707 1058,707 1059,707 1059,707 1060,707 1060,707 1060,707 1061,707 1061,707 1061,707 1061,707 1062,707 1062,707 1062,707 1062,707 1063,707 1063,707 1064,707 1064,707 1064,707 1064,707 1065,707 1065,707 1065,707 1065,707 1066,707 1066,707 1066,707 1066,707 1067,707 1067,707 1067,707 1067,707 1068,707 1068,707 1069,707 1069,707 1069,707 1069,707 1070,707 1070,707 1070,707 1071,707 1071,707 1071,707 1071,707 1072,707 1072,707 1073,707 1073,707 1073,707 1073,707 1074,707 1074,707 1074,707 1074,707 1075,707 1075,707 1075,707 1075,707 1076,707 1076,707 1077,707 1077,707 1077,707 1077,707 1078,707 1078,707 1078,707 1078,706 1079,706 1079,707 1079,707 1080,707 1080,706 1081,706 1081,706 1081,706 1081,706 1082,706 1082,706 1082,706 1082,706 1083,706 1083,706 1083,706 1083,706 1084,706 1084,706 1085,706 1085,706 1085,706 1085,706 1086,706 1086,706 1086,706 1087,706 1087,706 1087,706 1087,706 1088,706 1088,706 1089,706 1089,706 1090,706 1090,706 1091,706 1091,706 1091,706 1091,706 1092,706 1092,706 1092,706 1092,705 1093,705 1093,705 1094,705 1094,705 1094,706 1095,706 1095,706 1095,706 1095,706 1096,706 1096,706 1096,706 1096,706 1097,706 1097,706 1098,706 1098,706 1098,706 1099,706 1099,706 1099,706 1099,706 1100,706 1100,704 1100,704 1100,704 1101,704 1101,704 1102,704 1102,704 1102,704 1102,704 1103,704 1103,704 1103,704 1103,704 1104,704 1104,704 1104,704 1104,704 1105,704 1105,704 1106,704 1106,704 1106,704 1107,704 1107,706 1107,706 1107,706 1108,706 1108,706 1108,706 1108,705 1109,705 1109,705 1109,705 1109,705 1110,705 1110,705 1111,705 1111,705 1111,705 1111,705 1112,705 1112,705 1112,705 1112,705 1113,705 1113,705 1113,705 1113,705 1114,705 1114,705 1115,705 1115,705 1115,705 1115,705 1116,705 1116,705 1116,705 1116,705 1117,705 1117,705 1117,705 1117,705 1118,705 1118,705 1119,705 1119,705 1119,705 1119,706 1120,706 1120,706 1120,706 1120,706 1121,706 1121,706 1121,706 1122,706 1122,706 1123,706 1123,706 1123,706 1123,706 1124,706 1124,706 1124,706 1124,706 1125,706 1125,706 1125,706 1125,706 1126,706 1126,707 1127,707 1127,707 1127,706 1127,706 1128,706 1128,706 1128,706 1128,706 1129,706 1129,706 1129,706 1129,707 1130,707 1130,706 1130,706 1130,706 1131,706 1131,706 1132,706 1132,708 1132,708 1133,708 1133,708 1133,708 1133,708 1134,708 1134,708 1134,708 1134,708 1135,708 1135,708 1136,708 1136,708 1136,708 1136,708 1137,708 1137,708 1137,708 1137,708 1138,708 1138,708 1138,708 1138,708 1139,708 1139,708 1140,708 1140,708 1140,708 1141,708 1141,708 1141,708 1141,708 1142,708 1142,708 1142,708 1142,708 1143,708 1143,708 1144,708 1144,708 1144,708 1144,708 1145,708 1145,708 1145,708 1145,708 1146,708 1146,708 1146,708 1146,708 1147,708 1147,708 1148,708 1148,708 1148,708 1148,708 1149,708 1149,708 1149,708 1149,708 1150,708 1150,708 1150,708 1150,708 1151,708 1151,708 1151,708 1151,708 1152,708 1152,708 1153,708 1153,708 1153,708 1153,708 1154,708 1154,708 1154,708 1154,708 1155,708 1155,708 1155,708 1156,708 1156,708 1157,708 1157,708 1157,708 1157,708 1158,708 1158,708 1158,708 1158,708 1159,708 1159,708 1159,708 1159,708 1160,708 1160,708 1161,708 1161,708 1161,708 1161,708 1162,708 1162,708 1162,708 1162,708 1163,708 1163,708 1163,708 1163,708 1164,708 1164,708 1165,708 1165,708 1165,708 1165,708 1166,708 1166,708 1166,708 1166,708 1167,708 1167,708 1167,708 1167,708 1168,708 1168,708 1169,708 1169,708 1169,708 1169,708 1170,708 1170,708 1170,708 1170,708 1171,708 1171,708 1171,708 1171,708 1172,708 1172,708 1172,708 1172,708 1173,708 1173,708 1174,708 1174,708 1174,708 1174,708 1175,708 1175,708 1175,708 1175,708 1176,708 1176,708 1176,708 1176,708 1177,708 1177,708 1178,708 1178,708 1178,708 1178,708 1179,708 1179,708 1179,708 1179,708 1180,708 1180,708 1180,708 1181,708 1181,708 1182,708 1182,708 1182,708 1182,708 1183,708 1183,708 1183,708 1183,708 1184,708 1184,708 1184,708 1184,708 1185,708 1185,708 1186,708 1186,708 1186,708 1187,708 1187,708 1187,708 1187,708 1188,708 1188,708 1188,708 1188,707 1189,707 1189,707 1190,707 "/>
<polyline fill="none" opacity="1" stroke="#E619C8" stroke-width="2" points="897,738 898,737 898,737 899,736 899,736 901,735 901,735 902,735 902,735 902,735 903,735 903,734 904,734 905,734 905,733 906,733 906,733 907,733 907,732 908,732 909,731 909,730 910,730 911,730 911,728 912,727 913,727 913,726 914,725 914,725 915,724 915,724 916,723 917,723 917,723 918,723 918,720 919,719 919,718 920,717 920,716 921,716 922,716 922,716 923,716 923,716 924,716 924,714 925,714 926,714 926,714 927,714 927,714 928,713 928,714 929,713 930,712 930,712 931,712 931,711 932,711 932,710 933,710 934,709 934,707 935,707 935,707 936,706 936,706 937,706 938,706 938,704 939,703 939,702 940,700 940,700 941,699 941,699 942,698 943,698 943,698 944,697 944,697 945,696 945,696 946,695 947,694 947,694 948,692 948,691 949,690 949,690 950,688 951,688 951,688 952,687 952,687 953,685 953,683 954,683 955,682 955,681 956,681 956,681 957,681 957,680 958,679 959,677 959,677 960,676 960,674 961,674 961,673 962,673 962,673 963,672 964,672 964,672 965,671 965,671 966,670 966,670 967,669 968,669 968,669 969,668 969,668 970,667 970,667 971,666 972,667 972,665 973,664 973,664 974,663 974,662 975,662 976,663 976,661 977,660 977,660 978,660 978,659 979,657 980,656 980,655 981,655 981,654 982,654 982,653 982,653 982,653 983,653 983,653 983,651 984,651 984,651 985,650 985,650 985,649 986,649 986,646 986,646 986,646 987,646 987,645 987,645 987,644 988,644 988,643 989,643 989,642 989,642 989,642 990,642 990,641 990,641 990,640 991,639 991,639 991,638 992,638 993,638 993,638 993,638 993,637 994,637 994,637 994,637 994,637 995,637 995,636 995,636 995,636 996,635 997,635 997,635 997,635 997,634 998,634 998,633 998,633 998,632 999,632 999,632 999,632 999,631 1000,631 1000,631 1001,631 1001,628 1001,628 1001,627 1002,624 1002,624 1002,623 1003,623 1003,621 1003,621 1003,621 1004,621 1004,620 1004,620 1004,618 1005,618 1005,617 1006,617 1006,616 1006,616 1006,616 1007,616 1007,615 1007,615 1007,614 1008,614 1008,613 1008,613 1009,612 1010,612 1010,610 1010,610 1010,609 1011,609 1011,609 1011,609 1011,608 1012,608 1012,608 1012,608 1012,607 1013,607 1013,606 1014,606 1014,605 1014,605 1014,604 1015,602 1015,602 1015,602 1016,602 1016,600 1016,600 1016,598 1017,598 1017,597 1018,597 1018,597 1018,596 1019,596 1019,594 1019,594 1019,592 1020,592 1020,590 1020,590 1020,590 1021,590 1021,590 1022,590 1022,589 1022,589 1022,588 1023,588 1023,587 1023,587 1023,582 1024,582 1024,580 1024,580 1024,579 1025,579 1025,578 1025,578 1025,577 1026,577 1026,577 1027,577 1027,576 1027,576 1027,574 1028,574 1028,572 1028,572 1028,571 1029,570 1029,570 1029,569 1030,569 1030,567 1031,567 1031,567 1031,567 1031,565 1032,565 1032,565 1032,565 1032,564 1033,564 1033,563 1033,563 1033,561 1034,561 1034,560 1035,559 1035,559 1035,559 1036,559 1036,558 1036,558 1036,557 1037,557 1037,555 1037,555 1037,554 1038,552 1039,550 1039,550 1039,549 1040,548 1040,548 1040,547 1041,547 1041,547 1041,547 1041,544 1042,544 1042,543 1043,543 1043,542 1043,542 1043,540 1044,540 1044,540 1044,540 1044,539 1045,539 1045,537 1045,537 1045,537 1046,537 1046,537 1046,536 1047,536 1047,534 1048,534 1048,532 1048,532 1048,532 1049,532 1049,531 1049,531 1049,530 1050,530 1050,529 1050,529 1050,528 1051,528 1051,528 1052,527 1052,527 1052,527 1052,526 1053,526 1053,525 1053,525 1053,525 1054,525 1054,525 1054,525 1054,524 1055,523 1056,523 1056,522 1056,522 1056,520 1057,520 1057,519 1057,519 1057,519 1058,519 1058,518 1058,518 1058,517 1059,517 1059,516 1060,513 1060,513 1060,512 1061,512 1061,511 1061,512 1061,511 1062,511 1062,510 1062,510 1062,510 1063,510 1063,510 1064,510 1064,508 1064,508 1064,508 1065,508 1065,508 1065,508 1065,507 1066,507 1066,506 1066,506 1066,506 1067,506 1067,505 1067,505 1067,504 1068,504 1068,502 1069,502 1069,501 1069,501 1069,500 1070,500 1070,498 1070,498 1071,498 1071,496 1071,496 1071,496 1072,496 1072,494 1073,494 1073,493 1073,493 1073,493 1074,493 1074,490 1074,490 1074,489 1075,489 1075,488 1075,488 1075,487 1076,487 1076,485 1077,485 1077,485 1077,485 1077,482 1078,482 1078,481 1078,481 1078,480 1079,480 1079,478 1079,478 1079,478 1080,478 1080,477 1081,477 1081,475 1081,475 1081,475 1082,475 1082,473 1082,473 1082,473 1083,473 1083,472 1083,472 1083,470 1084,470 1084,468 1085,468 1085,467 1085,467 1085,467 1086,467 1086,467 1086,466 1087,466 1087,464 1087,464 1087,462 1088,460 1088,460 1088,460 1089,460 1089,459 1090,459 1090,459 1090,459 1090,457 1091,457 1091,456 1091,456 1091,454 1092,454 1092,454 1092,454 1092,454 1093,454 1093,454 1094,454 1094,454 1094,454 1095,454 1095,452 1095,452 1095,451 1096,451 1096,450 1096,450 1096,450 1097,450 1097,450 1098,450 1098,449 1098,449 1098,448 1099,448 1099,448 1099,448 1099,447 1100,446 1100,446 1100,446 1100,445 1101,445 1101,443 1102,443 1102,443 1102,443 1102,442 1103,442 1103,442 1103,442 1103,440 1104,440 1104,439 1104,439 1104,438 1105,438 1105,438 1106,438 1106,437 1106,437 1106,436 1107,436 1107,433 1107,433 1107,433 1108,433 1108,432 1108,432 1108,431 1109,431 1109,430 1109,430 1109,428 1110,428 1110,428 1111,428 1111,427 1111,427 1111,426 1112,426 1112,426 1112,426 1112,425 1113,425 1113,423 1113,423 1113,422 1114,422 1114,421 1115,421 1115,419 1115,419 1115,418 1116,418 1116,417 1116,417 1116,416 1117,416 1117,415 1117,415 1117,415 1118,415 1118,415 1119,415 1119,413 1119,413 1119,412 1120,412 1120,411 1120,411 1120,410 1121,408 1121,408 1121,408 1122,408 1122,406 1123,406 1123,406 1123,406 1123,405 1124,405 1124,404 1124,404 1124,403 1125,403 1125,403 1125,403 1125,402 1126,402 1126,402 1127,402 1127,401 1127,401 1127,400 1128,400 1128,400 1128,399 1128,398 1129,398 1129,397 1129,397 1129,396 1130,396 1130,396 1130,396 1130,395 1131,395 1131,394 1132,394 1132,406 1132,405 1133,405 1133,404 1133,404 1133,404 1134,404 1134,403 1134,403 1134,402 1135,401 1136,401 1136,401 1136,401 1136,399 1137,399 1137,399 1137,399 1137,398 1138,398 1138,398 1138,398 1138,397 1139,397 1139,397 1140,397 1140,396 1140,396 1140,395 1141,395 1141,395 1141,395 1141,394 1142,394 1142,393 1142,393 1142,393 1143,393 1143,392 1144,392 1144,392 1144,392 1144,391 1145,391 1145,391 1145,391 1145,390 1146,390 1146,389 1146,389 1146,389 1147,388 1147,388 1148,388 1148,388 1148,388 1148,388 1149,388 1149,387 1149,387 1149,386 1150,386 1150,386 1150,386 1150,385 1151,384 1151,382 1151,382 1151,380 1152,380 1152,381 1153,380 1153,380 1153,380 1153,378 1154,378 1154,377 1154,377 1154,375 1155,375 1155,374 1155,373 1156,373 1156,372 1157,372 1157,371 1157,371 1157,371 1158,371 1158,370 1158,370 1158,369 1159,369 1159,369 1159,369 1159,369 1160,369 1160,368 1161,368 1161,366 1161,366 1161,366 1162,366 1162,365 1162,365 1162,363 1163,363 1163,362 1163,362 1163,361 1164,361 1164,360 1165,360 1165,358 1165,358 1165,357 1166,357 1166,356 1166,356 1166,356 1167,356 1167,354 1167,354 1167,353 1168,353 1168,352 1169,353 1169,352 1169,352 1169,352 1170,352 1170,350 1170,350 1170,350 1171,350 1171,349 1171,349 1171,348 1172,348 1172,347 1172,345 1172,344 1173,344 1173,343 1174,343 1174,343 1174,343 1174,342 1175,342 1175,341 1175,341 1175,334 1176,334 1176,333 1176,333 1176,331 1177,331 1177,331 1178,331 1178,329 1178,329 1178,328 1179,328 1179,329 1179,328 1179,327 1180,327 1180,326 1180,326 1180,324 1181,324 1181,323 1182,323 1182,323 1182,323 1182,322 1183,322 1183,320 1183,320 1183,320 1184,320 1184,320 1184,320 1184,319 1185,319 1185,318 1186,318 1186,316 1186,316 1187,316 1187,315 1187,315 1187,313 1188,313 1188,311 1188,311 1188,311 1189,311 1189,311 1190,310 "/>
<rect x="65" y="315" width="107" height="119" opacity="1" fill="#FFFFFF" stroke="none"/>
<rect x="65" y="315" width="107" height="119" opacity="1" fill="none" stroke="#000000"/>
<text x="105" y="325" dy="0.76em" text-anchor="start" font-family="sans-serif" font-size="9.67741935483871" opacity="1" fill="#000000">
anyhow
</text>
<text x="105" y="340" dy="0.76em" text-anchor="start" font-family="sans-serif" font-size="9.67741935483871" opacity="1" fill="#000000">
err-derive
</text>
<text x="105" y="355" dy="0.76em" text-anchor="start" font-family="sans-serif" font-size="9.67741935483871" opacity="1" fill="#000000">
error-chain
</text>
<text x="105" y="370" dy="0.76em" text-anchor="start" font-family="sans-serif" font-size="9.67741935483871" opacity="1" fill="#000000">
failure
</text>
<text x="105" y="385" dy="0.76em" text-anchor="start" font-family="sans-serif" font-size="9.67741935483871" opacity="1" fill="#000000">
quick-error
</text>
<text x="105" y="400" dy="0.76em" text-anchor="start" font-family="sans-serif" font-size="9.67741935483871" opacity="1" fill="#000000">
snafu
</text>
<text x="105" y="415" dy="0.76em" text-anchor="start" font-family="sans-serif" font-size="9.67741935483871" opacity="1" fill="#000000">
thiserror
</text>
<polyline fill="none" opacity="1" stroke="#E61919" stroke-width="2" points="75,330 95,330 "/>
<polyline fill="none" opacity="1" stroke="#E6C819" stroke-width="2" points="75,344 95,344 "/>
<polyline fill="none" opacity="1" stroke="#54E619" stroke-width="2" points="75,359 95,359 "/>
<polyline fill="none" opacity="1" stroke="#19E68E" stroke-width="2" points="75,374 95,374 "/>
<polyline fill="none" opacity="1" stroke="#198EE6" stroke-width="2" points="75,390 95,390 "/>
<polyline fill="none" opacity="1" stroke="#5419E6" stroke-width="2" points="75,404 95,404 "/>
<polyline fill="none" opacity="1" stroke="#E619C8" stroke-width="2" points="75,419 95,419 "/>
</svg>
