<svg width="1200" height="800" xmlns="http://www.w3.org/2000/svg">
<rect x="0" y="0" width="1199" height="799" opacity="1" fill="#FFFFFF" stroke="none"/>
<line opacity="0.1" stroke="#000000" stroke-width="1" x1="60" y1="723" x2="1190" y2="723"/>
<line opacity="0.1" stroke="#000000" stroke-width="1" x1="60" y1="708" x2="1190" y2="708"/>
<line opacity="0.1" stroke="#000000" stroke-width="1" x1="60" y1="692" x2="1190" y2="692"/>
<line opacity="0.1" stroke="#000000" stroke-width="1" x1="60" y1="677" x2="1190" y2="677"/>
<line opacity="0.1" stroke="#000000" stroke-width="1" x1="60" y1="661" x2="1190" y2="661"/>
<line opacity="0.1" stroke="#000000" stroke-width="1" x1="60" y1="646" x2="1190" y2="646"/>
<line opacity="0.1" stroke="#000000" stroke-width="1" x1="60" y1="630" x2="1190" y2="630"/>
<line opacity="0.1" stroke="#000000" stroke-width="1" x1="60" y1="615" x2="1190" y2="615"/>
<line opacity="0.1" stroke="#000000" stroke-width="1" x1="60" y1="599" x2="1190" y2="599"/>
<line opacity="0.1" stroke="#000000" stroke-width="1" x1="60" y1="584" x2="1190" y2="584"/>
<line opacity="0.1" stroke="#000000" stroke-width="1" x1="60" y1="568" x2="1190" y2="568"/>
<line opacity="0.1" stroke="#000000" stroke-width="1" x1="60" y1="553" x2="1190" y2="553"/>
<line opacity="0.1" stroke="#000000" stroke-width="1" x1="60" y1="537" x2="1190" y2="537"/>
<line opacity="0.1" stroke="#000000" stroke-width="1" x1="60" y1="522" x2="1190" y2="522"/>
<line opacity="0.1" stroke="#000000" stroke-width="1" x1="60" y1="506" x2="1190" y2="506"/>
<line opacity="0.1" stroke="#000000" stroke-width="1" x1="60" y1="491" x2="1190" y2="491"/>
<line opacity="0.1" stroke="#000000" stroke-width="1" x1="60" y1="475" x2="1190" y2="475"/>
<line opacity="0.1" stroke="#000000" stroke-width="1" x1="60" y1="460" x2="1190" y2="460"/>
<line opacity="0.1" stroke="#000000" stroke-width="1" x1="60" y1="444" x2="1190" y2="444"/>
<line opacity="0.1" stroke="#000000" stroke-width="1" x1="60" y1="429" x2="1190" y2="429"/>
<line opacity="0.1" stroke="#000000" stroke-width="1" x1="60" y1="413" x2="1190" y2="413"/>
<line opacity="0.1" stroke="#000000" stroke-width="1" x1="60" y1="398" x2="1190" y2="398"/>
<line opacity="0.1" stroke="#000000" stroke-width="1" x1="60" y1="382" x2="1190" y2="382"/>
<line opacity="0.1" stroke="#000000" stroke-width="1" x1="60" y1="367" x2="1190" y2="367"/>
<line opacity="0.1" stroke="#000000" stroke-width="1" x1="60" y1="351" x2="1190" y2="351"/>
<line opacity="0.1" stroke="#000000" stroke-width="1" x1="60" y1="335" x2="1190" y2="335"/>
<line opacity="0.1" stroke="#000000" stroke-width="1" x1="60" y1="320" x2="1190" y2="320"/>
<line opacity="0.1" stroke="#000000" stroke-width="1" x1="60" y1="304" x2="1190" y2="304"/>
<line opacity="0.1" stroke="#000000" stroke-width="1" x1="60" y1="289" x2="1190" y2="289"/>
<line opacity="0.1" stroke="#000000" stroke-width="1" x1="60" y1="273" x2="1190" y2="273"/>
<line opacity="0.1" stroke="#000000" stroke-width="1" x1="60" y1="258" x2="1190" y2="258"/>
<line opacity="0.1" stroke="#000000" stroke-width="1" x1="60" y1="242" x2="1190" y2="242"/>
<line opacity="0.1" stroke="#000000" stroke-width="1" x1="60" y1="227" x2="1190" y2="227"/>
<line opacity="0.1" stroke="#000000" stroke-width="1" x1="60" y1="211" x2="1190" y2="211"/>
<line opacity="0.1" stroke="#000000" stroke-width="1" x1="60" y1="196" x2="1190" y2="196"/>
<line opacity="0.1" stroke="#000000" stroke-width="1" x1="60" y1="180" x2="1190" y2="180"/>
<line opacity="0.1" stroke="#000000" stroke-width="1" x1="60" y1="165" x2="1190" y2="165"/>
<line opacity="0.1" stroke="#000000" stroke-width="1" x1="60" y1="149" x2="1190" y2="149"/>
<line opacity="0.1" stroke="#000000" stroke-width="1" x1="60" y1="134" x2="1190" y2="134"/>
<line opacity="0.1" stroke="#000000" stroke-width="1" x1="60" y1="118" x2="1190" y2="118"/>
<line opacity="0.1" stroke="#000000" stroke-width="1" x1="60" y1="103" x2="1190" y2="103"/>
<line opacity="0.1" stroke="#000000" stroke-width="1" x1="60" y1="87" x2="1190" y2="87"/>
<line opacity="0.1" stroke="#000000" stroke-width="1" x1="60" y1="72" x2="1190" y2="72"/>
<line opacity="0.1" stroke="#000000" stroke-width="1" x1="60" y1="56" x2="1190" y2="56"/>
<line opacity="0.1" stroke="#000000" stroke-width="1" x1="60" y1="41" x2="1190" y2="41"/>
<line opacity="0.1" stroke="#000000" stroke-width="1" x1="60" y1="25" x2="1190" y2="25"/>
<line opacity="0.1" stroke="#000000" stroke-width="1" x1="60" y1="10" x2="1190" y2="10"/>
<text x="10" y="375" dy="0.76em" text-anchor="middle" font-family="sans-serif" font-size="9.67741935483871" opacity="1" fill="#000000" transform="rotate(270, 10, 375)">
Number of dependent crates
</text>
<line opacity="0.2" stroke="#000000" stroke-width="1" x1="60" y1="584" x2="1190" y2="584"/>
<line opacity="0.2" stroke="#000000" stroke-width="1" x1="60" y1="429" x2="1190" y2="429"/>
<line opacity="0.2" stroke="#000000" stroke-width="1" x1="60" y1="273" x2="1190" y2="273"/>
<line opacity="0.2" stroke="#000000" stroke-width="1" x1="60" y1="118" x2="1190" y2="118"/>
<polyline fill="none" opacity="1" stroke="#000000" stroke-width="1" points="59,10 59,740 "/>
<text x="50" y="584" dy="0.5ex" text-anchor="end" font-family="sans-serif" font-size="9.67741935483871" opacity="1" fill="#000000">
500
</text>
<polyline fill="none" opacity="1" stroke="#000000" stroke-width="1" points="54,584 59,584 "/>
<text x="50" y="429" dy="0.5ex" text-anchor="end" font-family="sans-serif" font-size="9.67741935483871" opacity="1" fill="#000000">
1000
</text>
<polyline fill="none" opacity="1" stroke="#000000" stroke-width="1" points="54,429 59,429 "/>
<text x="50" y="273" dy="0.5ex" text-anchor="end" font-family="sans-serif" font-size="9.67741935483871" opacity="1" fill="#000000">
1500
</text>
<polyline fill="none" opacity="1" stroke="#000000" stroke-width="1" points="54,273 59,273 "/>
<text x="50" y="118" dy="0.5ex" text-anchor="end" font-family="sans-serif" font-size="9.67741935483871" opacity="1" fill="#000000">
2000
</text>
<polyline fill="none" opacity="1" stroke="#000000" stroke-width="1" points="54,118 59,118 "/>
<polyline fill="none" opacity="1" stroke="#000000" stroke-width="1" points="60,740 1190,740 "/>
<text x="60" y="750" dy="0.76em" text-anchor="middle" font-family="sans-serif" font-size="9.67741935483871" opacity="1" fill="#000000">
2015-09-24Z
</text>
<polyline fill="none" opacity="1" stroke="#000000" stroke-width="1" points="60,740 60,745 "/>
<text x="174" y="750" dy="0.76em" text-anchor="middle" font-family="sans-serif" font-size="9.67741935483871" opacity="1" fill="#000000">
2016-03-31Z
</text>
<polyline fill="none" opacity="1" stroke="#000000" stroke-width="1" points="174,740 174,745 "/>
<text x="289" y="750" dy="0.76em" text-anchor="middle" font-family="sans-serif" font-size="9.67741935483871" opacity="1" fill="#000000">
2016-10-06Z
</text>
<polyline fill="none" opacity="1" stroke="#000000" stroke-width="1" points="289,740 289,745 "/>
<text x="404" y="750" dy="0.76em" text-anchor="middle" font-family="sans-serif" font-size="9.67741935483871" opacity="1" fill="#000000">
2017-04-13Z
</text>
<polyline fill="none" opacity="1" stroke="#000000" stroke-width="1" points="404,740 404,745 "/>
<text x="519" y="750" dy="0.76em" text-anchor="middle" font-family="sans-serif" font-size="9.67741935483871" opacity="1" fill="#000000">
2017-10-19Z
</text>
<polyline fill="none" opacity="1" stroke="#000000" stroke-width="1" points="519,740 519,745 "/>
<text x="634" y="750" dy="0.76em" text-anchor="middle" font-family="sans-serif" font-size="9.67741935483871" opacity="1" fill="#000000">
2018-04-26Z
</text>
<polyline fill="none" opacity="1" stroke="#000000" stroke-width="1" points="634,740 634,745 "/>
<text x="749" y="750" dy="0.76em" text-anchor="middle" font-family="sans-serif" font-size="9.67741935483871" opacity="1" fill="#000000">
2018-11-01Z
</text>
<polyline fill="none" opacity="1" stroke="#000000" stroke-width="1" points="749,740 749,745 "/>
<text x="864" y="750" dy="0.76em" text-anchor="middle" font-family="sans-serif" font-size="9.67741935483871" opacity="1" fill="#000000">
2019-05-09Z
</text>
<polyline fill="none" opacity="1" stroke="#000000" stroke-width="1" points="864,740 864,745 "/>
<text x="979" y="750" dy="0.76em" text-anchor="middle" font-family="sans-serif" font-size="9.67741935483871" opacity="1" fill="#000000">
2019-11-14Z
</text>
<polyline fill="none" opacity="1" stroke="#000000" stroke-width="1" points="979,740 979,745 "/>
<text x="1094" y="750" dy="0.76em" text-anchor="middle" font-family="sans-serif" font-size="9.67741935483871" opacity="1" fill="#000000">
2020-05-21Z
</text>
<polyline fill="none" opacity="1" stroke="#000000" stroke-width="1" points="1094,740 1094,745 "/>
<polyline fill="none" opacity="1" stroke="#E61919" stroke-width="2" points="956,738 957,738 958,738 958,738 959,738 960,738 961,738 961,737 962,737 962,737 963,737 963,737 964,736 964,736 965,736 966,736 966,735 967,735 968,734 968,734 969,734 969,734 970,732 971,732 972,732 972,731 973,730 974,730 974,728 975,724 975,724 976,724 977,724 977,723 978,723 978,723 979,721 980,718 980,717 981,717 982,716 982,716 983,715 983,715 984,714 985,714 985,712 986,712 986,711 987,711 988,711 988,711 989,710 989,710 990,708 991,708 991,707 992,707 992,707 993,707 994,707 994,705 995,705 995,704 996,704 997,704 997,703 998,703 999,703 999,702 1000,702 1000,702 1001,701 1002,701 1002,701 1003,700 1003,699 1004,699 1005,698 1005,698 1006,698 1006,698 1007,696 1008,695 1008,695 1009,693 1009,692 1010,691 1011,691 1011,690 1012,690 1013,688 1013,687 1014,685 1014,685 1015,684 1016,682 1016,680 1017,680 1017,680 1018,679 1019,679 1019,678 1020,678 1020,678 1021,677 1022,677 1022,674 1023,673 1023,672 1024,672 1025,671 1025,671 1026,670 1027,670 1027,670 1028,670 1028,667 1029,667 1030,666 1030,666 1031,664 1031,663 1032,662 1033,662 1033,662 1034,661 1034,661 1035,661 1036,660 1036,659 1037,658 1037,657 1038,657 1039,656 1039,656 1040,656 1040,656 1041,655 1042,654 1042,653 1043,653 1044,652 1044,652 1045,650 1045,650 1046,649 1047,649 1047,649 1048,649 1048,649 1048,649 1048,648 1049,647 1050,646 1050,646 1050,646 1050,645 1051,645 1051,645 1051,642 1052,642 1052,637 1053,637 1053,637 1053,637 1053,635 1054,635 1054,635 1054,635 1054,634 1055,634 1055,633 1056,633 1056,632 1056,632 1056,631 1057,631 1057,631 1058,630 1058,630 1058,629 1059,628 1059,628 1059,627 1060,627 1060,626 1061,626 1061,625 1061,625 1061,625 1062,625 1062,623 1062,623 1062,623 1063,623 1064,623 1064,622 1064,622 1064,622 1065,622 1065,621 1065,621 1065,619 1066,619 1066,619 1067,619 1067,617 1067,617 1067,616 1068,616 1068,614 1068,614 1068,612 1069,609 1070,609 1070,608 1070,608 1070,606 1071,606 1071,605 1072,605 1072,604 1072,604 1072,604 1073,604 1073,603 1073,602 1073,601 1074,601 1074,598 1075,598 1075,598 1075,598 1075,596 1076,596 1076,595 1076,594 1077,593 1078,593 1078,593 1078,593 1078,591 1079,591 1079,589 1079,589 1079,589 1080,589 1080,589 1081,589 1081,588 1081,588 1081,586 1082,586 1082,586 1082,586 1082,586 1083,584 1084,584 1084,581 1084,581 1084,580 1085,580 1085,579 1086,579 1086,577 1086,577 1086,574 1087,574 1087,574 1087,573 1088,573 1088,572 1089,572 1089,569 1089,569 1089,567 1090,567 1090,565 1090,565 1090,565 1091,565 1091,564 1092,564 1092,562 1092,562 1092,557 1093,557 1093,554 1093,554 1093,551 1094,551 1094,549 1095,549 1095,548 1095,548 1095,547 1096,547 1096,545 1096,545 1096,542 1097,542 1097,541 1098,541 1098,541 1098,540 1099,540 1099,537 1099,537 1099,534 1100,534 1100,532 1101,532 1101,530 1101,530 1101,528 1102,528 1102,528 1103,528 1103,527 1103,527 1103,524 1104,524 1104,522 1104,520 1105,520 1105,517 1106,517 1106,515 1106,515 1106,514 1107,514 1107,512 1107,512 1107,510 1108,508 1109,506 1109,506 1109,505 1110,504 1110,504 1110,503 1111,503 1111,501 1112,501 1112,500 1112,500 1112,498 1113,498 1113,498 1113,498 1113,496 1114,496 1114,496 1115,496 1115,495 1115,495 1115,494 1116,494 1116,493 1117,492 1117,492 1117,492 1118,492 1118,490 1118,490 1118,487 1119,487 1119,486 1120,486 1120,485 1120,485 1120,484 1121,484 1121,483 1121,483 1121,480 1122,480 1122,479 1123,479 1123,478 1123,478 1123,477 1124,477 1124,476 1124,476 1124,475 1125,475 1125,474 1126,474 1126,473 1126,471 1127,471 1127,471 1127,470 1127,470 1128,470 1128,469 1129,469 1129,468 1129,468 1129,467 1130,467 1130,466 1131,466 1131,463 1131,462 1132,462 1132,461 1132,461 1132,460 1133,460 1133,458 1134,458 1134,458 1134,458 1134,456 1135,456 1135,454 1135,454 1135,452 1136,452 1136,452 1137,452 1137,450 1137,450 1137,449 1138,449 1138,448 1138,448 1138,445 1139,445 1139,443 1140,443 1140,442 1140,442 1140,441 1141,441 1141,438 1141,438 1141,437 1142,437 1142,434 1143,434 1143,434 1143,431 1144,431 1144,429 1144,429 1144,426 1145,426 1145,424 1146,424 1146,422 1146,422 1146,419 1147,419 1147,418 1148,418 1148,416 1148,416 1148,414 1149,414 1149,412 1149,412 1149,411 1150,411 1150,409 1151,409 1151,408 1151,408 1151,407 1152,407 1152,404 1152,404 1152,403 1153,403 1153,402 1154,402 1154,402 1154,402 1154,399 1155,399 1155,397 1155,397 1155,395 1156,395 1156,392 1157,392 1157,389 1157,389 1157,381 1158,381 1158,378 1158,378 1158,378 1159,377 1159,376 1160,375 1160,375 1160,374 1161,374 1161,372 1162,369 1162,369 1162,368 1163,368 1163,366 1163,366 1163,365 1164,365 1164,362 1165,362 1165,361 1165,361 1165,358 1166,358 1166,355 1166,355 1166,354 1167,354 1167,349 1168,349 1168,349 1168,347 1169,347 1169,345 1169,345 1169,343 1170,343 1170,341 1171,340 1171,340 1171,340 1171,339 1172,339 1172,339 1172,339 1172,338 1173,338 1173,336 1174,336 1174,334 1174,334 1174,333 1175,333 1175,331 1176,331 1176,329 1176,329 1176,329 1177,329 1177,328 1177,328 1177,327 1178,327 1178,326 1179,326 1179,326 1179,326 1179,326 1180,326 1180,325 1180,325 1180,323 1181,323 1181,322 1182,322 1182,320 1182,320 1182,319 1183,319 1183,318 1183,318 1183,317 1184,317 1184,316 1185,316 1185,315 1185,315 1185,313 1186,313 1186,310 1186,310 1186,309 1187,309 1187,308 1188,308 1188,306 1188,306 1188,303 1189,303 1189,301 1190,301 "/>
<polyline fill="none" opacity="1" stroke="#E6C819" stroke-width="2" points="784,738 791,738 796,738 798,737 820,737 826,737 840,736 841,736 843,735 845,735 848,735 849,735 850,735 851,735 851,734 852,734 856,734 856,734 857,734 857,734 860,734 860,734 861,734 862,734 862,734 864,734 864,734 865,734 865,734 866,734 867,733 867,733 869,733 870,733 871,733 872,733 873,733 873,733 874,733 875,733 876,733 876,733 878,733 878,733 879,733 880,733 881,733 881,733 882,733 884,733 885,733 885,733 887,733 887,732 888,732 888,732 889,732 890,732 890,731 891,731 891,731 892,731 893,731 893,731 894,731 895,731 895,731 896,731 896,730 897,730 898,730 898,730 899,730 899,730 900,730 901,730 901,730 902,730 902,730 904,730 904,730 905,730 905,729 906,729 907,729 907,729 908,730 909,730 909,730 910,730 910,729 912,729 912,729 913,729 913,729 914,729 915,729 916,729 916,729 917,729 918,729 918,729 919,729 919,729 920,729 921,729 921,729 922,729 923,729 923,729 924,729 924,729 925,729 926,729 926,729 927,729 927,728 929,728 929,728 930,728 930,728 931,728 932,728 932,728 933,728 933,728 934,727 935,727 935,727 936,727 936,726 937,726 938,726 938,726 939,726 940,726 940,726 941,726 941,726 942,726 943,726 943,726 944,726 944,726 945,726 946,726 946,726 947,726 947,726 948,726 949,726 950,726 950,726 952,726 952,726 953,725 954,725 954,725 955,725 956,725 957,725 957,725 958,725 958,725 959,725 960,725 961,725 961,725 962,725 962,725 963,725 963,725 964,725 964,725 965,725 966,725 967,725 968,725 968,725 969,725 969,725 970,725 971,725 971,725 972,725 972,725 973,725 974,725 974,725 975,725 975,725 976,724 977,724 977,724 978,724 978,724 980,724 980,724 981,724 982,724 982,724 983,724 983,724 984,724 985,724 985,724 986,724 986,724 987,724 988,724 988,724 989,724 990,724 991,724 991,724 992,724 992,724 993,724 994,724 994,724 995,724 995,724 996,724 997,724 997,724 998,724 999,724 999,724 1000,724 1000,724 1001,724 1002,724 1003,724 1003,724 1004,724 1005,724 1005,724 1006,724 1006,724 1007,724 1008,724 1008,724 1009,724 1009,724 1010,724 1011,724 1012,724 1013,724 1013,724 1014,724 1014,724 1015,724 1016,724 1016,724 1017,723 1017,723 1018,723 1019,724 1019,723 1020,723 1020,723 1021,723 1022,723 1022,723 1023,723 1023,723 1024,723 1025,723 1025,723 1026,723 1027,723 1027,723 1028,723 1028,723 1029,723 1030,722 1030,722 1031,721 1031,721 1032,721 1033,721 1033,721 1034,721 1034,722 1035,722 1036,721 1036,721 1037,721 1037,721 1038,721 1039,721 1039,721 1040,721 1040,720 1042,720 1042,720 1043,720 1044,720 1044,720 1045,721 1045,721 1046,720 1047,720 1047,720 1048,720 1048,721 1048,721 1048,721 1049,721 1050,721 1050,720 1050,720 1050,721 1051,721 1051,721 1051,721 1052,721 1052,721 1053,721 1053,721 1053,721 1053,721 1054,721 1054,721 1054,721 1054,721 1055,721 1055,721 1056,721 1056,721 1056,721 1056,721 1057,721 1057,720 1058,720 1058,720 1058,720 1059,720 1059,720 1059,720 1060,720 1060,720 1061,720 1061,720 1061,720 1061,720 1062,720 1062,720 1062,720 1062,720 1063,720 1064,720 1064,720 1064,720 1064,720 1065,720 1065,720 1065,720 1065,720 1066,720 1066,720 1067,720 1067,720 1067,720 1067,720 1068,720 1068,720 1068,720 1068,720 1069,720 1070,720 1070,720 1070,720 1070,720 1071,720 1071,720 1072,720 1072,720 1072,720 1072,720 1073,720 1073,720 1073,720 1073,720 1074,720 1074,720 1075,720 1075,720 1075,720 1075,720 1076,720 1076,720 1076,720 1077,720 1078,720 1078,720 1078,720 1078,719 1079,719 1079,719 1079,719 1079,719 1080,719 1080,719 1081,719 1081,719 1081,719 1081,719 1082,719 1082,719 1082,719 1082,719 1083,719 1084,719 1084,719 1084,719 1084,719 1085,719 1085,719 1086,719 1086,719 1086,719 1087,719 1087,719 1087,719 1088,719 1088,719 1089,719 1089,719 1089,719 1089,719 1090,719 1090,719 1090,719 1090,719 1091,719 1091,719 1092,719 1092,719 1092,719 1092,719 1093,719 1093,719 1093,719 1093,719 1094,719 1094,719 1095,719 1095,719 1095,719 1095,719 1096,719 1096,719 1096,719 1096,719 1097,719 1097,719 1098,719 1098,719 1098,719 1099,719 1099,719 1099,719 1099,719 1100,719 1100,719 1101,719 1101,719 1101,719 1101,719 1102,719 1102,719 1103,719 1103,719 1103,719 1103,719 1104,719 1104,719 1104,719 1105,719 1105,719 1106,719 1106,719 1106,719 1106,719 1107,719 1107,719 1107,719 1107,719 1108,719 1109,719 1109,719 1109,719 1110,719 1110,719 1110,719 1111,719 1111,719 1112,719 1112,719 1112,719 1112,719 1113,719 1113,719 1113,719 1113,719 1114,719 1114,719 1115,719 1115,719 1115,719 1115,719 1116,719 1116,719 1117,719 1117,719 1117,719 1118,719 1118,719 1118,719 1118,719 1119,719 1119,719 1120,719 1120,719 1120,719 1120,719 1121,719 1121,719 1121,719 1121,719 1122,719 1122,719 1123,719 1123,719 1123,719 1123,719 1124,719 1124,719 1124,719 1124,719 1125,719 1125,719 1126,719 1126,719 1126,719 1127,719 1127,719 1127,719 1127,719 1128,719 1128,719 1129,719 1129,719 1129,719 1129,719 1130,719 1131,719 1131,719 1131,719 1132,719 1132,719 1132,719 1132,719 1133,719 1133,719 1134,719 1134,719 1134,719 1134,719 1135,719 1135,719 1135,719 1135,719 1136,719 1136,719 1137,719 1137,719 1137,719 1137,719 1138,719 1138,719 1138,719 1138,719 1139,719 1139,719 1140,719 1140,719 1140,719 1140,719 1141,719 1141,719 1141,719 1141,719 1142,719 1142,719 1143,719 1143,719 1143,719 1144,719 1144,719 1144,719 1144,719 1145,719 1145,719 1146,719 1146,719 1146,719 1146,719 1147,719 1147,719 1148,719 1148,719 1148,719 1148,719 1149,719 1149,719 1149,719 1149,719 1150,719 1150,719 1151,719 1151,719 1151,719 1151,719 1152,719 1152,719 1152,719 1152,719 1153,719 1153,719 1154,719 1154,719 1154,719 1154,719 1155,719 1155,719 1155,719 1155,719 1156,719 1156,719 1157,719 1157,719 1157,719 1158,719 1158,719 1158,719 1158,719 1159,719 1159,719 1160,719 1160,719 1160,719 1161,719 1161,718 1162,718 1162,718 1162,718 1163,718 1163,718 1163,718 1163,718 1164,718 1164,718 1165,718 1165,718 1165,718 1165,718 1166,718 1166,718 1166,718 1166,718 1167,718 1167,718 1168,718 1168,718 1168,718 1169,718 1169,718 1169,718 1169,718 1170,718 1170,718 1171,718 1171,718 1171,718 1171,718 1172,718 1172,718 1172,718 1172,718 1173,718 1173,718 1174,718 1174,718 1174,717 1175,717 1175,717 1176,717 1176,717 1176,717 1176,717 1177,717 1177,717 1177,717 1177,717 1178,717 1179,717 1179,717 1179,717 1179,717 1180,717 1180,717 1180,717 1180,717 1181,717 1181,717 1182,717 1182,717 1182,717 1182,717 1183,717 1183,717 1183,717 1183,717 1184,717 1184,718 1185,718 1185,718 1185,718 1185,718 1186,718 1186,718 1186,718 1187,718 1187,718 1188,718 1188,718 1188,718 1188,718 1189,718 1189,718 1190,718 "/>
<polyline fill="none" opacity="1" stroke="#54E619" stroke-width="2" points="224,738 225,738 230,738 235,738 241,738 242,737 243,737 247,737 258,736 259,736 260,736 264,735 266,735 267,734 268,734 269,734 272,734 273,734 275,734 275,733 277,732 278,732 282,732 284,731 285,731 286,730 287,729 288,728 289,728 292,728 294,727 294,727 295,727 297,726 297,726 298,726 299,726 299,726 300,726 301,726 302,726 302,726 303,726 303,726 304,725 305,725 305,725 306,725 306,725 307,725 308,724 308,724 309,723 309,722 310,722 311,722 312,721 313,721 314,721 317,721 318,720 319,720 319,720 320,720 321,719 322,719 322,719 323,718 323,717 325,716 326,715 326,715 327,715 328,714 328,714 330,714 330,713 331,713 332,713 333,712 333,712 334,711 334,710 335,709 336,708 336,706 337,706 337,705 338,705 339,705 339,705 340,703 340,703 341,703 342,702 343,701 344,701 344,701 345,700 345,700 346,700 347,700 347,699 348,699 348,699 349,699 350,697 350,697 351,697 351,697 352,697 353,697 354,697 354,697 356,696 357,696 358,695 358,695 359,695 359,695 360,695 361,694 361,694 362,694 362,694 363,694 364,693 364,693 365,693 365,692 366,692 367,692 367,692 368,691 368,690 369,689 370,689 371,688 371,687 372,687 373,687 373,687 374,687 375,687 375,686 376,686 376,686 377,686 378,685 378,685 379,685 379,684 380,684 381,684 381,683 382,682 382,682 383,682 384,682 384,681 385,680 385,680 386,680 387,680 387,680 388,680 389,678 389,678 390,676 390,676 391,676 392,676 392,675 393,675 393,674 394,673 395,673 395,673 396,672 396,672 397,672 398,672 398,672 399,671 399,671 400,671 401,671 401,671 402,671 403,671 403,671 404,670 404,670 405,669 406,669 406,668 407,668 407,667 408,667 409,666 409,666 410,666 410,665 411,665 412,665 412,665 413,664 413,664 414,663 415,662 415,662 416,661 417,660 417,660 418,659 418,659 419,659 420,658 420,658 421,657 421,657 422,657 423,656 423,656 424,655 424,654 425,653 426,653 426,652 427,652 427,651 428,650 429,649 429,649 430,649 430,649 431,649 432,649 432,648 433,649 434,647 434,646 435,646 435,646 436,645 437,645 437,645 438,645 438,645 439,644 440,644 440,644 441,644 441,643 442,642 443,642 443,641 444,641 444,640 445,640 446,639 446,639 447,638 448,638 448,637 449,637 449,636 450,636 451,636 451,635 452,635 452,634 453,634 454,634 454,634 455,633 455,633 456,633 457,633 457,633 458,632 458,632 459,631 460,631 460,631 461,630 462,628 462,628 463,628 463,626 464,625 465,625 465,624 466,623 466,623 467,622 468,621 468,621 469,620 469,620 470,620 471,619 471,618 472,618 472,618 473,617 474,617 474,617 475,616 475,617 476,616 477,616 477,615 478,615 479,614 479,614 480,613 480,613 481,613 482,612 482,611 483,611 483,610 484,609 485,609 485,608 486,608 486,607 487,607 488,607 488,605 489,605 489,604 490,604 491,602 491,602 492,601 493,601 493,601 494,599 494,599 495,598 496,598 496,598 497,598 497,597 498,597 499,596 499,596 500,597 500,596 501,596 502,596 502,596 503,596 503,596 504,589 505,588 505,588 506,587 507,587 507,586 508,585 508,584 509,584 510,583 510,583 511,583 511,582 512,582 513,582 513,581 514,580 514,580 515,579 516,578 516,578 517,577 517,577 518,577 519,577 519,577 520,577 521,577 521,577 522,577 522,577 523,577 524,576 524,576 525,576 525,575 526,575 527,575 527,574 528,574 528,574 529,574 530,574 530,573 531,571 531,571 532,570 533,569 533,569 534,569 534,569 535,568 536,567 536,567 537,567 538,567 538,566 539,566 539,566 540,566 541,566 541,565 542,565 542,565 543,565 544,565 544,564 545,564 545,563 546,563 547,562 547,562 548,562 548,560 549,560 550,560 550,560 551,559 552,559 552,560 553,560 553,560 554,559 555,559 555,559 556,558 556,558 557,557 558,557 558,557 559,556 559,555 560,555 561,555 561,555 562,553 562,552 563,551 564,551 564,551 565,550 566,550 566,550 567,550 567,550 568,549 569,549 569,549 570,549 570,549 571,548 572,548 572,548 573,548 573,548 574,548 575,547 575,547 576,546 576,546 577,546 578,546 578,547 579,546 579,547 580,546 581,547 581,548 582,548 583,547 583,547 584,546 584,546 585,546 586,546 586,546 587,546 587,545 588,545 589,545 589,545 590,545 590,544 591,543 592,543 592,543 593,543 593,543 594,543 595,543 595,543 596,543 597,543 597,543 598,543 598,543 599,543 600,543 600,543 601,544 601,546 602,546 603,546 603,546 604,545 604,546 605,545 606,545 606,545 607,544 607,543 608,543 609,543 609,543 610,543 611,543 611,543 612,543 612,542 613,542 614,542 614,542 615,542 615,542 616,542 617,543 617,542 618,542 618,542 619,542 620,541 620,541 621,541 621,541 622,541 623,541 623,541 624,541 625,541 625,541 626,541 626,541 627,541 628,541 628,541 629,541 629,541 630,541 631,541 631,541 632,541 632,541 633,540 634,540 634,541 635,541 635,541 636,540 637,539 637,539 638,539 638,539 639,539 640,539 640,539 641,538 642,539 642,538 643,539 643,539 644,539 645,539 645,539 646,539 646,538 647,538 648,537 648,537 649,537 649,537 650,537 651,537 651,538 652,538 652,538 653,539 654,539 654,539 655,539 656,539 656,539 657,539 657,538 658,538 659,538 659,538 660,538 660,538 661,537 662,538 662,538 663,537 663,537 664,537 665,537 665,537 666,537 666,537 667,537 668,537 668,537 669,537 670,537 670,537 671,537 671,537 672,537 673,537 673,537 674,537 674,537 675,537 676,537 676,537 677,537 677,537 678,537 679,537 679,536 680,536 680,536 681,536 682,536 682,536 683,536 683,534 684,534 685,534 685,534 686,534 687,534 687,535 688,535 688,535 689,535 690,535 690,535 691,535 691,535 692,535 693,536 693,536 694,536 694,536 695,537 696,537 696,536 697,536 697,536 698,536 699,536 699,536 700,536 701,536 701,536 702,536 702,536 703,536 704,536 704,536 705,536 705,536 706,535 707,535 707,534 708,534 708,534 709,534 710,534 710,534 711,534 711,534 712,534 713,534 713,534 714,534 715,533 715,533 716,533 716,533 717,533 718,533 718,534 719,533 719,533 720,533 721,533 721,533 722,533 722,533 723,532 724,532 724,532 725,533 725,532 726,532 727,532 727,532 727,532 728,531 728,531 729,531 730,531 730,531 731,531 732,532 732,532 733,532 733,532 734,531 735,531 735,531 736,531 736,531 737,531 738,531 738,531 739,531 739,531 740,531 741,531 741,531 742,531 742,531 743,531 744,531 744,531 745,531 746,531 746,530 747,530 747,530 748,530 749,530 749,530 750,529 750,529 751,528 752,528 752,528 753,528 753,528 754,529 755,537 755,537 756,537 756,537 757,537 758,537 758,537 759,536 760,537 760,537 761,536 761,536 762,536 763,536 763,536 764,536 764,536 765,536 766,536 766,536 767,536 767,536 768,536 769,536 769,536 770,536 770,536 771,536 772,536 772,536 773,536 774,536 774,536 775,536 775,536 776,536 777,536 777,536 778,537 778,537 779,536 780,536 780,536 781,536 781,537 782,537 783,537 783,537 784,537 784,537 785,536 786,536 786,536 787,537 787,537 788,537 789,537 789,537 790,538 791,537 791,537 792,537 792,537 793,537 794,537 794,537 795,537 795,537 796,537 797,537 797,537 798,537 798,537 799,536 800,536 800,536 801,536 801,536 802,536 803,535 803,535 804,535 805,535 805,535 806,535 806,535 807,536 808,536 808,536 809,536 809,536 810,536 811,536 811,536 812,536 812,537 813,537 814,536 814,536 815,536 815,536 816,536 817,534 817,534 818,534 819,534 819,534 820,534 820,535 821,535 822,535 822,535 823,535 823,535 824,535 825,535 825,535 826,535 826,535 827,535 828,535 828,535 829,535 829,535 830,535 831,535 831,535 832,535 832,535 833,535 834,535 834,535 835,535 836,535 836,535 837,535 837,535 838,535 839,535 839,535 840,535 840,535 841,535 842,535 842,535 843,535 843,536 844,534 845,534 845,534 846,534 846,534 847,534 848,534 848,534 849,534 850,534 850,534 851,534 851,534 852,534 853,534 853,534 854,534 854,534 855,535 856,535 856,535 857,534 857,534 858,534 859,535 859,535 860,535 860,535 861,534 862,535 862,535 863,535 864,535 864,535 865,535 865,535 866,535 867,535 867,535 868,535 868,535 869,535 870,535 870,535 871,535 871,535 872,535 873,535 873,535 874,535 874,535 875,535 876,535 876,534 877,534 878,534 878,533 879,533 879,533 880,533 881,533 881,533 882,533 882,533 883,533 884,533 884,533 885,533 885,533 886,533 887,533 887,534 888,534 888,534 889,534 890,534 890,534 891,534 891,534 892,534 893,534 893,534 894,534 895,534 895,534 896,534 896,534 897,534 898,534 898,534 899,533 899,533 900,533 901,533 901,533 902,533 902,533 903,533 904,533 904,533 905,533 905,533 906,533 907,533 907,533 908,533 909,533 909,533 910,533 910,533 911,533 912,532 912,532 913,532 913,532 914,532 915,532 915,532 916,532 916,532 917,532 918,532 918,532 919,531 919,531 920,531 921,531 921,531 922,531 923,532 923,532 924,532 924,532 925,532 926,532 926,532 927,532 927,532 928,532 929,532 929,532 930,532 930,532 931,532 932,532 932,532 933,532 933,532 934,532 935,532 935,532 936,532 936,532 937,532 938,532 938,532 939,532 940,532 940,532 941,532 941,532 942,532 943,532 943,532 944,532 944,532 945,532 946,532 946,532 947,532 947,530 948,530 949,530 949,530 950,530 950,530 951,530 952,529 952,529 953,529 954,530 954,530 955,530 955,530 956,529 957,529 957,529 958,529 958,529 959,529 960,529 960,529 961,530 961,529 962,529 962,530 963,530 963,530 964,530 964,530 965,530 966,530 966,530 967,529 968,529 968,529 969,529 969,530 970,530 971,530 971,530 972,530 972,530 973,529 974,530 974,529 975,529 975,528 976,528 977,528 977,528 978,528 978,528 979,527 980,527 980,528 981,528 982,528 982,528 983,528 983,528 984,528 985,528 985,528 986,528 986,528 987,528 988,528 988,528 989,528 989,528 990,528 991,529 991,529 992,529 992,528 993,528 994,528 994,528 995,528 995,528 996,528 997,528 997,528 998,528 999,528 999,529 1000,529 1000,528 1001,528 1002,528 1002,528 1003,528 1003,528 1004,528 1005,528 1005,528 1006,528 1006,528 1007,528 1008,528 1008,528 1009,528 1009,528 1010,528 1011,528 1011,528 1012,528 1013,528 1013,528 1014,528 1014,529 1015,529 1016,529 1016,529 1017,529 1017,530 1018,530 1019,530 1019,530 1020,530 1020,530 1021,530 1022,530 1022,530 1023,530 1023,531 1024,531 1025,531 1025,531 1026,531 1027,531 1027,530 1028,530 1028,530 1029,530 1030,530 1030,530 1031,530 1031,530 1032,530 1033,529 1033,529 1034,529 1034,529 1035,529 1036,528 1036,528 1037,529 1037,529 1038,529 1039,529 1039,529 1040,529 1040,529 1041,529 1042,529 1042,529 1043,528 1044,528 1044,528 1045,528 1045,528 1046,528 1047,528 1047,528 1048,528 1048,528 1048,528 1048,528 1049,528 1050,528 1050,528 1050,528 1050,529 1051,529 1051,529 1051,529 1052,529 1052,529 1053,529 1053,529 1053,529 1053,529 1054,529 1054,529 1054,529 1054,529 1055,529 1055,529 1056,529 1056,529 1056,529 1056,529 1057,529 1057,529 1058,530 1058,530 1058,530 1059,530 1059,530 1059,530 1060,530 1060,530 1061,530 1061,530 1061,530 1061,530 1062,530 1062,530 1062,530 1062,530 1063,530 1064,530 1064,529 1064,529 1064,529 1065,529 1065,529 1065,529 1065,530 1066,530 1066,529 1067,529 1067,530 1067,530 1067,530 1068,530 1068,530 1068,530 1068,530 1069,530 1070,530 1070,530 1070,530 1070,530 1071,530 1071,530 1072,530 1072,530 1072,530 1072,530 1073,530 1073,530 1073,530 1073,530 1074,530 1074,530 1075,530 1075,530 1075,530 1075,530 1076,530 1076,530 1076,530 1077,530 1078,530 1078,530 1078,530 1078,530 1079,530 1079,530 1079,530 1079,530 1080,530 1080,530 1081,530 1081,530 1081,530 1081,530 1082,530 1082,530 1082,530 1082,531 1083,531 1084,531 1084,530 1084,530 1084,530 1085,530 1085,530 1086,530 1086,530 1086,530 1086,530 1087,530 1087,530 1087,530 1088,530 1088,530 1089,530 1089,529 1089,529 1089,529 1090,529 1090,529 1090,529 1090,529 1091,529 1091,529 1092,529 1092,529 1092,529 1092,529 1093,529 1093,529 1093,529 1093,529 1094,529 1094,529 1095,529 1095,529 1095,529 1095,529 1096,529 1096,530 1096,530 1096,530 1097,530 1097,529 1098,529 1098,529 1098,529 1099,529 1099,529 1099,529 1099,529 1100,529 1100,528 1101,528 1101,529 1101,529 1101,529 1102,529 1102,529 1103,529 1103,529 1103,529 1103,529 1104,529 1104,529 1104,529 1105,529 1105,529 1106,529 1106,529 1106,529 1106,529 1107,529 1107,530 1107,530 1107,530 1108,530 1109,530 1109,530 1109,530 1110,530 1110,530 1110,529 1111,529 1111,529 1112,529 1112,529 1112,529 1112,529 1113,529 1113,528 1113,528 1113,528 1114,528 1114,528 1115,528 1115,528 1115,528 1115,528 1116,528 1116,528 1117,528 1117,528 1117,528 1118,528 1118,528 1118,528 1118,528 1119,528 1119,528 1120,528 1120,528 1120,528 1120,528 1121,528 1121,528 1121,528 1121,528 1122,528 1122,528 1123,528 1123,528 1123,528 1123,528 1124,528 1124,528 1124,528 1124,528 1125,528 1125,528 1126,528 1126,527 1126,527 1127,527 1127,527 1127,527 1127,527 1128,527 1128,527 1129,527 1129,527 1129,527 1129,527 1130,527 1130,527 1131,527 1131,527 1131,527 1132,527 1132,527 1132,527 1132,527 1133,527 1133,527 1134,527 1134,527 1134,527 1134,527 1135,527 1135,527 1135,527 1135,526 1136,526 1136,526 1137,526 1137,526 1137,526 1137,526 1138,526 1138,526 1138,526 1138,525 1139,525 1139,525 1140,525 1140,525 1140,525 1140,525 1141,525 1141,525 1141,525 1141,525 1142,525 1142,525 1143,525 1143,525 1143,525 1144,525 1144,525 1144,525 1144,525 1145,525 1145,525 1146,525 1146,525 1146,525 1146,525 1147,525 1147,525 1148,525 1148,525 1148,525 1148,525 1149,525 1149,525 1149,525 1149,525 1150,525 1150,525 1151,525 1151,525 1151,525 1151,525 1152,525 1152,525 1152,525 1152,525 1153,525 1153,525 1154,525 1154,526 1154,526 1154,526 1155,526 1155,526 1155,526 1155,526 1156,526 1156,526 1157,526 1157,526 1157,526 1157,525 1158,525 1158,525 1158,525 1158,525 1159,525 1159,525 1160,525 1160,525 1160,525 1161,525 1161,525 1162,525 1162,525 1162,525 1163,525 1163,525 1163,525 1163,525 1164,525 1164,525 1165,525 1165,525 1165,525 1165,525 1166,525 1166,525 1166,525 1166,525 1167,525 1167,525 1168,525 1168,525 1168,525 1169,525 1169,525 1169,525 1169,525 1170,525 1170,525 1171,525 1171,525 1171,525 1171,525 1172,525 1172,525 1172,525 1172,525 1173,525 1173,525 1174,525 1174,525 1174,525 1174,525 1175,525 1175,525 1176,525 1176,525 1176,525 1176,525 1177,525 1177,525 1177,525 1177,525 1178,525 1178,525 1179,525 1179,526 1179,526 1179,526 1180,526 1180,526 1180,526 1180,526 1181,526 1181,526 1182,526 1182,526 1182,526 1182,526 1183,526 1183,526 1183,526 1183,526 1184,526 1184,526 1185,526 1185,526 1185,526 1185,526 1186,526 1186,526 1186,526 1186,526 1187,526 1187,527 1188,527 1188,526 1188,526 1188,526 1189,526 1189,526 1190,526 "/>
<polyline fill="none" opacity="1" stroke="#19E68E" stroke-width="2" points="536,738 538,738 538,738 539,737 540,736 541,736 542,736 542,735 543,734 544,734 544,733 545,732 545,731 546,731 547,731 547,730 548,729 548,729 551,729 552,728 552,727 553,726 553,726 554,725 555,725 557,724 558,722 558,722 559,722 560,721 561,721 562,720 562,720 563,719 564,718 564,718 565,717 566,717 566,717 567,716 568,715 569,713 569,713 570,712 570,712 571,712 572,711 572,711 573,711 573,709 574,709 575,709 575,709 576,709 576,707 577,707 578,707 578,707 579,705 579,705 580,704 581,703 581,702 582,701 583,701 583,700 584,699 584,698 585,698 586,697 586,697 587,696 587,694 588,693 589,693 589,693 590,693 590,693 591,693 592,693 592,692 593,692 593,691 594,689 595,689 595,688 596,687 597,685 597,684 598,684 598,683 599,682 600,680 600,678 601,677 601,677 602,677 603,675 603,673 604,671 604,671 605,670 606,670 606,669 607,668 607,668 608,667 609,667 609,666 610,666 611,665 611,664 612,663 612,662 613,662 614,661 614,661 615,660 615,660 616,659 617,658 617,658 618,657 618,656 619,656 620,655 620,654 621,653 621,652 622,651 623,651 623,650 624,649 625,647 625,645 626,644 626,642 627,641 628,640 628,638 629,637 629,637 630,636 631,636 631,635 632,635 632,634 633,631 634,630 634,629 635,627 635,627 636,626 637,624 637,623 638,623 638,621 639,620 640,620 640,619 641,619 642,618 642,616 643,616 643,614 644,614 645,612 645,609 646,609 646,608 647,608 648,608 648,607 649,606 649,605 650,605 651,604 651,602 652,602 652,601 653,598 654,595 654,595 655,593 656,593 656,592 657,591 657,591 658,591 659,591 659,589 660,589 660,588 661,588 662,587 663,586 663,585 664,585 665,584 665,584 666,583 666,581 667,579 668,577 668,576 669,575 670,574 670,574 671,574 671,574 672,573 673,572 673,571 674,570 674,570 675,569 676,569 676,568 677,567 677,566 678,566 679,565 679,565 680,564 680,563 681,563 682,561 682,561 683,561 683,560 684,559 685,559 685,559 686,557 687,556 687,554 688,553 688,552 689,551 690,550 690,550 691,550 691,549 692,549 693,548 693,547 694,547 694,545 695,543 696,543 696,542 697,542 697,541 698,540 699,540 699,540 700,539 701,538 701,538 702,537 702,535 703,535 704,533 704,531 705,531 705,529 706,529 707,528 707,527 708,526 708,525 709,524 710,524 710,524 711,523 711,523 712,522 713,521 713,519 714,518 715,517 715,517 716,516 716,515 717,514 718,512 718,511 719,512 719,510 720,510 721,510 721,508 722,507 722,506 723,505 724,504 724,502 725,501 725,500 726,499 727,498 727,497 727,496 728,495 728,495 729,494 730,492 730,491 731,488 732,485 732,483 733,482 733,482 734,481 735,480 735,480 736,479 736,478 737,477 738,477 738,476 739,476 739,475 740,475 741,474 741,473 742,472 742,471 743,468 744,468 744,467 745,465 746,465 746,465 747,464 747,462 748,461 749,459 749,458 750,457 750,457 751,457 752,456 752,454 753,455 753,454 754,452 755,439 755,438 756,438 756,438 757,436 758,436 758,435 759,435 760,434 760,432 761,431 761,430 762,430 763,427 763,427 764,425 764,425 765,424 766,423 766,422 767,422 767,422 768,420 769,418 769,417 770,414 770,412 771,410 772,409 772,407 773,407 774,405 774,404 775,402 775,402 776,402 777,401 777,398 778,396 778,396 779,394 780,393 780,392 781,390 781,390 782,390 783,389 783,388 784,387 784,386 785,385 786,384 786,384 787,381 787,380 788,380 789,378 789,377 790,373 791,371 791,372 792,372 792,371 793,371 794,369 794,369 795,367 795,366 796,366 797,364 797,362 798,362 798,362 799,361 800,361 800,359 801,358 801,357 802,355 803,355 803,353 804,353 805,352 805,352 806,352 806,351 807,349 808,349 808,348 809,347 809,347 810,343 811,342 811,341 812,340 812,338 813,338 814,336 814,336 815,335 815,335 816,335 817,334 817,333 818,333 819,332 819,332 820,331 820,331 821,330 822,328 822,326 823,325 823,323 824,321 825,321 825,321 826,320 826,318 827,317 828,315 828,313 829,313 829,312 830,311 831,310 831,309 832,308 832,308 833,306 834,305 834,305 835,304 836,303 836,302 837,302 837,302 838,301 839,301 839,298 840,298 840,296 841,295 842,294 842,293 843,290 843,289 844,290 845,289 845,288 846,288 846,288 847,285 848,285 848,283 849,281 850,280 850,280 851,279 851,279 852,279 853,278 853,277 854,275 854,275 855,274 856,273 856,273 857,272 857,271 858,270 859,269 859,268 860,267 860,266 861,265 862,264 862,264 863,263 864,262 864,261 865,260 865,259 866,260 867,259 867,259 868,259 868,258 869,257 870,255 870,255 871,253 871,252 872,252 873,252 873,246 874,246 874,246 875,246 876,245 876,244 877,243 878,242 878,242 879,241 879,241 880,240 881,241 881,241 882,241 882,240 883,239 884,238 884,237 885,237 885,236 886,234 887,234 887,232 888,232 888,230 889,229 890,226 890,225 891,225 891,225 892,223 893,221 893,220 894,220 895,217 895,216 896,216 896,214 897,214 898,213 898,211 899,208 899,207 900,207 901,207 901,206 902,205 902,205 903,203 904,203 904,202 905,202 905,202 906,201 907,201 907,200 908,200 909,197 909,197 910,195 910,196 911,194 912,191 912,191 913,192 913,190 914,189 915,189 915,188 916,187 916,187 917,187 918,186 918,185 919,184 919,183 920,182 921,182 921,181 922,181 923,179 923,177 924,176 924,175 925,175 926,174 926,173 927,173 927,169 928,168 929,168 929,168 930,168 930,167 931,167 932,167 932,167 933,166 933,165 934,164 935,163 935,163 936,162 936,161 937,160 938,161 938,161 939,160 940,159 940,157 941,156 941,155 942,155 943,155 943,154 944,153 944,152 945,151 946,150 946,149 947,148 947,148 948,147 949,146 949,145 950,145 950,144 951,144 952,144 952,143 953,143 954,142 954,141 955,141 955,141 956,142 957,141 957,139 958,139 958,138 959,135 960,135 960,134 961,134 961,133 962,133 962,133 963,132 963,134 964,134 964,134 965,134 966,135 966,133 967,133 968,133 968,132 969,132 969,130 970,133 971,133 971,132 972,132 972,136 973,137 974,136 974,137 975,140 975,139 976,140 977,139 977,139 978,138 978,138 979,139 980,142 980,142 981,142 982,143 982,143 983,139 983,139 984,139 985,139 985,138 986,138 986,138 987,137 988,137 988,134 989,133 989,133 990,132 991,131 991,129 992,129 992,129 993,128 994,127 994,126 995,126 995,126 996,126 997,124 997,124 998,124 999,123 999,123 1000,123 1000,123 1001,122 1002,121 1002,122 1003,122 1003,116 1004,116 1005,115 1005,116 1006,115 1006,115 1007,115 1008,115 1008,109 1009,108 1009,107 1010,107 1011,106 1011,105 1012,105 1013,105 1013,105 1014,105 1014,103 1015,103 1016,103 1016,103 1017,105 1017,104 1018,103 1019,103 1019,103 1020,102 1020,101 1021,101 1022,103 1022,105 1023,105 1023,104 1024,103 1025,103 1025,103 1026,103 1027,101 1027,102 1028,101 1028,101 1029,100 1030,100 1030,99 1031,96 1031,96 1032,97 1033,97 1033,96 1034,96 1034,94 1035,95 1036,95 1036,96 1037,94 1037,93 1038,91 1039,91 1039,91 1040,91 1040,91 1041,90 1042,90 1042,90 1043,89 1044,89 1044,89 1045,89 1045,88 1046,89 1047,85 1047,85 1048,84 1048,84 1048,84 1048,84 1049,83 1050,83 1050,84 1050,84 1050,84 1051,84 1051,84 1051,85 1052,85 1052,90 1053,90 1053,90 1053,90 1053,90 1054,90 1054,91 1054,91 1054,90 1055,90 1055,90 1056,90 1056,90 1056,90 1056,90 1057,90 1057,90 1058,89 1058,89 1058,89 1059,89 1059,89 1059,87 1060,87 1060,85 1061,85 1061,85 1061,85 1061,84 1062,84 1062,84 1062,84 1062,83 1063,83 1064,83 1064,81 1064,81 1064,80 1065,80 1065,80 1065,80 1065,79 1066,79 1066,78 1067,78 1067,78 1067,78 1067,78 1068,78 1068,77 1068,77 1068,77 1069,79 1070,79 1070,79 1070,79 1070,79 1071,79 1071,78 1072,78 1072,79 1072,79 1072,80 1073,80 1073,78 1073,78 1073,79 1074,79 1074,79 1075,79 1075,78 1075,78 1075,78 1076,78 1076,79 1076,79 1077,79 1078,79 1078,79 1078,79 1078,78 1079,78 1079,77 1079,77 1079,77 1080,77 1080,76 1081,76 1081,76 1081,76 1081,76 1082,76 1082,75 1082,75 1082,75 1083,76 1084,76 1084,77 1084,77 1084,77 1085,77 1085,77 1086,77 1086,78 1086,78 1086,78 1087,78 1087,78 1087,78 1088,78 1088,79 1089,79 1089,78 1089,78 1089,79 1090,79 1090,79 1090,79 1090,80 1091,80 1091,79 1092,79 1092,79 1092,79 1092,79 1093,79 1093,77 1093,77 1093,77 1094,77 1094,79 1095,79 1095,79 1095,79 1095,80 1096,80 1096,79 1096,79 1096,79 1097,79 1097,79 1098,79 1098,80 1098,80 1099,80 1099,80 1099,80 1099,81 1100,81 1100,82 1101,82 1101,82 1101,82 1101,82 1102,82 1102,82 1103,82 1103,83 1103,83 1103,83 1104,83 1104,83 1104,82 1105,82 1105,82 1106,82 1106,83 1106,83 1106,83 1107,83 1107,84 1107,84 1107,84 1108,84 1109,86 1109,86 1109,87 1110,86 1110,86 1110,86 1111,86 1111,86 1112,86 1112,87 1112,87 1112,87 1113,87 1113,87 1113,87 1113,88 1114,88 1114,89 1115,89 1115,88 1115,88 1115,89 1116,89 1116,88 1117,88 1117,88 1117,87 1118,87 1118,88 1118,88 1118,89 1119,89 1119,88 1120,88 1120,89 1120,89 1120,89 1121,89 1121,89 1121,89 1121,89 1122,89 1122,89 1123,89 1123,89 1123,89 1123,90 1124,90 1124,90 1124,90 1124,90 1125,90 1125,90 1126,90 1126,91 1126,92 1127,92 1127,92 1127,92 1127,92 1128,92 1128,92 1129,92 1129,92 1129,92 1129,92 1130,92 1130,92 1131,92 1131,91 1131,91 1132,91 1132,91 1132,91 1132,91 1133,91 1133,91 1134,91 1134,90 1134,90 1134,91 1135,91 1135,90 1135,90 1135,91 1136,91 1136,90 1137,90 1137,90 1137,90 1137,90 1138,90 1138,91 1138,91 1138,91 1139,91 1139,90 1140,90 1140,90 1140,90 1140,89 1141,89 1141,89 1141,89 1141,89 1142,89 1142,90 1143,90 1143,90 1143,90 1144,90 1144,90 1144,90 1144,89 1145,89 1145,90 1146,90 1146,90 1146,90 1146,90 1147,90 1147,91 1148,91 1148,91 1148,91 1148,91 1149,91 1149,91 1149,91 1149,92 1150,92 1150,92 1151,92 1151,92 1151,92 1151,92 1152,92 1152,93 1152,93 1152,93 1153,93 1153,92 1154,92 1154,93 1154,93 1154,93 1155,93 1155,93 1155,93 1155,93 1156,93 1156,93 1157,93 1157,93 1157,93 1157,94 1158,94 1158,93 1158,93 1158,93 1159,93 1159,93 1160,92 1160,92 1160,91 1161,91 1161,92 1162,94 1162,94 1162,94 1163,94 1163,94 1163,94 1163,94 1164,94 1164,94 1165,94 1165,94 1165,94 1165,94 1166,94 1166,95 1166,95 1166,95 1167,95 1167,95 1168,95 1168,96 1168,96 1169,96 1169,98 1169,98 1169,98 1170,98 1170,98 1171,98 1171,98 1171,98 1171,98 1172,98 1172,98 1172,98 1172,98 1173,98 1173,95 1174,95 1174,93 1174,93 1174,90 1175,90 1175,90 1176,90 1176,90 1176,90 1176,90 1177,90 1177,90 1177,90 1177,90 1178,90 1178,91 1179,91 1179,90 1179,90 1179,90 1180,90 1180,90 1180,90 1180,90 1181,90 1181,90 1182,90 1182,90 1182,90 1182,90 1183,90 1183,91 1183,91 1183,91 1184,91 1184,91 1185,91 1185,91 1185,91 1185,91 1186,91 1186,91 1186,91 1186,91 1187,91 1187,91 1188,91 1188,91 1188,91 1188,91 1189,91 1189,91 1190,91 "/>
<polyline fill="none" opacity="1" stroke="#198EE6" stroke-width="2" points="60,738 60,738 64,738 73,738 82,737 90,737 91,737 95,737 96,736 97,736 101,736 106,736 106,735 112,735 118,735 119,735 122,734 127,734 131,734 132,734 139,734 139,733 140,733 140,733 141,733 142,733 143,733 143,733 144,733 145,733 146,733 146,733 148,733 148,733 150,733 151,733 151,732 152,732 153,732 153,732 154,732 154,732 156,732 156,732 157,732 157,732 158,732 159,732 159,732 160,732 160,732 161,732 162,732 162,732 163,732 164,732 165,732 165,732 166,732 168,732 169,732 170,731 170,731 171,731 171,731 172,731 173,731 173,731 174,731 174,731 175,731 176,731 177,731 178,731 179,730 179,730 180,730 181,730 181,730 182,730 183,730 184,730 184,730 185,730 186,730 187,729 187,729 188,729 188,729 189,729 190,729 190,729 191,729 191,729 192,729 193,729 194,729 195,729 196,728 197,728 198,728 198,728 200,728 201,728 201,728 202,728 203,728 204,728 204,728 205,727 205,727 206,727 207,727 208,727 209,727 210,727 211,727 212,727 212,727 213,727 213,727 214,726 215,726 215,726 216,726 216,726 217,726 218,726 219,726 219,726 220,726 221,726 221,725 222,725 222,725 223,725 224,725 224,725 225,725 226,725 226,725 227,725 227,725 229,725 229,724 230,724 230,724 231,724 232,724 233,724 233,724 235,724 236,724 236,724 237,724 238,724 238,724 239,724 240,723 241,723 241,723 242,723 243,723 243,723 244,723 246,723 247,723 247,723 248,723 249,723 249,722 250,722 250,722 251,722 252,722 254,722 254,722 255,722 255,722 256,722 257,722 257,722 258,722 259,722 260,722 260,722 261,722 262,722 263,722 263,722 264,721 266,721 266,721 267,721 268,721 269,720 269,720 270,720 271,720 271,720 272,720 272,720 273,720 274,720 274,720 275,720 276,720 277,720 277,720 278,720 278,720 279,720 280,720 280,720 281,720 281,720 282,720 283,720 283,720 284,720 285,719 285,719 286,719 286,719 287,719 288,719 288,719 289,719 289,719 290,719 291,719 291,719 292,719 292,719 293,719 294,719 294,719 295,718 295,718 296,718 297,718 298,718 299,718 299,718 300,718 301,718 302,718 303,718 303,717 304,717 305,717 305,717 306,717 306,717 308,717 308,717 309,716 309,716 310,716 311,716 311,716 312,716 313,716 314,716 314,716 315,716 316,716 316,716 317,716 317,715 318,715 319,715 319,715 320,715 320,715 321,715 322,715 322,715 323,715 323,715 324,715 325,715 326,715 326,715 327,715 328,715 328,715 330,715 330,715 331,715 331,714 332,714 333,714 333,714 334,714 334,714 335,714 336,714 336,714 337,713 337,713 338,713 339,713 339,713 340,712 340,712 341,712 342,712 342,712 343,712 344,712 344,712 345,712 345,712 346,712 347,712 347,712 348,712 348,712 349,711 350,711 350,711 351,711 352,711 353,711 353,711 354,711 354,710 355,710 356,710 356,710 357,709 358,709 358,709 359,709 359,709 360,709 361,709 361,709 362,709 362,708 363,708 364,708 364,709 365,708 365,708 366,708 367,708 367,708 368,708 368,708 369,708 370,708 370,708 371,707 371,707 372,707 373,707 373,707 374,707 375,707 375,707 376,707 376,707 377,707 378,707 378,707 379,706 379,706 381,706 381,706 382,706 382,706 383,706 384,706 385,706 385,706 386,705 387,705 387,705 388,705 389,705 389,705 390,705 390,705 391,705 392,705 392,705 393,705 393,705 394,705 395,705 395,705 396,705 396,705 397,705 398,705 398,705 399,705 399,705 400,704 401,704 401,704 402,704 403,704 403,704 404,704 404,704 405,704 406,704 406,704 407,704 407,704 408,704 409,704 409,704 410,704 410,704 411,703 412,703 412,703 413,703 413,703 414,703 415,703 415,703 416,703 417,703 417,703 418,702 418,702 419,702 420,702 420,702 421,702 421,702 422,702 423,702 423,702 424,702 424,702 425,702 426,702 426,702 427,702 427,702 428,702 429,702 429,701 430,701 430,701 431,701 432,701 432,701 433,701 434,701 434,700 435,700 435,700 436,700 437,700 437,700 438,700 438,700 439,699 440,699 440,699 441,699 441,699 442,698 443,698 443,698 444,698 444,698 445,698 446,698 446,698 447,698 448,698 448,698 449,698 449,698 451,698 451,698 452,698 452,698 453,698 454,698 454,698 455,698 455,698 456,698 457,698 457,698 458,698 458,698 459,698 460,698 460,698 461,698 462,698 462,698 463,698 463,698 464,698 465,698 465,698 466,698 466,698 467,698 468,698 468,697 469,697 469,697 470,697 471,697 471,697 472,696 472,696 473,696 474,696 474,696 475,696 475,696 476,696 477,696 477,696 478,696 479,696 479,696 480,696 480,696 481,696 482,696 482,696 483,696 483,696 484,696 485,696 485,695 486,695 486,695 487,695 488,695 488,695 489,695 489,695 490,695 491,695 491,695 492,695 493,695 493,695 494,695 494,695 495,695 496,695 496,695 497,695 497,695 498,695 499,695 499,695 500,695 500,695 501,695 502,695 502,695 503,695 503,695 504,695 505,694 505,694 506,694 507,694 508,694 508,693 509,693 510,693 510,693 511,693 511,693 512,693 513,693 513,693 514,693 514,693 516,693 516,693 517,693 517,693 518,693 519,693 519,692 520,692 521,692 521,692 522,692 522,692 523,692 524,692 524,692 525,692 525,692 526,691 527,691 527,691 528,691 528,691 529,691 530,691 530,691 531,691 531,691 532,690 533,690 533,690 534,690 534,690 535,690 536,690 536,690 537,690 538,690 538,690 539,690 539,690 540,690 541,690 541,689 542,689 542,689 543,689 544,689 544,689 545,689 545,690 546,690 547,690 547,690 548,690 548,690 549,690 550,690 550,690 551,690 552,690 552,690 553,690 553,690 554,689 555,689 555,689 556,690 556,690 557,690 558,690 558,690 559,690 559,690 560,690 561,690 561,690 562,690 563,690 564,690 564,690 565,690 566,690 566,690 567,690 567,690 568,690 569,690 570,690 570,690 571,690 572,690 572,690 573,690 573,689 575,689 575,689 576,689 576,689 577,689 578,689 578,689 579,689 579,689 580,689 581,689 581,689 582,689 583,689 583,689 584,689 584,689 585,689 586,689 586,688 587,688 587,688 588,687 589,687 589,687 590,687 590,687 591,687 592,687 592,687 593,687 593,687 594,687 595,687 595,687 596,686 597,686 597,686 598,686 598,685 599,685 600,685 600,685 601,685 601,685 602,684 603,684 603,684 604,684 604,684 605,684 606,684 606,684 607,684 607,684 608,684 609,684 609,684 610,685 611,685 611,685 612,685 612,684 613,684 614,684 614,684 615,684 615,684 616,684 617,684 617,684 618,684 618,684 619,684 620,684 620,684 621,684 621,684 622,684 623,684 623,684 624,684 625,684 625,684 626,683 626,683 627,683 628,683 628,683 629,683 629,683 630,683 631,683 631,683 632,682 632,682 633,682 634,682 634,682 635,682 635,682 636,682 637,682 637,682 638,682 638,681 639,681 640,681 640,681 641,681 642,682 642,682 643,682 643,682 644,682 645,682 645,682 646,682 646,682 647,682 648,682 648,682 649,682 649,682 650,682 651,682 651,682 652,682 652,682 653,682 654,682 654,682 655,682 656,681 656,681 657,681 657,681 658,681 659,681 659,681 660,681 660,681 661,681 662,681 662,681 663,681 663,681 664,681 665,681 665,681 666,681 666,681 667,680 668,680 668,680 669,680 670,680 670,680 671,680 671,680 672,680 673,680 673,680 674,680 674,680 675,680 676,680 676,680 677,680 677,680 678,680 679,680 679,680 680,680 681,680 682,680 682,680 683,680 683,680 684,680 685,680 685,680 686,680 687,680 687,680 688,680 688,680 689,680 690,680 690,680 691,680 691,680 692,680 693,679 693,679 694,679 694,679 695,679 696,679 696,679 697,679 697,679 698,679 699,679 699,679 700,679 701,679 701,679 702,679 702,679 703,679 704,679 704,679 705,679 705,679 706,679 707,679 707,678 708,678 708,678 709,678 710,678 710,678 711,678 711,678 712,678 713,678 713,678 714,678 715,678 715,678 716,677 716,677 717,677 718,677 718,677 719,677 719,677 720,677 721,677 721,677 722,677 722,677 723,677 724,677 724,677 725,677 725,677 726,677 727,677 727,677 727,677 728,677 728,677 729,677 730,677 730,677 731,677 732,677 732,677 733,677 733,677 734,677 735,677 735,677 736,677 736,677 737,677 738,677 738,677 739,677 739,677 740,677 741,677 741,677 742,677 742,677 743,677 744,677 744,677 745,677 746,677 746,677 747,677 747,677 748,677 749,677 749,677 750,677 750,677 751,677 752,677 752,677 753,677 753,677 754,676 755,676 755,676 756,676 756,676 757,676 758,676 758,676 759,676 760,676 760,676 761,676 761,676 762,676 763,676 763,676 764,676 764,676 765,676 766,676 766,676 767,676 767,676 768,676 769,676 769,676 770,676 770,676 771,676 772,676 772,676 773,676 774,676 774,676 775,676 775,676 776,676 777,676 777,676 778,676 778,676 779,676 780,676 780,676 781,676 781,676 782,676 783,676 783,676 784,676 784,676 785,676 786,676 786,676 787,675 787,675 788,675 789,675 789,675 790,675 791,675 791,675 792,675 792,675 793,675 794,675 794,675 795,675 795,675 796,675 797,675 797,675 798,675 798,675 799,675 800,675 800,676 801,676 801,676 802,676 803,676 803,676 804,676 805,676 805,676 806,676 806,676 807,676 808,676 808,676 809,676 809,676 810,676 811,676 811,676 812,676 812,676 813,675 814,675 814,675 815,676 815,676 816,676 817,676 817,676 818,676 819,676 819,676 820,676 820,675 821,675 822,675 822,675 823,675 823,675 824,675 825,675 825,675 826,675 826,675 827,674 828,674 828,673 829,673 829,673 830,673 831,673 831,672 832,672 832,672 833,673 834,673 834,673 835,673 836,673 836,673 837,673 837,673 838,673 839,673 839,673 840,673 840,673 841,673 842,673 842,673 843,672 843,672 844,672 845,672 845,672 846,672 846,672 847,672 848,672 848,672 849,672 850,672 850,672 851,672 851,672 852,672 853,672 853,672 854,672 854,672 855,672 856,672 856,672 857,672 857,672 858,672 859,672 859,672 860,672 860,671 861,671 862,671 862,671 863,671 864,671 864,671 865,671 865,671 866,671 867,670 867,670 868,670 868,670 869,670 870,670 870,670 871,670 871,670 872,670 873,670 873,670 874,670 874,670 875,670 876,670 876,670 877,670 878,670 878,670 879,670 879,670 880,670 881,669 881,669 882,669 882,669 883,669 884,669 884,669 885,669 885,669 886,669 887,669 887,669 888,669 888,669 889,669 890,669 890,669 891,669 891,669 892,670 893,670 893,670 894,670 895,670 895,670 896,670 896,670 897,670 898,670 898,670 899,670 899,670 900,669 901,669 901,667 902,667 902,667 903,667 904,667 904,666 905,666 905,666 906,666 907,666 907,665 908,665 909,665 909,665 910,665 910,665 911,665 912,665 912,664 913,664 913,664 914,664 915,664 915,664 916,664 916,664 917,664 918,664 918,664 919,664 919,664 920,664 921,664 921,664 922,664 923,664 923,664 924,664 924,664 925,664 926,664 926,664 927,664 927,664 928,664 929,663 929,663 930,663 930,663 931,663 932,663 932,663 933,663 933,662 934,662 935,662 935,662 936,662 936,662 937,662 938,662 938,662 939,662 940,662 940,662 941,662 941,662 942,662 943,662 943,662 944,662 944,662 945,662 946,662 946,662 947,662 947,662 948,662 949,662 949,662 950,663 950,663 951,663 952,663 952,663 953,663 954,663 954,663 955,663 955,663 956,663 957,663 957,663 958,663 958,663 959,663 960,663 960,663 961,663 961,663 962,663 962,663 963,663 963,663 964,663 964,663 965,662 966,662 966,662 967,662 968,662 968,662 969,662 969,662 970,662 971,662 971,662 972,662 972,663 973,662 974,662 974,662 975,662 975,662 976,662 977,662 977,662 978,662 978,662 979,662 980,662 980,662 981,662 982,662 982,662 983,662 983,662 984,662 985,662 985,662 986,662 986,662 987,662 988,662 988,662 989,662 989,662 990,662 991,662 991,662 992,662 992,662 993,662 994,662 994,662 995,662 995,662 996,662 997,662 997,662 998,662 999,662 999,662 1000,662 1000,662 1001,662 1002,662 1002,662 1003,662 1003,662 1004,662 1005,662 1005,662 1006,662 1006,662 1007,662 1008,662 1008,662 1009,662 1009,662 1010,662 1011,662 1011,662 1012,662 1013,662 1013,662 1014,662 1014,662 1015,662 1016,662 1016,662 1017,662 1017,662 1018,662 1019,662 1019,662 1020,662 1020,662 1021,662 1022,662 1022,662 1023,662 1023,662 1024,662 1025,662 1025,662 1026,662 1027,662 1027,662 1028,662 1028,662 1029,662 1030,662 1030,662 1031,662 1031,662 1032,662 1033,662 1033,662 1034,662 1034,662 1035,662 1036,662 1036,662 1037,662 1037,662 1038,662 1039,662 1039,662 1040,662 1040,662 1041,662 1042,662 1042,662 1043,662 1044,662 1044,662 1045,662 1045,662 1046,663 1047,663 1047,663 1048,663 1048,663 1048,663 1048,663 1049,663 1050,663 1050,663 1050,663 1050,663 1051,663 1051,663 1051,663 1052,663 1052,663 1053,663 1053,663 1053,663 1053,663 1054,663 1054,663 1054,663 1054,663 1055,663 1055,663 1056,663 1056,663 1056,663 1056,662 1057,662 1057,662 1058,662 1058,662 1059,662 1059,662 1059,662 1060,662 1060,662 1061,662 1061,662 1061,662 1061,662 1062,662 1062,662 1062,662 1062,662 1063,662 1064,662 1064,662 1064,662 1064,662 1065,662 1065,662 1065,662 1065,662 1066,662 1066,662 1067,662 1067,662 1067,662 1067,662 1068,662 1068,662 1068,662 1068,662 1069,662 1070,662 1070,662 1070,662 1070,662 1071,662 1071,662 1072,662 1072,662 1072,662 1072,661 1073,661 1073,661 1073,661 1073,661 1074,661 1074,661 1075,661 1075,661 1075,661 1075,661 1076,661 1076,661 1076,661 1077,661 1078,661 1078,661 1078,661 1078,661 1079,661 1079,660 1079,660 1079,660 1080,660 1080,660 1081,660 1081,660 1081,660 1081,660 1082,660 1082,660 1082,660 1082,660 1083,660 1084,660 1084,660 1084,660 1084,660 1085,660 1085,660 1086,660 1086,660 1086,660 1086,660 1087,660 1087,660 1087,660 1088,660 1088,660 1089,660 1089,660 1089,660 1089,661 1090,661 1090,661 1090,661 1090,661 1091,661 1091,661 1092,661 1092,661 1092,661 1092,661 1093,661 1093,661 1093,661 1093,661 1094,661 1094,661 1095,661 1095,661 1095,661 1095,661 1096,661 1096,660 1096,660 1096,660 1097,660 1097,660 1098,660 1098,660 1098,659 1099,659 1099,659 1099,659 1099,659 1100,659 1100,659 1101,659 1101,659 1101,659 1101,659 1102,659 1102,659 1103,659 1103,659 1103,659 1103,659 1104,659 1104,659 1104,659 1105,659 1105,659 1106,659 1106,659 1106,659 1106,659 1107,659 1107,659 1107,659 1107,659 1108,659 1109,659 1109,659 1109,659 1110,659 1110,659 1110,659 1111,659 1111,659 1112,659 1112,659 1112,659 1112,659 1113,659 1113,659 1113,659 1113,659 1114,659 1114,659 1115,659 1115,658 1115,658 1115,658 1116,658 1116,658 1117,658 1117,658 1117,658 1118,658 1118,658 1118,658 1118,658 1119,658 1119,658 1120,658 1120,658 1120,658 1120,658 1121,658 1121,658 1121,658 1121,658 1122,658 1122,658 1123,658 1123,658 1123,658 1123,658 1124,658 1124,658 1124,658 1124,658 1125,658 1125,658 1126,658 1126,657 1126,657 1127,657 1127,657 1127,657 1127,657 1128,657 1128,657 1129,657 1129,657 1129,657 1129,657 1130,657 1130,657 1131,657 1131,657 1131,657 1132,657 1132,657 1132,657 1132,657 1133,657 1133,657 1134,657 1134,657 1134,657 1134,657 1135,657 1135,657 1135,657 1135,657 1136,657 1136,657 1137,657 1137,657 1137,657 1137,657 1138,657 1138,657 1138,657 1138,657 1139,657 1139,657 1140,657 1140,657 1140,657 1140,657 1141,657 1141,657 1141,657 1141,657 1142,657 1142,657 1143,657 1143,657 1143,657 1144,657 1144,657 1144,657 1144,657 1145,657 1145,657 1146,657 1146,657 1146,657 1146,657 1147,657 1147,657 1148,657 1148,657 1148,657 1148,657 1149,657 1149,657 1149,657 1149,657 1150,657 1150,657 1151,657 1151,657 1151,657 1151,657 1152,657 1152,657 1152,657 1152,657 1153,657 1153,657 1154,657 1154,657 1154,657 1154,657 1155,657 1155,657 1155,657 1155,656 1156,656 1156,657 1157,657 1157,657 1157,657 1157,657 1158,657 1158,657 1158,657 1158,657 1159,657 1159,657 1160,657 1160,657 1160,657 1161,657 1161,657 1162,657 1162,657 1162,657 1163,657 1163,657 1163,657 1163,656 1164,656 1164,656 1165,656 1165,656 1165,656 1165,656 1166,656 1166,656 1166,656 1166,656 1167,656 1167,656 1168,656 1168,656 1168,656 1169,656 1169,656 1169,656 1169,656 1170,656 1170,656 1171,656 1171,655 1171,655 1171,655 1172,655 1172,655 1172,655 1172,655 1173,655 1173,655 1174,655 1174,655 1174,655 1174,657 1175,657 1175,657 1176,657 1176,657 1176,657 1176,657 1177,657 1177,657 1177,657 1177,657 1178,657 1178,657 1179,657 1179,657 1179,657 1179,657 1180,657 1180,657 1180,657 1180,657 1181,657 1181,657 1182,657 1182,657 1182,657 1182,657 1183,657 1183,657 1183,657 1183,657 1184,657 1184,657 1185,657 1185,657 1185,657 1185,657 1186,657 1186,657 1186,657 1186,657 1187,657 1187,657 1188,657 1188,657 1188,657 1188,657 1189,657 1189,657 1190,657 "/>
<polyline fill="none" opacity="1" stroke="#5419E6" stroke-width="2" points="862,738 864,738 867,738 873,737 874,737 878,737 880,736 881,736 881,734 882,733 884,733 885,733 890,733 891,733 891,733 893,733 893,733 901,733 905,732 905,732 907,731 909,731 912,731 913,730 913,729 914,729 915,729 915,729 918,729 918,729 919,729 921,729 922,728 923,728 923,727 926,727 927,727 927,727 928,726 929,726 931,726 932,726 932,726 933,726 935,726 937,726 938,725 939,725 940,725 940,725 941,725 942,725 943,725 943,725 944,725 946,725 946,725 947,724 948,724 949,724 949,724 950,723 950,723 951,723 952,723 952,723 953,723 954,723 954,723 955,723 956,723 957,723 957,723 958,723 958,722 960,723 961,723 961,723 962,723 962,723 963,722 963,722 964,722 964,722 965,721 966,721 966,720 968,720 968,719 969,719 970,719 971,719 971,719 972,719 972,719 974,719 975,718 975,718 976,717 977,717 977,717 978,716 978,716 979,716 980,716 981,716 982,715 982,715 983,715 983,715 984,715 985,714 986,714 986,715 988,714 989,714 989,714 990,714 992,714 992,714 993,714 994,714 995,714 996,714 997,714 998,713 1000,713 1000,713 1001,713 1002,713 1002,713 1003,712 1003,712 1004,712 1005,712 1005,712 1006,712 1006,711 1007,711 1008,711 1008,711 1009,711 1009,711 1010,711 1011,711 1011,711 1012,711 1013,711 1013,710 1014,710 1014,710 1015,710 1016,710 1017,710 1017,710 1018,710 1019,709 1019,709 1020,709 1020,709 1021,708 1022,708 1023,708 1023,708 1024,708 1025,708 1025,708 1026,708 1027,708 1027,708 1028,707 1028,707 1029,707 1030,707 1030,707 1031,707 1031,707 1032,707 1033,707 1033,707 1034,706 1034,706 1035,706 1036,706 1036,706 1037,706 1037,706 1038,706 1039,706 1039,706 1040,706 1040,705 1041,705 1042,705 1043,705 1044,705 1044,705 1045,705 1045,705 1046,705 1047,705 1047,705 1048,705 1048,705 1048,705 1048,705 1049,705 1050,705 1050,705 1050,705 1050,705 1051,705 1051,705 1051,705 1052,705 1052,705 1053,705 1053,705 1053,705 1053,704 1054,704 1054,704 1054,704 1054,704 1055,704 1055,704 1056,704 1056,704 1056,704 1056,704 1057,704 1057,704 1058,704 1058,704 1058,703 1059,703 1059,703 1059,703 1060,703 1060,703 1061,703 1061,703 1061,703 1061,702 1062,702 1062,703 1062,703 1062,703 1063,702 1064,702 1064,702 1064,702 1064,702 1065,702 1065,702 1065,702 1065,702 1066,702 1066,702 1067,702 1067,702 1067,702 1067,702 1068,702 1068,702 1068,702 1068,702 1070,702 1070,702 1070,702 1070,702 1071,702 1071,702 1072,702 1072,702 1072,702 1072,702 1073,702 1073,702 1073,702 1073,702 1074,702 1074,702 1075,702 1075,702 1075,702 1075,702 1076,702 1076,702 1077,702 1078,702 1078,702 1078,702 1078,702 1079,702 1079,702 1079,702 1079,701 1080,701 1080,701 1081,701 1081,701 1081,701 1081,701 1082,701 1082,701 1082,701 1083,701 1084,701 1084,701 1084,701 1084,701 1085,701 1085,701 1086,701 1086,701 1086,701 1086,700 1087,700 1087,700 1087,700 1088,700 1088,700 1089,700 1089,700 1089,700 1089,700 1090,700 1090,700 1090,700 1090,700 1091,700 1091,700 1092,700 1092,700 1092,700 1093,700 1093,700 1093,700 1093,700 1094,700 1094,700 1095,700 1095,699 1095,699 1095,699 1096,699 1096,699 1096,699 1096,700 1097,700 1097,700 1098,700 1098,699 1098,699 1099,699 1099,699 1099,699 1099,699 1100,699 1100,699 1101,699 1101,699 1101,699 1101,699 1102,699 1102,699 1103,699 1103,700 1103,700 1103,700 1104,700 1104,700 1104,700 1105,699 1106,699 1106,699 1106,699 1106,699 1107,699 1107,699 1107,699 1107,699 1108,699 1109,699 1109,699 1109,699 1110,699 1110,699 1110,699 1111,699 1111,699 1112,699 1112,699 1112,699 1112,698 1113,698 1113,698 1113,698 1114,698 1114,698 1115,698 1115,698 1115,698 1115,698 1116,698 1116,698 1117,698 1117,698 1117,698 1118,698 1118,698 1118,698 1118,698 1119,698 1119,698 1120,698 1120,698 1120,698 1120,698 1121,698 1121,698 1121,698 1121,698 1122,698 1122,698 1123,698 1123,698 1123,698 1123,698 1124,698 1124,698 1124,698 1125,698 1125,698 1126,698 1126,698 1126,698 1127,698 1127,698 1127,698 1127,698 1128,698 1128,698 1129,698 1129,698 1129,698 1129,698 1130,698 1130,697 1131,697 1131,697 1131,697 1132,697 1132,697 1132,697 1132,697 1133,697 1133,697 1134,697 1134,697 1134,697 1134,697 1135,697 1135,697 1135,697 1135,697 1136,697 1136,697 1137,697 1137,697 1137,697 1137,697 1138,697 1138,697 1138,697 1138,697 1139,697 1139,697 1140,697 1140,697 1140,697 1140,697 1141,697 1141,697 1141,697 1141,697 1142,697 1142,697 1143,697 1143,697 1143,697 1144,697 1144,697 1144,697 1144,697 1145,697 1145,697 1146,697 1146,697 1146,697 1146,697 1147,697 1147,697 1148,697 1148,697 1148,697 1148,697 1149,697 1149,696 1149,696 1149,696 1150,696 1150,696 1151,696 1151,696 1151,696 1151,695 1152,695 1152,695 1152,695 1153,695 1153,695 1154,695 1154,695 1154,695 1154,695 1155,695 1155,695 1155,695 1155,694 1156,694 1156,694 1157,694 1157,694 1157,694 1157,694 1158,694 1158,694 1158,694 1158,694 1159,694 1159,694 1160,694 1160,694 1160,694 1161,694 1161,694 1162,694 1162,694 1163,693 1163,693 1163,693 1163,693 1165,693 1165,693 1165,693 1165,693 1166,693 1166,693 1166,693 1166,693 1167,693 1167,693 1168,693 1168,693 1168,693 1169,693 1169,693 1169,693 1169,693 1170,693 1170,693 1171,693 1171,693 1171,693 1171,693 1172,693 1172,693 1172,693 1173,693 1173,693 1174,693 1174,693 1174,693 1174,690 1175,690 1175,690 1176,690 1176,690 1176,690 1176,690 1177,690 1177,690 1177,690 1177,690 1178,690 1178,690 1179,690 1179,690 1179,690 1179,689 1180,689 1180,689 1180,689 1181,689 1181,689 1182,689 1182,692 1182,692 1182,692 1183,692 1183,691 1183,691 1183,691 1184,691 1184,691 1185,691 1185,691 1185,691 1185,691 1186,691 1186,690 1186,690 1186,690 1187,690 1187,690 1188,690 1188,690 1188,690 1188,690 1189,690 1189,690 1190,690 "/>
<polyline fill="none" opacity="1" stroke="#E619C8" stroke-width="2" points="957,738 958,737 958,737 959,737 960,736 961,735 961,735 962,735 962,735 963,735 963,735 964,734 964,734 965,734 966,734 966,734 967,734 968,733 968,733 969,732 969,732 970,731 971,731 972,730 972,729 973,728 974,728 974,727 975,726 975,725 976,725 977,725 977,724 978,724 978,724 979,724 980,721 980,720 981,719 982,718 982,717 983,717 983,717 984,717 985,717 985,716 986,716 986,715 987,715 988,715 988,715 989,715 989,715 990,714 991,714 991,714 992,713 992,712 993,713 994,712 994,711 995,711 995,710 996,709 997,707 997,707 998,707 999,707 999,707 1000,707 1000,707 1001,704 1002,703 1002,703 1003,701 1003,700 1004,700 1005,699 1005,698 1006,698 1006,698 1007,697 1008,697 1008,696 1009,695 1009,695 1010,694 1011,693 1011,691 1012,690 1013,689 1013,689 1014,688 1014,687 1015,687 1016,686 1016,686 1017,683 1017,682 1018,681 1019,680 1019,680 1020,679 1020,679 1021,679 1022,678 1022,676 1023,675 1023,674 1024,673 1025,672 1025,671 1026,670 1027,670 1027,670 1028,669 1028,669 1029,669 1030,668 1030,667 1031,666 1031,666 1032,665 1033,665 1033,665 1034,664 1034,664 1035,662 1036,662 1036,661 1037,662 1037,660 1038,659 1039,658 1039,657 1040,657 1040,657 1041,657 1042,655 1042,654 1043,654 1044,653 1044,652 1045,650 1045,649 1046,647 1047,647 1047,646 1048,646 1048,645 1048,645 1048,645 1049,644 1050,644 1050,643 1050,643 1050,642 1051,641 1051,641 1051,640 1052,640 1052,637 1053,637 1053,636 1053,636 1053,635 1054,635 1054,633 1054,633 1054,632 1055,632 1055,631 1056,631 1056,631 1056,631 1056,630 1057,630 1057,629 1058,627 1058,627 1058,627 1059,626 1059,626 1059,626 1060,626 1060,625 1061,625 1061,624 1061,624 1061,624 1062,624 1062,623 1062,623 1062,623 1063,622 1064,622 1064,622 1064,622 1064,620 1065,620 1065,619 1065,619 1065,618 1066,618 1066,617 1067,617 1067,617 1067,617 1067,616 1068,616 1068,613 1068,613 1068,611 1069,608 1070,608 1070,606 1070,606 1070,604 1071,604 1071,604 1072,604 1072,603 1072,603 1072,600 1073,600 1073,599 1073,599 1073,598 1074,598 1074,597 1075,597 1075,596 1075,596 1075,595 1076,595 1076,593 1076,593 1077,592 1078,592 1078,590 1078,590 1078,588 1079,588 1079,587 1079,587 1079,587 1080,587 1080,586 1081,586 1081,585 1081,585 1081,584 1082,584 1082,582 1082,582 1082,580 1083,578 1084,578 1084,578 1084,578 1084,576 1085,576 1085,573 1086,573 1086,572 1086,572 1086,571 1087,570 1087,570 1087,567 1088,567 1088,565 1089,565 1089,563 1089,563 1089,561 1090,561 1090,561 1090,561 1090,560 1091,560 1091,559 1092,559 1092,557 1092,557 1092,551 1093,551 1093,549 1093,549 1093,547 1094,547 1094,546 1095,546 1095,545 1095,545 1095,544 1096,544 1096,542 1096,542 1096,539 1097,539 1097,537 1098,537 1098,535 1098,534 1099,534 1099,533 1099,533 1099,531 1100,531 1100,530 1101,530 1101,527 1101,527 1101,526 1102,526 1102,524 1103,524 1103,523 1103,523 1103,521 1104,521 1104,520 1104,518 1105,518 1105,518 1106,518 1106,516 1106,516 1106,514 1107,514 1107,512 1107,512 1107,510 1108,508 1109,505 1109,505 1109,504 1110,502 1110,502 1110,501 1111,501 1111,500 1112,500 1112,496 1112,496 1112,495 1113,495 1113,494 1113,494 1113,491 1114,491 1114,490 1115,490 1115,488 1115,488 1115,487 1116,487 1116,486 1117,485 1117,485 1117,484 1118,484 1118,481 1118,481 1118,478 1119,478 1119,478 1120,478 1120,476 1120,476 1120,475 1121,475 1121,474 1121,474 1121,472 1122,472 1122,471 1123,471 1123,470 1123,470 1123,468 1124,468 1124,468 1124,468 1124,466 1125,466 1125,465 1126,465 1126,465 1126,463 1127,463 1127,461 1127,461 1127,458 1128,458 1128,456 1129,456 1129,456 1129,456 1129,455 1130,455 1130,454 1131,454 1131,452 1131,448 1132,448 1132,446 1132,446 1132,445 1133,445 1133,443 1134,443 1134,442 1134,442 1134,442 1135,442 1135,442 1135,442 1135,439 1136,439 1136,438 1137,438 1137,437 1137,437 1137,436 1138,436 1138,435 1138,435 1138,434 1139,434 1139,432 1140,432 1140,431 1140,431 1140,428 1141,428 1141,427 1141,427 1141,425 1142,425 1142,422 1143,421 1143,421 1143,418 1144,418 1144,417 1144,417 1144,415 1145,415 1145,412 1146,412 1146,411 1146,411 1146,407 1147,407 1147,406 1148,406 1148,404 1148,404 1148,402 1149,402 1149,400 1149,400 1149,399 1150,399 1150,394 1151,394 1151,393 1151,393 1151,391 1152,391 1152,389 1152,389 1152,388 1153,388 1153,386 1154,386 1154,383 1154,383 1154,382 1155,382 1155,380 1155,380 1155,379 1156,379 1156,376 1157,376 1157,374 1157,374 1157,371 1158,371 1158,369 1158,369 1158,368 1159,368 1159,368 1160,365 1160,365 1160,363 1161,363 1161,360 1162,357 1162,357 1162,356 1163,356 1163,355 1163,355 1163,353 1164,353 1164,351 1165,351 1165,349 1165,349 1165,346 1166,346 1166,345 1166,345 1166,344 1167,344 1167,344 1168,344 1168,343 1168,343 1169,343 1169,340 1169,340 1169,338 1170,338 1170,336 1171,336 1171,336 1171,336 1171,335 1172,335 1172,333 1172,333 1172,332 1173,332 1173,331 1174,331 1174,329 1174,328 1174,327 1175,327 1175,325 1176,325 1176,322 1176,322 1176,321 1177,321 1177,321 1177,321 1177,320 1178,320 1178,316 1179,316 1179,314 1179,314 1179,312 1180,312 1180,312 1180,312 1180,310 1181,310 1181,308 1182,308 1182,304 1182,304 1182,303 1183,303 1183,301 1183,301 1183,299 1184,299 1184,297 1185,297 1185,295 1185,295 1185,294 1186,294 1186,291 1186,291 1186,290 1187,290 1187,290 1188,290 1188,288 1188,288 1188,284 1189,284 1189,282 1190,282 "/>
<rect x="1078" y="315" width="107" height="119" opacity="1" fill="#FFFFFF" stroke="none"/>
<rect x="1078" y="315" width="107" height="119" opacity="1" fill="none" stroke="#000000"/>
<text x="1118" y="325" dy="0.76em" text-anchor="start" font-family="sans-serif" font-size="9.67741935483871" opacity="1" fill="#000000">
anyhow
</text>
<text x="1118" y="340" dy="0.76em" text-anchor="start" font-family="sans-serif" font-size="9.67741935483871" opacity="1" fill="#000000">
err-derive
</text>
<text x="1118" y="355" dy="0.76em" text-anchor="start" font-family="sans-serif" font-size="9.67741935483871" opacity="1" fill="#000000">
error-chain
</text>
<text x="1118" y="370" dy="0.76em" text-anchor="start" font-family="sans-serif" font-size="9.67741935483871" opacity="1" fill="#000000">
failure
</text>
<text x="1118" y="385" dy="0.76em" text-anchor="start" font-family="sans-serif" font-size="9.67741935483871" opacity="1" fill="#000000">
quick-error
</text>
<text x="1118" y="400" dy="0.76em" text-anchor="start" font-family="sans-serif" font-size="9.67741935483871" opacity="1" fill="#000000">
snafu
</text>
<text x="1118" y="415" dy="0.76em" text-anchor="start" font-family="sans-serif" font-size="9.67741935483871" opacity="1" fill="#000000">
thiserror
</text>
<polyline fill="none" opacity="1" stroke="#E61919" stroke-width="2" points="1088,330 1108,330 "/>
<polyline fill="none" opacity="1" stroke="#E6C819" stroke-width="2" points="1088,344 1108,344 "/>
<polyline fill="none" opacity="1" stroke="#54E619" stroke-width="2" points="1088,359 1108,359 "/>
<polyline fill="none" opacity="1" stroke="#19E68E" stroke-width="2" points="1088,374 1108,374 "/>
<polyline fill="none" opacity="1" stroke="#198EE6" stroke-width="2" points="1088,390 1108,390 "/>
<polyline fill="none" opacity="1" stroke="#5419E6" stroke-width="2" points="1088,404 1108,404 "/>
<polyline fill="none" opacity="1" stroke="#E619C8" stroke-width="2" points="1088,419 1108,419 "/>
</svg>
