<svg width="1200" height="800" xmlns="http://www.w3.org/2000/svg">
<rect x="0" y="0" width="1199" height="799" opacity="1" fill="#FFFFFF" stroke="none"/>
<line opacity="0.1" stroke="#000000" stroke-width="1" x1="60" y1="723" x2="1190" y2="723"/>
<line opacity="0.1" stroke="#000000" stroke-width="1" x1="60" y1="708" x2="1190" y2="708"/>
<line opacity="0.1" stroke="#000000" stroke-width="1" x1="60" y1="692" x2="1190" y2="692"/>
<line opacity="0.1" stroke="#000000" stroke-width="1" x1="60" y1="677" x2="1190" y2="677"/>
<line opacity="0.1" stroke="#000000" stroke-width="1" x1="60" y1="661" x2="1190" y2="661"/>
<line opacity="0.1" stroke="#000000" stroke-width="1" x1="60" y1="646" x2="1190" y2="646"/>
<line opacity="0.1" stroke="#000000" stroke-width="1" x1="60" y1="630" x2="1190" y2="630"/>
<line opacity="0.1" stroke="#000000" stroke-width="1" x1="60" y1="615" x2="1190" y2="615"/>
<line opacity="0.1" stroke="#000000" stroke-width="1" x1="60" y1="599" x2="1190" y2="599"/>
<line opacity="0.1" stroke="#000000" stroke-width="1" x1="60" y1="584" x2="1190" y2="584"/>
<line opacity="0.1" stroke="#000000" stroke-width="1" x1="60" y1="568" x2="1190" y2="568"/>
<line opacity="0.1" stroke="#000000" stroke-width="1" x1="60" y1="553" x2="1190" y2="553"/>
<line opacity="0.1" stroke="#000000" stroke-width="1" x1="60" y1="537" x2="1190" y2="537"/>
<line opacity="0.1" stroke="#000000" stroke-width="1" x1="60" y1="522" x2="1190" y2="522"/>
<line opacity="0.1" stroke="#000000" stroke-width="1" x1="60" y1="506" x2="1190" y2="506"/>
<line opacity="0.1" stroke="#000000" stroke-width="1" x1="60" y1="491" x2="1190" y2="491"/>
<line opacity="0.1" stroke="#000000" stroke-width="1" x1="60" y1="475" x2="1190" y2="475"/>
<line opacity="0.1" stroke="#000000" stroke-width="1" x1="60" y1="460" x2="1190" y2="460"/>
<line opacity="0.1" stroke="#000000" stroke-width="1" x1="60" y1="444" x2="1190" y2="444"/>
<line opacity="0.1" stroke="#000000" stroke-width="1" x1="60" y1="429" x2="1190" y2="429"/>
<line opacity="0.1" stroke="#000000" stroke-width="1" x1="60" y1="413" x2="1190" y2="413"/>
<line opacity="0.1" stroke="#000000" stroke-width="1" x1="60" y1="398" x2="1190" y2="398"/>
<line opacity="0.1" stroke="#000000" stroke-width="1" x1="60" y1="382" x2="1190" y2="382"/>
<line opacity="0.1" stroke="#000000" stroke-width="1" x1="60" y1="367" x2="1190" y2="367"/>
<line opacity="0.1" stroke="#000000" stroke-width="1" x1="60" y1="351" x2="1190" y2="351"/>
<line opacity="0.1" stroke="#000000" stroke-width="1" x1="60" y1="335" x2="1190" y2="335"/>
<line opacity="0.1" stroke="#000000" stroke-width="1" x1="60" y1="320" x2="1190" y2="320"/>
<line opacity="0.1" stroke="#000000" stroke-width="1" x1="60" y1="304" x2="1190" y2="304"/>
<line opacity="0.1" stroke="#000000" stroke-width="1" x1="60" y1="289" x2="1190" y2="289"/>
<line opacity="0.1" stroke="#000000" stroke-width="1" x1="60" y1="273" x2="1190" y2="273"/>
<line opacity="0.1" stroke="#000000" stroke-width="1" x1="60" y1="258" x2="1190" y2="258"/>
<line opacity="0.1" stroke="#000000" stroke-width="1" x1="60" y1="242" x2="1190" y2="242"/>
<line opacity="0.1" stroke="#000000" stroke-width="1" x1="60" y1="227" x2="1190" y2="227"/>
<line opacity="0.1" stroke="#000000" stroke-width="1" x1="60" y1="211" x2="1190" y2="211"/>
<line opacity="0.1" stroke="#000000" stroke-width="1" x1="60" y1="196" x2="1190" y2="196"/>
<line opacity="0.1" stroke="#000000" stroke-width="1" x1="60" y1="180" x2="1190" y2="180"/>
<line opacity="0.1" stroke="#000000" stroke-width="1" x1="60" y1="165" x2="1190" y2="165"/>
<line opacity="0.1" stroke="#000000" stroke-width="1" x1="60" y1="149" x2="1190" y2="149"/>
<line opacity="0.1" stroke="#000000" stroke-width="1" x1="60" y1="134" x2="1190" y2="134"/>
<line opacity="0.1" stroke="#000000" stroke-width="1" x1="60" y1="118" x2="1190" y2="118"/>
<line opacity="0.1" stroke="#000000" stroke-width="1" x1="60" y1="103" x2="1190" y2="103"/>
<line opacity="0.1" stroke="#000000" stroke-width="1" x1="60" y1="87" x2="1190" y2="87"/>
<line opacity="0.1" stroke="#000000" stroke-width="1" x1="60" y1="72" x2="1190" y2="72"/>
<line opacity="0.1" stroke="#000000" stroke-width="1" x1="60" y1="56" x2="1190" y2="56"/>
<line opacity="0.1" stroke="#000000" stroke-width="1" x1="60" y1="41" x2="1190" y2="41"/>
<line opacity="0.1" stroke="#000000" stroke-width="1" x1="60" y1="25" x2="1190" y2="25"/>
<line opacity="0.1" stroke="#000000" stroke-width="1" x1="60" y1="10" x2="1190" y2="10"/>
<text x="10" y="375" dy="0.76em" text-anchor="middle" font-family="sans-serif" font-size="9.67741935483871" opacity="1" fill="#000000" transform="rotate(270, 10, 375)">
Number of dependent crates
</text>
<line opacity="0.2" stroke="#000000" stroke-width="1" x1="60" y1="584" x2="1190" y2="584"/>
<line opacity="0.2" stroke="#000000" stroke-width="1" x1="60" y1="429" x2="1190" y2="429"/>
<line opacity="0.2" stroke="#000000" stroke-width="1" x1="60" y1="273" x2="1190" y2="273"/>
<line opacity="0.2" stroke="#000000" stroke-width="1" x1="60" y1="118" x2="1190" y2="118"/>
<polyline fill="none" opacity="1" stroke="#000000" stroke-width="1" points="59,10 59,740 "/>
<text x="50" y="584" dy="0.5ex" text-anchor="end" font-family="sans-serif" font-size="9.67741935483871" opacity="1" fill="#000000">
500
</text>
<polyline fill="none" opacity="1" stroke="#000000" stroke-width="1" points="54,584 59,584 "/>
<text x="50" y="429" dy="0.5ex" text-anchor="end" font-family="sans-serif" font-size="9.67741935483871" opacity="1" fill="#000000">
1000
</text>
<polyline fill="none" opacity="1" stroke="#000000" stroke-width="1" points="54,429 59,429 "/>
<text x="50" y="273" dy="0.5ex" text-anchor="end" font-family="sans-serif" font-size="9.67741935483871" opacity="1" fill="#000000">
1500
</text>
<polyline fill="none" opacity="1" stroke="#000000" stroke-width="1" points="54,273 59,273 "/>
<text x="50" y="118" dy="0.5ex" text-anchor="end" font-family="sans-serif" font-size="9.67741935483871" opacity="1" fill="#000000">
2000
</text>
<polyline fill="none" opacity="1" stroke="#000000" stroke-width="1" points="54,118 59,118 "/>
<polyline fill="none" opacity="1" stroke="#000000" stroke-width="1" points="60,740 1190,740 "/>
<text x="60" y="750" dy="0.76em" text-anchor="middle" font-family="sans-serif" font-size="9.67741935483871" opacity="1" fill="#000000">
2015-09-24Z
</text>
<polyline fill="none" opacity="1" stroke="#000000" stroke-width="1" points="60,740 60,745 "/>
<text x="176" y="750" dy="0.76em" text-anchor="middle" font-family="sans-serif" font-size="9.67741935483871" opacity="1" fill="#000000">
2016-03-31Z
</text>
<polyline fill="none" opacity="1" stroke="#000000" stroke-width="1" points="176,740 176,745 "/>
<text x="293" y="750" dy="0.76em" text-anchor="middle" font-family="sans-serif" font-size="9.67741935483871" opacity="1" fill="#000000">
2016-10-06Z
</text>
<polyline fill="none" opacity="1" stroke="#000000" stroke-width="1" points="293,740 293,745 "/>
<text x="410" y="750" dy="0.76em" text-anchor="middle" font-family="sans-serif" font-size="9.67741935483871" opacity="1" fill="#000000">
2017-04-13Z
</text>
<polyline fill="none" opacity="1" stroke="#000000" stroke-width="1" points="410,740 410,745 "/>
<text x="526" y="750" dy="0.76em" text-anchor="middle" font-family="sans-serif" font-size="9.67741935483871" opacity="1" fill="#000000">
2017-10-19Z
</text>
<polyline fill="none" opacity="1" stroke="#000000" stroke-width="1" points="526,740 526,745 "/>
<text x="643" y="750" dy="0.76em" text-anchor="middle" font-family="sans-serif" font-size="9.67741935483871" opacity="1" fill="#000000">
2018-04-26Z
</text>
<polyline fill="none" opacity="1" stroke="#000000" stroke-width="1" points="643,740 643,745 "/>
<text x="760" y="750" dy="0.76em" text-anchor="middle" font-family="sans-serif" font-size="9.67741935483871" opacity="1" fill="#000000">
2018-11-01Z
</text>
<polyline fill="none" opacity="1" stroke="#000000" stroke-width="1" points="760,740 760,745 "/>
<text x="876" y="750" dy="0.76em" text-anchor="middle" font-family="sans-serif" font-size="9.67741935483871" opacity="1" fill="#000000">
2019-05-09Z
</text>
<polyline fill="none" opacity="1" stroke="#000000" stroke-width="1" points="876,740 876,745 "/>
<text x="993" y="750" dy="0.76em" text-anchor="middle" font-family="sans-serif" font-size="9.67741935483871" opacity="1" fill="#000000">
2019-11-14Z
</text>
<polyline fill="none" opacity="1" stroke="#000000" stroke-width="1" points="993,740 993,745 "/>
<text x="1110" y="750" dy="0.76em" text-anchor="middle" font-family="sans-serif" font-size="9.67741935483871" opacity="1" fill="#000000">
2020-05-21Z
</text>
<polyline fill="none" opacity="1" stroke="#000000" stroke-width="1" points="1110,740 1110,745 "/>
<polyline fill="none" opacity="1" stroke="#E61919" stroke-width="2" points="970,738 971,738 972,738 972,738 973,738 973,738 975,738 975,737 976,737 976,737 976,737 977,737 978,736 978,736 979,736 980,736 980,735 981,735 981,734 982,734 983,734 983,734 984,732 985,732 986,732 986,731 987,730 988,730 988,728 989,724 989,724 990,724 991,724 991,723 992,723 993,723 993,721 994,718 994,717 995,717 996,716 996,716 997,715 997,715 998,714 999,714 999,712 1000,712 1001,711 1001,711 1002,711 1002,711 1003,710 1004,710 1004,708 1005,708 1005,707 1006,707 1007,707 1007,707 1008,707 1009,705 1009,705 1010,704 1010,704 1011,704 1012,703 1012,703 1013,703 1014,702 1014,702 1015,702 1015,701 1016,701 1017,701 1017,700 1018,699 1018,699 1019,698 1020,698 1020,698 1021,698 1022,696 1022,695 1023,695 1023,693 1024,692 1025,691 1025,691 1026,690 1026,690 1027,688 1028,687 1028,685 1029,685 1030,684 1030,682 1031,680 1031,680 1032,680 1033,679 1033,679 1034,678 1035,678 1035,678 1036,677 1036,677 1037,674 1038,673 1038,672 1039,672 1039,671 1040,671 1041,670 1041,670 1042,670 1043,670 1043,667 1044,667 1044,666 1045,666 1046,664 1046,663 1047,662 1047,662 1048,662 1049,661 1049,661 1050,661 1051,660 1051,659 1052,658 1052,657 1053,657 1054,656 1054,656 1055,656 1056,656 1056,655 1057,654 1057,653 1058,653 1059,652 1059,652 1060,650 1060,650 1061,649 1062,649 1062,649 1063,649 1063,649 1064,649 1064,648 1064,647 1065,646 1065,646 1065,646 1065,645 1066,645 1067,645 1067,642 1067,642 1067,637 1068,637 1068,637 1068,637 1068,635 1069,635 1069,635 1070,635 1070,634 1070,634 1070,633 1071,633 1071,632 1072,632 1072,631 1072,631 1072,631 1073,630 1073,630 1073,629 1074,628 1075,628 1075,627 1075,627 1075,626 1076,626 1076,625 1077,625 1077,625 1077,625 1077,623 1078,623 1078,623 1078,623 1079,623 1079,622 1080,622 1080,622 1080,622 1080,621 1081,621 1081,619 1081,619 1081,619 1082,619 1082,617 1083,617 1083,616 1083,616 1083,614 1084,614 1084,612 1085,609 1085,609 1085,608 1086,608 1086,606 1086,606 1086,605 1087,605 1087,604 1088,604 1088,604 1088,604 1088,603 1089,602 1089,601 1089,601 1089,598 1090,598 1090,598 1091,598 1091,596 1091,596 1091,595 1092,594 1093,593 1093,593 1093,593 1094,593 1094,591 1094,591 1094,589 1095,589 1095,589 1096,589 1096,589 1096,589 1096,588 1097,588 1097,586 1097,586 1097,586 1098,586 1098,586 1099,584 1099,584 1099,581 1100,581 1100,580 1101,580 1101,579 1101,579 1101,577 1102,577 1102,574 1102,574 1103,574 1103,573 1104,573 1104,572 1104,572 1104,569 1105,569 1105,567 1106,567 1106,565 1106,565 1106,565 1107,565 1107,564 1107,564 1107,562 1108,562 1108,557 1109,557 1109,554 1109,554 1109,551 1110,551 1110,549 1110,549 1110,548 1111,548 1111,547 1112,547 1112,545 1112,545 1112,542 1113,542 1113,541 1114,541 1114,541 1114,540 1115,540 1115,537 1115,537 1115,534 1116,534 1116,532 1117,532 1117,530 1117,530 1117,528 1118,528 1118,528 1118,528 1118,527 1119,527 1119,524 1120,524 1120,522 1120,520 1121,520 1121,517 1122,517 1122,515 1122,515 1122,514 1123,514 1123,512 1123,512 1123,510 1124,508 1125,506 1125,506 1125,505 1126,504 1127,504 1127,503 1127,503 1127,501 1128,501 1128,500 1128,500 1128,498 1129,498 1129,498 1130,498 1130,496 1130,496 1130,496 1131,496 1131,495 1131,495 1131,494 1132,494 1132,493 1133,492 1133,492 1133,492 1134,492 1134,490 1135,490 1135,487 1135,487 1135,486 1136,486 1136,485 1136,485 1136,484 1137,484 1137,483 1138,483 1138,480 1138,480 1138,479 1139,479 1139,478 1139,478 1139,477 1140,477 1140,476 1141,476 1141,475 1141,475 1141,474 1142,474 1142,473 1143,471 1143,471 1143,471 1144,470 1144,470 1144,470 1144,469 1145,469 1145,468 1146,468 1146,467 1146,467 1146,466 1147,466 1147,463 1148,462 1148,462 1148,461 1149,461 1149,460 1149,460 1149,458 1150,458 1150,458 1151,458 1151,456 1151,456 1151,454 1152,454 1152,452 1152,452 1152,452 1153,452 1153,450 1154,450 1154,449 1154,449 1154,448 1155,448 1155,445 1156,445 1156,443 1156,443 1156,442 1157,442 1157,441 1157,441 1157,438 1158,438 1158,437 1159,437 1159,434 1159,434 1160,434 1160,431 1160,431 1160,429 1161,429 1161,426 1162,426 1162,424 1162,424 1162,422 1163,422 1163,419 1164,419 1164,418 1164,418 1164,416 1165,416 1165,414 1165,414 1165,412 1166,412 1166,411 1167,411 1167,409 1167,409 1167,408 1168,408 1168,407 1169,407 1169,404 1169,404 1169,403 1170,403 1170,402 1170,402 1170,402 1171,402 1171,399 1172,399 1172,397 1172,397 1172,395 1173,395 1173,392 1173,392 1173,389 1174,389 1174,381 1175,381 1175,378 1175,378 1175,378 1176,377 1176,376 1177,375 1177,375 1177,374 1178,374 1178,372 1178,369 1179,369 1179,368 1180,368 1180,366 1180,366 1180,365 1181,365 1181,362 1181,362 1181,361 1182,361 1182,358 1183,358 1183,355 1183,355 1183,354 1184,354 1184,349 1185,349 1185,349 1185,347 1186,347 1186,345 1186,345 1186,343 1187,343 1187,341 1188,340 1188,340 1188,340 1188,339 1189,339 1189,339 1190,339 "/>
<polyline fill="none" opacity="1" stroke="#E6C819" stroke-width="2" points="796,738 802,738 807,738 810,737 831,737 838,737 852,736 853,736 855,735 857,735 860,735 861,735 862,735 863,735 863,734 864,734 868,734 868,734 869,734 870,734 872,734 873,734 873,734 874,734 875,734 876,734 876,734 877,734 878,734 878,734 879,733 880,733 881,733 882,733 884,733 884,733 885,733 886,733 886,733 888,733 888,733 889,733 890,733 891,733 892,733 892,733 893,733 894,733 895,733 896,733 897,733 898,733 899,733 900,732 901,732 901,732 902,732 902,732 903,731 904,731 904,731 905,731 905,731 906,731 907,731 907,731 908,731 909,731 909,730 910,730 910,730 911,730 912,730 912,730 913,730 913,730 914,730 915,730 915,730 917,730 917,730 918,730 918,729 919,729 920,729 920,729 921,730 922,730 922,730 923,730 923,729 925,729 925,729 926,729 926,729 927,729 928,729 929,729 930,729 930,729 931,729 931,729 932,729 933,729 933,729 934,729 934,729 935,729 936,729 936,729 937,729 938,729 938,729 939,729 939,729 940,729 941,728 942,728 943,728 943,728 944,728 944,728 945,728 946,728 946,728 947,728 947,727 948,727 949,727 949,727 950,726 951,726 951,726 952,726 952,726 953,726 954,726 954,726 955,726 955,726 956,726 957,726 957,726 958,726 959,726 959,726 960,726 960,726 961,726 962,726 963,726 964,726 964,726 965,726 966,726 967,725 967,725 968,725 969,725 970,725 970,725 971,725 972,725 972,725 973,725 974,725 975,725 975,725 976,725 976,725 976,725 977,725 978,725 978,725 979,725 980,725 981,725 981,725 982,725 983,725 983,725 984,725 984,725 985,725 986,725 986,725 987,725 988,725 988,725 989,725 989,725 990,724 991,724 991,724 992,724 993,724 994,724 994,724 995,724 996,724 996,724 997,724 997,724 998,724 999,724 999,724 1000,724 1001,724 1001,724 1002,724 1002,724 1003,724 1004,724 1005,724 1005,724 1006,724 1007,724 1007,724 1008,724 1009,724 1009,724 1010,724 1010,724 1011,724 1012,724 1012,724 1013,724 1014,724 1014,724 1015,724 1015,724 1016,724 1017,724 1018,724 1018,724 1019,724 1020,724 1020,724 1021,724 1022,724 1022,724 1023,724 1023,724 1024,724 1025,724 1026,724 1026,724 1027,724 1028,724 1028,724 1029,724 1030,724 1030,724 1031,724 1031,723 1032,723 1033,723 1033,724 1034,723 1035,723 1035,723 1036,723 1036,723 1037,723 1038,723 1038,723 1039,723 1039,723 1040,723 1041,723 1041,723 1042,723 1043,723 1043,723 1044,723 1044,722 1045,722 1046,721 1046,721 1047,721 1047,721 1048,721 1049,721 1049,722 1050,722 1051,721 1051,721 1052,721 1052,721 1053,721 1054,721 1054,721 1055,721 1056,720 1057,720 1057,720 1058,720 1059,720 1059,720 1060,721 1060,721 1061,720 1062,720 1062,720 1063,720 1063,721 1064,721 1064,721 1064,721 1065,721 1065,720 1065,720 1065,721 1066,721 1067,721 1067,721 1067,721 1067,721 1068,721 1068,721 1068,721 1068,721 1069,721 1069,721 1070,721 1070,721 1070,721 1070,721 1071,721 1071,721 1072,721 1072,721 1072,721 1072,720 1073,720 1073,720 1073,720 1074,720 1075,720 1075,720 1075,720 1075,720 1076,720 1076,720 1077,720 1077,720 1077,720 1077,720 1078,720 1078,720 1078,720 1079,720 1079,720 1080,720 1080,720 1080,720 1080,720 1081,720 1081,720 1081,720 1081,720 1082,720 1082,720 1083,720 1083,720 1083,720 1083,720 1084,720 1084,720 1085,720 1085,720 1085,720 1086,720 1086,720 1086,720 1086,720 1087,720 1087,720 1088,720 1088,720 1088,720 1088,720 1089,720 1089,720 1089,720 1089,720 1090,720 1090,720 1091,720 1091,720 1091,720 1091,720 1092,720 1093,720 1093,720 1093,720 1094,720 1094,719 1094,719 1094,719 1095,719 1095,719 1096,719 1096,719 1096,719 1096,719 1097,719 1097,719 1097,719 1097,719 1098,719 1098,719 1099,719 1099,719 1099,719 1100,719 1100,719 1101,719 1101,719 1101,719 1102,719 1102,719 1102,719 1103,719 1103,719 1104,719 1104,719 1104,719 1104,719 1105,719 1105,719 1106,719 1106,719 1106,719 1106,719 1107,719 1107,719 1107,719 1107,719 1108,719 1108,719 1109,719 1109,719 1109,719 1109,719 1110,719 1110,719 1110,719 1110,719 1111,719 1111,719 1112,719 1112,719 1112,719 1112,719 1113,719 1113,719 1114,719 1114,719 1114,719 1115,719 1115,719 1115,719 1115,719 1116,719 1116,719 1117,719 1117,719 1117,719 1117,719 1118,719 1118,719 1118,719 1118,719 1119,719 1119,719 1120,719 1120,719 1120,719 1121,719 1121,719 1122,719 1122,719 1122,719 1122,719 1123,719 1123,719 1123,719 1123,719 1124,719 1125,719 1125,719 1125,719 1126,719 1127,719 1127,719 1127,719 1127,719 1128,719 1128,719 1128,719 1128,719 1129,719 1129,719 1130,719 1130,719 1130,719 1130,719 1131,719 1131,719 1131,719 1131,719 1132,719 1132,719 1133,719 1133,719 1133,719 1134,719 1134,719 1135,719 1135,719 1135,719 1135,719 1136,719 1136,719 1136,719 1136,719 1137,719 1137,719 1138,719 1138,719 1138,719 1138,719 1139,719 1139,719 1139,719 1139,719 1140,719 1140,719 1141,719 1141,719 1141,719 1141,719 1142,719 1142,719 1143,719 1143,719 1143,719 1144,719 1144,719 1144,719 1144,719 1145,719 1145,719 1146,719 1146,719 1146,719 1147,719 1147,719 1148,719 1148,719 1148,719 1149,719 1149,719 1149,719 1149,719 1150,719 1150,719 1151,719 1151,719 1151,719 1151,719 1152,719 1152,719 1152,719 1152,719 1153,719 1153,719 1154,719 1154,719 1154,719 1154,719 1155,719 1155,719 1156,719 1156,719 1156,719 1156,719 1157,719 1157,719 1157,719 1157,719 1158,719 1158,719 1159,719 1159,719 1159,719 1160,719 1160,719 1160,719 1160,719 1161,719 1161,719 1162,719 1162,719 1162,719 1162,719 1163,719 1163,719 1164,719 1164,719 1164,719 1164,719 1165,719 1165,719 1165,719 1165,719 1166,719 1166,719 1167,719 1167,719 1167,719 1167,719 1168,719 1168,719 1169,719 1169,719 1169,719 1169,719 1170,719 1170,719 1170,719 1170,719 1171,719 1171,719 1172,719 1172,719 1172,719 1172,719 1173,719 1173,719 1173,719 1174,719 1174,719 1175,719 1175,719 1175,719 1175,719 1176,719 1176,719 1177,719 1177,719 1177,719 1178,719 1178,718 1178,718 1179,718 1179,718 1180,718 1180,718 1180,718 1180,718 1181,718 1181,718 1181,718 1181,718 1182,718 1182,718 1183,718 1183,718 1183,718 1183,718 1184,718 1184,718 1185,718 1185,718 1185,718 1186,718 1186,718 1186,718 1186,718 1187,718 1187,718 1188,718 1188,718 1188,718 1188,718 1189,718 1189,718 1190,718 "/>
<polyline fill="none" opacity="1" stroke="#54E619" stroke-width="2" points="227,738 227,738 232,738 237,738 244,738 245,737 245,737 250,737 261,736 262,736 263,736 268,735 269,735 270,734 271,734 272,734 275,734 276,734 278,734 279,733 281,732 282,732 286,732 287,731 288,731 290,730 290,729 292,728 292,728 296,728 297,727 298,727 299,727 300,726 301,726 302,726 302,726 303,726 303,726 305,726 305,726 306,726 306,726 307,726 308,725 308,725 309,725 310,725 310,725 311,725 311,724 312,724 313,723 313,722 314,722 315,722 316,721 317,721 318,721 321,721 322,720 323,720 323,720 324,720 325,719 326,719 326,719 327,718 327,717 329,716 330,715 331,715 331,715 332,714 332,714 334,714 334,713 335,713 336,713 337,712 337,712 338,711 339,710 339,709 340,708 340,706 341,706 342,705 342,705 343,705 344,705 344,703 345,703 345,703 346,702 347,701 348,701 348,701 349,700 350,700 350,700 351,700 352,699 352,699 353,699 353,699 354,697 355,697 355,697 356,697 357,697 357,697 358,697 359,697 361,696 361,696 362,695 363,695 363,695 364,695 365,695 365,694 366,694 366,694 367,694 368,694 368,693 369,693 369,693 370,692 371,692 371,692 372,692 373,691 373,690 374,689 375,689 376,688 376,687 377,687 378,687 378,687 379,687 379,687 380,686 381,686 381,686 382,686 382,685 383,685 384,685 384,684 385,684 386,684 386,683 387,682 387,682 388,682 389,682 389,681 390,680 390,680 391,680 392,680 392,680 393,680 394,678 394,678 395,676 395,676 396,676 397,676 397,675 398,675 399,674 399,673 400,673 400,673 401,672 402,672 402,672 403,672 403,672 404,671 405,671 405,671 406,671 407,671 407,671 408,671 408,671 409,670 410,670 410,669 411,669 411,668 412,668 413,667 413,667 414,666 415,666 415,666 416,665 416,665 417,665 418,665 418,664 419,664 419,663 420,662 421,662 421,661 422,660 423,660 423,659 424,659 424,659 425,658 426,658 426,657 427,657 428,657 428,656 429,656 429,655 430,654 431,653 431,653 432,652 432,652 433,651 434,650 434,649 435,649 436,649 436,649 437,649 437,649 438,648 439,649 439,647 440,646 440,646 441,646 442,645 442,645 443,645 444,645 444,645 445,644 445,644 446,644 447,644 447,643 448,642 449,642 449,641 450,641 450,640 451,640 452,639 452,639 453,638 453,638 454,637 455,637 455,636 456,636 457,636 457,635 458,635 458,634 459,634 460,634 460,634 461,633 461,633 462,633 463,633 463,633 464,632 465,632 465,631 466,631 466,631 467,630 468,628 468,628 469,628 470,626 470,625 471,625 471,624 472,623 473,623 473,622 474,621 474,621 475,620 476,620 476,620 477,619 478,618 478,618 479,618 479,617 480,617 481,617 481,616 482,617 482,616 483,616 484,615 484,615 485,614 486,614 486,613 487,613 487,613 488,612 489,611 489,611 490,610 491,609 491,609 492,608 492,608 493,607 494,607 494,607 495,605 495,605 496,604 497,604 497,602 498,602 499,601 499,601 500,601 500,599 501,599 502,598 502,598 503,598 503,598 504,597 505,597 505,596 506,596 507,597 507,596 508,596 508,596 509,596 510,596 510,596 511,589 512,588 512,588 513,587 513,587 514,586 515,585 515,584 516,584 516,583 517,583 518,583 518,582 519,582 520,582 520,581 521,580 521,580 522,579 523,578 523,578 524,577 524,577 525,577 526,577 526,577 527,577 528,577 528,577 529,577 529,577 530,577 531,576 531,576 532,576 532,575 533,575 534,575 534,574 535,574 536,574 536,574 537,574 537,573 538,571 539,571 539,570 540,569 541,569 541,569 542,569 542,568 543,567 544,567 544,567 545,567 545,566 546,566 547,566 547,566 548,566 549,565 549,565 550,565 550,565 551,565 552,564 552,564 553,563 553,563 554,562 555,562 555,562 556,560 557,560 557,560 558,560 558,559 559,559 560,560 560,560 561,560 562,559 562,559 563,559 563,558 564,558 565,557 565,557 566,557 566,556 567,555 568,555 568,555 569,555 570,553 570,552 571,551 571,551 572,551 573,550 573,550 574,550 574,550 575,550 576,549 576,549 577,549 578,549 578,549 579,548 579,548 580,548 581,548 581,548 582,548 583,547 583,547 584,546 584,546 585,546 586,546 586,547 587,546 587,547 588,546 589,547 589,548 590,548 591,547 591,547 592,546 592,546 593,546 594,546 594,546 595,546 595,545 596,545 597,545 597,545 598,545 599,544 599,543 600,543 600,543 601,543 602,543 602,543 603,543 604,543 604,543 605,543 605,543 606,543 607,543 607,543 608,543 608,543 609,544 610,546 610,546 611,546 612,546 612,545 613,546 613,545 614,545 615,545 615,544 616,543 616,543 617,543 618,543 618,543 619,543 620,543 620,543 621,542 621,542 622,542 623,542 623,542 624,542 625,542 625,543 626,542 626,542 627,542 628,542 628,541 629,541 629,541 630,541 631,541 631,541 632,541 633,541 633,541 634,541 634,541 635,541 636,541 636,541 637,541 637,541 638,541 639,541 639,541 640,541 641,541 641,541 642,540 642,540 643,541 644,541 644,541 645,540 645,539 646,539 647,539 647,539 648,539 649,539 649,539 650,538 650,539 651,538 652,539 652,539 653,539 654,539 654,539 655,539 655,538 656,538 657,537 657,537 658,537 658,537 659,537 660,537 660,538 661,538 662,538 662,539 663,539 663,539 664,539 665,539 665,539 666,539 666,538 667,538 668,538 668,538 669,538 670,538 670,537 671,538 671,538 672,537 673,537 673,537 674,537 675,537 675,537 676,537 676,537 677,537 678,537 678,537 679,537 679,537 680,537 681,537 681,537 682,537 683,537 683,537 684,537 684,537 685,537 686,537 686,537 687,537 687,537 688,537 689,536 689,536 690,536 691,536 691,536 692,536 692,536 693,534 694,534 694,534 695,534 696,534 696,534 697,535 697,535 698,535 699,535 699,535 700,535 700,535 701,535 702,535 702,536 703,536 704,536 704,536 705,537 705,537 706,536 707,536 707,536 708,536 708,536 709,536 710,536 710,536 711,536 712,536 712,536 713,536 713,536 714,536 715,536 715,536 716,535 717,535 717,534 718,534 718,534 719,534 720,534 720,534 721,534 721,534 722,534 723,534 723,534 724,534 725,533 725,533 726,533 726,533 727,533 728,533 728,534 729,533 729,533 730,533 731,533 731,533 732,533 733,533 733,532 734,532 734,532 735,533 736,532 736,532 737,532 738,532 738,532 738,531 739,531 739,531 740,531 741,531 741,531 742,532 742,532 743,532 744,532 744,531 745,531 746,531 746,531 747,531 747,531 748,531 749,531 749,531 750,531 750,531 751,531 752,531 752,531 753,531 754,531 754,531 755,531 755,531 756,531 757,530 757,530 758,530 758,530 759,530 760,530 760,529 761,529 762,528 762,528 763,528 763,528 764,528 765,529 765,537 766,537 767,537 767,537 768,537 768,537 769,537 770,536 770,537 771,537 771,536 772,536 773,536 773,536 774,536 775,536 775,536 776,536 776,536 777,536 778,536 778,536 779,536 779,536 780,536 781,536 781,536 782,536 783,536 783,536 784,536 784,536 785,536 786,536 786,536 787,536 788,536 788,536 789,537 789,537 790,536 791,536 791,536 792,536 792,537 793,537 794,537 794,537 795,537 796,537 796,536 797,536 797,536 798,537 799,537 799,537 800,537 800,537 801,538 802,537 802,537 803,537 804,537 804,537 805,537 805,537 806,537 807,537 807,537 808,537 809,537 809,537 810,537 810,536 811,536 812,536 812,536 813,536 813,536 814,535 815,535 815,535 816,535 817,535 817,535 818,535 818,536 819,536 820,536 820,536 821,536 821,536 822,536 823,536 823,536 824,537 825,537 825,536 826,536 826,536 827,536 828,536 828,534 829,534 830,534 830,534 831,534 831,534 832,535 833,535 833,535 834,535 834,535 835,535 836,535 836,535 837,535 838,535 838,535 839,535 839,535 840,535 841,535 841,535 842,535 842,535 843,535 844,535 844,535 845,535 846,535 846,535 847,535 847,535 848,535 849,535 849,535 850,535 851,535 851,535 852,535 852,535 853,535 854,535 854,535 855,535 855,536 856,534 857,534 857,534 858,534 859,534 859,534 860,534 860,534 861,534 862,534 862,534 863,534 863,534 864,534 865,534 865,534 866,534 867,534 867,535 868,535 868,535 869,534 870,534 870,534 871,535 871,535 872,535 873,535 873,534 874,535 875,535 875,535 876,535 876,535 877,535 878,535 878,535 879,535 880,535 880,535 881,535 881,535 882,535 883,535 883,535 884,535 884,535 885,535 886,535 886,535 887,535 888,535 888,535 889,534 889,534 890,534 891,533 891,533 892,533 892,533 893,533 894,533 894,533 895,533 896,533 896,533 897,533 897,533 898,533 899,533 899,533 900,534 901,534 901,534 902,534 902,534 903,534 904,534 904,534 905,534 905,534 906,534 907,534 907,534 908,534 909,534 909,534 910,534 910,534 911,534 912,533 912,533 913,533 913,533 914,533 915,533 915,533 916,533 917,533 917,533 918,533 918,533 919,533 920,533 920,533 921,533 922,533 922,533 923,533 923,533 924,533 925,532 925,532 926,532 926,532 927,532 928,532 928,532 929,532 930,532 930,532 931,532 931,532 932,531 933,531 933,531 934,531 934,531 935,531 936,532 936,532 937,532 938,532 938,532 939,532 939,532 940,532 941,532 941,532 942,532 943,532 943,532 944,532 944,532 945,532 946,532 946,532 947,532 947,532 948,532 949,532 949,532 950,532 951,532 951,532 952,532 952,532 953,532 954,532 954,532 955,532 955,532 956,532 957,532 957,532 958,532 959,532 959,532 960,532 960,532 961,530 962,530 962,530 963,530 964,530 964,530 965,530 965,529 966,529 967,529 967,530 968,530 968,530 969,530 970,529 970,529 971,529 972,529 972,529 973,529 973,529 974,529 975,530 975,529 976,529 976,530 976,530 977,530 978,530 978,530 979,530 980,530 980,530 981,529 981,529 982,529 983,529 983,530 984,530 984,530 985,530 986,530 986,530 987,529 988,530 988,529 989,529 989,528 990,528 991,528 991,528 992,528 993,528 993,527 994,527 994,528 995,528 996,528 996,528 997,528 997,528 998,528 999,528 999,528 1000,528 1001,528 1001,528 1002,528 1002,528 1003,528 1004,528 1004,528 1005,529 1005,529 1006,529 1007,528 1007,528 1008,528 1009,528 1009,528 1010,528 1010,528 1011,528 1012,528 1012,528 1013,528 1014,529 1014,529 1015,528 1015,528 1016,528 1017,528 1017,528 1018,528 1018,528 1019,528 1020,528 1020,528 1021,528 1022,528 1022,528 1023,528 1023,528 1024,528 1025,528 1025,528 1026,528 1026,528 1027,528 1028,528 1028,528 1029,529 1030,529 1030,529 1031,529 1031,529 1032,530 1033,530 1033,530 1034,530 1035,530 1035,530 1036,530 1036,530 1037,530 1038,530 1038,531 1039,531 1039,531 1040,531 1041,531 1041,531 1042,530 1043,530 1043,530 1044,530 1044,530 1045,530 1046,530 1046,530 1047,530 1047,529 1048,529 1049,529 1049,529 1050,529 1051,528 1051,528 1052,529 1052,529 1053,529 1054,529 1054,529 1055,529 1056,529 1056,529 1057,529 1057,529 1058,528 1059,528 1059,528 1060,528 1060,528 1061,528 1062,528 1062,528 1063,528 1063,528 1064,528 1064,528 1064,528 1065,528 1065,528 1065,528 1065,529 1066,529 1067,529 1067,529 1067,529 1067,529 1068,529 1068,529 1068,529 1068,529 1069,529 1069,529 1070,529 1070,529 1070,529 1070,529 1071,529 1071,529 1072,529 1072,529 1072,529 1072,529 1073,530 1073,530 1073,530 1074,530 1075,530 1075,530 1075,530 1075,530 1076,530 1076,530 1077,530 1077,530 1077,530 1077,530 1078,530 1078,530 1078,530 1079,530 1079,529 1080,529 1080,529 1080,529 1080,529 1081,529 1081,530 1081,530 1081,529 1082,529 1082,530 1083,530 1083,530 1083,530 1083,530 1084,530 1084,530 1085,530 1085,530 1085,530 1086,530 1086,530 1086,530 1086,530 1087,530 1087,530 1088,530 1088,530 1088,530 1088,530 1089,530 1089,530 1089,530 1089,530 1090,530 1090,530 1091,530 1091,530 1091,530 1091,530 1092,530 1093,530 1093,530 1093,530 1094,530 1094,530 1094,530 1094,530 1095,530 1095,530 1096,530 1096,530 1096,530 1096,530 1097,530 1097,530 1097,530 1097,530 1098,530 1098,531 1099,531 1099,531 1099,530 1100,530 1100,530 1101,530 1101,530 1101,530 1101,530 1102,530 1102,530 1102,530 1103,530 1103,530 1104,530 1104,530 1104,530 1104,529 1105,529 1105,529 1106,529 1106,529 1106,529 1106,529 1107,529 1107,529 1107,529 1107,529 1108,529 1108,529 1109,529 1109,529 1109,529 1109,529 1110,529 1110,529 1110,529 1110,529 1111,529 1111,529 1112,529 1112,530 1112,530 1112,530 1113,530 1113,529 1114,529 1114,529 1114,529 1115,529 1115,529 1115,529 1115,529 1116,529 1116,528 1117,528 1117,529 1117,529 1117,529 1118,529 1118,529 1118,529 1118,529 1119,529 1119,529 1120,529 1120,529 1120,529 1121,529 1121,529 1122,529 1122,529 1122,529 1122,529 1123,529 1123,530 1123,530 1123,530 1124,530 1125,530 1125,530 1125,530 1126,530 1127,530 1127,529 1127,529 1127,529 1128,529 1128,529 1128,529 1128,529 1129,529 1129,528 1130,528 1130,528 1130,528 1130,528 1131,528 1131,528 1131,528 1131,528 1132,528 1132,528 1133,528 1133,528 1133,528 1134,528 1134,528 1135,528 1135,528 1135,528 1135,528 1136,528 1136,528 1136,528 1136,528 1137,528 1137,528 1138,528 1138,528 1138,528 1138,528 1139,528 1139,528 1139,528 1139,528 1140,528 1140,528 1141,528 1141,528 1141,528 1141,528 1142,528 1142,527 1143,527 1143,527 1143,527 1144,527 1144,527 1144,527 1144,527 1145,527 1145,527 1146,527 1146,527 1146,527 1146,527 1147,527 1147,527 1148,527 1148,527 1148,527 1149,527 1149,527 1149,527 1149,527 1150,527 1150,527 1151,527 1151,527 1151,527 1151,527 1152,527 1152,526 1152,526 1152,526 1153,526 1153,526 1154,526 1154,526 1154,526 1154,526 1155,526 1155,525 1156,525 1156,525 1156,525 1156,525 1157,525 1157,525 1157,525 1157,525 1158,525 1158,525 1159,525 1159,525 1159,525 1160,525 1160,525 1160,525 1160,525 1161,525 1161,525 1162,525 1162,525 1162,525 1162,525 1163,525 1163,525 1164,525 1164,525 1164,525 1164,525 1165,525 1165,525 1165,525 1165,525 1166,525 1166,525 1167,525 1167,525 1167,525 1167,525 1168,525 1168,525 1169,525 1169,525 1169,525 1169,525 1170,525 1170,525 1170,525 1170,526 1171,526 1171,526 1172,526 1172,526 1172,526 1172,526 1173,526 1173,526 1173,526 1173,526 1174,526 1174,525 1175,525 1175,525 1175,525 1175,525 1176,525 1176,525 1177,525 1177,525 1177,525 1178,525 1178,525 1178,525 1179,525 1179,525 1180,525 1180,525 1180,525 1180,525 1181,525 1181,525 1181,525 1181,525 1182,525 1182,525 1183,525 1183,525 1183,525 1183,525 1184,525 1184,525 1185,525 1185,525 1185,525 1186,525 1186,525 1186,525 1186,525 1187,525 1187,525 1188,525 1188,525 1188,525 1188,525 1189,525 1189,525 1190,525 "/>
<polyline fill="none" opacity="1" stroke="#19E68E" stroke-width="2" points="544,738 545,738 545,738 547,737 547,736 548,736 549,736 550,735 550,734 551,734 552,733 552,732 553,731 553,731 554,731 555,730 555,729 556,729 558,729 559,728 560,727 560,726 561,726 562,725 562,725 565,724 565,722 566,722 567,722 568,721 568,721 570,720 570,720 571,719 571,718 572,718 573,717 573,717 574,717 574,716 576,715 576,713 577,713 578,712 578,712 579,712 579,711 580,711 581,711 581,709 582,709 583,709 583,709 584,709 584,707 585,707 586,707 586,707 587,705 587,705 588,704 589,703 589,702 590,701 591,701 591,700 592,699 592,698 593,698 594,697 594,697 595,696 595,694 596,693 597,693 597,693 598,693 599,693 599,693 600,693 600,692 601,692 602,691 602,689 603,689 604,688 604,687 605,685 605,684 606,684 607,683 607,682 608,680 608,678 609,677 610,677 610,677 611,675 612,673 612,671 613,671 613,670 614,670 615,669 615,668 616,668 616,667 617,667 618,666 618,666 619,665 620,664 620,663 621,662 621,662 622,661 623,661 623,660 624,660 625,659 625,658 626,658 626,657 627,656 628,656 628,655 629,654 629,653 630,652 631,651 631,651 632,650 633,649 633,647 634,645 634,644 635,642 636,641 636,640 637,638 637,637 638,637 639,636 639,636 640,635 641,635 641,634 642,631 642,630 643,629 644,627 644,627 645,626 645,624 646,623 647,623 647,621 648,620 649,620 649,619 650,619 650,618 651,616 652,616 652,614 653,614 654,612 654,609 655,609 655,608 656,608 657,608 657,607 658,606 658,605 659,605 660,604 660,602 661,602 662,601 662,598 663,595 663,595 664,593 665,593 665,592 666,591 666,591 667,591 668,591 668,589 669,589 670,588 670,588 671,587 672,586 673,585 673,585 674,584 675,584 675,583 676,581 676,579 677,577 678,576 678,575 679,574 679,574 680,574 681,574 681,573 682,572 683,571 683,570 684,570 684,569 685,569 686,568 686,567 687,566 687,566 688,565 689,565 689,564 690,563 691,563 691,561 692,561 692,561 693,560 694,559 694,559 695,559 696,557 696,556 697,554 697,553 698,552 699,551 699,550 700,550 700,550 701,549 702,549 702,548 703,547 704,547 704,545 705,543 705,543 706,542 707,542 707,541 708,540 708,540 709,540 710,539 710,538 711,538 712,537 712,535 713,535 713,533 714,531 715,531 715,529 716,529 717,528 717,527 718,526 718,525 719,524 720,524 720,524 721,523 721,523 722,522 723,521 723,519 724,518 725,517 725,517 726,516 726,515 727,514 728,512 728,511 729,512 729,510 730,510 731,510 731,508 732,507 733,506 733,505 734,504 734,502 735,501 736,500 736,499 737,498 738,497 738,496 738,495 739,495 739,494 740,492 741,491 741,488 742,485 742,483 743,482 744,482 744,481 745,480 746,480 746,479 747,478 747,477 748,477 749,476 749,476 750,475 750,475 751,474 752,473 752,472 753,471 754,468 754,468 755,467 755,465 756,465 757,465 757,464 758,462 758,461 759,459 760,458 760,457 761,457 762,457 762,456 763,454 763,455 764,454 765,452 765,439 766,438 767,438 767,438 768,436 768,436 769,435 770,435 770,434 771,432 771,431 772,430 773,430 773,427 774,427 775,425 775,425 776,424 776,423 777,422 778,422 778,422 779,420 779,418 780,417 781,414 781,412 782,410 783,409 783,407 784,407 784,405 785,404 786,402 786,402 787,402 788,401 788,398 789,396 789,396 790,394 791,393 791,392 792,390 792,390 793,390 794,389 794,388 795,387 796,386 796,385 797,384 797,384 798,381 799,380 799,380 800,378 800,377 801,373 802,371 802,372 803,372 804,371 804,371 805,369 805,369 806,367 807,366 807,366 808,364 809,362 809,362 810,362 810,361 811,361 812,359 812,358 813,357 813,355 814,355 815,353 815,353 816,352 817,352 817,352 818,351 818,349 819,349 820,348 820,347 821,347 821,343 822,342 823,341 823,340 824,338 825,338 825,336 826,336 826,335 827,335 828,335 828,334 829,333 830,333 830,332 831,332 831,331 832,331 833,330 833,328 834,326 834,325 835,323 836,321 836,321 837,321 838,320 838,318 839,317 839,315 840,313 841,313 841,312 842,311 842,310 843,309 844,308 844,308 845,306 846,305 846,305 847,304 847,303 848,302 849,302 849,302 850,301 851,301 851,298 852,298 852,296 853,295 854,294 854,293 855,290 855,289 856,290 857,289 857,288 858,288 859,288 859,285 860,285 860,283 861,281 862,280 862,280 863,279 863,279 864,279 865,278 865,277 866,275 867,275 867,274 868,273 868,273 869,272 870,271 870,270 871,269 871,268 872,267 873,266 873,265 874,264 875,264 875,263 876,262 876,261 877,260 878,259 878,260 879,259 880,259 880,259 881,258 881,257 882,255 883,255 883,253 884,252 884,252 885,252 886,246 886,246 887,246 888,246 888,245 889,244 889,243 890,242 891,242 891,241 892,241 892,240 893,241 894,241 894,241 895,240 896,239 896,238 897,237 897,237 898,236 899,234 899,234 900,232 901,232 901,230 902,229 902,226 903,225 904,225 904,225 905,223 905,221 906,220 907,220 907,217 908,216 909,216 909,214 910,214 910,213 911,211 912,208 912,207 913,207 913,207 914,206 915,205 915,205 916,203 917,203 917,202 918,202 918,202 919,201 920,201 920,200 921,200 922,197 922,197 923,195 923,196 924,194 925,191 925,191 926,192 926,190 927,189 928,189 928,188 929,187 930,187 930,187 931,186 931,185 932,184 933,183 933,182 934,182 934,181 935,181 936,179 936,177 937,176 938,175 938,175 939,174 939,173 940,173 941,169 941,168 942,168 943,168 943,168 944,167 944,167 945,167 946,167 946,166 947,165 947,164 948,163 949,163 949,162 950,161 951,160 951,161 952,161 952,160 953,159 954,157 954,156 955,155 955,155 956,155 957,154 957,153 958,152 959,151 959,150 960,149 960,148 961,148 962,147 962,146 963,145 964,145 964,144 965,144 965,144 966,143 967,143 967,142 968,141 968,141 969,141 970,142 970,141 971,139 972,139 972,138 973,135 973,135 974,134 975,134 975,133 976,133 976,133 976,132 977,134 978,134 978,134 979,134 980,135 980,133 981,133 981,133 982,132 983,132 983,130 984,133 984,133 985,132 986,132 986,136 987,137 988,136 988,137 989,140 989,139 990,140 991,139 991,139 992,138 993,138 993,139 994,142 994,142 995,142 996,143 996,143 997,139 997,139 998,139 999,139 999,138 1000,138 1001,138 1001,137 1002,137 1002,134 1003,133 1004,133 1004,132 1005,131 1005,129 1006,129 1007,129 1007,128 1008,127 1009,126 1009,126 1010,126 1010,126 1011,124 1012,124 1012,124 1013,123 1014,123 1014,123 1015,123 1015,122 1016,121 1017,122 1017,122 1018,116 1018,116 1019,115 1020,116 1020,115 1021,115 1022,115 1022,115 1023,109 1023,108 1024,107 1025,107 1025,106 1026,105 1026,105 1027,105 1028,105 1028,105 1029,103 1030,103 1030,103 1031,103 1031,105 1032,104 1033,103 1033,103 1034,103 1035,102 1035,101 1036,101 1036,103 1037,105 1038,105 1038,104 1039,103 1039,103 1040,103 1041,103 1041,101 1042,102 1043,101 1043,101 1044,100 1044,100 1045,99 1046,96 1046,96 1047,97 1047,97 1048,96 1049,96 1049,94 1050,95 1051,95 1051,96 1052,94 1052,93 1053,91 1054,91 1054,91 1055,91 1056,91 1056,90 1057,90 1057,90 1058,89 1059,89 1059,89 1060,89 1060,88 1061,89 1062,85 1062,85 1063,84 1063,84 1064,84 1064,84 1064,83 1065,83 1065,84 1065,84 1065,84 1066,84 1067,84 1067,85 1067,85 1067,90 1068,90 1068,90 1068,90 1068,90 1069,90 1069,91 1070,91 1070,90 1070,90 1070,90 1071,90 1071,90 1072,90 1072,90 1072,90 1072,90 1073,89 1073,89 1073,89 1074,89 1075,89 1075,87 1075,87 1075,85 1076,85 1076,85 1077,85 1077,84 1077,84 1077,84 1078,84 1078,83 1078,83 1079,83 1079,81 1080,81 1080,80 1080,80 1080,80 1081,80 1081,79 1081,79 1081,78 1082,78 1082,78 1083,78 1083,78 1083,78 1083,77 1084,77 1084,77 1085,79 1085,79 1085,79 1086,79 1086,79 1086,79 1086,78 1087,78 1087,79 1088,79 1088,80 1088,80 1088,78 1089,78 1089,79 1089,79 1089,79 1090,79 1090,78 1091,78 1091,78 1091,78 1091,79 1092,79 1093,79 1093,79 1093,79 1094,79 1094,78 1094,78 1094,77 1095,77 1095,77 1096,77 1096,76 1096,76 1096,76 1097,76 1097,76 1097,76 1097,75 1098,75 1098,75 1099,76 1099,76 1099,77 1100,77 1100,77 1101,77 1101,77 1101,77 1101,78 1102,78 1102,78 1102,78 1103,78 1103,78 1104,78 1104,79 1104,79 1104,78 1105,78 1105,79 1106,79 1106,79 1106,79 1106,80 1107,80 1107,79 1107,79 1107,79 1108,79 1108,79 1109,79 1109,77 1109,77 1109,77 1110,77 1110,79 1110,79 1110,79 1111,79 1111,80 1112,80 1112,79 1112,79 1112,79 1113,79 1113,79 1114,79 1114,80 1114,80 1115,80 1115,80 1115,80 1115,81 1116,81 1116,82 1117,82 1117,82 1117,82 1117,82 1118,82 1118,82 1118,82 1118,83 1119,83 1119,83 1120,83 1120,83 1120,82 1121,82 1121,82 1122,82 1122,83 1122,83 1122,83 1123,83 1123,84 1123,84 1123,84 1124,84 1125,86 1125,86 1125,87 1126,86 1127,86 1127,86 1127,86 1127,86 1128,86 1128,87 1128,87 1128,87 1129,87 1129,87 1130,87 1130,88 1130,88 1130,89 1131,89 1131,88 1131,88 1131,89 1132,89 1132,88 1133,88 1133,88 1133,87 1134,87 1134,88 1135,88 1135,89 1135,89 1135,88 1136,88 1136,89 1136,89 1136,89 1137,89 1137,89 1138,89 1138,89 1138,89 1138,89 1139,89 1139,89 1139,89 1139,90 1140,90 1140,90 1141,90 1141,90 1141,90 1141,90 1142,90 1142,91 1143,92 1143,92 1143,92 1144,92 1144,92 1144,92 1144,92 1145,92 1145,92 1146,92 1146,92 1146,92 1146,92 1147,92 1147,91 1148,91 1148,91 1148,91 1149,91 1149,91 1149,91 1149,91 1150,91 1150,90 1151,90 1151,91 1151,91 1151,90 1152,90 1152,91 1152,91 1152,90 1153,90 1153,90 1154,90 1154,90 1154,90 1154,91 1155,91 1155,91 1156,91 1156,90 1156,90 1156,90 1157,90 1157,89 1157,89 1157,89 1158,89 1158,89 1159,89 1159,90 1159,90 1160,90 1160,90 1160,90 1160,90 1161,90 1161,89 1162,89 1162,90 1162,90 1162,90 1163,90 1163,90 1164,90 1164,91 1164,91 1164,91 1165,91 1165,91 1165,91 1165,91 1166,91 1166,92 1167,92 1167,92 1167,92 1167,92 1168,92 1168,92 1169,92 1169,93 1169,93 1169,93 1170,93 1170,92 1170,92 1170,93 1171,93 1171,93 1172,93 1172,93 1172,93 1172,93 1173,93 1173,93 1173,93 1173,93 1174,93 1174,94 1175,94 1175,93 1175,93 1175,93 1176,93 1176,93 1177,92 1177,92 1177,91 1178,91 1178,92 1178,94 1179,94 1179,94 1180,94 1180,94 1180,94 1180,94 1181,94 1181,94 1181,94 1181,94 1182,94 1182,94 1183,94 1183,95 1183,95 1183,95 1184,95 1184,95 1185,95 1185,96 1185,96 1186,96 1186,98 1186,98 1186,98 1187,98 1187,98 1188,98 1188,98 1188,98 1188,98 1189,98 1189,98 1190,98 "/>
<polyline fill="none" opacity="1" stroke="#198EE6" stroke-width="2" points="60,738 60,738 64,738 74,738 82,737 90,737 91,737 95,737 97,736 98,736 102,736 106,736 107,735 113,735 119,735 120,735 122,734 128,734 132,734 134,734 140,734 140,733 141,733 142,733 142,733 143,733 144,733 145,733 145,733 147,733 147,733 148,733 149,733 150,733 152,733 152,733 153,732 153,732 154,732 155,732 155,732 156,732 157,732 158,732 158,732 159,732 160,732 160,732 161,732 161,732 162,732 163,732 163,732 164,732 165,732 166,732 166,732 167,732 168,732 169,732 171,732 171,731 172,731 173,731 173,731 174,731 174,731 175,731 176,731 176,731 177,731 178,731 179,731 180,731 181,730 181,730 182,730 182,730 183,730 184,730 185,730 185,730 186,730 187,730 188,730 189,729 189,729 190,729 190,729 191,729 192,729 192,729 193,729 193,729 194,729 195,729 196,729 197,729 198,728 199,728 200,728 200,728 202,728 203,728 203,728 204,728 205,728 206,728 206,728 207,727 208,727 208,727 209,727 210,727 211,727 212,727 213,727 214,727 214,727 215,727 216,727 216,726 217,726 218,726 218,726 219,726 219,726 220,726 221,726 222,726 223,726 223,726 224,725 224,725 225,725 226,725 226,725 227,725 227,725 228,725 229,725 229,725 230,725 231,725 232,724 232,724 233,724 234,724 234,724 235,724 236,724 237,724 239,724 239,724 240,724 240,724 241,724 242,724 242,723 244,723 244,723 245,723 245,723 246,723 247,723 249,723 250,723 250,723 251,723 252,723 252,722 253,722 253,722 254,722 255,722 256,722 257,722 258,722 258,722 259,722 260,722 260,722 261,722 262,722 263,722 263,722 265,722 265,722 266,722 266,722 267,721 269,721 269,721 270,721 271,721 272,720 273,720 273,720 274,720 274,720 275,720 276,720 276,720 277,720 277,720 278,720 279,720 280,720 281,720 281,720 282,720 282,720 283,720 284,720 284,720 285,720 286,720 286,720 287,720 287,720 288,719 289,719 289,719 290,719 290,719 291,719 292,719 292,719 293,719 294,719 294,719 295,719 295,719 296,719 297,719 297,719 298,719 298,718 299,718 300,718 300,718 302,718 302,718 303,718 304,718 305,718 305,718 306,718 307,717 308,717 308,717 309,717 310,717 310,717 311,717 312,717 313,716 313,716 314,716 315,716 315,716 316,716 317,716 318,716 318,716 319,716 319,716 320,716 321,716 321,715 322,715 323,715 323,715 324,715 324,715 325,715 326,715 326,715 327,715 327,715 328,715 329,715 330,715 331,715 331,715 332,715 332,715 334,715 334,715 335,715 336,714 336,714 337,714 337,714 338,714 339,714 339,714 340,714 340,714 341,713 342,713 342,713 343,713 344,713 344,712 345,712 345,712 346,712 347,712 347,712 348,712 348,712 349,712 350,712 350,712 351,712 352,712 352,712 353,712 353,711 354,711 355,711 355,711 357,711 357,711 358,711 358,711 359,710 360,710 360,710 361,710 361,709 362,709 363,709 363,709 364,709 365,709 365,709 366,709 366,709 367,708 368,708 368,708 369,709 369,708 370,708 371,708 371,708 372,708 373,708 373,708 374,708 374,708 375,708 376,707 376,707 377,707 378,707 378,707 379,707 379,707 380,707 381,707 381,707 382,707 382,707 383,707 384,706 384,706 386,706 386,706 387,706 387,706 388,706 389,706 390,706 390,706 391,705 392,705 392,705 393,705 394,705 394,705 395,705 395,705 396,705 397,705 397,705 398,705 399,705 399,705 400,705 400,705 401,705 402,705 402,705 403,705 403,705 404,705 405,705 405,704 406,704 407,704 407,704 408,704 408,704 409,704 410,704 410,704 411,704 411,704 412,704 413,704 413,704 414,704 415,704 415,704 416,704 416,703 417,703 418,703 418,703 419,703 419,703 420,703 421,703 421,703 422,703 423,703 423,702 424,702 424,702 425,702 426,702 426,702 427,702 428,702 428,702 429,702 429,702 430,702 431,702 431,702 432,702 432,702 433,702 434,702 434,702 435,701 436,701 436,701 437,701 437,701 438,701 439,701 439,701 440,700 440,700 441,700 442,700 442,700 443,700 444,700 444,700 445,699 445,699 446,699 447,699 447,699 448,698 449,698 449,698 450,698 450,698 451,698 452,698 452,698 453,698 453,698 454,698 455,698 455,698 457,698 457,698 458,698 458,698 459,698 460,698 460,698 461,698 461,698 462,698 463,698 463,698 464,698 465,698 465,698 466,698 466,698 467,698 468,698 468,698 469,698 470,698 470,698 471,698 471,698 472,698 473,698 473,698 474,698 474,697 475,697 476,697 476,697 477,697 478,697 478,696 479,696 479,696 480,696 481,696 481,696 482,696 482,696 483,696 484,696 484,696 485,696 486,696 486,696 487,696 487,696 488,696 489,696 489,696 490,696 491,696 491,696 492,695 492,695 493,695 494,695 494,695 495,695 495,695 496,695 497,695 497,695 498,695 499,695 499,695 500,695 500,695 501,695 502,695 502,695 503,695 503,695 504,695 505,695 505,695 506,695 507,695 507,695 508,695 508,695 509,695 510,695 510,695 511,695 512,694 512,694 513,694 513,694 515,694 515,693 516,693 516,693 517,693 518,693 518,693 519,693 520,693 520,693 521,693 521,693 523,693 523,693 524,693 524,693 525,693 526,693 526,692 527,692 528,692 528,692 529,692 529,692 530,692 531,692 531,692 532,692 532,692 533,691 534,691 534,691 535,691 536,691 536,691 537,691 537,691 538,691 539,691 539,690 540,690 541,690 541,690 542,690 542,690 543,690 544,690 544,690 545,690 545,690 546,690 547,690 547,690 548,690 549,689 549,689 550,689 550,689 551,689 552,689 552,689 553,690 553,690 554,690 555,690 555,690 556,690 557,690 557,690 558,690 558,690 559,690 560,690 560,690 561,690 562,689 562,689 563,689 563,690 564,690 565,690 565,690 566,690 566,690 567,690 568,690 568,690 569,690 570,690 571,690 571,690 572,690 573,690 573,690 574,690 574,690 575,690 576,690 577,690 578,690 578,690 579,690 579,690 580,690 581,690 581,689 583,689 583,689 584,689 584,689 585,689 586,689 586,689 587,689 587,689 588,689 589,689 589,689 590,689 591,689 591,689 592,689 592,689 593,689 594,689 594,688 595,688 595,688 596,687 597,687 597,687 598,687 599,687 599,687 600,687 600,687 601,687 602,687 602,687 603,687 604,687 604,686 605,686 605,686 606,686 607,685 607,685 608,685 608,685 609,685 610,685 610,684 611,684 612,684 612,684 613,684 613,684 614,684 615,684 615,684 616,684 616,684 617,684 618,684 618,685 619,685 620,685 620,685 621,684 621,684 622,684 623,684 623,684 624,684 625,684 625,684 626,684 626,684 627,684 628,684 628,684 629,684 629,684 630,684 631,684 631,684 632,684 633,684 633,684 634,684 634,683 635,683 636,683 636,683 637,683 637,683 638,683 639,683 639,683 640,683 641,682 641,682 642,682 642,682 643,682 644,682 644,682 645,682 645,682 646,682 647,682 647,681 648,681 649,681 649,681 650,681 650,682 651,682 652,682 652,682 653,682 654,682 654,682 655,682 655,682 656,682 657,682 657,682 658,682 658,682 659,682 660,682 660,682 661,682 662,682 662,682 663,682 663,682 664,682 665,681 665,681 666,681 666,681 667,681 668,681 668,681 669,681 670,681 670,681 671,681 671,681 672,681 673,681 673,681 674,681 675,681 675,681 676,681 676,680 677,680 678,680 678,680 679,680 679,680 680,680 681,680 681,680 682,680 683,680 683,680 684,680 684,680 685,680 686,680 686,680 687,680 687,680 688,680 689,680 689,680 691,680 691,680 692,680 692,680 693,680 694,680 694,680 695,680 696,680 696,680 697,680 697,680 698,680 699,680 699,680 700,680 700,680 701,680 702,680 702,679 703,679 704,679 704,679 705,679 705,679 706,679 707,679 707,679 708,679 708,679 709,679 710,679 710,679 711,679 712,679 712,679 713,679 713,679 714,679 715,679 715,679 716,679 717,679 717,678 718,678 718,678 719,678 720,678 720,678 721,678 721,678 722,678 723,678 723,678 724,678 725,678 725,678 726,677 726,677 727,677 728,677 728,677 729,677 729,677 730,677 731,677 731,677 732,677 733,677 733,677 734,677 734,677 735,677 736,677 736,677 737,677 738,677 738,677 738,677 739,677 739,677 740,677 741,677 741,677 742,677 742,677 743,677 744,677 744,677 745,677 746,677 746,677 747,677 747,677 748,677 749,677 749,677 750,677 750,677 751,677 752,677 752,677 753,677 754,677 754,677 755,677 755,677 756,677 757,677 757,677 758,677 758,677 759,677 760,677 760,677 761,677 762,677 762,677 763,677 763,677 764,677 765,676 765,676 766,676 767,676 767,676 768,676 768,676 769,676 770,676 770,676 771,676 771,676 772,676 773,676 773,676 774,676 775,676 775,676 776,676 776,676 777,676 778,676 778,676 779,676 779,676 780,676 781,676 781,676 782,676 783,676 783,676 784,676 784,676 785,676 786,676 786,676 787,676 788,676 788,676 789,676 789,676 790,676 791,676 791,676 792,676 792,676 793,676 794,676 794,676 795,676 796,676 796,676 797,676 797,676 798,675 799,675 799,675 800,675 800,675 801,675 802,675 802,675 803,675 804,675 804,675 805,675 805,675 806,675 807,675 807,675 808,675 809,675 809,675 810,675 810,675 811,675 812,676 812,676 813,676 813,676 814,676 815,676 815,676 816,676 817,676 817,676 818,676 818,676 819,676 820,676 820,676 821,676 821,676 822,676 823,676 823,676 824,676 825,675 825,675 826,675 826,676 827,676 828,676 828,676 829,676 830,676 830,676 831,676 831,676 832,675 833,675 833,675 834,675 834,675 835,675 836,675 836,675 837,675 838,675 838,675 839,674 839,674 840,673 841,673 841,673 842,673 842,673 843,672 844,672 844,672 845,673 846,673 846,673 847,673 847,673 848,673 849,673 849,673 850,673 851,673 851,673 852,673 852,673 853,673 854,673 854,673 855,672 855,672 856,672 857,672 857,672 858,672 859,672 859,672 860,672 860,672 861,672 862,672 862,672 863,672 863,672 864,672 865,672 865,672 866,672 867,672 867,672 868,672 868,672 869,672 870,672 870,672 871,672 871,672 872,672 873,671 873,671 874,671 875,671 875,671 876,671 876,671 877,671 878,671 878,671 879,670 880,670 880,670 881,670 881,670 882,670 883,670 883,670 884,670 884,670 885,670 886,670 886,670 887,670 888,670 888,670 889,670 889,670 890,670 891,670 891,670 892,670 892,670 893,669 894,669 894,669 895,669 896,669 896,669 897,669 897,669 898,669 899,669 899,669 900,669 901,669 901,669 902,669 902,669 903,669 904,669 904,669 905,670 905,670 906,670 907,670 907,670 908,670 909,670 909,670 910,670 910,670 911,670 912,670 912,670 913,669 913,669 914,667 915,667 915,667 916,667 917,667 917,666 918,666 918,666 919,666 920,666 920,665 921,665 922,665 922,665 923,665 923,665 924,665 925,665 925,664 926,664 926,664 927,664 928,664 928,664 929,664 930,664 930,664 931,664 931,664 932,664 933,664 933,664 934,664 934,664 935,664 936,664 936,664 937,664 938,664 938,664 939,664 939,664 940,664 941,664 941,664 942,663 943,663 943,663 944,663 944,663 945,663 946,663 946,663 947,662 947,662 948,662 949,662 949,662 950,662 951,662 951,662 952,662 952,662 953,662 954,662 954,662 955,662 955,662 956,662 957,662 957,662 958,662 959,662 959,662 960,662 960,662 961,662 962,662 962,662 963,662 964,663 964,663 965,663 965,663 966,663 967,663 967,663 968,663 968,663 969,663 970,663 970,663 971,663 972,663 972,663 973,663 973,663 974,663 975,663 975,663 976,663 976,663 976,663 977,663 978,663 978,663 979,662 980,662 980,662 981,662 981,662 982,662 983,662 983,662 984,662 984,662 985,662 986,662 986,663 987,662 988,662 988,662 989,662 989,662 990,662 991,662 991,662 992,662 993,662 993,662 994,662 994,662 995,662 996,662 996,662 997,662 997,662 998,662 999,662 999,662 1000,662 1001,662 1001,662 1002,662 1002,662 1003,662 1004,662 1004,662 1005,662 1005,662 1006,662 1007,662 1007,662 1008,662 1009,662 1009,662 1010,662 1010,662 1011,662 1012,662 1012,662 1013,662 1014,662 1014,662 1015,662 1015,662 1016,662 1017,662 1017,662 1018,662 1018,662 1019,662 1020,662 1020,662 1021,662 1022,662 1022,662 1023,662 1023,662 1024,662 1025,662 1025,662 1026,662 1026,662 1027,662 1028,662 1028,662 1029,662 1030,662 1030,662 1031,662 1031,662 1032,662 1033,662 1033,662 1034,662 1035,662 1035,662 1036,662 1036,662 1037,662 1038,662 1038,662 1039,662 1039,662 1040,662 1041,662 1041,662 1042,662 1043,662 1043,662 1044,662 1044,662 1045,662 1046,662 1046,662 1047,662 1047,662 1048,662 1049,662 1049,662 1050,662 1051,662 1051,662 1052,662 1052,662 1053,662 1054,662 1054,662 1055,662 1056,662 1056,662 1057,662 1057,662 1058,662 1059,662 1059,662 1060,662 1060,662 1061,663 1062,663 1062,663 1063,663 1063,663 1064,663 1064,663 1064,663 1065,663 1065,663 1065,663 1065,663 1066,663 1067,663 1067,663 1067,663 1067,663 1068,663 1068,663 1068,663 1068,663 1069,663 1069,663 1070,663 1070,663 1070,663 1070,663 1071,663 1071,663 1072,663 1072,662 1072,662 1072,662 1073,662 1073,662 1074,662 1075,662 1075,662 1075,662 1075,662 1076,662 1076,662 1077,662 1077,662 1077,662 1077,662 1078,662 1078,662 1078,662 1079,662 1079,662 1080,662 1080,662 1080,662 1080,662 1081,662 1081,662 1081,662 1081,662 1082,662 1082,662 1083,662 1083,662 1083,662 1083,662 1084,662 1084,662 1085,662 1085,662 1085,662 1086,662 1086,662 1086,662 1086,662 1087,662 1087,662 1088,662 1088,661 1088,661 1088,661 1089,661 1089,661 1089,661 1089,661 1090,661 1090,661 1091,661 1091,661 1091,661 1091,661 1092,661 1093,661 1093,661 1093,661 1094,661 1094,661 1094,661 1094,660 1095,660 1095,660 1096,660 1096,660 1096,660 1096,660 1097,660 1097,660 1097,660 1097,660 1098,660 1098,660 1099,660 1099,660 1099,660 1100,660 1100,660 1101,660 1101,660 1101,660 1101,660 1102,660 1102,660 1102,660 1103,660 1103,660 1104,660 1104,660 1104,660 1104,660 1105,660 1105,661 1106,661 1106,661 1106,661 1106,661 1107,661 1107,661 1107,661 1107,661 1108,661 1108,661 1109,661 1109,661 1109,661 1109,661 1110,661 1110,661 1110,661 1110,661 1111,661 1111,661 1112,661 1112,660 1112,660 1112,660 1113,660 1113,660 1114,660 1114,660 1114,659 1115,659 1115,659 1115,659 1115,659 1116,659 1116,659 1117,659 1117,659 1117,659 1117,659 1118,659 1118,659 1118,659 1118,659 1119,659 1119,659 1120,659 1120,659 1120,659 1121,659 1121,659 1122,659 1122,659 1122,659 1122,659 1123,659 1123,659 1123,659 1123,659 1124,659 1125,659 1125,659 1125,659 1126,659 1127,659 1127,659 1127,659 1127,659 1128,659 1128,659 1128,659 1128,659 1129,659 1129,659 1130,659 1130,659 1130,659 1130,659 1131,659 1131,658 1131,658 1131,658 1132,658 1132,658 1133,658 1133,658 1133,658 1134,658 1134,658 1135,658 1135,658 1135,658 1135,658 1136,658 1136,658 1136,658 1136,658 1137,658 1137,658 1138,658 1138,658 1138,658 1138,658 1139,658 1139,658 1139,658 1139,658 1140,658 1140,658 1141,658 1141,658 1141,658 1141,658 1142,658 1142,657 1143,657 1143,657 1143,657 1144,657 1144,657 1144,657 1144,657 1145,657 1145,657 1146,657 1146,657 1146,657 1146,657 1147,657 1147,657 1148,657 1148,657 1148,657 1149,657 1149,657 1149,657 1149,657 1150,657 1150,657 1151,657 1151,657 1151,657 1151,657 1152,657 1152,657 1152,657 1152,657 1153,657 1153,657 1154,657 1154,657 1154,657 1154,657 1155,657 1155,657 1156,657 1156,657 1156,657 1156,657 1157,657 1157,657 1157,657 1157,657 1158,657 1158,657 1159,657 1159,657 1159,657 1160,657 1160,657 1160,657 1160,657 1161,657 1161,657 1162,657 1162,657 1162,657 1162,657 1163,657 1163,657 1164,657 1164,657 1164,657 1164,657 1165,657 1165,657 1165,657 1165,657 1166,657 1166,657 1167,657 1167,657 1167,657 1167,657 1168,657 1168,657 1169,657 1169,657 1169,657 1169,657 1170,657 1170,657 1170,657 1170,657 1171,657 1171,657 1172,657 1172,657 1172,657 1172,656 1173,656 1173,657 1173,657 1173,657 1174,657 1174,657 1175,657 1175,657 1175,657 1175,657 1176,657 1176,657 1177,657 1177,657 1177,657 1178,657 1178,657 1178,657 1179,657 1179,657 1180,657 1180,657 1180,657 1180,656 1181,656 1181,656 1181,656 1181,656 1182,656 1182,656 1183,656 1183,656 1183,656 1183,656 1184,656 1184,656 1185,656 1185,656 1185,656 1186,656 1186,656 1186,656 1186,656 1187,656 1187,656 1188,656 1188,655 1188,655 1188,655 1189,655 1189,655 1190,655 "/>
<polyline fill="none" opacity="1" stroke="#5419E6" stroke-width="2" points="875,738 876,738 880,738 885,737 887,737 890,737 892,736 893,736 894,734 894,733 896,733 897,733 902,733 904,733 904,733 905,733 906,733 913,733 918,732 918,732 920,731 922,731 925,731 926,730 926,729 927,729 928,729 928,729 931,729 931,729 932,729 934,729 935,728 936,728 936,727 939,727 940,727 941,727 941,726 943,726 944,726 945,726 946,726 946,726 949,726 951,726 951,725 952,725 953,725 954,725 955,725 955,725 956,725 957,725 958,725 959,725 960,725 960,724 962,724 962,724 963,724 964,723 964,723 965,723 965,723 966,723 967,723 967,723 968,723 969,723 970,723 970,723 971,723 972,723 972,722 973,723 975,723 975,723 976,723 976,723 976,722 977,722 978,722 978,722 979,721 980,721 980,720 981,720 982,719 983,719 984,719 984,719 985,719 986,719 986,719 988,719 989,718 989,718 990,717 991,717 991,717 992,716 993,716 993,716 994,716 995,716 996,715 996,715 997,715 997,715 998,715 999,714 1000,714 1001,715 1002,714 1003,714 1004,714 1004,714 1006,714 1007,714 1007,714 1008,714 1009,714 1010,714 1012,714 1012,713 1014,713 1015,713 1015,713 1016,713 1017,713 1017,712 1018,712 1018,712 1019,712 1020,712 1020,712 1021,711 1022,711 1022,711 1023,711 1023,711 1024,711 1025,711 1025,711 1026,711 1026,711 1027,711 1028,710 1028,710 1029,710 1030,710 1030,710 1031,710 1032,710 1033,710 1033,709 1034,709 1035,709 1035,709 1036,708 1036,708 1038,708 1038,708 1039,708 1039,708 1040,708 1041,708 1041,708 1042,708 1043,707 1043,707 1044,707 1044,707 1045,707 1046,707 1046,707 1047,707 1047,707 1048,707 1049,706 1049,706 1050,706 1051,706 1051,706 1052,706 1052,706 1053,706 1054,706 1054,706 1055,706 1056,705 1056,705 1057,705 1058,705 1059,705 1059,705 1060,705 1060,705 1061,705 1062,705 1062,705 1063,705 1063,705 1064,705 1064,705 1064,705 1065,705 1065,705 1065,705 1065,705 1066,705 1067,705 1067,705 1067,705 1067,705 1068,705 1068,705 1068,705 1068,704 1069,704 1069,704 1070,704 1070,704 1070,704 1070,704 1071,704 1071,704 1072,704 1072,704 1072,704 1072,704 1073,704 1073,704 1073,703 1074,703 1075,703 1075,703 1075,703 1075,703 1076,703 1076,703 1077,703 1077,702 1077,702 1077,703 1078,703 1078,703 1078,702 1079,702 1079,702 1080,702 1080,702 1080,702 1080,702 1081,702 1081,702 1081,702 1081,702 1082,702 1082,702 1083,702 1083,702 1083,702 1083,702 1084,702 1084,702 1085,702 1085,702 1086,702 1086,702 1086,702 1086,702 1087,702 1087,702 1088,702 1088,702 1088,702 1088,702 1089,702 1089,702 1089,702 1089,702 1090,702 1090,702 1091,702 1091,702 1091,702 1092,702 1093,702 1093,702 1093,702 1094,702 1094,702 1094,702 1094,702 1095,702 1095,701 1096,701 1096,701 1096,701 1096,701 1097,701 1097,701 1097,701 1097,701 1098,701 1099,701 1099,701 1099,701 1100,701 1100,701 1101,701 1101,701 1101,701 1101,701 1102,701 1102,700 1102,700 1103,700 1103,700 1104,700 1104,700 1104,700 1104,700 1105,700 1105,700 1106,700 1106,700 1106,700 1106,700 1107,700 1107,700 1107,700 1108,700 1108,700 1109,700 1109,700 1109,700 1109,700 1110,700 1110,700 1110,700 1110,699 1111,699 1111,699 1112,699 1112,699 1112,699 1112,700 1113,700 1113,700 1114,700 1114,699 1114,699 1115,699 1115,699 1115,699 1115,699 1116,699 1116,699 1117,699 1117,699 1117,699 1117,699 1118,699 1118,699 1118,699 1118,700 1119,700 1119,700 1120,700 1120,700 1120,700 1121,699 1122,699 1122,699 1122,699 1122,699 1123,699 1123,699 1123,699 1123,699 1124,699 1125,699 1125,699 1125,699 1126,699 1127,699 1127,699 1127,699 1127,699 1128,699 1128,699 1128,699 1128,698 1129,698 1130,698 1130,698 1130,698 1130,698 1131,698 1131,698 1131,698 1131,698 1132,698 1132,698 1133,698 1133,698 1133,698 1134,698 1134,698 1135,698 1135,698 1135,698 1135,698 1136,698 1136,698 1136,698 1136,698 1137,698 1137,698 1138,698 1138,698 1138,698 1138,698 1139,698 1139,698 1139,698 1139,698 1140,698 1140,698 1141,698 1141,698 1141,698 1142,698 1142,698 1143,698 1143,698 1143,698 1144,698 1144,698 1144,698 1144,698 1145,698 1145,698 1146,698 1146,698 1146,698 1146,697 1147,697 1147,697 1148,697 1148,697 1148,697 1149,697 1149,697 1149,697 1149,697 1150,697 1150,697 1151,697 1151,697 1151,697 1151,697 1152,697 1152,697 1152,697 1152,697 1153,697 1153,697 1154,697 1154,697 1154,697 1154,697 1155,697 1155,697 1156,697 1156,697 1156,697 1156,697 1157,697 1157,697 1157,697 1157,697 1158,697 1158,697 1159,697 1159,697 1159,697 1160,697 1160,697 1160,697 1160,697 1161,697 1161,697 1162,697 1162,697 1162,697 1162,697 1163,697 1163,697 1164,697 1164,697 1164,697 1164,697 1165,697 1165,697 1165,697 1165,696 1166,696 1166,696 1167,696 1167,696 1167,696 1167,696 1168,696 1168,695 1169,695 1169,695 1169,695 1170,695 1170,695 1170,695 1170,695 1171,695 1171,695 1172,695 1172,695 1172,695 1172,694 1173,694 1173,694 1173,694 1173,694 1174,694 1174,694 1175,694 1175,694 1175,694 1175,694 1176,694 1176,694 1177,694 1177,694 1177,694 1178,694 1178,694 1179,694 1179,694 1180,693 1180,693 1180,693 1180,693 1181,693 1181,693 1182,693 1182,693 1183,693 1183,693 1183,693 1183,693 1184,693 1184,693 1185,693 1185,693 1185,693 1186,693 1186,693 1186,693 1186,693 1187,693 1187,693 1188,693 1188,693 1188,693 1188,693 1189,693 1189,693 "/>
<polyline fill="none" opacity="1" stroke="#E619C8" stroke-width="2" points="971,738 972,737 972,737 973,737 973,736 975,735 975,735 976,735 976,735 976,735 977,735 978,734 978,734 979,734 980,734 980,734 981,734 981,733 982,733 983,732 983,732 984,731 985,731 986,730 986,729 987,728 988,728 988,727 989,726 989,725 990,725 991,725 991,724 992,724 993,724 993,724 994,721 994,720 995,719 996,718 996,717 997,717 997,717 998,717 999,717 999,716 1000,716 1001,715 1001,715 1002,715 1002,715 1003,715 1004,715 1004,714 1005,714 1005,714 1006,713 1007,712 1007,713 1008,712 1009,711 1009,711 1010,710 1010,709 1011,707 1012,707 1012,707 1013,707 1014,707 1014,707 1015,707 1015,704 1016,703 1017,703 1017,701 1018,700 1018,700 1019,699 1020,698 1020,698 1021,698 1022,697 1022,697 1023,696 1023,695 1024,695 1025,694 1025,693 1026,691 1026,690 1027,689 1028,689 1028,688 1029,687 1030,687 1030,686 1031,686 1031,683 1032,682 1033,681 1033,680 1034,680 1035,679 1035,679 1036,679 1036,678 1037,676 1038,675 1038,674 1039,673 1039,672 1040,671 1041,670 1041,670 1042,670 1043,669 1043,669 1044,669 1044,668 1045,667 1046,666 1046,666 1047,665 1047,665 1048,665 1049,664 1049,664 1050,662 1051,662 1051,661 1052,662 1052,660 1053,659 1054,658 1054,657 1055,657 1056,657 1056,657 1057,655 1057,654 1058,654 1059,653 1059,652 1060,650 1060,649 1061,647 1062,647 1062,646 1063,646 1063,645 1064,645 1064,645 1064,644 1065,644 1065,643 1065,643 1065,642 1066,641 1067,641 1067,640 1067,640 1067,637 1068,637 1068,636 1068,636 1068,635 1069,635 1069,633 1070,633 1070,632 1070,632 1070,631 1071,631 1071,631 1072,631 1072,630 1072,630 1072,629 1073,627 1073,627 1073,627 1074,626 1075,626 1075,626 1075,626 1075,625 1076,625 1076,624 1077,624 1077,624 1077,624 1077,623 1078,623 1078,623 1078,622 1079,622 1079,622 1080,622 1080,620 1080,620 1080,619 1081,619 1081,618 1081,618 1081,617 1082,617 1082,617 1083,617 1083,616 1083,616 1083,613 1084,613 1084,611 1085,608 1085,608 1085,606 1086,606 1086,604 1086,604 1086,604 1087,604 1087,603 1088,603 1088,600 1088,600 1088,599 1089,599 1089,598 1089,598 1089,597 1090,597 1090,596 1091,596 1091,595 1091,595 1091,593 1092,593 1093,592 1093,592 1093,590 1094,590 1094,588 1094,588 1094,587 1095,587 1095,587 1096,587 1096,586 1096,586 1096,585 1097,585 1097,584 1097,584 1097,582 1098,582 1098,580 1099,578 1099,578 1099,578 1100,578 1100,576 1101,576 1101,573 1101,573 1101,572 1102,572 1102,571 1102,570 1103,570 1103,567 1104,567 1104,565 1104,565 1104,563 1105,563 1105,561 1106,561 1106,561 1106,561 1106,560 1107,560 1107,559 1107,559 1107,557 1108,557 1108,551 1109,551 1109,549 1109,549 1109,547 1110,547 1110,546 1110,546 1110,545 1111,545 1111,544 1112,544 1112,542 1112,542 1112,539 1113,539 1113,537 1114,537 1114,535 1114,534 1115,534 1115,533 1115,533 1115,531 1116,531 1116,530 1117,530 1117,527 1117,527 1117,526 1118,526 1118,524 1118,524 1118,523 1119,523 1119,521 1120,521 1120,520 1120,518 1121,518 1121,518 1122,518 1122,516 1122,516 1122,514 1123,514 1123,512 1123,512 1123,510 1124,508 1125,505 1125,505 1125,504 1126,502 1127,502 1127,501 1127,501 1127,500 1128,500 1128,496 1128,496 1128,495 1129,495 1129,494 1130,494 1130,491 1130,491 1130,490 1131,490 1131,488 1131,488 1131,487 1132,487 1132,486 1133,485 1133,485 1133,484 1134,484 1134,481 1135,481 1135,478 1135,478 1135,478 1136,478 1136,476 1136,476 1136,475 1137,475 1137,474 1138,474 1138,472 1138,472 1138,471 1139,471 1139,470 1139,470 1139,468 1140,468 1140,468 1141,468 1141,466 1141,466 1141,465 1142,465 1142,465 1143,463 1143,463 1143,461 1144,461 1144,458 1144,458 1144,456 1145,456 1145,456 1146,456 1146,455 1146,455 1146,454 1147,454 1147,452 1148,448 1148,448 1148,446 1149,446 1149,445 1149,445 1149,443 1150,443 1150,442 1151,442 1151,442 1151,442 1151,442 1152,442 1152,439 1152,439 1152,438 1153,438 1153,437 1154,437 1154,436 1154,436 1154,435 1155,435 1155,434 1156,434 1156,432 1156,432 1156,431 1157,431 1157,428 1157,428 1157,427 1158,427 1158,425 1159,425 1159,422 1159,421 1160,421 1160,418 1160,418 1160,417 1161,417 1161,415 1162,415 1162,412 1162,412 1162,411 1163,411 1163,407 1164,407 1164,406 1164,406 1164,404 1165,404 1165,402 1165,402 1165,400 1166,400 1166,399 1167,399 1167,394 1167,394 1167,393 1168,393 1168,391 1169,391 1169,389 1169,389 1169,388 1170,388 1170,386 1170,386 1170,383 1171,383 1171,382 1172,382 1172,380 1172,380 1172,379 1173,379 1173,376 1173,376 1173,374 1174,374 1174,371 1175,371 1175,369 1175,369 1175,368 1176,368 1176,368 1177,365 1177,365 1177,363 1178,363 1178,360 1178,357 1179,357 1179,356 1180,356 1180,355 1180,355 1180,353 1181,353 1181,351 1181,351 1181,349 1182,349 1182,346 1183,346 1183,345 1183,345 1183,344 1184,344 1184,344 1185,344 1185,343 1185,343 1186,343 1186,340 1186,340 1186,338 1187,338 1187,336 1188,336 1188,336 1188,336 1188,335 1189,335 1189,333 1190,333 "/>
<rect x="1078" y="315" width="107" height="119" opacity="1" fill="#FFFFFF" stroke="none"/>
<rect x="1078" y="315" width="107" height="119" opacity="1" fill="none" stroke="#000000"/>
<text x="1118" y="325" dy="0.76em" text-anchor="start" font-family="sans-serif" font-size="9.67741935483871" opacity="1" fill="#000000">
anyhow
</text>
<text x="1118" y="340" dy="0.76em" text-anchor="start" font-family="sans-serif" font-size="9.67741935483871" opacity="1" fill="#000000">
err-derive
</text>
<text x="1118" y="355" dy="0.76em" text-anchor="start" font-family="sans-serif" font-size="9.67741935483871" opacity="1" fill="#000000">
error-chain
</text>
<text x="1118" y="370" dy="0.76em" text-anchor="start" font-family="sans-serif" font-size="9.67741935483871" opacity="1" fill="#000000">
failure
</text>
<text x="1118" y="385" dy="0.76em" text-anchor="start" font-family="sans-serif" font-size="9.67741935483871" opacity="1" fill="#000000">
quick-error
</text>
<text x="1118" y="400" dy="0.76em" text-anchor="start" font-family="sans-serif" font-size="9.67741935483871" opacity="1" fill="#000000">
snafu
</text>
<text x="1118" y="415" dy="0.76em" text-anchor="start" font-family="sans-serif" font-size="9.67741935483871" opacity="1" fill="#000000">
thiserror
</text>
<polyline fill="none" opacity="1" stroke="#E61919" stroke-width="2" points="1088,330 1108,330 "/>
<polyline fill="none" opacity="1" stroke="#E6C819" stroke-width="2" points="1088,344 1108,344 "/>
<polyline fill="none" opacity="1" stroke="#54E619" stroke-width="2" points="1088,359 1108,359 "/>
<polyline fill="none" opacity="1" stroke="#19E68E" stroke-width="2" points="1088,374 1108,374 "/>
<polyline fill="none" opacity="1" stroke="#198EE6" stroke-width="2" points="1088,390 1108,390 "/>
<polyline fill="none" opacity="1" stroke="#5419E6" stroke-width="2" points="1088,404 1108,404 "/>
<polyline fill="none" opacity="1" stroke="#E619C8" stroke-width="2" points="1088,419 1108,419 "/>
</svg>
