<svg width="1200" height="800" viewBox="0 0 1200 800" xmlns="http://www.w3.org/2000/svg">
<rect x="0" y="0" width="1199" height="799" opacity="1" fill="#FFFFFF" stroke="none"/>
<line opacity="0.1" stroke="#000000" stroke-width="1" x1="60" y1="728" x2="1190" y2="728"/>
<line opacity="0.1" stroke="#000000" stroke-width="1" x1="60" y1="718" x2="1190" y2="718"/>
<line opacity="0.1" stroke="#000000" stroke-width="1" x1="60" y1="707" x2="1190" y2="707"/>
<line opacity="0.1" stroke="#000000" stroke-width="1" x1="60" y1="697" x2="1190" y2="697"/>
<line opacity="0.1" stroke="#000000" stroke-width="1" x1="60" y1="686" x2="1190" y2="686"/>
<line opacity="0.1" stroke="#000000" stroke-width="1" x1="60" y1="676" x2="1190" y2="676"/>
<line opacity="0.1" stroke="#000000" stroke-width="1" x1="60" y1="666" x2="1190" y2="666"/>
<line opacity="0.1" stroke="#000000" stroke-width="1" x1="60" y1="655" x2="1190" y2="655"/>
<line opacity="0.1" stroke="#000000" stroke-width="1" x1="60" y1="645" x2="1190" y2="645"/>
<line opacity="0.1" stroke="#000000" stroke-width="1" x1="60" y1="634" x2="1190" y2="634"/>
<line opacity="0.1" stroke="#000000" stroke-width="1" x1="60" y1="624" x2="1190" y2="624"/>
<line opacity="0.1" stroke="#000000" stroke-width="1" x1="60" y1="613" x2="1190" y2="613"/>
<line opacity="0.1" stroke="#000000" stroke-width="1" x1="60" y1="603" x2="1190" y2="603"/>
<line opacity="0.1" stroke="#000000" stroke-width="1" x1="60" y1="592" x2="1190" y2="592"/>
<line opacity="0.1" stroke="#000000" stroke-width="1" x1="60" y1="582" x2="1190" y2="582"/>
<line opacity="0.1" stroke="#000000" stroke-width="1" x1="60" y1="571" x2="1190" y2="571"/>
<line opacity="0.1" stroke="#000000" stroke-width="1" x1="60" y1="561" x2="1190" y2="561"/>
<line opacity="0.1" stroke="#000000" stroke-width="1" x1="60" y1="550" x2="1190" y2="550"/>
<line opacity="0.1" stroke="#000000" stroke-width="1" x1="60" y1="540" x2="1190" y2="540"/>
<line opacity="0.1" stroke="#000000" stroke-width="1" x1="60" y1="530" x2="1190" y2="530"/>
<line opacity="0.1" stroke="#000000" stroke-width="1" x1="60" y1="519" x2="1190" y2="519"/>
<line opacity="0.1" stroke="#000000" stroke-width="1" x1="60" y1="509" x2="1190" y2="509"/>
<line opacity="0.1" stroke="#000000" stroke-width="1" x1="60" y1="498" x2="1190" y2="498"/>
<line opacity="0.1" stroke="#000000" stroke-width="1" x1="60" y1="488" x2="1190" y2="488"/>
<line opacity="0.1" stroke="#000000" stroke-width="1" x1="60" y1="477" x2="1190" y2="477"/>
<line opacity="0.1" stroke="#000000" stroke-width="1" x1="60" y1="467" x2="1190" y2="467"/>
<line opacity="0.1" stroke="#000000" stroke-width="1" x1="60" y1="456" x2="1190" y2="456"/>
<line opacity="0.1" stroke="#000000" stroke-width="1" x1="60" y1="446" x2="1190" y2="446"/>
<line opacity="0.1" stroke="#000000" stroke-width="1" x1="60" y1="435" x2="1190" y2="435"/>
<line opacity="0.1" stroke="#000000" stroke-width="1" x1="60" y1="425" x2="1190" y2="425"/>
<line opacity="0.1" stroke="#000000" stroke-width="1" x1="60" y1="414" x2="1190" y2="414"/>
<line opacity="0.1" stroke="#000000" stroke-width="1" x1="60" y1="404" x2="1190" y2="404"/>
<line opacity="0.1" stroke="#000000" stroke-width="1" x1="60" y1="393" x2="1190" y2="393"/>
<line opacity="0.1" stroke="#000000" stroke-width="1" x1="60" y1="383" x2="1190" y2="383"/>
<line opacity="0.1" stroke="#000000" stroke-width="1" x1="60" y1="373" x2="1190" y2="373"/>
<line opacity="0.1" stroke="#000000" stroke-width="1" x1="60" y1="362" x2="1190" y2="362"/>
<line opacity="0.1" stroke="#000000" stroke-width="1" x1="60" y1="352" x2="1190" y2="352"/>
<line opacity="0.1" stroke="#000000" stroke-width="1" x1="60" y1="341" x2="1190" y2="341"/>
<line opacity="0.1" stroke="#000000" stroke-width="1" x1="60" y1="331" x2="1190" y2="331"/>
<line opacity="0.1" stroke="#000000" stroke-width="1" x1="60" y1="320" x2="1190" y2="320"/>
<line opacity="0.1" stroke="#000000" stroke-width="1" x1="60" y1="310" x2="1190" y2="310"/>
<line opacity="0.1" stroke="#000000" stroke-width="1" x1="60" y1="299" x2="1190" y2="299"/>
<line opacity="0.1" stroke="#000000" stroke-width="1" x1="60" y1="289" x2="1190" y2="289"/>
<line opacity="0.1" stroke="#000000" stroke-width="1" x1="60" y1="278" x2="1190" y2="278"/>
<line opacity="0.1" stroke="#000000" stroke-width="1" x1="60" y1="268" x2="1190" y2="268"/>
<line opacity="0.1" stroke="#000000" stroke-width="1" x1="60" y1="257" x2="1190" y2="257"/>
<line opacity="0.1" stroke="#000000" stroke-width="1" x1="60" y1="247" x2="1190" y2="247"/>
<line opacity="0.1" stroke="#000000" stroke-width="1" x1="60" y1="236" x2="1190" y2="236"/>
<line opacity="0.1" stroke="#000000" stroke-width="1" x1="60" y1="226" x2="1190" y2="226"/>
<line opacity="0.1" stroke="#000000" stroke-width="1" x1="60" y1="216" x2="1190" y2="216"/>
<line opacity="0.1" stroke="#000000" stroke-width="1" x1="60" y1="205" x2="1190" y2="205"/>
<line opacity="0.1" stroke="#000000" stroke-width="1" x1="60" y1="195" x2="1190" y2="195"/>
<line opacity="0.1" stroke="#000000" stroke-width="1" x1="60" y1="184" x2="1190" y2="184"/>
<line opacity="0.1" stroke="#000000" stroke-width="1" x1="60" y1="174" x2="1190" y2="174"/>
<line opacity="0.1" stroke="#000000" stroke-width="1" x1="60" y1="163" x2="1190" y2="163"/>
<line opacity="0.1" stroke="#000000" stroke-width="1" x1="60" y1="153" x2="1190" y2="153"/>
<line opacity="0.1" stroke="#000000" stroke-width="1" x1="60" y1="142" x2="1190" y2="142"/>
<line opacity="0.1" stroke="#000000" stroke-width="1" x1="60" y1="132" x2="1190" y2="132"/>
<line opacity="0.1" stroke="#000000" stroke-width="1" x1="60" y1="121" x2="1190" y2="121"/>
<line opacity="0.1" stroke="#000000" stroke-width="1" x1="60" y1="111" x2="1190" y2="111"/>
<line opacity="0.1" stroke="#000000" stroke-width="1" x1="60" y1="100" x2="1190" y2="100"/>
<line opacity="0.1" stroke="#000000" stroke-width="1" x1="60" y1="90" x2="1190" y2="90"/>
<line opacity="0.1" stroke="#000000" stroke-width="1" x1="60" y1="80" x2="1190" y2="80"/>
<line opacity="0.1" stroke="#000000" stroke-width="1" x1="60" y1="69" x2="1190" y2="69"/>
<line opacity="0.1" stroke="#000000" stroke-width="1" x1="60" y1="59" x2="1190" y2="59"/>
<line opacity="0.1" stroke="#000000" stroke-width="1" x1="60" y1="48" x2="1190" y2="48"/>
<line opacity="0.1" stroke="#000000" stroke-width="1" x1="60" y1="38" x2="1190" y2="38"/>
<line opacity="0.1" stroke="#000000" stroke-width="1" x1="60" y1="27" x2="1190" y2="27"/>
<line opacity="0.1" stroke="#000000" stroke-width="1" x1="60" y1="17" x2="1190" y2="17"/>
<text x="10" y="375" dy="0.76em" text-anchor="middle" font-family="sans-serif" font-size="9.67741935483871" opacity="1" fill="#000000" transform="rotate(270, 10, 375)">
Fraction of dependent crates
</text>
<line opacity="0.2" stroke="#000000" stroke-width="1" x1="60" y1="634" x2="1190" y2="634"/>
<line opacity="0.2" stroke="#000000" stroke-width="1" x1="60" y1="530" x2="1190" y2="530"/>
<line opacity="0.2" stroke="#000000" stroke-width="1" x1="60" y1="425" x2="1190" y2="425"/>
<line opacity="0.2" stroke="#000000" stroke-width="1" x1="60" y1="320" x2="1190" y2="320"/>
<line opacity="0.2" stroke="#000000" stroke-width="1" x1="60" y1="216" x2="1190" y2="216"/>
<polyline fill="none" opacity="1" stroke="#000000" stroke-width="1" points="59,10 59,740 "/>
<text x="50" y="634" dy="0.5ex" text-anchor="end" font-family="sans-serif" font-size="9.67741935483871" opacity="1" fill="#000000">
0.01
</text>
<polyline fill="none" opacity="1" stroke="#000000" stroke-width="1" points="54,634 59,634 "/>
<text x="50" y="530" dy="0.5ex" text-anchor="end" font-family="sans-serif" font-size="9.67741935483871" opacity="1" fill="#000000">
0.02
</text>
<polyline fill="none" opacity="1" stroke="#000000" stroke-width="1" points="54,530 59,530 "/>
<text x="50" y="425" dy="0.5ex" text-anchor="end" font-family="sans-serif" font-size="9.67741935483871" opacity="1" fill="#000000">
0.03
</text>
<polyline fill="none" opacity="1" stroke="#000000" stroke-width="1" points="54,425 59,425 "/>
<text x="50" y="320" dy="0.5ex" text-anchor="end" font-family="sans-serif" font-size="9.67741935483871" opacity="1" fill="#000000">
0.04
</text>
<polyline fill="none" opacity="1" stroke="#000000" stroke-width="1" points="54,320 59,320 "/>
<text x="50" y="216" dy="0.5ex" text-anchor="end" font-family="sans-serif" font-size="9.67741935483871" opacity="1" fill="#000000">
0.05
</text>
<polyline fill="none" opacity="1" stroke="#000000" stroke-width="1" points="54,216 59,216 "/>
<polyline fill="none" opacity="1" stroke="#000000" stroke-width="1" points="60,740 1190,740 "/>
<text x="60" y="750" dy="0.76em" text-anchor="middle" font-family="sans-serif" font-size="9.67741935483871" opacity="1" fill="#000000">
2015-09-24Z
</text>
<polyline fill="none" opacity="1" stroke="#000000" stroke-width="1" points="60,740 60,745 "/>
<text x="175" y="750" dy="0.76em" text-anchor="middle" font-family="sans-serif" font-size="9.67741935483871" opacity="1" fill="#000000">
2016-04-07Z
</text>
<polyline fill="none" opacity="1" stroke="#000000" stroke-width="1" points="175,740 175,745 "/>
<text x="290" y="750" dy="0.76em" text-anchor="middle" font-family="sans-serif" font-size="9.67741935483871" opacity="1" fill="#000000">
2016-10-20Z
</text>
<polyline fill="none" opacity="1" stroke="#000000" stroke-width="1" points="290,740 290,745 "/>
<text x="405" y="750" dy="0.76em" text-anchor="middle" font-family="sans-serif" font-size="9.67741935483871" opacity="1" fill="#000000">
2017-05-04Z
</text>
<polyline fill="none" opacity="1" stroke="#000000" stroke-width="1" points="405,740 405,745 "/>
<text x="521" y="750" dy="0.76em" text-anchor="middle" font-family="sans-serif" font-size="9.67741935483871" opacity="1" fill="#000000">
2017-11-16Z
</text>
<polyline fill="none" opacity="1" stroke="#000000" stroke-width="1" points="521,740 521,745 "/>
<text x="636" y="750" dy="0.76em" text-anchor="middle" font-family="sans-serif" font-size="9.67741935483871" opacity="1" fill="#000000">
2018-05-31Z
</text>
<polyline fill="none" opacity="1" stroke="#000000" stroke-width="1" points="636,740 636,745 "/>
<text x="751" y="750" dy="0.76em" text-anchor="middle" font-family="sans-serif" font-size="9.67741935483871" opacity="1" fill="#000000">
2018-12-13Z
</text>
<polyline fill="none" opacity="1" stroke="#000000" stroke-width="1" points="751,740 751,745 "/>
<text x="867" y="750" dy="0.76em" text-anchor="middle" font-family="sans-serif" font-size="9.67741935483871" opacity="1" fill="#000000">
2019-06-27Z
</text>
<polyline fill="none" opacity="1" stroke="#000000" stroke-width="1" points="867,740 867,745 "/>
<text x="982" y="750" dy="0.76em" text-anchor="middle" font-family="sans-serif" font-size="9.67741935483871" opacity="1" fill="#000000">
2020-01-09Z
</text>
<polyline fill="none" opacity="1" stroke="#000000" stroke-width="1" points="982,740 982,745 "/>
<text x="1097" y="750" dy="0.76em" text-anchor="middle" font-family="sans-serif" font-size="9.67741935483871" opacity="1" fill="#000000">
2020-07-23Z
</text>
<polyline fill="none" opacity="1" stroke="#000000" stroke-width="1" points="1097,740 1097,745 "/>
<polyline fill="none" opacity="1" stroke="#E61919" stroke-width="2" points="927,738 928,738 928,738 929,738 930,738 930,738 931,738 932,737 932,737 932,737 933,737 934,737 934,736 935,735 935,735 936,735 937,735 937,734 938,734 938,733 939,733 940,733 940,732 941,732 942,732 942,731 943,730 944,729 944,727 945,723 945,723 946,723 947,723 947,722 948,722 948,722 949,720 950,717 950,716 951,716 951,715 952,715 952,714 953,714 954,713 954,713 955,711 955,711 956,710 957,710 957,710 958,710 958,709 959,709 960,707 960,707 961,706 961,706 962,706 962,706 963,706 964,704 964,704 965,704 965,704 966,703 967,703 967,702 968,703 968,702 969,702 970,701 970,701 971,701 971,700 972,700 972,699 973,699 974,698 974,698 975,697 975,697 976,696 977,695 977,695 978,693 978,692 979,692 980,691 980,691 981,690 981,688 982,687 982,686 983,686 984,685 984,683 985,682 985,681 986,681 987,681 987,680 988,680 988,680 989,680 990,679 990,679 991,676 991,675 992,675 992,675 993,674 994,674 994,673 995,673 995,673 996,673 997,671 997,670 998,669 998,669 999,668 1000,667 1000,667 1001,666 1001,666 1002,666 1002,666 1003,665 1004,665 1004,664 1005,664 1005,662 1006,662 1007,662 1007,662 1008,662 1008,662 1009,661 1010,661 1010,660 1011,659 1011,659 1012,659 1012,658 1013,657 1014,657 1014,656 1015,657 1015,656 1015,656 1016,656 1016,656 1017,655 1017,655 1017,654 1018,654 1018,654 1018,653 1019,653 1019,651 1020,651 1020,647 1020,647 1020,646 1021,646 1021,645 1021,645 1021,645 1022,645 1022,644 1022,644 1022,643 1023,643 1023,643 1024,643 1024,642 1024,642 1024,642 1025,641 1025,641 1025,640 1026,640 1027,640 1027,639 1027,639 1027,638 1028,638 1028,637 1028,637 1028,637 1029,637 1029,636 1030,636 1030,636 1030,636 1031,636 1031,635 1031,635 1031,635 1032,635 1032,634 1032,634 1032,633 1033,633 1033,633 1034,633 1034,632 1034,632 1034,631 1035,631 1035,629 1035,629 1035,627 1036,625 1037,625 1037,624 1037,624 1037,623 1038,623 1038,622 1038,622 1038,621 1039,621 1039,621 1040,621 1040,620 1040,620 1040,619 1041,619 1041,617 1041,617 1041,617 1042,617 1042,615 1042,615 1042,614 1043,614 1044,613 1044,613 1044,613 1045,613 1045,612 1045,612 1045,610 1046,610 1046,610 1047,610 1047,610 1047,610 1047,610 1048,610 1048,609 1048,609 1048,609 1049,609 1049,608 1050,607 1050,607 1050,605 1051,605 1051,604 1051,604 1051,603 1052,603 1052,601 1052,601 1052,599 1053,599 1054,599 1054,599 1054,599 1054,598 1055,598 1055,596 1055,596 1055,594 1056,594 1056,593 1057,593 1057,593 1057,593 1057,592 1058,592 1058,591 1058,591 1058,587 1059,587 1059,585 1060,585 1060,582 1060,582 1060,581 1061,581 1061,580 1061,580 1061,579 1062,579 1062,578 1062,578 1062,576 1063,576 1063,576 1064,576 1064,575 1064,574 1065,574 1065,572 1065,572 1065,570 1066,570 1066,569 1067,569 1067,567 1067,567 1067,567 1068,567 1068,566 1068,566 1068,565 1069,565 1069,564 1070,564 1070,562 1070,561 1071,561 1071,558 1071,558 1071,557 1072,557 1072,556 1072,556 1072,555 1073,555 1073,554 1074,552 1074,551 1075,551 1075,550 1075,549 1076,549 1076,549 1077,549 1077,548 1077,548 1077,547 1078,547 1078,546 1078,546 1078,545 1079,545 1079,545 1080,545 1080,544 1080,544 1080,544 1081,544 1081,544 1081,544 1081,543 1082,542 1082,542 1082,542 1083,542 1083,541 1084,541 1084,539 1084,539 1084,538 1085,538 1085,538 1085,538 1085,537 1086,537 1086,536 1087,536 1087,534 1087,534 1087,534 1088,534 1088,533 1088,533 1088,533 1089,533 1089,532 1090,532 1090,532 1090,532 1090,531 1091,531 1091,531 1091,530 1092,530 1092,529 1092,529 1092,529 1093,529 1093,528 1094,528 1094,528 1094,528 1094,527 1095,527 1095,527 1095,527 1095,525 1096,525 1097,525 1097,524 1097,524 1097,523 1098,523 1098,522 1098,522 1098,522 1099,522 1099,521 1100,521 1100,519 1100,519 1100,519 1101,519 1101,518 1101,518 1101,517 1102,517 1102,517 1102,517 1102,516 1103,516 1103,514 1104,514 1104,513 1104,513 1104,513 1105,513 1105,512 1105,512 1105,510 1106,510 1106,509 1107,509 1107,507 1107,507 1108,507 1108,506 1108,506 1108,504 1109,504 1109,503 1110,503 1110,501 1110,502 1110,501 1111,501 1111,498 1111,498 1111,498 1112,498 1112,496 1112,496 1112,496 1113,496 1113,494 1114,494 1114,493 1114,493 1114,493 1115,493 1115,492 1115,492 1115,492 1116,492 1116,490 1117,490 1117,489 1117,489 1117,489 1118,489 1118,489 1118,489 1118,487 1119,487 1119,486 1120,486 1120,485 1120,485 1120,483 1121,483 1121,481 1121,481 1121,476 1122,476 1122,474 1122,474 1122,474 1123,474 1123,473 1124,473 1124,473 1124,472 1125,472 1125,471 1125,469 1126,469 1126,469 1127,469 1127,468 1127,468 1127,467 1128,467 1128,465 1128,465 1128,465 1129,465 1129,463 1130,463 1130,462 1130,461 1130,461 1131,461 1131,458 1131,458 1131,458 1132,457 1132,457 1132,456 1133,456 1133,455 1134,455 1134,453 1134,453 1134,453 1135,453 1135,453 1135,453 1135,453 1136,453 1136,452 1137,452 1137,451 1137,451 1137,451 1138,451 1138,450 1138,450 1138,449 1139,449 1139,448 1140,448 1140,448 1140,448 1140,447 1141,447 1141,447 1141,447 1141,447 1142,447 1142,447 1142,447 1142,447 1143,447 1143,447 1144,447 1144,446 1144,446 1144,445 1145,445 1145,444 1145,444 1145,444 1146,444 1146,444 1147,444 1147,444 1147,444 1147,443 1148,443 1148,442 1148,442 1148,441 1149,441 1149,440 1150,440 1150,439 1150,439 1150,439 1151,439 1151,438 1151,438 1151,436 1152,436 1152,435 1152,435 1152,434 1153,434 1153,434 1154,434 1154,433 1154,433 1154,430 1155,430 1155,429 1155,429 1155,429 1156,429 1156,429 1157,429 1157,428 1157,428 1157,427 1158,427 1158,427 1158,427 1158,427 1159,427 1159,427 1160,425 1160,425 1160,423 1161,423 1161,422 1161,422 1161,421 1162,421 1162,420 1162,420 1162,418 1163,418 1163,418 1164,418 1164,418 1164,418 1164,417 1165,417 1165,417 1165,417 1165,416 1166,416 1166,417 1167,417 1167,416 1167,416 1167,415 1168,415 1168,415 1168,415 1168,414 1169,414 1169,414 1170,414 1170,413 1170,413 1170,412 1171,412 1171,423 1171,423 1172,423 1172,423 1172,423 1172,422 1173,422 1173,420 1174,420 1174,420 1174,419 1175,419 1175,419 1175,419 1175,418 1176,418 1176,418 1177,418 1177,417 1177,417 1177,417 1178,417 1178,416 1178,416 1178,416 1179,416 1179,416 1180,416 1180,415 1180,415 1180,414 1181,414 1181,414 1181,414 1181,414 1182,414 1182,414 1182,414 1182,414 1183,414 1183,414 1184,414 1184,413 1184,413 1184,413 1185,413 1185,413 1185,413 1185,413 1186,413 1186,412 1187,412 1187,412 1187,412 1187,412 1188,412 1188,412 1188,412 1188,412 1189,412 1189,411 1190,411 "/>
<polyline fill="none" opacity="1" stroke="#E6C819" stroke-width="2" points="761,738 767,738 772,737 774,736 795,736 801,736 814,735 815,734 818,734 820,734 822,733 823,733 824,733 825,733 825,733 826,733 830,733 830,733 831,733 831,732 834,732 834,732 835,732 835,732 836,732 837,732 838,732 838,732 839,732 840,732 840,731 841,731 842,732 843,732 845,732 845,732 846,732 847,732 847,732 848,732 849,732 850,732 851,732 851,732 852,732 853,732 854,731 854,731 855,731 857,731 858,731 858,731 860,731 860,730 861,730 861,730 862,730 862,730 863,729 864,729 864,729 865,729 865,729 866,729 867,729 867,729 868,729 868,729 869,728 870,728 870,728 871,728 871,728 872,729 872,729 873,729 874,729 874,729 875,729 876,729 877,728 877,728 878,727 878,727 879,728 880,728 880,728 881,728 881,728 882,728 882,728 884,728 884,728 885,727 885,727 886,727 887,727 888,727 888,727 889,727 890,727 890,727 891,727 891,727 892,727 892,727 893,727 894,727 894,727 895,727 895,727 896,727 897,727 897,727 898,727 898,727 899,727 900,727 901,727 901,727 902,727 902,727 903,727 904,726 904,726 905,726 905,725 906,725 907,725 907,725 908,725 908,725 909,725 910,725 910,725 911,725 911,725 912,725 912,725 913,725 914,725 914,725 915,725 915,725 916,725 917,725 917,725 918,725 918,725 919,725 920,725 921,725 921,725 922,725 923,724 924,724 924,724 925,723 926,723 927,723 927,723 928,723 928,723 929,723 930,724 931,724 931,723 932,723 932,723 932,723 933,723 934,723 934,723 935,723 935,723 936,723 937,723 938,723 938,723 939,723 940,724 940,724 941,724 941,724 942,724 942,724 943,724 944,724 944,724 945,724 945,724 946,723 947,723 947,723 948,723 948,723 950,723 950,723 951,723 951,723 952,724 952,724 953,724 954,724 954,724 955,724 955,724 956,724 957,724 957,724 958,724 958,724 960,724 960,724 961,724 961,724 962,724 962,723 963,724 964,724 964,724 965,724 965,724 966,724 967,724 967,724 968,724 968,724 969,724 970,724 970,724 971,724 972,724 972,724 973,724 974,724 974,724 975,724 975,724 976,724 977,724 977,724 978,724 978,724 979,724 980,724 981,724 981,724 982,724 982,724 983,724 984,724 984,724 985,724 985,724 986,724 987,724 987,724 988,724 988,724 989,724 990,724 990,724 991,724 991,724 992,724 992,724 993,724 994,724 994,724 995,724 995,724 996,724 997,724 997,723 998,723 998,723 999,722 1000,722 1000,722 1001,722 1001,722 1002,722 1002,723 1003,723 1004,723 1004,722 1005,722 1005,722 1006,722 1007,722 1007,722 1008,722 1008,722 1010,722 1010,722 1011,722 1011,722 1012,722 1012,722 1013,722 1014,722 1014,722 1015,722 1015,722 1015,722 1016,722 1016,722 1017,722 1017,722 1017,722 1018,722 1018,722 1018,722 1019,722 1019,722 1020,722 1020,722 1020,722 1020,723 1021,723 1021,723 1021,723 1021,723 1022,723 1022,723 1022,723 1022,723 1023,723 1023,723 1024,723 1024,723 1024,723 1024,722 1025,722 1025,722 1025,722 1026,722 1027,722 1027,722 1027,722 1027,722 1028,722 1028,722 1028,722 1028,722 1029,722 1029,722 1030,722 1030,722 1030,722 1031,722 1031,722 1031,722 1031,722 1032,722 1032,722 1032,722 1032,722 1033,722 1033,722 1034,722 1034,722 1034,722 1034,722 1035,722 1035,722 1035,722 1035,722 1036,722 1037,722 1037,722 1037,722 1037,722 1038,722 1038,722 1038,722 1038,722 1039,722 1039,722 1040,722 1040,722 1040,722 1040,722 1041,722 1041,722 1041,722 1041,722 1042,722 1042,722 1042,722 1042,722 1043,722 1044,722 1044,722 1044,722 1045,722 1045,722 1045,722 1045,722 1046,722 1046,722 1047,722 1047,722 1047,722 1047,722 1048,722 1048,722 1048,722 1048,722 1049,722 1049,722 1050,722 1050,722 1050,722 1051,722 1051,722 1051,722 1051,722 1052,722 1052,722 1052,722 1053,722 1054,722 1054,722 1054,722 1054,722 1055,722 1055,722 1055,722 1055,722 1056,722 1056,722 1057,722 1057,722 1057,722 1057,722 1058,722 1058,722 1058,722 1058,722 1059,722 1059,722 1060,722 1060,722 1060,722 1060,722 1061,722 1061,722 1061,722 1061,722 1062,722 1062,722 1062,722 1062,722 1063,722 1063,722 1064,722 1064,722 1064,722 1065,722 1065,722 1065,722 1065,722 1066,722 1066,722 1067,722 1067,722 1067,722 1067,722 1068,722 1068,722 1068,722 1068,722 1069,722 1069,722 1070,722 1070,722 1070,723 1071,723 1071,723 1071,723 1071,723 1072,723 1072,723 1072,723 1072,723 1073,723 1073,723 1074,723 1074,723 1075,723 1075,723 1075,723 1076,723 1076,723 1077,723 1077,723 1077,723 1077,723 1078,723 1078,723 1078,723 1078,723 1079,723 1079,723 1080,723 1080,723 1080,723 1080,723 1081,723 1081,723 1081,723 1081,723 1082,723 1082,723 1082,723 1083,723 1083,723 1084,723 1084,723 1084,723 1084,723 1085,723 1085,723 1085,723 1085,723 1086,723 1086,723 1087,723 1087,723 1087,723 1087,723 1088,723 1088,723 1088,723 1088,723 1089,723 1089,723 1090,723 1090,723 1090,723 1090,723 1091,723 1091,723 1091,723 1092,723 1092,723 1092,723 1092,723 1093,723 1093,723 1094,723 1094,723 1094,723 1094,723 1095,723 1095,723 1095,723 1096,723 1097,723 1097,723 1097,723 1097,723 1098,723 1098,723 1098,723 1098,723 1099,723 1099,723 1100,723 1100,723 1100,723 1100,723 1101,723 1101,723 1101,723 1101,723 1102,723 1102,723 1102,723 1102,723 1103,723 1103,723 1104,723 1104,723 1104,723 1104,724 1105,724 1105,724 1105,724 1105,724 1106,724 1106,724 1107,724 1107,724 1107,724 1108,724 1108,724 1108,724 1108,724 1109,724 1109,724 1110,724 1110,724 1110,724 1110,724 1111,724 1111,724 1111,724 1111,724 1112,724 1112,724 1112,724 1112,724 1113,724 1113,724 1114,724 1114,724 1114,724 1114,724 1115,724 1115,724 1115,724 1115,724 1116,724 1116,724 1117,724 1117,724 1117,724 1117,724 1118,724 1118,724 1118,724 1118,724 1119,724 1119,724 1120,724 1120,724 1120,724 1120,724 1121,724 1121,724 1121,724 1122,724 1122,724 1122,724 1122,724 1123,724 1123,724 1124,724 1124,724 1124,724 1125,724 1125,724 1125,724 1126,724 1126,724 1127,724 1127,724 1127,724 1127,724 1128,724 1128,724 1128,724 1128,724 1129,724 1129,724 1130,724 1130,724 1130,724 1130,724 1131,724 1131,724 1131,724 1131,724 1132,724 1132,724 1132,724 1133,724 1133,724 1134,724 1134,724 1134,724 1134,724 1135,724 1135,724 1135,724 1135,724 1136,724 1136,724 1137,724 1137,724 1137,724 1138,724 1138,724 1138,724 1138,724 1139,724 1139,724 1140,724 1140,724 1140,724 1140,724 1141,724 1141,724 1141,724 1142,724 1142,724 1142,724 1142,724 1143,724 1143,724 1144,724 1144,724 1144,724 1144,724 1145,724 1145,724 1145,724 1145,724 1146,724 1146,724 1147,724 1147,724 1147,724 1147,724 1148,724 1148,724 1148,724 1148,724 1149,724 1150,724 1150,724 1150,724 1150,724 1151,724 1151,724 1151,724 1151,724 1152,724 1152,724 1152,724 1152,724 1153,724 1153,724 1154,724 1154,724 1154,724 1154,724 1155,724 1155,724 1155,724 1155,724 1156,724 1156,724 1157,724 1157,724 1157,724 1157,724 1158,724 1158,725 1158,725 1158,725 1159,725 1159,725 1160,725 1160,725 1160,725 1161,725 1161,725 1161,725 1161,725 1162,725 1162,725 1162,725 1162,725 1163,725 1163,725 1164,725 1164,725 1164,725 1164,725 1165,725 1165,725 1165,725 1165,725 1166,725 1166,725 1167,725 1167,725 1167,725 1167,725 1168,725 1168,725 1168,725 1168,725 1169,725 1169,725 1170,725 1170,725 1170,725 1170,725 1171,725 1171,726 1171,726 1172,726 1172,726 1172,726 1172,726 1173,726 1173,726 1174,726 1174,725 1174,725 1174,725 1175,725 1175,725 1175,725 1175,725 1176,725 1176,725 1177,725 1177,725 1177,725 1177,725 1178,725 1178,725 1178,725 1178,725 1179,725 1179,725 1180,725 1180,725 1180,725 1180,725 1181,725 1181,725 1181,725 1181,725 1182,725 1182,725 1182,725 1182,725 1183,725 1183,725 1184,725 1184,725 1184,725 1184,725 1185,725 1185,725 1185,725 1185,725 1186,725 1186,725 1187,725 1187,725 1187,725 1187,725 1188,725 1188,725 1188,725 1188,725 1189,725 1190,725 "/>
<polyline fill="none" opacity="1" stroke="#54E619" stroke-width="2" points="219,737 220,733 224,735 229,733 235,731 236,729 237,727 241,726 252,724 252,724 254,721 258,719 260,716 260,714 261,714 262,712 265,711 266,713 268,710 268,705 270,703 271,702 275,700 277,699 277,699 279,691 280,686 281,683 281,681 285,681 286,679 287,678 288,676 289,675 290,675 290,673 291,674 291,674 292,674 293,673 294,673 294,673 295,673 295,673 296,671 297,670 297,670 298,669 298,667 299,667 300,664 300,663 301,661 301,657 302,656 303,654 304,653 305,653 305,650 309,651 310,650 310,648 311,647 311,645 312,644 313,643 314,641 314,637 315,633 316,632 317,626 318,625 318,623 319,622 320,622 321,619 321,618 322,617 323,616 324,614 324,612 325,611 325,603 326,600 327,596 327,586 328,585 328,584 329,584 330,583 330,582 331,577 331,574 332,575 332,569 334,567 334,567 335,566 335,565 336,566 337,566 337,566 338,562 338,562 339,561 340,560 340,553 341,554 341,554 342,555 342,555 343,555 344,553 345,553 347,553 347,551 348,548 348,549 349,548 350,548 350,549 351,548 351,548 352,548 352,547 353,548 354,544 354,544 355,542 355,540 356,538 357,539 357,539 358,536 358,532 359,530 360,530 361,527 361,523 362,523 362,523 363,523 364,524 364,523 365,522 365,521 366,521 367,522 367,518 368,519 368,519 369,517 370,517 370,515 371,513 371,511 372,511 372,509 373,509 374,507 374,504 375,504 375,505 376,505 377,504 377,503 378,497 378,496 379,492 380,491 380,492 381,492 381,490 382,489 382,485 383,483 384,482 384,481 385,479 385,479 386,479 387,479 387,479 388,478 388,479 389,479 390,480 390,477 391,478 391,478 392,478 392,476 393,475 394,473 394,472 395,470 395,469 396,468 397,467 397,464 398,463 398,463 399,462 400,463 400,464 401,462 401,461 402,461 402,457 403,454 404,452 404,450 405,448 405,449 406,446 407,446 407,445 408,444 408,444 409,441 410,441 410,441 411,438 411,437 412,436 412,431 413,427 414,427 414,427 415,429 415,425 416,421 417,420 417,421 418,420 418,419 419,419 420,420 420,419 421,421 421,417 422,414 422,413 423,413 424,413 424,414 425,414 425,413 426,414 427,412 427,412 428,412 428,412 429,410 430,407 430,407 431,406 431,405 432,401 432,401 433,401 434,400 434,399 435,398 435,398 436,396 437,396 437,394 438,394 438,393 439,392 440,391 440,390 441,390 441,391 442,389 442,390 443,391 444,390 444,389 445,388 445,387 446,386 447,387 447,384 448,383 448,377 449,377 450,378 450,374 451,371 451,369 452,367 452,366 453,366 454,364 454,361 455,360 455,360 456,358 457,358 457,356 458,356 458,356 459,356 460,355 460,354 461,353 461,352 462,354 462,353 463,352 464,351 464,350 465,349 465,348 466,345 467,345 467,346 468,346 468,343 469,342 470,340 470,338 471,338 471,337 472,337 472,334 473,334 474,334 474,330 475,329 475,329 476,327 477,323 477,322 478,322 478,322 479,321 480,318 480,317 481,315 481,316 482,316 482,315 483,315 484,314 484,313 485,313 485,315 486,315 487,315 487,316 488,316 488,316 489,316 490,296 490,295 491,294 491,295 492,293 492,290 493,289 494,288 494,288 495,287 495,287 496,286 497,284 497,286 498,285 498,284 499,282 500,281 500,281 501,279 501,278 502,277 502,278 503,278 504,279 504,279 505,279 505,278 506,279 507,280 507,280 508,281 508,281 509,281 510,280 510,279 511,280 511,280 512,280 512,280 513,280 514,280 514,281 515,280 515,276 516,275 517,273 517,273 518,273 518,273 519,274 520,271 520,268 521,269 521,270 522,270 522,270 523,270 524,270 524,270 525,270 525,269 526,269 527,271 527,271 528,271 528,270 529,268 530,268 530,268 531,268 531,266 532,267 532,264 533,263 534,263 534,264 535,263 535,264 536,266 537,267 537,269 538,267 538,267 539,266 540,265 540,265 541,264 541,265 542,264 542,263 543,261 544,260 544,261 545,261 545,258 546,256 547,255 547,255 548,254 548,254 549,254 550,254 550,256 551,254 551,254 552,254 552,255 553,256 554,256 554,254 555,255 555,256 556,256 557,257 557,257 558,257 558,256 559,255 560,256 560,257 561,258 561,259 562,259 562,260 563,260 564,261 564,265 565,265 565,265 566,266 567,266 567,265 568,266 568,266 569,267 570,267 570,267 571,267 571,267 572,267 572,268 573,268 574,267 574,266 575,267 575,268 576,269 577,269 577,269 578,271 578,271 579,271 580,272 580,273 581,274 581,275 582,277 582,277 583,278 584,283 584,284 585,285 585,286 586,285 587,286 587,286 588,287 588,288 589,285 590,285 590,285 591,286 591,287 592,288 592,289 593,290 594,290 594,289 595,289 595,290 596,291 597,291 597,292 598,293 598,295 599,295 600,294 600,295 601,295 601,294 602,294 602,294 603,295 604,297 604,297 605,298 605,298 606,299 607,300 607,300 608,300 608,300 609,301 610,303 610,304 611,303 611,303 612,304 612,305 613,304 614,305 614,304 615,305 615,306 616,307 617,307 617,306 618,306 618,306 619,307 620,308 620,309 621,308 621,309 622,308 622,309 623,309 624,310 624,311 625,312 625,313 626,313 627,314 627,313 628,313 628,311 629,312 630,312 630,312 631,312 631,313 632,316 632,316 633,317 634,318 634,320 635,320 635,321 636,321 637,321 637,321 638,321 638,320 639,320 640,322 640,322 641,321 641,321 642,322 642,323 643,323 644,323 644,323 645,323 645,324 646,324 647,325 647,325 648,326 648,325 649,326 650,326 650,327 651,328 651,328 652,329 652,329 653,330 654,330 654,330 655,330 655,330 656,331 657,331 657,331 658,331 658,332 659,332 660,332 660,332 661,332 661,333 662,333 662,334 663,331 664,332 664,332 665,331 665,332 666,332 667,335 667,336 668,336 668,336 669,337 670,337 670,338 671,338 671,339 672,340 672,341 673,341 674,342 674,344 675,345 675,345 676,347 677,347 677,347 678,347 678,348 679,348 680,350 680,350 681,351 681,352 682,351 682,353 683,353 684,354 684,354 685,353 685,352 686,352 687,355 687,355 688,356 688,356 689,356 690,359 690,359 691,360 691,360 692,360 692,360 693,360 694,360 694,360 695,361 695,361 696,362 697,363 697,363 698,363 698,364 699,364 700,364 700,365 701,365 701,365 702,365 702,365 703,366 704,366 704,366 705,366 705,367 705,367 706,366 707,367 707,366 708,367 708,368 709,369 710,371 710,373 711,372 711,372 712,372 712,372 713,372 714,373 714,373 715,374 715,375 716,376 717,379 717,376 718,377 718,377 719,379 720,379 720,379 721,380 721,380 722,381 722,381 723,382 724,382 724,382 725,382 725,382 726,383 727,384 727,383 728,383 728,383 729,384 730,384 730,384 731,385 731,387 732,400 732,401 733,402 734,402 734,402 735,403 735,402 736,402 737,403 737,404 738,403 738,404 739,404 740,404 740,404 741,405 741,405 742,405 742,406 743,406 744,407 744,407 745,407 745,408 746,407 747,408 747,408 748,409 748,410 749,411 750,411 750,411 751,412 751,412 752,413 752,413 753,413 754,414 754,415 755,415 755,415 756,416 757,416 757,417 758,417 758,418 759,418 760,419 760,419 761,420 761,419 762,420 762,420 763,422 764,422 764,423 765,424 765,425 766,426 767,438 767,438 768,438 768,426 769,427 770,427 770,427 771,429 771,429 772,429 772,430 773,429 774,430 774,430 775,429 775,430 776,430 777,431 777,431 778,431 778,430 779,431 780,431 780,431 781,432 781,432 782,433 782,434 783,434 784,436 784,436 785,437 785,437 786,437 787,438 787,438 788,439 788,440 789,439 790,439 790,440 791,440 791,440 792,439 792,440 793,440 794,440 794,441 795,441 795,442 796,442 797,443 797,443 798,443 798,444 799,445 800,445 800,446 801,446 801,446 802,446 802,447 803,447 804,448 804,448 805,449 805,449 806,450 807,450 807,451 808,451 808,451 809,451 810,452 810,453 811,453 811,453 812,454 812,454 813,454 814,455 814,455 815,455 815,456 816,456 817,457 817,457 818,458 818,456 819,456 820,456 820,457 821,458 821,458 822,458 822,459 823,459 824,459 824,460 825,460 825,461 826,461 827,461 827,461 828,462 828,462 829,463 830,463 830,464 831,464 831,464 832,464 832,465 833,465 834,465 834,466 835,467 835,468 836,468 837,468 837,469 838,469 838,470 839,470 840,471 840,472 841,471 841,472 842,472 842,472 843,473 844,473 844,474 845,474 845,474 846,474 847,475 847,475 848,476 848,475 849,476 850,475 850,475 851,475 851,475 852,475 852,476 853,476 854,477 854,477 855,477 855,478 856,478 857,478 857,478 858,479 858,479 859,479 860,480 860,481 861,481 861,481 862,482 862,482 863,482 864,482 864,483 865,483 865,483 866,484 867,484 867,484 868,484 868,485 869,485 870,486 870,486 871,486 871,486 872,486 872,486 873,487 874,487 874,487 875,487 875,487 876,488 877,487 877,488 878,488 878,488 879,489 880,489 880,490 881,490 881,490 882,490 882,491 883,491 884,491 884,491 885,492 885,492 886,492 887,492 887,493 888,493 888,493 889,493 890,493 890,493 891,493 891,494 892,494 892,494 893,494 894,495 894,496 895,496 895,497 896,497 897,497 897,497 898,497 898,497 899,498 900,498 900,498 901,499 901,499 902,499 902,499 903,500 904,500 904,500 905,500 905,500 906,501 907,501 907,502 908,502 908,502 909,502 910,503 910,503 911,504 911,504 912,504 912,504 913,505 914,505 914,505 915,505 915,506 916,506 917,506 917,506 918,507 918,505 919,506 920,506 920,506 921,506 921,506 922,507 922,507 923,507 924,507 924,507 925,508 925,508 926,508 927,508 927,508 928,509 928,509 929,508 930,509 930,509 931,510 931,511 932,511 932,511 932,511 933,512 934,512 934,512 935,512 935,513 936,513 937,513 937,513 938,513 938,514 939,514 940,515 940,515 941,515 941,515 942,515 942,516 943,515 944,516 944,516 945,516 945,516 946,516 947,516 947,516 948,516 948,516 949,516 950,516 950,517 951,517 951,518 952,518 952,519 953,519 954,519 954,519 955,520 955,520 956,520 957,521 957,521 958,521 958,521 959,521 960,521 960,522 961,522 961,522 962,522 962,522 963,523 964,523 964,523 965,524 965,524 966,524 967,524 967,525 968,525 968,526 969,526 970,526 970,526 971,526 971,526 972,527 972,527 973,527 974,527 974,527 975,528 975,528 976,528 977,528 977,528 978,529 978,529 979,530 980,530 980,530 981,531 981,531 982,532 982,532 983,533 984,533 984,533 985,533 985,533 986,535 987,535 987,535 988,536 988,537 989,537 990,537 990,537 991,538 991,538 992,538 992,539 993,539 994,539 994,539 995,539 995,539 996,539 997,540 997,540 998,540 998,541 999,541 1000,542 1000,541 1001,541 1001,541 1002,541 1002,541 1003,542 1004,542 1004,542 1005,542 1005,543 1006,543 1007,544 1007,544 1008,543 1008,544 1009,544 1010,544 1010,544 1011,545 1011,545 1012,545 1012,545 1013,545 1014,546 1014,546 1015,546 1015,546 1015,546 1016,546 1016,547 1017,547 1017,547 1017,547 1018,547 1018,548 1018,548 1019,548 1019,548 1020,548 1020,549 1020,549 1020,549 1021,549 1021,549 1021,549 1021,549 1022,549 1022,549 1022,549 1022,550 1023,550 1023,550 1024,550 1024,550 1024,550 1024,551 1025,551 1025,551 1025,552 1026,552 1027,552 1027,552 1027,552 1027,553 1028,553 1028,553 1028,553 1028,553 1029,553 1029,553 1030,553 1030,553 1030,553 1031,553 1031,553 1031,553 1031,553 1032,553 1032,554 1032,554 1032,554 1033,554 1033,554 1034,554 1034,555 1034,555 1034,555 1035,555 1035,555 1035,555 1035,556 1036,556 1037,556 1037,556 1037,556 1037,556 1038,556 1038,557 1038,557 1038,557 1039,557 1039,557 1040,557 1040,557 1040,557 1040,558 1041,558 1041,558 1041,558 1041,558 1042,558 1042,558 1042,558 1042,558 1043,558 1044,558 1044,558 1044,559 1045,559 1045,559 1045,559 1045,559 1046,559 1046,560 1047,560 1047,560 1047,560 1047,560 1048,560 1048,561 1048,561 1048,561 1049,561 1049,561 1050,561 1050,561 1050,561 1051,561 1051,561 1051,561 1051,562 1052,562 1052,561 1052,561 1052,562 1053,562 1054,562 1054,562 1054,562 1054,563 1055,563 1055,563 1055,563 1055,562 1056,562 1056,563 1057,563 1057,563 1057,563 1057,563 1058,563 1058,564 1058,564 1058,564 1059,564 1059,564 1060,564 1060,564 1060,564 1060,564 1061,564 1061,565 1061,565 1061,565 1062,565 1062,565 1062,565 1062,566 1063,566 1063,565 1064,565 1064,565 1064,566 1065,566 1065,566 1065,566 1065,566 1066,566 1066,566 1067,566 1067,567 1067,567 1067,567 1068,567 1068,567 1068,567 1068,567 1069,567 1069,568 1070,568 1070,568 1070,568 1071,568 1071,568 1071,568 1071,568 1072,568 1072,569 1072,569 1072,570 1073,570 1073,570 1074,570 1074,570 1075,570 1075,570 1075,570 1076,570 1076,570 1077,570 1077,570 1077,570 1077,570 1078,570 1078,570 1078,570 1078,570 1079,570 1079,570 1080,570 1080,571 1080,571 1080,570 1081,570 1081,570 1081,570 1081,571 1082,571 1082,571 1082,571 1083,571 1083,571 1084,571 1084,571 1084,571 1084,571 1085,571 1085,571 1085,571 1085,572 1086,572 1086,572 1087,572 1087,572 1087,572 1087,572 1088,572 1088,572 1088,572 1088,573 1089,573 1089,573 1090,573 1090,573 1090,573 1090,573 1091,573 1091,573 1091,573 1092,573 1092,574 1092,574 1092,574 1093,574 1093,574 1094,573 1094,574 1094,574 1094,574 1095,574 1095,574 1095,574 1095,575 1096,575 1097,575 1097,575 1097,575 1097,575 1098,575 1098,575 1098,575 1098,575 1099,575 1099,576 1100,576 1100,576 1100,576 1100,575 1101,575 1101,575 1101,575 1101,576 1102,576 1102,576 1102,576 1102,576 1103,576 1103,576 1104,576 1104,576 1104,576 1104,576 1105,576 1105,576 1105,576 1105,576 1106,576 1106,577 1107,577 1107,577 1107,577 1108,577 1108,577 1108,577 1108,578 1109,578 1109,578 1110,578 1110,578 1110,578 1110,578 1111,578 1111,578 1111,578 1111,579 1112,579 1112,579 1112,579 1112,579 1113,579 1113,579 1114,579 1114,579 1114,579 1114,579 1115,579 1115,579 1115,579 1115,580 1116,580 1116,580 1117,580 1117,580 1117,580 1117,581 1118,581 1118,581 1118,581 1118,581 1119,581 1119,581 1120,581 1120,582 1120,582 1120,582 1121,582 1121,582 1121,582 1121,582 1122,582 1122,582 1122,582 1122,582 1123,582 1123,582 1124,583 1124,583 1124,583 1125,583 1125,583 1125,583 1126,583 1126,583 1127,583 1127,583 1127,583 1127,584 1128,584 1128,584 1128,584 1128,584 1129,584 1129,584 1130,584 1130,584 1130,584 1130,584 1131,584 1131,585 1131,585 1131,585 1132,585 1132,585 1132,585 1133,585 1133,585 1134,585 1134,585 1134,585 1134,586 1135,586 1135,586 1135,586 1135,586 1136,586 1136,586 1137,586 1137,586 1137,586 1137,586 1138,586 1138,587 1138,587 1138,587 1139,587 1139,587 1140,587 1140,587 1140,587 1140,588 1141,588 1141,588 1141,588 1141,588 1142,588 1142,588 1142,588 1142,588 1143,588 1143,589 1144,589 1144,589 1144,589 1144,589 1145,589 1145,589 1145,589 1145,589 1146,589 1146,589 1147,589 1147,590 1147,590 1147,590 1148,590 1148,590 1148,590 1148,590 1149,590 1149,590 1150,590 1150,591 1150,591 1150,591 1151,591 1151,591 1151,591 1151,591 1152,591 1152,591 1152,591 1152,591 1153,591 1153,592 1154,592 1154,592 1154,592 1154,592 1155,592 1155,592 1155,592 1155,592 1156,592 1156,592 1157,592 1157,592 1157,592 1157,593 1158,593 1158,593 1158,593 1158,593 1159,593 1159,593 1160,593 1160,593 1160,593 1161,593 1161,593 1161,593 1161,593 1162,593 1162,593 1162,593 1162,593 1163,593 1163,593 1164,593 1164,594 1164,594 1164,594 1165,594 1165,594 1165,594 1165,594 1166,594 1166,594 1167,594 1167,594 1167,594 1167,594 1168,594 1168,595 1168,595 1168,595 1169,595 1169,595 1170,595 1170,595 1170,595 1170,595 1171,595 1171,601 1171,601 1172,601 1172,601 1172,601 1172,601 1173,601 1173,601 1174,601 1174,601 1174,601 1174,601 1175,601 1175,601 1175,601 1175,602 1176,602 1176,602 1177,602 1177,602 1177,602 1177,602 1178,602 1178,602 1178,602 1178,602 1179,602 1179,603 1180,603 1180,603 1180,603 1180,603 1181,603 1181,603 1181,603 1181,603 1182,603 1182,603 1182,603 1182,603 1183,603 1183,603 1184,603 1184,603 1184,603 1184,603 1185,603 1185,603 1185,603 1185,603 1186,604 1186,604 1187,604 1187,605 1187,605 1187,605 1188,605 1188,605 1188,605 1188,605 1189,605 1189,605 1190,605 "/>
<polyline fill="none" opacity="1" stroke="#19E68E" stroke-width="2" points="521,738 522,737 522,736 524,734 524,732 525,731 526,730 527,729 527,725 528,725 528,723 529,720 530,719 530,718 531,717 531,716 532,714 532,713 535,712 535,710 536,707 537,706 537,704 538,704 538,701 541,699 541,696 542,695 543,694 544,694 544,693 545,690 546,689 547,688 547,685 548,684 548,684 549,683 550,682 550,680 551,678 552,673 552,672 553,672 554,671 554,670 555,669 555,668 556,668 557,664 557,665 558,665 558,664 559,663 560,660 560,660 561,659 561,658 562,655 562,654 563,652 564,650 564,648 565,645 565,644 566,643 567,640 567,640 568,638 568,637 569,636 570,635 570,630 571,628 571,629 572,629 572,628 573,628 574,628 574,627 575,627 575,626 576,624 577,621 577,620 578,617 578,615 579,612 580,610 580,608 581,606 581,604 582,599 582,594 583,593 584,593 584,593 585,588 585,584 586,580 587,579 587,578 588,578 588,575 589,575 590,574 590,574 591,573 591,571 592,571 592,570 593,566 594,565 594,564 595,564 595,562 596,562 597,560 597,559 598,558 598,556 599,556 600,554 600,553 601,552 601,551 602,549 602,547 603,545 604,543 604,543 605,540 605,539 606,535 607,530 607,527 608,525 608,523 609,519 610,516 610,515 611,515 611,514 612,513 612,511 613,510 614,509 614,503 615,500 615,499 616,496 617,495 617,493 618,490 618,488 619,488 620,484 620,482 621,483 621,482 622,481 622,479 623,476 624,475 624,472 625,472 625,469 626,463 627,463 627,461 628,461 628,461 629,460 630,458 630,457 631,456 631,455 632,450 632,450 633,449 634,443 634,438 635,437 635,434 636,433 637,432 637,431 638,432 638,430 639,431 640,428 640,427 641,426 641,426 642,424 643,423 644,422 644,422 645,421 645,420 646,419 647,414 647,412 648,407 648,406 649,403 650,402 650,402 651,403 651,403 652,402 652,400 653,399 654,397 654,397 655,395 655,396 656,393 657,392 657,391 658,391 658,389 659,390 660,389 660,387 661,386 661,383 662,383 662,383 663,382 664,381 664,382 665,381 665,378 666,377 667,372 667,371 668,370 668,369 669,367 670,367 670,367 671,365 671,365 672,364 672,363 673,363 674,361 674,358 675,358 675,356 676,358 677,357 677,355 678,355 678,356 679,354 680,354 680,353 681,352 681,349 682,349 682,347 683,344 684,344 684,341 685,341 685,339 686,338 687,339 687,338 688,337 688,337 689,337 690,338 690,338 691,337 691,336 692,334 692,332 693,330 694,330 694,329 695,328 695,326 696,324 697,322 697,323 698,322 698,321 699,321 700,319 700,317 701,316 701,314 702,313 702,311 703,309 704,307 704,307 705,305 705,305 705,302 706,302 707,302 707,301 708,298 708,296 709,292 710,288 710,286 711,285 711,284 712,284 712,281 713,282 714,281 714,281 715,279 715,280 716,280 717,284 717,280 718,280 718,279 719,278 720,277 720,277 721,272 721,271 722,272 722,269 723,270 724,269 724,268 725,265 725,264 726,263 727,262 727,262 728,263 728,263 729,262 730,259 730,261 731,260 731,258 732,236 732,235 733,236 734,237 734,234 735,235 735,233 736,233 737,233 737,229 738,229 738,228 739,229 740,225 740,224 741,222 741,223 742,222 742,220 743,219 744,220 744,220 745,219 745,216 746,214 747,210 747,208 748,204 748,203 749,201 750,201 750,200 751,198 751,196 752,197 752,197 753,196 754,192 754,190 755,190 755,189 756,187 757,187 757,185 758,184 758,185 759,184 760,184 760,182 761,183 761,182 762,180 762,180 763,177 764,176 764,176 765,175 765,174 766,169 767,190 767,192 768,191 768,170 769,169 770,167 770,167 771,165 771,165 772,165 772,163 773,161 774,162 774,163 775,162 775,162 776,160 777,159 777,159 778,157 778,157 779,156 780,155 780,155 781,156 781,157 782,155 782,155 783,154 784,154 784,154 785,155 785,149 786,149 787,148 787,148 788,145 788,145 789,144 790,144 790,144 791,145 791,145 792,145 792,145 793,145 794,146 794,146 795,145 795,145 796,145 797,143 797,141 798,140 798,139 799,137 800,137 800,138 801,137 801,135 802,134 802,132 803,130 804,131 804,130 805,130 805,129 806,129 807,128 807,129 808,127 808,127 809,127 810,127 810,126 811,126 811,126 812,127 812,127 813,128 814,125 814,125 815,123 815,123 816,122 817,121 817,118 818,118 818,119 819,118 820,118 820,119 821,119 821,117 822,117 822,115 823,113 824,113 824,113 825,113 825,114 826,114 827,114 827,113 828,111 828,111 829,111 830,110 830,110 831,111 831,110 832,109 832,108 833,109 834,107 834,106 835,108 835,108 836,108 837,108 837,108 838,108 838,108 839,107 840,109 840,109 841,110 841,110 842,109 842,109 843,107 844,108 844,106 845,105 845,107 846,108 847,101 847,101 848,102 848,102 849,102 850,101 850,101 851,101 851,102 852,101 852,101 853,101 854,103 854,105 855,105 855,104 856,104 857,103 857,103 858,103 858,103 859,101 860,102 860,101 861,100 861,99 862,99 862,95 863,96 864,95 864,96 865,94 865,92 866,92 867,93 867,90 868,89 868,90 869,89 870,89 870,89 871,88 871,86 872,85 872,86 873,86 874,86 874,85 875,86 875,84 876,84 877,84 877,84 878,85 878,85 879,85 880,85 880,86 881,84 881,84 882,83 882,84 883,83 884,81 884,82 885,83 885,82 886,82 887,84 887,83 888,83 888,83 889,83 890,83 890,83 891,83 891,83 892,82 892,82 893,82 894,83 894,82 895,80 895,80 896,79 897,79 897,79 898,79 898,79 899,76 900,75 900,76 901,76 901,77 902,77 902,77 903,78 904,78 904,79 905,78 905,78 906,78 907,79 907,78 908,78 908,78 909,79 910,80 910,79 911,80 911,78 912,78 912,78 913,78 914,78 914,78 915,78 915,77 916,77 917,77 917,77 918,78 918,79 919,78 920,78 920,77 921,78 921,78 922,79 922,79 923,78 924,79 924,79 925,78 925,78 926,79 927,81 927,81 928,80 928,80 929,80 930,78 930,79 931,79 931,79 932,79 932,79 932,80 933,80 934,83 934,84 935,84 935,85 936,86 937,86 937,86 938,86 938,87 939,87 940,86 940,89 941,90 941,89 942,90 942,95 943,97 944,96 944,99 945,103 945,103 946,104 947,103 947,104 948,104 948,105 949,106 950,110 950,111 951,112 951,113 952,114 952,111 953,112 954,112 954,113 955,113 955,114 956,114 957,115 957,115 958,112 958,112 959,112 960,112 960,112 961,110 961,110 962,111 962,111 963,111 964,111 964,111 965,112 965,112 966,112 967,111 967,112 968,112 968,114 969,114 970,115 970,115 971,115 971,116 972,116 972,111 973,111 974,112 974,113 975,113 975,113 976,114 977,115 977,111 978,110 978,111 979,112 980,112 980,112 981,113 981,113 982,115 982,115 983,115 984,115 984,116 985,116 985,119 986,118 987,118 987,120 988,121 988,121 989,121 990,121 990,124 991,127 991,128 992,127 992,127 993,127 994,128 994,128 995,128 995,129 996,129 997,129 997,130 998,130 998,131 999,130 1000,131 1000,132 1001,133 1001,133 1002,134 1002,132 1003,134 1004,135 1004,136 1005,135 1005,135 1006,134 1007,135 1007,135 1008,136 1008,137 1009,136 1010,137 1010,138 1011,140 1011,140 1012,141 1012,142 1013,142 1014,143 1014,140 1015,141 1015,140 1015,141 1016,141 1016,141 1017,141 1017,141 1017,142 1018,142 1018,143 1018,144 1019,144 1019,145 1020,145 1020,150 1020,150 1020,151 1021,151 1021,152 1021,152 1021,154 1022,154 1022,154 1022,154 1022,154 1023,154 1023,155 1024,155 1024,155 1024,155 1024,156 1025,156 1025,156 1025,157 1026,157 1027,157 1027,157 1027,157 1027,155 1028,155 1028,156 1028,156 1028,156 1029,156 1029,156 1030,156 1030,156 1030,157 1031,157 1031,156 1031,156 1031,156 1032,156 1032,156 1032,156 1032,157 1033,157 1033,157 1034,157 1034,157 1034,157 1034,158 1035,158 1035,158 1035,158 1035,158 1036,160 1037,160 1037,161 1037,161 1037,162 1038,162 1038,161 1038,161 1038,163 1039,163 1039,165 1040,165 1040,164 1040,164 1040,166 1041,166 1041,167 1041,167 1041,166 1042,166 1042,167 1042,167 1042,169 1043,169 1044,170 1044,170 1044,170 1045,170 1045,170 1045,170 1045,170 1046,170 1046,170 1047,170 1047,170 1047,170 1047,171 1048,171 1048,172 1048,172 1048,172 1049,172 1049,173 1050,174 1050,175 1050,175 1051,176 1051,176 1051,176 1051,177 1052,177 1052,178 1052,178 1052,179 1053,180 1054,180 1054,181 1054,181 1054,183 1055,183 1055,183 1055,183 1055,184 1056,184 1056,185 1057,185 1057,186 1057,186 1057,186 1058,186 1058,187 1058,187 1058,187 1059,187 1059,187 1060,187 1060,187 1060,187 1060,189 1061,189 1061,190 1061,190 1061,191 1062,191 1062,192 1062,192 1062,192 1063,192 1063,193 1064,193 1064,194 1064,195 1065,195 1065,196 1065,196 1065,197 1066,197 1066,200 1067,200 1067,201 1067,201 1067,201 1068,201 1068,202 1068,202 1068,203 1069,203 1069,203 1070,203 1070,204 1070,204 1071,204 1071,205 1071,205 1071,206 1072,206 1072,207 1072,207 1072,208 1073,208 1073,208 1074,209 1074,212 1075,212 1075,212 1075,213 1076,213 1076,213 1077,213 1077,214 1077,214 1077,215 1078,215 1078,215 1078,216 1078,216 1079,216 1079,218 1080,218 1080,219 1080,219 1080,219 1081,219 1081,220 1081,220 1081,220 1082,220 1082,220 1082,220 1083,220 1083,222 1084,222 1084,223 1084,223 1084,223 1085,223 1085,224 1085,224 1085,225 1086,225 1086,225 1087,225 1087,225 1087,225 1087,226 1088,226 1088,227 1088,227 1088,228 1089,228 1089,228 1090,228 1090,230 1090,230 1090,231 1091,231 1091,231 1091,233 1092,233 1092,233 1092,233 1092,234 1093,234 1093,234 1094,234 1094,235 1094,235 1094,236 1095,236 1095,237 1095,237 1095,237 1096,237 1097,237 1097,238 1097,238 1097,238 1098,238 1098,239 1098,239 1098,239 1099,239 1099,239 1100,240 1100,239 1100,239 1100,241 1101,241 1101,241 1101,241 1101,241 1102,241 1102,242 1102,242 1102,243 1103,243 1103,244 1104,244 1104,244 1104,244 1104,244 1105,244 1105,244 1105,244 1105,245 1106,245 1106,245 1107,245 1107,246 1107,247 1108,247 1108,248 1108,248 1108,249 1109,249 1109,249 1110,249 1110,250 1110,250 1110,251 1111,251 1111,252 1111,252 1111,253 1112,253 1112,253 1112,253 1112,253 1113,253 1113,254 1114,254 1114,255 1114,255 1114,256 1115,256 1115,257 1115,257 1115,257 1116,257 1116,259 1117,259 1117,259 1117,259 1117,259 1118,259 1118,260 1118,260 1118,261 1119,261 1119,262 1120,262 1120,262 1120,262 1120,263 1121,263 1121,264 1121,264 1121,265 1122,265 1122,265 1122,265 1122,265 1123,265 1123,266 1124,266 1124,266 1124,265 1125,265 1125,266 1125,269 1126,269 1126,269 1127,269 1127,269 1127,269 1127,270 1128,270 1128,271 1128,271 1128,271 1129,271 1129,272 1130,272 1130,273 1130,273 1130,274 1131,274 1131,275 1131,275 1131,276 1132,276 1132,276 1132,278 1133,278 1133,278 1134,278 1134,279 1134,279 1134,280 1135,280 1135,280 1135,280 1135,280 1136,280 1136,281 1137,281 1137,280 1137,280 1137,278 1138,278 1138,277 1138,277 1138,278 1139,278 1139,279 1140,279 1140,279 1140,279 1140,279 1141,279 1141,280 1141,280 1141,280 1142,280 1142,280 1142,280 1142,281 1143,281 1143,281 1144,281 1144,282 1144,282 1144,283 1145,283 1145,283 1145,283 1145,284 1146,284 1146,284 1147,284 1147,285 1147,285 1147,286 1148,286 1148,286 1148,286 1148,286 1149,286 1149,287 1150,287 1150,287 1150,287 1150,288 1151,288 1151,288 1151,288 1151,289 1152,289 1152,289 1152,289 1152,290 1153,290 1153,291 1154,291 1154,292 1154,292 1154,292 1155,292 1155,293 1155,293 1155,294 1156,294 1156,294 1157,294 1157,294 1157,294 1157,295 1158,295 1158,295 1158,295 1158,296 1159,296 1159,296 1160,297 1160,297 1160,297 1161,297 1161,298 1161,298 1161,299 1162,299 1162,300 1162,300 1162,300 1163,300 1163,301 1164,301 1164,301 1164,301 1164,301 1165,301 1165,302 1165,302 1165,302 1166,302 1166,303 1167,303 1167,303 1167,303 1167,303 1168,303 1168,305 1168,305 1168,306 1169,306 1169,307 1170,307 1170,307 1170,307 1170,308 1171,308 1171,325 1171,325 1172,325 1172,325 1172,325 1172,326 1173,326 1173,327 1174,327 1174,329 1174,329 1174,329 1175,329 1175,330 1175,330 1175,330 1176,330 1176,330 1177,330 1177,331 1177,331 1177,331 1178,331 1178,331 1178,331 1178,332 1179,332 1179,332 1180,332 1180,333 1180,333 1180,333 1181,333 1181,333 1181,333 1181,334 1182,334 1182,334 1182,334 1182,334 1183,334 1183,334 1184,334 1184,335 1184,335 1184,335 1185,335 1185,335 1185,335 1185,336 1186,336 1186,336 1187,336 1187,337 1187,337 1187,338 1188,338 1188,338 1188,338 1188,339 1189,339 1189,339 1190,339 "/>
<polyline fill="none" opacity="1" stroke="#198EE6" stroke-width="2" points="60,735 60,732 64,729 73,726 81,723 89,723 90,720 94,717 95,714 96,715 100,712 104,709 105,706 111,704 117,705 117,705 120,700 125,698 128,701 130,701 136,694 137,691 137,691 138,692 138,692 139,692 140,692 141,692 141,690 142,687 143,687 144,687 145,688 145,688 147,688 148,688 148,686 149,686 150,686 150,684 151,684 151,684 152,684 153,684 154,684 154,685 155,685 155,685 156,685 157,685 157,685 158,683 158,683 159,683 160,683 161,683 161,683 162,683 162,684 164,684 165,684 166,682 167,680 167,680 168,678 168,678 169,680 170,680 170,678 171,678 171,678 172,679 173,679 174,679 175,677 175,677 176,677 177,677 177,677 178,677 179,678 180,678 180,678 181,676 182,673 182,671 183,669 184,669 184,670 185,670 185,670 186,670 187,670 187,670 188,671 189,671 190,671 191,669 191,665 192,663 193,663 194,663 195,664 196,664 197,662 197,662 198,662 199,662 200,662 200,660 201,660 201,661 202,659 203,657 204,657 205,657 206,658 207,658 207,658 208,658 208,658 209,656 210,657 210,657 211,657 211,657 212,657 212,657 214,655 214,654 215,654 215,654 216,652 217,652 217,652 218,652 218,653 219,651 220,651 220,651 221,651 221,651 222,650 223,648 224,644 224,644 225,645 225,645 226,643 227,643 228,643 229,643 230,644 231,644 231,644 232,644 232,644 233,644 234,643 235,643 235,643 236,643 237,643 237,644 238,644 240,644 241,645 241,643 242,643 242,641 243,640 244,640 244,640 245,640 245,640 247,641 248,641 248,641 249,641 250,641 250,641 251,640 252,640 252,638 253,639 254,639 255,639 255,639 256,640 257,640 257,638 259,639 260,637 260,638 261,638 262,635 262,635 263,635 264,635 264,635 265,635 265,636 266,636 267,636 267,638 268,638 269,637 270,637 270,638 271,638 271,638 272,638 272,638 273,638 274,639 274,639 275,639 275,639 276,639 277,636 277,635 278,635 278,635 279,635 280,635 280,635 281,635 281,636 282,636 282,636 283,637 284,637 284,637 285,635 285,636 286,636 287,636 287,633 288,633 288,632 289,632 290,630 291,631 291,631 292,632 293,632 294,632 295,632 295,631 296,631 297,631 297,630 298,628 298,628 300,629 300,629 301,627 301,628 302,628 302,628 303,628 304,627 305,626 305,626 306,624 307,624 307,625 308,625 308,625 309,624 310,624 310,624 311,624 311,624 312,624 312,623 313,623 314,623 314,624 315,624 315,624 317,624 317,624 318,625 318,625 319,625 320,624 321,624 321,624 322,624 322,623 323,622 324,621 324,621 325,621 325,623 326,623 327,622 327,622 328,621 328,621 329,622 330,620 330,619 331,618 331,618 332,619 332,619 333,619 334,619 334,619 335,620 335,620 336,619 337,617 337,618 338,618 338,618 339,618 340,617 340,616 341,616 341,616 342,617 343,616 344,614 344,614 345,613 345,614 346,614 347,614 347,610 348,610 348,611 349,610 350,610 350,610 351,610 351,611 352,610 352,609 353,609 354,609 354,610 355,609 355,608 356,608 357,608 357,609 358,608 358,608 359,608 360,608 360,609 361,607 361,608 362,607 362,606 363,606 364,606 364,606 365,606 365,607 366,607 367,607 367,608 368,607 368,604 369,605 370,605 371,606 371,606 372,606 372,606 373,607 374,607 375,606 375,605 376,605 377,605 377,605 378,606 378,606 379,606 380,606 380,605 381,606 381,606 382,606 382,605 383,605 384,605 384,606 385,606 385,606 386,606 387,606 387,606 388,607 388,607 389,606 390,606 390,606 391,607 391,607 392,606 392,605 393,605 394,605 394,605 395,606 395,606 396,606 397,606 397,606 398,607 398,607 399,607 400,605 400,605 401,606 401,606 402,606 402,606 403,606 404,606 404,607 405,607 405,606 406,605 407,605 407,606 408,606 408,605 409,605 410,605 410,605 411,606 411,606 412,605 412,605 413,606 414,605 414,606 415,607 415,607 416,607 417,606 417,605 418,605 418,606 419,606 420,606 420,606 421,605 421,607 422,604 422,604 423,604 424,605 424,605 425,605 425,603 426,604 427,603 427,603 428,602 428,601 429,601 430,601 430,601 431,601 431,601 432,600 432,601 433,602 434,603 434,603 435,603 435,603 436,602 437,603 438,603 438,603 439,603 440,604 440,604 441,604 441,604 442,604 442,604 443,605 444,605 444,605 445,604 445,604 446,604 447,605 447,605 448,605 448,605 449,606 450,606 450,606 451,606 451,606 452,607 452,607 453,607 454,606 454,606 455,606 455,606 456,605 457,605 457,605 458,605 458,604 459,604 460,604 460,604 461,605 461,605 462,605 462,605 463,605 464,605 464,604 465,605 465,605 466,605 467,605 467,605 468,605 468,605 469,605 470,605 470,606 471,606 471,605 472,605 472,605 473,605 474,606 474,606 475,605 475,605 476,605 477,606 477,606 478,606 478,606 479,606 480,607 480,607 481,607 481,607 482,607 482,607 483,608 484,608 484,608 485,608 485,608 486,609 487,609 487,609 488,609 488,609 489,608 490,609 490,607 491,607 491,608 492,607 493,607 494,607 494,607 495,607 495,607 496,606 497,606 497,607 498,607 498,607 499,607 500,608 501,607 501,607 502,607 502,608 503,607 504,607 504,606 505,607 505,607 506,607 507,607 507,607 508,607 508,606 509,606 510,606 510,607 511,606 511,606 512,606 512,606 513,607 514,607 514,607 515,606 515,606 516,606 517,605 517,604 518,604 518,604 519,605 520,605 520,605 521,605 521,605 522,605 522,606 523,606 524,606 524,606 525,606 525,605 526,605 527,605 527,606 528,606 528,606 529,606 530,607 530,608 531,608 531,608 532,608 532,608 533,608 534,609 534,609 535,609 535,609 536,609 537,610 537,610 538,609 538,609 539,609 540,610 540,610 541,611 541,611 542,611 542,612 543,612 544,612 544,612 545,612 546,613 547,613 547,613 548,613 548,613 549,614 550,614 550,614 551,614 551,614 552,614 553,614 554,614 554,614 555,614 555,615 556,615 557,614 558,615 558,615 559,614 560,614 560,615 561,615 561,615 562,615 562,615 563,615 564,615 564,616 565,615 565,615 566,616 567,616 567,615 568,615 568,616 569,615 570,615 570,615 571,613 571,614 572,614 572,614 573,614 574,614 574,615 575,615 575,615 576,615 577,615 577,614 578,614 578,614 579,613 580,613 580,613 581,612 581,612 582,611 582,611 583,611 584,612 584,611 585,611 585,611 586,612 587,612 587,612 588,612 588,612 589,613 590,613 590,613 591,613 591,613 592,614 592,615 593,615 594,615 594,614 595,615 595,614 596,614 597,614 597,615 598,615 598,615 599,615 600,616 600,616 601,615 601,615 602,615 602,616 603,616 604,615 604,615 605,616 605,616 606,616 607,616 607,616 608,616 608,616 609,616 610,616 610,616 611,616 611,617 612,616 612,616 613,615 614,615 614,615 615,615 615,616 616,615 617,615 617,615 618,615 618,615 619,615 620,615 620,615 621,615 621,615 622,616 622,616 623,616 624,617 624,617 625,617 625,618 626,618 627,618 627,618 628,618 628,618 629,618 630,618 630,618 631,618 631,619 632,618 632,619 633,619 634,619 634,619 635,619 635,619 636,619 637,619 637,619 638,618 638,619 639,619 640,619 640,619 641,619 641,619 642,619 642,619 643,619 644,619 644,619 645,619 645,619 646,620 647,620 647,619 648,619 648,619 649,619 650,619 650,619 651,619 651,619 652,620 652,619 653,619 654,619 654,619 655,620 655,620 656,620 657,620 657,620 658,620 658,620 659,620 660,620 661,620 661,620 662,620 662,621 663,621 664,621 664,621 665,621 665,621 666,621 667,621 667,621 668,622 668,622 669,622 670,622 670,622 671,622 671,622 672,621 672,622 673,622 674,622 674,622 675,622 675,622 676,623 677,623 677,623 678,623 678,623 679,623 680,623 680,623 681,624 681,624 682,624 682,624 683,624 684,624 684,625 685,625 685,625 686,624 687,625 687,625 688,625 688,626 689,626 690,626 690,626 691,626 691,626 692,627 692,627 693,627 694,627 694,626 695,626 695,626 696,626 697,626 697,626 698,626 698,626 699,626 700,626 700,627 701,626 701,626 702,627 702,627 703,627 704,627 704,628 705,628 705,628 705,628 706,628 707,628 707,628 708,628 708,629 709,629 710,629 710,629 711,629 711,630 712,630 712,629 713,629 714,630 714,630 715,630 715,630 716,630 717,632 717,631 718,631 718,631 719,631 720,631 720,632 721,632 721,632 722,633 722,633 723,633 724,633 724,633 725,633 725,633 726,634 727,634 727,634 728,634 728,634 729,634 730,634 730,634 731,634 731,634 732,634 732,634 733,634 734,635 734,635 735,635 735,635 736,635 737,635 737,635 738,635 738,636 739,636 740,636 740,636 741,636 741,636 742,636 742,636 743,637 744,636 744,636 745,636 745,637 746,637 747,637 747,637 748,637 748,637 749,637 750,637 750,638 751,637 751,637 752,637 752,638 753,638 754,638 754,638 755,638 755,638 756,638 757,638 757,639 758,639 758,639 759,639 760,639 760,639 761,639 761,639 762,640 762,640 763,639 764,640 764,640 765,639 765,640 766,640 767,644 767,644 768,644 768,640 769,640 770,641 770,641 771,641 771,641 772,641 772,642 773,642 774,642 774,642 775,642 775,642 776,643 777,643 777,643 778,643 778,644 779,644 780,644 780,644 781,644 781,644 782,645 782,645 783,645 784,645 784,645 785,645 785,645 786,645 787,645 787,645 788,645 788,645 789,645 790,645 790,646 791,646 791,646 792,646 792,647 793,647 794,647 794,647 795,647 795,647 796,646 797,647 797,647 798,647 798,647 799,647 800,647 800,647 801,647 801,647 802,646 802,646 803,645 804,645 804,645 805,645 805,645 806,645 807,645 807,645 808,645 808,646 809,646 810,646 810,646 811,646 811,646 812,646 812,646 813,647 814,647 814,647 815,647 815,647 816,647 817,647 817,647 818,647 818,647 819,647 820,647 820,647 821,648 821,648 822,648 822,648 823,648 824,648 824,648 825,648 825,649 826,649 827,649 827,649 828,649 828,649 829,648 830,648 830,648 831,649 831,649 832,649 832,649 833,649 834,649 834,649 835,649 835,649 836,649 837,649 837,649 838,649 838,649 839,649 840,649 840,649 841,649 841,649 842,649 842,649 843,649 844,649 844,649 845,649 845,649 846,649 847,649 847,649 848,649 848,649 849,650 850,650 850,650 851,650 851,650 852,650 852,650 853,650 854,650 854,650 855,650 855,650 856,651 857,650 857,650 858,650 858,651 859,651 860,651 860,651 861,651 861,651 862,651 862,651 863,651 864,651 864,652 865,652 865,652 866,652 867,653 867,653 868,653 868,653 869,653 870,653 870,653 871,653 871,654 872,654 872,653 873,653 874,651 874,651 875,651 875,651 876,651 877,651 877,651 878,651 878,651 879,651 880,650 880,650 881,650 881,650 882,650 882,650 883,650 884,650 884,650 885,650 885,650 886,650 887,650 887,650 888,650 888,650 889,650 890,650 890,650 891,650 891,650 892,651 892,651 893,651 894,651 894,651 895,651 895,651 896,651 897,651 897,651 898,651 898,651 899,651 900,652 900,651 901,651 901,651 902,652 902,652 903,652 904,652 904,652 905,651 905,651 906,651 907,651 907,651 908,651 908,652 909,652 910,652 910,652 911,652 911,652 912,652 912,652 913,652 914,652 914,652 915,652 915,652 916,653 917,652 917,653 918,653 918,653 919,653 920,653 920,653 921,654 921,654 922,654 922,654 923,655 924,655 924,655 925,655 925,655 926,655 927,655 927,656 928,656 928,656 929,656 930,656 930,656 931,656 931,656 932,656 932,656 932,656 933,656 934,656 934,656 935,657 935,656 936,656 937,656 937,657 938,656 938,656 939,657 940,657 940,657 941,657 941,657 942,657 942,658 943,657 944,657 944,657 945,657 945,657 946,658 947,658 947,658 948,658 948,658 949,658 950,658 950,658 951,658 951,658 952,658 952,659 953,659 954,659 954,659 955,659 955,659 956,659 957,659 957,659 958,659 958,659 959,659 960,659 960,659 961,659 961,660 962,660 962,660 963,660 964,660 964,660 965,660 965,660 966,660 967,660 967,660 968,661 968,661 969,661 970,661 970,662 971,662 971,662 972,662 972,662 973,662 974,662 974,662 975,662 975,662 976,662 977,662 977,662 978,662 978,662 979,662 980,663 980,663 981,663 981,663 982,663 982,663 983,663 984,663 984,663 985,663 985,664 986,664 987,664 987,664 988,664 988,665 989,665 990,665 990,665 991,665 991,665 992,665 992,665 993,665 994,665 994,665 995,665 995,665 996,666 997,666 997,666 998,666 998,666 999,666 1000,667 1000,667 1001,667 1001,667 1002,667 1002,667 1003,667 1004,667 1004,667 1005,667 1005,667 1006,668 1007,667 1007,667 1008,668 1008,667 1009,667 1010,667 1010,668 1011,668 1011,668 1012,668 1012,669 1013,669 1014,669 1014,669 1015,669 1015,669 1015,669 1016,669 1016,669 1017,670 1017,670 1017,670 1018,670 1018,670 1018,670 1019,670 1019,670 1020,670 1020,670 1020,670 1020,670 1021,670 1021,670 1021,670 1021,670 1022,670 1022,670 1022,670 1022,670 1023,670 1023,670 1024,670 1024,670 1024,670 1024,670 1025,670 1025,670 1026,670 1027,670 1027,670 1027,670 1027,670 1028,670 1028,671 1028,671 1028,671 1029,671 1029,671 1030,671 1030,671 1030,671 1031,671 1031,671 1031,671 1031,671 1032,671 1032,671 1032,671 1032,671 1033,671 1033,671 1034,671 1034,671 1034,671 1034,671 1035,671 1035,671 1035,671 1035,672 1036,672 1037,672 1037,672 1037,672 1037,672 1038,672 1038,672 1038,672 1038,672 1039,672 1039,671 1040,671 1040,671 1040,671 1040,671 1041,671 1041,671 1041,671 1041,671 1042,671 1042,671 1042,671 1042,671 1043,671 1044,671 1044,671 1044,671 1045,671 1045,672 1045,672 1045,671 1046,671 1046,671 1047,671 1047,671 1047,671 1047,672 1048,672 1048,672 1048,672 1048,672 1049,672 1049,672 1050,672 1050,672 1050,672 1051,672 1051,672 1051,672 1051,672 1052,672 1052,672 1052,672 1052,672 1053,672 1054,672 1054,673 1054,673 1054,673 1055,673 1055,673 1055,673 1055,674 1056,674 1056,674 1057,674 1057,674 1057,674 1057,674 1058,674 1058,674 1058,674 1058,674 1059,674 1059,674 1060,674 1060,674 1060,674 1060,674 1061,674 1061,674 1061,674 1061,674 1062,674 1062,673 1062,673 1062,674 1063,674 1063,674 1064,674 1064,673 1064,673 1065,673 1065,673 1065,673 1065,673 1066,673 1066,673 1067,673 1067,673 1067,673 1067,673 1068,673 1068,673 1068,673 1068,673 1069,673 1069,673 1070,673 1070,674 1070,674 1071,674 1071,674 1071,674 1071,674 1072,674 1072,674 1072,674 1072,674 1073,674 1073,674 1074,674 1074,674 1075,674 1075,674 1075,674 1076,674 1076,675 1077,675 1077,675 1077,675 1077,675 1078,675 1078,675 1078,675 1078,675 1079,675 1079,675 1080,675 1080,675 1080,675 1080,675 1081,675 1081,675 1081,675 1081,675 1082,675 1082,675 1082,675 1083,675 1083,675 1084,675 1084,675 1084,675 1084,675 1085,675 1085,675 1085,675 1085,675 1086,675 1086,675 1087,675 1087,675 1087,675 1087,675 1088,675 1088,675 1088,675 1088,675 1089,675 1089,675 1090,675 1090,676 1090,676 1090,676 1091,676 1091,675 1091,675 1092,675 1092,675 1092,675 1092,675 1093,675 1093,675 1094,675 1094,675 1094,675 1094,675 1095,675 1095,675 1095,675 1095,675 1096,675 1097,675 1097,675 1097,675 1097,676 1098,676 1098,676 1098,676 1098,676 1099,676 1099,676 1100,676 1100,676 1100,676 1100,676 1101,676 1101,676 1101,676 1101,676 1102,676 1102,676 1102,676 1102,676 1103,676 1103,676 1104,676 1104,677 1104,677 1104,677 1105,677 1105,677 1105,677 1105,677 1106,677 1106,677 1107,677 1107,677 1107,677 1108,677 1108,677 1108,677 1108,677 1109,677 1109,677 1110,677 1110,677 1110,677 1110,677 1111,677 1111,677 1111,677 1111,677 1112,677 1112,677 1112,677 1112,677 1113,677 1113,677 1114,677 1114,677 1114,677 1114,677 1115,677 1115,678 1115,678 1115,678 1116,678 1116,678 1117,678 1117,678 1117,678 1117,678 1118,678 1118,678 1118,678 1118,678 1119,678 1119,678 1120,678 1120,678 1120,678 1120,678 1121,678 1121,679 1121,679 1121,679 1122,679 1122,679 1122,679 1122,679 1123,679 1123,679 1124,679 1124,679 1124,679 1125,679 1125,679 1125,679 1126,679 1126,679 1127,679 1127,679 1127,679 1127,678 1128,678 1128,678 1128,678 1128,679 1129,679 1129,679 1130,679 1130,679 1130,679 1130,679 1131,679 1131,679 1131,679 1131,679 1132,679 1132,679 1132,679 1133,679 1133,679 1134,679 1134,679 1134,679 1134,679 1135,679 1135,679 1135,679 1135,679 1136,679 1136,679 1137,679 1137,679 1137,679 1137,679 1138,679 1138,681 1138,681 1138,680 1139,680 1139,680 1140,680 1140,680 1140,680 1140,681 1141,681 1141,681 1141,681 1141,681 1142,681 1142,681 1142,681 1142,681 1143,681 1143,681 1144,681 1144,681 1144,681 1144,681 1145,681 1145,681 1145,681 1145,681 1146,681 1146,681 1147,681 1147,681 1147,681 1147,682 1148,682 1148,682 1148,682 1148,682 1149,682 1149,682 1150,682 1150,682 1150,682 1150,682 1151,682 1151,682 1151,682 1151,682 1152,682 1152,682 1152,682 1152,682 1153,682 1153,682 1154,682 1154,682 1154,682 1154,682 1155,682 1155,682 1155,682 1155,682 1156,682 1156,682 1157,682 1157,682 1157,682 1157,682 1158,682 1158,682 1158,682 1158,682 1159,682 1159,683 1160,683 1160,683 1160,683 1161,683 1161,683 1161,683 1161,683 1162,683 1162,683 1162,683 1162,683 1163,683 1163,683 1164,683 1164,683 1164,683 1164,683 1165,683 1165,683 1165,683 1165,683 1166,683 1166,683 1167,683 1167,683 1167,683 1167,683 1168,683 1168,684 1168,684 1168,684 1169,684 1169,684 1170,684 1170,684 1170,684 1170,684 1171,684 1171,686 1171,686 1172,686 1172,686 1172,686 1172,686 1173,686 1173,686 1174,686 1174,686 1174,686 1174,686 1175,686 1175,686 1175,686 1175,686 1176,686 1176,686 1177,686 1177,686 1177,686 1177,686 1178,686 1178,686 1178,686 1178,686 1179,686 1179,686 1180,686 1180,686 1180,686 1180,686 1181,686 1181,686 1181,686 1181,687 1182,687 1182,687 1182,687 1182,687 1183,687 1183,687 1184,687 1184,687 1184,687 1184,687 1185,687 1185,687 1185,687 1185,687 1186,687 1186,687 1187,687 1187,687 1187,687 1187,687 1188,687 1188,687 1188,687 1188,687 1189,687 1189,687 1190,687 "/>
<polyline fill="none" opacity="1" stroke="#5419E6" stroke-width="2" points="836,738 837,738 841,738 846,737 848,736 851,736 853,736 854,735 854,732 855,732 857,732 858,732 862,731 864,731 864,731 865,731 866,731 873,731 877,731 878,730 879,730 881,729 884,729 885,728 885,728 886,727 887,727 887,727 890,727 890,727 891,727 893,727 894,726 894,726 895,725 898,725 898,725 899,725 900,724 901,724 902,724 903,724 904,724 904,724 907,724 908,724 909,724 910,724 911,723 911,723 912,723 913,723 914,723 914,723 915,723 917,723 917,723 918,722 919,723 920,723 920,723 921,722 921,721 922,721 922,721 923,721 924,722 924,722 925,722 926,722 927,722 927,721 928,721 928,721 929,721 930,721 931,721 932,721 932,721 932,721 933,721 934,720 934,720 935,720 935,720 936,719 937,719 938,719 938,718 940,718 940,718 941,717 941,717 942,717 942,717 944,717 945,717 945,717 946,716 947,716 947,716 948,715 948,715 949,715 950,714 951,714 951,714 952,714 952,714 953,714 954,714 955,713 955,713 956,714 958,713 958,713 959,713 960,713 961,714 962,714 962,714 963,714 964,713 965,713 967,713 967,713 969,712 970,713 970,713 971,712 971,712 972,712 972,712 973,712 974,712 974,712 975,712 975,711 976,711 977,712 977,712 978,712 978,712 979,711 980,711 980,712 981,711 981,711 982,711 982,711 983,711 984,711 984,711 985,711 986,711 987,710 987,710 988,710 988,710 989,710 990,709 990,709 991,709 992,710 992,710 993,710 994,710 994,709 995,709 995,709 996,709 997,709 997,708 998,708 998,708 999,709 1000,709 1000,708 1001,708 1001,708 1002,708 1002,708 1003,708 1004,708 1004,708 1005,708 1005,708 1006,708 1007,708 1007,708 1008,708 1008,708 1009,708 1010,707 1011,708 1011,708 1012,708 1012,708 1013,708 1014,708 1014,708 1015,708 1015,708 1015,708 1016,708 1016,708 1017,708 1017,708 1017,708 1018,708 1018,708 1018,708 1019,708 1019,708 1020,708 1020,708 1020,708 1020,708 1021,708 1021,707 1021,707 1021,707 1022,707 1022,707 1022,707 1022,708 1023,708 1023,707 1024,707 1024,707 1024,707 1024,707 1025,707 1025,707 1025,707 1026,707 1027,707 1027,707 1027,707 1027,707 1028,707 1028,707 1028,707 1028,706 1029,706 1029,707 1030,707 1030,707 1030,707 1031,707 1031,706 1031,706 1031,706 1032,706 1032,706 1032,706 1032,707 1033,707 1033,707 1034,707 1034,707 1034,707 1034,707 1035,707 1035,707 1035,707 1035,707 1037,707 1037,707 1037,707 1037,707 1038,707 1038,707 1038,707 1038,707 1039,707 1039,707 1040,707 1040,707 1040,707 1040,707 1041,707 1041,707 1041,707 1041,707 1042,707 1042,707 1042,707 1043,707 1044,707 1044,707 1044,707 1045,707 1045,707 1045,707 1045,707 1046,707 1046,707 1047,707 1047,707 1047,707 1047,707 1048,707 1048,706 1048,706 1048,706 1049,707 1050,707 1050,707 1050,707 1051,707 1051,707 1051,707 1051,707 1052,707 1052,707 1052,707 1052,706 1053,706 1054,706 1054,706 1054,706 1054,706 1055,706 1055,706 1055,706 1055,706 1056,706 1056,706 1057,706 1057,706 1057,706 1057,706 1058,706 1058,706 1058,706 1059,706 1059,707 1060,707 1060,706 1060,706 1060,707 1061,707 1061,706 1061,706 1061,706 1062,706 1062,706 1062,706 1062,707 1063,707 1063,707 1064,707 1064,706 1064,706 1065,706 1065,706 1065,706 1065,706 1066,706 1066,706 1067,706 1067,707 1067,707 1067,707 1068,707 1068,707 1068,707 1068,707 1069,707 1069,707 1070,707 1070,707 1070,707 1071,707 1071,707 1071,707 1072,707 1072,707 1072,707 1072,707 1073,707 1073,707 1074,707 1074,707 1075,707 1075,707 1075,707 1076,707 1076,707 1077,707 1077,707 1077,707 1077,707 1078,707 1078,706 1078,706 1079,706 1079,706 1080,706 1080,706 1080,706 1080,706 1081,706 1081,706 1081,706 1081,706 1082,706 1082,706 1082,706 1083,706 1083,706 1084,706 1084,707 1084,707 1084,707 1085,707 1085,707 1085,707 1085,707 1086,707 1086,706 1087,706 1087,707 1087,707 1087,707 1088,707 1088,707 1088,707 1088,707 1089,707 1089,707 1090,707 1090,707 1090,707 1091,707 1091,707 1091,707 1092,707 1092,707 1092,707 1092,707 1093,707 1093,707 1094,707 1094,707 1094,707 1094,707 1095,707 1095,707 1095,707 1095,707 1096,707 1097,707 1097,707 1097,707 1097,707 1098,707 1098,707 1098,707 1098,707 1099,707 1099,707 1100,707 1100,707 1100,707 1100,707 1101,707 1101,707 1101,707 1101,707 1102,707 1102,707 1102,707 1102,707 1103,707 1103,707 1104,707 1104,707 1104,707 1104,707 1105,707 1105,707 1105,707 1105,707 1106,707 1106,707 1107,707 1107,707 1107,707 1108,707 1108,707 1108,707 1108,707 1109,707 1109,707 1110,707 1110,707 1110,707 1110,707 1111,707 1111,707 1111,707 1111,707 1112,707 1112,707 1112,707 1112,707 1113,707 1113,707 1114,707 1114,707 1114,707 1114,707 1115,707 1115,707 1115,707 1115,706 1116,706 1116,707 1117,707 1117,707 1117,706 1118,706 1118,706 1118,706 1118,706 1119,706 1119,706 1120,706 1120,706 1120,706 1120,706 1121,706 1121,706 1121,706 1121,706 1122,706 1122,706 1122,706 1122,706 1123,706 1123,706 1124,706 1124,706 1124,706 1125,706 1125,706 1126,706 1126,706 1127,706 1127,706 1127,706 1127,706 1128,706 1128,706 1129,706 1129,706 1130,706 1130,706 1130,706 1130,705 1131,705 1131,705 1131,705 1131,705 1132,706 1132,706 1132,706 1133,706 1133,706 1134,706 1134,706 1134,706 1134,706 1135,706 1135,706 1135,706 1135,706 1136,706 1137,706 1137,706 1137,706 1137,706 1138,706 1138,704 1138,704 1138,704 1139,704 1139,704 1140,704 1140,704 1140,704 1140,704 1141,704 1141,704 1141,704 1141,704 1142,704 1142,704 1142,704 1142,704 1143,704 1143,704 1144,704 1144,704 1144,704 1145,704 1145,706 1145,706 1145,706 1146,706 1146,706 1147,706 1147,705 1147,705 1147,705 1148,705 1148,705 1148,705 1148,705 1149,705 1149,705 1150,705 1150,705 1150,705 1150,705 1151,705 1151,705 1151,705 1151,705 1152,705 1152,705 1152,705 1152,705 1153,705 1153,705 1154,705 1154,705 1154,705 1154,705 1155,705 1155,705 1155,705 1155,705 1156,705 1156,705 1157,705 1157,705 1157,705 1157,705 1158,705 1158,706 1158,706 1158,706 1159,706 1159,706 1160,706 1160,706 1160,706 1161,706 1161,706 1161,706 1161,706 1162,706 1162,706 1162,706 1162,706 1163,706 1163,706 1164,706 1164,706 1164,706 1164,706 1165,706 1165,707 1165,707 1165,707 1166,706 1166,706 1167,706 1167,706 1167,706 1167,706 1168,706 1168,706 1168,706 1168,707 1169,707 1169,706 1170,706 1170,706 1170,706 1170,706 1171,706 1171,708 1171,708 1172,708 1172,708 1172,708 1172,708 1173,708 1173,708 1174,708 1174,708 1174,708 1174,708 1175,708 1175,708 1175,708 1175,708 1176,708 1176,708 1177,708 1177,708 1177,708 1177,708 1178,708 1178,708 1178,708 1178,708 1179,708 1180,708 1180,708 1180,708 1180,708 1181,708 1181,708 1181,708 1181,708 1182,708 1182,708 1182,708 1182,708 1183,708 1183,708 1184,708 1184,708 1184,708 1184,708 1185,708 1185,708 1185,708 1185,708 1186,708 1186,708 1187,708 1187,708 1187,708 1187,708 1188,708 1188,708 1188,708 1188,708 1189,708 1189,708 1190,708 "/>
<polyline fill="none" opacity="1" stroke="#E619C8" stroke-width="2" points="928,738 928,737 929,737 930,736 930,736 931,735 932,735 932,735 932,735 933,735 934,735 934,734 935,734 935,734 936,733 937,733 937,733 938,733 938,732 939,732 940,731 940,730 941,730 942,730 942,728 943,727 944,727 944,726 945,725 945,725 946,724 947,724 947,723 948,723 948,723 949,723 950,720 950,719 951,718 951,717 952,716 952,716 953,716 954,716 954,716 955,716 955,716 956,714 957,714 957,714 958,714 958,714 959,714 960,713 960,714 961,713 961,712 962,712 962,712 963,711 964,711 964,710 965,710 965,709 966,707 967,707 967,707 968,706 968,706 969,706 970,706 970,704 971,703 971,702 972,700 972,700 973,699 974,699 974,698 975,698 975,698 976,697 977,697 977,696 978,696 978,695 979,694 980,694 980,692 981,691 981,690 982,690 982,688 983,688 984,688 984,687 985,687 985,685 986,683 987,683 987,682 988,681 988,681 989,681 990,681 990,680 991,679 991,677 992,677 992,676 993,674 994,674 994,673 995,673 995,673 996,672 997,672 997,672 998,671 998,671 999,670 1000,670 1000,669 1001,669 1001,669 1002,668 1002,668 1003,667 1004,667 1004,666 1005,667 1005,665 1006,664 1007,664 1007,663 1008,662 1008,662 1009,663 1010,661 1010,660 1011,660 1011,660 1012,659 1012,657 1013,656 1014,655 1014,655 1015,654 1015,654 1015,653 1016,653 1016,653 1017,653 1017,653 1017,651 1018,651 1018,651 1018,650 1019,650 1019,649 1020,649 1020,646 1020,646 1020,646 1021,646 1021,645 1021,645 1021,644 1022,644 1022,643 1022,643 1022,642 1023,642 1023,642 1024,642 1024,641 1024,641 1024,640 1025,639 1025,639 1025,638 1026,638 1027,638 1027,638 1027,638 1027,637 1028,637 1028,637 1028,637 1028,637 1029,637 1029,636 1030,636 1030,636 1030,635 1031,635 1031,635 1031,635 1031,634 1032,634 1032,633 1032,633 1032,632 1033,632 1033,632 1034,632 1034,631 1034,631 1034,631 1035,631 1035,628 1035,628 1035,627 1036,624 1037,624 1037,623 1037,623 1037,621 1038,621 1038,621 1038,621 1038,620 1039,620 1039,618 1040,618 1040,617 1040,617 1040,616 1041,616 1041,616 1041,616 1041,615 1042,615 1042,614 1042,614 1042,613 1043,613 1044,612 1044,612 1044,610 1045,610 1045,609 1045,609 1045,609 1046,609 1046,608 1047,608 1047,608 1047,608 1047,607 1048,607 1048,606 1048,606 1048,605 1049,605 1049,604 1050,602 1050,602 1050,602 1051,602 1051,600 1051,600 1051,598 1052,598 1052,597 1052,597 1052,597 1053,596 1054,596 1054,594 1054,594 1054,592 1055,592 1055,590 1055,590 1055,590 1056,590 1056,590 1057,590 1057,589 1057,589 1057,588 1058,588 1058,587 1058,587 1058,582 1059,582 1059,580 1060,580 1060,579 1060,579 1060,578 1061,578 1061,577 1061,577 1061,577 1062,577 1062,576 1062,576 1062,574 1063,574 1063,572 1064,572 1064,571 1064,570 1065,570 1065,569 1065,569 1065,567 1066,567 1066,567 1067,567 1067,565 1067,565 1067,565 1068,565 1068,564 1068,564 1068,563 1069,563 1069,561 1070,561 1070,560 1070,559 1071,559 1071,559 1071,559 1071,558 1072,558 1072,557 1072,557 1072,555 1073,555 1073,554 1074,552 1074,550 1075,550 1075,549 1075,548 1076,548 1076,547 1077,547 1077,547 1077,547 1077,544 1078,544 1078,543 1078,543 1078,542 1079,542 1079,540 1080,540 1080,540 1080,540 1080,539 1081,539 1081,537 1081,537 1081,537 1082,537 1082,537 1082,536 1083,536 1083,534 1084,534 1084,532 1084,532 1084,532 1085,532 1085,531 1085,531 1085,530 1086,530 1086,529 1087,529 1087,528 1087,528 1087,528 1088,527 1088,527 1088,527 1088,526 1089,526 1089,525 1090,525 1090,525 1090,525 1090,525 1091,525 1091,524 1091,523 1092,523 1092,522 1092,522 1092,520 1093,520 1093,519 1094,519 1094,519 1094,519 1094,518 1095,518 1095,517 1095,517 1095,516 1096,513 1097,513 1097,512 1097,512 1097,511 1098,512 1098,511 1098,511 1098,510 1099,510 1099,510 1100,510 1100,510 1100,510 1100,508 1101,508 1101,508 1101,508 1101,508 1102,508 1102,507 1102,507 1102,506 1103,506 1103,506 1104,506 1104,505 1104,505 1104,504 1105,504 1105,502 1105,502 1105,501 1106,501 1106,500 1107,500 1107,498 1107,498 1108,498 1108,496 1108,496 1108,496 1109,496 1109,494 1110,494 1110,493 1110,493 1110,493 1111,493 1111,490 1111,490 1111,489 1112,489 1112,488 1112,488 1112,487 1113,487 1113,485 1114,485 1114,485 1114,485 1114,482 1115,482 1115,481 1115,481 1115,480 1116,480 1116,478 1117,478 1117,478 1117,478 1117,477 1118,477 1118,475 1118,475 1118,475 1119,475 1119,473 1120,473 1120,473 1120,473 1120,472 1121,472 1121,470 1121,470 1121,468 1122,468 1122,467 1122,467 1122,467 1123,467 1123,467 1124,466 1124,466 1124,464 1125,464 1125,462 1125,460 1126,460 1126,460 1127,460 1127,459 1127,459 1127,459 1128,459 1128,457 1128,457 1128,456 1129,456 1129,454 1130,454 1130,454 1130,454 1130,454 1131,454 1131,454 1131,454 1131,454 1132,454 1132,454 1132,452 1133,452 1133,451 1134,451 1134,450 1134,450 1134,450 1135,450 1135,450 1135,450 1135,449 1136,449 1136,448 1137,448 1137,448 1137,448 1137,447 1138,446 1138,446 1138,446 1138,445 1139,445 1139,443 1140,443 1140,443 1140,443 1140,442 1141,442 1141,442 1141,442 1141,440 1142,440 1142,439 1142,439 1142,438 1143,438 1143,438 1144,438 1144,437 1144,437 1144,436 1145,436 1145,433 1145,433 1145,433 1146,433 1146,432 1147,432 1147,431 1147,431 1147,430 1148,430 1148,428 1148,428 1148,428 1149,428 1149,427 1150,427 1150,426 1150,426 1150,426 1151,426 1151,425 1151,425 1151,423 1152,423 1152,422 1152,422 1152,421 1153,421 1153,419 1154,419 1154,418 1154,418 1154,417 1155,417 1155,416 1155,416 1155,415 1156,415 1156,415 1157,415 1157,415 1157,415 1157,413 1158,413 1158,412 1158,412 1158,411 1159,411 1159,410 1160,408 1160,408 1160,408 1161,408 1161,406 1161,406 1161,406 1162,406 1162,405 1162,405 1162,404 1163,404 1163,403 1164,403 1164,403 1164,403 1164,402 1165,402 1165,402 1165,402 1165,401 1166,401 1166,400 1167,400 1167,400 1167,399 1167,398 1168,398 1168,397 1168,397 1168,396 1169,396 1169,396 1170,396 1170,395 1170,395 1170,394 1171,394 1171,406 1171,405 1172,405 1172,404 1172,404 1172,404 1173,404 1173,403 1174,403 1174,402 1174,401 1175,401 1175,401 1175,401 1175,399 1176,399 1176,399 1177,399 1177,398 1177,398 1177,398 1178,398 1178,397 1178,397 1178,397 1179,397 1179,396 1180,396 1180,395 1180,395 1180,395 1181,395 1181,394 1181,394 1181,393 1182,393 1182,393 1182,393 1182,392 1183,392 1183,392 1184,392 1184,391 1184,391 1184,391 1185,391 1185,390 1185,390 1185,389 1186,389 1186,389 1187,388 1187,388 1187,388 1187,388 1188,388 1188,388 1188,388 1188,387 1189,387 1189,386 1190,386 "/>
<rect x="65" y="315" width="107" height="119" opacity="1" fill="#FFFFFF" stroke="none"/>
<rect x="65" y="315" width="107" height="119" opacity="1" fill="none" stroke="#000000"/>
<text x="105" y="325" dy="0.76em" text-anchor="start" font-family="sans-serif" font-size="9.67741935483871" opacity="1" fill="#000000">
anyhow
</text>
<text x="105" y="340" dy="0.76em" text-anchor="start" font-family="sans-serif" font-size="9.67741935483871" opacity="1" fill="#000000">
err-derive
</text>
<text x="105" y="355" dy="0.76em" text-anchor="start" font-family="sans-serif" font-size="9.67741935483871" opacity="1" fill="#000000">
error-chain
</text>
<text x="105" y="370" dy="0.76em" text-anchor="start" font-family="sans-serif" font-size="9.67741935483871" opacity="1" fill="#000000">
failure
</text>
<text x="105" y="385" dy="0.76em" text-anchor="start" font-family="sans-serif" font-size="9.67741935483871" opacity="1" fill="#000000">
quick-error
</text>
<text x="105" y="400" dy="0.76em" text-anchor="start" font-family="sans-serif" font-size="9.67741935483871" opacity="1" fill="#000000">
snafu
</text>
<text x="105" y="415" dy="0.76em" text-anchor="start" font-family="sans-serif" font-size="9.67741935483871" opacity="1" fill="#000000">
thiserror
</text>
<polyline fill="none" opacity="1" stroke="#E61919" stroke-width="2" points="75,330 95,330 "/>
<polyline fill="none" opacity="1" stroke="#E6C819" stroke-width="2" points="75,344 95,344 "/>
<polyline fill="none" opacity="1" stroke="#54E619" stroke-width="2" points="75,359 95,359 "/>
<polyline fill="none" opacity="1" stroke="#19E68E" stroke-width="2" points="75,374 95,374 "/>
<polyline fill="none" opacity="1" stroke="#198EE6" stroke-width="2" points="75,390 95,390 "/>
<polyline fill="none" opacity="1" stroke="#5419E6" stroke-width="2" points="75,404 95,404 "/>
<polyline fill="none" opacity="1" stroke="#E619C8" stroke-width="2" points="75,419 95,419 "/>
</svg>
