<svg width="1200" height="800" xmlns="http://www.w3.org/2000/svg">
<rect x="0" y="0" width="1199" height="799" opacity="1" fill="#FFFFFF" stroke="none"/>
<line opacity="0.1" stroke="#000000" stroke-width="1" x1="60" y1="728" x2="1190" y2="728"/>
<line opacity="0.1" stroke="#000000" stroke-width="1" x1="60" y1="718" x2="1190" y2="718"/>
<line opacity="0.1" stroke="#000000" stroke-width="1" x1="60" y1="707" x2="1190" y2="707"/>
<line opacity="0.1" stroke="#000000" stroke-width="1" x1="60" y1="697" x2="1190" y2="697"/>
<line opacity="0.1" stroke="#000000" stroke-width="1" x1="60" y1="686" x2="1190" y2="686"/>
<line opacity="0.1" stroke="#000000" stroke-width="1" x1="60" y1="676" x2="1190" y2="676"/>
<line opacity="0.1" stroke="#000000" stroke-width="1" x1="60" y1="666" x2="1190" y2="666"/>
<line opacity="0.1" stroke="#000000" stroke-width="1" x1="60" y1="655" x2="1190" y2="655"/>
<line opacity="0.1" stroke="#000000" stroke-width="1" x1="60" y1="645" x2="1190" y2="645"/>
<line opacity="0.1" stroke="#000000" stroke-width="1" x1="60" y1="634" x2="1190" y2="634"/>
<line opacity="0.1" stroke="#000000" stroke-width="1" x1="60" y1="624" x2="1190" y2="624"/>
<line opacity="0.1" stroke="#000000" stroke-width="1" x1="60" y1="613" x2="1190" y2="613"/>
<line opacity="0.1" stroke="#000000" stroke-width="1" x1="60" y1="603" x2="1190" y2="603"/>
<line opacity="0.1" stroke="#000000" stroke-width="1" x1="60" y1="592" x2="1190" y2="592"/>
<line opacity="0.1" stroke="#000000" stroke-width="1" x1="60" y1="582" x2="1190" y2="582"/>
<line opacity="0.1" stroke="#000000" stroke-width="1" x1="60" y1="571" x2="1190" y2="571"/>
<line opacity="0.1" stroke="#000000" stroke-width="1" x1="60" y1="561" x2="1190" y2="561"/>
<line opacity="0.1" stroke="#000000" stroke-width="1" x1="60" y1="550" x2="1190" y2="550"/>
<line opacity="0.1" stroke="#000000" stroke-width="1" x1="60" y1="540" x2="1190" y2="540"/>
<line opacity="0.1" stroke="#000000" stroke-width="1" x1="60" y1="530" x2="1190" y2="530"/>
<line opacity="0.1" stroke="#000000" stroke-width="1" x1="60" y1="519" x2="1190" y2="519"/>
<line opacity="0.1" stroke="#000000" stroke-width="1" x1="60" y1="509" x2="1190" y2="509"/>
<line opacity="0.1" stroke="#000000" stroke-width="1" x1="60" y1="498" x2="1190" y2="498"/>
<line opacity="0.1" stroke="#000000" stroke-width="1" x1="60" y1="488" x2="1190" y2="488"/>
<line opacity="0.1" stroke="#000000" stroke-width="1" x1="60" y1="477" x2="1190" y2="477"/>
<line opacity="0.1" stroke="#000000" stroke-width="1" x1="60" y1="467" x2="1190" y2="467"/>
<line opacity="0.1" stroke="#000000" stroke-width="1" x1="60" y1="456" x2="1190" y2="456"/>
<line opacity="0.1" stroke="#000000" stroke-width="1" x1="60" y1="446" x2="1190" y2="446"/>
<line opacity="0.1" stroke="#000000" stroke-width="1" x1="60" y1="435" x2="1190" y2="435"/>
<line opacity="0.1" stroke="#000000" stroke-width="1" x1="60" y1="425" x2="1190" y2="425"/>
<line opacity="0.1" stroke="#000000" stroke-width="1" x1="60" y1="414" x2="1190" y2="414"/>
<line opacity="0.1" stroke="#000000" stroke-width="1" x1="60" y1="404" x2="1190" y2="404"/>
<line opacity="0.1" stroke="#000000" stroke-width="1" x1="60" y1="393" x2="1190" y2="393"/>
<line opacity="0.1" stroke="#000000" stroke-width="1" x1="60" y1="383" x2="1190" y2="383"/>
<line opacity="0.1" stroke="#000000" stroke-width="1" x1="60" y1="373" x2="1190" y2="373"/>
<line opacity="0.1" stroke="#000000" stroke-width="1" x1="60" y1="362" x2="1190" y2="362"/>
<line opacity="0.1" stroke="#000000" stroke-width="1" x1="60" y1="352" x2="1190" y2="352"/>
<line opacity="0.1" stroke="#000000" stroke-width="1" x1="60" y1="341" x2="1190" y2="341"/>
<line opacity="0.1" stroke="#000000" stroke-width="1" x1="60" y1="331" x2="1190" y2="331"/>
<line opacity="0.1" stroke="#000000" stroke-width="1" x1="60" y1="320" x2="1190" y2="320"/>
<line opacity="0.1" stroke="#000000" stroke-width="1" x1="60" y1="310" x2="1190" y2="310"/>
<line opacity="0.1" stroke="#000000" stroke-width="1" x1="60" y1="299" x2="1190" y2="299"/>
<line opacity="0.1" stroke="#000000" stroke-width="1" x1="60" y1="289" x2="1190" y2="289"/>
<line opacity="0.1" stroke="#000000" stroke-width="1" x1="60" y1="278" x2="1190" y2="278"/>
<line opacity="0.1" stroke="#000000" stroke-width="1" x1="60" y1="268" x2="1190" y2="268"/>
<line opacity="0.1" stroke="#000000" stroke-width="1" x1="60" y1="257" x2="1190" y2="257"/>
<line opacity="0.1" stroke="#000000" stroke-width="1" x1="60" y1="247" x2="1190" y2="247"/>
<line opacity="0.1" stroke="#000000" stroke-width="1" x1="60" y1="236" x2="1190" y2="236"/>
<line opacity="0.1" stroke="#000000" stroke-width="1" x1="60" y1="226" x2="1190" y2="226"/>
<line opacity="0.1" stroke="#000000" stroke-width="1" x1="60" y1="216" x2="1190" y2="216"/>
<line opacity="0.1" stroke="#000000" stroke-width="1" x1="60" y1="205" x2="1190" y2="205"/>
<line opacity="0.1" stroke="#000000" stroke-width="1" x1="60" y1="195" x2="1190" y2="195"/>
<line opacity="0.1" stroke="#000000" stroke-width="1" x1="60" y1="184" x2="1190" y2="184"/>
<line opacity="0.1" stroke="#000000" stroke-width="1" x1="60" y1="174" x2="1190" y2="174"/>
<line opacity="0.1" stroke="#000000" stroke-width="1" x1="60" y1="163" x2="1190" y2="163"/>
<line opacity="0.1" stroke="#000000" stroke-width="1" x1="60" y1="153" x2="1190" y2="153"/>
<line opacity="0.1" stroke="#000000" stroke-width="1" x1="60" y1="142" x2="1190" y2="142"/>
<line opacity="0.1" stroke="#000000" stroke-width="1" x1="60" y1="132" x2="1190" y2="132"/>
<line opacity="0.1" stroke="#000000" stroke-width="1" x1="60" y1="121" x2="1190" y2="121"/>
<line opacity="0.1" stroke="#000000" stroke-width="1" x1="60" y1="111" x2="1190" y2="111"/>
<line opacity="0.1" stroke="#000000" stroke-width="1" x1="60" y1="100" x2="1190" y2="100"/>
<line opacity="0.1" stroke="#000000" stroke-width="1" x1="60" y1="90" x2="1190" y2="90"/>
<line opacity="0.1" stroke="#000000" stroke-width="1" x1="60" y1="80" x2="1190" y2="80"/>
<line opacity="0.1" stroke="#000000" stroke-width="1" x1="60" y1="69" x2="1190" y2="69"/>
<line opacity="0.1" stroke="#000000" stroke-width="1" x1="60" y1="59" x2="1190" y2="59"/>
<line opacity="0.1" stroke="#000000" stroke-width="1" x1="60" y1="48" x2="1190" y2="48"/>
<line opacity="0.1" stroke="#000000" stroke-width="1" x1="60" y1="38" x2="1190" y2="38"/>
<line opacity="0.1" stroke="#000000" stroke-width="1" x1="60" y1="27" x2="1190" y2="27"/>
<line opacity="0.1" stroke="#000000" stroke-width="1" x1="60" y1="17" x2="1190" y2="17"/>
<text x="10" y="375" dy="0.76em" text-anchor="middle" font-family="sans-serif" font-size="9.67741935483871" opacity="1" fill="#000000" transform="rotate(270, 10, 375)">
Fraction of dependent crates
</text>
<line opacity="0.2" stroke="#000000" stroke-width="1" x1="60" y1="634" x2="1190" y2="634"/>
<line opacity="0.2" stroke="#000000" stroke-width="1" x1="60" y1="530" x2="1190" y2="530"/>
<line opacity="0.2" stroke="#000000" stroke-width="1" x1="60" y1="425" x2="1190" y2="425"/>
<line opacity="0.2" stroke="#000000" stroke-width="1" x1="60" y1="320" x2="1190" y2="320"/>
<line opacity="0.2" stroke="#000000" stroke-width="1" x1="60" y1="216" x2="1190" y2="216"/>
<polyline fill="none" opacity="1" stroke="#000000" stroke-width="1" points="59,10 59,740 "/>
<text x="50" y="634" dy="0.5ex" text-anchor="end" font-family="sans-serif" font-size="9.67741935483871" opacity="1" fill="#000000">
0.01
</text>
<polyline fill="none" opacity="1" stroke="#000000" stroke-width="1" points="54,634 59,634 "/>
<text x="50" y="530" dy="0.5ex" text-anchor="end" font-family="sans-serif" font-size="9.67741935483871" opacity="1" fill="#000000">
0.02
</text>
<polyline fill="none" opacity="1" stroke="#000000" stroke-width="1" points="54,530 59,530 "/>
<text x="50" y="425" dy="0.5ex" text-anchor="end" font-family="sans-serif" font-size="9.67741935483871" opacity="1" fill="#000000">
0.03
</text>
<polyline fill="none" opacity="1" stroke="#000000" stroke-width="1" points="54,425 59,425 "/>
<text x="50" y="320" dy="0.5ex" text-anchor="end" font-family="sans-serif" font-size="9.67741935483871" opacity="1" fill="#000000">
0.04
</text>
<polyline fill="none" opacity="1" stroke="#000000" stroke-width="1" points="54,320 59,320 "/>
<text x="50" y="216" dy="0.5ex" text-anchor="end" font-family="sans-serif" font-size="9.67741935483871" opacity="1" fill="#000000">
0.05
</text>
<polyline fill="none" opacity="1" stroke="#000000" stroke-width="1" points="54,216 59,216 "/>
<polyline fill="none" opacity="1" stroke="#000000" stroke-width="1" points="60,740 1190,740 "/>
<text x="60" y="750" dy="0.76em" text-anchor="middle" font-family="sans-serif" font-size="9.67741935483871" opacity="1" fill="#000000">
2015-09-24Z
</text>
<polyline fill="none" opacity="1" stroke="#000000" stroke-width="1" points="60,740 60,745 "/>
<text x="174" y="750" dy="0.76em" text-anchor="middle" font-family="sans-serif" font-size="9.67741935483871" opacity="1" fill="#000000">
2016-03-24Z
</text>
<polyline fill="none" opacity="1" stroke="#000000" stroke-width="1" points="174,740 174,745 "/>
<text x="288" y="750" dy="0.76em" text-anchor="middle" font-family="sans-serif" font-size="9.67741935483871" opacity="1" fill="#000000">
2016-09-22Z
</text>
<polyline fill="none" opacity="1" stroke="#000000" stroke-width="1" points="288,740 288,745 "/>
<text x="402" y="750" dy="0.76em" text-anchor="middle" font-family="sans-serif" font-size="9.67741935483871" opacity="1" fill="#000000">
2017-03-23Z
</text>
<polyline fill="none" opacity="1" stroke="#000000" stroke-width="1" points="402,740 402,745 "/>
<text x="516" y="750" dy="0.76em" text-anchor="middle" font-family="sans-serif" font-size="9.67741935483871" opacity="1" fill="#000000">
2017-09-21Z
</text>
<polyline fill="none" opacity="1" stroke="#000000" stroke-width="1" points="516,740 516,745 "/>
<text x="630" y="750" dy="0.76em" text-anchor="middle" font-family="sans-serif" font-size="9.67741935483871" opacity="1" fill="#000000">
2018-03-22Z
</text>
<polyline fill="none" opacity="1" stroke="#000000" stroke-width="1" points="630,740 630,745 "/>
<text x="744" y="750" dy="0.76em" text-anchor="middle" font-family="sans-serif" font-size="9.67741935483871" opacity="1" fill="#000000">
2018-09-20Z
</text>
<polyline fill="none" opacity="1" stroke="#000000" stroke-width="1" points="744,740 744,745 "/>
<text x="858" y="750" dy="0.76em" text-anchor="middle" font-family="sans-serif" font-size="9.67741935483871" opacity="1" fill="#000000">
2019-03-21Z
</text>
<polyline fill="none" opacity="1" stroke="#000000" stroke-width="1" points="858,740 858,745 "/>
<text x="973" y="750" dy="0.76em" text-anchor="middle" font-family="sans-serif" font-size="9.67741935483871" opacity="1" fill="#000000">
2019-09-19Z
</text>
<polyline fill="none" opacity="1" stroke="#000000" stroke-width="1" points="973,740 973,745 "/>
<text x="1087" y="750" dy="0.76em" text-anchor="middle" font-family="sans-serif" font-size="9.67741935483871" opacity="1" fill="#000000">
2020-03-19Z
</text>
<polyline fill="none" opacity="1" stroke="#000000" stroke-width="1" points="1087,740 1087,745 "/>
<polyline fill="none" opacity="1" stroke="#E61919" stroke-width="2" points="984,738 985,738 986,738 986,738 987,738 988,738 989,738 989,737 990,737 990,737 991,737 991,737 992,736 993,735 993,735 994,735 994,735 995,734 996,734 996,733 997,733 998,733 998,732 999,732 1000,732 1001,731 1001,730 1002,729 1003,727 1003,723 1004,723 1005,723 1005,723 1006,722 1006,722 1007,722 1008,720 1008,717 1009,716 1010,716 1010,715 1011,715 1011,714 1012,714 1013,713 1013,713 1014,711 1015,711 1015,710 1016,710 1016,710 1017,710 1018,709 1018,709 1019,707 1020,707 1020,706 1021,706 1021,706 1022,706 1023,706 1023,704 1024,704 1025,704 1025,704 1026,703 1026,703 1027,702 1028,703 1028,702 1029,702 1030,701 1030,701 1031,701 1031,700 1032,700 1033,699 1033,699 1034,698 1035,698 1035,697 1036,697 1036,696 1037,695 1038,695 1038,693 1039,692 1040,692 1040,691 1041,691 1042,690 1042,688 1043,687 1043,686 1044,686 1045,685 1045,683 1046,682 1047,681 1047,681 1048,681 1048,680 1049,680 1050,680 1050,680 1051,679 1052,679 1052,676 1053,675 1053,675 1054,675 1055,674 1055,674 1056,673 1057,673 1057,673 1058,673 1058,671 1059,670 1060,669 1060,669 1061,668 1062,667 1062,667 1063,666 1063,666 1064,666 1065,666 1065,665 1066,665 1067,664 1067,664 1068,662 1068,662 1069,662 1070,662 1070,662 1071,662 1072,661 1072,661 1073,660 1073,659 1074,659 1075,659 1075,658 1076,657 1077,657 1077,656 1078,657 1079,656 1079,656 1079,656 1079,656 1080,655 1080,655 1080,654 1081,654 1081,654 1082,653 1082,653 1082,651 1083,651 1083,647 1084,647 1084,646 1084,646 1084,645 1085,645 1085,645 1085,645 1085,644 1086,644 1086,643 1087,643 1087,643 1087,643 1087,642 1088,642 1088,642 1089,641 1089,641 1089,640 1090,640 1090,640 1090,639 1091,639 1091,638 1092,638 1092,637 1092,637 1092,637 1093,637 1093,636 1094,636 1094,636 1094,636 1095,636 1095,635 1095,635 1095,635 1096,635 1096,634 1097,634 1097,633 1097,633 1097,633 1098,633 1098,632 1099,632 1099,631 1099,631 1099,629 1100,629 1100,627 1100,625 1101,625 1101,624 1102,624 1102,623 1102,623 1102,622 1103,622 1103,621 1104,621 1104,621 1104,621 1104,620 1105,620 1105,619 1105,619 1105,617 1106,617 1106,617 1107,617 1107,615 1107,615 1107,614 1108,614 1109,613 1109,613 1109,613 1110,613 1110,612 1110,612 1110,610 1111,610 1111,610 1112,610 1112,610 1112,610 1112,610 1113,610 1113,609 1114,609 1114,609 1114,609 1114,608 1115,607 1116,607 1116,605 1116,605 1116,604 1117,604 1117,603 1117,603 1117,601 1118,601 1118,599 1119,599 1119,599 1119,599 1120,599 1120,598 1121,598 1121,596 1121,596 1121,594 1122,594 1122,593 1122,593 1122,593 1123,593 1123,592 1124,592 1124,591 1124,591 1124,587 1125,587 1125,585 1126,585 1126,582 1126,582 1126,581 1127,581 1127,580 1127,580 1127,579 1128,579 1128,578 1129,578 1129,576 1129,576 1129,576 1130,576 1130,575 1131,574 1131,574 1131,572 1132,572 1132,570 1132,570 1132,569 1133,569 1133,567 1134,567 1134,567 1134,567 1134,566 1135,566 1135,565 1136,565 1136,564 1136,564 1136,562 1137,561 1137,561 1137,558 1138,558 1138,557 1139,557 1139,556 1139,556 1139,555 1140,555 1140,554 1141,552 1141,551 1142,551 1142,550 1142,549 1143,549 1143,549 1144,549 1144,548 1144,548 1144,547 1145,547 1145,546 1146,546 1146,545 1146,545 1146,545 1147,545 1147,544 1147,544 1147,544 1148,544 1148,544 1149,544 1149,543 1149,542 1150,542 1150,542 1151,542 1151,541 1151,541 1151,539 1152,539 1152,538 1153,538 1153,538 1153,538 1153,537 1154,537 1154,536 1154,536 1154,534 1155,534 1155,534 1156,534 1156,533 1156,533 1156,533 1157,533 1157,532 1158,532 1158,532 1158,532 1158,531 1159,531 1159,531 1159,530 1160,530 1160,529 1161,529 1161,529 1161,529 1161,528 1162,528 1162,528 1163,528 1163,527 1163,527 1163,527 1164,527 1164,525 1164,525 1165,525 1165,524 1166,524 1166,523 1166,523 1166,522 1167,522 1167,522 1168,522 1168,521 1168,521 1168,519 1169,519 1169,519 1169,519 1169,518 1170,518 1170,517 1171,517 1171,517 1171,517 1171,516 1172,516 1172,514 1173,514 1173,513 1173,513 1173,513 1174,513 1174,512 1174,512 1174,510 1175,510 1175,509 1176,509 1176,507 1176,507 1177,507 1177,506 1178,506 1178,504 1178,504 1178,503 1179,503 1179,501 1179,502 1179,501 1180,501 1180,498 1181,498 1181,498 1181,498 1181,496 1182,496 1182,496 1183,496 1183,494 1183,494 1183,493 1184,493 1184,493 1184,493 1184,492 1185,492 1185,492 1186,492 1186,490 1186,490 1186,489 1187,489 1187,489 1188,489 1188,489 1188,489 1188,487 1189,487 1189,486 1190,486 "/>
<polyline fill="none" opacity="1" stroke="#E6C819" stroke-width="2" points="807,738 814,738 819,737 821,736 843,736 850,736 864,735 865,734 868,734 870,734 872,733 873,733 875,733 875,733 876,733 877,733 880,733 881,733 882,733 882,732 885,732 885,732 886,732 887,732 887,732 889,732 889,732 890,732 890,732 891,732 892,731 892,731 894,732 895,732 897,732 897,732 898,732 899,732 899,732 900,732 901,732 902,732 903,732 904,732 905,732 905,732 906,731 907,731 908,731 909,731 910,731 911,731 912,731 913,730 914,730 914,730 915,730 915,730 916,729 917,729 917,729 918,729 919,729 919,729 920,729 920,729 921,729 922,729 922,728 923,728 924,728 924,728 925,728 925,729 926,729 927,729 927,729 928,729 929,729 930,729 931,728 931,728 932,727 932,727 933,728 934,728 934,728 935,728 936,728 936,728 937,728 938,728 939,728 939,727 940,727 941,727 941,727 942,727 943,727 944,727 944,727 945,727 946,727 946,727 947,727 947,727 948,727 949,727 949,727 950,727 951,727 951,727 952,727 952,727 953,727 954,727 954,727 956,727 956,727 957,727 957,727 958,727 959,727 959,726 960,726 961,726 961,725 962,725 962,725 963,725 964,725 964,725 965,725 966,725 966,725 967,725 968,725 968,725 969,725 969,725 970,725 971,725 971,725 972,725 973,725 973,725 974,725 974,725 975,725 976,725 977,725 978,725 978,725 979,725 980,724 981,724 981,724 982,723 983,723 984,723 984,723 985,723 986,723 986,723 987,724 988,724 989,723 989,723 990,723 990,723 991,723 991,723 992,723 993,723 993,723 994,723 995,723 996,723 996,723 997,723 998,724 998,724 999,724 999,724 1000,724 1001,724 1001,724 1002,724 1003,724 1003,724 1004,724 1005,723 1005,723 1006,723 1006,723 1007,723 1008,723 1009,723 1010,723 1010,723 1011,724 1011,724 1012,724 1013,724 1013,724 1014,724 1015,724 1015,724 1016,724 1016,724 1017,724 1018,724 1019,724 1020,724 1020,724 1021,724 1021,724 1022,723 1023,724 1023,724 1024,724 1025,724 1025,724 1026,724 1026,724 1027,724 1028,724 1028,724 1029,724 1030,724 1030,724 1031,724 1032,724 1033,724 1033,724 1034,724 1035,724 1035,724 1036,724 1036,724 1037,724 1038,724 1038,724 1039,724 1040,724 1041,724 1042,724 1042,724 1043,724 1043,724 1044,724 1045,724 1045,724 1046,724 1047,724 1047,724 1048,724 1048,724 1049,724 1050,724 1050,724 1051,724 1052,724 1052,724 1053,724 1053,724 1054,724 1055,724 1055,724 1056,724 1057,724 1057,724 1058,724 1058,724 1059,723 1060,723 1060,723 1061,722 1062,722 1062,722 1063,722 1063,722 1064,722 1065,723 1065,723 1066,723 1067,722 1067,722 1068,722 1068,722 1069,722 1070,722 1070,722 1071,722 1072,722 1073,722 1073,722 1074,722 1075,722 1075,722 1076,722 1077,722 1077,722 1078,722 1079,722 1079,722 1079,722 1079,722 1080,722 1080,722 1080,722 1081,722 1081,722 1082,722 1082,722 1082,722 1083,722 1083,722 1084,722 1084,723 1084,723 1084,723 1085,723 1085,723 1085,723 1085,723 1086,723 1086,723 1087,723 1087,723 1087,723 1087,723 1088,723 1088,722 1089,722 1089,722 1089,722 1090,722 1090,722 1090,722 1091,722 1091,722 1092,722 1092,722 1092,722 1092,722 1093,722 1093,722 1094,722 1094,722 1094,722 1095,722 1095,722 1095,722 1095,722 1096,722 1096,722 1097,722 1097,722 1097,722 1097,722 1098,722 1098,722 1099,722 1099,722 1099,722 1099,722 1100,722 1100,722 1100,722 1101,722 1101,722 1102,722 1102,722 1102,722 1102,722 1103,722 1103,722 1104,722 1104,722 1104,722 1104,722 1105,722 1105,722 1105,722 1105,722 1106,722 1106,722 1107,722 1107,722 1107,722 1107,722 1108,722 1109,722 1109,722 1109,722 1110,722 1110,722 1110,722 1110,722 1111,722 1111,722 1112,722 1112,722 1112,722 1112,722 1113,722 1113,722 1114,722 1114,722 1114,722 1114,722 1115,722 1116,722 1116,722 1116,722 1116,722 1117,722 1117,722 1117,722 1118,722 1118,722 1119,722 1119,722 1119,722 1120,722 1120,722 1121,722 1121,722 1121,722 1121,722 1122,722 1122,722 1122,722 1122,722 1123,722 1123,722 1124,722 1124,722 1124,722 1124,722 1125,722 1125,722 1126,722 1126,722 1126,722 1126,722 1127,722 1127,722 1127,722 1127,722 1128,722 1128,722 1129,722 1129,722 1129,722 1129,722 1130,722 1130,722 1131,722 1131,722 1131,722 1132,722 1132,722 1132,722 1132,722 1133,722 1133,722 1134,722 1134,722 1134,722 1134,722 1135,722 1135,722 1136,722 1136,722 1136,722 1136,722 1137,723 1137,723 1137,723 1138,723 1138,723 1139,723 1139,723 1139,723 1139,723 1140,723 1140,723 1141,723 1141,723 1142,723 1142,723 1142,723 1143,723 1143,723 1144,723 1144,723 1144,723 1144,723 1145,723 1145,723 1146,723 1146,723 1146,723 1146,723 1147,723 1147,723 1147,723 1147,723 1148,723 1148,723 1149,723 1149,723 1149,723 1150,723 1150,723 1151,723 1151,723 1151,723 1151,723 1152,723 1152,723 1153,723 1153,723 1153,723 1153,723 1154,723 1154,723 1154,723 1154,723 1155,723 1155,723 1156,723 1156,723 1156,723 1156,723 1157,723 1157,723 1158,723 1158,723 1158,723 1158,723 1159,723 1159,723 1159,723 1160,723 1160,723 1161,723 1161,723 1161,723 1161,723 1162,723 1162,723 1163,723 1163,723 1163,723 1164,723 1164,723 1164,723 1165,723 1165,723 1166,723 1166,723 1166,723 1166,723 1167,723 1167,723 1168,723 1168,723 1168,723 1168,723 1169,723 1169,723 1169,723 1169,723 1170,723 1170,723 1171,723 1171,723 1171,723 1171,723 1172,723 1172,723 1173,723 1173,723 1173,723 1173,724 1174,724 1174,724 1174,724 1174,724 1175,724 1175,724 1176,724 1176,724 1176,724 1177,724 1177,724 1178,724 1178,724 1178,724 1178,724 1179,724 1179,724 1179,724 1179,724 1180,724 1180,724 1181,724 1181,724 1181,724 1181,724 1182,724 1182,724 1183,724 1183,724 1183,724 1183,724 1184,724 1184,724 1184,724 1184,724 1185,724 1185,724 1186,724 1186,724 1186,724 1186,724 1187,724 1187,724 1188,724 1188,724 1188,724 1188,724 1189,724 1189,724 1190,724 "/>
<polyline fill="none" opacity="1" stroke="#54E619" stroke-width="2" points="229,737 230,733 235,735 240,733 247,731 248,729 248,727 253,726 265,724 265,724 266,721 271,719 273,716 273,714 275,714 275,712 278,711 280,713 281,710 282,705 284,703 285,702 289,700 291,699 292,699 293,691 294,686 295,683 296,681 300,681 301,679 302,678 303,676 304,675 305,675 305,673 306,674 307,674 307,674 308,673 309,673 310,673 310,673 311,673 312,671 312,670 313,670 313,669 314,667 315,667 315,664 316,663 317,661 317,657 318,656 319,654 320,653 321,653 322,650 325,651 326,650 327,648 327,647 328,645 329,644 330,643 330,641 331,637 332,633 333,632 334,626 335,625 335,623 336,622 337,622 338,619 339,618 339,617 340,616 341,614 342,612 342,611 343,603 344,600 344,596 345,586 345,585 346,584 347,584 347,583 348,582 349,577 349,574 350,575 350,569 352,567 352,567 353,566 354,565 354,566 355,566 355,566 356,562 357,562 357,561 358,560 359,553 359,554 360,554 360,555 361,555 362,555 363,553 364,553 366,553 366,551 367,548 367,549 368,548 369,548 369,549 370,548 371,548 371,548 372,547 372,548 373,544 374,544 374,542 375,540 376,538 376,539 377,539 377,536 378,532 379,530 380,530 381,527 381,523 382,523 382,523 383,523 384,524 384,523 385,522 386,521 386,521 387,522 387,518 388,519 389,519 389,517 390,517 391,515 391,513 392,511 392,511 393,509 394,509 394,507 395,504 396,504 396,505 397,505 397,504 398,503 399,497 399,496 400,492 401,491 401,492 402,492 403,490 403,489 404,485 404,483 405,482 406,481 406,479 407,479 408,479 408,479 409,479 409,478 410,479 411,479 411,480 412,477 413,478 413,478 414,478 414,476 415,475 416,473 416,472 417,470 418,469 418,468 419,467 419,464 420,463 421,463 421,462 422,463 423,464 423,462 424,461 424,461 425,457 426,454 426,452 427,450 428,448 428,449 429,446 429,446 430,445 431,444 431,444 432,441 433,441 433,441 434,438 434,437 435,436 436,431 436,427 437,427 438,427 438,429 439,425 440,421 440,420 441,421 441,420 442,419 443,419 443,420 444,419 445,421 445,417 446,414 446,413 447,413 448,413 448,414 449,414 450,413 450,414 451,412 451,412 452,412 453,412 453,410 454,407 455,407 455,406 456,405 456,401 457,401 458,401 458,400 459,399 460,398 460,398 461,396 461,396 462,394 463,394 463,393 464,392 465,391 465,390 466,390 466,391 467,389 468,390 468,391 469,390 470,389 470,388 471,387 471,386 472,387 473,384 473,383 474,377 475,377 475,378 476,374 477,371 477,369 478,367 478,366 479,366 480,364 480,361 481,360 482,360 482,358 483,358 483,356 484,356 485,356 485,356 486,355 487,354 487,353 488,352 488,354 489,353 490,352 490,351 491,350 492,349 492,348 493,345 493,345 494,346 495,346 495,343 496,342 497,340 497,338 498,338 498,337 499,337 500,334 500,334 501,334 502,330 502,329 503,329 503,327 504,323 505,322 505,322 506,322 507,321 507,318 508,317 508,315 509,316 510,316 510,315 511,315 512,314 512,313 513,313 514,315 514,315 515,315 515,316 516,316 517,316 517,316 518,296 519,295 519,294 520,295 520,293 521,290 522,289 522,288 523,288 524,287 524,287 525,286 525,284 526,286 527,285 527,284 528,282 529,281 529,281 530,279 530,278 531,277 532,278 532,278 533,279 534,279 534,279 535,278 535,279 536,280 537,280 537,281 538,281 539,281 539,280 540,279 540,280 541,280 542,280 542,280 543,280 544,280 544,281 545,280 545,276 546,275 547,273 547,273 548,273 549,273 549,274 550,271 551,268 551,269 552,270 552,270 553,270 554,270 554,270 555,270 556,270 556,269 557,269 557,271 558,271 559,271 559,270 560,268 561,268 561,268 562,268 562,266 563,267 564,264 564,263 565,263 566,264 566,263 567,264 567,266 568,267 569,269 569,267 570,267 571,266 571,265 572,265 572,264 573,265 574,264 574,263 575,261 576,260 576,261 577,261 577,258 578,256 579,255 579,255 580,254 581,254 581,254 582,254 582,256 583,254 584,254 584,254 585,255 586,256 586,256 587,254 588,255 588,256 589,256 589,257 590,257 591,257 591,256 592,255 593,256 593,257 594,258 594,259 595,259 596,260 596,260 597,261 598,265 598,265 599,265 599,266 600,266 601,265 601,266 602,266 603,267 603,267 604,267 604,267 605,267 606,267 606,268 607,268 608,267 608,266 609,267 609,268 610,269 611,269 611,269 612,271 613,271 613,271 614,272 614,273 615,274 616,275 616,277 617,277 618,278 618,283 619,284 619,285 620,286 621,285 621,286 622,286 623,287 623,288 624,285 625,285 625,285 626,286 626,287 627,288 628,289 628,290 629,290 630,289 630,289 631,290 631,291 632,291 633,292 633,293 634,295 635,295 635,294 636,295 636,295 637,294 638,294 638,294 639,295 640,297 640,297 641,298 641,298 642,299 643,300 643,300 644,300 645,300 645,301 646,303 646,304 647,303 648,303 648,304 649,305 650,304 650,305 651,304 651,305 652,306 653,307 653,307 654,306 655,306 655,306 656,307 656,308 657,309 658,308 658,309 659,308 660,309 660,309 661,310 661,311 662,312 663,313 663,313 664,314 665,313 665,313 666,311 667,312 667,312 668,312 668,312 669,313 670,316 670,316 671,317 672,318 672,320 673,320 673,321 674,321 675,321 675,321 676,321 677,320 677,320 678,322 678,322 679,321 680,321 680,322 681,323 682,323 682,323 683,323 683,323 684,324 685,324 685,325 686,325 687,326 687,325 688,326 688,326 689,327 690,328 690,328 691,329 692,329 692,330 693,330 693,330 694,330 695,330 695,331 696,331 697,331 697,331 698,332 698,332 699,332 700,332 700,332 701,333 702,333 702,334 703,331 704,332 704,332 705,331 705,332 706,332 707,335 707,336 708,336 709,336 709,337 710,337 710,338 711,338 712,339 712,340 713,341 714,341 714,342 715,344 715,345 716,345 717,347 717,347 718,347 719,347 719,348 720,348 720,350 721,350 722,351 722,352 723,351 724,353 724,353 725,354 725,354 726,353 727,352 727,352 728,355 729,355 729,356 730,356 730,356 731,359 732,359 732,360 733,360 734,360 734,360 735,360 735,360 736,360 737,361 737,361 738,362 739,363 739,363 740,363 741,364 741,364 742,364 742,365 743,365 744,365 744,365 745,365 746,366 746,366 747,366 747,366 748,367 748,367 749,366 749,367 750,366 751,367 751,368 752,369 752,371 753,373 754,372 754,372 755,372 756,372 756,372 757,373 757,373 758,374 759,375 759,376 760,379 761,376 761,377 762,377 762,379 763,379 764,379 764,380 765,380 766,381 766,381 767,382 767,382 768,382 769,382 769,382 770,383 771,384 771,383 772,383 772,383 773,384 774,384 774,384 775,385 776,387 776,400 777,401 778,402 778,402 779,402 779,403 780,402 781,402 781,403 782,404 783,403 783,404 784,404 784,404 785,404 786,405 786,405 787,405 788,406 788,406 789,407 789,407 790,407 791,408 791,407 792,408 793,408 793,409 794,410 794,411 795,411 796,411 796,412 797,412 798,413 798,413 799,413 799,414 800,415 801,415 801,415 802,416 803,416 803,417 804,417 804,418 805,418 806,419 806,419 807,420 808,419 808,420 809,420 809,422 810,422 811,423 811,424 812,425 813,426 813,438 814,438 815,438 815,426 816,427 816,427 817,427 818,429 818,429 819,429 820,430 820,429 821,430 821,430 822,429 823,430 823,430 824,431 825,431 825,431 826,430 826,431 827,431 828,431 828,432 829,432 830,433 830,434 831,434 831,436 832,436 833,437 833,437 834,437 835,438 835,438 836,439 836,440 837,439 838,439 838,440 839,440 840,440 840,439 841,440 841,440 842,440 843,441 843,441 844,442 845,442 845,443 846,443 846,443 847,444 848,445 848,445 849,446 850,446 850,446 851,446 852,447 852,447 853,448 853,448 854,449 855,449 855,450 856,450 857,451 857,451 858,451 858,451 859,452 860,453 860,453 861,453 862,454 862,454 863,454 863,455 864,455 865,455 865,456 866,456 867,457 867,457 868,458 868,456 869,456 870,456 870,457 871,458 872,458 872,458 873,459 873,459 874,459 875,460 875,460 876,461 877,461 877,461 878,461 878,462 879,462 880,463 880,463 881,464 882,464 882,464 883,464 883,465 884,465 885,465 885,466 886,467 887,468 887,468 888,468 889,469 889,469 890,470 890,470 891,471 892,472 892,471 893,472 894,472 894,472 895,473 895,473 896,474 897,474 897,474 898,474 899,475 899,475 900,476 900,475 901,476 902,475 902,475 903,475 904,475 904,475 905,476 905,476 906,477 907,477 907,477 908,478 909,478 909,478 910,478 910,479 911,479 912,479 912,480 913,481 914,481 914,481 915,482 915,482 916,482 917,482 917,483 918,483 919,483 919,484 920,484 920,484 921,484 922,485 922,485 923,486 924,486 924,486 925,486 925,486 926,486 927,487 927,487 928,487 929,487 929,487 930,488 931,487 931,488 932,488 932,488 933,489 934,489 934,490 935,490 936,490 936,490 937,491 937,491 938,491 939,491 939,492 940,492 941,492 941,492 942,493 942,493 943,493 944,493 944,493 945,493 946,493 946,494 947,494 947,494 948,494 949,495 949,496 950,496 951,497 951,497 952,497 952,497 953,497 954,497 954,498 955,498 956,498 956,499 957,499 957,499 958,499 959,500 959,500 960,500 961,500 961,500 962,501 962,501 963,502 964,502 964,502 965,502 966,503 966,503 967,504 968,504 968,504 969,504 969,505 970,505 971,505 971,505 972,506 973,506 973,506 974,506 974,507 975,505 976,506 976,506 977,506 978,506 978,506 979,507 979,507 980,507 981,507 981,507 982,508 983,508 983,508 984,508 984,508 985,509 986,509 986,508 987,509 988,509 988,510 989,511 989,511 990,511 990,511 991,512 991,512 992,512 993,512 993,513 994,513 994,513 995,513 996,513 996,514 997,514 998,515 998,515 999,515 999,515 1000,515 1001,516 1001,515 1002,516 1003,516 1003,516 1004,516 1005,516 1005,516 1006,516 1006,516 1007,516 1008,516 1008,516 1009,517 1010,517 1010,518 1011,518 1011,519 1012,519 1013,519 1013,519 1014,520 1015,520 1015,520 1016,521 1016,521 1017,521 1018,521 1018,521 1019,521 1020,522 1020,522 1021,522 1021,522 1022,522 1023,523 1023,523 1024,523 1025,524 1025,524 1026,524 1026,524 1027,525 1028,525 1028,526 1029,526 1030,526 1030,526 1031,526 1031,526 1032,527 1033,527 1033,527 1034,527 1035,527 1035,528 1036,528 1036,528 1037,528 1038,528 1038,529 1039,529 1040,530 1040,530 1041,530 1042,531 1042,531 1043,532 1043,532 1044,533 1045,533 1045,533 1046,533 1047,533 1047,535 1048,535 1048,535 1049,536 1050,537 1050,537 1051,537 1052,537 1052,538 1053,538 1053,538 1054,539 1055,539 1055,539 1056,539 1057,539 1057,539 1058,539 1058,540 1059,540 1060,540 1060,541 1061,541 1062,542 1062,541 1063,541 1063,541 1064,541 1065,541 1065,542 1066,542 1067,542 1067,542 1068,543 1068,543 1069,544 1070,544 1070,543 1071,544 1072,544 1072,544 1073,544 1073,545 1074,545 1075,545 1075,545 1076,545 1077,546 1077,546 1078,546 1079,546 1079,546 1079,546 1079,547 1080,547 1080,547 1080,547 1081,547 1081,548 1082,548 1082,548 1082,548 1083,548 1083,549 1084,549 1084,549 1084,549 1084,549 1085,549 1085,549 1085,549 1085,549 1086,549 1086,550 1087,550 1087,550 1087,550 1087,550 1088,550 1088,551 1089,551 1089,551 1089,552 1090,552 1090,552 1090,552 1091,552 1091,553 1092,553 1092,553 1092,553 1092,553 1093,553 1093,553 1094,553 1094,553 1094,553 1095,553 1095,553 1095,553 1095,553 1096,553 1096,554 1097,554 1097,554 1097,554 1097,554 1098,554 1098,555 1099,555 1099,555 1099,555 1099,555 1100,555 1100,556 1100,556 1101,556 1101,556 1102,556 1102,556 1102,556 1102,557 1103,557 1103,557 1104,557 1104,557 1104,557 1104,557 1105,557 1105,558 1105,558 1105,558 1106,558 1106,558 1107,558 1107,558 1107,558 1107,558 1108,558 1109,558 1109,558 1109,559 1110,559 1110,559 1110,559 1110,559 1111,559 1111,560 1112,560 1112,560 1112,560 1112,560 1113,560 1113,561 1114,561 1114,561 1114,561 1114,561 1115,561 1116,561 1116,561 1116,561 1116,561 1117,561 1117,562 1117,562 1117,561 1118,561 1118,562 1119,562 1119,562 1119,562 1120,562 1120,563 1121,563 1121,563 1121,563 1121,562 1122,562 1122,563 1122,563 1122,563 1123,563 1123,563 1124,563 1124,564 1124,564 1124,564 1125,564 1125,564 1126,564 1126,564 1126,564 1126,564 1127,564 1127,565 1127,565 1127,565 1128,565 1128,565 1129,565 1129,566 1129,566 1129,565 1130,565 1130,565 1131,566 1131,566 1131,566 1132,566 1132,566 1132,566 1132,566 1133,566 1133,567 1134,567 1134,567 1134,567 1134,567 1135,567 1135,567 1136,567 1136,568 1136,568 1136,568 1137,568 1137,568 1137,568 1138,568 1138,568 1139,568 1139,569 1139,569 1139,570 1140,570 1140,570 1141,570 1141,570 1142,570 1142,570 1142,570 1143,570 1143,570 1144,570 1144,570 1144,570 1144,570 1145,570 1145,570 1146,570 1146,570 1146,570 1146,570 1147,570 1147,571 1147,571 1147,570 1148,570 1148,570 1149,570 1149,571 1149,571 1150,571 1150,571 1151,571 1151,571 1151,571 1151,571 1152,571 1152,571 1153,571 1153,571 1153,571 1153,572 1154,572 1154,572 1154,572 1154,572 1155,572 1155,572 1156,572 1156,572 1156,572 1156,573 1157,573 1157,573 1158,573 1158,573 1158,573 1158,573 1159,573 1159,573 1159,573 1160,573 1160,574 1161,574 1161,574 1161,574 1161,574 1162,573 1162,574 1163,574 1163,574 1163,574 1163,574 1164,574 1164,575 1164,575 1165,575 1165,575 1166,575 1166,575 1166,575 1166,575 1167,575 1167,575 1168,575 1168,576 1168,576 1168,576 1169,576 1169,575 1169,575 1169,575 1170,575 1170,576 1171,576 1171,576 1171,576 1171,576 1172,576 1172,576 1173,576 1173,576 1173,576 1173,576 1174,576 1174,576 1174,576 1174,576 1175,576 1175,577 1176,577 1176,577 1176,577 1177,577 1177,577 1178,577 1178,578 1178,578 1178,578 1179,578 1179,578 1179,578 1179,578 1180,578 1180,578 1181,578 1181,579 1181,579 1181,579 1182,579 1182,579 1183,579 1183,579 1183,579 1183,579 1184,579 1184,579 1184,579 1184,579 1185,579 1185,580 1186,580 1186,580 1186,580 1186,580 1187,580 1187,581 1188,581 1188,581 1188,581 1188,581 1189,581 1189,581 1190,581 "/>
<polyline fill="none" opacity="1" stroke="#19E68E" stroke-width="2" points="551,738 552,737 553,736 554,734 555,732 556,731 557,730 557,729 558,725 559,725 559,723 560,720 561,719 561,718 562,717 562,716 563,714 564,713 566,712 567,710 567,707 568,706 569,704 569,704 570,701 572,699 573,696 574,695 575,694 576,694 576,693 577,690 578,689 579,688 579,685 580,684 581,684 581,683 582,682 582,680 584,678 584,673 585,672 586,672 586,671 587,670 588,669 588,668 589,668 589,664 590,665 591,665 591,664 592,663 593,660 593,660 594,659 594,658 595,655 596,654 596,652 597,650 598,648 598,645 599,644 599,643 600,640 601,640 601,638 602,637 603,636 603,635 604,630 604,628 605,629 606,629 606,628 607,628 608,628 608,627 609,627 609,626 610,624 611,621 611,620 612,617 613,615 613,612 614,610 614,608 615,606 616,604 616,599 617,594 618,593 618,593 619,593 619,588 620,584 621,580 621,579 622,578 623,578 623,575 624,575 625,574 625,574 626,573 626,571 627,571 628,570 628,566 629,565 630,564 630,564 631,562 631,562 632,560 633,559 633,558 634,556 635,556 635,554 636,553 636,552 637,551 638,549 638,547 639,545 640,543 640,543 641,540 641,539 642,535 643,530 643,527 644,525 645,523 645,519 646,516 646,515 647,515 648,514 648,513 649,511 650,510 650,509 651,503 651,500 652,499 653,496 653,495 654,493 655,490 655,488 656,488 656,484 657,482 658,483 658,482 659,481 660,479 660,476 661,475 661,472 662,472 663,469 663,463 664,463 665,461 665,461 666,461 667,460 667,458 668,457 668,456 669,455 670,450 670,450 671,449 672,443 672,438 673,437 673,434 674,433 675,432 675,431 676,432 677,430 677,431 678,428 678,427 679,426 680,426 680,424 682,423 682,422 683,422 683,421 684,420 685,419 685,414 686,412 687,407 687,406 688,403 688,402 689,402 690,403 690,403 691,402 692,400 692,399 693,397 693,397 694,395 695,396 695,393 696,392 697,391 697,391 698,389 698,390 699,389 700,387 700,386 701,383 702,383 702,383 703,382 704,381 704,382 705,381 705,378 706,377 707,372 707,371 708,370 709,369 709,367 710,367 710,367 711,365 712,365 712,364 713,363 714,363 714,361 715,358 715,358 716,356 717,358 717,357 718,355 719,355 719,356 720,354 720,354 721,353 722,352 722,349 723,349 724,347 724,344 725,344 725,341 726,341 727,339 727,338 728,339 729,338 729,337 730,337 730,337 731,338 732,338 732,337 733,336 734,334 734,332 735,330 735,330 736,329 737,328 737,326 738,324 739,322 739,323 740,322 741,321 741,321 742,319 742,317 743,316 744,314 744,313 745,311 746,309 746,307 747,307 747,305 748,305 748,302 749,302 749,302 750,301 751,298 751,296 752,292 752,288 753,286 754,285 754,284 755,284 756,281 756,282 757,281 757,281 758,279 759,280 759,280 760,284 761,280 761,280 762,279 762,278 763,277 764,277 764,272 765,271 766,272 766,269 767,270 767,269 768,268 769,265 769,264 770,263 771,262 771,262 772,263 772,263 773,262 774,259 774,261 775,260 776,258 776,236 777,235 778,236 778,237 779,234 779,235 780,233 781,233 781,233 782,229 783,229 783,228 784,229 784,225 785,224 786,222 786,223 787,222 788,220 788,219 789,220 789,220 790,219 791,216 791,214 792,210 793,208 793,204 794,203 794,201 795,201 796,200 796,198 797,196 798,197 798,197 799,196 799,192 800,190 801,190 801,189 802,187 803,187 803,185 804,184 804,185 805,184 806,184 806,182 807,183 808,182 808,180 809,180 809,177 810,176 811,176 811,175 812,174 813,169 813,190 814,192 815,191 815,170 816,169 816,167 817,167 818,165 818,165 819,165 820,163 820,161 821,162 821,163 822,162 823,162 823,160 824,159 825,159 825,157 826,157 826,156 827,155 828,155 828,156 829,157 830,155 830,155 831,154 831,154 832,154 833,155 833,149 834,149 835,148 835,148 836,145 836,145 837,144 838,144 838,144 839,145 840,145 840,145 841,145 841,145 842,146 843,146 843,145 844,145 845,145 845,143 846,141 846,140 847,139 848,137 848,137 849,138 850,137 850,135 851,134 852,132 852,130 853,131 853,130 854,130 855,129 855,129 856,128 857,129 857,127 858,127 858,127 859,127 860,126 860,126 861,126 862,127 862,127 863,128 863,125 864,125 865,123 865,123 866,122 867,121 867,118 868,118 868,119 869,118 870,118 870,119 871,119 872,117 872,117 873,115 873,113 874,113 875,113 875,113 876,114 877,114 877,114 878,113 878,111 879,111 880,111 880,110 881,110 882,111 882,110 883,109 883,108 884,109 885,107 885,106 886,108 887,108 887,108 888,108 889,108 889,108 890,108 890,107 891,109 892,109 892,110 893,110 894,109 894,109 895,107 895,108 896,106 897,105 897,107 898,108 899,101 899,101 900,102 900,102 901,102 902,101 902,101 903,101 904,102 904,101 905,101 905,101 906,103 907,105 907,105 908,104 909,104 909,103 910,103 910,103 911,103 912,101 912,102 913,101 914,100 914,99 915,99 915,95 916,96 917,95 917,96 918,94 919,92 919,92 920,93 920,90 921,89 922,90 922,89 923,89 924,89 924,88 925,86 925,85 926,86 927,86 927,86 928,85 929,86 929,84 930,84 931,84 931,84 932,85 932,85 933,85 934,85 934,86 935,84 936,84 936,83 937,84 937,83 938,81 939,82 939,83 940,82 941,82 941,84 942,83 942,83 943,83 944,83 944,83 945,83 946,83 946,83 947,82 947,82 948,82 949,83 949,82 950,80 951,80 951,79 952,79 952,79 953,79 954,79 954,76 955,75 956,76 956,76 957,77 957,77 958,77 959,78 959,78 960,79 961,78 961,78 962,78 962,79 963,78 964,78 964,78 965,79 966,80 966,79 967,80 968,78 968,78 969,78 969,78 970,78 971,78 971,78 972,77 973,77 973,77 974,77 974,78 975,79 976,78 976,78 977,77 978,78 978,78 979,79 979,79 980,78 981,79 981,79 982,78 983,78 983,79 984,81 984,81 985,80 986,80 986,80 987,78 988,79 988,79 989,79 989,79 990,79 990,80 991,80 991,83 992,84 993,84 993,85 994,86 994,86 995,86 996,86 996,87 997,87 998,86 998,89 999,90 999,89 1000,90 1001,95 1001,97 1002,96 1003,99 1003,103 1004,103 1005,104 1005,103 1006,104 1006,104 1007,105 1008,106 1008,110 1009,111 1010,112 1010,113 1011,114 1011,111 1012,112 1013,112 1013,113 1014,113 1015,114 1015,114 1016,115 1016,115 1017,112 1018,112 1018,112 1019,112 1020,112 1020,110 1021,110 1021,111 1022,111 1023,111 1023,111 1024,111 1025,112 1025,112 1026,112 1026,111 1027,112 1028,112 1028,114 1029,114 1030,115 1030,115 1031,115 1031,116 1032,116 1033,111 1033,111 1034,112 1035,113 1035,113 1036,113 1036,114 1037,115 1038,111 1038,110 1039,111 1040,112 1040,112 1041,112 1042,113 1042,113 1043,115 1043,115 1044,115 1045,115 1045,116 1046,116 1047,119 1047,118 1048,118 1048,120 1049,121 1050,121 1050,121 1051,121 1052,124 1052,127 1053,128 1053,127 1054,127 1055,127 1055,128 1056,128 1057,128 1057,129 1058,129 1058,129 1059,130 1060,130 1060,131 1061,130 1062,131 1062,132 1063,133 1063,133 1064,134 1065,132 1065,134 1066,135 1067,136 1067,135 1068,135 1068,134 1069,135 1070,135 1070,136 1071,137 1072,136 1072,137 1073,138 1073,140 1074,140 1075,141 1075,142 1076,142 1077,143 1077,140 1078,141 1079,140 1079,141 1079,141 1079,141 1080,141 1080,141 1080,142 1081,142 1081,143 1082,144 1082,144 1082,145 1083,145 1083,150 1084,150 1084,151 1084,151 1084,152 1085,152 1085,154 1085,154 1085,154 1086,154 1086,154 1087,154 1087,155 1087,155 1087,155 1088,155 1088,156 1089,156 1089,156 1089,157 1090,157 1090,157 1090,157 1091,157 1091,155 1092,155 1092,156 1092,156 1092,156 1093,156 1093,156 1094,156 1094,156 1094,157 1095,157 1095,156 1095,156 1095,156 1096,156 1096,156 1097,156 1097,157 1097,157 1097,157 1098,157 1098,157 1099,157 1099,158 1099,158 1099,158 1100,158 1100,158 1100,160 1101,160 1101,161 1102,161 1102,162 1102,162 1102,161 1103,161 1103,163 1104,163 1104,165 1104,165 1104,164 1105,164 1105,166 1105,166 1105,167 1106,167 1106,166 1107,166 1107,167 1107,167 1107,169 1108,169 1109,170 1109,170 1109,170 1110,170 1110,170 1110,170 1110,170 1111,170 1111,170 1112,170 1112,170 1112,170 1112,171 1113,171 1113,172 1114,172 1114,172 1114,172 1114,173 1115,174 1116,175 1116,175 1116,176 1116,176 1117,176 1117,177 1117,177 1117,178 1118,178 1118,179 1119,180 1119,180 1119,181 1120,181 1120,183 1121,183 1121,183 1121,183 1121,184 1122,184 1122,185 1122,185 1122,186 1123,186 1123,186 1124,186 1124,187 1124,187 1124,187 1125,187 1125,187 1126,187 1126,187 1126,187 1126,189 1127,189 1127,190 1127,190 1127,191 1128,191 1128,192 1129,192 1129,192 1129,192 1129,193 1130,193 1130,194 1131,195 1131,195 1131,196 1132,196 1132,197 1132,197 1132,200 1133,200 1133,201 1134,201 1134,201 1134,201 1134,202 1135,202 1135,203 1136,203 1136,203 1136,203 1136,204 1137,204 1137,204 1137,205 1138,205 1138,206 1139,206 1139,207 1139,207 1139,208 1140,208 1140,208 1141,209 1141,212 1142,212 1142,212 1142,213 1143,213 1143,213 1144,213 1144,214 1144,214 1144,215 1145,215 1145,215 1146,216 1146,216 1146,216 1146,218 1147,218 1147,219 1147,219 1147,219 1148,219 1148,220 1149,220 1149,220 1149,220 1150,220 1150,220 1151,220 1151,222 1151,222 1151,223 1152,223 1152,223 1153,223 1153,224 1153,224 1153,225 1154,225 1154,225 1154,225 1154,225 1155,225 1155,226 1156,226 1156,227 1156,227 1156,228 1157,228 1157,228 1158,228 1158,230 1158,230 1158,231 1159,231 1159,231 1159,233 1160,233 1160,233 1161,233 1161,234 1161,234 1161,234 1162,234 1162,235 1163,235 1163,236 1163,236 1163,237 1164,237 1164,237 1164,237 1165,237 1165,238 1166,238 1166,238 1166,238 1166,239 1167,239 1167,239 1168,239 1168,239 1168,240 1168,239 1169,239 1169,241 1169,241 1169,241 1170,241 1170,241 1171,241 1171,242 1171,242 1171,243 1172,243 1172,244 1173,244 1173,244 1173,244 1173,244 1174,244 1174,244 1174,244 1174,245 1175,245 1175,245 1176,245 1176,246 1176,247 1177,247 1177,248 1178,248 1178,249 1178,249 1178,249 1179,249 1179,250 1179,250 1179,251 1180,251 1180,252 1181,252 1181,253 1181,253 1181,253 1182,253 1182,253 1183,253 1183,254 1183,254 1183,255 1184,255 1184,256 1184,256 1184,257 1185,257 1185,257 1186,257 1186,259 1186,259 1186,259 1187,259 1187,259 1188,259 1188,260 1188,260 1188,261 1189,261 1189,262 1190,262 "/>
<polyline fill="none" opacity="1" stroke="#198EE6" stroke-width="2" points="60,735 60,732 64,729 74,726 83,723 91,723 91,720 96,717 97,714 98,715 103,712 107,709 108,706 114,704 120,705 121,705 123,700 129,698 133,701 135,701 141,694 142,691 142,691 143,692 144,692 144,692 145,692 146,692 147,690 148,687 149,687 149,687 150,688 151,688 153,688 154,688 154,686 155,686 155,686 156,684 157,684 157,684 159,684 159,684 160,684 160,685 161,685 162,685 162,685 163,685 164,685 164,683 165,683 165,683 167,683 167,683 168,683 169,683 169,684 171,684 172,684 173,682 174,680 174,680 175,678 176,678 176,680 177,680 177,678 178,678 179,678 180,679 181,679 182,679 182,677 183,677 184,677 184,677 185,677 186,677 187,678 187,678 188,678 189,676 190,673 191,671 191,669 192,669 192,670 193,670 194,670 194,670 195,670 196,670 196,671 197,671 198,671 199,669 200,665 201,663 202,663 202,663 204,664 205,664 206,662 206,662 207,662 208,662 209,662 209,660 210,660 211,661 211,659 213,657 213,657 214,657 216,658 216,658 217,658 218,658 218,658 219,656 219,657 220,657 221,657 221,657 222,657 223,657 224,655 224,654 225,654 226,654 226,652 227,652 228,652 228,652 229,653 229,651 230,651 231,651 231,651 232,651 233,650 234,648 234,644 235,644 236,645 236,645 237,643 238,643 239,643 240,643 241,644 242,644 243,644 243,644 244,644 244,644 245,643 246,643 247,643 248,643 248,643 249,644 250,644 252,644 253,645 253,643 254,643 255,641 255,640 256,640 256,640 257,640 258,640 260,641 260,641 261,641 261,641 262,641 263,641 263,640 265,640 265,638 266,639 266,639 268,639 268,639 269,640 270,640 270,638 272,639 273,637 273,638 275,638 275,635 276,635 276,635 277,635 278,635 278,635 279,636 280,636 280,636 281,638 281,638 283,637 283,637 284,638 285,638 285,638 286,638 287,638 287,638 288,639 288,639 289,639 290,639 290,639 291,636 292,635 292,635 293,635 293,635 294,635 295,635 295,635 296,636 297,636 297,636 298,637 298,637 299,637 300,635 300,636 301,636 302,636 302,633 303,633 303,632 304,632 305,630 306,631 307,631 308,632 308,632 309,632 310,632 311,631 312,631 312,631 313,630 313,628 314,628 315,629 316,629 317,627 317,628 318,628 318,628 319,628 320,627 321,626 322,626 322,624 323,624 324,625 324,625 325,625 325,624 326,624 327,624 327,624 328,624 329,624 329,623 330,623 330,623 331,624 332,624 332,624 334,624 334,624 335,625 335,625 336,625 337,624 338,624 339,624 339,624 340,623 340,622 341,621 342,621 342,621 343,623 344,623 344,622 345,622 345,621 346,621 347,622 347,620 348,619 349,618 349,618 350,619 350,619 351,619 352,619 352,619 353,620 354,620 354,619 355,617 355,618 356,618 357,618 357,618 358,617 359,616 359,616 360,616 361,617 362,616 362,614 363,614 364,613 364,614 365,614 366,614 366,610 367,610 367,611 368,610 369,610 369,610 370,610 371,611 371,610 372,609 372,609 373,609 374,610 374,609 375,608 376,608 376,608 377,609 377,608 378,608 379,608 379,608 380,609 381,607 381,608 382,607 382,606 383,606 384,606 384,606 385,606 386,607 386,607 387,607 387,608 388,607 389,604 389,605 391,605 391,606 392,606 392,606 393,606 394,607 395,607 396,606 396,605 397,605 397,605 398,605 399,606 399,606 400,606 401,606 401,605 402,606 403,606 403,606 404,605 404,605 405,605 406,606 406,606 407,606 408,606 408,606 409,606 409,607 410,607 411,606 411,606 412,606 413,607 413,607 414,606 414,605 415,605 416,605 416,605 417,606 418,606 418,606 419,606 419,606 420,607 421,607 421,607 422,605 423,605 423,606 424,606 424,606 425,606 426,606 426,606 427,607 428,607 428,606 429,605 429,605 430,606 431,606 431,605 432,605 433,605 433,605 434,606 434,606 435,605 436,605 436,606 437,605 438,606 438,607 439,607 440,607 440,606 441,605 441,605 442,606 443,606 443,606 444,606 445,605 445,607 446,604 446,604 447,604 448,605 448,605 449,605 450,603 450,604 451,603 451,603 452,602 453,601 453,601 454,601 455,601 455,601 456,601 456,600 457,601 458,602 458,603 459,603 460,603 460,603 461,602 461,603 463,603 463,603 464,603 465,604 465,604 466,604 466,604 467,604 468,604 468,605 469,605 470,605 470,604 471,604 471,604 472,605 473,605 473,605 474,605 475,606 475,606 476,606 477,606 477,606 478,607 478,607 479,607 480,606 480,606 481,606 482,606 482,605 483,605 483,605 484,605 485,604 485,604 486,604 487,604 487,605 488,605 488,605 489,605 490,605 490,605 491,604 492,605 492,605 493,605 493,605 494,605 495,605 495,605 496,605 497,605 497,606 498,606 498,605 499,605 500,605 500,605 501,606 502,606 502,605 503,605 503,605 504,606 505,606 505,606 506,606 507,606 507,607 508,607 508,607 509,607 510,607 510,607 511,608 512,608 512,608 513,608 514,608 514,609 515,609 515,609 516,609 517,609 517,608 518,609 519,607 519,607 520,608 520,607 522,607 522,607 523,607 524,607 524,607 525,606 525,606 526,607 527,607 527,607 528,607 529,608 530,607 530,607 531,607 532,608 532,607 533,607 534,606 534,607 535,607 535,607 536,607 537,607 537,607 538,606 539,606 539,606 540,607 540,606 541,606 542,606 542,606 543,607 544,607 544,607 545,606 545,606 546,606 547,605 547,604 548,604 549,604 549,605 550,605 551,605 551,605 552,605 552,605 553,606 554,606 554,606 555,606 556,606 556,605 557,605 557,605 558,606 559,606 559,606 560,606 561,607 561,608 562,608 562,608 563,608 564,608 564,608 565,609 566,609 566,609 567,609 567,609 568,610 569,610 569,609 570,609 571,609 571,610 572,610 572,611 573,611 574,611 574,612 575,612 576,612 576,612 577,612 578,613 579,613 579,613 580,613 581,613 581,614 582,614 582,614 583,614 584,614 585,614 586,614 586,614 587,614 588,614 588,615 589,615 589,614 591,615 591,615 592,614 593,614 593,615 594,615 594,615 595,615 596,615 596,615 597,615 598,616 598,615 599,615 599,616 600,616 601,615 601,615 602,616 603,615 603,615 604,615 604,613 605,614 606,614 606,614 607,614 608,614 608,615 609,615 609,615 610,615 611,615 611,614 612,614 613,614 613,613 614,613 614,613 615,612 616,612 616,611 617,611 618,611 618,612 619,611 619,611 620,611 621,612 621,612 622,612 623,612 623,612 624,613 625,613 625,613 626,613 626,613 627,614 628,615 628,615 629,615 630,614 630,615 631,614 631,614 632,614 633,615 633,615 634,615 635,615 635,616 636,616 636,615 637,615 638,615 638,616 639,616 640,615 640,615 641,616 641,616 642,616 643,616 643,616 644,616 645,616 645,616 646,616 646,616 647,616 648,617 648,616 649,616 650,615 650,615 651,615 651,615 652,616 653,615 653,615 654,615 655,615 655,615 656,615 656,615 657,615 658,615 658,615 659,616 660,616 660,616 661,617 661,617 662,617 663,618 663,618 664,618 665,618 665,618 666,618 667,618 667,618 668,618 668,618 669,619 670,618 670,619 671,619 672,619 672,619 673,619 673,619 674,619 675,619 675,619 676,618 677,619 677,619 678,619 678,619 679,619 680,619 680,619 681,619 682,619 682,619 683,619 683,619 684,619 685,620 685,620 686,619 687,619 687,619 688,619 688,619 689,619 690,619 690,619 691,620 692,619 692,619 693,619 693,619 694,620 695,620 695,620 696,620 697,620 697,620 698,620 698,620 699,620 700,620 701,620 702,620 702,621 703,621 704,621 704,621 705,621 705,621 706,621 707,621 707,621 708,622 709,622 709,622 710,622 710,622 711,622 712,622 712,621 713,622 714,622 714,622 715,622 715,622 716,622 717,623 717,623 718,623 719,623 719,623 720,623 720,623 721,623 722,624 722,624 723,624 724,624 724,624 725,624 725,625 726,625 727,625 727,624 728,625 729,625 729,625 730,626 730,626 731,626 732,626 732,626 733,626 734,627 734,627 735,627 735,627 736,626 737,626 737,626 738,626 739,626 739,626 740,626 741,626 741,626 742,626 742,627 743,626 744,626 744,627 745,627 746,627 746,627 747,628 747,628 748,628 748,628 749,628 749,628 750,628 751,628 751,629 752,629 752,629 753,629 754,629 754,630 755,630 756,629 756,629 757,630 757,630 758,630 759,630 759,630 760,632 761,631 761,631 762,631 762,631 763,631 764,632 764,632 765,632 766,633 766,633 767,633 767,633 768,633 769,633 769,633 770,634 771,634 771,634 772,634 772,634 773,634 774,634 774,634 775,634 776,634 776,634 777,634 778,634 778,635 779,635 779,635 780,635 781,635 781,635 782,635 783,635 783,636 784,636 784,636 785,636 786,636 786,636 787,636 788,636 788,637 789,636 789,636 790,636 791,637 791,637 792,637 793,637 793,637 794,637 794,637 795,637 796,638 796,637 797,637 798,637 798,638 799,638 799,638 800,638 801,638 801,638 802,638 803,638 803,639 804,639 804,639 805,639 806,639 806,639 807,639 808,639 808,640 809,640 809,639 810,640 811,640 811,639 812,640 813,640 813,644 814,644 815,644 815,640 816,640 816,641 817,641 818,641 818,641 819,641 820,642 820,642 821,642 821,642 822,642 823,642 823,643 824,643 825,643 825,643 826,644 826,644 827,644 828,644 828,644 829,644 830,645 830,645 831,645 831,645 832,645 833,645 833,645 834,645 835,645 835,645 836,645 836,645 837,645 838,645 838,646 839,646 840,646 840,646 841,647 841,647 842,647 843,647 843,647 844,647 845,646 845,647 846,647 846,647 847,647 848,647 848,647 849,647 850,647 850,647 851,646 852,646 852,645 853,645 853,645 854,645 855,645 855,645 856,645 857,645 857,645 858,646 858,646 859,646 860,646 860,646 861,646 862,646 862,646 863,647 863,647 864,647 865,647 865,647 866,647 867,647 867,647 868,647 868,647 869,647 870,647 870,647 871,648 872,648 872,648 873,648 873,648 874,648 875,648 875,648 876,649 877,649 877,649 878,649 878,649 879,649 880,648 880,648 881,648 882,649 882,649 883,649 883,649 884,649 885,649 885,649 886,649 887,649 887,649 888,649 889,649 889,649 890,649 890,649 891,649 892,649 892,649 893,649 894,649 894,649 895,649 895,649 896,649 897,649 897,649 898,649 899,649 899,649 900,649 900,649 901,650 902,650 902,650 903,650 904,650 904,650 905,650 905,650 906,650 907,650 907,650 908,650 909,651 909,650 910,650 910,650 911,651 912,651 912,651 913,651 914,651 914,651 915,651 915,651 916,651 917,651 917,652 918,652 919,652 919,652 920,653 920,653 921,653 922,653 922,653 923,653 924,653 924,653 925,654 925,654 926,653 927,653 927,651 928,651 929,651 929,651 930,651 931,651 931,651 932,651 932,651 933,651 934,650 934,650 935,650 936,650 936,650 937,650 937,650 938,650 939,650 939,650 940,650 941,650 941,650 942,650 942,650 943,650 944,650 944,650 945,650 946,650 946,650 947,651 947,651 948,651 949,651 949,651 950,651 951,651 951,651 952,651 952,651 953,651 954,651 954,651 955,652 956,651 956,651 957,651 957,652 958,652 959,652 959,652 960,652 961,651 961,651 962,651 962,651 963,651 964,651 964,652 965,652 966,652 966,652 967,652 968,652 968,652 969,652 969,652 970,652 971,652 971,652 972,652 973,653 973,652 974,653 974,653 975,653 976,653 976,653 977,653 978,654 978,654 979,654 979,654 980,655 981,655 981,655 982,655 983,655 983,655 984,655 984,656 985,656 986,656 986,656 987,656 988,656 988,656 989,656 989,656 990,656 990,656 991,656 991,656 992,656 993,657 993,656 994,656 994,656 995,657 996,656 996,656 997,657 998,657 998,657 999,657 999,657 1000,657 1001,658 1001,657 1002,657 1003,657 1003,657 1004,657 1005,658 1005,658 1006,658 1006,658 1007,658 1008,658 1008,658 1009,658 1010,658 1010,658 1011,658 1011,659 1012,659 1013,659 1013,659 1014,659 1015,659 1015,659 1016,659 1016,659 1017,659 1018,659 1018,659 1019,659 1020,659 1020,659 1021,660 1021,660 1022,660 1023,660 1023,660 1024,660 1025,660 1025,660 1026,660 1026,660 1027,660 1028,661 1028,661 1029,661 1030,661 1030,662 1031,662 1031,662 1032,662 1033,662 1033,662 1034,662 1035,662 1035,662 1036,662 1036,662 1037,662 1038,662 1038,662 1039,662 1040,662 1040,663 1041,663 1042,663 1042,663 1043,663 1043,663 1044,663 1045,663 1045,663 1046,663 1047,664 1047,664 1048,664 1048,664 1049,664 1050,665 1050,665 1051,665 1052,665 1052,665 1053,665 1053,665 1054,665 1055,665 1055,665 1056,665 1057,665 1057,665 1058,666 1058,666 1059,666 1060,666 1060,666 1061,666 1062,667 1062,667 1063,667 1063,667 1064,667 1065,667 1065,667 1066,667 1067,667 1067,667 1068,667 1068,668 1069,667 1070,667 1070,668 1071,667 1072,667 1072,667 1073,668 1073,668 1074,668 1075,668 1075,669 1076,669 1077,669 1077,669 1078,669 1079,669 1079,669 1079,669 1079,669 1080,670 1080,670 1080,670 1081,670 1081,670 1082,670 1082,670 1082,670 1083,670 1083,670 1084,670 1084,670 1084,670 1084,670 1085,670 1085,670 1085,670 1085,670 1086,670 1086,670 1087,670 1087,670 1087,670 1087,670 1088,670 1088,670 1089,670 1089,670 1090,670 1090,670 1090,670 1091,670 1091,670 1092,670 1092,671 1092,671 1092,671 1093,671 1093,671 1094,671 1094,671 1094,671 1095,671 1095,671 1095,671 1095,671 1096,671 1096,671 1097,671 1097,671 1097,671 1097,671 1098,671 1098,671 1099,671 1099,671 1099,671 1099,671 1100,671 1100,672 1100,672 1101,672 1101,672 1102,672 1102,672 1102,672 1102,672 1103,672 1103,672 1104,672 1104,671 1104,671 1104,671 1105,671 1105,671 1105,671 1105,671 1106,671 1106,671 1107,671 1107,671 1107,671 1107,671 1108,671 1109,671 1109,671 1109,671 1110,671 1110,672 1110,672 1110,671 1111,671 1111,671 1112,671 1112,671 1112,671 1112,672 1113,672 1113,672 1114,672 1114,672 1114,672 1114,672 1115,672 1116,672 1116,672 1116,672 1116,672 1117,672 1117,672 1117,672 1117,672 1118,672 1118,672 1119,672 1119,672 1119,673 1120,673 1120,673 1121,673 1121,673 1121,673 1121,674 1122,674 1122,674 1122,674 1122,674 1123,674 1123,674 1124,674 1124,674 1124,674 1124,674 1125,674 1125,674 1126,674 1126,674 1126,674 1126,674 1127,674 1127,674 1127,674 1127,674 1128,674 1128,673 1129,673 1129,674 1129,674 1129,674 1130,674 1130,673 1131,673 1131,673 1131,673 1132,673 1132,673 1132,673 1132,673 1133,673 1133,673 1134,673 1134,673 1134,673 1134,673 1135,673 1135,673 1136,673 1136,673 1136,673 1136,674 1137,674 1137,674 1137,674 1138,674 1138,674 1139,674 1139,674 1139,674 1139,674 1140,674 1140,674 1141,674 1141,674 1142,674 1142,674 1142,674 1143,674 1143,675 1144,675 1144,675 1144,675 1144,675 1145,675 1145,675 1146,675 1146,675 1146,675 1146,675 1147,675 1147,675 1147,675 1147,675 1148,675 1148,675 1149,675 1149,675 1149,675 1150,675 1150,675 1151,675 1151,675 1151,675 1151,675 1152,675 1152,675 1153,675 1153,675 1153,675 1153,675 1154,675 1154,675 1154,675 1154,675 1155,675 1155,675 1156,675 1156,675 1156,675 1156,675 1157,675 1157,675 1158,675 1158,676 1158,676 1158,676 1159,676 1159,675 1159,675 1160,675 1160,675 1161,675 1161,675 1161,675 1161,675 1162,675 1162,675 1163,675 1163,675 1163,675 1163,675 1164,675 1164,675 1164,675 1165,675 1165,675 1166,675 1166,676 1166,676 1166,676 1167,676 1167,676 1168,676 1168,676 1168,676 1168,676 1169,676 1169,676 1169,676 1169,676 1170,676 1170,676 1171,676 1171,676 1171,676 1171,676 1172,676 1172,676 1173,676 1173,677 1173,677 1173,677 1174,677 1174,677 1174,677 1174,677 1175,677 1175,677 1176,677 1176,677 1176,677 1177,677 1177,677 1178,677 1178,677 1178,677 1178,677 1179,677 1179,677 1179,677 1179,677 1180,677 1180,677 1181,677 1181,677 1181,677 1181,677 1182,677 1182,677 1183,677 1183,677 1183,677 1183,677 1184,677 1184,677 1184,677 1184,678 1185,678 1185,678 1186,678 1186,678 1186,678 1186,678 1187,678 1187,678 1188,678 1188,678 1188,678 1188,678 1189,678 1189,678 1190,678 "/>
<polyline fill="none" opacity="1" stroke="#5419E6" stroke-width="2" points="887,738 889,738 892,738 898,737 900,736 903,736 905,736 906,735 907,732 907,732 909,732 910,732 915,731 917,731 917,731 919,731 919,731 927,731 931,731 932,730 933,730 935,729 938,729 939,728 940,728 941,727 941,727 942,727 944,727 945,727 946,727 948,727 949,726 949,726 950,725 953,725 954,725 954,725 955,724 956,724 958,724 959,724 959,724 960,724 962,724 964,724 965,724 966,724 967,723 968,723 969,723 969,723 970,723 971,723 972,723 973,723 974,723 974,722 976,723 976,723 977,723 978,722 978,721 979,721 979,721 980,721 981,722 981,722 982,722 983,722 984,722 984,721 985,721 986,721 986,721 988,721 989,721 989,721 990,721 990,721 991,721 991,720 992,720 993,720 993,720 994,719 994,719 996,719 996,718 998,718 998,718 999,717 999,717 1000,717 1001,717 1002,717 1003,717 1004,717 1005,716 1005,716 1006,716 1006,715 1007,715 1008,715 1009,714 1010,714 1010,714 1011,714 1011,714 1012,714 1013,714 1014,713 1015,713 1015,714 1017,713 1018,713 1018,713 1019,713 1021,714 1021,714 1022,714 1023,714 1024,713 1025,713 1026,713 1027,713 1029,712 1030,713 1030,713 1031,712 1031,712 1032,712 1033,712 1033,712 1034,712 1035,712 1035,712 1036,711 1036,711 1037,712 1038,712 1038,712 1039,712 1040,711 1040,711 1041,712 1042,711 1042,711 1043,711 1043,711 1044,711 1045,711 1045,711 1047,711 1047,711 1048,710 1048,710 1049,710 1050,710 1050,710 1051,709 1052,709 1053,709 1053,710 1054,710 1055,710 1055,710 1056,709 1057,709 1057,709 1058,709 1058,709 1059,708 1060,708 1060,708 1061,709 1062,709 1062,708 1063,708 1063,708 1064,708 1065,708 1065,708 1066,708 1067,708 1067,708 1068,708 1068,708 1069,708 1070,708 1070,708 1071,708 1072,708 1072,707 1073,708 1074,708 1075,708 1075,708 1076,708 1077,708 1077,708 1078,708 1079,708 1079,708 1079,708 1079,708 1080,708 1080,708 1080,708 1081,708 1081,708 1082,708 1082,708 1082,708 1083,708 1083,708 1084,708 1084,708 1084,708 1084,707 1085,707 1085,707 1085,707 1085,707 1086,707 1086,708 1087,708 1087,707 1087,707 1087,707 1088,707 1088,707 1089,707 1089,707 1089,707 1090,707 1090,707 1090,707 1091,707 1091,707 1092,707 1092,707 1092,707 1092,706 1093,706 1093,707 1094,707 1094,707 1094,707 1095,707 1095,706 1095,706 1095,706 1096,706 1096,706 1097,706 1097,707 1097,707 1097,707 1098,707 1098,707 1099,707 1099,707 1099,707 1099,707 1100,707 1100,707 1101,707 1101,707 1102,707 1102,707 1102,707 1102,707 1103,707 1103,707 1104,707 1104,707 1104,707 1104,707 1105,707 1105,707 1105,707 1105,707 1106,707 1106,707 1107,707 1107,707 1107,707 1108,707 1109,707 1109,707 1109,707 1110,707 1110,707 1110,707 1110,707 1111,707 1111,707 1112,707 1112,707 1112,707 1112,707 1113,707 1113,706 1114,706 1114,706 1114,707 1115,707 1116,707 1116,707 1116,707 1116,707 1117,707 1117,707 1117,707 1117,707 1118,707 1118,706 1119,706 1119,706 1119,706 1120,706 1120,706 1121,706 1121,706 1121,706 1121,706 1122,706 1122,706 1122,706 1122,706 1123,706 1123,706 1124,706 1124,706 1124,706 1125,706 1125,707 1126,707 1126,706 1126,706 1126,707 1127,707 1127,706 1127,706 1127,706 1128,706 1128,706 1129,706 1129,707 1129,707 1129,707 1130,707 1130,706 1131,706 1131,706 1131,706 1132,706 1132,706 1132,706 1132,706 1133,706 1133,707 1134,707 1134,707 1134,707 1134,707 1135,707 1135,707 1136,707 1136,707 1136,707 1136,707 1137,707 1137,707 1138,707 1138,707 1139,707 1139,707 1139,707 1139,707 1140,707 1140,707 1141,707 1141,707 1142,707 1142,707 1142,707 1143,707 1143,707 1144,707 1144,707 1144,707 1144,707 1145,707 1145,706 1146,706 1146,706 1146,706 1147,706 1147,706 1147,706 1147,706 1148,706 1148,706 1149,706 1149,706 1149,706 1150,706 1150,706 1151,706 1151,706 1151,706 1151,707 1152,707 1152,707 1153,707 1153,707 1153,707 1153,707 1154,707 1154,706 1154,706 1154,707 1155,707 1155,707 1156,707 1156,707 1156,707 1156,707 1157,707 1157,707 1158,707 1158,707 1158,707 1159,707 1159,707 1159,707 1160,707 1160,707 1161,707 1161,707 1161,707 1161,707 1162,707 1162,707 1163,707 1163,707 1163,707 1163,707 1164,707 1164,707 1164,707 1165,707 1165,707 1166,707 1166,707 1166,707 1166,707 1167,707 1167,707 1168,707 1168,707 1168,707 1168,707 1169,707 1169,707 1169,707 1169,707 1170,707 1170,707 1171,707 1171,707 1171,707 1171,707 1172,707 1172,707 1173,707 1173,707 1173,707 1173,707 1174,707 1174,707 1174,707 1174,707 1175,707 1175,707 1176,707 1176,707 1176,707 1177,707 1177,707 1178,707 1178,707 1178,707 1178,707 1179,707 1179,707 1179,707 1179,707 1180,707 1180,707 1181,707 1181,707 1181,707 1181,707 1182,707 1182,707 1183,707 1183,707 1183,707 1183,707 1184,707 1184,707 1184,707 1184,707 1185,707 1185,706 1186,706 1186,707 1186,707 1187,707 1187,706 1188,706 1188,706 1188,706 1188,706 1189,706 1189,706 1190,706 "/>
<polyline fill="none" opacity="1" stroke="#E619C8" stroke-width="2" points="985,738 986,737 986,737 987,736 988,736 989,735 989,735 990,735 990,735 991,735 991,735 992,734 993,734 993,734 994,733 994,733 995,733 996,733 996,732 997,732 998,731 998,730 999,730 1000,730 1001,728 1001,727 1002,727 1003,726 1003,725 1004,725 1005,724 1005,724 1006,723 1006,723 1007,723 1008,723 1008,720 1009,719 1010,718 1010,717 1011,716 1011,716 1012,716 1013,716 1013,716 1014,716 1015,716 1015,714 1016,714 1016,714 1017,714 1018,714 1018,714 1019,713 1020,714 1020,713 1021,712 1021,712 1022,712 1023,711 1023,711 1024,710 1025,710 1025,709 1026,707 1026,707 1027,707 1028,706 1028,706 1029,706 1030,706 1030,704 1031,703 1031,702 1032,700 1033,700 1033,699 1034,699 1035,698 1035,698 1036,698 1036,697 1037,697 1038,696 1038,696 1039,695 1040,694 1040,694 1041,692 1042,691 1042,690 1043,690 1043,688 1044,688 1045,688 1045,687 1046,687 1047,685 1047,683 1048,683 1048,682 1049,681 1050,681 1050,681 1051,681 1052,680 1052,679 1053,677 1053,677 1054,676 1055,674 1055,674 1056,673 1057,673 1057,673 1058,672 1058,672 1059,672 1060,671 1060,671 1061,670 1062,670 1062,669 1063,669 1063,669 1064,668 1065,668 1065,667 1066,667 1067,666 1067,667 1068,665 1068,664 1069,664 1070,663 1070,662 1071,662 1072,663 1072,661 1073,660 1073,660 1074,660 1075,659 1075,657 1076,656 1077,655 1077,655 1078,654 1079,654 1079,653 1079,653 1079,653 1080,653 1080,653 1080,651 1081,651 1081,651 1082,650 1082,650 1082,649 1083,649 1083,646 1084,646 1084,646 1084,646 1084,645 1085,645 1085,644 1085,644 1085,643 1086,643 1086,642 1087,642 1087,642 1087,642 1087,641 1088,641 1088,640 1089,639 1089,639 1089,638 1090,638 1090,638 1090,638 1091,638 1091,637 1092,637 1092,637 1092,637 1092,637 1093,637 1093,636 1094,636 1094,636 1094,635 1095,635 1095,635 1095,635 1095,634 1096,634 1096,633 1097,633 1097,632 1097,632 1097,632 1098,632 1098,631 1099,631 1099,631 1099,631 1099,628 1100,628 1100,627 1100,624 1101,624 1101,623 1102,623 1102,621 1102,621 1102,621 1103,621 1103,620 1104,620 1104,618 1104,618 1104,617 1105,617 1105,616 1105,616 1105,616 1106,616 1106,615 1107,615 1107,614 1107,614 1107,613 1108,613 1109,612 1109,612 1109,610 1110,610 1110,609 1110,609 1110,609 1111,609 1111,608 1112,608 1112,608 1112,608 1112,607 1113,607 1113,606 1114,606 1114,605 1114,605 1114,604 1115,602 1116,602 1116,602 1116,602 1116,600 1117,600 1117,598 1117,598 1117,597 1118,597 1118,597 1119,596 1119,596 1119,594 1120,594 1120,592 1121,592 1121,590 1121,590 1121,590 1122,590 1122,590 1122,590 1122,589 1123,589 1123,588 1124,588 1124,587 1124,587 1124,582 1125,582 1125,580 1126,580 1126,579 1126,579 1126,578 1127,578 1127,577 1127,577 1127,577 1128,577 1128,576 1129,576 1129,574 1129,574 1129,572 1130,572 1130,571 1131,570 1131,570 1131,569 1132,569 1132,567 1132,567 1132,567 1133,567 1133,565 1134,565 1134,565 1134,565 1134,564 1135,564 1135,563 1136,563 1136,561 1136,561 1136,560 1137,559 1137,559 1137,559 1138,559 1138,558 1139,558 1139,557 1139,557 1139,555 1140,555 1140,554 1141,552 1141,550 1142,550 1142,549 1142,548 1143,548 1143,547 1144,547 1144,547 1144,547 1144,544 1145,544 1145,543 1146,543 1146,542 1146,542 1146,540 1147,540 1147,540 1147,540 1147,539 1148,539 1148,537 1149,537 1149,537 1149,537 1150,537 1150,536 1151,536 1151,534 1151,534 1151,532 1152,532 1152,532 1153,532 1153,531 1153,531 1153,530 1154,530 1154,529 1154,529 1154,528 1155,528 1155,528 1156,527 1156,527 1156,527 1156,526 1157,526 1157,525 1158,525 1158,525 1158,525 1158,525 1159,525 1159,524 1159,523 1160,523 1160,522 1161,522 1161,520 1161,520 1161,519 1162,519 1162,519 1163,519 1163,518 1163,518 1163,517 1164,517 1164,516 1164,513 1165,513 1165,512 1166,512 1166,511 1166,512 1166,511 1167,511 1167,510 1168,510 1168,510 1168,510 1168,510 1169,510 1169,508 1169,508 1169,508 1170,508 1170,508 1171,508 1171,507 1171,507 1171,506 1172,506 1172,506 1173,506 1173,505 1173,505 1173,504 1174,504 1174,502 1174,502 1174,501 1175,501 1175,500 1176,500 1176,498 1176,498 1177,498 1177,496 1178,496 1178,496 1178,496 1178,494 1179,494 1179,493 1179,493 1179,493 1180,493 1180,490 1181,490 1181,489 1181,489 1181,488 1182,488 1182,487 1183,487 1183,485 1183,485 1183,485 1184,485 1184,482 1184,482 1184,481 1185,481 1185,480 1186,480 1186,478 1186,478 1186,478 1187,478 1187,477 1188,477 1188,475 1188,475 1188,475 1189,475 1189,473 1190,473 "/>
<rect x="1078" y="315" width="107" height="119" opacity="1" fill="#FFFFFF" stroke="none"/>
<rect x="1078" y="315" width="107" height="119" opacity="1" fill="none" stroke="#000000"/>
<text x="1118" y="325" dy="0.76em" text-anchor="start" font-family="sans-serif" font-size="9.67741935483871" opacity="1" fill="#000000">
anyhow
</text>
<text x="1118" y="340" dy="0.76em" text-anchor="start" font-family="sans-serif" font-size="9.67741935483871" opacity="1" fill="#000000">
err-derive
</text>
<text x="1118" y="355" dy="0.76em" text-anchor="start" font-family="sans-serif" font-size="9.67741935483871" opacity="1" fill="#000000">
error-chain
</text>
<text x="1118" y="370" dy="0.76em" text-anchor="start" font-family="sans-serif" font-size="9.67741935483871" opacity="1" fill="#000000">
failure
</text>
<text x="1118" y="385" dy="0.76em" text-anchor="start" font-family="sans-serif" font-size="9.67741935483871" opacity="1" fill="#000000">
quick-error
</text>
<text x="1118" y="400" dy="0.76em" text-anchor="start" font-family="sans-serif" font-size="9.67741935483871" opacity="1" fill="#000000">
snafu
</text>
<text x="1118" y="415" dy="0.76em" text-anchor="start" font-family="sans-serif" font-size="9.67741935483871" opacity="1" fill="#000000">
thiserror
</text>
<polyline fill="none" opacity="1" stroke="#E61919" stroke-width="2" points="1088,330 1108,330 "/>
<polyline fill="none" opacity="1" stroke="#E6C819" stroke-width="2" points="1088,344 1108,344 "/>
<polyline fill="none" opacity="1" stroke="#54E619" stroke-width="2" points="1088,359 1108,359 "/>
<polyline fill="none" opacity="1" stroke="#19E68E" stroke-width="2" points="1088,374 1108,374 "/>
<polyline fill="none" opacity="1" stroke="#198EE6" stroke-width="2" points="1088,390 1108,390 "/>
<polyline fill="none" opacity="1" stroke="#5419E6" stroke-width="2" points="1088,404 1108,404 "/>
<polyline fill="none" opacity="1" stroke="#E619C8" stroke-width="2" points="1088,419 1108,419 "/>
</svg>
