<svg width="1200" height="800" xmlns="http://www.w3.org/2000/svg">
<rect x="0" y="0" width="1199" height="799" opacity="1" fill="#FFFFFF" stroke="none"/>
<line opacity="0.1" stroke="#000000" stroke-width="1" x1="60" y1="728" x2="1190" y2="728"/>
<line opacity="0.1" stroke="#000000" stroke-width="1" x1="60" y1="718" x2="1190" y2="718"/>
<line opacity="0.1" stroke="#000000" stroke-width="1" x1="60" y1="707" x2="1190" y2="707"/>
<line opacity="0.1" stroke="#000000" stroke-width="1" x1="60" y1="697" x2="1190" y2="697"/>
<line opacity="0.1" stroke="#000000" stroke-width="1" x1="60" y1="686" x2="1190" y2="686"/>
<line opacity="0.1" stroke="#000000" stroke-width="1" x1="60" y1="676" x2="1190" y2="676"/>
<line opacity="0.1" stroke="#000000" stroke-width="1" x1="60" y1="666" x2="1190" y2="666"/>
<line opacity="0.1" stroke="#000000" stroke-width="1" x1="60" y1="655" x2="1190" y2="655"/>
<line opacity="0.1" stroke="#000000" stroke-width="1" x1="60" y1="645" x2="1190" y2="645"/>
<line opacity="0.1" stroke="#000000" stroke-width="1" x1="60" y1="634" x2="1190" y2="634"/>
<line opacity="0.1" stroke="#000000" stroke-width="1" x1="60" y1="624" x2="1190" y2="624"/>
<line opacity="0.1" stroke="#000000" stroke-width="1" x1="60" y1="613" x2="1190" y2="613"/>
<line opacity="0.1" stroke="#000000" stroke-width="1" x1="60" y1="603" x2="1190" y2="603"/>
<line opacity="0.1" stroke="#000000" stroke-width="1" x1="60" y1="592" x2="1190" y2="592"/>
<line opacity="0.1" stroke="#000000" stroke-width="1" x1="60" y1="582" x2="1190" y2="582"/>
<line opacity="0.1" stroke="#000000" stroke-width="1" x1="60" y1="571" x2="1190" y2="571"/>
<line opacity="0.1" stroke="#000000" stroke-width="1" x1="60" y1="561" x2="1190" y2="561"/>
<line opacity="0.1" stroke="#000000" stroke-width="1" x1="60" y1="550" x2="1190" y2="550"/>
<line opacity="0.1" stroke="#000000" stroke-width="1" x1="60" y1="540" x2="1190" y2="540"/>
<line opacity="0.1" stroke="#000000" stroke-width="1" x1="60" y1="530" x2="1190" y2="530"/>
<line opacity="0.1" stroke="#000000" stroke-width="1" x1="60" y1="519" x2="1190" y2="519"/>
<line opacity="0.1" stroke="#000000" stroke-width="1" x1="60" y1="509" x2="1190" y2="509"/>
<line opacity="0.1" stroke="#000000" stroke-width="1" x1="60" y1="498" x2="1190" y2="498"/>
<line opacity="0.1" stroke="#000000" stroke-width="1" x1="60" y1="488" x2="1190" y2="488"/>
<line opacity="0.1" stroke="#000000" stroke-width="1" x1="60" y1="477" x2="1190" y2="477"/>
<line opacity="0.1" stroke="#000000" stroke-width="1" x1="60" y1="467" x2="1190" y2="467"/>
<line opacity="0.1" stroke="#000000" stroke-width="1" x1="60" y1="456" x2="1190" y2="456"/>
<line opacity="0.1" stroke="#000000" stroke-width="1" x1="60" y1="446" x2="1190" y2="446"/>
<line opacity="0.1" stroke="#000000" stroke-width="1" x1="60" y1="435" x2="1190" y2="435"/>
<line opacity="0.1" stroke="#000000" stroke-width="1" x1="60" y1="425" x2="1190" y2="425"/>
<line opacity="0.1" stroke="#000000" stroke-width="1" x1="60" y1="414" x2="1190" y2="414"/>
<line opacity="0.1" stroke="#000000" stroke-width="1" x1="60" y1="404" x2="1190" y2="404"/>
<line opacity="0.1" stroke="#000000" stroke-width="1" x1="60" y1="393" x2="1190" y2="393"/>
<line opacity="0.1" stroke="#000000" stroke-width="1" x1="60" y1="383" x2="1190" y2="383"/>
<line opacity="0.1" stroke="#000000" stroke-width="1" x1="60" y1="373" x2="1190" y2="373"/>
<line opacity="0.1" stroke="#000000" stroke-width="1" x1="60" y1="362" x2="1190" y2="362"/>
<line opacity="0.1" stroke="#000000" stroke-width="1" x1="60" y1="352" x2="1190" y2="352"/>
<line opacity="0.1" stroke="#000000" stroke-width="1" x1="60" y1="341" x2="1190" y2="341"/>
<line opacity="0.1" stroke="#000000" stroke-width="1" x1="60" y1="331" x2="1190" y2="331"/>
<line opacity="0.1" stroke="#000000" stroke-width="1" x1="60" y1="320" x2="1190" y2="320"/>
<line opacity="0.1" stroke="#000000" stroke-width="1" x1="60" y1="310" x2="1190" y2="310"/>
<line opacity="0.1" stroke="#000000" stroke-width="1" x1="60" y1="299" x2="1190" y2="299"/>
<line opacity="0.1" stroke="#000000" stroke-width="1" x1="60" y1="289" x2="1190" y2="289"/>
<line opacity="0.1" stroke="#000000" stroke-width="1" x1="60" y1="278" x2="1190" y2="278"/>
<line opacity="0.1" stroke="#000000" stroke-width="1" x1="60" y1="268" x2="1190" y2="268"/>
<line opacity="0.1" stroke="#000000" stroke-width="1" x1="60" y1="257" x2="1190" y2="257"/>
<line opacity="0.1" stroke="#000000" stroke-width="1" x1="60" y1="247" x2="1190" y2="247"/>
<line opacity="0.1" stroke="#000000" stroke-width="1" x1="60" y1="236" x2="1190" y2="236"/>
<line opacity="0.1" stroke="#000000" stroke-width="1" x1="60" y1="226" x2="1190" y2="226"/>
<line opacity="0.1" stroke="#000000" stroke-width="1" x1="60" y1="216" x2="1190" y2="216"/>
<line opacity="0.1" stroke="#000000" stroke-width="1" x1="60" y1="205" x2="1190" y2="205"/>
<line opacity="0.1" stroke="#000000" stroke-width="1" x1="60" y1="195" x2="1190" y2="195"/>
<line opacity="0.1" stroke="#000000" stroke-width="1" x1="60" y1="184" x2="1190" y2="184"/>
<line opacity="0.1" stroke="#000000" stroke-width="1" x1="60" y1="174" x2="1190" y2="174"/>
<line opacity="0.1" stroke="#000000" stroke-width="1" x1="60" y1="163" x2="1190" y2="163"/>
<line opacity="0.1" stroke="#000000" stroke-width="1" x1="60" y1="153" x2="1190" y2="153"/>
<line opacity="0.1" stroke="#000000" stroke-width="1" x1="60" y1="142" x2="1190" y2="142"/>
<line opacity="0.1" stroke="#000000" stroke-width="1" x1="60" y1="132" x2="1190" y2="132"/>
<line opacity="0.1" stroke="#000000" stroke-width="1" x1="60" y1="121" x2="1190" y2="121"/>
<line opacity="0.1" stroke="#000000" stroke-width="1" x1="60" y1="111" x2="1190" y2="111"/>
<line opacity="0.1" stroke="#000000" stroke-width="1" x1="60" y1="100" x2="1190" y2="100"/>
<line opacity="0.1" stroke="#000000" stroke-width="1" x1="60" y1="90" x2="1190" y2="90"/>
<line opacity="0.1" stroke="#000000" stroke-width="1" x1="60" y1="80" x2="1190" y2="80"/>
<line opacity="0.1" stroke="#000000" stroke-width="1" x1="60" y1="69" x2="1190" y2="69"/>
<line opacity="0.1" stroke="#000000" stroke-width="1" x1="60" y1="59" x2="1190" y2="59"/>
<line opacity="0.1" stroke="#000000" stroke-width="1" x1="60" y1="48" x2="1190" y2="48"/>
<line opacity="0.1" stroke="#000000" stroke-width="1" x1="60" y1="38" x2="1190" y2="38"/>
<line opacity="0.1" stroke="#000000" stroke-width="1" x1="60" y1="27" x2="1190" y2="27"/>
<line opacity="0.1" stroke="#000000" stroke-width="1" x1="60" y1="17" x2="1190" y2="17"/>
<text x="10" y="375" dy="0.76em" text-anchor="middle" font-family="sans-serif" font-size="9.67741935483871" opacity="1" fill="#000000" transform="rotate(270, 10, 375)">
Fraction of dependent crates
</text>
<line opacity="0.2" stroke="#000000" stroke-width="1" x1="60" y1="634" x2="1190" y2="634"/>
<line opacity="0.2" stroke="#000000" stroke-width="1" x1="60" y1="530" x2="1190" y2="530"/>
<line opacity="0.2" stroke="#000000" stroke-width="1" x1="60" y1="425" x2="1190" y2="425"/>
<line opacity="0.2" stroke="#000000" stroke-width="1" x1="60" y1="320" x2="1190" y2="320"/>
<line opacity="0.2" stroke="#000000" stroke-width="1" x1="60" y1="216" x2="1190" y2="216"/>
<polyline fill="none" opacity="1" stroke="#000000" stroke-width="1" points="59,10 59,740 "/>
<text x="50" y="634" dy="0.5ex" text-anchor="end" font-family="sans-serif" font-size="9.67741935483871" opacity="1" fill="#000000">
0.01
</text>
<polyline fill="none" opacity="1" stroke="#000000" stroke-width="1" points="54,634 59,634 "/>
<text x="50" y="530" dy="0.5ex" text-anchor="end" font-family="sans-serif" font-size="9.67741935483871" opacity="1" fill="#000000">
0.02
</text>
<polyline fill="none" opacity="1" stroke="#000000" stroke-width="1" points="54,530 59,530 "/>
<text x="50" y="425" dy="0.5ex" text-anchor="end" font-family="sans-serif" font-size="9.67741935483871" opacity="1" fill="#000000">
0.03
</text>
<polyline fill="none" opacity="1" stroke="#000000" stroke-width="1" points="54,425 59,425 "/>
<text x="50" y="320" dy="0.5ex" text-anchor="end" font-family="sans-serif" font-size="9.67741935483871" opacity="1" fill="#000000">
0.04
</text>
<polyline fill="none" opacity="1" stroke="#000000" stroke-width="1" points="54,320 59,320 "/>
<text x="50" y="216" dy="0.5ex" text-anchor="end" font-family="sans-serif" font-size="9.67741935483871" opacity="1" fill="#000000">
0.05
</text>
<polyline fill="none" opacity="1" stroke="#000000" stroke-width="1" points="54,216 59,216 "/>
<polyline fill="none" opacity="1" stroke="#000000" stroke-width="1" points="60,740 1190,740 "/>
<text x="60" y="750" dy="0.76em" text-anchor="middle" font-family="sans-serif" font-size="9.67741935483871" opacity="1" fill="#000000">
2015-09-24Z
</text>
<polyline fill="none" opacity="1" stroke="#000000" stroke-width="1" points="60,740 60,745 "/>
<text x="175" y="750" dy="0.76em" text-anchor="middle" font-family="sans-serif" font-size="9.67741935483871" opacity="1" fill="#000000">
2016-03-10Z
</text>
<polyline fill="none" opacity="1" stroke="#000000" stroke-width="1" points="175,740 175,745 "/>
<text x="291" y="750" dy="0.76em" text-anchor="middle" font-family="sans-serif" font-size="9.67741935483871" opacity="1" fill="#000000">
2016-08-25Z
</text>
<polyline fill="none" opacity="1" stroke="#000000" stroke-width="1" points="291,740 291,745 "/>
<text x="407" y="750" dy="0.76em" text-anchor="middle" font-family="sans-serif" font-size="9.67741935483871" opacity="1" fill="#000000">
2017-02-09Z
</text>
<polyline fill="none" opacity="1" stroke="#000000" stroke-width="1" points="407,740 407,745 "/>
<text x="523" y="750" dy="0.76em" text-anchor="middle" font-family="sans-serif" font-size="9.67741935483871" opacity="1" fill="#000000">
2017-07-27Z
</text>
<polyline fill="none" opacity="1" stroke="#000000" stroke-width="1" points="523,740 523,745 "/>
<text x="638" y="750" dy="0.76em" text-anchor="middle" font-family="sans-serif" font-size="9.67741935483871" opacity="1" fill="#000000">
2018-01-11Z
</text>
<polyline fill="none" opacity="1" stroke="#000000" stroke-width="1" points="638,740 638,745 "/>
<text x="754" y="750" dy="0.76em" text-anchor="middle" font-family="sans-serif" font-size="9.67741935483871" opacity="1" fill="#000000">
2018-06-28Z
</text>
<polyline fill="none" opacity="1" stroke="#000000" stroke-width="1" points="754,740 754,745 "/>
<text x="870" y="750" dy="0.76em" text-anchor="middle" font-family="sans-serif" font-size="9.67741935483871" opacity="1" fill="#000000">
2018-12-13Z
</text>
<polyline fill="none" opacity="1" stroke="#000000" stroke-width="1" points="870,740 870,745 "/>
<text x="986" y="750" dy="0.76em" text-anchor="middle" font-family="sans-serif" font-size="9.67741935483871" opacity="1" fill="#000000">
2019-05-30Z
</text>
<polyline fill="none" opacity="1" stroke="#000000" stroke-width="1" points="986,740 986,745 "/>
<text x="1101" y="750" dy="0.76em" text-anchor="middle" font-family="sans-serif" font-size="9.67741935483871" opacity="1" fill="#000000">
2019-11-14Z
</text>
<polyline fill="none" opacity="1" stroke="#000000" stroke-width="1" points="1101,740 1101,745 "/>
<polyline fill="none" opacity="1" stroke="#E61919" stroke-width="2" points="1075,738 1077,738 1077,738 1078,738 1079,738 1079,738 1081,738 1081,737 1082,737 1082,737 1083,737 1083,737 1084,736 1085,735 1085,735 1086,735 1087,735 1088,734 1088,734 1089,733 1090,733 1090,733 1091,732 1092,732 1093,732 1094,731 1094,730 1095,729 1096,727 1096,723 1097,723 1098,723 1099,723 1099,722 1100,722 1101,722 1101,720 1102,717 1103,716 1103,716 1104,715 1105,715 1105,714 1106,714 1107,713 1108,713 1108,711 1109,711 1110,710 1110,710 1111,710 1112,710 1112,709 1113,709 1114,707 1114,707 1115,706 1116,706 1116,706 1117,706 1118,706 1119,704 1119,704 1120,704 1121,704 1121,703 1122,703 1123,702 1123,703 1124,702 1125,702 1125,701 1126,701 1127,701 1127,700 1128,700 1129,699 1130,699 1130,698 1131,698 1132,697 1132,697 1133,696 1134,695 1134,695 1135,693 1136,692 1136,692 1137,691 1138,691 1139,690 1139,688 1140,687 1141,686 1141,686 1142,685 1143,683 1143,682 1144,681 1145,681 1145,681 1146,680 1147,680 1147,680 1148,680 1149,679 1150,679 1150,676 1151,675 1152,675 1152,675 1153,674 1154,674 1154,673 1155,673 1156,673 1156,673 1157,671 1158,670 1158,669 1159,669 1160,668 1161,667 1161,667 1162,666 1163,666 1163,666 1164,666 1165,665 1165,665 1166,664 1167,664 1167,662 1168,662 1169,662 1170,662 1170,662 1171,662 1172,661 1172,661 1173,660 1174,659 1174,659 1175,659 1176,658 1176,657 1177,657 1178,656 1178,657 1179,656 1179,656 1180,656 1180,656 1181,655 1181,655 1181,654 1182,654 1182,654 1183,653 1183,653 1183,651 1184,651 1184,647 1185,647 1185,646 1185,646 1185,645 1186,645 1186,645 1187,645 1187,644 1187,644 1187,643 1188,643 1188,643 1189,643 1189,642 1190,642 1190,642 "/>
<polyline fill="none" opacity="1" stroke="#E6C819" stroke-width="2" points="881,738 888,738 894,737 897,736 921,736 928,736 944,735 945,734 948,734 950,734 952,733 954,733 955,733 956,733 957,733 957,733 961,733 962,733 963,733 964,732 966,732 967,732 968,732 968,732 969,732 970,732 971,732 972,732 972,732 973,732 974,731 975,731 977,732 977,732 979,732 980,732 981,732 981,732 982,732 983,732 984,732 985,732 986,732 987,732 988,732 989,732 990,731 990,731 992,731 993,731 995,731 995,731 997,731 997,730 998,730 999,730 999,730 1000,730 1001,729 1001,729 1002,729 1003,729 1003,729 1004,729 1005,729 1006,729 1006,729 1007,729 1008,728 1008,728 1009,728 1010,728 1010,728 1011,729 1012,729 1012,729 1013,729 1014,729 1014,729 1016,729 1017,728 1017,728 1018,727 1019,727 1019,728 1020,728 1021,728 1021,728 1022,728 1023,728 1023,728 1025,728 1026,728 1026,727 1027,727 1028,727 1028,727 1030,727 1030,727 1031,727 1032,727 1032,727 1033,727 1034,727 1034,727 1035,727 1036,727 1037,727 1037,727 1038,727 1039,727 1039,727 1040,727 1041,727 1041,727 1042,727 1043,727 1044,727 1045,727 1045,727 1046,727 1047,727 1048,727 1048,726 1049,726 1050,726 1050,725 1051,725 1052,725 1052,725 1053,725 1054,725 1054,725 1055,725 1056,725 1057,725 1057,725 1058,725 1059,725 1059,725 1060,725 1061,725 1061,725 1062,725 1063,725 1063,725 1064,725 1065,725 1065,725 1066,725 1068,725 1068,725 1069,725 1070,725 1071,724 1072,724 1072,724 1073,723 1074,723 1075,723 1076,723 1077,723 1077,723 1078,723 1079,724 1080,724 1081,723 1081,723 1082,723 1082,723 1083,723 1083,723 1084,723 1085,723 1085,723 1086,723 1088,723 1088,723 1089,723 1090,723 1090,724 1091,724 1092,724 1092,724 1093,724 1094,724 1094,724 1095,724 1096,724 1096,724 1097,724 1098,723 1099,723 1099,723 1100,723 1101,723 1102,723 1103,723 1103,723 1104,723 1105,724 1105,724 1106,724 1107,724 1108,724 1108,724 1109,724 1110,724 1110,724 1111,724 1112,724 1112,724 1114,724 1114,724 1115,724 1116,724 1116,724 1117,723 1118,724 1119,724 1119,724 1120,724 1121,724 1121,724 1122,724 1123,724 1123,724 1124,724 1125,724 1125,724 1126,724 1127,724 1128,724 1129,724 1130,724 1130,724 1131,724 1132,724 1132,724 1133,724 1134,724 1134,724 1135,724 1136,724 1136,724 1138,724 1139,724 1139,724 1140,724 1141,724 1141,724 1142,724 1143,724 1143,724 1144,724 1145,724 1145,724 1146,724 1147,724 1147,724 1148,724 1149,724 1150,724 1150,724 1151,724 1152,724 1152,724 1153,724 1154,724 1154,724 1155,724 1156,724 1156,724 1157,724 1158,723 1158,723 1159,723 1160,722 1161,722 1161,722 1162,722 1163,722 1163,722 1164,723 1165,723 1165,723 1166,722 1167,722 1167,722 1168,722 1169,722 1170,722 1170,722 1171,722 1172,722 1173,722 1174,722 1174,722 1175,722 1176,722 1176,722 1177,722 1178,722 1178,722 1179,722 1179,722 1180,722 1180,722 1181,722 1181,722 1181,722 1182,722 1182,722 1183,722 1183,722 1183,722 1184,722 1184,722 1185,722 1185,723 1185,723 1185,723 1186,723 1186,723 1187,723 1187,723 1187,723 1187,723 1188,723 1188,723 1189,723 1189,723 1190,723 1190,722 "/>
<polyline fill="none" opacity="1" stroke="#54E619" stroke-width="2" points="246,737 247,733 252,735 258,733 266,731 266,729 267,727 272,726 285,724 286,724 287,721 292,719 294,716 294,714 296,714 297,712 300,711 301,713 303,710 304,705 306,703 308,702 312,700 314,699 314,699 317,691 317,686 319,683 319,681 323,681 325,679 325,678 327,676 328,675 329,675 330,673 330,674 331,674 332,674 333,673 334,673 334,673 335,673 336,673 336,671 337,670 338,670 339,669 339,667 340,667 341,664 341,663 342,661 343,657 343,656 345,654 345,653 347,653 348,650 352,651 352,650 353,648 354,647 354,645 356,644 356,643 357,641 358,637 359,633 360,632 361,626 362,625 363,623 363,622 364,622 365,619 366,618 367,617 368,616 369,614 370,612 370,611 371,603 372,600 372,596 373,586 374,585 374,584 375,584 376,583 376,582 377,577 378,574 379,575 379,569 381,567 381,567 382,566 383,565 383,566 384,566 385,566 385,562 386,562 387,561 387,560 388,553 389,554 390,554 390,555 391,555 392,555 393,553 394,553 396,553 396,551 397,548 398,549 399,548 399,548 400,549 401,548 401,548 402,548 403,547 403,548 404,544 405,544 405,542 406,540 407,538 407,539 408,539 409,536 410,532 410,530 412,530 412,527 413,523 414,523 414,523 415,523 416,524 416,523 417,522 418,521 418,521 419,522 420,518 421,519 421,519 422,517 423,517 423,515 424,513 425,511 425,511 426,509 427,509 427,507 428,504 429,504 430,505 430,505 431,504 432,503 432,497 433,496 434,492 434,491 435,492 436,492 436,490 437,489 438,485 438,483 439,482 440,481 441,479 441,479 442,479 443,479 443,479 444,478 445,479 445,479 446,480 447,477 447,478 448,478 449,478 449,476 450,475 451,473 452,472 452,470 453,469 454,468 454,467 455,464 456,463 456,463 457,462 458,463 458,464 459,462 460,461 461,461 461,457 462,454 463,452 463,450 464,448 465,449 465,446 466,446 467,445 467,444 468,444 469,441 469,441 470,441 471,438 472,437 472,436 473,431 474,427 474,427 475,427 476,429 476,425 477,421 478,420 478,421 479,420 480,419 480,419 481,420 482,419 483,421 483,417 484,414 485,413 485,413 486,413 487,414 487,414 488,413 489,414 489,412 490,412 491,412 492,412 492,410 493,407 494,407 494,406 495,405 496,401 496,401 497,401 498,400 498,399 499,398 500,398 500,396 501,396 502,394 503,394 503,393 504,392 505,391 505,390 506,390 507,391 507,389 508,390 509,391 509,390 510,389 511,388 512,387 512,386 513,387 514,384 514,383 515,377 516,377 516,378 517,374 518,371 518,369 519,367 520,366 520,366 521,364 522,361 523,360 523,360 524,358 525,358 525,356 526,356 527,356 527,356 528,355 529,354 529,353 530,352 531,354 531,353 532,352 533,351 534,350 534,349 535,348 536,345 536,345 537,346 538,346 538,343 539,342 540,340 540,338 541,338 542,337 543,337 543,334 544,334 545,334 545,330 546,329 547,329 547,327 548,323 549,322 549,322 550,322 551,321 551,318 552,317 553,315 554,316 554,316 555,315 556,315 556,314 557,313 558,313 558,315 559,315 560,315 560,316 561,316 562,316 562,316 563,296 564,295 565,294 565,295 566,293 567,290 567,289 568,288 569,288 569,287 570,287 571,286 571,284 572,286 573,285 574,284 574,282 575,281 576,281 576,279 577,278 578,277 578,278 579,278 580,279 580,279 581,279 582,278 582,279 583,280 584,280 585,281 585,281 586,281 587,280 587,279 588,280 589,280 589,280 590,280 591,280 591,280 592,281 593,280 593,276 594,275 595,273 596,273 596,273 597,273 598,274 598,271 599,268 600,269 600,270 601,270 602,270 602,270 603,270 604,270 605,270 605,269 606,269 607,271 607,271 608,271 609,270 609,268 610,268 611,268 611,268 612,266 613,267 613,264 614,263 615,263 616,264 616,263 617,264 618,266 618,267 619,269 620,267 620,267 621,266 622,265 622,265 623,264 624,265 625,264 625,263 626,261 627,260 627,261 628,261 629,258 629,256 630,255 631,255 631,254 632,254 633,254 633,254 634,256 635,254 636,254 636,254 637,255 638,256 638,256 639,254 640,255 640,256 641,256 642,257 642,257 643,257 644,256 644,255 645,256 646,257 647,258 647,259 648,259 649,260 649,260 650,261 651,265 651,265 652,265 653,266 653,266 654,265 655,266 656,266 656,267 657,267 658,267 658,267 659,267 660,267 660,268 661,268 662,267 662,266 663,267 664,268 664,269 665,269 666,269 667,271 667,271 668,271 669,272 669,273 670,274 671,275 671,277 672,277 673,278 673,283 674,284 675,285 675,286 676,285 677,286 678,286 678,287 679,288 680,285 680,285 681,285 682,286 682,287 683,288 684,289 684,290 685,290 686,289 687,289 687,290 688,291 689,291 689,292 690,293 691,295 691,295 692,294 693,295 693,295 694,294 695,294 695,294 696,295 697,297 698,297 698,298 699,298 700,299 700,300 701,300 702,300 702,300 703,301 704,303 704,304 705,303 706,303 706,304 707,305 708,304 709,305 709,304 710,305 711,306 711,307 712,307 713,306 713,306 714,306 715,307 715,308 716,309 717,308 718,309 718,308 719,309 720,309 720,310 721,311 722,312 722,313 723,313 724,314 724,313 725,313 726,311 726,312 727,312 728,312 729,312 729,313 730,316 731,316 731,317 732,318 733,320 733,320 734,321 735,321 735,321 736,321 737,321 738,320 738,320 739,322 740,322 740,321 741,321 742,322 742,323 743,323 744,323 744,323 745,323 746,324 746,324 747,325 748,325 749,326 749,325 750,326 751,326 751,327 752,328 753,328 753,329 754,329 755,330 755,330 756,330 757,330 757,330 758,331 759,331 760,331 760,331 761,332 762,332 762,332 763,332 764,332 764,333 765,333 766,334 766,331 767,332 768,332 769,331 769,332 770,332 771,335 771,336 772,336 773,336 773,337 774,337 775,338 775,338 776,339 777,340 777,341 778,341 779,342 780,344 780,345 781,345 782,347 782,347 783,347 784,347 784,348 785,348 786,350 786,350 787,351 788,352 788,351 789,353 790,353 791,354 791,354 792,353 793,352 793,352 794,355 795,355 795,356 796,356 797,356 797,359 798,359 799,360 800,360 800,360 801,360 802,360 802,360 803,360 804,361 804,361 805,362 806,363 806,363 807,363 808,364 808,364 809,364 810,365 811,365 811,365 812,365 813,365 813,366 814,366 815,366 815,366 816,367 816,367 817,366 817,367 818,366 819,367 819,368 820,369 821,371 822,373 822,372 823,372 824,372 824,372 825,372 826,373 826,373 827,374 828,375 828,376 829,379 830,376 831,377 831,377 832,379 833,379 833,379 834,380 835,380 835,381 836,381 837,382 837,382 838,382 839,382 839,382 840,383 841,384 842,383 842,383 843,383 844,384 844,384 845,384 846,385 846,387 847,400 848,401 848,402 849,402 850,402 851,403 851,402 852,402 853,403 853,404 854,403 855,404 855,404 856,404 857,404 857,405 858,405 859,405 859,406 860,406 861,407 862,407 862,407 863,408 864,407 864,408 865,408 866,409 866,410 867,411 868,411 868,411 869,412 870,412 870,413 871,413 872,413 873,414 873,415 874,415 875,415 875,416 876,416 877,417 877,417 878,418 879,418 879,419 880,419 881,420 882,419 882,420 883,420 884,422 884,422 885,423 886,424 886,425 887,426 888,438 888,438 889,438 890,426 890,427 891,427 892,427 893,429 893,429 894,429 895,430 895,429 896,430 897,430 897,429 898,430 899,430 899,431 900,431 901,431 901,430 902,431 903,431 904,431 904,432 905,432 906,433 906,434 907,434 908,436 908,436 909,437 910,437 910,437 911,438 912,438 913,439 913,440 914,439 915,439 915,440 916,440 917,440 917,439 918,440 919,440 919,440 920,441 921,441 921,442 922,442 923,443 924,443 924,443 925,444 926,445 926,445 927,446 928,446 928,446 929,446 930,447 930,447 931,448 932,448 932,449 933,449 934,450 935,450 935,451 936,451 937,451 937,451 938,452 939,453 939,453 940,453 941,454 941,454 942,454 943,455 944,455 944,455 945,456 946,456 946,457 947,457 948,458 948,456 949,456 950,456 950,457 951,458 952,458 952,458 953,459 954,459 955,459 955,460 956,460 957,461 957,461 958,461 959,461 959,462 960,462 961,463 961,463 962,464 963,464 964,464 964,464 965,465 966,465 966,465 967,466 968,467 968,468 969,468 970,468 970,469 971,469 972,470 972,470 973,471 974,472 975,471 975,472 976,472 977,472 977,473 978,473 979,474 979,474 980,474 981,474 981,475 982,475 983,476 983,475 984,476 985,475 986,475 986,475 987,475 988,475 988,476 989,476 990,477 990,477 991,477 992,478 992,478 993,478 994,478 995,479 995,479 996,479 997,480 997,481 998,481 999,481 999,482 1000,482 1001,482 1001,482 1002,483 1003,483 1003,483 1004,484 1005,484 1006,484 1006,484 1007,485 1008,485 1008,486 1009,486 1010,486 1010,486 1011,486 1012,486 1012,487 1013,487 1014,487 1014,487 1015,487 1016,488 1017,487 1017,488 1018,488 1019,488 1019,489 1020,489 1021,490 1021,490 1022,490 1023,490 1023,491 1024,491 1025,491 1026,491 1026,492 1027,492 1028,492 1028,492 1029,493 1030,493 1030,493 1031,493 1032,493 1032,493 1033,493 1034,494 1034,494 1035,494 1036,494 1037,495 1037,496 1038,496 1039,497 1039,497 1040,497 1041,497 1041,497 1042,497 1043,498 1043,498 1044,498 1045,499 1045,499 1046,499 1047,499 1048,500 1048,500 1049,500 1050,500 1050,500 1051,501 1052,501 1052,502 1053,502 1054,502 1054,502 1055,503 1056,503 1057,504 1057,504 1058,504 1059,504 1059,505 1060,505 1061,505 1061,505 1062,506 1063,506 1063,506 1064,506 1065,507 1065,505 1066,506 1067,506 1068,506 1068,506 1069,506 1070,507 1070,507 1071,507 1072,507 1072,507 1073,508 1074,508 1074,508 1075,508 1076,508 1077,509 1077,509 1078,508 1079,509 1079,509 1080,510 1081,511 1081,511 1082,511 1082,511 1083,512 1083,512 1084,512 1085,512 1085,513 1086,513 1087,513 1088,513 1088,513 1089,514 1090,514 1090,515 1091,515 1092,515 1092,515 1093,515 1094,516 1094,515 1095,516 1096,516 1096,516 1097,516 1098,516 1099,516 1099,516 1100,516 1101,516 1101,516 1102,516 1103,517 1103,517 1104,518 1105,518 1105,519 1106,519 1107,519 1108,519 1108,520 1109,520 1110,520 1110,521 1111,521 1112,521 1112,521 1113,521 1114,521 1114,522 1115,522 1116,522 1116,522 1117,522 1118,523 1119,523 1119,523 1120,524 1121,524 1121,524 1122,524 1123,525 1123,525 1124,526 1125,526 1125,526 1126,526 1127,526 1127,526 1128,527 1129,527 1130,527 1130,527 1131,527 1132,528 1132,528 1133,528 1134,528 1134,528 1135,529 1136,529 1136,530 1137,530 1138,530 1139,531 1139,531 1140,532 1141,532 1141,533 1142,533 1143,533 1143,533 1144,533 1145,535 1145,535 1146,535 1147,536 1147,537 1148,537 1149,537 1150,537 1150,538 1151,538 1152,538 1152,539 1153,539 1154,539 1154,539 1155,539 1156,539 1156,539 1157,540 1158,540 1158,540 1159,541 1160,541 1161,542 1161,541 1162,541 1163,541 1163,541 1164,541 1165,542 1165,542 1166,542 1167,542 1167,543 1168,543 1169,544 1170,544 1170,543 1171,544 1172,544 1172,544 1173,544 1174,545 1174,545 1175,545 1176,545 1176,545 1177,546 1178,546 1178,546 1179,546 1179,546 1180,546 1180,547 1181,547 1181,547 1181,547 1182,547 1182,548 1183,548 1183,548 1183,548 1184,548 1184,549 1185,549 1185,549 1185,549 1185,549 1186,549 1186,549 1187,549 1187,549 1187,549 1187,550 1188,550 1188,550 1189,550 1189,550 1190,550 1190,551 "/>
<polyline fill="none" opacity="1" stroke="#19E68E" stroke-width="2" points="600,738 601,737 602,736 603,734 604,732 605,731 606,730 607,729 607,725 608,725 609,723 609,720 610,719 611,718 611,717 612,716 613,714 613,713 616,712 617,710 618,707 618,706 619,704 620,704 620,701 623,699 624,696 625,695 626,694 627,694 627,693 629,690 629,689 630,688 631,685 631,684 632,684 633,683 633,682 634,680 636,678 636,673 637,672 638,672 638,671 639,670 640,669 640,668 641,668 642,664 642,665 643,665 644,664 644,663 645,660 646,660 647,659 647,658 648,655 649,654 649,652 650,650 651,648 651,645 652,644 653,643 653,640 654,640 655,638 656,637 656,636 657,635 658,630 658,628 659,629 660,629 660,628 661,628 662,628 662,627 663,627 664,626 664,624 665,621 666,620 667,617 667,615 668,612 669,610 669,608 670,606 671,604 671,599 672,594 673,593 673,593 674,593 675,588 675,584 676,580 677,579 678,578 678,578 679,575 680,575 680,574 681,574 682,573 682,571 683,571 684,570 684,566 685,565 686,564 687,564 687,562 688,562 689,560 689,559 690,558 691,556 691,556 692,554 693,553 693,552 694,551 695,549 695,547 696,545 697,543 698,543 698,540 699,539 700,535 700,530 701,527 702,525 702,523 703,519 704,516 704,515 705,515 706,514 706,513 707,511 708,510 709,509 709,503 710,500 711,499 711,496 712,495 713,493 713,490 714,488 715,488 715,484 716,482 717,483 718,482 718,481 719,479 720,476 720,475 721,472 722,472 722,469 723,463 724,463 724,461 725,461 726,461 726,460 727,458 728,457 729,456 729,455 730,450 731,450 731,449 732,443 733,438 733,437 734,434 735,433 735,432 736,431 737,432 738,430 738,431 739,428 740,427 740,426 741,426 742,424 743,423 744,422 744,422 745,421 746,420 746,419 747,414 748,412 749,407 749,406 750,403 751,402 751,402 752,403 753,403 753,402 754,400 755,399 755,397 756,397 757,395 757,396 758,393 759,392 760,391 760,391 761,389 762,390 762,389 763,387 764,386 764,383 765,383 766,383 766,382 767,381 768,382 769,381 769,378 770,377 771,372 771,371 772,370 773,369 773,367 774,367 775,367 775,365 776,365 777,364 777,363 778,363 779,361 780,358 780,358 781,356 782,358 782,357 783,355 784,355 784,356 785,354 786,354 786,353 787,352 788,349 788,349 789,347 790,344 791,344 791,341 792,341 793,339 793,338 794,339 795,338 795,337 796,337 797,337 797,338 798,338 799,337 800,336 800,334 801,332 802,330 802,330 803,329 804,328 804,326 805,324 806,322 806,323 807,322 808,321 808,321 809,319 810,317 811,316 811,314 812,313 813,311 813,309 814,307 815,307 815,305 816,305 816,302 817,302 817,302 818,301 819,298 819,296 820,292 821,288 822,286 822,285 823,284 824,284 824,281 825,282 826,281 826,281 827,279 828,280 828,280 829,284 830,280 831,280 831,279 832,278 833,277 833,277 834,272 835,271 835,272 836,269 837,270 837,269 838,268 839,265 839,264 840,263 841,262 842,262 842,263 843,263 844,262 844,259 845,261 846,260 846,258 847,236 848,235 848,236 849,237 850,234 851,235 851,233 852,233 853,233 853,229 854,229 855,228 855,229 856,225 857,224 857,222 858,223 859,222 859,220 860,219 861,220 862,220 862,219 863,216 864,214 864,210 865,208 866,204 866,203 867,201 868,201 868,200 869,198 870,196 870,197 871,197 872,196 873,192 873,190 874,190 875,189 875,187 876,187 877,185 877,184 878,185 879,184 879,184 880,182 881,183 882,182 882,180 883,180 884,177 884,176 885,176 886,175 886,174 887,169 888,190 888,192 889,191 890,170 890,169 891,167 892,167 893,165 893,165 894,165 895,163 895,161 896,162 897,163 897,162 898,162 899,160 899,159 900,159 901,157 901,157 902,156 903,155 904,155 904,156 905,157 906,155 906,155 907,154 908,154 908,154 909,155 910,149 910,149 911,148 912,148 913,145 913,145 914,144 915,144 915,144 916,145 917,145 917,145 918,145 919,145 919,146 920,146 921,145 921,145 922,145 923,143 924,141 924,140 925,139 926,137 926,137 927,138 928,137 928,135 929,134 930,132 930,130 931,131 932,130 932,130 933,129 934,129 935,128 935,129 936,127 937,127 937,127 938,127 939,126 939,126 940,126 941,127 941,127 942,128 943,125 944,125 944,123 945,123 946,122 946,121 947,118 948,118 948,119 949,118 950,118 950,119 951,119 952,117 952,117 953,115 954,113 955,113 955,113 956,113 957,114 957,114 958,114 959,113 959,111 960,111 961,111 961,110 962,110 963,111 964,110 964,109 965,108 966,109 966,107 967,106 968,108 968,108 969,108 970,108 970,108 971,108 972,108 972,107 973,109 974,109 975,110 975,110 976,109 977,109 977,107 978,108 979,106 979,105 980,107 981,108 981,101 982,101 983,102 983,102 984,102 985,101 986,101 986,101 987,102 988,101 988,101 989,101 990,103 990,105 991,105 992,104 992,104 993,103 994,103 995,103 995,103 996,101 997,102 997,101 998,100 999,99 999,99 1000,95 1001,96 1001,95 1002,96 1003,94 1003,92 1004,92 1005,93 1006,90 1006,89 1007,90 1008,89 1008,89 1009,89 1010,88 1010,86 1011,85 1012,86 1012,86 1013,86 1014,85 1014,86 1015,84 1016,84 1017,84 1017,84 1018,85 1019,85 1019,85 1020,85 1021,86 1021,84 1022,84 1023,83 1023,84 1024,83 1025,81 1026,82 1026,83 1027,82 1028,82 1028,84 1029,83 1030,83 1030,83 1031,83 1032,83 1032,83 1033,83 1034,83 1034,82 1035,82 1036,82 1037,83 1037,82 1038,80 1039,80 1039,79 1040,79 1041,79 1041,79 1042,79 1043,76 1043,75 1044,76 1045,76 1045,77 1046,77 1047,77 1048,78 1048,78 1049,79 1050,78 1050,78 1051,78 1052,79 1052,78 1053,78 1054,78 1054,79 1055,80 1056,79 1057,80 1057,78 1058,78 1059,78 1059,78 1060,78 1061,78 1061,78 1062,77 1063,77 1063,77 1064,77 1065,78 1065,79 1066,78 1067,78 1068,77 1068,78 1069,78 1070,79 1070,79 1071,78 1072,79 1072,79 1073,78 1074,78 1074,79 1075,81 1076,81 1077,80 1077,80 1078,80 1079,78 1079,79 1080,79 1081,79 1081,79 1082,79 1082,80 1083,80 1083,83 1084,84 1085,84 1085,85 1086,86 1087,86 1088,86 1088,86 1089,87 1090,87 1090,86 1091,89 1092,90 1092,89 1093,90 1094,95 1094,97 1095,96 1096,99 1096,103 1097,103 1098,104 1099,103 1099,104 1100,104 1101,105 1101,106 1102,110 1103,111 1103,112 1104,113 1105,114 1105,111 1106,112 1107,112 1108,113 1108,113 1109,114 1110,114 1110,115 1111,115 1112,112 1112,112 1113,112 1114,112 1114,112 1115,110 1116,110 1116,111 1117,111 1118,111 1119,111 1119,111 1120,112 1121,112 1121,112 1122,111 1123,112 1123,112 1124,114 1125,114 1125,115 1126,115 1127,115 1127,116 1128,116 1129,111 1130,111 1130,112 1131,113 1132,113 1132,113 1133,114 1134,115 1134,111 1135,110 1136,111 1136,112 1137,112 1138,112 1139,113 1139,113 1140,115 1141,115 1141,115 1142,115 1143,116 1143,116 1144,119 1145,118 1145,118 1146,120 1147,121 1147,121 1148,121 1149,121 1150,124 1150,127 1151,128 1152,127 1152,127 1153,127 1154,128 1154,128 1155,128 1156,129 1156,129 1157,129 1158,130 1158,130 1159,131 1160,130 1161,131 1161,132 1162,133 1163,133 1163,134 1164,132 1165,134 1165,135 1166,136 1167,135 1167,135 1168,134 1169,135 1170,135 1170,136 1171,137 1172,136 1172,137 1173,138 1174,140 1174,140 1175,141 1176,142 1176,142 1177,143 1178,140 1178,141 1179,140 1179,141 1180,141 1180,141 1181,141 1181,141 1181,142 1182,142 1182,143 1183,144 1183,144 1183,145 1184,145 1184,150 1185,150 1185,151 1185,151 1185,152 1186,152 1186,154 1187,154 1187,154 1187,154 1187,154 1188,154 1188,155 1189,155 1189,155 1190,155 1190,156 "/>
<polyline fill="none" opacity="1" stroke="#198EE6" stroke-width="2" points="60,735 60,732 64,729 75,726 85,723 94,723 95,720 99,717 101,714 102,715 107,712 112,709 113,706 119,704 126,705 127,705 130,700 136,698 140,701 142,701 149,694 150,691 150,691 151,692 152,692 153,692 154,692 155,692 155,690 157,687 157,687 158,687 159,688 160,688 162,688 163,688 164,686 164,686 165,686 166,684 166,684 167,684 168,684 169,684 170,684 170,685 171,685 172,685 173,685 173,685 174,685 175,683 175,683 176,683 177,683 178,683 179,683 179,683 180,684 182,684 184,684 184,682 185,680 186,680 186,678 187,678 188,680 188,680 189,678 190,678 190,678 192,679 192,679 194,679 195,677 195,677 196,677 197,677 197,677 199,677 199,678 200,678 201,678 202,676 203,673 204,671 204,669 205,669 206,670 206,670 207,670 208,670 208,670 209,670 210,671 211,671 212,671 213,669 214,665 215,663 216,663 217,663 219,664 219,664 220,662 221,662 222,662 223,662 223,662 224,660 225,660 226,661 226,659 228,657 228,657 230,657 231,658 232,658 232,658 233,658 234,658 235,656 235,657 236,657 237,657 237,657 238,657 239,657 240,655 241,654 241,654 242,654 243,652 243,652 244,652 245,652 246,653 246,651 247,651 248,651 248,651 249,651 250,650 251,648 252,644 252,644 253,645 254,645 254,643 256,643 257,643 258,643 259,644 260,644 261,644 261,644 262,644 263,644 263,643 265,643 266,643 266,643 267,643 268,644 268,644 271,644 272,645 272,643 273,643 274,641 274,640 275,640 276,640 277,640 277,640 279,641 280,641 281,641 281,641 282,641 283,641 283,640 285,640 286,638 286,639 287,639 288,639 289,639 290,640 290,640 291,638 293,639 294,637 294,638 296,638 297,635 297,635 298,635 299,635 299,635 300,635 301,636 301,636 302,636 303,638 303,638 305,637 305,637 306,638 307,638 308,638 308,638 309,638 310,638 310,639 311,639 312,639 312,639 313,639 314,636 314,635 315,635 316,635 317,635 317,635 318,635 319,635 319,636 320,636 321,636 321,637 322,637 323,637 323,635 324,636 325,636 325,636 326,633 327,633 328,632 328,632 330,630 330,631 331,631 332,632 333,632 334,632 335,632 336,631 336,631 337,631 338,630 339,628 339,628 341,629 341,629 342,627 343,628 343,628 344,628 345,628 345,627 347,626 348,626 348,624 349,624 350,625 350,625 351,625 352,624 352,624 353,624 354,624 354,624 355,624 356,623 356,623 357,623 358,624 359,624 359,624 361,624 361,624 362,625 363,625 363,625 364,624 365,624 366,624 367,624 367,623 368,622 369,621 370,621 370,621 371,623 372,623 372,622 373,622 374,621 374,621 375,622 376,620 376,619 377,618 378,618 379,619 379,619 380,619 381,619 381,619 382,620 383,620 383,619 384,617 385,618 385,618 386,618 387,618 387,617 388,616 389,616 390,616 391,617 392,616 392,614 393,614 394,613 394,614 395,614 396,614 396,610 397,610 398,611 399,610 399,610 400,610 401,610 401,611 402,610 403,609 403,609 404,609 405,610 405,609 406,608 407,608 407,608 408,609 409,608 410,608 410,608 411,608 412,609 412,607 413,608 414,607 414,606 415,606 416,606 416,606 417,606 418,607 418,607 419,607 420,608 421,607 421,604 422,605 423,605 424,606 425,606 425,606 426,606 427,607 428,607 429,606 430,605 430,605 431,605 432,605 432,606 433,606 434,606 434,606 435,605 436,606 436,606 437,606 438,605 438,605 439,605 440,606 441,606 441,606 442,606 443,606 443,606 444,607 445,607 445,606 446,606 447,606 447,607 448,607 449,606 449,605 450,605 451,605 452,605 452,606 453,606 454,606 454,606 455,606 456,607 456,607 457,607 458,605 458,605 459,606 460,606 461,606 461,606 462,606 463,606 463,607 464,607 465,606 465,605 466,605 467,606 467,606 468,605 469,605 469,605 470,605 471,606 472,606 472,605 473,605 474,606 474,605 475,606 476,607 476,607 477,607 478,606 478,605 479,605 480,606 480,606 481,606 482,606 483,605 483,607 484,604 485,604 485,604 486,605 487,605 487,605 488,603 489,604 489,603 490,603 491,602 492,601 492,601 493,601 494,601 494,601 495,601 496,600 496,601 497,602 498,603 498,603 499,603 500,603 500,602 501,603 503,603 503,603 504,603 505,604 505,604 506,604 507,604 507,604 508,604 509,605 509,605 510,605 511,604 512,604 512,604 513,605 514,605 514,605 515,605 516,606 516,606 517,606 518,606 518,606 519,607 520,607 520,607 521,606 522,606 523,606 523,606 524,605 525,605 525,605 526,605 527,604 527,604 528,604 529,604 529,605 530,605 531,605 531,605 532,605 533,605 534,604 534,605 535,605 536,605 536,605 537,605 538,605 538,605 539,605 540,605 540,606 541,606 542,605 543,605 543,605 544,605 545,606 545,606 546,605 547,605 547,605 548,606 549,606 549,606 550,606 551,606 551,607 552,607 553,607 554,607 554,607 555,607 556,608 556,608 557,608 558,608 558,608 559,609 560,609 560,609 561,609 562,609 562,608 563,609 564,607 565,607 565,608 566,607 567,607 568,607 569,607 569,607 570,607 571,606 571,606 572,607 573,607 574,607 574,607 575,608 576,607 577,607 578,607 578,608 579,607 580,607 580,606 581,607 582,607 582,607 583,607 584,607 585,607 585,606 586,606 587,606 587,607 588,606 589,606 589,606 590,606 591,607 591,607 592,607 593,606 593,606 594,606 595,605 596,604 596,604 597,604 598,605 598,605 599,605 600,605 600,605 601,605 602,606 602,606 603,606 604,606 605,606 605,605 606,605 607,605 607,606 608,606 609,606 609,606 610,607 611,608 611,608 612,608 613,608 613,608 614,608 615,609 616,609 616,609 617,609 618,609 618,610 619,610 620,609 620,609 621,609 622,610 622,610 623,611 624,611 625,611 625,612 626,612 627,612 627,612 628,612 629,613 630,613 631,613 631,613 632,613 633,614 633,614 634,614 635,614 636,614 637,614 638,614 638,614 639,614 640,614 640,615 641,615 642,614 643,615 644,615 644,614 645,614 646,615 647,615 647,615 648,615 649,615 649,615 650,615 651,616 651,615 652,615 653,616 653,616 654,615 655,615 656,616 656,615 657,615 658,615 658,613 659,614 660,614 660,614 661,614 662,614 662,615 663,615 664,615 664,615 665,615 666,614 667,614 667,614 668,613 669,613 669,613 670,612 671,612 671,611 672,611 673,611 673,612 674,611 675,611 675,611 676,612 677,612 678,612 678,612 679,612 680,613 680,613 681,613 682,613 682,613 683,614 684,615 684,615 685,615 686,614 687,615 687,614 688,614 689,614 689,615 690,615 691,615 691,615 692,616 693,616 693,615 694,615 695,615 695,616 696,616 697,615 698,615 698,616 699,616 700,616 700,616 701,616 702,616 702,616 703,616 704,616 704,616 705,616 706,617 706,616 707,616 708,615 709,615 709,615 710,615 711,616 711,615 712,615 713,615 713,615 714,615 715,615 715,615 716,615 717,615 718,615 718,616 719,616 720,616 720,617 721,617 722,617 722,618 723,618 724,618 724,618 725,618 726,618 726,618 727,618 728,618 729,618 729,619 730,618 731,619 731,619 732,619 733,619 733,619 734,619 735,619 735,619 736,619 737,618 738,619 738,619 739,619 740,619 740,619 741,619 742,619 742,619 743,619 744,619 744,619 745,619 746,619 746,620 747,620 748,619 749,619 749,619 750,619 751,619 751,619 752,619 753,619 753,620 754,619 755,619 755,619 756,619 757,620 757,620 758,620 759,620 760,620 760,620 761,620 762,620 762,620 764,620 764,620 765,620 766,621 766,621 767,621 768,621 769,621 769,621 770,621 771,621 771,621 772,622 773,622 773,622 774,622 775,622 775,622 776,622 777,621 777,622 778,622 779,622 780,622 780,622 781,622 782,623 782,623 783,623 784,623 784,623 785,623 786,623 786,623 787,624 788,624 788,624 789,624 790,624 791,624 791,625 792,625 793,625 793,624 794,625 795,625 795,625 796,626 797,626 797,626 798,626 799,626 800,626 800,627 801,627 802,627 802,627 803,626 804,626 804,626 805,626 806,626 806,626 807,626 808,626 808,626 809,626 810,627 811,626 811,626 812,627 813,627 813,627 814,627 815,628 815,628 816,628 816,628 817,628 817,628 818,628 819,628 819,629 820,629 821,629 822,629 822,629 823,630 824,630 824,629 825,629 826,630 826,630 827,630 828,630 828,630 829,632 830,631 831,631 831,631 832,631 833,631 833,632 834,632 835,632 835,633 836,633 837,633 837,633 838,633 839,633 839,633 840,634 841,634 842,634 842,634 843,634 844,634 844,634 845,634 846,634 846,634 847,634 848,634 848,634 849,635 850,635 851,635 851,635 852,635 853,635 853,635 854,635 855,636 855,636 856,636 857,636 857,636 858,636 859,636 859,636 860,637 861,636 862,636 862,636 863,637 864,637 864,637 865,637 866,637 866,637 867,637 868,637 868,638 869,637 870,637 870,637 871,638 872,638 873,638 873,638 874,638 875,638 875,638 876,638 877,639 877,639 878,639 879,639 879,639 880,639 881,639 882,639 882,640 883,640 884,639 884,640 885,640 886,639 886,640 887,640 888,644 888,644 889,644 890,640 890,640 891,641 892,641 893,641 893,641 894,641 895,642 895,642 896,642 897,642 897,642 898,642 899,643 899,643 900,643 901,643 901,644 902,644 903,644 904,644 904,644 905,644 906,645 906,645 907,645 908,645 908,645 909,645 910,645 910,645 911,645 912,645 913,645 913,645 914,645 915,645 915,646 916,646 917,646 917,646 918,647 919,647 919,647 920,647 921,647 921,647 922,646 923,647 924,647 924,647 925,647 926,647 926,647 927,647 928,647 928,647 929,646 930,646 930,645 931,645 932,645 932,645 933,645 934,645 935,645 935,645 936,645 937,646 937,646 938,646 939,646 939,646 940,646 941,646 941,646 942,647 943,647 944,647 944,647 945,647 946,647 946,647 947,647 948,647 948,647 949,647 950,647 950,647 951,648 952,648 952,648 953,648 954,648 955,648 955,648 956,648 957,649 957,649 958,649 959,649 959,649 960,649 961,648 961,648 962,648 963,649 964,649 964,649 965,649 966,649 966,649 967,649 968,649 968,649 969,649 970,649 970,649 971,649 972,649 972,649 973,649 974,649 975,649 975,649 976,649 977,649 977,649 978,649 979,649 979,649 980,649 981,649 981,649 982,649 983,649 983,649 984,650 985,650 986,650 986,650 987,650 988,650 988,650 989,650 990,650 990,650 991,650 992,650 992,651 993,650 994,650 995,650 995,651 996,651 997,651 997,651 998,651 999,651 999,651 1000,651 1001,651 1001,651 1002,652 1003,652 1003,652 1004,652 1005,653 1006,653 1006,653 1007,653 1008,653 1008,653 1009,653 1010,653 1010,654 1011,654 1012,653 1012,653 1013,651 1014,651 1014,651 1015,651 1016,651 1017,651 1017,651 1018,651 1019,651 1019,651 1020,650 1021,650 1021,650 1022,650 1023,650 1023,650 1024,650 1025,650 1026,650 1026,650 1027,650 1028,650 1028,650 1029,650 1030,650 1030,650 1031,650 1032,650 1032,650 1033,650 1034,650 1034,651 1035,651 1036,651 1037,651 1037,651 1038,651 1039,651 1039,651 1040,651 1041,651 1041,651 1042,651 1043,651 1043,652 1044,651 1045,651 1045,651 1046,652 1047,652 1048,652 1048,652 1049,652 1050,651 1050,651 1051,651 1052,651 1052,651 1053,651 1054,652 1054,652 1055,652 1056,652 1057,652 1057,652 1058,652 1059,652 1059,652 1060,652 1061,652 1061,652 1062,652 1063,653 1063,652 1064,653 1065,653 1065,653 1066,653 1067,653 1068,653 1068,654 1069,654 1070,654 1070,654 1071,655 1072,655 1072,655 1073,655 1074,655 1074,655 1075,655 1076,656 1077,656 1077,656 1078,656 1079,656 1079,656 1080,656 1081,656 1081,656 1082,656 1082,656 1083,656 1083,656 1084,656 1085,657 1085,656 1086,656 1087,656 1088,657 1088,656 1089,656 1090,657 1090,657 1091,657 1092,657 1092,657 1093,657 1094,658 1094,657 1095,657 1096,657 1096,657 1097,657 1098,658 1099,658 1099,658 1100,658 1101,658 1101,658 1102,658 1103,658 1103,658 1104,658 1105,658 1105,659 1106,659 1107,659 1108,659 1108,659 1109,659 1110,659 1110,659 1111,659 1112,659 1112,659 1113,659 1114,659 1114,659 1115,659 1116,660 1116,660 1117,660 1118,660 1119,660 1119,660 1120,660 1121,660 1121,660 1122,660 1123,660 1123,661 1124,661 1125,661 1125,661 1126,662 1127,662 1127,662 1128,662 1129,662 1130,662 1130,662 1131,662 1132,662 1132,662 1133,662 1134,662 1134,662 1135,662 1136,662 1136,662 1137,663 1138,663 1139,663 1139,663 1140,663 1141,663 1141,663 1142,663 1143,663 1143,663 1144,664 1145,664 1145,664 1146,664 1147,664 1147,665 1148,665 1149,665 1150,665 1150,665 1151,665 1152,665 1152,665 1153,665 1154,665 1154,665 1155,665 1156,665 1156,666 1157,666 1158,666 1158,666 1159,666 1160,666 1161,667 1161,667 1162,667 1163,667 1163,667 1164,667 1165,667 1165,667 1166,667 1167,667 1167,667 1168,668 1169,667 1170,667 1170,668 1171,667 1172,667 1172,667 1173,668 1174,668 1174,668 1175,668 1176,669 1176,669 1177,669 1178,669 1178,669 1179,669 1179,669 1180,669 1180,669 1181,670 1181,670 1181,670 1182,670 1182,670 1183,670 1183,670 1183,670 1184,670 1184,670 1185,670 1185,670 1185,670 1185,670 1186,670 1186,670 1187,670 1187,670 1187,670 1187,670 1188,670 1188,670 1189,670 1189,670 1190,670 1190,670 "/>
<polyline fill="none" opacity="1" stroke="#5419E6" stroke-width="2" points="969,738 970,738 975,738 981,737 983,736 986,736 989,736 990,735 990,732 991,732 993,732 995,732 1000,731 1001,731 1002,731 1003,731 1004,731 1012,731 1017,731 1018,730 1019,730 1021,729 1025,729 1026,728 1027,728 1028,727 1028,727 1029,727 1032,727 1032,727 1033,727 1036,727 1037,726 1037,726 1038,725 1041,725 1042,725 1043,725 1043,724 1045,724 1047,724 1048,724 1048,724 1049,724 1052,724 1054,724 1054,724 1056,724 1057,723 1057,723 1059,723 1059,723 1060,723 1061,723 1062,723 1063,723 1064,723 1065,722 1066,723 1067,723 1068,723 1068,722 1069,721 1070,721 1070,721 1071,721 1072,722 1072,722 1073,722 1074,722 1075,722 1076,721 1077,721 1077,721 1078,721 1079,721 1081,721 1081,721 1082,721 1082,721 1083,721 1083,720 1084,720 1085,720 1085,720 1086,719 1087,719 1088,719 1089,718 1090,718 1091,718 1092,717 1092,717 1093,717 1094,717 1095,717 1096,717 1097,717 1098,716 1099,716 1099,716 1100,715 1101,715 1101,715 1103,714 1103,714 1104,714 1105,714 1105,714 1106,714 1107,714 1108,713 1109,713 1110,714 1112,713 1112,713 1113,713 1114,713 1116,714 1116,714 1117,714 1118,714 1119,713 1121,713 1122,713 1123,713 1125,712 1125,713 1126,713 1127,712 1127,712 1128,712 1129,712 1130,712 1130,712 1131,712 1132,712 1132,711 1133,711 1134,712 1134,712 1135,712 1136,712 1136,711 1137,711 1138,712 1139,711 1139,711 1140,711 1141,711 1141,711 1142,711 1143,711 1144,711 1145,711 1145,710 1146,710 1147,710 1147,710 1148,710 1149,709 1150,709 1151,709 1152,710 1152,710 1153,710 1154,710 1154,709 1155,709 1156,709 1156,709 1157,709 1158,708 1158,708 1159,708 1160,709 1161,709 1161,708 1162,708 1163,708 1163,708 1164,708 1165,708 1165,708 1166,708 1167,708 1167,708 1168,708 1169,708 1170,708 1170,708 1171,708 1172,708 1172,707 1174,708 1174,708 1175,708 1176,708 1176,708 1177,708 1178,708 1178,708 1179,708 1179,708 1180,708 1180,708 1181,708 1181,708 1181,708 1182,708 1182,708 1183,708 1183,708 1183,708 1184,708 1184,708 1185,708 1185,708 1185,708 1185,707 1186,707 1186,707 1187,707 1187,707 1187,707 1187,708 1188,708 1188,707 1189,707 1189,707 1190,707 1190,707 "/>
<polyline fill="none" opacity="1" stroke="#E619C8" stroke-width="2" points="1077,738 1077,737 1078,737 1079,736 1079,736 1081,735 1081,735 1082,735 1082,735 1083,735 1083,735 1084,734 1085,734 1085,734 1086,733 1087,733 1088,733 1088,733 1089,732 1090,732 1090,731 1091,730 1092,730 1093,730 1094,728 1094,727 1095,727 1096,726 1096,725 1097,725 1098,724 1099,724 1099,723 1100,723 1101,723 1101,723 1102,720 1103,719 1103,718 1104,717 1105,716 1105,716 1106,716 1107,716 1108,716 1108,716 1109,716 1110,714 1110,714 1111,714 1112,714 1112,714 1113,714 1114,713 1114,714 1115,713 1116,712 1116,712 1117,712 1118,711 1119,711 1119,710 1120,710 1121,709 1121,707 1122,707 1123,707 1123,706 1124,706 1125,706 1125,706 1126,704 1127,703 1127,702 1128,700 1129,700 1130,699 1130,699 1131,698 1132,698 1132,698 1133,697 1134,697 1134,696 1135,696 1136,695 1136,694 1137,694 1138,692 1139,691 1139,690 1140,690 1141,688 1141,688 1142,688 1143,687 1143,687 1144,685 1145,683 1145,683 1146,682 1147,681 1147,681 1148,681 1149,681 1150,680 1150,679 1151,677 1152,677 1152,676 1153,674 1154,674 1154,673 1155,673 1156,673 1156,672 1157,672 1158,672 1158,671 1159,671 1160,670 1161,670 1161,669 1162,669 1163,669 1163,668 1164,668 1165,667 1165,667 1166,666 1167,667 1167,665 1168,664 1169,664 1170,663 1170,662 1171,662 1172,663 1172,661 1173,660 1174,660 1174,660 1175,659 1176,657 1176,656 1177,655 1178,655 1178,654 1179,654 1179,653 1180,653 1180,653 1181,653 1181,653 1181,651 1182,651 1182,651 1183,650 1183,650 1183,649 1184,649 1184,646 1185,646 1185,646 1185,646 1185,645 1186,645 1186,644 1187,644 1187,643 1187,643 1187,642 1188,642 1188,642 1189,642 1189,641 1190,641 1190,640 "/>
<rect x="1078" y="315" width="107" height="119" opacity="1" fill="#FFFFFF" stroke="none"/>
<rect x="1078" y="315" width="107" height="119" opacity="1" fill="none" stroke="#000000"/>
<text x="1118" y="325" dy="0.76em" text-anchor="start" font-family="sans-serif" font-size="9.67741935483871" opacity="1" fill="#000000">
anyhow
</text>
<text x="1118" y="340" dy="0.76em" text-anchor="start" font-family="sans-serif" font-size="9.67741935483871" opacity="1" fill="#000000">
err-derive
</text>
<text x="1118" y="355" dy="0.76em" text-anchor="start" font-family="sans-serif" font-size="9.67741935483871" opacity="1" fill="#000000">
error-chain
</text>
<text x="1118" y="370" dy="0.76em" text-anchor="start" font-family="sans-serif" font-size="9.67741935483871" opacity="1" fill="#000000">
failure
</text>
<text x="1118" y="385" dy="0.76em" text-anchor="start" font-family="sans-serif" font-size="9.67741935483871" opacity="1" fill="#000000">
quick-error
</text>
<text x="1118" y="400" dy="0.76em" text-anchor="start" font-family="sans-serif" font-size="9.67741935483871" opacity="1" fill="#000000">
snafu
</text>
<text x="1118" y="415" dy="0.76em" text-anchor="start" font-family="sans-serif" font-size="9.67741935483871" opacity="1" fill="#000000">
thiserror
</text>
<polyline fill="none" opacity="1" stroke="#E61919" stroke-width="2" points="1088,330 1108,330 "/>
<polyline fill="none" opacity="1" stroke="#E6C819" stroke-width="2" points="1088,344 1108,344 "/>
<polyline fill="none" opacity="1" stroke="#54E619" stroke-width="2" points="1088,359 1108,359 "/>
<polyline fill="none" opacity="1" stroke="#19E68E" stroke-width="2" points="1088,374 1108,374 "/>
<polyline fill="none" opacity="1" stroke="#198EE6" stroke-width="2" points="1088,390 1108,390 "/>
<polyline fill="none" opacity="1" stroke="#5419E6" stroke-width="2" points="1088,404 1108,404 "/>
<polyline fill="none" opacity="1" stroke="#E619C8" stroke-width="2" points="1088,419 1108,419 "/>
</svg>
