<svg width="1200" height="800" xmlns="http://www.w3.org/2000/svg">
<rect x="0" y="0" width="1199" height="799" opacity="1" fill="#FFFFFF" stroke="none"/>
<line opacity="0.1" stroke="#000000" stroke-width="1" x1="60" y1="723" x2="1190" y2="723"/>
<line opacity="0.1" stroke="#000000" stroke-width="1" x1="60" y1="708" x2="1190" y2="708"/>
<line opacity="0.1" stroke="#000000" stroke-width="1" x1="60" y1="692" x2="1190" y2="692"/>
<line opacity="0.1" stroke="#000000" stroke-width="1" x1="60" y1="677" x2="1190" y2="677"/>
<line opacity="0.1" stroke="#000000" stroke-width="1" x1="60" y1="661" x2="1190" y2="661"/>
<line opacity="0.1" stroke="#000000" stroke-width="1" x1="60" y1="645" x2="1190" y2="645"/>
<line opacity="0.1" stroke="#000000" stroke-width="1" x1="60" y1="630" x2="1190" y2="630"/>
<line opacity="0.1" stroke="#000000" stroke-width="1" x1="60" y1="614" x2="1190" y2="614"/>
<line opacity="0.1" stroke="#000000" stroke-width="1" x1="60" y1="599" x2="1190" y2="599"/>
<line opacity="0.1" stroke="#000000" stroke-width="1" x1="60" y1="583" x2="1190" y2="583"/>
<line opacity="0.1" stroke="#000000" stroke-width="1" x1="60" y1="568" x2="1190" y2="568"/>
<line opacity="0.1" stroke="#000000" stroke-width="1" x1="60" y1="552" x2="1190" y2="552"/>
<line opacity="0.1" stroke="#000000" stroke-width="1" x1="60" y1="536" x2="1190" y2="536"/>
<line opacity="0.1" stroke="#000000" stroke-width="1" x1="60" y1="521" x2="1190" y2="521"/>
<line opacity="0.1" stroke="#000000" stroke-width="1" x1="60" y1="505" x2="1190" y2="505"/>
<line opacity="0.1" stroke="#000000" stroke-width="1" x1="60" y1="490" x2="1190" y2="490"/>
<line opacity="0.1" stroke="#000000" stroke-width="1" x1="60" y1="474" x2="1190" y2="474"/>
<line opacity="0.1" stroke="#000000" stroke-width="1" x1="60" y1="459" x2="1190" y2="459"/>
<line opacity="0.1" stroke="#000000" stroke-width="1" x1="60" y1="443" x2="1190" y2="443"/>
<line opacity="0.1" stroke="#000000" stroke-width="1" x1="60" y1="427" x2="1190" y2="427"/>
<line opacity="0.1" stroke="#000000" stroke-width="1" x1="60" y1="412" x2="1190" y2="412"/>
<line opacity="0.1" stroke="#000000" stroke-width="1" x1="60" y1="396" x2="1190" y2="396"/>
<line opacity="0.1" stroke="#000000" stroke-width="1" x1="60" y1="381" x2="1190" y2="381"/>
<line opacity="0.1" stroke="#000000" stroke-width="1" x1="60" y1="365" x2="1190" y2="365"/>
<line opacity="0.1" stroke="#000000" stroke-width="1" x1="60" y1="350" x2="1190" y2="350"/>
<line opacity="0.1" stroke="#000000" stroke-width="1" x1="60" y1="334" x2="1190" y2="334"/>
<line opacity="0.1" stroke="#000000" stroke-width="1" x1="60" y1="318" x2="1190" y2="318"/>
<line opacity="0.1" stroke="#000000" stroke-width="1" x1="60" y1="303" x2="1190" y2="303"/>
<line opacity="0.1" stroke="#000000" stroke-width="1" x1="60" y1="287" x2="1190" y2="287"/>
<line opacity="0.1" stroke="#000000" stroke-width="1" x1="60" y1="272" x2="1190" y2="272"/>
<line opacity="0.1" stroke="#000000" stroke-width="1" x1="60" y1="256" x2="1190" y2="256"/>
<line opacity="0.1" stroke="#000000" stroke-width="1" x1="60" y1="241" x2="1190" y2="241"/>
<line opacity="0.1" stroke="#000000" stroke-width="1" x1="60" y1="225" x2="1190" y2="225"/>
<line opacity="0.1" stroke="#000000" stroke-width="1" x1="60" y1="209" x2="1190" y2="209"/>
<line opacity="0.1" stroke="#000000" stroke-width="1" x1="60" y1="194" x2="1190" y2="194"/>
<line opacity="0.1" stroke="#000000" stroke-width="1" x1="60" y1="178" x2="1190" y2="178"/>
<line opacity="0.1" stroke="#000000" stroke-width="1" x1="60" y1="163" x2="1190" y2="163"/>
<line opacity="0.1" stroke="#000000" stroke-width="1" x1="60" y1="147" x2="1190" y2="147"/>
<line opacity="0.1" stroke="#000000" stroke-width="1" x1="60" y1="132" x2="1190" y2="132"/>
<line opacity="0.1" stroke="#000000" stroke-width="1" x1="60" y1="116" x2="1190" y2="116"/>
<line opacity="0.1" stroke="#000000" stroke-width="1" x1="60" y1="100" x2="1190" y2="100"/>
<line opacity="0.1" stroke="#000000" stroke-width="1" x1="60" y1="85" x2="1190" y2="85"/>
<line opacity="0.1" stroke="#000000" stroke-width="1" x1="60" y1="69" x2="1190" y2="69"/>
<line opacity="0.1" stroke="#000000" stroke-width="1" x1="60" y1="54" x2="1190" y2="54"/>
<line opacity="0.1" stroke="#000000" stroke-width="1" x1="60" y1="38" x2="1190" y2="38"/>
<line opacity="0.1" stroke="#000000" stroke-width="1" x1="60" y1="23" x2="1190" y2="23"/>
<text x="10" y="375" dy="0.76em" text-anchor="middle" font-family="sans-serif" font-size="9.67741935483871" opacity="1" fill="#000000" transform="rotate(270, 10, 375)">
Number of dependent crates
</text>
<line opacity="0.2" stroke="#000000" stroke-width="1" x1="60" y1="583" x2="1190" y2="583"/>
<line opacity="0.2" stroke="#000000" stroke-width="1" x1="60" y1="427" x2="1190" y2="427"/>
<line opacity="0.2" stroke="#000000" stroke-width="1" x1="60" y1="272" x2="1190" y2="272"/>
<line opacity="0.2" stroke="#000000" stroke-width="1" x1="60" y1="116" x2="1190" y2="116"/>
<polyline fill="none" opacity="1" stroke="#000000" stroke-width="1" points="59,10 59,740 "/>
<text x="50" y="583" dy="0.5ex" text-anchor="end" font-family="sans-serif" font-size="9.67741935483871" opacity="1" fill="#000000">
500
</text>
<polyline fill="none" opacity="1" stroke="#000000" stroke-width="1" points="54,583 59,583 "/>
<text x="50" y="427" dy="0.5ex" text-anchor="end" font-family="sans-serif" font-size="9.67741935483871" opacity="1" fill="#000000">
1000
</text>
<polyline fill="none" opacity="1" stroke="#000000" stroke-width="1" points="54,427 59,427 "/>
<text x="50" y="272" dy="0.5ex" text-anchor="end" font-family="sans-serif" font-size="9.67741935483871" opacity="1" fill="#000000">
1500
</text>
<polyline fill="none" opacity="1" stroke="#000000" stroke-width="1" points="54,272 59,272 "/>
<text x="50" y="116" dy="0.5ex" text-anchor="end" font-family="sans-serif" font-size="9.67741935483871" opacity="1" fill="#000000">
2000
</text>
<polyline fill="none" opacity="1" stroke="#000000" stroke-width="1" points="54,116 59,116 "/>
<polyline fill="none" opacity="1" stroke="#000000" stroke-width="1" points="60,740 1190,740 "/>
<text x="60" y="750" dy="0.76em" text-anchor="middle" font-family="sans-serif" font-size="9.67741935483871" opacity="1" fill="#000000">
2015-09-24Z
</text>
<polyline fill="none" opacity="1" stroke="#000000" stroke-width="1" points="60,740 60,745 "/>
<text x="174" y="750" dy="0.76em" text-anchor="middle" font-family="sans-serif" font-size="9.67741935483871" opacity="1" fill="#000000">
2016-03-10Z
</text>
<polyline fill="none" opacity="1" stroke="#000000" stroke-width="1" points="174,740 174,745 "/>
<text x="288" y="750" dy="0.76em" text-anchor="middle" font-family="sans-serif" font-size="9.67741935483871" opacity="1" fill="#000000">
2016-08-25Z
</text>
<polyline fill="none" opacity="1" stroke="#000000" stroke-width="1" points="288,740 288,745 "/>
<text x="402" y="750" dy="0.76em" text-anchor="middle" font-family="sans-serif" font-size="9.67741935483871" opacity="1" fill="#000000">
2017-02-09Z
</text>
<polyline fill="none" opacity="1" stroke="#000000" stroke-width="1" points="402,740 402,745 "/>
<text x="516" y="750" dy="0.76em" text-anchor="middle" font-family="sans-serif" font-size="9.67741935483871" opacity="1" fill="#000000">
2017-07-27Z
</text>
<polyline fill="none" opacity="1" stroke="#000000" stroke-width="1" points="516,740 516,745 "/>
<text x="631" y="750" dy="0.76em" text-anchor="middle" font-family="sans-serif" font-size="9.67741935483871" opacity="1" fill="#000000">
2018-01-11Z
</text>
<polyline fill="none" opacity="1" stroke="#000000" stroke-width="1" points="631,740 631,745 "/>
<text x="745" y="750" dy="0.76em" text-anchor="middle" font-family="sans-serif" font-size="9.67741935483871" opacity="1" fill="#000000">
2018-06-28Z
</text>
<polyline fill="none" opacity="1" stroke="#000000" stroke-width="1" points="745,740 745,745 "/>
<text x="859" y="750" dy="0.76em" text-anchor="middle" font-family="sans-serif" font-size="9.67741935483871" opacity="1" fill="#000000">
2018-12-13Z
</text>
<polyline fill="none" opacity="1" stroke="#000000" stroke-width="1" points="859,740 859,745 "/>
<text x="973" y="750" dy="0.76em" text-anchor="middle" font-family="sans-serif" font-size="9.67741935483871" opacity="1" fill="#000000">
2019-05-30Z
</text>
<polyline fill="none" opacity="1" stroke="#000000" stroke-width="1" points="973,740 973,745 "/>
<text x="1088" y="750" dy="0.76em" text-anchor="middle" font-family="sans-serif" font-size="9.67741935483871" opacity="1" fill="#000000">
2019-11-14Z
</text>
<polyline fill="none" opacity="1" stroke="#000000" stroke-width="1" points="1088,740 1088,745 "/>
<polyline fill="none" opacity="1" stroke="#E61919" stroke-width="2" points="1062,738 1063,738 1064,738 1064,738 1065,738 1066,738 1067,738 1068,737 1068,737 1068,737 1069,737 1070,737 1071,736 1071,736 1072,736 1073,736 1073,735 1074,735 1075,734 1075,734 1076,733 1077,733 1077,732 1079,732 1079,732 1080,731 1081,730 1081,730 1082,728 1083,724 1083,724 1084,724 1085,724 1085,723 1086,723 1087,723 1088,721 1088,718 1089,717 1090,717 1090,716 1091,716 1092,715 1092,715 1093,714 1094,714 1094,712 1095,712 1096,711 1096,711 1097,711 1098,710 1098,710 1099,710 1100,708 1100,708 1101,707 1102,707 1102,707 1103,707 1104,706 1105,705 1105,705 1106,704 1107,704 1107,704 1108,703 1109,703 1109,703 1110,702 1111,702 1111,702 1112,701 1113,701 1113,700 1114,700 1115,699 1115,699 1116,698 1117,698 1117,697 1118,697 1119,696 1119,695 1120,695 1121,692 1122,691 1122,691 1123,691 1124,690 1124,690 1125,687 1126,686 1126,685 1127,685 1128,684 1128,682 1129,680 1130,680 1130,679 1131,679 1132,678 1132,678 1133,678 1134,678 1134,677 1135,677 1136,674 1136,673 1137,672 1138,672 1139,671 1139,671 1140,670 1141,670 1141,670 1142,669 1143,667 1143,667 1144,666 1145,665 1145,664 1146,663 1147,662 1147,662 1148,661 1149,661 1149,661 1150,660 1151,659 1151,658 1152,658 1153,657 1153,656 1154,656 1155,656 1156,656 1156,656 1157,655 1158,654 1158,653 1159,652 1160,651 1160,651 1161,650 1162,650 1162,649 1163,648 1164,648 1164,648 1164,648 1165,648 1165,647 1166,646 1166,646 1166,646 1167,646 1167,645 1168,644 1168,644 1168,642 1169,642 1169,637 1170,637 1170,636 1170,636 1170,634 1171,634 1171,634 1172,634 1172,633 1173,633 1173,633 1173,633 1173,632 1174,632 1174,631 1175,631 1175,630 1175,629 1176,629 1176,629 1177,628 1177,628 1177,627 1178,627 1178,625 1179,625 1179,624 1179,624 1179,624 1180,624 1180,623 1181,623 1181,623 1181,622 1182,622 1182,621 1183,621 1183,621 1183,621 1183,620 1184,620 1184,619 1185,619 1185,618 1185,618 1185,617 1186,617 1186,616 1187,616 1187,614 1187,614 1187,611 1188,609 1189,609 1189,607 1190,607 "/>
<polyline fill="none" opacity="1" stroke="#E6C819" stroke-width="2" points="870,738 877,738 883,738 886,737 909,737 916,737 932,736 933,736 936,735 938,735 941,735 942,735 943,735 944,735 945,734 945,734 949,734 950,734 951,734 952,734 954,734 955,734 956,734 956,734 957,734 958,734 959,734 960,734 960,734 961,734 962,733 962,733 964,733 965,733 967,733 968,733 969,733 969,733 970,733 971,733 972,733 973,733 974,733 975,733 976,733 977,733 977,733 978,733 979,733 981,733 982,733 983,733 984,733 985,732 986,732 986,732 987,732 988,732 988,731 989,731 990,731 990,731 991,731 992,731 992,731 993,731 994,731 994,731 995,730 996,730 996,730 997,730 998,730 998,730 999,730 1000,730 1000,730 1001,730 1002,730 1003,730 1004,730 1005,730 1005,729 1006,729 1007,729 1007,729 1008,730 1009,730 1009,730 1010,730 1011,729 1012,729 1013,729 1013,729 1014,729 1015,729 1015,729 1017,729 1017,729 1018,729 1019,729 1020,729 1020,729 1021,729 1022,729 1022,729 1023,729 1024,729 1024,729 1025,729 1026,729 1026,729 1027,729 1028,729 1028,729 1029,729 1030,728 1031,728 1032,728 1032,728 1033,728 1034,728 1034,728 1035,728 1036,728 1037,728 1037,727 1038,727 1039,727 1039,727 1040,726 1041,726 1041,726 1042,726 1043,726 1043,726 1044,726 1045,726 1045,726 1046,726 1047,726 1047,726 1048,726 1049,726 1049,726 1050,726 1051,726 1051,726 1052,726 1053,726 1054,726 1055,726 1056,726 1057,726 1058,726 1058,725 1059,725 1060,725 1061,725 1062,725 1062,725 1063,725 1064,725 1064,725 1065,725 1066,725 1067,724 1068,724 1068,724 1068,724 1069,724 1070,724 1071,724 1071,724 1072,724 1073,724 1074,724 1075,724 1075,724 1076,724 1077,724 1077,724 1078,724 1079,724 1079,724 1080,724 1081,724 1081,724 1082,724 1083,724 1083,724 1084,724 1085,724 1085,724 1086,724 1087,724 1088,724 1089,724 1090,724 1090,724 1091,724 1092,724 1092,724 1093,724 1094,724 1094,724 1095,724 1096,724 1096,724 1097,724 1098,724 1098,724 1100,724 1100,724 1101,724 1102,724 1102,724 1103,724 1104,724 1105,724 1105,724 1106,724 1107,724 1107,724 1108,724 1109,724 1109,724 1110,724 1111,724 1111,724 1112,724 1113,724 1114,724 1115,724 1115,724 1116,724 1117,724 1117,724 1118,724 1119,724 1119,724 1120,724 1121,724 1122,724 1122,724 1124,724 1124,724 1125,724 1126,724 1126,724 1127,724 1128,724 1128,724 1129,724 1130,723 1130,723 1131,723 1132,724 1132,723 1133,723 1134,723 1134,723 1135,723 1136,723 1136,723 1137,723 1138,723 1139,723 1139,723 1140,723 1141,723 1141,723 1142,723 1143,723 1143,723 1144,722 1145,722 1145,721 1146,721 1147,721 1147,721 1148,721 1149,721 1149,722 1150,722 1151,721 1151,721 1152,721 1153,721 1153,721 1154,721 1155,721 1156,721 1156,720 1158,720 1158,720 1159,720 1160,720 1160,720 1161,721 1162,721 1162,720 1163,720 1164,720 1164,720 1164,721 1165,721 1165,721 1166,721 1166,721 1166,720 1167,720 1167,721 1168,721 1168,721 1168,721 1169,721 1169,721 1170,721 1170,721 1170,721 1170,721 1171,721 1171,721 1172,721 1172,721 1173,721 1173,721 1173,721 1173,721 1174,721 1174,721 1175,721 1175,720 1175,720 1176,720 1176,720 1177,720 1177,720 1177,720 1178,720 1178,720 1179,720 1179,720 1179,720 1179,720 1180,720 1180,720 1181,720 1181,720 1181,720 1182,720 1182,720 1183,720 1183,720 1183,720 1183,720 1184,720 1184,719 1185,719 1185,719 1185,719 1185,719 1186,719 1186,719 1187,719 1187,719 1187,719 1187,719 1188,719 1189,719 1189,719 1190,719 "/>
<polyline fill="none" opacity="1" stroke="#54E619" stroke-width="2" points="244,738 244,738 250,738 255,738 263,738 263,737 264,737 270,737 282,736 283,736 284,736 289,735 291,735 291,734 293,734 293,734 297,734 298,734 300,733 301,733 303,732 304,732 308,732 310,731 311,731 313,730 314,729 315,728 316,728 320,728 321,727 322,727 323,727 325,726 325,726 326,726 327,726 327,726 328,726 329,726 330,726 331,726 331,726 332,726 333,725 334,725 334,725 335,725 336,724 336,724 337,724 338,724 338,723 339,722 340,722 341,722 342,721 343,721 344,721 348,721 348,720 349,720 350,720 350,719 352,719 353,719 353,719 354,718 355,717 356,716 357,715 358,715 359,714 359,714 360,714 361,714 362,713 363,713 364,713 365,712 365,712 366,711 367,710 367,709 368,708 369,706 370,705 370,705 371,705 372,705 372,705 373,703 374,703 374,703 375,701 376,701 377,701 378,700 378,700 379,700 380,700 380,700 381,699 382,699 382,699 383,699 384,697 384,697 385,697 386,697 387,697 387,697 389,696 389,696 391,696 392,695 393,695 393,695 394,695 395,695 395,695 396,694 397,694 397,694 398,694 399,694 399,693 400,693 401,692 401,692 402,691 403,691 404,691 404,691 405,690 406,689 407,689 408,688 408,687 409,687 410,687 410,687 411,687 412,686 412,686 413,686 414,686 414,686 415,685 416,685 416,685 417,684 418,684 418,683 419,683 420,682 421,682 421,681 422,681 423,681 423,680 424,680 425,680 425,680 426,680 427,679 427,678 428,677 429,676 429,676 430,676 431,676 431,675 432,675 433,674 433,673 434,673 435,672 435,672 436,672 437,672 438,672 438,672 439,671 440,671 440,671 441,671 442,671 442,671 443,671 444,670 444,670 445,669 446,669 446,668 447,668 448,667 448,667 449,667 450,666 450,665 451,665 452,665 452,665 453,665 454,664 455,664 455,664 456,663 457,662 457,661 458,661 459,660 459,660 460,659 461,659 461,658 462,658 463,658 463,657 464,657 465,657 465,656 466,655 467,655 467,653 468,652 469,652 469,652 470,652 471,651 472,649 472,649 473,649 474,649 474,648 475,648 476,648 476,648 477,648 478,647 478,646 479,645 480,645 480,645 481,645 482,645 482,644 483,644 484,644 484,644 485,643 486,643 486,643 487,642 488,641 489,641 489,640 490,639 491,639 491,639 492,638 493,638 493,637 494,637 495,636 495,636 496,635 497,635 497,635 498,634 499,634 499,634 500,634 501,634 501,633 502,633 503,633 503,633 504,632 505,632 506,631 506,631 507,631 508,630 508,629 509,627 510,627 510,627 511,626 512,625 512,624 513,623 514,623 514,623 515,622 516,620 516,620 517,620 518,619 518,619 519,618 520,618 520,618 521,618 522,617 523,617 523,616 524,616 525,616 525,616 526,615 527,615 527,615 528,614 529,614 529,612 530,612 531,612 531,612 532,611 533,610 533,610 534,609 535,609 535,608 536,608 537,607 537,606 538,606 539,605 540,604 540,604 541,603 542,602 542,601 543,601 544,601 544,600 545,599 546,598 546,598 547,598 548,598 548,597 549,597 550,596 550,596 551,596 552,596 552,596 553,596 554,596 554,596 555,596 556,596 557,588 557,588 558,587 559,587 559,586 560,585 561,584 561,584 562,584 563,583 563,583 564,582 565,582 565,582 566,581 567,581 567,580 568,579 569,579 569,578 570,577 571,577 571,577 572,577 573,577 574,577 574,576 575,576 576,576 576,576 577,576 578,576 578,576 579,575 580,575 580,574 581,574 582,574 582,574 583,573 584,573 584,573 585,573 586,572 586,571 587,570 588,569 588,569 589,568 590,568 591,568 591,567 592,566 593,566 593,566 594,566 595,566 595,566 596,565 597,565 597,565 598,564 599,564 599,565 600,564 601,564 601,564 602,563 603,563 603,562 604,562 605,561 605,561 606,560 607,559 608,559 608,559 609,559 610,559 610,559 611,559 612,560 612,559 613,558 614,558 614,557 615,557 616,557 616,557 617,556 618,555 618,554 619,554 620,554 620,554 621,553 622,552 622,551 623,551 624,550 625,550 625,549 626,549 627,550 627,549 628,549 629,549 629,549 630,549 631,548 631,547 632,547 633,547 633,547 634,547 635,547 635,547 636,546 637,545 637,545 638,545 639,546 639,546 640,546 641,546 641,546 642,546 643,547 644,547 644,547 645,546 646,546 646,545 647,545 648,545 648,545 649,545 650,544 650,544 651,544 652,544 652,544 653,544 654,543 654,542 655,542 656,542 656,543 657,542 658,542 658,542 659,542 660,542 661,542 661,542 662,542 663,542 663,543 664,543 665,543 665,545 666,545 667,545 667,545 668,544 669,545 669,544 670,544 671,544 671,543 672,543 673,542 673,542 674,542 675,542 675,542 676,543 677,542 678,542 678,541 679,542 680,542 680,542 681,542 682,542 682,542 683,542 684,541 684,541 685,541 686,540 686,540 687,540 688,540 688,540 689,540 690,540 690,540 691,540 692,540 692,540 693,540 694,540 695,540 695,541 696,541 697,540 697,540 698,540 699,540 699,540 700,540 701,539 701,539 702,540 703,540 703,540 704,539 705,539 705,539 706,539 707,539 707,539 708,538 709,538 709,538 710,538 711,537 712,538 712,538 713,538 714,539 714,538 715,538 716,538 716,538 717,536 718,536 718,536 719,536 720,536 720,536 721,537 722,537 722,537 723,538 724,538 724,538 725,538 726,538 726,538 727,538 728,538 729,537 729,537 730,538 731,537 731,537 732,537 733,537 733,537 734,537 735,537 735,536 736,536 737,536 737,536 738,536 739,536 739,537 740,536 741,536 741,536 742,536 743,536 743,536 744,536 745,536 746,536 746,536 747,536 748,536 748,536 749,536 750,536 750,536 751,536 752,536 752,535 753,535 754,535 754,535 755,535 756,535 756,535 757,534 758,534 758,533 759,533 760,533 760,533 761,534 762,535 763,534 763,534 764,535 765,535 765,535 766,535 767,535 767,535 768,535 769,535 769,535 770,536 771,536 771,535 772,535 773,535 773,535 774,535 775,535 775,535 776,535 777,535 777,535 778,535 779,535 780,535 780,535 781,535 782,535 782,535 783,534 784,534 784,534 785,534 786,534 786,534 787,533 788,534 788,533 789,533 790,533 790,533 791,533 792,533 792,532 793,532 794,532 794,532 795,532 796,533 797,533 797,532 798,532 799,532 799,532 800,532 801,532 801,532 802,532 803,532 803,532 804,532 805,531 805,531 806,531 806,531 807,530 807,530 808,530 809,530 809,530 810,530 811,531 811,531 812,531 813,531 814,530 814,530 815,530 816,530 816,530 817,530 818,530 818,530 819,530 820,530 820,530 821,530 822,530 822,530 823,530 824,530 824,530 825,530 826,530 826,530 827,530 828,530 828,529 829,529 830,529 831,529 831,528 832,528 833,528 833,528 834,528 835,528 835,528 836,529 837,536 837,537 838,537 839,536 839,536 840,536 841,536 841,535 842,536 843,536 843,535 844,535 845,535 845,535 846,535 847,535 848,535 848,535 849,535 850,535 850,535 851,535 852,535 852,535 853,535 854,535 854,535 855,535 856,535 856,535 857,535 858,535 858,535 859,535 860,535 860,535 861,535 862,535 862,536 863,536 864,535 865,535 865,535 866,535 867,536 867,536 868,536 869,536 869,536 870,536 871,535 871,535 872,535 873,536 873,536 874,536 875,537 875,537 876,537 877,536 877,536 878,536 879,536 879,536 880,536 881,536 882,537 882,537 883,537 884,537 884,536 885,536 886,536 886,535 887,535 888,535 888,535 889,535 890,535 890,535 891,535 892,535 892,534 893,534 894,534 894,535 895,535 896,535 896,535 897,535 898,535 899,535 899,535 900,535 901,535 901,536 902,536 903,535 903,535 904,535 905,535 905,535 906,534 907,534 907,534 908,534 909,534 909,534 910,534 911,534 911,534 912,534 913,534 913,534 914,534 915,534 915,535 916,535 917,534 918,534 918,534 919,534 920,534 920,534 921,534 922,535 922,535 923,535 924,535 924,535 925,534 926,534 926,535 927,535 928,535 928,534 929,534 930,534 930,534 931,535 932,534 932,534 933,535 934,535 935,535 935,535 936,535 937,533 937,533 938,533 939,533 939,533 940,533 941,533 941,533 942,533 943,533 943,533 944,533 945,533 945,533 946,533 947,533 947,534 948,534 949,534 949,534 950,534 951,534 952,534 952,534 953,534 954,534 954,534 955,534 956,534 956,534 957,534 958,534 958,534 959,534 960,534 960,534 961,534 962,535 962,534 963,534 964,534 964,534 965,534 966,534 966,535 967,535 968,535 969,534 969,535 970,535 971,535 971,534 972,534 973,533 973,533 974,533 975,532 975,532 976,533 977,533 977,533 978,533 979,533 979,533 980,532 981,532 981,533 982,533 983,533 983,533 984,533 985,534 986,534 986,533 987,533 988,533 988,533 989,533 990,533 990,533 991,534 992,534 992,534 993,533 994,533 994,533 995,533 996,533 996,533 997,533 998,533 998,533 999,533 1000,533 1000,533 1001,533 1002,533 1003,532 1003,532 1004,532 1005,532 1005,532 1006,532 1007,532 1007,532 1008,532 1009,532 1009,532 1010,532 1011,532 1011,532 1012,532 1013,532 1013,532 1014,532 1015,531 1015,531 1016,531 1017,531 1017,531 1018,531 1019,531 1020,531 1020,530 1021,530 1022,530 1022,530 1023,530 1024,530 1024,531 1025,531 1026,531 1026,531 1027,531 1028,531 1028,531 1029,531 1030,531 1030,531 1031,531 1032,531 1032,531 1033,531 1034,531 1034,531 1035,531 1036,531 1037,531 1037,531 1038,531 1039,531 1039,531 1040,531 1041,531 1041,531 1042,531 1043,531 1043,531 1044,531 1045,531 1045,531 1046,531 1047,531 1047,531 1048,531 1049,531 1049,531 1050,531 1051,531 1051,531 1052,529 1053,529 1054,529 1054,529 1055,529 1056,529 1056,529 1057,529 1058,529 1058,529 1059,529 1060,529 1060,529 1061,529 1062,529 1062,529 1063,529 1064,528 1064,528 1065,528 1066,528 1066,528 1067,529 1068,529 1068,529 1068,529 1069,529 1070,529 1071,529 1071,529 1072,529 1073,529 1073,529 1074,529 1075,529 1075,529 1076,529 1077,529 1077,529 1078,529 1079,529 1079,529 1080,529 1081,529 1081,529 1082,528 1083,528 1083,528 1084,527 1085,527 1085,527 1086,527 1087,527 1088,526 1088,526 1089,527 1090,527 1090,528 1091,528 1092,528 1092,528 1093,527 1094,527 1094,528 1095,528 1096,528 1096,528 1097,528 1098,528 1098,528 1099,528 1100,528 1100,528 1101,528 1102,528 1102,528 1103,528 1104,528 1105,528 1105,528 1106,528 1107,528 1107,528 1108,528 1109,528 1109,528 1110,528 1111,528 1111,528 1112,528 1113,528 1113,528 1114,528 1115,528 1115,528 1116,527 1117,527 1117,527 1118,527 1119,527 1119,527 1120,527 1121,527 1122,527 1122,527 1123,527 1124,527 1124,527 1125,527 1126,528 1126,528 1127,528 1128,528 1128,528 1129,528 1130,528 1130,529 1131,529 1132,529 1132,529 1133,530 1134,530 1134,529 1135,530 1136,530 1136,530 1137,530 1138,530 1139,530 1139,530 1140,530 1141,530 1141,530 1142,530 1143,530 1143,530 1144,530 1145,530 1145,530 1146,530 1147,529 1147,528 1148,528 1149,528 1149,528 1150,528 1151,528 1151,528 1152,528 1153,528 1153,529 1154,529 1155,529 1156,528 1156,528 1157,528 1158,528 1158,528 1159,527 1160,527 1160,527 1161,527 1162,527 1162,527 1163,527 1164,527 1164,527 1164,527 1165,527 1165,527 1166,528 1166,528 1166,528 1167,528 1167,528 1168,528 1168,528 1168,528 1169,528 1169,528 1170,528 1170,528 1170,528 1170,528 1171,528 1171,528 1172,528 1172,528 1173,528 1173,528 1173,528 1173,528 1174,528 1174,528 1175,528 1175,529 1175,529 1176,529 1176,529 1177,529 1177,529 1177,529 1178,529 1178,529 1179,529 1179,530 1179,530 1179,530 1180,530 1180,530 1181,530 1181,529 1181,529 1182,529 1182,529 1183,529 1183,529 1183,529 1183,529 1184,529 1184,529 1185,529 1185,529 1185,529 1185,529 1186,529 1186,529 1187,529 1187,529 1187,529 1187,530 1188,530 1189,530 1189,530 1190,530 "/>
<polyline fill="none" opacity="1" stroke="#19E68E" stroke-width="2" points="593,738 594,738 595,738 596,737 597,736 597,736 599,736 599,735 600,734 601,733 601,733 602,732 603,731 603,731 604,731 605,730 605,729 606,729 609,729 610,728 610,727 611,726 612,726 612,725 613,724 616,724 616,722 617,722 618,722 619,721 620,721 621,720 622,719 622,719 623,718 624,718 625,717 625,717 626,717 627,716 628,715 629,713 629,713 630,712 631,712 631,712 632,711 633,711 633,710 634,709 635,709 635,709 636,709 637,709 637,707 638,707 639,707 639,706 640,705 641,705 641,704 642,703 643,702 644,701 644,700 645,700 646,699 646,698 647,698 648,697 648,697 649,696 650,694 650,693 651,693 652,693 652,693 653,693 654,693 654,692 655,692 656,692 656,691 657,689 658,689 658,688 659,687 660,685 661,684 661,683 662,683 663,681 663,679 664,677 665,677 665,677 666,677 667,674 667,673 668,671 669,670 669,670 670,670 671,668 671,668 672,667 673,667 673,667 674,666 675,666 675,665 676,663 677,663 678,662 678,662 679,661 680,661 680,660 681,659 682,659 682,658 683,658 684,657 684,656 685,656 686,655 686,654 687,653 688,652 688,651 689,651 690,649 690,649 691,647 692,644 692,643 693,642 694,641 695,639 695,638 696,637 697,637 697,636 698,635 699,635 699,634 700,633 701,631 701,629 702,628 703,627 703,626 704,625 705,624 705,623 706,622 707,620 707,619 708,620 709,619 709,618 710,617 711,616 712,615 712,614 713,613 714,612 714,609 715,609 716,608 716,607 717,607 718,606 718,606 719,605 720,605 720,604 721,601 722,601 722,601 723,597 724,595 724,594 725,593 726,592 726,591 727,591 728,591 729,590 729,590 730,589 731,588 731,587 732,587 733,586 734,586 735,585 735,585 736,584 737,583 737,582 738,580 739,579 739,576 740,576 741,574 741,573 742,573 743,573 743,573 744,573 745,571 746,571 746,570 747,569 748,568 748,568 749,567 750,566 750,566 751,566 752,564 752,564 753,564 754,563 754,562 755,560 756,560 756,560 757,559 758,558 758,558 759,558 760,557 760,556 761,553 762,552 763,552 763,551 764,550 765,549 765,549 766,548 767,548 767,547 768,546 769,546 769,544 770,543 771,542 771,541 772,541 773,540 773,539 774,539 775,539 775,538 776,537 777,537 777,536 778,534 779,534 780,532 780,530 781,530 782,528 782,528 783,527 784,526 784,525 785,524 786,524 786,523 787,523 788,522 788,522 789,521 790,520 790,519 791,517 792,516 792,516 793,515 794,515 794,513 795,511 796,511 797,511 797,510 798,509 799,509 799,507 800,506 801,505 801,504 802,503 803,501 803,500 804,499 805,498 805,497 806,497 806,495 807,494 807,494 808,493 809,491 809,490 810,487 811,484 811,483 812,481 813,481 814,480 814,479 815,479 816,478 816,478 817,476 818,476 818,475 819,475 820,474 820,474 821,473 822,472 822,471 823,470 824,467 824,467 825,466 826,464 826,464 827,464 828,463 828,461 829,459 830,458 831,457 831,456 832,456 833,456 833,455 834,453 835,454 835,453 836,451 837,438 837,437 838,437 839,437 839,435 840,435 841,434 841,434 842,433 843,431 843,430 844,429 845,429 845,426 846,426 847,424 848,424 848,423 849,421 850,421 850,421 851,421 852,419 852,417 853,416 854,413 854,411 855,408 856,407 856,406 857,405 858,404 858,402 859,401 860,401 860,401 861,399 862,397 862,395 863,394 864,393 865,392 865,391 866,389 867,388 867,388 868,388 869,387 869,385 870,385 871,384 871,383 872,382 873,380 873,378 874,378 875,377 875,375 876,372 877,370 877,371 878,370 879,370 879,369 880,368 881,367 882,365 882,364 883,364 884,362 884,361 885,361 886,361 886,360 887,360 888,357 888,356 889,356 890,354 890,353 891,352 892,351 892,351 893,351 894,350 894,349 895,348 896,347 896,346 897,346 898,346 899,341 899,341 900,340 901,339 901,336 902,336 903,335 903,334 904,334 905,334 905,333 906,333 907,331 907,331 908,331 909,331 909,329 910,329 911,328 911,326 912,324 913,323 913,322 914,320 915,319 915,320 916,318 917,317 918,315 918,313 919,311 920,311 920,310 921,310 922,308 922,308 923,306 924,306 924,305 925,304 926,303 926,303 927,301 928,300 928,300 929,300 930,299 930,299 931,296 932,296 932,294 933,293 934,293 935,291 935,289 936,288 937,288 937,287 938,286 939,286 939,286 940,284 941,283 941,281 942,279 943,278 943,278 944,277 945,277 945,277 946,276 947,275 947,274 948,273 949,272 949,271 950,271 951,270 952,269 952,268 953,267 954,267 954,265 955,264 956,263 956,262 957,262 958,261 958,260 959,259 960,258 960,258 961,258 962,257 962,257 963,257 964,256 964,255 965,253 966,253 966,251 967,250 968,251 969,251 969,245 970,244 971,244 971,244 972,243 973,242 973,241 974,241 975,240 975,239 976,239 977,238 977,239 978,240 979,239 979,238 980,237 981,236 981,236 982,235 983,234 983,232 984,232 985,230 986,230 986,228 987,227 988,224 988,223 989,223 990,223 990,221 991,219 992,218 992,218 993,215 994,214 994,214 995,213 996,212 996,211 997,209 998,206 998,205 999,205 1000,205 1000,204 1001,203 1002,203 1003,201 1003,201 1004,200 1005,200 1005,200 1006,199 1007,199 1007,198 1008,198 1009,195 1009,195 1010,193 1011,194 1011,192 1012,189 1013,189 1013,189 1014,188 1015,187 1015,187 1016,186 1017,185 1017,185 1018,185 1019,184 1020,183 1020,182 1021,181 1022,180 1022,180 1023,179 1024,179 1024,177 1025,175 1026,174 1026,173 1027,173 1028,172 1028,171 1029,170 1030,167 1030,166 1031,166 1032,166 1032,166 1033,165 1034,165 1034,165 1035,165 1036,164 1037,163 1037,162 1038,161 1039,161 1039,160 1040,159 1041,158 1041,159 1042,159 1043,157 1043,156 1044,155 1045,153 1045,153 1046,153 1047,153 1047,152 1048,151 1049,150 1049,148 1050,148 1051,147 1051,146 1052,146 1053,145 1054,144 1054,143 1055,143 1056,142 1056,142 1057,142 1058,140 1058,141 1059,140 1060,139 1060,138 1061,139 1062,140 1062,138 1063,137 1064,137 1064,135 1065,133 1066,133 1066,132 1067,132 1068,131 1068,131 1068,131 1069,130 1070,132 1071,132 1071,132 1072,132 1073,132 1073,131 1074,130 1075,130 1075,130 1076,129 1077,128 1077,130 1078,130 1079,129 1079,129 1080,133 1081,134 1081,133 1082,135 1083,138 1083,137 1084,137 1085,137 1085,137 1086,136 1087,136 1088,137 1088,139 1089,139 1090,140 1090,140 1091,141 1092,137 1092,137 1093,137 1094,137 1094,136 1095,136 1096,136 1096,135 1097,134 1098,132 1098,131 1099,130 1100,130 1100,129 1101,127 1102,127 1102,127 1103,126 1104,125 1105,124 1105,123 1106,124 1107,123 1107,122 1108,121 1109,121 1109,121 1110,121 1111,121 1111,121 1112,120 1113,119 1113,120 1114,119 1115,114 1115,113 1116,113 1117,113 1117,113 1118,112 1119,112 1119,112 1120,107 1121,105 1122,105 1122,104 1123,104 1124,102 1124,102 1125,102 1126,103 1126,103 1127,101 1128,100 1128,100 1129,100 1130,102 1130,101 1131,101 1132,101 1132,100 1133,99 1134,98 1134,99 1135,101 1136,103 1136,103 1137,102 1138,101 1139,100 1139,100 1140,100 1141,99 1141,99 1142,98 1143,98 1143,98 1144,97 1145,97 1145,94 1146,94 1147,95 1147,94 1148,94 1149,94 1149,91 1150,92 1151,93 1151,93 1152,91 1153,90 1153,89 1154,88 1155,88 1156,89 1156,89 1157,87 1158,87 1158,87 1159,87 1160,86 1160,86 1161,86 1162,86 1162,86 1163,82 1164,82 1164,81 1164,82 1165,82 1165,81 1166,81 1166,81 1166,81 1167,81 1167,81 1168,81 1168,81 1168,82 1169,82 1169,87 1170,87 1170,87 1170,87 1170,87 1171,87 1171,88 1172,88 1172,88 1173,88 1173,88 1173,88 1173,88 1174,88 1174,87 1175,87 1175,87 1175,87 1176,87 1176,86 1177,86 1177,86 1177,85 1178,85 1178,82 1179,82 1179,82 1179,82 1179,82 1180,82 1180,81 1181,81 1181,80 1181,80 1182,80 1182,79 1183,79 1183,78 1183,78 1183,78 1184,78 1184,77 1185,77 1185,76 1185,76 1185,76 1186,76 1186,76 1187,76 1187,75 1187,75 1187,75 1188,76 1189,76 1189,76 1190,76 "/>
<polyline fill="none" opacity="1" stroke="#198EE6" stroke-width="2" points="60,738 60,738 64,738 75,738 85,737 93,737 94,737 99,737 100,736 102,736 106,736 111,736 112,735 119,735 125,735 126,735 129,734 135,734 139,734 141,734 148,733 149,733 149,733 150,733 151,733 151,733 153,733 153,733 154,733 155,733 156,733 157,733 158,733 159,733 161,733 161,733 162,732 163,732 164,732 164,732 165,732 166,732 167,732 168,732 168,732 169,732 170,732 170,732 171,732 172,732 172,732 173,732 174,732 174,732 176,732 176,732 177,732 178,732 178,732 181,732 182,732 183,731 183,731 184,731 185,731 185,731 186,731 187,731 187,731 188,731 189,731 190,731 191,731 192,731 193,730 193,730 194,730 195,730 195,730 197,730 198,730 198,730 199,730 200,730 201,730 202,729 202,729 203,729 204,729 204,729 205,729 206,729 206,729 207,729 208,729 209,729 210,729 211,729 212,728 213,728 214,728 215,728 217,728 217,728 218,728 219,728 220,728 221,728 221,728 222,727 223,727 223,727 224,727 225,727 226,727 227,727 229,727 229,727 230,727 231,727 232,727 232,726 233,726 234,726 234,726 235,726 236,726 236,726 238,726 238,726 239,726 240,726 240,725 241,725 242,725 242,725 243,725 244,725 244,725 245,725 246,725 246,725 247,725 249,724 249,724 250,724 251,724 251,724 252,724 253,724 254,724 255,724 257,724 257,724 258,724 259,724 259,724 260,724 261,723 262,723 263,723 263,723 264,723 265,723 266,723 268,723 269,723 270,723 270,723 271,723 272,722 272,722 273,722 274,722 274,722 276,722 277,722 278,722 278,722 279,722 280,722 280,722 282,722 283,722 283,722 284,722 285,722 286,722 287,722 287,722 288,721 290,721 291,721 291,721 293,721 293,720 294,720 295,720 295,720 296,720 297,720 297,720 298,720 299,720 300,720 300,720 302,720 302,720 303,720 304,720 304,720 305,720 306,720 306,720 307,720 308,720 308,720 309,720 310,720 310,719 311,719 312,719 312,719 313,719 314,719 314,719 315,719 316,719 317,719 317,719 318,719 319,719 319,719 320,719 321,719 321,719 322,719 323,718 323,718 324,718 325,718 326,718 327,718 327,718 329,718 329,718 330,718 331,718 332,717 333,717 334,717 334,717 335,717 336,717 337,717 338,717 338,716 339,716 340,716 340,716 341,716 342,716 343,716 344,716 344,715 345,715 346,715 346,715 347,715 348,715 348,715 349,715 350,715 350,715 351,715 352,715 353,715 353,715 354,715 355,715 355,715 357,715 357,715 358,715 359,715 359,715 360,714 361,714 362,714 363,714 363,714 364,714 365,714 365,714 366,714 367,714 367,714 368,714 369,714 370,713 370,713 371,713 372,713 372,713 373,712 374,712 374,712 375,712 376,712 376,712 377,712 378,712 378,712 379,712 380,712 380,712 381,712 382,712 382,712 383,711 384,711 384,711 385,711 387,711 387,711 388,710 389,710 389,710 390,710 391,710 391,710 392,709 393,709 393,709 394,709 395,709 395,709 396,709 397,709 397,709 398,708 399,708 399,708 400,709 401,708 401,708 402,708 403,708 404,708 404,708 405,708 406,708 406,708 407,708 408,707 408,707 409,707 410,707 410,707 411,707 412,707 412,707 413,707 414,707 414,707 415,707 416,706 416,706 417,706 418,706 419,706 420,706 421,706 421,706 422,706 423,706 424,705 425,705 425,705 426,705 427,705 427,705 428,705 429,705 429,705 430,705 431,705 431,705 432,705 433,705 433,705 434,705 435,705 435,705 436,705 437,705 438,705 438,705 439,705 440,705 440,704 441,704 442,704 442,704 443,704 444,704 444,704 445,704 446,704 446,704 447,704 448,704 448,704 449,704 450,704 450,704 451,704 452,704 452,703 453,703 454,703 455,703 455,703 456,703 457,703 457,703 458,703 459,703 459,703 460,702 461,702 461,702 462,702 463,702 463,702 464,702 465,702 465,702 466,702 467,702 467,702 468,702 469,702 469,702 470,702 471,702 472,702 472,701 473,701 474,701 474,701 475,701 476,701 476,701 477,701 478,701 478,700 479,700 480,700 480,700 481,700 482,700 482,700 483,700 484,699 484,699 485,699 486,699 486,699 487,698 488,698 489,698 489,698 490,698 491,698 491,698 492,698 493,698 493,698 494,698 495,698 495,698 497,698 497,698 498,698 499,698 499,698 500,698 501,698 501,698 502,698 503,698 503,698 504,698 505,698 506,698 506,698 507,698 508,698 508,698 509,698 510,698 510,698 511,698 512,698 512,698 513,698 514,698 514,698 515,697 516,697 516,697 517,697 518,697 518,697 519,697 520,696 520,696 521,696 522,696 523,696 523,696 524,696 525,696 525,696 526,696 527,696 527,696 528,696 529,696 529,696 530,696 531,695 531,695 532,695 533,695 533,695 534,695 535,695 535,695 536,695 537,695 537,695 538,695 539,695 540,695 540,695 541,695 542,695 542,695 543,695 544,695 544,695 545,695 546,695 546,695 547,695 548,695 548,695 549,695 550,695 550,695 551,695 552,695 552,695 553,695 554,695 554,695 555,695 556,695 557,695 557,694 558,694 559,694 559,694 561,694 561,693 562,693 563,693 563,693 564,693 565,693 565,693 566,693 567,693 567,693 568,693 569,693 570,693 571,693 571,693 572,692 573,692 574,692 574,692 575,692 576,692 576,692 577,692 578,692 578,691 579,691 580,691 580,691 581,691 582,691 582,691 583,691 584,691 584,691 585,691 586,691 586,691 587,691 588,690 588,690 589,690 590,690 591,690 591,690 592,690 593,690 593,690 594,690 595,690 595,690 596,690 597,690 597,690 598,689 599,689 599,689 600,689 601,689 601,689 602,689 603,690 603,690 604,690 605,690 605,690 606,690 607,690 608,690 608,690 609,690 610,690 610,690 611,690 612,690 612,689 613,689 614,689 614,690 615,690 616,690 616,690 617,690 618,690 618,690 619,690 620,690 620,690 622,690 622,690 623,690 624,690 625,690 625,690 626,690 627,690 627,690 628,690 629,690 630,690 631,690 631,690 632,690 633,690 633,690 634,689 635,689 636,689 637,689 637,689 638,689 639,689 639,689 640,689 641,689 641,689 642,689 643,689 644,689 644,689 645,689 646,689 646,688 647,688 648,688 648,688 649,688 650,688 650,687 651,687 652,687 652,687 653,687 654,687 654,687 655,687 656,687 656,687 657,687 658,686 658,686 659,686 660,686 661,686 661,686 662,685 663,685 663,685 664,685 665,685 665,685 666,684 667,684 667,684 668,684 669,684 669,684 670,684 671,684 671,684 672,684 673,684 673,684 674,684 675,685 675,685 676,685 677,685 678,684 678,684 679,684 680,684 680,684 681,684 682,684 682,684 683,684 684,684 684,684 685,684 686,684 686,684 687,684 688,684 688,683 689,683 690,683 690,683 691,683 692,683 692,683 693,683 694,683 695,683 695,683 696,683 697,683 697,683 698,683 699,682 699,682 700,682 701,682 701,682 702,682 703,682 703,681 704,681 705,681 705,681 706,681 707,681 707,681 708,681 709,681 709,681 710,681 711,681 712,681 712,681 713,681 714,682 714,682 715,682 716,682 716,682 717,682 718,681 718,681 719,681 720,681 720,682 721,681 722,681 722,681 723,681 724,681 724,681 725,681 726,681 726,681 727,681 728,681 729,681 729,681 730,681 731,681 731,681 732,681 733,681 733,681 734,681 735,681 735,681 736,681 737,681 737,681 738,681 739,680 739,680 740,680 741,680 741,680 742,680 743,680 743,680 744,680 745,680 746,680 746,680 747,680 748,680 748,680 749,680 750,680 750,680 751,680 752,680 752,680 753,679 754,679 755,679 756,679 756,679 757,679 758,679 758,679 759,679 760,679 760,679 761,679 762,679 763,679 763,679 764,679 765,679 765,679 766,679 767,679 767,679 768,679 769,679 769,679 770,679 771,679 771,679 772,679 773,678 773,678 774,678 775,678 775,678 776,678 777,678 777,678 778,678 779,678 780,678 780,678 781,678 782,678 782,678 783,678 784,678 784,678 785,678 786,678 786,678 787,678 788,678 788,678 789,678 790,678 790,678 791,678 792,678 792,678 793,677 794,677 794,677 795,677 796,677 797,677 797,677 798,677 799,677 799,677 800,677 801,677 801,677 802,677 803,677 803,677 804,677 805,677 805,677 806,677 806,677 807,677 807,677 808,677 809,677 809,677 810,677 811,677 811,677 812,677 813,677 814,677 814,677 815,677 816,677 816,677 817,677 818,677 818,677 819,677 820,677 820,677 821,677 822,677 822,677 823,677 824,677 824,677 825,677 826,677 826,677 827,677 828,677 828,677 829,677 830,677 831,677 831,677 832,677 833,677 833,677 834,677 835,677 835,677 836,676 837,676 837,676 838,676 839,676 839,676 840,676 841,676 841,676 842,676 843,676 843,676 844,676 845,676 845,676 846,676 847,676 848,676 848,676 849,676 850,676 850,676 851,676 852,676 852,676 853,676 854,676 854,676 855,676 856,676 856,676 857,676 858,676 858,676 859,676 860,676 860,676 861,676 862,676 862,676 863,676 864,676 865,676 865,676 866,676 867,676 867,676 868,676 869,676 869,676 870,676 871,676 871,676 872,676 873,675 873,675 874,675 875,675 875,675 876,675 877,675 877,675 878,675 879,675 879,675 880,675 881,675 882,675 882,675 883,675 884,675 884,675 885,675 886,675 886,675 887,675 888,676 888,676 889,676 890,676 890,676 891,676 892,676 892,676 893,676 894,676 894,676 895,676 896,676 896,676 897,676 898,676 899,676 899,676 900,676 901,676 901,676 902,675 903,675 903,675 904,676 905,676 905,676 906,676 907,676 907,676 908,676 909,676 909,676 910,675 911,675 911,675 912,675 913,675 913,675 914,675 915,675 915,675 916,674 917,674 918,674 918,674 919,673 920,673 920,673 921,672 922,672 922,672 923,672 924,672 924,672 925,672 926,672 926,672 927,672 928,672 928,672 929,672 930,672 930,672 931,672 932,672 932,672 933,672 934,672 935,672 935,672 936,672 937,672 937,672 938,672 939,672 939,672 940,672 941,672 941,672 942,672 943,672 943,672 944,672 945,672 945,672 946,672 947,672 947,672 948,672 949,672 949,672 950,672 951,672 952,672 952,672 953,672 954,672 954,672 955,671 956,671 956,671 957,671 958,671 958,671 959,670 960,670 960,670 961,670 962,670 962,670 963,670 964,670 964,670 965,670 966,669 966,669 967,669 968,669 969,669 969,669 970,669 971,669 971,669 972,669 973,669 973,669 974,669 975,669 975,669 976,669 977,669 977,669 978,669 979,669 979,669 980,669 981,669 981,669 982,669 983,669 983,669 984,669 985,669 986,669 986,669 987,669 988,669 988,669 989,669 990,669 990,669 991,669 992,669 992,669 993,669 994,669 994,669 995,669 996,669 996,669 997,669 998,669 998,669 999,669 1000,669 1000,667 1001,667 1002,667 1003,667 1003,667 1004,666 1005,666 1005,666 1006,666 1007,666 1007,665 1008,665 1009,665 1009,665 1010,665 1011,665 1011,665 1012,664 1013,664 1013,664 1014,664 1015,664 1015,664 1016,664 1017,664 1017,664 1018,664 1019,664 1020,664 1020,664 1021,664 1022,664 1022,664 1023,664 1024,663 1024,663 1025,663 1026,663 1026,663 1027,663 1028,663 1028,663 1029,663 1030,663 1030,663 1031,663 1032,663 1032,663 1033,663 1034,663 1034,663 1035,663 1036,663 1037,662 1037,662 1038,662 1039,662 1039,662 1040,662 1041,662 1041,662 1042,662 1043,662 1043,662 1044,662 1045,662 1045,662 1046,662 1047,662 1047,662 1048,662 1049,662 1049,662 1050,662 1051,662 1051,662 1052,662 1053,662 1054,662 1054,662 1055,662 1056,662 1056,662 1057,662 1058,662 1058,662 1059,662 1060,662 1060,662 1061,662 1062,662 1062,663 1063,663 1064,663 1064,663 1065,663 1066,663 1066,663 1067,663 1068,663 1068,663 1068,663 1069,662 1070,662 1071,662 1071,662 1072,662 1073,662 1073,662 1074,662 1075,662 1075,662 1076,662 1077,662 1077,662 1078,662 1079,662 1079,662 1080,662 1081,662 1081,662 1082,662 1083,662 1083,662 1084,662 1085,662 1085,662 1086,662 1087,662 1088,662 1088,662 1089,662 1090,662 1090,662 1091,662 1092,662 1092,662 1093,662 1094,662 1094,662 1095,662 1096,662 1096,662 1097,662 1098,662 1098,662 1099,662 1100,662 1100,662 1101,662 1102,662 1102,662 1103,662 1104,662 1105,662 1105,662 1106,662 1107,662 1107,662 1108,662 1109,662 1109,662 1110,662 1111,662 1111,662 1112,662 1113,662 1113,662 1114,662 1115,662 1115,662 1116,662 1117,662 1117,662 1118,662 1119,662 1119,662 1120,662 1121,662 1122,662 1122,662 1123,662 1124,662 1124,662 1125,662 1126,662 1126,662 1127,662 1128,662 1128,662 1129,662 1130,662 1130,662 1131,662 1132,662 1132,662 1133,662 1134,662 1134,662 1135,662 1136,662 1136,662 1137,662 1138,662 1139,662 1139,662 1140,662 1141,662 1141,662 1142,662 1143,662 1143,662 1144,662 1145,662 1145,662 1146,662 1147,662 1147,662 1148,662 1149,662 1149,662 1150,662 1151,662 1151,662 1152,662 1153,662 1153,662 1154,662 1155,662 1156,662 1156,662 1157,662 1158,662 1158,662 1159,662 1160,662 1160,662 1161,662 1162,662 1162,662 1163,662 1164,662 1164,662 1164,662 1165,662 1165,662 1166,662 1166,662 1166,662 1167,662 1167,662 1168,662 1168,662 1168,662 1169,662 1169,662 1170,662 1170,662 1170,662 1170,662 1171,662 1171,662 1172,662 1172,662 1173,662 1173,662 1173,662 1173,662 1174,662 1174,662 1175,662 1175,662 1175,662 1176,662 1177,662 1177,662 1177,662 1178,662 1178,662 1179,662 1179,662 1179,662 1179,662 1180,662 1180,662 1181,662 1181,662 1181,662 1182,662 1182,662 1183,662 1183,662 1183,662 1183,662 1184,662 1184,662 1185,662 1185,662 1185,662 1185,662 1186,662 1186,662 1187,662 1187,662 1187,662 1187,662 1188,662 1189,662 1189,662 1190,662 "/>
<polyline fill="none" opacity="1" stroke="#5419E6" stroke-width="2" points="957,738 958,738 962,738 969,737 971,737 974,737 977,736 977,736 978,734 979,733 981,733 982,733 988,733 989,733 990,733 991,733 992,733 1000,733 1005,732 1005,732 1007,731 1009,731 1012,731 1013,730 1014,729 1015,729 1015,729 1016,729 1019,729 1020,729 1020,729 1023,729 1024,728 1024,728 1025,727 1028,727 1029,727 1030,727 1030,726 1032,726 1034,726 1034,726 1035,726 1036,726 1039,726 1041,726 1041,725 1043,725 1043,725 1044,725 1045,725 1046,724 1047,724 1047,724 1049,724 1050,724 1051,724 1051,724 1053,724 1054,724 1054,724 1055,723 1056,723 1056,723 1057,723 1058,723 1058,723 1059,723 1060,723 1061,723 1062,723 1062,723 1063,723 1064,723 1064,722 1066,723 1067,723 1068,723 1068,723 1068,723 1069,722 1070,722 1071,722 1071,722 1072,721 1073,721 1073,720 1075,720 1075,719 1077,719 1077,719 1078,719 1079,719 1079,719 1080,719 1081,719 1083,718 1083,718 1084,717 1085,717 1085,717 1086,716 1087,716 1088,716 1089,715 1090,715 1090,715 1091,715 1092,715 1092,714 1093,714 1094,714 1095,714 1096,714 1098,714 1098,714 1099,714 1100,714 1102,714 1102,714 1103,714 1104,714 1105,714 1107,714 1108,714 1109,713 1111,713 1111,713 1112,713 1113,713 1113,713 1114,712 1115,712 1115,712 1116,712 1117,712 1117,712 1118,711 1119,711 1119,711 1120,711 1121,711 1122,711 1122,710 1123,710 1124,711 1124,711 1125,710 1126,710 1126,710 1127,710 1128,710 1128,710 1130,710 1130,710 1131,710 1132,709 1132,709 1133,709 1134,709 1134,708 1135,708 1136,708 1137,708 1138,708 1139,708 1139,708 1140,708 1141,708 1141,708 1142,707 1143,707 1143,707 1144,707 1145,707 1145,707 1146,707 1147,706 1147,706 1148,706 1149,706 1149,706 1150,706 1151,706 1151,706 1152,706 1153,706 1153,705 1154,705 1155,705 1156,705 1156,705 1157,705 1158,705 1159,705 1160,705 1160,705 1161,705 1162,705 1162,705 1163,705 1164,705 1164,705 1164,705 1165,705 1165,705 1166,705 1166,705 1166,705 1167,705 1167,705 1168,705 1168,705 1168,705 1169,705 1169,705 1170,705 1170,705 1170,705 1170,704 1171,704 1171,704 1172,704 1172,704 1173,704 1173,704 1173,704 1173,704 1174,704 1174,704 1175,704 1175,704 1175,704 1176,704 1176,703 1177,703 1177,703 1177,703 1178,703 1178,703 1179,703 1179,703 1179,703 1179,702 1180,702 1180,703 1181,703 1181,703 1181,702 1182,702 1182,702 1183,702 1183,702 1183,702 1183,702 1184,702 1184,702 1185,702 1185,702 1185,702 1185,702 1186,702 1186,702 1187,702 1187,702 1187,702 1187,702 1189,702 1189,702 1190,702 "/>
<polyline fill="none" opacity="1" stroke="#E619C8" stroke-width="2" points="1063,738 1064,737 1064,737 1065,737 1066,736 1067,735 1068,735 1068,735 1068,735 1069,735 1070,735 1071,734 1071,734 1072,734 1073,734 1073,734 1074,734 1075,733 1075,733 1076,732 1077,732 1077,731 1079,731 1079,730 1080,729 1081,728 1081,728 1082,727 1083,726 1083,725 1084,725 1085,724 1085,724 1086,724 1087,724 1088,724 1088,721 1089,719 1090,719 1090,718 1091,717 1092,717 1092,717 1093,717 1094,717 1094,716 1095,716 1096,715 1096,715 1097,715 1098,715 1098,714 1099,714 1100,714 1100,714 1101,714 1102,713 1102,712 1103,713 1104,712 1105,711 1105,710 1106,710 1107,709 1107,707 1108,707 1109,707 1109,707 1110,707 1111,706 1111,706 1112,704 1113,703 1113,703 1114,700 1115,700 1115,700 1116,699 1117,698 1117,698 1118,698 1119,697 1119,697 1120,696 1121,695 1122,695 1122,694 1123,693 1124,691 1124,690 1125,689 1126,689 1126,687 1127,687 1128,686 1128,686 1129,686 1130,683 1130,682 1131,681 1132,680 1132,679 1133,679 1134,679 1134,679 1135,678 1136,676 1136,674 1137,674 1138,673 1139,672 1139,671 1140,670 1141,670 1141,669 1142,669 1143,669 1143,668 1144,667 1145,667 1145,666 1146,666 1147,665 1147,665 1148,665 1149,664 1149,663 1150,662 1151,662 1151,661 1152,661 1153,660 1153,658 1154,658 1155,657 1156,656 1156,656 1157,656 1158,654 1158,654 1159,653 1160,653 1160,652 1161,650 1162,648 1162,647 1163,646 1164,646 1164,646 1164,645 1165,645 1165,645 1166,644 1166,644 1166,642 1167,642 1167,642 1168,641 1168,641 1168,639 1169,639 1169,636 1170,636 1170,635 1170,635 1170,634 1171,634 1171,633 1172,633 1172,632 1173,632 1173,631 1173,631 1173,631 1174,631 1174,630 1175,630 1175,629 1175,627 1176,627 1176,626 1177,626 1177,626 1177,625 1178,625 1178,624 1179,624 1179,624 1179,624 1179,624 1180,624 1180,623 1181,623 1181,622 1181,621 1182,621 1182,621 1183,621 1183,620 1183,620 1183,619 1184,619 1184,618 1185,618 1185,617 1185,617 1185,616 1186,616 1186,615 1187,615 1187,612 1187,612 1187,611 1188,607 1189,607 1189,606 1190,606 "/>
<rect x="1078" y="315" width="107" height="119" opacity="1" fill="#FFFFFF" stroke="none"/>
<rect x="1078" y="315" width="107" height="119" opacity="1" fill="none" stroke="#000000"/>
<text x="1118" y="325" dy="0.76em" text-anchor="start" font-family="sans-serif" font-size="9.67741935483871" opacity="1" fill="#000000">
anyhow
</text>
<text x="1118" y="340" dy="0.76em" text-anchor="start" font-family="sans-serif" font-size="9.67741935483871" opacity="1" fill="#000000">
err-derive
</text>
<text x="1118" y="355" dy="0.76em" text-anchor="start" font-family="sans-serif" font-size="9.67741935483871" opacity="1" fill="#000000">
error-chain
</text>
<text x="1118" y="370" dy="0.76em" text-anchor="start" font-family="sans-serif" font-size="9.67741935483871" opacity="1" fill="#000000">
failure
</text>
<text x="1118" y="385" dy="0.76em" text-anchor="start" font-family="sans-serif" font-size="9.67741935483871" opacity="1" fill="#000000">
quick-error
</text>
<text x="1118" y="400" dy="0.76em" text-anchor="start" font-family="sans-serif" font-size="9.67741935483871" opacity="1" fill="#000000">
snafu
</text>
<text x="1118" y="415" dy="0.76em" text-anchor="start" font-family="sans-serif" font-size="9.67741935483871" opacity="1" fill="#000000">
thiserror
</text>
<polyline fill="none" opacity="1" stroke="#E61919" stroke-width="2" points="1088,330 1108,330 "/>
<polyline fill="none" opacity="1" stroke="#E6C819" stroke-width="2" points="1088,344 1108,344 "/>
<polyline fill="none" opacity="1" stroke="#54E619" stroke-width="2" points="1088,359 1108,359 "/>
<polyline fill="none" opacity="1" stroke="#19E68E" stroke-width="2" points="1088,374 1108,374 "/>
<polyline fill="none" opacity="1" stroke="#198EE6" stroke-width="2" points="1088,390 1108,390 "/>
<polyline fill="none" opacity="1" stroke="#5419E6" stroke-width="2" points="1088,404 1108,404 "/>
<polyline fill="none" opacity="1" stroke="#E619C8" stroke-width="2" points="1088,419 1108,419 "/>
</svg>
