<svg width="1200" height="800" xmlns="http://www.w3.org/2000/svg">
<rect x="0" y="0" width="1199" height="799" opacity="1" fill="#FFFFFF" stroke="none"/>
<line opacity="0.1" stroke="#000000" stroke-width="1" x1="60" y1="728" x2="1190" y2="728"/>
<line opacity="0.1" stroke="#000000" stroke-width="1" x1="60" y1="718" x2="1190" y2="718"/>
<line opacity="0.1" stroke="#000000" stroke-width="1" x1="60" y1="707" x2="1190" y2="707"/>
<line opacity="0.1" stroke="#000000" stroke-width="1" x1="60" y1="697" x2="1190" y2="697"/>
<line opacity="0.1" stroke="#000000" stroke-width="1" x1="60" y1="686" x2="1190" y2="686"/>
<line opacity="0.1" stroke="#000000" stroke-width="1" x1="60" y1="676" x2="1190" y2="676"/>
<line opacity="0.1" stroke="#000000" stroke-width="1" x1="60" y1="666" x2="1190" y2="666"/>
<line opacity="0.1" stroke="#000000" stroke-width="1" x1="60" y1="655" x2="1190" y2="655"/>
<line opacity="0.1" stroke="#000000" stroke-width="1" x1="60" y1="645" x2="1190" y2="645"/>
<line opacity="0.1" stroke="#000000" stroke-width="1" x1="60" y1="634" x2="1190" y2="634"/>
<line opacity="0.1" stroke="#000000" stroke-width="1" x1="60" y1="624" x2="1190" y2="624"/>
<line opacity="0.1" stroke="#000000" stroke-width="1" x1="60" y1="613" x2="1190" y2="613"/>
<line opacity="0.1" stroke="#000000" stroke-width="1" x1="60" y1="603" x2="1190" y2="603"/>
<line opacity="0.1" stroke="#000000" stroke-width="1" x1="60" y1="592" x2="1190" y2="592"/>
<line opacity="0.1" stroke="#000000" stroke-width="1" x1="60" y1="582" x2="1190" y2="582"/>
<line opacity="0.1" stroke="#000000" stroke-width="1" x1="60" y1="571" x2="1190" y2="571"/>
<line opacity="0.1" stroke="#000000" stroke-width="1" x1="60" y1="561" x2="1190" y2="561"/>
<line opacity="0.1" stroke="#000000" stroke-width="1" x1="60" y1="550" x2="1190" y2="550"/>
<line opacity="0.1" stroke="#000000" stroke-width="1" x1="60" y1="540" x2="1190" y2="540"/>
<line opacity="0.1" stroke="#000000" stroke-width="1" x1="60" y1="530" x2="1190" y2="530"/>
<line opacity="0.1" stroke="#000000" stroke-width="1" x1="60" y1="519" x2="1190" y2="519"/>
<line opacity="0.1" stroke="#000000" stroke-width="1" x1="60" y1="509" x2="1190" y2="509"/>
<line opacity="0.1" stroke="#000000" stroke-width="1" x1="60" y1="498" x2="1190" y2="498"/>
<line opacity="0.1" stroke="#000000" stroke-width="1" x1="60" y1="488" x2="1190" y2="488"/>
<line opacity="0.1" stroke="#000000" stroke-width="1" x1="60" y1="477" x2="1190" y2="477"/>
<line opacity="0.1" stroke="#000000" stroke-width="1" x1="60" y1="467" x2="1190" y2="467"/>
<line opacity="0.1" stroke="#000000" stroke-width="1" x1="60" y1="456" x2="1190" y2="456"/>
<line opacity="0.1" stroke="#000000" stroke-width="1" x1="60" y1="446" x2="1190" y2="446"/>
<line opacity="0.1" stroke="#000000" stroke-width="1" x1="60" y1="435" x2="1190" y2="435"/>
<line opacity="0.1" stroke="#000000" stroke-width="1" x1="60" y1="425" x2="1190" y2="425"/>
<line opacity="0.1" stroke="#000000" stroke-width="1" x1="60" y1="414" x2="1190" y2="414"/>
<line opacity="0.1" stroke="#000000" stroke-width="1" x1="60" y1="404" x2="1190" y2="404"/>
<line opacity="0.1" stroke="#000000" stroke-width="1" x1="60" y1="393" x2="1190" y2="393"/>
<line opacity="0.1" stroke="#000000" stroke-width="1" x1="60" y1="383" x2="1190" y2="383"/>
<line opacity="0.1" stroke="#000000" stroke-width="1" x1="60" y1="373" x2="1190" y2="373"/>
<line opacity="0.1" stroke="#000000" stroke-width="1" x1="60" y1="362" x2="1190" y2="362"/>
<line opacity="0.1" stroke="#000000" stroke-width="1" x1="60" y1="352" x2="1190" y2="352"/>
<line opacity="0.1" stroke="#000000" stroke-width="1" x1="60" y1="341" x2="1190" y2="341"/>
<line opacity="0.1" stroke="#000000" stroke-width="1" x1="60" y1="331" x2="1190" y2="331"/>
<line opacity="0.1" stroke="#000000" stroke-width="1" x1="60" y1="320" x2="1190" y2="320"/>
<line opacity="0.1" stroke="#000000" stroke-width="1" x1="60" y1="310" x2="1190" y2="310"/>
<line opacity="0.1" stroke="#000000" stroke-width="1" x1="60" y1="299" x2="1190" y2="299"/>
<line opacity="0.1" stroke="#000000" stroke-width="1" x1="60" y1="289" x2="1190" y2="289"/>
<line opacity="0.1" stroke="#000000" stroke-width="1" x1="60" y1="278" x2="1190" y2="278"/>
<line opacity="0.1" stroke="#000000" stroke-width="1" x1="60" y1="268" x2="1190" y2="268"/>
<line opacity="0.1" stroke="#000000" stroke-width="1" x1="60" y1="257" x2="1190" y2="257"/>
<line opacity="0.1" stroke="#000000" stroke-width="1" x1="60" y1="247" x2="1190" y2="247"/>
<line opacity="0.1" stroke="#000000" stroke-width="1" x1="60" y1="236" x2="1190" y2="236"/>
<line opacity="0.1" stroke="#000000" stroke-width="1" x1="60" y1="226" x2="1190" y2="226"/>
<line opacity="0.1" stroke="#000000" stroke-width="1" x1="60" y1="216" x2="1190" y2="216"/>
<line opacity="0.1" stroke="#000000" stroke-width="1" x1="60" y1="205" x2="1190" y2="205"/>
<line opacity="0.1" stroke="#000000" stroke-width="1" x1="60" y1="195" x2="1190" y2="195"/>
<line opacity="0.1" stroke="#000000" stroke-width="1" x1="60" y1="184" x2="1190" y2="184"/>
<line opacity="0.1" stroke="#000000" stroke-width="1" x1="60" y1="174" x2="1190" y2="174"/>
<line opacity="0.1" stroke="#000000" stroke-width="1" x1="60" y1="163" x2="1190" y2="163"/>
<line opacity="0.1" stroke="#000000" stroke-width="1" x1="60" y1="153" x2="1190" y2="153"/>
<line opacity="0.1" stroke="#000000" stroke-width="1" x1="60" y1="142" x2="1190" y2="142"/>
<line opacity="0.1" stroke="#000000" stroke-width="1" x1="60" y1="132" x2="1190" y2="132"/>
<line opacity="0.1" stroke="#000000" stroke-width="1" x1="60" y1="121" x2="1190" y2="121"/>
<line opacity="0.1" stroke="#000000" stroke-width="1" x1="60" y1="111" x2="1190" y2="111"/>
<line opacity="0.1" stroke="#000000" stroke-width="1" x1="60" y1="100" x2="1190" y2="100"/>
<line opacity="0.1" stroke="#000000" stroke-width="1" x1="60" y1="90" x2="1190" y2="90"/>
<line opacity="0.1" stroke="#000000" stroke-width="1" x1="60" y1="80" x2="1190" y2="80"/>
<line opacity="0.1" stroke="#000000" stroke-width="1" x1="60" y1="69" x2="1190" y2="69"/>
<line opacity="0.1" stroke="#000000" stroke-width="1" x1="60" y1="59" x2="1190" y2="59"/>
<line opacity="0.1" stroke="#000000" stroke-width="1" x1="60" y1="48" x2="1190" y2="48"/>
<line opacity="0.1" stroke="#000000" stroke-width="1" x1="60" y1="38" x2="1190" y2="38"/>
<line opacity="0.1" stroke="#000000" stroke-width="1" x1="60" y1="27" x2="1190" y2="27"/>
<line opacity="0.1" stroke="#000000" stroke-width="1" x1="60" y1="17" x2="1190" y2="17"/>
<text x="10" y="375" dy="0.76em" text-anchor="middle" font-family="sans-serif" font-size="9.67741935483871" opacity="1" fill="#000000" transform="rotate(270, 10, 375)">
Fraction of dependent crates
</text>
<line opacity="0.2" stroke="#000000" stroke-width="1" x1="60" y1="634" x2="1190" y2="634"/>
<line opacity="0.2" stroke="#000000" stroke-width="1" x1="60" y1="530" x2="1190" y2="530"/>
<line opacity="0.2" stroke="#000000" stroke-width="1" x1="60" y1="425" x2="1190" y2="425"/>
<line opacity="0.2" stroke="#000000" stroke-width="1" x1="60" y1="320" x2="1190" y2="320"/>
<line opacity="0.2" stroke="#000000" stroke-width="1" x1="60" y1="216" x2="1190" y2="216"/>
<polyline fill="none" opacity="1" stroke="#000000" stroke-width="1" points="59,10 59,740 "/>
<text x="50" y="634" dy="0.5ex" text-anchor="end" font-family="sans-serif" font-size="9.67741935483871" opacity="1" fill="#000000">
0.01
</text>
<polyline fill="none" opacity="1" stroke="#000000" stroke-width="1" points="54,634 59,634 "/>
<text x="50" y="530" dy="0.5ex" text-anchor="end" font-family="sans-serif" font-size="9.67741935483871" opacity="1" fill="#000000">
0.02
</text>
<polyline fill="none" opacity="1" stroke="#000000" stroke-width="1" points="54,530 59,530 "/>
<text x="50" y="425" dy="0.5ex" text-anchor="end" font-family="sans-serif" font-size="9.67741935483871" opacity="1" fill="#000000">
0.03
</text>
<polyline fill="none" opacity="1" stroke="#000000" stroke-width="1" points="54,425 59,425 "/>
<text x="50" y="320" dy="0.5ex" text-anchor="end" font-family="sans-serif" font-size="9.67741935483871" opacity="1" fill="#000000">
0.04
</text>
<polyline fill="none" opacity="1" stroke="#000000" stroke-width="1" points="54,320 59,320 "/>
<text x="50" y="216" dy="0.5ex" text-anchor="end" font-family="sans-serif" font-size="9.67741935483871" opacity="1" fill="#000000">
0.05
</text>
<polyline fill="none" opacity="1" stroke="#000000" stroke-width="1" points="54,216 59,216 "/>
<polyline fill="none" opacity="1" stroke="#000000" stroke-width="1" points="60,740 1190,740 "/>
<text x="60" y="750" dy="0.76em" text-anchor="middle" font-family="sans-serif" font-size="9.67741935483871" opacity="1" fill="#000000">
2015-09-24Z
</text>
<polyline fill="none" opacity="1" stroke="#000000" stroke-width="1" points="60,740 60,745 "/>
<text x="174" y="750" dy="0.76em" text-anchor="middle" font-family="sans-serif" font-size="9.67741935483871" opacity="1" fill="#000000">
2016-03-10Z
</text>
<polyline fill="none" opacity="1" stroke="#000000" stroke-width="1" points="174,740 174,745 "/>
<text x="289" y="750" dy="0.76em" text-anchor="middle" font-family="sans-serif" font-size="9.67741935483871" opacity="1" fill="#000000">
2016-08-25Z
</text>
<polyline fill="none" opacity="1" stroke="#000000" stroke-width="1" points="289,740 289,745 "/>
<text x="404" y="750" dy="0.76em" text-anchor="middle" font-family="sans-serif" font-size="9.67741935483871" opacity="1" fill="#000000">
2017-02-09Z
</text>
<polyline fill="none" opacity="1" stroke="#000000" stroke-width="1" points="404,740 404,745 "/>
<text x="518" y="750" dy="0.76em" text-anchor="middle" font-family="sans-serif" font-size="9.67741935483871" opacity="1" fill="#000000">
2017-07-27Z
</text>
<polyline fill="none" opacity="1" stroke="#000000" stroke-width="1" points="518,740 518,745 "/>
<text x="633" y="750" dy="0.76em" text-anchor="middle" font-family="sans-serif" font-size="9.67741935483871" opacity="1" fill="#000000">
2018-01-11Z
</text>
<polyline fill="none" opacity="1" stroke="#000000" stroke-width="1" points="633,740 633,745 "/>
<text x="748" y="750" dy="0.76em" text-anchor="middle" font-family="sans-serif" font-size="9.67741935483871" opacity="1" fill="#000000">
2018-06-28Z
</text>
<polyline fill="none" opacity="1" stroke="#000000" stroke-width="1" points="748,740 748,745 "/>
<text x="862" y="750" dy="0.76em" text-anchor="middle" font-family="sans-serif" font-size="9.67741935483871" opacity="1" fill="#000000">
2018-12-13Z
</text>
<polyline fill="none" opacity="1" stroke="#000000" stroke-width="1" points="862,740 862,745 "/>
<text x="977" y="750" dy="0.76em" text-anchor="middle" font-family="sans-serif" font-size="9.67741935483871" opacity="1" fill="#000000">
2019-05-30Z
</text>
<polyline fill="none" opacity="1" stroke="#000000" stroke-width="1" points="977,740 977,745 "/>
<text x="1092" y="750" dy="0.76em" text-anchor="middle" font-family="sans-serif" font-size="9.67741935483871" opacity="1" fill="#000000">
2019-11-14Z
</text>
<polyline fill="none" opacity="1" stroke="#000000" stroke-width="1" points="1092,740 1092,745 "/>
<polyline fill="none" opacity="1" stroke="#E61919" stroke-width="2" points="1066,738 1067,738 1068,738 1069,738 1069,738 1070,738 1071,738 1072,737 1073,737 1073,737 1073,737 1074,737 1075,736 1075,735 1076,735 1077,735 1078,735 1078,734 1079,734 1080,733 1080,733 1081,733 1082,732 1083,732 1084,732 1084,731 1085,730 1086,729 1086,727 1087,723 1088,723 1088,723 1089,723 1090,722 1090,722 1091,722 1092,720 1093,717 1093,716 1094,716 1095,715 1095,715 1096,714 1097,714 1097,713 1098,713 1099,711 1099,711 1100,710 1101,710 1101,710 1102,710 1103,709 1103,709 1104,707 1105,707 1106,706 1106,706 1107,706 1108,706 1108,706 1109,704 1110,704 1110,704 1111,704 1112,703 1112,703 1113,702 1114,703 1114,702 1115,702 1116,701 1116,701 1117,701 1118,700 1118,700 1119,699 1120,699 1121,698 1121,698 1122,697 1123,697 1123,696 1124,695 1125,695 1125,693 1126,692 1127,692 1127,691 1128,691 1129,690 1129,688 1130,687 1131,686 1131,686 1132,685 1133,683 1134,682 1134,681 1135,681 1136,681 1136,680 1137,680 1138,680 1138,680 1139,679 1140,679 1140,676 1141,675 1142,675 1142,675 1143,674 1144,674 1144,673 1145,673 1146,673 1146,673 1147,671 1148,670 1149,669 1149,669 1150,668 1151,667 1151,667 1152,666 1153,666 1153,666 1154,666 1155,665 1155,665 1156,664 1157,664 1157,662 1158,662 1159,662 1159,662 1160,662 1161,662 1162,661 1162,661 1163,660 1164,659 1164,659 1165,659 1166,658 1166,657 1167,657 1168,656 1168,657 1169,656 1169,656 1170,656 1170,656 1170,655 1171,655 1171,654 1172,654 1172,654 1172,653 1173,653 1173,651 1174,651 1174,647 1174,647 1174,646 1175,646 1175,645 1176,645 1176,645 1177,645 1177,644 1177,644 1177,643 1178,643 1178,643 1179,643 1179,642 1179,642 1179,642 1180,641 1181,641 1181,640 1181,640 1182,640 1182,639 1183,639 1183,638 1183,638 1183,637 1184,637 1184,637 1185,637 1185,636 1185,636 1185,636 1186,636 1187,636 1187,635 1187,635 1187,635 1188,635 1188,634 1189,634 1189,633 1190,633 "/>
<polyline fill="none" opacity="1" stroke="#E6C819" stroke-width="2" points="873,738 881,738 886,737 889,736 913,736 920,736 936,735 937,734 940,734 942,734 944,733 946,733 947,733 948,733 948,733 949,733 953,733 954,733 955,733 955,732 958,732 959,732 959,732 960,732 961,732 962,732 963,732 964,732 964,732 965,732 966,731 966,731 968,732 969,732 971,732 972,732 972,732 973,732 974,732 975,732 976,732 976,732 978,732 979,732 980,732 981,732 981,731 982,731 983,731 985,731 986,731 987,731 988,731 989,730 989,730 990,730 991,730 991,730 992,729 993,729 994,729 994,729 995,729 996,729 996,729 997,729 998,729 998,729 999,728 1000,728 1000,728 1001,728 1002,728 1002,729 1003,729 1004,729 1004,729 1005,729 1006,729 1007,729 1008,728 1009,728 1009,727 1010,727 1011,728 1011,728 1012,728 1013,728 1013,728 1014,728 1015,728 1016,728 1017,728 1017,727 1018,727 1019,727 1019,727 1021,727 1022,727 1022,727 1023,727 1024,727 1024,727 1025,727 1026,727 1026,727 1027,727 1028,727 1028,727 1029,727 1030,727 1030,727 1031,727 1032,727 1032,727 1033,727 1034,727 1035,727 1036,727 1037,727 1037,727 1038,727 1039,727 1039,726 1040,726 1041,726 1041,725 1042,725 1043,725 1043,725 1044,725 1045,725 1045,725 1046,725 1047,725 1047,725 1048,725 1049,725 1050,725 1050,725 1051,725 1052,725 1052,725 1053,725 1054,725 1054,725 1055,725 1056,725 1056,725 1057,725 1058,725 1059,725 1060,725 1061,725 1062,724 1063,724 1063,724 1064,723 1065,723 1066,723 1067,723 1067,723 1068,723 1069,723 1069,724 1071,724 1071,723 1072,723 1073,723 1073,723 1073,723 1074,723 1075,723 1075,723 1076,723 1077,723 1078,723 1079,723 1080,723 1080,723 1081,724 1082,724 1082,724 1083,724 1084,724 1084,724 1085,724 1086,724 1086,724 1087,724 1088,724 1088,723 1089,723 1090,723 1090,723 1091,723 1093,723 1093,723 1094,723 1095,723 1095,724 1096,724 1097,724 1097,724 1098,724 1099,724 1099,724 1100,724 1101,724 1101,724 1102,724 1103,724 1104,724 1105,724 1106,724 1106,724 1107,724 1108,723 1108,724 1109,724 1110,724 1110,724 1111,724 1112,724 1112,724 1113,724 1114,724 1114,724 1115,724 1116,724 1116,724 1117,724 1118,724 1119,724 1120,724 1121,724 1121,724 1122,724 1123,724 1123,724 1124,724 1125,724 1125,724 1126,724 1127,724 1128,724 1129,724 1129,724 1130,724 1131,724 1131,724 1132,724 1133,724 1134,724 1134,724 1135,724 1136,724 1136,724 1137,724 1138,724 1138,724 1139,724 1140,724 1140,724 1141,724 1142,724 1142,724 1143,724 1144,724 1144,724 1145,724 1146,724 1146,724 1147,724 1148,723 1149,723 1149,723 1150,722 1151,722 1151,722 1152,722 1153,722 1153,722 1154,723 1155,723 1155,723 1156,722 1157,722 1157,722 1158,722 1159,722 1159,722 1160,722 1161,722 1162,722 1163,722 1164,722 1164,722 1165,722 1166,722 1166,722 1167,722 1168,722 1168,722 1169,722 1169,722 1170,722 1170,722 1170,722 1171,722 1171,722 1172,722 1172,722 1172,722 1173,722 1173,722 1174,722 1174,722 1174,722 1174,723 1175,723 1175,723 1176,723 1176,723 1177,723 1177,723 1177,723 1177,723 1178,723 1178,723 1179,723 1179,723 1179,723 1179,722 1180,722 1181,722 1181,722 1181,722 1182,722 1182,722 1183,722 1183,722 1183,722 1183,722 1184,722 1184,722 1185,722 1185,722 1185,722 1185,722 1186,722 1187,722 1187,722 1187,722 1187,722 1188,722 1188,722 1189,722 1189,722 1190,722 "/>
<polyline fill="none" opacity="1" stroke="#54E619" stroke-width="2" points="245,737 245,733 251,735 256,733 264,731 264,729 265,727 270,726 283,724 283,724 285,721 290,719 292,716 292,714 294,714 294,712 298,711 299,713 301,710 302,705 304,703 305,702 309,700 311,699 312,699 314,691 315,686 316,683 317,681 321,681 322,679 323,678 324,676 326,675 326,675 327,673 328,674 329,674 329,674 331,673 331,673 332,673 333,673 333,673 334,671 335,670 335,670 336,669 337,667 337,667 338,664 339,663 339,661 340,657 341,656 342,654 343,653 344,653 345,650 349,651 350,650 350,648 351,647 352,645 353,644 354,643 354,641 355,637 356,633 357,632 359,626 359,625 360,623 361,622 361,622 363,619 363,618 364,617 365,616 366,614 367,612 367,611 368,603 369,600 369,596 370,586 371,585 372,584 372,584 373,583 374,582 374,577 375,574 376,575 376,569 378,567 378,567 379,566 380,565 380,566 381,566 382,566 382,562 383,562 384,561 385,560 385,553 386,554 387,554 387,555 388,555 389,555 390,553 391,553 393,553 393,551 394,548 395,549 395,548 396,548 397,549 397,548 398,548 399,548 400,547 400,548 401,544 402,544 402,542 403,540 404,538 404,539 405,539 406,536 406,532 407,530 408,530 409,527 410,523 410,523 411,523 412,523 412,524 413,523 414,522 415,521 415,521 416,522 417,518 417,519 418,519 419,517 419,517 420,515 421,513 421,511 422,511 423,509 423,509 424,507 425,504 425,504 426,505 427,505 428,504 428,503 429,497 430,496 430,492 431,491 432,492 432,492 433,490 434,489 434,485 435,483 436,482 436,481 437,479 438,479 438,479 439,479 440,479 440,478 441,479 442,479 443,480 443,477 444,478 445,478 445,478 446,476 447,475 447,473 448,472 449,470 449,469 450,468 451,467 451,464 452,463 453,463 453,462 454,463 455,464 456,462 456,461 457,461 458,457 458,454 459,452 460,450 460,448 461,449 462,446 462,446 463,445 464,444 464,444 465,441 466,441 466,441 467,438 468,437 468,436 469,431 470,427 471,427 471,427 472,429 473,425 473,421 474,420 475,421 475,420 476,419 477,419 477,420 478,419 479,421 479,417 480,414 481,413 481,413 482,413 483,414 484,414 484,413 485,414 486,412 486,412 487,412 488,412 488,410 489,407 490,407 490,406 491,405 492,401 492,401 493,401 494,400 494,399 495,398 496,398 496,396 497,396 498,394 499,394 499,393 500,392 501,391 501,390 502,390 503,391 503,389 504,390 505,391 505,390 506,389 507,388 507,387 508,386 509,387 509,384 510,383 511,377 512,377 512,378 513,374 514,371 514,369 515,367 516,366 516,366 517,364 518,361 518,360 519,360 520,358 520,358 521,356 522,356 522,356 523,356 524,355 524,354 525,353 526,352 527,354 527,353 528,352 529,351 529,350 530,349 531,348 531,345 532,345 533,346 533,346 534,343 535,342 535,340 536,338 537,338 537,337 538,337 539,334 539,334 540,334 541,330 542,329 542,329 543,327 544,323 544,322 545,322 546,322 546,321 547,318 548,317 548,315 549,316 550,316 550,315 551,315 552,314 552,313 553,313 554,315 555,315 555,315 556,316 557,316 557,316 558,316 559,296 559,295 560,294 561,295 561,293 562,290 563,289 563,288 564,288 565,287 565,287 566,286 567,284 567,286 568,285 569,284 570,282 570,281 571,281 572,279 572,278 573,277 574,278 574,278 575,279 576,279 576,279 577,278 578,279 578,280 579,280 580,281 580,281 581,281 582,280 583,279 583,280 584,280 585,280 585,280 586,280 587,280 587,281 588,280 589,276 589,275 590,273 591,273 591,273 592,273 593,274 593,271 594,268 595,269 595,270 596,270 597,270 598,270 598,270 599,270 600,270 600,269 601,269 602,271 602,271 603,271 604,270 604,268 605,268 606,268 606,268 607,266 608,267 608,264 609,263 610,263 611,264 611,263 612,264 613,266 613,267 614,269 615,267 615,267 616,266 617,265 617,265 618,264 619,265 619,264 620,263 621,261 621,260 622,261 623,261 623,258 624,256 625,255 626,255 626,254 627,254 628,254 628,254 629,256 630,254 630,254 631,254 632,255 632,256 633,256 634,254 634,255 635,256 636,256 636,257 637,257 638,257 638,256 639,255 640,256 641,257 641,258 642,259 643,259 643,260 644,260 645,261 645,265 646,265 647,265 647,266 648,266 649,265 649,266 650,266 651,267 651,267 652,267 653,267 654,267 654,267 655,268 656,268 656,267 657,266 658,267 658,268 659,269 660,269 660,269 661,271 662,271 662,271 663,272 664,273 664,274 665,275 666,277 666,277 667,278 668,283 669,284 669,285 670,286 671,285 671,286 672,286 673,287 673,288 674,285 675,285 675,285 676,286 677,287 677,288 678,289 679,290 679,290 680,289 681,289 682,290 682,291 683,291 684,292 684,293 685,295 686,295 686,294 687,295 688,295 688,294 689,294 690,294 690,295 691,297 692,297 692,298 693,298 694,299 694,300 695,300 696,300 697,300 697,301 698,303 699,304 699,303 700,303 701,304 701,305 702,304 703,305 703,304 704,305 705,306 705,307 706,307 707,306 707,306 708,306 709,307 710,308 710,309 711,308 712,309 712,308 713,309 714,309 714,310 715,311 716,312 716,313 717,313 718,314 718,313 719,313 720,311 720,312 721,312 722,312 722,312 723,313 724,316 725,316 725,317 726,318 727,320 727,320 728,321 729,321 729,321 730,321 731,321 731,320 732,320 733,322 733,322 734,321 735,321 735,322 736,323 737,323 738,323 738,323 739,323 740,324 740,324 741,325 742,325 742,326 743,325 744,326 744,326 745,327 746,328 746,328 747,329 748,329 748,330 749,330 750,330 750,330 751,330 752,331 753,331 753,331 754,331 755,332 755,332 756,332 757,332 757,332 758,333 759,333 759,334 760,331 761,332 761,332 762,331 763,332 763,332 764,335 765,336 765,336 766,336 767,337 768,337 768,338 769,338 770,339 770,340 771,341 772,341 772,342 773,344 774,345 774,345 775,347 776,347 776,347 777,347 778,348 778,348 779,350 780,350 781,351 781,352 782,351 783,353 783,353 784,354 785,354 785,353 786,352 787,352 787,355 788,355 789,356 789,356 790,356 791,359 791,359 792,360 793,360 793,360 794,360 795,360 796,360 796,360 797,361 798,361 798,362 799,363 800,363 800,363 801,364 802,364 802,364 803,365 804,365 804,365 805,365 806,365 806,366 807,366 808,366 809,366 809,367 809,367 810,366 811,367 811,366 812,367 813,368 813,369 814,371 815,373 815,372 816,372 817,372 817,372 818,372 819,373 819,373 820,374 821,375 821,376 822,379 823,376 824,377 824,377 825,379 826,379 826,379 827,380 828,380 828,381 829,381 830,382 830,382 831,382 832,382 832,382 833,383 834,384 834,383 835,383 836,383 837,384 837,384 838,384 839,385 839,387 840,400 841,401 841,402 842,402 843,402 843,403 844,402 845,402 845,403 846,404 847,403 847,404 848,404 849,404 849,404 850,405 851,405 852,405 852,406 853,406 854,407 854,407 855,407 856,408 856,407 857,408 858,408 858,409 859,410 860,411 860,411 861,411 862,412 862,412 863,413 864,413 864,413 865,414 866,415 867,415 867,415 868,416 869,416 869,417 870,417 871,418 871,418 872,419 873,419 873,420 874,419 875,420 875,420 876,422 877,422 877,423 878,424 879,425 880,426 880,438 881,438 882,438 882,426 883,427 884,427 884,427 885,429 886,429 886,429 887,430 888,429 888,430 889,430 890,429 890,430 891,430 892,431 892,431 893,431 894,430 895,431 895,431 896,431 897,432 897,432 898,433 899,434 899,434 900,436 901,436 901,437 902,437 903,437 903,438 904,438 905,439 905,440 906,439 907,439 908,440 908,440 909,440 910,439 910,440 911,440 912,440 912,441 913,441 914,442 914,442 915,443 916,443 916,443 917,444 918,445 918,445 919,446 920,446 920,446 921,446 922,447 923,447 923,448 924,448 925,449 925,449 926,450 927,450 927,451 928,451 929,451 929,451 930,452 931,453 931,453 932,453 933,454 933,454 934,454 935,455 936,455 936,455 937,456 938,456 938,457 939,457 940,458 940,456 941,456 942,456 942,457 943,458 944,458 944,458 945,459 946,459 946,459 947,460 948,460 948,461 949,461 950,461 951,461 951,462 952,462 953,463 953,463 954,464 955,464 955,464 956,464 957,465 957,465 958,465 959,466 959,467 960,468 961,468 961,468 962,469 963,469 964,470 964,470 965,471 966,472 966,471 967,472 968,472 968,472 969,473 970,473 970,474 971,474 972,474 972,474 973,475 974,475 974,476 975,475 976,476 976,475 977,475 978,475 979,475 979,475 980,476 981,476 981,477 982,477 983,477 983,478 984,478 985,478 985,478 986,479 987,479 987,479 988,480 989,481 989,481 990,481 991,482 991,482 992,482 993,482 994,483 994,483 995,483 996,484 996,484 997,484 998,484 998,485 999,485 1000,486 1000,486 1001,486 1002,486 1002,486 1003,486 1004,487 1004,487 1005,487 1006,487 1007,487 1007,488 1008,487 1009,488 1009,488 1010,488 1011,489 1011,489 1012,490 1013,490 1013,490 1014,490 1015,491 1015,491 1016,491 1017,491 1017,492 1018,492 1019,492 1019,492 1020,493 1021,493 1022,493 1022,493 1023,493 1024,493 1024,493 1025,494 1026,494 1026,494 1027,494 1028,495 1028,496 1029,496 1030,497 1030,497 1031,497 1032,497 1032,497 1033,497 1034,498 1035,498 1035,498 1036,499 1037,499 1037,499 1038,499 1039,500 1039,500 1040,500 1041,500 1041,500 1042,501 1043,501 1043,502 1044,502 1045,502 1045,502 1046,503 1047,503 1047,504 1048,504 1049,504 1050,504 1050,505 1051,505 1052,505 1052,505 1053,506 1054,506 1054,506 1055,506 1056,507 1056,505 1057,506 1058,506 1058,506 1059,506 1060,506 1060,507 1061,507 1062,507 1063,507 1063,507 1064,508 1065,508 1065,508 1066,508 1067,508 1067,509 1068,509 1069,508 1069,509 1070,509 1071,510 1071,511 1072,511 1073,511 1073,511 1073,512 1074,512 1075,512 1075,512 1076,513 1077,513 1078,513 1078,513 1079,513 1080,514 1080,514 1081,515 1082,515 1082,515 1083,515 1084,515 1084,516 1085,515 1086,516 1086,516 1087,516 1088,516 1088,516 1089,516 1090,516 1090,516 1091,516 1092,516 1093,516 1093,517 1094,517 1095,518 1095,518 1096,519 1097,519 1097,519 1098,519 1099,520 1099,520 1100,520 1101,521 1101,521 1102,521 1103,521 1103,521 1104,521 1105,522 1106,522 1106,522 1107,522 1108,522 1108,523 1109,523 1110,523 1110,524 1111,524 1112,524 1112,524 1113,525 1114,525 1114,526 1115,526 1116,526 1116,526 1117,526 1118,526 1118,527 1119,527 1120,527 1121,527 1121,527 1122,528 1123,528 1123,528 1124,528 1125,528 1125,529 1126,529 1127,530 1127,530 1128,530 1129,531 1129,531 1130,532 1131,532 1131,533 1132,533 1133,533 1134,533 1134,533 1135,535 1136,535 1136,535 1137,536 1138,537 1138,537 1139,537 1140,537 1140,538 1141,538 1142,538 1142,539 1143,539 1144,539 1144,539 1145,539 1146,539 1146,539 1147,540 1148,540 1149,540 1149,541 1150,541 1151,542 1151,541 1152,541 1153,541 1153,541 1154,541 1155,542 1155,542 1156,542 1157,542 1157,543 1158,543 1159,544 1159,544 1160,543 1161,544 1162,544 1162,544 1163,544 1164,545 1164,545 1165,545 1166,545 1166,545 1167,546 1168,546 1168,546 1169,546 1169,546 1170,546 1170,547 1170,547 1171,547 1171,547 1172,547 1172,548 1172,548 1173,548 1173,548 1174,548 1174,549 1174,549 1174,549 1175,549 1175,549 1176,549 1176,549 1177,549 1177,549 1177,549 1177,550 1178,550 1178,550 1179,550 1179,550 1179,550 1179,551 1180,551 1181,551 1181,552 1181,552 1182,552 1182,552 1183,552 1183,553 1183,553 1183,553 1184,553 1184,553 1185,553 1185,553 1185,553 1185,553 1186,553 1187,553 1187,553 1187,553 1187,553 1188,553 1188,554 1189,554 1189,554 1190,554 "/>
<polyline fill="none" opacity="1" stroke="#19E68E" stroke-width="2" points="595,738 596,737 597,736 598,734 599,732 600,731 601,730 602,729 602,725 603,725 604,723 604,720 605,719 606,718 606,717 607,716 608,714 608,713 611,712 612,710 613,707 613,706 614,704 615,704 615,701 618,699 619,696 619,695 621,694 621,694 622,693 623,690 624,689 625,688 626,685 626,684 627,684 628,683 628,682 629,680 630,678 631,673 632,672 632,672 633,671 634,670 634,669 635,668 636,668 636,664 637,665 638,665 638,664 639,663 640,660 641,660 641,659 642,658 643,655 643,654 644,652 645,650 645,648 646,645 647,644 647,643 648,640 649,640 649,638 650,637 651,636 651,635 652,630 653,628 654,629 654,629 655,628 656,628 656,628 657,627 658,627 658,626 659,624 660,621 660,620 661,617 662,615 662,612 663,610 664,608 664,606 665,604 666,599 666,594 667,593 668,593 669,593 669,588 670,584 671,580 671,579 672,578 673,578 673,575 674,575 675,574 675,574 676,573 677,571 677,571 678,570 679,566 679,565 680,564 681,564 682,562 682,562 683,560 684,559 684,558 685,556 686,556 686,554 687,553 688,552 688,551 689,549 690,547 690,545 691,543 692,543 692,540 693,539 694,535 694,530 695,527 696,525 697,523 697,519 698,516 699,515 699,515 700,514 701,513 701,511 702,510 703,509 703,503 704,500 705,499 705,496 706,495 707,493 707,490 708,488 709,488 710,484 710,482 711,483 712,482 712,481 713,479 714,476 714,475 715,472 716,472 716,469 717,463 718,463 718,461 719,461 720,461 720,460 721,458 722,457 722,456 723,455 724,450 725,450 725,449 726,443 727,438 727,437 728,434 729,433 729,432 730,431 731,432 731,430 732,431 733,428 733,427 734,426 735,426 735,424 737,423 738,422 738,422 739,421 740,420 740,419 741,414 742,412 742,407 743,406 744,403 744,402 745,402 746,403 746,403 747,402 748,400 748,399 749,397 750,397 750,395 751,396 752,393 753,392 753,391 754,391 755,389 755,390 756,389 757,387 757,386 758,383 759,383 759,383 760,382 761,381 761,382 762,381 763,378 763,377 764,372 765,371 765,370 766,369 767,367 768,367 768,367 769,365 770,365 770,364 771,363 772,363 772,361 773,358 774,358 774,356 775,358 776,357 776,355 777,355 778,356 778,354 779,354 780,353 781,352 781,349 782,349 783,347 783,344 784,344 785,341 785,341 786,339 787,338 787,339 788,338 789,337 789,337 790,337 791,338 791,338 792,337 793,336 793,334 794,332 795,330 796,330 796,329 797,328 798,326 798,324 799,322 800,323 800,322 801,321 802,321 802,319 803,317 804,316 804,314 805,313 806,311 806,309 807,307 808,307 809,305 809,305 809,302 810,302 811,302 811,301 812,298 813,296 813,292 814,288 815,286 815,285 816,284 817,284 817,281 818,282 819,281 819,281 820,279 821,280 821,280 822,284 823,280 824,280 824,279 825,278 826,277 826,277 827,272 828,271 828,272 829,269 830,270 830,269 831,268 832,265 832,264 833,263 834,262 834,262 835,263 836,263 837,262 837,259 838,261 839,260 839,258 840,236 841,235 841,236 842,237 843,234 843,235 844,233 845,233 845,233 846,229 847,229 847,228 848,229 849,225 849,224 850,222 851,223 852,222 852,220 853,219 854,220 854,220 855,219 856,216 856,214 857,210 858,208 858,204 859,203 860,201 860,201 861,200 862,198 862,196 863,197 864,197 864,196 865,192 866,190 867,190 867,189 868,187 869,187 869,185 870,184 871,185 871,184 872,184 873,182 873,183 874,182 875,180 875,180 876,177 877,176 877,176 878,175 879,174 880,169 880,190 881,192 882,191 882,170 883,169 884,167 884,167 885,165 886,165 886,165 887,163 888,161 888,162 889,163 890,162 890,162 891,160 892,159 892,159 893,157 894,157 895,156 895,155 896,155 897,156 897,157 898,155 899,155 899,154 900,154 901,154 901,155 902,149 903,149 903,148 904,148 905,145 905,145 906,144 907,144 908,144 908,145 909,145 910,145 910,145 911,145 912,146 912,146 913,145 914,145 914,145 915,143 916,141 916,140 917,139 918,137 918,137 919,138 920,137 920,135 921,134 922,132 923,130 923,131 924,130 925,130 925,129 926,129 927,128 927,129 928,127 929,127 929,127 930,127 931,126 931,126 932,126 933,127 933,127 934,128 935,125 936,125 936,123 937,123 938,122 938,121 939,118 940,118 940,119 941,118 942,118 942,119 943,119 944,117 944,117 945,115 946,113 946,113 947,113 948,113 948,114 949,114 950,114 951,113 951,111 952,111 953,111 953,110 954,110 955,111 955,110 956,109 957,108 957,109 958,107 959,106 959,108 960,108 961,108 961,108 962,108 963,108 964,108 964,107 965,109 966,109 966,110 967,110 968,109 968,109 969,107 970,108 970,106 971,105 972,107 972,108 973,101 974,101 974,102 975,102 976,102 976,101 977,101 978,101 979,102 979,101 980,101 981,101 981,103 982,105 983,105 983,104 984,104 985,103 985,103 986,103 987,103 987,101 988,102 989,101 989,100 990,99 991,99 991,95 992,96 993,95 994,96 994,94 995,92 996,92 996,93 997,90 998,89 998,90 999,89 1000,89 1000,89 1001,88 1002,86 1002,85 1003,86 1004,86 1004,86 1005,85 1006,86 1007,84 1007,84 1008,84 1009,84 1009,85 1010,85 1011,85 1011,85 1012,86 1013,84 1013,84 1014,83 1015,84 1015,83 1016,81 1017,82 1017,83 1018,82 1019,82 1019,84 1020,83 1021,83 1022,83 1022,83 1023,83 1024,83 1024,83 1025,83 1026,82 1026,82 1027,82 1028,83 1028,82 1029,80 1030,80 1030,79 1031,79 1032,79 1032,79 1033,79 1034,76 1035,75 1035,76 1036,76 1037,77 1037,77 1038,77 1039,78 1039,78 1040,79 1041,78 1041,78 1042,78 1043,79 1043,78 1044,78 1045,78 1045,79 1046,80 1047,79 1047,80 1048,78 1049,78 1050,78 1050,78 1051,78 1052,78 1052,78 1053,77 1054,77 1054,77 1055,77 1056,78 1056,79 1057,78 1058,78 1058,77 1059,78 1060,78 1060,79 1061,79 1062,78 1063,79 1063,79 1064,78 1065,78 1065,79 1066,81 1067,81 1067,80 1068,80 1069,80 1069,78 1070,79 1071,79 1071,79 1072,79 1073,79 1073,80 1073,80 1074,83 1075,84 1075,84 1076,85 1077,86 1078,86 1078,86 1079,86 1080,87 1080,87 1081,86 1082,89 1082,90 1083,89 1084,90 1084,95 1085,97 1086,96 1086,99 1087,103 1088,103 1088,104 1089,103 1090,104 1090,104 1091,105 1092,106 1093,110 1093,111 1094,112 1095,113 1095,114 1096,111 1097,112 1097,112 1098,113 1099,113 1099,114 1100,114 1101,115 1101,115 1102,112 1103,112 1103,112 1104,112 1105,112 1106,110 1106,110 1107,111 1108,111 1108,111 1109,111 1110,111 1110,112 1111,112 1112,112 1112,111 1113,112 1114,112 1114,114 1115,114 1116,115 1116,115 1117,115 1118,116 1118,116 1119,111 1120,111 1121,112 1121,113 1122,113 1123,113 1123,114 1124,115 1125,111 1125,110 1126,111 1127,112 1127,112 1128,112 1129,113 1129,113 1130,115 1131,115 1131,115 1132,115 1133,116 1134,116 1134,119 1135,118 1136,118 1136,120 1137,121 1138,121 1138,121 1139,121 1140,124 1140,127 1141,128 1142,127 1142,127 1143,127 1144,128 1144,128 1145,128 1146,129 1146,129 1147,129 1148,130 1149,130 1149,131 1150,130 1151,131 1151,132 1152,133 1153,133 1153,134 1154,132 1155,134 1155,135 1156,136 1157,135 1157,135 1158,134 1159,135 1159,135 1160,136 1161,137 1162,136 1162,137 1163,138 1164,140 1164,140 1165,141 1166,142 1166,142 1167,143 1168,140 1168,141 1169,140 1169,141 1170,141 1170,141 1170,141 1171,141 1171,142 1172,142 1172,143 1172,144 1173,144 1173,145 1174,145 1174,150 1174,150 1174,151 1175,151 1175,152 1176,152 1176,154 1177,154 1177,154 1177,154 1177,154 1178,154 1178,155 1179,155 1179,155 1179,155 1179,156 1180,156 1181,156 1181,157 1181,157 1182,157 1182,157 1183,157 1183,155 1183,155 1183,156 1184,156 1184,156 1185,156 1185,156 1185,156 1185,156 1186,157 1187,157 1187,156 1187,156 1187,156 1188,156 1188,156 1189,156 1189,157 1190,157 "/>
<polyline fill="none" opacity="1" stroke="#198EE6" stroke-width="2" points="60,735 60,732 64,729 75,726 85,723 94,723 94,720 99,717 100,714 102,715 107,712 111,709 112,706 119,704 126,705 126,705 129,700 135,698 139,701 141,701 148,694 149,691 150,691 150,692 151,692 152,692 153,692 154,692 154,690 156,687 156,687 157,687 159,688 159,688 161,688 162,688 163,686 163,686 164,686 165,684 165,684 166,684 167,684 168,684 169,684 169,685 170,685 171,685 171,685 172,685 173,685 174,683 174,683 175,683 176,683 177,683 178,683 178,683 179,684 181,684 182,684 183,682 184,680 184,680 185,678 186,678 186,680 187,680 188,678 189,678 189,678 191,679 191,679 193,679 193,677 194,677 195,677 195,677 196,677 197,677 198,678 199,678 199,678 201,676 202,673 202,671 203,669 204,669 204,670 205,670 206,670 206,670 207,670 208,670 208,671 210,671 210,671 212,669 212,665 214,663 214,663 215,663 217,664 218,664 219,662 219,662 221,662 221,662 222,662 223,660 223,660 224,661 225,659 226,657 227,657 228,657 230,658 230,658 231,658 232,658 232,658 233,656 234,657 234,657 235,657 236,657 236,657 237,657 238,655 239,654 240,654 240,654 241,652 242,652 242,652 243,652 244,653 245,651 245,651 246,651 247,651 247,651 248,650 249,648 250,644 251,644 251,645 252,645 253,643 254,643 255,643 256,643 258,644 258,644 259,644 260,644 260,644 261,644 262,643 263,643 264,643 264,643 265,643 266,644 266,644 269,644 270,645 270,643 271,643 272,641 273,640 273,640 274,640 275,640 275,640 277,641 278,641 279,641 279,641 280,641 281,641 281,640 283,640 283,638 284,639 285,639 286,639 287,639 288,640 288,640 289,638 291,639 292,637 292,638 294,638 294,635 295,635 296,635 296,635 297,635 298,635 298,636 299,636 300,636 301,638 301,638 303,637 303,637 304,638 305,638 305,638 306,638 307,638 307,638 308,639 309,639 309,639 310,639 311,639 311,636 312,635 313,635 313,635 314,635 315,635 316,635 316,635 317,636 318,636 318,636 319,637 320,637 320,637 321,635 322,636 322,636 323,636 324,633 324,633 325,632 326,632 327,630 328,631 329,631 330,632 331,632 331,632 333,632 333,631 334,631 335,631 335,630 336,628 337,628 338,629 339,629 339,627 340,628 341,628 341,628 342,628 343,627 344,626 345,626 346,624 346,624 347,625 348,625 348,625 349,624 350,624 350,624 351,624 352,624 352,624 353,623 354,623 354,623 355,624 356,624 357,624 358,624 359,624 359,625 360,625 361,625 361,624 363,624 363,624 364,624 365,623 365,622 366,621 367,621 367,621 368,623 369,623 369,622 370,622 371,621 372,621 372,622 373,620 374,619 374,618 375,618 376,619 376,619 377,619 378,619 378,619 379,620 380,620 380,619 381,617 382,618 382,618 383,618 384,618 385,617 385,616 386,616 387,616 388,617 389,616 389,614 390,614 391,613 391,614 392,614 393,614 393,610 394,610 395,611 395,610 396,610 397,610 397,610 398,611 399,610 400,609 400,609 401,609 402,610 402,609 403,608 404,608 404,608 405,609 406,608 406,608 407,608 408,608 408,609 409,607 410,608 410,607 411,606 412,606 412,606 413,606 414,606 415,607 415,607 416,607 417,608 417,607 418,604 419,605 420,605 421,606 421,606 422,606 423,606 423,607 425,607 425,606 426,605 427,605 428,605 428,605 429,606 430,606 430,606 431,606 432,605 432,606 433,606 434,606 434,605 435,605 436,605 436,606 437,606 438,606 438,606 439,606 440,606 440,607 441,607 442,606 443,606 443,606 444,607 445,607 445,606 446,605 447,605 447,605 448,605 449,606 449,606 450,606 451,606 451,606 452,607 453,607 453,607 454,605 455,605 456,606 456,606 457,606 458,606 458,606 459,606 460,607 460,607 461,606 462,605 462,605 463,606 464,606 464,605 465,605 466,605 466,605 467,606 468,606 468,605 469,605 470,606 471,605 471,606 472,607 473,607 473,607 474,606 475,605 475,605 476,606 477,606 477,606 478,606 479,605 479,607 480,604 481,604 481,604 482,605 483,605 484,605 484,603 485,604 486,603 486,603 487,602 488,601 488,601 489,601 490,601 490,601 491,601 492,600 492,601 493,602 494,603 494,603 495,603 496,603 496,602 497,603 499,603 499,603 500,603 501,604 501,604 502,604 503,604 503,604 504,604 505,605 505,605 506,605 507,604 507,604 508,604 509,605 509,605 510,605 511,605 512,606 512,606 513,606 514,606 514,606 515,607 516,607 516,607 517,606 518,606 518,606 519,606 520,605 520,605 521,605 522,605 522,604 523,604 524,604 524,604 525,605 526,605 527,605 527,605 528,605 529,605 529,604 530,605 531,605 531,605 532,605 533,605 533,605 534,605 535,605 535,605 536,606 537,606 537,605 538,605 539,605 539,605 540,606 541,606 542,605 542,605 543,605 544,606 544,606 545,606 546,606 546,606 547,607 548,607 548,607 549,607 550,607 550,607 551,608 552,608 552,608 553,608 554,608 555,609 555,609 556,609 557,609 557,609 558,608 559,609 559,607 560,607 561,608 561,607 563,607 563,607 564,607 565,607 565,607 566,606 567,606 567,607 568,607 569,607 570,607 570,608 572,607 572,607 573,607 574,608 574,607 575,607 576,606 576,607 577,607 578,607 578,607 579,607 580,607 580,606 581,606 582,606 583,607 583,606 584,606 585,606 585,606 586,607 587,607 587,607 588,606 589,606 589,606 590,605 591,604 591,604 592,604 593,605 593,605 594,605 595,605 595,605 596,605 597,606 598,606 598,606 599,606 600,606 600,605 601,605 602,605 602,606 603,606 604,606 604,606 605,607 606,608 606,608 607,608 608,608 608,608 609,608 610,609 611,609 611,609 612,609 613,609 613,610 614,610 615,609 615,609 616,609 617,610 617,610 618,611 619,611 619,611 620,612 621,612 621,612 622,612 623,612 624,613 625,613 626,613 626,613 627,613 628,614 628,614 629,614 630,614 630,614 632,614 632,614 633,614 634,614 634,614 635,615 636,615 636,614 638,615 638,615 639,614 640,614 641,615 641,615 642,615 643,615 643,615 644,615 645,615 645,616 646,615 647,615 647,616 648,616 649,615 649,615 650,616 651,615 651,615 652,615 653,613 654,614 654,614 655,614 656,614 656,614 657,615 658,615 658,615 659,615 660,615 660,614 661,614 662,614 662,613 663,613 664,613 664,612 665,612 666,611 666,611 667,611 668,612 669,611 669,611 670,611 671,612 671,612 672,612 673,612 673,612 674,613 675,613 675,613 676,613 677,613 677,614 678,615 679,615 679,615 680,614 681,615 682,614 682,614 683,614 684,615 684,615 685,615 686,615 686,616 687,616 688,615 688,615 689,615 690,616 690,616 691,615 692,615 692,616 693,616 694,616 694,616 695,616 696,616 697,616 697,616 698,616 699,616 699,616 700,617 701,616 701,616 702,615 703,615 703,615 704,615 705,616 705,615 706,615 707,615 707,615 708,615 709,615 710,615 710,615 711,615 712,615 712,616 713,616 714,616 714,617 715,617 716,617 716,618 717,618 718,618 718,618 719,618 720,618 720,618 721,618 722,618 722,618 723,619 724,618 725,619 725,619 726,619 727,619 727,619 728,619 729,619 729,619 730,619 731,618 731,619 732,619 733,619 733,619 734,619 735,619 735,619 736,619 737,619 738,619 738,619 739,619 740,619 740,620 741,620 742,619 742,619 743,619 744,619 744,619 745,619 746,619 746,619 747,620 748,619 748,619 749,619 750,619 750,620 751,620 752,620 753,620 753,620 754,620 755,620 755,620 756,620 757,620 758,620 759,620 759,621 760,621 761,621 761,621 762,621 763,621 763,621 764,621 765,621 765,622 766,622 767,622 768,622 768,622 769,622 770,622 770,621 771,622 772,622 772,622 773,622 774,622 774,622 775,623 776,623 776,623 777,623 778,623 778,623 779,623 780,623 781,624 781,624 782,624 783,624 783,624 784,624 785,625 785,625 786,625 787,624 787,625 788,625 789,625 789,626 790,626 791,626 791,626 792,626 793,626 793,627 794,627 795,627 796,627 796,626 797,626 798,626 798,626 799,626 800,626 800,626 801,626 802,626 802,626 803,627 804,626 804,626 805,627 806,627 806,627 807,627 808,628 809,628 809,628 809,628 810,628 811,628 811,628 812,628 813,629 813,629 814,629 815,629 815,629 816,630 817,630 817,629 818,629 819,630 819,630 820,630 821,630 821,630 822,632 823,631 824,631 824,631 825,631 826,631 826,632 827,632 828,632 828,633 829,633 830,633 830,633 831,633 832,633 832,633 833,634 834,634 834,634 835,634 836,634 837,634 837,634 838,634 839,634 839,634 840,634 841,634 841,634 842,635 843,635 843,635 844,635 845,635 845,635 846,635 847,635 847,636 848,636 849,636 849,636 850,636 851,636 852,636 852,636 853,637 854,636 854,636 855,636 856,637 856,637 857,637 858,637 858,637 859,637 860,637 860,637 861,638 862,637 862,637 863,637 864,638 864,638 865,638 866,638 867,638 867,638 868,638 869,638 869,639 870,639 871,639 871,639 872,639 873,639 873,639 874,639 875,640 875,640 876,639 877,640 877,640 878,639 879,640 880,640 880,644 881,644 882,644 882,640 883,640 884,641 884,641 885,641 886,641 886,641 887,642 888,642 888,642 889,642 890,642 890,642 891,643 892,643 892,643 893,643 894,644 895,644 895,644 896,644 897,644 897,644 898,645 899,645 899,645 900,645 901,645 901,645 902,645 903,645 903,645 904,645 905,645 905,645 906,645 907,645 908,646 908,646 909,646 910,646 910,647 911,647 912,647 912,647 913,647 914,647 914,646 915,647 916,647 916,647 917,647 918,647 918,647 919,647 920,647 920,647 921,646 922,646 923,645 923,645 924,645 925,645 925,645 926,645 927,645 927,645 928,645 929,646 929,646 930,646 931,646 931,646 932,646 933,646 933,646 934,647 935,647 936,647 936,647 937,647 938,647 938,647 939,647 940,647 940,647 941,647 942,647 942,647 943,648 944,648 944,648 945,648 946,648 946,648 947,648 948,648 948,649 949,649 950,649 951,649 951,649 952,649 953,648 953,648 954,648 955,649 955,649 956,649 957,649 957,649 958,649 959,649 959,649 960,649 961,649 961,649 962,649 963,649 964,649 964,649 965,649 966,649 966,649 967,649 968,649 968,649 969,649 970,649 970,649 971,649 972,649 972,649 973,649 974,649 974,649 975,649 976,650 976,650 977,650 978,650 979,650 979,650 980,650 981,650 981,650 982,650 983,650 983,650 984,651 985,650 985,650 986,650 987,651 987,651 988,651 989,651 989,651 990,651 991,651 991,651 992,651 993,651 994,652 994,652 995,652 996,652 996,653 997,653 998,653 998,653 999,653 1000,653 1000,653 1001,653 1002,654 1002,654 1003,653 1004,653 1004,651 1005,651 1006,651 1007,651 1007,651 1008,651 1009,651 1009,651 1010,651 1011,651 1011,650 1012,650 1013,650 1013,650 1014,650 1015,650 1015,650 1016,650 1017,650 1017,650 1018,650 1019,650 1019,650 1020,650 1021,650 1022,650 1022,650 1023,650 1024,650 1024,650 1025,650 1026,651 1026,651 1027,651 1028,651 1028,651 1029,651 1030,651 1030,651 1031,651 1032,651 1032,651 1033,651 1034,651 1035,652 1035,651 1036,651 1037,651 1037,652 1038,652 1039,652 1039,652 1040,652 1041,651 1041,651 1042,651 1043,651 1043,651 1044,651 1045,652 1045,652 1046,652 1047,652 1047,652 1048,652 1049,652 1050,652 1050,652 1051,652 1052,652 1052,652 1053,652 1054,653 1054,652 1055,653 1056,653 1056,653 1057,653 1058,653 1058,653 1059,654 1060,654 1060,654 1061,654 1062,655 1063,655 1063,655 1064,655 1065,655 1065,655 1066,655 1067,656 1067,656 1068,656 1069,656 1069,656 1070,656 1071,656 1071,656 1072,656 1073,656 1073,656 1073,656 1074,656 1075,656 1075,657 1076,656 1077,656 1078,656 1078,657 1079,656 1080,656 1080,657 1081,657 1082,657 1082,657 1083,657 1084,657 1084,658 1085,657 1086,657 1086,657 1087,657 1088,657 1088,658 1089,658 1090,658 1090,658 1091,658 1092,658 1093,658 1093,658 1094,658 1095,658 1095,658 1096,659 1097,659 1097,659 1098,659 1099,659 1099,659 1100,659 1101,659 1101,659 1102,659 1103,659 1103,659 1104,659 1105,659 1106,659 1106,660 1107,660 1108,660 1108,660 1109,660 1110,660 1110,660 1111,660 1112,660 1112,660 1113,660 1114,661 1114,661 1115,661 1116,661 1116,662 1117,662 1118,662 1118,662 1119,662 1120,662 1121,662 1121,662 1122,662 1123,662 1123,662 1124,662 1125,662 1125,662 1126,662 1127,662 1127,663 1128,663 1129,663 1129,663 1130,663 1131,663 1131,663 1132,663 1133,663 1134,663 1134,664 1135,664 1136,664 1136,664 1137,664 1138,665 1138,665 1139,665 1140,665 1140,665 1141,665 1142,665 1142,665 1143,665 1144,665 1144,665 1145,665 1146,665 1146,666 1147,666 1148,666 1149,666 1149,666 1150,666 1151,667 1151,667 1152,667 1153,667 1153,667 1154,667 1155,667 1155,667 1156,667 1157,667 1157,667 1158,668 1159,667 1159,667 1160,668 1161,667 1162,667 1162,667 1163,668 1164,668 1164,668 1165,668 1166,669 1166,669 1167,669 1168,669 1168,669 1169,669 1169,669 1170,669 1170,669 1170,670 1171,670 1171,670 1172,670 1172,670 1172,670 1173,670 1173,670 1174,670 1174,670 1174,670 1174,670 1175,670 1175,670 1176,670 1176,670 1177,670 1177,670 1177,670 1177,670 1178,670 1178,670 1179,670 1179,670 1179,670 1179,670 1180,670 1181,670 1181,670 1182,670 1182,670 1183,670 1183,670 1183,670 1183,671 1184,671 1184,671 1185,671 1185,671 1185,671 1185,671 1186,671 1187,671 1187,671 1187,671 1187,671 1188,671 1188,671 1189,671 1189,671 1190,671 "/>
<polyline fill="none" opacity="1" stroke="#5419E6" stroke-width="2" points="961,738 962,738 966,738 972,737 974,736 978,736 981,736 981,735 982,732 983,732 985,732 986,732 991,731 993,731 994,731 995,731 996,731 1004,731 1009,731 1009,730 1011,730 1013,729 1016,729 1017,728 1018,728 1019,727 1019,727 1020,727 1023,727 1024,727 1024,727 1027,727 1028,726 1028,726 1029,725 1032,725 1033,725 1034,725 1035,724 1036,724 1038,724 1039,724 1039,724 1040,724 1043,724 1045,724 1045,724 1047,724 1047,723 1048,723 1050,723 1050,723 1051,723 1052,723 1053,723 1054,723 1055,723 1056,722 1057,723 1058,723 1058,723 1059,722 1060,721 1060,721 1061,721 1062,721 1063,722 1063,722 1064,722 1065,722 1066,722 1067,721 1067,721 1068,721 1069,721 1070,721 1071,721 1072,721 1073,721 1073,721 1073,721 1074,720 1075,720 1075,720 1076,720 1077,719 1078,719 1079,719 1080,718 1081,718 1082,718 1082,717 1083,717 1084,717 1084,717 1086,717 1087,717 1088,717 1088,716 1089,716 1090,716 1090,715 1091,715 1092,715 1093,714 1094,714 1095,714 1095,714 1096,714 1097,714 1097,714 1099,713 1099,713 1100,714 1102,713 1103,713 1103,713 1104,713 1106,714 1107,714 1108,714 1108,714 1110,713 1111,713 1112,713 1113,713 1115,712 1116,713 1116,713 1117,712 1118,712 1118,712 1119,712 1120,712 1121,712 1121,712 1122,712 1123,711 1123,711 1124,712 1125,712 1125,712 1126,712 1127,711 1127,711 1128,712 1129,711 1129,711 1130,711 1131,711 1131,711 1132,711 1133,711 1134,711 1135,711 1136,710 1136,710 1137,710 1138,710 1138,710 1139,709 1140,709 1141,709 1142,710 1142,710 1143,710 1144,710 1144,709 1145,709 1146,709 1146,709 1147,709 1148,708 1149,708 1149,708 1150,709 1151,709 1151,708 1152,708 1153,708 1153,708 1154,708 1155,708 1155,708 1156,708 1157,708 1157,708 1158,708 1159,708 1159,708 1160,708 1161,708 1162,708 1162,707 1164,708 1164,708 1165,708 1166,708 1166,708 1167,708 1168,708 1168,708 1169,708 1169,708 1170,708 1170,708 1170,708 1171,708 1171,708 1172,708 1172,708 1172,708 1173,708 1173,708 1174,708 1174,708 1174,708 1174,708 1175,708 1175,707 1176,707 1176,707 1177,707 1177,707 1177,707 1177,708 1178,708 1178,707 1179,707 1179,707 1179,707 1179,707 1180,707 1181,707 1181,707 1181,707 1182,707 1182,707 1183,707 1183,707 1183,707 1183,707 1184,707 1184,706 1185,706 1185,707 1185,707 1185,707 1186,707 1187,707 1187,706 1187,706 1187,706 1188,706 1188,706 1189,706 1189,707 1190,707 "/>
<polyline fill="none" opacity="1" stroke="#E619C8" stroke-width="2" points="1067,738 1068,737 1069,737 1069,736 1070,736 1071,735 1072,735 1073,735 1073,735 1073,735 1074,735 1075,734 1075,734 1076,734 1077,733 1078,733 1078,733 1079,733 1080,732 1080,732 1081,731 1082,730 1083,730 1084,730 1084,728 1085,727 1086,727 1086,726 1087,725 1088,725 1088,724 1089,724 1090,723 1090,723 1091,723 1092,723 1093,720 1093,719 1094,718 1095,717 1095,716 1096,716 1097,716 1097,716 1098,716 1099,716 1099,716 1100,714 1101,714 1101,714 1102,714 1103,714 1103,714 1104,713 1105,714 1106,713 1106,712 1107,712 1108,712 1108,711 1109,711 1110,710 1110,710 1111,709 1112,707 1112,707 1113,707 1114,706 1114,706 1115,706 1116,706 1116,704 1117,703 1118,702 1118,700 1119,700 1120,699 1121,699 1121,698 1122,698 1123,698 1123,697 1124,697 1125,696 1125,696 1126,695 1127,694 1127,694 1128,692 1129,691 1129,690 1130,690 1131,688 1131,688 1132,688 1133,687 1134,687 1134,685 1135,683 1136,683 1136,682 1137,681 1138,681 1138,681 1139,681 1140,680 1140,679 1141,677 1142,677 1142,676 1143,674 1144,674 1144,673 1145,673 1146,673 1146,672 1147,672 1148,672 1149,671 1149,671 1150,670 1151,670 1151,669 1152,669 1153,669 1153,668 1154,668 1155,667 1155,667 1156,666 1157,667 1157,665 1158,664 1159,664 1159,663 1160,662 1161,662 1162,663 1162,661 1163,660 1164,660 1164,660 1165,659 1166,657 1166,656 1167,655 1168,655 1168,654 1169,654 1169,653 1170,653 1170,653 1170,653 1171,653 1171,651 1172,651 1172,651 1172,650 1173,650 1173,649 1174,649 1174,646 1174,646 1174,646 1175,646 1175,645 1176,645 1176,644 1177,644 1177,643 1177,643 1177,642 1178,642 1178,642 1179,642 1179,641 1179,641 1179,640 1180,639 1181,639 1181,638 1181,638 1182,638 1182,638 1183,638 1183,637 1183,637 1183,637 1184,637 1184,637 1185,637 1185,636 1185,636 1185,636 1186,635 1187,635 1187,635 1187,635 1187,634 1188,634 1188,633 1189,633 1189,632 1190,632 "/>
<rect x="1078" y="315" width="107" height="119" opacity="1" fill="#FFFFFF" stroke="none"/>
<rect x="1078" y="315" width="107" height="119" opacity="1" fill="none" stroke="#000000"/>
<text x="1118" y="325" dy="0.76em" text-anchor="start" font-family="sans-serif" font-size="9.67741935483871" opacity="1" fill="#000000">
anyhow
</text>
<text x="1118" y="340" dy="0.76em" text-anchor="start" font-family="sans-serif" font-size="9.67741935483871" opacity="1" fill="#000000">
err-derive
</text>
<text x="1118" y="355" dy="0.76em" text-anchor="start" font-family="sans-serif" font-size="9.67741935483871" opacity="1" fill="#000000">
error-chain
</text>
<text x="1118" y="370" dy="0.76em" text-anchor="start" font-family="sans-serif" font-size="9.67741935483871" opacity="1" fill="#000000">
failure
</text>
<text x="1118" y="385" dy="0.76em" text-anchor="start" font-family="sans-serif" font-size="9.67741935483871" opacity="1" fill="#000000">
quick-error
</text>
<text x="1118" y="400" dy="0.76em" text-anchor="start" font-family="sans-serif" font-size="9.67741935483871" opacity="1" fill="#000000">
snafu
</text>
<text x="1118" y="415" dy="0.76em" text-anchor="start" font-family="sans-serif" font-size="9.67741935483871" opacity="1" fill="#000000">
thiserror
</text>
<polyline fill="none" opacity="1" stroke="#E61919" stroke-width="2" points="1088,330 1108,330 "/>
<polyline fill="none" opacity="1" stroke="#E6C819" stroke-width="2" points="1088,344 1108,344 "/>
<polyline fill="none" opacity="1" stroke="#54E619" stroke-width="2" points="1088,359 1108,359 "/>
<polyline fill="none" opacity="1" stroke="#19E68E" stroke-width="2" points="1088,374 1108,374 "/>
<polyline fill="none" opacity="1" stroke="#198EE6" stroke-width="2" points="1088,390 1108,390 "/>
<polyline fill="none" opacity="1" stroke="#5419E6" stroke-width="2" points="1088,404 1108,404 "/>
<polyline fill="none" opacity="1" stroke="#E619C8" stroke-width="2" points="1088,419 1108,419 "/>
</svg>
