<svg width="1200" height="800" viewBox="0 0 1200 800" xmlns="http://www.w3.org/2000/svg">
<rect x="0" y="0" width="1199" height="799" opacity="1" fill="#FFFFFF" stroke="none"/>
<line opacity="0.1" stroke="#000000" stroke-width="1" x1="60" y1="726" x2="1190" y2="726"/>
<line opacity="0.1" stroke="#000000" stroke-width="1" x1="60" y1="714" x2="1190" y2="714"/>
<line opacity="0.1" stroke="#000000" stroke-width="1" x1="60" y1="702" x2="1190" y2="702"/>
<line opacity="0.1" stroke="#000000" stroke-width="1" x1="60" y1="689" x2="1190" y2="689"/>
<line opacity="0.1" stroke="#000000" stroke-width="1" x1="60" y1="677" x2="1190" y2="677"/>
<line opacity="0.1" stroke="#000000" stroke-width="1" x1="60" y1="665" x2="1190" y2="665"/>
<line opacity="0.1" stroke="#000000" stroke-width="1" x1="60" y1="653" x2="1190" y2="653"/>
<line opacity="0.1" stroke="#000000" stroke-width="1" x1="60" y1="640" x2="1190" y2="640"/>
<line opacity="0.1" stroke="#000000" stroke-width="1" x1="60" y1="628" x2="1190" y2="628"/>
<line opacity="0.1" stroke="#000000" stroke-width="1" x1="60" y1="616" x2="1190" y2="616"/>
<line opacity="0.1" stroke="#000000" stroke-width="1" x1="60" y1="603" x2="1190" y2="603"/>
<line opacity="0.1" stroke="#000000" stroke-width="1" x1="60" y1="591" x2="1190" y2="591"/>
<line opacity="0.1" stroke="#000000" stroke-width="1" x1="60" y1="579" x2="1190" y2="579"/>
<line opacity="0.1" stroke="#000000" stroke-width="1" x1="60" y1="566" x2="1190" y2="566"/>
<line opacity="0.1" stroke="#000000" stroke-width="1" x1="60" y1="554" x2="1190" y2="554"/>
<line opacity="0.1" stroke="#000000" stroke-width="1" x1="60" y1="542" x2="1190" y2="542"/>
<line opacity="0.1" stroke="#000000" stroke-width="1" x1="60" y1="529" x2="1190" y2="529"/>
<line opacity="0.1" stroke="#000000" stroke-width="1" x1="60" y1="517" x2="1190" y2="517"/>
<line opacity="0.1" stroke="#000000" stroke-width="1" x1="60" y1="505" x2="1190" y2="505"/>
<line opacity="0.1" stroke="#000000" stroke-width="1" x1="60" y1="492" x2="1190" y2="492"/>
<line opacity="0.1" stroke="#000000" stroke-width="1" x1="60" y1="480" x2="1190" y2="480"/>
<line opacity="0.1" stroke="#000000" stroke-width="1" x1="60" y1="468" x2="1190" y2="468"/>
<line opacity="0.1" stroke="#000000" stroke-width="1" x1="60" y1="455" x2="1190" y2="455"/>
<line opacity="0.1" stroke="#000000" stroke-width="1" x1="60" y1="443" x2="1190" y2="443"/>
<line opacity="0.1" stroke="#000000" stroke-width="1" x1="60" y1="431" x2="1190" y2="431"/>
<line opacity="0.1" stroke="#000000" stroke-width="1" x1="60" y1="419" x2="1190" y2="419"/>
<line opacity="0.1" stroke="#000000" stroke-width="1" x1="60" y1="406" x2="1190" y2="406"/>
<line opacity="0.1" stroke="#000000" stroke-width="1" x1="60" y1="394" x2="1190" y2="394"/>
<line opacity="0.1" stroke="#000000" stroke-width="1" x1="60" y1="382" x2="1190" y2="382"/>
<line opacity="0.1" stroke="#000000" stroke-width="1" x1="60" y1="369" x2="1190" y2="369"/>
<line opacity="0.1" stroke="#000000" stroke-width="1" x1="60" y1="357" x2="1190" y2="357"/>
<line opacity="0.1" stroke="#000000" stroke-width="1" x1="60" y1="345" x2="1190" y2="345"/>
<line opacity="0.1" stroke="#000000" stroke-width="1" x1="60" y1="332" x2="1190" y2="332"/>
<line opacity="0.1" stroke="#000000" stroke-width="1" x1="60" y1="320" x2="1190" y2="320"/>
<line opacity="0.1" stroke="#000000" stroke-width="1" x1="60" y1="308" x2="1190" y2="308"/>
<line opacity="0.1" stroke="#000000" stroke-width="1" x1="60" y1="295" x2="1190" y2="295"/>
<line opacity="0.1" stroke="#000000" stroke-width="1" x1="60" y1="283" x2="1190" y2="283"/>
<line opacity="0.1" stroke="#000000" stroke-width="1" x1="60" y1="271" x2="1190" y2="271"/>
<line opacity="0.1" stroke="#000000" stroke-width="1" x1="60" y1="258" x2="1190" y2="258"/>
<line opacity="0.1" stroke="#000000" stroke-width="1" x1="60" y1="246" x2="1190" y2="246"/>
<line opacity="0.1" stroke="#000000" stroke-width="1" x1="60" y1="234" x2="1190" y2="234"/>
<line opacity="0.1" stroke="#000000" stroke-width="1" x1="60" y1="221" x2="1190" y2="221"/>
<line opacity="0.1" stroke="#000000" stroke-width="1" x1="60" y1="209" x2="1190" y2="209"/>
<line opacity="0.1" stroke="#000000" stroke-width="1" x1="60" y1="197" x2="1190" y2="197"/>
<line opacity="0.1" stroke="#000000" stroke-width="1" x1="60" y1="184" x2="1190" y2="184"/>
<line opacity="0.1" stroke="#000000" stroke-width="1" x1="60" y1="172" x2="1190" y2="172"/>
<line opacity="0.1" stroke="#000000" stroke-width="1" x1="60" y1="160" x2="1190" y2="160"/>
<line opacity="0.1" stroke="#000000" stroke-width="1" x1="60" y1="148" x2="1190" y2="148"/>
<line opacity="0.1" stroke="#000000" stroke-width="1" x1="60" y1="135" x2="1190" y2="135"/>
<line opacity="0.1" stroke="#000000" stroke-width="1" x1="60" y1="123" x2="1190" y2="123"/>
<line opacity="0.1" stroke="#000000" stroke-width="1" x1="60" y1="111" x2="1190" y2="111"/>
<line opacity="0.1" stroke="#000000" stroke-width="1" x1="60" y1="98" x2="1190" y2="98"/>
<line opacity="0.1" stroke="#000000" stroke-width="1" x1="60" y1="86" x2="1190" y2="86"/>
<line opacity="0.1" stroke="#000000" stroke-width="1" x1="60" y1="74" x2="1190" y2="74"/>
<line opacity="0.1" stroke="#000000" stroke-width="1" x1="60" y1="61" x2="1190" y2="61"/>
<line opacity="0.1" stroke="#000000" stroke-width="1" x1="60" y1="49" x2="1190" y2="49"/>
<line opacity="0.1" stroke="#000000" stroke-width="1" x1="60" y1="37" x2="1190" y2="37"/>
<line opacity="0.1" stroke="#000000" stroke-width="1" x1="60" y1="24" x2="1190" y2="24"/>
<line opacity="0.1" stroke="#000000" stroke-width="1" x1="60" y1="12" x2="1190" y2="12"/>
<text x="10" y="375" dy="0.76em" text-anchor="middle" font-family="sans-serif" font-size="9.67741935483871" opacity="1" fill="#000000" transform="rotate(270, 10, 375)">
Number of dependent crates
</text>
<line opacity="0.2" stroke="#000000" stroke-width="1" x1="60" y1="616" x2="1190" y2="616"/>
<line opacity="0.2" stroke="#000000" stroke-width="1" x1="60" y1="492" x2="1190" y2="492"/>
<line opacity="0.2" stroke="#000000" stroke-width="1" x1="60" y1="369" x2="1190" y2="369"/>
<line opacity="0.2" stroke="#000000" stroke-width="1" x1="60" y1="246" x2="1190" y2="246"/>
<line opacity="0.2" stroke="#000000" stroke-width="1" x1="60" y1="123" x2="1190" y2="123"/>
<polyline fill="none" opacity="1" stroke="#000000" stroke-width="1" points="59,10 59,740 "/>
<text x="50" y="616" dy="0.5ex" text-anchor="end" font-family="sans-serif" font-size="9.67741935483871" opacity="1" fill="#000000">
500
</text>
<polyline fill="none" opacity="1" stroke="#000000" stroke-width="1" points="54,616 59,616 "/>
<text x="50" y="492" dy="0.5ex" text-anchor="end" font-family="sans-serif" font-size="9.67741935483871" opacity="1" fill="#000000">
1000
</text>
<polyline fill="none" opacity="1" stroke="#000000" stroke-width="1" points="54,492 59,492 "/>
<text x="50" y="369" dy="0.5ex" text-anchor="end" font-family="sans-serif" font-size="9.67741935483871" opacity="1" fill="#000000">
1500
</text>
<polyline fill="none" opacity="1" stroke="#000000" stroke-width="1" points="54,369 59,369 "/>
<text x="50" y="246" dy="0.5ex" text-anchor="end" font-family="sans-serif" font-size="9.67741935483871" opacity="1" fill="#000000">
2000
</text>
<polyline fill="none" opacity="1" stroke="#000000" stroke-width="1" points="54,246 59,246 "/>
<text x="50" y="123" dy="0.5ex" text-anchor="end" font-family="sans-serif" font-size="9.67741935483871" opacity="1" fill="#000000">
2500
</text>
<polyline fill="none" opacity="1" stroke="#000000" stroke-width="1" points="54,123 59,123 "/>
<polyline fill="none" opacity="1" stroke="#000000" stroke-width="1" points="60,740 1190,740 "/>
<text x="60" y="750" dy="0.76em" text-anchor="middle" font-family="sans-serif" font-size="9.67741935483871" opacity="1" fill="#000000">
2015-09-24Z
</text>
<polyline fill="none" opacity="1" stroke="#000000" stroke-width="1" points="60,740 60,745 "/>
<text x="172" y="750" dy="0.76em" text-anchor="middle" font-family="sans-serif" font-size="9.67741935483871" opacity="1" fill="#000000">
2016-04-14Z
</text>
<polyline fill="none" opacity="1" stroke="#000000" stroke-width="1" points="172,740 172,745 "/>
<text x="285" y="750" dy="0.76em" text-anchor="middle" font-family="sans-serif" font-size="9.67741935483871" opacity="1" fill="#000000">
2016-11-03Z
</text>
<polyline fill="none" opacity="1" stroke="#000000" stroke-width="1" points="285,740 285,745 "/>
<text x="398" y="750" dy="0.76em" text-anchor="middle" font-family="sans-serif" font-size="9.67741935483871" opacity="1" fill="#000000">
2017-05-25Z
</text>
<polyline fill="none" opacity="1" stroke="#000000" stroke-width="1" points="398,740 398,745 "/>
<text x="511" y="750" dy="0.76em" text-anchor="middle" font-family="sans-serif" font-size="9.67741935483871" opacity="1" fill="#000000">
2017-12-14Z
</text>
<polyline fill="none" opacity="1" stroke="#000000" stroke-width="1" points="511,740 511,745 "/>
<text x="624" y="750" dy="0.76em" text-anchor="middle" font-family="sans-serif" font-size="9.67741935483871" opacity="1" fill="#000000">
2018-07-05Z
</text>
<polyline fill="none" opacity="1" stroke="#000000" stroke-width="1" points="624,740 624,745 "/>
<text x="736" y="750" dy="0.76em" text-anchor="middle" font-family="sans-serif" font-size="9.67741935483871" opacity="1" fill="#000000">
2019-01-24Z
</text>
<polyline fill="none" opacity="1" stroke="#000000" stroke-width="1" points="736,740 736,745 "/>
<text x="849" y="750" dy="0.76em" text-anchor="middle" font-family="sans-serif" font-size="9.67741935483871" opacity="1" fill="#000000">
2019-08-15Z
</text>
<polyline fill="none" opacity="1" stroke="#000000" stroke-width="1" points="849,740 849,745 "/>
<text x="962" y="750" dy="0.76em" text-anchor="middle" font-family="sans-serif" font-size="9.67741935483871" opacity="1" fill="#000000">
2020-03-05Z
</text>
<polyline fill="none" opacity="1" stroke="#000000" stroke-width="1" points="962,740 962,745 "/>
<text x="1075" y="750" dy="0.76em" text-anchor="middle" font-family="sans-serif" font-size="9.67741935483871" opacity="1" fill="#000000">
2020-09-24Z
</text>
<polyline fill="none" opacity="1" stroke="#000000" stroke-width="1" points="1075,740 1075,745 "/>
<text x="1188" y="750" dy="0.76em" text-anchor="middle" font-family="sans-serif" font-size="9.67741935483871" opacity="1" fill="#000000">
2021-04-15Z
</text>
<polyline fill="none" opacity="1" stroke="#000000" stroke-width="1" points="1188,740 1188,745 "/>
<polyline fill="none" opacity="1" stroke="#E61919" stroke-width="2" points="879,738 880,738 880,738 881,738 882,738 882,738 883,738 884,737 884,737 884,737 885,737 885,737 886,737 887,736 887,736 888,736 888,736 889,736 889,735 890,735 890,735 891,735 892,734 893,733 893,733 894,733 894,732 895,732 895,730 896,727 897,727 897,727 898,727 898,726 899,726 899,726 900,725 900,722 901,721 902,721 902,721 903,721 903,720 904,720 904,719 905,719 905,717 906,717 907,717 907,717 908,717 908,716 909,716 909,716 910,715 910,714 911,714 912,713 912,713 913,713 913,713 914,712 914,712 915,711 915,711 916,711 917,711 917,710 918,710 918,710 919,710 919,709 920,709 920,709 921,708 922,708 922,707 923,707 923,707 924,706 924,706 925,706 925,705 926,704 927,704 927,702 928,701 928,701 929,701 929,700 930,700 930,698 931,697 932,696 932,696 933,695 933,694 934,692 934,692 935,692 935,691 936,691 937,690 937,690 938,690 938,690 939,689 939,687 940,687 940,686 941,686 942,685 942,685 943,684 943,684 944,684 944,684 945,682 945,682 946,681 947,681 947,679 948,679 948,678 949,678 949,677 950,677 950,677 951,677 952,676 952,675 953,675 953,674 954,673 954,673 955,673 955,673 956,673 957,672 957,672 958,671 958,670 959,670 959,670 960,669 960,668 961,668 962,667 962,667 963,667 963,667 963,667 963,666 964,666 964,665 964,665 965,665 965,665 966,664 966,664 966,662 967,662 967,658 967,658 967,658 968,658 968,656 968,656 968,656 969,656 969,655 969,655 969,655 970,655 970,654 971,654 971,653 971,653 971,653 972,652 972,652 972,652 973,651 973,651 973,650 974,650 974,649 974,649 974,648 975,648 975,648 976,648 976,647 976,647 976,647 977,647 977,647 977,646 978,646 978,646 978,646 978,645 979,645 979,644 979,644 979,643 980,643 980,642 981,642 981,641 981,641 981,640 982,640 982,638 982,636 983,636 983,635 983,635 983,633 984,633 984,633 984,633 984,632 985,632 985,631 986,631 986,631 986,630 986,629 987,629 987,627 987,627 987,627 988,627 988,626 988,626 988,624 989,624 989,623 990,623 990,623 991,623 991,621 991,621 991,620 992,620 992,620 992,620 992,620 993,620 993,619 993,619 993,618 994,618 994,618 994,618 994,617 995,616 996,616 996,614 996,614 996,613 997,613 997,612 997,612 997,610 998,610 998,608 998,608 999,608 999,607 999,607 999,606 1000,606 1000,604 1001,604 1001,602 1001,602 1001,601 1002,601 1002,601 1002,601 1002,600 1003,600 1003,598 1003,598 1003,594 1004,594 1004,592 1004,592 1004,589 1005,589 1005,588 1006,588 1006,587 1006,587 1006,586 1007,586 1007,585 1007,585 1007,583 1008,583 1008,582 1008,582 1008,582 1009,581 1009,581 1009,578 1010,578 1010,576 1011,576 1011,574 1011,574 1011,573 1012,573 1012,572 1012,572 1012,571 1013,571 1013,570 1013,570 1013,569 1014,569 1014,567 1014,565 1015,565 1015,563 1016,563 1016,561 1016,561 1016,560 1017,560 1017,559 1017,559 1017,557 1018,555 1018,554 1019,554 1019,553 1019,552 1020,552 1020,552 1021,552 1021,550 1021,550 1021,549 1022,549 1022,548 1022,548 1022,547 1023,547 1023,546 1023,546 1023,546 1024,546 1024,545 1024,545 1024,545 1025,545 1025,544 1026,543 1026,543 1026,542 1027,542 1027,541 1027,541 1027,539 1028,539 1028,538 1028,538 1028,537 1029,537 1029,536 1029,536 1029,535 1030,535 1030,533 1031,533 1031,533 1031,533 1031,532 1032,532 1032,531 1032,531 1032,530 1033,530 1033,529 1033,529 1033,529 1034,529 1034,528 1034,526 1035,526 1035,526 1036,526 1036,525 1036,525 1036,524 1037,524 1037,524 1037,524 1037,523 1038,523 1038,522 1038,522 1038,520 1039,519 1039,519 1039,519 1040,519 1040,518 1041,518 1041,516 1041,516 1041,516 1042,516 1042,514 1042,514 1042,512 1043,512 1043,511 1043,511 1043,511 1044,511 1044,509 1044,509 1044,509 1045,509 1045,508 1046,508 1046,505 1046,505 1046,504 1047,504 1047,503 1047,503 1047,502 1048,502 1048,500 1048,500 1048,499 1049,499 1049,497 1049,496 1050,496 1050,494 1051,494 1051,492 1051,492 1051,490 1052,490 1052,489 1052,489 1052,487 1053,487 1053,485 1053,485 1053,484 1054,484 1054,482 1054,482 1054,481 1055,481 1055,479 1056,479 1056,478 1056,478 1056,477 1057,477 1057,476 1057,476 1057,476 1058,476 1058,473 1058,473 1058,472 1059,472 1059,472 1059,472 1059,471 1060,471 1060,469 1061,469 1061,467 1061,467 1061,466 1062,466 1062,463 1062,463 1062,461 1063,461 1063,455 1063,455 1063,452 1064,452 1064,452 1064,452 1064,451 1065,450 1066,450 1066,449 1066,449 1066,448 1067,445 1067,445 1067,445 1068,445 1068,443 1068,443 1068,442 1069,442 1069,439 1069,439 1069,439 1070,438 1070,436 1071,436 1071,434 1071,434 1071,433 1072,433 1072,430 1072,430 1072,429 1073,428 1073,428 1073,426 1074,426 1074,425 1074,425 1074,423 1075,422 1075,422 1076,422 1076,421 1076,421 1076,421 1077,421 1077,420 1077,420 1077,419 1078,419 1078,418 1078,418 1078,417 1079,417 1079,415 1079,415 1079,414 1080,414 1080,413 1081,413 1081,412 1081,412 1081,412 1082,412 1082,411 1082,411 1082,411 1083,411 1083,411 1083,411 1083,410 1084,410 1084,409 1084,409 1084,408 1085,408 1085,406 1086,406 1086,405 1086,405 1086,405 1087,405 1087,404 1087,404 1087,403 1088,403 1088,402 1088,402 1088,401 1089,401 1089,399 1089,399 1089,398 1090,398 1090,397 1091,397 1091,395 1091,395 1091,393 1092,393 1092,391 1092,391 1092,390 1093,390 1093,389 1093,389 1093,388 1094,388 1094,384 1094,384 1094,383 1095,383 1095,382 1096,382 1096,382 1096,382 1096,381 1097,381 1097,380 1097,380 1097,379 1098,379 1098,379 1098,379 1098,378 1099,376 1099,376 1099,373 1100,373 1100,371 1101,371 1101,369 1101,369 1101,369 1102,369 1102,366 1102,366 1102,366 1103,366 1103,365 1103,365 1103,364 1104,363 1104,363 1104,363 1104,362 1105,362 1105,362 1106,362 1106,361 1106,361 1106,360 1107,360 1107,359 1107,359 1107,357 1108,357 1108,356 1108,356 1108,355 1109,355 1109,354 1109,354 1109,352 1110,352 1111,352 1111,351 1111,351 1111,350 1112,350 1112,347 1112,347 1112,346 1113,345 1113,345 1113,345 1114,345 1114,343 1114,343 1114,342 1115,342 1115,340 1116,340 1116,340 1116,340 1116,339 1117,339 1117,338 1117,338 1117,338 1118,338 1118,337 1118,337 1118,336 1119,336 1119,335 1119,335 1119,334 1120,334 1120,334 1121,334 1121,334 1121,334 1121,333 1122,333 1122,332 1122,332 1122,332 1123,332 1123,331 1123,331 1123,331 1124,331 1124,329 1124,329 1124,327 1125,327 1125,327 1126,327 1126,327 1126,327 1126,327 1127,327 1127,326 1127,326 1127,323 1128,323 1128,320 1128,320 1128,318 1129,318 1129,317 1129,317 1129,316 1130,316 1130,314 1131,314 1131,311 1131,311 1131,308 1132,308 1132,305 1132,304 1132,303 1133,302 1133,302 1133,301 1134,301 1134,300 1134,300 1134,300 1135,299 1135,298 1136,298 1136,297 1136,297 1136,295 1137,295 1137,294 1137,294 1137,292 1138,292 1138,288 1138,288 1138,285 1139,285 1139,284 1139,284 1139,283 1140,283 1140,282 1141,282 1141,280 1141,280 1141,278 1142,278 1142,277 1142,277 1142,276 1143,276 1143,273 1143,273 1143,272 1144,272 1144,271 1144,271 1144,271 1145,271 1145,269 1146,269 1146,267 1146,267 1146,265 1147,265 1147,263 1147,263 1147,262 1148,262 1148,260 1148,260 1148,259 1149,259 1149,257 1149,256 1149,255 1150,255 1150,253 1151,253 1151,252 1151,252 1151,250 1152,250 1152,249 1152,249 1152,243 1153,243 1153,240 1153,240 1153,237 1154,237 1154,236 1154,236 1154,235 1155,235 1155,232 1156,232 1156,232 1156,232 1156,230 1157,230 1157,228 1157,228 1157,225 1158,225 1158,224 1158,224 1158,223 1159,223 1159,222 1159,222 1159,219 1160,219 1160,217 1161,217 1161,216 1161,216 1161,215 1162,215 1162,214 1162,214 1162,210 1163,209 1163,209 1163,208 1164,208 1164,203 1164,203 1164,199 1165,199 1165,197 1166,197 1166,196 1166,196 1166,195 1167,195 1167,194 1167,194 1167,192 1168,192 1168,191 1168,191 1168,190 1169,190 1169,187 1169,187 1169,186 1170,186 1170,185 1171,185 1171,184 1171,184 1171,182 1172,182 1172,180 1172,180 1172,178 1173,178 1173,178 1173,178 1173,176 1174,176 1174,175 1174,173 1175,173 1175,172 1176,172 1176,171 1176,171 1176,168 1177,168 1177,168 1177,168 1177,166 1178,166 1178,165 1178,165 1178,162 1179,162 1179,162 1179,162 1179,160 1180,160 1180,156 1181,156 1181,154 1181,154 1181,153 1182,153 1182,152 1182,152 1182,151 1183,151 1183,148 1183,148 1183,147 1184,145 1184,145 1184,144 1185,144 1185,143 1186,143 1186,140 1186,140 1186,139 1187,138 1187,138 1187,135 1188,135 1188,133 1188,133 1188,132 1189,132 1189,131 1190,131 "/>
<polyline fill="none" opacity="1" stroke="#E6C819" stroke-width="2" points="722,738 728,738 733,738 735,737 754,737 760,737 773,737 774,736 776,736 778,736 780,736 781,736 782,736 783,736 783,735 784,735 787,735 788,735 788,735 789,735 791,735 792,735 792,735 793,735 793,735 794,735 795,735 795,735 796,735 797,735 797,734 798,734 799,734 800,734 802,734 802,734 803,734 803,734 804,734 805,734 805,734 806,734 807,734 808,734 809,734 809,734 810,734 810,734 812,734 813,734 814,734 814,734 815,734 816,733 817,733 817,733 818,733 818,733 819,732 819,732 820,732 820,732 821,732 822,732 822,732 823,732 823,732 824,732 824,732 825,732 825,732 826,732 827,732 827,732 828,732 828,732 829,732 829,732 830,732 831,732 832,732 832,732 833,731 833,731 834,731 834,731 835,732 835,732 836,732 837,732 837,731 838,731 839,731 839,731 840,731 840,731 841,731 842,731 843,731 843,731 844,731 844,731 845,731 845,731 846,731 847,731 847,731 848,731 848,731 849,731 849,731 850,731 850,731 851,731 852,731 852,731 853,730 854,730 854,730 855,730 855,730 856,730 857,730 857,730 858,730 858,730 859,729 859,729 860,729 860,729 861,729 862,729 862,729 863,729 863,729 864,729 864,729 865,729 865,729 866,729 867,729 867,729 868,729 868,729 869,729 869,729 870,729 870,729 871,729 872,729 873,729 873,729 874,729 875,729 875,728 876,728 877,728 877,728 878,728 879,728 879,728 880,728 880,728 881,728 882,728 883,728 883,727 884,727 884,727 884,727 885,727 885,727 886,727 887,727 887,727 888,727 889,727 889,727 890,727 890,727 891,727 892,727 892,727 893,727 893,727 894,727 894,727 895,727 895,727 896,727 897,727 897,727 898,727 898,727 899,727 899,727 900,727 901,727 902,727 902,727 903,727 903,727 904,727 904,727 905,727 905,727 906,727 907,727 907,727 908,727 908,727 909,727 910,727 910,727 911,727 912,727 912,727 913,727 913,727 914,727 914,727 915,727 915,727 916,727 917,727 917,727 918,727 918,727 919,727 919,727 920,727 920,727 922,727 922,727 923,727 923,727 924,727 924,727 925,727 925,727 926,727 927,727 927,727 928,727 928,727 929,727 930,727 930,727 931,727 932,727 932,727 933,727 933,727 934,727 934,726 935,726 935,726 936,727 937,726 937,726 938,726 938,726 939,726 939,726 940,726 940,726 941,726 942,726 942,726 943,726 943,726 944,726 944,726 945,726 945,726 946,726 947,726 947,725 948,725 948,725 949,725 949,725 950,725 950,725 951,725 952,725 952,725 953,725 953,725 954,725 954,724 955,724 955,724 956,724 957,724 958,724 958,724 959,724 959,724 960,724 960,724 961,724 962,724 962,724 963,724 963,724 963,724 963,724 964,724 964,724 964,724 965,724 965,724 966,724 966,724 966,724 967,724 967,724 967,724 967,724 968,724 968,724 968,724 968,724 969,724 969,724 969,724 969,724 970,724 970,724 971,724 971,724 971,724 971,724 972,724 972,724 972,724 973,724 973,724 973,724 974,724 974,724 974,724 974,724 975,724 975,724 976,724 976,724 976,724 976,724 977,724 977,724 977,724 978,724 978,724 978,724 978,724 979,724 979,723 979,723 979,723 980,723 980,723 981,723 981,723 981,723 981,723 982,723 982,723 982,723 983,723 983,723 983,723 983,723 984,723 984,723 984,723 984,723 985,723 985,723 986,723 986,723 986,723 986,723 987,723 987,723 987,723 987,723 988,723 988,723 988,723 988,723 989,723 989,723 990,723 990,723 991,723 991,723 991,723 991,723 992,723 992,723 992,723 992,723 993,723 993,723 993,723 993,723 994,723 994,723 994,723 994,723 995,723 996,723 996,723 996,723 996,723 997,723 997,723 997,723 998,723 998,723 998,723 999,723 999,723 999,723 999,723 1000,723 1000,723 1001,723 1001,723 1001,723 1001,723 1002,723 1002,723 1002,723 1002,723 1003,723 1003,723 1003,723 1003,723 1004,723 1004,723 1004,723 1004,723 1005,723 1005,723 1006,723 1006,723 1006,723 1006,723 1007,723 1007,723 1007,723 1007,723 1008,723 1008,723 1008,723 1008,723 1009,723 1009,723 1009,723 1010,723 1010,723 1011,723 1011,723 1011,723 1011,723 1012,723 1012,723 1012,723 1012,723 1013,723 1013,723 1013,723 1013,723 1014,723 1014,723 1014,723 1015,723 1015,723 1016,723 1016,723 1016,723 1016,723 1017,723 1017,723 1017,723 1017,723 1018,723 1018,723 1019,723 1019,723 1019,723 1020,723 1020,723 1021,723 1021,723 1021,723 1021,723 1022,723 1022,723 1022,723 1022,723 1023,723 1023,723 1023,723 1023,723 1024,723 1024,723 1024,723 1024,723 1025,723 1025,723 1026,723 1026,723 1026,723 1027,723 1027,723 1027,723 1027,723 1028,723 1028,723 1028,723 1028,723 1029,723 1029,723 1029,723 1029,723 1030,723 1030,723 1031,723 1031,723 1031,723 1031,723 1032,723 1032,723 1032,723 1032,723 1033,723 1033,723 1033,723 1033,723 1034,723 1034,723 1034,723 1035,723 1035,723 1036,723 1036,723 1036,723 1036,723 1037,723 1037,723 1037,723 1037,723 1038,723 1038,723 1038,723 1039,723 1039,723 1039,723 1040,723 1040,723 1041,723 1041,723 1041,723 1041,723 1042,723 1042,723 1042,723 1042,723 1043,723 1043,723 1043,723 1043,723 1044,723 1044,723 1044,723 1044,723 1045,723 1045,723 1046,723 1046,723 1046,723 1046,723 1047,723 1047,723 1047,723 1047,723 1048,723 1048,723 1048,723 1048,723 1049,723 1049,723 1049,723 1050,723 1050,723 1051,723 1051,723 1051,723 1051,723 1052,723 1052,723 1052,723 1052,723 1053,723 1053,723 1053,723 1053,723 1054,723 1054,723 1054,723 1054,723 1055,723 1055,723 1056,723 1056,723 1056,723 1056,723 1057,723 1057,723 1057,723 1057,723 1058,723 1058,723 1058,723 1058,723 1059,723 1059,723 1059,723 1059,723 1060,723 1060,723 1061,723 1061,723 1061,723 1061,723 1062,723 1062,723 1062,723 1063,723 1063,723 1063,723 1063,723 1064,723 1064,723 1064,723 1064,723 1065,723 1066,723 1066,723 1066,723 1066,722 1067,722 1067,722 1067,722 1068,722 1068,722 1068,722 1068,722 1069,722 1069,722 1069,722 1069,722 1070,722 1070,722 1071,722 1071,722 1071,722 1071,722 1072,722 1072,722 1072,722 1072,722 1073,722 1073,722 1073,722 1074,722 1074,722 1074,722 1074,722 1075,722 1075,722 1076,722 1076,722 1076,722 1076,722 1077,722 1077,722 1077,722 1077,722 1078,722 1078,722 1078,722 1079,722 1079,722 1079,722 1079,722 1080,722 1080,722 1081,722 1081,722 1081,722 1081,722 1082,722 1082,722 1082,722 1083,722 1083,722 1083,722 1083,722 1084,722 1084,722 1084,722 1084,722 1085,722 1085,722 1086,722 1086,722 1086,722 1086,722 1087,722 1087,722 1087,722 1087,722 1088,722 1088,722 1088,722 1088,722 1089,722 1089,722 1089,722 1090,722 1090,722 1091,722 1091,722 1091,722 1091,722 1092,722 1092,722 1092,722 1092,722 1093,722 1093,722 1093,722 1093,722 1094,722 1094,722 1094,722 1094,722 1095,722 1095,722 1096,722 1096,722 1096,722 1096,722 1097,722 1097,722 1097,722 1097,722 1098,722 1098,722 1098,722 1098,722 1099,722 1099,722 1099,722 1100,722 1100,722 1101,722 1101,722 1101,722 1101,722 1102,722 1102,722 1102,722 1102,722 1103,722 1103,722 1103,722 1103,722 1104,722 1104,722 1104,722 1104,722 1105,722 1105,723 1106,723 1106,723 1106,723 1106,723 1107,723 1107,723 1107,723 1107,723 1108,723 1108,723 1108,723 1108,723 1109,723 1109,723 1109,723 1109,723 1110,723 1111,723 1111,723 1111,723 1111,723 1112,723 1112,722 1112,722 1112,722 1113,722 1113,722 1113,722 1113,722 1114,722 1114,722 1114,722 1114,722 1115,722 1115,722 1116,721 1116,721 1116,721 1116,721 1117,721 1117,721 1117,721 1117,721 1118,721 1118,721 1118,721 1118,721 1119,721 1119,721 1119,721 1119,721 1120,721 1120,721 1121,721 1121,721 1121,721 1121,721 1122,721 1122,721 1122,721 1122,721 1123,721 1123,721 1123,721 1123,721 1124,721 1124,721 1124,721 1124,721 1125,721 1125,721 1126,721 1126,721 1126,721 1126,721 1127,721 1127,721 1127,721 1128,721 1128,721 1128,721 1128,722 1129,722 1129,722 1129,722 1129,722 1130,722 1130,722 1131,722 1131,722 1131,722 1131,722 1132,722 1132,722 1132,722 1132,722 1133,721 1133,721 1133,721 1134,721 1134,721 1134,721 1134,721 1135,721 1135,721 1136,721 1136,721 1136,721 1136,721 1137,721 1137,721 1137,721 1138,721 1138,721 1138,721 1138,721 1139,721 1139,721 1139,721 1139,721 1140,721 1140,721 1141,721 1141,721 1141,721 1141,721 1142,721 1142,721 1142,721 1143,721 1143,721 1143,721 1143,721 1144,721 1144,721 1144,721 1144,721 1145,721 1145,721 1146,721 1146,721 1146,721 1146,721 1147,721 1147,721 1147,721 1148,721 1148,721 1148,721 1148,721 1149,721 1149,721 1149,721 1149,721 1150,721 1150,721 1151,721 1151,721 1151,721 1151,721 1152,721 1152,721 1152,721 1152,721 1153,721 1153,721 1153,721 1153,721 1154,721 1154,721 1154,721 1154,721 1155,721 1155,721 1156,721 1156,721 1156,721 1156,721 1157,721 1157,721 1157,721 1157,721 1158,721 1158,721 1158,721 1158,721 1159,721 1159,721 1159,721 1159,721 1160,721 1160,721 1161,721 1161,721 1161,721 1161,721 1162,721 1162,721 1162,721 1162,721 1163,721 1163,721 1163,721 1164,721 1164,721 1164,721 1164,721 1165,721 1165,721 1166,721 1166,721 1166,721 1166,721 1167,721 1167,721 1167,721 1167,721 1168,721 1168,721 1168,721 1168,721 1169,721 1169,721 1169,721 1169,721 1170,721 1170,721 1171,721 1171,721 1171,721 1171,721 1172,721 1172,721 1172,721 1172,721 1173,721 1173,721 1173,721 1173,722 1174,722 1174,722 1174,722 1175,722 1175,722 1176,722 1176,722 1176,722 1176,722 1177,722 1177,722 1177,722 1177,721 1178,721 1178,721 1178,721 1178,721 1179,721 1179,721 1179,721 1179,721 1180,721 1180,721 1181,721 1181,721 1181,721 1181,721 1182,721 1182,721 1182,721 1182,721 1183,721 1183,721 1183,721 1183,721 1184,721 1184,721 1184,722 1185,722 1185,722 1186,722 1186,722 1186,722 1186,722 1187,722 1187,722 1187,722 1188,722 1188,722 1188,722 1188,722 1189,722 1190,722 "/>
<polyline fill="none" opacity="1" stroke="#54E619" stroke-width="2" points="210,738 211,738 215,738 220,738 226,738 226,737 227,737 231,737 241,737 242,737 243,736 247,736 248,736 249,735 250,735 251,735 253,735 255,735 256,735 257,734 258,734 260,733 263,733 265,733 265,733 267,732 267,731 268,730 269,730 272,730 273,730 274,729 275,729 276,729 277,729 277,729 278,729 278,729 279,729 280,728 281,728 281,728 282,728 282,728 283,728 283,728 284,728 285,728 285,727 286,727 286,727 287,727 287,726 288,726 289,725 290,725 290,725 291,725 292,724 295,724 296,724 296,724 297,724 297,723 299,723 299,723 300,723 300,722 301,721 302,721 303,720 304,720 304,720 305,719 305,719 306,719 307,719 307,718 309,718 309,718 310,717 310,717 311,716 311,715 312,714 312,713 313,712 314,712 314,712 315,712 315,712 316,711 316,710 317,710 317,709 319,709 319,709 320,708 320,708 321,708 321,708 322,708 322,707 323,707 324,707 324,707 325,706 325,706 326,706 326,706 327,706 327,706 329,705 329,705 331,705 331,704 332,704 332,704 333,704 334,704 334,704 335,703 335,703 336,703 336,703 337,703 337,703 338,703 339,702 339,702 340,701 340,701 341,701 341,701 342,700 342,699 344,699 344,699 345,698 345,698 346,698 346,698 347,698 347,697 348,697 349,697 349,697 350,697 350,696 351,696 351,696 352,696 352,695 353,695 354,694 354,694 355,694 355,693 356,693 356,693 357,692 357,692 358,692 359,692 359,692 360,692 360,690 361,690 361,689 362,689 362,689 363,689 364,688 364,688 365,687 365,687 366,687 366,686 367,686 367,686 368,686 369,686 369,686 370,685 370,685 371,685 371,685 372,685 372,685 373,685 374,685 374,684 375,684 375,683 376,683 376,683 377,682 377,682 378,682 379,681 379,681 380,681 380,680 381,680 381,680 382,680 382,680 383,680 384,679 384,678 385,677 385,677 386,676 386,676 387,676 387,675 388,675 389,675 389,675 390,674 390,674 391,674 391,673 392,673 392,672 393,671 394,670 394,670 395,670 395,670 396,669 396,668 397,668 397,668 398,668 399,667 399,667 400,667 400,667 401,667 401,666 402,665 402,665 403,665 404,665 404,665 405,665 405,664 406,664 406,664 407,664 407,663 408,663 409,663 409,662 410,662 410,661 411,661 411,660 412,660 412,660 413,659 414,659 414,658 415,658 415,658 416,657 416,657 417,657 417,656 418,656 419,656 419,655 420,655 420,655 421,655 421,655 422,655 422,655 423,654 424,654 424,654 425,653 425,653 426,653 426,652 427,651 427,651 428,651 429,649 429,649 430,648 430,647 431,647 431,647 432,646 432,645 433,645 434,645 434,644 435,644 435,643 436,643 436,643 437,643 437,642 438,642 439,642 439,641 440,642 440,641 441,641 441,641 442,640 442,640 443,640 444,638 444,638 445,638 445,638 446,637 446,637 447,636 447,636 448,636 449,635 449,635 450,634 450,634 451,634 451,633 452,632 452,632 453,632 454,630 454,630 455,630 455,629 456,629 456,628 457,628 457,627 458,627 459,627 459,627 460,626 460,626 461,626 461,626 462,626 462,626 463,626 464,626 464,626 465,625 465,625 466,620 466,619 467,619 467,619 468,618 469,617 469,617 470,616 470,616 471,615 471,615 472,615 472,614 473,615 474,614 474,614 475,613 475,613 476,612 476,611 477,611 477,611 478,611 479,611 479,611 480,610 480,610 481,610 481,610 482,610 482,610 483,610 484,610 484,609 485,609 485,609 486,609 486,608 487,608 487,608 488,608 489,608 489,608 490,607 490,606 491,605 491,604 492,604 492,604 493,604 494,604 494,603 495,602 495,602 496,602 496,602 497,602 497,602 498,602 499,601 499,601 500,601 500,601 501,601 501,601 502,601 502,600 503,600 504,599 504,599 505,599 505,598 506,598 506,597 507,597 507,597 508,597 509,596 509,596 510,597 510,597 511,597 511,596 512,596 513,596 513,595 514,595 514,595 515,595 515,594 516,594 516,593 517,593 518,593 518,592 519,591 519,591 520,590 520,590 521,589 521,589 522,589 523,589 523,589 524,589 524,588 525,588 525,588 526,588 526,588 527,587 528,587 528,587 529,587 529,587 530,587 530,587 531,586 531,586 532,586 533,586 533,586 534,586 534,586 535,586 535,586 536,586 536,587 537,587 538,587 538,586 539,586 539,586 540,586 540,586 541,586 541,585 542,585 543,585 543,585 544,585 544,585 545,584 545,584 546,583 546,583 547,583 548,584 548,583 549,583 549,583 550,583 550,583 551,583 551,583 552,583 553,583 553,584 554,584 554,584 555,585 555,585 556,586 556,586 557,585 558,585 558,585 559,585 559,585 560,584 560,584 561,583 561,583 562,583 563,583 563,583 564,584 564,583 565,583 565,583 566,583 566,583 567,583 568,583 568,583 569,583 569,583 570,582 570,582 571,582 571,582 572,581 573,581 573,582 574,582 574,582 575,582 575,582 576,582 576,582 577,582 578,582 578,582 579,582 579,582 580,582 580,582 581,582 581,582 582,582 583,581 583,581 584,581 584,581 585,581 585,581 586,581 586,581 587,580 588,580 588,580 589,580 589,580 590,580 590,580 591,580 591,580 592,579 593,580 593,580 594,580 594,580 595,580 595,580 596,580 596,580 597,579 598,579 598,579 599,579 599,578 600,579 600,579 601,579 601,579 602,580 603,580 603,580 604,580 604,580 605,580 605,580 606,580 606,579 607,579 608,580 608,579 609,579 609,579 610,579 610,579 611,579 611,579 612,579 613,579 613,579 614,579 614,579 615,579 615,579 616,578 616,578 617,578 618,578 618,579 619,579 619,579 620,579 620,579 621,579 621,579 622,578 623,578 623,578 624,578 624,578 625,578 625,578 626,578 626,578 627,578 628,577 628,577 629,578 629,578 630,576 630,576 631,576 631,576 632,576 633,576 633,577 634,577 634,577 635,577 635,577 636,577 636,577 637,577 638,577 638,577 639,577 639,577 640,577 640,578 641,578 641,578 642,578 643,578 643,577 644,577 644,577 645,577 645,578 646,578 646,578 647,578 648,578 648,578 649,578 649,578 650,578 650,577 651,577 651,576 652,576 653,576 653,576 654,576 654,576 655,576 655,576 656,576 656,576 657,576 658,576 658,576 659,575 659,575 660,575 660,575 661,575 661,576 662,576 663,575 663,575 664,575 664,575 665,575 665,575 666,575 666,575 667,575 668,575 668,575 669,574 669,574 670,574 670,574 670,574 671,574 671,573 672,574 673,574 673,574 674,575 674,575 675,574 675,574 676,574 676,574 677,574 678,574 678,574 679,574 679,574 680,574 680,573 681,573 681,573 682,573 683,574 683,574 684,573 684,573 685,573 685,573 686,573 686,573 687,573 688,573 688,573 689,573 689,573 690,573 690,572 691,572 691,572 692,572 693,572 693,572 694,572 694,572 695,579 695,579 696,579 696,579 697,579 698,579 698,578 699,578 699,578 700,578 700,578 701,578 701,578 702,578 703,578 703,578 704,578 704,578 705,578 705,578 706,578 706,578 707,578 708,578 708,577 709,577 709,577 710,578 710,578 711,578 711,578 712,578 713,578 713,578 714,578 714,578 715,578 715,578 716,578 716,578 717,578 718,578 718,578 719,578 719,578 720,578 720,578 721,578 721,578 722,578 723,578 723,578 724,578 724,578 725,578 725,579 726,579 726,579 727,579 728,579 728,579 729,579 729,579 730,579 730,579 731,579 731,579 732,579 733,579 733,579 734,579 734,579 735,578 735,578 736,578 736,578 737,578 738,578 738,578 739,577 739,577 740,577 740,577 741,577 742,577 742,577 743,577 743,577 744,578 744,578 745,578 745,578 746,578 747,578 747,578 748,578 748,578 749,578 749,578 750,578 750,577 751,577 752,576 752,576 753,576 753,576 754,576 754,576 755,577 755,577 756,577 757,577 757,577 758,577 758,577 759,577 759,577 760,577 760,577 761,577 762,577 762,577 763,577 763,577 764,577 764,577 765,577 765,577 766,577 767,577 767,577 768,577 768,577 769,577 769,577 770,577 770,577 771,577 772,577 772,577 773,577 773,577 774,577 774,577 775,577 775,577 776,577 777,576 777,576 778,576 778,576 779,576 779,576 780,576 780,576 781,576 782,576 782,576 783,576 783,576 784,576 784,576 785,576 785,576 786,576 787,577 787,577 788,577 788,576 789,576 789,576 790,577 790,577 791,577 792,577 792,576 793,577 793,577 794,577 794,577 795,577 795,577 796,577 797,577 797,577 798,577 798,577 799,577 799,577 800,577 800,577 801,577 802,577 802,577 803,577 803,577 804,577 804,577 805,577 805,577 806,576 807,576 807,576 808,575 808,575 809,576 809,576 810,576 810,576 811,576 812,576 812,575 813,575 813,576 814,576 814,576 815,576 815,576 816,576 817,576 817,576 818,576 818,576 819,576 819,576 820,576 820,576 821,576 822,576 822,576 823,576 823,576 824,576 824,576 825,576 825,576 826,576 827,576 827,576 828,576 828,576 829,576 829,576 830,576 830,575 831,575 832,575 832,575 833,575 833,575 834,575 834,575 835,575 835,575 836,575 837,575 837,575 838,575 838,575 839,575 839,575 840,575 840,575 841,575 842,575 842,575 843,575 843,575 844,574 844,574 845,574 845,574 846,574 847,574 847,574 848,574 848,574 849,575 849,575 850,575 850,574 851,574 852,574 852,574 853,574 853,574 854,574 854,574 855,574 855,574 856,574 857,574 857,574 858,574 858,574 859,574 859,574 860,574 860,575 861,574 862,574 862,574 863,574 863,574 864,574 864,574 865,574 865,574 866,574 867,574 867,574 868,574 868,574 869,574 869,574 870,574 870,574 871,573 872,573 872,573 873,573 873,573 874,573 874,573 875,572 875,572 876,572 877,573 877,573 878,573 878,573 879,572 879,572 880,572 880,572 881,572 882,572 882,572 883,572 883,573 884,572 884,572 884,573 885,573 885,573 886,573 887,573 887,573 888,573 888,573 889,572 889,572 890,572 890,572 891,573 892,573 892,573 893,573 893,573 894,573 894,572 895,573 895,572 896,572 897,572 897,571 898,571 898,571 899,571 899,571 900,571 900,571 901,571 902,571 902,572 903,572 903,572 904,572 904,571 905,571 905,572 906,572 907,572 907,572 908,572 908,572 909,572 909,572 910,572 910,572 911,572 912,572 912,572 913,572 913,572 914,572 914,572 915,572 915,572 916,572 917,572 917,572 918,572 918,572 919,572 919,572 920,572 920,572 921,572 922,572 922,572 923,572 923,571 924,571 924,571 925,571 925,571 926,571 927,571 927,571 928,571 928,571 929,571 929,571 930,571 930,571 931,572 932,572 932,572 933,572 933,572 934,572 934,572 935,573 935,573 936,573 937,573 937,573 938,573 938,573 939,573 939,573 940,573 940,573 941,574 942,574 942,574 943,573 943,573 944,573 944,573 945,573 945,573 946,573 947,573 947,573 948,573 948,573 949,572 949,572 950,572 950,572 951,572 952,572 952,572 953,572 953,572 954,572 954,572 955,572 955,572 956,572 957,572 957,572 958,572 958,571 959,571 959,571 960,571 960,571 961,571 962,571 962,571 963,571 963,571 963,571 963,571 964,572 964,572 964,572 965,572 965,572 966,572 966,572 966,572 967,572 967,572 967,572 967,572 968,572 968,572 968,572 968,572 969,572 969,572 969,572 969,572 970,572 970,572 971,572 971,572 971,572 971,572 972,573 972,573 972,573 973,573 973,573 973,573 974,573 974,573 974,573 974,573 975,573 975,573 976,573 976,573 976,573 976,573 977,573 977,573 977,572 978,572 978,572 978,572 978,572 979,572 979,573 979,573 979,572 980,572 980,573 981,573 981,573 981,573 981,573 982,573 982,573 982,573 983,573 983,573 983,573 983,573 984,573 984,573 984,573 984,573 985,573 985,573 986,573 986,573 986,573 986,573 987,573 987,573 987,573 987,573 988,573 988,573 988,573 988,573 989,573 989,573 990,573 990,573 991,573 991,573 991,573 991,573 992,573 992,573 992,573 992,573 993,573 993,573 993,573 993,573 994,573 994,573 994,573 994,573 995,573 996,573 996,573 996,573 996,573 997,573 997,573 997,573 997,573 998,573 998,573 998,573 999,573 999,573 999,573 999,573 1000,573 1000,572 1001,572 1001,572 1001,572 1001,572 1002,572 1002,572 1002,572 1002,572 1003,572 1003,572 1003,572 1003,572 1004,572 1004,572 1004,572 1004,572 1005,572 1005,572 1006,572 1006,572 1006,572 1006,572 1007,572 1007,573 1007,573 1007,573 1008,573 1008,572 1008,572 1008,572 1009,572 1009,572 1009,572 1010,572 1010,572 1011,572 1011,572 1011,572 1011,572 1012,572 1012,572 1012,572 1012,572 1013,572 1013,572 1013,572 1013,572 1014,572 1014,572 1014,572 1015,572 1015,572 1016,572 1016,572 1016,572 1016,572 1017,572 1017,573 1017,573 1017,573 1018,573 1018,573 1019,573 1019,573 1019,573 1020,573 1020,572 1021,572 1021,572 1021,572 1021,572 1022,572 1022,572 1022,572 1022,572 1023,572 1023,571 1023,571 1023,572 1024,572 1024,571 1024,571 1024,571 1025,571 1025,571 1026,571 1026,571 1026,571 1027,571 1027,571 1027,571 1027,571 1028,571 1028,571 1028,571 1028,571 1029,571 1029,571 1029,571 1029,571 1030,571 1030,571 1031,571 1031,571 1031,571 1031,571 1032,571 1032,571 1032,571 1032,571 1033,571 1033,571 1033,571 1033,571 1034,571 1034,571 1034,571 1035,571 1035,571 1036,571 1036,571 1036,571 1036,570 1037,570 1037,570 1037,570 1037,570 1038,570 1038,570 1038,570 1038,570 1039,571 1039,571 1039,570 1040,570 1040,570 1041,570 1041,570 1041,570 1041,570 1042,570 1042,570 1042,570 1042,571 1043,571 1043,570 1043,570 1043,570 1044,570 1044,570 1044,570 1044,570 1045,570 1045,569 1046,569 1046,569 1046,569 1046,569 1047,569 1047,569 1047,569 1047,569 1048,569 1048,569 1048,569 1048,569 1049,569 1049,569 1049,569 1050,569 1050,569 1051,569 1051,569 1051,569 1051,569 1052,569 1052,569 1052,569 1052,569 1053,569 1053,569 1053,569 1053,569 1054,569 1054,569 1054,569 1054,569 1055,569 1055,569 1056,569 1056,569 1056,569 1056,569 1057,569 1057,569 1057,569 1057,569 1058,569 1058,569 1058,569 1058,569 1059,569 1059,569 1059,569 1059,569 1060,569 1060,569 1061,569 1061,569 1061,569 1061,569 1062,569 1062,569 1062,569 1062,569 1063,569 1063,569 1063,569 1063,569 1064,569 1064,569 1064,569 1064,569 1065,569 1066,569 1066,569 1066,569 1066,569 1067,569 1067,569 1067,569 1068,569 1068,569 1068,569 1068,569 1069,569 1069,569 1069,569 1069,569 1070,569 1070,569 1071,569 1071,569 1071,569 1071,569 1072,569 1072,569 1072,569 1072,569 1073,569 1073,569 1073,569 1074,569 1074,569 1074,569 1074,569 1075,569 1075,569 1076,569 1076,569 1076,569 1076,569 1077,569 1077,569 1077,569 1077,569 1078,569 1078,569 1078,569 1078,569 1079,569 1079,569 1079,569 1079,569 1080,569 1080,569 1081,569 1081,569 1081,569 1081,569 1082,569 1082,569 1082,569 1082,569 1083,569 1083,569 1083,569 1083,569 1084,569 1084,569 1084,569 1084,569 1085,569 1085,570 1086,570 1086,570 1086,570 1086,569 1087,569 1087,569 1087,569 1087,569 1088,569 1088,570 1088,570 1088,570 1089,570 1089,569 1089,569 1089,570 1090,570 1090,570 1091,570 1091,570 1091,570 1091,570 1092,570 1092,570 1092,570 1092,570 1093,570 1093,570 1093,570 1093,570 1094,570 1094,570 1094,570 1094,570 1095,570 1095,570 1096,570 1096,570 1096,570 1096,570 1097,570 1097,570 1097,570 1097,570 1098,570 1098,570 1098,570 1098,570 1099,570 1099,570 1099,570 1100,570 1100,570 1101,570 1101,570 1101,570 1101,570 1102,570 1102,569 1102,569 1102,569 1103,569 1103,569 1103,569 1103,569 1104,569 1104,569 1104,569 1104,569 1105,569 1105,570 1106,570 1106,569 1106,569 1106,569 1107,569 1107,569 1107,569 1107,569 1108,569 1108,569 1108,569 1108,569 1109,569 1109,570 1109,570 1109,570 1110,570 1111,570 1111,570 1111,570 1111,570 1112,570 1112,569 1112,569 1112,569 1113,569 1113,569 1113,569 1113,569 1114,569 1114,569 1114,569 1114,569 1115,569 1115,569 1116,569 1116,569 1116,569 1116,570 1117,570 1117,570 1117,570 1117,570 1118,570 1118,570 1118,570 1118,570 1119,570 1119,570 1119,570 1119,570 1120,570 1120,570 1121,570 1121,570 1121,570 1121,569 1122,569 1122,569 1122,569 1122,569 1123,569 1123,569 1123,569 1123,569 1124,569 1124,569 1124,569 1124,570 1125,570 1125,570 1126,570 1126,570 1126,570 1126,570 1127,570 1127,570 1127,570 1127,570 1128,570 1128,570 1128,570 1128,570 1129,570 1129,570 1129,570 1129,570 1130,570 1130,569 1131,569 1131,569 1131,569 1131,569 1132,569 1132,569 1132,569 1132,570 1133,569 1133,569 1133,570 1134,570 1134,570 1134,570 1134,569 1135,569 1135,569 1136,569 1136,569 1136,569 1136,569 1137,569 1137,569 1137,569 1137,569 1138,569 1138,569 1138,569 1138,569 1139,569 1139,569 1139,569 1139,569 1140,569 1140,569 1141,569 1141,570 1141,570 1141,570 1142,570 1142,570 1142,570 1142,570 1143,570 1143,570 1143,570 1143,570 1144,570 1144,570 1144,570 1144,570 1145,570 1145,569 1146,569 1146,569 1146,569 1146,569 1147,569 1147,569 1147,569 1147,569 1148,569 1148,569 1148,569 1148,569 1149,569 1149,569 1149,569 1149,569 1150,569 1150,569 1151,569 1151,569 1151,569 1151,569 1152,569 1152,569 1152,569 1152,569 1153,569 1153,569 1153,569 1153,569 1154,569 1154,569 1154,569 1154,569 1155,569 1155,569 1156,569 1156,569 1156,569 1156,569 1157,569 1157,569 1157,569 1157,569 1158,569 1158,569 1158,569 1158,569 1159,569 1159,569 1159,569 1159,569 1160,569 1160,569 1161,569 1161,569 1161,569 1161,569 1162,569 1162,569 1162,569 1162,570 1163,570 1163,570 1163,570 1164,570 1164,570 1164,570 1164,570 1165,570 1165,570 1166,570 1166,570 1166,570 1166,570 1167,570 1167,570 1167,570 1167,570 1168,570 1168,570 1168,570 1168,570 1169,570 1169,570 1169,570 1169,570 1170,570 1170,570 1171,570 1171,570 1171,570 1171,570 1172,570 1172,570 1172,570 1172,570 1173,570 1173,570 1173,570 1173,570 1174,570 1174,570 1174,570 1175,570 1175,570 1176,570 1176,570 1176,570 1176,570 1177,570 1177,570 1177,570 1177,570 1178,570 1178,570 1178,570 1178,570 1179,570 1179,570 1179,570 1179,570 1180,570 1180,570 1181,570 1181,570 1181,570 1181,569 1182,569 1182,569 1182,569 1182,569 1183,569 1183,569 1183,569 1183,569 1184,570 1184,570 1184,570 1185,570 1185,570 1186,570 1186,570 1186,570 1186,570 1187,570 1187,570 1187,571 1188,571 1188,571 1188,571 1188,571 1189,571 1189,571 1190,571 "/>
<polyline fill="none" opacity="1" stroke="#19E68E" stroke-width="2" points="495,738 496,738 497,738 498,737 499,737 499,737 500,736 501,736 501,735 502,735 502,734 503,733 504,733 504,733 505,732 505,732 506,731 506,731 509,731 509,730 510,729 510,729 511,728 511,728 512,727 514,727 515,726 515,725 516,725 517,725 518,725 519,724 519,723 520,723 520,722 521,722 521,722 522,721 523,721 523,720 524,720 525,718 525,718 526,718 526,718 527,717 528,717 528,717 529,716 529,715 530,715 530,715 531,715 531,715 532,714 533,714 533,713 534,713 534,712 535,712 535,711 536,710 536,710 537,709 538,708 538,708 539,707 539,707 540,706 540,706 541,705 541,705 542,703 543,703 543,703 544,703 544,702 545,702 545,702 546,702 546,702 547,702 548,701 548,700 549,699 549,698 550,698 550,696 551,696 551,695 552,694 553,693 553,692 554,690 554,690 555,690 555,689 556,688 556,687 557,685 558,685 558,684 559,684 559,683 560,683 560,682 561,682 561,682 562,681 563,681 563,680 564,679 564,679 565,678 565,678 566,677 566,677 567,676 568,676 568,675 569,675 569,674 570,674 570,673 571,673 571,672 572,671 573,671 573,670 574,669 574,669 575,668 575,668 576,666 576,664 577,663 578,662 578,661 579,660 579,659 580,658 580,658 581,657 581,657 582,656 583,656 583,655 584,653 584,652 585,651 585,650 586,650 586,649 587,648 588,647 588,647 589,645 589,644 590,644 590,644 591,643 591,643 592,641 593,641 593,640 594,639 594,638 595,636 595,636 596,635 596,635 597,635 598,634 598,633 599,633 599,633 600,632 600,630 601,630 601,629 602,627 603,625 603,624 604,623 604,623 605,622 605,622 606,622 606,621 607,621 608,620 608,620 609,619 609,619 610,618 611,618 611,617 612,617 613,616 613,616 614,615 614,613 615,612 615,610 616,610 616,608 617,608 618,608 618,608 619,608 619,607 620,606 620,606 621,605 621,605 622,604 623,604 623,603 624,602 624,602 625,602 625,601 626,601 626,600 627,599 628,599 628,598 629,597 629,597 630,597 630,596 631,596 631,596 632,595 633,594 633,592 634,591 634,591 635,590 635,589 636,589 636,589 637,588 638,588 638,587 639,586 639,586 640,585 640,584 641,583 641,582 642,582 643,582 643,581 644,581 644,581 645,580 645,579 646,579 646,578 647,577 648,577 648,575 649,574 649,574 650,572 650,572 651,571 651,570 652,570 653,569 653,569 654,568 654,568 655,568 655,567 656,566 656,566 657,565 658,564 658,563 659,562 659,562 660,561 660,560 661,559 661,558 662,558 663,557 663,557 664,557 664,556 665,554 665,554 666,553 666,552 667,551 668,550 668,549 669,549 669,547 670,547 670,546 670,545 671,545 671,544 672,543 673,542 673,540 674,537 674,536 675,535 675,535 676,534 676,533 677,533 678,532 678,532 679,531 679,531 680,530 680,530 681,530 681,529 682,529 683,528 683,527 684,526 684,524 685,523 685,523 686,522 686,522 687,521 688,520 688,519 689,518 689,517 690,516 690,515 691,515 691,515 692,515 693,513 693,514 694,513 694,511 695,501 695,500 696,500 696,500 697,499 698,499 698,498 699,497 699,497 700,495 700,494 701,494 701,494 702,491 703,491 703,490 704,490 704,489 705,488 705,487 706,487 706,487 707,486 708,484 708,483 709,481 709,480 710,477 710,477 711,475 711,475 712,474 713,473 713,471 714,471 714,471 715,470 715,468 716,467 716,466 717,465 718,464 718,464 719,462 719,462 720,462 720,461 721,460 721,459 722,459 723,458 723,457 724,457 724,455 725,454 725,453 726,452 726,451 727,449 728,447 728,448 729,447 729,447 730,447 730,445 731,445 731,443 732,443 733,442 733,441 734,440 734,440 735,440 735,439 736,439 736,437 737,436 738,436 738,434 739,434 739,433 740,432 740,432 741,432 742,432 742,431 743,430 743,429 744,428 744,428 745,428 745,424 746,424 747,423 747,422 748,420 748,420 749,419 749,419 750,418 750,419 751,418 752,418 752,417 753,416 753,416 754,416 754,415 755,415 755,414 756,412 757,411 757,410 758,409 758,407 759,407 759,407 760,406 760,405 761,403 762,402 762,400 763,400 763,400 764,399 764,398 765,398 765,397 766,397 767,395 767,395 768,394 768,394 769,393 769,392 770,392 770,392 771,391 772,391 772,389 773,388 773,387 774,386 774,386 775,385 775,383 776,382 777,382 777,382 778,381 778,381 779,381 779,379 780,378 780,377 781,375 782,374 782,374 783,374 783,373 784,373 784,373 785,372 785,371 786,370 787,370 787,369 788,369 788,368 789,367 789,366 790,366 790,365 791,364 792,363 792,363 793,362 793,362 794,361 794,360 795,359 795,359 796,358 797,358 797,358 798,358 798,357 799,357 799,356 800,354 800,354 801,353 802,352 802,352 803,352 803,348 804,347 804,347 805,347 805,347 806,346 807,345 807,345 808,344 808,344 809,343 809,342 810,343 810,344 811,344 812,343 812,342 813,341 813,341 814,340 814,339 815,338 815,338 816,336 817,336 817,335 818,334 818,331 819,331 819,331 820,331 820,329 821,328 822,327 822,327 823,324 823,324 824,323 824,322 825,322 825,321 826,320 827,317 827,317 828,317 828,316 829,316 829,315 830,315 830,313 831,313 832,313 832,312 833,313 833,312 834,312 834,311 835,311 835,309 836,308 837,307 837,307 838,306 838,304 839,304 839,304 840,303 840,302 841,302 842,302 842,301 843,301 843,301 844,300 844,299 845,299 845,298 846,297 847,296 847,296 848,296 848,294 849,293 849,292 850,291 850,291 851,290 852,290 852,289 853,286 853,285 854,286 854,285 855,285 855,285 856,285 857,285 857,285 858,284 858,283 859,282 859,282 860,282 860,281 861,280 862,279 862,280 863,280 863,279 864,278 864,277 865,276 865,275 866,275 867,275 867,274 868,274 868,273 869,272 869,271 870,270 870,270 871,270 872,269 872,268 873,267 873,267 874,267 874,267 875,266 875,265 876,266 877,265 877,264 878,264 878,264 879,265 879,264 880,263 880,262 881,261 882,259 882,260 883,259 883,258 884,258 884,258 884,258 885,257 885,259 886,259 887,259 887,259 888,259 888,258 889,257 889,257 890,257 890,257 891,255 892,257 892,257 893,257 893,257 894,260 894,261 895,260 895,261 896,263 897,263 897,263 898,262 898,262 899,262 899,262 900,262 900,265 901,265 902,265 902,265 903,266 903,263 904,262 904,262 905,262 905,262 906,262 907,262 907,261 908,261 908,258 909,258 909,257 910,257 910,256 911,255 912,254 912,255 913,254 913,253 914,252 914,252 915,252 915,252 916,251 917,250 917,250 918,250 918,250 919,250 919,250 920,249 920,249 921,249 922,249 922,244 923,244 923,243 924,244 924,244 925,243 925,243 926,243 927,239 927,238 928,237 928,237 929,236 929,235 930,235 930,235 931,235 932,235 932,234 933,234 933,234 934,234 934,235 935,235 935,234 936,234 937,234 937,233 938,232 938,232 939,234 939,236 940,235 940,235 941,234 942,234 942,234 943,234 943,233 944,233 944,232 945,232 945,232 946,231 947,231 947,228 948,229 948,229 949,229 949,229 950,229 950,227 951,227 952,228 952,228 953,226 953,226 954,225 954,224 955,224 955,224 956,224 957,223 957,223 958,223 958,223 959,222 959,222 960,222 960,222 961,222 962,219 962,219 963,219 963,219 963,219 963,219 964,218 964,218 964,218 965,218 965,219 966,219 966,219 966,219 967,219 967,223 967,223 967,223 968,223 968,223 968,223 968,224 969,224 969,224 969,224 969,224 970,224 970,224 971,224 971,223 971,223 971,223 972,223 972,223 972,223 973,222 973,222 973,221 974,221 974,219 974,219 974,219 975,219 975,219 976,219 976,218 976,218 976,218 977,218 977,218 977,217 978,217 978,216 978,216 978,216 979,216 979,215 979,215 979,214 980,214 980,214 981,214 981,214 981,214 981,214 982,214 982,214 982,215 983,215 983,215 983,215 983,215 984,215 984,214 984,214 984,215 985,215 985,216 986,216 986,214 986,214 986,215 987,215 987,215 987,215 987,214 988,214 988,214 988,214 988,215 989,215 989,215 990,215 990,215 991,215 991,214 991,214 991,213 992,213 992,213 992,213 992,213 993,213 993,212 993,212 993,212 994,212 994,212 994,212 994,212 995,213 996,213 996,213 996,213 996,213 997,213 997,213 997,213 997,214 998,214 998,214 998,214 999,214 999,214 999,214 999,215 1000,215 1000,214 1001,214 1001,215 1001,215 1001,215 1002,215 1002,215 1002,215 1002,215 1003,215 1003,215 1003,215 1003,215 1004,215 1004,214 1004,214 1004,214 1005,214 1005,215 1006,215 1006,215 1006,215 1006,215 1007,215 1007,215 1007,215 1007,215 1008,215 1008,215 1008,215 1008,216 1009,216 1009,216 1009,216 1010,216 1010,217 1011,217 1011,217 1011,217 1011,217 1012,217 1012,217 1012,217 1012,217 1013,217 1013,218 1013,218 1013,218 1014,218 1014,218 1014,218 1015,218 1015,217 1016,217 1016,218 1016,218 1016,218 1017,218 1017,218 1017,218 1017,218 1018,219 1018,221 1019,221 1019,221 1019,221 1020,221 1020,220 1021,220 1021,221 1021,221 1021,221 1022,221 1022,221 1022,221 1022,221 1023,221 1023,222 1023,222 1023,222 1024,222 1024,222 1024,222 1024,222 1025,222 1025,222 1026,222 1026,222 1026,221 1027,221 1027,222 1027,222 1027,222 1028,222 1028,222 1028,222 1028,223 1029,223 1029,223 1029,223 1029,222 1030,222 1030,223 1031,223 1031,223 1031,223 1031,223 1032,223 1032,223 1032,223 1032,224 1033,224 1033,223 1033,223 1033,224 1034,224 1034,224 1034,225 1035,225 1035,225 1036,225 1036,225 1036,225 1036,225 1037,225 1037,225 1037,225 1037,225 1038,225 1038,225 1038,225 1038,224 1039,224 1039,224 1039,225 1040,225 1040,225 1041,225 1041,224 1041,224 1041,224 1042,224 1042,224 1042,224 1042,224 1043,224 1043,224 1043,224 1043,224 1044,224 1044,224 1044,224 1044,224 1045,224 1045,224 1046,224 1046,224 1046,224 1046,224 1047,224 1047,223 1047,223 1047,223 1048,223 1048,223 1048,223 1048,223 1049,223 1049,223 1049,223 1050,223 1050,223 1051,223 1051,223 1051,223 1051,223 1052,223 1052,224 1052,224 1052,224 1053,224 1053,224 1053,224 1053,224 1054,224 1054,224 1054,224 1054,224 1055,224 1055,225 1056,225 1056,225 1056,225 1056,225 1057,225 1057,225 1057,225 1057,225 1058,225 1058,226 1058,226 1058,226 1059,226 1059,225 1059,225 1059,226 1060,226 1060,226 1061,226 1061,226 1061,226 1061,226 1062,226 1062,226 1062,226 1062,226 1063,226 1063,226 1063,226 1063,226 1064,226 1064,226 1064,226 1064,226 1065,225 1066,225 1066,224 1066,224 1066,225 1067,227 1067,227 1067,227 1068,227 1068,227 1068,227 1068,227 1069,227 1069,226 1069,226 1069,226 1070,226 1070,227 1071,227 1071,227 1071,227 1071,228 1072,228 1072,228 1072,228 1072,228 1073,229 1073,229 1073,230 1074,230 1074,230 1074,230 1074,230 1075,230 1075,230 1076,230 1076,230 1076,230 1076,230 1077,230 1077,230 1077,230 1077,228 1078,228 1078,226 1078,226 1078,224 1079,224 1079,224 1079,224 1079,224 1080,224 1080,224 1081,224 1081,224 1081,224 1081,224 1082,224 1082,224 1082,224 1082,224 1083,224 1083,224 1083,224 1083,224 1084,224 1084,223 1084,223 1084,224 1085,224 1085,224 1086,224 1086,224 1086,224 1086,224 1087,224 1087,224 1087,224 1087,225 1088,225 1088,225 1088,225 1088,224 1089,224 1089,224 1089,224 1089,224 1090,224 1090,225 1091,225 1091,225 1091,225 1091,224 1092,224 1092,224 1092,224 1092,225 1093,225 1093,225 1093,225 1093,225 1094,225 1094,226 1094,226 1094,226 1095,226 1095,227 1096,227 1096,227 1096,227 1096,227 1097,227 1097,227 1097,227 1097,227 1098,227 1098,227 1098,227 1098,227 1099,227 1099,227 1099,227 1100,227 1100,228 1101,228 1101,229 1101,229 1101,229 1102,229 1102,228 1102,228 1102,229 1103,229 1103,228 1103,228 1103,229 1104,229 1104,229 1104,229 1104,229 1105,229 1105,229 1106,229 1106,229 1106,229 1106,229 1107,229 1107,229 1107,229 1107,231 1108,231 1108,231 1108,231 1108,231 1109,231 1109,232 1109,232 1109,232 1110,232 1111,232 1111,232 1111,232 1111,232 1112,232 1112,233 1112,233 1112,235 1113,235 1113,234 1113,234 1113,234 1114,234 1114,234 1114,234 1114,234 1115,234 1115,234 1116,234 1116,234 1116,234 1116,234 1117,234 1117,234 1117,234 1117,235 1118,235 1118,235 1118,235 1118,235 1119,235 1119,235 1119,235 1119,235 1120,235 1120,235 1121,235 1121,235 1121,235 1121,234 1122,234 1122,234 1122,234 1122,234 1123,234 1123,235 1123,235 1123,235 1124,235 1124,234 1124,234 1124,234 1125,234 1125,234 1126,234 1126,234 1126,234 1126,234 1127,234 1127,234 1127,234 1127,234 1128,234 1128,235 1128,235 1128,235 1129,235 1129,235 1129,235 1129,235 1130,235 1130,235 1131,235 1131,235 1131,235 1131,236 1132,236 1132,238 1132,238 1132,238 1133,238 1133,238 1133,241 1134,241 1134,241 1134,241 1134,241 1135,241 1135,241 1136,241 1136,242 1136,242 1136,242 1137,242 1137,241 1137,241 1137,242 1138,242 1138,242 1138,242 1138,242 1139,242 1139,242 1139,242 1139,242 1140,242 1140,242 1141,242 1141,242 1141,242 1141,243 1142,243 1142,243 1142,243 1142,243 1143,243 1143,243 1143,243 1143,243 1144,243 1144,243 1144,243 1144,243 1145,243 1145,243 1146,243 1146,244 1146,244 1146,244 1147,244 1147,244 1147,244 1147,244 1148,244 1148,244 1148,244 1148,244 1149,244 1149,244 1149,244 1149,245 1150,245 1150,245 1151,245 1151,245 1151,245 1151,245 1152,245 1152,245 1152,245 1152,245 1153,245 1153,245 1153,245 1153,245 1154,245 1154,245 1154,245 1154,246 1155,246 1155,246 1156,246 1156,245 1156,245 1156,245 1157,245 1157,246 1157,246 1157,246 1158,246 1158,246 1158,246 1158,246 1159,246 1159,245 1159,245 1159,246 1160,246 1160,246 1161,246 1161,246 1161,246 1161,246 1162,246 1162,247 1162,247 1162,247 1163,246 1163,246 1163,246 1164,246 1164,247 1164,247 1164,247 1165,247 1165,247 1166,247 1166,247 1166,247 1166,247 1167,247 1167,247 1167,247 1167,247 1168,247 1168,247 1168,247 1168,247 1169,247 1169,247 1169,247 1169,248 1170,248 1170,247 1171,247 1171,247 1171,247 1171,247 1172,247 1172,247 1172,247 1172,247 1173,247 1173,247 1173,247 1173,248 1174,248 1174,248 1174,248 1175,248 1175,249 1176,249 1176,248 1176,248 1176,249 1177,249 1177,249 1177,249 1177,249 1178,249 1178,248 1178,248 1178,248 1179,248 1179,249 1179,249 1179,249 1180,249 1180,249 1181,249 1181,249 1181,249 1181,249 1182,249 1182,249 1182,249 1182,249 1183,249 1183,249 1183,249 1183,249 1184,249 1184,249 1184,249 1185,249 1185,249 1186,249 1186,250 1186,250 1186,250 1187,250 1187,250 1187,250 1188,250 1188,250 1188,250 1188,250 1189,250 1189,249 1190,249 "/>
<polyline fill="none" opacity="1" stroke="#198EE6" stroke-width="2" points="60,738 60,738 63,738 72,738 80,737 87,737 88,737 92,737 93,737 94,737 98,737 102,736 102,736 108,736 113,736 114,736 116,735 121,735 125,735 126,735 132,735 132,734 133,734 133,734 134,734 135,734 136,734 136,734 137,734 138,734 138,734 139,734 140,734 141,734 142,734 143,734 143,734 144,734 145,734 145,733 146,733 146,733 147,733 148,733 148,733 149,733 150,733 150,733 151,733 151,733 152,733 152,733 153,733 153,733 155,733 155,733 156,733 156,733 157,733 158,733 160,733 160,733 161,733 161,733 162,732 162,732 163,733 163,733 164,732 165,732 165,732 166,732 167,732 168,732 168,732 169,732 170,732 170,732 171,732 172,732 172,732 173,732 173,732 175,732 175,732 176,731 176,731 177,731 177,731 178,731 178,731 179,731 180,731 180,731 181,731 182,731 182,731 183,731 184,730 185,730 186,730 186,730 188,730 188,730 189,730 190,730 191,730 191,730 192,730 192,730 193,730 193,730 194,729 195,729 196,729 197,729 198,729 198,729 199,729 200,729 200,729 201,729 201,729 202,729 202,729 203,729 203,729 204,729 205,729 206,728 206,728 207,728 207,728 208,728 208,728 209,728 210,728 210,728 211,728 211,728 212,728 212,728 213,728 214,727 215,727 215,727 216,727 216,727 217,727 218,727 218,727 220,727 221,727 221,727 222,727 222,727 223,727 223,727 224,726 225,726 226,726 226,726 227,726 227,726 228,726 230,726 231,726 231,726 232,726 232,726 233,726 233,726 234,726 235,726 235,726 237,726 237,726 238,726 238,726 239,726 240,726 240,725 241,725 242,725 242,725 243,725 244,725 245,725 245,725 246,725 246,725 248,725 248,725 249,725 250,725 251,724 251,724 252,724 252,724 253,724 253,724 254,724 255,724 255,724 256,724 256,724 257,724 258,724 258,724 259,724 260,724 260,724 261,724 261,724 262,724 262,724 263,724 263,724 264,724 265,723 265,723 266,723 266,723 267,723 267,723 268,723 268,723 269,723 270,723 270,723 271,723 271,723 272,723 272,723 273,723 273,723 274,723 275,722 275,722 276,722 276,722 277,722 278,722 278,722 280,722 280,722 281,722 282,722 282,722 283,722 283,722 284,721 285,721 285,721 286,721 287,721 287,721 288,721 289,721 289,721 290,721 290,721 291,720 292,720 292,720 293,720 294,720 294,720 295,720 295,720 296,720 296,720 297,720 297,720 298,720 299,720 299,720 300,720 300,720 301,720 301,720 302,720 303,720 304,720 304,720 305,720 305,720 306,720 307,720 307,720 308,719 309,719 309,719 310,719 310,719 311,719 311,719 312,719 312,719 313,719 314,719 314,719 315,718 315,718 316,718 316,718 317,718 317,718 318,718 319,718 319,718 320,718 320,718 321,718 321,717 322,717 322,717 323,717 324,717 324,717 325,717 325,717 326,717 327,717 327,717 328,716 329,716 329,716 330,716 330,716 331,716 331,715 332,715 332,715 333,715 334,715 334,715 335,715 335,715 336,715 336,715 337,715 337,715 338,715 339,715 339,714 340,714 340,714 341,714 341,714 342,714 342,714 343,714 344,714 344,714 345,714 345,714 346,713 346,713 347,713 347,713 348,713 349,713 349,713 350,713 350,713 351,713 351,713 352,713 353,713 354,713 354,713 355,713 355,713 356,713 357,713 357,712 358,712 359,712 359,712 360,712 360,712 361,712 361,712 362,712 362,712 363,712 364,712 364,712 365,712 365,712 366,712 366,712 367,712 367,712 368,712 369,712 369,712 370,712 370,712 371,711 371,711 372,711 372,711 373,711 374,711 374,711 375,711 375,711 376,711 376,711 377,711 377,711 378,711 379,711 379,711 380,711 380,711 381,710 381,710 382,710 382,710 383,710 384,710 384,710 385,710 385,710 386,710 386,710 387,710 387,710 388,710 389,710 389,710 390,710 390,710 391,710 391,710 392,710 392,709 393,709 394,710 394,709 395,709 395,709 396,709 396,709 397,709 397,709 398,709 399,709 399,709 400,709 400,709 401,709 401,709 402,708 402,708 403,708 404,708 404,708 405,708 405,708 406,708 406,707 407,707 407,707 408,707 409,707 409,707 410,707 410,707 411,707 411,706 412,706 412,707 413,707 414,707 414,707 415,707 415,706 416,706 417,706 417,706 418,706 419,706 419,706 420,706 420,706 421,706 421,706 422,706 422,706 423,706 424,706 424,706 425,706 425,706 426,706 426,706 427,706 427,706 428,706 429,706 429,706 430,706 430,706 431,706 431,706 432,706 432,706 433,706 434,706 434,705 435,705 435,705 436,705 436,705 437,705 437,705 438,705 439,705 439,705 440,705 440,705 441,705 441,705 442,705 442,705 443,705 444,705 444,705 445,704 445,704 446,704 446,704 447,704 447,704 448,704 449,704 449,704 450,704 450,704 451,704 451,704 452,704 452,704 453,704 454,704 454,704 455,704 455,704 456,704 456,704 457,704 457,704 458,704 459,704 459,704 460,704 460,704 461,704 461,704 462,704 462,704 463,704 464,704 464,704 465,704 465,704 466,704 466,703 467,703 467,703 468,703 469,703 470,703 470,703 471,703 471,703 472,703 472,703 473,703 474,703 474,703 475,703 475,703 476,702 477,702 477,702 478,702 479,702 479,702 480,702 480,702 481,702 481,702 482,702 482,702 483,702 484,701 484,701 485,701 485,701 486,701 486,701 487,701 487,701 488,701 489,701 489,701 490,701 490,701 491,701 491,700 492,700 492,700 493,700 494,700 494,700 495,700 495,700 496,700 496,700 497,700 497,700 498,700 499,700 499,700 500,700 500,700 501,699 501,700 502,700 502,700 503,700 504,700 504,700 505,700 505,700 506,700 506,700 507,700 507,700 508,700 509,700 509,700 510,700 510,700 511,700 511,700 512,700 513,700 513,700 514,700 514,700 515,700 515,700 516,700 516,700 517,700 518,700 518,700 519,700 520,700 520,700 521,700 521,700 522,700 523,700 523,700 524,700 524,700 525,700 526,700 526,700 527,700 528,700 528,700 529,700 529,700 530,700 531,700 531,699 532,699 533,699 533,699 534,699 534,699 535,699 535,699 536,699 536,699 537,699 538,699 538,699 539,699 539,699 540,699 540,699 541,699 541,699 542,698 543,698 543,698 544,698 544,698 545,698 545,698 546,698 546,698 547,698 548,698 548,698 549,697 549,697 550,697 550,697 551,697 551,697 552,696 553,696 553,696 554,696 554,696 555,696 555,696 556,696 556,696 557,696 558,696 558,696 559,696 559,696 560,696 560,696 561,696 561,696 562,696 563,696 563,696 564,696 564,696 565,696 565,696 566,695 566,695 567,695 568,695 568,695 569,695 569,695 570,695 570,695 571,695 571,695 572,695 573,695 573,695 574,695 574,695 575,695 575,695 576,695 576,695 577,695 578,695 578,695 579,695 579,695 580,695 580,695 581,695 581,694 582,694 583,694 583,694 584,694 584,694 585,694 585,694 586,693 586,693 587,693 588,693 588,693 589,693 589,693 590,693 590,693 591,693 591,693 592,693 593,693 593,693 594,693 594,694 595,694 595,694 596,694 596,694 597,694 598,693 598,693 599,693 599,693 600,694 600,693 601,693 601,693 602,693 603,693 603,693 604,693 604,693 605,693 605,693 606,693 606,693 607,693 608,693 608,693 609,693 609,693 610,693 610,693 611,693 611,693 612,693 613,693 613,693 614,693 614,693 615,692 615,692 616,692 616,692 617,692 618,692 618,692 619,692 619,692 620,692 620,692 621,692 621,692 622,692 623,692 623,692 624,692 624,692 625,692 625,692 626,692 626,692 628,692 628,692 629,692 629,692 630,692 630,692 631,692 631,692 632,692 633,692 633,692 634,692 634,692 635,692 635,692 636,692 636,692 637,692 638,692 638,691 639,691 639,691 640,691 640,691 641,691 641,691 642,691 643,691 643,691 644,691 644,691 645,691 645,691 646,691 646,691 647,691 648,691 648,691 649,691 649,691 650,691 650,691 651,691 651,691 652,691 653,691 653,691 654,691 654,691 655,691 655,690 656,690 656,690 657,691 658,691 658,691 659,690 659,690 660,690 660,690 661,690 661,690 662,690 663,690 663,690 664,690 664,690 665,690 665,689 666,689 666,690 667,690 668,690 668,690 669,690 669,690 670,690 670,690 670,690 671,690 671,690 672,690 673,690 673,690 674,690 674,690 675,690 675,690 676,690 676,689 677,689 678,689 678,689 679,689 679,689 680,689 680,689 681,689 681,689 682,689 683,689 683,689 684,690 684,690 685,690 685,690 686,690 686,690 687,690 688,690 688,690 689,690 689,690 690,690 690,690 691,690 691,689 692,689 693,689 693,689 694,689 694,689 695,689 695,689 696,689 696,689 697,689 698,689 698,689 699,689 699,689 700,689 700,689 701,689 701,689 702,689 703,689 703,689 704,689 704,689 705,689 705,689 706,689 706,689 707,689 708,689 708,689 709,689 709,689 710,689 710,689 711,689 711,689 712,689 713,689 713,689 714,689 714,689 715,689 715,689 716,689 716,689 717,689 718,689 718,689 719,689 719,689 720,689 720,689 721,689 721,689 722,689 723,689 723,689 724,689 724,688 725,688 725,688 726,688 726,688 727,688 728,688 728,688 729,688 729,688 730,688 730,688 731,688 731,688 732,688 733,688 733,688 734,688 734,688 735,688 735,688 736,688 736,689 737,689 738,689 738,689 739,689 739,689 740,689 740,689 741,689 742,689 742,689 743,689 743,689 744,689 744,689 745,689 745,689 746,689 747,689 747,689 748,689 748,688 749,688 749,688 750,689 750,689 751,689 752,689 752,689 753,689 753,689 754,689 754,689 755,688 755,688 756,688 757,688 757,688 758,688 758,688 759,688 759,688 760,688 760,688 761,687 762,687 762,687 763,687 763,687 764,686 764,686 765,686 765,686 766,686 767,686 767,686 768,686 768,686 769,686 769,686 770,686 770,686 771,686 772,686 772,686 773,686 773,686 774,686 774,686 775,686 775,686 776,686 777,686 777,686 778,686 778,686 779,686 779,686 780,686 780,686 781,686 782,686 782,686 783,686 783,686 784,686 784,686 785,686 785,686 786,686 787,686 787,686 788,686 788,686 789,686 789,686 790,686 790,686 791,686 792,685 792,685 793,685 793,685 794,685 794,685 795,685 795,685 796,685 797,685 797,684 798,684 798,684 799,684 799,684 800,684 800,684 801,684 802,684 802,684 803,684 803,684 804,684 804,684 805,684 805,684 806,684 807,684 807,684 808,684 808,684 809,684 809,684 810,684 810,684 811,684 812,684 812,684 813,683 813,683 814,683 814,683 815,683 815,683 816,683 817,683 817,683 818,683 818,683 819,683 819,683 820,683 820,684 821,684 822,684 822,684 823,684 823,684 824,684 824,684 825,684 825,684 826,684 827,684 827,684 828,683 828,683 829,682 829,682 830,682 830,682 831,682 832,681 832,681 833,681 833,681 834,681 834,680 835,680 835,680 836,680 837,680 837,680 838,680 838,680 839,680 839,680 840,680 840,680 841,680 842,680 842,680 843,680 843,680 844,680 844,679 845,679 845,679 846,679 847,679 847,679 848,679 848,679 849,679 849,679 850,679 850,679 851,679 852,679 852,679 853,679 853,679 854,679 854,679 855,679 855,679 856,679 857,679 857,679 858,679 858,678 859,678 859,678 860,678 860,678 861,678 862,678 862,678 863,678 863,678 864,678 864,678 865,678 865,678 866,678 867,678 867,678 868,678 868,678 869,678 869,678 870,678 870,678 871,678 872,678 872,678 873,678 873,678 874,678 874,678 875,678 875,678 876,678 877,678 877,678 878,678 878,678 879,678 879,679 880,679 880,679 881,679 882,679 882,679 883,679 883,679 884,679 884,679 884,679 885,678 885,678 886,678 887,678 887,678 888,678 888,678 889,678 889,678 890,678 890,678 891,678 892,678 892,678 893,678 893,678 894,678 894,678 895,678 895,678 896,678 897,678 897,678 898,678 898,678 899,678 899,678 900,678 900,678 901,678 902,678 902,678 903,678 903,678 904,678 904,678 905,678 905,678 906,678 907,678 907,678 908,678 908,678 909,678 909,678 910,678 910,678 911,678 912,678 912,678 913,678 913,678 914,678 914,678 915,678 915,678 916,678 917,678 917,678 918,678 918,678 919,678 919,678 920,678 920,678 921,678 922,678 922,678 923,678 923,678 924,678 924,678 925,678 925,678 926,678 927,678 927,678 928,678 928,678 929,678 929,678 930,678 930,678 931,678 932,678 932,678 933,678 933,678 934,678 934,678 935,678 935,678 936,678 937,678 937,678 938,678 938,678 939,678 939,678 940,678 940,678 941,678 942,678 942,678 943,678 943,678 944,678 944,678 945,678 945,678 946,678 947,678 947,678 948,678 948,678 949,678 949,678 950,678 950,678 951,678 952,678 952,678 953,678 953,678 954,678 954,678 955,678 955,678 956,678 957,678 957,678 958,678 958,678 959,678 959,678 960,678 960,678 961,678 962,678 962,678 963,678 963,678 963,678 963,678 964,678 964,678 964,678 965,678 965,678 966,678 966,678 966,678 967,678 967,678 967,678 967,678 968,678 968,678 968,678 968,678 969,678 969,678 969,678 969,678 970,678 970,678 971,678 971,678 971,678 971,678 972,678 972,678 973,678 973,678 973,678 974,678 974,678 974,678 974,678 975,678 975,678 976,678 976,678 976,678 976,678 977,678 977,678 977,678 978,678 978,678 978,678 978,678 979,678 979,678 979,678 979,678 980,678 980,678 981,678 981,678 981,678 981,678 982,678 982,678 982,678 983,678 983,678 983,678 983,678 984,678 984,678 984,678 984,678 985,678 985,677 986,677 986,677 986,677 986,677 987,677 987,677 987,677 987,677 988,677 988,677 988,677 988,677 989,677 989,677 990,677 990,677 991,677 991,677 991,677 991,676 992,676 992,676 992,676 992,676 993,676 993,676 993,676 993,676 994,676 994,676 994,676 994,676 995,676 996,676 996,676 996,676 996,676 997,676 997,676 997,676 997,676 998,676 998,676 998,676 999,676 999,676 999,676 999,676 1000,676 1000,676 1001,676 1001,677 1001,677 1001,677 1002,677 1002,677 1002,677 1002,677 1003,677 1003,677 1003,677 1003,677 1004,677 1004,677 1004,677 1004,677 1005,677 1005,677 1006,677 1006,677 1006,677 1006,677 1007,677 1007,676 1007,676 1007,676 1008,676 1008,676 1008,676 1008,676 1009,676 1009,676 1009,676 1010,676 1010,676 1011,676 1011,675 1011,675 1011,675 1012,675 1012,675 1012,675 1012,675 1013,675 1013,675 1013,675 1013,675 1014,675 1014,675 1014,675 1015,675 1015,675 1016,675 1016,675 1016,675 1016,675 1017,675 1017,675 1017,675 1017,675 1018,675 1018,675 1019,675 1019,675 1019,675 1020,675 1020,675 1021,675 1021,675 1021,675 1021,675 1022,675 1022,675 1022,675 1022,675 1023,675 1023,675 1023,675 1023,675 1024,675 1024,675 1024,675 1024,675 1025,675 1025,675 1026,675 1026,675 1026,675 1027,675 1027,675 1027,675 1027,675 1028,675 1028,675 1028,675 1028,675 1029,675 1029,675 1029,675 1029,675 1030,675 1030,675 1031,675 1031,675 1031,675 1031,675 1032,675 1032,675 1032,675 1032,675 1033,675 1033,675 1033,675 1033,675 1034,675 1034,674 1034,674 1035,674 1035,674 1036,674 1036,674 1036,674 1036,674 1037,674 1037,674 1037,674 1037,674 1038,674 1038,674 1038,674 1038,674 1039,674 1039,674 1039,674 1040,674 1040,674 1041,674 1041,674 1041,674 1041,674 1042,674 1042,674 1042,674 1042,674 1043,674 1043,674 1043,674 1043,674 1044,674 1044,674 1044,674 1044,674 1045,674 1045,674 1046,674 1046,674 1046,674 1046,674 1047,674 1047,674 1047,674 1047,674 1048,674 1048,674 1048,674 1048,674 1049,674 1049,674 1049,674 1050,674 1050,674 1051,674 1051,674 1051,674 1051,674 1052,674 1052,674 1052,674 1052,674 1053,674 1053,674 1053,674 1053,674 1054,674 1054,674 1054,674 1054,673 1055,673 1055,673 1056,673 1056,673 1056,673 1056,673 1057,673 1057,673 1057,673 1057,673 1058,673 1058,673 1058,673 1058,673 1059,673 1059,673 1059,673 1059,673 1060,673 1060,673 1061,673 1061,673 1061,673 1061,673 1062,673 1062,673 1062,673 1062,674 1063,674 1063,674 1063,674 1063,674 1064,674 1064,674 1064,674 1064,674 1065,674 1066,674 1066,674 1066,674 1066,674 1067,673 1067,673 1067,673 1068,673 1068,673 1068,673 1068,673 1069,673 1069,673 1069,673 1069,673 1070,673 1070,673 1071,673 1071,673 1071,673 1071,673 1072,673 1072,673 1072,673 1072,673 1073,673 1073,673 1073,673 1074,673 1074,673 1074,673 1074,673 1075,673 1075,672 1076,672 1076,672 1076,672 1076,672 1077,672 1077,672 1077,672 1077,672 1078,672 1078,672 1078,672 1078,674 1079,674 1079,673 1079,673 1079,673 1080,673 1080,673 1081,673 1081,673 1081,673 1081,673 1082,673 1082,673 1082,673 1082,673 1083,673 1083,673 1083,673 1083,673 1084,673 1084,673 1084,673 1084,673 1085,673 1085,673 1086,673 1086,673 1086,673 1086,673 1087,673 1087,673 1087,673 1087,674 1088,674 1088,674 1088,674 1088,674 1089,674 1089,674 1089,674 1089,674 1090,674 1090,674 1091,674 1091,674 1091,674 1091,674 1092,674 1092,674 1092,674 1092,674 1093,674 1093,674 1093,674 1093,674 1094,674 1094,674 1094,674 1094,674 1095,674 1095,674 1096,674 1096,674 1096,674 1096,674 1097,674 1097,674 1097,674 1097,674 1098,674 1098,674 1098,674 1098,674 1099,674 1099,674 1099,674 1100,674 1100,674 1101,674 1101,674 1101,674 1101,674 1102,674 1102,674 1102,674 1102,674 1103,674 1103,674 1103,674 1103,674 1104,674 1104,674 1104,674 1104,674 1105,674 1105,674 1106,674 1106,674 1106,674 1106,674 1107,674 1107,674 1107,674 1107,674 1108,674 1108,674 1108,674 1108,674 1109,674 1109,674 1109,674 1109,674 1110,674 1111,674 1111,674 1111,674 1111,674 1112,674 1112,674 1112,674 1112,674 1113,674 1113,674 1113,674 1113,674 1114,674 1114,674 1114,674 1114,674 1115,674 1115,674 1116,674 1116,674 1116,674 1116,674 1117,674 1117,674 1117,674 1117,674 1118,674 1118,674 1118,674 1118,674 1119,674 1119,674 1119,674 1119,674 1120,674 1120,674 1121,674 1121,674 1121,674 1121,674 1122,674 1122,674 1122,674 1122,674 1123,674 1123,674 1123,674 1123,674 1124,674 1124,674 1124,674 1124,674 1125,674 1125,674 1126,674 1126,674 1126,674 1126,674 1127,674 1127,674 1127,674 1127,674 1128,674 1128,674 1128,674 1128,674 1129,674 1129,674 1129,674 1129,674 1130,674 1130,674 1131,674 1131,674 1131,674 1131,674 1132,674 1132,674 1132,674 1132,674 1133,674 1133,674 1133,674 1134,674 1134,674 1134,674 1134,674 1135,674 1135,674 1136,674 1136,674 1136,674 1136,673 1137,673 1137,673 1137,673 1137,673 1138,673 1138,673 1138,673 1138,673 1139,673 1139,673 1139,673 1139,673 1140,673 1140,673 1141,673 1141,673 1141,673 1141,673 1142,673 1142,673 1142,673 1142,673 1143,673 1143,673 1143,673 1143,673 1144,673 1144,673 1144,673 1144,673 1145,673 1145,673 1146,673 1146,673 1146,673 1146,673 1147,673 1147,673 1147,673 1147,673 1148,673 1148,673 1148,673 1148,673 1149,674 1149,674 1149,674 1149,674 1150,674 1150,674 1151,674 1151,674 1151,674 1151,674 1152,674 1152,674 1152,674 1152,674 1153,674 1153,674 1153,674 1153,674 1154,674 1154,674 1154,674 1154,674 1155,674 1155,674 1156,674 1156,674 1156,674 1156,674 1157,674 1157,673 1157,673 1157,673 1158,673 1158,673 1158,673 1158,673 1159,673 1159,673 1159,673 1159,673 1160,673 1160,673 1161,673 1161,673 1161,673 1161,673 1162,673 1162,673 1162,673 1162,673 1163,673 1163,673 1163,673 1164,673 1164,673 1164,673 1164,673 1165,673 1165,673 1166,673 1166,673 1166,673 1166,673 1167,673 1167,673 1167,673 1167,673 1168,673 1168,674 1168,674 1168,674 1169,674 1169,674 1169,674 1169,674 1170,674 1170,674 1171,674 1171,674 1171,674 1171,674 1172,674 1172,674 1172,674 1172,674 1173,674 1173,674 1173,674 1173,674 1174,674 1174,674 1174,674 1175,674 1175,674 1176,674 1176,674 1176,674 1176,674 1177,674 1177,674 1177,674 1177,674 1178,674 1178,674 1178,674 1178,674 1179,674 1179,674 1179,674 1179,674 1180,674 1180,674 1181,674 1181,674 1181,674 1181,674 1182,674 1182,674 1182,674 1182,674 1183,674 1183,674 1183,674 1183,674 1184,674 1184,674 1184,674 1185,674 1185,674 1186,674 1186,674 1186,674 1186,674 1187,674 1187,674 1187,674 1188,674 1188,674 1188,674 1188,674 1189,674 1189,674 1190,674 "/>
<polyline fill="none" opacity="1" stroke="#5419E6" stroke-width="2" points="793,738 794,738 798,738 803,737 804,737 807,737 809,737 810,736 810,735 811,734 813,734 814,734 818,734 819,734 820,734 821,734 822,734 828,734 832,734 833,733 834,733 835,733 838,732 839,732 840,731 840,731 841,731 842,731 844,731 844,731 845,731 847,731 848,730 848,730 849,729 852,729 852,729 853,729 853,729 854,729 856,729 857,729 857,728 858,729 860,728 862,728 862,728 863,728 864,728 864,728 865,728 866,727 867,727 867,727 868,727 869,727 870,727 870,727 872,727 872,727 873,727 873,726 874,726 874,726 875,726 875,726 876,726 877,726 877,726 878,726 879,726 879,726 880,726 880,726 881,726 882,726 883,726 884,726 884,726 884,726 885,726 885,725 886,725 887,725 887,725 888,724 888,724 889,724 890,723 891,723 892,723 892,723 893,723 893,723 894,723 895,723 896,722 897,722 897,722 898,721 898,721 899,721 899,721 900,720 901,720 902,720 902,720 903,720 903,720 904,720 904,720 905,719 906,719 907,720 908,719 909,719 909,719 910,719 912,719 912,719 913,719 913,719 914,719 915,719 917,719 917,719 919,718 919,718 920,718 920,718 921,718 922,718 922,718 923,718 923,718 924,718 924,718 925,717 925,717 926,717 927,717 927,717 928,717 928,716 929,716 929,717 930,717 930,716 931,716 932,716 932,716 933,716 933,716 934,716 935,716 935,716 936,715 937,715 937,715 938,715 938,715 939,715 940,715 940,715 941,715 942,715 942,715 943,714 943,714 944,714 944,714 945,714 945,713 946,713 947,713 947,713 948,713 948,713 949,713 949,713 950,713 950,713 951,713 952,713 952,713 953,713 953,713 954,712 954,712 955,712 955,712 956,712 957,712 957,712 958,712 959,712 959,712 960,712 960,712 961,712 962,712 962,712 963,712 963,712 963,712 963,712 964,712 964,712 964,712 965,712 965,712 966,712 966,712 966,712 967,712 967,712 967,712 967,712 968,712 968,711 968,711 968,711 969,711 969,711 969,711 969,711 970,711 970,711 971,711 971,711 971,711 971,711 972,711 972,711 972,710 973,710 973,710 973,710 974,710 974,710 974,710 974,710 975,710 975,710 976,710 976,710 976,710 976,710 977,710 977,710 977,710 978,710 978,710 978,710 978,710 979,710 979,710 979,710 979,710 980,710 980,710 981,710 981,710 981,710 981,710 982,710 982,710 983,710 983,710 983,710 983,710 984,710 984,710 984,710 984,710 985,710 985,710 986,710 986,710 986,710 986,710 987,710 987,710 987,710 987,710 988,710 988,710 988,710 989,710 989,710 990,710 990,709 991,709 991,709 991,709 991,709 992,709 992,709 992,709 992,709 993,709 993,709 993,709 993,709 994,709 994,709 994,709 995,709 996,709 996,709 996,709 996,709 997,709 997,709 997,709 997,709 998,709 998,708 998,708 999,708 999,708 999,708 999,708 1000,708 1000,708 1001,708 1001,708 1001,708 1001,708 1002,708 1002,708 1002,708 1002,708 1003,708 1003,708 1003,708 1004,708 1004,708 1004,708 1004,708 1005,708 1005,708 1006,708 1006,707 1006,707 1006,707 1007,707 1007,707 1007,707 1007,708 1008,708 1008,708 1008,708 1008,707 1009,707 1009,707 1009,707 1010,707 1010,707 1011,707 1011,707 1011,707 1011,707 1012,707 1012,707 1012,707 1012,707 1013,707 1013,708 1013,708 1013,708 1014,708 1014,708 1014,708 1015,707 1016,707 1016,707 1016,707 1016,707 1017,707 1017,707 1017,707 1017,707 1018,707 1018,707 1019,707 1019,707 1019,707 1020,707 1020,707 1021,707 1021,707 1021,707 1021,707 1022,707 1022,706 1022,706 1023,706 1023,706 1023,706 1023,706 1024,706 1024,706 1024,706 1024,706 1025,706 1025,706 1026,706 1026,706 1026,706 1027,706 1027,706 1027,706 1027,706 1028,706 1028,706 1028,706 1028,706 1029,706 1029,706 1029,706 1029,706 1030,706 1030,706 1031,706 1031,706 1031,706 1031,706 1032,706 1032,706 1032,706 1032,706 1033,706 1033,706 1033,706 1034,706 1034,706 1034,706 1035,706 1035,706 1036,706 1036,706 1036,706 1036,706 1037,706 1037,706 1037,706 1037,706 1038,706 1038,706 1038,706 1038,706 1039,706 1039,706 1039,706 1040,706 1040,706 1041,706 1041,706 1041,706 1041,706 1042,706 1042,706 1042,706 1042,706 1043,706 1043,706 1043,706 1043,706 1044,706 1044,706 1044,706 1044,706 1045,706 1045,706 1046,706 1046,706 1046,706 1046,706 1047,706 1047,706 1047,706 1047,706 1048,706 1048,706 1048,706 1048,706 1049,706 1049,706 1049,706 1050,706 1050,706 1051,706 1051,706 1051,706 1051,706 1052,706 1052,705 1052,705 1052,705 1053,705 1053,705 1053,705 1053,705 1054,705 1054,705 1054,705 1054,705 1055,705 1055,705 1056,705 1056,705 1056,705 1056,705 1057,705 1057,705 1057,705 1057,704 1058,704 1058,704 1058,704 1059,704 1059,704 1059,704 1059,704 1060,704 1060,704 1061,704 1061,704 1061,704 1061,703 1062,703 1062,703 1062,703 1062,703 1063,703 1063,703 1063,703 1063,703 1064,703 1064,703 1064,703 1064,703 1065,703 1066,703 1066,703 1066,703 1066,703 1067,703 1067,703 1068,703 1068,703 1068,703 1068,703 1069,703 1069,703 1070,703 1070,703 1071,703 1071,702 1071,702 1071,702 1072,702 1072,702 1072,702 1072,702 1073,702 1073,702 1073,702 1074,702 1074,702 1074,702 1074,702 1075,702 1075,702 1076,702 1076,702 1076,702 1076,703 1077,703 1077,703 1077,703 1078,703 1078,703 1078,703 1078,700 1079,700 1079,700 1079,700 1079,700 1080,700 1080,700 1081,700 1081,700 1081,700 1081,700 1082,700 1082,700 1082,700 1082,700 1083,700 1083,700 1083,700 1083,700 1084,699 1084,699 1084,699 1085,699 1085,701 1086,701 1086,701 1086,701 1086,701 1087,701 1087,701 1087,701 1087,701 1088,701 1088,701 1088,701 1088,701 1089,701 1089,700 1089,700 1089,700 1090,700 1090,700 1091,700 1091,700 1091,700 1091,700 1092,700 1092,700 1092,700 1092,700 1093,700 1093,700 1093,700 1093,700 1094,700 1094,700 1094,700 1094,700 1095,700 1095,700 1096,700 1096,700 1096,700 1096,700 1097,700 1097,700 1097,700 1097,700 1098,700 1098,701 1098,701 1098,701 1099,701 1099,701 1099,701 1100,701 1100,701 1101,701 1101,701 1101,701 1101,701 1102,701 1102,701 1102,701 1102,701 1103,701 1103,701 1103,701 1103,701 1104,701 1104,701 1104,701 1104,701 1105,701 1105,701 1106,701 1106,701 1106,701 1106,701 1107,701 1107,701 1107,701 1107,701 1108,701 1108,701 1108,701 1108,701 1109,701 1109,701 1109,701 1109,701 1110,701 1111,701 1111,701 1111,701 1111,701 1112,701 1112,701 1112,701 1112,700 1113,700 1113,700 1113,700 1113,700 1114,700 1114,700 1114,700 1114,700 1115,700 1115,700 1116,700 1116,700 1116,700 1116,700 1117,700 1117,700 1117,700 1118,700 1118,700 1118,700 1118,700 1119,700 1119,700 1119,700 1119,700 1120,700 1120,700 1121,700 1121,700 1121,700 1121,700 1122,700 1122,700 1122,700 1122,700 1123,700 1123,700 1123,700 1123,700 1124,700 1124,700 1124,700 1124,700 1125,700 1125,700 1126,700 1126,700 1126,700 1126,700 1127,700 1127,700 1127,700 1127,700 1128,700 1128,699 1128,699 1128,699 1129,699 1129,699 1129,699 1129,699 1130,699 1130,699 1131,699 1131,699 1131,699 1131,699 1132,699 1132,699 1132,699 1132,699 1133,699 1133,699 1133,699 1134,699 1134,699 1134,699 1134,699 1135,699 1135,699 1136,699 1136,699 1136,699 1136,699 1137,699 1137,699 1137,699 1137,699 1138,699 1138,699 1138,699 1138,699 1139,699 1139,699 1139,699 1139,699 1140,699 1140,699 1141,699 1141,698 1141,698 1141,698 1142,698 1142,698 1142,698 1142,698 1143,698 1143,698 1143,698 1143,698 1144,698 1144,698 1144,698 1144,698 1145,698 1145,698 1146,698 1146,698 1146,698 1146,698 1147,698 1147,698 1147,698 1147,698 1148,698 1148,698 1148,698 1148,698 1149,698 1149,698 1149,698 1149,698 1150,698 1150,698 1151,698 1151,698 1151,698 1151,698 1152,698 1152,698 1152,698 1152,698 1153,698 1153,698 1153,698 1153,698 1154,698 1154,698 1154,698 1154,698 1155,698 1155,698 1156,698 1156,698 1156,698 1156,698 1157,698 1157,698 1157,698 1158,698 1158,698 1158,698 1158,698 1159,698 1159,698 1159,698 1159,698 1160,698 1160,698 1161,698 1161,698 1161,698 1161,697 1162,697 1162,697 1162,697 1162,697 1163,697 1163,697 1163,697 1164,697 1164,697 1164,697 1164,697 1165,696 1165,695 1166,695 1166,695 1166,695 1166,695 1167,695 1167,695 1167,695 1167,695 1168,695 1168,695 1168,695 1168,695 1169,695 1169,695 1169,695 1169,695 1170,695 1170,695 1171,695 1171,695 1171,695 1171,695 1172,695 1172,695 1172,695 1172,695 1173,695 1173,695 1173,695 1173,695 1174,695 1174,695 1174,695 1175,695 1175,695 1176,695 1176,695 1176,695 1176,695 1177,695 1177,695 1177,695 1177,695 1178,695 1178,695 1178,695 1178,695 1179,695 1179,695 1179,695 1179,695 1180,695 1180,695 1181,695 1181,694 1181,694 1181,694 1182,694 1182,694 1182,694 1182,694 1183,694 1183,694 1183,694 1183,694 1184,694 1184,694 1184,694 1185,694 1185,694 1186,694 1186,694 1186,694 1186,694 1187,694 1187,694 1187,694 1188,694 1188,694 1188,694 1188,694 1189,694 1189,694 1190,694 "/>
<polyline fill="none" opacity="1" stroke="#E619C8" stroke-width="2" points="880,738 880,737 881,737 882,737 882,737 883,736 884,736 884,736 884,736 885,736 885,736 886,735 887,735 887,735 888,735 888,735 889,735 889,734 890,734 890,734 891,733 892,732 893,732 893,732 894,731 894,730 895,730 895,729 896,729 897,728 897,728 898,727 898,727 899,727 899,727 900,727 900,724 901,723 902,723 902,722 903,722 903,722 904,722 904,721 905,721 905,721 906,721 907,720 907,720 908,720 908,720 909,720 909,720 910,719 910,719 911,719 912,718 912,718 913,718 913,717 914,717 914,716 915,716 915,715 916,714 917,714 917,714 918,713 918,713 919,713 919,713 920,711 920,710 921,710 922,708 922,708 923,708 923,707 924,707 924,706 925,706 925,706 926,705 927,705 927,704 928,704 928,703 929,703 929,701 930,700 930,700 931,699 932,698 932,698 933,697 933,697 934,697 934,695 935,694 935,693 936,692 937,692 937,691 938,691 938,691 939,691 939,689 940,688 940,687 941,687 942,686 942,685 943,684 943,684 944,684 944,683 945,683 945,683 946,682 947,682 947,681 948,681 948,680 949,680 949,680 950,679 950,679 951,678 952,678 952,677 953,677 953,676 954,675 954,675 955,674 955,673 956,673 957,673 957,672 958,671 958,671 959,670 959,670 960,668 960,667 961,666 962,666 962,665 963,665 963,665 963,665 963,664 964,664 964,664 964,662 965,662 965,662 966,661 966,661 966,660 967,660 967,658 967,658 967,657 968,657 968,656 968,656 968,655 969,655 969,654 969,654 969,653 970,653 970,653 971,653 971,653 971,653 971,652 972,650 972,650 972,650 973,650 973,650 973,649 974,649 974,648 974,648 974,648 975,648 975,648 976,648 976,647 976,647 976,647 977,646 977,646 977,646 978,646 978,644 978,644 978,644 979,644 979,643 979,643 979,642 980,642 980,642 981,642 981,641 981,641 981,639 982,639 982,637 982,635 983,635 983,633 983,633 983,632 984,632 984,632 984,632 984,631 985,631 985,629 986,629 986,628 986,627 986,627 987,627 987,626 987,626 987,626 988,626 988,624 988,624 988,623 989,623 989,622 990,622 990,620 991,620 991,619 991,619 991,619 992,619 992,618 992,618 992,618 993,618 993,617 993,617 993,616 994,616 994,614 994,614 994,613 995,611 996,611 996,611 996,611 996,609 997,609 997,607 997,607 997,606 998,606 998,605 998,605 999,605 999,603 999,603 999,601 1000,601 1000,599 1001,599 1001,598 1001,598 1001,598 1002,598 1002,597 1002,597 1002,596 1003,596 1003,594 1003,594 1003,590 1004,590 1004,588 1004,588 1004,586 1005,586 1005,586 1006,586 1006,585 1006,585 1006,584 1007,584 1007,583 1007,583 1007,580 1008,580 1008,578 1008,578 1008,577 1009,576 1009,576 1009,575 1010,575 1010,573 1011,573 1011,573 1011,573 1011,570 1012,570 1012,570 1012,570 1012,569 1013,569 1013,568 1013,568 1013,566 1014,566 1014,565 1014,563 1015,563 1015,563 1016,563 1016,562 1016,562 1016,561 1017,561 1017,558 1017,558 1017,557 1018,555 1018,553 1019,553 1019,552 1019,551 1020,551 1020,550 1021,550 1021,549 1021,549 1021,546 1022,546 1022,545 1022,545 1022,544 1023,544 1023,542 1023,542 1023,541 1024,541 1024,540 1024,540 1024,538 1025,538 1025,538 1026,537 1026,537 1026,536 1027,536 1027,534 1027,534 1027,532 1028,532 1028,532 1028,532 1028,530 1029,530 1029,529 1029,529 1029,528 1030,528 1030,527 1031,527 1031,526 1031,526 1031,525 1032,525 1032,524 1032,524 1032,523 1033,523 1033,522 1033,522 1033,522 1034,522 1034,521 1034,520 1035,520 1035,518 1036,518 1036,516 1036,516 1036,515 1037,515 1037,514 1037,514 1037,514 1038,514 1038,512 1038,512 1038,511 1039,508 1039,508 1039,506 1040,506 1040,505 1041,505 1041,504 1041,504 1041,503 1042,503 1042,503 1042,503 1042,503 1043,503 1043,501 1043,501 1043,500 1044,500 1044,499 1044,499 1044,499 1045,499 1045,498 1046,498 1046,497 1046,497 1046,495 1047,495 1047,494 1047,494 1047,492 1048,492 1048,491 1048,491 1048,489 1049,489 1049,487 1049,486 1050,486 1050,484 1051,484 1051,483 1051,483 1051,482 1052,482 1052,480 1052,480 1052,479 1053,479 1053,475 1053,475 1053,475 1054,475 1054,473 1054,473 1054,472 1055,472 1055,470 1056,470 1056,469 1056,469 1056,465 1057,465 1057,464 1057,464 1057,463 1058,463 1058,461 1058,461 1058,460 1059,460 1059,459 1059,459 1059,456 1060,456 1060,455 1061,455 1061,453 1061,453 1061,453 1062,453 1062,451 1062,451 1062,449 1063,449 1063,446 1063,446 1063,445 1064,445 1064,444 1064,444 1064,444 1065,442 1066,442 1066,440 1066,440 1066,438 1067,436 1067,436 1067,435 1068,435 1068,434 1068,434 1068,433 1069,433 1069,431 1069,431 1069,429 1070,429 1070,427 1071,427 1071,426 1071,426 1071,425 1072,425 1072,425 1072,425 1072,424 1073,424 1073,424 1073,422 1074,422 1074,420 1074,420 1074,419 1075,419 1075,419 1076,419 1076,418 1076,418 1076,417 1077,417 1077,416 1077,416 1077,415 1078,415 1078,413 1078,413 1078,412 1079,412 1079,410 1079,410 1079,408 1080,408 1080,407 1081,407 1081,407 1081,407 1081,406 1082,406 1082,403 1082,403 1082,402 1083,402 1083,400 1083,400 1083,400 1084,400 1084,398 1084,398 1084,397 1085,397 1085,393 1086,393 1086,392 1086,392 1086,391 1087,391 1087,390 1087,390 1087,388 1088,388 1088,386 1088,386 1088,386 1089,386 1089,384 1089,384 1089,383 1090,383 1090,382 1091,382 1091,381 1091,381 1091,378 1092,378 1092,376 1092,376 1092,375 1093,375 1093,372 1093,372 1093,371 1094,371 1094,369 1094,369 1094,368 1095,368 1095,366 1096,366 1096,366 1096,366 1096,365 1097,365 1097,363 1097,363 1097,362 1098,362 1098,360 1098,360 1098,359 1099,356 1099,356 1099,355 1100,355 1100,353 1101,353 1101,352 1101,352 1101,351 1102,351 1102,349 1102,349 1102,348 1103,348 1103,347 1103,347 1103,347 1104,347 1104,345 1104,345 1104,344 1105,344 1105,343 1106,343 1106,342 1106,342 1106,340 1107,340 1107,338 1107,338 1107,336 1108,336 1108,336 1108,336 1108,334 1109,334 1109,332 1109,332 1109,331 1110,329 1111,329 1111,328 1111,328 1111,328 1112,328 1112,326 1112,326 1112,324 1113,322 1113,322 1113,322 1114,322 1114,320 1114,320 1114,319 1115,319 1115,318 1116,318 1116,317 1116,317 1116,315 1117,315 1117,315 1117,315 1117,314 1118,314 1118,312 1118,312 1118,312 1119,312 1119,310 1119,310 1119,309 1120,309 1120,308 1121,308 1121,307 1121,307 1121,306 1122,306 1122,305 1122,305 1122,304 1123,304 1123,302 1123,302 1123,302 1124,302 1124,300 1124,300 1124,298 1125,298 1125,297 1126,297 1126,297 1126,296 1126,296 1127,296 1127,294 1127,294 1127,294 1128,293 1128,291 1128,291 1128,287 1129,287 1129,285 1129,285 1129,284 1130,284 1130,283 1131,283 1131,280 1131,280 1131,279 1132,279 1132,275 1132,275 1132,273 1133,271 1133,271 1133,270 1134,270 1134,268 1134,268 1134,267 1135,267 1135,266 1136,266 1136,265 1136,265 1136,264 1137,264 1137,263 1137,263 1137,262 1138,261 1138,259 1138,259 1138,257 1139,257 1139,256 1139,255 1139,253 1140,253 1140,251 1141,251 1141,249 1141,249 1141,247 1142,247 1142,245 1142,245 1142,242 1143,242 1143,240 1143,240 1143,240 1144,240 1144,237 1144,237 1144,236 1145,236 1145,234 1146,234 1146,233 1146,233 1146,232 1147,232 1147,230 1147,230 1147,229 1148,229 1148,227 1148,227 1148,226 1149,226 1149,223 1149,220 1149,219 1150,219 1150,218 1151,218 1151,216 1151,216 1151,214 1152,214 1152,213 1152,212 1152,203 1153,203 1153,201 1153,201 1153,198 1154,198 1154,197 1154,197 1154,195 1155,195 1155,193 1156,193 1156,193 1156,192 1156,190 1157,190 1157,187 1157,187 1157,185 1158,185 1158,183 1158,183 1158,182 1159,182 1159,180 1159,180 1159,177 1160,177 1160,177 1161,177 1161,175 1161,175 1161,174 1162,174 1162,172 1162,172 1162,169 1163,168 1163,168 1163,165 1164,165 1164,163 1164,163 1164,158 1165,158 1165,158 1166,158 1166,156 1166,155 1166,154 1167,154 1167,153 1167,153 1167,150 1168,150 1168,149 1168,149 1168,147 1169,147 1169,142 1169,142 1169,139 1170,139 1170,138 1171,138 1171,137 1171,137 1171,136 1172,136 1172,134 1172,134 1172,132 1173,132 1173,131 1173,131 1173,129 1174,129 1174,127 1174,125 1175,125 1175,123 1176,123 1176,122 1176,122 1176,120 1177,120 1177,120 1177,120 1177,118 1178,118 1178,117 1178,117 1178,115 1179,115 1179,114 1179,114 1179,113 1180,113 1180,110 1181,110 1181,107 1181,107 1181,105 1182,105 1182,100 1182,100 1182,98 1183,98 1183,96 1183,96 1183,94 1184,93 1184,93 1184,92 1185,92 1185,90 1186,90 1186,88 1186,88 1186,85 1187,84 1187,84 1187,80 1188,80 1188,78 1188,78 1188,77 1189,77 1189,75 1190,75 "/>
<rect x="65" y="315" width="107" height="119" opacity="1" fill="#FFFFFF" stroke="none"/>
<rect x="65" y="315" width="107" height="119" opacity="1" fill="none" stroke="#000000"/>
<text x="105" y="325" dy="0.76em" text-anchor="start" font-family="sans-serif" font-size="9.67741935483871" opacity="1" fill="#000000">
anyhow
</text>
<text x="105" y="340" dy="0.76em" text-anchor="start" font-family="sans-serif" font-size="9.67741935483871" opacity="1" fill="#000000">
err-derive
</text>
<text x="105" y="355" dy="0.76em" text-anchor="start" font-family="sans-serif" font-size="9.67741935483871" opacity="1" fill="#000000">
error-chain
</text>
<text x="105" y="370" dy="0.76em" text-anchor="start" font-family="sans-serif" font-size="9.67741935483871" opacity="1" fill="#000000">
failure
</text>
<text x="105" y="385" dy="0.76em" text-anchor="start" font-family="sans-serif" font-size="9.67741935483871" opacity="1" fill="#000000">
quick-error
</text>
<text x="105" y="400" dy="0.76em" text-anchor="start" font-family="sans-serif" font-size="9.67741935483871" opacity="1" fill="#000000">
snafu
</text>
<text x="105" y="415" dy="0.76em" text-anchor="start" font-family="sans-serif" font-size="9.67741935483871" opacity="1" fill="#000000">
thiserror
</text>
<polyline fill="none" opacity="1" stroke="#E61919" stroke-width="2" points="75,330 95,330 "/>
<polyline fill="none" opacity="1" stroke="#E6C819" stroke-width="2" points="75,344 95,344 "/>
<polyline fill="none" opacity="1" stroke="#54E619" stroke-width="2" points="75,359 95,359 "/>
<polyline fill="none" opacity="1" stroke="#19E68E" stroke-width="2" points="75,374 95,374 "/>
<polyline fill="none" opacity="1" stroke="#198EE6" stroke-width="2" points="75,390 95,390 "/>
<polyline fill="none" opacity="1" stroke="#5419E6" stroke-width="2" points="75,404 95,404 "/>
<polyline fill="none" opacity="1" stroke="#E619C8" stroke-width="2" points="75,419 95,419 "/>
</svg>
