<svg width="1200" height="800" xmlns="http://www.w3.org/2000/svg">
<rect x="0" y="0" width="1199" height="799" opacity="1" fill="#FFFFFF" stroke="none"/>
<line opacity="0.1" stroke="#000000" stroke-width="1" x1="60" y1="723" x2="1190" y2="723"/>
<line opacity="0.1" stroke="#000000" stroke-width="1" x1="60" y1="708" x2="1190" y2="708"/>
<line opacity="0.1" stroke="#000000" stroke-width="1" x1="60" y1="692" x2="1190" y2="692"/>
<line opacity="0.1" stroke="#000000" stroke-width="1" x1="60" y1="677" x2="1190" y2="677"/>
<line opacity="0.1" stroke="#000000" stroke-width="1" x1="60" y1="661" x2="1190" y2="661"/>
<line opacity="0.1" stroke="#000000" stroke-width="1" x1="60" y1="645" x2="1190" y2="645"/>
<line opacity="0.1" stroke="#000000" stroke-width="1" x1="60" y1="630" x2="1190" y2="630"/>
<line opacity="0.1" stroke="#000000" stroke-width="1" x1="60" y1="614" x2="1190" y2="614"/>
<line opacity="0.1" stroke="#000000" stroke-width="1" x1="60" y1="599" x2="1190" y2="599"/>
<line opacity="0.1" stroke="#000000" stroke-width="1" x1="60" y1="583" x2="1190" y2="583"/>
<line opacity="0.1" stroke="#000000" stroke-width="1" x1="60" y1="568" x2="1190" y2="568"/>
<line opacity="0.1" stroke="#000000" stroke-width="1" x1="60" y1="552" x2="1190" y2="552"/>
<line opacity="0.1" stroke="#000000" stroke-width="1" x1="60" y1="536" x2="1190" y2="536"/>
<line opacity="0.1" stroke="#000000" stroke-width="1" x1="60" y1="521" x2="1190" y2="521"/>
<line opacity="0.1" stroke="#000000" stroke-width="1" x1="60" y1="505" x2="1190" y2="505"/>
<line opacity="0.1" stroke="#000000" stroke-width="1" x1="60" y1="490" x2="1190" y2="490"/>
<line opacity="0.1" stroke="#000000" stroke-width="1" x1="60" y1="474" x2="1190" y2="474"/>
<line opacity="0.1" stroke="#000000" stroke-width="1" x1="60" y1="459" x2="1190" y2="459"/>
<line opacity="0.1" stroke="#000000" stroke-width="1" x1="60" y1="443" x2="1190" y2="443"/>
<line opacity="0.1" stroke="#000000" stroke-width="1" x1="60" y1="427" x2="1190" y2="427"/>
<line opacity="0.1" stroke="#000000" stroke-width="1" x1="60" y1="412" x2="1190" y2="412"/>
<line opacity="0.1" stroke="#000000" stroke-width="1" x1="60" y1="396" x2="1190" y2="396"/>
<line opacity="0.1" stroke="#000000" stroke-width="1" x1="60" y1="381" x2="1190" y2="381"/>
<line opacity="0.1" stroke="#000000" stroke-width="1" x1="60" y1="365" x2="1190" y2="365"/>
<line opacity="0.1" stroke="#000000" stroke-width="1" x1="60" y1="350" x2="1190" y2="350"/>
<line opacity="0.1" stroke="#000000" stroke-width="1" x1="60" y1="334" x2="1190" y2="334"/>
<line opacity="0.1" stroke="#000000" stroke-width="1" x1="60" y1="318" x2="1190" y2="318"/>
<line opacity="0.1" stroke="#000000" stroke-width="1" x1="60" y1="303" x2="1190" y2="303"/>
<line opacity="0.1" stroke="#000000" stroke-width="1" x1="60" y1="287" x2="1190" y2="287"/>
<line opacity="0.1" stroke="#000000" stroke-width="1" x1="60" y1="272" x2="1190" y2="272"/>
<line opacity="0.1" stroke="#000000" stroke-width="1" x1="60" y1="256" x2="1190" y2="256"/>
<line opacity="0.1" stroke="#000000" stroke-width="1" x1="60" y1="241" x2="1190" y2="241"/>
<line opacity="0.1" stroke="#000000" stroke-width="1" x1="60" y1="225" x2="1190" y2="225"/>
<line opacity="0.1" stroke="#000000" stroke-width="1" x1="60" y1="209" x2="1190" y2="209"/>
<line opacity="0.1" stroke="#000000" stroke-width="1" x1="60" y1="194" x2="1190" y2="194"/>
<line opacity="0.1" stroke="#000000" stroke-width="1" x1="60" y1="178" x2="1190" y2="178"/>
<line opacity="0.1" stroke="#000000" stroke-width="1" x1="60" y1="163" x2="1190" y2="163"/>
<line opacity="0.1" stroke="#000000" stroke-width="1" x1="60" y1="147" x2="1190" y2="147"/>
<line opacity="0.1" stroke="#000000" stroke-width="1" x1="60" y1="132" x2="1190" y2="132"/>
<line opacity="0.1" stroke="#000000" stroke-width="1" x1="60" y1="116" x2="1190" y2="116"/>
<line opacity="0.1" stroke="#000000" stroke-width="1" x1="60" y1="100" x2="1190" y2="100"/>
<line opacity="0.1" stroke="#000000" stroke-width="1" x1="60" y1="85" x2="1190" y2="85"/>
<line opacity="0.1" stroke="#000000" stroke-width="1" x1="60" y1="69" x2="1190" y2="69"/>
<line opacity="0.1" stroke="#000000" stroke-width="1" x1="60" y1="54" x2="1190" y2="54"/>
<line opacity="0.1" stroke="#000000" stroke-width="1" x1="60" y1="38" x2="1190" y2="38"/>
<line opacity="0.1" stroke="#000000" stroke-width="1" x1="60" y1="23" x2="1190" y2="23"/>
<text x="10" y="375" dy="0.76em" text-anchor="middle" font-family="sans-serif" font-size="9.67741935483871" opacity="1" fill="#000000" transform="rotate(270, 10, 375)">
Number of dependent crates
</text>
<line opacity="0.2" stroke="#000000" stroke-width="1" x1="60" y1="583" x2="1190" y2="583"/>
<line opacity="0.2" stroke="#000000" stroke-width="1" x1="60" y1="427" x2="1190" y2="427"/>
<line opacity="0.2" stroke="#000000" stroke-width="1" x1="60" y1="272" x2="1190" y2="272"/>
<line opacity="0.2" stroke="#000000" stroke-width="1" x1="60" y1="116" x2="1190" y2="116"/>
<polyline fill="none" opacity="1" stroke="#000000" stroke-width="1" points="59,10 59,740 "/>
<text x="50" y="583" dy="0.5ex" text-anchor="end" font-family="sans-serif" font-size="9.67741935483871" opacity="1" fill="#000000">
500
</text>
<polyline fill="none" opacity="1" stroke="#000000" stroke-width="1" points="54,583 59,583 "/>
<text x="50" y="427" dy="0.5ex" text-anchor="end" font-family="sans-serif" font-size="9.67741935483871" opacity="1" fill="#000000">
1000
</text>
<polyline fill="none" opacity="1" stroke="#000000" stroke-width="1" points="54,427 59,427 "/>
<text x="50" y="272" dy="0.5ex" text-anchor="end" font-family="sans-serif" font-size="9.67741935483871" opacity="1" fill="#000000">
1500
</text>
<polyline fill="none" opacity="1" stroke="#000000" stroke-width="1" points="54,272 59,272 "/>
<text x="50" y="116" dy="0.5ex" text-anchor="end" font-family="sans-serif" font-size="9.67741935483871" opacity="1" fill="#000000">
2000
</text>
<polyline fill="none" opacity="1" stroke="#000000" stroke-width="1" points="54,116 59,116 "/>
<polyline fill="none" opacity="1" stroke="#000000" stroke-width="1" points="60,740 1190,740 "/>
<text x="60" y="750" dy="0.76em" text-anchor="middle" font-family="sans-serif" font-size="9.67741935483871" opacity="1" fill="#000000">
2015-09-24Z
</text>
<polyline fill="none" opacity="1" stroke="#000000" stroke-width="1" points="60,740 60,745 "/>
<text x="173" y="750" dy="0.76em" text-anchor="middle" font-family="sans-serif" font-size="9.67741935483871" opacity="1" fill="#000000">
2016-03-10Z
</text>
<polyline fill="none" opacity="1" stroke="#000000" stroke-width="1" points="173,740 173,745 "/>
<text x="286" y="750" dy="0.76em" text-anchor="middle" font-family="sans-serif" font-size="9.67741935483871" opacity="1" fill="#000000">
2016-08-25Z
</text>
<polyline fill="none" opacity="1" stroke="#000000" stroke-width="1" points="286,740 286,745 "/>
<text x="399" y="750" dy="0.76em" text-anchor="middle" font-family="sans-serif" font-size="9.67741935483871" opacity="1" fill="#000000">
2017-02-09Z
</text>
<polyline fill="none" opacity="1" stroke="#000000" stroke-width="1" points="399,740 399,745 "/>
<text x="513" y="750" dy="0.76em" text-anchor="middle" font-family="sans-serif" font-size="9.67741935483871" opacity="1" fill="#000000">
2017-07-27Z
</text>
<polyline fill="none" opacity="1" stroke="#000000" stroke-width="1" points="513,740 513,745 "/>
<text x="626" y="750" dy="0.76em" text-anchor="middle" font-family="sans-serif" font-size="9.67741935483871" opacity="1" fill="#000000">
2018-01-11Z
</text>
<polyline fill="none" opacity="1" stroke="#000000" stroke-width="1" points="626,740 626,745 "/>
<text x="739" y="750" dy="0.76em" text-anchor="middle" font-family="sans-serif" font-size="9.67741935483871" opacity="1" fill="#000000">
2018-06-28Z
</text>
<polyline fill="none" opacity="1" stroke="#000000" stroke-width="1" points="739,740 739,745 "/>
<text x="852" y="750" dy="0.76em" text-anchor="middle" font-family="sans-serif" font-size="9.67741935483871" opacity="1" fill="#000000">
2018-12-13Z
</text>
<polyline fill="none" opacity="1" stroke="#000000" stroke-width="1" points="852,740 852,745 "/>
<text x="966" y="750" dy="0.76em" text-anchor="middle" font-family="sans-serif" font-size="9.67741935483871" opacity="1" fill="#000000">
2019-05-30Z
</text>
<polyline fill="none" opacity="1" stroke="#000000" stroke-width="1" points="966,740 966,745 "/>
<text x="1079" y="750" dy="0.76em" text-anchor="middle" font-family="sans-serif" font-size="9.67741935483871" opacity="1" fill="#000000">
2019-11-14Z
</text>
<polyline fill="none" opacity="1" stroke="#000000" stroke-width="1" points="1079,740 1079,745 "/>
<polyline fill="none" opacity="1" stroke="#E61919" stroke-width="2" points="1053,738 1055,738 1055,738 1056,738 1057,738 1057,738 1059,738 1059,737 1060,737 1060,737 1061,737 1061,737 1062,736 1063,736 1063,736 1064,736 1065,735 1065,735 1066,734 1067,734 1067,733 1068,733 1069,732 1070,732 1071,732 1072,731 1072,730 1073,730 1074,728 1074,724 1075,724 1076,724 1076,724 1077,723 1078,723 1078,723 1079,721 1080,718 1080,717 1081,717 1082,716 1082,716 1083,715 1084,715 1084,714 1085,714 1086,712 1086,712 1087,711 1088,711 1088,711 1089,710 1090,710 1090,710 1091,708 1092,708 1092,707 1093,707 1094,707 1094,707 1095,706 1096,705 1096,705 1097,704 1098,704 1098,704 1099,703 1100,703 1101,703 1101,702 1102,702 1103,702 1103,701 1104,701 1105,700 1105,700 1106,699 1107,699 1107,698 1108,698 1109,697 1109,697 1110,696 1111,695 1111,695 1112,692 1113,691 1113,691 1114,691 1115,690 1115,690 1116,687 1117,686 1117,685 1118,685 1119,684 1119,682 1120,680 1121,680 1121,679 1122,679 1123,678 1123,678 1124,678 1125,678 1125,677 1126,677 1127,674 1127,673 1128,672 1129,672 1129,671 1130,671 1131,670 1132,670 1132,670 1133,669 1134,667 1134,667 1135,666 1136,665 1136,664 1137,663 1138,662 1138,662 1139,661 1140,661 1140,661 1141,660 1142,659 1142,658 1143,658 1144,657 1144,656 1145,656 1146,656 1146,656 1147,656 1148,655 1148,654 1149,653 1150,652 1150,651 1151,651 1152,650 1152,650 1153,649 1154,648 1154,648 1155,648 1155,648 1156,648 1156,647 1156,646 1157,646 1157,646 1158,646 1158,645 1158,644 1159,644 1159,642 1160,642 1160,637 1161,637 1161,636 1161,636 1161,634 1162,634 1162,634 1163,634 1163,633 1163,633 1163,633 1164,633 1164,632 1165,632 1165,631 1165,631 1165,630 1166,629 1167,629 1167,629 1167,628 1168,628 1168,627 1169,627 1169,625 1169,625 1169,624 1170,624 1170,624 1171,624 1171,623 1171,623 1171,623 1172,622 1173,622 1173,621 1173,621 1173,621 1174,621 1174,620 1175,620 1175,619 1175,619 1175,618 1176,618 1176,617 1177,617 1177,616 1177,616 1177,614 1178,614 1178,611 1179,609 1179,609 1179,607 1180,607 1180,606 1181,606 1181,605 1181,605 1181,604 1182,604 1182,603 1183,603 1183,602 1183,602 1183,600 1184,600 1184,597 1185,597 1185,597 1185,597 1185,596 1186,596 1186,594 1187,594 1187,593 1188,593 1188,593 1189,593 1189,591 1190,591 "/>
<polyline fill="none" opacity="1" stroke="#E6C819" stroke-width="2" points="863,738 871,738 876,738 879,737 902,737 909,737 925,736 926,736 929,735 931,735 933,735 935,735 936,735 937,735 937,734 938,734 942,734 943,734 943,734 944,734 947,734 947,734 948,734 949,734 949,734 951,734 951,734 952,734 953,734 954,734 954,733 955,733 957,733 958,733 960,733 960,733 961,733 962,733 962,733 964,733 964,733 965,733 966,733 967,733 968,733 969,733 970,733 970,733 972,733 973,733 974,733 975,733 976,733 977,732 978,732 978,732 979,732 980,732 980,731 981,731 982,731 983,731 983,731 984,731 985,731 985,731 986,731 987,731 987,730 988,730 989,730 989,730 990,730 991,730 991,730 992,730 993,730 993,730 994,730 995,730 996,730 997,730 997,729 998,729 999,729 999,729 1000,730 1001,730 1001,730 1002,730 1003,729 1004,729 1005,729 1005,729 1006,729 1007,729 1007,729 1009,729 1009,729 1010,729 1011,729 1012,729 1012,729 1013,729 1014,729 1014,729 1015,729 1016,729 1016,729 1017,729 1018,729 1018,729 1019,729 1020,729 1020,729 1021,729 1022,728 1023,728 1024,728 1024,728 1025,728 1026,728 1026,728 1027,728 1028,728 1028,728 1029,727 1030,727 1030,727 1031,727 1032,726 1032,726 1033,726 1034,726 1034,726 1035,726 1036,726 1036,726 1037,726 1038,726 1038,726 1039,726 1040,726 1040,726 1041,726 1042,726 1043,726 1043,726 1044,726 1045,726 1046,726 1047,726 1047,726 1049,726 1049,726 1050,725 1051,725 1051,725 1053,725 1053,725 1054,725 1055,725 1055,725 1056,725 1057,725 1058,725 1059,724 1059,724 1060,724 1060,724 1061,724 1061,724 1062,724 1063,724 1063,724 1064,724 1065,724 1066,724 1067,724 1067,724 1068,724 1069,724 1069,724 1070,724 1071,724 1072,724 1072,724 1073,724 1074,724 1074,724 1075,724 1076,724 1076,724 1077,724 1078,724 1078,724 1080,724 1080,724 1081,724 1082,724 1082,724 1083,724 1084,724 1084,724 1085,724 1086,724 1086,724 1087,724 1088,724 1088,724 1089,724 1090,724 1091,724 1092,724 1092,724 1093,724 1094,724 1094,724 1095,724 1096,724 1096,724 1097,724 1098,724 1098,724 1099,724 1100,724 1101,724 1101,724 1102,724 1103,724 1103,724 1104,724 1105,724 1106,724 1107,724 1107,724 1108,724 1109,724 1109,724 1110,724 1111,724 1111,724 1112,724 1113,724 1113,724 1115,724 1115,724 1116,724 1117,724 1117,724 1118,724 1119,724 1119,724 1120,724 1121,723 1121,723 1122,723 1123,724 1123,723 1124,723 1125,723 1125,723 1126,723 1127,723 1127,723 1128,723 1129,723 1129,723 1130,723 1131,723 1132,723 1132,723 1133,723 1134,723 1134,723 1135,722 1136,722 1136,721 1137,721 1138,721 1138,721 1139,721 1140,721 1140,722 1141,722 1142,721 1142,721 1143,721 1144,721 1144,721 1145,721 1146,721 1146,721 1147,720 1148,720 1149,720 1150,720 1150,720 1151,720 1152,721 1152,721 1153,720 1154,720 1154,720 1155,720 1155,721 1156,721 1156,721 1156,721 1157,721 1157,720 1158,720 1158,721 1158,721 1159,721 1159,721 1160,721 1160,721 1161,721 1161,721 1161,721 1161,721 1162,721 1162,721 1163,721 1163,721 1163,721 1163,721 1164,721 1164,721 1165,721 1165,721 1165,721 1165,720 1166,720 1167,720 1167,720 1167,720 1168,720 1168,720 1169,720 1169,720 1169,720 1169,720 1170,720 1170,720 1171,720 1171,720 1171,720 1171,720 1172,720 1173,720 1173,720 1173,720 1173,720 1174,720 1174,720 1175,720 1175,719 1175,719 1175,719 1176,719 1176,719 1177,719 1177,719 1177,719 1177,719 1178,719 1178,719 1179,719 1179,719 1179,719 1180,719 1180,719 1181,719 1181,719 1181,719 1181,719 1182,719 1182,719 1183,719 1183,719 1183,719 1183,719 1184,719 1184,719 1185,719 1185,719 1185,719 1185,719 1186,719 1186,719 1187,719 1187,719 1188,719 1188,719 1189,719 1189,719 1190,719 "/>
<polyline fill="none" opacity="1" stroke="#54E619" stroke-width="2" points="242,738 243,738 248,738 254,738 261,738 262,737 262,737 268,737 280,736 281,736 282,736 287,735 289,735 289,734 291,734 291,734 295,734 296,734 298,733 299,733 301,732 302,732 306,732 308,731 309,731 311,730 312,729 313,728 314,728 318,728 319,727 320,727 321,727 322,726 323,726 324,726 324,726 325,726 326,726 327,726 328,726 329,726 329,726 330,726 331,725 331,725 332,725 333,725 333,724 334,724 335,724 335,724 336,723 337,722 337,722 339,722 339,721 341,721 341,721 345,721 346,720 347,720 347,720 348,719 349,719 350,719 351,719 351,718 352,717 353,716 355,715 355,715 356,714 357,714 358,714 359,714 360,713 360,713 362,713 362,712 363,712 364,711 364,710 365,709 366,708 366,706 367,705 368,705 368,705 369,705 370,705 370,703 371,703 372,703 372,701 374,701 374,701 375,700 376,700 376,700 377,700 378,700 378,699 379,699 380,699 380,699 381,697 382,697 382,697 383,697 384,697 384,697 386,696 386,696 389,696 389,695 390,695 391,695 391,695 392,695 393,695 393,694 394,694 395,694 395,694 396,694 397,693 397,693 398,692 399,692 399,691 400,691 401,691 401,691 402,690 403,689 404,689 405,688 405,687 406,687 407,687 407,687 408,687 409,686 409,686 410,686 411,686 411,686 412,685 413,685 413,685 414,684 415,684 415,683 416,683 417,682 418,682 418,681 419,681 420,681 420,680 421,680 422,680 422,680 423,680 424,679 424,678 425,677 426,676 426,676 427,676 428,676 428,675 429,675 430,674 430,673 431,673 432,672 432,672 433,672 434,672 434,672 435,672 436,671 436,671 437,671 438,671 438,671 439,671 440,671 440,670 441,670 442,669 442,669 443,668 444,668 444,667 445,667 446,667 447,666 447,665 448,665 449,665 449,665 450,665 451,664 451,664 452,664 453,663 453,662 454,661 455,661 455,660 456,660 457,659 457,659 458,658 459,658 459,658 460,657 461,657 461,657 462,656 463,655 463,655 464,653 465,652 465,652 466,652 467,652 467,651 468,649 469,649 469,649 470,649 471,648 471,648 472,648 473,648 473,648 474,647 475,646 475,645 476,645 477,645 478,645 478,645 479,644 480,644 480,644 481,644 482,643 482,643 483,643 484,642 484,641 485,641 486,640 486,639 487,639 488,639 488,638 489,638 490,637 490,637 491,636 492,636 492,635 493,635 494,635 494,634 495,634 496,634 496,634 497,634 498,633 498,633 499,633 500,633 500,632 501,632 502,631 502,631 503,631 504,630 504,629 505,627 506,627 507,627 507,626 508,625 509,624 509,623 510,623 511,623 511,622 512,620 513,620 513,620 514,619 515,619 515,618 516,618 517,618 517,618 518,617 519,617 519,616 520,616 521,616 521,616 522,615 523,615 523,615 524,614 525,614 525,612 526,612 527,612 527,612 528,611 529,610 529,610 530,609 531,609 531,608 532,608 533,607 533,606 534,606 535,605 536,604 536,604 537,603 538,602 538,601 539,601 540,601 540,600 541,599 542,598 542,598 543,598 544,598 544,597 545,597 546,596 546,596 547,596 548,596 548,596 549,596 550,596 550,596 551,596 552,596 552,588 553,588 554,587 554,587 555,586 556,585 556,584 557,584 558,584 558,583 559,583 560,582 560,582 561,582 562,581 562,581 563,580 564,579 564,579 565,578 566,577 567,577 567,577 568,577 569,577 569,577 570,576 571,576 571,576 572,576 573,576 573,576 574,576 575,575 575,575 576,574 577,574 577,574 578,574 579,573 579,573 580,573 581,573 581,572 582,571 583,570 583,569 584,569 585,568 585,568 586,568 587,567 587,566 588,566 589,566 589,566 590,566 591,566 591,565 592,565 593,565 593,564 594,564 595,565 596,564 596,564 597,564 598,563 598,563 599,562 600,562 600,561 601,561 602,560 602,559 603,559 604,559 604,559 605,559 606,559 606,559 607,560 608,559 608,558 609,558 610,557 610,557 611,557 612,557 612,556 613,555 614,554 614,554 615,554 616,554 616,553 617,552 618,551 618,551 619,550 620,550 620,549 621,549 622,550 622,549 623,549 624,549 625,549 625,549 626,548 627,547 627,547 628,547 629,547 629,547 630,547 631,547 631,546 632,545 633,545 633,545 634,546 635,546 635,546 636,546 637,546 637,546 638,547 639,547 639,547 640,546 641,546 641,545 642,545 643,545 643,545 644,545 645,544 645,544 646,544 647,544 647,544 648,544 649,543 649,542 650,542 651,542 651,543 652,542 653,542 653,542 654,542 655,542 656,542 656,542 657,542 658,542 658,543 659,543 660,543 660,545 661,545 662,545 662,545 663,544 664,545 664,544 665,544 666,544 666,543 667,543 668,542 668,542 669,542 670,542 670,542 671,543 672,542 672,542 673,541 674,542 674,542 675,542 676,542 676,542 677,542 678,542 678,541 679,541 680,541 680,540 681,540 682,540 682,540 683,540 684,540 685,540 685,540 686,540 687,540 687,540 688,540 689,540 689,540 690,541 691,541 691,540 692,540 693,540 693,540 694,540 695,540 695,539 696,539 697,540 697,540 698,540 699,539 699,539 700,539 701,539 701,539 702,539 703,538 703,538 704,538 705,538 705,537 706,538 707,538 707,538 708,539 709,538 709,538 710,538 711,538 711,536 712,536 713,536 713,536 714,536 715,536 716,537 716,537 717,537 718,538 718,538 719,538 720,538 720,538 721,538 722,538 722,538 723,537 724,537 724,538 725,537 726,537 726,537 727,537 728,537 728,537 729,537 730,536 730,536 731,536 732,536 732,536 733,536 734,537 734,536 735,536 736,536 736,536 737,536 738,536 738,536 739,536 740,536 740,536 741,536 742,536 742,536 743,536 744,536 745,536 745,536 746,536 747,535 747,535 748,535 749,535 749,535 750,535 751,535 751,534 752,534 753,533 753,533 754,533 755,533 755,534 756,535 757,534 757,534 758,535 759,535 759,535 760,535 761,535 761,535 762,535 763,535 763,535 764,536 765,536 765,535 766,535 767,535 767,535 768,535 769,535 769,535 770,535 771,535 771,535 772,535 773,535 774,535 774,535 775,535 776,535 776,535 777,534 778,534 778,534 779,534 780,534 780,534 781,533 782,534 782,533 783,533 784,533 784,533 785,533 786,533 786,532 787,532 788,532 788,532 789,532 790,533 790,533 791,532 792,532 792,532 793,532 794,532 794,532 795,532 796,532 796,532 797,532 798,532 798,531 799,531 800,531 800,531 800,530 801,530 802,530 802,530 803,530 804,530 805,531 805,531 806,531 807,531 807,530 808,530 809,530 809,530 810,530 811,530 811,530 812,530 813,530 813,530 814,530 815,530 815,530 816,530 817,530 817,530 818,530 819,530 819,530 820,530 821,530 821,530 822,529 823,529 823,529 824,529 825,528 825,528 826,528 827,528 827,528 828,528 829,528 829,529 830,536 831,537 831,537 832,536 833,536 834,536 834,536 835,535 836,536 836,536 837,535 838,535 838,535 839,535 840,535 840,535 841,535 842,535 842,535 843,535 844,535 844,535 845,535 846,535 846,535 847,535 848,535 848,535 849,535 850,535 850,535 851,535 852,535 852,535 853,535 854,535 854,535 855,535 856,536 856,536 857,535 858,535 858,535 859,535 860,536 860,536 861,536 862,536 863,536 863,536 864,535 865,535 865,535 866,536 867,536 867,536 868,537 869,537 869,537 870,536 871,536 871,536 872,536 873,536 873,536 874,536 875,537 875,537 876,537 877,537 877,536 878,536 879,536 879,535 880,535 881,535 881,535 882,535 883,535 883,535 884,535 885,535 885,534 886,534 887,534 887,535 888,535 889,535 889,535 890,535 891,535 891,535 892,535 893,535 894,535 894,536 895,536 896,535 896,535 897,535 898,535 898,535 899,534 900,534 900,534 901,534 902,534 902,534 903,534 904,534 904,534 905,534 906,534 906,534 907,534 908,534 908,535 909,535 910,534 910,534 911,534 912,534 912,534 913,534 914,534 914,535 915,535 916,535 916,535 917,535 918,534 918,534 919,535 920,535 920,535 921,534 922,534 923,534 923,534 924,535 925,534 925,534 926,535 927,535 927,535 928,535 929,535 929,533 930,533 931,533 931,533 932,533 933,533 933,533 934,533 935,533 935,533 936,533 937,533 937,533 938,533 939,533 939,533 940,534 941,534 941,534 942,534 943,534 943,534 944,534 945,534 945,534 946,534 947,534 947,534 948,534 949,534 949,534 950,534 951,534 951,534 952,534 953,534 954,534 954,535 955,534 956,534 956,534 957,534 958,534 958,534 959,535 960,535 960,535 961,534 962,535 962,535 963,535 964,534 964,534 965,533 966,533 966,533 967,532 968,532 968,533 969,533 970,533 970,533 971,533 972,533 972,532 973,532 974,533 974,533 975,533 976,533 976,533 977,534 978,534 978,533 979,533 980,533 980,533 981,533 982,533 983,533 983,534 984,534 985,534 985,533 986,533 987,533 987,533 988,533 989,533 989,533 990,533 991,533 991,533 992,533 993,533 993,533 994,533 995,532 995,532 996,532 997,532 997,532 998,532 999,532 999,532 1000,532 1001,532 1001,532 1002,532 1003,532 1003,532 1004,532 1005,532 1005,532 1006,532 1007,531 1007,531 1008,531 1009,531 1009,531 1010,531 1011,531 1012,531 1012,530 1013,530 1014,530 1014,530 1015,530 1016,530 1016,531 1017,531 1018,531 1018,531 1019,531 1020,531 1020,531 1021,531 1022,531 1022,531 1023,531 1024,531 1024,531 1025,531 1026,531 1026,531 1027,531 1028,531 1028,531 1029,531 1030,531 1030,531 1031,531 1032,531 1032,531 1033,531 1034,531 1034,531 1035,531 1036,531 1036,531 1037,531 1038,531 1038,531 1039,531 1040,531 1040,531 1041,531 1042,531 1043,531 1043,531 1044,529 1045,529 1045,529 1046,529 1047,529 1047,529 1048,529 1049,529 1049,529 1050,529 1051,529 1051,529 1052,529 1053,529 1053,529 1054,529 1055,529 1055,528 1056,528 1057,528 1057,528 1058,528 1059,529 1059,529 1060,529 1060,529 1061,529 1061,529 1062,529 1063,529 1063,529 1064,529 1065,529 1065,529 1066,529 1067,529 1067,529 1068,529 1069,529 1069,529 1070,529 1071,529 1072,529 1072,529 1073,529 1074,528 1074,528 1075,528 1076,527 1076,527 1077,527 1078,527 1078,527 1079,526 1080,526 1080,527 1081,527 1082,528 1082,528 1083,528 1084,528 1084,527 1085,527 1086,528 1086,528 1087,528 1088,528 1088,528 1089,528 1090,528 1090,528 1091,528 1092,528 1092,528 1093,528 1094,528 1094,528 1095,528 1096,528 1096,528 1097,528 1098,528 1098,528 1099,528 1100,528 1101,528 1101,528 1102,528 1103,528 1103,528 1104,528 1105,528 1105,528 1106,528 1107,528 1107,527 1108,527 1109,527 1109,527 1110,527 1111,527 1111,527 1112,527 1113,527 1113,527 1114,527 1115,527 1115,527 1116,527 1117,528 1117,528 1118,528 1119,528 1119,528 1120,528 1121,528 1121,529 1122,529 1123,529 1123,529 1124,530 1125,530 1125,529 1126,530 1127,530 1127,530 1128,530 1129,530 1129,530 1130,530 1131,530 1132,530 1132,530 1133,530 1134,530 1134,530 1135,530 1136,530 1136,530 1137,530 1138,529 1138,528 1139,528 1140,528 1140,528 1141,528 1142,528 1142,528 1143,528 1144,528 1144,529 1145,529 1146,529 1146,528 1147,528 1148,528 1148,528 1149,528 1150,527 1150,527 1151,527 1152,527 1152,527 1153,527 1154,527 1154,527 1155,527 1155,527 1156,527 1156,527 1156,528 1157,528 1157,528 1158,528 1158,528 1158,528 1159,528 1159,528 1160,528 1160,528 1161,528 1161,528 1161,528 1161,528 1162,528 1162,528 1163,528 1163,528 1163,528 1163,528 1164,528 1164,528 1165,528 1165,528 1165,528 1165,529 1166,529 1167,529 1167,529 1167,529 1168,529 1168,529 1169,529 1169,529 1169,529 1169,530 1170,530 1170,530 1171,530 1171,530 1171,530 1171,529 1172,529 1173,529 1173,529 1173,529 1173,529 1174,529 1174,529 1175,529 1175,529 1175,529 1175,529 1176,529 1176,529 1177,529 1177,529 1177,529 1177,529 1178,529 1178,530 1179,530 1179,530 1179,530 1180,530 1180,529 1181,529 1181,530 1181,530 1181,530 1182,530 1182,530 1183,530 1183,530 1183,530 1183,530 1184,530 1184,529 1185,529 1185,529 1185,529 1185,529 1186,529 1186,529 1187,529 1187,529 1188,529 1188,529 1189,529 1189,529 1190,529 "/>
<polyline fill="none" opacity="1" stroke="#19E68E" stroke-width="2" points="588,738 589,738 590,738 591,737 592,736 593,736 594,736 595,735 596,734 596,733 597,733 598,732 598,731 599,731 600,731 600,730 601,729 602,729 604,729 605,728 606,727 606,726 607,726 608,725 608,724 611,724 612,722 612,722 614,722 614,721 615,721 616,720 617,719 618,719 618,718 619,718 620,717 620,717 621,717 622,716 623,715 624,713 625,713 625,712 626,712 627,712 627,711 628,711 629,710 629,709 630,709 631,709 631,709 632,709 633,707 633,707 634,707 635,706 635,705 636,705 637,704 637,703 638,702 639,701 639,700 640,700 641,699 641,698 642,698 643,697 643,697 644,696 645,694 645,693 646,693 647,693 647,693 648,693 649,693 649,692 650,692 651,692 651,691 652,689 653,689 653,688 654,687 655,685 656,684 656,683 657,683 658,681 658,679 659,677 660,677 660,677 661,677 662,674 662,673 663,671 664,670 664,670 665,670 666,668 666,668 667,667 668,667 668,667 669,666 670,666 670,665 671,663 672,663 672,662 673,662 674,661 674,661 675,660 676,659 676,659 677,658 678,658 678,657 679,656 680,656 680,655 681,654 682,653 682,652 683,651 684,651 685,649 685,649 686,647 687,644 687,643 688,642 689,641 689,639 690,638 691,637 691,637 692,636 693,635 693,635 694,634 695,633 695,631 696,629 697,628 697,627 698,626 699,625 699,624 700,623 701,622 701,620 702,619 703,620 703,619 704,618 705,617 705,616 706,615 707,614 707,613 708,612 709,609 709,609 710,608 711,607 711,607 712,606 713,606 713,605 714,605 715,604 716,601 716,601 717,601 718,597 718,595 719,594 720,593 720,592 721,591 722,591 722,591 723,590 724,590 724,589 725,588 726,587 726,587 727,586 728,586 729,585 730,585 730,584 731,583 732,582 732,580 733,579 734,576 734,576 735,574 736,573 736,573 737,573 738,573 738,573 739,571 740,571 740,570 741,569 742,568 742,568 743,567 744,566 745,566 745,566 746,564 747,564 747,564 748,563 749,562 749,560 750,560 751,560 751,559 752,558 753,558 753,558 754,557 755,556 755,553 756,552 757,552 757,551 758,550 759,549 759,549 760,548 761,548 761,547 762,546 763,546 763,544 764,543 765,542 765,541 766,541 767,540 767,539 768,539 769,539 769,538 770,537 771,537 771,536 772,534 773,534 774,532 774,530 775,530 776,528 776,528 777,527 778,526 778,525 779,524 780,524 780,523 781,523 782,522 782,522 783,521 784,520 784,519 785,517 786,516 786,516 787,515 788,515 788,513 789,511 790,511 790,511 791,510 792,509 792,509 793,507 794,506 794,505 795,504 796,503 796,501 797,500 798,499 798,498 799,497 800,497 800,495 800,494 801,494 802,493 802,491 803,490 804,487 805,484 805,483 806,481 807,481 807,480 808,479 809,479 809,478 810,478 811,476 811,476 812,475 813,475 813,474 814,474 815,473 815,472 816,471 817,470 817,467 818,467 819,466 819,464 820,464 821,464 821,463 822,461 823,459 823,458 824,457 825,456 825,456 826,456 827,455 827,453 828,454 829,453 829,451 830,438 831,437 831,437 832,437 833,435 834,435 834,434 835,434 836,433 836,431 837,430 838,429 838,429 839,426 840,426 840,424 841,424 842,423 842,421 843,421 844,421 844,421 845,419 846,417 846,416 847,413 848,411 848,408 849,407 850,406 850,405 851,404 852,402 852,401 853,401 854,401 854,399 855,397 856,395 856,394 857,393 858,392 858,391 859,389 860,388 860,388 861,388 862,387 863,385 863,385 864,384 865,383 865,382 866,380 867,378 867,378 868,377 869,375 869,372 870,370 871,371 871,370 872,370 873,369 873,368 874,367 875,365 875,364 876,364 877,362 877,361 878,361 879,361 879,360 880,360 881,357 881,356 882,356 883,354 883,353 884,352 885,351 885,351 886,351 887,350 887,349 888,348 889,347 889,346 890,346 891,346 891,341 892,341 893,340 894,339 894,336 895,336 896,335 896,334 897,334 898,334 898,333 899,333 900,331 900,331 901,331 902,331 902,329 903,329 904,328 904,326 905,324 906,323 906,322 907,320 908,319 908,320 909,318 910,317 910,315 911,313 912,311 912,311 913,310 914,310 914,308 915,308 916,306 916,306 917,305 918,304 918,303 919,303 920,301 920,300 921,300 922,300 923,299 923,299 924,296 925,296 925,294 926,293 927,293 927,291 928,289 929,288 929,288 930,287 931,286 931,286 932,286 933,284 933,283 934,281 935,279 935,278 936,278 937,277 937,277 938,277 939,276 939,275 940,274 941,273 941,272 942,271 943,271 943,270 944,269 945,268 945,267 946,267 947,265 947,264 948,263 949,262 949,262 950,261 951,260 951,259 952,258 953,258 954,258 954,257 955,257 956,257 956,256 957,255 958,253 958,253 959,251 960,250 960,251 961,251 962,245 962,244 963,244 964,244 964,243 965,242 966,241 966,241 967,240 968,239 968,239 969,238 970,239 970,240 971,239 972,238 972,237 973,236 974,236 974,235 975,234 976,232 976,232 977,230 978,230 978,228 979,227 980,224 980,223 981,223 982,223 983,221 983,219 984,218 985,218 985,215 986,214 987,214 987,213 988,212 989,211 989,209 990,206 991,205 991,205 992,205 993,204 993,203 994,203 995,201 995,201 996,200 997,200 997,200 998,199 999,199 999,198 1000,198 1001,195 1001,195 1002,193 1003,194 1003,192 1004,189 1005,189 1005,189 1006,188 1007,187 1007,187 1008,186 1009,185 1009,185 1010,185 1011,184 1012,183 1012,182 1013,181 1014,180 1014,180 1015,179 1016,179 1016,177 1017,175 1018,174 1018,173 1019,173 1020,172 1020,171 1021,170 1022,167 1022,166 1023,166 1024,166 1024,166 1025,165 1026,165 1026,165 1027,165 1028,164 1028,163 1029,162 1030,161 1030,161 1031,160 1032,159 1032,158 1033,159 1034,159 1034,157 1035,156 1036,155 1036,153 1037,153 1038,153 1038,153 1039,152 1040,151 1040,150 1041,148 1042,148 1043,147 1043,146 1044,146 1045,145 1045,144 1046,143 1047,143 1047,142 1048,142 1049,142 1049,140 1050,141 1051,140 1051,139 1052,138 1053,139 1053,140 1054,138 1055,137 1055,137 1056,135 1057,133 1057,133 1058,132 1059,132 1059,131 1060,131 1060,131 1061,130 1061,132 1062,132 1063,132 1063,132 1064,132 1065,131 1065,130 1066,130 1067,130 1067,129 1068,128 1069,130 1069,130 1070,129 1071,129 1072,133 1072,134 1073,133 1074,135 1074,138 1075,137 1076,137 1076,137 1077,137 1078,136 1078,136 1079,137 1080,139 1080,139 1081,140 1082,140 1082,141 1083,137 1084,137 1084,137 1085,137 1086,136 1086,136 1087,136 1088,135 1088,134 1089,132 1090,131 1090,130 1091,130 1092,129 1092,127 1093,127 1094,127 1094,126 1095,125 1096,124 1096,123 1097,124 1098,123 1098,122 1099,121 1100,121 1101,121 1101,121 1102,121 1103,121 1103,120 1104,119 1105,120 1105,119 1106,114 1107,113 1107,113 1108,113 1109,113 1109,112 1110,112 1111,112 1111,107 1112,105 1113,105 1113,104 1114,104 1115,102 1115,102 1116,102 1117,103 1117,103 1118,101 1119,100 1119,100 1120,100 1121,102 1121,101 1122,101 1123,101 1123,100 1124,99 1125,98 1125,99 1126,101 1127,103 1127,103 1128,102 1129,101 1129,100 1130,100 1131,100 1132,99 1132,99 1133,98 1134,98 1134,98 1135,97 1136,97 1136,94 1137,94 1138,95 1138,94 1139,94 1140,94 1140,91 1141,92 1142,93 1142,93 1143,91 1144,90 1144,89 1145,88 1146,88 1146,89 1147,89 1148,87 1148,87 1149,87 1150,87 1150,86 1151,86 1152,86 1152,86 1153,86 1154,82 1154,82 1155,81 1155,82 1156,82 1156,81 1156,81 1157,81 1157,81 1158,81 1158,81 1158,81 1159,81 1159,82 1160,82 1160,87 1161,87 1161,87 1161,87 1161,87 1162,87 1162,88 1163,88 1163,88 1163,88 1163,88 1164,88 1164,88 1165,88 1165,87 1165,87 1165,87 1166,87 1167,87 1167,86 1167,86 1168,86 1168,85 1169,85 1169,82 1169,82 1169,82 1170,82 1170,82 1171,82 1171,81 1171,81 1171,80 1172,80 1173,80 1173,79 1173,79 1173,78 1174,78 1174,78 1175,78 1175,77 1175,77 1175,76 1176,76 1176,76 1177,76 1177,76 1177,76 1177,75 1178,75 1178,75 1179,76 1179,76 1179,76 1180,76 1180,76 1181,76 1181,75 1181,75 1181,77 1182,77 1182,78 1183,78 1183,76 1183,76 1183,77 1184,77 1184,77 1185,77 1185,76 1185,76 1185,76 1186,76 1186,77 1187,76 1187,76 1188,76 1188,76 1189,76 1189,76 1190,76 "/>
<polyline fill="none" opacity="1" stroke="#198EE6" stroke-width="2" points="60,738 60,738 64,738 75,738 84,737 93,737 94,737 99,737 100,736 101,736 106,736 111,736 111,735 118,735 125,735 126,735 128,734 134,734 138,734 140,734 147,733 148,733 148,733 149,733 150,733 151,733 152,733 153,733 153,733 155,733 155,733 156,733 157,733 158,733 160,733 161,733 161,732 162,732 163,732 163,732 164,732 165,732 166,732 167,732 167,732 168,732 169,732 169,732 170,732 171,732 171,732 172,732 173,732 173,732 175,732 175,732 176,732 177,732 177,732 180,732 181,732 182,731 182,731 183,731 184,731 184,731 185,731 186,731 186,731 187,731 188,731 189,731 190,731 191,731 192,730 192,730 193,730 194,730 194,730 196,730 196,730 197,730 198,730 199,730 200,730 200,729 201,729 202,729 202,729 203,729 204,729 204,729 205,729 206,729 206,729 208,729 209,729 210,729 211,728 212,728 213,728 213,728 215,728 216,728 217,728 217,728 219,728 219,728 220,728 221,727 221,727 222,727 223,727 224,727 225,727 226,727 227,727 228,727 229,727 229,727 230,727 231,726 231,726 232,726 233,726 233,726 234,726 235,726 236,726 237,726 237,726 238,726 239,725 240,725 240,725 241,725 242,725 242,725 243,725 244,725 244,725 245,725 246,725 247,724 248,724 248,724 249,724 250,724 250,724 252,724 252,724 254,724 255,724 256,724 256,724 257,724 258,724 258,724 259,723 260,723 261,723 262,723 262,723 263,723 264,723 266,723 267,723 268,723 269,723 269,723 270,722 271,722 271,722 272,722 273,722 275,722 275,722 276,722 277,722 277,722 278,722 279,722 280,722 281,722 281,722 282,722 283,722 284,722 285,722 285,722 286,721 288,721 289,721 289,721 291,721 291,720 292,720 293,720 293,720 294,720 295,720 295,720 296,720 297,720 298,720 298,720 300,720 300,720 301,720 302,720 302,720 303,720 304,720 304,720 305,720 306,720 306,720 307,720 308,720 308,719 309,719 310,719 310,719 311,719 312,719 312,719 313,719 314,719 314,719 315,719 316,719 316,719 317,719 318,719 318,719 319,719 320,719 320,718 321,718 322,718 322,718 324,718 324,718 325,718 326,718 327,718 328,718 329,718 330,717 331,717 331,717 332,717 333,717 333,717 335,717 335,717 336,716 337,716 337,716 338,716 339,716 339,716 341,716 341,716 342,715 343,715 343,715 344,715 345,715 345,715 346,715 347,715 347,715 348,715 349,715 349,715 350,715 351,715 351,715 352,715 353,715 354,715 355,715 355,715 356,715 357,715 358,714 359,714 360,714 360,714 361,714 362,714 362,714 363,714 364,714 364,714 365,714 366,714 366,714 367,713 368,713 368,713 369,713 370,713 370,712 371,712 372,712 372,712 373,712 374,712 374,712 375,712 376,712 376,712 377,712 378,712 378,712 379,712 380,712 380,711 381,711 382,711 382,711 384,711 384,711 385,710 386,710 386,710 387,710 388,710 389,710 389,709 390,709 391,709 391,709 392,709 393,709 393,709 394,709 395,709 395,708 396,708 397,708 397,709 398,708 399,708 399,708 400,708 401,708 401,708 402,708 403,708 403,708 404,708 405,707 405,707 406,707 407,707 407,707 408,707 409,707 409,707 410,707 411,707 411,707 412,707 413,706 413,706 414,706 415,706 416,706 417,706 418,706 418,706 419,706 420,706 421,705 422,705 422,705 423,705 424,705 424,705 425,705 426,705 426,705 427,705 428,705 428,705 429,705 430,705 430,705 431,705 432,705 432,705 433,705 434,705 434,705 435,705 436,705 436,705 437,704 438,704 438,704 439,704 440,704 440,704 441,704 442,704 442,704 443,704 444,704 444,704 445,704 446,704 447,704 447,704 448,704 449,704 449,703 450,703 451,703 451,703 452,703 453,703 453,703 454,703 455,703 455,703 456,703 457,702 457,702 458,702 459,702 459,702 460,702 461,702 461,702 462,702 463,702 463,702 464,702 465,702 465,702 466,702 467,702 467,702 468,702 469,701 469,701 470,701 471,701 471,701 472,701 473,701 473,701 474,701 475,700 475,700 476,700 477,700 478,700 478,700 479,700 480,700 480,699 481,699 482,699 482,699 483,699 484,698 484,698 485,698 486,698 486,698 487,698 488,698 488,698 489,698 490,698 490,698 491,698 492,698 493,698 494,698 494,698 495,698 496,698 496,698 497,698 498,698 498,698 499,698 500,698 500,698 501,698 502,698 502,698 503,698 504,698 504,698 505,698 506,698 507,698 507,698 508,698 509,698 509,698 510,698 511,698 511,697 512,697 513,697 513,697 514,697 515,697 515,697 516,696 517,696 517,696 518,696 519,696 519,696 520,696 521,696 521,696 522,696 523,696 523,696 524,696 525,696 525,696 526,696 527,695 527,695 528,695 529,695 529,695 530,695 531,695 531,695 532,695 533,695 533,695 534,695 535,695 536,695 536,695 537,695 538,695 538,695 539,695 540,695 540,695 541,695 542,695 542,695 543,695 544,695 544,695 545,695 546,695 546,695 547,695 548,695 548,695 549,695 550,695 550,695 551,695 552,695 552,695 553,694 554,694 554,694 555,694 556,694 557,693 558,693 558,693 559,693 560,693 560,693 561,693 562,693 562,693 563,693 564,693 565,693 566,693 567,693 567,693 568,692 569,692 569,692 570,692 571,692 571,692 572,692 573,692 573,692 574,691 575,691 575,691 576,691 577,691 577,691 578,691 579,691 579,691 580,691 581,691 581,691 582,691 583,691 583,690 584,690 585,690 585,690 586,690 587,690 587,690 588,690 589,690 589,690 590,690 591,690 591,690 592,690 593,690 593,689 594,689 595,689 596,689 596,689 597,689 598,689 598,690 599,690 600,690 600,690 601,690 602,690 602,690 603,690 604,690 604,690 605,690 606,690 606,690 607,690 608,689 608,689 609,689 610,690 610,690 611,690 612,690 612,690 613,690 614,690 614,690 615,690 616,690 617,690 618,690 618,690 619,690 620,690 620,690 621,690 622,690 622,690 623,690 625,690 625,690 626,690 627,690 627,690 628,690 629,690 629,689 631,689 631,689 632,689 633,689 633,689 634,689 635,689 635,689 636,689 637,689 637,689 638,689 639,689 639,689 640,689 641,689 641,688 642,688 643,688 643,688 644,688 645,688 645,687 646,687 647,687 647,687 648,687 649,687 649,687 650,687 651,687 651,687 652,687 653,686 653,686 654,686 655,686 656,686 656,686 657,685 658,685 658,685 659,685 660,685 660,685 661,684 662,684 662,684 663,684 664,684 664,684 665,684 666,684 666,684 667,684 668,684 668,684 669,684 670,685 670,685 671,685 672,685 672,684 673,684 674,684 674,684 675,684 676,684 676,684 677,684 678,684 678,684 679,684 680,684 680,684 681,684 682,684 682,684 683,683 684,683 685,683 685,683 686,683 687,683 687,683 688,683 689,683 689,683 690,683 691,683 691,683 692,683 693,683 693,682 694,682 695,682 695,682 696,682 697,682 697,682 698,681 699,681 699,681 700,681 701,681 701,681 702,681 703,681 703,681 704,681 705,681 705,681 706,681 707,681 707,681 708,682 709,682 709,682 710,682 711,682 711,682 712,681 713,681 713,681 714,681 715,682 716,681 716,681 717,681 718,681 718,681 719,681 720,681 720,681 721,681 722,681 722,681 723,681 724,681 724,681 725,681 726,681 726,681 727,681 728,681 728,681 729,681 730,681 730,681 731,681 732,681 732,681 733,680 734,680 734,680 735,680 736,680 736,680 737,680 738,680 738,680 739,680 740,680 740,680 741,680 742,680 742,680 743,680 744,680 745,680 745,680 746,680 747,680 747,679 749,679 749,679 750,679 751,679 751,679 752,679 753,679 753,679 754,679 755,679 755,679 756,679 757,679 757,679 758,679 759,679 759,679 760,679 761,679 761,679 762,679 763,679 763,679 764,679 765,679 765,679 766,679 767,678 767,678 768,678 769,678 769,678 770,678 771,678 771,678 772,678 773,678 774,678 774,678 775,678 776,678 776,678 777,678 778,678 778,678 779,678 780,678 780,678 781,678 782,678 782,678 783,678 784,678 784,678 785,678 786,678 786,678 787,677 788,677 788,677 789,677 790,677 790,677 791,677 792,677 792,677 793,677 794,677 794,677 795,677 796,677 796,677 797,677 798,677 798,677 799,677 800,677 800,677 800,677 801,677 802,677 802,677 803,677 804,677 805,677 805,677 806,677 807,677 807,677 808,677 809,677 809,677 810,677 811,677 811,677 812,677 813,677 813,677 814,677 815,677 815,677 816,677 817,677 817,677 818,677 819,677 819,677 820,677 821,677 821,677 822,677 823,677 823,677 824,677 825,677 825,677 826,677 827,677 827,677 828,677 829,677 829,676 830,676 831,676 831,676 832,676 833,676 834,676 834,676 835,676 836,676 836,676 837,676 838,676 838,676 839,676 840,676 840,676 841,676 842,676 842,676 843,676 844,676 844,676 845,676 846,676 846,676 847,676 848,676 848,676 849,676 850,676 850,676 851,676 852,676 852,676 853,676 854,676 854,676 855,676 856,676 856,676 857,676 858,676 858,676 859,676 860,676 860,676 861,676 862,676 863,676 863,676 864,676 865,676 865,676 866,675 867,675 867,675 868,675 869,675 869,675 870,675 871,675 871,675 872,675 873,675 873,675 874,675 875,675 875,675 876,675 877,675 877,675 878,675 879,675 879,675 880,675 881,676 881,676 882,676 883,676 883,676 884,676 885,676 885,676 886,676 887,676 887,676 888,676 889,676 889,676 890,676 891,676 891,676 892,676 893,676 894,676 894,676 895,675 896,675 896,675 897,676 898,676 898,676 899,676 900,676 900,676 901,676 902,676 902,676 903,675 904,675 904,675 905,675 906,675 906,675 907,675 908,675 908,675 909,674 910,674 910,674 911,674 912,673 912,673 913,673 914,672 914,672 915,672 916,672 916,672 917,672 918,672 918,672 919,672 920,672 920,672 921,672 922,672 923,672 923,672 924,672 925,672 925,672 926,672 927,672 927,672 928,672 929,672 929,672 930,672 931,672 931,672 932,672 933,672 933,672 934,672 935,672 935,672 936,672 937,672 937,672 938,672 939,672 939,672 940,672 941,672 941,672 942,672 943,672 943,672 944,672 945,672 945,672 946,672 947,672 947,671 948,671 949,671 949,671 950,671 951,671 951,670 952,670 953,670 954,670 954,670 955,670 956,670 956,670 957,670 958,670 958,669 959,669 960,669 960,669 961,669 962,669 962,669 963,669 964,669 964,669 965,669 966,669 966,669 967,669 968,669 968,669 969,669 970,669 970,669 971,669 972,669 972,669 973,669 974,669 974,669 975,669 976,669 976,669 977,669 978,669 978,669 979,669 980,669 980,669 981,669 982,669 983,669 983,669 984,669 985,669 985,669 986,669 987,669 987,669 988,669 989,669 989,669 990,669 991,669 991,669 992,669 993,667 993,667 994,667 995,667 995,667 996,666 997,666 997,666 998,666 999,666 999,665 1000,665 1001,665 1001,665 1002,665 1003,665 1003,665 1004,664 1005,664 1005,664 1006,664 1007,664 1007,664 1008,664 1009,664 1009,664 1010,664 1011,664 1012,664 1012,664 1013,664 1014,664 1014,664 1015,664 1016,663 1016,663 1017,663 1018,663 1018,663 1019,663 1020,663 1020,663 1021,663 1022,663 1022,663 1023,663 1024,663 1024,663 1025,663 1026,663 1026,663 1027,663 1028,663 1028,662 1029,662 1030,662 1030,662 1031,662 1032,662 1032,662 1033,662 1034,662 1034,662 1035,662 1036,662 1036,662 1037,662 1038,662 1038,662 1039,662 1040,662 1040,662 1041,662 1042,662 1043,662 1043,662 1044,662 1045,662 1045,662 1046,662 1047,662 1047,662 1048,662 1049,662 1049,662 1050,662 1051,662 1051,662 1052,662 1053,662 1053,662 1054,663 1055,663 1055,663 1056,663 1057,663 1057,663 1058,663 1059,663 1059,663 1060,663 1060,663 1061,662 1061,662 1062,662 1063,662 1063,662 1064,662 1065,662 1065,662 1066,662 1067,662 1067,662 1068,662 1069,662 1069,662 1070,662 1071,662 1072,662 1072,662 1073,662 1074,662 1074,662 1075,662 1076,662 1076,662 1077,662 1078,662 1078,662 1079,662 1080,662 1080,662 1081,662 1082,662 1082,662 1083,662 1084,662 1084,662 1085,662 1086,662 1086,662 1087,662 1088,662 1088,662 1089,662 1090,662 1090,662 1091,662 1092,662 1092,662 1093,662 1094,662 1094,662 1095,662 1096,662 1096,662 1097,662 1098,662 1098,662 1099,662 1100,662 1101,662 1101,662 1102,662 1103,662 1103,662 1104,662 1105,662 1105,662 1106,662 1107,662 1107,662 1108,662 1109,662 1109,662 1110,662 1111,662 1111,662 1112,662 1113,662 1113,662 1114,662 1115,662 1115,662 1116,662 1117,662 1117,662 1118,662 1119,662 1119,662 1120,662 1121,662 1121,662 1122,662 1123,662 1123,662 1124,662 1125,662 1125,662 1126,662 1127,662 1127,662 1128,662 1129,662 1129,662 1130,662 1131,662 1132,662 1132,662 1133,662 1134,662 1134,662 1135,662 1136,662 1136,662 1137,662 1138,662 1138,662 1139,662 1140,662 1140,662 1141,662 1142,662 1142,662 1143,662 1144,662 1144,662 1145,662 1146,662 1146,662 1147,662 1148,662 1148,662 1149,662 1150,662 1150,662 1151,662 1152,662 1152,662 1153,662 1154,662 1154,662 1155,662 1155,662 1156,662 1156,662 1156,662 1157,662 1157,662 1158,662 1158,662 1158,662 1159,662 1159,662 1160,662 1160,662 1161,662 1161,662 1161,662 1161,662 1162,662 1162,662 1163,662 1163,662 1163,662 1163,662 1164,662 1164,662 1165,662 1165,662 1165,662 1165,662 1166,662 1167,662 1167,662 1168,662 1168,662 1169,662 1169,662 1169,662 1169,662 1170,662 1170,662 1171,662 1171,662 1171,662 1171,662 1172,662 1173,662 1173,662 1173,662 1173,662 1174,662 1174,662 1175,662 1175,662 1175,662 1175,662 1176,662 1176,662 1177,662 1177,662 1177,662 1177,662 1178,662 1178,662 1179,662 1179,662 1179,662 1180,662 1180,662 1181,662 1181,662 1181,662 1181,662 1182,662 1182,661 1183,661 1183,661 1183,661 1183,661 1184,661 1184,661 1185,661 1185,661 1185,661 1185,661 1186,661 1186,660 1187,660 1187,660 1188,660 1188,660 1189,660 1189,660 1190,660 "/>
<polyline fill="none" opacity="1" stroke="#5419E6" stroke-width="2" points="949,738 951,738 955,738 961,737 963,737 966,737 969,736 970,736 970,734 971,733 973,733 974,733 980,733 981,733 982,733 983,733 984,733 992,733 997,732 997,732 999,731 1001,731 1004,731 1005,730 1006,729 1007,729 1007,729 1008,729 1011,729 1012,729 1012,729 1015,729 1016,728 1016,728 1017,727 1020,727 1021,727 1022,727 1022,726 1024,726 1026,726 1026,726 1027,726 1028,726 1030,726 1032,726 1033,725 1034,725 1035,725 1036,725 1037,725 1038,724 1038,724 1039,724 1040,724 1042,724 1043,724 1043,724 1045,724 1045,724 1046,724 1047,723 1047,723 1048,723 1049,723 1049,723 1050,723 1051,723 1051,723 1053,723 1053,723 1054,723 1055,723 1055,723 1056,722 1057,723 1059,723 1059,723 1060,723 1060,723 1061,722 1061,722 1062,722 1063,722 1063,721 1064,721 1065,720 1066,720 1067,719 1068,719 1069,719 1069,719 1070,719 1071,719 1072,719 1073,719 1074,718 1075,718 1076,717 1076,717 1077,717 1078,716 1078,716 1079,716 1080,715 1081,715 1082,715 1082,715 1083,715 1084,714 1084,714 1086,714 1086,714 1087,714 1089,714 1090,714 1090,714 1091,714 1093,714 1094,714 1094,714 1095,714 1096,714 1098,714 1099,714 1100,713 1102,713 1103,713 1103,713 1104,713 1105,713 1105,712 1106,712 1107,712 1107,712 1108,712 1109,712 1109,711 1110,711 1111,711 1111,711 1112,711 1113,711 1113,710 1114,710 1115,711 1115,711 1116,710 1117,710 1117,710 1118,710 1119,710 1119,710 1121,710 1121,710 1122,710 1123,709 1123,709 1124,709 1125,709 1125,708 1126,708 1127,708 1128,708 1129,708 1129,708 1130,708 1131,708 1132,708 1132,708 1133,707 1134,707 1134,707 1135,707 1136,707 1136,707 1137,707 1138,706 1138,706 1139,706 1140,706 1140,706 1141,706 1142,706 1142,706 1143,706 1144,706 1144,705 1145,705 1146,705 1146,705 1147,705 1148,705 1148,705 1150,705 1150,705 1151,705 1152,705 1152,705 1153,705 1154,705 1154,705 1155,705 1155,705 1156,705 1156,705 1156,705 1157,705 1157,705 1158,705 1158,705 1158,705 1159,705 1159,705 1160,705 1160,705 1161,705 1161,705 1161,705 1161,704 1162,704 1162,704 1163,704 1163,704 1163,704 1163,704 1164,704 1164,704 1165,704 1165,704 1165,704 1165,704 1166,704 1167,704 1167,703 1167,703 1168,703 1168,703 1169,703 1169,703 1169,703 1169,703 1170,703 1170,702 1171,702 1171,703 1171,703 1171,703 1172,702 1173,702 1173,702 1173,702 1173,702 1174,702 1174,702 1175,702 1175,702 1175,702 1175,702 1176,702 1176,702 1177,702 1177,702 1177,702 1177,702 1178,702 1178,702 1179,702 1179,702 1180,702 1180,702 1181,702 1181,702 1181,702 1181,702 1182,702 1182,702 1183,702 1183,702 1183,702 1183,702 1184,702 1184,702 1185,702 1185,702 1185,702 1185,702 1186,702 1187,702 1187,702 1188,702 1188,702 1189,702 1189,702 1190,702 "/>
<polyline fill="none" opacity="1" stroke="#E619C8" stroke-width="2" points="1055,738 1055,737 1056,737 1057,737 1057,736 1059,735 1059,735 1060,735 1060,735 1061,735 1061,735 1062,734 1063,734 1063,734 1064,734 1065,734 1065,734 1066,733 1067,733 1067,732 1068,732 1069,731 1070,731 1071,730 1072,729 1072,728 1073,728 1074,727 1074,726 1075,725 1076,725 1076,724 1077,724 1078,724 1078,724 1079,724 1080,721 1080,719 1081,719 1082,718 1082,717 1083,717 1084,717 1084,717 1085,717 1086,716 1086,716 1087,715 1088,715 1088,715 1089,715 1090,714 1090,714 1091,714 1092,714 1092,714 1093,713 1094,712 1094,713 1095,712 1096,711 1096,710 1097,710 1098,709 1098,707 1099,707 1100,707 1101,707 1101,707 1102,706 1103,706 1103,704 1104,703 1105,703 1105,700 1106,700 1107,700 1107,699 1108,698 1109,698 1109,698 1110,697 1111,697 1111,696 1112,695 1113,695 1113,694 1114,693 1115,691 1115,690 1116,689 1117,689 1117,687 1118,687 1119,686 1119,686 1120,686 1121,683 1121,682 1122,681 1123,680 1123,679 1124,679 1125,679 1125,679 1126,678 1127,676 1127,674 1128,674 1129,673 1129,672 1130,671 1131,670 1132,670 1132,669 1133,669 1134,669 1134,668 1135,667 1136,667 1136,666 1137,666 1138,665 1138,665 1139,665 1140,664 1140,663 1141,662 1142,662 1142,661 1143,661 1144,660 1144,658 1145,658 1146,657 1146,656 1147,656 1148,656 1148,654 1149,654 1150,653 1150,653 1151,652 1152,650 1152,648 1153,647 1154,646 1154,646 1155,646 1155,645 1156,645 1156,645 1156,644 1157,644 1157,642 1158,642 1158,642 1158,641 1159,641 1159,639 1160,639 1160,636 1161,636 1161,635 1161,635 1161,634 1162,634 1162,633 1163,633 1163,632 1163,632 1163,631 1164,631 1164,631 1165,631 1165,630 1165,630 1165,629 1166,627 1167,627 1167,626 1167,626 1168,626 1168,625 1169,625 1169,624 1169,624 1169,624 1170,624 1170,624 1171,624 1171,623 1171,623 1171,622 1172,621 1173,621 1173,621 1173,621 1173,620 1174,620 1174,619 1175,619 1175,618 1175,618 1175,617 1176,617 1176,616 1177,616 1177,615 1177,615 1177,612 1178,612 1178,611 1179,607 1179,607 1179,606 1180,606 1180,604 1181,604 1181,604 1181,604 1181,602 1182,602 1182,600 1183,600 1183,598 1183,598 1183,597 1184,597 1184,596 1185,596 1185,596 1185,596 1185,594 1186,594 1186,593 1187,592 1187,591 1188,591 1188,589 1189,589 1189,587 1190,587 "/>
<rect x="1078" y="315" width="107" height="119" opacity="1" fill="#FFFFFF" stroke="none"/>
<rect x="1078" y="315" width="107" height="119" opacity="1" fill="none" stroke="#000000"/>
<text x="1118" y="325" dy="0.76em" text-anchor="start" font-family="sans-serif" font-size="9.67741935483871" opacity="1" fill="#000000">
anyhow
</text>
<text x="1118" y="340" dy="0.76em" text-anchor="start" font-family="sans-serif" font-size="9.67741935483871" opacity="1" fill="#000000">
err-derive
</text>
<text x="1118" y="355" dy="0.76em" text-anchor="start" font-family="sans-serif" font-size="9.67741935483871" opacity="1" fill="#000000">
error-chain
</text>
<text x="1118" y="370" dy="0.76em" text-anchor="start" font-family="sans-serif" font-size="9.67741935483871" opacity="1" fill="#000000">
failure
</text>
<text x="1118" y="385" dy="0.76em" text-anchor="start" font-family="sans-serif" font-size="9.67741935483871" opacity="1" fill="#000000">
quick-error
</text>
<text x="1118" y="400" dy="0.76em" text-anchor="start" font-family="sans-serif" font-size="9.67741935483871" opacity="1" fill="#000000">
snafu
</text>
<text x="1118" y="415" dy="0.76em" text-anchor="start" font-family="sans-serif" font-size="9.67741935483871" opacity="1" fill="#000000">
thiserror
</text>
<polyline fill="none" opacity="1" stroke="#E61919" stroke-width="2" points="1088,330 1108,330 "/>
<polyline fill="none" opacity="1" stroke="#E6C819" stroke-width="2" points="1088,344 1108,344 "/>
<polyline fill="none" opacity="1" stroke="#54E619" stroke-width="2" points="1088,359 1108,359 "/>
<polyline fill="none" opacity="1" stroke="#19E68E" stroke-width="2" points="1088,374 1108,374 "/>
<polyline fill="none" opacity="1" stroke="#198EE6" stroke-width="2" points="1088,390 1108,390 "/>
<polyline fill="none" opacity="1" stroke="#5419E6" stroke-width="2" points="1088,404 1108,404 "/>
<polyline fill="none" opacity="1" stroke="#E619C8" stroke-width="2" points="1088,419 1108,419 "/>
</svg>
