<svg width="1200" height="800" viewBox="0 0 1200 800" xmlns="http://www.w3.org/2000/svg">
<rect x="0" y="0" width="1199" height="799" opacity="1" fill="#FFFFFF" stroke="none"/>
<line opacity="0.1" stroke="#000000" stroke-width="1" x1="60" y1="728" x2="1190" y2="728"/>
<line opacity="0.1" stroke="#000000" stroke-width="1" x1="60" y1="718" x2="1190" y2="718"/>
<line opacity="0.1" stroke="#000000" stroke-width="1" x1="60" y1="707" x2="1190" y2="707"/>
<line opacity="0.1" stroke="#000000" stroke-width="1" x1="60" y1="697" x2="1190" y2="697"/>
<line opacity="0.1" stroke="#000000" stroke-width="1" x1="60" y1="686" x2="1190" y2="686"/>
<line opacity="0.1" stroke="#000000" stroke-width="1" x1="60" y1="676" x2="1190" y2="676"/>
<line opacity="0.1" stroke="#000000" stroke-width="1" x1="60" y1="666" x2="1190" y2="666"/>
<line opacity="0.1" stroke="#000000" stroke-width="1" x1="60" y1="655" x2="1190" y2="655"/>
<line opacity="0.1" stroke="#000000" stroke-width="1" x1="60" y1="645" x2="1190" y2="645"/>
<line opacity="0.1" stroke="#000000" stroke-width="1" x1="60" y1="634" x2="1190" y2="634"/>
<line opacity="0.1" stroke="#000000" stroke-width="1" x1="60" y1="624" x2="1190" y2="624"/>
<line opacity="0.1" stroke="#000000" stroke-width="1" x1="60" y1="613" x2="1190" y2="613"/>
<line opacity="0.1" stroke="#000000" stroke-width="1" x1="60" y1="603" x2="1190" y2="603"/>
<line opacity="0.1" stroke="#000000" stroke-width="1" x1="60" y1="592" x2="1190" y2="592"/>
<line opacity="0.1" stroke="#000000" stroke-width="1" x1="60" y1="582" x2="1190" y2="582"/>
<line opacity="0.1" stroke="#000000" stroke-width="1" x1="60" y1="571" x2="1190" y2="571"/>
<line opacity="0.1" stroke="#000000" stroke-width="1" x1="60" y1="561" x2="1190" y2="561"/>
<line opacity="0.1" stroke="#000000" stroke-width="1" x1="60" y1="550" x2="1190" y2="550"/>
<line opacity="0.1" stroke="#000000" stroke-width="1" x1="60" y1="540" x2="1190" y2="540"/>
<line opacity="0.1" stroke="#000000" stroke-width="1" x1="60" y1="530" x2="1190" y2="530"/>
<line opacity="0.1" stroke="#000000" stroke-width="1" x1="60" y1="519" x2="1190" y2="519"/>
<line opacity="0.1" stroke="#000000" stroke-width="1" x1="60" y1="509" x2="1190" y2="509"/>
<line opacity="0.1" stroke="#000000" stroke-width="1" x1="60" y1="498" x2="1190" y2="498"/>
<line opacity="0.1" stroke="#000000" stroke-width="1" x1="60" y1="488" x2="1190" y2="488"/>
<line opacity="0.1" stroke="#000000" stroke-width="1" x1="60" y1="477" x2="1190" y2="477"/>
<line opacity="0.1" stroke="#000000" stroke-width="1" x1="60" y1="467" x2="1190" y2="467"/>
<line opacity="0.1" stroke="#000000" stroke-width="1" x1="60" y1="456" x2="1190" y2="456"/>
<line opacity="0.1" stroke="#000000" stroke-width="1" x1="60" y1="446" x2="1190" y2="446"/>
<line opacity="0.1" stroke="#000000" stroke-width="1" x1="60" y1="435" x2="1190" y2="435"/>
<line opacity="0.1" stroke="#000000" stroke-width="1" x1="60" y1="425" x2="1190" y2="425"/>
<line opacity="0.1" stroke="#000000" stroke-width="1" x1="60" y1="414" x2="1190" y2="414"/>
<line opacity="0.1" stroke="#000000" stroke-width="1" x1="60" y1="404" x2="1190" y2="404"/>
<line opacity="0.1" stroke="#000000" stroke-width="1" x1="60" y1="393" x2="1190" y2="393"/>
<line opacity="0.1" stroke="#000000" stroke-width="1" x1="60" y1="383" x2="1190" y2="383"/>
<line opacity="0.1" stroke="#000000" stroke-width="1" x1="60" y1="373" x2="1190" y2="373"/>
<line opacity="0.1" stroke="#000000" stroke-width="1" x1="60" y1="362" x2="1190" y2="362"/>
<line opacity="0.1" stroke="#000000" stroke-width="1" x1="60" y1="352" x2="1190" y2="352"/>
<line opacity="0.1" stroke="#000000" stroke-width="1" x1="60" y1="341" x2="1190" y2="341"/>
<line opacity="0.1" stroke="#000000" stroke-width="1" x1="60" y1="331" x2="1190" y2="331"/>
<line opacity="0.1" stroke="#000000" stroke-width="1" x1="60" y1="320" x2="1190" y2="320"/>
<line opacity="0.1" stroke="#000000" stroke-width="1" x1="60" y1="310" x2="1190" y2="310"/>
<line opacity="0.1" stroke="#000000" stroke-width="1" x1="60" y1="299" x2="1190" y2="299"/>
<line opacity="0.1" stroke="#000000" stroke-width="1" x1="60" y1="289" x2="1190" y2="289"/>
<line opacity="0.1" stroke="#000000" stroke-width="1" x1="60" y1="278" x2="1190" y2="278"/>
<line opacity="0.1" stroke="#000000" stroke-width="1" x1="60" y1="268" x2="1190" y2="268"/>
<line opacity="0.1" stroke="#000000" stroke-width="1" x1="60" y1="257" x2="1190" y2="257"/>
<line opacity="0.1" stroke="#000000" stroke-width="1" x1="60" y1="247" x2="1190" y2="247"/>
<line opacity="0.1" stroke="#000000" stroke-width="1" x1="60" y1="236" x2="1190" y2="236"/>
<line opacity="0.1" stroke="#000000" stroke-width="1" x1="60" y1="226" x2="1190" y2="226"/>
<line opacity="0.1" stroke="#000000" stroke-width="1" x1="60" y1="216" x2="1190" y2="216"/>
<line opacity="0.1" stroke="#000000" stroke-width="1" x1="60" y1="205" x2="1190" y2="205"/>
<line opacity="0.1" stroke="#000000" stroke-width="1" x1="60" y1="195" x2="1190" y2="195"/>
<line opacity="0.1" stroke="#000000" stroke-width="1" x1="60" y1="184" x2="1190" y2="184"/>
<line opacity="0.1" stroke="#000000" stroke-width="1" x1="60" y1="174" x2="1190" y2="174"/>
<line opacity="0.1" stroke="#000000" stroke-width="1" x1="60" y1="163" x2="1190" y2="163"/>
<line opacity="0.1" stroke="#000000" stroke-width="1" x1="60" y1="153" x2="1190" y2="153"/>
<line opacity="0.1" stroke="#000000" stroke-width="1" x1="60" y1="142" x2="1190" y2="142"/>
<line opacity="0.1" stroke="#000000" stroke-width="1" x1="60" y1="132" x2="1190" y2="132"/>
<line opacity="0.1" stroke="#000000" stroke-width="1" x1="60" y1="121" x2="1190" y2="121"/>
<line opacity="0.1" stroke="#000000" stroke-width="1" x1="60" y1="111" x2="1190" y2="111"/>
<line opacity="0.1" stroke="#000000" stroke-width="1" x1="60" y1="100" x2="1190" y2="100"/>
<line opacity="0.1" stroke="#000000" stroke-width="1" x1="60" y1="90" x2="1190" y2="90"/>
<line opacity="0.1" stroke="#000000" stroke-width="1" x1="60" y1="80" x2="1190" y2="80"/>
<line opacity="0.1" stroke="#000000" stroke-width="1" x1="60" y1="69" x2="1190" y2="69"/>
<line opacity="0.1" stroke="#000000" stroke-width="1" x1="60" y1="59" x2="1190" y2="59"/>
<line opacity="0.1" stroke="#000000" stroke-width="1" x1="60" y1="48" x2="1190" y2="48"/>
<line opacity="0.1" stroke="#000000" stroke-width="1" x1="60" y1="38" x2="1190" y2="38"/>
<line opacity="0.1" stroke="#000000" stroke-width="1" x1="60" y1="27" x2="1190" y2="27"/>
<line opacity="0.1" stroke="#000000" stroke-width="1" x1="60" y1="17" x2="1190" y2="17"/>
<text x="10" y="375" dy="0.76em" text-anchor="middle" font-family="sans-serif" font-size="9.67741935483871" opacity="1" fill="#000000" transform="rotate(270, 10, 375)">
Fraction of dependent crates
</text>
<line opacity="0.2" stroke="#000000" stroke-width="1" x1="60" y1="634" x2="1190" y2="634"/>
<line opacity="0.2" stroke="#000000" stroke-width="1" x1="60" y1="530" x2="1190" y2="530"/>
<line opacity="0.2" stroke="#000000" stroke-width="1" x1="60" y1="425" x2="1190" y2="425"/>
<line opacity="0.2" stroke="#000000" stroke-width="1" x1="60" y1="320" x2="1190" y2="320"/>
<line opacity="0.2" stroke="#000000" stroke-width="1" x1="60" y1="216" x2="1190" y2="216"/>
<polyline fill="none" opacity="1" stroke="#000000" stroke-width="1" points="59,10 59,740 "/>
<text x="50" y="634" dy="0.5ex" text-anchor="end" font-family="sans-serif" font-size="9.67741935483871" opacity="1" fill="#000000">
0.01
</text>
<polyline fill="none" opacity="1" stroke="#000000" stroke-width="1" points="54,634 59,634 "/>
<text x="50" y="530" dy="0.5ex" text-anchor="end" font-family="sans-serif" font-size="9.67741935483871" opacity="1" fill="#000000">
0.02
</text>
<polyline fill="none" opacity="1" stroke="#000000" stroke-width="1" points="54,530 59,530 "/>
<text x="50" y="425" dy="0.5ex" text-anchor="end" font-family="sans-serif" font-size="9.67741935483871" opacity="1" fill="#000000">
0.03
</text>
<polyline fill="none" opacity="1" stroke="#000000" stroke-width="1" points="54,425 59,425 "/>
<text x="50" y="320" dy="0.5ex" text-anchor="end" font-family="sans-serif" font-size="9.67741935483871" opacity="1" fill="#000000">
0.04
</text>
<polyline fill="none" opacity="1" stroke="#000000" stroke-width="1" points="54,320 59,320 "/>
<text x="50" y="216" dy="0.5ex" text-anchor="end" font-family="sans-serif" font-size="9.67741935483871" opacity="1" fill="#000000">
0.05
</text>
<polyline fill="none" opacity="1" stroke="#000000" stroke-width="1" points="54,216 59,216 "/>
<polyline fill="none" opacity="1" stroke="#000000" stroke-width="1" points="60,740 1190,740 "/>
<text x="60" y="750" dy="0.76em" text-anchor="middle" font-family="sans-serif" font-size="9.67741935483871" opacity="1" fill="#000000">
2015-09-24Z
</text>
<polyline fill="none" opacity="1" stroke="#000000" stroke-width="1" points="60,740 60,745 "/>
<text x="174" y="750" dy="0.76em" text-anchor="middle" font-family="sans-serif" font-size="9.67741935483871" opacity="1" fill="#000000">
2016-04-14Z
</text>
<polyline fill="none" opacity="1" stroke="#000000" stroke-width="1" points="174,740 174,745 "/>
<text x="288" y="750" dy="0.76em" text-anchor="middle" font-family="sans-serif" font-size="9.67741935483871" opacity="1" fill="#000000">
2016-11-03Z
</text>
<polyline fill="none" opacity="1" stroke="#000000" stroke-width="1" points="288,740 288,745 "/>
<text x="402" y="750" dy="0.76em" text-anchor="middle" font-family="sans-serif" font-size="9.67741935483871" opacity="1" fill="#000000">
2017-05-25Z
</text>
<polyline fill="none" opacity="1" stroke="#000000" stroke-width="1" points="402,740 402,745 "/>
<text x="516" y="750" dy="0.76em" text-anchor="middle" font-family="sans-serif" font-size="9.67741935483871" opacity="1" fill="#000000">
2017-12-14Z
</text>
<polyline fill="none" opacity="1" stroke="#000000" stroke-width="1" points="516,740 516,745 "/>
<text x="630" y="750" dy="0.76em" text-anchor="middle" font-family="sans-serif" font-size="9.67741935483871" opacity="1" fill="#000000">
2018-07-05Z
</text>
<polyline fill="none" opacity="1" stroke="#000000" stroke-width="1" points="630,740 630,745 "/>
<text x="744" y="750" dy="0.76em" text-anchor="middle" font-family="sans-serif" font-size="9.67741935483871" opacity="1" fill="#000000">
2019-01-24Z
</text>
<polyline fill="none" opacity="1" stroke="#000000" stroke-width="1" points="744,740 744,745 "/>
<text x="858" y="750" dy="0.76em" text-anchor="middle" font-family="sans-serif" font-size="9.67741935483871" opacity="1" fill="#000000">
2019-08-15Z
</text>
<polyline fill="none" opacity="1" stroke="#000000" stroke-width="1" points="858,740 858,745 "/>
<text x="972" y="750" dy="0.76em" text-anchor="middle" font-family="sans-serif" font-size="9.67741935483871" opacity="1" fill="#000000">
2020-03-05Z
</text>
<polyline fill="none" opacity="1" stroke="#000000" stroke-width="1" points="972,740 972,745 "/>
<text x="1086" y="750" dy="0.76em" text-anchor="middle" font-family="sans-serif" font-size="9.67741935483871" opacity="1" fill="#000000">
2020-09-24Z
</text>
<polyline fill="none" opacity="1" stroke="#000000" stroke-width="1" points="1086,740 1086,745 "/>
<polyline fill="none" opacity="1" stroke="#E61919" stroke-width="2" points="887,738 888,738 889,738 890,738 890,738 891,738 892,738 892,737 893,737 893,737 894,737 894,737 895,736 895,735 896,735 896,735 897,735 897,734 898,734 899,733 899,733 900,733 900,732 901,732 902,732 903,731 903,730 904,729 904,727 905,723 905,723 906,723 906,723 907,722 908,722 908,722 909,720 909,717 910,716 910,716 911,715 911,715 912,714 913,714 913,713 914,713 914,711 915,711 915,710 916,710 917,710 917,710 918,709 918,709 919,707 919,707 920,706 920,706 921,706 922,706 922,706 923,704 923,704 924,704 924,704 925,703 926,703 926,702 927,703 927,702 928,702 928,701 929,701 929,701 930,700 931,700 931,699 932,699 932,698 933,698 933,697 934,697 935,696 935,695 936,695 936,693 937,692 937,692 938,691 938,691 939,690 940,688 940,687 941,686 941,686 942,685 942,683 943,682 944,681 944,681 945,681 945,680 946,680 946,680 947,680 947,679 948,679 949,676 949,675 950,675 950,675 951,674 951,674 952,673 952,673 953,673 954,673 954,671 955,670 955,669 956,669 956,668 957,667 958,667 958,666 959,666 959,666 960,666 960,665 961,665 961,664 962,664 963,662 963,662 964,662 964,662 965,662 965,662 966,661 967,661 967,660 968,659 968,659 969,659 969,658 970,657 970,657 971,656 972,657 972,656 972,656 973,656 973,656 973,655 974,655 974,654 974,654 974,654 975,653 976,653 976,651 976,651 976,647 977,647 977,646 977,646 977,645 978,645 978,645 978,645 978,644 979,644 979,643 979,643 979,643 980,643 980,642 981,642 981,642 981,641 982,641 982,640 982,640 983,640 983,639 983,639 983,638 984,638 984,637 985,637 985,637 985,637 985,636 986,636 986,636 986,636 987,636 987,635 987,635 987,635 988,635 988,634 988,634 988,633 989,633 989,633 990,633 990,632 990,632 990,631 991,631 991,629 991,629 991,627 992,625 992,625 992,624 993,624 993,623 993,623 993,622 994,622 994,621 995,621 995,621 995,621 995,620 996,620 996,619 996,619 996,617 997,617 997,617 997,617 997,615 998,615 998,614 999,614 999,613 1000,613 1000,613 1000,613 1000,612 1001,612 1001,610 1001,610 1001,610 1002,610 1002,610 1002,610 1002,610 1003,610 1003,609 1004,609 1004,609 1004,609 1004,608 1005,607 1005,607 1005,605 1006,605 1006,604 1006,604 1006,603 1007,603 1007,601 1008,601 1008,599 1008,599 1009,599 1009,599 1009,599 1009,598 1010,598 1010,596 1010,596 1010,594 1011,594 1011,593 1011,593 1011,593 1012,593 1012,592 1013,592 1013,591 1013,591 1013,587 1014,587 1014,585 1014,585 1014,582 1015,582 1015,581 1015,581 1015,580 1016,580 1016,579 1017,579 1017,578 1017,578 1017,576 1018,576 1018,576 1018,576 1018,575 1019,574 1019,574 1019,572 1020,572 1020,570 1020,570 1020,569 1021,569 1021,567 1022,567 1022,567 1022,567 1022,566 1023,566 1023,565 1023,565 1023,564 1024,564 1024,562 1024,561 1025,561 1025,558 1026,558 1026,557 1026,557 1026,556 1027,556 1027,555 1027,555 1027,554 1028,552 1028,551 1029,551 1029,550 1029,549 1030,549 1030,549 1031,549 1031,548 1031,548 1031,547 1032,547 1032,546 1032,546 1032,545 1033,545 1033,545 1033,545 1033,544 1034,544 1034,544 1034,544 1034,544 1035,544 1035,543 1036,542 1036,542 1036,542 1037,542 1037,541 1037,541 1037,539 1038,539 1038,538 1038,538 1038,538 1039,538 1039,537 1040,537 1040,536 1040,536 1040,534 1041,534 1041,534 1041,534 1041,533 1042,533 1042,533 1042,533 1042,532 1043,532 1043,532 1043,532 1043,531 1044,531 1044,531 1045,530 1045,530 1045,529 1046,529 1046,529 1046,529 1046,528 1047,528 1047,528 1047,528 1047,527 1048,527 1048,527 1049,527 1049,525 1049,525 1050,525 1050,524 1050,524 1050,523 1051,523 1051,522 1051,522 1051,522 1052,522 1052,521 1052,521 1052,519 1053,519 1053,519 1054,519 1054,518 1054,518 1054,517 1055,517 1055,517 1055,517 1055,516 1056,516 1056,514 1056,514 1056,513 1057,513 1057,513 1058,513 1058,512 1058,512 1058,510 1059,510 1059,509 1059,509 1059,507 1060,507 1060,507 1060,506 1061,506 1061,504 1061,504 1061,503 1062,503 1062,501 1063,502 1063,501 1063,501 1063,498 1064,498 1064,498 1064,498 1064,496 1065,496 1065,496 1065,496 1065,494 1066,494 1066,493 1067,493 1067,493 1067,493 1067,492 1068,492 1068,492 1068,492 1068,490 1069,490 1069,489 1069,489 1069,489 1070,489 1070,489 1070,489 1070,487 1071,487 1071,486 1072,486 1072,485 1072,485 1072,483 1073,483 1073,481 1073,481 1073,476 1074,476 1074,474 1074,474 1074,474 1075,474 1075,473 1075,473 1076,473 1076,472 1077,472 1077,471 1077,469 1078,469 1078,469 1078,469 1078,468 1079,468 1079,467 1079,467 1079,465 1080,465 1080,465 1081,465 1081,463 1081,463 1081,462 1082,461 1082,461 1082,461 1082,458 1083,458 1083,458 1083,457 1084,457 1084,456 1084,456 1084,455 1085,455 1085,453 1086,453 1086,453 1086,453 1086,453 1087,453 1087,453 1087,453 1087,452 1088,452 1088,451 1088,451 1088,451 1089,451 1089,450 1090,450 1090,449 1090,449 1090,448 1091,448 1091,448 1091,448 1091,447 1092,447 1092,447 1092,447 1092,447 1093,447 1093,447 1093,447 1093,447 1094,447 1094,447 1095,447 1095,446 1095,446 1095,445 1096,445 1096,444 1096,444 1096,444 1097,444 1097,444 1097,444 1097,444 1098,444 1098,443 1099,443 1099,442 1099,442 1099,441 1100,441 1100,440 1100,440 1100,439 1101,439 1101,439 1101,439 1101,438 1102,438 1102,436 1102,436 1102,435 1103,435 1103,434 1104,434 1104,434 1104,434 1104,433 1105,433 1105,430 1105,430 1105,429 1106,429 1106,429 1106,429 1106,429 1107,429 1107,428 1108,428 1108,427 1108,427 1108,427 1109,427 1109,427 1109,427 1109,427 1110,425 1110,425 1110,423 1111,423 1111,422 1111,422 1111,421 1112,421 1112,420 1113,420 1113,418 1113,418 1113,418 1114,418 1114,418 1114,418 1114,417 1115,417 1115,417 1115,417 1115,416 1116,416 1116,417 1116,417 1116,416 1117,416 1117,415 1118,415 1118,415 1118,415 1118,414 1119,414 1119,414 1119,414 1119,413 1120,413 1120,412 1120,412 1120,423 1121,423 1122,423 1122,423 1122,423 1122,422 1123,422 1123,420 1123,420 1123,420 1124,419 1124,419 1124,419 1125,419 1125,418 1125,418 1125,418 1126,418 1126,417 1127,417 1127,417 1127,417 1127,416 1128,416 1128,416 1128,416 1128,416 1129,416 1129,415 1129,415 1129,414 1130,414 1130,414 1131,414 1131,414 1131,414 1131,414 1132,414 1132,414 1132,414 1132,414 1133,414 1133,413 1133,413 1133,413 1134,413 1134,413 1134,413 1134,413 1135,413 1135,412 1136,412 1136,412 1136,412 1136,412 1137,412 1137,412 1137,412 1137,412 1138,412 1138,411 1138,411 1138,410 1139,410 1139,408 1140,408 1140,407 1140,407 1140,406 1141,406 1141,405 1141,405 1141,404 1142,404 1142,403 1142,403 1142,400 1143,400 1143,398 1143,398 1143,397 1144,397 1145,397 1145,397 1145,397 1145,396 1146,396 1146,396 1146,396 1146,395 1147,395 1147,394 1147,394 1147,394 1148,394 1148,393 1149,393 1149,391 1149,391 1149,389 1150,389 1150,387 1150,387 1150,387 1151,387 1151,386 1151,386 1151,386 1152,386 1152,385 1152,385 1152,384 1153,384 1153,384 1154,384 1154,383 1154,383 1154,381 1155,381 1155,381 1155,381 1155,380 1156,380 1156,380 1156,380 1156,379 1157,379 1157,378 1157,378 1157,377 1158,377 1158,376 1159,376 1159,375 1159,375 1159,374 1160,374 1160,374 1160,374 1160,372 1161,372 1161,372 1161,371 1161,370 1162,370 1162,370 1163,370 1163,369 1163,369 1163,368 1164,368 1164,364 1164,364 1164,362 1165,362 1165,361 1165,361 1165,360 1166,360 1166,360 1166,360 1166,358 1167,358 1167,358 1168,358 1168,357 1168,357 1168,356 1169,356 1169,355 1169,355 1169,354 1170,354 1170,354 1170,354 1170,353 1171,353 1171,352 1172,352 1172,350 1172,350 1172,350 1173,350 1173,350 1173,350 1173,349 1174,349 1174,347 1174,346 1175,346 1175,346 1175,346 1175,343 1176,343 1176,341 1177,341 1177,340 1177,340 1177,340 1178,340 1178,340 1178,340 1178,340 1179,340 1179,339 1179,339 1179,339 1180,339 1180,339 1181,339 1181,339 1181,338 1181,339 1182,339 1182,339 1182,339 1182,339 1183,339 1183,338 1183,338 1183,337 1184,337 1184,336 1184,336 1184,336 1185,336 1185,335 1186,335 1186,335 1186,334 1187,334 1187,333 1187,333 1187,333 1188,333 1188,332 1188,332 1188,332 1189,332 1189,332 1190,332 "/>
<polyline fill="none" opacity="1" stroke="#E6C819" stroke-width="2" points="729,738 735,738 740,737 742,736 762,736 767,736 780,735 781,734 783,734 785,734 787,733 788,733 790,733 790,733 791,733 791,733 795,733 795,733 796,733 796,732 799,732 799,732 800,732 800,732 801,732 802,732 803,732 803,732 804,732 804,732 805,731 805,731 807,732 808,732 809,732 810,732 810,732 811,732 812,732 813,732 813,732 814,732 815,732 815,732 817,732 817,732 818,731 818,731 819,731 821,731 822,731 822,731 823,731 824,730 824,730 825,730 826,730 826,730 827,729 827,729 828,729 828,729 829,729 829,729 830,729 831,729 831,729 832,729 832,728 833,728 833,728 834,728 835,728 835,729 836,729 836,729 837,729 837,729 838,729 839,729 840,728 840,728 841,727 841,727 842,728 842,728 843,728 844,728 844,728 845,728 845,728 846,728 847,728 847,727 848,727 849,727 849,727 850,727 851,727 851,727 852,727 853,727 853,727 854,727 854,727 855,727 855,727 856,727 856,727 857,727 858,727 858,727 859,727 859,727 860,727 860,727 861,727 862,727 863,727 863,727 864,727 864,727 865,727 865,726 866,726 867,726 867,725 868,725 868,725 869,725 869,725 870,725 870,725 871,725 872,725 872,725 873,725 873,725 874,725 874,725 875,725 876,725 876,725 877,725 877,725 878,725 878,725 879,725 879,725 880,725 881,725 882,725 882,725 883,725 884,724 885,724 885,724 886,723 887,723 887,723 888,723 888,723 889,723 890,723 890,724 891,724 892,723 892,723 893,723 893,723 894,723 894,723 895,723 895,723 896,723 896,723 897,723 898,723 899,723 899,723 900,724 900,724 901,724 901,724 902,724 903,724 903,724 904,724 904,724 905,724 905,724 906,723 906,723 907,723 908,723 908,723 909,723 910,723 910,723 911,723 911,724 912,724 913,724 913,724 914,724 914,724 915,724 915,724 916,724 917,724 917,724 918,724 919,724 919,724 920,724 920,724 921,724 922,723 922,724 923,724 923,724 924,724 924,724 925,724 926,724 926,724 927,724 927,724 928,724 928,724 929,724 929,724 931,724 931,724 932,724 932,724 933,724 933,724 934,724 935,724 935,724 936,724 936,724 937,724 937,724 938,724 939,724 940,724 940,724 941,724 941,724 942,724 942,724 943,724 944,724 944,724 945,724 945,724 946,724 946,724 947,724 947,724 948,724 949,724 949,724 950,724 950,724 951,724 951,724 952,724 952,724 953,724 954,724 954,724 955,723 955,723 956,723 956,722 957,722 958,722 958,722 959,722 959,722 960,723 960,723 961,723 961,722 962,722 963,722 963,722 964,722 964,722 965,722 965,722 967,722 967,722 968,722 968,722 969,722 969,722 970,722 970,722 971,722 972,722 972,722 972,722 973,722 973,722 973,722 974,722 974,722 974,722 974,722 975,722 976,722 976,722 976,722 976,722 977,722 977,723 977,723 977,723 978,723 978,723 978,723 978,723 979,723 979,723 979,723 979,723 980,723 980,723 981,723 981,722 981,722 982,722 982,722 982,722 983,722 983,722 983,722 983,722 984,722 984,722 985,722 985,722 985,722 985,722 986,722 986,722 986,722 987,722 987,722 987,722 987,722 988,722 988,722 988,722 988,722 989,722 989,722 990,722 990,722 990,722 990,722 991,722 991,722 991,722 991,722 992,722 992,722 992,722 993,722 993,722 993,722 993,722 994,722 994,722 995,722 995,722 995,722 995,722 996,722 996,722 996,722 996,722 997,722 997,722 997,722 997,722 998,722 998,722 999,722 999,722 1000,722 1000,722 1000,722 1000,722 1001,722 1001,722 1001,722 1001,722 1002,722 1002,722 1002,722 1002,722 1003,722 1003,722 1004,722 1004,722 1004,722 1004,722 1005,722 1005,722 1005,722 1006,722 1006,722 1006,722 1006,722 1007,722 1008,722 1008,722 1008,722 1009,722 1009,722 1009,722 1009,722 1010,722 1010,722 1010,722 1010,722 1011,722 1011,722 1011,722 1011,722 1012,722 1012,722 1013,722 1013,722 1013,722 1013,722 1014,722 1014,722 1014,722 1014,722 1015,722 1015,722 1015,722 1015,722 1016,722 1016,722 1017,722 1017,722 1017,722 1017,722 1018,722 1018,722 1018,722 1018,722 1019,722 1019,722 1019,722 1020,722 1020,722 1020,722 1020,722 1021,722 1021,722 1022,722 1022,722 1022,722 1022,722 1023,722 1023,722 1023,722 1023,722 1024,722 1024,722 1024,723 1025,723 1025,723 1026,723 1026,723 1026,723 1026,723 1027,723 1027,723 1027,723 1027,723 1028,723 1028,723 1029,723 1029,723 1029,723 1030,723 1030,723 1031,723 1031,723 1031,723 1031,723 1032,723 1032,723 1032,723 1032,723 1033,723 1033,723 1033,723 1033,723 1034,723 1034,723 1034,723 1034,723 1035,723 1035,723 1036,723 1036,723 1036,723 1037,723 1037,723 1037,723 1037,723 1038,723 1038,723 1038,723 1038,723 1039,723 1039,723 1040,723 1040,723 1040,723 1040,723 1041,723 1041,723 1041,723 1041,723 1042,723 1042,723 1042,723 1042,723 1043,723 1043,723 1043,723 1043,723 1044,723 1044,723 1045,723 1045,723 1045,723 1046,723 1046,723 1046,723 1046,723 1047,723 1047,723 1047,723 1047,723 1048,723 1049,723 1049,723 1049,723 1050,723 1050,723 1050,723 1050,723 1051,723 1051,723 1051,723 1051,723 1052,723 1052,723 1052,723 1052,723 1053,723 1053,723 1054,723 1054,723 1054,723 1054,723 1055,723 1055,723 1055,723 1055,723 1056,723 1056,723 1056,723 1056,723 1057,723 1057,724 1058,724 1058,724 1058,724 1058,724 1059,724 1059,724 1059,724 1059,724 1060,724 1060,724 1060,724 1061,724 1061,724 1061,724 1061,724 1062,724 1062,724 1063,724 1063,724 1063,724 1063,724 1064,724 1064,724 1064,724 1064,724 1065,724 1065,724 1065,724 1065,724 1066,724 1066,724 1067,724 1067,724 1067,724 1067,724 1068,724 1068,724 1068,724 1068,724 1069,724 1069,724 1069,724 1069,724 1070,724 1070,724 1070,724 1070,724 1071,724 1071,724 1072,724 1072,724 1072,724 1072,724 1073,724 1073,724 1073,724 1074,724 1074,724 1074,724 1074,724 1075,724 1075,724 1075,724 1076,724 1076,724 1077,724 1077,724 1077,724 1078,724 1078,724 1078,724 1078,724 1079,724 1079,724 1079,724 1079,724 1080,724 1080,724 1081,724 1081,724 1081,724 1081,724 1082,724 1082,724 1082,724 1082,724 1083,724 1083,724 1083,724 1084,724 1084,724 1084,724 1084,724 1085,724 1085,724 1086,724 1086,724 1086,724 1086,724 1087,724 1087,724 1087,724 1087,724 1088,724 1088,724 1088,724 1089,724 1089,724 1090,724 1090,724 1090,724 1090,724 1091,724 1091,724 1091,724 1091,724 1092,724 1092,724 1092,724 1093,724 1093,724 1093,724 1093,724 1094,724 1094,724 1095,724 1095,724 1095,724 1095,724 1096,724 1096,724 1096,724 1096,724 1097,724 1097,724 1097,724 1097,724 1098,724 1098,724 1099,724 1099,724 1099,724 1099,724 1100,724 1100,724 1100,724 1101,724 1101,724 1101,724 1101,724 1102,724 1102,724 1102,724 1102,724 1103,724 1103,724 1104,724 1104,724 1104,724 1104,724 1105,724 1105,724 1105,724 1105,724 1106,724 1106,724 1106,724 1106,724 1107,724 1107,724 1108,724 1108,724 1108,724 1108,725 1109,725 1109,725 1109,725 1109,725 1110,725 1110,725 1110,725 1111,725 1111,725 1111,725 1111,725 1112,725 1112,725 1113,725 1113,725 1113,725 1113,725 1114,725 1114,725 1114,725 1114,725 1115,725 1115,725 1115,725 1115,725 1116,725 1116,725 1116,725 1116,725 1117,725 1117,725 1118,725 1118,725 1118,725 1118,725 1119,725 1119,725 1119,725 1119,725 1120,725 1120,725 1120,725 1120,726 1121,726 1122,726 1122,726 1122,726 1122,726 1123,726 1123,726 1123,726 1123,725 1124,725 1124,725 1124,725 1124,725 1125,725 1125,725 1125,725 1125,725 1126,725 1126,725 1127,725 1127,725 1127,725 1127,725 1128,725 1128,725 1128,725 1128,725 1129,725 1129,725 1129,725 1129,725 1130,725 1130,725 1131,725 1131,725 1131,725 1131,725 1132,725 1132,725 1132,725 1132,725 1133,725 1133,725 1133,725 1133,725 1134,725 1134,725 1134,725 1134,725 1135,725 1135,725 1136,725 1136,725 1136,725 1136,725 1137,725 1137,725 1137,725 1137,725 1138,725 1138,725 1138,725 1139,725 1139,725 1140,725 1140,725 1140,725 1140,725 1141,725 1141,725 1141,725 1141,725 1142,725 1142,725 1142,725 1142,725 1143,725 1143,726 1143,726 1143,726 1144,725 1145,725 1145,725 1145,725 1145,725 1146,725 1146,725 1146,725 1146,725 1147,725 1147,725 1147,725 1147,725 1148,725 1149,725 1149,725 1149,725 1149,725 1150,725 1150,725 1150,725 1150,725 1151,725 1151,725 1151,725 1151,725 1152,725 1152,725 1152,725 1152,725 1153,725 1154,725 1154,725 1154,725 1154,725 1155,725 1155,725 1155,725 1155,725 1156,725 1156,725 1156,725 1156,725 1157,725 1157,725 1157,725 1157,725 1158,725 1159,725 1159,725 1159,725 1159,725 1160,725 1160,725 1160,725 1160,726 1161,726 1161,726 1161,726 1161,726 1162,726 1162,726 1163,726 1163,726 1163,726 1163,726 1164,726 1164,726 1164,726 1164,726 1165,726 1165,726 1165,726 1165,726 1166,726 1166,726 1166,726 1166,726 1167,726 1167,726 1168,726 1168,726 1168,726 1168,726 1169,726 1169,726 1169,726 1169,726 1170,726 1170,726 1170,726 1170,726 1171,726 1171,726 1172,726 1172,726 1172,726 1172,726 1173,726 1173,726 1173,726 1173,726 1174,726 1174,726 1174,726 1175,726 1175,726 1175,726 1175,726 1176,726 1176,726 1177,726 1177,726 1177,726 1177,726 1178,726 1178,726 1178,726 1178,726 1179,726 1179,726 1179,726 1179,726 1180,726 1180,726 1181,726 1181,726 1181,726 1181,726 1182,726 1182,726 1182,726 1182,726 1183,726 1183,726 1183,726 1183,726 1184,726 1184,726 1184,726 1184,726 1185,726 1185,727 1186,727 1186,727 1186,727 1187,727 1187,727 1187,727 1187,727 1188,727 1188,727 1188,727 1188,727 1189,727 1189,727 1190,727 "/>
<polyline fill="none" opacity="1" stroke="#54E619" stroke-width="2" points="212,737 212,733 217,735 221,733 227,731 228,729 229,727 233,726 243,724 244,724 245,721 249,719 250,716 251,714 252,714 253,712 256,711 257,713 258,710 259,705 261,703 262,702 265,700 267,699 267,699 269,691 270,686 271,683 271,681 275,681 276,679 276,678 277,676 279,675 279,675 280,673 280,674 281,674 281,674 282,673 283,673 284,673 284,673 285,673 285,671 286,670 286,670 287,669 288,667 288,667 289,664 289,663 290,661 290,657 291,656 292,654 293,653 294,653 294,650 298,651 298,650 299,648 299,647 300,645 301,644 302,643 302,641 303,637 303,633 304,632 305,626 306,625 307,623 307,622 308,622 309,619 309,618 310,617 311,616 312,614 312,612 313,611 313,603 314,600 314,596 315,586 316,585 316,584 317,584 317,583 318,582 318,577 319,574 320,575 320,569 321,567 322,567 322,566 323,565 323,566 324,566 325,566 325,562 326,562 326,561 327,560 327,553 328,554 329,554 329,555 330,555 330,555 331,553 332,553 334,553 334,551 335,548 335,549 336,548 336,548 337,549 338,548 338,548 339,548 339,547 340,548 340,544 341,544 341,542 342,540 343,538 343,539 344,539 344,536 345,532 345,530 346,530 347,527 348,523 348,523 349,523 349,523 350,524 350,523 351,522 352,521 352,521 353,522 353,518 354,519 354,519 355,517 355,517 356,515 357,513 357,511 358,511 358,509 359,509 359,507 360,504 361,504 361,505 362,505 362,504 363,503 363,497 364,496 364,492 365,491 366,492 366,492 367,490 367,489 368,485 368,483 369,482 370,481 370,479 371,479 371,479 372,479 372,479 373,478 373,479 374,479 375,480 375,477 376,478 376,478 377,478 377,476 378,475 379,473 379,472 380,470 380,469 381,468 381,467 382,464 382,463 383,463 384,462 384,463 385,464 385,462 386,461 386,461 387,457 387,454 388,452 389,450 389,448 390,449 390,446 391,446 391,445 392,444 393,444 393,441 394,441 394,441 395,438 395,437 396,436 396,431 397,427 398,427 398,427 399,429 399,425 400,421 400,420 401,421 402,420 402,419 403,419 403,420 404,419 404,421 405,417 405,414 406,413 407,413 407,413 408,414 408,414 409,413 409,414 410,412 411,412 411,412 412,412 412,410 413,407 413,407 414,406 414,405 415,401 416,401 416,401 417,400 417,399 418,398 418,398 419,396 420,396 420,394 421,394 421,393 422,392 422,391 423,390 423,390 424,391 425,389 425,390 426,391 426,390 427,389 427,388 428,387 428,386 429,387 430,384 430,383 431,377 431,377 432,378 432,374 433,371 434,369 434,367 435,366 435,366 436,364 436,361 437,360 437,360 438,358 439,358 439,356 440,356 440,356 441,356 441,355 442,354 443,353 443,352 444,354 444,353 445,352 445,351 446,350 446,349 447,348 448,345 448,345 449,346 449,346 450,343 450,342 451,340 452,338 452,338 453,337 453,337 454,334 454,334 455,334 455,330 456,329 457,329 457,327 458,323 458,322 459,322 459,322 460,321 461,318 461,317 462,315 462,316 463,316 463,315 464,315 464,314 465,313 466,313 466,315 467,315 467,315 468,316 468,316 469,316 469,316 470,296 471,295 471,294 472,295 472,293 473,290 473,289 474,288 475,288 475,287 476,287 476,286 477,284 477,286 478,285 478,284 479,282 480,281 480,281 481,279 481,278 482,277 482,278 483,278 484,279 484,279 485,279 485,278 486,279 486,280 487,280 487,281 488,281 489,281 489,280 490,279 490,280 491,280 491,280 492,280 493,280 493,280 494,281 494,280 495,276 495,275 496,273 496,273 497,273 498,273 498,274 499,271 499,268 500,269 500,270 501,270 502,270 502,270 503,270 503,270 504,270 504,269 505,269 505,271 506,271 507,271 507,270 508,268 508,268 509,268 509,268 510,266 510,267 511,264 512,263 512,263 513,264 513,263 514,264 514,266 515,267 516,269 516,267 517,267 517,266 518,265 518,265 519,264 519,265 520,264 521,263 521,261 522,260 522,261 523,261 523,258 524,256 525,255 525,255 526,254 526,254 527,254 527,254 528,256 528,254 529,254 530,254 530,255 531,256 531,256 532,254 532,255 533,256 534,256 534,257 535,257 535,257 536,256 536,255 537,256 537,257 538,258 539,259 539,259 540,260 540,260 541,261 541,265 542,265 543,265 543,266 544,266 544,265 545,266 545,266 546,267 546,267 547,267 548,267 548,267 549,267 549,268 550,268 550,267 551,266 551,267 552,268 553,269 553,269 554,269 554,271 555,271 555,271 556,272 557,273 557,274 558,275 558,277 559,277 559,278 560,283 560,284 561,285 562,286 562,285 563,286 563,286 564,287 564,288 565,285 566,285 566,285 567,286 567,287 568,288 568,289 569,290 569,290 570,289 571,289 571,290 572,291 572,291 573,292 573,293 574,295 575,295 575,294 576,295 576,295 577,294 577,294 578,294 578,295 579,297 580,297 580,298 581,298 581,299 582,300 582,300 583,300 584,300 584,301 585,303 585,304 586,303 586,303 587,304 587,305 588,304 589,305 589,304 590,305 590,306 591,307 591,307 592,306 592,306 593,306 594,307 594,308 595,309 595,308 596,309 596,308 597,309 598,309 598,310 599,311 599,312 600,313 600,313 601,314 601,313 602,313 603,311 603,312 604,312 604,312 605,312 605,313 606,316 607,316 607,317 608,318 608,320 609,320 609,321 610,321 610,321 611,321 612,321 612,320 613,320 613,322 614,322 614,321 615,321 616,322 616,323 617,323 617,323 618,323 618,323 619,324 619,324 620,325 621,325 621,326 622,325 622,326 623,326 623,327 624,328 625,328 625,329 626,329 626,330 627,330 627,330 628,330 628,330 629,331 630,331 630,331 631,331 631,332 632,332 632,332 633,332 633,332 634,333 635,333 635,334 636,331 636,332 637,332 637,331 638,332 639,332 639,335 640,336 640,336 641,336 641,337 642,337 642,338 643,338 644,339 644,340 645,341 645,341 646,342 646,344 647,345 648,345 648,347 649,347 649,347 650,347 650,348 651,348 651,350 652,350 653,351 653,352 654,351 654,353 655,353 655,354 656,354 657,353 657,352 658,352 658,355 659,355 659,356 660,356 660,356 661,359 662,359 662,360 663,360 663,360 664,360 664,360 665,360 665,360 666,361 667,361 667,362 668,363 668,363 669,363 669,364 670,364 671,364 671,365 672,365 672,365 673,365 673,365 674,366 674,366 675,366 676,366 676,367 676,367 677,366 677,367 678,366 678,367 679,368 680,369 680,371 681,373 681,372 682,372 682,372 683,372 683,372 684,373 685,373 685,374 686,375 686,376 687,379 687,376 688,377 689,377 689,379 690,379 690,379 691,380 691,380 692,381 692,381 693,382 694,382 694,382 695,382 695,382 696,383 696,384 697,383 698,383 698,383 699,384 699,384 700,384 700,385 701,387 701,400 702,401 703,402 703,402 704,402 704,403 705,402 705,402 706,403 706,404 707,403 708,404 708,404 709,404 709,404 710,405 710,405 711,405 712,406 712,406 713,407 713,407 714,407 714,408 715,407 715,408 716,408 717,409 717,410 718,411 718,411 719,411 719,412 720,412 721,413 721,413 722,413 722,414 723,415 723,415 724,415 724,416 725,416 726,417 726,417 727,418 727,418 728,419 728,419 729,420 730,419 730,420 731,420 731,422 732,422 732,423 733,424 733,425 734,426 735,438 735,438 736,438 736,426 737,427 737,427 738,427 739,429 739,429 740,429 740,430 741,429 741,430 742,430 742,429 743,430 744,430 744,431 745,431 745,431 746,430 746,431 747,431 747,431 748,432 749,432 749,433 750,434 750,434 751,436 751,436 752,437 753,437 753,437 754,438 754,438 755,439 755,440 756,439 756,439 757,440 758,440 758,440 759,439 759,440 760,440 760,440 761,441 762,441 762,442 763,442 763,443 764,443 764,443 765,444 765,445 766,445 767,446 767,446 768,446 768,446 769,447 769,447 770,448 771,448 771,449 772,449 772,450 773,450 773,451 774,451 774,451 775,451 776,452 776,453 777,453 777,453 778,454 778,454 779,454 780,455 780,455 781,455 781,456 782,456 782,457 783,457 783,458 784,456 785,456 785,456 786,457 786,458 787,458 787,458 788,459 788,459 789,459 790,460 790,460 791,461 791,461 792,461 792,461 793,462 794,462 794,463 795,463 795,464 796,464 796,464 797,464 797,465 798,465 799,465 799,466 800,467 800,468 801,468 801,468 802,469 803,469 803,470 804,470 804,471 805,472 805,471 806,472 806,472 807,472 808,473 808,473 809,474 809,474 810,474 810,474 811,475 812,475 812,476 813,475 813,476 814,475 814,475 815,475 815,475 816,475 817,476 817,476 818,477 818,477 819,477 819,478 820,478 821,478 821,478 822,479 822,479 823,479 823,480 824,481 824,481 825,481 826,482 826,482 827,482 827,482 828,483 828,483 829,483 829,484 830,484 831,484 831,484 832,485 832,485 833,486 833,486 834,486 835,486 835,486 836,486 836,487 837,487 837,487 838,487 838,487 839,488 840,487 840,488 841,488 841,488 842,489 842,489 843,490 844,490 844,490 845,490 845,491 846,491 846,491 847,491 847,492 848,492 849,492 849,492 850,493 850,493 851,493 851,493 852,493 853,493 853,493 854,494 854,494 855,494 855,494 856,495 856,496 857,496 858,497 858,497 859,497 859,497 860,497 860,497 861,498 862,498 862,498 863,499 863,499 864,499 864,499 865,500 865,500 866,500 867,500 867,500 868,501 868,501 869,502 869,502 870,502 870,502 871,503 872,503 872,504 873,504 873,504 874,504 874,505 875,505 876,505 876,505 877,506 877,506 878,506 878,506 879,507 879,505 880,506 881,506 881,506 882,506 882,506 883,507 883,507 884,507 885,507 885,507 886,508 886,508 887,508 887,508 888,508 888,509 889,509 890,508 890,509 891,509 891,510 892,511 892,511 893,511 893,511 894,512 894,512 895,512 895,512 896,513 896,513 897,513 897,513 898,513 899,514 899,514 900,515 900,515 901,515 901,515 902,515 903,516 903,515 904,516 904,516 905,516 905,516 906,516 906,516 907,516 908,516 908,516 909,516 909,516 910,517 910,517 911,518 911,518 912,519 913,519 913,519 914,519 914,520 915,520 915,520 916,521 917,521 917,521 918,521 918,521 919,521 919,522 920,522 920,522 921,522 922,522 922,523 923,523 923,523 924,524 924,524 925,524 926,524 926,525 927,525 927,526 928,526 928,526 929,526 929,526 930,526 931,527 931,527 932,527 932,527 933,527 933,528 934,528 935,528 935,528 936,528 936,529 937,529 937,530 938,530 938,530 939,531 940,531 940,532 941,532 941,533 942,533 942,533 943,533 944,533 944,535 945,535 945,535 946,536 946,537 947,537 947,537 948,537 949,538 949,538 950,538 950,539 951,539 951,539 952,539 952,539 953,539 954,539 954,540 955,540 955,540 956,541 956,541 957,542 958,541 958,541 959,541 959,541 960,541 960,542 961,542 961,542 962,542 963,543 963,543 964,544 964,544 965,543 965,544 966,544 967,544 967,544 968,545 968,545 969,545 969,545 970,545 970,546 971,546 972,546 972,546 972,546 973,546 973,547 973,547 974,547 974,547 974,547 974,548 975,548 976,548 976,548 976,548 976,549 977,549 977,549 977,549 977,549 978,549 978,549 978,549 978,549 979,549 979,550 979,550 979,550 980,550 980,550 981,550 981,551 981,551 982,551 982,552 982,552 983,552 983,552 983,552 983,553 984,553 984,553 985,553 985,553 985,553 985,553 986,553 986,553 986,553 987,553 987,553 987,553 987,553 988,553 988,554 988,554 988,554 989,554 989,554 990,554 990,555 990,555 990,555 991,555 991,555 991,555 991,556 992,556 992,556 992,556 993,556 993,556 993,556 993,557 994,557 994,557 995,557 995,557 995,557 995,557 996,557 996,558 996,558 996,558 997,558 997,558 997,558 997,558 998,558 998,558 999,558 999,558 1000,558 1000,559 1000,559 1000,559 1001,559 1001,559 1001,559 1001,560 1002,560 1002,560 1002,560 1002,560 1003,560 1003,561 1004,561 1004,561 1004,561 1004,561 1005,561 1005,561 1005,561 1006,561 1006,561 1006,561 1006,562 1007,562 1007,561 1008,561 1008,562 1008,562 1009,562 1009,562 1009,562 1009,563 1010,563 1010,563 1010,563 1010,562 1011,562 1011,563 1011,563 1011,563 1012,563 1012,563 1013,563 1013,564 1013,564 1013,564 1014,564 1014,564 1014,564 1014,564 1015,564 1015,564 1015,564 1015,565 1016,565 1016,565 1017,565 1017,565 1017,565 1017,566 1018,566 1018,565 1018,565 1018,565 1019,566 1019,566 1019,566 1020,566 1020,566 1020,566 1020,566 1021,566 1021,567 1022,567 1022,567 1022,567 1022,567 1023,567 1023,567 1023,567 1023,568 1024,568 1024,568 1024,568 1025,568 1025,568 1026,568 1026,568 1026,568 1026,569 1027,569 1027,570 1027,570 1027,570 1028,570 1028,570 1029,570 1029,570 1029,570 1030,570 1030,570 1031,570 1031,570 1031,570 1031,570 1032,570 1032,570 1032,570 1032,570 1033,570 1033,570 1033,570 1033,571 1034,571 1034,570 1034,570 1034,570 1035,570 1035,571 1036,571 1036,571 1036,571 1037,571 1037,571 1037,571 1037,571 1038,571 1038,571 1038,571 1038,571 1039,571 1039,572 1040,572 1040,572 1040,572 1040,572 1041,572 1041,572 1041,572 1041,572 1042,572 1042,573 1042,573 1042,573 1043,573 1043,573 1043,573 1043,573 1044,573 1044,573 1045,573 1045,573 1045,574 1046,574 1046,574 1046,574 1046,574 1047,573 1047,574 1047,574 1047,574 1048,574 1048,574 1049,574 1049,575 1049,575 1050,575 1050,575 1050,575 1050,575 1051,575 1051,575 1051,575 1051,575 1052,575 1052,576 1052,576 1052,576 1053,576 1053,575 1054,575 1054,575 1054,575 1054,576 1055,576 1055,576 1055,576 1055,576 1056,576 1056,576 1056,576 1056,576 1057,576 1057,576 1058,576 1058,576 1058,576 1058,576 1059,576 1059,577 1059,577 1059,577 1060,577 1060,577 1060,577 1061,577 1061,578 1061,578 1061,578 1062,578 1062,578 1063,578 1063,578 1063,578 1063,578 1064,578 1064,579 1064,579 1064,579 1065,579 1065,579 1065,579 1065,579 1066,579 1066,579 1067,579 1067,579 1067,579 1067,579 1068,579 1068,580 1068,580 1068,580 1069,580 1069,580 1069,580 1069,581 1070,581 1070,581 1070,581 1070,581 1071,581 1071,581 1072,581 1072,582 1072,582 1072,582 1073,582 1073,582 1073,582 1073,582 1074,582 1074,582 1074,582 1074,582 1075,582 1075,582 1075,583 1076,583 1076,583 1077,583 1077,583 1077,583 1078,583 1078,583 1078,583 1078,583 1079,583 1079,584 1079,584 1079,584 1080,584 1080,584 1081,584 1081,584 1081,584 1081,584 1082,584 1082,584 1082,584 1082,585 1083,585 1083,585 1083,585 1084,585 1084,585 1084,585 1084,585 1085,585 1085,585 1086,585 1086,586 1086,586 1086,586 1087,586 1087,586 1087,586 1087,586 1088,586 1088,586 1088,586 1088,586 1089,586 1089,587 1090,587 1090,587 1090,587 1090,587 1091,587 1091,587 1091,587 1091,588 1092,588 1092,588 1092,588 1092,588 1093,588 1093,588 1093,588 1093,588 1094,588 1094,589 1095,589 1095,589 1095,589 1095,589 1096,589 1096,589 1096,589 1096,589 1097,589 1097,589 1097,589 1097,590 1098,590 1098,590 1099,590 1099,590 1099,590 1099,590 1100,590 1100,590 1100,590 1100,591 1101,591 1101,591 1101,591 1101,591 1102,591 1102,591 1102,591 1102,591 1103,591 1103,591 1104,591 1104,592 1104,592 1104,592 1105,592 1105,592 1105,592 1105,592 1106,592 1106,592 1106,592 1106,592 1107,592 1107,592 1108,592 1108,593 1108,593 1108,593 1109,593 1109,593 1109,593 1109,593 1110,593 1110,593 1110,593 1111,593 1111,593 1111,593 1111,593 1112,593 1112,593 1113,593 1113,593 1113,593 1113,593 1114,593 1114,594 1114,594 1114,594 1115,594 1115,594 1115,594 1115,594 1116,594 1116,594 1116,594 1116,594 1117,594 1117,594 1118,594 1118,595 1118,595 1118,595 1119,595 1119,595 1119,595 1119,595 1120,595 1120,595 1120,595 1120,601 1121,601 1122,601 1122,601 1122,601 1122,601 1123,601 1123,601 1123,601 1123,601 1124,601 1124,601 1124,601 1124,601 1125,601 1125,602 1125,602 1125,602 1126,602 1126,602 1127,602 1127,602 1127,602 1127,602 1128,602 1128,602 1128,602 1128,603 1129,603 1129,603 1129,603 1129,603 1130,603 1130,603 1131,603 1131,603 1131,603 1131,603 1132,603 1132,603 1132,603 1132,603 1133,603 1133,603 1133,603 1133,603 1134,603 1134,603 1134,603 1134,603 1135,604 1135,604 1136,604 1136,605 1136,605 1136,605 1137,605 1137,605 1137,605 1137,605 1138,605 1138,605 1138,605 1138,605 1139,605 1139,605 1140,605 1140,605 1140,605 1140,606 1141,606 1141,606 1141,606 1141,606 1142,606 1142,606 1142,606 1142,606 1143,606 1143,606 1143,606 1143,606 1144,606 1145,606 1145,607 1145,607 1145,607 1146,607 1146,607 1146,607 1146,607 1147,607 1147,607 1147,607 1147,607 1148,607 1148,607 1149,607 1149,607 1149,607 1149,608 1150,608 1150,608 1150,608 1150,608 1151,608 1151,608 1151,608 1151,608 1152,608 1152,608 1152,608 1152,609 1153,609 1153,609 1154,609 1154,609 1154,609 1154,609 1155,609 1155,609 1155,609 1155,609 1156,609 1156,609 1156,609 1156,609 1157,609 1157,609 1157,609 1157,609 1158,610 1158,609 1159,609 1159,610 1159,610 1159,610 1160,610 1160,610 1160,610 1160,610 1161,610 1161,610 1161,610 1161,610 1162,610 1162,611 1163,611 1163,611 1163,611 1163,611 1164,611 1164,611 1164,611 1164,611 1165,611 1165,611 1165,611 1165,611 1166,611 1166,611 1166,611 1166,612 1167,612 1167,612 1168,612 1168,612 1168,612 1168,612 1169,612 1169,612 1169,612 1169,612 1170,612 1170,612 1170,612 1170,612 1171,612 1171,612 1172,612 1172,613 1172,613 1172,613 1173,613 1173,613 1173,613 1173,613 1174,613 1174,614 1174,614 1175,614 1175,614 1175,614 1175,614 1176,614 1176,615 1177,615 1177,615 1177,615 1177,615 1178,615 1178,615 1178,615 1178,615 1179,615 1179,616 1179,616 1179,616 1180,616 1180,616 1181,616 1181,616 1181,616 1181,617 1182,617 1182,617 1182,617 1182,617 1183,617 1183,618 1183,618 1183,618 1184,618 1184,618 1184,618 1184,618 1185,618 1185,618 1186,618 1186,618 1186,618 1187,618 1187,618 1187,618 1187,618 1188,618 1188,618 1188,618 1188,619 1189,619 1189,619 1190,619 "/>
<polyline fill="none" opacity="1" stroke="#19E68E" stroke-width="2" points="500,738 501,737 502,736 503,734 503,732 504,731 505,730 505,729 506,725 507,725 507,723 508,720 508,719 509,718 509,717 510,716 510,714 511,713 513,712 514,710 514,707 515,706 516,704 516,704 517,701 519,699 519,696 520,695 521,694 522,694 522,693 523,690 524,689 525,688 525,685 526,684 526,684 527,683 527,682 528,680 529,678 530,673 530,672 531,672 531,671 532,670 532,669 533,668 534,668 534,664 535,665 535,665 536,664 536,663 537,660 537,660 538,659 539,658 539,655 540,654 540,652 541,650 541,648 542,645 543,644 543,643 544,640 544,640 545,638 545,637 546,636 546,635 547,630 548,628 548,629 549,629 549,628 550,628 550,628 551,627 551,627 552,626 553,624 553,621 554,620 554,617 555,615 555,612 556,610 557,608 557,606 558,604 558,599 559,594 559,593 560,593 560,593 561,588 562,584 562,580 563,579 563,578 564,578 564,575 565,575 566,574 566,574 567,573 567,571 568,571 568,570 569,566 569,565 570,564 571,564 571,562 572,562 572,560 573,559 573,558 574,556 575,556 575,554 576,553 576,552 577,551 577,549 578,547 578,545 579,543 580,543 580,540 581,539 581,535 582,530 582,527 583,525 584,523 584,519 585,516 585,515 586,515 586,514 587,513 587,511 588,510 589,509 589,503 590,500 590,499 591,496 591,495 592,493 592,490 593,488 594,488 594,484 595,482 595,483 596,482 596,481 597,479 598,476 598,475 599,472 599,472 600,469 600,463 601,463 601,461 602,461 603,461 603,460 604,458 604,457 605,456 605,455 606,450 607,450 607,449 608,443 608,438 609,437 609,434 610,433 610,432 611,431 612,432 612,430 613,431 613,428 614,427 614,426 615,426 616,424 617,423 617,422 618,422 618,421 619,420 619,419 620,414 621,412 621,407 622,406 622,403 623,402 623,402 624,403 625,403 625,402 626,400 626,399 627,397 627,397 628,395 628,396 629,393 630,392 630,391 631,391 631,389 632,390 632,389 633,387 633,386 634,383 635,383 635,383 636,382 636,381 637,382 637,381 638,378 639,377 639,372 640,371 640,370 641,369 641,367 642,367 642,367 643,365 644,365 644,364 645,363 645,363 646,361 646,358 647,358 648,356 648,358 649,357 649,355 650,355 650,356 651,354 651,354 652,353 653,352 653,349 654,349 654,347 655,344 655,344 656,341 657,341 657,339 658,338 658,339 659,338 659,337 660,337 660,337 661,338 662,338 662,337 663,336 663,334 664,332 664,330 665,330 665,329 666,328 667,326 667,324 668,322 668,323 669,322 669,321 670,321 671,319 671,317 672,316 672,314 673,313 673,311 674,309 674,307 675,307 676,305 676,305 676,302 677,302 677,302 678,301 678,298 679,296 680,292 680,288 681,286 681,285 682,284 682,284 683,281 683,282 684,281 685,281 685,279 686,280 686,280 687,284 687,280 688,280 689,279 689,278 690,277 690,277 691,272 691,271 692,272 692,269 693,270 694,269 694,268 695,265 695,264 696,263 696,262 697,262 698,263 698,263 699,262 699,259 700,261 700,260 701,258 701,236 702,235 703,236 703,237 704,234 704,235 705,233 705,233 706,233 706,229 707,229 708,228 708,229 709,225 709,224 710,222 710,223 711,222 712,220 712,219 713,220 713,220 714,219 714,216 715,214 715,210 716,208 717,204 717,203 718,201 718,201 719,200 719,198 720,196 721,197 721,197 722,196 722,192 723,190 723,190 724,189 724,187 725,187 726,185 726,184 727,185 727,184 728,184 728,182 729,183 730,182 730,180 731,180 731,177 732,176 732,176 733,175 733,174 734,169 735,190 735,192 736,191 736,170 737,169 737,167 738,167 739,165 739,165 740,165 740,163 741,161 741,162 742,163 742,162 743,162 744,160 744,159 745,159 745,157 746,157 746,156 747,155 747,155 748,156 749,157 749,155 750,155 750,154 751,154 751,154 752,155 753,149 753,149 754,148 754,148 755,145 755,145 756,144 756,144 757,144 758,145 758,145 759,145 759,145 760,145 760,146 761,146 762,145 762,145 763,145 763,143 764,141 764,140 765,139 765,137 766,137 767,138 767,137 768,135 768,134 769,132 769,130 770,131 771,130 771,130 772,129 772,129 773,128 773,129 774,127 774,127 775,127 776,127 776,126 777,126 777,126 778,127 778,127 779,128 780,125 780,125 781,123 781,123 782,122 782,121 783,118 783,118 784,119 785,118 785,118 786,119 786,119 787,117 787,117 788,115 788,113 789,113 790,113 790,113 791,114 791,114 792,114 792,113 793,111 794,111 794,111 795,110 795,110 796,111 796,110 797,109 797,108 798,109 799,107 799,106 800,108 800,108 801,108 801,108 802,108 803,108 803,108 804,107 804,109 805,109 805,110 806,110 806,109 807,109 808,107 808,108 809,106 809,105 810,107 810,108 811,101 812,101 812,102 813,102 813,102 814,101 814,101 815,101 815,102 816,101 817,101 817,101 818,103 818,105 819,105 819,104 820,104 821,103 821,103 822,103 822,103 823,101 823,102 824,101 824,100 825,99 826,99 826,95 827,96 827,95 828,96 828,94 829,92 829,92 830,93 831,90 831,89 832,90 832,89 833,89 833,89 834,88 835,86 835,85 836,86 836,86 837,86 837,85 838,86 838,84 839,84 840,84 840,84 841,85 841,85 842,85 842,85 843,86 844,84 844,84 845,83 845,84 846,83 846,81 847,82 847,83 848,82 849,82 849,84 850,83 850,83 851,83 851,83 852,83 853,83 853,83 854,83 854,82 855,82 855,82 856,83 856,82 857,80 858,80 858,79 859,79 859,79 860,79 860,79 861,76 862,75 862,76 863,76 863,77 864,77 864,77 865,78 865,78 866,79 867,78 867,78 868,78 868,79 869,78 869,78 870,78 870,79 871,80 872,79 872,80 873,78 873,78 874,78 874,78 875,78 876,78 876,78 877,77 877,77 878,77 878,77 879,78 879,79 880,78 881,78 881,77 882,78 882,78 883,79 883,79 884,78 885,79 885,79 886,78 886,78 887,79 887,81 888,81 888,80 889,80 890,80 890,78 891,79 891,79 892,79 892,79 893,79 893,80 894,80 894,83 895,84 895,84 896,85 896,86 897,86 897,86 898,86 899,87 899,87 900,86 900,89 901,90 901,89 902,90 903,95 903,97 904,96 904,99 905,103 905,103 906,104 906,103 907,104 908,104 908,105 909,106 909,110 910,111 910,112 911,113 911,114 912,111 913,112 913,112 914,113 914,113 915,114 915,114 916,115 917,115 917,112 918,112 918,112 919,112 919,112 920,110 920,110 921,111 922,111 922,111 923,111 923,111 924,112 924,112 925,112 926,111 926,112 927,112 927,114 928,114 928,115 929,115 929,115 930,116 931,116 931,111 932,111 932,112 933,113 933,113 934,113 935,114 935,115 936,111 936,110 937,111 937,112 938,112 938,112 939,113 940,113 940,115 941,115 941,115 942,115 942,116 943,116 944,119 944,118 945,118 945,120 946,121 946,121 947,121 947,121 948,124 949,127 949,128 950,127 950,127 951,127 951,128 952,128 952,128 953,129 954,129 954,129 955,130 955,130 956,131 956,130 957,131 958,132 958,133 959,133 959,134 960,132 960,134 961,135 961,136 962,135 963,135 963,134 964,135 964,135 965,136 965,137 966,136 967,137 967,138 968,140 968,140 969,141 969,142 970,142 970,143 971,140 972,141 972,140 972,141 973,141 973,141 973,141 974,141 974,142 974,142 974,143 975,144 976,144 976,145 976,145 976,150 977,150 977,151 977,151 977,152 978,152 978,154 978,154 978,154 979,154 979,154 979,154 979,155 980,155 980,155 981,155 981,156 981,156 982,156 982,157 982,157 983,157 983,157 983,157 983,155 984,155 984,156 985,156 985,156 985,156 985,156 986,156 986,156 986,157 987,157 987,156 987,156 987,156 988,156 988,156 988,156 988,157 989,157 989,157 990,157 990,157 990,157 990,158 991,158 991,158 991,158 991,158 992,160 992,160 992,161 993,161 993,162 993,162 993,161 994,161 994,163 995,163 995,165 995,165 995,164 996,164 996,166 996,166 996,167 997,167 997,166 997,166 997,167 998,167 998,169 999,169 999,170 1000,170 1000,170 1000,170 1000,170 1001,170 1001,170 1001,170 1001,170 1002,170 1002,170 1002,170 1002,171 1003,171 1003,172 1004,172 1004,172 1004,172 1004,173 1005,174 1005,175 1005,175 1006,176 1006,176 1006,176 1006,177 1007,177 1007,178 1008,178 1008,179 1008,180 1009,180 1009,181 1009,181 1009,183 1010,183 1010,183 1010,183 1010,184 1011,184 1011,185 1011,185 1011,186 1012,186 1012,186 1013,186 1013,187 1013,187 1013,187 1014,187 1014,187 1014,187 1014,187 1015,187 1015,189 1015,189 1015,190 1016,190 1016,191 1017,191 1017,192 1017,192 1017,192 1018,192 1018,193 1018,193 1018,194 1019,195 1019,195 1019,196 1020,196 1020,197 1020,197 1020,200 1021,200 1021,201 1022,201 1022,201 1022,201 1022,202 1023,202 1023,203 1023,203 1023,203 1024,203 1024,204 1024,204 1025,204 1025,205 1026,205 1026,206 1026,206 1026,207 1027,207 1027,208 1027,208 1027,208 1028,209 1028,212 1029,212 1029,212 1029,213 1030,213 1030,213 1031,213 1031,214 1031,214 1031,215 1032,215 1032,215 1032,216 1032,216 1033,216 1033,218 1033,218 1033,219 1034,219 1034,219 1034,219 1034,220 1035,220 1035,220 1036,220 1036,220 1036,220 1037,220 1037,222 1037,222 1037,223 1038,223 1038,223 1038,223 1038,224 1039,224 1039,225 1040,225 1040,225 1040,225 1040,225 1041,225 1041,226 1041,226 1041,227 1042,227 1042,228 1042,228 1042,228 1043,228 1043,230 1043,230 1043,231 1044,231 1044,231 1045,233 1045,233 1045,233 1046,233 1046,234 1046,234 1046,234 1047,234 1047,235 1047,235 1047,236 1048,236 1048,237 1049,237 1049,237 1049,237 1050,237 1050,238 1050,238 1050,238 1051,238 1051,239 1051,239 1051,239 1052,239 1052,239 1052,240 1052,239 1053,239 1053,241 1054,241 1054,241 1054,241 1054,241 1055,241 1055,242 1055,242 1055,243 1056,243 1056,244 1056,244 1056,244 1057,244 1057,244 1058,244 1058,244 1058,244 1058,245 1059,245 1059,245 1059,245 1059,246 1060,247 1060,247 1060,248 1061,248 1061,249 1061,249 1061,249 1062,249 1062,250 1063,250 1063,251 1063,251 1063,252 1064,252 1064,253 1064,253 1064,253 1065,253 1065,253 1065,253 1065,254 1066,254 1066,255 1067,255 1067,256 1067,256 1067,257 1068,257 1068,257 1068,257 1068,259 1069,259 1069,259 1069,259 1069,259 1070,259 1070,260 1070,260 1070,261 1071,261 1071,262 1072,262 1072,262 1072,262 1072,263 1073,263 1073,264 1073,264 1073,265 1074,265 1074,265 1074,265 1074,265 1075,265 1075,266 1075,266 1076,266 1076,265 1077,265 1077,266 1077,269 1078,269 1078,269 1078,269 1078,269 1079,269 1079,270 1079,270 1079,271 1080,271 1080,271 1081,271 1081,272 1081,272 1081,273 1082,273 1082,274 1082,274 1082,275 1083,275 1083,276 1083,276 1084,276 1084,278 1084,278 1084,278 1085,278 1085,279 1086,279 1086,280 1086,280 1086,280 1087,280 1087,280 1087,280 1087,281 1088,281 1088,280 1088,280 1088,278 1089,278 1089,277 1090,277 1090,278 1090,278 1090,279 1091,279 1091,279 1091,279 1091,279 1092,279 1092,280 1092,280 1092,280 1093,280 1093,280 1093,280 1093,281 1094,281 1094,281 1095,281 1095,282 1095,282 1095,283 1096,283 1096,283 1096,283 1096,284 1097,284 1097,284 1097,284 1097,285 1098,285 1098,286 1099,286 1099,286 1099,286 1099,286 1100,286 1100,287 1100,287 1100,287 1101,287 1101,288 1101,288 1101,288 1102,288 1102,289 1102,289 1102,289 1103,289 1103,290 1104,290 1104,291 1104,291 1104,292 1105,292 1105,292 1105,292 1105,293 1106,293 1106,294 1106,294 1106,294 1107,294 1107,294 1108,294 1108,295 1108,295 1108,295 1109,295 1109,296 1109,296 1109,296 1110,297 1110,297 1110,297 1111,297 1111,298 1111,298 1111,299 1112,299 1112,300 1113,300 1113,300 1113,300 1113,301 1114,301 1114,301 1114,301 1114,301 1115,301 1115,302 1115,302 1115,302 1116,302 1116,303 1116,303 1116,303 1117,303 1117,303 1118,303 1118,305 1118,305 1118,306 1119,306 1119,307 1119,307 1119,307 1120,307 1120,308 1120,308 1120,325 1121,325 1122,325 1122,325 1122,325 1122,326 1123,326 1123,327 1123,327 1123,329 1124,329 1124,329 1124,329 1124,330 1125,330 1125,330 1125,330 1125,330 1126,330 1126,331 1127,331 1127,331 1127,331 1127,331 1128,331 1128,332 1128,332 1128,332 1129,332 1129,333 1129,333 1129,333 1130,333 1130,333 1131,333 1131,334 1131,334 1131,334 1132,334 1132,334 1132,334 1132,334 1133,334 1133,335 1133,335 1133,335 1134,335 1134,335 1134,335 1134,336 1135,336 1135,336 1136,336 1136,337 1136,337 1136,338 1137,338 1137,338 1137,338 1137,339 1138,339 1138,339 1138,339 1138,339 1139,339 1139,340 1140,340 1140,341 1140,341 1140,341 1141,341 1141,342 1141,342 1141,342 1142,342 1142,342 1142,342 1142,344 1143,344 1143,346 1143,346 1143,347 1144,347 1145,347 1145,350 1145,350 1145,350 1146,350 1146,350 1146,350 1146,351 1147,351 1147,351 1147,351 1147,352 1148,352 1148,352 1149,352 1149,353 1149,353 1149,353 1150,354 1150,354 1150,354 1150,355 1151,354 1151,355 1151,355 1151,355 1152,355 1152,356 1152,356 1152,356 1153,356 1153,357 1154,357 1154,358 1154,358 1154,358 1155,358 1155,358 1155,358 1155,359 1156,359 1156,359 1156,359 1156,359 1157,359 1157,360 1157,360 1157,360 1158,360 1158,361 1159,361 1159,362 1159,362 1159,362 1160,362 1160,362 1160,362 1160,363 1161,363 1161,364 1161,364 1161,364 1162,364 1162,365 1163,365 1163,365 1163,365 1163,365 1164,365 1164,366 1164,366 1164,366 1165,366 1165,367 1165,367 1165,367 1166,367 1166,368 1166,368 1166,368 1167,368 1167,368 1168,368 1168,369 1168,369 1168,369 1169,369 1169,370 1169,370 1169,370 1170,370 1170,370 1170,371 1170,371 1171,371 1171,371 1172,371 1172,372 1172,372 1172,372 1173,372 1173,373 1173,373 1173,373 1174,373 1174,374 1174,374 1175,374 1175,375 1175,375 1175,375 1176,375 1176,376 1177,376 1177,377 1177,377 1177,377 1178,377 1178,378 1178,378 1178,379 1179,379 1179,380 1179,380 1179,380 1180,380 1180,381 1181,381 1181,382 1181,382 1181,383 1182,383 1182,384 1182,384 1182,384 1183,384 1183,385 1183,385 1183,385 1184,385 1184,386 1184,386 1184,386 1185,386 1185,387 1186,387 1186,387 1186,388 1187,388 1187,388 1187,388 1187,388 1188,388 1188,389 1188,389 1188,390 1189,390 1189,390 1190,390 "/>
<polyline fill="none" opacity="1" stroke="#198EE6" stroke-width="2" points="60,735 60,732 63,729 72,726 80,723 88,723 88,720 92,717 93,714 94,715 98,712 102,709 103,706 108,704 114,705 115,705 117,700 122,698 125,701 127,701 133,694 133,691 134,691 134,692 135,692 135,692 136,692 137,692 138,690 139,687 139,687 140,687 141,688 141,688 143,688 144,688 144,686 145,686 145,686 146,684 147,684 147,684 148,684 149,684 149,684 150,685 150,685 151,685 152,685 152,685 153,685 153,683 154,683 154,683 156,683 156,683 157,683 157,683 158,684 159,684 161,684 161,682 162,680 162,680 163,678 163,678 164,680 165,680 165,678 166,678 166,678 167,679 168,679 169,679 170,677 170,677 171,677 171,677 172,677 173,677 174,678 174,678 175,678 176,676 176,673 177,671 177,669 178,669 179,670 179,670 180,670 180,670 181,670 181,670 182,671 183,671 184,671 185,669 185,665 186,663 187,663 188,663 189,664 190,664 190,662 191,662 192,662 193,662 193,662 194,660 194,660 195,661 195,659 197,657 197,657 198,657 199,658 200,658 200,658 201,658 202,658 202,656 203,657 203,657 204,657 204,657 205,657 206,657 207,655 207,654 208,654 208,654 209,652 209,652 210,652 211,652 211,653 212,651 212,651 213,651 213,651 214,651 215,650 216,648 216,644 217,644 217,645 218,645 218,643 220,643 220,643 221,643 222,644 223,644 223,644 224,644 225,644 225,644 226,643 227,643 227,643 228,643 229,643 229,644 230,644 232,644 232,645 233,643 234,643 234,641 235,640 235,640 236,640 236,640 237,640 239,641 239,641 240,641 240,641 241,641 241,641 242,640 243,640 244,638 244,639 245,639 246,639 247,639 247,640 248,640 248,638 250,639 250,637 251,638 252,638 253,635 253,635 254,635 254,635 255,635 256,635 256,636 257,636 257,636 258,638 258,638 259,637 260,637 261,638 261,638 262,638 262,638 263,638 263,638 264,639 264,639 265,639 266,639 266,639 267,636 267,635 268,635 268,635 269,635 270,635 270,635 271,635 271,636 272,636 272,636 273,637 273,637 274,637 275,635 275,636 276,636 276,636 277,633 277,633 278,632 279,632 280,630 280,631 281,631 282,632 282,632 283,632 284,632 285,631 285,631 286,631 286,630 287,628 288,628 289,629 289,629 290,627 290,628 291,628 291,628 292,628 293,627 294,626 294,626 295,624 295,624 296,625 297,625 297,625 298,624 298,624 299,624 299,624 300,624 300,624 301,623 302,623 302,623 303,624 303,624 304,624 305,624 305,624 306,625 307,625 307,625 308,624 309,624 309,624 310,624 311,623 311,622 312,621 312,621 313,621 313,623 314,623 314,622 315,622 316,621 316,621 317,622 317,620 318,619 318,618 319,618 320,619 320,619 321,619 321,619 322,619 322,620 323,620 323,619 324,617 325,618 325,618 326,618 326,618 327,617 327,616 328,616 329,616 330,617 330,616 331,614 331,614 332,613 332,614 333,614 334,614 334,610 335,610 335,611 336,610 336,610 337,610 338,610 338,611 339,610 339,609 340,609 340,609 341,610 341,609 342,608 343,608 343,608 344,609 344,608 345,608 345,608 346,608 346,609 347,607 348,608 348,607 349,606 349,606 350,606 350,606 351,606 352,607 352,607 353,607 353,608 354,607 354,604 355,605 356,605 357,606 357,606 358,606 358,606 359,607 360,607 361,606 361,605 362,605 362,605 363,605 363,606 364,606 364,606 365,606 366,605 366,606 367,606 367,606 368,605 368,605 369,605 370,606 370,606 371,606 371,606 372,606 372,606 373,607 373,607 374,606 375,606 375,606 376,607 376,607 377,606 377,605 378,605 379,605 379,605 380,606 380,606 381,606 381,606 382,606 382,607 383,607 384,607 384,605 385,605 385,606 386,606 386,606 387,606 387,606 388,606 389,607 389,607 390,606 390,605 391,605 391,606 392,606 393,605 393,605 394,605 394,605 395,606 395,606 396,605 396,605 397,606 398,605 398,606 399,607 399,607 400,607 400,606 401,605 402,605 402,606 403,606 403,606 404,606 404,605 405,607 405,604 406,604 407,604 407,605 408,605 408,605 409,603 409,604 410,603 411,603 411,602 412,601 412,601 413,601 413,601 414,601 414,601 415,600 416,601 416,602 417,603 417,603 418,603 418,603 419,602 420,603 421,603 421,603 422,603 422,604 423,604 423,604 424,604 425,604 425,604 426,605 426,605 427,605 427,604 428,604 428,604 429,605 430,605 430,605 431,605 431,606 432,606 432,606 433,606 434,606 434,607 435,607 435,607 436,606 436,606 437,606 437,606 438,605 439,605 439,605 440,605 440,604 441,604 441,604 442,604 443,605 443,605 444,605 444,605 445,605 445,605 446,604 446,605 447,605 448,605 448,605 449,605 449,605 450,605 450,605 451,605 452,606 452,606 453,605 453,605 454,605 454,605 455,606 455,606 456,605 457,605 457,605 458,606 458,606 459,606 459,606 460,606 461,607 461,607 462,607 462,607 463,607 463,607 464,608 464,608 465,608 466,608 466,608 467,609 467,609 468,609 468,609 469,609 469,608 470,609 471,607 471,607 472,608 472,607 473,607 474,607 475,607 475,607 476,607 476,606 477,606 477,607 478,607 478,607 479,607 480,608 481,607 481,607 482,607 482,608 483,607 484,607 484,606 485,607 485,607 486,607 486,607 487,607 487,607 488,606 489,606 489,606 490,607 490,606 491,606 491,606 492,606 493,607 493,607 494,607 494,606 495,606 495,606 496,605 496,604 497,604 498,604 498,605 499,605 499,605 500,605 500,605 501,605 502,606 502,606 503,606 503,606 504,606 504,605 505,605 505,605 506,606 507,606 507,606 508,606 508,607 509,608 509,608 510,608 510,608 511,608 512,608 512,609 513,609 513,609 514,609 514,609 515,610 516,610 516,609 517,609 517,609 518,610 518,610 519,611 519,611 520,611 521,612 521,612 522,612 522,612 523,612 524,613 525,613 525,613 526,613 526,613 527,614 527,614 528,614 528,614 529,614 530,614 531,614 531,614 532,614 532,614 533,615 534,615 534,614 535,615 536,615 536,614 537,614 537,615 538,615 539,615 539,615 540,615 540,615 541,615 541,616 542,615 543,615 543,616 544,616 544,615 545,615 545,616 546,615 546,615 547,615 548,613 548,614 549,614 549,614 550,614 550,614 551,615 551,615 552,615 553,615 553,615 554,614 554,614 555,614 555,613 556,613 557,613 557,612 558,612 558,611 559,611 559,611 560,612 560,611 561,611 562,611 562,612 563,612 563,612 564,612 564,612 565,613 566,613 566,613 567,613 567,613 568,614 568,615 569,615 569,615 570,614 571,615 571,614 572,614 572,614 573,615 573,615 574,615 575,615 575,616 576,616 576,615 577,615 577,615 578,616 578,616 579,615 580,615 580,616 581,616 581,616 582,616 582,616 583,616 584,616 584,616 585,616 585,616 586,616 586,617 587,616 587,616 588,615 589,615 589,615 590,615 590,616 591,615 591,615 592,615 592,615 593,615 594,615 594,615 595,615 595,615 596,615 596,616 597,616 598,616 598,617 599,617 599,617 600,618 600,618 601,618 601,618 602,618 603,618 603,618 604,618 604,618 605,618 605,619 606,618 607,619 607,619 608,619 608,619 609,619 609,619 610,619 610,619 611,619 612,618 612,619 613,619 613,619 614,619 614,619 615,619 616,619 616,619 617,619 617,619 618,619 618,619 619,619 619,620 620,620 621,619 621,619 622,619 622,619 623,619 623,619 624,619 625,619 625,620 626,619 626,619 627,619 627,619 628,620 628,620 629,620 630,620 630,620 631,620 631,620 632,620 632,620 633,620 634,620 635,620 635,621 636,621 636,621 637,621 637,621 638,621 639,621 639,621 640,621 640,622 641,622 641,622 642,622 642,622 643,622 644,622 644,621 645,622 645,622 646,622 646,622 647,622 648,622 648,623 649,623 649,623 650,623 650,623 651,623 651,623 652,623 653,624 653,624 654,624 654,624 655,624 655,624 656,625 657,625 657,625 658,624 658,625 659,625 659,625 660,626 660,626 661,626 662,626 662,626 663,626 663,627 664,627 664,627 665,627 665,626 666,626 667,626 667,626 668,626 668,626 669,626 669,626 670,626 671,626 671,627 672,626 672,626 673,627 673,627 674,627 674,627 675,628 676,628 676,628 676,628 677,628 677,628 678,628 678,628 679,629 680,629 680,629 681,629 681,629 682,630 682,630 683,629 683,629 684,630 685,630 685,630 686,630 686,630 687,632 687,631 688,631 689,631 689,631 690,631 690,632 691,632 691,632 692,633 692,633 693,633 694,633 694,633 695,633 695,633 696,634 696,634 697,634 698,634 698,634 699,634 699,634 700,634 700,634 701,634 701,634 702,634 703,634 703,635 704,635 704,635 705,635 705,635 706,635 706,635 707,635 708,636 708,636 709,636 709,636 710,636 710,636 711,636 712,636 712,637 713,636 713,636 714,636 714,637 715,637 715,637 716,637 717,637 717,637 718,637 718,637 719,638 719,637 720,637 721,637 721,638 722,638 722,638 723,638 723,638 724,638 724,638 725,638 726,639 726,639 727,639 727,639 728,639 728,639 729,639 730,639 730,640 731,640 731,639 732,640 732,640 733,639 733,640 734,640 735,644 735,644 736,644 736,640 737,640 737,641 738,641 739,641 739,641 740,641 740,642 741,642 741,642 742,642 742,642 743,642 744,643 744,643 745,643 745,643 746,644 746,644 747,644 747,644 748,644 749,644 749,645 750,645 750,645 751,645 751,645 752,645 753,645 753,645 754,645 754,645 755,645 755,645 756,645 756,645 757,646 758,646 758,646 759,646 759,647 760,647 760,647 761,647 762,647 762,647 763,646 763,647 764,647 764,647 765,647 765,647 766,647 767,647 767,647 768,647 768,646 769,646 769,645 770,645 771,645 771,645 772,645 772,645 773,645 773,645 774,645 774,646 775,646 776,646 776,646 777,646 777,646 778,646 778,646 779,647 780,647 780,647 781,647 781,647 782,647 782,647 783,647 783,647 784,647 785,647 785,647 786,647 786,648 787,648 787,648 788,648 788,648 789,648 790,648 790,648 791,649 791,649 792,649 792,649 793,649 794,649 794,648 795,648 795,648 796,649 796,649 797,649 797,649 798,649 799,649 799,649 800,649 800,649 801,649 801,649 802,649 803,649 803,649 804,649 804,649 805,649 805,649 806,649 806,649 807,649 808,649 808,649 809,649 809,649 810,649 810,649 811,649 812,649 812,649 813,649 813,650 814,650 814,650 815,650 815,650 816,650 817,650 817,650 818,650 818,650 819,650 819,650 820,651 821,650 821,650 822,650 822,651 823,651 823,651 824,651 824,651 825,651 826,651 826,651 827,651 827,651 828,652 828,652 829,652 829,652 830,653 831,653 831,653 832,653 832,653 833,653 833,653 834,653 835,654 835,654 836,653 836,653 837,651 837,651 838,651 838,651 839,651 840,651 840,651 841,651 841,651 842,651 842,650 843,650 844,650 844,650 845,650 845,650 846,650 846,650 847,650 847,650 848,650 849,650 849,650 850,650 850,650 851,650 851,650 852,650 853,650 853,650 854,650 854,651 855,651 855,651 856,651 856,651 857,651 858,651 858,651 859,651 859,651 860,651 860,651 861,651 862,652 862,651 863,651 863,651 864,652 864,652 865,652 865,652 866,652 867,651 867,651 868,651 868,651 869,651 869,651 870,652 870,652 871,652 872,652 872,652 873,652 873,652 874,652 874,652 875,652 876,652 876,652 877,652 877,653 878,652 878,653 879,653 879,653 880,653 881,653 881,653 882,654 882,654 883,654 883,654 884,655 885,655 885,655 886,655 886,655 887,655 887,655 888,656 888,656 889,656 890,656 890,656 891,656 891,656 892,656 892,656 893,656 893,656 894,656 894,656 895,656 895,657 896,656 896,656 897,656 897,657 898,656 899,656 899,657 900,657 900,657 901,657 901,657 902,657 903,658 903,657 904,657 904,657 905,657 905,657 906,658 906,658 907,658 908,658 908,658 909,658 909,658 910,658 910,658 911,658 911,658 912,659 913,659 913,659 914,659 914,659 915,659 915,659 916,659 917,659 917,659 918,659 918,659 919,659 919,659 920,659 920,660 921,660 922,660 922,660 923,660 923,660 924,660 924,660 925,660 926,660 926,660 927,661 927,661 928,661 928,661 929,662 929,662 930,662 931,662 931,662 932,662 932,662 933,662 933,662 934,662 935,662 935,662 936,662 936,662 937,662 937,662 938,663 938,663 939,663 940,663 940,663 941,663 941,663 942,663 942,663 943,663 944,664 944,664 945,664 945,664 946,664 946,665 947,665 947,665 948,665 949,665 949,665 950,665 950,665 951,665 951,665 952,665 952,665 953,665 954,666 954,666 955,666 955,666 956,666 956,666 957,667 958,667 958,667 959,667 959,667 960,667 960,667 961,667 961,667 962,667 963,667 963,668 964,667 964,667 965,668 965,667 966,667 967,667 967,668 968,668 968,668 969,668 969,669 970,669 970,669 971,669 972,669 972,669 972,669 973,669 973,669 973,670 974,670 974,670 974,670 974,670 975,670 976,670 976,670 976,670 976,670 977,670 977,670 977,670 977,670 978,670 978,670 978,670 978,670 979,670 979,670 979,670 979,670 980,670 980,670 981,670 981,670 981,670 982,670 982,670 983,670 983,670 983,670 983,670 984,670 984,671 985,671 985,671 985,671 985,671 986,671 986,671 986,671 987,671 987,671 987,671 987,671 988,671 988,671 988,671 988,671 989,671 989,671 990,671 990,671 990,671 990,671 991,671 991,671 991,671 991,672 992,672 992,672 992,672 993,672 993,672 993,672 993,672 994,672 994,672 995,672 995,671 995,671 995,671 996,671 996,671 996,671 996,671 997,671 997,671 997,671 997,671 998,671 998,671 999,671 999,671 1000,671 1000,671 1000,671 1000,672 1001,672 1001,671 1001,671 1001,671 1002,671 1002,671 1002,671 1002,672 1003,672 1003,672 1004,672 1004,672 1004,672 1004,672 1005,672 1005,672 1005,672 1006,672 1006,672 1006,672 1006,672 1007,672 1007,672 1008,672 1008,672 1008,672 1009,672 1009,673 1009,673 1009,673 1010,673 1010,673 1010,673 1010,674 1011,674 1011,674 1011,674 1011,674 1012,674 1012,674 1013,674 1013,674 1013,674 1013,674 1014,674 1014,674 1014,674 1014,674 1015,674 1015,674 1015,674 1015,674 1016,674 1016,674 1017,674 1017,673 1017,673 1017,674 1018,674 1018,674 1018,674 1018,673 1019,673 1019,673 1019,673 1020,673 1020,673 1020,673 1020,673 1021,673 1021,673 1022,673 1022,673 1022,673 1022,673 1023,673 1023,673 1023,673 1023,673 1024,673 1024,674 1024,674 1025,674 1025,674 1026,674 1026,674 1026,674 1026,674 1027,674 1027,674 1027,674 1027,674 1028,674 1028,674 1029,674 1029,674 1029,674 1030,674 1030,675 1031,675 1031,675 1031,675 1031,675 1032,675 1032,675 1032,675 1032,675 1033,675 1033,675 1033,675 1033,675 1034,675 1034,675 1034,675 1034,675 1035,675 1035,675 1036,675 1036,675 1036,675 1037,675 1037,675 1037,675 1037,675 1038,675 1038,675 1038,675 1038,675 1039,675 1039,675 1040,675 1040,675 1040,675 1040,675 1041,675 1041,675 1041,675 1041,675 1042,675 1042,675 1042,675 1042,675 1043,675 1043,676 1043,676 1043,676 1044,676 1044,675 1045,675 1045,675 1045,675 1046,675 1046,675 1046,675 1046,675 1047,675 1047,675 1047,675 1047,675 1048,675 1048,675 1049,675 1049,675 1049,675 1050,675 1050,675 1050,675 1050,676 1051,676 1051,676 1051,676 1051,676 1052,676 1052,676 1052,676 1052,676 1053,676 1053,676 1054,676 1054,676 1054,676 1054,676 1055,676 1055,676 1055,676 1055,676 1056,676 1056,676 1056,676 1056,677 1057,677 1057,677 1058,677 1058,677 1058,677 1058,677 1059,677 1059,677 1059,677 1059,677 1060,677 1060,677 1060,677 1061,677 1061,677 1061,677 1061,677 1062,677 1062,677 1063,677 1063,677 1063,677 1063,677 1064,677 1064,677 1064,677 1064,677 1065,677 1065,677 1065,677 1065,677 1066,677 1066,677 1067,677 1067,677 1067,677 1067,678 1068,678 1068,678 1068,678 1068,678 1069,678 1069,678 1069,678 1069,678 1070,678 1070,678 1070,678 1070,678 1071,678 1071,678 1072,678 1072,678 1072,678 1072,678 1073,678 1073,679 1073,679 1073,679 1074,679 1074,679 1074,679 1074,679 1075,679 1075,679 1075,679 1076,679 1076,679 1077,679 1077,679 1077,679 1078,679 1078,679 1078,679 1078,679 1079,679 1079,678 1079,678 1079,678 1080,678 1080,679 1081,679 1081,679 1081,679 1081,679 1082,679 1082,679 1082,679 1082,679 1083,679 1083,679 1083,679 1084,679 1084,679 1084,679 1084,679 1085,679 1085,679 1086,679 1086,679 1086,679 1086,679 1087,679 1087,679 1087,679 1087,679 1088,679 1088,679 1088,679 1088,679 1089,679 1089,681 1090,681 1090,680 1090,680 1090,680 1091,680 1091,680 1091,680 1091,681 1092,681 1092,681 1092,681 1092,681 1093,681 1093,681 1093,681 1093,681 1094,681 1094,681 1095,681 1095,681 1095,681 1095,681 1096,681 1096,681 1096,681 1096,681 1097,681 1097,681 1097,681 1097,681 1098,681 1098,682 1099,682 1099,682 1099,682 1099,682 1100,682 1100,682 1100,682 1100,682 1101,682 1101,682 1101,682 1101,682 1102,682 1102,682 1102,682 1102,682 1103,682 1103,682 1104,682 1104,682 1104,682 1104,682 1105,682 1105,682 1105,682 1105,682 1106,682 1106,682 1106,682 1106,682 1107,682 1107,682 1108,682 1108,682 1108,682 1108,682 1109,682 1109,682 1109,682 1109,683 1110,683 1110,683 1110,683 1111,683 1111,683 1111,683 1111,683 1112,683 1112,683 1113,683 1113,683 1113,683 1113,683 1114,683 1114,683 1114,683 1114,683 1115,683 1115,683 1115,683 1115,683 1116,683 1116,683 1116,683 1116,683 1117,683 1117,683 1118,683 1118,684 1118,684 1118,684 1119,684 1119,684 1119,684 1119,684 1120,684 1120,684 1120,684 1120,686 1121,686 1122,686 1122,686 1122,686 1122,686 1123,686 1123,686 1123,686 1123,686 1124,686 1124,686 1124,686 1124,686 1125,686 1125,686 1125,686 1125,686 1126,686 1126,686 1127,686 1127,686 1127,686 1127,686 1128,686 1128,686 1128,686 1128,686 1129,686 1129,686 1129,686 1129,686 1130,686 1130,686 1131,686 1131,687 1131,687 1131,687 1132,687 1132,687 1132,687 1132,687 1133,687 1133,687 1133,687 1133,687 1134,687 1134,687 1134,687 1134,687 1135,687 1135,687 1136,687 1136,687 1136,687 1136,687 1137,687 1137,687 1137,687 1137,687 1138,687 1138,687 1138,687 1138,688 1139,688 1139,688 1140,688 1140,688 1140,688 1140,687 1141,687 1141,688 1141,688 1141,688 1142,688 1142,688 1142,688 1142,688 1143,688 1143,688 1143,688 1143,688 1144,688 1145,688 1145,688 1145,688 1145,688 1146,688 1146,688 1146,688 1146,688 1147,688 1147,688 1147,688 1147,688 1148,688 1148,688 1149,688 1149,688 1149,688 1149,688 1150,688 1150,688 1150,688 1150,688 1151,688 1151,688 1151,688 1151,688 1152,688 1152,688 1152,688 1152,688 1153,688 1153,688 1154,688 1154,689 1154,689 1154,689 1155,689 1155,688 1155,688 1155,689 1156,689 1156,689 1156,689 1156,689 1157,689 1157,689 1157,689 1157,689 1158,689 1158,689 1159,689 1159,689 1159,689 1159,689 1160,689 1160,689 1160,689 1160,689 1161,689 1161,689 1161,689 1161,689 1162,689 1162,690 1163,690 1163,690 1163,690 1163,690 1164,690 1164,690 1164,690 1164,690 1165,690 1165,690 1165,690 1165,690 1166,690 1166,690 1166,690 1166,690 1167,690 1167,690 1168,690 1168,690 1168,690 1168,690 1169,690 1169,690 1169,690 1169,690 1170,690 1170,690 1170,690 1170,690 1171,690 1171,690 1172,690 1172,690 1172,690 1172,690 1173,690 1173,690 1173,690 1173,690 1174,690 1174,690 1174,690 1175,690 1175,691 1175,691 1175,690 1176,690 1176,690 1177,690 1177,690 1177,690 1177,690 1178,690 1178,691 1178,691 1178,691 1179,691 1179,691 1179,691 1179,691 1180,691 1180,691 1181,691 1181,692 1181,692 1181,692 1182,692 1182,692 1182,692 1182,692 1183,692 1183,692 1183,692 1183,692 1184,692 1184,692 1184,692 1184,692 1185,692 1185,692 1186,692 1186,692 1186,692 1187,692 1187,692 1187,692 1187,692 1188,692 1188,692 1188,692 1188,692 1189,692 1189,693 1190,693 "/>
<polyline fill="none" opacity="1" stroke="#5419E6" stroke-width="2" points="801,738 802,738 805,738 810,737 812,736 815,736 817,736 818,735 818,732 819,732 821,732 822,732 826,731 827,731 828,731 829,731 829,731 836,731 840,731 841,730 842,730 844,729 846,729 847,728 848,728 849,727 849,727 850,727 852,727 853,727 853,727 855,727 856,726 856,726 857,725 860,725 860,725 861,725 862,724 863,724 864,724 865,724 865,724 866,724 868,724 870,724 870,724 872,724 872,723 873,723 874,723 874,723 875,723 876,723 877,723 878,723 878,723 879,722 880,723 881,723 881,723 882,722 882,721 883,721 883,721 884,721 885,722 885,722 886,722 887,722 887,722 888,721 888,721 889,721 890,721 891,721 892,721 892,721 893,721 893,721 894,721 894,720 895,720 895,720 896,720 896,719 897,719 898,719 899,718 900,718 900,718 901,717 901,717 902,717 903,717 904,717 905,717 905,717 906,716 906,716 907,716 908,715 908,715 909,715 910,714 910,714 911,714 911,714 912,714 913,714 913,714 914,713 915,713 915,714 917,713 918,713 918,713 919,713 920,714 921,714 922,714 922,714 923,713 924,713 926,713 926,713 928,712 928,713 929,713 929,712 930,712 931,712 931,712 932,712 932,712 933,712 933,712 934,711 935,711 935,712 936,712 936,712 937,712 937,711 938,711 938,712 939,711 940,711 940,711 941,711 941,711 942,711 942,711 944,711 944,711 945,710 945,710 946,710 946,710 947,710 947,709 948,709 949,709 950,710 950,710 951,710 951,710 952,709 952,709 953,709 954,709 954,709 955,708 955,708 956,708 956,709 957,709 958,708 958,708 959,708 959,708 960,708 960,708 961,708 961,708 962,708 963,708 963,708 964,708 964,708 965,708 965,708 966,708 967,707 968,708 968,708 969,708 969,708 970,708 970,708 971,708 972,708 972,708 972,708 973,708 973,708 973,708 974,708 974,708 974,708 974,708 975,708 976,708 976,708 976,708 976,708 977,708 977,708 977,708 977,707 978,707 978,707 978,707 978,707 979,707 979,708 979,708 979,707 980,707 980,707 981,707 981,707 981,707 982,707 982,707 982,707 983,707 983,707 983,707 983,707 984,707 984,707 985,707 985,706 985,706 985,707 986,707 986,707 986,707 987,707 987,706 987,706 987,706 988,706 988,706 988,706 988,707 989,707 989,707 990,707 990,707 990,707 990,707 991,707 991,707 991,707 991,707 992,707 992,707 993,707 993,707 993,707 993,707 994,707 994,707 995,707 995,707 995,707 995,707 996,707 996,707 996,707 996,707 997,707 997,707 997,707 997,707 998,707 999,707 999,707 1000,707 1000,707 1000,707 1000,707 1001,707 1001,707 1001,707 1001,707 1002,707 1002,707 1002,707 1002,707 1003,707 1003,706 1004,706 1004,706 1004,707 1005,707 1005,707 1005,707 1006,707 1006,707 1006,707 1006,707 1007,707 1007,707 1008,707 1008,706 1008,706 1009,706 1009,706 1009,706 1009,706 1010,706 1010,706 1010,706 1010,706 1011,706 1011,706 1011,706 1011,706 1012,706 1012,706 1013,706 1013,706 1013,706 1014,706 1014,707 1014,707 1014,706 1015,706 1015,707 1015,707 1015,706 1016,706 1016,706 1017,706 1017,706 1017,706 1017,707 1018,707 1018,707 1018,707 1018,706 1019,706 1019,706 1019,706 1020,706 1020,706 1020,706 1020,706 1021,706 1021,707 1022,707 1022,707 1022,707 1022,707 1023,707 1023,707 1023,707 1023,707 1024,707 1024,707 1024,707 1025,707 1026,707 1026,707 1026,707 1026,707 1027,707 1027,707 1027,707 1027,707 1028,707 1028,707 1029,707 1029,707 1029,707 1030,707 1030,707 1031,707 1031,707 1031,707 1031,707 1032,707 1032,706 1032,706 1033,706 1033,706 1033,706 1033,706 1034,706 1034,706 1034,706 1034,706 1035,706 1035,706 1036,706 1036,706 1036,706 1037,706 1037,706 1037,706 1037,707 1038,707 1038,707 1038,707 1038,707 1039,707 1039,707 1040,707 1040,706 1040,706 1040,707 1041,707 1041,707 1041,707 1041,707 1042,707 1042,707 1042,707 1042,707 1043,707 1043,707 1043,707 1044,707 1044,707 1045,707 1045,707 1045,707 1046,707 1046,707 1046,707 1046,707 1047,707 1047,707 1047,707 1047,707 1048,707 1048,707 1049,707 1049,707 1049,707 1050,707 1050,707 1050,707 1050,707 1051,707 1051,707 1051,707 1051,707 1052,707 1052,707 1052,707 1052,707 1053,707 1053,707 1054,707 1054,707 1054,707 1054,707 1055,707 1055,707 1055,707 1055,707 1056,707 1056,707 1056,707 1056,707 1057,707 1057,707 1058,707 1058,707 1058,707 1058,707 1059,707 1059,707 1059,707 1059,707 1060,707 1060,707 1060,707 1061,707 1061,707 1061,707 1061,707 1062,707 1062,707 1063,707 1063,707 1063,707 1063,707 1064,707 1064,707 1064,707 1064,707 1065,707 1065,707 1065,707 1065,707 1066,707 1066,707 1067,707 1067,707 1067,707 1067,707 1068,707 1068,706 1068,706 1068,707 1069,707 1069,707 1069,706 1070,706 1070,706 1070,706 1070,706 1071,706 1071,706 1072,706 1072,706 1072,706 1072,706 1073,706 1073,706 1073,706 1073,706 1074,706 1074,706 1074,706 1074,706 1075,706 1075,706 1075,706 1076,706 1076,706 1077,706 1077,706 1078,706 1078,706 1078,706 1078,706 1079,706 1079,706 1080,706 1080,706 1081,706 1081,706 1081,706 1081,706 1082,706 1082,705 1082,705 1082,705 1083,705 1083,705 1083,706 1084,706 1084,706 1084,706 1084,706 1085,706 1085,706 1086,706 1086,706 1086,706 1086,706 1087,706 1087,706 1087,706 1088,706 1088,706 1088,706 1088,706 1089,706 1089,704 1090,704 1090,704 1090,704 1090,704 1091,704 1091,704 1091,704 1091,704 1092,704 1092,704 1092,704 1092,704 1093,704 1093,704 1093,704 1093,704 1094,704 1094,704 1095,704 1095,704 1095,704 1096,704 1096,706 1096,706 1096,706 1097,706 1097,706 1097,706 1097,705 1098,705 1098,705 1099,705 1099,705 1099,705 1099,705 1100,705 1100,705 1100,705 1100,705 1101,705 1101,705 1101,705 1101,705 1102,705 1102,705 1102,705 1102,705 1103,705 1103,705 1104,705 1104,705 1104,705 1104,705 1105,705 1105,705 1105,705 1105,705 1106,705 1106,705 1106,705 1106,705 1107,705 1107,705 1108,705 1108,705 1108,705 1108,706 1109,706 1109,706 1109,706 1109,706 1110,706 1110,706 1110,706 1111,706 1111,706 1111,706 1111,706 1112,706 1112,706 1113,706 1113,706 1113,706 1113,706 1114,706 1114,706 1114,706 1114,706 1115,706 1115,707 1115,707 1115,707 1116,706 1116,706 1116,706 1116,706 1117,706 1117,706 1118,706 1118,706 1118,706 1118,707 1119,707 1119,706 1119,706 1119,706 1120,706 1120,706 1120,706 1120,708 1121,708 1122,708 1122,708 1122,708 1122,708 1123,708 1123,708 1123,708 1123,708 1124,708 1124,708 1124,708 1124,708 1125,708 1125,708 1125,708 1125,708 1126,708 1126,708 1127,708 1127,708 1127,708 1127,708 1128,708 1128,708 1128,708 1129,708 1129,708 1129,708 1129,708 1130,708 1130,708 1131,708 1131,708 1131,708 1131,708 1132,708 1132,708 1132,708 1132,708 1133,708 1133,708 1133,708 1133,708 1134,708 1134,708 1134,708 1134,708 1135,708 1135,708 1136,708 1136,708 1136,708 1136,708 1137,708 1137,708 1137,708 1137,708 1138,708 1138,708 1138,708 1138,708 1139,708 1139,708 1140,708 1140,708 1140,708 1140,708 1141,708 1141,708 1141,708 1141,708 1142,708 1142,708 1142,708 1142,708 1143,708 1143,708 1143,708 1143,708 1144,708 1145,708 1145,708 1145,708 1145,708 1146,708 1146,708 1146,708 1146,708 1147,708 1147,708 1147,708 1147,708 1148,708 1148,708 1149,708 1149,708 1149,708 1149,708 1150,708 1150,708 1150,708 1150,708 1151,708 1151,708 1151,708 1151,708 1152,708 1152,708 1152,708 1152,708 1153,708 1153,708 1154,708 1154,708 1154,708 1154,708 1155,708 1155,708 1155,708 1155,708 1156,708 1156,708 1156,708 1156,708 1157,708 1157,708 1157,708 1157,708 1158,708 1158,708 1159,708 1159,708 1159,708 1159,708 1160,708 1160,708 1160,708 1160,708 1161,708 1161,708 1161,708 1161,708 1162,708 1162,708 1163,708 1163,708 1163,708 1163,708 1164,708 1164,708 1164,708 1164,708 1165,708 1165,708 1165,708 1165,708 1166,708 1166,708 1166,708 1166,708 1167,708 1167,708 1168,708 1168,708 1168,708 1168,708 1169,708 1169,708 1169,708 1170,708 1170,708 1170,708 1170,708 1171,708 1171,708 1172,708 1172,708 1172,708 1172,708 1173,708 1173,708 1173,708 1173,708 1174,708 1174,708 1174,708 1175,708 1175,708 1175,708 1175,708 1176,708 1176,708 1177,708 1177,707 1177,707 1177,707 1178,707 1178,707 1178,707 1178,707 1179,707 1179,707 1179,707 1179,707 1180,707 1180,707 1181,707 1181,707 1181,707 1181,707 1182,707 1182,708 1182,708 1182,708 1183,708 1183,708 1183,708 1183,708 1184,708 1184,708 1184,708 1184,708 1185,708 1185,708 1186,708 1186,708 1186,708 1187,708 1187,708 1187,708 1187,708 1188,708 1188,708 1188,708 1188,708 1189,708 1189,708 1190,708 "/>
<polyline fill="none" opacity="1" stroke="#E619C8" stroke-width="2" points="888,738 889,737 890,737 890,736 891,736 892,735 892,735 893,735 893,735 894,735 894,735 895,734 895,734 896,734 896,733 897,733 897,733 898,733 899,732 899,732 900,731 900,730 901,730 902,730 903,728 903,727 904,727 904,726 905,725 905,725 906,724 906,724 907,723 908,723 908,723 909,723 909,720 910,719 910,718 911,717 911,716 912,716 913,716 913,716 914,716 914,716 915,716 915,714 916,714 917,714 917,714 918,714 918,714 919,713 919,714 920,713 920,712 921,712 922,712 922,711 923,711 923,710 924,710 924,709 925,707 926,707 926,707 927,706 927,706 928,706 928,706 929,704 929,703 930,702 931,700 931,700 932,699 932,699 933,698 933,698 934,698 935,697 935,697 936,696 936,696 937,695 937,694 938,694 938,692 939,691 940,690 940,690 941,688 941,688 942,688 942,687 943,687 944,685 944,683 945,683 945,682 946,681 946,681 947,681 947,681 948,680 949,679 949,677 950,677 950,676 951,674 951,674 952,673 952,673 953,673 954,672 954,672 955,672 955,671 956,671 956,670 957,670 958,669 958,669 959,669 959,668 960,668 960,667 961,667 961,666 962,667 963,665 963,664 964,664 964,663 965,662 965,662 966,663 967,661 967,660 968,660 968,660 969,659 969,657 970,656 970,655 971,655 972,654 972,654 972,653 973,653 973,653 973,653 974,653 974,651 974,651 974,651 975,650 976,650 976,649 976,649 976,646 977,646 977,646 977,646 977,645 978,645 978,644 978,644 978,643 979,643 979,642 979,642 979,642 980,642 980,641 981,641 981,640 981,639 982,639 982,638 982,638 983,638 983,638 983,638 983,637 984,637 984,637 985,637 985,637 985,637 985,636 986,636 986,636 986,635 987,635 987,635 987,635 987,634 988,634 988,633 988,633 988,632 989,632 989,632 990,632 990,631 990,631 990,631 991,631 991,628 991,628 991,627 992,624 992,624 992,623 993,623 993,621 993,621 993,621 994,621 994,620 995,620 995,618 995,618 995,617 996,617 996,616 996,616 996,616 997,616 997,615 997,615 997,614 998,614 998,613 999,613 999,612 1000,612 1000,610 1000,610 1000,609 1001,609 1001,609 1001,609 1001,608 1002,608 1002,608 1002,608 1002,607 1003,607 1003,606 1004,606 1004,605 1004,605 1004,604 1005,602 1005,602 1005,602 1006,602 1006,600 1006,600 1006,598 1007,598 1007,597 1008,597 1008,597 1008,596 1009,596 1009,594 1009,594 1009,592 1010,592 1010,590 1010,590 1010,590 1011,590 1011,590 1011,590 1011,589 1012,589 1012,588 1013,588 1013,587 1013,587 1013,582 1014,582 1014,580 1014,580 1014,579 1015,579 1015,578 1015,578 1015,577 1016,577 1016,577 1017,577 1017,576 1017,576 1017,574 1018,574 1018,572 1018,572 1018,571 1019,570 1019,570 1019,569 1020,569 1020,567 1020,567 1020,567 1021,567 1021,565 1022,565 1022,565 1022,565 1022,564 1023,564 1023,563 1023,563 1023,561 1024,561 1024,560 1024,559 1025,559 1025,559 1026,559 1026,558 1026,558 1026,557 1027,557 1027,555 1027,555 1027,554 1028,552 1028,550 1029,550 1029,549 1029,548 1030,548 1030,547 1031,547 1031,547 1031,547 1031,544 1032,544 1032,543 1032,543 1032,542 1033,542 1033,540 1033,540 1033,540 1034,540 1034,539 1034,539 1034,537 1035,537 1035,537 1036,537 1036,537 1036,536 1037,536 1037,534 1037,534 1037,532 1038,532 1038,532 1038,532 1038,531 1039,531 1039,530 1040,530 1040,529 1040,529 1040,528 1041,528 1041,528 1041,527 1041,527 1042,527 1042,526 1042,526 1042,525 1043,525 1043,525 1043,525 1043,525 1044,525 1044,524 1045,523 1045,523 1045,522 1046,522 1046,520 1046,520 1046,519 1047,519 1047,519 1047,519 1047,518 1048,518 1048,517 1049,517 1049,516 1049,513 1050,513 1050,512 1050,512 1050,511 1051,512 1051,511 1051,511 1051,510 1052,510 1052,510 1052,510 1052,510 1053,510 1053,508 1054,508 1054,508 1054,508 1054,508 1055,508 1055,507 1055,507 1055,506 1056,506 1056,506 1056,506 1056,505 1057,505 1057,504 1058,504 1058,502 1058,502 1058,501 1059,501 1059,500 1059,500 1059,498 1060,498 1060,498 1060,496 1061,496 1061,496 1061,496 1061,494 1062,494 1062,493 1063,493 1063,493 1063,493 1063,490 1064,490 1064,489 1064,489 1064,488 1065,488 1065,487 1065,487 1065,485 1066,485 1066,485 1067,485 1067,482 1067,482 1067,481 1068,481 1068,480 1068,480 1068,478 1069,478 1069,478 1069,478 1069,477 1070,477 1070,475 1070,475 1070,475 1071,475 1071,473 1072,473 1072,473 1072,473 1072,472 1073,472 1073,470 1073,470 1073,468 1074,468 1074,467 1074,467 1074,467 1075,467 1075,467 1075,466 1076,466 1076,464 1077,464 1077,462 1077,460 1078,460 1078,460 1078,460 1078,459 1079,459 1079,459 1079,459 1079,457 1080,457 1080,456 1081,456 1081,454 1081,454 1081,454 1082,454 1082,454 1082,454 1082,454 1083,454 1083,454 1083,454 1084,454 1084,452 1084,452 1084,451 1085,451 1085,450 1086,450 1086,450 1086,450 1086,450 1087,450 1087,449 1087,449 1087,448 1088,448 1088,448 1088,448 1088,447 1089,446 1089,446 1090,446 1090,445 1090,445 1090,443 1091,443 1091,443 1091,443 1091,442 1092,442 1092,442 1092,442 1092,440 1093,440 1093,439 1093,439 1093,438 1094,438 1094,438 1095,438 1095,437 1095,437 1095,436 1096,436 1096,433 1096,433 1096,433 1097,433 1097,432 1097,432 1097,431 1098,431 1098,430 1099,430 1099,428 1099,428 1099,428 1100,428 1100,427 1100,427 1100,426 1101,426 1101,426 1101,426 1101,425 1102,425 1102,423 1102,423 1102,422 1103,422 1103,421 1104,421 1104,419 1104,419 1104,418 1105,418 1105,417 1105,417 1105,416 1106,416 1106,415 1106,415 1106,415 1107,415 1107,415 1108,415 1108,413 1108,413 1108,412 1109,412 1109,411 1109,411 1109,410 1110,408 1110,408 1110,408 1111,408 1111,406 1111,406 1111,406 1112,406 1112,405 1113,405 1113,404 1113,404 1113,403 1114,403 1114,403 1114,403 1114,402 1115,402 1115,402 1115,402 1115,401 1116,401 1116,400 1116,400 1116,400 1117,399 1117,398 1118,398 1118,397 1118,397 1118,396 1119,396 1119,396 1119,396 1119,395 1120,395 1120,394 1120,394 1120,406 1121,405 1122,405 1122,404 1122,404 1122,404 1123,404 1123,403 1123,403 1123,402 1124,401 1124,401 1124,401 1125,401 1125,399 1125,399 1125,399 1126,399 1126,398 1127,398 1127,398 1127,398 1127,397 1128,397 1128,397 1128,397 1128,396 1129,396 1129,395 1129,395 1129,395 1130,395 1130,394 1131,394 1131,393 1131,393 1131,393 1132,393 1132,392 1132,392 1132,392 1133,392 1133,391 1133,391 1133,391 1134,391 1134,390 1134,390 1134,389 1135,389 1135,389 1136,388 1136,388 1136,388 1136,388 1137,388 1137,388 1137,388 1137,387 1138,387 1138,386 1138,386 1138,386 1139,386 1139,385 1140,384 1140,382 1140,382 1140,380 1141,380 1141,381 1141,380 1141,380 1142,380 1142,378 1142,378 1142,377 1143,377 1143,375 1143,375 1143,374 1144,373 1145,373 1145,372 1145,372 1145,371 1146,371 1146,371 1146,371 1146,370 1147,370 1147,369 1147,369 1147,369 1148,369 1148,369 1149,369 1149,368 1149,368 1149,366 1150,366 1150,366 1150,366 1150,365 1151,365 1151,363 1151,363 1151,362 1152,362 1152,361 1152,361 1152,360 1153,360 1153,358 1154,358 1154,357 1154,357 1154,356 1155,356 1155,356 1155,356 1155,354 1156,354 1156,353 1156,353 1156,352 1157,353 1157,352 1157,352 1157,352 1158,352 1158,350 1159,350 1159,350 1159,350 1159,349 1160,349 1160,348 1160,348 1160,347 1161,345 1161,344 1161,344 1161,343 1162,343 1162,343 1163,343 1163,342 1163,342 1163,341 1164,341 1164,334 1164,334 1164,333 1165,333 1165,331 1165,331 1165,331 1166,331 1166,329 1166,329 1166,328 1167,328 1167,329 1168,328 1168,327 1168,327 1168,326 1169,326 1169,324 1169,324 1169,323 1170,323 1170,323 1170,323 1170,322 1171,322 1171,320 1172,320 1172,320 1172,320 1172,320 1173,320 1173,319 1173,319 1173,318 1174,318 1174,316 1174,316 1175,316 1175,315 1175,315 1175,313 1176,313 1176,311 1177,311 1177,311 1177,311 1177,311 1178,310 1178,309 1178,309 1178,310 1179,310 1179,309 1179,309 1179,308 1180,308 1180,308 1181,308 1181,306 1181,306 1181,305 1182,305 1182,305 1182,305 1182,305 1183,305 1183,305 1183,305 1183,304 1184,304 1184,303 1184,303 1184,303 1185,303 1185,302 1186,302 1186,301 1186,300 1187,300 1187,299 1187,299 1187,299 1188,299 1188,298 1188,298 1188,298 1189,298 1189,297 1190,297 "/>
<rect x="65" y="315" width="107" height="119" opacity="1" fill="#FFFFFF" stroke="none"/>
<rect x="65" y="315" width="107" height="119" opacity="1" fill="none" stroke="#000000"/>
<text x="105" y="325" dy="0.76em" text-anchor="start" font-family="sans-serif" font-size="9.67741935483871" opacity="1" fill="#000000">
anyhow
</text>
<text x="105" y="340" dy="0.76em" text-anchor="start" font-family="sans-serif" font-size="9.67741935483871" opacity="1" fill="#000000">
err-derive
</text>
<text x="105" y="355" dy="0.76em" text-anchor="start" font-family="sans-serif" font-size="9.67741935483871" opacity="1" fill="#000000">
error-chain
</text>
<text x="105" y="370" dy="0.76em" text-anchor="start" font-family="sans-serif" font-size="9.67741935483871" opacity="1" fill="#000000">
failure
</text>
<text x="105" y="385" dy="0.76em" text-anchor="start" font-family="sans-serif" font-size="9.67741935483871" opacity="1" fill="#000000">
quick-error
</text>
<text x="105" y="400" dy="0.76em" text-anchor="start" font-family="sans-serif" font-size="9.67741935483871" opacity="1" fill="#000000">
snafu
</text>
<text x="105" y="415" dy="0.76em" text-anchor="start" font-family="sans-serif" font-size="9.67741935483871" opacity="1" fill="#000000">
thiserror
</text>
<polyline fill="none" opacity="1" stroke="#E61919" stroke-width="2" points="75,330 95,330 "/>
<polyline fill="none" opacity="1" stroke="#E6C819" stroke-width="2" points="75,344 95,344 "/>
<polyline fill="none" opacity="1" stroke="#54E619" stroke-width="2" points="75,359 95,359 "/>
<polyline fill="none" opacity="1" stroke="#19E68E" stroke-width="2" points="75,374 95,374 "/>
<polyline fill="none" opacity="1" stroke="#198EE6" stroke-width="2" points="75,390 95,390 "/>
<polyline fill="none" opacity="1" stroke="#5419E6" stroke-width="2" points="75,404 95,404 "/>
<polyline fill="none" opacity="1" stroke="#E619C8" stroke-width="2" points="75,419 95,419 "/>
</svg>
