<svg width="1200" height="800" xmlns="http://www.w3.org/2000/svg">
<rect x="0" y="0" width="1199" height="799" opacity="1" fill="#FFFFFF" stroke="none"/>
<line opacity="0.1" stroke="#000000" stroke-width="1" x1="60" y1="726" x2="1190" y2="726"/>
<line opacity="0.1" stroke="#000000" stroke-width="1" x1="60" y1="712" x2="1190" y2="712"/>
<line opacity="0.1" stroke="#000000" stroke-width="1" x1="60" y1="698" x2="1190" y2="698"/>
<line opacity="0.1" stroke="#000000" stroke-width="1" x1="60" y1="684" x2="1190" y2="684"/>
<line opacity="0.1" stroke="#000000" stroke-width="1" x1="60" y1="670" x2="1190" y2="670"/>
<line opacity="0.1" stroke="#000000" stroke-width="1" x1="60" y1="656" x2="1190" y2="656"/>
<line opacity="0.1" stroke="#000000" stroke-width="1" x1="60" y1="642" x2="1190" y2="642"/>
<line opacity="0.1" stroke="#000000" stroke-width="1" x1="60" y1="628" x2="1190" y2="628"/>
<line opacity="0.1" stroke="#000000" stroke-width="1" x1="60" y1="614" x2="1190" y2="614"/>
<line opacity="0.1" stroke="#000000" stroke-width="1" x1="60" y1="600" x2="1190" y2="600"/>
<line opacity="0.1" stroke="#000000" stroke-width="1" x1="60" y1="586" x2="1190" y2="586"/>
<line opacity="0.1" stroke="#000000" stroke-width="1" x1="60" y1="573" x2="1190" y2="573"/>
<line opacity="0.1" stroke="#000000" stroke-width="1" x1="60" y1="559" x2="1190" y2="559"/>
<line opacity="0.1" stroke="#000000" stroke-width="1" x1="60" y1="545" x2="1190" y2="545"/>
<line opacity="0.1" stroke="#000000" stroke-width="1" x1="60" y1="531" x2="1190" y2="531"/>
<line opacity="0.1" stroke="#000000" stroke-width="1" x1="60" y1="517" x2="1190" y2="517"/>
<line opacity="0.1" stroke="#000000" stroke-width="1" x1="60" y1="503" x2="1190" y2="503"/>
<line opacity="0.1" stroke="#000000" stroke-width="1" x1="60" y1="489" x2="1190" y2="489"/>
<line opacity="0.1" stroke="#000000" stroke-width="1" x1="60" y1="475" x2="1190" y2="475"/>
<line opacity="0.1" stroke="#000000" stroke-width="1" x1="60" y1="461" x2="1190" y2="461"/>
<line opacity="0.1" stroke="#000000" stroke-width="1" x1="60" y1="447" x2="1190" y2="447"/>
<line opacity="0.1" stroke="#000000" stroke-width="1" x1="60" y1="433" x2="1190" y2="433"/>
<line opacity="0.1" stroke="#000000" stroke-width="1" x1="60" y1="419" x2="1190" y2="419"/>
<line opacity="0.1" stroke="#000000" stroke-width="1" x1="60" y1="405" x2="1190" y2="405"/>
<line opacity="0.1" stroke="#000000" stroke-width="1" x1="60" y1="391" x2="1190" y2="391"/>
<line opacity="0.1" stroke="#000000" stroke-width="1" x1="60" y1="377" x2="1190" y2="377"/>
<line opacity="0.1" stroke="#000000" stroke-width="1" x1="60" y1="363" x2="1190" y2="363"/>
<line opacity="0.1" stroke="#000000" stroke-width="1" x1="60" y1="350" x2="1190" y2="350"/>
<line opacity="0.1" stroke="#000000" stroke-width="1" x1="60" y1="336" x2="1190" y2="336"/>
<line opacity="0.1" stroke="#000000" stroke-width="1" x1="60" y1="322" x2="1190" y2="322"/>
<line opacity="0.1" stroke="#000000" stroke-width="1" x1="60" y1="308" x2="1190" y2="308"/>
<line opacity="0.1" stroke="#000000" stroke-width="1" x1="60" y1="294" x2="1190" y2="294"/>
<line opacity="0.1" stroke="#000000" stroke-width="1" x1="60" y1="280" x2="1190" y2="280"/>
<line opacity="0.1" stroke="#000000" stroke-width="1" x1="60" y1="266" x2="1190" y2="266"/>
<line opacity="0.1" stroke="#000000" stroke-width="1" x1="60" y1="252" x2="1190" y2="252"/>
<line opacity="0.1" stroke="#000000" stroke-width="1" x1="60" y1="238" x2="1190" y2="238"/>
<line opacity="0.1" stroke="#000000" stroke-width="1" x1="60" y1="224" x2="1190" y2="224"/>
<line opacity="0.1" stroke="#000000" stroke-width="1" x1="60" y1="210" x2="1190" y2="210"/>
<line opacity="0.1" stroke="#000000" stroke-width="1" x1="60" y1="196" x2="1190" y2="196"/>
<line opacity="0.1" stroke="#000000" stroke-width="1" x1="60" y1="182" x2="1190" y2="182"/>
<line opacity="0.1" stroke="#000000" stroke-width="1" x1="60" y1="168" x2="1190" y2="168"/>
<line opacity="0.1" stroke="#000000" stroke-width="1" x1="60" y1="154" x2="1190" y2="154"/>
<line opacity="0.1" stroke="#000000" stroke-width="1" x1="60" y1="140" x2="1190" y2="140"/>
<line opacity="0.1" stroke="#000000" stroke-width="1" x1="60" y1="127" x2="1190" y2="127"/>
<line opacity="0.1" stroke="#000000" stroke-width="1" x1="60" y1="113" x2="1190" y2="113"/>
<line opacity="0.1" stroke="#000000" stroke-width="1" x1="60" y1="99" x2="1190" y2="99"/>
<line opacity="0.1" stroke="#000000" stroke-width="1" x1="60" y1="85" x2="1190" y2="85"/>
<line opacity="0.1" stroke="#000000" stroke-width="1" x1="60" y1="71" x2="1190" y2="71"/>
<line opacity="0.1" stroke="#000000" stroke-width="1" x1="60" y1="57" x2="1190" y2="57"/>
<line opacity="0.1" stroke="#000000" stroke-width="1" x1="60" y1="43" x2="1190" y2="43"/>
<line opacity="0.1" stroke="#000000" stroke-width="1" x1="60" y1="29" x2="1190" y2="29"/>
<line opacity="0.1" stroke="#000000" stroke-width="1" x1="60" y1="15" x2="1190" y2="15"/>
<text x="10" y="375" dy="0.76em" text-anchor="middle" font-family="sans-serif" font-size="9.67741935483871" opacity="1" fill="#000000" transform="rotate(270, 10, 375)">
Number of dependent crates
</text>
<line opacity="0.2" stroke="#000000" stroke-width="1" x1="60" y1="670" x2="1190" y2="670"/>
<line opacity="0.2" stroke="#000000" stroke-width="1" x1="60" y1="600" x2="1190" y2="600"/>
<line opacity="0.2" stroke="#000000" stroke-width="1" x1="60" y1="531" x2="1190" y2="531"/>
<line opacity="0.2" stroke="#000000" stroke-width="1" x1="60" y1="461" x2="1190" y2="461"/>
<line opacity="0.2" stroke="#000000" stroke-width="1" x1="60" y1="391" x2="1190" y2="391"/>
<line opacity="0.2" stroke="#000000" stroke-width="1" x1="60" y1="322" x2="1190" y2="322"/>
<line opacity="0.2" stroke="#000000" stroke-width="1" x1="60" y1="252" x2="1190" y2="252"/>
<line opacity="0.2" stroke="#000000" stroke-width="1" x1="60" y1="182" x2="1190" y2="182"/>
<line opacity="0.2" stroke="#000000" stroke-width="1" x1="60" y1="113" x2="1190" y2="113"/>
<line opacity="0.2" stroke="#000000" stroke-width="1" x1="60" y1="43" x2="1190" y2="43"/>
<polyline fill="none" opacity="1" stroke="#000000" stroke-width="1" points="59,10 59,740 "/>
<text x="50" y="670" dy="0.5ex" text-anchor="end" font-family="sans-serif" font-size="9.67741935483871" opacity="1" fill="#000000">
50
</text>
<polyline fill="none" opacity="1" stroke="#000000" stroke-width="1" points="54,670 59,670 "/>
<text x="50" y="600" dy="0.5ex" text-anchor="end" font-family="sans-serif" font-size="9.67741935483871" opacity="1" fill="#000000">
100
</text>
<polyline fill="none" opacity="1" stroke="#000000" stroke-width="1" points="54,600 59,600 "/>
<text x="50" y="531" dy="0.5ex" text-anchor="end" font-family="sans-serif" font-size="9.67741935483871" opacity="1" fill="#000000">
150
</text>
<polyline fill="none" opacity="1" stroke="#000000" stroke-width="1" points="54,531 59,531 "/>
<text x="50" y="461" dy="0.5ex" text-anchor="end" font-family="sans-serif" font-size="9.67741935483871" opacity="1" fill="#000000">
200
</text>
<polyline fill="none" opacity="1" stroke="#000000" stroke-width="1" points="54,461 59,461 "/>
<text x="50" y="391" dy="0.5ex" text-anchor="end" font-family="sans-serif" font-size="9.67741935483871" opacity="1" fill="#000000">
250
</text>
<polyline fill="none" opacity="1" stroke="#000000" stroke-width="1" points="54,391 59,391 "/>
<text x="50" y="322" dy="0.5ex" text-anchor="end" font-family="sans-serif" font-size="9.67741935483871" opacity="1" fill="#000000">
300
</text>
<polyline fill="none" opacity="1" stroke="#000000" stroke-width="1" points="54,322 59,322 "/>
<text x="50" y="252" dy="0.5ex" text-anchor="end" font-family="sans-serif" font-size="9.67741935483871" opacity="1" fill="#000000">
350
</text>
<polyline fill="none" opacity="1" stroke="#000000" stroke-width="1" points="54,252 59,252 "/>
<text x="50" y="182" dy="0.5ex" text-anchor="end" font-family="sans-serif" font-size="9.67741935483871" opacity="1" fill="#000000">
400
</text>
<polyline fill="none" opacity="1" stroke="#000000" stroke-width="1" points="54,182 59,182 "/>
<text x="50" y="113" dy="0.5ex" text-anchor="end" font-family="sans-serif" font-size="9.67741935483871" opacity="1" fill="#000000">
450
</text>
<polyline fill="none" opacity="1" stroke="#000000" stroke-width="1" points="54,113 59,113 "/>
<text x="50" y="43" dy="0.5ex" text-anchor="end" font-family="sans-serif" font-size="9.67741935483871" opacity="1" fill="#000000">
500
</text>
<polyline fill="none" opacity="1" stroke="#000000" stroke-width="1" points="54,43 59,43 "/>
<polyline fill="none" opacity="1" stroke="#000000" stroke-width="1" points="60,740 1190,740 "/>
<text x="60" y="750" dy="0.76em" text-anchor="middle" font-family="sans-serif" font-size="9.67741935483871" opacity="1" fill="#000000">
2015-01-27Z
</text>
<polyline fill="none" opacity="1" stroke="#000000" stroke-width="1" points="60,740 60,745 "/>
<text x="173" y="750" dy="0.76em" text-anchor="middle" font-family="sans-serif" font-size="9.67741935483871" opacity="1" fill="#000000">
2015-08-18Z
</text>
<polyline fill="none" opacity="1" stroke="#000000" stroke-width="1" points="173,740 173,745 "/>
<text x="287" y="750" dy="0.76em" text-anchor="middle" font-family="sans-serif" font-size="9.67741935483871" opacity="1" fill="#000000">
2016-03-08Z
</text>
<polyline fill="none" opacity="1" stroke="#000000" stroke-width="1" points="287,740 287,745 "/>
<text x="401" y="750" dy="0.76em" text-anchor="middle" font-family="sans-serif" font-size="9.67741935483871" opacity="1" fill="#000000">
2016-09-27Z
</text>
<polyline fill="none" opacity="1" stroke="#000000" stroke-width="1" points="401,740 401,745 "/>
<text x="515" y="750" dy="0.76em" text-anchor="middle" font-family="sans-serif" font-size="9.67741935483871" opacity="1" fill="#000000">
2017-04-18Z
</text>
<polyline fill="none" opacity="1" stroke="#000000" stroke-width="1" points="515,740 515,745 "/>
<text x="629" y="750" dy="0.76em" text-anchor="middle" font-family="sans-serif" font-size="9.67741935483871" opacity="1" fill="#000000">
2017-11-07Z
</text>
<polyline fill="none" opacity="1" stroke="#000000" stroke-width="1" points="629,740 629,745 "/>
<text x="743" y="750" dy="0.76em" text-anchor="middle" font-family="sans-serif" font-size="9.67741935483871" opacity="1" fill="#000000">
2018-05-29Z
</text>
<polyline fill="none" opacity="1" stroke="#000000" stroke-width="1" points="743,740 743,745 "/>
<text x="857" y="750" dy="0.76em" text-anchor="middle" font-family="sans-serif" font-size="9.67741935483871" opacity="1" fill="#000000">
2018-12-18Z
</text>
<polyline fill="none" opacity="1" stroke="#000000" stroke-width="1" points="857,740 857,745 "/>
<text x="971" y="750" dy="0.76em" text-anchor="middle" font-family="sans-serif" font-size="9.67741935483871" opacity="1" fill="#000000">
2019-07-09Z
</text>
<polyline fill="none" opacity="1" stroke="#000000" stroke-width="1" points="971,740 971,745 "/>
<text x="1085" y="750" dy="0.76em" text-anchor="middle" font-family="sans-serif" font-size="9.67741935483871" opacity="1" fill="#000000">
2020-01-28Z
</text>
<polyline fill="none" opacity="1" stroke="#000000" stroke-width="1" points="1085,740 1085,745 "/>
<polyline fill="none" opacity="1" stroke="#E61919" stroke-width="2" points="115,738 122,737 126,737 132,736 134,736 134,734 135,734 137,734 137,734 140,734 141,734 141,734 142,734 143,733 144,733 146,733 149,733 159,733 167,733 168,733 171,733 173,734 177,734 178,734 178,734 179,734 181,734 188,734 192,734 197,734 201,734 203,733 205,733 207,733 209,733 210,731 210,731 212,730 213,730 213,730 216,730 217,730 217,727 218,727 218,727 219,727 220,727 221,727 221,727 222,726 223,724 224,724 225,724 226,724 227,724 227,724 228,724 230,724 231,724 232,724 233,724 233,724 234,724 236,724 237,724 238,724 238,724 239,724 240,723 241,723 242,723 247,723 247,723 248,723 249,723 250,722 250,722 251,720 251,720 253,720 254,720 254,719 255,719 255,717 256,717 256,717 257,717 258,716 260,716 260,716 261,716 261,716 262,716 263,716 263,716 264,716 264,716 266,715 267,715 267,715 268,715 268,715 270,715 271,715 272,715 273,715 274,715 274,715 275,715 277,715 277,713 278,713 279,713 279,713 280,713 281,713 282,713 282,713 283,713 283,713 284,713 284,713 286,713 286,713 287,713 287,713 288,713 288,713 289,713 290,712 291,712 291,712 292,712 293,712 294,712 295,712 295,712 297,712 297,712 298,712 299,712 300,712 300,712 301,712 301,712 302,712 302,712 304,712 305,712 305,712 306,710 307,710 308,710 309,710 309,709 310,709 310,709 311,708 311,708 312,708 313,708 313,708 314,708 314,708 315,708 315,708 316,708 318,708 319,708 319,708 320,708 321,708 322,708 322,708 323,708 323,708 324,708 324,708 325,708 325,708 326,708 327,708 327,708 328,708 328,708 329,708 329,708 331,708 332,708 332,708 333,708 333,708 334,708 337,708 337,708 338,708 338,708 339,708 339,708 340,708 341,708 341,708 342,708 342,708 343,708 343,708 344,708 345,708 345,708 346,706 346,705 347,704 347,702 348,702 348,702 349,702 350,702 350,702 351,702 351,702 352,702 352,702 353,702 354,702 354,702 355,702 355,702 356,701 356,701 357,699 357,699 358,699 359,699 359,699 360,699 360,699 361,698 362,698 362,698 363,698 364,698 364,698 365,698 366,698 368,698 369,698 369,697 370,697 370,697 371,697 372,697 373,695 374,694 374,692 375,691 375,691 378,691 378,691 379,690 380,690 380,690 381,690 383,690 383,688 384,688 385,688 385,688 386,688 387,687 387,687 388,687 388,688 389,688 389,688 390,688 391,687 392,687 393,687 394,687 394,687 395,687 396,687 396,687 397,687 398,687 398,687 399,687 400,685 400,685 401,684 401,683 402,681 402,683 403,683 403,683 404,683 405,683 405,683 406,683 406,683 407,683 407,683 408,683 408,683 409,683 410,681 410,681 411,681 411,681 412,681 412,681 413,681 414,681 415,681 416,677 416,677 417,676 417,676 418,676 419,676 419,674 420,674 420,673 421,673 421,673 422,673 423,673 424,673 424,673 425,673 425,673 426,673 426,673 427,671 428,671 428,671 429,671 429,673 430,673 430,673 431,673 431,673 432,673 433,673 433,673 434,673 434,673 435,673 435,673 436,673 437,673 437,673 438,673 438,671 439,671 440,670 440,670 441,670 442,670 442,670 443,670 445,670 446,670 446,669 447,669 447,669 448,669 448,669 449,667 449,667 450,667 451,667 451,667 452,667 452,667 453,667 453,666 454,666 454,664 455,664 456,664 456,663 457,662 457,663 458,663 458,663 459,663 460,663 460,663 461,663 462,663 462,663 463,662 463,662 464,662 465,662 465,662 466,662 466,662 467,662 467,662 468,660 469,660 469,660 470,660 470,660 471,660 471,660 472,659 472,659 473,659 474,659 474,659 475,659 475,658 476,658 476,658 477,656 477,656 478,655 479,655 479,655 480,653 480,653 481,653 481,653 482,652 483,651 483,651 484,651 484,651 485,651 485,651 486,651 486,651 487,649 488,648 488,648 489,648 489,648 490,648 490,648 491,646 492,646 492,646 493,646 493,646 494,645 494,645 495,645 495,645 496,645 497,645 497,645 498,645 498,645 499,646 499,645 500,645 501,645 501,645 502,644 502,644 503,644 503,644 504,644 504,644 505,644 506,644 506,642 507,642 507,642 508,641 508,638 509,638 509,638 510,638 511,638 511,639 512,639 512,639 513,639 513,639 514,639 515,639 515,639 516,639 516,639 517,639 517,639 518,639 518,639 519,639 520,639 520,639 521,639 521,639 522,638 522,637 523,635 524,635 524,634 525,634 525,634 526,634 526,634 527,634 527,632 528,632 529,632 529,632 530,632 530,632 531,632 531,631 532,631 532,631 533,631 534,632 534,631 535,631 535,630 536,630 536,630 537,630 538,630 538,628 539,628 539,630 540,628 540,628 541,628 541,628 542,628 543,627 543,627 544,627 544,627 545,627 545,627 546,627 547,627 547,627 548,627 548,627 549,627 549,627 550,627 550,627 551,627 552,627 552,627 553,627 553,627 554,627 554,627 555,627 555,627 556,627 557,627 557,627 558,627 558,627 559,627 559,627 560,624 561,624 561,624 562,627 562,627 563,627 563,627 564,627 564,627 565,625 566,624 566,624 567,624 567,624 568,624 568,624 569,624 570,624 570,624 571,624 571,624 572,624 572,624 573,624 573,624 574,624 575,624 575,624 576,624 576,624 577,624 577,624 578,624 578,623 579,621 580,621 580,621 581,620 581,620 582,619 582,619 583,619 584,619 584,619 585,619 585,619 586,619 586,619 587,619 587,619 588,619 589,619 589,617 590,616 590,616 591,616 591,616 592,616 593,614 593,614 594,614 594,614 595,614 595,614 596,613 596,613 597,613 598,610 598,609 599,610 599,609 600,606 600,606 601,606 601,606 602,606 603,606 603,606 604,607 604,607 605,607 605,607 606,607 607,607 607,607 608,606 608,606 609,606 609,606 610,606 610,606 611,606 612,606 612,606 613,606 613,606 614,606 614,606 615,605 616,605 617,605 617,605 618,605 618,605 619,603 619,603 620,602 621,602 621,602 622,600 622,600 623,600 623,600 624,600 625,598 625,598 626,598 626,596 627,596 627,596 628,596 628,596 629,595 630,593 630,593 631,592 631,592 632,592 632,592 633,592 633,592 634,592 635,591 635,589 636,589 636,589 637,589 637,589 638,589 639,589 639,589 640,589 640,589 641,589 641,591 642,591 642,591 643,589 644,589 644,589 645,589 645,589 646,588 646,588 647,588 648,588 648,588 649,588 649,588 650,588 650,588 651,588 651,585 652,585 653,585 653,585 654,585 654,585 655,585 655,585 656,585 656,585 657,585 658,585 658,585 659,584 659,584 660,584 660,584 661,584 662,584 662,582 663,582 663,582 664,582 664,582 665,581 665,581 666,581 667,579 667,579 668,578 668,578 669,577 669,578 670,578 671,578 671,578 672,578 672,578 673,578 673,578 674,578 674,578 675,579 676,579 676,579 677,579 677,579 678,579 678,578 679,578 679,575 680,575 681,575 681,574 682,574 682,573 683,573 683,573 684,573 685,574 685,574 686,573 686,573 687,573 687,573 688,573 688,573 689,573 690,573 690,573 691,573 691,573 692,573 692,571 693,570 694,570 694,570 695,570 695,570 696,568 696,570 697,568 697,568 698,568 699,568 699,568 700,568 700,568 701,568 701,568 702,568 702,567 703,567 704,567 704,566 705,564 705,564 706,564 706,563 707,563 708,561 708,561 709,561 709,560 710,560 710,560 711,560 711,561 712,561 713,561 713,561 714,561 714,561 715,561 715,561 716,561 717,561 717,561 718,561 718,563 719,563 719,563 720,561 720,561 721,561 722,561 722,560 723,560 723,560 724,557 724,557 725,557 725,557 726,557 727,557 727,557 728,556 728,556 729,556 729,556 730,556 731,556 731,556 732,556 732,556 733,556 733,556 734,556 734,556 736,556 736,556 737,556 737,556 738,556 738,556 739,554 740,554 740,553 741,553 741,553 742,552 742,552 743,553 743,553 744,553 745,550 745,550 746,549 746,549 747,549 747,547 748,547 748,547 749,547 750,547 750,547 751,547 751,546 752,546 752,546 753,546 754,546 754,546 755,546 755,546 756,546 756,546 757,546 757,543 758,543 759,543 759,543 760,543 760,543 761,543 761,543 762,543 763,543 763,543 764,543 764,543 765,543 765,543 766,542 766,542 767,540 768,540 768,540 769,540 769,540 770,540 770,540 771,539 772,536 772,536 773,536 773,536 774,536 774,536 775,536 775,536 776,536 777,536 777,536 778,536 778,536 779,536 779,536 780,536 780,538 781,538 782,536 782,536 783,536 783,536 784,536 784,536 785,536 786,536 786,536 787,536 787,535 788,535 788,535 789,535 789,533 790,532 791,532 791,532 792,532 792,532 793,532 793,532 794,532 795,532 795,532 796,532 796,532 797,532 797,532 798,532 798,532 799,531 800,531 800,531 801,529 801,529 802,529 802,529 803,529 803,529 804,529 805,529 805,529 806,529 806,529 807,529 807,529 808,529 809,529 809,529 810,528 810,528 810,528 811,528 811,528 812,528 812,527 813,527 814,527 814,527 815,525 815,525 816,525 816,524 817,524 818,524 818,522 819,522 819,522 820,522 820,521 821,521 821,521 822,520 823,520 823,520 824,518 824,518 825,517 825,517 826,517 826,517 827,517 828,517 828,515 829,515 829,515 830,515 830,515 831,515 832,515 832,515 833,515 833,514 834,514 834,514 835,514 835,514 836,514 837,514 837,514 838,513 838,513 839,513 839,511 840,511 841,511 841,511 842,510 842,510 843,510 843,508 844,507 844,507 845,507 846,506 846,503 847,503 847,503 848,503 848,503 849,503 849,503 850,503 851,500 851,500 852,499 852,499 853,497 853,496 854,496 855,496 855,496 856,496 856,494 857,493 857,493 858,493 858,493 859,493 860,493 860,493 861,493 861,493 862,493 862,493 863,493 864,493 864,493 865,493 865,490 866,490 866,489 867,488 867,488 868,486 869,486 869,486 870,485 870,485 871,485 871,485 872,483 872,483 873,483 874,482 874,482 875,481 875,481 876,481 876,481 877,481 878,479 878,479 879,479 879,479 880,479 880,478 881,478 881,478 882,478 883,478 883,476 884,476 884,475 885,475 885,475 886,475 887,475 887,475 888,475 888,475 889,475 889,475 890,474 890,474 891,474 892,474 892,474 893,474 893,474 894,474 894,474 895,474 895,474 896,472 897,472 897,472 898,472 898,472 899,472 899,472 900,472 901,471 901,471 902,468 902,468 903,468 903,468 904,468 904,468 905,468 906,468 906,467 907,465 907,464 908,464 908,464 909,464 910,464 910,464 911,462 911,462 912,462 912,462 913,462 913,462 914,462 915,462 915,462 916,462 916,460 917,460 917,460 918,460 919,460 919,458 920,458 920,458 921,458 921,458 922,458 922,458 923,457 924,457 924,457 925,457 925,457 926,457 926,457 927,455 927,455 928,455 929,455 929,454 930,453 930,453 931,453 931,453 932,453 933,451 933,451 934,451 934,451 935,451 935,451 936,451 936,451 937,451 938,451 938,451 939,450 939,450 940,450 940,446 941,446 942,446 942,446 943,444 943,444 944,444 944,443 945,443 945,443 946,443 947,443 947,443 948,443 948,442 949,442 949,442 950,442 950,442 951,442 952,442 952,440 953,437 953,437 954,437 954,437 955,437 956,436 956,436 957,436 957,436 958,436 958,436 959,436 959,436 960,436 961,436 961,436 962,436 962,436 963,436 963,436 964,436 965,432 965,432 966,432 966,432 967,432 967,432 968,432 968,432 969,432 970,429 970,429 971,429 971,429 972,428 972,428 973,428 973,428 974,428 975,428 975,426 976,426 976,425 977,425 977,425 978,425 979,425 979,425 980,425 980,425 981,425 981,423 982,423 982,422 983,422 984,422 984,422 985,422 985,422 986,422 986,422 987,422 988,421 988,421 989,421 989,421 990,421 990,421 991,421 991,421 992,421 993,421 993,419 994,419 994,419 995,419 995,418 996,416 996,416 997,416 998,416 998,416 999,416 999,416 1000,416 1000,416 1001,415 1002,415 1002,414 1003,416 1003,416 1004,416 1004,416 1005,415 1005,415 1006,414 1007,412 1007,412 1008,412 1008,411 1009,411 1009,411 1010,409 1011,409 1011,404 1012,404 1012,402 1013,402 1013,402 1014,404 1014,404 1015,404 1016,402 1016,401 1017,401 1017,400 1018,400 1018,400 1019,400 1019,398 1020,397 1021,397 1021,396 1022,396 1022,400 1023,400 1023,398 1024,400 1025,400 1025,400 1026,400 1026,400 1027,400 1027,400 1027,400 1028,400 1028,400 1029,400 1030,400 1030,400 1031,400 1031,400 1032,398 1032,397 1033,394 1034,394 1034,394 1035,394 1035,394 1036,394 1036,394 1037,394 1037,394 1038,394 1039,393 1039,393 1040,393 1040,393 1041,393 1041,393 1042,393 1042,391 1043,391 1044,391 1044,391 1045,391 1045,391 1046,391 1046,391 1047,391 1048,391 1048,391 1049,391 1049,391 1050,391 1050,391 1051,390 1051,389 1052,389 1053,387 1053,386 1054,383 1054,383 1055,383 1055,383 1056,383 1057,383 1057,383 1058,382 1058,382 1059,382 1059,382 1060,380 1060,380 1061,372 1062,372 1062,372 1063,372 1063,372 1064,372 1064,370 1065,370 1066,370 1066,370 1067,370 1067,370 1068,370 1068,369 1069,369 1069,369 1070,368 1071,368 1071,366 1072,366 1072,366 1073,366 1073,366 1074,365 1074,365 1075,365 1076,365 1076,363 1077,363 1077,361 1078,361 1078,362 1079,362 1080,362 1080,361 1081,361 1081,361 1082,362 1082,362 1083,362 1083,362 1084,362 1085,362 1085,362 1086,362 1086,361 1087,361 1087,358 1088,356 1089,356 1089,356 1090,356 1090,356 1091,356 1091,356 1092,355 1092,355 1093,354 1094,354 1094,354 1095,354 1095,351 1096,351 1096,352 1097,352 1097,352 1098,352 1099,352 1099,352 1100,352 1100,352 1101,352 1101,350 1102,350 1103,351 1103,350 1104,348 1104,347 1105,347 1105,347 1106,347 1106,347 1106,347 1106,347 1107,347 1108,347 1108,347 1108,347 1108,347 1109,347 1109,347 1109,347 1110,347 1110,347 1110,347 1110,347 1111,347 1111,345 1112,345 1112,344 1112,344 1112,343 1113,343 1113,343 1113,343 1113,343 1114,343 1114,343 1114,343 1114,341 1115,341 1115,341 1115,340 1116,340 1117,340 1117,340 1117,340 1117,338 1118,338 1118,338 1118,338 1118,338 1119,338 1119,337 1119,337 1119,337 1120,336 1120,336 1120,336 1121,336 1121,336 1122,336 1122,336 1122,336 1122,336 1123,336 1123,336 1123,336 1123,336 1124,336 1124,336 1124,336 1124,336 1125,336 1125,336 1126,336 1126,336 1126,336 1127,336 1127,336 1127,336 1127,336 1128,336 1128,337 1128,337 1128,337 1129,337 1129,336 1129,336 1129,336 1130,336 1130,336 1131,336 1131,336 1131,336 1131,336 1132,336 1132,336 1132,334 1133,333 1133,333 1133,331 1134,331 1134,330 1135,330 1135,329 1135,329 1135,329 1136,329 1136,326 1136,326 1136,323 1137,323 1137,322 1137,322 1137,319 1138,319 1138,319 1138,320 1139,320 1139,320 1140,320 1140,320 1140,320 1140,319 1141,319 1141,317 1141,317 1141,316 1142,316 1142,316 1142,316 1143,316 1143,313 1143,313 1143,311 1144,311 1144,311 1145,311 1145,311 1145,311 1145,309 1146,309 1146,309 1146,309 1146,308 1147,308 1147,306 1147,306 1147,306 1148,306 1148,306 1149,306 1149,306 1149,306 1149,305 1150,305 1150,305 1150,305 1150,305 1151,305 1151,298 1151,298 1151,297 1152,297 1152,295 1152,295 1153,295 1153,295 1154,295 1154,295 1154,295 1154,295 1155,295 1155,294 1155,294 1155,294 1156,294 1156,294 1156,294 1156,294 1157,294 1157,292 1158,292 1158,292 1158,290 1159,290 1159,290 1159,290 1159,291 1160,291 1160,290 1160,290 1160,288 1161,288 1161,288 1161,288 1162,287 1163,287 1163,287 1163,287 1164,287 1164,287 1164,287 1164,287 1165,287 1165,285 1165,285 1165,284 1166,284 1166,284 1166,284 1166,283 1167,283 1167,283 1168,283 1168,283 1168,283 1168,281 1169,281 1169,281 1169,281 1170,281 1170,281 1170,281 1170,281 1171,281 1171,278 1172,278 1172,278 1172,278 1172,277 1173,277 1173,277 1173,277 1173,277 1174,277 1174,277 1174,277 1174,277 1175,277 1175,277 1175,277 1175,277 1176,277 1176,276 1177,276 1177,276 1177,276 1177,276 1178,276 1178,274 1178,274 1179,274 1179,274 1179,274 1179,271 1180,271 1180,271 1181,271 1181,271 1181,271 1181,271 1182,271 1182,271 1182,271 1182,271 1183,270 1183,270 1183,270 1184,270 1184,270 1184,270 1184,269 1185,269 1185,267 1186,267 1186,267 1186,267 1186,267 1187,267 1187,267 1187,267 1187,269 1188,269 1188,269 1188,269 1188,267 1189,267 1189,267 1190,267 "/>
<polyline fill="none" opacity="1" stroke="#E5E619" stroke-width="2" points="341,738 347,737 348,736 354,734 371,733 393,731 413,730 424,729 426,727 427,727 431,727 450,726 457,723 461,722 479,720 488,719 499,716 499,716 500,716 501,715 501,715 502,715 502,715 503,715 503,713 504,713 506,713 509,713 510,713 512,712 513,712 513,712 516,710 518,709 520,708 520,708 521,706 522,706 525,705 526,705 526,705 527,705 527,704 528,704 529,704 530,702 533,702 534,702 536,702 536,702 538,701 539,701 540,701 540,701 541,701 542,701 543,701 544,701 547,699 547,698 549,697 550,697 550,695 552,695 552,695 553,694 553,694 554,694 561,694 561,692 563,692 565,692 566,691 566,691 568,691 569,691 571,691 571,691 572,691 572,690 573,690 574,690 577,690 578,688 578,688 579,688 581,688 581,688 582,688 584,687 586,687 586,687 587,685 587,687 588,687 589,687 591,685 593,685 594,685 594,685 595,685 596,684 596,684 597,684 598,684 599,683 599,683 600,683 601,683 603,683 603,681 604,681 606,681 607,681 607,680 608,680 609,680 609,680 610,680 611,680 612,680 612,678 613,678 614,678 614,678 615,678 616,677 616,676 617,676 617,676 618,677 618,677 619,677 619,677 620,676 621,674 621,674 622,673 622,671 623,671 623,670 624,670 626,670 627,670 628,670 628,669 629,669 630,667 630,667 631,667 632,666 633,667 635,667 636,667 636,667 639,667 639,667 640,667 641,667 641,664 642,664 642,664 643,666 644,666 644,666 645,666 645,666 646,666 646,666 648,666 649,664 650,664 650,664 651,663 651,664 654,664 654,664 655,664 656,664 656,664 658,664 658,664 660,663 660,663 662,662 662,662 663,662 664,662 665,662 667,662 668,660 671,659 672,659 673,659 674,659 675,658 676,658 676,658 677,658 677,658 678,658 679,658 679,658 680,658 681,658 681,656 682,656 683,656 683,655 684,655 685,652 686,651 688,651 688,649 689,649 690,649 693,649 694,649 695,649 697,649 697,649 699,648 701,648 701,646 702,645 703,645 705,645 706,645 706,645 707,645 708,645 711,644 712,644 713,642 713,642 714,641 715,639 717,639 717,639 718,638 718,638 719,637 719,635 720,635 721,635 722,635 723,635 723,635 724,635 725,635 726,635 727,634 728,634 728,634 729,632 729,632 730,632 731,631 731,628 732,628 733,628 736,630 737,628 738,624 739,623 740,624 740,624 741,624 741,623 743,623 745,623 746,623 746,623 747,623 748,621 749,621 750,621 751,620 751,620 752,619 752,619 753,619 754,619 754,617 755,617 755,616 756,614 757,614 757,614 758,614 759,613 760,613 761,613 761,612 762,612 763,612 764,612 765,612 765,609 766,607 766,607 767,607 768,606 768,606 769,606 769,606 770,606 770,606 772,606 772,606 773,606 774,606 774,606 775,606 775,606 776,605 777,605 778,605 779,605 779,605 780,605 782,603 783,603 783,603 784,602 784,600 785,599 786,599 787,599 787,598 788,598 789,596 789,596 790,596 791,596 791,596 792,596 792,595 793,593 793,593 794,593 795,592 796,591 797,591 797,591 798,589 798,589 799,589 800,589 800,589 801,589 802,589 802,589 803,589 803,589 804,589 805,589 805,589 806,589 806,588 807,588 807,586 808,586 809,586 809,585 810,581 810,581 810,581 811,581 812,579 814,579 814,575 815,574 815,573 816,571 816,571 817,571 818,570 819,570 819,570 820,570 821,570 821,570 824,568 824,566 825,566 825,563 826,563 826,563 827,563 828,563 828,563 829,563 829,561 830,559 830,559 831,556 832,556 832,556 833,554 833,554 834,554 834,554 835,554 835,554 836,553 837,553 837,550 838,550 838,550 839,550 840,550 841,549 841,549 842,549 842,549 843,549 843,549 844,549 844,547 845,547 846,547 846,547 847,547 847,547 848,546 848,546 849,546 849,546 850,546 851,546 851,546 852,545 852,543 853,543 853,543 854,542 855,542 855,542 856,542 856,542 857,539 857,539 858,538 858,538 859,536 860,536 860,536 861,536 862,536 862,536 863,536 864,535 864,533 865,532 865,531 866,529 866,531 867,531 867,529 868,529 869,528 869,528 870,528 870,528 871,528 871,528 872,528 872,528 873,525 874,527 874,525 875,524 875,522 876,522 876,521 877,518 878,517 878,517 879,517 880,517 880,515 881,515 881,515 882,515 883,515 883,515 884,515 884,515 885,517 885,517 886,517 887,515 888,514 888,514 889,514 889,514 890,514 890,514 891,513 892,511 892,511 893,511 893,506 894,506 894,506 895,506 895,504 896,501 897,499 897,499 898,496 898,496 899,496 899,496 900,493 901,493 901,492 902,490 902,492 903,490 903,489 904,488 904,488 905,486 906,486 906,485 907,485 908,485 908,485 909,482 910,482 910,481 911,481 911,478 912,478 912,475 913,474 913,474 914,472 915,469 915,469 916,468 916,467 917,467 917,467 918,467 919,467 919,467 920,467 920,467 921,465 921,465 922,465 922,465 923,465 924,465 924,462 925,462 925,461 926,461 926,461 927,460 927,460 928,460 929,460 929,460 930,460 930,460 931,460 931,460 932,460 933,457 933,457 934,454 934,454 935,454 935,454 936,451 936,451 937,451 938,450 938,450 939,448 939,448 940,448 940,448 941,447 942,444 942,443 943,443 943,442 944,440 944,439 945,435 945,433 946,433 947,432 947,432 948,432 948,430 949,429 949,429 950,428 950,429 951,426 952,426 952,423 953,421 953,422 954,422 954,422 955,421 956,421 956,421 957,421 957,421 958,419 958,419 959,419 959,419 960,419 961,419 961,418 962,416 962,414 963,412 963,412 964,412 965,411 965,411 966,408 966,408 967,408 967,409 968,408 968,408 969,408 970,408 970,407 971,408 971,405 972,405 972,405 973,402 973,402 974,401 975,398 975,394 976,393 976,393 977,393 977,390 978,390 979,390 979,390 980,390 980,390 981,389 981,389 982,389 982,389 983,384 984,383 984,383 985,383 985,383 986,383 986,382 987,382 988,380 988,379 989,377 989,377 990,376 991,375 991,376 992,376 993,376 993,376 994,376 994,375 995,375 995,376 996,376 996,376 997,376 998,376 998,376 999,376 999,376 1000,375 1000,375 1001,375 1002,375 1002,375 1003,373 1003,373 1004,373 1004,373 1005,373 1005,373 1006,372 1007,372 1007,370 1008,370 1008,370 1009,370 1009,369 1010,370 1011,368 1011,368 1012,366 1012,366 1013,366 1013,366 1014,362 1014,358 1015,358 1016,358 1016,358 1017,358 1017,359 1018,358 1018,361 1019,361 1019,359 1020,359 1021,359 1021,358 1022,358 1022,358 1023,358 1023,356 1024,355 1025,355 1025,354 1026,352 1026,351 1027,351 1027,351 1027,350 1028,350 1028,350 1029,347 1030,347 1030,344 1031,341 1031,341 1032,341 1032,340 1033,340 1034,338 1034,340 1035,340 1035,340 1036,340 1036,336 1037,336 1037,336 1038,334 1039,334 1039,333 1040,333 1040,333 1041,333 1041,333 1042,333 1042,333 1043,333 1044,333 1044,333 1045,331 1045,331 1046,331 1046,330 1047,330 1048,329 1048,327 1049,327 1049,327 1050,327 1050,327 1051,327 1051,327 1052,327 1053,327 1053,327 1054,327 1054,326 1055,326 1055,323 1056,322 1057,322 1057,322 1058,320 1058,319 1059,317 1059,317 1060,317 1060,316 1061,315 1062,313 1062,313 1063,313 1063,313 1064,313 1064,312 1065,311 1066,311 1066,312 1067,311 1067,309 1068,309 1068,308 1069,308 1069,305 1070,305 1071,305 1071,302 1072,302 1072,301 1073,299 1073,297 1074,297 1074,297 1075,295 1076,295 1076,294 1077,294 1077,292 1078,292 1078,292 1079,292 1080,292 1080,291 1081,291 1081,291 1082,291 1082,290 1083,290 1083,290 1084,290 1085,290 1085,290 1086,288 1086,287 1087,287 1087,283 1088,283 1089,280 1089,280 1090,271 1090,269 1091,267 1091,265 1092,265 1092,263 1093,263 1094,263 1094,263 1095,262 1095,260 1096,256 1096,256 1097,256 1097,253 1098,255 1099,255 1099,255 1100,249 1100,249 1101,251 1101,251 1102,251 1103,248 1103,248 1104,246 1104,251 1105,251 1105,251 1106,249 1106,249 1106,249 1106,246 1107,246 1108,246 1108,246 1108,246 1108,246 1109,245 1109,245 1109,242 1110,242 1110,241 1110,241 1110,238 1111,238 1111,237 1112,237 1112,235 1112,235 1112,235 1113,235 1113,234 1113,234 1113,234 1114,234 1114,232 1114,232 1114,232 1115,230 1115,230 1115,231 1116,231 1117,231 1117,231 1117,231 1117,230 1118,230 1118,230 1118,230 1118,230 1119,230 1119,225 1119,225 1119,225 1120,225 1120,225 1120,225 1121,225 1121,225 1122,225 1122,223 1122,223 1122,221 1123,221 1123,221 1123,221 1123,220 1124,220 1124,220 1124,220 1124,219 1125,219 1125,217 1126,216 1126,216 1126,214 1127,214 1127,213 1127,213 1127,209 1128,209 1128,209 1128,209 1128,207 1129,207 1129,206 1129,206 1129,205 1130,205 1130,202 1131,202 1131,199 1131,199 1131,199 1132,199 1132,199 1132,198 1133,198 1133,198 1133,193 1134,193 1134,193 1135,193 1135,193 1135,193 1135,193 1136,193 1136,192 1136,192 1136,192 1137,192 1137,192 1137,192 1137,192 1138,192 1138,189 1138,189 1139,189 1139,189 1140,189 1140,188 1140,188 1140,185 1141,185 1141,182 1141,182 1141,181 1142,181 1142,181 1142,181 1143,181 1143,181 1143,181 1143,180 1144,180 1144,178 1145,178 1145,178 1145,178 1145,178 1146,178 1146,175 1146,175 1146,175 1147,175 1147,175 1147,175 1147,177 1148,177 1148,175 1149,175 1149,173 1149,173 1149,171 1150,171 1150,171 1150,171 1150,171 1151,171 1151,167 1151,167 1151,167 1152,167 1152,166 1152,164 1153,164 1153,164 1154,164 1154,160 1154,160 1154,159 1155,159 1155,159 1155,159 1155,159 1156,159 1156,157 1156,157 1156,157 1157,157 1157,156 1158,156 1158,154 1158,154 1159,154 1159,150 1159,150 1159,147 1160,147 1160,145 1160,145 1160,143 1161,143 1161,142 1161,140 1162,138 1163,138 1163,136 1163,134 1164,134 1164,132 1164,132 1164,132 1165,132 1165,132 1165,132 1165,132 1166,132 1166,131 1166,131 1166,127 1167,127 1167,127 1168,127 1168,125 1168,125 1168,124 1169,122 1169,122 1169,122 1170,121 1170,121 1170,121 1170,121 1171,121 1171,118 1172,118 1172,114 1172,114 1172,115 1173,115 1173,115 1173,114 1173,113 1174,113 1174,111 1174,111 1174,110 1175,110 1175,110 1175,110 1175,110 1176,110 1176,110 1177,110 1177,108 1177,108 1177,106 1178,106 1178,101 1178,100 1179,100 1179,100 1179,100 1179,97 1180,97 1180,97 1181,97 1181,96 1181,96 1181,94 1182,94 1182,90 1182,90 1182,88 1183,89 1183,89 1183,89 1184,89 1184,89 1184,89 1184,89 1185,89 1185,88 1186,88 1186,85 1186,85 1186,85 1187,85 1187,83 1187,83 1187,81 1188,81 1188,75 1188,75 1188,75 1189,75 1189,75 1190,75 "/>
<polyline fill="none" opacity="1" stroke="#19E619" stroke-width="2" points="527,738 528,737 530,737 531,737 532,737 533,737 534,737 535,737 538,737 538,737 540,737 541,737 543,737 543,737 548,737 548,737 550,737 550,737 552,737 553,737 555,737 556,737 557,737 558,737 559,737 560,737 562,736 562,736 563,736 563,736 566,736 566,736 567,736 567,736 568,736 570,736 570,736 572,736 572,736 574,736 575,736 575,736 576,736 577,736 577,736 578,736 578,736 580,736 581,736 582,736 583,736 584,736 584,736 585,736 586,736 586,736 587,736 587,736 589,736 590,736 590,736 591,736 591,736 592,736 593,736 594,736 595,736 596,736 597,734 598,734 598,734 599,734 600,734 600,734 601,734 601,734 602,734 603,734 603,734 604,734 605,734 612,733 613,733 613,733 614,733 616,733 618,733 618,733 621,733 622,733 622,733 623,733 623,733 625,733 630,733 631,733 632,733 632,733 633,733 634,733 635,733 635,733 636,733 637,733 637,733 638,733 639,733 639,733 640,733 640,733 641,731 642,731 642,731 646,731 646,731 647,731 648,731 648,731 649,731 649,730 650,730 650,730 651,730 651,730 654,730 656,730 658,730 658,730 660,730 662,730 662,730 665,730 667,730 668,730 669,730 669,729 672,729 673,729 674,729 674,729 676,729 676,729 677,729 678,729 679,727 679,727 681,727 682,727 682,727 683,727 683,727 687,727 688,727 688,727 689,727 690,727 691,727 694,727 694,727 695,727 695,727 699,727 700,727 700,727 701,727 701,726 702,724 708,724 709,724 710,724 711,724 711,724 715,724 717,724 718,724 718,722 719,723 720,723 721,723 722,723 722,722 723,722 723,722 725,722 725,722 728,722 732,722 732,720 733,719 733,719 734,719 734,719 736,719 736,716 738,716 742,715 744,715 745,715 751,715 751,715 752,715 752,715 756,715 756,715 757,715 757,715 761,715 762,715 764,715 765,715 766,715 766,715 768,713 770,712 772,710 773,710 773,710 774,710 775,710 777,710 779,710 779,710 780,710 781,710 783,709 783,709 784,709 785,708 786,708 787,708 787,708 788,708 789,708 790,708 791,708 793,706 793,705 794,705 798,704 799,704 801,704 801,704 806,702 806,702 809,701 813,701 815,699 818,699 820,699 821,699 823,699 823,699 824,698 825,698 825,697 826,697 828,697 829,697 829,697 832,695 832,695 833,694 835,694 836,694 837,692 838,692 840,691 841,691 841,691 844,690 844,690 845,690 846,688 847,688 849,687 849,687 851,687 852,687 853,687 854,687 856,687 861,685 862,685 862,685 864,685 865,685 865,685 866,685 866,685 867,685 867,684 869,683 869,683 871,681 872,681 873,681 874,681 874,680 875,680 875,680 876,680 877,680 878,680 879,678 880,678 880,677 882,677 883,677 883,677 884,677 884,677 885,677 886,677 887,677 887,677 888,677 888,677 890,674 891,674 892,674 892,674 893,674 893,673 894,673 894,673 895,671 896,671 897,671 897,671 898,671 898,671 899,671 900,671 901,671 901,671 902,671 902,671 903,671 903,671 904,671 904,671 905,671 906,671 907,671 908,671 908,671 909,671 910,671 911,671 912,671 912,671 913,671 913,671 914,671 915,671 915,671 916,671 916,671 917,671 917,671 918,671 919,671 919,670 920,670 920,670 921,670 921,670 922,669 922,669 923,669 924,669 924,669 925,669 925,669 926,669 926,669 927,669 927,669 928,669 929,669 929,669 930,667 930,667 931,667 931,667 932,667 933,667 933,667 934,667 934,667 935,666 935,666 936,666 936,664 937,664 938,664 938,664 939,664 939,664 940,664 940,664 941,664 942,663 942,663 943,662 943,662 944,662 944,662 945,662 945,662 946,662 947,662 947,662 948,662 948,660 949,660 949,659 950,659 950,659 951,659 952,659 952,659 953,659 953,659 954,659 954,659 955,659 956,659 956,659 957,659 957,659 958,659 958,659 959,659 959,659 960,658 961,658 961,658 962,658 962,658 963,658 963,658 964,658 965,658 965,658 966,658 966,658 967,658 967,658 968,658 968,658 969,658 970,658 970,658 971,658 971,658 972,658 972,658 973,658 973,658 974,658 975,658 975,658 976,658 976,656 977,656 977,655 978,655 979,655 979,655 980,655 980,655 981,653 981,653 982,653 982,653 983,652 984,652 984,652 985,652 985,651 986,651 986,649 987,649 988,648 988,648 989,648 989,648 990,648 990,646 991,646 991,648 992,648 993,645 993,645 994,644 994,644 995,645 995,645 996,645 996,645 997,645 998,641 998,641 999,641 999,641 1000,641 1000,641 1001,641 1002,641 1002,641 1003,639 1003,638 1004,638 1004,638 1005,638 1005,638 1006,638 1007,638 1007,638 1008,638 1008,638 1009,638 1009,638 1010,638 1011,638 1011,637 1012,637 1012,637 1013,637 1013,635 1014,635 1014,635 1015,635 1016,635 1016,635 1017,635 1017,632 1018,632 1018,631 1019,631 1019,631 1020,631 1021,631 1021,631 1022,630 1022,630 1023,630 1023,630 1024,628 1025,628 1025,627 1026,627 1026,627 1027,627 1027,627 1027,627 1028,627 1028,627 1029,627 1030,627 1030,627 1031,627 1031,627 1032,627 1032,627 1033,627 1034,627 1034,625 1035,625 1035,625 1036,625 1036,625 1037,624 1037,624 1038,623 1039,623 1039,623 1040,623 1040,620 1041,620 1041,620 1042,620 1042,620 1043,620 1044,620 1044,620 1045,620 1045,620 1046,620 1046,620 1047,620 1048,620 1048,620 1049,620 1049,620 1050,617 1050,617 1051,617 1051,617 1052,617 1053,617 1053,617 1054,617 1054,617 1055,617 1055,617 1056,617 1057,617 1057,617 1058,617 1058,616 1059,616 1059,616 1060,616 1060,616 1061,616 1062,617 1062,619 1063,619 1063,619 1064,619 1064,617 1065,617 1066,617 1066,617 1067,617 1067,616 1068,616 1068,616 1069,616 1069,614 1070,613 1071,613 1071,613 1072,613 1072,613 1073,613 1073,613 1074,613 1074,613 1075,612 1076,610 1076,610 1077,610 1077,609 1078,609 1078,607 1079,607 1080,607 1080,606 1081,605 1081,603 1082,603 1082,603 1083,602 1083,602 1084,602 1085,602 1085,602 1086,602 1086,602 1087,602 1087,602 1088,602 1089,602 1089,602 1090,599 1090,599 1091,598 1091,598 1092,598 1092,598 1093,596 1094,596 1094,596 1095,596 1095,596 1096,595 1096,591 1097,591 1097,592 1098,592 1099,589 1099,589 1100,589 1100,588 1101,588 1101,588 1102,588 1103,588 1103,588 1104,588 1104,589 1105,589 1105,589 1106,589 1106,586 1106,586 1106,586 1107,586 1108,586 1108,586 1108,586 1108,586 1109,586 1109,586 1109,586 1110,586 1110,586 1110,586 1110,586 1111,586 1111,586 1112,586 1112,585 1112,585 1112,585 1113,585 1113,582 1113,582 1113,582 1114,582 1114,582 1114,582 1114,582 1115,581 1115,581 1115,581 1116,581 1117,581 1117,581 1117,581 1117,579 1118,579 1118,579 1118,579 1118,579 1119,579 1119,579 1119,579 1119,579 1120,577 1120,577 1120,577 1121,577 1121,577 1122,577 1122,577 1122,577 1122,575 1123,575 1123,575 1123,575 1123,575 1124,575 1124,575 1124,575 1124,575 1125,575 1125,575 1126,575 1126,575 1126,575 1127,575 1127,575 1127,575 1127,575 1128,575 1128,575 1128,575 1128,575 1129,575 1129,575 1129,575 1129,575 1130,575 1130,575 1131,575 1131,575 1131,575 1131,574 1132,574 1132,574 1132,574 1133,574 1133,574 1133,573 1134,573 1134,573 1135,573 1135,573 1135,573 1135,573 1136,573 1136,573 1136,573 1136,571 1137,571 1137,571 1137,571 1137,571 1138,571 1138,571 1138,570 1139,570 1139,568 1140,568 1140,566 1140,566 1140,566 1141,566 1141,566 1141,566 1141,566 1142,566 1142,566 1142,564 1143,564 1143,564 1143,564 1143,563 1144,563 1144,563 1145,563 1145,563 1145,563 1145,563 1146,563 1146,563 1146,563 1146,561 1147,561 1147,561 1147,561 1147,561 1148,561 1148,557 1149,557 1149,557 1149,557 1149,557 1150,557 1150,557 1150,557 1150,557 1151,557 1151,559 1151,559 1151,559 1152,559 1152,557 1152,557 1153,557 1153,557 1154,557 1154,557 1154,557 1154,557 1155,557 1155,557 1155,557 1155,557 1156,557 1156,557 1156,557 1156,557 1157,557 1157,556 1158,556 1158,556 1158,552 1159,552 1159,552 1159,552 1159,550 1160,550 1160,550 1160,550 1160,549 1161,549 1161,549 1161,549 1162,547 1163,547 1163,547 1163,547 1164,547 1164,547 1164,547 1164,546 1165,546 1165,546 1165,546 1165,546 1166,546 1166,546 1166,546 1166,546 1167,546 1167,546 1168,546 1168,546 1168,546 1168,546 1169,546 1169,546 1169,546 1170,546 1170,546 1170,546 1170,546 1171,546 1171,546 1172,546 1172,546 1172,546 1172,546 1173,546 1173,546 1173,546 1173,545 1174,545 1174,545 1174,545 1174,543 1175,543 1175,543 1175,543 1175,543 1176,543 1176,540 1177,540 1177,540 1177,540 1177,540 1178,540 1178,539 1178,539 1179,539 1179,539 1179,539 1179,539 1180,539 1180,539 1181,539 1181,538 1181,538 1181,538 1182,538 1182,538 1182,538 1182,538 1183,538 1183,538 1183,538 1184,538 1184,538 1184,538 1184,536 1185,536 1185,535 1186,535 1186,535 1186,535 1186,533 1187,533 1187,533 1187,533 1187,533 1188,533 1188,533 1188,533 1188,533 1189,533 1189,533 1190,533 "/>
<polyline fill="none" opacity="1" stroke="#19E5E6" stroke-width="2" points="60,738 82,737 97,736 103,734 106,733 107,729 110,727 114,726 116,726 117,726 117,726 120,729 122,729 122,727 123,727 124,727 126,726 126,722 127,722 129,722 130,722 130,722 131,722 132,722 133,722 134,720 135,720 135,719 137,719 137,719 139,719 140,719 141,719 141,719 143,719 143,719 144,719 145,719 146,717 147,717 148,717 149,717 150,717 150,717 152,716 153,716 153,716 154,716 156,716 157,716 158,716 158,716 159,716 159,715 160,715 160,710 161,710 162,710 163,710 163,710 164,710 166,710 166,710 167,710 167,710 168,710 169,710 170,710 171,710 172,710 173,710 173,710 174,710 175,710 175,710 176,710 177,710 177,710 178,710 179,710 180,710 181,710 182,709 182,709 184,709 185,709 186,709 186,709 187,709 187,709 188,709 190,709 190,709 191,709 191,708 192,708 192,708 193,708 194,708 195,708 195,708 196,708 196,708 197,708 198,708 198,708 199,708 199,708 200,708 200,706 201,706 201,706 202,706 203,706 203,706 204,706 204,706 205,706 206,706 207,706 208,706 209,706 210,706 210,706 211,705 212,705 213,705 213,702 214,702 214,702 215,702 216,702 217,701 217,701 218,701 218,701 219,701 219,701 220,699 221,699 221,699 222,699 222,699 223,699 223,699 224,699 224,699 225,699 226,699 226,699 227,699 227,699 228,699 228,699 229,698 230,698 231,698 232,698 232,698 233,698 234,698 235,698 236,698 237,698 237,698 238,698 239,697 240,697 240,695 241,695 242,695 242,695 243,694 244,694 244,694 245,694 246,694 246,694 247,694 247,694 249,694 249,694 250,694 250,694 251,694 251,694 252,694 253,694 253,692 254,692 255,692 255,691 256,691 256,691 257,691 258,691 258,691 259,691 259,691 260,691 260,691 261,691 261,691 262,692 263,691 263,691 264,691 264,691 265,691 266,691 267,691 267,690 268,688 268,688 269,688 269,688 270,688 270,687 271,687 272,687 272,687 273,687 273,687 274,687 274,687 275,687 276,687 276,687 277,687 277,687 278,687 278,687 279,687 279,687 280,687 281,687 281,687 282,687 282,687 283,687 283,687 284,687 284,687 285,687 286,687 286,687 287,687 287,687 288,687 288,687 289,687 290,687 290,687 291,687 291,687 292,687 292,687 293,687 293,687 294,687 295,687 295,687 296,687 296,687 297,687 297,687 298,687 299,687 299,687 300,685 300,684 301,684 301,684 302,683 302,683 303,683 304,683 304,681 305,681 305,681 306,681 306,681 307,681 307,681 308,681 309,681 309,681 310,681 310,681 311,680 311,680 312,678 313,678 313,677 314,676 314,676 315,676 315,676 316,676 317,676 318,676 318,676 319,676 319,676 320,676 320,676 321,676 322,676 322,676 323,676 323,676 324,676 324,676 325,676 325,676 326,676 327,676 327,676 328,676 328,676 329,676 329,676 330,676 330,676 331,674 332,673 332,673 333,673 333,673 334,673 334,673 335,671 336,671 336,671 337,671 337,671 338,671 338,671 339,671 339,671 340,671 341,671 342,671 342,673 343,673 343,673 344,673 345,673 345,673 346,673 346,673 347,671 347,671 348,671 348,671 349,671 350,671 350,671 351,671 351,671 352,671 352,671 353,670 354,670 354,670 355,670 355,670 356,670 356,670 357,670 357,670 358,670 359,670 359,670 360,670 360,670 361,670 361,670 362,670 362,670 363,670 364,670 364,670 365,670 365,670 366,670 366,670 367,670 368,670 368,670 369,670 369,670 370,670 370,669 371,667 371,666 372,666 373,666 373,666 374,666 374,666 375,666 375,666 376,666 377,666 377,666 378,666 378,666 379,666 379,666 380,666 380,666 381,666 382,666 382,666 383,666 383,666 384,666 384,666 385,664 385,664 386,664 387,664 387,664 388,664 388,663 389,663 389,663 390,663 391,663 391,663 392,663 392,663 393,663 393,663 394,660 394,660 395,660 396,660 396,659 397,659 397,659 398,658 398,658 399,658 400,658 400,658 401,658 401,658 402,658 402,658 403,658 403,658 404,658 405,658 405,658 406,658 407,658 407,658 408,658 408,658 409,658 410,658 410,658 411,658 411,658 412,659 412,659 413,659 414,659 414,659 415,659 415,659 416,659 416,659 417,659 417,659 418,659 419,659 419,659 420,659 420,659 421,659 421,660 422,660 423,660 423,660 424,660 424,660 425,660 425,660 426,660 426,660 427,660 428,659 428,659 429,659 429,659 430,659 430,659 431,658 431,658 432,659 433,659 433,659 434,659 434,658 435,658 435,658 436,656 437,656 437,656 438,655 438,655 439,655 439,653 440,653 440,652 441,653 442,653 442,653 443,652 443,652 444,652 444,652 445,651 446,651 446,651 447,651 447,651 448,651 448,651 449,651 449,648 450,648 451,648 451,648 452,648 452,648 453,649 453,649 454,648 454,648 455,648 456,648 456,648 457,648 457,648 458,648 458,648 459,648 460,648 460,648 461,648 461,648 462,648 462,646 463,646 463,646 464,645 465,644 465,644 466,644 466,644 467,644 467,644 468,644 469,644 469,642 470,644 470,644 471,644 471,644 472,644 472,644 473,644 474,644 474,644 475,644 475,644 476,644 476,644 477,644 477,644 478,642 479,642 479,642 480,642 480,642 481,642 481,642 482,642 483,642 483,642 484,642 484,642 485,642 485,641 486,641 486,641 487,639 488,638 488,638 489,635 489,635 490,635 490,635 491,635 492,635 492,635 493,635 493,635 494,634 494,634 495,634 495,634 496,634 497,634 497,634 498,634 498,634 499,634 499,634 500,634 501,634 501,634 502,634 502,634 503,634 503,634 504,632 504,632 505,631 506,631 506,631 507,631 507,631 508,630 508,630 509,630 509,628 510,627 511,627 511,627 512,627 512,627 513,627 513,627 514,627 515,627 515,627 516,627 516,627 517,627 517,627 518,627 518,627 519,624 520,624 520,624 521,624 521,624 522,624 522,624 523,623 524,623 524,623 525,623 525,623 526,623 526,623 527,623 527,623 528,623 529,623 529,623 530,623 530,623 531,623 531,623 532,623 532,623 533,623 534,623 534,623 535,623 535,623 536,623 536,623 537,623 538,623 538,623 539,623 539,623 540,623 540,623 541,623 541,623 542,623 543,623 543,623 544,623 544,623 545,623 545,623 546,621 547,621 547,620 548,620 548,620 549,620 549,619 550,619 550,619 551,619 552,619 552,619 553,619 553,619 554,619 554,619 555,617 555,617 556,614 557,613 557,613 558,613 558,613 559,613 559,613 560,613 561,613 561,613 562,613 562,612 563,612 563,612 564,612 564,612 565,612 566,609 566,609 567,609 567,609 568,609 568,609 569,609 570,609 570,609 571,609 571,609 572,609 572,609 573,609 573,609 574,609 575,609 575,609 576,609 576,609 577,609 577,609 578,607 578,607 579,607 580,607 580,607 581,606 581,606 582,606 582,606 583,606 584,606 584,606 585,606 585,606 586,606 586,606 587,606 587,605 588,605 589,605 589,605 590,605 590,603 591,605 591,605 592,605 593,605 593,605 594,605 594,605 595,605 595,605 596,605 596,605 597,605 598,605 598,605 599,605 599,605 600,605 600,605 601,605 601,605 602,605 603,605 603,605 604,605 604,605 605,605 605,605 606,605 607,605 607,605 608,605 608,605 609,605 609,605 610,605 610,605 611,603 612,603 612,605 613,605 613,605 614,605 614,605 615,605 616,605 616,605 617,605 617,605 618,605 619,605 619,605 620,605 621,605 621,605 622,605 622,605 623,605 623,605 624,605 625,605 625,605 626,605 626,606 627,606 627,606 628,606 628,606 629,606 630,606 630,606 631,606 631,606 632,606 632,606 633,606 633,605 634,605 635,605 635,605 636,605 636,605 637,605 637,603 638,603 639,603 639,603 640,602 640,602 641,602 641,602 642,602 642,602 643,602 644,602 644,602 645,602 645,602 646,602 646,602 647,602 648,602 648,602 649,602 649,602 650,602 650,602 651,602 651,600 652,600 653,600 653,600 654,600 654,600 655,600 655,600 656,600 656,600 657,600 658,600 658,600 659,600 659,600 660,600 660,600 661,600 662,600 662,600 663,600 663,598 664,598 664,598 665,598 665,591 666,591 667,591 667,591 668,591 668,591 669,591 669,591 670,591 671,591 671,591 672,591 672,591 673,591 673,591 674,588 674,588 675,588 676,588 676,588 677,588 677,588 678,588 678,588 679,588 679,588 680,588 681,588 681,588 682,589 682,589 683,589 683,589 684,589 685,589 685,589 686,589 686,589 687,589 687,589 688,589 688,589 689,589 690,589 690,589 691,589 691,588 692,588 692,588 693,588 694,588 694,588 695,586 695,586 696,586 696,586 697,586 697,586 698,586 699,586 699,586 700,585 700,585 701,585 701,585 702,585 702,585 703,585 704,585 704,585 705,585 705,585 706,585 706,585 707,585 708,582 708,582 709,582 709,582 710,582 710,582 711,582 711,581 712,581 713,581 713,581 714,581 714,581 715,579 715,579 716,579 717,579 717,579 718,579 718,579 719,579 719,579 720,579 720,577 721,575 722,575 722,574 723,574 723,574 724,574 724,574 725,573 725,573 726,573 727,573 727,573 728,573 728,573 729,573 729,573 730,573 731,573 731,573 732,573 732,573 733,573 733,581 734,581 734,581 735,581 736,581 736,581 737,581 737,579 738,579 738,579 739,579 740,579 740,579 741,579 741,579 742,578 742,578 743,578 743,578 744,578 745,578 745,578 746,578 746,578 747,578 747,578 748,578 748,578 749,578 750,578 750,578 751,578 751,578 752,578 752,578 753,578 754,578 754,578 755,578 755,578 756,578 756,578 757,578 757,579 758,579 759,579 759,579 760,579 760,579 761,579 761,579 762,579 763,579 763,579 764,579 764,579 765,579 765,579 766,579 766,579 767,579 768,579 768,579 769,579 769,579 770,579 770,579 771,579 772,579 772,579 773,579 773,579 774,578 774,578 775,578 775,578 776,578 777,578 777,578 778,578 778,577 779,577 779,577 780,577 780,577 781,577 782,577 782,577 783,577 783,577 784,577 784,577 785,577 786,577 786,577 787,577 787,577 788,577 788,577 789,577 789,577 790,577 791,577 791,577 792,577 792,577 793,575 793,575 794,575 795,575 795,575 796,575 796,575 797,575 797,575 798,575 798,575 799,575 800,575 800,575 801,575 801,575 802,575 802,575 803,575 803,575 804,575 805,574 805,574 806,574 806,574 807,574 807,573 808,573 809,573 809,573 810,573 810,573 810,573 811,573 811,573 812,573 812,573 813,573 814,571 814,571 815,571 815,570 816,570 816,570 817,570 818,570 818,570 819,570 819,570 820,570 820,570 821,570 821,570 822,570 823,570 823,570 824,570 824,570 825,570 825,570 826,570 826,567 827,567 828,567 828,567 829,567 829,567 830,566 830,566 831,564 832,564 832,564 833,564 833,564 834,564 834,564 835,564 835,564 836,564 837,564 837,564 838,564 838,564 839,564 839,564 840,564 841,564 841,564 842,564 842,564 843,564 843,564 844,564 844,564 845,564 846,564 846,564 847,564 847,564 848,564 848,564 849,564 849,564 850,564 851,564 851,564 852,564 852,564 853,564 853,563 854,563 855,564 855,564 856,564 856,564 857,563 857,563 858,563 858,563 859,563 860,563 860,563 861,563 861,563 862,563 862,560 863,560 864,560 864,560 865,560 865,561 866,561 866,563 867,563 867,563 868,563 869,563 869,564 870,564 871,563 871,563 872,563 872,563 873,563 874,563 874,563 875,563 875,563 876,563 876,563 877,561 878,561 878,561 879,561 879,561 880,560 880,560 881,560 881,560 882,560 883,560 883,560 884,560 884,560 885,560 885,561 886,561 887,561 887,561 888,561 888,561 889,561 889,561 890,561 890,561 891,561 892,561 892,561 893,561 893,561 894,561 894,561 895,561 895,561 896,561 897,561 897,561 898,561 898,561 899,561 899,561 900,561 901,561 901,561 902,563 902,563 903,563 903,563 904,563 904,561 905,561 906,563 906,563 907,563 907,561 908,561 908,561 909,561 910,561 910,561 911,561 911,560 912,560 912,560 913,560 913,560 914,560 915,560 915,560 916,560 916,560 917,560 917,560 918,560 919,560 919,560 920,560 920,560 921,560 921,560 922,560 922,560 923,560 924,560 924,560 925,559 925,559 926,559 926,559 927,559 927,559 928,559 929,559 929,559 930,559 930,559 931,559 931,559 932,559 933,559 933,559 934,559 934,559 935,559 935,559 936,559 936,559 937,559 938,559 938,559 939,559 939,559 940,559 940,557 941,557 942,557 942,557 943,557 943,557 944,557 944,557 945,557 945,557 946,557 947,557 947,557 948,559 948,559 949,557 949,557 950,557 950,557 951,557 952,557 952,557 953,556 953,556 954,556 954,556 955,556 956,556 956,556 957,556 957,556 958,556 958,556 959,554 959,554 960,554 961,554 961,554 962,554 962,554 963,554 963,554 964,554 965,554 965,554 966,554 966,554 967,554 967,554 968,554 968,554 969,554 970,556 970,556 971,556 971,556 972,556 972,556 973,556 973,556 974,557 975,556 975,556 976,556 976,556 977,556 977,556 978,556 979,556 979,556 980,556 980,556 981,556 981,556 982,556 982,556 983,556 984,554 984,554 985,554 985,554 986,554 986,554 987,554 988,554 988,554 989,553 989,553 990,553 990,553 991,554 991,554 992,554 993,554 993,554 994,554 994,554 995,554 995,554 996,554 996,554 997,553 998,553 998,553 999,553 999,553 1000,553 1000,553 1001,553 1002,553 1002,552 1003,552 1003,552 1004,552 1004,552 1005,550 1005,550 1006,550 1007,550 1007,550 1008,550 1008,550 1009,550 1009,550 1010,550 1011,550 1011,550 1012,550 1012,550 1013,550 1013,550 1014,550 1014,550 1015,550 1016,550 1016,550 1017,550 1017,550 1018,550 1018,550 1019,550 1019,550 1020,550 1021,550 1021,550 1022,550 1022,550 1023,550 1023,550 1024,550 1025,550 1025,550 1026,550 1026,550 1027,550 1027,550 1027,550 1028,550 1028,550 1029,550 1030,550 1030,550 1031,550 1031,550 1032,550 1032,550 1033,550 1034,549 1034,549 1035,549 1035,549 1036,549 1036,549 1037,549 1037,549 1038,549 1039,549 1039,549 1040,549 1040,550 1041,550 1041,552 1042,552 1042,552 1043,552 1044,552 1044,552 1045,552 1045,552 1046,552 1046,552 1047,552 1048,552 1048,552 1049,552 1049,550 1050,549 1050,549 1051,549 1051,549 1052,549 1053,549 1053,549 1054,549 1054,549 1055,549 1055,549 1056,546 1057,546 1057,546 1058,542 1058,542 1059,542 1059,542 1060,542 1060,542 1061,542 1062,542 1062,542 1063,543 1063,543 1064,543 1064,543 1065,543 1066,543 1066,543 1067,543 1067,543 1068,543 1068,543 1069,543 1069,543 1070,543 1071,542 1071,539 1072,539 1072,539 1073,539 1073,539 1074,539 1074,539 1075,539 1076,539 1076,539 1077,539 1077,539 1078,539 1078,539 1079,539 1080,539 1080,539 1081,540 1081,540 1082,540 1082,540 1083,540 1083,540 1084,540 1085,540 1085,540 1086,540 1086,540 1087,540 1087,540 1088,540 1089,540 1089,540 1090,539 1090,539 1091,539 1091,538 1092,538 1092,538 1093,538 1094,538 1094,538 1095,538 1095,538 1096,538 1096,538 1097,538 1097,538 1098,538 1099,538 1099,538 1100,538 1100,539 1101,539 1101,539 1102,538 1103,538 1103,538 1104,538 1104,538 1105,538 1105,538 1106,538 1106,538 1106,538 1106,538 1107,538 1108,538 1108,538 1108,538 1108,538 1109,538 1109,538 1109,536 1110,536 1110,536 1110,536 1110,536 1111,536 1111,536 1112,536 1112,536 1112,536 1112,536 1113,536 1113,536 1113,536 1113,536 1114,536 1114,536 1114,536 1114,536 1115,536 1115,536 1115,536 1116,536 1117,536 1117,536 1117,536 1117,536 1118,536 1118,536 1118,536 1118,536 1119,536 1119,536 1119,536 1119,536 1120,536 1120,536 1120,536 1121,536 1121,536 1122,536 1122,536 1122,536 1122,536 1123,536 1123,536 1123,536 1123,536 1124,536 1124,536 1124,538 1124,538 1125,538 1125,538 1126,538 1126,538 1126,536 1127,536 1127,536 1127,536 1127,536 1128,536 1128,536 1128,536 1128,536 1129,536 1129,535 1129,535 1129,535 1130,535 1130,535 1131,535 1131,535 1131,535 1131,535 1132,535 1132,535 1132,536 1133,536 1133,536 1133,536 1134,536 1134,536 1135,536 1135,536 1135,536 1135,536 1136,536 1136,536 1136,536 1136,536 1137,536 1137,535 1137,535 1137,535 1138,535 1138,535 1138,535 1139,535 1139,535 1140,535 1140,535 1140,535 1140,535 1141,535 1141,535 1141,535 1141,535 1142,535 1142,535 1142,535 1143,535 1143,535 1143,535 1143,535 1144,535 1144,535 1145,535 1145,535 1145,535 1145,535 1146,535 1146,535 1146,535 1146,536 1147,536 1147,536 1147,536 1147,536 1148,536 1148,536 1149,536 1149,536 1149,536 1149,536 1150,536 1150,536 1150,536 1150,536 1151,536 1151,536 1151,536 1151,536 1152,536 1152,536 1152,536 1153,536 1153,536 1154,536 1154,536 1154,536 1154,536 1155,536 1155,535 1155,535 1155,535 1156,535 1156,535 1156,535 1156,535 1157,535 1157,535 1158,535 1158,535 1158,535 1159,535 1159,535 1159,535 1159,535 1160,535 1160,535 1160,535 1160,535 1161,535 1161,533 1161,533 1162,533 1163,533 1163,533 1163,533 1164,533 1164,533 1164,533 1164,533 1165,533 1165,533 1165,533 1165,533 1166,533 1166,533 1166,533 1166,533 1167,533 1167,533 1168,533 1168,533 1168,533 1168,533 1169,533 1169,533 1169,533 1170,533 1170,533 1170,533 1171,533 1171,533 1172,533 1172,533 1172,533 1172,533 1173,533 1173,533 1173,533 1173,533 1174,533 1174,533 1174,533 1174,533 1175,533 1175,533 1175,533 1175,533 1176,533 1176,533 1177,533 1177,533 1177,533 1177,533 1178,533 1178,533 1178,533 1179,533 1179,533 1179,533 1179,533 1180,533 1180,533 1181,533 1181,533 1181,533 1181,533 1182,533 1182,533 1182,533 1182,533 1183,535 1183,535 1183,535 1184,535 1184,535 1184,535 1184,535 1185,535 1185,535 1186,535 1186,535 1186,535 1186,535 1187,535 1187,533 1187,533 1187,533 1188,533 1188,533 1188,533 1188,533 1189,533 1189,533 1190,533 "/>
<polyline fill="none" opacity="1" stroke="#1919E6" stroke-width="2" points="432,738 490,737 539,736 561,734 568,733 582,731 583,730 584,730 584,729 585,729 586,729 587,727 591,726 592,726 593,726 593,726 594,726 595,726 596,726 596,726 597,726 598,726 598,726 599,726 599,726 600,726 601,726 604,726 606,726 607,726 607,726 608,726 609,726 610,726 610,726 612,726 612,726 613,726 614,726 614,726 615,726 616,726 616,726 617,726 618,726 618,726 619,726 619,726 620,726 621,726 621,726 623,726 623,726 626,726 626,726 628,726 629,726 630,726 631,726 633,726 633,723 634,723 636,723 637,723 637,723 638,723 639,723 640,723 642,723 642,723 644,723 645,723 645,723 646,722 648,722 648,722 649,722 649,722 650,722 650,722 651,722 651,722 652,722 653,722 653,720 656,720 656,720 657,720 658,720 659,720 659,720 660,720 660,720 661,720 662,720 662,720 663,720 663,720 664,720 664,720 665,720 666,720 667,720 668,720 668,720 669,720 670,720 671,720 671,720 672,720 672,720 673,720 674,720 674,720 675,720 676,720 677,720 678,720 678,720 679,720 679,720 680,720 681,720 681,720 682,720 682,720 683,720 683,720 684,719 685,719 686,717 687,717 687,717 688,717 688,717 689,717 690,717 690,717 691,717 691,717 692,717 692,717 693,717 694,717 694,717 695,717 696,717 696,717 697,717 698,717 699,717 699,717 700,717 700,717 701,716 701,716 702,716 702,716 703,715 704,715 704,715 705,715 705,715 706,715 706,715 707,715 708,715 708,715 709,715 709,715 710,715 710,715 711,715 711,715 712,715 713,715 713,715 714,715 714,715 715,715 715,715 716,715 717,715 717,715 718,715 718,713 719,712 719,710 720,710 722,710 722,710 723,710 723,710 724,710 724,710 725,710 725,710 726,710 727,710 727,710 728,710 728,710 729,710 729,710 731,710 731,710 732,710 732,710 733,710 733,710 734,710 734,710 735,710 736,709 736,709 737,709 737,709 738,709 738,709 739,709 740,708 740,708 741,708 741,708 742,708 742,708 743,706 743,706 744,706 745,706 745,706 746,706 746,706 747,706 747,706 748,706 748,706 749,706 750,706 750,706 751,706 751,706 752,706 752,705 753,705 754,705 754,705 755,705 755,705 756,705 756,705 757,705 757,705 758,705 759,705 759,705 760,705 760,705 761,705 761,704 762,704 763,704 763,704 764,702 764,702 765,702 765,702 766,702 766,702 767,702 768,702 768,702 769,702 769,702 770,702 770,702 771,702 772,702 772,702 773,702 773,702 774,701 774,701 775,701 775,701 776,701 777,701 777,701 778,701 778,699 779,699 779,699 780,699 780,699 781,699 782,699 782,699 783,698 783,698 784,698 784,698 785,698 786,698 786,698 787,698 787,698 788,697 788,697 789,697 789,694 790,694 791,694 791,694 792,694 792,694 793,694 793,694 794,694 795,694 795,694 796,694 796,694 797,694 797,694 798,694 798,692 799,692 800,692 801,692 801,692 802,692 802,692 803,692 803,692 804,692 805,692 805,692 806,692 806,692 807,692 807,692 808,692 809,691 809,691 810,691 810,691 810,691 811,691 811,691 812,691 812,691 813,691 814,691 814,691 815,691 815,691 816,691 816,691 817,691 818,691 818,691 819,691 819,690 820,690 820,690 821,690 821,690 822,690 823,690 823,690 824,690 824,688 825,688 825,688 826,688 826,688 827,688 828,688 828,688 829,688 829,688 830,688 830,688 831,687 832,687 832,688 833,688 833,688 834,688 834,688 835,688 835,688 836,687 837,687 837,685 838,685 838,685 839,685 839,685 840,685 841,685 841,685 842,685 842,685 843,685 843,685 844,685 844,685 845,685 846,685 846,685 847,685 847,685 848,685 848,685 849,685 849,685 850,685 851,685 851,685 852,685 852,685 853,685 853,685 854,685 855,685 855,685 856,685 856,685 857,685 857,685 858,685 858,685 859,685 860,685 860,685 861,685 861,685 862,685 863,685 864,685 864,685 865,685 865,685 866,684 866,684 867,684 867,683 868,683 869,683 869,681 870,681 870,681 871,680 871,680 872,680 872,677 873,676 874,674 874,674 875,674 875,674 876,674 876,674 877,674 878,674 878,673 879,673 879,671 880,671 880,671 881,671 881,670 882,670 883,670 883,670 884,670 884,670 885,670 885,669 886,669 887,669 887,669 888,669 888,669 889,669 889,667 890,667 890,667 891,667 892,667 892,669 893,669 893,669 894,669 894,669 895,669 895,669 896,669 897,669 897,669 898,669 898,669 899,669 899,669 900,669 901,669 901,669 902,669 902,667 903,667 903,667 904,666 904,666 905,666 906,666 906,666 907,663 907,663 908,663 908,663 909,663 910,663 910,663 911,663 911,663 912,663 912,663 913,663 913,663 914,663 915,663 915,663 916,663 916,663 917,663 917,663 918,663 919,663 919,663 920,663 920,663 921,663 921,663 922,663 922,663 923,663 924,663 924,663 925,663 925,663 926,663 926,663 927,662 927,662 928,662 929,662 929,662 930,660 930,660 931,660 931,659 932,659 933,658 933,656 934,656 934,656 935,655 935,655 936,655 936,655 937,653 938,652 938,652 939,652 939,652 940,652 940,651 942,651 942,651 943,651 943,651 944,651 944,651 945,651 945,651 946,651 947,651 947,651 948,649 948,649 949,649 949,649 950,649 950,649 951,649 952,649 952,649 953,649 953,648 954,648 954,648 955,648 956,648 956,646 957,646 957,646 958,646 958,646 959,644 959,644 960,644 961,645 961,645 962,645 962,645 963,645 963,645 964,645 965,645 965,645 966,645 966,645 967,645 967,645 968,645 968,645 969,645 970,645 970,645 971,644 971,642 972,639 972,639 973,639 973,639 974,638 975,638 975,638 976,638 976,638 977,638 977,638 978,638 979,638 979,638 980,638 980,638 981,637 981,637 982,635 982,635 983,635 984,635 984,635 985,635 985,635 986,635 986,635 987,635 988,635 988,635 989,635 989,635 990,634 990,634 991,634 991,634 992,635 993,635 993,635 994,635 994,635 995,635 995,635 996,635 996,635 997,635 998,635 998,635 999,635 999,635 1000,635 1000,635 1001,635 1002,635 1002,634 1003,634 1003,634 1004,634 1004,634 1005,634 1005,634 1006,631 1007,631 1007,631 1008,631 1008,630 1009,630 1009,630 1010,630 1011,628 1011,628 1012,628 1012,628 1013,628 1013,628 1014,627 1014,625 1015,625 1016,625 1016,625 1017,625 1017,625 1018,625 1018,625 1019,625 1019,625 1020,625 1021,625 1021,625 1022,625 1022,625 1023,625 1023,625 1024,625 1025,625 1025,624 1026,624 1026,623 1027,623 1027,623 1027,621 1028,620 1028,620 1029,620 1030,620 1030,620 1031,619 1031,619 1032,619 1032,619 1033,619 1034,619 1034,617 1035,617 1035,617 1036,617 1036,617 1037,617 1037,617 1038,617 1039,614 1039,614 1040,614 1040,614 1041,614 1041,613 1042,613 1042,613 1043,613 1044,613 1044,613 1045,613 1045,613 1046,613 1046,613 1047,613 1048,613 1048,612 1049,612 1049,612 1050,609 1050,609 1051,609 1051,609 1052,609 1053,607 1053,607 1054,607 1054,607 1055,607 1055,607 1056,607 1057,607 1057,607 1058,607 1058,607 1059,607 1059,607 1060,607 1060,607 1061,606 1062,606 1062,606 1063,606 1063,606 1064,606 1064,606 1065,606 1066,606 1066,606 1067,606 1067,606 1068,606 1068,606 1069,606 1069,606 1070,606 1071,606 1071,606 1072,606 1072,606 1073,606 1073,606 1074,605 1074,605 1075,605 1076,605 1076,605 1077,605 1077,605 1078,603 1078,605 1079,605 1080,605 1080,605 1081,605 1081,603 1082,603 1082,603 1083,603 1083,603 1084,602 1085,602 1085,600 1086,600 1086,600 1087,600 1087,600 1088,600 1089,600 1089,599 1090,599 1090,599 1091,599 1091,598 1092,598 1092,598 1093,598 1094,598 1094,598 1095,598 1095,598 1096,598 1096,598 1097,598 1097,598 1098,598 1099,596 1099,596 1100,595 1100,595 1101,595 1101,596 1102,596 1103,596 1103,596 1104,596 1104,595 1105,595 1105,595 1106,595 1106,593 1106,593 1106,591 1107,591 1108,591 1108,591 1108,591 1108,589 1109,589 1109,589 1109,589 1110,589 1110,589 1110,589 1110,589 1111,589 1111,589 1112,589 1112,589 1112,589 1112,589 1113,589 1113,588 1113,588 1113,588 1114,588 1114,588 1114,588 1114,588 1115,588 1115,588 1115,586 1116,586 1117,586 1117,586 1117,586 1117,586 1118,586 1118,586 1118,586 1118,586 1119,586 1119,586 1119,586 1119,586 1120,586 1120,586 1120,585 1121,585 1121,585 1122,585 1122,585 1122,585 1122,585 1123,585 1123,585 1123,585 1123,585 1124,585 1124,585 1124,585 1124,584 1125,584 1125,584 1126,584 1126,584 1126,584 1127,584 1127,584 1127,584 1127,584 1128,584 1128,582 1128,582 1128,582 1129,582 1129,582 1129,582 1129,582 1130,582 1130,582 1131,582 1131,582 1131,582 1131,582 1132,582 1132,584 1132,584 1133,584 1133,584 1133,581 1134,581 1134,578 1135,578 1135,578 1135,578 1135,578 1136,578 1136,577 1136,577 1136,577 1137,577 1137,577 1137,577 1137,578 1138,578 1138,578 1138,577 1139,577 1139,577 1140,577 1140,577 1140,577 1140,577 1141,577 1141,577 1141,577 1141,577 1142,577 1142,577 1142,577 1143,577 1143,577 1143,577 1143,577 1144,577 1144,575 1145,575 1145,574 1145,574 1145,574 1146,574 1146,573 1146,573 1146,571 1147,571 1147,571 1147,571 1147,570 1148,570 1148,570 1149,570 1149,570 1149,570 1149,570 1150,570 1150,570 1150,570 1150,570 1151,570 1151,567 1151,567 1151,567 1152,567 1152,567 1152,567 1153,567 1153,567 1154,567 1154,567 1154,567 1154,566 1155,566 1155,566 1155,566 1155,563 1156,563 1156,563 1156,563 1156,563 1157,563 1157,563 1158,563 1158,563 1158,563 1159,563 1159,563 1159,563 1159,561 1160,561 1160,561 1160,561 1160,561 1161,561 1161,561 1161,561 1162,560 1163,560 1163,560 1163,560 1164,560 1164,560 1164,560 1164,559 1165,559 1165,559 1165,559 1165,559 1166,559 1166,559 1166,559 1166,557 1167,557 1167,557 1168,557 1168,557 1168,557 1168,556 1169,556 1169,556 1169,556 1170,556 1170,554 1170,554 1170,554 1171,554 1171,554 1172,554 1172,553 1172,553 1172,553 1173,553 1173,553 1173,553 1173,553 1174,553 1174,552 1174,552 1174,552 1175,552 1175,552 1175,552 1175,550 1176,550 1176,550 1177,550 1177,549 1177,549 1177,549 1178,549 1178,549 1178,549 1179,549 1179,549 1179,549 1179,547 1180,547 1180,547 1181,547 1181,547 1181,547 1181,547 1182,547 1182,547 1182,547 1182,547 1183,547 1183,547 1183,546 1184,546 1184,546 1184,546 1184,546 1185,546 1185,546 1186,546 1186,546 1186,546 1186,546 1187,546 1187,546 1187,546 1187,546 1188,546 1188,545 1188,545 1188,546 1189,546 1189,546 1190,546 "/>
<polyline fill="none" opacity="1" stroke="#E519E6" stroke-width="2" points="365,738 392,737 408,736 415,734 424,733 424,731 425,730 431,729 432,727 447,727 449,726 454,724 457,723 460,723 468,722 472,723 474,723 476,723 477,723 478,722 479,722 479,722 480,722 480,722 481,722 483,722 486,722 487,722 488,722 488,722 489,720 492,719 494,719 494,719 496,719 497,719 498,719 498,717 499,717 499,717 511,716 513,716 513,716 515,716 516,716 516,715 517,715 517,715 519,715 520,715 521,715 521,715 522,713 522,713 523,713 524,713 525,713 525,713 528,712 529,712 530,710 530,710 531,710 535,710 536,710 538,709 540,708 541,708 542,708 544,708 545,708 547,708 547,708 548,708 549,708 549,708 551,708 553,708 554,708 554,708 555,708 559,708 560,708 561,708 562,708 563,708 564,706 566,706 566,706 567,706 568,706 569,706 570,706 575,706 575,706 576,705 576,705 577,705 578,705 579,705 580,705 581,705 582,705 583,705 584,705 584,705 586,705 586,704 589,704 590,704 591,704 591,704 593,704 594,704 594,704 595,702 595,702 596,702 596,702 598,702 598,702 599,701 599,701 602,701 603,699 603,699 604,698 604,698 605,698 606,698 607,698 607,698 608,697 608,695 609,695 609,695 610,695 610,695 611,695 612,695 612,695 613,695 613,695 614,695 614,695 615,695 616,695 616,695 617,695 617,695 618,695 618,695 619,695 619,695 621,695 621,695 622,695 622,695 623,695 623,695 624,695 625,695 625,695 626,695 626,695 627,695 627,695 628,695 628,694 629,694 630,694 630,694 631,694 631,694 632,694 632,694 633,694 633,694 634,694 635,694 635,694 636,694 636,692 637,692 637,692 638,692 639,692 639,691 640,691 640,691 641,691 641,691 642,691 642,691 643,691 644,691 644,691 645,691 645,690 646,690 646,690 647,690 648,690 648,690 649,690 649,690 650,690 650,690 651,690 651,690 652,690 653,690 653,690 654,690 654,690 655,687 655,687 656,687 656,687 657,685 658,683 658,683 659,683 659,683 660,683 660,681 661,681 662,681 662,681 663,681 663,681 664,681 664,681 665,681 665,681 666,681 667,681 667,680 668,680 668,680 669,680 669,680 670,677 671,677 671,677 672,677 672,677 673,677 673,677 674,676 674,676 675,676 676,676 676,676 677,676 677,674 678,676 678,676 679,676 679,676 680,676 681,676 681,676 682,676 682,676 683,677 683,677 684,677 685,677 685,677 686,677 686,677 687,677 687,677 688,677 688,677 689,677 690,677 690,677 691,677 691,677 692,674 692,674 693,674 694,674 694,674 695,674 695,674 696,674 696,674 697,674 697,674 698,674 699,674 699,674 700,673 700,673 701,673 701,673 702,673 702,673 703,673 704,673 704,673 705,673 705,673 706,671 706,671 707,671 708,671 708,671 709,671 709,670 710,670 710,670 711,670 711,670 712,670 713,670 713,670 714,670 714,670 715,670 715,671 716,671 717,671 717,671 718,671 718,671 719,671 719,671 720,671 720,671 721,673 722,673 722,673 723,673 723,673 724,673 724,673 725,673 725,673 726,673 727,673 727,673 728,673 728,673 729,673 729,671 730,671 731,671 731,671 732,670 732,670 733,670 733,670 734,670 734,670 735,670 736,670 736,670 737,670 737,669 738,669 738,669 739,669 740,669 740,669 741,667 741,666 742,666 742,666 743,666 743,666 744,666 745,666 745,666 746,664 746,664 747,663 747,663 748,664 748,664 749,664 750,664 750,664 751,664 751,663 752,663 752,663 753,663 754,663 754,663 755,663 755,663 756,663 756,663 757,663 757,663 758,663 759,663 759,663 760,663 760,663 761,663 761,663 762,663 763,663 763,663 764,664 764,664 765,664 765,664 766,664 766,664 767,664 768,664 768,664 769,664 769,664 770,664 770,664 771,664 772,664 772,664 773,664 773,664 774,664 774,664 775,664 776,663 777,663 777,663 778,663 778,663 779,663 779,663 780,663 780,662 781,662 782,662 782,662 783,662 783,662 784,662 784,662 785,662 786,662 786,662 787,662 787,662 788,662 788,662 789,662 789,662 790,662 791,660 791,660 792,660 792,660 793,660 793,660 794,660 795,660 795,660 796,660 796,660 797,660 797,660 798,659 798,659 799,659 800,659 800,659 801,659 801,659 802,659 802,659 803,659 803,659 804,659 805,659 805,658 806,658 806,656 807,656 807,656 808,655 809,653 809,653 810,653 810,653 810,653 811,653 811,653 812,653 812,652 813,652 814,652 814,652 815,652 815,652 816,652 816,652 817,652 818,652 818,652 819,652 819,652 820,652 820,652 821,651 821,651 822,651 823,651 823,651 824,651 824,651 825,651 825,651 826,649 826,649 827,649 828,649 828,649 829,651 829,651 830,651 830,651 831,651 832,651 832,651 833,651 833,651 834,651 834,651 835,651 835,651 836,651 837,651 837,651 838,651 838,651 839,651 839,651 840,651 841,651 841,651 842,651 842,651 843,651 843,651 844,651 844,651 845,651 846,651 846,651 847,651 847,651 848,651 848,651 849,651 849,649 850,649 851,648 851,648 852,648 852,646 853,646 853,646 854,646 855,646 855,646 856,645 856,645 857,645 857,644 858,644 858,644 859,644 860,644 860,644 861,644 861,644 862,644 862,644 863,644 864,642 864,644 865,642 865,642 866,642 866,642 867,641 867,641 868,638 869,638 869,638 870,638 870,638 871,638 871,638 872,638 872,638 873,638 874,638 874,638 875,638 875,638 876,638 876,637 877,637 878,637 878,637 879,637 879,637 880,637 880,635 881,635 881,635 882,634 883,634 883,632 884,632 884,632 885,632 885,632 886,631 887,631 887,631 888,631 888,631 889,631 889,631 890,631 890,631 891,631 892,631 892,631 893,630 893,627 894,627 894,627 895,624 895,624 896,624 897,624 897,624 898,624 898,623 899,621 899,620 900,620 901,620 901,617 902,619 902,619 903,619 903,617 904,617 904,616 905,616 906,616 906,616 907,616 907,616 908,616 908,616 909,616 910,616 910,616 911,614 911,614 912,613 912,612 913,610 913,610 914,610 915,607 915,607 916,607 916,607 917,607 917,607 918,609 919,607 919,607 920,607 920,607 921,607 921,607 922,607 922,607 923,607 924,607 924,606 925,606 925,606 926,606 926,606 927,606 927,606 928,606 929,606 929,606 930,606 930,606 931,606 931,606 932,606 933,606 933,606 934,606 934,606 935,606 935,606 936,606 936,606 937,606 938,606 938,605 939,603 939,603 940,602 940,602 941,602 942,602 942,600 943,600 943,600 944,600 944,600 945,600 945,600 946,600 947,600 947,599 948,599 948,599 949,599 949,598 950,598 950,596 951,596 952,596 952,596 953,596 953,596 954,595 954,595 955,593 956,593 956,593 957,593 957,593 958,593 958,593 959,593 959,593 960,595 961,595 961,595 962,595 962,595 963,595 963,595 964,595 965,595 965,595 966,595 966,592 967,592 967,591 968,591 968,591 969,591 970,591 970,591 971,591 971,591 972,592 972,591 973,591 973,591 974,591 975,589 975,589 976,589 976,589 977,589 977,589 978,588 979,588 979,588 980,586 980,586 981,586 981,586 982,586 982,586 983,586 984,586 984,586 985,586 985,586 986,586 986,586 988,585 988,585 989,585 989,585 990,585 990,585 991,585 991,584 993,584 993,584 994,584 994,584 995,584 996,584 996,582 997,582 998,582 998,582 999,581 999,581 1000,581 1001,579 1002,579 1002,578 1003,577 1003,577 1004,577 1004,577 1005,575 1005,575 1006,575 1007,575 1007,575 1008,575 1008,575 1009,575 1009,575 1010,574 1011,574 1011,574 1012,574 1012,574 1013,574 1013,574 1014,573 1014,573 1015,573 1016,573 1016,573 1017,570 1017,570 1018,570 1018,570 1019,570 1019,570 1020,568 1021,567 1021,567 1022,567 1022,566 1023,564 1023,564 1024,564 1025,563 1025,560 1026,560 1026,560 1027,560 1027,559 1027,557 1028,557 1029,557 1030,556 1030,556 1031,556 1031,552 1032,552 1032,550 1033,550 1034,550 1034,550 1035,550 1035,550 1036,550 1036,550 1037,549 1037,549 1038,547 1039,547 1039,547 1040,546 1040,546 1041,546 1041,546 1042,543 1042,543 1043,540 1044,540 1044,539 1045,538 1045,536 1046,536 1046,536 1047,536 1048,533 1048,533 1049,533 1049,533 1050,532 1050,532 1051,531 1051,531 1052,531 1053,531 1053,531 1054,531 1054,531 1055,531 1055,531 1056,531 1057,531 1057,531 1058,531 1058,529 1059,528 1059,528 1060,528 1060,525 1061,524 1062,521 1062,520 1063,518 1063,518 1064,517 1064,518 1065,514 1066,514 1066,514 1067,514 1067,514 1068,511 1069,510 1069,510 1070,510 1071,510 1071,510 1072,508 1072,508 1073,508 1073,507 1074,507 1074,507 1075,507 1076,507 1076,507 1077,504 1077,504 1078,503 1078,501 1079,501 1080,500 1080,500 1081,500 1081,501 1082,503 1082,501 1083,499 1083,500 1084,500 1085,500 1085,500 1086,500 1086,499 1087,499 1087,499 1088,499 1089,496 1089,496 1090,492 1090,492 1091,492 1091,493 1092,493 1092,493 1093,493 1094,493 1094,493 1095,493 1095,489 1096,489 1096,489 1097,489 1097,489 1098,488 1099,488 1099,488 1100,488 1100,488 1101,486 1101,486 1102,485 1103,485 1103,485 1104,485 1104,486 1105,486 1105,486 1106,486 1106,486 1106,486 1106,486 1107,486 1108,485 1108,485 1108,485 1108,485 1109,485 1109,485 1109,485 1110,485 1110,485 1110,485 1110,485 1111,485 1111,482 1112,482 1112,482 1112,482 1112,479 1113,479 1113,479 1113,479 1113,479 1114,479 1114,479 1114,479 1114,479 1115,479 1115,479 1115,479 1116,479 1117,479 1117,479 1117,479 1117,478 1118,478 1118,476 1118,476 1118,476 1119,476 1119,476 1119,476 1119,476 1120,474 1120,474 1120,474 1121,474 1121,474 1122,474 1122,471 1122,471 1122,469 1123,469 1123,471 1123,471 1123,471 1124,471 1124,471 1124,471 1124,471 1125,471 1125,471 1126,471 1126,471 1126,471 1127,471 1127,469 1127,469 1127,471 1128,471 1128,472 1128,472 1128,471 1129,471 1129,471 1129,471 1129,471 1130,471 1130,471 1131,471 1131,468 1131,468 1131,468 1132,468 1132,468 1132,468 1133,467 1133,467 1133,467 1134,467 1134,467 1135,467 1135,467 1135,467 1135,467 1136,467 1136,465 1136,465 1136,465 1137,465 1137,464 1137,464 1137,464 1138,464 1138,464 1138,464 1139,462 1139,461 1140,461 1140,461 1140,461 1140,461 1141,461 1141,461 1141,461 1141,460 1142,460 1142,460 1142,460 1143,460 1143,457 1143,457 1143,455 1144,455 1144,455 1145,455 1145,455 1145,455 1145,455 1146,455 1146,455 1146,455 1146,455 1147,455 1147,455 1147,455 1147,455 1148,455 1148,454 1149,454 1149,454 1149,454 1149,454 1150,454 1150,455 1150,455 1150,453 1151,453 1151,451 1151,451 1151,451 1152,451 1152,451 1152,451 1153,451 1153,448 1154,448 1154,448 1154,448 1154,447 1155,447 1155,447 1155,447 1155,447 1156,447 1156,447 1156,447 1156,448 1157,448 1157,448 1158,448 1158,448 1158,448 1159,448 1159,447 1159,447 1159,447 1160,447 1160,447 1160,447 1160,447 1161,447 1161,447 1162,447 1163,447 1163,446 1163,446 1164,446 1164,444 1164,444 1164,444 1165,444 1165,443 1165,443 1165,443 1166,443 1166,442 1166,442 1166,443 1167,443 1167,443 1168,443 1168,443 1168,443 1168,443 1169,443 1169,443 1169,443 1170,443 1170,443 1170,443 1170,443 1171,443 1171,444 1172,444 1172,444 1172,444 1172,443 1173,443 1173,446 1173,446 1173,446 1174,446 1174,446 1174,446 1174,447 1175,447 1175,447 1175,447 1175,447 1176,447 1176,446 1177,446 1177,446 1177,446 1177,446 1178,444 1178,444 1179,444 1179,444 1179,444 1179,444 1180,444 1180,444 1181,444 1181,444 1181,444 1181,444 1182,444 1182,444 1182,444 1182,444 1183,443 1183,443 1183,443 1184,443 1184,443 1184,443 1184,443 1185,443 1185,442 1186,442 1186,442 1186,442 1186,442 1187,442 1187,442 1187,442 1187,442 1188,440 1188,440 1188,442 1189,442 1189,442 "/>
<rect x="1085" y="323" width="100" height="104" opacity="1" fill="#FFFFFF" stroke="none"/>
<rect x="1085" y="323" width="100" height="104" opacity="1" fill="none" stroke="#000000"/>
<text x="1125" y="333" dy="0.76em" text-anchor="start" font-family="sans-serif" font-size="9.67741935483871" opacity="1" fill="#000000">
ansi_term
</text>
<text x="1125" y="348" dy="0.76em" text-anchor="start" font-family="sans-serif" font-size="9.67741935483871" opacity="1" fill="#000000">
colored
</text>
<text x="1125" y="363" dy="0.76em" text-anchor="start" font-family="sans-serif" font-size="9.67741935483871" opacity="1" fill="#000000">
console
</text>
<text x="1125" y="378" dy="0.76em" text-anchor="start" font-family="sans-serif" font-size="9.67741935483871" opacity="1" fill="#000000">
term
</text>
<text x="1125" y="393" dy="0.76em" text-anchor="start" font-family="sans-serif" font-size="9.67741935483871" opacity="1" fill="#000000">
termcolor
</text>
<text x="1125" y="408" dy="0.76em" text-anchor="start" font-family="sans-serif" font-size="9.67741935483871" opacity="1" fill="#000000">
termion
</text>
<polyline fill="none" opacity="1" stroke="#E61919" stroke-width="2" points="1095,338 1115,338 "/>
<polyline fill="none" opacity="1" stroke="#E5E619" stroke-width="2" points="1095,352 1115,352 "/>
<polyline fill="none" opacity="1" stroke="#19E619" stroke-width="2" points="1095,367 1115,367 "/>
<polyline fill="none" opacity="1" stroke="#19E5E6" stroke-width="2" points="1095,382 1115,382 "/>
<polyline fill="none" opacity="1" stroke="#1919E6" stroke-width="2" points="1095,397 1115,397 "/>
<polyline fill="none" opacity="1" stroke="#E519E6" stroke-width="2" points="1095,412 1115,412 "/>
</svg>
