<svg width="1200" height="800" xmlns="http://www.w3.org/2000/svg">
<rect x="0" y="0" width="1199" height="799" opacity="1" fill="#FFFFFF" stroke="none"/>
<line opacity="0.1" stroke="#000000" stroke-width="1" x1="60" y1="732" x2="1190" y2="732"/>
<line opacity="0.1" stroke="#000000" stroke-width="1" x1="60" y1="720" x2="1190" y2="720"/>
<line opacity="0.1" stroke="#000000" stroke-width="1" x1="60" y1="708" x2="1190" y2="708"/>
<line opacity="0.1" stroke="#000000" stroke-width="1" x1="60" y1="696" x2="1190" y2="696"/>
<line opacity="0.1" stroke="#000000" stroke-width="1" x1="60" y1="684" x2="1190" y2="684"/>
<line opacity="0.1" stroke="#000000" stroke-width="1" x1="60" y1="672" x2="1190" y2="672"/>
<line opacity="0.1" stroke="#000000" stroke-width="1" x1="60" y1="660" x2="1190" y2="660"/>
<line opacity="0.1" stroke="#000000" stroke-width="1" x1="60" y1="648" x2="1190" y2="648"/>
<line opacity="0.1" stroke="#000000" stroke-width="1" x1="60" y1="636" x2="1190" y2="636"/>
<line opacity="0.1" stroke="#000000" stroke-width="1" x1="60" y1="624" x2="1190" y2="624"/>
<line opacity="0.1" stroke="#000000" stroke-width="1" x1="60" y1="612" x2="1190" y2="612"/>
<line opacity="0.1" stroke="#000000" stroke-width="1" x1="60" y1="600" x2="1190" y2="600"/>
<line opacity="0.1" stroke="#000000" stroke-width="1" x1="60" y1="588" x2="1190" y2="588"/>
<line opacity="0.1" stroke="#000000" stroke-width="1" x1="60" y1="576" x2="1190" y2="576"/>
<line opacity="0.1" stroke="#000000" stroke-width="1" x1="60" y1="564" x2="1190" y2="564"/>
<line opacity="0.1" stroke="#000000" stroke-width="1" x1="60" y1="552" x2="1190" y2="552"/>
<line opacity="0.1" stroke="#000000" stroke-width="1" x1="60" y1="540" x2="1190" y2="540"/>
<line opacity="0.1" stroke="#000000" stroke-width="1" x1="60" y1="528" x2="1190" y2="528"/>
<line opacity="0.1" stroke="#000000" stroke-width="1" x1="60" y1="516" x2="1190" y2="516"/>
<line opacity="0.1" stroke="#000000" stroke-width="1" x1="60" y1="504" x2="1190" y2="504"/>
<line opacity="0.1" stroke="#000000" stroke-width="1" x1="60" y1="492" x2="1190" y2="492"/>
<line opacity="0.1" stroke="#000000" stroke-width="1" x1="60" y1="480" x2="1190" y2="480"/>
<line opacity="0.1" stroke="#000000" stroke-width="1" x1="60" y1="468" x2="1190" y2="468"/>
<line opacity="0.1" stroke="#000000" stroke-width="1" x1="60" y1="456" x2="1190" y2="456"/>
<line opacity="0.1" stroke="#000000" stroke-width="1" x1="60" y1="444" x2="1190" y2="444"/>
<line opacity="0.1" stroke="#000000" stroke-width="1" x1="60" y1="432" x2="1190" y2="432"/>
<line opacity="0.1" stroke="#000000" stroke-width="1" x1="60" y1="420" x2="1190" y2="420"/>
<line opacity="0.1" stroke="#000000" stroke-width="1" x1="60" y1="408" x2="1190" y2="408"/>
<line opacity="0.1" stroke="#000000" stroke-width="1" x1="60" y1="396" x2="1190" y2="396"/>
<line opacity="0.1" stroke="#000000" stroke-width="1" x1="60" y1="384" x2="1190" y2="384"/>
<line opacity="0.1" stroke="#000000" stroke-width="1" x1="60" y1="372" x2="1190" y2="372"/>
<line opacity="0.1" stroke="#000000" stroke-width="1" x1="60" y1="360" x2="1190" y2="360"/>
<line opacity="0.1" stroke="#000000" stroke-width="1" x1="60" y1="348" x2="1190" y2="348"/>
<line opacity="0.1" stroke="#000000" stroke-width="1" x1="60" y1="336" x2="1190" y2="336"/>
<line opacity="0.1" stroke="#000000" stroke-width="1" x1="60" y1="324" x2="1190" y2="324"/>
<line opacity="0.1" stroke="#000000" stroke-width="1" x1="60" y1="312" x2="1190" y2="312"/>
<line opacity="0.1" stroke="#000000" stroke-width="1" x1="60" y1="300" x2="1190" y2="300"/>
<line opacity="0.1" stroke="#000000" stroke-width="1" x1="60" y1="288" x2="1190" y2="288"/>
<line opacity="0.1" stroke="#000000" stroke-width="1" x1="60" y1="276" x2="1190" y2="276"/>
<line opacity="0.1" stroke="#000000" stroke-width="1" x1="60" y1="264" x2="1190" y2="264"/>
<line opacity="0.1" stroke="#000000" stroke-width="1" x1="60" y1="252" x2="1190" y2="252"/>
<line opacity="0.1" stroke="#000000" stroke-width="1" x1="60" y1="240" x2="1190" y2="240"/>
<line opacity="0.1" stroke="#000000" stroke-width="1" x1="60" y1="228" x2="1190" y2="228"/>
<line opacity="0.1" stroke="#000000" stroke-width="1" x1="60" y1="216" x2="1190" y2="216"/>
<line opacity="0.1" stroke="#000000" stroke-width="1" x1="60" y1="204" x2="1190" y2="204"/>
<line opacity="0.1" stroke="#000000" stroke-width="1" x1="60" y1="192" x2="1190" y2="192"/>
<line opacity="0.1" stroke="#000000" stroke-width="1" x1="60" y1="180" x2="1190" y2="180"/>
<line opacity="0.1" stroke="#000000" stroke-width="1" x1="60" y1="168" x2="1190" y2="168"/>
<line opacity="0.1" stroke="#000000" stroke-width="1" x1="60" y1="156" x2="1190" y2="156"/>
<line opacity="0.1" stroke="#000000" stroke-width="1" x1="60" y1="144" x2="1190" y2="144"/>
<line opacity="0.1" stroke="#000000" stroke-width="1" x1="60" y1="132" x2="1190" y2="132"/>
<line opacity="0.1" stroke="#000000" stroke-width="1" x1="60" y1="120" x2="1190" y2="120"/>
<line opacity="0.1" stroke="#000000" stroke-width="1" x1="60" y1="108" x2="1190" y2="108"/>
<line opacity="0.1" stroke="#000000" stroke-width="1" x1="60" y1="96" x2="1190" y2="96"/>
<line opacity="0.1" stroke="#000000" stroke-width="1" x1="60" y1="84" x2="1190" y2="84"/>
<line opacity="0.1" stroke="#000000" stroke-width="1" x1="60" y1="72" x2="1190" y2="72"/>
<line opacity="0.1" stroke="#000000" stroke-width="1" x1="60" y1="60" x2="1190" y2="60"/>
<line opacity="0.1" stroke="#000000" stroke-width="1" x1="60" y1="48" x2="1190" y2="48"/>
<line opacity="0.1" stroke="#000000" stroke-width="1" x1="60" y1="36" x2="1190" y2="36"/>
<line opacity="0.1" stroke="#000000" stroke-width="1" x1="60" y1="24" x2="1190" y2="24"/>
<line opacity="0.1" stroke="#000000" stroke-width="1" x1="60" y1="12" x2="1190" y2="12"/>
<text x="10" y="375" dy="0.76em" text-anchor="middle" font-family="sans-serif" font-size="9.67741935483871" opacity="1" fill="#000000" transform="rotate(270, 10, 375)">
Fraction of dependent crates
</text>
<line opacity="0.2" stroke="#000000" stroke-width="1" x1="60" y1="624" x2="1190" y2="624"/>
<line opacity="0.2" stroke="#000000" stroke-width="1" x1="60" y1="504" x2="1190" y2="504"/>
<line opacity="0.2" stroke="#000000" stroke-width="1" x1="60" y1="384" x2="1190" y2="384"/>
<line opacity="0.2" stroke="#000000" stroke-width="1" x1="60" y1="264" x2="1190" y2="264"/>
<line opacity="0.2" stroke="#000000" stroke-width="1" x1="60" y1="144" x2="1190" y2="144"/>
<line opacity="0.2" stroke="#000000" stroke-width="1" x1="60" y1="24" x2="1190" y2="24"/>
<polyline fill="none" opacity="1" stroke="#000000" stroke-width="1" points="59,10 59,740 "/>
<text x="50" y="624" dy="0.5ex" text-anchor="end" font-family="sans-serif" font-size="9.67741935483871" opacity="1" fill="#000000">
0.002
</text>
<polyline fill="none" opacity="1" stroke="#000000" stroke-width="1" points="54,624 59,624 "/>
<text x="50" y="504" dy="0.5ex" text-anchor="end" font-family="sans-serif" font-size="9.67741935483871" opacity="1" fill="#000000">
0.004
</text>
<polyline fill="none" opacity="1" stroke="#000000" stroke-width="1" points="54,504 59,504 "/>
<text x="50" y="384" dy="0.5ex" text-anchor="end" font-family="sans-serif" font-size="9.67741935483871" opacity="1" fill="#000000">
0.006
</text>
<polyline fill="none" opacity="1" stroke="#000000" stroke-width="1" points="54,384 59,384 "/>
<text x="50" y="264" dy="0.5ex" text-anchor="end" font-family="sans-serif" font-size="9.67741935483871" opacity="1" fill="#000000">
0.008
</text>
<polyline fill="none" opacity="1" stroke="#000000" stroke-width="1" points="54,264 59,264 "/>
<text x="50" y="144" dy="0.5ex" text-anchor="end" font-family="sans-serif" font-size="9.67741935483871" opacity="1" fill="#000000">
0.01
</text>
<polyline fill="none" opacity="1" stroke="#000000" stroke-width="1" points="54,144 59,144 "/>
<text x="50" y="24" dy="0.5ex" text-anchor="end" font-family="sans-serif" font-size="9.67741935483871" opacity="1" fill="#000000">
0.012
</text>
<polyline fill="none" opacity="1" stroke="#000000" stroke-width="1" points="54,24 59,24 "/>
<polyline fill="none" opacity="1" stroke="#000000" stroke-width="1" points="60,740 1190,740 "/>
<text x="60" y="750" dy="0.76em" text-anchor="middle" font-family="sans-serif" font-size="9.67741935483871" opacity="1" fill="#000000">
2015-01-27Z
</text>
<polyline fill="none" opacity="1" stroke="#000000" stroke-width="1" points="60,740 60,745 "/>
<text x="175" y="750" dy="0.76em" text-anchor="middle" font-family="sans-serif" font-size="9.67741935483871" opacity="1" fill="#000000">
2015-08-25Z
</text>
<polyline fill="none" opacity="1" stroke="#000000" stroke-width="1" points="175,740 175,745 "/>
<text x="291" y="750" dy="0.76em" text-anchor="middle" font-family="sans-serif" font-size="9.67741935483871" opacity="1" fill="#000000">
2016-03-22Z
</text>
<polyline fill="none" opacity="1" stroke="#000000" stroke-width="1" points="291,740 291,745 "/>
<text x="407" y="750" dy="0.76em" text-anchor="middle" font-family="sans-serif" font-size="9.67741935483871" opacity="1" fill="#000000">
2016-10-18Z
</text>
<polyline fill="none" opacity="1" stroke="#000000" stroke-width="1" points="407,740 407,745 "/>
<text x="523" y="750" dy="0.76em" text-anchor="middle" font-family="sans-serif" font-size="9.67741935483871" opacity="1" fill="#000000">
2017-05-16Z
</text>
<polyline fill="none" opacity="1" stroke="#000000" stroke-width="1" points="523,740 523,745 "/>
<text x="639" y="750" dy="0.76em" text-anchor="middle" font-family="sans-serif" font-size="9.67741935483871" opacity="1" fill="#000000">
2017-12-12Z
</text>
<polyline fill="none" opacity="1" stroke="#000000" stroke-width="1" points="639,740 639,745 "/>
<text x="755" y="750" dy="0.76em" text-anchor="middle" font-family="sans-serif" font-size="9.67741935483871" opacity="1" fill="#000000">
2018-07-10Z
</text>
<polyline fill="none" opacity="1" stroke="#000000" stroke-width="1" points="755,740 755,745 "/>
<text x="871" y="750" dy="0.76em" text-anchor="middle" font-family="sans-serif" font-size="9.67741935483871" opacity="1" fill="#000000">
2019-02-05Z
</text>
<polyline fill="none" opacity="1" stroke="#000000" stroke-width="1" points="871,740 871,745 "/>
<text x="986" y="750" dy="0.76em" text-anchor="middle" font-family="sans-serif" font-size="9.67741935483871" opacity="1" fill="#000000">
2019-09-03Z
</text>
<polyline fill="none" opacity="1" stroke="#000000" stroke-width="1" points="986,740 986,745 "/>
<text x="1102" y="750" dy="0.76em" text-anchor="middle" font-family="sans-serif" font-size="9.67741935483871" opacity="1" fill="#000000">
2020-03-31Z
</text>
<polyline fill="none" opacity="1" stroke="#000000" stroke-width="1" points="1102,740 1102,745 "/>
<polyline fill="none" opacity="1" stroke="#E61919" stroke-width="2" points="114,714 121,687 125,689 131,665 132,666 133,640 133,640 136,642 136,642 138,644 140,644 140,645 141,645 141,620 142,621 145,623 148,625 158,630 165,634 166,635 169,637 171,659 175,661 176,661 176,661 177,661 179,662 186,664 190,665 195,666 199,667 200,649 202,650 204,650 207,652 207,633 208,633 209,615 210,616 211,616 213,617 214,617 215,581 215,582 216,582 217,583 217,583 218,583 218,583 220,566 220,549 221,549 222,550 223,551 224,551 224,552 225,552 227,554 228,554 229,556 230,556 231,556 231,557 233,558 234,559 235,559 236,559 236,560 237,543 238,544 239,546 244,549 244,550 245,550 246,551 247,535 247,535 248,519 248,520 250,521 250,521 251,506 252,506 252,491 253,492 253,492 254,492 255,477 256,479 257,479 258,480 258,481 259,482 259,482 260,483 260,483 261,484 263,470 263,471 264,471 264,472 265,473 267,476 268,476 269,477 269,477 270,479 271,479 271,480 273,481 274,467 275,469 275,469 276,470 276,470 277,471 278,473 279,474 279,474 280,475 280,475 281,476 282,477 282,477 283,478 284,478 284,479 285,479 285,479 286,467 287,467 287,468 288,469 290,469 290,470 291,471 291,472 293,474 293,474 294,475 295,475 296,477 296,478 297,478 297,478 298,479 298,479 300,480 301,481 301,482 302,469 303,470 304,471 304,471 305,459 306,459 306,460 307,447 307,448 308,448 308,449 309,449 309,450 310,451 311,452 311,452 312,453 314,456 314,456 315,457 316,458 317,458 317,459 318,459 318,460 319,460 319,461 320,461 320,461 321,462 322,463 322,463 323,463 323,464 324,465 324,465 325,466 327,468 327,468 328,468 328,469 329,470 329,470 332,472 333,473 333,473 334,474 334,474 335,474 335,475 336,475 336,476 337,476 338,477 338,477 339,478 339,478 340,479 340,479 341,468 341,457 342,446 343,435 343,436 344,436 344,437 345,437 345,438 346,439 346,439 347,440 348,441 348,441 349,442 349,442 350,442 350,442 351,432 351,432 352,421 352,422 353,422 354,423 354,423 355,424 355,424 356,414 357,415 357,416 358,416 359,417 359,417 360,418 361,419 362,421 364,422 364,412 365,413 365,413 366,414 367,415 367,404 368,395 369,385 370,375 370,375 372,377 373,378 374,369 375,369 375,370 376,371 377,374 378,364 378,365 380,367 380,368 381,368 381,359 382,359 382,360 383,371 383,371 384,372 384,373 386,364 387,372 387,373 388,375 389,376 389,376 390,377 391,377 392,379 392,379 393,380 393,381 394,372 394,372 395,363 396,354 396,346 397,355 397,356 398,356 398,357 399,358 399,358 400,359 400,361 401,362 402,363 402,363 403,364 403,364 404,356 404,356 405,357 405,357 406,358 407,359 407,359 408,360 409,361 410,337 410,337 411,329 412,329 412,330 413,330 413,322 414,322 414,314 415,315 415,315 416,316 417,317 418,317 418,318 419,319 419,320 420,320 420,321 421,313 421,314 422,314 423,315 423,324 424,324 424,325 425,326 425,327 426,327 426,328 427,328 428,329 428,329 429,330 429,330 430,331 430,332 431,332 431,333 432,325 433,326 434,318 434,319 435,319 435,320 436,320 437,322 439,324 439,325 440,319 440,320 441,320 441,321 442,322 442,314 443,315 444,316 444,317 445,318 445,319 446,319 446,321 447,313 447,314 448,307 448,307 449,308 450,300 450,294 451,302 451,303 452,304 452,305 453,306 453,306 454,307 455,308 456,309 456,302 457,303 457,303 458,304 458,305 459,305 460,306 460,307 461,308 461,301 462,301 462,302 463,303 463,304 464,306 464,306 465,299 466,300 466,301 467,302 467,303 468,304 468,297 469,297 469,298 470,291 471,291 471,285 472,285 472,286 473,280 473,280 474,281 474,282 475,275 476,269 476,270 477,270 477,271 478,272 478,273 479,274 479,275 480,268 480,262 481,263 482,264 482,265 483,266 483,267 484,262 484,263 485,263 485,264 486,265 487,258 487,259 488,260 488,261 489,261 489,262 490,263 490,263 491,264 492,272 492,266 493,267 493,268 494,269 494,262 495,263 495,264 496,264 496,265 497,265 498,266 498,267 499,261 499,261 500,262 500,256 501,243 501,244 502,244 503,246 503,246 504,254 504,255 505,255 505,256 506,257 506,257 507,258 508,259 508,260 509,261 509,261 510,262 510,263 511,263 511,265 512,266 512,266 513,267 514,267 514,261 515,255 515,249 516,250 516,245 517,246 517,247 518,248 519,248 519,249 520,244 520,245 521,245 521,245 522,246 522,247 523,248 524,242 524,243 525,244 525,247 526,254 526,248 527,249 527,244 528,245 528,246 529,246 530,247 530,242 531,243 531,250 532,245 532,245 533,246 533,248 534,249 535,244 535,245 536,246 536,246 537,247 537,247 538,249 538,249 539,250 540,251 540,252 541,253 541,253 542,254 542,256 543,257 543,258 544,259 544,260 545,260 546,261 546,262 547,262 547,263 548,264 548,264 549,265 549,265 550,266 551,267 551,268 552,257 552,257 553,258 553,270 554,270 554,271 555,272 556,272 556,273 557,269 557,264 558,264 558,265 559,266 559,266 560,267 560,268 561,269 562,270 562,271 563,271 563,272 564,272 564,272 565,273 565,274 566,275 567,276 567,277 568,277 568,278 569,278 569,279 570,274 570,268 571,269 572,270 572,265 573,265 573,261 574,262 574,263 575,263 575,264 576,265 576,265 577,266 578,266 578,267 579,268 579,268 580,269 580,264 581,259 581,260 582,261 583,261 583,262 584,258 584,259 585,259 585,259 586,260 586,261 587,256 588,257 588,257 589,247 589,243 590,249 590,244 591,234 591,234 592,235 592,236 593,237 594,237 594,238 595,244 595,245 596,245 596,246 597,248 597,249 598,250 599,245 599,246 600,246 600,247 601,248 601,248 602,249 602,249 603,250 604,251 604,252 605,252 605,254 606,249 606,250 607,251 608,252 608,253 609,253 610,249 610,250 611,245 611,246 612,246 612,242 613,243 613,244 614,244 615,245 615,236 616,236 616,237 617,233 617,234 618,235 618,236 619,236 620,233 620,228 621,229 621,225 622,226 622,227 623,228 623,228 624,229 625,230 625,225 626,221 626,221 627,222 627,223 628,223 628,224 629,224 629,225 630,226 631,226 631,227 632,232 632,233 633,234 633,230 634,231 634,232 635,232 636,233 636,229 637,229 637,230 638,230 638,231 639,232 639,233 640,233 641,234 641,235 642,226 642,227 643,227 643,227 644,228 644,229 645,229 645,230 646,230 647,231 647,232 648,233 648,233 649,230 649,230 650,231 650,231 651,232 652,232 652,228 653,229 653,230 654,230 654,231 655,227 655,228 656,229 657,225 657,226 658,223 658,224 659,220 659,225 660,225 660,226 661,227 661,228 662,228 663,229 663,229 664,230 664,230 665,236 665,236 666,237 666,238 667,240 668,241 668,237 669,238 669,230 670,230 670,231 671,228 671,229 672,225 673,226 673,227 674,228 674,233 675,233 675,230 676,230 676,231 677,232 677,233 678,234 679,234 679,235 680,236 680,237 681,238 681,239 682,235 682,231 683,232 684,233 684,233 685,234 685,230 686,235 686,232 687,232 687,233 688,234 689,235 689,236 690,238 690,239 691,239 691,240 692,237 692,237 693,238 693,235 694,231 695,232 695,233 696,229 696,230 697,227 697,228 698,229 698,226 699,227 700,227 700,228 701,233 701,233 702,234 702,235 703,235 703,236 704,237 705,238 705,238 706,239 706,239 707,240 707,244 708,245 708,246 709,242 709,243 710,244 711,244 711,241 712,242 712,242 713,235 713,236 714,236 714,237 715,237 716,238 716,239 717,236 717,237 718,238 718,238 719,239 719,240 720,240 721,241 721,241 722,242 722,242 723,243 723,244 724,245 725,246 725,246 726,247 727,247 727,248 728,244 728,245 729,242 729,242 730,243 730,240 731,240 732,245 732,245 733,246 733,239 734,239 734,236 735,236 735,237 736,234 737,234 737,234 738,235 738,236 739,236 739,237 740,234 740,234 741,235 741,235 742,236 743,236 743,237 744,238 744,238 745,239 745,239 746,232 746,233 747,233 748,234 748,235 749,235 749,236 750,236 750,236 751,237 751,237 752,238 753,239 753,239 754,239 754,237 755,237 755,234 756,234 756,236 757,236 757,236 758,237 759,238 759,235 760,228 760,228 761,229 761,230 762,230 762,230 763,231 764,231 764,232 765,232 765,233 766,234 766,235 767,236 767,236 768,237 769,241 769,242 770,239 770,242 771,242 771,243 772,244 772,244 773,245 773,246 774,246 775,247 775,244 776,245 776,246 777,246 777,243 778,241 778,241 779,242 780,243 780,246 781,247 781,247 782,248 782,249 783,252 783,252 784,253 785,254 785,254 786,255 786,255 787,253 787,253 788,254 788,251 789,252 789,252 790,253 791,253 791,254 792,255 792,255 793,256 793,256 794,257 794,257 795,258 796,258 796,259 797,260 797,257 798,258 798,258 798,259 799,260 799,260 800,258 801,258 801,259 802,260 802,259 803,259 803,259 804,257 804,257 805,258 805,256 806,256 807,257 807,258 808,256 808,261 809,258 809,255 810,256 810,257 811,254 812,255 812,253 813,253 813,254 814,255 814,256 815,256 815,254 816,255 817,255 817,256 818,257 818,259 819,259 819,260 820,260 820,258 821,259 821,259 822,260 823,260 823,261 824,262 824,263 825,260 825,261 826,261 826,259 827,260 828,260 828,261 829,258 829,259 830,260 830,257 831,255 831,255 832,256 833,254 833,248 834,249 834,249 835,250 835,251 836,251 836,251 837,252 837,247 838,248 839,245 839,246 840,244 840,242 841,243 841,243 842,243 842,244 843,242 844,240 844,241 845,242 845,242 846,243 846,243 847,244 847,244 848,245 849,246 849,246 850,247 850,248 851,248 851,248 852,244 852,245 853,243 853,241 854,241 855,240 855,260 856,261 856,259 857,240 857,240 858,241 858,239 859,240 860,241 860,238 861,239 861,237 862,237 862,238 863,239 863,239 864,237 865,238 865,238 866,239 866,240 867,238 867,239 868,239 868,240 869,241 869,239 870,240 871,238 871,239 872,239 872,240 873,241 873,241 874,242 874,243 875,243 876,244 876,242 877,243 877,243 878,244 878,244 879,246 879,247 880,248 881,248 881,249 882,250 882,247 883,248 883,249 884,249 884,250 885,251 885,252 886,252 887,250 887,251 888,246 888,247 889,247 889,248 890,249 890,250 891,250 892,251 892,249 893,247 893,246 894,246 894,247 895,247 895,248 896,249 897,247 897,248 898,249 898,249 899,250 899,251 900,251 900,252 901,252 901,253 902,249 903,249 903,250 904,251 904,251 905,249 905,250 906,251 906,251 907,252 908,253 908,253 909,251 909,252 910,253 910,253 911,254 911,254 912,255 913,253 913,253 914,254 914,254 915,253 915,251 916,251 916,252 917,253 917,253 918,251 919,252 919,254 920,255 920,255 921,256 921,257 922,258 922,259 923,259 924,260 924,258 925,259 925,260 926,253 926,254 927,254 927,255 928,253 929,254 929,254 930,253 930,253 931,254 931,254 932,255 932,255 933,256 933,255 934,255 935,256 935,256 936,257 936,258 937,258 937,257 938,253 938,253 939,254 940,254 940,255 941,253 941,254 942,254 942,255 943,256 943,256 944,257 945,257 945,258 946,258 946,259 947,259 947,259 948,260 948,260 949,261 949,255 950,256 951,256 951,257 952,258 952,258 953,259 953,260 954,261 954,257 955,257 956,258 956,258 957,256 957,257 958,258 958,258 959,258 959,259 960,257 961,258 961,257 962,257 962,258 963,258 963,259 964,260 964,260 965,261 965,262 966,260 967,261 967,259 968,260 968,261 969,262 969,262 970,262 970,263 971,264 972,264 972,263 973,264 973,264 974,264 974,265 975,266 975,266 976,267 977,267 977,268 978,266 978,266 979,267 979,268 980,266 980,265 981,265 981,266 982,266 983,267 983,267 984,267 984,268 985,269 985,267 986,268 986,267 987,271 988,272 988,272 989,273 989,272 990,272 990,271 991,270 991,270 992,271 993,269 993,269 994,270 994,268 995,269 995,262 996,262 996,261 997,262 997,263 998,265 999,266 999,267 1000,265 1000,264 1001,264 1001,263 1002,263 1002,263 1003,264 1004,262 1004,261 1005,261 1005,260 1006,261 1006,267 1007,268 1007,266 1008,269 1009,269 1009,270 1010,271 1010,271 1011,272 1011,272 1011,273 1012,273 1012,274 1013,274 1013,275 1014,275 1015,276 1015,277 1016,275 1016,274 1017,271 1017,271 1018,271 1018,272 1019,272 1020,273 1020,273 1021,274 1021,274 1022,275 1022,273 1023,274 1023,275 1024,275 1025,275 1025,276 1026,277 1026,275 1027,276 1027,276 1028,277 1028,277 1029,278 1029,279 1030,279 1031,280 1031,280 1032,281 1032,281 1033,282 1033,283 1034,283 1034,282 1035,280 1036,281 1036,279 1037,278 1037,274 1038,275 1038,275 1039,276 1039,276 1040,277 1041,278 1041,276 1042,277 1042,278 1043,278 1043,277 1044,277 1044,267 1045,268 1045,268 1046,269 1047,269 1047,270 1048,269 1048,269 1049,270 1049,270 1050,271 1050,271 1051,272 1052,271 1052,271 1053,272 1053,271 1054,272 1054,271 1055,272 1055,273 1056,273 1057,274 1057,273 1058,273 1058,274 1059,275 1059,273 1060,274 1060,271 1061,271 1061,274 1062,275 1063,276 1063,275 1064,275 1064,276 1065,278 1065,279 1066,279 1066,280 1067,280 1068,281 1068,281 1069,281 1069,280 1070,281 1070,278 1071,277 1071,278 1072,278 1073,279 1073,281 1074,281 1074,282 1075,281 1075,281 1076,280 1076,281 1077,281 1077,282 1078,279 1079,280 1079,282 1080,283 1080,283 1081,283 1081,284 1082,285 1082,285 1083,286 1084,286 1084,285 1085,286 1085,288 1086,287 1086,285 1087,285 1087,285 1088,285 1089,286 1089,286 1089,286 1089,286 1090,287 1090,287 1090,287 1091,287 1091,288 1091,288 1092,288 1092,289 1092,289 1092,289 1093,289 1093,290 1093,290 1093,289 1094,289 1094,288 1095,288 1095,287 1095,287 1095,287 1096,287 1096,288 1096,288 1096,288 1097,288 1097,287 1097,288 1098,288 1098,287 1098,288 1099,288 1099,288 1100,288 1100,287 1100,287 1100,287 1101,287 1101,288 1101,288 1101,287 1102,287 1102,287 1102,286 1103,286 1103,287 1103,287 1103,287 1104,287 1104,288 1105,288 1105,289 1105,289 1105,290 1106,290 1106,290 1106,290 1106,290 1107,290 1107,291 1107,291 1107,291 1108,292 1108,292 1108,293 1109,293 1109,293 1109,293 1109,294 1110,294 1110,296 1111,296 1111,296 1111,296 1111,295 1112,295 1112,296 1112,296 1112,297 1113,297 1113,297 1113,297 1113,297 1114,297 1114,298 1114,297 1115,296 1116,296 1116,295 1116,295 1116,294 1117,294 1117,293 1117,293 1117,293 1118,293 1118,291 1118,291 1118,288 1119,288 1119,288 1119,288 1119,285 1120,285 1120,286 1121,288 1121,288 1121,288 1122,288 1122,289 1122,289 1122,288 1123,288 1123,287 1123,287 1123,286 1124,287 1124,287 1124,288 1125,288 1125,285 1125,285 1125,283 1126,283 1126,283 1127,283 1127,284 1127,284 1127,283 1128,283 1128,284 1128,284 1128,283 1129,283 1129,282 1129,282 1129,282 1130,282 1130,283 1130,283 1130,283 1131,283 1131,282 1132,282 1132,283 1132,283 1132,284 1133,284 1133,277 1133,277 1133,276 1134,276 1134,275 1134,276 1135,276 1135,277 1135,277 1135,277 1136,277 1136,279 1137,279 1137,278 1137,278 1137,278 1138,278 1138,279 1138,279 1138,279 1139,279 1139,278 1139,278 1139,279 1140,276 1140,276 1140,277 1141,277 1141,279 1141,279 1141,278 1142,278 1142,277 1143,277 1143,278 1143,278 1144,277 1144,277 1144,277 1145,278 1145,278 1145,278 1146,278 1146,279 1146,279 1146,278 1147,278 1147,277 1148,277 1148,278 1148,278 1148,277 1149,277 1149,277 1149,277 1149,278 1150,278 1150,277 1150,277 1150,277 1151,278 1151,278 1151,278 1152,278 1152,279 1153,279 1153,277 1153,277 1153,277 1154,277 1154,276 1154,276 1154,277 1155,277 1155,277 1155,277 1155,278 1156,278 1156,278 1156,278 1156,279 1157,279 1157,279 1157,279 1157,278 1158,278 1158,279 1159,279 1159,280 1159,280 1159,279 1160,279 1160,279 1160,280 1161,280 1161,278 1161,278 1161,278 1162,278 1162,279 1162,279 1162,279 1163,279 1163,280 1164,280 1164,281 1164,280 1165,280 1165,280 1165,280 1165,281 1166,281 1166,280 1166,280 1166,279 1167,279 1167,279 1167,280 1167,280 1168,280 1168,281 1169,281 1169,282 1169,282 1169,283 1170,283 1170,282 1170,282 1170,283 1171,283 1171,283 1171,283 1171,281 1172,281 1172,280 1172,280 1172,281 1173,281 1173,281 1173,281 1173,279 1174,279 1174,279 1175,280 1175,280 1175,283 1176,283 1176,283 1176,283 1176,284 1177,284 1177,286 1177,286 1177,287 1178,287 1178,287 1178,287 1178,286 1179,286 1179,285 1180,285 1180,287 1180,287 1180,287 1181,287 1181,285 1181,285 1181,286 1182,286 1182,287 1182,287 1182,287 1183,287 1183,286 1183,286 1183,287 1184,287 1184,286 1185,286 1185,287 1185,287 1185,288 1186,288 1186,287 1186,287 1186,287 1187,287 1187,288 1187,288 1187,290 1188,290 1188,288 1188,288 1188,287 1189,287 1189,288 1190,288 1190,288 "/>
<polyline fill="none" opacity="1" stroke="#E5E619" stroke-width="2" points="336,733 342,721 344,710 349,700 366,691 387,686 407,680 418,673 420,665 421,665 425,666 444,662 451,648 455,641 472,639 480,635 492,625 492,625 493,625 493,618 494,618 494,619 495,619 495,619 496,612 496,612 499,613 502,614 503,615 505,609 505,609 506,609 508,603 510,597 512,591 512,592 513,585 514,586 517,581 518,581 519,581 519,582 520,575 520,576 521,576 522,570 525,572 526,572 528,574 528,574 530,568 531,569 532,570 532,570 533,571 534,571 535,572 536,572 538,567 539,561 541,556 542,557 542,551 543,552 544,553 544,547 545,547 546,548 552,551 553,545 554,546 557,547 557,542 558,542 559,543 560,544 562,545 563,545 563,545 564,540 564,540 565,540 568,542 569,537 570,537 570,537 572,538 573,538 573,539 575,534 577,535 578,535 578,530 579,536 579,536 580,537 583,533 584,533 585,534 585,534 586,535 587,530 588,530 588,530 589,531 590,526 590,526 591,527 592,527 594,528 594,523 595,523 597,525 597,525 598,520 599,521 600,521 600,522 601,522 602,522 602,523 603,518 604,519 605,519 605,519 606,520 606,515 607,510 607,510 608,511 608,516 609,517 610,517 610,517 611,512 611,508 612,508 612,503 613,499 613,499 614,494 615,495 617,496 617,496 618,498 619,493 620,493 620,489 621,489 622,490 623,486 624,491 625,492 626,493 627,493 629,494 629,494 631,495 631,495 632,486 632,486 633,487 633,492 634,493 634,493 635,493 636,493 636,494 637,494 638,494 639,491 640,491 641,492 641,487 642,492 644,493 644,494 645,494 646,494 647,495 648,495 648,496 650,492 650,492 652,488 652,489 653,489 654,490 655,490 657,492 658,488 661,486 661,486 663,487 664,487 665,483 665,484 666,484 666,484 667,486 668,486 669,487 669,487 670,487 670,488 671,484 671,484 673,485 673,481 674,482 674,474 675,470 677,472 678,468 679,468 679,469 682,471 684,472 685,472 686,473 687,474 689,471 690,473 691,469 692,466 692,466 695,468 695,468 696,469 696,469 697,470 701,469 701,469 702,465 702,466 703,462 705,459 706,460 706,460 707,456 707,457 708,453 708,450 709,450 710,451 711,452 712,452 712,452 713,453 714,454 715,454 716,451 717,452 717,452 718,449 718,449 719,450 719,446 720,439 721,439 722,440 724,446 726,443 727,432 728,429 728,433 729,433 729,433 730,430 732,431 733,432 734,433 735,433 735,433 737,430 738,431 738,431 739,428 740,428 740,425 741,425 741,426 742,426 743,423 743,423 744,420 745,417 745,417 746,417 746,418 748,415 749,416 749,416 750,413 750,413 751,414 752,414 753,415 754,408 754,405 755,405 755,405 756,402 756,403 757,403 757,403 758,404 759,404 760,405 760,405 761,405 762,406 762,406 763,407 764,407 764,404 765,404 766,406 767,406 767,407 768,407 770,407 771,407 771,408 772,405 772,402 773,399 773,399 775,400 775,397 776,398 777,395 777,396 778,396 778,397 779,397 780,398 780,397 781,394 781,394 782,395 783,394 783,391 785,392 785,392 786,390 786,390 787,390 787,391 788,391 789,392 789,392 790,393 791,393 791,394 792,394 792,394 793,395 793,395 794,393 794,393 795,390 796,390 796,391 797,388 797,379 798,380 798,380 798,380 800,378 801,379 802,371 802,369 803,366 803,363 804,364 804,364 805,361 806,363 807,363 808,365 808,369 809,366 811,365 812,360 812,360 813,355 813,355 814,356 814,357 815,357 815,357 816,358 817,356 817,350 818,351 818,346 819,347 819,347 820,345 820,345 821,346 821,346 822,346 823,347 823,345 824,345 824,340 825,340 825,341 826,342 827,342 828,340 828,340 829,341 829,341 830,342 830,342 831,343 831,340 832,341 833,341 833,342 834,342 834,342 835,340 835,341 836,341 836,341 837,342 837,343 838,343 839,341 839,338 840,339 840,340 841,337 841,338 842,338 842,338 843,339 844,334 844,335 845,332 845,333 846,330 846,331 847,331 848,333 849,333 849,334 850,334 850,332 851,329 851,327 852,325 852,323 853,326 853,327 854,325 855,326 855,340 856,341 856,341 857,325 857,326 858,326 858,327 859,328 860,323 860,326 861,324 861,321 862,319 862,319 863,317 863,312 864,310 865,311 866,312 866,313 867,311 867,311 868,312 868,312 869,313 869,314 870,315 871,315 871,318 872,319 872,319 873,318 874,316 874,316 875,317 876,318 876,318 877,319 877,317 878,315 878,315 879,316 879,307 880,307 881,308 881,309 882,307 882,302 883,297 883,298 884,293 884,294 885,295 885,295 886,291 887,291 887,289 888,287 888,290 889,288 889,286 890,285 890,285 891,283 892,284 892,282 893,283 894,284 894,285 895,280 895,281 896,279 897,280 897,276 898,276 898,272 899,270 899,271 900,269 900,264 901,265 901,263 902,261 903,262 903,262 904,263 904,263 905,264 905,264 906,265 906,264 907,264 908,265 908,265 909,266 909,267 910,262 910,263 911,261 911,261 912,262 913,260 913,261 914,261 914,262 915,262 915,263 916,263 916,264 917,264 917,265 918,261 919,261 919,259 920,260 920,260 921,261 921,257 922,258 922,259 923,257 924,257 924,256 925,257 925,257 926,258 926,256 927,252 927,250 928,251 929,249 929,247 930,246 930,240 931,238 931,238 932,237 932,237 933,238 933,236 934,235 935,235 935,234 936,236 936,233 937,233 937,230 938,226 938,228 939,229 940,229 940,228 941,228 941,229 942,230 942,230 943,229 943,229 944,230 945,230 945,231 946,231 946,230 947,228 947,223 948,222 948,223 949,223 949,222 950,223 951,219 951,220 952,220 952,223 953,221 953,223 954,223 954,224 955,222 956,225 956,221 957,222 957,222 958,218 958,219 959,217 959,213 960,207 961,206 961,207 962,208 962,204 963,205 963,205 964,206 964,207 965,208 965,207 966,207 967,207 967,208 968,203 968,202 969,202 969,203 970,203 970,204 971,203 972,203 972,202 973,201 973,199 974,199 975,199 975,197 976,200 977,200 977,201 978,201 978,202 979,201 979,202 980,204 980,205 981,205 981,206 982,206 983,207 983,207 984,208 984,207 985,207 985,208 986,209 986,210 987,208 988,209 988,209 989,210 989,211 990,211 990,211 991,211 991,210 992,210 993,210 993,211 994,209 994,212 995,209 995,209 996,208 996,210 997,211 997,211 998,206 999,200 999,201 1000,202 1000,202 1001,203 1001,205 1002,204 1002,208 1003,209 1004,207 1004,208 1005,208 1005,207 1006,208 1006,209 1007,209 1007,208 1008,206 1009,207 1009,206 1010,205 1010,204 1011,204 1011,204 1011,203 1012,204 1012,204 1013,201 1013,201 1014,198 1015,195 1015,196 1016,197 1016,195 1017,196 1017,195 1018,197 1018,198 1019,198 1020,199 1020,193 1021,194 1021,194 1022,193 1022,194 1023,193 1023,194 1024,194 1025,194 1025,195 1026,196 1026,197 1027,197 1027,198 1028,198 1028,197 1029,198 1029,199 1030,197 1031,198 1031,196 1032,195 1032,196 1033,197 1033,198 1034,198 1034,199 1035,199 1036,200 1036,200 1037,200 1037,201 1038,200 1038,200 1039,197 1039,196 1040,197 1041,198 1041,196 1042,195 1042,194 1043,194 1043,195 1044,194 1044,193 1045,192 1045,193 1046,193 1047,194 1047,194 1048,193 1048,192 1049,192 1049,195 1050,194 1050,193 1051,193 1052,192 1052,193 1053,191 1053,191 1054,192 1054,190 1055,191 1055,190 1056,189 1057,186 1057,187 1058,188 1058,187 1059,187 1059,186 1060,187 1060,186 1061,186 1061,187 1062,188 1063,189 1063,189 1064,189 1064,190 1065,190 1065,189 1066,190 1066,191 1067,191 1068,192 1068,192 1069,191 1069,190 1070,190 1070,186 1071,187 1071,184 1072,185 1073,176 1073,174 1074,173 1074,171 1075,172 1075,171 1076,171 1076,172 1077,173 1077,172 1078,171 1079,166 1079,167 1080,168 1080,165 1081,167 1081,168 1082,169 1082,163 1083,164 1084,166 1084,168 1085,169 1085,166 1086,167 1086,166 1087,172 1087,173 1088,173 1089,172 1089,172 1089,172 1089,169 1090,170 1090,170 1090,171 1091,171 1091,171 1091,170 1092,170 1092,168 1092,168 1092,167 1093,167 1093,164 1093,164 1093,164 1094,164 1094,163 1095,163 1095,163 1095,163 1095,162 1096,162 1096,163 1096,163 1096,162 1097,162 1097,162 1097,160 1098,160 1098,162 1098,163 1099,163 1099,164 1100,164 1100,163 1100,163 1100,164 1101,164 1101,164 1101,164 1101,160 1102,160 1102,161 1102,161 1103,161 1103,162 1103,162 1103,163 1104,163 1104,160 1105,160 1105,160 1105,160 1105,161 1106,161 1106,160 1106,160 1106,160 1107,160 1107,160 1107,160 1107,159 1108,158 1108,158 1108,157 1109,157 1109,156 1109,156 1109,152 1110,152 1110,153 1111,153 1111,152 1111,152 1111,151 1112,151 1112,151 1112,151 1112,148 1113,148 1113,146 1113,146 1113,146 1114,146 1114,147 1114,147 1115,147 1116,147 1116,143 1116,143 1116,144 1117,144 1117,144 1117,144 1117,145 1118,145 1118,144 1118,144 1118,145 1119,145 1119,146 1119,146 1119,147 1120,147 1120,145 1121,145 1121,145 1121,146 1122,146 1122,145 1122,145 1122,143 1123,143 1123,141 1123,141 1123,140 1124,141 1124,141 1124,142 1125,142 1125,143 1125,143 1125,142 1126,142 1126,141 1127,141 1127,142 1127,142 1127,143 1128,143 1128,141 1128,141 1128,141 1129,141 1129,142 1129,142 1129,144 1130,144 1130,143 1130,143 1130,141 1131,141 1131,140 1132,140 1132,141 1132,141 1132,142 1133,142 1133,138 1133,138 1133,139 1134,140 1134,139 1134,138 1135,138 1135,139 1135,139 1135,135 1136,135 1136,136 1137,136 1137,136 1137,136 1137,137 1138,137 1138,136 1138,136 1138,137 1139,137 1139,136 1139,136 1139,135 1140,136 1140,136 1140,132 1141,132 1141,130 1141,130 1141,128 1142,128 1142,127 1143,127 1143,126 1143,125 1144,123 1144,123 1144,122 1145,120 1145,120 1145,119 1146,119 1146,120 1146,120 1146,121 1147,121 1147,121 1148,121 1148,121 1148,121 1148,117 1149,117 1149,118 1149,118 1149,117 1150,117 1150,116 1150,115 1150,116 1151,116 1151,115 1151,115 1152,115 1152,116 1153,116 1153,114 1153,114 1153,111 1154,111 1154,113 1154,113 1154,113 1155,112 1155,111 1155,111 1155,110 1156,110 1156,110 1156,110 1156,110 1157,110 1157,111 1157,111 1157,111 1158,111 1158,112 1159,112 1159,110 1159,110 1159,106 1160,105 1160,105 1160,106 1161,106 1161,104 1161,104 1161,105 1162,105 1162,104 1162,104 1162,103 1163,103 1163,100 1164,100 1164,99 1164,101 1165,101 1165,101 1165,101 1165,102 1166,102 1166,103 1166,103 1166,102 1167,102 1167,100 1167,100 1167,100 1168,100 1168,100 1169,100 1169,98 1169,98 1169,93 1170,93 1170,94 1170,94 1170,94 1171,94 1171,95 1171,95 1171,96 1172,96 1172,95 1172,95 1172,91 1173,91 1173,90 1173,89 1173,88 1174,88 1174,85 1175,86 1175,86 1175,87 1176,87 1176,88 1176,88 1176,89 1177,89 1177,90 1177,90 1177,91 1178,91 1178,90 1178,90 1178,90 1179,90 1179,88 1180,88 1180,88 1180,88 1180,89 1181,89 1181,89 1181,89 1181,85 1182,85 1182,86 1182,86 1182,87 1183,87 1183,88 1183,88 1183,87 1184,87 1184,87 1185,87 1185,85 1185,85 1185,84 1186,84 1186,84 1186,84 1186,84 1187,84 1187,85 1187,85 1187,83 1188,83 1188,83 1188,81 1188,80 1189,80 1189,80 1190,80 1190,75 "/>
<polyline fill="none" opacity="1" stroke="#19E619" stroke-width="2" points="519,738 520,731 522,731 524,731 525,732 525,732 526,732 527,732 530,732 530,732 532,732 533,732 535,732 535,732 540,732 540,732 542,732 542,732 543,732 545,732 547,732 548,732 549,733 550,733 551,733 552,733 553,727 554,727 554,727 555,727 557,727 558,727 558,727 559,727 559,727 561,727 562,727 563,727 564,727 565,727 566,727 567,727 567,727 568,727 569,728 569,728 570,728 572,728 572,728 573,728 574,728 575,728 575,728 576,728 577,728 578,728 578,728 579,728 580,728 581,728 581,728 582,728 583,728 583,728 584,728 585,728 586,728 588,728 588,723 589,723 589,723 590,723 591,723 591,723 592,723 592,723 593,723 594,723 594,723 595,723 596,723 603,719 604,719 604,719 605,719 607,719 608,719 609,719 611,719 612,719 613,719 613,719 614,719 615,719 621,720 622,720 622,720 623,720 624,720 625,720 625,720 626,720 627,720 627,720 628,720 628,720 629,720 629,720 630,720 631,720 632,716 632,716 633,716 636,716 637,716 637,716 638,716 638,716 639,716 639,712 640,712 641,712 641,712 642,712 644,712 647,712 648,712 648,712 650,712 652,712 652,712 655,713 657,713 658,713 659,713 659,709 662,709 663,709 664,709 664,709 665,709 666,709 667,709 668,709 669,705 669,705 671,705 671,705 672,705 673,705 673,706 677,706 677,706 678,706 679,706 680,706 680,706 683,707 684,707 684,707 685,707 689,707 689,707 690,707 690,707 691,703 692,699 697,700 698,700 700,700 700,700 701,700 704,701 706,701 707,701 707,693 708,697 709,697 710,697 711,698 711,694 712,694 712,694 714,694 714,694 717,694 721,695 721,691 722,687 722,687 723,687 723,687 724,688 725,680 727,680 730,677 733,677 733,677 739,678 740,678 740,678 741,678 744,679 745,679 745,679 746,679 750,679 750,680 752,680 753,680 754,680 755,680 756,677 759,673 760,670 761,670 761,670 762,670 763,671 765,671 767,671 767,671 769,671 769,672 771,669 771,669 772,669 773,666 774,666 775,666 775,666 776,666 777,666 778,667 778,667 781,664 781,661 782,661 786,659 787,659 788,659 789,660 793,657 794,657 796,654 801,655 802,653 805,653 808,654 808,655 810,655 810,655 812,652 812,652 813,649 813,649 815,650 816,650 817,650 819,648 819,648 820,645 823,646 823,646 824,643 825,643 827,641 828,641 828,641 831,639 831,639 832,639 833,636 834,637 836,634 836,634 837,635 839,635 840,635 841,635 843,636 848,634 849,635 849,635 850,635 851,635 852,635 852,636 853,636 853,636 854,633 855,635 856,635 858,629 858,629 860,629 860,629 861,627 861,627 862,627 862,627 863,628 865,628 866,626 866,626 867,623 868,624 869,624 869,624 870,624 871,624 871,625 872,625 873,625 873,625 874,625 874,626 877,621 877,621 878,621 878,621 879,622 879,619 880,620 881,620 882,617 882,618 883,618 883,618 884,618 884,618 885,618 886,619 887,619 887,619 888,619 888,619 889,619 889,620 890,620 890,620 891,620 892,620 893,621 894,621 894,621 895,621 896,622 897,622 898,622 898,623 899,623 899,623 900,623 900,623 901,623 901,623 902,624 903,624 903,624 904,624 904,624 905,622 905,622 906,622 906,622 907,622 908,620 908,620 909,621 909,621 910,621 910,621 911,621 911,621 912,621 913,621 913,622 914,622 914,622 915,622 915,620 916,620 916,620 917,620 917,620 918,620 919,621 919,621 920,621 920,619 921,619 921,620 922,618 922,618 923,618 924,618 924,618 925,618 925,619 926,619 926,619 927,617 927,617 928,615 929,615 929,615 930,615 930,615 931,615 931,616 932,616 932,616 933,616 933,614 934,614 935,612 935,612 936,612 936,612 937,613 937,613 938,613 938,613 939,613 940,613 940,614 941,614 941,614 942,614 942,614 943,614 943,614 944,615 945,615 945,613 946,613 946,613 947,613 947,613 948,613 948,613 949,614 949,614 950,614 951,614 951,614 952,614 952,615 953,615 953,615 954,615 954,615 955,615 956,616 956,616 957,616 957,616 958,616 958,616 959,616 959,616 960,617 961,617 961,615 962,615 962,613 963,613 963,613 964,614 964,614 965,614 965,612 966,612 967,612 967,613 968,611 968,611 969,611 969,611 970,609 970,609 971,607 972,608 972,606 973,606 973,606 974,606 974,606 975,604 975,604 976,607 977,607 977,603 978,603 978,601 979,601 979,603 980,604 980,604 981,604 981,604 982,598 983,598 983,598 984,598 984,599 985,599 985,599 986,599 986,599 987,598 988,596 988,596 989,596 989,596 990,596 990,597 991,597 991,597 992,597 993,597 993,597 994,598 994,598 995,598 995,596 996,596 996,597 997,597 997,595 998,595 999,595 999,596 1000,596 1000,596 1001,596 1001,592 1002,592 1002,591 1003,591 1004,591 1004,591 1005,591 1005,591 1006,590 1006,590 1007,590 1007,590 1008,588 1009,589 1009,587 1010,587 1010,587 1011,587 1011,588 1011,588 1012,588 1012,588 1013,588 1013,588 1014,589 1015,589 1015,589 1016,589 1016,589 1017,590 1017,590 1018,588 1018,588 1019,588 1020,588 1020,589 1021,587 1021,587 1022,585 1022,585 1023,586 1023,586 1024,582 1025,582 1025,583 1026,583 1026,583 1027,583 1027,583 1028,584 1028,584 1029,584 1029,584 1030,584 1031,584 1031,585 1032,585 1032,585 1033,585 1033,582 1034,582 1034,582 1035,582 1036,582 1036,583 1037,583 1037,583 1038,583 1038,583 1039,583 1039,584 1040,584 1041,584 1041,584 1042,582 1042,583 1043,583 1043,583 1044,583 1044,584 1045,586 1045,587 1046,588 1047,588 1047,588 1048,586 1048,587 1049,587 1049,587 1050,587 1050,586 1051,586 1052,586 1052,586 1053,585 1053,583 1054,583 1054,584 1055,584 1055,584 1056,584 1057,585 1057,585 1058,585 1058,584 1059,582 1059,582 1060,582 1060,581 1061,581 1061,579 1062,580 1063,580 1063,579 1064,577 1064,576 1065,576 1065,576 1066,574 1066,575 1067,575 1068,575 1068,575 1069,575 1069,575 1070,576 1070,576 1071,576 1071,576 1072,577 1073,574 1073,574 1074,573 1074,573 1075,573 1075,573 1076,572 1076,572 1077,572 1077,572 1078,573 1079,571 1079,566 1080,567 1080,568 1081,569 1081,566 1082,566 1082,566 1083,565 1084,565 1084,565 1085,566 1085,566 1086,566 1086,566 1087,568 1087,569 1088,569 1089,569 1089,565 1089,565 1089,566 1090,566 1090,566 1090,566 1091,566 1091,566 1091,566 1092,566 1092,567 1092,567 1092,567 1093,567 1093,567 1093,567 1093,567 1094,567 1094,566 1095,566 1095,566 1095,566 1095,563 1096,563 1096,563 1096,563 1096,563 1097,563 1097,564 1097,562 1098,562 1098,563 1098,563 1099,563 1099,563 1100,563 1100,562 1100,562 1100,562 1101,562 1101,562 1101,562 1101,562 1102,562 1102,562 1102,559 1103,559 1103,560 1103,560 1103,560 1104,560 1104,560 1105,560 1105,559 1105,559 1105,559 1106,559 1106,559 1106,559 1106,560 1107,560 1107,560 1107,560 1107,560 1108,560 1108,560 1108,561 1109,561 1109,561 1109,561 1109,561 1110,561 1110,561 1111,561 1111,561 1111,561 1111,562 1112,562 1112,562 1112,562 1112,562 1113,562 1113,562 1113,562 1113,561 1114,561 1114,561 1114,561 1115,562 1116,562 1116,560 1116,560 1116,561 1117,561 1117,561 1117,561 1117,561 1118,561 1118,561 1118,561 1118,560 1119,560 1119,560 1119,560 1119,560 1120,560 1120,561 1121,559 1121,559 1121,558 1122,558 1122,555 1122,555 1122,555 1123,555 1123,556 1123,556 1123,556 1124,556 1124,556 1124,555 1125,555 1125,555 1125,555 1125,554 1126,554 1126,554 1127,554 1127,554 1127,554 1127,555 1128,555 1128,555 1128,555 1128,554 1129,554 1129,554 1129,554 1129,554 1130,554 1130,550 1130,550 1130,550 1131,550 1131,550 1132,550 1132,551 1132,551 1132,551 1133,551 1133,553 1133,553 1133,553 1134,553 1134,552 1134,552 1135,552 1135,552 1135,552 1135,552 1136,552 1136,553 1137,553 1137,553 1137,553 1137,554 1138,554 1138,554 1138,554 1138,554 1139,554 1139,553 1139,553 1139,553 1140,549 1140,549 1140,549 1141,549 1141,548 1141,548 1141,548 1142,548 1142,547 1143,547 1143,547 1143,547 1144,546 1144,546 1144,546 1145,546 1145,546 1145,546 1146,546 1146,545 1146,545 1146,546 1147,546 1147,546 1148,546 1148,546 1148,546 1148,546 1149,546 1149,546 1149,546 1149,547 1150,547 1150,547 1150,547 1150,547 1151,547 1151,547 1151,547 1152,547 1152,548 1153,548 1153,548 1153,548 1153,548 1154,548 1154,548 1154,548 1154,549 1155,549 1155,547 1155,547 1155,548 1156,548 1156,546 1156,546 1156,547 1157,547 1157,547 1157,547 1157,544 1158,544 1158,545 1159,545 1159,545 1159,545 1159,544 1160,544 1160,544 1160,544 1161,544 1161,544 1161,544 1161,545 1162,545 1162,543 1162,543 1162,544 1163,544 1163,544 1164,544 1164,544 1164,545 1165,545 1165,545 1165,545 1165,545 1166,545 1166,544 1166,544 1166,543 1167,543 1167,543 1167,543 1167,542 1168,542 1168,542 1169,542 1169,542 1169,542 1169,542 1170,542 1170,543 1170,543 1170,543 1171,543 1171,543 1171,543 1171,540 1172,540 1172,541 1172,541 1172,540 1173,540 1173,540 1173,540 1173,540 1174,540 1174,540 1175,541 1175,541 1175,541 1176,541 1176,541 1176,541 1176,540 1177,540 1177,540 1177,541 1177,541 1178,541 1178,541 1178,541 1178,541 1179,541 1179,541 1180,541 1180,542 1180,542 1180,542 1181,542 1181,541 1181,541 1181,540 1182,540 1182,539 1182,539 1182,539 1183,539 1183,539 1183,539 1183,539 1184,539 1184,540 1185,540 1185,539 1185,539 1185,539 1186,539 1186,538 1186,538 1186,537 1187,537 1187,537 1187,537 1187,535 1188,535 1188,534 1188,534 1188,534 1189,534 1189,534 1190,534 1190,534 "/>
<polyline fill="none" opacity="1" stroke="#19E5E6" stroke-width="2" points="60,698 82,665 96,641 102,614 105,584 106,489 109,465 114,444 115,447 116,448 116,449 119,512 121,516 121,489 122,490 123,491 125,467 125,387 126,390 127,393 128,396 129,397 130,400 131,403 132,404 133,380 133,381 134,357 136,359 136,362 138,365 139,367 140,369 140,370 141,372 142,373 142,374 143,376 145,356 146,357 147,359 148,361 148,362 149,364 150,342 151,344 152,345 152,346 154,350 156,351 156,352 157,353 157,354 158,333 158,334 159,267 159,270 160,271 161,273 162,274 163,278 164,279 164,281 165,282 165,284 166,286 168,290 168,291 169,293 170,296 171,297 172,298 172,299 173,300 173,301 174,302 175,305 175,305 176,307 177,309 178,312 179,314 180,294 180,294 182,296 183,296 184,300 184,301 185,302 185,302 186,303 188,305 188,306 189,307 189,288 190,289 190,290 191,290 191,291 192,293 193,294 194,295 194,296 195,297 195,297 196,298 196,299 197,299 197,300 198,281 199,282 199,283 200,284 200,285 201,286 201,287 202,288 202,289 204,291 204,293 206,297 206,297 207,299 208,300 208,283 209,284 210,285 211,250 211,251 212,252 213,253 213,254 214,237 215,238 215,238 216,239 216,240 217,241 217,223 218,224 218,224 219,225 220,226 220,228 221,230 221,231 222,232 222,233 223,234 223,235 224,236 224,236 225,237 226,238 226,222 227,225 228,227 229,230 229,230 230,231 231,233 232,234 233,236 234,237 234,238 236,239 236,224 237,224 237,209 238,211 239,213 239,214 240,199 240,200 241,201 242,203 243,204 243,206 244,207 244,209 245,210 246,211 247,212 247,213 248,214 248,215 249,216 249,217 250,201 250,202 252,204 252,190 253,191 253,192 254,193 254,193 255,194 255,195 256,197 256,198 257,199 258,200 258,202 259,219 259,205 260,206 260,207 261,208 261,208 263,211 263,212 264,198 264,185 265,186 265,187 266,188 266,191 267,177 268,178 268,179 269,180 269,181 270,182 270,183 271,184 271,186 272,187 272,187 273,188 274,190 274,191 275,193 275,194 276,195 276,196 277,198 277,199 278,201 279,203 279,204 280,205 280,206 281,207 281,208 282,209 282,210 283,211 284,212 284,214 285,214 285,215 286,216 286,217 287,217 287,219 288,220 288,221 289,221 290,222 290,224 291,225 291,226 292,227 292,229 293,230 293,231 294,232 295,233 295,235 296,224 296,212 297,212 297,213 298,200 298,201 299,202 300,203 300,191 301,191 301,193 302,194 302,195 303,195 303,196 304,197 304,198 305,199 306,200 306,201 307,189 307,190 308,178 308,179 309,167 309,156 310,158 311,159 311,160 312,163 313,165 313,166 314,167 314,169 315,169 316,170 316,171 317,172 317,173 318,174 318,175 319,176 319,177 320,178 320,179 321,180 322,181 322,182 323,182 323,183 324,185 324,186 325,187 325,189 326,190 327,179 327,168 328,168 328,169 329,171 329,172 330,173 330,162 331,163 332,164 332,165 333,166 333,167 334,168 334,168 335,169 335,170 336,172 337,173 338,186 338,187 339,188 339,189 340,190 340,191 341,192 341,193 342,183 343,184 343,184 344,185 344,187 345,187 345,188 346,189 346,190 347,192 348,193 348,183 349,184 349,184 350,185 350,185 351,186 351,187 352,187 352,188 353,189 354,190 354,191 355,192 355,193 356,194 356,195 357,195 357,196 358,197 359,198 359,199 360,200 360,201 361,202 361,202 362,203 362,205 363,206 364,207 364,208 365,209 365,199 366,190 366,180 367,181 367,181 368,182 368,183 369,184 370,185 370,185 371,186 371,186 372,187 372,189 373,190 373,191 374,192 375,192 375,194 376,195 376,196 377,197 377,199 378,200 378,201 379,202 380,194 380,195 381,195 381,196 382,197 382,198 383,189 383,190 384,191 384,192 385,192 386,193 386,195 387,206 387,207 388,208 388,190 389,191 389,192 390,193 391,184 391,185 392,186 392,178 393,179 393,179 394,180 394,182 395,182 396,183 396,184 397,184 397,185 398,186 398,187 399,188 399,189 400,190 401,194 402,195 402,196 403,197 403,197 404,198 404,199 405,200 405,201 406,211 407,212 407,213 408,214 408,214 409,215 409,216 410,219 410,220 411,221 412,221 412,222 413,222 413,223 414,223 414,224 415,225 415,235 416,236 416,236 417,236 418,237 418,238 419,240 419,240 420,241 420,241 421,242 421,235 422,235 423,236 423,236 424,237 424,238 425,230 425,231 426,240 426,241 427,242 428,242 428,234 429,235 429,236 430,228 430,228 431,229 431,222 432,222 432,223 433,215 434,216 434,208 435,217 435,218 436,219 436,211 437,212 437,213 438,214 439,206 439,208 440,211 440,211 441,212 441,213 442,214 442,215 443,200 444,201 444,202 445,203 445,204 446,205 446,215 447,216 447,209 448,210 448,210 449,211 450,212 450,213 451,214 451,215 452,216 452,217 453,218 453,218 454,219 455,220 455,220 456,214 456,216 457,216 457,209 458,202 458,203 459,203 460,204 460,206 461,206 461,208 462,208 462,201 463,210 463,212 464,213 464,214 465,215 466,216 466,217 467,218 467,219 468,220 468,221 469,221 469,222 470,222 471,223 471,217 472,218 472,219 473,220 473,220 474,222 474,222 475,223 476,224 476,225 477,226 477,227 478,228 478,221 479,222 479,224 480,217 480,211 481,212 482,199 482,200 483,201 483,202 484,204 484,205 485,205 485,206 486,207 487,201 487,202 488,203 488,204 489,204 489,205 490,206 490,207 491,208 492,209 492,210 493,211 493,211 494,213 494,213 495,214 495,215 496,215 496,209 497,210 498,203 498,204 499,205 499,206 500,207 500,201 501,202 501,203 502,197 503,191 503,192 504,192 504,193 505,194 505,195 506,196 506,197 507,197 508,198 508,199 509,200 509,201 510,202 510,203 511,203 511,191 512,192 512,193 513,194 514,194 514,195 515,196 515,190 516,191 516,192 517,193 517,195 518,196 519,196 519,197 520,198 520,199 521,199 521,200 522,201 522,202 523,203 524,204 524,204 525,205 525,209 526,210 526,210 527,211 527,212 528,213 528,214 529,215 530,216 530,217 531,217 531,219 532,220 532,221 533,222 533,223 534,224 535,225 535,226 536,227 536,228 537,228 537,229 538,224 538,225 539,220 540,221 540,222 541,223 541,217 542,218 542,219 543,221 543,222 544,223 544,224 545,225 546,225 546,226 547,221 547,221 548,210 548,205 549,206 549,206 550,207 551,208 551,209 552,210 552,210 553,211 553,212 554,206 554,207 555,208 556,208 556,209 557,210 557,200 558,201 558,202 559,202 559,203 560,204 560,205 561,206 562,207 562,208 563,208 563,209 564,210 564,210 565,211 565,212 566,212 567,213 567,215 568,215 568,216 569,217 569,212 570,212 570,213 571,213 572,214 572,209 573,210 573,211 574,212 574,213 575,214 575,215 576,215 576,215 577,216 578,217 578,217 579,213 579,214 580,214 580,215 581,216 581,211 582,217 583,218 583,219 584,220 584,221 585,221 585,222 586,223 586,223 587,224 588,225 588,225 589,226 589,227 590,228 590,228 591,229 591,229 592,230 592,231 593,231 594,232 594,233 595,233 595,234 596,235 596,236 597,238 597,238 598,239 599,240 599,241 600,241 600,242 601,242 601,243 602,238 602,239 603,245 604,246 604,247 605,247 605,249 606,249 606,250 607,250 607,251 608,252 608,253 610,254 610,255 611,255 611,256 612,256 612,257 613,258 613,259 614,259 615,260 615,261 616,261 616,262 617,268 617,268 618,270 618,270 619,271 620,272 620,273 621,273 621,274 622,275 622,276 623,276 623,277 624,273 625,273 625,274 626,274 626,275 627,275 627,276 628,272 628,272 629,272 629,273 630,269 631,270 631,270 632,271 632,271 633,272 633,273 634,274 634,274 635,275 636,275 636,276 637,276 637,277 638,277 638,278 639,279 639,280 640,280 641,281 641,281 642,277 642,278 643,278 643,279 644,279 644,280 645,280 645,281 646,281 647,282 647,283 648,283 648,284 649,285 649,285 650,286 650,286 651,287 652,287 652,288 653,288 653,280 654,280 654,281 655,282 655,260 656,261 657,261 657,262 658,263 658,264 659,265 659,265 660,266 660,266 661,267 661,268 662,268 663,269 663,269 664,261 664,261 665,262 665,263 666,263 666,264 667,266 668,267 668,267 669,268 669,269 670,270 670,270 671,271 671,276 672,277 673,278 673,279 674,280 674,280 675,281 675,281 676,282 676,282 677,283 677,284 678,285 679,285 679,286 680,287 680,288 681,284 681,285 682,286 682,286 683,287 684,287 684,283 685,284 685,285 686,285 686,286 687,286 687,287 688,288 689,289 689,285 690,287 690,288 691,288 691,289 692,290 692,291 693,291 693,292 694,292 695,293 695,293 696,294 696,295 697,288 697,289 698,290 698,291 699,291 700,292 700,292 701,289 701,289 702,290 702,290 703,291 703,291 704,288 705,289 705,290 706,290 706,290 707,291 707,292 708,292 708,293 709,293 709,286 710,283 711,284 711,280 712,281 712,281 713,282 713,282 714,279 714,279 715,280 716,281 716,281 717,282 717,283 718,284 718,284 719,285 719,285 720,286 721,287 721,287 722,288 722,311 723,311 723,312 724,313 724,313 725,314 725,314 726,311 727,311 727,312 728,312 728,312 729,313 729,313 730,314 730,311 731,311 732,312 732,312 733,313 733,313 734,313 734,314 735,314 735,315 736,315 737,315 737,315 738,316 738,317 739,317 739,318 740,318 740,319 741,319 741,319 742,320 743,320 743,321 744,322 744,322 745,322 745,323 746,327 746,327 747,328 748,328 748,329 749,329 749,329 750,330 750,330 751,330 751,331 752,331 753,332 753,332 754,333 754,333 755,334 755,334 756,334 756,335 757,335 757,336 758,336 759,337 759,337 760,338 760,338 761,338 761,339 762,336 762,336 763,337 764,337 764,337 765,338 765,338 766,339 766,336 767,337 767,337 768,338 769,338 769,339 770,339 770,341 771,342 771,343 772,343 772,344 773,344 773,345 774,345 775,346 775,346 776,347 776,347 777,348 777,348 778,349 778,349 779,350 780,350 780,353 781,350 781,351 782,351 782,352 783,354 783,355 784,355 785,356 785,356 786,357 786,357 787,357 787,358 788,358 788,359 789,359 789,360 790,360 791,361 791,361 792,362 792,359 793,359 793,360 794,360 794,360 795,358 796,358 796,359 797,359 797,360 798,360 798,361 798,361 799,362 799,362 800,363 801,363 801,360 802,361 802,363 803,360 803,360 804,361 804,361 805,361 805,362 806,363 807,363 807,364 808,365 808,369 809,366 809,367 810,367 810,368 811,368 812,369 812,370 813,370 813,371 814,365 814,366 815,366 815,367 816,367 817,368 817,365 818,366 818,364 819,365 819,365 820,366 820,366 821,367 821,367 822,367 823,368 823,369 824,369 824,370 825,370 825,371 826,371 826,371 827,372 828,372 828,373 829,373 829,374 830,374 830,375 831,375 831,375 832,376 833,376 833,377 834,377 834,377 835,378 835,378 836,379 836,379 837,379 837,380 838,380 839,381 839,381 840,382 840,380 841,380 841,383 842,384 842,384 843,385 844,382 844,383 845,384 845,384 846,384 846,385 847,385 847,386 848,386 849,387 849,381 850,382 850,382 851,383 851,383 852,387 852,387 853,390 853,391 854,392 855,392 855,407 856,410 857,397 857,395 858,395 858,395 859,396 860,397 860,397 861,397 861,398 862,398 862,398 863,399 863,397 864,397 865,398 865,398 866,399 866,396 867,397 867,397 868,398 868,398 869,399 869,399 870,400 871,400 871,401 872,404 872,404 873,405 873,405 874,406 874,406 875,407 876,407 876,408 877,408 877,409 878,409 878,409 879,410 879,411 880,411 881,412 881,412 882,413 882,413 883,414 883,414 884,414 884,415 885,415 885,416 886,416 887,417 887,417 888,420 888,420 889,421 889,421 890,422 890,420 891,420 892,423 892,424 893,424 893,422 894,422 894,423 895,423 895,424 896,424 897,425 897,423 898,423 898,424 899,424 899,424 900,425 900,425 901,425 901,426 902,426 903,427 903,427 904,427 904,428 905,428 905,428 906,429 906,430 907,430 908,430 908,431 909,431 909,432 910,432 910,430 911,430 911,430 912,431 913,431 913,431 914,432 914,432 915,432 915,433 916,433 916,434 917,434 917,434 918,435 919,435 919,436 920,437 920,437 921,438 921,438 922,439 922,439 923,440 924,440 924,441 925,441 925,441 926,439 926,440 927,440 927,441 928,441 929,441 929,441 930,442 930,442 931,443 931,443 932,443 932,444 933,446 933,447 934,445 935,445 935,446 936,446 936,446 937,447 937,447 938,445 938,446 939,446 940,446 940,447 941,447 941,447 942,448 942,448 943,448 943,449 944,447 945,447 945,448 946,448 946,448 947,448 947,448 948,449 948,449 949,450 949,450 950,450 951,451 951,451 952,452 952,452 953,452 953,453 954,453 954,456 955,456 956,456 956,457 957,457 957,457 958,457 958,458 959,460 959,458 960,459 961,459 961,459 962,460 962,460 963,461 963,461 964,461 964,462 965,462 965,463 966,463 967,463 967,464 968,464 968,462 969,463 969,463 970,463 970,464 971,464 972,464 972,465 973,465 973,463 974,463 974,464 975,464 975,467 976,467 977,467 977,467 978,468 978,468 979,468 979,469 980,469 980,469 981,470 981,468 982,468 983,468 983,469 984,469 984,469 985,470 985,470 986,470 986,469 987,469 988,469 988,470 989,470 989,468 990,469 990,469 991,470 991,470 992,470 993,470 993,470 994,471 994,471 995,471 995,472 996,472 996,473 997,473 997,474 998,474 999,474 999,475 1000,475 1000,475 1001,476 1001,476 1002,476 1002,476 1003,477 1004,477 1004,477 1005,477 1005,478 1006,478 1006,478 1007,479 1007,479 1008,479 1009,480 1009,480 1010,480 1010,481 1011,481 1011,481 1011,481 1012,482 1012,482 1013,482 1013,483 1014,483 1015,483 1015,484 1016,484 1016,484 1017,485 1017,483 1018,483 1018,483 1019,484 1020,484 1020,484 1021,484 1021,484 1022,485 1022,485 1023,486 1023,486 1024,488 1025,488 1025,490 1026,491 1026,491 1027,491 1027,492 1028,492 1028,492 1029,492 1029,493 1030,493 1031,493 1031,494 1032,494 1032,494 1033,493 1033,491 1034,492 1034,492 1035,492 1036,492 1036,492 1037,493 1037,493 1038,493 1038,493 1039,494 1039,490 1040,491 1041,491 1041,486 1042,486 1042,486 1043,487 1043,487 1044,487 1044,488 1045,488 1045,488 1046,490 1047,491 1047,491 1048,491 1048,492 1049,492 1049,492 1050,492 1050,493 1051,493 1052,493 1052,494 1053,494 1053,494 1054,493 1054,490 1055,491 1055,491 1056,491 1057,492 1057,492 1058,492 1058,493 1059,493 1059,493 1060,493 1060,494 1061,494 1061,494 1062,495 1063,495 1063,496 1064,498 1064,498 1065,498 1065,499 1066,499 1066,499 1067,499 1068,500 1068,500 1069,500 1069,500 1070,501 1070,501 1071,501 1071,502 1072,502 1073,501 1073,501 1074,502 1074,501 1075,501 1075,501 1076,501 1076,502 1077,502 1077,502 1078,503 1079,503 1079,503 1080,503 1080,504 1081,504 1081,504 1082,505 1082,505 1083,507 1084,507 1084,508 1085,507 1085,507 1086,507 1086,508 1087,508 1087,508 1088,508 1089,508 1089,509 1089,509 1089,509 1090,509 1090,509 1090,509 1091,509 1091,510 1091,510 1092,510 1092,508 1092,508 1092,509 1093,509 1093,509 1093,509 1093,509 1094,509 1094,510 1095,510 1095,510 1095,510 1095,510 1096,510 1096,510 1096,510 1096,511 1097,511 1097,511 1097,511 1098,511 1098,512 1098,512 1099,512 1099,512 1100,512 1100,513 1100,513 1100,513 1101,513 1101,513 1101,513 1101,513 1102,513 1102,513 1102,514 1103,514 1103,514 1103,514 1103,514 1104,514 1104,515 1105,515 1105,515 1105,515 1105,515 1106,515 1106,516 1106,516 1106,516 1107,517 1107,518 1107,518 1107,518 1108,518 1108,518 1108,517 1109,517 1109,517 1109,517 1109,517 1110,517 1110,518 1111,518 1111,518 1111,518 1111,517 1112,517 1112,517 1112,517 1112,517 1113,517 1113,518 1113,518 1113,518 1114,518 1114,518 1114,520 1115,520 1116,520 1116,520 1116,520 1116,521 1117,521 1117,521 1117,521 1117,521 1118,521 1118,521 1118,522 1118,522 1119,522 1119,521 1119,521 1119,521 1120,521 1120,521 1121,521 1121,521 1121,522 1122,522 1122,522 1122,522 1122,522 1123,522 1123,522 1123,522 1123,523 1124,523 1124,523 1124,524 1125,524 1125,524 1125,524 1125,524 1126,524 1126,524 1127,524 1127,525 1127,525 1127,525 1128,525 1128,525 1128,525 1128,527 1129,527 1129,527 1129,527 1129,528 1130,528 1130,528 1130,528 1130,528 1131,528 1131,528 1132,528 1132,528 1132,528 1132,529 1133,529 1133,529 1133,529 1133,529 1134,529 1134,530 1134,530 1135,530 1135,530 1135,530 1135,530 1136,530 1136,531 1137,531 1137,530 1137,530 1137,530 1138,530 1138,530 1138,530 1138,531 1139,531 1139,531 1139,531 1139,531 1140,531 1140,531 1140,532 1141,532 1141,532 1141,532 1141,532 1142,532 1142,532 1143,532 1143,531 1143,531 1144,532 1144,532 1144,532 1145,532 1145,532 1145,532 1146,532 1146,532 1146,532 1146,533 1147,533 1147,533 1148,533 1148,533 1148,533 1148,533 1149,533 1149,534 1149,534 1149,534 1150,534 1150,534 1150,534 1150,534 1151,535 1151,535 1152,535 1152,535 1153,535 1153,535 1153,535 1153,536 1154,536 1154,536 1154,536 1154,536 1155,536 1155,536 1155,536 1155,536 1156,536 1156,536 1156,537 1156,537 1157,537 1157,537 1157,537 1157,537 1158,537 1158,538 1159,538 1159,538 1159,538 1159,538 1160,538 1160,538 1160,539 1161,539 1161,539 1161,539 1161,539 1162,539 1162,539 1162,539 1162,539 1163,539 1163,540 1164,540 1164,540 1164,542 1165,542 1165,542 1165,542 1165,542 1166,542 1166,542 1166,542 1166,543 1167,543 1167,543 1167,543 1167,543 1168,543 1168,542 1169,542 1169,542 1169,542 1169,542 1170,542 1170,543 1170,543 1170,543 1171,543 1171,543 1171,543 1171,543 1172,543 1172,543 1172,543 1172,544 1173,544 1173,544 1173,544 1173,544 1174,544 1174,544 1175,545 1175,545 1175,545 1176,545 1176,545 1176,545 1176,546 1177,546 1177,546 1177,546 1177,546 1178,546 1178,546 1178,546 1178,547 1179,547 1179,547 1180,547 1180,547 1180,547 1180,547 1181,547 1181,547 1181,547 1181,548 1182,548 1182,548 1182,548 1182,548 1183,548 1183,549 1183,549 1183,549 1184,549 1184,549 1185,549 1185,549 1185,549 1185,548 1186,548 1186,548 1186,548 1186,549 1187,549 1187,549 1187,549 1187,549 1188,549 1188,550 1188,550 1188,550 1189,550 1189,550 1190,550 1190,550 "/>
<polyline fill="none" opacity="1" stroke="#1919E6" stroke-width="2" points="426,736 483,730 531,726 553,721 559,716 573,711 574,706 575,706 575,700 576,700 577,700 579,695 582,690 583,690 584,690 584,690 585,690 586,691 587,691 588,691 588,691 589,691 589,691 590,691 590,691 591,691 592,691 595,692 597,692 597,692 598,692 599,692 600,692 601,693 601,693 602,693 603,693 604,693 605,693 605,693 606,693 606,693 607,693 608,694 608,694 609,694 610,694 610,694 611,694 611,694 612,694 613,694 614,694 616,695 617,695 618,695 620,695 620,695 622,695 623,696 624,686 625,686 627,686 627,686 628,686 628,686 629,687 630,687 632,687 633,687 634,687 635,687 636,688 636,683 638,683 638,683 639,683 639,683 640,683 641,684 641,684 642,684 642,684 643,684 643,679 646,680 647,680 647,680 648,680 649,680 649,680 650,680 650,680 651,680 652,680 652,680 653,680 653,681 654,681 654,681 655,681 656,681 657,681 658,681 658,682 659,682 660,682 660,682 661,682 661,682 662,682 663,682 664,682 664,682 665,682 666,683 666,683 668,683 668,683 669,683 669,683 670,683 670,683 671,684 671,684 672,684 673,684 673,684 674,680 674,680 676,676 676,676 677,676 677,676 678,676 679,676 679,676 680,677 680,677 681,677 681,677 682,677 682,677 683,677 684,677 685,677 685,678 686,678 687,678 687,678 688,678 689,678 689,678 690,678 690,674 691,675 691,675 692,675 692,671 693,671 693,671 694,671 695,671 695,671 696,671 696,671 697,672 697,672 698,672 698,672 699,672 700,672 700,672 701,672 701,672 702,673 702,673 703,673 703,673 704,673 705,673 705,673 706,673 706,673 707,673 707,670 708,666 708,662 709,662 711,662 711,662 712,663 712,663 713,663 713,663 714,663 714,663 715,663 716,663 716,663 717,663 717,664 718,664 718,664 719,664 720,664 721,664 721,664 722,664 722,664 723,665 723,665 724,665 724,661 725,661 725,661 726,661 727,662 727,662 728,662 728,658 729,658 729,658 730,658 730,658 731,658 732,655 732,655 733,655 733,655 734,655 734,655 735,655 735,655 736,656 737,656 737,656 738,656 738,656 739,656 739,656 740,656 740,656 741,653 741,653 742,653 743,653 743,653 744,653 744,653 745,653 745,653 746,654 746,654 747,654 748,654 748,654 749,654 749,654 750,651 750,651 751,651 751,651 752,647 753,648 753,648 754,648 754,648 755,648 755,648 756,648 756,648 757,648 757,648 758,649 759,649 759,649 760,649 760,649 761,649 761,649 762,646 762,646 763,646 764,646 764,646 765,646 765,646 766,646 766,643 767,643 767,643 768,644 769,644 769,644 770,644 770,644 771,641 771,641 772,641 772,642 773,642 773,642 774,642 775,642 775,642 776,639 776,639 777,639 777,633 778,633 778,633 779,633 780,633 780,634 781,634 781,634 782,634 782,635 783,635 783,635 784,636 785,636 785,636 786,636 786,633 787,633 788,633 788,633 789,633 789,634 790,634 791,634 791,634 792,634 792,634 793,634 793,634 794,635 794,635 795,635 796,635 796,632 797,632 797,632 798,632 798,632 798,633 799,633 799,633 800,633 801,633 801,633 802,634 802,634 803,634 803,634 804,634 804,634 805,635 805,635 806,635 807,632 807,632 808,632 808,634 809,633 809,633 810,633 810,633 811,633 812,631 812,631 813,631 813,631 814,631 814,631 815,632 815,632 816,632 817,632 817,632 818,632 818,630 819,630 819,633 820,633 820,633 821,633 821,634 822,634 823,634 823,631 824,631 824,628 825,629 825,629 826,629 826,629 827,629 828,629 828,629 829,630 829,630 830,630 830,630 831,630 831,630 832,630 833,630 833,631 834,631 834,631 835,631 835,631 836,631 836,631 837,631 837,632 838,632 839,632 839,632 840,632 840,632 841,633 841,633 842,633 842,633 843,633 844,633 844,633 845,634 845,634 846,634 846,634 847,634 847,634 848,634 849,635 850,635 850,635 851,635 851,635 852,635 852,633 853,633 853,633 854,630 855,631 855,635 856,633 856,633 857,629 857,626 858,626 858,626 859,621 860,618 860,616 861,616 861,616 862,616 862,616 863,617 863,617 864,617 865,614 865,614 866,612 866,612 867,612 867,613 868,610 868,610 869,610 869,611 870,611 871,611 871,611 872,609 872,609 873,609 873,609 874,610 874,610 875,610 876,607 876,608 877,608 877,608 878,608 878,611 879,611 879,612 880,612 881,612 881,612 882,612 882,612 883,613 883,613 884,613 884,613 885,613 885,613 886,614 887,614 887,614 888,614 888,612 889,612 889,612 890,610 890,610 891,610 892,610 892,610 893,606 893,606 894,606 894,606 895,606 895,606 896,607 897,607 897,607 898,607 898,608 899,608 899,608 900,608 900,608 901,608 901,609 902,609 903,609 903,609 904,609 904,609 905,610 905,610 906,610 906,610 907,610 908,610 908,611 909,611 909,611 910,611 910,611 911,611 911,612 912,612 913,609 913,610 914,610 914,610 915,610 915,608 916,608 916,608 917,606 917,606 918,604 919,602 919,602 920,602 920,600 921,601 921,601 922,601 922,599 923,597 924,597 924,597 925,597 925,598 926,595 927,596 927,596 928,596 929,596 929,596 930,597 930,597 931,597 931,597 932,597 932,597 933,595 933,596 934,596 935,596 935,596 936,596 936,597 937,597 937,597 938,597 938,595 939,595 940,595 940,595 941,596 941,594 942,594 942,594 943,594 943,594 944,590 945,590 945,590 946,593 946,593 947,593 947,593 948,593 948,593 949,594 949,594 950,594 951,594 951,594 952,595 952,595 953,595 953,595 954,596 954,596 955,596 956,594 956,592 957,588 957,588 958,588 958,588 959,586 959,586 960,586 961,587 961,587 962,587 962,587 963,587 963,588 964,588 964,588 965,588 965,586 966,587 967,585 967,585 968,585 968,585 969,586 969,586 970,586 970,586 971,586 972,586 972,587 973,587 973,587 974,587 974,585 975,586 975,586 976,586 977,588 977,588 978,588 978,589 979,589 979,589 980,589 980,589 981,589 981,590 982,590 983,590 983,590 984,590 984,590 985,591 985,591 986,591 986,589 987,589 988,590 988,590 989,590 989,590 990,590 990,587 991,587 991,587 992,587 993,585 993,585 994,585 994,586 995,584 995,584 996,584 996,585 997,585 997,585 998,583 999,582 999,582 1000,582 1000,582 1001,582 1001,582 1002,583 1002,583 1003,583 1004,583 1004,583 1005,583 1005,584 1006,584 1006,584 1007,584 1007,584 1008,585 1009,585 1009,583 1010,583 1010,582 1011,582 1011,582 1011,580 1012,578 1012,578 1013,579 1013,579 1014,579 1015,577 1015,578 1016,578 1016,578 1017,578 1017,578 1018,577 1018,577 1019,577 1020,577 1020,577 1021,577 1021,577 1022,578 1022,574 1023,574 1023,575 1024,575 1025,575 1025,573 1026,573 1026,574 1027,574 1027,574 1028,574 1028,574 1029,575 1029,575 1030,575 1031,575 1031,575 1032,574 1032,574 1033,574 1033,571 1034,571 1034,571 1035,571 1036,571 1036,570 1037,570 1037,570 1038,570 1038,570 1039,570 1039,571 1040,571 1041,571 1041,571 1042,572 1042,572 1043,572 1043,572 1044,572 1044,571 1045,571 1045,571 1046,571 1047,572 1047,572 1048,572 1048,572 1049,572 1049,573 1050,573 1050,573 1051,573 1052,573 1052,574 1053,574 1053,574 1054,574 1054,575 1055,575 1055,575 1056,576 1057,576 1057,574 1058,575 1058,575 1059,575 1059,575 1060,575 1060,576 1061,574 1061,576 1062,576 1063,577 1063,577 1064,577 1064,576 1065,576 1065,576 1066,576 1066,576 1067,575 1068,575 1068,573 1069,574 1069,574 1070,574 1070,574 1071,574 1071,575 1072,573 1073,574 1073,574 1074,574 1074,573 1075,573 1075,573 1076,573 1076,574 1077,574 1077,574 1078,574 1079,574 1079,575 1080,575 1080,575 1081,575 1081,574 1082,574 1082,573 1083,573 1084,573 1084,575 1085,576 1085,576 1086,576 1086,576 1087,575 1087,575 1088,575 1089,575 1089,574 1089,574 1089,571 1090,571 1090,571 1090,571 1091,571 1091,570 1091,570 1092,570 1092,570 1092,570 1092,570 1093,570 1093,570 1093,570 1093,571 1094,571 1094,571 1095,571 1095,571 1095,571 1095,570 1096,570 1096,570 1096,570 1096,570 1097,570 1097,570 1097,570 1098,570 1098,569 1098,569 1099,569 1099,569 1100,569 1100,570 1100,570 1100,570 1101,570 1101,570 1101,570 1101,570 1102,570 1102,570 1102,571 1103,571 1103,569 1103,569 1103,569 1104,569 1104,570 1105,570 1105,570 1105,570 1105,570 1106,570 1106,570 1106,570 1106,571 1107,571 1107,569 1107,569 1107,569 1108,570 1108,570 1108,570 1109,570 1109,570 1109,570 1109,570 1110,570 1110,569 1111,569 1111,569 1111,569 1111,569 1112,569 1112,570 1112,570 1112,570 1113,570 1113,570 1113,570 1113,570 1114,570 1114,572 1114,572 1115,572 1116,572 1116,570 1116,570 1116,567 1117,567 1117,567 1117,567 1117,567 1118,567 1118,566 1118,566 1118,566 1119,566 1119,566 1119,566 1119,568 1120,568 1120,568 1121,567 1121,567 1121,567 1122,567 1122,567 1122,567 1122,568 1123,568 1123,568 1123,568 1123,568 1124,568 1124,568 1124,569 1125,569 1125,569 1125,569 1125,569 1126,569 1126,568 1127,568 1127,566 1127,566 1127,567 1128,567 1128,565 1128,565 1128,564 1129,564 1129,564 1129,564 1129,563 1130,563 1130,563 1130,563 1130,564 1131,564 1131,564 1132,564 1132,564 1132,564 1132,564 1133,564 1133,562 1133,562 1133,562 1134,562 1134,562 1134,562 1135,562 1135,563 1135,563 1135,563 1136,563 1136,562 1137,562 1137,562 1137,562 1137,559 1138,559 1138,560 1138,560 1138,560 1139,560 1139,560 1139,560 1139,560 1140,560 1140,560 1140,561 1141,561 1141,559 1141,559 1141,559 1142,559 1142,560 1143,560 1143,560 1143,560 1144,559 1144,559 1144,559 1145,559 1145,559 1145,559 1146,559 1146,558 1146,558 1146,558 1147,558 1147,559 1148,559 1148,559 1148,559 1148,558 1149,558 1149,558 1149,558 1149,558 1150,558 1150,557 1150,557 1150,557 1151,557 1151,557 1151,556 1152,556 1152,556 1153,556 1153,556 1153,556 1153,555 1154,555 1154,555 1154,555 1154,556 1155,556 1155,556 1155,556 1155,555 1156,555 1156,555 1156,555 1156,555 1157,555 1157,554 1157,554 1157,554 1158,554 1158,553 1159,553 1159,553 1159,553 1159,553 1160,554 1160,554 1160,554 1161,554 1161,553 1161,553 1161,553 1162,553 1162,553 1162,553 1162,553 1163,553 1163,554 1164,554 1164,554 1164,554 1165,554 1165,553 1165,553 1165,553 1166,553 1166,553 1166,553 1166,554 1167,554 1167,554 1167,554 1167,554 1168,554 1168,554 1169,554 1169,554 1169,554 1169,553 1170,553 1170,555 1170,555 1170,555 1171,555 1171,553 1171,553 1171,553 1172,553 1172,554 1172,554 1172,555 1173,555 1173,555 1173,555 1173,555 1174,555 1174,555 1175,555 1175,555 1175,556 1176,556 1176,556 1176,556 1176,556 1177,556 1177,557 1177,557 1177,557 1178,557 1178,557 1178,557 1178,557 1179,557 1179,557 1180,557 1180,556 1180,556 1180,557 1181,557 1181,557 1181,557 1181,557 1182,557 1182,557 1182,557 1182,557 1183,557 1183,558 1183,558 1183,557 1184,557 1184,557 1185,557 1185,556 1185,556 1185,556 1186,556 1186,556 1186,556 1186,555 1187,555 1187,556 1187,556 1187,553 1188,553 1188,553 1188,553 1188,554 1189,554 1189,554 1190,554 1190,553 "/>
<polyline fill="none" opacity="1" stroke="#E519E6" stroke-width="2" points="360,733 386,724 403,717 409,708 418,700 418,691 419,682 425,675 426,666 440,669 442,662 447,655 451,648 453,649 461,643 465,652 467,653 469,653 471,654 471,646 472,647 472,647 473,647 473,647 474,647 476,648 479,649 480,649 480,649 481,650 482,643 484,636 487,637 487,637 489,638 489,638 490,638 491,631 492,632 492,632 503,628 505,629 506,629 508,630 508,630 509,623 509,624 510,624 511,624 512,625 513,625 514,625 514,619 515,619 515,619 516,619 517,620 517,620 520,615 521,615 522,609 522,609 524,609 527,611 528,612 530,606 532,601 533,602 534,602 536,603 537,603 538,604 539,604 540,604 541,605 541,605 543,606 544,607 546,607 546,607 547,608 551,609 552,609 552,609 554,610 554,610 556,605 557,605 558,606 559,606 560,606 560,607 561,607 566,609 567,609 567,604 568,604 568,604 570,604 570,604 572,605 573,605 574,606 574,606 575,606 575,606 577,607 578,601 580,602 581,603 582,603 583,603 584,604 585,604 585,604 586,599 586,599 587,600 588,600 589,600 589,600 590,595 590,595 593,596 594,591 594,591 595,586 595,587 596,587 597,588 597,588 598,588 599,583 599,578 600,578 600,579 601,579 601,579 602,579 602,579 603,580 604,580 604,580 605,580 605,581 606,581 606,581 607,581 607,582 608,582 608,582 609,582 610,583 610,583 611,583 612,583 612,584 613,584 613,584 614,584 615,585 615,585 616,585 616,585 617,586 617,586 618,586 618,586 619,582 620,582 620,582 621,582 621,583 622,583 622,583 623,583 623,584 624,584 625,584 625,584 626,584 626,585 627,580 627,580 628,580 628,580 629,581 629,576 630,576 631,577 631,577 632,577 632,577 633,577 633,578 634,578 634,578 635,578 636,574 636,574 637,574 637,574 638,574 638,575 639,575 639,575 640,576 641,576 641,576 642,576 642,576 643,577 643,577 644,577 644,577 645,568 645,568 646,568 647,569 647,564 648,555 648,556 649,556 649,556 650,556 650,552 651,552 652,552 652,553 653,553 653,553 654,553 654,554 655,554 655,554 656,555 657,555 657,551 658,551 658,551 659,552 659,552 660,543 660,543 661,544 661,544 662,544 663,544 663,545 664,540 664,541 665,541 665,541 666,541 666,542 667,538 668,543 668,543 669,543 669,544 670,544 670,544 671,545 671,545 672,545 673,550 673,550 674,551 674,551 675,551 675,551 676,552 676,552 677,552 677,553 678,553 679,553 679,553 680,554 680,554 681,554 681,546 682,547 682,547 683,547 684,547 684,547 685,548 685,548 686,548 686,548 687,549 687,549 688,549 689,550 689,546 690,547 690,547 691,547 691,548 692,548 692,548 693,548 693,549 694,549 695,549 695,545 696,546 696,546 697,546 697,547 698,547 698,544 699,544 700,544 700,544 701,544 701,545 702,545 702,545 703,545 703,546 704,546 705,550 705,551 706,551 706,551 707,551 707,551 708,552 708,552 709,552 709,552 710,557 711,557 711,557 712,557 712,557 713,558 713,558 714,558 714,558 715,559 716,559 716,559 717,559 717,560 718,560 718,557 719,557 719,557 720,557 721,554 721,554 722,554 722,554 723,554 723,555 724,555 724,555 725,555 725,556 726,552 727,552 727,552 728,553 728,553 729,553 729,549 730,546 730,546 731,546 732,547 732,547 733,547 733,547 734,547 734,544 735,544 735,541 736,541 737,545 737,545 738,545 738,545 739,545 739,546 740,542 740,543 741,543 741,543 742,543 743,543 743,544 744,544 744,544 745,544 745,544 746,545 746,545 747,545 748,545 748,545 749,546 749,546 750,546 750,546 751,546 751,547 752,550 753,551 753,551 754,551 754,551 755,551 755,552 756,552 756,552 757,552 757,552 758,553 759,553 759,553 760,553 760,554 761,554 761,554 762,554 762,554 763,555 764,551 765,551 765,552 766,552 766,552 767,553 767,553 768,553 769,550 769,550 770,550 770,552 771,552 771,552 772,552 772,553 773,553 773,553 774,553 775,554 775,554 776,554 776,554 777,555 777,555 778,555 778,552 779,552 780,552 780,554 781,554 781,554 782,555 782,555 783,556 783,556 784,556 785,557 785,557 786,554 786,554 787,554 787,554 788,555 788,555 789,555 789,555 790,555 791,556 791,556 792,556 792,556 793,553 793,554 794,551 794,551 795,551 796,548 796,545 797,546 797,546 798,546 798,546 798,546 799,547 799,547 800,544 801,544 801,544 802,545 802,546 803,546 803,546 804,546 804,546 805,547 805,547 806,547 807,547 807,548 808,548 808,548 809,546 809,546 810,546 810,547 811,547 812,547 812,548 813,548 813,545 814,546 814,546 815,546 815,546 816,550 817,550 817,550 818,551 818,551 819,552 819,552 820,552 820,552 821,552 821,553 822,553 823,553 823,553 824,554 824,554 825,554 825,554 826,555 826,555 827,555 828,555 828,556 829,556 829,556 830,556 830,557 831,557 831,557 832,557 833,557 833,558 834,558 834,558 835,558 835,558 836,559 836,556 837,556 837,554 838,554 839,554 839,551 840,552 840,552 841,552 841,552 842,553 842,550 843,550 844,551 844,548 845,548 845,549 846,549 846,549 847,549 847,549 848,550 849,550 849,550 850,551 850,548 851,551 851,548 852,549 852,549 853,549 853,547 854,547 855,542 855,550 856,550 856,551 857,543 857,543 858,544 858,544 859,544 860,545 860,545 861,545 861,545 862,545 862,545 863,543 863,543 864,544 865,544 865,544 866,544 866,545 867,542 867,543 868,543 868,540 869,541 869,538 870,539 871,539 871,539 872,540 872,537 873,538 873,538 874,538 874,538 875,539 876,539 876,539 877,539 877,540 878,540 878,540 879,538 879,533 880,534 881,534 881,529 882,529 882,530 883,530 883,530 884,530 884,528 885,526 885,524 886,524 887,524 887,519 888,522 888,522 889,523 889,521 890,521 890,519 891,519 892,519 892,520 893,520 893,520 894,520 894,521 895,521 895,521 896,522 897,520 897,520 898,518 898,516 899,513 899,514 900,514 900,509 901,510 901,510 902,510 903,510 903,511 904,513 904,511 905,511 905,512 906,512 906,513 907,513 908,513 908,513 909,514 909,514 910,512 910,512 911,512 911,513 912,513 913,513 913,513 914,514 914,514 915,514 915,514 916,515 916,515 917,515 917,515 918,516 919,516 919,517 920,517 920,518 921,518 921,518 922,519 922,519 923,519 924,517 924,515 925,516 925,514 926,514 926,514 927,514 927,512 928,513 929,513 929,513 930,514 930,514 931,514 931,514 932,515 932,512 933,513 933,513 934,514 935,511 935,512 936,510 936,510 937,510 937,511 938,511 938,511 939,509 940,509 940,507 941,508 941,508 942,508 942,509 943,509 943,509 944,509 945,510 945,512 946,512 946,513 947,513 947,513 948,513 948,513 949,514 949,514 950,514 951,515 951,511 952,511 952,509 953,509 953,510 954,510 954,510 955,511 956,511 956,511 957,513 957,512 958,512 958,512 959,512 959,510 960,511 961,511 961,511 962,512 962,512 963,510 963,510 964,511 964,509 965,509 965,510 966,510 967,510 967,510 968,511 968,511 969,511 969,512 970,512 970,512 971,513 972,511 973,511 973,512 974,512 974,512 975,512 975,513 976,511 977,511 978,511 978,512 979,512 980,513 980,513 981,511 981,511 982,511 983,512 983,510 984,510 985,511 985,509 986,509 986,508 987,506 988,506 988,506 989,507 989,505 990,505 990,506 991,506 991,506 992,506 993,507 993,507 994,507 994,505 995,506 995,506 996,506 996,507 997,507 997,508 998,506 999,506 999,506 1000,507 1000,507 1001,503 1001,503 1002,504 1002,504 1003,504 1004,504 1004,503 1005,501 1005,501 1006,502 1006,500 1007,498 1007,498 1008,499 1009,497 1009,494 1010,494 1010,494 1011,494 1011,493 1011,491 1012,491 1013,492 1013,490 1014,491 1015,491 1015,486 1016,486 1016,484 1017,485 1017,485 1018,485 1018,485 1019,485 1020,486 1020,486 1021,484 1021,484 1022,483 1022,483 1023,484 1023,482 1024,482 1025,483 1025,483 1026,479 1026,480 1027,476 1027,477 1028,475 1028,473 1029,472 1029,472 1030,473 1031,473 1031,470 1032,470 1032,470 1033,470 1033,469 1034,469 1034,468 1035,468 1036,468 1036,469 1037,469 1037,469 1038,469 1038,470 1039,470 1039,470 1040,471 1041,471 1041,471 1042,470 1042,468 1043,468 1043,469 1044,466 1044,464 1045,461 1045,459 1046,458 1047,458 1047,457 1048,459 1048,454 1049,454 1049,454 1050,455 1050,455 1052,452 1052,451 1053,452 1053,452 1054,452 1054,453 1055,452 1055,452 1056,453 1057,451 1057,452 1058,452 1058,452 1059,453 1059,453 1060,450 1060,450 1061,449 1061,447 1062,448 1063,447 1063,448 1064,448 1064,450 1065,452 1065,451 1066,447 1066,449 1067,450 1068,450 1068,450 1069,450 1069,449 1070,449 1070,450 1071,450 1071,447 1072,448 1073,443 1073,444 1074,445 1074,447 1075,447 1075,448 1076,448 1076,448 1077,449 1077,449 1078,444 1079,445 1079,445 1080,445 1080,446 1081,444 1081,445 1082,445 1082,445 1083,446 1084,444 1084,446 1085,444 1085,445 1086,445 1086,446 1087,448 1087,448 1088,448 1089,448 1089,448 1089,448 1089,449 1090,449 1090,447 1090,448 1091,448 1091,448 1091,448 1092,448 1092,449 1092,449 1092,449 1093,449 1093,449 1093,449 1093,447 1094,447 1094,447 1095,447 1095,444 1095,444 1095,444 1096,444 1096,445 1096,445 1096,445 1097,445 1097,445 1097,446 1098,446 1098,446 1098,447 1099,447 1099,447 1100,447 1100,446 1100,446 1100,445 1101,445 1101,445 1101,445 1101,445 1102,445 1102,445 1102,443 1103,443 1103,443 1103,443 1103,443 1104,443 1104,441 1105,441 1105,440 1105,440 1105,442 1106,442 1106,442 1106,442 1106,442 1107,442 1107,443 1107,443 1107,443 1108,443 1108,443 1108,444 1109,444 1109,443 1109,443 1109,444 1110,444 1110,446 1111,446 1111,445 1111,445 1111,445 1112,445 1112,446 1112,446 1112,446 1113,446 1113,444 1113,444 1113,444 1114,444 1114,444 1114,445 1115,443 1116,443 1116,444 1116,444 1116,444 1117,444 1117,444 1117,444 1117,445 1118,445 1118,444 1118,444 1118,444 1119,444 1119,443 1119,443 1119,443 1120,443 1120,444 1121,444 1121,443 1121,441 1122,441 1122,442 1122,442 1122,442 1123,442 1123,442 1123,442 1123,441 1124,442 1124,442 1124,442 1125,442 1125,440 1125,440 1125,439 1126,439 1126,439 1127,439 1127,439 1127,439 1127,440 1128,440 1128,440 1128,440 1128,441 1129,441 1129,441 1129,441 1129,441 1130,441 1130,440 1130,440 1130,441 1131,441 1131,441 1132,441 1132,443 1132,443 1132,440 1133,440 1133,439 1133,439 1133,440 1134,440 1134,440 1134,440 1135,440 1135,438 1135,438 1135,438 1136,438 1136,438 1137,438 1137,438 1137,438 1137,438 1138,438 1138,439 1138,439 1138,440 1139,440 1139,441 1139,441 1139,441 1140,441 1140,441 1140,440 1141,440 1141,441 1141,441 1141,441 1142,441 1142,441 1143,441 1143,442 1144,442 1144,442 1144,441 1145,441 1145,441 1145,440 1146,440 1146,441 1146,441 1146,440 1147,440 1147,440 1148,440 1148,439 1148,439 1148,441 1149,441 1149,441 1149,441 1149,441 1150,441 1150,442 1150,442 1150,442 1151,442 1151,442 1151,443 1152,443 1152,443 1153,443 1153,445 1153,445 1153,445 1154,445 1154,444 1154,444 1154,447 1155,447 1155,447 1155,447 1155,448 1156,448 1156,449 1156,449 1156,450 1157,450 1157,450 1157,450 1157,449 1158,449 1158,450 1159,450 1159,450 1159,449 1160,449 1160,449 1160,450 1161,450 1161,450 1161,450 1161,450 1162,450 1162,451 1162,451 1162,451 1163,451 1163,451 1164,451 1164,452 1164,451 1165,451 1165,451 1165,451 1165,451 1166,451 1166,452 1166,452 1166,451 1167,451 1167,451 1167,451 1167,451 1168,451 1168,452 1169,452 1169,452 1169,451 1170,451 1170,452 1170,452 1170,453 1171,453 1171,453 1171,454 1172,454 1172,454 1172,454 1172,453 1173,453 1173,453 1173,453 1173,452 1174,452 1174,450 1175,449 1175,449 1175,448 1176,448 1176,449 1176,449 1176,449 1177,449 1177,449 1177,449 1177,450 1178,450 1178,450 1178,448 1179,448 1180,448 1180,448 1180,448 1180,447 1181,447 1181,448 1181,448 1181,448 1182,449 1182,449 1182,449 1183,449 1183,448 1183,448 1183,448 1184,448 1184,449 1185,449 1185,448 1185,448 1185,448 1186,448 1186,449 1186,449 1186,449 1187,449 1187,448 1187,448 1187,448 1188,448 1188,448 1188,448 1188,448 1189,448 1189,448 1190,448 1190,448 "/>
<rect x="1085" y="323" width="100" height="104" opacity="1" fill="#FFFFFF" stroke="none"/>
<rect x="1085" y="323" width="100" height="104" opacity="1" fill="none" stroke="#000000"/>
<text x="1125" y="333" dy="0.76em" text-anchor="start" font-family="sans-serif" font-size="9.67741935483871" opacity="1" fill="#000000">
ansi_term
</text>
<text x="1125" y="348" dy="0.76em" text-anchor="start" font-family="sans-serif" font-size="9.67741935483871" opacity="1" fill="#000000">
colored
</text>
<text x="1125" y="363" dy="0.76em" text-anchor="start" font-family="sans-serif" font-size="9.67741935483871" opacity="1" fill="#000000">
console
</text>
<text x="1125" y="378" dy="0.76em" text-anchor="start" font-family="sans-serif" font-size="9.67741935483871" opacity="1" fill="#000000">
term
</text>
<text x="1125" y="393" dy="0.76em" text-anchor="start" font-family="sans-serif" font-size="9.67741935483871" opacity="1" fill="#000000">
termcolor
</text>
<text x="1125" y="408" dy="0.76em" text-anchor="start" font-family="sans-serif" font-size="9.67741935483871" opacity="1" fill="#000000">
termion
</text>
<polyline fill="none" opacity="1" stroke="#E61919" stroke-width="2" points="1095,338 1115,338 "/>
<polyline fill="none" opacity="1" stroke="#E5E619" stroke-width="2" points="1095,352 1115,352 "/>
<polyline fill="none" opacity="1" stroke="#19E619" stroke-width="2" points="1095,367 1115,367 "/>
<polyline fill="none" opacity="1" stroke="#19E5E6" stroke-width="2" points="1095,382 1115,382 "/>
<polyline fill="none" opacity="1" stroke="#1919E6" stroke-width="2" points="1095,397 1115,397 "/>
<polyline fill="none" opacity="1" stroke="#E519E6" stroke-width="2" points="1095,412 1115,412 "/>
</svg>
