<svg width="1200" height="800" xmlns="http://www.w3.org/2000/svg">
<rect x="0" y="0" width="1199" height="799" opacity="1" fill="#FFFFFF" stroke="none"/>
<line opacity="0.1" stroke="#000000" stroke-width="1" x1="60" y1="727" x2="1190" y2="727"/>
<line opacity="0.1" stroke="#000000" stroke-width="1" x1="60" y1="715" x2="1190" y2="715"/>
<line opacity="0.1" stroke="#000000" stroke-width="1" x1="60" y1="702" x2="1190" y2="702"/>
<line opacity="0.1" stroke="#000000" stroke-width="1" x1="60" y1="690" x2="1190" y2="690"/>
<line opacity="0.1" stroke="#000000" stroke-width="1" x1="60" y1="677" x2="1190" y2="677"/>
<line opacity="0.1" stroke="#000000" stroke-width="1" x1="60" y1="665" x2="1190" y2="665"/>
<line opacity="0.1" stroke="#000000" stroke-width="1" x1="60" y1="652" x2="1190" y2="652"/>
<line opacity="0.1" stroke="#000000" stroke-width="1" x1="60" y1="640" x2="1190" y2="640"/>
<line opacity="0.1" stroke="#000000" stroke-width="1" x1="60" y1="628" x2="1190" y2="628"/>
<line opacity="0.1" stroke="#000000" stroke-width="1" x1="60" y1="615" x2="1190" y2="615"/>
<line opacity="0.1" stroke="#000000" stroke-width="1" x1="60" y1="603" x2="1190" y2="603"/>
<line opacity="0.1" stroke="#000000" stroke-width="1" x1="60" y1="590" x2="1190" y2="590"/>
<line opacity="0.1" stroke="#000000" stroke-width="1" x1="60" y1="578" x2="1190" y2="578"/>
<line opacity="0.1" stroke="#000000" stroke-width="1" x1="60" y1="565" x2="1190" y2="565"/>
<line opacity="0.1" stroke="#000000" stroke-width="1" x1="60" y1="553" x2="1190" y2="553"/>
<line opacity="0.1" stroke="#000000" stroke-width="1" x1="60" y1="540" x2="1190" y2="540"/>
<line opacity="0.1" stroke="#000000" stroke-width="1" x1="60" y1="528" x2="1190" y2="528"/>
<line opacity="0.1" stroke="#000000" stroke-width="1" x1="60" y1="516" x2="1190" y2="516"/>
<line opacity="0.1" stroke="#000000" stroke-width="1" x1="60" y1="503" x2="1190" y2="503"/>
<line opacity="0.1" stroke="#000000" stroke-width="1" x1="60" y1="491" x2="1190" y2="491"/>
<line opacity="0.1" stroke="#000000" stroke-width="1" x1="60" y1="478" x2="1190" y2="478"/>
<line opacity="0.1" stroke="#000000" stroke-width="1" x1="60" y1="466" x2="1190" y2="466"/>
<line opacity="0.1" stroke="#000000" stroke-width="1" x1="60" y1="453" x2="1190" y2="453"/>
<line opacity="0.1" stroke="#000000" stroke-width="1" x1="60" y1="441" x2="1190" y2="441"/>
<line opacity="0.1" stroke="#000000" stroke-width="1" x1="60" y1="428" x2="1190" y2="428"/>
<line opacity="0.1" stroke="#000000" stroke-width="1" x1="60" y1="416" x2="1190" y2="416"/>
<line opacity="0.1" stroke="#000000" stroke-width="1" x1="60" y1="404" x2="1190" y2="404"/>
<line opacity="0.1" stroke="#000000" stroke-width="1" x1="60" y1="391" x2="1190" y2="391"/>
<line opacity="0.1" stroke="#000000" stroke-width="1" x1="60" y1="379" x2="1190" y2="379"/>
<line opacity="0.1" stroke="#000000" stroke-width="1" x1="60" y1="366" x2="1190" y2="366"/>
<line opacity="0.1" stroke="#000000" stroke-width="1" x1="60" y1="354" x2="1190" y2="354"/>
<line opacity="0.1" stroke="#000000" stroke-width="1" x1="60" y1="341" x2="1190" y2="341"/>
<line opacity="0.1" stroke="#000000" stroke-width="1" x1="60" y1="329" x2="1190" y2="329"/>
<line opacity="0.1" stroke="#000000" stroke-width="1" x1="60" y1="316" x2="1190" y2="316"/>
<line opacity="0.1" stroke="#000000" stroke-width="1" x1="60" y1="304" x2="1190" y2="304"/>
<line opacity="0.1" stroke="#000000" stroke-width="1" x1="60" y1="292" x2="1190" y2="292"/>
<line opacity="0.1" stroke="#000000" stroke-width="1" x1="60" y1="279" x2="1190" y2="279"/>
<line opacity="0.1" stroke="#000000" stroke-width="1" x1="60" y1="267" x2="1190" y2="267"/>
<line opacity="0.1" stroke="#000000" stroke-width="1" x1="60" y1="254" x2="1190" y2="254"/>
<line opacity="0.1" stroke="#000000" stroke-width="1" x1="60" y1="242" x2="1190" y2="242"/>
<line opacity="0.1" stroke="#000000" stroke-width="1" x1="60" y1="229" x2="1190" y2="229"/>
<line opacity="0.1" stroke="#000000" stroke-width="1" x1="60" y1="217" x2="1190" y2="217"/>
<line opacity="0.1" stroke="#000000" stroke-width="1" x1="60" y1="204" x2="1190" y2="204"/>
<line opacity="0.1" stroke="#000000" stroke-width="1" x1="60" y1="192" x2="1190" y2="192"/>
<line opacity="0.1" stroke="#000000" stroke-width="1" x1="60" y1="180" x2="1190" y2="180"/>
<line opacity="0.1" stroke="#000000" stroke-width="1" x1="60" y1="167" x2="1190" y2="167"/>
<line opacity="0.1" stroke="#000000" stroke-width="1" x1="60" y1="155" x2="1190" y2="155"/>
<line opacity="0.1" stroke="#000000" stroke-width="1" x1="60" y1="142" x2="1190" y2="142"/>
<line opacity="0.1" stroke="#000000" stroke-width="1" x1="60" y1="130" x2="1190" y2="130"/>
<line opacity="0.1" stroke="#000000" stroke-width="1" x1="60" y1="117" x2="1190" y2="117"/>
<line opacity="0.1" stroke="#000000" stroke-width="1" x1="60" y1="105" x2="1190" y2="105"/>
<line opacity="0.1" stroke="#000000" stroke-width="1" x1="60" y1="92" x2="1190" y2="92"/>
<line opacity="0.1" stroke="#000000" stroke-width="1" x1="60" y1="80" x2="1190" y2="80"/>
<line opacity="0.1" stroke="#000000" stroke-width="1" x1="60" y1="67" x2="1190" y2="67"/>
<line opacity="0.1" stroke="#000000" stroke-width="1" x1="60" y1="55" x2="1190" y2="55"/>
<line opacity="0.1" stroke="#000000" stroke-width="1" x1="60" y1="43" x2="1190" y2="43"/>
<line opacity="0.1" stroke="#000000" stroke-width="1" x1="60" y1="30" x2="1190" y2="30"/>
<line opacity="0.1" stroke="#000000" stroke-width="1" x1="60" y1="18" x2="1190" y2="18"/>
<text x="10" y="375" dy="0.76em" text-anchor="middle" font-family="sans-serif" font-size="9.67741935483871" opacity="1" fill="#000000" transform="rotate(270, 10, 375)">
Number of dependent crates
</text>
<line opacity="0.2" stroke="#000000" stroke-width="1" x1="60" y1="615" x2="1190" y2="615"/>
<line opacity="0.2" stroke="#000000" stroke-width="1" x1="60" y1="491" x2="1190" y2="491"/>
<line opacity="0.2" stroke="#000000" stroke-width="1" x1="60" y1="366" x2="1190" y2="366"/>
<line opacity="0.2" stroke="#000000" stroke-width="1" x1="60" y1="242" x2="1190" y2="242"/>
<line opacity="0.2" stroke="#000000" stroke-width="1" x1="60" y1="117" x2="1190" y2="117"/>
<polyline fill="none" opacity="1" stroke="#000000" stroke-width="1" points="59,10 59,740 "/>
<text x="50" y="615" dy="0.5ex" text-anchor="end" font-family="sans-serif" font-size="9.67741935483871" opacity="1" fill="#000000">
100
</text>
<polyline fill="none" opacity="1" stroke="#000000" stroke-width="1" points="54,615 59,615 "/>
<text x="50" y="491" dy="0.5ex" text-anchor="end" font-family="sans-serif" font-size="9.67741935483871" opacity="1" fill="#000000">
200
</text>
<polyline fill="none" opacity="1" stroke="#000000" stroke-width="1" points="54,491 59,491 "/>
<text x="50" y="366" dy="0.5ex" text-anchor="end" font-family="sans-serif" font-size="9.67741935483871" opacity="1" fill="#000000">
300
</text>
<polyline fill="none" opacity="1" stroke="#000000" stroke-width="1" points="54,366 59,366 "/>
<text x="50" y="242" dy="0.5ex" text-anchor="end" font-family="sans-serif" font-size="9.67741935483871" opacity="1" fill="#000000">
400
</text>
<polyline fill="none" opacity="1" stroke="#000000" stroke-width="1" points="54,242 59,242 "/>
<text x="50" y="117" dy="0.5ex" text-anchor="end" font-family="sans-serif" font-size="9.67741935483871" opacity="1" fill="#000000">
500
</text>
<polyline fill="none" opacity="1" stroke="#000000" stroke-width="1" points="54,117 59,117 "/>
<polyline fill="none" opacity="1" stroke="#000000" stroke-width="1" points="60,740 1190,740 "/>
<text x="60" y="750" dy="0.76em" text-anchor="middle" font-family="sans-serif" font-size="9.67741935483871" opacity="1" fill="#000000">
2015-01-27Z
</text>
<polyline fill="none" opacity="1" stroke="#000000" stroke-width="1" points="60,740 60,745 "/>
<text x="174" y="750" dy="0.76em" text-anchor="middle" font-family="sans-serif" font-size="9.67741935483871" opacity="1" fill="#000000">
2015-08-25Z
</text>
<polyline fill="none" opacity="1" stroke="#000000" stroke-width="1" points="174,740 174,745 "/>
<text x="289" y="750" dy="0.76em" text-anchor="middle" font-family="sans-serif" font-size="9.67741935483871" opacity="1" fill="#000000">
2016-03-22Z
</text>
<polyline fill="none" opacity="1" stroke="#000000" stroke-width="1" points="289,740 289,745 "/>
<text x="403" y="750" dy="0.76em" text-anchor="middle" font-family="sans-serif" font-size="9.67741935483871" opacity="1" fill="#000000">
2016-10-18Z
</text>
<polyline fill="none" opacity="1" stroke="#000000" stroke-width="1" points="403,740 403,745 "/>
<text x="518" y="750" dy="0.76em" text-anchor="middle" font-family="sans-serif" font-size="9.67741935483871" opacity="1" fill="#000000">
2017-05-16Z
</text>
<polyline fill="none" opacity="1" stroke="#000000" stroke-width="1" points="518,740 518,745 "/>
<text x="633" y="750" dy="0.76em" text-anchor="middle" font-family="sans-serif" font-size="9.67741935483871" opacity="1" fill="#000000">
2017-12-12Z
</text>
<polyline fill="none" opacity="1" stroke="#000000" stroke-width="1" points="633,740 633,745 "/>
<text x="747" y="750" dy="0.76em" text-anchor="middle" font-family="sans-serif" font-size="9.67741935483871" opacity="1" fill="#000000">
2018-07-10Z
</text>
<polyline fill="none" opacity="1" stroke="#000000" stroke-width="1" points="747,740 747,745 "/>
<text x="862" y="750" dy="0.76em" text-anchor="middle" font-family="sans-serif" font-size="9.67741935483871" opacity="1" fill="#000000">
2019-02-05Z
</text>
<polyline fill="none" opacity="1" stroke="#000000" stroke-width="1" points="862,740 862,745 "/>
<text x="977" y="750" dy="0.76em" text-anchor="middle" font-family="sans-serif" font-size="9.67741935483871" opacity="1" fill="#000000">
2019-09-03Z
</text>
<polyline fill="none" opacity="1" stroke="#000000" stroke-width="1" points="977,740 977,745 "/>
<text x="1091" y="750" dy="0.76em" text-anchor="middle" font-family="sans-serif" font-size="9.67741935483871" opacity="1" fill="#000000">
2020-03-31Z
</text>
<polyline fill="none" opacity="1" stroke="#000000" stroke-width="1" points="1091,740 1091,745 "/>
<polyline fill="none" opacity="1" stroke="#E61919" stroke-width="2" points="114,738 120,737 124,737 130,736 132,736 132,735 133,735 135,735 135,735 138,735 139,735 139,735 140,735 140,733 141,733 144,733 147,733 157,733 164,733 165,733 168,733 170,735 174,735 175,735 175,735 176,735 178,735 185,735 189,735 193,735 198,735 199,733 201,733 203,733 205,733 206,732 206,732 207,731 209,731 209,731 212,731 212,731 213,728 213,728 214,728 215,728 216,728 216,728 217,728 218,727 218,726 219,726 221,726 221,726 222,726 223,726 223,726 225,726 226,726 228,726 228,726 229,726 229,726 231,726 233,726 233,726 234,726 234,726 235,725 236,725 237,725 242,725 242,725 243,725 244,725 245,723 245,723 246,722 246,722 248,722 248,722 249,721 249,721 250,720 251,720 251,720 252,720 253,718 254,718 255,718 255,718 256,718 257,718 257,718 258,718 258,718 259,718 260,717 261,717 261,717 262,717 263,717 265,717 265,717 266,717 267,717 268,717 269,717 269,717 271,717 271,716 272,716 273,716 273,716 274,716 275,716 276,716 276,716 277,716 277,716 278,716 278,716 279,716 280,716 281,716 281,716 282,716 282,716 283,716 284,715 284,715 285,715 286,715 287,715 288,715 288,715 289,715 290,715 291,715 292,715 292,715 293,715 294,715 294,715 295,715 295,715 296,715 297,715 298,715 299,715 299,713 301,713 301,713 302,713 302,712 303,712 304,712 304,711 305,711 305,711 306,711 306,711 307,711 307,711 308,711 308,711 309,711 311,711 312,711 312,711 313,711 314,711 314,711 315,711 316,711 316,711 317,711 317,711 318,711 318,711 319,711 319,711 320,711 320,711 321,711 322,711 322,711 324,711 324,711 325,711 325,711 326,711 326,711 329,711 330,711 330,711 331,711 331,711 332,711 332,711 333,711 334,711 334,711 335,711 335,711 336,711 336,711 337,711 337,711 338,710 338,709 339,707 340,706 340,706 341,706 341,706 342,706 342,706 343,706 343,706 344,706 344,706 345,706 346,706 346,706 347,706 347,706 348,705 348,705 349,704 349,704 350,704 350,704 351,704 352,704 352,704 353,702 354,702 354,702 355,702 355,702 356,702 356,702 358,702 359,702 360,702 361,701 361,701 362,701 362,701 364,701 364,700 365,699 366,697 366,696 367,696 369,696 370,696 371,695 371,695 372,695 372,695 374,695 374,694 375,694 376,694 377,694 377,694 378,692 378,692 379,692 379,694 380,694 380,694 381,694 382,692 383,692 384,692 385,692 385,692 386,692 386,692 387,692 388,692 389,692 389,692 390,692 390,691 391,691 391,690 392,689 392,687 393,689 394,689 394,689 395,689 395,689 396,689 396,689 397,689 397,689 398,689 399,689 399,689 400,689 400,687 401,687 401,687 402,687 402,687 403,687 403,687 405,687 405,687 406,684 407,684 407,682 408,682 408,682 409,682 409,681 410,681 411,680 411,680 412,680 412,680 413,680 414,680 414,680 415,680 415,680 416,680 417,680 417,679 418,679 418,679 419,679 419,680 420,680 420,680 421,680 421,680 422,680 423,680 423,680 424,680 424,680 425,680 425,680 426,680 426,680 427,680 427,680 428,679 429,679 430,677 430,677 431,677 431,677 432,677 433,677 435,677 435,677 436,676 436,676 437,676 437,676 438,676 438,675 439,675 439,675 440,675 441,675 441,675 442,675 442,675 443,674 443,674 444,672 444,672 445,672 445,671 446,670 447,671 447,671 448,671 448,671 449,671 449,671 450,671 451,671 451,671 452,670 453,670 453,670 454,670 454,670 455,670 455,670 456,670 456,670 457,669 457,669 458,669 459,669 459,669 460,669 460,669 461,667 461,667 462,667 462,667 463,667 463,667 464,666 465,666 465,666 466,665 466,665 467,664 467,664 468,664 468,662 469,662 469,662 470,662 471,661 471,660 472,660 472,660 473,660 473,660 474,660 474,660 475,660 475,659 476,657 477,657 477,657 478,657 478,657 479,657 479,656 480,656 480,656 481,656 481,656 482,655 483,655 483,655 484,655 484,655 485,655 485,655 486,655 486,655 487,656 487,655 488,655 489,655 489,655 490,654 490,654 491,654 491,654 492,654 492,654 493,654 493,654 494,652 495,652 495,652 496,651 496,649 497,649 497,649 498,649 498,649 499,650 499,650 500,650 501,650 501,650 502,650 502,650 503,650 503,650 504,650 504,650 505,650 505,650 506,650 507,650 507,650 508,650 508,650 509,650 509,649 510,648 510,646 511,646 512,645 512,645 513,645 513,645 514,645 514,645 515,644 515,644 516,644 516,644 517,644 518,644 518,644 519,643 519,643 520,643 520,643 521,644 521,643 522,643 522,641 523,641 524,641 524,641 525,641 525,640 526,640 526,641 527,640 527,640 528,640 528,640 529,640 530,639 530,639 531,639 531,639 532,639 532,639 533,639 533,639 534,639 534,639 535,639 536,639 536,639 537,639 537,639 538,639 538,639 539,639 539,639 540,639 540,639 541,639 542,639 542,639 543,639 543,639 544,639 544,639 545,639 545,639 546,639 546,636 547,636 548,636 548,639 549,639 549,639 550,639 550,639 551,639 551,638 552,636 552,636 553,636 554,636 554,636 555,636 555,636 556,636 556,636 557,636 557,636 558,636 558,636 559,636 560,636 560,636 561,636 561,636 562,636 562,636 563,636 563,636 564,636 564,635 565,634 566,634 566,634 567,633 567,633 568,631 568,631 569,631 569,631 570,631 570,631 571,631 572,631 572,631 573,631 573,631 574,631 574,631 575,630 575,629 576,629 576,629 577,629 578,629 578,628 579,628 579,628 580,628 580,628 581,628 581,626 582,626 582,626 583,624 584,623 584,624 585,623 585,620 586,620 586,620 587,620 587,620 588,620 588,620 589,621 590,621 590,621 591,621 591,621 592,621 592,621 593,620 593,620 594,620 594,620 595,620 596,620 596,620 597,620 597,620 598,620 598,620 599,620 599,620 600,619 600,619 602,619 602,619 603,619 603,619 604,618 604,618 605,616 605,616 606,616 606,615 607,615 608,615 608,615 609,615 609,613 610,613 610,613 611,611 611,611 612,611 612,611 613,611 614,610 614,609 615,609 615,608 616,608 616,608 617,608 617,608 618,608 618,608 619,606 620,605 620,605 621,605 621,605 622,605 622,605 623,605 623,605 624,605 625,605 625,605 626,606 626,606 627,606 627,605 628,605 628,605 629,605 629,605 630,604 631,604 631,604 632,604 632,604 633,604 633,604 634,604 634,604 635,604 635,601 636,601 637,601 637,601 638,601 638,601 639,601 639,601 640,601 640,601 641,601 641,601 642,601 643,600 643,600 644,600 644,600 645,600 645,600 646,599 646,599 647,599 647,599 648,599 649,598 649,598 650,598 650,596 651,596 651,595 652,595 652,594 653,595 653,595 654,595 655,595 655,595 656,595 656,595 657,595 657,595 658,595 658,596 659,596 659,596 660,596 661,596 661,596 662,595 662,595 663,593 663,593 664,593 664,592 665,592 665,590 666,590 667,590 667,590 668,592 668,592 669,590 669,590 670,590 670,590 671,590 671,590 672,590 673,590 673,590 674,590 674,590 675,590 675,589 676,588 676,588 677,588 677,588 678,588 679,587 679,588 680,587 680,587 681,587 681,587 682,587 682,587 683,587 683,587 684,587 685,587 685,585 686,585 686,585 687,584 687,583 688,583 688,583 689,582 689,582 690,580 691,580 691,580 692,579 692,579 693,579 693,579 694,580 694,580 695,580 695,580 696,580 697,580 697,580 698,580 698,580 699,580 699,580 700,580 700,582 701,582 701,582 702,580 703,580 703,580 704,580 704,579 705,579 705,579 706,577 706,577 707,577 707,577 708,577 709,577 709,577 710,575 710,575 711,575 711,575 712,575 712,575 713,575 713,575 714,575 715,575 715,575 716,575 716,575 717,575 718,575 718,575 719,575 719,575 720,575 721,574 721,574 722,573 722,573 723,573 723,572 724,572 724,573 725,573 725,573 726,570 727,570 727,569 728,569 728,569 729,568 729,568 730,568 730,568 731,568 731,568 732,568 733,567 733,567 734,567 734,567 735,567 735,567 736,567 736,567 737,567 738,567 738,567 739,564 739,564 740,564 740,564 741,564 741,564 742,564 742,564 743,564 744,564 744,564 745,564 745,564 746,564 746,564 747,563 747,563 748,562 748,562 749,562 750,562 750,562 751,562 751,562 752,560 752,558 753,558 753,558 754,558 754,558 755,558 756,558 756,558 757,558 757,558 758,558 758,558 759,558 759,558 760,558 760,558 761,559 762,559 762,558 763,558 763,558 764,558 764,558 765,558 765,558 766,558 766,558 767,558 768,557 768,557 769,557 769,557 770,555 770,554 771,554 771,554 772,554 772,554 773,554 774,554 774,554 775,554 775,554 776,554 776,554 777,554 777,554 778,554 778,554 779,553 780,553 780,553 781,552 781,552 782,552 782,552 783,552 783,552 784,552 784,552 785,552 786,552 786,552 787,552 787,552 788,552 788,552 789,552 789,550 790,550 790,550 790,550 791,550 792,550 792,549 793,549 793,549 794,549 794,548 795,548 795,548 796,547 796,547 797,547 798,545 798,545 799,545 799,545 800,544 800,544 801,544 801,543 802,543 802,543 803,542 804,542 804,540 805,540 805,540 806,540 806,540 807,540 807,539 808,539 808,539 809,539 810,539 810,539 811,539 811,539 812,539 812,538 813,538 813,538 814,538 814,538 815,538 816,538 816,538 817,537 817,537 818,537 818,535 819,535 819,535 820,535 820,534 821,534 822,534 822,533 823,532 823,532 824,532 824,531 825,528 825,528 826,528 826,528 827,528 828,528 828,528 829,528 829,526 830,526 830,524 831,524 831,523 832,522 832,522 833,522 834,522 834,522 835,521 835,519 836,519 836,519 837,519 837,519 838,519 838,519 839,519 840,519 840,519 841,519 841,519 842,519 842,519 843,519 843,517 844,517 844,516 845,514 846,514 846,513 847,513 847,513 848,512 848,512 849,512 849,512 850,511 851,511 851,511 852,509 852,509 853,508 853,508 854,508 854,508 855,508 855,507 856,507 857,507 857,507 858,507 858,506 859,506 859,506 860,506 860,506 861,504 861,504 862,503 863,503 863,503 864,503 864,503 865,503 865,503 866,503 866,503 867,503 867,502 868,502 869,502 869,502 870,502 870,502 871,502 871,502 872,502 872,502 873,502 873,501 874,501 875,501 875,501 876,501 876,501 877,501 877,501 878,499 878,499 879,497 879,497 880,497 881,497 881,497 882,497 882,497 883,497 883,496 884,494 884,493 885,493 885,493 886,493 887,493 887,493 888,492 888,492 889,492 889,492 890,492 890,492 891,492 891,492 892,492 893,492 893,489 894,489 894,489 895,489 895,489 896,488 896,488 897,488 897,488 898,488 899,488 899,488 900,487 900,487 901,487 901,487 902,487 902,487 903,487 903,486 904,486 905,486 905,486 906,484 906,483 907,483 907,483 908,483 908,483 909,482 909,482 910,482 911,482 911,482 912,482 912,482 913,482 913,482 914,482 914,482 915,481 915,481 916,481 917,477 917,477 918,477 918,477 919,476 919,476 920,476 920,475 921,475 921,475 922,475 923,475 923,475 924,475 924,473 925,473 925,473 926,473 926,473 927,473 927,473 928,472 929,470 929,470 930,470 930,470 931,470 931,468 932,468 932,468 933,468 933,468 934,468 935,468 935,468 936,468 936,468 937,468 937,468 938,468 938,468 939,468 939,468 940,465 941,465 941,465 942,465 942,465 943,465 943,465 944,465 944,465 945,462 945,462 946,462 947,462 947,461 948,461 948,461 949,461 949,461 950,461 950,460 951,460 951,458 952,458 953,458 953,458 954,458 954,458 955,458 955,458 956,458 956,457 957,457 957,456 958,456 959,456 959,456 960,456 960,456 961,456 961,456 962,456 962,455 963,455 964,455 964,455 965,455 965,455 966,455 966,455 967,455 967,455 968,453 968,453 969,453 970,453 970,452 971,451 971,451 972,451 972,451 973,451 973,451 974,451 974,451 975,451 976,450 976,450 977,448 977,451 978,451 978,451 979,451 979,450 980,450 980,448 981,447 982,447 982,447 983,446 983,446 984,446 984,445 985,445 985,440 986,440 986,438 987,438 988,438 988,440 989,440 989,440 990,438 990,437 991,437 991,436 992,436 992,436 993,436 994,435 994,433 995,433 995,432 996,432 996,436 997,436 997,435 998,436 998,436 999,436 1000,436 1000,436 1001,436 1001,436 1001,436 1002,436 1002,436 1003,436 1003,436 1004,436 1004,436 1005,436 1006,435 1006,433 1007,431 1007,431 1008,431 1008,431 1009,431 1009,431 1010,431 1010,431 1011,431 1012,431 1012,430 1013,430 1013,430 1014,430 1014,430 1015,430 1015,430 1016,428 1016,428 1017,428 1018,428 1018,428 1019,428 1019,428 1020,428 1020,428 1021,428 1021,428 1022,428 1022,428 1023,428 1024,428 1024,427 1025,426 1025,426 1026,425 1026,423 1027,421 1027,421 1028,421 1028,421 1029,421 1030,421 1030,421 1031,420 1031,420 1032,420 1032,420 1033,418 1033,418 1034,411 1034,411 1035,411 1036,411 1036,411 1037,411 1037,410 1038,410 1038,410 1039,410 1039,410 1040,410 1040,410 1041,409 1042,409 1042,409 1043,407 1043,407 1044,406 1044,406 1045,406 1045,406 1046,406 1046,405 1047,405 1048,405 1048,405 1049,404 1049,404 1050,401 1050,401 1051,402 1051,402 1052,402 1052,401 1053,401 1054,401 1054,402 1055,402 1055,402 1056,402 1056,402 1057,402 1057,402 1058,402 1058,401 1059,401 1060,399 1060,397 1061,397 1061,397 1062,397 1062,397 1063,397 1063,397 1064,396 1064,396 1065,395 1066,395 1066,395 1067,395 1067,392 1068,392 1068,394 1069,394 1069,394 1070,394 1070,394 1071,394 1072,394 1072,394 1073,394 1073,391 1074,391 1074,392 1075,391 1075,390 1076,389 1077,389 1077,389 1078,389 1078,389 1078,389 1078,389 1079,389 1079,389 1079,389 1080,389 1080,389 1080,389 1081,389 1081,389 1081,389 1081,389 1082,389 1082,389 1083,389 1083,387 1083,387 1083,386 1084,386 1084,385 1084,385 1084,385 1085,385 1085,385 1085,385 1085,385 1086,385 1086,384 1086,384 1087,384 1087,382 1087,382 1088,382 1088,382 1089,382 1089,381 1089,381 1089,381 1090,381 1090,381 1090,381 1090,380 1091,380 1091,380 1091,379 1092,379 1092,379 1092,379 1092,379 1093,379 1093,379 1093,379 1093,379 1094,379 1094,379 1095,379 1095,379 1095,379 1095,379 1096,379 1096,379 1096,379 1096,379 1097,379 1097,379 1097,379 1098,379 1098,379 1098,379 1098,379 1099,379 1099,380 1099,380 1099,380 1100,380 1100,379 1101,379 1101,379 1101,379 1101,379 1102,379 1102,379 1102,379 1102,379 1103,379 1103,379 1103,377 1104,376 1104,376 1104,375 1105,375 1105,374 1105,374 1105,372 1106,372 1106,372 1107,372 1107,370 1107,370 1107,367 1108,367 1108,366 1108,366 1108,364 1109,364 1109,364 1109,365 1110,365 1110,365 1110,365 1110,365 1111,365 1111,364 1111,364 1111,362 1112,362 1112,361 1113,361 1113,361 1113,361 1114,361 1114,359 1114,359 1114,356 1115,356 1115,356 1115,356 1115,356 1116,356 1116,355 1116,355 1116,355 1117,355 1117,354 1117,354 1117,353 1118,353 1118,353 1119,353 1119,353 1119,353 1119,353 1120,353 1120,351 1120,351 1120,351 1121,351 1121,351 1121,351 1121,345 1122,345 1122,344 1122,344 1122,343 1123,343 1123,343 1123,343 1124,343 1124,343 1125,343 1125,343 1125,343 1125,341 1126,341 1126,341 1126,341 1126,341 1127,341 1127,341 1127,341 1127,340 1128,340 1128,340 1128,338 1129,338 1129,338 1129,338 1129,339 1130,339 1130,338 1131,338 1131,336 1131,336 1131,336 1132,336 1132,335 1133,335 1133,335 1133,335 1134,335 1134,335 1134,335 1134,335 1135,335 1135,334 1135,334 1135,333 1136,333 1136,333 1137,333 1137,331 1137,331 1137,331 1138,331 1138,331 1138,331 1138,330 1139,330 1139,330 1139,330 1140,330 1140,330 1140,330 1140,330 1141,330 1141,328 1141,328 1141,328 1142,328 1142,326 1143,326 1143,326 1143,326 1143,326 1144,326 1144,326 1144,326 1144,326 1145,326 1145,326 1145,326 1145,326 1146,326 1146,325 1146,325 1146,325 1147,325 1147,325 1147,325 1147,324 1148,324 1149,324 1149,324 1149,324 1149,321 1150,321 1150,321 1150,321 1150,321 1151,321 1151,321 1151,321 1151,321 1152,321 1152,321 1152,320 1153,320 1153,320 1153,320 1153,320 1154,320 1154,319 1155,319 1155,318 1155,318 1155,318 1156,318 1156,318 1156,318 1156,318 1157,318 1157,319 1157,319 1157,319 1158,319 1158,318 1158,318 1158,318 1159,318 1159,318 1159,318 1159,315 1160,315 1160,314 1161,314 1161,314 1161,314 1161,314 1162,314 1162,311 1162,311 1162,311 1163,311 1163,311 1163,313 1164,313 1164,313 1164,313 1164,313 1165,313 1165,314 1165,314 1165,314 1166,314 1166,314 1167,314 1167,313 1167,313 1167,311 1168,311 1168,313 1168,313 1168,313 1169,313 1169,310 1169,310 1169,310 1170,310 1170,310 1170,310 1170,310 1171,310 1171,309 1171,309 1171,309 1172,309 1172,308 1173,308 1173,308 1173,308 1173,308 1174,308 1174,306 1174,306 1174,306 1175,306 1175,306 1175,306 1175,308 1176,308 1176,305 1176,305 1176,304 1177,304 1177,304 1177,304 1177,304 1178,304 1179,304 1179,303 1179,303 1179,303 1180,303 1180,303 1180,303 1181,303 1181,301 1181,301 1181,300 1182,300 1182,300 1182,300 1182,300 1183,300 1183,300 1183,300 1183,299 1184,299 1184,298 1185,298 1185,298 1185,298 1185,298 1186,298 1186,298 1186,298 1187,298 1187,298 1187,298 1187,295 1188,295 1188,295 1188,295 1188,295 1189,295 1189,295 1190,295 "/>
<polyline fill="none" opacity="1" stroke="#E5E619" stroke-width="2" points="333,738 339,737 341,736 346,735 362,733 384,732 403,731 414,730 417,728 417,728 421,728 439,727 447,725 450,723 468,722 476,721 487,718 487,718 488,718 489,717 489,717 490,717 490,717 491,717 491,716 492,716 494,716 497,716 498,716 500,715 501,715 501,715 503,713 505,712 507,711 508,711 508,710 509,710 513,709 513,709 514,709 514,709 515,707 515,707 516,707 518,706 520,706 521,706 523,706 524,706 525,705 526,705 527,705 527,705 528,705 529,705 530,705 531,705 533,704 534,702 536,701 537,701 537,700 538,700 539,700 539,699 540,699 540,699 547,699 548,697 549,697 551,697 552,696 552,696 554,696 555,696 557,696 557,696 558,696 558,695 559,695 560,695 563,695 564,694 564,694 565,694 567,694 567,694 568,694 569,692 572,692 572,692 573,691 573,692 574,692 574,692 577,691 578,691 579,691 580,691 581,691 581,690 582,690 582,690 584,690 584,689 585,689 586,689 587,689 588,689 588,687 589,687 591,687 592,687 592,686 593,686 594,686 594,686 596,686 596,686 597,686 597,685 598,685 599,685 599,685 600,685 600,684 601,682 602,682 602,682 603,684 603,684 604,684 604,684 605,682 605,681 606,681 606,680 607,679 608,679 608,677 609,677 611,677 611,677 612,677 613,676 614,676 614,675 615,675 616,675 617,674 618,675 619,675 620,675 621,675 623,675 623,675 625,675 625,675 626,672 626,672 627,672 627,674 628,674 628,674 629,674 629,674 630,674 631,674 632,674 633,672 634,672 634,672 635,671 635,672 638,672 638,672 639,672 640,672 640,672 641,672 642,672 644,671 644,671 645,670 646,670 646,670 648,670 649,670 651,670 651,669 655,667 655,667 657,667 657,667 658,666 659,666 659,666 660,666 661,666 661,666 662,666 663,666 663,666 664,666 664,665 665,665 666,665 667,664 667,664 668,661 669,660 671,660 671,659 672,659 673,659 676,659 677,659 678,659 680,659 680,659 682,657 683,657 684,656 685,655 686,655 688,655 688,655 689,655 689,655 690,655 694,654 694,654 695,652 695,652 697,651 698,650 699,650 699,650 700,649 700,649 701,648 701,646 702,646 703,646 704,646 705,646 705,646 706,646 707,646 708,646 709,645 710,645 710,645 711,644 711,644 712,644 712,643 713,640 713,640 715,640 717,641 719,640 720,636 721,635 721,636 722,636 722,636 723,635 725,635 726,635 727,635 728,635 728,635 730,634 730,634 731,634 732,633 733,633 733,631 734,631 734,631 735,631 735,630 736,630 736,629 738,628 738,628 739,628 739,628 740,626 741,626 742,626 742,625 743,625 744,625 745,625 746,625 746,623 747,621 747,621 748,621 748,620 749,620 750,620 750,620 751,620 751,620 752,620 753,620 753,620 754,620 755,620 756,620 756,620 757,619 757,619 759,619 759,619 760,619 760,619 763,618 763,618 764,618 764,616 765,615 765,614 766,614 767,614 768,613 769,613 769,611 770,611 770,611 771,611 771,611 772,611 772,610 773,609 774,609 774,609 775,608 776,606 777,606 777,606 778,605 778,605 779,605 780,605 780,605 781,605 782,605 782,605 783,605 783,605 784,605 784,605 785,605 786,605 786,604 787,604 787,603 788,603 788,603 789,601 789,598 790,598 790,598 790,598 792,596 793,596 794,593 794,592 795,590 795,589 796,589 796,589 797,588 798,588 799,588 800,588 800,588 801,588 803,587 804,584 804,584 805,582 805,582 806,582 806,582 807,582 807,582 808,582 808,580 809,578 810,578 810,575 811,575 811,575 812,574 812,574 813,574 813,574 814,574 814,574 815,573 816,573 816,570 817,570 817,570 818,570 819,570 819,569 820,569 820,569 821,569 822,569 822,569 823,569 823,568 824,568 824,568 825,568 825,568 826,568 826,567 827,567 828,567 828,567 829,567 829,567 830,567 830,565 831,564 831,564 832,564 832,563 833,563 834,563 834,563 835,563 835,560 836,560 836,559 837,559 837,558 838,558 838,558 840,558 840,558 841,558 841,558 842,557 842,555 843,554 843,553 844,552 844,553 845,553 846,552 846,552 847,550 847,550 848,550 848,550 849,550 849,550 850,550 851,550 851,548 852,549 852,548 853,547 853,545 854,545 854,544 855,542 855,540 856,540 857,540 858,540 858,539 859,539 859,539 860,539 860,539 861,539 861,539 862,539 863,540 863,540 864,540 864,539 865,538 866,538 866,538 867,538 867,538 868,538 869,537 869,535 870,535 870,535 871,531 871,531 872,531 872,531 873,529 873,527 874,524 875,524 875,522 876,522 876,522 877,522 877,519 878,519 878,518 879,517 879,518 880,517 881,516 881,514 882,514 882,513 883,513 883,512 884,512 885,512 885,512 886,509 887,509 887,508 888,508 888,506 889,506 889,503 890,502 890,502 891,501 891,498 892,498 893,497 893,496 894,496 894,496 895,496 895,496 896,496 896,496 897,496 897,494 898,494 899,494 899,494 900,494 900,494 901,492 901,492 902,491 902,491 903,491 903,489 904,489 905,489 905,489 906,489 906,489 907,489 907,489 908,489 908,489 909,487 909,487 910,484 911,484 911,484 912,484 912,482 913,482 913,482 914,481 914,481 915,479 915,479 916,479 917,479 917,478 918,476 918,475 919,475 919,473 920,472 920,471 921,467 921,466 922,466 923,465 923,465 924,465 924,463 925,462 925,462 926,461 926,462 927,460 927,460 928,457 929,455 929,456 930,456 930,456 931,455 931,455 932,455 932,455 933,455 933,453 934,453 935,453 935,453 936,453 936,453 937,452 937,451 938,448 938,447 939,447 939,447 940,446 941,446 941,443 942,443 942,443 943,445 943,443 944,443 944,443 945,443 945,442 946,443 947,441 947,441 948,441 948,438 949,438 949,437 950,435 950,431 951,430 951,430 952,430 953,427 953,427 954,427 954,427 955,427 955,427 956,426 956,426 957,426 957,426 958,422 959,421 959,421 960,421 960,421 961,421 961,420 962,420 962,418 963,417 964,416 964,416 965,415 966,414 966,415 967,415 967,415 968,415 968,415 969,414 970,414 970,415 971,415 971,415 972,415 972,415 973,415 973,415 974,415 974,414 975,414 976,414 976,414 977,414 977,412 978,412 978,412 979,412 979,412 980,412 980,411 981,411 982,410 982,410 983,410 983,410 984,409 984,410 985,407 985,407 986,406 986,406 987,406 988,406 988,402 989,399 989,399 990,399 990,399 991,399 991,400 992,399 992,401 993,401 994,400 994,400 995,400 995,399 996,399 996,399 997,399 997,397 998,396 998,396 999,395 1000,394 1000,392 1001,392 1001,392 1001,391 1002,391 1002,391 1003,389 1003,389 1004,386 1004,384 1005,384 1006,384 1006,382 1007,382 1007,381 1008,382 1008,382 1009,382 1009,382 1010,379 1010,379 1011,379 1012,377 1012,377 1013,376 1013,376 1014,376 1014,376 1015,376 1015,376 1016,376 1016,376 1017,376 1018,376 1018,375 1019,375 1019,375 1020,374 1020,374 1021,372 1021,371 1022,371 1022,371 1023,371 1024,371 1024,371 1025,371 1025,371 1026,371 1026,371 1027,371 1027,370 1028,370 1028,367 1029,366 1030,366 1030,366 1031,365 1031,364 1032,362 1032,362 1033,362 1033,361 1034,360 1034,359 1035,359 1036,359 1036,359 1037,359 1037,358 1038,356 1038,356 1039,358 1039,356 1040,355 1040,355 1041,354 1042,354 1042,351 1043,351 1043,351 1044,349 1044,349 1045,348 1045,346 1046,344 1046,344 1047,344 1048,343 1048,343 1049,341 1049,341 1050,340 1050,340 1051,340 1051,340 1052,340 1052,339 1053,339 1054,339 1054,339 1055,338 1055,338 1056,338 1056,338 1057,338 1057,338 1058,336 1058,335 1059,335 1060,331 1060,331 1061,329 1061,329 1062,321 1062,319 1063,318 1063,315 1064,315 1064,314 1065,314 1066,314 1066,314 1067,313 1067,311 1068,308 1068,308 1069,308 1069,305 1070,306 1070,306 1071,306 1072,301 1072,301 1073,303 1073,303 1074,303 1074,300 1075,300 1075,299 1076,303 1077,303 1077,303 1078,301 1078,301 1078,301 1078,299 1079,299 1079,299 1079,299 1080,299 1080,299 1080,298 1081,298 1081,295 1081,295 1081,294 1082,294 1082,292 1083,292 1083,290 1083,290 1083,289 1084,289 1084,289 1084,289 1084,288 1085,288 1085,288 1085,288 1085,287 1086,287 1086,287 1086,284 1087,284 1087,285 1087,285 1088,285 1088,285 1089,285 1089,284 1089,284 1089,284 1090,284 1090,284 1090,284 1090,280 1091,280 1091,280 1091,280 1092,280 1092,280 1092,280 1092,280 1093,280 1093,278 1093,278 1093,277 1094,277 1094,277 1095,277 1095,275 1095,275 1095,275 1096,275 1096,274 1096,274 1096,273 1097,272 1097,272 1097,270 1098,270 1098,269 1098,269 1098,265 1099,265 1099,265 1099,265 1099,264 1100,264 1100,263 1101,263 1101,262 1101,262 1101,259 1102,259 1102,257 1102,257 1102,257 1103,257 1103,257 1103,255 1104,255 1104,255 1104,252 1105,252 1105,252 1105,252 1105,252 1106,252 1106,252 1107,252 1107,250 1107,250 1107,250 1108,250 1108,250 1108,250 1108,250 1109,250 1109,248 1109,248 1110,248 1110,248 1110,248 1110,247 1111,247 1111,244 1111,244 1111,242 1112,242 1112,241 1113,241 1113,241 1113,241 1114,241 1114,241 1114,241 1114,239 1115,239 1115,238 1115,238 1115,238 1116,238 1116,238 1116,238 1116,236 1117,236 1117,236 1117,236 1117,236 1118,236 1118,237 1119,237 1119,236 1119,236 1119,233 1120,233 1120,232 1120,232 1120,232 1121,232 1121,232 1121,232 1121,228 1122,228 1122,228 1122,228 1122,227 1123,226 1123,226 1123,226 1124,226 1124,222 1125,222 1125,221 1125,221 1125,221 1126,221 1126,221 1126,221 1126,219 1127,219 1127,219 1127,219 1127,218 1128,218 1128,217 1128,217 1129,217 1129,213 1129,213 1129,211 1130,211 1130,208 1131,208 1131,207 1131,207 1131,206 1132,204 1132,202 1133,202 1133,201 1133,198 1134,198 1134,197 1134,197 1134,197 1135,197 1135,197 1135,197 1135,197 1136,197 1136,196 1137,196 1137,192 1137,192 1137,192 1138,192 1138,191 1138,191 1138,189 1139,188 1139,188 1139,188 1140,187 1140,187 1140,187 1140,187 1141,187 1141,184 1141,184 1141,181 1142,181 1142,182 1143,182 1143,182 1143,181 1143,180 1144,180 1144,178 1144,178 1144,177 1145,177 1145,177 1145,177 1145,177 1146,177 1146,177 1146,177 1146,176 1147,176 1147,173 1147,173 1147,170 1148,168 1149,168 1149,168 1149,168 1149,166 1150,166 1150,166 1150,166 1150,165 1151,165 1151,163 1151,163 1151,160 1152,160 1152,157 1152,158 1153,158 1153,158 1153,158 1153,158 1154,158 1154,158 1155,158 1155,157 1155,157 1155,155 1156,155 1156,155 1156,155 1156,153 1157,153 1157,151 1157,151 1157,146 1158,146 1158,146 1158,146 1158,146 1159,146 1159,146 1159,146 1159,146 1160,146 1160,145 1161,145 1161,140 1161,140 1161,138 1162,137 1162,136 1162,136 1162,132 1163,132 1163,132 1163,132 1164,132 1164,132 1164,132 1164,132 1165,132 1165,132 1165,132 1165,132 1166,132 1166,131 1167,131 1167,130 1167,130 1167,127 1168,127 1168,127 1168,127 1168,127 1169,127 1169,126 1169,126 1169,122 1170,122 1170,122 1170,122 1170,122 1171,122 1171,122 1171,122 1171,121 1172,121 1172,120 1173,120 1173,117 1173,117 1173,115 1174,115 1174,115 1174,115 1174,114 1175,114 1175,114 1175,114 1175,111 1176,111 1176,110 1176,109 1176,106 1177,106 1177,106 1177,106 1177,101 1178,94 1179,94 1179,94 1179,94 1179,92 1180,91 1180,91 1180,91 1181,91 1181,89 1181,89 1181,87 1182,87 1182,87 1182,87 1182,87 1183,87 1183,86 1183,86 1183,85 1184,85 1184,85 1185,85 1185,84 1185,84 1185,81 1186,80 1186,80 1186,80 1187,80 1187,80 1187,80 1187,77 1188,77 1188,77 1188,77 1188,77 1189,77 1189,75 1190,75 "/>
<polyline fill="none" opacity="1" stroke="#19E619" stroke-width="2" points="514,738 515,737 518,737 519,737 520,737 520,737 521,737 522,737 525,737 525,737 527,737 528,737 530,737 530,737 534,737 535,737 537,737 537,737 538,737 540,737 542,737 543,737 544,737 545,737 546,737 546,737 548,736 549,736 549,736 550,736 552,736 552,736 553,736 554,736 554,736 556,736 556,736 558,736 558,736 560,736 561,736 561,736 562,736 563,736 563,736 564,736 564,736 566,736 567,736 568,736 569,736 569,736 570,736 570,736 572,736 572,736 573,736 573,736 574,736 575,736 576,736 576,736 577,736 578,736 579,736 579,736 580,736 582,736 582,735 583,735 584,735 585,735 585,735 586,735 586,735 587,735 587,735 588,735 588,735 589,735 590,735 597,733 598,733 598,733 599,733 601,733 603,733 603,733 605,733 606,733 607,733 608,733 608,733 609,733 615,733 616,733 616,733 617,733 618,733 618,733 619,733 620,733 621,733 621,733 622,733 622,733 623,733 623,733 624,733 625,733 626,732 626,732 627,732 630,732 631,732 631,732 632,732 632,732 633,732 633,731 634,731 634,731 635,731 635,731 638,731 640,731 641,731 642,731 644,731 645,731 646,731 649,731 650,731 652,731 652,731 653,730 656,730 656,730 657,730 658,730 659,730 659,730 661,730 661,730 662,728 663,728 664,728 665,728 665,728 666,728 667,728 670,728 671,728 671,728 672,728 673,728 674,728 676,728 677,728 677,728 678,728 682,728 682,728 683,728 683,728 684,727 685,726 690,726 691,726 693,726 693,726 694,726 697,726 699,726 700,726 700,723 701,725 703,725 703,725 704,725 704,723 705,723 705,723 707,723 707,723 710,723 713,723 714,722 715,721 715,721 716,721 716,721 717,721 718,718 720,718 723,717 725,717 726,717 732,717 733,717 733,717 734,717 737,717 738,717 738,717 739,717 742,717 743,717 745,717 746,717 747,717 747,717 748,716 751,715 752,713 753,713 754,713 755,713 756,713 757,713 759,713 760,713 761,713 762,713 763,712 764,712 764,712 765,711 766,711 767,711 768,711 769,711 769,711 770,711 771,711 773,710 774,709 774,709 778,707 779,707 781,707 781,707 786,706 786,706 788,705 793,705 794,704 798,704 800,704 800,704 802,704 802,704 804,702 804,702 805,701 805,701 807,701 808,701 808,701 811,700 811,700 812,699 814,699 815,699 816,697 817,697 819,696 819,696 820,696 823,695 823,695 824,695 825,694 825,694 828,692 828,692 829,692 830,692 832,692 832,692 835,692 840,691 840,691 841,691 842,691 843,691 843,691 844,691 844,691 845,691 846,690 847,689 847,689 849,687 850,687 851,687 852,687 852,686 853,686 853,686 854,686 855,686 856,686 857,685 858,685 858,684 860,684 860,684 861,684 861,684 862,684 863,684 864,684 864,684 865,684 865,684 866,684 868,681 869,681 869,681 870,681 870,681 871,680 871,680 872,680 873,679 873,679 874,679 875,679 875,679 876,679 876,679 877,679 878,679 878,679 879,679 879,679 880,679 881,679 881,679 882,679 882,679 883,679 884,679 885,679 885,679 886,679 887,679 888,679 889,679 889,679 890,679 890,679 891,679 891,679 892,679 893,679 893,679 894,679 894,679 895,679 895,679 896,677 896,677 897,677 897,677 898,677 899,676 899,676 900,676 900,676 901,676 901,676 902,676 902,676 903,676 903,676 904,676 905,676 905,676 906,676 906,675 907,675 907,675 908,675 908,675 909,675 909,675 910,675 911,675 911,674 912,674 912,674 913,672 913,672 914,672 914,672 915,672 915,672 916,672 917,672 917,672 918,671 918,671 919,670 919,670 920,670 920,670 921,670 921,670 922,670 923,670 923,670 924,670 924,669 925,669 925,667 926,667 926,667 927,667 927,667 928,667 929,667 929,667 930,667 930,667 931,667 931,667 932,667 932,667 933,667 933,667 934,667 935,667 935,667 936,666 936,666 937,666 937,666 938,666 938,666 939,666 939,666 940,666 941,666 941,666 942,666 942,666 943,666 943,666 944,666 944,666 945,666 945,666 946,666 947,666 947,666 948,666 948,666 949,666 949,666 950,666 950,666 951,666 951,665 952,665 953,664 953,664 954,664 954,664 955,664 955,664 956,662 956,662 957,662 957,662 958,661 959,661 959,661 960,661 960,660 961,660 961,659 962,659 962,657 963,657 964,657 964,657 965,657 965,656 966,656 966,657 967,657 967,655 968,655 968,654 969,654 970,655 970,655 971,655 971,655 972,655 972,651 973,651 973,651 974,651 974,651 975,651 976,651 976,651 977,651 977,650 978,649 978,649 979,649 979,649 980,649 980,649 981,649 982,649 982,649 983,649 983,649 984,649 984,649 985,649 985,648 986,648 986,648 987,648 988,646 988,646 989,646 989,646 990,646 990,646 991,646 991,644 992,644 992,643 993,643 994,643 994,643 995,643 995,643 996,641 996,641 997,641 997,641 998,640 998,640 999,639 1000,639 1000,639 1001,639 1001,639 1001,639 1002,639 1002,639 1003,639 1003,639 1004,639 1004,639 1005,639 1006,639 1006,639 1007,639 1007,639 1008,638 1008,638 1009,638 1009,638 1010,638 1010,636 1011,636 1012,635 1012,635 1013,635 1013,635 1014,633 1014,633 1015,633 1015,633 1016,633 1016,633 1017,633 1018,633 1018,633 1019,633 1019,633 1020,633 1020,633 1021,633 1021,633 1022,633 1022,633 1023,630 1024,630 1024,630 1025,630 1025,630 1026,630 1026,630 1027,630 1027,630 1028,630 1028,630 1029,630 1030,630 1030,630 1031,630 1031,629 1032,629 1032,629 1033,629 1033,629 1034,629 1034,630 1035,631 1036,631 1036,631 1037,631 1037,630 1038,630 1038,630 1039,630 1039,630 1040,629 1040,629 1041,629 1042,629 1042,628 1043,626 1043,626 1044,626 1044,626 1045,626 1045,626 1046,626 1046,626 1047,626 1048,625 1048,624 1049,624 1049,624 1050,623 1050,623 1051,621 1051,621 1052,621 1052,620 1053,619 1054,618 1054,618 1055,618 1055,616 1056,616 1056,616 1057,616 1057,616 1058,616 1058,616 1059,616 1060,616 1060,616 1061,616 1061,616 1062,614 1062,614 1063,613 1063,613 1064,613 1064,613 1065,611 1066,611 1066,611 1067,611 1067,611 1068,610 1068,606 1069,606 1069,608 1070,608 1070,605 1071,605 1072,605 1072,604 1073,604 1073,604 1074,604 1074,604 1075,604 1075,604 1076,605 1077,605 1077,605 1078,605 1078,603 1078,603 1078,603 1079,603 1079,603 1079,603 1080,603 1080,603 1080,603 1081,603 1081,603 1081,603 1081,603 1082,603 1082,603 1083,603 1083,603 1083,603 1083,601 1084,601 1084,601 1084,601 1084,599 1085,599 1085,599 1085,599 1085,599 1086,599 1086,599 1086,598 1087,598 1087,598 1087,598 1088,598 1088,598 1089,598 1089,596 1089,596 1089,596 1090,596 1090,596 1090,596 1090,596 1091,596 1091,596 1091,594 1092,594 1092,594 1092,594 1092,594 1093,594 1093,594 1093,594 1093,593 1094,593 1094,593 1095,593 1095,593 1095,593 1095,593 1096,593 1096,593 1096,593 1096,593 1097,593 1097,593 1097,593 1098,593 1098,593 1098,593 1098,593 1099,593 1099,593 1099,593 1099,593 1100,593 1100,593 1101,593 1101,593 1101,593 1101,593 1102,593 1102,593 1102,593 1102,592 1103,592 1103,592 1103,592 1104,592 1104,592 1104,590 1105,590 1105,590 1105,590 1105,590 1106,590 1106,590 1107,590 1107,590 1107,590 1107,589 1108,589 1108,589 1108,589 1108,589 1109,589 1109,589 1109,588 1110,588 1110,587 1110,587 1110,584 1111,584 1111,584 1111,584 1111,584 1112,584 1112,584 1113,584 1113,584 1113,583 1114,583 1114,583 1114,583 1114,582 1115,582 1115,582 1115,582 1115,582 1116,582 1116,582 1116,582 1116,582 1117,582 1117,580 1117,580 1117,580 1118,580 1118,580 1119,580 1119,577 1119,577 1119,577 1120,577 1120,577 1120,577 1120,577 1121,577 1121,577 1121,577 1121,578 1122,578 1122,578 1122,578 1122,577 1123,577 1123,577 1123,577 1124,577 1124,577 1125,577 1125,577 1125,577 1125,577 1126,577 1126,577 1126,577 1126,577 1127,577 1127,577 1127,577 1127,575 1128,575 1128,575 1128,572 1129,572 1129,572 1129,572 1129,570 1130,570 1130,570 1131,570 1131,569 1131,569 1131,569 1132,569 1132,568 1133,568 1133,568 1133,568 1134,568 1134,568 1134,568 1134,567 1135,567 1135,567 1135,567 1135,567 1136,567 1136,567 1137,567 1137,567 1137,567 1137,567 1138,567 1138,567 1138,567 1138,567 1139,567 1139,567 1139,567 1140,567 1140,567 1140,567 1140,567 1141,567 1141,567 1141,567 1141,567 1142,567 1142,567 1143,567 1143,567 1143,567 1143,565 1144,565 1144,565 1144,565 1144,564 1145,564 1145,564 1145,564 1145,564 1146,564 1146,562 1146,562 1146,562 1147,562 1147,562 1147,562 1147,560 1148,560 1149,560 1149,560 1149,560 1149,560 1150,560 1150,560 1150,560 1150,559 1151,559 1151,559 1151,559 1151,559 1152,559 1152,559 1152,559 1153,559 1153,559 1153,559 1153,559 1154,559 1154,558 1155,558 1155,557 1155,557 1155,557 1156,557 1156,555 1156,555 1156,555 1157,555 1157,555 1157,555 1157,555 1158,555 1158,555 1158,555 1158,555 1159,555 1159,555 1159,555 1159,553 1160,553 1160,553 1161,553 1161,552 1161,552 1161,552 1162,552 1162,552 1162,552 1162,552 1163,552 1163,552 1163,552 1164,552 1164,552 1164,552 1164,550 1165,550 1165,550 1165,550 1165,550 1166,550 1166,550 1167,550 1167,550 1167,550 1167,550 1168,550 1168,550 1168,550 1168,550 1169,550 1169,549 1169,549 1169,548 1170,548 1170,547 1170,547 1170,547 1171,547 1171,547 1171,547 1171,547 1172,547 1172,547 1173,547 1173,545 1173,545 1173,545 1174,545 1174,544 1174,544 1174,543 1175,543 1175,543 1175,543 1175,540 1176,540 1176,539 1176,539 1176,539 1177,539 1177,539 1177,539 1177,539 1178,538 1179,538 1179,537 1179,537 1179,535 1180,535 1180,535 1180,535 1181,535 1181,535 1181,535 1181,535 1182,535 1182,535 1182,535 1182,533 1183,533 1183,533 1183,533 1183,533 1184,533 1184,533 1185,533 1185,533 1185,533 1185,533 1186,533 1186,533 1186,533 1187,533 1187,533 1187,533 1187,533 1188,533 1188,529 1188,529 1188,528 1189,528 1189,527 1190,527 "/>
<polyline fill="none" opacity="1" stroke="#19E5E6" stroke-width="2" points="60,738 81,737 96,736 102,735 105,733 105,730 109,728 113,727 115,727 115,727 116,727 118,730 120,730 121,728 122,728 122,728 124,727 124,723 126,723 127,723 128,723 128,723 129,723 130,723 131,723 132,722 133,722 133,721 135,721 135,721 137,721 138,721 139,721 139,721 140,721 141,721 141,721 142,721 144,720 145,720 146,720 147,720 147,720 148,720 149,718 150,718 151,718 151,718 153,718 154,718 155,718 156,718 156,718 157,717 157,717 158,713 158,713 159,713 160,713 160,713 162,713 163,713 163,713 164,713 164,713 165,713 166,713 167,713 168,713 169,713 170,713 170,713 171,713 171,713 172,713 173,713 174,713 174,713 175,713 176,713 177,713 178,713 179,712 179,712 181,712 181,712 182,712 183,712 183,712 184,712 185,712 186,712 187,712 187,712 188,711 188,711 189,711 189,711 190,711 191,711 192,711 192,711 193,711 193,711 194,711 194,711 195,711 195,711 196,711 197,710 197,710 198,710 198,710 199,710 199,710 200,710 200,710 201,710 202,710 203,710 204,710 205,710 206,710 206,710 207,709 207,709 209,709 209,706 210,706 210,706 211,706 212,706 212,705 213,705 213,705 214,705 215,705 215,705 216,704 216,704 217,704 217,704 218,704 218,704 219,704 219,704 220,704 221,704 221,704 222,704 222,704 223,704 223,704 224,704 224,702 225,702 227,702 227,702 228,702 228,702 229,702 230,702 231,702 232,702 233,702 234,702 234,701 235,701 235,700 236,700 237,700 237,700 238,699 239,699 239,699 240,699 241,699 241,699 242,699 242,699 243,699 244,699 245,699 245,699 246,699 246,699 247,699 247,699 248,697 248,697 249,697 250,696 251,696 251,696 252,696 252,696 253,696 253,696 254,696 254,696 255,696 255,696 256,696 257,697 257,696 258,696 258,696 259,696 259,696 260,696 261,696 261,695 262,694 263,694 263,694 264,694 264,694 265,692 265,692 266,692 266,692 267,692 267,692 268,692 269,692 269,692 270,692 270,692 271,692 271,692 272,692 272,692 273,692 273,692 274,692 275,692 275,692 276,692 276,692 277,692 277,692 278,692 278,692 279,692 279,692 280,692 281,692 281,692 282,692 282,692 283,692 283,692 284,692 284,692 285,692 286,692 286,692 287,692 287,692 288,692 288,692 289,692 289,692 290,692 290,692 291,692 292,692 292,692 293,692 293,691 294,690 294,690 295,690 295,689 296,689 296,689 297,689 298,687 298,687 299,687 299,687 300,687 300,687 301,687 301,687 302,687 302,687 303,687 304,687 304,686 305,686 305,685 306,685 306,684 307,682 307,682 308,682 308,682 310,682 310,682 311,682 311,682 312,682 312,682 313,682 313,682 314,682 314,682 315,682 316,682 316,682 317,682 317,682 318,682 318,682 319,682 319,682 320,682 320,682 321,682 322,682 322,682 323,682 323,682 324,681 324,680 325,680 325,680 326,680 326,680 327,680 328,679 328,679 329,679 329,679 330,679 330,679 331,679 331,679 332,679 332,679 333,679 334,679 335,680 335,680 336,680 336,680 337,680 337,680 338,680 338,680 339,679 340,679 340,679 341,679 341,679 342,679 342,679 343,679 343,679 344,679 344,679 345,677 346,677 346,677 347,677 347,677 348,677 348,677 349,677 349,677 350,677 350,677 351,677 352,677 352,677 353,677 353,677 354,677 354,677 355,677 355,677 356,677 356,677 357,677 358,677 358,677 359,677 359,677 360,677 360,677 361,677 361,677 362,676 362,675 363,674 364,674 364,674 365,674 365,674 366,674 366,674 367,674 367,674 368,674 368,674 369,674 370,674 370,674 371,674 371,674 372,674 372,674 373,674 373,674 374,674 374,674 375,674 376,674 376,672 377,672 377,672 378,672 378,672 379,672 379,671 380,671 380,671 381,671 382,671 382,671 383,671 383,671 384,671 384,671 385,669 385,669 386,669 386,669 387,667 388,667 388,667 389,666 389,666 390,666 390,666 391,666 391,666 392,666 392,666 393,666 394,666 394,666 395,666 395,666 396,666 396,666 397,666 398,666 399,666 399,666 400,666 400,666 401,666 401,666 402,666 402,667 403,667 403,667 404,667 405,667 405,667 406,667 406,667 407,667 407,667 408,667 408,667 409,667 409,667 410,667 411,667 411,667 412,669 412,669 413,669 413,669 414,669 414,669 415,669 415,669 416,669 417,669 417,669 418,667 418,667 419,667 419,667 420,667 420,667 421,666 421,666 422,667 423,667 423,667 424,667 424,666 425,666 425,666 426,665 426,665 427,665 427,664 428,664 429,664 429,662 430,662 430,661 431,662 431,662 432,662 432,661 433,661 433,661 434,661 435,660 435,660 436,660 436,660 437,660 437,660 438,660 438,660 439,657 439,657 440,657 441,657 441,657 442,657 442,659 443,659 443,657 444,657 444,657 445,657 445,657 446,657 447,657 447,657 448,657 448,657 449,657 449,657 450,657 450,657 451,657 451,656 452,656 453,656 453,655 454,654 454,654 455,654 455,654 456,654 456,654 457,654 457,654 458,652 459,654 459,654 460,654 460,654 461,654 461,654 462,654 462,654 463,654 463,654 464,654 465,654 465,654 466,654 466,654 467,652 467,652 468,652 468,652 469,652 469,652 470,652 471,652 471,652 472,652 472,652 473,652 473,652 474,651 474,651 475,651 475,650 476,649 477,649 477,646 478,646 478,646 479,646 479,646 480,646 480,646 481,646 481,646 482,645 483,645 483,645 484,645 484,645 485,645 485,645 486,645 486,645 487,645 487,645 488,645 489,645 489,645 490,645 490,645 491,645 491,645 492,644 492,644 493,643 493,643 494,643 495,643 495,643 496,641 496,641 497,641 497,640 498,639 498,639 499,639 499,639 500,639 501,639 501,639 502,639 502,639 503,639 503,639 504,639 504,639 505,639 505,639 506,639 507,636 507,636 508,636 508,636 509,636 509,636 510,636 510,635 511,635 512,635 512,635 513,635 513,635 514,635 514,635 515,635 515,635 516,635 516,635 517,635 518,635 518,635 519,635 519,635 520,635 520,635 521,635 521,635 522,635 522,635 523,635 524,635 524,635 525,635 525,635 526,635 526,635 527,635 527,635 528,635 528,635 529,635 530,635 530,635 531,635 531,635 532,635 532,635 533,634 533,634 534,633 534,633 535,633 536,633 536,631 537,631 537,631 538,631 538,631 539,631 539,631 540,631 540,631 541,631 542,630 542,630 543,628 543,626 544,626 544,626 545,626 545,626 546,626 546,626 547,626 548,626 548,626 549,625 549,625 550,625 550,625 551,625 551,625 552,623 552,623 553,623 554,623 554,623 555,623 555,623 556,623 556,623 557,623 557,623 558,623 558,623 559,623 560,623 560,623 561,623 561,623 562,623 562,623 563,623 563,623 564,621 564,621 565,621 566,621 566,621 567,620 567,620 568,620 568,620 569,620 569,620 570,620 570,620 571,620 572,620 572,620 573,620 573,619 574,619 574,619 575,619 575,619 576,618 576,619 577,619 578,619 578,619 579,619 579,619 580,619 580,619 581,619 581,619 582,619 582,619 583,619 584,619 584,619 585,619 585,619 586,619 586,619 587,619 587,619 588,619 588,619 589,619 590,619 590,619 591,619 591,619 592,619 592,619 593,619 593,619 594,619 594,619 595,619 596,619 596,618 597,618 597,619 598,619 598,619 599,619 599,619 600,619 600,619 601,619 602,619 602,619 603,619 604,619 604,619 605,619 605,619 606,619 606,619 607,619 608,619 608,619 609,619 609,619 610,619 610,619 611,620 611,620 612,620 612,620 613,620 614,620 614,620 615,620 615,620 616,620 616,620 617,620 617,620 618,619 618,619 619,619 620,619 620,619 621,619 621,619 622,618 622,618 623,618 623,618 624,616 625,616 625,616 626,616 626,616 627,616 627,616 628,616 628,616 629,616 629,616 630,616 631,616 631,616 632,616 632,616 633,616 633,616 634,616 634,616 635,616 635,615 636,615 637,615 637,615 638,615 638,615 639,615 639,615 640,615 640,615 641,615 641,615 642,615 643,615 643,615 644,615 644,615 645,615 645,615 646,615 646,615 647,613 647,613 648,613 649,613 649,606 650,606 650,606 651,606 651,606 652,606 652,606 653,606 653,606 654,606 655,606 655,606 656,606 656,606 657,606 657,604 658,604 658,604 659,604 659,604 660,604 661,604 661,604 662,604 662,604 663,604 663,604 664,604 664,604 665,605 665,605 666,605 667,605 667,605 668,605 668,605 669,605 669,605 670,605 670,605 671,605 671,605 672,605 673,605 673,605 674,605 674,604 675,604 675,604 676,604 676,604 677,604 677,603 678,603 679,603 679,603 680,603 680,603 681,603 681,603 682,603 682,601 683,601 683,601 684,601 685,601 685,601 686,601 686,601 687,601 687,601 688,601 688,601 689,601 689,601 690,599 691,599 691,599 692,599 692,599 693,599 693,599 694,598 694,598 695,598 695,598 696,598 697,598 697,596 698,596 698,596 699,596 699,596 700,596 700,596 701,596 701,596 702,596 703,594 703,593 704,593 704,592 705,592 705,592 706,592 706,592 707,590 707,590 708,590 709,590 709,590 710,590 710,590 711,590 711,590 712,590 712,590 713,590 713,590 714,590 715,590 715,598 716,598 716,598 717,598 717,598 718,598 718,598 719,596 719,596 720,596 721,596 721,596 722,596 722,596 723,596 723,595 724,595 724,595 725,595 725,595 726,595 727,595 727,595 728,595 728,595 729,595 729,595 730,595 730,595 731,595 731,595 732,595 733,595 733,595 734,595 734,595 735,595 735,595 736,595 736,595 737,595 738,595 738,595 739,596 739,596 740,596 740,596 741,596 741,596 742,596 742,596 743,596 744,596 744,596 745,596 745,596 746,596 746,596 747,596 747,596 748,596 748,596 749,596 750,596 750,596 751,596 751,596 752,596 752,596 753,596 753,596 754,596 754,595 755,595 756,595 756,595 757,595 757,595 758,595 758,595 759,594 759,594 760,594 760,594 761,594 762,594 762,594 763,594 763,594 764,594 764,594 765,594 765,594 766,594 766,594 767,594 768,594 768,594 769,594 769,594 770,594 770,594 771,594 771,594 772,594 772,594 773,593 774,593 774,593 775,593 775,593 776,593 776,593 777,593 777,593 778,593 778,593 779,593 780,593 780,593 781,593 781,593 782,593 782,593 783,593 783,593 784,593 784,592 785,592 786,592 786,592 787,592 787,590 788,590 788,590 789,590 789,590 790,590 790,590 790,590 791,590 792,590 792,590 793,590 793,589 794,589 794,589 795,588 795,588 796,588 796,588 797,588 798,588 798,588 799,588 799,588 800,588 800,588 801,588 801,588 802,588 802,588 803,588 804,588 804,588 805,588 805,588 806,585 806,585 807,585 807,585 808,585 808,585 809,584 810,584 810,583 811,583 811,583 812,583 812,583 813,583 813,583 814,583 814,583 815,583 816,583 816,583 817,583 817,583 818,583 818,583 819,583 819,583 820,583 820,583 821,583 822,583 822,583 823,583 823,583 824,583 824,583 825,583 825,583 826,583 826,583 827,583 828,583 828,583 829,583 829,583 830,583 830,583 831,583 831,583 832,582 832,582 833,583 834,583 834,583 835,583 835,582 836,582 836,582 837,582 837,582 838,582 838,582 839,582 840,582 840,582 841,579 841,579 842,579 842,579 843,579 843,580 844,580 844,582 845,582 846,582 846,582 847,582 847,583 848,583 849,582 849,582 850,582 851,582 851,582 852,582 852,582 853,582 853,582 854,582 854,582 855,580 855,580 856,580 857,580 857,580 858,579 858,579 859,579 859,579 860,579 860,579 861,579 861,579 862,579 863,579 863,580 864,580 864,580 865,580 865,580 866,580 866,580 867,580 867,580 868,580 869,580 869,580 870,580 870,580 871,580 871,580 872,580 872,580 873,580 873,580 874,580 875,580 875,580 876,580 876,580 877,580 877,580 878,580 878,580 879,582 879,582 880,582 881,582 881,582 882,580 882,580 883,582 883,582 884,582 884,580 885,580 885,580 886,580 887,580 887,580 888,580 888,579 889,579 889,579 890,579 890,579 891,579 891,579 892,579 893,579 893,579 894,579 894,579 895,579 895,579 896,579 896,579 897,579 897,579 898,579 899,579 899,579 900,579 900,579 901,579 901,578 902,578 902,578 903,578 903,578 904,578 905,578 905,578 906,578 906,578 907,578 907,578 908,578 908,578 909,578 909,578 910,578 911,578 911,578 912,578 912,578 913,578 913,578 914,578 914,578 915,578 915,578 916,578 917,577 917,577 918,577 918,577 919,577 919,577 920,577 920,577 921,577 921,577 922,577 923,577 923,577 924,578 924,578 925,577 925,577 926,577 926,577 927,577 927,577 928,577 929,575 929,575 930,575 930,575 931,575 931,575 932,575 932,575 933,575 933,575 934,575 935,574 935,574 936,574 936,574 937,574 937,574 938,574 938,574 939,574 939,574 940,574 941,574 941,574 942,574 942,574 943,574 943,574 944,574 944,574 945,575 945,575 946,575 947,575 947,575 948,575 948,575 949,575 949,577 950,575 950,575 951,575 951,575 952,575 953,575 953,575 954,575 954,575 955,575 955,575 956,575 956,575 957,575 957,575 958,575 959,574 959,574 960,574 960,574 961,574 961,574 962,574 962,574 963,574 964,573 964,573 965,573 965,573 966,574 966,574 967,574 967,574 968,574 968,574 969,574 970,574 970,574 971,574 971,574 972,573 972,573 973,573 973,573 974,573 974,573 975,573 976,573 976,573 977,572 977,572 978,572 978,572 979,572 979,570 980,570 980,570 981,570 982,570 982,570 983,570 983,570 984,570 984,570 985,570 985,570 986,570 986,570 987,570 988,570 988,570 989,570 989,570 990,570 990,570 991,570 991,570 992,570 992,570 993,570 994,570 994,570 995,570 995,570 996,570 996,570 997,570 997,570 998,570 998,570 999,570 1000,570 1000,570 1001,570 1001,570 1001,570 1002,570 1002,570 1003,570 1003,570 1004,570 1004,570 1005,570 1006,570 1006,570 1007,570 1007,569 1008,569 1008,569 1009,569 1009,569 1010,569 1010,569 1011,569 1012,569 1012,569 1013,569 1013,569 1014,570 1014,570 1015,572 1015,572 1016,572 1016,572 1017,572 1018,572 1018,572 1019,572 1019,572 1020,572 1020,572 1021,572 1021,572 1022,572 1022,570 1023,569 1024,569 1024,569 1025,569 1025,569 1026,569 1026,569 1027,569 1027,569 1028,569 1028,569 1029,567 1030,567 1030,567 1031,563 1031,563 1032,563 1032,563 1033,563 1033,563 1034,563 1034,563 1035,563 1036,564 1036,564 1037,564 1037,564 1038,564 1038,564 1039,564 1039,564 1040,564 1040,564 1041,564 1042,564 1042,564 1043,564 1043,563 1044,560 1044,560 1045,560 1045,560 1046,560 1046,560 1047,560 1048,560 1048,560 1049,560 1049,560 1050,560 1050,560 1051,560 1051,560 1052,560 1052,560 1053,562 1054,562 1054,562 1055,562 1055,562 1056,562 1056,562 1057,562 1057,562 1058,562 1058,562 1059,562 1060,562 1060,562 1061,562 1061,562 1062,560 1062,560 1063,560 1063,559 1064,559 1064,559 1065,559 1066,559 1066,559 1067,559 1067,559 1068,559 1068,559 1069,559 1069,559 1070,559 1070,559 1071,559 1072,559 1072,560 1073,560 1073,560 1074,559 1074,559 1075,559 1075,559 1076,559 1077,559 1077,559 1078,559 1078,559 1078,559 1078,559 1079,559 1079,559 1079,559 1080,559 1080,559 1080,559 1081,559 1081,558 1081,558 1081,558 1082,558 1082,558 1083,558 1083,558 1083,558 1083,558 1084,558 1084,558 1084,558 1084,558 1085,558 1085,558 1085,558 1085,558 1086,558 1086,558 1086,558 1087,558 1087,558 1087,558 1088,558 1088,558 1089,558 1089,558 1089,558 1089,558 1090,558 1090,558 1090,558 1090,558 1091,558 1091,558 1091,558 1092,558 1092,558 1092,558 1092,558 1093,558 1093,558 1093,558 1093,558 1094,558 1094,558 1095,558 1095,558 1095,558 1095,558 1096,559 1096,559 1096,559 1096,559 1097,559 1097,559 1097,558 1098,558 1098,558 1098,558 1098,558 1099,558 1099,558 1099,558 1099,558 1100,558 1100,557 1101,557 1101,557 1101,557 1101,557 1102,557 1102,557 1102,557 1102,557 1103,557 1103,557 1103,558 1104,558 1104,558 1104,558 1105,558 1105,558 1105,558 1105,558 1106,558 1106,558 1107,558 1107,558 1107,558 1107,558 1108,558 1108,557 1108,557 1108,557 1109,557 1109,557 1109,557 1110,557 1110,557 1110,557 1110,557 1111,557 1111,557 1111,557 1111,557 1112,557 1112,557 1113,557 1113,557 1113,557 1114,557 1114,557 1114,557 1114,557 1115,557 1115,557 1115,557 1115,557 1116,557 1116,557 1116,557 1116,557 1117,557 1117,558 1117,558 1117,558 1118,558 1118,558 1119,558 1119,558 1119,558 1119,558 1120,558 1120,558 1120,558 1120,558 1121,558 1121,558 1121,558 1121,558 1122,558 1122,558 1122,558 1122,558 1123,558 1123,558 1123,558 1124,558 1124,558 1125,558 1125,558 1125,558 1125,557 1126,557 1126,557 1126,557 1126,557 1127,557 1127,557 1127,557 1127,557 1128,557 1128,557 1128,557 1129,557 1129,557 1129,557 1129,557 1130,557 1130,557 1131,557 1131,557 1131,557 1131,555 1132,555 1132,555 1133,555 1133,555 1133,555 1134,555 1134,555 1134,555 1134,555 1135,555 1135,555 1135,555 1135,555 1136,555 1136,555 1137,555 1137,555 1137,555 1137,555 1138,555 1138,555 1138,555 1138,555 1139,555 1139,555 1139,555 1140,555 1140,555 1140,555 1141,555 1141,555 1141,555 1141,555 1142,555 1142,555 1143,555 1143,555 1143,555 1143,555 1144,555 1144,555 1144,555 1144,555 1145,555 1145,555 1145,555 1145,555 1146,555 1146,555 1146,555 1146,555 1147,555 1147,555 1147,555 1147,555 1148,555 1149,555 1149,555 1149,555 1149,555 1150,555 1150,555 1150,555 1150,555 1151,555 1151,555 1151,555 1151,555 1152,555 1152,555 1152,557 1153,557 1153,557 1153,557 1153,557 1154,557 1154,557 1155,557 1155,557 1155,557 1155,557 1156,557 1156,557 1156,557 1156,555 1157,555 1157,555 1157,555 1157,555 1158,555 1158,555 1158,555 1158,555 1159,555 1159,555 1159,555 1159,555 1160,555 1160,555 1161,555 1161,555 1161,555 1161,555 1162,555 1162,555 1162,555 1162,555 1163,555 1163,555 1163,555 1164,555 1164,555 1164,555 1164,555 1165,555 1165,555 1165,555 1165,555 1166,555 1166,555 1167,555 1167,555 1167,555 1167,555 1168,555 1168,555 1168,555 1168,555 1169,555 1169,555 1169,555 1169,555 1170,555 1170,555 1170,555 1170,555 1171,555 1171,555 1171,555 1171,555 1172,555 1172,555 1173,555 1173,555 1173,555 1173,554 1174,554 1174,554 1174,554 1174,554 1175,554 1175,554 1175,554 1175,554 1176,554 1176,554 1176,554 1176,554 1177,554 1177,554 1177,554 1177,554 1178,554 1179,554 1179,554 1179,554 1179,554 1180,554 1180,554 1180,554 1181,554 1181,554 1181,554 1181,554 1182,554 1182,554 1182,554 1182,554 1183,554 1183,554 1183,554 1183,554 1184,554 1184,554 1185,554 1185,554 1185,554 1185,554 1186,554 1186,554 1187,554 1187,554 1187,554 1187,554 1188,554 1188,554 1188,554 1188,554 1189,554 1189,554 1190,554 "/>
<polyline fill="none" opacity="1" stroke="#1919E6" stroke-width="2" points="422,738 479,737 526,736 548,735 554,733 568,732 569,731 569,731 570,730 570,730 572,730 573,728 576,727 578,727 578,727 579,727 579,727 581,727 581,727 582,727 582,727 583,727 584,727 584,727 585,727 585,727 587,727 590,727 591,727 592,727 592,727 593,727 594,727 595,727 596,727 597,727 597,727 598,727 599,727 599,727 600,727 600,727 601,727 602,727 603,727 603,727 604,727 604,727 605,727 605,727 606,727 608,727 608,727 610,727 611,727 612,727 614,727 614,727 616,727 617,727 618,725 618,725 621,725 621,725 622,725 622,725 623,725 624,725 626,725 627,725 628,725 629,725 629,725 630,723 632,723 632,723 633,723 633,723 634,723 634,723 635,723 635,723 636,723 637,723 637,722 640,722 640,722 641,722 642,722 643,722 643,722 644,722 644,722 645,722 645,722 646,722 646,722 647,722 647,722 648,722 649,722 650,722 650,722 651,722 652,722 652,722 653,722 654,722 655,722 655,722 656,722 657,722 657,722 658,722 658,722 659,722 660,722 661,722 662,722 662,722 663,722 663,722 664,722 664,722 665,722 665,722 666,722 667,722 667,721 668,721 669,720 670,720 670,720 671,720 671,720 672,720 673,720 673,720 674,720 674,720 675,720 675,720 676,720 676,720 677,720 678,720 679,720 679,720 680,720 681,720 681,720 682,720 682,720 683,720 683,718 684,718 685,718 685,718 686,717 686,717 687,717 687,717 688,717 688,717 689,717 689,717 690,717 691,717 691,717 692,717 692,717 693,717 693,717 694,717 694,717 695,717 695,717 696,717 697,717 697,717 698,717 698,717 699,717 699,717 700,717 700,716 701,715 701,713 702,713 704,713 704,713 705,713 705,713 706,713 706,713 707,713 707,713 708,713 709,713 709,713 710,713 710,713 711,713 711,713 712,713 713,713 713,713 714,713 715,713 715,713 716,713 716,713 717,713 717,712 718,712 718,712 719,712 719,712 720,712 721,712 721,711 722,711 722,711 723,711 723,711 724,711 724,710 725,710 725,710 726,710 727,710 727,710 728,710 728,710 729,710 729,710 730,710 730,710 731,710 731,710 732,710 733,710 733,710 734,709 734,709 735,709 735,709 736,709 736,709 737,709 738,709 738,709 739,709 739,709 740,709 740,709 741,709 741,709 742,709 742,707 743,707 744,707 744,707 745,706 745,706 746,706 746,706 747,706 747,706 748,706 748,706 749,706 750,706 750,706 751,706 751,706 752,706 752,706 753,706 753,706 754,706 754,705 755,705 756,705 756,705 757,705 757,705 758,705 758,705 759,704 759,704 760,704 760,704 761,704 762,704 762,704 763,704 763,702 764,702 764,702 765,702 765,702 766,702 766,702 767,702 768,702 768,701 769,701 769,701 770,699 770,699 771,699 771,699 772,699 772,699 773,699 774,699 774,699 775,699 775,699 776,699 776,699 777,699 777,699 778,699 778,697 779,697 780,697 781,697 781,697 782,697 782,697 783,697 783,697 784,697 784,697 785,697 786,697 786,697 787,697 787,697 788,697 788,696 789,696 789,696 790,696 790,696 790,696 791,696 792,696 792,696 793,696 793,696 794,696 794,696 795,696 795,696 796,696 796,696 797,696 798,696 798,696 799,695 799,695 800,695 800,695 801,695 801,695 802,695 802,695 803,695 804,694 804,694 805,694 805,694 806,694 806,694 807,694 807,694 808,694 808,694 809,694 810,694 810,692 811,692 811,694 812,694 812,694 813,694 813,694 814,694 814,694 815,692 816,692 816,691 817,691 817,691 818,691 818,691 819,691 819,691 820,691 820,691 821,691 822,691 822,691 823,691 823,691 824,691 824,691 825,691 825,691 826,691 826,691 827,691 828,691 828,691 829,691 829,691 830,691 830,691 831,691 831,691 832,691 832,691 833,691 834,691 834,691 835,691 835,691 836,691 836,691 837,691 837,691 838,691 838,691 839,691 840,691 840,691 841,691 842,691 842,691 843,691 843,691 844,690 844,690 845,690 846,689 846,689 847,689 847,687 848,687 848,687 849,686 849,686 850,686 851,684 851,682 852,681 852,681 853,681 853,681 854,681 854,681 855,681 855,681 856,680 857,680 857,679 858,679 858,679 859,679 859,677 860,677 860,677 861,677 861,677 862,677 863,677 863,676 864,676 864,676 865,676 865,676 866,676 866,676 867,675 867,675 868,675 869,675 869,675 870,676 870,676 871,676 871,676 872,676 872,676 873,676 873,676 874,676 875,676 875,676 876,676 876,676 877,676 877,676 878,676 878,676 879,676 879,675 880,675 881,675 881,674 882,674 882,674 883,674 883,674 884,671 884,671 885,671 885,671 886,671 887,671 887,671 888,671 888,671 889,671 889,671 890,671 890,671 891,671 891,671 892,671 893,671 893,671 894,671 894,671 895,671 895,671 896,671 896,671 897,671 897,671 898,671 899,671 899,671 900,671 900,671 901,671 901,671 902,671 902,671 903,671 903,670 904,670 905,670 905,670 906,670 906,669 907,669 907,669 908,667 908,667 909,666 909,665 910,665 911,665 911,664 912,664 912,664 913,664 913,662 914,661 914,661 915,661 915,661 916,661 917,660 918,660 918,660 919,660 919,660 920,660 920,660 921,660 921,660 922,660 923,660 923,660 924,659 924,659 925,659 925,659 926,659 926,659 927,659 927,659 928,659 929,659 929,657 930,657 930,657 931,657 931,657 932,656 932,656 933,656 933,656 934,656 935,654 935,654 936,654 936,655 937,655 937,655 938,655 938,655 939,655 939,655 940,655 941,655 941,655 942,655 942,655 943,655 943,655 944,655 944,655 945,655 945,655 946,654 947,652 947,650 948,650 948,650 949,650 949,649 950,649 950,649 951,649 951,649 952,649 953,649 953,649 954,649 954,649 955,649 955,649 956,648 956,648 957,646 957,646 958,646 959,646 959,646 960,646 960,646 961,646 961,646 962,646 962,646 963,646 964,646 964,646 965,645 965,645 966,645 966,645 967,646 967,646 968,646 968,646 969,646 970,646 970,646 971,646 971,646 972,646 972,646 973,646 973,646 974,646 974,646 975,646 976,646 976,646 977,645 977,645 978,645 978,645 979,645 979,645 980,645 980,643 981,643 982,643 982,643 983,641 983,641 984,641 984,641 985,640 985,640 986,640 986,640 987,640 988,640 988,639 989,638 989,638 990,638 990,638 991,638 991,638 992,638 992,638 993,638 994,638 994,638 995,638 995,638 996,638 996,638 997,638 997,638 998,638 998,638 999,636 1000,636 1000,635 1001,635 1001,635 1001,634 1002,633 1002,633 1003,633 1003,633 1004,633 1004,631 1005,631 1006,631 1006,631 1007,631 1007,631 1008,630 1008,630 1009,630 1009,630 1010,630 1010,630 1011,630 1012,630 1012,628 1013,628 1013,628 1014,628 1014,628 1015,626 1015,626 1016,626 1016,626 1017,626 1018,626 1018,626 1019,626 1019,626 1020,626 1020,626 1021,626 1021,625 1022,625 1022,625 1023,623 1024,623 1024,623 1025,623 1025,623 1026,621 1026,621 1027,621 1027,621 1028,621 1028,621 1029,621 1030,621 1030,621 1031,621 1031,621 1032,621 1032,621 1033,621 1033,621 1034,620 1034,620 1035,620 1036,620 1036,620 1037,620 1037,620 1038,620 1038,620 1039,620 1039,620 1040,620 1040,620 1041,620 1042,620 1042,620 1043,620 1043,620 1044,620 1044,620 1045,620 1045,620 1046,620 1046,619 1047,619 1048,619 1048,619 1049,619 1049,619 1050,619 1050,618 1051,619 1051,619 1052,619 1052,619 1053,619 1054,618 1054,618 1055,618 1055,618 1056,618 1056,616 1057,616 1057,615 1058,615 1058,615 1059,615 1060,615 1060,615 1061,615 1061,614 1062,614 1062,614 1063,614 1063,613 1064,613 1064,613 1065,613 1066,613 1066,613 1067,613 1067,613 1068,613 1068,613 1069,613 1069,613 1070,613 1070,611 1071,611 1072,610 1072,610 1073,610 1073,611 1074,611 1074,611 1075,611 1075,611 1076,610 1077,610 1077,610 1078,610 1078,609 1078,609 1078,606 1079,606 1079,606 1079,606 1080,606 1080,605 1080,605 1081,605 1081,605 1081,605 1081,605 1082,605 1082,605 1083,605 1083,605 1083,605 1083,605 1084,605 1084,605 1084,605 1084,604 1085,604 1085,604 1085,604 1085,604 1086,604 1086,604 1086,604 1087,604 1087,603 1087,603 1088,603 1088,603 1089,603 1089,603 1089,603 1089,603 1090,603 1090,603 1090,603 1090,603 1091,603 1091,603 1091,603 1092,603 1092,601 1092,601 1092,601 1093,601 1093,601 1093,601 1093,601 1094,601 1094,601 1095,601 1095,601 1095,601 1095,601 1096,601 1096,600 1096,600 1096,600 1097,600 1097,600 1097,600 1098,600 1098,600 1098,600 1098,600 1099,600 1099,599 1099,599 1099,599 1100,599 1100,599 1101,599 1101,599 1101,599 1101,599 1102,599 1102,599 1102,599 1102,599 1103,599 1103,600 1103,600 1104,600 1104,600 1104,598 1105,598 1105,595 1105,595 1105,595 1106,595 1106,595 1107,595 1107,594 1107,594 1107,594 1108,594 1108,594 1108,594 1108,595 1109,595 1109,595 1109,594 1110,594 1110,594 1110,594 1110,594 1111,594 1111,594 1111,594 1111,594 1112,594 1112,594 1113,594 1113,594 1113,594 1114,594 1114,594 1114,594 1114,594 1115,594 1115,593 1115,593 1115,592 1116,592 1116,592 1116,592 1116,590 1117,590 1117,589 1117,589 1117,589 1118,589 1118,588 1119,588 1119,588 1119,588 1119,588 1120,588 1120,588 1120,588 1120,588 1121,588 1121,588 1121,588 1121,585 1122,585 1122,585 1122,585 1122,585 1123,585 1123,585 1123,585 1124,585 1124,585 1125,585 1125,584 1125,584 1125,584 1126,584 1126,582 1126,582 1126,582 1127,582 1127,582 1127,582 1127,582 1128,582 1128,582 1128,582 1129,582 1129,582 1129,582 1129,580 1130,580 1130,580 1131,580 1131,580 1131,580 1131,580 1132,580 1132,579 1133,579 1133,579 1133,579 1134,579 1134,579 1134,579 1134,578 1135,578 1135,578 1135,578 1135,578 1136,578 1136,578 1137,578 1137,577 1137,577 1137,577 1138,577 1138,577 1138,577 1138,575 1139,575 1139,575 1139,575 1140,575 1140,574 1140,574 1140,574 1141,574 1141,574 1141,574 1141,573 1142,573 1142,573 1143,573 1143,573 1143,573 1143,573 1144,573 1144,572 1144,572 1144,572 1145,572 1145,572 1145,572 1145,570 1146,570 1146,570 1146,570 1146,569 1147,569 1147,569 1147,569 1147,569 1148,569 1149,569 1149,569 1149,569 1149,568 1150,568 1150,568 1150,568 1150,568 1151,568 1151,568 1151,568 1151,568 1152,568 1152,568 1152,568 1153,568 1153,567 1153,567 1153,567 1154,567 1154,567 1155,567 1155,567 1155,567 1155,567 1156,567 1156,567 1156,567 1156,567 1157,567 1157,567 1157,567 1157,565 1158,565 1158,567 1158,567 1158,567 1159,567 1159,564 1159,564 1159,564 1160,564 1160,565 1161,565 1161,565 1161,565 1161,565 1162,565 1162,565 1162,565 1162,565 1163,565 1163,565 1163,565 1164,565 1164,565 1164,565 1164,565 1165,565 1165,565 1165,565 1165,565 1166,565 1166,565 1167,565 1167,565 1167,565 1167,565 1168,565 1168,564 1168,564 1168,564 1169,564 1169,564 1169,564 1169,564 1170,564 1170,564 1170,564 1170,564 1171,564 1171,564 1171,564 1171,563 1172,563 1172,563 1173,563 1173,562 1173,562 1173,562 1174,562 1174,562 1174,562 1174,560 1175,560 1175,560 1175,560 1175,558 1176,558 1176,558 1176,558 1176,558 1177,558 1177,558 1177,558 1177,557 1178,555 1179,555 1179,555 1179,555 1179,555 1180,555 1180,555 1180,555 1181,555 1181,555 1181,555 1181,555 1182,555 1182,555 1182,555 1182,555 1183,555 1183,555 1183,555 1183,555 1184,555 1184,555 1185,555 1185,555 1185,555 1185,553 1186,553 1186,553 1186,553 1187,553 1187,553 1187,553 1187,554 1188,554 1188,554 1188,554 1188,554 1189,554 1189,554 1190,554 "/>
<polyline fill="none" opacity="1" stroke="#E519E6" stroke-width="2" points="356,738 383,737 399,736 405,735 414,733 414,732 415,731 421,730 422,728 436,728 438,727 443,726 447,725 449,725 457,723 461,725 463,725 465,725 466,725 467,723 467,723 468,723 468,723 469,723 470,723 471,723 474,723 475,723 476,723 477,723 477,722 480,721 482,721 483,721 484,721 485,721 486,721 486,720 487,720 487,720 498,718 501,718 501,718 503,718 503,718 504,717 504,717 505,717 507,717 508,717 508,717 509,717 509,716 510,716 510,716 512,716 512,716 513,716 515,715 516,715 517,713 518,713 519,713 522,713 523,713 525,712 527,711 528,711 529,711 531,711 532,711 533,711 534,711 534,711 536,711 536,711 538,711 539,711 540,711 541,711 542,711 546,711 546,711 547,711 549,711 549,711 551,710 552,710 552,710 554,710 555,710 555,710 556,710 561,710 561,710 562,709 562,709 563,709 564,709 565,709 566,709 567,709 568,709 569,709 569,709 570,709 572,709 572,707 574,707 575,707 576,707 577,707 579,707 579,707 580,707 580,706 581,706 581,706 582,706 583,706 584,706 584,705 585,705 587,705 588,704 588,704 589,702 590,702 590,702 591,702 592,702 592,702 593,701 593,700 594,700 594,700 595,700 596,700 596,700 597,700 597,700 598,700 598,700 599,700 599,700 600,700 600,700 601,700 602,700 602,700 603,700 603,700 604,700 604,700 605,700 606,700 606,700 607,700 608,700 608,700 609,700 609,700 610,700 610,700 611,700 611,700 612,700 612,700 613,699 614,699 614,699 615,699 615,699 616,699 616,699 617,699 617,699 618,699 618,699 619,699 620,699 620,699 621,697 621,697 622,697 622,697 623,697 623,696 624,696 625,696 625,696 626,696 626,696 627,696 627,696 628,696 628,696 629,696 629,695 630,695 631,695 631,695 632,695 632,695 633,695 633,695 634,695 634,695 635,695 635,695 636,695 637,695 637,695 638,695 638,695 639,692 639,692 640,692 640,692 641,691 641,689 642,689 643,689 643,689 644,689 644,687 645,687 645,687 646,687 646,687 647,687 647,687 648,687 649,687 649,687 650,687 650,687 651,686 651,686 652,686 652,686 653,686 653,684 654,684 655,684 655,684 656,684 656,684 657,684 657,682 658,682 658,682 659,682 659,682 660,682 661,681 661,682 662,682 662,682 663,682 663,682 664,682 664,682 665,682 665,682 666,684 667,684 667,684 668,684 668,684 669,684 669,684 670,684 670,684 671,684 671,684 672,684 673,684 673,684 674,684 674,684 675,681 675,681 676,681 676,681 677,681 677,681 678,681 679,681 679,681 680,681 680,681 681,681 681,681 682,681 682,680 683,680 683,680 684,680 685,680 685,680 686,680 686,680 687,680 687,680 688,680 688,679 689,679 689,679 690,679 691,679 691,679 692,677 692,677 693,677 693,677 694,677 694,677 695,677 695,677 696,677 697,677 697,677 698,679 698,679 699,679 699,679 700,679 700,679 701,679 701,679 702,679 703,679 703,680 704,680 704,680 705,680 705,680 706,680 706,680 707,680 707,680 708,680 709,680 709,680 710,680 710,680 711,680 711,679 712,679 712,679 713,679 713,677 714,677 715,677 715,677 716,677 716,677 717,677 717,677 718,677 718,677 719,676 719,676 720,676 721,676 721,676 722,676 722,675 723,674 723,674 724,674 724,674 725,674 725,674 726,674 727,674 727,672 728,672 728,671 729,671 729,672 730,672 730,672 731,672 731,672 732,672 733,671 733,671 734,671 734,671 735,671 735,671 736,671 736,671 737,671 738,671 738,671 739,671 739,671 740,671 740,671 741,671 741,671 742,671 742,671 743,671 744,671 744,671 745,672 745,672 746,672 746,672 747,672 747,672 748,672 748,672 749,672 750,672 750,672 751,672 751,672 752,672 752,672 753,672 753,672 754,672 754,672 755,672 756,672 757,671 757,671 758,671 758,671 759,671 759,671 760,671 760,671 761,670 762,670 762,670 763,670 763,670 764,670 764,670 765,670 765,670 766,670 766,670 767,670 768,670 768,670 769,670 769,670 770,670 770,670 771,669 771,669 772,669 772,669 773,669 774,669 774,669 775,669 775,669 776,669 776,669 777,669 777,669 778,667 778,667 779,667 780,667 780,667 781,667 781,667 782,667 782,667 783,667 783,667 784,667 784,667 785,666 786,666 786,665 787,665 787,665 788,664 788,662 789,662 789,662 790,662 790,662 790,662 791,662 792,662 792,661 793,661 793,661 794,661 794,661 795,661 795,661 796,661 796,661 797,661 798,661 798,661 799,661 799,661 800,661 800,660 801,660 801,660 802,660 802,660 803,660 804,660 804,660 805,660 805,659 806,659 806,659 807,659 807,659 808,660 808,660 809,660 810,660 810,660 811,660 811,660 812,660 812,660 813,660 813,660 814,660 814,660 815,660 816,660 816,660 817,660 817,660 818,660 818,660 819,660 819,660 820,660 820,660 821,660 822,660 822,660 823,660 823,660 824,660 824,660 825,660 825,660 826,660 826,660 827,660 828,660 828,659 829,659 829,657 830,657 830,657 831,656 831,656 832,656 832,656 833,656 834,656 834,655 835,655 835,655 836,654 836,654 837,654 837,654 838,654 838,654 839,654 840,654 840,654 841,654 841,654 842,652 842,654 843,652 843,652 844,652 844,652 845,651 846,651 846,649 847,649 847,649 848,649 848,649 849,649 849,649 850,649 851,649 851,649 852,649 852,649 853,649 853,649 854,649 854,648 855,648 855,648 856,648 857,648 857,648 858,648 858,646 859,646 859,646 860,645 860,645 861,644 861,644 862,644 863,644 863,644 864,643 864,643 865,643 865,643 866,643 866,643 867,643 867,643 868,643 869,643 869,643 870,643 870,641 871,639 871,639 872,639 872,636 873,636 873,636 874,636 875,636 875,636 876,635 876,634 877,633 877,633 878,633 878,630 879,631 879,631 880,631 881,630 881,630 882,629 882,629 883,629 883,629 884,629 884,629 885,629 885,629 886,629 887,629 887,629 888,628 888,628 889,626 889,625 890,624 890,624 891,624 891,621 892,621 893,621 893,621 894,621 894,621 895,623 895,621 896,621 896,621 897,621 897,621 898,621 899,621 899,621 900,621 900,621 901,620 901,620 902,620 902,620 903,620 903,620 904,620 905,620 905,620 906,620 906,620 907,620 907,620 908,620 908,620 909,620 909,620 910,620 911,620 911,620 912,620 912,620 913,620 913,620 914,620 914,619 915,618 915,618 916,616 917,616 917,616 918,616 918,615 919,615 919,615 920,615 920,615 921,615 921,615 922,615 923,615 923,614 924,614 924,614 925,614 925,613 926,613 926,611 927,611 927,611 928,611 929,611 929,611 930,610 930,610 931,609 931,609 932,609 932,609 933,609 933,609 934,609 935,609 935,609 936,610 936,610 937,610 937,610 938,610 938,610 939,610 939,610 940,610 941,610 941,610 942,608 942,608 943,606 943,606 944,606 944,606 945,606 945,606 946,606 947,606 947,608 948,606 948,606 949,606 949,606 950,605 950,605 951,605 951,605 952,605 953,605 953,604 954,604 954,604 955,603 955,603 956,603 956,603 957,603 957,603 958,603 959,603 959,603 960,603 960,603 961,603 961,603 962,601 963,601 964,601 964,601 965,601 965,601 966,601 966,600 967,600 968,600 968,600 969,600 970,600 971,600 971,599 972,599 972,599 973,599 973,598 974,598 975,598 976,596 976,596 977,595 977,594 978,594 978,594 979,594 979,593 980,593 980,593 981,593 982,593 982,593 983,593 983,593 984,593 984,592 985,592 985,592 986,592 986,592 987,592 988,592 988,590 989,590 989,590 990,590 990,590 991,588 991,588 992,588 992,588 993,588 994,588 994,587 995,585 995,585 996,585 996,584 997,583 997,583 998,583 998,582 999,579 1000,579 1000,579 1001,579 1001,578 1001,577 1002,577 1003,577 1003,575 1004,575 1004,575 1005,572 1006,572 1006,570 1007,570 1007,570 1008,570 1008,570 1009,570 1009,570 1010,570 1010,569 1011,569 1012,568 1012,568 1013,568 1013,567 1014,567 1014,567 1015,567 1015,564 1016,564 1016,562 1017,562 1018,560 1018,559 1019,558 1019,558 1020,558 1020,558 1021,555 1021,555 1022,555 1022,555 1023,554 1024,554 1024,553 1025,553 1025,553 1026,553 1026,553 1027,553 1027,553 1028,553 1028,553 1029,553 1030,553 1030,553 1031,553 1031,552 1032,550 1032,550 1033,550 1033,548 1034,547 1034,544 1035,543 1036,542 1036,542 1037,540 1037,542 1038,538 1038,538 1039,538 1039,538 1040,538 1041,535 1042,534 1042,534 1043,534 1043,534 1044,534 1044,533 1045,533 1045,533 1046,532 1046,532 1047,532 1048,532 1048,532 1049,532 1049,529 1050,529 1050,528 1051,527 1051,527 1052,526 1052,526 1053,526 1054,527 1054,528 1055,527 1055,524 1056,526 1056,526 1057,526 1057,526 1058,526 1058,524 1059,524 1060,524 1060,524 1061,522 1061,522 1062,518 1062,518 1063,518 1063,519 1064,519 1064,519 1065,519 1066,519 1066,519 1067,519 1067,516 1068,516 1068,516 1069,516 1069,516 1070,514 1070,514 1071,514 1072,514 1072,514 1073,513 1073,513 1074,512 1074,512 1075,512 1075,512 1076,513 1077,513 1077,513 1078,513 1078,513 1078,513 1078,513 1079,513 1079,512 1079,512 1080,512 1080,512 1080,512 1081,512 1081,512 1081,512 1081,512 1082,512 1082,512 1083,512 1083,509 1083,509 1083,509 1084,509 1084,507 1084,507 1084,507 1085,507 1085,507 1085,507 1085,507 1086,507 1086,507 1086,507 1087,507 1087,507 1087,507 1088,507 1088,507 1089,507 1089,506 1089,506 1089,504 1090,504 1090,504 1090,504 1090,504 1091,504 1091,504 1091,502 1092,502 1092,502 1092,502 1092,502 1093,502 1093,499 1093,499 1093,498 1094,498 1094,499 1095,499 1095,499 1095,499 1095,499 1096,499 1096,499 1096,499 1096,499 1097,499 1097,499 1097,499 1098,499 1098,498 1098,498 1098,499 1099,499 1099,501 1099,501 1099,499 1100,499 1100,499 1101,499 1101,499 1101,499 1101,499 1102,499 1102,497 1102,497 1102,497 1103,497 1103,497 1103,497 1104,496 1104,496 1104,496 1105,496 1105,496 1105,496 1105,496 1106,496 1106,496 1107,496 1107,494 1107,494 1107,494 1108,494 1108,493 1108,493 1108,493 1109,493 1109,493 1109,493 1110,492 1110,491 1110,491 1110,491 1111,491 1111,491 1111,491 1111,491 1112,491 1112,489 1113,489 1113,489 1113,489 1114,489 1114,487 1114,487 1114,486 1115,486 1115,486 1115,486 1115,486 1116,486 1116,486 1116,486 1116,486 1117,486 1117,486 1117,486 1117,486 1118,486 1118,486 1119,486 1119,484 1119,484 1119,484 1120,484 1120,484 1120,484 1120,486 1121,486 1121,483 1121,483 1121,482 1122,482 1122,482 1122,482 1122,482 1123,482 1123,482 1123,479 1124,479 1124,479 1125,479 1125,478 1125,478 1125,478 1126,478 1126,478 1126,478 1126,478 1127,478 1127,479 1127,479 1127,479 1128,479 1128,479 1128,479 1129,479 1129,478 1129,478 1129,478 1130,478 1130,478 1131,478 1131,478 1131,478 1132,478 1132,478 1133,478 1133,477 1133,477 1134,477 1134,476 1134,476 1134,476 1135,476 1135,475 1135,475 1135,475 1136,475 1136,473 1137,473 1137,475 1137,475 1137,475 1138,475 1138,475 1138,475 1138,475 1139,475 1139,475 1139,475 1140,475 1140,475 1140,475 1140,475 1141,475 1141,476 1141,476 1141,476 1142,476 1142,475 1143,475 1143,477 1143,477 1143,477 1144,477 1144,477 1144,477 1144,478 1145,478 1145,478 1145,478 1145,478 1146,478 1146,477 1146,477 1146,477 1147,477 1147,477 1147,476 1148,476 1149,476 1149,476 1149,476 1149,476 1150,476 1150,476 1150,476 1150,476 1151,476 1151,476 1151,476 1151,476 1152,476 1152,476 1152,475 1153,475 1153,475 1153,475 1153,475 1154,475 1154,475 1155,475 1155,473 1155,473 1155,473 1156,473 1156,473 1156,473 1156,473 1157,473 1157,473 1157,472 1158,472 1158,473 1158,473 1158,473 1159,473 1159,473 1159,473 1160,473 1160,473 1161,473 1161,472 1161,472 1161,472 1162,472 1162,471 1162,471 1162,468 1163,467 1163,467 1163,466 1164,466 1164,466 1164,466 1164,466 1165,466 1165,466 1165,466 1165,466 1166,466 1167,466 1167,463 1167,463 1168,463 1168,463 1168,463 1168,462 1169,462 1169,462 1169,462 1169,462 1170,462 1170,462 1170,462 1171,462 1171,461 1171,461 1171,461 1172,461 1172,461 1173,461 1173,460 1173,460 1173,460 1174,460 1174,460 1174,460 1174,460 1175,460 1175,458 1175,458 1175,458 1176,458 1176,457 1176,457 1176,457 1177,457 1177,457 1177,457 1177,457 1178,457 1179,457 1179,457 1179,457 1179,457 1180,457 1180,457 1180,456 1181,456 1181,456 1181,456 1181,455 1182,455 1182,455 1182,455 1182,455 1183,455 1183,453 1183,453 1183,451 1184,451 1184,451 1185,451 1185,451 1185,451 1185,451 1186,451 1186,451 1186,451 1187,451 1187,451 1187,451 1187,452 1188,452 1188,453 1188,453 1188,453 1189,453 1189,453 1190,453 "/>
<rect x="1085" y="323" width="100" height="104" opacity="1" fill="#FFFFFF" stroke="none"/>
<rect x="1085" y="323" width="100" height="104" opacity="1" fill="none" stroke="#000000"/>
<text x="1125" y="333" dy="0.76em" text-anchor="start" font-family="sans-serif" font-size="9.67741935483871" opacity="1" fill="#000000">
ansi_term
</text>
<text x="1125" y="348" dy="0.76em" text-anchor="start" font-family="sans-serif" font-size="9.67741935483871" opacity="1" fill="#000000">
colored
</text>
<text x="1125" y="363" dy="0.76em" text-anchor="start" font-family="sans-serif" font-size="9.67741935483871" opacity="1" fill="#000000">
console
</text>
<text x="1125" y="378" dy="0.76em" text-anchor="start" font-family="sans-serif" font-size="9.67741935483871" opacity="1" fill="#000000">
term
</text>
<text x="1125" y="393" dy="0.76em" text-anchor="start" font-family="sans-serif" font-size="9.67741935483871" opacity="1" fill="#000000">
termcolor
</text>
<text x="1125" y="408" dy="0.76em" text-anchor="start" font-family="sans-serif" font-size="9.67741935483871" opacity="1" fill="#000000">
termion
</text>
<polyline fill="none" opacity="1" stroke="#E61919" stroke-width="2" points="1095,338 1115,338 "/>
<polyline fill="none" opacity="1" stroke="#E5E619" stroke-width="2" points="1095,352 1115,352 "/>
<polyline fill="none" opacity="1" stroke="#19E619" stroke-width="2" points="1095,367 1115,367 "/>
<polyline fill="none" opacity="1" stroke="#19E5E6" stroke-width="2" points="1095,382 1115,382 "/>
<polyline fill="none" opacity="1" stroke="#1919E6" stroke-width="2" points="1095,397 1115,397 "/>
<polyline fill="none" opacity="1" stroke="#E519E6" stroke-width="2" points="1095,412 1115,412 "/>
</svg>
