<svg width="1200" height="800" xmlns="http://www.w3.org/2000/svg">
<rect x="0" y="0" width="1199" height="799" opacity="1" fill="#FFFFFF" stroke="none"/>
<line opacity="0.1" stroke="#000000" stroke-width="1" x1="60" y1="732" x2="1190" y2="732"/>
<line opacity="0.1" stroke="#000000" stroke-width="1" x1="60" y1="723" x2="1190" y2="723"/>
<line opacity="0.1" stroke="#000000" stroke-width="1" x1="60" y1="715" x2="1190" y2="715"/>
<line opacity="0.1" stroke="#000000" stroke-width="1" x1="60" y1="706" x2="1190" y2="706"/>
<line opacity="0.1" stroke="#000000" stroke-width="1" x1="60" y1="698" x2="1190" y2="698"/>
<line opacity="0.1" stroke="#000000" stroke-width="1" x1="60" y1="690" x2="1190" y2="690"/>
<line opacity="0.1" stroke="#000000" stroke-width="1" x1="60" y1="681" x2="1190" y2="681"/>
<line opacity="0.1" stroke="#000000" stroke-width="1" x1="60" y1="673" x2="1190" y2="673"/>
<line opacity="0.1" stroke="#000000" stroke-width="1" x1="60" y1="664" x2="1190" y2="664"/>
<line opacity="0.1" stroke="#000000" stroke-width="1" x1="60" y1="656" x2="1190" y2="656"/>
<line opacity="0.1" stroke="#000000" stroke-width="1" x1="60" y1="647" x2="1190" y2="647"/>
<line opacity="0.1" stroke="#000000" stroke-width="1" x1="60" y1="639" x2="1190" y2="639"/>
<line opacity="0.1" stroke="#000000" stroke-width="1" x1="60" y1="631" x2="1190" y2="631"/>
<line opacity="0.1" stroke="#000000" stroke-width="1" x1="60" y1="622" x2="1190" y2="622"/>
<line opacity="0.1" stroke="#000000" stroke-width="1" x1="60" y1="614" x2="1190" y2="614"/>
<line opacity="0.1" stroke="#000000" stroke-width="1" x1="60" y1="605" x2="1190" y2="605"/>
<line opacity="0.1" stroke="#000000" stroke-width="1" x1="60" y1="597" x2="1190" y2="597"/>
<line opacity="0.1" stroke="#000000" stroke-width="1" x1="60" y1="588" x2="1190" y2="588"/>
<line opacity="0.1" stroke="#000000" stroke-width="1" x1="60" y1="580" x2="1190" y2="580"/>
<line opacity="0.1" stroke="#000000" stroke-width="1" x1="60" y1="572" x2="1190" y2="572"/>
<line opacity="0.1" stroke="#000000" stroke-width="1" x1="60" y1="563" x2="1190" y2="563"/>
<line opacity="0.1" stroke="#000000" stroke-width="1" x1="60" y1="555" x2="1190" y2="555"/>
<line opacity="0.1" stroke="#000000" stroke-width="1" x1="60" y1="546" x2="1190" y2="546"/>
<line opacity="0.1" stroke="#000000" stroke-width="1" x1="60" y1="538" x2="1190" y2="538"/>
<line opacity="0.1" stroke="#000000" stroke-width="1" x1="60" y1="530" x2="1190" y2="530"/>
<line opacity="0.1" stroke="#000000" stroke-width="1" x1="60" y1="521" x2="1190" y2="521"/>
<line opacity="0.1" stroke="#000000" stroke-width="1" x1="60" y1="513" x2="1190" y2="513"/>
<line opacity="0.1" stroke="#000000" stroke-width="1" x1="60" y1="504" x2="1190" y2="504"/>
<line opacity="0.1" stroke="#000000" stroke-width="1" x1="60" y1="496" x2="1190" y2="496"/>
<line opacity="0.1" stroke="#000000" stroke-width="1" x1="60" y1="487" x2="1190" y2="487"/>
<line opacity="0.1" stroke="#000000" stroke-width="1" x1="60" y1="479" x2="1190" y2="479"/>
<line opacity="0.1" stroke="#000000" stroke-width="1" x1="60" y1="471" x2="1190" y2="471"/>
<line opacity="0.1" stroke="#000000" stroke-width="1" x1="60" y1="462" x2="1190" y2="462"/>
<line opacity="0.1" stroke="#000000" stroke-width="1" x1="60" y1="454" x2="1190" y2="454"/>
<line opacity="0.1" stroke="#000000" stroke-width="1" x1="60" y1="445" x2="1190" y2="445"/>
<line opacity="0.1" stroke="#000000" stroke-width="1" x1="60" y1="437" x2="1190" y2="437"/>
<line opacity="0.1" stroke="#000000" stroke-width="1" x1="60" y1="429" x2="1190" y2="429"/>
<line opacity="0.1" stroke="#000000" stroke-width="1" x1="60" y1="420" x2="1190" y2="420"/>
<line opacity="0.1" stroke="#000000" stroke-width="1" x1="60" y1="412" x2="1190" y2="412"/>
<line opacity="0.1" stroke="#000000" stroke-width="1" x1="60" y1="403" x2="1190" y2="403"/>
<line opacity="0.1" stroke="#000000" stroke-width="1" x1="60" y1="395" x2="1190" y2="395"/>
<line opacity="0.1" stroke="#000000" stroke-width="1" x1="60" y1="386" x2="1190" y2="386"/>
<line opacity="0.1" stroke="#000000" stroke-width="1" x1="60" y1="378" x2="1190" y2="378"/>
<line opacity="0.1" stroke="#000000" stroke-width="1" x1="60" y1="370" x2="1190" y2="370"/>
<line opacity="0.1" stroke="#000000" stroke-width="1" x1="60" y1="361" x2="1190" y2="361"/>
<line opacity="0.1" stroke="#000000" stroke-width="1" x1="60" y1="353" x2="1190" y2="353"/>
<line opacity="0.1" stroke="#000000" stroke-width="1" x1="60" y1="344" x2="1190" y2="344"/>
<line opacity="0.1" stroke="#000000" stroke-width="1" x1="60" y1="336" x2="1190" y2="336"/>
<line opacity="0.1" stroke="#000000" stroke-width="1" x1="60" y1="328" x2="1190" y2="328"/>
<line opacity="0.1" stroke="#000000" stroke-width="1" x1="60" y1="319" x2="1190" y2="319"/>
<line opacity="0.1" stroke="#000000" stroke-width="1" x1="60" y1="311" x2="1190" y2="311"/>
<line opacity="0.1" stroke="#000000" stroke-width="1" x1="60" y1="302" x2="1190" y2="302"/>
<line opacity="0.1" stroke="#000000" stroke-width="1" x1="60" y1="294" x2="1190" y2="294"/>
<line opacity="0.1" stroke="#000000" stroke-width="1" x1="60" y1="285" x2="1190" y2="285"/>
<line opacity="0.1" stroke="#000000" stroke-width="1" x1="60" y1="277" x2="1190" y2="277"/>
<line opacity="0.1" stroke="#000000" stroke-width="1" x1="60" y1="269" x2="1190" y2="269"/>
<line opacity="0.1" stroke="#000000" stroke-width="1" x1="60" y1="260" x2="1190" y2="260"/>
<line opacity="0.1" stroke="#000000" stroke-width="1" x1="60" y1="252" x2="1190" y2="252"/>
<line opacity="0.1" stroke="#000000" stroke-width="1" x1="60" y1="243" x2="1190" y2="243"/>
<line opacity="0.1" stroke="#000000" stroke-width="1" x1="60" y1="235" x2="1190" y2="235"/>
<line opacity="0.1" stroke="#000000" stroke-width="1" x1="60" y1="227" x2="1190" y2="227"/>
<line opacity="0.1" stroke="#000000" stroke-width="1" x1="60" y1="218" x2="1190" y2="218"/>
<line opacity="0.1" stroke="#000000" stroke-width="1" x1="60" y1="210" x2="1190" y2="210"/>
<line opacity="0.1" stroke="#000000" stroke-width="1" x1="60" y1="201" x2="1190" y2="201"/>
<line opacity="0.1" stroke="#000000" stroke-width="1" x1="60" y1="193" x2="1190" y2="193"/>
<line opacity="0.1" stroke="#000000" stroke-width="1" x1="60" y1="184" x2="1190" y2="184"/>
<line opacity="0.1" stroke="#000000" stroke-width="1" x1="60" y1="176" x2="1190" y2="176"/>
<line opacity="0.1" stroke="#000000" stroke-width="1" x1="60" y1="168" x2="1190" y2="168"/>
<line opacity="0.1" stroke="#000000" stroke-width="1" x1="60" y1="159" x2="1190" y2="159"/>
<line opacity="0.1" stroke="#000000" stroke-width="1" x1="60" y1="151" x2="1190" y2="151"/>
<line opacity="0.1" stroke="#000000" stroke-width="1" x1="60" y1="142" x2="1190" y2="142"/>
<line opacity="0.1" stroke="#000000" stroke-width="1" x1="60" y1="134" x2="1190" y2="134"/>
<line opacity="0.1" stroke="#000000" stroke-width="1" x1="60" y1="126" x2="1190" y2="126"/>
<line opacity="0.1" stroke="#000000" stroke-width="1" x1="60" y1="117" x2="1190" y2="117"/>
<line opacity="0.1" stroke="#000000" stroke-width="1" x1="60" y1="109" x2="1190" y2="109"/>
<line opacity="0.1" stroke="#000000" stroke-width="1" x1="60" y1="100" x2="1190" y2="100"/>
<line opacity="0.1" stroke="#000000" stroke-width="1" x1="60" y1="92" x2="1190" y2="92"/>
<line opacity="0.1" stroke="#000000" stroke-width="1" x1="60" y1="83" x2="1190" y2="83"/>
<line opacity="0.1" stroke="#000000" stroke-width="1" x1="60" y1="75" x2="1190" y2="75"/>
<line opacity="0.1" stroke="#000000" stroke-width="1" x1="60" y1="67" x2="1190" y2="67"/>
<line opacity="0.1" stroke="#000000" stroke-width="1" x1="60" y1="58" x2="1190" y2="58"/>
<line opacity="0.1" stroke="#000000" stroke-width="1" x1="60" y1="50" x2="1190" y2="50"/>
<line opacity="0.1" stroke="#000000" stroke-width="1" x1="60" y1="41" x2="1190" y2="41"/>
<line opacity="0.1" stroke="#000000" stroke-width="1" x1="60" y1="33" x2="1190" y2="33"/>
<line opacity="0.1" stroke="#000000" stroke-width="1" x1="60" y1="24" x2="1190" y2="24"/>
<line opacity="0.1" stroke="#000000" stroke-width="1" x1="60" y1="16" x2="1190" y2="16"/>
<text x="10" y="375" dy="0.76em" text-anchor="middle" font-family="sans-serif" font-size="9.67741935483871" opacity="1" fill="#000000" transform="rotate(270, 10, 375)">
Number of dependent crates
</text>
<line opacity="0.2" stroke="#000000" stroke-width="1" x1="60" y1="656" x2="1190" y2="656"/>
<line opacity="0.2" stroke="#000000" stroke-width="1" x1="60" y1="572" x2="1190" y2="572"/>
<line opacity="0.2" stroke="#000000" stroke-width="1" x1="60" y1="487" x2="1190" y2="487"/>
<line opacity="0.2" stroke="#000000" stroke-width="1" x1="60" y1="403" x2="1190" y2="403"/>
<line opacity="0.2" stroke="#000000" stroke-width="1" x1="60" y1="319" x2="1190" y2="319"/>
<line opacity="0.2" stroke="#000000" stroke-width="1" x1="60" y1="235" x2="1190" y2="235"/>
<line opacity="0.2" stroke="#000000" stroke-width="1" x1="60" y1="151" x2="1190" y2="151"/>
<line opacity="0.2" stroke="#000000" stroke-width="1" x1="60" y1="67" x2="1190" y2="67"/>
<polyline fill="none" opacity="1" stroke="#000000" stroke-width="1" points="59,10 59,740 "/>
<text x="50" y="656" dy="0.5ex" text-anchor="end" font-family="sans-serif" font-size="9.67741935483871" opacity="1" fill="#000000">
50
</text>
<polyline fill="none" opacity="1" stroke="#000000" stroke-width="1" points="54,656 59,656 "/>
<text x="50" y="572" dy="0.5ex" text-anchor="end" font-family="sans-serif" font-size="9.67741935483871" opacity="1" fill="#000000">
100
</text>
<polyline fill="none" opacity="1" stroke="#000000" stroke-width="1" points="54,572 59,572 "/>
<text x="50" y="487" dy="0.5ex" text-anchor="end" font-family="sans-serif" font-size="9.67741935483871" opacity="1" fill="#000000">
150
</text>
<polyline fill="none" opacity="1" stroke="#000000" stroke-width="1" points="54,487 59,487 "/>
<text x="50" y="403" dy="0.5ex" text-anchor="end" font-family="sans-serif" font-size="9.67741935483871" opacity="1" fill="#000000">
200
</text>
<polyline fill="none" opacity="1" stroke="#000000" stroke-width="1" points="54,403 59,403 "/>
<text x="50" y="319" dy="0.5ex" text-anchor="end" font-family="sans-serif" font-size="9.67741935483871" opacity="1" fill="#000000">
250
</text>
<polyline fill="none" opacity="1" stroke="#000000" stroke-width="1" points="54,319 59,319 "/>
<text x="50" y="235" dy="0.5ex" text-anchor="end" font-family="sans-serif" font-size="9.67741935483871" opacity="1" fill="#000000">
300
</text>
<polyline fill="none" opacity="1" stroke="#000000" stroke-width="1" points="54,235 59,235 "/>
<text x="50" y="151" dy="0.5ex" text-anchor="end" font-family="sans-serif" font-size="9.67741935483871" opacity="1" fill="#000000">
350
</text>
<polyline fill="none" opacity="1" stroke="#000000" stroke-width="1" points="54,151 59,151 "/>
<text x="50" y="67" dy="0.5ex" text-anchor="end" font-family="sans-serif" font-size="9.67741935483871" opacity="1" fill="#000000">
400
</text>
<polyline fill="none" opacity="1" stroke="#000000" stroke-width="1" points="54,67 59,67 "/>
<polyline fill="none" opacity="1" stroke="#000000" stroke-width="1" points="60,740 1190,740 "/>
<text x="60" y="750" dy="0.76em" text-anchor="middle" font-family="sans-serif" font-size="9.67741935483871" opacity="1" fill="#000000">
2015-01-27Z
</text>
<polyline fill="none" opacity="1" stroke="#000000" stroke-width="1" points="60,740 60,745 "/>
<text x="175" y="750" dy="0.76em" text-anchor="middle" font-family="sans-serif" font-size="9.67741935483871" opacity="1" fill="#000000">
2015-08-11Z
</text>
<polyline fill="none" opacity="1" stroke="#000000" stroke-width="1" points="175,740 175,745 "/>
<text x="290" y="750" dy="0.76em" text-anchor="middle" font-family="sans-serif" font-size="9.67741935483871" opacity="1" fill="#000000">
2016-02-23Z
</text>
<polyline fill="none" opacity="1" stroke="#000000" stroke-width="1" points="290,740 290,745 "/>
<text x="405" y="750" dy="0.76em" text-anchor="middle" font-family="sans-serif" font-size="9.67741935483871" opacity="1" fill="#000000">
2016-09-06Z
</text>
<polyline fill="none" opacity="1" stroke="#000000" stroke-width="1" points="405,740 405,745 "/>
<text x="520" y="750" dy="0.76em" text-anchor="middle" font-family="sans-serif" font-size="9.67741935483871" opacity="1" fill="#000000">
2017-03-21Z
</text>
<polyline fill="none" opacity="1" stroke="#000000" stroke-width="1" points="520,740 520,745 "/>
<text x="636" y="750" dy="0.76em" text-anchor="middle" font-family="sans-serif" font-size="9.67741935483871" opacity="1" fill="#000000">
2017-10-03Z
</text>
<polyline fill="none" opacity="1" stroke="#000000" stroke-width="1" points="636,740 636,745 "/>
<text x="751" y="750" dy="0.76em" text-anchor="middle" font-family="sans-serif" font-size="9.67741935483871" opacity="1" fill="#000000">
2018-04-17Z
</text>
<polyline fill="none" opacity="1" stroke="#000000" stroke-width="1" points="751,740 751,745 "/>
<text x="866" y="750" dy="0.76em" text-anchor="middle" font-family="sans-serif" font-size="9.67741935483871" opacity="1" fill="#000000">
2018-10-30Z
</text>
<polyline fill="none" opacity="1" stroke="#000000" stroke-width="1" points="866,740 866,745 "/>
<text x="981" y="750" dy="0.76em" text-anchor="middle" font-family="sans-serif" font-size="9.67741935483871" opacity="1" fill="#000000">
2019-05-14Z
</text>
<polyline fill="none" opacity="1" stroke="#000000" stroke-width="1" points="981,740 981,745 "/>
<text x="1097" y="750" dy="0.76em" text-anchor="middle" font-family="sans-serif" font-size="9.67741935483871" opacity="1" fill="#000000">
2019-11-26Z
</text>
<polyline fill="none" opacity="1" stroke="#000000" stroke-width="1" points="1097,740 1097,745 "/>
<polyline fill="none" opacity="1" stroke="#E61919" stroke-width="2" points="118,738 125,737 129,737 135,735 137,735 138,733 138,733 141,733 141,733 144,733 145,733 145,733 146,733 147,732 148,732 151,732 154,732 164,732 172,732 173,732 176,732 178,733 182,733 184,733 184,733 185,733 187,733 194,733 199,733 204,733 208,733 209,732 212,732 214,732 216,732 217,730 218,730 219,728 220,728 221,728 224,728 224,728 225,725 225,725 226,725 227,725 228,725 228,725 229,725 230,723 231,721 232,721 233,721 234,721 235,721 235,721 236,721 238,721 239,721 241,721 241,721 242,721 242,721 244,721 246,721 246,721 247,721 248,721 248,720 249,720 251,720 256,720 256,720 257,720 258,720 259,718 259,718 260,716 261,716 262,716 263,716 264,715 264,715 265,713 265,713 266,713 266,713 268,711 269,711 270,711 271,711 271,711 272,711 272,711 273,711 274,711 274,711 276,710 276,710 277,710 278,710 278,710 281,710 281,710 282,710 283,710 284,710 285,710 285,710 287,710 288,708 289,708 289,708 290,708 291,708 291,708 292,708 293,708 293,708 294,708 295,708 295,708 296,708 297,708 298,708 298,708 299,708 299,708 300,708 301,706 302,706 302,706 303,706 305,706 305,706 306,706 306,706 308,706 309,706 309,706 310,706 311,706 312,706 312,706 313,706 313,706 314,706 315,706 316,706 317,706 318,705 319,705 320,705 321,705 321,703 322,703 322,703 323,701 323,701 324,701 325,701 325,701 326,701 326,701 327,701 328,701 328,701 331,701 331,701 332,701 333,701 333,701 334,701 335,701 335,701 336,701 336,701 337,701 338,701 338,701 339,701 339,701 340,701 341,701 341,701 342,701 342,701 344,701 345,701 345,701 346,701 346,701 347,701 350,701 351,701 351,701 352,701 352,701 353,701 353,701 354,701 355,701 355,701 356,701 356,701 357,701 358,701 358,701 359,701 359,700 360,698 361,696 361,695 362,695 362,695 363,695 363,695 364,695 365,695 365,695 366,695 366,695 367,695 368,695 368,695 369,695 369,695 370,693 371,693 371,691 372,691 372,691 373,691 373,691 374,691 375,691 375,690 376,690 377,690 378,690 378,690 379,690 379,690 381,690 382,690 383,690 384,688 385,688 385,688 386,688 387,688 388,686 389,684 389,683 390,681 391,681 393,681 393,681 395,679 395,679 396,679 396,679 398,679 399,678 399,678 400,678 401,678 402,678 402,676 403,676 403,676 404,678 405,678 405,678 406,678 407,676 408,676 409,676 410,676 410,676 411,676 412,676 412,676 413,676 414,676 415,676 415,676 416,674 416,674 417,673 418,671 418,669 419,671 419,671 420,671 420,671 421,671 422,671 422,671 423,671 423,671 424,671 425,671 425,671 426,671 426,669 427,669 428,669 428,669 429,669 429,669 430,669 431,669 432,669 433,664 433,664 434,663 435,663 435,663 436,663 436,661 437,661 438,659 438,659 439,659 439,659 440,659 441,659 442,659 442,659 443,659 443,659 444,659 445,658 445,658 446,658 446,658 447,659 448,659 448,659 449,659 449,659 450,659 450,659 451,659 452,659 452,659 453,659 453,659 454,659 455,659 455,659 456,659 456,658 458,658 458,656 459,656 459,656 460,656 460,656 462,656 463,656 464,656 465,654 465,654 466,654 466,654 467,654 468,652 468,652 469,652 469,652 470,652 470,652 471,652 472,652 472,651 473,651 473,649 474,649 475,649 475,647 476,646 476,647 477,647 478,647 478,647 479,647 479,647 480,647 481,647 482,647 482,646 483,646 483,646 484,646 485,646 485,646 486,646 486,646 487,646 488,644 488,644 489,644 489,644 490,644 490,644 491,644 492,642 492,642 493,642 493,642 494,642 495,642 495,641 496,641 496,641 497,639 498,639 498,637 499,637 499,637 500,636 500,636 501,636 502,636 502,634 503,632 503,632 504,632 505,632 505,632 506,632 506,632 507,632 508,631 508,629 509,629 509,629 510,629 510,629 511,629 512,627 512,627 513,627 513,627 514,627 515,626 515,626 516,626 516,626 517,626 517,626 518,626 519,626 519,626 520,627 520,626 521,626 522,626 522,626 523,624 523,624 524,624 525,624 525,624 526,624 526,624 527,624 527,622 528,622 529,622 529,620 530,617 530,617 531,617 532,617 532,617 533,619 533,619 534,619 535,619 535,619 536,619 536,619 537,619 537,619 538,619 539,619 539,619 540,619 540,619 541,619 542,619 542,619 543,619 543,619 544,617 545,615 545,614 546,614 546,612 547,612 547,612 548,612 549,612 549,612 550,610 550,610 551,610 552,610 552,610 553,610 553,610 554,609 555,609 555,609 556,609 556,610 557,609 557,609 558,607 559,607 559,607 560,607 560,607 561,605 562,605 562,607 563,605 563,605 564,605 565,605 565,605 566,604 566,604 567,604 567,604 568,604 569,604 569,604 570,604 570,604 571,604 572,604 572,604 573,604 573,604 574,604 575,604 575,604 576,604 576,604 577,604 577,604 578,604 579,604 579,604 580,604 580,604 581,604 582,604 582,604 583,604 583,604 584,600 585,600 585,600 586,604 586,604 587,604 587,604 588,604 589,604 589,602 590,600 590,600 591,600 592,600 592,600 593,600 593,600 594,600 595,600 595,600 596,600 596,600 597,600 597,600 598,600 599,600 599,600 600,600 600,600 601,600 602,600 602,600 603,600 603,599 604,597 605,597 605,597 606,595 606,595 607,594 607,594 608,594 609,594 609,594 610,594 610,594 611,594 612,594 612,594 613,594 613,594 614,594 615,592 615,590 616,590 616,590 617,590 617,590 618,588 619,588 619,588 620,588 620,588 621,588 622,587 622,587 623,587 623,583 624,582 625,583 625,582 626,578 626,578 627,578 627,578 628,578 629,578 629,578 630,580 630,580 631,580 632,580 632,580 633,580 633,580 634,578 634,578 635,578 636,578 636,578 637,578 637,578 638,578 639,578 639,578 640,578 640,578 641,578 642,577 642,577 643,577 644,577 644,577 645,577 646,575 646,575 647,573 647,573 648,573 649,572 649,572 650,572 650,572 651,572 652,568 652,568 653,568 653,567 654,567 654,567 655,567 656,567 656,565 657,563 657,563 658,562 659,562 659,562 660,562 660,562 661,562 662,562 662,560 663,558 663,558 664,558 664,558 665,558 666,558 666,558 667,558 667,558 668,558 669,558 669,560 670,560 670,560 671,558 672,558 672,558 673,558 673,558 674,557 674,557 675,557 676,557 676,557 677,557 677,557 678,557 679,557 679,557 680,553 680,553 681,553 682,553 682,553 683,553 683,553 684,553 684,553 685,553 686,553 686,553 687,553 687,551 688,551 689,551 689,551 690,551 690,551 691,550 692,550 692,550 693,550 693,550 694,548 694,548 695,548 696,546 696,546 697,545 697,545 698,543 699,545 699,545 700,545 700,545 701,545 702,545 702,545 703,545 703,545 704,545 704,546 705,546 706,546 706,546 707,546 707,546 708,545 709,545 709,541 710,541 710,541 711,540 712,540 712,538 713,538 713,538 714,538 714,540 715,540 716,538 716,538 717,538 717,538 718,538 719,538 719,538 720,538 720,538 721,538 722,538 722,538 723,536 723,535 724,535 724,535 725,535 726,535 726,533 727,535 727,533 728,533 729,533 729,533 730,533 730,533 731,533 732,533 732,533 733,533 733,531 734,531 734,531 735,530 736,528 736,528 737,528 737,526 738,526 739,525 739,525 740,525 740,523 741,523 741,523 742,523 743,525 743,525 744,525 744,525 745,525 746,525 746,525 747,525 747,525 748,525 749,525 749,525 750,526 750,526 751,526 751,525 752,525 753,525 753,525 754,523 754,523 755,523 756,519 756,519 757,519 757,519 758,519 759,519 759,519 760,518 760,518 761,518 761,518 762,518 763,518 763,518 764,518 764,518 765,518 766,518 766,518 767,518 768,518 769,518 769,518 770,518 770,518 771,518 771,516 772,516 773,514 773,514 774,514 774,513 775,513 776,514 776,514 777,514 777,511 778,511 779,509 779,509 780,509 780,508 781,508 781,508 782,508 783,508 783,508 784,508 784,506 785,506 786,506 786,506 787,506 787,506 788,506 789,506 789,506 790,506 790,506 791,503 791,503 792,503 793,503 793,503 794,503 794,503 795,503 796,503 796,503 797,503 797,503 798,503 799,503 799,503 800,501 800,501 801,499 801,499 802,499 803,499 803,499 804,499 804,499 805,498 806,494 806,494 807,494 807,494 808,494 809,494 809,494 810,494 810,494 811,494 811,494 812,494 813,494 813,494 814,494 814,494 815,496 816,496 816,494 817,494 817,494 818,494 819,494 819,494 820,494 820,494 821,494 821,494 822,493 823,493 823,493 824,493 824,491 825,489 826,489 826,489 827,489 827,489 828,489 829,489 829,489 830,489 830,489 831,489 831,489 832,489 833,489 833,489 834,489 834,487 835,487 836,487 836,486 837,486 837,486 838,486 839,486 839,486 840,486 840,486 841,486 841,486 842,486 843,486 843,486 844,486 844,486 845,486 846,484 846,484 846,484 847,484 847,484 848,484 849,482 849,482 850,482 850,482 851,481 851,481 852,481 853,479 853,479 854,479 854,477 855,477 856,477 856,477 857,476 857,476 858,476 858,474 859,474 860,474 860,472 861,472 861,471 862,471 863,471 863,471 864,471 864,471 865,469 866,469 866,469 867,469 867,469 868,469 868,469 869,469 870,469 870,467 871,467 871,467 872,467 873,467 873,467 874,467 874,467 875,466 876,466 876,466 877,464 877,464 878,464 878,464 879,462 880,462 880,462 881,461 881,459 882,459 883,459 883,457 884,454 884,454 885,454 886,454 886,454 887,454 887,454 888,454 888,450 889,450 890,449 890,449 891,447 891,445 892,445 893,445 893,445 894,445 894,444 895,442 896,442 896,442 897,442 897,442 898,442 898,442 899,442 900,442 900,442 901,442 901,442 902,442 903,442 903,442 904,439 904,439 905,437 906,435 906,435 907,434 907,434 908,434 908,432 909,432 910,432 910,432 911,430 911,430 912,430 913,429 913,429 914,427 914,427 915,427 916,427 916,427 917,425 917,425 918,425 918,425 919,425 920,424 920,424 921,424 921,424 922,424 923,422 923,422 924,420 924,420 925,420 926,420 926,420 927,420 927,420 928,420 928,420 929,420 930,418 930,418 931,418 931,418 932,418 933,418 933,418 934,418 934,418 935,418 936,418 936,417 937,417 937,417 938,417 938,417 939,417 940,417 940,417 941,415 941,415 942,412 943,412 943,412 944,412 944,412 945,412 946,412 946,412 947,410 947,408 948,407 948,407 949,407 950,407 950,407 951,407 951,405 952,405 953,405 953,405 954,405 954,405 955,405 956,405 956,405 957,405 957,402 958,402 958,402 959,402 960,402 960,400 961,400 961,400 962,400 963,400 963,400 964,400 964,398 965,398 965,398 966,398 967,398 967,398 968,398 968,397 969,397 970,397 970,397 971,395 971,393 972,393 973,393 973,393 974,393 974,392 975,392 975,392 976,392 977,392 977,392 978,392 978,392 979,392 980,392 980,392 981,390 981,390 982,390 983,385 983,385 984,385 984,385 985,383 985,383 986,383 987,381 987,381 988,381 988,381 989,381 990,381 990,381 991,380 991,380 992,380 993,380 993,380 994,380 994,380 995,378 995,375 996,375 997,375 997,375 998,375 998,373 999,373 1000,373 1000,373 1001,373 1001,373 1002,373 1003,373 1003,373 1004,373 1004,373 1005,373 1005,373 1006,373 1007,373 1007,373 1008,368 1008,368 1009,368 1010,368 1010,368 1011,368 1011,368 1012,368 1013,368 1013,365 1014,365 1014,365 1015,365 1015,363 1016,363 1017,363 1017,363 1018,363 1018,363 1019,361 1020,361 1020,360 1021,360 1021,360 1022,360 1023,360 1023,360 1024,360 1024,360 1025,360 1025,358 1026,358 1027,356 1027,356 1028,356 1028,356 1029,356 1030,356 1030,356 1031,356 1031,356 1032,354 1033,354 1033,354 1034,354 1034,354 1035,354 1035,354 1036,354 1037,354 1037,354 1038,353 1038,353 1039,353 1040,353 1040,351 1041,349 1041,349 1042,349 1043,349 1043,349 1044,349 1044,349 1045,349 1045,349 1046,348 1047,348 1047,346 1048,349 1048,349 1049,349 1050,349 1050,348 1051,348 1051,346 1052,344 1053,344 1053,344 1054,343 1054,343 1055,343 1055,341 1056,341 1057,334 1057,334 1058,333 1058,333 1059,333 1060,334 1060,334 1061,334 1061,333 1062,331 1063,331 1063,329 1064,329 1064,329 1065,329 1065,328 1066,326 1067,326 1067,324 1068,324 1068,329 1069,329 1070,328 1070,329 1071,329 1071,329 1072,329 1073,329 1073,329 1073,329 1074,329 1074,329 1075,329 1075,329 1076,329 1077,329 1077,329 1078,329 1078,328 1079,326 1080,322 1080,322 1081,322 1081,322 1082,322 1082,322 1083,322 1084,322 1084,322 1085,322 1085,321 1086,321 1087,321 1087,321 1088,321 1088,321 1089,321 1090,319 1090,319 1091,319 1091,319 1092,319 1092,319 1093,319 1094,319 1094,319 1095,319 1095,319 1096,319 1097,319 1097,319 1098,319 1098,317 1099,316 1100,316 1100,314 1101,312 1101,309 1102,309 1102,309 1103,309 1104,309 1104,309 1105,309 1105,307 1106,307 1107,307 1107,307 1108,306 1108,306 1109,296 1110,296 1110,296 1111,296 1111,296 1112,296 1112,294 1113,294 1114,294 1114,294 1115,294 1115,294 1116,294 1117,292 1117,292 1118,292 1118,291 1119,291 1120,289 1120,289 1121,289 1121,289 1122,289 1122,287 1123,287 1124,287 1124,287 1125,285 1125,285 1126,282 1127,282 1127,284 1128,284 1128,284 1129,282 1130,282 1130,282 1131,284 1131,284 1132,284 1132,284 1133,284 1134,284 1134,284 1135,284 1135,282 1136,282 1137,279 1137,277 1138,277 1138,277 1139,277 1140,277 1140,277 1141,277 1141,275 1142,275 1142,274 1143,274 1144,274 1144,274 1145,270 1145,270 1146,272 1147,272 1147,272 1148,272 1148,272 1149,272 1150,272 1150,272 1151,272 1151,269 1152,269 1152,270 1153,269 1154,267 1154,265 1155,265 1155,265 1156,265 1156,265 1157,265 1157,265 1157,265 1158,265 1158,265 1158,265 1158,265 1159,265 1160,265 1160,265 1160,265 1160,265 1161,265 1161,265 1161,265 1161,264 1162,264 1162,262 1162,262 1162,260 1163,260 1163,260 1164,260 1164,260 1164,260 1164,260 1165,260 1165,259 1165,259 1166,259 1166,257 1167,257 1167,257 1167,257 1168,257 1168,255 1168,255 1168,255 1169,255 1169,255 1170,255 1170,253 1170,253 1170,253 1171,252 1171,252 1171,252 1172,252 1172,252 1172,252 1172,252 1173,252 1173,252 1174,252 1174,252 1174,252 1174,252 1175,252 1175,252 1175,252 1175,252 1176,252 1176,252 1177,252 1177,252 1177,252 1178,252 1178,252 1178,252 1178,252 1179,252 1179,253 1180,253 1180,253 1180,253 1180,252 1181,252 1181,252 1181,252 1181,252 1182,252 1182,252 1182,252 1182,252 1183,252 1183,252 1184,250 1184,248 1185,248 1185,247 1185,247 1185,245 1186,245 1186,243 1187,243 1187,243 1187,243 1187,240 1188,240 1188,237 1188,237 1188,235 1189,235 1189,232 1190,232 1190,232 "/>
<polyline fill="none" opacity="1" stroke="#E5E619" stroke-width="2" points="354,738 361,737 362,735 368,733 386,732 409,730 430,728 442,727 444,725 445,725 449,725 469,723 476,720 480,718 499,716 508,715 520,711 520,711 521,711 522,710 522,710 523,710 523,710 524,710 525,708 525,708 527,708 531,708 532,708 534,706 535,706 535,706 537,705 540,703 542,701 542,701 543,700 544,700 547,698 548,698 549,698 549,698 550,696 550,696 551,696 553,695 556,695 556,695 559,695 559,695 560,693 562,693 563,693 563,693 565,693 565,693 566,693 567,693 570,691 570,690 572,688 573,688 574,686 575,686 576,686 576,684 577,684 577,684 585,684 585,683 587,683 589,683 590,681 590,681 592,681 593,681 595,681 596,681 596,681 597,679 597,679 599,679 602,679 603,678 603,678 604,678 606,678 606,678 607,678 609,676 611,676 612,676 612,674 613,676 613,676 614,676 617,674 618,674 619,674 620,674 621,674 622,673 622,673 623,673 624,673 625,671 625,671 626,671 627,671 629,671 629,669 630,669 632,669 633,669 633,668 634,668 635,668 636,668 637,668 637,668 638,668 639,666 640,666 640,666 641,666 642,666 642,664 643,663 643,663 644,663 644,664 645,664 646,664 646,664 647,663 647,661 648,661 649,659 649,658 650,658 650,656 651,656 653,656 654,656 655,656 656,654 656,654 657,652 657,652 659,652 660,651 661,652 662,652 663,652 664,652 666,652 667,652 668,652 669,652 669,649 670,649 670,649 671,651 672,651 672,651 673,651 673,651 674,651 674,651 676,651 677,649 678,649 679,649 679,647 680,649 682,649 683,649 683,649 684,649 685,649 686,649 687,649 689,647 689,647 690,646 691,646 692,646 693,646 694,646 696,646 697,644 700,642 701,642 703,642 703,642 704,641 705,641 706,641 706,641 707,641 707,641 709,641 709,641 710,641 710,641 711,639 712,639 713,639 713,637 714,637 714,634 716,632 718,632 719,631 719,631 720,631 723,631 724,631 726,631 727,631 728,631 730,629 732,629 732,627 733,626 734,626 736,626 737,626 737,626 738,626 739,626 743,624 743,624 744,622 744,622 746,620 747,619 748,619 749,619 749,617 750,617 750,615 751,614 751,614 753,614 754,614 754,614 755,614 756,614 757,614 758,614 759,612 760,612 760,612 761,610 761,610 762,610 763,609 763,605 764,605 765,605 768,607 770,605 771,600 771,599 772,600 773,600 773,600 774,599 776,599 777,599 779,599 779,599 780,599 781,597 782,597 783,597 784,595 784,595 785,594 786,594 786,594 787,594 787,592 788,592 789,590 790,588 790,588 791,588 791,588 793,587 794,587 794,587 795,585 796,585 797,585 797,585 799,585 799,582 800,580 800,580 801,580 801,578 802,578 803,578 803,578 804,578 804,578 806,578 806,578 807,578 808,578 809,578 809,578 810,578 810,577 811,577 813,577 813,577 814,577 814,577 817,575 817,575 818,575 819,573 819,572 820,570 820,570 821,570 822,568 823,568 824,567 824,567 825,567 826,567 826,567 827,567 827,565 828,563 829,563 829,563 830,562 831,560 832,560 833,560 833,558 834,558 834,558 835,558 836,558 837,558 837,558 838,558 839,558 839,558 840,558 840,558 841,558 841,558 842,557 843,557 843,555 844,555 844,555 845,553 846,548 846,548 846,548 847,548 849,546 850,546 850,541 851,540 851,538 852,536 853,536 853,536 854,535 855,535 856,535 857,535 857,535 858,535 860,533 861,530 861,530 862,526 863,526 863,526 864,526 864,526 865,526 866,526 866,525 867,521 867,521 868,518 868,518 869,518 870,516 870,516 871,516 871,516 872,516 873,516 873,514 874,514 874,511 875,511 876,511 877,511 877,511 878,509 878,509 879,509 880,509 880,509 881,509 881,509 882,508 883,508 883,508 884,508 884,508 885,508 886,506 886,506 887,506 887,506 888,506 888,506 889,506 890,504 890,503 891,503 891,503 892,501 893,501 893,501 894,501 894,501 895,498 896,498 896,496 897,496 897,494 898,494 898,494 900,494 900,494 901,494 901,494 902,493 903,491 903,489 904,487 904,486 905,487 906,487 906,486 907,486 907,484 908,484 908,484 909,484 910,484 910,484 911,484 911,484 912,481 913,482 913,481 914,479 914,477 915,477 916,476 916,472 917,471 917,471 918,471 919,471 920,469 920,469 921,469 921,469 922,469 923,469 923,469 924,469 924,471 925,471 926,471 926,469 927,467 928,467 928,467 929,467 930,467 930,467 931,466 931,464 932,464 933,464 933,457 934,457 934,457 935,457 936,455 936,452 937,449 937,449 938,445 938,445 939,445 940,445 940,442 941,442 941,440 942,439 943,440 943,439 944,437 944,435 945,435 946,434 946,434 947,432 947,432 948,432 949,432 950,429 950,429 951,427 951,427 952,424 953,424 953,420 954,418 954,418 955,417 956,413 956,413 957,412 957,410 958,410 958,410 959,410 960,410 960,410 961,410 961,410 962,408 963,408 963,408 964,408 964,408 965,408 965,405 966,405 967,403 967,403 968,403 968,402 969,402 970,402 970,402 971,402 971,402 972,402 973,402 973,402 974,402 974,398 975,398 975,395 976,395 977,395 977,395 978,392 978,392 979,392 980,390 980,390 981,388 981,388 982,388 983,388 983,386 984,383 984,381 985,381 985,380 986,378 987,376 987,371 988,370 988,370 989,368 990,368 990,368 991,366 991,365 992,365 993,363 993,365 994,361 994,361 995,358 995,354 996,356 997,356 997,356 998,354 998,354 999,354 1000,354 1000,354 1001,353 1001,353 1002,353 1003,353 1003,353 1004,353 1004,351 1005,349 1005,346 1006,344 1007,344 1007,344 1008,343 1008,343 1009,339 1010,339 1010,339 1011,341 1011,339 1012,339 1013,339 1013,339 1014,338 1014,339 1015,336 1015,336 1016,336 1017,333 1017,333 1018,331 1018,328 1019,322 1020,321 1020,321 1021,321 1021,317 1022,317 1023,317 1023,317 1024,317 1024,317 1025,316 1025,316 1026,316 1027,316 1027,311 1028,309 1028,309 1029,309 1030,309 1030,309 1031,307 1031,307 1032,306 1033,304 1033,302 1034,302 1035,301 1035,299 1036,301 1037,301 1037,301 1038,301 1038,301 1039,299 1040,299 1040,301 1041,301 1041,301 1042,301 1043,301 1043,301 1044,301 1044,301 1045,299 1045,299 1046,299 1047,299 1047,299 1048,297 1048,297 1049,297 1050,297 1050,297 1051,297 1051,296 1052,296 1053,294 1053,294 1054,294 1054,294 1055,292 1055,294 1056,291 1057,291 1057,289 1058,289 1058,289 1059,289 1060,284 1060,279 1061,279 1061,279 1062,279 1063,279 1063,280 1064,279 1064,282 1065,282 1065,280 1066,280 1067,280 1067,279 1068,279 1068,279 1069,279 1070,277 1070,275 1071,275 1071,274 1072,272 1073,270 1073,270 1073,270 1074,269 1074,269 1075,269 1075,265 1076,265 1077,262 1077,259 1078,259 1078,259 1079,257 1080,257 1080,255 1081,257 1081,257 1082,257 1082,257 1083,252 1084,252 1084,252 1085,250 1085,250 1086,248 1087,248 1087,248 1088,248 1088,248 1089,248 1090,248 1090,248 1091,248 1091,248 1092,247 1092,247 1093,247 1094,245 1094,245 1095,243 1095,242 1096,242 1097,242 1097,242 1098,242 1098,242 1099,242 1100,242 1100,242 1101,242 1101,242 1102,240 1102,240 1103,237 1104,235 1104,235 1105,235 1105,233 1106,232 1107,230 1107,230 1108,230 1108,228 1109,227 1110,225 1110,225 1111,225 1111,225 1112,225 1112,223 1113,221 1114,221 1114,223 1115,221 1115,220 1116,220 1117,218 1117,218 1118,215 1118,215 1119,215 1120,211 1120,211 1121,210 1121,208 1122,205 1122,205 1123,205 1124,203 1124,203 1125,201 1125,201 1126,200 1127,200 1127,200 1128,200 1128,200 1129,198 1130,198 1130,198 1131,198 1131,196 1132,196 1132,196 1133,196 1134,196 1134,196 1135,195 1135,193 1136,193 1137,188 1137,188 1138,184 1138,184 1139,174 1140,171 1140,169 1141,166 1141,166 1142,164 1142,164 1143,164 1144,164 1144,163 1145,161 1145,156 1146,156 1147,156 1147,152 1148,154 1148,154 1149,154 1150,147 1150,147 1151,149 1151,149 1152,149 1152,146 1153,146 1154,144 1154,149 1155,149 1155,149 1156,147 1156,147 1157,147 1157,144 1157,144 1158,144 1158,144 1158,144 1158,144 1159,142 1160,142 1160,139 1160,139 1160,137 1161,137 1161,134 1161,134 1161,132 1162,132 1162,131 1162,131 1162,131 1163,131 1163,129 1164,129 1164,129 1164,129 1164,127 1165,127 1165,127 1165,124 1166,124 1166,126 1167,126 1167,126 1167,126 1168,126 1168,124 1168,124 1168,124 1169,124 1169,124 1170,124 1170,119 1170,119 1170,119 1171,119 1171,119 1171,119 1172,119 1172,119 1172,119 1172,115 1173,115 1173,114 1174,114 1174,114 1174,114 1174,112 1175,112 1175,112 1175,112 1175,110 1176,110 1176,109 1177,107 1177,107 1177,105 1178,105 1178,104 1178,104 1178,99 1179,99 1179,99 1180,99 1180,97 1180,97 1180,95 1181,95 1181,94 1181,94 1181,90 1182,90 1182,87 1182,87 1182,87 1183,87 1183,87 1184,85 1184,85 1185,85 1185,80 1185,80 1185,80 1186,80 1186,80 1187,80 1187,80 1187,80 1187,78 1188,78 1188,78 1188,78 1188,78 1189,78 1189,78 1190,78 1190,75 "/>
<polyline fill="none" opacity="1" stroke="#19E619" stroke-width="2" points="549,738 550,737 553,737 554,737 555,737 556,737 557,737 557,737 560,737 561,737 563,737 564,737 566,737 566,737 571,737 572,737 573,737 574,737 575,737 577,737 579,737 580,737 581,737 582,737 583,737 584,737 586,735 586,735 587,735 587,735 590,735 590,735 591,735 592,735 592,735 594,735 595,735 596,735 597,735 599,735 599,735 600,735 600,735 602,735 602,735 603,735 603,735 605,735 606,735 607,735 608,735 609,735 609,735 610,735 611,735 612,735 612,735 613,735 614,735 615,735 616,735 616,735 617,735 617,735 619,735 619,735 620,735 622,735 623,733 623,733 624,733 625,733 626,733 626,733 627,733 627,733 628,733 629,733 629,733 630,733 631,733 639,732 639,732 640,732 641,732 643,732 644,732 645,732 647,732 649,732 649,732 650,732 650,732 652,732 657,732 659,732 659,732 660,732 661,732 662,732 662,732 663,732 664,732 664,732 665,732 666,732 666,732 667,732 667,732 668,732 669,730 670,730 670,730 674,730 674,730 675,730 676,730 676,730 677,730 677,728 678,728 679,728 679,728 680,728 683,728 685,728 686,728 687,728 689,728 690,728 691,728 694,728 696,728 697,728 698,728 699,727 702,727 702,727 703,727 704,727 705,727 706,727 707,727 707,727 709,725 709,725 711,725 712,725 712,725 713,725 713,725 717,725 718,725 719,725 719,725 720,725 721,725 724,725 724,725 725,725 726,725 730,725 730,725 731,725 732,725 732,723 733,721 739,721 740,721 741,721 742,721 743,721 746,721 748,721 749,721 750,718 751,720 752,720 753,720 753,720 754,718 754,718 755,718 757,718 757,718 760,718 764,718 764,716 765,715 766,715 766,715 767,715 768,715 769,711 771,711 774,710 777,710 777,710 784,710 784,710 785,710 786,710 789,710 790,710 790,710 791,710 795,710 796,710 797,710 799,710 800,710 800,710 801,708 804,706 806,705 807,705 807,705 809,705 809,705 811,705 813,705 814,705 815,705 816,705 817,703 818,703 819,703 820,701 821,701 821,701 822,701 823,701 824,701 825,701 826,701 828,700 829,698 829,698 834,696 834,696 836,696 837,696 841,695 842,695 844,693 849,693 851,691 854,691 857,691 857,691 859,691 860,691 861,690 861,690 862,688 863,688 865,688 866,688 866,688 868,686 869,686 870,684 873,684 873,684 874,683 875,683 877,681 878,681 878,681 881,679 882,679 883,679 884,678 884,678 887,676 887,676 888,676 890,676 891,676 892,676 894,676 900,674 900,674 901,674 902,674 903,674 904,674 904,674 905,674 906,674 906,673 907,671 908,671 910,669 911,669 912,669 913,669 913,668 914,668 914,668 915,668 916,668 917,668 918,666 919,666 920,664 921,664 922,664 923,664 923,664 924,664 924,664 926,664 926,664 927,664 927,664 928,664 930,661 931,661 931,661 932,661 933,661 933,659 934,659 934,659 936,658 936,658 937,658 937,658 938,658 938,658 939,658 940,658 941,658 941,658 942,658 943,658 943,658 944,658 944,658 945,658 946,658 946,658 947,658 948,658 949,658 950,658 951,658 951,658 953,658 953,658 954,658 954,658 955,658 956,658 956,658 957,658 957,658 958,658 958,658 959,658 960,658 960,656 961,656 961,656 962,656 963,656 963,654 964,654 964,654 965,654 965,654 966,654 967,654 967,654 968,654 968,654 969,654 970,654 970,654 971,654 971,652 972,652 973,652 973,652 974,652 974,652 975,652 975,652 976,652 977,651 977,651 978,651 978,649 979,649 980,649 980,649 981,649 981,649 982,649 983,649 983,649 984,647 984,647 985,646 985,646 986,646 987,646 987,646 988,646 988,646 989,646 990,646 990,646 991,644 991,644 992,642 993,642 993,642 994,642 994,642 995,642 995,642 996,642 997,642 997,642 998,642 998,642 999,642 1000,642 1000,642 1001,642 1001,642 1002,642 1003,642 1003,641 1004,641 1004,641 1005,641 1005,641 1006,641 1007,641 1007,641 1008,641 1008,641 1009,641 1010,641 1010,641 1011,641 1011,641 1012,641 1013,641 1013,641 1014,641 1014,641 1015,641 1015,641 1016,641 1017,641 1017,641 1018,641 1018,641 1019,641 1020,641 1020,639 1021,639 1021,637 1022,637 1023,637 1023,637 1024,637 1024,637 1025,636 1025,636 1026,636 1027,636 1027,634 1028,634 1028,634 1029,634 1030,632 1030,632 1031,631 1031,631 1032,629 1033,629 1033,629 1034,629 1034,629 1035,627 1035,627 1036,629 1037,629 1037,626 1038,626 1038,624 1039,624 1040,626 1040,626 1041,626 1041,626 1042,626 1043,620 1043,620 1044,620 1044,620 1045,620 1045,620 1046,620 1047,620 1047,620 1048,619 1048,617 1049,617 1050,617 1050,617 1051,617 1051,617 1052,617 1053,617 1053,617 1054,617 1054,617 1055,617 1055,617 1056,617 1057,615 1057,615 1058,615 1058,615 1059,614 1060,614 1060,614 1061,614 1061,614 1062,614 1063,614 1063,610 1064,610 1064,609 1065,609 1065,609 1066,609 1067,609 1067,609 1068,607 1068,607 1069,607 1070,607 1070,605 1071,605 1071,604 1072,604 1073,604 1073,604 1073,604 1074,604 1074,604 1075,604 1075,604 1076,604 1077,604 1077,604 1078,604 1078,604 1079,604 1080,604 1080,604 1081,602 1081,602 1082,602 1082,602 1083,602 1084,600 1084,600 1085,599 1085,599 1086,599 1087,599 1087,595 1088,595 1088,595 1089,595 1090,595 1090,595 1091,595 1091,595 1092,595 1092,595 1093,595 1094,595 1094,595 1095,595 1095,595 1096,595 1097,595 1097,592 1098,592 1098,592 1099,592 1100,592 1100,592 1101,592 1101,592 1102,592 1102,592 1103,592 1104,592 1104,592 1105,592 1105,592 1106,590 1107,590 1107,590 1108,590 1108,590 1109,590 1110,592 1110,594 1111,594 1111,594 1112,594 1112,592 1113,592 1114,592 1114,592 1115,592 1115,590 1116,590 1117,590 1117,590 1118,588 1118,587 1119,587 1120,587 1120,587 1121,587 1121,587 1122,587 1122,587 1123,587 1124,585 1124,583 1125,583 1125,583 1126,582 1127,582 1127,580 1128,580 1128,580 1129,578 1130,577 1130,575 1131,575 1131,575 1132,573 1132,573 1133,573 1134,573 1134,573 1135,573 1135,573 1136,573 1137,573 1137,573 1138,573 1138,573 1139,570 1140,570 1140,568 1141,568 1141,568 1142,568 1142,567 1143,567 1144,567 1144,567 1145,567 1145,565 1146,560 1147,560 1147,562 1148,562 1148,558 1149,558 1150,558 1150,557 1151,557 1151,557 1152,557 1152,557 1153,557 1154,557 1154,558 1155,558 1155,558 1156,558 1156,555 1157,555 1157,555 1157,555 1158,555 1158,555 1158,555 1158,555 1159,555 1160,555 1160,555 1160,555 1160,555 1161,555 1161,555 1161,555 1161,555 1162,555 1162,553 1162,553 1162,553 1163,553 1163,550 1164,550 1164,550 1164,550 1164,550 1165,550 1165,550 1165,548 1166,548 1166,548 1167,548 1167,548 1167,548 1168,548 1168,546 1168,546 1168,546 1169,546 1169,546 1170,546 1170,546 1170,546 1170,546 1171,543 1171,543 1171,543 1172,543 1172,543 1172,543 1172,543 1173,543 1173,541 1174,541 1174,541 1174,541 1174,541 1175,541 1175,541 1175,541 1175,541 1176,541 1176,541 1177,541 1177,541 1177,541 1178,541 1178,541 1178,541 1178,541 1179,541 1179,541 1180,541 1180,541 1180,541 1180,541 1181,541 1181,541 1181,541 1181,541 1182,541 1182,541 1182,541 1182,540 1183,540 1183,540 1184,540 1184,540 1185,540 1185,538 1185,538 1185,538 1186,538 1186,538 1187,538 1187,538 1187,538 1187,538 1188,538 1188,536 1188,536 1188,536 1189,536 1189,536 1190,536 1190,536 "/>
<polyline fill="none" opacity="1" stroke="#19E5E6" stroke-width="2" points="60,738 83,737 99,735 105,733 108,732 109,727 112,725 117,723 119,723 119,723 120,723 122,727 125,727 125,725 127,725 127,725 129,723 129,718 131,718 132,718 133,718 134,718 135,718 136,718 137,718 138,716 138,716 139,715 141,715 141,715 143,715 144,715 145,715 145,715 147,715 147,715 148,715 149,715 151,713 151,713 152,713 154,713 154,713 155,713 156,711 157,711 158,711 158,711 161,711 162,711 162,711 163,711 164,711 164,710 165,710 165,705 166,705 167,705 168,705 168,705 169,705 171,705 171,705 172,705 172,705 173,705 175,705 175,705 176,705 178,705 178,705 179,705 179,705 180,705 181,705 181,705 182,705 183,705 184,705 185,705 186,705 187,705 188,703 188,703 190,703 191,703 192,703 192,703 193,703 194,703 194,703 196,703 196,703 197,703 198,701 198,701 199,701 199,701 200,701 201,701 202,701 202,701 203,701 204,701 204,701 205,701 205,701 206,701 206,701 207,700 208,700 208,700 209,700 209,700 210,700 211,700 211,700 212,700 213,700 214,700 215,700 216,700 217,700 218,700 218,698 219,698 220,698 221,695 221,695 222,695 223,695 224,695 224,693 225,693 225,693 226,693 226,693 227,693 228,691 228,691 229,691 229,691 230,691 231,691 231,691 232,691 232,691 233,691 234,691 234,691 235,691 235,691 236,691 236,691 237,690 238,690 239,690 240,690 241,690 241,690 242,690 244,690 244,690 245,690 246,690 247,690 248,688 248,688 249,686 250,686 251,686 251,686 252,684 252,684 253,684 254,684 255,684 255,684 256,684 256,684 258,684 258,684 259,684 259,684 260,684 261,684 261,684 262,684 262,683 263,683 264,683 265,681 265,681 266,681 266,681 267,681 268,681 268,681 269,681 269,681 270,681 271,681 271,681 272,683 272,681 273,681 274,681 274,681 275,681 276,681 276,681 277,679 278,678 278,678 279,678 279,678 280,678 281,676 281,676 282,676 282,676 283,676 284,676 284,676 285,676 285,676 286,676 286,676 287,676 288,676 288,676 289,676 289,676 290,676 291,676 291,676 292,676 292,676 293,676 293,676 294,676 295,676 295,676 296,676 296,676 297,676 298,676 298,676 299,676 299,676 300,676 301,676 301,676 302,676 302,676 303,676 303,676 304,676 305,676 305,676 306,676 306,676 307,676 308,676 308,676 309,676 309,676 310,676 311,676 311,674 312,673 312,673 313,673 313,671 314,671 315,671 315,671 316,669 316,669 317,669 318,669 318,669 319,669 319,669 320,669 321,669 321,669 322,669 322,669 323,668 323,668 324,666 325,666 325,664 326,663 326,663 327,663 328,663 329,663 329,663 330,663 331,663 331,663 332,663 332,663 333,663 333,663 334,663 335,663 335,663 336,663 336,663 337,663 338,663 338,663 339,663 339,663 340,663 341,663 341,663 342,663 342,663 343,663 343,663 344,661 345,659 345,659 346,659 346,659 347,659 348,659 348,658 349,658 349,658 350,658 351,658 351,658 352,658 352,658 353,658 353,658 354,658 355,658 356,659 356,659 357,659 358,659 358,659 359,659 359,659 360,659 361,658 361,658 362,658 362,658 363,658 363,658 364,658 365,658 365,658 366,658 366,658 367,656 368,656 368,656 369,656 369,656 370,656 371,656 371,656 372,656 372,656 373,656 373,656 374,656 375,656 375,656 376,656 376,656 377,656 378,656 378,656 379,656 379,656 380,656 381,656 381,656 382,656 382,656 383,656 383,656 384,656 385,656 385,654 386,652 386,651 387,651 388,651 388,651 389,651 389,651 390,651 391,651 391,651 392,651 392,651 393,651 393,651 394,651 395,651 395,651 396,651 396,651 397,651 398,651 398,651 399,651 399,651 400,651 400,649 401,649 402,649 402,649 403,649 403,649 404,647 405,647 405,647 406,647 406,647 407,647 408,647 408,647 409,647 409,647 410,644 410,644 411,644 412,644 412,642 413,642 413,642 414,641 415,641 415,641 416,641 416,641 417,641 418,641 418,641 419,641 419,641 420,641 420,641 421,641 422,641 422,641 423,641 424,641 425,641 425,641 426,641 426,641 427,641 428,641 428,641 429,642 429,642 430,642 430,642 431,642 432,642 432,642 433,642 433,642 434,642 435,642 435,642 436,642 436,642 437,642 438,642 438,642 439,644 439,644 440,644 440,644 441,644 442,644 442,644 443,644 443,644 444,644 445,644 445,642 446,642 446,642 447,642 448,642 448,642 449,641 449,641 450,642 450,642 451,642 452,642 452,641 453,641 453,641 454,639 455,639 455,639 456,637 456,637 457,637 458,636 458,636 459,634 459,636 460,636 460,636 461,634 462,634 462,634 463,634 463,632 464,632 465,632 465,632 466,632 466,632 467,632 468,632 468,629 469,629 469,629 470,629 470,629 471,629 472,631 472,631 473,629 473,629 474,629 475,629 475,629 476,629 476,629 477,629 478,629 478,629 479,629 479,629 480,629 480,629 481,629 482,627 482,627 483,627 483,626 484,624 485,624 485,624 486,624 486,624 487,624 488,624 488,624 489,622 489,624 490,624 490,624 491,624 492,624 492,624 493,624 493,624 494,624 495,624 495,624 496,624 496,624 497,624 498,624 498,622 499,622 499,622 500,622 500,622 501,622 502,622 502,622 503,622 503,622 504,622 505,622 505,622 506,620 506,620 507,620 508,619 508,617 509,617 509,614 510,614 510,614 511,614 512,614 512,614 513,614 513,614 514,614 515,612 515,612 516,612 516,612 517,612 517,612 518,612 519,612 519,612 520,612 520,612 521,612 522,612 522,612 523,612 523,612 524,612 525,612 525,610 526,610 526,609 527,609 527,609 528,609 529,609 529,607 530,607 530,607 531,605 532,604 532,604 533,604 533,604 534,604 535,604 535,604 536,604 536,604 537,604 537,604 538,604 539,604 539,604 540,604 540,604 541,600 542,600 542,600 543,600 543,600 544,600 545,600 545,599 546,599 546,599 547,599 547,599 548,599 549,599 549,599 550,599 550,599 551,599 552,599 552,599 553,599 553,599 554,599 555,599 555,599 556,599 556,599 557,599 557,599 558,599 559,599 559,599 560,599 560,599 561,599 562,599 562,599 563,599 563,599 564,599 565,599 565,599 566,599 566,599 567,599 567,599 568,599 569,599 569,597 570,597 570,595 571,595 572,595 572,595 573,594 573,594 574,594 575,594 575,594 576,594 576,594 577,594 577,594 578,594 579,592 579,592 580,588 580,587 581,587 582,587 582,587 583,587 583,587 584,587 585,587 585,587 586,587 586,585 587,585 587,585 588,585 589,585 589,585 590,582 590,582 591,582 592,582 592,582 593,582 593,582 594,582 595,582 595,582 596,582 596,582 597,582 597,582 598,582 599,582 599,582 600,582 600,582 601,582 602,582 602,582 603,580 603,580 604,580 605,580 605,580 606,578 606,578 607,578 607,578 608,578 609,578 609,578 610,578 610,578 611,578 612,578 612,578 613,577 613,577 614,577 615,577 615,577 616,575 616,577 617,577 617,577 618,577 619,577 619,577 620,577 620,577 621,577 622,577 622,577 623,577 623,577 624,577 625,577 625,577 626,577 626,577 627,577 627,577 628,577 629,577 629,577 630,577 630,577 631,577 632,577 632,577 633,577 633,577 634,577 634,577 635,577 636,577 636,577 637,577 637,575 638,575 639,577 639,577 640,577 640,577 641,577 642,577 642,577 643,577 643,577 644,577 644,577 646,577 646,577 647,577 647,577 648,577 649,577 649,577 650,577 650,577 651,577 652,577 652,577 653,577 653,578 654,578 654,578 655,578 656,578 656,578 657,578 657,578 658,578 659,578 659,578 660,578 660,578 661,577 662,577 662,577 663,577 663,577 664,577 664,577 665,575 666,575 666,575 667,575 667,573 668,573 669,573 669,573 670,573 670,573 671,573 672,573 672,573 673,573 673,573 674,573 674,573 675,573 676,573 676,573 677,573 677,573 678,573 679,573 679,573 680,572 680,572 681,572 682,572 682,572 683,572 683,572 684,572 684,572 685,572 686,572 686,572 687,572 687,572 688,572 689,572 689,572 690,572 690,572 691,572 692,572 692,568 693,568 693,568 694,568 694,560 695,560 696,560 696,560 697,560 697,560 698,560 699,560 699,560 700,560 700,560 701,560 702,560 702,560 703,560 703,557 704,557 704,557 705,557 706,557 706,557 707,557 707,557 708,557 709,557 709,557 710,557 710,557 711,557 712,558 712,558 713,558 713,558 714,558 714,558 715,558 716,558 716,558 717,558 717,558 718,558 719,558 719,558 720,558 720,558 721,558 722,557 722,557 723,557 723,557 724,557 724,557 725,555 726,555 726,555 727,555 727,555 728,555 729,555 729,555 730,555 730,553 731,553 732,553 732,553 733,553 733,553 734,553 734,553 735,553 736,553 736,553 737,553 737,553 738,553 739,550 739,550 740,550 740,550 741,550 741,550 742,550 743,548 743,548 744,548 744,548 745,548 746,548 746,546 747,546 747,546 748,546 749,546 749,546 750,546 750,546 751,546 751,546 752,543 753,541 753,541 754,540 754,540 755,540 756,540 756,540 757,538 757,538 758,538 759,538 759,538 760,538 760,538 761,538 761,538 762,538 763,538 763,538 764,538 764,538 765,538 766,548 766,548 767,548 767,548 768,548 769,548 769,548 770,546 770,546 771,546 771,546 772,546 773,546 773,546 774,546 774,545 775,545 776,545 776,545 777,545 777,545 778,545 779,545 779,545 780,545 780,545 781,545 781,545 782,545 783,545 783,545 784,545 784,545 785,545 786,545 786,545 787,545 787,545 788,545 789,545 789,545 790,545 790,545 791,546 791,546 792,546 793,546 793,546 794,546 794,546 795,546 796,546 796,546 797,546 797,546 798,546 799,546 799,546 800,546 800,546 801,546 801,546 802,546 803,546 803,546 804,546 804,546 805,546 806,546 806,546 807,546 807,546 808,545 809,545 809,545 810,545 810,545 811,545 811,545 812,545 813,543 813,543 814,543 814,543 815,543 816,543 816,543 817,543 817,543 818,543 819,543 819,543 820,543 820,543 821,543 821,543 822,543 823,543 823,543 824,543 824,543 825,543 826,543 826,543 827,543 827,543 828,541 829,541 829,541 830,541 830,541 831,541 831,541 832,541 833,541 833,541 834,541 834,541 835,541 836,541 836,541 837,541 837,541 838,541 839,541 839,541 840,541 840,540 841,540 841,540 842,540 843,540 843,538 844,538 844,538 845,538 846,538 846,538 846,538 847,538 847,538 848,538 849,538 849,538 850,536 850,536 851,536 851,535 852,535 853,535 853,535 854,535 854,535 855,535 856,535 856,535 857,535 857,535 858,535 858,535 859,535 860,535 860,535 861,535 861,535 862,535 863,535 863,531 864,531 864,531 865,531 866,531 866,531 867,530 867,530 868,528 868,528 869,528 870,528 870,528 871,528 871,528 872,528 873,528 873,528 874,528 874,528 875,528 876,528 876,528 877,528 877,528 878,528 878,528 879,528 880,528 880,528 881,528 881,528 882,528 883,528 883,528 884,528 884,528 885,528 886,528 886,528 887,528 887,528 888,528 888,528 889,528 890,528 890,528 891,528 891,526 892,526 893,528 893,528 894,528 894,528 895,526 896,526 896,526 897,526 897,526 898,526 898,526 899,526 900,526 900,526 901,523 901,523 902,523 903,523 903,523 904,525 904,525 905,526 906,526 906,526 907,526 907,526 908,528 909,528 910,526 910,526 911,526 911,526 912,526 913,526 913,526 914,526 914,526 915,526 916,526 916,525 917,525 917,525 918,525 918,525 919,523 920,523 920,523 921,523 921,523 922,523 923,523 923,523 924,523 924,523 925,525 926,525 926,525 927,525 927,525 928,525 928,525 929,525 930,525 930,525 931,525 931,525 932,525 933,525 933,525 934,525 934,525 935,525 936,525 936,525 937,525 937,525 938,525 938,525 939,525 940,525 940,525 941,525 941,525 942,526 943,526 943,526 944,526 944,526 945,525 946,525 946,526 947,526 947,526 948,525 948,525 949,525 950,525 950,525 951,525 951,525 952,523 953,523 953,523 954,523 954,523 955,523 956,523 956,523 957,523 957,523 958,523 958,523 959,523 960,523 960,523 961,523 961,523 962,523 963,523 963,523 964,523 964,523 965,523 965,523 966,521 967,521 967,521 968,521 968,521 969,521 970,521 970,521 971,521 971,521 972,521 973,521 973,521 974,521 974,521 975,521 975,521 976,521 977,521 977,521 978,521 978,521 979,521 980,521 980,521 981,521 981,521 982,521 983,519 983,519 984,519 984,519 985,519 985,519 986,519 987,519 987,519 988,519 988,519 989,519 990,519 990,521 991,521 991,519 992,519 993,519 993,519 994,519 994,519 995,519 995,518 996,518 997,518 997,518 998,518 998,518 999,518 1000,518 1000,518 1001,518 1001,518 1002,516 1003,516 1003,516 1004,516 1004,516 1005,516 1005,516 1006,516 1007,516 1007,516 1008,516 1008,516 1009,516 1010,516 1010,516 1011,516 1011,516 1012,516 1013,516 1013,518 1014,518 1014,518 1015,518 1015,518 1016,518 1017,518 1017,518 1018,519 1018,518 1019,518 1020,518 1020,518 1021,518 1021,518 1022,518 1023,518 1023,518 1024,518 1024,518 1025,518 1025,518 1026,518 1027,518 1027,518 1028,516 1028,516 1029,516 1030,516 1030,516 1031,516 1031,516 1032,516 1033,516 1033,514 1034,514 1034,514 1035,514 1035,516 1036,516 1037,516 1037,516 1038,516 1038,516 1039,516 1040,516 1040,516 1041,516 1041,516 1042,514 1043,514 1043,514 1044,514 1044,514 1045,514 1045,514 1046,514 1047,514 1047,513 1048,513 1048,513 1049,513 1050,513 1050,511 1051,511 1051,511 1052,511 1053,511 1053,511 1054,511 1054,511 1055,511 1055,511 1056,511 1057,511 1057,511 1058,511 1058,511 1059,511 1060,511 1060,511 1061,511 1061,511 1062,511 1063,511 1063,511 1064,511 1064,511 1065,511 1065,511 1066,511 1067,511 1067,511 1068,511 1068,511 1069,511 1070,511 1070,511 1071,511 1071,511 1072,511 1073,511 1073,511 1073,511 1074,511 1074,511 1075,511 1075,511 1076,511 1077,511 1077,511 1078,511 1078,511 1079,511 1080,511 1080,509 1081,509 1081,509 1082,509 1082,509 1083,509 1084,509 1084,509 1085,509 1085,509 1086,509 1087,509 1087,511 1088,511 1088,513 1089,513 1090,513 1090,513 1091,513 1091,513 1092,513 1092,513 1093,513 1094,513 1094,513 1095,513 1095,513 1096,513 1097,511 1097,509 1098,509 1098,509 1099,509 1100,509 1100,509 1101,509 1101,509 1102,509 1102,509 1103,509 1104,506 1104,506 1105,506 1105,501 1106,501 1107,501 1107,501 1108,501 1108,501 1109,501 1110,501 1110,501 1111,503 1111,503 1112,503 1112,503 1113,503 1114,503 1114,503 1115,503 1115,503 1116,503 1117,503 1117,503 1118,503 1118,503 1119,501 1120,498 1120,498 1121,498 1121,498 1122,498 1122,498 1123,498 1124,498 1124,498 1125,498 1125,498 1126,498 1127,498 1127,498 1128,498 1128,498 1129,498 1130,499 1130,499 1131,499 1131,499 1132,499 1132,499 1133,499 1134,499 1134,499 1135,499 1135,499 1136,499 1137,499 1137,499 1138,499 1138,499 1139,498 1140,498 1140,498 1141,496 1141,496 1142,496 1142,496 1143,496 1144,496 1144,496 1145,496 1145,496 1146,496 1147,496 1147,496 1148,496 1148,496 1149,496 1150,496 1150,498 1151,498 1151,498 1152,496 1152,496 1153,496 1154,496 1154,496 1155,496 1155,496 1156,496 1156,496 1157,496 1157,496 1157,496 1158,496 1158,496 1158,496 1158,496 1159,496 1160,496 1160,494 1160,494 1160,494 1161,494 1161,494 1161,494 1161,494 1162,494 1162,494 1162,494 1162,494 1163,494 1163,494 1164,494 1164,494 1164,494 1164,494 1165,494 1165,494 1165,494 1166,494 1166,494 1167,494 1167,494 1167,494 1168,494 1168,494 1168,494 1168,494 1169,494 1169,494 1170,494 1170,494 1170,494 1170,494 1171,494 1171,494 1171,494 1172,494 1172,494 1172,494 1172,494 1173,494 1173,494 1174,494 1174,494 1174,494 1174,494 1175,494 1175,494 1175,496 1175,496 1176,496 1176,496 1177,496 1177,496 1177,494 1178,494 1178,494 1178,494 1178,494 1179,494 1179,494 1180,494 1180,494 1180,494 1180,493 1181,493 1181,493 1181,493 1181,493 1182,493 1182,493 1182,493 1182,493 1183,493 1183,493 1184,494 1184,494 1185,494 1185,494 1185,494 1185,494 1186,494 1186,494 1187,494 1187,494 1187,494 1187,494 1188,494 1188,494 1188,494 1188,493 1189,493 1189,493 1190,493 1190,493 "/>
<polyline fill="none" opacity="1" stroke="#1919E6" stroke-width="2" points="450,738 511,737 562,735 585,733 592,732 607,730 608,728 609,728 609,727 610,727 611,727 613,725 616,723 617,723 618,723 619,723 619,723 621,723 622,723 622,723 623,723 623,723 624,723 625,723 625,723 626,723 627,723 630,723 632,723 633,723 633,723 634,723 635,723 636,723 637,723 638,723 639,723 640,723 640,723 641,723 642,723 642,723 643,723 644,723 644,723 645,723 646,723 646,723 647,723 647,723 648,723 650,723 650,723 653,723 653,723 655,723 656,723 657,723 659,723 660,723 661,720 662,720 664,720 664,720 665,720 666,720 666,720 667,720 670,720 670,720 672,720 673,720 673,720 674,718 676,718 676,718 677,718 677,718 678,718 679,718 679,718 680,718 680,718 681,718 682,716 684,716 685,716 686,716 687,716 687,716 688,716 689,716 689,716 690,716 690,716 691,716 692,716 692,716 693,716 693,716 694,716 695,716 696,716 697,716 697,716 698,716 699,716 700,716 700,716 701,716 702,716 703,716 703,716 704,716 704,716 706,716 706,716 707,716 708,716 709,716 709,716 710,716 710,716 711,716 712,716 712,716 713,716 713,716 714,715 714,715 716,713 717,713 717,713 718,713 719,713 719,713 720,713 720,713 721,713 722,713 722,713 723,713 723,713 724,713 724,713 726,713 726,713 727,713 728,713 729,713 729,713 730,713 730,713 731,713 732,711 732,711 733,711 733,711 734,710 734,710 735,710 736,710 736,710 737,710 737,710 738,710 739,710 739,710 740,710 740,710 741,710 741,710 742,710 743,710 743,710 744,710 744,710 745,710 746,710 746,710 747,710 747,710 748,710 749,710 749,710 750,708 750,706 751,705 751,705 753,705 754,705 754,705 755,705 756,705 756,705 757,705 757,705 758,705 759,705 759,705 760,705 760,705 761,705 761,705 763,705 763,705 764,705 764,705 765,705 766,705 766,705 767,705 767,705 768,703 769,703 769,703 770,703 770,703 771,703 771,703 772,701 773,701 773,701 774,701 774,701 775,701 776,700 776,700 777,700 777,700 778,700 779,700 779,700 780,700 780,700 781,700 781,700 782,700 783,700 783,700 784,700 784,700 785,700 786,698 786,698 787,698 787,698 788,698 789,698 789,698 790,698 790,698 791,698 791,698 792,698 793,698 793,698 794,698 794,698 795,696 796,696 796,696 797,696 797,695 798,695 799,695 799,695 800,695 800,695 801,695 801,695 802,695 803,695 803,695 804,695 804,695 805,695 806,695 806,695 807,695 807,695 808,693 809,693 809,693 810,693 810,693 811,693 811,693 812,693 813,691 813,691 814,691 814,691 815,691 816,691 816,691 817,691 817,690 818,690 819,690 819,690 820,690 820,690 821,690 821,690 822,690 823,688 823,688 824,688 824,684 825,684 826,684 826,684 827,684 827,684 828,684 829,684 829,684 830,684 830,684 831,684 831,684 832,684 833,684 833,684 834,683 834,683 836,683 836,683 837,683 837,683 838,683 839,683 839,683 840,683 840,683 841,683 841,683 842,683 843,683 843,683 844,683 844,681 845,681 846,681 846,681 846,681 847,681 847,681 848,681 849,681 849,681 850,681 850,681 851,681 851,681 852,681 853,681 853,681 854,681 854,681 855,681 856,679 856,679 857,679 857,679 858,679 858,679 859,679 860,679 860,679 861,678 861,678 862,678 863,678 863,678 864,678 864,678 865,678 866,678 866,678 867,678 867,678 868,676 868,676 869,678 870,678 870,678 871,678 871,678 872,678 873,678 873,676 874,676 874,674 875,674 876,674 876,674 877,674 877,674 878,674 878,674 879,674 880,674 880,674 881,674 881,674 882,674 883,674 883,674 884,674 884,674 885,674 886,674 886,674 887,674 887,674 888,674 888,674 889,674 890,674 890,674 891,674 891,674 892,674 893,674 893,674 894,674 894,674 895,674 896,674 896,674 897,674 897,674 898,674 898,674 899,674 900,674 900,674 901,674 902,674 903,674 903,674 904,674 904,673 905,673 906,673 906,671 907,671 907,671 908,669 908,669 909,669 910,668 910,668 911,668 911,664 912,663 913,661 913,661 914,661 914,661 915,661 916,661 916,661 917,661 917,659 918,659 918,658 919,658 920,658 920,658 921,656 921,656 922,656 923,656 923,656 924,656 924,656 925,654 926,654 926,654 927,654 927,654 928,654 928,654 929,652 930,652 930,652 931,652 931,652 932,654 933,654 933,654 934,654 934,654 935,654 936,654 936,654 937,654 937,654 938,654 938,654 939,654 940,654 940,654 941,654 941,654 942,654 943,652 943,652 944,652 944,651 945,651 946,651 946,651 947,651 947,647 948,647 948,647 949,647 950,647 950,647 951,647 951,647 952,647 953,647 953,647 954,647 954,647 955,647 956,647 956,647 957,647 957,647 958,647 958,647 959,647 960,647 960,647 961,647 961,647 962,647 963,647 963,647 964,647 964,647 965,647 965,647 966,647 967,647 967,647 968,647 968,646 969,646 970,646 970,646 971,646 971,644 972,644 973,644 973,642 974,642 974,641 975,639 975,639 976,639 977,637 977,637 978,637 978,637 979,636 980,634 980,634 981,634 981,634 982,634 983,632 984,632 984,632 985,632 985,632 986,632 987,632 987,632 988,632 988,632 989,632 990,632 990,631 991,631 991,631 992,631 993,631 993,631 994,631 994,631 995,631 995,631 996,629 997,629 997,629 998,629 998,629 999,627 1000,627 1000,627 1001,627 1001,627 1002,624 1003,624 1003,624 1004,626 1004,626 1005,626 1005,626 1006,626 1007,626 1007,626 1008,626 1008,626 1009,626 1010,626 1010,626 1011,626 1011,626 1012,626 1013,626 1013,626 1014,626 1014,624 1015,622 1015,619 1016,619 1017,619 1017,619 1018,617 1018,617 1019,617 1020,617 1020,617 1021,617 1021,617 1022,617 1023,617 1023,617 1024,617 1024,617 1025,615 1025,615 1026,614 1027,614 1027,614 1028,614 1028,614 1029,614 1030,614 1030,614 1031,614 1031,614 1032,614 1033,614 1033,614 1034,614 1034,612 1035,612 1035,612 1036,612 1037,614 1037,614 1038,614 1038,614 1039,614 1040,614 1040,614 1041,614 1041,614 1042,614 1043,614 1043,614 1044,614 1044,614 1045,614 1045,614 1046,614 1047,614 1047,612 1048,612 1048,612 1049,612 1050,612 1050,612 1051,612 1051,609 1052,609 1053,609 1053,609 1054,607 1054,607 1055,607 1055,607 1056,605 1057,605 1057,605 1058,605 1058,605 1059,605 1060,604 1060,602 1061,602 1061,602 1062,602 1063,602 1063,602 1064,602 1064,602 1065,602 1065,602 1066,602 1067,602 1067,602 1068,602 1068,602 1069,602 1070,602 1070,602 1071,602 1071,600 1072,600 1073,599 1073,599 1073,599 1074,597 1074,595 1075,595 1075,595 1076,595 1077,595 1077,594 1078,594 1078,594 1079,594 1080,594 1080,594 1081,592 1081,592 1082,592 1082,592 1083,592 1084,592 1084,592 1085,592 1085,588 1086,588 1087,588 1087,588 1088,588 1088,587 1089,587 1090,587 1090,587 1091,587 1091,587 1092,587 1092,587 1093,587 1094,587 1094,587 1095,587 1095,585 1096,585 1097,585 1097,582 1098,582 1098,582 1099,582 1100,582 1100,580 1101,580 1101,580 1102,580 1102,580 1103,580 1104,580 1104,580 1105,580 1105,580 1106,580 1107,580 1107,580 1108,580 1108,580 1109,578 1110,578 1110,578 1111,578 1111,578 1112,578 1112,578 1113,578 1114,578 1114,578 1115,578 1115,578 1116,578 1117,578 1117,578 1118,578 1118,578 1119,578 1120,578 1120,578 1121,578 1121,578 1122,578 1122,577 1123,577 1124,577 1124,577 1125,577 1125,577 1126,577 1127,575 1127,577 1128,577 1128,577 1129,577 1130,577 1130,575 1131,575 1131,575 1132,575 1132,575 1133,573 1134,573 1134,572 1135,572 1135,572 1136,572 1137,572 1137,572 1138,572 1138,570 1139,570 1140,570 1140,570 1141,568 1141,568 1142,568 1142,568 1143,568 1144,568 1144,568 1145,568 1145,568 1146,568 1147,568 1147,568 1148,568 1148,567 1149,567 1150,565 1150,565 1151,565 1151,567 1152,567 1152,567 1153,567 1154,567 1154,565 1155,565 1155,565 1156,565 1156,563 1157,563 1157,560 1157,560 1158,560 1158,560 1158,560 1158,558 1159,558 1160,558 1160,558 1160,558 1160,558 1161,558 1161,558 1161,558 1161,558 1162,558 1162,558 1162,558 1162,558 1163,558 1163,557 1164,557 1164,557 1164,557 1164,557 1165,557 1165,557 1165,557 1166,557 1166,555 1167,555 1167,555 1167,555 1168,555 1168,555 1168,555 1168,555 1169,555 1169,555 1170,555 1170,555 1170,555 1170,555 1171,555 1171,555 1171,553 1172,553 1172,553 1172,553 1172,553 1173,553 1173,553 1174,553 1174,553 1174,553 1174,553 1175,553 1175,553 1175,553 1175,551 1176,551 1176,551 1177,551 1177,551 1177,551 1178,551 1178,551 1178,551 1178,551 1179,551 1179,550 1180,550 1180,550 1180,550 1180,550 1181,550 1181,550 1181,550 1181,550 1182,550 1182,550 1182,550 1182,550 1183,550 1183,551 1184,551 1184,551 1185,551 1185,548 1185,548 1185,545 1186,545 1186,545 1187,545 1187,545 1187,545 1187,543 1188,543 1188,543 1188,543 1188,543 1189,543 1189,545 1190,545 1190,545 "/>
<polyline fill="none" opacity="1" stroke="#E519E6" stroke-width="2" points="379,738 408,737 425,735 432,733 441,732 442,730 442,728 449,727 450,725 465,725 468,723 473,721 476,720 479,720 488,718 492,720 494,720 496,720 498,720 498,718 499,718 499,718 500,718 500,718 502,718 503,718 506,718 508,718 508,718 509,718 509,716 512,715 515,715 515,715 517,715 517,715 519,715 519,713 520,713 520,713 532,711 535,711 535,711 537,711 537,711 538,710 539,710 539,710 541,710 542,710 543,710 543,710 544,708 545,708 545,708 546,708 547,708 547,708 550,706 552,706 552,705 553,705 554,705 558,705 559,705 560,703 563,701 565,701 565,701 567,701 569,701 570,701 570,701 571,701 572,701 573,701 575,701 576,701 577,701 578,701 579,701 583,701 584,701 585,701 586,701 587,701 589,700 590,700 590,700 592,700 593,700 593,700 594,700 599,700 600,700 600,698 601,698 602,698 603,698 604,698 605,698 606,698 607,698 608,698 609,698 609,698 611,698 612,696 614,696 615,696 616,696 617,696 619,696 619,696 620,696 620,695 621,695 622,695 622,695 623,695 624,695 625,693 625,693 628,693 629,691 629,691 630,690 630,690 631,690 632,690 633,690 633,690 634,688 634,686 635,686 636,686 636,686 637,686 637,686 638,686 639,686 639,686 640,686 640,686 641,686 642,686 642,686 643,686 643,686 644,686 644,686 645,686 646,686 646,686 647,686 648,686 649,686 649,686 650,686 650,686 651,686 652,686 652,686 653,686 653,686 654,686 654,686 655,686 656,684 656,684 657,684 657,684 658,684 659,684 659,684 660,684 660,684 661,684 662,684 662,684 663,684 663,684 664,683 664,683 665,683 666,683 666,683 667,681 667,681 668,681 669,681 669,681 670,681 670,681 671,681 672,681 672,681 673,681 673,679 674,679 674,679 675,679 676,679 676,679 677,679 677,679 678,679 679,679 679,679 680,679 680,679 681,679 682,679 682,679 683,679 683,676 684,676 684,676 685,676 686,674 686,671 687,671 687,671 688,671 689,671 689,669 690,669 690,669 691,669 692,669 692,669 693,669 693,669 694,669 694,669 695,669 696,669 696,668 697,668 697,668 698,668 699,668 699,664 700,664 700,664 701,664 702,664 702,664 703,664 703,663 704,663 704,663 705,663 706,663 706,663 707,661 707,663 708,663 709,663 709,663 710,663 710,663 711,663 712,663 712,663 713,664 713,664 714,664 714,664 715,664 716,664 716,664 717,664 717,664 718,664 719,664 719,664 720,664 720,664 721,664 722,664 722,661 723,661 723,661 724,661 724,661 725,661 726,661 726,661 727,661 727,661 728,661 729,661 729,661 730,661 730,659 731,659 732,659 732,659 733,659 733,659 734,659 734,659 735,659 736,659 736,659 737,658 737,658 738,658 739,658 739,658 740,658 740,656 741,656 741,656 742,656 743,656 743,656 744,656 744,656 745,656 746,656 746,656 747,658 747,658 748,658 749,658 749,658 750,658 750,658 751,658 751,658 752,658 753,659 753,659 754,659 754,659 755,659 756,659 756,659 757,659 757,659 758,659 759,659 759,659 760,659 760,659 761,659 761,658 762,658 763,658 763,658 764,656 764,656 765,656 766,656 766,656 767,656 767,656 768,656 769,656 769,656 770,654 770,654 771,654 771,654 772,654 773,654 773,652 774,651 774,651 775,651 776,651 776,651 777,651 777,651 778,651 779,649 779,649 780,647 780,647 781,649 781,649 782,649 783,649 783,649 784,649 784,647 785,647 786,647 786,647 787,647 787,647 788,647 789,647 789,647 790,647 790,647 791,647 791,647 792,647 793,647 793,647 794,647 794,647 795,647 796,647 796,647 797,647 797,649 798,649 799,649 799,649 800,649 800,649 801,649 801,649 802,649 803,649 803,649 804,649 804,649 805,649 806,649 806,649 807,649 807,649 808,649 809,649 809,649 810,647 811,647 811,647 812,647 813,647 813,647 814,647 814,647 815,646 816,646 816,646 817,646 817,646 818,646 819,646 819,646 820,646 820,646 821,646 821,646 822,646 823,646 823,646 824,646 824,646 825,646 826,644 826,644 827,644 827,644 828,644 829,644 829,644 830,644 830,644 831,644 831,644 832,644 833,644 833,642 834,642 834,642 835,642 836,642 836,642 837,642 837,642 838,642 839,642 839,642 840,642 840,642 841,641 841,641 842,639 843,639 843,639 844,637 844,636 845,636 846,636 846,636 846,636 847,636 847,636 848,636 849,634 849,634 850,634 850,634 851,634 851,634 852,634 853,634 853,634 854,634 854,634 855,634 856,634 856,634 857,634 857,632 858,632 858,632 859,632 860,632 860,632 861,632 861,632 862,632 863,631 863,631 864,631 864,631 865,631 866,632 866,632 867,632 867,632 868,632 868,632 869,632 870,632 870,632 871,632 871,632 872,632 873,632 873,632 874,632 874,632 875,632 876,632 876,632 877,632 877,632 878,632 878,632 879,632 880,632 880,632 881,632 881,632 882,632 883,632 883,632 884,632 884,632 885,632 886,632 886,632 887,632 887,631 888,631 888,629 889,629 890,629 890,627 891,627 891,627 892,627 893,627 893,627 894,626 894,626 895,626 896,624 896,624 897,624 897,624 898,624 898,624 899,624 900,624 900,624 901,624 901,624 902,622 903,624 903,622 904,622 904,622 905,622 906,620 906,620 907,617 907,617 908,617 908,617 909,617 910,617 910,617 911,617 911,617 912,617 913,617 913,617 914,617 914,617 915,617 916,615 916,615 917,615 917,615 918,615 918,615 919,615 920,614 920,614 921,614 921,612 922,612 923,610 923,610 924,610 924,610 925,610 926,609 926,609 927,609 927,609 928,609 928,609 929,609 930,609 930,609 931,609 931,609 932,609 933,607 933,604 934,604 934,604 935,600 936,600 936,600 937,600 937,600 938,600 938,599 939,597 940,595 940,595 941,595 941,592 942,594 943,594 943,594 944,592 944,592 945,590 946,590 946,590 947,590 947,590 948,590 948,590 949,590 950,590 950,590 951,590 951,588 952,588 953,587 953,585 954,583 954,583 955,583 956,580 956,580 957,580 957,580 958,580 958,580 959,582 960,580 960,580 961,580 961,580 962,580 963,580 963,580 964,580 964,580 965,580 965,578 966,578 967,578 967,578 968,578 968,578 969,578 970,578 970,578 971,578 971,578 972,578 973,578 973,578 974,578 974,578 975,578 975,578 976,578 977,578 977,578 978,578 978,578 979,578 980,578 980,577 981,575 981,575 982,573 983,573 983,573 984,573 984,572 985,572 985,572 986,572 987,572 987,572 988,572 988,572 989,572 990,570 990,570 991,570 991,570 992,568 993,568 993,567 994,567 994,567 995,567 995,567 996,567 997,565 997,565 998,563 998,563 999,563 1000,563 1000,563 1001,563 1001,563 1002,563 1003,563 1003,565 1004,565 1004,565 1005,565 1005,565 1006,565 1007,565 1007,565 1008,565 1008,565 1009,565 1010,562 1010,562 1011,560 1011,560 1012,560 1013,560 1013,560 1014,560 1014,560 1015,560 1015,562 1016,560 1017,560 1017,560 1018,560 1018,558 1019,558 1020,558 1020,558 1021,558 1021,558 1022,557 1023,557 1023,557 1024,555 1024,555 1025,555 1025,555 1026,555 1027,555 1027,555 1028,555 1028,555 1029,555 1030,555 1030,555 1031,555 1032,553 1033,553 1033,553 1034,553 1034,553 1035,553 1035,553 1036,551 1037,551 1038,551 1038,551 1039,551 1040,551 1041,551 1041,550 1042,550 1043,550 1043,550 1044,548 1044,548 1045,548 1046,546 1047,546 1047,545 1048,543 1048,543 1049,543 1050,543 1050,541 1051,541 1051,541 1052,541 1053,541 1053,541 1054,541 1054,541 1055,541 1055,540 1056,540 1057,540 1057,540 1058,540 1058,540 1059,540 1060,538 1060,538 1061,538 1061,538 1062,538 1063,535 1063,535 1064,535 1064,535 1065,535 1065,535 1066,533 1067,531 1067,531 1068,531 1068,530 1069,528 1070,528 1070,528 1071,526 1071,523 1072,523 1073,523 1073,523 1073,521 1074,519 1074,519 1075,519 1076,518 1077,518 1077,518 1078,513 1078,513 1079,511 1080,511 1080,511 1081,511 1081,511 1082,511 1082,511 1083,511 1084,509 1084,509 1085,508 1085,508 1086,508 1087,506 1087,506 1088,506 1088,506 1089,503 1090,503 1090,499 1091,499 1091,498 1092,496 1092,494 1093,494 1094,494 1094,494 1095,491 1095,491 1096,491 1097,491 1097,489 1098,489 1098,487 1099,487 1100,487 1100,487 1101,487 1101,487 1102,487 1102,487 1103,487 1104,487 1104,487 1105,487 1105,487 1106,486 1107,484 1107,484 1108,484 1108,481 1109,479 1110,476 1110,474 1111,472 1111,472 1112,471 1112,472 1113,467 1114,467 1114,467 1115,467 1115,467 1117,464 1117,462 1118,462 1118,462 1119,462 1120,462 1120,461 1121,461 1121,461 1122,459 1122,459 1123,459 1124,459 1124,459 1125,459 1125,455 1126,455 1127,454 1127,452 1128,452 1128,450 1129,450 1130,450 1130,452 1131,454 1131,452 1132,449 1132,450 1133,450 1134,450 1134,450 1135,450 1135,449 1136,449 1137,449 1137,449 1138,445 1138,445 1139,440 1140,440 1140,440 1141,442 1141,442 1142,442 1142,442 1143,442 1144,442 1144,442 1145,437 1145,437 1146,437 1147,437 1147,437 1148,435 1148,435 1149,435 1150,435 1150,435 1151,434 1151,434 1152,432 1152,432 1153,432 1154,432 1154,434 1155,434 1155,434 1156,434 1156,434 1157,434 1157,434 1157,434 1158,432 1158,432 1158,432 1158,432 1159,432 1160,432 1160,432 1160,432 1160,432 1161,432 1161,432 1161,432 1161,429 1162,429 1162,429 1162,429 1162,425 1163,425 1163,425 1164,425 1164,425 1164,425 1164,425 1165,425 1165,425 1165,425 1166,425 1166,425 1167,425 1167,425 1167,425 1168,425 1168,424 1168,424 1168,422 1169,422 1169,422 1170,422 1170,422 1170,422 1170,422 1171,418 1171,418 1171,418 1172,418 1172,418 1172,418 1172,415 1173,415 1173,413 1174,413 1174,415 1174,415 1174,415 1175,415 1175,415 1175,415 1175,415 1176,415 1176,415 1177,415 1177,415 1177,415 1178,415 1178,413 1178,413 1178,415 1179,415 1179,417 1180,417 1180,415 1180,415 1180,415 1181,415 1181,415 1181,415 1181,415 1182,415 1182,412 1182,412 1182,412 1183,412 1183,412 1184,412 1184,410 1185,410 1185,410 1185,410 1185,410 1186,410 1186,410 1187,410 1187,410 1187,410 1187,408 1188,408 1188,408 1188,408 1188,407 1189,407 1189,407 1190,407 1190,407 "/>
<rect x="1085" y="323" width="100" height="104" opacity="1" fill="#FFFFFF" stroke="none"/>
<rect x="1085" y="323" width="100" height="104" opacity="1" fill="none" stroke="#000000"/>
<text x="1125" y="333" dy="0.76em" text-anchor="start" font-family="sans-serif" font-size="9.67741935483871" opacity="1" fill="#000000">
ansi_term
</text>
<text x="1125" y="348" dy="0.76em" text-anchor="start" font-family="sans-serif" font-size="9.67741935483871" opacity="1" fill="#000000">
colored
</text>
<text x="1125" y="363" dy="0.76em" text-anchor="start" font-family="sans-serif" font-size="9.67741935483871" opacity="1" fill="#000000">
console
</text>
<text x="1125" y="378" dy="0.76em" text-anchor="start" font-family="sans-serif" font-size="9.67741935483871" opacity="1" fill="#000000">
term
</text>
<text x="1125" y="393" dy="0.76em" text-anchor="start" font-family="sans-serif" font-size="9.67741935483871" opacity="1" fill="#000000">
termcolor
</text>
<text x="1125" y="408" dy="0.76em" text-anchor="start" font-family="sans-serif" font-size="9.67741935483871" opacity="1" fill="#000000">
termion
</text>
<polyline fill="none" opacity="1" stroke="#E61919" stroke-width="2" points="1095,338 1115,338 "/>
<polyline fill="none" opacity="1" stroke="#E5E619" stroke-width="2" points="1095,352 1115,352 "/>
<polyline fill="none" opacity="1" stroke="#19E619" stroke-width="2" points="1095,367 1115,367 "/>
<polyline fill="none" opacity="1" stroke="#19E5E6" stroke-width="2" points="1095,382 1115,382 "/>
<polyline fill="none" opacity="1" stroke="#1919E6" stroke-width="2" points="1095,397 1115,397 "/>
<polyline fill="none" opacity="1" stroke="#E519E6" stroke-width="2" points="1095,412 1115,412 "/>
</svg>
