<svg width="1200" height="800" viewBox="0 0 1200 800" xmlns="http://www.w3.org/2000/svg">
<rect x="0" y="0" width="1199" height="799" opacity="1" fill="#FFFFFF" stroke="none"/>
<line opacity="0.1" stroke="#000000" stroke-width="1" x1="60" y1="733" x2="1190" y2="733"/>
<line opacity="0.1" stroke="#000000" stroke-width="1" x1="60" y1="721" x2="1190" y2="721"/>
<line opacity="0.1" stroke="#000000" stroke-width="1" x1="60" y1="710" x2="1190" y2="710"/>
<line opacity="0.1" stroke="#000000" stroke-width="1" x1="60" y1="698" x2="1190" y2="698"/>
<line opacity="0.1" stroke="#000000" stroke-width="1" x1="60" y1="687" x2="1190" y2="687"/>
<line opacity="0.1" stroke="#000000" stroke-width="1" x1="60" y1="676" x2="1190" y2="676"/>
<line opacity="0.1" stroke="#000000" stroke-width="1" x1="60" y1="664" x2="1190" y2="664"/>
<line opacity="0.1" stroke="#000000" stroke-width="1" x1="60" y1="653" x2="1190" y2="653"/>
<line opacity="0.1" stroke="#000000" stroke-width="1" x1="60" y1="641" x2="1190" y2="641"/>
<line opacity="0.1" stroke="#000000" stroke-width="1" x1="60" y1="630" x2="1190" y2="630"/>
<line opacity="0.1" stroke="#000000" stroke-width="1" x1="60" y1="619" x2="1190" y2="619"/>
<line opacity="0.1" stroke="#000000" stroke-width="1" x1="60" y1="607" x2="1190" y2="607"/>
<line opacity="0.1" stroke="#000000" stroke-width="1" x1="60" y1="596" x2="1190" y2="596"/>
<line opacity="0.1" stroke="#000000" stroke-width="1" x1="60" y1="584" x2="1190" y2="584"/>
<line opacity="0.1" stroke="#000000" stroke-width="1" x1="60" y1="573" x2="1190" y2="573"/>
<line opacity="0.1" stroke="#000000" stroke-width="1" x1="60" y1="562" x2="1190" y2="562"/>
<line opacity="0.1" stroke="#000000" stroke-width="1" x1="60" y1="550" x2="1190" y2="550"/>
<line opacity="0.1" stroke="#000000" stroke-width="1" x1="60" y1="539" x2="1190" y2="539"/>
<line opacity="0.1" stroke="#000000" stroke-width="1" x1="60" y1="527" x2="1190" y2="527"/>
<line opacity="0.1" stroke="#000000" stroke-width="1" x1="60" y1="516" x2="1190" y2="516"/>
<line opacity="0.1" stroke="#000000" stroke-width="1" x1="60" y1="504" x2="1190" y2="504"/>
<line opacity="0.1" stroke="#000000" stroke-width="1" x1="60" y1="493" x2="1190" y2="493"/>
<line opacity="0.1" stroke="#000000" stroke-width="1" x1="60" y1="482" x2="1190" y2="482"/>
<line opacity="0.1" stroke="#000000" stroke-width="1" x1="60" y1="470" x2="1190" y2="470"/>
<line opacity="0.1" stroke="#000000" stroke-width="1" x1="60" y1="459" x2="1190" y2="459"/>
<line opacity="0.1" stroke="#000000" stroke-width="1" x1="60" y1="447" x2="1190" y2="447"/>
<line opacity="0.1" stroke="#000000" stroke-width="1" x1="60" y1="436" x2="1190" y2="436"/>
<line opacity="0.1" stroke="#000000" stroke-width="1" x1="60" y1="425" x2="1190" y2="425"/>
<line opacity="0.1" stroke="#000000" stroke-width="1" x1="60" y1="413" x2="1190" y2="413"/>
<line opacity="0.1" stroke="#000000" stroke-width="1" x1="60" y1="402" x2="1190" y2="402"/>
<line opacity="0.1" stroke="#000000" stroke-width="1" x1="60" y1="390" x2="1190" y2="390"/>
<line opacity="0.1" stroke="#000000" stroke-width="1" x1="60" y1="379" x2="1190" y2="379"/>
<line opacity="0.1" stroke="#000000" stroke-width="1" x1="60" y1="368" x2="1190" y2="368"/>
<line opacity="0.1" stroke="#000000" stroke-width="1" x1="60" y1="356" x2="1190" y2="356"/>
<line opacity="0.1" stroke="#000000" stroke-width="1" x1="60" y1="345" x2="1190" y2="345"/>
<line opacity="0.1" stroke="#000000" stroke-width="1" x1="60" y1="333" x2="1190" y2="333"/>
<line opacity="0.1" stroke="#000000" stroke-width="1" x1="60" y1="322" x2="1190" y2="322"/>
<line opacity="0.1" stroke="#000000" stroke-width="1" x1="60" y1="311" x2="1190" y2="311"/>
<line opacity="0.1" stroke="#000000" stroke-width="1" x1="60" y1="299" x2="1190" y2="299"/>
<line opacity="0.1" stroke="#000000" stroke-width="1" x1="60" y1="288" x2="1190" y2="288"/>
<line opacity="0.1" stroke="#000000" stroke-width="1" x1="60" y1="276" x2="1190" y2="276"/>
<line opacity="0.1" stroke="#000000" stroke-width="1" x1="60" y1="265" x2="1190" y2="265"/>
<line opacity="0.1" stroke="#000000" stroke-width="1" x1="60" y1="254" x2="1190" y2="254"/>
<line opacity="0.1" stroke="#000000" stroke-width="1" x1="60" y1="242" x2="1190" y2="242"/>
<line opacity="0.1" stroke="#000000" stroke-width="1" x1="60" y1="231" x2="1190" y2="231"/>
<line opacity="0.1" stroke="#000000" stroke-width="1" x1="60" y1="219" x2="1190" y2="219"/>
<line opacity="0.1" stroke="#000000" stroke-width="1" x1="60" y1="208" x2="1190" y2="208"/>
<line opacity="0.1" stroke="#000000" stroke-width="1" x1="60" y1="196" x2="1190" y2="196"/>
<line opacity="0.1" stroke="#000000" stroke-width="1" x1="60" y1="185" x2="1190" y2="185"/>
<line opacity="0.1" stroke="#000000" stroke-width="1" x1="60" y1="174" x2="1190" y2="174"/>
<line opacity="0.1" stroke="#000000" stroke-width="1" x1="60" y1="162" x2="1190" y2="162"/>
<line opacity="0.1" stroke="#000000" stroke-width="1" x1="60" y1="151" x2="1190" y2="151"/>
<line opacity="0.1" stroke="#000000" stroke-width="1" x1="60" y1="139" x2="1190" y2="139"/>
<line opacity="0.1" stroke="#000000" stroke-width="1" x1="60" y1="128" x2="1190" y2="128"/>
<line opacity="0.1" stroke="#000000" stroke-width="1" x1="60" y1="117" x2="1190" y2="117"/>
<line opacity="0.1" stroke="#000000" stroke-width="1" x1="60" y1="105" x2="1190" y2="105"/>
<line opacity="0.1" stroke="#000000" stroke-width="1" x1="60" y1="94" x2="1190" y2="94"/>
<line opacity="0.1" stroke="#000000" stroke-width="1" x1="60" y1="82" x2="1190" y2="82"/>
<line opacity="0.1" stroke="#000000" stroke-width="1" x1="60" y1="71" x2="1190" y2="71"/>
<line opacity="0.1" stroke="#000000" stroke-width="1" x1="60" y1="60" x2="1190" y2="60"/>
<line opacity="0.1" stroke="#000000" stroke-width="1" x1="60" y1="48" x2="1190" y2="48"/>
<line opacity="0.1" stroke="#000000" stroke-width="1" x1="60" y1="37" x2="1190" y2="37"/>
<line opacity="0.1" stroke="#000000" stroke-width="1" x1="60" y1="25" x2="1190" y2="25"/>
<line opacity="0.1" stroke="#000000" stroke-width="1" x1="60" y1="14" x2="1190" y2="14"/>
<text x="10" y="375" dy="0.76em" text-anchor="middle" font-family="sans-serif" font-size="9.67741935483871" opacity="1" fill="#000000" transform="rotate(270, 10, 375)">
Fraction of dependent crates
</text>
<line opacity="0.2" stroke="#000000" stroke-width="1" x1="60" y1="630" x2="1190" y2="630"/>
<line opacity="0.2" stroke="#000000" stroke-width="1" x1="60" y1="516" x2="1190" y2="516"/>
<line opacity="0.2" stroke="#000000" stroke-width="1" x1="60" y1="402" x2="1190" y2="402"/>
<line opacity="0.2" stroke="#000000" stroke-width="1" x1="60" y1="288" x2="1190" y2="288"/>
<line opacity="0.2" stroke="#000000" stroke-width="1" x1="60" y1="174" x2="1190" y2="174"/>
<line opacity="0.2" stroke="#000000" stroke-width="1" x1="60" y1="60" x2="1190" y2="60"/>
<polyline fill="none" opacity="1" stroke="#000000" stroke-width="1" points="59,10 59,740 "/>
<text x="50" y="630" dy="0.5ex" text-anchor="end" font-family="sans-serif" font-size="9.67741935483871" opacity="1" fill="#000000">
0.002
</text>
<polyline fill="none" opacity="1" stroke="#000000" stroke-width="1" points="54,630 59,630 "/>
<text x="50" y="516" dy="0.5ex" text-anchor="end" font-family="sans-serif" font-size="9.67741935483871" opacity="1" fill="#000000">
0.004
</text>
<polyline fill="none" opacity="1" stroke="#000000" stroke-width="1" points="54,516 59,516 "/>
<text x="50" y="402" dy="0.5ex" text-anchor="end" font-family="sans-serif" font-size="9.67741935483871" opacity="1" fill="#000000">
0.006
</text>
<polyline fill="none" opacity="1" stroke="#000000" stroke-width="1" points="54,402 59,402 "/>
<text x="50" y="288" dy="0.5ex" text-anchor="end" font-family="sans-serif" font-size="9.67741935483871" opacity="1" fill="#000000">
0.008
</text>
<polyline fill="none" opacity="1" stroke="#000000" stroke-width="1" points="54,288 59,288 "/>
<text x="50" y="174" dy="0.5ex" text-anchor="end" font-family="sans-serif" font-size="9.67741935483871" opacity="1" fill="#000000">
0.01
</text>
<polyline fill="none" opacity="1" stroke="#000000" stroke-width="1" points="54,174 59,174 "/>
<text x="50" y="60" dy="0.5ex" text-anchor="end" font-family="sans-serif" font-size="9.67741935483871" opacity="1" fill="#000000">
0.012
</text>
<polyline fill="none" opacity="1" stroke="#000000" stroke-width="1" points="54,60 59,60 "/>
<polyline fill="none" opacity="1" stroke="#000000" stroke-width="1" points="60,740 1190,740 "/>
<text x="60" y="750" dy="0.76em" text-anchor="middle" font-family="sans-serif" font-size="9.67741935483871" opacity="1" fill="#000000">
2015-01-27Z
</text>
<polyline fill="none" opacity="1" stroke="#000000" stroke-width="1" points="60,740 60,745 "/>
<text x="173" y="750" dy="0.76em" text-anchor="middle" font-family="sans-serif" font-size="9.67741935483871" opacity="1" fill="#000000">
2015-09-01Z
</text>
<polyline fill="none" opacity="1" stroke="#000000" stroke-width="1" points="173,740 173,745 "/>
<text x="287" y="750" dy="0.76em" text-anchor="middle" font-family="sans-serif" font-size="9.67741935483871" opacity="1" fill="#000000">
2016-04-05Z
</text>
<polyline fill="none" opacity="1" stroke="#000000" stroke-width="1" points="287,740 287,745 "/>
<text x="401" y="750" dy="0.76em" text-anchor="middle" font-family="sans-serif" font-size="9.67741935483871" opacity="1" fill="#000000">
2016-11-08Z
</text>
<polyline fill="none" opacity="1" stroke="#000000" stroke-width="1" points="401,740 401,745 "/>
<text x="515" y="750" dy="0.76em" text-anchor="middle" font-family="sans-serif" font-size="9.67741935483871" opacity="1" fill="#000000">
2017-06-13Z
</text>
<polyline fill="none" opacity="1" stroke="#000000" stroke-width="1" points="515,740 515,745 "/>
<text x="629" y="750" dy="0.76em" text-anchor="middle" font-family="sans-serif" font-size="9.67741935483871" opacity="1" fill="#000000">
2018-01-16Z
</text>
<polyline fill="none" opacity="1" stroke="#000000" stroke-width="1" points="629,740 629,745 "/>
<text x="743" y="750" dy="0.76em" text-anchor="middle" font-family="sans-serif" font-size="9.67741935483871" opacity="1" fill="#000000">
2018-08-21Z
</text>
<polyline fill="none" opacity="1" stroke="#000000" stroke-width="1" points="743,740 743,745 "/>
<text x="856" y="750" dy="0.76em" text-anchor="middle" font-family="sans-serif" font-size="9.67741935483871" opacity="1" fill="#000000">
2019-03-26Z
</text>
<polyline fill="none" opacity="1" stroke="#000000" stroke-width="1" points="856,740 856,745 "/>
<text x="970" y="750" dy="0.76em" text-anchor="middle" font-family="sans-serif" font-size="9.67741935483871" opacity="1" fill="#000000">
2019-10-29Z
</text>
<polyline fill="none" opacity="1" stroke="#000000" stroke-width="1" points="970,740 970,745 "/>
<text x="1084" y="750" dy="0.76em" text-anchor="middle" font-family="sans-serif" font-size="9.67741935483871" opacity="1" fill="#000000">
2020-06-02Z
</text>
<polyline fill="none" opacity="1" stroke="#000000" stroke-width="1" points="1084,740 1084,745 "/>
<polyline fill="none" opacity="1" stroke="#E61919" stroke-width="2" points="111,716 118,690 122,692 127,669 129,670 129,645 130,645 132,647 132,647 135,648 136,649 136,649 137,650 137,626 138,627 141,629 143,630 153,636 160,639 161,640 163,642 165,663 169,664 170,665 171,665 171,665 173,666 180,668 184,669 188,670 192,671 193,653 195,654 197,655 200,656 200,638 201,639 202,622 203,622 203,622 206,623 206,623 207,589 207,590 208,590 209,590 210,590 210,591 211,591 212,574 212,558 213,559 214,560 215,560 216,561 216,561 217,561 219,563 220,563 221,565 222,565 222,566 223,566 224,567 226,568 226,568 227,568 227,569 228,553 229,554 231,555 235,558 235,559 236,559 237,560 237,545 238,545 238,530 239,531 240,532 241,532 242,517 242,518 243,503 243,504 244,504 244,504 245,490 247,492 247,492 248,493 248,494 249,494 249,495 250,495 250,496 251,496 253,483 253,484 254,485 254,486 255,486 257,489 257,489 258,490 259,490 260,492 260,492 261,493 263,494 263,481 264,482 265,483 265,483 266,483 266,485 267,486 268,487 268,487 269,488 269,488 270,489 271,490 271,490 272,491 272,491 273,492 274,492 274,492 275,480 276,481 276,481 277,482 278,483 279,484 279,484 280,485 281,487 282,487 282,488 283,489 284,490 285,491 285,491 286,491 286,492 287,492 288,493 289,494 289,494 290,483 291,484 292,484 292,485 293,473 293,473 294,473 295,462 295,462 296,463 296,463 297,464 297,464 298,465 298,466 299,466 299,467 301,470 302,471 302,471 303,472 304,472 304,473 305,473 306,473 306,474 307,474 307,475 308,475 308,476 309,476 309,477 310,477 310,477 311,478 311,479 312,479 313,481 314,482 314,482 315,482 316,483 316,483 319,486 319,486 320,487 320,487 321,487 321,488 322,488 322,489 323,489 323,489 324,490 324,490 325,491 325,491 326,491 327,492 327,482 328,471 328,461 329,451 329,451 330,451 330,452 331,452 331,453 332,454 332,454 333,455 333,455 334,456 334,456 335,457 335,457 336,457 336,447 337,447 338,437 338,437 339,438 339,439 340,439 340,440 341,440 341,430 342,431 343,432 343,432 344,433 344,433 345,434 346,435 348,436 349,438 349,428 350,429 350,429 351,430 352,431 352,421 353,412 354,402 354,393 355,393 357,395 357,396 359,387 359,388 360,389 360,390 362,392 362,383 363,384 364,386 364,386 365,387 365,378 366,378 366,379 367,389 367,389 368,390 368,391 370,382 371,390 371,391 372,393 373,394 373,394 374,395 374,395 375,397 376,397 376,398 377,398 377,390 378,391 378,382 379,374 380,365 380,374 381,375 381,375 382,376 382,377 383,377 383,378 384,380 384,381 385,381 385,382 386,382 386,383 387,375 387,375 388,376 388,377 389,377 389,378 390,378 391,379 392,380 393,357 393,357 394,350 394,350 395,350 395,350 396,343 396,343 397,335 397,336 398,336 398,337 399,338 400,338 400,339 401,340 402,341 402,341 403,341 403,334 404,335 404,335 405,336 405,345 406,345 406,346 407,347 407,347 408,348 408,348 409,349 409,349 410,350 410,350 411,351 412,351 412,352 413,352 413,353 414,346 415,347 415,339 416,340 416,340 417,341 417,341 418,342 420,344 420,346 421,340 421,340 422,341 423,342 423,342 424,336 424,336 425,338 425,338 426,339 426,340 427,340 427,341 428,335 428,335 429,328 429,329 430,329 430,322 431,316 431,324 432,325 432,326 433,327 434,327 434,327 435,328 436,329 436,330 437,324 437,325 438,325 438,326 439,327 439,327 440,328 440,329 441,329 441,323 442,323 442,324 443,325 444,326 444,327 445,328 445,321 446,322 446,323 447,324 447,325 448,325 448,319 449,319 449,320 450,313 450,314 451,307 451,308 452,309 452,303 453,303 453,304 454,305 455,298 455,292 456,293 456,294 457,295 457,295 458,296 458,297 459,298 459,292 460,286 460,287 461,288 461,289 462,290 462,291 463,285 463,286 464,287 464,287 465,288 466,282 466,283 467,284 467,285 468,285 468,285 469,286 469,287 470,288 470,295 471,289 471,290 472,291 472,292 473,286 473,287 474,287 474,288 475,289 476,289 476,289 477,290 477,284 478,285 478,286 479,280 479,268 480,269 480,269 481,270 481,271 482,278 482,279 483,279 483,280 484,281 484,281 485,282 485,283 486,284 487,284 487,285 488,286 488,287 489,287 489,288 490,289 490,290 491,290 491,291 492,285 492,280 493,274 493,275 494,269 494,270 495,271 495,272 496,273 496,274 497,268 498,269 498,269 499,270 499,271 500,272 500,272 501,267 501,268 502,268 502,272 503,278 503,273 504,274 504,268 505,269 505,270 506,271 506,272 507,267 508,267 508,274 509,269 509,270 510,271 510,272 511,273 511,268 512,270 512,270 513,271 513,271 514,272 514,273 515,274 515,275 516,276 516,276 517,277 517,278 518,278 519,280 519,281 520,282 520,283 521,283 521,284 522,285 522,285 523,286 523,287 524,287 524,288 525,289 525,289 526,290 526,290 527,291 527,281 528,281 528,282 529,293 530,294 530,294 531,295 531,296 532,296 532,292 533,287 533,288 534,289 534,289 535,290 535,291 536,292 536,292 537,293 537,294 538,294 538,295 539,295 540,296 540,297 541,298 541,298 542,299 542,300 543,300 543,301 544,301 544,302 545,297 545,292 546,293 546,293 547,288 547,289 548,285 548,285 549,286 549,287 550,288 551,288 551,289 552,289 552,290 553,290 553,291 554,292 554,292 555,288 555,283 556,284 556,285 557,285 557,286 558,282 558,282 559,283 559,283 560,284 560,285 561,280 562,281 562,281 563,272 563,268 564,274 564,269 565,259 565,260 566,261 566,261 567,262 567,262 568,263 568,269 569,269 569,270 570,271 570,273 571,273 572,274 572,270 573,270 573,271 574,272 574,272 575,273 575,273 576,274 576,275 577,275 577,276 578,277 578,278 579,274 579,274 580,276 581,276 581,277 582,277 583,273 583,274 584,270 584,270 585,271 585,267 586,267 586,268 587,269 587,270 588,261 588,262 589,262 589,259 590,259 590,260 591,261 591,262 592,258 592,254 593,255 594,251 594,252 595,253 595,253 596,254 596,254 597,255 597,251 598,247 598,247 599,248 599,248 600,249 600,249 601,250 601,250 602,251 602,252 603,253 604,258 604,258 605,259 605,256 606,256 606,257 607,257 607,258 608,254 608,255 609,255 609,255 610,256 610,258 611,258 611,259 612,259 612,260 613,252 613,252 614,252 615,253 615,254 616,254 616,255 617,256 617,256 618,257 618,257 619,258 619,258 620,255 620,255 621,256 621,257 622,257 622,258 623,254 623,254 624,255 625,256 625,257 626,253 626,254 627,254 627,251 628,252 628,249 629,249 629,246 630,250 630,251 631,252 631,253 632,253 632,254 633,254 633,255 634,255 634,256 635,261 636,261 636,262 637,263 637,265 638,266 638,262 639,263 639,255 640,256 640,257 641,253 641,254 642,251 642,251 643,253 643,253 644,258 644,259 645,255 645,256 646,256 647,257 647,258 648,259 648,259 649,260 649,261 650,262 650,263 651,264 651,260 652,257 652,257 653,258 653,258 654,259 654,256 655,261 655,257 656,257 657,258 657,259 658,260 658,261 659,263 659,263 660,264 660,265 661,262 661,262 662,263 662,260 663,257 663,257 664,258 664,255 665,255 665,253 666,254 666,255 667,252 668,252 668,253 669,254 669,258 670,258 670,259 671,260 671,260 672,261 672,262 673,263 673,263 674,264 674,264 675,264 675,269 676,270 676,270 677,267 677,268 678,269 679,269 679,266 680,267 680,267 681,260 681,261 682,261 682,262 683,262 683,263 684,264 684,261 685,262 685,263 686,263 686,264 687,265 687,265 688,266 689,266 689,267 690,267 690,268 691,269 692,270 692,270 693,270 693,271 694,272 694,272 695,269 695,269 696,266 696,267 697,267 697,264 698,265 698,269 699,270 700,270 700,264 701,264 701,261 702,261 702,262 703,259 703,259 704,259 704,260 705,261 705,261 706,262 706,259 707,259 707,260 708,260 708,261 709,261 709,262 710,263 711,263 711,264 712,264 712,257 713,258 713,259 714,259 714,260 715,260 715,261 716,261 716,261 717,262 717,262 718,263 718,263 719,264 719,264 720,262 721,262 721,259 722,260 722,261 723,261 723,261 724,262 724,263 725,260 725,254 726,254 726,254 727,255 727,255 728,256 728,256 729,257 729,257 730,258 730,258 731,259 732,260 732,261 733,261 733,262 734,266 734,267 735,264 735,266 736,267 736,268 737,268 737,269 738,270 738,270 739,271 739,271 740,269 740,270 741,270 741,271 742,268 743,266 743,266 744,267 744,267 745,271 745,271 746,272 746,273 747,273 747,276 748,277 748,277 749,278 749,279 750,279 750,279 751,277 751,277 752,278 753,275 753,276 754,276 754,277 755,278 755,278 756,279 756,279 757,280 757,280 758,281 758,281 759,282 759,282 760,283 760,284 761,281 761,282 761,282 762,283 762,283 763,284 764,282 764,282 765,283 765,284 766,282 766,283 767,283 767,281 768,281 768,282 769,280 769,280 770,281 770,282 771,280 771,285 772,282 772,279 773,280 773,281 774,278 775,279 775,277 776,278 776,279 777,279 777,280 778,280 778,278 779,279 779,279 780,280 780,281 781,283 781,283 782,284 782,284 783,282 783,283 784,283 785,284 785,284 786,285 786,286 787,286 787,284 788,285 788,285 789,283 789,284 790,284 790,285 791,282 791,283 792,284 792,281 793,279 793,279 794,280 794,278 795,273 796,273 796,274 797,274 797,275 798,275 798,276 799,276 799,272 800,272 800,270 801,271 801,269 802,267 802,267 803,268 803,268 804,269 804,267 805,265 805,265 806,266 807,267 807,267 808,268 808,268 809,269 809,270 810,271 810,271 811,272 811,272 812,273 812,273 813,269 813,269 814,267 814,266 815,266 815,265 816,284 817,285 817,283 818,265 818,265 819,266 819,264 820,265 820,265 821,263 821,264 822,262 822,262 823,263 823,264 824,264 824,262 825,263 825,263 826,264 826,265 827,263 828,264 828,264 829,265 829,266 830,264 830,265 831,263 831,263 832,264 832,265 833,266 833,266 834,267 834,267 835,268 835,269 836,267 836,267 837,268 837,269 838,269 839,270 839,272 840,272 840,273 841,273 841,274 842,272 842,273 843,273 843,274 844,274 844,275 845,276 845,277 846,275 846,275 847,271 847,271 848,272 849,273 849,274 850,274 850,274 851,275 851,274 852,272 852,270 853,271 853,271 854,272 854,273 855,273 855,272 856,273 856,273 857,274 857,275 858,275 858,276 859,276 860,277 860,277 861,273 861,274 862,274 862,275 863,275 863,274 864,274 864,275 865,276 865,276 866,277 866,277 867,276 867,276 868,277 868,278 869,278 869,278 870,279 871,277 871,278 872,278 872,279 873,277 873,275 874,276 874,276 875,277 875,277 876,275 876,276 877,278 877,279 878,280 878,280 879,281 879,282 880,283 881,283 881,284 882,282 882,283 883,284 883,277 884,278 884,278 885,279 885,277 886,278 886,278 887,277 887,278 888,278 888,278 889,279 889,279 890,280 890,279 891,279 892,280 892,280 893,281 893,282 894,282 894,281 895,277 895,277 896,278 896,278 897,279 897,277 898,278 898,279 899,279 899,280 900,280 900,281 901,281 901,282 902,282 903,282 903,283 904,283 904,284 905,284 905,285 906,279 906,280 907,280 907,281 908,282 908,282 909,283 909,284 910,284 910,281 911,281 911,282 912,282 913,280 913,281 914,282 914,282 915,282 915,283 916,281 916,282 917,281 917,281 918,282 918,282 919,283 919,284 920,284 920,285 921,286 921,284 922,285 922,283 923,284 924,285 924,285 925,286 925,286 926,287 926,287 927,288 927,287 928,287 928,288 929,288 929,289 930,289 930,290 931,290 931,291 932,291 932,290 933,290 933,291 934,291 935,290 935,288 936,289 936,289 937,290 937,290 938,291 938,291 939,292 939,292 940,291 940,291 941,290 941,295 942,295 942,296 943,296 943,295 944,295 945,295 945,293 946,294 946,294 947,292 947,293 948,293 948,292 949,292 949,285 950,286 950,285 951,286 951,286 952,289 952,290 953,290 953,289 954,287 954,288 955,286 956,287 956,287 957,287 957,286 958,285 958,285 959,284 959,285 960,291 960,291 961,290 961,292 962,293 962,293 963,294 963,295 964,295 964,295 964,296 965,296 965,297 966,297 967,298 967,298 968,299 968,300 969,298 969,297 970,294 970,294 971,295 971,295 972,295 972,296 973,296 973,297 974,297 974,298 975,297 975,297 976,298 977,298 977,299 978,299 978,300 979,299 979,299 980,300 980,300 981,300 981,301 982,302 982,302 983,302 983,303 984,304 984,304 985,304 985,305 986,306 986,304 987,303 988,303 988,302 989,301 989,298 990,298 990,298 991,299 991,299 992,300 992,301 993,300 993,300 994,301 994,301 995,300 995,300 996,291 996,291 997,292 997,292 998,293 999,293 999,292 1000,293 1000,293 1001,293 1001,294 1002,295 1002,295 1003,294 1003,295 1004,296 1004,294 1005,295 1005,294 1006,295 1006,296 1007,297 1007,297 1008,296 1009,297 1009,297 1010,298 1010,297 1011,297 1011,294 1012,295 1012,297 1013,298 1013,299 1014,298 1014,299 1015,299 1015,301 1016,302 1016,302 1017,303 1017,303 1018,303 1018,304 1019,304 1020,303 1020,304 1021,301 1021,300 1022,301 1022,301 1023,302 1023,303 1024,304 1024,305 1025,304 1025,304 1026,303 1026,304 1027,304 1027,305 1028,302 1028,303 1029,305 1029,305 1030,306 1031,306 1031,307 1032,307 1032,308 1033,308 1033,309 1034,307 1034,308 1035,310 1035,309 1036,308 1036,307 1037,308 1037,308 1038,308 1038,308 1038,308 1038,309 1039,309 1039,309 1039,310 1040,310 1040,310 1041,311 1041,311 1041,311 1042,311 1042,312 1042,312 1042,312 1043,312 1043,311 1043,311 1043,310 1044,310 1044,309 1044,309 1044,310 1045,310 1045,310 1045,310 1045,311 1046,311 1046,310 1046,310 1047,310 1047,309 1047,310 1048,310 1048,311 1048,311 1048,310 1049,310 1049,310 1049,310 1049,310 1050,310 1050,309 1050,309 1050,310 1051,309 1052,309 1052,309 1052,309 1052,310 1053,310 1053,310 1053,310 1053,312 1054,312 1054,312 1054,312 1054,312 1055,312 1055,313 1055,313 1055,313 1056,313 1056,314 1056,314 1057,314 1057,315 1057,315 1057,315 1058,315 1058,316 1058,316 1058,318 1059,318 1059,318 1059,318 1059,317 1060,317 1060,318 1060,318 1060,319 1061,319 1061,319 1061,319 1061,319 1062,319 1062,320 1063,319 1063,318 1064,318 1064,317 1064,317 1064,316 1065,316 1065,315 1065,315 1065,316 1066,316 1066,313 1066,313 1066,311 1067,311 1067,310 1067,310 1067,308 1068,308 1068,308 1068,310 1069,310 1069,311 1069,311 1069,311 1070,311 1070,310 1070,310 1070,309 1071,309 1071,309 1071,309 1072,309 1072,310 1073,310 1073,308 1073,308 1073,306 1074,306 1074,306 1074,306 1074,307 1075,307 1075,306 1075,306 1075,306 1076,306 1076,306 1076,306 1076,305 1077,305 1077,305 1077,305 1077,306 1078,306 1078,306 1078,306 1078,305 1079,305 1079,306 1079,306 1079,306 1080,306 1080,300 1080,300 1080,299 1081,299 1081,298 1081,299 1082,299 1082,300 1082,300 1082,300 1083,300 1083,302 1084,302 1084,301 1084,301 1084,301 1085,301 1085,302 1085,302 1085,302 1086,302 1086,301 1086,301 1086,302 1087,299 1087,299 1087,300 1088,300 1088,302 1088,302 1088,301 1089,301 1089,300 1089,300 1089,301 1090,301 1090,300 1091,300 1091,300 1091,301 1092,301 1092,301 1092,301 1092,302 1093,302 1093,301 1093,301 1093,300 1094,300 1094,301 1095,301 1095,300 1095,300 1095,300 1096,300 1096,301 1096,301 1096,300 1097,300 1097,300 1097,301 1098,301 1098,301 1098,301 1098,302 1099,302 1099,300 1099,300 1099,300 1100,300 1100,299 1100,299 1100,300 1101,300 1101,300 1101,300 1101,301 1102,301 1102,301 1102,301 1102,301 1103,301 1103,302 1103,302 1103,301 1104,301 1104,302 1105,302 1105,303 1105,303 1105,302 1106,302 1106,302 1106,303 1107,303 1107,301 1107,301 1107,301 1108,301 1108,302 1108,302 1108,302 1109,302 1109,303 1109,303 1109,304 1110,303 1110,303 1110,303 1111,303 1111,304 1111,304 1111,303 1112,303 1112,302 1112,302 1112,302 1113,302 1113,303 1113,303 1113,303 1114,303 1114,305 1114,305 1114,306 1115,306 1115,305 1116,305 1116,305 1116,305 1116,306 1117,306 1117,304 1117,304 1117,303 1118,303 1118,303 1118,303 1118,304 1119,304 1119,302 1119,302 1119,302 1120,303 1120,303 1120,305 1121,305 1121,306 1121,306 1121,306 1122,306 1122,308 1122,308 1122,309 1123,309 1123,310 1123,310 1123,309 1124,309 1124,308 1124,308 1124,309 1125,309 1125,310 1125,310 1125,308 1126,308 1126,309 1127,309 1127,309 1127,309 1127,310 1128,310 1128,309 1128,309 1128,310 1129,310 1129,309 1129,309 1129,309 1130,309 1130,310 1130,310 1130,309 1131,309 1131,310 1131,310 1131,310 1132,310 1132,312 1132,312 1132,310 1133,311 1133,310 1133,310 1133,310 1134,310 1134,310 1134,311 1135,311 1135,310 1135,310 1135,311 1136,311 1137,311 1137,312 1137,312 1137,311 1138,311 1138,310 1138,310 1138,311 1139,311 1139,311 1139,311 1139,312 1140,312 1140,311 1140,311 1140,311 1141,311 1141,311 1141,311 1141,311 1142,312 1142,312 1142,312 1143,312 1143,313 1143,313 1143,311 1144,311 1144,311 1144,311 1144,312 1145,312 1145,312 1145,312 1145,313 1146,313 1146,311 1146,311 1146,310 1147,310 1147,311 1148,311 1148,311 1148,311 1148,311 1149,311 1149,311 1149,311 1149,313 1150,313 1150,313 1150,313 1150,313 1151,313 1151,314 1151,314 1151,314 1152,314 1152,315 1152,315 1152,315 1153,315 1153,316 1153,316 1153,315 1154,315 1154,317 1154,317 1154,315 1155,315 1155,315 1155,315 1155,316 1156,316 1156,316 1156,316 1156,314 1157,314 1157,313 1157,313 1157,313 1158,313 1158,313 1159,313 1159,313 1159,313 1159,314 1160,314 1160,316 1160,316 1160,316 1161,316 1161,317 1161,317 1161,316 1162,316 1162,316 1162,316 1162,315 1163,315 1163,315 1163,315 1163,315 1164,315 1164,315 1164,315 1164,313 1165,313 1165,314 1165,314 1165,314 1166,314 1166,314 1166,315 1167,315 1167,315 1167,315 1167,316 1168,316 1168,316 1169,316 1169,316 1169,316 1169,316 1170,316 1170,315 1170,315 1170,315 1171,315 1171,316 1171,316 1171,316 1172,316 1172,316 1172,316 1172,317 1173,317 1173,316 1173,316 1173,315 1174,315 1174,315 1174,315 1174,315 1175,315 1175,317 1175,317 1175,316 1176,316 1176,317 1176,317 1176,333 1177,332 1177,332 1177,332 1178,332 1178,333 1178,333 1178,332 1179,332 1179,330 1180,330 1180,330 1180,330 1180,332 1181,332 1181,332 1181,332 1181,332 1182,332 1182,332 1182,332 1182,333 1183,333 1183,333 1183,333 1183,334 1184,334 1184,334 1184,334 1184,333 1185,333 1185,333 1185,333 1185,334 1186,334 1186,334 1186,334 1186,334 1187,334 1187,334 1187,334 1187,335 1188,335 1188,334 1188,334 1188,334 1189,334 1189,334 1190,334 "/>
<polyline fill="none" opacity="1" stroke="#E5E619" stroke-width="2" points="322,733 328,722 330,712 335,701 351,693 371,688 390,683 400,677 403,669 403,669 407,670 425,666 431,652 435,646 452,644 460,640 470,630 471,630 471,631 472,624 472,624 473,625 473,625 474,625 474,618 475,619 477,619 480,620 481,621 483,615 483,615 484,615 486,610 488,604 490,599 490,599 491,593 492,593 495,589 495,589 496,589 496,589 497,583 498,584 498,584 500,578 502,581 503,581 505,582 505,582 506,577 508,577 509,578 509,578 510,579 511,579 512,580 512,580 515,576 515,570 517,565 518,566 519,561 520,561 520,562 521,556 521,557 522,557 528,560 528,555 530,555 532,557 533,551 533,552 535,553 536,553 537,554 538,554 538,555 539,549 540,550 541,550 543,552 544,547 545,547 545,547 547,548 547,548 548,549 549,545 552,545 552,546 553,541 553,546 554,547 554,547 557,543 558,544 559,544 559,544 560,545 561,540 562,540 562,541 563,541 564,537 564,537 565,537 566,538 567,538 568,534 568,534 570,536 571,536 572,531 572,532 573,532 574,532 575,533 575,533 576,533 576,529 577,530 578,530 578,530 579,531 579,526 580,522 580,522 581,522 581,527 582,528 583,528 583,528 584,524 584,519 585,519 585,515 586,511 586,511 587,506 587,507 589,508 590,509 591,510 591,505 592,506 592,501 593,502 594,503 595,499 596,504 597,504 598,505 599,505 601,506 601,506 602,507 603,508 604,499 604,499 605,499 605,504 606,505 606,505 607,505 607,506 608,506 608,506 609,506 610,503 611,504 612,504 612,500 613,505 615,505 616,506 616,506 617,507 618,507 619,508 619,508 621,504 621,505 622,501 623,501 623,501 625,502 626,503 628,504 628,501 631,498 632,499 633,499 634,500 635,496 636,496 636,497 637,497 637,498 638,499 639,499 639,500 640,500 640,500 641,497 641,497 642,498 643,494 643,495 644,487 645,483 647,485 648,481 648,482 649,482 652,484 653,485 654,486 655,487 656,487 658,484 659,486 660,483 661,480 661,480 663,481 664,482 664,482 665,482 665,483 669,482 670,482 670,479 671,479 672,476 673,473 674,474 674,474 675,471 675,471 676,468 676,464 677,465 678,466 679,466 680,466 680,467 681,467 682,468 683,468 684,465 684,466 685,467 685,463 686,464 686,464 687,461 687,454 688,454 689,455 692,460 693,458 694,447 695,444 695,448 696,448 696,448 697,445 699,447 700,447 701,448 702,448 702,448 704,445 704,446 705,446 706,444 706,444 707,441 707,441 708,441 708,442 709,439 709,439 710,436 711,433 712,433 712,433 713,434 714,431 715,432 715,432 716,429 716,429 717,430 718,430 719,431 719,424 720,421 721,422 721,422 722,419 722,420 723,420 723,420 724,420 724,421 725,422 726,422 726,422 727,423 728,423 728,423 729,424 729,421 730,421 732,422 732,423 733,423 733,424 735,423 736,424 736,424 737,421 737,419 738,416 738,416 739,417 740,414 741,415 741,412 742,413 743,413 743,414 744,414 744,415 745,414 745,411 746,411 746,412 747,411 748,408 749,409 749,410 750,407 750,407 751,408 751,408 752,409 753,409 754,410 754,410 755,410 755,411 756,411 756,412 757,412 757,412 758,410 758,410 759,407 759,408 760,408 760,406 761,397 761,397 761,398 762,398 764,396 765,397 765,389 766,387 766,385 767,382 767,382 768,383 768,380 769,381 770,382 771,384 771,388 772,385 774,384 775,379 775,379 776,374 776,375 777,375 777,376 778,376 778,376 779,377 779,375 780,370 780,370 781,366 781,366 782,367 782,364 783,365 783,365 784,366 785,366 785,367 786,364 786,365 787,360 787,360 788,361 789,361 789,362 790,360 790,360 791,361 791,361 792,362 792,362 793,363 793,360 794,360 794,361 795,361 796,362 796,362 797,360 797,361 798,361 798,361 799,362 799,362 800,363 800,360 801,358 801,359 802,360 802,357 803,358 803,358 804,358 804,359 805,354 805,355 806,353 807,353 807,351 808,351 808,352 809,353 810,353 810,354 811,354 811,352 812,350 812,347 813,346 813,344 814,347 814,348 815,345 815,346 816,360 817,360 817,361 818,346 818,346 819,347 819,347 820,348 820,343 821,346 821,344 822,342 822,340 823,340 823,338 824,334 824,332 825,332 826,333 826,334 827,332 828,333 828,333 829,334 829,334 830,335 830,336 831,336 831,339 832,340 832,340 833,339 834,337 834,338 835,338 835,339 836,339 836,340 837,338 837,336 838,336 839,337 839,328 840,329 840,329 841,330 841,328 842,324 842,319 843,320 843,315 844,316 844,317 845,317 845,313 846,314 846,312 847,310 847,313 848,311 849,309 849,307 850,308 850,306 851,307 851,305 852,306 853,307 853,307 854,303 854,303 855,302 855,303 856,299 856,299 857,295 857,293 858,294 858,292 859,288 860,288 860,286 861,285 861,286 862,286 862,287 863,287 863,288 864,288 864,289 865,287 865,288 866,288 866,289 867,290 867,290 868,286 868,287 869,285 869,285 870,286 871,284 871,284 872,285 872,285 873,286 873,286 874,287 874,288 875,288 875,289 876,284 876,285 877,283 877,283 878,284 878,285 879,281 879,282 880,283 881,281 881,281 882,280 882,281 883,281 883,282 884,280 884,276 885,275 885,275 886,273 886,272 887,270 887,264 888,263 888,263 889,262 889,262 890,263 890,261 891,260 892,260 892,259 893,261 893,258 894,258 894,255 895,251 895,254 896,254 896,255 897,253 897,254 898,254 898,255 899,256 899,254 900,254 900,255 901,256 901,256 902,257 903,255 903,253 904,249 904,248 905,248 905,249 906,248 906,248 907,245 907,246 908,246 908,249 909,247 909,249 910,249 910,250 911,248 911,251 912,247 913,247 913,248 914,244 914,245 915,243 915,240 916,234 916,233 917,233 917,234 918,231 918,231 919,232 919,233 920,233 920,234 921,233 921,233 922,234 922,235 923,230 924,229 924,229 925,229 925,230 926,231 926,229 927,230 927,229 928,227 928,226 929,226 930,226 930,224 931,227 931,227 932,228 932,228 933,229 933,227 934,228 935,231 935,231 936,232 936,232 937,233 937,234 938,234 938,234 939,233 939,234 940,235 940,235 941,236 941,235 942,235 942,236 943,236 943,237 944,238 945,237 945,237 946,236 946,237 947,237 947,237 948,236 948,238 949,235 949,236 950,234 950,236 951,237 951,237 952,232 952,227 953,228 953,229 954,229 954,230 955,232 956,231 956,235 957,235 957,234 958,234 958,235 959,234 959,234 960,235 960,236 961,234 961,233 962,234 962,232 963,231 963,230 964,231 964,231 964,230 965,230 965,231 966,228 967,228 967,225 968,222 968,223 969,224 969,222 970,223 970,222 971,224 971,225 972,225 972,225 973,221 973,221 974,221 974,221 975,221 975,220 976,221 977,221 977,222 978,222 978,223 979,224 979,224 980,225 980,225 981,224 981,225 982,226 982,224 983,225 983,224 984,223 984,223 985,224 985,225 986,225 986,226 987,226 988,226 988,227 989,227 989,228 990,227 990,227 991,224 991,223 992,224 992,225 993,223 993,222 994,221 994,222 995,222 995,221 996,220 996,219 997,220 997,220 998,221 999,222 999,220 1000,219 1000,220 1001,222 1001,221 1002,220 1002,221 1003,220 1003,220 1004,218 1004,219 1005,219 1005,217 1006,218 1006,217 1007,216 1007,214 1008,214 1009,215 1009,214 1010,215 1010,214 1011,214 1011,213 1012,214 1012,214 1013,215 1013,217 1014,216 1014,217 1015,217 1015,218 1016,217 1016,217 1017,218 1017,218 1018,219 1018,219 1019,218 1020,217 1020,218 1021,214 1021,214 1022,212 1022,213 1023,204 1023,202 1024,202 1024,199 1025,200 1025,199 1026,200 1026,200 1027,201 1027,200 1028,199 1028,195 1029,196 1029,196 1030,194 1031,196 1031,197 1032,197 1032,192 1033,192 1033,194 1034,197 1034,198 1035,195 1035,196 1036,195 1036,200 1037,201 1037,201 1038,200 1038,200 1038,200 1038,198 1039,198 1039,198 1039,199 1040,199 1040,200 1041,199 1041,199 1041,196 1042,196 1042,195 1042,195 1042,193 1043,193 1043,192 1043,192 1043,191 1044,191 1044,192 1044,192 1044,191 1045,191 1045,191 1045,191 1045,190 1046,190 1046,191 1046,189 1047,189 1047,191 1047,192 1048,192 1048,193 1048,193 1048,192 1049,192 1049,192 1049,192 1049,193 1050,193 1050,189 1050,189 1050,190 1051,190 1052,190 1052,191 1052,191 1052,192 1053,192 1053,189 1053,189 1053,189 1054,189 1054,190 1054,190 1054,189 1055,189 1055,189 1055,189 1055,188 1056,188 1056,188 1056,187 1057,187 1057,186 1057,186 1057,185 1058,185 1058,181 1058,181 1058,182 1059,182 1059,181 1059,181 1059,180 1060,180 1060,180 1060,180 1060,178 1061,178 1061,175 1061,175 1061,176 1062,176 1062,177 1063,176 1063,177 1064,177 1064,173 1064,173 1064,174 1065,174 1065,174 1065,174 1065,175 1066,175 1066,174 1066,174 1066,175 1067,175 1067,176 1067,176 1067,176 1068,176 1068,174 1068,175 1069,175 1069,176 1069,176 1069,175 1070,175 1070,173 1070,173 1070,170 1071,170 1071,170 1071,171 1072,171 1072,172 1073,172 1073,173 1073,173 1073,172 1074,172 1074,171 1074,171 1074,172 1075,172 1075,172 1075,172 1075,170 1076,170 1076,171 1076,171 1076,172 1077,172 1077,174 1077,174 1077,173 1078,173 1078,171 1078,171 1078,170 1079,170 1079,171 1079,171 1079,172 1080,172 1080,168 1080,168 1080,169 1081,169 1081,168 1081,168 1082,168 1082,169 1082,169 1082,165 1083,165 1083,166 1084,166 1084,166 1084,166 1084,167 1085,167 1085,166 1085,166 1085,167 1086,167 1086,166 1086,166 1086,165 1087,166 1087,166 1087,162 1088,162 1088,160 1088,160 1088,158 1089,158 1089,158 1089,158 1089,157 1090,156 1090,154 1091,154 1091,153 1091,151 1092,151 1092,150 1092,150 1092,151 1093,151 1093,151 1093,151 1093,152 1094,152 1094,151 1095,151 1095,148 1095,148 1095,149 1096,149 1096,148 1096,148 1096,148 1097,146 1097,147 1097,147 1098,146 1098,146 1098,146 1098,147 1099,147 1099,145 1099,146 1099,142 1100,142 1100,144 1100,144 1100,145 1101,143 1101,142 1101,142 1101,142 1102,142 1102,141 1102,141 1102,142 1103,142 1103,142 1103,142 1103,143 1104,143 1104,143 1105,143 1105,141 1105,141 1105,138 1106,137 1106,137 1106,138 1107,138 1107,136 1107,136 1107,137 1108,137 1108,136 1108,136 1108,135 1109,135 1109,132 1109,132 1109,130 1110,133 1110,133 1110,133 1111,133 1111,134 1111,134 1111,134 1112,134 1112,134 1112,134 1112,132 1113,132 1113,132 1113,132 1113,132 1114,132 1114,130 1114,130 1114,125 1115,125 1115,126 1116,126 1116,127 1116,127 1116,127 1117,127 1117,128 1117,128 1117,128 1118,128 1118,123 1118,123 1118,122 1119,121 1119,120 1119,120 1119,117 1120,118 1120,118 1120,120 1121,120 1121,121 1121,121 1121,121 1122,121 1122,122 1122,122 1122,123 1123,123 1123,123 1123,123 1123,122 1124,122 1124,120 1124,120 1124,121 1125,121 1125,121 1125,121 1125,121 1126,121 1126,118 1127,118 1127,119 1127,119 1127,119 1128,119 1128,120 1128,120 1128,120 1129,120 1129,119 1129,119 1129,118 1130,118 1130,116 1130,116 1130,117 1131,117 1131,116 1131,117 1131,117 1132,117 1132,116 1132,116 1132,115 1133,114 1133,112 1133,112 1133,113 1134,113 1134,108 1134,102 1135,102 1135,103 1135,103 1135,102 1136,101 1137,101 1137,102 1137,102 1137,100 1138,100 1138,100 1138,100 1138,101 1139,101 1139,102 1139,102 1139,101 1140,101 1140,101 1140,101 1140,102 1141,102 1141,101 1141,101 1141,99 1142,99 1142,99 1142,100 1143,100 1143,100 1143,100 1143,99 1144,99 1144,99 1144,99 1144,100 1145,100 1145,98 1145,98 1145,98 1146,98 1146,91 1146,91 1146,91 1147,91 1147,89 1148,89 1148,88 1148,88 1148,86 1149,86 1149,86 1149,86 1149,82 1150,83 1150,79 1150,79 1150,79 1151,79 1151,80 1151,80 1151,80 1152,80 1152,80 1152,80 1152,78 1153,78 1153,78 1153,78 1153,77 1154,77 1154,78 1154,78 1154,79 1155,79 1155,78 1155,78 1155,79 1156,79 1156,78 1156,78 1156,77 1157,77 1157,77 1157,77 1157,77 1158,77 1158,77 1159,77 1159,78 1159,78 1159,79 1160,79 1160,79 1160,79 1160,78 1161,78 1161,79 1161,78 1161,78 1162,78 1162,79 1162,79 1162,80 1163,80 1163,78 1163,78 1163,78 1164,78 1164,79 1164,79 1164,79 1165,79 1165,80 1165,80 1165,78 1166,78 1166,78 1166,79 1167,79 1167,79 1167,79 1167,78 1168,78 1168,79 1169,79 1169,79 1169,79 1169,77 1170,77 1170,77 1170,77 1170,78 1171,78 1171,77 1171,77 1171,76 1172,76 1172,77 1172,77 1172,78 1173,78 1173,76 1173,76 1173,75 1174,75 1174,77 1174,77 1174,78 1175,78 1175,76 1175,76 1175,77 1176,77 1176,77 1176,77 1176,102 1177,101 1177,101 1177,100 1178,100 1178,99 1178,99 1178,100 1179,100 1179,100 1180,100 1180,101 1180,101 1180,100 1181,100 1181,100 1181,100 1182,100 1182,99 1182,99 1182,98 1183,98 1183,98 1183,98 1183,96 1184,96 1184,97 1184,97 1184,97 1185,97 1185,98 1185,98 1185,97 1186,97 1186,96 1186,96 1186,95 1187,95 1187,94 1187,94 1187,95 1188,95 1188,95 1188,95 1188,95 1189,95 1189,95 1190,95 "/>
<polyline fill="none" opacity="1" stroke="#19E619" stroke-width="2" points="496,738 498,732 500,732 501,732 502,732 502,732 503,732 504,732 506,732 507,732 509,732 510,732 511,732 512,732 516,733 516,733 518,733 519,733 520,733 521,733 523,733 524,733 525,733 526,733 527,733 527,733 529,727 530,727 530,727 531,727 533,728 533,728 534,728 534,728 535,728 536,728 537,728 538,728 539,728 541,728 541,728 542,728 542,728 543,728 544,728 544,728 545,728 546,728 547,728 548,728 549,728 549,728 550,728 551,728 552,728 552,728 553,728 553,728 554,728 555,729 556,729 556,729 557,729 557,729 558,729 559,729 560,729 562,729 562,724 563,724 563,724 564,724 565,724 565,724 566,724 566,724 567,724 567,724 568,724 568,724 569,724 576,720 577,720 577,720 578,720 580,720 581,720 582,720 584,720 585,720 586,720 586,720 587,720 588,720 593,721 594,721 595,721 595,721 596,721 597,721 597,721 598,721 599,721 599,721 600,721 600,721 601,721 601,721 602,721 602,721 604,717 604,717 605,717 608,717 608,717 609,717 609,717 610,717 610,717 611,713 611,713 612,713 612,713 613,713 616,713 618,713 619,713 619,713 621,714 622,714 623,714 626,714 627,714 629,714 629,714 630,710 632,710 633,710 634,710 634,710 636,710 636,711 637,711 638,711 639,707 639,707 641,707 641,707 642,707 642,707 643,707 647,708 647,708 648,708 648,708 649,708 650,708 652,708 653,708 653,708 654,708 658,709 658,709 659,709 659,709 660,705 661,701 665,702 666,702 668,702 669,702 669,702 672,703 674,703 675,703 675,695 676,699 677,699 678,700 679,700 679,696 680,696 680,696 682,696 682,696 685,697 688,697 689,693 689,690 690,690 690,690 691,690 692,690 692,683 694,683 697,680 700,680 700,681 706,681 706,681 707,681 707,681 711,682 711,682 712,682 712,682 716,682 716,682 718,683 719,683 720,683 721,683 722,680 724,677 725,674 726,674 727,674 728,674 728,674 730,674 732,675 733,675 734,675 734,675 736,672 736,672 737,672 738,669 739,669 739,670 740,670 741,670 741,670 743,670 743,670 745,668 746,665 746,665 750,663 751,663 753,663 753,663 757,661 758,661 760,659 764,660 766,657 769,658 771,658 771,659 773,659 773,659 775,656 775,657 776,654 776,654 778,654 779,654 779,655 781,653 782,653 782,650 785,650 786,651 786,648 787,648 789,646 790,646 790,646 793,644 793,644 794,644 795,641 796,642 798,639 798,639 799,640 800,640 802,640 802,641 804,641 809,640 810,640 810,640 811,640 812,640 813,641 813,641 814,641 814,641 815,638 816,640 817,641 819,634 819,634 820,635 821,635 821,632 822,633 822,633 823,633 824,633 825,633 826,631 826,631 827,629 829,629 829,630 830,630 830,630 831,630 831,630 832,631 833,631 833,631 834,631 834,631 836,627 837,627 837,627 838,627 839,627 839,625 840,625 840,626 841,623 842,624 842,624 843,624 843,624 844,624 844,624 845,625 846,625 846,625 847,625 847,625 848,625 849,626 849,626 850,626 850,626 851,626 852,627 853,627 853,627 854,627 855,628 855,628 856,628 857,628 857,628 858,629 858,629 859,629 860,629 860,629 861,629 861,629 862,630 862,630 863,630 863,628 864,628 864,628 865,628 865,628 866,626 866,626 867,626 867,627 868,627 868,627 869,627 869,627 870,627 871,627 871,627 872,628 872,628 873,628 873,626 874,626 874,626 875,626 875,626 876,626 876,626 877,627 877,627 878,625 878,625 879,626 879,624 880,624 881,624 881,624 882,624 882,624 883,625 883,625 884,625 884,623 885,623 885,621 886,621 886,621 887,621 887,621 888,622 888,622 889,622 889,622 890,622 890,620 891,620 892,618 892,618 893,619 893,619 894,619 894,619 895,619 895,619 896,619 896,620 897,620 897,620 898,620 898,620 899,620 899,621 900,621 900,621 901,621 901,619 902,619 903,619 903,619 904,619 904,619 905,620 905,620 906,620 906,620 907,620 907,621 908,621 908,621 909,621 909,621 910,621 910,621 911,622 911,622 912,622 913,622 913,622 914,622 914,622 915,622 915,623 916,623 916,623 917,621 917,621 918,619 918,619 919,620 919,620 920,620 920,620 921,618 921,618 922,619 922,619 923,617 924,617 924,617 925,617 925,615 926,616 926,614 927,614 927,612 928,612 928,613 929,613 929,613 930,611 930,611 931,613 931,613 932,610 932,610 933,608 933,608 934,610 935,610 935,611 936,611 936,611 937,605 937,605 938,605 938,605 939,606 939,606 940,606 940,606 941,606 941,605 942,603 942,603 943,603 943,603 944,603 945,604 945,604 946,604 946,604 947,604 947,604 948,605 948,605 949,605 949,603 950,603 950,604 951,604 951,602 952,602 952,603 953,603 953,603 954,603 954,603 955,600 956,600 956,598 957,598 957,598 958,598 958,599 959,599 959,597 960,597 960,597 961,598 961,596 962,596 962,594 963,595 963,595 964,595 964,595 964,595 965,595 965,596 966,596 967,596 967,596 968,596 968,597 969,597 969,597 970,597 970,597 971,596 971,596 972,596 972,596 973,596 973,594 974,594 974,593 975,593 975,593 976,594 977,590 977,590 978,590 978,591 979,591 979,591 980,591 980,591 981,591 981,592 982,592 982,592 983,592 983,592 984,593 984,593 985,593 985,590 986,590 986,590 987,590 988,590 988,590 989,590 989,591 990,591 990,591 991,591 991,591 992,592 992,592 993,592 993,590 994,590 994,591 995,591 995,591 996,591 996,593 997,595 997,595 998,595 999,596 999,594 1000,594 1000,594 1001,594 1001,595 1002,593 1002,593 1003,594 1003,594 1004,592 1004,591 1005,591 1005,591 1006,592 1006,592 1007,592 1007,592 1008,593 1009,593 1009,591 1010,590 1010,590 1011,590 1011,589 1012,589 1012,587 1013,588 1013,588 1014,587 1014,585 1015,584 1015,584 1016,584 1016,583 1017,583 1017,583 1018,583 1018,583 1019,583 1020,584 1020,584 1021,584 1021,584 1022,584 1022,585 1023,582 1023,582 1024,581 1024,581 1025,581 1025,582 1026,580 1026,580 1027,581 1027,581 1028,581 1028,580 1029,575 1029,575 1030,577 1031,577 1031,574 1032,574 1032,575 1033,573 1033,573 1034,574 1034,574 1035,575 1035,575 1036,575 1036,577 1037,577 1037,577 1038,577 1038,574 1038,574 1038,574 1039,574 1039,574 1039,575 1040,575 1040,575 1041,575 1041,575 1041,575 1042,575 1042,575 1042,575 1042,576 1043,576 1043,576 1043,576 1043,575 1044,575 1044,575 1044,575 1044,572 1045,572 1045,572 1045,572 1045,572 1046,572 1046,572 1046,571 1047,571 1047,571 1047,572 1048,572 1048,572 1048,572 1048,571 1049,571 1049,571 1049,571 1049,571 1050,571 1050,571 1050,571 1050,571 1051,568 1052,568 1052,569 1052,569 1052,569 1053,569 1053,569 1053,569 1053,568 1054,568 1054,568 1054,568 1054,568 1055,568 1055,569 1055,569 1055,569 1056,569 1056,569 1056,569 1057,569 1057,569 1057,569 1057,570 1058,570 1058,570 1058,570 1058,570 1059,570 1059,570 1059,570 1059,570 1060,570 1060,571 1060,571 1060,571 1061,571 1061,571 1061,571 1061,570 1062,570 1062,570 1063,570 1063,570 1064,570 1064,569 1064,569 1064,569 1065,569 1065,570 1065,570 1065,570 1066,570 1066,570 1066,570 1066,569 1067,569 1067,569 1067,569 1067,569 1068,569 1068,570 1068,568 1069,568 1069,567 1069,567 1069,564 1070,564 1070,565 1070,565 1070,565 1071,565 1071,565 1071,565 1072,565 1072,564 1073,564 1073,564 1073,564 1073,563 1074,563 1074,563 1074,563 1074,564 1075,564 1075,564 1075,564 1075,564 1076,564 1076,563 1076,563 1076,563 1077,563 1077,563 1077,563 1077,559 1078,559 1078,560 1078,560 1078,560 1079,560 1079,560 1079,560 1079,560 1080,560 1080,562 1080,562 1080,562 1081,562 1081,561 1081,561 1082,561 1082,562 1082,562 1082,562 1083,562 1083,562 1084,562 1084,563 1084,563 1084,563 1085,563 1085,563 1085,563 1085,563 1086,563 1086,562 1086,562 1086,562 1087,558 1087,558 1087,558 1088,558 1088,557 1088,557 1088,557 1089,557 1089,556 1089,556 1089,557 1090,557 1090,556 1091,556 1091,556 1091,556 1092,556 1092,556 1092,556 1092,555 1093,555 1093,555 1093,555 1093,555 1094,555 1094,556 1095,556 1095,556 1095,556 1095,556 1096,556 1096,556 1096,556 1096,556 1097,556 1097,557 1097,557 1098,557 1098,557 1098,557 1098,557 1099,557 1099,558 1099,558 1099,558 1100,558 1100,558 1100,558 1100,558 1101,558 1101,557 1101,557 1101,557 1102,557 1102,556 1102,556 1102,556 1103,556 1103,556 1103,556 1103,554 1104,554 1104,554 1105,554 1105,555 1105,555 1105,553 1106,554 1106,554 1106,554 1107,554 1107,554 1107,554 1107,554 1108,554 1108,553 1108,553 1108,553 1109,553 1109,554 1109,554 1109,554 1110,554 1110,554 1110,554 1111,554 1111,555 1111,555 1111,553 1112,553 1112,552 1112,552 1112,553 1113,553 1113,551 1113,551 1113,552 1114,552 1114,552 1114,552 1114,552 1115,552 1115,552 1116,552 1116,552 1116,552 1116,553 1117,553 1117,550 1117,550 1117,551 1118,551 1118,550 1118,550 1118,550 1119,550 1119,550 1119,550 1119,550 1120,551 1120,551 1120,551 1121,551 1121,551 1121,551 1121,550 1122,550 1122,550 1122,550 1122,551 1123,551 1123,551 1123,551 1123,551 1124,551 1124,551 1124,551 1124,551 1125,551 1125,552 1125,552 1125,551 1126,551 1126,550 1127,550 1127,549 1127,549 1127,549 1128,549 1128,549 1128,549 1128,549 1129,549 1129,550 1129,550 1129,549 1130,549 1130,549 1130,549 1130,548 1131,548 1131,547 1131,547 1131,547 1132,547 1132,545 1132,545 1132,544 1133,544 1133,544 1133,544 1133,544 1134,544 1134,545 1134,544 1135,544 1135,543 1135,543 1135,542 1136,542 1137,542 1137,542 1137,542 1137,542 1138,542 1138,543 1138,543 1138,543 1139,543 1139,541 1139,541 1139,541 1140,541 1140,541 1140,541 1140,541 1141,541 1141,542 1141,542 1141,542 1142,542 1142,542 1142,542 1143,542 1143,542 1143,542 1143,543 1144,543 1144,539 1144,539 1144,538 1145,538 1145,537 1145,537 1145,535 1146,535 1146,534 1146,534 1146,534 1147,534 1147,530 1148,530 1148,530 1148,530 1148,529 1149,529 1149,529 1149,529 1149,528 1150,528 1150,528 1150,528 1150,529 1151,529 1151,529 1151,529 1151,529 1152,529 1152,529 1152,529 1152,530 1153,530 1153,530 1153,530 1153,530 1154,530 1154,530 1154,530 1154,531 1155,531 1155,531 1155,531 1155,531 1156,531 1156,531 1156,531 1156,533 1157,533 1157,533 1157,533 1157,533 1158,533 1158,533 1159,533 1159,533 1159,533 1159,532 1160,532 1160,532 1160,532 1160,531 1161,531 1161,531 1161,531 1161,531 1162,531 1162,531 1162,531 1162,532 1163,532 1163,531 1163,531 1163,531 1164,531 1164,530 1164,530 1164,530 1165,530 1165,530 1165,530 1165,530 1166,530 1166,530 1166,531 1167,531 1167,531 1167,531 1167,530 1168,530 1168,529 1169,529 1169,529 1169,529 1169,529 1170,529 1170,526 1170,526 1170,526 1171,526 1171,526 1171,526 1171,527 1172,527 1172,527 1172,527 1172,527 1173,527 1173,527 1173,527 1173,527 1174,527 1174,528 1174,528 1174,527 1175,527 1175,527 1175,527 1175,528 1176,528 1176,528 1176,528 1176,536 1177,536 1177,536 1177,536 1178,536 1178,536 1178,536 1178,537 1179,537 1179,536 1180,535 1180,535 1180,536 1181,536 1181,536 1181,536 1181,536 1182,536 1182,537 1182,537 1182,537 1183,537 1183,537 1183,537 1183,537 1184,537 1184,537 1184,537 1184,536 1185,536 1185,535 1185,535 1185,536 1186,536 1186,536 1186,536 1186,536 1187,536 1187,534 1187,534 1187,533 1188,533 1188,534 1188,534 1188,534 1189,533 1189,532 1190,532 "/>
<polyline fill="none" opacity="1" stroke="#19E5E6" stroke-width="2" points="60,700 80,669 95,646 100,620 103,592 104,501 107,479 111,458 112,461 113,463 114,464 116,523 118,527 118,501 119,502 120,503 121,481 122,405 123,408 124,410 125,413 126,414 127,417 128,420 128,421 129,398 130,399 130,376 132,378 132,380 134,384 135,386 136,387 136,389 137,390 138,391 138,392 139,394 141,375 141,376 142,378 143,380 144,381 144,382 146,362 147,364 147,365 148,366 150,369 151,370 151,372 152,373 152,373 153,353 153,354 154,291 154,293 155,294 156,296 157,297 158,301 159,302 159,304 160,304 160,307 161,308 162,312 163,313 164,315 165,318 165,319 166,320 167,321 167,322 168,323 168,324 169,326 170,327 170,328 171,331 172,334 173,335 174,316 174,317 176,318 176,319 178,322 178,323 179,323 179,324 180,325 181,327 182,328 182,328 183,310 183,311 184,312 184,313 185,314 186,315 186,316 187,317 188,318 188,319 189,319 189,320 190,321 190,321 191,322 191,304 192,305 192,305 193,306 193,308 194,309 194,309 195,310 195,312 196,314 197,315 199,319 199,319 200,321 201,322 201,305 202,306 203,308 203,274 204,275 204,276 205,277 206,278 206,262 207,263 207,263 208,264 208,265 209,266 210,249 210,249 211,250 211,251 212,251 212,253 213,255 213,256 214,257 214,258 215,259 215,260 216,261 216,262 217,262 217,263 218,248 219,251 220,253 221,256 221,256 222,256 223,258 224,259 224,261 225,262 226,263 227,264 227,249 228,250 228,235 229,237 230,239 231,240 231,226 232,227 232,228 233,230 234,231 234,232 235,233 235,235 236,237 237,238 237,238 238,239 238,240 239,241 239,242 240,243 240,228 241,229 242,231 243,218 243,219 244,220 244,220 245,221 245,222 246,222 246,224 247,225 247,226 248,227 248,228 249,245 249,232 250,232 250,233 251,234 252,235 253,237 253,238 254,225 254,213 255,214 255,214 256,216 256,218 257,205 257,206 258,207 258,208 259,209 259,209 260,211 260,212 261,213 261,214 262,215 263,216 263,217 264,219 264,220 265,221 265,222 266,223 266,225 267,226 267,228 268,230 268,231 269,231 269,232 270,234 270,235 271,235 271,236 272,237 272,238 273,240 274,240 274,241 275,242 275,243 276,243 276,245 277,245 277,247 278,247 278,248 279,249 279,250 280,252 280,253 281,254 281,255 282,257 282,257 283,258 284,260 284,249 285,238 285,238 286,239 286,227 287,228 287,229 288,230 288,218 289,219 289,220 290,221 290,222 291,223 291,223 292,224 292,225 293,226 293,227 294,228 295,216 295,217 296,206 296,207 297,196 297,185 298,187 298,188 299,189 300,192 300,194 301,195 301,196 302,197 302,197 303,198 303,200 304,200 304,201 305,202 306,203 306,204 307,205 307,206 308,206 308,208 309,209 309,209 310,210 310,211 311,213 311,213 312,215 312,216 313,217 313,207 314,196 314,197 315,198 316,199 316,200 317,201 317,191 318,191 318,192 319,193 319,195 320,195 320,196 321,197 321,198 322,199 322,200 323,202 324,213 324,214 325,215 325,217 326,217 327,218 327,219 328,220 328,210 329,211 329,212 330,213 330,214 331,215 331,216 332,217 332,218 333,219 333,220 334,211 334,211 335,212 335,212 336,213 336,214 337,214 338,214 338,215 339,217 339,217 340,218 340,219 341,220 341,221 342,222 342,223 343,223 343,224 344,225 344,226 345,227 345,228 346,229 346,229 347,230 348,231 348,232 349,234 349,235 350,236 350,226 351,217 351,208 352,209 352,209 353,210 353,211 354,212 354,212 355,213 355,213 356,214 356,215 357,216 357,217 358,218 359,219 359,220 360,221 360,222 361,223 361,224 362,226 362,227 363,228 363,229 364,221 364,222 365,222 365,223 366,224 366,225 367,216 367,217 368,218 368,219 369,220 370,221 370,222 371,232 371,233 372,235 372,218 373,218 373,220 374,220 374,212 375,213 375,214 376,206 376,207 377,207 377,208 378,209 378,210 379,211 380,212 380,212 381,212 381,213 382,214 382,215 383,216 383,217 384,221 385,222 385,223 386,224 386,224 387,225 387,226 388,227 388,228 389,237 389,238 390,239 391,240 391,240 392,241 392,242 393,245 393,246 394,247 394,247 395,247 395,248 396,249 396,249 397,250 397,251 398,260 398,261 399,261 399,261 400,262 400,263 401,265 402,265 402,265 403,266 403,267 404,260 404,260 405,261 405,261 406,262 406,263 407,256 407,256 408,265 408,266 409,266 409,267 410,259 410,260 411,261 412,253 412,254 413,254 413,247 414,248 414,249 415,241 415,242 416,235 416,243 417,244 417,245 418,237 418,238 419,239 419,240 420,232 420,234 421,237 421,238 422,238 423,239 423,240 424,241 424,227 425,228 425,228 426,230 426,231 427,231 427,241 428,242 428,235 429,236 429,236 430,237 430,238 431,239 431,240 432,241 432,242 433,243 434,244 434,244 435,245 435,246 436,246 436,240 437,242 437,242 438,235 438,229 439,230 439,230 440,231 440,232 441,233 441,234 442,235 442,228 443,237 444,238 444,240 445,240 445,241 446,242 446,243 447,244 447,245 448,246 448,246 449,247 449,248 450,248 450,249 451,243 451,244 452,245 452,246 453,246 453,247 454,248 455,249 455,250 456,251 456,252 457,253 457,253 458,247 458,248 459,249 459,243 460,237 460,238 461,226 461,227 462,228 462,229 463,231 463,232 464,232 464,233 465,234 466,228 466,229 467,229 467,231 468,231 468,231 469,232 469,233 470,234 470,235 471,236 471,237 472,238 472,239 473,240 473,240 474,241 474,242 475,236 476,236 476,230 477,231 477,232 478,232 478,234 479,228 479,229 480,230 480,224 481,218 481,219 482,220 482,221 483,221 483,222 484,223 484,224 485,224 485,225 486,226 487,227 487,228 488,229 488,229 489,230 489,219 490,220 490,220 491,221 491,222 492,222 492,223 493,217 493,219 494,219 494,221 495,222 495,223 496,223 496,224 497,225 498,226 498,226 499,227 499,228 500,229 500,229 501,230 501,231 502,232 502,235 503,236 503,237 504,238 504,238 505,239 505,240 506,241 506,242 507,243 508,243 508,244 509,246 509,246 510,247 510,249 511,250 511,251 512,252 512,253 513,253 513,254 514,254 514,250 515,251 515,246 516,247 516,247 517,248 517,243 518,244 519,245 519,247 520,248 520,249 521,249 521,250 522,251 522,251 523,246 523,247 524,237 524,232 525,233 525,233 526,233 526,234 527,235 527,236 528,237 528,237 529,238 530,233 530,233 531,234 531,235 532,235 532,237 533,227 533,228 534,229 534,229 535,230 535,231 536,232 536,232 537,234 537,234 538,235 538,235 539,236 540,236 540,237 541,238 541,239 542,240 542,241 543,241 543,242 544,243 544,238 545,238 545,239 546,240 546,240 547,236 547,236 548,237 548,238 549,239 549,240 550,241 551,241 551,242 552,242 552,243 553,243 553,239 554,240 554,240 555,241 555,242 556,237 556,243 557,244 557,245 558,246 558,247 559,247 559,248 560,248 560,249 561,250 562,250 562,251 563,251 563,252 564,253 564,254 565,254 565,255 566,255 566,256 567,257 567,257 568,258 568,259 569,259 569,260 570,261 570,263 571,263 572,264 572,265 573,265 573,266 574,267 574,267 575,268 575,263 576,264 576,270 577,270 577,271 578,272 578,273 579,274 579,274 580,275 580,276 581,276 581,277 583,278 583,279 584,279 584,280 585,280 585,281 586,282 586,283 587,283 587,284 588,285 588,285 589,286 589,292 590,292 590,293 591,294 591,294 592,295 592,296 593,297 594,298 594,298 595,299 595,299 596,300 596,296 597,297 597,297 598,297 598,298 599,298 599,299 600,295 600,295 601,296 601,296 602,292 602,293 603,294 604,294 604,295 605,295 605,296 606,297 606,297 607,298 607,299 608,299 608,299 609,300 609,300 610,301 610,302 611,303 611,303 612,304 612,304 613,300 613,301 614,301 615,302 615,302 616,303 616,303 617,304 617,304 618,305 618,305 619,306 619,307 620,307 620,308 621,308 621,309 622,309 622,310 623,310 623,311 624,303 625,303 625,304 626,305 626,284 627,285 627,285 628,286 628,287 629,288 629,288 630,289 630,289 631,290 631,291 632,291 632,292 633,292 633,293 634,285 634,285 635,286 636,287 636,287 637,288 637,290 638,291 638,291 639,292 639,292 640,293 640,294 641,295 641,299 642,300 642,301 643,302 643,302 644,303 644,303 645,304 645,305 646,305 647,306 647,307 648,307 648,308 649,309 649,310 650,310 650,307 651,308 651,308 652,309 652,309 653,310 653,306 654,307 654,307 655,308 655,308 656,309 657,310 657,311 658,311 658,308 659,310 659,310 660,311 660,312 661,312 661,313 662,313 662,314 663,315 663,315 664,316 664,316 665,317 665,310 666,311 666,312 667,313 668,313 668,314 669,315 669,311 670,312 670,312 671,313 671,313 672,314 672,311 673,311 673,312 674,312 674,313 675,313 675,314 676,314 676,315 677,316 677,309 678,306 679,306 679,303 680,304 680,304 681,305 681,305 682,302 682,302 683,303 683,304 684,304 684,305 685,306 685,307 686,307 686,307 687,308 687,309 688,309 689,309 689,310 690,332 690,333 691,333 691,334 692,334 692,335 693,335 693,332 694,333 694,333 695,333 695,334 696,334 696,334 697,335 697,332 698,332 698,333 699,333 700,334 700,334 701,335 701,335 702,335 702,336 703,336 703,336 704,337 704,337 705,338 705,338 706,339 706,339 707,340 707,340 708,340 708,341 709,341 709,342 710,342 711,343 711,343 712,343 712,347 713,348 713,348 714,349 714,349 715,349 715,350 716,350 716,350 717,351 717,351 718,352 718,352 719,352 719,353 720,353 721,354 721,354 722,354 722,355 723,355 723,356 724,356 724,357 725,357 725,358 726,358 726,358 727,359 727,356 728,356 728,357 729,357 729,357 730,358 730,358 731,359 732,356 732,357 733,357 733,358 734,358 734,359 735,359 735,361 736,362 736,362 737,363 737,363 738,364 738,364 739,365 739,365 740,366 740,366 741,367 741,367 742,368 743,368 743,369 744,369 744,370 745,372 745,370 746,370 746,371 747,371 747,373 748,374 748,374 749,375 749,375 750,376 750,376 751,376 751,377 752,377 753,378 753,378 754,379 754,379 755,380 755,380 756,380 756,378 757,378 757,379 758,379 758,379 759,377 759,377 760,378 760,378 761,379 761,379 761,379 762,380 762,380 763,381 764,381 764,382 765,379 765,380 766,381 766,379 767,379 767,379 768,380 768,380 769,381 769,381 770,382 770,383 771,384 771,388 772,385 772,385 773,386 773,386 774,387 775,387 775,388 776,388 776,389 777,384 777,384 778,385 778,385 779,386 779,386 780,384 780,385 781,383 781,384 782,384 782,384 783,385 783,385 784,386 785,386 785,386 786,387 786,388 787,388 787,389 788,389 788,389 789,390 789,390 790,391 790,391 791,392 791,392 792,392 792,393 793,393 793,394 794,394 794,394 795,395 796,395 796,395 797,396 797,396 798,397 798,397 799,397 799,398 800,398 800,399 801,399 801,400 802,398 802,398 803,401 803,401 804,402 804,402 805,400 805,401 806,401 807,402 807,402 808,402 808,403 809,403 809,404 810,404 810,399 811,400 811,400 812,400 812,401 813,404 813,405 814,408 814,408 815,409 815,409 816,423 817,426 818,414 818,412 819,412 819,413 820,413 820,414 821,414 821,414 822,415 822,415 823,415 823,416 824,414 824,414 825,415 825,415 826,416 826,413 827,414 828,414 828,415 829,415 829,416 830,416 830,417 831,417 831,418 832,421 832,421 833,422 833,422 834,422 834,423 835,423 835,424 836,424 836,425 837,425 837,425 838,426 839,427 839,427 840,428 840,428 841,429 841,429 842,429 842,430 843,430 843,431 844,431 844,432 845,432 845,432 846,433 846,433 847,436 847,436 848,437 849,437 849,438 850,435 850,436 851,439 851,439 852,440 852,438 853,438 853,438 854,439 854,439 855,440 855,440 856,438 856,439 857,439 857,440 858,440 858,440 859,441 860,441 860,441 861,442 861,442 862,443 862,443 863,443 863,444 864,444 864,444 865,445 865,445 866,446 866,446 867,446 867,447 868,447 868,445 869,446 869,446 870,446 871,446 871,447 872,447 872,447 873,448 873,448 874,448 874,449 875,449 875,449 876,450 876,450 877,451 877,452 878,452 878,453 879,453 879,454 880,454 881,455 881,455 882,455 882,456 883,456 883,454 884,455 884,455 885,455 885,456 886,456 886,456 887,457 887,457 888,457 888,458 889,458 889,458 890,461 890,461 891,460 892,460 892,460 893,461 893,461 894,461 894,462 895,460 895,460 896,461 896,461 897,461 897,462 898,462 898,462 899,463 899,463 900,463 900,461 901,462 901,462 902,462 903,462 903,463 904,463 904,463 905,463 905,464 906,464 906,465 907,465 907,466 908,466 908,466 909,466 909,467 910,467 910,470 911,470 911,470 912,471 913,471 913,471 914,472 914,472 915,474 915,472 916,473 916,473 917,473 917,474 918,474 918,474 919,475 919,475 920,476 920,476 921,476 921,477 922,477 922,477 923,478 924,476 924,477 925,477 925,477 926,477 926,478 927,478 927,478 928,479 928,477 929,477 929,478 930,478 930,480 931,480 931,481 932,481 932,481 933,482 933,482 934,482 935,483 935,483 936,483 936,481 937,482 937,482 938,482 938,482 939,483 939,483 940,483 940,484 941,482 941,483 942,483 942,483 943,483 943,482 944,482 945,483 945,483 946,483 946,484 947,484 947,484 948,484 948,484 949,485 949,485 950,485 950,486 951,487 951,487 952,487 952,488 953,488 953,488 954,489 954,489 955,489 956,489 956,489 957,490 957,490 958,490 958,490 959,491 959,491 960,491 960,492 961,492 961,492 962,493 962,493 963,493 963,494 964,494 964,494 964,494 965,494 965,495 966,495 967,495 967,496 968,496 968,496 969,497 969,497 970,497 970,496 971,496 971,496 972,496 972,497 973,497 973,497 974,497 974,498 975,498 975,498 976,499 977,501 977,501 978,503 978,503 979,503 979,504 980,504 980,504 981,504 981,505 982,505 982,505 983,506 983,506 984,506 984,506 985,505 985,504 986,504 986,504 987,504 988,504 988,505 989,505 989,505 990,505 990,506 991,506 991,503 992,503 992,503 993,498 993,499 994,499 994,499 995,500 995,500 996,500 996,501 997,501 997,503 998,503 999,503 999,504 1000,504 1000,504 1001,504 1001,505 1002,505 1002,505 1003,506 1003,506 1004,506 1004,507 1005,505 1005,503 1006,503 1006,503 1007,504 1007,504 1008,504 1009,505 1009,505 1010,505 1010,505 1011,506 1011,506 1012,506 1012,506 1013,507 1013,508 1014,508 1014,510 1015,510 1015,510 1016,511 1016,511 1017,511 1017,511 1018,512 1018,512 1019,512 1020,512 1020,513 1021,513 1021,513 1022,513 1022,514 1023,513 1023,513 1024,514 1024,512 1025,513 1025,513 1026,513 1026,514 1027,514 1027,514 1028,514 1028,515 1029,515 1029,515 1030,515 1031,516 1031,516 1032,516 1032,517 1033,518 1033,519 1034,519 1034,518 1035,519 1035,519 1036,519 1036,519 1037,520 1037,520 1038,520 1038,520 1038,520 1038,520 1039,521 1039,521 1039,521 1040,521 1040,521 1041,521 1041,521 1041,520 1042,520 1042,520 1042,520 1042,520 1043,520 1043,521 1043,521 1043,521 1044,521 1044,521 1044,521 1044,522 1045,522 1045,522 1045,522 1045,522 1046,522 1046,522 1046,523 1047,523 1047,523 1047,523 1048,523 1048,524 1048,524 1048,524 1049,524 1049,524 1049,524 1049,524 1050,524 1050,524 1050,524 1050,525 1051,525 1052,525 1052,525 1052,525 1052,525 1053,525 1053,526 1053,526 1053,526 1054,526 1054,527 1054,527 1054,527 1055,527 1055,527 1055,528 1055,529 1056,529 1056,529 1056,529 1057,529 1057,528 1057,528 1057,528 1058,528 1058,528 1058,528 1058,529 1059,529 1059,529 1059,529 1059,528 1060,528 1060,528 1060,528 1060,528 1061,528 1061,529 1061,529 1061,529 1062,529 1062,529 1063,531 1063,531 1064,531 1064,531 1064,531 1064,532 1065,532 1065,532 1065,532 1065,532 1066,532 1066,532 1066,532 1066,533 1067,533 1067,531 1067,531 1067,532 1068,532 1068,532 1068,532 1069,532 1069,533 1069,533 1069,533 1070,533 1070,533 1070,533 1070,533 1071,533 1071,534 1071,534 1072,534 1072,534 1073,534 1073,535 1073,535 1073,535 1074,535 1074,535 1074,535 1074,535 1075,535 1075,536 1075,536 1075,536 1076,536 1076,538 1076,538 1076,538 1077,538 1077,538 1077,538 1077,538 1078,538 1078,538 1078,538 1078,539 1079,539 1079,539 1079,539 1079,539 1080,539 1080,540 1080,540 1080,540 1081,540 1081,540 1081,540 1082,540 1082,541 1082,541 1082,541 1083,541 1083,542 1084,542 1084,540 1084,540 1084,541 1085,541 1085,541 1085,541 1085,541 1086,541 1086,541 1086,541 1086,541 1087,542 1087,542 1087,542 1088,542 1088,542 1088,542 1088,542 1089,542 1089,543 1089,543 1089,541 1090,542 1090,542 1091,542 1091,542 1091,542 1092,542 1092,542 1092,542 1092,543 1093,543 1093,543 1093,543 1093,543 1094,543 1094,543 1095,543 1095,544 1095,544 1095,544 1096,544 1096,544 1096,544 1096,544 1097,544 1097,544 1097,545 1098,545 1098,545 1098,545 1099,545 1099,545 1099,545 1099,546 1100,546 1100,546 1100,546 1100,546 1101,546 1101,546 1101,546 1101,546 1102,546 1102,547 1102,547 1102,547 1103,547 1103,547 1103,547 1103,547 1104,547 1104,548 1105,548 1105,548 1105,548 1105,548 1106,548 1106,548 1106,549 1107,549 1107,549 1107,549 1107,549 1108,549 1108,549 1108,549 1108,549 1109,549 1109,550 1109,550 1109,550 1110,552 1110,552 1110,552 1111,552 1111,552 1111,552 1111,552 1112,552 1112,552 1112,552 1112,553 1113,553 1113,553 1113,553 1113,552 1114,552 1114,552 1114,552 1114,552 1115,552 1115,552 1116,552 1116,552 1116,552 1116,553 1117,553 1117,553 1117,553 1117,553 1118,553 1118,553 1118,553 1118,554 1119,554 1119,554 1119,554 1119,554 1120,554 1120,554 1120,555 1121,555 1121,555 1121,555 1121,555 1122,555 1122,555 1122,556 1122,556 1123,556 1123,556 1123,556 1123,556 1124,556 1124,556 1124,556 1124,557 1125,557 1125,557 1125,557 1125,557 1126,557 1126,557 1127,557 1127,558 1127,558 1127,558 1128,558 1128,558 1128,558 1128,558 1129,558 1129,558 1129,558 1129,559 1130,559 1130,558 1130,558 1130,558 1131,558 1131,558 1131,558 1131,558 1132,558 1132,559 1132,559 1132,559 1133,559 1133,559 1133,559 1133,559 1134,559 1134,559 1134,560 1135,560 1135,560 1135,560 1135,560 1136,560 1137,560 1137,560 1137,560 1137,561 1138,561 1138,561 1138,561 1138,561 1139,561 1139,561 1139,561 1139,562 1140,562 1140,562 1140,562 1140,562 1141,562 1141,562 1141,562 1141,562 1142,563 1142,563 1143,563 1143,563 1143,563 1143,563 1144,563 1144,563 1144,563 1144,564 1145,564 1145,564 1145,564 1145,564 1146,564 1146,564 1146,564 1146,565 1147,565 1147,565 1148,565 1148,565 1148,565 1148,565 1149,565 1149,565 1149,565 1149,564 1150,564 1150,564 1150,564 1150,565 1151,565 1151,565 1151,565 1151,565 1152,565 1152,565 1152,565 1152,565 1153,565 1153,566 1153,566 1153,566 1154,566 1154,566 1154,566 1154,566 1155,566 1155,566 1155,566 1155,567 1156,567 1156,567 1156,567 1156,567 1157,567 1157,567 1157,567 1157,567 1158,567 1158,567 1159,567 1159,568 1159,568 1159,568 1160,568 1160,568 1160,568 1160,568 1161,568 1161,567 1161,567 1161,567 1162,567 1162,568 1162,568 1162,568 1163,568 1163,568 1163,568 1163,568 1164,568 1164,568 1164,568 1164,568 1165,568 1165,568 1165,568 1165,568 1166,568 1166,569 1166,569 1167,569 1167,569 1167,569 1167,569 1168,569 1168,571 1169,571 1169,571 1169,571 1169,571 1170,571 1170,571 1170,571 1170,571 1171,571 1171,571 1171,571 1171,571 1172,571 1172,572 1172,572 1172,572 1173,572 1173,572 1173,572 1173,572 1174,572 1174,572 1174,572 1174,573 1175,573 1175,573 1175,573 1175,573 1176,573 1176,572 1176,572 1176,578 1177,579 1177,579 1177,579 1178,579 1178,579 1178,579 1178,579 1179,579 1179,578 1180,578 1180,578 1180,579 1181,579 1181,579 1181,579 1181,579 1182,579 1182,579 1182,579 1182,579 1183,579 1183,578 1183,578 1183,578 1184,578 1184,578 1184,578 1184,579 1185,579 1185,579 1185,579 1185,579 1186,579 1186,579 1186,579 1186,579 1187,579 1187,578 1187,578 1187,578 1188,578 1188,578 1188,578 1188,579 1189,579 1189,579 1190,579 "/>
<polyline fill="none" opacity="1" stroke="#1919E6" stroke-width="2" points="408,736 462,730 508,726 528,722 535,717 548,712 549,707 549,707 550,702 551,702 552,702 553,697 556,692 557,693 558,693 558,693 559,693 560,693 561,693 562,693 562,693 563,693 563,693 564,693 564,694 565,694 566,694 569,694 570,694 571,695 572,695 572,695 573,695 574,695 575,695 576,695 576,695 577,695 578,695 578,696 579,696 579,696 580,696 581,696 581,696 582,696 583,696 583,696 584,696 584,696 585,696 586,696 587,697 589,697 589,697 591,697 592,697 592,697 594,698 596,698 596,689 597,689 599,689 599,689 600,689 600,689 601,689 602,689 604,690 605,690 606,690 607,690 607,690 608,686 609,686 610,686 610,686 611,686 611,686 612,686 612,686 613,686 613,686 614,686 615,682 617,682 618,683 618,683 619,683 620,683 620,683 621,683 621,683 622,683 622,683 623,683 623,683 624,683 625,684 625,684 626,684 627,684 627,684 628,684 629,684 629,684 630,685 631,685 631,685 632,685 632,685 633,685 634,685 634,685 635,685 636,685 637,685 638,686 638,686 639,686 639,686 640,686 640,686 641,686 641,686 642,687 642,687 643,687 643,683 644,683 645,679 646,679 647,679 647,679 648,679 648,679 649,680 649,680 650,680 650,680 651,680 651,680 652,680 652,680 653,680 654,680 654,681 655,681 656,681 657,681 657,681 658,681 658,681 659,681 659,678 660,678 660,678 661,678 661,674 662,674 662,674 663,674 663,675 664,675 664,675 665,675 665,675 666,675 666,675 667,675 668,675 668,676 669,676 669,676 670,676 670,676 671,676 671,676 672,676 672,676 673,676 673,676 674,676 674,677 675,677 675,673 676,669 676,666 677,666 679,666 679,666 680,666 680,666 681,667 681,667 682,667 682,667 683,667 683,667 684,667 684,667 685,667 685,668 686,668 687,668 687,668 688,668 689,668 689,668 690,668 690,668 691,668 691,669 692,665 692,665 693,665 693,665 694,665 694,665 695,666 695,662 696,662 696,662 697,662 697,662 698,662 698,659 699,659 700,659 700,659 701,659 701,659 702,660 702,660 703,660 703,660 704,660 704,660 705,660 705,660 706,660 706,660 707,660 707,657 708,657 708,657 709,657 709,657 710,657 711,658 711,658 712,658 712,658 713,658 713,658 714,658 714,658 715,658 715,658 716,655 716,655 717,655 717,655 718,652 718,652 719,652 719,652 720,652 721,652 721,653 722,653 722,653 723,653 723,653 724,653 724,653 725,653 725,653 726,653 726,654 727,654 727,650 728,650 728,651 729,651 729,651 730,651 730,651 731,651 732,648 732,648 733,648 733,648 734,648 734,649 735,649 735,649 736,646 736,646 737,646 737,646 738,647 738,647 739,647 739,647 740,647 740,644 741,644 741,644 742,638 743,638 743,638 744,638 744,639 745,639 745,639 746,639 746,640 747,640 747,640 748,641 748,641 749,641 749,641 750,641 750,638 751,638 752,638 753,639 753,639 754,639 754,639 755,639 755,639 756,639 756,639 757,640 757,640 758,640 758,640 759,640 759,640 760,637 760,637 761,638 761,638 761,638 762,638 762,638 763,638 764,638 764,638 765,639 765,639 766,639 766,639 767,639 767,639 768,640 768,640 769,640 769,640 770,637 770,637 771,638 771,639 772,638 772,638 773,638 773,638 774,639 775,636 775,636 776,636 776,636 777,637 777,637 778,637 778,637 779,637 779,637 780,637 780,638 781,635 781,635 782,638 782,638 783,639 783,639 784,639 785,639 785,639 786,636 786,637 787,634 787,634 788,634 788,634 789,634 789,635 790,635 790,635 791,635 791,635 792,635 792,635 793,635 793,636 794,636 794,636 795,636 796,636 796,636 797,636 797,636 798,637 798,637 799,637 799,637 800,637 800,637 801,637 801,638 802,638 802,638 803,638 803,638 804,638 804,638 805,638 805,639 806,639 807,639 807,639 808,639 808,639 809,639 809,640 810,640 811,640 811,640 812,640 812,640 813,641 813,638 814,638 814,638 815,636 815,636 816,640 817,638 817,638 818,634 818,632 819,632 819,632 820,627 820,624 821,622 821,622 822,622 822,622 823,622 823,623 824,623 824,623 825,621 825,621 826,618 826,618 827,619 828,619 828,616 829,617 829,617 830,617 830,617 831,617 831,618 832,615 832,615 833,616 833,616 834,616 834,616 835,616 835,614 836,614 836,614 837,614 837,615 838,617 839,618 839,618 840,618 840,618 841,618 841,619 842,619 842,619 843,619 843,619 844,619 844,620 845,620 845,620 846,620 846,620 847,620 847,618 848,618 849,618 849,616 850,616 850,616 851,617 851,617 852,612 852,612 853,613 853,613 854,613 854,613 855,613 855,614 856,614 856,614 857,614 857,614 858,614 858,615 859,615 860,615 860,615 861,615 861,615 862,616 862,616 863,616 863,616 864,616 864,616 865,617 865,617 866,617 866,617 867,617 867,617 868,618 868,618 869,618 869,618 870,618 871,616 871,616 872,616 872,616 873,616 873,614 874,614 874,615 875,613 875,613 876,610 876,608 877,609 877,609 878,607 878,607 879,608 879,608 880,606 881,604 881,604 882,604 882,605 883,605 883,603 884,603 885,603 885,603 886,603 886,603 887,604 887,604 888,604 888,604 889,604 889,604 890,602 890,603 891,603 892,603 892,603 893,603 893,604 894,604 894,604 895,604 895,602 896,602 896,602 897,603 897,603 898,601 898,601 899,601 899,601 900,601 900,597 901,598 901,598 902,600 903,600 903,600 904,600 904,600 905,601 905,601 906,601 906,601 907,601 907,602 908,602 908,602 909,602 909,603 910,603 910,603 911,603 911,601 912,599 913,595 913,595 914,595 914,596 915,594 915,594 916,594 916,594 917,594 917,595 918,595 918,595 919,595 919,595 920,596 920,596 921,594 921,594 922,592 922,593 923,593 924,593 924,593 925,593 925,593 926,594 926,594 927,594 927,594 928,594 928,595 929,595 929,593 930,593 930,593 931,593 931,596 932,596 932,596 933,596 933,596 934,596 935,597 935,597 936,597 936,597 937,597 937,597 938,597 938,598 939,598 939,598 940,598 940,598 941,597 941,597 942,597 942,597 943,597 943,598 944,598 945,594 945,594 946,595 946,595 947,593 947,593 948,593 948,593 949,592 949,592 950,592 950,592 951,593 951,593 952,591 952,589 953,590 953,590 954,590 954,590 955,590 956,590 956,591 957,591 957,591 958,591 958,591 959,591 959,592 960,592 960,592 961,592 961,592 962,592 962,591 963,591 963,589 964,589 964,590 964,588 965,586 965,586 966,587 967,587 967,587 968,585 968,586 969,586 969,586 970,586 970,586 971,585 971,585 972,585 972,585 973,585 973,585 974,585 974,586 975,582 975,583 976,583 977,583 977,583 978,581 978,582 979,582 979,582 980,582 980,582 981,583 981,583 982,583 982,583 983,583 983,584 984,582 984,582 985,582 985,579 986,579 986,579 987,580 988,580 988,578 989,578 989,578 990,579 990,579 991,579 991,579 992,579 992,580 993,580 993,580 994,580 994,580 995,580 995,581 996,579 996,579 997,580 997,580 998,580 999,580 999,580 1000,581 1000,581 1001,581 1001,581 1002,581 1002,581 1003,582 1003,582 1004,582 1004,582 1005,583 1005,583 1006,583 1006,584 1007,584 1007,584 1008,583 1009,583 1009,583 1010,583 1010,583 1011,583 1011,584 1012,582 1012,584 1013,584 1013,585 1014,585 1014,585 1015,584 1015,584 1016,584 1016,584 1017,584 1017,583 1018,583 1018,582 1019,582 1020,582 1020,582 1021,582 1021,583 1022,583 1022,581 1023,582 1023,582 1024,582 1024,581 1025,581 1025,582 1026,582 1026,582 1027,582 1027,582 1028,583 1028,583 1029,583 1029,583 1030,583 1031,583 1031,582 1032,582 1032,581 1033,581 1033,581 1034,583 1034,584 1035,584 1035,584 1036,584 1036,583 1037,583 1037,583 1038,583 1038,582 1038,582 1038,579 1039,579 1039,579 1039,579 1040,579 1040,578 1041,578 1041,578 1041,578 1042,578 1042,578 1042,578 1042,579 1043,579 1043,579 1043,579 1043,579 1044,579 1044,579 1044,579 1044,578 1045,578 1045,578 1045,578 1045,578 1046,578 1046,578 1046,579 1047,579 1047,577 1047,578 1048,578 1048,578 1048,578 1048,578 1049,578 1049,578 1049,578 1049,578 1050,578 1050,579 1050,579 1050,579 1051,579 1052,579 1052,578 1052,578 1052,578 1053,578 1053,578 1053,578 1053,579 1054,579 1054,579 1054,579 1054,579 1055,579 1055,579 1055,579 1055,578 1056,578 1056,578 1056,578 1057,578 1057,578 1057,578 1057,579 1058,579 1058,579 1058,579 1058,577 1059,577 1059,578 1059,578 1059,578 1060,578 1060,578 1060,578 1060,578 1061,578 1061,578 1061,578 1061,579 1062,579 1062,580 1063,581 1063,581 1064,581 1064,578 1064,578 1064,575 1065,575 1065,575 1065,575 1065,576 1066,576 1066,574 1066,574 1066,575 1067,575 1067,575 1067,575 1067,577 1068,577 1068,577 1068,576 1069,576 1069,576 1069,576 1069,576 1070,576 1070,576 1070,576 1070,576 1071,576 1071,576 1071,577 1072,577 1072,577 1073,577 1073,577 1073,577 1073,578 1074,578 1074,576 1074,576 1074,575 1075,575 1075,575 1075,575 1075,574 1076,574 1076,573 1076,573 1076,573 1077,573 1077,572 1077,572 1077,572 1078,572 1078,572 1078,572 1078,572 1079,572 1079,573 1079,573 1079,573 1080,573 1080,570 1080,570 1080,571 1081,571 1081,571 1081,571 1082,571 1082,571 1082,571 1082,571 1083,571 1083,571 1084,571 1084,571 1084,571 1084,568 1085,568 1085,568 1085,568 1085,569 1086,569 1086,569 1086,569 1086,569 1087,569 1087,569 1087,569 1088,569 1088,568 1088,568 1088,568 1089,568 1089,569 1089,569 1089,569 1090,569 1090,568 1091,568 1091,568 1091,568 1092,568 1092,568 1092,568 1092,567 1093,567 1093,567 1093,567 1093,568 1094,568 1094,568 1095,568 1095,567 1095,567 1095,567 1096,567 1096,567 1096,567 1096,566 1097,566 1097,566 1097,566 1098,566 1098,565 1098,565 1098,565 1099,565 1099,566 1099,566 1099,564 1100,564 1100,565 1100,565 1100,565 1101,565 1101,565 1101,565 1101,564 1102,564 1102,564 1102,564 1102,564 1103,564 1103,563 1103,563 1103,563 1104,563 1104,562 1105,562 1105,563 1105,563 1105,563 1106,563 1106,563 1106,563 1107,563 1107,562 1107,562 1107,562 1108,562 1108,562 1108,562 1108,563 1109,563 1109,563 1109,563 1109,563 1110,563 1110,563 1110,562 1111,562 1111,562 1111,562 1111,563 1112,563 1112,563 1112,563 1112,563 1113,563 1113,563 1113,563 1113,563 1114,563 1114,564 1114,564 1114,562 1115,562 1115,564 1116,564 1116,564 1116,564 1116,562 1117,562 1117,562 1117,562 1117,563 1118,563 1118,564 1118,564 1118,564 1119,564 1119,564 1119,564 1119,564 1120,565 1120,565 1120,565 1121,565 1121,565 1121,565 1121,565 1122,565 1122,566 1122,566 1122,566 1123,566 1123,566 1123,566 1123,566 1124,566 1124,567 1124,567 1124,565 1125,565 1125,566 1125,566 1125,566 1126,566 1126,566 1127,566 1127,566 1127,566 1127,567 1128,567 1128,567 1128,567 1128,566 1129,566 1129,566 1129,566 1129,565 1130,565 1130,565 1130,565 1130,565 1131,565 1131,564 1131,564 1131,565 1132,565 1132,562 1132,562 1132,563 1133,563 1133,563 1133,563 1133,563 1134,563 1134,562 1134,561 1135,561 1135,561 1135,561 1135,561 1136,562 1137,562 1137,562 1137,562 1137,562 1138,562 1138,562 1138,562 1138,563 1139,563 1139,563 1139,563 1139,563 1140,563 1140,563 1140,563 1140,563 1141,563 1141,564 1141,564 1141,561 1142,561 1142,561 1142,562 1143,562 1143,562 1143,562 1143,563 1144,563 1144,563 1144,563 1144,564 1145,564 1145,564 1145,564 1145,563 1146,563 1146,562 1146,562 1146,562 1147,562 1147,562 1148,562 1148,563 1148,563 1148,563 1149,563 1149,563 1149,563 1149,563 1150,563 1150,563 1150,563 1150,563 1151,563 1151,564 1151,564 1151,564 1152,564 1152,564 1152,564 1152,564 1153,564 1153,564 1153,564 1153,565 1154,565 1154,565 1154,565 1154,565 1155,565 1155,565 1155,565 1155,565 1156,565 1156,568 1156,568 1156,568 1157,568 1157,568 1157,568 1157,568 1158,568 1158,566 1159,566 1159,566 1159,566 1159,568 1160,568 1160,568 1160,568 1160,568 1161,568 1161,567 1161,567 1161,567 1162,567 1162,566 1162,566 1162,565 1163,565 1163,566 1163,566 1163,566 1164,566 1164,566 1164,566 1164,566 1165,566 1165,566 1165,566 1165,565 1166,565 1166,565 1166,563 1167,563 1167,563 1167,563 1167,562 1168,562 1168,562 1169,562 1169,563 1169,563 1169,563 1170,563 1170,563 1170,563 1170,563 1171,563 1171,563 1171,563 1171,562 1172,562 1172,562 1172,562 1172,561 1173,561 1173,562 1173,562 1173,561 1174,561 1174,561 1174,561 1174,561 1175,561 1175,561 1175,561 1175,562 1176,562 1176,562 1176,562 1176,569 1177,569 1177,569 1177,569 1178,569 1178,569 1178,569 1178,569 1179,569 1179,569 1180,570 1180,570 1180,570 1181,570 1181,570 1181,570 1181,570 1182,570 1182,570 1182,570 1182,570 1183,570 1183,571 1183,571 1183,571 1184,571 1184,569 1184,569 1184,569 1185,569 1185,569 1185,569 1185,569 1186,569 1186,568 1186,568 1186,567 1187,567 1187,566 1187,566 1187,565 1188,565 1188,567 1188,567 1188,566 1189,566 1189,566 1190,566 "/>
<polyline fill="none" opacity="1" stroke="#E519E6" stroke-width="2" points="345,734 370,725 386,718 392,709 400,702 400,693 401,685 407,678 408,670 421,673 424,666 428,659 431,652 434,653 441,648 445,657 447,657 449,658 450,658 451,651 451,651 452,651 452,651 453,652 454,652 455,652 458,653 459,654 460,654 460,654 461,647 463,642 466,642 466,642 468,643 468,643 469,643 470,637 470,637 471,637 481,634 483,635 484,635 485,635 486,635 487,629 487,629 488,630 489,630 490,631 491,631 491,631 492,625 492,625 493,625 494,625 494,626 495,626 498,621 499,621 499,615 500,615 501,616 504,618 505,618 506,613 509,608 510,608 511,609 513,610 514,610 515,611 515,611 516,611 517,611 517,612 519,613 521,613 522,614 522,614 523,614 527,616 527,616 528,616 530,616 530,616 532,611 533,612 533,612 534,613 535,613 536,613 536,613 541,615 542,615 542,610 543,610 543,611 545,611 545,611 546,611 547,612 548,612 549,613 549,613 550,613 552,613 552,608 554,609 555,609 556,610 557,610 558,611 559,611 559,611 560,606 560,606 561,606 562,607 563,607 563,607 564,602 564,603 567,603 567,599 568,599 568,594 569,594 569,594 570,595 571,595 572,596 572,591 573,586 573,586 574,587 574,587 575,587 575,587 576,587 576,588 577,588 577,588 578,588 578,589 579,589 579,589 580,589 580,589 581,590 581,590 582,590 583,590 583,591 584,591 585,591 585,591 586,592 586,592 587,592 587,592 588,593 588,593 589,593 589,593 590,593 590,594 591,594 591,589 592,590 592,590 593,590 594,591 594,591 595,591 595,591 596,591 596,592 597,592 597,592 598,592 598,592 599,588 599,588 600,588 600,588 601,588 601,584 602,584 602,585 603,585 604,585 604,585 605,585 605,586 606,586 606,586 607,586 607,582 608,582 608,582 609,583 609,583 610,583 610,583 611,584 611,584 612,584 612,584 613,584 613,585 614,585 615,585 615,585 616,585 616,577 617,577 617,577 618,577 618,573 619,564 619,565 620,565 620,565 621,565 621,561 622,561 622,562 623,562 623,562 624,562 625,563 625,563 626,563 626,563 627,564 627,564 628,560 628,560 629,561 629,561 630,561 630,553 631,553 631,553 632,554 632,554 633,554 633,554 634,550 634,550 635,551 636,551 636,551 637,552 637,548 638,553 638,553 639,553 639,553 640,554 640,554 641,554 641,555 642,555 642,559 643,560 643,560 644,560 644,560 645,561 645,561 646,561 647,562 647,562 648,562 648,562 649,563 649,563 650,563 650,564 651,556 651,556 652,556 652,557 653,557 653,557 654,557 654,557 655,558 655,558 656,558 657,559 657,559 658,559 658,556 659,556 659,557 660,557 660,557 661,557 661,558 662,558 662,558 663,558 663,559 664,555 664,555 665,555 665,556 666,556 666,557 667,553 668,553 668,554 669,554 669,554 670,554 670,555 671,555 671,555 672,555 672,556 673,560 673,560 674,560 674,560 675,560 675,561 676,561 676,561 677,561 677,562 678,566 679,566 679,566 680,566 680,567 681,567 681,567 682,567 682,567 683,568 683,568 684,568 684,568 685,569 685,569 686,566 686,566 687,566 687,566 688,563 689,563 689,563 690,563 690,564 691,564 691,564 692,564 692,565 693,565 693,561 694,562 694,562 695,562 695,562 696,562 696,559 697,556 697,556 698,556 698,556 699,556 700,557 700,557 701,557 701,554 702,554 702,550 703,551 703,554 704,554 704,555 705,555 705,555 706,555 706,552 707,552 707,552 708,553 708,553 709,553 709,553 710,554 711,554 711,554 712,554 712,554 713,554 713,555 714,555 714,555 715,555 715,556 716,556 716,556 717,556 717,556 718,560 718,560 719,560 719,560 720,561 721,561 721,561 722,561 722,562 723,562 723,562 724,562 724,562 725,562 725,563 726,563 726,563 727,563 727,563 728,563 728,564 729,561 730,561 730,561 731,561 732,562 732,562 733,562 733,563 734,559 734,560 735,560 735,561 736,561 736,561 737,562 737,562 738,562 738,562 739,562 739,563 740,563 740,563 741,564 741,564 742,564 743,564 743,561 744,561 744,562 745,563 745,563 746,563 746,564 747,564 747,565 748,565 748,566 749,566 749,566 750,563 750,563 751,563 751,564 752,564 753,564 753,564 754,564 754,565 755,565 755,565 756,565 756,565 757,563 757,563 758,560 758,560 759,560 759,558 760,555 760,555 761,555 761,556 761,556 762,556 762,556 763,556 764,554 764,554 765,554 765,555 766,555 766,555 767,556 767,556 768,556 768,556 769,556 769,557 770,557 770,558 771,558 771,557 772,556 772,556 773,556 773,556 774,557 775,557 775,557 776,558 776,555 777,555 777,556 778,556 778,556 779,559 779,559 780,560 780,560 781,561 781,561 782,561 782,561 783,562 783,562 784,562 785,562 785,562 786,563 786,563 787,563 787,563 788,564 788,564 789,564 789,564 790,565 790,565 791,565 791,565 792,565 792,566 793,566 793,566 794,566 794,566 795,567 796,567 796,567 797,567 797,567 798,568 798,565 799,565 799,563 800,563 800,563 801,561 801,561 802,561 802,562 803,562 803,562 804,559 804,560 805,560 805,558 806,558 807,558 807,558 808,558 808,559 809,559 809,559 810,559 810,560 811,560 811,557 812,560 812,558 813,558 813,558 814,559 814,556 815,557 815,552 816,560 817,560 817,560 818,553 818,553 819,553 819,553 820,554 820,554 821,554 821,555 822,555 822,555 823,555 823,553 824,553 824,553 825,554 825,554 826,554 826,554 827,552 828,552 828,553 829,550 829,551 830,548 830,549 831,549 831,549 832,550 832,547 833,548 833,548 834,548 834,548 835,549 835,549 836,549 836,549 837,550 837,550 838,550 839,548 839,544 840,544 840,544 841,540 841,540 842,540 842,540 843,541 843,541 844,539 844,537 845,534 845,535 846,535 846,530 847,533 847,533 848,533 849,531 849,532 850,529 850,530 851,530 851,530 852,531 852,531 853,531 853,532 854,532 854,532 855,533 855,531 856,531 856,529 857,527 857,525 858,525 858,525 859,521 860,521 860,521 861,522 861,522 862,522 862,525 863,523 863,523 864,523 864,523 865,524 865,524 866,524 866,525 867,525 867,525 868,523 868,523 869,524 869,524 870,524 871,524 871,525 872,525 872,525 873,525 873,526 874,526 874,526 875,526 875,527 876,527 876,527 877,528 877,528 878,529 878,529 879,529 879,530 880,530 881,530 881,528 882,526 882,527 883,525 883,525 884,525 884,526 885,524 885,524 886,524 886,524 887,525 887,525 888,525 888,525 889,526 889,524 890,524 890,524 891,525 892,523 892,523 893,521 893,522 894,522 894,522 895,522 895,523 896,521 896,521 897,519 897,519 898,520 898,520 899,520 899,520 900,521 900,521 901,521 901,524 902,524 903,524 903,524 904,524 904,524 905,525 905,525 906,525 906,526 907,526 907,522 908,522 908,520 909,521 909,521 910,522 910,522 911,522 911,522 912,522 913,525 913,523 914,523 914,523 915,523 915,522 916,522 916,522 917,523 917,523 918,523 918,521 919,522 919,522 920,520 920,521 921,521 921,521 922,521 922,522 923,522 924,523 924,523 925,523 925,523 926,523 926,524 927,522 928,523 928,523 929,523 929,523 930,524 930,524 931,522 932,523 932,523 933,523 933,523 935,524 935,524 936,522 936,523 937,523 937,523 938,521 938,521 939,522 940,520 940,521 941,519 941,517 942,518 942,518 943,518 943,517 944,517 945,517 945,518 946,518 946,518 947,518 947,518 948,519 948,517 949,517 949,518 950,518 950,518 951,519 951,519 952,517 952,518 953,518 953,518 954,519 954,515 955,515 956,515 956,516 957,516 957,516 958,514 958,513 959,513 959,513 960,512 960,510 961,510 961,511 962,509 962,506 963,506 963,507 964,507 964,505 964,503 965,504 966,504 967,503 967,503 968,503 968,498 969,498 969,497 970,497 970,497 971,498 971,498 972,498 972,498 973,499 973,497 974,497 974,496 975,496 975,496 976,495 977,495 977,495 978,496 978,492 979,493 979,490 980,490 980,488 981,487 981,485 982,486 982,486 983,486 983,483 984,483 984,484 985,484 985,483 986,483 986,481 987,482 988,482 988,482 989,482 989,482 990,483 990,483 991,483 991,484 992,484 992,484 993,485 993,483 994,482 994,482 995,482 995,479 996,478 996,475 997,473 997,472 998,472 999,471 999,473 1000,468 1000,468 1001,469 1001,469 1002,469 1003,467 1003,465 1004,466 1004,466 1005,467 1005,467 1006,466 1006,466 1007,467 1007,466 1008,466 1009,466 1009,467 1010,467 1010,467 1011,464 1011,465 1012,463 1012,462 1013,462 1013,462 1014,462 1014,462 1015,464 1015,466 1016,465 1016,462 1017,464 1017,464 1018,464 1018,465 1019,465 1020,464 1020,464 1021,464 1021,465 1022,462 1022,462 1023,458 1023,459 1024,459 1024,461 1025,462 1025,462 1026,462 1026,463 1027,463 1027,463 1028,459 1028,459 1029,460 1029,460 1030,460 1031,459 1031,459 1032,460 1032,460 1033,460 1033,459 1034,460 1034,459 1035,459 1035,460 1036,460 1036,462 1037,463 1037,463 1038,463 1038,463 1038,463 1038,463 1039,463 1039,462 1039,462 1040,462 1040,463 1041,463 1041,463 1041,463 1042,463 1042,463 1042,464 1042,464 1043,464 1043,461 1043,461 1043,462 1044,462 1044,459 1044,459 1044,459 1045,459 1045,459 1045,459 1045,460 1046,460 1046,460 1046,460 1047,460 1047,461 1047,461 1048,461 1048,462 1048,462 1048,460 1049,460 1049,459 1049,459 1049,459 1050,459 1050,460 1050,460 1050,460 1051,457 1052,457 1052,458 1052,458 1052,458 1053,458 1053,455 1053,455 1053,455 1054,455 1054,456 1054,456 1054,457 1055,457 1055,457 1055,457 1055,457 1056,457 1056,458 1056,458 1057,458 1057,458 1057,458 1057,457 1058,457 1058,459 1058,459 1058,461 1059,461 1059,460 1059,460 1059,460 1060,460 1060,460 1060,460 1060,461 1061,461 1061,458 1061,458 1061,459 1062,459 1062,459 1063,459 1063,458 1064,458 1064,458 1064,458 1064,459 1065,459 1065,459 1065,459 1065,459 1066,459 1066,458 1066,458 1066,459 1067,459 1067,458 1067,458 1067,458 1068,458 1068,458 1068,459 1069,457 1069,456 1069,456 1069,457 1070,457 1070,457 1070,457 1070,457 1071,457 1071,456 1071,457 1072,457 1072,457 1073,457 1073,455 1073,455 1073,454 1074,454 1074,454 1074,454 1074,454 1075,454 1075,455 1075,455 1075,455 1076,455 1076,455 1076,455 1076,456 1077,456 1077,456 1077,456 1077,455 1078,455 1078,455 1078,455 1078,456 1079,456 1079,457 1079,457 1079,455 1080,455 1080,454 1080,454 1080,455 1081,455 1081,455 1081,455 1082,455 1082,453 1082,453 1082,453 1083,453 1083,453 1084,453 1084,453 1084,453 1084,453 1085,453 1085,454 1085,454 1085,455 1086,455 1086,456 1086,456 1086,456 1087,456 1087,456 1087,455 1088,455 1088,456 1088,456 1088,456 1089,456 1089,456 1089,456 1090,457 1090,457 1091,457 1091,456 1091,456 1092,456 1092,455 1092,455 1092,456 1093,456 1093,455 1093,455 1093,455 1094,455 1094,454 1095,454 1095,456 1095,456 1095,456 1096,456 1096,456 1096,456 1096,457 1097,457 1097,457 1097,457 1098,457 1098,457 1098,457 1098,458 1099,458 1099,460 1099,460 1099,460 1100,460 1100,459 1100,459 1100,462 1101,462 1101,462 1101,462 1101,462 1102,462 1102,464 1102,464 1102,464 1103,464 1103,464 1103,464 1103,463 1104,463 1104,464 1105,464 1105,464 1105,463 1106,464 1106,464 1106,464 1107,464 1107,464 1107,464 1107,465 1108,465 1108,465 1108,465 1108,465 1109,465 1109,466 1109,466 1109,466 1110,465 1110,465 1110,465 1111,465 1111,466 1111,466 1111,466 1112,466 1112,465 1112,465 1112,465 1113,465 1113,466 1113,466 1113,466 1114,466 1114,466 1114,465 1115,465 1115,467 1116,467 1116,467 1116,467 1117,467 1117,468 1117,468 1117,468 1118,468 1118,467 1118,467 1118,467 1119,467 1119,466 1119,466 1119,464 1120,463 1120,463 1120,463 1121,463 1121,463 1121,463 1121,463 1122,463 1122,464 1122,464 1122,464 1123,465 1123,465 1123,462 1124,463 1124,463 1124,463 1125,463 1125,462 1125,462 1125,462 1126,462 1126,463 1127,463 1127,463 1127,463 1128,463 1128,462 1128,462 1128,463 1129,463 1129,463 1129,463 1129,462 1130,462 1130,463 1130,463 1130,463 1131,463 1131,463 1131,463 1131,462 1132,462 1132,463 1132,463 1132,462 1133,462 1133,462 1133,462 1133,463 1134,463 1134,463 1134,463 1135,463 1135,464 1135,464 1135,464 1136,464 1137,464 1137,463 1137,463 1137,463 1138,463 1138,463 1138,463 1138,463 1139,463 1139,463 1139,463 1139,463 1140,463 1140,460 1140,460 1140,461 1141,461 1141,461 1141,461 1141,461 1142,462 1142,462 1142,462 1143,462 1143,462 1143,462 1143,464 1144,464 1144,465 1144,465 1144,466 1145,466 1145,466 1145,466 1145,466 1146,466 1146,466 1146,466 1146,467 1147,467 1148,467 1148,468 1148,468 1148,467 1149,467 1149,467 1149,467 1149,467 1150,467 1150,467 1150,467 1150,468 1151,468 1151,468 1151,468 1151,468 1152,468 1152,467 1152,467 1152,468 1153,468 1153,468 1153,468 1153,468 1154,468 1154,467 1154,467 1154,468 1155,468 1155,468 1155,468 1155,467 1156,467 1156,467 1156,467 1156,468 1157,468 1157,469 1157,469 1157,468 1158,468 1158,468 1159,468 1159,470 1159,470 1159,470 1160,470 1160,471 1160,471 1160,471 1161,471 1161,469 1161,469 1161,468 1162,468 1162,468 1162,468 1162,468 1163,468 1163,469 1163,469 1163,468 1164,468 1164,468 1164,468 1164,468 1165,468 1165,468 1165,468 1165,468 1166,468 1166,469 1166,469 1167,469 1167,469 1167,469 1167,470 1168,470 1168,469 1169,469 1169,469 1169,469 1169,467 1170,467 1170,467 1170,467 1170,465 1171,465 1171,465 1171,465 1171,466 1172,466 1172,465 1172,465 1172,464 1173,464 1173,464 1173,464 1173,463 1174,463 1174,464 1174,464 1174,464 1175,463 1175,463 1175,461 1176,461 1176,461 1176,461 1176,472 1177,472 1177,472 1177,473 1178,473 1178,473 1178,473 1178,473 1179,473 1180,473 1180,473 1180,473 1180,473 1181,473 1181,473 1181,473 1181,473 1182,473 1182,473 1182,473 1182,473 1183,473 1183,473 1183,473 1183,473 1184,473 1184,473 1184,473 1184,474 1185,474 1185,474 1185,474 1185,474 1186,474 1186,474 1186,474 1186,474 1187,474 1187,475 1187,475 1187,475 1188,475 1188,475 1188,475 1188,475 1189,475 1189,476 1190,476 "/>
<rect x="65" y="323" width="100" height="104" opacity="1" fill="#FFFFFF" stroke="none"/>
<rect x="65" y="323" width="100" height="104" opacity="1" fill="none" stroke="#000000"/>
<text x="105" y="333" dy="0.76em" text-anchor="start" font-family="sans-serif" font-size="9.67741935483871" opacity="1" fill="#000000">
ansi_term
</text>
<text x="105" y="348" dy="0.76em" text-anchor="start" font-family="sans-serif" font-size="9.67741935483871" opacity="1" fill="#000000">
colored
</text>
<text x="105" y="363" dy="0.76em" text-anchor="start" font-family="sans-serif" font-size="9.67741935483871" opacity="1" fill="#000000">
console
</text>
<text x="105" y="378" dy="0.76em" text-anchor="start" font-family="sans-serif" font-size="9.67741935483871" opacity="1" fill="#000000">
term
</text>
<text x="105" y="393" dy="0.76em" text-anchor="start" font-family="sans-serif" font-size="9.67741935483871" opacity="1" fill="#000000">
termcolor
</text>
<text x="105" y="408" dy="0.76em" text-anchor="start" font-family="sans-serif" font-size="9.67741935483871" opacity="1" fill="#000000">
termion
</text>
<polyline fill="none" opacity="1" stroke="#E61919" stroke-width="2" points="75,338 95,338 "/>
<polyline fill="none" opacity="1" stroke="#E5E619" stroke-width="2" points="75,352 95,352 "/>
<polyline fill="none" opacity="1" stroke="#19E619" stroke-width="2" points="75,367 95,367 "/>
<polyline fill="none" opacity="1" stroke="#19E5E6" stroke-width="2" points="75,382 95,382 "/>
<polyline fill="none" opacity="1" stroke="#1919E6" stroke-width="2" points="75,397 95,397 "/>
<polyline fill="none" opacity="1" stroke="#E519E6" stroke-width="2" points="75,412 95,412 "/>
</svg>
