<svg width="1200" height="800" xmlns="http://www.w3.org/2000/svg">
<rect x="0" y="0" width="1199" height="799" opacity="1" fill="#FFFFFF" stroke="none"/>
<line opacity="0.1" stroke="#000000" stroke-width="1" x1="60" y1="732" x2="1190" y2="732"/>
<line opacity="0.1" stroke="#000000" stroke-width="1" x1="60" y1="725" x2="1190" y2="725"/>
<line opacity="0.1" stroke="#000000" stroke-width="1" x1="60" y1="718" x2="1190" y2="718"/>
<line opacity="0.1" stroke="#000000" stroke-width="1" x1="60" y1="710" x2="1190" y2="710"/>
<line opacity="0.1" stroke="#000000" stroke-width="1" x1="60" y1="703" x2="1190" y2="703"/>
<line opacity="0.1" stroke="#000000" stroke-width="1" x1="60" y1="696" x2="1190" y2="696"/>
<line opacity="0.1" stroke="#000000" stroke-width="1" x1="60" y1="688" x2="1190" y2="688"/>
<line opacity="0.1" stroke="#000000" stroke-width="1" x1="60" y1="681" x2="1190" y2="681"/>
<line opacity="0.1" stroke="#000000" stroke-width="1" x1="60" y1="673" x2="1190" y2="673"/>
<line opacity="0.1" stroke="#000000" stroke-width="1" x1="60" y1="666" x2="1190" y2="666"/>
<line opacity="0.1" stroke="#000000" stroke-width="1" x1="60" y1="659" x2="1190" y2="659"/>
<line opacity="0.1" stroke="#000000" stroke-width="1" x1="60" y1="651" x2="1190" y2="651"/>
<line opacity="0.1" stroke="#000000" stroke-width="1" x1="60" y1="644" x2="1190" y2="644"/>
<line opacity="0.1" stroke="#000000" stroke-width="1" x1="60" y1="636" x2="1190" y2="636"/>
<line opacity="0.1" stroke="#000000" stroke-width="1" x1="60" y1="629" x2="1190" y2="629"/>
<line opacity="0.1" stroke="#000000" stroke-width="1" x1="60" y1="622" x2="1190" y2="622"/>
<line opacity="0.1" stroke="#000000" stroke-width="1" x1="60" y1="614" x2="1190" y2="614"/>
<line opacity="0.1" stroke="#000000" stroke-width="1" x1="60" y1="607" x2="1190" y2="607"/>
<line opacity="0.1" stroke="#000000" stroke-width="1" x1="60" y1="599" x2="1190" y2="599"/>
<line opacity="0.1" stroke="#000000" stroke-width="1" x1="60" y1="592" x2="1190" y2="592"/>
<line opacity="0.1" stroke="#000000" stroke-width="1" x1="60" y1="585" x2="1190" y2="585"/>
<line opacity="0.1" stroke="#000000" stroke-width="1" x1="60" y1="577" x2="1190" y2="577"/>
<line opacity="0.1" stroke="#000000" stroke-width="1" x1="60" y1="570" x2="1190" y2="570"/>
<line opacity="0.1" stroke="#000000" stroke-width="1" x1="60" y1="563" x2="1190" y2="563"/>
<line opacity="0.1" stroke="#000000" stroke-width="1" x1="60" y1="555" x2="1190" y2="555"/>
<line opacity="0.1" stroke="#000000" stroke-width="1" x1="60" y1="548" x2="1190" y2="548"/>
<line opacity="0.1" stroke="#000000" stroke-width="1" x1="60" y1="540" x2="1190" y2="540"/>
<line opacity="0.1" stroke="#000000" stroke-width="1" x1="60" y1="533" x2="1190" y2="533"/>
<line opacity="0.1" stroke="#000000" stroke-width="1" x1="60" y1="526" x2="1190" y2="526"/>
<line opacity="0.1" stroke="#000000" stroke-width="1" x1="60" y1="518" x2="1190" y2="518"/>
<line opacity="0.1" stroke="#000000" stroke-width="1" x1="60" y1="511" x2="1190" y2="511"/>
<line opacity="0.1" stroke="#000000" stroke-width="1" x1="60" y1="503" x2="1190" y2="503"/>
<line opacity="0.1" stroke="#000000" stroke-width="1" x1="60" y1="496" x2="1190" y2="496"/>
<line opacity="0.1" stroke="#000000" stroke-width="1" x1="60" y1="489" x2="1190" y2="489"/>
<line opacity="0.1" stroke="#000000" stroke-width="1" x1="60" y1="481" x2="1190" y2="481"/>
<line opacity="0.1" stroke="#000000" stroke-width="1" x1="60" y1="474" x2="1190" y2="474"/>
<line opacity="0.1" stroke="#000000" stroke-width="1" x1="60" y1="467" x2="1190" y2="467"/>
<line opacity="0.1" stroke="#000000" stroke-width="1" x1="60" y1="459" x2="1190" y2="459"/>
<line opacity="0.1" stroke="#000000" stroke-width="1" x1="60" y1="452" x2="1190" y2="452"/>
<line opacity="0.1" stroke="#000000" stroke-width="1" x1="60" y1="444" x2="1190" y2="444"/>
<line opacity="0.1" stroke="#000000" stroke-width="1" x1="60" y1="437" x2="1190" y2="437"/>
<line opacity="0.1" stroke="#000000" stroke-width="1" x1="60" y1="430" x2="1190" y2="430"/>
<line opacity="0.1" stroke="#000000" stroke-width="1" x1="60" y1="422" x2="1190" y2="422"/>
<line opacity="0.1" stroke="#000000" stroke-width="1" x1="60" y1="415" x2="1190" y2="415"/>
<line opacity="0.1" stroke="#000000" stroke-width="1" x1="60" y1="407" x2="1190" y2="407"/>
<line opacity="0.1" stroke="#000000" stroke-width="1" x1="60" y1="400" x2="1190" y2="400"/>
<line opacity="0.1" stroke="#000000" stroke-width="1" x1="60" y1="393" x2="1190" y2="393"/>
<line opacity="0.1" stroke="#000000" stroke-width="1" x1="60" y1="385" x2="1190" y2="385"/>
<line opacity="0.1" stroke="#000000" stroke-width="1" x1="60" y1="378" x2="1190" y2="378"/>
<line opacity="0.1" stroke="#000000" stroke-width="1" x1="60" y1="370" x2="1190" y2="370"/>
<line opacity="0.1" stroke="#000000" stroke-width="1" x1="60" y1="363" x2="1190" y2="363"/>
<line opacity="0.1" stroke="#000000" stroke-width="1" x1="60" y1="356" x2="1190" y2="356"/>
<line opacity="0.1" stroke="#000000" stroke-width="1" x1="60" y1="348" x2="1190" y2="348"/>
<line opacity="0.1" stroke="#000000" stroke-width="1" x1="60" y1="341" x2="1190" y2="341"/>
<line opacity="0.1" stroke="#000000" stroke-width="1" x1="60" y1="334" x2="1190" y2="334"/>
<line opacity="0.1" stroke="#000000" stroke-width="1" x1="60" y1="326" x2="1190" y2="326"/>
<line opacity="0.1" stroke="#000000" stroke-width="1" x1="60" y1="319" x2="1190" y2="319"/>
<line opacity="0.1" stroke="#000000" stroke-width="1" x1="60" y1="311" x2="1190" y2="311"/>
<line opacity="0.1" stroke="#000000" stroke-width="1" x1="60" y1="304" x2="1190" y2="304"/>
<line opacity="0.1" stroke="#000000" stroke-width="1" x1="60" y1="297" x2="1190" y2="297"/>
<line opacity="0.1" stroke="#000000" stroke-width="1" x1="60" y1="289" x2="1190" y2="289"/>
<line opacity="0.1" stroke="#000000" stroke-width="1" x1="60" y1="282" x2="1190" y2="282"/>
<line opacity="0.1" stroke="#000000" stroke-width="1" x1="60" y1="274" x2="1190" y2="274"/>
<line opacity="0.1" stroke="#000000" stroke-width="1" x1="60" y1="267" x2="1190" y2="267"/>
<line opacity="0.1" stroke="#000000" stroke-width="1" x1="60" y1="260" x2="1190" y2="260"/>
<line opacity="0.1" stroke="#000000" stroke-width="1" x1="60" y1="252" x2="1190" y2="252"/>
<line opacity="0.1" stroke="#000000" stroke-width="1" x1="60" y1="245" x2="1190" y2="245"/>
<line opacity="0.1" stroke="#000000" stroke-width="1" x1="60" y1="238" x2="1190" y2="238"/>
<line opacity="0.1" stroke="#000000" stroke-width="1" x1="60" y1="230" x2="1190" y2="230"/>
<line opacity="0.1" stroke="#000000" stroke-width="1" x1="60" y1="223" x2="1190" y2="223"/>
<line opacity="0.1" stroke="#000000" stroke-width="1" x1="60" y1="215" x2="1190" y2="215"/>
<line opacity="0.1" stroke="#000000" stroke-width="1" x1="60" y1="208" x2="1190" y2="208"/>
<line opacity="0.1" stroke="#000000" stroke-width="1" x1="60" y1="201" x2="1190" y2="201"/>
<line opacity="0.1" stroke="#000000" stroke-width="1" x1="60" y1="193" x2="1190" y2="193"/>
<line opacity="0.1" stroke="#000000" stroke-width="1" x1="60" y1="186" x2="1190" y2="186"/>
<line opacity="0.1" stroke="#000000" stroke-width="1" x1="60" y1="178" x2="1190" y2="178"/>
<line opacity="0.1" stroke="#000000" stroke-width="1" x1="60" y1="171" x2="1190" y2="171"/>
<line opacity="0.1" stroke="#000000" stroke-width="1" x1="60" y1="164" x2="1190" y2="164"/>
<line opacity="0.1" stroke="#000000" stroke-width="1" x1="60" y1="156" x2="1190" y2="156"/>
<line opacity="0.1" stroke="#000000" stroke-width="1" x1="60" y1="149" x2="1190" y2="149"/>
<line opacity="0.1" stroke="#000000" stroke-width="1" x1="60" y1="141" x2="1190" y2="141"/>
<line opacity="0.1" stroke="#000000" stroke-width="1" x1="60" y1="134" x2="1190" y2="134"/>
<line opacity="0.1" stroke="#000000" stroke-width="1" x1="60" y1="127" x2="1190" y2="127"/>
<line opacity="0.1" stroke="#000000" stroke-width="1" x1="60" y1="119" x2="1190" y2="119"/>
<line opacity="0.1" stroke="#000000" stroke-width="1" x1="60" y1="112" x2="1190" y2="112"/>
<line opacity="0.1" stroke="#000000" stroke-width="1" x1="60" y1="105" x2="1190" y2="105"/>
<line opacity="0.1" stroke="#000000" stroke-width="1" x1="60" y1="97" x2="1190" y2="97"/>
<line opacity="0.1" stroke="#000000" stroke-width="1" x1="60" y1="90" x2="1190" y2="90"/>
<line opacity="0.1" stroke="#000000" stroke-width="1" x1="60" y1="82" x2="1190" y2="82"/>
<line opacity="0.1" stroke="#000000" stroke-width="1" x1="60" y1="75" x2="1190" y2="75"/>
<line opacity="0.1" stroke="#000000" stroke-width="1" x1="60" y1="68" x2="1190" y2="68"/>
<line opacity="0.1" stroke="#000000" stroke-width="1" x1="60" y1="60" x2="1190" y2="60"/>
<line opacity="0.1" stroke="#000000" stroke-width="1" x1="60" y1="53" x2="1190" y2="53"/>
<line opacity="0.1" stroke="#000000" stroke-width="1" x1="60" y1="45" x2="1190" y2="45"/>
<line opacity="0.1" stroke="#000000" stroke-width="1" x1="60" y1="38" x2="1190" y2="38"/>
<line opacity="0.1" stroke="#000000" stroke-width="1" x1="60" y1="31" x2="1190" y2="31"/>
<line opacity="0.1" stroke="#000000" stroke-width="1" x1="60" y1="23" x2="1190" y2="23"/>
<line opacity="0.1" stroke="#000000" stroke-width="1" x1="60" y1="16" x2="1190" y2="16"/>
<line opacity="0.1" stroke="#000000" stroke-width="1" x1="60" y1="9" x2="1190" y2="9"/>
<text x="10" y="375" dy="0.76em" text-anchor="middle" font-family="sans-serif" font-size="9.67741935483871" opacity="1" fill="#000000" transform="rotate(270, 10, 375)">
Number of dependent crates
</text>
<line opacity="0.2" stroke="#000000" stroke-width="1" x1="60" y1="666" x2="1190" y2="666"/>
<line opacity="0.2" stroke="#000000" stroke-width="1" x1="60" y1="592" x2="1190" y2="592"/>
<line opacity="0.2" stroke="#000000" stroke-width="1" x1="60" y1="518" x2="1190" y2="518"/>
<line opacity="0.2" stroke="#000000" stroke-width="1" x1="60" y1="444" x2="1190" y2="444"/>
<line opacity="0.2" stroke="#000000" stroke-width="1" x1="60" y1="370" x2="1190" y2="370"/>
<line opacity="0.2" stroke="#000000" stroke-width="1" x1="60" y1="297" x2="1190" y2="297"/>
<line opacity="0.2" stroke="#000000" stroke-width="1" x1="60" y1="223" x2="1190" y2="223"/>
<line opacity="0.2" stroke="#000000" stroke-width="1" x1="60" y1="149" x2="1190" y2="149"/>
<line opacity="0.2" stroke="#000000" stroke-width="1" x1="60" y1="75" x2="1190" y2="75"/>
<polyline fill="none" opacity="1" stroke="#000000" stroke-width="1" points="59,10 59,740 "/>
<text x="50" y="666" dy="0.5ex" text-anchor="end" font-family="sans-serif" font-size="9.67741935483871" opacity="1" fill="#000000">
50
</text>
<polyline fill="none" opacity="1" stroke="#000000" stroke-width="1" points="54,666 59,666 "/>
<text x="50" y="592" dy="0.5ex" text-anchor="end" font-family="sans-serif" font-size="9.67741935483871" opacity="1" fill="#000000">
100
</text>
<polyline fill="none" opacity="1" stroke="#000000" stroke-width="1" points="54,592 59,592 "/>
<text x="50" y="518" dy="0.5ex" text-anchor="end" font-family="sans-serif" font-size="9.67741935483871" opacity="1" fill="#000000">
150
</text>
<polyline fill="none" opacity="1" stroke="#000000" stroke-width="1" points="54,518 59,518 "/>
<text x="50" y="444" dy="0.5ex" text-anchor="end" font-family="sans-serif" font-size="9.67741935483871" opacity="1" fill="#000000">
200
</text>
<polyline fill="none" opacity="1" stroke="#000000" stroke-width="1" points="54,444 59,444 "/>
<text x="50" y="370" dy="0.5ex" text-anchor="end" font-family="sans-serif" font-size="9.67741935483871" opacity="1" fill="#000000">
250
</text>
<polyline fill="none" opacity="1" stroke="#000000" stroke-width="1" points="54,370 59,370 "/>
<text x="50" y="297" dy="0.5ex" text-anchor="end" font-family="sans-serif" font-size="9.67741935483871" opacity="1" fill="#000000">
300
</text>
<polyline fill="none" opacity="1" stroke="#000000" stroke-width="1" points="54,297 59,297 "/>
<text x="50" y="223" dy="0.5ex" text-anchor="end" font-family="sans-serif" font-size="9.67741935483871" opacity="1" fill="#000000">
350
</text>
<polyline fill="none" opacity="1" stroke="#000000" stroke-width="1" points="54,223 59,223 "/>
<text x="50" y="149" dy="0.5ex" text-anchor="end" font-family="sans-serif" font-size="9.67741935483871" opacity="1" fill="#000000">
400
</text>
<polyline fill="none" opacity="1" stroke="#000000" stroke-width="1" points="54,149 59,149 "/>
<text x="50" y="75" dy="0.5ex" text-anchor="end" font-family="sans-serif" font-size="9.67741935483871" opacity="1" fill="#000000">
450
</text>
<polyline fill="none" opacity="1" stroke="#000000" stroke-width="1" points="54,75 59,75 "/>
<polyline fill="none" opacity="1" stroke="#000000" stroke-width="1" points="60,740 1190,740 "/>
<text x="60" y="750" dy="0.76em" text-anchor="middle" font-family="sans-serif" font-size="9.67741935483871" opacity="1" fill="#000000">
2015-01-27Z
</text>
<polyline fill="none" opacity="1" stroke="#000000" stroke-width="1" points="60,740 60,745 "/>
<text x="175" y="750" dy="0.76em" text-anchor="middle" font-family="sans-serif" font-size="9.67741935483871" opacity="1" fill="#000000">
2015-08-18Z
</text>
<polyline fill="none" opacity="1" stroke="#000000" stroke-width="1" points="175,740 175,745 "/>
<text x="291" y="750" dy="0.76em" text-anchor="middle" font-family="sans-serif" font-size="9.67741935483871" opacity="1" fill="#000000">
2016-03-08Z
</text>
<polyline fill="none" opacity="1" stroke="#000000" stroke-width="1" points="291,740 291,745 "/>
<text x="406" y="750" dy="0.76em" text-anchor="middle" font-family="sans-serif" font-size="9.67741935483871" opacity="1" fill="#000000">
2016-09-27Z
</text>
<polyline fill="none" opacity="1" stroke="#000000" stroke-width="1" points="406,740 406,745 "/>
<text x="522" y="750" dy="0.76em" text-anchor="middle" font-family="sans-serif" font-size="9.67741935483871" opacity="1" fill="#000000">
2017-04-18Z
</text>
<polyline fill="none" opacity="1" stroke="#000000" stroke-width="1" points="522,740 522,745 "/>
<text x="637" y="750" dy="0.76em" text-anchor="middle" font-family="sans-serif" font-size="9.67741935483871" opacity="1" fill="#000000">
2017-11-07Z
</text>
<polyline fill="none" opacity="1" stroke="#000000" stroke-width="1" points="637,740 637,745 "/>
<text x="753" y="750" dy="0.76em" text-anchor="middle" font-family="sans-serif" font-size="9.67741935483871" opacity="1" fill="#000000">
2018-05-29Z
</text>
<polyline fill="none" opacity="1" stroke="#000000" stroke-width="1" points="753,740 753,745 "/>
<text x="868" y="750" dy="0.76em" text-anchor="middle" font-family="sans-serif" font-size="9.67741935483871" opacity="1" fill="#000000">
2018-12-18Z
</text>
<polyline fill="none" opacity="1" stroke="#000000" stroke-width="1" points="868,740 868,745 "/>
<text x="984" y="750" dy="0.76em" text-anchor="middle" font-family="sans-serif" font-size="9.67741935483871" opacity="1" fill="#000000">
2019-07-09Z
</text>
<polyline fill="none" opacity="1" stroke="#000000" stroke-width="1" points="984,740 984,745 "/>
<text x="1099" y="750" dy="0.76em" text-anchor="middle" font-family="sans-serif" font-size="9.67741935483871" opacity="1" fill="#000000">
2020-01-28Z
</text>
<polyline fill="none" opacity="1" stroke="#000000" stroke-width="1" points="1099,740 1099,745 "/>
<polyline fill="none" opacity="1" stroke="#E61919" stroke-width="2" points="116,738 123,737 127,737 133,735 135,735 135,734 136,734 138,734 139,734 141,734 142,734 143,734 143,734 144,732 145,732 148,732 151,732 161,732 168,732 169,732 172,732 174,734 178,734 180,734 180,734 181,734 183,734 190,734 194,734 199,734 203,734 205,732 207,732 209,732 211,732 212,731 213,731 214,729 215,729 215,729 218,729 219,729 219,727 220,727 221,727 222,727 222,727 223,727 223,727 225,725 225,724 226,724 227,724 228,724 229,724 230,724 230,724 232,724 233,724 235,724 235,724 236,724 236,724 238,724 240,724 240,724 241,724 242,724 242,722 243,722 245,722 250,722 250,722 251,722 252,722 252,721 253,721 254,719 254,719 256,719 256,719 257,718 258,718 258,716 259,716 259,716 260,716 261,715 263,715 263,715 264,715 264,715 265,715 265,715 266,715 267,715 267,715 269,713 269,713 270,713 271,713 271,713 273,713 274,713 275,713 276,713 277,713 277,713 278,713 280,713 280,712 281,712 282,712 283,712 283,712 284,712 285,712 285,712 286,712 287,712 287,712 288,712 289,712 289,712 290,712 291,712 291,712 292,712 292,712 293,710 294,710 294,710 296,710 297,710 297,710 298,710 298,710 300,710 301,710 301,710 302,710 303,710 304,710 304,710 305,710 305,710 306,710 307,710 308,710 309,710 309,709 311,709 312,709 312,709 313,707 313,707 314,707 314,706 315,706 316,706 316,706 317,706 317,706 318,706 318,706 319,706 320,706 322,706 322,706 323,706 324,706 325,706 325,706 326,706 326,706 327,706 327,706 328,706 329,706 329,706 330,706 330,706 331,706 331,706 332,706 333,706 333,706 335,706 335,706 336,706 337,706 337,706 338,706 341,706 341,706 342,706 342,706 343,706 343,706 344,706 345,706 345,706 346,706 346,706 347,706 347,706 348,706 349,706 349,706 350,704 350,703 351,701 351,700 352,700 353,700 353,700 354,700 354,700 355,700 355,700 356,700 357,700 357,700 358,700 358,700 359,700 359,700 360,698 360,698 361,697 362,697 362,697 363,697 363,697 364,697 364,697 365,696 366,696 367,696 367,696 368,696 368,696 369,696 371,696 372,696 373,696 374,694 374,694 375,694 375,694 376,694 377,693 378,691 379,690 379,688 380,688 382,688 383,688 384,687 384,687 385,687 386,687 387,687 388,685 388,685 390,685 390,685 391,685 391,684 392,684 392,684 393,685 393,685 394,685 395,685 396,684 397,684 397,684 399,684 399,684 400,684 400,684 401,684 402,684 403,684 403,684 404,684 404,682 405,682 405,681 406,679 407,678 407,679 408,679 408,679 409,679 409,679 410,679 411,679 411,679 412,679 412,679 413,679 413,679 414,679 415,678 415,678 416,678 416,678 417,678 417,678 418,678 419,678 420,678 421,673 421,673 422,672 423,672 423,672 424,672 424,670 425,670 425,669 426,669 426,669 427,669 428,669 429,669 429,669 430,669 430,669 431,669 432,669 432,667 433,667 433,667 434,667 434,669 435,669 436,669 436,669 437,669 437,669 438,669 438,669 439,669 440,669 440,669 441,669 441,669 442,669 442,669 443,669 444,667 445,667 445,666 446,666 446,666 447,666 448,666 449,666 450,666 451,666 452,664 452,664 453,664 453,664 454,664 454,663 455,663 456,663 456,663 457,663 457,663 458,663 458,663 459,662 459,662 460,660 461,660 461,660 462,659 462,657 463,659 463,659 464,659 465,659 465,659 466,659 466,659 467,659 468,659 469,657 469,657 470,657 470,657 471,657 471,657 472,657 473,657 473,657 474,656 474,656 475,656 475,656 476,656 477,656 477,656 478,654 478,654 479,654 479,654 480,654 481,654 481,653 482,653 482,653 483,651 483,651 484,650 485,650 485,650 486,648 486,648 487,648 487,648 488,647 489,645 489,645 490,645 490,645 491,645 491,645 492,645 492,645 493,644 494,642 494,642 495,642 495,642 496,642 496,642 497,641 498,641 498,641 499,641 499,641 500,639 500,639 501,639 502,639 502,639 503,639 503,639 504,639 504,639 505,641 506,639 506,639 507,639 507,639 508,638 508,638 509,638 510,638 510,638 511,638 511,638 512,638 512,636 513,636 514,636 514,635 515,632 515,632 516,632 516,632 517,632 518,633 518,633 519,633 519,633 520,633 520,633 521,633 522,633 522,633 523,633 523,633 524,633 524,633 525,633 525,633 526,633 527,633 527,633 528,633 528,632 529,631 529,629 530,629 531,628 531,628 532,628 532,628 533,628 533,628 534,626 535,626 535,626 536,626 536,626 537,626 537,626 538,625 539,625 539,625 540,625 540,626 541,625 541,625 542,623 543,623 543,623 544,623 544,623 545,622 545,622 546,623 547,622 547,622 548,622 548,622 549,622 549,620 550,620 551,620 551,620 552,620 552,620 553,620 553,620 554,620 555,620 555,620 556,620 556,620 557,620 557,620 558,620 558,620 559,620 560,620 560,620 561,620 561,620 562,620 562,620 563,620 564,620 564,620 565,620 565,620 566,620 566,620 567,617 568,617 568,617 569,620 569,620 570,620 570,620 571,620 572,620 572,619 573,617 573,617 574,617 574,617 575,617 576,617 576,617 577,617 577,617 578,617 578,617 579,617 580,617 580,617 581,617 581,617 582,617 582,617 583,617 584,617 584,617 585,617 585,617 586,616 586,614 587,614 588,614 588,613 589,613 589,611 590,611 590,611 591,611 591,611 592,611 593,611 593,611 594,611 594,611 595,611 595,611 596,611 597,610 597,608 598,608 598,608 599,608 599,608 600,607 601,607 601,607 602,607 602,607 603,607 603,605 604,605 605,605 605,602 606,601 606,602 607,601 607,598 608,598 609,598 609,598 610,598 610,598 611,598 611,599 612,599 613,599 613,599 614,599 614,599 615,599 615,598 616,598 617,598 617,598 618,598 618,598 619,598 619,598 620,598 621,598 621,598 622,598 622,598 623,597 623,597 625,597 625,597 626,597 626,597 627,595 627,595 628,594 628,594 629,594 630,592 630,592 631,592 631,592 632,592 632,589 633,589 634,589 634,588 635,588 635,588 636,588 636,588 637,586 638,585 638,585 639,583 639,583 640,583 640,583 641,583 642,583 642,583 643,582 643,580 644,580 644,580 645,580 646,580 646,580 647,580 647,580 648,580 648,580 649,580 650,582 650,582 651,582 651,580 652,580 652,580 653,580 654,580 654,579 655,579 655,579 656,579 656,579 657,579 658,579 658,579 659,579 659,579 660,576 660,576 661,576 661,576 662,576 663,576 663,576 664,576 664,576 665,576 665,576 666,576 667,576 667,574 668,574 668,574 669,574 669,574 670,574 671,573 671,573 672,573 672,573 673,573 673,571 674,571 675,571 675,570 676,570 676,568 677,568 677,567 678,568 679,568 679,568 680,568 680,568 681,568 681,568 682,568 683,568 683,568 684,570 684,570 685,570 685,570 686,570 687,570 687,568 688,568 688,565 689,565 689,565 690,564 691,564 691,563 692,563 692,563 693,563 693,564 694,564 694,563 695,563 696,563 696,563 697,563 697,563 698,563 698,563 699,563 700,563 700,563 701,563 701,561 702,560 702,560 703,560 704,560 704,560 705,558 705,560 706,558 706,558 707,558 708,558 708,558 709,558 709,558 710,558 710,558 711,558 712,557 712,557 713,557 713,555 714,554 714,554 715,554 716,552 716,552 717,551 717,551 718,551 718,549 719,549 720,549 720,549 721,551 721,551 722,551 722,551 723,551 724,551 724,551 725,551 725,551 726,551 726,551 727,551 727,552 728,552 729,552 729,551 730,551 730,551 731,551 731,549 732,549 733,549 733,546 734,546 734,546 735,546 735,546 736,546 737,546 737,545 738,545 738,545 739,545 739,545 740,545 741,545 741,545 742,545 742,545 743,545 743,545 744,545 745,545 746,545 746,545 747,545 747,545 748,545 749,543 749,543 750,542 750,542 751,542 751,540 752,540 753,542 753,542 754,542 754,539 755,539 755,537 756,537 757,537 757,536 758,536 758,536 759,536 759,536 760,536 760,536 761,534 762,534 762,534 763,534 763,534 764,534 764,534 765,534 766,534 766,534 767,534 767,532 768,532 768,532 769,532 770,532 770,532 771,532 771,532 772,532 772,532 773,532 774,532 774,532 775,532 775,532 776,530 776,530 777,529 778,529 778,529 779,529 779,529 780,529 780,529 781,527 782,524 782,524 783,524 783,524 784,524 784,524 785,524 786,524 786,524 787,524 787,524 788,524 788,524 789,524 790,524 790,524 791,526 791,526 792,524 792,524 793,524 793,524 794,524 795,524 795,524 796,524 796,524 797,524 797,523 798,523 799,523 799,523 800,521 800,520 801,520 801,520 802,520 803,520 803,520 804,520 804,520 805,520 805,520 806,520 807,520 807,520 808,520 808,520 809,520 809,518 810,518 811,518 811,517 812,517 812,517 813,517 813,517 814,517 815,517 815,517 816,517 816,517 817,517 817,517 818,517 819,517 819,517 820,517 820,515 821,515 821,515 821,515 822,515 823,515 823,514 824,514 824,514 825,514 825,512 826,512 826,512 827,511 828,511 828,511 829,509 829,509 830,509 830,509 831,508 832,508 832,508 833,506 833,506 834,506 834,505 835,505 836,503 836,503 837,503 837,503 838,503 838,503 839,502 840,502 840,502 841,502 841,502 842,502 842,502 843,502 844,502 844,500 845,500 845,500 846,500 846,500 847,500 848,500 848,500 849,499 849,499 850,499 850,498 851,498 852,498 852,498 853,496 853,496 854,496 854,495 855,493 856,493 856,493 857,492 857,489 858,489 858,489 859,489 859,489 860,489 861,489 861,489 862,486 862,486 863,484 863,484 864,483 865,481 865,481 866,481 866,481 867,481 867,480 868,478 869,478 869,478 870,478 870,478 871,478 871,478 872,478 873,478 873,478 874,478 874,478 875,478 875,478 876,478 877,475 877,475 878,474 878,472 879,472 879,471 880,471 881,471 881,469 882,469 882,469 883,469 883,468 884,468 885,468 885,467 886,467 886,465 887,465 887,465 888,465 889,465 889,464 890,464 890,464 891,464 891,464 892,462 892,462 893,462 894,462 894,462 895,461 895,461 896,459 896,459 897,459 898,459 898,459 899,459 899,459 900,459 900,459 901,459 902,458 902,458 903,458 903,458 904,458 904,458 905,458 906,458 906,458 907,458 907,458 908,456 908,456 909,456 910,456 910,456 911,456 911,456 912,456 912,455 913,455 914,452 914,452 915,452 915,452 916,452 916,452 917,452 918,452 918,450 919,449 919,447 920,447 920,447 921,447 922,447 922,447 923,446 923,446 924,446 924,446 925,446 925,446 926,446 927,446 927,446 928,446 928,443 929,443 929,443 930,443 931,443 931,441 932,441 932,441 933,441 933,441 934,441 935,441 935,440 936,440 936,440 937,440 937,440 938,440 939,440 939,438 940,438 940,438 941,438 941,437 942,435 943,435 943,435 944,435 944,435 945,434 945,434 946,434 947,434 947,434 948,434 948,434 949,434 949,434 950,434 951,434 951,433 952,433 952,433 953,428 953,428 954,428 955,428 955,427 956,427 956,427 957,425 957,425 958,425 958,425 959,425 960,425 960,425 961,424 961,424 962,424 962,424 963,424 964,424 964,424 965,422 965,419 966,419 966,419 967,419 968,419 968,418 969,418 969,418 970,418 970,418 971,418 972,418 972,418 973,418 973,418 974,418 974,418 975,418 976,418 976,418 977,418 977,413 978,413 978,413 979,413 980,413 980,413 981,413 981,413 982,413 982,410 983,410 984,410 984,410 985,409 985,409 986,409 986,409 987,409 988,409 988,407 989,407 989,406 990,406 990,406 991,406 991,406 992,406 993,406 993,406 994,406 994,404 995,404 995,403 996,403 997,403 997,403 998,403 998,403 999,403 999,403 1000,403 1001,401 1001,401 1002,401 1002,401 1003,401 1003,401 1004,401 1005,401 1005,401 1006,401 1006,400 1007,400 1007,400 1008,400 1009,399 1009,397 1010,397 1010,397 1011,397 1011,397 1012,397 1013,397 1013,397 1014,397 1014,396 1015,396 1015,394 1016,397 1017,397 1017,397 1018,397 1018,396 1019,396 1019,394 1020,393 1021,393 1021,393 1022,391 1022,391 1023,391 1023,390 1024,390 1024,384 1025,384 1026,382 1026,382 1027,382 1027,384 1028,384 1028,384 1029,382 1030,381 1030,381 1031,379 1031,379 1032,379 1032,379 1033,378 1034,376 1034,376 1035,375 1035,375 1036,379 1036,379 1037,378 1038,379 1038,379 1039,379 1039,379 1040,379 1040,379 1040,379 1041,379 1042,379 1042,379 1043,379 1043,379 1044,379 1044,379 1045,379 1046,378 1046,376 1047,373 1047,373 1048,373 1048,373 1049,373 1050,373 1050,373 1051,373 1051,373 1052,373 1052,372 1053,372 1054,372 1054,372 1055,372 1055,372 1056,372 1056,370 1057,370 1057,370 1058,370 1059,370 1059,370 1060,370 1060,370 1061,370 1061,370 1062,370 1063,370 1063,370 1064,370 1064,370 1065,369 1065,368 1066,368 1067,366 1067,365 1068,362 1068,362 1069,362 1069,362 1070,362 1071,362 1071,362 1072,360 1072,360 1073,360 1073,360 1074,359 1075,359 1075,350 1076,350 1076,350 1077,350 1077,350 1078,350 1079,348 1079,348 1080,348 1080,348 1081,348 1081,348 1082,348 1083,347 1083,347 1084,347 1084,345 1085,345 1085,344 1086,344 1087,344 1087,344 1088,344 1088,342 1089,342 1089,342 1090,342 1090,341 1091,341 1092,338 1092,338 1093,339 1093,339 1094,339 1094,338 1095,338 1096,338 1096,339 1097,339 1097,339 1098,339 1098,339 1099,339 1100,339 1100,339 1101,338 1101,338 1102,335 1102,334 1103,334 1104,334 1104,334 1105,334 1105,334 1106,334 1106,332 1107,332 1108,331 1108,331 1109,331 1109,331 1110,328 1110,328 1111,329 1112,329 1112,329 1113,329 1113,329 1114,329 1114,329 1115,329 1116,329 1116,326 1117,326 1117,328 1118,326 1118,325 1119,323 1120,323 1120,323 1121,323 1121,323 1121,323 1121,323 1122,323 1122,323 1122,323 1123,323 1123,323 1123,323 1124,323 1124,323 1125,323 1125,323 1125,323 1125,323 1126,323 1126,322 1126,322 1126,320 1127,320 1127,319 1127,319 1127,319 1128,319 1128,319 1129,319 1129,319 1129,319 1129,317 1130,317 1130,317 1130,316 1131,316 1131,316 1131,316 1132,316 1132,314 1133,314 1133,314 1133,314 1133,314 1134,314 1134,313 1134,313 1134,313 1135,311 1135,311 1135,311 1136,311 1136,311 1137,311 1137,311 1137,311 1137,311 1138,311 1138,311 1138,311 1138,311 1139,311 1139,311 1139,311 1139,311 1140,311 1140,311 1141,311 1141,311 1141,311 1142,311 1142,311 1142,311 1142,311 1143,311 1143,313 1143,313 1143,313 1144,313 1144,311 1145,311 1145,311 1145,311 1145,311 1146,311 1146,311 1146,311 1146,311 1147,311 1147,311 1147,310 1148,308 1149,308 1149,307 1149,307 1149,305 1150,305 1150,304 1150,304 1150,304 1151,304 1151,301 1151,301 1151,298 1152,298 1152,297 1153,297 1153,294 1153,294 1153,294 1154,295 1154,295 1154,295 1155,295 1155,295 1155,295 1155,294 1156,294 1156,292 1156,292 1156,291 1157,291 1158,291 1158,291 1158,291 1158,288 1159,288 1159,285 1159,285 1159,285 1160,285 1160,285 1160,285 1160,283 1161,283 1161,283 1162,283 1162,282 1162,282 1162,280 1163,280 1163,280 1163,280 1163,280 1164,280 1164,280 1164,280 1164,279 1165,279 1165,279 1166,279 1166,279 1166,279 1166,271 1167,271 1167,270 1167,270 1167,269 1168,269 1168,269 1168,269 1169,269 1169,269 1170,269 1170,269 1170,269 1170,267 1171,267 1171,267 1171,267 1171,267 1172,267 1172,267 1172,267 1172,266 1173,266 1173,266 1174,263 1174,263 1174,263 1175,263 1175,264 1175,264 1175,263 1176,263 1176,261 1176,261 1176,261 1177,261 1178,260 1178,260 1178,260 1179,260 1179,260 1179,260 1180,260 1180,260 1180,260 1180,258 1181,258 1181,257 1182,257 1182,257 1182,257 1182,255 1183,255 1183,255 1183,255 1183,255 1184,255 1184,254 1184,254 1184,254 1185,254 1186,254 1186,254 1186,254 1186,254 1187,254 1187,251 1187,251 1187,251 1188,251 1188,249 1188,249 1188,249 1189,249 1189,249 1190,249 "/>
<polyline fill="none" opacity="1" stroke="#E5E619" stroke-width="2" points="345,738 351,737 353,735 358,734 375,732 397,731 418,729 429,728 432,727 432,727 436,727 456,725 463,722 467,721 485,719 494,718 505,715 506,715 506,715 507,713 507,713 508,713 508,713 509,713 510,712 510,712 512,712 516,712 516,712 519,710 519,710 520,710 522,709 524,707 526,706 527,706 527,704 528,704 532,703 532,703 533,703 533,703 534,701 535,701 535,701 537,700 540,700 540,700 543,700 543,700 544,698 545,698 547,698 547,698 548,698 549,698 550,698 551,698 553,697 554,696 556,694 557,694 557,693 558,693 559,693 560,691 560,691 561,691 568,691 568,690 570,690 572,690 573,688 573,688 575,688 576,688 578,688 578,688 579,688 580,687 580,687 581,687 584,687 585,685 586,685 586,685 588,685 589,685 589,685 591,684 593,684 594,684 594,682 595,684 595,684 596,684 599,682 600,682 601,682 602,682 603,682 603,681 604,681 605,681 606,681 606,679 607,679 608,679 609,679 610,679 611,678 611,678 614,678 614,678 615,676 615,676 617,676 617,676 618,676 619,676 619,676 620,675 621,675 622,675 622,675 623,675 623,673 624,672 625,672 625,672 626,673 626,673 627,673 627,673 628,672 628,670 629,670 630,669 630,667 631,667 631,666 632,666 634,666 635,666 636,666 636,664 637,664 638,663 638,663 639,663 640,662 642,663 643,663 644,663 644,663 647,663 647,663 648,663 649,663 650,660 650,660 651,660 651,662 652,662 652,662 653,662 654,662 654,662 655,662 656,662 657,660 658,660 659,660 659,659 660,660 662,660 663,660 663,660 664,660 665,660 666,660 667,660 668,659 669,659 670,657 671,657 671,657 673,657 673,657 676,657 676,656 680,654 680,654 682,654 683,654 684,653 684,653 685,653 685,653 686,653 687,653 688,653 688,653 689,653 689,653 690,651 691,651 692,651 692,650 693,650 693,647 694,645 697,645 697,644 698,644 698,644 702,644 703,644 704,644 706,644 706,644 708,642 710,642 710,641 712,639 712,639 714,639 715,639 716,639 716,639 717,639 721,638 721,638 722,636 722,636 724,635 725,633 726,633 726,633 727,632 727,632 728,631 729,629 729,629 730,629 731,629 732,629 733,629 734,629 735,629 735,629 737,628 737,628 738,628 738,626 739,626 739,626 740,625 741,622 741,622 742,622 745,623 747,622 748,617 749,616 749,617 750,617 750,617 751,616 753,616 754,616 755,616 756,616 757,616 758,614 759,614 759,614 760,613 761,613 762,611 762,611 763,611 763,611 764,610 764,610 765,608 766,607 767,607 767,607 768,607 769,605 770,605 771,605 771,604 772,604 773,604 774,604 775,604 775,601 776,599 776,599 777,599 778,598 778,598 779,598 779,598 780,598 780,598 782,598 782,598 783,598 784,598 784,598 785,598 786,598 786,597 787,597 788,597 789,597 790,597 790,597 792,595 793,595 793,595 794,594 795,592 795,591 796,591 797,591 797,589 799,589 799,588 800,588 800,588 801,588 801,588 802,588 803,586 803,585 804,585 804,585 805,583 806,582 807,582 808,582 808,580 809,580 809,580 810,580 811,580 812,580 812,580 813,580 813,580 814,580 815,580 815,580 816,580 816,580 817,579 817,579 818,577 819,577 819,577 820,576 820,571 821,571 821,571 821,571 823,570 824,570 825,565 825,564 826,563 826,561 827,561 828,561 828,560 829,560 830,560 831,560 832,560 832,560 834,558 835,555 836,555 836,552 837,552 837,552 838,552 838,552 839,552 840,552 840,551 841,548 841,548 842,545 842,545 843,545 844,543 844,543 845,543 845,543 846,543 846,543 847,542 848,542 848,539 849,539 849,539 850,539 851,539 852,537 852,537 853,537 853,537 854,537 854,537 855,537 856,536 856,536 857,536 857,536 858,536 858,536 859,534 859,534 860,534 861,534 861,534 862,534 862,534 863,533 863,532 864,532 865,532 865,530 866,530 866,530 867,530 867,530 868,527 869,527 869,526 870,526 870,524 871,524 871,524 873,524 873,524 874,524 874,524 875,523 875,521 876,520 877,518 877,517 878,518 878,518 879,517 879,517 880,515 881,515 881,515 882,515 882,515 883,515 883,515 884,515 885,512 885,514 886,512 886,511 887,509 887,509 888,508 889,505 889,503 890,503 891,503 891,503 892,502 892,502 893,502 894,502 894,502 895,502 895,502 896,502 896,503 897,503 898,503 898,502 899,500 900,500 900,500 901,500 902,500 902,500 903,499 903,498 904,498 904,498 905,492 906,492 906,492 907,492 907,490 908,487 908,484 909,484 910,481 910,481 911,481 911,481 912,478 912,478 913,477 914,475 914,477 915,475 915,474 916,472 916,472 917,471 918,471 918,469 919,469 920,469 920,469 921,467 922,467 922,465 923,465 923,462 924,462 924,459 925,458 925,458 926,456 927,453 927,453 928,452 928,450 929,450 929,450 930,450 931,450 931,450 932,450 932,450 933,449 933,449 934,449 935,449 935,449 936,449 936,446 937,446 937,444 938,444 939,444 939,443 940,443 940,443 941,443 941,443 942,443 943,443 943,443 944,443 944,443 945,440 945,440 946,437 947,437 947,437 948,437 948,434 949,434 949,434 950,433 951,433 951,431 952,431 952,431 953,431 953,430 954,427 955,425 955,425 956,424 956,422 957,421 957,416 958,415 958,415 959,413 960,413 960,413 961,412 961,410 962,410 962,409 963,410 964,407 964,407 965,404 965,401 966,403 966,403 967,403 968,401 968,401 969,401 969,401 970,401 970,400 971,400 972,400 972,400 973,400 973,400 974,399 974,397 975,394 976,393 976,393 977,393 977,391 978,391 978,388 979,388 980,388 980,390 981,388 981,388 982,388 982,388 983,387 984,388 984,385 985,385 985,385 986,382 986,382 987,381 988,378 988,373 989,372 989,372 990,372 990,369 991,369 991,369 992,369 993,369 993,369 994,368 994,368 995,368 995,368 996,363 997,362 997,362 998,362 998,362 999,362 999,360 1000,360 1001,359 1001,357 1002,356 1002,356 1003,354 1004,353 1005,354 1005,354 1006,354 1006,354 1007,354 1007,353 1008,353 1009,354 1009,354 1010,354 1010,354 1011,354 1011,354 1012,354 1013,354 1013,353 1014,353 1014,353 1015,353 1015,353 1016,351 1017,351 1017,351 1018,351 1018,351 1019,351 1019,350 1020,350 1021,348 1021,348 1022,348 1022,348 1023,347 1023,348 1024,345 1024,345 1025,344 1026,344 1026,344 1027,344 1027,339 1028,335 1028,335 1029,335 1030,335 1030,335 1031,336 1031,335 1032,338 1032,338 1033,336 1034,336 1034,336 1035,335 1035,335 1036,335 1036,335 1037,334 1038,332 1038,332 1039,331 1039,329 1040,328 1040,328 1040,328 1041,326 1042,326 1042,326 1043,323 1043,323 1044,320 1044,317 1045,317 1046,317 1046,316 1047,316 1047,314 1048,316 1048,316 1049,316 1050,316 1050,311 1051,311 1051,311 1052,310 1052,310 1053,308 1054,308 1054,308 1055,308 1055,308 1056,308 1056,308 1057,308 1057,308 1058,308 1059,307 1059,307 1060,307 1060,305 1061,305 1061,304 1062,303 1063,303 1063,303 1064,303 1064,303 1065,303 1065,303 1066,303 1067,303 1067,303 1068,303 1068,301 1069,301 1069,298 1070,297 1071,297 1071,297 1072,295 1072,294 1073,292 1073,292 1074,292 1075,291 1075,289 1076,288 1076,288 1077,288 1077,288 1078,288 1079,286 1079,285 1080,285 1080,286 1081,285 1081,283 1082,283 1083,282 1083,282 1084,279 1084,279 1085,279 1085,276 1086,276 1087,274 1087,273 1088,270 1088,270 1089,270 1089,269 1090,269 1090,267 1091,267 1092,266 1092,266 1093,266 1093,266 1094,266 1094,264 1095,264 1096,264 1096,264 1097,263 1097,263 1098,263 1098,263 1099,263 1100,263 1100,261 1101,260 1101,260 1102,255 1102,255 1103,252 1104,252 1104,243 1105,240 1105,239 1106,236 1106,236 1107,235 1108,235 1108,235 1109,235 1109,233 1110,232 1110,227 1111,227 1112,227 1112,224 1113,226 1113,226 1114,226 1114,220 1115,220 1116,221 1116,221 1117,221 1117,218 1118,218 1118,217 1119,221 1120,221 1120,221 1121,220 1121,220 1121,220 1121,217 1122,217 1122,217 1122,217 1123,217 1123,217 1123,215 1124,215 1124,212 1125,212 1125,211 1125,211 1125,208 1126,208 1126,206 1126,206 1126,205 1127,205 1127,205 1127,205 1127,204 1128,204 1128,204 1129,204 1129,202 1129,202 1129,202 1130,199 1130,199 1130,201 1131,201 1131,201 1131,201 1132,201 1132,199 1133,199 1133,199 1133,199 1133,199 1134,199 1134,195 1134,195 1134,195 1135,195 1135,195 1135,195 1136,195 1136,195 1137,195 1137,192 1137,192 1137,190 1138,190 1138,190 1138,190 1138,189 1139,189 1139,189 1139,189 1139,187 1140,187 1140,186 1141,184 1141,184 1141,183 1142,183 1142,181 1142,181 1142,177 1143,177 1143,177 1143,177 1143,175 1144,175 1144,174 1145,174 1145,172 1145,172 1145,170 1146,170 1146,167 1146,167 1146,167 1147,167 1147,167 1147,165 1148,165 1149,165 1149,161 1149,161 1149,161 1150,161 1150,161 1150,161 1150,161 1151,161 1151,159 1151,159 1151,159 1152,159 1152,159 1153,159 1153,159 1153,159 1153,156 1154,156 1154,156 1154,156 1155,156 1155,155 1155,155 1155,152 1156,152 1156,149 1156,149 1156,147 1157,147 1158,147 1158,147 1158,147 1158,147 1159,147 1159,146 1159,146 1159,144 1160,144 1160,144 1160,144 1160,144 1161,144 1161,141 1162,141 1162,141 1162,141 1162,141 1163,141 1163,143 1163,143 1163,141 1164,141 1164,139 1164,139 1164,137 1165,137 1165,137 1166,137 1166,137 1166,137 1166,133 1167,133 1167,133 1167,133 1167,131 1168,130 1168,130 1168,130 1169,130 1169,125 1170,125 1170,124 1170,124 1170,124 1171,124 1171,124 1171,124 1171,122 1172,122 1172,122 1172,122 1172,121 1173,121 1173,119 1174,119 1174,119 1174,115 1175,115 1175,112 1175,112 1175,109 1176,109 1176,107 1176,107 1176,106 1177,105 1178,102 1178,102 1178,100 1179,97 1179,97 1179,96 1180,96 1180,96 1180,96 1180,96 1181,96 1181,96 1182,96 1182,94 1182,94 1182,90 1183,90 1183,90 1183,90 1183,88 1184,88 1184,87 1184,85 1184,85 1185,85 1186,84 1186,84 1186,84 1186,84 1187,84 1187,81 1187,81 1187,76 1188,76 1188,78 1188,78 1188,78 1189,76 1189,75 1190,75 "/>
<polyline fill="none" opacity="1" stroke="#19E619" stroke-width="2" points="533,738 535,737 537,737 538,737 539,737 540,737 541,737 541,737 544,737 545,737 547,737 548,737 549,737 550,737 555,737 555,737 557,737 557,737 558,737 560,737 562,737 563,737 564,737 565,737 566,737 567,737 569,735 569,735 570,735 570,735 573,735 573,735 574,735 574,735 575,735 577,735 577,735 579,735 580,735 581,735 582,735 582,735 583,735 584,735 585,735 585,735 586,735 588,735 588,735 589,735 590,735 591,735 591,735 592,735 593,735 594,735 594,735 595,735 596,735 597,735 598,735 598,735 599,735 599,735 601,735 601,735 602,735 604,735 605,734 605,734 606,734 607,734 607,734 608,734 609,734 609,734 610,734 610,734 611,734 611,734 613,734 620,732 621,732 621,732 622,732 624,732 626,732 626,732 628,732 630,732 630,732 631,732 631,732 632,732 638,732 639,732 640,732 640,732 642,732 642,732 643,732 643,732 644,732 645,732 646,732 646,732 647,732 647,732 648,732 648,732 650,731 650,731 651,731 654,731 655,731 655,731 656,731 656,731 657,731 658,729 658,729 659,729 659,729 660,729 663,729 665,729 666,729 667,729 669,729 670,729 671,729 673,729 675,729 677,729 677,729 678,728 681,728 681,728 683,728 683,728 684,728 685,728 686,728 687,728 688,727 688,727 690,727 691,727 691,727 692,727 692,727 696,727 697,727 697,727 698,727 699,727 700,727 702,727 703,727 704,727 704,727 708,727 709,727 709,727 710,727 710,725 712,724 717,724 718,724 720,724 720,724 721,724 724,724 726,724 727,724 727,721 729,722 730,722 730,722 731,722 731,721 732,721 733,721 734,721 735,721 738,721 741,721 742,719 742,718 743,718 743,718 744,718 745,718 746,715 748,715 751,713 754,713 754,713 760,713 761,713 762,713 762,713 766,713 766,713 767,713 767,713 771,713 772,713 774,713 775,713 776,713 776,713 778,712 780,710 782,709 783,709 783,709 784,709 785,709 787,709 789,709 790,709 791,709 791,709 793,707 793,707 794,707 795,706 796,706 797,706 797,706 799,706 799,706 800,706 801,706 803,704 804,703 804,703 809,701 809,701 811,701 812,701 816,700 817,700 819,698 824,698 825,697 829,697 831,697 832,697 833,697 834,697 835,696 836,696 836,694 837,694 839,694 840,694 840,694 842,693 843,693 844,691 846,691 847,691 848,690 849,690 851,688 852,688 852,688 855,687 856,687 856,687 857,685 858,685 860,684 861,684 862,684 863,684 865,684 865,684 867,684 873,682 873,682 874,682 875,682 876,682 877,682 877,682 878,682 878,682 879,681 880,679 881,679 883,678 883,678 885,678 885,678 886,676 886,676 887,676 887,676 889,676 890,676 891,675 891,675 892,673 894,673 894,673 895,673 895,673 896,673 896,673 898,673 898,673 899,673 899,673 900,673 902,670 903,670 903,670 904,670 904,670 905,669 906,669 906,669 907,667 908,667 908,667 909,667 910,667 910,667 911,667 912,667 912,667 913,667 914,667 914,667 915,667 915,667 916,667 916,667 917,667 918,667 919,667 920,667 920,667 921,667 922,667 923,667 924,667 924,667 925,667 925,667 926,667 927,667 927,667 928,667 928,667 929,667 929,667 930,667 931,667 931,666 932,666 932,666 933,666 933,666 934,664 935,664 935,664 936,664 936,664 937,664 937,664 938,664 939,664 939,664 940,664 940,664 941,664 941,664 942,663 943,663 943,663 944,663 944,663 945,663 945,663 946,663 947,663 947,662 948,662 948,662 949,660 949,660 950,660 951,660 951,660 952,660 952,660 953,660 953,660 954,659 955,659 955,657 956,657 956,657 957,657 957,657 958,657 958,657 959,657 960,657 960,657 961,656 961,656 962,654 962,654 963,654 964,654 964,654 965,654 965,654 966,654 966,654 967,654 968,654 968,654 969,654 969,654 970,654 970,654 971,654 972,654 972,654 973,653 973,653 974,653 974,653 975,653 976,653 976,653 977,653 977,653 978,653 978,653 979,653 980,653 980,653 981,653 981,653 982,653 982,653 983,653 984,653 984,653 985,653 985,653 986,653 986,653 987,653 988,653 988,653 989,653 989,651 990,651 990,650 991,650 991,650 992,650 993,650 993,650 994,648 994,648 995,648 995,648 996,647 997,647 997,647 998,647 998,645 999,645 999,644 1000,644 1001,642 1001,642 1002,642 1002,642 1003,642 1003,641 1004,641 1005,642 1005,642 1006,639 1006,639 1007,638 1007,638 1008,639 1009,639 1009,639 1010,639 1010,639 1011,635 1011,635 1012,635 1013,635 1013,635 1014,635 1014,635 1015,635 1015,635 1016,633 1017,632 1017,632 1018,632 1018,632 1019,632 1019,632 1020,632 1021,632 1021,632 1022,632 1022,632 1023,632 1023,632 1024,632 1024,631 1025,631 1026,631 1026,631 1027,629 1027,629 1028,629 1028,629 1029,629 1030,629 1030,629 1031,626 1031,626 1032,625 1032,625 1033,625 1034,625 1034,625 1035,625 1035,623 1036,623 1036,623 1037,623 1038,622 1038,622 1039,620 1039,620 1040,620 1040,620 1040,620 1041,620 1042,620 1042,620 1043,620 1043,620 1044,620 1044,620 1045,620 1046,620 1046,620 1047,620 1047,620 1048,619 1048,619 1049,619 1050,619 1050,619 1051,617 1051,617 1052,616 1052,616 1053,616 1054,616 1054,613 1055,613 1055,613 1056,613 1056,613 1057,613 1057,613 1058,613 1059,613 1059,613 1060,613 1060,613 1061,613 1061,613 1062,613 1063,613 1063,613 1064,610 1064,610 1065,610 1065,610 1066,610 1067,610 1067,610 1068,610 1068,610 1069,610 1069,610 1070,610 1071,610 1071,610 1072,610 1072,608 1073,608 1073,608 1074,608 1075,608 1075,608 1076,610 1076,611 1077,611 1077,611 1078,611 1079,610 1079,610 1080,610 1080,610 1081,610 1081,608 1082,608 1083,608 1083,608 1084,607 1084,605 1085,605 1085,605 1086,605 1087,605 1087,605 1088,605 1088,605 1089,605 1089,604 1090,602 1090,602 1091,602 1092,601 1092,601 1093,599 1093,599 1094,599 1094,598 1095,597 1096,595 1096,595 1097,595 1097,594 1098,594 1098,594 1099,594 1100,594 1100,594 1101,594 1101,594 1102,594 1102,594 1103,594 1104,594 1104,591 1105,591 1105,589 1106,589 1106,589 1107,589 1108,588 1108,588 1109,588 1109,588 1110,588 1110,586 1111,582 1112,582 1112,583 1113,583 1113,580 1114,580 1114,580 1115,579 1116,579 1116,579 1117,579 1117,579 1118,579 1118,579 1119,580 1120,580 1120,580 1121,580 1121,577 1121,577 1121,577 1122,577 1122,577 1122,577 1123,577 1123,577 1123,577 1124,577 1124,577 1125,577 1125,577 1125,577 1125,577 1126,577 1126,577 1126,577 1126,576 1127,576 1127,576 1127,576 1127,573 1128,573 1128,573 1129,573 1129,573 1129,573 1129,573 1130,571 1130,571 1130,571 1131,571 1131,571 1131,571 1132,571 1132,570 1133,570 1133,570 1133,570 1133,570 1134,570 1134,570 1134,570 1134,570 1135,567 1135,567 1135,567 1136,567 1136,567 1137,567 1137,567 1137,567 1137,565 1138,565 1138,565 1138,565 1138,565 1139,565 1139,565 1139,565 1139,565 1140,565 1140,565 1141,565 1141,565 1141,565 1142,565 1142,565 1142,565 1142,565 1143,565 1143,565 1143,565 1143,565 1144,565 1144,565 1145,565 1145,565 1145,565 1145,565 1146,565 1146,565 1146,565 1146,564 1147,564 1147,564 1147,564 1148,564 1149,564 1149,563 1149,563 1149,563 1150,563 1150,563 1150,563 1150,563 1151,563 1151,563 1151,563 1151,561 1152,561 1152,561 1153,561 1153,561 1153,561 1153,561 1154,560 1154,560 1154,558 1155,558 1155,555 1155,555 1155,555 1156,555 1156,555 1156,555 1156,555 1157,555 1158,555 1158,554 1158,554 1158,554 1159,554 1159,552 1159,552 1159,552 1160,552 1160,552 1160,552 1160,552 1161,552 1161,552 1162,552 1162,551 1162,551 1162,551 1163,551 1163,551 1163,551 1163,546 1164,546 1164,546 1164,546 1164,546 1165,546 1165,546 1166,546 1166,546 1166,546 1166,548 1167,548 1167,548 1167,548 1167,546 1168,546 1168,546 1168,546 1169,546 1169,546 1170,546 1170,546 1170,546 1170,546 1171,546 1171,546 1171,546 1171,546 1172,546 1172,546 1172,546 1172,545 1173,545 1173,545 1174,540 1174,540 1174,540 1175,540 1175,539 1175,539 1175,539 1176,539 1176,537 1176,537 1176,537 1177,537 1178,536 1178,536 1178,536 1179,536 1179,536 1179,536 1180,536 1180,534 1180,534 1180,534 1181,534 1181,534 1182,534 1182,534 1182,534 1182,534 1183,534 1183,534 1183,534 1183,534 1184,534 1184,534 1184,534 1184,534 1185,534 1186,534 1186,534 1186,534 1186,534 1187,534 1187,534 1187,534 1187,534 1188,534 1188,534 1188,534 1188,534 1189,534 1189,533 1190,533 "/>
<polyline fill="none" opacity="1" stroke="#19E5E6" stroke-width="2" points="60,738 82,737 98,735 103,734 107,732 107,728 111,727 115,725 117,725 118,725 118,725 120,728 123,728 123,727 124,727 125,727 127,725 127,721 128,721 129,721 131,721 131,721 132,721 133,721 134,721 135,719 136,719 136,718 138,718 139,718 140,718 141,718 142,718 143,718 144,718 144,718 145,718 146,718 148,716 148,716 149,716 151,716 151,716 152,716 153,715 154,715 155,715 155,715 157,715 159,715 159,715 160,715 160,715 161,713 161,713 162,709 162,709 163,709 164,709 165,709 166,709 167,709 168,709 168,709 169,709 169,709 171,709 172,709 173,709 174,709 174,709 175,709 176,709 176,709 177,709 177,709 178,709 179,709 180,709 181,709 182,709 183,709 184,707 184,707 186,707 186,707 188,707 188,707 189,707 189,707 190,707 192,707 192,707 193,707 193,706 194,706 194,706 195,706 195,706 197,706 197,706 198,706 198,706 199,706 199,706 200,706 201,706 201,706 202,706 202,704 203,704 203,704 204,704 205,704 205,704 206,704 206,704 207,704 208,704 209,704 210,704 211,704 212,704 213,704 213,703 214,703 215,703 215,700 216,700 217,700 218,700 218,700 219,698 219,698 220,698 221,698 221,698 222,698 222,697 223,697 223,697 224,697 225,697 225,697 226,697 226,697 227,697 227,697 228,697 228,697 229,697 230,697 230,697 231,697 231,696 232,696 234,696 234,696 235,696 235,696 236,696 238,696 238,696 239,696 240,696 241,696 242,694 242,694 243,693 244,693 244,693 245,693 246,691 246,691 247,691 248,691 248,691 249,691 250,691 250,691 251,691 252,691 252,691 253,691 254,691 254,691 255,691 255,691 256,690 256,690 258,690 258,688 259,688 259,688 260,688 260,688 261,688 261,688 262,688 263,688 263,688 264,688 264,688 265,690 265,688 266,688 267,688 267,688 268,688 269,688 269,688 270,687 271,685 271,685 272,685 272,685 273,685 273,684 274,684 275,684 275,684 276,684 276,684 277,684 277,684 278,684 279,684 279,684 280,684 280,684 281,684 281,684 282,684 283,684 283,684 284,684 284,684 285,684 285,684 286,684 287,684 287,684 288,684 288,684 289,684 289,684 290,684 291,684 291,684 292,684 292,684 293,684 293,684 294,684 294,684 295,684 296,684 296,684 297,684 297,684 298,684 298,684 299,684 300,684 300,684 301,684 301,684 302,684 302,684 303,682 304,681 304,681 305,681 305,679 306,679 306,679 307,679 308,678 308,678 309,678 309,678 310,678 310,678 311,678 312,678 312,678 313,678 313,678 314,678 314,676 315,676 316,675 316,675 317,673 317,672 318,672 318,672 319,672 320,672 321,672 321,672 322,672 322,672 323,672 324,672 324,672 325,672 325,672 326,672 326,672 327,672 327,672 328,672 329,672 329,672 330,672 330,672 331,672 331,672 332,672 333,672 333,672 334,672 334,672 335,670 335,669 336,669 337,669 337,669 338,669 338,669 339,667 339,667 340,667 341,667 341,667 342,667 342,667 343,667 343,667 344,667 345,667 346,667 346,669 347,669 347,669 348,669 349,669 349,669 350,669 350,669 351,667 351,667 352,667 353,667 353,667 354,667 354,667 355,667 355,667 356,667 357,667 357,666 358,666 358,666 359,666 359,666 360,666 360,666 361,666 362,666 362,666 363,666 363,666 364,666 364,666 365,666 366,666 366,666 367,666 367,666 368,666 368,666 369,666 370,666 370,666 371,666 371,666 372,666 372,666 373,666 374,666 374,666 375,664 375,663 376,662 376,662 377,662 378,662 378,662 379,662 379,662 380,662 380,662 381,662 382,662 382,662 383,662 383,662 384,662 384,662 385,662 386,662 386,662 387,662 387,662 388,662 388,662 389,662 390,660 390,660 391,660 391,660 392,660 392,660 393,659 393,659 394,659 395,659 395,659 396,659 396,659 397,659 397,659 398,659 399,656 399,656 400,656 400,656 401,654 401,654 402,654 403,653 403,653 404,653 404,653 405,653 405,653 406,653 407,653 407,653 408,653 408,653 409,653 409,653 410,653 411,653 412,653 412,653 413,653 413,653 414,653 415,653 415,653 416,653 416,653 417,654 417,654 418,654 419,654 419,654 420,654 420,654 421,654 421,654 422,654 423,654 423,654 424,654 424,654 425,654 425,654 426,654 426,656 427,656 428,656 428,656 429,656 429,656 430,656 430,656 431,656 432,656 432,656 433,654 433,654 434,654 434,654 435,654 436,654 436,653 437,653 437,654 438,654 438,654 439,654 440,653 440,653 441,653 441,651 442,651 442,651 443,650 444,650 444,650 445,648 445,648 446,647 446,648 447,648 448,648 448,647 449,647 449,647 450,647 450,645 451,645 452,645 452,645 453,645 453,645 454,645 454,645 455,642 456,642 456,642 457,642 457,642 458,642 458,644 459,644 459,642 460,642 461,642 461,642 462,642 462,642 463,642 463,642 464,642 465,642 465,642 466,642 466,642 467,642 467,642 468,641 469,641 469,641 470,639 470,638 471,638 471,638 472,638 473,638 473,638 474,638 474,638 475,636 475,638 476,638 477,638 477,638 478,638 478,638 479,638 479,638 480,638 481,638 481,638 482,638 482,638 483,638 483,638 484,636 485,636 485,636 486,636 486,636 487,636 487,636 488,636 489,636 489,636 490,636 490,636 491,636 491,635 492,635 492,635 493,633 494,632 494,632 495,629 495,629 496,629 496,629 497,629 498,629 498,629 499,629 499,629 500,628 500,628 501,628 502,628 502,628 503,628 503,628 504,628 504,628 505,628 506,628 506,628 507,628 507,628 508,628 508,628 509,628 510,628 510,626 511,626 511,625 512,625 512,625 513,625 514,625 514,623 515,623 515,623 516,622 516,620 517,620 518,620 518,620 519,620 519,620 520,620 520,620 521,620 522,620 522,620 523,620 523,620 524,620 524,620 525,620 525,617 526,617 527,617 527,617 528,617 528,617 529,617 529,616 530,616 531,616 531,616 532,616 532,616 533,616 533,616 534,616 535,616 535,616 536,616 536,616 537,616 537,616 538,616 539,616 539,616 540,616 540,616 541,616 541,616 542,616 543,616 543,616 544,616 544,616 545,616 545,616 546,616 547,616 547,616 548,616 548,616 549,616 549,616 550,616 551,616 551,616 552,616 552,616 553,614 553,614 554,613 555,613 555,613 556,613 556,611 557,611 557,611 558,611 558,611 559,611 560,611 560,611 561,611 561,611 562,610 562,610 563,607 564,605 564,605 565,605 565,605 566,605 566,605 567,605 568,605 568,605 569,605 569,604 570,604 570,604 571,604 572,604 572,604 573,601 573,601 574,601 574,601 575,601 576,601 576,601 577,601 577,601 578,601 578,601 579,601 580,601 580,601 581,601 581,601 582,601 582,601 583,601 584,601 584,601 585,601 585,599 586,599 586,599 587,599 588,599 588,598 589,598 589,598 590,598 590,598 591,598 591,598 592,598 593,598 593,598 594,598 594,598 595,597 595,597 596,597 597,597 597,597 598,595 598,597 599,597 599,597 600,597 601,597 601,597 602,597 602,597 603,597 603,597 604,597 605,597 605,597 606,597 606,597 607,597 607,597 608,597 609,597 609,597 610,597 610,597 611,597 611,597 612,597 613,597 613,597 614,597 614,597 615,597 615,597 616,597 617,597 617,597 618,597 618,597 619,595 619,595 620,597 621,597 621,597 622,597 622,597 623,597 623,597 624,597 625,597 625,597 626,597 627,597 627,597 628,597 628,597 629,597 630,597 630,597 631,597 631,597 632,597 632,597 633,597 634,597 634,598 635,598 635,598 636,598 636,598 637,598 638,598 638,598 639,598 639,598 640,598 640,598 641,598 642,597 642,597 643,597 643,597 644,597 644,597 645,597 646,595 646,595 647,595 647,595 648,594 648,594 649,594 650,594 650,594 651,594 651,594 652,594 652,594 653,594 654,594 654,594 655,594 655,594 656,594 656,594 657,594 658,594 658,594 659,594 659,594 660,592 660,592 661,592 661,592 662,592 663,592 663,592 664,592 664,592 665,592 665,592 666,592 667,592 667,592 668,592 668,592 669,592 669,592 670,592 671,592 671,592 672,589 672,589 673,589 673,589 674,582 675,582 675,582 676,582 676,582 677,582 677,582 678,582 679,582 679,582 680,582 680,582 681,582 681,582 682,582 683,579 683,579 684,579 684,579 685,579 685,579 686,579 687,579 687,579 688,579 688,579 689,579 689,579 690,579 691,580 691,580 692,580 692,580 693,580 693,580 694,580 694,580 695,580 696,580 696,580 697,580 697,580 698,580 698,580 699,580 700,580 700,579 701,579 701,579 702,579 702,579 703,579 704,577 704,577 705,577 705,577 706,577 706,577 707,577 708,577 708,577 709,576 709,576 710,576 710,576 711,576 712,576 712,576 713,576 713,576 714,576 714,576 715,576 716,576 716,576 717,573 717,573 718,573 718,573 719,573 720,573 720,573 721,571 721,571 722,571 722,571 723,571 724,571 724,570 725,570 725,570 726,570 726,570 727,570 727,570 728,570 729,570 729,570 730,567 730,565 731,565 731,564 732,564 733,564 733,564 734,564 734,563 735,563 735,563 736,563 737,563 737,563 738,563 738,563 739,563 739,563 740,563 741,563 741,563 742,563 742,563 743,571 743,571 744,571 745,571 745,571 746,571 746,571 747,570 747,570 748,570 749,570 749,570 750,570 750,570 751,570 751,568 752,568 753,568 753,568 754,568 754,568 755,568 755,568 756,568 757,568 757,568 758,568 758,568 759,568 759,568 760,568 760,568 761,568 762,568 762,568 763,568 763,568 764,568 764,568 765,568 766,568 766,568 767,568 767,570 768,570 768,570 769,570 770,570 770,570 771,570 771,570 772,570 772,570 773,570 774,570 774,570 775,570 775,570 776,570 776,570 777,570 778,570 778,570 779,570 779,570 780,570 780,570 781,570 782,570 782,570 783,570 783,570 784,568 784,568 785,568 786,568 786,568 787,568 787,568 788,568 788,567 789,567 790,567 790,567 791,567 791,567 792,567 792,567 793,567 793,567 794,567 795,567 795,567 796,567 796,567 797,567 797,567 798,567 799,567 799,567 800,567 800,567 801,567 801,567 802,567 803,567 803,565 804,565 804,565 805,565 805,565 806,565 807,565 807,565 808,565 808,565 809,565 809,565 810,565 811,565 811,565 812,565 812,565 813,565 813,565 814,565 815,565 815,564 816,564 816,564 817,564 817,564 818,563 819,563 819,563 820,563 820,563 821,563 821,563 821,563 822,563 823,563 823,563 824,563 824,561 825,561 825,561 826,560 826,560 827,560 828,560 828,560 829,560 829,560 830,560 830,560 831,560 832,560 832,560 833,560 833,560 834,560 834,560 835,560 836,560 836,560 837,560 837,557 838,557 838,557 839,557 840,557 840,557 841,555 841,555 842,554 842,554 843,554 844,554 844,554 845,554 845,554 846,554 846,554 847,554 848,554 848,554 849,554 849,554 850,554 850,554 851,554 852,554 852,554 853,554 853,554 854,554 854,554 855,554 856,554 856,554 857,554 857,554 858,554 858,554 859,554 859,554 860,554 861,554 861,554 862,554 862,554 863,554 863,554 864,554 865,552 865,552 866,554 866,554 867,554 867,554 868,552 869,552 869,552 870,552 870,552 871,552 871,552 872,552 873,552 873,552 874,549 874,549 875,549 875,549 876,549 877,551 877,551 878,552 878,552 879,552 879,552 880,552 881,554 882,554 882,552 883,552 883,552 884,552 885,552 885,552 886,552 886,552 887,552 887,552 888,552 889,551 889,551 890,551 890,551 891,551 891,549 892,549 892,549 893,549 894,549 894,549 895,549 895,549 896,549 896,549 897,551 898,551 898,551 899,551 899,551 900,551 900,551 901,551 902,551 902,551 903,551 903,551 904,551 904,551 905,551 906,551 906,551 907,551 907,551 908,551 908,551 909,551 910,551 910,551 911,551 911,551 912,551 912,551 913,551 914,552 914,552 915,552 915,552 916,552 916,551 917,551 918,552 918,552 919,552 919,551 920,551 920,551 921,551 922,551 922,551 923,551 923,549 924,549 924,549 925,549 925,549 926,549 927,549 927,549 928,549 928,549 929,549 929,549 930,549 931,549 931,549 932,549 932,549 933,549 933,549 934,549 935,549 935,549 936,549 936,549 937,548 937,548 938,548 939,548 939,548 940,548 940,548 941,548 941,548 942,548 943,548 943,548 944,548 944,548 945,548 945,548 946,548 947,548 947,548 948,548 948,548 949,548 949,548 950,548 951,548 951,548 952,548 952,548 953,546 953,546 954,546 955,546 955,546 956,546 956,546 957,546 957,546 958,546 958,546 959,546 960,546 960,548 961,548 961,546 962,546 962,546 963,546 964,546 964,546 965,546 965,545 966,545 966,545 967,545 968,545 968,545 969,545 969,545 970,545 970,545 971,545 972,543 972,543 973,543 973,543 974,543 974,543 975,543 976,543 976,543 977,543 977,543 978,543 978,543 979,543 980,543 980,543 981,543 981,543 982,543 982,545 983,545 984,545 984,545 985,545 985,545 986,545 986,545 987,546 988,545 988,545 989,545 989,545 990,545 990,545 991,545 991,545 992,545 993,545 993,545 994,545 994,545 995,545 995,545 996,545 997,543 997,543 998,543 998,543 999,543 999,543 1000,543 1001,543 1001,543 1002,542 1002,542 1003,542 1003,542 1004,543 1005,543 1005,543 1006,543 1006,543 1007,543 1007,543 1008,543 1009,543 1009,543 1010,543 1010,542 1011,542 1011,542 1012,542 1013,542 1013,542 1014,542 1014,542 1015,542 1015,540 1016,540 1017,540 1017,540 1018,540 1018,539 1019,539 1019,539 1020,539 1021,539 1021,539 1022,539 1022,539 1023,539 1023,539 1024,539 1024,539 1025,539 1026,539 1026,539 1027,539 1027,539 1028,539 1028,539 1029,539 1030,539 1030,539 1031,539 1031,539 1032,539 1032,539 1033,539 1034,539 1034,539 1035,539 1035,539 1036,539 1036,539 1037,539 1038,539 1038,539 1039,539 1039,539 1040,539 1040,539 1040,539 1041,539 1042,539 1042,539 1043,539 1043,539 1044,539 1044,539 1045,539 1046,539 1046,539 1047,539 1047,537 1048,537 1048,537 1049,537 1050,537 1050,537 1051,537 1051,537 1052,537 1052,537 1053,537 1054,537 1054,539 1055,539 1055,540 1056,540 1056,540 1057,540 1057,540 1058,540 1059,540 1059,540 1060,540 1060,540 1061,540 1061,540 1062,540 1063,540 1063,539 1064,537 1064,537 1065,537 1065,537 1066,537 1067,537 1067,537 1068,537 1068,537 1069,537 1069,537 1070,534 1071,534 1071,534 1072,530 1072,530 1073,530 1073,530 1074,530 1075,530 1075,530 1076,530 1076,530 1077,532 1077,532 1078,532 1079,532 1079,532 1080,532 1080,532 1081,532 1081,532 1082,532 1083,532 1083,532 1084,532 1084,532 1085,530 1085,527 1086,527 1087,527 1087,527 1088,527 1088,527 1089,527 1089,527 1090,527 1090,527 1091,527 1092,527 1092,527 1093,527 1093,527 1094,527 1094,527 1095,529 1096,529 1096,529 1097,529 1097,529 1098,529 1098,529 1099,529 1100,529 1100,529 1101,529 1101,529 1102,529 1102,529 1103,529 1104,529 1104,527 1105,527 1105,527 1106,526 1106,526 1107,526 1108,526 1108,526 1109,526 1109,526 1110,526 1110,526 1111,526 1112,526 1112,526 1113,526 1113,526 1114,526 1114,526 1115,527 1116,527 1116,527 1117,526 1117,526 1118,526 1118,526 1119,526 1120,526 1120,526 1121,526 1121,526 1121,526 1121,526 1122,526 1122,526 1122,526 1123,526 1123,526 1123,526 1124,526 1124,524 1125,524 1125,524 1125,524 1125,524 1126,524 1126,524 1126,524 1126,524 1127,524 1127,524 1127,524 1127,524 1128,524 1128,524 1129,524 1129,524 1129,524 1129,524 1130,524 1130,524 1130,524 1131,524 1131,524 1131,524 1132,524 1132,524 1133,524 1133,524 1133,524 1133,524 1134,524 1134,524 1134,524 1134,524 1135,524 1135,524 1135,524 1136,524 1136,524 1137,524 1137,524 1137,524 1137,524 1138,524 1138,524 1138,524 1138,524 1139,524 1139,524 1139,526 1139,526 1140,526 1140,526 1141,526 1141,526 1141,524 1142,524 1142,524 1142,524 1142,524 1143,524 1143,524 1143,524 1143,524 1144,524 1144,523 1145,523 1145,523 1145,523 1145,523 1146,523 1146,523 1146,523 1146,523 1147,523 1147,523 1147,524 1148,524 1149,524 1149,524 1149,524 1149,524 1150,524 1150,524 1150,524 1150,524 1151,524 1151,524 1151,524 1151,524 1152,524 1152,523 1153,523 1153,523 1153,523 1153,523 1154,523 1154,523 1154,523 1155,523 1155,523 1155,523 1155,523 1156,523 1156,523 1156,523 1156,523 1157,523 1158,523 1158,523 1158,523 1158,523 1159,523 1159,523 1159,523 1159,523 1160,523 1160,523 1160,523 1160,523 1161,523 1161,523 1162,523 1162,524 1162,524 1162,524 1163,524 1163,524 1163,524 1163,524 1164,524 1164,524 1164,524 1164,524 1165,524 1165,524 1166,524 1166,524 1166,524 1166,524 1167,524 1167,524 1167,524 1167,524 1168,524 1168,524 1168,524 1169,524 1169,524 1170,524 1170,524 1170,524 1170,523 1171,523 1171,523 1171,523 1171,523 1172,523 1172,523 1172,523 1172,523 1173,523 1173,523 1174,523 1174,523 1174,523 1175,523 1175,523 1175,523 1175,523 1176,523 1176,523 1176,523 1176,521 1177,521 1178,521 1178,521 1178,521 1179,521 1179,521 1179,521 1180,521 1180,521 1180,521 1180,521 1181,521 1181,521 1182,521 1182,521 1182,521 1182,521 1183,521 1183,521 1183,521 1183,521 1184,521 1184,521 1184,521 1184,521 1185,521 1186,521 1186,521 1186,521 1187,521 1187,521 1187,521 1187,521 1188,521 1188,521 1188,521 1188,521 1189,521 1189,521 1190,521 "/>
<polyline fill="none" opacity="1" stroke="#1919E6" stroke-width="2" points="437,738 496,737 546,735 568,734 575,732 589,731 590,729 591,729 591,728 592,728 593,728 595,727 598,725 599,725 600,725 601,725 601,725 603,725 603,725 604,725 605,725 605,725 606,725 606,725 607,725 607,725 609,725 612,725 614,725 614,725 615,725 615,725 617,725 618,725 618,725 619,725 620,725 621,725 622,725 622,725 623,725 623,725 624,725 625,725 626,725 626,725 627,725 627,725 628,725 628,725 629,725 631,725 631,725 634,725 634,725 636,725 637,725 638,725 639,725 641,725 642,722 642,722 644,722 645,722 646,722 646,722 647,722 648,722 650,722 651,722 652,722 653,722 654,722 654,721 656,721 656,721 657,721 658,721 658,721 659,721 659,721 660,721 660,721 661,721 661,719 664,719 665,719 665,719 667,719 667,719 668,719 668,719 669,719 669,719 670,719 671,719 671,719 672,719 672,719 673,719 674,719 675,719 675,719 676,719 677,719 677,719 679,719 679,719 680,719 680,719 681,719 682,719 683,719 683,719 684,719 685,719 685,719 687,719 687,719 688,719 688,719 689,719 689,719 690,719 691,719 691,719 692,719 692,719 693,718 693,718 695,716 696,716 696,716 697,716 697,716 698,716 698,716 699,716 700,716 700,716 701,716 701,716 702,716 702,716 703,716 704,716 705,716 705,716 706,716 707,716 708,716 708,716 709,716 709,716 710,715 710,715 711,715 712,715 712,713 713,713 713,713 714,713 714,713 715,713 716,713 716,713 717,713 717,713 718,713 718,713 719,713 720,713 720,713 721,713 721,713 722,713 722,713 723,713 724,713 724,713 725,713 725,713 726,713 726,713 727,713 727,712 728,710 729,709 729,709 731,709 731,709 732,709 733,709 733,709 734,709 734,709 735,709 735,709 736,709 737,709 737,709 738,709 738,709 739,709 740,709 741,709 741,709 742,709 742,709 743,709 743,709 744,709 745,709 745,707 746,707 746,707 747,707 747,707 748,707 749,707 749,706 750,706 750,706 751,706 751,706 752,706 753,704 753,704 754,704 754,704 755,704 755,704 756,704 757,704 757,704 758,704 758,704 759,704 759,704 760,704 760,704 761,704 762,704 762,703 763,703 763,703 764,703 764,703 765,703 766,703 766,703 767,703 767,703 768,703 768,703 769,703 770,703 770,703 771,703 771,701 772,701 772,701 773,701 774,700 774,700 775,700 775,700 776,700 776,700 777,700 778,700 778,700 779,700 779,700 780,700 780,700 781,700 782,700 782,700 783,700 783,700 784,698 784,698 785,698 786,698 786,698 787,698 787,698 788,698 788,697 789,697 790,697 790,697 791,697 791,697 792,697 792,697 793,696 793,696 794,696 795,696 795,696 796,696 796,696 797,696 797,696 798,694 799,694 799,694 800,691 800,691 801,691 801,691 802,691 803,691 803,691 804,691 804,691 805,691 805,691 806,691 807,691 807,691 808,691 808,691 809,690 809,690 811,690 811,690 812,690 812,690 813,690 813,690 814,690 815,690 815,690 816,690 816,690 817,690 817,690 818,690 819,690 819,688 820,688 820,688 821,688 821,688 821,688 822,688 823,688 823,688 824,688 824,688 825,688 825,688 826,688 826,688 827,688 828,688 828,688 829,688 829,688 830,687 830,687 831,687 832,687 832,687 833,687 833,687 834,687 834,687 835,685 836,685 836,685 837,685 837,685 838,685 838,685 839,685 840,685 840,685 841,685 841,685 842,684 842,684 843,685 844,685 844,685 845,685 845,685 846,685 846,685 847,684 848,684 848,682 849,682 849,682 850,682 850,682 851,682 852,682 852,682 853,682 853,682 854,682 854,682 855,682 856,682 856,682 857,682 857,682 858,682 858,682 859,682 859,682 860,682 861,682 861,682 862,682 862,682 863,682 863,682 864,682 865,682 865,682 866,682 866,682 867,682 867,682 868,682 869,682 869,682 870,682 870,682 871,682 871,682 872,682 873,682 873,682 874,682 875,682 875,682 876,682 877,682 877,681 878,681 878,681 879,679 879,679 880,679 881,678 881,678 882,678 882,676 883,676 883,676 884,673 885,672 885,670 886,670 886,670 887,670 887,670 888,670 889,670 889,670 890,669 890,669 891,667 891,667 892,667 892,667 893,666 894,666 894,666 895,666 895,666 896,666 896,666 897,664 898,664 898,664 899,664 899,664 900,664 900,664 901,663 902,663 902,663 903,663 903,663 904,664 904,664 905,664 906,664 906,664 907,664 907,664 908,664 908,664 909,664 910,664 910,664 911,664 911,664 912,664 912,664 913,664 914,664 914,663 915,663 915,663 916,662 916,662 917,662 918,662 918,662 919,659 919,659 920,659 920,659 921,659 922,659 922,659 923,659 923,659 924,659 924,659 925,659 925,659 926,659 927,659 927,659 928,659 928,659 929,659 929,659 930,659 931,659 931,659 932,659 932,659 933,659 933,659 934,659 935,659 935,659 936,659 936,659 937,659 937,659 938,659 939,659 939,657 940,657 940,657 941,657 941,657 942,656 943,656 943,656 944,654 944,654 945,653 945,651 946,651 947,651 947,650 948,650 948,650 949,650 949,648 950,647 951,647 951,647 952,647 952,647 953,645 954,645 955,645 955,645 956,645 956,645 957,645 957,645 958,645 958,645 959,645 960,645 960,644 961,644 961,644 962,644 962,644 963,644 964,644 964,644 965,644 965,644 966,642 966,642 967,642 968,642 968,642 969,641 969,641 970,641 970,641 971,641 972,638 972,638 973,638 973,639 974,639 974,639 975,639 976,639 976,639 977,639 977,639 978,639 978,639 979,639 980,639 980,639 981,639 981,639 982,639 982,639 983,639 984,638 984,636 985,633 985,633 986,633 986,633 987,632 988,632 988,632 989,632 989,632 990,632 990,632 991,632 991,632 992,632 993,632 993,632 994,631 994,631 995,629 995,629 996,629 997,629 997,629 998,629 998,629 999,629 999,629 1000,629 1001,629 1001,629 1002,629 1002,629 1003,628 1003,628 1004,628 1005,628 1005,629 1006,629 1006,629 1007,629 1007,629 1008,629 1009,629 1009,629 1010,629 1010,629 1011,629 1011,629 1012,629 1013,629 1013,629 1014,629 1014,629 1015,629 1015,628 1016,628 1017,628 1017,628 1018,628 1018,628 1019,628 1019,625 1020,625 1021,625 1021,625 1022,623 1022,623 1023,623 1023,623 1024,622 1024,622 1025,622 1026,622 1026,622 1027,622 1027,620 1028,619 1028,619 1029,619 1030,619 1030,619 1031,619 1031,619 1032,619 1032,619 1033,619 1034,619 1034,619 1035,619 1035,619 1036,619 1036,619 1037,619 1038,619 1038,619 1039,617 1039,617 1040,616 1040,616 1040,616 1041,614 1042,613 1042,613 1043,613 1043,613 1044,613 1044,611 1045,611 1046,611 1046,611 1047,611 1047,611 1048,610 1048,610 1049,610 1050,610 1050,610 1051,610 1051,610 1052,610 1052,607 1053,607 1054,607 1054,607 1055,607 1055,605 1056,605 1056,605 1057,605 1057,605 1058,605 1059,605 1059,605 1060,605 1060,605 1061,605 1061,605 1062,604 1063,604 1063,604 1064,601 1064,601 1065,601 1065,601 1066,601 1067,599 1067,599 1068,599 1068,599 1069,599 1069,599 1070,599 1071,599 1071,599 1072,599 1072,599 1073,599 1073,599 1074,599 1075,599 1075,598 1076,598 1076,598 1077,598 1077,598 1078,598 1079,598 1079,598 1080,598 1080,598 1081,598 1081,598 1082,598 1083,598 1083,598 1084,598 1084,598 1085,598 1085,598 1086,598 1087,598 1087,598 1088,598 1088,597 1089,597 1089,597 1090,597 1090,597 1091,597 1092,597 1092,595 1093,597 1093,597 1094,597 1094,597 1095,597 1096,595 1096,595 1097,595 1097,595 1098,595 1098,594 1099,594 1100,592 1100,592 1101,592 1101,592 1102,592 1102,592 1103,592 1104,591 1104,591 1105,591 1105,591 1106,589 1106,589 1107,589 1108,589 1108,589 1109,589 1109,589 1110,589 1110,589 1111,589 1112,589 1112,589 1113,589 1113,588 1114,588 1114,586 1115,586 1116,586 1116,588 1117,588 1117,588 1118,588 1118,588 1119,586 1120,586 1120,586 1121,586 1121,585 1121,585 1121,582 1122,582 1122,582 1122,582 1123,582 1123,580 1123,580 1124,580 1124,580 1125,580 1125,580 1125,580 1125,580 1126,580 1126,580 1126,580 1126,580 1127,580 1127,580 1127,580 1127,579 1128,579 1128,579 1129,579 1129,579 1129,579 1129,579 1130,579 1130,579 1130,577 1131,577 1131,577 1131,577 1132,577 1132,577 1133,577 1133,577 1133,577 1133,577 1134,577 1134,577 1134,577 1134,577 1135,577 1135,577 1135,576 1136,576 1136,576 1137,576 1137,576 1137,576 1137,576 1138,576 1138,576 1138,576 1138,576 1139,576 1139,576 1139,576 1139,574 1140,574 1140,574 1141,574 1141,574 1141,574 1142,574 1142,574 1142,574 1142,574 1143,574 1143,573 1143,573 1143,573 1144,573 1144,573 1145,573 1145,573 1145,573 1145,573 1146,573 1146,573 1146,573 1146,573 1147,573 1147,574 1147,574 1148,574 1149,574 1149,571 1149,571 1149,568 1150,568 1150,568 1150,568 1150,568 1151,568 1151,567 1151,567 1151,567 1152,567 1152,567 1153,567 1153,568 1153,568 1153,568 1154,567 1154,567 1154,567 1155,567 1155,567 1155,567 1155,567 1156,567 1156,567 1156,567 1156,567 1157,567 1158,567 1158,567 1158,567 1158,567 1159,567 1159,567 1159,567 1159,565 1160,565 1160,564 1160,564 1160,564 1161,564 1161,563 1162,563 1162,561 1162,561 1162,561 1163,561 1163,560 1163,560 1163,560 1164,560 1164,560 1164,560 1164,560 1165,560 1165,560 1166,560 1166,560 1166,560 1166,557 1167,557 1167,557 1167,557 1167,557 1168,557 1168,557 1168,557 1169,557 1169,557 1170,557 1170,555 1170,555 1170,555 1171,555 1171,552 1171,552 1171,552 1172,552 1172,552 1172,552 1172,552 1173,552 1173,552 1174,552 1174,552 1174,552 1175,552 1175,551 1175,551 1175,551 1176,551 1176,551 1176,551 1176,551 1177,551 1178,549 1178,549 1178,549 1179,549 1179,549 1179,549 1180,549 1180,548 1180,548 1180,548 1181,548 1181,548 1182,548 1182,548 1182,548 1182,546 1183,546 1183,546 1183,546 1183,546 1184,546 1184,545 1184,545 1184,545 1185,545 1186,545 1186,543 1186,543 1186,543 1187,543 1187,543 1187,543 1187,542 1188,542 1188,542 1188,542 1188,542 1189,542 1189,542 1190,542 "/>
<polyline fill="none" opacity="1" stroke="#E519E6" stroke-width="2" points="369,738 396,737 413,735 420,734 429,732 429,731 430,729 436,728 437,727 452,727 454,725 459,724 463,722 466,722 474,721 478,722 480,722 482,722 483,722 484,721 485,721 485,721 486,721 486,721 487,721 489,721 492,721 493,721 494,721 494,721 495,719 498,718 500,718 500,718 502,718 503,718 504,718 504,716 505,716 506,716 517,715 519,715 520,715 522,715 522,715 523,713 523,713 524,713 525,713 527,713 527,713 528,713 528,712 529,712 529,712 531,712 531,712 532,712 535,710 536,710 536,709 537,709 538,709 542,709 543,709 544,707 547,706 548,706 549,706 551,706 552,706 553,706 554,706 555,706 556,706 556,706 558,706 560,706 561,706 561,706 562,706 566,706 567,706 568,706 569,706 570,706 572,704 573,704 573,704 574,704 576,704 576,704 577,704 582,704 582,704 583,703 584,703 584,703 586,703 586,703 588,703 589,703 590,703 590,703 591,703 591,703 593,703 594,701 596,701 597,701 598,701 599,701 601,701 601,701 602,701 602,700 603,700 603,700 604,700 605,700 606,700 606,698 607,698 610,698 610,697 611,697 611,696 612,696 613,696 614,696 614,696 615,696 615,694 616,693 617,693 617,693 618,693 618,693 619,693 619,693 620,693 621,693 621,693 622,693 622,693 623,693 623,693 624,693 625,693 625,693 626,693 626,693 627,693 627,693 628,693 629,693 630,693 630,693 631,693 631,693 632,693 632,693 633,693 634,693 634,693 635,693 635,693 636,693 636,691 637,691 638,691 638,691 639,691 639,691 640,691 640,691 641,691 642,691 642,691 643,691 643,691 644,691 644,690 645,690 646,690 646,690 647,690 647,688 648,688 648,688 649,688 650,688 650,688 651,688 651,688 652,688 652,688 653,688 654,687 654,687 655,687 655,687 656,687 656,687 657,687 658,687 658,687 659,687 659,687 660,687 660,687 661,687 661,687 662,687 663,687 663,684 664,684 664,684 665,684 665,682 666,679 667,679 667,679 668,679 668,679 669,678 669,678 670,678 671,678 671,678 672,678 672,678 673,678 673,678 674,678 675,678 675,678 676,676 676,676 677,676 677,676 678,676 679,673 679,673 680,673 680,673 681,673 681,673 682,673 683,672 683,672 684,672 684,672 685,672 685,672 686,670 687,672 687,672 688,672 688,672 689,672 689,672 690,672 691,672 691,672 692,673 692,673 693,673 693,673 694,673 694,673 695,673 696,673 696,673 697,673 697,673 698,673 698,673 699,673 700,673 700,673 701,670 701,670 702,670 702,670 703,670 704,670 704,670 705,670 705,670 706,670 706,670 707,670 708,670 708,670 709,669 709,669 710,669 710,669 711,669 712,669 712,669 713,669 713,669 714,669 714,669 715,667 716,667 716,667 717,667 717,667 718,667 718,666 719,666 720,666 720,666 721,666 721,666 722,666 722,666 723,666 724,666 724,666 725,667 725,667 726,667 726,667 727,667 727,667 728,667 729,667 729,667 730,667 730,669 731,669 731,669 732,669 733,669 733,669 734,669 734,669 735,669 735,669 736,669 737,669 737,669 738,669 738,669 739,667 739,667 740,667 741,667 741,666 742,666 742,666 743,666 743,666 744,666 745,666 745,666 746,666 746,666 747,664 747,664 748,664 749,664 749,664 750,664 750,663 751,662 751,662 752,662 753,662 753,662 754,662 754,662 755,662 755,660 756,660 757,659 757,659 758,660 758,660 759,660 759,660 760,660 760,660 761,659 762,659 762,659 763,659 763,659 764,659 764,659 765,659 766,659 766,659 767,659 767,659 768,659 768,659 769,659 770,659 770,659 771,659 771,659 772,659 772,659 773,659 774,660 774,660 775,660 775,660 776,660 776,660 777,660 778,660 778,660 779,660 779,660 780,660 780,660 781,660 782,660 782,660 783,660 783,660 784,660 784,660 785,660 786,659 787,659 787,659 788,659 788,659 789,659 790,659 790,659 791,657 791,657 792,657 792,657 793,657 793,657 794,657 795,657 795,657 796,657 796,657 797,657 797,657 798,657 799,657 799,657 800,657 800,657 801,656 801,656 802,656 803,656 803,656 804,656 804,656 805,656 805,656 806,656 807,656 807,656 808,656 808,654 809,654 809,654 810,654 811,654 811,654 812,654 812,654 813,654 813,654 814,654 815,654 815,654 816,653 816,653 817,651 817,651 818,651 819,650 819,648 820,648 820,648 821,648 821,648 821,648 822,648 823,648 823,647 824,647 824,647 825,647 825,647 826,647 826,647 827,647 828,647 828,647 829,647 829,647 830,647 830,647 831,647 832,645 832,645 833,645 833,645 834,645 834,645 835,645 836,645 836,645 837,644 837,644 838,644 838,644 839,644 840,645 840,645 841,645 841,645 842,645 842,645 843,645 844,645 844,645 845,645 845,645 846,645 846,645 847,645 848,645 848,645 849,645 849,645 850,645 850,645 851,645 852,645 852,645 853,645 853,645 854,645 854,645 855,645 856,645 856,645 857,645 857,645 858,645 858,645 859,645 859,645 860,645 861,644 861,644 862,642 862,642 863,642 863,641 864,641 865,641 865,641 866,641 866,641 867,639 867,639 868,639 869,638 869,638 870,638 870,638 871,638 871,638 872,638 873,638 873,638 874,638 874,638 875,636 875,638 876,636 877,636 877,636 878,636 878,635 879,635 879,632 880,632 881,632 881,632 882,632 882,632 883,632 883,632 884,632 885,632 885,632 886,632 886,632 887,632 887,632 888,631 889,631 889,631 890,631 890,631 891,631 891,631 892,629 892,629 893,629 894,628 894,628 895,626 895,626 896,626 896,626 897,626 898,625 898,625 899,625 899,625 900,625 900,625 901,625 902,625 902,625 903,625 903,625 904,625 904,623 905,620 906,620 906,620 907,617 907,617 908,617 908,617 909,617 910,617 910,616 911,614 911,613 912,613 912,613 913,610 914,611 914,611 915,611 915,610 916,610 916,608 917,608 918,608 918,608 919,608 919,608 920,608 920,608 921,608 922,608 922,608 923,607 923,607 924,605 924,604 925,602 925,602 926,602 927,599 927,599 928,599 928,599 929,599 929,599 930,601 931,599 931,599 932,599 932,599 933,599 933,599 934,599 935,599 935,599 936,599 936,598 937,598 937,598 938,598 939,598 939,598 940,598 940,598 941,598 941,598 942,598 943,598 943,598 944,598 944,598 945,598 945,598 946,598 947,598 947,598 948,598 948,598 949,598 949,598 950,598 951,597 951,595 952,595 952,594 953,594 953,594 954,594 955,592 955,592 956,592 956,592 957,592 957,592 958,592 958,592 959,592 960,591 960,591 961,591 961,591 962,589 962,589 963,588 964,588 964,588 965,588 965,588 966,588 966,586 967,586 968,585 968,585 969,585 969,585 970,585 970,585 971,585 972,585 972,585 973,586 973,586 974,586 974,586 975,586 976,586 976,586 977,586 977,586 978,586 978,586 979,583 980,583 980,582 981,582 981,582 982,582 982,582 983,582 984,582 984,582 985,583 985,582 986,582 986,582 987,582 988,580 988,580 989,580 989,580 990,580 990,580 991,579 991,579 992,579 993,577 993,577 994,577 994,577 995,577 995,577 996,577 997,577 997,577 998,577 998,577 999,577 999,577 1001,576 1001,576 1002,576 1002,576 1003,576 1003,576 1004,576 1005,574 1006,574 1006,574 1007,574 1007,574 1009,574 1009,574 1010,573 1010,573 1011,573 1011,573 1012,571 1013,571 1014,571 1014,570 1015,570 1015,568 1016,567 1017,567 1017,567 1018,567 1018,565 1019,565 1019,565 1020,565 1021,565 1021,565 1022,565 1022,565 1023,565 1023,564 1024,564 1024,564 1025,564 1026,564 1026,564 1027,564 1027,563 1028,563 1028,563 1029,563 1030,563 1030,560 1031,560 1031,560 1032,560 1032,560 1033,560 1034,558 1034,557 1035,557 1035,557 1036,555 1036,554 1037,554 1038,554 1038,552 1039,549 1039,549 1040,549 1040,549 1040,548 1041,546 1042,546 1043,546 1043,545 1044,545 1044,545 1045,540 1046,540 1046,539 1047,539 1047,539 1048,539 1048,539 1049,539 1050,539 1050,539 1051,537 1051,537 1052,536 1052,536 1053,536 1054,534 1054,534 1055,534 1055,534 1056,532 1056,532 1057,529 1057,529 1058,527 1059,526 1059,524 1060,524 1060,524 1061,524 1061,521 1062,521 1063,521 1063,521 1064,520 1064,520 1065,518 1065,518 1066,518 1067,518 1067,518 1068,518 1068,518 1069,518 1069,518 1070,518 1071,518 1071,518 1072,518 1072,517 1073,515 1073,515 1074,515 1075,512 1075,511 1076,508 1076,506 1077,505 1077,505 1078,503 1079,505 1079,500 1080,500 1080,500 1081,500 1081,500 1083,498 1083,496 1084,496 1084,496 1085,496 1085,496 1086,495 1087,495 1087,495 1088,493 1088,493 1089,493 1089,493 1090,493 1090,493 1091,490 1092,490 1092,489 1093,487 1093,487 1094,486 1094,486 1095,486 1096,487 1096,489 1097,487 1097,484 1098,486 1098,486 1099,486 1100,486 1100,486 1101,484 1101,484 1102,484 1102,484 1103,481 1104,481 1104,477 1105,477 1105,477 1106,478 1106,478 1107,478 1108,478 1108,478 1109,478 1109,478 1110,474 1110,474 1111,474 1112,474 1112,474 1113,472 1113,472 1114,472 1114,472 1115,472 1116,471 1116,471 1117,469 1117,469 1118,469 1118,469 1119,471 1120,471 1120,471 1121,471 1121,471 1121,471 1121,471 1122,471 1122,469 1122,469 1123,469 1123,469 1123,469 1124,469 1124,469 1125,469 1125,469 1125,469 1125,469 1126,469 1126,467 1126,467 1126,467 1127,467 1127,464 1127,464 1127,464 1128,464 1128,464 1129,464 1129,464 1129,464 1129,464 1130,464 1130,464 1130,464 1131,464 1131,464 1131,464 1132,464 1132,462 1133,462 1133,461 1133,461 1133,461 1134,461 1134,461 1134,461 1134,461 1135,458 1135,458 1135,458 1136,458 1136,458 1137,458 1137,455 1137,455 1137,453 1138,453 1138,455 1138,455 1138,455 1139,455 1139,455 1139,455 1139,455 1140,455 1140,455 1141,455 1141,455 1141,455 1142,455 1142,453 1142,453 1142,455 1143,455 1143,456 1143,456 1143,455 1144,455 1144,455 1145,455 1145,455 1145,455 1145,455 1146,455 1146,452 1146,452 1146,452 1147,452 1147,452 1147,452 1148,450 1149,450 1149,450 1149,450 1149,450 1150,450 1150,450 1150,450 1150,450 1151,450 1151,449 1151,449 1151,449 1152,449 1152,447 1153,447 1153,447 1153,447 1153,447 1154,447 1154,446 1154,444 1155,444 1155,444 1155,444 1155,444 1156,444 1156,444 1156,444 1156,443 1157,443 1158,443 1158,443 1158,443 1158,440 1159,440 1159,438 1159,438 1159,438 1160,438 1160,438 1160,438 1160,438 1161,438 1161,438 1162,438 1162,438 1162,438 1162,438 1163,438 1163,438 1163,438 1163,437 1164,437 1164,437 1164,437 1164,437 1165,437 1165,438 1166,438 1166,435 1166,435 1166,434 1167,434 1167,434 1167,434 1167,434 1168,434 1168,434 1168,431 1169,431 1169,431 1170,431 1170,430 1170,430 1170,430 1171,430 1171,430 1171,430 1171,430 1172,430 1172,431 1172,431 1172,431 1173,431 1173,431 1174,431 1174,431 1174,430 1175,430 1175,430 1175,430 1175,430 1176,430 1176,430 1176,430 1177,430 1178,430 1178,430 1178,428 1179,428 1179,428 1179,427 1180,427 1180,427 1180,427 1180,425 1181,425 1181,425 1182,425 1182,424 1182,424 1182,425 1183,425 1183,425 1183,425 1183,425 1184,425 1184,425 1184,425 1184,425 1185,425 1186,425 1186,425 1186,425 1186,425 1187,425 1187,427 1187,427 1187,427 1188,427 1188,425 1188,425 1188,428 1189,428 1189,428 1190,428 "/>
<rect x="1085" y="323" width="100" height="104" opacity="1" fill="#FFFFFF" stroke="none"/>
<rect x="1085" y="323" width="100" height="104" opacity="1" fill="none" stroke="#000000"/>
<text x="1125" y="333" dy="0.76em" text-anchor="start" font-family="sans-serif" font-size="9.67741935483871" opacity="1" fill="#000000">
ansi_term
</text>
<text x="1125" y="348" dy="0.76em" text-anchor="start" font-family="sans-serif" font-size="9.67741935483871" opacity="1" fill="#000000">
colored
</text>
<text x="1125" y="363" dy="0.76em" text-anchor="start" font-family="sans-serif" font-size="9.67741935483871" opacity="1" fill="#000000">
console
</text>
<text x="1125" y="378" dy="0.76em" text-anchor="start" font-family="sans-serif" font-size="9.67741935483871" opacity="1" fill="#000000">
term
</text>
<text x="1125" y="393" dy="0.76em" text-anchor="start" font-family="sans-serif" font-size="9.67741935483871" opacity="1" fill="#000000">
termcolor
</text>
<text x="1125" y="408" dy="0.76em" text-anchor="start" font-family="sans-serif" font-size="9.67741935483871" opacity="1" fill="#000000">
termion
</text>
<polyline fill="none" opacity="1" stroke="#E61919" stroke-width="2" points="1095,338 1115,338 "/>
<polyline fill="none" opacity="1" stroke="#E5E619" stroke-width="2" points="1095,352 1115,352 "/>
<polyline fill="none" opacity="1" stroke="#19E619" stroke-width="2" points="1095,367 1115,367 "/>
<polyline fill="none" opacity="1" stroke="#19E5E6" stroke-width="2" points="1095,382 1115,382 "/>
<polyline fill="none" opacity="1" stroke="#1919E6" stroke-width="2" points="1095,397 1115,397 "/>
<polyline fill="none" opacity="1" stroke="#E519E6" stroke-width="2" points="1095,412 1115,412 "/>
</svg>
