<svg width="1200" height="800" viewBox="0 0 1200 800" xmlns="http://www.w3.org/2000/svg">
<rect x="0" y="0" width="1199" height="799" opacity="1" fill="#FFFFFF" stroke="none"/>
<line opacity="0.1" stroke="#000000" stroke-width="1" x1="60" y1="729" x2="1190" y2="729"/>
<line opacity="0.1" stroke="#000000" stroke-width="1" x1="60" y1="718" x2="1190" y2="718"/>
<line opacity="0.1" stroke="#000000" stroke-width="1" x1="60" y1="707" x2="1190" y2="707"/>
<line opacity="0.1" stroke="#000000" stroke-width="1" x1="60" y1="696" x2="1190" y2="696"/>
<line opacity="0.1" stroke="#000000" stroke-width="1" x1="60" y1="685" x2="1190" y2="685"/>
<line opacity="0.1" stroke="#000000" stroke-width="1" x1="60" y1="674" x2="1190" y2="674"/>
<line opacity="0.1" stroke="#000000" stroke-width="1" x1="60" y1="663" x2="1190" y2="663"/>
<line opacity="0.1" stroke="#000000" stroke-width="1" x1="60" y1="652" x2="1190" y2="652"/>
<line opacity="0.1" stroke="#000000" stroke-width="1" x1="60" y1="641" x2="1190" y2="641"/>
<line opacity="0.1" stroke="#000000" stroke-width="1" x1="60" y1="630" x2="1190" y2="630"/>
<line opacity="0.1" stroke="#000000" stroke-width="1" x1="60" y1="619" x2="1190" y2="619"/>
<line opacity="0.1" stroke="#000000" stroke-width="1" x1="60" y1="608" x2="1190" y2="608"/>
<line opacity="0.1" stroke="#000000" stroke-width="1" x1="60" y1="597" x2="1190" y2="597"/>
<line opacity="0.1" stroke="#000000" stroke-width="1" x1="60" y1="586" x2="1190" y2="586"/>
<line opacity="0.1" stroke="#000000" stroke-width="1" x1="60" y1="575" x2="1190" y2="575"/>
<line opacity="0.1" stroke="#000000" stroke-width="1" x1="60" y1="564" x2="1190" y2="564"/>
<line opacity="0.1" stroke="#000000" stroke-width="1" x1="60" y1="553" x2="1190" y2="553"/>
<line opacity="0.1" stroke="#000000" stroke-width="1" x1="60" y1="542" x2="1190" y2="542"/>
<line opacity="0.1" stroke="#000000" stroke-width="1" x1="60" y1="531" x2="1190" y2="531"/>
<line opacity="0.1" stroke="#000000" stroke-width="1" x1="60" y1="520" x2="1190" y2="520"/>
<line opacity="0.1" stroke="#000000" stroke-width="1" x1="60" y1="509" x2="1190" y2="509"/>
<line opacity="0.1" stroke="#000000" stroke-width="1" x1="60" y1="498" x2="1190" y2="498"/>
<line opacity="0.1" stroke="#000000" stroke-width="1" x1="60" y1="487" x2="1190" y2="487"/>
<line opacity="0.1" stroke="#000000" stroke-width="1" x1="60" y1="476" x2="1190" y2="476"/>
<line opacity="0.1" stroke="#000000" stroke-width="1" x1="60" y1="465" x2="1190" y2="465"/>
<line opacity="0.1" stroke="#000000" stroke-width="1" x1="60" y1="454" x2="1190" y2="454"/>
<line opacity="0.1" stroke="#000000" stroke-width="1" x1="60" y1="443" x2="1190" y2="443"/>
<line opacity="0.1" stroke="#000000" stroke-width="1" x1="60" y1="432" x2="1190" y2="432"/>
<line opacity="0.1" stroke="#000000" stroke-width="1" x1="60" y1="421" x2="1190" y2="421"/>
<line opacity="0.1" stroke="#000000" stroke-width="1" x1="60" y1="411" x2="1190" y2="411"/>
<line opacity="0.1" stroke="#000000" stroke-width="1" x1="60" y1="400" x2="1190" y2="400"/>
<line opacity="0.1" stroke="#000000" stroke-width="1" x1="60" y1="389" x2="1190" y2="389"/>
<line opacity="0.1" stroke="#000000" stroke-width="1" x1="60" y1="378" x2="1190" y2="378"/>
<line opacity="0.1" stroke="#000000" stroke-width="1" x1="60" y1="367" x2="1190" y2="367"/>
<line opacity="0.1" stroke="#000000" stroke-width="1" x1="60" y1="356" x2="1190" y2="356"/>
<line opacity="0.1" stroke="#000000" stroke-width="1" x1="60" y1="345" x2="1190" y2="345"/>
<line opacity="0.1" stroke="#000000" stroke-width="1" x1="60" y1="334" x2="1190" y2="334"/>
<line opacity="0.1" stroke="#000000" stroke-width="1" x1="60" y1="323" x2="1190" y2="323"/>
<line opacity="0.1" stroke="#000000" stroke-width="1" x1="60" y1="312" x2="1190" y2="312"/>
<line opacity="0.1" stroke="#000000" stroke-width="1" x1="60" y1="301" x2="1190" y2="301"/>
<line opacity="0.1" stroke="#000000" stroke-width="1" x1="60" y1="290" x2="1190" y2="290"/>
<line opacity="0.1" stroke="#000000" stroke-width="1" x1="60" y1="279" x2="1190" y2="279"/>
<line opacity="0.1" stroke="#000000" stroke-width="1" x1="60" y1="268" x2="1190" y2="268"/>
<line opacity="0.1" stroke="#000000" stroke-width="1" x1="60" y1="257" x2="1190" y2="257"/>
<line opacity="0.1" stroke="#000000" stroke-width="1" x1="60" y1="246" x2="1190" y2="246"/>
<line opacity="0.1" stroke="#000000" stroke-width="1" x1="60" y1="235" x2="1190" y2="235"/>
<line opacity="0.1" stroke="#000000" stroke-width="1" x1="60" y1="224" x2="1190" y2="224"/>
<line opacity="0.1" stroke="#000000" stroke-width="1" x1="60" y1="213" x2="1190" y2="213"/>
<line opacity="0.1" stroke="#000000" stroke-width="1" x1="60" y1="202" x2="1190" y2="202"/>
<line opacity="0.1" stroke="#000000" stroke-width="1" x1="60" y1="191" x2="1190" y2="191"/>
<line opacity="0.1" stroke="#000000" stroke-width="1" x1="60" y1="180" x2="1190" y2="180"/>
<line opacity="0.1" stroke="#000000" stroke-width="1" x1="60" y1="169" x2="1190" y2="169"/>
<line opacity="0.1" stroke="#000000" stroke-width="1" x1="60" y1="158" x2="1190" y2="158"/>
<line opacity="0.1" stroke="#000000" stroke-width="1" x1="60" y1="147" x2="1190" y2="147"/>
<line opacity="0.1" stroke="#000000" stroke-width="1" x1="60" y1="136" x2="1190" y2="136"/>
<line opacity="0.1" stroke="#000000" stroke-width="1" x1="60" y1="125" x2="1190" y2="125"/>
<line opacity="0.1" stroke="#000000" stroke-width="1" x1="60" y1="114" x2="1190" y2="114"/>
<line opacity="0.1" stroke="#000000" stroke-width="1" x1="60" y1="103" x2="1190" y2="103"/>
<line opacity="0.1" stroke="#000000" stroke-width="1" x1="60" y1="92" x2="1190" y2="92"/>
<line opacity="0.1" stroke="#000000" stroke-width="1" x1="60" y1="82" x2="1190" y2="82"/>
<line opacity="0.1" stroke="#000000" stroke-width="1" x1="60" y1="71" x2="1190" y2="71"/>
<line opacity="0.1" stroke="#000000" stroke-width="1" x1="60" y1="60" x2="1190" y2="60"/>
<line opacity="0.1" stroke="#000000" stroke-width="1" x1="60" y1="49" x2="1190" y2="49"/>
<line opacity="0.1" stroke="#000000" stroke-width="1" x1="60" y1="38" x2="1190" y2="38"/>
<line opacity="0.1" stroke="#000000" stroke-width="1" x1="60" y1="27" x2="1190" y2="27"/>
<line opacity="0.1" stroke="#000000" stroke-width="1" x1="60" y1="16" x2="1190" y2="16"/>
<text x="10" y="375" dy="0.76em" text-anchor="middle" font-family="sans-serif" font-size="9.67741935483871" opacity="1" fill="#000000" transform="rotate(270, 10, 375)">
Number of dependent crates
</text>
<line opacity="0.2" stroke="#000000" stroke-width="1" x1="60" y1="630" x2="1190" y2="630"/>
<line opacity="0.2" stroke="#000000" stroke-width="1" x1="60" y1="520" x2="1190" y2="520"/>
<line opacity="0.2" stroke="#000000" stroke-width="1" x1="60" y1="411" x2="1190" y2="411"/>
<line opacity="0.2" stroke="#000000" stroke-width="1" x1="60" y1="301" x2="1190" y2="301"/>
<line opacity="0.2" stroke="#000000" stroke-width="1" x1="60" y1="191" x2="1190" y2="191"/>
<line opacity="0.2" stroke="#000000" stroke-width="1" x1="60" y1="82" x2="1190" y2="82"/>
<polyline fill="none" opacity="1" stroke="#000000" stroke-width="1" points="59,10 59,740 "/>
<text x="50" y="630" dy="0.5ex" text-anchor="end" font-family="sans-serif" font-size="9.67741935483871" opacity="1" fill="#000000">
100
</text>
<polyline fill="none" opacity="1" stroke="#000000" stroke-width="1" points="54,630 59,630 "/>
<text x="50" y="520" dy="0.5ex" text-anchor="end" font-family="sans-serif" font-size="9.67741935483871" opacity="1" fill="#000000">
200
</text>
<polyline fill="none" opacity="1" stroke="#000000" stroke-width="1" points="54,520 59,520 "/>
<text x="50" y="411" dy="0.5ex" text-anchor="end" font-family="sans-serif" font-size="9.67741935483871" opacity="1" fill="#000000">
300
</text>
<polyline fill="none" opacity="1" stroke="#000000" stroke-width="1" points="54,411 59,411 "/>
<text x="50" y="301" dy="0.5ex" text-anchor="end" font-family="sans-serif" font-size="9.67741935483871" opacity="1" fill="#000000">
400
</text>
<polyline fill="none" opacity="1" stroke="#000000" stroke-width="1" points="54,301 59,301 "/>
<text x="50" y="191" dy="0.5ex" text-anchor="end" font-family="sans-serif" font-size="9.67741935483871" opacity="1" fill="#000000">
500
</text>
<polyline fill="none" opacity="1" stroke="#000000" stroke-width="1" points="54,191 59,191 "/>
<text x="50" y="82" dy="0.5ex" text-anchor="end" font-family="sans-serif" font-size="9.67741935483871" opacity="1" fill="#000000">
600
</text>
<polyline fill="none" opacity="1" stroke="#000000" stroke-width="1" points="54,82 59,82 "/>
<polyline fill="none" opacity="1" stroke="#000000" stroke-width="1" points="60,740 1190,740 "/>
<text x="60" y="750" dy="0.76em" text-anchor="middle" font-family="sans-serif" font-size="9.67741935483871" opacity="1" fill="#000000">
2015-01-27Z
</text>
<polyline fill="none" opacity="1" stroke="#000000" stroke-width="1" points="60,740 60,745 "/>
<text x="173" y="750" dy="0.76em" text-anchor="middle" font-family="sans-serif" font-size="9.67741935483871" opacity="1" fill="#000000">
2015-09-01Z
</text>
<polyline fill="none" opacity="1" stroke="#000000" stroke-width="1" points="173,740 173,745 "/>
<text x="286" y="750" dy="0.76em" text-anchor="middle" font-family="sans-serif" font-size="9.67741935483871" opacity="1" fill="#000000">
2016-04-05Z
</text>
<polyline fill="none" opacity="1" stroke="#000000" stroke-width="1" points="286,740 286,745 "/>
<text x="400" y="750" dy="0.76em" text-anchor="middle" font-family="sans-serif" font-size="9.67741935483871" opacity="1" fill="#000000">
2016-11-08Z
</text>
<polyline fill="none" opacity="1" stroke="#000000" stroke-width="1" points="400,740 400,745 "/>
<text x="513" y="750" dy="0.76em" text-anchor="middle" font-family="sans-serif" font-size="9.67741935483871" opacity="1" fill="#000000">
2017-06-13Z
</text>
<polyline fill="none" opacity="1" stroke="#000000" stroke-width="1" points="513,740 513,745 "/>
<text x="627" y="750" dy="0.76em" text-anchor="middle" font-family="sans-serif" font-size="9.67741935483871" opacity="1" fill="#000000">
2018-01-16Z
</text>
<polyline fill="none" opacity="1" stroke="#000000" stroke-width="1" points="627,740 627,745 "/>
<text x="740" y="750" dy="0.76em" text-anchor="middle" font-family="sans-serif" font-size="9.67741935483871" opacity="1" fill="#000000">
2018-08-21Z
</text>
<polyline fill="none" opacity="1" stroke="#000000" stroke-width="1" points="740,740 740,745 "/>
<text x="854" y="750" dy="0.76em" text-anchor="middle" font-family="sans-serif" font-size="9.67741935483871" opacity="1" fill="#000000">
2019-03-26Z
</text>
<polyline fill="none" opacity="1" stroke="#000000" stroke-width="1" points="854,740 854,745 "/>
<text x="967" y="750" dy="0.76em" text-anchor="middle" font-family="sans-serif" font-size="9.67741935483871" opacity="1" fill="#000000">
2019-10-29Z
</text>
<polyline fill="none" opacity="1" stroke="#000000" stroke-width="1" points="967,740 967,745 "/>
<text x="1081" y="750" dy="0.76em" text-anchor="middle" font-family="sans-serif" font-size="9.67741935483871" opacity="1" fill="#000000">
2020-06-02Z
</text>
<polyline fill="none" opacity="1" stroke="#000000" stroke-width="1" points="1081,740 1081,745 "/>
<polyline fill="none" opacity="1" stroke="#E61919" stroke-width="2" points="111,738 118,737 122,737 127,736 129,736 129,735 130,735 132,735 132,735 134,735 135,735 136,735 136,735 137,734 138,734 141,734 143,734 153,734 159,734 160,734 163,734 165,735 169,735 170,735 170,735 171,735 173,735 179,735 183,735 188,735 192,735 193,734 195,734 197,734 199,734 200,733 200,733 201,732 202,732 203,732 205,732 206,732 206,730 207,730 207,730 209,730 209,730 210,730 210,730 211,729 212,727 213,727 214,727 214,727 215,727 216,727 216,727 218,727 219,727 221,727 221,727 222,727 222,727 224,727 225,727 226,727 226,727 227,727 227,726 228,726 230,726 234,726 235,726 235,726 236,726 237,725 237,725 238,724 238,724 240,724 240,724 241,723 241,723 242,722 243,722 243,722 244,722 245,721 246,721 247,721 247,721 248,721 248,721 249,721 249,721 250,721 250,721 252,720 252,720 253,720 253,720 254,720 256,720 257,720 258,720 258,720 259,720 260,720 260,720 262,720 262,719 263,719 264,719 264,719 265,719 266,719 267,719 267,719 268,719 268,719 269,719 269,719 270,719 271,719 271,719 272,719 272,719 273,719 273,719 274,718 275,718 275,718 277,718 278,718 278,718 279,718 279,718 281,718 281,718 282,718 282,718 283,718 284,718 284,718 285,718 285,718 286,718 287,718 288,718 289,718 289,716 291,716 291,716 292,716 292,715 293,715 293,715 294,714 294,714 295,714 295,714 296,714 296,714 297,714 297,714 298,714 298,714 301,714 301,714 302,714 303,714 303,714 304,714 304,714 305,714 305,714 306,714 306,714 307,714 307,714 308,714 308,714 309,714 309,714 310,714 310,714 311,714 313,714 313,714 314,714 314,714 315,714 315,714 318,714 318,714 319,714 319,714 320,714 320,714 321,714 321,714 322,714 323,714 323,714 324,714 324,714 325,714 325,714 326,714 326,713 327,712 327,711 328,710 328,710 329,710 329,710 330,710 330,710 331,710 331,710 332,710 332,710 333,710 334,710 334,710 335,710 335,710 336,709 336,709 337,708 337,708 338,708 338,708 339,708 339,708 340,708 340,707 341,707 342,707 342,707 343,707 343,707 344,707 346,707 347,707 348,707 348,705 349,705 349,705 350,705 351,705 351,704 352,703 353,702 353,701 354,701 356,701 357,701 358,700 358,700 359,700 359,700 361,700 361,699 362,699 363,699 363,699 364,699 364,698 365,698 365,698 366,699 366,699 367,699 367,699 369,698 370,698 370,698 371,698 372,698 372,698 373,698 373,698 374,698 375,698 375,698 376,698 376,697 377,697 377,696 378,695 378,693 379,695 380,695 380,695 381,695 381,695 382,695 382,695 383,695 383,695 384,695 384,695 385,695 385,695 386,693 386,693 387,693 387,693 388,693 388,693 389,693 390,693 390,693 392,690 392,690 393,689 393,689 394,689 394,689 395,688 395,688 396,687 396,687 397,687 397,687 398,687 399,687 399,687 400,687 400,687 401,687 401,687 402,686 403,686 403,686 404,686 404,687 405,687 405,687 406,687 406,687 407,687 407,687 408,687 408,687 409,687 409,687 410,687 410,687 411,687 411,687 412,687 412,686 414,686 414,685 415,685 415,685 416,685 416,685 417,685 419,685 419,685 420,684 420,684 421,684 421,684 422,684 422,682 423,682 423,682 424,682 424,682 425,682 426,682 426,682 427,681 427,681 428,680 428,680 429,680 429,679 430,678 430,679 431,679 431,679 432,679 432,679 433,679 433,679 434,679 435,679 435,678 436,678 437,678 437,678 438,678 438,678 439,678 439,678 440,678 440,677 441,677 441,677 442,677 442,677 443,677 443,677 444,676 444,676 445,676 445,676 446,676 446,676 447,675 447,675 448,675 449,674 449,674 450,673 450,673 451,673 451,671 452,671 452,671 453,671 453,670 454,669 454,669 455,669 455,669 456,669 456,669 457,669 457,669 458,668 458,667 459,667 460,667 460,667 461,667 461,667 462,666 462,666 463,666 463,666 464,666 464,665 465,665 465,665 466,665 466,665 467,665 467,665 468,665 468,665 469,666 469,665 470,665 471,665 471,665 472,664 472,664 473,664 473,664 474,664 474,664 475,664 475,664 476,663 476,663 477,663 477,662 478,659 478,659 479,659 479,659 480,659 480,661 481,661 481,661 482,661 483,661 483,661 484,661 484,661 485,661 485,661 486,661 486,661 487,661 487,661 488,661 488,661 489,661 489,661 490,661 490,659 491,658 491,657 492,657 492,656 493,656 494,656 494,656 495,656 495,656 496,655 496,655 497,655 497,655 498,655 498,655 499,655 499,654 500,654 500,654 501,654 501,655 502,654 502,654 503,653 503,653 504,653 504,653 505,653 506,652 506,652 507,653 507,652 508,652 508,652 509,652 509,652 510,651 510,651 511,651 511,651 512,651 512,651 513,651 513,651 514,651 514,651 515,651 515,651 516,651 517,651 517,651 518,651 518,651 519,651 519,651 520,651 520,651 521,651 521,651 522,651 522,651 523,651 523,651 524,651 524,651 525,651 525,651 526,648 526,648 527,648 528,651 528,651 529,651 529,651 530,651 530,651 531,650 531,648 532,648 532,648 533,648 533,648 534,648 534,648 535,648 535,648 536,648 536,648 537,648 537,648 538,648 538,648 539,648 540,648 540,648 541,648 541,648 542,648 542,648 543,648 543,647 544,646 544,646 545,646 545,645 546,645 546,644 547,644 547,644 548,644 548,644 549,644 549,644 550,644 551,644 551,644 552,644 552,644 553,644 553,643 554,642 554,642 555,642 555,642 556,642 556,641 557,641 557,641 558,641 558,641 559,641 559,640 560,640 560,640 561,638 561,636 562,638 563,636 563,634 564,634 564,634 565,634 565,634 566,634 566,634 567,635 567,635 568,635 568,635 569,635 569,635 570,635 570,634 571,634 571,634 572,634 572,634 573,634 574,634 574,634 575,634 575,634 576,634 576,634 577,634 577,633 578,633 579,633 579,633 580,633 580,633 581,632 581,632 582,631 582,631 583,631 583,630 584,630 584,630 585,630 586,630 586,628 587,628 587,628 588,627 588,627 589,627 589,627 590,627 590,625 591,624 591,624 592,623 592,623 593,623 593,623 594,623 594,623 595,623 595,622 596,621 597,621 597,621 598,621 598,621 599,621 599,621 600,621 600,621 601,621 601,621 602,622 602,622 603,622 603,621 604,621 604,621 605,621 605,621 606,620 606,620 607,620 608,620 608,620 609,620 609,620 610,620 610,620 611,620 611,618 612,618 612,618 613,618 613,618 614,618 614,618 615,618 615,618 616,618 616,618 617,618 617,618 618,617 618,617 619,617 620,617 620,617 621,617 621,616 622,616 622,616 623,616 623,616 624,614 624,614 625,614 625,613 626,613 626,612 627,612 627,611 628,612 628,612 629,612 629,612 630,612 631,612 631,612 632,612 632,612 633,612 633,613 634,613 634,613 635,613 635,613 636,613 636,612 637,612 637,610 638,610 638,610 639,609 639,609 640,608 640,608 641,608 641,608 642,609 643,609 643,608 644,608 644,608 645,608 645,608 646,608 646,608 647,608 647,608 648,608 648,608 649,608 649,607 650,606 650,606 651,606 651,606 652,606 652,605 653,606 654,605 654,605 655,605 655,605 656,605 656,605 657,605 657,605 658,605 658,605 659,604 659,604 660,604 660,602 661,601 661,601 662,601 662,600 663,600 663,599 664,599 665,599 665,598 666,598 666,598 667,598 667,599 668,599 668,599 669,599 669,599 670,599 670,599 671,599 671,599 672,599 672,599 673,599 673,600 674,600 674,600 675,599 675,599 676,599 677,599 677,598 678,598 678,598 679,596 679,596 680,596 680,596 681,596 681,596 682,596 682,595 683,595 683,595 684,595 684,595 685,595 685,595 686,595 686,595 687,595 688,595 688,595 689,595 690,595 690,595 691,595 691,595 692,595 692,595 693,594 693,594 694,593 694,593 695,593 695,591 696,591 696,593 697,593 697,593 698,590 698,590 699,589 700,589 700,589 701,588 701,588 702,588 702,588 703,588 703,588 704,588 704,587 705,587 705,587 706,587 706,587 707,587 707,587 708,587 708,587 709,587 709,587 710,585 711,585 711,585 712,585 712,585 713,585 713,585 714,585 714,585 715,585 715,585 716,585 716,585 717,585 717,585 718,584 718,584 719,583 719,583 720,583 720,583 721,583 721,583 722,583 723,582 723,579 724,579 724,579 725,579 725,579 726,579 726,579 727,579 727,579 728,579 728,579 729,579 729,579 730,579 730,579 731,579 731,580 732,580 732,579 733,579 734,579 734,579 735,579 735,579 736,579 736,579 737,579 737,579 738,578 738,578 739,578 739,578 740,577 740,576 741,576 741,576 742,576 742,576 743,576 743,576 744,576 745,576 745,576 746,576 746,576 747,576 747,576 748,576 748,576 749,575 749,575 750,575 750,574 751,574 751,574 752,574 752,574 753,574 753,574 754,574 754,574 755,574 755,574 756,574 757,574 757,574 758,574 758,574 759,573 759,573 759,573 760,573 760,573 761,573 761,572 762,572 762,572 763,572 763,571 764,571 764,571 765,570 765,570 766,570 766,568 767,568 768,568 768,568 769,567 769,567 770,567 770,566 771,566 771,566 772,565 772,565 773,564 773,564 774,564 774,564 775,564 775,564 776,563 776,563 777,563 777,563 778,563 778,563 779,563 780,563 780,563 781,562 781,562 782,562 782,562 783,562 783,562 784,562 784,562 785,561 785,561 786,561 786,560 787,560 787,560 788,560 788,559 789,559 789,559 790,557 791,556 791,556 792,556 792,555 793,553 793,553 794,553 794,553 795,553 795,553 796,553 796,553 797,551 797,551 798,550 798,550 799,549 799,548 800,548 800,548 801,548 802,548 802,546 803,545 803,545 804,545 804,545 805,545 805,545 806,545 806,545 807,545 807,545 808,545 808,545 809,545 809,545 810,545 810,543 811,543 811,542 812,541 812,541 813,540 814,540 814,540 815,539 815,539 816,539 816,539 817,538 817,538 818,538 818,537 819,537 819,536 820,536 820,536 821,536 821,536 822,534 822,534 823,534 823,534 824,534 825,533 825,533 826,533 826,533 827,533 827,532 828,532 828,531 829,531 829,531 830,531 830,531 831,531 831,531 832,531 832,531 833,531 833,530 834,530 834,530 835,530 835,530 836,530 837,530 837,530 838,530 838,530 839,530 839,529 840,529 840,529 841,529 841,529 842,529 842,529 843,529 843,528 844,528 844,526 845,526 845,526 846,526 846,526 847,526 848,526 848,526 849,525 849,523 850,522 850,522 851,522 851,522 852,522 852,522 853,521 853,521 854,521 854,521 855,521 855,521 856,521 856,521 857,521 857,521 858,519 859,519 859,519 860,519 860,519 861,518 861,518 862,518 862,518 863,518 863,518 864,518 864,517 865,517 865,517 866,517 866,517 867,517 867,517 868,516 868,516 869,516 869,516 870,515 871,514 871,514 872,514 872,514 873,514 873,512 874,512 874,512 875,512 875,512 876,512 876,512 877,512 877,512 878,512 878,512 879,511 879,511 880,511 880,508 881,508 882,508 882,508 883,507 883,507 884,507 884,506 885,506 885,506 886,506 886,506 887,506 887,506 888,505 888,505 889,505 889,505 890,505 890,505 891,505 891,504 892,502 892,502 893,502 894,502 894,502 895,500 895,500 896,500 896,500 897,500 897,500 898,500 898,500 899,500 899,500 900,500 900,500 901,500 901,500 902,500 902,500 903,497 903,497 904,497 905,497 905,497 906,497 906,497 907,497 907,497 908,495 908,495 909,495 909,495 910,494 910,494 911,494 911,494 912,494 912,494 913,493 913,493 914,492 914,492 915,492 915,492 916,492 917,492 917,492 918,492 918,492 919,491 919,491 920,489 920,489 921,489 921,489 922,489 922,489 923,489 923,489 924,489 924,488 925,488 925,488 926,488 926,488 927,488 928,488 928,488 929,488 929,488 930,487 930,487 931,487 931,487 932,486 932,485 933,485 933,485 934,485 934,485 935,485 935,485 936,485 936,485 937,484 937,484 938,483 939,485 939,485 940,485 940,485 941,484 941,484 942,483 942,482 943,482 943,482 944,481 944,481 945,481 945,480 946,480 946,475 947,475 947,474 948,474 948,474 949,475 949,475 950,475 951,474 951,473 952,473 952,472 953,472 953,472 954,472 954,471 955,470 955,470 956,469 956,469 957,472 957,472 958,471 958,472 959,472 959,472 960,472 960,472 961,472 961,472 962,472 962,472 963,472 963,472 964,472 964,472 965,472 965,472 966,471 966,470 967,468 967,468 968,468 968,468 969,468 969,468 970,468 970,468 971,468 971,468 972,466 972,466 973,466 974,466 974,466 975,466 975,466 976,465 976,465 977,465 977,465 978,465 978,465 979,465 979,465 980,465 980,465 981,465 981,465 982,465 982,465 983,465 983,464 984,463 985,463 985,462 986,461 986,459 987,459 987,459 988,459 988,459 989,459 989,459 990,458 990,458 991,458 991,458 992,457 992,457 993,450 993,450 994,450 994,450 995,450 996,450 996,449 997,449 997,449 998,449 998,449 999,449 999,449 1000,448 1000,448 1001,448 1001,447 1002,447 1002,446 1003,446 1003,446 1004,446 1004,446 1005,445 1005,445 1006,445 1006,445 1007,443 1008,443 1008,441 1009,441 1009,442 1010,442 1010,442 1011,441 1011,441 1012,441 1012,442 1013,442 1013,442 1014,442 1014,442 1015,442 1015,442 1016,442 1016,441 1017,441 1017,439 1018,438 1019,438 1019,438 1020,438 1020,438 1021,438 1021,438 1022,437 1022,437 1023,436 1023,436 1024,436 1024,436 1025,434 1025,434 1026,435 1026,435 1027,435 1027,435 1028,435 1028,435 1029,435 1029,435 1030,435 1031,432 1031,432 1032,434 1032,432 1033,431 1033,430 1034,430 1034,430 1035,430 1035,430 1035,430 1035,430 1036,430 1036,430 1036,430 1037,430 1037,430 1037,430 1038,430 1038,430 1038,430 1038,430 1039,430 1039,430 1039,430 1039,429 1040,429 1040,428 1040,428 1040,427 1041,427 1041,427 1042,427 1042,427 1042,427 1042,427 1043,427 1043,426 1043,426 1044,426 1044,425 1044,425 1045,425 1045,425 1045,425 1045,424 1046,424 1046,424 1046,424 1046,424 1047,424 1047,423 1047,423 1047,423 1048,421 1048,421 1048,421 1049,421 1049,421 1049,421 1049,421 1050,421 1050,421 1050,421 1050,421 1051,421 1051,421 1051,421 1051,421 1052,421 1052,421 1052,421 1052,421 1053,421 1054,421 1054,421 1054,421 1054,421 1055,421 1055,421 1055,421 1055,423 1056,423 1056,423 1056,423 1056,421 1057,421 1057,421 1057,421 1057,421 1058,421 1058,421 1058,421 1058,421 1059,421 1059,421 1059,420 1060,419 1060,419 1060,418 1061,418 1061,417 1061,417 1061,416 1062,416 1062,416 1062,416 1062,414 1063,414 1063,412 1063,412 1063,411 1064,411 1064,408 1065,408 1065,408 1065,409 1066,409 1066,409 1066,409 1066,409 1067,409 1067,408 1067,408 1067,407 1068,407 1068,406 1068,406 1069,406 1069,406 1069,406 1069,404 1070,404 1070,402 1070,402 1070,402 1071,402 1071,402 1071,402 1071,401 1072,401 1072,401 1072,401 1072,400 1073,400 1073,398 1073,398 1073,398 1074,398 1074,398 1074,398 1074,398 1075,398 1075,397 1076,397 1076,397 1076,397 1076,397 1077,397 1077,392 1077,392 1077,391 1078,391 1078,390 1078,390 1079,390 1079,390 1079,390 1079,390 1080,390 1080,390 1080,390 1080,389 1081,389 1081,389 1081,389 1081,389 1082,389 1082,389 1082,389 1082,387 1083,387 1083,387 1083,385 1084,385 1084,385 1084,385 1084,386 1085,386 1085,385 1085,385 1085,384 1086,384 1086,384 1086,384 1087,383 1088,383 1088,383 1088,383 1089,383 1089,383 1089,383 1089,383 1090,383 1090,382 1090,382 1090,381 1091,381 1091,381 1091,381 1091,380 1092,380 1092,380 1092,380 1092,380 1093,380 1093,379 1093,379 1093,379 1094,379 1094,379 1094,379 1095,379 1095,379 1095,379 1095,377 1096,377 1096,377 1096,377 1096,375 1097,375 1097,375 1097,375 1097,375 1098,375 1098,375 1099,375 1099,375 1099,375 1099,375 1100,375 1100,375 1100,375 1100,374 1101,374 1101,374 1101,374 1101,374 1102,374 1102,373 1102,373 1103,373 1103,373 1103,373 1103,371 1104,371 1104,371 1104,371 1104,371 1105,371 1105,371 1105,371 1105,371 1106,371 1106,371 1106,370 1107,370 1107,370 1107,370 1107,370 1108,370 1108,369 1108,369 1108,368 1109,368 1109,368 1109,368 1109,368 1110,368 1110,368 1111,368 1111,369 1111,369 1111,369 1112,369 1112,368 1112,368 1112,368 1113,368 1113,368 1113,368 1113,366 1114,366 1114,364 1114,364 1114,364 1115,364 1115,364 1115,364 1115,362 1116,362 1116,362 1116,362 1117,362 1117,363 1117,363 1117,363 1118,363 1118,363 1118,363 1118,364 1119,364 1119,364 1119,364 1119,364 1120,364 1120,363 1120,363 1120,362 1121,362 1121,363 1122,363 1122,363 1122,363 1122,361 1123,361 1123,361 1123,361 1123,361 1124,361 1124,361 1124,361 1124,360 1125,360 1125,360 1125,360 1125,359 1126,359 1126,359 1126,359 1126,359 1127,359 1127,358 1127,358 1127,358 1128,358 1128,358 1128,358 1128,359 1129,359 1129,357 1129,357 1129,356 1130,356 1130,356 1130,356 1130,356 1131,356 1131,356 1131,355 1132,355 1132,355 1133,355 1133,355 1133,355 1134,355 1134,353 1134,353 1134,352 1135,352 1135,352 1135,352 1135,352 1136,352 1136,352 1136,352 1136,351 1137,351 1137,350 1137,350 1137,350 1138,350 1138,350 1138,350 1139,350 1139,350 1139,350 1139,350 1140,350 1140,348 1140,348 1140,348 1141,348 1141,348 1141,348 1141,348 1142,348 1142,348 1142,348 1142,346 1143,346 1143,345 1143,345 1143,345 1144,345 1144,345 1145,345 1145,344 1145,344 1145,344 1146,344 1146,345 1146,345 1146,345 1147,345 1147,345 1147,345 1147,345 1148,345 1148,345 1148,345 1148,345 1149,345 1149,345 1149,345 1149,345 1150,345 1150,344 1150,344 1150,345 1151,345 1151,343 1151,343 1151,343 1152,343 1152,343 1152,343 1152,343 1153,343 1153,340 1153,340 1153,339 1154,339 1154,338 1154,338 1154,338 1155,338 1155,338 1156,338 1156,338 1156,338 1156,339 1157,339 1157,339 1157,339 1157,339 1158,339 1158,338 1158,338 1158,338 1159,338 1159,337 1159,337 1159,336 1160,336 1160,336 1160,336 1160,336 1161,336 1161,334 1161,334 1161,334 1162,334 1162,334 1162,334 1162,334 1163,334 1163,334 1163,334 1164,334 1164,334 1164,334 1164,334 1165,334 1165,334 1165,334 1165,333 1166,333 1166,332 1166,332 1166,332 1167,332 1167,332 1168,332 1168,332 1168,332 1168,332 1169,332 1169,332 1169,332 1169,330 1170,330 1170,329 1170,329 1170,328 1171,328 1171,328 1171,328 1171,329 1172,329 1172,328 1172,328 1172,328 1173,328 1173,328 1173,327 1174,327 1174,327 1174,327 1174,327 1175,327 1175,326 1175,326 1175,324 1176,324 1176,323 1176,323 1176,325 1177,325 1177,324 1177,324 1177,324 1178,324 1178,324 1179,324 1179,324 1179,324 1179,324 1180,324 1180,324 1180,324 1180,324 1181,324 1181,323 1181,323 1181,323 1182,323 1182,323 1182,323 1182,323 1183,323 1183,323 1183,323 1183,323 1184,323 1184,323 1184,323 1184,322 1185,322 1185,322 1185,322 1185,321 1186,321 1186,321 1186,321 1186,321 1187,321 1187,321 1187,321 1187,321 1188,321 1188,321 1188,321 1188,321 1189,321 1189,321 1190,321 "/>
<polyline fill="none" opacity="1" stroke="#E5E619" stroke-width="2" points="321,738 327,737 329,736 334,735 350,734 370,733 389,732 399,731 401,730 402,730 406,730 423,729 430,726 434,725 451,724 458,723 469,721 469,721 470,721 471,720 471,720 472,720 472,720 473,720 473,719 474,719 476,719 479,719 479,719 481,718 482,718 483,718 485,716 487,715 488,714 489,714 489,713 490,713 494,712 494,712 495,712 495,712 496,711 496,711 497,711 498,710 501,710 501,710 503,710 504,710 505,709 506,709 507,709 508,709 509,709 509,709 510,709 511,709 513,708 514,707 515,705 517,705 517,704 518,704 519,704 519,703 520,703 520,703 526,703 527,702 529,702 531,702 531,701 532,701 533,701 534,701 536,701 536,701 537,701 537,700 538,700 539,700 542,700 543,699 543,699 544,699 545,699 546,699 546,699 548,698 550,698 551,698 551,697 552,698 552,698 553,698 555,697 556,697 557,697 558,697 559,697 559,696 560,696 560,696 561,696 562,695 563,695 564,695 565,695 566,695 566,693 567,693 569,693 569,693 570,692 570,692 571,692 572,692 573,692 574,692 574,692 575,691 576,691 576,691 577,691 577,691 578,690 578,689 579,689 579,689 580,690 580,690 581,690 581,690 582,689 582,688 583,688 583,687 584,686 584,686 585,685 586,685 588,685 588,685 589,685 590,684 590,684 591,682 591,682 592,682 593,681 594,682 595,682 597,682 597,682 599,682 600,682 601,682 601,682 602,680 602,680 603,680 603,681 604,681 604,681 605,681 605,681 606,681 606,681 608,681 609,680 610,680 610,680 611,679 611,680 613,680 614,680 614,680 615,680 616,680 617,680 617,680 619,679 620,679 621,678 621,678 622,678 623,678 624,678 626,678 626,677 629,676 630,676 632,676 632,676 633,675 634,675 634,675 635,675 635,675 636,675 637,675 637,675 638,675 638,675 639,674 639,674 640,674 641,673 641,673 642,670 643,669 645,669 646,668 646,668 647,668 650,668 651,668 652,668 654,668 654,668 656,667 657,667 658,666 659,665 659,665 661,665 662,665 662,665 663,665 663,665 667,664 668,664 668,663 669,663 670,662 671,661 672,661 672,661 673,659 673,659 674,658 674,657 675,657 676,657 677,657 678,657 678,657 679,657 680,657 681,657 682,656 682,656 683,656 683,655 684,655 684,655 685,654 685,652 686,652 687,652 690,653 691,652 692,648 693,647 693,648 694,648 694,648 695,647 697,647 698,647 699,647 700,647 700,647 702,646 702,646 703,646 704,645 704,645 705,644 705,644 706,644 706,644 707,643 707,643 708,642 709,641 709,641 710,641 711,641 712,640 713,640 713,640 714,639 714,639 715,639 716,639 717,639 717,636 718,635 718,635 719,635 719,634 720,634 720,634 721,634 721,634 722,634 723,634 724,634 724,634 725,634 726,634 726,634 727,634 727,633 728,633 729,633 730,633 730,633 731,633 733,632 734,632 734,632 735,631 735,630 736,629 736,629 737,629 738,628 739,628 739,627 740,627 740,627 741,627 741,627 742,627 742,625 743,624 743,624 744,624 745,623 746,622 747,622 747,622 748,621 748,621 749,621 749,621 750,621 751,621 751,621 752,621 752,621 753,621 753,621 754,621 754,621 755,621 755,620 756,620 757,619 757,619 758,619 758,618 759,614 759,614 759,614 760,614 761,613 762,613 763,610 763,609 764,608 764,607 765,607 765,607 766,606 767,606 768,606 769,606 769,606 770,606 772,605 772,602 773,602 773,600 774,600 774,600 775,600 775,600 776,600 776,600 777,599 777,597 778,597 778,595 779,595 780,595 780,594 781,594 781,594 782,594 782,594 783,594 783,593 784,593 784,590 785,590 785,590 786,590 787,590 787,589 788,589 788,589 789,589 789,589 790,589 791,589 791,588 792,588 792,588 793,588 793,588 794,588 794,587 795,587 795,587 796,587 796,587 797,587 797,587 798,586 798,585 799,585 799,585 800,584 800,584 801,584 802,584 802,584 803,582 803,582 804,580 804,580 805,579 805,579 806,579 807,579 807,579 808,579 808,579 809,578 809,577 810,576 810,575 811,574 811,575 812,575 812,574 813,574 814,573 814,573 815,573 815,573 816,573 816,573 817,573 817,573 818,571 818,572 819,571 819,570 820,568 820,568 821,567 821,565 822,564 822,564 823,564 824,564 825,563 825,563 826,563 826,563 827,563 827,563 828,563 828,563 829,564 829,564 830,564 830,563 831,562 832,562 832,562 833,562 833,562 834,562 834,561 835,560 835,560 836,560 837,555 837,555 838,555 838,555 839,554 839,552 840,550 840,550 841,548 841,548 842,548 842,548 843,545 843,545 844,544 844,543 845,544 845,543 846,542 846,541 847,541 848,540 848,540 849,539 849,539 850,539 851,539 851,537 852,537 852,536 853,536 853,533 854,533 854,531 855,530 855,530 856,529 856,527 857,527 857,526 858,525 859,525 859,525 860,525 860,525 861,525 861,525 862,525 862,523 863,523 863,523 864,523 864,523 865,523 865,521 866,521 866,520 867,520 867,520 868,519 868,519 869,519 869,519 870,519 871,519 871,519 872,519 872,519 873,519 873,517 874,517 874,515 875,515 875,515 876,515 876,512 877,512 877,512 878,511 878,511 879,510 879,510 880,510 880,510 881,509 882,507 882,506 883,506 883,505 884,504 884,503 885,499 885,498 886,498 886,497 887,497 887,497 888,496 888,495 889,495 889,494 890,495 890,493 891,493 891,491 892,488 892,489 893,489 894,489 894,488 895,488 895,488 896,488 896,488 897,487 897,487 898,487 898,487 899,487 899,487 900,486 900,485 901,483 901,482 902,482 902,482 903,481 903,481 904,478 905,478 905,478 906,480 906,478 907,478 907,478 908,478 908,477 909,478 909,476 910,476 910,476 911,474 911,474 912,473 912,471 913,468 913,466 914,466 914,466 915,464 915,464 916,464 917,464 917,464 918,464 918,463 919,463 919,463 920,463 920,460 921,459 921,459 922,459 922,459 923,459 923,458 924,458 924,457 925,455 925,454 926,454 927,453 928,452 928,453 929,453 929,453 930,453 930,453 931,452 931,452 932,453 932,453 933,453 933,453 934,453 934,453 935,453 935,453 936,452 936,452 937,452 937,452 938,452 939,451 939,451 940,451 940,451 941,451 941,451 942,450 942,450 943,449 943,449 944,449 944,449 945,448 945,449 946,447 946,447 947,446 947,446 948,446 948,446 949,442 949,439 950,439 951,439 951,439 952,439 952,440 953,439 953,441 954,441 954,440 955,440 955,440 956,439 956,439 957,439 957,439 958,438 958,437 959,437 959,436 960,435 960,434 961,434 961,434 962,432 962,432 963,432 963,430 964,430 964,428 965,426 965,426 966,426 966,425 967,425 967,424 968,425 968,425 969,425 969,425 970,421 970,421 971,421 971,420 972,420 972,419 973,419 974,419 974,419 975,419 975,419 976,419 976,419 977,419 977,419 978,418 978,418 979,418 979,417 980,417 980,416 981,415 981,415 982,415 982,415 983,415 983,415 984,415 985,415 985,415 986,415 986,415 987,414 987,414 988,412 988,411 989,411 989,411 990,409 990,408 991,407 991,407 992,407 992,406 993,405 993,404 994,404 994,404 995,404 996,404 996,403 997,402 997,402 998,403 998,402 999,401 999,401 1000,400 1000,400 1001,397 1001,397 1002,397 1002,395 1003,395 1003,394 1004,393 1004,391 1005,391 1005,391 1006,390 1006,390 1007,389 1008,389 1008,387 1009,387 1009,387 1010,387 1010,387 1011,386 1011,386 1012,386 1012,386 1013,385 1013,385 1014,385 1014,385 1015,385 1015,385 1016,384 1016,383 1017,383 1017,380 1018,380 1019,378 1019,378 1020,371 1020,369 1021,368 1021,366 1022,366 1022,364 1023,364 1023,364 1024,364 1024,363 1025,362 1025,359 1026,359 1026,359 1027,357 1027,358 1028,358 1028,358 1029,353 1029,353 1030,355 1031,355 1031,355 1032,352 1032,352 1033,351 1033,355 1034,355 1034,355 1035,353 1035,353 1035,353 1035,351 1036,351 1036,351 1036,351 1037,351 1037,351 1037,350 1038,350 1038,348 1038,348 1038,347 1039,347 1039,345 1039,345 1039,344 1040,344 1040,343 1040,343 1040,343 1041,343 1041,341 1042,341 1042,341 1042,341 1042,340 1043,340 1043,340 1043,338 1044,338 1044,339 1044,339 1045,339 1045,339 1045,339 1045,338 1046,338 1046,338 1046,338 1046,338 1047,338 1047,335 1047,335 1047,335 1048,335 1048,335 1048,335 1049,335 1049,335 1049,335 1049,333 1050,333 1050,332 1050,332 1050,332 1051,332 1051,330 1051,330 1051,330 1052,330 1052,329 1052,329 1052,328 1053,327 1054,327 1054,326 1054,326 1054,325 1055,325 1055,322 1055,322 1055,322 1056,322 1056,321 1056,321 1056,319 1057,319 1057,318 1057,318 1057,316 1058,316 1058,314 1058,314 1058,314 1059,314 1059,314 1059,313 1060,313 1060,313 1060,310 1061,310 1061,310 1061,310 1061,310 1062,310 1062,310 1062,310 1062,309 1063,309 1063,309 1063,309 1063,309 1064,309 1064,309 1065,309 1065,306 1065,306 1066,306 1066,306 1066,306 1066,305 1067,305 1067,303 1067,303 1067,301 1068,301 1068,300 1068,300 1069,300 1069,300 1069,300 1069,300 1070,300 1070,299 1070,299 1070,298 1071,298 1071,298 1071,298 1071,298 1072,298 1072,295 1072,295 1072,295 1073,295 1073,295 1073,295 1073,296 1074,296 1074,295 1074,295 1074,293 1075,293 1075,292 1076,292 1076,292 1076,292 1076,292 1077,292 1077,289 1077,289 1077,289 1078,289 1078,288 1078,287 1079,287 1079,287 1079,287 1079,283 1080,283 1080,282 1080,282 1080,282 1081,282 1081,282 1081,282 1081,281 1082,281 1082,281 1082,281 1082,280 1083,280 1083,279 1083,279 1084,279 1084,276 1084,276 1084,273 1085,273 1085,271 1085,271 1085,270 1086,270 1086,269 1086,268 1087,266 1088,266 1088,265 1088,262 1089,262 1089,261 1089,261 1089,261 1090,261 1090,261 1090,261 1090,261 1091,261 1091,260 1091,260 1091,257 1092,257 1092,257 1092,257 1092,256 1093,256 1093,255 1093,254 1093,254 1094,254 1094,253 1094,253 1095,253 1095,253 1095,253 1095,250 1096,250 1096,247 1096,247 1096,248 1097,248 1097,248 1097,247 1097,246 1098,246 1098,245 1099,245 1099,244 1099,244 1099,244 1100,244 1100,244 1100,244 1100,244 1101,244 1101,243 1101,243 1101,241 1102,241 1102,237 1102,236 1103,236 1103,236 1103,236 1103,234 1104,234 1104,234 1104,234 1104,233 1105,233 1105,232 1105,232 1105,228 1106,228 1106,226 1106,227 1107,227 1107,227 1107,227 1107,227 1108,227 1108,227 1108,227 1108,226 1109,226 1109,224 1109,224 1109,224 1110,224 1110,223 1111,223 1111,221 1111,221 1111,216 1112,216 1112,216 1112,216 1112,216 1113,216 1113,216 1113,216 1113,216 1114,216 1114,215 1114,215 1114,211 1115,211 1115,210 1115,209 1115,208 1116,208 1116,204 1116,204 1117,204 1117,204 1117,204 1117,204 1118,204 1118,204 1118,204 1118,204 1119,204 1119,204 1119,204 1119,203 1120,203 1120,202 1120,202 1120,200 1121,200 1121,200 1122,200 1122,200 1122,200 1122,199 1123,199 1123,196 1123,196 1123,196 1124,196 1124,196 1124,196 1124,196 1125,196 1125,194 1125,194 1125,193 1126,193 1126,191 1126,191 1126,189 1127,189 1127,189 1127,189 1127,188 1128,188 1128,188 1128,188 1128,186 1129,186 1129,185 1129,184 1129,181 1130,181 1130,181 1130,181 1130,177 1131,170 1131,170 1131,170 1132,170 1132,169 1133,168 1133,168 1133,168 1134,168 1134,166 1134,166 1134,165 1135,165 1135,165 1135,165 1135,165 1136,165 1136,164 1136,164 1136,163 1137,163 1137,163 1137,163 1137,162 1138,162 1138,159 1138,158 1139,158 1139,158 1139,158 1139,158 1140,158 1140,156 1140,156 1140,156 1141,156 1141,156 1141,156 1141,154 1142,154 1142,153 1142,153 1142,146 1143,146 1143,145 1143,145 1143,143 1144,143 1144,141 1145,141 1145,139 1145,139 1145,137 1146,137 1146,134 1146,134 1146,131 1147,131 1147,130 1147,130 1147,130 1148,130 1148,130 1148,130 1148,129 1149,129 1149,126 1149,126 1149,125 1150,125 1150,124 1150,124 1150,124 1151,124 1151,124 1151,124 1151,123 1152,123 1152,123 1152,123 1152,122 1153,122 1153,120 1153,120 1153,120 1154,120 1154,119 1154,119 1154,119 1155,119 1155,119 1156,119 1156,119 1156,119 1156,118 1157,118 1157,117 1157,117 1157,117 1158,116 1158,116 1158,116 1158,116 1159,116 1159,116 1159,116 1159,113 1160,113 1160,113 1160,113 1160,113 1161,113 1161,113 1161,113 1161,113 1162,113 1162,111 1162,111 1162,111 1163,111 1163,111 1163,110 1164,110 1164,109 1164,109 1164,109 1165,109 1165,109 1165,109 1165,106 1166,106 1166,106 1166,106 1166,106 1167,106 1167,105 1168,105 1168,102 1168,102 1168,103 1169,103 1169,103 1169,103 1169,101 1170,101 1170,100 1170,100 1170,100 1171,100 1171,100 1171,100 1171,98 1172,98 1172,98 1172,98 1172,98 1173,98 1173,98 1173,96 1174,96 1174,95 1174,95 1174,92 1175,92 1175,92 1175,92 1175,92 1176,92 1176,92 1176,92 1176,91 1177,91 1177,90 1177,89 1178,89 1178,88 1179,88 1179,87 1179,87 1179,86 1180,86 1180,84 1180,84 1180,84 1181,84 1181,84 1181,84 1181,84 1182,84 1182,83 1182,83 1182,82 1183,82 1183,79 1183,79 1183,78 1184,78 1184,78 1184,78 1184,78 1185,78 1185,77 1185,77 1185,77 1186,77 1186,77 1186,77 1186,77 1187,77 1187,78 1187,78 1187,77 1188,77 1188,77 1188,77 1188,77 1189,77 1189,75 1190,75 "/>
<polyline fill="none" opacity="1" stroke="#19E619" stroke-width="2" points="495,738 496,737 498,737 499,737 500,737 501,737 502,737 502,737 505,737 506,737 508,737 508,737 510,737 510,737 514,737 515,737 517,737 517,737 518,737 520,737 521,737 522,737 523,737 524,737 525,737 526,737 528,736 528,736 529,736 529,736 531,736 532,736 532,736 533,736 533,736 535,736 535,736 537,736 537,736 539,736 540,736 540,736 541,736 542,736 542,736 543,736 543,736 545,736 545,736 546,736 547,736 548,736 548,736 549,736 550,736 551,736 551,736 552,736 553,736 554,736 554,736 555,736 555,736 556,736 557,736 557,736 558,736 560,736 560,735 561,735 561,735 563,735 563,735 564,735 564,735 565,735 565,735 566,735 566,735 567,735 568,735 575,734 575,734 576,734 577,734 578,734 580,734 580,734 582,734 583,734 584,734 584,734 585,734 586,734 591,734 592,734 593,734 593,734 594,734 595,734 595,734 596,734 597,734 598,734 598,734 599,734 599,734 600,734 600,734 601,734 602,733 602,733 603,733 606,733 606,733 607,733 608,733 608,733 609,733 609,732 610,732 610,732 611,732 611,732 614,732 616,732 617,732 617,732 620,732 621,732 621,732 624,732 625,732 627,732 627,732 628,731 631,731 631,731 632,731 633,731 634,731 634,731 635,731 636,731 637,730 637,730 639,730 639,730 640,730 640,730 641,730 645,730 645,730 646,730 646,730 647,730 648,730 650,730 651,730 651,730 652,730 656,730 656,730 657,730 657,730 658,729 659,727 663,727 665,727 666,727 667,727 667,727 670,727 672,727 673,727 673,725 674,726 675,726 676,726 677,726 677,725 678,725 678,725 680,725 680,725 683,725 686,725 686,724 687,723 688,723 688,723 689,723 690,723 690,721 692,721 695,720 697,720 698,720 704,720 704,720 705,720 705,720 708,720 709,720 709,720 710,720 714,720 714,720 716,720 717,720 718,720 718,720 719,719 722,718 723,716 724,716 725,716 726,716 726,716 728,716 730,716 730,716 731,716 732,716 734,715 734,715 735,715 736,714 737,714 737,714 738,714 739,714 739,714 740,714 741,714 743,713 743,712 744,712 748,711 749,711 750,711 751,711 755,710 755,710 758,709 762,709 763,708 766,708 769,708 769,708 771,708 771,708 772,707 773,707 773,705 774,705 776,705 776,705 777,705 779,704 780,704 780,703 783,703 783,703 784,702 785,702 787,701 787,701 788,701 791,700 791,700 792,700 793,699 793,699 795,698 796,698 797,698 798,698 799,698 800,698 802,698 807,697 807,697 808,697 809,697 810,697 810,697 811,697 811,697 812,697 812,696 814,695 814,695 816,693 817,693 818,693 818,693 819,692 819,692 820,692 820,692 821,692 822,692 823,691 824,691 825,690 826,690 827,690 827,690 828,690 828,690 829,690 830,690 830,690 831,690 831,690 832,690 834,688 834,688 835,688 835,688 836,688 837,687 837,687 838,687 839,686 839,686 840,686 840,686 841,686 841,686 842,686 843,686 843,686 844,686 844,686 845,686 845,686 846,686 846,686 847,686 848,686 848,686 849,686 850,686 851,686 851,686 852,686 853,686 854,686 854,686 855,686 855,686 856,686 856,686 857,686 857,686 858,686 859,686 859,686 860,686 860,686 861,685 861,685 862,685 862,685 863,685 863,684 864,684 864,684 865,684 865,684 866,684 866,684 867,684 867,684 868,684 868,684 869,684 869,684 870,684 871,682 871,682 872,682 872,682 873,682 873,682 874,682 874,682 875,682 875,681 876,681 876,681 877,680 877,680 878,680 878,680 879,680 879,680 880,680 880,680 881,680 882,679 882,679 883,678 883,678 884,678 884,678 885,678 885,678 886,678 886,678 887,678 887,678 888,677 888,677 889,676 889,676 890,676 890,676 891,676 891,676 892,676 892,676 893,676 894,676 894,676 895,676 895,676 896,676 896,676 897,676 897,676 898,676 898,676 899,675 899,675 900,675 900,675 901,675 901,675 902,675 902,675 903,675 903,675 904,675 905,675 905,675 906,675 906,675 907,675 907,675 908,675 908,675 909,675 909,675 910,675 910,675 911,675 911,675 912,675 912,675 913,675 913,675 914,674 914,674 915,673 915,673 916,673 917,673 917,673 918,673 918,671 919,671 919,671 920,671 920,670 921,670 921,670 922,670 922,669 923,669 923,668 924,668 924,667 925,667 925,667 926,667 926,667 927,666 928,666 928,667 929,667 929,665 930,665 930,664 931,664 931,665 932,665 932,665 933,665 933,665 934,662 934,662 935,662 935,662 936,662 936,662 937,662 937,662 938,662 939,661 939,659 940,659 940,659 941,659 941,659 942,659 942,659 943,659 943,659 944,659 944,659 945,659 945,659 946,659 946,658 947,658 947,658 948,658 948,657 949,657 949,657 950,657 951,657 951,657 952,657 952,655 953,655 953,654 954,654 954,654 955,654 955,654 956,654 956,653 957,653 957,653 958,653 958,652 959,652 959,651 960,651 960,651 961,651 961,651 962,651 962,651 963,651 963,651 964,651 964,651 965,651 965,651 966,651 966,651 967,651 967,651 968,650 968,650 969,650 969,650 970,650 970,648 971,648 971,647 972,647 972,647 973,647 974,645 974,645 975,645 975,645 976,645 976,645 977,645 977,645 978,645 978,645 979,645 979,645 980,645 980,645 981,645 981,645 982,645 982,643 983,643 983,643 984,643 985,643 985,643 986,643 986,643 987,643 987,643 988,643 988,643 989,643 989,643 990,643 990,642 991,642 991,642 992,642 992,642 993,642 993,643 994,644 994,644 995,644 996,644 996,643 997,643 997,643 998,643 998,643 999,642 999,642 1000,642 1000,642 1001,641 1001,640 1002,640 1002,640 1003,640 1003,640 1004,640 1004,640 1005,640 1005,640 1006,639 1006,638 1007,638 1008,638 1008,636 1009,636 1009,635 1010,635 1010,635 1011,634 1011,633 1012,632 1012,632 1013,632 1013,631 1014,631 1014,631 1015,631 1015,631 1016,631 1016,631 1017,631 1017,631 1018,631 1019,631 1019,631 1020,629 1020,629 1021,628 1021,628 1022,628 1022,628 1023,627 1023,627 1024,627 1024,627 1025,627 1025,625 1026,622 1026,622 1027,623 1027,623 1028,621 1028,621 1029,621 1029,620 1030,620 1031,620 1031,620 1032,620 1032,620 1033,620 1033,621 1034,621 1034,621 1035,621 1035,619 1035,619 1035,619 1036,619 1036,619 1036,619 1037,619 1037,619 1037,619 1038,619 1038,619 1038,619 1038,619 1039,619 1039,619 1039,619 1039,619 1040,619 1040,618 1040,618 1040,618 1041,618 1041,616 1042,616 1042,616 1042,616 1042,616 1043,616 1043,616 1043,614 1044,614 1044,614 1044,614 1045,614 1045,614 1045,614 1045,613 1046,613 1046,613 1046,613 1046,613 1047,613 1047,613 1047,613 1047,613 1048,611 1048,611 1048,611 1049,611 1049,611 1049,611 1049,611 1050,611 1050,610 1050,610 1050,610 1051,610 1051,610 1051,610 1051,610 1052,610 1052,610 1052,610 1052,610 1053,610 1054,610 1054,610 1054,610 1054,610 1055,610 1055,610 1055,610 1055,610 1056,610 1056,610 1056,610 1056,610 1057,610 1057,610 1057,610 1057,610 1058,610 1058,610 1058,610 1058,609 1059,609 1059,609 1059,609 1060,609 1060,609 1060,608 1061,608 1061,608 1061,608 1061,608 1062,608 1062,608 1062,608 1062,608 1063,608 1063,607 1063,607 1063,607 1064,607 1064,607 1065,607 1065,607 1065,606 1066,606 1066,605 1066,605 1066,602 1067,602 1067,602 1067,602 1067,602 1068,602 1068,602 1068,602 1069,602 1069,601 1069,601 1069,601 1070,601 1070,600 1070,600 1070,600 1071,600 1071,600 1071,600 1071,600 1072,600 1072,600 1072,600 1072,599 1073,599 1073,599 1073,599 1073,599 1074,599 1074,596 1074,596 1074,596 1075,596 1075,596 1076,596 1076,596 1076,596 1076,596 1077,596 1077,597 1077,597 1077,597 1078,597 1078,596 1078,596 1079,596 1079,596 1079,596 1079,596 1080,596 1080,596 1080,596 1080,596 1081,596 1081,596 1081,596 1081,596 1082,596 1082,596 1082,596 1082,595 1083,595 1083,595 1083,591 1084,591 1084,591 1084,591 1084,590 1085,590 1085,590 1085,590 1085,589 1086,589 1086,589 1086,589 1087,588 1088,588 1088,588 1088,588 1089,588 1089,588 1089,588 1089,587 1090,587 1090,587 1090,587 1090,587 1091,587 1091,587 1091,587 1091,587 1092,587 1092,587 1092,587 1092,587 1093,587 1093,587 1093,587 1093,587 1094,587 1094,587 1094,587 1095,587 1095,587 1095,587 1095,587 1096,587 1096,587 1096,587 1096,587 1097,587 1097,587 1097,587 1097,586 1098,586 1098,586 1099,586 1099,585 1099,585 1099,585 1100,585 1100,585 1100,585 1100,583 1101,583 1101,583 1101,583 1101,583 1102,583 1102,582 1102,582 1103,582 1103,582 1103,582 1103,582 1104,582 1104,582 1104,582 1104,580 1105,580 1105,580 1105,580 1105,580 1106,580 1106,580 1106,580 1107,580 1107,580 1107,580 1107,580 1108,580 1108,579 1108,579 1108,578 1109,578 1109,578 1109,578 1109,577 1110,577 1110,577 1111,577 1111,577 1111,577 1111,577 1112,577 1112,577 1112,577 1112,577 1113,577 1113,577 1113,577 1113,575 1114,575 1114,575 1114,575 1114,574 1115,574 1115,574 1115,574 1115,574 1116,574 1116,574 1116,574 1117,574 1117,574 1117,574 1117,574 1118,574 1118,573 1118,573 1118,573 1119,573 1119,573 1119,573 1119,573 1120,573 1120,573 1120,573 1120,573 1121,573 1121,573 1122,573 1122,573 1122,573 1122,572 1123,572 1123,571 1123,571 1123,570 1124,570 1124,570 1124,570 1124,570 1125,570 1125,570 1125,570 1125,570 1126,570 1126,568 1126,568 1126,568 1127,568 1127,567 1127,567 1127,566 1128,566 1128,566 1128,566 1128,564 1129,564 1129,563 1129,563 1129,563 1130,563 1130,563 1130,563 1130,563 1131,562 1131,562 1131,561 1132,561 1132,560 1133,560 1133,560 1133,560 1134,560 1134,560 1134,560 1134,560 1135,560 1135,560 1135,560 1135,557 1136,557 1136,557 1136,557 1136,557 1137,557 1137,557 1137,557 1137,557 1138,557 1138,557 1138,557 1139,557 1139,557 1139,557 1139,557 1140,557 1140,557 1140,557 1140,554 1141,554 1141,553 1141,553 1141,552 1142,552 1142,550 1142,550 1142,549 1143,549 1143,549 1143,549 1143,544 1144,544 1144,544 1145,544 1145,543 1145,543 1145,543 1146,543 1146,542 1146,542 1146,542 1147,542 1147,542 1147,542 1147,542 1148,542 1148,542 1148,542 1148,542 1149,542 1149,542 1149,542 1149,542 1150,542 1150,542 1150,542 1150,542 1151,542 1151,542 1151,542 1151,542 1152,542 1152,542 1152,542 1152,542 1153,542 1153,543 1153,543 1153,543 1154,543 1154,543 1154,543 1154,543 1155,543 1155,543 1156,543 1156,541 1156,541 1156,541 1157,541 1157,540 1157,540 1157,540 1158,540 1158,540 1158,540 1158,540 1159,540 1159,540 1159,540 1159,539 1160,539 1160,539 1160,539 1160,538 1161,538 1161,538 1161,538 1161,538 1162,538 1162,538 1162,538 1162,538 1163,538 1163,538 1163,538 1164,538 1164,537 1164,537 1164,536 1165,536 1165,536 1165,536 1165,536 1166,536 1166,532 1166,532 1166,532 1167,532 1167,532 1168,532 1168,532 1168,532 1168,532 1169,532 1169,532 1169,532 1169,532 1170,532 1170,532 1170,532 1170,532 1171,532 1171,531 1171,531 1171,531 1172,531 1172,532 1172,532 1172,531 1173,531 1173,531 1173,531 1174,531 1174,531 1174,531 1174,531 1175,531 1175,531 1175,531 1175,530 1176,529 1176,529 1176,530 1177,530 1177,530 1177,530 1177,530 1178,530 1178,530 1179,530 1179,530 1179,530 1179,530 1180,530 1180,530 1180,530 1180,530 1181,530 1181,529 1181,529 1181,528 1182,528 1182,528 1182,528 1182,528 1183,528 1183,528 1183,528 1183,526 1184,526 1184,525 1184,525 1184,526 1185,526 1185,526 1185,525 1185,523 1186,523 1186,523 1186,523 1186,522 1187,522 1187,522 1187,522 1187,522 1188,522 1188,522 1188,522 1188,522 1189,522 1189,522 1190,522 "/>
<polyline fill="none" opacity="1" stroke="#19E5E6" stroke-width="2" points="60,738 80,737 95,736 100,735 103,734 103,731 107,730 111,729 112,729 113,729 113,729 115,731 118,731 118,730 119,730 120,730 121,729 122,725 123,725 124,725 125,725 125,725 126,725 127,725 128,725 129,724 130,724 130,723 132,723 132,723 134,723 135,723 135,723 136,723 137,723 137,723 138,723 139,723 141,722 141,722 142,722 143,722 144,722 144,722 145,721 146,721 147,721 147,721 149,721 150,721 151,721 152,721 152,721 153,720 153,720 154,716 154,716 155,716 156,716 156,716 157,716 158,716 159,716 159,716 160,716 160,716 162,716 163,716 164,716 165,716 165,716 166,716 166,716 167,716 167,716 168,716 169,716 169,716 170,716 171,716 172,716 173,716 173,715 174,715 176,715 176,715 177,715 178,715 178,715 179,715 179,715 181,715 181,715 182,715 182,714 183,714 183,714 184,714 184,714 186,714 186,714 187,714 187,714 188,714 188,714 189,714 189,714 190,714 190,714 191,713 191,713 192,713 192,713 193,713 193,713 194,713 194,713 195,713 196,713 197,713 198,713 199,713 200,713 200,713 201,712 201,712 202,712 203,710 203,710 204,710 205,710 205,710 206,709 206,709 207,709 207,709 208,709 209,709 209,708 210,708 210,708 211,708 211,708 212,708 212,708 213,708 213,708 214,708 214,708 215,708 215,708 216,708 216,708 217,708 217,707 218,707 220,707 220,707 221,707 221,707 222,707 223,707 224,707 225,707 225,707 226,707 227,705 227,705 228,704 229,704 229,704 230,704 230,703 231,703 232,703 233,703 233,703 234,703 234,703 235,703 236,703 236,703 237,703 237,703 238,703 238,703 239,703 239,703 240,702 240,702 241,702 242,701 243,701 243,701 244,701 244,701 245,701 245,701 246,701 246,701 247,701 247,701 248,701 248,702 249,701 249,701 250,701 250,701 251,701 252,701 252,701 253,700 253,699 254,699 255,699 255,699 256,699 256,698 257,698 257,698 258,698 258,698 259,698 259,698 260,698 260,698 261,698 261,698 262,698 262,698 263,698 263,698 264,698 264,698 265,698 266,698 266,698 267,698 267,698 268,698 268,698 269,698 269,698 270,698 270,698 271,698 271,698 272,698 272,698 273,698 273,698 274,698 274,698 275,698 275,698 276,698 277,698 277,698 278,698 278,698 279,698 279,698 280,698 280,698 281,698 281,698 282,698 282,698 283,698 283,697 284,696 284,696 285,696 285,695 286,695 286,695 287,695 287,693 288,693 289,693 289,693 290,693 290,693 291,693 291,693 292,693 292,693 293,693 293,693 294,692 294,692 295,691 295,691 296,690 296,689 297,689 297,689 298,689 299,689 300,689 300,689 301,689 301,689 302,689 302,689 303,689 303,689 304,689 304,689 305,689 305,689 306,689 306,689 307,689 307,689 308,689 308,689 309,689 309,689 310,689 310,689 311,689 312,689 312,689 313,688 313,687 314,687 314,687 315,687 315,687 316,687 316,686 317,686 317,686 318,686 318,686 319,686 319,686 320,686 320,686 321,686 321,686 323,686 323,687 324,687 324,687 325,687 325,687 326,687 326,687 327,687 327,686 328,686 328,686 329,686 329,686 330,686 330,686 331,686 331,686 332,686 332,686 333,685 334,685 334,685 335,685 335,685 336,685 336,685 337,685 337,685 338,685 338,685 339,685 339,685 340,685 340,685 341,685 341,685 342,685 342,685 343,685 343,685 344,685 344,685 345,685 346,685 346,685 347,685 347,685 348,685 348,685 349,685 349,684 350,682 350,681 351,681 351,681 352,681 352,681 353,681 353,681 354,681 354,681 355,681 355,681 356,681 357,681 357,681 358,681 358,681 359,681 359,681 360,681 360,681 361,681 361,681 362,681 362,681 363,680 363,680 364,680 364,680 365,680 365,680 366,679 366,679 367,679 367,679 368,679 369,679 369,679 370,679 370,679 371,679 371,677 372,677 372,677 373,677 373,676 374,676 374,676 375,675 375,675 376,675 376,675 377,675 377,675 378,675 378,675 379,675 380,675 380,675 381,675 381,675 382,675 382,675 383,675 384,675 384,675 385,675 385,675 386,675 386,675 387,675 387,675 388,676 388,676 389,676 389,676 390,676 390,676 391,676 392,676 392,676 393,676 393,676 394,676 394,676 395,676 395,676 396,676 396,676 397,677 397,677 398,677 398,677 399,677 399,677 400,677 400,677 401,677 401,677 402,677 403,676 403,676 404,676 404,676 405,676 405,676 406,675 406,675 407,676 407,676 408,676 408,676 409,675 409,675 410,675 410,674 411,674 411,674 412,673 412,673 413,673 414,671 414,671 415,670 415,671 416,671 416,671 417,670 417,670 418,670 418,670 419,669 419,669 420,669 420,669 421,669 421,669 422,669 422,669 423,667 423,667 424,667 424,667 425,667 426,667 426,668 427,668 427,667 428,667 428,667 429,667 429,667 430,667 430,667 431,667 431,667 432,667 432,667 433,667 433,667 434,667 434,667 435,666 435,666 436,666 437,665 437,664 438,664 438,664 439,664 439,664 440,664 440,664 441,664 441,663 442,664 442,664 443,664 443,664 444,664 444,664 445,664 445,664 446,664 446,664 447,664 447,664 448,664 449,664 449,664 450,663 450,663 451,663 451,663 452,663 452,663 453,663 453,663 454,663 454,663 455,663 455,663 456,663 456,662 457,662 457,662 458,661 458,659 459,659 460,657 460,657 461,657 461,657 462,657 462,657 463,657 463,657 464,657 464,656 465,656 465,656 466,656 466,656 467,656 467,656 468,656 468,656 469,656 469,656 470,656 471,656 471,656 472,656 472,656 473,656 473,656 474,655 474,655 475,654 475,654 476,654 476,654 477,654 477,653 478,653 478,653 479,652 479,651 480,651 480,651 481,651 481,651 482,651 483,651 483,651 484,651 484,651 485,651 485,651 486,651 486,651 487,651 487,651 488,648 488,648 489,648 489,648 490,648 490,648 491,648 491,647 492,647 492,647 493,647 494,647 494,647 495,647 495,647 496,647 496,647 497,647 497,647 498,647 498,647 499,647 499,647 500,647 500,647 501,647 501,647 502,647 502,647 503,647 503,647 504,647 504,647 505,647 506,647 506,647 507,647 507,647 508,647 508,647 509,647 509,647 510,647 510,647 511,647 511,647 512,647 512,647 513,646 513,646 514,645 514,645 515,645 515,645 516,644 517,644 517,644 518,644 518,644 519,644 519,644 520,644 520,644 521,644 521,643 522,643 522,641 523,640 523,640 524,640 524,640 525,640 525,640 526,640 526,640 527,640 528,640 528,639 529,639 529,639 530,639 530,639 531,639 531,636 532,636 532,636 533,636 533,636 534,636 534,636 535,636 535,636 536,636 536,636 537,636 537,636 538,636 538,636 539,636 540,636 540,636 541,636 541,636 542,636 542,636 543,635 543,635 544,635 544,635 545,635 545,634 546,634 546,634 547,634 547,634 548,634 548,634 549,634 549,634 550,634 551,634 551,634 552,633 552,633 553,633 553,633 554,633 554,632 555,633 555,633 556,633 556,633 557,633 557,633 558,633 558,633 559,633 559,633 560,633 560,633 561,633 561,633 562,633 563,633 563,633 564,633 564,633 565,633 565,633 566,633 566,633 567,633 567,633 568,633 568,633 569,633 569,633 570,633 570,633 571,633 571,633 572,633 572,633 573,633 574,632 574,632 575,633 575,633 576,633 576,633 577,633 577,633 578,633 578,633 579,633 579,633 580,633 581,633 581,633 582,633 582,633 583,633 583,633 584,633 584,633 585,633 586,633 586,633 587,633 587,633 588,634 588,634 589,634 589,634 590,634 590,634 591,634 591,634 592,634 592,634 593,634 593,634 594,634 594,633 595,633 595,633 596,633 597,633 597,633 598,633 598,632 599,632 599,632 600,632 600,631 601,631 601,631 602,631 602,631 603,631 603,631 604,631 604,631 605,631 605,631 606,631 606,631 607,631 608,631 608,631 609,631 609,631 610,631 610,631 611,631 611,630 612,630 612,630 613,630 613,630 614,630 614,630 615,630 615,630 616,630 616,630 617,630 617,630 618,630 618,630 619,630 620,630 620,630 621,630 621,630 622,630 622,628 623,628 623,628 624,628 624,622 625,622 625,622 626,622 626,622 627,622 627,622 628,622 628,622 629,622 629,622 630,622 631,622 631,622 632,622 632,620 633,620 633,620 634,620 634,620 635,620 635,620 636,620 636,620 637,620 637,620 638,620 638,620 639,620 639,621 640,621 640,621 641,621 641,621 642,621 643,621 643,621 644,621 644,621 645,621 645,621 646,621 646,621 647,621 647,621 648,621 648,620 649,620 649,620 650,620 650,620 651,620 651,619 652,619 652,619 653,619 654,619 654,619 655,619 655,619 656,619 656,618 657,618 657,618 658,618 658,618 659,618 659,618 660,618 660,618 661,618 661,618 662,618 662,618 663,618 663,616 664,616 665,616 665,616 666,616 666,616 667,616 667,614 668,614 668,614 669,614 669,614 670,614 670,613 671,613 671,613 672,613 672,613 673,613 673,613 674,613 674,613 675,613 675,611 676,610 677,610 677,609 678,609 678,609 679,609 679,609 680,608 680,608 681,608 681,608 682,608 682,608 683,608 683,608 684,608 684,608 685,608 685,608 686,608 686,608 687,608 688,614 688,614 689,614 689,614 690,614 690,614 691,614 691,613 692,613 692,613 693,613 693,613 694,613 694,613 695,613 695,612 696,612 696,612 697,612 697,612 698,612 698,612 699,612 700,612 700,612 701,612 701,612 702,612 702,612 703,612 703,612 704,612 704,612 705,612 705,612 706,612 706,612 707,612 707,612 708,612 708,612 709,612 709,612 710,613 711,613 711,613 712,613 712,613 713,613 713,613 714,613 714,613 715,613 715,613 716,613 716,613 717,613 717,613 718,613 718,613 719,613 719,613 720,613 720,613 721,613 721,613 722,613 723,613 723,613 724,613 724,613 725,613 725,612 726,612 726,612 727,612 727,612 728,612 728,612 729,612 729,611 730,611 730,611 731,611 731,611 732,611 732,611 733,611 734,611 734,611 735,611 735,611 736,611 736,611 737,611 737,611 738,611 738,611 739,611 739,611 740,611 740,611 741,611 741,611 742,611 742,611 743,610 743,610 744,610 745,610 745,610 746,610 746,610 747,610 747,610 748,610 748,610 749,610 749,610 750,610 750,610 751,610 751,610 752,610 752,610 753,610 753,610 754,609 754,609 755,609 755,609 756,609 757,608 757,608 758,608 758,608 759,608 759,608 759,608 760,608 760,608 761,608 761,608 762,608 762,607 763,607 763,607 764,606 764,606 765,606 765,606 766,606 766,606 767,606 768,606 768,606 769,606 769,606 770,606 770,606 771,606 771,606 772,606 772,606 773,606 773,606 774,606 774,604 775,604 775,604 776,604 776,604 777,604 777,602 778,602 778,601 779,601 780,601 780,601 781,601 781,601 782,601 782,601 783,601 783,601 784,601 784,601 785,601 785,601 786,601 786,601 787,601 787,601 788,601 788,601 789,601 789,601 790,601 791,601 791,601 792,601 792,601 793,601 793,601 794,601 794,601 795,601 795,601 796,601 796,601 797,601 797,601 798,601 798,601 799,601 799,600 800,600 800,601 801,601 802,601 802,601 803,600 803,600 804,600 804,600 805,600 805,600 806,600 806,600 807,600 807,600 808,598 808,598 809,598 809,598 810,598 810,599 811,599 811,600 812,600 812,600 813,600 814,600 814,601 815,601 816,600 816,600 817,600 817,600 818,600 818,600 819,600 819,600 820,600 820,600 821,600 821,599 822,599 822,599 823,599 823,599 824,598 825,598 825,598 826,598 826,598 827,598 827,598 828,598 828,598 829,598 829,599 830,599 830,599 831,599 831,599 832,599 832,599 833,599 833,599 834,599 834,599 835,599 835,599 836,599 837,599 837,599 838,599 838,599 839,599 839,599 840,599 840,599 841,599 841,599 842,599 842,599 843,599 843,599 844,599 844,600 845,600 845,600 846,600 846,600 847,599 848,599 848,600 849,600 849,600 850,599 850,599 851,599 851,599 852,599 852,599 853,599 853,598 854,598 854,598 855,598 855,598 856,598 856,598 857,598 857,598 858,598 859,598 859,598 860,598 860,598 861,598 861,598 862,598 862,598 863,598 863,598 864,598 864,598 865,598 865,598 866,597 866,597 867,597 867,597 868,597 868,597 869,597 869,597 870,597 871,597 871,597 872,597 872,597 873,597 873,597 874,597 874,597 875,597 875,597 876,597 876,597 877,597 877,597 878,597 878,597 879,597 879,597 880,597 880,596 881,596 882,596 882,596 883,596 883,596 884,596 884,596 885,596 885,596 886,596 886,596 887,596 887,597 888,597 888,596 889,596 889,596 890,596 890,596 891,596 891,596 892,595 892,595 893,595 894,595 894,595 895,595 895,595 896,595 896,595 897,595 897,595 898,594 898,594 899,594 899,594 900,594 900,594 901,594 901,594 902,594 902,594 903,594 903,594 904,594 905,594 905,594 906,594 906,594 907,594 907,594 908,595 908,595 909,595 909,595 910,595 910,595 911,595 911,595 912,596 912,595 913,595 913,595 914,595 914,595 915,595 915,595 916,595 917,595 917,595 918,595 918,595 919,595 919,595 920,595 920,595 921,594 921,594 922,594 922,594 923,594 923,594 924,594 924,594 925,594 925,593 926,593 926,593 927,593 928,594 928,594 929,594 929,594 930,594 930,594 931,594 931,594 932,594 932,594 933,594 933,593 934,593 934,593 935,593 935,593 936,593 936,593 937,593 937,593 938,591 939,591 939,591 940,591 940,591 941,590 941,590 942,590 942,590 943,590 943,590 944,590 944,590 945,590 945,590 946,590 946,590 947,590 947,590 948,590 948,590 949,590 949,590 950,590 951,590 951,590 952,590 952,590 953,590 953,590 954,590 954,590 955,590 955,590 956,590 956,590 957,590 957,590 958,590 958,590 959,590 959,590 960,590 960,590 961,590 961,590 962,590 962,590 963,590 963,590 964,590 964,590 965,590 965,590 966,590 966,590 967,590 967,589 968,589 968,589 969,589 969,589 970,589 970,589 971,589 971,589 972,589 972,589 973,589 974,590 974,590 975,591 975,591 976,591 976,591 977,591 977,591 978,591 978,591 979,591 979,591 980,591 980,591 981,591 981,591 982,590 982,589 983,589 983,589 984,589 985,589 985,589 986,589 986,589 987,589 987,589 988,589 988,587 989,587 989,587 990,584 990,584 991,584 991,584 992,584 992,584 993,584 993,584 994,584 994,585 995,585 996,585 996,585 997,585 997,585 998,585 998,585 999,585 999,585 1000,585 1000,585 1001,585 1001,585 1002,584 1002,582 1003,582 1003,582 1004,582 1004,582 1005,582 1005,582 1006,582 1006,582 1007,582 1008,582 1008,582 1009,582 1009,582 1010,582 1010,582 1011,582 1011,583 1012,583 1012,583 1013,583 1013,583 1014,583 1014,583 1015,583 1015,583 1016,583 1016,583 1017,583 1017,583 1018,583 1019,583 1019,583 1020,582 1020,582 1021,582 1021,580 1022,580 1022,580 1023,580 1023,580 1024,580 1024,580 1025,580 1025,580 1026,580 1026,580 1027,580 1027,580 1028,580 1028,580 1029,580 1029,582 1030,582 1031,582 1031,580 1032,580 1032,580 1033,580 1033,580 1034,580 1034,580 1035,580 1035,580 1035,580 1035,580 1036,580 1036,580 1036,580 1037,580 1037,580 1037,580 1038,580 1038,579 1038,579 1038,579 1039,579 1039,579 1039,579 1039,579 1040,579 1040,579 1040,579 1040,579 1041,579 1041,579 1042,579 1042,579 1042,579 1042,579 1043,579 1043,579 1043,579 1044,579 1044,579 1044,579 1045,579 1045,579 1045,579 1045,579 1046,579 1046,579 1046,579 1046,579 1047,579 1047,579 1047,579 1047,579 1048,579 1048,579 1048,579 1049,579 1049,579 1049,579 1049,579 1050,579 1050,579 1050,579 1050,579 1051,579 1051,579 1051,579 1051,579 1052,580 1052,580 1052,580 1052,580 1053,580 1054,580 1054,579 1054,579 1054,579 1055,579 1055,579 1055,579 1055,579 1056,579 1056,579 1056,579 1056,578 1057,578 1057,578 1057,578 1057,578 1058,578 1058,578 1058,578 1058,578 1059,578 1059,578 1059,579 1060,579 1060,579 1060,579 1061,579 1061,579 1061,579 1061,579 1062,579 1062,579 1062,579 1062,579 1063,579 1063,579 1063,579 1063,578 1064,578 1064,578 1065,578 1065,578 1065,578 1066,578 1066,578 1066,578 1066,578 1067,578 1067,578 1067,578 1067,578 1068,578 1068,578 1068,578 1069,578 1069,578 1069,578 1069,578 1070,578 1070,578 1070,578 1070,578 1071,578 1071,578 1071,578 1071,578 1072,578 1072,578 1072,578 1072,579 1073,579 1073,579 1073,579 1073,579 1074,579 1074,579 1074,579 1074,579 1075,579 1075,579 1076,579 1076,579 1076,579 1076,579 1077,579 1077,579 1077,579 1077,579 1078,579 1078,579 1078,579 1079,579 1079,579 1079,579 1079,579 1080,579 1080,579 1080,579 1080,578 1081,578 1081,578 1081,578 1081,578 1082,578 1082,578 1082,578 1082,578 1083,578 1083,578 1083,578 1084,578 1084,578 1084,578 1084,578 1085,578 1085,578 1085,578 1085,578 1086,578 1086,577 1086,577 1087,577 1088,577 1088,577 1088,577 1089,577 1089,577 1089,577 1089,577 1090,577 1090,577 1090,577 1090,577 1091,577 1091,577 1091,577 1091,577 1092,577 1092,577 1092,577 1092,577 1093,577 1093,577 1093,577 1093,577 1094,577 1094,577 1095,577 1095,577 1095,577 1095,577 1096,577 1096,577 1096,577 1096,577 1097,577 1097,577 1097,577 1097,577 1098,577 1098,577 1099,577 1099,577 1099,577 1099,577 1100,577 1100,577 1100,577 1100,577 1101,577 1101,577 1101,577 1101,577 1102,577 1102,577 1102,577 1103,577 1103,577 1103,577 1103,577 1104,577 1104,577 1104,577 1104,577 1105,577 1105,577 1105,577 1105,577 1106,577 1106,577 1106,578 1107,578 1107,578 1107,578 1107,578 1108,578 1108,578 1108,578 1108,578 1109,578 1109,578 1109,578 1109,578 1110,578 1110,577 1111,577 1111,577 1111,577 1111,577 1112,577 1112,577 1112,577 1112,577 1113,577 1113,577 1113,577 1113,577 1114,577 1114,577 1114,577 1114,577 1115,577 1115,577 1115,577 1115,577 1116,577 1116,577 1116,577 1117,577 1117,577 1117,577 1117,577 1118,577 1118,577 1118,577 1118,577 1119,577 1119,577 1119,577 1119,577 1120,577 1120,577 1120,577 1120,577 1121,577 1121,577 1122,577 1122,577 1122,577 1122,577 1123,577 1123,577 1123,577 1123,577 1124,577 1124,577 1124,577 1124,577 1125,577 1125,577 1125,577 1125,577 1126,577 1126,577 1126,577 1126,576 1127,576 1127,576 1127,576 1127,576 1128,576 1128,576 1128,576 1128,576 1129,576 1129,576 1129,576 1129,576 1130,576 1130,576 1130,576 1130,576 1131,576 1131,576 1131,576 1132,576 1132,576 1133,576 1133,576 1133,576 1134,576 1134,576 1134,576 1134,576 1135,576 1135,576 1135,576 1135,576 1136,576 1136,576 1136,576 1136,576 1137,576 1137,576 1137,576 1137,576 1138,576 1138,576 1138,576 1139,576 1139,576 1139,576 1140,576 1140,576 1140,576 1140,576 1141,576 1141,576 1141,576 1141,576 1142,576 1142,576 1142,576 1142,576 1143,576 1143,576 1143,576 1143,576 1144,576 1144,576 1145,576 1145,576 1145,576 1145,576 1146,576 1146,575 1146,575 1146,575 1147,575 1147,575 1147,575 1147,575 1148,575 1148,575 1148,575 1148,575 1149,575 1149,575 1149,575 1149,575 1150,575 1150,575 1150,575 1150,575 1151,575 1151,575 1151,575 1151,575 1152,575 1152,575 1152,575 1152,575 1153,575 1153,575 1153,575 1153,575 1154,575 1154,575 1154,575 1154,575 1155,575 1155,575 1156,575 1156,575 1156,575 1156,575 1157,575 1157,575 1157,575 1157,574 1158,574 1158,574 1158,574 1158,574 1159,574 1159,574 1159,574 1159,574 1160,574 1160,574 1160,574 1160,574 1161,574 1161,574 1161,574 1161,574 1162,574 1162,574 1162,574 1162,574 1163,574 1163,574 1163,574 1164,574 1164,574 1164,574 1164,575 1165,575 1165,575 1165,575 1165,575 1166,575 1166,575 1166,575 1166,575 1167,575 1167,575 1168,575 1168,575 1168,575 1168,575 1169,575 1169,575 1169,575 1169,575 1170,575 1170,575 1170,575 1170,575 1171,575 1171,575 1171,575 1171,575 1172,575 1172,575 1172,575 1172,574 1173,574 1173,574 1173,574 1174,574 1174,574 1174,574 1174,574 1175,574 1175,574 1175,574 1175,573 1176,573 1176,573 1176,573 1177,573 1177,573 1177,573 1177,573 1178,573 1178,573 1179,573 1179,573 1179,573 1179,572 1180,572 1180,572 1180,572 1180,572 1181,572 1181,572 1181,572 1181,572 1182,572 1182,572 1182,572 1182,572 1183,572 1183,572 1183,572 1183,571 1184,571 1184,571 1184,571 1184,571 1185,571 1185,571 1185,571 1185,571 1186,571 1186,571 1186,571 1186,571 1187,571 1187,571 1187,571 1187,571 1188,571 1188,571 1188,571 1188,571 1189,571 1189,568 1190,568 "/>
<polyline fill="none" opacity="1" stroke="#1919E6" stroke-width="2" points="407,738 461,737 507,736 527,735 533,734 546,733 547,732 548,732 548,731 549,731 550,731 552,730 555,729 556,729 556,729 557,729 557,729 559,729 559,729 560,729 560,729 561,729 561,729 562,729 563,729 563,729 565,729 567,729 569,729 569,729 570,729 570,729 571,729 572,729 573,729 574,729 575,729 576,729 576,729 577,729 577,729 578,729 578,729 579,729 580,729 580,729 581,729 581,729 582,729 582,729 583,729 584,729 585,729 587,729 588,729 589,729 590,729 591,729 592,729 594,729 594,726 595,726 597,726 598,726 598,726 599,726 599,726 600,726 602,726 603,726 604,726 605,726 605,726 606,725 608,725 608,725 609,725 609,725 610,725 610,725 611,725 611,725 612,725 612,725 613,724 615,724 616,724 616,724 617,724 618,724 618,724 619,724 620,724 620,724 621,724 621,724 622,724 622,724 623,724 623,724 624,724 625,724 625,724 626,724 627,724 627,724 628,724 629,724 629,724 630,724 631,724 632,724 632,724 633,724 633,724 634,724 635,724 636,724 636,724 637,724 637,724 638,724 638,724 639,724 639,724 640,724 640,724 641,724 641,723 642,723 644,722 644,722 645,722 645,722 646,722 646,722 647,722 647,722 648,722 648,722 649,722 649,722 650,722 650,722 651,722 652,722 652,722 653,722 654,722 655,722 655,722 656,722 656,722 657,722 657,721 658,721 658,721 659,721 659,720 660,720 660,720 661,720 661,720 662,720 662,720 663,720 663,720 664,720 665,720 665,720 666,720 666,720 667,720 667,720 668,720 668,720 669,720 669,720 670,720 670,720 671,720 671,720 672,720 672,720 673,720 673,719 674,718 674,716 675,716 677,716 677,716 678,716 678,716 679,716 679,716 680,716 680,716 681,716 681,716 682,716 682,716 683,716 683,716 684,716 685,716 685,716 686,716 686,716 687,716 688,716 688,716 689,716 689,716 690,715 690,715 691,715 691,715 692,715 692,715 693,715 693,714 694,714 694,714 695,714 695,714 696,714 696,713 697,713 697,713 698,713 698,713 699,713 700,713 700,713 701,713 701,713 702,713 702,713 703,713 703,713 704,713 704,713 705,713 705,712 706,712 706,712 707,712 707,712 708,712 708,712 709,712 709,712 710,712 711,712 711,712 712,712 712,712 713,712 713,712 714,711 714,711 715,711 715,711 716,710 716,710 717,710 717,710 718,710 718,710 719,710 719,710 720,710 720,710 721,710 721,710 722,710 723,710 723,710 724,710 724,710 725,710 725,709 726,709 726,709 727,709 727,709 728,709 728,709 729,709 729,708 730,708 730,708 731,708 731,708 732,708 732,708 733,708 734,707 734,707 735,707 735,707 736,707 736,707 737,707 737,707 738,707 738,705 739,705 739,705 740,703 740,703 741,703 741,703 742,703 742,703 743,703 743,703 744,703 745,703 745,703 746,703 746,703 747,703 747,703 748,703 748,702 749,702 750,702 750,702 751,702 751,702 752,702 752,702 753,702 753,702 754,702 754,702 755,702 755,702 756,702 757,702 757,702 758,701 758,701 759,701 759,701 759,701 760,701 760,701 761,701 761,701 762,701 762,701 763,701 763,701 764,701 764,701 765,701 765,701 766,701 766,701 767,701 768,700 768,700 769,700 769,700 770,700 770,700 771,700 771,700 772,700 772,699 773,699 773,699 774,699 774,699 775,699 775,699 776,699 776,699 777,699 777,699 778,699 778,698 779,698 780,699 780,699 781,699 781,699 782,699 782,699 783,699 783,698 784,698 784,697 785,697 785,697 786,697 786,697 787,697 787,697 788,697 788,697 789,697 789,697 790,697 791,697 791,697 792,697 792,697 793,697 793,697 794,697 794,697 795,697 795,697 796,697 796,697 797,697 797,697 798,697 798,697 799,697 799,697 800,697 800,697 801,697 802,697 802,697 803,697 803,697 804,697 804,697 805,697 805,697 806,697 806,697 807,697 807,697 808,697 809,697 809,697 810,697 810,697 811,696 811,696 812,696 812,695 813,695 814,695 814,693 815,693 815,693 816,692 816,692 817,692 817,690 818,689 818,688 819,688 819,688 820,688 820,688 821,688 821,688 822,688 822,687 823,687 823,686 824,686 825,686 825,686 826,685 826,685 827,685 827,685 828,685 828,685 829,685 829,684 830,684 830,684 831,684 831,684 832,684 832,684 833,682 833,682 834,682 834,682 835,682 835,684 836,684 837,684 837,684 838,684 838,684 839,684 839,684 840,684 840,684 841,684 841,684 842,684 842,684 843,684 843,684 844,684 844,684 845,682 845,682 846,682 846,681 847,681 848,681 848,681 849,681 849,679 850,679 850,679 851,679 851,679 852,679 852,679 853,679 853,679 854,679 854,679 855,679 855,679 856,679 856,679 857,679 857,679 858,679 859,679 859,679 860,679 860,679 861,679 861,679 862,679 862,679 863,679 863,679 864,679 864,679 865,679 865,679 866,679 866,679 867,679 867,679 868,678 868,678 869,678 869,678 870,678 871,677 871,677 872,677 872,676 873,676 873,675 874,674 874,674 875,674 875,673 876,673 876,673 877,673 877,671 878,670 878,670 879,670 879,670 880,670 880,669 882,669 882,669 883,669 883,669 884,669 884,669 885,669 885,669 886,669 886,669 887,669 887,668 888,668 888,668 889,668 889,668 890,668 890,668 891,668 891,668 892,668 892,667 893,667 894,667 894,667 895,667 895,666 896,666 896,666 897,666 897,666 898,664 898,664 899,664 899,665 900,665 900,665 901,665 901,665 902,665 902,665 903,665 903,665 904,665 905,665 905,665 906,665 906,665 907,665 907,665 908,665 908,665 909,664 909,663 910,661 910,661 911,661 911,661 912,659 912,659 913,659 913,659 914,659 914,659 915,659 915,659 916,659 917,659 917,659 918,659 918,658 919,658 919,657 920,657 920,657 921,657 921,657 922,657 922,657 923,657 923,657 924,657 924,657 925,657 925,657 926,657 926,656 927,656 928,656 928,656 929,657 929,657 930,657 930,657 931,657 931,657 932,657 932,657 933,657 933,657 934,657 934,657 935,657 935,657 936,657 936,657 937,657 937,657 938,656 939,656 939,656 940,656 940,656 941,656 941,656 942,654 942,654 943,654 943,654 944,653 944,653 945,653 945,653 946,652 946,652 947,652 947,652 948,652 948,652 949,651 949,650 950,650 951,650 951,650 952,650 952,650 953,650 953,650 954,650 954,650 955,650 955,650 956,650 956,650 957,650 957,650 958,650 958,650 959,650 959,648 960,648 960,647 961,647 961,647 962,646 962,645 963,645 963,645 964,645 964,645 965,644 965,644 966,644 966,644 967,644 967,644 968,643 968,643 969,643 969,643 970,643 970,643 971,643 971,643 972,641 972,641 973,641 974,641 974,641 975,640 975,640 976,640 976,640 977,640 977,640 978,640 978,640 979,640 979,640 980,640 980,640 981,639 981,639 982,639 982,636 983,636 983,636 984,636 985,636 985,635 986,635 986,635 987,635 987,635 988,635 988,635 989,635 989,635 990,635 990,635 991,635 991,635 992,635 992,635 993,634 993,634 994,634 994,634 995,634 996,634 996,634 997,634 997,634 998,634 998,634 999,634 999,634 1000,634 1000,634 1001,634 1001,634 1002,634 1002,634 1003,634 1003,634 1004,634 1004,634 1005,633 1005,633 1006,633 1006,633 1007,633 1008,633 1008,633 1009,632 1009,633 1010,633 1010,633 1011,633 1011,633 1012,632 1012,632 1013,632 1013,632 1014,632 1014,631 1015,631 1015,630 1016,630 1016,630 1017,630 1017,630 1018,630 1019,630 1019,629 1020,629 1020,629 1021,629 1021,628 1022,628 1022,628 1023,628 1023,628 1024,628 1024,628 1025,628 1025,628 1026,628 1026,628 1027,628 1027,628 1028,627 1028,627 1029,625 1029,625 1030,625 1031,627 1031,627 1032,627 1032,627 1033,627 1033,625 1034,625 1034,625 1035,625 1035,624 1035,624 1035,622 1036,622 1036,622 1036,622 1037,622 1037,621 1037,621 1038,621 1038,621 1038,621 1038,621 1039,621 1039,621 1039,621 1039,621 1040,621 1040,621 1040,621 1040,621 1041,621 1041,620 1042,620 1042,620 1042,620 1042,620 1043,620 1043,620 1043,620 1044,620 1044,619 1044,619 1045,619 1045,619 1045,619 1045,619 1046,619 1046,619 1046,619 1046,619 1047,619 1047,619 1047,619 1047,619 1048,619 1048,619 1048,618 1049,618 1049,618 1049,618 1049,618 1050,618 1050,618 1050,618 1050,618 1051,618 1051,618 1051,618 1051,618 1052,618 1052,617 1052,617 1052,617 1053,617 1054,617 1054,617 1054,617 1054,617 1055,617 1055,617 1055,617 1055,616 1056,616 1056,616 1056,616 1056,616 1057,616 1057,616 1057,616 1057,616 1058,616 1058,616 1058,616 1058,616 1059,616 1059,617 1059,617 1060,617 1060,617 1060,614 1061,614 1061,612 1061,612 1061,612 1062,612 1062,612 1062,612 1062,611 1063,611 1063,611 1063,611 1063,611 1064,611 1064,612 1065,612 1065,612 1065,611 1066,611 1066,611 1066,611 1066,611 1067,611 1067,611 1067,611 1067,611 1068,611 1068,611 1068,611 1069,611 1069,611 1069,611 1069,611 1070,611 1070,611 1070,611 1070,610 1071,610 1071,609 1071,609 1071,609 1072,609 1072,608 1072,608 1072,607 1073,607 1073,607 1073,607 1073,606 1074,606 1074,606 1074,606 1074,606 1075,606 1075,606 1076,606 1076,606 1076,606 1076,606 1077,606 1077,604 1077,604 1077,604 1078,604 1078,604 1078,604 1079,604 1079,604 1079,604 1079,604 1080,604 1080,602 1080,602 1080,602 1081,602 1081,600 1081,600 1081,600 1082,600 1082,600 1082,600 1082,600 1083,600 1083,600 1083,600 1084,600 1084,600 1084,600 1084,599 1085,599 1085,599 1085,599 1085,599 1086,599 1086,599 1086,599 1087,598 1088,598 1088,598 1088,598 1089,598 1089,598 1089,598 1089,597 1090,597 1090,597 1090,597 1090,597 1091,597 1091,597 1091,597 1091,596 1092,596 1092,596 1092,596 1092,596 1093,596 1093,595 1093,595 1093,595 1094,595 1094,595 1094,594 1095,594 1095,594 1095,594 1095,594 1096,594 1096,593 1096,593 1096,593 1097,593 1097,593 1097,593 1097,593 1098,593 1098,591 1099,591 1099,591 1099,591 1099,591 1100,591 1100,590 1100,590 1100,590 1101,590 1101,589 1101,589 1101,589 1102,589 1102,589 1102,589 1103,589 1103,589 1103,589 1103,588 1104,588 1104,588 1104,588 1104,588 1105,588 1105,588 1105,588 1105,588 1106,588 1106,588 1106,588 1107,588 1107,587 1107,587 1107,587 1108,587 1108,587 1108,587 1108,587 1109,587 1109,587 1109,587 1109,587 1110,587 1110,587 1111,587 1111,587 1111,587 1111,586 1112,586 1112,587 1112,587 1112,587 1113,587 1113,585 1113,585 1113,585 1114,585 1114,586 1114,586 1114,586 1115,586 1115,586 1115,586 1115,586 1116,586 1116,586 1116,586 1117,586 1117,586 1117,586 1117,586 1118,586 1118,586 1118,586 1118,586 1119,586 1119,586 1119,586 1119,586 1120,586 1120,586 1120,586 1120,586 1121,586 1121,585 1122,585 1122,585 1122,585 1122,585 1123,585 1123,585 1123,585 1123,585 1124,585 1124,585 1124,585 1124,585 1125,585 1125,584 1125,584 1125,584 1126,584 1126,583 1126,583 1126,583 1127,583 1127,583 1127,583 1127,582 1128,582 1128,582 1128,582 1128,579 1129,579 1129,579 1129,579 1129,579 1130,579 1130,579 1130,579 1130,578 1131,577 1131,577 1131,577 1132,577 1132,577 1133,577 1133,577 1133,577 1134,577 1134,577 1134,577 1134,577 1135,577 1135,577 1135,577 1135,577 1136,577 1136,577 1136,577 1136,577 1137,577 1137,577 1137,577 1137,577 1138,577 1138,575 1138,575 1139,575 1139,575 1139,575 1139,575 1140,575 1140,576 1140,576 1140,576 1141,576 1141,576 1141,576 1141,576 1142,576 1142,575 1142,575 1142,574 1143,574 1143,574 1143,574 1143,574 1144,574 1144,574 1145,574 1145,574 1145,574 1145,574 1146,574 1146,574 1146,574 1146,574 1147,574 1147,574 1147,574 1147,574 1148,574 1148,574 1148,574 1148,574 1149,574 1149,574 1149,574 1149,574 1150,574 1150,574 1150,574 1150,574 1151,574 1151,574 1151,574 1151,574 1152,574 1152,574 1152,574 1152,576 1153,576 1153,576 1153,576 1153,576 1154,576 1154,576 1154,576 1154,574 1155,574 1155,574 1156,574 1156,575 1156,575 1156,575 1157,575 1157,575 1157,575 1157,574 1158,574 1158,574 1158,574 1158,573 1159,573 1159,572 1159,572 1159,572 1160,572 1160,572 1160,572 1160,572 1161,572 1161,572 1161,572 1161,572 1162,572 1162,571 1162,571 1162,571 1163,568 1163,568 1163,568 1164,568 1164,567 1164,567 1164,567 1165,567 1165,567 1165,567 1165,567 1166,567 1166,567 1166,567 1166,567 1167,567 1167,567 1168,567 1168,566 1168,566 1168,566 1169,566 1169,565 1169,565 1169,565 1170,565 1170,564 1170,564 1170,564 1171,564 1171,564 1171,564 1171,564 1172,564 1172,564 1172,564 1172,564 1173,564 1173,564 1173,564 1174,564 1174,564 1174,564 1174,564 1175,564 1175,564 1175,564 1175,564 1176,564 1176,564 1176,564 1177,564 1177,564 1177,564 1177,564 1178,564 1178,564 1179,564 1179,564 1179,564 1179,564 1180,564 1180,564 1180,564 1180,562 1181,562 1181,562 1181,562 1181,562 1182,562 1182,562 1182,562 1182,561 1183,561 1183,560 1183,560 1183,559 1184,559 1184,557 1184,557 1184,559 1185,559 1185,557 1185,557 1185,557 1186,557 1186,557 1186,557 1186,557 1187,557 1187,557 1187,557 1187,557 1188,557 1188,557 1188,557 1188,557 1189,557 1189,557 1190,557 "/>
<polyline fill="none" opacity="1" stroke="#E519E6" stroke-width="2" points="344,738 369,737 385,736 390,735 399,734 399,733 400,732 406,731 407,730 420,730 422,729 427,727 430,726 433,726 440,725 444,726 446,726 447,726 449,726 450,725 450,725 451,725 451,725 452,725 453,725 454,725 457,725 458,725 458,725 459,725 460,724 462,723 464,723 465,723 466,723 467,723 468,723 468,722 469,722 469,722 480,721 482,721 483,721 484,721 485,721 485,720 486,720 486,720 488,720 489,720 489,720 490,720 490,719 491,719 491,719 492,719 493,719 494,719 496,718 497,718 498,716 498,716 499,716 503,716 503,716 505,715 508,714 509,714 509,714 511,714 512,714 513,714 514,714 514,714 515,714 516,714 518,714 519,714 520,714 521,714 522,714 525,714 526,714 526,714 528,714 529,714 530,713 531,713 532,713 533,713 534,713 534,713 535,713 540,713 540,713 541,712 541,712 542,712 543,712 544,712 545,712 546,712 547,712 547,712 548,712 548,712 550,712 551,711 553,711 554,711 555,711 555,711 557,711 557,711 558,711 558,710 559,710 559,710 560,710 561,710 561,710 562,709 563,709 565,709 566,708 566,708 567,707 567,707 568,707 569,707 569,707 570,707 570,705 571,704 571,704 572,704 572,704 573,704 574,704 574,704 575,704 575,704 576,704 576,704 577,704 577,704 578,704 578,704 579,704 579,704 580,704 580,704 581,704 581,704 582,704 583,704 583,704 584,704 584,704 585,704 586,704 586,704 587,704 587,704 588,704 588,704 589,704 589,704 590,703 590,703 591,703 591,703 592,703 592,703 593,703 593,703 594,703 594,703 595,703 595,703 596,703 597,703 597,702 598,702 598,702 599,702 599,702 600,701 600,701 601,701 601,701 602,701 602,701 603,701 603,701 604,701 604,701 605,701 605,700 606,700 606,700 607,700 608,700 608,700 609,700 609,700 610,700 610,700 611,700 611,700 612,700 612,700 613,700 613,700 614,700 614,698 615,698 615,698 616,698 616,697 617,695 617,695 618,695 618,695 619,695 620,693 620,693 621,693 621,693 622,693 622,693 623,693 623,693 624,693 624,693 625,693 625,693 626,692 626,692 627,692 627,692 628,692 628,690 629,690 629,690 630,690 631,690 631,690 632,690 632,689 633,689 633,689 634,689 634,689 635,689 635,688 636,689 636,689 637,689 637,689 638,689 638,689 639,689 639,689 640,689 640,690 641,690 641,690 642,690 643,690 643,690 644,690 644,690 645,690 645,690 646,690 646,690 647,690 647,690 648,690 648,690 649,688 649,688 650,688 650,688 651,688 651,688 652,688 652,688 653,688 654,688 654,688 655,688 655,688 656,688 656,687 657,687 657,687 658,687 658,687 659,687 659,687 660,687 660,687 661,687 661,687 662,686 662,686 663,686 663,686 664,686 665,686 665,685 666,685 666,685 667,685 667,685 668,685 668,685 669,685 669,685 670,685 670,685 671,686 671,686 672,686 672,686 673,686 673,686 674,686 674,686 675,686 675,686 676,687 677,687 677,687 678,687 678,687 679,687 679,687 680,687 680,687 681,687 681,687 682,687 682,687 683,687 683,687 684,686 684,686 685,686 685,686 686,685 686,685 687,685 688,685 688,685 689,685 689,685 690,685 690,685 691,685 691,684 692,684 692,684 693,684 693,684 694,684 694,682 695,681 695,681 696,681 696,681 697,681 697,681 698,681 698,681 699,680 700,680 700,679 701,679 701,680 702,680 702,680 703,680 703,680 704,680 704,679 705,679 705,679 706,679 706,679 707,679 707,679 708,679 708,679 709,679 709,679 710,679 711,679 711,679 712,679 712,679 713,679 713,679 714,679 714,679 715,679 715,679 716,680 716,680 717,680 717,680 718,680 718,680 719,680 719,680 720,680 720,680 721,680 721,680 722,680 723,680 723,680 724,680 724,680 725,680 725,680 726,680 726,680 727,679 728,679 728,679 729,679 729,679 730,679 730,679 731,679 731,678 732,678 732,678 733,678 734,678 734,678 735,678 735,678 736,678 736,678 737,678 737,678 738,678 738,678 739,678 739,678 740,678 740,678 741,677 741,677 742,677 742,677 743,677 743,677 744,677 745,677 745,677 746,677 746,677 747,677 747,677 748,676 748,676 749,676 749,676 750,676 750,676 751,676 751,676 752,676 752,676 753,676 753,676 754,676 754,675 755,675 755,674 756,674 757,674 757,673 758,671 758,671 759,671 759,671 759,671 760,671 760,671 761,671 761,670 762,670 762,670 763,670 763,670 764,670 764,670 765,670 765,670 766,670 766,670 767,670 768,670 768,670 769,670 769,669 770,669 770,669 771,669 771,669 772,669 772,669 773,669 773,669 774,668 774,668 775,668 775,668 776,668 776,669 777,669 777,669 778,669 778,669 779,669 780,669 780,669 781,669 781,669 782,669 782,669 783,669 783,669 784,669 784,669 785,669 785,669 786,669 786,669 787,669 787,669 788,669 788,669 789,669 789,669 790,669 791,669 791,669 792,669 792,669 793,669 793,669 794,669 794,669 795,669 795,669 796,668 796,668 797,667 797,667 798,667 798,666 799,666 799,666 800,666 800,666 801,666 802,665 802,665 803,665 803,664 804,664 804,664 805,664 805,664 806,664 806,664 807,664 807,664 808,664 808,664 809,663 809,664 810,663 810,663 811,663 811,663 812,662 812,662 813,659 814,659 814,659 815,659 815,659 816,659 816,659 817,659 817,659 818,659 818,659 819,659 819,659 820,659 820,659 821,658 821,658 822,658 822,658 823,658 823,658 824,658 825,657 825,657 826,657 826,656 827,656 827,655 828,655 828,655 829,655 829,655 830,654 830,654 831,654 831,654 832,654 832,654 833,654 833,654 834,654 834,654 835,654 835,654 836,653 837,651 837,651 838,651 838,648 839,648 839,648 840,648 840,648 841,648 841,647 842,646 842,645 843,645 843,645 844,643 844,644 845,644 845,644 846,643 846,643 847,642 848,642 848,642 849,642 849,642 850,642 850,642 851,642 851,642 852,642 852,642 853,641 853,641 854,640 854,639 855,638 855,638 856,638 856,635 857,635 857,635 858,635 859,635 859,635 860,636 860,635 861,635 861,635 862,635 862,635 863,635 863,635 864,635 864,635 865,635 865,634 866,634 866,634 867,634 867,634 868,634 868,634 869,634 869,634 870,634 871,634 871,634 872,634 872,634 873,634 873,634 874,634 874,634 875,634 875,634 876,634 876,634 877,634 877,634 878,634 878,633 879,632 879,632 880,631 880,631 881,631 882,631 882,630 883,630 883,630 884,630 884,630 885,630 885,630 886,630 886,630 887,629 887,629 888,629 888,629 889,628 889,628 890,627 890,627 891,627 891,627 892,627 892,627 893,625 894,625 894,624 895,624 895,624 896,624 896,624 897,624 897,624 898,624 898,624 899,625 899,625 900,625 900,625 901,625 901,625 902,625 902,625 903,625 903,625 904,625 905,623 905,623 906,622 906,622 907,622 907,622 908,622 908,622 909,622 909,622 910,623 910,622 911,622 911,622 912,622 912,621 913,621 913,621 914,621 914,621 915,621 915,620 916,620 917,620 917,619 918,619 918,619 919,619 919,619 920,619 920,619 921,619 921,619 922,619 922,619 923,619 923,619 924,618 925,618 925,618 926,618 926,618 927,618 928,618 928,617 929,617 930,617 930,617 931,617 932,617 932,617 933,616 933,616 934,616 934,616 935,614 935,614 936,614 937,613 937,613 938,612 939,611 939,611 940,611 940,611 941,610 941,610 942,610 942,610 943,610 943,610 944,610 944,610 945,610 945,609 946,609 946,609 947,609 947,609 948,609 948,609 949,608 949,608 950,608 951,608 951,608 952,606 952,606 953,606 953,606 954,606 954,606 955,605 955,604 956,604 956,604 957,602 957,601 958,601 958,601 959,600 959,598 960,598 960,598 961,598 961,597 962,596 962,596 963,596 964,595 964,595 965,595 965,591 966,591 966,590 967,590 967,590 968,590 968,590 969,590 969,590 970,590 970,589 971,589 971,588 972,588 972,588 973,587 974,587 974,587 975,587 975,585 976,585 976,583 977,583 977,582 978,580 978,579 979,579 979,579 980,579 980,577 981,577 981,577 982,577 982,576 983,576 983,575 984,575 985,575 985,575 986,575 986,575 987,575 987,575 988,575 988,575 989,575 989,575 990,575 990,574 991,573 991,573 992,573 992,571 993,570 993,567 994,566 994,565 995,565 996,564 996,565 997,562 997,562 998,562 998,562 999,562 1000,560 1000,559 1001,559 1001,559 1002,559 1002,559 1003,557 1003,557 1004,557 1004,556 1005,556 1005,556 1006,556 1006,556 1007,556 1008,554 1008,554 1009,553 1009,552 1010,552 1010,551 1011,551 1011,551 1012,552 1012,553 1013,552 1013,550 1014,551 1014,551 1015,551 1015,551 1016,551 1016,550 1017,550 1017,550 1018,550 1019,548 1019,548 1020,544 1020,544 1021,544 1021,545 1022,545 1022,545 1023,545 1023,545 1024,545 1024,545 1025,542 1025,542 1026,542 1026,542 1027,542 1027,541 1028,541 1028,541 1029,541 1029,541 1030,540 1031,540 1031,539 1032,539 1032,539 1033,539 1033,540 1034,540 1034,540 1035,540 1035,540 1035,540 1035,540 1036,540 1036,539 1036,539 1037,539 1037,539 1037,539 1038,539 1038,539 1038,539 1038,539 1039,539 1039,539 1039,539 1039,537 1040,537 1040,537 1040,537 1040,534 1041,534 1041,534 1042,534 1042,534 1042,534 1042,534 1043,534 1043,534 1043,534 1044,534 1044,534 1044,534 1045,534 1045,534 1045,534 1045,533 1046,533 1046,532 1046,532 1046,532 1047,532 1047,532 1047,532 1047,532 1048,530 1048,530 1048,530 1049,530 1049,530 1049,530 1049,528 1050,528 1050,527 1050,527 1050,528 1051,528 1051,528 1051,528 1051,528 1052,528 1052,528 1052,528 1052,528 1053,528 1054,528 1054,528 1054,528 1054,527 1055,527 1055,528 1055,528 1055,529 1056,529 1056,528 1056,528 1056,528 1057,528 1057,528 1057,528 1057,528 1058,528 1058,526 1058,526 1058,526 1059,526 1059,526 1059,526 1060,525 1060,525 1060,525 1061,525 1061,525 1061,525 1061,525 1062,525 1062,525 1062,525 1062,523 1063,523 1063,523 1063,523 1063,522 1064,522 1064,522 1065,522 1065,522 1065,522 1066,521 1066,520 1066,520 1066,520 1067,520 1067,520 1067,520 1067,520 1068,520 1068,519 1068,519 1069,519 1069,519 1069,519 1069,517 1070,517 1070,516 1070,516 1070,516 1071,516 1071,516 1071,516 1071,516 1072,516 1072,516 1072,516 1072,516 1073,516 1073,516 1073,516 1073,516 1074,516 1074,515 1074,515 1074,515 1075,515 1075,515 1076,515 1076,516 1076,516 1076,514 1077,514 1077,512 1077,512 1077,512 1078,512 1078,512 1078,512 1079,512 1079,510 1079,510 1079,510 1080,510 1080,509 1080,509 1080,509 1081,509 1081,509 1081,509 1081,509 1082,509 1082,510 1082,510 1082,510 1083,510 1083,510 1083,510 1084,510 1084,509 1084,509 1084,509 1085,509 1085,509 1085,509 1085,509 1086,509 1086,509 1087,509 1088,509 1088,508 1088,508 1089,508 1089,507 1089,507 1089,507 1090,507 1090,506 1090,506 1090,506 1091,506 1091,505 1091,505 1091,506 1092,506 1092,506 1092,506 1092,506 1093,506 1093,506 1093,506 1093,506 1094,506 1094,506 1094,506 1095,506 1095,506 1095,506 1095,507 1096,507 1096,507 1096,507 1096,506 1097,506 1097,508 1097,508 1097,508 1098,508 1098,508 1099,508 1099,509 1099,509 1099,509 1100,509 1100,509 1100,509 1100,508 1101,508 1101,508 1101,508 1101,508 1102,507 1102,507 1103,507 1103,507 1103,507 1103,507 1104,507 1104,507 1104,507 1104,507 1105,507 1105,507 1105,507 1105,507 1106,507 1106,507 1106,506 1107,506 1107,506 1107,506 1107,506 1108,506 1108,506 1108,506 1108,505 1109,505 1109,505 1109,505 1109,505 1110,505 1110,505 1111,505 1111,505 1111,504 1112,504 1112,505 1112,505 1112,505 1113,505 1113,505 1113,505 1114,505 1114,505 1114,505 1114,504 1115,504 1115,504 1115,504 1115,503 1116,503 1116,500 1116,499 1117,499 1117,498 1117,498 1117,498 1118,498 1118,498 1118,498 1118,498 1119,498 1119,498 1119,498 1120,498 1120,496 1120,496 1121,496 1121,496 1122,496 1122,495 1122,495 1122,495 1123,495 1123,495 1123,495 1124,495 1124,495 1124,495 1124,494 1125,494 1125,494 1125,494 1125,494 1126,494 1126,493 1126,493 1126,493 1127,493 1127,493 1127,493 1127,493 1128,493 1128,492 1128,492 1128,492 1129,492 1129,491 1129,491 1129,491 1130,491 1130,491 1130,491 1130,491 1131,491 1131,491 1131,491 1132,491 1132,491 1133,491 1133,491 1133,489 1134,489 1134,489 1134,489 1134,488 1135,488 1135,488 1135,488 1135,488 1136,488 1136,487 1136,487 1136,485 1137,485 1137,485 1137,485 1137,485 1138,485 1138,485 1138,485 1139,485 1139,485 1139,485 1139,485 1140,485 1140,486 1140,486 1140,487 1141,487 1141,487 1141,487 1141,487 1142,487 1142,487 1142,487 1142,487 1143,487 1143,487 1143,487 1144,487 1144,487 1145,487 1145,486 1145,486 1145,486 1146,486 1146,486 1146,486 1146,486 1147,486 1147,486 1147,486 1147,486 1148,486 1148,486 1148,486 1148,485 1149,485 1149,485 1149,485 1149,485 1150,485 1150,485 1150,485 1150,484 1151,484 1151,484 1151,484 1151,484 1152,484 1152,483 1152,483 1152,483 1153,483 1153,483 1153,483 1153,484 1154,484 1154,483 1154,483 1154,483 1155,483 1155,484 1156,484 1156,484 1156,484 1156,484 1157,484 1157,484 1157,484 1157,482 1158,482 1158,481 1158,481 1158,481 1159,481 1159,481 1159,481 1159,481 1160,481 1160,480 1160,480 1160,480 1161,480 1161,480 1161,480 1161,480 1162,480 1162,480 1162,480 1162,480 1163,480 1163,480 1163,480 1164,480 1164,480 1164,480 1164,478 1165,478 1165,478 1165,478 1165,476 1166,476 1166,476 1166,476 1166,474 1167,474 1167,474 1168,474 1168,474 1168,474 1168,473 1169,473 1169,472 1169,472 1169,472 1170,472 1170,471 1170,471 1170,471 1171,471 1171,471 1171,470 1172,470 1172,468 1172,468 1172,468 1173,468 1173,468 1173,468 1174,468 1174,468 1174,468 1174,468 1175,468 1175,468 1175,468 1176,468 1176,466 1176,466 1176,466 1177,466 1177,466 1177,466 1177,466 1178,466 1178,465 1179,465 1179,465 1179,465 1179,465 1180,465 1180,465 1180,465 1180,465 1181,465 1181,465 1181,465 1181,465 1182,465 1182,465 1182,465 1182,465 1183,465 1183,465 1183,465 1183,465 1184,465 1184,465 1184,465 1184,465 1185,465 1185,465 1185,465 1185,465 1186,465 1186,465 1186,465 1186,465 1187,465 1187,465 1187,465 1187,465 1188,465 1188,465 1188,465 1188,465 1189,465 1189,464 1190,464 "/>
<rect x="65" y="323" width="100" height="104" opacity="1" fill="#FFFFFF" stroke="none"/>
<rect x="65" y="323" width="100" height="104" opacity="1" fill="none" stroke="#000000"/>
<text x="105" y="333" dy="0.76em" text-anchor="start" font-family="sans-serif" font-size="9.67741935483871" opacity="1" fill="#000000">
ansi_term
</text>
<text x="105" y="348" dy="0.76em" text-anchor="start" font-family="sans-serif" font-size="9.67741935483871" opacity="1" fill="#000000">
colored
</text>
<text x="105" y="363" dy="0.76em" text-anchor="start" font-family="sans-serif" font-size="9.67741935483871" opacity="1" fill="#000000">
console
</text>
<text x="105" y="378" dy="0.76em" text-anchor="start" font-family="sans-serif" font-size="9.67741935483871" opacity="1" fill="#000000">
term
</text>
<text x="105" y="393" dy="0.76em" text-anchor="start" font-family="sans-serif" font-size="9.67741935483871" opacity="1" fill="#000000">
termcolor
</text>
<text x="105" y="408" dy="0.76em" text-anchor="start" font-family="sans-serif" font-size="9.67741935483871" opacity="1" fill="#000000">
termion
</text>
<polyline fill="none" opacity="1" stroke="#E61919" stroke-width="2" points="75,338 95,338 "/>
<polyline fill="none" opacity="1" stroke="#E5E619" stroke-width="2" points="75,352 95,352 "/>
<polyline fill="none" opacity="1" stroke="#19E619" stroke-width="2" points="75,367 95,367 "/>
<polyline fill="none" opacity="1" stroke="#19E5E6" stroke-width="2" points="75,382 95,382 "/>
<polyline fill="none" opacity="1" stroke="#1919E6" stroke-width="2" points="75,397 95,397 "/>
<polyline fill="none" opacity="1" stroke="#E519E6" stroke-width="2" points="75,412 95,412 "/>
</svg>
