<svg width="1200" height="800" xmlns="http://www.w3.org/2000/svg">
<rect x="0" y="0" width="1199" height="799" opacity="1" fill="#FFFFFF" stroke="none"/>
<line opacity="0.1" stroke="#000000" stroke-width="1" x1="60" y1="730" x2="1190" y2="730"/>
<line opacity="0.1" stroke="#000000" stroke-width="1" x1="60" y1="720" x2="1190" y2="720"/>
<line opacity="0.1" stroke="#000000" stroke-width="1" x1="60" y1="710" x2="1190" y2="710"/>
<line opacity="0.1" stroke="#000000" stroke-width="1" x1="60" y1="700" x2="1190" y2="700"/>
<line opacity="0.1" stroke="#000000" stroke-width="1" x1="60" y1="690" x2="1190" y2="690"/>
<line opacity="0.1" stroke="#000000" stroke-width="1" x1="60" y1="680" x2="1190" y2="680"/>
<line opacity="0.1" stroke="#000000" stroke-width="1" x1="60" y1="670" x2="1190" y2="670"/>
<line opacity="0.1" stroke="#000000" stroke-width="1" x1="60" y1="660" x2="1190" y2="660"/>
<line opacity="0.1" stroke="#000000" stroke-width="1" x1="60" y1="650" x2="1190" y2="650"/>
<line opacity="0.1" stroke="#000000" stroke-width="1" x1="60" y1="640" x2="1190" y2="640"/>
<line opacity="0.1" stroke="#000000" stroke-width="1" x1="60" y1="630" x2="1190" y2="630"/>
<line opacity="0.1" stroke="#000000" stroke-width="1" x1="60" y1="620" x2="1190" y2="620"/>
<line opacity="0.1" stroke="#000000" stroke-width="1" x1="60" y1="610" x2="1190" y2="610"/>
<line opacity="0.1" stroke="#000000" stroke-width="1" x1="60" y1="600" x2="1190" y2="600"/>
<line opacity="0.1" stroke="#000000" stroke-width="1" x1="60" y1="590" x2="1190" y2="590"/>
<line opacity="0.1" stroke="#000000" stroke-width="1" x1="60" y1="580" x2="1190" y2="580"/>
<line opacity="0.1" stroke="#000000" stroke-width="1" x1="60" y1="570" x2="1190" y2="570"/>
<line opacity="0.1" stroke="#000000" stroke-width="1" x1="60" y1="560" x2="1190" y2="560"/>
<line opacity="0.1" stroke="#000000" stroke-width="1" x1="60" y1="551" x2="1190" y2="551"/>
<line opacity="0.1" stroke="#000000" stroke-width="1" x1="60" y1="541" x2="1190" y2="541"/>
<line opacity="0.1" stroke="#000000" stroke-width="1" x1="60" y1="531" x2="1190" y2="531"/>
<line opacity="0.1" stroke="#000000" stroke-width="1" x1="60" y1="521" x2="1190" y2="521"/>
<line opacity="0.1" stroke="#000000" stroke-width="1" x1="60" y1="511" x2="1190" y2="511"/>
<line opacity="0.1" stroke="#000000" stroke-width="1" x1="60" y1="501" x2="1190" y2="501"/>
<line opacity="0.1" stroke="#000000" stroke-width="1" x1="60" y1="491" x2="1190" y2="491"/>
<line opacity="0.1" stroke="#000000" stroke-width="1" x1="60" y1="481" x2="1190" y2="481"/>
<line opacity="0.1" stroke="#000000" stroke-width="1" x1="60" y1="471" x2="1190" y2="471"/>
<line opacity="0.1" stroke="#000000" stroke-width="1" x1="60" y1="461" x2="1190" y2="461"/>
<line opacity="0.1" stroke="#000000" stroke-width="1" x1="60" y1="451" x2="1190" y2="451"/>
<line opacity="0.1" stroke="#000000" stroke-width="1" x1="60" y1="441" x2="1190" y2="441"/>
<line opacity="0.1" stroke="#000000" stroke-width="1" x1="60" y1="431" x2="1190" y2="431"/>
<line opacity="0.1" stroke="#000000" stroke-width="1" x1="60" y1="421" x2="1190" y2="421"/>
<line opacity="0.1" stroke="#000000" stroke-width="1" x1="60" y1="411" x2="1190" y2="411"/>
<line opacity="0.1" stroke="#000000" stroke-width="1" x1="60" y1="401" x2="1190" y2="401"/>
<line opacity="0.1" stroke="#000000" stroke-width="1" x1="60" y1="391" x2="1190" y2="391"/>
<line opacity="0.1" stroke="#000000" stroke-width="1" x1="60" y1="381" x2="1190" y2="381"/>
<line opacity="0.1" stroke="#000000" stroke-width="1" x1="60" y1="371" x2="1190" y2="371"/>
<line opacity="0.1" stroke="#000000" stroke-width="1" x1="60" y1="361" x2="1190" y2="361"/>
<line opacity="0.1" stroke="#000000" stroke-width="1" x1="60" y1="351" x2="1190" y2="351"/>
<line opacity="0.1" stroke="#000000" stroke-width="1" x1="60" y1="341" x2="1190" y2="341"/>
<line opacity="0.1" stroke="#000000" stroke-width="1" x1="60" y1="331" x2="1190" y2="331"/>
<line opacity="0.1" stroke="#000000" stroke-width="1" x1="60" y1="321" x2="1190" y2="321"/>
<line opacity="0.1" stroke="#000000" stroke-width="1" x1="60" y1="311" x2="1190" y2="311"/>
<line opacity="0.1" stroke="#000000" stroke-width="1" x1="60" y1="301" x2="1190" y2="301"/>
<line opacity="0.1" stroke="#000000" stroke-width="1" x1="60" y1="291" x2="1190" y2="291"/>
<line opacity="0.1" stroke="#000000" stroke-width="1" x1="60" y1="281" x2="1190" y2="281"/>
<line opacity="0.1" stroke="#000000" stroke-width="1" x1="60" y1="271" x2="1190" y2="271"/>
<line opacity="0.1" stroke="#000000" stroke-width="1" x1="60" y1="261" x2="1190" y2="261"/>
<line opacity="0.1" stroke="#000000" stroke-width="1" x1="60" y1="251" x2="1190" y2="251"/>
<line opacity="0.1" stroke="#000000" stroke-width="1" x1="60" y1="241" x2="1190" y2="241"/>
<line opacity="0.1" stroke="#000000" stroke-width="1" x1="60" y1="231" x2="1190" y2="231"/>
<line opacity="0.1" stroke="#000000" stroke-width="1" x1="60" y1="221" x2="1190" y2="221"/>
<line opacity="0.1" stroke="#000000" stroke-width="1" x1="60" y1="211" x2="1190" y2="211"/>
<line opacity="0.1" stroke="#000000" stroke-width="1" x1="60" y1="201" x2="1190" y2="201"/>
<line opacity="0.1" stroke="#000000" stroke-width="1" x1="60" y1="191" x2="1190" y2="191"/>
<line opacity="0.1" stroke="#000000" stroke-width="1" x1="60" y1="181" x2="1190" y2="181"/>
<line opacity="0.1" stroke="#000000" stroke-width="1" x1="60" y1="171" x2="1190" y2="171"/>
<line opacity="0.1" stroke="#000000" stroke-width="1" x1="60" y1="161" x2="1190" y2="161"/>
<line opacity="0.1" stroke="#000000" stroke-width="1" x1="60" y1="151" x2="1190" y2="151"/>
<line opacity="0.1" stroke="#000000" stroke-width="1" x1="60" y1="141" x2="1190" y2="141"/>
<line opacity="0.1" stroke="#000000" stroke-width="1" x1="60" y1="131" x2="1190" y2="131"/>
<line opacity="0.1" stroke="#000000" stroke-width="1" x1="60" y1="121" x2="1190" y2="121"/>
<line opacity="0.1" stroke="#000000" stroke-width="1" x1="60" y1="111" x2="1190" y2="111"/>
<line opacity="0.1" stroke="#000000" stroke-width="1" x1="60" y1="101" x2="1190" y2="101"/>
<line opacity="0.1" stroke="#000000" stroke-width="1" x1="60" y1="91" x2="1190" y2="91"/>
<line opacity="0.1" stroke="#000000" stroke-width="1" x1="60" y1="81" x2="1190" y2="81"/>
<line opacity="0.1" stroke="#000000" stroke-width="1" x1="60" y1="71" x2="1190" y2="71"/>
<line opacity="0.1" stroke="#000000" stroke-width="1" x1="60" y1="61" x2="1190" y2="61"/>
<line opacity="0.1" stroke="#000000" stroke-width="1" x1="60" y1="51" x2="1190" y2="51"/>
<line opacity="0.1" stroke="#000000" stroke-width="1" x1="60" y1="41" x2="1190" y2="41"/>
<line opacity="0.1" stroke="#000000" stroke-width="1" x1="60" y1="31" x2="1190" y2="31"/>
<line opacity="0.1" stroke="#000000" stroke-width="1" x1="60" y1="21" x2="1190" y2="21"/>
<line opacity="0.1" stroke="#000000" stroke-width="1" x1="60" y1="11" x2="1190" y2="11"/>
<text x="10" y="375" dy="0.76em" text-anchor="middle" font-family="sans-serif" font-size="9.67741935483871" opacity="1" fill="#000000" transform="rotate(270, 10, 375)">
Number of dependent crates
</text>
<line opacity="0.2" stroke="#000000" stroke-width="1" x1="60" y1="640" x2="1190" y2="640"/>
<line opacity="0.2" stroke="#000000" stroke-width="1" x1="60" y1="541" x2="1190" y2="541"/>
<line opacity="0.2" stroke="#000000" stroke-width="1" x1="60" y1="441" x2="1190" y2="441"/>
<line opacity="0.2" stroke="#000000" stroke-width="1" x1="60" y1="341" x2="1190" y2="341"/>
<line opacity="0.2" stroke="#000000" stroke-width="1" x1="60" y1="241" x2="1190" y2="241"/>
<line opacity="0.2" stroke="#000000" stroke-width="1" x1="60" y1="141" x2="1190" y2="141"/>
<line opacity="0.2" stroke="#000000" stroke-width="1" x1="60" y1="41" x2="1190" y2="41"/>
<polyline fill="none" opacity="1" stroke="#000000" stroke-width="1" points="59,10 59,740 "/>
<text x="50" y="640" dy="0.5ex" text-anchor="end" font-family="sans-serif" font-size="9.67741935483871" opacity="1" fill="#000000">
50
</text>
<polyline fill="none" opacity="1" stroke="#000000" stroke-width="1" points="54,640 59,640 "/>
<text x="50" y="541" dy="0.5ex" text-anchor="end" font-family="sans-serif" font-size="9.67741935483871" opacity="1" fill="#000000">
100
</text>
<polyline fill="none" opacity="1" stroke="#000000" stroke-width="1" points="54,541 59,541 "/>
<text x="50" y="441" dy="0.5ex" text-anchor="end" font-family="sans-serif" font-size="9.67741935483871" opacity="1" fill="#000000">
150
</text>
<polyline fill="none" opacity="1" stroke="#000000" stroke-width="1" points="54,441 59,441 "/>
<text x="50" y="341" dy="0.5ex" text-anchor="end" font-family="sans-serif" font-size="9.67741935483871" opacity="1" fill="#000000">
200
</text>
<polyline fill="none" opacity="1" stroke="#000000" stroke-width="1" points="54,341 59,341 "/>
<text x="50" y="241" dy="0.5ex" text-anchor="end" font-family="sans-serif" font-size="9.67741935483871" opacity="1" fill="#000000">
250
</text>
<polyline fill="none" opacity="1" stroke="#000000" stroke-width="1" points="54,241 59,241 "/>
<text x="50" y="141" dy="0.5ex" text-anchor="end" font-family="sans-serif" font-size="9.67741935483871" opacity="1" fill="#000000">
300
</text>
<polyline fill="none" opacity="1" stroke="#000000" stroke-width="1" points="54,141 59,141 "/>
<text x="50" y="41" dy="0.5ex" text-anchor="end" font-family="sans-serif" font-size="9.67741935483871" opacity="1" fill="#000000">
350
</text>
<polyline fill="none" opacity="1" stroke="#000000" stroke-width="1" points="54,41 59,41 "/>
<polyline fill="none" opacity="1" stroke="#000000" stroke-width="1" points="60,740 1190,740 "/>
<text x="60" y="750" dy="0.76em" text-anchor="middle" font-family="sans-serif" font-size="9.67741935483871" opacity="1" fill="#000000">
2015-01-27Z
</text>
<polyline fill="none" opacity="1" stroke="#000000" stroke-width="1" points="60,740 60,745 "/>
<text x="176" y="750" dy="0.76em" text-anchor="middle" font-family="sans-serif" font-size="9.67741935483871" opacity="1" fill="#000000">
2015-08-04Z
</text>
<polyline fill="none" opacity="1" stroke="#000000" stroke-width="1" points="176,740 176,745 "/>
<text x="293" y="750" dy="0.76em" text-anchor="middle" font-family="sans-serif" font-size="9.67741935483871" opacity="1" fill="#000000">
2016-02-09Z
</text>
<polyline fill="none" opacity="1" stroke="#000000" stroke-width="1" points="293,740 293,745 "/>
<text x="409" y="750" dy="0.76em" text-anchor="middle" font-family="sans-serif" font-size="9.67741935483871" opacity="1" fill="#000000">
2016-08-16Z
</text>
<polyline fill="none" opacity="1" stroke="#000000" stroke-width="1" points="409,740 409,745 "/>
<text x="526" y="750" dy="0.76em" text-anchor="middle" font-family="sans-serif" font-size="9.67741935483871" opacity="1" fill="#000000">
2017-02-21Z
</text>
<polyline fill="none" opacity="1" stroke="#000000" stroke-width="1" points="526,740 526,745 "/>
<text x="643" y="750" dy="0.76em" text-anchor="middle" font-family="sans-serif" font-size="9.67741935483871" opacity="1" fill="#000000">
2017-08-29Z
</text>
<polyline fill="none" opacity="1" stroke="#000000" stroke-width="1" points="643,740 643,745 "/>
<text x="759" y="750" dy="0.76em" text-anchor="middle" font-family="sans-serif" font-size="9.67741935483871" opacity="1" fill="#000000">
2018-03-06Z
</text>
<polyline fill="none" opacity="1" stroke="#000000" stroke-width="1" points="759,740 759,745 "/>
<text x="876" y="750" dy="0.76em" text-anchor="middle" font-family="sans-serif" font-size="9.67741935483871" opacity="1" fill="#000000">
2018-09-11Z
</text>
<polyline fill="none" opacity="1" stroke="#000000" stroke-width="1" points="876,740 876,745 "/>
<text x="993" y="750" dy="0.76em" text-anchor="middle" font-family="sans-serif" font-size="9.67741935483871" opacity="1" fill="#000000">
2019-03-19Z
</text>
<polyline fill="none" opacity="1" stroke="#000000" stroke-width="1" points="993,740 993,745 "/>
<text x="1109" y="750" dy="0.76em" text-anchor="middle" font-family="sans-serif" font-size="9.67741935483871" opacity="1" fill="#000000">
2019-09-24Z
</text>
<polyline fill="none" opacity="1" stroke="#000000" stroke-width="1" points="1109,740 1109,745 "/>
<polyline fill="none" opacity="1" stroke="#E61919" stroke-width="2" points="121,738 128,736 133,736 138,736 139,734 141,734 142,732 150,732 151,730 152,730 155,730 158,730 169,730 177,730 179,730 182,730 184,732 188,732 190,732 190,732 191,732 193,732 201,732 206,732 211,732 216,732 217,730 219,730 221,730 224,730 225,728 226,728 227,726 228,726 229,726 232,726 232,726 233,722 235,722 238,720 239,718 240,718 242,718 243,718 250,718 253,718 255,718 256,718 256,718 258,716 259,716 261,716 266,716 267,716 268,716 269,714 269,714 270,712 272,712 273,712 274,710 274,710 275,708 276,708 278,706 280,706 282,706 283,706 284,706 285,706 287,704 288,704 289,704 293,704 296,704 299,702 300,702 301,702 302,702 303,702 304,702 305,702 306,702 307,702 308,702 309,702 311,702 312,702 313,700 314,700 314,700 316,700 317,700 317,700 319,700 321,700 322,700 326,700 328,700 329,700 330,698 333,698 334,696 335,696 335,696 336,694 337,694 337,694 339,694 340,694 341,694 345,694 347,694 349,694 350,694 352,694 355,694 357,694 358,694 363,694 364,694 365,694 367,694 368,694 369,694 369,694 372,694 374,692 375,690 375,688 376,686 377,686 378,686 379,686 380,686 381,686 382,686 384,686 385,686 385,684 386,684 387,682 387,682 388,682 388,682 389,682 390,682 390,682 391,680 392,680 392,680 393,680 393,680 394,680 395,680 395,680 396,680 396,680 397,680 398,680 398,680 399,680 400,680 400,678 401,678 401,678 403,678 403,678 404,676 405,674 406,672 406,670 407,670 408,670 408,670 409,670 409,670 410,670 411,670 411,668 413,668 413,668 414,668 414,668 415,668 416,666 417,666 419,666 419,664 420,664 421,666 422,666 422,666 423,666 424,666 424,664 425,664 425,664 426,664 427,664 427,664 428,664 429,664 430,664 430,664 431,664 432,664 432,664 433,664 433,662 434,662 435,660 435,658 436,656 437,658 437,658 438,658 439,658 440,658 440,658 442,658 443,658 443,658 444,658 445,656 445,656 446,656 446,656 447,656 448,656 448,656 450,656 450,656 451,650 453,648 455,646 456,644 459,644 460,644 461,644 461,644 462,644 463,644 464,642 464,642 465,642 466,642 466,644 467,644 468,644 469,644 469,644 470,644 471,644 471,644 472,644 474,644 475,644 476,642 477,642 478,640 479,640 481,640 482,640 483,640 485,638 487,638 487,638 488,636 489,636 490,636 490,636 491,636 492,636 493,634 494,632 495,632 495,632 496,630 496,628 497,630 498,630 498,630 500,630 501,630 501,630 502,630 503,630 503,628 504,628 505,628 506,628 508,628 508,628 509,626 510,626 511,626 511,626 512,626 512,626 513,624 514,624 515,624 516,624 516,624 517,622 517,622 518,622 519,620 519,620 520,618 521,618 521,618 522,616 522,616 523,616 524,616 524,614 525,612 526,612 527,612 527,612 529,612 529,612 530,610 530,608 531,608 532,608 532,608 533,608 533,608 534,606 535,606 535,606 536,606 537,606 537,604 538,604 539,604 540,604 541,604 542,604 543,606 543,604 544,604 545,604 545,604 546,602 546,602 547,602 548,602 548,602 549,602 550,602 550,602 551,600 551,600 552,600 553,598 553,594 554,594 554,594 555,594 556,594 556,596 557,596 558,596 558,596 559,596 559,596 560,596 561,596 561,596 562,596 562,596 563,596 564,594 565,594 566,594 566,594 567,594 568,592 569,590 569,588 570,588 570,586 571,586 572,586 573,586 574,586 574,584 575,584 575,584 576,584 577,584 577,584 578,584 579,582 579,582 580,582 580,582 581,584 582,582 582,582 583,580 583,580 584,580 585,580 585,580 586,578 587,578 587,580 588,578 588,578 589,578 590,578 590,578 591,576 591,576 592,576 593,576 593,576 594,576 595,576 595,576 596,576 596,576 597,576 598,576 598,576 599,576 600,576 600,576 601,576 601,576 602,576 603,576 603,576 604,576 604,576 605,576 606,576 606,576 607,576 608,576 608,576 609,576 609,576 610,572 611,572 611,572 612,576 612,576 613,576 614,576 614,576 615,576 616,574 616,572 617,572 617,572 618,572 619,572 619,572 620,572 620,572 621,572 622,572 622,572 623,572 624,572 624,572 625,572 625,572 626,572 627,572 627,572 628,572 629,572 629,572 630,572 630,570 631,568 632,568 632,568 633,566 633,566 634,564 635,564 635,564 636,564 637,564 637,564 638,564 638,564 639,564 640,564 640,564 641,564 641,564 642,562 643,560 643,560 644,560 645,560 645,560 646,558 646,558 647,558 648,558 648,558 649,558 649,557 650,557 651,557 651,553 652,551 653,553 653,551 654,547 654,547 655,547 656,547 656,547 657,547 658,547 658,549 659,549 659,549 660,549 661,549 661,549 662,549 662,547 663,547 664,547 664,547 665,547 666,547 666,547 667,547 667,547 668,547 669,547 669,547 670,547 670,545 671,545 672,545 672,545 673,545 674,545 674,545 675,543 675,543 676,539 677,539 677,539 678,537 679,537 679,537 680,537 680,537 681,533 682,533 682,533 683,531 683,531 684,531 685,531 685,531 686,529 687,527 687,527 688,525 688,525 689,525 690,525 690,525 691,525 691,525 692,523 693,521 693,521 694,521 695,521 695,521 696,521 696,521 697,521 698,521 698,521 699,521 699,521 700,521 701,521 701,519 702,519 703,519 703,519 704,519 704,517 705,517 706,517 706,517 707,517 708,517 708,517 709,517 709,517 710,517 711,513 711,511 712,511 712,511 713,511 714,511 714,511 715,511 716,511 716,511 717,511 717,511 718,511 719,509 719,509 720,509 720,509 721,509 722,509 722,507 723,507 724,507 724,507 725,507 725,505 726,505 727,505 727,503 728,503 728,501 729,501 730,499 730,501 731,501 732,501 732,501 733,501 733,501 734,501 735,501 735,501 736,501 737,503 737,503 738,503 738,503 739,503 740,503 740,501 741,501 741,497 742,497 743,497 743,495 744,495 745,493 745,493 746,493 746,493 747,495 748,495 748,493 749,493 749,493 750,493 751,493 751,493 752,493 753,493 753,493 754,493 754,493 755,493 756,491 756,489 757,489 757,489 758,489 759,489 759,487 760,489 761,487 761,487 762,487 762,487 763,487 764,487 764,487 765,487 766,487 766,487 767,485 767,485 768,485 769,483 769,481 770,481 770,481 771,479 772,479 772,477 773,477 774,477 774,475 775,475 775,475 776,475 777,477 777,477 778,477 778,477 779,477 780,477 780,477 781,477 782,477 782,477 783,477 783,477 784,479 785,479 785,479 786,477 787,477 787,477 788,477 788,475 789,475 790,475 790,471 791,471 791,471 792,471 793,471 793,471 794,471 795,469 795,467 796,467 796,467 797,467 798,467 798,467 799,467 799,467 800,467 801,467 801,467 802,467 803,467 803,467 804,467 804,467 805,467 806,467 806,467 807,465 807,465 808,463 809,463 809,463 810,461 811,461 811,463 812,463 812,463 813,459 814,459 814,457 815,457 816,457 816,455 817,455 817,455 818,455 819,455 819,455 820,455 820,453 821,453 822,453 822,453 823,453 824,453 824,453 825,453 825,453 826,453 827,453 827,449 828,449 828,449 829,449 830,449 830,449 831,449 832,449 832,449 833,449 833,449 834,449 835,449 835,449 836,449 836,447 837,447 838,445 838,445 839,445 840,445 840,445 841,445 841,445 842,443 843,439 843,439 844,439 845,439 845,439 846,439 846,439 847,439 848,439 848,439 849,439 849,439 850,439 851,439 851,439 852,439 853,441 853,441 854,439 854,439 855,439 856,439 856,439 857,439 857,439 858,439 859,439 859,439 860,437 861,437 861,437 862,437 862,435 863,433 864,433 864,433 865,433 865,433 866,433 867,433 867,433 868,433 869,433 869,433 870,433 870,433 871,433 872,433 872,433 873,431 874,431 874,431 875,429 875,429 876,429 877,429 877,429 878,429 878,429 879,429 880,429 880,429 881,429 882,429 882,429 883,429 883,429 884,429 885,427 885,427 885,427 886,427 886,427 887,427 888,425 888,425 889,425 890,425 890,423 891,423 891,423 892,421 893,421 893,421 894,419 895,419 895,419 896,419 896,417 897,417 898,417 898,415 899,415 899,415 900,413 901,413 901,411 902,411 903,411 903,411 904,411 904,411 905,409 906,409 906,409 907,409 907,409 908,409 909,409 909,409 910,409 911,407 911,407 912,407 912,407 913,407 914,407 914,407 915,407 915,405 916,405 917,405 917,403 918,403 919,403 919,403 920,401 920,401 921,401 922,399 922,397 923,397 924,397 924,395 925,391 925,391 926,391 927,391 927,391 928,391 928,391 929,391 930,387 930,387 931,385 932,385 932,383 933,381 933,381 934,381 935,381 935,381 936,379 936,377 937,377 938,377 938,377 939,377 940,377 940,377 941,377 941,377 942,377 943,377 943,377 944,377 944,377 945,377 946,373 946,373 947,371 948,369 948,369 949,367 949,367 950,367 951,365 951,365 952,365 953,365 953,363 954,363 954,363 955,361 956,361 956,359 957,359 957,359 958,359 959,359 959,357 960,357 961,357 961,357 962,357 962,355 963,355 964,355 964,355 965,355 965,353 966,353 967,351 967,351 968,351 969,351 969,351 970,351 970,351 971,351 972,351 972,351 973,349 973,349 974,349 975,349 975,349 976,349 977,349 977,349 978,349 978,349 979,349 980,347 980,347 981,347 982,347 982,347 983,347 983,347 984,347 985,345 985,345 986,341 986,341 987,341 988,341 988,341 989,341 990,341 990,341 991,339 991,337 992,335 993,335 993,335 994,335 994,335 995,335 996,333 996,333 997,333 998,333 998,333 999,333 999,333 1000,333 1001,333 1001,333 1002,329 1003,329 1003,329 1004,329 1004,329 1005,327 1006,327 1006,327 1007,327 1007,327 1008,327 1009,327 1009,325 1010,325 1011,325 1011,325 1012,325 1012,325 1013,325 1014,323 1014,323 1015,323 1015,323 1016,321 1017,319 1017,319 1018,319 1019,319 1019,319 1020,317 1020,317 1021,317 1022,317 1022,317 1023,317 1023,317 1024,317 1025,317 1025,317 1026,317 1027,315 1027,315 1028,315 1028,309 1029,309 1030,309 1030,309 1031,307 1032,307 1032,307 1033,305 1033,305 1034,305 1035,305 1035,305 1036,305 1036,305 1037,303 1038,303 1038,303 1039,303 1040,303 1040,303 1041,303 1041,301 1042,297 1043,297 1043,297 1044,297 1044,297 1045,295 1046,295 1046,295 1047,295 1048,295 1048,295 1049,295 1049,295 1050,295 1051,295 1051,295 1052,295 1052,295 1053,295 1054,295 1054,295 1055,289 1056,289 1056,289 1057,289 1057,289 1058,289 1059,289 1059,289 1060,289 1061,285 1061,285 1062,285 1062,285 1063,283 1064,283 1064,283 1065,283 1065,283 1066,283 1067,281 1067,281 1068,279 1069,279 1069,279 1070,279 1070,279 1071,279 1072,279 1072,279 1073,279 1073,277 1074,277 1075,275 1075,275 1076,275 1077,275 1077,275 1078,275 1078,275 1079,275 1080,275 1080,273 1081,273 1081,273 1082,273 1083,273 1083,273 1084,273 1085,273 1085,273 1086,273 1086,271 1087,271 1088,271 1088,271 1089,269 1090,267 1090,267 1091,267 1091,267 1092,267 1093,267 1093,267 1094,267 1094,267 1095,265 1096,265 1096,263 1097,267 1098,267 1098,267 1099,267 1099,265 1100,265 1101,263 1101,261 1102,261 1102,261 1103,259 1104,259 1104,259 1105,257 1106,257 1106,249 1107,249 1107,247 1108,247 1109,247 1109,249 1110,249 1111,249 1111,247 1112,245 1112,245 1113,243 1114,243 1114,243 1115,243 1115,241 1116,239 1117,239 1117,237 1118,237 1119,243 1119,243 1120,241 1120,243 1121,243 1122,243 1122,243 1123,243 1123,243 1123,243 1124,243 1125,243 1125,243 1126,243 1127,243 1127,243 1128,243 1128,243 1129,241 1130,239 1130,235 1131,235 1131,235 1132,235 1133,235 1133,235 1134,235 1135,235 1135,235 1136,235 1136,233 1137,233 1138,233 1138,233 1139,233 1140,233 1140,233 1141,231 1141,231 1142,231 1143,231 1143,231 1144,231 1144,231 1145,231 1146,231 1146,231 1147,231 1148,231 1148,231 1149,231 1149,231 1150,229 1151,227 1151,227 1152,225 1152,223 1153,219 1154,219 1154,219 1155,219 1156,219 1156,219 1157,219 1157,217 1158,217 1159,217 1159,217 1160,215 1160,215 1161,203 1162,203 1162,203 1163,203 1164,203 1164,203 1165,201 1165,201 1166,201 1167,201 1167,201 1168,201 1169,201 1169,199 1170,199 1170,199 1171,197 1172,197 1172,195 1173,193 1173,193 1174,193 1175,193 1175,191 1176,191 1177,191 1177,191 1178,189 1178,189 1179,189 1179,185 1180,185 1180,185 1180,185 1180,187 1181,187 1181,187 1181,187 1182,185 1183,185 1183,185 1183,185 1183,185 1184,185 1184,185 1185,185 1185,185 1185,185 1186,185 1186,185 1186,185 1186,185 1187,185 1187,185 1188,185 1188,185 1188,185 1188,185 1189,183 1190,183 1190,183 "/>
<polyline fill="none" opacity="1" stroke="#E5E619" stroke-width="2" points="369,738 375,736 377,734 384,732 402,730 426,728 448,726 461,724 463,722 464,722 468,722 489,720 497,716 501,714 521,712 530,710 543,706 545,704 548,702 558,700 561,698 564,696 566,694 567,692 572,690 574,688 577,686 585,684 595,682 596,680 598,678 600,676 602,674 608,674 611,672 616,670 624,668 626,668 630,666 636,664 640,662 640,664 645,662 645,662 647,662 649,662 649,660 650,660 651,660 651,660 652,660 653,658 658,656 659,656 660,656 662,654 662,654 663,654 666,654 667,654 667,652 668,652 671,650 672,648 674,650 674,650 675,650 676,648 677,646 678,644 679,642 680,640 680,640 681,640 685,640 685,638 687,636 688,636 690,634 691,636 691,636 692,636 695,636 695,636 696,636 696,636 697,636 698,636 699,632 701,632 701,634 703,634 704,634 705,634 706,634 707,634 708,632 710,630 711,632 714,630 716,630 716,630 719,630 720,628 721,628 722,626 722,626 728,626 728,624 729,624 732,622 737,620 738,620 738,620 739,620 741,620 743,620 743,618 746,616 747,612 748,612 748,610 750,610 751,610 751,608 752,608 753,608 754,608 756,608 759,608 762,608 763,606 764,606 765,606 766,604 767,602 767,602 769,602 772,602 773,602 776,602 777,600 777,600 778,598 780,596 781,594 783,592 784,592 785,590 785,588 786,588 787,588 787,588 790,588 790,588 791,588 794,586 795,586 796,584 797,584 798,582 798,578 800,578 801,578 802,578 803,580 805,578 806,572 807,570 807,572 808,572 809,572 809,570 810,570 811,570 811,570 812,570 813,570 814,570 816,570 817,570 817,568 818,568 820,566 820,566 821,564 822,564 822,564 824,562 824,562 825,560 825,560 826,558 828,558 828,558 829,557 830,557 832,555 832,555 833,555 833,555 834,555 836,551 836,549 837,549 838,549 838,547 839,547 840,547 840,547 841,547 842,547 843,547 844,547 846,547 847,547 848,545 848,545 849,545 850,545 851,545 852,545 853,545 854,545 854,543 855,543 856,543 856,541 857,539 857,537 859,537 860,535 861,535 862,533 862,533 863,533 864,533 864,533 865,531 866,527 867,527 867,527 868,527 869,525 869,523 870,523 871,523 872,521 872,521 873,521 874,521 876,521 877,521 878,521 878,521 879,521 880,521 880,521 881,519 882,519 882,517 883,517 884,515 885,509 885,509 886,509 887,509 888,507 888,507 889,507 890,501 890,499 891,497 891,495 892,495 893,493 894,493 895,493 895,493 896,493 897,493 898,493 898,493 899,493 900,491 901,487 901,487 902,483 903,483 903,483 904,483 905,483 906,483 906,481 907,477 907,477 908,473 909,473 909,473 910,471 911,471 911,471 912,471 913,471 914,469 914,469 915,465 915,465 916,465 917,465 919,463 919,463 920,463 920,463 921,463 922,463 922,463 923,461 924,461 924,461 925,461 927,459 927,459 928,459 928,459 929,459 931,457 932,455 932,455 933,455 933,453 934,453 935,453 935,453 936,453 936,449 937,449 938,447 939,445 940,445 941,445 943,445 943,445 944,443 944,441 945,439 946,437 946,435 947,437 948,437 948,435 949,435 949,433 950,433 951,433 953,433 953,433 954,433 954,429 955,431 956,429 956,427 957,425 957,425 958,423 959,419 959,417 960,417 961,417 961,417 962,415 963,415 964,415 964,415 965,415 967,417 968,417 969,417 969,415 970,413 971,413 972,413 973,413 973,413 974,411 975,409 975,409 976,409 977,401 978,401 979,399 980,395 980,391 981,391 982,387 982,387 984,383 985,383 985,381 986,379 986,381 987,379 988,377 988,375 989,375 990,373 990,373 991,371 992,371 993,371 993,371 994,367 994,367 995,365 996,365 996,361 998,357 998,355 999,355 999,353 1000,349 1001,347 1002,345 1003,345 1003,345 1004,345 1004,345 1005,345 1006,345 1006,345 1007,343 1007,343 1008,343 1009,343 1009,343 1010,343 1011,339 1011,339 1012,337 1012,337 1013,337 1014,333 1014,333 1015,333 1015,333 1016,333 1017,333 1017,333 1018,333 1019,333 1019,333 1020,329 1020,329 1021,325 1022,325 1022,325 1023,325 1023,321 1024,321 1025,321 1025,319 1026,319 1027,317 1027,317 1028,317 1028,317 1029,315 1030,311 1030,309 1031,309 1032,307 1032,305 1033,303 1033,297 1034,295 1035,295 1035,293 1036,293 1036,293 1037,291 1038,289 1038,289 1039,287 1040,289 1040,285 1041,285 1041,281 1042,277 1043,279 1043,277 1044,277 1044,275 1045,275 1046,275 1046,275 1047,275 1048,273 1048,271 1049,271 1049,271 1050,271 1051,271 1051,269 1052,267 1052,263 1053,261 1054,261 1055,259 1056,259 1056,255 1057,255 1057,255 1058,255 1059,253 1059,253 1060,253 1061,253 1061,251 1062,253 1062,249 1063,249 1064,249 1064,245 1065,245 1065,243 1066,239 1067,233 1067,231 1068,231 1069,231 1069,227 1070,227 1071,227 1072,227 1072,227 1073,225 1073,225 1074,225 1075,225 1075,219 1076,217 1077,217 1077,217 1078,217 1078,217 1079,215 1080,215 1080,213 1081,211 1081,209 1082,209 1083,209 1083,207 1084,205 1085,207 1086,207 1086,207 1087,207 1088,205 1088,205 1089,207 1090,207 1090,207 1091,207 1091,207 1092,207 1093,207 1093,207 1094,205 1094,205 1095,205 1096,205 1096,205 1097,203 1098,203 1098,203 1099,203 1099,203 1100,203 1101,201 1101,201 1102,199 1102,199 1103,199 1104,199 1104,197 1105,199 1106,195 1106,195 1107,193 1107,193 1108,193 1109,193 1109,187 1110,181 1112,181 1113,181 1114,179 1114,183 1115,183 1115,181 1116,181 1117,179 1118,179 1119,179 1119,179 1120,177 1120,175 1121,175 1122,173 1122,171 1123,169 1123,169 1124,167 1125,167 1126,163 1127,163 1127,159 1128,155 1128,155 1129,155 1130,153 1130,153 1131,151 1131,153 1132,153 1133,153 1133,153 1134,147 1135,147 1135,147 1136,145 1136,145 1137,143 1138,143 1138,143 1139,143 1140,143 1140,143 1141,143 1141,143 1142,143 1143,143 1143,141 1144,141 1144,141 1145,139 1146,139 1146,137 1147,135 1148,135 1148,135 1149,135 1149,135 1150,135 1151,135 1151,135 1152,135 1152,135 1153,135 1154,133 1154,133 1155,129 1156,127 1156,127 1157,127 1157,125 1158,123 1159,121 1159,121 1160,121 1160,119 1161,117 1162,115 1162,115 1163,115 1164,115 1164,113 1165,111 1165,109 1166,109 1167,111 1167,109 1168,107 1169,107 1169,105 1170,105 1170,101 1171,101 1172,101 1172,97 1173,97 1173,95 1174,93 1175,89 1175,89 1176,89 1177,87 1177,87 1178,85 1178,85 1179,85 1179,83 1180,83 1180,83 1180,83 1180,83 1181,83 1181,83 1181,83 1182,81 1183,81 1183,81 1183,81 1183,81 1184,81 1184,81 1185,79 1185,79 1185,79 1186,79 1186,79 1186,79 1186,79 1187,79 1187,79 1188,79 1188,79 1188,79 1188,77 1189,75 1190,75 1190,75 "/>
<polyline fill="none" opacity="1" stroke="#19E619" stroke-width="2" points="574,738 575,736 596,736 612,734 623,734 625,734 642,734 645,734 651,732 651,732 652,732 667,730 681,730 695,730 699,728 708,726 722,726 723,726 727,726 730,724 741,722 746,722 750,722 766,720 767,718 775,718 780,718 782,718 783,718 784,714 785,716 788,714 795,714 799,712 800,710 802,710 804,706 806,706 810,704 838,702 841,700 843,698 848,698 855,696 857,694 859,694 860,694 866,692 867,690 867,690 872,688 873,688 875,688 880,686 881,686 883,684 888,684 890,682 894,682 901,680 902,678 903,678 905,678 909,676 909,676 910,674 913,674 914,674 914,672 918,670 922,668 925,666 925,666 928,664 928,664 930,664 931,664 933,664 933,664 936,664 941,662 942,662 943,662 944,662 947,662 948,660 949,658 953,656 953,656 954,656 956,654 956,654 957,654 959,654 961,652 962,650 963,650 964,650 965,650 971,650 972,650 973,650 973,646 974,646 976,646 977,644 977,644 979,642 984,642 988,642 990,642 991,642 995,642 1001,642 1001,642 1002,642 1003,642 1003,642 1004,642 1004,642 1005,640 1006,640 1006,640 1007,640 1007,640 1008,638 1009,638 1009,638 1010,638 1011,638 1011,638 1012,638 1012,638 1013,638 1014,638 1014,638 1015,638 1015,638 1016,638 1017,636 1017,636 1018,636 1019,636 1019,636 1020,636 1020,636 1021,636 1022,636 1022,634 1023,634 1023,634 1024,632 1025,632 1025,632 1026,632 1027,632 1027,632 1028,632 1028,632 1029,632 1030,630 1030,630 1031,628 1032,628 1032,628 1033,628 1033,628 1034,628 1035,628 1035,628 1036,628 1036,628 1037,626 1038,626 1038,624 1039,624 1040,624 1040,624 1041,624 1041,624 1042,624 1043,624 1043,624 1044,624 1044,624 1045,624 1046,624 1046,624 1047,624 1048,624 1048,624 1049,624 1049,624 1050,622 1051,622 1051,622 1052,622 1052,622 1053,622 1054,622 1054,622 1055,622 1056,622 1056,622 1057,622 1057,622 1058,622 1059,622 1059,622 1060,622 1061,622 1061,622 1062,622 1062,622 1063,622 1064,622 1064,622 1065,622 1065,622 1066,622 1067,622 1067,622 1068,620 1069,620 1069,618 1070,618 1070,618 1071,618 1072,618 1072,618 1073,616 1073,616 1074,616 1075,616 1075,614 1076,614 1077,614 1077,614 1078,612 1078,612 1079,610 1080,610 1080,608 1081,608 1081,608 1082,608 1083,608 1083,606 1084,606 1085,608 1085,608 1086,604 1086,604 1087,602 1088,602 1088,604 1089,604 1090,604 1090,604 1091,604 1091,598 1092,598 1093,598 1093,598 1094,598 1094,598 1095,598 1096,598 1096,598 1097,596 1098,594 1098,594 1099,594 1099,594 1100,594 1101,594 1101,594 1102,594 1102,594 1103,594 1104,594 1104,594 1105,594 1106,594 1106,592 1107,592 1107,592 1108,592 1109,590 1109,590 1110,590 1111,590 1111,590 1112,590 1112,590 1113,586 1114,586 1114,584 1115,584 1115,584 1116,584 1117,584 1117,584 1118,582 1119,582 1119,582 1120,582 1120,580 1121,580 1122,578 1122,578 1123,578 1123,578 1123,578 1124,578 1125,578 1125,578 1126,578 1127,578 1127,578 1128,578 1128,578 1129,578 1130,578 1130,578 1131,578 1131,576 1132,576 1133,576 1133,576 1134,576 1135,574 1135,574 1136,572 1136,572 1137,572 1138,572 1138,568 1139,568 1140,568 1140,568 1141,568 1141,568 1142,568 1143,568 1143,568 1144,568 1144,568 1145,568 1146,568 1146,568 1147,568 1148,568 1148,568 1149,564 1149,564 1150,564 1151,564 1151,564 1152,564 1152,564 1153,564 1154,564 1154,564 1155,564 1156,564 1156,564 1157,564 1157,564 1158,562 1159,562 1159,562 1160,562 1160,562 1161,562 1162,564 1162,566 1163,566 1164,566 1164,566 1165,564 1165,564 1166,564 1167,564 1167,564 1168,562 1169,562 1169,562 1170,562 1170,560 1171,558 1172,558 1172,558 1173,558 1173,558 1174,558 1175,558 1175,558 1176,558 1177,557 1177,555 1178,555 1178,555 1179,555 1179,553 1180,553 1180,553 1180,553 1180,551 1181,551 1181,551 1181,551 1182,549 1183,549 1183,547 1183,547 1183,545 1184,545 1184,545 1185,545 1185,545 1185,543 1186,543 1186,543 1186,543 1186,543 1187,543 1187,543 1188,543 1188,543 1188,543 1188,543 1189,543 1190,543 1190,543 "/>
<polyline fill="none" opacity="1" stroke="#19E5E6" stroke-width="2" points="60,738 84,736 101,734 107,732 111,730 111,724 115,722 120,720 126,724 129,722 129,722 132,720 133,714 138,714 141,714 142,712 143,710 145,710 151,710 155,708 158,708 161,706 162,706 163,706 168,706 168,706 169,706 169,704 171,698 173,698 178,698 179,698 180,698 181,698 182,698 184,698 187,698 188,698 189,698 190,698 191,698 194,696 195,696 197,696 198,696 198,696 199,696 200,696 201,696 203,696 203,696 205,694 205,694 206,694 206,694 207,694 208,694 209,694 210,694 212,694 213,694 213,694 214,692 217,692 219,692 220,692 221,692 222,692 222,692 223,692 224,692 226,692 226,690 227,690 229,686 229,686 230,686 232,686 232,684 233,684 234,684 234,684 235,684 235,684 236,682 239,682 240,682 240,682 241,682 242,682 242,682 243,682 244,682 246,680 246,680 247,680 248,680 249,680 250,680 250,680 251,680 251,680 253,680 255,680 256,680 257,678 258,676 259,676 260,676 261,676 261,674 265,674 266,674 267,674 267,674 268,674 269,674 270,674 271,674 272,672 274,672 274,672 275,670 276,670 276,670 277,670 277,670 278,670 279,670 279,670 280,670 280,670 281,670 282,670 282,672 283,670 284,670 284,670 285,670 285,670 286,670 287,670 287,670 288,668 288,666 290,666 291,666 292,664 292,664 293,664 294,664 295,664 295,664 296,664 296,664 297,664 298,664 298,664 299,664 300,664 300,664 301,664 301,664 302,664 303,664 303,664 304,664 305,664 305,664 306,664 306,664 307,664 308,664 308,664 309,664 309,664 310,664 311,664 311,664 312,664 313,664 313,664 314,664 314,664 315,664 316,664 316,664 317,664 317,664 318,664 319,664 319,664 320,664 321,664 321,664 322,664 322,664 323,664 324,662 324,660 325,660 325,660 326,658 327,658 327,658 328,658 329,656 329,656 330,656 330,656 331,656 332,656 332,656 333,656 334,656 334,656 335,656 335,656 336,654 337,654 337,652 338,652 338,650 339,648 340,648 340,648 341,648 342,648 342,648 343,648 343,648 344,648 345,648 345,648 346,646 347,646 348,646 348,646 349,646 350,646 350,646 351,646 351,646 352,646 353,646 353,646 354,646 354,646 355,646 356,646 356,646 357,646 358,646 358,644 359,642 359,642 360,642 361,642 361,642 362,642 363,640 363,640 364,640 364,640 365,640 366,640 366,640 367,640 367,640 368,640 369,640 369,640 370,640 371,642 371,642 372,642 372,642 373,642 374,642 374,642 375,640 376,640 377,640 377,640 378,640 379,640 380,640 380,640 381,640 382,640 382,638 383,638 384,638 384,638 385,638 385,638 386,638 387,638 387,638 388,638 388,638 389,638 390,638 390,638 391,638 392,638 392,638 393,638 393,638 394,638 395,638 395,638 396,638 396,638 397,638 398,638 398,638 399,638 400,638 400,638 401,638 401,636 402,634 403,632 403,632 404,632 405,632 406,632 406,632 407,632 408,632 408,632 409,632 409,632 410,632 411,632 411,632 412,632 413,632 413,632 414,632 414,632 415,632 416,632 416,632 417,632 417,630 418,630 419,630 419,630 420,630 421,630 421,628 422,628 422,628 423,628 424,628 424,628 425,628 425,628 426,628 427,628 427,624 428,624 429,624 429,624 430,622 430,622 431,622 432,620 432,620 433,620 433,620 434,620 435,620 435,620 436,620 437,620 437,620 438,620 438,620 439,620 440,620 440,620 441,620 442,620 442,620 443,620 443,620 444,620 445,620 445,620 446,620 446,620 447,622 448,622 448,622 449,622 450,622 450,622 451,622 451,622 452,622 453,622 453,622 454,622 454,622 455,622 456,622 456,622 457,622 458,624 458,624 459,624 459,624 460,624 461,624 461,624 462,624 462,624 463,624 464,624 464,622 465,622 466,622 466,622 467,622 467,622 468,620 469,620 469,622 470,622 471,622 471,622 472,620 472,620 473,620 474,618 474,618 475,618 475,616 476,616 477,616 477,614 478,614 479,612 479,614 480,614 480,614 481,612 482,612 482,612 483,612 483,610 484,610 485,610 485,610 486,610 487,610 487,610 488,610 488,606 489,606 490,606 490,606 491,606 492,606 492,608 493,608 493,606 494,606 495,606 495,606 496,606 496,606 497,606 498,606 498,606 499,606 500,606 500,606 501,606 501,606 502,606 503,604 503,604 504,604 504,602 505,600 506,600 506,600 507,600 508,600 508,600 509,600 509,600 510,598 511,600 511,600 512,600 512,600 513,600 514,600 514,600 515,600 516,600 516,600 517,600 517,600 518,600 519,600 519,600 520,598 521,598 521,598 522,598 522,598 523,598 524,598 524,598 525,598 525,598 526,598 527,598 527,598 528,596 529,596 529,596 530,594 530,592 531,592 532,588 532,588 533,588 533,588 534,588 535,588 535,588 536,588 537,588 537,586 538,586 538,586 539,586 540,586 540,586 541,586 541,586 542,586 543,586 543,586 544,586 545,586 545,586 546,586 546,586 547,586 548,586 548,584 549,584 550,582 550,582 551,582 551,582 552,582 553,580 553,580 554,580 554,578 555,576 556,576 556,576 557,576 558,576 558,576 559,576 559,576 560,576 561,576 561,576 562,576 562,576 563,576 564,576 564,576 565,572 566,572 566,572 567,572 567,572 568,572 569,572 569,570 570,570 570,570 571,570 572,570 572,570 573,570 574,570 574,570 575,570 575,570 576,570 577,570 577,570 578,570 579,570 579,570 580,570 580,570 581,570 582,570 582,570 583,570 583,570 584,570 585,570 585,570 586,570 587,570 587,570 588,570 588,570 589,570 590,570 590,570 591,570 591,570 592,570 593,570 593,570 594,570 595,568 595,568 596,566 596,566 597,566 598,566 598,564 599,564 600,564 600,564 601,564 601,564 602,564 603,564 603,564 604,564 604,562 605,562 606,558 606,557 607,557 608,557 608,557 609,557 609,557 610,557 611,557 611,557 612,557 612,555 613,555 614,555 614,555 615,555 616,555 616,551 617,551 617,551 618,551 619,551 619,551 620,551 620,551 621,551 622,551 622,551 623,551 624,551 624,551 625,551 625,551 626,551 627,551 627,549 628,549 629,549 629,549 630,547 630,547 631,547 632,547 632,547 633,545 633,545 634,545 635,545 635,545 636,545 637,545 637,545 638,545 638,545 639,545 640,545 640,543 641,543 641,543 642,543 643,543 643,541 644,543 645,543 645,543 646,543 646,543 647,543 648,543 648,543 649,543 649,543 650,543 651,543 651,543 652,543 653,543 653,543 654,543 654,543 655,543 656,543 656,543 657,543 658,543 658,543 659,543 659,543 660,543 661,543 661,543 662,543 662,543 663,543 664,543 664,543 665,543 666,543 666,541 667,541 667,543 668,543 669,543 669,543 670,543 670,543 671,543 672,543 672,543 673,543 674,543 674,543 675,543 675,543 676,543 677,543 677,543 678,543 679,543 679,543 680,543 680,543 681,543 682,543 682,543 683,545 683,545 684,545 685,545 685,545 686,545 687,545 687,545 688,545 688,545 689,545 690,545 690,545 691,543 691,543 692,543 693,543 693,543 694,543 695,543 695,541 696,541 696,541 697,541 698,539 698,539 699,539 699,539 700,539 701,539 701,539 702,539 703,539 703,539 704,539 704,539 705,539 706,539 706,539 707,539 708,539 708,539 709,539 709,539 710,539 711,537 711,537 712,537 712,537 713,537 714,537 714,537 715,537 716,537 716,537 717,537 717,537 718,537 719,537 719,537 720,537 720,537 721,537 722,537 722,537 723,537 724,533 724,533 725,533 725,533 726,523 727,523 727,523 728,523 728,523 729,523 730,523 730,523 731,523 732,523 732,523 733,523 733,523 734,523 735,523 735,519 736,519 737,519 737,519 738,519 738,519 739,519 740,519 740,519 741,519 741,519 742,519 743,519 743,519 744,521 745,521 745,521 746,521 746,521 747,521 748,521 748,521 749,521 749,521 750,521 751,521 751,521 752,521 753,521 753,521 754,521 754,519 755,519 756,519 756,519 757,519 757,519 758,517 759,517 759,517 760,517 761,517 761,517 762,517 762,517 763,517 764,515 764,515 765,515 766,515 766,515 767,515 767,515 768,515 769,515 769,515 770,515 770,515 771,515 772,515 772,511 773,511 774,511 774,511 775,511 775,511 776,511 777,509 777,509 778,509 778,509 779,509 780,509 780,507 781,507 782,507 782,507 783,507 783,507 784,507 785,507 785,507 786,507 787,503 787,501 788,501 788,499 789,499 790,499 790,499 791,499 791,497 792,497 793,497 793,497 794,497 795,497 795,497 796,497 796,497 797,497 798,497 798,497 799,497 799,497 800,497 801,509 801,509 802,509 803,509 803,509 804,509 804,509 805,507 806,507 806,507 807,507 807,507 808,507 809,507 809,507 810,505 811,505 811,505 812,505 812,505 813,505 814,505 814,505 815,505 816,505 816,505 817,505 817,505 818,505 819,505 819,505 820,505 820,505 821,505 822,505 822,505 823,505 824,505 824,505 825,505 825,505 826,505 827,505 827,507 828,507 828,507 829,507 830,507 830,507 831,507 832,507 832,507 833,507 833,507 834,507 835,507 835,507 836,507 837,507 838,507 838,507 839,507 840,507 840,507 841,507 841,507 842,507 843,507 843,507 844,507 845,507 845,505 846,505 846,505 847,505 848,505 848,505 849,505 849,505 850,503 851,503 851,503 852,503 853,503 853,503 854,503 854,503 855,503 856,503 856,503 857,503 857,503 858,503 859,503 859,503 860,503 861,503 861,503 862,503 862,503 863,503 864,503 864,503 865,503 865,503 866,501 867,501 867,501 868,501 869,501 869,501 870,501 870,501 871,501 872,501 872,501 873,501 874,501 874,501 875,501 875,501 876,501 877,501 877,501 878,501 878,501 879,499 880,499 880,499 881,499 882,499 882,497 883,497 883,497 884,497 885,497 885,497 885,497 886,497 886,497 887,497 888,497 888,497 889,495 890,495 890,495 891,493 891,493 892,493 893,493 893,493 894,493 895,493 895,493 896,493 896,493 897,493 898,493 898,493 899,493 899,493 900,493 901,493 901,493 902,493 903,493 903,489 904,489 904,489 905,489 906,489 906,489 907,487 907,487 908,485 909,485 909,485 910,485 911,485 911,485 912,485 912,485 913,485 914,485 914,485 915,485 915,485 916,485 917,485 917,485 918,485 919,485 919,485 920,485 920,485 921,485 922,485 922,485 923,485 924,485 924,485 925,485 925,485 926,485 927,485 927,485 928,485 928,485 929,485 930,485 930,485 931,485 932,485 932,485 933,483 933,483 934,485 935,485 935,485 936,485 936,483 937,483 938,483 938,483 939,483 940,483 940,483 941,483 941,483 942,483 943,479 943,479 944,479 944,479 945,479 946,481 946,481 947,483 948,483 948,483 949,483 949,483 950,485 951,485 951,485 952,485 953,485 953,485 954,485 954,485 955,485 956,485 956,485 957,485 957,485 958,485 959,483 959,483 960,483 961,483 961,483 962,481 962,481 963,481 964,481 964,481 965,481 965,481 966,481 967,481 967,481 968,483 969,483 969,483 970,483 970,483 971,483 972,483 972,483 973,483 973,483 974,483 975,483 975,483 976,483 977,483 977,483 978,483 978,483 979,483 980,483 980,483 981,483 982,483 982,483 983,483 983,483 984,483 985,483 985,483 986,485 986,485 987,485 988,485 988,485 989,483 990,483 990,485 991,485 991,485 992,483 993,483 993,483 994,483 994,483 995,483 996,483 996,481 997,481 998,481 998,481 999,481 999,481 1000,481 1001,481 1001,481 1002,481 1003,481 1003,481 1004,481 1004,481 1005,481 1006,481 1006,481 1007,481 1007,481 1008,481 1009,481 1009,481 1010,481 1011,481 1011,479 1012,479 1012,479 1013,477 1014,477 1014,477 1015,477 1015,477 1016,477 1017,477 1017,477 1018,477 1019,477 1019,477 1020,477 1020,477 1021,477 1022,477 1022,477 1023,477 1023,477 1024,477 1025,477 1025,477 1026,477 1027,477 1027,477 1028,477 1028,475 1029,475 1030,475 1030,475 1031,475 1032,475 1032,475 1033,475 1033,475 1034,475 1035,475 1035,475 1036,475 1036,477 1037,477 1038,475 1038,475 1039,475 1040,475 1040,475 1041,475 1041,475 1042,473 1043,473 1043,473 1044,473 1044,473 1045,473 1046,473 1046,473 1047,473 1048,473 1048,473 1049,471 1049,471 1050,471 1051,471 1051,471 1052,471 1052,471 1053,471 1054,471 1054,471 1055,471 1056,471 1056,471 1057,471 1057,471 1058,471 1059,471 1059,471 1060,471 1061,473 1061,473 1062,473 1062,473 1063,473 1064,473 1064,473 1065,473 1065,475 1066,473 1067,473 1067,473 1068,473 1069,473 1069,473 1070,473 1070,473 1071,473 1072,473 1072,473 1073,473 1073,473 1074,473 1075,473 1075,473 1076,471 1077,471 1077,471 1078,471 1078,471 1079,471 1080,471 1080,471 1081,471 1081,469 1082,469 1083,469 1083,469 1084,469 1085,469 1085,469 1086,469 1086,469 1087,469 1088,469 1088,469 1089,469 1090,469 1090,469 1091,467 1091,467 1092,467 1093,467 1093,467 1094,467 1094,467 1095,467 1096,467 1096,465 1097,465 1098,465 1098,465 1099,465 1099,463 1100,463 1101,463 1101,463 1102,463 1103,463 1104,463 1104,463 1105,463 1106,463 1106,463 1107,463 1107,463 1108,463 1109,463 1109,463 1110,463 1111,463 1111,463 1112,463 1112,463 1113,463 1114,463 1114,463 1115,463 1115,463 1116,463 1117,463 1117,463 1118,463 1119,463 1119,463 1120,463 1120,463 1121,463 1122,463 1122,463 1123,463 1123,463 1123,463 1124,463 1125,463 1125,463 1126,463 1127,463 1127,463 1128,463 1128,463 1129,463 1130,463 1130,463 1131,461 1131,461 1132,461 1133,461 1133,461 1134,461 1135,461 1135,461 1136,461 1136,461 1137,461 1138,461 1138,463 1139,463 1140,465 1140,465 1141,465 1141,465 1142,465 1143,465 1143,465 1144,465 1144,465 1145,465 1146,465 1146,465 1147,465 1148,465 1148,463 1149,461 1149,461 1150,461 1151,461 1151,461 1152,461 1152,461 1153,461 1154,461 1154,461 1155,461 1156,457 1156,457 1157,457 1157,451 1158,451 1159,451 1159,451 1160,451 1160,451 1161,451 1162,451 1162,451 1163,453 1164,453 1164,453 1165,453 1165,453 1166,453 1167,453 1167,453 1168,453 1169,453 1169,453 1170,453 1170,453 1171,453 1172,451 1172,447 1173,447 1173,447 1174,447 1175,447 1175,447 1176,447 1177,447 1177,447 1178,447 1178,447 1179,447 1179,447 1180,447 1180,447 1180,447 1180,447 1181,447 1181,447 1181,447 1182,447 1183,447 1183,449 1183,449 1183,449 1184,449 1184,449 1185,449 1185,449 1185,449 1186,449 1186,449 1186,449 1186,449 1187,449 1187,449 1188,449 1188,449 1188,449 1188,449 1189,449 1190,449 1190,449 "/>
<polyline fill="none" opacity="1" stroke="#1919E6" stroke-width="2" points="469,738 533,736 587,734 611,732 619,730 634,728 635,726 637,724 640,722 644,720 658,720 666,718 675,718 691,714 695,714 704,712 705,712 706,712 706,712 707,712 708,712 708,712 709,712 709,712 710,712 711,712 711,712 712,712 712,710 713,710 714,710 714,710 715,710 716,710 716,710 717,710 717,710 718,710 719,710 719,710 720,710 720,710 721,710 722,710 722,710 723,710 724,710 724,710 725,710 725,710 726,710 727,710 727,710 728,710 728,710 729,710 730,710 730,710 731,710 732,710 732,710 733,710 733,710 734,710 735,710 735,710 736,710 737,710 737,710 738,710 738,710 739,710 740,710 740,710 741,710 741,710 742,710 743,710 743,710 744,710 745,710 745,710 746,710 746,708 747,708 748,708 748,708 749,706 749,706 750,706 751,706 751,706 752,706 753,706 753,706 754,706 754,706 755,706 756,706 756,706 757,706 757,706 758,706 759,706 759,706 760,706 761,706 761,706 762,706 762,706 763,706 764,706 764,706 765,704 766,704 766,704 767,704 767,702 768,702 769,702 769,702 770,702 770,702 771,702 772,702 772,702 773,702 774,702 774,702 775,702 775,702 776,702 777,702 777,702 778,702 778,702 779,702 780,702 780,702 781,702 782,702 782,702 783,702 783,700 784,698 785,696 785,694 786,694 787,694 787,694 788,694 788,694 789,694 790,694 790,694 791,694 791,694 792,694 793,694 793,694 794,694 795,694 795,694 796,694 796,694 797,694 798,694 798,694 799,694 799,694 800,694 801,694 801,694 802,694 803,694 803,692 804,692 804,692 805,692 806,692 806,692 807,692 807,690 808,690 809,690 809,690 810,690 811,690 811,688 812,688 812,688 813,688 814,688 814,688 815,688 816,688 816,688 817,688 817,688 818,688 819,688 819,688 820,688 820,688 821,688 822,686 822,686 823,686 824,686 824,686 825,686 825,686 826,686 827,686 827,686 828,686 828,686 829,686 830,686 830,686 831,686 832,684 832,684 833,684 833,684 834,682 835,682 835,682 836,682 836,682 837,682 838,682 838,682 839,682 840,682 840,682 841,682 841,682 842,682 843,682 843,682 844,682 845,682 845,680 846,680 846,680 847,680 848,680 848,680 849,680 849,680 850,678 851,678 851,678 852,678 853,678 853,678 854,678 854,678 855,676 856,676 856,676 857,676 857,676 858,676 859,676 859,676 860,676 861,674 861,674 862,674 862,670 863,670 864,670 864,670 865,670 865,670 866,670 867,670 867,670 868,670 869,670 869,670 870,670 870,670 871,670 872,670 872,668 873,668 874,668 874,668 875,668 875,668 876,668 877,668 877,668 878,668 878,668 879,668 880,668 880,668 881,668 882,668 882,668 883,668 883,666 884,666 885,666 885,666 885,666 886,666 886,666 887,666 888,666 888,666 889,666 890,666 890,666 891,666 891,666 892,666 893,666 893,666 894,666 895,666 895,664 896,664 896,664 897,664 898,664 898,664 899,664 899,664 900,664 901,662 901,662 902,662 903,662 903,662 904,662 904,662 905,662 906,662 906,662 907,662 907,662 908,660 909,660 909,662 910,662 911,662 911,662 912,662 912,662 913,662 914,660 914,660 915,658 915,658 916,658 917,658 917,658 918,658 919,658 919,658 920,658 920,658 921,658 922,658 922,658 923,658 924,658 924,658 925,658 925,658 926,658 927,658 927,658 928,658 928,658 929,658 930,658 930,658 931,658 932,658 932,658 933,658 933,658 934,658 935,658 935,658 936,658 936,658 937,658 938,658 938,658 939,658 940,658 940,658 941,658 941,658 942,658 943,658 943,658 944,658 944,658 945,658 946,658 946,656 947,656 948,656 948,654 949,654 949,654 950,652 951,652 951,652 952,650 953,650 953,650 954,646 954,644 955,642 956,642 956,642 957,642 957,642 958,642 959,642 959,642 960,640 961,640 961,638 962,638 962,638 963,638 964,636 964,636 965,636 965,636 966,636 967,636 967,636 968,634 969,634 969,634 970,634 970,634 971,634 972,634 972,632 973,632 973,632 974,632 975,632 975,634 976,634 977,634 977,634 978,634 978,634 979,634 980,634 980,634 981,634 982,634 982,634 983,634 983,634 984,634 985,634 985,634 986,634 986,632 987,632 988,632 988,630 989,630 990,630 990,630 991,630 991,626 992,626 993,626 993,626 994,626 994,626 995,626 996,626 996,626 997,626 998,626 998,626 999,626 999,626 1000,626 1001,626 1001,626 1002,626 1003,626 1003,626 1004,626 1004,626 1005,626 1006,626 1006,626 1007,626 1007,626 1008,626 1009,626 1009,626 1010,626 1011,626 1011,626 1012,626 1012,626 1013,626 1014,624 1014,624 1015,624 1015,624 1016,624 1017,622 1017,622 1018,622 1019,620 1019,618 1020,616 1020,614 1021,614 1022,614 1022,612 1023,612 1023,612 1024,612 1025,610 1025,608 1026,608 1027,608 1027,608 1028,608 1028,606 1029,606 1030,606 1030,606 1031,606 1032,606 1032,606 1033,606 1033,606 1034,606 1035,606 1035,606 1036,606 1036,604 1037,604 1038,604 1038,604 1039,604 1040,604 1040,604 1041,604 1041,604 1042,604 1043,602 1043,602 1044,602 1044,602 1045,602 1046,600 1046,600 1047,600 1048,600 1048,600 1049,596 1049,596 1050,596 1051,596 1051,596 1052,596 1052,596 1053,596 1054,596 1054,596 1055,596 1056,596 1056,596 1057,596 1057,596 1058,596 1059,596 1059,596 1060,596 1061,596 1061,596 1062,594 1062,592 1063,588 1064,588 1064,588 1065,588 1065,586 1066,586 1067,586 1067,586 1068,586 1069,586 1069,586 1070,586 1070,586 1071,586 1072,586 1072,586 1073,584 1073,584 1074,582 1075,582 1075,582 1076,582 1077,582 1077,582 1078,582 1078,582 1079,582 1080,582 1080,582 1081,582 1081,582 1082,582 1083,580 1083,580 1084,580 1085,580 1085,582 1086,582 1086,582 1087,582 1088,582 1088,582 1089,582 1090,582 1090,582 1091,582 1091,582 1092,582 1093,582 1093,582 1094,582 1094,582 1095,582 1096,582 1096,580 1097,580 1098,580 1098,580 1099,580 1099,580 1100,580 1101,576 1101,576 1102,576 1102,576 1103,574 1104,574 1104,574 1105,574 1106,572 1106,572 1107,572 1107,572 1108,572 1109,572 1109,570 1110,568 1111,568 1111,568 1112,568 1112,568 1113,568 1114,568 1114,568 1115,568 1115,568 1116,568 1117,568 1117,568 1118,568 1119,568 1119,568 1120,568 1120,568 1121,568 1122,566 1122,566 1123,564 1123,564 1123,564 1124,562 1125,560 1125,560 1126,560 1127,560 1127,560 1128,558 1128,558 1129,558 1130,558 1130,558 1131,558 1131,557 1132,557 1133,557 1133,557 1134,557 1135,557 1135,557 1136,557 1136,553 1137,553 1138,553 1138,553 1139,553 1140,551 1140,551 1141,551 1141,551 1142,551 1143,551 1143,551 1144,551 1144,551 1145,551 1146,551 1146,551 1147,549 1148,549 1148,549 1149,545 1149,545 1150,545 1151,545 1151,545 1152,543 1152,543 1153,543 1154,543 1154,543 1155,543 1156,543 1156,543 1157,543 1157,543 1158,543 1159,543 1159,543 1160,543 1160,543 1161,541 1162,541 1162,541 1163,541 1164,541 1164,541 1165,541 1165,541 1166,541 1167,541 1167,541 1168,541 1169,541 1169,541 1170,541 1170,541 1171,541 1172,541 1172,541 1173,541 1173,541 1174,541 1175,541 1175,539 1176,539 1177,539 1177,539 1178,539 1178,539 1179,539 1179,539 1180,539 1180,537 1180,537 1180,539 1181,539 1181,539 1181,539 1182,539 1183,539 1183,539 1183,539 1183,537 1184,537 1184,537 1185,537 1185,537 1185,537 1186,537 1186,537 1186,537 1186,535 1187,535 1187,535 1188,535 1188,533 1188,533 1188,533 1189,533 1190,533 1190,533 "/>
<polyline fill="none" opacity="1" stroke="#E519E6" stroke-width="2" points="395,738 425,736 443,734 445,732 446,732 450,730 460,728 461,726 461,724 468,722 469,720 472,720 485,720 488,718 493,716 497,714 500,714 509,712 513,714 514,714 520,712 532,710 535,708 542,706 553,706 556,704 559,704 559,704 562,702 568,700 575,698 575,698 577,696 585,694 588,692 610,692 615,690 619,690 627,688 638,688 639,686 648,684 653,682 657,680 658,678 662,676 663,674 664,674 664,674 665,674 666,674 666,674 667,674 667,674 668,674 669,674 669,674 670,674 670,674 671,674 672,674 672,674 673,674 674,674 674,674 675,674 675,674 676,674 677,674 677,674 678,674 679,674 679,674 680,674 680,674 681,674 682,674 682,674 683,674 683,674 684,674 685,674 685,672 686,672 687,672 687,672 688,672 688,672 689,672 690,672 690,672 691,672 691,672 692,672 693,672 693,672 694,670 695,670 695,670 696,670 696,670 697,668 698,668 698,668 699,668 699,668 700,668 701,668 701,668 702,668 703,668 703,668 704,666 704,666 705,666 706,666 706,666 707,666 708,666 708,666 709,666 709,666 710,666 711,666 711,666 712,666 712,666 713,666 714,666 714,662 715,662 716,662 716,662 717,660 717,656 718,656 719,656 719,656 720,656 720,654 721,654 722,654 722,654 723,654 724,654 724,654 725,654 725,654 726,654 727,654 727,654 728,652 728,650 729,650 730,650 730,650 731,646 732,646 732,646 733,646 733,646 734,646 735,646 735,644 736,644 737,644 737,644 738,644 738,644 739,642 740,644 740,644 741,644 741,644 742,644 743,644 743,644 744,644 745,644 745,646 746,646 746,646 747,646 748,646 748,646 749,646 749,646 750,646 751,646 751,646 752,646 753,646 753,646 754,646 754,646 755,642 756,642 756,642 757,642 757,642 758,642 759,642 759,642 760,642 761,642 761,642 762,642 762,642 763,642 764,640 764,640 765,640 766,640 766,640 767,640 767,640 768,640 769,640 769,640 770,640 770,638 771,638 772,638 772,638 773,638 774,638 774,636 775,636 775,636 776,636 777,636 777,636 778,636 778,636 779,636 780,636 780,636 781,638 782,638 782,638 783,638 783,638 784,638 785,638 785,638 786,638 787,638 787,640 788,640 788,640 789,640 790,640 790,640 791,640 791,640 792,640 793,640 793,640 794,640 795,640 795,640 796,640 796,638 797,638 798,638 798,638 799,636 799,636 800,636 801,636 801,636 802,636 803,636 803,636 804,636 804,636 805,634 806,634 806,634 807,634 807,634 808,634 809,632 809,630 810,630 811,630 811,630 812,630 812,630 813,630 814,630 814,628 815,628 816,626 816,626 817,628 817,628 818,628 819,628 819,628 820,628 820,626 821,626 822,626 822,626 823,626 824,626 824,626 825,626 825,626 826,626 827,626 827,626 828,626 828,626 829,626 830,626 830,626 831,626 832,626 832,626 833,626 833,626 834,628 835,628 835,628 836,628 836,628 837,628 838,628 838,628 839,628 840,628 840,628 841,628 841,628 842,628 843,628 843,628 844,628 845,628 845,628 846,628 846,628 847,628 848,626 848,626 849,626 849,626 850,626 851,626 851,626 852,626 853,624 853,624 854,624 854,624 855,624 856,624 856,624 857,624 857,624 858,624 859,624 859,624 860,624 861,624 861,624 862,624 862,624 863,624 864,622 864,622 865,622 865,622 866,622 867,622 867,622 868,622 869,622 869,622 870,622 870,622 871,622 872,620 872,620 873,620 874,620 874,620 875,620 875,620 876,620 877,620 877,620 878,620 878,620 879,620 880,618 880,618 881,616 882,616 882,616 883,614 883,612 884,612 885,612 885,612 885,612 886,612 886,612 887,612 888,610 888,610 889,610 890,610 890,610 891,610 891,610 892,610 893,610 893,610 894,610 895,610 895,610 896,610 896,610 897,608 898,608 898,608 899,608 899,608 900,608 901,608 901,608 902,608 903,606 903,606 904,606 904,606 905,606 906,608 906,608 907,608 907,608 908,608 909,608 909,608 910,608 911,608 911,608 912,608 912,608 913,608 914,608 914,608 915,608 915,608 916,608 917,608 917,608 918,608 919,608 919,608 920,608 920,608 921,608 922,608 922,608 923,608 924,608 924,608 925,608 925,608 926,608 927,608 927,608 928,608 928,606 929,606 930,604 930,604 931,604 932,602 932,602 933,602 933,602 934,602 935,602 935,600 936,600 936,600 937,598 938,598 938,598 939,598 940,598 940,598 941,598 941,598 942,598 943,598 943,598 944,596 944,598 945,596 946,596 946,596 947,596 948,594 948,594 949,590 949,590 950,590 951,590 951,590 952,590 953,590 953,590 954,590 954,590 955,590 956,590 956,590 957,590 957,590 958,588 959,588 959,588 960,588 961,588 961,588 962,588 962,586 963,586 964,586 964,584 965,584 965,582 966,582 967,582 967,582 968,582 969,580 969,580 970,580 970,580 971,580 972,580 972,580 973,580 973,580 974,580 975,580 975,580 976,578 977,574 977,574 978,574 978,570 979,570 980,570 980,570 981,570 982,570 982,568 983,566 983,564 984,564 985,564 985,560 986,562 986,562 987,562 988,560 988,560 989,558 990,558 990,558 991,558 991,558 992,558 993,558 993,558 994,558 994,558 995,558 996,557 996,557 997,555 998,553 998,551 999,551 999,551 1000,547 1001,547 1001,547 1002,547 1003,547 1003,547 1004,549 1004,547 1005,547 1006,547 1006,547 1007,547 1007,547 1008,547 1009,547 1009,547 1010,547 1011,545 1011,545 1012,545 1012,545 1013,545 1014,545 1014,545 1015,545 1015,545 1016,545 1017,545 1017,545 1018,545 1019,545 1019,545 1020,545 1020,545 1021,545 1022,545 1022,545 1023,545 1023,545 1024,545 1025,545 1025,545 1026,543 1027,541 1027,541 1028,539 1028,539 1029,539 1030,539 1030,537 1031,537 1032,537 1032,537 1033,537 1033,537 1034,537 1035,537 1035,537 1036,535 1036,535 1037,535 1038,535 1038,533 1039,533 1040,531 1040,531 1041,531 1041,531 1042,531 1043,531 1043,529 1044,529 1044,527 1045,527 1046,527 1046,527 1047,527 1048,525 1048,525 1049,525 1049,525 1050,527 1051,527 1051,527 1052,527 1052,527 1053,527 1054,527 1054,527 1055,527 1056,527 1056,527 1057,523 1057,523 1058,521 1059,521 1059,521 1060,521 1061,521 1061,521 1062,521 1062,521 1063,523 1064,521 1064,521 1066,519 1067,519 1068,519 1069,519 1069,519 1070,517 1070,517 1071,517 1072,513 1073,513 1073,513 1074,513 1075,513 1075,513 1077,513 1077,513 1078,513 1078,513 1079,513 1080,513 1080,511 1081,511 1081,511 1082,511 1083,511 1083,511 1084,511 1085,509 1085,509 1086,509 1086,509 1087,509 1088,509 1088,509 1089,509 1090,509 1090,507 1091,507 1092,507 1093,505 1093,505 1094,505 1094,505 1095,503 1096,503 1096,501 1097,499 1098,499 1098,499 1099,499 1099,497 1100,497 1101,497 1101,497 1102,497 1102,497 1104,497 1105,495 1106,495 1106,495 1107,495 1108,495 1109,495 1109,493 1110,493 1112,493 1112,489 1113,489 1114,489 1114,489 1115,489 1116,487 1117,485 1117,485 1118,485 1119,483 1119,481 1120,481 1120,481 1121,479 1122,475 1122,475 1123,475 1123,473 1124,471 1125,471 1125,471 1127,469 1128,469 1128,463 1129,463 1130,461 1130,461 1132,461 1133,461 1133,461 1135,459 1135,459 1136,457 1136,457 1137,457 1138,455 1140,455 1140,451 1141,451 1141,447 1142,447 1143,445 1143,443 1144,441 1145,441 1146,441 1146,437 1147,437 1148,437 1148,437 1149,435 1149,435 1150,433 1151,433 1151,433 1152,433 1152,433 1153,433 1154,433 1155,433 1156,433 1156,433 1157,433 1157,433 1158,429 1159,427 1159,427 1160,423 1161,421 1162,417 1162,415 1163,413 1164,413 1164,411 1165,411 1165,405 1166,405 1167,405 1167,405 1169,405 1169,401 1170,399 1170,399 1171,399 1172,399 1172,399 1173,397 1173,397 1174,397 1175,395 1175,395 1176,395 1177,395 1178,395 1178,391 1179,391 1180,391 1180,387 1180,385 1181,385 1181,385 1181,383 1182,383 1183,383 1183,383 1183,385 1184,385 1184,387 1185,385 1185,381 1186,381 1186,381 1186,381 1186,381 1187,381 1187,381 1188,381 1188,381 1188,381 1188,381 1189,379 1190,379 1190,379 "/>
<rect x="1085" y="323" width="100" height="104" opacity="1" fill="#FFFFFF" stroke="none"/>
<rect x="1085" y="323" width="100" height="104" opacity="1" fill="none" stroke="#000000"/>
<text x="1125" y="333" dy="0.76em" text-anchor="start" font-family="sans-serif" font-size="9.67741935483871" opacity="1" fill="#000000">
ansi_term
</text>
<text x="1125" y="348" dy="0.76em" text-anchor="start" font-family="sans-serif" font-size="9.67741935483871" opacity="1" fill="#000000">
colored
</text>
<text x="1125" y="363" dy="0.76em" text-anchor="start" font-family="sans-serif" font-size="9.67741935483871" opacity="1" fill="#000000">
console
</text>
<text x="1125" y="378" dy="0.76em" text-anchor="start" font-family="sans-serif" font-size="9.67741935483871" opacity="1" fill="#000000">
term
</text>
<text x="1125" y="393" dy="0.76em" text-anchor="start" font-family="sans-serif" font-size="9.67741935483871" opacity="1" fill="#000000">
termcolor
</text>
<text x="1125" y="408" dy="0.76em" text-anchor="start" font-family="sans-serif" font-size="9.67741935483871" opacity="1" fill="#000000">
termion
</text>
<polyline fill="none" opacity="1" stroke="#E61919" stroke-width="2" points="1095,338 1115,338 "/>
<polyline fill="none" opacity="1" stroke="#E5E619" stroke-width="2" points="1095,352 1115,352 "/>
<polyline fill="none" opacity="1" stroke="#19E619" stroke-width="2" points="1095,367 1115,367 "/>
<polyline fill="none" opacity="1" stroke="#19E5E6" stroke-width="2" points="1095,382 1115,382 "/>
<polyline fill="none" opacity="1" stroke="#1919E6" stroke-width="2" points="1095,397 1115,397 "/>
<polyline fill="none" opacity="1" stroke="#E519E6" stroke-width="2" points="1095,412 1115,412 "/>
</svg>
