<svg width="1200" height="800" xmlns="http://www.w3.org/2000/svg">
<rect x="0" y="0" width="1199" height="799" opacity="1" fill="#FFFFFF" stroke="none"/>
<line opacity="0.1" stroke="#000000" stroke-width="1" x1="60" y1="732" x2="1190" y2="732"/>
<line opacity="0.1" stroke="#000000" stroke-width="1" x1="60" y1="725" x2="1190" y2="725"/>
<line opacity="0.1" stroke="#000000" stroke-width="1" x1="60" y1="717" x2="1190" y2="717"/>
<line opacity="0.1" stroke="#000000" stroke-width="1" x1="60" y1="710" x2="1190" y2="710"/>
<line opacity="0.1" stroke="#000000" stroke-width="1" x1="60" y1="702" x2="1190" y2="702"/>
<line opacity="0.1" stroke="#000000" stroke-width="1" x1="60" y1="695" x2="1190" y2="695"/>
<line opacity="0.1" stroke="#000000" stroke-width="1" x1="60" y1="687" x2="1190" y2="687"/>
<line opacity="0.1" stroke="#000000" stroke-width="1" x1="60" y1="680" x2="1190" y2="680"/>
<line opacity="0.1" stroke="#000000" stroke-width="1" x1="60" y1="672" x2="1190" y2="672"/>
<line opacity="0.1" stroke="#000000" stroke-width="1" x1="60" y1="665" x2="1190" y2="665"/>
<line opacity="0.1" stroke="#000000" stroke-width="1" x1="60" y1="657" x2="1190" y2="657"/>
<line opacity="0.1" stroke="#000000" stroke-width="1" x1="60" y1="650" x2="1190" y2="650"/>
<line opacity="0.1" stroke="#000000" stroke-width="1" x1="60" y1="643" x2="1190" y2="643"/>
<line opacity="0.1" stroke="#000000" stroke-width="1" x1="60" y1="635" x2="1190" y2="635"/>
<line opacity="0.1" stroke="#000000" stroke-width="1" x1="60" y1="628" x2="1190" y2="628"/>
<line opacity="0.1" stroke="#000000" stroke-width="1" x1="60" y1="620" x2="1190" y2="620"/>
<line opacity="0.1" stroke="#000000" stroke-width="1" x1="60" y1="613" x2="1190" y2="613"/>
<line opacity="0.1" stroke="#000000" stroke-width="1" x1="60" y1="605" x2="1190" y2="605"/>
<line opacity="0.1" stroke="#000000" stroke-width="1" x1="60" y1="598" x2="1190" y2="598"/>
<line opacity="0.1" stroke="#000000" stroke-width="1" x1="60" y1="590" x2="1190" y2="590"/>
<line opacity="0.1" stroke="#000000" stroke-width="1" x1="60" y1="583" x2="1190" y2="583"/>
<line opacity="0.1" stroke="#000000" stroke-width="1" x1="60" y1="575" x2="1190" y2="575"/>
<line opacity="0.1" stroke="#000000" stroke-width="1" x1="60" y1="568" x2="1190" y2="568"/>
<line opacity="0.1" stroke="#000000" stroke-width="1" x1="60" y1="560" x2="1190" y2="560"/>
<line opacity="0.1" stroke="#000000" stroke-width="1" x1="60" y1="553" x2="1190" y2="553"/>
<line opacity="0.1" stroke="#000000" stroke-width="1" x1="60" y1="545" x2="1190" y2="545"/>
<line opacity="0.1" stroke="#000000" stroke-width="1" x1="60" y1="538" x2="1190" y2="538"/>
<line opacity="0.1" stroke="#000000" stroke-width="1" x1="60" y1="530" x2="1190" y2="530"/>
<line opacity="0.1" stroke="#000000" stroke-width="1" x1="60" y1="523" x2="1190" y2="523"/>
<line opacity="0.1" stroke="#000000" stroke-width="1" x1="60" y1="515" x2="1190" y2="515"/>
<line opacity="0.1" stroke="#000000" stroke-width="1" x1="60" y1="508" x2="1190" y2="508"/>
<line opacity="0.1" stroke="#000000" stroke-width="1" x1="60" y1="500" x2="1190" y2="500"/>
<line opacity="0.1" stroke="#000000" stroke-width="1" x1="60" y1="493" x2="1190" y2="493"/>
<line opacity="0.1" stroke="#000000" stroke-width="1" x1="60" y1="485" x2="1190" y2="485"/>
<line opacity="0.1" stroke="#000000" stroke-width="1" x1="60" y1="478" x2="1190" y2="478"/>
<line opacity="0.1" stroke="#000000" stroke-width="1" x1="60" y1="470" x2="1190" y2="470"/>
<line opacity="0.1" stroke="#000000" stroke-width="1" x1="60" y1="463" x2="1190" y2="463"/>
<line opacity="0.1" stroke="#000000" stroke-width="1" x1="60" y1="455" x2="1190" y2="455"/>
<line opacity="0.1" stroke="#000000" stroke-width="1" x1="60" y1="448" x2="1190" y2="448"/>
<line opacity="0.1" stroke="#000000" stroke-width="1" x1="60" y1="440" x2="1190" y2="440"/>
<line opacity="0.1" stroke="#000000" stroke-width="1" x1="60" y1="433" x2="1190" y2="433"/>
<line opacity="0.1" stroke="#000000" stroke-width="1" x1="60" y1="425" x2="1190" y2="425"/>
<line opacity="0.1" stroke="#000000" stroke-width="1" x1="60" y1="418" x2="1190" y2="418"/>
<line opacity="0.1" stroke="#000000" stroke-width="1" x1="60" y1="410" x2="1190" y2="410"/>
<line opacity="0.1" stroke="#000000" stroke-width="1" x1="60" y1="403" x2="1190" y2="403"/>
<line opacity="0.1" stroke="#000000" stroke-width="1" x1="60" y1="395" x2="1190" y2="395"/>
<line opacity="0.1" stroke="#000000" stroke-width="1" x1="60" y1="388" x2="1190" y2="388"/>
<line opacity="0.1" stroke="#000000" stroke-width="1" x1="60" y1="380" x2="1190" y2="380"/>
<line opacity="0.1" stroke="#000000" stroke-width="1" x1="60" y1="373" x2="1190" y2="373"/>
<line opacity="0.1" stroke="#000000" stroke-width="1" x1="60" y1="365" x2="1190" y2="365"/>
<line opacity="0.1" stroke="#000000" stroke-width="1" x1="60" y1="358" x2="1190" y2="358"/>
<line opacity="0.1" stroke="#000000" stroke-width="1" x1="60" y1="351" x2="1190" y2="351"/>
<line opacity="0.1" stroke="#000000" stroke-width="1" x1="60" y1="343" x2="1190" y2="343"/>
<line opacity="0.1" stroke="#000000" stroke-width="1" x1="60" y1="336" x2="1190" y2="336"/>
<line opacity="0.1" stroke="#000000" stroke-width="1" x1="60" y1="328" x2="1190" y2="328"/>
<line opacity="0.1" stroke="#000000" stroke-width="1" x1="60" y1="321" x2="1190" y2="321"/>
<line opacity="0.1" stroke="#000000" stroke-width="1" x1="60" y1="313" x2="1190" y2="313"/>
<line opacity="0.1" stroke="#000000" stroke-width="1" x1="60" y1="306" x2="1190" y2="306"/>
<line opacity="0.1" stroke="#000000" stroke-width="1" x1="60" y1="298" x2="1190" y2="298"/>
<line opacity="0.1" stroke="#000000" stroke-width="1" x1="60" y1="291" x2="1190" y2="291"/>
<line opacity="0.1" stroke="#000000" stroke-width="1" x1="60" y1="283" x2="1190" y2="283"/>
<line opacity="0.1" stroke="#000000" stroke-width="1" x1="60" y1="276" x2="1190" y2="276"/>
<line opacity="0.1" stroke="#000000" stroke-width="1" x1="60" y1="268" x2="1190" y2="268"/>
<line opacity="0.1" stroke="#000000" stroke-width="1" x1="60" y1="261" x2="1190" y2="261"/>
<line opacity="0.1" stroke="#000000" stroke-width="1" x1="60" y1="253" x2="1190" y2="253"/>
<line opacity="0.1" stroke="#000000" stroke-width="1" x1="60" y1="246" x2="1190" y2="246"/>
<line opacity="0.1" stroke="#000000" stroke-width="1" x1="60" y1="238" x2="1190" y2="238"/>
<line opacity="0.1" stroke="#000000" stroke-width="1" x1="60" y1="231" x2="1190" y2="231"/>
<line opacity="0.1" stroke="#000000" stroke-width="1" x1="60" y1="223" x2="1190" y2="223"/>
<line opacity="0.1" stroke="#000000" stroke-width="1" x1="60" y1="216" x2="1190" y2="216"/>
<line opacity="0.1" stroke="#000000" stroke-width="1" x1="60" y1="208" x2="1190" y2="208"/>
<line opacity="0.1" stroke="#000000" stroke-width="1" x1="60" y1="201" x2="1190" y2="201"/>
<line opacity="0.1" stroke="#000000" stroke-width="1" x1="60" y1="193" x2="1190" y2="193"/>
<line opacity="0.1" stroke="#000000" stroke-width="1" x1="60" y1="186" x2="1190" y2="186"/>
<line opacity="0.1" stroke="#000000" stroke-width="1" x1="60" y1="178" x2="1190" y2="178"/>
<line opacity="0.1" stroke="#000000" stroke-width="1" x1="60" y1="171" x2="1190" y2="171"/>
<line opacity="0.1" stroke="#000000" stroke-width="1" x1="60" y1="163" x2="1190" y2="163"/>
<line opacity="0.1" stroke="#000000" stroke-width="1" x1="60" y1="156" x2="1190" y2="156"/>
<line opacity="0.1" stroke="#000000" stroke-width="1" x1="60" y1="148" x2="1190" y2="148"/>
<line opacity="0.1" stroke="#000000" stroke-width="1" x1="60" y1="141" x2="1190" y2="141"/>
<line opacity="0.1" stroke="#000000" stroke-width="1" x1="60" y1="133" x2="1190" y2="133"/>
<line opacity="0.1" stroke="#000000" stroke-width="1" x1="60" y1="126" x2="1190" y2="126"/>
<line opacity="0.1" stroke="#000000" stroke-width="1" x1="60" y1="118" x2="1190" y2="118"/>
<line opacity="0.1" stroke="#000000" stroke-width="1" x1="60" y1="111" x2="1190" y2="111"/>
<line opacity="0.1" stroke="#000000" stroke-width="1" x1="60" y1="103" x2="1190" y2="103"/>
<line opacity="0.1" stroke="#000000" stroke-width="1" x1="60" y1="96" x2="1190" y2="96"/>
<line opacity="0.1" stroke="#000000" stroke-width="1" x1="60" y1="88" x2="1190" y2="88"/>
<line opacity="0.1" stroke="#000000" stroke-width="1" x1="60" y1="81" x2="1190" y2="81"/>
<line opacity="0.1" stroke="#000000" stroke-width="1" x1="60" y1="73" x2="1190" y2="73"/>
<line opacity="0.1" stroke="#000000" stroke-width="1" x1="60" y1="66" x2="1190" y2="66"/>
<line opacity="0.1" stroke="#000000" stroke-width="1" x1="60" y1="59" x2="1190" y2="59"/>
<line opacity="0.1" stroke="#000000" stroke-width="1" x1="60" y1="51" x2="1190" y2="51"/>
<line opacity="0.1" stroke="#000000" stroke-width="1" x1="60" y1="44" x2="1190" y2="44"/>
<line opacity="0.1" stroke="#000000" stroke-width="1" x1="60" y1="36" x2="1190" y2="36"/>
<line opacity="0.1" stroke="#000000" stroke-width="1" x1="60" y1="29" x2="1190" y2="29"/>
<line opacity="0.1" stroke="#000000" stroke-width="1" x1="60" y1="21" x2="1190" y2="21"/>
<line opacity="0.1" stroke="#000000" stroke-width="1" x1="60" y1="14" x2="1190" y2="14"/>
<text x="10" y="375" dy="0.76em" text-anchor="middle" font-family="sans-serif" font-size="9.67741935483871" opacity="1" fill="#000000" transform="rotate(270, 10, 375)">
Number of dependent crates
</text>
<line opacity="0.2" stroke="#000000" stroke-width="1" x1="60" y1="665" x2="1190" y2="665"/>
<line opacity="0.2" stroke="#000000" stroke-width="1" x1="60" y1="590" x2="1190" y2="590"/>
<line opacity="0.2" stroke="#000000" stroke-width="1" x1="60" y1="515" x2="1190" y2="515"/>
<line opacity="0.2" stroke="#000000" stroke-width="1" x1="60" y1="440" x2="1190" y2="440"/>
<line opacity="0.2" stroke="#000000" stroke-width="1" x1="60" y1="365" x2="1190" y2="365"/>
<line opacity="0.2" stroke="#000000" stroke-width="1" x1="60" y1="291" x2="1190" y2="291"/>
<line opacity="0.2" stroke="#000000" stroke-width="1" x1="60" y1="216" x2="1190" y2="216"/>
<line opacity="0.2" stroke="#000000" stroke-width="1" x1="60" y1="141" x2="1190" y2="141"/>
<line opacity="0.2" stroke="#000000" stroke-width="1" x1="60" y1="66" x2="1190" y2="66"/>
<polyline fill="none" opacity="1" stroke="#000000" stroke-width="1" points="59,10 59,740 "/>
<text x="50" y="665" dy="0.5ex" text-anchor="end" font-family="sans-serif" font-size="9.67741935483871" opacity="1" fill="#000000">
50
</text>
<polyline fill="none" opacity="1" stroke="#000000" stroke-width="1" points="54,665 59,665 "/>
<text x="50" y="590" dy="0.5ex" text-anchor="end" font-family="sans-serif" font-size="9.67741935483871" opacity="1" fill="#000000">
100
</text>
<polyline fill="none" opacity="1" stroke="#000000" stroke-width="1" points="54,590 59,590 "/>
<text x="50" y="515" dy="0.5ex" text-anchor="end" font-family="sans-serif" font-size="9.67741935483871" opacity="1" fill="#000000">
150
</text>
<polyline fill="none" opacity="1" stroke="#000000" stroke-width="1" points="54,515 59,515 "/>
<text x="50" y="440" dy="0.5ex" text-anchor="end" font-family="sans-serif" font-size="9.67741935483871" opacity="1" fill="#000000">
200
</text>
<polyline fill="none" opacity="1" stroke="#000000" stroke-width="1" points="54,440 59,440 "/>
<text x="50" y="365" dy="0.5ex" text-anchor="end" font-family="sans-serif" font-size="9.67741935483871" opacity="1" fill="#000000">
250
</text>
<polyline fill="none" opacity="1" stroke="#000000" stroke-width="1" points="54,365 59,365 "/>
<text x="50" y="291" dy="0.5ex" text-anchor="end" font-family="sans-serif" font-size="9.67741935483871" opacity="1" fill="#000000">
300
</text>
<polyline fill="none" opacity="1" stroke="#000000" stroke-width="1" points="54,291 59,291 "/>
<text x="50" y="216" dy="0.5ex" text-anchor="end" font-family="sans-serif" font-size="9.67741935483871" opacity="1" fill="#000000">
350
</text>
<polyline fill="none" opacity="1" stroke="#000000" stroke-width="1" points="54,216 59,216 "/>
<text x="50" y="141" dy="0.5ex" text-anchor="end" font-family="sans-serif" font-size="9.67741935483871" opacity="1" fill="#000000">
400
</text>
<polyline fill="none" opacity="1" stroke="#000000" stroke-width="1" points="54,141 59,141 "/>
<text x="50" y="66" dy="0.5ex" text-anchor="end" font-family="sans-serif" font-size="9.67741935483871" opacity="1" fill="#000000">
450
</text>
<polyline fill="none" opacity="1" stroke="#000000" stroke-width="1" points="54,66 59,66 "/>
<polyline fill="none" opacity="1" stroke="#000000" stroke-width="1" points="60,740 1190,740 "/>
<text x="60" y="750" dy="0.76em" text-anchor="middle" font-family="sans-serif" font-size="9.67741935483871" opacity="1" fill="#000000">
2015-01-27Z
</text>
<polyline fill="none" opacity="1" stroke="#000000" stroke-width="1" points="60,740 60,745 "/>
<text x="175" y="750" dy="0.76em" text-anchor="middle" font-family="sans-serif" font-size="9.67741935483871" opacity="1" fill="#000000">
2015-08-18Z
</text>
<polyline fill="none" opacity="1" stroke="#000000" stroke-width="1" points="175,740 175,745 "/>
<text x="291" y="750" dy="0.76em" text-anchor="middle" font-family="sans-serif" font-size="9.67741935483871" opacity="1" fill="#000000">
2016-03-08Z
</text>
<polyline fill="none" opacity="1" stroke="#000000" stroke-width="1" points="291,740 291,745 "/>
<text x="407" y="750" dy="0.76em" text-anchor="middle" font-family="sans-serif" font-size="9.67741935483871" opacity="1" fill="#000000">
2016-09-27Z
</text>
<polyline fill="none" opacity="1" stroke="#000000" stroke-width="1" points="407,740 407,745 "/>
<text x="523" y="750" dy="0.76em" text-anchor="middle" font-family="sans-serif" font-size="9.67741935483871" opacity="1" fill="#000000">
2017-04-18Z
</text>
<polyline fill="none" opacity="1" stroke="#000000" stroke-width="1" points="523,740 523,745 "/>
<text x="639" y="750" dy="0.76em" text-anchor="middle" font-family="sans-serif" font-size="9.67741935483871" opacity="1" fill="#000000">
2017-11-07Z
</text>
<polyline fill="none" opacity="1" stroke="#000000" stroke-width="1" points="639,740 639,745 "/>
<text x="755" y="750" dy="0.76em" text-anchor="middle" font-family="sans-serif" font-size="9.67741935483871" opacity="1" fill="#000000">
2018-05-29Z
</text>
<polyline fill="none" opacity="1" stroke="#000000" stroke-width="1" points="755,740 755,745 "/>
<text x="871" y="750" dy="0.76em" text-anchor="middle" font-family="sans-serif" font-size="9.67741935483871" opacity="1" fill="#000000">
2018-12-18Z
</text>
<polyline fill="none" opacity="1" stroke="#000000" stroke-width="1" points="871,740 871,745 "/>
<text x="987" y="750" dy="0.76em" text-anchor="middle" font-family="sans-serif" font-size="9.67741935483871" opacity="1" fill="#000000">
2019-07-09Z
</text>
<polyline fill="none" opacity="1" stroke="#000000" stroke-width="1" points="987,740 987,745 "/>
<text x="1103" y="750" dy="0.76em" text-anchor="middle" font-family="sans-serif" font-size="9.67741935483871" opacity="1" fill="#000000">
2020-01-28Z
</text>
<polyline fill="none" opacity="1" stroke="#000000" stroke-width="1" points="1103,740 1103,745 "/>
<polyline fill="none" opacity="1" stroke="#E61919" stroke-width="2" points="116,738 123,737 127,737 133,735 135,735 135,734 136,734 138,734 139,734 141,734 142,734 143,734 143,734 144,732 145,732 148,732 151,732 161,732 169,732 170,732 173,732 175,734 179,734 180,734 181,734 181,734 183,734 190,734 195,734 199,734 204,734 205,732 207,732 209,732 212,732 213,731 213,731 214,729 215,729 216,729 219,729 219,729 220,726 221,726 221,726 222,726 223,726 223,726 224,726 225,725 226,723 227,723 228,723 229,723 230,723 230,723 231,723 233,723 234,723 235,723 236,723 237,723 237,723 239,723 241,723 241,723 242,723 242,723 243,722 244,722 246,722 250,722 251,722 251,722 252,722 253,720 254,720 254,719 255,719 256,719 257,719 258,717 258,717 259,716 259,716 260,716 260,716 262,714 263,714 264,714 264,714 265,714 266,714 266,714 267,714 267,714 268,714 270,713 270,713 271,713 271,713 272,713 274,713 275,713 276,713 276,713 278,713 278,713 279,713 280,713 281,711 282,711 283,711 283,711 284,711 284,711 286,711 286,711 287,711 287,711 288,711 288,711 290,711 290,711 291,711 291,711 292,711 292,711 293,711 294,710 295,710 295,710 296,710 298,710 298,710 299,710 299,710 301,710 302,710 302,710 303,710 304,710 304,710 305,710 306,710 306,710 307,710 308,710 309,710 310,710 310,708 312,708 312,708 313,708 314,707 314,707 315,707 315,705 316,705 316,705 317,705 318,705 318,705 319,705 319,705 320,705 320,705 323,705 323,705 324,705 325,705 326,705 326,705 327,705 327,705 328,705 328,705 329,705 330,705 330,705 331,705 331,705 332,705 332,705 333,705 334,705 334,705 336,705 336,705 337,705 338,705 338,705 339,705 342,705 342,705 343,705 343,705 344,705 344,705 345,705 346,705 346,705 347,705 347,705 348,705 348,705 349,705 350,705 350,705 351,704 351,702 352,701 352,699 353,699 354,699 354,699 355,699 355,699 356,699 356,699 357,699 358,699 358,699 359,699 359,699 360,699 360,699 361,698 362,698 362,696 363,696 363,696 364,696 364,696 365,696 366,696 366,695 367,695 368,695 368,695 369,695 370,695 370,695 372,695 373,695 374,695 375,693 375,693 376,693 376,693 378,693 378,692 379,690 380,689 380,687 381,687 383,687 384,687 385,686 386,686 386,686 387,686 388,686 389,684 390,684 391,684 391,684 392,684 392,683 393,683 394,683 394,684 395,684 395,684 396,684 397,683 398,683 399,683 400,683 400,683 401,683 402,683 402,683 403,683 404,683 404,683 405,683 406,681 406,681 407,680 407,678 408,677 408,678 409,678 410,678 410,678 411,678 411,678 412,678 412,678 413,678 414,678 414,678 415,678 415,678 416,677 416,677 417,677 418,677 418,677 419,677 419,677 420,677 421,677 422,672 423,672 423,671 424,671 424,671 425,671 426,669 426,669 427,668 427,668 428,668 428,668 430,668 430,668 431,668 431,668 432,668 432,668 433,668 434,666 434,666 435,666 435,666 436,668 436,668 437,668 437,668 438,668 439,668 439,668 440,668 440,668 441,668 441,668 442,668 443,668 443,668 444,668 444,668 445,666 446,666 447,665 447,665 448,665 448,665 449,665 450,665 452,665 452,665 453,663 453,663 454,663 455,663 455,663 456,662 456,662 457,662 457,662 458,662 459,662 459,662 460,662 460,660 461,660 461,659 462,659 463,659 463,657 464,656 464,657 465,657 465,657 466,657 467,657 467,657 468,657 469,657 469,657 470,656 471,656 471,656 472,656 472,656 473,656 473,656 474,656 475,656 475,654 476,654 476,654 477,654 477,654 478,654 479,654 479,653 480,653 480,653 481,653 481,653 482,653 483,651 483,651 484,651 484,650 485,650 485,649 486,649 487,649 487,647 488,647 488,647 489,647 489,646 490,644 491,644 491,644 492,644 492,644 493,644 493,644 494,644 495,643 495,641 496,641 496,641 497,641 497,641 498,641 499,640 499,640 500,640 500,640 501,640 501,638 502,638 503,638 503,638 504,638 504,638 505,638 505,638 506,638 507,640 507,638 508,638 508,638 509,638 509,637 510,637 511,637 511,637 512,637 512,637 513,637 513,637 514,635 515,635 515,635 516,634 516,631 517,631 517,631 518,631 519,631 519,632 520,632 520,632 521,632 521,632 522,632 523,632 523,632 524,632 524,632 525,632 525,632 526,632 527,632 527,632 528,632 528,632 529,632 529,632 530,631 531,629 531,628 532,628 532,626 533,626 533,626 534,626 535,626 535,626 536,625 536,625 537,625 537,625 538,625 539,625 539,625 540,623 540,623 541,623 541,623 542,625 543,623 543,623 544,622 544,622 545,622 545,622 546,622 547,620 547,620 548,622 548,620 549,620 549,620 550,620 551,620 551,619 552,619 552,619 553,619 553,619 554,619 555,619 555,619 556,619 556,619 557,619 557,619 558,619 559,619 559,619 560,619 560,619 561,619 561,619 562,619 563,619 563,619 564,619 564,619 565,619 565,619 566,619 567,619 567,619 568,619 568,619 569,616 569,616 570,616 571,619 571,619 572,619 572,619 573,619 573,619 574,617 575,616 575,616 576,616 576,616 577,616 577,616 578,616 579,616 579,616 580,616 580,616 581,616 581,616 582,616 583,616 583,616 584,616 584,616 585,616 585,616 586,616 587,616 587,616 588,614 588,613 589,613 589,613 590,611 591,611 591,610 592,610 592,610 593,610 593,610 594,610 595,610 595,610 596,610 596,610 597,610 597,610 598,610 599,608 599,607 600,607 600,607 601,607 601,607 602,605 603,605 603,605 604,605 604,605 605,605 605,604 606,604 607,604 607,601 608,599 608,601 609,599 609,596 610,596 611,596 611,596 612,596 612,596 613,596 613,598 614,598 615,598 615,598 616,598 616,598 617,598 617,596 618,596 619,596 619,596 620,596 620,596 621,596 621,596 622,596 623,596 623,596 624,596 624,596 625,595 625,595 626,595 627,595 628,595 628,595 629,593 629,593 630,592 630,592 631,592 632,590 632,590 633,590 633,590 634,590 634,587 635,587 636,587 636,586 637,586 637,586 638,586 638,586 639,584 640,583 640,583 641,581 641,581 642,581 642,581 643,581 644,581 644,581 645,580 645,578 646,578 646,578 647,578 648,578 648,578 649,578 649,578 650,578 650,578 651,578 652,580 652,580 653,580 653,578 654,578 654,578 655,578 656,578 656,577 657,577 657,577 658,577 658,577 659,577 660,577 660,577 661,577 661,577 662,574 662,574 663,574 664,574 664,574 665,574 665,574 666,574 666,574 667,574 668,574 668,574 669,574 669,572 670,572 670,572 671,572 672,572 672,572 673,571 673,571 674,571 674,571 675,571 676,569 676,569 677,569 677,568 678,568 678,566 679,566 680,565 680,566 681,566 681,566 682,566 682,566 683,566 684,566 684,566 685,566 685,566 686,568 686,568 687,568 688,568 688,568 689,568 689,566 690,566 690,563 691,563 692,563 692,562 693,562 693,560 694,560 694,560 695,560 696,562 696,562 697,560 697,560 698,560 698,560 699,560 700,560 700,560 701,560 701,560 702,560 702,560 703,560 704,559 704,557 705,557 705,557 706,557 706,557 707,556 708,557 708,556 709,556 709,556 710,556 710,556 711,556 712,556 712,556 713,556 713,556 714,554 714,554 715,554 716,553 716,551 717,551 717,551 718,550 718,550 719,548 720,548 720,548 721,547 721,547 722,547 722,547 723,548 724,548 724,548 725,548 725,548 726,548 726,548 727,548 728,548 728,548 729,548 729,548 730,550 730,550 731,550 732,548 732,548 733,548 733,548 734,547 734,547 735,547 736,544 736,544 737,544 737,544 738,544 738,544 739,544 740,542 740,542 741,542 741,542 742,542 742,542 743,542 744,542 744,542 745,542 745,542 746,542 746,542 748,542 748,542 749,542 749,542 750,542 750,542 751,541 752,541 752,539 753,539 753,539 754,538 754,538 755,539 756,539 756,539 757,536 757,536 758,535 758,535 759,535 760,533 760,533 761,533 761,533 762,533 762,533 763,533 764,532 764,532 765,532 765,532 766,532 766,532 767,532 768,532 768,532 769,532 769,532 770,529 770,529 771,529 772,529 772,529 773,529 773,529 774,529 774,529 775,529 776,529 776,529 777,529 777,529 778,529 778,527 779,527 780,526 780,526 781,526 781,526 782,526 782,526 783,526 784,524 784,521 785,521 785,521 786,521 786,521 787,521 788,521 788,521 789,521 789,521 790,521 790,521 791,521 792,521 792,521 793,521 793,523 794,523 794,521 795,521 796,521 796,521 797,521 797,521 798,521 798,521 799,521 800,521 800,520 801,520 801,520 802,520 802,518 803,517 804,517 804,517 805,517 805,517 806,517 806,517 807,517 808,517 808,517 809,517 809,517 810,517 810,517 811,517 812,517 812,515 813,515 813,515 814,514 814,514 815,514 815,514 816,514 817,514 817,514 818,514 818,514 819,514 819,514 820,514 821,514 821,514 822,514 822,514 823,512 823,512 823,512 824,512 825,512 825,512 826,511 826,511 827,511 827,511 828,509 829,509 829,509 830,508 830,508 831,508 831,506 832,506 833,506 833,506 834,505 834,505 835,505 835,503 836,503 837,503 837,502 838,502 838,500 839,500 839,500 840,500 841,500 841,500 842,499 842,499 843,499 843,499 844,499 845,499 845,499 846,499 846,499 847,497 847,497 848,497 849,497 849,497 850,497 850,497 851,497 851,496 852,496 853,496 853,494 854,494 854,494 855,494 855,493 856,493 857,493 857,491 858,490 858,490 859,490 859,488 860,485 861,485 861,485 862,485 862,485 863,485 863,485 864,485 865,482 865,482 866,481 866,481 867,479 867,478 868,478 869,478 869,478 870,478 870,476 871,475 871,475 872,475 873,475 873,475 874,475 874,475 875,475 875,475 876,475 877,475 877,475 878,475 878,475 879,475 879,472 880,472 881,470 881,469 882,469 882,467 883,467 883,467 884,466 885,466 885,466 886,466 886,464 887,464 887,464 888,463 889,463 889,461 890,461 890,461 891,461 891,461 892,460 893,460 893,460 894,460 894,460 895,458 895,458 896,458 897,458 897,458 898,457 898,457 899,455 899,455 900,455 901,455 901,455 902,455 902,455 903,455 903,455 904,455 905,454 905,454 906,454 906,454 907,454 907,454 908,454 909,454 909,454 910,454 910,454 911,452 911,452 912,452 913,452 913,452 914,452 914,452 915,452 915,451 916,451 917,448 917,448 918,448 918,448 919,448 919,448 920,448 921,448 921,446 922,445 922,443 923,443 923,443 924,443 925,443 925,443 926,442 926,442 927,442 927,442 928,442 929,442 929,442 930,442 930,442 931,442 931,439 932,439 933,439 933,439 934,439 934,437 935,437 935,437 936,437 937,437 937,437 938,437 938,436 939,436 939,436 940,436 941,436 941,436 942,436 942,434 943,434 943,434 944,434 945,433 945,431 946,431 946,431 947,431 947,431 948,430 949,430 949,430 950,430 950,430 951,430 951,430 952,430 953,430 953,430 954,430 954,428 955,428 955,428 956,424 957,424 957,424 958,424 958,422 959,422 959,422 960,421 961,421 961,421 962,421 962,421 963,421 963,421 964,419 965,419 965,419 966,419 966,419 967,419 967,419 968,418 969,415 969,415 970,415 970,415 971,415 971,413 972,413 973,413 973,413 974,413 974,413 975,413 975,413 976,413 977,413 977,413 978,413 978,413 979,413 979,413 980,413 981,409 981,409 982,409 982,409 983,409 983,409 984,409 985,409 985,409 986,406 986,406 987,406 987,406 988,404 989,404 989,404 990,404 990,404 991,404 991,403 992,403 993,401 993,401 994,401 994,401 995,401 995,401 996,401 997,401 997,401 998,400 998,400 999,398 999,398 1000,398 1001,398 1001,398 1002,398 1002,398 1003,398 1003,398 1004,397 1004,397 1005,397 1006,397 1006,397 1007,397 1007,397 1008,397 1008,397 1009,397 1010,395 1010,395 1011,395 1011,395 1012,394 1012,392 1013,392 1014,392 1014,392 1015,392 1015,392 1016,392 1016,392 1017,392 1018,391 1018,391 1019,389 1019,392 1020,392 1020,392 1021,392 1022,391 1022,391 1023,389 1023,388 1024,388 1024,388 1025,386 1026,386 1026,386 1027,385 1027,385 1028,379 1028,379 1029,377 1030,377 1030,377 1031,379 1031,379 1032,379 1032,377 1033,376 1034,376 1034,374 1035,374 1035,374 1036,374 1036,373 1037,371 1038,371 1038,370 1039,370 1039,374 1040,374 1040,373 1041,374 1042,374 1042,374 1043,374 1043,374 1044,374 1044,374 1044,374 1045,374 1046,374 1046,374 1047,374 1047,374 1048,374 1048,374 1049,373 1050,371 1050,368 1051,368 1051,368 1052,368 1052,368 1053,368 1054,368 1054,368 1055,368 1055,368 1056,367 1056,367 1057,367 1058,367 1058,367 1059,367 1059,367 1060,365 1060,365 1061,365 1062,365 1062,365 1063,365 1063,365 1064,365 1064,365 1065,365 1066,365 1066,365 1067,365 1067,365 1068,365 1068,364 1069,362 1070,362 1070,361 1071,359 1071,357 1072,357 1072,357 1073,357 1074,357 1074,357 1075,357 1075,355 1076,355 1076,355 1077,355 1078,354 1078,354 1079,345 1079,345 1080,345 1080,345 1081,345 1082,345 1082,343 1083,343 1083,343 1084,343 1084,343 1085,343 1086,343 1086,342 1087,342 1087,342 1088,340 1088,340 1089,339 1090,339 1090,339 1091,339 1091,339 1092,337 1092,337 1093,337 1094,337 1094,336 1095,336 1095,333 1096,333 1096,334 1097,334 1098,334 1098,333 1099,333 1099,333 1100,334 1100,334 1101,334 1102,334 1102,334 1103,334 1103,334 1104,334 1104,333 1105,333 1106,330 1106,328 1107,328 1107,328 1108,328 1108,328 1109,328 1110,328 1110,327 1111,327 1111,325 1112,325 1112,325 1113,325 1114,322 1114,322 1115,324 1115,324 1116,324 1116,324 1117,324 1118,324 1118,324 1119,324 1119,324 1120,321 1120,321 1121,322 1122,321 1122,319 1123,318 1123,318 1124,318 1124,318 1124,318 1125,318 1125,318 1126,318 1126,318 1126,318 1127,318 1127,318 1127,318 1128,318 1128,318 1128,318 1128,318 1129,318 1129,318 1130,318 1130,316 1130,316 1130,315 1131,315 1131,313 1131,313 1131,313 1132,313 1132,313 1132,313 1132,313 1133,313 1133,312 1134,312 1134,312 1134,310 1135,310 1135,310 1135,310 1136,310 1136,309 1136,309 1136,309 1137,309 1137,309 1138,309 1138,307 1138,307 1138,307 1139,306 1139,306 1139,306 1140,306 1140,306 1140,306 1140,306 1141,306 1141,306 1142,306 1142,306 1142,306 1142,306 1143,306 1143,306 1143,306 1143,306 1144,306 1144,306 1144,306 1145,306 1145,306 1146,306 1146,306 1146,306 1146,306 1147,306 1147,307 1147,307 1147,307 1148,307 1148,306 1148,306 1148,306 1149,306 1149,306 1150,306 1150,306 1150,306 1150,306 1151,306 1151,306 1151,304 1152,303 1152,303 1152,301 1153,301 1153,300 1154,300 1154,298 1154,298 1154,298 1155,298 1155,295 1155,295 1155,292 1156,292 1156,291 1156,291 1156,288 1157,288 1157,288 1158,289 1158,289 1158,289 1159,289 1159,289 1159,289 1159,288 1160,288 1160,286 1160,286 1160,285 1161,285 1162,285 1162,285 1162,285 1162,282 1163,282 1163,279 1163,279 1163,279 1164,279 1164,279 1164,279 1164,277 1165,277 1165,277 1166,277 1166,276 1166,276 1166,274 1167,274 1167,274 1167,274 1167,274 1168,274 1168,274 1168,274 1168,273 1169,273 1169,273 1170,273 1170,273 1170,273 1170,265 1171,265 1171,264 1171,264 1171,262 1172,262 1172,262 1172,262 1173,262 1173,262 1174,262 1174,262 1174,262 1174,261 1175,261 1175,261 1175,261 1175,261 1176,261 1176,261 1176,261 1176,259 1177,259 1177,259 1178,256 1178,256 1178,256 1179,256 1179,258 1179,258 1179,256 1180,256 1180,255 1180,255 1180,255 1181,255 1182,253 1182,253 1182,253 1183,253 1183,253 1183,253 1184,253 1184,253 1184,253 1184,252 1185,252 1185,250 1186,250 1186,250 1186,250 1186,249 1187,249 1187,249 1187,249 1187,249 1188,249 1188,247 1188,247 1188,247 1189,247 1190,247 "/>
<polyline fill="none" opacity="1" stroke="#E5E619" stroke-width="2" points="346,738 352,737 354,735 359,734 376,732 399,731 419,729 431,728 433,726 434,726 437,726 457,725 464,722 468,720 487,719 495,717 507,714 507,714 508,714 508,713 509,713 509,713 510,713 511,713 511,711 512,711 514,711 517,711 518,711 520,710 521,710 521,710 524,708 526,707 528,705 528,705 529,704 530,704 533,702 534,702 535,702 535,702 536,701 536,701 537,701 539,699 541,699 542,699 544,699 545,699 546,698 547,698 548,698 549,698 550,698 551,698 552,698 552,698 555,696 556,695 557,693 559,693 559,692 560,692 561,692 561,690 562,690 563,690 569,690 570,689 572,689 574,689 575,687 575,687 577,687 578,687 580,687 580,687 581,687 581,686 582,686 583,686 586,686 587,684 588,684 588,684 590,684 591,684 591,684 593,683 595,683 596,683 596,681 597,683 597,683 598,683 601,681 602,681 603,681 604,681 605,681 605,680 606,680 607,680 608,680 608,678 609,678 610,678 611,678 612,678 613,677 613,677 616,677 616,677 617,675 617,675 619,675 619,675 620,675 621,675 621,675 622,674 623,674 624,674 624,674 625,674 625,672 626,671 626,671 627,671 628,672 628,672 629,672 629,672 630,671 630,669 631,669 632,668 632,666 633,666 633,665 634,665 636,665 637,665 638,665 638,663 639,663 640,662 640,662 641,662 642,660 644,662 645,662 646,662 646,662 649,662 649,662 650,662 651,662 652,659 652,659 653,659 653,660 654,660 654,660 655,660 656,660 656,660 657,660 658,660 659,659 660,659 661,659 661,657 662,659 664,659 665,659 665,659 666,659 667,659 668,659 669,659 670,657 671,657 672,656 673,656 673,656 675,656 676,656 678,656 678,654 682,653 682,653 684,653 685,653 686,651 686,651 687,651 688,651 688,651 689,651 690,651 690,651 691,651 692,651 692,650 693,650 694,650 694,649 695,649 696,646 697,644 699,644 700,643 700,643 701,643 704,643 705,643 706,643 708,643 709,643 710,641 712,641 713,640 714,638 714,638 717,638 717,638 718,638 718,638 719,638 723,637 724,637 724,635 725,635 726,634 727,632 728,632 729,632 729,631 730,631 730,629 731,628 732,628 733,628 734,628 734,628 735,628 736,628 737,628 738,628 739,626 740,626 740,626 741,625 741,625 742,625 742,623 743,620 744,620 745,620 748,622 749,620 750,616 751,614 752,616 752,616 753,616 753,614 756,614 757,614 758,614 758,614 759,614 761,613 761,613 762,613 763,611 764,611 764,610 765,610 765,610 766,610 766,608 767,608 768,607 769,605 769,605 770,605 770,605 772,604 773,604 773,604 774,602 774,602 776,602 776,602 777,602 778,599 778,598 779,598 780,598 780,596 781,596 781,596 782,596 782,596 783,596 784,596 785,596 785,596 786,596 787,596 788,596 788,596 789,595 789,595 791,595 792,595 792,595 793,595 795,593 796,593 796,593 797,592 797,590 798,589 798,589 800,589 800,587 801,587 802,586 802,586 803,586 804,586 804,586 805,586 805,584 806,583 806,583 807,583 808,581 809,580 810,580 810,580 811,578 812,578 812,578 813,578 813,578 814,578 815,578 815,578 816,578 817,578 817,578 818,578 818,578 819,578 819,577 820,577 821,575 821,575 822,575 822,574 823,569 823,569 823,569 824,569 826,568 827,568 827,563 828,562 829,560 829,559 830,559 830,559 831,557 832,557 833,557 834,557 834,557 835,557 837,556 838,553 838,553 839,550 839,550 840,550 841,550 841,550 842,550 842,550 843,548 843,545 844,545 845,542 845,542 846,542 846,541 847,541 847,541 848,541 849,541 849,541 850,539 850,539 851,536 851,536 852,536 853,536 854,536 854,535 855,535 855,535 856,535 857,535 857,535 858,535 858,533 859,533 859,533 860,533 861,533 861,533 862,532 862,532 863,532 863,532 864,532 865,532 865,532 866,530 866,529 867,529 867,529 868,527 869,527 869,527 870,527 870,527 871,524 871,524 872,523 873,523 873,521 874,521 874,521 875,521 876,521 877,521 877,521 878,520 878,518 879,517 879,515 880,514 881,515 881,515 882,514 882,514 883,512 883,512 884,512 885,512 885,512 886,512 886,512 887,512 887,509 888,511 889,509 889,508 890,506 890,506 891,505 891,502 892,500 893,500 894,500 894,500 895,499 895,499 896,499 897,499 897,499 898,499 898,499 899,499 899,500 900,500 901,500 901,499 902,497 903,497 903,497 904,497 905,497 905,497 906,496 906,494 907,494 907,494 908,488 909,488 909,488 910,488 910,487 911,484 911,481 912,481 913,478 913,478 914,478 914,478 915,475 915,475 916,473 917,472 917,473 918,472 918,470 919,469 919,469 920,467 921,467 921,466 922,466 923,466 923,466 924,463 925,463 925,461 926,461 926,458 927,458 927,455 928,454 929,454 929,452 930,449 930,449 931,448 931,446 932,446 933,446 933,446 934,446 934,446 935,446 935,446 936,445 937,445 937,445 938,445 938,445 939,445 939,442 940,442 941,440 941,440 942,440 942,439 943,439 943,439 944,439 945,439 945,439 946,439 946,439 947,439 947,439 948,436 949,436 949,433 950,433 950,433 951,433 951,430 952,430 953,430 953,428 954,428 954,427 955,427 955,427 956,427 957,425 957,422 958,421 958,421 959,419 959,418 960,416 961,412 961,410 962,410 962,409 963,409 963,409 964,407 965,406 965,406 966,404 966,406 967,403 967,403 968,400 969,397 969,398 970,398 970,398 971,397 971,397 972,397 973,397 973,397 974,395 974,395 975,395 975,395 976,395 977,395 977,394 978,392 978,389 979,388 979,388 980,388 981,386 981,386 982,383 982,383 983,383 983,385 984,383 985,383 985,383 986,383 986,382 987,383 987,380 988,380 989,380 989,377 990,377 990,376 991,373 991,368 992,367 993,367 993,367 994,364 994,364 995,364 995,364 996,364 997,364 997,362 998,362 998,362 999,362 999,358 1000,357 1001,357 1001,357 1002,357 1002,357 1003,355 1003,355 1004,354 1004,352 1005,351 1006,351 1007,349 1007,348 1008,349 1008,349 1009,349 1010,349 1010,349 1011,348 1011,348 1012,349 1012,349 1013,349 1014,349 1014,349 1015,349 1015,349 1016,349 1016,348 1017,348 1018,348 1018,348 1019,348 1019,346 1020,346 1020,346 1021,346 1022,346 1022,346 1023,345 1023,345 1024,343 1024,343 1025,343 1026,343 1026,342 1027,343 1027,340 1028,340 1028,339 1029,339 1030,339 1030,339 1031,334 1031,330 1032,330 1032,330 1033,330 1034,330 1034,331 1035,330 1035,333 1036,333 1036,331 1037,331 1038,331 1038,330 1039,330 1039,330 1040,330 1040,328 1041,327 1042,327 1042,325 1043,324 1043,322 1044,322 1044,322 1044,321 1045,321 1046,321 1046,318 1047,318 1047,315 1048,312 1048,312 1049,312 1050,310 1050,310 1051,309 1051,310 1052,310 1052,310 1053,310 1054,306 1054,306 1055,306 1055,304 1056,304 1056,303 1057,303 1058,303 1058,303 1059,303 1059,303 1060,303 1060,303 1061,303 1062,303 1062,301 1063,301 1063,301 1064,300 1064,300 1065,298 1066,297 1066,297 1067,297 1067,297 1068,297 1068,297 1069,297 1070,297 1070,297 1071,297 1071,297 1072,295 1072,295 1073,292 1074,291 1074,291 1075,291 1075,289 1076,288 1076,286 1077,286 1078,286 1078,285 1079,283 1079,282 1080,282 1080,282 1081,282 1082,282 1082,280 1083,279 1083,279 1084,280 1084,279 1085,277 1086,277 1086,276 1087,276 1087,273 1088,273 1088,273 1089,270 1090,270 1090,268 1091,267 1091,264 1092,264 1092,264 1093,262 1094,262 1094,261 1095,261 1095,259 1096,259 1096,259 1097,259 1098,259 1098,258 1099,258 1099,258 1100,258 1100,256 1101,256 1102,256 1102,256 1103,256 1103,256 1104,255 1104,253 1105,253 1106,249 1106,249 1107,246 1107,246 1108,237 1108,234 1109,232 1110,229 1110,229 1111,228 1111,228 1112,228 1112,228 1113,226 1114,225 1114,220 1115,220 1115,220 1116,217 1116,219 1117,219 1118,219 1118,213 1119,213 1119,214 1120,214 1120,214 1121,211 1122,211 1122,210 1123,214 1123,214 1124,214 1124,213 1124,213 1125,213 1125,210 1126,210 1126,210 1126,210 1127,210 1127,210 1127,208 1128,208 1128,205 1128,205 1128,204 1129,204 1129,201 1130,201 1130,199 1130,199 1130,198 1131,198 1131,198 1131,198 1131,196 1132,196 1132,196 1132,196 1132,195 1133,195 1133,195 1134,192 1134,192 1134,193 1135,193 1135,193 1135,193 1136,193 1136,192 1136,192 1136,192 1137,192 1137,192 1138,192 1138,187 1138,187 1138,187 1139,187 1139,187 1139,187 1140,187 1140,187 1140,187 1140,184 1141,184 1141,183 1142,183 1142,183 1142,183 1142,181 1143,181 1143,181 1143,181 1143,180 1144,180 1144,178 1144,177 1145,177 1145,175 1146,175 1146,174 1146,174 1146,169 1147,169 1147,169 1147,169 1147,168 1148,168 1148,166 1148,166 1148,165 1149,165 1149,162 1150,162 1150,159 1150,159 1150,159 1151,159 1151,159 1151,157 1152,157 1152,157 1152,153 1153,153 1153,153 1154,153 1154,153 1154,153 1154,153 1155,153 1155,151 1155,151 1155,151 1156,151 1156,151 1156,151 1156,151 1157,151 1157,148 1158,148 1158,148 1158,148 1159,148 1159,147 1159,147 1159,144 1160,144 1160,141 1160,141 1160,139 1161,139 1162,139 1162,139 1162,139 1162,139 1163,139 1163,138 1163,138 1163,136 1164,136 1164,136 1164,136 1164,136 1165,136 1165,133 1166,133 1166,133 1166,133 1166,133 1167,133 1167,135 1167,135 1167,133 1168,133 1168,130 1168,130 1168,129 1169,129 1169,129 1170,129 1170,129 1170,129 1170,124 1171,124 1171,124 1171,124 1171,123 1172,121 1172,121 1172,121 1173,121 1173,117 1174,117 1174,115 1174,115 1174,115 1175,115 1175,115 1175,115 1175,114 1176,114 1176,114 1176,114 1176,112 1177,112 1177,111 1178,111 1178,111 1178,106 1179,106 1179,103 1179,103 1179,100 1180,100 1180,99 1180,99 1180,97 1181,96 1182,93 1182,93 1182,91 1183,88 1183,88 1183,87 1184,87 1184,87 1184,87 1184,87 1185,87 1185,87 1186,87 1186,85 1186,85 1186,81 1187,81 1187,81 1187,81 1187,79 1188,79 1188,78 1188,76 1188,76 1189,76 1190,75 "/>
<polyline fill="none" opacity="1" stroke="#19E619" stroke-width="2" points="535,738 536,737 539,737 540,737 541,737 541,737 543,737 543,737 546,737 547,737 549,737 549,737 551,737 552,737 556,737 557,737 559,737 559,737 560,737 562,737 564,737 565,737 566,737 567,737 568,737 569,737 571,735 571,735 572,735 572,735 575,735 575,735 576,735 576,735 577,735 579,735 579,735 581,735 581,735 583,735 584,735 584,735 585,735 586,735 587,735 587,735 588,735 589,735 590,735 591,735 592,735 593,735 593,735 594,735 595,735 596,735 596,735 597,735 598,735 599,735 600,735 600,735 601,735 601,735 603,735 603,735 604,735 606,735 607,734 607,734 608,734 609,734 609,734 610,734 611,734 611,734 612,734 612,734 613,734 613,734 615,734 622,732 623,732 623,732 624,732 626,732 628,732 628,732 630,732 632,732 632,732 633,732 633,732 634,732 640,732 641,732 642,732 642,732 644,732 644,732 645,732 645,732 646,732 647,732 648,732 648,732 649,732 649,732 650,732 650,732 652,731 652,731 653,731 656,731 657,731 657,731 658,731 658,731 659,731 660,729 660,729 661,729 661,729 662,729 665,729 667,729 668,729 669,729 671,729 672,729 673,729 676,729 677,729 679,729 680,729 680,728 683,728 684,728 685,728 685,728 686,728 687,728 688,728 689,728 690,726 690,726 692,726 693,726 693,726 694,726 694,726 698,726 699,726 700,726 700,726 701,726 702,726 705,726 705,726 706,726 706,726 710,726 711,726 712,726 712,726 713,725 714,723 719,723 720,723 722,723 722,723 723,723 726,723 728,723 729,723 730,720 731,722 732,722 733,722 733,722 734,720 734,720 735,720 737,720 737,720 740,720 744,720 744,719 745,717 745,717 746,717 746,717 748,717 748,714 750,714 754,713 756,713 757,713 763,713 764,713 764,713 765,713 768,713 769,713 769,713 770,713 774,713 774,713 776,713 777,713 778,713 779,713 780,711 783,710 784,708 785,708 786,708 787,708 788,708 789,708 792,708 792,708 793,708 794,708 796,707 796,707 797,707 798,705 799,705 800,705 800,705 801,705 802,705 803,705 804,705 806,704 806,702 807,702 812,701 812,701 814,701 814,701 819,699 819,699 822,698 826,698 828,696 831,696 834,696 834,696 836,696 837,696 838,695 838,695 839,693 839,693 842,693 842,693 843,693 845,692 846,692 846,690 849,690 850,690 850,689 851,689 854,687 854,687 855,687 858,686 858,686 859,686 860,684 861,684 863,683 863,683 865,683 866,683 867,683 868,683 870,683 875,681 876,681 877,681 878,681 879,681 879,681 880,681 881,681 881,681 882,680 883,678 883,678 886,677 886,677 887,677 888,677 889,675 889,675 890,675 890,675 891,675 893,675 894,674 894,674 895,672 897,672 897,672 898,672 898,672 899,672 899,672 901,672 901,672 902,672 902,672 903,672 905,669 906,669 906,669 907,669 907,669 908,668 909,668 909,668 910,666 911,666 911,666 912,666 913,666 913,666 914,666 915,666 915,666 916,666 917,666 917,666 918,666 918,666 919,666 919,666 920,666 921,666 922,666 923,666 923,666 924,666 925,666 926,666 927,666 927,666 928,666 929,666 929,666 930,666 930,666 931,666 931,666 932,666 933,666 933,666 934,666 934,665 935,665 935,665 936,665 937,665 937,663 938,663 938,663 939,663 939,663 940,663 941,663 941,663 942,663 942,663 943,663 943,663 944,663 945,663 945,662 946,662 946,662 947,662 947,662 948,662 949,662 949,662 950,662 950,660 951,660 951,660 952,659 953,659 953,659 954,659 954,659 955,659 955,659 956,659 957,659 957,657 958,657 958,656 959,656 959,656 960,656 961,656 961,656 962,656 962,656 963,656 963,656 964,654 965,654 965,653 966,653 966,653 967,653 967,653 968,653 969,653 969,653 970,653 970,653 971,653 971,653 972,653 973,653 973,653 974,653 974,653 975,653 975,653 976,651 977,651 977,651 978,651 978,651 979,651 979,651 980,651 981,651 981,651 982,651 982,651 983,651 983,651 984,651 985,651 985,651 986,651 986,651 987,651 987,651 988,651 989,651 989,651 990,651 990,651 991,651 991,651 992,651 993,650 993,650 994,649 994,649 995,649 995,649 996,649 997,649 997,647 998,647 998,647 999,647 999,646 1000,646 1001,646 1001,646 1002,644 1002,644 1003,643 1003,643 1004,641 1004,641 1005,641 1006,641 1006,641 1007,640 1007,640 1008,641 1008,641 1009,638 1010,638 1010,637 1011,637 1011,638 1012,638 1012,638 1013,638 1014,638 1014,634 1015,634 1015,634 1016,634 1016,634 1017,634 1018,634 1018,634 1019,634 1019,632 1020,631 1020,631 1021,631 1022,631 1022,631 1023,631 1023,631 1024,631 1024,631 1025,631 1026,631 1026,631 1027,631 1027,631 1028,629 1028,629 1029,629 1030,629 1030,628 1031,628 1031,628 1032,628 1032,628 1033,628 1034,628 1034,625 1035,625 1035,623 1036,623 1036,623 1037,623 1038,623 1038,623 1039,622 1039,622 1040,622 1040,622 1041,620 1042,620 1042,619 1043,619 1043,619 1044,619 1044,619 1044,619 1045,619 1046,619 1046,619 1047,619 1047,619 1048,619 1048,619 1049,619 1050,619 1050,619 1051,619 1051,617 1052,617 1052,617 1053,617 1054,617 1054,616 1055,616 1055,614 1056,614 1056,614 1057,614 1058,611 1058,611 1059,611 1059,611 1060,611 1060,611 1061,611 1062,611 1062,611 1063,611 1063,611 1064,611 1064,611 1065,611 1066,611 1066,611 1067,611 1067,608 1068,608 1068,608 1069,608 1070,608 1070,608 1071,608 1071,608 1072,608 1072,608 1073,608 1074,608 1074,608 1075,608 1075,608 1076,607 1076,607 1077,607 1078,607 1078,607 1079,607 1079,608 1080,610 1080,610 1081,610 1082,610 1082,608 1083,608 1083,608 1084,608 1084,608 1085,607 1086,607 1086,607 1087,607 1087,605 1088,604 1088,604 1089,604 1090,604 1090,604 1091,604 1091,604 1092,604 1092,604 1093,602 1094,601 1094,601 1095,601 1095,599 1096,599 1096,598 1097,598 1098,598 1098,596 1099,595 1099,593 1100,593 1100,593 1101,592 1102,592 1102,592 1103,592 1103,592 1104,592 1104,592 1105,592 1106,592 1106,592 1107,592 1107,592 1108,589 1108,589 1109,587 1110,587 1110,587 1111,587 1111,586 1112,586 1112,586 1113,586 1114,586 1114,584 1115,580 1115,580 1116,581 1116,581 1117,578 1118,578 1118,578 1119,577 1119,577 1120,577 1120,577 1121,577 1122,577 1122,577 1123,578 1123,578 1124,578 1124,578 1124,575 1125,575 1125,575 1126,575 1126,575 1126,575 1127,575 1127,575 1127,575 1128,575 1128,575 1128,575 1128,575 1129,575 1129,575 1130,575 1130,575 1130,575 1130,574 1131,574 1131,574 1131,574 1131,571 1132,571 1132,571 1132,571 1132,571 1133,571 1133,571 1134,569 1134,569 1134,569 1135,569 1135,569 1135,569 1136,569 1136,568 1136,568 1136,568 1137,568 1137,568 1138,568 1138,568 1138,568 1138,568 1139,565 1139,565 1139,565 1140,565 1140,565 1140,565 1140,565 1141,565 1141,563 1142,563 1142,563 1142,563 1142,563 1143,563 1143,563 1143,563 1143,563 1144,563 1144,563 1144,563 1145,563 1145,563 1146,563 1146,563 1146,563 1146,563 1147,563 1147,563 1147,563 1147,563 1148,563 1148,563 1148,563 1148,563 1149,563 1149,563 1150,563 1150,563 1150,563 1150,562 1151,562 1151,562 1151,562 1152,562 1152,562 1152,560 1153,560 1153,560 1154,560 1154,560 1154,560 1154,560 1155,560 1155,560 1155,560 1155,559 1156,559 1156,559 1156,559 1156,559 1157,559 1157,559 1158,557 1158,557 1158,556 1159,556 1159,553 1159,553 1159,553 1160,553 1160,553 1160,553 1160,553 1161,553 1162,553 1162,551 1162,551 1162,551 1163,551 1163,550 1163,550 1163,550 1164,550 1164,550 1164,550 1164,550 1165,550 1165,550 1166,550 1166,548 1166,548 1166,548 1167,548 1167,548 1167,548 1167,544 1168,544 1168,544 1168,544 1168,544 1169,544 1169,544 1170,544 1170,544 1170,544 1170,545 1171,545 1171,545 1171,545 1171,544 1172,544 1172,544 1172,544 1173,544 1173,544 1174,544 1174,544 1174,544 1174,544 1175,544 1175,544 1175,544 1175,544 1176,544 1176,544 1176,544 1176,542 1177,542 1177,542 1178,538 1178,538 1178,538 1179,538 1179,536 1179,536 1179,536 1180,536 1180,535 1180,535 1180,535 1181,535 1182,533 1182,533 1182,533 1183,533 1183,533 1183,533 1184,533 1184,532 1184,532 1184,532 1185,532 1185,532 1186,532 1186,532 1186,532 1186,532 1187,532 1187,532 1187,532 1187,532 1188,532 1188,532 1188,532 1188,532 1189,532 1190,532 "/>
<polyline fill="none" opacity="1" stroke="#19E5E6" stroke-width="2" points="60,738 82,737 98,735 103,734 107,732 107,728 111,726 115,725 117,725 118,725 118,725 121,728 123,728 123,726 125,726 125,726 127,725 127,720 129,720 130,720 131,720 131,720 133,720 134,720 134,720 135,719 136,719 137,717 138,717 139,717 141,717 142,717 142,717 143,717 144,717 145,717 145,717 146,717 148,716 149,716 150,716 151,716 151,716 152,716 153,714 154,714 155,714 155,714 158,714 159,714 159,714 160,714 161,714 161,713 162,713 162,708 163,708 163,708 165,708 165,708 166,708 167,708 168,708 169,708 169,708 170,708 171,708 172,708 173,708 174,708 175,708 175,708 176,708 177,708 177,708 178,708 179,708 179,708 180,708 181,708 182,708 183,708 184,707 185,707 186,707 187,707 188,707 189,707 189,707 190,707 190,707 192,707 193,707 193,707 194,705 194,705 195,705 195,705 196,705 197,705 198,705 198,705 199,705 199,705 200,705 201,705 201,705 202,705 202,705 203,704 203,704 204,704 205,704 205,704 206,704 206,704 207,704 207,704 209,704 209,704 211,704 211,704 213,704 213,704 214,702 214,702 215,702 216,699 217,699 217,699 218,699 219,699 219,698 220,698 221,698 221,698 222,698 222,698 223,696 223,696 224,696 225,696 225,696 226,696 226,696 227,696 227,696 228,696 229,696 229,696 230,696 230,696 231,696 231,696 232,695 233,695 234,695 235,695 235,695 236,695 237,695 238,695 239,695 240,695 241,695 242,695 242,693 243,693 243,692 245,692 245,692 246,692 246,690 247,690 247,690 248,690 249,690 250,690 250,690 251,690 252,690 252,690 253,690 254,690 254,690 255,690 255,690 256,690 256,689 257,689 258,689 259,687 259,687 260,687 260,687 261,687 262,687 262,687 263,687 263,687 264,687 264,687 265,687 266,689 266,687 267,687 267,687 268,687 268,687 270,687 270,687 271,686 271,684 272,684 272,684 273,684 274,684 274,683 275,683 275,683 276,683 276,683 277,683 278,683 278,683 279,683 279,683 280,683 280,683 281,683 282,683 282,683 283,683 283,683 284,683 284,683 285,683 286,683 286,683 287,683 287,683 288,683 288,683 289,683 290,683 290,683 291,683 291,683 292,683 292,683 293,683 294,683 294,683 295,683 295,683 296,683 296,683 297,683 298,683 298,683 299,683 299,683 300,683 300,683 301,683 302,683 302,683 303,683 303,683 304,681 304,680 305,680 306,680 306,678 307,678 307,678 308,678 308,677 309,677 310,677 310,677 311,677 311,677 312,677 312,677 313,677 314,677 314,677 315,677 315,675 316,675 316,674 317,674 318,672 318,671 319,671 319,671 320,671 321,671 322,671 322,671 323,671 323,671 324,671 324,671 325,671 326,671 326,671 327,671 327,671 328,671 328,671 329,671 330,671 330,671 331,671 331,671 332,671 332,671 333,671 334,671 334,671 335,671 335,671 336,669 336,668 337,668 338,668 338,668 339,668 339,668 340,666 340,666 341,666 342,666 342,666 343,666 343,666 344,666 344,666 345,666 346,666 347,666 347,668 348,668 348,668 349,668 350,668 350,668 351,668 351,668 352,666 352,666 353,666 354,666 354,666 355,666 355,666 356,666 356,666 357,666 358,666 358,665 359,665 359,665 360,665 360,665 361,665 362,665 362,665 363,665 363,665 364,665 364,665 365,665 366,665 366,665 367,665 367,665 368,665 368,665 369,665 370,665 370,665 371,665 371,665 372,665 372,665 373,665 374,665 374,665 375,665 375,665 376,663 376,662 377,660 378,660 378,660 379,660 379,660 380,660 380,660 381,660 382,660 382,660 383,660 383,660 384,660 384,660 385,660 386,660 386,660 387,660 387,660 388,660 388,660 389,660 390,660 390,660 391,659 391,659 392,659 392,659 393,659 394,659 394,657 395,657 395,657 396,657 396,657 397,657 398,657 398,657 399,657 399,657 400,654 400,654 401,654 402,654 402,653 403,653 403,653 404,651 404,651 405,651 406,651 406,651 407,651 407,651 408,651 408,651 409,651 410,651 410,651 411,651 411,651 412,651 413,651 414,651 414,651 415,651 415,651 416,651 416,651 417,651 418,651 418,653 419,653 419,653 420,653 420,653 421,653 422,653 422,653 423,653 423,653 424,653 424,653 425,653 426,653 426,653 427,653 427,653 428,654 428,654 429,654 430,654 430,654 431,654 431,654 432,654 432,654 433,654 434,654 434,653 435,653 435,653 436,653 436,653 437,653 437,651 438,651 439,653 439,653 440,653 440,653 441,651 441,651 442,651 443,650 443,650 444,650 444,649 445,649 445,649 446,647 447,647 447,646 448,647 448,647 449,647 449,646 450,646 451,646 451,646 452,644 452,644 453,644 453,644 454,644 455,644 455,644 456,644 456,641 457,641 457,641 458,641 459,641 459,641 460,643 460,643 461,641 461,641 462,641 463,641 463,641 464,641 464,641 465,641 465,641 466,641 467,641 467,641 468,641 468,641 469,641 469,640 470,640 471,640 471,638 472,637 472,637 473,637 473,637 474,637 475,637 475,637 476,637 476,635 477,637 477,637 478,637 479,637 479,637 480,637 480,637 481,637 481,637 482,637 483,637 483,637 484,637 484,637 485,637 485,635 486,635 487,635 487,635 488,635 488,635 489,635 489,635 490,635 491,635 491,635 492,635 492,635 493,634 493,634 494,634 495,632 495,631 496,631 496,628 497,628 497,628 498,628 499,628 499,628 500,628 500,628 501,628 501,626 502,626 503,626 503,626 504,626 504,626 505,626 505,626 506,626 507,626 507,626 508,626 508,626 509,626 509,626 510,626 511,626 511,626 512,625 512,625 513,623 513,623 514,623 515,623 515,623 516,622 516,622 517,622 517,620 518,619 519,619 519,619 520,619 520,619 521,619 521,619 522,619 523,619 523,619 524,619 524,619 525,619 525,619 526,619 527,619 527,616 528,616 528,616 529,616 529,616 530,616 531,616 531,614 532,614 532,614 533,614 533,614 534,614 535,614 535,614 536,614 536,614 537,614 537,614 538,614 539,614 539,614 540,614 540,614 541,614 541,614 542,614 543,614 543,614 544,614 544,614 545,614 545,614 546,614 547,614 547,614 548,614 548,614 549,614 549,614 550,614 551,614 551,614 552,614 552,614 553,614 553,614 554,614 555,613 555,613 556,611 556,611 557,611 557,611 558,610 559,610 559,610 560,610 560,610 561,610 561,610 562,610 563,610 563,610 564,608 564,608 565,605 565,604 566,604 567,604 567,604 568,604 568,604 569,604 569,604 570,604 571,604 571,602 572,602 572,602 573,602 573,602 574,602 575,599 575,599 576,599 576,599 577,599 577,599 578,599 579,599 579,599 580,599 580,599 581,599 581,599 582,599 583,599 583,599 584,599 584,599 585,599 585,599 586,599 587,599 587,598 588,598 588,598 589,598 589,598 590,596 591,596 591,596 592,596 592,596 593,596 593,596 594,596 595,596 595,596 596,596 596,596 597,595 597,595 598,595 599,595 599,595 600,593 600,595 601,595 601,595 602,595 603,595 603,595 604,595 604,595 605,595 605,595 606,595 607,595 607,595 608,595 608,595 609,595 609,595 610,595 611,595 611,595 612,595 612,595 613,595 613,595 614,595 615,595 615,595 616,595 616,595 617,595 617,595 618,595 619,595 619,595 620,595 620,595 621,593 621,593 622,595 623,595 623,595 624,595 624,595 625,595 625,595 626,595 626,595 627,595 628,595 629,595 629,595 630,595 630,595 631,595 632,595 632,595 633,595 633,595 634,595 634,595 635,595 636,595 636,596 637,596 637,596 638,596 638,596 639,596 640,596 640,596 641,596 641,596 642,596 642,596 643,596 644,595 644,595 645,595 645,595 646,595 646,595 647,595 648,593 648,593 649,593 649,593 650,592 650,592 651,592 652,592 652,592 653,592 653,592 654,592 654,592 655,592 656,592 656,592 657,592 657,592 658,592 658,592 659,592 660,592 660,592 661,592 661,592 662,590 662,590 663,590 664,590 664,590 665,590 665,590 666,590 666,590 667,590 668,590 668,590 669,590 669,590 670,590 670,590 671,590 672,590 672,590 673,590 673,590 674,587 674,587 675,587 676,587 676,580 677,580 677,580 678,580 678,580 679,580 680,580 680,580 681,580 681,580 682,580 682,580 683,580 684,580 684,580 685,577 685,577 686,577 686,577 687,577 688,577 688,577 689,577 689,577 690,577 690,577 691,577 692,577 692,577 693,578 693,578 694,578 694,578 695,578 696,578 696,578 697,578 697,578 698,578 698,578 699,578 700,578 700,578 701,578 701,578 702,578 702,577 703,577 704,577 704,577 705,577 705,577 706,575 706,575 707,575 708,575 708,575 709,575 709,575 710,575 710,575 711,574 712,574 712,574 713,574 713,574 714,574 714,574 715,574 716,574 716,574 717,574 717,574 718,574 718,574 719,571 720,571 720,571 721,571 721,571 722,571 722,571 723,569 724,569 724,569 725,569 725,569 726,569 726,568 727,568 728,568 728,568 729,568 729,568 730,568 730,568 731,568 732,568 732,565 733,563 733,563 734,562 734,562 735,562 736,562 736,562 737,560 737,560 738,560 738,560 739,560 740,560 740,560 741,560 741,560 742,560 742,560 743,560 744,560 744,560 745,560 745,569 746,569 746,569 747,569 748,569 748,569 749,569 749,568 750,568 750,568 751,568 752,568 752,568 753,568 753,568 754,566 754,566 755,566 756,566 756,566 757,566 757,566 758,566 758,566 759,566 760,566 760,566 761,566 761,566 762,566 762,566 763,566 764,566 764,566 765,566 765,566 766,566 766,566 767,566 768,566 768,566 769,566 769,566 770,568 770,568 771,568 772,568 772,568 773,568 773,568 774,568 774,568 775,568 776,568 776,568 777,568 777,568 778,568 778,568 779,568 780,568 780,568 781,568 781,568 782,568 782,568 783,568 784,568 784,568 785,568 785,568 786,568 786,566 787,566 788,566 788,566 789,566 789,566 790,566 790,566 791,565 792,565 792,565 793,565 793,565 794,565 794,565 795,565 796,565 796,565 797,565 797,565 798,565 798,565 799,565 800,565 800,565 801,565 801,565 802,565 802,565 803,565 804,565 804,565 805,565 805,565 806,563 806,563 807,563 808,563 808,563 809,563 809,563 810,563 810,563 811,563 812,563 812,563 813,563 813,563 814,563 814,563 815,563 815,563 816,563 817,563 817,563 818,562 818,562 819,562 819,562 820,562 821,560 821,560 822,560 822,560 823,560 823,560 823,560 824,560 825,560 825,560 826,560 826,560 827,559 827,559 828,559 829,557 829,557 830,557 830,557 831,557 831,557 832,557 833,557 833,557 834,557 834,557 835,557 835,557 836,557 837,557 837,557 838,557 838,557 839,557 839,557 840,554 841,554 841,554 842,554 842,554 843,554 843,553 844,553 845,551 845,551 846,551 846,551 847,551 847,551 848,551 849,551 849,551 850,551 850,551 851,551 851,551 852,551 853,551 853,551 854,551 854,551 855,551 855,551 856,551 857,551 857,551 858,551 858,551 859,551 859,551 860,551 861,551 861,551 862,551 862,551 863,551 863,551 864,551 865,551 865,551 866,551 866,551 867,551 867,550 868,550 869,551 869,551 870,551 870,551 871,550 871,550 872,550 873,550 873,550 874,550 874,550 875,550 875,550 876,550 877,547 877,547 878,547 878,547 879,547 879,548 880,548 881,550 881,550 882,550 882,550 883,550 883,551 885,551 885,550 886,550 886,550 887,550 887,550 888,550 889,550 889,550 890,550 890,550 891,550 891,548 892,548 893,548 893,548 894,548 894,547 895,547 895,547 896,547 897,547 897,547 898,547 898,547 899,547 899,547 900,548 901,548 901,548 902,548 902,548 903,548 903,548 904,548 905,548 905,548 906,548 906,548 907,548 907,548 908,548 909,548 909,548 910,548 910,548 911,548 911,548 912,548 913,548 913,548 914,548 914,548 915,548 915,548 916,548 917,550 917,550 918,550 918,550 919,550 919,548 920,548 921,550 921,550 922,550 922,548 923,548 923,548 924,548 925,548 925,548 926,548 926,547 927,547 927,547 928,547 929,547 929,547 930,547 930,547 931,547 931,547 932,547 933,547 933,547 934,547 934,547 935,547 935,547 936,547 937,547 937,547 938,547 938,547 939,547 939,547 940,545 941,545 941,545 942,545 942,545 943,545 943,545 944,545 945,545 945,545 946,545 946,545 947,545 947,545 948,545 949,545 949,545 950,545 950,545 951,545 951,545 952,545 953,545 953,545 954,545 954,545 955,545 955,545 956,544 957,544 957,544 958,544 958,544 959,544 959,544 960,544 961,544 961,544 962,544 962,544 963,544 963,545 964,545 965,544 965,544 966,544 966,544 967,544 967,544 968,544 969,542 969,542 970,542 970,542 971,542 971,542 972,542 973,542 973,542 974,542 974,542 975,541 975,541 976,541 977,541 977,541 978,541 978,541 979,541 979,541 980,541 981,541 981,541 982,541 982,541 983,541 983,541 984,541 985,541 985,541 986,542 986,542 987,542 987,542 988,542 989,542 989,542 990,542 990,544 991,542 991,542 992,542 993,542 993,542 994,542 994,542 995,542 995,542 996,542 997,542 997,542 998,542 998,542 999,542 999,542 1000,541 1001,541 1001,541 1002,541 1002,541 1003,541 1003,541 1004,541 1004,541 1005,539 1006,539 1006,539 1007,539 1007,541 1008,541 1008,541 1009,541 1010,541 1010,541 1011,541 1011,541 1012,541 1012,541 1013,541 1014,539 1014,539 1015,539 1015,539 1016,539 1016,539 1017,539 1018,539 1018,539 1019,538 1019,538 1020,538 1020,538 1021,538 1022,536 1022,536 1023,536 1023,536 1024,536 1024,536 1025,536 1026,536 1026,536 1027,536 1027,536 1028,536 1028,536 1029,536 1030,536 1030,536 1031,536 1031,536 1032,536 1032,536 1033,536 1034,536 1034,536 1035,536 1035,536 1036,536 1036,536 1037,536 1038,536 1038,536 1039,536 1039,536 1040,536 1040,536 1041,536 1042,536 1042,536 1043,536 1043,536 1044,536 1044,536 1044,536 1045,536 1046,536 1046,536 1047,536 1047,536 1048,536 1048,536 1049,536 1050,536 1050,536 1051,535 1051,535 1052,535 1052,535 1053,535 1054,535 1054,535 1055,535 1055,535 1056,535 1056,535 1057,535 1058,536 1058,536 1059,538 1059,538 1060,538 1060,538 1061,538 1062,538 1062,538 1063,538 1063,538 1064,538 1064,538 1065,538 1066,538 1066,538 1067,536 1067,535 1068,535 1068,535 1069,535 1070,535 1070,535 1071,535 1071,535 1072,535 1072,535 1073,535 1074,532 1074,532 1075,532 1075,527 1076,527 1076,527 1077,527 1078,527 1078,527 1079,527 1079,527 1080,527 1080,529 1081,529 1082,529 1082,529 1083,529 1083,529 1084,529 1084,529 1085,529 1086,529 1086,529 1087,529 1087,529 1088,529 1088,527 1089,524 1090,524 1090,524 1091,524 1091,524 1092,524 1092,524 1093,524 1094,524 1094,524 1095,524 1095,524 1096,524 1096,524 1097,524 1098,524 1098,524 1099,526 1099,526 1100,526 1100,526 1101,526 1102,526 1102,526 1103,526 1103,526 1104,526 1104,526 1105,526 1106,526 1106,526 1107,526 1107,526 1108,524 1108,524 1109,524 1110,523 1110,523 1111,523 1111,523 1112,523 1112,523 1113,523 1114,523 1114,523 1115,523 1115,523 1116,523 1116,523 1117,523 1118,523 1118,523 1119,524 1119,524 1120,524 1120,523 1121,523 1122,523 1122,523 1123,523 1123,523 1124,523 1124,523 1124,523 1125,523 1125,523 1126,523 1126,523 1126,523 1127,523 1127,523 1127,523 1128,523 1128,521 1128,521 1128,521 1129,521 1129,521 1130,521 1130,521 1130,521 1130,521 1131,521 1131,521 1131,521 1131,521 1132,521 1132,521 1132,521 1132,521 1133,521 1133,521 1134,521 1134,521 1134,521 1135,521 1135,521 1135,521 1136,521 1136,521 1136,521 1136,521 1137,521 1137,521 1138,521 1138,521 1138,521 1138,521 1139,521 1139,521 1139,521 1140,521 1140,521 1140,521 1140,521 1141,521 1141,521 1142,521 1142,521 1142,521 1142,521 1143,521 1143,521 1143,523 1143,523 1144,523 1144,523 1144,523 1145,523 1145,521 1146,521 1146,521 1146,521 1146,521 1147,521 1147,521 1147,521 1147,521 1148,521 1148,520 1148,520 1148,520 1149,520 1149,520 1150,520 1150,520 1150,520 1150,520 1151,520 1151,520 1151,521 1152,521 1152,521 1152,521 1153,521 1153,521 1154,521 1154,521 1154,521 1154,521 1155,521 1155,521 1155,521 1155,521 1156,521 1156,520 1156,520 1156,520 1157,520 1157,520 1158,520 1158,520 1158,520 1159,520 1159,520 1159,520 1159,520 1160,520 1160,520 1160,520 1160,520 1161,520 1162,520 1162,520 1162,520 1162,520 1163,520 1163,520 1163,520 1163,520 1164,520 1164,520 1164,520 1164,520 1165,520 1165,520 1166,520 1166,521 1166,521 1166,521 1167,521 1167,521 1167,521 1167,521 1168,521 1168,521 1168,521 1168,521 1169,521 1169,521 1170,521 1170,521 1170,521 1170,521 1171,521 1171,521 1171,521 1171,521 1172,521 1172,521 1172,521 1173,521 1173,521 1174,521 1174,521 1174,521 1174,520 1175,520 1175,520 1175,520 1175,520 1176,520 1176,520 1176,520 1176,520 1177,520 1177,520 1178,520 1178,520 1178,520 1179,520 1179,520 1179,520 1179,520 1180,520 1180,520 1180,520 1180,518 1181,518 1182,518 1182,518 1182,518 1183,518 1183,518 1183,518 1184,518 1184,518 1184,518 1184,518 1185,518 1185,518 1186,518 1186,518 1186,518 1186,518 1187,518 1187,518 1187,518 1187,518 1188,518 1188,518 1188,518 1188,518 1189,518 "/>
<polyline fill="none" opacity="1" stroke="#1919E6" stroke-width="2" points="439,738 498,737 548,735 570,734 577,732 591,731 592,729 593,729 593,728 594,728 595,728 597,726 600,725 601,725 602,725 603,725 603,725 605,725 605,725 606,725 607,725 607,725 608,725 608,725 609,725 609,725 611,725 614,725 616,725 616,725 617,725 617,725 619,725 620,725 620,725 621,725 622,725 623,725 624,725 624,725 625,725 625,725 626,725 627,725 628,725 628,725 629,725 629,725 630,725 630,725 631,725 633,725 633,725 636,725 636,725 638,725 639,725 640,725 641,725 643,725 644,722 644,722 646,722 647,722 648,722 648,722 649,722 650,722 652,722 653,722 654,722 655,722 656,722 656,720 658,720 658,720 659,720 660,720 660,720 661,720 661,720 662,720 662,720 663,720 664,719 666,719 667,719 668,719 669,719 669,719 670,719 670,719 671,719 672,719 672,719 673,719 673,719 674,719 674,719 675,719 676,719 677,719 677,719 678,719 679,719 680,719 681,719 681,719 682,719 682,719 683,719 684,719 685,719 685,719 686,719 687,719 688,719 689,719 689,719 690,719 690,719 691,719 692,719 692,719 693,719 693,719 694,719 694,719 695,717 696,717 697,716 698,716 698,716 699,716 700,716 700,716 701,716 701,716 702,716 702,716 703,716 704,716 704,716 705,716 705,716 706,716 707,716 708,716 709,716 709,716 710,716 710,716 711,716 712,716 712,714 713,714 713,714 714,714 714,713 715,713 716,713 716,713 717,713 717,713 718,713 718,713 719,713 720,713 720,713 721,713 721,713 722,713 722,713 723,713 724,713 724,713 725,713 725,713 726,713 726,713 727,713 728,713 728,713 729,713 729,713 730,711 730,710 731,708 732,708 733,708 734,708 734,708 735,708 736,708 736,708 737,708 737,708 738,708 738,708 739,708 740,708 740,708 741,708 741,708 742,708 743,708 744,708 744,708 745,708 745,708 746,708 746,708 747,708 748,707 748,707 749,707 749,707 750,707 750,707 751,707 752,705 752,705 753,705 753,705 754,705 754,705 755,704 756,704 756,704 757,704 757,704 758,704 758,704 759,704 760,704 760,704 761,704 761,704 762,704 762,704 763,704 764,704 764,704 765,702 765,702 766,702 766,702 767,702 768,702 768,702 769,702 769,702 770,702 770,702 771,702 772,702 772,702 773,702 773,702 774,701 774,701 775,701 776,701 776,699 777,699 777,699 778,699 778,699 779,699 780,699 780,699 781,699 781,699 782,699 782,699 783,699 784,699 784,699 785,699 785,699 786,699 786,698 787,698 788,698 788,698 789,698 789,698 790,698 790,698 791,696 792,696 792,696 793,696 793,696 794,696 794,696 795,696 796,695 796,695 797,695 797,695 798,695 798,695 799,695 800,695 800,695 801,693 801,693 802,693 802,690 803,690 804,690 804,690 805,690 805,690 806,690 806,690 807,690 808,690 808,690 809,690 809,690 810,690 810,690 811,690 812,689 812,689 813,689 814,689 814,689 815,689 815,689 816,689 817,689 817,689 818,689 818,689 819,689 819,689 820,689 821,689 821,689 822,687 822,687 823,687 823,687 823,687 824,687 825,687 825,687 826,687 826,687 827,687 827,687 828,687 829,687 829,687 830,687 830,687 831,687 831,687 832,687 833,686 833,686 834,686 834,686 835,686 835,686 836,686 837,686 837,686 838,684 838,684 839,684 839,684 840,684 841,684 841,684 842,684 842,684 843,684 843,684 844,684 845,683 845,683 846,684 846,684 847,684 847,684 848,684 849,684 849,684 850,683 850,683 851,681 851,681 852,681 853,681 853,681 854,681 854,681 855,681 855,681 856,681 857,681 857,681 858,681 858,681 859,681 859,681 860,681 861,681 861,681 862,681 862,681 863,681 863,681 864,681 865,681 865,681 866,681 866,681 867,681 867,681 868,681 869,681 869,681 870,681 870,681 871,681 871,681 872,681 873,681 873,681 874,681 874,681 875,681 875,681 876,681 877,681 878,681 878,681 879,681 879,681 880,680 881,680 881,680 882,678 882,678 883,678 883,677 884,677 885,677 885,675 886,675 886,675 887,672 887,671 888,669 889,669 889,669 890,669 890,669 891,669 891,669 892,669 893,668 893,668 894,666 894,666 895,666 895,666 896,665 897,665 897,665 898,665 898,665 899,665 899,665 900,663 901,663 901,663 902,663 902,663 903,663 903,663 904,662 905,662 905,662 906,662 906,662 907,663 907,663 908,663 909,663 909,663 910,663 910,663 911,663 911,663 912,663 913,663 913,663 914,663 914,663 915,663 915,663 916,663 917,663 917,662 918,662 918,662 919,660 919,660 920,660 921,660 921,660 922,657 922,657 923,657 923,657 924,657 925,657 925,657 926,657 926,657 927,657 927,657 928,657 929,657 929,657 930,657 930,657 931,657 931,657 932,657 933,657 933,657 934,657 934,657 935,657 935,657 936,657 937,657 937,657 938,657 938,657 939,657 939,657 940,657 941,657 941,657 942,657 942,656 943,656 943,656 944,656 945,656 945,654 946,654 946,654 947,653 947,653 948,651 949,650 949,650 950,650 950,649 951,649 951,649 952,649 953,647 953,646 954,646 954,646 955,646 955,646 956,644 957,644 958,644 958,644 959,644 959,644 960,644 961,644 961,644 962,644 962,644 963,644 963,643 964,643 965,643 965,643 966,643 966,643 967,643 967,643 968,643 969,643 969,641 970,641 970,641 971,641 971,641 972,640 973,640 973,640 974,640 974,640 975,637 975,637 976,637 977,638 977,638 978,638 978,638 979,638 979,638 980,638 981,638 981,638 982,638 982,638 983,638 983,638 984,638 985,638 985,638 986,638 986,638 987,637 987,635 988,632 989,632 989,632 990,632 990,631 991,631 991,631 992,631 993,631 993,631 994,631 994,631 995,631 995,631 996,631 997,631 997,629 998,629 998,628 999,628 999,628 1000,628 1001,628 1001,628 1002,628 1002,628 1003,628 1003,628 1004,628 1004,628 1005,628 1006,628 1006,626 1007,626 1007,626 1008,626 1008,628 1009,628 1010,628 1010,628 1011,628 1011,628 1012,628 1012,628 1013,628 1014,628 1014,628 1015,628 1015,628 1016,628 1016,628 1017,628 1018,628 1018,628 1019,626 1019,626 1020,626 1020,626 1021,626 1022,626 1022,626 1023,623 1023,623 1024,623 1024,623 1025,622 1026,622 1026,622 1027,622 1027,620 1028,620 1028,620 1029,620 1030,620 1030,620 1031,619 1031,617 1032,617 1032,617 1033,617 1034,617 1034,617 1035,617 1035,617 1036,617 1036,617 1037,617 1038,617 1038,617 1039,617 1039,617 1040,617 1040,617 1041,617 1042,617 1042,616 1043,616 1043,614 1044,614 1044,614 1044,613 1045,611 1046,611 1046,611 1047,611 1047,611 1048,610 1048,610 1049,610 1050,610 1050,610 1051,610 1051,608 1052,608 1052,608 1053,608 1054,608 1054,608 1055,608 1055,608 1056,605 1056,605 1057,605 1058,605 1058,605 1059,604 1059,604 1060,604 1060,604 1061,604 1062,604 1062,604 1063,604 1063,604 1064,604 1064,604 1065,604 1066,602 1066,602 1067,602 1067,599 1068,599 1068,599 1069,599 1070,599 1070,598 1071,598 1071,598 1072,598 1072,598 1073,598 1074,598 1074,598 1075,598 1075,598 1076,598 1076,598 1077,598 1078,598 1078,598 1079,596 1079,596 1080,596 1080,596 1081,596 1082,596 1082,596 1083,596 1083,596 1084,596 1084,596 1085,596 1086,596 1086,596 1087,596 1087,596 1088,596 1088,596 1089,596 1090,596 1090,596 1091,596 1091,596 1092,595 1092,595 1093,595 1094,595 1094,595 1095,595 1095,595 1096,593 1096,595 1097,595 1098,595 1098,595 1099,595 1099,593 1100,593 1100,593 1101,593 1102,593 1102,592 1103,592 1103,590 1104,590 1104,590 1105,590 1106,590 1106,590 1107,590 1107,589 1108,589 1108,589 1109,589 1110,587 1110,587 1111,587 1111,587 1112,587 1112,587 1113,587 1114,587 1114,587 1115,587 1115,587 1116,587 1116,587 1117,586 1118,586 1118,584 1119,584 1119,584 1120,586 1120,586 1121,586 1122,586 1122,586 1123,584 1123,584 1124,584 1124,584 1124,583 1125,583 1125,580 1126,580 1126,580 1126,580 1127,580 1127,578 1127,578 1128,578 1128,578 1128,578 1128,578 1129,578 1129,578 1130,578 1130,578 1130,578 1130,578 1131,578 1131,578 1131,578 1131,577 1132,577 1132,577 1132,577 1132,577 1133,577 1133,577 1134,577 1134,577 1134,575 1135,575 1135,575 1135,575 1136,575 1136,575 1136,575 1136,575 1137,575 1137,575 1138,575 1138,575 1138,575 1138,575 1139,575 1139,575 1139,574 1140,574 1140,574 1140,574 1140,574 1141,574 1141,574 1142,574 1142,574 1142,574 1142,574 1143,574 1143,574 1143,574 1143,572 1144,572 1144,572 1144,572 1145,572 1145,572 1146,572 1146,572 1146,572 1146,572 1147,572 1147,571 1147,571 1147,571 1148,571 1148,571 1148,571 1148,571 1149,571 1149,571 1150,571 1150,571 1150,571 1150,571 1151,571 1151,572 1151,572 1152,572 1152,572 1152,569 1153,569 1153,566 1154,566 1154,566 1154,566 1154,566 1155,566 1155,565 1155,565 1155,565 1156,565 1156,565 1156,565 1156,566 1157,566 1157,566 1158,565 1158,565 1158,565 1159,565 1159,565 1159,565 1159,565 1160,565 1160,565 1160,565 1160,565 1161,565 1162,565 1162,565 1162,565 1162,565 1163,565 1163,565 1163,565 1163,563 1164,563 1164,562 1164,562 1164,562 1165,562 1165,560 1166,560 1166,559 1166,559 1166,559 1167,559 1167,557 1167,557 1167,557 1168,557 1168,557 1168,557 1168,557 1169,557 1169,557 1170,557 1170,557 1170,557 1170,554 1171,554 1171,554 1171,554 1171,554 1172,554 1172,554 1172,554 1173,554 1173,554 1174,554 1174,553 1174,553 1174,553 1175,553 1175,550 1175,550 1175,550 1176,550 1176,550 1176,550 1176,550 1177,550 1177,550 1178,550 1178,550 1178,550 1179,550 1179,548 1179,548 1179,548 1180,548 1180,548 1180,548 1180,548 1181,548 1182,547 1182,547 1182,547 1183,547 1183,547 1183,547 1184,547 1184,545 1184,545 1184,545 1185,545 1185,545 1186,545 1186,545 1186,545 1186,544 1187,544 1187,544 1187,544 1187,544 1188,544 1188,542 1188,542 1188,542 1189,542 1190,542 "/>
<polyline fill="none" opacity="1" stroke="#E519E6" stroke-width="2" points="370,738 398,737 415,735 421,734 430,732 431,731 431,729 437,728 439,726 453,726 456,725 461,723 464,722 467,722 475,720 479,722 481,722 483,722 485,722 485,720 486,720 487,720 487,720 488,720 489,720 490,720 493,720 495,720 495,720 496,720 496,719 499,717 501,717 502,717 504,717 504,717 505,717 506,716 507,716 507,716 519,714 521,714 521,714 523,714 524,714 524,713 525,713 525,713 527,713 528,713 529,713 529,713 530,711 531,711 531,711 532,711 533,711 533,711 536,710 537,710 538,708 539,708 540,708 544,708 544,708 546,707 549,705 550,705 551,705 553,705 554,705 555,705 556,705 556,705 557,705 558,705 560,705 561,705 563,705 563,705 564,705 568,705 569,705 569,705 571,705 572,705 573,704 575,704 575,704 576,704 577,704 578,704 579,704 584,704 584,704 585,702 585,702 586,702 588,702 588,702 589,702 591,702 592,702 592,702 593,702 593,702 595,702 596,701 598,701 599,701 600,701 601,701 603,701 603,701 604,701 604,699 605,699 605,699 606,699 607,699 608,699 608,698 609,698 612,698 612,696 613,696 613,695 614,695 615,695 616,695 616,695 617,695 617,693 618,692 619,692 619,692 620,692 620,692 621,692 621,692 622,692 623,692 623,692 624,692 624,692 625,692 625,692 626,692 626,692 627,692 628,692 628,692 629,692 629,692 630,692 631,692 632,692 632,692 633,692 633,692 634,692 634,692 635,692 636,692 636,692 637,692 637,692 638,692 638,690 639,690 640,690 640,690 641,690 641,690 642,690 642,690 643,690 644,690 644,690 645,690 645,690 646,690 646,689 647,689 648,689 648,689 649,689 649,687 650,687 650,687 651,687 652,687 652,687 653,687 653,687 654,687 654,687 655,687 656,686 656,686 657,686 657,686 658,686 658,686 659,686 660,686 660,686 661,686 661,686 662,686 662,686 663,686 664,686 664,686 665,686 665,683 666,683 666,683 667,683 668,681 668,678 669,678 669,678 670,678 670,678 671,677 672,677 672,677 673,677 673,677 674,677 674,677 675,677 676,677 676,677 677,677 677,677 678,675 678,675 679,675 680,675 680,675 681,672 681,672 682,672 682,672 683,672 684,672 684,672 685,671 685,671 686,671 686,671 687,671 688,671 688,669 689,671 689,671 690,671 690,671 691,671 692,671 692,671 693,671 693,671 694,672 694,672 695,672 696,672 696,672 697,672 697,672 698,672 698,672 699,672 700,672 700,672 701,672 701,672 702,672 702,672 703,669 704,669 704,669 705,669 705,669 706,669 706,669 707,669 708,669 708,669 709,669 709,669 710,669 710,669 711,668 712,668 712,668 713,668 713,668 714,668 714,668 715,668 716,668 716,668 717,668 717,666 718,666 718,666 719,666 720,666 720,666 721,665 721,665 722,665 722,665 723,665 724,665 724,665 725,665 725,665 726,665 726,665 727,666 728,666 728,666 729,666 729,666 730,666 730,666 731,666 732,666 732,666 733,668 733,668 734,668 734,668 735,668 736,668 736,668 737,668 737,668 738,668 738,668 739,668 740,668 740,668 741,668 741,666 742,666 742,666 743,666 744,665 744,665 745,665 745,665 746,665 746,665 747,665 748,665 748,665 749,665 749,663 750,663 750,663 751,663 752,663 752,663 753,662 753,660 754,660 754,660 755,660 756,660 756,660 757,660 757,660 758,659 758,659 759,657 760,657 760,659 761,659 761,659 762,659 762,659 763,659 764,657 764,657 765,657 765,657 766,657 766,657 767,657 768,657 768,657 769,657 769,657 770,657 770,657 771,657 772,657 772,657 773,657 773,657 774,657 774,657 775,657 776,657 776,659 777,659 777,659 778,659 778,659 779,659 780,659 780,659 781,659 781,659 782,659 782,659 783,659 784,659 784,659 785,659 785,659 786,659 786,659 787,659 788,659 789,657 789,657 790,657 790,657 791,657 792,657 792,657 793,657 793,656 794,656 794,656 795,656 796,656 796,656 797,656 797,656 798,656 798,656 799,656 800,656 800,656 801,656 801,656 802,656 802,656 803,656 804,654 804,654 805,654 805,654 806,654 806,654 807,654 808,654 808,654 809,654 809,654 810,654 810,654 811,653 812,653 812,653 813,653 813,653 814,653 814,653 815,653 815,653 816,653 817,653 817,653 818,653 818,651 819,651 819,650 820,650 821,650 821,649 822,647 822,647 823,647 823,647 823,647 824,647 825,647 825,647 826,646 826,646 827,646 827,646 828,646 829,646 829,646 830,646 830,646 831,646 831,646 832,646 833,646 833,646 834,646 834,644 835,644 835,644 836,644 837,644 837,644 838,644 838,644 839,644 839,643 840,643 841,643 841,643 842,643 842,644 843,644 843,644 844,644 845,644 845,644 846,644 846,644 847,644 847,644 848,644 849,644 849,644 850,644 850,644 851,644 851,644 852,644 853,644 853,644 854,644 854,644 855,644 855,644 856,644 857,644 857,644 858,644 858,644 859,644 859,644 860,644 861,644 861,644 862,644 862,644 863,644 863,643 864,643 865,641 865,641 866,641 866,640 867,640 867,640 868,640 869,640 869,640 870,638 870,638 871,638 871,637 872,637 873,637 873,637 874,637 874,637 875,637 875,637 876,637 877,637 877,637 878,635 878,637 879,635 879,635 880,635 881,635 881,634 882,634 882,631 883,631 883,631 884,631 885,631 885,631 886,631 886,631 887,631 887,631 888,631 889,631 889,631 890,631 890,631 891,629 891,629 892,629 893,629 893,629 894,629 894,629 895,628 895,628 896,628 897,626 897,626 898,625 898,625 899,625 899,625 900,625 901,623 901,623 902,623 902,623 903,623 903,623 904,623 905,623 905,623 906,623 906,623 907,623 907,622 908,619 909,619 909,619 910,616 910,616 911,616 911,616 912,616 913,616 913,614 914,613 914,611 915,611 915,611 916,608 917,610 917,610 918,610 918,608 919,608 919,607 920,607 921,607 921,607 922,607 922,607 923,607 923,607 924,607 925,607 925,607 926,605 926,605 927,604 927,602 928,601 929,601 929,601 930,598 930,598 931,598 931,598 932,598 933,598 933,599 934,598 934,598 935,598 935,598 936,598 937,598 937,598 938,598 938,598 939,598 939,596 940,596 941,596 941,596 942,596 942,596 943,596 943,596 944,596 945,596 945,596 946,596 946,596 947,596 947,596 948,596 949,596 949,596 950,596 950,596 951,596 951,596 952,596 953,596 953,596 954,595 954,593 955,593 955,592 956,592 957,592 957,592 958,590 958,590 959,590 959,590 960,590 961,590 961,590 962,590 962,590 963,589 963,589 964,589 965,589 965,587 966,587 966,586 967,586 967,586 968,586 969,586 969,586 970,584 970,584 971,583 971,583 972,583 973,583 973,583 974,583 974,583 975,583 975,583 976,584 977,584 977,584 978,584 978,584 979,584 979,584 980,584 981,584 981,584 982,584 982,581 983,581 983,580 984,580 985,580 985,580 986,580 986,580 987,580 987,580 988,581 989,580 989,580 990,580 990,580 991,578 991,578 992,578 993,578 993,578 994,578 994,577 995,577 995,577 996,575 997,575 997,575 998,575 998,575 999,575 999,575 1000,575 1001,575 1001,575 1002,575 1002,575 1003,575 1004,574 1004,574 1005,574 1006,574 1006,574 1007,574 1007,574 1008,572 1009,572 1010,572 1010,572 1011,572 1012,572 1012,572 1013,571 1014,571 1014,571 1015,571 1015,569 1016,569 1017,569 1018,568 1018,568 1019,566 1019,565 1020,565 1020,565 1021,565 1022,563 1022,563 1023,563 1023,563 1024,563 1024,563 1025,563 1026,563 1026,563 1027,562 1027,562 1028,562 1028,562 1029,562 1030,562 1030,562 1031,560 1031,560 1032,560 1032,560 1033,560 1034,557 1034,557 1035,557 1035,557 1036,557 1036,557 1037,556 1038,554 1038,554 1039,554 1039,553 1040,551 1040,551 1041,551 1042,550 1042,547 1043,547 1043,547 1044,547 1044,545 1044,544 1045,544 1046,544 1047,542 1047,542 1048,542 1048,538 1049,538 1050,536 1050,536 1051,536 1051,536 1052,536 1052,536 1053,536 1054,536 1054,535 1055,535 1055,533 1056,533 1056,533 1057,532 1058,532 1058,532 1059,532 1059,529 1060,529 1060,526 1061,526 1062,524 1062,523 1063,521 1063,521 1064,521 1064,521 1065,518 1066,518 1066,518 1067,518 1067,517 1068,517 1068,515 1069,515 1070,515 1070,515 1071,515 1071,515 1072,515 1072,515 1073,515 1074,515 1074,515 1075,515 1075,515 1076,514 1076,512 1077,512 1078,512 1078,509 1079,508 1079,505 1080,503 1080,502 1081,502 1082,500 1082,502 1083,497 1083,497 1084,497 1084,497 1085,497 1086,494 1087,493 1087,493 1088,493 1088,493 1089,493 1090,491 1090,491 1091,491 1091,490 1092,490 1092,490 1093,490 1094,490 1094,490 1095,487 1095,487 1096,485 1096,484 1097,484 1098,482 1098,482 1099,482 1099,484 1100,485 1100,484 1101,481 1102,482 1102,482 1103,482 1103,482 1104,482 1104,481 1105,481 1106,481 1106,481 1107,478 1107,478 1108,473 1108,473 1109,473 1110,475 1110,475 1111,475 1111,475 1112,475 1112,475 1113,475 1114,470 1114,470 1115,470 1115,470 1116,470 1116,469 1117,469 1118,469 1118,469 1119,469 1119,467 1120,467 1120,466 1121,466 1122,466 1122,466 1123,467 1123,467 1124,467 1124,467 1124,467 1125,467 1125,467 1126,467 1126,466 1126,466 1127,466 1127,466 1127,466 1128,466 1128,466 1128,466 1128,466 1129,466 1129,466 1130,466 1130,463 1130,463 1130,463 1131,463 1131,460 1131,460 1131,460 1132,460 1132,460 1132,460 1132,460 1133,460 1133,460 1134,460 1134,460 1134,460 1135,460 1135,460 1135,460 1136,460 1136,458 1136,458 1136,457 1137,457 1137,457 1138,457 1138,457 1138,457 1138,457 1139,454 1139,454 1139,454 1140,454 1140,454 1140,454 1140,451 1141,451 1141,449 1142,449 1142,451 1142,451 1142,451 1143,451 1143,451 1143,451 1143,451 1144,451 1144,451 1144,451 1145,451 1145,451 1146,451 1146,449 1146,449 1146,451 1147,451 1147,452 1147,452 1147,451 1148,451 1148,451 1148,451 1148,451 1149,451 1149,451 1150,451 1150,448 1150,448 1150,448 1151,448 1151,448 1151,448 1152,446 1152,446 1152,446 1153,446 1153,446 1154,446 1154,446 1154,446 1154,446 1155,446 1155,445 1155,445 1155,445 1156,445 1156,443 1156,443 1156,443 1157,443 1157,443 1158,443 1158,442 1158,440 1159,440 1159,440 1159,440 1159,440 1160,440 1160,440 1160,440 1160,439 1161,439 1162,439 1162,439 1162,439 1162,436 1163,436 1163,434 1163,434 1163,434 1164,434 1164,434 1164,434 1164,434 1165,434 1165,434 1166,434 1166,434 1166,434 1166,434 1167,434 1167,434 1167,434 1167,433 1168,433 1168,433 1168,433 1168,433 1169,433 1169,434 1170,434 1170,431 1170,431 1170,430 1171,430 1171,430 1171,430 1171,430 1172,430 1172,430 1172,427 1173,427 1173,427 1174,427 1174,425 1174,425 1174,425 1175,425 1175,425 1175,425 1175,425 1176,425 1176,427 1176,427 1176,427 1177,427 1177,427 1178,427 1178,427 1178,425 1179,425 1179,425 1179,425 1179,425 1180,425 1180,425 1180,425 1181,425 1182,425 1182,425 1182,424 1183,424 1183,424 1183,422 1184,422 1184,422 1184,422 1184,421 1185,421 1185,421 1186,421 1186,419 1186,419 1186,421 1187,421 1187,421 1187,421 1187,421 1188,421 1188,421 1188,421 1188,421 1189,421 1190,421 "/>
<rect x="1085" y="323" width="100" height="104" opacity="1" fill="#FFFFFF" stroke="none"/>
<rect x="1085" y="323" width="100" height="104" opacity="1" fill="none" stroke="#000000"/>
<text x="1125" y="333" dy="0.76em" text-anchor="start" font-family="sans-serif" font-size="9.67741935483871" opacity="1" fill="#000000">
ansi_term
</text>
<text x="1125" y="348" dy="0.76em" text-anchor="start" font-family="sans-serif" font-size="9.67741935483871" opacity="1" fill="#000000">
colored
</text>
<text x="1125" y="363" dy="0.76em" text-anchor="start" font-family="sans-serif" font-size="9.67741935483871" opacity="1" fill="#000000">
console
</text>
<text x="1125" y="378" dy="0.76em" text-anchor="start" font-family="sans-serif" font-size="9.67741935483871" opacity="1" fill="#000000">
term
</text>
<text x="1125" y="393" dy="0.76em" text-anchor="start" font-family="sans-serif" font-size="9.67741935483871" opacity="1" fill="#000000">
termcolor
</text>
<text x="1125" y="408" dy="0.76em" text-anchor="start" font-family="sans-serif" font-size="9.67741935483871" opacity="1" fill="#000000">
termion
</text>
<polyline fill="none" opacity="1" stroke="#E61919" stroke-width="2" points="1095,338 1115,338 "/>
<polyline fill="none" opacity="1" stroke="#E5E619" stroke-width="2" points="1095,352 1115,352 "/>
<polyline fill="none" opacity="1" stroke="#19E619" stroke-width="2" points="1095,367 1115,367 "/>
<polyline fill="none" opacity="1" stroke="#19E5E6" stroke-width="2" points="1095,382 1115,382 "/>
<polyline fill="none" opacity="1" stroke="#1919E6" stroke-width="2" points="1095,397 1115,397 "/>
<polyline fill="none" opacity="1" stroke="#E519E6" stroke-width="2" points="1095,412 1115,412 "/>
</svg>
