<svg width="1200" height="800" xmlns="http://www.w3.org/2000/svg">
<rect x="0" y="0" width="1199" height="799" opacity="1" fill="#FFFFFF" stroke="none"/>
<line opacity="0.1" stroke="#000000" stroke-width="1" x1="60" y1="732" x2="1190" y2="732"/>
<line opacity="0.1" stroke="#000000" stroke-width="1" x1="60" y1="718" x2="1190" y2="718"/>
<line opacity="0.1" stroke="#000000" stroke-width="1" x1="60" y1="705" x2="1190" y2="705"/>
<line opacity="0.1" stroke="#000000" stroke-width="1" x1="60" y1="691" x2="1190" y2="691"/>
<line opacity="0.1" stroke="#000000" stroke-width="1" x1="60" y1="677" x2="1190" y2="677"/>
<line opacity="0.1" stroke="#000000" stroke-width="1" x1="60" y1="664" x2="1190" y2="664"/>
<line opacity="0.1" stroke="#000000" stroke-width="1" x1="60" y1="650" x2="1190" y2="650"/>
<line opacity="0.1" stroke="#000000" stroke-width="1" x1="60" y1="637" x2="1190" y2="637"/>
<line opacity="0.1" stroke="#000000" stroke-width="1" x1="60" y1="623" x2="1190" y2="623"/>
<line opacity="0.1" stroke="#000000" stroke-width="1" x1="60" y1="610" x2="1190" y2="610"/>
<line opacity="0.1" stroke="#000000" stroke-width="1" x1="60" y1="596" x2="1190" y2="596"/>
<line opacity="0.1" stroke="#000000" stroke-width="1" x1="60" y1="583" x2="1190" y2="583"/>
<line opacity="0.1" stroke="#000000" stroke-width="1" x1="60" y1="569" x2="1190" y2="569"/>
<line opacity="0.1" stroke="#000000" stroke-width="1" x1="60" y1="556" x2="1190" y2="556"/>
<line opacity="0.1" stroke="#000000" stroke-width="1" x1="60" y1="542" x2="1190" y2="542"/>
<line opacity="0.1" stroke="#000000" stroke-width="1" x1="60" y1="529" x2="1190" y2="529"/>
<line opacity="0.1" stroke="#000000" stroke-width="1" x1="60" y1="515" x2="1190" y2="515"/>
<line opacity="0.1" stroke="#000000" stroke-width="1" x1="60" y1="502" x2="1190" y2="502"/>
<line opacity="0.1" stroke="#000000" stroke-width="1" x1="60" y1="488" x2="1190" y2="488"/>
<line opacity="0.1" stroke="#000000" stroke-width="1" x1="60" y1="474" x2="1190" y2="474"/>
<line opacity="0.1" stroke="#000000" stroke-width="1" x1="60" y1="461" x2="1190" y2="461"/>
<line opacity="0.1" stroke="#000000" stroke-width="1" x1="60" y1="447" x2="1190" y2="447"/>
<line opacity="0.1" stroke="#000000" stroke-width="1" x1="60" y1="434" x2="1190" y2="434"/>
<line opacity="0.1" stroke="#000000" stroke-width="1" x1="60" y1="420" x2="1190" y2="420"/>
<line opacity="0.1" stroke="#000000" stroke-width="1" x1="60" y1="407" x2="1190" y2="407"/>
<line opacity="0.1" stroke="#000000" stroke-width="1" x1="60" y1="393" x2="1190" y2="393"/>
<line opacity="0.1" stroke="#000000" stroke-width="1" x1="60" y1="380" x2="1190" y2="380"/>
<line opacity="0.1" stroke="#000000" stroke-width="1" x1="60" y1="366" x2="1190" y2="366"/>
<line opacity="0.1" stroke="#000000" stroke-width="1" x1="60" y1="353" x2="1190" y2="353"/>
<line opacity="0.1" stroke="#000000" stroke-width="1" x1="60" y1="339" x2="1190" y2="339"/>
<line opacity="0.1" stroke="#000000" stroke-width="1" x1="60" y1="326" x2="1190" y2="326"/>
<line opacity="0.1" stroke="#000000" stroke-width="1" x1="60" y1="312" x2="1190" y2="312"/>
<line opacity="0.1" stroke="#000000" stroke-width="1" x1="60" y1="299" x2="1190" y2="299"/>
<line opacity="0.1" stroke="#000000" stroke-width="1" x1="60" y1="285" x2="1190" y2="285"/>
<line opacity="0.1" stroke="#000000" stroke-width="1" x1="60" y1="271" x2="1190" y2="271"/>
<line opacity="0.1" stroke="#000000" stroke-width="1" x1="60" y1="258" x2="1190" y2="258"/>
<line opacity="0.1" stroke="#000000" stroke-width="1" x1="60" y1="244" x2="1190" y2="244"/>
<line opacity="0.1" stroke="#000000" stroke-width="1" x1="60" y1="231" x2="1190" y2="231"/>
<line opacity="0.1" stroke="#000000" stroke-width="1" x1="60" y1="217" x2="1190" y2="217"/>
<line opacity="0.1" stroke="#000000" stroke-width="1" x1="60" y1="204" x2="1190" y2="204"/>
<line opacity="0.1" stroke="#000000" stroke-width="1" x1="60" y1="190" x2="1190" y2="190"/>
<line opacity="0.1" stroke="#000000" stroke-width="1" x1="60" y1="177" x2="1190" y2="177"/>
<line opacity="0.1" stroke="#000000" stroke-width="1" x1="60" y1="163" x2="1190" y2="163"/>
<line opacity="0.1" stroke="#000000" stroke-width="1" x1="60" y1="150" x2="1190" y2="150"/>
<line opacity="0.1" stroke="#000000" stroke-width="1" x1="60" y1="136" x2="1190" y2="136"/>
<line opacity="0.1" stroke="#000000" stroke-width="1" x1="60" y1="123" x2="1190" y2="123"/>
<line opacity="0.1" stroke="#000000" stroke-width="1" x1="60" y1="109" x2="1190" y2="109"/>
<line opacity="0.1" stroke="#000000" stroke-width="1" x1="60" y1="96" x2="1190" y2="96"/>
<line opacity="0.1" stroke="#000000" stroke-width="1" x1="60" y1="82" x2="1190" y2="82"/>
<line opacity="0.1" stroke="#000000" stroke-width="1" x1="60" y1="69" x2="1190" y2="69"/>
<line opacity="0.1" stroke="#000000" stroke-width="1" x1="60" y1="55" x2="1190" y2="55"/>
<line opacity="0.1" stroke="#000000" stroke-width="1" x1="60" y1="41" x2="1190" y2="41"/>
<line opacity="0.1" stroke="#000000" stroke-width="1" x1="60" y1="28" x2="1190" y2="28"/>
<line opacity="0.1" stroke="#000000" stroke-width="1" x1="60" y1="14" x2="1190" y2="14"/>
<text x="10" y="375" dy="0.76em" text-anchor="middle" font-family="sans-serif" font-size="9.67741935483871" opacity="1" fill="#000000" transform="rotate(270, 10, 375)">
Fraction of dependent crates
</text>
<line opacity="0.2" stroke="#000000" stroke-width="1" x1="60" y1="610" x2="1190" y2="610"/>
<line opacity="0.2" stroke="#000000" stroke-width="1" x1="60" y1="474" x2="1190" y2="474"/>
<line opacity="0.2" stroke="#000000" stroke-width="1" x1="60" y1="339" x2="1190" y2="339"/>
<line opacity="0.2" stroke="#000000" stroke-width="1" x1="60" y1="204" x2="1190" y2="204"/>
<line opacity="0.2" stroke="#000000" stroke-width="1" x1="60" y1="69" x2="1190" y2="69"/>
<polyline fill="none" opacity="1" stroke="#000000" stroke-width="1" points="59,10 59,740 "/>
<text x="50" y="610" dy="0.5ex" text-anchor="end" font-family="sans-serif" font-size="9.67741935483871" opacity="1" fill="#000000">
0.002
</text>
<polyline fill="none" opacity="1" stroke="#000000" stroke-width="1" points="54,610 59,610 "/>
<text x="50" y="474" dy="0.5ex" text-anchor="end" font-family="sans-serif" font-size="9.67741935483871" opacity="1" fill="#000000">
0.004
</text>
<polyline fill="none" opacity="1" stroke="#000000" stroke-width="1" points="54,474 59,474 "/>
<text x="50" y="339" dy="0.5ex" text-anchor="end" font-family="sans-serif" font-size="9.67741935483871" opacity="1" fill="#000000">
0.006
</text>
<polyline fill="none" opacity="1" stroke="#000000" stroke-width="1" points="54,339 59,339 "/>
<text x="50" y="204" dy="0.5ex" text-anchor="end" font-family="sans-serif" font-size="9.67741935483871" opacity="1" fill="#000000">
0.008
</text>
<polyline fill="none" opacity="1" stroke="#000000" stroke-width="1" points="54,204 59,204 "/>
<text x="50" y="69" dy="0.5ex" text-anchor="end" font-family="sans-serif" font-size="9.67741935483871" opacity="1" fill="#000000">
0.01
</text>
<polyline fill="none" opacity="1" stroke="#000000" stroke-width="1" points="54,69 59,69 "/>
<polyline fill="none" opacity="1" stroke="#000000" stroke-width="1" points="60,740 1190,740 "/>
<text x="60" y="750" dy="0.76em" text-anchor="middle" font-family="sans-serif" font-size="9.67741935483871" opacity="1" fill="#000000">
2015-01-27Z
</text>
<polyline fill="none" opacity="1" stroke="#000000" stroke-width="1" points="60,740 60,745 "/>
<text x="175" y="750" dy="0.76em" text-anchor="middle" font-family="sans-serif" font-size="9.67741935483871" opacity="1" fill="#000000">
2015-08-04Z
</text>
<polyline fill="none" opacity="1" stroke="#000000" stroke-width="1" points="175,740 175,745 "/>
<text x="291" y="750" dy="0.76em" text-anchor="middle" font-family="sans-serif" font-size="9.67741935483871" opacity="1" fill="#000000">
2016-02-09Z
</text>
<polyline fill="none" opacity="1" stroke="#000000" stroke-width="1" points="291,740 291,745 "/>
<text x="407" y="750" dy="0.76em" text-anchor="middle" font-family="sans-serif" font-size="9.67741935483871" opacity="1" fill="#000000">
2016-08-16Z
</text>
<polyline fill="none" opacity="1" stroke="#000000" stroke-width="1" points="407,740 407,745 "/>
<text x="522" y="750" dy="0.76em" text-anchor="middle" font-family="sans-serif" font-size="9.67741935483871" opacity="1" fill="#000000">
2017-02-21Z
</text>
<polyline fill="none" opacity="1" stroke="#000000" stroke-width="1" points="522,740 522,745 "/>
<text x="638" y="750" dy="0.76em" text-anchor="middle" font-family="sans-serif" font-size="9.67741935483871" opacity="1" fill="#000000">
2017-08-29Z
</text>
<polyline fill="none" opacity="1" stroke="#000000" stroke-width="1" points="638,740 638,745 "/>
<text x="754" y="750" dy="0.76em" text-anchor="middle" font-family="sans-serif" font-size="9.67741935483871" opacity="1" fill="#000000">
2018-03-06Z
</text>
<polyline fill="none" opacity="1" stroke="#000000" stroke-width="1" points="754,740 754,745 "/>
<text x="869" y="750" dy="0.76em" text-anchor="middle" font-family="sans-serif" font-size="9.67741935483871" opacity="1" fill="#000000">
2018-09-11Z
</text>
<polyline fill="none" opacity="1" stroke="#000000" stroke-width="1" points="869,740 869,745 "/>
<text x="985" y="750" dy="0.76em" text-anchor="middle" font-family="sans-serif" font-size="9.67741935483871" opacity="1" fill="#000000">
2019-03-19Z
</text>
<polyline fill="none" opacity="1" stroke="#000000" stroke-width="1" points="985,740 985,745 "/>
<text x="1101" y="750" dy="0.76em" text-anchor="middle" font-family="sans-serif" font-size="9.67741935483871" opacity="1" fill="#000000">
2019-09-24Z
</text>
<polyline fill="none" opacity="1" stroke="#000000" stroke-width="1" points="1101,740 1101,745 "/>
<polyline fill="none" opacity="1" stroke="#E61919" stroke-width="2" points="120,711 127,681 132,683 138,685 138,656 140,657 141,628 149,633 150,605 151,606 154,608 157,610 168,616 176,621 178,622 181,624 183,649 187,651 189,651 189,651 190,652 192,653 200,655 205,656 209,657 214,658 216,637 218,638 220,639 223,640 224,620 224,620 225,600 227,600 227,601 230,602 231,602 232,562 234,563 237,544 238,524 239,525 241,527 242,528 249,533 252,535 254,536 254,536 255,536 256,518 257,519 259,521 265,526 265,526 266,527 267,509 268,509 268,491 271,493 271,493 272,476 273,477 273,460 274,460 276,444 278,446 280,449 281,450 282,451 283,451 285,436 287,439 287,439 291,444 294,446 297,433 298,434 299,435 300,436 301,437 302,439 303,440 304,441 305,442 306,443 307,444 309,446 310,447 311,432 312,433 312,433 314,435 315,435 315,436 317,438 318,440 320,442 324,446 326,448 327,448 328,435 331,437 332,423 333,424 333,424 334,410 334,411 335,412 337,413 337,415 339,416 342,421 345,423 347,424 348,425 350,427 353,430 355,432 356,433 360,437 362,438 363,439 364,440 366,441 366,442 367,443 369,444 372,434 372,421 373,409 374,397 375,398 375,399 377,400 377,401 378,402 379,403 381,404 382,405 383,393 383,393 384,381 385,381 385,382 386,383 386,383 387,384 388,384 388,373 389,373 389,374 390,375 391,375 391,376 392,377 393,377 393,378 394,378 394,379 395,379 396,380 396,381 397,382 397,371 398,371 399,372 400,373 400,374 401,362 402,351 403,340 404,329 404,329 405,329 405,330 406,330 407,331 407,332 408,333 408,322 410,324 410,325 411,326 411,326 412,327 413,317 415,320 416,321 416,310 417,311 418,324 419,325 419,325 420,326 421,327 421,316 422,318 422,326 423,326 424,328 424,329 425,329 426,330 427,331 427,332 428,333 429,334 429,335 430,335 430,325 431,326 432,316 432,306 433,296 434,307 434,307 435,308 436,309 437,310 437,311 438,314 440,316 440,316 441,316 441,307 442,308 443,308 443,309 444,310 445,311 445,311 446,312 447,313 448,286 449,277 452,269 453,260 456,263 457,264 457,265 458,266 459,267 460,268 460,259 461,260 462,260 462,261 463,271 464,273 465,274 465,274 466,275 467,275 467,276 468,277 469,278 470,279 472,282 473,272 474,274 475,265 475,266 478,268 478,269 480,271 481,266 483,268 484,269 484,260 486,263 486,263 487,264 487,265 489,268 489,259 490,252 491,252 492,253 492,245 493,237 494,247 494,248 495,249 496,251 497,252 498,252 498,253 499,254 500,247 500,248 501,249 503,250 504,253 505,253 505,245 506,247 507,248 508,249 508,251 509,252 509,244 510,245 511,247 512,248 512,248 513,240 514,241 514,242 515,234 516,234 516,227 517,228 517,229 518,221 519,222 519,223 520,224 520,216 521,209 522,211 523,212 523,213 525,215 525,216 526,209 527,202 527,203 528,204 528,205 529,206 530,208 530,201 531,202 531,203 532,203 533,205 533,197 535,199 535,200 536,201 538,203 538,204 539,213 539,206 540,207 541,208 541,209 542,202 542,203 543,203 544,204 544,205 545,205 546,206 546,207 547,200 547,201 548,202 549,195 549,180 550,181 550,182 551,183 552,184 552,192 553,193 553,194 554,195 555,196 555,196 556,197 557,198 557,199 558,200 558,201 559,202 560,195 561,197 561,198 562,199 563,199 564,193 565,187 565,180 566,181 566,175 567,176 568,178 569,179 569,180 570,174 571,175 571,175 572,176 572,177 573,177 574,178 574,172 575,173 576,173 576,178 577,186 577,179 578,180 579,174 579,175 580,176 580,177 581,178 582,172 582,173 583,181 583,175 584,176 585,177 585,178 586,179 587,174 587,175 588,176 588,177 589,178 590,178 590,180 591,180 591,182 592,183 593,183 593,184 594,185 595,186 595,187 596,189 596,190 597,191 598,192 598,193 599,194 599,194 600,195 601,196 601,197 602,198 602,198 603,199 604,199 604,200 605,201 606,189 606,189 607,190 607,204 608,204 609,205 609,206 610,207 610,207 611,202 612,197 612,198 613,199 613,199 614,200 615,201 615,202 616,203 617,204 617,205 618,205 618,206 619,207 620,207 620,208 621,209 621,209 622,210 623,212 623,212 624,213 625,214 625,214 626,208 626,203 627,203 628,204 628,198 629,199 629,194 630,195 631,196 631,197 632,198 632,198 633,199 634,200 634,200 635,201 636,202 636,202 637,203 637,198 638,192 639,193 639,194 640,195 640,196 641,191 642,192 642,192 643,193 643,193 644,194 645,189 645,190 646,190 647,179 647,174 648,181 648,176 649,164 650,164 650,166 651,167 651,167 652,168 653,169 653,175 654,176 654,177 655,178 656,180 656,181 657,182 658,177 658,177 659,178 659,179 660,179 661,180 661,181 662,182 662,183 663,183 664,184 664,185 665,186 666,181 666,182 667,183 667,184 668,184 669,185 669,186 670,181 670,182 671,171 672,172 672,172 673,168 673,168 674,169 675,170 675,171 676,161 677,162 677,162 678,158 678,159 679,160 680,161 680,162 681,157 681,153 682,153 683,149 683,150 684,151 684,152 685,153 686,153 686,154 687,149 688,144 688,145 689,146 689,146 690,147 691,147 691,148 692,149 692,150 693,151 694,152 694,152 695,153 696,154 696,150 697,151 697,151 698,152 699,153 699,148 700,149 700,149 701,150 702,150 702,152 703,153 703,153 704,154 705,155 705,145 706,141 707,141 707,141 708,142 708,143 709,144 710,145 710,145 711,146 711,147 712,148 713,148 713,144 714,145 714,145 715,146 716,147 716,148 717,143 718,143 718,144 719,145 719,146 720,142 721,143 721,144 722,140 722,141 723,137 724,138 724,134 725,139 726,140 726,141 727,142 727,143 728,143 729,144 729,144 730,145 730,146 731,152 732,153 732,153 733,154 733,157 734,158 735,153 735,154 736,145 737,146 737,147 738,143 738,144 739,140 740,141 740,143 741,144 741,149 742,150 743,146 743,147 744,147 744,149 745,149 746,150 746,151 747,152 748,153 748,154 749,155 749,156 750,152 751,148 751,149 752,149 752,150 753,151 754,147 754,153 755,149 755,149 756,150 757,152 757,153 758,153 759,156 759,157 760,157 760,158 761,155 762,155 762,156 763,152 763,149 764,150 765,150 765,146 766,147 767,144 767,145 768,147 768,143 769,144 770,145 770,145 771,150 771,151 772,152 773,153 773,153 774,154 774,155 775,156 776,157 776,157 777,158 778,158 778,164 779,165 779,166 780,162 781,163 781,164 782,164 782,160 783,161 784,162 784,154 785,155 785,155 786,156 787,156 787,158 788,158 789,155 789,152 790,153 790,153 791,154 792,155 792,155 793,156 793,157 794,157 795,158 795,158 796,160 797,161 797,161 798,162 798,162 799,163 800,164 800,164 801,161 801,161 802,157 803,158 803,159 804,155 804,156 805,161 806,161 806,162 807,154 808,155 808,151 809,152 809,152 810,149 811,149 811,149 812,150 812,151 813,152 814,153 814,149 815,150 815,150 816,151 817,151 817,152 818,153 819,154 819,154 820,155 820,155 821,147 822,148 822,149 823,149 823,150 824,151 825,151 825,152 826,152 827,153 827,153 828,154 828,155 829,155 830,156 830,153 831,153 831,150 832,150 833,152 833,152 834,152 834,153 835,154 836,151 836,143 837,144 838,144 838,145 839,145 839,146 840,147 841,147 841,148 842,148 842,149 843,150 844,151 844,152 845,153 845,154 846,158 847,159 847,156 848,159 849,160 849,161 850,161 850,162 851,163 852,164 852,164 853,165 853,162 854,163 855,164 855,165 856,162 856,159 857,159 858,160 858,161 859,165 860,166 860,166 861,167 861,168 862,171 863,172 863,173 864,174 864,174 865,175 866,176 866,172 867,173 868,174 868,171 869,171 869,172 870,173 871,173 871,175 872,175 872,175 873,176 874,177 874,178 875,178 875,179 876,179 877,180 877,181 878,178 879,179 879,179 879,180 880,181 880,182 881,179 882,179 882,180 883,181 883,180 884,180 885,181 885,178 886,178 886,179 887,177 888,177 888,178 889,180 890,178 890,184 891,179 891,177 892,177 893,178 893,175 894,176 894,174 895,175 896,176 896,177 897,177 898,178 898,175 899,176 899,177 900,178 901,179 901,181 902,182 902,182 903,183 904,180 904,181 905,182 905,182 906,183 907,184 907,185 908,186 909,183 909,183 910,184 910,181 911,182 912,183 912,183 913,181 913,182 914,182 915,180 915,177 916,178 916,178 917,176 918,170 918,170 919,171 920,171 920,172 921,173 921,173 922,174 923,168 923,169 924,167 924,167 925,165 926,163 926,163 927,164 928,164 928,165 929,163 929,160 930,161 931,162 931,163 932,164 932,164 933,165 934,166 934,167 935,168 935,168 936,169 937,169 937,170 938,171 939,166 939,166 940,164 940,162 941,163 942,161 942,185 943,185 943,183 944,161 945,162 945,162 946,160 946,161 947,162 948,159 948,160 949,157 950,158 950,159 951,160 951,160 952,158 953,159 953,160 954,161 954,161 955,159 956,160 956,161 957,162 958,163 958,160 959,161 959,159 960,160 961,161 961,161 962,163 962,163 963,164 964,165 964,165 965,166 965,164 966,165 967,166 967,166 968,167 969,168 969,170 970,171 970,171 971,172 972,173 972,171 973,171 973,172 974,173 975,173 975,175 976,175 976,176 977,174 978,175 978,169 979,170 980,171 980,172 981,173 981,173 982,174 983,175 983,173 984,171 984,169 985,170 986,170 986,171 987,172 987,173 988,171 989,172 989,172 990,173 991,174 991,175 992,176 992,176 993,177 994,177 994,173 995,173 995,174 996,175 997,175 997,173 998,174 999,175 999,176 1000,176 1000,177 1001,178 1002,176 1002,177 1003,177 1003,178 1004,179 1005,179 1005,180 1006,178 1006,178 1007,179 1008,179 1008,177 1009,175 1010,176 1010,177 1011,177 1011,178 1012,176 1013,176 1013,179 1014,180 1014,181 1015,182 1016,183 1016,184 1017,185 1017,185 1018,186 1019,184 1019,185 1020,186 1021,178 1021,179 1022,180 1022,181 1023,179 1024,179 1024,180 1025,178 1025,179 1026,179 1027,180 1027,181 1028,181 1029,182 1029,180 1030,181 1030,182 1031,182 1032,183 1032,184 1033,184 1033,183 1034,178 1035,179 1035,179 1036,180 1036,181 1037,179 1038,180 1038,180 1039,181 1040,182 1040,182 1041,183 1041,183 1042,184 1043,185 1043,185 1044,186 1044,186 1045,186 1046,187 1046,188 1047,182 1047,182 1048,183 1049,184 1049,184 1050,185 1051,185 1051,187 1052,188 1052,183 1053,184 1054,184 1054,185 1055,183 1055,184 1056,184 1057,185 1057,185 1058,186 1059,184 1059,185 1060,183 1060,184 1061,185 1062,185 1062,186 1063,187 1063,188 1064,188 1065,190 1065,188 1066,188 1066,187 1067,188 1068,189 1068,189 1069,189 1070,190 1070,191 1071,192 1071,192 1072,191 1073,191 1073,192 1074,192 1074,193 1075,194 1076,194 1076,195 1077,196 1077,196 1078,194 1079,195 1079,195 1080,196 1081,195 1081,193 1082,194 1082,194 1083,195 1084,195 1084,196 1085,196 1085,197 1086,198 1087,196 1087,197 1088,195 1088,201 1089,201 1090,202 1090,202 1091,201 1092,201 1092,201 1093,199 1093,199 1094,200 1095,198 1095,198 1096,199 1096,197 1097,198 1098,190 1098,190 1099,190 1100,191 1100,191 1101,194 1101,195 1102,196 1103,194 1103,192 1104,193 1104,191 1105,192 1106,192 1106,192 1107,191 1107,189 1108,190 1109,188 1109,189 1110,196 1111,197 1111,195 1112,198 1112,199 1113,200 1114,200 1114,201 1115,202 1115,202 1115,203 1116,203 1117,204 1117,204 1118,205 1118,206 1119,206 1120,207 1120,205 1121,204 1122,200 1122,201 1123,201 1123,202 1124,202 1125,203 1125,203 1126,204 1126,204 1127,205 1128,204 1128,204 1129,205 1130,206 1130,206 1131,207 1131,207 1132,206 1133,207 1133,207 1134,208 1134,208 1135,209 1136,210 1136,210 1137,211 1137,211 1138,212 1139,213 1139,213 1140,214 1141,215 1141,213 1142,212 1142,212 1143,210 1144,209 1144,205 1145,206 1145,206 1146,207 1147,207 1147,208 1148,209 1148,208 1149,208 1150,209 1150,209 1151,208 1152,209 1152,197 1153,198 1153,198 1154,199 1155,200 1155,200 1156,199 1156,200 1157,200 1158,201 1158,201 1159,202 1160,203 1160,201 1161,202 1161,203 1162,202 1163,202 1163,202 1164,201 1164,202 1165,202 1166,203 1166,202 1167,203 1167,203 1168,204 1169,203 1169,203 1170,203 1170,200 1171,200 1171,200 1171,200 1171,203 1172,203 1172,204 1172,205 1173,204 1174,204 1174,205 1174,205 1174,205 1175,205 1175,206 1175,207 1176,207 1176,207 1177,207 1177,208 1177,208 1177,208 1178,208 1178,209 1178,209 1178,209 1179,209 1179,210 1180,209 1180,209 1180,209 1181,206 1182,205 1182,205 1182,206 1183,207 1183,207 1183,208 1184,208 1184,209 1185,209 1185,210 1185,210 1185,211 1186,211 1186,210 1186,210 1186,210 1187,209 1188,209 1188,210 1188,210 1188,210 1189,210 1189,211 1190,211 "/>
<polyline fill="none" opacity="1" stroke="#E5E619" stroke-width="2" points="366,732 373,719 375,707 381,695 399,685 423,679 445,673 457,665 460,656 460,656 465,657 486,652 494,636 498,629 517,627 527,622 539,610 541,603 544,596 553,592 557,586 560,579 561,573 563,566 568,561 570,555 573,549 581,547 591,545 591,539 593,533 595,527 598,522 604,525 607,520 612,517 619,514 621,515 625,511 631,508 635,504 636,510 640,507 640,507 642,508 644,509 645,503 645,504 646,504 647,504 647,505 648,499 653,495 654,496 655,497 657,493 658,493 658,493 661,495 662,495 662,490 663,490 666,487 667,481 669,488 669,488 670,489 671,484 672,478 673,473 673,468 675,463 675,464 676,464 680,467 680,462 681,457 683,459 684,454 686,460 686,461 687,461 689,462 690,462 691,463 691,463 692,463 692,464 694,454 696,455 696,461 698,462 699,462 700,463 700,463 702,464 702,459 705,455 705,461 709,458 710,458 711,459 713,460 714,456 716,456 716,452 717,452 722,456 723,451 724,452 727,449 731,446 732,447 733,447 733,449 735,450 737,451 738,447 740,444 741,435 742,435 743,431 744,432 745,433 746,429 746,429 747,429 748,431 751,432 753,434 757,437 757,432 758,433 759,435 760,430 761,427 762,427 763,429 766,430 767,432 770,434 771,430 771,430 772,426 774,423 775,419 778,416 778,417 779,413 779,409 780,409 781,410 781,410 784,412 784,412 785,413 788,410 789,412 790,408 791,409 792,405 792,396 794,398 795,398 796,399 797,404 799,401 800,389 801,385 801,390 802,390 803,390 803,386 804,387 804,387 805,388 806,388 807,389 808,389 810,391 811,391 811,387 812,387 814,385 814,385 815,381 815,381 816,382 817,379 818,379 819,375 819,376 820,372 822,373 822,373 823,370 824,371 825,367 826,368 827,368 827,368 828,369 830,362 830,358 831,359 831,359 832,355 833,356 833,356 834,357 834,357 836,358 837,359 838,359 840,361 841,361 841,357 842,358 843,359 844,360 844,360 845,361 847,362 847,363 848,361 849,362 849,362 850,359 850,355 851,352 853,353 853,350 854,351 855,348 856,348 856,349 857,350 858,350 859,350 860,342 860,343 861,344 861,344 862,343 863,339 864,341 864,341 865,338 866,338 866,339 868,340 869,341 870,341 871,343 872,343 872,343 873,344 874,344 874,341 875,342 875,338 877,339 877,337 878,326 879,327 880,328 880,329 881,326 882,326 882,327 883,317 883,315 884,312 885,309 885,309 886,307 887,307 888,308 888,308 890,311 890,315 891,312 891,313 893,314 893,311 894,305 894,305 895,299 896,300 896,301 897,301 898,302 899,303 899,300 900,294 901,295 901,290 902,290 902,291 903,288 904,289 904,289 905,290 906,291 907,288 907,289 908,283 909,283 909,284 910,285 912,283 912,283 913,284 913,284 914,285 915,286 915,286 916,283 916,284 917,284 918,285 920,283 920,284 921,284 921,284 922,285 924,284 924,281 925,282 926,283 926,280 927,280 928,281 928,281 929,282 929,276 930,277 931,274 932,272 933,273 934,274 935,276 936,277 937,274 937,271 938,268 939,267 939,264 940,268 940,268 941,266 942,267 942,284 943,284 943,284 945,268 946,268 946,269 947,264 948,267 948,265 949,262 950,259 950,260 951,258 951,252 952,250 953,251 953,251 954,252 955,250 956,251 956,252 957,252 958,253 960,259 961,260 961,260 962,258 963,256 964,257 964,258 965,259 966,260 967,257 967,255 968,255 969,257 969,246 971,248 972,246 972,241 973,235 973,236 974,231 975,231 976,228 977,229 978,226 978,224 979,228 980,225 980,223 981,221 981,222 982,219 983,220 983,218 984,220 985,221 986,221 986,216 987,217 987,215 988,216 989,211 990,207 991,205 991,206 992,203 992,199 994,197 994,195 995,196 995,196 996,197 997,197 997,198 998,199 999,200 999,198 1000,198 1000,199 1001,200 1002,201 1002,201 1003,197 1003,197 1004,195 1005,195 1005,196 1006,191 1006,192 1007,192 1008,193 1008,194 1009,194 1010,195 1010,196 1011,196 1011,197 1012,192 1013,193 1013,190 1014,191 1014,191 1015,192 1016,188 1016,189 1017,190 1017,188 1018,188 1019,187 1019,188 1020,188 1021,189 1021,187 1022,182 1022,181 1023,181 1024,179 1024,177 1025,175 1025,168 1026,166 1027,167 1027,165 1028,166 1029,166 1029,165 1030,163 1030,164 1031,162 1032,165 1032,161 1033,161 1033,157 1034,153 1035,156 1035,154 1036,155 1036,153 1037,154 1038,154 1038,155 1039,156 1040,154 1040,152 1041,152 1041,153 1042,154 1043,155 1043,152 1044,151 1044,145 1045,144 1046,146 1047,144 1047,145 1048,140 1049,141 1049,142 1050,143 1051,141 1051,143 1052,143 1052,144 1053,142 1054,145 1054,141 1055,141 1055,142 1056,138 1057,138 1057,136 1058,132 1059,125 1059,124 1060,125 1060,126 1061,122 1062,122 1063,124 1063,125 1064,126 1065,125 1065,125 1066,126 1066,127 1067,121 1068,119 1068,120 1069,120 1070,121 1070,122 1071,120 1071,121 1072,120 1073,118 1073,116 1074,117 1074,118 1075,116 1076,114 1076,117 1077,119 1078,119 1079,120 1079,118 1080,119 1081,123 1081,123 1082,124 1082,124 1083,125 1084,126 1084,126 1085,127 1085,125 1086,126 1087,127 1087,128 1088,129 1088,127 1089,128 1090,128 1090,129 1091,130 1092,131 1092,130 1093,131 1093,129 1094,129 1095,130 1095,130 1096,129 1096,132 1097,128 1098,129 1098,127 1099,129 1100,130 1100,131 1101,125 1101,119 1103,121 1104,122 1105,120 1106,125 1106,126 1107,124 1107,125 1109,124 1109,125 1110,126 1111,127 1111,125 1112,124 1112,124 1113,123 1114,122 1114,120 1115,121 1115,120 1117,121 1117,117 1118,118 1118,114 1119,111 1120,112 1120,113 1121,111 1122,112 1122,111 1123,113 1123,114 1124,114 1125,115 1125,109 1126,110 1126,110 1127,109 1128,110 1128,109 1129,110 1130,110 1130,111 1131,111 1131,112 1132,113 1133,114 1133,114 1134,115 1134,113 1135,114 1136,116 1136,114 1137,114 1137,113 1138,112 1139,112 1139,113 1140,114 1141,115 1141,116 1142,116 1142,117 1143,117 1144,118 1144,118 1145,117 1145,117 1146,114 1147,113 1147,114 1148,115 1148,113 1149,112 1150,110 1150,111 1151,112 1152,111 1152,110 1153,108 1153,109 1154,110 1155,111 1155,109 1156,108 1156,107 1157,107 1158,110 1158,109 1159,107 1160,108 1160,107 1161,108 1161,105 1162,106 1163,107 1163,104 1164,105 1164,104 1165,103 1166,100 1166,101 1167,102 1167,101 1168,102 1169,100 1169,101 1170,101 1170,100 1171,100 1171,100 1171,100 1171,101 1172,101 1172,102 1172,104 1173,103 1174,103 1174,104 1174,104 1174,104 1175,104 1175,105 1175,104 1176,104 1176,105 1177,105 1177,106 1177,106 1177,106 1178,106 1178,107 1178,107 1178,107 1179,107 1179,106 1180,105 1180,105 1180,105 1181,101 1182,101 1182,101 1182,99 1183,100 1183,100 1183,89 1184,89 1184,87 1185,87 1185,87 1185,87 1185,84 1186,84 1186,85 1186,85 1186,84 1187,84 1188,84 1188,85 1188,85 1188,86 1189,86 1189,85 1190,85 "/>
<polyline fill="none" opacity="1" stroke="#19E619" stroke-width="2" points="569,738 571,730 592,731 607,725 618,726 621,726 637,727 640,727 646,721 647,721 647,721 662,716 676,717 689,718 694,713 703,708 717,709 718,709 722,709 725,705 735,701 740,701 744,702 760,699 761,694 770,695 774,696 776,696 778,696 778,687 779,692 782,688 789,689 793,685 794,681 796,681 798,673 800,673 804,669 832,669 835,665 836,661 842,662 849,660 851,656 853,657 853,657 860,655 860,651 861,651 866,649 866,649 869,649 874,647 874,647 877,644 882,645 883,642 887,643 894,641 895,638 896,638 898,639 902,636 902,637 903,633 906,634 907,634 907,631 911,629 915,626 918,623 918,624 921,621 921,621 923,621 924,622 926,622 926,622 929,623 934,621 935,621 935,621 937,622 940,623 941,620 942,622 945,615 946,615 947,616 948,613 949,613 950,613 951,613 954,611 955,608 956,609 957,609 958,609 964,611 964,611 965,612 966,606 967,606 969,607 969,604 970,604 972,602 976,604 980,605 982,605 983,606 987,607 993,609 994,609 994,609 995,609 995,609 996,609 997,610 997,607 998,607 999,607 999,608 1000,608 1000,605 1001,605 1002,606 1002,606 1003,606 1003,606 1004,606 1005,606 1005,606 1006,607 1006,607 1007,607 1008,607 1008,607 1009,605 1010,605 1010,605 1011,605 1011,605 1012,605 1013,606 1013,606 1014,607 1014,604 1015,604 1016,605 1016,602 1017,602 1017,602 1018,603 1019,603 1019,603 1020,603 1021,603 1021,604 1022,601 1022,601 1023,599 1024,599 1024,599 1025,599 1025,600 1026,600 1027,600 1027,600 1028,600 1029,600 1029,598 1030,598 1030,596 1031,596 1032,596 1032,596 1033,597 1033,597 1034,597 1035,597 1035,597 1036,597 1036,598 1037,598 1038,598 1038,598 1039,598 1040,599 1040,599 1041,599 1041,599 1042,597 1043,597 1043,597 1044,597 1044,597 1045,597 1046,597 1046,598 1047,598 1047,598 1048,598 1049,599 1049,599 1050,599 1051,599 1051,599 1052,600 1052,600 1053,600 1054,600 1054,600 1055,600 1055,600 1056,601 1057,601 1057,601 1058,601 1059,601 1059,601 1060,599 1060,599 1061,597 1062,597 1062,597 1063,598 1063,598 1064,598 1065,596 1065,596 1066,596 1066,597 1067,594 1068,595 1068,595 1069,595 1070,593 1070,593 1071,591 1071,591 1072,589 1073,589 1073,589 1074,589 1074,589 1075,587 1076,587 1076,590 1077,590 1077,586 1078,586 1079,584 1079,584 1080,586 1081,587 1081,587 1082,587 1082,587 1083,580 1084,580 1084,581 1085,581 1085,581 1086,581 1087,581 1087,582 1088,582 1088,580 1089,578 1090,578 1090,578 1091,578 1092,578 1092,579 1093,579 1093,579 1094,579 1095,579 1095,579 1096,580 1096,580 1097,580 1098,578 1098,578 1099,579 1100,579 1100,577 1101,577 1101,577 1102,578 1103,578 1103,578 1104,578 1104,574 1105,574 1106,572 1106,572 1107,572 1107,572 1108,572 1109,573 1109,571 1110,571 1111,571 1111,571 1112,569 1112,570 1113,568 1114,568 1114,568 1115,568 1115,568 1115,569 1116,569 1117,569 1117,569 1118,569 1118,570 1119,570 1120,570 1120,570 1121,570 1122,571 1122,571 1123,569 1123,569 1124,569 1125,569 1125,570 1126,568 1126,568 1127,566 1128,566 1128,566 1129,567 1130,562 1130,563 1131,563 1131,563 1132,563 1133,564 1133,564 1134,564 1134,564 1135,564 1136,565 1136,565 1137,565 1137,565 1138,565 1139,566 1139,566 1140,562 1141,562 1141,562 1142,562 1142,563 1143,563 1144,563 1144,563 1145,563 1145,563 1146,564 1147,564 1147,564 1148,564 1148,565 1149,563 1150,563 1150,563 1151,563 1152,564 1152,564 1153,566 1153,568 1154,569 1155,569 1155,569 1156,567 1156,567 1157,567 1158,568 1158,568 1159,566 1160,566 1160,567 1161,567 1161,565 1162,563 1163,564 1163,564 1164,564 1164,565 1165,565 1166,565 1166,565 1167,566 1167,564 1168,562 1169,562 1169,562 1170,563 1170,561 1171,561 1171,561 1171,561 1171,559 1172,559 1172,560 1172,560 1173,558 1174,558 1174,557 1174,557 1174,555 1175,555 1175,555 1175,555 1176,555 1176,554 1177,554 1177,554 1177,554 1177,554 1178,554 1178,554 1178,554 1178,554 1179,554 1179,554 1180,555 1180,555 1180,555 1181,555 1182,555 1182,555 1182,556 1183,556 1183,556 1183,553 1184,553 1184,553 1185,553 1185,552 1185,552 1185,550 1186,550 1186,550 1186,550 1186,550 1187,549 1188,549 1188,549 1188,549 1188,549 1189,549 1189,549 1190,549 "/>
<polyline fill="none" opacity="1" stroke="#19E5E6" stroke-width="2" points="60,692 84,656 101,628 107,598 110,564 111,457 115,430 119,406 125,483 128,457 129,457 132,433 132,343 138,357 140,363 141,334 142,308 145,314 150,326 154,307 157,314 160,292 161,294 162,296 167,303 167,305 168,305 168,282 170,207 172,214 177,227 178,228 179,233 180,234 181,236 183,241 186,247 187,250 188,250 189,252 190,255 193,238 194,238 195,240 197,242 197,244 198,245 198,246 200,248 202,250 202,251 203,230 204,232 205,233 205,234 206,235 207,237 208,238 209,240 211,242 211,243 212,244 213,223 216,228 218,232 219,233 220,236 220,236 221,237 222,241 222,241 224,244 225,225 225,226 227,187 228,189 229,191 230,193 231,173 232,174 232,175 233,176 233,176 234,178 235,158 238,163 238,165 239,166 239,167 240,169 241,170 242,172 243,173 244,157 245,158 246,160 247,162 247,166 248,166 249,167 249,168 250,168 251,170 254,175 254,175 255,158 257,141 258,144 258,147 259,147 260,131 263,138 265,141 265,142 266,143 266,145 268,146 268,147 269,149 271,133 272,135 273,137 273,121 274,122 274,123 275,123 276,124 276,125 277,126 277,128 278,130 279,130 279,132 280,134 280,153 281,137 282,138 282,139 283,140 284,141 284,142 285,144 285,145 286,130 287,115 288,118 289,121 290,106 290,107 291,109 292,110 293,111 293,113 294,114 295,115 295,117 296,117 296,119 297,120 298,122 298,124 299,125 299,126 300,127 301,130 301,131 302,133 303,135 303,136 304,137 304,138 305,140 306,141 306,142 307,143 307,144 308,145 309,147 309,147 310,148 310,149 311,151 312,151 312,153 313,154 314,155 314,155 315,156 315,158 316,159 317,161 317,163 318,164 318,165 319,167 320,167 320,169 321,171 321,158 322,145 323,145 323,146 324,132 325,133 325,134 326,135 326,121 327,122 328,123 328,125 329,126 329,127 330,127 331,129 331,129 332,130 333,132 333,132 334,119 334,120 335,107 336,108 336,95 337,82 337,84 338,85 339,86 339,88 340,90 340,92 341,93 342,95 342,96 343,97 344,84 345,86 345,87 346,88 347,89 347,90 348,91 348,93 349,94 350,95 350,96 351,97 351,98 352,99 353,101 353,102 354,103 355,106 355,107 356,94 356,82 357,82 358,83 358,85 359,87 359,88 360,75 361,76 361,77 362,79 363,80 363,81 364,82 364,83 365,84 366,85 366,86 367,88 367,89 368,103 369,104 369,105 370,106 370,107 371,108 372,109 373,99 374,100 374,101 375,102 375,104 377,106 377,107 378,108 378,110 379,111 380,100 380,100 381,101 381,102 382,102 383,103 383,104 384,104 385,105 385,107 386,108 386,109 387,110 388,111 388,112 389,113 389,114 390,115 391,116 391,117 392,119 393,120 393,121 394,121 394,122 395,123 396,125 396,126 397,127 397,129 398,130 399,119 399,108 400,97 400,98 401,99 402,101 403,102 404,102 404,103 405,104 405,104 406,105 407,107 407,108 408,109 408,110 409,111 410,113 410,114 411,116 411,117 412,119 413,120 413,121 414,123 415,113 415,114 416,115 416,116 417,117 418,118 418,108 419,109 419,110 420,111 421,112 421,113 422,115 422,127 423,128 424,130 424,110 425,111 426,112 426,113 427,103 427,104 428,106 429,96 429,97 430,98 430,99 431,100 432,101 432,102 433,103 434,103 434,104 435,105 435,106 436,108 437,109 437,110 438,114 438,115 439,116 440,116 440,117 441,118 441,119 442,120 443,121 443,122 444,133 445,135 445,136 446,137 446,137 447,138 448,139 448,143 449,144 449,145 450,145 451,146 451,146 452,148 452,148 453,149 454,150 454,161 455,162 456,162 456,163 457,164 457,165 458,166 459,167 459,167 460,168 460,169 461,161 462,161 462,162 463,163 464,163 464,165 465,156 465,157 466,167 467,168 467,169 468,169 468,160 469,161 470,162 470,153 471,154 471,155 472,146 473,147 473,148 474,139 475,140 475,131 476,142 476,142 477,143 478,134 478,135 479,136 479,137 480,129 481,131 481,134 482,135 482,135 483,137 484,138 484,139 485,122 486,124 486,124 487,126 487,127 488,128 489,139 489,140 490,132 490,133 491,134 492,135 492,136 493,137 494,138 494,140 495,141 495,142 496,143 497,143 497,144 498,145 498,146 499,139 500,140 500,141 501,133 501,125 502,126 503,127 503,128 504,129 505,130 505,131 506,132 506,124 507,134 508,136 508,138 509,139 509,140 510,141 511,142 511,143 512,145 512,146 513,146 514,147 514,148 515,148 516,149 516,142 517,143 517,144 518,145 519,146 519,147 520,148 520,149 521,151 522,152 522,153 523,154 523,155 524,147 525,148 525,150 526,143 527,136 527,137 528,122 528,123 529,125 530,126 530,128 531,129 531,130 532,131 533,132 533,125 534,126 535,127 535,128 536,128 536,129 537,130 538,131 538,133 539,134 539,135 540,136 541,137 541,138 542,139 542,140 543,140 544,141 544,134 545,135 546,128 546,129 547,130 547,131 548,132 549,125 549,126 550,127 550,120 551,114 552,115 552,115 553,117 553,117 554,118 555,120 555,120 556,121 557,122 557,123 558,124 558,125 559,126 560,127 560,128 561,114 561,116 562,116 563,117 563,118 564,119 565,120 565,113 566,114 566,115 567,117 568,118 568,119 569,120 569,121 570,122 571,123 571,124 572,125 572,126 573,127 574,127 574,129 575,129 576,130 576,135 577,135 577,136 578,137 579,138 579,139 580,140 580,141 581,142 582,143 582,144 583,145 583,147 584,148 585,149 585,150 586,152 587,153 587,154 588,155 588,156 589,157 590,157 590,152 591,153 591,147 592,148 593,149 593,150 594,144 595,145 595,147 596,149 596,150 597,151 598,151 598,153 599,154 599,154 600,148 601,149 601,136 602,131 602,132 603,132 604,133 604,134 605,135 606,136 606,137 607,137 607,138 608,132 609,133 609,134 610,134 610,135 611,137 612,125 612,126 613,127 613,128 614,129 615,130 615,131 616,132 617,133 617,134 618,135 618,135 619,136 620,136 620,138 621,139 621,139 622,140 623,136 623,136 624,137 625,138 625,132 626,133 626,133 627,134 628,135 628,129 629,130 629,131 630,132 631,133 631,135 632,136 632,136 633,137 634,138 634,138 635,139 636,134 636,135 637,135 637,136 638,137 639,132 639,139 640,140 640,141 641,142 642,143 642,144 643,144 643,145 644,146 645,147 645,147 646,148 647,149 647,150 648,151 648,152 649,152 650,152 650,154 651,155 651,155 652,156 653,157 653,157 654,158 654,159 655,160 656,162 656,163 657,164 658,165 658,166 659,166 659,167 660,168 661,168 661,163 662,164 662,171 663,171 664,173 664,173 665,175 666,176 666,176 667,177 667,178 668,179 669,179 669,180 670,181 670,182 671,182 672,183 672,184 673,185 673,185 674,186 675,187 675,188 676,189 677,190 677,190 678,197 678,198 679,199 680,200 680,201 681,202 681,202 682,203 683,204 683,205 684,206 684,207 685,207 686,203 686,203 687,204 688,204 688,205 689,205 689,206 690,201 691,202 691,202 692,203 692,198 693,199 694,200 694,200 695,201 696,202 696,203 697,204 697,205 698,205 699,206 699,207 700,207 700,208 701,208 702,209 702,210 703,211 703,212 704,212 705,213 705,208 706,209 707,209 707,210 708,210 708,211 709,212 710,213 710,213 711,214 711,214 712,215 713,216 713,217 714,217 714,218 715,219 716,219 716,220 717,220 718,221 718,211 719,212 719,213 720,214 721,189 721,190 722,191 722,192 723,193 724,194 724,194 725,195 726,196 726,196 727,197 727,198 728,198 729,199 729,200 730,190 730,191 731,192 732,193 732,193 733,194 733,196 734,197 735,198 735,199 736,200 737,200 737,201 738,202 738,208 739,209 740,209 740,211 741,212 741,212 742,213 743,213 743,214 744,215 744,216 745,217 746,217 746,218 747,219 748,220 748,221 749,217 749,218 750,219 751,219 751,220 752,220 752,216 753,217 754,218 754,219 755,219 755,219 756,221 757,222 757,223 758,219 759,221 759,221 760,222 760,223 761,224 762,224 762,225 763,226 763,227 764,227 765,228 765,229 766,229 767,221 767,223 768,224 768,225 769,225 770,226 770,227 771,222 771,223 772,224 773,225 773,225 774,226 774,222 775,223 776,224 776,224 777,225 778,225 778,226 779,227 779,227 780,228 781,220 781,216 782,217 782,213 783,214 784,214 784,215 785,216 785,212 786,212 787,213 787,214 788,215 789,215 789,217 790,218 790,218 791,219 792,219 792,220 793,221 793,221 794,222 795,248 795,248 796,249 797,250 797,251 798,251 798,251 799,248 800,249 800,249 801,249 801,250 802,250 803,251 803,251 804,248 804,248 805,249 806,250 806,250 807,251 808,251 808,252 809,252 809,252 810,253 811,253 811,253 812,254 812,255 813,255 814,256 814,257 815,257 815,258 816,258 817,259 817,259 818,260 819,260 819,261 820,261 820,262 821,266 822,267 822,267 823,268 823,268 824,269 825,269 825,270 826,270 827,270 827,271 828,272 828,272 829,272 830,273 831,274 831,275 832,275 833,276 833,276 834,277 834,277 835,278 836,278 836,279 837,279 838,280 838,280 839,277 839,277 840,278 841,278 841,278 842,279 842,279 843,280 844,277 844,278 845,278 845,279 846,280 847,280 847,281 848,283 849,284 849,285 850,285 850,286 851,286 852,287 852,287 853,288 853,289 854,289 855,290 855,291 856,291 856,292 857,292 858,293 858,294 859,297 860,294 860,294 861,295 861,295 862,298 863,298 863,299 864,300 864,300 865,301 866,301 866,302 867,302 868,303 868,303 869,304 869,304 870,305 871,305 871,306 872,307 872,303 873,304 874,304 874,305 875,305 875,302 876,303 877,303 877,304 878,305 879,305 879,305 879,306 880,307 880,307 881,308 882,308 882,305 883,306 883,308 884,305 885,305 885,306 886,306 886,307 887,307 888,308 888,308 889,310 890,311 890,315 891,312 891,313 892,313 893,314 893,314 894,315 894,316 895,316 896,317 896,311 897,312 898,312 898,312 899,313 899,314 900,311 901,312 901,310 902,311 902,311 903,312 904,312 904,313 905,313 905,314 906,314 907,315 907,316 908,316 909,317 909,317 910,317 910,318 911,319 912,319 912,320 913,320 913,321 914,321 915,322 915,322 916,323 916,323 917,324 918,324 918,325 919,325 920,326 920,326 921,326 921,327 922,327 923,328 923,328 924,329 924,330 925,331 926,328 926,328 927,332 928,332 928,333 929,333 929,331 930,331 931,332 931,333 932,333 932,334 933,334 934,334 934,335 935,336 935,330 936,330 937,331 937,331 938,332 939,336 939,336 940,340 940,341 941,341 942,342 942,358 943,362 943,362 944,347 945,348 945,348 946,349 946,350 947,350 948,350 948,351 949,351 950,352 950,352 951,353 951,350 952,351 953,351 953,352 954,352 954,350 955,350 956,351 956,351 957,352 958,353 958,353 959,354 959,354 960,355 961,359 961,359 962,360 962,360 963,361 964,361 964,362 965,362 965,363 966,363 967,364 967,364 968,365 969,366 969,367 970,367 970,367 971,368 972,368 972,369 973,369 973,370 974,370 975,371 975,371 976,372 976,373 977,373 978,373 978,377 979,377 980,377 980,378 981,379 981,376 982,377 983,380 983,381 984,381 984,379 985,379 986,380 986,380 987,381 987,381 988,382 989,380 989,380 990,381 991,381 991,382 992,382 992,383 993,383 994,383 994,384 995,384 995,385 996,385 997,386 997,386 998,386 999,387 999,388 1000,388 1000,388 1001,389 1002,389 1002,390 1003,390 1003,388 1004,388 1005,389 1005,386 1006,387 1006,387 1007,388 1008,388 1008,388 1009,389 1010,389 1010,389 1011,390 1011,390 1012,391 1013,391 1013,393 1014,393 1014,394 1015,394 1016,395 1016,396 1017,396 1017,396 1018,397 1019,397 1019,398 1020,399 1021,396 1021,396 1022,397 1022,398 1023,398 1024,398 1024,399 1025,399 1025,400 1026,400 1027,400 1027,401 1028,401 1029,404 1029,405 1030,403 1030,403 1031,403 1032,404 1032,404 1033,405 1033,405 1034,403 1035,403 1035,404 1036,404 1036,404 1037,405 1038,405 1038,406 1039,406 1040,407 1040,407 1041,405 1041,405 1042,406 1043,406 1043,406 1044,406 1044,406 1045,407 1046,407 1046,408 1047,408 1047,409 1048,409 1049,410 1049,410 1050,410 1051,411 1051,412 1052,412 1052,415 1053,415 1054,416 1054,416 1055,416 1055,417 1056,417 1057,417 1057,420 1058,418 1059,418 1059,419 1060,419 1060,420 1061,420 1062,420 1062,421 1063,421 1063,422 1064,422 1065,423 1065,423 1066,423 1066,424 1067,425 1068,423 1068,423 1069,423 1070,423 1070,424 1071,424 1071,425 1072,425 1073,426 1073,424 1074,424 1074,424 1075,425 1076,425 1076,425 1077,426 1077,426 1078,426 1079,427 1079,427 1080,428 1081,428 1081,428 1082,429 1082,427 1083,427 1084,427 1084,428 1085,428 1085,428 1086,429 1087,429 1087,429 1088,428 1088,428 1089,428 1090,429 1090,429 1091,427 1092,428 1092,428 1093,429 1093,429 1095,429 1095,430 1096,430 1096,430 1097,431 1098,431 1098,432 1099,433 1100,433 1100,433 1101,434 1101,434 1102,435 1103,435 1103,435 1104,436 1104,436 1105,436 1106,436 1106,437 1107,437 1107,437 1108,437 1109,438 1109,438 1110,439 1111,439 1111,439 1112,440 1112,440 1113,441 1114,441 1114,441 1115,442 1115,442 1115,442 1116,443 1117,443 1117,443 1118,444 1118,444 1119,444 1120,445 1120,445 1121,445 1122,446 1122,444 1123,444 1123,444 1124,445 1125,445 1125,445 1126,446 1126,446 1127,446 1128,447 1128,447 1129,448 1130,450 1130,450 1131,453 1131,453 1132,453 1133,454 1133,454 1134,454 1134,455 1135,455 1136,455 1136,456 1137,456 1137,456 1138,457 1139,457 1139,455 1140,454 1141,454 1141,454 1142,455 1142,455 1143,455 1144,455 1144,455 1145,456 1145,456 1146,456 1147,453 1147,453 1148,454 1148,448 1149,448 1150,448 1150,449 1151,449 1152,449 1152,450 1153,450 1153,450 1154,453 1155,453 1155,453 1156,454 1156,454 1157,454 1158,455 1158,455 1159,455 1160,456 1160,456 1161,457 1161,457 1162,458 1163,456 1163,453 1164,453 1164,454 1165,454 1166,454 1166,455 1167,455 1167,456 1168,456 1169,456 1169,456 1170,457 1170,457 1171,457 1171,457 1171,457 1171,457 1172,457 1172,458 1172,459 1173,459 1174,459 1174,461 1174,461 1174,462 1175,462 1175,462 1175,462 1176,462 1176,463 1177,463 1177,463 1177,463 1177,463 1178,463 1178,464 1178,464 1178,464 1179,464 1179,464 1180,464 1180,464 1180,465 1181,465 1182,465 1182,465 1182,466 1183,466 1183,466 1183,465 1184,465 1184,466 1185,466 1185,466 1185,466 1185,465 1186,465 1186,465 1186,465 1186,465 1187,466 1188,466 1188,466 1188,466 1188,466 1189,466 1189,467 1190,467 "/>
<polyline fill="none" opacity="1" stroke="#1919E6" stroke-width="2" points="466,735 530,729 583,724 607,719 614,713 629,708 631,701 632,695 636,690 639,684 653,686 661,681 670,682 686,674 689,674 699,670 700,671 700,671 701,671 702,671 702,671 703,671 703,671 704,671 705,671 705,671 706,672 707,672 707,666 708,666 708,667 709,667 710,667 710,667 711,667 711,667 712,667 713,667 713,667 714,667 714,668 715,668 716,668 716,668 717,668 718,668 718,668 719,668 719,668 720,668 721,669 721,669 722,669 722,669 723,669 724,669 724,669 725,669 726,669 726,670 727,670 727,670 728,670 729,670 729,670 730,670 730,670 731,670 732,670 732,671 733,671 733,671 734,671 735,671 735,671 736,671 737,671 737,672 738,672 738,672 739,672 740,672 740,672 741,667 741,668 742,668 743,668 743,663 744,663 744,663 745,663 746,664 746,664 747,664 748,664 748,664 749,664 749,664 750,664 751,665 751,665 752,665 752,665 753,665 754,665 754,665 755,665 755,665 756,665 757,666 757,666 758,666 759,666 759,662 760,662 760,662 761,662 762,658 762,658 763,658 763,658 764,658 765,658 765,658 766,658 767,659 767,659 768,659 768,659 769,659 770,659 770,659 771,660 771,660 772,660 773,660 773,660 774,660 774,660 775,660 776,660 776,660 777,661 778,656 778,652 779,648 779,643 780,643 781,644 781,644 782,644 782,644 783,644 784,644 784,644 785,645 785,645 786,645 787,645 787,645 788,645 789,645 789,645 790,646 790,646 791,646 792,646 792,646 793,646 793,646 794,646 795,647 795,647 796,647 797,647 797,643 798,643 798,643 799,643 800,643 800,643 801,643 801,639 802,639 803,639 803,640 804,640 804,640 805,636 806,636 806,636 807,636 808,636 808,636 809,636 809,637 810,637 811,637 811,637 812,637 812,637 813,637 814,637 814,637 815,638 815,634 816,634 817,634 817,634 818,634 819,634 819,634 820,634 820,634 821,635 822,635 822,635 823,635 823,635 824,635 825,635 825,631 826,631 827,632 827,632 828,628 828,628 829,628 830,628 830,628 831,628 831,628 832,629 833,629 833,629 834,629 834,629 835,629 836,629 836,630 837,630 838,630 838,630 839,626 839,626 840,626 841,626 841,626 842,627 842,627 843,627 844,623 844,623 845,624 845,624 846,624 847,624 847,624 848,625 849,621 849,621 850,621 850,622 851,622 852,622 852,622 853,622 853,622 854,619 855,619 855,619 856,612 856,612 857,612 858,612 858,612 859,613 860,613 860,614 861,614 861,614 862,615 863,615 863,615 864,615 864,615 865,616 866,612 866,612 867,612 868,612 868,613 869,613 869,613 870,613 871,613 871,613 872,614 872,614 873,614 874,614 874,614 875,614 875,614 876,615 877,611 877,611 878,612 879,612 879,612 879,612 880,612 880,612 881,612 882,613 882,613 883,613 883,614 884,614 885,614 885,614 886,614 886,614 887,614 888,615 888,611 889,612 890,612 890,613 891,612 891,613 892,613 893,613 893,613 894,610 894,610 895,610 896,611 896,611 897,611 898,611 898,611 899,611 899,612 900,612 901,612 901,609 902,609 902,613 903,613 904,613 904,613 905,614 905,614 906,614 907,611 907,611 908,608 909,608 909,608 910,608 910,608 911,609 912,609 912,609 913,609 913,609 914,609 915,610 915,610 916,610 916,610 917,610 918,610 918,610 919,611 920,611 920,611 921,611 921,611 922,611 923,612 923,612 924,612 924,612 925,612 926,612 926,613 927,613 928,613 928,613 929,613 929,613 930,614 931,614 931,614 932,614 932,614 933,614 934,615 934,615 935,615 935,615 936,615 937,615 937,616 938,616 939,616 939,613 940,613 940,613 941,610 942,611 942,616 943,613 943,613 944,608 945,605 945,606 946,606 946,600 947,597 948,594 948,594 949,594 950,594 950,595 951,595 951,595 952,595 953,592 953,593 954,590 954,590 955,590 956,591 956,588 957,588 958,588 958,588 959,589 959,589 960,589 961,586 961,586 962,587 962,587 963,587 964,587 964,588 965,585 965,585 966,585 967,585 967,586 968,589 969,589 969,590 970,590 970,590 971,590 972,590 972,591 973,591 973,591 974,591 975,591 975,592 976,592 976,592 977,592 978,592 978,593 979,590 980,590 980,590 981,588 981,588 982,588 983,588 983,589 984,583 984,583 985,583 986,584 986,584 987,584 987,584 988,585 989,585 989,585 990,585 991,586 991,586 992,586 992,586 993,586 994,586 994,587 995,587 995,587 996,587 997,587 997,588 998,588 999,588 999,588 1000,589 1000,589 1001,589 1002,589 1002,589 1003,590 1003,590 1004,590 1005,590 1005,590 1006,588 1006,588 1007,588 1008,588 1008,588 1009,586 1010,586 1010,586 1011,584 1011,581 1012,579 1013,576 1013,577 1014,577 1014,575 1015,575 1016,575 1016,576 1017,573 1017,571 1018,571 1019,571 1019,572 1020,572 1021,569 1021,569 1022,570 1022,570 1023,570 1024,570 1024,571 1025,571 1025,571 1026,571 1027,571 1027,572 1028,572 1029,569 1029,570 1030,570 1030,570 1031,570 1032,571 1032,571 1033,571 1033,571 1034,571 1035,569 1035,569 1036,569 1036,570 1037,570 1038,568 1038,568 1039,568 1040,568 1040,568 1041,564 1041,564 1042,564 1043,564 1043,564 1044,565 1044,564 1045,565 1046,565 1046,565 1047,566 1047,566 1048,566 1049,566 1049,566 1050,567 1051,567 1051,567 1052,567 1052,568 1053,568 1054,566 1054,563 1055,559 1055,559 1056,559 1057,559 1057,557 1058,557 1059,557 1059,558 1060,558 1060,558 1061,558 1062,559 1062,559 1063,559 1063,559 1064,560 1065,558 1065,558 1066,555 1066,556 1067,556 1068,556 1068,557 1069,557 1070,557 1070,557 1071,557 1071,558 1072,558 1073,558 1073,558 1074,558 1074,556 1075,557 1076,557 1076,557 1077,560 1077,560 1078,560 1079,560 1079,560 1080,561 1081,561 1081,561 1082,561 1082,561 1083,562 1084,562 1084,562 1085,562 1085,562 1086,563 1087,563 1087,563 1088,561 1088,561 1089,562 1090,562 1090,562 1091,562 1092,562 1092,558 1093,558 1093,559 1094,559 1095,557 1095,557 1096,557 1096,557 1097,555 1098,555 1098,556 1099,556 1100,557 1100,557 1101,555 1101,553 1102,553 1103,553 1103,553 1104,554 1104,554 1105,554 1106,554 1106,554 1107,554 1107,555 1108,555 1109,555 1109,555 1110,556 1111,556 1111,556 1112,556 1112,556 1113,555 1114,555 1114,553 1115,553 1115,553 1115,551 1116,549 1117,549 1117,550 1118,550 1118,550 1119,548 1120,549 1120,549 1121,549 1122,549 1122,549 1123,547 1123,548 1124,548 1125,548 1125,548 1126,548 1126,548 1127,549 1128,545 1128,545 1129,545 1130,545 1130,546 1131,544 1131,544 1132,544 1133,545 1133,545 1134,545 1134,545 1135,545 1136,546 1136,546 1137,546 1137,546 1138,544 1139,545 1139,545 1140,541 1141,541 1141,542 1142,542 1142,542 1143,540 1144,540 1144,540 1145,541 1145,541 1146,541 1147,541 1147,542 1148,542 1148,542 1149,542 1150,542 1150,543 1151,543 1152,543 1152,541 1153,542 1153,542 1154,542 1155,542 1155,543 1156,543 1156,543 1157,543 1158,543 1158,544 1159,544 1160,544 1160,544 1161,545 1161,545 1162,545 1163,546 1163,546 1164,546 1164,547 1165,547 1166,547 1166,546 1167,546 1167,546 1168,546 1169,547 1169,547 1170,547 1170,547 1171,547 1171,545 1171,545 1171,547 1172,547 1172,548 1172,548 1173,549 1174,549 1174,549 1174,549 1174,547 1175,547 1175,547 1175,548 1176,548 1176,548 1177,548 1177,548 1177,548 1177,546 1178,546 1178,546 1178,546 1178,545 1179,545 1179,545 1180,545 1180,545 1180,545 1181,546 1182,546 1182,546 1182,546 1183,545 1183,545 1183,545 1184,545 1184,546 1185,546 1185,546 1185,546 1185,544 1186,544 1186,545 1186,545 1186,545 1187,545 1188,545 1188,545 1188,545 1188,545 1189,545 1189,546 1190,546 "/>
<polyline fill="none" opacity="1" stroke="#E519E6" stroke-width="2" points="393,733 422,723 440,714 441,703 443,704 447,694 457,685 457,675 458,665 465,657 466,647 468,648 482,651 484,643 490,635 494,627 497,628 505,622 509,633 511,633 516,626 528,622 531,615 538,610 549,614 552,607 555,608 555,608 558,601 564,596 571,592 571,592 572,585 581,582 584,576 606,586 610,581 614,583 623,580 634,584 634,578 643,575 648,571 652,566 653,561 658,558 658,552 659,552 659,553 660,553 661,553 661,553 662,553 662,554 663,554 664,554 664,555 665,555 666,555 666,556 667,556 667,556 668,556 669,557 669,557 670,557 670,557 671,558 672,558 672,558 673,558 673,559 674,559 675,559 675,559 676,560 677,560 677,560 678,561 678,561 679,561 680,562 680,556 681,557 681,557 682,557 683,558 683,558 684,558 684,558 685,559 686,559 686,559 687,559 688,559 688,560 689,554 689,555 690,555 691,555 691,555 692,550 692,550 693,551 694,551 694,551 695,551 696,551 696,552 697,552 697,552 698,553 699,548 699,548 700,548 700,548 701,548 702,549 702,549 703,549 703,550 704,550 705,550 705,550 706,551 707,551 707,551 708,551 708,551 709,541 710,542 710,542 711,542 711,537 712,527 713,527 713,528 714,528 714,528 715,523 716,523 716,524 717,524 718,524 718,524 719,525 719,525 720,525 721,526 721,526 722,526 722,522 723,517 724,517 724,518 725,518 726,508 726,509 727,509 727,509 728,509 729,510 729,510 730,505 730,505 731,506 732,506 732,506 733,507 733,503 734,508 735,508 735,509 736,509 737,509 737,510 738,510 738,511 739,511 740,516 740,517 741,517 741,517 742,518 743,518 743,518 744,518 744,519 745,519 746,520 746,520 747,520 748,521 748,521 749,522 749,512 750,513 751,513 751,513 752,513 752,514 753,514 754,514 754,515 755,515 755,515 756,516 757,516 757,516 758,512 759,513 759,513 760,514 760,514 761,514 762,515 762,515 763,515 763,516 764,516 765,512 765,512 766,512 767,513 767,513 768,514 768,510 769,510 770,510 770,511 771,511 771,511 772,511 773,512 773,512 774,512 774,513 775,518 776,518 776,518 777,518 778,518 778,519 779,519 779,519 780,520 781,520 781,525 782,525 782,525 783,526 784,526 784,526 785,526 785,527 786,527 787,527 787,527 788,528 789,528 789,529 790,529 790,525 791,525 792,525 792,526 793,522 793,522 794,522 795,522 795,522 796,523 797,523 797,523 798,524 798,524 799,520 800,520 800,520 801,521 801,521 802,521 803,517 803,513 804,513 804,514 805,514 806,514 806,514 807,515 808,515 808,511 809,511 809,507 810,507 811,512 811,512 812,512 812,512 813,513 814,513 814,509 815,509 815,510 816,510 817,510 817,510 818,511 819,511 819,511 820,511 820,512 821,512 822,512 822,512 823,513 823,513 824,513 825,513 825,513 826,514 827,514 827,514 828,518 828,519 829,519 830,519 830,519 831,520 831,520 832,520 833,521 833,521 834,521 834,521 835,521 836,522 836,522 837,522 838,522 838,523 839,523 839,523 840,523 841,523 841,520 842,520 842,520 843,521 844,521 844,521 845,522 845,522 846,518 847,519 847,519 848,520 849,520 849,521 850,521 850,521 851,522 852,522 852,522 853,522 853,523 854,523 855,523 855,524 856,524 856,524 857,521 858,521 858,521 859,523 860,523 860,523 861,524 861,524 862,525 863,526 863,526 864,526 864,526 865,523 866,523 866,523 867,524 868,524 868,524 869,524 869,525 870,525 871,525 871,526 872,526 872,526 873,523 874,523 874,520 875,520 875,520 876,517 877,513 877,514 878,514 879,514 879,514 879,515 880,515 880,515 881,512 882,512 882,513 883,513 883,514 884,514 885,514 885,515 886,515 886,515 887,516 888,516 888,516 889,517 890,517 890,516 891,515 891,515 892,515 893,515 893,516 894,516 894,517 895,517 896,514 896,514 897,515 898,515 898,515 899,519 899,519 900,520 901,520 901,521 902,521 902,521 903,522 904,522 904,522 905,522 905,523 906,523 907,523 907,524 908,524 909,524 909,524 910,525 910,525 911,525 912,526 912,526 913,526 913,526 914,527 915,527 915,527 916,527 916,528 917,528 918,528 918,528 919,528 920,529 920,529 921,529 921,526 922,526 923,524 923,524 924,524 924,521 925,522 926,522 926,522 927,522 928,523 928,520 929,520 929,520 930,517 931,518 931,518 932,518 932,519 933,519 934,519 934,519 935,520 935,520 936,520 937,517 937,521 938,518 939,518 939,519 940,519 940,516 941,517 942,511 942,520 943,521 943,521 944,512 945,512 945,513 946,513 946,513 947,514 948,514 948,514 949,514 950,515 950,515 951,512 951,512 952,513 953,513 953,513 954,514 954,514 955,511 956,512 956,512 957,509 958,510 958,507 959,507 959,508 960,508 961,508 961,506 962,506 962,506 963,507 964,507 964,507 965,508 965,508 966,508 967,509 967,509 968,509 969,507 969,502 970,502 970,502 971,497 972,497 972,497 973,498 973,498 974,498 975,496 975,493 976,491 976,491 977,491 978,486 978,489 979,489 980,489 980,487 981,488 981,485 982,485 983,486 983,486 984,486 984,487 985,487 986,487 986,488 987,488 987,489 988,486 989,487 989,484 990,482 991,479 991,480 992,480 992,475 993,475 994,475 994,476 995,476 995,476 996,479 997,477 997,477 998,477 999,478 999,478 1000,479 1000,479 1001,479 1002,480 1002,480 1003,478 1003,478 1004,478 1005,478 1005,479 1006,479 1006,479 1007,480 1008,480 1008,480 1009,480 1010,481 1010,481 1011,481 1011,482 1012,482 1013,482 1013,483 1014,484 1014,484 1015,485 1016,485 1016,486 1017,486 1017,486 1018,484 1019,482 1019,482 1020,480 1021,480 1021,480 1022,481 1022,479 1023,479 1024,479 1024,479 1025,480 1025,480 1026,480 1027,481 1027,481 1028,479 1029,479 1029,479 1030,480 1030,477 1031,478 1032,476 1032,476 1033,476 1033,477 1034,477 1035,477 1035,475 1036,475 1036,473 1037,473 1038,474 1038,474 1039,474 1040,472 1040,472 1041,473 1041,473 1042,476 1043,476 1043,476 1044,477 1044,477 1045,477 1046,477 1046,478 1047,478 1047,479 1048,479 1049,474 1049,475 1050,472 1051,473 1051,474 1052,474 1052,474 1053,474 1054,475 1054,475 1055,478 1055,475 1056,476 1058,474 1059,475 1060,475 1060,475 1061,476 1062,474 1062,474 1063,474 1063,470 1065,471 1065,471 1066,471 1066,472 1067,472 1068,473 1069,473 1070,473 1070,474 1071,474 1071,475 1072,473 1073,473 1073,473 1074,473 1074,474 1075,474 1076,475 1076,472 1077,473 1077,473 1078,473 1079,473 1079,474 1080,474 1081,475 1081,475 1082,473 1083,473 1084,474 1084,472 1085,472 1085,472 1086,472 1087,471 1087,471 1088,469 1088,467 1089,467 1090,468 1090,468 1091,466 1092,466 1092,467 1093,467 1093,468 1094,468 1095,468 1096,467 1097,467 1098,467 1098,468 1100,469 1100,469 1101,467 1101,468 1103,469 1104,465 1104,465 1105,465 1106,465 1106,465 1107,464 1108,462 1109,462 1109,463 1110,461 1111,459 1111,459 1112,460 1112,458 1113,454 1114,454 1115,455 1115,453 1115,451 1116,451 1117,452 1118,450 1119,451 1120,445 1120,445 1121,443 1122,444 1123,444 1124,445 1125,445 1126,443 1126,444 1127,442 1128,442 1128,443 1129,441 1131,442 1131,438 1132,439 1133,435 1133,435 1134,433 1134,431 1135,430 1136,431 1137,431 1137,427 1138,427 1139,428 1139,428 1140,427 1141,427 1141,425 1142,425 1142,426 1143,426 1144,426 1144,427 1145,427 1146,427 1147,428 1147,428 1148,429 1148,429 1149,425 1150,424 1150,424 1152,421 1152,419 1153,416 1153,414 1154,412 1155,413 1155,411 1156,411 1156,406 1157,406 1158,406 1158,407 1160,408 1160,404 1161,402 1161,403 1162,404 1163,404 1163,405 1164,403 1164,404 1165,404 1166,403 1166,403 1167,404 1167,404 1169,405 1169,401 1170,402 1171,402 1171,398 1171,397 1172,397 1172,397 1172,396 1173,397 1174,397 1174,397 1174,400 1175,400 1175,402 1175,400 1176,397 1177,397 1177,397 1177,397 1177,398 1178,398 1178,398 1178,398 1178,398 1179,398 1179,399 1180,397 1180,397 1180,397 1181,398 1182,398 1182,398 1182,395 1183,396 1183,396 1183,391 1184,391 1184,392 1185,392 1185,392 1185,392 1185,395 1186,395 1186,395 1186,395 1186,395 1187,394 1188,394 1188,394 1188,394 1188,395 1189,395 1189,395 1190,395 "/>
<rect x="1085" y="323" width="100" height="104" opacity="1" fill="#FFFFFF" stroke="none"/>
<rect x="1085" y="323" width="100" height="104" opacity="1" fill="none" stroke="#000000"/>
<text x="1125" y="333" dy="0.76em" text-anchor="start" font-family="sans-serif" font-size="9.67741935483871" opacity="1" fill="#000000">
ansi_term
</text>
<text x="1125" y="348" dy="0.76em" text-anchor="start" font-family="sans-serif" font-size="9.67741935483871" opacity="1" fill="#000000">
colored
</text>
<text x="1125" y="363" dy="0.76em" text-anchor="start" font-family="sans-serif" font-size="9.67741935483871" opacity="1" fill="#000000">
console
</text>
<text x="1125" y="378" dy="0.76em" text-anchor="start" font-family="sans-serif" font-size="9.67741935483871" opacity="1" fill="#000000">
term
</text>
<text x="1125" y="393" dy="0.76em" text-anchor="start" font-family="sans-serif" font-size="9.67741935483871" opacity="1" fill="#000000">
termcolor
</text>
<text x="1125" y="408" dy="0.76em" text-anchor="start" font-family="sans-serif" font-size="9.67741935483871" opacity="1" fill="#000000">
termion
</text>
<polyline fill="none" opacity="1" stroke="#E61919" stroke-width="2" points="1095,338 1115,338 "/>
<polyline fill="none" opacity="1" stroke="#E5E619" stroke-width="2" points="1095,352 1115,352 "/>
<polyline fill="none" opacity="1" stroke="#19E619" stroke-width="2" points="1095,367 1115,367 "/>
<polyline fill="none" opacity="1" stroke="#19E5E6" stroke-width="2" points="1095,382 1115,382 "/>
<polyline fill="none" opacity="1" stroke="#1919E6" stroke-width="2" points="1095,397 1115,397 "/>
<polyline fill="none" opacity="1" stroke="#E519E6" stroke-width="2" points="1095,412 1115,412 "/>
</svg>
