<svg width="1200" height="800" xmlns="http://www.w3.org/2000/svg">
<rect x="0" y="0" width="1199" height="799" opacity="1" fill="#FFFFFF" stroke="none"/>
<line opacity="0.1" stroke="#000000" stroke-width="1" x1="60" y1="732" x2="1190" y2="732"/>
<line opacity="0.1" stroke="#000000" stroke-width="1" x1="60" y1="718" x2="1190" y2="718"/>
<line opacity="0.1" stroke="#000000" stroke-width="1" x1="60" y1="705" x2="1190" y2="705"/>
<line opacity="0.1" stroke="#000000" stroke-width="1" x1="60" y1="691" x2="1190" y2="691"/>
<line opacity="0.1" stroke="#000000" stroke-width="1" x1="60" y1="677" x2="1190" y2="677"/>
<line opacity="0.1" stroke="#000000" stroke-width="1" x1="60" y1="664" x2="1190" y2="664"/>
<line opacity="0.1" stroke="#000000" stroke-width="1" x1="60" y1="650" x2="1190" y2="650"/>
<line opacity="0.1" stroke="#000000" stroke-width="1" x1="60" y1="637" x2="1190" y2="637"/>
<line opacity="0.1" stroke="#000000" stroke-width="1" x1="60" y1="623" x2="1190" y2="623"/>
<line opacity="0.1" stroke="#000000" stroke-width="1" x1="60" y1="610" x2="1190" y2="610"/>
<line opacity="0.1" stroke="#000000" stroke-width="1" x1="60" y1="596" x2="1190" y2="596"/>
<line opacity="0.1" stroke="#000000" stroke-width="1" x1="60" y1="583" x2="1190" y2="583"/>
<line opacity="0.1" stroke="#000000" stroke-width="1" x1="60" y1="569" x2="1190" y2="569"/>
<line opacity="0.1" stroke="#000000" stroke-width="1" x1="60" y1="556" x2="1190" y2="556"/>
<line opacity="0.1" stroke="#000000" stroke-width="1" x1="60" y1="542" x2="1190" y2="542"/>
<line opacity="0.1" stroke="#000000" stroke-width="1" x1="60" y1="529" x2="1190" y2="529"/>
<line opacity="0.1" stroke="#000000" stroke-width="1" x1="60" y1="515" x2="1190" y2="515"/>
<line opacity="0.1" stroke="#000000" stroke-width="1" x1="60" y1="502" x2="1190" y2="502"/>
<line opacity="0.1" stroke="#000000" stroke-width="1" x1="60" y1="488" x2="1190" y2="488"/>
<line opacity="0.1" stroke="#000000" stroke-width="1" x1="60" y1="474" x2="1190" y2="474"/>
<line opacity="0.1" stroke="#000000" stroke-width="1" x1="60" y1="461" x2="1190" y2="461"/>
<line opacity="0.1" stroke="#000000" stroke-width="1" x1="60" y1="447" x2="1190" y2="447"/>
<line opacity="0.1" stroke="#000000" stroke-width="1" x1="60" y1="434" x2="1190" y2="434"/>
<line opacity="0.1" stroke="#000000" stroke-width="1" x1="60" y1="420" x2="1190" y2="420"/>
<line opacity="0.1" stroke="#000000" stroke-width="1" x1="60" y1="407" x2="1190" y2="407"/>
<line opacity="0.1" stroke="#000000" stroke-width="1" x1="60" y1="393" x2="1190" y2="393"/>
<line opacity="0.1" stroke="#000000" stroke-width="1" x1="60" y1="380" x2="1190" y2="380"/>
<line opacity="0.1" stroke="#000000" stroke-width="1" x1="60" y1="366" x2="1190" y2="366"/>
<line opacity="0.1" stroke="#000000" stroke-width="1" x1="60" y1="353" x2="1190" y2="353"/>
<line opacity="0.1" stroke="#000000" stroke-width="1" x1="60" y1="339" x2="1190" y2="339"/>
<line opacity="0.1" stroke="#000000" stroke-width="1" x1="60" y1="326" x2="1190" y2="326"/>
<line opacity="0.1" stroke="#000000" stroke-width="1" x1="60" y1="312" x2="1190" y2="312"/>
<line opacity="0.1" stroke="#000000" stroke-width="1" x1="60" y1="299" x2="1190" y2="299"/>
<line opacity="0.1" stroke="#000000" stroke-width="1" x1="60" y1="285" x2="1190" y2="285"/>
<line opacity="0.1" stroke="#000000" stroke-width="1" x1="60" y1="271" x2="1190" y2="271"/>
<line opacity="0.1" stroke="#000000" stroke-width="1" x1="60" y1="258" x2="1190" y2="258"/>
<line opacity="0.1" stroke="#000000" stroke-width="1" x1="60" y1="244" x2="1190" y2="244"/>
<line opacity="0.1" stroke="#000000" stroke-width="1" x1="60" y1="231" x2="1190" y2="231"/>
<line opacity="0.1" stroke="#000000" stroke-width="1" x1="60" y1="217" x2="1190" y2="217"/>
<line opacity="0.1" stroke="#000000" stroke-width="1" x1="60" y1="204" x2="1190" y2="204"/>
<line opacity="0.1" stroke="#000000" stroke-width="1" x1="60" y1="190" x2="1190" y2="190"/>
<line opacity="0.1" stroke="#000000" stroke-width="1" x1="60" y1="177" x2="1190" y2="177"/>
<line opacity="0.1" stroke="#000000" stroke-width="1" x1="60" y1="163" x2="1190" y2="163"/>
<line opacity="0.1" stroke="#000000" stroke-width="1" x1="60" y1="150" x2="1190" y2="150"/>
<line opacity="0.1" stroke="#000000" stroke-width="1" x1="60" y1="136" x2="1190" y2="136"/>
<line opacity="0.1" stroke="#000000" stroke-width="1" x1="60" y1="123" x2="1190" y2="123"/>
<line opacity="0.1" stroke="#000000" stroke-width="1" x1="60" y1="109" x2="1190" y2="109"/>
<line opacity="0.1" stroke="#000000" stroke-width="1" x1="60" y1="96" x2="1190" y2="96"/>
<line opacity="0.1" stroke="#000000" stroke-width="1" x1="60" y1="82" x2="1190" y2="82"/>
<line opacity="0.1" stroke="#000000" stroke-width="1" x1="60" y1="69" x2="1190" y2="69"/>
<line opacity="0.1" stroke="#000000" stroke-width="1" x1="60" y1="55" x2="1190" y2="55"/>
<line opacity="0.1" stroke="#000000" stroke-width="1" x1="60" y1="41" x2="1190" y2="41"/>
<line opacity="0.1" stroke="#000000" stroke-width="1" x1="60" y1="28" x2="1190" y2="28"/>
<line opacity="0.1" stroke="#000000" stroke-width="1" x1="60" y1="14" x2="1190" y2="14"/>
<text x="10" y="375" dy="0.76em" text-anchor="middle" font-family="sans-serif" font-size="9.67741935483871" opacity="1" fill="#000000" transform="rotate(270, 10, 375)">
Fraction of dependent crates
</text>
<line opacity="0.2" stroke="#000000" stroke-width="1" x1="60" y1="610" x2="1190" y2="610"/>
<line opacity="0.2" stroke="#000000" stroke-width="1" x1="60" y1="474" x2="1190" y2="474"/>
<line opacity="0.2" stroke="#000000" stroke-width="1" x1="60" y1="339" x2="1190" y2="339"/>
<line opacity="0.2" stroke="#000000" stroke-width="1" x1="60" y1="204" x2="1190" y2="204"/>
<line opacity="0.2" stroke="#000000" stroke-width="1" x1="60" y1="69" x2="1190" y2="69"/>
<polyline fill="none" opacity="1" stroke="#000000" stroke-width="1" points="59,10 59,740 "/>
<text x="50" y="610" dy="0.5ex" text-anchor="end" font-family="sans-serif" font-size="9.67741935483871" opacity="1" fill="#000000">
0.002
</text>
<polyline fill="none" opacity="1" stroke="#000000" stroke-width="1" points="54,610 59,610 "/>
<text x="50" y="474" dy="0.5ex" text-anchor="end" font-family="sans-serif" font-size="9.67741935483871" opacity="1" fill="#000000">
0.004
</text>
<polyline fill="none" opacity="1" stroke="#000000" stroke-width="1" points="54,474 59,474 "/>
<text x="50" y="339" dy="0.5ex" text-anchor="end" font-family="sans-serif" font-size="9.67741935483871" opacity="1" fill="#000000">
0.006
</text>
<polyline fill="none" opacity="1" stroke="#000000" stroke-width="1" points="54,339 59,339 "/>
<text x="50" y="204" dy="0.5ex" text-anchor="end" font-family="sans-serif" font-size="9.67741935483871" opacity="1" fill="#000000">
0.008
</text>
<polyline fill="none" opacity="1" stroke="#000000" stroke-width="1" points="54,204 59,204 "/>
<text x="50" y="69" dy="0.5ex" text-anchor="end" font-family="sans-serif" font-size="9.67741935483871" opacity="1" fill="#000000">
0.01
</text>
<polyline fill="none" opacity="1" stroke="#000000" stroke-width="1" points="54,69 59,69 "/>
<polyline fill="none" opacity="1" stroke="#000000" stroke-width="1" points="60,740 1190,740 "/>
<text x="60" y="750" dy="0.76em" text-anchor="middle" font-family="sans-serif" font-size="9.67741935483871" opacity="1" fill="#000000">
2015-01-27Z
</text>
<polyline fill="none" opacity="1" stroke="#000000" stroke-width="1" points="60,740 60,745 "/>
<text x="173" y="750" dy="0.76em" text-anchor="middle" font-family="sans-serif" font-size="9.67741935483871" opacity="1" fill="#000000">
2015-07-28Z
</text>
<polyline fill="none" opacity="1" stroke="#000000" stroke-width="1" points="173,740 173,745 "/>
<text x="286" y="750" dy="0.76em" text-anchor="middle" font-family="sans-serif" font-size="9.67741935483871" opacity="1" fill="#000000">
2016-01-26Z
</text>
<polyline fill="none" opacity="1" stroke="#000000" stroke-width="1" points="286,740 286,745 "/>
<text x="399" y="750" dy="0.76em" text-anchor="middle" font-family="sans-serif" font-size="9.67741935483871" opacity="1" fill="#000000">
2016-07-26Z
</text>
<polyline fill="none" opacity="1" stroke="#000000" stroke-width="1" points="399,740 399,745 "/>
<text x="512" y="750" dy="0.76em" text-anchor="middle" font-family="sans-serif" font-size="9.67741935483871" opacity="1" fill="#000000">
2017-01-24Z
</text>
<polyline fill="none" opacity="1" stroke="#000000" stroke-width="1" points="512,740 512,745 "/>
<text x="625" y="750" dy="0.76em" text-anchor="middle" font-family="sans-serif" font-size="9.67741935483871" opacity="1" fill="#000000">
2017-07-25Z
</text>
<polyline fill="none" opacity="1" stroke="#000000" stroke-width="1" points="625,740 625,745 "/>
<text x="739" y="750" dy="0.76em" text-anchor="middle" font-family="sans-serif" font-size="9.67741935483871" opacity="1" fill="#000000">
2018-01-23Z
</text>
<polyline fill="none" opacity="1" stroke="#000000" stroke-width="1" points="739,740 739,745 "/>
<text x="852" y="750" dy="0.76em" text-anchor="middle" font-family="sans-serif" font-size="9.67741935483871" opacity="1" fill="#000000">
2018-07-24Z
</text>
<polyline fill="none" opacity="1" stroke="#000000" stroke-width="1" points="852,740 852,745 "/>
<text x="965" y="750" dy="0.76em" text-anchor="middle" font-family="sans-serif" font-size="9.67741935483871" opacity="1" fill="#000000">
2019-01-22Z
</text>
<polyline fill="none" opacity="1" stroke="#000000" stroke-width="1" points="965,740 965,745 "/>
<text x="1078" y="750" dy="0.76em" text-anchor="middle" font-family="sans-serif" font-size="9.67741935483871" opacity="1" fill="#000000">
2019-07-23Z
</text>
<polyline fill="none" opacity="1" stroke="#000000" stroke-width="1" points="1078,740 1078,745 "/>
<polyline fill="none" opacity="1" stroke="#E61919" stroke-width="2" points="121,711 129,681 134,683 139,685 140,656 142,657 142,628 150,633 152,605 153,606 156,608 159,610 170,616 178,621 180,622 183,624 185,649 189,651 191,651 191,651 192,652 194,653 202,655 207,656 212,657 217,658 218,637 221,638 222,639 226,640 226,620 227,620 228,600 229,600 230,601 233,602 234,602 234,562 237,563 240,544 240,524 242,525 244,527 245,528 252,533 255,535 257,536 257,536 258,536 259,518 260,519 262,521 268,526 268,526 270,527 270,509 271,509 272,491 274,493 275,493 275,476 276,477 277,460 277,460 280,444 282,446 284,449 285,450 286,451 286,451 288,436 290,439 291,439 295,444 298,446 301,433 302,434 303,435 304,436 305,437 306,439 306,440 308,441 309,442 310,443 311,444 313,446 314,447 315,432 316,433 316,433 318,435 319,435 319,436 321,438 323,440 324,442 328,446 330,448 331,448 333,435 335,437 336,423 337,424 337,424 338,410 339,411 339,412 341,413 342,415 343,416 347,421 349,423 351,424 352,425 354,427 357,430 359,432 361,433 365,437 367,438 367,439 369,440 370,441 371,442 372,443 374,444 377,434 377,421 378,409 379,397 380,398 380,399 382,400 382,401 384,402 384,403 386,404 387,405 388,393 388,393 389,381 390,381 390,382 391,383 392,383 392,384 393,384 393,373 394,373 395,374 395,375 396,375 397,376 397,377 398,377 398,378 399,378 400,379 400,379 401,380 402,381 402,382 403,371 403,371 404,372 405,373 406,374 407,362 408,351 408,340 409,329 410,329 410,329 411,330 411,330 412,331 413,332 413,333 414,322 415,324 416,325 416,326 417,326 418,327 418,317 420,320 421,321 422,310 423,311 424,324 425,325 425,325 426,326 426,327 427,316 428,318 428,326 429,326 430,328 430,329 431,329 431,330 433,331 433,332 434,333 435,334 435,335 436,335 436,325 437,326 438,316 438,306 439,296 439,307 440,307 441,308 442,309 443,310 443,311 444,314 446,316 446,316 447,316 448,307 448,308 449,308 449,309 450,310 451,311 451,311 453,312 453,313 454,286 456,277 458,269 459,260 462,263 463,264 464,265 464,266 466,267 466,268 467,259 467,260 468,260 469,261 469,271 471,273 471,274 472,274 472,275 473,275 474,276 474,277 476,278 477,279 479,282 479,272 481,274 481,265 482,266 484,268 485,269 487,271 488,266 490,268 490,269 491,260 492,263 493,263 494,264 494,265 495,268 496,259 497,252 498,252 499,253 499,245 500,237 500,247 501,248 502,249 503,251 504,252 505,252 505,253 506,254 507,247 507,248 509,249 510,250 511,253 512,253 512,245 513,247 514,248 515,249 515,251 516,252 517,244 517,245 518,247 519,248 520,248 520,240 521,241 522,242 522,234 523,234 523,227 524,228 525,229 525,221 526,222 527,223 527,224 528,216 528,209 530,211 530,212 531,213 532,215 533,216 533,209 534,202 535,203 535,204 536,205 537,206 537,208 538,201 538,202 539,203 540,203 540,205 541,197 542,199 543,200 544,201 545,203 546,204 546,213 547,206 548,207 548,208 549,209 550,202 550,203 551,203 551,204 552,205 553,205 553,206 554,207 555,200 555,201 556,202 556,195 557,180 558,181 558,182 559,183 560,184 560,192 561,193 561,194 562,195 563,196 563,196 564,197 564,198 565,199 566,200 566,201 567,202 568,195 569,197 569,198 570,199 571,199 572,193 573,187 573,180 574,181 574,175 575,176 576,178 577,179 578,180 578,174 579,175 579,175 580,176 581,177 581,177 582,178 583,172 583,173 584,173 584,178 585,186 586,179 586,180 587,174 587,175 588,176 589,177 589,178 590,172 591,173 591,181 592,175 592,176 593,177 594,178 594,179 595,174 596,175 596,176 597,177 597,178 598,178 599,180 599,180 600,182 601,183 601,183 602,184 602,185 603,186 604,187 604,189 605,190 606,191 606,192 607,193 607,194 608,194 609,195 609,196 610,197 611,198 611,198 612,199 612,199 613,200 614,201 614,189 615,189 615,190 616,204 617,204 617,205 618,206 619,207 619,207 620,202 620,197 621,198 622,199 622,199 623,200 624,201 624,202 625,203 625,204 626,205 627,205 627,206 628,207 629,207 629,208 630,209 630,209 631,210 632,212 632,212 633,213 634,214 634,214 635,208 635,203 636,203 637,204 637,198 638,199 638,194 639,195 640,196 640,197 641,198 642,198 642,199 643,200 643,200 644,201 645,202 645,202 646,203 647,198 647,192 648,193 648,194 649,195 650,196 650,191 651,192 652,192 652,193 653,193 653,194 654,189 655,190 655,190 656,179 657,174 657,181 658,176 658,164 659,164 660,166 660,167 661,167 662,168 662,169 663,175 663,176 664,177 665,178 665,180 666,181 666,182 667,177 668,177 668,178 669,179 670,179 670,180 671,181 671,182 672,183 673,183 673,184 674,185 675,186 675,181 676,182 676,183 677,184 678,184 678,185 679,186 680,181 680,182 681,171 681,172 682,172 683,168 683,168 684,169 685,170 685,171 686,161 686,162 687,162 688,158 688,159 689,160 689,161 690,162 691,157 691,153 692,153 693,149 693,150 694,151 694,152 695,153 696,153 696,154 697,149 698,144 698,145 699,146 699,146 700,147 701,147 701,148 702,149 703,150 703,151 704,152 704,152 705,153 706,154 706,150 707,151 708,151 708,152 709,153 709,148 710,149 711,149 711,150 712,150 712,152 713,153 714,153 714,154 715,155 716,145 716,141 717,141 717,141 718,142 719,143 719,144 720,145 721,145 721,146 722,147 722,148 723,148 724,144 724,145 725,145 726,146 726,147 727,148 727,143 728,143 729,144 729,145 730,146 731,142 731,143 732,144 732,140 733,141 734,137 734,138 735,134 736,139 736,140 737,141 737,142 738,143 739,143 739,144 740,144 740,145 741,146 742,152 742,153 743,153 744,154 744,157 745,158 745,153 746,154 747,145 747,146 748,147 749,143 749,144 750,140 750,141 751,143 752,144 752,149 753,150 754,146 754,147 755,147 755,149 756,149 757,150 757,151 758,152 759,153 759,154 760,155 760,156 761,152 762,148 762,149 763,149 763,150 764,151 765,147 765,153 766,149 767,149 767,150 768,152 768,153 769,153 770,156 770,157 771,157 772,158 772,155 773,155 773,156 774,152 775,149 775,150 776,150 777,146 777,147 778,144 778,145 779,147 780,143 780,144 781,145 782,145 782,150 783,151 783,152 784,153 785,153 785,154 786,155 787,156 787,157 788,157 788,158 789,158 790,164 790,165 791,166 791,162 792,163 793,164 793,164 794,160 795,161 795,162 796,154 796,155 797,155 798,156 798,156 799,158 800,158 800,155 801,152 801,153 802,153 803,154 803,155 804,155 805,156 805,157 806,157 806,158 807,158 808,160 808,161 809,161 810,162 810,162 811,163 811,164 812,164 813,161 813,161 814,157 814,158 815,159 816,155 816,156 817,161 818,161 818,162 819,154 819,155 820,151 821,152 821,152 822,149 823,149 823,149 824,150 824,151 825,152 826,153 826,149 827,150 828,150 828,151 829,151 829,152 830,153 831,154 831,154 832,155 833,155 833,147 834,148 834,149 835,149 836,150 836,151 837,151 838,152 838,152 839,153 839,153 840,154 841,155 841,155 842,156 842,153 843,153 844,150 844,150 845,152 846,152 846,152 847,153 847,154 848,151 849,143 849,144 850,144 851,145 851,145 852,146 852,147 853,147 854,148 854,148 855,149 856,150 856,151 857,152 857,153 858,154 859,158 859,159 860,156 861,159 861,160 862,161 862,161 863,162 864,163 864,164 865,164 865,165 866,162 867,163 867,164 868,165 869,162 869,159 870,159 870,160 871,161 872,165 872,166 873,166 874,167 874,168 875,171 875,172 876,173 877,174 877,174 878,175 879,176 879,172 880,173 880,174 881,171 882,171 882,172 883,173 884,173 884,175 885,175 885,175 886,176 887,177 887,178 888,178 888,179 889,179 890,180 890,181 891,178 892,179 892,179 892,180 893,181 893,182 894,179 895,179 895,180 896,181 897,180 897,180 898,181 898,178 899,178 900,179 900,177 901,177 902,178 902,180 903,178 903,184 904,179 905,177 905,177 906,178 907,175 907,176 908,174 908,175 909,176 910,177 910,177 911,178 912,175 912,176 913,177 913,178 914,179 915,181 915,182 916,182 916,183 917,180 918,181 918,182 919,182 920,183 920,184 921,185 921,186 922,183 923,183 923,184 924,181 925,182 925,183 926,183 926,181 927,182 928,182 928,180 929,177 930,178 930,178 931,176 931,170 932,170 933,171 933,171 934,172 935,173 935,173 936,174 936,168 937,169 938,167 938,167 939,165 939,163 940,163 941,164 941,164 942,165 943,163 943,160 944,161 944,162 945,163 946,164 946,164 947,165 948,166 948,167 949,168 949,168 950,169 951,169 951,170 952,171 953,166 953,166 954,164 954,162 955,163 956,161 956,185 957,185 958,183 958,161 959,162 959,162 960,160 961,161 961,162 962,159 963,160 963,157 964,158 964,159 965,160 966,160 966,158 967,159 967,160 968,161 969,161 969,159 970,160 971,161 971,162 972,163 972,160 973,161 974,159 974,160 975,161 976,161 976,163 977,163 977,164 978,165 979,165 979,166 980,164 981,165 981,166 982,166 982,167 983,168 984,170 984,171 985,171 986,172 986,173 987,171 987,171 988,172 989,173 989,173 990,175 990,175 991,176 992,174 992,175 993,169 994,170 994,171 995,172 995,173 996,173 997,174 997,175 998,173 999,171 999,169 1000,170 1000,170 1001,171 1002,172 1002,173 1003,171 1004,172 1004,172 1005,173 1005,174 1006,175 1007,176 1007,176 1008,177 1009,177 1009,173 1010,173 1010,174 1011,175 1012,175 1012,173 1013,174 1014,175 1014,176 1015,176 1015,177 1016,178 1017,176 1017,177 1018,177 1018,178 1019,179 1020,179 1020,180 1021,178 1022,178 1022,179 1023,179 1023,177 1024,175 1025,176 1025,177 1026,177 1027,178 1027,176 1028,176 1028,179 1029,180 1030,181 1030,182 1031,183 1032,184 1032,185 1033,185 1033,186 1034,184 1035,185 1035,186 1036,178 1037,179 1037,180 1038,181 1038,179 1039,179 1040,180 1040,178 1041,179 1041,179 1042,180 1043,181 1043,181 1044,182 1045,180 1045,181 1046,182 1046,182 1047,183 1048,184 1048,184 1049,183 1050,178 1050,179 1051,179 1051,180 1052,181 1053,179 1053,180 1054,180 1055,181 1055,182 1056,182 1056,183 1057,183 1058,184 1058,185 1059,185 1060,186 1060,186 1061,186 1061,187 1062,188 1063,182 1063,182 1064,183 1064,184 1065,184 1066,185 1066,185 1067,187 1068,188 1068,183 1069,184 1069,184 1070,185 1071,183 1071,184 1072,184 1073,185 1073,185 1074,186 1074,184 1075,185 1076,183 1076,184 1077,185 1078,185 1078,186 1079,187 1079,188 1080,188 1081,190 1081,188 1082,188 1083,187 1083,188 1084,189 1084,189 1085,189 1086,190 1086,191 1087,192 1088,192 1088,191 1089,191 1089,192 1090,192 1091,193 1091,194 1092,194 1092,195 1093,196 1094,196 1094,194 1095,195 1096,195 1096,196 1097,195 1097,193 1098,194 1099,194 1099,195 1100,195 1101,196 1101,196 1102,197 1102,198 1103,196 1104,197 1104,195 1105,201 1106,201 1106,202 1107,202 1107,201 1108,201 1109,201 1109,199 1110,199 1111,200 1111,198 1112,198 1112,199 1113,197 1114,198 1114,190 1115,190 1115,190 1116,191 1117,191 1117,194 1118,195 1119,196 1119,194 1120,192 1120,193 1121,191 1122,192 1122,192 1123,192 1124,191 1124,189 1125,190 1125,188 1126,189 1127,196 1127,197 1128,195 1129,198 1129,199 1130,200 1130,200 1131,201 1132,202 1132,202 1132,203 1133,203 1134,204 1134,204 1135,205 1135,206 1136,206 1137,207 1137,205 1138,204 1139,200 1139,201 1140,201 1140,202 1141,202 1142,203 1142,203 1143,204 1143,204 1144,205 1145,204 1145,204 1146,205 1147,206 1147,206 1148,207 1148,207 1149,206 1150,207 1150,207 1151,208 1152,208 1152,209 1153,210 1153,210 1154,211 1155,211 1155,212 1156,213 1157,213 1157,214 1158,215 1158,213 1159,212 1160,212 1160,210 1161,209 1162,205 1162,206 1163,206 1163,207 1164,207 1165,208 1165,209 1166,208 1166,208 1167,209 1168,209 1168,208 1169,209 1170,197 1170,198 1171,198 1171,199 1172,200 1173,200 1173,199 1174,200 1175,200 1175,201 1176,201 1176,202 1177,203 1178,201 1178,202 1179,203 1180,202 1180,202 1181,202 1181,201 1182,202 1183,202 1183,203 1184,202 1185,203 1185,203 1186,204 1186,203 1187,203 1188,203 1188,200 1188,200 1188,200 1189,200 1189,203 1190,203 1190,204 "/>
<polyline fill="none" opacity="1" stroke="#E5E619" stroke-width="2" points="371,732 378,719 380,707 386,695 405,685 429,679 451,673 464,665 466,656 467,656 471,657 492,652 500,636 505,629 525,627 534,622 546,610 548,603 551,596 561,592 565,586 568,579 569,573 571,566 576,561 578,555 581,549 589,547 599,545 600,539 602,533 604,527 606,522 612,525 615,520 620,517 628,514 630,515 634,511 640,508 644,504 645,510 649,507 650,507 652,508 653,509 654,503 655,504 655,504 656,504 657,505 657,499 662,495 664,496 665,497 666,493 667,493 668,493 671,495 671,495 672,490 673,490 676,487 676,481 678,488 679,488 680,489 681,484 681,478 683,473 683,468 685,463 685,464 686,464 689,467 690,462 691,457 693,459 694,454 696,460 696,461 697,461 699,462 700,462 701,463 701,463 702,463 703,464 704,454 706,455 706,461 708,462 709,462 710,463 711,463 712,464 712,459 715,455 716,461 719,458 721,458 721,459 724,460 725,456 726,456 727,452 727,452 733,456 734,451 734,452 737,449 742,446 743,447 744,447 744,449 746,450 748,451 749,447 751,444 752,435 753,435 754,431 755,432 756,433 757,429 757,429 758,429 759,431 762,432 764,434 768,437 768,432 769,433 770,435 771,430 772,427 773,427 775,429 777,430 778,432 782,434 782,430 783,430 783,426 785,423 787,419 789,416 790,417 790,413 791,409 791,409 792,410 793,410 795,412 796,412 797,413 800,410 801,412 801,408 803,409 803,405 804,396 806,398 807,398 808,399 809,404 811,401 812,389 813,385 813,390 814,390 814,390 815,386 816,387 816,387 817,388 818,388 819,389 819,389 822,391 823,391 823,387 824,387 826,385 826,385 827,381 828,381 828,382 829,379 830,379 831,375 831,376 832,372 834,373 834,373 835,370 836,371 838,367 838,368 839,368 839,368 840,369 842,362 842,358 843,359 844,359 844,355 845,356 846,356 846,357 847,357 848,358 849,359 850,359 852,361 853,361 854,357 854,358 856,359 856,360 857,360 858,361 859,362 860,363 861,361 861,362 862,362 862,359 863,355 864,352 865,353 866,350 867,351 868,348 869,348 869,349 870,350 870,350 872,350 872,342 873,343 874,344 874,344 875,343 875,339 877,341 877,341 878,338 879,338 879,339 880,340 882,341 883,341 884,343 885,343 885,343 886,344 887,344 887,341 888,342 888,338 890,339 890,337 891,326 892,327 893,328 893,329 894,326 895,326 895,327 896,317 897,315 897,312 898,309 898,309 900,307 900,307 901,308 902,308 903,311 903,315 904,312 905,313 906,314 907,311 907,305 908,305 908,299 909,300 910,301 910,301 912,302 912,303 913,300 913,294 914,295 915,290 915,290 916,291 916,288 917,289 918,289 919,290 920,291 920,288 921,289 921,283 922,283 923,284 924,285 925,283 926,283 926,284 927,284 928,285 928,286 929,286 930,283 930,284 931,284 931,285 933,283 934,284 935,284 935,284 936,285 938,284 938,281 939,282 939,283 940,280 941,280 941,281 942,281 943,282 943,276 944,277 944,274 946,272 947,273 948,274 949,276 950,277 951,274 951,271 952,268 953,267 953,264 954,268 954,268 955,266 956,267 956,284 957,284 958,284 959,268 960,268 961,269 961,264 962,267 963,265 963,262 964,259 964,260 965,258 966,252 966,250 967,251 967,251 968,252 969,250 970,251 971,252 971,252 972,253 974,259 975,260 976,260 976,258 977,256 978,257 979,258 980,259 981,260 981,257 982,255 982,255 983,257 984,246 986,248 986,246 987,241 987,235 988,236 989,231 989,231 991,228 992,229 992,226 993,224 994,228 994,225 995,223 995,221 996,222 997,219 997,220 998,218 999,220 1000,221 1000,221 1001,216 1002,217 1002,215 1003,216 1004,211 1005,207 1005,205 1006,206 1007,203 1007,199 1009,197 1009,195 1010,196 1010,196 1011,197 1012,197 1012,198 1013,199 1014,200 1014,198 1015,198 1015,199 1016,200 1017,201 1017,201 1018,197 1018,197 1019,195 1020,195 1020,196 1021,191 1022,192 1022,192 1023,193 1023,194 1024,194 1025,195 1025,196 1026,196 1027,197 1027,192 1028,193 1028,190 1029,191 1030,191 1030,192 1031,188 1032,189 1032,190 1033,188 1033,188 1034,187 1035,188 1035,188 1036,189 1037,187 1037,182 1038,181 1038,181 1039,179 1040,177 1040,175 1041,168 1041,166 1042,167 1043,165 1043,166 1044,166 1045,165 1045,163 1046,164 1046,162 1047,165 1048,161 1048,161 1049,157 1050,153 1050,156 1051,154 1051,155 1052,153 1053,154 1053,154 1054,155 1055,156 1055,154 1056,152 1056,152 1057,153 1058,154 1058,155 1059,152 1060,151 1060,145 1061,144 1062,146 1063,144 1063,145 1064,140 1064,141 1065,142 1066,143 1066,141 1067,143 1068,143 1068,144 1069,142 1069,145 1070,141 1071,141 1071,142 1072,138 1073,138 1073,136 1074,132 1074,125 1075,124 1076,125 1076,126 1077,122 1078,122 1079,124 1079,125 1080,126 1081,125 1081,125 1082,126 1083,127 1083,121 1084,119 1084,120 1085,120 1086,121 1086,122 1087,120 1088,121 1088,120 1089,118 1089,116 1090,117 1091,118 1091,116 1092,114 1092,117 1094,119 1094,119 1095,120 1096,118 1096,119 1097,123 1097,123 1098,124 1099,124 1099,125 1100,126 1101,126 1101,127 1102,125 1102,126 1103,127 1104,128 1104,129 1105,127 1106,128 1106,128 1107,129 1107,130 1108,131 1109,130 1109,131 1110,129 1111,129 1111,130 1112,130 1112,129 1113,132 1114,128 1114,129 1115,127 1115,129 1116,130 1117,131 1117,125 1118,119 1120,121 1121,122 1122,120 1122,125 1123,126 1124,124 1124,125 1125,124 1126,125 1127,126 1127,127 1128,125 1129,124 1129,124 1130,123 1130,122 1131,120 1132,121 1132,120 1134,121 1134,117 1135,118 1135,114 1136,111 1137,112 1137,113 1138,111 1139,112 1139,111 1140,113 1140,114 1141,114 1142,115 1142,109 1143,110 1143,110 1144,109 1145,110 1145,109 1146,110 1147,110 1147,111 1148,111 1148,112 1149,113 1150,114 1150,114 1151,115 1152,113 1152,114 1153,116 1153,114 1154,114 1155,113 1155,112 1156,112 1157,113 1157,114 1158,115 1158,116 1159,116 1160,117 1160,117 1161,118 1162,118 1162,117 1163,117 1163,114 1164,113 1165,114 1165,115 1166,113 1166,112 1167,110 1168,111 1168,112 1169,111 1170,110 1170,108 1171,109 1171,110 1172,111 1173,109 1173,108 1174,107 1175,107 1175,110 1176,109 1176,107 1177,108 1178,107 1178,108 1179,105 1180,106 1180,107 1181,104 1181,105 1182,104 1183,103 1183,100 1184,101 1185,102 1185,101 1186,102 1186,100 1187,101 1188,101 1188,100 1188,100 1188,100 1189,100 1189,101 1190,101 1190,102 "/>
<polyline fill="none" opacity="1" stroke="#19E619" stroke-width="2" points="578,738 579,730 601,731 616,725 627,726 630,726 647,727 650,727 655,721 656,721 657,721 672,716 686,717 699,718 704,713 713,708 727,709 728,709 732,709 736,705 746,701 751,701 755,702 771,699 772,694 781,695 786,696 788,696 789,696 790,687 791,692 794,688 801,689 805,685 806,681 808,681 810,673 812,673 816,669 844,669 847,665 849,661 854,662 861,660 864,656 865,657 866,657 872,655 873,651 874,651 879,649 879,649 882,649 887,647 887,647 890,644 895,645 897,642 900,643 907,641 908,638 909,638 912,639 915,636 916,637 916,633 920,634 920,634 921,631 925,629 929,626 931,623 932,624 935,621 935,621 936,621 938,622 939,622 940,622 943,623 948,621 949,621 949,621 951,622 954,623 955,620 956,622 959,615 960,615 961,616 963,613 963,613 964,613 966,613 968,611 969,608 970,609 971,609 972,609 978,611 979,611 980,612 981,606 981,606 983,607 984,604 984,604 986,602 991,604 995,605 997,605 998,606 1002,607 1008,609 1009,609 1009,609 1010,609 1010,609 1011,609 1012,610 1012,607 1013,607 1014,607 1014,608 1015,608 1015,605 1016,605 1017,606 1017,606 1018,606 1018,606 1019,606 1020,606 1020,606 1021,607 1022,607 1022,607 1023,607 1023,607 1024,605 1025,605 1025,605 1026,605 1027,605 1027,605 1028,606 1028,606 1029,607 1030,604 1030,604 1031,605 1032,602 1032,602 1033,602 1033,603 1034,603 1035,603 1035,603 1036,603 1037,604 1037,601 1038,601 1038,599 1039,599 1040,599 1040,599 1041,600 1041,600 1042,600 1043,600 1043,600 1044,600 1045,598 1045,598 1046,596 1046,596 1047,596 1048,596 1048,597 1049,597 1050,597 1050,597 1051,597 1051,597 1052,598 1053,598 1053,598 1054,598 1055,598 1055,599 1056,599 1056,599 1057,599 1058,597 1058,597 1059,597 1060,597 1060,597 1061,597 1061,597 1062,598 1063,598 1063,598 1064,598 1064,599 1065,599 1066,599 1066,599 1067,599 1068,600 1068,600 1069,600 1069,600 1070,600 1071,600 1071,600 1072,601 1073,601 1073,601 1074,601 1074,601 1075,601 1076,599 1076,599 1077,597 1078,597 1078,597 1079,598 1079,598 1080,598 1081,596 1081,596 1082,596 1083,597 1083,594 1084,595 1084,595 1085,595 1086,593 1086,593 1087,591 1088,591 1088,589 1089,589 1089,589 1090,589 1091,589 1091,587 1092,587 1092,590 1093,590 1094,586 1094,586 1095,584 1096,584 1096,586 1097,587 1097,587 1098,587 1099,587 1099,580 1100,580 1101,581 1101,581 1102,581 1102,581 1103,581 1104,582 1104,582 1105,580 1106,578 1106,578 1107,578 1107,578 1108,578 1109,579 1109,579 1110,579 1111,579 1111,579 1112,579 1112,580 1113,580 1114,580 1114,578 1115,578 1115,579 1116,579 1117,577 1117,577 1118,577 1119,578 1119,578 1120,578 1120,578 1121,574 1122,574 1122,572 1123,572 1124,572 1124,572 1125,572 1125,573 1126,571 1127,571 1127,571 1128,571 1129,569 1129,570 1130,568 1130,568 1131,568 1132,568 1132,568 1132,569 1133,569 1134,569 1134,569 1135,569 1135,570 1136,570 1137,570 1137,570 1138,570 1139,571 1139,571 1140,569 1140,569 1141,569 1142,569 1142,570 1143,568 1143,568 1144,566 1145,566 1145,566 1146,567 1147,562 1147,563 1148,563 1148,563 1149,563 1150,564 1150,564 1151,564 1152,564 1152,564 1153,565 1153,565 1154,565 1155,565 1155,565 1156,566 1157,566 1157,562 1158,562 1158,562 1159,562 1160,563 1160,563 1161,563 1162,563 1162,563 1163,563 1163,564 1164,564 1165,564 1165,564 1166,565 1166,563 1167,563 1168,563 1168,563 1169,564 1170,564 1170,566 1171,568 1171,569 1172,569 1173,569 1173,567 1174,567 1175,567 1175,568 1176,568 1176,566 1177,566 1178,567 1178,567 1179,565 1180,563 1180,564 1181,564 1181,564 1182,565 1183,565 1183,565 1184,565 1185,566 1185,564 1186,562 1186,562 1187,562 1188,563 1188,561 1188,561 1188,561 1189,561 1189,559 1190,559 1190,560 "/>
<polyline fill="none" opacity="1" stroke="#19E5E6" stroke-width="2" points="60,692 84,656 101,628 107,598 111,564 112,457 115,430 120,406 126,483 129,457 130,457 133,433 134,343 139,357 142,363 142,334 143,308 146,314 152,326 156,307 159,314 161,292 163,294 164,296 168,303 169,305 170,305 170,282 171,207 174,214 179,227 180,228 181,233 182,234 183,236 185,241 188,247 189,250 190,250 191,252 192,255 195,238 196,238 198,240 199,242 199,244 200,245 201,246 202,248 204,250 204,251 206,230 206,232 207,233 208,234 208,235 209,237 210,238 211,240 213,242 214,243 214,244 216,223 218,228 221,232 221,233 222,236 223,236 224,237 224,241 225,241 227,244 227,225 228,226 230,187 231,189 232,191 233,193 234,173 234,174 235,175 235,176 236,176 237,178 237,158 240,163 241,165 242,166 242,167 243,169 244,170 245,172 245,173 247,157 248,158 249,160 250,162 250,166 251,166 252,167 252,168 253,168 254,170 257,175 257,175 259,158 260,141 261,144 262,147 262,147 263,131 267,138 268,141 268,142 269,143 270,145 271,146 272,147 272,149 274,133 275,135 276,137 277,121 277,122 278,123 278,123 279,124 280,125 280,126 281,128 282,130 282,130 283,132 283,134 284,153 285,137 285,138 286,139 286,140 287,141 288,142 288,144 289,145 290,130 290,115 292,118 293,121 293,106 294,107 295,109 296,110 296,111 297,113 298,114 298,115 299,117 300,117 300,119 301,120 301,122 302,124 303,125 303,126 304,127 305,130 305,131 306,133 306,135 307,136 308,137 308,138 309,140 310,141 310,142 311,143 311,144 312,145 313,147 313,147 314,148 314,149 315,151 316,151 316,153 317,154 318,155 318,155 319,156 319,158 320,159 321,161 321,163 322,164 323,165 323,167 324,167 324,169 325,171 326,158 326,145 327,145 328,146 328,132 329,133 329,134 330,135 331,121 331,122 332,123 333,125 333,126 334,127 334,127 335,129 336,129 336,130 337,132 337,132 338,119 339,120 339,107 340,108 341,95 341,82 342,84 342,85 343,86 344,88 344,90 345,92 346,93 346,95 347,96 347,97 348,84 349,86 350,87 351,88 351,89 352,90 352,91 353,93 354,94 354,95 355,96 356,97 356,98 357,99 357,101 358,102 359,103 359,106 360,107 361,94 361,82 362,82 362,83 363,85 364,87 364,88 365,75 365,76 366,77 367,79 367,80 368,81 369,82 369,83 370,84 370,85 371,86 372,88 372,89 373,103 374,104 374,105 375,106 375,107 376,108 377,109 378,99 379,100 379,101 380,102 380,104 382,106 382,107 383,108 384,110 384,111 385,100 385,100 386,101 387,102 387,102 388,103 388,104 389,104 390,105 390,107 391,108 392,109 392,110 393,111 393,112 394,113 395,114 395,115 396,116 397,117 397,119 398,120 398,121 399,121 400,122 400,123 401,125 402,126 402,127 403,129 403,130 404,119 405,108 405,97 406,98 407,99 408,101 408,102 409,102 410,103 410,104 411,104 411,105 412,107 413,108 413,109 414,110 415,111 415,113 416,114 416,116 417,117 418,119 418,120 419,121 420,123 420,113 421,114 421,115 422,116 423,117 423,118 424,108 425,109 425,110 426,111 426,112 427,113 428,115 428,127 429,128 430,130 430,110 431,111 431,112 432,113 433,103 433,104 434,106 435,96 435,97 436,98 436,99 437,100 438,101 438,102 439,103 439,103 440,104 441,105 441,106 442,108 443,109 443,110 444,114 444,115 445,116 446,116 446,117 447,118 448,119 448,120 449,121 449,122 450,133 451,135 451,136 452,137 453,137 453,138 454,139 454,143 455,144 456,145 456,145 457,146 458,146 458,148 459,148 459,149 460,150 461,161 461,162 462,162 462,163 463,164 464,165 464,166 465,167 466,167 466,168 467,169 467,161 468,161 469,162 469,163 470,163 471,165 471,156 472,157 472,167 473,168 474,169 474,169 475,160 476,161 476,162 477,153 477,154 478,155 479,146 479,147 480,148 481,139 481,140 482,131 482,142 483,142 484,143 484,134 485,135 486,136 486,137 487,129 487,131 488,134 489,135 489,135 490,137 490,138 491,139 492,122 492,124 493,124 494,126 494,127 495,128 495,139 496,140 497,132 497,133 498,134 499,135 499,136 500,137 500,138 501,140 502,141 502,142 503,143 504,143 504,144 505,145 505,146 506,139 507,140 507,141 508,133 509,125 509,126 510,127 510,128 511,129 512,130 512,131 513,132 513,124 514,134 515,136 515,138 516,139 517,140 517,141 518,142 518,143 519,145 520,146 520,146 521,147 522,148 522,148 523,149 523,142 524,143 525,144 525,145 526,146 527,147 527,148 528,149 528,151 529,152 530,153 530,154 531,155 532,147 532,148 533,150 533,143 534,136 535,137 535,122 536,123 537,125 537,126 538,128 538,129 539,130 540,131 540,132 541,125 541,126 542,127 543,128 543,128 544,129 545,130 545,131 546,133 546,134 547,135 548,136 548,137 549,138 550,139 550,140 551,140 551,141 552,134 553,135 553,128 554,129 555,130 555,131 556,132 556,125 557,126 558,127 558,120 559,114 560,115 560,115 561,117 561,117 562,118 563,120 563,120 564,121 564,122 565,123 566,124 566,125 567,126 568,127 568,128 569,114 569,116 570,116 571,117 571,118 572,119 573,120 573,113 574,114 574,115 575,117 576,118 576,119 577,120 578,121 578,122 579,123 579,124 580,125 581,126 581,127 582,127 583,129 583,129 584,130 584,135 585,135 586,136 586,137 587,138 587,139 588,140 589,141 589,142 590,143 591,144 591,145 592,147 592,148 593,149 594,150 594,152 595,153 596,154 596,155 597,156 597,157 598,157 599,152 599,153 600,147 601,148 601,149 602,150 602,144 603,145 604,147 604,149 605,150 606,151 606,151 607,153 607,154 608,154 609,148 609,149 610,136 611,131 611,132 612,132 612,133 613,134 614,135 614,136 615,137 615,137 616,138 617,132 617,133 618,134 619,134 619,135 620,137 620,125 621,126 622,127 622,128 623,129 624,130 624,131 625,132 625,133 626,134 627,135 627,135 628,136 629,136 629,138 630,139 630,139 631,140 632,136 632,136 633,137 634,138 634,132 635,133 635,133 636,134 637,135 637,129 638,130 638,131 639,132 640,133 640,135 641,136 642,136 642,137 643,138 643,138 644,139 645,134 645,135 646,135 647,136 647,137 648,132 648,139 649,140 650,141 650,142 651,143 652,144 652,144 653,145 653,146 654,147 655,147 655,148 656,149 657,150 657,151 658,152 658,152 659,152 660,154 660,155 661,155 662,156 662,157 663,157 663,158 664,159 665,160 665,162 666,163 666,164 667,165 668,166 668,166 669,167 670,168 670,168 671,163 671,164 672,171 673,171 673,173 674,173 675,175 675,176 676,176 676,177 677,178 678,179 678,179 679,180 680,181 680,182 681,182 681,183 682,184 683,185 683,185 684,186 685,187 685,188 686,189 686,190 687,190 688,197 688,198 689,199 689,200 690,201 691,202 691,202 692,203 693,204 693,205 694,206 694,207 695,207 696,203 696,203 697,204 698,204 698,205 699,205 699,206 700,201 701,202 701,202 702,203 703,198 703,199 704,200 704,200 705,201 706,202 706,203 707,204 708,205 708,205 709,206 709,207 710,207 711,208 711,208 712,209 712,210 713,211 714,212 714,212 715,213 716,208 716,209 717,209 717,210 718,210 719,211 719,212 720,213 721,213 721,214 722,214 722,215 723,216 724,217 724,217 725,218 726,219 726,219 727,220 727,220 728,221 729,211 729,212 730,213 731,214 731,189 732,190 732,191 733,192 734,193 734,194 735,194 736,195 736,196 737,196 737,197 738,198 739,198 739,199 740,200 740,190 741,191 742,192 742,193 743,193 744,194 744,196 745,197 745,198 746,199 747,200 747,200 748,201 749,202 749,208 750,209 750,209 751,211 752,212 752,212 753,213 754,213 754,214 755,215 755,216 756,217 757,217 757,218 758,219 759,220 759,221 760,217 760,218 761,219 762,219 762,220 763,220 763,216 764,217 765,218 765,219 766,219 767,219 767,221 768,222 768,223 769,219 770,221 770,221 771,222 772,223 772,224 773,224 773,225 774,226 775,227 775,227 776,228 777,229 777,229 778,221 778,223 779,224 780,225 780,225 781,226 782,227 782,222 783,223 783,224 784,225 785,225 785,226 786,222 787,223 787,224 788,224 788,225 789,225 790,226 790,227 791,227 791,228 792,220 793,216 793,217 794,213 795,214 795,214 796,215 796,216 797,212 798,212 798,213 799,214 800,215 800,215 801,217 801,218 802,218 803,219 803,219 804,220 805,221 805,221 806,222 806,248 807,248 808,249 808,250 809,251 810,251 810,251 811,248 811,249 812,249 813,249 813,250 814,250 814,251 815,251 816,248 816,248 817,249 818,250 818,250 819,251 819,251 820,252 821,252 821,252 822,253 823,253 823,253 824,254 824,255 825,255 826,256 826,257 827,257 828,258 828,258 829,259 829,259 830,260 831,260 831,261 832,261 833,262 833,266 834,267 834,267 835,268 836,268 836,269 837,269 838,270 838,270 839,270 839,271 840,272 841,272 841,272 842,273 843,274 844,275 844,275 845,276 846,276 846,277 847,277 847,278 848,278 849,279 849,279 850,280 851,280 851,277 852,277 852,278 853,278 854,278 854,279 855,279 856,280 856,277 857,278 857,278 858,279 859,280 859,280 860,281 861,283 861,284 862,285 862,285 863,286 864,286 864,287 865,287 865,288 866,289 867,289 867,290 868,291 869,291 869,292 870,292 870,293 871,294 872,297 872,294 873,294 874,295 874,295 875,298 875,298 876,299 877,300 877,300 878,301 879,301 879,302 880,302 880,303 881,303 882,304 882,304 883,305 884,305 884,306 885,307 885,303 886,304 887,304 887,305 888,305 888,302 889,303 890,303 890,304 891,305 892,305 892,305 892,306 893,307 893,307 894,308 895,308 895,305 896,306 897,308 897,305 898,305 898,306 899,306 900,307 900,307 901,308 902,308 902,310 903,311 903,315 904,312 905,313 905,313 906,314 907,314 907,315 908,316 908,316 909,317 910,311 910,312 911,312 912,312 912,313 913,314 913,311 914,312 915,310 915,311 916,311 916,312 917,312 918,313 918,313 919,314 920,314 920,315 921,316 921,316 922,317 923,317 923,317 924,318 925,319 925,319 926,320 926,320 927,321 928,321 928,322 929,322 930,323 930,323 931,324 931,324 932,325 933,325 933,326 934,326 935,326 935,327 936,327 936,328 937,328 938,329 938,330 939,331 939,328 940,328 941,332 941,332 942,333 943,333 943,331 944,331 944,332 945,333 946,333 946,334 947,334 948,334 948,335 949,336 949,330 950,330 951,331 951,331 952,332 953,336 953,336 954,340 954,341 955,341 956,342 956,358 957,362 958,362 958,347 959,348 959,348 960,349 961,350 961,350 962,350 963,351 963,351 964,352 964,352 965,353 966,350 966,351 967,351 967,352 968,352 969,350 969,350 970,351 971,351 971,352 972,353 972,353 973,354 974,354 974,355 975,359 976,359 976,360 977,360 977,361 978,361 979,362 979,362 980,363 981,363 981,364 982,364 982,365 983,366 984,367 984,367 985,367 986,368 986,368 987,369 987,369 988,370 989,370 989,371 990,371 990,372 991,373 992,373 992,373 993,377 994,377 994,377 995,378 995,379 996,376 997,377 997,380 998,381 999,381 999,379 1000,379 1000,380 1001,380 1002,381 1002,381 1003,382 1004,380 1004,380 1005,381 1005,381 1006,382 1007,382 1007,383 1008,383 1009,383 1009,384 1010,384 1010,385 1011,385 1012,386 1012,386 1013,386 1014,387 1014,388 1015,388 1015,388 1016,389 1017,389 1017,390 1018,390 1018,388 1019,388 1020,389 1020,386 1021,387 1022,387 1022,388 1023,388 1023,388 1024,389 1025,389 1025,389 1026,390 1027,390 1027,391 1028,391 1028,393 1029,393 1030,394 1030,394 1031,395 1032,396 1032,396 1033,396 1033,397 1034,397 1035,398 1035,399 1036,396 1037,396 1037,397 1038,398 1038,398 1039,398 1040,399 1040,399 1041,400 1041,400 1042,400 1043,401 1043,401 1044,404 1045,405 1045,403 1046,403 1046,403 1047,404 1048,404 1048,405 1049,405 1050,403 1050,403 1051,404 1051,404 1052,404 1053,405 1053,405 1054,406 1055,406 1055,407 1056,407 1056,405 1057,405 1058,406 1058,406 1059,406 1060,406 1060,406 1061,407 1061,407 1062,408 1063,408 1063,409 1064,409 1064,410 1065,410 1066,410 1066,411 1067,412 1068,412 1068,415 1069,415 1069,416 1070,416 1071,416 1071,417 1072,417 1073,417 1073,420 1074,418 1074,418 1075,419 1076,419 1076,420 1077,420 1078,420 1078,421 1079,421 1079,422 1080,422 1081,423 1081,423 1082,423 1083,424 1083,425 1084,423 1084,423 1085,423 1086,423 1086,424 1087,424 1088,425 1088,425 1089,426 1089,424 1090,424 1091,424 1091,425 1092,425 1092,425 1093,426 1094,426 1094,426 1095,427 1096,427 1096,428 1097,428 1097,428 1098,429 1099,427 1099,427 1100,427 1101,428 1101,428 1102,428 1102,429 1103,429 1104,429 1104,428 1105,428 1106,428 1106,429 1107,429 1107,427 1108,428 1109,428 1109,429 1110,429 1111,429 1112,430 1112,430 1113,430 1114,431 1114,431 1115,432 1115,433 1116,433 1117,433 1117,434 1118,434 1119,435 1119,435 1120,435 1120,436 1121,436 1122,436 1122,436 1123,437 1124,437 1124,437 1125,437 1125,438 1126,438 1127,439 1127,439 1128,439 1129,440 1129,440 1130,441 1130,441 1131,441 1132,442 1132,442 1132,442 1133,443 1134,443 1134,443 1135,444 1135,444 1136,444 1137,445 1137,445 1138,445 1139,446 1139,444 1140,444 1140,444 1141,445 1142,445 1142,445 1143,446 1143,446 1144,446 1145,447 1145,447 1146,448 1147,450 1147,450 1148,453 1148,453 1149,453 1150,454 1150,454 1151,454 1152,455 1152,455 1153,455 1153,456 1154,456 1155,456 1155,457 1156,457 1157,455 1157,454 1158,454 1158,454 1159,455 1160,455 1160,455 1161,455 1162,455 1162,456 1163,456 1163,456 1164,453 1165,453 1165,454 1166,448 1166,448 1167,448 1168,449 1168,449 1169,449 1170,450 1170,450 1171,450 1171,453 1172,453 1173,453 1173,454 1174,454 1175,454 1175,455 1176,455 1176,455 1177,456 1178,456 1178,457 1179,457 1180,458 1180,456 1181,453 1181,453 1182,454 1183,454 1183,454 1184,455 1185,455 1185,456 1186,456 1186,456 1187,456 1188,457 1188,457 1188,457 1188,457 1189,457 1189,457 1190,457 1190,458 "/>
<polyline fill="none" opacity="1" stroke="#1919E6" stroke-width="2" points="472,735 537,729 591,724 615,719 623,713 638,708 640,701 641,695 645,690 648,684 663,686 671,681 680,682 696,674 699,674 709,670 710,671 711,671 711,671 712,671 712,671 713,671 714,671 714,671 715,671 716,671 716,672 717,672 717,666 718,666 719,667 719,667 720,667 721,667 721,667 722,667 722,667 723,667 724,667 724,667 725,668 726,668 726,668 727,668 727,668 728,668 729,668 729,668 730,668 731,668 731,669 732,669 732,669 733,669 734,669 734,669 735,669 736,669 736,669 737,670 737,670 738,670 739,670 739,670 740,670 740,670 741,670 742,670 742,670 743,671 744,671 744,671 745,671 745,671 746,671 747,671 747,671 748,672 749,672 749,672 750,672 750,672 751,672 752,667 752,668 753,668 754,668 754,663 755,663 755,663 756,663 757,664 757,664 758,664 759,664 759,664 760,664 760,664 761,664 762,665 762,665 763,665 763,665 764,665 765,665 765,665 766,665 767,665 767,665 768,666 768,666 769,666 770,666 770,662 771,662 772,662 772,662 773,658 773,658 774,658 775,658 775,658 776,658 777,658 777,658 778,659 778,659 779,659 780,659 780,659 781,659 782,659 782,660 783,660 783,660 784,660 785,660 785,660 786,660 787,660 787,660 788,660 788,661 789,656 790,652 790,648 791,643 791,643 792,644 793,644 793,644 794,644 795,644 795,644 796,644 796,645 797,645 798,645 798,645 799,645 800,645 800,645 801,645 801,646 802,646 803,646 803,646 804,646 805,646 805,646 806,646 806,647 807,647 808,647 808,647 809,643 810,643 810,643 811,643 811,643 812,643 813,643 813,639 814,639 814,639 815,640 816,640 816,640 817,636 818,636 818,636 819,636 819,636 820,636 821,636 821,637 822,637 823,637 823,637 824,637 824,637 825,637 826,637 826,637 827,638 828,634 828,634 829,634 829,634 830,634 831,634 831,634 832,634 833,634 833,635 834,635 834,635 835,635 836,635 836,635 837,635 838,631 838,631 839,632 839,632 840,628 841,628 841,628 842,628 842,628 843,628 844,628 844,629 845,629 846,629 846,629 847,629 847,629 848,629 849,630 849,630 850,630 851,630 851,626 852,626 852,626 853,626 854,626 854,627 855,627 856,627 856,623 857,623 857,624 858,624 859,624 859,624 860,624 861,625 861,621 862,621 862,621 863,622 864,622 864,622 865,622 865,622 866,622 867,619 867,619 868,619 869,612 869,612 870,612 870,612 871,612 872,613 872,613 873,614 874,614 874,614 875,615 875,615 876,615 877,615 877,615 878,616 879,612 879,612 880,612 880,612 881,613 882,613 882,613 883,613 884,613 884,613 885,614 885,614 886,614 887,614 887,614 888,614 888,614 889,615 890,611 890,611 891,612 892,612 892,612 892,612 893,612 893,612 894,612 895,613 895,613 896,613 897,614 897,614 898,614 898,614 899,614 900,614 900,614 901,615 902,611 902,612 903,612 903,613 904,612 905,613 905,613 906,613 907,613 907,610 908,610 908,610 909,611 910,611 910,611 911,611 912,611 912,611 913,612 913,612 914,612 915,609 915,609 916,613 916,613 917,613 918,613 918,614 919,614 920,614 920,611 921,611 921,608 922,608 923,608 923,608 924,608 925,609 925,609 926,609 926,609 927,609 928,609 928,610 929,610 930,610 930,610 931,610 931,610 932,610 933,611 933,611 934,611 935,611 935,611 936,611 936,612 937,612 938,612 938,612 939,612 939,612 940,613 941,613 941,613 942,613 943,613 943,613 944,614 944,614 945,614 946,614 946,614 947,614 948,615 948,615 949,615 949,615 950,615 951,615 951,616 952,616 953,616 953,613 954,613 954,613 955,610 956,611 956,616 957,613 958,613 958,608 959,605 959,606 960,606 961,600 961,597 962,594 963,594 963,594 964,594 964,595 965,595 966,595 966,595 967,592 967,593 968,590 969,590 969,590 970,591 971,588 971,588 972,588 972,588 973,589 974,589 974,589 975,586 976,586 976,587 977,587 977,587 978,587 979,588 979,585 980,585 981,585 981,585 982,586 982,589 983,589 984,590 984,590 985,590 986,590 986,590 987,591 987,591 988,591 989,591 989,591 990,592 990,592 991,592 992,592 992,592 993,593 994,590 994,590 995,590 995,588 996,588 997,588 997,588 998,589 999,583 999,583 1000,583 1000,584 1001,584 1002,584 1002,584 1003,585 1004,585 1004,585 1005,585 1005,586 1006,586 1007,586 1007,586 1008,586 1009,586 1009,587 1010,587 1010,587 1011,587 1012,587 1012,588 1013,588 1014,588 1014,588 1015,589 1015,589 1016,589 1017,589 1017,589 1018,590 1018,590 1019,590 1020,590 1020,590 1021,588 1022,588 1022,588 1023,588 1023,588 1024,586 1025,586 1025,586 1026,584 1027,581 1027,579 1028,576 1028,577 1029,577 1030,575 1030,575 1031,575 1032,576 1032,573 1033,571 1033,571 1034,571 1035,572 1035,572 1036,569 1037,569 1037,570 1038,570 1038,570 1039,570 1040,571 1040,571 1041,571 1041,571 1042,571 1043,572 1043,572 1044,569 1045,570 1045,570 1046,570 1046,570 1047,571 1048,571 1048,571 1049,571 1050,571 1050,569 1051,569 1051,569 1052,570 1053,570 1053,568 1054,568 1055,568 1055,568 1056,568 1056,564 1057,564 1058,564 1058,564 1059,564 1060,565 1060,564 1061,565 1061,565 1062,565 1063,566 1063,566 1064,566 1064,566 1065,566 1066,567 1066,567 1067,567 1068,567 1068,568 1069,568 1069,566 1070,563 1071,559 1071,559 1072,559 1073,559 1073,557 1074,557 1074,557 1075,558 1076,558 1076,558 1077,558 1078,559 1078,559 1079,559 1079,559 1080,560 1081,558 1081,558 1082,555 1083,556 1083,556 1084,556 1084,557 1085,557 1086,557 1086,557 1087,557 1088,558 1088,558 1089,558 1089,558 1090,558 1091,556 1091,557 1092,557 1092,557 1093,560 1094,560 1094,560 1095,560 1096,560 1096,561 1097,561 1097,561 1098,561 1099,561 1099,562 1100,562 1101,562 1101,562 1102,562 1102,563 1103,563 1104,563 1104,561 1105,561 1106,562 1106,562 1107,562 1107,562 1108,562 1109,558 1109,558 1110,559 1111,559 1111,557 1112,557 1112,557 1113,557 1114,555 1114,555 1115,556 1115,556 1116,557 1117,557 1117,555 1118,553 1119,553 1119,553 1120,553 1120,554 1121,554 1122,554 1122,554 1123,554 1124,554 1124,555 1125,555 1125,555 1126,555 1127,556 1127,556 1128,556 1129,556 1129,556 1130,555 1130,555 1131,553 1132,553 1132,553 1132,551 1133,549 1134,549 1134,550 1135,550 1135,550 1136,548 1137,549 1137,549 1138,549 1139,549 1139,549 1140,547 1140,548 1141,548 1142,548 1142,548 1143,548 1143,548 1144,549 1145,545 1145,545 1146,545 1147,545 1147,546 1148,544 1148,544 1149,544 1150,545 1150,545 1151,545 1152,545 1152,545 1153,546 1153,546 1154,546 1155,546 1155,544 1156,545 1157,545 1157,541 1158,541 1158,542 1159,542 1160,542 1160,540 1161,540 1162,540 1162,541 1163,541 1163,541 1164,541 1165,542 1165,542 1166,542 1166,542 1167,542 1168,543 1168,543 1169,543 1170,541 1170,542 1171,542 1171,542 1172,542 1173,543 1173,543 1174,543 1175,543 1175,543 1176,544 1176,544 1177,544 1178,544 1178,545 1179,545 1180,545 1180,546 1181,546 1181,546 1182,547 1183,547 1183,547 1184,546 1185,546 1185,546 1186,546 1186,547 1187,547 1188,547 1188,547 1188,547 1188,545 1189,545 1189,547 1190,547 1190,548 "/>
<polyline fill="none" opacity="1" stroke="#E519E6" stroke-width="2" points="398,733 428,723 446,714 448,703 449,704 453,694 463,685 464,675 464,665 471,657 472,647 475,648 489,651 491,643 497,635 500,627 504,628 512,622 517,633 518,633 523,626 535,622 538,615 546,610 557,614 560,607 563,608 563,608 566,601 572,596 579,592 579,592 581,585 589,582 592,576 614,586 619,581 623,583 632,580 643,584 643,578 653,575 657,571 662,566 663,561 667,558 668,552 668,552 669,553 670,553 670,553 671,553 671,553 672,554 673,554 673,554 674,555 675,555 675,555 676,556 676,556 677,556 678,556 678,557 679,557 680,557 680,557 681,558 681,558 682,558 683,558 683,559 684,559 685,559 685,559 686,560 686,560 687,560 688,561 688,561 689,561 689,562 690,556 691,557 691,557 692,557 693,558 693,558 694,558 694,558 695,559 696,559 696,559 697,559 698,559 698,560 699,554 699,555 700,555 701,555 701,555 702,550 703,550 703,551 704,551 704,551 705,551 706,551 706,552 707,552 708,552 708,553 709,548 709,548 710,548 711,548 711,548 712,549 712,549 713,549 714,550 714,550 715,550 716,550 716,551 717,551 717,551 718,551 719,551 719,541 720,542 721,542 721,542 722,537 722,527 723,527 724,528 724,528 725,528 726,523 726,523 727,524 727,524 728,524 729,524 729,525 730,525 731,525 731,526 732,526 732,526 733,522 734,517 734,517 735,518 736,518 736,508 737,509 737,509 738,509 739,509 739,510 740,510 740,505 741,505 742,506 742,506 743,506 744,507 744,503 745,508 745,508 746,509 747,509 747,509 748,510 749,510 749,511 750,511 750,516 751,517 752,517 752,517 753,518 754,518 754,518 755,518 755,519 756,519 757,520 757,520 758,520 759,521 759,521 760,522 760,512 761,513 762,513 762,513 763,513 763,514 764,514 765,514 765,515 766,515 767,515 767,516 768,516 768,516 769,512 770,513 770,513 771,514 772,514 772,514 773,515 773,515 774,515 775,516 775,516 776,512 777,512 777,512 778,513 778,513 779,514 780,510 780,510 781,510 782,511 782,511 783,511 783,511 784,512 785,512 785,512 786,513 787,518 787,518 788,518 788,518 789,518 790,519 790,519 791,519 791,520 792,520 793,525 793,525 794,525 795,526 795,526 796,526 796,526 797,527 798,527 798,527 799,527 800,528 800,528 801,529 801,529 802,525 803,525 803,525 804,526 805,522 805,522 806,522 806,522 807,522 808,523 808,523 809,523 810,524 810,524 811,520 811,520 812,520 813,521 813,521 814,521 814,517 815,513 816,513 816,514 817,514 818,514 818,514 819,515 819,515 820,511 821,511 821,507 822,507 823,512 823,512 824,512 824,512 825,513 826,513 826,509 827,509 828,510 828,510 829,510 829,510 830,511 831,511 831,511 832,511 833,512 833,512 834,512 834,512 835,513 836,513 836,513 837,513 838,513 838,514 839,514 839,514 840,518 841,519 841,519 842,519 842,519 843,520 844,520 844,520 845,521 846,521 846,521 847,521 847,521 848,522 849,522 849,522 850,522 851,523 851,523 852,523 852,523 853,523 854,520 854,520 855,520 856,521 856,521 857,521 857,522 858,522 859,518 859,519 860,519 861,520 861,520 862,521 862,521 863,521 864,522 864,522 865,522 865,522 866,523 867,523 867,523 868,524 869,524 869,524 870,521 870,521 871,521 872,523 872,523 873,523 874,524 874,524 875,525 875,526 876,526 877,526 877,526 878,523 879,523 879,523 880,524 880,524 881,524 882,524 882,525 883,525 884,525 884,526 885,526 885,526 886,523 887,523 887,520 888,520 888,520 889,517 890,513 890,514 891,514 892,514 892,514 892,515 893,515 893,515 894,512 895,512 895,513 896,513 897,514 897,514 898,514 898,515 899,515 900,515 900,516 901,516 902,516 902,517 903,517 903,516 904,515 905,515 905,515 906,515 907,516 907,516 908,517 908,517 909,514 910,514 910,515 911,515 912,515 912,519 913,519 913,520 914,520 915,521 915,521 916,521 916,522 917,522 918,522 918,522 919,523 920,523 920,523 921,524 921,524 922,524 923,524 923,525 924,525 925,525 925,526 926,526 926,526 927,526 928,527 928,527 929,527 930,527 930,528 931,528 931,528 932,528 933,528 933,529 934,529 935,529 935,526 936,526 936,524 937,524 938,524 938,521 939,522 939,522 940,522 941,522 941,523 942,520 943,520 943,520 944,517 944,518 945,518 946,518 946,519 947,519 948,519 948,519 949,520 949,520 950,520 951,517 951,521 952,518 953,518 953,519 954,519 954,516 955,517 956,511 956,520 957,521 958,521 958,512 959,512 959,513 960,513 961,513 961,514 962,514 963,514 963,514 964,515 964,515 965,512 966,512 966,513 967,513 967,513 968,514 969,514 969,511 970,512 971,512 971,509 972,510 972,507 973,507 974,508 974,508 975,508 976,506 976,506 977,506 977,507 978,507 979,507 979,508 980,508 981,508 981,509 982,509 982,509 983,507 984,502 984,502 985,502 986,497 986,497 987,497 987,498 988,498 989,498 989,496 990,493 990,491 991,491 992,491 992,486 993,489 994,489 994,489 995,487 995,488 996,485 997,485 997,486 998,486 999,486 999,487 1000,487 1000,487 1001,488 1002,488 1002,489 1003,486 1004,487 1004,484 1005,482 1005,479 1006,480 1007,480 1007,475 1008,475 1009,475 1009,476 1010,476 1010,476 1011,479 1012,477 1012,477 1013,477 1014,478 1014,478 1015,479 1015,479 1016,479 1017,480 1017,480 1018,478 1018,478 1019,478 1020,478 1020,479 1021,479 1022,479 1022,480 1023,480 1023,480 1024,480 1025,481 1025,481 1026,481 1027,482 1027,482 1028,482 1028,483 1029,484 1030,484 1030,485 1031,485 1032,486 1032,486 1033,486 1033,484 1034,482 1035,482 1035,480 1036,480 1037,480 1037,481 1038,479 1038,479 1039,479 1040,479 1040,480 1041,480 1041,480 1042,481 1043,481 1043,479 1044,479 1045,479 1045,480 1046,477 1046,478 1047,476 1048,476 1048,476 1049,477 1050,477 1050,477 1051,475 1051,475 1052,473 1053,473 1053,474 1054,474 1055,474 1055,472 1056,472 1056,473 1057,473 1058,476 1058,476 1059,476 1060,477 1060,477 1061,477 1061,477 1062,478 1063,478 1063,479 1064,479 1064,474 1065,475 1066,472 1066,473 1067,474 1068,474 1068,474 1069,474 1069,475 1070,475 1071,478 1071,475 1072,476 1074,474 1075,475 1076,475 1076,475 1077,476 1078,474 1078,474 1079,474 1079,470 1081,471 1081,471 1082,471 1083,472 1083,472 1084,473 1085,473 1086,473 1086,474 1087,474 1088,475 1088,473 1089,473 1089,473 1090,473 1091,474 1091,474 1092,475 1092,472 1093,473 1094,473 1094,473 1095,473 1096,474 1096,474 1097,475 1097,475 1098,473 1099,473 1100,474 1101,472 1101,472 1102,472 1102,472 1103,471 1104,471 1104,469 1105,467 1106,467 1106,468 1107,468 1107,466 1108,466 1109,467 1109,467 1110,468 1111,468 1112,468 1113,467 1114,467 1114,467 1115,468 1116,469 1117,469 1117,467 1118,468 1120,469 1120,465 1121,465 1122,465 1122,465 1123,465 1124,464 1125,462 1125,462 1126,463 1127,461 1127,459 1128,459 1129,460 1129,458 1130,454 1130,454 1132,455 1132,453 1132,451 1133,451 1134,452 1135,450 1136,451 1137,445 1137,445 1138,443 1139,444 1140,444 1141,445 1142,445 1143,443 1143,444 1144,442 1145,442 1145,443 1146,441 1148,442 1148,438 1149,439 1150,435 1150,435 1151,433 1152,431 1152,430 1153,431 1154,431 1155,427 1155,427 1156,428 1157,428 1157,427 1158,427 1158,425 1159,425 1160,426 1160,426 1161,426 1162,427 1163,427 1163,427 1164,428 1165,428 1165,429 1166,429 1166,425 1167,424 1168,424 1169,421 1170,419 1170,416 1171,414 1171,412 1172,413 1173,411 1173,411 1174,406 1175,406 1175,406 1176,407 1177,408 1178,404 1178,402 1179,403 1180,404 1180,404 1181,405 1181,403 1182,404 1183,404 1183,403 1184,403 1185,404 1185,404 1186,405 1187,401 1188,402 1188,402 1188,398 1189,397 1190,397 1190,397 "/>
<rect x="1085" y="323" width="100" height="104" opacity="1" fill="#FFFFFF" stroke="none"/>
<rect x="1085" y="323" width="100" height="104" opacity="1" fill="none" stroke="#000000"/>
<text x="1125" y="333" dy="0.76em" text-anchor="start" font-family="sans-serif" font-size="9.67741935483871" opacity="1" fill="#000000">
ansi_term
</text>
<text x="1125" y="348" dy="0.76em" text-anchor="start" font-family="sans-serif" font-size="9.67741935483871" opacity="1" fill="#000000">
colored
</text>
<text x="1125" y="363" dy="0.76em" text-anchor="start" font-family="sans-serif" font-size="9.67741935483871" opacity="1" fill="#000000">
console
</text>
<text x="1125" y="378" dy="0.76em" text-anchor="start" font-family="sans-serif" font-size="9.67741935483871" opacity="1" fill="#000000">
term
</text>
<text x="1125" y="393" dy="0.76em" text-anchor="start" font-family="sans-serif" font-size="9.67741935483871" opacity="1" fill="#000000">
termcolor
</text>
<text x="1125" y="408" dy="0.76em" text-anchor="start" font-family="sans-serif" font-size="9.67741935483871" opacity="1" fill="#000000">
termion
</text>
<polyline fill="none" opacity="1" stroke="#E61919" stroke-width="2" points="1095,338 1115,338 "/>
<polyline fill="none" opacity="1" stroke="#E5E619" stroke-width="2" points="1095,352 1115,352 "/>
<polyline fill="none" opacity="1" stroke="#19E619" stroke-width="2" points="1095,367 1115,367 "/>
<polyline fill="none" opacity="1" stroke="#19E5E6" stroke-width="2" points="1095,382 1115,382 "/>
<polyline fill="none" opacity="1" stroke="#1919E6" stroke-width="2" points="1095,397 1115,397 "/>
<polyline fill="none" opacity="1" stroke="#E519E6" stroke-width="2" points="1095,412 1115,412 "/>
</svg>
