<svg width="600" height="400" viewBox="0 0 600 400" xmlns="http://www.w3.org/2000/svg">
<rect x="0" y="0" width="600" height="400" opacity="1" fill="#FFFFFF" stroke="none"/>
<line opacity="0.1" stroke="#000000" stroke-width="1" x1="60" y1="339" x2="589" y2="339"/>
<line opacity="0.1" stroke="#000000" stroke-width="1" x1="60" y1="335" x2="589" y2="335"/>
<line opacity="0.1" stroke="#000000" stroke-width="1" x1="60" y1="332" x2="589" y2="332"/>
<line opacity="0.1" stroke="#000000" stroke-width="1" x1="60" y1="328" x2="589" y2="328"/>
<line opacity="0.1" stroke="#000000" stroke-width="1" x1="60" y1="325" x2="589" y2="325"/>
<line opacity="0.1" stroke="#000000" stroke-width="1" x1="60" y1="322" x2="589" y2="322"/>
<line opacity="0.1" stroke="#000000" stroke-width="1" x1="60" y1="318" x2="589" y2="318"/>
<line opacity="0.1" stroke="#000000" stroke-width="1" x1="60" y1="315" x2="589" y2="315"/>
<line opacity="0.1" stroke="#000000" stroke-width="1" x1="60" y1="312" x2="589" y2="312"/>
<line opacity="0.1" stroke="#000000" stroke-width="1" x1="60" y1="308" x2="589" y2="308"/>
<line opacity="0.1" stroke="#000000" stroke-width="1" x1="60" y1="305" x2="589" y2="305"/>
<line opacity="0.1" stroke="#000000" stroke-width="1" x1="60" y1="301" x2="589" y2="301"/>
<line opacity="0.1" stroke="#000000" stroke-width="1" x1="60" y1="298" x2="589" y2="298"/>
<line opacity="0.1" stroke="#000000" stroke-width="1" x1="60" y1="295" x2="589" y2="295"/>
<line opacity="0.1" stroke="#000000" stroke-width="1" x1="60" y1="291" x2="589" y2="291"/>
<line opacity="0.1" stroke="#000000" stroke-width="1" x1="60" y1="288" x2="589" y2="288"/>
<line opacity="0.1" stroke="#000000" stroke-width="1" x1="60" y1="284" x2="589" y2="284"/>
<line opacity="0.1" stroke="#000000" stroke-width="1" x1="60" y1="281" x2="589" y2="281"/>
<line opacity="0.1" stroke="#000000" stroke-width="1" x1="60" y1="278" x2="589" y2="278"/>
<line opacity="0.1" stroke="#000000" stroke-width="1" x1="60" y1="274" x2="589" y2="274"/>
<line opacity="0.1" stroke="#000000" stroke-width="1" x1="60" y1="271" x2="589" y2="271"/>
<line opacity="0.1" stroke="#000000" stroke-width="1" x1="60" y1="268" x2="589" y2="268"/>
<line opacity="0.1" stroke="#000000" stroke-width="1" x1="60" y1="264" x2="589" y2="264"/>
<line opacity="0.1" stroke="#000000" stroke-width="1" x1="60" y1="261" x2="589" y2="261"/>
<line opacity="0.1" stroke="#000000" stroke-width="1" x1="60" y1="257" x2="589" y2="257"/>
<line opacity="0.1" stroke="#000000" stroke-width="1" x1="60" y1="254" x2="589" y2="254"/>
<line opacity="0.1" stroke="#000000" stroke-width="1" x1="60" y1="251" x2="589" y2="251"/>
<line opacity="0.1" stroke="#000000" stroke-width="1" x1="60" y1="247" x2="589" y2="247"/>
<line opacity="0.1" stroke="#000000" stroke-width="1" x1="60" y1="244" x2="589" y2="244"/>
<line opacity="0.1" stroke="#000000" stroke-width="1" x1="60" y1="241" x2="589" y2="241"/>
<line opacity="0.1" stroke="#000000" stroke-width="1" x1="60" y1="237" x2="589" y2="237"/>
<line opacity="0.1" stroke="#000000" stroke-width="1" x1="60" y1="234" x2="589" y2="234"/>
<line opacity="0.1" stroke="#000000" stroke-width="1" x1="60" y1="230" x2="589" y2="230"/>
<line opacity="0.1" stroke="#000000" stroke-width="1" x1="60" y1="227" x2="589" y2="227"/>
<line opacity="0.1" stroke="#000000" stroke-width="1" x1="60" y1="224" x2="589" y2="224"/>
<line opacity="0.1" stroke="#000000" stroke-width="1" x1="60" y1="220" x2="589" y2="220"/>
<line opacity="0.1" stroke="#000000" stroke-width="1" x1="60" y1="217" x2="589" y2="217"/>
<line opacity="0.1" stroke="#000000" stroke-width="1" x1="60" y1="213" x2="589" y2="213"/>
<line opacity="0.1" stroke="#000000" stroke-width="1" x1="60" y1="210" x2="589" y2="210"/>
<line opacity="0.1" stroke="#000000" stroke-width="1" x1="60" y1="207" x2="589" y2="207"/>
<line opacity="0.1" stroke="#000000" stroke-width="1" x1="60" y1="203" x2="589" y2="203"/>
<line opacity="0.1" stroke="#000000" stroke-width="1" x1="60" y1="200" x2="589" y2="200"/>
<line opacity="0.1" stroke="#000000" stroke-width="1" x1="60" y1="197" x2="589" y2="197"/>
<line opacity="0.1" stroke="#000000" stroke-width="1" x1="60" y1="193" x2="589" y2="193"/>
<line opacity="0.1" stroke="#000000" stroke-width="1" x1="60" y1="190" x2="589" y2="190"/>
<line opacity="0.1" stroke="#000000" stroke-width="1" x1="60" y1="186" x2="589" y2="186"/>
<line opacity="0.1" stroke="#000000" stroke-width="1" x1="60" y1="183" x2="589" y2="183"/>
<line opacity="0.1" stroke="#000000" stroke-width="1" x1="60" y1="180" x2="589" y2="180"/>
<line opacity="0.1" stroke="#000000" stroke-width="1" x1="60" y1="176" x2="589" y2="176"/>
<line opacity="0.1" stroke="#000000" stroke-width="1" x1="60" y1="173" x2="589" y2="173"/>
<line opacity="0.1" stroke="#000000" stroke-width="1" x1="60" y1="169" x2="589" y2="169"/>
<line opacity="0.1" stroke="#000000" stroke-width="1" x1="60" y1="166" x2="589" y2="166"/>
<line opacity="0.1" stroke="#000000" stroke-width="1" x1="60" y1="163" x2="589" y2="163"/>
<line opacity="0.1" stroke="#000000" stroke-width="1" x1="60" y1="159" x2="589" y2="159"/>
<line opacity="0.1" stroke="#000000" stroke-width="1" x1="60" y1="156" x2="589" y2="156"/>
<line opacity="0.1" stroke="#000000" stroke-width="1" x1="60" y1="153" x2="589" y2="153"/>
<line opacity="0.1" stroke="#000000" stroke-width="1" x1="60" y1="149" x2="589" y2="149"/>
<line opacity="0.1" stroke="#000000" stroke-width="1" x1="60" y1="146" x2="589" y2="146"/>
<line opacity="0.1" stroke="#000000" stroke-width="1" x1="60" y1="142" x2="589" y2="142"/>
<line opacity="0.1" stroke="#000000" stroke-width="1" x1="60" y1="139" x2="589" y2="139"/>
<line opacity="0.1" stroke="#000000" stroke-width="1" x1="60" y1="136" x2="589" y2="136"/>
<line opacity="0.1" stroke="#000000" stroke-width="1" x1="60" y1="132" x2="589" y2="132"/>
<line opacity="0.1" stroke="#000000" stroke-width="1" x1="60" y1="129" x2="589" y2="129"/>
<line opacity="0.1" stroke="#000000" stroke-width="1" x1="60" y1="126" x2="589" y2="126"/>
<line opacity="0.1" stroke="#000000" stroke-width="1" x1="60" y1="122" x2="589" y2="122"/>
<line opacity="0.1" stroke="#000000" stroke-width="1" x1="60" y1="119" x2="589" y2="119"/>
<line opacity="0.1" stroke="#000000" stroke-width="1" x1="60" y1="115" x2="589" y2="115"/>
<line opacity="0.1" stroke="#000000" stroke-width="1" x1="60" y1="112" x2="589" y2="112"/>
<line opacity="0.1" stroke="#000000" stroke-width="1" x1="60" y1="109" x2="589" y2="109"/>
<line opacity="0.1" stroke="#000000" stroke-width="1" x1="60" y1="105" x2="589" y2="105"/>
<line opacity="0.1" stroke="#000000" stroke-width="1" x1="60" y1="102" x2="589" y2="102"/>
<line opacity="0.1" stroke="#000000" stroke-width="1" x1="60" y1="98" x2="589" y2="98"/>
<line opacity="0.1" stroke="#000000" stroke-width="1" x1="60" y1="95" x2="589" y2="95"/>
<line opacity="0.1" stroke="#000000" stroke-width="1" x1="60" y1="92" x2="589" y2="92"/>
<line opacity="0.1" stroke="#000000" stroke-width="1" x1="60" y1="88" x2="589" y2="88"/>
<line opacity="0.1" stroke="#000000" stroke-width="1" x1="60" y1="85" x2="589" y2="85"/>
<line opacity="0.1" stroke="#000000" stroke-width="1" x1="60" y1="82" x2="589" y2="82"/>
<line opacity="0.1" stroke="#000000" stroke-width="1" x1="60" y1="78" x2="589" y2="78"/>
<line opacity="0.1" stroke="#000000" stroke-width="1" x1="60" y1="75" x2="589" y2="75"/>
<line opacity="0.1" stroke="#000000" stroke-width="1" x1="60" y1="71" x2="589" y2="71"/>
<line opacity="0.1" stroke="#000000" stroke-width="1" x1="60" y1="68" x2="589" y2="68"/>
<line opacity="0.1" stroke="#000000" stroke-width="1" x1="60" y1="65" x2="589" y2="65"/>
<line opacity="0.1" stroke="#000000" stroke-width="1" x1="60" y1="61" x2="589" y2="61"/>
<line opacity="0.1" stroke="#000000" stroke-width="1" x1="60" y1="58" x2="589" y2="58"/>
<line opacity="0.1" stroke="#000000" stroke-width="1" x1="60" y1="54" x2="589" y2="54"/>
<line opacity="0.1" stroke="#000000" stroke-width="1" x1="60" y1="51" x2="589" y2="51"/>
<line opacity="0.1" stroke="#000000" stroke-width="1" x1="60" y1="48" x2="589" y2="48"/>
<line opacity="0.1" stroke="#000000" stroke-width="1" x1="60" y1="44" x2="589" y2="44"/>
<line opacity="0.1" stroke="#000000" stroke-width="1" x1="60" y1="41" x2="589" y2="41"/>
<line opacity="0.1" stroke="#000000" stroke-width="1" x1="60" y1="38" x2="589" y2="38"/>
<line opacity="0.1" stroke="#000000" stroke-width="1" x1="60" y1="34" x2="589" y2="34"/>
<line opacity="0.1" stroke="#000000" stroke-width="1" x1="60" y1="31" x2="589" y2="31"/>
<line opacity="0.1" stroke="#000000" stroke-width="1" x1="60" y1="27" x2="589" y2="27"/>
<line opacity="0.1" stroke="#000000" stroke-width="1" x1="60" y1="24" x2="589" y2="24"/>
<line opacity="0.1" stroke="#000000" stroke-width="1" x1="60" y1="21" x2="589" y2="21"/>
<line opacity="0.1" stroke="#000000" stroke-width="1" x1="60" y1="17" x2="589" y2="17"/>
<line opacity="0.1" stroke="#000000" stroke-width="1" x1="60" y1="14" x2="589" y2="14"/>
<line opacity="0.1" stroke="#000000" stroke-width="1" x1="60" y1="11" x2="589" y2="11"/>
<text x="10" y="175" dy="0.76em" text-anchor="middle" font-family="sans-serif" font-size="9.67741935483871" opacity="1" fill="#000000" transform="rotate(270, 10, 175)">
Fraction of dependent crates
</text>
<line opacity="0.2" stroke="#000000" stroke-width="1" x1="60" y1="312" x2="589" y2="312"/>
<line opacity="0.2" stroke="#000000" stroke-width="1" x1="60" y1="278" x2="589" y2="278"/>
<line opacity="0.2" stroke="#000000" stroke-width="1" x1="60" y1="244" x2="589" y2="244"/>
<line opacity="0.2" stroke="#000000" stroke-width="1" x1="60" y1="210" x2="589" y2="210"/>
<line opacity="0.2" stroke="#000000" stroke-width="1" x1="60" y1="176" x2="589" y2="176"/>
<line opacity="0.2" stroke="#000000" stroke-width="1" x1="60" y1="142" x2="589" y2="142"/>
<line opacity="0.2" stroke="#000000" stroke-width="1" x1="60" y1="109" x2="589" y2="109"/>
<line opacity="0.2" stroke="#000000" stroke-width="1" x1="60" y1="75" x2="589" y2="75"/>
<line opacity="0.2" stroke="#000000" stroke-width="1" x1="60" y1="41" x2="589" y2="41"/>
<polyline fill="none" opacity="1" stroke="#000000" stroke-width="1" points="59,10 59,339 "/>
<text x="50" y="312" dy="0.5ex" text-anchor="end" font-family="sans-serif" font-size="9.67741935483871" opacity="1" fill="#000000">
0.02
</text>
<polyline fill="none" opacity="1" stroke="#000000" stroke-width="1" points="54,312 59,312 "/>
<text x="50" y="278" dy="0.5ex" text-anchor="end" font-family="sans-serif" font-size="9.67741935483871" opacity="1" fill="#000000">
0.04
</text>
<polyline fill="none" opacity="1" stroke="#000000" stroke-width="1" points="54,278 59,278 "/>
<text x="50" y="244" dy="0.5ex" text-anchor="end" font-family="sans-serif" font-size="9.67741935483871" opacity="1" fill="#000000">
0.06
</text>
<polyline fill="none" opacity="1" stroke="#000000" stroke-width="1" points="54,244 59,244 "/>
<text x="50" y="210" dy="0.5ex" text-anchor="end" font-family="sans-serif" font-size="9.67741935483871" opacity="1" fill="#000000">
0.08
</text>
<polyline fill="none" opacity="1" stroke="#000000" stroke-width="1" points="54,210 59,210 "/>
<text x="50" y="176" dy="0.5ex" text-anchor="end" font-family="sans-serif" font-size="9.67741935483871" opacity="1" fill="#000000">
0.1
</text>
<polyline fill="none" opacity="1" stroke="#000000" stroke-width="1" points="54,176 59,176 "/>
<text x="50" y="142" dy="0.5ex" text-anchor="end" font-family="sans-serif" font-size="9.67741935483871" opacity="1" fill="#000000">
0.12
</text>
<polyline fill="none" opacity="1" stroke="#000000" stroke-width="1" points="54,142 59,142 "/>
<text x="50" y="109" dy="0.5ex" text-anchor="end" font-family="sans-serif" font-size="9.67741935483871" opacity="1" fill="#000000">
0.14
</text>
<polyline fill="none" opacity="1" stroke="#000000" stroke-width="1" points="54,109 59,109 "/>
<text x="50" y="75" dy="0.5ex" text-anchor="end" font-family="sans-serif" font-size="9.67741935483871" opacity="1" fill="#000000">
0.16
</text>
<polyline fill="none" opacity="1" stroke="#000000" stroke-width="1" points="54,75 59,75 "/>
<text x="50" y="41" dy="0.5ex" text-anchor="end" font-family="sans-serif" font-size="9.67741935483871" opacity="1" fill="#000000">
0.18
</text>
<polyline fill="none" opacity="1" stroke="#000000" stroke-width="1" points="54,41 59,41 "/>
<polyline fill="none" opacity="1" stroke="#000000" stroke-width="1" points="60,340 589,340 "/>
<text x="60" y="350" dy="0.76em" text-anchor="middle" font-family="sans-serif" font-size="9.67741935483871" opacity="1" fill="#000000">
2025-03-02
</text>
<polyline fill="none" opacity="1" stroke="#000000" stroke-width="1" points="60,340 60,345 "/>
<text x="192" y="350" dy="0.76em" text-anchor="middle" font-family="sans-serif" font-size="9.67741935483871" opacity="1" fill="#000000">
2025-03-09
</text>
<polyline fill="none" opacity="1" stroke="#000000" stroke-width="1" points="192,340 192,345 "/>
<text x="324" y="350" dy="0.76em" text-anchor="middle" font-family="sans-serif" font-size="9.67741935483871" opacity="1" fill="#000000">
2025-03-16
</text>
<polyline fill="none" opacity="1" stroke="#000000" stroke-width="1" points="324,340 324,345 "/>
<text x="456" y="350" dy="0.76em" text-anchor="middle" font-family="sans-serif" font-size="9.67741935483871" opacity="1" fill="#000000">
2025-03-23
</text>
<polyline fill="none" opacity="1" stroke="#000000" stroke-width="1" points="456,340 456,345 "/>
<text x="589" y="350" dy="0.76em" text-anchor="middle" font-family="sans-serif" font-size="9.67741935483871" opacity="1" fill="#000000">
2025-03-30
</text>
<polyline fill="none" opacity="1" stroke="#000000" stroke-width="1" points="589,340 589,345 "/>
<polyline fill="none" opacity="1" stroke="#E61919" stroke-width="2" points="60,339 60,339 78,339 78,339 97,339 97,339 116,339 116,339 135,339 135,339 154,339 154,339 173,339 173,339 192,339 192,339 211,339 211,339 230,339 230,339 248,339 248,339 267,339 267,339 286,339 286,339 305,339 305,339 324,339 324,339 343,339 343,339 362,339 362,339 381,339 381,339 400,339 400,339 418,339 418,339 437,339 437,339 456,339 456,339 475,339 475,339 494,339 494,339 513,339 513,339 532,339 532,336 551,336 551,336 570,336 570,336 589,336 "/>
<polyline fill="none" opacity="1" stroke="#BDE619" stroke-width="2" points="60,42 60,42 78,42 78,42 97,42 97,42 116,42 116,42 135,42 135,42 154,42 154,42 173,42 173,42 192,42 192,42 211,42 211,42 230,42 230,42 248,42 248,42 267,42 267,42 286,42 286,42 305,42 305,42 324,42 324,42 343,42 343,42 362,42 362,42 381,42 381,42 400,42 400,42 418,42 418,42 437,42 437,42 456,42 456,42 475,42 475,42 494,42 494,41 513,41 513,41 532,41 532,41 551,41 551,41 570,41 570,41 589,41 "/>
<polyline fill="none" opacity="1" stroke="#19E66B" stroke-width="2" points="60,149 60,149 78,149 78,149 97,149 97,149 116,149 116,149 135,149 135,149 154,149 154,149 173,149 173,149 192,149 192,149 211,149 211,149 230,149 230,149 248,149 248,149 267,149 267,149 286,149 286,149 305,149 305,149 324,149 324,149 343,149 343,149 362,149 362,148 381,148 381,148 400,148 400,148 418,148 418,148 437,148 437,148 456,148 456,148 475,148 475,148 494,148 494,148 513,148 513,148 532,148 532,148 551,148 551,148 570,148 570,148 589,148 "/>
<polyline fill="none" opacity="1" stroke="#196BE6" stroke-width="2" points="60,84 60,84 78,84 78,84 97,84 97,83 116,83 116,83 135,83 135,83 154,83 154,83 173,83 173,83 192,83 192,83 211,83 211,83 230,83 230,83 248,83 248,83 267,83 267,82 286,82 286,82 305,82 305,82 324,82 324,82 343,82 343,82 362,82 362,82 381,82 381,82 400,82 400,82 418,82 418,82 437,82 437,82 456,82 456,82 475,82 475,82 494,82 494,81 513,81 513,81 532,81 532,81 551,81 551,81 570,81 570,81 589,81 "/>
<polyline fill="none" opacity="1" stroke="#BD19E6" stroke-width="2" points="60,252 60,252 78,252 78,252 97,252 97,252 116,252 116,252 135,252 135,252 154,252 154,252 173,252 173,252 192,252 192,252 211,252 211,252 230,252 230,252 248,252 248,252 267,252 267,252 286,252 286,251 305,251 305,251 324,251 324,251 343,251 343,251 362,251 362,251 381,251 381,251 400,251 400,251 418,251 418,251 437,251 437,251 456,251 456,251 475,251 475,251 494,251 494,251 513,251 513,251 532,251 532,251 551,251 551,251 570,251 570,250 589,250 "/>
<rect x="65" y="130" width="101" height="89" opacity="1" fill="#FFFFFF" stroke="none"/>
<rect x="65" y="130" width="101" height="89" opacity="1" fill="none" stroke="#000000"/>
<text x="105" y="140" dy="0.76em" text-anchor="start" font-family="sans-serif" font-size="9.67741935483871" opacity="1" fill="#000000">
fastrand
</text>
<text x="105" y="155" dy="0.76em" text-anchor="start" font-family="sans-serif" font-size="9.67741935483871" opacity="1" fill="#000000">
serde_json
</text>
<text x="105" y="170" dy="0.76em" text-anchor="start" font-family="sans-serif" font-size="9.67741935483871" opacity="1" fill="#000000">
thiserror
</text>
<text x="105" y="185" dy="0.76em" text-anchor="start" font-family="sans-serif" font-size="9.67741935483871" opacity="1" fill="#000000">
tokio
</text>
<text x="105" y="200" dy="0.76em" text-anchor="start" font-family="sans-serif" font-size="9.67741935483871" opacity="1" fill="#000000">
tracing
</text>
<polyline fill="none" opacity="1" stroke="#E61919" stroke-width="2" points="75,144 95,144 "/>
<polyline fill="none" opacity="1" stroke="#BDE619" stroke-width="2" points="75,159 95,159 "/>
<polyline fill="none" opacity="1" stroke="#19E66B" stroke-width="2" points="75,174 95,174 "/>
<polyline fill="none" opacity="1" stroke="#196BE6" stroke-width="2" points="75,189 95,189 "/>
<polyline fill="none" opacity="1" stroke="#BD19E6" stroke-width="2" points="75,204 95,204 "/>
</svg>
