<svg width="600" height="400" viewBox="0 0 600 400" xmlns="http://www.w3.org/2000/svg">
<rect x="0" y="0" width="600" height="400" opacity="1" fill="#FFFFFF" stroke="none"/>
<line opacity="0.1" stroke="#000000" stroke-width="1" x1="60" y1="335" x2="589" y2="335"/>
<line opacity="0.1" stroke="#000000" stroke-width="1" x1="60" y1="328" x2="589" y2="328"/>
<line opacity="0.1" stroke="#000000" stroke-width="1" x1="60" y1="321" x2="589" y2="321"/>
<line opacity="0.1" stroke="#000000" stroke-width="1" x1="60" y1="315" x2="589" y2="315"/>
<line opacity="0.1" stroke="#000000" stroke-width="1" x1="60" y1="308" x2="589" y2="308"/>
<line opacity="0.1" stroke="#000000" stroke-width="1" x1="60" y1="301" x2="589" y2="301"/>
<line opacity="0.1" stroke="#000000" stroke-width="1" x1="60" y1="294" x2="589" y2="294"/>
<line opacity="0.1" stroke="#000000" stroke-width="1" x1="60" y1="287" x2="589" y2="287"/>
<line opacity="0.1" stroke="#000000" stroke-width="1" x1="60" y1="281" x2="589" y2="281"/>
<line opacity="0.1" stroke="#000000" stroke-width="1" x1="60" y1="274" x2="589" y2="274"/>
<line opacity="0.1" stroke="#000000" stroke-width="1" x1="60" y1="267" x2="589" y2="267"/>
<line opacity="0.1" stroke="#000000" stroke-width="1" x1="60" y1="260" x2="589" y2="260"/>
<line opacity="0.1" stroke="#000000" stroke-width="1" x1="60" y1="253" x2="589" y2="253"/>
<line opacity="0.1" stroke="#000000" stroke-width="1" x1="60" y1="247" x2="589" y2="247"/>
<line opacity="0.1" stroke="#000000" stroke-width="1" x1="60" y1="240" x2="589" y2="240"/>
<line opacity="0.1" stroke="#000000" stroke-width="1" x1="60" y1="233" x2="589" y2="233"/>
<line opacity="0.1" stroke="#000000" stroke-width="1" x1="60" y1="226" x2="589" y2="226"/>
<line opacity="0.1" stroke="#000000" stroke-width="1" x1="60" y1="219" x2="589" y2="219"/>
<line opacity="0.1" stroke="#000000" stroke-width="1" x1="60" y1="213" x2="589" y2="213"/>
<line opacity="0.1" stroke="#000000" stroke-width="1" x1="60" y1="206" x2="589" y2="206"/>
<line opacity="0.1" stroke="#000000" stroke-width="1" x1="60" y1="199" x2="589" y2="199"/>
<line opacity="0.1" stroke="#000000" stroke-width="1" x1="60" y1="192" x2="589" y2="192"/>
<line opacity="0.1" stroke="#000000" stroke-width="1" x1="60" y1="186" x2="589" y2="186"/>
<line opacity="0.1" stroke="#000000" stroke-width="1" x1="60" y1="179" x2="589" y2="179"/>
<line opacity="0.1" stroke="#000000" stroke-width="1" x1="60" y1="172" x2="589" y2="172"/>
<line opacity="0.1" stroke="#000000" stroke-width="1" x1="60" y1="165" x2="589" y2="165"/>
<line opacity="0.1" stroke="#000000" stroke-width="1" x1="60" y1="158" x2="589" y2="158"/>
<line opacity="0.1" stroke="#000000" stroke-width="1" x1="60" y1="152" x2="589" y2="152"/>
<line opacity="0.1" stroke="#000000" stroke-width="1" x1="60" y1="145" x2="589" y2="145"/>
<line opacity="0.1" stroke="#000000" stroke-width="1" x1="60" y1="138" x2="589" y2="138"/>
<line opacity="0.1" stroke="#000000" stroke-width="1" x1="60" y1="131" x2="589" y2="131"/>
<line opacity="0.1" stroke="#000000" stroke-width="1" x1="60" y1="124" x2="589" y2="124"/>
<line opacity="0.1" stroke="#000000" stroke-width="1" x1="60" y1="118" x2="589" y2="118"/>
<line opacity="0.1" stroke="#000000" stroke-width="1" x1="60" y1="111" x2="589" y2="111"/>
<line opacity="0.1" stroke="#000000" stroke-width="1" x1="60" y1="104" x2="589" y2="104"/>
<line opacity="0.1" stroke="#000000" stroke-width="1" x1="60" y1="97" x2="589" y2="97"/>
<line opacity="0.1" stroke="#000000" stroke-width="1" x1="60" y1="90" x2="589" y2="90"/>
<line opacity="0.1" stroke="#000000" stroke-width="1" x1="60" y1="84" x2="589" y2="84"/>
<line opacity="0.1" stroke="#000000" stroke-width="1" x1="60" y1="77" x2="589" y2="77"/>
<line opacity="0.1" stroke="#000000" stroke-width="1" x1="60" y1="70" x2="589" y2="70"/>
<line opacity="0.1" stroke="#000000" stroke-width="1" x1="60" y1="63" x2="589" y2="63"/>
<line opacity="0.1" stroke="#000000" stroke-width="1" x1="60" y1="56" x2="589" y2="56"/>
<line opacity="0.1" stroke="#000000" stroke-width="1" x1="60" y1="50" x2="589" y2="50"/>
<line opacity="0.1" stroke="#000000" stroke-width="1" x1="60" y1="43" x2="589" y2="43"/>
<line opacity="0.1" stroke="#000000" stroke-width="1" x1="60" y1="36" x2="589" y2="36"/>
<line opacity="0.1" stroke="#000000" stroke-width="1" x1="60" y1="29" x2="589" y2="29"/>
<line opacity="0.1" stroke="#000000" stroke-width="1" x1="60" y1="22" x2="589" y2="22"/>
<line opacity="0.1" stroke="#000000" stroke-width="1" x1="60" y1="16" x2="589" y2="16"/>
<text x="10" y="175" dy="0.76em" text-anchor="middle" font-family="sans-serif" font-size="9.67741935483871" opacity="1" fill="#000000" transform="rotate(270, 10, 175)">
Fraction of dependent crates
</text>
<line opacity="0.2" stroke="#000000" stroke-width="1" x1="60" y1="315" x2="589" y2="315"/>
<line opacity="0.2" stroke="#000000" stroke-width="1" x1="60" y1="247" x2="589" y2="247"/>
<line opacity="0.2" stroke="#000000" stroke-width="1" x1="60" y1="179" x2="589" y2="179"/>
<line opacity="0.2" stroke="#000000" stroke-width="1" x1="60" y1="111" x2="589" y2="111"/>
<line opacity="0.2" stroke="#000000" stroke-width="1" x1="60" y1="43" x2="589" y2="43"/>
<polyline fill="none" opacity="1" stroke="#000000" stroke-width="1" points="59,10 59,339 "/>
<text x="50" y="315" dy="0.5ex" text-anchor="end" font-family="sans-serif" font-size="9.67741935483871" opacity="1" fill="#000000">
0.05
</text>
<polyline fill="none" opacity="1" stroke="#000000" stroke-width="1" points="54,315 59,315 "/>
<text x="50" y="247" dy="0.5ex" text-anchor="end" font-family="sans-serif" font-size="9.67741935483871" opacity="1" fill="#000000">
0.1
</text>
<polyline fill="none" opacity="1" stroke="#000000" stroke-width="1" points="54,247 59,247 "/>
<text x="50" y="179" dy="0.5ex" text-anchor="end" font-family="sans-serif" font-size="9.67741935483871" opacity="1" fill="#000000">
0.15
</text>
<polyline fill="none" opacity="1" stroke="#000000" stroke-width="1" points="54,179 59,179 "/>
<text x="50" y="111" dy="0.5ex" text-anchor="end" font-family="sans-serif" font-size="9.67741935483871" opacity="1" fill="#000000">
0.2
</text>
<polyline fill="none" opacity="1" stroke="#000000" stroke-width="1" points="54,111 59,111 "/>
<text x="50" y="43" dy="0.5ex" text-anchor="end" font-family="sans-serif" font-size="9.67741935483871" opacity="1" fill="#000000">
0.25
</text>
<polyline fill="none" opacity="1" stroke="#000000" stroke-width="1" points="54,43 59,43 "/>
<polyline fill="none" opacity="1" stroke="#000000" stroke-width="1" points="60,340 589,340 "/>
<text x="60" y="350" dy="0.76em" text-anchor="middle" font-family="sans-serif" font-size="9.67741935483871" opacity="1" fill="#000000">
2025-05-04
</text>
<polyline fill="none" opacity="1" stroke="#000000" stroke-width="1" points="60,340 60,345 "/>
<text x="192" y="350" dy="0.76em" text-anchor="middle" font-family="sans-serif" font-size="9.67741935483871" opacity="1" fill="#000000">
2025-05-11
</text>
<polyline fill="none" opacity="1" stroke="#000000" stroke-width="1" points="192,340 192,345 "/>
<text x="324" y="350" dy="0.76em" text-anchor="middle" font-family="sans-serif" font-size="9.67741935483871" opacity="1" fill="#000000">
2025-05-18
</text>
<polyline fill="none" opacity="1" stroke="#000000" stroke-width="1" points="324,340 324,345 "/>
<text x="456" y="350" dy="0.76em" text-anchor="middle" font-family="sans-serif" font-size="9.67741935483871" opacity="1" fill="#000000">
2025-05-25
</text>
<polyline fill="none" opacity="1" stroke="#000000" stroke-width="1" points="456,340 456,345 "/>
<text x="589" y="350" dy="0.76em" text-anchor="middle" font-family="sans-serif" font-size="9.67741935483871" opacity="1" fill="#000000">
2025-06-01
</text>
<polyline fill="none" opacity="1" stroke="#000000" stroke-width="1" points="589,340 589,345 "/>
<polyline fill="none" opacity="1" stroke="#E61919" stroke-width="2" points="60,46 60,46 78,46 78,46 97,46 97,46 116,46 116,45 135,45 135,45 154,45 154,45 173,45 173,45 192,45 192,45 211,45 211,45 230,45 230,45 248,45 248,45 267,45 267,45 286,45 286,45 305,45 305,45 324,45 324,45 343,45 343,45 362,45 362,45 381,45 381,45 400,45 400,45 418,45 418,45 437,45 437,45 456,45 456,44 475,44 475,44 494,44 494,44 513,44 513,44 532,44 532,44 551,44 551,44 570,44 570,44 589,44 "/>
<polyline fill="none" opacity="1" stroke="#BDE619" stroke-width="2" points="60,134 60,134 78,134 78,134 97,134 97,133 116,133 116,133 135,133 135,133 154,133 154,133 173,133 173,133 192,133 192,133 211,133 211,133 230,133 230,133 248,133 248,133 267,133 267,133 286,133 286,133 305,133 305,133 324,133 324,133 343,133 343,133 362,133 362,133 381,133 381,133 400,133 400,133 418,133 418,133 437,133 437,133 456,133 456,132 475,132 475,132 494,132 494,132 513,132 513,132 532,132 532,132 551,132 551,132 570,132 570,132 589,132 "/>
<polyline fill="none" opacity="1" stroke="#19E66B" stroke-width="2" points="60,335 60,335 78,335 78,335 97,335 97,335 116,335 116,335 135,335 135,335 154,335 154,334 173,334 173,334 192,334 192,334 211,334 211,334 230,334 230,334 248,334 248,334 267,334 267,334 286,334 286,334 305,334 305,334 324,334 324,334 343,334 343,334 362,334 362,334 381,334 381,334 400,334 400,334 418,334 418,334 437,334 437,334 456,334 456,334 475,334 475,334 494,334 494,334 513,334 513,334 532,334 532,334 551,334 551,334 570,334 570,334 589,334 "/>
<polyline fill="none" opacity="1" stroke="#196BE6" stroke-width="2" points="60,222 60,222 78,222 78,222 97,222 97,222 116,222 116,222 135,222 135,222 154,222 154,221 173,221 173,221 192,221 192,221 211,221 211,221 230,221 230,221 248,221 248,221 267,221 267,221 286,221 286,221 305,221 305,221 324,221 324,221 343,221 343,221 362,221 362,221 381,221 381,220 400,220 400,220 418,220 418,220 437,220 437,220 456,220 456,220 475,220 475,220 494,220 494,220 513,220 513,220 532,220 532,220 551,220 551,220 570,220 570,220 589,220 "/>
<polyline fill="none" opacity="1" stroke="#BD19E6" stroke-width="2" points="60,169 60,169 78,169 78,169 97,169 97,169 116,169 116,169 135,169 135,169 154,169 154,169 173,169 173,169 192,169 192,169 211,169 211,168 230,168 230,168 248,168 248,168 267,168 267,168 286,168 286,168 305,168 305,168 324,168 324,168 343,168 343,168 362,168 362,168 381,168 381,168 400,168 400,168 418,168 418,168 437,168 437,168 456,168 456,167 475,167 475,167 494,167 494,167 513,167 513,167 532,167 532,167 551,167 551,167 570,167 570,167 589,167 "/>
<rect x="65" y="130" width="101" height="89" opacity="1" fill="#FFFFFF" stroke="none"/>
<rect x="65" y="130" width="101" height="89" opacity="1" fill="none" stroke="#000000"/>
<text x="105" y="140" dy="0.76em" text-anchor="start" font-family="sans-serif" font-size="9.67741935483871" opacity="1" fill="#000000">
serde
</text>
<text x="105" y="155" dy="0.76em" text-anchor="start" font-family="sans-serif" font-size="9.67741935483871" opacity="1" fill="#000000">
serde_json
</text>
<text x="105" y="170" dy="0.76em" text-anchor="start" font-family="sans-serif" font-size="9.67741935483871" opacity="1" fill="#000000">
tempfile
</text>
<text x="105" y="185" dy="0.76em" text-anchor="start" font-family="sans-serif" font-size="9.67741935483871" opacity="1" fill="#000000">
thiserror
</text>
<text x="105" y="200" dy="0.76em" text-anchor="start" font-family="sans-serif" font-size="9.67741935483871" opacity="1" fill="#000000">
tokio
</text>
<polyline fill="none" opacity="1" stroke="#E61919" stroke-width="2" points="75,144 95,144 "/>
<polyline fill="none" opacity="1" stroke="#BDE619" stroke-width="2" points="75,159 95,159 "/>
<polyline fill="none" opacity="1" stroke="#19E66B" stroke-width="2" points="75,174 95,174 "/>
<polyline fill="none" opacity="1" stroke="#196BE6" stroke-width="2" points="75,189 95,189 "/>
<polyline fill="none" opacity="1" stroke="#BD19E6" stroke-width="2" points="75,204 95,204 "/>
</svg>
