<svg width="600" height="400" viewBox="0 0 600 400" xmlns="http://www.w3.org/2000/svg">
<rect x="0" y="0" width="600" height="400" opacity="1" fill="#FFFFFF" stroke="none"/>
<line opacity="0.1" stroke="#000000" stroke-width="1" x1="60" y1="335" x2="589" y2="335"/>
<line opacity="0.1" stroke="#000000" stroke-width="1" x1="60" y1="328" x2="589" y2="328"/>
<line opacity="0.1" stroke="#000000" stroke-width="1" x1="60" y1="321" x2="589" y2="321"/>
<line opacity="0.1" stroke="#000000" stroke-width="1" x1="60" y1="315" x2="589" y2="315"/>
<line opacity="0.1" stroke="#000000" stroke-width="1" x1="60" y1="308" x2="589" y2="308"/>
<line opacity="0.1" stroke="#000000" stroke-width="1" x1="60" y1="301" x2="589" y2="301"/>
<line opacity="0.1" stroke="#000000" stroke-width="1" x1="60" y1="294" x2="589" y2="294"/>
<line opacity="0.1" stroke="#000000" stroke-width="1" x1="60" y1="288" x2="589" y2="288"/>
<line opacity="0.1" stroke="#000000" stroke-width="1" x1="60" y1="281" x2="589" y2="281"/>
<line opacity="0.1" stroke="#000000" stroke-width="1" x1="60" y1="274" x2="589" y2="274"/>
<line opacity="0.1" stroke="#000000" stroke-width="1" x1="60" y1="267" x2="589" y2="267"/>
<line opacity="0.1" stroke="#000000" stroke-width="1" x1="60" y1="260" x2="589" y2="260"/>
<line opacity="0.1" stroke="#000000" stroke-width="1" x1="60" y1="254" x2="589" y2="254"/>
<line opacity="0.1" stroke="#000000" stroke-width="1" x1="60" y1="247" x2="589" y2="247"/>
<line opacity="0.1" stroke="#000000" stroke-width="1" x1="60" y1="240" x2="589" y2="240"/>
<line opacity="0.1" stroke="#000000" stroke-width="1" x1="60" y1="233" x2="589" y2="233"/>
<line opacity="0.1" stroke="#000000" stroke-width="1" x1="60" y1="226" x2="589" y2="226"/>
<line opacity="0.1" stroke="#000000" stroke-width="1" x1="60" y1="220" x2="589" y2="220"/>
<line opacity="0.1" stroke="#000000" stroke-width="1" x1="60" y1="213" x2="589" y2="213"/>
<line opacity="0.1" stroke="#000000" stroke-width="1" x1="60" y1="206" x2="589" y2="206"/>
<line opacity="0.1" stroke="#000000" stroke-width="1" x1="60" y1="199" x2="589" y2="199"/>
<line opacity="0.1" stroke="#000000" stroke-width="1" x1="60" y1="192" x2="589" y2="192"/>
<line opacity="0.1" stroke="#000000" stroke-width="1" x1="60" y1="186" x2="589" y2="186"/>
<line opacity="0.1" stroke="#000000" stroke-width="1" x1="60" y1="179" x2="589" y2="179"/>
<line opacity="0.1" stroke="#000000" stroke-width="1" x1="60" y1="172" x2="589" y2="172"/>
<line opacity="0.1" stroke="#000000" stroke-width="1" x1="60" y1="165" x2="589" y2="165"/>
<line opacity="0.1" stroke="#000000" stroke-width="1" x1="60" y1="159" x2="589" y2="159"/>
<line opacity="0.1" stroke="#000000" stroke-width="1" x1="60" y1="152" x2="589" y2="152"/>
<line opacity="0.1" stroke="#000000" stroke-width="1" x1="60" y1="145" x2="589" y2="145"/>
<line opacity="0.1" stroke="#000000" stroke-width="1" x1="60" y1="138" x2="589" y2="138"/>
<line opacity="0.1" stroke="#000000" stroke-width="1" x1="60" y1="131" x2="589" y2="131"/>
<line opacity="0.1" stroke="#000000" stroke-width="1" x1="60" y1="125" x2="589" y2="125"/>
<line opacity="0.1" stroke="#000000" stroke-width="1" x1="60" y1="118" x2="589" y2="118"/>
<line opacity="0.1" stroke="#000000" stroke-width="1" x1="60" y1="111" x2="589" y2="111"/>
<line opacity="0.1" stroke="#000000" stroke-width="1" x1="60" y1="104" x2="589" y2="104"/>
<line opacity="0.1" stroke="#000000" stroke-width="1" x1="60" y1="97" x2="589" y2="97"/>
<line opacity="0.1" stroke="#000000" stroke-width="1" x1="60" y1="91" x2="589" y2="91"/>
<line opacity="0.1" stroke="#000000" stroke-width="1" x1="60" y1="84" x2="589" y2="84"/>
<line opacity="0.1" stroke="#000000" stroke-width="1" x1="60" y1="77" x2="589" y2="77"/>
<line opacity="0.1" stroke="#000000" stroke-width="1" x1="60" y1="70" x2="589" y2="70"/>
<line opacity="0.1" stroke="#000000" stroke-width="1" x1="60" y1="64" x2="589" y2="64"/>
<line opacity="0.1" stroke="#000000" stroke-width="1" x1="60" y1="57" x2="589" y2="57"/>
<line opacity="0.1" stroke="#000000" stroke-width="1" x1="60" y1="50" x2="589" y2="50"/>
<line opacity="0.1" stroke="#000000" stroke-width="1" x1="60" y1="43" x2="589" y2="43"/>
<line opacity="0.1" stroke="#000000" stroke-width="1" x1="60" y1="36" x2="589" y2="36"/>
<line opacity="0.1" stroke="#000000" stroke-width="1" x1="60" y1="30" x2="589" y2="30"/>
<line opacity="0.1" stroke="#000000" stroke-width="1" x1="60" y1="23" x2="589" y2="23"/>
<line opacity="0.1" stroke="#000000" stroke-width="1" x1="60" y1="16" x2="589" y2="16"/>
<text x="10" y="175" dy="0.76em" text-anchor="middle" font-family="sans-serif" font-size="9.67741935483871" opacity="1" fill="#000000" transform="rotate(270, 10, 175)">
Fraction of dependent crates
</text>
<line opacity="0.2" stroke="#000000" stroke-width="1" x1="60" y1="301" x2="589" y2="301"/>
<line opacity="0.2" stroke="#000000" stroke-width="1" x1="60" y1="233" x2="589" y2="233"/>
<line opacity="0.2" stroke="#000000" stroke-width="1" x1="60" y1="165" x2="589" y2="165"/>
<line opacity="0.2" stroke="#000000" stroke-width="1" x1="60" y1="97" x2="589" y2="97"/>
<line opacity="0.2" stroke="#000000" stroke-width="1" x1="60" y1="30" x2="589" y2="30"/>
<polyline fill="none" opacity="1" stroke="#000000" stroke-width="1" points="59,10 59,339 "/>
<text x="50" y="301" dy="0.5ex" text-anchor="end" font-family="sans-serif" font-size="9.67741935483871" opacity="1" fill="#000000">
0.1
</text>
<polyline fill="none" opacity="1" stroke="#000000" stroke-width="1" points="54,301 59,301 "/>
<text x="50" y="233" dy="0.5ex" text-anchor="end" font-family="sans-serif" font-size="9.67741935483871" opacity="1" fill="#000000">
0.15
</text>
<polyline fill="none" opacity="1" stroke="#000000" stroke-width="1" points="54,233 59,233 "/>
<text x="50" y="165" dy="0.5ex" text-anchor="end" font-family="sans-serif" font-size="9.67741935483871" opacity="1" fill="#000000">
0.2
</text>
<polyline fill="none" opacity="1" stroke="#000000" stroke-width="1" points="54,165 59,165 "/>
<text x="50" y="97" dy="0.5ex" text-anchor="end" font-family="sans-serif" font-size="9.67741935483871" opacity="1" fill="#000000">
0.25
</text>
<polyline fill="none" opacity="1" stroke="#000000" stroke-width="1" points="54,97 59,97 "/>
<text x="50" y="30" dy="0.5ex" text-anchor="end" font-family="sans-serif" font-size="9.67741935483871" opacity="1" fill="#000000">
0.3
</text>
<polyline fill="none" opacity="1" stroke="#000000" stroke-width="1" points="54,30 59,30 "/>
<polyline fill="none" opacity="1" stroke="#000000" stroke-width="1" points="60,340 589,340 "/>
<text x="60" y="350" dy="0.76em" text-anchor="middle" font-family="sans-serif" font-size="9.67741935483871" opacity="1" fill="#000000">
2026-01-27
</text>
<polyline fill="none" opacity="1" stroke="#000000" stroke-width="1" points="60,340 60,345 "/>
<text x="202" y="350" dy="0.76em" text-anchor="middle" font-family="sans-serif" font-size="9.67741935483871" opacity="1" fill="#000000">
2026-02-03
</text>
<polyline fill="none" opacity="1" stroke="#000000" stroke-width="1" points="202,340 202,345 "/>
<text x="344" y="350" dy="0.76em" text-anchor="middle" font-family="sans-serif" font-size="9.67741935483871" opacity="1" fill="#000000">
2026-02-10
</text>
<polyline fill="none" opacity="1" stroke="#000000" stroke-width="1" points="344,340 344,345 "/>
<text x="487" y="350" dy="0.76em" text-anchor="middle" font-family="sans-serif" font-size="9.67741935483871" opacity="1" fill="#000000">
2026-02-17
</text>
<polyline fill="none" opacity="1" stroke="#000000" stroke-width="1" points="487,340 487,345 "/>
<polyline fill="none" opacity="1" stroke="#E61919" stroke-width="2" points="60,59 80,59 80,59 100,59 100,59 121,59 121,58 141,58 141,58 161,58 161,57 182,57 182,57 202,57 202,57 222,57 222,56 243,56 243,56 263,56 263,56 283,56 283,55 304,55 304,55 324,55 324,54 344,54 344,54 365,54 365,53 385,53 385,54 405,54 405,53 426,53 426,53 446,53 446,51 466,51 487,51 507,51 507,51 527,51 527,50 548,50 548,49 568,49 589,49 "/>
<polyline fill="none" opacity="1" stroke="#BDE619" stroke-width="2" points="60,145 80,145 80,145 100,145 100,145 121,145 121,144 141,144 141,144 161,144 161,143 182,143 182,143 202,143 202,143 222,143 222,142 243,142 243,142 263,142 263,141 283,141 283,141 304,141 304,140 324,140 324,140 344,140 344,139 365,139 365,139 385,139 385,138 405,138 405,138 426,138 426,138 446,138 446,136 466,136 487,136 507,136 507,135 527,135 527,134 548,134 548,133 568,133 589,133 "/>
<polyline fill="none" opacity="1" stroke="#19E66B" stroke-width="2" points="60,231 80,231 80,230 100,230 100,230 121,230 121,230 141,230 141,230 161,230 161,229 182,229 182,229 202,229 202,228 222,228 222,228 243,228 243,228 263,228 263,227 283,227 283,227 304,227 304,226 324,226 324,226 344,226 344,226 365,226 365,225 385,225 385,225 405,225 405,225 426,225 426,225 446,225 446,223 466,223 487,223 507,223 507,223 527,223 527,223 548,223 548,222 568,222 589,222 "/>
<polyline fill="none" opacity="1" stroke="#196BE6" stroke-width="2" points="60,181 80,181 80,180 100,180 100,180 121,180 121,180 141,180 141,179 161,179 161,179 182,179 182,178 202,178 202,178 222,178 222,178 243,178 243,178 263,178 263,177 283,177 283,177 304,177 304,177 324,177 324,176 344,176 344,176 365,176 365,176 385,176 385,175 405,175 405,175 426,175 426,174 446,174 446,173 466,173 487,173 507,173 507,172 527,172 527,172 548,172 548,171 568,171 589,171 "/>
<polyline fill="none" opacity="1" stroke="#BD19E6" stroke-width="2" points="60,329 80,329 80,329 100,329 100,328 121,328 121,328 141,328 141,328 161,328 161,328 182,328 182,328 202,328 202,327 222,327 222,327 243,327 243,327 263,327 263,327 283,327 283,326 304,326 304,326 324,326 324,326 344,326 344,326 365,326 365,325 385,325 385,325 405,325 405,325 426,325 426,325 446,325 446,324 466,324 487,324 507,324 507,323 527,323 527,323 548,323 548,322 568,322 589,322 "/>
<rect x="65" y="130" width="101" height="89" opacity="1" fill="#FFFFFF" stroke="none"/>
<rect x="65" y="130" width="101" height="89" opacity="1" fill="none" stroke="#000000"/>
<text x="105" y="140" dy="0.76em" text-anchor="start" font-family="sans-serif" font-size="9.67741935483871" opacity="1" fill="#000000">
serde
</text>
<text x="105" y="155" dy="0.76em" text-anchor="start" font-family="sans-serif" font-size="9.67741935483871" opacity="1" fill="#000000">
serde_json
</text>
<text x="105" y="170" dy="0.76em" text-anchor="start" font-family="sans-serif" font-size="9.67741935483871" opacity="1" fill="#000000">
thiserror
</text>
<text x="105" y="185" dy="0.76em" text-anchor="start" font-family="sans-serif" font-size="9.67741935483871" opacity="1" fill="#000000">
tokio
</text>
<text x="105" y="200" dy="0.76em" text-anchor="start" font-family="sans-serif" font-size="9.67741935483871" opacity="1" fill="#000000">
tracing
</text>
<polyline fill="none" opacity="1" stroke="#E61919" stroke-width="2" points="75,144 95,144 "/>
<polyline fill="none" opacity="1" stroke="#BDE619" stroke-width="2" points="75,159 95,159 "/>
<polyline fill="none" opacity="1" stroke="#19E66B" stroke-width="2" points="75,174 95,174 "/>
<polyline fill="none" opacity="1" stroke="#196BE6" stroke-width="2" points="75,189 95,189 "/>
<polyline fill="none" opacity="1" stroke="#BD19E6" stroke-width="2" points="75,204 95,204 "/>
</svg>
