<svg width="600" height="400" viewBox="0 0 600 400" xmlns="http://www.w3.org/2000/svg">
<rect x="0" y="0" width="600" height="400" opacity="1" fill="#FFFFFF" stroke="none"/>
<line opacity="0.1" stroke="#000000" stroke-width="1" x1="60" y1="335" x2="589" y2="335"/>
<line opacity="0.1" stroke="#000000" stroke-width="1" x1="60" y1="328" x2="589" y2="328"/>
<line opacity="0.1" stroke="#000000" stroke-width="1" x1="60" y1="321" x2="589" y2="321"/>
<line opacity="0.1" stroke="#000000" stroke-width="1" x1="60" y1="314" x2="589" y2="314"/>
<line opacity="0.1" stroke="#000000" stroke-width="1" x1="60" y1="308" x2="589" y2="308"/>
<line opacity="0.1" stroke="#000000" stroke-width="1" x1="60" y1="301" x2="589" y2="301"/>
<line opacity="0.1" stroke="#000000" stroke-width="1" x1="60" y1="294" x2="589" y2="294"/>
<line opacity="0.1" stroke="#000000" stroke-width="1" x1="60" y1="287" x2="589" y2="287"/>
<line opacity="0.1" stroke="#000000" stroke-width="1" x1="60" y1="280" x2="589" y2="280"/>
<line opacity="0.1" stroke="#000000" stroke-width="1" x1="60" y1="273" x2="589" y2="273"/>
<line opacity="0.1" stroke="#000000" stroke-width="1" x1="60" y1="266" x2="589" y2="266"/>
<line opacity="0.1" stroke="#000000" stroke-width="1" x1="60" y1="259" x2="589" y2="259"/>
<line opacity="0.1" stroke="#000000" stroke-width="1" x1="60" y1="253" x2="589" y2="253"/>
<line opacity="0.1" stroke="#000000" stroke-width="1" x1="60" y1="246" x2="589" y2="246"/>
<line opacity="0.1" stroke="#000000" stroke-width="1" x1="60" y1="239" x2="589" y2="239"/>
<line opacity="0.1" stroke="#000000" stroke-width="1" x1="60" y1="232" x2="589" y2="232"/>
<line opacity="0.1" stroke="#000000" stroke-width="1" x1="60" y1="225" x2="589" y2="225"/>
<line opacity="0.1" stroke="#000000" stroke-width="1" x1="60" y1="218" x2="589" y2="218"/>
<line opacity="0.1" stroke="#000000" stroke-width="1" x1="60" y1="211" x2="589" y2="211"/>
<line opacity="0.1" stroke="#000000" stroke-width="1" x1="60" y1="204" x2="589" y2="204"/>
<line opacity="0.1" stroke="#000000" stroke-width="1" x1="60" y1="198" x2="589" y2="198"/>
<line opacity="0.1" stroke="#000000" stroke-width="1" x1="60" y1="191" x2="589" y2="191"/>
<line opacity="0.1" stroke="#000000" stroke-width="1" x1="60" y1="184" x2="589" y2="184"/>
<line opacity="0.1" stroke="#000000" stroke-width="1" x1="60" y1="177" x2="589" y2="177"/>
<line opacity="0.1" stroke="#000000" stroke-width="1" x1="60" y1="170" x2="589" y2="170"/>
<line opacity="0.1" stroke="#000000" stroke-width="1" x1="60" y1="163" x2="589" y2="163"/>
<line opacity="0.1" stroke="#000000" stroke-width="1" x1="60" y1="156" x2="589" y2="156"/>
<line opacity="0.1" stroke="#000000" stroke-width="1" x1="60" y1="150" x2="589" y2="150"/>
<line opacity="0.1" stroke="#000000" stroke-width="1" x1="60" y1="143" x2="589" y2="143"/>
<line opacity="0.1" stroke="#000000" stroke-width="1" x1="60" y1="136" x2="589" y2="136"/>
<line opacity="0.1" stroke="#000000" stroke-width="1" x1="60" y1="129" x2="589" y2="129"/>
<line opacity="0.1" stroke="#000000" stroke-width="1" x1="60" y1="122" x2="589" y2="122"/>
<line opacity="0.1" stroke="#000000" stroke-width="1" x1="60" y1="115" x2="589" y2="115"/>
<line opacity="0.1" stroke="#000000" stroke-width="1" x1="60" y1="108" x2="589" y2="108"/>
<line opacity="0.1" stroke="#000000" stroke-width="1" x1="60" y1="101" x2="589" y2="101"/>
<line opacity="0.1" stroke="#000000" stroke-width="1" x1="60" y1="95" x2="589" y2="95"/>
<line opacity="0.1" stroke="#000000" stroke-width="1" x1="60" y1="88" x2="589" y2="88"/>
<line opacity="0.1" stroke="#000000" stroke-width="1" x1="60" y1="81" x2="589" y2="81"/>
<line opacity="0.1" stroke="#000000" stroke-width="1" x1="60" y1="74" x2="589" y2="74"/>
<line opacity="0.1" stroke="#000000" stroke-width="1" x1="60" y1="67" x2="589" y2="67"/>
<line opacity="0.1" stroke="#000000" stroke-width="1" x1="60" y1="60" x2="589" y2="60"/>
<line opacity="0.1" stroke="#000000" stroke-width="1" x1="60" y1="53" x2="589" y2="53"/>
<line opacity="0.1" stroke="#000000" stroke-width="1" x1="60" y1="46" x2="589" y2="46"/>
<line opacity="0.1" stroke="#000000" stroke-width="1" x1="60" y1="40" x2="589" y2="40"/>
<line opacity="0.1" stroke="#000000" stroke-width="1" x1="60" y1="33" x2="589" y2="33"/>
<line opacity="0.1" stroke="#000000" stroke-width="1" x1="60" y1="26" x2="589" y2="26"/>
<line opacity="0.1" stroke="#000000" stroke-width="1" x1="60" y1="19" x2="589" y2="19"/>
<line opacity="0.1" stroke="#000000" stroke-width="1" x1="60" y1="12" x2="589" y2="12"/>
<text x="10" y="175" dy="0.76em" text-anchor="middle" font-family="sans-serif" font-size="9.67741935483871" opacity="1" fill="#000000" transform="rotate(270, 10, 175)">
Fraction of dependent crates
</text>
<line opacity="0.2" stroke="#000000" stroke-width="1" x1="60" y1="301" x2="589" y2="301"/>
<line opacity="0.2" stroke="#000000" stroke-width="1" x1="60" y1="232" x2="589" y2="232"/>
<line opacity="0.2" stroke="#000000" stroke-width="1" x1="60" y1="163" x2="589" y2="163"/>
<line opacity="0.2" stroke="#000000" stroke-width="1" x1="60" y1="95" x2="589" y2="95"/>
<line opacity="0.2" stroke="#000000" stroke-width="1" x1="60" y1="26" x2="589" y2="26"/>
<polyline fill="none" opacity="1" stroke="#000000" stroke-width="1" points="59,10 59,339 "/>
<text x="50" y="301" dy="0.5ex" text-anchor="end" font-family="sans-serif" font-size="9.67741935483871" opacity="1" fill="#000000">
0.1
</text>
<polyline fill="none" opacity="1" stroke="#000000" stroke-width="1" points="54,301 59,301 "/>
<text x="50" y="232" dy="0.5ex" text-anchor="end" font-family="sans-serif" font-size="9.67741935483871" opacity="1" fill="#000000">
0.15
</text>
<polyline fill="none" opacity="1" stroke="#000000" stroke-width="1" points="54,232 59,232 "/>
<text x="50" y="163" dy="0.5ex" text-anchor="end" font-family="sans-serif" font-size="9.67741935483871" opacity="1" fill="#000000">
0.2
</text>
<polyline fill="none" opacity="1" stroke="#000000" stroke-width="1" points="54,163 59,163 "/>
<text x="50" y="95" dy="0.5ex" text-anchor="end" font-family="sans-serif" font-size="9.67741935483871" opacity="1" fill="#000000">
0.25
</text>
<polyline fill="none" opacity="1" stroke="#000000" stroke-width="1" points="54,95 59,95 "/>
<text x="50" y="26" dy="0.5ex" text-anchor="end" font-family="sans-serif" font-size="9.67741935483871" opacity="1" fill="#000000">
0.3
</text>
<polyline fill="none" opacity="1" stroke="#000000" stroke-width="1" points="54,26 59,26 "/>
<polyline fill="none" opacity="1" stroke="#000000" stroke-width="1" points="60,340 589,340 "/>
<text x="60" y="350" dy="0.76em" text-anchor="middle" font-family="sans-serif" font-size="9.67741935483871" opacity="1" fill="#000000">
2026-01-27
</text>
<polyline fill="none" opacity="1" stroke="#000000" stroke-width="1" points="60,340 60,345 "/>
<text x="254" y="350" dy="0.76em" text-anchor="middle" font-family="sans-serif" font-size="9.67741935483871" opacity="1" fill="#000000">
2026-02-03
</text>
<polyline fill="none" opacity="1" stroke="#000000" stroke-width="1" points="254,340 254,345 "/>
<text x="449" y="350" dy="0.76em" text-anchor="middle" font-family="sans-serif" font-size="9.67741935483871" opacity="1" fill="#000000">
2026-02-10
</text>
<polyline fill="none" opacity="1" stroke="#000000" stroke-width="1" points="449,340 449,345 "/>
<polyline fill="none" opacity="1" stroke="#E61919" stroke-width="2" points="60,56 87,56 87,55 115,55 115,55 143,55 143,55 171,55 171,54 199,54 199,54 227,54 227,54 254,54 254,53 282,53 282,53 310,53 310,52 338,52 338,52 366,52 366,52 394,52 394,51 421,51 421,51 449,51 449,50 477,50 477,50 505,50 505,50 533,50 533,50 561,50 561,49 589,49 "/>
<polyline fill="none" opacity="1" stroke="#BDE619" stroke-width="2" points="60,143 87,143 87,143 115,143 115,142 143,142 143,142 171,142 171,141 199,141 199,141 227,141 227,141 254,141 254,140 282,140 282,140 310,140 310,139 338,139 338,139 366,139 366,138 394,138 394,138 421,138 421,138 449,138 449,137 477,137 477,136 505,136 505,136 533,136 533,136 561,136 561,135 589,135 "/>
<polyline fill="none" opacity="1" stroke="#19E66B" stroke-width="2" points="60,229 87,229 87,229 115,229 115,229 143,229 143,229 171,229 171,228 199,228 199,228 227,228 227,227 254,227 254,227 282,227 282,227 310,227 310,226 338,226 338,226 366,226 366,225 394,225 394,225 421,225 421,225 449,225 449,224 477,224 477,224 505,224 505,224 533,224 533,223 561,223 561,223 589,223 "/>
<polyline fill="none" opacity="1" stroke="#196BE6" stroke-width="2" points="60,179 87,179 87,178 115,178 115,178 143,178 143,178 171,178 171,177 199,177 199,177 227,177 227,177 254,177 254,176 282,176 282,176 310,176 310,176 338,176 338,175 366,175 366,175 394,175 394,175 421,175 421,174 449,174 449,174 477,174 477,174 505,174 505,173 533,173 533,173 561,173 561,172 589,172 "/>
<polyline fill="none" opacity="1" stroke="#BD19E6" stroke-width="2" points="60,329 87,329 87,328 115,328 115,328 143,328 143,328 171,328 171,328 199,328 199,328 227,328 227,327 254,327 254,327 282,327 282,327 310,327 310,327 338,327 338,326 366,326 366,326 394,326 394,326 421,326 421,326 449,326 449,325 477,325 477,325 505,325 505,325 533,325 533,325 561,325 561,324 589,324 "/>
<rect x="65" y="130" width="101" height="89" opacity="1" fill="#FFFFFF" stroke="none"/>
<rect x="65" y="130" width="101" height="89" opacity="1" fill="none" stroke="#000000"/>
<text x="105" y="140" dy="0.76em" text-anchor="start" font-family="sans-serif" font-size="9.67741935483871" opacity="1" fill="#000000">
serde
</text>
<text x="105" y="155" dy="0.76em" text-anchor="start" font-family="sans-serif" font-size="9.67741935483871" opacity="1" fill="#000000">
serde_json
</text>
<text x="105" y="170" dy="0.76em" text-anchor="start" font-family="sans-serif" font-size="9.67741935483871" opacity="1" fill="#000000">
thiserror
</text>
<text x="105" y="185" dy="0.76em" text-anchor="start" font-family="sans-serif" font-size="9.67741935483871" opacity="1" fill="#000000">
tokio
</text>
<text x="105" y="200" dy="0.76em" text-anchor="start" font-family="sans-serif" font-size="9.67741935483871" opacity="1" fill="#000000">
tracing
</text>
<polyline fill="none" opacity="1" stroke="#E61919" stroke-width="2" points="75,144 95,144 "/>
<polyline fill="none" opacity="1" stroke="#BDE619" stroke-width="2" points="75,159 95,159 "/>
<polyline fill="none" opacity="1" stroke="#19E66B" stroke-width="2" points="75,174 95,174 "/>
<polyline fill="none" opacity="1" stroke="#196BE6" stroke-width="2" points="75,189 95,189 "/>
<polyline fill="none" opacity="1" stroke="#BD19E6" stroke-width="2" points="75,204 95,204 "/>
</svg>
