<svg width="600" height="400" viewBox="0 0 600 400" xmlns="http://www.w3.org/2000/svg">
<rect x="0" y="0" width="600" height="400" opacity="1" fill="#FFFFFF" stroke="none"/>
<line opacity="0.1" stroke="#000000" stroke-width="1" x1="60" y1="339" x2="589" y2="339"/>
<line opacity="0.1" stroke="#000000" stroke-width="1" x1="60" y1="333" x2="589" y2="333"/>
<line opacity="0.1" stroke="#000000" stroke-width="1" x1="60" y1="326" x2="589" y2="326"/>
<line opacity="0.1" stroke="#000000" stroke-width="1" x1="60" y1="320" x2="589" y2="320"/>
<line opacity="0.1" stroke="#000000" stroke-width="1" x1="60" y1="313" x2="589" y2="313"/>
<line opacity="0.1" stroke="#000000" stroke-width="1" x1="60" y1="307" x2="589" y2="307"/>
<line opacity="0.1" stroke="#000000" stroke-width="1" x1="60" y1="301" x2="589" y2="301"/>
<line opacity="0.1" stroke="#000000" stroke-width="1" x1="60" y1="294" x2="589" y2="294"/>
<line opacity="0.1" stroke="#000000" stroke-width="1" x1="60" y1="288" x2="589" y2="288"/>
<line opacity="0.1" stroke="#000000" stroke-width="1" x1="60" y1="281" x2="589" y2="281"/>
<line opacity="0.1" stroke="#000000" stroke-width="1" x1="60" y1="275" x2="589" y2="275"/>
<line opacity="0.1" stroke="#000000" stroke-width="1" x1="60" y1="268" x2="589" y2="268"/>
<line opacity="0.1" stroke="#000000" stroke-width="1" x1="60" y1="262" x2="589" y2="262"/>
<line opacity="0.1" stroke="#000000" stroke-width="1" x1="60" y1="255" x2="589" y2="255"/>
<line opacity="0.1" stroke="#000000" stroke-width="1" x1="60" y1="249" x2="589" y2="249"/>
<line opacity="0.1" stroke="#000000" stroke-width="1" x1="60" y1="242" x2="589" y2="242"/>
<line opacity="0.1" stroke="#000000" stroke-width="1" x1="60" y1="236" x2="589" y2="236"/>
<line opacity="0.1" stroke="#000000" stroke-width="1" x1="60" y1="229" x2="589" y2="229"/>
<line opacity="0.1" stroke="#000000" stroke-width="1" x1="60" y1="223" x2="589" y2="223"/>
<line opacity="0.1" stroke="#000000" stroke-width="1" x1="60" y1="217" x2="589" y2="217"/>
<line opacity="0.1" stroke="#000000" stroke-width="1" x1="60" y1="210" x2="589" y2="210"/>
<line opacity="0.1" stroke="#000000" stroke-width="1" x1="60" y1="204" x2="589" y2="204"/>
<line opacity="0.1" stroke="#000000" stroke-width="1" x1="60" y1="197" x2="589" y2="197"/>
<line opacity="0.1" stroke="#000000" stroke-width="1" x1="60" y1="191" x2="589" y2="191"/>
<line opacity="0.1" stroke="#000000" stroke-width="1" x1="60" y1="184" x2="589" y2="184"/>
<line opacity="0.1" stroke="#000000" stroke-width="1" x1="60" y1="178" x2="589" y2="178"/>
<line opacity="0.1" stroke="#000000" stroke-width="1" x1="60" y1="171" x2="589" y2="171"/>
<line opacity="0.1" stroke="#000000" stroke-width="1" x1="60" y1="165" x2="589" y2="165"/>
<line opacity="0.1" stroke="#000000" stroke-width="1" x1="60" y1="158" x2="589" y2="158"/>
<line opacity="0.1" stroke="#000000" stroke-width="1" x1="60" y1="152" x2="589" y2="152"/>
<line opacity="0.1" stroke="#000000" stroke-width="1" x1="60" y1="145" x2="589" y2="145"/>
<line opacity="0.1" stroke="#000000" stroke-width="1" x1="60" y1="139" x2="589" y2="139"/>
<line opacity="0.1" stroke="#000000" stroke-width="1" x1="60" y1="132" x2="589" y2="132"/>
<line opacity="0.1" stroke="#000000" stroke-width="1" x1="60" y1="126" x2="589" y2="126"/>
<line opacity="0.1" stroke="#000000" stroke-width="1" x1="60" y1="120" x2="589" y2="120"/>
<line opacity="0.1" stroke="#000000" stroke-width="1" x1="60" y1="113" x2="589" y2="113"/>
<line opacity="0.1" stroke="#000000" stroke-width="1" x1="60" y1="107" x2="589" y2="107"/>
<line opacity="0.1" stroke="#000000" stroke-width="1" x1="60" y1="100" x2="589" y2="100"/>
<line opacity="0.1" stroke="#000000" stroke-width="1" x1="60" y1="94" x2="589" y2="94"/>
<line opacity="0.1" stroke="#000000" stroke-width="1" x1="60" y1="87" x2="589" y2="87"/>
<line opacity="0.1" stroke="#000000" stroke-width="1" x1="60" y1="81" x2="589" y2="81"/>
<line opacity="0.1" stroke="#000000" stroke-width="1" x1="60" y1="74" x2="589" y2="74"/>
<line opacity="0.1" stroke="#000000" stroke-width="1" x1="60" y1="68" x2="589" y2="68"/>
<line opacity="0.1" stroke="#000000" stroke-width="1" x1="60" y1="61" x2="589" y2="61"/>
<line opacity="0.1" stroke="#000000" stroke-width="1" x1="60" y1="55" x2="589" y2="55"/>
<line opacity="0.1" stroke="#000000" stroke-width="1" x1="60" y1="48" x2="589" y2="48"/>
<line opacity="0.1" stroke="#000000" stroke-width="1" x1="60" y1="42" x2="589" y2="42"/>
<line opacity="0.1" stroke="#000000" stroke-width="1" x1="60" y1="35" x2="589" y2="35"/>
<line opacity="0.1" stroke="#000000" stroke-width="1" x1="60" y1="29" x2="589" y2="29"/>
<line opacity="0.1" stroke="#000000" stroke-width="1" x1="60" y1="23" x2="589" y2="23"/>
<line opacity="0.1" stroke="#000000" stroke-width="1" x1="60" y1="16" x2="589" y2="16"/>
<text x="10" y="175" dy="0.76em" text-anchor="middle" font-family="sans-serif" font-size="9.67741935483871" opacity="1" fill="#000000" transform="rotate(270, 10, 175)">
Fraction of dependent crates
</text>
<line opacity="0.2" stroke="#000000" stroke-width="1" x1="60" y1="320" x2="589" y2="320"/>
<line opacity="0.2" stroke="#000000" stroke-width="1" x1="60" y1="255" x2="589" y2="255"/>
<line opacity="0.2" stroke="#000000" stroke-width="1" x1="60" y1="191" x2="589" y2="191"/>
<line opacity="0.2" stroke="#000000" stroke-width="1" x1="60" y1="126" x2="589" y2="126"/>
<line opacity="0.2" stroke="#000000" stroke-width="1" x1="60" y1="61" x2="589" y2="61"/>
<polyline fill="none" opacity="1" stroke="#000000" stroke-width="1" points="59,10 59,339 "/>
<text x="50" y="320" dy="0.5ex" text-anchor="end" font-family="sans-serif" font-size="9.67741935483871" opacity="1" fill="#000000">
0.1
</text>
<polyline fill="none" opacity="1" stroke="#000000" stroke-width="1" points="54,320 59,320 "/>
<text x="50" y="255" dy="0.5ex" text-anchor="end" font-family="sans-serif" font-size="9.67741935483871" opacity="1" fill="#000000">
0.15
</text>
<polyline fill="none" opacity="1" stroke="#000000" stroke-width="1" points="54,255 59,255 "/>
<text x="50" y="191" dy="0.5ex" text-anchor="end" font-family="sans-serif" font-size="9.67741935483871" opacity="1" fill="#000000">
0.2
</text>
<polyline fill="none" opacity="1" stroke="#000000" stroke-width="1" points="54,191 59,191 "/>
<text x="50" y="126" dy="0.5ex" text-anchor="end" font-family="sans-serif" font-size="9.67741935483871" opacity="1" fill="#000000">
0.25
</text>
<polyline fill="none" opacity="1" stroke="#000000" stroke-width="1" points="54,126 59,126 "/>
<text x="50" y="61" dy="0.5ex" text-anchor="end" font-family="sans-serif" font-size="9.67741935483871" opacity="1" fill="#000000">
0.3
</text>
<polyline fill="none" opacity="1" stroke="#000000" stroke-width="1" points="54,61 59,61 "/>
<polyline fill="none" opacity="1" stroke="#000000" stroke-width="1" points="60,340 589,340 "/>
<text x="60" y="350" dy="0.76em" text-anchor="middle" font-family="sans-serif" font-size="9.67741935483871" opacity="1" fill="#000000">
2026-03-29
</text>
<polyline fill="none" opacity="1" stroke="#000000" stroke-width="1" points="60,340 60,345 "/>
<text x="197" y="350" dy="0.76em" text-anchor="middle" font-family="sans-serif" font-size="9.67741935483871" opacity="1" fill="#000000">
2026-04-05
</text>
<polyline fill="none" opacity="1" stroke="#000000" stroke-width="1" points="197,340 197,345 "/>
<text x="334" y="350" dy="0.76em" text-anchor="middle" font-family="sans-serif" font-size="9.67741935483871" opacity="1" fill="#000000">
2026-04-12
</text>
<polyline fill="none" opacity="1" stroke="#000000" stroke-width="1" points="334,340 334,345 "/>
<text x="471" y="350" dy="0.76em" text-anchor="middle" font-family="sans-serif" font-size="9.67741935483871" opacity="1" fill="#000000">
2026-04-19
</text>
<polyline fill="none" opacity="1" stroke="#000000" stroke-width="1" points="471,340 471,345 "/>
<polyline fill="none" opacity="1" stroke="#E61919" stroke-width="2" points="60,62 60,61 79,61 79,57 295,56 314,56 334,55 353,55 373,54 393,54 412,54 432,53 451,53 471,53 491,53 510,52 530,52 549,51 569,51 589,50 "/>
<polyline fill="none" opacity="1" stroke="#BDE619" stroke-width="2" points="60,137 60,136 79,136 79,130 295,130 314,129 334,128 353,128 373,127 393,127 412,127 432,126 451,125 471,125 491,125 510,124 530,124 549,123 569,122 589,122 "/>
<polyline fill="none" opacity="1" stroke="#19E66B" stroke-width="2" points="60,230 60,230 79,230 79,227 295,226 314,226 334,225 353,225 373,225 393,224 412,224 432,224 451,223 471,223 491,223 510,223 530,222 549,222 569,221 589,221 "/>
<polyline fill="none" opacity="1" stroke="#196BE6" stroke-width="2" points="60,179 60,179 79,179 79,175 295,174 314,174 334,173 353,173 373,173 393,172 412,172 432,171 451,171 471,171 491,171 510,170 530,170 549,169 569,169 589,169 "/>
<polyline fill="none" opacity="1" stroke="#BD19E6" stroke-width="2" points="60,327 60,327 79,327 79,323 295,323 314,323 334,322 353,322 373,322 393,321 412,321 432,321 451,320 471,320 491,320 510,320 530,319 549,319 569,318 589,318 "/>
<rect x="65" y="130" width="101" height="89" opacity="1" fill="#FFFFFF" stroke="none"/>
<rect x="65" y="130" width="101" height="89" opacity="1" fill="none" stroke="#000000"/>
<text x="105" y="140" dy="0.76em" text-anchor="start" font-family="sans-serif" font-size="9.67741935483871" opacity="1" fill="#000000">
serde
</text>
<text x="105" y="155" dy="0.76em" text-anchor="start" font-family="sans-serif" font-size="9.67741935483871" opacity="1" fill="#000000">
serde_json
</text>
<text x="105" y="170" dy="0.76em" text-anchor="start" font-family="sans-serif" font-size="9.67741935483871" opacity="1" fill="#000000">
thiserror
</text>
<text x="105" y="185" dy="0.76em" text-anchor="start" font-family="sans-serif" font-size="9.67741935483871" opacity="1" fill="#000000">
tokio
</text>
<text x="105" y="200" dy="0.76em" text-anchor="start" font-family="sans-serif" font-size="9.67741935483871" opacity="1" fill="#000000">
tracing
</text>
<polyline fill="none" opacity="1" stroke="#E61919" stroke-width="2" points="75,144 95,144 "/>
<polyline fill="none" opacity="1" stroke="#BDE619" stroke-width="2" points="75,159 95,159 "/>
<polyline fill="none" opacity="1" stroke="#19E66B" stroke-width="2" points="75,174 95,174 "/>
<polyline fill="none" opacity="1" stroke="#196BE6" stroke-width="2" points="75,189 95,189 "/>
<polyline fill="none" opacity="1" stroke="#BD19E6" stroke-width="2" points="75,204 95,204 "/>
</svg>
