<svg width="600" height="400" viewBox="0 0 600 400" xmlns="http://www.w3.org/2000/svg">
<rect x="0" y="0" width="600" height="400" opacity="1" fill="#FFFFFF" stroke="none"/>
<line opacity="0.1" stroke="#000000" stroke-width="1" x1="60" y1="338" x2="589" y2="338"/>
<line opacity="0.1" stroke="#000000" stroke-width="1" x1="60" y1="332" x2="589" y2="332"/>
<line opacity="0.1" stroke="#000000" stroke-width="1" x1="60" y1="325" x2="589" y2="325"/>
<line opacity="0.1" stroke="#000000" stroke-width="1" x1="60" y1="319" x2="589" y2="319"/>
<line opacity="0.1" stroke="#000000" stroke-width="1" x1="60" y1="313" x2="589" y2="313"/>
<line opacity="0.1" stroke="#000000" stroke-width="1" x1="60" y1="307" x2="589" y2="307"/>
<line opacity="0.1" stroke="#000000" stroke-width="1" x1="60" y1="301" x2="589" y2="301"/>
<line opacity="0.1" stroke="#000000" stroke-width="1" x1="60" y1="295" x2="589" y2="295"/>
<line opacity="0.1" stroke="#000000" stroke-width="1" x1="60" y1="289" x2="589" y2="289"/>
<line opacity="0.1" stroke="#000000" stroke-width="1" x1="60" y1="283" x2="589" y2="283"/>
<line opacity="0.1" stroke="#000000" stroke-width="1" x1="60" y1="277" x2="589" y2="277"/>
<line opacity="0.1" stroke="#000000" stroke-width="1" x1="60" y1="270" x2="589" y2="270"/>
<line opacity="0.1" stroke="#000000" stroke-width="1" x1="60" y1="264" x2="589" y2="264"/>
<line opacity="0.1" stroke="#000000" stroke-width="1" x1="60" y1="258" x2="589" y2="258"/>
<line opacity="0.1" stroke="#000000" stroke-width="1" x1="60" y1="252" x2="589" y2="252"/>
<line opacity="0.1" stroke="#000000" stroke-width="1" x1="60" y1="246" x2="589" y2="246"/>
<line opacity="0.1" stroke="#000000" stroke-width="1" x1="60" y1="240" x2="589" y2="240"/>
<line opacity="0.1" stroke="#000000" stroke-width="1" x1="60" y1="234" x2="589" y2="234"/>
<line opacity="0.1" stroke="#000000" stroke-width="1" x1="60" y1="228" x2="589" y2="228"/>
<line opacity="0.1" stroke="#000000" stroke-width="1" x1="60" y1="222" x2="589" y2="222"/>
<line opacity="0.1" stroke="#000000" stroke-width="1" x1="60" y1="215" x2="589" y2="215"/>
<line opacity="0.1" stroke="#000000" stroke-width="1" x1="60" y1="209" x2="589" y2="209"/>
<line opacity="0.1" stroke="#000000" stroke-width="1" x1="60" y1="203" x2="589" y2="203"/>
<line opacity="0.1" stroke="#000000" stroke-width="1" x1="60" y1="197" x2="589" y2="197"/>
<line opacity="0.1" stroke="#000000" stroke-width="1" x1="60" y1="191" x2="589" y2="191"/>
<line opacity="0.1" stroke="#000000" stroke-width="1" x1="60" y1="185" x2="589" y2="185"/>
<line opacity="0.1" stroke="#000000" stroke-width="1" x1="60" y1="179" x2="589" y2="179"/>
<line opacity="0.1" stroke="#000000" stroke-width="1" x1="60" y1="173" x2="589" y2="173"/>
<line opacity="0.1" stroke="#000000" stroke-width="1" x1="60" y1="167" x2="589" y2="167"/>
<line opacity="0.1" stroke="#000000" stroke-width="1" x1="60" y1="161" x2="589" y2="161"/>
<line opacity="0.1" stroke="#000000" stroke-width="1" x1="60" y1="154" x2="589" y2="154"/>
<line opacity="0.1" stroke="#000000" stroke-width="1" x1="60" y1="148" x2="589" y2="148"/>
<line opacity="0.1" stroke="#000000" stroke-width="1" x1="60" y1="142" x2="589" y2="142"/>
<line opacity="0.1" stroke="#000000" stroke-width="1" x1="60" y1="136" x2="589" y2="136"/>
<line opacity="0.1" stroke="#000000" stroke-width="1" x1="60" y1="130" x2="589" y2="130"/>
<line opacity="0.1" stroke="#000000" stroke-width="1" x1="60" y1="124" x2="589" y2="124"/>
<line opacity="0.1" stroke="#000000" stroke-width="1" x1="60" y1="118" x2="589" y2="118"/>
<line opacity="0.1" stroke="#000000" stroke-width="1" x1="60" y1="112" x2="589" y2="112"/>
<line opacity="0.1" stroke="#000000" stroke-width="1" x1="60" y1="106" x2="589" y2="106"/>
<line opacity="0.1" stroke="#000000" stroke-width="1" x1="60" y1="99" x2="589" y2="99"/>
<line opacity="0.1" stroke="#000000" stroke-width="1" x1="60" y1="93" x2="589" y2="93"/>
<line opacity="0.1" stroke="#000000" stroke-width="1" x1="60" y1="87" x2="589" y2="87"/>
<line opacity="0.1" stroke="#000000" stroke-width="1" x1="60" y1="81" x2="589" y2="81"/>
<line opacity="0.1" stroke="#000000" stroke-width="1" x1="60" y1="75" x2="589" y2="75"/>
<line opacity="0.1" stroke="#000000" stroke-width="1" x1="60" y1="69" x2="589" y2="69"/>
<line opacity="0.1" stroke="#000000" stroke-width="1" x1="60" y1="63" x2="589" y2="63"/>
<line opacity="0.1" stroke="#000000" stroke-width="1" x1="60" y1="57" x2="589" y2="57"/>
<line opacity="0.1" stroke="#000000" stroke-width="1" x1="60" y1="51" x2="589" y2="51"/>
<line opacity="0.1" stroke="#000000" stroke-width="1" x1="60" y1="45" x2="589" y2="45"/>
<line opacity="0.1" stroke="#000000" stroke-width="1" x1="60" y1="38" x2="589" y2="38"/>
<line opacity="0.1" stroke="#000000" stroke-width="1" x1="60" y1="32" x2="589" y2="32"/>
<line opacity="0.1" stroke="#000000" stroke-width="1" x1="60" y1="26" x2="589" y2="26"/>
<line opacity="0.1" stroke="#000000" stroke-width="1" x1="60" y1="20" x2="589" y2="20"/>
<line opacity="0.1" stroke="#000000" stroke-width="1" x1="60" y1="14" x2="589" y2="14"/>
<text x="10" y="175" dy="0.76em" text-anchor="middle" font-family="sans-serif" font-size="9.67741935483871" opacity="1" fill="#000000" transform="rotate(270, 10, 175)">
Fraction of dependent crates
</text>
<line opacity="0.2" stroke="#000000" stroke-width="1" x1="60" y1="283" x2="589" y2="283"/>
<line opacity="0.2" stroke="#000000" stroke-width="1" x1="60" y1="222" x2="589" y2="222"/>
<line opacity="0.2" stroke="#000000" stroke-width="1" x1="60" y1="161" x2="589" y2="161"/>
<line opacity="0.2" stroke="#000000" stroke-width="1" x1="60" y1="99" x2="589" y2="99"/>
<line opacity="0.2" stroke="#000000" stroke-width="1" x1="60" y1="38" x2="589" y2="38"/>
<polyline fill="none" opacity="1" stroke="#000000" stroke-width="1" points="59,10 59,339 "/>
<text x="50" y="283" dy="0.5ex" text-anchor="end" font-family="sans-serif" font-size="9.67741935483871" opacity="1" fill="#000000">
0.1
</text>
<polyline fill="none" opacity="1" stroke="#000000" stroke-width="1" points="54,283 59,283 "/>
<text x="50" y="222" dy="0.5ex" text-anchor="end" font-family="sans-serif" font-size="9.67741935483871" opacity="1" fill="#000000">
0.15
</text>
<polyline fill="none" opacity="1" stroke="#000000" stroke-width="1" points="54,222 59,222 "/>
<text x="50" y="161" dy="0.5ex" text-anchor="end" font-family="sans-serif" font-size="9.67741935483871" opacity="1" fill="#000000">
0.2
</text>
<polyline fill="none" opacity="1" stroke="#000000" stroke-width="1" points="54,161 59,161 "/>
<text x="50" y="99" dy="0.5ex" text-anchor="end" font-family="sans-serif" font-size="9.67741935483871" opacity="1" fill="#000000">
0.25
</text>
<polyline fill="none" opacity="1" stroke="#000000" stroke-width="1" points="54,99 59,99 "/>
<text x="50" y="38" dy="0.5ex" text-anchor="end" font-family="sans-serif" font-size="9.67741935483871" opacity="1" fill="#000000">
0.3
</text>
<polyline fill="none" opacity="1" stroke="#000000" stroke-width="1" points="54,38 59,38 "/>
<polyline fill="none" opacity="1" stroke="#000000" stroke-width="1" points="60,340 589,340 "/>
<text x="60" y="350" dy="0.76em" text-anchor="middle" font-family="sans-serif" font-size="9.67741935483871" opacity="1" fill="#000000">
2026-02-15
</text>
<polyline fill="none" opacity="1" stroke="#000000" stroke-width="1" points="60,340 60,345 "/>
<text x="192" y="350" dy="0.76em" text-anchor="middle" font-family="sans-serif" font-size="9.67741935483871" opacity="1" fill="#000000">
2026-02-22
</text>
<polyline fill="none" opacity="1" stroke="#000000" stroke-width="1" points="192,340 192,345 "/>
<text x="324" y="350" dy="0.76em" text-anchor="middle" font-family="sans-serif" font-size="9.67741935483871" opacity="1" fill="#000000">
2026-03-01
</text>
<polyline fill="none" opacity="1" stroke="#000000" stroke-width="1" points="324,340 324,345 "/>
<text x="456" y="350" dy="0.76em" text-anchor="middle" font-family="sans-serif" font-size="9.67741935483871" opacity="1" fill="#000000">
2026-03-08
</text>
<polyline fill="none" opacity="1" stroke="#000000" stroke-width="1" points="456,340 456,345 "/>
<text x="589" y="350" dy="0.76em" text-anchor="middle" font-family="sans-serif" font-size="9.67741935483871" opacity="1" fill="#000000">
2026-03-15
</text>
<polyline fill="none" opacity="1" stroke="#000000" stroke-width="1" points="589,340 589,345 "/>
<polyline fill="none" opacity="1" stroke="#E61919" stroke-width="2" points="60,59 60,58 78,58 97,58 116,58 116,57 135,57 135,57 154,57 154,56 173,56 192,56 192,55 211,55 211,55 230,55 230,55 248,55 248,54 267,54 267,53 286,53 305,53 305,53 324,53 324,52 343,52 343,52 362,52 381,52 381,49 400,49 418,49 437,49 456,49 475,49 551,47 570,47 570,46 589,46 "/>
<polyline fill="none" opacity="1" stroke="#BDE619" stroke-width="2" points="60,136 60,134 78,134 97,134 116,134 116,133 135,133 135,133 154,133 154,132 173,132 192,132 192,131 211,131 211,130 230,130 230,129 248,129 248,129 267,129 267,128 286,128 305,128 305,127 324,127 324,127 343,127 343,126 362,126 381,126 381,123 400,123 418,123 437,123 456,123 475,123 551,120 570,120 570,119 589,119 "/>
<polyline fill="none" opacity="1" stroke="#19E66B" stroke-width="2" points="60,332 60,331 78,331 97,331 116,331 116,331 135,331 135,331 154,331 154,330 173,330 192,330 192,329 211,329 211,329 230,329 230,329 248,329 248,328 267,328 267,328 286,328 305,328 305,328 324,328 324,327 343,327 343,327 362,327 381,327 381,325 400,325 418,325 437,325 456,325 475,325 551,324 570,324 570,323 589,323 "/>
<polyline fill="none" opacity="1" stroke="#196BE6" stroke-width="2" points="60,214 60,213 78,213 97,213 116,213 116,212 135,212 135,212 154,212 154,211 173,211 192,211 192,211 211,211 211,210 230,210 230,210 248,210 248,209 267,209 267,209 286,209 305,209 305,208 324,208 324,208 343,208 343,207 362,207 381,207 381,205 400,205 418,205 437,205 456,205 475,205 551,203 570,203 570,203 589,203 "/>
<polyline fill="none" opacity="1" stroke="#BD19E6" stroke-width="2" points="60,169 60,167 78,167 97,167 116,167 116,167 135,167 135,167 154,167 154,166 173,166 192,166 192,165 211,165 211,164 230,164 230,164 248,164 248,164 267,164 267,163 286,163 305,163 305,163 324,163 324,162 343,162 343,161 362,161 381,161 381,159 400,159 418,159 437,159 456,159 475,159 551,157 570,157 570,157 589,157 "/>
<rect x="65" y="130" width="101" height="89" opacity="1" fill="#FFFFFF" stroke="none"/>
<rect x="65" y="130" width="101" height="89" opacity="1" fill="none" stroke="#000000"/>
<text x="105" y="140" dy="0.76em" text-anchor="start" font-family="sans-serif" font-size="9.67741935483871" opacity="1" fill="#000000">
serde
</text>
<text x="105" y="155" dy="0.76em" text-anchor="start" font-family="sans-serif" font-size="9.67741935483871" opacity="1" fill="#000000">
serde_json
</text>
<text x="105" y="170" dy="0.76em" text-anchor="start" font-family="sans-serif" font-size="9.67741935483871" opacity="1" fill="#000000">
tempfile
</text>
<text x="105" y="185" dy="0.76em" text-anchor="start" font-family="sans-serif" font-size="9.67741935483871" opacity="1" fill="#000000">
thiserror
</text>
<text x="105" y="200" dy="0.76em" text-anchor="start" font-family="sans-serif" font-size="9.67741935483871" opacity="1" fill="#000000">
tokio
</text>
<polyline fill="none" opacity="1" stroke="#E61919" stroke-width="2" points="75,144 95,144 "/>
<polyline fill="none" opacity="1" stroke="#BDE619" stroke-width="2" points="75,159 95,159 "/>
<polyline fill="none" opacity="1" stroke="#19E66B" stroke-width="2" points="75,174 95,174 "/>
<polyline fill="none" opacity="1" stroke="#196BE6" stroke-width="2" points="75,189 95,189 "/>
<polyline fill="none" opacity="1" stroke="#BD19E6" stroke-width="2" points="75,204 95,204 "/>
</svg>
