<svg width="600" height="400" xmlns="http://www.w3.org/2000/svg">
<rect x="0" y="0" width="599" height="399" opacity="1" fill="#FFFFFF" stroke="none"/>
<line opacity="0.1" stroke="#000000" stroke-width="1" x1="60" y1="336" x2="590" y2="336"/>
<line opacity="0.1" stroke="#000000" stroke-width="1" x1="60" y1="331" x2="590" y2="331"/>
<line opacity="0.1" stroke="#000000" stroke-width="1" x1="60" y1="326" x2="590" y2="326"/>
<line opacity="0.1" stroke="#000000" stroke-width="1" x1="60" y1="321" x2="590" y2="321"/>
<line opacity="0.1" stroke="#000000" stroke-width="1" x1="60" y1="316" x2="590" y2="316"/>
<line opacity="0.1" stroke="#000000" stroke-width="1" x1="60" y1="311" x2="590" y2="311"/>
<line opacity="0.1" stroke="#000000" stroke-width="1" x1="60" y1="306" x2="590" y2="306"/>
<line opacity="0.1" stroke="#000000" stroke-width="1" x1="60" y1="301" x2="590" y2="301"/>
<line opacity="0.1" stroke="#000000" stroke-width="1" x1="60" y1="296" x2="590" y2="296"/>
<line opacity="0.1" stroke="#000000" stroke-width="1" x1="60" y1="291" x2="590" y2="291"/>
<line opacity="0.1" stroke="#000000" stroke-width="1" x1="60" y1="286" x2="590" y2="286"/>
<line opacity="0.1" stroke="#000000" stroke-width="1" x1="60" y1="281" x2="590" y2="281"/>
<line opacity="0.1" stroke="#000000" stroke-width="1" x1="60" y1="276" x2="590" y2="276"/>
<line opacity="0.1" stroke="#000000" stroke-width="1" x1="60" y1="271" x2="590" y2="271"/>
<line opacity="0.1" stroke="#000000" stroke-width="1" x1="60" y1="266" x2="590" y2="266"/>
<line opacity="0.1" stroke="#000000" stroke-width="1" x1="60" y1="261" x2="590" y2="261"/>
<line opacity="0.1" stroke="#000000" stroke-width="1" x1="60" y1="256" x2="590" y2="256"/>
<line opacity="0.1" stroke="#000000" stroke-width="1" x1="60" y1="250" x2="590" y2="250"/>
<line opacity="0.1" stroke="#000000" stroke-width="1" x1="60" y1="245" x2="590" y2="245"/>
<line opacity="0.1" stroke="#000000" stroke-width="1" x1="60" y1="240" x2="590" y2="240"/>
<line opacity="0.1" stroke="#000000" stroke-width="1" x1="60" y1="235" x2="590" y2="235"/>
<line opacity="0.1" stroke="#000000" stroke-width="1" x1="60" y1="230" x2="590" y2="230"/>
<line opacity="0.1" stroke="#000000" stroke-width="1" x1="60" y1="225" x2="590" y2="225"/>
<line opacity="0.1" stroke="#000000" stroke-width="1" x1="60" y1="220" x2="590" y2="220"/>
<line opacity="0.1" stroke="#000000" stroke-width="1" x1="60" y1="215" x2="590" y2="215"/>
<line opacity="0.1" stroke="#000000" stroke-width="1" x1="60" y1="210" x2="590" y2="210"/>
<line opacity="0.1" stroke="#000000" stroke-width="1" x1="60" y1="205" x2="590" y2="205"/>
<line opacity="0.1" stroke="#000000" stroke-width="1" x1="60" y1="200" x2="590" y2="200"/>
<line opacity="0.1" stroke="#000000" stroke-width="1" x1="60" y1="195" x2="590" y2="195"/>
<line opacity="0.1" stroke="#000000" stroke-width="1" x1="60" y1="190" x2="590" y2="190"/>
<line opacity="0.1" stroke="#000000" stroke-width="1" x1="60" y1="185" x2="590" y2="185"/>
<line opacity="0.1" stroke="#000000" stroke-width="1" x1="60" y1="180" x2="590" y2="180"/>
<line opacity="0.1" stroke="#000000" stroke-width="1" x1="60" y1="175" x2="590" y2="175"/>
<line opacity="0.1" stroke="#000000" stroke-width="1" x1="60" y1="170" x2="590" y2="170"/>
<line opacity="0.1" stroke="#000000" stroke-width="1" x1="60" y1="165" x2="590" y2="165"/>
<line opacity="0.1" stroke="#000000" stroke-width="1" x1="60" y1="159" x2="590" y2="159"/>
<line opacity="0.1" stroke="#000000" stroke-width="1" x1="60" y1="154" x2="590" y2="154"/>
<line opacity="0.1" stroke="#000000" stroke-width="1" x1="60" y1="149" x2="590" y2="149"/>
<line opacity="0.1" stroke="#000000" stroke-width="1" x1="60" y1="144" x2="590" y2="144"/>
<line opacity="0.1" stroke="#000000" stroke-width="1" x1="60" y1="139" x2="590" y2="139"/>
<line opacity="0.1" stroke="#000000" stroke-width="1" x1="60" y1="134" x2="590" y2="134"/>
<line opacity="0.1" stroke="#000000" stroke-width="1" x1="60" y1="129" x2="590" y2="129"/>
<line opacity="0.1" stroke="#000000" stroke-width="1" x1="60" y1="124" x2="590" y2="124"/>
<line opacity="0.1" stroke="#000000" stroke-width="1" x1="60" y1="119" x2="590" y2="119"/>
<line opacity="0.1" stroke="#000000" stroke-width="1" x1="60" y1="114" x2="590" y2="114"/>
<line opacity="0.1" stroke="#000000" stroke-width="1" x1="60" y1="109" x2="590" y2="109"/>
<line opacity="0.1" stroke="#000000" stroke-width="1" x1="60" y1="104" x2="590" y2="104"/>
<line opacity="0.1" stroke="#000000" stroke-width="1" x1="60" y1="99" x2="590" y2="99"/>
<line opacity="0.1" stroke="#000000" stroke-width="1" x1="60" y1="94" x2="590" y2="94"/>
<line opacity="0.1" stroke="#000000" stroke-width="1" x1="60" y1="89" x2="590" y2="89"/>
<line opacity="0.1" stroke="#000000" stroke-width="1" x1="60" y1="84" x2="590" y2="84"/>
<line opacity="0.1" stroke="#000000" stroke-width="1" x1="60" y1="79" x2="590" y2="79"/>
<line opacity="0.1" stroke="#000000" stroke-width="1" x1="60" y1="73" x2="590" y2="73"/>
<line opacity="0.1" stroke="#000000" stroke-width="1" x1="60" y1="68" x2="590" y2="68"/>
<line opacity="0.1" stroke="#000000" stroke-width="1" x1="60" y1="63" x2="590" y2="63"/>
<line opacity="0.1" stroke="#000000" stroke-width="1" x1="60" y1="58" x2="590" y2="58"/>
<line opacity="0.1" stroke="#000000" stroke-width="1" x1="60" y1="53" x2="590" y2="53"/>
<line opacity="0.1" stroke="#000000" stroke-width="1" x1="60" y1="48" x2="590" y2="48"/>
<line opacity="0.1" stroke="#000000" stroke-width="1" x1="60" y1="43" x2="590" y2="43"/>
<line opacity="0.1" stroke="#000000" stroke-width="1" x1="60" y1="38" x2="590" y2="38"/>
<line opacity="0.1" stroke="#000000" stroke-width="1" x1="60" y1="33" x2="590" y2="33"/>
<line opacity="0.1" stroke="#000000" stroke-width="1" x1="60" y1="28" x2="590" y2="28"/>
<line opacity="0.1" stroke="#000000" stroke-width="1" x1="60" y1="23" x2="590" y2="23"/>
<line opacity="0.1" stroke="#000000" stroke-width="1" x1="60" y1="18" x2="590" y2="18"/>
<line opacity="0.1" stroke="#000000" stroke-width="1" x1="60" y1="13" x2="590" y2="13"/>
<text x="10" y="175" dy="0.76em" text-anchor="middle" font-family="sans-serif" font-size="9.67741935483871" opacity="1" fill="#000000" transform="rotate(270, 10, 175)">
Number of dependent crates
</text>
<line opacity="0.2" stroke="#000000" stroke-width="1" x1="60" y1="336" x2="590" y2="336"/>
<line opacity="0.2" stroke="#000000" stroke-width="1" x1="60" y1="286" x2="590" y2="286"/>
<line opacity="0.2" stroke="#000000" stroke-width="1" x1="60" y1="235" x2="590" y2="235"/>
<line opacity="0.2" stroke="#000000" stroke-width="1" x1="60" y1="185" x2="590" y2="185"/>
<line opacity="0.2" stroke="#000000" stroke-width="1" x1="60" y1="134" x2="590" y2="134"/>
<line opacity="0.2" stroke="#000000" stroke-width="1" x1="60" y1="84" x2="590" y2="84"/>
<line opacity="0.2" stroke="#000000" stroke-width="1" x1="60" y1="33" x2="590" y2="33"/>
<polyline fill="none" opacity="1" stroke="#000000" stroke-width="1" points="59,10 59,340 "/>
<text x="50" y="336" dy="0.5ex" text-anchor="end" font-family="sans-serif" font-size="9.67741935483871" opacity="1" fill="#000000">
2000
</text>
<polyline fill="none" opacity="1" stroke="#000000" stroke-width="1" points="54,336 59,336 "/>
<text x="50" y="286" dy="0.5ex" text-anchor="end" font-family="sans-serif" font-size="9.67741935483871" opacity="1" fill="#000000">
3000
</text>
<polyline fill="none" opacity="1" stroke="#000000" stroke-width="1" points="54,286 59,286 "/>
<text x="50" y="235" dy="0.5ex" text-anchor="end" font-family="sans-serif" font-size="9.67741935483871" opacity="1" fill="#000000">
4000
</text>
<polyline fill="none" opacity="1" stroke="#000000" stroke-width="1" points="54,235 59,235 "/>
<text x="50" y="185" dy="0.5ex" text-anchor="end" font-family="sans-serif" font-size="9.67741935483871" opacity="1" fill="#000000">
5000
</text>
<polyline fill="none" opacity="1" stroke="#000000" stroke-width="1" points="54,185 59,185 "/>
<text x="50" y="134" dy="0.5ex" text-anchor="end" font-family="sans-serif" font-size="9.67741935483871" opacity="1" fill="#000000">
6000
</text>
<polyline fill="none" opacity="1" stroke="#000000" stroke-width="1" points="54,134 59,134 "/>
<text x="50" y="84" dy="0.5ex" text-anchor="end" font-family="sans-serif" font-size="9.67741935483871" opacity="1" fill="#000000">
7000
</text>
<polyline fill="none" opacity="1" stroke="#000000" stroke-width="1" points="54,84 59,84 "/>
<text x="50" y="33" dy="0.5ex" text-anchor="end" font-family="sans-serif" font-size="9.67741935483871" opacity="1" fill="#000000">
8000
</text>
<polyline fill="none" opacity="1" stroke="#000000" stroke-width="1" points="54,33 59,33 "/>
<polyline fill="none" opacity="1" stroke="#000000" stroke-width="1" points="60,340 590,340 "/>
<text x="60" y="350" dy="0.76em" text-anchor="middle" font-family="sans-serif" font-size="9.67741935483871" opacity="1" fill="#000000">
2020-06-14Z
</text>
<polyline fill="none" opacity="1" stroke="#000000" stroke-width="1" points="60,340 60,345 "/>
<text x="192" y="350" dy="0.76em" text-anchor="middle" font-family="sans-serif" font-size="9.67741935483871" opacity="1" fill="#000000">
2020-06-21Z
</text>
<polyline fill="none" opacity="1" stroke="#000000" stroke-width="1" points="192,340 192,345 "/>
<text x="325" y="350" dy="0.76em" text-anchor="middle" font-family="sans-serif" font-size="9.67741935483871" opacity="1" fill="#000000">
2020-06-28Z
</text>
<polyline fill="none" opacity="1" stroke="#000000" stroke-width="1" points="325,340 325,345 "/>
<text x="457" y="350" dy="0.76em" text-anchor="middle" font-family="sans-serif" font-size="9.67741935483871" opacity="1" fill="#000000">
2020-07-05Z
</text>
<polyline fill="none" opacity="1" stroke="#000000" stroke-width="1" points="457,340 457,345 "/>
<text x="590" y="350" dy="0.76em" text-anchor="middle" font-family="sans-serif" font-size="9.67741935483871" opacity="1" fill="#000000">
2020-07-12Z
</text>
<polyline fill="none" opacity="1" stroke="#000000" stroke-width="1" points="590,340 590,345 "/>
<polyline fill="none" opacity="1" stroke="#E61919" stroke-width="2" points="60,271 78,271 78,271 97,271 116,271 116,271 135,271 135,270 154,270 154,270 173,270 173,270 192,270 192,270 211,270 211,269 230,269 230,269 249,269 249,269 268,269 268,269 287,269 287,269 306,269 325,269 325,269 343,269 343,268 362,268 362,268 381,268 381,268 400,268 400,268 419,268 419,268 438,268 438,267 457,267 457,267 476,267 476,267 495,267 495,267 514,267 514,267 533,267 533,266 552,266 552,264 571,264 571,264 590,264 "/>
<polyline fill="none" opacity="1" stroke="#BDE619" stroke-width="2" points="60,189 78,189 78,188 97,188 116,188 116,188 135,188 135,188 154,188 154,187 173,187 173,187 192,187 192,187 211,187 211,187 230,187 230,187 249,187 249,186 268,186 268,186 287,186 287,186 306,186 325,186 325,186 343,186 343,185 362,185 362,185 381,185 381,184 400,184 400,184 419,184 419,184 438,184 438,184 457,184 457,183 476,183 476,183 495,183 495,182 514,182 514,182 533,182 533,182 552,182 552,182 571,182 571,182 590,182 "/>
<polyline fill="none" opacity="1" stroke="#19E66B" stroke-width="2" points="60,65 78,65 78,64 97,64 116,64 116,63 135,63 135,63 154,63 154,62 173,62 173,62 192,62 192,61 211,61 211,60 230,60 230,60 249,60 249,59 268,59 268,58 287,58 287,58 306,58 325,58 325,58 343,58 343,57 362,57 362,57 381,57 381,56 400,56 400,56 419,56 419,56 438,56 438,55 457,55 457,55 476,55 476,54 495,54 495,54 514,54 514,53 533,53 533,52 552,52 552,48 571,48 571,48 590,48 "/>
<polyline fill="none" opacity="1" stroke="#196BE6" stroke-width="2" points="60,162 78,162 78,162 97,162 116,162 116,161 135,161 135,161 154,161 154,161 173,161 173,160 192,160 192,160 211,160 211,159 230,159 230,159 249,159 249,158 268,158 268,158 287,158 287,158 306,157 325,157 325,157 343,157 343,157 362,157 362,156 381,156 381,156 400,156 400,156 419,156 419,156 438,156 438,155 457,155 457,155 476,155 476,155 495,155 495,154 514,154 514,154 533,154 533,154 552,154 552,149 571,149 571,149 590,149 "/>
<polyline fill="none" opacity="1" stroke="#BD19E6" stroke-width="2" points="60,327 78,327 78,327 97,327 116,327 116,326 135,326 135,326 154,326 154,326 173,326 173,326 192,326 192,325 211,325 211,325 230,325 230,325 249,325 249,324 268,324 268,324 287,324 287,324 306,324 325,324 325,323 343,323 343,323 362,323 362,323 381,323 381,322 400,322 400,322 419,322 419,322 438,322 438,321 457,321 457,321 476,321 476,321 495,321 495,320 514,320 514,320 533,320 533,320 552,320 552,320 571,320 571,319 590,319 "/>
<rect x="480" y="130" width="105" height="89" opacity="1" fill="#FFFFFF" stroke="none"/>
<rect x="480" y="130" width="105" height="89" opacity="1" fill="none" stroke="#000000"/>
<text x="520" y="140" dy="0.76em" text-anchor="start" font-family="sans-serif" font-size="9.67741935483871" opacity="1" fill="#000000">
clap
</text>
<text x="520" y="155" dy="0.76em" text-anchor="start" font-family="sans-serif" font-size="9.67741935483871" opacity="1" fill="#000000">
log
</text>
<text x="520" y="170" dy="0.76em" text-anchor="start" font-family="sans-serif" font-size="9.67741935483871" opacity="1" fill="#000000">
serde
</text>
<text x="520" y="185" dy="0.76em" text-anchor="start" font-family="sans-serif" font-size="9.67741935483871" opacity="1" fill="#000000">
serde_json
</text>
<text x="520" y="200" dy="0.76em" text-anchor="start" font-family="sans-serif" font-size="9.67741935483871" opacity="1" fill="#000000">
tokio
</text>
<polyline fill="none" opacity="1" stroke="#E61919" stroke-width="2" points="490,145 510,145 "/>
<polyline fill="none" opacity="1" stroke="#BDE619" stroke-width="2" points="490,160 510,160 "/>
<polyline fill="none" opacity="1" stroke="#19E66B" stroke-width="2" points="490,174 510,174 "/>
<polyline fill="none" opacity="1" stroke="#196BE6" stroke-width="2" points="490,190 510,190 "/>
<polyline fill="none" opacity="1" stroke="#BD19E6" stroke-width="2" points="490,204 510,204 "/>
</svg>
