<svg width="600" height="400" xmlns="http://www.w3.org/2000/svg">
<rect x="0" y="0" width="599" height="399" opacity="1" fill="#FFFFFF" stroke="none"/>
<line opacity="0.1" stroke="#000000" stroke-width="1" x1="60" y1="334" x2="590" y2="334"/>
<line opacity="0.1" stroke="#000000" stroke-width="1" x1="60" y1="327" x2="590" y2="327"/>
<line opacity="0.1" stroke="#000000" stroke-width="1" x1="60" y1="321" x2="590" y2="321"/>
<line opacity="0.1" stroke="#000000" stroke-width="1" x1="60" y1="315" x2="590" y2="315"/>
<line opacity="0.1" stroke="#000000" stroke-width="1" x1="60" y1="308" x2="590" y2="308"/>
<line opacity="0.1" stroke="#000000" stroke-width="1" x1="60" y1="302" x2="590" y2="302"/>
<line opacity="0.1" stroke="#000000" stroke-width="1" x1="60" y1="296" x2="590" y2="296"/>
<line opacity="0.1" stroke="#000000" stroke-width="1" x1="60" y1="289" x2="590" y2="289"/>
<line opacity="0.1" stroke="#000000" stroke-width="1" x1="60" y1="283" x2="590" y2="283"/>
<line opacity="0.1" stroke="#000000" stroke-width="1" x1="60" y1="276" x2="590" y2="276"/>
<line opacity="0.1" stroke="#000000" stroke-width="1" x1="60" y1="270" x2="590" y2="270"/>
<line opacity="0.1" stroke="#000000" stroke-width="1" x1="60" y1="264" x2="590" y2="264"/>
<line opacity="0.1" stroke="#000000" stroke-width="1" x1="60" y1="257" x2="590" y2="257"/>
<line opacity="0.1" stroke="#000000" stroke-width="1" x1="60" y1="251" x2="590" y2="251"/>
<line opacity="0.1" stroke="#000000" stroke-width="1" x1="60" y1="244" x2="590" y2="244"/>
<line opacity="0.1" stroke="#000000" stroke-width="1" x1="60" y1="238" x2="590" y2="238"/>
<line opacity="0.1" stroke="#000000" stroke-width="1" x1="60" y1="232" x2="590" y2="232"/>
<line opacity="0.1" stroke="#000000" stroke-width="1" x1="60" y1="225" x2="590" y2="225"/>
<line opacity="0.1" stroke="#000000" stroke-width="1" x1="60" y1="219" x2="590" y2="219"/>
<line opacity="0.1" stroke="#000000" stroke-width="1" x1="60" y1="213" x2="590" y2="213"/>
<line opacity="0.1" stroke="#000000" stroke-width="1" x1="60" y1="206" x2="590" y2="206"/>
<line opacity="0.1" stroke="#000000" stroke-width="1" x1="60" y1="200" x2="590" y2="200"/>
<line opacity="0.1" stroke="#000000" stroke-width="1" x1="60" y1="193" x2="590" y2="193"/>
<line opacity="0.1" stroke="#000000" stroke-width="1" x1="60" y1="187" x2="590" y2="187"/>
<line opacity="0.1" stroke="#000000" stroke-width="1" x1="60" y1="181" x2="590" y2="181"/>
<line opacity="0.1" stroke="#000000" stroke-width="1" x1="60" y1="174" x2="590" y2="174"/>
<line opacity="0.1" stroke="#000000" stroke-width="1" x1="60" y1="168" x2="590" y2="168"/>
<line opacity="0.1" stroke="#000000" stroke-width="1" x1="60" y1="161" x2="590" y2="161"/>
<line opacity="0.1" stroke="#000000" stroke-width="1" x1="60" y1="155" x2="590" y2="155"/>
<line opacity="0.1" stroke="#000000" stroke-width="1" x1="60" y1="149" x2="590" y2="149"/>
<line opacity="0.1" stroke="#000000" stroke-width="1" x1="60" y1="142" x2="590" y2="142"/>
<line opacity="0.1" stroke="#000000" stroke-width="1" x1="60" y1="136" x2="590" y2="136"/>
<line opacity="0.1" stroke="#000000" stroke-width="1" x1="60" y1="129" x2="590" y2="129"/>
<line opacity="0.1" stroke="#000000" stroke-width="1" x1="60" y1="123" x2="590" y2="123"/>
<line opacity="0.1" stroke="#000000" stroke-width="1" x1="60" y1="117" x2="590" y2="117"/>
<line opacity="0.1" stroke="#000000" stroke-width="1" x1="60" y1="110" x2="590" y2="110"/>
<line opacity="0.1" stroke="#000000" stroke-width="1" x1="60" y1="104" x2="590" y2="104"/>
<line opacity="0.1" stroke="#000000" stroke-width="1" x1="60" y1="98" x2="590" y2="98"/>
<line opacity="0.1" stroke="#000000" stroke-width="1" x1="60" y1="91" x2="590" y2="91"/>
<line opacity="0.1" stroke="#000000" stroke-width="1" x1="60" y1="85" x2="590" y2="85"/>
<line opacity="0.1" stroke="#000000" stroke-width="1" x1="60" y1="78" x2="590" y2="78"/>
<line opacity="0.1" stroke="#000000" stroke-width="1" x1="60" y1="72" x2="590" y2="72"/>
<line opacity="0.1" stroke="#000000" stroke-width="1" x1="60" y1="66" x2="590" y2="66"/>
<line opacity="0.1" stroke="#000000" stroke-width="1" x1="60" y1="59" x2="590" y2="59"/>
<line opacity="0.1" stroke="#000000" stroke-width="1" x1="60" y1="53" x2="590" y2="53"/>
<line opacity="0.1" stroke="#000000" stroke-width="1" x1="60" y1="46" x2="590" y2="46"/>
<line opacity="0.1" stroke="#000000" stroke-width="1" x1="60" y1="40" x2="590" y2="40"/>
<line opacity="0.1" stroke="#000000" stroke-width="1" x1="60" y1="34" x2="590" y2="34"/>
<line opacity="0.1" stroke="#000000" stroke-width="1" x1="60" y1="27" x2="590" y2="27"/>
<line opacity="0.1" stroke="#000000" stroke-width="1" x1="60" y1="21" x2="590" y2="21"/>
<line opacity="0.1" stroke="#000000" stroke-width="1" x1="60" y1="15" x2="590" y2="15"/>
<text x="10" y="175" dy="0.76em" text-anchor="middle" font-family="sans-serif" font-size="9.67741935483871" opacity="1" fill="#000000" transform="rotate(270, 10, 175)">
Fraction of dependent crates
</text>
<line opacity="0.2" stroke="#000000" stroke-width="1" x1="60" y1="315" x2="590" y2="315"/>
<line opacity="0.2" stroke="#000000" stroke-width="1" x1="60" y1="283" x2="590" y2="283"/>
<line opacity="0.2" stroke="#000000" stroke-width="1" x1="60" y1="251" x2="590" y2="251"/>
<line opacity="0.2" stroke="#000000" stroke-width="1" x1="60" y1="219" x2="590" y2="219"/>
<line opacity="0.2" stroke="#000000" stroke-width="1" x1="60" y1="187" x2="590" y2="187"/>
<line opacity="0.2" stroke="#000000" stroke-width="1" x1="60" y1="155" x2="590" y2="155"/>
<line opacity="0.2" stroke="#000000" stroke-width="1" x1="60" y1="123" x2="590" y2="123"/>
<line opacity="0.2" stroke="#000000" stroke-width="1" x1="60" y1="91" x2="590" y2="91"/>
<line opacity="0.2" stroke="#000000" stroke-width="1" x1="60" y1="59" x2="590" y2="59"/>
<line opacity="0.2" stroke="#000000" stroke-width="1" x1="60" y1="27" x2="590" y2="27"/>
<polyline fill="none" opacity="1" stroke="#000000" stroke-width="1" points="59,10 59,340 "/>
<text x="50" y="315" dy="0.5ex" text-anchor="end" font-family="sans-serif" font-size="9.67741935483871" opacity="1" fill="#000000">
0.01
</text>
<polyline fill="none" opacity="1" stroke="#000000" stroke-width="1" points="54,315 59,315 "/>
<text x="50" y="283" dy="0.5ex" text-anchor="end" font-family="sans-serif" font-size="9.67741935483871" opacity="1" fill="#000000">
0.015
</text>
<polyline fill="none" opacity="1" stroke="#000000" stroke-width="1" points="54,283 59,283 "/>
<text x="50" y="251" dy="0.5ex" text-anchor="end" font-family="sans-serif" font-size="9.67741935483871" opacity="1" fill="#000000">
0.02
</text>
<polyline fill="none" opacity="1" stroke="#000000" stroke-width="1" points="54,251 59,251 "/>
<text x="50" y="219" dy="0.5ex" text-anchor="end" font-family="sans-serif" font-size="9.67741935483871" opacity="1" fill="#000000">
0.025
</text>
<polyline fill="none" opacity="1" stroke="#000000" stroke-width="1" points="54,219 59,219 "/>
<text x="50" y="187" dy="0.5ex" text-anchor="end" font-family="sans-serif" font-size="9.67741935483871" opacity="1" fill="#000000">
0.03
</text>
<polyline fill="none" opacity="1" stroke="#000000" stroke-width="1" points="54,187 59,187 "/>
<text x="50" y="155" dy="0.5ex" text-anchor="end" font-family="sans-serif" font-size="9.67741935483871" opacity="1" fill="#000000">
0.035
</text>
<polyline fill="none" opacity="1" stroke="#000000" stroke-width="1" points="54,155 59,155 "/>
<text x="50" y="123" dy="0.5ex" text-anchor="end" font-family="sans-serif" font-size="9.67741935483871" opacity="1" fill="#000000">
0.04
</text>
<polyline fill="none" opacity="1" stroke="#000000" stroke-width="1" points="54,123 59,123 "/>
<text x="50" y="91" dy="0.5ex" text-anchor="end" font-family="sans-serif" font-size="9.67741935483871" opacity="1" fill="#000000">
0.045
</text>
<polyline fill="none" opacity="1" stroke="#000000" stroke-width="1" points="54,91 59,91 "/>
<text x="50" y="59" dy="0.5ex" text-anchor="end" font-family="sans-serif" font-size="9.67741935483871" opacity="1" fill="#000000">
0.05
</text>
<polyline fill="none" opacity="1" stroke="#000000" stroke-width="1" points="54,59 59,59 "/>
<text x="50" y="27" dy="0.5ex" text-anchor="end" font-family="sans-serif" font-size="9.67741935483871" opacity="1" fill="#000000">
0.055
</text>
<polyline fill="none" opacity="1" stroke="#000000" stroke-width="1" points="54,27 59,27 "/>
<polyline fill="none" opacity="1" stroke="#000000" stroke-width="1" points="60,340 590,340 "/>
<text x="60" y="350" dy="0.76em" text-anchor="middle" font-family="sans-serif" font-size="9.67741935483871" opacity="1" fill="#000000">
2020-05-24Z
</text>
<polyline fill="none" opacity="1" stroke="#000000" stroke-width="1" points="60,340 60,345 "/>
<text x="192" y="350" dy="0.76em" text-anchor="middle" font-family="sans-serif" font-size="9.67741935483871" opacity="1" fill="#000000">
2020-05-31Z
</text>
<polyline fill="none" opacity="1" stroke="#000000" stroke-width="1" points="192,340 192,345 "/>
<text x="325" y="350" dy="0.76em" text-anchor="middle" font-family="sans-serif" font-size="9.67741935483871" opacity="1" fill="#000000">
2020-06-07Z
</text>
<polyline fill="none" opacity="1" stroke="#000000" stroke-width="1" points="325,340 325,345 "/>
<text x="457" y="350" dy="0.76em" text-anchor="middle" font-family="sans-serif" font-size="9.67741935483871" opacity="1" fill="#000000">
2020-06-14Z
</text>
<polyline fill="none" opacity="1" stroke="#000000" stroke-width="1" points="457,340 457,345 "/>
<text x="590" y="350" dy="0.76em" text-anchor="middle" font-family="sans-serif" font-size="9.67741935483871" opacity="1" fill="#000000">
2020-06-21Z
</text>
<polyline fill="none" opacity="1" stroke="#000000" stroke-width="1" points="590,340 590,345 "/>
<polyline fill="none" opacity="1" stroke="#E61919" stroke-width="2" points="60,281 60,280 78,280 78,279 97,279 97,279 116,279 116,279 135,278 154,278 154,277 173,277 173,276 192,276 192,275 211,275 211,274 230,274 230,274 249,274 249,273 268,273 268,273 287,273 287,272 306,272 306,271 325,270 343,270 343,268 362,268 362,268 381,268 381,267 400,267 400,266 419,266 419,266 438,265 457,264 476,264 476,263 495,263 514,263 514,263 533,263 533,262 552,262 552,262 571,262 571,261 590,261 "/>
<polyline fill="none" opacity="1" stroke="#BDE619" stroke-width="2" points="60,334 60,334 78,334 78,334 97,334 97,334 116,334 116,334 135,334 154,334 154,334 173,334 173,334 192,334 192,326 211,326 211,326 230,326 230,326 249,326 249,326 268,326 268,326 287,326 287,326 306,326 306,326 325,326 343,326 343,326 362,326 362,326 381,326 381,326 400,326 400,325 419,325 419,326 438,326 457,326 476,326 476,326 495,326 514,326 514,326 533,326 533,326 552,326 552,326 571,326 571,326 590,326 "/>
<polyline fill="none" opacity="1" stroke="#19E66B" stroke-width="2" points="60,172 60,171 78,171 78,170 97,170 97,170 116,170 116,170 135,169 154,169 154,169 173,169 173,169 192,169 192,170 211,170 211,169 230,169 230,170 249,170 249,170 268,170 268,169 287,169 287,169 306,169 306,169 325,168 343,168 343,167 362,167 362,167 381,167 381,167 400,167 400,167 419,167 419,166 438,166 457,166 476,166 476,166 495,166 514,166 514,166 533,166 533,166 552,166 552,166 571,166 571,166 590,166 "/>
<polyline fill="none" opacity="1" stroke="#196BE6" stroke-width="2" points="60,280 60,279 78,279 78,278 97,278 97,277 116,277 116,276 135,275 154,275 154,275 173,275 173,274 192,274 192,274 211,274 211,273 230,273 230,272 249,272 249,272 268,272 268,271 287,271 287,270 306,270 306,270 325,269 343,269 343,269 362,269 362,268 381,268 381,267 400,267 400,266 419,266 419,266 438,264 457,263 476,263 476,263 495,262 514,262 514,262 533,262 533,261 552,261 552,260 571,260 571,259 590,259 "/>
<polyline fill="none" opacity="1" stroke="#BD19E6" stroke-width="2" points="60,55 60,54 78,54 78,53 97,53 97,51 116,51 116,52 135,51 154,51 154,51 173,51 173,51 192,51 192,50 211,50 211,50 230,50 230,49 249,49 249,48 268,48 268,48 287,48 287,48 306,48 306,48 325,48 343,48 343,48 362,48 362,47 381,47 381,47 400,47 400,47 419,47 419,46 438,46 457,45 476,45 476,44 495,44 514,44 514,43 533,43 533,43 552,43 552,43 571,43 571,42 590,42 "/>
<rect x="488" y="130" width="97" height="89" opacity="1" fill="#FFFFFF" stroke="none"/>
<rect x="488" y="130" width="97" height="89" opacity="1" fill="none" stroke="#000000"/>
<text x="528" y="140" dy="0.76em" text-anchor="start" font-family="sans-serif" font-size="9.67741935483871" opacity="1" fill="#000000">
anyhow
</text>
<text x="528" y="155" dy="0.76em" text-anchor="start" font-family="sans-serif" font-size="9.67741935483871" opacity="1" fill="#000000">
getopts
</text>
<text x="528" y="170" dy="0.76em" text-anchor="start" font-family="sans-serif" font-size="9.67741935483871" opacity="1" fill="#000000">
structopt
</text>
<text x="528" y="185" dy="0.76em" text-anchor="start" font-family="sans-serif" font-size="9.67741935483871" opacity="1" fill="#000000">
thiserror
</text>
<text x="528" y="200" dy="0.76em" text-anchor="start" font-family="sans-serif" font-size="9.67741935483871" opacity="1" fill="#000000">
tokio
</text>
<polyline fill="none" opacity="1" stroke="#E61919" stroke-width="2" points="498,145 518,145 "/>
<polyline fill="none" opacity="1" stroke="#BDE619" stroke-width="2" points="498,160 518,160 "/>
<polyline fill="none" opacity="1" stroke="#19E66B" stroke-width="2" points="498,175 518,175 "/>
<polyline fill="none" opacity="1" stroke="#196BE6" stroke-width="2" points="498,189 518,189 "/>
<polyline fill="none" opacity="1" stroke="#BD19E6" stroke-width="2" points="498,204 518,204 "/>
</svg>
