<svg width="600" height="400" viewBox="0 0 600 400" xmlns="http://www.w3.org/2000/svg">
<rect x="0" y="0" width="600" height="400" opacity="1" fill="#FFFFFF" stroke="none"/>
<line opacity="0.1" stroke="#000000" stroke-width="1" x1="60" y1="337" x2="589" y2="337"/>
<line opacity="0.1" stroke="#000000" stroke-width="1" x1="60" y1="331" x2="589" y2="331"/>
<line opacity="0.1" stroke="#000000" stroke-width="1" x1="60" y1="324" x2="589" y2="324"/>
<line opacity="0.1" stroke="#000000" stroke-width="1" x1="60" y1="317" x2="589" y2="317"/>
<line opacity="0.1" stroke="#000000" stroke-width="1" x1="60" y1="310" x2="589" y2="310"/>
<line opacity="0.1" stroke="#000000" stroke-width="1" x1="60" y1="303" x2="589" y2="303"/>
<line opacity="0.1" stroke="#000000" stroke-width="1" x1="60" y1="296" x2="589" y2="296"/>
<line opacity="0.1" stroke="#000000" stroke-width="1" x1="60" y1="290" x2="589" y2="290"/>
<line opacity="0.1" stroke="#000000" stroke-width="1" x1="60" y1="283" x2="589" y2="283"/>
<line opacity="0.1" stroke="#000000" stroke-width="1" x1="60" y1="276" x2="589" y2="276"/>
<line opacity="0.1" stroke="#000000" stroke-width="1" x1="60" y1="269" x2="589" y2="269"/>
<line opacity="0.1" stroke="#000000" stroke-width="1" x1="60" y1="262" x2="589" y2="262"/>
<line opacity="0.1" stroke="#000000" stroke-width="1" x1="60" y1="256" x2="589" y2="256"/>
<line opacity="0.1" stroke="#000000" stroke-width="1" x1="60" y1="249" x2="589" y2="249"/>
<line opacity="0.1" stroke="#000000" stroke-width="1" x1="60" y1="242" x2="589" y2="242"/>
<line opacity="0.1" stroke="#000000" stroke-width="1" x1="60" y1="235" x2="589" y2="235"/>
<line opacity="0.1" stroke="#000000" stroke-width="1" x1="60" y1="228" x2="589" y2="228"/>
<line opacity="0.1" stroke="#000000" stroke-width="1" x1="60" y1="222" x2="589" y2="222"/>
<line opacity="0.1" stroke="#000000" stroke-width="1" x1="60" y1="215" x2="589" y2="215"/>
<line opacity="0.1" stroke="#000000" stroke-width="1" x1="60" y1="208" x2="589" y2="208"/>
<line opacity="0.1" stroke="#000000" stroke-width="1" x1="60" y1="201" x2="589" y2="201"/>
<line opacity="0.1" stroke="#000000" stroke-width="1" x1="60" y1="194" x2="589" y2="194"/>
<line opacity="0.1" stroke="#000000" stroke-width="1" x1="60" y1="188" x2="589" y2="188"/>
<line opacity="0.1" stroke="#000000" stroke-width="1" x1="60" y1="181" x2="589" y2="181"/>
<line opacity="0.1" stroke="#000000" stroke-width="1" x1="60" y1="174" x2="589" y2="174"/>
<line opacity="0.1" stroke="#000000" stroke-width="1" x1="60" y1="167" x2="589" y2="167"/>
<line opacity="0.1" stroke="#000000" stroke-width="1" x1="60" y1="160" x2="589" y2="160"/>
<line opacity="0.1" stroke="#000000" stroke-width="1" x1="60" y1="154" x2="589" y2="154"/>
<line opacity="0.1" stroke="#000000" stroke-width="1" x1="60" y1="147" x2="589" y2="147"/>
<line opacity="0.1" stroke="#000000" stroke-width="1" x1="60" y1="140" x2="589" y2="140"/>
<line opacity="0.1" stroke="#000000" stroke-width="1" x1="60" y1="133" x2="589" y2="133"/>
<line opacity="0.1" stroke="#000000" stroke-width="1" x1="60" y1="126" x2="589" y2="126"/>
<line opacity="0.1" stroke="#000000" stroke-width="1" x1="60" y1="120" x2="589" y2="120"/>
<line opacity="0.1" stroke="#000000" stroke-width="1" x1="60" y1="113" x2="589" y2="113"/>
<line opacity="0.1" stroke="#000000" stroke-width="1" x1="60" y1="106" x2="589" y2="106"/>
<line opacity="0.1" stroke="#000000" stroke-width="1" x1="60" y1="99" x2="589" y2="99"/>
<line opacity="0.1" stroke="#000000" stroke-width="1" x1="60" y1="92" x2="589" y2="92"/>
<line opacity="0.1" stroke="#000000" stroke-width="1" x1="60" y1="86" x2="589" y2="86"/>
<line opacity="0.1" stroke="#000000" stroke-width="1" x1="60" y1="79" x2="589" y2="79"/>
<line opacity="0.1" stroke="#000000" stroke-width="1" x1="60" y1="72" x2="589" y2="72"/>
<line opacity="0.1" stroke="#000000" stroke-width="1" x1="60" y1="65" x2="589" y2="65"/>
<line opacity="0.1" stroke="#000000" stroke-width="1" x1="60" y1="58" x2="589" y2="58"/>
<line opacity="0.1" stroke="#000000" stroke-width="1" x1="60" y1="51" x2="589" y2="51"/>
<line opacity="0.1" stroke="#000000" stroke-width="1" x1="60" y1="45" x2="589" y2="45"/>
<line opacity="0.1" stroke="#000000" stroke-width="1" x1="60" y1="38" x2="589" y2="38"/>
<line opacity="0.1" stroke="#000000" stroke-width="1" x1="60" y1="31" x2="589" y2="31"/>
<line opacity="0.1" stroke="#000000" stroke-width="1" x1="60" y1="24" x2="589" y2="24"/>
<line opacity="0.1" stroke="#000000" stroke-width="1" x1="60" y1="17" x2="589" y2="17"/>
<line opacity="0.1" stroke="#000000" stroke-width="1" x1="60" y1="11" x2="589" y2="11"/>
<text x="10" y="175" dy="0.76em" text-anchor="middle" font-family="sans-serif" font-size="9.67741935483871" opacity="1" fill="#000000" transform="rotate(270, 10, 175)">
Number of dependent crates
</text>
<line opacity="0.2" stroke="#000000" stroke-width="1" x1="60" y1="317" x2="589" y2="317"/>
<line opacity="0.2" stroke="#000000" stroke-width="1" x1="60" y1="249" x2="589" y2="249"/>
<line opacity="0.2" stroke="#000000" stroke-width="1" x1="60" y1="181" x2="589" y2="181"/>
<line opacity="0.2" stroke="#000000" stroke-width="1" x1="60" y1="113" x2="589" y2="113"/>
<line opacity="0.2" stroke="#000000" stroke-width="1" x1="60" y1="45" x2="589" y2="45"/>
<polyline fill="none" opacity="1" stroke="#000000" stroke-width="1" points="59,10 59,339 "/>
<text x="50" y="317" dy="0.5ex" text-anchor="end" font-family="sans-serif" font-size="9.67741935483871" opacity="1" fill="#000000">
15000
</text>
<polyline fill="none" opacity="1" stroke="#000000" stroke-width="1" points="54,317 59,317 "/>
<text x="50" y="249" dy="0.5ex" text-anchor="end" font-family="sans-serif" font-size="9.67741935483871" opacity="1" fill="#000000">
20000
</text>
<polyline fill="none" opacity="1" stroke="#000000" stroke-width="1" points="54,249 59,249 "/>
<text x="50" y="181" dy="0.5ex" text-anchor="end" font-family="sans-serif" font-size="9.67741935483871" opacity="1" fill="#000000">
25000
</text>
<polyline fill="none" opacity="1" stroke="#000000" stroke-width="1" points="54,181 59,181 "/>
<text x="50" y="113" dy="0.5ex" text-anchor="end" font-family="sans-serif" font-size="9.67741935483871" opacity="1" fill="#000000">
30000
</text>
<polyline fill="none" opacity="1" stroke="#000000" stroke-width="1" points="54,113 59,113 "/>
<text x="50" y="45" dy="0.5ex" text-anchor="end" font-family="sans-serif" font-size="9.67741935483871" opacity="1" fill="#000000">
35000
</text>
<polyline fill="none" opacity="1" stroke="#000000" stroke-width="1" points="54,45 59,45 "/>
<polyline fill="none" opacity="1" stroke="#000000" stroke-width="1" points="60,340 589,340 "/>
<text x="60" y="350" dy="0.76em" text-anchor="middle" font-family="sans-serif" font-size="9.67741935483871" opacity="1" fill="#000000">
2024-05-05
</text>
<polyline fill="none" opacity="1" stroke="#000000" stroke-width="1" points="60,340 60,345 "/>
<text x="192" y="350" dy="0.76em" text-anchor="middle" font-family="sans-serif" font-size="9.67741935483871" opacity="1" fill="#000000">
2024-05-12
</text>
<polyline fill="none" opacity="1" stroke="#000000" stroke-width="1" points="192,340 192,345 "/>
<text x="324" y="350" dy="0.76em" text-anchor="middle" font-family="sans-serif" font-size="9.67741935483871" opacity="1" fill="#000000">
2024-05-19
</text>
<polyline fill="none" opacity="1" stroke="#000000" stroke-width="1" points="324,340 324,345 "/>
<text x="456" y="350" dy="0.76em" text-anchor="middle" font-family="sans-serif" font-size="9.67741935483871" opacity="1" fill="#000000">
2024-05-26
</text>
<polyline fill="none" opacity="1" stroke="#000000" stroke-width="1" points="456,340 456,345 "/>
<text x="589" y="350" dy="0.76em" text-anchor="middle" font-family="sans-serif" font-size="9.67741935483871" opacity="1" fill="#000000">
2024-06-02
</text>
<polyline fill="none" opacity="1" stroke="#000000" stroke-width="1" points="589,340 589,345 "/>
<polyline fill="none" opacity="1" stroke="#E61919" stroke-width="2" points="60,307 60,307 78,307 78,307 97,307 97,307 116,307 116,307 135,307 135,306 154,306 154,306 173,306 173,306 192,306 192,306 211,306 211,306 230,306 230,306 248,306 248,305 267,305 267,305 286,305 286,305 305,305 305,305 324,305 324,305 343,305 343,304 362,304 362,304 381,304 381,304 400,304 400,304 418,304 418,304 437,304 437,303 456,303 456,303 475,303 475,303 494,303 494,303 513,303 513,303 532,303 532,302 551,302 551,302 570,302 570,302 589,302 "/>
<polyline fill="none" opacity="1" stroke="#BDE619" stroke-width="2" points="60,67 60,66 78,66 78,66 97,66 97,66 116,66 116,65 135,65 135,65 154,65 154,65 173,65 173,65 192,65 192,64 211,64 211,64 230,64 230,63 248,63 248,63 267,63 267,63 286,63 286,62 305,62 305,62 324,62 324,62 343,62 343,61 362,61 362,61 381,61 381,60 400,60 400,60 418,60 418,60 437,60 437,59 456,59 456,59 475,59 475,59 494,59 494,58 513,58 513,58 532,58 532,58 551,58 551,57 570,57 570,57 589,57 "/>
<polyline fill="none" opacity="1" stroke="#19E66B" stroke-width="2" points="60,192 60,191 78,191 78,191 97,191 97,191 116,191 116,191 135,191 135,190 154,190 154,190 173,190 173,190 192,190 192,190 211,190 211,190 230,190 230,189 248,189 248,189 267,189 267,189 286,189 286,189 305,189 305,188 324,188 324,188 343,188 343,188 362,188 362,188 381,188 381,187 400,187 400,187 418,187 418,187 437,187 437,187 456,187 456,186 475,186 475,186 494,186 494,186 513,186 513,186 532,186 532,185 551,185 551,185 570,185 570,185 589,185 "/>
<polyline fill="none" opacity="1" stroke="#196BE6" stroke-width="2" points="60,319 60,319 78,319 78,319 97,319 97,319 116,319 116,318 135,318 135,318 154,318 154,318 173,318 173,318 192,318 192,318 211,318 211,317 230,317 230,317 248,317 248,317 267,317 267,317 286,317 286,316 305,316 305,316 324,316 324,316 343,316 343,316 362,316 362,315 381,315 381,315 400,315 400,315 418,315 418,315 437,315 437,315 456,315 456,315 475,315 475,314 494,314 494,314 513,314 513,314 532,314 532,314 551,314 551,314 570,314 570,313 589,313 "/>
<polyline fill="none" opacity="1" stroke="#BD19E6" stroke-width="2" points="60,247 60,247 78,247 78,247 97,247 97,246 116,246 116,246 135,246 135,246 154,246 154,246 173,246 173,245 192,245 192,245 211,245 211,245 230,245 230,245 248,245 248,244 267,244 267,244 286,244 286,244 305,244 305,244 324,244 324,244 343,244 343,244 362,244 362,243 381,243 381,243 400,243 400,243 418,243 418,242 437,242 437,242 456,242 456,242 475,242 475,242 494,242 494,241 513,241 513,241 532,241 532,241 551,241 551,241 570,241 570,240 589,240 "/>
<rect x="65" y="130" width="101" height="89" opacity="1" fill="#FFFFFF" stroke="none"/>
<rect x="65" y="130" width="101" height="89" opacity="1" fill="none" stroke="#000000"/>
<text x="105" y="140" dy="0.76em" text-anchor="start" font-family="sans-serif" font-size="9.67741935483871" opacity="1" fill="#000000">
clap
</text>
<text x="105" y="155" dy="0.76em" text-anchor="start" font-family="sans-serif" font-size="9.67741935483871" opacity="1" fill="#000000">
serde
</text>
<text x="105" y="170" dy="0.76em" text-anchor="start" font-family="sans-serif" font-size="9.67741935483871" opacity="1" fill="#000000">
serde_json
</text>
<text x="105" y="185" dy="0.76em" text-anchor="start" font-family="sans-serif" font-size="9.67741935483871" opacity="1" fill="#000000">
thiserror
</text>
<text x="105" y="200" dy="0.76em" text-anchor="start" font-family="sans-serif" font-size="9.67741935483871" opacity="1" fill="#000000">
tokio
</text>
<polyline fill="none" opacity="1" stroke="#E61919" stroke-width="2" points="75,144 95,144 "/>
<polyline fill="none" opacity="1" stroke="#BDE619" stroke-width="2" points="75,159 95,159 "/>
<polyline fill="none" opacity="1" stroke="#19E66B" stroke-width="2" points="75,174 95,174 "/>
<polyline fill="none" opacity="1" stroke="#196BE6" stroke-width="2" points="75,189 95,189 "/>
<polyline fill="none" opacity="1" stroke="#BD19E6" stroke-width="2" points="75,204 95,204 "/>
</svg>
