<svg width="600" height="400" xmlns="http://www.w3.org/2000/svg">
<rect x="0" y="0" width="599" height="399" opacity="1" fill="#FFFFFF" stroke="none"/>
<line opacity="0.1" stroke="#000000" stroke-width="1" x1="60" y1="334" x2="590" y2="334"/>
<line opacity="0.1" stroke="#000000" stroke-width="1" x1="60" y1="328" x2="590" y2="328"/>
<line opacity="0.1" stroke="#000000" stroke-width="1" x1="60" y1="323" x2="590" y2="323"/>
<line opacity="0.1" stroke="#000000" stroke-width="1" x1="60" y1="317" x2="590" y2="317"/>
<line opacity="0.1" stroke="#000000" stroke-width="1" x1="60" y1="312" x2="590" y2="312"/>
<line opacity="0.1" stroke="#000000" stroke-width="1" x1="60" y1="306" x2="590" y2="306"/>
<line opacity="0.1" stroke="#000000" stroke-width="1" x1="60" y1="301" x2="590" y2="301"/>
<line opacity="0.1" stroke="#000000" stroke-width="1" x1="60" y1="295" x2="590" y2="295"/>
<line opacity="0.1" stroke="#000000" stroke-width="1" x1="60" y1="289" x2="590" y2="289"/>
<line opacity="0.1" stroke="#000000" stroke-width="1" x1="60" y1="284" x2="590" y2="284"/>
<line opacity="0.1" stroke="#000000" stroke-width="1" x1="60" y1="278" x2="590" y2="278"/>
<line opacity="0.1" stroke="#000000" stroke-width="1" x1="60" y1="273" x2="590" y2="273"/>
<line opacity="0.1" stroke="#000000" stroke-width="1" x1="60" y1="267" x2="590" y2="267"/>
<line opacity="0.1" stroke="#000000" stroke-width="1" x1="60" y1="261" x2="590" y2="261"/>
<line opacity="0.1" stroke="#000000" stroke-width="1" x1="60" y1="256" x2="590" y2="256"/>
<line opacity="0.1" stroke="#000000" stroke-width="1" x1="60" y1="250" x2="590" y2="250"/>
<line opacity="0.1" stroke="#000000" stroke-width="1" x1="60" y1="245" x2="590" y2="245"/>
<line opacity="0.1" stroke="#000000" stroke-width="1" x1="60" y1="239" x2="590" y2="239"/>
<line opacity="0.1" stroke="#000000" stroke-width="1" x1="60" y1="233" x2="590" y2="233"/>
<line opacity="0.1" stroke="#000000" stroke-width="1" x1="60" y1="228" x2="590" y2="228"/>
<line opacity="0.1" stroke="#000000" stroke-width="1" x1="60" y1="222" x2="590" y2="222"/>
<line opacity="0.1" stroke="#000000" stroke-width="1" x1="60" y1="217" x2="590" y2="217"/>
<line opacity="0.1" stroke="#000000" stroke-width="1" x1="60" y1="211" x2="590" y2="211"/>
<line opacity="0.1" stroke="#000000" stroke-width="1" x1="60" y1="206" x2="590" y2="206"/>
<line opacity="0.1" stroke="#000000" stroke-width="1" x1="60" y1="200" x2="590" y2="200"/>
<line opacity="0.1" stroke="#000000" stroke-width="1" x1="60" y1="194" x2="590" y2="194"/>
<line opacity="0.1" stroke="#000000" stroke-width="1" x1="60" y1="189" x2="590" y2="189"/>
<line opacity="0.1" stroke="#000000" stroke-width="1" x1="60" y1="183" x2="590" y2="183"/>
<line opacity="0.1" stroke="#000000" stroke-width="1" x1="60" y1="178" x2="590" y2="178"/>
<line opacity="0.1" stroke="#000000" stroke-width="1" x1="60" y1="172" x2="590" y2="172"/>
<line opacity="0.1" stroke="#000000" stroke-width="1" x1="60" y1="166" x2="590" y2="166"/>
<line opacity="0.1" stroke="#000000" stroke-width="1" x1="60" y1="161" x2="590" y2="161"/>
<line opacity="0.1" stroke="#000000" stroke-width="1" x1="60" y1="155" x2="590" y2="155"/>
<line opacity="0.1" stroke="#000000" stroke-width="1" x1="60" y1="150" x2="590" y2="150"/>
<line opacity="0.1" stroke="#000000" stroke-width="1" x1="60" y1="144" x2="590" y2="144"/>
<line opacity="0.1" stroke="#000000" stroke-width="1" x1="60" y1="138" x2="590" y2="138"/>
<line opacity="0.1" stroke="#000000" stroke-width="1" x1="60" y1="133" x2="590" y2="133"/>
<line opacity="0.1" stroke="#000000" stroke-width="1" x1="60" y1="127" x2="590" y2="127"/>
<line opacity="0.1" stroke="#000000" stroke-width="1" x1="60" y1="122" x2="590" y2="122"/>
<line opacity="0.1" stroke="#000000" stroke-width="1" x1="60" y1="116" x2="590" y2="116"/>
<line opacity="0.1" stroke="#000000" stroke-width="1" x1="60" y1="110" x2="590" y2="110"/>
<line opacity="0.1" stroke="#000000" stroke-width="1" x1="60" y1="105" x2="590" y2="105"/>
<line opacity="0.1" stroke="#000000" stroke-width="1" x1="60" y1="99" x2="590" y2="99"/>
<line opacity="0.1" stroke="#000000" stroke-width="1" x1="60" y1="94" x2="590" y2="94"/>
<line opacity="0.1" stroke="#000000" stroke-width="1" x1="60" y1="88" x2="590" y2="88"/>
<line opacity="0.1" stroke="#000000" stroke-width="1" x1="60" y1="83" x2="590" y2="83"/>
<line opacity="0.1" stroke="#000000" stroke-width="1" x1="60" y1="77" x2="590" y2="77"/>
<line opacity="0.1" stroke="#000000" stroke-width="1" x1="60" y1="71" x2="590" y2="71"/>
<line opacity="0.1" stroke="#000000" stroke-width="1" x1="60" y1="66" x2="590" y2="66"/>
<line opacity="0.1" stroke="#000000" stroke-width="1" x1="60" y1="60" x2="590" y2="60"/>
<line opacity="0.1" stroke="#000000" stroke-width="1" x1="60" y1="55" x2="590" y2="55"/>
<line opacity="0.1" stroke="#000000" stroke-width="1" x1="60" y1="49" x2="590" y2="49"/>
<line opacity="0.1" stroke="#000000" stroke-width="1" x1="60" y1="43" x2="590" y2="43"/>
<line opacity="0.1" stroke="#000000" stroke-width="1" x1="60" y1="38" x2="590" y2="38"/>
<line opacity="0.1" stroke="#000000" stroke-width="1" x1="60" y1="32" x2="590" y2="32"/>
<line opacity="0.1" stroke="#000000" stroke-width="1" x1="60" y1="27" x2="590" y2="27"/>
<line opacity="0.1" stroke="#000000" stroke-width="1" x1="60" y1="21" x2="590" y2="21"/>
<line opacity="0.1" stroke="#000000" stroke-width="1" x1="60" y1="15" x2="590" y2="15"/>
<line opacity="0.1" stroke="#000000" stroke-width="1" x1="60" y1="10" x2="590" y2="10"/>
<text x="10" y="175" dy="0.76em" text-anchor="middle" font-family="sans-serif" font-size="9.67741935483871" opacity="1" fill="#000000" transform="rotate(270, 10, 175)">
Fraction of dependent crates
</text>
<line opacity="0.2" stroke="#000000" stroke-width="1" x1="60" y1="301" x2="590" y2="301"/>
<line opacity="0.2" stroke="#000000" stroke-width="1" x1="60" y1="245" x2="590" y2="245"/>
<line opacity="0.2" stroke="#000000" stroke-width="1" x1="60" y1="189" x2="590" y2="189"/>
<line opacity="0.2" stroke="#000000" stroke-width="1" x1="60" y1="133" x2="590" y2="133"/>
<line opacity="0.2" stroke="#000000" stroke-width="1" x1="60" y1="77" x2="590" y2="77"/>
<polyline fill="none" opacity="1" stroke="#000000" stroke-width="1" points="59,10 59,340 "/>
<text x="50" y="301" dy="0.5ex" text-anchor="end" font-family="sans-serif" font-size="9.67741935483871" opacity="1" fill="#000000">
0.01
</text>
<polyline fill="none" opacity="1" stroke="#000000" stroke-width="1" points="54,301 59,301 "/>
<text x="50" y="245" dy="0.5ex" text-anchor="end" font-family="sans-serif" font-size="9.67741935483871" opacity="1" fill="#000000">
0.02
</text>
<polyline fill="none" opacity="1" stroke="#000000" stroke-width="1" points="54,245 59,245 "/>
<text x="50" y="189" dy="0.5ex" text-anchor="end" font-family="sans-serif" font-size="9.67741935483871" opacity="1" fill="#000000">
0.03
</text>
<polyline fill="none" opacity="1" stroke="#000000" stroke-width="1" points="54,189 59,189 "/>
<text x="50" y="133" dy="0.5ex" text-anchor="end" font-family="sans-serif" font-size="9.67741935483871" opacity="1" fill="#000000">
0.04
</text>
<polyline fill="none" opacity="1" stroke="#000000" stroke-width="1" points="54,133 59,133 "/>
<text x="50" y="77" dy="0.5ex" text-anchor="end" font-family="sans-serif" font-size="9.67741935483871" opacity="1" fill="#000000">
0.05
</text>
<polyline fill="none" opacity="1" stroke="#000000" stroke-width="1" points="54,77 59,77 "/>
<polyline fill="none" opacity="1" stroke="#000000" stroke-width="1" points="60,340 590,340 "/>
<text x="60" y="350" dy="0.76em" text-anchor="middle" font-family="sans-serif" font-size="9.67741935483871" opacity="1" fill="#000000">
2020-08-02Z
</text>
<polyline fill="none" opacity="1" stroke="#000000" stroke-width="1" points="60,340 60,345 "/>
<text x="192" y="350" dy="0.76em" text-anchor="middle" font-family="sans-serif" font-size="9.67741935483871" opacity="1" fill="#000000">
2020-08-09Z
</text>
<polyline fill="none" opacity="1" stroke="#000000" stroke-width="1" points="192,340 192,345 "/>
<text x="325" y="350" dy="0.76em" text-anchor="middle" font-family="sans-serif" font-size="9.67741935483871" opacity="1" fill="#000000">
2020-08-16Z
</text>
<polyline fill="none" opacity="1" stroke="#000000" stroke-width="1" points="325,340 325,345 "/>
<text x="457" y="350" dy="0.76em" text-anchor="middle" font-family="sans-serif" font-size="9.67741935483871" opacity="1" fill="#000000">
2020-08-23Z
</text>
<polyline fill="none" opacity="1" stroke="#000000" stroke-width="1" points="457,340 457,345 "/>
<text x="590" y="350" dy="0.76em" text-anchor="middle" font-family="sans-serif" font-size="9.67741935483871" opacity="1" fill="#000000">
2020-08-30Z
</text>
<polyline fill="none" opacity="1" stroke="#000000" stroke-width="1" points="590,340 590,345 "/>
<polyline fill="none" opacity="1" stroke="#E61919" stroke-width="2" points="60,237 60,236 78,236 78,236 97,236 97,236 116,236 116,235 135,235 135,234 154,234 154,234 173,234 173,233 192,233 211,233 211,232 230,232 230,231 249,231 249,230 268,230 268,230 287,230 287,229 306,229 306,228 325,228 325,228 343,228 343,227 362,227 362,227 381,227 381,226 400,226 400,225 419,225 419,225 438,225 438,225 457,225 457,225 476,225 476,224 495,224 495,223 514,223 514,223 533,223 533,223 552,223 552,222 571,222 571,221 590,221 "/>
<polyline fill="none" opacity="1" stroke="#BDE619" stroke-width="2" points="60,317 60,317 78,317 78,317 97,317 97,316 116,316 116,316 135,316 135,316 154,316 154,316 173,316 173,316 192,316 211,316 211,316 230,316 230,316 249,316 249,316 268,316 268,315 287,315 287,315 306,315 306,315 325,315 325,315 343,315 343,315 362,315 362,314 381,314 381,314 400,314 400,314 419,314 419,314 438,314 438,314 457,314 457,314 476,314 476,313 495,313 495,313 514,313 514,313 533,313 533,312 552,312 552,312 571,312 571,312 590,312 "/>
<polyline fill="none" opacity="1" stroke="#19E66B" stroke-width="2" points="60,232 60,232 78,232 78,231 97,231 97,231 116,231 116,230 135,230 135,230 154,230 154,229 173,229 173,228 192,228 211,228 211,227 230,227 230,227 249,227 249,226 268,226 268,225 287,225 287,225 306,225 306,223 325,223 325,223 343,223 343,222 362,222 362,222 381,222 381,221 400,221 400,221 419,221 419,219 438,219 438,219 457,219 457,218 476,218 476,217 495,217 495,217 514,217 514,217 533,217 533,216 552,216 552,215 571,215 571,215 590,215 "/>
<polyline fill="none" opacity="1" stroke="#196BE6" stroke-width="2" points="60,49 60,49 78,49 78,49 97,49 97,48 116,48 116,48 135,48 135,47 154,47 154,47 173,47 173,47 192,47 211,47 211,46 230,46 230,45 249,45 249,45 268,45 268,44 287,44 287,45 306,45 306,45 325,45 325,45 343,45 343,44 362,44 362,44 381,44 381,43 400,43 400,43 419,43 419,43 438,43 438,43 457,43 457,43 476,43 476,42 495,42 495,42 514,42 514,42 533,42 533,41 552,41 552,41 571,41 571,40 590,40 "/>
<polyline fill="none" opacity="1" stroke="#BD19E6" stroke-width="2" points="60,337 60,336 78,336 78,336 97,336 97,335 116,335 116,335 135,335 135,335 154,335 154,335 173,335 173,335 192,335 211,335 211,334 230,334 230,334 249,334 249,334 268,334 268,334 287,334 287,334 306,334 306,333 325,333 325,333 343,333 343,333 362,333 362,333 381,333 381,333 400,333 400,332 419,332 419,332 438,332 438,332 457,332 457,332 476,332 476,332 495,332 495,332 514,332 514,332 533,332 533,332 552,332 552,332 571,332 571,332 590,332 "/>
<rect x="488" y="129" width="97" height="91" opacity="1" fill="#FFFFFF" stroke="none"/>
<rect x="488" y="129" width="97" height="91" opacity="1" fill="none" stroke="#000000"/>
<text x="528" y="139" dy="0.76em" text-anchor="start" font-family="sans-serif" font-size="9.67741935483871" opacity="1" fill="#000000">
anyhow
</text>
<text x="528" y="154" dy="0.76em" text-anchor="start" font-family="sans-serif" font-size="9.67741935483871" opacity="1" fill="#000000">
once_cell
</text>
<text x="528" y="169" dy="0.76em" text-anchor="start" font-family="sans-serif" font-size="9.67741935483871" opacity="1" fill="#000000">
thiserror
</text>
<text x="528" y="184" dy="0.76em" text-anchor="start" font-family="sans-serif" font-size="9.67741935483871" opacity="1" fill="#000000">
tokio
</text>
<text x="528" y="199" dy="0.76em" text-anchor="start" font-family="sans-serif" font-size="9.67741935483871" opacity="1" fill="#000000">
tracing
</text>
<polyline fill="none" opacity="1" stroke="#E61919" stroke-width="2" points="498,144 518,144 "/>
<polyline fill="none" opacity="1" stroke="#BDE619" stroke-width="2" points="498,159 518,159 "/>
<polyline fill="none" opacity="1" stroke="#19E66B" stroke-width="2" points="498,173 518,173 "/>
<polyline fill="none" opacity="1" stroke="#196BE6" stroke-width="2" points="498,188 518,188 "/>
<polyline fill="none" opacity="1" stroke="#BD19E6" stroke-width="2" points="498,204 518,204 "/>
</svg>
