<svg width="600" height="400" xmlns="http://www.w3.org/2000/svg">
<rect x="0" y="0" width="599" height="399" opacity="1" fill="#FFFFFF" stroke="none"/>
<line opacity="0.1" stroke="#000000" stroke-width="1" x1="60" y1="334" x2="590" y2="334"/>
<line opacity="0.1" stroke="#000000" stroke-width="1" x1="60" y1="329" x2="590" y2="329"/>
<line opacity="0.1" stroke="#000000" stroke-width="1" x1="60" y1="324" x2="590" y2="324"/>
<line opacity="0.1" stroke="#000000" stroke-width="1" x1="60" y1="318" x2="590" y2="318"/>
<line opacity="0.1" stroke="#000000" stroke-width="1" x1="60" y1="313" x2="590" y2="313"/>
<line opacity="0.1" stroke="#000000" stroke-width="1" x1="60" y1="308" x2="590" y2="308"/>
<line opacity="0.1" stroke="#000000" stroke-width="1" x1="60" y1="303" x2="590" y2="303"/>
<line opacity="0.1" stroke="#000000" stroke-width="1" x1="60" y1="297" x2="590" y2="297"/>
<line opacity="0.1" stroke="#000000" stroke-width="1" x1="60" y1="292" x2="590" y2="292"/>
<line opacity="0.1" stroke="#000000" stroke-width="1" x1="60" y1="287" x2="590" y2="287"/>
<line opacity="0.1" stroke="#000000" stroke-width="1" x1="60" y1="282" x2="590" y2="282"/>
<line opacity="0.1" stroke="#000000" stroke-width="1" x1="60" y1="277" x2="590" y2="277"/>
<line opacity="0.1" stroke="#000000" stroke-width="1" x1="60" y1="271" x2="590" y2="271"/>
<line opacity="0.1" stroke="#000000" stroke-width="1" x1="60" y1="266" x2="590" y2="266"/>
<line opacity="0.1" stroke="#000000" stroke-width="1" x1="60" y1="261" x2="590" y2="261"/>
<line opacity="0.1" stroke="#000000" stroke-width="1" x1="60" y1="256" x2="590" y2="256"/>
<line opacity="0.1" stroke="#000000" stroke-width="1" x1="60" y1="250" x2="590" y2="250"/>
<line opacity="0.1" stroke="#000000" stroke-width="1" x1="60" y1="245" x2="590" y2="245"/>
<line opacity="0.1" stroke="#000000" stroke-width="1" x1="60" y1="240" x2="590" y2="240"/>
<line opacity="0.1" stroke="#000000" stroke-width="1" x1="60" y1="235" x2="590" y2="235"/>
<line opacity="0.1" stroke="#000000" stroke-width="1" x1="60" y1="230" x2="590" y2="230"/>
<line opacity="0.1" stroke="#000000" stroke-width="1" x1="60" y1="224" x2="590" y2="224"/>
<line opacity="0.1" stroke="#000000" stroke-width="1" x1="60" y1="219" x2="590" y2="219"/>
<line opacity="0.1" stroke="#000000" stroke-width="1" x1="60" y1="214" x2="590" y2="214"/>
<line opacity="0.1" stroke="#000000" stroke-width="1" x1="60" y1="209" x2="590" y2="209"/>
<line opacity="0.1" stroke="#000000" stroke-width="1" x1="60" y1="204" x2="590" y2="204"/>
<line opacity="0.1" stroke="#000000" stroke-width="1" x1="60" y1="198" x2="590" y2="198"/>
<line opacity="0.1" stroke="#000000" stroke-width="1" x1="60" y1="193" x2="590" y2="193"/>
<line opacity="0.1" stroke="#000000" stroke-width="1" x1="60" y1="188" x2="590" y2="188"/>
<line opacity="0.1" stroke="#000000" stroke-width="1" x1="60" y1="183" x2="590" y2="183"/>
<line opacity="0.1" stroke="#000000" stroke-width="1" x1="60" y1="177" x2="590" y2="177"/>
<line opacity="0.1" stroke="#000000" stroke-width="1" x1="60" y1="172" x2="590" y2="172"/>
<line opacity="0.1" stroke="#000000" stroke-width="1" x1="60" y1="167" x2="590" y2="167"/>
<line opacity="0.1" stroke="#000000" stroke-width="1" x1="60" y1="162" x2="590" y2="162"/>
<line opacity="0.1" stroke="#000000" stroke-width="1" x1="60" y1="157" x2="590" y2="157"/>
<line opacity="0.1" stroke="#000000" stroke-width="1" x1="60" y1="151" x2="590" y2="151"/>
<line opacity="0.1" stroke="#000000" stroke-width="1" x1="60" y1="146" x2="590" y2="146"/>
<line opacity="0.1" stroke="#000000" stroke-width="1" x1="60" y1="141" x2="590" y2="141"/>
<line opacity="0.1" stroke="#000000" stroke-width="1" x1="60" y1="136" x2="590" y2="136"/>
<line opacity="0.1" stroke="#000000" stroke-width="1" x1="60" y1="130" x2="590" y2="130"/>
<line opacity="0.1" stroke="#000000" stroke-width="1" x1="60" y1="125" x2="590" y2="125"/>
<line opacity="0.1" stroke="#000000" stroke-width="1" x1="60" y1="120" x2="590" y2="120"/>
<line opacity="0.1" stroke="#000000" stroke-width="1" x1="60" y1="115" x2="590" y2="115"/>
<line opacity="0.1" stroke="#000000" stroke-width="1" x1="60" y1="110" x2="590" y2="110"/>
<line opacity="0.1" stroke="#000000" stroke-width="1" x1="60" y1="104" x2="590" y2="104"/>
<line opacity="0.1" stroke="#000000" stroke-width="1" x1="60" y1="99" x2="590" y2="99"/>
<line opacity="0.1" stroke="#000000" stroke-width="1" x1="60" y1="94" x2="590" y2="94"/>
<line opacity="0.1" stroke="#000000" stroke-width="1" x1="60" y1="89" x2="590" y2="89"/>
<line opacity="0.1" stroke="#000000" stroke-width="1" x1="60" y1="84" x2="590" y2="84"/>
<line opacity="0.1" stroke="#000000" stroke-width="1" x1="60" y1="78" x2="590" y2="78"/>
<line opacity="0.1" stroke="#000000" stroke-width="1" x1="60" y1="73" x2="590" y2="73"/>
<line opacity="0.1" stroke="#000000" stroke-width="1" x1="60" y1="68" x2="590" y2="68"/>
<line opacity="0.1" stroke="#000000" stroke-width="1" x1="60" y1="63" x2="590" y2="63"/>
<line opacity="0.1" stroke="#000000" stroke-width="1" x1="60" y1="57" x2="590" y2="57"/>
<line opacity="0.1" stroke="#000000" stroke-width="1" x1="60" y1="52" x2="590" y2="52"/>
<line opacity="0.1" stroke="#000000" stroke-width="1" x1="60" y1="47" x2="590" y2="47"/>
<line opacity="0.1" stroke="#000000" stroke-width="1" x1="60" y1="42" x2="590" y2="42"/>
<line opacity="0.1" stroke="#000000" stroke-width="1" x1="60" y1="37" x2="590" y2="37"/>
<line opacity="0.1" stroke="#000000" stroke-width="1" x1="60" y1="31" x2="590" y2="31"/>
<line opacity="0.1" stroke="#000000" stroke-width="1" x1="60" y1="26" x2="590" y2="26"/>
<line opacity="0.1" stroke="#000000" stroke-width="1" x1="60" y1="21" x2="590" y2="21"/>
<line opacity="0.1" stroke="#000000" stroke-width="1" x1="60" y1="16" x2="590" y2="16"/>
<line opacity="0.1" stroke="#000000" stroke-width="1" x1="60" y1="11" x2="590" y2="11"/>
<text x="10" y="175" dy="0.76em" text-anchor="middle" font-family="sans-serif" font-size="9.67741935483871" opacity="1" fill="#000000" transform="rotate(270, 10, 175)">
Fraction of dependent crates
</text>
<line opacity="0.2" stroke="#000000" stroke-width="1" x1="60" y1="303" x2="590" y2="303"/>
<line opacity="0.2" stroke="#000000" stroke-width="1" x1="60" y1="250" x2="590" y2="250"/>
<line opacity="0.2" stroke="#000000" stroke-width="1" x1="60" y1="198" x2="590" y2="198"/>
<line opacity="0.2" stroke="#000000" stroke-width="1" x1="60" y1="146" x2="590" y2="146"/>
<line opacity="0.2" stroke="#000000" stroke-width="1" x1="60" y1="94" x2="590" y2="94"/>
<polyline fill="none" opacity="1" stroke="#000000" stroke-width="1" points="59,10 59,340 "/>
<text x="50" y="303" dy="0.5ex" text-anchor="end" font-family="sans-serif" font-size="9.67741935483871" opacity="1" fill="#000000">
0.01
</text>
<polyline fill="none" opacity="1" stroke="#000000" stroke-width="1" points="54,303 59,303 "/>
<text x="50" y="250" dy="0.5ex" text-anchor="end" font-family="sans-serif" font-size="9.67741935483871" opacity="1" fill="#000000">
0.02
</text>
<polyline fill="none" opacity="1" stroke="#000000" stroke-width="1" points="54,250 59,250 "/>
<text x="50" y="198" dy="0.5ex" text-anchor="end" font-family="sans-serif" font-size="9.67741935483871" opacity="1" fill="#000000">
0.03
</text>
<polyline fill="none" opacity="1" stroke="#000000" stroke-width="1" points="54,198 59,198 "/>
<text x="50" y="146" dy="0.5ex" text-anchor="end" font-family="sans-serif" font-size="9.67741935483871" opacity="1" fill="#000000">
0.04
</text>
<polyline fill="none" opacity="1" stroke="#000000" stroke-width="1" points="54,146 59,146 "/>
<text x="50" y="94" dy="0.5ex" text-anchor="end" font-family="sans-serif" font-size="9.67741935483871" opacity="1" fill="#000000">
0.05
</text>
<polyline fill="none" opacity="1" stroke="#000000" stroke-width="1" points="54,94 59,94 "/>
<polyline fill="none" opacity="1" stroke="#000000" stroke-width="1" points="60,340 590,340 "/>
<text x="60" y="350" dy="0.76em" text-anchor="middle" font-family="sans-serif" font-size="9.67741935483871" opacity="1" fill="#000000">
2019-12-22Z
</text>
<polyline fill="none" opacity="1" stroke="#000000" stroke-width="1" points="60,340 60,345 "/>
<text x="197" y="350" dy="0.76em" text-anchor="middle" font-family="sans-serif" font-size="9.67741935483871" opacity="1" fill="#000000">
2019-12-29Z
</text>
<polyline fill="none" opacity="1" stroke="#000000" stroke-width="1" points="197,340 197,345 "/>
<text x="334" y="350" dy="0.76em" text-anchor="middle" font-family="sans-serif" font-size="9.67741935483871" opacity="1" fill="#000000">
2020-01-05Z
</text>
<polyline fill="none" opacity="1" stroke="#000000" stroke-width="1" points="334,340 334,345 "/>
<text x="472" y="350" dy="0.76em" text-anchor="middle" font-family="sans-serif" font-size="9.67741935483871" opacity="1" fill="#000000">
2020-01-12Z
</text>
<polyline fill="none" opacity="1" stroke="#000000" stroke-width="1" points="472,340 472,345 "/>
<polyline fill="none" opacity="1" stroke="#E61919" stroke-width="2" points="60,336 79,335 99,335 118,335 138,335 158,334 177,334 197,334 217,334 236,333 256,333 275,332 295,331 315,331 334,331 354,331 374,331 393,330 413,329 432,329 452,329 472,328 491,327 511,326 531,326 531,326 550,326 550,326 570,326 570,326 590,326 590,325 "/>
<polyline fill="none" opacity="1" stroke="#BDE619" stroke-width="2" points="60,51 79,51 99,51 118,51 138,51 158,51 177,51 197,50 217,50 236,50 256,48 275,48 295,47 315,48 334,46 354,46 374,47 393,47 413,46 432,46 452,46 472,45 491,45 511,44 531,44 531,43 550,43 550,43 570,43 570,43 590,43 590,40 "/>
<polyline fill="none" opacity="1" stroke="#19E66B" stroke-width="2" points="60,337 79,336 99,335 118,335 138,335 158,335 177,334 197,334 217,334 236,334 256,334 275,333 295,333 315,333 334,332 354,331 374,331 393,331 413,330 432,330 452,330 472,329 491,329 511,329 531,328 531,328 550,328 550,327 570,327 570,327 590,327 590,326 "/>
<polyline fill="none" opacity="1" stroke="#196BE6" stroke-width="2" points="60,198 79,197 99,197 118,197 138,197 158,196 177,196 197,196 217,195 236,195 256,194 275,193 295,192 315,191 334,191 354,191 374,192 393,191 413,189 432,189 452,189 472,188 491,187 511,186 531,186 531,185 550,185 550,183 570,183 570,182 590,182 590,182 "/>
<polyline fill="none" opacity="1" stroke="#BD19E6" stroke-width="2" points="60,328 118,328 158,329 177,329 197,328 217,328 236,327 315,319 334,319 354,319 393,319 413,319 432,319 452,319 531,319 570,319 "/>
<rect x="491" y="130" width="94" height="89" opacity="1" fill="#FFFFFF" stroke="none"/>
<rect x="491" y="130" width="94" height="89" opacity="1" fill="none" stroke="#000000"/>
<text x="531" y="140" dy="0.76em" text-anchor="start" font-family="sans-serif" font-size="9.67741935483871" opacity="1" fill="#000000">
anyhow
</text>
<text x="531" y="155" dy="0.76em" text-anchor="start" font-family="sans-serif" font-size="9.67741935483871" opacity="1" fill="#000000">
futures
</text>
<text x="531" y="170" dy="0.76em" text-anchor="start" font-family="sans-serif" font-size="9.67741935483871" opacity="1" fill="#000000">
thiserror
</text>
<text x="531" y="185" dy="0.76em" text-anchor="start" font-family="sans-serif" font-size="9.67741935483871" opacity="1" fill="#000000">
tokio
</text>
<text x="531" y="200" dy="0.76em" text-anchor="start" font-family="sans-serif" font-size="9.67741935483871" opacity="1" fill="#000000">
vcell
</text>
<polyline fill="none" opacity="1" stroke="#E61919" stroke-width="2" points="501,145 521,145 "/>
<polyline fill="none" opacity="1" stroke="#BDE619" stroke-width="2" points="501,159 521,159 "/>
<polyline fill="none" opacity="1" stroke="#19E66B" stroke-width="2" points="501,174 521,174 "/>
<polyline fill="none" opacity="1" stroke="#196BE6" stroke-width="2" points="501,189 521,189 "/>
<polyline fill="none" opacity="1" stroke="#BD19E6" stroke-width="2" points="501,204 521,204 "/>
</svg>
