<svg width="600" height="400" viewBox="0 0 600 400" xmlns="http://www.w3.org/2000/svg">
<rect x="0" y="0" width="600" height="400" opacity="1" fill="#FFFFFF" stroke="none"/>
<line opacity="0.1" stroke="#000000" stroke-width="1" x1="60" y1="335" x2="589" y2="335"/>
<line opacity="0.1" stroke="#000000" stroke-width="1" x1="60" y1="331" x2="589" y2="331"/>
<line opacity="0.1" stroke="#000000" stroke-width="1" x1="60" y1="326" x2="589" y2="326"/>
<line opacity="0.1" stroke="#000000" stroke-width="1" x1="60" y1="322" x2="589" y2="322"/>
<line opacity="0.1" stroke="#000000" stroke-width="1" x1="60" y1="318" x2="589" y2="318"/>
<line opacity="0.1" stroke="#000000" stroke-width="1" x1="60" y1="313" x2="589" y2="313"/>
<line opacity="0.1" stroke="#000000" stroke-width="1" x1="60" y1="309" x2="589" y2="309"/>
<line opacity="0.1" stroke="#000000" stroke-width="1" x1="60" y1="305" x2="589" y2="305"/>
<line opacity="0.1" stroke="#000000" stroke-width="1" x1="60" y1="300" x2="589" y2="300"/>
<line opacity="0.1" stroke="#000000" stroke-width="1" x1="60" y1="296" x2="589" y2="296"/>
<line opacity="0.1" stroke="#000000" stroke-width="1" x1="60" y1="292" x2="589" y2="292"/>
<line opacity="0.1" stroke="#000000" stroke-width="1" x1="60" y1="287" x2="589" y2="287"/>
<line opacity="0.1" stroke="#000000" stroke-width="1" x1="60" y1="283" x2="589" y2="283"/>
<line opacity="0.1" stroke="#000000" stroke-width="1" x1="60" y1="279" x2="589" y2="279"/>
<line opacity="0.1" stroke="#000000" stroke-width="1" x1="60" y1="274" x2="589" y2="274"/>
<line opacity="0.1" stroke="#000000" stroke-width="1" x1="60" y1="270" x2="589" y2="270"/>
<line opacity="0.1" stroke="#000000" stroke-width="1" x1="60" y1="265" x2="589" y2="265"/>
<line opacity="0.1" stroke="#000000" stroke-width="1" x1="60" y1="261" x2="589" y2="261"/>
<line opacity="0.1" stroke="#000000" stroke-width="1" x1="60" y1="257" x2="589" y2="257"/>
<line opacity="0.1" stroke="#000000" stroke-width="1" x1="60" y1="252" x2="589" y2="252"/>
<line opacity="0.1" stroke="#000000" stroke-width="1" x1="60" y1="248" x2="589" y2="248"/>
<line opacity="0.1" stroke="#000000" stroke-width="1" x1="60" y1="244" x2="589" y2="244"/>
<line opacity="0.1" stroke="#000000" stroke-width="1" x1="60" y1="239" x2="589" y2="239"/>
<line opacity="0.1" stroke="#000000" stroke-width="1" x1="60" y1="235" x2="589" y2="235"/>
<line opacity="0.1" stroke="#000000" stroke-width="1" x1="60" y1="231" x2="589" y2="231"/>
<line opacity="0.1" stroke="#000000" stroke-width="1" x1="60" y1="226" x2="589" y2="226"/>
<line opacity="0.1" stroke="#000000" stroke-width="1" x1="60" y1="222" x2="589" y2="222"/>
<line opacity="0.1" stroke="#000000" stroke-width="1" x1="60" y1="217" x2="589" y2="217"/>
<line opacity="0.1" stroke="#000000" stroke-width="1" x1="60" y1="213" x2="589" y2="213"/>
<line opacity="0.1" stroke="#000000" stroke-width="1" x1="60" y1="209" x2="589" y2="209"/>
<line opacity="0.1" stroke="#000000" stroke-width="1" x1="60" y1="204" x2="589" y2="204"/>
<line opacity="0.1" stroke="#000000" stroke-width="1" x1="60" y1="200" x2="589" y2="200"/>
<line opacity="0.1" stroke="#000000" stroke-width="1" x1="60" y1="196" x2="589" y2="196"/>
<line opacity="0.1" stroke="#000000" stroke-width="1" x1="60" y1="191" x2="589" y2="191"/>
<line opacity="0.1" stroke="#000000" stroke-width="1" x1="60" y1="187" x2="589" y2="187"/>
<line opacity="0.1" stroke="#000000" stroke-width="1" x1="60" y1="183" x2="589" y2="183"/>
<line opacity="0.1" stroke="#000000" stroke-width="1" x1="60" y1="178" x2="589" y2="178"/>
<line opacity="0.1" stroke="#000000" stroke-width="1" x1="60" y1="174" x2="589" y2="174"/>
<line opacity="0.1" stroke="#000000" stroke-width="1" x1="60" y1="170" x2="589" y2="170"/>
<line opacity="0.1" stroke="#000000" stroke-width="1" x1="60" y1="165" x2="589" y2="165"/>
<line opacity="0.1" stroke="#000000" stroke-width="1" x1="60" y1="161" x2="589" y2="161"/>
<line opacity="0.1" stroke="#000000" stroke-width="1" x1="60" y1="156" x2="589" y2="156"/>
<line opacity="0.1" stroke="#000000" stroke-width="1" x1="60" y1="152" x2="589" y2="152"/>
<line opacity="0.1" stroke="#000000" stroke-width="1" x1="60" y1="148" x2="589" y2="148"/>
<line opacity="0.1" stroke="#000000" stroke-width="1" x1="60" y1="143" x2="589" y2="143"/>
<line opacity="0.1" stroke="#000000" stroke-width="1" x1="60" y1="139" x2="589" y2="139"/>
<line opacity="0.1" stroke="#000000" stroke-width="1" x1="60" y1="135" x2="589" y2="135"/>
<line opacity="0.1" stroke="#000000" stroke-width="1" x1="60" y1="130" x2="589" y2="130"/>
<line opacity="0.1" stroke="#000000" stroke-width="1" x1="60" y1="126" x2="589" y2="126"/>
<line opacity="0.1" stroke="#000000" stroke-width="1" x1="60" y1="122" x2="589" y2="122"/>
<line opacity="0.1" stroke="#000000" stroke-width="1" x1="60" y1="117" x2="589" y2="117"/>
<line opacity="0.1" stroke="#000000" stroke-width="1" x1="60" y1="113" x2="589" y2="113"/>
<line opacity="0.1" stroke="#000000" stroke-width="1" x1="60" y1="109" x2="589" y2="109"/>
<line opacity="0.1" stroke="#000000" stroke-width="1" x1="60" y1="104" x2="589" y2="104"/>
<line opacity="0.1" stroke="#000000" stroke-width="1" x1="60" y1="100" x2="589" y2="100"/>
<line opacity="0.1" stroke="#000000" stroke-width="1" x1="60" y1="95" x2="589" y2="95"/>
<line opacity="0.1" stroke="#000000" stroke-width="1" x1="60" y1="91" x2="589" y2="91"/>
<line opacity="0.1" stroke="#000000" stroke-width="1" x1="60" y1="87" x2="589" y2="87"/>
<line opacity="0.1" stroke="#000000" stroke-width="1" x1="60" y1="82" x2="589" y2="82"/>
<line opacity="0.1" stroke="#000000" stroke-width="1" x1="60" y1="78" x2="589" y2="78"/>
<line opacity="0.1" stroke="#000000" stroke-width="1" x1="60" y1="74" x2="589" y2="74"/>
<line opacity="0.1" stroke="#000000" stroke-width="1" x1="60" y1="69" x2="589" y2="69"/>
<line opacity="0.1" stroke="#000000" stroke-width="1" x1="60" y1="65" x2="589" y2="65"/>
<line opacity="0.1" stroke="#000000" stroke-width="1" x1="60" y1="61" x2="589" y2="61"/>
<line opacity="0.1" stroke="#000000" stroke-width="1" x1="60" y1="56" x2="589" y2="56"/>
<line opacity="0.1" stroke="#000000" stroke-width="1" x1="60" y1="52" x2="589" y2="52"/>
<line opacity="0.1" stroke="#000000" stroke-width="1" x1="60" y1="47" x2="589" y2="47"/>
<line opacity="0.1" stroke="#000000" stroke-width="1" x1="60" y1="43" x2="589" y2="43"/>
<line opacity="0.1" stroke="#000000" stroke-width="1" x1="60" y1="39" x2="589" y2="39"/>
<line opacity="0.1" stroke="#000000" stroke-width="1" x1="60" y1="34" x2="589" y2="34"/>
<line opacity="0.1" stroke="#000000" stroke-width="1" x1="60" y1="30" x2="589" y2="30"/>
<line opacity="0.1" stroke="#000000" stroke-width="1" x1="60" y1="26" x2="589" y2="26"/>
<line opacity="0.1" stroke="#000000" stroke-width="1" x1="60" y1="21" x2="589" y2="21"/>
<line opacity="0.1" stroke="#000000" stroke-width="1" x1="60" y1="17" x2="589" y2="17"/>
<line opacity="0.1" stroke="#000000" stroke-width="1" x1="60" y1="13" x2="589" y2="13"/>
<text x="10" y="175" dy="0.76em" text-anchor="middle" font-family="sans-serif" font-size="9.67741935483871" opacity="1" fill="#000000" transform="rotate(270, 10, 175)">
Fraction of dependent crates
</text>
<line opacity="0.2" stroke="#000000" stroke-width="1" x1="60" y1="296" x2="589" y2="296"/>
<line opacity="0.2" stroke="#000000" stroke-width="1" x1="60" y1="252" x2="589" y2="252"/>
<line opacity="0.2" stroke="#000000" stroke-width="1" x1="60" y1="209" x2="589" y2="209"/>
<line opacity="0.2" stroke="#000000" stroke-width="1" x1="60" y1="165" x2="589" y2="165"/>
<line opacity="0.2" stroke="#000000" stroke-width="1" x1="60" y1="122" x2="589" y2="122"/>
<line opacity="0.2" stroke="#000000" stroke-width="1" x1="60" y1="78" x2="589" y2="78"/>
<line opacity="0.2" stroke="#000000" stroke-width="1" x1="60" y1="34" x2="589" y2="34"/>
<polyline fill="none" opacity="1" stroke="#000000" stroke-width="1" points="59,10 59,339 "/>
<text x="50" y="296" dy="0.5ex" text-anchor="end" font-family="sans-serif" font-size="9.67741935483871" opacity="1" fill="#000000">
0.02
</text>
<polyline fill="none" opacity="1" stroke="#000000" stroke-width="1" points="54,296 59,296 "/>
<text x="50" y="252" dy="0.5ex" text-anchor="end" font-family="sans-serif" font-size="9.67741935483871" opacity="1" fill="#000000">
0.04
</text>
<polyline fill="none" opacity="1" stroke="#000000" stroke-width="1" points="54,252 59,252 "/>
<text x="50" y="209" dy="0.5ex" text-anchor="end" font-family="sans-serif" font-size="9.67741935483871" opacity="1" fill="#000000">
0.06
</text>
<polyline fill="none" opacity="1" stroke="#000000" stroke-width="1" points="54,209 59,209 "/>
<text x="50" y="165" dy="0.5ex" text-anchor="end" font-family="sans-serif" font-size="9.67741935483871" opacity="1" fill="#000000">
0.08
</text>
<polyline fill="none" opacity="1" stroke="#000000" stroke-width="1" points="54,165 59,165 "/>
<text x="50" y="122" dy="0.5ex" text-anchor="end" font-family="sans-serif" font-size="9.67741935483871" opacity="1" fill="#000000">
0.1
</text>
<polyline fill="none" opacity="1" stroke="#000000" stroke-width="1" points="54,122 59,122 "/>
<text x="50" y="78" dy="0.5ex" text-anchor="end" font-family="sans-serif" font-size="9.67741935483871" opacity="1" fill="#000000">
0.12
</text>
<polyline fill="none" opacity="1" stroke="#000000" stroke-width="1" points="54,78 59,78 "/>
<text x="50" y="34" dy="0.5ex" text-anchor="end" font-family="sans-serif" font-size="9.67741935483871" opacity="1" fill="#000000">
0.14
</text>
<polyline fill="none" opacity="1" stroke="#000000" stroke-width="1" points="54,34 59,34 "/>
<polyline fill="none" opacity="1" stroke="#000000" stroke-width="1" points="60,340 589,340 "/>
<text x="60" y="350" dy="0.76em" text-anchor="middle" font-family="sans-serif" font-size="9.67741935483871" opacity="1" fill="#000000">
2024-02-25
</text>
<polyline fill="none" opacity="1" stroke="#000000" stroke-width="1" points="60,340 60,345 "/>
<text x="192" y="350" dy="0.76em" text-anchor="middle" font-family="sans-serif" font-size="9.67741935483871" opacity="1" fill="#000000">
2024-03-03
</text>
<polyline fill="none" opacity="1" stroke="#000000" stroke-width="1" points="192,340 192,345 "/>
<text x="324" y="350" dy="0.76em" text-anchor="middle" font-family="sans-serif" font-size="9.67741935483871" opacity="1" fill="#000000">
2024-03-10
</text>
<polyline fill="none" opacity="1" stroke="#000000" stroke-width="1" points="324,340 324,345 "/>
<text x="456" y="350" dy="0.76em" text-anchor="middle" font-family="sans-serif" font-size="9.67741935483871" opacity="1" fill="#000000">
2024-03-17
</text>
<polyline fill="none" opacity="1" stroke="#000000" stroke-width="1" points="456,340 456,345 "/>
<text x="589" y="350" dy="0.76em" text-anchor="middle" font-family="sans-serif" font-size="9.67741935483871" opacity="1" fill="#000000">
2024-03-24
</text>
<polyline fill="none" opacity="1" stroke="#000000" stroke-width="1" points="589,340 589,345 "/>
<polyline fill="none" opacity="1" stroke="#E61919" stroke-width="2" points="60,133 60,133 78,133 78,133 97,133 97,133 116,133 116,132 135,132 135,133 154,133 154,133 173,133 173,132 192,132 192,132 211,132 211,132 230,132 230,128 248,128 248,128 267,128 267,128 286,128 286,128 305,128 305,127 324,127 324,127 343,127 343,127 362,127 362,127 381,127 381,127 400,127 400,127 418,127 418,127 437,127 437,127 456,127 456,127 475,127 475,126 494,126 494,126 513,126 513,126 532,126 532,126 551,126 551,126 570,126 570,126 589,126 "/>
<polyline fill="none" opacity="1" stroke="#BDE619" stroke-width="2" points="97,339 230,335 "/>
<polyline fill="none" opacity="1" stroke="#19E66B" stroke-width="2" points="60,298 60,298 78,298 78,298 97,298 97,298 116,298 116,298 135,298 135,298 154,298 154,298 173,298 173,298 192,298 192,298 211,298 211,298 230,298 230,294 248,294 248,294 267,294 267,294 286,294 286,294 305,294 305,294 324,294 324,294 343,294 343,294 362,294 362,294 381,294 381,294 400,294 400,294 418,294 418,294 437,294 437,294 456,294 456,294 475,294 475,294 494,294 494,294 513,294 513,294 532,294 532,294 551,294 551,294 570,294 570,294 589,294 "/>
<polyline fill="none" opacity="1" stroke="#196BE6" stroke-width="2" points="60,43 60,43 78,43 78,43 97,43 97,43 116,43 116,43 135,43 135,43 154,43 154,42 173,42 173,42 192,42 192,42 211,42 211,42 230,42 230,42 248,42 248,42 267,42 267,42 286,42 286,42 305,42 305,42 324,42 324,42 343,42 343,41 362,41 362,41 381,41 381,41 400,41 400,41 418,41 418,41 437,41 437,41 456,41 456,41 475,41 475,41 494,41 494,41 513,41 513,41 532,41 532,41 551,41 551,40 570,40 570,40 589,40 "/>
<polyline fill="none" opacity="1" stroke="#BD19E6" stroke-width="2" points="60,331 60,331 78,331 78,331 97,331 97,331 116,331 116,331 135,331 135,331 154,331 154,331 173,331 173,331 192,331 192,331 211,331 211,331 230,331 230,327 248,327 248,327 267,327 267,327 286,327 286,327 305,327 305,327 324,327 324,327 343,327 343,327 362,327 362,327 381,327 381,327 400,327 400,327 418,327 418,327 437,327 437,327 456,327 456,327 475,327 475,327 494,327 494,327 513,327 513,327 532,327 532,327 551,327 551,327 570,327 570,327 589,327 "/>
<rect x="65" y="130" width="147" height="89" opacity="1" fill="#FFFFFF" stroke="none"/>
<rect x="65" y="130" width="147" height="89" opacity="1" fill="none" stroke="#000000"/>
<text x="105" y="140" dy="0.76em" text-anchor="start" font-family="sans-serif" font-size="9.67741935483871" opacity="1" fill="#000000">
anyhow
</text>
<text x="105" y="155" dy="0.76em" text-anchor="start" font-family="sans-serif" font-size="9.67741935483871" opacity="1" fill="#000000">
google-clis-common
</text>
<text x="105" y="170" dy="0.76em" text-anchor="start" font-family="sans-serif" font-size="9.67741935483871" opacity="1" fill="#000000">
http
</text>
<text x="105" y="185" dy="0.76em" text-anchor="start" font-family="sans-serif" font-size="9.67741935483871" opacity="1" fill="#000000">
tokio
</text>
<text x="105" y="200" dy="0.76em" text-anchor="start" font-family="sans-serif" font-size="9.67741935483871" opacity="1" fill="#000000">
tower-service
</text>
<polyline fill="none" opacity="1" stroke="#E61919" stroke-width="2" points="75,144 95,144 "/>
<polyline fill="none" opacity="1" stroke="#BDE619" stroke-width="2" points="75,159 95,159 "/>
<polyline fill="none" opacity="1" stroke="#19E66B" stroke-width="2" points="75,174 95,174 "/>
<polyline fill="none" opacity="1" stroke="#196BE6" stroke-width="2" points="75,189 95,189 "/>
<polyline fill="none" opacity="1" stroke="#BD19E6" stroke-width="2" points="75,204 95,204 "/>
</svg>
