<svg width="600" height="400" viewBox="0 0 600 400" xmlns="http://www.w3.org/2000/svg">
<rect x="0" y="0" width="600" height="400" opacity="1" fill="#FFFFFF" stroke="none"/>
<line opacity="0.1" stroke="#000000" stroke-width="1" x1="60" y1="339" x2="589" y2="339"/>
<line opacity="0.1" stroke="#000000" stroke-width="1" x1="60" y1="334" x2="589" y2="334"/>
<line opacity="0.1" stroke="#000000" stroke-width="1" x1="60" y1="328" x2="589" y2="328"/>
<line opacity="0.1" stroke="#000000" stroke-width="1" x1="60" y1="323" x2="589" y2="323"/>
<line opacity="0.1" stroke="#000000" stroke-width="1" x1="60" y1="317" x2="589" y2="317"/>
<line opacity="0.1" stroke="#000000" stroke-width="1" x1="60" y1="312" x2="589" y2="312"/>
<line opacity="0.1" stroke="#000000" stroke-width="1" x1="60" y1="306" x2="589" y2="306"/>
<line opacity="0.1" stroke="#000000" stroke-width="1" x1="60" y1="301" x2="589" y2="301"/>
<line opacity="0.1" stroke="#000000" stroke-width="1" x1="60" y1="295" x2="589" y2="295"/>
<line opacity="0.1" stroke="#000000" stroke-width="1" x1="60" y1="290" x2="589" y2="290"/>
<line opacity="0.1" stroke="#000000" stroke-width="1" x1="60" y1="284" x2="589" y2="284"/>
<line opacity="0.1" stroke="#000000" stroke-width="1" x1="60" y1="279" x2="589" y2="279"/>
<line opacity="0.1" stroke="#000000" stroke-width="1" x1="60" y1="273" x2="589" y2="273"/>
<line opacity="0.1" stroke="#000000" stroke-width="1" x1="60" y1="268" x2="589" y2="268"/>
<line opacity="0.1" stroke="#000000" stroke-width="1" x1="60" y1="262" x2="589" y2="262"/>
<line opacity="0.1" stroke="#000000" stroke-width="1" x1="60" y1="257" x2="589" y2="257"/>
<line opacity="0.1" stroke="#000000" stroke-width="1" x1="60" y1="251" x2="589" y2="251"/>
<line opacity="0.1" stroke="#000000" stroke-width="1" x1="60" y1="246" x2="589" y2="246"/>
<line opacity="0.1" stroke="#000000" stroke-width="1" x1="60" y1="241" x2="589" y2="241"/>
<line opacity="0.1" stroke="#000000" stroke-width="1" x1="60" y1="235" x2="589" y2="235"/>
<line opacity="0.1" stroke="#000000" stroke-width="1" x1="60" y1="230" x2="589" y2="230"/>
<line opacity="0.1" stroke="#000000" stroke-width="1" x1="60" y1="224" x2="589" y2="224"/>
<line opacity="0.1" stroke="#000000" stroke-width="1" x1="60" y1="219" x2="589" y2="219"/>
<line opacity="0.1" stroke="#000000" stroke-width="1" x1="60" y1="213" x2="589" y2="213"/>
<line opacity="0.1" stroke="#000000" stroke-width="1" x1="60" y1="208" x2="589" y2="208"/>
<line opacity="0.1" stroke="#000000" stroke-width="1" x1="60" y1="202" x2="589" y2="202"/>
<line opacity="0.1" stroke="#000000" stroke-width="1" x1="60" y1="197" x2="589" y2="197"/>
<line opacity="0.1" stroke="#000000" stroke-width="1" x1="60" y1="191" x2="589" y2="191"/>
<line opacity="0.1" stroke="#000000" stroke-width="1" x1="60" y1="186" x2="589" y2="186"/>
<line opacity="0.1" stroke="#000000" stroke-width="1" x1="60" y1="180" x2="589" y2="180"/>
<line opacity="0.1" stroke="#000000" stroke-width="1" x1="60" y1="175" x2="589" y2="175"/>
<line opacity="0.1" stroke="#000000" stroke-width="1" x1="60" y1="169" x2="589" y2="169"/>
<line opacity="0.1" stroke="#000000" stroke-width="1" x1="60" y1="164" x2="589" y2="164"/>
<line opacity="0.1" stroke="#000000" stroke-width="1" x1="60" y1="158" x2="589" y2="158"/>
<line opacity="0.1" stroke="#000000" stroke-width="1" x1="60" y1="153" x2="589" y2="153"/>
<line opacity="0.1" stroke="#000000" stroke-width="1" x1="60" y1="148" x2="589" y2="148"/>
<line opacity="0.1" stroke="#000000" stroke-width="1" x1="60" y1="142" x2="589" y2="142"/>
<line opacity="0.1" stroke="#000000" stroke-width="1" x1="60" y1="137" x2="589" y2="137"/>
<line opacity="0.1" stroke="#000000" stroke-width="1" x1="60" y1="131" x2="589" y2="131"/>
<line opacity="0.1" stroke="#000000" stroke-width="1" x1="60" y1="126" x2="589" y2="126"/>
<line opacity="0.1" stroke="#000000" stroke-width="1" x1="60" y1="120" x2="589" y2="120"/>
<line opacity="0.1" stroke="#000000" stroke-width="1" x1="60" y1="115" x2="589" y2="115"/>
<line opacity="0.1" stroke="#000000" stroke-width="1" x1="60" y1="109" x2="589" y2="109"/>
<line opacity="0.1" stroke="#000000" stroke-width="1" x1="60" y1="104" x2="589" y2="104"/>
<line opacity="0.1" stroke="#000000" stroke-width="1" x1="60" y1="98" x2="589" y2="98"/>
<line opacity="0.1" stroke="#000000" stroke-width="1" x1="60" y1="93" x2="589" y2="93"/>
<line opacity="0.1" stroke="#000000" stroke-width="1" x1="60" y1="87" x2="589" y2="87"/>
<line opacity="0.1" stroke="#000000" stroke-width="1" x1="60" y1="82" x2="589" y2="82"/>
<line opacity="0.1" stroke="#000000" stroke-width="1" x1="60" y1="76" x2="589" y2="76"/>
<line opacity="0.1" stroke="#000000" stroke-width="1" x1="60" y1="71" x2="589" y2="71"/>
<line opacity="0.1" stroke="#000000" stroke-width="1" x1="60" y1="65" x2="589" y2="65"/>
<line opacity="0.1" stroke="#000000" stroke-width="1" x1="60" y1="60" x2="589" y2="60"/>
<line opacity="0.1" stroke="#000000" stroke-width="1" x1="60" y1="55" x2="589" y2="55"/>
<line opacity="0.1" stroke="#000000" stroke-width="1" x1="60" y1="49" x2="589" y2="49"/>
<line opacity="0.1" stroke="#000000" stroke-width="1" x1="60" y1="44" x2="589" y2="44"/>
<line opacity="0.1" stroke="#000000" stroke-width="1" x1="60" y1="38" x2="589" y2="38"/>
<line opacity="0.1" stroke="#000000" stroke-width="1" x1="60" y1="33" x2="589" y2="33"/>
<line opacity="0.1" stroke="#000000" stroke-width="1" x1="60" y1="27" x2="589" y2="27"/>
<line opacity="0.1" stroke="#000000" stroke-width="1" x1="60" y1="22" x2="589" y2="22"/>
<line opacity="0.1" stroke="#000000" stroke-width="1" x1="60" y1="16" x2="589" y2="16"/>
<line opacity="0.1" stroke="#000000" stroke-width="1" x1="60" y1="11" x2="589" y2="11"/>
<text x="10" y="175" dy="0.76em" text-anchor="middle" font-family="sans-serif" font-size="9.67741935483871" opacity="1" fill="#000000" transform="rotate(270, 10, 175)">
Number of dependent crates
</text>
<line opacity="0.2" stroke="#000000" stroke-width="1" x1="60" y1="323" x2="589" y2="323"/>
<line opacity="0.2" stroke="#000000" stroke-width="1" x1="60" y1="268" x2="589" y2="268"/>
<line opacity="0.2" stroke="#000000" stroke-width="1" x1="60" y1="213" x2="589" y2="213"/>
<line opacity="0.2" stroke="#000000" stroke-width="1" x1="60" y1="158" x2="589" y2="158"/>
<line opacity="0.2" stroke="#000000" stroke-width="1" x1="60" y1="104" x2="589" y2="104"/>
<line opacity="0.2" stroke="#000000" stroke-width="1" x1="60" y1="49" x2="589" y2="49"/>
<polyline fill="none" opacity="1" stroke="#000000" stroke-width="1" points="59,10 59,339 "/>
<text x="50" y="323" dy="0.5ex" text-anchor="end" font-family="sans-serif" font-size="9.67741935483871" opacity="1" fill="#000000">
20000
</text>
<polyline fill="none" opacity="1" stroke="#000000" stroke-width="1" points="54,323 59,323 "/>
<text x="50" y="268" dy="0.5ex" text-anchor="end" font-family="sans-serif" font-size="9.67741935483871" opacity="1" fill="#000000">
30000
</text>
<polyline fill="none" opacity="1" stroke="#000000" stroke-width="1" points="54,268 59,268 "/>
<text x="50" y="213" dy="0.5ex" text-anchor="end" font-family="sans-serif" font-size="9.67741935483871" opacity="1" fill="#000000">
40000
</text>
<polyline fill="none" opacity="1" stroke="#000000" stroke-width="1" points="54,213 59,213 "/>
<text x="50" y="158" dy="0.5ex" text-anchor="end" font-family="sans-serif" font-size="9.67741935483871" opacity="1" fill="#000000">
50000
</text>
<polyline fill="none" opacity="1" stroke="#000000" stroke-width="1" points="54,158 59,158 "/>
<text x="50" y="104" dy="0.5ex" text-anchor="end" font-family="sans-serif" font-size="9.67741935483871" opacity="1" fill="#000000">
60000
</text>
<polyline fill="none" opacity="1" stroke="#000000" stroke-width="1" points="54,104 59,104 "/>
<text x="50" y="49" dy="0.5ex" text-anchor="end" font-family="sans-serif" font-size="9.67741935483871" opacity="1" fill="#000000">
70000
</text>
<polyline fill="none" opacity="1" stroke="#000000" stroke-width="1" points="54,49 59,49 "/>
<polyline fill="none" opacity="1" stroke="#000000" stroke-width="1" points="60,340 589,340 "/>
<text x="60" y="350" dy="0.76em" text-anchor="middle" font-family="sans-serif" font-size="9.67741935483871" opacity="1" fill="#000000">
2026-02-15
</text>
<polyline fill="none" opacity="1" stroke="#000000" stroke-width="1" points="60,340 60,345 "/>
<text x="192" y="350" dy="0.76em" text-anchor="middle" font-family="sans-serif" font-size="9.67741935483871" opacity="1" fill="#000000">
2026-02-22
</text>
<polyline fill="none" opacity="1" stroke="#000000" stroke-width="1" points="192,340 192,345 "/>
<text x="324" y="350" dy="0.76em" text-anchor="middle" font-family="sans-serif" font-size="9.67741935483871" opacity="1" fill="#000000">
2026-03-01
</text>
<polyline fill="none" opacity="1" stroke="#000000" stroke-width="1" points="324,340 324,345 "/>
<text x="456" y="350" dy="0.76em" text-anchor="middle" font-family="sans-serif" font-size="9.67741935483871" opacity="1" fill="#000000">
2026-03-08
</text>
<polyline fill="none" opacity="1" stroke="#000000" stroke-width="1" points="456,340 456,345 "/>
<text x="589" y="350" dy="0.76em" text-anchor="middle" font-family="sans-serif" font-size="9.67741935483871" opacity="1" fill="#000000">
2026-03-15
</text>
<polyline fill="none" opacity="1" stroke="#000000" stroke-width="1" points="589,340 589,345 "/>
<polyline fill="none" opacity="1" stroke="#E61919" stroke-width="2" points="60,80 60,77 78,77 97,77 116,77 116,76 135,76 135,75 154,75 154,73 173,73 192,73 192,72 211,72 211,70 230,70 230,70 248,70 248,68 267,68 267,67 286,67 305,67 305,66 324,66 324,64 343,64 343,62 362,62 381,62 381,56 400,56 418,56 437,56 456,56 475,56 551,50 570,50 570,49 589,49 "/>
<polyline fill="none" opacity="1" stroke="#BDE619" stroke-width="2" points="60,158 60,155 78,155 97,155 116,155 116,154 135,154 135,153 154,153 154,151 173,151 192,151 192,149 211,149 211,148 230,148 230,147 248,147 248,146 267,146 267,144 286,144 305,144 305,143 324,143 324,142 343,142 343,140 362,140 381,140 381,134 400,134 418,134 437,134 456,134 475,134 551,128 570,128 570,126 589,126 "/>
<polyline fill="none" opacity="1" stroke="#19E66B" stroke-width="2" points="60,238 60,236 78,236 97,236 116,236 116,235 135,235 135,234 154,234 154,233 173,233 192,233 192,232 211,232 211,231 230,231 230,230 248,230 248,229 267,229 267,228 286,228 305,228 305,227 324,227 324,226 343,226 343,225 362,225 381,225 381,221 400,221 418,221 437,221 456,221 475,221 551,217 570,217 570,216 589,216 "/>
<polyline fill="none" opacity="1" stroke="#196BE6" stroke-width="2" points="60,192 60,189 78,189 97,189 116,189 116,188 135,188 135,188 154,188 154,186 173,186 192,186 192,184 211,184 211,184 230,184 230,183 248,183 248,182 267,182 267,181 286,181 305,181 305,180 324,180 324,179 343,179 343,177 362,177 381,177 381,172 400,172 418,172 437,172 456,172 475,172 551,168 570,168 570,167 589,167 "/>
<polyline fill="none" opacity="1" stroke="#BD19E6" stroke-width="2" points="60,329 60,328 78,328 97,328 116,328 116,327 135,327 135,327 154,327 154,326 173,326 192,326 192,325 211,325 211,324 230,324 230,324 248,324 248,323 267,323 267,323 286,323 305,323 305,322 324,322 324,321 343,321 343,320 362,320 381,320 381,318 400,318 418,318 437,318 456,318 475,318 551,315 570,315 570,315 589,315 "/>
<rect x="65" y="130" width="101" height="89" opacity="1" fill="#FFFFFF" stroke="none"/>
<rect x="65" y="130" width="101" height="89" opacity="1" fill="none" stroke="#000000"/>
<text x="105" y="140" dy="0.76em" text-anchor="start" font-family="sans-serif" font-size="9.67741935483871" opacity="1" fill="#000000">
serde
</text>
<text x="105" y="155" dy="0.76em" text-anchor="start" font-family="sans-serif" font-size="9.67741935483871" opacity="1" fill="#000000">
serde_json
</text>
<text x="105" y="170" dy="0.76em" text-anchor="start" font-family="sans-serif" font-size="9.67741935483871" opacity="1" fill="#000000">
thiserror
</text>
<text x="105" y="185" dy="0.76em" text-anchor="start" font-family="sans-serif" font-size="9.67741935483871" opacity="1" fill="#000000">
tokio
</text>
<text x="105" y="200" dy="0.76em" text-anchor="start" font-family="sans-serif" font-size="9.67741935483871" opacity="1" fill="#000000">
tracing
</text>
<polyline fill="none" opacity="1" stroke="#E61919" stroke-width="2" points="75,144 95,144 "/>
<polyline fill="none" opacity="1" stroke="#BDE619" stroke-width="2" points="75,159 95,159 "/>
<polyline fill="none" opacity="1" stroke="#19E66B" stroke-width="2" points="75,174 95,174 "/>
<polyline fill="none" opacity="1" stroke="#196BE6" stroke-width="2" points="75,189 95,189 "/>
<polyline fill="none" opacity="1" stroke="#BD19E6" stroke-width="2" points="75,204 95,204 "/>
</svg>
