<svg width="600" height="400" viewBox="0 0 600 400" xmlns="http://www.w3.org/2000/svg">
<rect x="0" y="0" width="599" height="399" opacity="1" fill="#FFFFFF" stroke="none"/>
<line opacity="0.1" stroke="#000000" stroke-width="1" x1="60" y1="334" x2="590" y2="334"/>
<line opacity="0.1" stroke="#000000" stroke-width="1" x1="60" y1="328" x2="590" y2="328"/>
<line opacity="0.1" stroke="#000000" stroke-width="1" x1="60" y1="322" x2="590" y2="322"/>
<line opacity="0.1" stroke="#000000" stroke-width="1" x1="60" y1="316" x2="590" y2="316"/>
<line opacity="0.1" stroke="#000000" stroke-width="1" x1="60" y1="310" x2="590" y2="310"/>
<line opacity="0.1" stroke="#000000" stroke-width="1" x1="60" y1="304" x2="590" y2="304"/>
<line opacity="0.1" stroke="#000000" stroke-width="1" x1="60" y1="299" x2="590" y2="299"/>
<line opacity="0.1" stroke="#000000" stroke-width="1" x1="60" y1="293" x2="590" y2="293"/>
<line opacity="0.1" stroke="#000000" stroke-width="1" x1="60" y1="287" x2="590" y2="287"/>
<line opacity="0.1" stroke="#000000" stroke-width="1" x1="60" y1="281" x2="590" y2="281"/>
<line opacity="0.1" stroke="#000000" stroke-width="1" x1="60" y1="275" x2="590" y2="275"/>
<line opacity="0.1" stroke="#000000" stroke-width="1" x1="60" y1="269" x2="590" y2="269"/>
<line opacity="0.1" stroke="#000000" stroke-width="1" x1="60" y1="264" x2="590" y2="264"/>
<line opacity="0.1" stroke="#000000" stroke-width="1" x1="60" y1="258" x2="590" y2="258"/>
<line opacity="0.1" stroke="#000000" stroke-width="1" x1="60" y1="252" x2="590" y2="252"/>
<line opacity="0.1" stroke="#000000" stroke-width="1" x1="60" y1="246" x2="590" y2="246"/>
<line opacity="0.1" stroke="#000000" stroke-width="1" x1="60" y1="240" x2="590" y2="240"/>
<line opacity="0.1" stroke="#000000" stroke-width="1" x1="60" y1="234" x2="590" y2="234"/>
<line opacity="0.1" stroke="#000000" stroke-width="1" x1="60" y1="229" x2="590" y2="229"/>
<line opacity="0.1" stroke="#000000" stroke-width="1" x1="60" y1="223" x2="590" y2="223"/>
<line opacity="0.1" stroke="#000000" stroke-width="1" x1="60" y1="217" x2="590" y2="217"/>
<line opacity="0.1" stroke="#000000" stroke-width="1" x1="60" y1="211" x2="590" y2="211"/>
<line opacity="0.1" stroke="#000000" stroke-width="1" x1="60" y1="205" x2="590" y2="205"/>
<line opacity="0.1" stroke="#000000" stroke-width="1" x1="60" y1="199" x2="590" y2="199"/>
<line opacity="0.1" stroke="#000000" stroke-width="1" x1="60" y1="194" x2="590" y2="194"/>
<line opacity="0.1" stroke="#000000" stroke-width="1" x1="60" y1="188" x2="590" y2="188"/>
<line opacity="0.1" stroke="#000000" stroke-width="1" x1="60" y1="182" x2="590" y2="182"/>
<line opacity="0.1" stroke="#000000" stroke-width="1" x1="60" y1="176" x2="590" y2="176"/>
<line opacity="0.1" stroke="#000000" stroke-width="1" x1="60" y1="170" x2="590" y2="170"/>
<line opacity="0.1" stroke="#000000" stroke-width="1" x1="60" y1="164" x2="590" y2="164"/>
<line opacity="0.1" stroke="#000000" stroke-width="1" x1="60" y1="159" x2="590" y2="159"/>
<line opacity="0.1" stroke="#000000" stroke-width="1" x1="60" y1="153" x2="590" y2="153"/>
<line opacity="0.1" stroke="#000000" stroke-width="1" x1="60" y1="147" x2="590" y2="147"/>
<line opacity="0.1" stroke="#000000" stroke-width="1" x1="60" y1="141" x2="590" y2="141"/>
<line opacity="0.1" stroke="#000000" stroke-width="1" x1="60" y1="135" x2="590" y2="135"/>
<line opacity="0.1" stroke="#000000" stroke-width="1" x1="60" y1="129" x2="590" y2="129"/>
<line opacity="0.1" stroke="#000000" stroke-width="1" x1="60" y1="123" x2="590" y2="123"/>
<line opacity="0.1" stroke="#000000" stroke-width="1" x1="60" y1="118" x2="590" y2="118"/>
<line opacity="0.1" stroke="#000000" stroke-width="1" x1="60" y1="112" x2="590" y2="112"/>
<line opacity="0.1" stroke="#000000" stroke-width="1" x1="60" y1="106" x2="590" y2="106"/>
<line opacity="0.1" stroke="#000000" stroke-width="1" x1="60" y1="100" x2="590" y2="100"/>
<line opacity="0.1" stroke="#000000" stroke-width="1" x1="60" y1="94" x2="590" y2="94"/>
<line opacity="0.1" stroke="#000000" stroke-width="1" x1="60" y1="88" x2="590" y2="88"/>
<line opacity="0.1" stroke="#000000" stroke-width="1" x1="60" y1="83" x2="590" y2="83"/>
<line opacity="0.1" stroke="#000000" stroke-width="1" x1="60" y1="77" x2="590" y2="77"/>
<line opacity="0.1" stroke="#000000" stroke-width="1" x1="60" y1="71" x2="590" y2="71"/>
<line opacity="0.1" stroke="#000000" stroke-width="1" x1="60" y1="65" x2="590" y2="65"/>
<line opacity="0.1" stroke="#000000" stroke-width="1" x1="60" y1="59" x2="590" y2="59"/>
<line opacity="0.1" stroke="#000000" stroke-width="1" x1="60" y1="53" x2="590" y2="53"/>
<line opacity="0.1" stroke="#000000" stroke-width="1" x1="60" y1="48" x2="590" y2="48"/>
<line opacity="0.1" stroke="#000000" stroke-width="1" x1="60" y1="42" x2="590" y2="42"/>
<line opacity="0.1" stroke="#000000" stroke-width="1" x1="60" y1="36" x2="590" y2="36"/>
<line opacity="0.1" stroke="#000000" stroke-width="1" x1="60" y1="30" x2="590" y2="30"/>
<line opacity="0.1" stroke="#000000" stroke-width="1" x1="60" y1="24" x2="590" y2="24"/>
<line opacity="0.1" stroke="#000000" stroke-width="1" x1="60" y1="18" x2="590" y2="18"/>
<line opacity="0.1" stroke="#000000" stroke-width="1" x1="60" y1="13" x2="590" y2="13"/>
<text x="10" y="175" dy="0.76em" text-anchor="middle" font-family="sans-serif" font-size="9.67741935483871" opacity="1" fill="#000000" transform="rotate(270, 10, 175)">
Number of dependent crates
</text>
<line opacity="0.2" stroke="#000000" stroke-width="1" x1="60" y1="299" x2="590" y2="299"/>
<line opacity="0.2" stroke="#000000" stroke-width="1" x1="60" y1="240" x2="590" y2="240"/>
<line opacity="0.2" stroke="#000000" stroke-width="1" x1="60" y1="182" x2="590" y2="182"/>
<line opacity="0.2" stroke="#000000" stroke-width="1" x1="60" y1="123" x2="590" y2="123"/>
<line opacity="0.2" stroke="#000000" stroke-width="1" x1="60" y1="65" x2="590" y2="65"/>
<polyline fill="none" opacity="1" stroke="#000000" stroke-width="1" points="59,10 59,340 "/>
<text x="50" y="299" dy="0.5ex" text-anchor="end" font-family="sans-serif" font-size="9.67741935483871" opacity="1" fill="#000000">
4000
</text>
<polyline fill="none" opacity="1" stroke="#000000" stroke-width="1" points="54,299 59,299 "/>
<text x="50" y="240" dy="0.5ex" text-anchor="end" font-family="sans-serif" font-size="9.67741935483871" opacity="1" fill="#000000">
6000
</text>
<polyline fill="none" opacity="1" stroke="#000000" stroke-width="1" points="54,240 59,240 "/>
<text x="50" y="182" dy="0.5ex" text-anchor="end" font-family="sans-serif" font-size="9.67741935483871" opacity="1" fill="#000000">
8000
</text>
<polyline fill="none" opacity="1" stroke="#000000" stroke-width="1" points="54,182 59,182 "/>
<text x="50" y="123" dy="0.5ex" text-anchor="end" font-family="sans-serif" font-size="9.67741935483871" opacity="1" fill="#000000">
10000
</text>
<polyline fill="none" opacity="1" stroke="#000000" stroke-width="1" points="54,123 59,123 "/>
<text x="50" y="65" dy="0.5ex" text-anchor="end" font-family="sans-serif" font-size="9.67741935483871" opacity="1" fill="#000000">
12000
</text>
<polyline fill="none" opacity="1" stroke="#000000" stroke-width="1" points="54,65 59,65 "/>
<polyline fill="none" opacity="1" stroke="#000000" stroke-width="1" points="60,340 590,340 "/>
<text x="60" y="350" dy="0.76em" text-anchor="middle" font-family="sans-serif" font-size="9.67741935483871" opacity="1" fill="#000000">
2021-07-18Z
</text>
<polyline fill="none" opacity="1" stroke="#000000" stroke-width="1" points="60,340 60,345 "/>
<text x="192" y="350" dy="0.76em" text-anchor="middle" font-family="sans-serif" font-size="9.67741935483871" opacity="1" fill="#000000">
2021-07-25Z
</text>
<polyline fill="none" opacity="1" stroke="#000000" stroke-width="1" points="192,340 192,345 "/>
<text x="325" y="350" dy="0.76em" text-anchor="middle" font-family="sans-serif" font-size="9.67741935483871" opacity="1" fill="#000000">
2021-08-01Z
</text>
<polyline fill="none" opacity="1" stroke="#000000" stroke-width="1" points="325,340 325,345 "/>
<text x="457" y="350" dy="0.76em" text-anchor="middle" font-family="sans-serif" font-size="9.67741935483871" opacity="1" fill="#000000">
2021-08-08Z
</text>
<polyline fill="none" opacity="1" stroke="#000000" stroke-width="1" points="457,340 457,345 "/>
<text x="590" y="350" dy="0.76em" text-anchor="middle" font-family="sans-serif" font-size="9.67741935483871" opacity="1" fill="#000000">
2021-08-15Z
</text>
<polyline fill="none" opacity="1" stroke="#000000" stroke-width="1" points="590,340 590,345 "/>
<polyline fill="none" opacity="1" stroke="#E61919" stroke-width="2" points="60,330 60,330 78,330 78,329 97,329 97,329 116,329 116,329 135,329 135,329 154,329 154,329 173,329 173,329 192,329 192,329 211,329 211,328 230,328 230,328 249,328 249,328 268,328 268,328 287,328 287,328 306,328 306,328 325,328 325,328 343,328 343,327 362,327 362,327 381,327 381,327 400,327 400,326 419,326 419,326 438,326 438,326 457,326 457,326 476,326 476,326 495,326 495,326 514,326 514,325 533,325 533,325 552,325 552,325 571,325 571,325 590,325 "/>
<polyline fill="none" opacity="1" stroke="#BDE619" stroke-width="2" points="60,200 60,200 78,200 78,199 97,199 97,199 116,199 116,199 135,199 135,199 154,199 154,199 173,199 173,199 192,199 192,199 211,199 211,198 230,198 230,198 249,198 249,198 268,198 268,198 287,198 287,198 306,198 306,198 325,198 325,197 343,197 343,197 362,197 362,197 381,197 381,196 400,196 400,196 419,196 419,195 438,195 438,195 457,195 457,195 476,195 476,194 495,194 495,194 514,194 514,194 533,194 533,194 552,194 552,193 571,193 571,193 590,193 "/>
<polyline fill="none" opacity="1" stroke="#19E66B" stroke-width="2" points="60,57 60,57 78,57 78,56 97,56 97,56 116,56 116,56 135,56 135,55 154,55 154,55 173,55 173,54 192,54 192,54 211,54 211,53 230,53 230,53 249,53 249,53 268,53 268,52 287,52 287,52 306,52 306,52 325,52 325,51 343,51 343,51 362,51 362,51 381,51 381,50 400,50 400,49 419,49 419,49 438,49 438,48 457,48 457,47 476,47 476,47 495,47 495,47 514,47 514,47 533,47 533,46 552,46 552,46 571,46 571,46 590,45 "/>
<polyline fill="none" opacity="1" stroke="#196BE6" stroke-width="2" points="60,159 60,159 78,159 78,159 97,159 97,158 116,158 116,158 135,158 135,158 154,158 154,158 173,158 173,157 192,157 192,157 211,157 211,157 230,157 230,156 249,156 249,156 268,156 268,156 287,156 287,155 306,155 306,155 325,155 325,155 343,155 343,155 362,155 362,155 381,155 381,155 400,155 400,154 419,154 419,154 438,154 438,153 457,153 457,153 476,153 476,153 495,153 495,153 514,153 514,153 533,153 533,152 552,152 552,152 571,152 571,152 590,152 "/>
<polyline fill="none" opacity="1" stroke="#BD19E6" stroke-width="2" points="60,265 60,265 78,265 78,264 97,264 97,264 116,264 116,264 135,264 135,264 154,264 154,264 173,264 173,264 192,264 192,264 211,264 211,263 230,263 230,263 249,263 249,263 268,263 268,263 287,263 287,263 306,263 306,263 325,263 325,262 343,262 343,262 362,262 362,262 381,262 381,262 400,262 400,261 419,261 419,261 438,261 438,261 457,261 457,261 476,261 476,261 495,261 495,260 514,260 514,260 533,260 533,259 552,259 552,259 571,259 571,259 590,259 "/>
<rect x="65" y="130" width="101" height="89" opacity="1" fill="#FFFFFF" stroke="none"/>
<rect x="65" y="130" width="101" height="89" opacity="1" fill="none" stroke="#000000"/>
<text x="105" y="140" dy="0.76em" text-anchor="start" font-family="sans-serif" font-size="9.67741935483871" opacity="1" fill="#000000">
anyhow
</text>
<text x="105" y="155" dy="0.76em" text-anchor="start" font-family="sans-serif" font-size="9.67741935483871" opacity="1" fill="#000000">
log
</text>
<text x="105" y="170" dy="0.76em" text-anchor="start" font-family="sans-serif" font-size="9.67741935483871" opacity="1" fill="#000000">
serde
</text>
<text x="105" y="185" dy="0.76em" text-anchor="start" font-family="sans-serif" font-size="9.67741935483871" opacity="1" fill="#000000">
serde_json
</text>
<text x="105" y="200" dy="0.76em" text-anchor="start" font-family="sans-serif" font-size="9.67741935483871" opacity="1" fill="#000000">
tokio
</text>
<polyline fill="none" opacity="1" stroke="#E61919" stroke-width="2" points="75,144 95,144 "/>
<polyline fill="none" opacity="1" stroke="#BDE619" stroke-width="2" points="75,159 95,159 "/>
<polyline fill="none" opacity="1" stroke="#19E66B" stroke-width="2" points="75,174 95,174 "/>
<polyline fill="none" opacity="1" stroke="#196BE6" stroke-width="2" points="75,189 95,189 "/>
<polyline fill="none" opacity="1" stroke="#BD19E6" stroke-width="2" points="75,204 95,204 "/>
</svg>
