<svg width="600" height="400" xmlns="http://www.w3.org/2000/svg">
<rect x="0" y="0" width="599" height="399" opacity="1" fill="#FFFFFF" stroke="none"/>
<line opacity="0.1" stroke="#000000" stroke-width="1" x1="60" y1="336" x2="590" y2="336"/>
<line opacity="0.1" stroke="#000000" stroke-width="1" x1="60" y1="333" x2="590" y2="333"/>
<line opacity="0.1" stroke="#000000" stroke-width="1" x1="60" y1="329" x2="590" y2="329"/>
<line opacity="0.1" stroke="#000000" stroke-width="1" x1="60" y1="325" x2="590" y2="325"/>
<line opacity="0.1" stroke="#000000" stroke-width="1" x1="60" y1="321" x2="590" y2="321"/>
<line opacity="0.1" stroke="#000000" stroke-width="1" x1="60" y1="317" x2="590" y2="317"/>
<line opacity="0.1" stroke="#000000" stroke-width="1" x1="60" y1="313" x2="590" y2="313"/>
<line opacity="0.1" stroke="#000000" stroke-width="1" x1="60" y1="310" x2="590" y2="310"/>
<line opacity="0.1" stroke="#000000" stroke-width="1" x1="60" y1="306" x2="590" y2="306"/>
<line opacity="0.1" stroke="#000000" stroke-width="1" x1="60" y1="302" x2="590" y2="302"/>
<line opacity="0.1" stroke="#000000" stroke-width="1" x1="60" y1="298" x2="590" y2="298"/>
<line opacity="0.1" stroke="#000000" stroke-width="1" x1="60" y1="294" x2="590" y2="294"/>
<line opacity="0.1" stroke="#000000" stroke-width="1" x1="60" y1="291" x2="590" y2="291"/>
<line opacity="0.1" stroke="#000000" stroke-width="1" x1="60" y1="287" x2="590" y2="287"/>
<line opacity="0.1" stroke="#000000" stroke-width="1" x1="60" y1="283" x2="590" y2="283"/>
<line opacity="0.1" stroke="#000000" stroke-width="1" x1="60" y1="279" x2="590" y2="279"/>
<line opacity="0.1" stroke="#000000" stroke-width="1" x1="60" y1="275" x2="590" y2="275"/>
<line opacity="0.1" stroke="#000000" stroke-width="1" x1="60" y1="271" x2="590" y2="271"/>
<line opacity="0.1" stroke="#000000" stroke-width="1" x1="60" y1="268" x2="590" y2="268"/>
<line opacity="0.1" stroke="#000000" stroke-width="1" x1="60" y1="264" x2="590" y2="264"/>
<line opacity="0.1" stroke="#000000" stroke-width="1" x1="60" y1="260" x2="590" y2="260"/>
<line opacity="0.1" stroke="#000000" stroke-width="1" x1="60" y1="256" x2="590" y2="256"/>
<line opacity="0.1" stroke="#000000" stroke-width="1" x1="60" y1="252" x2="590" y2="252"/>
<line opacity="0.1" stroke="#000000" stroke-width="1" x1="60" y1="249" x2="590" y2="249"/>
<line opacity="0.1" stroke="#000000" stroke-width="1" x1="60" y1="245" x2="590" y2="245"/>
<line opacity="0.1" stroke="#000000" stroke-width="1" x1="60" y1="241" x2="590" y2="241"/>
<line opacity="0.1" stroke="#000000" stroke-width="1" x1="60" y1="237" x2="590" y2="237"/>
<line opacity="0.1" stroke="#000000" stroke-width="1" x1="60" y1="233" x2="590" y2="233"/>
<line opacity="0.1" stroke="#000000" stroke-width="1" x1="60" y1="229" x2="590" y2="229"/>
<line opacity="0.1" stroke="#000000" stroke-width="1" x1="60" y1="226" x2="590" y2="226"/>
<line opacity="0.1" stroke="#000000" stroke-width="1" x1="60" y1="222" x2="590" y2="222"/>
<line opacity="0.1" stroke="#000000" stroke-width="1" x1="60" y1="218" x2="590" y2="218"/>
<line opacity="0.1" stroke="#000000" stroke-width="1" x1="60" y1="214" x2="590" y2="214"/>
<line opacity="0.1" stroke="#000000" stroke-width="1" x1="60" y1="210" x2="590" y2="210"/>
<line opacity="0.1" stroke="#000000" stroke-width="1" x1="60" y1="207" x2="590" y2="207"/>
<line opacity="0.1" stroke="#000000" stroke-width="1" x1="60" y1="203" x2="590" y2="203"/>
<line opacity="0.1" stroke="#000000" stroke-width="1" x1="60" y1="199" x2="590" y2="199"/>
<line opacity="0.1" stroke="#000000" stroke-width="1" x1="60" y1="195" x2="590" y2="195"/>
<line opacity="0.1" stroke="#000000" stroke-width="1" x1="60" y1="191" x2="590" y2="191"/>
<line opacity="0.1" stroke="#000000" stroke-width="1" x1="60" y1="187" x2="590" y2="187"/>
<line opacity="0.1" stroke="#000000" stroke-width="1" x1="60" y1="184" x2="590" y2="184"/>
<line opacity="0.1" stroke="#000000" stroke-width="1" x1="60" y1="180" x2="590" y2="180"/>
<line opacity="0.1" stroke="#000000" stroke-width="1" x1="60" y1="176" x2="590" y2="176"/>
<line opacity="0.1" stroke="#000000" stroke-width="1" x1="60" y1="172" x2="590" y2="172"/>
<line opacity="0.1" stroke="#000000" stroke-width="1" x1="60" y1="168" x2="590" y2="168"/>
<line opacity="0.1" stroke="#000000" stroke-width="1" x1="60" y1="165" x2="590" y2="165"/>
<line opacity="0.1" stroke="#000000" stroke-width="1" x1="60" y1="161" x2="590" y2="161"/>
<line opacity="0.1" stroke="#000000" stroke-width="1" x1="60" y1="157" x2="590" y2="157"/>
<line opacity="0.1" stroke="#000000" stroke-width="1" x1="60" y1="153" x2="590" y2="153"/>
<line opacity="0.1" stroke="#000000" stroke-width="1" x1="60" y1="149" x2="590" y2="149"/>
<line opacity="0.1" stroke="#000000" stroke-width="1" x1="60" y1="145" x2="590" y2="145"/>
<line opacity="0.1" stroke="#000000" stroke-width="1" x1="60" y1="142" x2="590" y2="142"/>
<line opacity="0.1" stroke="#000000" stroke-width="1" x1="60" y1="138" x2="590" y2="138"/>
<line opacity="0.1" stroke="#000000" stroke-width="1" x1="60" y1="134" x2="590" y2="134"/>
<line opacity="0.1" stroke="#000000" stroke-width="1" x1="60" y1="130" x2="590" y2="130"/>
<line opacity="0.1" stroke="#000000" stroke-width="1" x1="60" y1="126" x2="590" y2="126"/>
<line opacity="0.1" stroke="#000000" stroke-width="1" x1="60" y1="123" x2="590" y2="123"/>
<line opacity="0.1" stroke="#000000" stroke-width="1" x1="60" y1="119" x2="590" y2="119"/>
<line opacity="0.1" stroke="#000000" stroke-width="1" x1="60" y1="115" x2="590" y2="115"/>
<line opacity="0.1" stroke="#000000" stroke-width="1" x1="60" y1="111" x2="590" y2="111"/>
<line opacity="0.1" stroke="#000000" stroke-width="1" x1="60" y1="107" x2="590" y2="107"/>
<line opacity="0.1" stroke="#000000" stroke-width="1" x1="60" y1="103" x2="590" y2="103"/>
<line opacity="0.1" stroke="#000000" stroke-width="1" x1="60" y1="100" x2="590" y2="100"/>
<line opacity="0.1" stroke="#000000" stroke-width="1" x1="60" y1="96" x2="590" y2="96"/>
<line opacity="0.1" stroke="#000000" stroke-width="1" x1="60" y1="92" x2="590" y2="92"/>
<line opacity="0.1" stroke="#000000" stroke-width="1" x1="60" y1="88" x2="590" y2="88"/>
<line opacity="0.1" stroke="#000000" stroke-width="1" x1="60" y1="84" x2="590" y2="84"/>
<line opacity="0.1" stroke="#000000" stroke-width="1" x1="60" y1="81" x2="590" y2="81"/>
<line opacity="0.1" stroke="#000000" stroke-width="1" x1="60" y1="77" x2="590" y2="77"/>
<line opacity="0.1" stroke="#000000" stroke-width="1" x1="60" y1="73" x2="590" y2="73"/>
<line opacity="0.1" stroke="#000000" stroke-width="1" x1="60" y1="69" x2="590" y2="69"/>
<line opacity="0.1" stroke="#000000" stroke-width="1" x1="60" y1="65" x2="590" y2="65"/>
<line opacity="0.1" stroke="#000000" stroke-width="1" x1="60" y1="61" x2="590" y2="61"/>
<line opacity="0.1" stroke="#000000" stroke-width="1" x1="60" y1="58" x2="590" y2="58"/>
<line opacity="0.1" stroke="#000000" stroke-width="1" x1="60" y1="54" x2="590" y2="54"/>
<line opacity="0.1" stroke="#000000" stroke-width="1" x1="60" y1="50" x2="590" y2="50"/>
<line opacity="0.1" stroke="#000000" stroke-width="1" x1="60" y1="46" x2="590" y2="46"/>
<line opacity="0.1" stroke="#000000" stroke-width="1" x1="60" y1="42" x2="590" y2="42"/>
<line opacity="0.1" stroke="#000000" stroke-width="1" x1="60" y1="39" x2="590" y2="39"/>
<line opacity="0.1" stroke="#000000" stroke-width="1" x1="60" y1="35" x2="590" y2="35"/>
<line opacity="0.1" stroke="#000000" stroke-width="1" x1="60" y1="31" x2="590" y2="31"/>
<line opacity="0.1" stroke="#000000" stroke-width="1" x1="60" y1="27" x2="590" y2="27"/>
<line opacity="0.1" stroke="#000000" stroke-width="1" x1="60" y1="23" x2="590" y2="23"/>
<line opacity="0.1" stroke="#000000" stroke-width="1" x1="60" y1="19" x2="590" y2="19"/>
<line opacity="0.1" stroke="#000000" stroke-width="1" x1="60" y1="16" x2="590" y2="16"/>
<line opacity="0.1" stroke="#000000" stroke-width="1" x1="60" y1="12" x2="590" y2="12"/>
<text x="10" y="175" dy="0.76em" text-anchor="middle" font-family="sans-serif" font-size="9.67741935483871" opacity="1" fill="#000000" transform="rotate(270, 10, 175)">
Number of dependent crates
</text>
<line opacity="0.2" stroke="#000000" stroke-width="1" x1="60" y1="310" x2="590" y2="310"/>
<line opacity="0.2" stroke="#000000" stroke-width="1" x1="60" y1="271" x2="590" y2="271"/>
<line opacity="0.2" stroke="#000000" stroke-width="1" x1="60" y1="233" x2="590" y2="233"/>
<line opacity="0.2" stroke="#000000" stroke-width="1" x1="60" y1="195" x2="590" y2="195"/>
<line opacity="0.2" stroke="#000000" stroke-width="1" x1="60" y1="157" x2="590" y2="157"/>
<line opacity="0.2" stroke="#000000" stroke-width="1" x1="60" y1="119" x2="590" y2="119"/>
<line opacity="0.2" stroke="#000000" stroke-width="1" x1="60" y1="81" x2="590" y2="81"/>
<line opacity="0.2" stroke="#000000" stroke-width="1" x1="60" y1="42" x2="590" y2="42"/>
<polyline fill="none" opacity="1" stroke="#000000" stroke-width="1" points="59,10 59,340 "/>
<text x="50" y="310" dy="0.5ex" text-anchor="end" font-family="sans-serif" font-size="9.67741935483871" opacity="1" fill="#000000">
2000
</text>
<polyline fill="none" opacity="1" stroke="#000000" stroke-width="1" points="54,310 59,310 "/>
<text x="50" y="271" dy="0.5ex" text-anchor="end" font-family="sans-serif" font-size="9.67741935483871" opacity="1" fill="#000000">
3000
</text>
<polyline fill="none" opacity="1" stroke="#000000" stroke-width="1" points="54,271 59,271 "/>
<text x="50" y="233" dy="0.5ex" text-anchor="end" font-family="sans-serif" font-size="9.67741935483871" opacity="1" fill="#000000">
4000
</text>
<polyline fill="none" opacity="1" stroke="#000000" stroke-width="1" points="54,233 59,233 "/>
<text x="50" y="195" dy="0.5ex" text-anchor="end" font-family="sans-serif" font-size="9.67741935483871" opacity="1" fill="#000000">
5000
</text>
<polyline fill="none" opacity="1" stroke="#000000" stroke-width="1" points="54,195 59,195 "/>
<text x="50" y="157" dy="0.5ex" text-anchor="end" font-family="sans-serif" font-size="9.67741935483871" opacity="1" fill="#000000">
6000
</text>
<polyline fill="none" opacity="1" stroke="#000000" stroke-width="1" points="54,157 59,157 "/>
<text x="50" y="119" dy="0.5ex" text-anchor="end" font-family="sans-serif" font-size="9.67741935483871" opacity="1" fill="#000000">
7000
</text>
<polyline fill="none" opacity="1" stroke="#000000" stroke-width="1" points="54,119 59,119 "/>
<text x="50" y="81" dy="0.5ex" text-anchor="end" font-family="sans-serif" font-size="9.67741935483871" opacity="1" fill="#000000">
8000
</text>
<polyline fill="none" opacity="1" stroke="#000000" stroke-width="1" points="54,81 59,81 "/>
<text x="50" y="42" dy="0.5ex" text-anchor="end" font-family="sans-serif" font-size="9.67741935483871" opacity="1" fill="#000000">
9000
</text>
<polyline fill="none" opacity="1" stroke="#000000" stroke-width="1" points="54,42 59,42 "/>
<polyline fill="none" opacity="1" stroke="#000000" stroke-width="1" points="60,340 590,340 "/>
<text x="60" y="350" dy="0.76em" text-anchor="middle" font-family="sans-serif" font-size="9.67741935483871" opacity="1" fill="#000000">
2020-10-11Z
</text>
<polyline fill="none" opacity="1" stroke="#000000" stroke-width="1" points="60,340 60,345 "/>
<text x="192" y="350" dy="0.76em" text-anchor="middle" font-family="sans-serif" font-size="9.67741935483871" opacity="1" fill="#000000">
2020-10-18Z
</text>
<polyline fill="none" opacity="1" stroke="#000000" stroke-width="1" points="192,340 192,345 "/>
<text x="325" y="350" dy="0.76em" text-anchor="middle" font-family="sans-serif" font-size="9.67741935483871" opacity="1" fill="#000000">
2020-10-25Z
</text>
<polyline fill="none" opacity="1" stroke="#000000" stroke-width="1" points="325,340 325,345 "/>
<text x="457" y="350" dy="0.76em" text-anchor="middle" font-family="sans-serif" font-size="9.67741935483871" opacity="1" fill="#000000">
2020-11-01Z
</text>
<polyline fill="none" opacity="1" stroke="#000000" stroke-width="1" points="457,340 457,345 "/>
<text x="590" y="350" dy="0.76em" text-anchor="middle" font-family="sans-serif" font-size="9.67741935483871" opacity="1" fill="#000000">
2020-11-08Z
</text>
<polyline fill="none" opacity="1" stroke="#000000" stroke-width="1" points="590,340 590,345 "/>
<polyline fill="none" opacity="1" stroke="#E61919" stroke-width="2" points="60,172 60,172 78,172 78,171 97,171 97,171 116,171 116,171 135,171 135,171 154,171 154,170 173,170 173,170 192,170 192,170 211,170 211,170 230,170 230,169 249,169 249,169 268,169 268,169 287,169 287,168 306,168 306,168 325,168 325,168 343,168 343,167 362,167 362,167 381,167 381,167 400,167 400,166 419,166 419,166 438,166 438,166 457,166 457,166 476,166 476,166 495,166 495,166 514,166 514,166 533,166 533,165 552,165 571,165 571,165 590,165 "/>
<polyline fill="none" opacity="1" stroke="#BDE619" stroke-width="2" points="60,55 60,54 78,54 78,54 97,54 97,54 116,54 116,53 135,53 135,52 154,52 154,52 173,52 173,52 192,52 192,51 211,51 211,50 230,50 230,49 249,49 249,49 268,49 268,49 287,49 287,48 306,48 306,47 325,47 325,47 343,47 343,46 362,46 362,46 381,46 381,46 400,46 400,45 419,45 419,45 438,45 438,45 457,45 457,44 476,44 476,44 495,44 495,44 514,44 514,44 533,44 533,44 552,43 571,43 571,43 590,43 "/>
<polyline fill="none" opacity="1" stroke="#19E66B" stroke-width="2" points="60,144 60,144 78,144 78,144 97,144 97,143 116,143 116,143 135,143 135,143 154,143 154,142 173,142 173,142 192,142 192,141 211,141 211,141 230,141 230,141 249,141 249,141 268,141 268,140 287,140 287,140 306,140 306,139 325,139 325,139 343,139 343,139 362,139 362,139 381,139 381,138 400,138 400,138 419,138 419,138 438,138 438,138 457,138 457,138 476,138 476,137 495,137 495,137 514,137 514,137 533,137 533,137 552,137 571,137 571,136 590,136 "/>
<polyline fill="none" opacity="1" stroke="#196BE6" stroke-width="2" points="60,333 60,333 78,333 78,332 97,332 97,332 116,332 116,332 135,332 135,332 154,332 154,332 173,332 173,331 192,331 192,331 211,331 211,331 230,331 230,331 249,331 249,331 268,331 268,331 287,331 287,330 306,330 306,330 325,330 325,330 343,330 343,329 362,329 362,329 381,329 381,329 400,329 400,329 419,329 419,328 438,328 438,328 457,328 457,328 476,328 476,328 495,328 495,328 514,328 514,327 533,327 533,327 552,327 571,327 571,327 590,327 "/>
<polyline fill="none" opacity="1" stroke="#BD19E6" stroke-width="2" points="60,278 60,278 78,278 78,277 97,277 97,277 116,277 116,277 135,277 135,277 154,277 154,277 173,277 173,277 192,277 192,277 211,277 211,276 230,276 230,276 249,276 249,275 268,275 268,275 287,275 287,275 306,275 306,275 325,275 325,275 343,275 343,274 362,274 362,274 381,274 381,274 400,274 400,274 419,274 419,274 438,274 438,273 457,273 457,273 476,273 476,273 495,273 495,273 514,273 514,273 533,273 533,273 552,273 571,273 571,272 590,272 "/>
<rect x="480" y="130" width="105" height="89" opacity="1" fill="#FFFFFF" stroke="none"/>
<rect x="480" y="130" width="105" height="89" opacity="1" fill="none" stroke="#000000"/>
<text x="520" y="140" dy="0.76em" text-anchor="start" font-family="sans-serif" font-size="9.67741935483871" opacity="1" fill="#000000">
log
</text>
<text x="520" y="155" dy="0.76em" text-anchor="start" font-family="sans-serif" font-size="9.67741935483871" opacity="1" fill="#000000">
serde
</text>
<text x="520" y="170" dy="0.76em" text-anchor="start" font-family="sans-serif" font-size="9.67741935483871" opacity="1" fill="#000000">
serde_json
</text>
<text x="520" y="185" dy="0.76em" text-anchor="start" font-family="sans-serif" font-size="9.67741935483871" opacity="1" fill="#000000">
thiserror
</text>
<text x="520" y="200" dy="0.76em" text-anchor="start" font-family="sans-serif" font-size="9.67741935483871" opacity="1" fill="#000000">
tokio
</text>
<polyline fill="none" opacity="1" stroke="#E61919" stroke-width="2" points="490,145 510,145 "/>
<polyline fill="none" opacity="1" stroke="#BDE619" stroke-width="2" points="490,159 510,159 "/>
<polyline fill="none" opacity="1" stroke="#19E66B" stroke-width="2" points="490,175 510,175 "/>
<polyline fill="none" opacity="1" stroke="#196BE6" stroke-width="2" points="490,189 510,189 "/>
<polyline fill="none" opacity="1" stroke="#BD19E6" stroke-width="2" points="490,204 510,204 "/>
</svg>
