<svg width="600" height="400" xmlns="http://www.w3.org/2000/svg">
<rect x="0" y="0" width="599" height="399" opacity="1" fill="#FFFFFF" stroke="none"/>
<line opacity="0.1" stroke="#000000" stroke-width="1" x1="60" y1="334" x2="590" y2="334"/>
<line opacity="0.1" stroke="#000000" stroke-width="1" x1="60" y1="330" x2="590" y2="330"/>
<line opacity="0.1" stroke="#000000" stroke-width="1" x1="60" y1="326" x2="590" y2="326"/>
<line opacity="0.1" stroke="#000000" stroke-width="1" x1="60" y1="321" x2="590" y2="321"/>
<line opacity="0.1" stroke="#000000" stroke-width="1" x1="60" y1="317" x2="590" y2="317"/>
<line opacity="0.1" stroke="#000000" stroke-width="1" x1="60" y1="313" x2="590" y2="313"/>
<line opacity="0.1" stroke="#000000" stroke-width="1" x1="60" y1="308" x2="590" y2="308"/>
<line opacity="0.1" stroke="#000000" stroke-width="1" x1="60" y1="304" x2="590" y2="304"/>
<line opacity="0.1" stroke="#000000" stroke-width="1" x1="60" y1="300" x2="590" y2="300"/>
<line opacity="0.1" stroke="#000000" stroke-width="1" x1="60" y1="295" x2="590" y2="295"/>
<line opacity="0.1" stroke="#000000" stroke-width="1" x1="60" y1="291" x2="590" y2="291"/>
<line opacity="0.1" stroke="#000000" stroke-width="1" x1="60" y1="287" x2="590" y2="287"/>
<line opacity="0.1" stroke="#000000" stroke-width="1" x1="60" y1="282" x2="590" y2="282"/>
<line opacity="0.1" stroke="#000000" stroke-width="1" x1="60" y1="278" x2="590" y2="278"/>
<line opacity="0.1" stroke="#000000" stroke-width="1" x1="60" y1="274" x2="590" y2="274"/>
<line opacity="0.1" stroke="#000000" stroke-width="1" x1="60" y1="269" x2="590" y2="269"/>
<line opacity="0.1" stroke="#000000" stroke-width="1" x1="60" y1="265" x2="590" y2="265"/>
<line opacity="0.1" stroke="#000000" stroke-width="1" x1="60" y1="261" x2="590" y2="261"/>
<line opacity="0.1" stroke="#000000" stroke-width="1" x1="60" y1="256" x2="590" y2="256"/>
<line opacity="0.1" stroke="#000000" stroke-width="1" x1="60" y1="252" x2="590" y2="252"/>
<line opacity="0.1" stroke="#000000" stroke-width="1" x1="60" y1="248" x2="590" y2="248"/>
<line opacity="0.1" stroke="#000000" stroke-width="1" x1="60" y1="243" x2="590" y2="243"/>
<line opacity="0.1" stroke="#000000" stroke-width="1" x1="60" y1="239" x2="590" y2="239"/>
<line opacity="0.1" stroke="#000000" stroke-width="1" x1="60" y1="235" x2="590" y2="235"/>
<line opacity="0.1" stroke="#000000" stroke-width="1" x1="60" y1="230" x2="590" y2="230"/>
<line opacity="0.1" stroke="#000000" stroke-width="1" x1="60" y1="226" x2="590" y2="226"/>
<line opacity="0.1" stroke="#000000" stroke-width="1" x1="60" y1="222" x2="590" y2="222"/>
<line opacity="0.1" stroke="#000000" stroke-width="1" x1="60" y1="217" x2="590" y2="217"/>
<line opacity="0.1" stroke="#000000" stroke-width="1" x1="60" y1="213" x2="590" y2="213"/>
<line opacity="0.1" stroke="#000000" stroke-width="1" x1="60" y1="209" x2="590" y2="209"/>
<line opacity="0.1" stroke="#000000" stroke-width="1" x1="60" y1="204" x2="590" y2="204"/>
<line opacity="0.1" stroke="#000000" stroke-width="1" x1="60" y1="200" x2="590" y2="200"/>
<line opacity="0.1" stroke="#000000" stroke-width="1" x1="60" y1="196" x2="590" y2="196"/>
<line opacity="0.1" stroke="#000000" stroke-width="1" x1="60" y1="191" x2="590" y2="191"/>
<line opacity="0.1" stroke="#000000" stroke-width="1" x1="60" y1="187" x2="590" y2="187"/>
<line opacity="0.1" stroke="#000000" stroke-width="1" x1="60" y1="183" x2="590" y2="183"/>
<line opacity="0.1" stroke="#000000" stroke-width="1" x1="60" y1="178" x2="590" y2="178"/>
<line opacity="0.1" stroke="#000000" stroke-width="1" x1="60" y1="174" x2="590" y2="174"/>
<line opacity="0.1" stroke="#000000" stroke-width="1" x1="60" y1="170" x2="590" y2="170"/>
<line opacity="0.1" stroke="#000000" stroke-width="1" x1="60" y1="165" x2="590" y2="165"/>
<line opacity="0.1" stroke="#000000" stroke-width="1" x1="60" y1="161" x2="590" y2="161"/>
<line opacity="0.1" stroke="#000000" stroke-width="1" x1="60" y1="157" x2="590" y2="157"/>
<line opacity="0.1" stroke="#000000" stroke-width="1" x1="60" y1="152" x2="590" y2="152"/>
<line opacity="0.1" stroke="#000000" stroke-width="1" x1="60" y1="148" x2="590" y2="148"/>
<line opacity="0.1" stroke="#000000" stroke-width="1" x1="60" y1="144" x2="590" y2="144"/>
<line opacity="0.1" stroke="#000000" stroke-width="1" x1="60" y1="139" x2="590" y2="139"/>
<line opacity="0.1" stroke="#000000" stroke-width="1" x1="60" y1="135" x2="590" y2="135"/>
<line opacity="0.1" stroke="#000000" stroke-width="1" x1="60" y1="131" x2="590" y2="131"/>
<line opacity="0.1" stroke="#000000" stroke-width="1" x1="60" y1="126" x2="590" y2="126"/>
<line opacity="0.1" stroke="#000000" stroke-width="1" x1="60" y1="122" x2="590" y2="122"/>
<line opacity="0.1" stroke="#000000" stroke-width="1" x1="60" y1="118" x2="590" y2="118"/>
<line opacity="0.1" stroke="#000000" stroke-width="1" x1="60" y1="113" x2="590" y2="113"/>
<line opacity="0.1" stroke="#000000" stroke-width="1" x1="60" y1="109" x2="590" y2="109"/>
<line opacity="0.1" stroke="#000000" stroke-width="1" x1="60" y1="105" x2="590" y2="105"/>
<line opacity="0.1" stroke="#000000" stroke-width="1" x1="60" y1="100" x2="590" y2="100"/>
<line opacity="0.1" stroke="#000000" stroke-width="1" x1="60" y1="96" x2="590" y2="96"/>
<line opacity="0.1" stroke="#000000" stroke-width="1" x1="60" y1="92" x2="590" y2="92"/>
<line opacity="0.1" stroke="#000000" stroke-width="1" x1="60" y1="87" x2="590" y2="87"/>
<line opacity="0.1" stroke="#000000" stroke-width="1" x1="60" y1="83" x2="590" y2="83"/>
<line opacity="0.1" stroke="#000000" stroke-width="1" x1="60" y1="79" x2="590" y2="79"/>
<line opacity="0.1" stroke="#000000" stroke-width="1" x1="60" y1="74" x2="590" y2="74"/>
<line opacity="0.1" stroke="#000000" stroke-width="1" x1="60" y1="70" x2="590" y2="70"/>
<line opacity="0.1" stroke="#000000" stroke-width="1" x1="60" y1="66" x2="590" y2="66"/>
<line opacity="0.1" stroke="#000000" stroke-width="1" x1="60" y1="61" x2="590" y2="61"/>
<line opacity="0.1" stroke="#000000" stroke-width="1" x1="60" y1="57" x2="590" y2="57"/>
<line opacity="0.1" stroke="#000000" stroke-width="1" x1="60" y1="53" x2="590" y2="53"/>
<line opacity="0.1" stroke="#000000" stroke-width="1" x1="60" y1="48" x2="590" y2="48"/>
<line opacity="0.1" stroke="#000000" stroke-width="1" x1="60" y1="44" x2="590" y2="44"/>
<line opacity="0.1" stroke="#000000" stroke-width="1" x1="60" y1="40" x2="590" y2="40"/>
<line opacity="0.1" stroke="#000000" stroke-width="1" x1="60" y1="35" x2="590" y2="35"/>
<line opacity="0.1" stroke="#000000" stroke-width="1" x1="60" y1="31" x2="590" y2="31"/>
<line opacity="0.1" stroke="#000000" stroke-width="1" x1="60" y1="27" x2="590" y2="27"/>
<line opacity="0.1" stroke="#000000" stroke-width="1" x1="60" y1="22" x2="590" y2="22"/>
<line opacity="0.1" stroke="#000000" stroke-width="1" x1="60" y1="18" x2="590" y2="18"/>
<line opacity="0.1" stroke="#000000" stroke-width="1" x1="60" y1="14" x2="590" y2="14"/>
<line opacity="0.1" stroke="#000000" stroke-width="1" x1="60" y1="9" x2="590" y2="9"/>
<text x="10" y="175" dy="0.76em" text-anchor="middle" font-family="sans-serif" font-size="9.67741935483871" opacity="1" fill="#000000" transform="rotate(270, 10, 175)">
Number of dependent crates
</text>
<line opacity="0.2" stroke="#000000" stroke-width="1" x1="60" y1="300" x2="590" y2="300"/>
<line opacity="0.2" stroke="#000000" stroke-width="1" x1="60" y1="256" x2="590" y2="256"/>
<line opacity="0.2" stroke="#000000" stroke-width="1" x1="60" y1="213" x2="590" y2="213"/>
<line opacity="0.2" stroke="#000000" stroke-width="1" x1="60" y1="170" x2="590" y2="170"/>
<line opacity="0.2" stroke="#000000" stroke-width="1" x1="60" y1="126" x2="590" y2="126"/>
<line opacity="0.2" stroke="#000000" stroke-width="1" x1="60" y1="83" x2="590" y2="83"/>
<line opacity="0.2" stroke="#000000" stroke-width="1" x1="60" y1="40" x2="590" y2="40"/>
<polyline fill="none" opacity="1" stroke="#000000" stroke-width="1" points="59,10 59,340 "/>
<text x="50" y="300" dy="0.5ex" text-anchor="end" font-family="sans-serif" font-size="9.67741935483871" opacity="1" fill="#000000">
1000
</text>
<polyline fill="none" opacity="1" stroke="#000000" stroke-width="1" points="54,300 59,300 "/>
<text x="50" y="256" dy="0.5ex" text-anchor="end" font-family="sans-serif" font-size="9.67741935483871" opacity="1" fill="#000000">
2000
</text>
<polyline fill="none" opacity="1" stroke="#000000" stroke-width="1" points="54,256 59,256 "/>
<text x="50" y="213" dy="0.5ex" text-anchor="end" font-family="sans-serif" font-size="9.67741935483871" opacity="1" fill="#000000">
3000
</text>
<polyline fill="none" opacity="1" stroke="#000000" stroke-width="1" points="54,213 59,213 "/>
<text x="50" y="170" dy="0.5ex" text-anchor="end" font-family="sans-serif" font-size="9.67741935483871" opacity="1" fill="#000000">
4000
</text>
<polyline fill="none" opacity="1" stroke="#000000" stroke-width="1" points="54,170 59,170 "/>
<text x="50" y="126" dy="0.5ex" text-anchor="end" font-family="sans-serif" font-size="9.67741935483871" opacity="1" fill="#000000">
5000
</text>
<polyline fill="none" opacity="1" stroke="#000000" stroke-width="1" points="54,126 59,126 "/>
<text x="50" y="83" dy="0.5ex" text-anchor="end" font-family="sans-serif" font-size="9.67741935483871" opacity="1" fill="#000000">
6000
</text>
<polyline fill="none" opacity="1" stroke="#000000" stroke-width="1" points="54,83 59,83 "/>
<text x="50" y="40" dy="0.5ex" text-anchor="end" font-family="sans-serif" font-size="9.67741935483871" opacity="1" fill="#000000">
7000
</text>
<polyline fill="none" opacity="1" stroke="#000000" stroke-width="1" points="54,40 59,40 "/>
<polyline fill="none" opacity="1" stroke="#000000" stroke-width="1" points="60,340 590,340 "/>
<text x="60" y="350" dy="0.76em" text-anchor="middle" font-family="sans-serif" font-size="9.67741935483871" opacity="1" fill="#000000">
2020-02-02Z
</text>
<polyline fill="none" opacity="1" stroke="#000000" stroke-width="1" points="60,340 60,345 "/>
<text x="192" y="350" dy="0.76em" text-anchor="middle" font-family="sans-serif" font-size="9.67741935483871" opacity="1" fill="#000000">
2020-02-09Z
</text>
<polyline fill="none" opacity="1" stroke="#000000" stroke-width="1" points="192,340 192,345 "/>
<text x="325" y="350" dy="0.76em" text-anchor="middle" font-family="sans-serif" font-size="9.67741935483871" opacity="1" fill="#000000">
2020-02-16Z
</text>
<polyline fill="none" opacity="1" stroke="#000000" stroke-width="1" points="325,340 325,345 "/>
<text x="457" y="350" dy="0.76em" text-anchor="middle" font-family="sans-serif" font-size="9.67741935483871" opacity="1" fill="#000000">
2020-02-23Z
</text>
<polyline fill="none" opacity="1" stroke="#000000" stroke-width="1" points="457,340 457,345 "/>
<text x="590" y="350" dy="0.76em" text-anchor="middle" font-family="sans-serif" font-size="9.67741935483871" opacity="1" fill="#000000">
2020-03-01Z
</text>
<polyline fill="none" opacity="1" stroke="#000000" stroke-width="1" points="590,340 590,345 "/>
<polyline fill="none" opacity="1" stroke="#E61919" stroke-width="2" points="60,338 78,338 97,338 97,338 116,338 135,338 135,338 154,338 154,329 173,329 173,329 192,329 192,328 211,328 211,328 230,328 230,328 249,328 268,328 268,328 287,328 287,328 306,328 306,328 325,328 325,328 343,328 343,328 362,328 381,328 381,328 400,328 400,328 419,328 419,328 438,328 457,328 457,328 476,328 495,328 495,328 514,328 514,328 533,328 552,328 571,328 571,328 590,328 "/>
<polyline fill="none" opacity="1" stroke="#BDE619" stroke-width="2" points="60,166 78,166 97,166 97,165 116,164 135,164 135,164 154,164 154,163 173,163 173,163 192,163 192,163 211,163 211,163 230,163 230,163 249,162 268,162 268,162 287,162 287,162 306,162 306,162 325,162 325,161 343,161 343,161 362,161 381,161 381,161 400,160 419,160 419,160 438,160 457,160 457,160 476,159 495,159 495,159 514,159 514,159 533,157 552,157 552,157 571,157 571,157 590,157 "/>
<polyline fill="none" opacity="1" stroke="#19E66B" stroke-width="2" points="60,58 78,58 97,58 97,57 116,56 135,56 135,55 154,55 154,51 173,51 173,51 192,51 192,50 211,50 211,50 230,50 230,49 249,49 268,49 268,48 287,48 287,48 306,48 306,48 325,48 325,47 343,47 343,47 362,46 381,46 381,46 400,46 400,45 419,45 419,45 438,44 457,44 457,44 476,44 495,44 495,43 514,43 514,43 533,40 552,40 552,39 571,39 571,39 590,39 "/>
<polyline fill="none" opacity="1" stroke="#196BE6" stroke-width="2" points="60,144 78,144 97,144 97,144 116,143 135,143 135,142 154,142 154,140 173,140 173,139 192,139 192,139 211,139 211,138 230,138 230,138 249,138 268,138 268,138 287,138 287,138 306,138 306,137 325,137 325,137 343,137 343,137 362,136 381,136 381,136 400,136 400,135 419,135 419,135 438,135 457,135 457,135 476,135 495,135 495,134 514,134 514,134 533,133 552,133 552,133 571,133 571,133 590,133 "/>
<polyline fill="none" opacity="1" stroke="#BD19E6" stroke-width="2" points="60,289 78,289 97,289 97,289 116,289 135,289 135,289 154,289 154,280 173,280 173,279 192,279 192,279 211,279 211,279 230,279 230,279 249,278 268,278 268,278 287,278 287,278 306,278 306,278 325,278 325,277 343,277 343,277 362,277 381,277 381,277 400,277 400,277 419,277 419,276 438,276 457,276 457,276 476,276 495,276 495,275 514,275 514,275 533,275 552,275 552,274 571,274 571,274 590,274 "/>
<rect x="480" y="130" width="105" height="89" opacity="1" fill="#FFFFFF" stroke="none"/>
<rect x="480" y="130" width="105" height="89" opacity="1" fill="none" stroke="#000000"/>
<text x="520" y="140" dy="0.76em" text-anchor="start" font-family="sans-serif" font-size="9.67741935483871" opacity="1" fill="#000000">
async-trait
</text>
<text x="520" y="155" dy="0.76em" text-anchor="start" font-family="sans-serif" font-size="9.67741935483871" opacity="1" fill="#000000">
log
</text>
<text x="520" y="170" dy="0.76em" text-anchor="start" font-family="sans-serif" font-size="9.67741935483871" opacity="1" fill="#000000">
serde
</text>
<text x="520" y="185" dy="0.76em" text-anchor="start" font-family="sans-serif" font-size="9.67741935483871" opacity="1" fill="#000000">
serde_json
</text>
<text x="520" y="200" dy="0.76em" text-anchor="start" font-family="sans-serif" font-size="9.67741935483871" opacity="1" fill="#000000">
tokio
</text>
<polyline fill="none" opacity="1" stroke="#E61919" stroke-width="2" points="490,145 510,145 "/>
<polyline fill="none" opacity="1" stroke="#BDE619" stroke-width="2" points="490,160 510,160 "/>
<polyline fill="none" opacity="1" stroke="#19E66B" stroke-width="2" points="490,174 510,174 "/>
<polyline fill="none" opacity="1" stroke="#196BE6" stroke-width="2" points="490,190 510,190 "/>
<polyline fill="none" opacity="1" stroke="#BD19E6" stroke-width="2" points="490,204 510,204 "/>
</svg>
