<svg width="600" height="400" xmlns="http://www.w3.org/2000/svg">
<rect x="0" y="0" width="599" height="399" opacity="1" fill="#FFFFFF" stroke="none"/>
<line opacity="0.1" stroke="#000000" stroke-width="1" x1="60" y1="336" x2="590" y2="336"/>
<line opacity="0.1" stroke="#000000" stroke-width="1" x1="60" y1="332" x2="590" y2="332"/>
<line opacity="0.1" stroke="#000000" stroke-width="1" x1="60" y1="327" x2="590" y2="327"/>
<line opacity="0.1" stroke="#000000" stroke-width="1" x1="60" y1="323" x2="590" y2="323"/>
<line opacity="0.1" stroke="#000000" stroke-width="1" x1="60" y1="319" x2="590" y2="319"/>
<line opacity="0.1" stroke="#000000" stroke-width="1" x1="60" y1="314" x2="590" y2="314"/>
<line opacity="0.1" stroke="#000000" stroke-width="1" x1="60" y1="310" x2="590" y2="310"/>
<line opacity="0.1" stroke="#000000" stroke-width="1" x1="60" y1="306" x2="590" y2="306"/>
<line opacity="0.1" stroke="#000000" stroke-width="1" x1="60" y1="302" x2="590" y2="302"/>
<line opacity="0.1" stroke="#000000" stroke-width="1" x1="60" y1="297" x2="590" y2="297"/>
<line opacity="0.1" stroke="#000000" stroke-width="1" x1="60" y1="293" x2="590" y2="293"/>
<line opacity="0.1" stroke="#000000" stroke-width="1" x1="60" y1="289" x2="590" y2="289"/>
<line opacity="0.1" stroke="#000000" stroke-width="1" x1="60" y1="284" x2="590" y2="284"/>
<line opacity="0.1" stroke="#000000" stroke-width="1" x1="60" y1="280" x2="590" y2="280"/>
<line opacity="0.1" stroke="#000000" stroke-width="1" x1="60" y1="276" x2="590" y2="276"/>
<line opacity="0.1" stroke="#000000" stroke-width="1" x1="60" y1="271" x2="590" y2="271"/>
<line opacity="0.1" stroke="#000000" stroke-width="1" x1="60" y1="267" x2="590" y2="267"/>
<line opacity="0.1" stroke="#000000" stroke-width="1" x1="60" y1="263" x2="590" y2="263"/>
<line opacity="0.1" stroke="#000000" stroke-width="1" x1="60" y1="259" x2="590" y2="259"/>
<line opacity="0.1" stroke="#000000" stroke-width="1" x1="60" y1="254" x2="590" y2="254"/>
<line opacity="0.1" stroke="#000000" stroke-width="1" x1="60" y1="250" x2="590" y2="250"/>
<line opacity="0.1" stroke="#000000" stroke-width="1" x1="60" y1="246" x2="590" y2="246"/>
<line opacity="0.1" stroke="#000000" stroke-width="1" x1="60" y1="241" x2="590" y2="241"/>
<line opacity="0.1" stroke="#000000" stroke-width="1" x1="60" y1="237" x2="590" y2="237"/>
<line opacity="0.1" stroke="#000000" stroke-width="1" x1="60" y1="233" x2="590" y2="233"/>
<line opacity="0.1" stroke="#000000" stroke-width="1" x1="60" y1="228" x2="590" y2="228"/>
<line opacity="0.1" stroke="#000000" stroke-width="1" x1="60" y1="224" x2="590" y2="224"/>
<line opacity="0.1" stroke="#000000" stroke-width="1" x1="60" y1="220" x2="590" y2="220"/>
<line opacity="0.1" stroke="#000000" stroke-width="1" x1="60" y1="216" x2="590" y2="216"/>
<line opacity="0.1" stroke="#000000" stroke-width="1" x1="60" y1="211" x2="590" y2="211"/>
<line opacity="0.1" stroke="#000000" stroke-width="1" x1="60" y1="207" x2="590" y2="207"/>
<line opacity="0.1" stroke="#000000" stroke-width="1" x1="60" y1="203" x2="590" y2="203"/>
<line opacity="0.1" stroke="#000000" stroke-width="1" x1="60" y1="198" x2="590" y2="198"/>
<line opacity="0.1" stroke="#000000" stroke-width="1" x1="60" y1="194" x2="590" y2="194"/>
<line opacity="0.1" stroke="#000000" stroke-width="1" x1="60" y1="190" x2="590" y2="190"/>
<line opacity="0.1" stroke="#000000" stroke-width="1" x1="60" y1="186" x2="590" y2="186"/>
<line opacity="0.1" stroke="#000000" stroke-width="1" x1="60" y1="181" x2="590" y2="181"/>
<line opacity="0.1" stroke="#000000" stroke-width="1" x1="60" y1="177" x2="590" y2="177"/>
<line opacity="0.1" stroke="#000000" stroke-width="1" x1="60" y1="173" x2="590" y2="173"/>
<line opacity="0.1" stroke="#000000" stroke-width="1" x1="60" y1="168" x2="590" y2="168"/>
<line opacity="0.1" stroke="#000000" stroke-width="1" x1="60" y1="164" x2="590" y2="164"/>
<line opacity="0.1" stroke="#000000" stroke-width="1" x1="60" y1="160" x2="590" y2="160"/>
<line opacity="0.1" stroke="#000000" stroke-width="1" x1="60" y1="155" x2="590" y2="155"/>
<line opacity="0.1" stroke="#000000" stroke-width="1" x1="60" y1="151" x2="590" y2="151"/>
<line opacity="0.1" stroke="#000000" stroke-width="1" x1="60" y1="147" x2="590" y2="147"/>
<line opacity="0.1" stroke="#000000" stroke-width="1" x1="60" y1="143" x2="590" y2="143"/>
<line opacity="0.1" stroke="#000000" stroke-width="1" x1="60" y1="138" x2="590" y2="138"/>
<line opacity="0.1" stroke="#000000" stroke-width="1" x1="60" y1="134" x2="590" y2="134"/>
<line opacity="0.1" stroke="#000000" stroke-width="1" x1="60" y1="130" x2="590" y2="130"/>
<line opacity="0.1" stroke="#000000" stroke-width="1" x1="60" y1="125" x2="590" y2="125"/>
<line opacity="0.1" stroke="#000000" stroke-width="1" x1="60" y1="121" x2="590" y2="121"/>
<line opacity="0.1" stroke="#000000" stroke-width="1" x1="60" y1="117" x2="590" y2="117"/>
<line opacity="0.1" stroke="#000000" stroke-width="1" x1="60" y1="112" x2="590" y2="112"/>
<line opacity="0.1" stroke="#000000" stroke-width="1" x1="60" y1="108" x2="590" y2="108"/>
<line opacity="0.1" stroke="#000000" stroke-width="1" x1="60" y1="104" x2="590" y2="104"/>
<line opacity="0.1" stroke="#000000" stroke-width="1" x1="60" y1="100" x2="590" y2="100"/>
<line opacity="0.1" stroke="#000000" stroke-width="1" x1="60" y1="95" x2="590" y2="95"/>
<line opacity="0.1" stroke="#000000" stroke-width="1" x1="60" y1="91" x2="590" y2="91"/>
<line opacity="0.1" stroke="#000000" stroke-width="1" x1="60" y1="87" x2="590" y2="87"/>
<line opacity="0.1" stroke="#000000" stroke-width="1" x1="60" y1="82" x2="590" y2="82"/>
<line opacity="0.1" stroke="#000000" stroke-width="1" x1="60" y1="78" x2="590" y2="78"/>
<line opacity="0.1" stroke="#000000" stroke-width="1" x1="60" y1="74" x2="590" y2="74"/>
<line opacity="0.1" stroke="#000000" stroke-width="1" x1="60" y1="69" x2="590" y2="69"/>
<line opacity="0.1" stroke="#000000" stroke-width="1" x1="60" y1="65" x2="590" y2="65"/>
<line opacity="0.1" stroke="#000000" stroke-width="1" x1="60" y1="61" x2="590" y2="61"/>
<line opacity="0.1" stroke="#000000" stroke-width="1" x1="60" y1="57" x2="590" y2="57"/>
<line opacity="0.1" stroke="#000000" stroke-width="1" x1="60" y1="52" x2="590" y2="52"/>
<line opacity="0.1" stroke="#000000" stroke-width="1" x1="60" y1="48" x2="590" y2="48"/>
<line opacity="0.1" stroke="#000000" stroke-width="1" x1="60" y1="44" x2="590" y2="44"/>
<line opacity="0.1" stroke="#000000" stroke-width="1" x1="60" y1="39" x2="590" y2="39"/>
<line opacity="0.1" stroke="#000000" stroke-width="1" x1="60" y1="35" x2="590" y2="35"/>
<line opacity="0.1" stroke="#000000" stroke-width="1" x1="60" y1="31" x2="590" y2="31"/>
<line opacity="0.1" stroke="#000000" stroke-width="1" x1="60" y1="26" x2="590" y2="26"/>
<line opacity="0.1" stroke="#000000" stroke-width="1" x1="60" y1="22" x2="590" y2="22"/>
<line opacity="0.1" stroke="#000000" stroke-width="1" x1="60" y1="18" x2="590" y2="18"/>
<line opacity="0.1" stroke="#000000" stroke-width="1" x1="60" y1="14" x2="590" y2="14"/>
<line opacity="0.1" stroke="#000000" stroke-width="1" x1="60" y1="9" x2="590" y2="9"/>
<text x="10" y="175" dy="0.76em" text-anchor="middle" font-family="sans-serif" font-size="9.67741935483871" opacity="1" fill="#000000" transform="rotate(270, 10, 175)">
Number of dependent crates
</text>
<line opacity="0.2" stroke="#000000" stroke-width="1" x1="60" y1="323" x2="590" y2="323"/>
<line opacity="0.2" stroke="#000000" stroke-width="1" x1="60" y1="280" x2="590" y2="280"/>
<line opacity="0.2" stroke="#000000" stroke-width="1" x1="60" y1="237" x2="590" y2="237"/>
<line opacity="0.2" stroke="#000000" stroke-width="1" x1="60" y1="194" x2="590" y2="194"/>
<line opacity="0.2" stroke="#000000" stroke-width="1" x1="60" y1="151" x2="590" y2="151"/>
<line opacity="0.2" stroke="#000000" stroke-width="1" x1="60" y1="108" x2="590" y2="108"/>
<line opacity="0.2" stroke="#000000" stroke-width="1" x1="60" y1="65" x2="590" y2="65"/>
<line opacity="0.2" stroke="#000000" stroke-width="1" x1="60" y1="22" x2="590" y2="22"/>
<polyline fill="none" opacity="1" stroke="#000000" stroke-width="1" points="59,10 59,340 "/>
<text x="50" y="323" dy="0.5ex" text-anchor="end" font-family="sans-serif" font-size="9.67741935483871" opacity="1" fill="#000000">
1000
</text>
<polyline fill="none" opacity="1" stroke="#000000" stroke-width="1" points="54,323 59,323 "/>
<text x="50" y="280" dy="0.5ex" text-anchor="end" font-family="sans-serif" font-size="9.67741935483871" opacity="1" fill="#000000">
2000
</text>
<polyline fill="none" opacity="1" stroke="#000000" stroke-width="1" points="54,280 59,280 "/>
<text x="50" y="237" dy="0.5ex" text-anchor="end" font-family="sans-serif" font-size="9.67741935483871" opacity="1" fill="#000000">
3000
</text>
<polyline fill="none" opacity="1" stroke="#000000" stroke-width="1" points="54,237 59,237 "/>
<text x="50" y="194" dy="0.5ex" text-anchor="end" font-family="sans-serif" font-size="9.67741935483871" opacity="1" fill="#000000">
4000
</text>
<polyline fill="none" opacity="1" stroke="#000000" stroke-width="1" points="54,194 59,194 "/>
<text x="50" y="151" dy="0.5ex" text-anchor="end" font-family="sans-serif" font-size="9.67741935483871" opacity="1" fill="#000000">
5000
</text>
<polyline fill="none" opacity="1" stroke="#000000" stroke-width="1" points="54,151 59,151 "/>
<text x="50" y="108" dy="0.5ex" text-anchor="end" font-family="sans-serif" font-size="9.67741935483871" opacity="1" fill="#000000">
6000
</text>
<polyline fill="none" opacity="1" stroke="#000000" stroke-width="1" points="54,108 59,108 "/>
<text x="50" y="65" dy="0.5ex" text-anchor="end" font-family="sans-serif" font-size="9.67741935483871" opacity="1" fill="#000000">
7000
</text>
<polyline fill="none" opacity="1" stroke="#000000" stroke-width="1" points="54,65 59,65 "/>
<text x="50" y="22" dy="0.5ex" text-anchor="end" font-family="sans-serif" font-size="9.67741935483871" opacity="1" fill="#000000">
8000
</text>
<polyline fill="none" opacity="1" stroke="#000000" stroke-width="1" points="54,22 59,22 "/>
<polyline fill="none" opacity="1" stroke="#000000" stroke-width="1" points="60,340 590,340 "/>
<text x="60" y="350" dy="0.76em" text-anchor="middle" font-family="sans-serif" font-size="9.67741935483871" opacity="1" fill="#000000">
2020-06-07Z
</text>
<polyline fill="none" opacity="1" stroke="#000000" stroke-width="1" points="60,340 60,345 "/>
<text x="192" y="350" dy="0.76em" text-anchor="middle" font-family="sans-serif" font-size="9.67741935483871" opacity="1" fill="#000000">
2020-06-14Z
</text>
<polyline fill="none" opacity="1" stroke="#000000" stroke-width="1" points="192,340 192,345 "/>
<text x="325" y="350" dy="0.76em" text-anchor="middle" font-family="sans-serif" font-size="9.67741935483871" opacity="1" fill="#000000">
2020-06-21Z
</text>
<polyline fill="none" opacity="1" stroke="#000000" stroke-width="1" points="325,340 325,345 "/>
<text x="457" y="350" dy="0.76em" text-anchor="middle" font-family="sans-serif" font-size="9.67741935483871" opacity="1" fill="#000000">
2020-06-28Z
</text>
<polyline fill="none" opacity="1" stroke="#000000" stroke-width="1" points="457,340 457,345 "/>
<text x="590" y="350" dy="0.76em" text-anchor="middle" font-family="sans-serif" font-size="9.67741935483871" opacity="1" fill="#000000">
2020-07-05Z
</text>
<polyline fill="none" opacity="1" stroke="#000000" stroke-width="1" points="590,340 590,345 "/>
<polyline fill="none" opacity="1" stroke="#E61919" stroke-width="2" points="60,156 78,156 78,155 97,155 97,155 116,155 116,155 135,155 135,155 154,155 154,155 173,155 192,154 211,154 211,154 230,154 249,154 249,154 268,154 268,154 287,154 287,153 306,153 306,153 325,153 325,153 343,153 343,153 362,153 362,153 381,153 381,152 400,152 400,152 419,152 419,152 438,152 457,152 457,152 476,152 476,151 495,151 495,151 514,151 514,151 533,151 533,151 552,151 552,151 571,151 571,150 590,150 "/>
<polyline fill="none" opacity="1" stroke="#BDE619" stroke-width="2" points="60,52 78,52 78,51 97,51 97,51 116,51 116,51 135,51 135,50 154,50 154,50 173,49 192,49 211,49 211,49 230,48 249,48 249,48 268,48 268,48 287,48 287,47 306,47 306,47 325,47 325,46 343,46 343,45 362,45 362,45 381,45 381,44 400,44 400,44 419,44 419,44 438,43 457,43 457,43 476,43 476,43 495,43 495,42 514,42 514,42 533,42 533,42 552,42 552,41 571,41 571,41 590,41 "/>
<polyline fill="none" opacity="1" stroke="#19E66B" stroke-width="2" points="60,134 78,134 78,134 97,134 97,133 116,133 116,133 135,133 135,133 154,133 154,133 173,132 192,132 211,132 211,132 230,132 249,132 249,131 268,131 268,131 287,131 287,131 306,131 306,130 325,130 325,130 343,130 343,129 362,129 362,129 381,129 381,129 400,129 400,128 419,128 419,128 438,128 457,128 457,128 476,128 476,128 495,128 495,127 514,127 514,127 533,127 533,127 552,127 552,126 571,126 571,126 590,126 "/>
<polyline fill="none" opacity="1" stroke="#196BE6" stroke-width="2" points="60,335 78,335 78,335 97,335 97,335 116,335 116,335 135,335 135,335 154,335 154,334 173,334 192,334 211,334 211,334 230,333 249,333 249,333 268,333 268,333 287,333 287,332 306,332 306,332 325,332 325,332 343,332 343,332 362,332 362,332 381,332 381,331 400,331 400,331 419,331 419,331 438,331 457,331 457,331 476,331 476,330 495,330 495,330 514,330 514,330 533,330 533,330 552,330 552,330 571,330 571,329 590,329 "/>
<polyline fill="none" opacity="1" stroke="#BD19E6" stroke-width="2" points="60,274 78,274 78,274 97,274 97,273 116,273 116,273 135,273 135,273 154,273 154,273 173,273 192,272 211,272 211,272 230,272 249,272 249,271 268,271 268,271 287,271 287,271 306,271 306,271 325,271 325,270 343,270 343,270 362,270 362,270 381,270 381,270 400,270 400,270 419,270 419,270 438,269 457,269 457,269 476,269 476,269 495,269 495,268 514,268 514,268 533,268 533,268 552,268 552,268 571,268 571,267 590,267 "/>
<rect x="480" y="130" width="105" height="89" opacity="1" fill="#FFFFFF" stroke="none"/>
<rect x="480" y="130" width="105" height="89" opacity="1" fill="none" stroke="#000000"/>
<text x="520" y="140" dy="0.76em" text-anchor="start" font-family="sans-serif" font-size="9.67741935483871" opacity="1" fill="#000000">
log
</text>
<text x="520" y="155" dy="0.76em" text-anchor="start" font-family="sans-serif" font-size="9.67741935483871" opacity="1" fill="#000000">
serde
</text>
<text x="520" y="170" dy="0.76em" text-anchor="start" font-family="sans-serif" font-size="9.67741935483871" opacity="1" fill="#000000">
serde_json
</text>
<text x="520" y="185" dy="0.76em" text-anchor="start" font-family="sans-serif" font-size="9.67741935483871" opacity="1" fill="#000000">
thiserror
</text>
<text x="520" y="200" dy="0.76em" text-anchor="start" font-family="sans-serif" font-size="9.67741935483871" opacity="1" fill="#000000">
tokio
</text>
<polyline fill="none" opacity="1" stroke="#E61919" stroke-width="2" points="490,145 510,145 "/>
<polyline fill="none" opacity="1" stroke="#BDE619" stroke-width="2" points="490,159 510,159 "/>
<polyline fill="none" opacity="1" stroke="#19E66B" stroke-width="2" points="490,175 510,175 "/>
<polyline fill="none" opacity="1" stroke="#196BE6" stroke-width="2" points="490,189 510,189 "/>
<polyline fill="none" opacity="1" stroke="#BD19E6" stroke-width="2" points="490,204 510,204 "/>
</svg>
