<svg width="600" height="400" viewBox="0 0 600 400" xmlns="http://www.w3.org/2000/svg">
<rect x="0" y="0" width="600" height="400" opacity="1" fill="#FFFFFF" stroke="none"/>
<line opacity="0.1" stroke="#000000" stroke-width="1" x1="60" y1="336" x2="589" y2="336"/>
<line opacity="0.1" stroke="#000000" stroke-width="1" x1="60" y1="331" x2="589" y2="331"/>
<line opacity="0.1" stroke="#000000" stroke-width="1" x1="60" y1="326" x2="589" y2="326"/>
<line opacity="0.1" stroke="#000000" stroke-width="1" x1="60" y1="322" x2="589" y2="322"/>
<line opacity="0.1" stroke="#000000" stroke-width="1" x1="60" y1="317" x2="589" y2="317"/>
<line opacity="0.1" stroke="#000000" stroke-width="1" x1="60" y1="312" x2="589" y2="312"/>
<line opacity="0.1" stroke="#000000" stroke-width="1" x1="60" y1="307" x2="589" y2="307"/>
<line opacity="0.1" stroke="#000000" stroke-width="1" x1="60" y1="303" x2="589" y2="303"/>
<line opacity="0.1" stroke="#000000" stroke-width="1" x1="60" y1="298" x2="589" y2="298"/>
<line opacity="0.1" stroke="#000000" stroke-width="1" x1="60" y1="293" x2="589" y2="293"/>
<line opacity="0.1" stroke="#000000" stroke-width="1" x1="60" y1="288" x2="589" y2="288"/>
<line opacity="0.1" stroke="#000000" stroke-width="1" x1="60" y1="283" x2="589" y2="283"/>
<line opacity="0.1" stroke="#000000" stroke-width="1" x1="60" y1="279" x2="589" y2="279"/>
<line opacity="0.1" stroke="#000000" stroke-width="1" x1="60" y1="274" x2="589" y2="274"/>
<line opacity="0.1" stroke="#000000" stroke-width="1" x1="60" y1="269" x2="589" y2="269"/>
<line opacity="0.1" stroke="#000000" stroke-width="1" x1="60" y1="264" x2="589" y2="264"/>
<line opacity="0.1" stroke="#000000" stroke-width="1" x1="60" y1="259" x2="589" y2="259"/>
<line opacity="0.1" stroke="#000000" stroke-width="1" x1="60" y1="255" x2="589" y2="255"/>
<line opacity="0.1" stroke="#000000" stroke-width="1" x1="60" y1="250" x2="589" y2="250"/>
<line opacity="0.1" stroke="#000000" stroke-width="1" x1="60" y1="245" x2="589" y2="245"/>
<line opacity="0.1" stroke="#000000" stroke-width="1" x1="60" y1="240" x2="589" y2="240"/>
<line opacity="0.1" stroke="#000000" stroke-width="1" x1="60" y1="235" x2="589" y2="235"/>
<line opacity="0.1" stroke="#000000" stroke-width="1" x1="60" y1="231" x2="589" y2="231"/>
<line opacity="0.1" stroke="#000000" stroke-width="1" x1="60" y1="226" x2="589" y2="226"/>
<line opacity="0.1" stroke="#000000" stroke-width="1" x1="60" y1="221" x2="589" y2="221"/>
<line opacity="0.1" stroke="#000000" stroke-width="1" x1="60" y1="216" x2="589" y2="216"/>
<line opacity="0.1" stroke="#000000" stroke-width="1" x1="60" y1="211" x2="589" y2="211"/>
<line opacity="0.1" stroke="#000000" stroke-width="1" x1="60" y1="207" x2="589" y2="207"/>
<line opacity="0.1" stroke="#000000" stroke-width="1" x1="60" y1="202" x2="589" y2="202"/>
<line opacity="0.1" stroke="#000000" stroke-width="1" x1="60" y1="197" x2="589" y2="197"/>
<line opacity="0.1" stroke="#000000" stroke-width="1" x1="60" y1="192" x2="589" y2="192"/>
<line opacity="0.1" stroke="#000000" stroke-width="1" x1="60" y1="187" x2="589" y2="187"/>
<line opacity="0.1" stroke="#000000" stroke-width="1" x1="60" y1="183" x2="589" y2="183"/>
<line opacity="0.1" stroke="#000000" stroke-width="1" x1="60" y1="178" x2="589" y2="178"/>
<line opacity="0.1" stroke="#000000" stroke-width="1" x1="60" y1="173" x2="589" y2="173"/>
<line opacity="0.1" stroke="#000000" stroke-width="1" x1="60" y1="168" x2="589" y2="168"/>
<line opacity="0.1" stroke="#000000" stroke-width="1" x1="60" y1="163" x2="589" y2="163"/>
<line opacity="0.1" stroke="#000000" stroke-width="1" x1="60" y1="159" x2="589" y2="159"/>
<line opacity="0.1" stroke="#000000" stroke-width="1" x1="60" y1="154" x2="589" y2="154"/>
<line opacity="0.1" stroke="#000000" stroke-width="1" x1="60" y1="149" x2="589" y2="149"/>
<line opacity="0.1" stroke="#000000" stroke-width="1" x1="60" y1="144" x2="589" y2="144"/>
<line opacity="0.1" stroke="#000000" stroke-width="1" x1="60" y1="139" x2="589" y2="139"/>
<line opacity="0.1" stroke="#000000" stroke-width="1" x1="60" y1="135" x2="589" y2="135"/>
<line opacity="0.1" stroke="#000000" stroke-width="1" x1="60" y1="130" x2="589" y2="130"/>
<line opacity="0.1" stroke="#000000" stroke-width="1" x1="60" y1="125" x2="589" y2="125"/>
<line opacity="0.1" stroke="#000000" stroke-width="1" x1="60" y1="120" x2="589" y2="120"/>
<line opacity="0.1" stroke="#000000" stroke-width="1" x1="60" y1="115" x2="589" y2="115"/>
<line opacity="0.1" stroke="#000000" stroke-width="1" x1="60" y1="111" x2="589" y2="111"/>
<line opacity="0.1" stroke="#000000" stroke-width="1" x1="60" y1="106" x2="589" y2="106"/>
<line opacity="0.1" stroke="#000000" stroke-width="1" x1="60" y1="101" x2="589" y2="101"/>
<line opacity="0.1" stroke="#000000" stroke-width="1" x1="60" y1="96" x2="589" y2="96"/>
<line opacity="0.1" stroke="#000000" stroke-width="1" x1="60" y1="91" x2="589" y2="91"/>
<line opacity="0.1" stroke="#000000" stroke-width="1" x1="60" y1="87" x2="589" y2="87"/>
<line opacity="0.1" stroke="#000000" stroke-width="1" x1="60" y1="82" x2="589" y2="82"/>
<line opacity="0.1" stroke="#000000" stroke-width="1" x1="60" y1="77" x2="589" y2="77"/>
<line opacity="0.1" stroke="#000000" stroke-width="1" x1="60" y1="72" x2="589" y2="72"/>
<line opacity="0.1" stroke="#000000" stroke-width="1" x1="60" y1="67" x2="589" y2="67"/>
<line opacity="0.1" stroke="#000000" stroke-width="1" x1="60" y1="63" x2="589" y2="63"/>
<line opacity="0.1" stroke="#000000" stroke-width="1" x1="60" y1="58" x2="589" y2="58"/>
<line opacity="0.1" stroke="#000000" stroke-width="1" x1="60" y1="53" x2="589" y2="53"/>
<line opacity="0.1" stroke="#000000" stroke-width="1" x1="60" y1="48" x2="589" y2="48"/>
<line opacity="0.1" stroke="#000000" stroke-width="1" x1="60" y1="43" x2="589" y2="43"/>
<line opacity="0.1" stroke="#000000" stroke-width="1" x1="60" y1="39" x2="589" y2="39"/>
<line opacity="0.1" stroke="#000000" stroke-width="1" x1="60" y1="34" x2="589" y2="34"/>
<line opacity="0.1" stroke="#000000" stroke-width="1" x1="60" y1="29" x2="589" y2="29"/>
<line opacity="0.1" stroke="#000000" stroke-width="1" x1="60" y1="24" x2="589" y2="24"/>
<line opacity="0.1" stroke="#000000" stroke-width="1" x1="60" y1="19" x2="589" y2="19"/>
<line opacity="0.1" stroke="#000000" stroke-width="1" x1="60" y1="15" x2="589" y2="15"/>
<text x="10" y="175" dy="0.76em" text-anchor="middle" font-family="sans-serif" font-size="9.67741935483871" opacity="1" fill="#000000" transform="rotate(270, 10, 175)">
Number of dependent crates
</text>
<line opacity="0.2" stroke="#000000" stroke-width="1" x1="60" y1="322" x2="589" y2="322"/>
<line opacity="0.2" stroke="#000000" stroke-width="1" x1="60" y1="274" x2="589" y2="274"/>
<line opacity="0.2" stroke="#000000" stroke-width="1" x1="60" y1="226" x2="589" y2="226"/>
<line opacity="0.2" stroke="#000000" stroke-width="1" x1="60" y1="178" x2="589" y2="178"/>
<line opacity="0.2" stroke="#000000" stroke-width="1" x1="60" y1="130" x2="589" y2="130"/>
<line opacity="0.2" stroke="#000000" stroke-width="1" x1="60" y1="82" x2="589" y2="82"/>
<line opacity="0.2" stroke="#000000" stroke-width="1" x1="60" y1="34" x2="589" y2="34"/>
<polyline fill="none" opacity="1" stroke="#000000" stroke-width="1" points="59,10 59,339 "/>
<text x="50" y="322" dy="0.5ex" text-anchor="end" font-family="sans-serif" font-size="9.67741935483871" opacity="1" fill="#000000">
20000
</text>
<polyline fill="none" opacity="1" stroke="#000000" stroke-width="1" points="54,322 59,322 "/>
<text x="50" y="274" dy="0.5ex" text-anchor="end" font-family="sans-serif" font-size="9.67741935483871" opacity="1" fill="#000000">
25000
</text>
<polyline fill="none" opacity="1" stroke="#000000" stroke-width="1" points="54,274 59,274 "/>
<text x="50" y="226" dy="0.5ex" text-anchor="end" font-family="sans-serif" font-size="9.67741935483871" opacity="1" fill="#000000">
30000
</text>
<polyline fill="none" opacity="1" stroke="#000000" stroke-width="1" points="54,226 59,226 "/>
<text x="50" y="178" dy="0.5ex" text-anchor="end" font-family="sans-serif" font-size="9.67741935483871" opacity="1" fill="#000000">
35000
</text>
<polyline fill="none" opacity="1" stroke="#000000" stroke-width="1" points="54,178 59,178 "/>
<text x="50" y="130" dy="0.5ex" text-anchor="end" font-family="sans-serif" font-size="9.67741935483871" opacity="1" fill="#000000">
40000
</text>
<polyline fill="none" opacity="1" stroke="#000000" stroke-width="1" points="54,130 59,130 "/>
<text x="50" y="82" dy="0.5ex" text-anchor="end" font-family="sans-serif" font-size="9.67741935483871" opacity="1" fill="#000000">
45000
</text>
<polyline fill="none" opacity="1" stroke="#000000" stroke-width="1" points="54,82 59,82 "/>
<text x="50" y="34" dy="0.5ex" text-anchor="end" font-family="sans-serif" font-size="9.67741935483871" opacity="1" fill="#000000">
50000
</text>
<polyline fill="none" opacity="1" stroke="#000000" stroke-width="1" points="54,34 59,34 "/>
<polyline fill="none" opacity="1" stroke="#000000" stroke-width="1" points="60,340 589,340 "/>
<text x="60" y="350" dy="0.76em" text-anchor="middle" font-family="sans-serif" font-size="9.67741935483871" opacity="1" fill="#000000">
2025-06-15
</text>
<polyline fill="none" opacity="1" stroke="#000000" stroke-width="1" points="60,340 60,345 "/>
<text x="192" y="350" dy="0.76em" text-anchor="middle" font-family="sans-serif" font-size="9.67741935483871" opacity="1" fill="#000000">
2025-06-22
</text>
<polyline fill="none" opacity="1" stroke="#000000" stroke-width="1" points="192,340 192,345 "/>
<text x="324" y="350" dy="0.76em" text-anchor="middle" font-family="sans-serif" font-size="9.67741935483871" opacity="1" fill="#000000">
2025-06-29
</text>
<polyline fill="none" opacity="1" stroke="#000000" stroke-width="1" points="324,340 324,345 "/>
<text x="456" y="350" dy="0.76em" text-anchor="middle" font-family="sans-serif" font-size="9.67741935483871" opacity="1" fill="#000000">
2025-07-06
</text>
<polyline fill="none" opacity="1" stroke="#000000" stroke-width="1" points="456,340 456,345 "/>
<text x="589" y="350" dy="0.76em" text-anchor="middle" font-family="sans-serif" font-size="9.67741935483871" opacity="1" fill="#000000">
2025-07-13
</text>
<polyline fill="none" opacity="1" stroke="#000000" stroke-width="1" points="589,340 589,345 "/>
<polyline fill="none" opacity="1" stroke="#E61919" stroke-width="2" points="60,320 60,320 78,320 78,320 97,320 97,319 116,319 116,319 135,319 135,319 154,319 154,319 173,319 173,318 192,318 192,318 211,318 211,318 230,318 230,317 248,317 248,317 267,317 267,317 286,317 286,317 305,317 305,316 324,316 324,316 343,316 343,316 362,316 362,315 381,315 381,315 400,315 400,315 418,315 418,315 437,315 437,314 456,314 456,314 475,314 475,314 494,314 494,313 513,313 513,313 532,313 532,313 551,313 551,313 570,313 570,312 589,312 "/>
<polyline fill="none" opacity="1" stroke="#BDE619" stroke-width="2" points="60,70 60,69 78,69 78,69 97,69 97,68 116,68 116,68 135,68 135,67 154,67 154,67 173,67 173,67 192,67 192,66 211,66 211,65 230,65 230,65 248,65 248,64 267,64 267,64 286,64 286,64 305,64 305,63 324,63 324,62 343,62 343,62 362,62 362,61 381,61 381,61 400,61 400,60 418,60 418,60 437,60 437,60 456,60 456,59 475,59 475,59 494,59 494,58 513,58 513,58 532,58 532,57 551,57 551,57 570,57 570,56 589,56 "/>
<polyline fill="none" opacity="1" stroke="#19E66B" stroke-width="2" points="60,184 60,184 78,184 78,183 97,183 97,183 116,183 116,183 135,183 135,182 154,182 154,182 173,182 173,182 192,182 192,181 211,181 211,181 230,181 230,180 248,180 248,180 267,180 267,180 286,180 286,179 305,179 305,179 324,179 324,178 343,178 343,178 362,178 362,177 381,177 381,177 400,177 400,177 418,177 418,176 437,176 437,176 456,176 456,176 475,176 475,175 494,175 494,175 513,175 513,175 532,175 532,174 551,174 551,174 570,174 570,173 589,173 "/>
<polyline fill="none" opacity="1" stroke="#196BE6" stroke-width="2" points="60,299 60,298 78,298 78,298 97,298 97,298 116,298 116,298 135,298 135,297 154,297 154,297 173,297 173,297 192,297 192,296 211,296 211,296 230,296 230,296 248,296 248,295 267,295 267,295 286,295 286,295 305,295 305,294 324,294 324,294 343,294 343,293 362,293 362,293 381,293 381,293 400,293 400,292 418,292 418,292 437,292 437,292 456,292 456,292 475,292 475,291 494,291 494,291 513,291 513,291 532,291 532,290 551,290 551,290 570,290 570,289 589,289 "/>
<polyline fill="none" opacity="1" stroke="#BD19E6" stroke-width="2" points="60,230 60,230 78,230 78,229 97,229 97,229 116,229 116,229 135,229 135,228 154,228 154,228 173,228 173,228 192,228 192,227 211,227 211,227 230,227 230,226 248,226 248,226 267,226 267,225 286,225 286,225 305,225 305,225 324,225 324,224 343,224 343,224 362,224 362,223 381,223 381,223 400,223 400,223 418,223 418,222 437,222 437,222 456,222 456,222 475,222 475,221 494,221 494,221 513,221 513,221 532,221 532,220 551,220 551,220 570,220 570,219 589,219 "/>
<rect x="65" y="130" width="101" height="89" opacity="1" fill="#FFFFFF" stroke="none"/>
<rect x="65" y="130" width="101" height="89" opacity="1" fill="none" stroke="#000000"/>
<text x="105" y="140" dy="0.76em" text-anchor="start" font-family="sans-serif" font-size="9.67741935483871" opacity="1" fill="#000000">
anyhow
</text>
<text x="105" y="155" dy="0.76em" text-anchor="start" font-family="sans-serif" font-size="9.67741935483871" opacity="1" fill="#000000">
serde
</text>
<text x="105" y="170" dy="0.76em" text-anchor="start" font-family="sans-serif" font-size="9.67741935483871" opacity="1" fill="#000000">
serde_json
</text>
<text x="105" y="185" dy="0.76em" text-anchor="start" font-family="sans-serif" font-size="9.67741935483871" opacity="1" fill="#000000">
thiserror
</text>
<text x="105" y="200" dy="0.76em" text-anchor="start" font-family="sans-serif" font-size="9.67741935483871" opacity="1" fill="#000000">
tokio
</text>
<polyline fill="none" opacity="1" stroke="#E61919" stroke-width="2" points="75,144 95,144 "/>
<polyline fill="none" opacity="1" stroke="#BDE619" stroke-width="2" points="75,159 95,159 "/>
<polyline fill="none" opacity="1" stroke="#19E66B" stroke-width="2" points="75,174 95,174 "/>
<polyline fill="none" opacity="1" stroke="#196BE6" stroke-width="2" points="75,189 95,189 "/>
<polyline fill="none" opacity="1" stroke="#BD19E6" stroke-width="2" points="75,204 95,204 "/>
</svg>
