<svg width="600" height="400" viewBox="0 0 600 400" xmlns="http://www.w3.org/2000/svg">
<rect x="0" y="0" width="600" height="400" opacity="1" fill="#FFFFFF" stroke="none"/>
<line opacity="0.1" stroke="#000000" stroke-width="1" x1="60" y1="334" x2="589" y2="334"/>
<line opacity="0.1" stroke="#000000" stroke-width="1" x1="60" y1="328" x2="589" y2="328"/>
<line opacity="0.1" stroke="#000000" stroke-width="1" x1="60" y1="321" x2="589" y2="321"/>
<line opacity="0.1" stroke="#000000" stroke-width="1" x1="60" y1="315" x2="589" y2="315"/>
<line opacity="0.1" stroke="#000000" stroke-width="1" x1="60" y1="308" x2="589" y2="308"/>
<line opacity="0.1" stroke="#000000" stroke-width="1" x1="60" y1="301" x2="589" y2="301"/>
<line opacity="0.1" stroke="#000000" stroke-width="1" x1="60" y1="295" x2="589" y2="295"/>
<line opacity="0.1" stroke="#000000" stroke-width="1" x1="60" y1="288" x2="589" y2="288"/>
<line opacity="0.1" stroke="#000000" stroke-width="1" x1="60" y1="282" x2="589" y2="282"/>
<line opacity="0.1" stroke="#000000" stroke-width="1" x1="60" y1="275" x2="589" y2="275"/>
<line opacity="0.1" stroke="#000000" stroke-width="1" x1="60" y1="269" x2="589" y2="269"/>
<line opacity="0.1" stroke="#000000" stroke-width="1" x1="60" y1="262" x2="589" y2="262"/>
<line opacity="0.1" stroke="#000000" stroke-width="1" x1="60" y1="255" x2="589" y2="255"/>
<line opacity="0.1" stroke="#000000" stroke-width="1" x1="60" y1="249" x2="589" y2="249"/>
<line opacity="0.1" stroke="#000000" stroke-width="1" x1="60" y1="242" x2="589" y2="242"/>
<line opacity="0.1" stroke="#000000" stroke-width="1" x1="60" y1="236" x2="589" y2="236"/>
<line opacity="0.1" stroke="#000000" stroke-width="1" x1="60" y1="229" x2="589" y2="229"/>
<line opacity="0.1" stroke="#000000" stroke-width="1" x1="60" y1="223" x2="589" y2="223"/>
<line opacity="0.1" stroke="#000000" stroke-width="1" x1="60" y1="216" x2="589" y2="216"/>
<line opacity="0.1" stroke="#000000" stroke-width="1" x1="60" y1="209" x2="589" y2="209"/>
<line opacity="0.1" stroke="#000000" stroke-width="1" x1="60" y1="203" x2="589" y2="203"/>
<line opacity="0.1" stroke="#000000" stroke-width="1" x1="60" y1="196" x2="589" y2="196"/>
<line opacity="0.1" stroke="#000000" stroke-width="1" x1="60" y1="190" x2="589" y2="190"/>
<line opacity="0.1" stroke="#000000" stroke-width="1" x1="60" y1="183" x2="589" y2="183"/>
<line opacity="0.1" stroke="#000000" stroke-width="1" x1="60" y1="177" x2="589" y2="177"/>
<line opacity="0.1" stroke="#000000" stroke-width="1" x1="60" y1="170" x2="589" y2="170"/>
<line opacity="0.1" stroke="#000000" stroke-width="1" x1="60" y1="163" x2="589" y2="163"/>
<line opacity="0.1" stroke="#000000" stroke-width="1" x1="60" y1="157" x2="589" y2="157"/>
<line opacity="0.1" stroke="#000000" stroke-width="1" x1="60" y1="150" x2="589" y2="150"/>
<line opacity="0.1" stroke="#000000" stroke-width="1" x1="60" y1="144" x2="589" y2="144"/>
<line opacity="0.1" stroke="#000000" stroke-width="1" x1="60" y1="137" x2="589" y2="137"/>
<line opacity="0.1" stroke="#000000" stroke-width="1" x1="60" y1="131" x2="589" y2="131"/>
<line opacity="0.1" stroke="#000000" stroke-width="1" x1="60" y1="124" x2="589" y2="124"/>
<line opacity="0.1" stroke="#000000" stroke-width="1" x1="60" y1="117" x2="589" y2="117"/>
<line opacity="0.1" stroke="#000000" stroke-width="1" x1="60" y1="111" x2="589" y2="111"/>
<line opacity="0.1" stroke="#000000" stroke-width="1" x1="60" y1="104" x2="589" y2="104"/>
<line opacity="0.1" stroke="#000000" stroke-width="1" x1="60" y1="98" x2="589" y2="98"/>
<line opacity="0.1" stroke="#000000" stroke-width="1" x1="60" y1="91" x2="589" y2="91"/>
<line opacity="0.1" stroke="#000000" stroke-width="1" x1="60" y1="85" x2="589" y2="85"/>
<line opacity="0.1" stroke="#000000" stroke-width="1" x1="60" y1="78" x2="589" y2="78"/>
<line opacity="0.1" stroke="#000000" stroke-width="1" x1="60" y1="71" x2="589" y2="71"/>
<line opacity="0.1" stroke="#000000" stroke-width="1" x1="60" y1="65" x2="589" y2="65"/>
<line opacity="0.1" stroke="#000000" stroke-width="1" x1="60" y1="58" x2="589" y2="58"/>
<line opacity="0.1" stroke="#000000" stroke-width="1" x1="60" y1="52" x2="589" y2="52"/>
<line opacity="0.1" stroke="#000000" stroke-width="1" x1="60" y1="45" x2="589" y2="45"/>
<line opacity="0.1" stroke="#000000" stroke-width="1" x1="60" y1="39" x2="589" y2="39"/>
<line opacity="0.1" stroke="#000000" stroke-width="1" x1="60" y1="32" x2="589" y2="32"/>
<line opacity="0.1" stroke="#000000" stroke-width="1" x1="60" y1="25" x2="589" y2="25"/>
<line opacity="0.1" stroke="#000000" stroke-width="1" x1="60" y1="19" x2="589" y2="19"/>
<line opacity="0.1" stroke="#000000" stroke-width="1" x1="60" y1="12" x2="589" y2="12"/>
<text x="10" y="175" dy="0.76em" text-anchor="middle" font-family="sans-serif" font-size="9.67741935483871" opacity="1" fill="#000000" transform="rotate(270, 10, 175)">
Fraction of dependent crates
</text>
<line opacity="0.2" stroke="#000000" stroke-width="1" x1="60" y1="308" x2="589" y2="308"/>
<line opacity="0.2" stroke="#000000" stroke-width="1" x1="60" y1="242" x2="589" y2="242"/>
<line opacity="0.2" stroke="#000000" stroke-width="1" x1="60" y1="177" x2="589" y2="177"/>
<line opacity="0.2" stroke="#000000" stroke-width="1" x1="60" y1="111" x2="589" y2="111"/>
<line opacity="0.2" stroke="#000000" stroke-width="1" x1="60" y1="45" x2="589" y2="45"/>
<polyline fill="none" opacity="1" stroke="#000000" stroke-width="1" points="59,10 59,339 "/>
<text x="50" y="308" dy="0.5ex" text-anchor="end" font-family="sans-serif" font-size="9.67741935483871" opacity="1" fill="#000000">
0.1
</text>
<polyline fill="none" opacity="1" stroke="#000000" stroke-width="1" points="54,308 59,308 "/>
<text x="50" y="242" dy="0.5ex" text-anchor="end" font-family="sans-serif" font-size="9.67741935483871" opacity="1" fill="#000000">
0.15
</text>
<polyline fill="none" opacity="1" stroke="#000000" stroke-width="1" points="54,242 59,242 "/>
<text x="50" y="177" dy="0.5ex" text-anchor="end" font-family="sans-serif" font-size="9.67741935483871" opacity="1" fill="#000000">
0.2
</text>
<polyline fill="none" opacity="1" stroke="#000000" stroke-width="1" points="54,177 59,177 "/>
<text x="50" y="111" dy="0.5ex" text-anchor="end" font-family="sans-serif" font-size="9.67741935483871" opacity="1" fill="#000000">
0.25
</text>
<polyline fill="none" opacity="1" stroke="#000000" stroke-width="1" points="54,111 59,111 "/>
<text x="50" y="45" dy="0.5ex" text-anchor="end" font-family="sans-serif" font-size="9.67741935483871" opacity="1" fill="#000000">
0.3
</text>
<polyline fill="none" opacity="1" stroke="#000000" stroke-width="1" points="54,45 59,45 "/>
<polyline fill="none" opacity="1" stroke="#000000" stroke-width="1" points="60,340 589,340 "/>
<text x="60" y="350" dy="0.76em" text-anchor="middle" font-family="sans-serif" font-size="9.67741935483871" opacity="1" fill="#000000">
2026-02-22
</text>
<polyline fill="none" opacity="1" stroke="#000000" stroke-width="1" points="60,340 60,345 "/>
<text x="192" y="350" dy="0.76em" text-anchor="middle" font-family="sans-serif" font-size="9.67741935483871" opacity="1" fill="#000000">
2026-03-01
</text>
<polyline fill="none" opacity="1" stroke="#000000" stroke-width="1" points="192,340 192,345 "/>
<text x="324" y="350" dy="0.76em" text-anchor="middle" font-family="sans-serif" font-size="9.67741935483871" opacity="1" fill="#000000">
2026-03-08
</text>
<polyline fill="none" opacity="1" stroke="#000000" stroke-width="1" points="324,340 324,345 "/>
<text x="456" y="350" dy="0.76em" text-anchor="middle" font-family="sans-serif" font-size="9.67741935483871" opacity="1" fill="#000000">
2026-03-15
</text>
<polyline fill="none" opacity="1" stroke="#000000" stroke-width="1" points="456,340 456,345 "/>
<text x="589" y="350" dy="0.76em" text-anchor="middle" font-family="sans-serif" font-size="9.67741935483871" opacity="1" fill="#000000">
2026-03-22
</text>
<polyline fill="none" opacity="1" stroke="#000000" stroke-width="1" points="589,340 589,345 "/>
<polyline fill="none" opacity="1" stroke="#E61919" stroke-width="2" points="60,64 60,63 78,63 78,63 97,63 97,63 116,63 116,62 135,62 135,61 154,61 173,61 173,61 192,61 192,60 211,60 211,59 230,59 248,59 248,57 267,57 286,57 305,57 324,57 343,57 418,54 437,54 437,54 456,54 456,53 475,53 475,53 494,53 494,52 513,52 513,51 532,51 532,51 551,51 551,50 570,50 570,49 589,49 "/>
<polyline fill="none" opacity="1" stroke="#BDE619" stroke-width="2" points="60,145 60,144 78,144 78,144 97,144 97,143 116,143 116,143 135,143 135,142 154,142 173,142 173,141 192,141 192,140 211,140 211,139 230,139 248,139 248,136 267,136 286,136 305,136 324,136 343,136 418,132 437,132 437,132 456,132 456,131 475,131 475,130 494,130 494,129 513,129 513,129 532,129 532,128 551,128 551,128 570,128 570,127 589,127 "/>
<polyline fill="none" opacity="1" stroke="#19E66B" stroke-width="2" points="60,231 60,230 78,230 78,230 97,230 97,229 116,229 116,229 135,229 135,228 154,228 173,228 173,228 192,228 192,227 211,227 211,227 230,227 248,227 248,225 267,225 286,225 305,225 324,225 343,225 418,223 437,223 437,222 456,222 456,222 475,222 475,222 494,222 494,221 513,221 513,221 532,221 532,220 551,220 551,220 570,220 570,219 589,219 "/>
<polyline fill="none" opacity="1" stroke="#196BE6" stroke-width="2" points="60,182 60,181 78,181 78,181 97,181 97,180 116,180 116,180 135,180 135,179 154,179 173,179 173,179 192,179 192,178 211,178 211,177 230,177 248,177 248,175 267,175 286,175 305,175 324,175 343,175 418,173 437,173 437,172 456,172 456,172 475,172 475,172 494,172 494,171 513,171 513,170 532,170 532,169 551,169 551,169 570,169 570,168 589,168 "/>
<polyline fill="none" opacity="1" stroke="#BD19E6" stroke-width="2" points="60,328 60,328 78,328 78,327 97,327 97,327 116,327 116,327 135,327 135,326 154,326 173,326 173,326 192,326 192,325 211,325 211,325 230,325 248,325 248,323 267,323 286,323 305,323 324,323 343,323 418,322 437,322 437,321 456,321 456,321 475,321 475,320 494,320 494,320 513,320 513,319 532,319 532,319 551,319 551,318 570,318 570,318 589,318 "/>
<rect x="65" y="130" width="101" height="89" opacity="1" fill="#FFFFFF" stroke="none"/>
<rect x="65" y="130" width="101" height="89" opacity="1" fill="none" stroke="#000000"/>
<text x="105" y="140" dy="0.76em" text-anchor="start" font-family="sans-serif" font-size="9.67741935483871" opacity="1" fill="#000000">
serde
</text>
<text x="105" y="155" dy="0.76em" text-anchor="start" font-family="sans-serif" font-size="9.67741935483871" opacity="1" fill="#000000">
serde_json
</text>
<text x="105" y="170" dy="0.76em" text-anchor="start" font-family="sans-serif" font-size="9.67741935483871" opacity="1" fill="#000000">
thiserror
</text>
<text x="105" y="185" dy="0.76em" text-anchor="start" font-family="sans-serif" font-size="9.67741935483871" opacity="1" fill="#000000">
tokio
</text>
<text x="105" y="200" dy="0.76em" text-anchor="start" font-family="sans-serif" font-size="9.67741935483871" opacity="1" fill="#000000">
tracing
</text>
<polyline fill="none" opacity="1" stroke="#E61919" stroke-width="2" points="75,144 95,144 "/>
<polyline fill="none" opacity="1" stroke="#BDE619" stroke-width="2" points="75,159 95,159 "/>
<polyline fill="none" opacity="1" stroke="#19E66B" stroke-width="2" points="75,174 95,174 "/>
<polyline fill="none" opacity="1" stroke="#196BE6" stroke-width="2" points="75,189 95,189 "/>
<polyline fill="none" opacity="1" stroke="#BD19E6" stroke-width="2" points="75,204 95,204 "/>
</svg>
