<svg width="600" height="400" viewBox="0 0 600 400" xmlns="http://www.w3.org/2000/svg">
<rect x="0" y="0" width="600" height="400" opacity="1" fill="#FFFFFF" stroke="none"/>
<line opacity="0.1" stroke="#000000" stroke-width="1" x1="60" y1="339" x2="589" y2="339"/>
<line opacity="0.1" stroke="#000000" stroke-width="1" x1="60" y1="335" x2="589" y2="335"/>
<line opacity="0.1" stroke="#000000" stroke-width="1" x1="60" y1="332" x2="589" y2="332"/>
<line opacity="0.1" stroke="#000000" stroke-width="1" x1="60" y1="328" x2="589" y2="328"/>
<line opacity="0.1" stroke="#000000" stroke-width="1" x1="60" y1="324" x2="589" y2="324"/>
<line opacity="0.1" stroke="#000000" stroke-width="1" x1="60" y1="321" x2="589" y2="321"/>
<line opacity="0.1" stroke="#000000" stroke-width="1" x1="60" y1="317" x2="589" y2="317"/>
<line opacity="0.1" stroke="#000000" stroke-width="1" x1="60" y1="314" x2="589" y2="314"/>
<line opacity="0.1" stroke="#000000" stroke-width="1" x1="60" y1="310" x2="589" y2="310"/>
<line opacity="0.1" stroke="#000000" stroke-width="1" x1="60" y1="306" x2="589" y2="306"/>
<line opacity="0.1" stroke="#000000" stroke-width="1" x1="60" y1="303" x2="589" y2="303"/>
<line opacity="0.1" stroke="#000000" stroke-width="1" x1="60" y1="299" x2="589" y2="299"/>
<line opacity="0.1" stroke="#000000" stroke-width="1" x1="60" y1="296" x2="589" y2="296"/>
<line opacity="0.1" stroke="#000000" stroke-width="1" x1="60" y1="292" x2="589" y2="292"/>
<line opacity="0.1" stroke="#000000" stroke-width="1" x1="60" y1="288" x2="589" y2="288"/>
<line opacity="0.1" stroke="#000000" stroke-width="1" x1="60" y1="285" x2="589" y2="285"/>
<line opacity="0.1" stroke="#000000" stroke-width="1" x1="60" y1="281" x2="589" y2="281"/>
<line opacity="0.1" stroke="#000000" stroke-width="1" x1="60" y1="278" x2="589" y2="278"/>
<line opacity="0.1" stroke="#000000" stroke-width="1" x1="60" y1="274" x2="589" y2="274"/>
<line opacity="0.1" stroke="#000000" stroke-width="1" x1="60" y1="271" x2="589" y2="271"/>
<line opacity="0.1" stroke="#000000" stroke-width="1" x1="60" y1="267" x2="589" y2="267"/>
<line opacity="0.1" stroke="#000000" stroke-width="1" x1="60" y1="263" x2="589" y2="263"/>
<line opacity="0.1" stroke="#000000" stroke-width="1" x1="60" y1="260" x2="589" y2="260"/>
<line opacity="0.1" stroke="#000000" stroke-width="1" x1="60" y1="256" x2="589" y2="256"/>
<line opacity="0.1" stroke="#000000" stroke-width="1" x1="60" y1="253" x2="589" y2="253"/>
<line opacity="0.1" stroke="#000000" stroke-width="1" x1="60" y1="249" x2="589" y2="249"/>
<line opacity="0.1" stroke="#000000" stroke-width="1" x1="60" y1="245" x2="589" y2="245"/>
<line opacity="0.1" stroke="#000000" stroke-width="1" x1="60" y1="242" x2="589" y2="242"/>
<line opacity="0.1" stroke="#000000" stroke-width="1" x1="60" y1="238" x2="589" y2="238"/>
<line opacity="0.1" stroke="#000000" stroke-width="1" x1="60" y1="235" x2="589" y2="235"/>
<line opacity="0.1" stroke="#000000" stroke-width="1" x1="60" y1="231" x2="589" y2="231"/>
<line opacity="0.1" stroke="#000000" stroke-width="1" x1="60" y1="227" x2="589" y2="227"/>
<line opacity="0.1" stroke="#000000" stroke-width="1" x1="60" y1="224" x2="589" y2="224"/>
<line opacity="0.1" stroke="#000000" stroke-width="1" x1="60" y1="220" x2="589" y2="220"/>
<line opacity="0.1" stroke="#000000" stroke-width="1" x1="60" y1="217" x2="589" y2="217"/>
<line opacity="0.1" stroke="#000000" stroke-width="1" x1="60" y1="213" x2="589" y2="213"/>
<line opacity="0.1" stroke="#000000" stroke-width="1" x1="60" y1="209" x2="589" y2="209"/>
<line opacity="0.1" stroke="#000000" stroke-width="1" x1="60" y1="206" x2="589" y2="206"/>
<line opacity="0.1" stroke="#000000" stroke-width="1" x1="60" y1="202" x2="589" y2="202"/>
<line opacity="0.1" stroke="#000000" stroke-width="1" x1="60" y1="199" x2="589" y2="199"/>
<line opacity="0.1" stroke="#000000" stroke-width="1" x1="60" y1="195" x2="589" y2="195"/>
<line opacity="0.1" stroke="#000000" stroke-width="1" x1="60" y1="191" x2="589" y2="191"/>
<line opacity="0.1" stroke="#000000" stroke-width="1" x1="60" y1="188" x2="589" y2="188"/>
<line opacity="0.1" stroke="#000000" stroke-width="1" x1="60" y1="184" x2="589" y2="184"/>
<line opacity="0.1" stroke="#000000" stroke-width="1" x1="60" y1="181" x2="589" y2="181"/>
<line opacity="0.1" stroke="#000000" stroke-width="1" x1="60" y1="177" x2="589" y2="177"/>
<line opacity="0.1" stroke="#000000" stroke-width="1" x1="60" y1="173" x2="589" y2="173"/>
<line opacity="0.1" stroke="#000000" stroke-width="1" x1="60" y1="170" x2="589" y2="170"/>
<line opacity="0.1" stroke="#000000" stroke-width="1" x1="60" y1="166" x2="589" y2="166"/>
<line opacity="0.1" stroke="#000000" stroke-width="1" x1="60" y1="163" x2="589" y2="163"/>
<line opacity="0.1" stroke="#000000" stroke-width="1" x1="60" y1="159" x2="589" y2="159"/>
<line opacity="0.1" stroke="#000000" stroke-width="1" x1="60" y1="155" x2="589" y2="155"/>
<line opacity="0.1" stroke="#000000" stroke-width="1" x1="60" y1="152" x2="589" y2="152"/>
<line opacity="0.1" stroke="#000000" stroke-width="1" x1="60" y1="148" x2="589" y2="148"/>
<line opacity="0.1" stroke="#000000" stroke-width="1" x1="60" y1="145" x2="589" y2="145"/>
<line opacity="0.1" stroke="#000000" stroke-width="1" x1="60" y1="141" x2="589" y2="141"/>
<line opacity="0.1" stroke="#000000" stroke-width="1" x1="60" y1="138" x2="589" y2="138"/>
<line opacity="0.1" stroke="#000000" stroke-width="1" x1="60" y1="134" x2="589" y2="134"/>
<line opacity="0.1" stroke="#000000" stroke-width="1" x1="60" y1="130" x2="589" y2="130"/>
<line opacity="0.1" stroke="#000000" stroke-width="1" x1="60" y1="127" x2="589" y2="127"/>
<line opacity="0.1" stroke="#000000" stroke-width="1" x1="60" y1="123" x2="589" y2="123"/>
<line opacity="0.1" stroke="#000000" stroke-width="1" x1="60" y1="120" x2="589" y2="120"/>
<line opacity="0.1" stroke="#000000" stroke-width="1" x1="60" y1="116" x2="589" y2="116"/>
<line opacity="0.1" stroke="#000000" stroke-width="1" x1="60" y1="112" x2="589" y2="112"/>
<line opacity="0.1" stroke="#000000" stroke-width="1" x1="60" y1="109" x2="589" y2="109"/>
<line opacity="0.1" stroke="#000000" stroke-width="1" x1="60" y1="105" x2="589" y2="105"/>
<line opacity="0.1" stroke="#000000" stroke-width="1" x1="60" y1="102" x2="589" y2="102"/>
<line opacity="0.1" stroke="#000000" stroke-width="1" x1="60" y1="98" x2="589" y2="98"/>
<line opacity="0.1" stroke="#000000" stroke-width="1" x1="60" y1="94" x2="589" y2="94"/>
<line opacity="0.1" stroke="#000000" stroke-width="1" x1="60" y1="91" x2="589" y2="91"/>
<line opacity="0.1" stroke="#000000" stroke-width="1" x1="60" y1="87" x2="589" y2="87"/>
<line opacity="0.1" stroke="#000000" stroke-width="1" x1="60" y1="84" x2="589" y2="84"/>
<line opacity="0.1" stroke="#000000" stroke-width="1" x1="60" y1="80" x2="589" y2="80"/>
<line opacity="0.1" stroke="#000000" stroke-width="1" x1="60" y1="76" x2="589" y2="76"/>
<line opacity="0.1" stroke="#000000" stroke-width="1" x1="60" y1="73" x2="589" y2="73"/>
<line opacity="0.1" stroke="#000000" stroke-width="1" x1="60" y1="69" x2="589" y2="69"/>
<line opacity="0.1" stroke="#000000" stroke-width="1" x1="60" y1="66" x2="589" y2="66"/>
<line opacity="0.1" stroke="#000000" stroke-width="1" x1="60" y1="62" x2="589" y2="62"/>
<line opacity="0.1" stroke="#000000" stroke-width="1" x1="60" y1="58" x2="589" y2="58"/>
<line opacity="0.1" stroke="#000000" stroke-width="1" x1="60" y1="55" x2="589" y2="55"/>
<line opacity="0.1" stroke="#000000" stroke-width="1" x1="60" y1="51" x2="589" y2="51"/>
<line opacity="0.1" stroke="#000000" stroke-width="1" x1="60" y1="48" x2="589" y2="48"/>
<line opacity="0.1" stroke="#000000" stroke-width="1" x1="60" y1="44" x2="589" y2="44"/>
<line opacity="0.1" stroke="#000000" stroke-width="1" x1="60" y1="40" x2="589" y2="40"/>
<line opacity="0.1" stroke="#000000" stroke-width="1" x1="60" y1="37" x2="589" y2="37"/>
<line opacity="0.1" stroke="#000000" stroke-width="1" x1="60" y1="33" x2="589" y2="33"/>
<line opacity="0.1" stroke="#000000" stroke-width="1" x1="60" y1="30" x2="589" y2="30"/>
<line opacity="0.1" stroke="#000000" stroke-width="1" x1="60" y1="26" x2="589" y2="26"/>
<line opacity="0.1" stroke="#000000" stroke-width="1" x1="60" y1="22" x2="589" y2="22"/>
<line opacity="0.1" stroke="#000000" stroke-width="1" x1="60" y1="19" x2="589" y2="19"/>
<line opacity="0.1" stroke="#000000" stroke-width="1" x1="60" y1="15" x2="589" y2="15"/>
<line opacity="0.1" stroke="#000000" stroke-width="1" x1="60" y1="12" x2="589" y2="12"/>
<text x="10" y="175" dy="0.76em" text-anchor="middle" font-family="sans-serif" font-size="9.67741935483871" opacity="1" fill="#000000" transform="rotate(270, 10, 175)">
Fraction of dependent crates
</text>
<line opacity="0.2" stroke="#000000" stroke-width="1" x1="60" y1="310" x2="589" y2="310"/>
<line opacity="0.2" stroke="#000000" stroke-width="1" x1="60" y1="274" x2="589" y2="274"/>
<line opacity="0.2" stroke="#000000" stroke-width="1" x1="60" y1="238" x2="589" y2="238"/>
<line opacity="0.2" stroke="#000000" stroke-width="1" x1="60" y1="202" x2="589" y2="202"/>
<line opacity="0.2" stroke="#000000" stroke-width="1" x1="60" y1="166" x2="589" y2="166"/>
<line opacity="0.2" stroke="#000000" stroke-width="1" x1="60" y1="130" x2="589" y2="130"/>
<line opacity="0.2" stroke="#000000" stroke-width="1" x1="60" y1="94" x2="589" y2="94"/>
<line opacity="0.2" stroke="#000000" stroke-width="1" x1="60" y1="58" x2="589" y2="58"/>
<line opacity="0.2" stroke="#000000" stroke-width="1" x1="60" y1="22" x2="589" y2="22"/>
<polyline fill="none" opacity="1" stroke="#000000" stroke-width="1" points="59,10 59,339 "/>
<text x="50" y="310" dy="0.5ex" text-anchor="end" font-family="sans-serif" font-size="9.67741935483871" opacity="1" fill="#000000">
0.12
</text>
<polyline fill="none" opacity="1" stroke="#000000" stroke-width="1" points="54,310 59,310 "/>
<text x="50" y="274" dy="0.5ex" text-anchor="end" font-family="sans-serif" font-size="9.67741935483871" opacity="1" fill="#000000">
0.14
</text>
<polyline fill="none" opacity="1" stroke="#000000" stroke-width="1" points="54,274 59,274 "/>
<text x="50" y="238" dy="0.5ex" text-anchor="end" font-family="sans-serif" font-size="9.67741935483871" opacity="1" fill="#000000">
0.16
</text>
<polyline fill="none" opacity="1" stroke="#000000" stroke-width="1" points="54,238 59,238 "/>
<text x="50" y="202" dy="0.5ex" text-anchor="end" font-family="sans-serif" font-size="9.67741935483871" opacity="1" fill="#000000">
0.18
</text>
<polyline fill="none" opacity="1" stroke="#000000" stroke-width="1" points="54,202 59,202 "/>
<text x="50" y="166" dy="0.5ex" text-anchor="end" font-family="sans-serif" font-size="9.67741935483871" opacity="1" fill="#000000">
0.2
</text>
<polyline fill="none" opacity="1" stroke="#000000" stroke-width="1" points="54,166 59,166 "/>
<text x="50" y="130" dy="0.5ex" text-anchor="end" font-family="sans-serif" font-size="9.67741935483871" opacity="1" fill="#000000">
0.22
</text>
<polyline fill="none" opacity="1" stroke="#000000" stroke-width="1" points="54,130 59,130 "/>
<text x="50" y="94" dy="0.5ex" text-anchor="end" font-family="sans-serif" font-size="9.67741935483871" opacity="1" fill="#000000">
0.24
</text>
<polyline fill="none" opacity="1" stroke="#000000" stroke-width="1" points="54,94 59,94 "/>
<text x="50" y="58" dy="0.5ex" text-anchor="end" font-family="sans-serif" font-size="9.67741935483871" opacity="1" fill="#000000">
0.26
</text>
<polyline fill="none" opacity="1" stroke="#000000" stroke-width="1" points="54,58 59,58 "/>
<text x="50" y="22" dy="0.5ex" text-anchor="end" font-family="sans-serif" font-size="9.67741935483871" opacity="1" fill="#000000">
0.28
</text>
<polyline fill="none" opacity="1" stroke="#000000" stroke-width="1" points="54,22 59,22 "/>
<polyline fill="none" opacity="1" stroke="#000000" stroke-width="1" points="60,340 589,340 "/>
<text x="60" y="350" dy="0.76em" text-anchor="middle" font-family="sans-serif" font-size="9.67741935483871" opacity="1" fill="#000000">
2025-09-14
</text>
<polyline fill="none" opacity="1" stroke="#000000" stroke-width="1" points="60,340 60,345 "/>
<text x="192" y="350" dy="0.76em" text-anchor="middle" font-family="sans-serif" font-size="9.67741935483871" opacity="1" fill="#000000">
2025-09-21
</text>
<polyline fill="none" opacity="1" stroke="#000000" stroke-width="1" points="192,340 192,345 "/>
<text x="324" y="350" dy="0.76em" text-anchor="middle" font-family="sans-serif" font-size="9.67741935483871" opacity="1" fill="#000000">
2025-09-28
</text>
<polyline fill="none" opacity="1" stroke="#000000" stroke-width="1" points="324,340 324,345 "/>
<text x="456" y="350" dy="0.76em" text-anchor="middle" font-family="sans-serif" font-size="9.67741935483871" opacity="1" fill="#000000">
2025-10-05
</text>
<polyline fill="none" opacity="1" stroke="#000000" stroke-width="1" points="456,340 456,345 "/>
<text x="589" y="350" dy="0.76em" text-anchor="middle" font-family="sans-serif" font-size="9.67741935483871" opacity="1" fill="#000000">
2025-10-12
</text>
<polyline fill="none" opacity="1" stroke="#000000" stroke-width="1" points="589,340 589,345 "/>
<polyline fill="none" opacity="1" stroke="#E61919" stroke-width="2" points="60,319 60,319 78,319 78,319 97,319 97,318 116,318 116,318 135,318 135,318 154,318 154,318 173,318 173,318 192,318 192,318 211,318 211,317 230,317 230,317 248,317 248,317 267,317 267,317 286,317 286,317 305,317 305,317 324,317 324,317 343,317 343,317 362,317 362,317 381,317 381,317 400,317 400,316 418,316 418,316 437,316 437,316 456,316 456,316 475,316 475,316 494,316 494,316 513,316 513,316 532,316 532,316 551,316 551,315 570,315 570,315 589,315 "/>
<polyline fill="none" opacity="1" stroke="#BDE619" stroke-width="2" points="60,62 60,62 78,62 78,62 97,62 97,61 116,61 116,61 135,61 135,61 154,61 154,61 173,61 173,61 192,61 192,60 211,60 211,60 230,60 230,60 248,60 248,60 267,60 267,60 286,60 286,60 305,60 305,59 324,59 324,59 343,59 343,59 362,59 362,59 381,59 381,59 400,59 400,59 418,59 418,59 437,59 437,59 456,59 456,59 475,59 475,58 494,58 494,58 513,58 513,58 532,58 532,58 551,58 551,58 570,58 570,57 589,57 "/>
<polyline fill="none" opacity="1" stroke="#19E66B" stroke-width="2" points="60,178 60,178 78,178 78,178 97,178 97,178 116,178 116,177 135,177 135,177 154,177 154,177 173,177 173,177 192,177 192,176 211,176 211,176 230,176 230,176 248,176 248,176 267,176 267,176 286,176 286,176 305,176 305,175 324,175 324,175 343,175 343,175 362,175 362,175 381,175 381,175 400,175 400,175 418,175 418,175 437,175 437,175 456,175 456,174 475,174 475,174 494,174 494,174 513,174 513,174 532,174 532,173 551,173 551,173 570,173 570,173 589,173 "/>
<polyline fill="none" opacity="1" stroke="#196BE6" stroke-width="2" points="60,294 60,294 78,294 78,294 97,294 97,294 116,294 116,293 135,293 135,293 154,293 154,293 173,293 173,293 192,293 192,293 211,293 211,292 230,292 230,292 248,292 248,292 267,292 267,292 286,292 286,292 305,292 305,292 324,292 324,291 343,291 343,291 362,291 362,291 381,291 381,291 400,291 400,291 418,291 418,291 437,291 437,290 456,290 456,290 475,290 475,290 494,290 494,290 513,290 513,290 532,290 532,290 551,290 551,290 570,290 570,289 589,289 "/>
<polyline fill="none" opacity="1" stroke="#BD19E6" stroke-width="2" points="60,224 60,224 78,224 78,224 97,224 97,223 116,223 116,223 135,223 135,223 154,223 154,223 173,223 173,223 192,223 192,222 211,222 211,222 230,222 230,222 248,222 248,222 267,222 267,222 286,222 286,222 305,222 305,221 324,221 324,221 343,221 343,221 362,221 362,221 381,221 381,221 400,221 400,221 418,221 418,221 437,221 437,221 456,221 456,220 475,220 475,220 494,220 494,220 513,220 513,219 532,219 532,219 551,219 551,219 570,219 570,218 589,218 "/>
<rect x="65" y="130" width="101" height="89" opacity="1" fill="#FFFFFF" stroke="none"/>
<rect x="65" y="130" width="101" height="89" opacity="1" fill="none" stroke="#000000"/>
<text x="105" y="140" dy="0.76em" text-anchor="start" font-family="sans-serif" font-size="9.67741935483871" opacity="1" fill="#000000">
anyhow
</text>
<text x="105" y="155" dy="0.76em" text-anchor="start" font-family="sans-serif" font-size="9.67741935483871" opacity="1" fill="#000000">
serde
</text>
<text x="105" y="170" dy="0.76em" text-anchor="start" font-family="sans-serif" font-size="9.67741935483871" opacity="1" fill="#000000">
serde_json
</text>
<text x="105" y="185" dy="0.76em" text-anchor="start" font-family="sans-serif" font-size="9.67741935483871" opacity="1" fill="#000000">
thiserror
</text>
<text x="105" y="200" dy="0.76em" text-anchor="start" font-family="sans-serif" font-size="9.67741935483871" opacity="1" fill="#000000">
tokio
</text>
<polyline fill="none" opacity="1" stroke="#E61919" stroke-width="2" points="75,144 95,144 "/>
<polyline fill="none" opacity="1" stroke="#BDE619" stroke-width="2" points="75,159 95,159 "/>
<polyline fill="none" opacity="1" stroke="#19E66B" stroke-width="2" points="75,174 95,174 "/>
<polyline fill="none" opacity="1" stroke="#196BE6" stroke-width="2" points="75,189 95,189 "/>
<polyline fill="none" opacity="1" stroke="#BD19E6" stroke-width="2" points="75,204 95,204 "/>
</svg>
