<svg width="600" height="400" xmlns="http://www.w3.org/2000/svg">
<rect x="0" y="0" width="599" height="399" opacity="1" fill="#FFFFFF" stroke="none"/>
<line opacity="0.1" stroke="#000000" stroke-width="1" x1="60" y1="337" x2="590" y2="337"/>
<line opacity="0.1" stroke="#000000" stroke-width="1" x1="60" y1="334" x2="590" y2="334"/>
<line opacity="0.1" stroke="#000000" stroke-width="1" x1="60" y1="330" x2="590" y2="330"/>
<line opacity="0.1" stroke="#000000" stroke-width="1" x1="60" y1="327" x2="590" y2="327"/>
<line opacity="0.1" stroke="#000000" stroke-width="1" x1="60" y1="324" x2="590" y2="324"/>
<line opacity="0.1" stroke="#000000" stroke-width="1" x1="60" y1="320" x2="590" y2="320"/>
<line opacity="0.1" stroke="#000000" stroke-width="1" x1="60" y1="317" x2="590" y2="317"/>
<line opacity="0.1" stroke="#000000" stroke-width="1" x1="60" y1="314" x2="590" y2="314"/>
<line opacity="0.1" stroke="#000000" stroke-width="1" x1="60" y1="310" x2="590" y2="310"/>
<line opacity="0.1" stroke="#000000" stroke-width="1" x1="60" y1="307" x2="590" y2="307"/>
<line opacity="0.1" stroke="#000000" stroke-width="1" x1="60" y1="304" x2="590" y2="304"/>
<line opacity="0.1" stroke="#000000" stroke-width="1" x1="60" y1="301" x2="590" y2="301"/>
<line opacity="0.1" stroke="#000000" stroke-width="1" x1="60" y1="297" x2="590" y2="297"/>
<line opacity="0.1" stroke="#000000" stroke-width="1" x1="60" y1="294" x2="590" y2="294"/>
<line opacity="0.1" stroke="#000000" stroke-width="1" x1="60" y1="291" x2="590" y2="291"/>
<line opacity="0.1" stroke="#000000" stroke-width="1" x1="60" y1="287" x2="590" y2="287"/>
<line opacity="0.1" stroke="#000000" stroke-width="1" x1="60" y1="284" x2="590" y2="284"/>
<line opacity="0.1" stroke="#000000" stroke-width="1" x1="60" y1="281" x2="590" y2="281"/>
<line opacity="0.1" stroke="#000000" stroke-width="1" x1="60" y1="277" x2="590" y2="277"/>
<line opacity="0.1" stroke="#000000" stroke-width="1" x1="60" y1="274" x2="590" y2="274"/>
<line opacity="0.1" stroke="#000000" stroke-width="1" x1="60" y1="271" x2="590" y2="271"/>
<line opacity="0.1" stroke="#000000" stroke-width="1" x1="60" y1="268" x2="590" y2="268"/>
<line opacity="0.1" stroke="#000000" stroke-width="1" x1="60" y1="264" x2="590" y2="264"/>
<line opacity="0.1" stroke="#000000" stroke-width="1" x1="60" y1="261" x2="590" y2="261"/>
<line opacity="0.1" stroke="#000000" stroke-width="1" x1="60" y1="258" x2="590" y2="258"/>
<line opacity="0.1" stroke="#000000" stroke-width="1" x1="60" y1="254" x2="590" y2="254"/>
<line opacity="0.1" stroke="#000000" stroke-width="1" x1="60" y1="251" x2="590" y2="251"/>
<line opacity="0.1" stroke="#000000" stroke-width="1" x1="60" y1="248" x2="590" y2="248"/>
<line opacity="0.1" stroke="#000000" stroke-width="1" x1="60" y1="245" x2="590" y2="245"/>
<line opacity="0.1" stroke="#000000" stroke-width="1" x1="60" y1="241" x2="590" y2="241"/>
<line opacity="0.1" stroke="#000000" stroke-width="1" x1="60" y1="238" x2="590" y2="238"/>
<line opacity="0.1" stroke="#000000" stroke-width="1" x1="60" y1="235" x2="590" y2="235"/>
<line opacity="0.1" stroke="#000000" stroke-width="1" x1="60" y1="231" x2="590" y2="231"/>
<line opacity="0.1" stroke="#000000" stroke-width="1" x1="60" y1="228" x2="590" y2="228"/>
<line opacity="0.1" stroke="#000000" stroke-width="1" x1="60" y1="225" x2="590" y2="225"/>
<line opacity="0.1" stroke="#000000" stroke-width="1" x1="60" y1="221" x2="590" y2="221"/>
<line opacity="0.1" stroke="#000000" stroke-width="1" x1="60" y1="218" x2="590" y2="218"/>
<line opacity="0.1" stroke="#000000" stroke-width="1" x1="60" y1="215" x2="590" y2="215"/>
<line opacity="0.1" stroke="#000000" stroke-width="1" x1="60" y1="212" x2="590" y2="212"/>
<line opacity="0.1" stroke="#000000" stroke-width="1" x1="60" y1="208" x2="590" y2="208"/>
<line opacity="0.1" stroke="#000000" stroke-width="1" x1="60" y1="205" x2="590" y2="205"/>
<line opacity="0.1" stroke="#000000" stroke-width="1" x1="60" y1="202" x2="590" y2="202"/>
<line opacity="0.1" stroke="#000000" stroke-width="1" x1="60" y1="198" x2="590" y2="198"/>
<line opacity="0.1" stroke="#000000" stroke-width="1" x1="60" y1="195" x2="590" y2="195"/>
<line opacity="0.1" stroke="#000000" stroke-width="1" x1="60" y1="192" x2="590" y2="192"/>
<line opacity="0.1" stroke="#000000" stroke-width="1" x1="60" y1="188" x2="590" y2="188"/>
<line opacity="0.1" stroke="#000000" stroke-width="1" x1="60" y1="185" x2="590" y2="185"/>
<line opacity="0.1" stroke="#000000" stroke-width="1" x1="60" y1="182" x2="590" y2="182"/>
<line opacity="0.1" stroke="#000000" stroke-width="1" x1="60" y1="179" x2="590" y2="179"/>
<line opacity="0.1" stroke="#000000" stroke-width="1" x1="60" y1="175" x2="590" y2="175"/>
<line opacity="0.1" stroke="#000000" stroke-width="1" x1="60" y1="172" x2="590" y2="172"/>
<line opacity="0.1" stroke="#000000" stroke-width="1" x1="60" y1="169" x2="590" y2="169"/>
<line opacity="0.1" stroke="#000000" stroke-width="1" x1="60" y1="165" x2="590" y2="165"/>
<line opacity="0.1" stroke="#000000" stroke-width="1" x1="60" y1="162" x2="590" y2="162"/>
<line opacity="0.1" stroke="#000000" stroke-width="1" x1="60" y1="159" x2="590" y2="159"/>
<line opacity="0.1" stroke="#000000" stroke-width="1" x1="60" y1="155" x2="590" y2="155"/>
<line opacity="0.1" stroke="#000000" stroke-width="1" x1="60" y1="152" x2="590" y2="152"/>
<line opacity="0.1" stroke="#000000" stroke-width="1" x1="60" y1="149" x2="590" y2="149"/>
<line opacity="0.1" stroke="#000000" stroke-width="1" x1="60" y1="146" x2="590" y2="146"/>
<line opacity="0.1" stroke="#000000" stroke-width="1" x1="60" y1="142" x2="590" y2="142"/>
<line opacity="0.1" stroke="#000000" stroke-width="1" x1="60" y1="139" x2="590" y2="139"/>
<line opacity="0.1" stroke="#000000" stroke-width="1" x1="60" y1="136" x2="590" y2="136"/>
<line opacity="0.1" stroke="#000000" stroke-width="1" x1="60" y1="132" x2="590" y2="132"/>
<line opacity="0.1" stroke="#000000" stroke-width="1" x1="60" y1="129" x2="590" y2="129"/>
<line opacity="0.1" stroke="#000000" stroke-width="1" x1="60" y1="126" x2="590" y2="126"/>
<line opacity="0.1" stroke="#000000" stroke-width="1" x1="60" y1="122" x2="590" y2="122"/>
<line opacity="0.1" stroke="#000000" stroke-width="1" x1="60" y1="119" x2="590" y2="119"/>
<line opacity="0.1" stroke="#000000" stroke-width="1" x1="60" y1="116" x2="590" y2="116"/>
<line opacity="0.1" stroke="#000000" stroke-width="1" x1="60" y1="113" x2="590" y2="113"/>
<line opacity="0.1" stroke="#000000" stroke-width="1" x1="60" y1="109" x2="590" y2="109"/>
<line opacity="0.1" stroke="#000000" stroke-width="1" x1="60" y1="106" x2="590" y2="106"/>
<line opacity="0.1" stroke="#000000" stroke-width="1" x1="60" y1="103" x2="590" y2="103"/>
<line opacity="0.1" stroke="#000000" stroke-width="1" x1="60" y1="99" x2="590" y2="99"/>
<line opacity="0.1" stroke="#000000" stroke-width="1" x1="60" y1="96" x2="590" y2="96"/>
<line opacity="0.1" stroke="#000000" stroke-width="1" x1="60" y1="93" x2="590" y2="93"/>
<line opacity="0.1" stroke="#000000" stroke-width="1" x1="60" y1="90" x2="590" y2="90"/>
<line opacity="0.1" stroke="#000000" stroke-width="1" x1="60" y1="86" x2="590" y2="86"/>
<line opacity="0.1" stroke="#000000" stroke-width="1" x1="60" y1="83" x2="590" y2="83"/>
<line opacity="0.1" stroke="#000000" stroke-width="1" x1="60" y1="80" x2="590" y2="80"/>
<line opacity="0.1" stroke="#000000" stroke-width="1" x1="60" y1="76" x2="590" y2="76"/>
<line opacity="0.1" stroke="#000000" stroke-width="1" x1="60" y1="73" x2="590" y2="73"/>
<line opacity="0.1" stroke="#000000" stroke-width="1" x1="60" y1="70" x2="590" y2="70"/>
<line opacity="0.1" stroke="#000000" stroke-width="1" x1="60" y1="66" x2="590" y2="66"/>
<line opacity="0.1" stroke="#000000" stroke-width="1" x1="60" y1="63" x2="590" y2="63"/>
<line opacity="0.1" stroke="#000000" stroke-width="1" x1="60" y1="60" x2="590" y2="60"/>
<line opacity="0.1" stroke="#000000" stroke-width="1" x1="60" y1="57" x2="590" y2="57"/>
<line opacity="0.1" stroke="#000000" stroke-width="1" x1="60" y1="53" x2="590" y2="53"/>
<line opacity="0.1" stroke="#000000" stroke-width="1" x1="60" y1="50" x2="590" y2="50"/>
<line opacity="0.1" stroke="#000000" stroke-width="1" x1="60" y1="47" x2="590" y2="47"/>
<line opacity="0.1" stroke="#000000" stroke-width="1" x1="60" y1="43" x2="590" y2="43"/>
<line opacity="0.1" stroke="#000000" stroke-width="1" x1="60" y1="40" x2="590" y2="40"/>
<line opacity="0.1" stroke="#000000" stroke-width="1" x1="60" y1="37" x2="590" y2="37"/>
<line opacity="0.1" stroke="#000000" stroke-width="1" x1="60" y1="33" x2="590" y2="33"/>
<line opacity="0.1" stroke="#000000" stroke-width="1" x1="60" y1="30" x2="590" y2="30"/>
<line opacity="0.1" stroke="#000000" stroke-width="1" x1="60" y1="27" x2="590" y2="27"/>
<line opacity="0.1" stroke="#000000" stroke-width="1" x1="60" y1="24" x2="590" y2="24"/>
<line opacity="0.1" stroke="#000000" stroke-width="1" x1="60" y1="20" x2="590" y2="20"/>
<line opacity="0.1" stroke="#000000" stroke-width="1" x1="60" y1="17" x2="590" y2="17"/>
<line opacity="0.1" stroke="#000000" stroke-width="1" x1="60" y1="14" x2="590" y2="14"/>
<line opacity="0.1" stroke="#000000" stroke-width="1" x1="60" y1="10" x2="590" y2="10"/>
<text x="10" y="175" dy="0.76em" text-anchor="middle" font-family="sans-serif" font-size="9.67741935483871" opacity="1" fill="#000000" transform="rotate(270, 10, 175)">
Fraction of dependent crates
</text>
<line opacity="0.2" stroke="#000000" stroke-width="1" x1="60" y1="307" x2="590" y2="307"/>
<line opacity="0.2" stroke="#000000" stroke-width="1" x1="60" y1="274" x2="590" y2="274"/>
<line opacity="0.2" stroke="#000000" stroke-width="1" x1="60" y1="241" x2="590" y2="241"/>
<line opacity="0.2" stroke="#000000" stroke-width="1" x1="60" y1="208" x2="590" y2="208"/>
<line opacity="0.2" stroke="#000000" stroke-width="1" x1="60" y1="175" x2="590" y2="175"/>
<line opacity="0.2" stroke="#000000" stroke-width="1" x1="60" y1="142" x2="590" y2="142"/>
<line opacity="0.2" stroke="#000000" stroke-width="1" x1="60" y1="109" x2="590" y2="109"/>
<line opacity="0.2" stroke="#000000" stroke-width="1" x1="60" y1="76" x2="590" y2="76"/>
<line opacity="0.2" stroke="#000000" stroke-width="1" x1="60" y1="43" x2="590" y2="43"/>
<line opacity="0.2" stroke="#000000" stroke-width="1" x1="60" y1="10" x2="590" y2="10"/>
<polyline fill="none" opacity="1" stroke="#000000" stroke-width="1" points="59,10 59,340 "/>
<text x="50" y="307" dy="0.5ex" text-anchor="end" font-family="sans-serif" font-size="9.67741935483871" opacity="1" fill="#000000">
0.02
</text>
<polyline fill="none" opacity="1" stroke="#000000" stroke-width="1" points="54,307 59,307 "/>
<text x="50" y="274" dy="0.5ex" text-anchor="end" font-family="sans-serif" font-size="9.67741935483871" opacity="1" fill="#000000">
0.04
</text>
<polyline fill="none" opacity="1" stroke="#000000" stroke-width="1" points="54,274 59,274 "/>
<text x="50" y="241" dy="0.5ex" text-anchor="end" font-family="sans-serif" font-size="9.67741935483871" opacity="1" fill="#000000">
0.06
</text>
<polyline fill="none" opacity="1" stroke="#000000" stroke-width="1" points="54,241 59,241 "/>
<text x="50" y="208" dy="0.5ex" text-anchor="end" font-family="sans-serif" font-size="9.67741935483871" opacity="1" fill="#000000">
0.08
</text>
<polyline fill="none" opacity="1" stroke="#000000" stroke-width="1" points="54,208 59,208 "/>
<text x="50" y="175" dy="0.5ex" text-anchor="end" font-family="sans-serif" font-size="9.67741935483871" opacity="1" fill="#000000">
0.1
</text>
<polyline fill="none" opacity="1" stroke="#000000" stroke-width="1" points="54,175 59,175 "/>
<text x="50" y="142" dy="0.5ex" text-anchor="end" font-family="sans-serif" font-size="9.67741935483871" opacity="1" fill="#000000">
0.12
</text>
<polyline fill="none" opacity="1" stroke="#000000" stroke-width="1" points="54,142 59,142 "/>
<text x="50" y="109" dy="0.5ex" text-anchor="end" font-family="sans-serif" font-size="9.67741935483871" opacity="1" fill="#000000">
0.14
</text>
<polyline fill="none" opacity="1" stroke="#000000" stroke-width="1" points="54,109 59,109 "/>
<text x="50" y="76" dy="0.5ex" text-anchor="end" font-family="sans-serif" font-size="9.67741935483871" opacity="1" fill="#000000">
0.16
</text>
<polyline fill="none" opacity="1" stroke="#000000" stroke-width="1" points="54,76 59,76 "/>
<text x="50" y="43" dy="0.5ex" text-anchor="end" font-family="sans-serif" font-size="9.67741935483871" opacity="1" fill="#000000">
0.18
</text>
<polyline fill="none" opacity="1" stroke="#000000" stroke-width="1" points="54,43 59,43 "/>
<text x="50" y="10" dy="0.5ex" text-anchor="end" font-family="sans-serif" font-size="9.67741935483871" opacity="1" fill="#000000">
0.2
</text>
<polyline fill="none" opacity="1" stroke="#000000" stroke-width="1" points="54,10 59,10 "/>
<polyline fill="none" opacity="1" stroke="#000000" stroke-width="1" points="60,340 590,340 "/>
<text x="60" y="350" dy="0.76em" text-anchor="middle" font-family="sans-serif" font-size="9.67741935483871" opacity="1" fill="#000000">
2020-10-11Z
</text>
<polyline fill="none" opacity="1" stroke="#000000" stroke-width="1" points="60,340 60,345 "/>
<text x="192" y="350" dy="0.76em" text-anchor="middle" font-family="sans-serif" font-size="9.67741935483871" opacity="1" fill="#000000">
2020-10-18Z
</text>
<polyline fill="none" opacity="1" stroke="#000000" stroke-width="1" points="192,340 192,345 "/>
<text x="325" y="350" dy="0.76em" text-anchor="middle" font-family="sans-serif" font-size="9.67741935483871" opacity="1" fill="#000000">
2020-10-25Z
</text>
<polyline fill="none" opacity="1" stroke="#000000" stroke-width="1" points="325,340 325,345 "/>
<text x="457" y="350" dy="0.76em" text-anchor="middle" font-family="sans-serif" font-size="9.67741935483871" opacity="1" fill="#000000">
2020-11-01Z
</text>
<polyline fill="none" opacity="1" stroke="#000000" stroke-width="1" points="457,340 457,345 "/>
<text x="590" y="350" dy="0.76em" text-anchor="middle" font-family="sans-serif" font-size="9.67741935483871" opacity="1" fill="#000000">
2020-11-08Z
</text>
<polyline fill="none" opacity="1" stroke="#000000" stroke-width="1" points="590,340 590,345 "/>
<polyline fill="none" opacity="1" stroke="#E61919" stroke-width="2" points="60,294 60,294 78,294 78,294 97,294 97,294 116,294 116,294 135,294 135,294 154,294 154,294 173,294 173,293 192,293 192,293 211,293 211,293 230,293 230,293 249,293 249,293 268,293 268,293 287,293 287,292 306,292 306,292 325,292 325,292 343,292 343,292 362,292 362,292 381,292 381,292 400,292 400,291 419,291 419,291 438,291 438,291 457,291 457,291 476,291 476,291 495,291 495,291 514,291 514,291 533,291 533,291 552,291 571,291 571,290 590,290 "/>
<polyline fill="none" opacity="1" stroke="#BDE619" stroke-width="2" points="154,338 173,338 173,338 192,338 192,338 211,338 211,338 230,338 230,338 249,338 249,338 268,338 268,338 287,338 287,338 306,338 306,338 325,338 325,338 343,338 343,338 362,338 362,338 381,338 381,338 400,338 400,338 419,338 419,338 438,338 438,338 457,338 457,338 476,338 476,338 495,338 495,338 514,338 514,338 533,338 533,338 552,338 571,338 571,338 590,338 "/>
<polyline fill="none" opacity="1" stroke="#19E66B" stroke-width="2" points="60,41 60,41 78,41 78,41 97,41 97,41 116,41 116,41 135,41 135,41 154,41 154,41 173,41 173,41 192,41 192,40 211,40 211,40 230,40 230,40 249,40 249,40 268,40 268,40 287,40 287,40 306,40 306,39 325,39 325,39 343,39 343,39 362,39 362,39 381,39 381,39 400,39 400,39 419,39 419,39 438,39 438,39 457,39 457,39 476,39 476,39 495,39 495,39 514,39 514,39 533,39 533,39 552,39 571,39 571,39 590,39 "/>
<polyline fill="none" opacity="1" stroke="#196BE6" stroke-width="2" points="60,293 60,292 78,292 78,292 97,292 97,292 116,292 116,292 135,292 135,292 154,292 154,291 173,291 173,291 192,291 192,291 211,291 211,291 230,291 230,291 249,291 249,291 268,291 268,291 287,291 287,290 306,290 306,290 325,290 325,290 343,290 343,290 362,290 362,290 381,290 381,289 400,289 400,289 419,289 419,289 438,289 438,289 457,289 457,289 476,289 476,289 495,289 495,289 514,289 514,288 533,288 533,288 552,288 571,288 571,288 590,288 "/>
<polyline fill="none" opacity="1" stroke="#BD19E6" stroke-width="2" points="60,243 60,242 78,242 78,242 97,242 97,242 116,242 116,242 135,242 135,242 154,242 154,242 173,242 173,242 192,242 192,242 211,242 211,242 230,242 230,242 249,242 249,242 268,242 268,241 287,241 287,241 306,241 306,241 325,241 325,241 343,241 343,241 362,241 362,241 381,241 381,241 400,241 400,241 419,241 419,241 438,241 438,241 457,241 457,241 476,241 476,241 495,241 495,241 514,241 514,241 533,241 533,241 552,240 571,240 571,240 590,240 "/>
<rect x="491" y="130" width="94" height="89" opacity="1" fill="#FFFFFF" stroke="none"/>
<rect x="491" y="130" width="94" height="89" opacity="1" fill="none" stroke="#000000"/>
<text x="531" y="140" dy="0.76em" text-anchor="start" font-family="sans-serif" font-size="9.67741935483871" opacity="1" fill="#000000">
anyhow
</text>
<text x="531" y="155" dy="0.76em" text-anchor="start" font-family="sans-serif" font-size="9.67741935483871" opacity="1" fill="#000000">
cipher
</text>
<text x="531" y="170" dy="0.76em" text-anchor="start" font-family="sans-serif" font-size="9.67741935483871" opacity="1" fill="#000000">
serde
</text>
<text x="531" y="185" dy="0.76em" text-anchor="start" font-family="sans-serif" font-size="9.67741935483871" opacity="1" fill="#000000">
thiserror
</text>
<text x="531" y="200" dy="0.76em" text-anchor="start" font-family="sans-serif" font-size="9.67741935483871" opacity="1" fill="#000000">
tokio
</text>
<polyline fill="none" opacity="1" stroke="#E61919" stroke-width="2" points="501,145 521,145 "/>
<polyline fill="none" opacity="1" stroke="#BDE619" stroke-width="2" points="501,160 521,160 "/>
<polyline fill="none" opacity="1" stroke="#19E66B" stroke-width="2" points="501,174 521,174 "/>
<polyline fill="none" opacity="1" stroke="#196BE6" stroke-width="2" points="501,189 521,189 "/>
<polyline fill="none" opacity="1" stroke="#BD19E6" stroke-width="2" points="501,204 521,204 "/>
</svg>
