<svg width="600" height="400" xmlns="http://www.w3.org/2000/svg">
<rect x="0" y="0" width="599" height="399" opacity="1" fill="#FFFFFF" stroke="none"/>
<line opacity="0.1" stroke="#000000" stroke-width="1" x1="60" y1="335" x2="590" y2="335"/>
<line opacity="0.1" stroke="#000000" stroke-width="1" x1="60" y1="331" x2="590" y2="331"/>
<line opacity="0.1" stroke="#000000" stroke-width="1" x1="60" y1="327" x2="590" y2="327"/>
<line opacity="0.1" stroke="#000000" stroke-width="1" x1="60" y1="323" x2="590" y2="323"/>
<line opacity="0.1" stroke="#000000" stroke-width="1" x1="60" y1="319" x2="590" y2="319"/>
<line opacity="0.1" stroke="#000000" stroke-width="1" x1="60" y1="315" x2="590" y2="315"/>
<line opacity="0.1" stroke="#000000" stroke-width="1" x1="60" y1="311" x2="590" y2="311"/>
<line opacity="0.1" stroke="#000000" stroke-width="1" x1="60" y1="307" x2="590" y2="307"/>
<line opacity="0.1" stroke="#000000" stroke-width="1" x1="60" y1="303" x2="590" y2="303"/>
<line opacity="0.1" stroke="#000000" stroke-width="1" x1="60" y1="299" x2="590" y2="299"/>
<line opacity="0.1" stroke="#000000" stroke-width="1" x1="60" y1="294" x2="590" y2="294"/>
<line opacity="0.1" stroke="#000000" stroke-width="1" x1="60" y1="290" x2="590" y2="290"/>
<line opacity="0.1" stroke="#000000" stroke-width="1" x1="60" y1="286" x2="590" y2="286"/>
<line opacity="0.1" stroke="#000000" stroke-width="1" x1="60" y1="282" x2="590" y2="282"/>
<line opacity="0.1" stroke="#000000" stroke-width="1" x1="60" y1="278" x2="590" y2="278"/>
<line opacity="0.1" stroke="#000000" stroke-width="1" x1="60" y1="274" x2="590" y2="274"/>
<line opacity="0.1" stroke="#000000" stroke-width="1" x1="60" y1="270" x2="590" y2="270"/>
<line opacity="0.1" stroke="#000000" stroke-width="1" x1="60" y1="266" x2="590" y2="266"/>
<line opacity="0.1" stroke="#000000" stroke-width="1" x1="60" y1="262" x2="590" y2="262"/>
<line opacity="0.1" stroke="#000000" stroke-width="1" x1="60" y1="258" x2="590" y2="258"/>
<line opacity="0.1" stroke="#000000" stroke-width="1" x1="60" y1="254" x2="590" y2="254"/>
<line opacity="0.1" stroke="#000000" stroke-width="1" x1="60" y1="250" x2="590" y2="250"/>
<line opacity="0.1" stroke="#000000" stroke-width="1" x1="60" y1="246" x2="590" y2="246"/>
<line opacity="0.1" stroke="#000000" stroke-width="1" x1="60" y1="242" x2="590" y2="242"/>
<line opacity="0.1" stroke="#000000" stroke-width="1" x1="60" y1="238" x2="590" y2="238"/>
<line opacity="0.1" stroke="#000000" stroke-width="1" x1="60" y1="234" x2="590" y2="234"/>
<line opacity="0.1" stroke="#000000" stroke-width="1" x1="60" y1="230" x2="590" y2="230"/>
<line opacity="0.1" stroke="#000000" stroke-width="1" x1="60" y1="225" x2="590" y2="225"/>
<line opacity="0.1" stroke="#000000" stroke-width="1" x1="60" y1="221" x2="590" y2="221"/>
<line opacity="0.1" stroke="#000000" stroke-width="1" x1="60" y1="217" x2="590" y2="217"/>
<line opacity="0.1" stroke="#000000" stroke-width="1" x1="60" y1="213" x2="590" y2="213"/>
<line opacity="0.1" stroke="#000000" stroke-width="1" x1="60" y1="209" x2="590" y2="209"/>
<line opacity="0.1" stroke="#000000" stroke-width="1" x1="60" y1="205" x2="590" y2="205"/>
<line opacity="0.1" stroke="#000000" stroke-width="1" x1="60" y1="201" x2="590" y2="201"/>
<line opacity="0.1" stroke="#000000" stroke-width="1" x1="60" y1="197" x2="590" y2="197"/>
<line opacity="0.1" stroke="#000000" stroke-width="1" x1="60" y1="193" x2="590" y2="193"/>
<line opacity="0.1" stroke="#000000" stroke-width="1" x1="60" y1="189" x2="590" y2="189"/>
<line opacity="0.1" stroke="#000000" stroke-width="1" x1="60" y1="185" x2="590" y2="185"/>
<line opacity="0.1" stroke="#000000" stroke-width="1" x1="60" y1="181" x2="590" y2="181"/>
<line opacity="0.1" stroke="#000000" stroke-width="1" x1="60" y1="177" x2="590" y2="177"/>
<line opacity="0.1" stroke="#000000" stroke-width="1" x1="60" y1="173" x2="590" y2="173"/>
<line opacity="0.1" stroke="#000000" stroke-width="1" x1="60" y1="169" x2="590" y2="169"/>
<line opacity="0.1" stroke="#000000" stroke-width="1" x1="60" y1="165" x2="590" y2="165"/>
<line opacity="0.1" stroke="#000000" stroke-width="1" x1="60" y1="161" x2="590" y2="161"/>
<line opacity="0.1" stroke="#000000" stroke-width="1" x1="60" y1="156" x2="590" y2="156"/>
<line opacity="0.1" stroke="#000000" stroke-width="1" x1="60" y1="152" x2="590" y2="152"/>
<line opacity="0.1" stroke="#000000" stroke-width="1" x1="60" y1="148" x2="590" y2="148"/>
<line opacity="0.1" stroke="#000000" stroke-width="1" x1="60" y1="144" x2="590" y2="144"/>
<line opacity="0.1" stroke="#000000" stroke-width="1" x1="60" y1="140" x2="590" y2="140"/>
<line opacity="0.1" stroke="#000000" stroke-width="1" x1="60" y1="136" x2="590" y2="136"/>
<line opacity="0.1" stroke="#000000" stroke-width="1" x1="60" y1="132" x2="590" y2="132"/>
<line opacity="0.1" stroke="#000000" stroke-width="1" x1="60" y1="128" x2="590" y2="128"/>
<line opacity="0.1" stroke="#000000" stroke-width="1" x1="60" y1="124" x2="590" y2="124"/>
<line opacity="0.1" stroke="#000000" stroke-width="1" x1="60" y1="120" x2="590" y2="120"/>
<line opacity="0.1" stroke="#000000" stroke-width="1" x1="60" y1="116" x2="590" y2="116"/>
<line opacity="0.1" stroke="#000000" stroke-width="1" x1="60" y1="112" x2="590" y2="112"/>
<line opacity="0.1" stroke="#000000" stroke-width="1" x1="60" y1="108" x2="590" y2="108"/>
<line opacity="0.1" stroke="#000000" stroke-width="1" x1="60" y1="104" x2="590" y2="104"/>
<line opacity="0.1" stroke="#000000" stroke-width="1" x1="60" y1="100" x2="590" y2="100"/>
<line opacity="0.1" stroke="#000000" stroke-width="1" x1="60" y1="96" x2="590" y2="96"/>
<line opacity="0.1" stroke="#000000" stroke-width="1" x1="60" y1="92" x2="590" y2="92"/>
<line opacity="0.1" stroke="#000000" stroke-width="1" x1="60" y1="87" x2="590" y2="87"/>
<line opacity="0.1" stroke="#000000" stroke-width="1" x1="60" y1="83" x2="590" y2="83"/>
<line opacity="0.1" stroke="#000000" stroke-width="1" x1="60" y1="79" x2="590" y2="79"/>
<line opacity="0.1" stroke="#000000" stroke-width="1" x1="60" y1="75" x2="590" y2="75"/>
<line opacity="0.1" stroke="#000000" stroke-width="1" x1="60" y1="71" x2="590" y2="71"/>
<line opacity="0.1" stroke="#000000" stroke-width="1" x1="60" y1="67" x2="590" y2="67"/>
<line opacity="0.1" stroke="#000000" stroke-width="1" x1="60" y1="63" x2="590" y2="63"/>
<line opacity="0.1" stroke="#000000" stroke-width="1" x1="60" y1="59" x2="590" y2="59"/>
<line opacity="0.1" stroke="#000000" stroke-width="1" x1="60" y1="55" x2="590" y2="55"/>
<line opacity="0.1" stroke="#000000" stroke-width="1" x1="60" y1="51" x2="590" y2="51"/>
<line opacity="0.1" stroke="#000000" stroke-width="1" x1="60" y1="47" x2="590" y2="47"/>
<line opacity="0.1" stroke="#000000" stroke-width="1" x1="60" y1="43" x2="590" y2="43"/>
<line opacity="0.1" stroke="#000000" stroke-width="1" x1="60" y1="39" x2="590" y2="39"/>
<line opacity="0.1" stroke="#000000" stroke-width="1" x1="60" y1="35" x2="590" y2="35"/>
<line opacity="0.1" stroke="#000000" stroke-width="1" x1="60" y1="31" x2="590" y2="31"/>
<line opacity="0.1" stroke="#000000" stroke-width="1" x1="60" y1="27" x2="590" y2="27"/>
<line opacity="0.1" stroke="#000000" stroke-width="1" x1="60" y1="23" x2="590" y2="23"/>
<line opacity="0.1" stroke="#000000" stroke-width="1" x1="60" y1="18" x2="590" y2="18"/>
<line opacity="0.1" stroke="#000000" stroke-width="1" x1="60" y1="14" x2="590" y2="14"/>
<line opacity="0.1" stroke="#000000" stroke-width="1" x1="60" y1="10" x2="590" y2="10"/>
<text x="10" y="175" dy="0.76em" text-anchor="middle" font-family="sans-serif" font-size="9.67741935483871" opacity="1" fill="#000000" transform="rotate(270, 10, 175)">
Number of dependent crates
</text>
<line opacity="0.2" stroke="#000000" stroke-width="1" x1="60" y1="331" x2="590" y2="331"/>
<line opacity="0.2" stroke="#000000" stroke-width="1" x1="60" y1="290" x2="590" y2="290"/>
<line opacity="0.2" stroke="#000000" stroke-width="1" x1="60" y1="250" x2="590" y2="250"/>
<line opacity="0.2" stroke="#000000" stroke-width="1" x1="60" y1="209" x2="590" y2="209"/>
<line opacity="0.2" stroke="#000000" stroke-width="1" x1="60" y1="169" x2="590" y2="169"/>
<line opacity="0.2" stroke="#000000" stroke-width="1" x1="60" y1="128" x2="590" y2="128"/>
<line opacity="0.2" stroke="#000000" stroke-width="1" x1="60" y1="87" x2="590" y2="87"/>
<line opacity="0.2" stroke="#000000" stroke-width="1" x1="60" y1="47" x2="590" y2="47"/>
<polyline fill="none" opacity="1" stroke="#000000" stroke-width="1" points="59,10 59,340 "/>
<text x="50" y="331" dy="0.5ex" text-anchor="end" font-family="sans-serif" font-size="9.67741935483871" opacity="1" fill="#000000">
1000
</text>
<polyline fill="none" opacity="1" stroke="#000000" stroke-width="1" points="54,331 59,331 "/>
<text x="50" y="290" dy="0.5ex" text-anchor="end" font-family="sans-serif" font-size="9.67741935483871" opacity="1" fill="#000000">
2000
</text>
<polyline fill="none" opacity="1" stroke="#000000" stroke-width="1" points="54,290 59,290 "/>
<text x="50" y="250" dy="0.5ex" text-anchor="end" font-family="sans-serif" font-size="9.67741935483871" opacity="1" fill="#000000">
3000
</text>
<polyline fill="none" opacity="1" stroke="#000000" stroke-width="1" points="54,250 59,250 "/>
<text x="50" y="209" dy="0.5ex" text-anchor="end" font-family="sans-serif" font-size="9.67741935483871" opacity="1" fill="#000000">
4000
</text>
<polyline fill="none" opacity="1" stroke="#000000" stroke-width="1" points="54,209 59,209 "/>
<text x="50" y="169" dy="0.5ex" text-anchor="end" font-family="sans-serif" font-size="9.67741935483871" opacity="1" fill="#000000">
5000
</text>
<polyline fill="none" opacity="1" stroke="#000000" stroke-width="1" points="54,169 59,169 "/>
<text x="50" y="128" dy="0.5ex" text-anchor="end" font-family="sans-serif" font-size="9.67741935483871" opacity="1" fill="#000000">
6000
</text>
<polyline fill="none" opacity="1" stroke="#000000" stroke-width="1" points="54,128 59,128 "/>
<text x="50" y="87" dy="0.5ex" text-anchor="end" font-family="sans-serif" font-size="9.67741935483871" opacity="1" fill="#000000">
7000
</text>
<polyline fill="none" opacity="1" stroke="#000000" stroke-width="1" points="54,87 59,87 "/>
<text x="50" y="47" dy="0.5ex" text-anchor="end" font-family="sans-serif" font-size="9.67741935483871" opacity="1" fill="#000000">
8000
</text>
<polyline fill="none" opacity="1" stroke="#000000" stroke-width="1" points="54,47 59,47 "/>
<polyline fill="none" opacity="1" stroke="#000000" stroke-width="1" points="60,340 590,340 "/>
<text x="60" y="350" dy="0.76em" text-anchor="middle" font-family="sans-serif" font-size="9.67741935483871" opacity="1" fill="#000000">
2020-07-26Z
</text>
<polyline fill="none" opacity="1" stroke="#000000" stroke-width="1" points="60,340 60,345 "/>
<text x="192" y="350" dy="0.76em" text-anchor="middle" font-family="sans-serif" font-size="9.67741935483871" opacity="1" fill="#000000">
2020-08-02Z
</text>
<polyline fill="none" opacity="1" stroke="#000000" stroke-width="1" points="192,340 192,345 "/>
<text x="325" y="350" dy="0.76em" text-anchor="middle" font-family="sans-serif" font-size="9.67741935483871" opacity="1" fill="#000000">
2020-08-09Z
</text>
<polyline fill="none" opacity="1" stroke="#000000" stroke-width="1" points="325,340 325,345 "/>
<text x="457" y="350" dy="0.76em" text-anchor="middle" font-family="sans-serif" font-size="9.67741935483871" opacity="1" fill="#000000">
2020-08-16Z
</text>
<polyline fill="none" opacity="1" stroke="#000000" stroke-width="1" points="457,340 457,345 "/>
<text x="590" y="350" dy="0.76em" text-anchor="middle" font-family="sans-serif" font-size="9.67741935483871" opacity="1" fill="#000000">
2020-08-23Z
</text>
<polyline fill="none" opacity="1" stroke="#000000" stroke-width="1" points="590,340 590,345 "/>
<polyline fill="none" opacity="1" stroke="#E61919" stroke-width="2" points="60,335 60,335 78,335 78,334 97,334 97,334 116,334 116,334 135,334 135,334 154,334 154,334 173,334 173,334 192,334 192,333 211,333 211,333 230,333 230,333 249,333 249,333 268,333 268,332 287,332 287,332 306,332 306,332 325,332 343,332 343,331 362,331 362,331 381,331 381,331 400,331 400,330 419,330 419,330 438,330 438,330 457,330 457,330 476,330 476,329 495,329 495,329 514,329 514,329 533,329 533,329 552,329 552,328 571,328 571,328 590,328 "/>
<polyline fill="none" opacity="1" stroke="#BDE619" stroke-width="2" points="60,53 60,53 78,53 78,52 97,52 97,52 116,52 116,51 135,51 135,51 154,51 154,51 173,51 173,50 192,50 192,50 211,50 211,49 230,49 230,49 249,49 249,49 268,49 268,48 287,48 287,48 306,48 306,47 325,47 343,47 343,46 362,46 362,46 381,46 381,45 400,45 400,45 419,45 419,44 438,44 438,44 457,44 457,43 476,43 476,43 495,43 495,43 514,43 514,42 533,42 533,42 552,42 552,42 571,42 571,42 590,42 "/>
<polyline fill="none" opacity="1" stroke="#19E66B" stroke-width="2" points="60,136 60,136 78,136 78,136 97,136 97,136 116,136 116,135 135,135 135,135 154,135 154,135 173,135 173,135 192,135 192,134 211,134 211,134 230,134 230,134 249,134 249,134 268,134 268,134 287,134 287,133 306,133 306,133 325,133 343,133 343,132 362,132 362,132 381,132 381,131 400,131 400,131 419,131 419,131 438,131 438,131 457,131 457,131 476,131 476,131 495,131 495,131 514,131 514,130 533,130 533,130 552,130 552,130 571,130 571,130 590,130 "/>
<polyline fill="none" opacity="1" stroke="#196BE6" stroke-width="2" points="60,333 60,333 78,333 78,333 97,333 97,332 116,332 116,332 135,332 135,332 154,332 154,332 173,332 173,332 192,332 192,332 211,332 211,331 230,331 230,331 249,331 249,331 268,331 268,331 287,331 287,331 306,331 306,330 325,330 343,330 343,330 362,330 362,330 381,330 381,329 400,329 400,329 419,329 419,329 438,329 438,328 457,328 457,328 476,328 476,328 495,328 495,328 514,328 514,327 533,327 533,327 552,327 552,327 571,327 571,326 590,326 "/>
<polyline fill="none" opacity="1" stroke="#BD19E6" stroke-width="2" points="60,274 60,274 78,274 78,274 97,274 97,274 116,274 116,274 135,274 135,273 154,273 154,273 173,273 173,273 192,273 192,273 211,273 211,273 230,273 230,273 249,273 249,272 268,272 268,272 287,272 287,272 306,272 306,272 325,272 343,272 343,271 362,271 362,271 381,271 381,270 400,270 400,270 419,270 419,270 438,270 438,270 457,270 457,270 476,270 476,269 495,269 495,269 514,269 514,269 533,269 533,269 552,269 552,269 571,269 571,269 590,269 "/>
<rect x="480" y="130" width="105" height="89" opacity="1" fill="#FFFFFF" stroke="none"/>
<rect x="480" y="130" width="105" height="89" opacity="1" fill="none" stroke="#000000"/>
<text x="520" y="140" dy="0.76em" text-anchor="start" font-family="sans-serif" font-size="9.67741935483871" opacity="1" fill="#000000">
anyhow
</text>
<text x="520" y="155" dy="0.76em" text-anchor="start" font-family="sans-serif" font-size="9.67741935483871" opacity="1" fill="#000000">
serde
</text>
<text x="520" y="170" dy="0.76em" text-anchor="start" font-family="sans-serif" font-size="9.67741935483871" opacity="1" fill="#000000">
serde_json
</text>
<text x="520" y="185" dy="0.76em" text-anchor="start" font-family="sans-serif" font-size="9.67741935483871" opacity="1" fill="#000000">
thiserror
</text>
<text x="520" y="200" dy="0.76em" text-anchor="start" font-family="sans-serif" font-size="9.67741935483871" opacity="1" fill="#000000">
tokio
</text>
<polyline fill="none" opacity="1" stroke="#E61919" stroke-width="2" points="490,145 510,145 "/>
<polyline fill="none" opacity="1" stroke="#BDE619" stroke-width="2" points="490,159 510,159 "/>
<polyline fill="none" opacity="1" stroke="#19E66B" stroke-width="2" points="490,175 510,175 "/>
<polyline fill="none" opacity="1" stroke="#196BE6" stroke-width="2" points="490,189 510,189 "/>
<polyline fill="none" opacity="1" stroke="#BD19E6" stroke-width="2" points="490,204 510,204 "/>
</svg>
