<svg width="600" height="400" viewBox="0 0 600 400" xmlns="http://www.w3.org/2000/svg">
<rect x="0" y="0" width="600" height="400" opacity="1" fill="#FFFFFF" stroke="none"/>
<line opacity="0.1" stroke="#000000" stroke-width="1" x1="60" y1="336" x2="589" y2="336"/>
<line opacity="0.1" stroke="#000000" stroke-width="1" x1="60" y1="331" x2="589" y2="331"/>
<line opacity="0.1" stroke="#000000" stroke-width="1" x1="60" y1="325" x2="589" y2="325"/>
<line opacity="0.1" stroke="#000000" stroke-width="1" x1="60" y1="320" x2="589" y2="320"/>
<line opacity="0.1" stroke="#000000" stroke-width="1" x1="60" y1="315" x2="589" y2="315"/>
<line opacity="0.1" stroke="#000000" stroke-width="1" x1="60" y1="310" x2="589" y2="310"/>
<line opacity="0.1" stroke="#000000" stroke-width="1" x1="60" y1="304" x2="589" y2="304"/>
<line opacity="0.1" stroke="#000000" stroke-width="1" x1="60" y1="299" x2="589" y2="299"/>
<line opacity="0.1" stroke="#000000" stroke-width="1" x1="60" y1="294" x2="589" y2="294"/>
<line opacity="0.1" stroke="#000000" stroke-width="1" x1="60" y1="289" x2="589" y2="289"/>
<line opacity="0.1" stroke="#000000" stroke-width="1" x1="60" y1="283" x2="589" y2="283"/>
<line opacity="0.1" stroke="#000000" stroke-width="1" x1="60" y1="278" x2="589" y2="278"/>
<line opacity="0.1" stroke="#000000" stroke-width="1" x1="60" y1="273" x2="589" y2="273"/>
<line opacity="0.1" stroke="#000000" stroke-width="1" x1="60" y1="268" x2="589" y2="268"/>
<line opacity="0.1" stroke="#000000" stroke-width="1" x1="60" y1="262" x2="589" y2="262"/>
<line opacity="0.1" stroke="#000000" stroke-width="1" x1="60" y1="257" x2="589" y2="257"/>
<line opacity="0.1" stroke="#000000" stroke-width="1" x1="60" y1="252" x2="589" y2="252"/>
<line opacity="0.1" stroke="#000000" stroke-width="1" x1="60" y1="246" x2="589" y2="246"/>
<line opacity="0.1" stroke="#000000" stroke-width="1" x1="60" y1="241" x2="589" y2="241"/>
<line opacity="0.1" stroke="#000000" stroke-width="1" x1="60" y1="236" x2="589" y2="236"/>
<line opacity="0.1" stroke="#000000" stroke-width="1" x1="60" y1="231" x2="589" y2="231"/>
<line opacity="0.1" stroke="#000000" stroke-width="1" x1="60" y1="225" x2="589" y2="225"/>
<line opacity="0.1" stroke="#000000" stroke-width="1" x1="60" y1="220" x2="589" y2="220"/>
<line opacity="0.1" stroke="#000000" stroke-width="1" x1="60" y1="215" x2="589" y2="215"/>
<line opacity="0.1" stroke="#000000" stroke-width="1" x1="60" y1="210" x2="589" y2="210"/>
<line opacity="0.1" stroke="#000000" stroke-width="1" x1="60" y1="204" x2="589" y2="204"/>
<line opacity="0.1" stroke="#000000" stroke-width="1" x1="60" y1="199" x2="589" y2="199"/>
<line opacity="0.1" stroke="#000000" stroke-width="1" x1="60" y1="194" x2="589" y2="194"/>
<line opacity="0.1" stroke="#000000" stroke-width="1" x1="60" y1="189" x2="589" y2="189"/>
<line opacity="0.1" stroke="#000000" stroke-width="1" x1="60" y1="183" x2="589" y2="183"/>
<line opacity="0.1" stroke="#000000" stroke-width="1" x1="60" y1="178" x2="589" y2="178"/>
<line opacity="0.1" stroke="#000000" stroke-width="1" x1="60" y1="173" x2="589" y2="173"/>
<line opacity="0.1" stroke="#000000" stroke-width="1" x1="60" y1="168" x2="589" y2="168"/>
<line opacity="0.1" stroke="#000000" stroke-width="1" x1="60" y1="162" x2="589" y2="162"/>
<line opacity="0.1" stroke="#000000" stroke-width="1" x1="60" y1="157" x2="589" y2="157"/>
<line opacity="0.1" stroke="#000000" stroke-width="1" x1="60" y1="152" x2="589" y2="152"/>
<line opacity="0.1" stroke="#000000" stroke-width="1" x1="60" y1="146" x2="589" y2="146"/>
<line opacity="0.1" stroke="#000000" stroke-width="1" x1="60" y1="141" x2="589" y2="141"/>
<line opacity="0.1" stroke="#000000" stroke-width="1" x1="60" y1="136" x2="589" y2="136"/>
<line opacity="0.1" stroke="#000000" stroke-width="1" x1="60" y1="131" x2="589" y2="131"/>
<line opacity="0.1" stroke="#000000" stroke-width="1" x1="60" y1="125" x2="589" y2="125"/>
<line opacity="0.1" stroke="#000000" stroke-width="1" x1="60" y1="120" x2="589" y2="120"/>
<line opacity="0.1" stroke="#000000" stroke-width="1" x1="60" y1="115" x2="589" y2="115"/>
<line opacity="0.1" stroke="#000000" stroke-width="1" x1="60" y1="110" x2="589" y2="110"/>
<line opacity="0.1" stroke="#000000" stroke-width="1" x1="60" y1="104" x2="589" y2="104"/>
<line opacity="0.1" stroke="#000000" stroke-width="1" x1="60" y1="99" x2="589" y2="99"/>
<line opacity="0.1" stroke="#000000" stroke-width="1" x1="60" y1="94" x2="589" y2="94"/>
<line opacity="0.1" stroke="#000000" stroke-width="1" x1="60" y1="89" x2="589" y2="89"/>
<line opacity="0.1" stroke="#000000" stroke-width="1" x1="60" y1="83" x2="589" y2="83"/>
<line opacity="0.1" stroke="#000000" stroke-width="1" x1="60" y1="78" x2="589" y2="78"/>
<line opacity="0.1" stroke="#000000" stroke-width="1" x1="60" y1="73" x2="589" y2="73"/>
<line opacity="0.1" stroke="#000000" stroke-width="1" x1="60" y1="68" x2="589" y2="68"/>
<line opacity="0.1" stroke="#000000" stroke-width="1" x1="60" y1="62" x2="589" y2="62"/>
<line opacity="0.1" stroke="#000000" stroke-width="1" x1="60" y1="57" x2="589" y2="57"/>
<line opacity="0.1" stroke="#000000" stroke-width="1" x1="60" y1="52" x2="589" y2="52"/>
<line opacity="0.1" stroke="#000000" stroke-width="1" x1="60" y1="47" x2="589" y2="47"/>
<line opacity="0.1" stroke="#000000" stroke-width="1" x1="60" y1="41" x2="589" y2="41"/>
<line opacity="0.1" stroke="#000000" stroke-width="1" x1="60" y1="36" x2="589" y2="36"/>
<line opacity="0.1" stroke="#000000" stroke-width="1" x1="60" y1="31" x2="589" y2="31"/>
<line opacity="0.1" stroke="#000000" stroke-width="1" x1="60" y1="25" x2="589" y2="25"/>
<line opacity="0.1" stroke="#000000" stroke-width="1" x1="60" y1="20" x2="589" y2="20"/>
<line opacity="0.1" stroke="#000000" stroke-width="1" x1="60" y1="15" x2="589" y2="15"/>
<text x="10" y="175" dy="0.76em" text-anchor="middle" font-family="sans-serif" font-size="9.67741935483871" opacity="1" fill="#000000" transform="rotate(270, 10, 175)">
Fraction of dependent crates
</text>
<line opacity="0.2" stroke="#000000" stroke-width="1" x1="60" y1="289" x2="589" y2="289"/>
<line opacity="0.2" stroke="#000000" stroke-width="1" x1="60" y1="236" x2="589" y2="236"/>
<line opacity="0.2" stroke="#000000" stroke-width="1" x1="60" y1="183" x2="589" y2="183"/>
<line opacity="0.2" stroke="#000000" stroke-width="1" x1="60" y1="131" x2="589" y2="131"/>
<line opacity="0.2" stroke="#000000" stroke-width="1" x1="60" y1="78" x2="589" y2="78"/>
<line opacity="0.2" stroke="#000000" stroke-width="1" x1="60" y1="25" x2="589" y2="25"/>
<polyline fill="none" opacity="1" stroke="#000000" stroke-width="1" points="59,10 59,339 "/>
<text x="50" y="289" dy="0.5ex" text-anchor="end" font-family="sans-serif" font-size="9.67741935483871" opacity="1" fill="#000000">
0.002
</text>
<polyline fill="none" opacity="1" stroke="#000000" stroke-width="1" points="54,289 59,289 "/>
<text x="50" y="236" dy="0.5ex" text-anchor="end" font-family="sans-serif" font-size="9.67741935483871" opacity="1" fill="#000000">
0.004
</text>
<polyline fill="none" opacity="1" stroke="#000000" stroke-width="1" points="54,236 59,236 "/>
<text x="50" y="183" dy="0.5ex" text-anchor="end" font-family="sans-serif" font-size="9.67741935483871" opacity="1" fill="#000000">
0.006
</text>
<polyline fill="none" opacity="1" stroke="#000000" stroke-width="1" points="54,183 59,183 "/>
<text x="50" y="131" dy="0.5ex" text-anchor="end" font-family="sans-serif" font-size="9.67741935483871" opacity="1" fill="#000000">
0.008
</text>
<polyline fill="none" opacity="1" stroke="#000000" stroke-width="1" points="54,131 59,131 "/>
<text x="50" y="78" dy="0.5ex" text-anchor="end" font-family="sans-serif" font-size="9.67741935483871" opacity="1" fill="#000000">
0.01
</text>
<polyline fill="none" opacity="1" stroke="#000000" stroke-width="1" points="54,78 59,78 "/>
<text x="50" y="25" dy="0.5ex" text-anchor="end" font-family="sans-serif" font-size="9.67741935483871" opacity="1" fill="#000000">
0.012
</text>
<polyline fill="none" opacity="1" stroke="#000000" stroke-width="1" points="54,25 59,25 "/>
<polyline fill="none" opacity="1" stroke="#000000" stroke-width="1" points="60,340 589,340 "/>
<text x="60" y="350" dy="0.76em" text-anchor="middle" font-family="sans-serif" font-size="9.67741935483871" opacity="1" fill="#000000">
2024-07-28
</text>
<polyline fill="none" opacity="1" stroke="#000000" stroke-width="1" points="60,340 60,345 "/>
<text x="192" y="350" dy="0.76em" text-anchor="middle" font-family="sans-serif" font-size="9.67741935483871" opacity="1" fill="#000000">
2024-08-04
</text>
<polyline fill="none" opacity="1" stroke="#000000" stroke-width="1" points="192,340 192,345 "/>
<text x="324" y="350" dy="0.76em" text-anchor="middle" font-family="sans-serif" font-size="9.67741935483871" opacity="1" fill="#000000">
2024-08-11
</text>
<polyline fill="none" opacity="1" stroke="#000000" stroke-width="1" points="324,340 324,345 "/>
<text x="456" y="350" dy="0.76em" text-anchor="middle" font-family="sans-serif" font-size="9.67741935483871" opacity="1" fill="#000000">
2024-08-18
</text>
<polyline fill="none" opacity="1" stroke="#000000" stroke-width="1" points="456,340 456,345 "/>
<text x="589" y="350" dy="0.76em" text-anchor="middle" font-family="sans-serif" font-size="9.67741935483871" opacity="1" fill="#000000">
2024-08-25
</text>
<polyline fill="none" opacity="1" stroke="#000000" stroke-width="1" points="589,340 589,345 "/>
<polyline fill="none" opacity="1" stroke="#E61919" stroke-width="2" points="286,339 305,318 324,300 343,278 362,269 "/>
<polyline fill="none" opacity="1" stroke="#BDE619" stroke-width="2" points="286,339 305,333 324,324 343,302 362,295 "/>
<polyline fill="none" opacity="1" stroke="#19E66B" stroke-width="2" points="60,125 60,125 78,125 78,125 97,125 97,125 116,125 116,125 135,125 135,124 154,124 154,124 173,124 173,124 192,124 192,125 211,125 211,125 230,125 230,125 248,125 248,125 267,125 267,125 286,125 286,113 305,113 305,92 324,92 324,73 343,73 343,52 362,52 362,42 381,42 381,42 400,42 400,41 418,41 418,41 437,41 437,41 456,41 456,41 475,41 475,41 494,41 494,41 513,41 513,41 532,41 532,41 551,41 551,41 570,41 570,41 589,41 "/>
<polyline fill="none" opacity="1" stroke="#196BE6" stroke-width="2" points="60,270 60,270 78,270 78,270 97,270 97,270 116,270 116,270 135,270 135,269 154,269 154,270 173,270 173,269 192,269 192,269 211,269 211,269 230,269 230,269 248,269 248,269 267,269 267,269 286,269 286,258 305,258 305,236 324,236 324,217 343,217 343,196 362,196 362,186 381,186 381,186 400,186 400,186 418,186 418,185 437,185 437,186 456,186 456,186 475,186 475,185 494,185 494,185 513,185 513,185 532,185 532,185 551,185 551,185 570,185 570,185 589,185 "/>
<polyline fill="none" opacity="1" stroke="#BD19E6" stroke-width="2" points="60,207 60,207 78,207 78,207 97,207 97,207 116,207 116,206 135,206 135,206 154,206 154,206 173,206 173,206 192,206 192,206 211,206 211,207 230,207 230,206 248,206 248,206 267,206 267,206 286,206 286,195 305,195 305,173 324,173 324,155 343,155 343,133 362,133 362,123 381,123 381,124 400,124 400,123 418,123 418,122 437,122 437,122 456,122 456,122 475,122 475,122 494,122 494,122 513,122 513,122 532,122 532,122 551,122 551,122 570,122 570,122 589,122 "/>
<rect x="65" y="130" width="185" height="89" opacity="1" fill="#FFFFFF" stroke="none"/>
<rect x="65" y="130" width="185" height="89" opacity="1" fill="none" stroke="#000000"/>
<text x="105" y="140" dy="0.76em" text-anchor="start" font-family="sans-serif" font-size="9.67741935483871" opacity="1" fill="#000000">
googleapis-tonic-google-api
</text>
<text x="105" y="155" dy="0.76em" text-anchor="start" font-family="sans-serif" font-size="9.67741935483871" opacity="1" fill="#000000">
googleapis-tonic-google-rpc
</text>
<text x="105" y="170" dy="0.76em" text-anchor="start" font-family="sans-serif" font-size="9.67741935483871" opacity="1" fill="#000000">
prost
</text>
<text x="105" y="185" dy="0.76em" text-anchor="start" font-family="sans-serif" font-size="9.67741935483871" opacity="1" fill="#000000">
prost-types
</text>
<text x="105" y="200" dy="0.76em" text-anchor="start" font-family="sans-serif" font-size="9.67741935483871" opacity="1" fill="#000000">
tonic
</text>
<polyline fill="none" opacity="1" stroke="#E61919" stroke-width="2" points="75,144 95,144 "/>
<polyline fill="none" opacity="1" stroke="#BDE619" stroke-width="2" points="75,159 95,159 "/>
<polyline fill="none" opacity="1" stroke="#19E66B" stroke-width="2" points="75,174 95,174 "/>
<polyline fill="none" opacity="1" stroke="#196BE6" stroke-width="2" points="75,189 95,189 "/>
<polyline fill="none" opacity="1" stroke="#BD19E6" stroke-width="2" points="75,204 95,204 "/>
</svg>
