<svg width="600" height="400" xmlns="http://www.w3.org/2000/svg">
<rect x="0" y="0" width="599" height="399" opacity="1" fill="#FFFFFF" stroke="none"/>
<line opacity="0.1" stroke="#000000" stroke-width="1" x1="60" y1="336" x2="590" y2="336"/>
<line opacity="0.1" stroke="#000000" stroke-width="1" x1="60" y1="333" x2="590" y2="333"/>
<line opacity="0.1" stroke="#000000" stroke-width="1" x1="60" y1="329" x2="590" y2="329"/>
<line opacity="0.1" stroke="#000000" stroke-width="1" x1="60" y1="325" x2="590" y2="325"/>
<line opacity="0.1" stroke="#000000" stroke-width="1" x1="60" y1="322" x2="590" y2="322"/>
<line opacity="0.1" stroke="#000000" stroke-width="1" x1="60" y1="318" x2="590" y2="318"/>
<line opacity="0.1" stroke="#000000" stroke-width="1" x1="60" y1="315" x2="590" y2="315"/>
<line opacity="0.1" stroke="#000000" stroke-width="1" x1="60" y1="311" x2="590" y2="311"/>
<line opacity="0.1" stroke="#000000" stroke-width="1" x1="60" y1="308" x2="590" y2="308"/>
<line opacity="0.1" stroke="#000000" stroke-width="1" x1="60" y1="304" x2="590" y2="304"/>
<line opacity="0.1" stroke="#000000" stroke-width="1" x1="60" y1="300" x2="590" y2="300"/>
<line opacity="0.1" stroke="#000000" stroke-width="1" x1="60" y1="297" x2="590" y2="297"/>
<line opacity="0.1" stroke="#000000" stroke-width="1" x1="60" y1="293" x2="590" y2="293"/>
<line opacity="0.1" stroke="#000000" stroke-width="1" x1="60" y1="290" x2="590" y2="290"/>
<line opacity="0.1" stroke="#000000" stroke-width="1" x1="60" y1="286" x2="590" y2="286"/>
<line opacity="0.1" stroke="#000000" stroke-width="1" x1="60" y1="282" x2="590" y2="282"/>
<line opacity="0.1" stroke="#000000" stroke-width="1" x1="60" y1="279" x2="590" y2="279"/>
<line opacity="0.1" stroke="#000000" stroke-width="1" x1="60" y1="275" x2="590" y2="275"/>
<line opacity="0.1" stroke="#000000" stroke-width="1" x1="60" y1="272" x2="590" y2="272"/>
<line opacity="0.1" stroke="#000000" stroke-width="1" x1="60" y1="268" x2="590" y2="268"/>
<line opacity="0.1" stroke="#000000" stroke-width="1" x1="60" y1="264" x2="590" y2="264"/>
<line opacity="0.1" stroke="#000000" stroke-width="1" x1="60" y1="261" x2="590" y2="261"/>
<line opacity="0.1" stroke="#000000" stroke-width="1" x1="60" y1="257" x2="590" y2="257"/>
<line opacity="0.1" stroke="#000000" stroke-width="1" x1="60" y1="254" x2="590" y2="254"/>
<line opacity="0.1" stroke="#000000" stroke-width="1" x1="60" y1="250" x2="590" y2="250"/>
<line opacity="0.1" stroke="#000000" stroke-width="1" x1="60" y1="246" x2="590" y2="246"/>
<line opacity="0.1" stroke="#000000" stroke-width="1" x1="60" y1="243" x2="590" y2="243"/>
<line opacity="0.1" stroke="#000000" stroke-width="1" x1="60" y1="239" x2="590" y2="239"/>
<line opacity="0.1" stroke="#000000" stroke-width="1" x1="60" y1="236" x2="590" y2="236"/>
<line opacity="0.1" stroke="#000000" stroke-width="1" x1="60" y1="232" x2="590" y2="232"/>
<line opacity="0.1" stroke="#000000" stroke-width="1" x1="60" y1="228" x2="590" y2="228"/>
<line opacity="0.1" stroke="#000000" stroke-width="1" x1="60" y1="225" x2="590" y2="225"/>
<line opacity="0.1" stroke="#000000" stroke-width="1" x1="60" y1="221" x2="590" y2="221"/>
<line opacity="0.1" stroke="#000000" stroke-width="1" x1="60" y1="218" x2="590" y2="218"/>
<line opacity="0.1" stroke="#000000" stroke-width="1" x1="60" y1="214" x2="590" y2="214"/>
<line opacity="0.1" stroke="#000000" stroke-width="1" x1="60" y1="211" x2="590" y2="211"/>
<line opacity="0.1" stroke="#000000" stroke-width="1" x1="60" y1="207" x2="590" y2="207"/>
<line opacity="0.1" stroke="#000000" stroke-width="1" x1="60" y1="203" x2="590" y2="203"/>
<line opacity="0.1" stroke="#000000" stroke-width="1" x1="60" y1="200" x2="590" y2="200"/>
<line opacity="0.1" stroke="#000000" stroke-width="1" x1="60" y1="196" x2="590" y2="196"/>
<line opacity="0.1" stroke="#000000" stroke-width="1" x1="60" y1="193" x2="590" y2="193"/>
<line opacity="0.1" stroke="#000000" stroke-width="1" x1="60" y1="189" x2="590" y2="189"/>
<line opacity="0.1" stroke="#000000" stroke-width="1" x1="60" y1="185" x2="590" y2="185"/>
<line opacity="0.1" stroke="#000000" stroke-width="1" x1="60" y1="182" x2="590" y2="182"/>
<line opacity="0.1" stroke="#000000" stroke-width="1" x1="60" y1="178" x2="590" y2="178"/>
<line opacity="0.1" stroke="#000000" stroke-width="1" x1="60" y1="175" x2="590" y2="175"/>
<line opacity="0.1" stroke="#000000" stroke-width="1" x1="60" y1="171" x2="590" y2="171"/>
<line opacity="0.1" stroke="#000000" stroke-width="1" x1="60" y1="167" x2="590" y2="167"/>
<line opacity="0.1" stroke="#000000" stroke-width="1" x1="60" y1="164" x2="590" y2="164"/>
<line opacity="0.1" stroke="#000000" stroke-width="1" x1="60" y1="160" x2="590" y2="160"/>
<line opacity="0.1" stroke="#000000" stroke-width="1" x1="60" y1="157" x2="590" y2="157"/>
<line opacity="0.1" stroke="#000000" stroke-width="1" x1="60" y1="153" x2="590" y2="153"/>
<line opacity="0.1" stroke="#000000" stroke-width="1" x1="60" y1="149" x2="590" y2="149"/>
<line opacity="0.1" stroke="#000000" stroke-width="1" x1="60" y1="146" x2="590" y2="146"/>
<line opacity="0.1" stroke="#000000" stroke-width="1" x1="60" y1="142" x2="590" y2="142"/>
<line opacity="0.1" stroke="#000000" stroke-width="1" x1="60" y1="139" x2="590" y2="139"/>
<line opacity="0.1" stroke="#000000" stroke-width="1" x1="60" y1="135" x2="590" y2="135"/>
<line opacity="0.1" stroke="#000000" stroke-width="1" x1="60" y1="132" x2="590" y2="132"/>
<line opacity="0.1" stroke="#000000" stroke-width="1" x1="60" y1="128" x2="590" y2="128"/>
<line opacity="0.1" stroke="#000000" stroke-width="1" x1="60" y1="124" x2="590" y2="124"/>
<line opacity="0.1" stroke="#000000" stroke-width="1" x1="60" y1="121" x2="590" y2="121"/>
<line opacity="0.1" stroke="#000000" stroke-width="1" x1="60" y1="117" x2="590" y2="117"/>
<line opacity="0.1" stroke="#000000" stroke-width="1" x1="60" y1="114" x2="590" y2="114"/>
<line opacity="0.1" stroke="#000000" stroke-width="1" x1="60" y1="110" x2="590" y2="110"/>
<line opacity="0.1" stroke="#000000" stroke-width="1" x1="60" y1="106" x2="590" y2="106"/>
<line opacity="0.1" stroke="#000000" stroke-width="1" x1="60" y1="103" x2="590" y2="103"/>
<line opacity="0.1" stroke="#000000" stroke-width="1" x1="60" y1="99" x2="590" y2="99"/>
<line opacity="0.1" stroke="#000000" stroke-width="1" x1="60" y1="96" x2="590" y2="96"/>
<line opacity="0.1" stroke="#000000" stroke-width="1" x1="60" y1="92" x2="590" y2="92"/>
<line opacity="0.1" stroke="#000000" stroke-width="1" x1="60" y1="88" x2="590" y2="88"/>
<line opacity="0.1" stroke="#000000" stroke-width="1" x1="60" y1="85" x2="590" y2="85"/>
<line opacity="0.1" stroke="#000000" stroke-width="1" x1="60" y1="81" x2="590" y2="81"/>
<line opacity="0.1" stroke="#000000" stroke-width="1" x1="60" y1="78" x2="590" y2="78"/>
<line opacity="0.1" stroke="#000000" stroke-width="1" x1="60" y1="74" x2="590" y2="74"/>
<line opacity="0.1" stroke="#000000" stroke-width="1" x1="60" y1="70" x2="590" y2="70"/>
<line opacity="0.1" stroke="#000000" stroke-width="1" x1="60" y1="67" x2="590" y2="67"/>
<line opacity="0.1" stroke="#000000" stroke-width="1" x1="60" y1="63" x2="590" y2="63"/>
<line opacity="0.1" stroke="#000000" stroke-width="1" x1="60" y1="60" x2="590" y2="60"/>
<line opacity="0.1" stroke="#000000" stroke-width="1" x1="60" y1="56" x2="590" y2="56"/>
<line opacity="0.1" stroke="#000000" stroke-width="1" x1="60" y1="53" x2="590" y2="53"/>
<line opacity="0.1" stroke="#000000" stroke-width="1" x1="60" y1="49" x2="590" y2="49"/>
<line opacity="0.1" stroke="#000000" stroke-width="1" x1="60" y1="45" x2="590" y2="45"/>
<line opacity="0.1" stroke="#000000" stroke-width="1" x1="60" y1="42" x2="590" y2="42"/>
<line opacity="0.1" stroke="#000000" stroke-width="1" x1="60" y1="38" x2="590" y2="38"/>
<line opacity="0.1" stroke="#000000" stroke-width="1" x1="60" y1="35" x2="590" y2="35"/>
<line opacity="0.1" stroke="#000000" stroke-width="1" x1="60" y1="31" x2="590" y2="31"/>
<line opacity="0.1" stroke="#000000" stroke-width="1" x1="60" y1="27" x2="590" y2="27"/>
<line opacity="0.1" stroke="#000000" stroke-width="1" x1="60" y1="24" x2="590" y2="24"/>
<line opacity="0.1" stroke="#000000" stroke-width="1" x1="60" y1="20" x2="590" y2="20"/>
<line opacity="0.1" stroke="#000000" stroke-width="1" x1="60" y1="17" x2="590" y2="17"/>
<line opacity="0.1" stroke="#000000" stroke-width="1" x1="60" y1="13" x2="590" y2="13"/>
<line opacity="0.1" stroke="#000000" stroke-width="1" x1="60" y1="9" x2="590" y2="9"/>
<text x="10" y="175" dy="0.76em" text-anchor="middle" font-family="sans-serif" font-size="9.67741935483871" opacity="1" fill="#000000" transform="rotate(270, 10, 175)">
Fraction of dependent crates
</text>
<line opacity="0.2" stroke="#000000" stroke-width="1" x1="60" y1="318" x2="590" y2="318"/>
<line opacity="0.2" stroke="#000000" stroke-width="1" x1="60" y1="282" x2="590" y2="282"/>
<line opacity="0.2" stroke="#000000" stroke-width="1" x1="60" y1="246" x2="590" y2="246"/>
<line opacity="0.2" stroke="#000000" stroke-width="1" x1="60" y1="211" x2="590" y2="211"/>
<line opacity="0.2" stroke="#000000" stroke-width="1" x1="60" y1="175" x2="590" y2="175"/>
<line opacity="0.2" stroke="#000000" stroke-width="1" x1="60" y1="139" x2="590" y2="139"/>
<line opacity="0.2" stroke="#000000" stroke-width="1" x1="60" y1="103" x2="590" y2="103"/>
<line opacity="0.2" stroke="#000000" stroke-width="1" x1="60" y1="67" x2="590" y2="67"/>
<line opacity="0.2" stroke="#000000" stroke-width="1" x1="60" y1="31" x2="590" y2="31"/>
<polyline fill="none" opacity="1" stroke="#000000" stroke-width="1" points="59,10 59,340 "/>
<text x="50" y="318" dy="0.5ex" text-anchor="end" font-family="sans-serif" font-size="9.67741935483871" opacity="1" fill="#000000">
0.02
</text>
<polyline fill="none" opacity="1" stroke="#000000" stroke-width="1" points="54,318 59,318 "/>
<text x="50" y="282" dy="0.5ex" text-anchor="end" font-family="sans-serif" font-size="9.67741935483871" opacity="1" fill="#000000">
0.04
</text>
<polyline fill="none" opacity="1" stroke="#000000" stroke-width="1" points="54,282 59,282 "/>
<text x="50" y="246" dy="0.5ex" text-anchor="end" font-family="sans-serif" font-size="9.67741935483871" opacity="1" fill="#000000">
0.06
</text>
<polyline fill="none" opacity="1" stroke="#000000" stroke-width="1" points="54,246 59,246 "/>
<text x="50" y="211" dy="0.5ex" text-anchor="end" font-family="sans-serif" font-size="9.67741935483871" opacity="1" fill="#000000">
0.08
</text>
<polyline fill="none" opacity="1" stroke="#000000" stroke-width="1" points="54,211 59,211 "/>
<text x="50" y="175" dy="0.5ex" text-anchor="end" font-family="sans-serif" font-size="9.67741935483871" opacity="1" fill="#000000">
0.1
</text>
<polyline fill="none" opacity="1" stroke="#000000" stroke-width="1" points="54,175 59,175 "/>
<text x="50" y="139" dy="0.5ex" text-anchor="end" font-family="sans-serif" font-size="9.67741935483871" opacity="1" fill="#000000">
0.12
</text>
<polyline fill="none" opacity="1" stroke="#000000" stroke-width="1" points="54,139 59,139 "/>
<text x="50" y="103" dy="0.5ex" text-anchor="end" font-family="sans-serif" font-size="9.67741935483871" opacity="1" fill="#000000">
0.14
</text>
<polyline fill="none" opacity="1" stroke="#000000" stroke-width="1" points="54,103 59,103 "/>
<text x="50" y="67" dy="0.5ex" text-anchor="end" font-family="sans-serif" font-size="9.67741935483871" opacity="1" fill="#000000">
0.16
</text>
<polyline fill="none" opacity="1" stroke="#000000" stroke-width="1" points="54,67 59,67 "/>
<text x="50" y="31" dy="0.5ex" text-anchor="end" font-family="sans-serif" font-size="9.67741935483871" opacity="1" fill="#000000">
0.18
</text>
<polyline fill="none" opacity="1" stroke="#000000" stroke-width="1" points="54,31 59,31 "/>
<polyline fill="none" opacity="1" stroke="#000000" stroke-width="1" points="60,340 590,340 "/>
<text x="60" y="350" dy="0.76em" text-anchor="middle" font-family="sans-serif" font-size="9.67741935483871" opacity="1" fill="#000000">
2020-03-29Z
</text>
<polyline fill="none" opacity="1" stroke="#000000" stroke-width="1" points="60,340 60,345 "/>
<text x="192" y="350" dy="0.76em" text-anchor="middle" font-family="sans-serif" font-size="9.67741935483871" opacity="1" fill="#000000">
2020-04-05Z
</text>
<polyline fill="none" opacity="1" stroke="#000000" stroke-width="1" points="192,340 192,345 "/>
<text x="325" y="350" dy="0.76em" text-anchor="middle" font-family="sans-serif" font-size="9.67741935483871" opacity="1" fill="#000000">
2020-04-12Z
</text>
<polyline fill="none" opacity="1" stroke="#000000" stroke-width="1" points="325,340 325,345 "/>
<text x="457" y="350" dy="0.76em" text-anchor="middle" font-family="sans-serif" font-size="9.67741935483871" opacity="1" fill="#000000">
2020-04-19Z
</text>
<polyline fill="none" opacity="1" stroke="#000000" stroke-width="1" points="457,340 457,345 "/>
<text x="590" y="350" dy="0.76em" text-anchor="middle" font-family="sans-serif" font-size="9.67741935483871" opacity="1" fill="#000000">
2020-04-26Z
</text>
<polyline fill="none" opacity="1" stroke="#000000" stroke-width="1" points="590,340 590,345 "/>
<polyline fill="none" opacity="1" stroke="#E61919" stroke-width="2" points="60,337 60,337 78,337 78,337 97,337 116,337 116,336 135,336 135,336 154,336 154,336 173,336 173,336 192,336 192,336 211,336 211,336 230,336 230,336 249,336 249,335 268,335 268,335 287,335 306,335 306,335 325,335 325,334 343,334 343,334 362,334 362,334 381,334 381,334 400,334 400,334 419,334 419,334 438,334 438,333 457,333 457,333 476,333 476,333 495,333 495,333 514,333 533,333 552,333 552,333 571,333 571,332 590,332 "/>
<polyline fill="none" opacity="1" stroke="#BDE619" stroke-width="2" points="60,43 60,43 78,43 78,43 97,43 116,43 116,43 135,43 135,42 154,42 154,42 173,42 173,43 192,43 192,43 211,43 211,42 230,42 230,42 249,42 249,42 268,42 268,42 287,41 306,41 306,41 325,41 325,41 343,41 343,41 362,41 362,41 381,41 381,41 400,41 400,41 419,41 419,41 438,41 438,41 457,41 457,41 476,41 476,40 495,40 495,40 514,40 533,40 552,40 552,40 571,40 571,40 590,40 "/>
<polyline fill="none" opacity="1" stroke="#19E66B" stroke-width="2" points="60,300 60,300 78,300 78,300 97,300 116,300 116,300 135,300 135,300 154,300 154,299 173,299 173,299 192,299 192,299 211,299 211,299 230,299 230,299 249,299 249,299 268,299 268,299 287,299 306,299 306,299 325,299 325,299 343,299 343,299 362,299 362,299 381,299 381,299 400,299 400,299 419,299 419,299 438,299 438,299 457,299 457,299 476,299 476,298 495,298 495,298 514,298 533,298 552,298 552,298 571,298 571,298 590,298 "/>
<polyline fill="none" opacity="1" stroke="#196BE6" stroke-width="2" points="60,337 60,337 78,337 78,337 97,336 116,336 116,336 135,336 135,336 154,336 154,336 173,336 173,336 192,336 192,336 211,336 211,336 230,336 230,336 249,336 249,335 268,335 268,335 287,334 306,334 306,334 325,334 325,334 343,334 343,334 362,334 362,334 381,334 381,333 400,333 400,333 419,333 419,333 438,333 438,333 457,333 457,333 476,333 476,333 495,333 495,333 514,333 533,332 552,332 552,332 571,332 571,332 590,332 "/>
<polyline fill="none" opacity="1" stroke="#BD19E6" stroke-width="2" points="60,274 60,274 78,274 78,273 97,273 116,273 116,273 135,273 135,273 154,273 154,273 173,273 173,272 192,272 192,272 211,272 211,272 230,272 230,271 249,271 249,271 268,271 268,271 287,271 306,271 306,271 325,271 325,270 343,270 343,270 362,270 362,270 381,270 381,269 400,269 400,269 419,269 419,269 438,269 438,269 457,269 457,269 476,269 476,269 495,269 495,268 514,268 533,268 552,268 552,268 571,268 571,268 590,268 "/>
<rect x="488" y="130" width="97" height="89" opacity="1" fill="#FFFFFF" stroke="none"/>
<rect x="488" y="130" width="97" height="89" opacity="1" fill="none" stroke="#000000"/>
<text x="528" y="140" dy="0.76em" text-anchor="start" font-family="sans-serif" font-size="9.67741935483871" opacity="1" fill="#000000">
anyhow
</text>
<text x="528" y="155" dy="0.76em" text-anchor="start" font-family="sans-serif" font-size="9.67741935483871" opacity="1" fill="#000000">
serde
</text>
<text x="528" y="170" dy="0.76em" text-anchor="start" font-family="sans-serif" font-size="9.67741935483871" opacity="1" fill="#000000">
structopt
</text>
<text x="528" y="185" dy="0.76em" text-anchor="start" font-family="sans-serif" font-size="9.67741935483871" opacity="1" fill="#000000">
thiserror
</text>
<text x="528" y="200" dy="0.76em" text-anchor="start" font-family="sans-serif" font-size="9.67741935483871" opacity="1" fill="#000000">
tokio
</text>
<polyline fill="none" opacity="1" stroke="#E61919" stroke-width="2" points="498,145 518,145 "/>
<polyline fill="none" opacity="1" stroke="#BDE619" stroke-width="2" points="498,159 518,159 "/>
<polyline fill="none" opacity="1" stroke="#19E66B" stroke-width="2" points="498,175 518,175 "/>
<polyline fill="none" opacity="1" stroke="#196BE6" stroke-width="2" points="498,189 518,189 "/>
<polyline fill="none" opacity="1" stroke="#BD19E6" stroke-width="2" points="498,204 518,204 "/>
</svg>
