<svg width="600" height="400" xmlns="http://www.w3.org/2000/svg">
<rect x="0" y="0" width="599" height="399" opacity="1" fill="#FFFFFF" stroke="none"/>
<line opacity="0.1" stroke="#000000" stroke-width="1" x1="60" y1="337" x2="590" y2="337"/>
<line opacity="0.1" stroke="#000000" stroke-width="1" x1="60" y1="333" x2="590" y2="333"/>
<line opacity="0.1" stroke="#000000" stroke-width="1" x1="60" y1="329" x2="590" y2="329"/>
<line opacity="0.1" stroke="#000000" stroke-width="1" x1="60" y1="325" x2="590" y2="325"/>
<line opacity="0.1" stroke="#000000" stroke-width="1" x1="60" y1="321" x2="590" y2="321"/>
<line opacity="0.1" stroke="#000000" stroke-width="1" x1="60" y1="317" x2="590" y2="317"/>
<line opacity="0.1" stroke="#000000" stroke-width="1" x1="60" y1="313" x2="590" y2="313"/>
<line opacity="0.1" stroke="#000000" stroke-width="1" x1="60" y1="309" x2="590" y2="309"/>
<line opacity="0.1" stroke="#000000" stroke-width="1" x1="60" y1="305" x2="590" y2="305"/>
<line opacity="0.1" stroke="#000000" stroke-width="1" x1="60" y1="301" x2="590" y2="301"/>
<line opacity="0.1" stroke="#000000" stroke-width="1" x1="60" y1="297" x2="590" y2="297"/>
<line opacity="0.1" stroke="#000000" stroke-width="1" x1="60" y1="293" x2="590" y2="293"/>
<line opacity="0.1" stroke="#000000" stroke-width="1" x1="60" y1="289" x2="590" y2="289"/>
<line opacity="0.1" stroke="#000000" stroke-width="1" x1="60" y1="285" x2="590" y2="285"/>
<line opacity="0.1" stroke="#000000" stroke-width="1" x1="60" y1="281" x2="590" y2="281"/>
<line opacity="0.1" stroke="#000000" stroke-width="1" x1="60" y1="277" x2="590" y2="277"/>
<line opacity="0.1" stroke="#000000" stroke-width="1" x1="60" y1="273" x2="590" y2="273"/>
<line opacity="0.1" stroke="#000000" stroke-width="1" x1="60" y1="269" x2="590" y2="269"/>
<line opacity="0.1" stroke="#000000" stroke-width="1" x1="60" y1="265" x2="590" y2="265"/>
<line opacity="0.1" stroke="#000000" stroke-width="1" x1="60" y1="261" x2="590" y2="261"/>
<line opacity="0.1" stroke="#000000" stroke-width="1" x1="60" y1="257" x2="590" y2="257"/>
<line opacity="0.1" stroke="#000000" stroke-width="1" x1="60" y1="253" x2="590" y2="253"/>
<line opacity="0.1" stroke="#000000" stroke-width="1" x1="60" y1="249" x2="590" y2="249"/>
<line opacity="0.1" stroke="#000000" stroke-width="1" x1="60" y1="245" x2="590" y2="245"/>
<line opacity="0.1" stroke="#000000" stroke-width="1" x1="60" y1="241" x2="590" y2="241"/>
<line opacity="0.1" stroke="#000000" stroke-width="1" x1="60" y1="237" x2="590" y2="237"/>
<line opacity="0.1" stroke="#000000" stroke-width="1" x1="60" y1="233" x2="590" y2="233"/>
<line opacity="0.1" stroke="#000000" stroke-width="1" x1="60" y1="229" x2="590" y2="229"/>
<line opacity="0.1" stroke="#000000" stroke-width="1" x1="60" y1="225" x2="590" y2="225"/>
<line opacity="0.1" stroke="#000000" stroke-width="1" x1="60" y1="221" x2="590" y2="221"/>
<line opacity="0.1" stroke="#000000" stroke-width="1" x1="60" y1="217" x2="590" y2="217"/>
<line opacity="0.1" stroke="#000000" stroke-width="1" x1="60" y1="213" x2="590" y2="213"/>
<line opacity="0.1" stroke="#000000" stroke-width="1" x1="60" y1="209" x2="590" y2="209"/>
<line opacity="0.1" stroke="#000000" stroke-width="1" x1="60" y1="205" x2="590" y2="205"/>
<line opacity="0.1" stroke="#000000" stroke-width="1" x1="60" y1="201" x2="590" y2="201"/>
<line opacity="0.1" stroke="#000000" stroke-width="1" x1="60" y1="197" x2="590" y2="197"/>
<line opacity="0.1" stroke="#000000" stroke-width="1" x1="60" y1="193" x2="590" y2="193"/>
<line opacity="0.1" stroke="#000000" stroke-width="1" x1="60" y1="189" x2="590" y2="189"/>
<line opacity="0.1" stroke="#000000" stroke-width="1" x1="60" y1="185" x2="590" y2="185"/>
<line opacity="0.1" stroke="#000000" stroke-width="1" x1="60" y1="181" x2="590" y2="181"/>
<line opacity="0.1" stroke="#000000" stroke-width="1" x1="60" y1="177" x2="590" y2="177"/>
<line opacity="0.1" stroke="#000000" stroke-width="1" x1="60" y1="173" x2="590" y2="173"/>
<line opacity="0.1" stroke="#000000" stroke-width="1" x1="60" y1="169" x2="590" y2="169"/>
<line opacity="0.1" stroke="#000000" stroke-width="1" x1="60" y1="165" x2="590" y2="165"/>
<line opacity="0.1" stroke="#000000" stroke-width="1" x1="60" y1="161" x2="590" y2="161"/>
<line opacity="0.1" stroke="#000000" stroke-width="1" x1="60" y1="157" x2="590" y2="157"/>
<line opacity="0.1" stroke="#000000" stroke-width="1" x1="60" y1="153" x2="590" y2="153"/>
<line opacity="0.1" stroke="#000000" stroke-width="1" x1="60" y1="149" x2="590" y2="149"/>
<line opacity="0.1" stroke="#000000" stroke-width="1" x1="60" y1="145" x2="590" y2="145"/>
<line opacity="0.1" stroke="#000000" stroke-width="1" x1="60" y1="141" x2="590" y2="141"/>
<line opacity="0.1" stroke="#000000" stroke-width="1" x1="60" y1="137" x2="590" y2="137"/>
<line opacity="0.1" stroke="#000000" stroke-width="1" x1="60" y1="133" x2="590" y2="133"/>
<line opacity="0.1" stroke="#000000" stroke-width="1" x1="60" y1="129" x2="590" y2="129"/>
<line opacity="0.1" stroke="#000000" stroke-width="1" x1="60" y1="125" x2="590" y2="125"/>
<line opacity="0.1" stroke="#000000" stroke-width="1" x1="60" y1="121" x2="590" y2="121"/>
<line opacity="0.1" stroke="#000000" stroke-width="1" x1="60" y1="117" x2="590" y2="117"/>
<line opacity="0.1" stroke="#000000" stroke-width="1" x1="60" y1="113" x2="590" y2="113"/>
<line opacity="0.1" stroke="#000000" stroke-width="1" x1="60" y1="109" x2="590" y2="109"/>
<line opacity="0.1" stroke="#000000" stroke-width="1" x1="60" y1="104" x2="590" y2="104"/>
<line opacity="0.1" stroke="#000000" stroke-width="1" x1="60" y1="100" x2="590" y2="100"/>
<line opacity="0.1" stroke="#000000" stroke-width="1" x1="60" y1="96" x2="590" y2="96"/>
<line opacity="0.1" stroke="#000000" stroke-width="1" x1="60" y1="92" x2="590" y2="92"/>
<line opacity="0.1" stroke="#000000" stroke-width="1" x1="60" y1="88" x2="590" y2="88"/>
<line opacity="0.1" stroke="#000000" stroke-width="1" x1="60" y1="84" x2="590" y2="84"/>
<line opacity="0.1" stroke="#000000" stroke-width="1" x1="60" y1="80" x2="590" y2="80"/>
<line opacity="0.1" stroke="#000000" stroke-width="1" x1="60" y1="76" x2="590" y2="76"/>
<line opacity="0.1" stroke="#000000" stroke-width="1" x1="60" y1="72" x2="590" y2="72"/>
<line opacity="0.1" stroke="#000000" stroke-width="1" x1="60" y1="68" x2="590" y2="68"/>
<line opacity="0.1" stroke="#000000" stroke-width="1" x1="60" y1="64" x2="590" y2="64"/>
<line opacity="0.1" stroke="#000000" stroke-width="1" x1="60" y1="60" x2="590" y2="60"/>
<line opacity="0.1" stroke="#000000" stroke-width="1" x1="60" y1="56" x2="590" y2="56"/>
<line opacity="0.1" stroke="#000000" stroke-width="1" x1="60" y1="52" x2="590" y2="52"/>
<line opacity="0.1" stroke="#000000" stroke-width="1" x1="60" y1="48" x2="590" y2="48"/>
<line opacity="0.1" stroke="#000000" stroke-width="1" x1="60" y1="44" x2="590" y2="44"/>
<line opacity="0.1" stroke="#000000" stroke-width="1" x1="60" y1="40" x2="590" y2="40"/>
<line opacity="0.1" stroke="#000000" stroke-width="1" x1="60" y1="36" x2="590" y2="36"/>
<line opacity="0.1" stroke="#000000" stroke-width="1" x1="60" y1="32" x2="590" y2="32"/>
<line opacity="0.1" stroke="#000000" stroke-width="1" x1="60" y1="28" x2="590" y2="28"/>
<line opacity="0.1" stroke="#000000" stroke-width="1" x1="60" y1="24" x2="590" y2="24"/>
<line opacity="0.1" stroke="#000000" stroke-width="1" x1="60" y1="20" x2="590" y2="20"/>
<line opacity="0.1" stroke="#000000" stroke-width="1" x1="60" y1="16" x2="590" y2="16"/>
<line opacity="0.1" stroke="#000000" stroke-width="1" x1="60" y1="12" x2="590" y2="12"/>
<text x="10" y="175" dy="0.76em" text-anchor="middle" font-family="sans-serif" font-size="9.67741935483871" opacity="1" fill="#000000" transform="rotate(270, 10, 175)">
Number of dependent crates
</text>
<line opacity="0.2" stroke="#000000" stroke-width="1" x1="60" y1="337" x2="590" y2="337"/>
<line opacity="0.2" stroke="#000000" stroke-width="1" x1="60" y1="297" x2="590" y2="297"/>
<line opacity="0.2" stroke="#000000" stroke-width="1" x1="60" y1="257" x2="590" y2="257"/>
<line opacity="0.2" stroke="#000000" stroke-width="1" x1="60" y1="217" x2="590" y2="217"/>
<line opacity="0.2" stroke="#000000" stroke-width="1" x1="60" y1="177" x2="590" y2="177"/>
<line opacity="0.2" stroke="#000000" stroke-width="1" x1="60" y1="137" x2="590" y2="137"/>
<line opacity="0.2" stroke="#000000" stroke-width="1" x1="60" y1="96" x2="590" y2="96"/>
<line opacity="0.2" stroke="#000000" stroke-width="1" x1="60" y1="56" x2="590" y2="56"/>
<line opacity="0.2" stroke="#000000" stroke-width="1" x1="60" y1="16" x2="590" y2="16"/>
<polyline fill="none" opacity="1" stroke="#000000" stroke-width="1" points="59,10 59,340 "/>
<text x="50" y="337" dy="0.5ex" text-anchor="end" font-family="sans-serif" font-size="9.67741935483871" opacity="1" fill="#000000">
1000
</text>
<polyline fill="none" opacity="1" stroke="#000000" stroke-width="1" points="54,337 59,337 "/>
<text x="50" y="297" dy="0.5ex" text-anchor="end" font-family="sans-serif" font-size="9.67741935483871" opacity="1" fill="#000000">
2000
</text>
<polyline fill="none" opacity="1" stroke="#000000" stroke-width="1" points="54,297 59,297 "/>
<text x="50" y="257" dy="0.5ex" text-anchor="end" font-family="sans-serif" font-size="9.67741935483871" opacity="1" fill="#000000">
3000
</text>
<polyline fill="none" opacity="1" stroke="#000000" stroke-width="1" points="54,257 59,257 "/>
<text x="50" y="217" dy="0.5ex" text-anchor="end" font-family="sans-serif" font-size="9.67741935483871" opacity="1" fill="#000000">
4000
</text>
<polyline fill="none" opacity="1" stroke="#000000" stroke-width="1" points="54,217 59,217 "/>
<text x="50" y="177" dy="0.5ex" text-anchor="end" font-family="sans-serif" font-size="9.67741935483871" opacity="1" fill="#000000">
5000
</text>
<polyline fill="none" opacity="1" stroke="#000000" stroke-width="1" points="54,177 59,177 "/>
<text x="50" y="137" dy="0.5ex" text-anchor="end" font-family="sans-serif" font-size="9.67741935483871" opacity="1" fill="#000000">
6000
</text>
<polyline fill="none" opacity="1" stroke="#000000" stroke-width="1" points="54,137 59,137 "/>
<text x="50" y="96" dy="0.5ex" text-anchor="end" font-family="sans-serif" font-size="9.67741935483871" opacity="1" fill="#000000">
7000
</text>
<polyline fill="none" opacity="1" stroke="#000000" stroke-width="1" points="54,96 59,96 "/>
<text x="50" y="56" dy="0.5ex" text-anchor="end" font-family="sans-serif" font-size="9.67741935483871" opacity="1" fill="#000000">
8000
</text>
<polyline fill="none" opacity="1" stroke="#000000" stroke-width="1" points="54,56 59,56 "/>
<text x="50" y="16" dy="0.5ex" text-anchor="end" font-family="sans-serif" font-size="9.67741935483871" opacity="1" fill="#000000">
9000
</text>
<polyline fill="none" opacity="1" stroke="#000000" stroke-width="1" points="54,16 59,16 "/>
<polyline fill="none" opacity="1" stroke="#000000" stroke-width="1" points="60,340 590,340 "/>
<text x="60" y="350" dy="0.76em" text-anchor="middle" font-family="sans-serif" font-size="9.67741935483871" opacity="1" fill="#000000">
2020-08-16Z
</text>
<polyline fill="none" opacity="1" stroke="#000000" stroke-width="1" points="60,340 60,345 "/>
<text x="192" y="350" dy="0.76em" text-anchor="middle" font-family="sans-serif" font-size="9.67741935483871" opacity="1" fill="#000000">
2020-08-23Z
</text>
<polyline fill="none" opacity="1" stroke="#000000" stroke-width="1" points="192,340 192,345 "/>
<text x="325" y="350" dy="0.76em" text-anchor="middle" font-family="sans-serif" font-size="9.67741935483871" opacity="1" fill="#000000">
2020-08-30Z
</text>
<polyline fill="none" opacity="1" stroke="#000000" stroke-width="1" points="325,340 325,345 "/>
<text x="457" y="350" dy="0.76em" text-anchor="middle" font-family="sans-serif" font-size="9.67741935483871" opacity="1" fill="#000000">
2020-09-06Z
</text>
<polyline fill="none" opacity="1" stroke="#000000" stroke-width="1" points="457,340 457,345 "/>
<text x="590" y="350" dy="0.76em" text-anchor="middle" font-family="sans-serif" font-size="9.67741935483871" opacity="1" fill="#000000">
2020-09-13Z
</text>
<polyline fill="none" opacity="1" stroke="#000000" stroke-width="1" points="590,340 590,345 "/>
<polyline fill="none" opacity="1" stroke="#E61919" stroke-width="2" points="60,167 60,167 78,167 78,167 97,167 97,167 116,167 116,167 135,167 135,166 154,166 154,166 173,166 173,166 192,166 192,166 211,166 211,165 230,165 230,165 249,165 249,165 268,165 268,164 287,164 287,164 306,164 306,164 325,164 325,164 343,164 343,163 362,163 362,162 381,162 381,162 400,162 400,161 419,161 419,161 438,161 438,161 457,161 476,161 476,160 495,160 495,160 514,160 533,160 533,160 552,160 552,160 571,160 571,159 590,159 "/>
<polyline fill="none" opacity="1" stroke="#BDE619" stroke-width="2" points="60,209 60,208 78,208 78,208 97,208 97,208 116,208 116,208 135,208 135,207 154,207 154,207 173,207 192,207 192,207 211,207 211,206 230,206 230,206 249,206 249,206 268,206 268,205 287,205 287,205 306,205 306,205 325,205 325,205 343,205 343,204 362,204 362,204 381,204 381,204 400,204 400,203 419,203 419,203 438,203 438,203 457,203 476,203 476,203 495,203 495,202 514,202 533,202 533,202 552,202 552,202 571,202 571,201 590,201 "/>
<polyline fill="none" opacity="1" stroke="#19E66B" stroke-width="2" points="60,53 60,53 78,53 78,53 97,53 97,52 116,52 116,52 135,52 135,52 154,52 154,51 173,51 173,51 192,51 192,51 211,51 211,50 230,50 230,50 249,50 249,49 268,49 268,49 287,49 287,48 306,48 306,48 325,48 325,48 343,48 343,47 362,47 362,47 381,47 381,46 400,46 400,46 419,46 419,45 438,45 438,45 457,44 476,44 476,44 495,44 495,43 514,43 533,43 533,43 552,43 552,42 571,42 571,42 590,42 "/>
<polyline fill="none" opacity="1" stroke="#196BE6" stroke-width="2" points="60,139 60,139 78,139 78,139 97,139 97,139 116,139 116,139 135,139 135,139 154,139 154,138 173,138 173,138 192,138 192,138 211,138 211,137 230,137 230,137 249,137 249,137 268,137 268,137 287,137 287,136 306,136 306,136 325,136 325,135 343,135 343,135 362,135 362,135 381,135 381,134 400,134 400,134 419,134 419,134 438,134 438,134 457,133 476,133 476,133 495,133 495,133 514,132 533,132 533,132 552,132 552,132 571,132 571,132 590,132 "/>
<polyline fill="none" opacity="1" stroke="#BD19E6" stroke-width="2" points="60,334 60,334 78,334 78,334 97,334 97,334 116,334 116,333 135,333 135,333 154,333 154,333 173,333 173,332 192,332 192,332 211,332 211,332 230,332 230,332 249,332 249,331 268,331 268,331 287,331 287,331 306,331 306,331 325,331 325,331 343,331 343,330 362,330 362,330 381,330 381,329 400,329 400,329 419,329 419,329 438,329 438,329 457,329 476,329 476,329 495,329 495,328 514,328 533,328 533,328 552,328 552,327 571,327 571,327 590,327 "/>
<rect x="480" y="130" width="105" height="89" opacity="1" fill="#FFFFFF" stroke="none"/>
<rect x="480" y="130" width="105" height="89" opacity="1" fill="none" stroke="#000000"/>
<text x="520" y="140" dy="0.76em" text-anchor="start" font-family="sans-serif" font-size="9.67741935483871" opacity="1" fill="#000000">
log
</text>
<text x="520" y="155" dy="0.76em" text-anchor="start" font-family="sans-serif" font-size="9.67741935483871" opacity="1" fill="#000000">
rand
</text>
<text x="520" y="170" dy="0.76em" text-anchor="start" font-family="sans-serif" font-size="9.67741935483871" opacity="1" fill="#000000">
serde
</text>
<text x="520" y="185" dy="0.76em" text-anchor="start" font-family="sans-serif" font-size="9.67741935483871" opacity="1" fill="#000000">
serde_json
</text>
<text x="520" y="200" dy="0.76em" text-anchor="start" font-family="sans-serif" font-size="9.67741935483871" opacity="1" fill="#000000">
thiserror
</text>
<polyline fill="none" opacity="1" stroke="#E61919" stroke-width="2" points="490,145 510,145 "/>
<polyline fill="none" opacity="1" stroke="#BDE619" stroke-width="2" points="490,159 510,159 "/>
<polyline fill="none" opacity="1" stroke="#19E66B" stroke-width="2" points="490,174 510,174 "/>
<polyline fill="none" opacity="1" stroke="#196BE6" stroke-width="2" points="490,190 510,190 "/>
<polyline fill="none" opacity="1" stroke="#BD19E6" stroke-width="2" points="490,204 510,204 "/>
</svg>
