<svg width="600" height="400" viewBox="0 0 600 400" xmlns="http://www.w3.org/2000/svg">
<rect x="0" y="0" width="599" height="399" opacity="1" fill="#FFFFFF" stroke="none"/>
<line opacity="0.1" stroke="#000000" stroke-width="1" x1="60" y1="338" x2="590" y2="338"/>
<line opacity="0.1" stroke="#000000" stroke-width="1" x1="60" y1="331" x2="590" y2="331"/>
<line opacity="0.1" stroke="#000000" stroke-width="1" x1="60" y1="325" x2="590" y2="325"/>
<line opacity="0.1" stroke="#000000" stroke-width="1" x1="60" y1="318" x2="590" y2="318"/>
<line opacity="0.1" stroke="#000000" stroke-width="1" x1="60" y1="312" x2="590" y2="312"/>
<line opacity="0.1" stroke="#000000" stroke-width="1" x1="60" y1="305" x2="590" y2="305"/>
<line opacity="0.1" stroke="#000000" stroke-width="1" x1="60" y1="299" x2="590" y2="299"/>
<line opacity="0.1" stroke="#000000" stroke-width="1" x1="60" y1="292" x2="590" y2="292"/>
<line opacity="0.1" stroke="#000000" stroke-width="1" x1="60" y1="286" x2="590" y2="286"/>
<line opacity="0.1" stroke="#000000" stroke-width="1" x1="60" y1="279" x2="590" y2="279"/>
<line opacity="0.1" stroke="#000000" stroke-width="1" x1="60" y1="273" x2="590" y2="273"/>
<line opacity="0.1" stroke="#000000" stroke-width="1" x1="60" y1="266" x2="590" y2="266"/>
<line opacity="0.1" stroke="#000000" stroke-width="1" x1="60" y1="260" x2="590" y2="260"/>
<line opacity="0.1" stroke="#000000" stroke-width="1" x1="60" y1="254" x2="590" y2="254"/>
<line opacity="0.1" stroke="#000000" stroke-width="1" x1="60" y1="247" x2="590" y2="247"/>
<line opacity="0.1" stroke="#000000" stroke-width="1" x1="60" y1="241" x2="590" y2="241"/>
<line opacity="0.1" stroke="#000000" stroke-width="1" x1="60" y1="234" x2="590" y2="234"/>
<line opacity="0.1" stroke="#000000" stroke-width="1" x1="60" y1="228" x2="590" y2="228"/>
<line opacity="0.1" stroke="#000000" stroke-width="1" x1="60" y1="221" x2="590" y2="221"/>
<line opacity="0.1" stroke="#000000" stroke-width="1" x1="60" y1="215" x2="590" y2="215"/>
<line opacity="0.1" stroke="#000000" stroke-width="1" x1="60" y1="208" x2="590" y2="208"/>
<line opacity="0.1" stroke="#000000" stroke-width="1" x1="60" y1="202" x2="590" y2="202"/>
<line opacity="0.1" stroke="#000000" stroke-width="1" x1="60" y1="195" x2="590" y2="195"/>
<line opacity="0.1" stroke="#000000" stroke-width="1" x1="60" y1="189" x2="590" y2="189"/>
<line opacity="0.1" stroke="#000000" stroke-width="1" x1="60" y1="182" x2="590" y2="182"/>
<line opacity="0.1" stroke="#000000" stroke-width="1" x1="60" y1="176" x2="590" y2="176"/>
<line opacity="0.1" stroke="#000000" stroke-width="1" x1="60" y1="169" x2="590" y2="169"/>
<line opacity="0.1" stroke="#000000" stroke-width="1" x1="60" y1="163" x2="590" y2="163"/>
<line opacity="0.1" stroke="#000000" stroke-width="1" x1="60" y1="156" x2="590" y2="156"/>
<line opacity="0.1" stroke="#000000" stroke-width="1" x1="60" y1="150" x2="590" y2="150"/>
<line opacity="0.1" stroke="#000000" stroke-width="1" x1="60" y1="143" x2="590" y2="143"/>
<line opacity="0.1" stroke="#000000" stroke-width="1" x1="60" y1="137" x2="590" y2="137"/>
<line opacity="0.1" stroke="#000000" stroke-width="1" x1="60" y1="130" x2="590" y2="130"/>
<line opacity="0.1" stroke="#000000" stroke-width="1" x1="60" y1="124" x2="590" y2="124"/>
<line opacity="0.1" stroke="#000000" stroke-width="1" x1="60" y1="117" x2="590" y2="117"/>
<line opacity="0.1" stroke="#000000" stroke-width="1" x1="60" y1="111" x2="590" y2="111"/>
<line opacity="0.1" stroke="#000000" stroke-width="1" x1="60" y1="104" x2="590" y2="104"/>
<line opacity="0.1" stroke="#000000" stroke-width="1" x1="60" y1="98" x2="590" y2="98"/>
<line opacity="0.1" stroke="#000000" stroke-width="1" x1="60" y1="91" x2="590" y2="91"/>
<line opacity="0.1" stroke="#000000" stroke-width="1" x1="60" y1="85" x2="590" y2="85"/>
<line opacity="0.1" stroke="#000000" stroke-width="1" x1="60" y1="78" x2="590" y2="78"/>
<line opacity="0.1" stroke="#000000" stroke-width="1" x1="60" y1="72" x2="590" y2="72"/>
<line opacity="0.1" stroke="#000000" stroke-width="1" x1="60" y1="65" x2="590" y2="65"/>
<line opacity="0.1" stroke="#000000" stroke-width="1" x1="60" y1="59" x2="590" y2="59"/>
<line opacity="0.1" stroke="#000000" stroke-width="1" x1="60" y1="52" x2="590" y2="52"/>
<line opacity="0.1" stroke="#000000" stroke-width="1" x1="60" y1="46" x2="590" y2="46"/>
<line opacity="0.1" stroke="#000000" stroke-width="1" x1="60" y1="39" x2="590" y2="39"/>
<line opacity="0.1" stroke="#000000" stroke-width="1" x1="60" y1="33" x2="590" y2="33"/>
<line opacity="0.1" stroke="#000000" stroke-width="1" x1="60" y1="26" x2="590" y2="26"/>
<line opacity="0.1" stroke="#000000" stroke-width="1" x1="60" y1="20" x2="590" y2="20"/>
<line opacity="0.1" stroke="#000000" stroke-width="1" x1="60" y1="13" x2="590" y2="13"/>
<text x="10" y="175" dy="0.76em" text-anchor="middle" font-family="sans-serif" font-size="9.67741935483871" opacity="1" fill="#000000" transform="rotate(270, 10, 175)">
Number of dependent crates
</text>
<line opacity="0.2" stroke="#000000" stroke-width="1" x1="60" y1="299" x2="590" y2="299"/>
<line opacity="0.2" stroke="#000000" stroke-width="1" x1="60" y1="234" x2="590" y2="234"/>
<line opacity="0.2" stroke="#000000" stroke-width="1" x1="60" y1="169" x2="590" y2="169"/>
<line opacity="0.2" stroke="#000000" stroke-width="1" x1="60" y1="104" x2="590" y2="104"/>
<line opacity="0.2" stroke="#000000" stroke-width="1" x1="60" y1="39" x2="590" y2="39"/>
<polyline fill="none" opacity="1" stroke="#000000" stroke-width="1" points="59,10 59,340 "/>
<text x="50" y="299" dy="0.5ex" text-anchor="end" font-family="sans-serif" font-size="9.67741935483871" opacity="1" fill="#000000">
2000
</text>
<polyline fill="none" opacity="1" stroke="#000000" stroke-width="1" points="54,299 59,299 "/>
<text x="50" y="234" dy="0.5ex" text-anchor="end" font-family="sans-serif" font-size="9.67741935483871" opacity="1" fill="#000000">
4000
</text>
<polyline fill="none" opacity="1" stroke="#000000" stroke-width="1" points="54,234 59,234 "/>
<text x="50" y="169" dy="0.5ex" text-anchor="end" font-family="sans-serif" font-size="9.67741935483871" opacity="1" fill="#000000">
6000
</text>
<polyline fill="none" opacity="1" stroke="#000000" stroke-width="1" points="54,169 59,169 "/>
<text x="50" y="104" dy="0.5ex" text-anchor="end" font-family="sans-serif" font-size="9.67741935483871" opacity="1" fill="#000000">
8000
</text>
<polyline fill="none" opacity="1" stroke="#000000" stroke-width="1" points="54,104 59,104 "/>
<text x="50" y="39" dy="0.5ex" text-anchor="end" font-family="sans-serif" font-size="9.67741935483871" opacity="1" fill="#000000">
10000
</text>
<polyline fill="none" opacity="1" stroke="#000000" stroke-width="1" points="54,39 59,39 "/>
<polyline fill="none" opacity="1" stroke="#000000" stroke-width="1" points="60,340 590,340 "/>
<text x="60" y="350" dy="0.76em" text-anchor="middle" font-family="sans-serif" font-size="9.67741935483871" opacity="1" fill="#000000">
2020-12-20Z
</text>
<polyline fill="none" opacity="1" stroke="#000000" stroke-width="1" points="60,340 60,345 "/>
<text x="192" y="350" dy="0.76em" text-anchor="middle" font-family="sans-serif" font-size="9.67741935483871" opacity="1" fill="#000000">
2020-12-27Z
</text>
<polyline fill="none" opacity="1" stroke="#000000" stroke-width="1" points="192,340 192,345 "/>
<text x="325" y="350" dy="0.76em" text-anchor="middle" font-family="sans-serif" font-size="9.67741935483871" opacity="1" fill="#000000">
2021-01-03Z
</text>
<polyline fill="none" opacity="1" stroke="#000000" stroke-width="1" points="325,340 325,345 "/>
<text x="457" y="350" dy="0.76em" text-anchor="middle" font-family="sans-serif" font-size="9.67741935483871" opacity="1" fill="#000000">
2021-01-10Z
</text>
<polyline fill="none" opacity="1" stroke="#000000" stroke-width="1" points="457,340 457,345 "/>
<text x="590" y="350" dy="0.76em" text-anchor="middle" font-family="sans-serif" font-size="9.67741935483871" opacity="1" fill="#000000">
2021-01-17Z
</text>
<polyline fill="none" opacity="1" stroke="#000000" stroke-width="1" points="590,340 590,345 "/>
<polyline fill="none" opacity="1" stroke="#E61919" stroke-width="2" points="60,336 60,336 78,336 78,336 97,336 97,330 116,330 116,329 135,329 135,329 154,329 154,329 173,329 173,329 192,329 192,328 211,328 211,328 230,328 230,328 249,328 249,328 268,328 268,328 287,328 287,328 306,328 306,328 325,328 325,328 343,328 343,328 362,328 362,328 381,328 400,328 400,328 419,328 419,327 438,327 438,327 457,327 457,327 476,327 476,327 495,327 495,327 514,327 514,327 533,327 533,327 552,327 552,327 571,327 571,327 590,327 "/>
<polyline fill="none" opacity="1" stroke="#BDE619" stroke-width="2" points="60,252 60,252 78,252 78,252 97,252 97,246 116,246 116,245 135,245 135,244 154,244 154,244 173,244 173,244 192,244 192,244 211,244 211,244 230,244 230,244 249,244 249,244 268,244 268,243 287,243 287,243 306,243 306,243 325,243 325,243 343,243 343,243 362,243 362,242 381,242 400,242 400,242 419,242 419,242 438,242 438,242 457,242 457,242 476,242 476,242 495,242 495,242 514,242 514,241 533,241 533,241 552,241 552,241 571,241 571,241 590,241 "/>
<polyline fill="none" opacity="1" stroke="#19E66B" stroke-width="2" points="60,59 60,58 78,58 78,58 97,58 97,52 116,52 116,51 135,51 135,51 154,51 154,51 173,51 173,50 192,50 192,50 211,50 211,49 230,49 230,49 249,49 249,48 268,48 268,48 287,48 287,47 306,47 306,47 325,47 325,47 343,47 343,46 362,46 362,45 381,45 400,45 400,45 419,45 419,44 438,44 438,44 457,43 457,43 476,43 476,43 495,43 495,43 514,43 514,42 533,42 533,42 552,42 552,41 571,41 571,41 590,41 "/>
<polyline fill="none" opacity="1" stroke="#196BE6" stroke-width="2" points="60,143 60,142 78,142 78,142 97,142 97,137 116,137 116,136 135,136 135,136 154,136 154,136 173,136 173,135 192,135 192,135 211,135 211,135 230,135 230,135 249,135 249,134 268,134 268,134 287,134 287,134 306,134 306,133 325,133 325,133 343,133 343,133 362,133 362,133 381,132 400,132 400,132 419,132 419,132 438,132 438,131 457,131 457,131 476,131 476,131 495,131 495,131 514,131 514,130 533,130 533,130 552,130 552,129 571,129 571,129 590,129 "/>
<polyline fill="none" opacity="1" stroke="#BD19E6" stroke-width="2" points="60,260 60,260 78,260 78,259 97,259 97,254 116,254 116,252 135,252 135,252 154,252 154,252 173,252 173,252 192,252 192,252 211,252 211,251 230,251 230,251 249,251 249,251 268,251 268,251 287,251 287,250 306,250 306,250 325,250 325,250 343,250 343,250 362,250 362,249 381,249 400,249 400,249 419,249 419,248 438,248 438,248 457,248 457,248 476,248 476,248 495,247 495,247 514,247 514,247 533,247 533,246 552,246 552,246 571,246 571,246 590,246 "/>
<rect x="65" y="130" width="105" height="89" opacity="1" fill="#FFFFFF" stroke="none"/>
<rect x="65" y="130" width="105" height="89" opacity="1" fill="none" stroke="#000000"/>
<text x="105" y="140" dy="0.76em" text-anchor="start" font-family="sans-serif" font-size="9.67741935483871" opacity="1" fill="#000000">
async-trait
</text>
<text x="105" y="155" dy="0.76em" text-anchor="start" font-family="sans-serif" font-size="9.67741935483871" opacity="1" fill="#000000">
futures
</text>
<text x="105" y="170" dy="0.76em" text-anchor="start" font-family="sans-serif" font-size="9.67741935483871" opacity="1" fill="#000000">
serde
</text>
<text x="105" y="185" dy="0.76em" text-anchor="start" font-family="sans-serif" font-size="9.67741935483871" opacity="1" fill="#000000">
serde_json
</text>
<text x="105" y="200" dy="0.76em" text-anchor="start" font-family="sans-serif" font-size="9.67741935483871" opacity="1" fill="#000000">
tokio
</text>
<polyline fill="none" opacity="1" stroke="#E61919" stroke-width="2" points="75,145 95,145 "/>
<polyline fill="none" opacity="1" stroke="#BDE619" stroke-width="2" points="75,159 95,159 "/>
<polyline fill="none" opacity="1" stroke="#19E66B" stroke-width="2" points="75,174 95,174 "/>
<polyline fill="none" opacity="1" stroke="#196BE6" stroke-width="2" points="75,190 95,190 "/>
<polyline fill="none" opacity="1" stroke="#BD19E6" stroke-width="2" points="75,204 95,204 "/>
</svg>
