<svg width="600" height="400" viewBox="0 0 600 400" xmlns="http://www.w3.org/2000/svg">
<rect x="0" y="0" width="599" height="399" opacity="1" fill="#FFFFFF" stroke="none"/>
<line opacity="0.1" stroke="#000000" stroke-width="1" x1="60" y1="335" x2="590" y2="335"/>
<line opacity="0.1" stroke="#000000" stroke-width="1" x1="60" y1="330" x2="590" y2="330"/>
<line opacity="0.1" stroke="#000000" stroke-width="1" x1="60" y1="326" x2="590" y2="326"/>
<line opacity="0.1" stroke="#000000" stroke-width="1" x1="60" y1="322" x2="590" y2="322"/>
<line opacity="0.1" stroke="#000000" stroke-width="1" x1="60" y1="317" x2="590" y2="317"/>
<line opacity="0.1" stroke="#000000" stroke-width="1" x1="60" y1="313" x2="590" y2="313"/>
<line opacity="0.1" stroke="#000000" stroke-width="1" x1="60" y1="309" x2="590" y2="309"/>
<line opacity="0.1" stroke="#000000" stroke-width="1" x1="60" y1="304" x2="590" y2="304"/>
<line opacity="0.1" stroke="#000000" stroke-width="1" x1="60" y1="300" x2="590" y2="300"/>
<line opacity="0.1" stroke="#000000" stroke-width="1" x1="60" y1="296" x2="590" y2="296"/>
<line opacity="0.1" stroke="#000000" stroke-width="1" x1="60" y1="292" x2="590" y2="292"/>
<line opacity="0.1" stroke="#000000" stroke-width="1" x1="60" y1="287" x2="590" y2="287"/>
<line opacity="0.1" stroke="#000000" stroke-width="1" x1="60" y1="283" x2="590" y2="283"/>
<line opacity="0.1" stroke="#000000" stroke-width="1" x1="60" y1="279" x2="590" y2="279"/>
<line opacity="0.1" stroke="#000000" stroke-width="1" x1="60" y1="274" x2="590" y2="274"/>
<line opacity="0.1" stroke="#000000" stroke-width="1" x1="60" y1="270" x2="590" y2="270"/>
<line opacity="0.1" stroke="#000000" stroke-width="1" x1="60" y1="266" x2="590" y2="266"/>
<line opacity="0.1" stroke="#000000" stroke-width="1" x1="60" y1="261" x2="590" y2="261"/>
<line opacity="0.1" stroke="#000000" stroke-width="1" x1="60" y1="257" x2="590" y2="257"/>
<line opacity="0.1" stroke="#000000" stroke-width="1" x1="60" y1="253" x2="590" y2="253"/>
<line opacity="0.1" stroke="#000000" stroke-width="1" x1="60" y1="249" x2="590" y2="249"/>
<line opacity="0.1" stroke="#000000" stroke-width="1" x1="60" y1="244" x2="590" y2="244"/>
<line opacity="0.1" stroke="#000000" stroke-width="1" x1="60" y1="240" x2="590" y2="240"/>
<line opacity="0.1" stroke="#000000" stroke-width="1" x1="60" y1="236" x2="590" y2="236"/>
<line opacity="0.1" stroke="#000000" stroke-width="1" x1="60" y1="231" x2="590" y2="231"/>
<line opacity="0.1" stroke="#000000" stroke-width="1" x1="60" y1="227" x2="590" y2="227"/>
<line opacity="0.1" stroke="#000000" stroke-width="1" x1="60" y1="223" x2="590" y2="223"/>
<line opacity="0.1" stroke="#000000" stroke-width="1" x1="60" y1="218" x2="590" y2="218"/>
<line opacity="0.1" stroke="#000000" stroke-width="1" x1="60" y1="214" x2="590" y2="214"/>
<line opacity="0.1" stroke="#000000" stroke-width="1" x1="60" y1="210" x2="590" y2="210"/>
<line opacity="0.1" stroke="#000000" stroke-width="1" x1="60" y1="206" x2="590" y2="206"/>
<line opacity="0.1" stroke="#000000" stroke-width="1" x1="60" y1="201" x2="590" y2="201"/>
<line opacity="0.1" stroke="#000000" stroke-width="1" x1="60" y1="197" x2="590" y2="197"/>
<line opacity="0.1" stroke="#000000" stroke-width="1" x1="60" y1="193" x2="590" y2="193"/>
<line opacity="0.1" stroke="#000000" stroke-width="1" x1="60" y1="188" x2="590" y2="188"/>
<line opacity="0.1" stroke="#000000" stroke-width="1" x1="60" y1="184" x2="590" y2="184"/>
<line opacity="0.1" stroke="#000000" stroke-width="1" x1="60" y1="180" x2="590" y2="180"/>
<line opacity="0.1" stroke="#000000" stroke-width="1" x1="60" y1="175" x2="590" y2="175"/>
<line opacity="0.1" stroke="#000000" stroke-width="1" x1="60" y1="171" x2="590" y2="171"/>
<line opacity="0.1" stroke="#000000" stroke-width="1" x1="60" y1="167" x2="590" y2="167"/>
<line opacity="0.1" stroke="#000000" stroke-width="1" x1="60" y1="163" x2="590" y2="163"/>
<line opacity="0.1" stroke="#000000" stroke-width="1" x1="60" y1="158" x2="590" y2="158"/>
<line opacity="0.1" stroke="#000000" stroke-width="1" x1="60" y1="154" x2="590" y2="154"/>
<line opacity="0.1" stroke="#000000" stroke-width="1" x1="60" y1="150" x2="590" y2="150"/>
<line opacity="0.1" stroke="#000000" stroke-width="1" x1="60" y1="145" x2="590" y2="145"/>
<line opacity="0.1" stroke="#000000" stroke-width="1" x1="60" y1="141" x2="590" y2="141"/>
<line opacity="0.1" stroke="#000000" stroke-width="1" x1="60" y1="137" x2="590" y2="137"/>
<line opacity="0.1" stroke="#000000" stroke-width="1" x1="60" y1="132" x2="590" y2="132"/>
<line opacity="0.1" stroke="#000000" stroke-width="1" x1="60" y1="128" x2="590" y2="128"/>
<line opacity="0.1" stroke="#000000" stroke-width="1" x1="60" y1="124" x2="590" y2="124"/>
<line opacity="0.1" stroke="#000000" stroke-width="1" x1="60" y1="119" x2="590" y2="119"/>
<line opacity="0.1" stroke="#000000" stroke-width="1" x1="60" y1="115" x2="590" y2="115"/>
<line opacity="0.1" stroke="#000000" stroke-width="1" x1="60" y1="111" x2="590" y2="111"/>
<line opacity="0.1" stroke="#000000" stroke-width="1" x1="60" y1="107" x2="590" y2="107"/>
<line opacity="0.1" stroke="#000000" stroke-width="1" x1="60" y1="102" x2="590" y2="102"/>
<line opacity="0.1" stroke="#000000" stroke-width="1" x1="60" y1="98" x2="590" y2="98"/>
<line opacity="0.1" stroke="#000000" stroke-width="1" x1="60" y1="94" x2="590" y2="94"/>
<line opacity="0.1" stroke="#000000" stroke-width="1" x1="60" y1="89" x2="590" y2="89"/>
<line opacity="0.1" stroke="#000000" stroke-width="1" x1="60" y1="85" x2="590" y2="85"/>
<line opacity="0.1" stroke="#000000" stroke-width="1" x1="60" y1="81" x2="590" y2="81"/>
<line opacity="0.1" stroke="#000000" stroke-width="1" x1="60" y1="76" x2="590" y2="76"/>
<line opacity="0.1" stroke="#000000" stroke-width="1" x1="60" y1="72" x2="590" y2="72"/>
<line opacity="0.1" stroke="#000000" stroke-width="1" x1="60" y1="68" x2="590" y2="68"/>
<line opacity="0.1" stroke="#000000" stroke-width="1" x1="60" y1="64" x2="590" y2="64"/>
<line opacity="0.1" stroke="#000000" stroke-width="1" x1="60" y1="59" x2="590" y2="59"/>
<line opacity="0.1" stroke="#000000" stroke-width="1" x1="60" y1="55" x2="590" y2="55"/>
<line opacity="0.1" stroke="#000000" stroke-width="1" x1="60" y1="51" x2="590" y2="51"/>
<line opacity="0.1" stroke="#000000" stroke-width="1" x1="60" y1="46" x2="590" y2="46"/>
<line opacity="0.1" stroke="#000000" stroke-width="1" x1="60" y1="42" x2="590" y2="42"/>
<line opacity="0.1" stroke="#000000" stroke-width="1" x1="60" y1="38" x2="590" y2="38"/>
<line opacity="0.1" stroke="#000000" stroke-width="1" x1="60" y1="33" x2="590" y2="33"/>
<line opacity="0.1" stroke="#000000" stroke-width="1" x1="60" y1="29" x2="590" y2="29"/>
<line opacity="0.1" stroke="#000000" stroke-width="1" x1="60" y1="25" x2="590" y2="25"/>
<line opacity="0.1" stroke="#000000" stroke-width="1" x1="60" y1="21" x2="590" y2="21"/>
<line opacity="0.1" stroke="#000000" stroke-width="1" x1="60" y1="16" x2="590" y2="16"/>
<line opacity="0.1" stroke="#000000" stroke-width="1" x1="60" y1="12" x2="590" y2="12"/>
<text x="10" y="175" dy="0.76em" text-anchor="middle" font-family="sans-serif" font-size="9.67741935483871" opacity="1" fill="#000000" transform="rotate(270, 10, 175)">
Fraction of dependent crates
</text>
<line opacity="0.2" stroke="#000000" stroke-width="1" x1="60" y1="296" x2="590" y2="296"/>
<line opacity="0.2" stroke="#000000" stroke-width="1" x1="60" y1="253" x2="590" y2="253"/>
<line opacity="0.2" stroke="#000000" stroke-width="1" x1="60" y1="210" x2="590" y2="210"/>
<line opacity="0.2" stroke="#000000" stroke-width="1" x1="60" y1="167" x2="590" y2="167"/>
<line opacity="0.2" stroke="#000000" stroke-width="1" x1="60" y1="124" x2="590" y2="124"/>
<line opacity="0.2" stroke="#000000" stroke-width="1" x1="60" y1="81" x2="590" y2="81"/>
<line opacity="0.2" stroke="#000000" stroke-width="1" x1="60" y1="38" x2="590" y2="38"/>
<polyline fill="none" opacity="1" stroke="#000000" stroke-width="1" points="59,10 59,340 "/>
<text x="50" y="296" dy="0.5ex" text-anchor="end" font-family="sans-serif" font-size="9.67741935483871" opacity="1" fill="#000000">
0.01
</text>
<polyline fill="none" opacity="1" stroke="#000000" stroke-width="1" points="54,296 59,296 "/>
<text x="50" y="253" dy="0.5ex" text-anchor="end" font-family="sans-serif" font-size="9.67741935483871" opacity="1" fill="#000000">
0.02
</text>
<polyline fill="none" opacity="1" stroke="#000000" stroke-width="1" points="54,253 59,253 "/>
<text x="50" y="210" dy="0.5ex" text-anchor="end" font-family="sans-serif" font-size="9.67741935483871" opacity="1" fill="#000000">
0.03
</text>
<polyline fill="none" opacity="1" stroke="#000000" stroke-width="1" points="54,210 59,210 "/>
<text x="50" y="167" dy="0.5ex" text-anchor="end" font-family="sans-serif" font-size="9.67741935483871" opacity="1" fill="#000000">
0.04
</text>
<polyline fill="none" opacity="1" stroke="#000000" stroke-width="1" points="54,167 59,167 "/>
<text x="50" y="124" dy="0.5ex" text-anchor="end" font-family="sans-serif" font-size="9.67741935483871" opacity="1" fill="#000000">
0.05
</text>
<polyline fill="none" opacity="1" stroke="#000000" stroke-width="1" points="54,124 59,124 "/>
<text x="50" y="81" dy="0.5ex" text-anchor="end" font-family="sans-serif" font-size="9.67741935483871" opacity="1" fill="#000000">
0.06
</text>
<polyline fill="none" opacity="1" stroke="#000000" stroke-width="1" points="54,81 59,81 "/>
<text x="50" y="38" dy="0.5ex" text-anchor="end" font-family="sans-serif" font-size="9.67741935483871" opacity="1" fill="#000000">
0.07
</text>
<polyline fill="none" opacity="1" stroke="#000000" stroke-width="1" points="54,38 59,38 "/>
<polyline fill="none" opacity="1" stroke="#000000" stroke-width="1" points="60,340 590,340 "/>
<text x="60" y="350" dy="0.76em" text-anchor="middle" font-family="sans-serif" font-size="9.67741935483871" opacity="1" fill="#000000">
2021-02-21Z
</text>
<polyline fill="none" opacity="1" stroke="#000000" stroke-width="1" points="60,340 60,345 "/>
<text x="192" y="350" dy="0.76em" text-anchor="middle" font-family="sans-serif" font-size="9.67741935483871" opacity="1" fill="#000000">
2021-02-28Z
</text>
<polyline fill="none" opacity="1" stroke="#000000" stroke-width="1" points="192,340 192,345 "/>
<text x="325" y="350" dy="0.76em" text-anchor="middle" font-family="sans-serif" font-size="9.67741935483871" opacity="1" fill="#000000">
2021-03-07Z
</text>
<polyline fill="none" opacity="1" stroke="#000000" stroke-width="1" points="325,340 325,345 "/>
<text x="457" y="350" dy="0.76em" text-anchor="middle" font-family="sans-serif" font-size="9.67741935483871" opacity="1" fill="#000000">
2021-03-14Z
</text>
<polyline fill="none" opacity="1" stroke="#000000" stroke-width="1" points="457,340 457,345 "/>
<text x="590" y="350" dy="0.76em" text-anchor="middle" font-family="sans-serif" font-size="9.67741935483871" opacity="1" fill="#000000">
2021-03-21Z
</text>
<polyline fill="none" opacity="1" stroke="#000000" stroke-width="1" points="590,340 590,345 "/>
<polyline fill="none" opacity="1" stroke="#E61919" stroke-width="2" points="60,181 60,181 78,181 78,180 97,180 97,180 116,180 116,179 135,179 135,179 154,179 154,179 173,179 173,179 192,179 192,178 211,178 230,178 230,177 249,177 249,176 268,176 268,175 287,175 287,175 306,175 306,175 325,175 325,175 343,175 343,175 362,175 362,175 381,175 381,175 400,175 400,175 419,175 419,174 438,174 438,174 457,174 457,175 476,175 476,174 495,174 495,174 514,174 514,174 533,174 533,173 552,173 552,173 571,173 571,173 590,173 "/>
<polyline fill="none" opacity="1" stroke="#BDE619" stroke-width="2" points="60,289 60,289 78,289 78,289 97,289 97,289 116,289 116,289 135,289 135,289 154,289 154,289 173,289 173,289 192,289 192,288 211,288 230,288 230,287 249,287 249,287 268,287 268,287 287,287 287,287 306,287 306,287 325,287 325,287 343,287 343,287 362,287 362,287 381,287 381,287 400,287 400,287 419,287 419,287 438,287 438,287 457,287 457,287 476,287 476,287 495,287 495,287 514,287 514,287 533,287 533,287 552,287 552,287 571,287 571,287 590,287 "/>
<polyline fill="none" opacity="1" stroke="#19E66B" stroke-width="2" points="60,168 60,168 78,168 78,168 97,168 97,167 116,167 116,167 135,167 135,167 154,167 154,166 173,166 173,166 192,166 192,165 211,165 230,165 230,165 249,165 249,164 268,164 268,163 287,163 287,163 306,163 306,163 325,163 325,162 343,162 343,163 362,163 362,162 381,162 381,162 400,162 400,162 419,162 419,161 438,161 438,161 457,161 457,161 476,161 476,161 495,161 495,161 514,161 514,160 533,160 533,160 552,160 552,160 571,160 571,159 590,159 "/>
<polyline fill="none" opacity="1" stroke="#196BE6" stroke-width="2" points="60,43 60,43 78,43 78,42 97,42 97,42 116,42 116,42 135,42 135,42 154,42 154,42 173,42 173,41 192,41 192,40 211,40 230,40 230,40 249,40 249,39 268,39 268,39 287,39 287,39 306,39 306,39 325,39 325,39 343,39 343,39 362,39 362,39 381,39 381,40 400,40 400,39 419,40 419,39 438,39 438,39 457,39 457,39 476,39 476,39 495,39 495,39 514,39 514,39 533,39 533,39 552,39 552,39 571,39 571,39 590,39 "/>
<polyline fill="none" opacity="1" stroke="#BD19E6" stroke-width="2" points="60,338 78,338 78,338 116,338 135,338 154,338 192,338 211,337 230,337 230,336 249,336 268,336 268,336 287,336 287,336 306,336 306,336 325,336 325,336 343,335 362,335 381,335 381,335 400,335 419,335 438,335 438,335 457,335 476,335 476,335 495,335 495,335 514,335 533,335 552,335 571,335 571,335 590,335 "/>
<rect x="65" y="129" width="118" height="91" opacity="1" fill="#FFFFFF" stroke="none"/>
<rect x="65" y="129" width="118" height="91" opacity="1" fill="none" stroke="#000000"/>
<text x="105" y="139" dy="0.76em" text-anchor="start" font-family="sans-serif" font-size="9.67741935483871" opacity="1" fill="#000000">
anyhow
</text>
<text x="105" y="154" dy="0.76em" text-anchor="start" font-family="sans-serif" font-size="9.67741935483871" opacity="1" fill="#000000">
parking_lot
</text>
<text x="105" y="169" dy="0.76em" text-anchor="start" font-family="sans-serif" font-size="9.67741935483871" opacity="1" fill="#000000">
thiserror
</text>
<text x="105" y="184" dy="0.76em" text-anchor="start" font-family="sans-serif" font-size="9.67741935483871" opacity="1" fill="#000000">
tokio
</text>
<text x="105" y="199" dy="0.76em" text-anchor="start" font-family="sans-serif" font-size="9.67741935483871" opacity="1" fill="#000000">
vapory-types
</text>
<polyline fill="none" opacity="1" stroke="#E61919" stroke-width="2" points="75,144 95,144 "/>
<polyline fill="none" opacity="1" stroke="#BDE619" stroke-width="2" points="75,159 95,159 "/>
<polyline fill="none" opacity="1" stroke="#19E66B" stroke-width="2" points="75,173 95,173 "/>
<polyline fill="none" opacity="1" stroke="#196BE6" stroke-width="2" points="75,188 95,188 "/>
<polyline fill="none" opacity="1" stroke="#BD19E6" stroke-width="2" points="75,204 95,204 "/>
</svg>
