<svg width="600" height="400" xmlns="http://www.w3.org/2000/svg">
<rect x="0" y="0" width="599" height="399" opacity="1" fill="#FFFFFF" stroke="none"/>
<line opacity="0.1" stroke="#000000" stroke-width="1" x1="60" y1="335" x2="590" y2="335"/>
<line opacity="0.1" stroke="#000000" stroke-width="1" x1="60" y1="332" x2="590" y2="332"/>
<line opacity="0.1" stroke="#000000" stroke-width="1" x1="60" y1="328" x2="590" y2="328"/>
<line opacity="0.1" stroke="#000000" stroke-width="1" x1="60" y1="325" x2="590" y2="325"/>
<line opacity="0.1" stroke="#000000" stroke-width="1" x1="60" y1="321" x2="590" y2="321"/>
<line opacity="0.1" stroke="#000000" stroke-width="1" x1="60" y1="318" x2="590" y2="318"/>
<line opacity="0.1" stroke="#000000" stroke-width="1" x1="60" y1="314" x2="590" y2="314"/>
<line opacity="0.1" stroke="#000000" stroke-width="1" x1="60" y1="311" x2="590" y2="311"/>
<line opacity="0.1" stroke="#000000" stroke-width="1" x1="60" y1="307" x2="590" y2="307"/>
<line opacity="0.1" stroke="#000000" stroke-width="1" x1="60" y1="303" x2="590" y2="303"/>
<line opacity="0.1" stroke="#000000" stroke-width="1" x1="60" y1="300" x2="590" y2="300"/>
<line opacity="0.1" stroke="#000000" stroke-width="1" x1="60" y1="296" x2="590" y2="296"/>
<line opacity="0.1" stroke="#000000" stroke-width="1" x1="60" y1="293" x2="590" y2="293"/>
<line opacity="0.1" stroke="#000000" stroke-width="1" x1="60" y1="289" x2="590" y2="289"/>
<line opacity="0.1" stroke="#000000" stroke-width="1" x1="60" y1="286" x2="590" y2="286"/>
<line opacity="0.1" stroke="#000000" stroke-width="1" x1="60" y1="282" x2="590" y2="282"/>
<line opacity="0.1" stroke="#000000" stroke-width="1" x1="60" y1="279" x2="590" y2="279"/>
<line opacity="0.1" stroke="#000000" stroke-width="1" x1="60" y1="275" x2="590" y2="275"/>
<line opacity="0.1" stroke="#000000" stroke-width="1" x1="60" y1="272" x2="590" y2="272"/>
<line opacity="0.1" stroke="#000000" stroke-width="1" x1="60" y1="268" x2="590" y2="268"/>
<line opacity="0.1" stroke="#000000" stroke-width="1" x1="60" y1="265" x2="590" y2="265"/>
<line opacity="0.1" stroke="#000000" stroke-width="1" x1="60" y1="261" x2="590" y2="261"/>
<line opacity="0.1" stroke="#000000" stroke-width="1" x1="60" y1="258" x2="590" y2="258"/>
<line opacity="0.1" stroke="#000000" stroke-width="1" x1="60" y1="254" x2="590" y2="254"/>
<line opacity="0.1" stroke="#000000" stroke-width="1" x1="60" y1="251" x2="590" y2="251"/>
<line opacity="0.1" stroke="#000000" stroke-width="1" x1="60" y1="247" x2="590" y2="247"/>
<line opacity="0.1" stroke="#000000" stroke-width="1" x1="60" y1="244" x2="590" y2="244"/>
<line opacity="0.1" stroke="#000000" stroke-width="1" x1="60" y1="240" x2="590" y2="240"/>
<line opacity="0.1" stroke="#000000" stroke-width="1" x1="60" y1="237" x2="590" y2="237"/>
<line opacity="0.1" stroke="#000000" stroke-width="1" x1="60" y1="233" x2="590" y2="233"/>
<line opacity="0.1" stroke="#000000" stroke-width="1" x1="60" y1="230" x2="590" y2="230"/>
<line opacity="0.1" stroke="#000000" stroke-width="1" x1="60" y1="226" x2="590" y2="226"/>
<line opacity="0.1" stroke="#000000" stroke-width="1" x1="60" y1="223" x2="590" y2="223"/>
<line opacity="0.1" stroke="#000000" stroke-width="1" x1="60" y1="219" x2="590" y2="219"/>
<line opacity="0.1" stroke="#000000" stroke-width="1" x1="60" y1="216" x2="590" y2="216"/>
<line opacity="0.1" stroke="#000000" stroke-width="1" x1="60" y1="212" x2="590" y2="212"/>
<line opacity="0.1" stroke="#000000" stroke-width="1" x1="60" y1="208" x2="590" y2="208"/>
<line opacity="0.1" stroke="#000000" stroke-width="1" x1="60" y1="205" x2="590" y2="205"/>
<line opacity="0.1" stroke="#000000" stroke-width="1" x1="60" y1="201" x2="590" y2="201"/>
<line opacity="0.1" stroke="#000000" stroke-width="1" x1="60" y1="198" x2="590" y2="198"/>
<line opacity="0.1" stroke="#000000" stroke-width="1" x1="60" y1="194" x2="590" y2="194"/>
<line opacity="0.1" stroke="#000000" stroke-width="1" x1="60" y1="191" x2="590" y2="191"/>
<line opacity="0.1" stroke="#000000" stroke-width="1" x1="60" y1="187" x2="590" y2="187"/>
<line opacity="0.1" stroke="#000000" stroke-width="1" x1="60" y1="184" x2="590" y2="184"/>
<line opacity="0.1" stroke="#000000" stroke-width="1" x1="60" y1="180" x2="590" y2="180"/>
<line opacity="0.1" stroke="#000000" stroke-width="1" x1="60" y1="177" x2="590" y2="177"/>
<line opacity="0.1" stroke="#000000" stroke-width="1" x1="60" y1="173" x2="590" y2="173"/>
<line opacity="0.1" stroke="#000000" stroke-width="1" x1="60" y1="170" x2="590" y2="170"/>
<line opacity="0.1" stroke="#000000" stroke-width="1" x1="60" y1="166" x2="590" y2="166"/>
<line opacity="0.1" stroke="#000000" stroke-width="1" x1="60" y1="163" x2="590" y2="163"/>
<line opacity="0.1" stroke="#000000" stroke-width="1" x1="60" y1="159" x2="590" y2="159"/>
<line opacity="0.1" stroke="#000000" stroke-width="1" x1="60" y1="156" x2="590" y2="156"/>
<line opacity="0.1" stroke="#000000" stroke-width="1" x1="60" y1="152" x2="590" y2="152"/>
<line opacity="0.1" stroke="#000000" stroke-width="1" x1="60" y1="149" x2="590" y2="149"/>
<line opacity="0.1" stroke="#000000" stroke-width="1" x1="60" y1="145" x2="590" y2="145"/>
<line opacity="0.1" stroke="#000000" stroke-width="1" x1="60" y1="142" x2="590" y2="142"/>
<line opacity="0.1" stroke="#000000" stroke-width="1" x1="60" y1="138" x2="590" y2="138"/>
<line opacity="0.1" stroke="#000000" stroke-width="1" x1="60" y1="135" x2="590" y2="135"/>
<line opacity="0.1" stroke="#000000" stroke-width="1" x1="60" y1="131" x2="590" y2="131"/>
<line opacity="0.1" stroke="#000000" stroke-width="1" x1="60" y1="128" x2="590" y2="128"/>
<line opacity="0.1" stroke="#000000" stroke-width="1" x1="60" y1="124" x2="590" y2="124"/>
<line opacity="0.1" stroke="#000000" stroke-width="1" x1="60" y1="121" x2="590" y2="121"/>
<line opacity="0.1" stroke="#000000" stroke-width="1" x1="60" y1="117" x2="590" y2="117"/>
<line opacity="0.1" stroke="#000000" stroke-width="1" x1="60" y1="113" x2="590" y2="113"/>
<line opacity="0.1" stroke="#000000" stroke-width="1" x1="60" y1="110" x2="590" y2="110"/>
<line opacity="0.1" stroke="#000000" stroke-width="1" x1="60" y1="106" x2="590" y2="106"/>
<line opacity="0.1" stroke="#000000" stroke-width="1" x1="60" y1="103" x2="590" y2="103"/>
<line opacity="0.1" stroke="#000000" stroke-width="1" x1="60" y1="99" x2="590" y2="99"/>
<line opacity="0.1" stroke="#000000" stroke-width="1" x1="60" y1="96" x2="590" y2="96"/>
<line opacity="0.1" stroke="#000000" stroke-width="1" x1="60" y1="92" x2="590" y2="92"/>
<line opacity="0.1" stroke="#000000" stroke-width="1" x1="60" y1="89" x2="590" y2="89"/>
<line opacity="0.1" stroke="#000000" stroke-width="1" x1="60" y1="85" x2="590" y2="85"/>
<line opacity="0.1" stroke="#000000" stroke-width="1" x1="60" y1="82" x2="590" y2="82"/>
<line opacity="0.1" stroke="#000000" stroke-width="1" x1="60" y1="78" x2="590" y2="78"/>
<line opacity="0.1" stroke="#000000" stroke-width="1" x1="60" y1="75" x2="590" y2="75"/>
<line opacity="0.1" stroke="#000000" stroke-width="1" x1="60" y1="71" x2="590" y2="71"/>
<line opacity="0.1" stroke="#000000" stroke-width="1" x1="60" y1="68" x2="590" y2="68"/>
<line opacity="0.1" stroke="#000000" stroke-width="1" x1="60" y1="64" x2="590" y2="64"/>
<line opacity="0.1" stroke="#000000" stroke-width="1" x1="60" y1="61" x2="590" y2="61"/>
<line opacity="0.1" stroke="#000000" stroke-width="1" x1="60" y1="57" x2="590" y2="57"/>
<line opacity="0.1" stroke="#000000" stroke-width="1" x1="60" y1="54" x2="590" y2="54"/>
<line opacity="0.1" stroke="#000000" stroke-width="1" x1="60" y1="50" x2="590" y2="50"/>
<line opacity="0.1" stroke="#000000" stroke-width="1" x1="60" y1="47" x2="590" y2="47"/>
<line opacity="0.1" stroke="#000000" stroke-width="1" x1="60" y1="43" x2="590" y2="43"/>
<line opacity="0.1" stroke="#000000" stroke-width="1" x1="60" y1="40" x2="590" y2="40"/>
<line opacity="0.1" stroke="#000000" stroke-width="1" x1="60" y1="36" x2="590" y2="36"/>
<line opacity="0.1" stroke="#000000" stroke-width="1" x1="60" y1="33" x2="590" y2="33"/>
<line opacity="0.1" stroke="#000000" stroke-width="1" x1="60" y1="29" x2="590" y2="29"/>
<line opacity="0.1" stroke="#000000" stroke-width="1" x1="60" y1="26" x2="590" y2="26"/>
<line opacity="0.1" stroke="#000000" stroke-width="1" x1="60" y1="22" x2="590" y2="22"/>
<line opacity="0.1" stroke="#000000" stroke-width="1" x1="60" y1="19" x2="590" y2="19"/>
<line opacity="0.1" stroke="#000000" stroke-width="1" x1="60" y1="15" x2="590" y2="15"/>
<line opacity="0.1" stroke="#000000" stroke-width="1" x1="60" y1="11" x2="590" y2="11"/>
<text x="10" y="175" dy="0.76em" text-anchor="middle" font-family="sans-serif" font-size="9.67741935483871" opacity="1" fill="#000000" transform="rotate(270, 10, 175)">
Fraction of dependent crates
</text>
<line opacity="0.2" stroke="#000000" stroke-width="1" x1="60" y1="314" x2="590" y2="314"/>
<line opacity="0.2" stroke="#000000" stroke-width="1" x1="60" y1="279" x2="590" y2="279"/>
<line opacity="0.2" stroke="#000000" stroke-width="1" x1="60" y1="244" x2="590" y2="244"/>
<line opacity="0.2" stroke="#000000" stroke-width="1" x1="60" y1="208" x2="590" y2="208"/>
<line opacity="0.2" stroke="#000000" stroke-width="1" x1="60" y1="173" x2="590" y2="173"/>
<line opacity="0.2" stroke="#000000" stroke-width="1" x1="60" y1="138" x2="590" y2="138"/>
<line opacity="0.2" stroke="#000000" stroke-width="1" x1="60" y1="103" x2="590" y2="103"/>
<line opacity="0.2" stroke="#000000" stroke-width="1" x1="60" y1="68" x2="590" y2="68"/>
<line opacity="0.2" stroke="#000000" stroke-width="1" x1="60" y1="33" x2="590" y2="33"/>
<polyline fill="none" opacity="1" stroke="#000000" stroke-width="1" points="59,10 59,340 "/>
<text x="50" y="314" dy="0.5ex" text-anchor="end" font-family="sans-serif" font-size="9.67741935483871" opacity="1" fill="#000000">
0.02
</text>
<polyline fill="none" opacity="1" stroke="#000000" stroke-width="1" points="54,314 59,314 "/>
<text x="50" y="279" dy="0.5ex" text-anchor="end" font-family="sans-serif" font-size="9.67741935483871" opacity="1" fill="#000000">
0.04
</text>
<polyline fill="none" opacity="1" stroke="#000000" stroke-width="1" points="54,279 59,279 "/>
<text x="50" y="244" dy="0.5ex" text-anchor="end" font-family="sans-serif" font-size="9.67741935483871" opacity="1" fill="#000000">
0.06
</text>
<polyline fill="none" opacity="1" stroke="#000000" stroke-width="1" points="54,244 59,244 "/>
<text x="50" y="208" dy="0.5ex" text-anchor="end" font-family="sans-serif" font-size="9.67741935483871" opacity="1" fill="#000000">
0.08
</text>
<polyline fill="none" opacity="1" stroke="#000000" stroke-width="1" points="54,208 59,208 "/>
<text x="50" y="173" dy="0.5ex" text-anchor="end" font-family="sans-serif" font-size="9.67741935483871" opacity="1" fill="#000000">
0.1
</text>
<polyline fill="none" opacity="1" stroke="#000000" stroke-width="1" points="54,173 59,173 "/>
<text x="50" y="138" dy="0.5ex" text-anchor="end" font-family="sans-serif" font-size="9.67741935483871" opacity="1" fill="#000000">
0.12
</text>
<polyline fill="none" opacity="1" stroke="#000000" stroke-width="1" points="54,138 59,138 "/>
<text x="50" y="103" dy="0.5ex" text-anchor="end" font-family="sans-serif" font-size="9.67741935483871" opacity="1" fill="#000000">
0.14
</text>
<polyline fill="none" opacity="1" stroke="#000000" stroke-width="1" points="54,103 59,103 "/>
<text x="50" y="68" dy="0.5ex" text-anchor="end" font-family="sans-serif" font-size="9.67741935483871" opacity="1" fill="#000000">
0.16
</text>
<polyline fill="none" opacity="1" stroke="#000000" stroke-width="1" points="54,68 59,68 "/>
<text x="50" y="33" dy="0.5ex" text-anchor="end" font-family="sans-serif" font-size="9.67741935483871" opacity="1" fill="#000000">
0.18
</text>
<polyline fill="none" opacity="1" stroke="#000000" stroke-width="1" points="54,33 59,33 "/>
<polyline fill="none" opacity="1" stroke="#000000" stroke-width="1" points="60,340 590,340 "/>
<text x="60" y="350" dy="0.76em" text-anchor="middle" font-family="sans-serif" font-size="9.67741935483871" opacity="1" fill="#000000">
2020-04-26Z
</text>
<polyline fill="none" opacity="1" stroke="#000000" stroke-width="1" points="60,340 60,345 "/>
<text x="192" y="350" dy="0.76em" text-anchor="middle" font-family="sans-serif" font-size="9.67741935483871" opacity="1" fill="#000000">
2020-05-03Z
</text>
<polyline fill="none" opacity="1" stroke="#000000" stroke-width="1" points="192,340 192,345 "/>
<text x="325" y="350" dy="0.76em" text-anchor="middle" font-family="sans-serif" font-size="9.67741935483871" opacity="1" fill="#000000">
2020-05-10Z
</text>
<polyline fill="none" opacity="1" stroke="#000000" stroke-width="1" points="325,340 325,345 "/>
<text x="457" y="350" dy="0.76em" text-anchor="middle" font-family="sans-serif" font-size="9.67741935483871" opacity="1" fill="#000000">
2020-05-17Z
</text>
<polyline fill="none" opacity="1" stroke="#000000" stroke-width="1" points="457,340 457,345 "/>
<text x="590" y="350" dy="0.76em" text-anchor="middle" font-family="sans-serif" font-size="9.67741935483871" opacity="1" fill="#000000">
2020-05-24Z
</text>
<polyline fill="none" opacity="1" stroke="#000000" stroke-width="1" points="590,340 590,345 "/>
<polyline fill="none" opacity="1" stroke="#E61919" stroke-width="2" points="60,328 60,328 78,328 78,328 97,328 97,328 116,328 116,328 135,328 135,327 154,327 154,327 173,327 173,327 192,327 211,327 211,327 230,327 230,327 249,327 249,326 268,326 268,326 287,326 287,326 306,326 325,326 325,326 343,326 343,326 362,326 362,325 381,325 381,325 400,325 400,325 419,325 419,325 438,325 438,325 457,325 457,324 476,324 476,324 495,324 495,323 514,323 514,323 533,323 533,323 552,323 552,323 571,323 571,322 590,322 "/>
<polyline fill="none" opacity="1" stroke="#BDE619" stroke-width="2" points="60,337 60,337 78,337 78,337 97,337 97,337 116,337 116,337 135,337 135,337 154,337 154,337 173,337 173,337 192,337 211,337 211,337 230,337 230,337 249,337 249,337 268,337 268,337 287,337 287,337 306,337 325,337 325,336 343,336 343,336 362,336 362,336 381,336 381,336 400,336 400,336 419,336 419,336 438,336 438,336 457,336 457,336 476,336 476,336 495,336 495,336 514,336 514,336 533,336 533,336 552,336 552,335 571,335 571,335 590,335 "/>
<polyline fill="none" opacity="1" stroke="#19E66B" stroke-width="2" points="60,41 60,41 78,41 78,41 97,41 97,41 116,41 116,41 135,41 135,41 154,41 154,41 173,41 173,41 192,41 211,41 211,41 230,41 230,41 249,41 249,41 268,41 268,41 287,41 287,41 306,41 325,41 325,41 343,41 343,41 362,41 362,41 381,41 381,40 400,40 400,40 419,40 419,40 438,40 438,40 457,40 457,40 476,40 476,40 495,40 495,40 514,40 514,39 533,39 533,40 552,40 552,40 571,40 571,40 590,40 "/>
<polyline fill="none" opacity="1" stroke="#196BE6" stroke-width="2" points="60,327 60,327 78,327 78,327 97,327 97,327 116,327 116,327 135,327 135,327 154,327 154,327 173,327 173,326 192,326 211,326 211,326 230,326 230,326 249,326 249,326 268,326 268,325 287,325 287,325 306,325 325,325 325,325 343,325 343,325 362,325 362,324 381,324 381,324 400,324 400,324 419,324 419,324 438,324 438,324 457,324 457,324 476,324 476,323 495,323 495,323 514,323 514,322 533,322 533,322 552,322 552,322 571,322 571,322 590,322 "/>
<polyline fill="none" opacity="1" stroke="#BD19E6" stroke-width="2" points="60,265 60,264 78,264 78,264 97,264 97,264 116,264 116,264 135,264 135,263 154,263 154,263 173,263 173,263 192,263 211,263 211,263 230,263 230,263 249,263 249,263 268,263 268,262 287,262 287,262 306,262 325,262 325,262 343,262 343,262 362,262 362,262 381,262 381,262 400,262 400,261 419,261 419,261 438,261 438,261 457,261 457,261 476,261 476,261 495,261 495,261 514,261 514,260 533,260 533,260 552,260 552,260 571,260 571,260 590,260 "/>
<rect x="486" y="130" width="99" height="89" opacity="1" fill="#FFFFFF" stroke="none"/>
<rect x="486" y="130" width="99" height="89" opacity="1" fill="none" stroke="#000000"/>
<text x="526" y="140" dy="0.76em" text-anchor="start" font-family="sans-serif" font-size="9.67741935483871" opacity="1" fill="#000000">
anyhow
</text>
<text x="526" y="155" dy="0.76em" text-anchor="start" font-family="sans-serif" font-size="9.67741935483871" opacity="1" fill="#000000">
async-std
</text>
<text x="526" y="170" dy="0.76em" text-anchor="start" font-family="sans-serif" font-size="9.67741935483871" opacity="1" fill="#000000">
serde
</text>
<text x="526" y="185" dy="0.76em" text-anchor="start" font-family="sans-serif" font-size="9.67741935483871" opacity="1" fill="#000000">
thiserror
</text>
<text x="526" y="200" dy="0.76em" text-anchor="start" font-family="sans-serif" font-size="9.67741935483871" opacity="1" fill="#000000">
tokio
</text>
<polyline fill="none" opacity="1" stroke="#E61919" stroke-width="2" points="496,145 516,145 "/>
<polyline fill="none" opacity="1" stroke="#BDE619" stroke-width="2" points="496,160 516,160 "/>
<polyline fill="none" opacity="1" stroke="#19E66B" stroke-width="2" points="496,174 516,174 "/>
<polyline fill="none" opacity="1" stroke="#196BE6" stroke-width="2" points="496,189 516,189 "/>
<polyline fill="none" opacity="1" stroke="#BD19E6" stroke-width="2" points="496,204 516,204 "/>
</svg>
