<svg width="600" height="400" viewBox="0 0 600 400" xmlns="http://www.w3.org/2000/svg">
<rect x="0" y="0" width="600" height="400" opacity="1" fill="#FFFFFF" stroke="none"/>
<line opacity="0.1" stroke="#000000" stroke-width="1" x1="60" y1="338" x2="589" y2="338"/>
<line opacity="0.1" stroke="#000000" stroke-width="1" x1="60" y1="334" x2="589" y2="334"/>
<line opacity="0.1" stroke="#000000" stroke-width="1" x1="60" y1="329" x2="589" y2="329"/>
<line opacity="0.1" stroke="#000000" stroke-width="1" x1="60" y1="325" x2="589" y2="325"/>
<line opacity="0.1" stroke="#000000" stroke-width="1" x1="60" y1="320" x2="589" y2="320"/>
<line opacity="0.1" stroke="#000000" stroke-width="1" x1="60" y1="316" x2="589" y2="316"/>
<line opacity="0.1" stroke="#000000" stroke-width="1" x1="60" y1="311" x2="589" y2="311"/>
<line opacity="0.1" stroke="#000000" stroke-width="1" x1="60" y1="307" x2="589" y2="307"/>
<line opacity="0.1" stroke="#000000" stroke-width="1" x1="60" y1="302" x2="589" y2="302"/>
<line opacity="0.1" stroke="#000000" stroke-width="1" x1="60" y1="298" x2="589" y2="298"/>
<line opacity="0.1" stroke="#000000" stroke-width="1" x1="60" y1="294" x2="589" y2="294"/>
<line opacity="0.1" stroke="#000000" stroke-width="1" x1="60" y1="289" x2="589" y2="289"/>
<line opacity="0.1" stroke="#000000" stroke-width="1" x1="60" y1="285" x2="589" y2="285"/>
<line opacity="0.1" stroke="#000000" stroke-width="1" x1="60" y1="280" x2="589" y2="280"/>
<line opacity="0.1" stroke="#000000" stroke-width="1" x1="60" y1="276" x2="589" y2="276"/>
<line opacity="0.1" stroke="#000000" stroke-width="1" x1="60" y1="271" x2="589" y2="271"/>
<line opacity="0.1" stroke="#000000" stroke-width="1" x1="60" y1="267" x2="589" y2="267"/>
<line opacity="0.1" stroke="#000000" stroke-width="1" x1="60" y1="262" x2="589" y2="262"/>
<line opacity="0.1" stroke="#000000" stroke-width="1" x1="60" y1="258" x2="589" y2="258"/>
<line opacity="0.1" stroke="#000000" stroke-width="1" x1="60" y1="253" x2="589" y2="253"/>
<line opacity="0.1" stroke="#000000" stroke-width="1" x1="60" y1="249" x2="589" y2="249"/>
<line opacity="0.1" stroke="#000000" stroke-width="1" x1="60" y1="245" x2="589" y2="245"/>
<line opacity="0.1" stroke="#000000" stroke-width="1" x1="60" y1="240" x2="589" y2="240"/>
<line opacity="0.1" stroke="#000000" stroke-width="1" x1="60" y1="236" x2="589" y2="236"/>
<line opacity="0.1" stroke="#000000" stroke-width="1" x1="60" y1="231" x2="589" y2="231"/>
<line opacity="0.1" stroke="#000000" stroke-width="1" x1="60" y1="227" x2="589" y2="227"/>
<line opacity="0.1" stroke="#000000" stroke-width="1" x1="60" y1="222" x2="589" y2="222"/>
<line opacity="0.1" stroke="#000000" stroke-width="1" x1="60" y1="218" x2="589" y2="218"/>
<line opacity="0.1" stroke="#000000" stroke-width="1" x1="60" y1="213" x2="589" y2="213"/>
<line opacity="0.1" stroke="#000000" stroke-width="1" x1="60" y1="209" x2="589" y2="209"/>
<line opacity="0.1" stroke="#000000" stroke-width="1" x1="60" y1="204" x2="589" y2="204"/>
<line opacity="0.1" stroke="#000000" stroke-width="1" x1="60" y1="200" x2="589" y2="200"/>
<line opacity="0.1" stroke="#000000" stroke-width="1" x1="60" y1="196" x2="589" y2="196"/>
<line opacity="0.1" stroke="#000000" stroke-width="1" x1="60" y1="191" x2="589" y2="191"/>
<line opacity="0.1" stroke="#000000" stroke-width="1" x1="60" y1="187" x2="589" y2="187"/>
<line opacity="0.1" stroke="#000000" stroke-width="1" x1="60" y1="182" x2="589" y2="182"/>
<line opacity="0.1" stroke="#000000" stroke-width="1" x1="60" y1="178" x2="589" y2="178"/>
<line opacity="0.1" stroke="#000000" stroke-width="1" x1="60" y1="173" x2="589" y2="173"/>
<line opacity="0.1" stroke="#000000" stroke-width="1" x1="60" y1="169" x2="589" y2="169"/>
<line opacity="0.1" stroke="#000000" stroke-width="1" x1="60" y1="164" x2="589" y2="164"/>
<line opacity="0.1" stroke="#000000" stroke-width="1" x1="60" y1="160" x2="589" y2="160"/>
<line opacity="0.1" stroke="#000000" stroke-width="1" x1="60" y1="156" x2="589" y2="156"/>
<line opacity="0.1" stroke="#000000" stroke-width="1" x1="60" y1="151" x2="589" y2="151"/>
<line opacity="0.1" stroke="#000000" stroke-width="1" x1="60" y1="147" x2="589" y2="147"/>
<line opacity="0.1" stroke="#000000" stroke-width="1" x1="60" y1="142" x2="589" y2="142"/>
<line opacity="0.1" stroke="#000000" stroke-width="1" x1="60" y1="138" x2="589" y2="138"/>
<line opacity="0.1" stroke="#000000" stroke-width="1" x1="60" y1="133" x2="589" y2="133"/>
<line opacity="0.1" stroke="#000000" stroke-width="1" x1="60" y1="129" x2="589" y2="129"/>
<line opacity="0.1" stroke="#000000" stroke-width="1" x1="60" y1="124" x2="589" y2="124"/>
<line opacity="0.1" stroke="#000000" stroke-width="1" x1="60" y1="120" x2="589" y2="120"/>
<line opacity="0.1" stroke="#000000" stroke-width="1" x1="60" y1="115" x2="589" y2="115"/>
<line opacity="0.1" stroke="#000000" stroke-width="1" x1="60" y1="111" x2="589" y2="111"/>
<line opacity="0.1" stroke="#000000" stroke-width="1" x1="60" y1="107" x2="589" y2="107"/>
<line opacity="0.1" stroke="#000000" stroke-width="1" x1="60" y1="102" x2="589" y2="102"/>
<line opacity="0.1" stroke="#000000" stroke-width="1" x1="60" y1="98" x2="589" y2="98"/>
<line opacity="0.1" stroke="#000000" stroke-width="1" x1="60" y1="93" x2="589" y2="93"/>
<line opacity="0.1" stroke="#000000" stroke-width="1" x1="60" y1="89" x2="589" y2="89"/>
<line opacity="0.1" stroke="#000000" stroke-width="1" x1="60" y1="84" x2="589" y2="84"/>
<line opacity="0.1" stroke="#000000" stroke-width="1" x1="60" y1="80" x2="589" y2="80"/>
<line opacity="0.1" stroke="#000000" stroke-width="1" x1="60" y1="75" x2="589" y2="75"/>
<line opacity="0.1" stroke="#000000" stroke-width="1" x1="60" y1="71" x2="589" y2="71"/>
<line opacity="0.1" stroke="#000000" stroke-width="1" x1="60" y1="67" x2="589" y2="67"/>
<line opacity="0.1" stroke="#000000" stroke-width="1" x1="60" y1="62" x2="589" y2="62"/>
<line opacity="0.1" stroke="#000000" stroke-width="1" x1="60" y1="58" x2="589" y2="58"/>
<line opacity="0.1" stroke="#000000" stroke-width="1" x1="60" y1="53" x2="589" y2="53"/>
<line opacity="0.1" stroke="#000000" stroke-width="1" x1="60" y1="49" x2="589" y2="49"/>
<line opacity="0.1" stroke="#000000" stroke-width="1" x1="60" y1="44" x2="589" y2="44"/>
<line opacity="0.1" stroke="#000000" stroke-width="1" x1="60" y1="40" x2="589" y2="40"/>
<line opacity="0.1" stroke="#000000" stroke-width="1" x1="60" y1="35" x2="589" y2="35"/>
<line opacity="0.1" stroke="#000000" stroke-width="1" x1="60" y1="31" x2="589" y2="31"/>
<line opacity="0.1" stroke="#000000" stroke-width="1" x1="60" y1="26" x2="589" y2="26"/>
<line opacity="0.1" stroke="#000000" stroke-width="1" x1="60" y1="22" x2="589" y2="22"/>
<line opacity="0.1" stroke="#000000" stroke-width="1" x1="60" y1="18" x2="589" y2="18"/>
<line opacity="0.1" stroke="#000000" stroke-width="1" x1="60" y1="13" x2="589" y2="13"/>
<text x="10" y="175" dy="0.76em" text-anchor="middle" font-family="sans-serif" font-size="9.67741935483871" opacity="1" fill="#000000" transform="rotate(270, 10, 175)">
Number of dependent crates
</text>
<line opacity="0.2" stroke="#000000" stroke-width="1" x1="60" y1="298" x2="589" y2="298"/>
<line opacity="0.2" stroke="#000000" stroke-width="1" x1="60" y1="253" x2="589" y2="253"/>
<line opacity="0.2" stroke="#000000" stroke-width="1" x1="60" y1="209" x2="589" y2="209"/>
<line opacity="0.2" stroke="#000000" stroke-width="1" x1="60" y1="164" x2="589" y2="164"/>
<line opacity="0.2" stroke="#000000" stroke-width="1" x1="60" y1="120" x2="589" y2="120"/>
<line opacity="0.2" stroke="#000000" stroke-width="1" x1="60" y1="75" x2="589" y2="75"/>
<line opacity="0.2" stroke="#000000" stroke-width="1" x1="60" y1="31" x2="589" y2="31"/>
<polyline fill="none" opacity="1" stroke="#000000" stroke-width="1" points="59,10 59,339 "/>
<text x="50" y="298" dy="0.5ex" text-anchor="end" font-family="sans-serif" font-size="9.67741935483871" opacity="1" fill="#000000">
25000
</text>
<polyline fill="none" opacity="1" stroke="#000000" stroke-width="1" points="54,298 59,298 "/>
<text x="50" y="253" dy="0.5ex" text-anchor="end" font-family="sans-serif" font-size="9.67741935483871" opacity="1" fill="#000000">
30000
</text>
<polyline fill="none" opacity="1" stroke="#000000" stroke-width="1" points="54,253 59,253 "/>
<text x="50" y="209" dy="0.5ex" text-anchor="end" font-family="sans-serif" font-size="9.67741935483871" opacity="1" fill="#000000">
35000
</text>
<polyline fill="none" opacity="1" stroke="#000000" stroke-width="1" points="54,209 59,209 "/>
<text x="50" y="164" dy="0.5ex" text-anchor="end" font-family="sans-serif" font-size="9.67741935483871" opacity="1" fill="#000000">
40000
</text>
<polyline fill="none" opacity="1" stroke="#000000" stroke-width="1" points="54,164 59,164 "/>
<text x="50" y="120" dy="0.5ex" text-anchor="end" font-family="sans-serif" font-size="9.67741935483871" opacity="1" fill="#000000">
45000
</text>
<polyline fill="none" opacity="1" stroke="#000000" stroke-width="1" points="54,120 59,120 "/>
<text x="50" y="75" dy="0.5ex" text-anchor="end" font-family="sans-serif" font-size="9.67741935483871" opacity="1" fill="#000000">
50000
</text>
<polyline fill="none" opacity="1" stroke="#000000" stroke-width="1" points="54,75 59,75 "/>
<text x="50" y="31" dy="0.5ex" text-anchor="end" font-family="sans-serif" font-size="9.67741935483871" opacity="1" fill="#000000">
55000
</text>
<polyline fill="none" opacity="1" stroke="#000000" stroke-width="1" points="54,31 59,31 "/>
<polyline fill="none" opacity="1" stroke="#000000" stroke-width="1" points="60,340 589,340 "/>
<text x="60" y="350" dy="0.76em" text-anchor="middle" font-family="sans-serif" font-size="9.67741935483871" opacity="1" fill="#000000">
2025-09-14
</text>
<polyline fill="none" opacity="1" stroke="#000000" stroke-width="1" points="60,340 60,345 "/>
<text x="192" y="350" dy="0.76em" text-anchor="middle" font-family="sans-serif" font-size="9.67741935483871" opacity="1" fill="#000000">
2025-09-21
</text>
<polyline fill="none" opacity="1" stroke="#000000" stroke-width="1" points="192,340 192,345 "/>
<text x="324" y="350" dy="0.76em" text-anchor="middle" font-family="sans-serif" font-size="9.67741935483871" opacity="1" fill="#000000">
2025-09-28
</text>
<polyline fill="none" opacity="1" stroke="#000000" stroke-width="1" points="324,340 324,345 "/>
<text x="456" y="350" dy="0.76em" text-anchor="middle" font-family="sans-serif" font-size="9.67741935483871" opacity="1" fill="#000000">
2025-10-05
</text>
<polyline fill="none" opacity="1" stroke="#000000" stroke-width="1" points="456,340 456,345 "/>
<text x="589" y="350" dy="0.76em" text-anchor="middle" font-family="sans-serif" font-size="9.67741935483871" opacity="1" fill="#000000">
2025-10-12
</text>
<polyline fill="none" opacity="1" stroke="#000000" stroke-width="1" points="589,340 589,345 "/>
<polyline fill="none" opacity="1" stroke="#E61919" stroke-width="2" points="60,319 60,319 78,319 78,319 97,319 97,319 116,319 116,318 135,318 135,318 154,318 154,318 173,318 173,317 192,317 192,317 211,317 211,317 230,317 230,317 248,317 248,316 267,316 267,316 286,316 286,316 305,316 305,316 324,316 324,316 343,316 343,315 362,315 362,315 381,315 381,315 400,315 400,315 418,315 418,314 437,314 437,314 456,314 456,314 475,314 475,314 494,314 494,313 513,313 513,313 532,313 532,313 551,313 551,313 570,313 570,312 589,312 "/>
<polyline fill="none" opacity="1" stroke="#BDE619" stroke-width="2" points="60,70 60,69 78,69 78,69 97,69 97,68 116,68 116,68 135,68 135,67 154,67 154,67 173,67 173,66 192,66 192,66 211,66 211,65 230,65 230,65 248,65 248,64 267,64 267,64 286,64 286,64 305,64 305,63 324,63 324,63 343,63 343,63 362,63 362,62 381,62 381,62 400,62 400,61 418,61 418,61 437,61 437,61 456,61 456,60 475,60 475,60 494,60 494,59 513,59 513,59 532,59 532,58 551,58 551,58 570,58 570,57 589,57 "/>
<polyline fill="none" opacity="1" stroke="#19E66B" stroke-width="2" points="60,183 60,182 78,182 78,182 97,182 97,181 116,181 116,181 135,181 135,180 154,180 154,180 173,180 173,180 192,180 192,179 211,179 211,179 230,179 230,178 248,178 248,178 267,178 267,178 286,178 286,177 305,177 305,177 324,177 324,177 343,177 343,176 362,176 362,176 381,176 381,176 400,176 400,175 418,175 418,175 437,175 437,175 456,175 456,174 475,174 475,174 494,174 494,173 513,173 513,173 532,173 532,172 551,172 551,172 570,172 570,171 589,171 "/>
<polyline fill="none" opacity="1" stroke="#196BE6" stroke-width="2" points="60,295 60,295 78,295 78,295 97,295 97,294 116,294 116,294 135,294 135,294 154,294 154,293 173,293 173,293 192,293 192,293 211,293 211,292 230,292 230,292 248,292 248,292 267,292 267,292 286,292 286,291 305,291 305,291 324,291 324,291 343,291 343,290 362,290 362,290 381,290 381,290 400,290 400,289 418,289 418,289 437,289 437,289 456,289 456,289 475,289 475,288 494,288 494,288 513,288 513,288 532,288 532,287 551,287 551,287 570,287 570,286 589,286 "/>
<polyline fill="none" opacity="1" stroke="#BD19E6" stroke-width="2" points="60,227 60,227 78,227 78,227 97,227 97,226 116,226 116,226 135,226 135,225 154,225 154,225 173,225 173,224 192,224 192,224 211,224 211,224 230,224 230,223 248,223 248,223 267,223 267,223 286,223 286,222 305,222 305,222 324,222 324,222 343,222 343,221 362,221 362,221 381,221 381,221 400,221 400,221 418,221 418,220 437,220 437,220 456,220 456,219 475,219 475,219 494,219 494,219 513,219 513,218 532,218 532,217 551,217 551,217 570,217 570,216 589,216 "/>
<rect x="65" y="130" width="101" height="89" opacity="1" fill="#FFFFFF" stroke="none"/>
<rect x="65" y="130" width="101" height="89" opacity="1" fill="none" stroke="#000000"/>
<text x="105" y="140" dy="0.76em" text-anchor="start" font-family="sans-serif" font-size="9.67741935483871" opacity="1" fill="#000000">
anyhow
</text>
<text x="105" y="155" dy="0.76em" text-anchor="start" font-family="sans-serif" font-size="9.67741935483871" opacity="1" fill="#000000">
serde
</text>
<text x="105" y="170" dy="0.76em" text-anchor="start" font-family="sans-serif" font-size="9.67741935483871" opacity="1" fill="#000000">
serde_json
</text>
<text x="105" y="185" dy="0.76em" text-anchor="start" font-family="sans-serif" font-size="9.67741935483871" opacity="1" fill="#000000">
thiserror
</text>
<text x="105" y="200" dy="0.76em" text-anchor="start" font-family="sans-serif" font-size="9.67741935483871" opacity="1" fill="#000000">
tokio
</text>
<polyline fill="none" opacity="1" stroke="#E61919" stroke-width="2" points="75,144 95,144 "/>
<polyline fill="none" opacity="1" stroke="#BDE619" stroke-width="2" points="75,159 95,159 "/>
<polyline fill="none" opacity="1" stroke="#19E66B" stroke-width="2" points="75,174 95,174 "/>
<polyline fill="none" opacity="1" stroke="#196BE6" stroke-width="2" points="75,189 95,189 "/>
<polyline fill="none" opacity="1" stroke="#BD19E6" stroke-width="2" points="75,204 95,204 "/>
</svg>
