<svg width="600" height="400" viewBox="0 0 600 400" xmlns="http://www.w3.org/2000/svg">
<rect x="0" y="0" width="600" height="400" opacity="1" fill="#FFFFFF" stroke="none"/>
<line opacity="0.1" stroke="#000000" stroke-width="1" x1="60" y1="335" x2="589" y2="335"/>
<line opacity="0.1" stroke="#000000" stroke-width="1" x1="60" y1="330" x2="589" y2="330"/>
<line opacity="0.1" stroke="#000000" stroke-width="1" x1="60" y1="325" x2="589" y2="325"/>
<line opacity="0.1" stroke="#000000" stroke-width="1" x1="60" y1="320" x2="589" y2="320"/>
<line opacity="0.1" stroke="#000000" stroke-width="1" x1="60" y1="315" x2="589" y2="315"/>
<line opacity="0.1" stroke="#000000" stroke-width="1" x1="60" y1="310" x2="589" y2="310"/>
<line opacity="0.1" stroke="#000000" stroke-width="1" x1="60" y1="305" x2="589" y2="305"/>
<line opacity="0.1" stroke="#000000" stroke-width="1" x1="60" y1="300" x2="589" y2="300"/>
<line opacity="0.1" stroke="#000000" stroke-width="1" x1="60" y1="295" x2="589" y2="295"/>
<line opacity="0.1" stroke="#000000" stroke-width="1" x1="60" y1="290" x2="589" y2="290"/>
<line opacity="0.1" stroke="#000000" stroke-width="1" x1="60" y1="285" x2="589" y2="285"/>
<line opacity="0.1" stroke="#000000" stroke-width="1" x1="60" y1="280" x2="589" y2="280"/>
<line opacity="0.1" stroke="#000000" stroke-width="1" x1="60" y1="275" x2="589" y2="275"/>
<line opacity="0.1" stroke="#000000" stroke-width="1" x1="60" y1="270" x2="589" y2="270"/>
<line opacity="0.1" stroke="#000000" stroke-width="1" x1="60" y1="264" x2="589" y2="264"/>
<line opacity="0.1" stroke="#000000" stroke-width="1" x1="60" y1="259" x2="589" y2="259"/>
<line opacity="0.1" stroke="#000000" stroke-width="1" x1="60" y1="254" x2="589" y2="254"/>
<line opacity="0.1" stroke="#000000" stroke-width="1" x1="60" y1="249" x2="589" y2="249"/>
<line opacity="0.1" stroke="#000000" stroke-width="1" x1="60" y1="244" x2="589" y2="244"/>
<line opacity="0.1" stroke="#000000" stroke-width="1" x1="60" y1="239" x2="589" y2="239"/>
<line opacity="0.1" stroke="#000000" stroke-width="1" x1="60" y1="234" x2="589" y2="234"/>
<line opacity="0.1" stroke="#000000" stroke-width="1" x1="60" y1="229" x2="589" y2="229"/>
<line opacity="0.1" stroke="#000000" stroke-width="1" x1="60" y1="224" x2="589" y2="224"/>
<line opacity="0.1" stroke="#000000" stroke-width="1" x1="60" y1="219" x2="589" y2="219"/>
<line opacity="0.1" stroke="#000000" stroke-width="1" x1="60" y1="214" x2="589" y2="214"/>
<line opacity="0.1" stroke="#000000" stroke-width="1" x1="60" y1="209" x2="589" y2="209"/>
<line opacity="0.1" stroke="#000000" stroke-width="1" x1="60" y1="204" x2="589" y2="204"/>
<line opacity="0.1" stroke="#000000" stroke-width="1" x1="60" y1="199" x2="589" y2="199"/>
<line opacity="0.1" stroke="#000000" stroke-width="1" x1="60" y1="194" x2="589" y2="194"/>
<line opacity="0.1" stroke="#000000" stroke-width="1" x1="60" y1="189" x2="589" y2="189"/>
<line opacity="0.1" stroke="#000000" stroke-width="1" x1="60" y1="184" x2="589" y2="184"/>
<line opacity="0.1" stroke="#000000" stroke-width="1" x1="60" y1="179" x2="589" y2="179"/>
<line opacity="0.1" stroke="#000000" stroke-width="1" x1="60" y1="174" x2="589" y2="174"/>
<line opacity="0.1" stroke="#000000" stroke-width="1" x1="60" y1="169" x2="589" y2="169"/>
<line opacity="0.1" stroke="#000000" stroke-width="1" x1="60" y1="163" x2="589" y2="163"/>
<line opacity="0.1" stroke="#000000" stroke-width="1" x1="60" y1="158" x2="589" y2="158"/>
<line opacity="0.1" stroke="#000000" stroke-width="1" x1="60" y1="153" x2="589" y2="153"/>
<line opacity="0.1" stroke="#000000" stroke-width="1" x1="60" y1="148" x2="589" y2="148"/>
<line opacity="0.1" stroke="#000000" stroke-width="1" x1="60" y1="143" x2="589" y2="143"/>
<line opacity="0.1" stroke="#000000" stroke-width="1" x1="60" y1="138" x2="589" y2="138"/>
<line opacity="0.1" stroke="#000000" stroke-width="1" x1="60" y1="133" x2="589" y2="133"/>
<line opacity="0.1" stroke="#000000" stroke-width="1" x1="60" y1="128" x2="589" y2="128"/>
<line opacity="0.1" stroke="#000000" stroke-width="1" x1="60" y1="123" x2="589" y2="123"/>
<line opacity="0.1" stroke="#000000" stroke-width="1" x1="60" y1="118" x2="589" y2="118"/>
<line opacity="0.1" stroke="#000000" stroke-width="1" x1="60" y1="113" x2="589" y2="113"/>
<line opacity="0.1" stroke="#000000" stroke-width="1" x1="60" y1="108" x2="589" y2="108"/>
<line opacity="0.1" stroke="#000000" stroke-width="1" x1="60" y1="103" x2="589" y2="103"/>
<line opacity="0.1" stroke="#000000" stroke-width="1" x1="60" y1="98" x2="589" y2="98"/>
<line opacity="0.1" stroke="#000000" stroke-width="1" x1="60" y1="93" x2="589" y2="93"/>
<line opacity="0.1" stroke="#000000" stroke-width="1" x1="60" y1="88" x2="589" y2="88"/>
<line opacity="0.1" stroke="#000000" stroke-width="1" x1="60" y1="83" x2="589" y2="83"/>
<line opacity="0.1" stroke="#000000" stroke-width="1" x1="60" y1="78" x2="589" y2="78"/>
<line opacity="0.1" stroke="#000000" stroke-width="1" x1="60" y1="73" x2="589" y2="73"/>
<line opacity="0.1" stroke="#000000" stroke-width="1" x1="60" y1="68" x2="589" y2="68"/>
<line opacity="0.1" stroke="#000000" stroke-width="1" x1="60" y1="62" x2="589" y2="62"/>
<line opacity="0.1" stroke="#000000" stroke-width="1" x1="60" y1="57" x2="589" y2="57"/>
<line opacity="0.1" stroke="#000000" stroke-width="1" x1="60" y1="52" x2="589" y2="52"/>
<line opacity="0.1" stroke="#000000" stroke-width="1" x1="60" y1="47" x2="589" y2="47"/>
<line opacity="0.1" stroke="#000000" stroke-width="1" x1="60" y1="42" x2="589" y2="42"/>
<line opacity="0.1" stroke="#000000" stroke-width="1" x1="60" y1="37" x2="589" y2="37"/>
<line opacity="0.1" stroke="#000000" stroke-width="1" x1="60" y1="32" x2="589" y2="32"/>
<line opacity="0.1" stroke="#000000" stroke-width="1" x1="60" y1="27" x2="589" y2="27"/>
<line opacity="0.1" stroke="#000000" stroke-width="1" x1="60" y1="22" x2="589" y2="22"/>
<line opacity="0.1" stroke="#000000" stroke-width="1" x1="60" y1="17" x2="589" y2="17"/>
<line opacity="0.1" stroke="#000000" stroke-width="1" x1="60" y1="12" x2="589" y2="12"/>
<text x="10" y="175" dy="0.76em" text-anchor="middle" font-family="sans-serif" font-size="9.67741935483871" opacity="1" fill="#000000" transform="rotate(270, 10, 175)">
Number of dependent crates
</text>
<line opacity="0.2" stroke="#000000" stroke-width="1" x1="60" y1="310" x2="589" y2="310"/>
<line opacity="0.2" stroke="#000000" stroke-width="1" x1="60" y1="259" x2="589" y2="259"/>
<line opacity="0.2" stroke="#000000" stroke-width="1" x1="60" y1="209" x2="589" y2="209"/>
<line opacity="0.2" stroke="#000000" stroke-width="1" x1="60" y1="158" x2="589" y2="158"/>
<line opacity="0.2" stroke="#000000" stroke-width="1" x1="60" y1="108" x2="589" y2="108"/>
<line opacity="0.2" stroke="#000000" stroke-width="1" x1="60" y1="57" x2="589" y2="57"/>
<polyline fill="none" opacity="1" stroke="#000000" stroke-width="1" points="59,10 59,339 "/>
<text x="50" y="310" dy="0.5ex" text-anchor="end" font-family="sans-serif" font-size="9.67741935483871" opacity="1" fill="#000000">
20000
</text>
<polyline fill="none" opacity="1" stroke="#000000" stroke-width="1" points="54,310 59,310 "/>
<text x="50" y="259" dy="0.5ex" text-anchor="end" font-family="sans-serif" font-size="9.67741935483871" opacity="1" fill="#000000">
25000
</text>
<polyline fill="none" opacity="1" stroke="#000000" stroke-width="1" points="54,259 59,259 "/>
<text x="50" y="209" dy="0.5ex" text-anchor="end" font-family="sans-serif" font-size="9.67741935483871" opacity="1" fill="#000000">
30000
</text>
<polyline fill="none" opacity="1" stroke="#000000" stroke-width="1" points="54,209 59,209 "/>
<text x="50" y="158" dy="0.5ex" text-anchor="end" font-family="sans-serif" font-size="9.67741935483871" opacity="1" fill="#000000">
35000
</text>
<polyline fill="none" opacity="1" stroke="#000000" stroke-width="1" points="54,158 59,158 "/>
<text x="50" y="108" dy="0.5ex" text-anchor="end" font-family="sans-serif" font-size="9.67741935483871" opacity="1" fill="#000000">
40000
</text>
<polyline fill="none" opacity="1" stroke="#000000" stroke-width="1" points="54,108 59,108 "/>
<text x="50" y="57" dy="0.5ex" text-anchor="end" font-family="sans-serif" font-size="9.67741935483871" opacity="1" fill="#000000">
45000
</text>
<polyline fill="none" opacity="1" stroke="#000000" stroke-width="1" points="54,57 59,57 "/>
<polyline fill="none" opacity="1" stroke="#000000" stroke-width="1" points="60,340 589,340 "/>
<text x="60" y="350" dy="0.76em" text-anchor="middle" font-family="sans-serif" font-size="9.67741935483871" opacity="1" fill="#000000">
2025-04-13
</text>
<polyline fill="none" opacity="1" stroke="#000000" stroke-width="1" points="60,340 60,345 "/>
<text x="192" y="350" dy="0.76em" text-anchor="middle" font-family="sans-serif" font-size="9.67741935483871" opacity="1" fill="#000000">
2025-04-20
</text>
<polyline fill="none" opacity="1" stroke="#000000" stroke-width="1" points="192,340 192,345 "/>
<text x="324" y="350" dy="0.76em" text-anchor="middle" font-family="sans-serif" font-size="9.67741935483871" opacity="1" fill="#000000">
2025-04-27
</text>
<polyline fill="none" opacity="1" stroke="#000000" stroke-width="1" points="324,340 324,345 "/>
<text x="456" y="350" dy="0.76em" text-anchor="middle" font-family="sans-serif" font-size="9.67741935483871" opacity="1" fill="#000000">
2025-05-04
</text>
<polyline fill="none" opacity="1" stroke="#000000" stroke-width="1" points="456,340 456,345 "/>
<text x="589" y="350" dy="0.76em" text-anchor="middle" font-family="sans-serif" font-size="9.67741935483871" opacity="1" fill="#000000">
2025-05-11
</text>
<polyline fill="none" opacity="1" stroke="#000000" stroke-width="1" points="589,340 589,345 "/>
<polyline fill="none" opacity="1" stroke="#E61919" stroke-width="2" points="60,320 60,320 78,320 78,320 97,320 97,320 116,320 116,320 135,320 135,319 154,319 154,319 173,319 173,319 192,319 192,319 211,319 211,318 230,318 230,318 248,318 248,318 267,318 267,318 286,318 286,318 305,318 305,318 324,318 324,318 343,318 343,317 362,317 362,317 381,317 381,317 400,317 400,317 418,317 418,316 437,316 437,316 456,316 456,316 475,316 475,316 494,316 494,316 513,316 513,316 532,316 532,316 551,316 551,315 570,315 570,315 589,315 "/>
<polyline fill="none" opacity="1" stroke="#BDE619" stroke-width="2" points="60,67 60,67 78,67 78,66 97,66 97,66 116,66 116,65 135,65 135,65 154,65 154,65 173,65 173,64 192,64 192,64 211,64 211,63 230,63 230,63 248,63 248,63 267,63 267,62 286,62 286,62 305,62 305,62 324,62 324,61 343,61 343,61 362,61 362,60 381,60 381,60 400,60 400,60 418,60 418,59 437,59 437,59 456,59 456,59 475,59 475,58 494,58 494,58 513,58 513,57 532,57 532,57 551,57 551,56 570,56 570,56 589,56 "/>
<polyline fill="none" opacity="1" stroke="#19E66B" stroke-width="2" points="60,184 60,183 78,183 78,183 97,183 97,183 116,183 116,182 135,182 135,182 154,182 154,182 173,182 173,181 192,181 192,181 211,181 211,181 230,181 230,180 248,180 248,180 267,180 267,180 286,180 286,179 305,179 305,179 324,179 324,179 343,179 343,179 362,179 362,178 381,178 381,178 400,178 400,178 418,178 418,177 437,177 437,177 456,177 456,177 475,177 475,177 494,177 494,176 513,176 513,176 532,176 532,176 551,176 551,175 570,175 570,175 589,175 "/>
<polyline fill="none" opacity="1" stroke="#196BE6" stroke-width="2" points="60,301 60,301 78,301 78,301 97,301 97,300 116,300 116,300 135,300 135,300 154,300 154,300 173,300 173,300 192,300 192,300 211,300 211,299 230,299 230,299 248,299 248,299 267,299 267,298 286,298 286,298 305,298 305,298 324,298 324,298 343,298 343,298 362,298 362,297 381,297 381,297 400,297 400,296 418,296 418,296 437,296 437,296 456,296 456,296 475,296 475,296 494,296 494,295 513,295 513,295 532,295 532,295 551,295 551,294 570,294 570,294 589,294 "/>
<polyline fill="none" opacity="1" stroke="#BD19E6" stroke-width="2" points="60,230 60,230 78,230 78,229 97,229 97,229 116,229 116,230 135,230 135,230 154,230 154,229 173,229 173,229 192,229 192,229 211,229 211,229 230,229 230,228 248,228 248,228 267,228 267,228 286,228 286,228 305,228 305,227 324,227 324,227 343,227 343,227 362,227 362,226 381,226 381,226 400,226 400,226 418,226 418,226 437,226 437,225 456,225 456,225 475,225 475,225 494,225 494,224 513,224 513,224 532,224 532,224 551,224 551,223 570,223 570,223 589,223 "/>
<rect x="65" y="130" width="101" height="89" opacity="1" fill="#FFFFFF" stroke="none"/>
<rect x="65" y="130" width="101" height="89" opacity="1" fill="none" stroke="#000000"/>
<text x="105" y="140" dy="0.76em" text-anchor="start" font-family="sans-serif" font-size="9.67741935483871" opacity="1" fill="#000000">
anyhow
</text>
<text x="105" y="155" dy="0.76em" text-anchor="start" font-family="sans-serif" font-size="9.67741935483871" opacity="1" fill="#000000">
serde
</text>
<text x="105" y="170" dy="0.76em" text-anchor="start" font-family="sans-serif" font-size="9.67741935483871" opacity="1" fill="#000000">
serde_json
</text>
<text x="105" y="185" dy="0.76em" text-anchor="start" font-family="sans-serif" font-size="9.67741935483871" opacity="1" fill="#000000">
thiserror
</text>
<text x="105" y="200" dy="0.76em" text-anchor="start" font-family="sans-serif" font-size="9.67741935483871" opacity="1" fill="#000000">
tokio
</text>
<polyline fill="none" opacity="1" stroke="#E61919" stroke-width="2" points="75,144 95,144 "/>
<polyline fill="none" opacity="1" stroke="#BDE619" stroke-width="2" points="75,159 95,159 "/>
<polyline fill="none" opacity="1" stroke="#19E66B" stroke-width="2" points="75,174 95,174 "/>
<polyline fill="none" opacity="1" stroke="#196BE6" stroke-width="2" points="75,189 95,189 "/>
<polyline fill="none" opacity="1" stroke="#BD19E6" stroke-width="2" points="75,204 95,204 "/>
</svg>
