<svg width="600" height="400" viewBox="0 0 600 400" xmlns="http://www.w3.org/2000/svg">
<rect x="0" y="0" width="600" height="400" opacity="1" fill="#FFFFFF" stroke="none"/>
<line opacity="0.1" stroke="#000000" stroke-width="1" x1="60" y1="338" x2="589" y2="338"/>
<line opacity="0.1" stroke="#000000" stroke-width="1" x1="60" y1="333" x2="589" y2="333"/>
<line opacity="0.1" stroke="#000000" stroke-width="1" x1="60" y1="327" x2="589" y2="327"/>
<line opacity="0.1" stroke="#000000" stroke-width="1" x1="60" y1="322" x2="589" y2="322"/>
<line opacity="0.1" stroke="#000000" stroke-width="1" x1="60" y1="317" x2="589" y2="317"/>
<line opacity="0.1" stroke="#000000" stroke-width="1" x1="60" y1="312" x2="589" y2="312"/>
<line opacity="0.1" stroke="#000000" stroke-width="1" x1="60" y1="307" x2="589" y2="307"/>
<line opacity="0.1" stroke="#000000" stroke-width="1" x1="60" y1="302" x2="589" y2="302"/>
<line opacity="0.1" stroke="#000000" stroke-width="1" x1="60" y1="297" x2="589" y2="297"/>
<line opacity="0.1" stroke="#000000" stroke-width="1" x1="60" y1="292" x2="589" y2="292"/>
<line opacity="0.1" stroke="#000000" stroke-width="1" x1="60" y1="287" x2="589" y2="287"/>
<line opacity="0.1" stroke="#000000" stroke-width="1" x1="60" y1="282" x2="589" y2="282"/>
<line opacity="0.1" stroke="#000000" stroke-width="1" x1="60" y1="277" x2="589" y2="277"/>
<line opacity="0.1" stroke="#000000" stroke-width="1" x1="60" y1="272" x2="589" y2="272"/>
<line opacity="0.1" stroke="#000000" stroke-width="1" x1="60" y1="267" x2="589" y2="267"/>
<line opacity="0.1" stroke="#000000" stroke-width="1" x1="60" y1="262" x2="589" y2="262"/>
<line opacity="0.1" stroke="#000000" stroke-width="1" x1="60" y1="257" x2="589" y2="257"/>
<line opacity="0.1" stroke="#000000" stroke-width="1" x1="60" y1="252" x2="589" y2="252"/>
<line opacity="0.1" stroke="#000000" stroke-width="1" x1="60" y1="247" x2="589" y2="247"/>
<line opacity="0.1" stroke="#000000" stroke-width="1" x1="60" y1="242" x2="589" y2="242"/>
<line opacity="0.1" stroke="#000000" stroke-width="1" x1="60" y1="237" x2="589" y2="237"/>
<line opacity="0.1" stroke="#000000" stroke-width="1" x1="60" y1="232" x2="589" y2="232"/>
<line opacity="0.1" stroke="#000000" stroke-width="1" x1="60" y1="227" x2="589" y2="227"/>
<line opacity="0.1" stroke="#000000" stroke-width="1" x1="60" y1="222" x2="589" y2="222"/>
<line opacity="0.1" stroke="#000000" stroke-width="1" x1="60" y1="217" x2="589" y2="217"/>
<line opacity="0.1" stroke="#000000" stroke-width="1" x1="60" y1="212" x2="589" y2="212"/>
<line opacity="0.1" stroke="#000000" stroke-width="1" x1="60" y1="207" x2="589" y2="207"/>
<line opacity="0.1" stroke="#000000" stroke-width="1" x1="60" y1="202" x2="589" y2="202"/>
<line opacity="0.1" stroke="#000000" stroke-width="1" x1="60" y1="197" x2="589" y2="197"/>
<line opacity="0.1" stroke="#000000" stroke-width="1" x1="60" y1="192" x2="589" y2="192"/>
<line opacity="0.1" stroke="#000000" stroke-width="1" x1="60" y1="187" x2="589" y2="187"/>
<line opacity="0.1" stroke="#000000" stroke-width="1" x1="60" y1="182" x2="589" y2="182"/>
<line opacity="0.1" stroke="#000000" stroke-width="1" x1="60" y1="177" x2="589" y2="177"/>
<line opacity="0.1" stroke="#000000" stroke-width="1" x1="60" y1="172" x2="589" y2="172"/>
<line opacity="0.1" stroke="#000000" stroke-width="1" x1="60" y1="167" x2="589" y2="167"/>
<line opacity="0.1" stroke="#000000" stroke-width="1" x1="60" y1="162" x2="589" y2="162"/>
<line opacity="0.1" stroke="#000000" stroke-width="1" x1="60" y1="157" x2="589" y2="157"/>
<line opacity="0.1" stroke="#000000" stroke-width="1" x1="60" y1="152" x2="589" y2="152"/>
<line opacity="0.1" stroke="#000000" stroke-width="1" x1="60" y1="147" x2="589" y2="147"/>
<line opacity="0.1" stroke="#000000" stroke-width="1" x1="60" y1="142" x2="589" y2="142"/>
<line opacity="0.1" stroke="#000000" stroke-width="1" x1="60" y1="137" x2="589" y2="137"/>
<line opacity="0.1" stroke="#000000" stroke-width="1" x1="60" y1="132" x2="589" y2="132"/>
<line opacity="0.1" stroke="#000000" stroke-width="1" x1="60" y1="127" x2="589" y2="127"/>
<line opacity="0.1" stroke="#000000" stroke-width="1" x1="60" y1="122" x2="589" y2="122"/>
<line opacity="0.1" stroke="#000000" stroke-width="1" x1="60" y1="117" x2="589" y2="117"/>
<line opacity="0.1" stroke="#000000" stroke-width="1" x1="60" y1="112" x2="589" y2="112"/>
<line opacity="0.1" stroke="#000000" stroke-width="1" x1="60" y1="107" x2="589" y2="107"/>
<line opacity="0.1" stroke="#000000" stroke-width="1" x1="60" y1="102" x2="589" y2="102"/>
<line opacity="0.1" stroke="#000000" stroke-width="1" x1="60" y1="97" x2="589" y2="97"/>
<line opacity="0.1" stroke="#000000" stroke-width="1" x1="60" y1="92" x2="589" y2="92"/>
<line opacity="0.1" stroke="#000000" stroke-width="1" x1="60" y1="87" x2="589" y2="87"/>
<line opacity="0.1" stroke="#000000" stroke-width="1" x1="60" y1="82" x2="589" y2="82"/>
<line opacity="0.1" stroke="#000000" stroke-width="1" x1="60" y1="77" x2="589" y2="77"/>
<line opacity="0.1" stroke="#000000" stroke-width="1" x1="60" y1="72" x2="589" y2="72"/>
<line opacity="0.1" stroke="#000000" stroke-width="1" x1="60" y1="67" x2="589" y2="67"/>
<line opacity="0.1" stroke="#000000" stroke-width="1" x1="60" y1="62" x2="589" y2="62"/>
<line opacity="0.1" stroke="#000000" stroke-width="1" x1="60" y1="57" x2="589" y2="57"/>
<line opacity="0.1" stroke="#000000" stroke-width="1" x1="60" y1="52" x2="589" y2="52"/>
<line opacity="0.1" stroke="#000000" stroke-width="1" x1="60" y1="47" x2="589" y2="47"/>
<line opacity="0.1" stroke="#000000" stroke-width="1" x1="60" y1="42" x2="589" y2="42"/>
<line opacity="0.1" stroke="#000000" stroke-width="1" x1="60" y1="37" x2="589" y2="37"/>
<line opacity="0.1" stroke="#000000" stroke-width="1" x1="60" y1="32" x2="589" y2="32"/>
<line opacity="0.1" stroke="#000000" stroke-width="1" x1="60" y1="27" x2="589" y2="27"/>
<line opacity="0.1" stroke="#000000" stroke-width="1" x1="60" y1="22" x2="589" y2="22"/>
<line opacity="0.1" stroke="#000000" stroke-width="1" x1="60" y1="17" x2="589" y2="17"/>
<line opacity="0.1" stroke="#000000" stroke-width="1" x1="60" y1="12" x2="589" y2="12"/>
<text x="10" y="175" dy="0.76em" text-anchor="middle" font-family="sans-serif" font-size="9.67741935483871" opacity="1" fill="#000000" transform="rotate(270, 10, 175)">
Number of dependent crates
</text>
<line opacity="0.2" stroke="#000000" stroke-width="1" x1="60" y1="312" x2="589" y2="312"/>
<line opacity="0.2" stroke="#000000" stroke-width="1" x1="60" y1="262" x2="589" y2="262"/>
<line opacity="0.2" stroke="#000000" stroke-width="1" x1="60" y1="212" x2="589" y2="212"/>
<line opacity="0.2" stroke="#000000" stroke-width="1" x1="60" y1="162" x2="589" y2="162"/>
<line opacity="0.2" stroke="#000000" stroke-width="1" x1="60" y1="112" x2="589" y2="112"/>
<line opacity="0.2" stroke="#000000" stroke-width="1" x1="60" y1="62" x2="589" y2="62"/>
<line opacity="0.2" stroke="#000000" stroke-width="1" x1="60" y1="12" x2="589" y2="12"/>
<polyline fill="none" opacity="1" stroke="#000000" stroke-width="1" points="59,10 59,339 "/>
<text x="50" y="312" dy="0.5ex" text-anchor="end" font-family="sans-serif" font-size="9.67741935483871" opacity="1" fill="#000000">
20000
</text>
<polyline fill="none" opacity="1" stroke="#000000" stroke-width="1" points="54,312 59,312 "/>
<text x="50" y="262" dy="0.5ex" text-anchor="end" font-family="sans-serif" font-size="9.67741935483871" opacity="1" fill="#000000">
25000
</text>
<polyline fill="none" opacity="1" stroke="#000000" stroke-width="1" points="54,262 59,262 "/>
<text x="50" y="212" dy="0.5ex" text-anchor="end" font-family="sans-serif" font-size="9.67741935483871" opacity="1" fill="#000000">
30000
</text>
<polyline fill="none" opacity="1" stroke="#000000" stroke-width="1" points="54,212 59,212 "/>
<text x="50" y="162" dy="0.5ex" text-anchor="end" font-family="sans-serif" font-size="9.67741935483871" opacity="1" fill="#000000">
35000
</text>
<polyline fill="none" opacity="1" stroke="#000000" stroke-width="1" points="54,162 59,162 "/>
<text x="50" y="112" dy="0.5ex" text-anchor="end" font-family="sans-serif" font-size="9.67741935483871" opacity="1" fill="#000000">
40000
</text>
<polyline fill="none" opacity="1" stroke="#000000" stroke-width="1" points="54,112 59,112 "/>
<text x="50" y="62" dy="0.5ex" text-anchor="end" font-family="sans-serif" font-size="9.67741935483871" opacity="1" fill="#000000">
45000
</text>
<polyline fill="none" opacity="1" stroke="#000000" stroke-width="1" points="54,62 59,62 "/>
<text x="50" y="12" dy="0.5ex" text-anchor="end" font-family="sans-serif" font-size="9.67741935483871" opacity="1" fill="#000000">
50000
</text>
<polyline fill="none" opacity="1" stroke="#000000" stroke-width="1" points="54,12 59,12 "/>
<polyline fill="none" opacity="1" stroke="#000000" stroke-width="1" points="60,340 589,340 "/>
<text x="60" y="350" dy="0.76em" text-anchor="middle" font-family="sans-serif" font-size="9.67741935483871" opacity="1" fill="#000000">
2025-04-27
</text>
<polyline fill="none" opacity="1" stroke="#000000" stroke-width="1" points="60,340 60,345 "/>
<text x="192" y="350" dy="0.76em" text-anchor="middle" font-family="sans-serif" font-size="9.67741935483871" opacity="1" fill="#000000">
2025-05-04
</text>
<polyline fill="none" opacity="1" stroke="#000000" stroke-width="1" points="192,340 192,345 "/>
<text x="324" y="350" dy="0.76em" text-anchor="middle" font-family="sans-serif" font-size="9.67741935483871" opacity="1" fill="#000000">
2025-05-11
</text>
<polyline fill="none" opacity="1" stroke="#000000" stroke-width="1" points="324,340 324,345 "/>
<text x="456" y="350" dy="0.76em" text-anchor="middle" font-family="sans-serif" font-size="9.67741935483871" opacity="1" fill="#000000">
2025-05-18
</text>
<polyline fill="none" opacity="1" stroke="#000000" stroke-width="1" points="456,340 456,345 "/>
<text x="589" y="350" dy="0.76em" text-anchor="middle" font-family="sans-serif" font-size="9.67741935483871" opacity="1" fill="#000000">
2025-05-25
</text>
<polyline fill="none" opacity="1" stroke="#000000" stroke-width="1" points="589,340 589,345 "/>
<polyline fill="none" opacity="1" stroke="#E61919" stroke-width="2" points="60,320 60,320 78,320 78,320 97,320 97,320 116,320 116,319 135,319 135,319 154,319 154,319 173,319 173,319 192,319 192,319 211,319 211,318 230,318 230,318 248,318 248,318 267,318 267,318 286,318 286,318 305,318 305,318 324,318 324,317 343,317 343,317 362,317 362,317 381,317 381,317 400,317 400,317 418,317 418,317 437,317 437,316 456,316 456,316 475,316 475,316 494,316 494,316 513,316 513,316 532,316 532,316 551,316 551,315 570,315 570,315 589,315 "/>
<polyline fill="none" opacity="1" stroke="#BDE619" stroke-width="2" points="60,66 60,65 78,65 78,65 97,65 97,65 116,65 116,64 135,64 135,64 154,64 154,63 173,63 173,63 192,63 192,63 211,63 211,63 230,63 230,62 248,62 248,62 267,62 267,61 286,61 286,61 305,61 305,60 324,60 324,60 343,60 343,60 362,60 362,59 381,59 381,59 400,59 400,59 418,59 418,59 437,59 437,58 456,58 456,58 475,58 475,58 494,58 494,57 513,57 513,57 532,57 532,57 551,57 551,57 570,57 570,56 589,56 "/>
<polyline fill="none" opacity="1" stroke="#19E66B" stroke-width="2" points="60,183 60,182 78,182 78,182 97,182 97,182 116,182 116,181 135,181 135,181 154,181 154,181 173,181 173,181 192,181 192,180 211,180 211,180 230,180 230,180 248,180 248,179 267,179 267,179 286,179 286,179 305,179 305,178 324,178 324,178 343,178 343,178 362,178 362,178 381,178 381,177 400,177 400,177 418,177 418,177 437,177 437,177 456,177 456,177 475,177 475,176 494,176 494,176 513,176 513,176 532,176 532,176 551,176 551,175 570,175 570,175 589,175 "/>
<polyline fill="none" opacity="1" stroke="#196BE6" stroke-width="2" points="60,301 60,301 78,301 78,300 97,300 97,300 116,300 116,300 135,300 135,299 154,299 154,299 173,299 173,299 192,299 192,298 211,298 211,298 230,298 230,298 248,298 248,298 267,298 267,297 286,297 286,297 305,297 305,297 324,297 324,297 343,297 343,297 362,297 362,296 381,296 381,296 400,296 400,296 418,296 418,296 437,296 437,295 456,295 456,295 475,295 475,295 494,295 494,295 513,295 513,294 532,294 532,294 551,294 551,294 570,294 570,294 589,294 "/>
<polyline fill="none" opacity="1" stroke="#BD19E6" stroke-width="2" points="60,230 60,230 78,230 78,230 97,230 97,229 116,229 116,229 135,229 135,229 154,229 154,229 173,229 173,228 192,228 192,228 211,228 211,228 230,228 230,228 248,228 248,227 267,227 267,227 286,227 286,226 305,226 305,226 324,226 324,226 343,226 343,225 362,225 362,225 381,225 381,225 400,225 400,225 418,225 418,224 437,224 437,224 456,224 456,224 475,224 475,224 494,224 494,223 513,223 513,223 532,223 532,223 551,223 551,223 570,223 570,222 589,222 "/>
<rect x="65" y="130" width="101" height="89" opacity="1" fill="#FFFFFF" stroke="none"/>
<rect x="65" y="130" width="101" height="89" opacity="1" fill="none" stroke="#000000"/>
<text x="105" y="140" dy="0.76em" text-anchor="start" font-family="sans-serif" font-size="9.67741935483871" opacity="1" fill="#000000">
anyhow
</text>
<text x="105" y="155" dy="0.76em" text-anchor="start" font-family="sans-serif" font-size="9.67741935483871" opacity="1" fill="#000000">
serde
</text>
<text x="105" y="170" dy="0.76em" text-anchor="start" font-family="sans-serif" font-size="9.67741935483871" opacity="1" fill="#000000">
serde_json
</text>
<text x="105" y="185" dy="0.76em" text-anchor="start" font-family="sans-serif" font-size="9.67741935483871" opacity="1" fill="#000000">
thiserror
</text>
<text x="105" y="200" dy="0.76em" text-anchor="start" font-family="sans-serif" font-size="9.67741935483871" opacity="1" fill="#000000">
tokio
</text>
<polyline fill="none" opacity="1" stroke="#E61919" stroke-width="2" points="75,144 95,144 "/>
<polyline fill="none" opacity="1" stroke="#BDE619" stroke-width="2" points="75,159 95,159 "/>
<polyline fill="none" opacity="1" stroke="#19E66B" stroke-width="2" points="75,174 95,174 "/>
<polyline fill="none" opacity="1" stroke="#196BE6" stroke-width="2" points="75,189 95,189 "/>
<polyline fill="none" opacity="1" stroke="#BD19E6" stroke-width="2" points="75,204 95,204 "/>
</svg>
