<svg width="600" height="400" xmlns="http://www.w3.org/2000/svg">
<rect x="0" y="0" width="599" height="399" opacity="1" fill="#FFFFFF" stroke="none"/>
<line opacity="0.1" stroke="#000000" stroke-width="1" x1="60" y1="337" x2="590" y2="337"/>
<line opacity="0.1" stroke="#000000" stroke-width="1" x1="60" y1="333" x2="590" y2="333"/>
<line opacity="0.1" stroke="#000000" stroke-width="1" x1="60" y1="330" x2="590" y2="330"/>
<line opacity="0.1" stroke="#000000" stroke-width="1" x1="60" y1="326" x2="590" y2="326"/>
<line opacity="0.1" stroke="#000000" stroke-width="1" x1="60" y1="322" x2="590" y2="322"/>
<line opacity="0.1" stroke="#000000" stroke-width="1" x1="60" y1="319" x2="590" y2="319"/>
<line opacity="0.1" stroke="#000000" stroke-width="1" x1="60" y1="315" x2="590" y2="315"/>
<line opacity="0.1" stroke="#000000" stroke-width="1" x1="60" y1="312" x2="590" y2="312"/>
<line opacity="0.1" stroke="#000000" stroke-width="1" x1="60" y1="308" x2="590" y2="308"/>
<line opacity="0.1" stroke="#000000" stroke-width="1" x1="60" y1="304" x2="590" y2="304"/>
<line opacity="0.1" stroke="#000000" stroke-width="1" x1="60" y1="301" x2="590" y2="301"/>
<line opacity="0.1" stroke="#000000" stroke-width="1" x1="60" y1="297" x2="590" y2="297"/>
<line opacity="0.1" stroke="#000000" stroke-width="1" x1="60" y1="294" x2="590" y2="294"/>
<line opacity="0.1" stroke="#000000" stroke-width="1" x1="60" y1="290" x2="590" y2="290"/>
<line opacity="0.1" stroke="#000000" stroke-width="1" x1="60" y1="287" x2="590" y2="287"/>
<line opacity="0.1" stroke="#000000" stroke-width="1" x1="60" y1="283" x2="590" y2="283"/>
<line opacity="0.1" stroke="#000000" stroke-width="1" x1="60" y1="279" x2="590" y2="279"/>
<line opacity="0.1" stroke="#000000" stroke-width="1" x1="60" y1="276" x2="590" y2="276"/>
<line opacity="0.1" stroke="#000000" stroke-width="1" x1="60" y1="272" x2="590" y2="272"/>
<line opacity="0.1" stroke="#000000" stroke-width="1" x1="60" y1="269" x2="590" y2="269"/>
<line opacity="0.1" stroke="#000000" stroke-width="1" x1="60" y1="265" x2="590" y2="265"/>
<line opacity="0.1" stroke="#000000" stroke-width="1" x1="60" y1="261" x2="590" y2="261"/>
<line opacity="0.1" stroke="#000000" stroke-width="1" x1="60" y1="258" x2="590" y2="258"/>
<line opacity="0.1" stroke="#000000" stroke-width="1" x1="60" y1="254" x2="590" y2="254"/>
<line opacity="0.1" stroke="#000000" stroke-width="1" x1="60" y1="251" x2="590" y2="251"/>
<line opacity="0.1" stroke="#000000" stroke-width="1" x1="60" y1="247" x2="590" y2="247"/>
<line opacity="0.1" stroke="#000000" stroke-width="1" x1="60" y1="243" x2="590" y2="243"/>
<line opacity="0.1" stroke="#000000" stroke-width="1" x1="60" y1="240" x2="590" y2="240"/>
<line opacity="0.1" stroke="#000000" stroke-width="1" x1="60" y1="236" x2="590" y2="236"/>
<line opacity="0.1" stroke="#000000" stroke-width="1" x1="60" y1="233" x2="590" y2="233"/>
<line opacity="0.1" stroke="#000000" stroke-width="1" x1="60" y1="229" x2="590" y2="229"/>
<line opacity="0.1" stroke="#000000" stroke-width="1" x1="60" y1="225" x2="590" y2="225"/>
<line opacity="0.1" stroke="#000000" stroke-width="1" x1="60" y1="222" x2="590" y2="222"/>
<line opacity="0.1" stroke="#000000" stroke-width="1" x1="60" y1="218" x2="590" y2="218"/>
<line opacity="0.1" stroke="#000000" stroke-width="1" x1="60" y1="215" x2="590" y2="215"/>
<line opacity="0.1" stroke="#000000" stroke-width="1" x1="60" y1="211" x2="590" y2="211"/>
<line opacity="0.1" stroke="#000000" stroke-width="1" x1="60" y1="207" x2="590" y2="207"/>
<line opacity="0.1" stroke="#000000" stroke-width="1" x1="60" y1="204" x2="590" y2="204"/>
<line opacity="0.1" stroke="#000000" stroke-width="1" x1="60" y1="200" x2="590" y2="200"/>
<line opacity="0.1" stroke="#000000" stroke-width="1" x1="60" y1="197" x2="590" y2="197"/>
<line opacity="0.1" stroke="#000000" stroke-width="1" x1="60" y1="193" x2="590" y2="193"/>
<line opacity="0.1" stroke="#000000" stroke-width="1" x1="60" y1="189" x2="590" y2="189"/>
<line opacity="0.1" stroke="#000000" stroke-width="1" x1="60" y1="186" x2="590" y2="186"/>
<line opacity="0.1" stroke="#000000" stroke-width="1" x1="60" y1="182" x2="590" y2="182"/>
<line opacity="0.1" stroke="#000000" stroke-width="1" x1="60" y1="179" x2="590" y2="179"/>
<line opacity="0.1" stroke="#000000" stroke-width="1" x1="60" y1="175" x2="590" y2="175"/>
<line opacity="0.1" stroke="#000000" stroke-width="1" x1="60" y1="171" x2="590" y2="171"/>
<line opacity="0.1" stroke="#000000" stroke-width="1" x1="60" y1="168" x2="590" y2="168"/>
<line opacity="0.1" stroke="#000000" stroke-width="1" x1="60" y1="164" x2="590" y2="164"/>
<line opacity="0.1" stroke="#000000" stroke-width="1" x1="60" y1="161" x2="590" y2="161"/>
<line opacity="0.1" stroke="#000000" stroke-width="1" x1="60" y1="157" x2="590" y2="157"/>
<line opacity="0.1" stroke="#000000" stroke-width="1" x1="60" y1="153" x2="590" y2="153"/>
<line opacity="0.1" stroke="#000000" stroke-width="1" x1="60" y1="150" x2="590" y2="150"/>
<line opacity="0.1" stroke="#000000" stroke-width="1" x1="60" y1="146" x2="590" y2="146"/>
<line opacity="0.1" stroke="#000000" stroke-width="1" x1="60" y1="143" x2="590" y2="143"/>
<line opacity="0.1" stroke="#000000" stroke-width="1" x1="60" y1="139" x2="590" y2="139"/>
<line opacity="0.1" stroke="#000000" stroke-width="1" x1="60" y1="136" x2="590" y2="136"/>
<line opacity="0.1" stroke="#000000" stroke-width="1" x1="60" y1="132" x2="590" y2="132"/>
<line opacity="0.1" stroke="#000000" stroke-width="1" x1="60" y1="128" x2="590" y2="128"/>
<line opacity="0.1" stroke="#000000" stroke-width="1" x1="60" y1="125" x2="590" y2="125"/>
<line opacity="0.1" stroke="#000000" stroke-width="1" x1="60" y1="121" x2="590" y2="121"/>
<line opacity="0.1" stroke="#000000" stroke-width="1" x1="60" y1="118" x2="590" y2="118"/>
<line opacity="0.1" stroke="#000000" stroke-width="1" x1="60" y1="114" x2="590" y2="114"/>
<line opacity="0.1" stroke="#000000" stroke-width="1" x1="60" y1="110" x2="590" y2="110"/>
<line opacity="0.1" stroke="#000000" stroke-width="1" x1="60" y1="107" x2="590" y2="107"/>
<line opacity="0.1" stroke="#000000" stroke-width="1" x1="60" y1="103" x2="590" y2="103"/>
<line opacity="0.1" stroke="#000000" stroke-width="1" x1="60" y1="100" x2="590" y2="100"/>
<line opacity="0.1" stroke="#000000" stroke-width="1" x1="60" y1="96" x2="590" y2="96"/>
<line opacity="0.1" stroke="#000000" stroke-width="1" x1="60" y1="92" x2="590" y2="92"/>
<line opacity="0.1" stroke="#000000" stroke-width="1" x1="60" y1="89" x2="590" y2="89"/>
<line opacity="0.1" stroke="#000000" stroke-width="1" x1="60" y1="85" x2="590" y2="85"/>
<line opacity="0.1" stroke="#000000" stroke-width="1" x1="60" y1="82" x2="590" y2="82"/>
<line opacity="0.1" stroke="#000000" stroke-width="1" x1="60" y1="78" x2="590" y2="78"/>
<line opacity="0.1" stroke="#000000" stroke-width="1" x1="60" y1="74" x2="590" y2="74"/>
<line opacity="0.1" stroke="#000000" stroke-width="1" x1="60" y1="71" x2="590" y2="71"/>
<line opacity="0.1" stroke="#000000" stroke-width="1" x1="60" y1="67" x2="590" y2="67"/>
<line opacity="0.1" stroke="#000000" stroke-width="1" x1="60" y1="64" x2="590" y2="64"/>
<line opacity="0.1" stroke="#000000" stroke-width="1" x1="60" y1="60" x2="590" y2="60"/>
<line opacity="0.1" stroke="#000000" stroke-width="1" x1="60" y1="56" x2="590" y2="56"/>
<line opacity="0.1" stroke="#000000" stroke-width="1" x1="60" y1="53" x2="590" y2="53"/>
<line opacity="0.1" stroke="#000000" stroke-width="1" x1="60" y1="49" x2="590" y2="49"/>
<line opacity="0.1" stroke="#000000" stroke-width="1" x1="60" y1="46" x2="590" y2="46"/>
<line opacity="0.1" stroke="#000000" stroke-width="1" x1="60" y1="42" x2="590" y2="42"/>
<line opacity="0.1" stroke="#000000" stroke-width="1" x1="60" y1="38" x2="590" y2="38"/>
<line opacity="0.1" stroke="#000000" stroke-width="1" x1="60" y1="35" x2="590" y2="35"/>
<line opacity="0.1" stroke="#000000" stroke-width="1" x1="60" y1="31" x2="590" y2="31"/>
<line opacity="0.1" stroke="#000000" stroke-width="1" x1="60" y1="28" x2="590" y2="28"/>
<line opacity="0.1" stroke="#000000" stroke-width="1" x1="60" y1="24" x2="590" y2="24"/>
<line opacity="0.1" stroke="#000000" stroke-width="1" x1="60" y1="20" x2="590" y2="20"/>
<line opacity="0.1" stroke="#000000" stroke-width="1" x1="60" y1="17" x2="590" y2="17"/>
<line opacity="0.1" stroke="#000000" stroke-width="1" x1="60" y1="13" x2="590" y2="13"/>
<line opacity="0.1" stroke="#000000" stroke-width="1" x1="60" y1="10" x2="590" y2="10"/>
<text x="10" y="175" dy="0.76em" text-anchor="middle" font-family="sans-serif" font-size="9.67741935483871" opacity="1" fill="#000000" transform="rotate(270, 10, 175)">
Fraction of dependent crates
</text>
<line opacity="0.2" stroke="#000000" stroke-width="1" x1="60" y1="319" x2="590" y2="319"/>
<line opacity="0.2" stroke="#000000" stroke-width="1" x1="60" y1="283" x2="590" y2="283"/>
<line opacity="0.2" stroke="#000000" stroke-width="1" x1="60" y1="247" x2="590" y2="247"/>
<line opacity="0.2" stroke="#000000" stroke-width="1" x1="60" y1="211" x2="590" y2="211"/>
<line opacity="0.2" stroke="#000000" stroke-width="1" x1="60" y1="175" x2="590" y2="175"/>
<line opacity="0.2" stroke="#000000" stroke-width="1" x1="60" y1="139" x2="590" y2="139"/>
<line opacity="0.2" stroke="#000000" stroke-width="1" x1="60" y1="103" x2="590" y2="103"/>
<line opacity="0.2" stroke="#000000" stroke-width="1" x1="60" y1="67" x2="590" y2="67"/>
<line opacity="0.2" stroke="#000000" stroke-width="1" x1="60" y1="31" x2="590" y2="31"/>
<polyline fill="none" opacity="1" stroke="#000000" stroke-width="1" points="59,10 59,340 "/>
<text x="50" y="319" dy="0.5ex" text-anchor="end" font-family="sans-serif" font-size="9.67741935483871" opacity="1" fill="#000000">
0.02
</text>
<polyline fill="none" opacity="1" stroke="#000000" stroke-width="1" points="54,319 59,319 "/>
<text x="50" y="283" dy="0.5ex" text-anchor="end" font-family="sans-serif" font-size="9.67741935483871" opacity="1" fill="#000000">
0.04
</text>
<polyline fill="none" opacity="1" stroke="#000000" stroke-width="1" points="54,283 59,283 "/>
<text x="50" y="247" dy="0.5ex" text-anchor="end" font-family="sans-serif" font-size="9.67741935483871" opacity="1" fill="#000000">
0.06
</text>
<polyline fill="none" opacity="1" stroke="#000000" stroke-width="1" points="54,247 59,247 "/>
<text x="50" y="211" dy="0.5ex" text-anchor="end" font-family="sans-serif" font-size="9.67741935483871" opacity="1" fill="#000000">
0.08
</text>
<polyline fill="none" opacity="1" stroke="#000000" stroke-width="1" points="54,211 59,211 "/>
<text x="50" y="175" dy="0.5ex" text-anchor="end" font-family="sans-serif" font-size="9.67741935483871" opacity="1" fill="#000000">
0.1
</text>
<polyline fill="none" opacity="1" stroke="#000000" stroke-width="1" points="54,175 59,175 "/>
<text x="50" y="139" dy="0.5ex" text-anchor="end" font-family="sans-serif" font-size="9.67741935483871" opacity="1" fill="#000000">
0.12
</text>
<polyline fill="none" opacity="1" stroke="#000000" stroke-width="1" points="54,139 59,139 "/>
<text x="50" y="103" dy="0.5ex" text-anchor="end" font-family="sans-serif" font-size="9.67741935483871" opacity="1" fill="#000000">
0.14
</text>
<polyline fill="none" opacity="1" stroke="#000000" stroke-width="1" points="54,103 59,103 "/>
<text x="50" y="67" dy="0.5ex" text-anchor="end" font-family="sans-serif" font-size="9.67741935483871" opacity="1" fill="#000000">
0.16
</text>
<polyline fill="none" opacity="1" stroke="#000000" stroke-width="1" points="54,67 59,67 "/>
<text x="50" y="31" dy="0.5ex" text-anchor="end" font-family="sans-serif" font-size="9.67741935483871" opacity="1" fill="#000000">
0.18
</text>
<polyline fill="none" opacity="1" stroke="#000000" stroke-width="1" points="54,31 59,31 "/>
<polyline fill="none" opacity="1" stroke="#000000" stroke-width="1" points="60,340 590,340 "/>
<text x="60" y="350" dy="0.76em" text-anchor="middle" font-family="sans-serif" font-size="9.67741935483871" opacity="1" fill="#000000">
2020-04-05Z
</text>
<polyline fill="none" opacity="1" stroke="#000000" stroke-width="1" points="60,340 60,345 "/>
<text x="197" y="350" dy="0.76em" text-anchor="middle" font-family="sans-serif" font-size="9.67741935483871" opacity="1" fill="#000000">
2020-04-12Z
</text>
<polyline fill="none" opacity="1" stroke="#000000" stroke-width="1" points="197,340 197,345 "/>
<text x="334" y="350" dy="0.76em" text-anchor="middle" font-family="sans-serif" font-size="9.67741935483871" opacity="1" fill="#000000">
2020-04-19Z
</text>
<polyline fill="none" opacity="1" stroke="#000000" stroke-width="1" points="334,340 334,345 "/>
<text x="472" y="350" dy="0.76em" text-anchor="middle" font-family="sans-serif" font-size="9.67741935483871" opacity="1" fill="#000000">
2020-04-26Z
</text>
<polyline fill="none" opacity="1" stroke="#000000" stroke-width="1" points="472,340 472,345 "/>
<polyline fill="none" opacity="1" stroke="#E61919" stroke-width="2" points="60,337 60,337 79,337 79,336 99,336 99,336 118,336 118,336 138,336 138,336 158,335 177,335 177,335 197,335 197,335 217,335 217,335 236,335 236,335 256,335 256,335 275,335 275,334 295,334 295,334 315,334 315,334 334,334 334,334 354,334 354,334 374,334 374,333 393,333 413,333 432,333 432,333 452,333 452,333 472,333 472,333 491,333 491,333 511,333 511,333 531,333 531,333 550,333 550,332 570,332 570,332 590,332 590,332 "/>
<polyline fill="none" opacity="1" stroke="#BDE619" stroke-width="2" points="60,336 60,336 79,336 79,335 99,335 99,335 118,335 118,335 138,335 138,335 158,335 177,335 177,335 197,335 197,335 217,335 217,335 236,335 236,334 256,334 256,334 275,334 275,334 295,334 295,334 315,334 315,334 334,334 334,334 354,334 354,334 374,334 374,334 393,334 413,334 432,334 432,334 452,334 452,334 472,334 472,334 491,334 491,334 511,334 511,334 531,334 531,334 550,334 550,334 570,334 570,334 590,334 590,334 "/>
<polyline fill="none" opacity="1" stroke="#19E66B" stroke-width="2" points="60,43 60,43 79,43 79,43 99,43 99,43 118,43 118,43 138,43 138,42 158,42 177,42 177,42 197,42 197,42 217,42 217,42 236,42 236,41 256,41 256,42 275,42 275,42 295,42 295,41 315,41 315,41 334,41 334,41 354,41 354,41 374,41 374,41 393,40 413,41 432,41 432,40 452,40 452,40 472,40 472,40 491,40 491,40 511,40 511,40 531,40 531,40 550,40 550,40 570,40 570,40 590,40 590,40 "/>
<polyline fill="none" opacity="1" stroke="#196BE6" stroke-width="2" points="60,337 60,336 79,336 79,336 99,336 99,336 118,336 118,336 138,336 138,336 158,335 177,335 177,335 197,335 197,335 217,335 217,335 236,335 236,334 256,334 256,334 275,334 275,334 295,334 295,334 315,334 315,334 334,334 334,334 354,334 354,333 374,333 374,333 393,333 413,333 432,333 432,333 452,333 452,333 472,333 472,332 491,332 491,332 511,332 511,332 531,332 531,332 550,332 550,332 570,332 570,332 590,332 590,332 "/>
<polyline fill="none" opacity="1" stroke="#BD19E6" stroke-width="2" points="60,273 60,273 79,273 79,272 99,272 99,272 118,272 118,272 138,272 138,271 158,271 177,271 177,271 197,271 197,271 217,271 217,271 236,271 236,270 256,270 256,270 275,270 275,270 295,270 295,270 315,270 315,270 334,270 334,269 354,269 354,269 374,269 374,269 393,269 413,269 432,269 432,269 452,269 452,268 472,268 472,268 491,268 491,268 511,268 511,267 531,267 531,267 550,267 550,267 570,267 570,267 590,267 590,267 "/>
<rect x="480" y="130" width="105" height="89" opacity="1" fill="#FFFFFF" stroke="none"/>
<rect x="480" y="130" width="105" height="89" opacity="1" fill="none" stroke="#000000"/>
<text x="520" y="140" dy="0.76em" text-anchor="start" font-family="sans-serif" font-size="9.67741935483871" opacity="1" fill="#000000">
anyhow
</text>
<text x="520" y="155" dy="0.76em" text-anchor="start" font-family="sans-serif" font-size="9.67741935483871" opacity="1" fill="#000000">
async-trait
</text>
<text x="520" y="170" dy="0.76em" text-anchor="start" font-family="sans-serif" font-size="9.67741935483871" opacity="1" fill="#000000">
serde
</text>
<text x="520" y="185" dy="0.76em" text-anchor="start" font-family="sans-serif" font-size="9.67741935483871" opacity="1" fill="#000000">
thiserror
</text>
<text x="520" y="200" dy="0.76em" text-anchor="start" font-family="sans-serif" font-size="9.67741935483871" opacity="1" fill="#000000">
tokio
</text>
<polyline fill="none" opacity="1" stroke="#E61919" stroke-width="2" points="490,145 510,145 "/>
<polyline fill="none" opacity="1" stroke="#BDE619" stroke-width="2" points="490,160 510,160 "/>
<polyline fill="none" opacity="1" stroke="#19E66B" stroke-width="2" points="490,174 510,174 "/>
<polyline fill="none" opacity="1" stroke="#196BE6" stroke-width="2" points="490,189 510,189 "/>
<polyline fill="none" opacity="1" stroke="#BD19E6" stroke-width="2" points="490,204 510,204 "/>
</svg>
