<svg width="600" height="400" viewBox="0 0 600 400" xmlns="http://www.w3.org/2000/svg">
<rect x="0" y="0" width="600" height="400" opacity="1" fill="#FFFFFF" stroke="none"/>
<line opacity="0.1" stroke="#000000" stroke-width="1" x1="60" y1="337" x2="589" y2="337"/>
<line opacity="0.1" stroke="#000000" stroke-width="1" x1="60" y1="330" x2="589" y2="330"/>
<line opacity="0.1" stroke="#000000" stroke-width="1" x1="60" y1="324" x2="589" y2="324"/>
<line opacity="0.1" stroke="#000000" stroke-width="1" x1="60" y1="317" x2="589" y2="317"/>
<line opacity="0.1" stroke="#000000" stroke-width="1" x1="60" y1="311" x2="589" y2="311"/>
<line opacity="0.1" stroke="#000000" stroke-width="1" x1="60" y1="304" x2="589" y2="304"/>
<line opacity="0.1" stroke="#000000" stroke-width="1" x1="60" y1="298" x2="589" y2="298"/>
<line opacity="0.1" stroke="#000000" stroke-width="1" x1="60" y1="291" x2="589" y2="291"/>
<line opacity="0.1" stroke="#000000" stroke-width="1" x1="60" y1="285" x2="589" y2="285"/>
<line opacity="0.1" stroke="#000000" stroke-width="1" x1="60" y1="278" x2="589" y2="278"/>
<line opacity="0.1" stroke="#000000" stroke-width="1" x1="60" y1="272" x2="589" y2="272"/>
<line opacity="0.1" stroke="#000000" stroke-width="1" x1="60" y1="265" x2="589" y2="265"/>
<line opacity="0.1" stroke="#000000" stroke-width="1" x1="60" y1="259" x2="589" y2="259"/>
<line opacity="0.1" stroke="#000000" stroke-width="1" x1="60" y1="253" x2="589" y2="253"/>
<line opacity="0.1" stroke="#000000" stroke-width="1" x1="60" y1="246" x2="589" y2="246"/>
<line opacity="0.1" stroke="#000000" stroke-width="1" x1="60" y1="240" x2="589" y2="240"/>
<line opacity="0.1" stroke="#000000" stroke-width="1" x1="60" y1="233" x2="589" y2="233"/>
<line opacity="0.1" stroke="#000000" stroke-width="1" x1="60" y1="227" x2="589" y2="227"/>
<line opacity="0.1" stroke="#000000" stroke-width="1" x1="60" y1="220" x2="589" y2="220"/>
<line opacity="0.1" stroke="#000000" stroke-width="1" x1="60" y1="214" x2="589" y2="214"/>
<line opacity="0.1" stroke="#000000" stroke-width="1" x1="60" y1="207" x2="589" y2="207"/>
<line opacity="0.1" stroke="#000000" stroke-width="1" x1="60" y1="201" x2="589" y2="201"/>
<line opacity="0.1" stroke="#000000" stroke-width="1" x1="60" y1="194" x2="589" y2="194"/>
<line opacity="0.1" stroke="#000000" stroke-width="1" x1="60" y1="188" x2="589" y2="188"/>
<line opacity="0.1" stroke="#000000" stroke-width="1" x1="60" y1="181" x2="589" y2="181"/>
<line opacity="0.1" stroke="#000000" stroke-width="1" x1="60" y1="175" x2="589" y2="175"/>
<line opacity="0.1" stroke="#000000" stroke-width="1" x1="60" y1="168" x2="589" y2="168"/>
<line opacity="0.1" stroke="#000000" stroke-width="1" x1="60" y1="162" x2="589" y2="162"/>
<line opacity="0.1" stroke="#000000" stroke-width="1" x1="60" y1="155" x2="589" y2="155"/>
<line opacity="0.1" stroke="#000000" stroke-width="1" x1="60" y1="149" x2="589" y2="149"/>
<line opacity="0.1" stroke="#000000" stroke-width="1" x1="60" y1="142" x2="589" y2="142"/>
<line opacity="0.1" stroke="#000000" stroke-width="1" x1="60" y1="136" x2="589" y2="136"/>
<line opacity="0.1" stroke="#000000" stroke-width="1" x1="60" y1="130" x2="589" y2="130"/>
<line opacity="0.1" stroke="#000000" stroke-width="1" x1="60" y1="123" x2="589" y2="123"/>
<line opacity="0.1" stroke="#000000" stroke-width="1" x1="60" y1="117" x2="589" y2="117"/>
<line opacity="0.1" stroke="#000000" stroke-width="1" x1="60" y1="110" x2="589" y2="110"/>
<line opacity="0.1" stroke="#000000" stroke-width="1" x1="60" y1="104" x2="589" y2="104"/>
<line opacity="0.1" stroke="#000000" stroke-width="1" x1="60" y1="97" x2="589" y2="97"/>
<line opacity="0.1" stroke="#000000" stroke-width="1" x1="60" y1="91" x2="589" y2="91"/>
<line opacity="0.1" stroke="#000000" stroke-width="1" x1="60" y1="84" x2="589" y2="84"/>
<line opacity="0.1" stroke="#000000" stroke-width="1" x1="60" y1="78" x2="589" y2="78"/>
<line opacity="0.1" stroke="#000000" stroke-width="1" x1="60" y1="71" x2="589" y2="71"/>
<line opacity="0.1" stroke="#000000" stroke-width="1" x1="60" y1="65" x2="589" y2="65"/>
<line opacity="0.1" stroke="#000000" stroke-width="1" x1="60" y1="58" x2="589" y2="58"/>
<line opacity="0.1" stroke="#000000" stroke-width="1" x1="60" y1="52" x2="589" y2="52"/>
<line opacity="0.1" stroke="#000000" stroke-width="1" x1="60" y1="45" x2="589" y2="45"/>
<line opacity="0.1" stroke="#000000" stroke-width="1" x1="60" y1="39" x2="589" y2="39"/>
<line opacity="0.1" stroke="#000000" stroke-width="1" x1="60" y1="32" x2="589" y2="32"/>
<line opacity="0.1" stroke="#000000" stroke-width="1" x1="60" y1="26" x2="589" y2="26"/>
<line opacity="0.1" stroke="#000000" stroke-width="1" x1="60" y1="19" x2="589" y2="19"/>
<line opacity="0.1" stroke="#000000" stroke-width="1" x1="60" y1="13" x2="589" y2="13"/>
<text x="10" y="175" dy="0.76em" text-anchor="middle" font-family="sans-serif" font-size="9.67741935483871" opacity="1" fill="#000000" transform="rotate(270, 10, 175)">
Fraction of dependent crates
</text>
<line opacity="0.2" stroke="#000000" stroke-width="1" x1="60" y1="324" x2="589" y2="324"/>
<line opacity="0.2" stroke="#000000" stroke-width="1" x1="60" y1="259" x2="589" y2="259"/>
<line opacity="0.2" stroke="#000000" stroke-width="1" x1="60" y1="194" x2="589" y2="194"/>
<line opacity="0.2" stroke="#000000" stroke-width="1" x1="60" y1="130" x2="589" y2="130"/>
<line opacity="0.2" stroke="#000000" stroke-width="1" x1="60" y1="65" x2="589" y2="65"/>
<polyline fill="none" opacity="1" stroke="#000000" stroke-width="1" points="59,10 59,339 "/>
<text x="50" y="324" dy="0.5ex" text-anchor="end" font-family="sans-serif" font-size="9.67741935483871" opacity="1" fill="#000000">
0.1
</text>
<polyline fill="none" opacity="1" stroke="#000000" stroke-width="1" points="54,324 59,324 "/>
<text x="50" y="259" dy="0.5ex" text-anchor="end" font-family="sans-serif" font-size="9.67741935483871" opacity="1" fill="#000000">
0.15
</text>
<polyline fill="none" opacity="1" stroke="#000000" stroke-width="1" points="54,259 59,259 "/>
<text x="50" y="194" dy="0.5ex" text-anchor="end" font-family="sans-serif" font-size="9.67741935483871" opacity="1" fill="#000000">
0.2
</text>
<polyline fill="none" opacity="1" stroke="#000000" stroke-width="1" points="54,194 59,194 "/>
<text x="50" y="130" dy="0.5ex" text-anchor="end" font-family="sans-serif" font-size="9.67741935483871" opacity="1" fill="#000000">
0.25
</text>
<polyline fill="none" opacity="1" stroke="#000000" stroke-width="1" points="54,130 59,130 "/>
<text x="50" y="65" dy="0.5ex" text-anchor="end" font-family="sans-serif" font-size="9.67741935483871" opacity="1" fill="#000000">
0.3
</text>
<polyline fill="none" opacity="1" stroke="#000000" stroke-width="1" points="54,65 59,65 "/>
<polyline fill="none" opacity="1" stroke="#000000" stroke-width="1" points="60,340 589,340 "/>
<text x="60" y="350" dy="0.76em" text-anchor="middle" font-family="sans-serif" font-size="9.67741935483871" opacity="1" fill="#000000">
2026-04-10
</text>
<polyline fill="none" opacity="1" stroke="#000000" stroke-width="1" points="60,340 60,345 "/>
<text x="228" y="350" dy="0.76em" text-anchor="middle" font-family="sans-serif" font-size="9.67741935483871" opacity="1" fill="#000000">
2026-04-17
</text>
<polyline fill="none" opacity="1" stroke="#000000" stroke-width="1" points="228,340 228,345 "/>
<text x="396" y="350" dy="0.76em" text-anchor="middle" font-family="sans-serif" font-size="9.67741935483871" opacity="1" fill="#000000">
2026-04-24
</text>
<polyline fill="none" opacity="1" stroke="#000000" stroke-width="1" points="396,340 396,345 "/>
<text x="564" y="350" dy="0.76em" text-anchor="middle" font-family="sans-serif" font-size="9.67741935483871" opacity="1" fill="#000000">
2026-05-01
</text>
<polyline fill="none" opacity="1" stroke="#000000" stroke-width="1" points="564,340 564,345 "/>
<polyline fill="none" opacity="1" stroke="#E61919" stroke-width="2" points="60,60 84,59 108,59 132,58 156,58 180,57 204,57 228,57 252,56 276,56 300,56 324,56 348,55 372,55 396,54 420,54 444,53 468,53 492,52 516,52 540,51 564,51 589,51 "/>
<polyline fill="none" opacity="1" stroke="#BDE619" stroke-width="2" points="60,133 84,133 108,132 132,131 156,131 180,130 204,130 228,130 252,129 276,129 300,128 324,128 348,127 372,127 396,126 420,125 444,125 468,124 492,124 516,123 540,123 564,122 589,122 "/>
<polyline fill="none" opacity="1" stroke="#19E66B" stroke-width="2" points="60,230 84,230 108,229 132,229 156,228 180,228 204,228 228,227 252,227 276,227 300,227 324,226 348,226 372,225 396,225 420,225 444,225 468,224 492,224 516,223 540,223 564,223 589,223 "/>
<polyline fill="none" opacity="1" stroke="#196BE6" stroke-width="2" points="60,178 84,178 108,177 132,176 156,176 180,176 204,175 228,175 252,175 276,175 300,174 324,174 348,173 372,173 396,173 420,172 444,172 468,171 492,171 516,171 540,170 564,170 589,170 "/>
<polyline fill="none" opacity="1" stroke="#BD19E6" stroke-width="2" points="60,327 84,327 108,326 132,326 156,325 180,325 204,325 228,324 252,324 276,324 300,324 324,324 348,323 372,323 396,322 420,322 444,322 468,321 492,321 516,321 540,321 564,321 589,320 "/>
<rect x="65" y="130" width="101" height="89" opacity="1" fill="#FFFFFF" stroke="none"/>
<rect x="65" y="130" width="101" height="89" opacity="1" fill="none" stroke="#000000"/>
<text x="105" y="140" dy="0.76em" text-anchor="start" font-family="sans-serif" font-size="9.67741935483871" opacity="1" fill="#000000">
serde
</text>
<text x="105" y="155" dy="0.76em" text-anchor="start" font-family="sans-serif" font-size="9.67741935483871" opacity="1" fill="#000000">
serde_json
</text>
<text x="105" y="170" dy="0.76em" text-anchor="start" font-family="sans-serif" font-size="9.67741935483871" opacity="1" fill="#000000">
thiserror
</text>
<text x="105" y="185" dy="0.76em" text-anchor="start" font-family="sans-serif" font-size="9.67741935483871" opacity="1" fill="#000000">
tokio
</text>
<text x="105" y="200" dy="0.76em" text-anchor="start" font-family="sans-serif" font-size="9.67741935483871" opacity="1" fill="#000000">
tracing
</text>
<polyline fill="none" opacity="1" stroke="#E61919" stroke-width="2" points="75,144 95,144 "/>
<polyline fill="none" opacity="1" stroke="#BDE619" stroke-width="2" points="75,159 95,159 "/>
<polyline fill="none" opacity="1" stroke="#19E66B" stroke-width="2" points="75,174 95,174 "/>
<polyline fill="none" opacity="1" stroke="#196BE6" stroke-width="2" points="75,189 95,189 "/>
<polyline fill="none" opacity="1" stroke="#BD19E6" stroke-width="2" points="75,204 95,204 "/>
</svg>
