<svg width="600" height="400" viewBox="0 0 600 400" xmlns="http://www.w3.org/2000/svg">
<rect x="0" y="0" width="600" height="400" opacity="1" fill="#FFFFFF" stroke="none"/>
<line opacity="0.1" stroke="#000000" stroke-width="1" x1="60" y1="337" x2="589" y2="337"/>
<line opacity="0.1" stroke="#000000" stroke-width="1" x1="60" y1="332" x2="589" y2="332"/>
<line opacity="0.1" stroke="#000000" stroke-width="1" x1="60" y1="326" x2="589" y2="326"/>
<line opacity="0.1" stroke="#000000" stroke-width="1" x1="60" y1="320" x2="589" y2="320"/>
<line opacity="0.1" stroke="#000000" stroke-width="1" x1="60" y1="314" x2="589" y2="314"/>
<line opacity="0.1" stroke="#000000" stroke-width="1" x1="60" y1="309" x2="589" y2="309"/>
<line opacity="0.1" stroke="#000000" stroke-width="1" x1="60" y1="303" x2="589" y2="303"/>
<line opacity="0.1" stroke="#000000" stroke-width="1" x1="60" y1="297" x2="589" y2="297"/>
<line opacity="0.1" stroke="#000000" stroke-width="1" x1="60" y1="291" x2="589" y2="291"/>
<line opacity="0.1" stroke="#000000" stroke-width="1" x1="60" y1="286" x2="589" y2="286"/>
<line opacity="0.1" stroke="#000000" stroke-width="1" x1="60" y1="280" x2="589" y2="280"/>
<line opacity="0.1" stroke="#000000" stroke-width="1" x1="60" y1="274" x2="589" y2="274"/>
<line opacity="0.1" stroke="#000000" stroke-width="1" x1="60" y1="269" x2="589" y2="269"/>
<line opacity="0.1" stroke="#000000" stroke-width="1" x1="60" y1="263" x2="589" y2="263"/>
<line opacity="0.1" stroke="#000000" stroke-width="1" x1="60" y1="257" x2="589" y2="257"/>
<line opacity="0.1" stroke="#000000" stroke-width="1" x1="60" y1="251" x2="589" y2="251"/>
<line opacity="0.1" stroke="#000000" stroke-width="1" x1="60" y1="246" x2="589" y2="246"/>
<line opacity="0.1" stroke="#000000" stroke-width="1" x1="60" y1="240" x2="589" y2="240"/>
<line opacity="0.1" stroke="#000000" stroke-width="1" x1="60" y1="234" x2="589" y2="234"/>
<line opacity="0.1" stroke="#000000" stroke-width="1" x1="60" y1="228" x2="589" y2="228"/>
<line opacity="0.1" stroke="#000000" stroke-width="1" x1="60" y1="223" x2="589" y2="223"/>
<line opacity="0.1" stroke="#000000" stroke-width="1" x1="60" y1="217" x2="589" y2="217"/>
<line opacity="0.1" stroke="#000000" stroke-width="1" x1="60" y1="211" x2="589" y2="211"/>
<line opacity="0.1" stroke="#000000" stroke-width="1" x1="60" y1="205" x2="589" y2="205"/>
<line opacity="0.1" stroke="#000000" stroke-width="1" x1="60" y1="200" x2="589" y2="200"/>
<line opacity="0.1" stroke="#000000" stroke-width="1" x1="60" y1="194" x2="589" y2="194"/>
<line opacity="0.1" stroke="#000000" stroke-width="1" x1="60" y1="188" x2="589" y2="188"/>
<line opacity="0.1" stroke="#000000" stroke-width="1" x1="60" y1="182" x2="589" y2="182"/>
<line opacity="0.1" stroke="#000000" stroke-width="1" x1="60" y1="177" x2="589" y2="177"/>
<line opacity="0.1" stroke="#000000" stroke-width="1" x1="60" y1="171" x2="589" y2="171"/>
<line opacity="0.1" stroke="#000000" stroke-width="1" x1="60" y1="165" x2="589" y2="165"/>
<line opacity="0.1" stroke="#000000" stroke-width="1" x1="60" y1="159" x2="589" y2="159"/>
<line opacity="0.1" stroke="#000000" stroke-width="1" x1="60" y1="154" x2="589" y2="154"/>
<line opacity="0.1" stroke="#000000" stroke-width="1" x1="60" y1="148" x2="589" y2="148"/>
<line opacity="0.1" stroke="#000000" stroke-width="1" x1="60" y1="142" x2="589" y2="142"/>
<line opacity="0.1" stroke="#000000" stroke-width="1" x1="60" y1="136" x2="589" y2="136"/>
<line opacity="0.1" stroke="#000000" stroke-width="1" x1="60" y1="131" x2="589" y2="131"/>
<line opacity="0.1" stroke="#000000" stroke-width="1" x1="60" y1="125" x2="589" y2="125"/>
<line opacity="0.1" stroke="#000000" stroke-width="1" x1="60" y1="119" x2="589" y2="119"/>
<line opacity="0.1" stroke="#000000" stroke-width="1" x1="60" y1="113" x2="589" y2="113"/>
<line opacity="0.1" stroke="#000000" stroke-width="1" x1="60" y1="108" x2="589" y2="108"/>
<line opacity="0.1" stroke="#000000" stroke-width="1" x1="60" y1="102" x2="589" y2="102"/>
<line opacity="0.1" stroke="#000000" stroke-width="1" x1="60" y1="96" x2="589" y2="96"/>
<line opacity="0.1" stroke="#000000" stroke-width="1" x1="60" y1="90" x2="589" y2="90"/>
<line opacity="0.1" stroke="#000000" stroke-width="1" x1="60" y1="85" x2="589" y2="85"/>
<line opacity="0.1" stroke="#000000" stroke-width="1" x1="60" y1="79" x2="589" y2="79"/>
<line opacity="0.1" stroke="#000000" stroke-width="1" x1="60" y1="73" x2="589" y2="73"/>
<line opacity="0.1" stroke="#000000" stroke-width="1" x1="60" y1="67" x2="589" y2="67"/>
<line opacity="0.1" stroke="#000000" stroke-width="1" x1="60" y1="62" x2="589" y2="62"/>
<line opacity="0.1" stroke="#000000" stroke-width="1" x1="60" y1="56" x2="589" y2="56"/>
<line opacity="0.1" stroke="#000000" stroke-width="1" x1="60" y1="50" x2="589" y2="50"/>
<line opacity="0.1" stroke="#000000" stroke-width="1" x1="60" y1="44" x2="589" y2="44"/>
<line opacity="0.1" stroke="#000000" stroke-width="1" x1="60" y1="39" x2="589" y2="39"/>
<line opacity="0.1" stroke="#000000" stroke-width="1" x1="60" y1="33" x2="589" y2="33"/>
<line opacity="0.1" stroke="#000000" stroke-width="1" x1="60" y1="27" x2="589" y2="27"/>
<line opacity="0.1" stroke="#000000" stroke-width="1" x1="60" y1="21" x2="589" y2="21"/>
<line opacity="0.1" stroke="#000000" stroke-width="1" x1="60" y1="16" x2="589" y2="16"/>
<text x="10" y="175" dy="0.76em" text-anchor="middle" font-family="sans-serif" font-size="9.67741935483871" opacity="1" fill="#000000" transform="rotate(270, 10, 175)">
Number of dependent crates
</text>
<line opacity="0.2" stroke="#000000" stroke-width="1" x1="60" y1="337" x2="589" y2="337"/>
<line opacity="0.2" stroke="#000000" stroke-width="1" x1="60" y1="280" x2="589" y2="280"/>
<line opacity="0.2" stroke="#000000" stroke-width="1" x1="60" y1="223" x2="589" y2="223"/>
<line opacity="0.2" stroke="#000000" stroke-width="1" x1="60" y1="165" x2="589" y2="165"/>
<line opacity="0.2" stroke="#000000" stroke-width="1" x1="60" y1="108" x2="589" y2="108"/>
<line opacity="0.2" stroke="#000000" stroke-width="1" x1="60" y1="50" x2="589" y2="50"/>
<polyline fill="none" opacity="1" stroke="#000000" stroke-width="1" points="59,10 59,339 "/>
<text x="50" y="337" dy="0.5ex" text-anchor="end" font-family="sans-serif" font-size="9.67741935483871" opacity="1" fill="#000000">
15000
</text>
<polyline fill="none" opacity="1" stroke="#000000" stroke-width="1" points="54,337 59,337 "/>
<text x="50" y="280" dy="0.5ex" text-anchor="end" font-family="sans-serif" font-size="9.67741935483871" opacity="1" fill="#000000">
20000
</text>
<polyline fill="none" opacity="1" stroke="#000000" stroke-width="1" points="54,280 59,280 "/>
<text x="50" y="223" dy="0.5ex" text-anchor="end" font-family="sans-serif" font-size="9.67741935483871" opacity="1" fill="#000000">
25000
</text>
<polyline fill="none" opacity="1" stroke="#000000" stroke-width="1" points="54,223 59,223 "/>
<text x="50" y="165" dy="0.5ex" text-anchor="end" font-family="sans-serif" font-size="9.67741935483871" opacity="1" fill="#000000">
30000
</text>
<polyline fill="none" opacity="1" stroke="#000000" stroke-width="1" points="54,165 59,165 "/>
<text x="50" y="108" dy="0.5ex" text-anchor="end" font-family="sans-serif" font-size="9.67741935483871" opacity="1" fill="#000000">
35000
</text>
<polyline fill="none" opacity="1" stroke="#000000" stroke-width="1" points="54,108 59,108 "/>
<text x="50" y="50" dy="0.5ex" text-anchor="end" font-family="sans-serif" font-size="9.67741935483871" opacity="1" fill="#000000">
40000
</text>
<polyline fill="none" opacity="1" stroke="#000000" stroke-width="1" points="54,50 59,50 "/>
<polyline fill="none" opacity="1" stroke="#000000" stroke-width="1" points="60,340 589,340 "/>
<text x="60" y="350" dy="0.76em" text-anchor="middle" font-family="sans-serif" font-size="9.67741935483871" opacity="1" fill="#000000">
2024-11-10
</text>
<polyline fill="none" opacity="1" stroke="#000000" stroke-width="1" points="60,340 60,345 "/>
<text x="192" y="350" dy="0.76em" text-anchor="middle" font-family="sans-serif" font-size="9.67741935483871" opacity="1" fill="#000000">
2024-11-17
</text>
<polyline fill="none" opacity="1" stroke="#000000" stroke-width="1" points="192,340 192,345 "/>
<text x="324" y="350" dy="0.76em" text-anchor="middle" font-family="sans-serif" font-size="9.67741935483871" opacity="1" fill="#000000">
2024-11-24
</text>
<polyline fill="none" opacity="1" stroke="#000000" stroke-width="1" points="324,340 324,345 "/>
<text x="456" y="350" dy="0.76em" text-anchor="middle" font-family="sans-serif" font-size="9.67741935483871" opacity="1" fill="#000000">
2024-12-01
</text>
<polyline fill="none" opacity="1" stroke="#000000" stroke-width="1" points="456,340 456,345 "/>
<text x="589" y="350" dy="0.76em" text-anchor="middle" font-family="sans-serif" font-size="9.67741935483871" opacity="1" fill="#000000">
2024-12-08
</text>
<polyline fill="none" opacity="1" stroke="#000000" stroke-width="1" points="589,340 589,345 "/>
<polyline fill="none" opacity="1" stroke="#E61919" stroke-width="2" points="60,321 60,320 78,320 78,320 97,320 97,320 116,320 116,319 135,319 135,319 154,319 154,319 173,319 173,319 192,319 192,319 211,319 211,318 230,318 230,318 248,318 248,318 267,318 267,318 286,318 286,318 305,318 305,318 324,318 324,317 343,317 343,317 362,317 362,317 381,317 381,317 400,317 400,317 418,317 418,316 437,316 437,316 456,316 456,316 475,316 475,316 494,316 494,316 513,316 513,315 532,315 532,315 551,315 551,315 570,315 570,315 589,315 "/>
<polyline fill="none" opacity="1" stroke="#BDE619" stroke-width="2" points="60,66 60,66 78,66 78,65 97,65 97,65 116,65 116,65 135,65 135,64 154,64 154,64 173,64 173,64 192,64 192,63 211,63 211,63 230,63 230,62 248,62 248,62 267,62 267,62 286,62 286,61 305,61 305,61 324,61 324,61 343,61 343,60 362,60 362,60 381,60 381,60 400,60 400,59 418,59 418,59 437,59 437,59 456,59 456,59 475,59 475,58 494,58 494,58 513,58 513,57 532,57 532,57 551,57 551,56 570,56 570,56 589,56 "/>
<polyline fill="none" opacity="1" stroke="#19E66B" stroke-width="2" points="60,186 60,186 78,186 78,186 97,186 97,185 116,185 116,185 135,185 135,185 154,185 154,184 173,184 173,184 192,184 192,184 211,184 211,184 230,184 230,183 248,183 248,183 267,183 267,183 286,183 286,183 305,183 305,182 324,182 324,182 343,182 343,182 362,182 362,181 381,181 381,181 400,181 400,181 418,181 418,181 437,181 437,180 456,180 456,180 475,180 475,180 494,180 494,180 513,180 513,179 532,179 532,179 551,179 551,179 570,179 570,178 589,178 "/>
<polyline fill="none" opacity="1" stroke="#196BE6" stroke-width="2" points="60,303 60,303 78,303 78,303 97,303 97,302 116,302 116,302 135,302 135,302 154,302 154,301 173,301 173,301 192,301 192,301 211,301 211,301 230,301 230,301 248,301 248,300 267,300 267,300 286,300 286,300 305,300 305,299 324,299 324,299 343,299 343,299 362,299 362,299 381,299 381,299 400,299 400,298 418,298 418,298 437,298 437,298 456,298 456,298 475,298 475,298 494,298 494,298 513,298 513,298 532,298 532,297 551,297 551,297 570,297 570,297 589,297 "/>
<polyline fill="none" opacity="1" stroke="#BD19E6" stroke-width="2" points="60,234 60,234 78,234 78,234 97,234 97,233 116,233 116,233 135,233 135,233 154,233 154,233 173,233 173,233 192,233 192,232 211,232 211,232 230,232 230,232 248,232 248,232 267,232 267,231 286,231 286,231 305,231 305,231 324,231 324,231 343,231 343,230 362,230 362,230 381,230 381,230 400,230 400,229 418,229 418,229 437,229 437,229 456,229 456,229 475,229 475,228 494,228 494,228 513,228 513,228 532,228 532,228 551,228 551,227 570,227 570,227 589,227 "/>
<rect x="65" y="130" width="101" height="89" opacity="1" fill="#FFFFFF" stroke="none"/>
<rect x="65" y="130" width="101" height="89" opacity="1" fill="none" stroke="#000000"/>
<text x="105" y="140" dy="0.76em" text-anchor="start" font-family="sans-serif" font-size="9.67741935483871" opacity="1" fill="#000000">
anyhow
</text>
<text x="105" y="155" dy="0.76em" text-anchor="start" font-family="sans-serif" font-size="9.67741935483871" opacity="1" fill="#000000">
serde
</text>
<text x="105" y="170" dy="0.76em" text-anchor="start" font-family="sans-serif" font-size="9.67741935483871" opacity="1" fill="#000000">
serde_json
</text>
<text x="105" y="185" dy="0.76em" text-anchor="start" font-family="sans-serif" font-size="9.67741935483871" opacity="1" fill="#000000">
thiserror
</text>
<text x="105" y="200" dy="0.76em" text-anchor="start" font-family="sans-serif" font-size="9.67741935483871" opacity="1" fill="#000000">
tokio
</text>
<polyline fill="none" opacity="1" stroke="#E61919" stroke-width="2" points="75,144 95,144 "/>
<polyline fill="none" opacity="1" stroke="#BDE619" stroke-width="2" points="75,159 95,159 "/>
<polyline fill="none" opacity="1" stroke="#19E66B" stroke-width="2" points="75,174 95,174 "/>
<polyline fill="none" opacity="1" stroke="#196BE6" stroke-width="2" points="75,189 95,189 "/>
<polyline fill="none" opacity="1" stroke="#BD19E6" stroke-width="2" points="75,204 95,204 "/>
</svg>
