<svg width="600" height="400" viewBox="0 0 600 400" xmlns="http://www.w3.org/2000/svg">
<rect x="0" y="0" width="600" height="400" opacity="1" fill="#FFFFFF" stroke="none"/>
<line opacity="0.1" stroke="#000000" stroke-width="1" x1="60" y1="339" x2="589" y2="339"/>
<line opacity="0.1" stroke="#000000" stroke-width="1" x1="60" y1="332" x2="589" y2="332"/>
<line opacity="0.1" stroke="#000000" stroke-width="1" x1="60" y1="326" x2="589" y2="326"/>
<line opacity="0.1" stroke="#000000" stroke-width="1" x1="60" y1="319" x2="589" y2="319"/>
<line opacity="0.1" stroke="#000000" stroke-width="1" x1="60" y1="313" x2="589" y2="313"/>
<line opacity="0.1" stroke="#000000" stroke-width="1" x1="60" y1="306" x2="589" y2="306"/>
<line opacity="0.1" stroke="#000000" stroke-width="1" x1="60" y1="300" x2="589" y2="300"/>
<line opacity="0.1" stroke="#000000" stroke-width="1" x1="60" y1="293" x2="589" y2="293"/>
<line opacity="0.1" stroke="#000000" stroke-width="1" x1="60" y1="287" x2="589" y2="287"/>
<line opacity="0.1" stroke="#000000" stroke-width="1" x1="60" y1="280" x2="589" y2="280"/>
<line opacity="0.1" stroke="#000000" stroke-width="1" x1="60" y1="274" x2="589" y2="274"/>
<line opacity="0.1" stroke="#000000" stroke-width="1" x1="60" y1="267" x2="589" y2="267"/>
<line opacity="0.1" stroke="#000000" stroke-width="1" x1="60" y1="261" x2="589" y2="261"/>
<line opacity="0.1" stroke="#000000" stroke-width="1" x1="60" y1="254" x2="589" y2="254"/>
<line opacity="0.1" stroke="#000000" stroke-width="1" x1="60" y1="248" x2="589" y2="248"/>
<line opacity="0.1" stroke="#000000" stroke-width="1" x1="60" y1="241" x2="589" y2="241"/>
<line opacity="0.1" stroke="#000000" stroke-width="1" x1="60" y1="235" x2="589" y2="235"/>
<line opacity="0.1" stroke="#000000" stroke-width="1" x1="60" y1="228" x2="589" y2="228"/>
<line opacity="0.1" stroke="#000000" stroke-width="1" x1="60" y1="222" x2="589" y2="222"/>
<line opacity="0.1" stroke="#000000" stroke-width="1" x1="60" y1="215" x2="589" y2="215"/>
<line opacity="0.1" stroke="#000000" stroke-width="1" x1="60" y1="209" x2="589" y2="209"/>
<line opacity="0.1" stroke="#000000" stroke-width="1" x1="60" y1="202" x2="589" y2="202"/>
<line opacity="0.1" stroke="#000000" stroke-width="1" x1="60" y1="196" x2="589" y2="196"/>
<line opacity="0.1" stroke="#000000" stroke-width="1" x1="60" y1="189" x2="589" y2="189"/>
<line opacity="0.1" stroke="#000000" stroke-width="1" x1="60" y1="183" x2="589" y2="183"/>
<line opacity="0.1" stroke="#000000" stroke-width="1" x1="60" y1="176" x2="589" y2="176"/>
<line opacity="0.1" stroke="#000000" stroke-width="1" x1="60" y1="170" x2="589" y2="170"/>
<line opacity="0.1" stroke="#000000" stroke-width="1" x1="60" y1="163" x2="589" y2="163"/>
<line opacity="0.1" stroke="#000000" stroke-width="1" x1="60" y1="157" x2="589" y2="157"/>
<line opacity="0.1" stroke="#000000" stroke-width="1" x1="60" y1="150" x2="589" y2="150"/>
<line opacity="0.1" stroke="#000000" stroke-width="1" x1="60" y1="144" x2="589" y2="144"/>
<line opacity="0.1" stroke="#000000" stroke-width="1" x1="60" y1="137" x2="589" y2="137"/>
<line opacity="0.1" stroke="#000000" stroke-width="1" x1="60" y1="131" x2="589" y2="131"/>
<line opacity="0.1" stroke="#000000" stroke-width="1" x1="60" y1="124" x2="589" y2="124"/>
<line opacity="0.1" stroke="#000000" stroke-width="1" x1="60" y1="118" x2="589" y2="118"/>
<line opacity="0.1" stroke="#000000" stroke-width="1" x1="60" y1="111" x2="589" y2="111"/>
<line opacity="0.1" stroke="#000000" stroke-width="1" x1="60" y1="105" x2="589" y2="105"/>
<line opacity="0.1" stroke="#000000" stroke-width="1" x1="60" y1="98" x2="589" y2="98"/>
<line opacity="0.1" stroke="#000000" stroke-width="1" x1="60" y1="92" x2="589" y2="92"/>
<line opacity="0.1" stroke="#000000" stroke-width="1" x1="60" y1="85" x2="589" y2="85"/>
<line opacity="0.1" stroke="#000000" stroke-width="1" x1="60" y1="79" x2="589" y2="79"/>
<line opacity="0.1" stroke="#000000" stroke-width="1" x1="60" y1="72" x2="589" y2="72"/>
<line opacity="0.1" stroke="#000000" stroke-width="1" x1="60" y1="66" x2="589" y2="66"/>
<line opacity="0.1" stroke="#000000" stroke-width="1" x1="60" y1="59" x2="589" y2="59"/>
<line opacity="0.1" stroke="#000000" stroke-width="1" x1="60" y1="53" x2="589" y2="53"/>
<line opacity="0.1" stroke="#000000" stroke-width="1" x1="60" y1="46" x2="589" y2="46"/>
<line opacity="0.1" stroke="#000000" stroke-width="1" x1="60" y1="40" x2="589" y2="40"/>
<line opacity="0.1" stroke="#000000" stroke-width="1" x1="60" y1="33" x2="589" y2="33"/>
<line opacity="0.1" stroke="#000000" stroke-width="1" x1="60" y1="27" x2="589" y2="27"/>
<line opacity="0.1" stroke="#000000" stroke-width="1" x1="60" y1="20" x2="589" y2="20"/>
<line opacity="0.1" stroke="#000000" stroke-width="1" x1="60" y1="14" x2="589" y2="14"/>
<text x="10" y="175" dy="0.76em" text-anchor="middle" font-family="sans-serif" font-size="9.67741935483871" opacity="1" fill="#000000" transform="rotate(270, 10, 175)">
Fraction of dependent crates
</text>
<line opacity="0.2" stroke="#000000" stroke-width="1" x1="60" y1="332" x2="589" y2="332"/>
<line opacity="0.2" stroke="#000000" stroke-width="1" x1="60" y1="267" x2="589" y2="267"/>
<line opacity="0.2" stroke="#000000" stroke-width="1" x1="60" y1="202" x2="589" y2="202"/>
<line opacity="0.2" stroke="#000000" stroke-width="1" x1="60" y1="137" x2="589" y2="137"/>
<line opacity="0.2" stroke="#000000" stroke-width="1" x1="60" y1="72" x2="589" y2="72"/>
<polyline fill="none" opacity="1" stroke="#000000" stroke-width="1" points="59,10 59,339 "/>
<text x="50" y="332" dy="0.5ex" text-anchor="end" font-family="sans-serif" font-size="9.67741935483871" opacity="1" fill="#000000">
0.1
</text>
<polyline fill="none" opacity="1" stroke="#000000" stroke-width="1" points="54,332 59,332 "/>
<text x="50" y="267" dy="0.5ex" text-anchor="end" font-family="sans-serif" font-size="9.67741935483871" opacity="1" fill="#000000">
0.15
</text>
<polyline fill="none" opacity="1" stroke="#000000" stroke-width="1" points="54,267 59,267 "/>
<text x="50" y="202" dy="0.5ex" text-anchor="end" font-family="sans-serif" font-size="9.67741935483871" opacity="1" fill="#000000">
0.2
</text>
<polyline fill="none" opacity="1" stroke="#000000" stroke-width="1" points="54,202 59,202 "/>
<text x="50" y="137" dy="0.5ex" text-anchor="end" font-family="sans-serif" font-size="9.67741935483871" opacity="1" fill="#000000">
0.25
</text>
<polyline fill="none" opacity="1" stroke="#000000" stroke-width="1" points="54,137 59,137 "/>
<text x="50" y="72" dy="0.5ex" text-anchor="end" font-family="sans-serif" font-size="9.67741935483871" opacity="1" fill="#000000">
0.3
</text>
<polyline fill="none" opacity="1" stroke="#000000" stroke-width="1" points="54,72 59,72 "/>
<polyline fill="none" opacity="1" stroke="#000000" stroke-width="1" points="60,340 589,340 "/>
<text x="60" y="350" dy="0.76em" text-anchor="middle" font-family="sans-serif" font-size="9.67741935483871" opacity="1" fill="#000000">
2026-05-10
</text>
<polyline fill="none" opacity="1" stroke="#000000" stroke-width="1" points="60,340 60,345 "/>
<text x="118" y="350" dy="0.76em" text-anchor="middle" font-family="sans-serif" font-size="9.67741935483871" opacity="1" fill="#000000">
2026-05-11
</text>
<polyline fill="none" opacity="1" stroke="#000000" stroke-width="1" points="118,340 118,345 "/>
<text x="177" y="350" dy="0.76em" text-anchor="middle" font-family="sans-serif" font-size="9.67741935483871" opacity="1" fill="#000000">
2026-05-12
</text>
<polyline fill="none" opacity="1" stroke="#000000" stroke-width="1" points="177,340 177,345 "/>
<text x="236" y="350" dy="0.76em" text-anchor="middle" font-family="sans-serif" font-size="9.67741935483871" opacity="1" fill="#000000">
2026-05-13
</text>
<polyline fill="none" opacity="1" stroke="#000000" stroke-width="1" points="236,340 236,345 "/>
<text x="295" y="350" dy="0.76em" text-anchor="middle" font-family="sans-serif" font-size="9.67741935483871" opacity="1" fill="#000000">
2026-05-14
</text>
<polyline fill="none" opacity="1" stroke="#000000" stroke-width="1" points="295,340 295,345 "/>
<text x="353" y="350" dy="0.76em" text-anchor="middle" font-family="sans-serif" font-size="9.67741935483871" opacity="1" fill="#000000">
2026-05-15
</text>
<polyline fill="none" opacity="1" stroke="#000000" stroke-width="1" points="353,340 353,345 "/>
<text x="412" y="350" dy="0.76em" text-anchor="middle" font-family="sans-serif" font-size="9.67741935483871" opacity="1" fill="#000000">
2026-05-16
</text>
<polyline fill="none" opacity="1" stroke="#000000" stroke-width="1" points="412,340 412,345 "/>
<text x="471" y="350" dy="0.76em" text-anchor="middle" font-family="sans-serif" font-size="9.67741935483871" opacity="1" fill="#000000">
2026-05-17
</text>
<polyline fill="none" opacity="1" stroke="#000000" stroke-width="1" points="471,340 471,345 "/>
<text x="530" y="350" dy="0.76em" text-anchor="middle" font-family="sans-serif" font-size="9.67741935483871" opacity="1" fill="#000000">
2026-05-18
</text>
<polyline fill="none" opacity="1" stroke="#000000" stroke-width="1" points="530,340 530,345 "/>
<text x="589" y="350" dy="0.76em" text-anchor="middle" font-family="sans-serif" font-size="9.67741935483871" opacity="1" fill="#000000">
2026-05-19
</text>
<polyline fill="none" opacity="1" stroke="#000000" stroke-width="1" points="589,340 589,345 "/>
<polyline fill="none" opacity="1" stroke="#E61919" stroke-width="2" points="60,55 118,54 177,54 236,53 295,53 353,53 412,52 471,52 530,52 589,52 "/>
<polyline fill="none" opacity="1" stroke="#BDE619" stroke-width="2" points="60,125 118,124 177,124 236,123 295,123 353,123 412,122 471,121 530,121 589,120 "/>
<polyline fill="none" opacity="1" stroke="#19E66B" stroke-width="2" points="60,227 118,226 177,226 236,226 295,225 353,225 412,225 471,224 530,224 589,224 "/>
<polyline fill="none" opacity="1" stroke="#196BE6" stroke-width="2" points="60,172 118,172 177,172 236,171 295,171 353,171 412,171 471,170 530,170 589,169 "/>
<polyline fill="none" opacity="1" stroke="#BD19E6" stroke-width="2" points="60,326 118,325 177,325 236,325 295,325 353,324 412,324 471,324 530,323 589,323 "/>
<rect x="65" y="130" width="101" height="89" opacity="1" fill="#FFFFFF" stroke="none"/>
<rect x="65" y="130" width="101" height="89" opacity="1" fill="none" stroke="#000000"/>
<text x="105" y="140" dy="0.76em" text-anchor="start" font-family="sans-serif" font-size="9.67741935483871" opacity="1" fill="#000000">
serde
</text>
<text x="105" y="155" dy="0.76em" text-anchor="start" font-family="sans-serif" font-size="9.67741935483871" opacity="1" fill="#000000">
serde_json
</text>
<text x="105" y="170" dy="0.76em" text-anchor="start" font-family="sans-serif" font-size="9.67741935483871" opacity="1" fill="#000000">
thiserror
</text>
<text x="105" y="185" dy="0.76em" text-anchor="start" font-family="sans-serif" font-size="9.67741935483871" opacity="1" fill="#000000">
tokio
</text>
<text x="105" y="200" dy="0.76em" text-anchor="start" font-family="sans-serif" font-size="9.67741935483871" opacity="1" fill="#000000">
tracing
</text>
<polyline fill="none" opacity="1" stroke="#E61919" stroke-width="2" points="75,144 95,144 "/>
<polyline fill="none" opacity="1" stroke="#BDE619" stroke-width="2" points="75,159 95,159 "/>
<polyline fill="none" opacity="1" stroke="#19E66B" stroke-width="2" points="75,174 95,174 "/>
<polyline fill="none" opacity="1" stroke="#196BE6" stroke-width="2" points="75,189 95,189 "/>
<polyline fill="none" opacity="1" stroke="#BD19E6" stroke-width="2" points="75,204 95,204 "/>
</svg>
