<svg width="600" height="400" viewBox="0 0 600 400" xmlns="http://www.w3.org/2000/svg">
<rect x="0" y="0" width="600" height="400" opacity="1" fill="#FFFFFF" stroke="none"/>
<line opacity="0.1" stroke="#000000" stroke-width="1" x1="60" y1="339" x2="589" y2="339"/>
<line opacity="0.1" stroke="#000000" stroke-width="1" x1="60" y1="334" x2="589" y2="334"/>
<line opacity="0.1" stroke="#000000" stroke-width="1" x1="60" y1="329" x2="589" y2="329"/>
<line opacity="0.1" stroke="#000000" stroke-width="1" x1="60" y1="324" x2="589" y2="324"/>
<line opacity="0.1" stroke="#000000" stroke-width="1" x1="60" y1="319" x2="589" y2="319"/>
<line opacity="0.1" stroke="#000000" stroke-width="1" x1="60" y1="314" x2="589" y2="314"/>
<line opacity="0.1" stroke="#000000" stroke-width="1" x1="60" y1="310" x2="589" y2="310"/>
<line opacity="0.1" stroke="#000000" stroke-width="1" x1="60" y1="305" x2="589" y2="305"/>
<line opacity="0.1" stroke="#000000" stroke-width="1" x1="60" y1="300" x2="589" y2="300"/>
<line opacity="0.1" stroke="#000000" stroke-width="1" x1="60" y1="295" x2="589" y2="295"/>
<line opacity="0.1" stroke="#000000" stroke-width="1" x1="60" y1="290" x2="589" y2="290"/>
<line opacity="0.1" stroke="#000000" stroke-width="1" x1="60" y1="285" x2="589" y2="285"/>
<line opacity="0.1" stroke="#000000" stroke-width="1" x1="60" y1="281" x2="589" y2="281"/>
<line opacity="0.1" stroke="#000000" stroke-width="1" x1="60" y1="276" x2="589" y2="276"/>
<line opacity="0.1" stroke="#000000" stroke-width="1" x1="60" y1="271" x2="589" y2="271"/>
<line opacity="0.1" stroke="#000000" stroke-width="1" x1="60" y1="266" x2="589" y2="266"/>
<line opacity="0.1" stroke="#000000" stroke-width="1" x1="60" y1="261" x2="589" y2="261"/>
<line opacity="0.1" stroke="#000000" stroke-width="1" x1="60" y1="256" x2="589" y2="256"/>
<line opacity="0.1" stroke="#000000" stroke-width="1" x1="60" y1="251" x2="589" y2="251"/>
<line opacity="0.1" stroke="#000000" stroke-width="1" x1="60" y1="247" x2="589" y2="247"/>
<line opacity="0.1" stroke="#000000" stroke-width="1" x1="60" y1="242" x2="589" y2="242"/>
<line opacity="0.1" stroke="#000000" stroke-width="1" x1="60" y1="237" x2="589" y2="237"/>
<line opacity="0.1" stroke="#000000" stroke-width="1" x1="60" y1="232" x2="589" y2="232"/>
<line opacity="0.1" stroke="#000000" stroke-width="1" x1="60" y1="227" x2="589" y2="227"/>
<line opacity="0.1" stroke="#000000" stroke-width="1" x1="60" y1="222" x2="589" y2="222"/>
<line opacity="0.1" stroke="#000000" stroke-width="1" x1="60" y1="218" x2="589" y2="218"/>
<line opacity="0.1" stroke="#000000" stroke-width="1" x1="60" y1="213" x2="589" y2="213"/>
<line opacity="0.1" stroke="#000000" stroke-width="1" x1="60" y1="208" x2="589" y2="208"/>
<line opacity="0.1" stroke="#000000" stroke-width="1" x1="60" y1="203" x2="589" y2="203"/>
<line opacity="0.1" stroke="#000000" stroke-width="1" x1="60" y1="198" x2="589" y2="198"/>
<line opacity="0.1" stroke="#000000" stroke-width="1" x1="60" y1="193" x2="589" y2="193"/>
<line opacity="0.1" stroke="#000000" stroke-width="1" x1="60" y1="188" x2="589" y2="188"/>
<line opacity="0.1" stroke="#000000" stroke-width="1" x1="60" y1="184" x2="589" y2="184"/>
<line opacity="0.1" stroke="#000000" stroke-width="1" x1="60" y1="179" x2="589" y2="179"/>
<line opacity="0.1" stroke="#000000" stroke-width="1" x1="60" y1="174" x2="589" y2="174"/>
<line opacity="0.1" stroke="#000000" stroke-width="1" x1="60" y1="169" x2="589" y2="169"/>
<line opacity="0.1" stroke="#000000" stroke-width="1" x1="60" y1="164" x2="589" y2="164"/>
<line opacity="0.1" stroke="#000000" stroke-width="1" x1="60" y1="159" x2="589" y2="159"/>
<line opacity="0.1" stroke="#000000" stroke-width="1" x1="60" y1="155" x2="589" y2="155"/>
<line opacity="0.1" stroke="#000000" stroke-width="1" x1="60" y1="150" x2="589" y2="150"/>
<line opacity="0.1" stroke="#000000" stroke-width="1" x1="60" y1="145" x2="589" y2="145"/>
<line opacity="0.1" stroke="#000000" stroke-width="1" x1="60" y1="140" x2="589" y2="140"/>
<line opacity="0.1" stroke="#000000" stroke-width="1" x1="60" y1="135" x2="589" y2="135"/>
<line opacity="0.1" stroke="#000000" stroke-width="1" x1="60" y1="130" x2="589" y2="130"/>
<line opacity="0.1" stroke="#000000" stroke-width="1" x1="60" y1="125" x2="589" y2="125"/>
<line opacity="0.1" stroke="#000000" stroke-width="1" x1="60" y1="121" x2="589" y2="121"/>
<line opacity="0.1" stroke="#000000" stroke-width="1" x1="60" y1="116" x2="589" y2="116"/>
<line opacity="0.1" stroke="#000000" stroke-width="1" x1="60" y1="111" x2="589" y2="111"/>
<line opacity="0.1" stroke="#000000" stroke-width="1" x1="60" y1="106" x2="589" y2="106"/>
<line opacity="0.1" stroke="#000000" stroke-width="1" x1="60" y1="101" x2="589" y2="101"/>
<line opacity="0.1" stroke="#000000" stroke-width="1" x1="60" y1="96" x2="589" y2="96"/>
<line opacity="0.1" stroke="#000000" stroke-width="1" x1="60" y1="92" x2="589" y2="92"/>
<line opacity="0.1" stroke="#000000" stroke-width="1" x1="60" y1="87" x2="589" y2="87"/>
<line opacity="0.1" stroke="#000000" stroke-width="1" x1="60" y1="82" x2="589" y2="82"/>
<line opacity="0.1" stroke="#000000" stroke-width="1" x1="60" y1="77" x2="589" y2="77"/>
<line opacity="0.1" stroke="#000000" stroke-width="1" x1="60" y1="72" x2="589" y2="72"/>
<line opacity="0.1" stroke="#000000" stroke-width="1" x1="60" y1="67" x2="589" y2="67"/>
<line opacity="0.1" stroke="#000000" stroke-width="1" x1="60" y1="62" x2="589" y2="62"/>
<line opacity="0.1" stroke="#000000" stroke-width="1" x1="60" y1="58" x2="589" y2="58"/>
<line opacity="0.1" stroke="#000000" stroke-width="1" x1="60" y1="53" x2="589" y2="53"/>
<line opacity="0.1" stroke="#000000" stroke-width="1" x1="60" y1="48" x2="589" y2="48"/>
<line opacity="0.1" stroke="#000000" stroke-width="1" x1="60" y1="43" x2="589" y2="43"/>
<line opacity="0.1" stroke="#000000" stroke-width="1" x1="60" y1="38" x2="589" y2="38"/>
<line opacity="0.1" stroke="#000000" stroke-width="1" x1="60" y1="33" x2="589" y2="33"/>
<line opacity="0.1" stroke="#000000" stroke-width="1" x1="60" y1="29" x2="589" y2="29"/>
<line opacity="0.1" stroke="#000000" stroke-width="1" x1="60" y1="24" x2="589" y2="24"/>
<line opacity="0.1" stroke="#000000" stroke-width="1" x1="60" y1="19" x2="589" y2="19"/>
<line opacity="0.1" stroke="#000000" stroke-width="1" x1="60" y1="14" x2="589" y2="14"/>
<text x="10" y="175" dy="0.76em" text-anchor="middle" font-family="sans-serif" font-size="9.67741935483871" opacity="1" fill="#000000" transform="rotate(270, 10, 175)">
Number of dependent crates
</text>
<line opacity="0.2" stroke="#000000" stroke-width="1" x1="60" y1="319" x2="589" y2="319"/>
<line opacity="0.2" stroke="#000000" stroke-width="1" x1="60" y1="271" x2="589" y2="271"/>
<line opacity="0.2" stroke="#000000" stroke-width="1" x1="60" y1="222" x2="589" y2="222"/>
<line opacity="0.2" stroke="#000000" stroke-width="1" x1="60" y1="174" x2="589" y2="174"/>
<line opacity="0.2" stroke="#000000" stroke-width="1" x1="60" y1="125" x2="589" y2="125"/>
<line opacity="0.2" stroke="#000000" stroke-width="1" x1="60" y1="77" x2="589" y2="77"/>
<line opacity="0.2" stroke="#000000" stroke-width="1" x1="60" y1="29" x2="589" y2="29"/>
<polyline fill="none" opacity="1" stroke="#000000" stroke-width="1" points="59,10 59,339 "/>
<text x="50" y="319" dy="0.5ex" text-anchor="end" font-family="sans-serif" font-size="9.67741935483871" opacity="1" fill="#000000">
30000
</text>
<polyline fill="none" opacity="1" stroke="#000000" stroke-width="1" points="54,319 59,319 "/>
<text x="50" y="271" dy="0.5ex" text-anchor="end" font-family="sans-serif" font-size="9.67741935483871" opacity="1" fill="#000000">
40000
</text>
<polyline fill="none" opacity="1" stroke="#000000" stroke-width="1" points="54,271 59,271 "/>
<text x="50" y="222" dy="0.5ex" text-anchor="end" font-family="sans-serif" font-size="9.67741935483871" opacity="1" fill="#000000">
50000
</text>
<polyline fill="none" opacity="1" stroke="#000000" stroke-width="1" points="54,222 59,222 "/>
<text x="50" y="174" dy="0.5ex" text-anchor="end" font-family="sans-serif" font-size="9.67741935483871" opacity="1" fill="#000000">
60000
</text>
<polyline fill="none" opacity="1" stroke="#000000" stroke-width="1" points="54,174 59,174 "/>
<text x="50" y="125" dy="0.5ex" text-anchor="end" font-family="sans-serif" font-size="9.67741935483871" opacity="1" fill="#000000">
70000
</text>
<polyline fill="none" opacity="1" stroke="#000000" stroke-width="1" points="54,125 59,125 "/>
<text x="50" y="77" dy="0.5ex" text-anchor="end" font-family="sans-serif" font-size="9.67741935483871" opacity="1" fill="#000000">
80000
</text>
<polyline fill="none" opacity="1" stroke="#000000" stroke-width="1" points="54,77 59,77 "/>
<text x="50" y="29" dy="0.5ex" text-anchor="end" font-family="sans-serif" font-size="9.67741935483871" opacity="1" fill="#000000">
90000
</text>
<polyline fill="none" opacity="1" stroke="#000000" stroke-width="1" points="54,29 59,29 "/>
<polyline fill="none" opacity="1" stroke="#000000" stroke-width="1" points="60,340 589,340 "/>
<text x="60" y="350" dy="0.76em" text-anchor="middle" font-family="sans-serif" font-size="9.67741935483871" opacity="1" fill="#000000">
2026-05-17
</text>
<polyline fill="none" opacity="1" stroke="#000000" stroke-width="1" points="60,340 60,345 "/>
<text x="324" y="350" dy="0.76em" text-anchor="middle" font-family="sans-serif" font-size="9.67741935483871" opacity="1" fill="#000000">
2026-05-18
</text>
<polyline fill="none" opacity="1" stroke="#000000" stroke-width="1" points="324,340 324,345 "/>
<text x="589" y="350" dy="0.76em" text-anchor="middle" font-family="sans-serif" font-size="9.67741935483871" opacity="1" fill="#000000">
2026-05-19
</text>
<polyline fill="none" opacity="1" stroke="#000000" stroke-width="1" points="589,340 589,345 "/>
<polyline fill="none" opacity="1" stroke="#E61919" stroke-width="2" points="60,54 324,53 589,52 "/>
<polyline fill="none" opacity="1" stroke="#BDE619" stroke-width="2" points="60,123 324,122 589,121 "/>
<polyline fill="none" opacity="1" stroke="#19E66B" stroke-width="2" points="60,226 324,226 589,225 "/>
<polyline fill="none" opacity="1" stroke="#196BE6" stroke-width="2" points="60,172 324,171 589,170 "/>
<polyline fill="none" opacity="1" stroke="#BD19E6" stroke-width="2" points="60,326 324,325 589,324 "/>
<rect x="65" y="130" width="101" height="89" opacity="1" fill="#FFFFFF" stroke="none"/>
<rect x="65" y="130" width="101" height="89" opacity="1" fill="none" stroke="#000000"/>
<text x="105" y="140" dy="0.76em" text-anchor="start" font-family="sans-serif" font-size="9.67741935483871" opacity="1" fill="#000000">
serde
</text>
<text x="105" y="155" dy="0.76em" text-anchor="start" font-family="sans-serif" font-size="9.67741935483871" opacity="1" fill="#000000">
serde_json
</text>
<text x="105" y="170" dy="0.76em" text-anchor="start" font-family="sans-serif" font-size="9.67741935483871" opacity="1" fill="#000000">
thiserror
</text>
<text x="105" y="185" dy="0.76em" text-anchor="start" font-family="sans-serif" font-size="9.67741935483871" opacity="1" fill="#000000">
tokio
</text>
<text x="105" y="200" dy="0.76em" text-anchor="start" font-family="sans-serif" font-size="9.67741935483871" opacity="1" fill="#000000">
tracing
</text>
<polyline fill="none" opacity="1" stroke="#E61919" stroke-width="2" points="75,144 95,144 "/>
<polyline fill="none" opacity="1" stroke="#BDE619" stroke-width="2" points="75,159 95,159 "/>
<polyline fill="none" opacity="1" stroke="#19E66B" stroke-width="2" points="75,174 95,174 "/>
<polyline fill="none" opacity="1" stroke="#196BE6" stroke-width="2" points="75,189 95,189 "/>
<polyline fill="none" opacity="1" stroke="#BD19E6" stroke-width="2" points="75,204 95,204 "/>
</svg>
