<svg width="600" height="400" viewBox="0 0 600 400" xmlns="http://www.w3.org/2000/svg">
<rect x="0" y="0" width="600" height="400" opacity="1" fill="#FFFFFF" stroke="none"/>
<line opacity="0.1" stroke="#000000" stroke-width="1" x1="60" y1="338" x2="589" y2="338"/>
<line opacity="0.1" stroke="#000000" stroke-width="1" x1="60" y1="335" x2="589" y2="335"/>
<line opacity="0.1" stroke="#000000" stroke-width="1" x1="60" y1="332" x2="589" y2="332"/>
<line opacity="0.1" stroke="#000000" stroke-width="1" x1="60" y1="329" x2="589" y2="329"/>
<line opacity="0.1" stroke="#000000" stroke-width="1" x1="60" y1="325" x2="589" y2="325"/>
<line opacity="0.1" stroke="#000000" stroke-width="1" x1="60" y1="322" x2="589" y2="322"/>
<line opacity="0.1" stroke="#000000" stroke-width="1" x1="60" y1="319" x2="589" y2="319"/>
<line opacity="0.1" stroke="#000000" stroke-width="1" x1="60" y1="316" x2="589" y2="316"/>
<line opacity="0.1" stroke="#000000" stroke-width="1" x1="60" y1="313" x2="589" y2="313"/>
<line opacity="0.1" stroke="#000000" stroke-width="1" x1="60" y1="310" x2="589" y2="310"/>
<line opacity="0.1" stroke="#000000" stroke-width="1" x1="60" y1="307" x2="589" y2="307"/>
<line opacity="0.1" stroke="#000000" stroke-width="1" x1="60" y1="304" x2="589" y2="304"/>
<line opacity="0.1" stroke="#000000" stroke-width="1" x1="60" y1="301" x2="589" y2="301"/>
<line opacity="0.1" stroke="#000000" stroke-width="1" x1="60" y1="298" x2="589" y2="298"/>
<line opacity="0.1" stroke="#000000" stroke-width="1" x1="60" y1="295" x2="589" y2="295"/>
<line opacity="0.1" stroke="#000000" stroke-width="1" x1="60" y1="292" x2="589" y2="292"/>
<line opacity="0.1" stroke="#000000" stroke-width="1" x1="60" y1="289" x2="589" y2="289"/>
<line opacity="0.1" stroke="#000000" stroke-width="1" x1="60" y1="285" x2="589" y2="285"/>
<line opacity="0.1" stroke="#000000" stroke-width="1" x1="60" y1="282" x2="589" y2="282"/>
<line opacity="0.1" stroke="#000000" stroke-width="1" x1="60" y1="279" x2="589" y2="279"/>
<line opacity="0.1" stroke="#000000" stroke-width="1" x1="60" y1="276" x2="589" y2="276"/>
<line opacity="0.1" stroke="#000000" stroke-width="1" x1="60" y1="273" x2="589" y2="273"/>
<line opacity="0.1" stroke="#000000" stroke-width="1" x1="60" y1="270" x2="589" y2="270"/>
<line opacity="0.1" stroke="#000000" stroke-width="1" x1="60" y1="267" x2="589" y2="267"/>
<line opacity="0.1" stroke="#000000" stroke-width="1" x1="60" y1="264" x2="589" y2="264"/>
<line opacity="0.1" stroke="#000000" stroke-width="1" x1="60" y1="261" x2="589" y2="261"/>
<line opacity="0.1" stroke="#000000" stroke-width="1" x1="60" y1="258" x2="589" y2="258"/>
<line opacity="0.1" stroke="#000000" stroke-width="1" x1="60" y1="255" x2="589" y2="255"/>
<line opacity="0.1" stroke="#000000" stroke-width="1" x1="60" y1="252" x2="589" y2="252"/>
<line opacity="0.1" stroke="#000000" stroke-width="1" x1="60" y1="249" x2="589" y2="249"/>
<line opacity="0.1" stroke="#000000" stroke-width="1" x1="60" y1="245" x2="589" y2="245"/>
<line opacity="0.1" stroke="#000000" stroke-width="1" x1="60" y1="242" x2="589" y2="242"/>
<line opacity="0.1" stroke="#000000" stroke-width="1" x1="60" y1="239" x2="589" y2="239"/>
<line opacity="0.1" stroke="#000000" stroke-width="1" x1="60" y1="236" x2="589" y2="236"/>
<line opacity="0.1" stroke="#000000" stroke-width="1" x1="60" y1="233" x2="589" y2="233"/>
<line opacity="0.1" stroke="#000000" stroke-width="1" x1="60" y1="230" x2="589" y2="230"/>
<line opacity="0.1" stroke="#000000" stroke-width="1" x1="60" y1="227" x2="589" y2="227"/>
<line opacity="0.1" stroke="#000000" stroke-width="1" x1="60" y1="224" x2="589" y2="224"/>
<line opacity="0.1" stroke="#000000" stroke-width="1" x1="60" y1="221" x2="589" y2="221"/>
<line opacity="0.1" stroke="#000000" stroke-width="1" x1="60" y1="218" x2="589" y2="218"/>
<line opacity="0.1" stroke="#000000" stroke-width="1" x1="60" y1="215" x2="589" y2="215"/>
<line opacity="0.1" stroke="#000000" stroke-width="1" x1="60" y1="212" x2="589" y2="212"/>
<line opacity="0.1" stroke="#000000" stroke-width="1" x1="60" y1="209" x2="589" y2="209"/>
<line opacity="0.1" stroke="#000000" stroke-width="1" x1="60" y1="205" x2="589" y2="205"/>
<line opacity="0.1" stroke="#000000" stroke-width="1" x1="60" y1="202" x2="589" y2="202"/>
<line opacity="0.1" stroke="#000000" stroke-width="1" x1="60" y1="199" x2="589" y2="199"/>
<line opacity="0.1" stroke="#000000" stroke-width="1" x1="60" y1="196" x2="589" y2="196"/>
<line opacity="0.1" stroke="#000000" stroke-width="1" x1="60" y1="193" x2="589" y2="193"/>
<line opacity="0.1" stroke="#000000" stroke-width="1" x1="60" y1="190" x2="589" y2="190"/>
<line opacity="0.1" stroke="#000000" stroke-width="1" x1="60" y1="187" x2="589" y2="187"/>
<line opacity="0.1" stroke="#000000" stroke-width="1" x1="60" y1="184" x2="589" y2="184"/>
<line opacity="0.1" stroke="#000000" stroke-width="1" x1="60" y1="181" x2="589" y2="181"/>
<line opacity="0.1" stroke="#000000" stroke-width="1" x1="60" y1="178" x2="589" y2="178"/>
<line opacity="0.1" stroke="#000000" stroke-width="1" x1="60" y1="175" x2="589" y2="175"/>
<line opacity="0.1" stroke="#000000" stroke-width="1" x1="60" y1="172" x2="589" y2="172"/>
<line opacity="0.1" stroke="#000000" stroke-width="1" x1="60" y1="169" x2="589" y2="169"/>
<line opacity="0.1" stroke="#000000" stroke-width="1" x1="60" y1="165" x2="589" y2="165"/>
<line opacity="0.1" stroke="#000000" stroke-width="1" x1="60" y1="162" x2="589" y2="162"/>
<line opacity="0.1" stroke="#000000" stroke-width="1" x1="60" y1="159" x2="589" y2="159"/>
<line opacity="0.1" stroke="#000000" stroke-width="1" x1="60" y1="156" x2="589" y2="156"/>
<line opacity="0.1" stroke="#000000" stroke-width="1" x1="60" y1="153" x2="589" y2="153"/>
<line opacity="0.1" stroke="#000000" stroke-width="1" x1="60" y1="150" x2="589" y2="150"/>
<line opacity="0.1" stroke="#000000" stroke-width="1" x1="60" y1="147" x2="589" y2="147"/>
<line opacity="0.1" stroke="#000000" stroke-width="1" x1="60" y1="144" x2="589" y2="144"/>
<line opacity="0.1" stroke="#000000" stroke-width="1" x1="60" y1="141" x2="589" y2="141"/>
<line opacity="0.1" stroke="#000000" stroke-width="1" x1="60" y1="138" x2="589" y2="138"/>
<line opacity="0.1" stroke="#000000" stroke-width="1" x1="60" y1="135" x2="589" y2="135"/>
<line opacity="0.1" stroke="#000000" stroke-width="1" x1="60" y1="132" x2="589" y2="132"/>
<line opacity="0.1" stroke="#000000" stroke-width="1" x1="60" y1="129" x2="589" y2="129"/>
<line opacity="0.1" stroke="#000000" stroke-width="1" x1="60" y1="125" x2="589" y2="125"/>
<line opacity="0.1" stroke="#000000" stroke-width="1" x1="60" y1="122" x2="589" y2="122"/>
<line opacity="0.1" stroke="#000000" stroke-width="1" x1="60" y1="119" x2="589" y2="119"/>
<line opacity="0.1" stroke="#000000" stroke-width="1" x1="60" y1="116" x2="589" y2="116"/>
<line opacity="0.1" stroke="#000000" stroke-width="1" x1="60" y1="113" x2="589" y2="113"/>
<line opacity="0.1" stroke="#000000" stroke-width="1" x1="60" y1="110" x2="589" y2="110"/>
<line opacity="0.1" stroke="#000000" stroke-width="1" x1="60" y1="107" x2="589" y2="107"/>
<line opacity="0.1" stroke="#000000" stroke-width="1" x1="60" y1="104" x2="589" y2="104"/>
<line opacity="0.1" stroke="#000000" stroke-width="1" x1="60" y1="101" x2="589" y2="101"/>
<line opacity="0.1" stroke="#000000" stroke-width="1" x1="60" y1="98" x2="589" y2="98"/>
<line opacity="0.1" stroke="#000000" stroke-width="1" x1="60" y1="95" x2="589" y2="95"/>
<line opacity="0.1" stroke="#000000" stroke-width="1" x1="60" y1="92" x2="589" y2="92"/>
<line opacity="0.1" stroke="#000000" stroke-width="1" x1="60" y1="89" x2="589" y2="89"/>
<line opacity="0.1" stroke="#000000" stroke-width="1" x1="60" y1="86" x2="589" y2="86"/>
<line opacity="0.1" stroke="#000000" stroke-width="1" x1="60" y1="82" x2="589" y2="82"/>
<line opacity="0.1" stroke="#000000" stroke-width="1" x1="60" y1="79" x2="589" y2="79"/>
<line opacity="0.1" stroke="#000000" stroke-width="1" x1="60" y1="76" x2="589" y2="76"/>
<line opacity="0.1" stroke="#000000" stroke-width="1" x1="60" y1="73" x2="589" y2="73"/>
<line opacity="0.1" stroke="#000000" stroke-width="1" x1="60" y1="70" x2="589" y2="70"/>
<line opacity="0.1" stroke="#000000" stroke-width="1" x1="60" y1="67" x2="589" y2="67"/>
<line opacity="0.1" stroke="#000000" stroke-width="1" x1="60" y1="64" x2="589" y2="64"/>
<line opacity="0.1" stroke="#000000" stroke-width="1" x1="60" y1="61" x2="589" y2="61"/>
<line opacity="0.1" stroke="#000000" stroke-width="1" x1="60" y1="58" x2="589" y2="58"/>
<line opacity="0.1" stroke="#000000" stroke-width="1" x1="60" y1="55" x2="589" y2="55"/>
<line opacity="0.1" stroke="#000000" stroke-width="1" x1="60" y1="52" x2="589" y2="52"/>
<line opacity="0.1" stroke="#000000" stroke-width="1" x1="60" y1="49" x2="589" y2="49"/>
<line opacity="0.1" stroke="#000000" stroke-width="1" x1="60" y1="46" x2="589" y2="46"/>
<line opacity="0.1" stroke="#000000" stroke-width="1" x1="60" y1="42" x2="589" y2="42"/>
<line opacity="0.1" stroke="#000000" stroke-width="1" x1="60" y1="39" x2="589" y2="39"/>
<line opacity="0.1" stroke="#000000" stroke-width="1" x1="60" y1="36" x2="589" y2="36"/>
<line opacity="0.1" stroke="#000000" stroke-width="1" x1="60" y1="33" x2="589" y2="33"/>
<line opacity="0.1" stroke="#000000" stroke-width="1" x1="60" y1="30" x2="589" y2="30"/>
<line opacity="0.1" stroke="#000000" stroke-width="1" x1="60" y1="27" x2="589" y2="27"/>
<line opacity="0.1" stroke="#000000" stroke-width="1" x1="60" y1="24" x2="589" y2="24"/>
<line opacity="0.1" stroke="#000000" stroke-width="1" x1="60" y1="21" x2="589" y2="21"/>
<line opacity="0.1" stroke="#000000" stroke-width="1" x1="60" y1="18" x2="589" y2="18"/>
<line opacity="0.1" stroke="#000000" stroke-width="1" x1="60" y1="15" x2="589" y2="15"/>
<line opacity="0.1" stroke="#000000" stroke-width="1" x1="60" y1="12" x2="589" y2="12"/>
<text x="10" y="175" dy="0.76em" text-anchor="middle" font-family="sans-serif" font-size="9.67741935483871" opacity="1" fill="#000000" transform="rotate(270, 10, 175)">
Number of dependent crates
</text>
<line opacity="0.2" stroke="#000000" stroke-width="1" x1="60" y1="322" x2="589" y2="322"/>
<line opacity="0.2" stroke="#000000" stroke-width="1" x1="60" y1="292" x2="589" y2="292"/>
<line opacity="0.2" stroke="#000000" stroke-width="1" x1="60" y1="261" x2="589" y2="261"/>
<line opacity="0.2" stroke="#000000" stroke-width="1" x1="60" y1="230" x2="589" y2="230"/>
<line opacity="0.2" stroke="#000000" stroke-width="1" x1="60" y1="199" x2="589" y2="199"/>
<line opacity="0.2" stroke="#000000" stroke-width="1" x1="60" y1="169" x2="589" y2="169"/>
<line opacity="0.2" stroke="#000000" stroke-width="1" x1="60" y1="138" x2="589" y2="138"/>
<line opacity="0.2" stroke="#000000" stroke-width="1" x1="60" y1="107" x2="589" y2="107"/>
<line opacity="0.2" stroke="#000000" stroke-width="1" x1="60" y1="76" x2="589" y2="76"/>
<line opacity="0.2" stroke="#000000" stroke-width="1" x1="60" y1="46" x2="589" y2="46"/>
<line opacity="0.2" stroke="#000000" stroke-width="1" x1="60" y1="15" x2="589" y2="15"/>
<polyline fill="none" opacity="1" stroke="#000000" stroke-width="1" points="59,10 59,339 "/>
<text x="50" y="322" dy="0.5ex" text-anchor="end" font-family="sans-serif" font-size="9.67741935483871" opacity="1" fill="#000000">
12000
</text>
<polyline fill="none" opacity="1" stroke="#000000" stroke-width="1" points="54,322 59,322 "/>
<text x="50" y="292" dy="0.5ex" text-anchor="end" font-family="sans-serif" font-size="9.67741935483871" opacity="1" fill="#000000">
14000
</text>
<polyline fill="none" opacity="1" stroke="#000000" stroke-width="1" points="54,292 59,292 "/>
<text x="50" y="261" dy="0.5ex" text-anchor="end" font-family="sans-serif" font-size="9.67741935483871" opacity="1" fill="#000000">
16000
</text>
<polyline fill="none" opacity="1" stroke="#000000" stroke-width="1" points="54,261 59,261 "/>
<text x="50" y="230" dy="0.5ex" text-anchor="end" font-family="sans-serif" font-size="9.67741935483871" opacity="1" fill="#000000">
18000
</text>
<polyline fill="none" opacity="1" stroke="#000000" stroke-width="1" points="54,230 59,230 "/>
<text x="50" y="199" dy="0.5ex" text-anchor="end" font-family="sans-serif" font-size="9.67741935483871" opacity="1" fill="#000000">
20000
</text>
<polyline fill="none" opacity="1" stroke="#000000" stroke-width="1" points="54,199 59,199 "/>
<text x="50" y="169" dy="0.5ex" text-anchor="end" font-family="sans-serif" font-size="9.67741935483871" opacity="1" fill="#000000">
22000
</text>
<polyline fill="none" opacity="1" stroke="#000000" stroke-width="1" points="54,169 59,169 "/>
<text x="50" y="138" dy="0.5ex" text-anchor="end" font-family="sans-serif" font-size="9.67741935483871" opacity="1" fill="#000000">
24000
</text>
<polyline fill="none" opacity="1" stroke="#000000" stroke-width="1" points="54,138 59,138 "/>
<text x="50" y="107" dy="0.5ex" text-anchor="end" font-family="sans-serif" font-size="9.67741935483871" opacity="1" fill="#000000">
26000
</text>
<polyline fill="none" opacity="1" stroke="#000000" stroke-width="1" points="54,107 59,107 "/>
<text x="50" y="76" dy="0.5ex" text-anchor="end" font-family="sans-serif" font-size="9.67741935483871" opacity="1" fill="#000000">
28000
</text>
<polyline fill="none" opacity="1" stroke="#000000" stroke-width="1" points="54,76 59,76 "/>
<text x="50" y="46" dy="0.5ex" text-anchor="end" font-family="sans-serif" font-size="9.67741935483871" opacity="1" fill="#000000">
30000
</text>
<polyline fill="none" opacity="1" stroke="#000000" stroke-width="1" points="54,46 59,46 "/>
<text x="50" y="15" dy="0.5ex" text-anchor="end" font-family="sans-serif" font-size="9.67741935483871" opacity="1" fill="#000000">
32000
</text>
<polyline fill="none" opacity="1" stroke="#000000" stroke-width="1" points="54,15 59,15 "/>
<polyline fill="none" opacity="1" stroke="#000000" stroke-width="1" points="60,340 589,340 "/>
<text x="60" y="350" dy="0.76em" text-anchor="middle" font-family="sans-serif" font-size="9.67741935483871" opacity="1" fill="#000000">
2023-11-05
</text>
<polyline fill="none" opacity="1" stroke="#000000" stroke-width="1" points="60,340 60,345 "/>
<text x="192" y="350" dy="0.76em" text-anchor="middle" font-family="sans-serif" font-size="9.67741935483871" opacity="1" fill="#000000">
2023-11-12
</text>
<polyline fill="none" opacity="1" stroke="#000000" stroke-width="1" points="192,340 192,345 "/>
<text x="324" y="350" dy="0.76em" text-anchor="middle" font-family="sans-serif" font-size="9.67741935483871" opacity="1" fill="#000000">
2023-11-19
</text>
<polyline fill="none" opacity="1" stroke="#000000" stroke-width="1" points="324,340 324,345 "/>
<text x="456" y="350" dy="0.76em" text-anchor="middle" font-family="sans-serif" font-size="9.67741935483871" opacity="1" fill="#000000">
2023-11-26
</text>
<polyline fill="none" opacity="1" stroke="#000000" stroke-width="1" points="456,340 456,345 "/>
<text x="589" y="350" dy="0.76em" text-anchor="middle" font-family="sans-serif" font-size="9.67741935483871" opacity="1" fill="#000000">
2023-12-03
</text>
<polyline fill="none" opacity="1" stroke="#000000" stroke-width="1" points="589,340 589,345 "/>
<polyline fill="none" opacity="1" stroke="#E61919" stroke-width="2" points="60,305 60,304 78,304 78,304 97,304 97,304 116,304 116,304 135,304 135,304 154,304 154,304 173,304 173,303 192,303 192,303 211,303 211,303 230,303 230,303 248,303 248,302 267,302 267,302 286,302 286,302 305,302 305,302 324,302 324,302 343,302 343,301 362,301 362,301 381,301 381,301 400,301 400,301 418,301 418,300 437,300 437,300 456,300 456,300 475,300 475,300 494,300 494,299 513,299 513,299 532,299 532,299 551,299 551,299 570,299 570,299 589,299 "/>
<polyline fill="none" opacity="1" stroke="#BDE619" stroke-width="2" points="60,66 60,65 78,65 78,65 97,65 97,65 116,65 116,64 135,64 135,64 154,64 154,64 173,64 173,63 192,63 192,63 211,63 211,63 230,63 230,62 248,62 248,62 267,62 267,61 286,61 286,61 305,61 305,61 324,61 324,60 343,60 343,60 362,60 362,59 381,59 381,59 400,59 400,58 418,58 418,58 437,58 437,58 456,58 456,58 475,58 475,57 494,57 494,57 513,57 513,56 532,56 532,56 551,56 551,56 570,56 570,56 589,56 "/>
<polyline fill="none" opacity="1" stroke="#19E66B" stroke-width="2" points="60,189 60,189 78,189 78,188 97,188 97,188 116,188 116,188 135,188 135,188 154,188 154,188 173,188 173,187 192,187 192,187 211,187 211,187 230,187 230,187 248,187 248,186 267,186 267,186 286,186 286,186 305,186 305,185 324,185 324,185 343,185 343,185 362,185 362,184 381,184 381,184 400,184 400,184 418,184 418,183 437,183 437,183 456,183 456,183 475,183 475,183 494,183 494,182 513,182 513,182 532,182 532,182 551,182 551,182 570,182 570,182 589,182 "/>
<polyline fill="none" opacity="1" stroke="#196BE6" stroke-width="2" points="60,321 60,321 78,321 78,321 97,321 97,320 116,320 116,320 135,320 135,320 154,320 154,320 173,320 173,320 192,320 192,319 211,319 211,319 230,319 230,319 248,319 248,319 267,319 267,319 286,319 286,318 305,318 305,318 324,318 324,318 343,318 343,318 362,318 362,317 381,317 381,317 400,317 400,317 418,317 418,317 437,317 437,316 456,316 456,316 475,316 475,316 494,316 494,316 513,316 513,315 532,315 532,315 551,315 551,315 570,315 570,315 589,315 "/>
<polyline fill="none" opacity="1" stroke="#BD19E6" stroke-width="2" points="60,250 60,250 78,250 78,249 97,249 97,249 116,249 116,249 135,249 135,249 154,249 154,248 173,248 173,248 192,248 192,248 211,248 211,248 230,248 230,247 248,247 248,247 267,247 267,247 286,247 286,247 305,247 305,246 324,246 324,246 343,246 343,246 362,246 362,245 381,245 381,245 400,245 400,245 418,245 418,245 437,245 437,244 456,244 456,244 475,244 475,244 494,244 494,243 513,243 513,243 532,243 532,243 551,243 551,243 570,243 570,242 589,242 "/>
<rect x="65" y="130" width="101" height="89" opacity="1" fill="#FFFFFF" stroke="none"/>
<rect x="65" y="130" width="101" height="89" opacity="1" fill="none" stroke="#000000"/>
<text x="105" y="140" dy="0.76em" text-anchor="start" font-family="sans-serif" font-size="9.67741935483871" opacity="1" fill="#000000">
clap
</text>
<text x="105" y="155" dy="0.76em" text-anchor="start" font-family="sans-serif" font-size="9.67741935483871" opacity="1" fill="#000000">
serde
</text>
<text x="105" y="170" dy="0.76em" text-anchor="start" font-family="sans-serif" font-size="9.67741935483871" opacity="1" fill="#000000">
serde_json
</text>
<text x="105" y="185" dy="0.76em" text-anchor="start" font-family="sans-serif" font-size="9.67741935483871" opacity="1" fill="#000000">
thiserror
</text>
<text x="105" y="200" dy="0.76em" text-anchor="start" font-family="sans-serif" font-size="9.67741935483871" opacity="1" fill="#000000">
tokio
</text>
<polyline fill="none" opacity="1" stroke="#E61919" stroke-width="2" points="75,144 95,144 "/>
<polyline fill="none" opacity="1" stroke="#BDE619" stroke-width="2" points="75,159 95,159 "/>
<polyline fill="none" opacity="1" stroke="#19E66B" stroke-width="2" points="75,174 95,174 "/>
<polyline fill="none" opacity="1" stroke="#196BE6" stroke-width="2" points="75,189 95,189 "/>
<polyline fill="none" opacity="1" stroke="#BD19E6" stroke-width="2" points="75,204 95,204 "/>
</svg>
