<svg width="600" height="400" viewBox="0 0 600 400" xmlns="http://www.w3.org/2000/svg">
<rect x="0" y="0" width="600" height="400" opacity="1" fill="#FFFFFF" stroke="none"/>
<line opacity="0.1" stroke="#000000" stroke-width="1" x1="60" y1="336" x2="589" y2="336"/>
<line opacity="0.1" stroke="#000000" stroke-width="1" x1="60" y1="329" x2="589" y2="329"/>
<line opacity="0.1" stroke="#000000" stroke-width="1" x1="60" y1="321" x2="589" y2="321"/>
<line opacity="0.1" stroke="#000000" stroke-width="1" x1="60" y1="314" x2="589" y2="314"/>
<line opacity="0.1" stroke="#000000" stroke-width="1" x1="60" y1="306" x2="589" y2="306"/>
<line opacity="0.1" stroke="#000000" stroke-width="1" x1="60" y1="299" x2="589" y2="299"/>
<line opacity="0.1" stroke="#000000" stroke-width="1" x1="60" y1="291" x2="589" y2="291"/>
<line opacity="0.1" stroke="#000000" stroke-width="1" x1="60" y1="284" x2="589" y2="284"/>
<line opacity="0.1" stroke="#000000" stroke-width="1" x1="60" y1="276" x2="589" y2="276"/>
<line opacity="0.1" stroke="#000000" stroke-width="1" x1="60" y1="269" x2="589" y2="269"/>
<line opacity="0.1" stroke="#000000" stroke-width="1" x1="60" y1="262" x2="589" y2="262"/>
<line opacity="0.1" stroke="#000000" stroke-width="1" x1="60" y1="254" x2="589" y2="254"/>
<line opacity="0.1" stroke="#000000" stroke-width="1" x1="60" y1="247" x2="589" y2="247"/>
<line opacity="0.1" stroke="#000000" stroke-width="1" x1="60" y1="239" x2="589" y2="239"/>
<line opacity="0.1" stroke="#000000" stroke-width="1" x1="60" y1="232" x2="589" y2="232"/>
<line opacity="0.1" stroke="#000000" stroke-width="1" x1="60" y1="224" x2="589" y2="224"/>
<line opacity="0.1" stroke="#000000" stroke-width="1" x1="60" y1="217" x2="589" y2="217"/>
<line opacity="0.1" stroke="#000000" stroke-width="1" x1="60" y1="209" x2="589" y2="209"/>
<line opacity="0.1" stroke="#000000" stroke-width="1" x1="60" y1="202" x2="589" y2="202"/>
<line opacity="0.1" stroke="#000000" stroke-width="1" x1="60" y1="195" x2="589" y2="195"/>
<line opacity="0.1" stroke="#000000" stroke-width="1" x1="60" y1="187" x2="589" y2="187"/>
<line opacity="0.1" stroke="#000000" stroke-width="1" x1="60" y1="180" x2="589" y2="180"/>
<line opacity="0.1" stroke="#000000" stroke-width="1" x1="60" y1="172" x2="589" y2="172"/>
<line opacity="0.1" stroke="#000000" stroke-width="1" x1="60" y1="165" x2="589" y2="165"/>
<line opacity="0.1" stroke="#000000" stroke-width="1" x1="60" y1="157" x2="589" y2="157"/>
<line opacity="0.1" stroke="#000000" stroke-width="1" x1="60" y1="150" x2="589" y2="150"/>
<line opacity="0.1" stroke="#000000" stroke-width="1" x1="60" y1="143" x2="589" y2="143"/>
<line opacity="0.1" stroke="#000000" stroke-width="1" x1="60" y1="135" x2="589" y2="135"/>
<line opacity="0.1" stroke="#000000" stroke-width="1" x1="60" y1="128" x2="589" y2="128"/>
<line opacity="0.1" stroke="#000000" stroke-width="1" x1="60" y1="120" x2="589" y2="120"/>
<line opacity="0.1" stroke="#000000" stroke-width="1" x1="60" y1="113" x2="589" y2="113"/>
<line opacity="0.1" stroke="#000000" stroke-width="1" x1="60" y1="105" x2="589" y2="105"/>
<line opacity="0.1" stroke="#000000" stroke-width="1" x1="60" y1="98" x2="589" y2="98"/>
<line opacity="0.1" stroke="#000000" stroke-width="1" x1="60" y1="90" x2="589" y2="90"/>
<line opacity="0.1" stroke="#000000" stroke-width="1" x1="60" y1="83" x2="589" y2="83"/>
<line opacity="0.1" stroke="#000000" stroke-width="1" x1="60" y1="76" x2="589" y2="76"/>
<line opacity="0.1" stroke="#000000" stroke-width="1" x1="60" y1="68" x2="589" y2="68"/>
<line opacity="0.1" stroke="#000000" stroke-width="1" x1="60" y1="61" x2="589" y2="61"/>
<line opacity="0.1" stroke="#000000" stroke-width="1" x1="60" y1="53" x2="589" y2="53"/>
<line opacity="0.1" stroke="#000000" stroke-width="1" x1="60" y1="46" x2="589" y2="46"/>
<line opacity="0.1" stroke="#000000" stroke-width="1" x1="60" y1="38" x2="589" y2="38"/>
<line opacity="0.1" stroke="#000000" stroke-width="1" x1="60" y1="31" x2="589" y2="31"/>
<line opacity="0.1" stroke="#000000" stroke-width="1" x1="60" y1="23" x2="589" y2="23"/>
<line opacity="0.1" stroke="#000000" stroke-width="1" x1="60" y1="16" x2="589" y2="16"/>
<text x="10" y="175" dy="0.76em" text-anchor="middle" font-family="sans-serif" font-size="9.67741935483871" opacity="1" fill="#000000" transform="rotate(270, 10, 175)">
Fraction of dependent crates
</text>
<line opacity="0.2" stroke="#000000" stroke-width="1" x1="60" y1="321" x2="589" y2="321"/>
<line opacity="0.2" stroke="#000000" stroke-width="1" x1="60" y1="291" x2="589" y2="291"/>
<line opacity="0.2" stroke="#000000" stroke-width="1" x1="60" y1="262" x2="589" y2="262"/>
<line opacity="0.2" stroke="#000000" stroke-width="1" x1="60" y1="232" x2="589" y2="232"/>
<line opacity="0.2" stroke="#000000" stroke-width="1" x1="60" y1="202" x2="589" y2="202"/>
<line opacity="0.2" stroke="#000000" stroke-width="1" x1="60" y1="172" x2="589" y2="172"/>
<line opacity="0.2" stroke="#000000" stroke-width="1" x1="60" y1="143" x2="589" y2="143"/>
<line opacity="0.2" stroke="#000000" stroke-width="1" x1="60" y1="113" x2="589" y2="113"/>
<line opacity="0.2" stroke="#000000" stroke-width="1" x1="60" y1="83" x2="589" y2="83"/>
<line opacity="0.2" stroke="#000000" stroke-width="1" x1="60" y1="53" x2="589" y2="53"/>
<line opacity="0.2" stroke="#000000" stroke-width="1" x1="60" y1="23" x2="589" y2="23"/>
<polyline fill="none" opacity="1" stroke="#000000" stroke-width="1" points="59,10 59,339 "/>
<text x="50" y="321" dy="0.5ex" text-anchor="end" font-family="sans-serif" font-size="9.67741935483871" opacity="1" fill="#000000">
0.06
</text>
<polyline fill="none" opacity="1" stroke="#000000" stroke-width="1" points="54,321 59,321 "/>
<text x="50" y="291" dy="0.5ex" text-anchor="end" font-family="sans-serif" font-size="9.67741935483871" opacity="1" fill="#000000">
0.08
</text>
<polyline fill="none" opacity="1" stroke="#000000" stroke-width="1" points="54,291 59,291 "/>
<text x="50" y="262" dy="0.5ex" text-anchor="end" font-family="sans-serif" font-size="9.67741935483871" opacity="1" fill="#000000">
0.1
</text>
<polyline fill="none" opacity="1" stroke="#000000" stroke-width="1" points="54,262 59,262 "/>
<text x="50" y="232" dy="0.5ex" text-anchor="end" font-family="sans-serif" font-size="9.67741935483871" opacity="1" fill="#000000">
0.12
</text>
<polyline fill="none" opacity="1" stroke="#000000" stroke-width="1" points="54,232 59,232 "/>
<text x="50" y="202" dy="0.5ex" text-anchor="end" font-family="sans-serif" font-size="9.67741935483871" opacity="1" fill="#000000">
0.14
</text>
<polyline fill="none" opacity="1" stroke="#000000" stroke-width="1" points="54,202 59,202 "/>
<text x="50" y="172" dy="0.5ex" text-anchor="end" font-family="sans-serif" font-size="9.67741935483871" opacity="1" fill="#000000">
0.16
</text>
<polyline fill="none" opacity="1" stroke="#000000" stroke-width="1" points="54,172 59,172 "/>
<text x="50" y="143" dy="0.5ex" text-anchor="end" font-family="sans-serif" font-size="9.67741935483871" opacity="1" fill="#000000">
0.18
</text>
<polyline fill="none" opacity="1" stroke="#000000" stroke-width="1" points="54,143 59,143 "/>
<text x="50" y="113" dy="0.5ex" text-anchor="end" font-family="sans-serif" font-size="9.67741935483871" opacity="1" fill="#000000">
0.2
</text>
<polyline fill="none" opacity="1" stroke="#000000" stroke-width="1" points="54,113 59,113 "/>
<text x="50" y="83" dy="0.5ex" text-anchor="end" font-family="sans-serif" font-size="9.67741935483871" opacity="1" fill="#000000">
0.22
</text>
<polyline fill="none" opacity="1" stroke="#000000" stroke-width="1" points="54,83 59,83 "/>
<text x="50" y="53" dy="0.5ex" text-anchor="end" font-family="sans-serif" font-size="9.67741935483871" opacity="1" fill="#000000">
0.24
</text>
<polyline fill="none" opacity="1" stroke="#000000" stroke-width="1" points="54,53 59,53 "/>
<text x="50" y="23" dy="0.5ex" text-anchor="end" font-family="sans-serif" font-size="9.67741935483871" opacity="1" fill="#000000">
0.26
</text>
<polyline fill="none" opacity="1" stroke="#000000" stroke-width="1" points="54,23 59,23 "/>
<polyline fill="none" opacity="1" stroke="#000000" stroke-width="1" points="60,340 589,340 "/>
<text x="60" y="350" dy="0.76em" text-anchor="middle" font-family="sans-serif" font-size="9.67741935483871" opacity="1" fill="#000000">
2025-02-02
</text>
<polyline fill="none" opacity="1" stroke="#000000" stroke-width="1" points="60,340 60,345 "/>
<text x="192" y="350" dy="0.76em" text-anchor="middle" font-family="sans-serif" font-size="9.67741935483871" opacity="1" fill="#000000">
2025-02-09
</text>
<polyline fill="none" opacity="1" stroke="#000000" stroke-width="1" points="192,340 192,345 "/>
<text x="324" y="350" dy="0.76em" text-anchor="middle" font-family="sans-serif" font-size="9.67741935483871" opacity="1" fill="#000000">
2025-02-16
</text>
<polyline fill="none" opacity="1" stroke="#000000" stroke-width="1" points="324,340 324,345 "/>
<text x="456" y="350" dy="0.76em" text-anchor="middle" font-family="sans-serif" font-size="9.67741935483871" opacity="1" fill="#000000">
2025-02-23
</text>
<polyline fill="none" opacity="1" stroke="#000000" stroke-width="1" points="456,340 456,345 "/>
<text x="589" y="350" dy="0.76em" text-anchor="middle" font-family="sans-serif" font-size="9.67741935483871" opacity="1" fill="#000000">
2025-03-02
</text>
<polyline fill="none" opacity="1" stroke="#000000" stroke-width="1" points="589,340 589,345 "/>
<polyline fill="none" opacity="1" stroke="#E61919" stroke-width="2" points="60,50 60,50 78,50 78,50 97,50 97,50 116,50 116,50 135,50 135,50 154,50 154,49 173,49 173,49 192,49 192,49 211,49 211,49 230,49 230,49 248,49 248,49 267,49 267,49 286,49 286,49 305,49 305,49 324,49 324,49 343,49 343,49 362,49 362,47 381,47 381,47 400,47 400,47 418,47 418,47 437,47 437,47 456,47 456,47 475,47 475,47 494,47 494,47 513,47 513,47 532,47 532,47 551,47 551,47 570,47 570,47 589,47 "/>
<polyline fill="none" opacity="1" stroke="#BDE619" stroke-width="2" points="60,147 60,147 78,147 78,146 97,146 97,146 116,146 116,146 135,146 135,146 154,146 154,146 173,146 173,146 192,146 192,146 211,146 211,146 230,146 230,146 248,146 248,146 267,146 267,146 286,146 286,146 305,146 305,146 324,146 324,146 343,146 343,146 362,146 362,144 381,144 381,144 400,144 400,144 418,144 418,144 437,144 437,144 456,144 456,144 475,144 475,144 494,144 494,144 513,144 513,144 532,144 532,144 551,144 551,144 570,144 570,144 589,144 "/>
<polyline fill="none" opacity="1" stroke="#19E66B" stroke-width="2" points="60,240 60,240 78,240 78,240 97,240 97,240 116,240 116,240 135,240 135,240 154,240 154,239 173,239 173,239 192,239 192,239 211,239 211,239 230,239 230,239 248,239 248,239 267,239 267,239 286,239 286,239 305,239 305,239 324,239 324,239 343,239 343,239 362,239 362,239 381,239 381,239 400,239 400,239 418,239 418,239 437,239 437,239 456,239 456,239 475,239 475,239 494,239 494,238 513,238 513,238 532,238 532,238 551,238 551,238 570,238 570,238 589,238 "/>
<polyline fill="none" opacity="1" stroke="#196BE6" stroke-width="2" points="60,184 60,184 78,184 78,184 97,184 97,183 116,183 116,183 135,183 135,183 154,183 154,183 173,183 173,183 192,183 192,183 211,183 211,183 230,183 230,183 248,183 248,183 267,183 267,182 286,182 286,182 305,182 305,182 324,182 324,182 343,182 343,182 362,182 362,181 381,181 381,181 400,181 400,181 418,181 418,181 437,181 437,181 456,181 456,181 475,181 475,181 494,181 494,181 513,181 513,180 532,180 532,180 551,180 551,180 570,180 570,180 589,180 "/>
<polyline fill="none" opacity="1" stroke="#BD19E6" stroke-width="2" points="60,332 60,332 78,332 78,331 97,331 97,331 116,331 116,331 135,331 135,331 154,331 154,331 173,331 173,331 192,331 192,331 211,331 211,331 230,331 230,330 248,330 248,330 267,330 267,330 286,330 286,330 305,330 305,330 324,330 324,330 343,330 343,330 362,330 362,329 381,329 381,329 400,329 400,329 418,329 418,329 437,329 437,329 456,329 456,329 475,329 475,329 494,329 494,329 513,329 513,329 532,329 532,329 551,329 551,329 570,329 570,329 589,329 "/>
<rect x="65" y="130" width="101" height="89" opacity="1" fill="#FFFFFF" stroke="none"/>
<rect x="65" y="130" width="101" height="89" opacity="1" fill="none" stroke="#000000"/>
<text x="105" y="140" dy="0.76em" text-anchor="start" font-family="sans-serif" font-size="9.67741935483871" opacity="1" fill="#000000">
serde
</text>
<text x="105" y="155" dy="0.76em" text-anchor="start" font-family="sans-serif" font-size="9.67741935483871" opacity="1" fill="#000000">
serde_json
</text>
<text x="105" y="170" dy="0.76em" text-anchor="start" font-family="sans-serif" font-size="9.67741935483871" opacity="1" fill="#000000">
thiserror
</text>
<text x="105" y="185" dy="0.76em" text-anchor="start" font-family="sans-serif" font-size="9.67741935483871" opacity="1" fill="#000000">
tokio
</text>
<text x="105" y="200" dy="0.76em" text-anchor="start" font-family="sans-serif" font-size="9.67741935483871" opacity="1" fill="#000000">
tracing
</text>
<polyline fill="none" opacity="1" stroke="#E61919" stroke-width="2" points="75,144 95,144 "/>
<polyline fill="none" opacity="1" stroke="#BDE619" stroke-width="2" points="75,159 95,159 "/>
<polyline fill="none" opacity="1" stroke="#19E66B" stroke-width="2" points="75,174 95,174 "/>
<polyline fill="none" opacity="1" stroke="#196BE6" stroke-width="2" points="75,189 95,189 "/>
<polyline fill="none" opacity="1" stroke="#BD19E6" stroke-width="2" points="75,204 95,204 "/>
</svg>
